<svg width="206" height="186" viewBox="0 0 206 186" fill="none" xmlns="http://www.w3.org/2000/svg">
<line x1="102.5" y1="178" x2="102.5" y2="124" stroke="#E7E7E7" stroke-dasharray="4 4"/>
<rect y="24" width="206" height="100" rx="12" fill="#FF4C7B"/>
<path d="M25.925 56.689V60H24.869V52.102H27.883C29.555 52.102 30.622 52.883 30.622 54.39C30.622 55.875 29.555 56.689 27.883 56.689H25.925ZM25.925 55.776H27.828C28.95 55.776 29.577 55.281 29.577 54.39C29.577 53.499 28.95 53.015 27.828 53.015H25.925V55.776ZM32.9369 60.099C31.8919 60.099 31.0449 59.483 31.0449 58.449C31.0449 57.305 31.9359 56.832 33.2229 56.568L34.6199 56.282V56.04C34.6199 55.38 34.2569 55.006 33.4869 55.006C32.7609 55.006 32.3319 55.347 32.1559 55.985L31.2209 55.743C31.4959 54.808 32.3429 54.137 33.5199 54.137C34.8069 54.137 35.5989 54.764 35.5989 55.996V58.801C35.5989 59.175 35.8299 59.296 36.2149 59.208V60C35.3349 60.11 34.8289 59.901 34.7079 59.351C34.3559 59.802 33.7179 60.099 32.9369 60.099ZM34.6199 58.042V57.052L33.4979 57.294C32.6179 57.47 32.0239 57.712 32.0239 58.405C32.0239 58.966 32.4309 59.296 33.0579 59.296C33.9049 59.296 34.6199 58.779 34.6199 58.042ZM40.2669 54.225V55.226C40.1019 55.193 39.9699 55.182 39.7829 55.182C38.9469 55.182 38.2759 55.842 38.2759 56.854V60H37.2859V54.247H38.2759V55.226C38.5289 54.643 39.0899 54.203 39.8709 54.203C40.0249 54.203 40.1679 54.214 40.2669 54.225ZM41.5757 58.625V55.094H40.6847V54.247H41.5757V52.564H42.5547V54.247H43.8637V55.094H42.5547V58.471C42.5547 59.076 42.8517 59.186 43.3577 59.186C43.5887 59.186 43.7537 59.175 43.9847 59.12V59.967C43.7317 60.022 43.4457 60.055 43.1157 60.055C42.1367 60.055 41.5757 59.725 41.5757 58.625ZM45.16 60V54.247H46.15V55.028C46.48 54.555 47.052 54.137 47.866 54.137C49.087 54.137 49.78 54.984 49.78 56.205V60H48.79V56.469C48.79 55.666 48.449 55.061 47.591 55.061C46.876 55.061 46.15 55.611 46.15 56.568V60H45.16ZM53.6679 60.121C52.0729 60.121 50.9729 58.9 50.9729 57.129C50.9729 55.413 52.0619 54.137 53.6239 54.137C55.2299 54.137 56.0769 55.358 56.0769 56.953V57.283H51.9189C51.9739 58.493 52.6669 59.263 53.6679 59.263C54.4379 59.263 54.9879 58.845 55.1639 58.163L56.0329 58.471C55.6809 59.494 54.8119 60.121 53.6679 60.121ZM53.6129 54.984C52.7769 54.984 52.1499 55.545 51.9739 56.524H55.0759C55.0539 55.71 54.6139 54.984 53.6129 54.984ZM60.2904 54.225V55.226C60.1254 55.193 59.9934 55.182 59.8064 55.182C58.9704 55.182 58.2994 55.842 58.2994 56.854V60H57.3094V54.247H58.2994V55.226C58.5524 54.643 59.1134 54.203 59.8944 54.203C60.0484 54.203 60.1914 54.214 60.2904 54.225ZM60.6352 58.779L61.4052 58.218C61.7132 58.889 62.4172 59.296 63.1652 59.296C63.8362 59.296 64.4302 59.01 64.4302 58.383C64.4302 57.756 63.8802 57.668 62.9342 57.47C61.9882 57.261 60.9982 57.052 60.9982 55.875C60.9982 54.852 61.8892 54.137 63.1102 54.137C64.1442 54.137 64.9912 54.643 65.3322 55.325L64.6282 55.886C64.3312 55.314 63.7922 54.951 63.0662 54.951C62.4062 54.951 61.9662 55.281 61.9662 55.798C61.9662 56.337 62.4722 56.436 63.2752 56.612C64.2652 56.843 65.3982 57.041 65.3982 58.295C65.3982 59.395 64.3972 60.121 63.1652 60.121C62.1202 60.121 61.0752 59.67 60.6352 58.779ZM66.6229 60V52.102H67.6129V55.028C67.9429 54.555 68.5149 54.137 69.3289 54.137C70.5499 54.137 71.2429 54.984 71.2429 56.205V60H70.2529V56.469C70.2529 55.666 69.9119 55.061 69.0539 55.061C68.3389 55.061 67.6129 55.611 67.6129 56.568V60H66.6229ZM72.7878 53.246V52.102H73.8658V53.246H72.7878ZM73.8218 54.247V60H72.8318V54.247H73.8218ZM78.2464 60.121C77.4434 60.121 76.8054 59.736 76.4644 59.164V61.98H75.4744V54.247H76.4644V55.083C76.8054 54.522 77.4434 54.137 78.2464 54.137C79.8414 54.137 80.7544 55.49 80.7544 57.129C80.7544 58.757 79.8414 60.121 78.2464 60.121ZM76.4424 56.931V57.338C76.4424 58.658 77.2564 59.252 78.0704 59.252C79.1484 59.252 79.7534 58.361 79.7534 57.129C79.7534 55.886 79.1484 55.006 78.0704 55.006C77.2564 55.006 76.4424 55.589 76.4424 56.931ZM87.065 54.247H87.901L89.089 58.537L90.288 54.247H91.278L89.529 60H88.66L87.461 55.732L86.262 60H85.393L83.644 54.247H84.667L85.877 58.526L87.065 54.247ZM92.199 53.246V52.102H93.277V53.246H92.199ZM93.233 54.247V60H92.243V54.247H93.233ZM95.0395 58.625V55.094H94.1485V54.247H95.0395V52.564H96.0185V54.247H97.3275V55.094H96.0185V58.471C96.0185 59.076 96.3155 59.186 96.8215 59.186C97.0525 59.186 97.2175 59.175 97.4485 59.12V59.967C97.1955 60.022 96.9095 60.055 96.5795 60.055C95.6005 60.055 95.0395 59.725 95.0395 58.625ZM98.6238 60V52.102H99.6138V55.028C99.9438 54.555 100.516 54.137 101.33 54.137C102.551 54.137 103.244 54.984 103.244 56.205V60H102.254V56.469C102.254 55.666 101.913 55.061 101.055 55.061C100.34 55.061 99.6138 55.611 99.6138 56.568V60H98.6238ZM111.577 60H110.345L108.442 54.214V60H106.924V52.102H109.168L110.994 57.723L112.809 52.102H115.02V60H113.48V54.214L111.577 60ZM117.917 60.099C116.784 60.099 115.948 59.417 115.948 58.394C115.948 57.239 116.872 56.755 118.038 56.546L119.479 56.271V56.183C119.479 55.688 119.226 55.38 118.588 55.38C118.016 55.38 117.719 55.633 117.587 56.15L116.124 55.875C116.388 54.896 117.268 54.104 118.643 54.104C120.106 54.104 120.986 54.775 120.986 56.117V58.482C120.986 58.79 121.118 58.889 121.459 58.845V60C120.48 60.143 119.886 59.945 119.633 59.461C119.259 59.868 118.676 60.099 117.917 60.099ZM119.479 57.943V57.349L118.346 57.58C117.84 57.679 117.466 57.844 117.466 58.306C117.466 58.702 117.763 58.933 118.225 58.933C118.874 58.933 119.479 58.592 119.479 57.943ZM121.766 59.021L122.723 58.042C123.119 58.581 123.823 58.922 124.472 58.922C124.989 58.922 125.44 58.746 125.44 58.328C125.44 57.888 125.011 57.833 124.087 57.657C123.152 57.47 122.118 57.228 122.118 55.985C122.118 54.874 123.097 54.104 124.483 54.104C125.506 54.104 126.419 54.522 126.87 55.105L125.99 56.073C125.605 55.578 125.044 55.303 124.439 55.303C123.955 55.303 123.636 55.512 123.636 55.831C123.636 56.205 124.021 56.271 124.736 56.414C125.748 56.623 126.947 56.854 126.947 58.163C126.947 59.373 125.825 60.121 124.439 60.121C123.394 60.121 122.294 59.736 121.766 59.021ZM127.992 58.493V55.501H127.222V54.214H127.992V52.564H129.51V54.214H130.687V55.501H129.51V58.174C129.51 58.669 129.785 58.735 130.236 58.735C130.456 58.735 130.566 58.724 130.764 58.702V59.978C130.489 60.033 130.159 60.066 129.774 60.066C128.608 60.066 127.992 59.681 127.992 58.493ZM134.171 60.121C132.466 60.121 131.3 58.9 131.3 57.107C131.3 55.402 132.477 54.104 134.116 54.104C135.832 54.104 136.756 55.38 136.756 56.997V57.448H132.774C132.884 58.328 133.423 58.856 134.182 58.856C134.776 58.856 135.249 58.57 135.425 58.009L136.723 58.471C136.305 59.527 135.326 60.121 134.171 60.121ZM134.105 55.336C133.489 55.336 133.016 55.699 132.829 56.403H135.227C135.216 55.831 134.853 55.336 134.105 55.336ZM141.121 54.203V55.71C140.945 55.688 140.813 55.677 140.626 55.677C139.823 55.677 139.207 56.172 139.207 57.063V60H137.667V54.214H139.207V55.028C139.46 54.522 140.032 54.181 140.747 54.181C140.901 54.181 141.011 54.192 141.121 54.203ZM142.905 57.107C142.905 58.196 143.444 58.823 144.258 58.823C144.896 58.823 145.281 58.383 145.424 57.789L146.755 58.383C146.491 59.329 145.589 60.121 144.247 60.121C142.564 60.121 141.376 58.9 141.376 57.107C141.376 55.325 142.564 54.104 144.247 54.104C145.578 54.104 146.458 54.874 146.733 55.809L145.424 56.425C145.281 55.831 144.896 55.391 144.258 55.391C143.444 55.391 142.905 56.029 142.905 57.107ZM149.155 60.099C148.022 60.099 147.186 59.417 147.186 58.394C147.186 57.239 148.11 56.755 149.276 56.546L150.717 56.271V56.183C150.717 55.688 150.464 55.38 149.826 55.38C149.254 55.38 148.957 55.633 148.825 56.15L147.362 55.875C147.626 54.896 148.506 54.104 149.881 54.104C151.344 54.104 152.224 54.775 152.224 56.117V58.482C152.224 58.79 152.356 58.889 152.697 58.845V60C151.718 60.143 151.124 59.945 150.871 59.461C150.497 59.868 149.914 60.099 149.155 60.099ZM150.717 57.943V57.349L149.584 57.58C149.078 57.679 148.704 57.844 148.704 58.306C148.704 58.702 149.001 58.933 149.463 58.933C150.112 58.933 150.717 58.592 150.717 57.943ZM157.02 54.203V55.71C156.844 55.688 156.712 55.677 156.525 55.677C155.722 55.677 155.106 56.172 155.106 57.063V60H153.566V54.214H155.106V55.028C155.359 54.522 155.931 54.181 156.646 54.181C156.8 54.181 156.91 54.192 157.02 54.203ZM159.836 60.121C158.241 60.121 157.317 58.757 157.317 57.107C157.317 55.468 158.241 54.104 159.836 54.104C160.562 54.104 161.112 54.39 161.453 54.808V52.102H162.993V60H161.453V59.406C161.112 59.835 160.562 60.121 159.836 60.121ZM161.486 56.953C161.486 55.963 160.936 55.424 160.199 55.424C159.33 55.424 158.868 56.117 158.868 57.107C158.868 58.108 159.33 58.801 160.199 58.801C160.936 58.801 161.486 58.251 161.486 57.272V56.953ZM169.184 52.003V52.883C169.019 52.861 168.92 52.861 168.755 52.861C168.172 52.861 167.853 53.114 167.853 53.851V54.247H169.129V55.094H167.853V60H166.863V55.094H165.994V54.247H166.863V53.785C166.863 52.663 167.479 51.981 168.656 51.981C168.854 51.981 168.964 51.992 169.184 52.003ZM174.966 57.129C174.966 58.911 173.866 60.121 172.293 60.121C170.72 60.121 169.62 58.911 169.62 57.129C169.62 55.347 170.72 54.137 172.293 54.137C173.866 54.137 174.966 55.347 174.966 57.129ZM170.621 57.129C170.621 58.438 171.281 59.274 172.293 59.274C173.305 59.274 173.965 58.438 173.965 57.129C173.965 55.809 173.305 54.973 172.293 54.973C171.281 54.973 170.621 55.809 170.621 57.129ZM179.206 54.225V55.226C179.041 55.193 178.909 55.182 178.722 55.182C177.886 55.182 177.215 55.842 177.215 56.854V60H176.225V54.247H177.215V55.226C177.468 54.643 178.029 54.203 178.81 54.203C178.964 54.203 179.107 54.214 179.206 54.225ZM24.781 69.246V68.102H25.859V69.246H24.781ZM25.815 70.247V76H24.825V70.247H25.815ZM26.8296 74.779L27.5996 74.218C27.9076 74.889 28.6116 75.296 29.3596 75.296C30.0306 75.296 30.6246 75.01 30.6246 74.383C30.6246 73.756 30.0746 73.668 29.1286 73.47C28.1826 73.261 27.1926 73.052 27.1926 71.875C27.1926 70.852 28.0836 70.137 29.3046 70.137C30.3386 70.137 31.1856 70.643 31.5266 71.325L30.8226 71.886C30.5256 71.314 29.9866 70.951 29.2606 70.951C28.6006 70.951 28.1606 71.281 28.1606 71.798C28.1606 72.337 28.6666 72.436 29.4696 72.612C30.4596 72.843 31.5926 73.041 31.5926 74.295C31.5926 75.395 30.5916 76.121 29.3596 76.121C28.3146 76.121 27.2696 75.67 26.8296 74.779ZM32.1792 74.779L32.9492 74.218C33.2572 74.889 33.9612 75.296 34.7092 75.296C35.3802 75.296 35.9742 75.01 35.9742 74.383C35.9742 73.756 35.4242 73.668 34.4782 73.47C33.5322 73.261 32.5422 73.052 32.5422 71.875C32.5422 70.852 33.4332 70.137 34.6542 70.137C35.6882 70.137 36.5352 70.643 36.8762 71.325L36.1722 71.886C35.8752 71.314 35.3362 70.951 34.6102 70.951C33.9502 70.951 33.5102 71.281 33.5102 71.798C33.5102 72.337 34.0162 72.436 34.8192 72.612C35.8092 72.843 36.9422 73.041 36.9422 74.295C36.9422 75.395 35.9412 76.121 34.7092 76.121C33.6642 76.121 32.6192 75.67 32.1792 74.779ZM42.7318 70.247V76H41.7418V75.208C41.4118 75.692 40.8508 76.121 40.0368 76.121C38.8048 76.121 38.1118 75.274 38.1118 74.053V70.247H39.1018V73.844C39.1018 74.658 39.4538 75.208 40.3008 75.208C41.0158 75.208 41.7418 74.669 41.7418 73.712V70.247H42.7318ZM45.8168 76.099C44.7718 76.099 43.9248 75.483 43.9248 74.449C43.9248 73.305 44.8158 72.832 46.1028 72.568L47.4998 72.282V72.04C47.4998 71.38 47.1368 71.006 46.3668 71.006C45.6408 71.006 45.2118 71.347 45.0358 71.985L44.1008 71.743C44.3758 70.808 45.2228 70.137 46.3998 70.137C47.6868 70.137 48.4788 70.764 48.4788 71.996V74.801C48.4788 75.175 48.7098 75.296 49.0948 75.208V76C48.2148 76.11 47.7088 75.901 47.5878 75.351C47.2358 75.802 46.5978 76.099 45.8168 76.099ZM47.4998 74.042V73.052L46.3778 73.294C45.4978 73.47 44.9038 73.712 44.9038 74.405C44.9038 74.966 45.3108 75.296 45.9378 75.296C46.7848 75.296 47.4998 74.779 47.4998 74.042ZM50.1658 76V70.247H51.1558V71.028C51.4858 70.555 52.0578 70.137 52.8718 70.137C54.0928 70.137 54.7858 70.984 54.7858 72.205V76H53.7958V72.469C53.7958 71.666 53.4548 71.061 52.5968 71.061C51.8818 71.061 51.1558 71.611 51.1558 72.568V76H50.1658ZM56.9688 73.129C56.9688 74.438 57.6728 75.252 58.6958 75.252C59.4878 75.252 59.9608 74.746 60.1258 74.031L61.0058 74.438C60.7308 75.395 59.8948 76.121 58.6958 76.121C57.0898 76.121 55.9788 74.9 55.9788 73.129C55.9788 71.347 57.0898 70.137 58.6958 70.137C59.8948 70.137 60.7088 70.83 60.9838 71.787L60.1258 72.216C59.9608 71.512 59.4878 70.995 58.6958 70.995C57.6728 70.995 56.9688 71.809 56.9688 73.129ZM64.3886 76.121C62.7936 76.121 61.6936 74.9 61.6936 73.129C61.6936 71.413 62.7826 70.137 64.3446 70.137C65.9506 70.137 66.7976 71.358 66.7976 72.953V73.283H62.6396C62.6946 74.493 63.3876 75.263 64.3886 75.263C65.1586 75.263 65.7086 74.845 65.8846 74.163L66.7536 74.471C66.4016 75.494 65.5326 76.121 64.3886 76.121ZM64.3336 70.984C63.4976 70.984 62.8706 71.545 62.6946 72.524H65.7966C65.7746 71.71 65.3346 70.984 64.3336 70.984ZM75.3004 73.129C75.3004 74.911 74.2004 76.121 72.6274 76.121C71.0544 76.121 69.9544 74.911 69.9544 73.129C69.9544 71.347 71.0544 70.137 72.6274 70.137C74.2004 70.137 75.3004 71.347 75.3004 73.129ZM70.9554 73.129C70.9554 74.438 71.6154 75.274 72.6274 75.274C73.6394 75.274 74.2994 74.438 74.2994 73.129C74.2994 71.809 73.6394 70.973 72.6274 70.973C71.6154 70.973 70.9554 71.809 70.9554 73.129ZM79.0674 68.003V68.883C78.9024 68.861 78.8034 68.861 78.6384 68.861C78.0554 68.861 77.7364 69.114 77.7364 69.851V70.247H79.0124V71.094H77.7364V76H76.7464V71.094H75.8774V70.247H76.7464V69.785C76.7464 68.663 77.3624 67.981 78.5394 67.981C78.7374 67.981 78.8474 67.992 79.0674 68.003ZM82.2967 76V68.102H84.8047C87.2027 68.102 88.7207 69.642 88.7207 72.051C88.7207 74.46 87.2027 76 84.8047 76H82.2967ZM83.3307 75.087H84.8047C86.5977 75.087 87.6867 73.888 87.6867 72.051C87.6867 70.203 86.5977 69.015 84.7937 69.015H83.3307V75.087ZM95.1603 69.026H92.4873V76H91.4313V69.026H88.7583V68.102H95.1603V69.026ZM95.1143 74.372L95.9393 73.712C96.4343 74.658 97.3253 75.208 98.3483 75.208C99.3713 75.208 100.163 74.702 100.163 73.8C100.163 72.843 99.2503 72.678 98.0513 72.392C96.8083 72.095 95.5763 71.754 95.5763 70.269C95.5763 68.883 96.7753 67.981 98.2713 67.981C99.6463 67.981 100.636 68.641 101.109 69.532L100.306 70.17C99.8993 69.411 99.2723 68.894 98.2493 68.894C97.2923 68.894 96.5993 69.422 96.5993 70.181C96.5993 71.017 97.3363 71.193 98.4473 71.457C99.7563 71.765 101.197 72.04 101.197 73.712C101.197 75.186 99.8883 76.121 98.3263 76.121C96.9623 76.121 95.6533 75.439 95.1143 74.372ZM105.266 73.129C105.266 74.438 105.97 75.252 106.993 75.252C107.785 75.252 108.258 74.746 108.423 74.031L109.303 74.438C109.028 75.395 108.192 76.121 106.993 76.121C105.387 76.121 104.276 74.9 104.276 73.129C104.276 71.347 105.387 70.137 106.993 70.137C108.192 70.137 109.006 70.83 109.281 71.787L108.423 72.216C108.258 71.512 107.785 70.995 106.993 70.995C105.97 70.995 105.266 71.809 105.266 73.129ZM113.368 70.225V71.226C113.203 71.193 113.071 71.182 112.884 71.182C112.048 71.182 111.377 71.842 111.377 72.854V76H110.387V70.247H111.377V71.226C111.63 70.643 112.191 70.203 112.972 70.203C113.126 70.203 113.269 70.214 113.368 70.225ZM116.52 76.121C114.925 76.121 113.825 74.9 113.825 73.129C113.825 71.413 114.914 70.137 116.476 70.137C118.082 70.137 118.929 71.358 118.929 72.953V73.283H114.771C114.826 74.493 115.519 75.263 116.52 75.263C117.29 75.263 117.84 74.845 118.016 74.163L118.885 74.471C118.533 75.494 117.664 76.121 116.52 76.121ZM116.465 70.984C115.629 70.984 115.002 71.545 114.826 72.524H117.928C117.906 71.71 117.466 70.984 116.465 70.984ZM122.274 76.121C120.679 76.121 119.766 74.757 119.766 73.129C119.766 71.49 120.679 70.137 122.274 70.137C123.077 70.137 123.715 70.522 124.056 71.083V68.102H125.046V76H124.056V75.164C123.715 75.736 123.077 76.121 122.274 76.121ZM124.078 72.931C124.078 71.589 123.264 71.006 122.45 71.006C121.372 71.006 120.767 71.886 120.767 73.129C120.767 74.361 121.372 75.252 122.45 75.252C123.264 75.252 124.078 74.658 124.078 73.338V72.931ZM126.638 69.246V68.102H127.716V69.246H126.638ZM127.672 70.247V76H126.682V70.247H127.672ZM129.479 74.625V71.094H128.588V70.247H129.479V68.564H130.458V70.247H131.767V71.094H130.458V74.471C130.458 75.076 130.755 75.186 131.261 75.186C131.492 75.186 131.657 75.175 131.888 75.12V75.967C131.635 76.022 131.349 76.055 131.019 76.055C130.04 76.055 129.479 75.725 129.479 74.625ZM135.978 73.129C135.978 74.438 136.682 75.252 137.705 75.252C138.497 75.252 138.97 74.746 139.135 74.031L140.015 74.438C139.74 75.395 138.904 76.121 137.705 76.121C136.099 76.121 134.988 74.9 134.988 73.129C134.988 71.347 136.099 70.137 137.705 70.137C138.904 70.137 139.718 70.83 139.993 71.787L139.135 72.216C138.97 71.512 138.497 70.995 137.705 70.995C136.682 70.995 135.978 71.809 135.978 73.129ZM142.604 76.099C141.559 76.099 140.712 75.483 140.712 74.449C140.712 73.305 141.603 72.832 142.89 72.568L144.287 72.282V72.04C144.287 71.38 143.924 71.006 143.154 71.006C142.428 71.006 141.999 71.347 141.823 71.985L140.888 71.743C141.163 70.808 142.01 70.137 143.187 70.137C144.474 70.137 145.266 70.764 145.266 71.996V74.801C145.266 75.175 145.497 75.296 145.882 75.208V76C145.002 76.11 144.496 75.901 144.375 75.351C144.023 75.802 143.385 76.099 142.604 76.099ZM144.287 74.042V73.052L143.165 73.294C142.285 73.47 141.691 73.712 141.691 74.405C141.691 74.966 142.098 75.296 142.725 75.296C143.572 75.296 144.287 74.779 144.287 74.042ZM149.934 70.225V71.226C149.769 71.193 149.637 71.182 149.45 71.182C148.614 71.182 147.943 71.842 147.943 72.854V76H146.953V70.247H147.943V71.226C148.196 70.643 148.757 70.203 149.538 70.203C149.692 70.203 149.835 70.214 149.934 70.225ZM152.943 76.121C151.348 76.121 150.435 74.757 150.435 73.129C150.435 71.49 151.348 70.137 152.943 70.137C153.746 70.137 154.384 70.522 154.725 71.083V68.102H155.715V76H154.725V75.164C154.384 75.736 153.746 76.121 152.943 76.121ZM154.747 72.931C154.747 71.589 153.933 71.006 153.119 71.006C152.041 71.006 151.436 71.886 151.436 73.129C151.436 74.361 152.041 75.252 153.119 75.252C153.933 75.252 154.747 74.658 154.747 73.338V72.931ZM156.713 74.779L157.483 74.218C157.791 74.889 158.495 75.296 159.243 75.296C159.914 75.296 160.508 75.01 160.508 74.383C160.508 73.756 159.958 73.668 159.012 73.47C158.066 73.261 157.076 73.052 157.076 71.875C157.076 70.852 157.967 70.137 159.188 70.137C160.222 70.137 161.069 70.643 161.41 71.325L160.706 71.886C160.409 71.314 159.87 70.951 159.144 70.951C158.484 70.951 158.044 71.281 158.044 71.798C158.044 72.337 158.55 72.436 159.353 72.612C160.343 72.843 161.476 73.041 161.476 74.295C161.476 75.395 160.475 76.121 159.243 76.121C158.198 76.121 157.153 75.67 156.713 74.779ZM162.363 76V74.702H163.617V76H162.363ZM29.115 92H28.268L25.859 85.499V92H24.869V84.102H26.31L28.708 90.592L31.117 84.102H32.514V92H31.535V85.499L29.115 92ZM35.6547 92.099C34.6097 92.099 33.7627 91.483 33.7627 90.449C33.7627 89.305 34.6537 88.832 35.9407 88.568L37.3377 88.282V88.04C37.3377 87.38 36.9747 87.006 36.2047 87.006C35.4787 87.006 35.0497 87.347 34.8737 87.985L33.9387 87.743C34.2137 86.808 35.0607 86.137 36.2377 86.137C37.5247 86.137 38.3167 86.764 38.3167 87.996V90.801C38.3167 91.175 38.5477 91.296 38.9327 91.208V92C38.0527 92.11 37.5467 91.901 37.4257 91.351C37.0737 91.802 36.4357 92.099 35.6547 92.099ZM37.3377 90.042V89.052L36.2157 89.294C35.3357 89.47 34.7417 89.712 34.7417 90.405C34.7417 90.966 35.1487 91.296 35.7757 91.296C36.6227 91.296 37.3377 90.779 37.3377 90.042ZM39.3657 90.779L40.1357 90.218C40.4437 90.889 41.1477 91.296 41.8957 91.296C42.5667 91.296 43.1607 91.01 43.1607 90.383C43.1607 89.756 42.6107 89.668 41.6647 89.47C40.7187 89.261 39.7287 89.052 39.7287 87.875C39.7287 86.852 40.6197 86.137 41.8407 86.137C42.8747 86.137 43.7217 86.643 44.0627 87.325L43.3587 87.886C43.0617 87.314 42.5227 86.951 41.7967 86.951C41.1367 86.951 40.6967 87.281 40.6967 87.798C40.6967 88.337 41.2027 88.436 42.0057 88.612C42.9957 88.843 44.1287 89.041 44.1287 90.295C44.1287 91.395 43.1277 92.121 41.8957 92.121C40.8507 92.121 39.8057 91.67 39.3657 90.779ZM45.5073 90.625V87.094H44.6163V86.247H45.5073V84.564H46.4863V86.247H47.7953V87.094H46.4863V90.471C46.4863 91.076 46.7833 91.186 47.2893 91.186C47.5203 91.186 47.6853 91.175 47.9163 91.12V91.967C47.6633 92.022 47.3773 92.055 47.0473 92.055C46.0683 92.055 45.5073 91.725 45.5073 90.625ZM51.3584 92.121C49.7634 92.121 48.6634 90.9 48.6634 89.129C48.6634 87.413 49.7524 86.137 51.3144 86.137C52.9204 86.137 53.7674 87.358 53.7674 88.953V89.283H49.6094C49.6644 90.493 50.3574 91.263 51.3584 91.263C52.1284 91.263 52.6784 90.845 52.8544 90.163L53.7234 90.471C53.3714 91.494 52.5024 92.121 51.3584 92.121ZM51.3034 86.984C50.4674 86.984 49.8404 87.545 49.6644 88.524H52.7664C52.7444 87.71 52.3044 86.984 51.3034 86.984ZM57.9808 86.225V87.226C57.8158 87.193 57.6838 87.182 57.4968 87.182C56.6608 87.182 55.9898 87.842 55.9898 88.854V92H54.9998V86.247H55.9898V87.226C56.2428 86.643 56.8038 86.203 57.5848 86.203C57.7388 86.203 57.8818 86.214 57.9808 86.225ZM59.4288 89.129C59.4288 90.438 60.1328 91.252 61.1558 91.252C61.9478 91.252 62.4208 90.746 62.5858 90.031L63.4658 90.438C63.1908 91.395 62.3548 92.121 61.1558 92.121C59.5498 92.121 58.4388 90.9 58.4388 89.129C58.4388 87.347 59.5498 86.137 61.1558 86.137C62.3548 86.137 63.1688 86.83 63.4438 87.787L62.5858 88.216C62.4208 87.512 61.9478 86.995 61.1558 86.995C60.1328 86.995 59.4288 87.809 59.4288 89.129ZM66.0551 92.099C65.0101 92.099 64.1631 91.483 64.1631 90.449C64.1631 89.305 65.0541 88.832 66.3411 88.568L67.7381 88.282V88.04C67.7381 87.38 67.3751 87.006 66.6051 87.006C65.8791 87.006 65.4501 87.347 65.2741 87.985L64.3391 87.743C64.6141 86.808 65.4611 86.137 66.6381 86.137C67.9251 86.137 68.7171 86.764 68.7171 87.996V90.801C68.7171 91.175 68.9481 91.296 69.3331 91.208V92C68.4531 92.11 67.9471 91.901 67.8261 91.351C67.4741 91.802 66.8361 92.099 66.0551 92.099ZM67.7381 90.042V89.052L66.6161 89.294C65.7361 89.47 65.1421 89.712 65.1421 90.405C65.1421 90.966 65.5491 91.296 66.1761 91.296C67.0231 91.296 67.7381 90.779 67.7381 90.042ZM73.3851 86.225V87.226C73.2201 87.193 73.0881 87.182 72.9011 87.182C72.0651 87.182 71.3941 87.842 71.3941 88.854V92H70.4041V86.247H71.3941V87.226C71.6471 86.643 72.2081 86.203 72.9891 86.203C73.1431 86.203 73.2861 86.214 73.3851 86.225ZM76.394 92.121C74.799 92.121 73.886 90.757 73.886 89.129C73.886 87.49 74.799 86.137 76.394 86.137C77.197 86.137 77.835 86.522 78.176 87.083V84.102H79.166V92H78.176V91.164C77.835 91.736 77.197 92.121 76.394 92.121ZM78.198 88.931C78.198 87.589 77.384 87.006 76.57 87.006C75.492 87.006 74.887 87.886 74.887 89.129C74.887 90.361 75.492 91.252 76.57 91.252C77.384 91.252 78.198 90.658 78.198 89.338V88.931ZM84.2229 88.689V92H83.1669V84.102H86.1809C87.8529 84.102 88.9199 84.883 88.9199 86.39C88.9199 87.875 87.8529 88.689 86.1809 88.689H84.2229ZM84.2229 87.776H86.1259C87.2479 87.776 87.8749 87.281 87.8749 86.39C87.8749 85.499 87.2479 85.015 86.1259 85.015H84.2229V87.776ZM92.8392 86.225V87.226C92.6742 87.193 92.5422 87.182 92.3552 87.182C91.5192 87.182 90.8482 87.842 90.8482 88.854V92H89.8582V86.247H90.8482V87.226C91.1012 86.643 91.6622 86.203 92.4432 86.203C92.5972 86.203 92.7402 86.214 92.8392 86.225ZM95.9922 92.121C94.3972 92.121 93.2972 90.9 93.2972 89.129C93.2972 87.413 94.3862 86.137 95.9482 86.137C97.5542 86.137 98.4012 87.358 98.4012 88.953V89.283H94.2432C94.2982 90.493 94.9912 91.263 95.9922 91.263C96.7622 91.263 97.3122 90.845 97.4882 90.163L98.3572 90.471C98.0052 91.494 97.1362 92.121 95.9922 92.121ZM95.9372 86.984C95.1012 86.984 94.4742 87.545 94.2982 88.524H97.4002C97.3782 87.71 96.9382 86.984 95.9372 86.984ZM102.142 84.003V84.883C101.977 84.861 101.878 84.861 101.713 84.861C101.13 84.861 100.811 85.114 100.811 85.851V86.247H102.087V87.094H100.811V92H99.8206V87.094H98.9516V86.247H99.8206V85.785C99.8206 84.663 100.437 83.981 101.614 83.981C101.812 83.981 101.922 83.992 102.142 84.003ZM105.273 92.121C103.678 92.121 102.578 90.9 102.578 89.129C102.578 87.413 103.667 86.137 105.229 86.137C106.835 86.137 107.682 87.358 107.682 88.953V89.283H103.524C103.579 90.493 104.272 91.263 105.273 91.263C106.043 91.263 106.593 90.845 106.769 90.163L107.638 90.471C107.286 91.494 106.417 92.121 105.273 92.121ZM105.218 86.984C104.382 86.984 103.755 87.545 103.579 88.524H106.681C106.659 87.71 106.219 86.984 105.218 86.984ZM111.896 86.225V87.226C111.731 87.193 111.599 87.182 111.412 87.182C110.576 87.182 109.905 87.842 109.905 88.854V92H108.915V86.247H109.905V87.226C110.158 86.643 110.719 86.203 111.5 86.203C111.654 86.203 111.797 86.214 111.896 86.225ZM115.967 86.225V87.226C115.802 87.193 115.67 87.182 115.483 87.182C114.647 87.182 113.976 87.842 113.976 88.854V92H112.986V86.247H113.976V87.226C114.229 86.643 114.79 86.203 115.571 86.203C115.725 86.203 115.868 86.214 115.967 86.225ZM119.12 92.121C117.525 92.121 116.425 90.9 116.425 89.129C116.425 87.413 117.514 86.137 119.076 86.137C120.682 86.137 121.529 87.358 121.529 88.953V89.283H117.371C117.426 90.493 118.119 91.263 119.12 91.263C119.89 91.263 120.44 90.845 120.616 90.163L121.485 90.471C121.133 91.494 120.264 92.121 119.12 92.121ZM119.065 86.984C118.229 86.984 117.602 87.545 117.426 88.524H120.528C120.506 87.71 120.066 86.984 119.065 86.984ZM124.874 92.121C123.279 92.121 122.366 90.757 122.366 89.129C122.366 87.49 123.279 86.137 124.874 86.137C125.677 86.137 126.315 86.522 126.656 87.083V84.102H127.646V92H126.656V91.164C126.315 91.736 125.677 92.121 124.874 92.121ZM126.678 88.931C126.678 87.589 125.864 87.006 125.05 87.006C123.972 87.006 123.367 87.886 123.367 89.129C123.367 90.361 123.972 91.252 125.05 91.252C125.864 91.252 126.678 90.658 126.678 89.338V88.931ZM132.702 88.689V92H131.646V84.102H134.66C136.332 84.102 137.399 84.883 137.399 86.39C137.399 87.875 136.332 88.689 134.66 88.689H132.702ZM132.702 87.776H134.605C135.727 87.776 136.354 87.281 136.354 86.39C136.354 85.499 135.727 85.015 134.605 85.015H132.702V87.776ZM139.714 92.099C138.669 92.099 137.822 91.483 137.822 90.449C137.822 89.305 138.713 88.832 140 88.568L141.397 88.282V88.04C141.397 87.38 141.034 87.006 140.264 87.006C139.538 87.006 139.109 87.347 138.933 87.985L137.998 87.743C138.273 86.808 139.12 86.137 140.297 86.137C141.584 86.137 142.376 86.764 142.376 87.996V90.801C142.376 91.175 142.607 91.296 142.992 91.208V92C142.112 92.11 141.606 91.901 141.485 91.351C141.133 91.802 140.495 92.099 139.714 92.099ZM141.397 90.042V89.052L140.275 89.294C139.395 89.47 138.801 89.712 138.801 90.405C138.801 90.966 139.208 91.296 139.835 91.296C140.682 91.296 141.397 90.779 141.397 90.042ZM147.044 86.225V87.226C146.879 87.193 146.747 87.182 146.56 87.182C145.724 87.182 145.053 87.842 145.053 88.854V92H144.063V86.247H145.053V87.226C145.306 86.643 145.867 86.203 146.648 86.203C146.802 86.203 146.945 86.214 147.044 86.225ZM148.353 90.625V87.094H147.462V86.247H148.353V84.564H149.332V86.247H150.641V87.094H149.332V90.471C149.332 91.076 149.629 91.186 150.135 91.186C150.366 91.186 150.531 91.175 150.762 91.12V91.967C150.509 92.022 150.223 92.055 149.893 92.055C148.914 92.055 148.353 91.725 148.353 90.625ZM151.937 92V86.247H152.927V87.028C153.257 86.555 153.829 86.137 154.643 86.137C155.864 86.137 156.557 86.984 156.557 88.205V92H155.567V88.469C155.567 87.666 155.226 87.061 154.368 87.061C153.653 87.061 152.927 87.611 152.927 88.568V92H151.937ZM160.445 92.121C158.85 92.121 157.75 90.9 157.75 89.129C157.75 87.413 158.839 86.137 160.401 86.137C162.007 86.137 162.854 87.358 162.854 88.953V89.283H158.696C158.751 90.493 159.444 91.263 160.445 91.263C161.215 91.263 161.765 90.845 161.941 90.163L162.81 90.471C162.458 91.494 161.589 92.121 160.445 92.121ZM160.39 86.984C159.554 86.984 158.927 87.545 158.751 88.524H161.853C161.831 87.71 161.391 86.984 160.39 86.984ZM167.068 86.225V87.226C166.903 87.193 166.771 87.182 166.584 87.182C165.748 87.182 165.077 87.842 165.077 88.854V92H164.087V86.247H165.077V87.226C165.33 86.643 165.891 86.203 166.672 86.203C166.826 86.203 166.969 86.214 167.068 86.225ZM26.266 108.099C25.221 108.099 24.374 107.483 24.374 106.449C24.374 105.305 25.265 104.832 26.552 104.568L27.949 104.282V104.04C27.949 103.38 27.586 103.006 26.816 103.006C26.09 103.006 25.661 103.347 25.485 103.985L24.55 103.743C24.825 102.808 25.672 102.137 26.849 102.137C28.136 102.137 28.928 102.764 28.928 103.996V106.801C28.928 107.175 29.159 107.296 29.544 107.208V108C28.664 108.11 28.158 107.901 28.037 107.351C27.685 107.802 27.047 108.099 26.266 108.099ZM27.949 106.042V105.052L26.827 105.294C25.947 105.47 25.353 105.712 25.353 106.405C25.353 106.966 25.76 107.296 26.387 107.296C27.234 107.296 27.949 106.779 27.949 106.042ZM31.209 105.129C31.209 106.438 31.913 107.252 32.936 107.252C33.728 107.252 34.201 106.746 34.366 106.031L35.246 106.438C34.971 107.395 34.135 108.121 32.936 108.121C31.33 108.121 30.219 106.9 30.219 105.129C30.219 103.347 31.33 102.137 32.936 102.137C34.135 102.137 34.949 102.83 35.224 103.787L34.366 104.216C34.201 103.512 33.728 102.995 32.936 102.995C31.913 102.995 31.209 103.809 31.209 105.129ZM39.3109 102.225V103.226C39.1459 103.193 39.0139 103.182 38.8269 103.182C37.9909 103.182 37.3199 103.842 37.3199 104.854V108H36.3299V102.247H37.3199V103.226C37.5729 102.643 38.1339 102.203 38.9149 102.203C39.0689 102.203 39.2119 102.214 39.3109 102.225ZM45.1148 105.129C45.1148 106.911 44.0148 108.121 42.4418 108.121C40.8688 108.121 39.7688 106.911 39.7688 105.129C39.7688 103.347 40.8688 102.137 42.4418 102.137C44.0148 102.137 45.1148 103.347 45.1148 105.129ZM40.7698 105.129C40.7698 106.438 41.4298 107.274 42.4418 107.274C43.4538 107.274 44.1138 106.438 44.1138 105.129C44.1138 103.809 43.4538 102.973 42.4418 102.973C41.4298 102.973 40.7698 103.809 40.7698 105.129ZM45.7358 106.779L46.5058 106.218C46.8138 106.889 47.5178 107.296 48.2658 107.296C48.9368 107.296 49.5308 107.01 49.5308 106.383C49.5308 105.756 48.9808 105.668 48.0348 105.47C47.0888 105.261 46.0988 105.052 46.0988 103.875C46.0988 102.852 46.9898 102.137 48.2108 102.137C49.2448 102.137 50.0918 102.643 50.4328 103.325L49.7288 103.886C49.4318 103.314 48.8928 102.951 48.1668 102.951C47.5068 102.951 47.0668 103.281 47.0668 103.798C47.0668 104.337 47.5728 104.436 48.3758 104.612C49.3658 104.843 50.4988 105.041 50.4988 106.295C50.4988 107.395 49.4978 108.121 48.2658 108.121C47.2208 108.121 46.1758 107.67 45.7358 106.779ZM51.0854 106.779L51.8554 106.218C52.1634 106.889 52.8674 107.296 53.6154 107.296C54.2864 107.296 54.8804 107.01 54.8804 106.383C54.8804 105.756 54.3304 105.668 53.3844 105.47C52.4384 105.261 51.4484 105.052 51.4484 103.875C51.4484 102.852 52.3394 102.137 53.5604 102.137C54.5944 102.137 55.4414 102.643 55.7824 103.325L55.0784 103.886C54.7814 103.314 54.2424 102.951 53.5164 102.951C52.8564 102.951 52.4164 103.281 52.4164 103.798C52.4164 104.337 52.9224 104.436 53.7254 104.612C54.7154 104.843 55.8484 105.041 55.8484 106.295C55.8484 107.395 54.8474 108.121 53.6154 108.121C52.5704 108.121 51.5254 107.67 51.0854 106.779ZM61.7914 100.102H62.9574L66.0044 108H64.9374L64.1344 105.921H60.5924L59.8004 108H58.7444L61.7914 100.102ZM62.3524 101.29L60.9444 104.997H63.7824L62.3524 101.29ZM69.4531 100.003V100.883C69.2881 100.861 69.1891 100.861 69.0241 100.861C68.4411 100.861 68.1221 101.114 68.1221 101.851V102.247H69.3981V103.094H68.1221V108H67.1321V103.094H66.2631V102.247H67.1321V101.785C67.1321 100.663 67.7481 99.981 68.9251 99.981C69.1231 99.981 69.2331 99.992 69.4531 100.003ZM73.2992 102.225V103.226C73.1342 103.193 73.0022 103.182 72.8152 103.182C71.9792 103.182 71.3082 103.842 71.3082 104.854V108H70.3182V102.247H71.3082V103.226C71.5612 102.643 72.1222 102.203 72.9032 102.203C73.0572 102.203 73.2002 102.214 73.2992 102.225ZM74.3455 101.246V100.102H75.4235V101.246H74.3455ZM75.3795 102.247V108H74.3895V102.247H75.3795ZM77.626 105.129C77.626 106.438 78.33 107.252 79.353 107.252C80.145 107.252 80.618 106.746 80.783 106.031L81.663 106.438C81.388 107.395 80.552 108.121 79.353 108.121C77.747 108.121 76.636 106.9 76.636 105.129C76.636 103.347 77.747 102.137 79.353 102.137C80.552 102.137 81.366 102.83 81.641 103.787L80.783 104.216C80.618 103.512 80.145 102.995 79.353 102.995C78.33 102.995 77.626 103.809 77.626 105.129ZM84.2523 108.099C83.2073 108.099 82.3603 107.483 82.3603 106.449C82.3603 105.305 83.2513 104.832 84.5383 104.568L85.9353 104.282V104.04C85.9353 103.38 85.5723 103.006 84.8023 103.006C84.0763 103.006 83.6473 103.347 83.4713 103.985L82.5363 103.743C82.8113 102.808 83.6583 102.137 84.8353 102.137C86.1223 102.137 86.9143 102.764 86.9143 103.996V106.801C86.9143 107.175 87.1453 107.296 87.5303 107.208V108C86.6503 108.11 86.1443 107.901 86.0233 107.351C85.6713 107.802 85.0333 108.099 84.2523 108.099ZM85.9353 106.042V105.052L84.8133 105.294C83.9333 105.47 83.3393 105.712 83.3393 106.405C83.3393 106.966 83.7463 107.296 84.3733 107.296C85.2203 107.296 85.9353 106.779 85.9353 106.042Z" fill="white"/>
<rect x="12" y="55" width="4" height="4" fill="white"/>
<rect x="83.5" y="4.5" width="39" height="39" rx="19.5" fill="white"/>
<rect x="83.5" y="4.5" width="39" height="39" rx="19.5" stroke="#FF4C7B"/>
<mask id="path-6-inside-1_3183_29165" fill="white">
<path d="M115.975 24.2258L113.131 16.2625C113.096 16.1632 113.025 16.0826 112.935 16.038C112.845 15.9934 112.742 15.9882 112.649 16.0236L109.652 17.1692C109.604 17.1877 109.56 17.2164 109.523 17.2535C109.485 17.2906 109.455 17.3355 109.434 17.3854C109.413 17.4353 109.401 17.4892 109.4 17.544C109.398 17.5987 109.407 17.6532 109.426 17.7042L109.687 18.4117L107.642 19.4523L104.286 18.7769C103.96 18.7114 103.624 18.7189 103.3 18.7989C102.976 18.8789 102.671 19.0296 102.403 19.2417L101.804 19.7184L101.407 19.412C101.107 19.182 100.762 19.0282 100.399 18.9622C100.035 18.8961 99.6625 18.9197 99.3088 19.0311L98.021 19.442L96.334 18.3611L96.5762 17.7048C96.5949 17.6538 96.6039 17.5993 96.6026 17.5445C96.6013 17.4897 96.5897 17.4358 96.5686 17.3859C96.5475 17.336 96.5172 17.2912 96.4796 17.2541C96.442 17.2169 96.3979 17.1883 96.3498 17.1698L93.3516 16.0236C93.2579 15.9879 93.1548 15.9929 93.0645 16.0375C92.9741 16.0822 92.9037 16.1629 92.8682 16.2625L90.0254 24.2258C89.9902 24.3239 89.9916 24.4327 90.0295 24.5297C90.0673 24.6266 90.1386 24.7042 90.2285 24.7461L93.0723 26.0594C93.1192 26.081 93.1696 26.0924 93.2206 26.0928C93.2717 26.0932 93.3222 26.0826 93.3694 26.0616C93.4165 26.0407 93.4592 26.0098 93.495 25.9708C93.5308 25.9318 93.5588 25.8855 93.5776 25.8346L93.864 25.058L96.2213 26.4817C96.0624 26.7289 95.9893 27.0278 96.0145 27.3267C96.0397 27.6256 96.1617 27.9056 96.3594 28.1182C96.4706 28.2374 96.6027 28.3319 96.748 28.3963C96.8934 28.4606 97.0492 28.4936 97.2064 28.4932H97.2364C97.2631 28.8125 97.4004 29.1095 97.6213 29.3257C97.8422 29.5419 98.1306 29.6616 98.4298 29.6611H98.4607C98.4849 29.9612 98.6072 30.2424 98.8061 30.4552C98.9172 30.5744 99.0493 30.6689 99.1947 30.7332C99.34 30.7976 99.4958 30.8305 99.6531 30.8302H99.6831C99.7032 31.0734 99.7877 31.3054 99.9266 31.499C100.066 31.6926 100.253 31.8397 100.467 31.923C100.681 32.0063 100.913 32.0224 101.136 31.9694C101.358 31.9164 101.562 31.7964 101.723 31.6237L102.175 31.1393L102.788 31.6291C103.047 31.8363 103.368 31.9361 103.691 31.9101C104.013 31.8841 104.316 31.7341 104.544 31.4876L104.587 31.4408C104.779 31.2305 104.907 30.9621 104.953 30.6718C105.182 30.7411 105.424 30.7438 105.654 30.6797C105.885 30.6155 106.095 30.4867 106.264 30.3066L106.295 30.2729C106.509 30.0443 106.644 29.7448 106.678 29.4233C106.909 29.497 107.154 29.5023 107.388 29.4386C107.621 29.3748 107.834 29.2445 108.004 29.0614L108.025 29.0385C108.234 28.8172 108.367 28.5279 108.405 28.2162C108.611 28.2687 108.825 28.2684 109.031 28.2151C109.236 28.1619 109.427 28.0573 109.587 27.9098C109.748 27.7624 109.873 27.5764 109.954 27.3669C110.034 27.1575 110.067 26.9306 110.05 26.7048C110.043 26.6173 110.029 26.5306 110.008 26.4458L112.222 25.2844L112.425 25.833C112.443 25.8839 112.471 25.9303 112.507 25.9694C112.543 26.0085 112.586 26.0395 112.633 26.0605C112.68 26.0814 112.731 26.092 112.782 26.0915C112.833 26.0911 112.883 26.0796 112.93 26.0577L115.774 24.7445C115.863 24.7021 115.933 24.6247 115.971 24.5282C116.008 24.4317 116.01 24.3234 115.975 24.2258ZM93.0129 25.1434L90.8674 24.1518L93.4456 16.927L94.0778 17.1681L92.859 20.8809C92.8254 20.9831 92.831 21.0955 92.8746 21.1932C92.9182 21.291 92.9963 21.3662 93.0916 21.4023C93.187 21.4384 93.2918 21.4324 93.383 21.3857C93.4743 21.3389 93.5444 21.2552 93.5781 21.1531L94.7938 17.4441L95.7206 17.7984L93.0129 25.1434ZM97.5157 27.5408C97.4335 27.6254 97.3236 27.6721 97.2096 27.671C97.0956 27.6699 96.9866 27.621 96.9058 27.5348C96.825 27.4486 96.779 27.3319 96.7774 27.2097C96.7759 27.0876 96.8191 26.9696 96.8977 26.8812L97.7102 26.0104C97.7713 25.9451 97.8491 25.9007 97.9337 25.8828C98.0183 25.8649 98.106 25.8742 98.1856 25.9096C98.2653 25.945 98.3334 26.0048 98.3814 26.0817C98.4294 26.1585 98.455 26.2488 98.4552 26.3413C98.4554 26.4027 98.4441 26.4635 98.4222 26.5202C98.4002 26.577 98.3679 26.6284 98.3272 26.6716L97.5157 27.5408ZM98.8066 28.638C98.7837 28.6619 98.7634 28.6875 98.7431 28.7131L98.739 28.7082C98.6989 28.7532 98.6508 28.7892 98.5975 28.814C98.5442 28.8389 98.4868 28.852 98.4287 28.8527C98.3706 28.8535 98.3129 28.8418 98.2591 28.8183C98.2053 28.7948 98.1564 28.76 98.1152 28.716C98.0741 28.672 98.0417 28.6196 98.0197 28.5619C97.9977 28.5043 97.9868 28.4425 97.9874 28.3802C97.988 28.3179 98.0003 28.2564 98.0234 28.1993C98.0465 28.1421 98.08 28.0905 98.122 28.0475L98.8675 27.2491C98.8898 27.2251 98.9112 27.2001 98.9315 27.1745L98.935 27.1783C99.0174 27.0939 99.1273 27.0473 99.2413 27.0487C99.3553 27.05 99.4643 27.0991 99.5449 27.1854C99.6255 27.2718 99.6714 27.3885 99.6728 27.5107C99.6741 27.6328 99.6308 27.7507 99.552 27.839L98.8066 28.638ZM99.9603 29.8745C99.8773 29.9544 99.7689 29.9971 99.6573 29.9939C99.5458 29.9908 99.4397 29.9419 99.3607 29.8575C99.2817 29.773 99.236 29.6593 99.2329 29.5398C99.2297 29.4202 99.2694 29.304 99.3438 29.2149L100.156 28.3441C100.196 28.2962 100.244 28.2575 100.298 28.2304C100.352 28.2033 100.41 28.1882 100.47 28.1862C100.529 28.1842 100.588 28.1953 100.644 28.2188C100.699 28.2423 100.75 28.2777 100.792 28.3228C100.834 28.3679 100.867 28.4218 100.889 28.4811C100.911 28.5404 100.921 28.6039 100.919 28.6677C100.918 28.7315 100.904 28.7942 100.878 28.852C100.853 28.9098 100.817 28.9614 100.772 29.0037L99.9603 29.8745ZM101.996 30.1716L101.183 31.0424C101.101 31.1269 100.991 31.1734 100.877 31.1721C100.763 31.1707 100.654 31.1216 100.573 31.0353C100.493 30.949 100.447 30.8322 100.445 30.7101C100.444 30.5879 100.487 30.47 100.566 30.3817L101.312 29.5833C101.334 29.5594 101.355 29.5343 101.376 29.5087L101.379 29.5126C101.462 29.4281 101.571 29.3816 101.685 29.3829C101.799 29.3842 101.908 29.4333 101.989 29.5197C102.07 29.606 102.116 29.7227 102.117 29.8449C102.118 29.9671 102.075 30.0849 101.996 30.1733L101.996 30.1716ZM109.123 27.2545C109.022 27.3642 108.886 27.429 108.742 27.436C108.598 27.4429 108.457 27.3915 108.347 27.2921L108.05 27.027C108.03 26.9947 108.005 26.9657 107.976 26.941L107.291 26.3511C107.212 26.2875 107.113 26.2593 107.015 26.2723C106.917 26.2854 106.828 26.3388 106.766 26.4212C106.704 26.5036 106.674 26.6085 106.683 26.714C106.692 26.8194 106.739 26.917 106.813 26.9862L107.404 27.4972C107.421 27.5216 107.44 27.544 107.46 27.5642C107.519 27.6199 107.566 27.6879 107.6 27.764C107.633 27.8401 107.651 27.9227 107.654 28.0068C107.656 28.0908 107.642 28.1744 107.614 28.2525C107.585 28.3307 107.541 28.4016 107.486 28.4611L107.464 28.4839C107.368 28.5876 107.24 28.6511 107.104 28.6631C106.968 28.6751 106.833 28.6347 106.722 28.5492L106.133 28.0975L106.127 28.0926L105.905 27.9223C105.823 27.8593 105.721 27.8338 105.621 27.8515C105.521 27.8693 105.432 27.9287 105.373 28.0167C105.315 28.1048 105.291 28.2142 105.307 28.321C105.324 28.4278 105.379 28.5233 105.461 28.5863L105.688 28.7599C105.755 28.8124 105.811 28.8798 105.852 28.9577C105.892 29.0355 105.916 29.1218 105.923 29.2107C105.929 29.2996 105.918 29.3889 105.889 29.4725C105.86 29.556 105.814 29.6319 105.756 29.6949L105.724 29.7286C105.62 29.8395 105.481 29.904 105.335 29.909C105.188 29.9139 105.046 29.859 104.936 29.7553L104.301 29.1566C104.265 29.1161 104.221 29.0841 104.172 29.0626C104.124 29.0411 104.071 29.0307 104.019 29.0318C103.966 29.033 103.915 29.0458 103.867 29.0695C103.819 29.0931 103.777 29.127 103.742 29.1692C103.707 29.2113 103.681 29.2607 103.665 29.3142C103.648 29.3678 103.643 29.4244 103.648 29.4804C103.653 29.5364 103.669 29.5907 103.695 29.6397C103.721 29.6888 103.755 29.7317 103.797 29.7656L104.013 29.9703C104.072 30.0257 104.12 30.0934 104.153 30.1692C104.187 30.245 104.205 30.3274 104.208 30.4112C104.211 30.4951 104.198 30.5787 104.169 30.6569C104.141 30.7351 104.098 30.8063 104.043 30.8661L104 30.9129C103.902 31.019 103.771 31.0836 103.633 31.0948C103.494 31.106 103.356 31.0631 103.244 30.9738L102.695 30.5352C102.811 30.3412 102.876 30.1173 102.884 29.887C102.891 29.6568 102.841 29.4287 102.737 29.2266C102.634 29.0245 102.482 28.8559 102.297 28.7384C102.112 28.621 101.901 28.559 101.686 28.559H101.656C101.63 28.2398 101.492 27.9429 101.272 27.7266C101.051 27.5104 100.763 27.3905 100.464 27.3906H100.433C100.405 27.0667 100.263 26.7662 100.036 26.5503C99.8093 26.3343 99.5142 26.2191 99.2108 26.2281C99.1869 25.928 99.0643 25.6468 98.865 25.4346C98.6402 25.1941 98.3355 25.059 98.0179 25.059C97.7003 25.059 97.3957 25.1941 97.1709 25.4346L96.7611 25.8732L94.1458 24.2949L96.0491 19.1334L97.7727 20.2376C97.818 20.2667 97.8685 20.2854 97.921 20.2924C97.9734 20.2994 98.0267 20.2947 98.0773 20.2785L99.5256 19.8164C99.7676 19.74 100.023 19.7237 100.271 19.7687C100.52 19.8136 100.756 19.9187 100.961 20.076L101.161 20.2306L99.1255 21.8497C98.9744 21.9699 98.8516 22.1261 98.7666 22.306C98.6817 22.4859 98.637 22.6846 98.6361 22.8862C98.6352 23.0878 98.6781 23.2869 98.7615 23.4676C98.8449 23.6484 98.9663 23.8059 99.1163 23.9276C99.3992 24.1552 99.7397 24.2859 100.093 24.3025C100.447 24.3191 100.796 24.2209 101.097 24.0206L102.695 22.9425C102.881 23.3398 103.229 23.8797 103.832 24.2122C104.531 24.5975 105.381 24.6073 106.361 24.2416L109.053 26.319C109.12 26.3713 109.177 26.4387 109.218 26.5166C109.258 26.5945 109.283 26.681 109.29 26.7701C109.297 26.8592 109.285 26.9488 109.256 27.0327C109.228 27.1166 109.182 27.1929 109.123 27.2561V27.2545ZM109.613 25.7437L106.643 23.4525C106.591 23.4128 106.531 23.3875 106.468 23.379C106.405 23.3704 106.341 23.3788 106.282 23.4035C105.434 23.7561 104.73 23.7844 104.187 23.49C103.469 23.0987 103.249 22.2432 103.247 22.2383C103.233 22.176 103.204 22.1184 103.165 22.07C103.125 22.0217 103.076 21.9841 103.02 21.9602C102.964 21.9364 102.904 21.9269 102.844 21.9327C102.785 21.9384 102.727 21.9592 102.676 21.9934L100.692 23.3273C100.522 23.4402 100.325 23.4955 100.125 23.4857C99.9257 23.476 99.7337 23.4018 99.5744 23.2729C99.5187 23.2278 99.4736 23.1694 99.4426 23.1023C99.4116 23.0353 99.3957 22.9614 99.396 22.8866C99.3964 22.8118 99.413 22.7381 99.4446 22.6714C99.4762 22.6046 99.5218 22.5467 99.5779 22.5022L102.855 19.8953C103.038 19.7503 103.247 19.6472 103.469 19.5925C103.69 19.5378 103.92 19.5327 104.144 19.5775L107.621 20.2774C107.7 20.2936 107.782 20.2824 107.855 20.2453L109.965 19.1709L111.939 24.5241L109.613 25.7437ZM112.987 25.1418L110.278 17.7946L111.205 17.4403L112.421 21.1492C112.454 21.2514 112.524 21.3351 112.616 21.3819C112.707 21.4286 112.812 21.4346 112.907 21.3985C113.002 21.3624 113.08 21.2872 113.124 21.1894C113.168 21.0917 113.173 20.9793 113.14 20.8771L111.921 17.1643L112.553 16.9232L115.131 24.148L112.987 25.1418Z"/>
</mask>
<path d="M115.975 24.2258L113.131 16.2625C113.096 16.1632 113.025 16.0826 112.935 16.038C112.845 15.9934 112.742 15.9882 112.649 16.0236L109.652 17.1692C109.604 17.1877 109.56 17.2164 109.523 17.2535C109.485 17.2906 109.455 17.3355 109.434 17.3854C109.413 17.4353 109.401 17.4892 109.4 17.544C109.398 17.5987 109.407 17.6532 109.426 17.7042L109.687 18.4117L107.642 19.4523L104.286 18.7769C103.96 18.7114 103.624 18.7189 103.3 18.7989C102.976 18.8789 102.671 19.0296 102.403 19.2417L101.804 19.7184L101.407 19.412C101.107 19.182 100.762 19.0282 100.399 18.9622C100.035 18.8961 99.6625 18.9197 99.3088 19.0311L98.021 19.442L96.334 18.3611L96.5762 17.7048C96.5949 17.6538 96.6039 17.5993 96.6026 17.5445C96.6013 17.4897 96.5897 17.4358 96.5686 17.3859C96.5475 17.336 96.5172 17.2912 96.4796 17.2541C96.442 17.2169 96.3979 17.1883 96.3498 17.1698L93.3516 16.0236C93.2579 15.9879 93.1548 15.9929 93.0645 16.0375C92.9741 16.0822 92.9037 16.1629 92.8682 16.2625L90.0254 24.2258C89.9902 24.3239 89.9916 24.4327 90.0295 24.5297C90.0673 24.6266 90.1386 24.7042 90.2285 24.7461L93.0723 26.0594C93.1192 26.081 93.1696 26.0924 93.2206 26.0928C93.2717 26.0932 93.3222 26.0826 93.3694 26.0616C93.4165 26.0407 93.4592 26.0098 93.495 25.9708C93.5308 25.9318 93.5588 25.8855 93.5776 25.8346L93.864 25.058L96.2213 26.4817C96.0624 26.7289 95.9893 27.0278 96.0145 27.3267C96.0397 27.6256 96.1617 27.9056 96.3594 28.1182C96.4706 28.2374 96.6027 28.3319 96.748 28.3963C96.8934 28.4606 97.0492 28.4936 97.2064 28.4932H97.2364C97.2631 28.8125 97.4004 29.1095 97.6213 29.3257C97.8422 29.5419 98.1306 29.6616 98.4298 29.6611H98.4607C98.4849 29.9612 98.6072 30.2424 98.8061 30.4552C98.9172 30.5744 99.0493 30.6689 99.1947 30.7332C99.34 30.7976 99.4958 30.8305 99.6531 30.8302H99.6831C99.7032 31.0734 99.7877 31.3054 99.9266 31.499C100.066 31.6926 100.253 31.8397 100.467 31.923C100.681 32.0063 100.913 32.0224 101.136 31.9694C101.358 31.9164 101.562 31.7964 101.723 31.6237L102.175 31.1393L102.788 31.6291C103.047 31.8363 103.368 31.9361 103.691 31.9101C104.013 31.8841 104.316 31.7341 104.544 31.4876L104.587 31.4408C104.779 31.2305 104.907 30.9621 104.953 30.6718C105.182 30.7411 105.424 30.7438 105.654 30.6797C105.885 30.6155 106.095 30.4867 106.264 30.3066L106.295 30.2729C106.509 30.0443 106.644 29.7448 106.678 29.4233C106.909 29.497 107.154 29.5023 107.388 29.4386C107.621 29.3748 107.834 29.2445 108.004 29.0614L108.025 29.0385C108.234 28.8172 108.367 28.5279 108.405 28.2162C108.611 28.2687 108.825 28.2684 109.031 28.2151C109.236 28.1619 109.427 28.0573 109.587 27.9098C109.748 27.7624 109.873 27.5764 109.954 27.3669C110.034 27.1575 110.067 26.9306 110.05 26.7048C110.043 26.6173 110.029 26.5306 110.008 26.4458L112.222 25.2844L112.425 25.833C112.443 25.8839 112.471 25.9303 112.507 25.9694C112.543 26.0085 112.586 26.0395 112.633 26.0605C112.68 26.0814 112.731 26.092 112.782 26.0915C112.833 26.0911 112.883 26.0796 112.93 26.0577L115.774 24.7445C115.863 24.7021 115.933 24.6247 115.971 24.5282C116.008 24.4317 116.01 24.3234 115.975 24.2258ZM93.0129 25.1434L90.8674 24.1518L93.4456 16.927L94.0778 17.1681L92.859 20.8809C92.8254 20.9831 92.831 21.0955 92.8746 21.1932C92.9182 21.291 92.9963 21.3662 93.0916 21.4023C93.187 21.4384 93.2918 21.4324 93.383 21.3857C93.4743 21.3389 93.5444 21.2552 93.5781 21.1531L94.7938 17.4441L95.7206 17.7984L93.0129 25.1434ZM97.5157 27.5408C97.4335 27.6254 97.3236 27.6721 97.2096 27.671C97.0956 27.6699 96.9866 27.621 96.9058 27.5348C96.825 27.4486 96.779 27.3319 96.7774 27.2097C96.7759 27.0876 96.8191 26.9696 96.8977 26.8812L97.7102 26.0104C97.7713 25.9451 97.8491 25.9007 97.9337 25.8828C98.0183 25.8649 98.106 25.8742 98.1856 25.9096C98.2653 25.945 98.3334 26.0048 98.3814 26.0817C98.4294 26.1585 98.455 26.2488 98.4552 26.3413C98.4554 26.4027 98.4441 26.4635 98.4222 26.5202C98.4002 26.577 98.3679 26.6284 98.3272 26.6716L97.5157 27.5408ZM98.8066 28.638C98.7837 28.6619 98.7634 28.6875 98.7431 28.7131L98.739 28.7082C98.6989 28.7532 98.6508 28.7892 98.5975 28.814C98.5442 28.8389 98.4868 28.852 98.4287 28.8527C98.3706 28.8535 98.3129 28.8418 98.2591 28.8183C98.2053 28.7948 98.1564 28.76 98.1152 28.716C98.0741 28.672 98.0417 28.6196 98.0197 28.5619C97.9977 28.5043 97.9868 28.4425 97.9874 28.3802C97.988 28.3179 98.0003 28.2564 98.0234 28.1993C98.0465 28.1421 98.08 28.0905 98.122 28.0475L98.8675 27.2491C98.8898 27.2251 98.9112 27.2001 98.9315 27.1745L98.935 27.1783C99.0174 27.0939 99.1273 27.0473 99.2413 27.0487C99.3553 27.05 99.4643 27.0991 99.5449 27.1854C99.6255 27.2718 99.6714 27.3885 99.6728 27.5107C99.6741 27.6328 99.6308 27.7507 99.552 27.839L98.8066 28.638ZM99.9603 29.8745C99.8773 29.9544 99.7689 29.9971 99.6573 29.9939C99.5458 29.9908 99.4397 29.9419 99.3607 29.8575C99.2817 29.773 99.236 29.6593 99.2329 29.5398C99.2297 29.4202 99.2694 29.304 99.3438 29.2149L100.156 28.3441C100.196 28.2962 100.244 28.2575 100.298 28.2304C100.352 28.2033 100.41 28.1882 100.47 28.1862C100.529 28.1842 100.588 28.1953 100.644 28.2188C100.699 28.2423 100.75 28.2777 100.792 28.3228C100.834 28.3679 100.867 28.4218 100.889 28.4811C100.911 28.5404 100.921 28.6039 100.919 28.6677C100.918 28.7315 100.904 28.7942 100.878 28.852C100.853 28.9098 100.817 28.9614 100.772 29.0037L99.9603 29.8745ZM101.996 30.1716L101.183 31.0424C101.101 31.1269 100.991 31.1734 100.877 31.1721C100.763 31.1707 100.654 31.1216 100.573 31.0353C100.493 30.949 100.447 30.8322 100.445 30.7101C100.444 30.5879 100.487 30.47 100.566 30.3817L101.312 29.5833C101.334 29.5594 101.355 29.5343 101.376 29.5087L101.379 29.5126C101.462 29.4281 101.571 29.3816 101.685 29.3829C101.799 29.3842 101.908 29.4333 101.989 29.5197C102.07 29.606 102.116 29.7227 102.117 29.8449C102.118 29.9671 102.075 30.0849 101.996 30.1733L101.996 30.1716ZM109.123 27.2545C109.022 27.3642 108.886 27.429 108.742 27.436C108.598 27.4429 108.457 27.3915 108.347 27.2921L108.05 27.027C108.03 26.9947 108.005 26.9657 107.976 26.941L107.291 26.3511C107.212 26.2875 107.113 26.2593 107.015 26.2723C106.917 26.2854 106.828 26.3388 106.766 26.4212C106.704 26.5036 106.674 26.6085 106.683 26.714C106.692 26.8194 106.739 26.917 106.813 26.9862L107.404 27.4972C107.421 27.5216 107.44 27.544 107.46 27.5642C107.519 27.6199 107.566 27.6879 107.6 27.764C107.633 27.8401 107.651 27.9227 107.654 28.0068C107.656 28.0908 107.642 28.1744 107.614 28.2525C107.585 28.3307 107.541 28.4016 107.486 28.4611L107.464 28.4839C107.368 28.5876 107.24 28.6511 107.104 28.6631C106.968 28.6751 106.833 28.6347 106.722 28.5492L106.133 28.0975L106.127 28.0926L105.905 27.9223C105.823 27.8593 105.721 27.8338 105.621 27.8515C105.521 27.8693 105.432 27.9287 105.373 28.0167C105.315 28.1048 105.291 28.2142 105.307 28.321C105.324 28.4278 105.379 28.5233 105.461 28.5863L105.688 28.7599C105.755 28.8124 105.811 28.8798 105.852 28.9577C105.892 29.0355 105.916 29.1218 105.923 29.2107C105.929 29.2996 105.918 29.3889 105.889 29.4725C105.86 29.556 105.814 29.6319 105.756 29.6949L105.724 29.7286C105.62 29.8395 105.481 29.904 105.335 29.909C105.188 29.9139 105.046 29.859 104.936 29.7553L104.301 29.1566C104.265 29.1161 104.221 29.0841 104.172 29.0626C104.124 29.0411 104.071 29.0307 104.019 29.0318C103.966 29.033 103.915 29.0458 103.867 29.0695C103.819 29.0931 103.777 29.127 103.742 29.1692C103.707 29.2113 103.681 29.2607 103.665 29.3142C103.648 29.3678 103.643 29.4244 103.648 29.4804C103.653 29.5364 103.669 29.5907 103.695 29.6397C103.721 29.6888 103.755 29.7317 103.797 29.7656L104.013 29.9703C104.072 30.0257 104.12 30.0934 104.153 30.1692C104.187 30.245 104.205 30.3274 104.208 30.4112C104.211 30.4951 104.198 30.5787 104.169 30.6569C104.141 30.7351 104.098 30.8063 104.043 30.8661L104 30.9129C103.902 31.019 103.771 31.0836 103.633 31.0948C103.494 31.106 103.356 31.0631 103.244 30.9738L102.695 30.5352C102.811 30.3412 102.876 30.1173 102.884 29.887C102.891 29.6568 102.841 29.4287 102.737 29.2266C102.634 29.0245 102.482 28.8559 102.297 28.7384C102.112 28.621 101.901 28.559 101.686 28.559H101.656C101.63 28.2398 101.492 27.9429 101.272 27.7266C101.051 27.5104 100.763 27.3905 100.464 27.3906H100.433C100.405 27.0667 100.263 26.7662 100.036 26.5503C99.8093 26.3343 99.5142 26.2191 99.2108 26.2281C99.1869 25.928 99.0643 25.6468 98.865 25.4346C98.6402 25.1941 98.3355 25.059 98.0179 25.059C97.7003 25.059 97.3957 25.1941 97.1709 25.4346L96.7611 25.8732L94.1458 24.2949L96.0491 19.1334L97.7727 20.2376C97.818 20.2667 97.8685 20.2854 97.921 20.2924C97.9734 20.2994 98.0267 20.2947 98.0773 20.2785L99.5256 19.8164C99.7676 19.74 100.023 19.7237 100.271 19.7687C100.52 19.8136 100.756 19.9187 100.961 20.076L101.161 20.2306L99.1255 21.8497C98.9744 21.9699 98.8516 22.1261 98.7666 22.306C98.6817 22.4859 98.637 22.6846 98.6361 22.8862C98.6352 23.0878 98.6781 23.2869 98.7615 23.4676C98.8449 23.6484 98.9663 23.8059 99.1163 23.9276C99.3992 24.1552 99.7397 24.2859 100.093 24.3025C100.447 24.3191 100.796 24.2209 101.097 24.0206L102.695 22.9425C102.881 23.3398 103.229 23.8797 103.832 24.2122C104.531 24.5975 105.381 24.6073 106.361 24.2416L109.053 26.319C109.12 26.3713 109.177 26.4387 109.218 26.5166C109.258 26.5945 109.283 26.681 109.29 26.7701C109.297 26.8592 109.285 26.9488 109.256 27.0327C109.228 27.1166 109.182 27.1929 109.123 27.2561V27.2545ZM109.613 25.7437L106.643 23.4525C106.591 23.4128 106.531 23.3875 106.468 23.379C106.405 23.3704 106.341 23.3788 106.282 23.4035C105.434 23.7561 104.73 23.7844 104.187 23.49C103.469 23.0987 103.249 22.2432 103.247 22.2383C103.233 22.176 103.204 22.1184 103.165 22.07C103.125 22.0217 103.076 21.9841 103.02 21.9602C102.964 21.9364 102.904 21.9269 102.844 21.9327C102.785 21.9384 102.727 21.9592 102.676 21.9934L100.692 23.3273C100.522 23.4402 100.325 23.4955 100.125 23.4857C99.9257 23.476 99.7337 23.4018 99.5744 23.2729C99.5187 23.2278 99.4736 23.1694 99.4426 23.1023C99.4116 23.0353 99.3957 22.9614 99.396 22.8866C99.3964 22.8118 99.413 22.7381 99.4446 22.6714C99.4762 22.6046 99.5218 22.5467 99.5779 22.5022L102.855 19.8953C103.038 19.7503 103.247 19.6472 103.469 19.5925C103.69 19.5378 103.92 19.5327 104.144 19.5775L107.621 20.2774C107.7 20.2936 107.782 20.2824 107.855 20.2453L109.965 19.1709L111.939 24.5241L109.613 25.7437ZM112.987 25.1418L110.278 17.7946L111.205 17.4403L112.421 21.1492C112.454 21.2514 112.524 21.3351 112.616 21.3819C112.707 21.4286 112.812 21.4346 112.907 21.3985C113.002 21.3624 113.08 21.2872 113.124 21.1894C113.168 21.0917 113.173 20.9793 113.14 20.8771L111.921 17.1643L112.553 16.9232L115.131 24.148L112.987 25.1418Z" fill="#FF4C7B" stroke="#FF4C7B" stroke-width="3" mask="url(#path-6-inside-1_3183_29165)"/>
</svg>
