<svg width="214" height="194" viewBox="0 0 214 194" fill="none" xmlns="http://www.w3.org/2000/svg">
<g filter="url(#filter0_d_3183_29151)">
<line x1="106.5" y1="182" x2="106.5" y2="128" stroke="#E7E7E7" stroke-dasharray="4 4"/>
<rect x="4" y="24" width="206" height="104" rx="12" fill="#49D7C6"/>
<path d="M33.346 60H32.114L30.211 54.214V60H28.693V52.102H30.937L32.763 57.723L34.578 52.102H36.789V60H35.249V54.214L33.346 60ZM43.4476 57.107C43.4476 58.911 42.2816 60.121 40.6096 60.121C38.9376 60.121 37.7716 58.911 37.7716 57.107C37.7716 55.314 38.9376 54.104 40.6096 54.104C42.2816 54.104 43.4476 55.314 43.4476 57.107ZM39.3006 57.107C39.3006 58.207 39.8066 58.845 40.6096 58.845C41.4126 58.845 41.9076 58.207 41.9076 57.107C41.9076 56.018 41.4126 55.38 40.6096 55.38C39.8066 55.38 39.3006 56.018 39.3006 57.107ZM44.386 60V54.214H45.926V54.808C46.245 54.434 46.773 54.104 47.51 54.104C48.72 54.104 49.457 54.929 49.457 56.183V60H47.917V56.623C47.917 55.974 47.653 55.512 46.993 55.512C46.454 55.512 45.926 55.897 45.926 56.656V60H44.386ZM50.8457 58.493V55.501H50.0757V54.214H50.8457V52.564H52.3637V54.214H53.5407V55.501H52.3637V58.174C52.3637 58.669 52.6387 58.735 53.0897 58.735C53.3097 58.735 53.4197 58.724 53.6177 58.702V59.978C53.3427 60.033 53.0127 60.066 52.6277 60.066C51.4617 60.066 50.8457 59.681 50.8457 58.493ZM57.9914 54.203V55.71C57.8154 55.688 57.6834 55.677 57.4964 55.677C56.6934 55.677 56.0774 56.172 56.0774 57.063V60H54.5374V54.214H56.0774V55.028C56.3304 54.522 56.9024 54.181 57.6174 54.181C57.7714 54.181 57.8814 54.192 57.9914 54.203ZM60.2569 60.099C59.1239 60.099 58.2879 59.417 58.2879 58.394C58.2879 57.239 59.2119 56.755 60.3779 56.546L61.8189 56.271V56.183C61.8189 55.688 61.5659 55.38 60.9279 55.38C60.3559 55.38 60.0589 55.633 59.9269 56.15L58.4639 55.875C58.7279 54.896 59.6079 54.104 60.9829 54.104C62.4459 54.104 63.3259 54.775 63.3259 56.117V58.482C63.3259 58.79 63.4579 58.889 63.7989 58.845V60C62.8199 60.143 62.2259 59.945 61.9729 59.461C61.5989 59.868 61.0159 60.099 60.2569 60.099ZM61.8189 57.943V57.349L60.6859 57.58C60.1799 57.679 59.8059 57.844 59.8059 58.306C59.8059 58.702 60.1029 58.933 60.5649 58.933C61.2139 58.933 61.8189 58.592 61.8189 57.943ZM72.9959 53.499H70.5209V60H68.9039V53.499H66.4179V52.102H72.9959V53.499ZM75.0284 60.121C73.3234 60.121 72.1574 58.9 72.1574 57.107C72.1574 55.402 73.3344 54.104 74.9734 54.104C76.6894 54.104 77.6134 55.38 77.6134 56.997V57.448H73.6314C73.7414 58.328 74.2804 58.856 75.0394 58.856C75.6334 58.856 76.1064 58.57 76.2824 58.009L77.5804 58.471C77.1624 59.527 76.1834 60.121 75.0284 60.121ZM74.9624 55.336C74.3464 55.336 73.8734 55.699 73.6864 56.403H76.0844C76.0734 55.831 75.7104 55.336 74.9624 55.336ZM79.7235 57.107C79.7235 58.196 80.2625 58.823 81.0765 58.823C81.7145 58.823 82.0995 58.383 82.2425 57.789L83.5735 58.383C83.3095 59.329 82.4075 60.121 81.0655 60.121C79.3825 60.121 78.1945 58.9 78.1945 57.107C78.1945 55.325 79.3825 54.104 81.0655 54.104C82.3965 54.104 83.2765 54.874 83.5515 55.809L82.2425 56.425C82.0995 55.831 81.7145 55.391 81.0765 55.391C80.2625 55.391 79.7235 56.029 79.7235 57.107ZM84.3148 60V52.102H85.8548V54.808C86.1738 54.434 86.7018 54.104 87.4388 54.104C88.6488 54.104 89.3858 54.929 89.3858 56.183V60H87.8458V56.623C87.8458 55.974 87.5818 55.512 86.9218 55.512C86.3828 55.512 85.8548 55.897 85.8548 56.656V60H84.3148ZM90.6204 60V54.214H92.1604V54.808C92.4794 54.434 93.0074 54.104 93.7444 54.104C94.9544 54.104 95.6914 54.929 95.6914 56.183V60H94.1514V56.623C94.1514 55.974 93.8874 55.512 93.2274 55.512C92.6884 55.512 92.1604 55.897 92.1604 56.656V60H90.6204ZM102.261 57.107C102.261 58.911 101.095 60.121 99.4231 60.121C97.7511 60.121 96.5851 58.911 96.5851 57.107C96.5851 55.314 97.7511 54.104 99.4231 54.104C101.095 54.104 102.261 55.314 102.261 57.107ZM98.1141 57.107C98.1141 58.207 98.6201 58.845 99.4231 58.845C100.226 58.845 100.721 58.207 100.721 57.107C100.721 56.018 100.226 55.38 99.4231 55.38C98.6201 55.38 98.1141 56.018 98.1141 57.107ZM104.74 52.102V60H103.2V52.102H104.74ZM111.338 57.107C111.338 58.911 110.172 60.121 108.5 60.121C106.828 60.121 105.662 58.911 105.662 57.107C105.662 55.314 106.828 54.104 108.5 54.104C110.172 54.104 111.338 55.314 111.338 57.107ZM107.191 57.107C107.191 58.207 107.697 58.845 108.5 58.845C109.303 58.845 109.798 58.207 109.798 57.107C109.798 56.018 109.303 55.38 108.5 55.38C107.697 55.38 107.191 56.018 107.191 57.107ZM117.622 59.362C117.622 61.111 116.412 62.079 114.696 62.079C113.299 62.079 112.331 61.507 112.001 60.374L113.442 59.956C113.607 60.528 114.058 60.88 114.718 60.88C115.521 60.88 116.082 60.484 116.082 59.527V59.131C115.785 59.527 115.202 59.835 114.476 59.835C112.892 59.835 111.968 58.548 111.968 56.964C111.968 55.391 112.892 54.104 114.476 54.104C115.191 54.104 115.785 54.412 116.082 54.808V54.214H117.622V59.362ZM116.093 56.898C116.093 55.941 115.576 55.402 114.839 55.402C114.003 55.402 113.53 55.996 113.53 56.964C113.53 57.932 114.003 58.537 114.839 58.537C115.576 58.537 116.093 57.998 116.093 57.052V56.898ZM121.667 60.33C121.293 61.353 120.765 62.013 119.489 62.013C119.192 62.013 119.082 62.002 118.884 61.98V60.737C119.049 60.748 119.148 60.759 119.324 60.759C119.731 60.759 119.951 60.649 120.116 60.231L120.303 59.769L118.224 54.214H119.819L121.128 58.02L122.404 54.214H123.955L121.667 60.33ZM126.095 58.559L127.206 57.481C127.789 58.306 128.636 58.768 129.505 58.768C130.33 58.768 130.935 58.405 130.935 57.734C130.935 57.008 130.187 56.909 128.999 56.645C127.822 56.37 126.546 55.996 126.546 54.434C126.546 52.927 127.844 51.981 129.483 51.981C130.847 51.981 131.914 52.586 132.464 53.378L131.397 54.423C130.935 53.774 130.319 53.334 129.439 53.334C128.669 53.334 128.141 53.708 128.141 54.28C128.141 54.896 128.713 55.017 129.747 55.248C131.001 55.523 132.541 55.842 132.541 57.569C132.541 59.164 131.133 60.121 129.45 60.121C128.119 60.121 126.733 59.516 126.095 58.559ZM138.827 57.107C138.827 58.911 137.661 60.121 135.989 60.121C134.317 60.121 133.151 58.911 133.151 57.107C133.151 55.314 134.317 54.104 135.989 54.104C137.661 54.104 138.827 55.314 138.827 57.107ZM134.68 57.107C134.68 58.207 135.186 58.845 135.989 58.845C136.792 58.845 137.287 58.207 137.287 57.107C137.287 56.018 136.792 55.38 135.989 55.38C135.186 55.38 134.68 56.018 134.68 57.107ZM141.306 52.102V60H139.766V52.102H141.306ZM147.597 54.214V60H146.057V59.406C145.738 59.78 145.232 60.121 144.495 60.121C143.296 60.121 142.526 59.296 142.526 58.042V54.214H144.066V57.701C144.066 58.339 144.352 58.757 144.99 58.757C145.529 58.757 146.057 58.361 146.057 57.613V54.214H147.597ZM149.029 58.493V55.501H148.259V54.214H149.029V52.564H150.547V54.214H151.724V55.501H150.547V58.174C150.547 58.669 150.822 58.735 151.273 58.735C151.493 58.735 151.603 58.724 151.801 58.702V59.978C151.526 60.033 151.196 60.066 150.811 60.066C149.645 60.066 149.029 59.681 149.029 58.493ZM152.699 53.532V52.102H154.272V53.532H152.699ZM154.261 54.214V60H152.721V54.214H154.261ZM160.86 57.107C160.86 58.911 159.694 60.121 158.022 60.121C156.35 60.121 155.184 58.911 155.184 57.107C155.184 55.314 156.35 54.104 158.022 54.104C159.694 54.104 160.86 55.314 160.86 57.107ZM156.713 57.107C156.713 58.207 157.219 58.845 158.022 58.845C158.825 58.845 159.32 58.207 159.32 57.107C159.32 56.018 158.825 55.38 158.022 55.38C157.219 55.38 156.713 56.018 156.713 57.107ZM161.798 60V54.214H163.338V54.808C163.657 54.434 164.185 54.104 164.922 54.104C166.132 54.104 166.869 54.929 166.869 56.183V60H165.329V56.623C165.329 55.974 165.065 55.512 164.405 55.512C163.866 55.512 163.338 55.897 163.338 56.656V60H161.798ZM167.532 59.021L168.489 58.042C168.885 58.581 169.589 58.922 170.238 58.922C170.755 58.922 171.206 58.746 171.206 58.328C171.206 57.888 170.777 57.833 169.853 57.657C168.918 57.47 167.884 57.228 167.884 55.985C167.884 54.874 168.863 54.104 170.249 54.104C171.272 54.104 172.185 54.522 172.636 55.105L171.756 56.073C171.371 55.578 170.81 55.303 170.205 55.303C169.721 55.303 169.402 55.512 169.402 55.831C169.402 56.205 169.787 56.271 170.502 56.414C171.514 56.623 172.713 56.854 172.713 58.163C172.713 59.373 171.591 60.121 170.205 60.121C169.16 60.121 168.06 59.736 167.532 59.021ZM28.693 76V68.102H30.31V74.603H33.94V76H28.693ZM34.7176 69.532V68.102H36.2906V69.532H34.7176ZM36.2796 70.214V76H34.7396V70.214H36.2796ZM39.0833 72.656V76H37.5433V70.214H39.0833V70.808C39.3913 70.434 39.9083 70.104 40.6563 70.104C41.3603 70.104 41.8993 70.401 42.2183 70.896C42.5703 70.533 43.1203 70.104 44.0113 70.104C45.1993 70.104 45.9693 70.929 45.9693 72.183V76H44.4293V72.623C44.4293 71.974 44.1873 71.512 43.5493 71.512C43.0433 71.512 42.5263 71.897 42.5263 72.656V76H40.9863V72.623C40.9863 71.974 40.7443 71.512 40.1063 71.512C39.6003 71.512 39.0833 71.897 39.0833 72.656ZM47.1892 69.532V68.102H48.7622V69.532H47.1892ZM48.7512 70.214V76H47.2112V70.214H48.7512ZM50.169 74.493V71.501H49.399V70.214H50.169V68.564H51.687V70.214H52.864V71.501H51.687V74.174C51.687 74.669 51.962 74.735 52.413 74.735C52.633 74.735 52.743 74.724 52.941 74.702V75.978C52.666 76.033 52.336 76.066 51.951 76.066C50.785 76.066 50.169 75.681 50.169 74.493ZM56.3477 76.121C54.6427 76.121 53.4767 74.9 53.4767 73.107C53.4767 71.402 54.6537 70.104 56.2927 70.104C58.0087 70.104 58.9327 71.38 58.9327 72.997V73.448H54.9507C55.0607 74.328 55.5997 74.856 56.3587 74.856C56.9527 74.856 57.4257 74.57 57.6017 74.009L58.8997 74.471C58.4817 75.527 57.5027 76.121 56.3477 76.121ZM56.2817 71.336C55.6657 71.336 55.1927 71.699 55.0057 72.403H57.4037C57.3927 71.831 57.0297 71.336 56.2817 71.336ZM62.0218 76.121C60.4268 76.121 59.5028 74.757 59.5028 73.107C59.5028 71.468 60.4268 70.104 62.0218 70.104C62.7478 70.104 63.2978 70.39 63.6388 70.808V68.102H65.1788V76H63.6388V75.406C63.2978 75.835 62.7478 76.121 62.0218 76.121ZM63.6718 72.953C63.6718 71.963 63.1218 71.424 62.3848 71.424C61.5158 71.424 61.0538 72.117 61.0538 73.107C61.0538 74.108 61.5158 74.801 62.3848 74.801C63.1218 74.801 63.6718 74.251 63.6718 73.272V72.953ZM71.6968 70.247H72.5328L73.7208 74.537L74.9198 70.247H75.9098L74.1608 76H73.2918L72.0928 71.732L70.8938 76H70.0248L68.2758 70.247H69.2988L70.5088 74.526L71.6968 70.247ZM78.1976 76.099C77.1526 76.099 76.3056 75.483 76.3056 74.449C76.3056 73.305 77.1966 72.832 78.4836 72.568L79.8806 72.282V72.04C79.8806 71.38 79.5176 71.006 78.7476 71.006C78.0216 71.006 77.5926 71.347 77.4166 71.985L76.4816 71.743C76.7566 70.808 77.6036 70.137 78.7806 70.137C80.0676 70.137 80.8596 70.764 80.8596 71.996V74.801C80.8596 75.175 81.0906 75.296 81.4756 75.208V76C80.5956 76.11 80.0896 75.901 79.9686 75.351C79.6166 75.802 78.9786 76.099 78.1976 76.099ZM79.8806 74.042V73.052L78.7586 73.294C77.8786 73.47 77.2846 73.712 77.2846 74.405C77.2846 74.966 77.6916 75.296 78.3186 75.296C79.1656 75.296 79.8806 74.779 79.8806 74.042ZM81.9087 74.779L82.6787 74.218C82.9867 74.889 83.6907 75.296 84.4387 75.296C85.1097 75.296 85.7037 75.01 85.7037 74.383C85.7037 73.756 85.1537 73.668 84.2077 73.47C83.2617 73.261 82.2717 73.052 82.2717 71.875C82.2717 70.852 83.1627 70.137 84.3837 70.137C85.4177 70.137 86.2647 70.643 86.6057 71.325L85.9017 71.886C85.6047 71.314 85.0657 70.951 84.3397 70.951C83.6797 70.951 83.2397 71.281 83.2397 71.798C83.2397 72.337 83.7457 72.436 84.5487 72.612C85.5387 72.843 86.6717 73.041 86.6717 74.295C86.6717 75.395 85.6707 76.121 84.4387 76.121C83.3937 76.121 82.3487 75.67 81.9087 74.779ZM92.7246 68.003V68.883C92.5596 68.861 92.4606 68.861 92.2956 68.861C91.7126 68.861 91.3936 69.114 91.3936 69.851V70.247H92.6696V71.094H91.3936V76H90.4036V71.094H89.5346V70.247H90.4036V69.785C90.4036 68.663 91.0196 67.981 92.1966 67.981C92.3946 67.981 92.5046 67.992 92.7246 68.003ZM98.5074 73.129C98.5074 74.911 97.4074 76.121 95.8344 76.121C94.2614 76.121 93.1614 74.911 93.1614 73.129C93.1614 71.347 94.2614 70.137 95.8344 70.137C97.4074 70.137 98.5074 71.347 98.5074 73.129ZM94.1624 73.129C94.1624 74.438 94.8224 75.274 95.8344 75.274C96.8464 75.274 97.5064 74.438 97.5064 73.129C97.5064 71.809 96.8464 70.973 95.8344 70.973C94.8224 70.973 94.1624 71.809 94.1624 73.129ZM104.331 70.247V76H103.341V75.208C103.011 75.692 102.45 76.121 101.636 76.121C100.404 76.121 99.7114 75.274 99.7114 74.053V70.247H100.701V73.844C100.701 74.658 101.053 75.208 101.9 75.208C102.615 75.208 103.341 74.669 103.341 73.712V70.247H104.331ZM105.975 76V70.247H106.965V71.028C107.295 70.555 107.867 70.137 108.681 70.137C109.902 70.137 110.595 70.984 110.595 72.205V76H109.605V72.469C109.605 71.666 109.264 71.061 108.406 71.061C107.691 71.061 106.965 71.611 106.965 72.568V76H105.975ZM114.296 76.121C112.701 76.121 111.788 74.757 111.788 73.129C111.788 71.49 112.701 70.137 114.296 70.137C115.099 70.137 115.737 70.522 116.078 71.083V68.102H117.068V76H116.078V75.164C115.737 75.736 115.099 76.121 114.296 76.121ZM116.1 72.931C116.1 71.589 115.286 71.006 114.472 71.006C113.394 71.006 112.789 71.886 112.789 73.129C112.789 74.361 113.394 75.252 114.472 75.252C115.286 75.252 116.1 74.658 116.1 73.338V72.931ZM121.004 76.121C119.409 76.121 118.309 74.9 118.309 73.129C118.309 71.413 119.398 70.137 120.96 70.137C122.566 70.137 123.413 71.358 123.413 72.953V73.283H119.255C119.31 74.493 120.003 75.263 121.004 75.263C121.774 75.263 122.324 74.845 122.5 74.163L123.369 74.471C123.017 75.494 122.148 76.121 121.004 76.121ZM120.949 70.984C120.113 70.984 119.486 71.545 119.31 72.524H122.412C122.39 71.71 121.95 70.984 120.949 70.984ZM126.757 76.121C125.162 76.121 124.249 74.757 124.249 73.129C124.249 71.49 125.162 70.137 126.757 70.137C127.56 70.137 128.198 70.522 128.539 71.083V68.102H129.529V76H128.539V75.164C128.198 75.736 127.56 76.121 126.757 76.121ZM128.561 72.931C128.561 71.589 127.747 71.006 126.933 71.006C125.855 71.006 125.25 71.886 125.25 73.129C125.25 74.361 125.855 75.252 126.933 75.252C127.747 75.252 128.561 74.658 128.561 73.338V72.931ZM133.442 69.246V68.102H134.52V69.246H133.442ZM134.476 70.247V76H133.486V70.247H134.476ZM136.129 76V70.247H137.119V71.028C137.449 70.555 138.021 70.137 138.835 70.137C140.056 70.137 140.749 70.984 140.749 72.205V76H139.759V72.469C139.759 71.666 139.418 71.061 138.56 71.061C137.845 71.061 137.119 71.611 137.119 72.568V76H136.129ZM150.939 68.102V76H150.026L145.714 69.642V76H144.702V68.102H145.813L149.916 74.207V68.102H150.939ZM152.585 69.246V68.102H153.663V69.246H152.585ZM153.619 70.247V76H152.629V70.247H153.619ZM160.144 75.483C160.144 77.166 159.033 78.101 157.471 78.101C156.206 78.101 155.282 77.518 154.963 76.462L155.887 76.11C156.074 76.847 156.668 77.276 157.471 77.276C158.483 77.276 159.154 76.759 159.154 75.56V74.911C158.846 75.472 158.197 75.868 157.394 75.868C155.821 75.868 154.897 74.57 154.897 72.997C154.897 71.435 155.821 70.137 157.394 70.137C158.186 70.137 158.846 70.533 159.154 71.094V70.247H160.144V75.483ZM159.165 72.909C159.165 71.622 158.395 71.006 157.57 71.006C156.525 71.006 155.887 71.787 155.887 72.997C155.887 74.207 156.525 74.999 157.57 74.999C158.395 74.999 159.165 74.383 159.165 73.118V72.909ZM164.091 76.121C162.496 76.121 161.396 74.9 161.396 73.129C161.396 71.413 162.485 70.137 164.047 70.137C165.653 70.137 166.5 71.358 166.5 72.953V73.283H162.342C162.397 74.493 163.09 75.263 164.091 75.263C164.861 75.263 165.411 74.845 165.587 74.163L166.456 74.471C166.104 75.494 165.235 76.121 164.091 76.121ZM164.036 70.984C163.2 70.984 162.573 71.545 162.397 72.524H165.499C165.477 71.71 165.037 70.984 164.036 70.984ZM170.713 70.225V71.226C170.548 71.193 170.416 71.182 170.229 71.182C169.393 71.182 168.722 71.842 168.722 72.854V76H167.732V70.247H168.722V71.226C168.975 70.643 169.536 70.203 170.317 70.203C170.471 70.203 170.614 70.214 170.713 70.225ZM171.76 69.246V68.102H172.838V69.246H171.76ZM172.794 70.247V76H171.804V70.247H172.794ZM175.887 76.099C174.842 76.099 173.995 75.483 173.995 74.449C173.995 73.305 174.886 72.832 176.173 72.568L177.57 72.282V72.04C177.57 71.38 177.207 71.006 176.437 71.006C175.711 71.006 175.282 71.347 175.106 71.985L174.171 71.743C174.446 70.808 175.293 70.137 176.47 70.137C177.757 70.137 178.549 70.764 178.549 71.996V74.801C178.549 75.175 178.78 75.296 179.165 75.208V76C178.285 76.11 177.779 75.901 177.658 75.351C177.306 75.802 176.668 76.099 175.887 76.099ZM177.57 74.042V73.052L176.448 73.294C175.568 73.47 174.974 73.712 174.974 74.405C174.974 74.966 175.381 75.296 176.008 75.296C176.855 75.296 177.57 74.779 177.57 74.042ZM180.156 76V74.702H181.41V76H180.156Z" fill="black"/>
<rect x="16" y="55" width="4" height="4" fill="black"/>
<path d="M29.869 96V88.102H32.377C34.775 88.102 36.293 89.642 36.293 92.051C36.293 94.46 34.775 96 32.377 96H29.869ZM30.903 95.087H32.377C34.17 95.087 35.259 93.888 35.259 92.051C35.259 90.203 34.17 89.015 32.366 89.015H30.903V95.087ZM42.1029 90.247V96H41.1129V95.208C40.7829 95.692 40.2219 96.121 39.4079 96.121C38.1759 96.121 37.4829 95.274 37.4829 94.053V90.247H38.4729V93.844C38.4729 94.658 38.8249 95.208 39.6719 95.208C40.3869 95.208 41.1129 94.669 41.1129 93.712V90.247H42.1029ZM45.1879 96.099C44.1429 96.099 43.2959 95.483 43.2959 94.449C43.2959 93.305 44.1869 92.832 45.4739 92.568L46.8709 92.282V92.04C46.8709 91.38 46.5079 91.006 45.7379 91.006C45.0119 91.006 44.5829 91.347 44.4069 91.985L43.4719 91.743C43.7469 90.808 44.5939 90.137 45.7709 90.137C47.0579 90.137 47.8499 90.764 47.8499 91.996V94.801C47.8499 95.175 48.0809 95.296 48.4659 95.208V96C47.5859 96.11 47.0799 95.901 46.9589 95.351C46.6069 95.802 45.9689 96.099 45.1879 96.099ZM46.8709 94.042V93.052L45.7489 93.294C44.8689 93.47 44.2749 93.712 44.2749 94.405C44.2749 94.966 44.6819 95.296 45.3089 95.296C46.1559 95.296 46.8709 94.779 46.8709 94.042ZM50.5269 88.102V96H49.5369V88.102H50.5269ZM60.2638 89.026H57.5908V96H56.5348V89.026H53.8618V88.102H60.2638V89.026ZM63.2386 90.225V91.226C63.0736 91.193 62.9416 91.182 62.7546 91.182C61.9186 91.182 61.2476 91.842 61.2476 92.854V96H60.2576V90.247H61.2476V91.226C61.5006 90.643 62.0616 90.203 62.8426 90.203C62.9966 90.203 63.1396 90.214 63.2386 90.225ZM65.6517 96.099C64.6067 96.099 63.7597 95.483 63.7597 94.449C63.7597 93.305 64.6507 92.832 65.9377 92.568L67.3347 92.282V92.04C67.3347 91.38 66.9717 91.006 66.2017 91.006C65.4757 91.006 65.0467 91.347 64.8707 91.985L63.9357 91.743C64.2107 90.808 65.0577 90.137 66.2347 90.137C67.5217 90.137 68.3137 90.764 68.3137 91.996V94.801C68.3137 95.175 68.5447 95.296 68.9297 95.208V96C68.0497 96.11 67.5437 95.901 67.4227 95.351C67.0707 95.802 66.4327 96.099 65.6517 96.099ZM67.3347 94.042V93.052L66.2127 93.294C65.3327 93.47 64.7387 93.712 64.7387 94.405C64.7387 94.966 65.1457 95.296 65.7727 95.296C66.6197 95.296 67.3347 94.779 67.3347 94.042ZM70.0008 96V90.247H70.9908V91.028C71.3208 90.555 71.8928 90.137 72.7068 90.137C73.9278 90.137 74.6208 90.984 74.6208 92.205V96H73.6308V92.469C73.6308 91.666 73.2898 91.061 72.4318 91.061C71.7168 91.061 70.9908 91.611 70.9908 92.568V96H70.0008ZM75.5718 94.779L76.3418 94.218C76.6498 94.889 77.3538 95.296 78.1018 95.296C78.7728 95.296 79.3668 95.01 79.3668 94.383C79.3668 93.756 78.8168 93.668 77.8708 93.47C76.9248 93.261 75.9348 93.052 75.9348 91.875C75.9348 90.852 76.8258 90.137 78.0468 90.137C79.0808 90.137 79.9278 90.643 80.2688 91.325L79.5648 91.886C79.2678 91.314 78.7288 90.951 78.0028 90.951C77.3428 90.951 76.9028 91.281 76.9028 91.798C76.9028 92.337 77.4088 92.436 78.2118 92.612C79.2018 92.843 80.3348 93.041 80.3348 94.295C80.3348 95.395 79.3338 96.121 78.1018 96.121C77.0568 96.121 76.0118 95.67 75.5718 94.779ZM83.0004 96.099C81.9554 96.099 81.1084 95.483 81.1084 94.449C81.1084 93.305 81.9994 92.832 83.2864 92.568L84.6834 92.282V92.04C84.6834 91.38 84.3204 91.006 83.5504 91.006C82.8244 91.006 82.3954 91.347 82.2194 91.985L81.2844 91.743C81.5594 90.808 82.4064 90.137 83.5834 90.137C84.8704 90.137 85.6624 90.764 85.6624 91.996V94.801C85.6624 95.175 85.8934 95.296 86.2784 95.208V96C85.3984 96.11 84.8924 95.901 84.7714 95.351C84.4194 95.802 83.7814 96.099 83.0004 96.099ZM84.6834 94.042V93.052L83.5614 93.294C82.6814 93.47 82.0874 93.712 82.0874 94.405C82.0874 94.966 82.4944 95.296 83.1214 95.296C83.9684 95.296 84.6834 94.779 84.6834 94.042ZM87.9434 93.129C87.9434 94.438 88.6474 95.252 89.6704 95.252C90.4624 95.252 90.9354 94.746 91.1004 94.031L91.9804 94.438C91.7054 95.395 90.8694 96.121 89.6704 96.121C88.0644 96.121 86.9534 94.9 86.9534 93.129C86.9534 91.347 88.0644 90.137 89.6704 90.137C90.8694 90.137 91.6834 90.83 91.9584 91.787L91.1004 92.216C90.9354 91.512 90.4624 90.995 89.6704 90.995C88.6474 90.995 87.9434 91.809 87.9434 93.129ZM93.2183 94.625V91.094H92.3273V90.247H93.2183V88.564H94.1973V90.247H95.5063V91.094H94.1973V94.471C94.1973 95.076 94.4943 95.186 95.0003 95.186C95.2313 95.186 95.3963 95.175 95.6273 95.12V95.967C95.3743 96.022 95.0883 96.055 94.7583 96.055C93.7793 96.055 93.2183 95.725 93.2183 94.625ZM96.7585 89.246V88.102H97.8365V89.246H96.7585ZM97.7925 90.247V96H96.8025V90.247H97.7925ZM104.395 93.129C104.395 94.911 103.295 96.121 101.722 96.121C100.149 96.121 99.0491 94.911 99.0491 93.129C99.0491 91.347 100.149 90.137 101.722 90.137C103.295 90.137 104.395 91.347 104.395 93.129ZM100.05 93.129C100.05 94.438 100.71 95.274 101.722 95.274C102.734 95.274 103.394 94.438 103.394 93.129C103.394 91.809 102.734 90.973 101.722 90.973C100.71 90.973 100.05 91.809 100.05 93.129ZM105.654 96V90.247H106.644V91.028C106.974 90.555 107.546 90.137 108.36 90.137C109.581 90.137 110.274 90.984 110.274 92.205V96H109.284V92.469C109.284 91.666 108.943 91.061 108.085 91.061C107.37 91.061 106.644 91.611 106.644 92.568V96H105.654ZM113.402 94.372L114.227 93.712C114.722 94.658 115.613 95.208 116.636 95.208C117.659 95.208 118.451 94.702 118.451 93.8C118.451 92.843 117.538 92.678 116.339 92.392C115.096 92.095 113.864 91.754 113.864 90.269C113.864 88.883 115.063 87.981 116.559 87.981C117.934 87.981 118.924 88.641 119.397 89.532L118.594 90.17C118.187 89.411 117.56 88.894 116.537 88.894C115.58 88.894 114.887 89.422 114.887 90.181C114.887 91.017 115.624 91.193 116.735 91.457C118.044 91.765 119.485 92.04 119.485 93.712C119.485 95.186 118.176 96.121 116.614 96.121C115.25 96.121 113.941 95.439 113.402 94.372ZM123.024 96.121C121.429 96.121 120.329 94.9 120.329 93.129C120.329 91.413 121.418 90.137 122.98 90.137C124.586 90.137 125.433 91.358 125.433 92.953V93.283H121.275C121.33 94.493 122.023 95.263 123.024 95.263C123.794 95.263 124.344 94.845 124.52 94.163L125.389 94.471C125.037 95.494 124.168 96.121 123.024 96.121ZM122.969 90.984C122.133 90.984 121.506 91.545 121.33 92.524H124.432C124.41 91.71 123.97 90.984 122.969 90.984ZM129.647 90.225V91.226C129.482 91.193 129.35 91.182 129.163 91.182C128.327 91.182 127.656 91.842 127.656 92.854V96H126.666V90.247H127.656V91.226C127.909 90.643 128.47 90.203 129.251 90.203C129.405 90.203 129.548 90.214 129.647 90.225ZM133.255 96H132.276L130.12 90.247H131.165L132.782 94.79L134.377 90.247H135.411L133.255 96ZM136.333 89.246V88.102H137.411V89.246H136.333ZM137.367 90.247V96H136.377V90.247H137.367ZM139.613 93.129C139.613 94.438 140.317 95.252 141.34 95.252C142.132 95.252 142.605 94.746 142.77 94.031L143.65 94.438C143.375 95.395 142.539 96.121 141.34 96.121C139.734 96.121 138.623 94.9 138.623 93.129C138.623 91.347 139.734 90.137 141.34 90.137C142.539 90.137 143.353 90.83 143.628 91.787L142.77 92.216C142.605 91.512 142.132 90.995 141.34 90.995C140.317 90.995 139.613 91.809 139.613 93.129ZM147.033 96.121C145.438 96.121 144.338 94.9 144.338 93.129C144.338 91.413 145.427 90.137 146.989 90.137C148.595 90.137 149.442 91.358 149.442 92.953V93.283H145.284C145.339 94.493 146.032 95.263 147.033 95.263C147.803 95.263 148.353 94.845 148.529 94.163L149.398 94.471C149.046 95.494 148.177 96.121 147.033 96.121ZM146.978 90.984C146.142 90.984 145.515 91.545 145.339 92.524H148.441C148.419 91.71 147.979 90.984 146.978 90.984ZM152.61 92.986C152.61 92.3847 152.665 91.798 152.775 91.226C152.892 90.654 153.072 90.1077 153.314 89.587C153.556 89.0663 153.86 88.586 154.227 88.146H155.14C154.803 88.6007 154.517 89.092 154.282 89.62C154.055 90.148 153.882 90.6943 153.765 91.259C153.648 91.8237 153.589 92.3957 153.589 92.975C153.589 93.5397 153.648 94.1007 153.765 94.658C153.882 95.2153 154.055 95.7507 154.282 96.264C154.509 96.7847 154.792 97.276 155.129 97.738H154.227C153.86 97.3053 153.556 96.8323 153.314 96.319C153.072 95.813 152.892 95.2777 152.775 94.713C152.665 94.1483 152.61 93.5727 152.61 92.986ZM156.337 96V88.102H158.845C161.243 88.102 162.761 89.642 162.761 92.051C162.761 94.46 161.243 96 158.845 96H156.337ZM157.371 95.087H158.845C160.638 95.087 161.727 93.888 161.727 92.051C161.727 90.203 160.638 89.015 158.834 89.015H157.371V95.087ZM169.2 89.026H166.527V96H165.471V89.026H162.798V88.102H169.2V89.026ZM169.154 94.372L169.979 93.712C170.474 94.658 171.365 95.208 172.388 95.208C173.411 95.208 174.203 94.702 174.203 93.8C174.203 92.843 173.29 92.678 172.091 92.392C170.848 92.095 169.616 91.754 169.616 90.269C169.616 88.883 170.815 87.981 172.311 87.981C173.686 87.981 174.676 88.641 175.149 89.532L174.346 90.17C173.939 89.411 173.312 88.894 172.289 88.894C171.332 88.894 170.639 89.422 170.639 90.181C170.639 91.017 171.376 91.193 172.487 91.457C173.796 91.765 175.237 92.04 175.237 93.712C175.237 95.186 173.928 96.121 172.366 96.121C171.002 96.121 169.693 95.439 169.154 94.372ZM178.426 92.986C178.426 93.5727 178.368 94.1483 178.25 94.713C178.14 95.2777 177.964 95.813 177.722 96.319C177.488 96.8323 177.183 97.3053 176.809 97.738H175.907C176.245 97.276 176.527 96.7847 176.754 96.264C176.982 95.7507 177.154 95.2153 177.271 94.658C177.389 94.1007 177.447 93.5397 177.447 92.975C177.447 92.3957 177.389 91.8237 177.271 91.259C177.154 90.6943 176.982 90.148 176.754 89.62C176.527 89.092 176.241 88.6007 175.896 88.146H176.809C177.183 88.586 177.488 89.0663 177.722 89.587C177.964 90.1077 178.14 90.654 178.25 91.226C178.368 91.798 178.426 92.3847 178.426 92.986ZM32.564 106.247H33.4L34.588 110.537L35.787 106.247H36.777L35.028 112H34.159L32.96 107.732L31.761 112H30.892L29.143 106.247H30.166L31.376 110.526L32.564 106.247ZM39.0648 112.099C38.0198 112.099 37.1728 111.483 37.1728 110.449C37.1728 109.305 38.0638 108.832 39.3508 108.568L40.7478 108.282V108.04C40.7478 107.38 40.3848 107.006 39.6148 107.006C38.8888 107.006 38.4598 107.347 38.2838 107.985L37.3488 107.743C37.6238 106.808 38.4708 106.137 39.6478 106.137C40.9348 106.137 41.7268 106.764 41.7268 107.996V110.801C41.7268 111.175 41.9578 111.296 42.3428 111.208V112C41.4628 112.11 40.9568 111.901 40.8358 111.351C40.4838 111.802 39.8458 112.099 39.0648 112.099ZM40.7478 110.042V109.052L39.6258 109.294C38.7458 109.47 38.1518 109.712 38.1518 110.405C38.1518 110.966 38.5588 111.296 39.1858 111.296C40.0328 111.296 40.7478 110.779 40.7478 110.042ZM42.7759 110.779L43.5459 110.218C43.8539 110.889 44.5579 111.296 45.3059 111.296C45.9769 111.296 46.5709 111.01 46.5709 110.383C46.5709 109.756 46.0209 109.668 45.0749 109.47C44.1289 109.261 43.1389 109.052 43.1389 107.875C43.1389 106.852 44.0299 106.137 45.2509 106.137C46.2849 106.137 47.1319 106.643 47.4729 107.325L46.7689 107.886C46.4719 107.314 45.9329 106.951 45.2069 106.951C44.5469 106.951 44.1069 107.281 44.1069 107.798C44.1069 108.337 44.6129 108.436 45.4159 108.612C46.4059 108.843 47.5389 109.041 47.5389 110.295C47.5389 111.395 46.5379 112.121 45.3059 112.121C44.2609 112.121 43.2159 111.67 42.7759 110.779ZM52.4721 109.096V112H50.8551V104.102H54.0891C55.9041 104.102 57.0371 104.96 57.0371 106.599C57.0371 108.227 55.9041 109.096 54.0891 109.096H52.4721ZM52.4721 107.721H54.0011C54.9471 107.721 55.4311 107.303 55.4311 106.599C55.4311 105.884 54.9471 105.477 54.0011 105.477H52.4721V107.721ZM59.2051 112.099C58.0721 112.099 57.2361 111.417 57.2361 110.394C57.2361 109.239 58.1601 108.755 59.3261 108.546L60.7671 108.271V108.183C60.7671 107.688 60.5141 107.38 59.8761 107.38C59.3041 107.38 59.0071 107.633 58.8751 108.15L57.4121 107.875C57.6761 106.896 58.5561 106.104 59.9311 106.104C61.3941 106.104 62.2741 106.775 62.2741 108.117V110.482C62.2741 110.79 62.4061 110.889 62.7471 110.845V112C61.7681 112.143 61.1741 111.945 60.9211 111.461C60.5471 111.868 59.9641 112.099 59.2051 112.099ZM60.7671 109.943V109.349L59.6341 109.58C59.1281 109.679 58.7541 109.844 58.7541 110.306C58.7541 110.702 59.0511 110.933 59.5131 110.933C60.1621 110.933 60.7671 110.592 60.7671 109.943ZM63.7481 110.493V107.501H62.9781V106.214H63.7481V104.564H65.2661V106.214H66.4431V107.501H65.2661V110.174C65.2661 110.669 65.5411 110.735 65.9921 110.735C66.2121 110.735 66.3221 110.724 66.5201 110.702V111.978C66.2451 112.033 65.9151 112.066 65.5301 112.066C64.3641 112.066 63.7481 111.681 63.7481 110.493ZM69.9268 112.121C68.2218 112.121 67.0558 110.9 67.0558 109.107C67.0558 107.402 68.2328 106.104 69.8718 106.104C71.5878 106.104 72.5118 107.38 72.5118 108.997V109.448H68.5298C68.6398 110.328 69.1788 110.856 69.9378 110.856C70.5318 110.856 71.0048 110.57 71.1808 110.009L72.4788 110.471C72.0608 111.527 71.0818 112.121 69.9268 112.121ZM69.8608 107.336C69.2448 107.336 68.7718 107.699 68.5848 108.403H70.9828C70.9718 107.831 70.6088 107.336 69.8608 107.336ZM73.4232 112V106.214H74.9632V106.808C75.2822 106.434 75.8102 106.104 76.5472 106.104C77.7572 106.104 78.4942 106.929 78.4942 108.183V112H76.9542V108.623C76.9542 107.974 76.6902 107.512 76.0302 107.512C75.4912 107.512 74.9632 107.897 74.9632 108.656V112H73.4232ZM79.8828 110.493V107.501H79.1128V106.214H79.8828V104.564H81.4008V106.214H82.5778V107.501H81.4008V110.174C81.4008 110.669 81.6758 110.735 82.1268 110.735C82.3468 110.735 82.4568 110.724 82.6548 110.702V111.978C82.3798 112.033 82.0498 112.066 81.6648 112.066C80.4988 112.066 79.8828 111.681 79.8828 110.493ZM86.0616 112.121C84.3566 112.121 83.1906 110.9 83.1906 109.107C83.1906 107.402 84.3676 106.104 86.0066 106.104C87.7226 106.104 88.6466 107.38 88.6466 108.997V109.448H84.6646C84.7746 110.328 85.3136 110.856 86.0726 110.856C86.6666 110.856 87.1396 110.57 87.3156 110.009L88.6136 110.471C88.1956 111.527 87.2166 112.121 86.0616 112.121ZM85.9956 107.336C85.3796 107.336 84.9066 107.699 84.7196 108.403H87.1176C87.1066 107.831 86.7436 107.336 85.9956 107.336ZM91.7357 112.121C90.1407 112.121 89.2167 110.757 89.2167 109.107C89.2167 107.468 90.1407 106.104 91.7357 106.104C92.4617 106.104 93.0117 106.39 93.3527 106.808V104.102H94.8927V112H93.3527V111.406C93.0117 111.835 92.4617 112.121 91.7357 112.121ZM93.3857 108.953C93.3857 107.963 92.8357 107.424 92.0987 107.424C91.2297 107.424 90.7677 108.117 90.7677 109.107C90.7677 110.108 91.2297 110.801 92.0987 110.801C92.8357 110.801 93.3857 110.251 93.3857 109.272V108.953Z" fill="black"/>
<rect x="16" y="91" width="4" height="4" fill="black"/>
<rect x="87.5" y="4.5" width="39" height="39" rx="19.5" fill="white"/>
<rect x="87.5" y="4.5" width="39" height="39" rx="19.5" stroke="#49D7C6"/>
<path d="M104.5 23C104.257 23 104.027 23.058 103.824 23.16C104.622 23.3579 105.366 23.7328 106 24.257V24H109.5C109.633 24 109.76 24.0527 109.854 24.1464C109.947 24.2402 110 24.3674 110 24.5V26H107.4C107.562 26.317 107.694 26.651 107.793 27H110V28.5C110 28.6326 109.947 28.7598 109.854 28.8536C109.76 28.9473 109.633 29 109.5 29H107.978C107.947 29.3383 107.885 29.6731 107.793 30H109.5C109.898 30 110.279 29.842 110.561 29.5607C110.842 29.2794 111 28.8978 111 28.5V24.5C111 24.1022 110.842 23.7206 110.561 23.4393C110.279 23.158 109.898 23 109.5 23H104.5ZM101 23.207C101.327 23.1145 101.662 23.0525 102 23.022V18C102 17.7348 102.105 17.4804 102.293 17.2929C102.48 17.1054 102.735 17 103 17H107V20.5C107 20.8978 107.158 21.2794 107.439 21.5607C107.721 21.842 108.102 22 108.5 22H112V30C112 30.2652 111.895 30.5196 111.707 30.7071C111.52 30.8946 111.265 31 111 31H107.4C107.218 31.3562 106.998 31.6915 106.743 32H111C111.53 32 112.039 31.7893 112.414 31.4142C112.789 31.0391 113 30.5304 113 30V21.414C113 21.0163 112.841 20.635 112.56 20.354L108.646 16.439C108.365 16.158 107.984 16.0001 107.586 16H103C102.47 16 101.961 16.2107 101.586 16.5858C101.211 16.9609 101 17.4696 101 18V23.207ZM111.793 21H108.5C108.367 21 108.24 20.9473 108.146 20.8536C108.053 20.7598 108 20.6326 108 20.5V17.207L111.793 21ZM107 28.5C107 29.6935 106.526 30.8381 105.682 31.682C104.838 32.5259 103.693 33 102.5 33C101.307 33 100.162 32.5259 99.318 31.682C98.4741 30.8381 98 29.6935 98 28.5C98 27.3065 98.4741 26.1619 99.318 25.318C100.162 24.4741 101.307 24 102.5 24C103.693 24 104.838 24.4741 105.682 25.318C106.526 26.1619 107 27.3065 107 28.5ZM104.854 26.646C104.808 26.5994 104.752 26.5625 104.692 26.5373C104.631 26.5121 104.566 26.4991 104.5 26.4991C104.434 26.4991 104.369 26.5121 104.308 26.5373C104.248 26.5625 104.192 26.5994 104.146 26.646L101.5 29.293L100.854 28.646C100.76 28.5521 100.633 28.4994 100.5 28.4994C100.367 28.4994 100.24 28.5521 100.146 28.646C100.052 28.7399 99.9994 28.8672 99.9994 29C99.9994 29.1328 100.052 29.2601 100.146 29.354L101.146 30.354C101.192 30.4006 101.248 30.4375 101.308 30.4627C101.369 30.4879 101.434 30.5009 101.5 30.5009C101.566 30.5009 101.631 30.4879 101.692 30.4627C101.752 30.4375 101.808 30.4006 101.854 30.354L104.854 27.354C104.901 27.3076 104.938 27.2524 104.963 27.1916C104.988 27.1309 105.001 27.0658 105.001 27C105.001 26.9342 104.988 26.8691 104.963 26.8084C104.938 26.7476 104.901 26.6924 104.854 26.646Z" fill="#49D7C6"/>
</g>
<defs>
<filter id="filter0_d_3183_29151" x="0" y="0" width="214" height="202" filterUnits="userSpaceOnUse" color-interpolation-filters="sRGB">
<feFlood flood-opacity="0" result="BackgroundImageFix"/>
<feColorMatrix in="SourceAlpha" type="matrix" values="0 0 0 0 0 0 0 0 0 0 0 0 0 0 0 0 0 0 127 0" result="hardAlpha"/>
<feOffset dy="4"/>
<feGaussianBlur stdDeviation="2"/>
<feComposite in2="hardAlpha" operator="out"/>
<feColorMatrix type="matrix" values="0 0 0 0 0 0 0 0 0 0 0 0 0 0 0 0 0 0 0.25 0"/>
<feBlend mode="normal" in2="BackgroundImageFix" result="effect1_dropShadow_3183_29151"/>
<feBlend mode="normal" in="SourceGraphic" in2="effect1_dropShadow_3183_29151" result="shape"/>
</filter>
</defs>
</svg>
