<svg width="456" height="538" viewBox="0 0 456 538" fill="none" xmlns="http://www.w3.org/2000/svg">
<path d="M166 406C166 420.4 175 425.5 182 425.5C205.129 425.5 246.329 425.5 261 425.5C275.671 425.5 280.159 432.071 279.994 435.5V442V451H290.5M290.5 451V348.5M290.5 451V493.5H389.5C396.167 494 409.5 491.9 409.5 479.5C409.5 467.1 409.5 359.667 409.5 307.5" stroke="#4560B0" stroke-width="1.5"/>
<path d="M130.611 177C116.643 177 70.2029 176 60 176C49.7971 176 48.5 181.885 48.5 185.5V212" stroke="#4ABCEB" stroke-width="1.5"/>
<path d="M166 97V178M166 178V310V355H227V298H290V252V178H166Z" stroke="#B2B2B2" stroke-width="1.5" stroke-dasharray="4 4"/>
<path d="M100.444 513.023C100.444 512.841 100.415 512.68 100.358 512.54C100.304 512.397 100.208 512.268 100.068 512.153C99.9318 512.039 99.742 511.93 99.4985 511.826C99.2586 511.722 98.9543 511.616 98.5854 511.509C98.1987 511.394 97.8496 511.267 97.5381 511.127C97.2266 510.984 96.9598 510.821 96.7378 510.639C96.5158 510.456 96.3457 510.247 96.2275 510.01C96.1094 509.774 96.0503 509.504 96.0503 509.199C96.0503 508.895 96.113 508.614 96.2383 508.356C96.3636 508.098 96.5426 507.874 96.7754 507.685C97.0117 507.491 97.2928 507.341 97.6187 507.233C97.9445 507.126 98.3079 507.072 98.709 507.072C99.2962 507.072 99.7939 507.185 100.202 507.411C100.614 507.633 100.927 507.924 101.142 508.286C101.357 508.644 101.464 509.027 101.464 509.436H100.433C100.433 509.142 100.37 508.882 100.245 508.657C100.12 508.428 99.93 508.249 99.6758 508.12C99.4215 507.987 99.0993 507.921 98.709 507.921C98.3402 507.921 98.0358 507.976 97.7959 508.087C97.556 508.198 97.377 508.349 97.2588 508.539C97.1442 508.728 97.0869 508.945 97.0869 509.188C97.0869 509.353 97.1209 509.504 97.189 509.64C97.2606 509.772 97.3698 509.896 97.5166 510.01C97.667 510.125 97.8568 510.23 98.0859 510.327C98.3187 510.424 98.5962 510.517 98.9185 510.606C99.3625 510.732 99.7456 510.871 100.068 511.025C100.39 511.179 100.655 511.353 100.863 511.546C101.074 511.736 101.23 511.953 101.33 512.196C101.434 512.436 101.486 512.708 101.486 513.013C101.486 513.331 101.421 513.62 101.292 513.877C101.164 514.135 100.979 514.355 100.739 514.538C100.499 514.721 100.211 514.862 99.8745 514.962C99.5415 515.059 99.1691 515.107 98.7573 515.107C98.3957 515.107 98.0394 515.057 97.6885 514.957C97.3411 514.857 97.0243 514.706 96.7378 514.506C96.4549 514.305 96.2275 514.058 96.0557 513.765C95.8874 513.467 95.8032 513.124 95.8032 512.733H96.8345C96.8345 513.002 96.8864 513.233 96.9902 513.426C97.0941 513.616 97.2355 513.774 97.4146 513.899C97.5972 514.024 97.8031 514.117 98.0322 514.178C98.265 514.236 98.5067 514.264 98.7573 514.264C99.119 514.264 99.4251 514.214 99.6758 514.114C99.9264 514.014 100.116 513.87 100.245 513.684C100.378 513.498 100.444 513.278 100.444 513.023ZM103.844 507.18V515H102.807V507.18H103.844ZM108.565 507.18L105.315 510.827L103.489 512.723L103.317 511.616L104.692 510.102L107.319 507.18H108.565ZM107.566 515L104.671 511.187L105.289 510.365L108.801 515H107.566ZM114.188 507.18H115.22V512.47C115.22 513.057 115.089 513.546 114.828 513.937C114.566 514.327 114.219 514.62 113.786 514.817C113.356 515.011 112.889 515.107 112.384 515.107C111.854 515.107 111.374 515.011 110.944 514.817C110.518 514.62 110.18 514.327 109.929 513.937C109.682 513.546 109.559 513.057 109.559 512.47V507.18H110.584V512.47C110.584 512.878 110.66 513.215 110.81 513.48C110.96 513.745 111.17 513.942 111.438 514.071C111.711 514.2 112.026 514.264 112.384 514.264C112.745 514.264 113.061 514.2 113.329 514.071C113.601 513.942 113.812 513.745 113.963 513.48C114.113 513.215 114.188 512.878 114.188 512.47V507.18ZM120.505 506.75V515H119.506V506.75H120.505ZM124.512 515.107C124.107 515.107 123.74 515.039 123.411 514.903C123.085 514.764 122.804 514.569 122.567 514.318C122.335 514.067 122.156 513.77 122.03 513.426C121.905 513.083 121.842 512.707 121.842 512.298V512.073C121.842 511.6 121.912 511.179 122.052 510.811C122.191 510.438 122.381 510.123 122.621 509.865C122.861 509.607 123.133 509.412 123.438 509.28C123.742 509.147 124.057 509.081 124.383 509.081C124.798 509.081 125.156 509.153 125.457 509.296C125.761 509.439 126.01 509.64 126.204 509.897C126.397 510.152 126.54 510.452 126.633 510.8C126.726 511.144 126.773 511.52 126.773 511.928V512.374H122.433V511.562H125.779V511.487C125.765 511.229 125.711 510.979 125.618 510.735C125.529 510.492 125.385 510.291 125.188 510.134C124.992 509.976 124.723 509.897 124.383 509.897C124.157 509.897 123.95 509.946 123.76 510.042C123.57 510.136 123.407 510.275 123.271 510.461C123.135 510.648 123.029 510.875 122.954 511.144C122.879 511.412 122.841 511.722 122.841 512.073V512.298C122.841 512.574 122.879 512.834 122.954 513.077C123.033 513.317 123.146 513.528 123.292 513.711C123.443 513.894 123.624 514.037 123.835 514.141C124.05 514.244 124.293 514.296 124.565 514.296C124.916 514.296 125.214 514.225 125.457 514.082C125.701 513.938 125.914 513.747 126.096 513.507L126.698 513.985C126.572 514.175 126.413 514.355 126.22 514.527C126.026 514.699 125.788 514.839 125.505 514.946C125.226 515.054 124.895 515.107 124.512 515.107ZM129.625 514.103L131.215 509.188H132.23L130.141 515H129.475L129.625 514.103ZM128.298 509.188L129.937 514.13L130.049 515H129.383L127.278 509.188H128.298ZM135.522 515.107C135.118 515.107 134.751 515.039 134.421 514.903C134.096 514.764 133.814 514.569 133.578 514.318C133.345 514.067 133.166 513.77 133.041 513.426C132.916 513.083 132.853 512.707 132.853 512.298V512.073C132.853 511.6 132.923 511.179 133.062 510.811C133.202 510.438 133.392 510.123 133.632 509.865C133.872 509.607 134.144 509.412 134.448 509.28C134.753 509.147 135.068 509.081 135.394 509.081C135.809 509.081 136.167 509.153 136.468 509.296C136.772 509.439 137.021 509.64 137.214 509.897C137.408 510.152 137.551 510.452 137.644 510.8C137.737 511.144 137.784 511.52 137.784 511.928V512.374H133.444V511.562H136.79V511.487C136.776 511.229 136.722 510.979 136.629 510.735C136.539 510.492 136.396 510.291 136.199 510.134C136.002 509.976 135.734 509.897 135.394 509.897C135.168 509.897 134.96 509.946 134.771 510.042C134.581 510.136 134.418 510.275 134.282 510.461C134.146 510.648 134.04 510.875 133.965 511.144C133.89 511.412 133.852 511.722 133.852 512.073V512.298C133.852 512.574 133.89 512.834 133.965 513.077C134.044 513.317 134.156 513.528 134.303 513.711C134.454 513.894 134.634 514.037 134.846 514.141C135.061 514.244 135.304 514.296 135.576 514.296C135.927 514.296 136.224 514.225 136.468 514.082C136.711 513.938 136.924 513.747 137.107 513.507L137.708 513.985C137.583 514.175 137.424 514.355 137.23 514.527C137.037 514.699 136.799 514.839 136.516 514.946C136.237 515.054 135.906 515.107 135.522 515.107ZM140.023 506.75V515H139.024V506.75H140.023ZM145.609 507.18V515H144.573V507.18H145.609ZM148.338 510.429V515H147.344V509.188H148.284L148.338 510.429ZM148.102 511.874L147.688 511.858C147.692 511.46 147.751 511.093 147.865 510.757C147.98 510.417 148.141 510.121 148.349 509.871C148.556 509.62 148.803 509.427 149.09 509.291C149.38 509.151 149.7 509.081 150.051 509.081C150.338 509.081 150.596 509.12 150.825 509.199C151.054 509.274 151.249 509.396 151.41 509.564C151.575 509.733 151.7 509.951 151.786 510.22C151.872 510.485 151.915 510.809 151.915 511.192V515H150.916V511.181C150.916 510.877 150.871 510.633 150.782 510.451C150.692 510.264 150.562 510.13 150.39 510.048C150.218 509.962 150.007 509.919 149.756 509.919C149.509 509.919 149.283 509.971 149.079 510.075C148.879 510.179 148.705 510.322 148.558 510.504C148.415 510.687 148.302 510.896 148.22 511.133C148.141 511.366 148.102 511.613 148.102 511.874ZM155.191 514.103L156.781 509.188H157.796L155.707 515H155.041L155.191 514.103ZM153.865 509.188L155.503 514.13L155.616 515H154.95L152.844 509.188H153.865ZM161.089 515.107C160.684 515.107 160.317 515.039 159.988 514.903C159.662 514.764 159.381 514.569 159.145 514.318C158.912 514.067 158.733 513.77 158.607 513.426C158.482 513.083 158.419 512.707 158.419 512.298V512.073C158.419 511.6 158.489 511.179 158.629 510.811C158.769 510.438 158.958 510.123 159.198 509.865C159.438 509.607 159.71 509.412 160.015 509.28C160.319 509.147 160.634 509.081 160.96 509.081C161.375 509.081 161.733 509.153 162.034 509.296C162.339 509.439 162.587 509.64 162.781 509.897C162.974 510.152 163.117 510.452 163.21 510.8C163.304 511.144 163.35 511.52 163.35 511.928V512.374H159.01V511.562H162.356V511.487C162.342 511.229 162.288 510.979 162.195 510.735C162.106 510.492 161.963 510.291 161.766 510.134C161.569 509.976 161.3 509.897 160.96 509.897C160.734 509.897 160.527 509.946 160.337 510.042C160.147 510.136 159.984 510.275 159.848 510.461C159.712 510.648 159.606 510.875 159.531 511.144C159.456 511.412 159.418 511.722 159.418 512.073V512.298C159.418 512.574 159.456 512.834 159.531 513.077C159.61 513.317 159.723 513.528 159.87 513.711C160.02 513.894 160.201 514.037 160.412 514.141C160.627 514.244 160.87 514.296 161.143 514.296C161.493 514.296 161.791 514.225 162.034 514.082C162.278 513.938 162.491 513.747 162.673 513.507L163.275 513.985C163.15 514.175 162.99 514.355 162.797 514.527C162.604 514.699 162.365 514.839 162.083 514.946C161.803 515.054 161.472 515.107 161.089 515.107ZM165.504 510.429V515H164.51V509.188H165.45L165.504 510.429ZM165.268 511.874L164.854 511.858C164.858 511.46 164.917 511.093 165.031 510.757C165.146 510.417 165.307 510.121 165.515 509.871C165.722 509.62 165.969 509.427 166.256 509.291C166.546 509.151 166.866 509.081 167.217 509.081C167.504 509.081 167.762 509.12 167.991 509.199C168.22 509.274 168.415 509.396 168.576 509.564C168.741 509.733 168.866 509.951 168.952 510.22C169.038 510.485 169.081 510.809 169.081 511.192V515H168.082V511.181C168.082 510.877 168.037 510.633 167.948 510.451C167.858 510.264 167.728 510.13 167.556 510.048C167.384 509.962 167.173 509.919 166.922 509.919C166.675 509.919 166.449 509.971 166.245 510.075C166.045 510.179 165.871 510.322 165.724 510.504C165.581 510.687 165.468 510.896 165.386 511.133C165.307 511.366 165.268 511.613 165.268 511.874ZM173.023 509.188V509.951H169.881V509.188H173.023ZM170.945 507.776H171.938V513.561C171.938 513.757 171.969 513.906 172.03 514.006C172.091 514.107 172.169 514.173 172.266 514.205C172.363 514.237 172.467 514.253 172.578 514.253C172.66 514.253 172.746 514.246 172.835 514.232C172.929 514.214 172.998 514.2 173.045 514.189L173.05 515C172.972 515.025 172.868 515.048 172.739 515.07C172.613 515.095 172.461 515.107 172.282 515.107C172.039 515.107 171.815 515.059 171.611 514.962C171.407 514.866 171.244 514.705 171.122 514.479C171.004 514.25 170.945 513.942 170.945 513.555V507.776ZM173.818 512.159V512.035C173.818 511.616 173.879 511.228 174.001 510.87C174.123 510.508 174.298 510.195 174.527 509.93C174.757 509.661 175.034 509.453 175.36 509.307C175.686 509.156 176.051 509.081 176.456 509.081C176.864 509.081 177.231 509.156 177.557 509.307C177.886 509.453 178.165 509.661 178.395 509.93C178.627 510.195 178.805 510.508 178.926 510.87C179.048 511.228 179.109 511.616 179.109 512.035V512.159C179.109 512.578 179.048 512.966 178.926 513.324C178.805 513.682 178.627 513.996 178.395 514.264C178.165 514.529 177.888 514.737 177.562 514.887C177.24 515.034 176.875 515.107 176.466 515.107C176.058 515.107 175.691 515.034 175.365 514.887C175.039 514.737 174.76 514.529 174.527 514.264C174.298 513.996 174.123 513.682 174.001 513.324C173.879 512.966 173.818 512.578 173.818 512.159ZM174.812 512.035V512.159C174.812 512.449 174.846 512.723 174.914 512.98C174.982 513.235 175.084 513.46 175.22 513.657C175.36 513.854 175.534 514.01 175.741 514.125C175.949 514.236 176.191 514.291 176.466 514.291C176.738 514.291 176.977 514.236 177.181 514.125C177.388 514.01 177.56 513.854 177.696 513.657C177.832 513.46 177.934 513.235 178.002 512.98C178.074 512.723 178.11 512.449 178.11 512.159V512.035C178.11 511.749 178.074 511.478 178.002 511.224C177.934 510.966 177.831 510.739 177.691 510.542C177.555 510.341 177.383 510.184 177.175 510.069C176.971 509.955 176.731 509.897 176.456 509.897C176.183 509.897 175.944 509.955 175.736 510.069C175.532 510.184 175.36 510.341 175.22 510.542C175.084 510.739 174.982 510.966 174.914 511.224C174.846 511.478 174.812 511.749 174.812 512.035ZM181.349 510.102V515H180.355V509.188H181.322L181.349 510.102ZM183.164 509.156L183.159 510.08C183.076 510.062 182.998 510.051 182.922 510.048C182.851 510.041 182.768 510.037 182.675 510.037C182.446 510.037 182.244 510.073 182.068 510.145C181.893 510.216 181.744 510.316 181.623 510.445C181.501 510.574 181.404 510.728 181.333 510.907C181.264 511.083 181.22 511.276 181.198 511.487L180.919 511.648C180.919 511.298 180.953 510.968 181.021 510.66C181.093 510.352 181.202 510.08 181.349 509.844C181.495 509.604 181.682 509.418 181.907 509.285C182.136 509.149 182.409 509.081 182.724 509.081C182.795 509.081 182.878 509.09 182.971 509.108C183.064 509.122 183.128 509.138 183.164 509.156ZM185.812 514.398L187.429 509.188H188.492L186.161 515.897C186.107 516.04 186.036 516.194 185.946 516.359C185.86 516.527 185.749 516.687 185.613 516.837C185.477 516.987 185.312 517.109 185.119 517.202C184.929 517.299 184.702 517.347 184.437 517.347C184.358 517.347 184.258 517.336 184.136 517.315C184.014 517.293 183.929 517.276 183.878 517.261L183.873 516.456C183.902 516.459 183.946 516.463 184.007 516.466C184.072 516.473 184.117 516.477 184.142 516.477C184.367 516.477 184.559 516.447 184.716 516.386C184.874 516.328 185.006 516.23 185.114 516.09C185.225 515.954 185.32 515.766 185.398 515.526L185.812 514.398ZM184.625 509.188L186.134 513.7L186.392 514.748L185.678 515.113L183.54 509.188H184.625Z" fill="#20336B"/>
<path d="M198.055 420.157V421H194.145V420.157H198.055ZM194.349 413.18V421H193.312V413.18H194.349ZM200.171 415.188V421H199.172V415.188H200.171ZM199.097 413.647C199.097 413.486 199.145 413.35 199.242 413.239C199.342 413.128 199.489 413.072 199.682 413.072C199.872 413.072 200.017 413.128 200.117 413.239C200.221 413.35 200.273 413.486 200.273 413.647C200.273 413.801 200.221 413.933 200.117 414.044C200.017 414.152 199.872 414.206 199.682 414.206C199.489 414.206 199.342 414.152 199.242 414.044C199.145 413.933 199.097 413.801 199.097 413.647ZM202.76 416.429V421H201.766V415.188H202.706L202.76 416.429ZM202.523 417.874L202.11 417.858C202.113 417.46 202.173 417.093 202.287 416.757C202.402 416.417 202.563 416.121 202.771 415.871C202.978 415.62 203.225 415.427 203.512 415.291C203.802 415.151 204.122 415.081 204.473 415.081C204.76 415.081 205.017 415.12 205.247 415.199C205.476 415.274 205.671 415.396 205.832 415.564C205.997 415.733 206.122 415.951 206.208 416.22C206.294 416.485 206.337 416.809 206.337 417.192V421H205.338V417.181C205.338 416.877 205.293 416.633 205.204 416.451C205.114 416.264 204.983 416.13 204.812 416.048C204.64 415.962 204.428 415.919 204.178 415.919C203.931 415.919 203.705 415.971 203.501 416.075C203.3 416.179 203.127 416.322 202.98 416.504C202.837 416.687 202.724 416.896 202.642 417.133C202.563 417.366 202.523 417.613 202.523 417.874ZM208.845 412.75V421H207.846V412.75H208.845ZM212.396 415.188L209.86 417.901L208.442 419.373L208.362 418.314L209.377 417.101L211.182 415.188H212.396ZM211.488 421L209.415 418.229L209.93 417.342L212.659 421H211.488ZM214.501 415.188V421H213.502V415.188H214.501ZM213.427 413.647C213.427 413.486 213.475 413.35 213.572 413.239C213.672 413.128 213.819 413.072 214.012 413.072C214.202 413.072 214.347 413.128 214.447 413.239C214.551 413.35 214.603 413.486 214.603 413.647C214.603 413.801 214.551 413.933 214.447 414.044C214.347 414.152 214.202 414.206 214.012 414.206C213.819 414.206 213.672 414.152 213.572 414.044C213.475 413.933 213.427 413.801 213.427 413.647ZM217.09 416.429V421H216.096V415.188H217.036L217.09 416.429ZM216.854 417.874L216.44 417.858C216.444 417.46 216.503 417.093 216.617 416.757C216.732 416.417 216.893 416.121 217.101 415.871C217.308 415.62 217.555 415.427 217.842 415.291C218.132 415.151 218.452 415.081 218.803 415.081C219.09 415.081 219.347 415.12 219.577 415.199C219.806 415.274 220.001 415.396 220.162 415.564C220.327 415.733 220.452 415.951 220.538 416.22C220.624 416.485 220.667 416.809 220.667 417.192V421H219.668V417.181C219.668 416.877 219.623 416.633 219.534 416.451C219.444 416.264 219.313 416.13 219.142 416.048C218.97 415.962 218.758 415.919 218.508 415.919C218.261 415.919 218.035 415.971 217.831 416.075C217.631 416.179 217.457 416.322 217.31 416.504C217.167 416.687 217.054 416.896 216.972 417.133C216.893 417.366 216.854 417.613 216.854 417.874ZM225.941 415.188H226.844V420.876C226.844 421.389 226.74 421.825 226.532 422.187C226.325 422.549 226.035 422.823 225.662 423.009C225.293 423.199 224.867 423.293 224.384 423.293C224.183 423.293 223.947 423.261 223.675 423.197C223.406 423.136 223.141 423.03 222.88 422.88C222.622 422.733 222.405 422.534 222.23 422.284L222.751 421.693C222.994 421.986 223.249 422.191 223.514 422.305C223.782 422.42 224.047 422.477 224.309 422.477C224.624 422.477 224.896 422.418 225.125 422.3C225.354 422.182 225.531 422.006 225.657 421.773C225.786 421.544 225.85 421.261 225.85 420.925V416.467L225.941 415.188ZM221.94 418.159V418.046C221.94 417.602 221.992 417.199 222.096 416.837C222.203 416.472 222.355 416.159 222.552 415.897C222.753 415.636 222.994 415.436 223.277 415.296C223.56 415.153 223.879 415.081 224.233 415.081C224.599 415.081 224.917 415.146 225.189 415.274C225.465 415.4 225.698 415.584 225.888 415.828C226.081 416.068 226.233 416.358 226.344 416.698C226.455 417.038 226.532 417.423 226.575 417.853V418.347C226.536 418.773 226.459 419.156 226.344 419.496C226.233 419.836 226.081 420.126 225.888 420.366C225.698 420.606 225.465 420.791 225.189 420.919C224.914 421.045 224.591 421.107 224.223 421.107C223.875 421.107 223.56 421.034 223.277 420.887C222.998 420.74 222.758 420.535 222.558 420.27C222.357 420.005 222.203 419.693 222.096 419.335C221.992 418.973 221.94 418.581 221.94 418.159ZM222.934 418.046V418.159C222.934 418.449 222.962 418.721 223.02 418.975C223.08 419.229 223.172 419.453 223.293 419.646C223.419 419.84 223.578 419.992 223.771 420.103C223.965 420.21 224.196 420.264 224.464 420.264C224.794 420.264 225.066 420.194 225.281 420.055C225.496 419.915 225.666 419.731 225.791 419.501C225.92 419.272 226.02 419.023 226.092 418.755V417.46C226.052 417.264 225.992 417.074 225.909 416.891C225.83 416.705 225.727 416.54 225.598 416.397C225.472 416.25 225.317 416.134 225.13 416.048C224.944 415.962 224.726 415.919 224.475 415.919C224.203 415.919 223.968 415.976 223.771 416.091C223.578 416.202 223.419 416.356 223.293 416.553C223.172 416.746 223.08 416.972 223.02 417.229C222.962 417.484 222.934 417.756 222.934 418.046Z" fill="#20336B"/>
<path d="M59.1152 183.18V191H58.0786V183.18H59.1152ZM61.8438 186.429V191H60.8501V185.188H61.79L61.8438 186.429ZM61.6074 187.874L61.1938 187.858C61.1974 187.46 61.2565 187.093 61.3711 186.757C61.4857 186.417 61.6468 186.121 61.8545 185.871C62.0622 185.62 62.3092 185.427 62.5957 185.291C62.8857 185.151 63.2062 185.081 63.5571 185.081C63.8436 185.081 64.1014 185.12 64.3306 185.199C64.5597 185.274 64.7549 185.396 64.916 185.564C65.0807 185.733 65.2061 185.951 65.292 186.22C65.3779 186.485 65.4209 186.809 65.4209 187.192V191H64.4219V187.181C64.4219 186.877 64.3771 186.633 64.2876 186.451C64.1981 186.264 64.0674 186.13 63.8955 186.048C63.7236 185.962 63.5124 185.919 63.2617 185.919C63.0146 185.919 62.7891 185.971 62.585 186.075C62.3844 186.179 62.2108 186.322 62.064 186.504C61.9207 186.687 61.8079 186.896 61.7256 187.133C61.6468 187.366 61.6074 187.613 61.6074 187.874ZM69.3633 185.188V185.951H66.2212V185.188H69.3633ZM67.2847 183.776H68.2783V189.561C68.2783 189.757 68.3088 189.906 68.3696 190.006C68.4305 190.107 68.5093 190.173 68.606 190.205C68.7026 190.237 68.8065 190.253 68.9175 190.253C68.9998 190.253 69.0858 190.246 69.1753 190.232C69.2684 190.214 69.3382 190.2 69.3848 190.189L69.3901 191C69.3114 191.025 69.2075 191.048 69.0786 191.07C68.9533 191.095 68.8011 191.107 68.6221 191.107C68.3786 191.107 68.1548 191.059 67.9507 190.962C67.7466 190.866 67.5837 190.705 67.4619 190.479C67.3438 190.25 67.2847 189.942 67.2847 189.555V183.776ZM72.9404 191.107C72.5358 191.107 72.1688 191.039 71.8394 190.903C71.5135 190.764 71.2324 190.569 70.9961 190.318C70.7633 190.067 70.5843 189.77 70.459 189.426C70.3337 189.083 70.271 188.707 70.271 188.298V188.073C70.271 187.6 70.3408 187.179 70.4805 186.811C70.6201 186.438 70.8099 186.123 71.0498 185.865C71.2897 185.607 71.5618 185.412 71.8662 185.28C72.1706 185.147 72.4857 185.081 72.8115 185.081C73.2269 185.081 73.585 185.153 73.8857 185.296C74.1901 185.439 74.439 185.64 74.6323 185.897C74.8257 186.152 74.9689 186.452 75.062 186.8C75.1551 187.144 75.2017 187.52 75.2017 187.928V188.374H70.8618V187.562H74.208V187.487C74.1937 187.229 74.14 186.979 74.0469 186.735C73.9574 186.492 73.8141 186.291 73.6172 186.134C73.4202 185.976 73.1517 185.897 72.8115 185.897C72.5859 185.897 72.3783 185.946 72.1885 186.042C71.9987 186.136 71.8358 186.275 71.6997 186.461C71.5636 186.648 71.458 186.875 71.3828 187.144C71.3076 187.412 71.27 187.722 71.27 188.073V188.298C71.27 188.574 71.3076 188.834 71.3828 189.077C71.4616 189.317 71.5744 189.528 71.7212 189.711C71.8716 189.894 72.0524 190.037 72.2637 190.141C72.4785 190.244 72.722 190.296 72.9941 190.296C73.3451 190.296 73.6423 190.225 73.8857 190.082C74.1292 189.938 74.3423 189.747 74.5249 189.507L75.1265 189.985C75.0011 190.175 74.8418 190.355 74.6484 190.527C74.4551 190.699 74.217 190.839 73.9341 190.946C73.6548 191.054 73.3236 191.107 72.9404 191.107ZM80.127 185.188H81.0293V190.876C81.0293 191.389 80.9255 191.825 80.7178 192.187C80.5101 192.549 80.2201 192.823 79.8477 193.009C79.4788 193.199 79.0527 193.293 78.5693 193.293C78.3688 193.293 78.1325 193.261 77.8604 193.197C77.5918 193.136 77.3268 193.03 77.0654 192.88C76.8076 192.733 76.591 192.534 76.4155 192.284L76.9365 191.693C77.18 191.986 77.4342 192.191 77.6992 192.305C77.9678 192.42 78.2327 192.477 78.4941 192.477C78.8092 192.477 79.0814 192.418 79.3105 192.3C79.5397 192.182 79.717 192.006 79.8423 191.773C79.9712 191.544 80.0356 191.261 80.0356 190.925V186.467L80.127 185.188ZM76.1255 188.159V188.046C76.1255 187.602 76.1774 187.199 76.2812 186.837C76.3887 186.472 76.5409 186.159 76.7378 185.897C76.9383 185.636 77.18 185.436 77.4629 185.296C77.7458 185.153 78.0645 185.081 78.4189 185.081C78.7842 185.081 79.1029 185.146 79.375 185.274C79.6507 185.4 79.8835 185.584 80.0732 185.828C80.2666 186.068 80.4188 186.358 80.5298 186.698C80.6408 187.038 80.7178 187.423 80.7607 187.853V188.347C80.7214 188.773 80.6444 189.156 80.5298 189.496C80.4188 189.836 80.2666 190.126 80.0732 190.366C79.8835 190.606 79.6507 190.791 79.375 190.919C79.0993 191.045 78.777 191.107 78.4082 191.107C78.0609 191.107 77.7458 191.034 77.4629 190.887C77.1836 190.74 76.9437 190.535 76.7432 190.27C76.5426 190.005 76.3887 189.693 76.2812 189.335C76.1774 188.973 76.1255 188.581 76.1255 188.159ZM77.1191 188.046V188.159C77.1191 188.449 77.1478 188.721 77.2051 188.975C77.266 189.229 77.3573 189.453 77.479 189.646C77.6043 189.84 77.7637 189.992 77.957 190.103C78.1504 190.21 78.3813 190.264 78.6499 190.264C78.9793 190.264 79.2515 190.194 79.4663 190.055C79.6812 189.915 79.8512 189.731 79.9766 189.501C80.1055 189.272 80.2057 189.023 80.2773 188.755V187.46C80.238 187.264 80.1771 187.074 80.0947 186.891C80.016 186.705 79.9121 186.54 79.7832 186.397C79.6579 186.25 79.5021 186.134 79.3159 186.048C79.1297 185.962 78.9113 185.919 78.6606 185.919C78.3885 185.919 78.154 185.976 77.957 186.091C77.7637 186.202 77.6043 186.356 77.479 186.553C77.3573 186.746 77.266 186.972 77.2051 187.229C77.1478 187.484 77.1191 187.756 77.1191 188.046ZM83.5322 186.102V191H82.5386V185.188H83.5054L83.5322 186.102ZM85.3477 185.156L85.3423 186.08C85.2599 186.062 85.1812 186.051 85.106 186.048C85.0343 186.041 84.952 186.037 84.8589 186.037C84.6297 186.037 84.4274 186.073 84.252 186.145C84.0765 186.216 83.9279 186.316 83.8062 186.445C83.6844 186.574 83.5877 186.728 83.5161 186.907C83.4481 187.083 83.4033 187.276 83.3818 187.487L83.1025 187.648C83.1025 187.298 83.1366 186.968 83.2046 186.66C83.2762 186.352 83.3854 186.08 83.5322 185.844C83.679 185.604 83.8652 185.418 84.0908 185.285C84.32 185.149 84.5921 185.081 84.9072 185.081C84.9788 185.081 85.0612 185.09 85.1543 185.108C85.2474 185.122 85.3118 185.138 85.3477 185.156ZM89.478 190.006V187.015C89.478 186.785 89.4315 186.587 89.3384 186.418C89.2489 186.247 89.1128 186.114 88.9302 186.021C88.7476 185.928 88.522 185.881 88.2534 185.881C88.0028 185.881 87.7826 185.924 87.5928 186.01C87.4066 186.096 87.2598 186.209 87.1523 186.349C87.0485 186.488 86.9966 186.639 86.9966 186.8H86.0029C86.0029 186.592 86.0566 186.386 86.1641 186.182C86.2715 185.978 86.4255 185.794 86.626 185.629C86.8301 185.461 87.0736 185.328 87.3564 185.231C87.6429 185.131 87.9616 185.081 88.3125 185.081C88.735 185.081 89.1074 185.153 89.4297 185.296C89.7555 185.439 90.0098 185.656 90.1924 185.946C90.3786 186.232 90.4717 186.592 90.4717 187.025V189.732C90.4717 189.926 90.4878 190.132 90.52 190.35C90.5558 190.569 90.6077 190.757 90.6758 190.914V191H89.6392C89.589 190.885 89.5496 190.733 89.521 190.543C89.4924 190.35 89.478 190.171 89.478 190.006ZM89.6499 187.477L89.6606 188.175H88.6562C88.3734 188.175 88.1209 188.198 87.8989 188.245C87.6769 188.288 87.4907 188.354 87.3403 188.443C87.1899 188.533 87.0754 188.646 86.9966 188.782C86.9178 188.914 86.8784 189.07 86.8784 189.249C86.8784 189.432 86.9196 189.598 87.002 189.749C87.0843 189.899 87.2078 190.019 87.3726 190.108C87.5409 190.194 87.7467 190.237 87.9902 190.237C88.2946 190.237 88.5632 190.173 88.7959 190.044C89.0286 189.915 89.2131 189.757 89.3491 189.571C89.4888 189.385 89.564 189.204 89.5747 189.029L89.999 189.507C89.974 189.657 89.9059 189.824 89.7949 190.006C89.6839 190.189 89.5353 190.364 89.3491 190.533C89.1665 190.697 88.9481 190.835 88.6938 190.946C88.4432 191.054 88.1603 191.107 87.8452 191.107C87.4513 191.107 87.1058 191.03 86.8086 190.876C86.515 190.722 86.2858 190.517 86.1211 190.259C85.96 189.997 85.8794 189.706 85.8794 189.383C85.8794 189.072 85.9403 188.798 86.062 188.562C86.1838 188.322 86.3592 188.123 86.5884 187.965C86.8175 187.804 87.0933 187.682 87.4155 187.6C87.7378 187.518 88.0977 187.477 88.4951 187.477H89.6499ZM94.4678 185.188V185.951H91.3257V185.188H94.4678ZM92.3892 183.776H93.3828V189.561C93.3828 189.757 93.4132 189.906 93.4741 190.006C93.535 190.107 93.6138 190.173 93.7104 190.205C93.8071 190.237 93.911 190.253 94.022 190.253C94.1043 190.253 94.1903 190.246 94.2798 190.232C94.3729 190.214 94.4427 190.2 94.4893 190.189L94.4946 191C94.4159 191.025 94.312 191.048 94.1831 191.07C94.0578 191.095 93.9056 191.107 93.7266 191.107C93.4831 191.107 93.2593 191.059 93.0552 190.962C92.8511 190.866 92.6882 190.705 92.5664 190.479C92.4482 190.25 92.3892 189.942 92.3892 189.555V183.776ZM96.7129 185.188V191H95.7139V185.188H96.7129ZM95.6387 183.647C95.6387 183.486 95.687 183.35 95.7837 183.239C95.884 183.128 96.0308 183.072 96.2241 183.072C96.4139 183.072 96.5589 183.128 96.6592 183.239C96.763 183.35 96.8149 183.486 96.8149 183.647C96.8149 183.801 96.763 183.933 96.6592 184.044C96.5589 184.152 96.4139 184.206 96.2241 184.206C96.0308 184.206 95.884 184.152 95.7837 184.044C95.687 183.933 95.6387 183.801 95.6387 183.647ZM98.0449 188.159V188.035C98.0449 187.616 98.1058 187.228 98.2275 186.87C98.3493 186.508 98.5247 186.195 98.7539 185.93C98.9831 185.661 99.2606 185.453 99.5864 185.307C99.9123 185.156 100.278 185.081 100.682 185.081C101.09 185.081 101.457 185.156 101.783 185.307C102.113 185.453 102.392 185.661 102.621 185.93C102.854 186.195 103.031 186.508 103.153 186.87C103.275 187.228 103.335 187.616 103.335 188.035V188.159C103.335 188.578 103.275 188.966 103.153 189.324C103.031 189.682 102.854 189.996 102.621 190.264C102.392 190.529 102.114 190.737 101.789 190.887C101.466 191.034 101.101 191.107 100.693 191.107C100.285 191.107 99.9176 191.034 99.5918 190.887C99.266 190.737 98.9867 190.529 98.7539 190.264C98.5247 189.996 98.3493 189.682 98.2275 189.324C98.1058 188.966 98.0449 188.578 98.0449 188.159ZM99.0386 188.035V188.159C99.0386 188.449 99.0726 188.723 99.1406 188.98C99.2087 189.235 99.3107 189.46 99.4468 189.657C99.5864 189.854 99.7601 190.01 99.9678 190.125C100.175 190.236 100.417 190.291 100.693 190.291C100.965 190.291 101.203 190.236 101.407 190.125C101.615 190.01 101.787 189.854 101.923 189.657C102.059 189.46 102.161 189.235 102.229 188.98C102.301 188.723 102.336 188.449 102.336 188.159V188.035C102.336 187.749 102.301 187.478 102.229 187.224C102.161 186.966 102.057 186.739 101.917 186.542C101.781 186.341 101.61 186.184 101.402 186.069C101.198 185.955 100.958 185.897 100.682 185.897C100.41 185.897 100.17 185.955 99.9624 186.069C99.7583 186.184 99.5864 186.341 99.4468 186.542C99.3107 186.739 99.2087 186.966 99.1406 187.224C99.0726 187.478 99.0386 187.749 99.0386 188.035ZM105.575 186.429V191H104.582V185.188H105.521L105.575 186.429ZM105.339 187.874L104.925 187.858C104.929 187.46 104.988 187.093 105.103 186.757C105.217 186.417 105.378 186.121 105.586 185.871C105.794 185.62 106.041 185.427 106.327 185.291C106.617 185.151 106.938 185.081 107.289 185.081C107.575 185.081 107.833 185.12 108.062 185.199C108.291 185.274 108.486 185.396 108.647 185.564C108.812 185.733 108.938 185.951 109.023 186.22C109.109 186.485 109.152 186.809 109.152 187.192V191H108.153V187.181C108.153 186.877 108.109 186.633 108.019 186.451C107.93 186.264 107.799 186.13 107.627 186.048C107.455 185.962 107.244 185.919 106.993 185.919C106.746 185.919 106.521 185.971 106.316 186.075C106.116 186.179 105.942 186.322 105.795 186.504C105.652 186.687 105.539 186.896 105.457 187.133C105.378 187.366 105.339 187.613 105.339 187.874Z" fill="#20336B"/>
<path d="M284.157 390.945L285 390.945L285 394.855L284.157 394.855L284.157 390.945ZM277.18 394.651L285 394.651L285 395.688L277.18 395.688L277.18 394.651ZM279.188 388.829L285 388.829L285 389.828L279.188 389.828L279.188 388.829ZM277.647 389.903C277.486 389.903 277.35 389.855 277.239 389.758C277.128 389.658 277.072 389.511 277.072 389.318C277.072 389.128 277.128 388.983 277.239 388.883C277.35 388.779 277.486 388.727 277.647 388.727C277.801 388.727 277.933 388.779 278.044 388.883C278.152 388.983 278.206 389.128 278.206 389.318C278.206 389.511 278.152 389.658 278.044 389.758C277.933 389.855 277.801 389.903 277.647 389.903ZM280.429 386.24L285 386.24L285 387.234L279.188 387.234L279.188 386.294L280.429 386.24ZM281.874 386.477L281.858 386.89C281.46 386.887 281.093 386.827 280.757 386.713C280.417 386.598 280.121 386.437 279.871 386.229C279.62 386.022 279.427 385.775 279.291 385.488C279.151 385.198 279.081 384.878 279.081 384.527C279.081 384.24 279.12 383.983 279.199 383.753C279.274 383.524 279.396 383.329 279.564 383.168C279.733 383.003 279.951 382.878 280.22 382.792C280.485 382.706 280.809 382.663 281.192 382.663L285 382.663L285 383.662L281.181 383.662C280.877 383.662 280.633 383.707 280.451 383.796C280.264 383.886 280.13 384.017 280.048 384.188C279.962 384.36 279.919 384.572 279.919 384.822C279.919 385.069 279.971 385.295 280.075 385.499C280.179 385.7 280.322 385.873 280.504 386.02C280.687 386.163 280.896 386.276 281.133 386.358C281.366 386.437 281.613 386.477 281.874 386.477ZM276.75 380.155L285 380.155L285 381.154L276.75 381.154L276.75 380.155ZM279.188 376.604L281.901 379.14L283.373 380.558L282.314 380.638L281.101 379.623L279.188 377.818L279.188 376.604ZM285 377.512L282.229 379.585L281.342 379.07L285 376.341L285 377.512ZM279.188 374.499L285 374.499L285 375.498L279.188 375.498L279.188 374.499ZM277.647 375.573C277.486 375.573 277.35 375.525 277.239 375.428C277.128 375.328 277.072 375.181 277.072 374.988C277.072 374.798 277.128 374.653 277.239 374.553C277.35 374.449 277.486 374.397 277.647 374.397C277.801 374.397 277.933 374.449 278.044 374.553C278.152 374.653 278.206 374.798 278.206 374.988C278.206 375.181 278.152 375.328 278.044 375.428C277.933 375.525 277.801 375.573 277.647 375.573ZM280.429 371.91L285 371.91L285 372.904L279.188 372.904L279.188 371.964L280.429 371.91ZM281.874 372.146L281.858 372.56C281.46 372.556 281.093 372.497 280.757 372.383C280.417 372.268 280.121 372.107 279.871 371.899C279.62 371.692 279.427 371.445 279.291 371.158C279.151 370.868 279.081 370.548 279.081 370.197C279.081 369.91 279.12 369.653 279.199 369.423C279.274 369.194 279.396 368.999 279.564 368.838C279.733 368.673 279.951 368.548 280.22 368.462C280.485 368.376 280.809 368.333 281.192 368.333L285 368.333L285 369.332L281.181 369.332C280.877 369.332 280.633 369.377 280.451 369.466C280.264 369.556 280.13 369.687 280.048 369.858C279.962 370.03 279.919 370.242 279.919 370.492C279.919 370.739 279.971 370.965 280.075 371.169C280.179 371.369 280.322 371.543 280.504 371.69C280.687 371.833 280.896 371.946 281.133 372.028C281.366 372.107 281.613 372.146 281.874 372.146ZM279.188 363.059L279.188 362.156L284.876 362.156C285.389 362.156 285.825 362.26 286.187 362.468C286.549 362.675 286.823 362.965 287.009 363.338C287.199 363.707 287.293 364.133 287.293 364.616C287.293 364.817 287.261 365.053 287.197 365.325C287.136 365.594 287.03 365.859 286.88 366.12C286.733 366.378 286.534 366.595 286.284 366.77L285.693 366.249C285.986 366.006 286.191 365.751 286.305 365.486C286.42 365.218 286.477 364.953 286.477 364.691C286.477 364.376 286.418 364.104 286.3 363.875C286.182 363.646 286.006 363.469 285.773 363.343C285.544 363.214 285.261 363.15 284.925 363.15L280.467 363.15L279.188 363.059ZM282.159 367.06L282.046 367.06C281.602 367.06 281.199 367.008 280.837 366.904C280.472 366.797 280.159 366.645 279.897 366.448C279.636 366.247 279.436 366.006 279.296 365.723C279.153 365.44 279.081 365.121 279.081 364.767C279.081 364.401 279.146 364.083 279.274 363.811C279.4 363.535 279.584 363.302 279.828 363.112C280.068 362.919 280.358 362.767 280.698 362.656C281.038 362.545 281.423 362.468 281.853 362.425L282.347 362.425C282.773 362.464 283.156 362.541 283.496 362.656C283.836 362.767 284.126 362.919 284.366 363.112C284.606 363.302 284.791 363.535 284.919 363.811C285.045 364.086 285.107 364.409 285.107 364.777C285.107 365.125 285.034 365.44 284.887 365.723C284.74 366.002 284.535 366.242 284.27 366.442C284.005 366.643 283.693 366.797 283.335 366.904C282.973 367.008 282.581 367.06 282.159 367.06ZM282.046 366.066L282.159 366.066C282.449 366.066 282.721 366.038 282.975 365.98C283.229 365.92 283.453 365.828 283.646 365.707C283.84 365.581 283.992 365.422 284.103 365.229C284.21 365.035 284.264 364.804 284.264 364.536C284.264 364.206 284.194 363.934 284.055 363.719C283.915 363.504 283.731 363.334 283.501 363.209C283.272 363.08 283.023 362.98 282.755 362.908L281.46 362.908C281.264 362.948 281.074 363.008 280.891 363.091C280.705 363.17 280.54 363.273 280.397 363.402C280.25 363.528 280.134 363.683 280.048 363.87C279.962 364.056 279.919 364.274 279.919 364.525C279.919 364.797 279.976 365.032 280.091 365.229C280.202 365.422 280.356 365.581 280.553 365.707C280.746 365.828 280.972 365.92 281.229 365.98C281.484 366.038 281.756 366.066 282.046 366.066Z" fill="#20336B"/>
<path d="M239.5 497H54.5005C44.5012 497 29.0998 483.5 29.4998 463.5C29.8998 443.5 29.6672 352.167 29.5005 309" stroke="#B22334"/>
<path d="M48.0033 309V446.404C47.8476 457.593 53.1412 479.972 82.0957 479.972C109.648 479.972 189.188 479.524 239 479.524" stroke="#4ABCEB"/>
</svg>
