<svg width="63" height="34" viewBox="0 0 63 34" fill="none" xmlns="http://www.w3.org/2000/svg">
<path d="M19.0749 17.934C12.9173 17.934 6.75959 17.934 0.601886 17.9367C0.600048 13.4214 0.600001 8.90615 0.6 4.39078C1.53093 4.3908 2.46191 4.39086 3.39294 4.39093C8.62117 4.3913 13.8507 4.39167 19.0788 4.38277C19.0799 4.40705 19.0804 4.43524 19.0804 4.46824C19.0725 7.92907 19.0732 11.39 19.0739 14.8492C19.0741 15.8375 19.0743 16.8256 19.0743 17.8136C19.0743 17.8576 19.0746 17.898 19.0749 17.934Z" stroke="#223872" stroke-width="0.7"/>
<path d="M20.6198 8.72716C22.4521 8.74519 24.2857 8.73984 26.1155 8.72924C26.1236 8.7467 26.1336 8.77177 26.1456 8.80757C26.7307 10.5641 27.3279 12.3151 27.9247 14.0621C27.9671 14.1882 27.9856 14.3183 27.9856 14.4706C27.9815 16.8096 27.9795 19.1495 27.9917 21.4898L27.9917 21.4905C27.9917 21.4916 27.9917 21.4928 27.9917 21.4938C27.4902 21.485 26.9791 21.4855 26.4719 21.4859C26.062 21.4863 25.6547 21.4866 25.257 21.4821L25.2538 21.482C25.1801 21.4807 24.9562 21.4767 24.8109 21.6636C24.7422 21.7519 24.7194 21.8485 24.7106 21.9184C24.7017 21.9886 24.7035 22.062 24.7082 22.13C24.7965 23.4316 24.0614 24.5588 23.1921 24.7809L23.1916 24.781C22.393 24.9861 21.4543 24.3672 21.1513 23.1439C21.0592 22.7664 21.0046 22.4142 21.0413 22.0619L21.0414 22.0612C21.0494 21.9828 21.0513 21.8877 21.0231 21.7943C20.9896 21.6838 20.9138 21.5796 20.7897 21.5239C20.6898 21.479 20.5953 21.4842 20.5633 21.486C20.5451 21.4871 20.5236 21.4891 20.5183 21.4896C20.5146 21.4899 20.5124 21.4901 20.5113 21.4901H20.5106H20.5072H20.5039H20.5006H20.4973H20.494H20.4907H20.4873H20.484H20.4807H20.4774H20.4741H20.4707H20.4674H20.4641H20.4608H20.4575H20.4541H20.4508H20.4475H20.4442H20.4409H20.4376H20.4342H20.4309H20.4276H20.4243H20.421H20.4176H20.4143H20.411H20.4077H20.4044H20.401H20.3977H20.3944H20.3911H20.3878H20.3845H20.3811H20.3778H20.3745H20.3712H20.3679H20.3645H20.3612H20.3579H20.3546H20.3513H20.3479H20.3446H20.3413H20.338H20.3347H20.3314H20.328H20.3247H20.3214H20.3181H20.3148H20.3114H20.3081H20.3048H20.3015H20.2982H20.2948H20.2915H20.2882H20.2849H20.2816H20.2783H20.2749H20.2716H20.2683H20.265H20.2617H20.2583H20.255H20.2517H20.2484H20.2451H20.2417H20.2384H20.2351H20.2318H20.2285H20.2252H20.2218H20.2185H20.2152H20.2119H20.2086H20.2052H20.2019H20.1986H20.1953H20.192H20.1886H20.1853H20.182H20.1787H20.1754H20.1721H20.1687H20.1654H20.1621H20.1588H20.1555H20.1521H20.1488H20.1455H20.1422H20.1389H20.1355H20.1322H20.1289H20.1256H20.1223H20.1189H20.1156H20.1123H20.109H20.1057H20.1024H20.099H20.0957H20.0924H20.0891H20.0858H20.0824H20.0791H20.0758H20.0725H20.0692H20.0658H20.0625H20.0592H20.0559H20.0526H20.0493H20.0459H20.0426H20.0393H20.036H20.0327H20.0293H20.026H20.0227H20.0194H20.0161H20.0127H20.0094H20.0061H20.0028H19.9995H19.9962H19.9928H19.9895H19.9862H19.9829H19.9796H19.9762H19.9729H19.9696H19.9663H19.963H19.9596H19.9563H19.953H19.9497H19.9464H19.9431H19.9397H19.9364H19.9331H19.9298H19.9265H19.9231H19.9198H19.9165H19.9132H19.9099H19.9065H19.9032H19.8999H19.8966H19.8933H19.89H19.8866H19.8833H19.88H19.8767H19.8734H19.87H19.8667H19.8634H19.8601H19.8568H19.8534H19.8501H19.8468H19.8435H19.8402H19.8369H19.8335H19.8302H19.8269H19.8236H19.8203H19.8169H19.8136H19.8103H19.807H19.8037H19.8003H19.797H19.7937H19.7904H19.7871H19.7838H19.7804H19.7771H19.7738H19.7705H19.7672H19.7638H19.7605H19.7572H19.7539H19.7506H19.7472H19.7439H19.7406H19.7373H19.734H19.7307H19.7273H19.724H19.7207H19.7174H19.7141H19.7107H19.7074H19.7041H19.7008H19.6975H19.6941H19.6908H19.6875H19.6842H19.6809H19.6776H19.6742H19.6709H19.6676H19.6643H19.661H19.6576H19.6543H19.651H19.6477H19.6444H19.641H19.6377H19.6344H19.6311H19.6278H19.6245H19.6211H19.6178H19.6145H19.6112H19.6079H19.6045H19.6012H19.5979H19.5946H19.5913H19.5879H19.5846H19.5813H19.578H19.5747H19.5714H19.568H19.5647H19.5614H19.5581H19.5548H19.5514H19.5481H19.5448H19.5415H19.5382H19.5348H19.5315H19.5282H19.5249H19.5216H19.5182H19.5149H19.5116H19.5083H19.505H19.5017H19.4983H19.495H19.4917H19.4884H19.4851H19.4817H19.4784H19.4751H19.4718H19.4685H19.4651H19.4618H19.4585H19.4552H19.4519H19.4486H19.4452H19.4419H19.4386H19.4353H19.432H19.4286H19.4253H19.422H19.4187H19.4154H19.412H19.4087H19.4054H19.4021H19.3988H19.3955H19.3921H19.3888H19.3855H19.3822H19.3789H19.3755H19.3722H19.3689H19.3656H19.3623H19.3589H19.3556H19.3523H19.349H19.3457H19.3424H19.339H19.3357H19.3324H19.3291H19.3258H19.3224H19.3191H19.3158H19.3125H19.3092H19.3058H19.3025H19.2992H19.2959H19.2926H19.2893H19.2859H19.2826H19.2793H19.276H19.2727H19.2693H19.266H19.2627H19.2594H19.2561H19.2527H19.2494H19.2461H19.2428H19.2395H19.2362H19.2328H19.2295H19.2262H19.2229H19.2196H19.2162H19.2129H19.2096H19.2063H19.203H19.1996H19.1963H19.193H19.1897H19.1864H19.1831H19.1797H19.1764H19.1731H19.1698H19.1665H19.1631H19.1598H19.1565H19.1532H19.1499H19.1465H19.1432H19.1399H19.1366H19.1333H19.1299H19.1266H19.1233H19.12H19.1167H19.1134H19.11H19.1067H19.1034H19.1001H19.0968H19.0934H19.0901H19.0868H19.0835H19.0802H19.0768H19.0735H19.0702H19.0669H19.0636H19.0603H19.0569H19.0536H19.0503H19.047H19.0437H19.0403H19.037H19.0337H19.0304H19.0271H19.0237H19.0204H19.0171H19.0138H19.0105H19.0072H19.0038H19.0005H18.9972H18.9939H18.9906H18.9872H18.9839H18.9806H18.9773H18.974H18.9706H18.9673H18.964H18.9607H18.9574H18.9541H18.9507H18.9474H18.9441H18.9408H18.9375H18.9341H18.9308H18.9275H18.9242H18.9209H18.9175H18.9142H18.9109H18.9076H18.9043H18.901H18.8976H18.8943H18.891H18.8877H18.8844H18.881H18.8777H18.8744H18.8711H18.8678H18.8644H18.8611H18.8578H18.8545H18.8512H18.8479H18.8445H18.8412H18.8379H18.8346H18.8313H18.8279H18.8246H18.8213H18.818H18.8147C18.537 21.4901 18.2602 21.4909 17.984 21.4917C17.228 21.4938 16.4762 21.4959 15.723 21.4821C15.7227 21.4821 15.7224 21.4821 15.7221 21.4821L20.6198 8.72716ZM20.6198 8.72716C20.6195 8.74309 20.6194 8.76052 20.6194 8.77973C20.623 10.2871 20.6234 11.7932 20.6238 13.2988C20.6243 15.1803 20.6248 17.0612 20.6316 18.9434L20.6316 18.9447C20.6316 19.0361 20.6271 19.1275 20.6107 19.2115C20.5941 19.2961 20.561 19.3972 20.486 19.4863C20.3258 19.6766 20.0913 19.6792 19.9821 19.6792H19.9808C17.6064 19.6702 15.2306 19.6706 12.8549 19.6709C12.3796 19.671 11.9043 19.6711 11.429 19.6711C10.7936 19.6711 10.1582 19.6714 9.52264 19.6716C7.31732 19.6725 5.11097 19.6735 2.90481 19.6633C2.90497 19.6752 2.90527 19.6881 2.90573 19.702L2.90576 19.7029C2.92399 20.3016 2.92033 20.8985 2.9086 21.4918C3.13407 21.4861 3.35768 21.4863 3.57702 21.4871C3.60842 21.4872 3.63972 21.4874 3.67093 21.4875C3.90047 21.4885 4.12496 21.4895 4.3498 21.4848L4.35042 21.4848C4.42632 21.4834 4.63983 21.4827 4.78016 21.6661C4.84411 21.7497 4.86673 21.84 4.87546 21.9074C4.88408 21.974 4.88197 22.0414 4.87708 22.1015C4.87705 22.1019 4.87702 22.1022 4.87699 22.1026L20.6198 8.72716ZM8.54868 22.1052C8.54652 22.0477 8.54577 21.9839 8.55243 21.9232C8.5589 21.8643 8.57547 21.7746 8.63261 21.6885C8.7706 21.4807 9.00301 21.4835 9.07968 21.4848L9.08033 21.4848C9.64678 21.4956 10.2042 21.5034 10.7596 21.4823L10.7644 21.4821L10.7644 21.4822C10.7667 21.4821 10.769 21.4821 10.7715 21.482C10.8679 21.4795 11.1014 21.4736 11.2658 21.6534C11.3476 21.7429 11.3839 21.8475 11.4016 21.9356C11.4193 22.0229 11.4235 22.1184 11.4224 22.2153L11.4224 22.2157C11.4092 23.2271 11.7311 23.9809 12.3385 24.4678L8.54868 22.1052ZM8.54868 22.1052C8.54867 22.105 8.54866 22.1047 8.54866 22.1045L8.89846 22.0928L8.54871 22.1061C8.5487 22.1058 8.54869 22.1055 8.54868 22.1052ZM6.71217 23.7252L6.71022 23.7252C5.96621 23.7295 5.50597 22.9928 5.49642 22.2724L6.71217 23.7252ZM6.71217 23.7252C7.46595 23.7167 7.89998 22.9713 7.89764 22.245V22.2449C7.89638 21.868 7.77325 21.5105 7.5692 21.2417C7.36719 20.9756 7.05835 20.7658 6.68775 20.7724L6.68769 20.7724M6.71217 23.7252L6.68769 20.7724M6.68769 20.7724C6.31973 20.779 6.01488 21.0008 5.81705 21.2678M6.68769 20.7724L5.81705 21.2678M13.2464 23.7252H13.2444C12.4915 23.721 12.0569 22.9798 12.0569 22.2515C12.0569 21.8733 12.1769 21.515 12.3796 21.2449C12.5807 20.977 12.8883 20.768 13.2586 20.7723C13.2586 20.7723 13.2586 20.7723 13.2586 20.7723L13.2545 21.1223L13.2464 23.7252ZM13.2464 23.7252C14.0041 23.7252 14.4372 22.9969 14.4419 22.2672L13.2464 23.7252ZM21.6736 22.264C21.6762 22.9926 22.1244 23.7252 22.8753 23.7252L22.8773 23.7252C23.2451 23.7231 23.5521 23.5249 23.7559 23.2552C23.9593 22.9859 24.0748 22.6301 24.0749 22.2521M21.6736 22.264C21.6712 21.8873 21.7905 21.5289 21.9913 21.2573C22.1901 20.9886 22.495 20.7749 22.864 20.7723M21.6736 22.264C21.6736 22.2642 21.6736 22.2644 21.6736 22.2646L22.0236 22.2622L21.6736 22.2634C21.6736 22.2636 21.6736 22.2638 21.6736 22.264ZM22.864 20.7723C23.2348 20.7683 23.5439 20.9843 23.7452 21.2495C23.9496 21.5187 24.076 21.8769 24.0749 22.2521M22.864 20.7723C22.8637 20.7723 22.8633 20.7723 22.863 20.7723L22.8671 21.1223L22.8651 20.7723C22.8647 20.7723 22.8644 20.7723 22.864 20.7723ZM24.0749 22.2521C24.0749 22.2519 24.0749 22.2517 24.0749 22.2515H23.7249L24.0749 22.2527C24.0749 22.2525 24.0749 22.2523 24.0749 22.2521ZM21.6732 10.3471L21.3232 10.3515C21.3319 11.0553 21.3303 11.7565 21.3286 12.4613C21.3279 12.7443 21.3273 13.0279 21.3273 13.3125V13.3274C21.3273 13.5115 21.3272 13.6716 21.3378 13.7971C21.3479 13.9172 21.3712 14.0787 21.4723 14.2126C21.5893 14.3675 21.7526 14.4158 21.8773 14.4341C21.9869 14.4503 22.1211 14.4502 22.2523 14.4502L22.2722 14.4502H22.6222V14.4475H26.9501H27.4359L27.2821 13.9867C26.838 12.6559 26.4144 11.3848 25.9949 10.1138L25.9945 10.1127C25.9372 9.94079 25.8294 9.79721 25.6536 9.72806C25.5335 9.68079 25.4006 9.68396 25.3546 9.68506C25.3495 9.68518 25.3454 9.68527 25.3426 9.68527C25.0299 9.68527 24.7179 9.68587 24.4061 9.68648C23.5771 9.68807 22.7505 9.68967 21.9218 9.67992V9.6799H21.9177C21.8108 9.6799 21.5971 9.69017 21.4504 9.872C21.3252 10.0272 21.3213 10.2273 21.3232 10.3527L21.6732 10.3471ZM21.6732 10.3471C21.6691 10.089 21.7282 10.0299 21.9177 10.0299L22.2722 14.1002H21.9222V14.0975V14.0869C21.8572 14.0767 21.8095 14.0587 21.7744 14.0268C21.6773 13.9383 21.6773 13.7431 21.6773 13.3125C21.6773 13.0297 21.6779 12.7472 21.6786 12.4648C21.6803 11.759 21.6819 11.0537 21.6732 10.3471ZM13.247 24.8403C13.5273 24.842 13.8303 24.7357 14.1564 24.4795L13.247 24.8403ZM13.247 24.8403C12.9665 24.8385 12.6636 24.7282 12.3385 24.4678L13.247 24.8403ZM5.81705 21.2678C5.61587 21.5393 5.49131 21.8981 5.49641 22.2722L5.81705 21.2678ZM25.253 21.8321C25.6622 21.8367 26.0715 21.8363 26.4808 21.8359C27.0128 21.8354 27.5448 21.8349 28.0769 21.8455L25.253 21.8321ZM2.91018 19.559C2.91019 19.5591 2.91011 19.5594 2.90992 19.5601L2.91018 19.559ZM2.91128 21.6287C2.91127 21.6287 2.91116 21.6283 2.91098 21.6274L2.91128 21.6287ZM27.9852 21.6129C27.9852 21.6129 27.9853 21.6124 27.9855 21.6117L27.9852 21.6129Z" stroke="#223872" stroke-width="0.7"/>
<path d="M48.8369 5.28857L32.293 17.0235H48.8369H53.0178" stroke="#3FAFE9" stroke-miterlimit="10" stroke-linecap="round" stroke-linejoin="round"/>
<path d="M32.293 17.0225L48.837 29.3301" stroke="#3FAFE9" stroke-miterlimit="10" stroke-linecap="round" stroke-linejoin="round"/>
<path d="M53.1721 3.62863L53.1724 3.62842C53.8238 3.0487 54.4779 2.47276 55.132 1.89692C55.2604 1.78382 55.3889 1.67072 55.5173 1.55759C55.792 1.80052 56.0665 2.04253 56.3407 2.28433C56.8478 2.73152 57.3541 3.17802 57.8601 3.62827C58.0204 3.77119 58.1146 3.9887 58.1146 4.30196V4.30771V4.31346V4.31921V4.32496V4.33071V4.33646V4.34221V4.34796V4.35371V4.35946V4.36521V4.37096V4.37671V4.38246V4.38821V4.39396V4.39971V4.40546V4.41121V4.41696V4.42271V4.42846V4.43421V4.43996V4.44571V4.45145V4.4572V4.46295V4.4687V4.47445V4.4802V4.48595V4.4917V4.49745V4.5032V4.50895V4.5147V4.52045V4.5262V4.53195V4.5377V4.54345V4.5492V4.55495V4.5607V4.56645V4.5722V4.57795V4.5837V4.58945V4.5952V4.60095V4.6067V4.61245V4.61819V4.62394V4.62969V4.63544V4.64119V4.64694V4.65269V4.65844V4.66419V4.66994V4.67569V4.68144V4.68719V4.69294V4.69869V4.70444V4.71019V4.71594V4.72169V4.72744V4.73319V4.73894V4.74469V4.75044V4.75619V4.76194V4.76769V4.77344V4.77918V4.78493V4.79068V4.79643V4.80218V4.80793V4.81368V4.81943V4.82518V4.83093V4.83668V4.84243V4.84818V4.85393V4.85968V4.86543V4.87118V4.87693V4.88268V4.88843V4.89418V4.89993V4.90568V4.91143V4.91718V4.92293V4.92868V4.93443V4.94017V4.94592V4.95167V4.95742V4.96317V4.96892V4.97467V4.98042V4.98617V4.99192V4.99767V5.00342V5.00917V5.01492V5.02067V5.02642V5.03217V5.03792V5.04367V5.04942V5.05517V5.06092V5.06667V5.07242V5.07817V5.08392V5.08967V5.09542V5.10116V5.10691V5.11266V5.11841V5.12416V5.12991V5.13566V5.14141V5.14716V5.15291V5.15866V5.16441V5.17016V5.17591V5.18166V5.18741V5.19316V5.19891V5.20466V5.21041V5.21616V5.22191V5.22766V5.23341V5.23916V5.24491V5.25066V5.25641V5.26215V5.2679V5.27365V5.2794V5.28515V5.2909V5.29665V5.3024V5.30815V5.3139V5.31965V5.3254V5.33115V5.3369V5.34265V5.3484V5.35415V5.3599V5.36565V5.3714V5.37715V5.3829V5.38865V5.3944V5.40015V5.4059V5.41165V5.4174V5.42314V5.42889V5.43464V5.44039V5.44614V5.45189V5.45764V5.46339V5.46914V5.47489V5.48064V5.48639V5.49214V5.49789V5.50364V5.50939V5.51514V5.52089V5.52664V5.53239V5.53814V5.54389V5.54964V5.55539V5.56114V5.56689V5.57264V5.57839V5.58413V5.58988V5.59563V5.60138V5.60713V5.61288V5.61863V5.62438V5.63013V5.63588V5.64163V5.64738V5.65313V5.65888V5.66463V5.67038V5.67613V5.68188V5.68763V5.69338V5.69913V5.70488V5.71063V5.71638V5.72213V5.72788V5.73363V5.73938V5.74512V5.75087V5.75662V5.76237V5.76812V5.77387V5.77962V5.78537V5.79112V5.79687V5.80262V5.80837V5.81412V5.81987V5.82562V5.83137V5.83712V5.84287V5.84862V5.85437V5.86012V5.86587V5.87162V5.87737V5.88312V5.88887V5.89462V5.90036V5.90611V5.91186V5.91761V5.92336V5.92911V5.93486V5.94061V5.94636V5.95211V5.95786V5.96361V5.96936V5.97511V5.98086V5.98661V5.99236V5.99811V6.00386V6.00961V6.01536V6.02111V6.02686V6.03261V6.03836V6.04411V6.04986V6.05561V6.06136V6.0671V6.07285V6.0786V6.08435V6.0901V6.09585V6.1016V6.10735V6.1131V6.11885V6.1246V6.13035V6.1361V6.14185V6.1476V6.15335V6.1591V6.16485V6.1706V6.17635V6.1821V6.18785V6.1936V6.19935V6.2051V6.21085V6.2166V6.22234V6.22809V6.23384V6.23959V6.24534V6.25109V6.25684V6.26259V6.26834V6.27409V6.27984V6.28559V6.29134V6.29709V6.30284V6.30859V6.31434V6.32009V6.32584V6.33159V6.33734V6.34309V6.34884V6.35459V6.36034V6.36609V6.37184V6.37759V6.38333V6.38908V6.39483V6.40058V6.40633V6.41208V6.41783V6.42358V6.42933V6.43508V6.44083V6.44658V6.45233V6.45808V6.46383V6.46958V6.47533V6.48108V6.48683V6.49258V6.49833V6.50408V6.50983V6.51558V6.52133V6.52708V6.53283V6.53858V6.54432V6.55007V6.55582V6.56157V6.56732V6.57307V6.57882V6.58457V6.59032V6.59607V6.60182V6.60757V6.61332V6.61907V6.62482V6.63057V6.63632V6.64207V6.64782V6.65357V6.65932V6.66507V6.67082V6.67657V6.68232V6.68807V6.69382V6.69957V6.70532V6.71106V6.71681V6.72256V6.72831V6.73406V6.73981V6.74556V6.75131V6.75706V6.76281V6.76856V6.77431V6.78006V6.78581V6.79156V6.79731V6.80306V6.80881V6.81456V6.82031V6.82606V6.83181V6.83756V6.84331V6.84906V6.85481V6.86056V6.8663V6.87205V6.8778V6.88355V6.8893V6.89505V6.9008V6.90655V6.9123V6.91805V6.9238V6.92955V6.9353V6.94105V6.9468V6.95255V6.9583V6.96405V6.9698V6.97555V6.9813V6.98705V6.9928V6.99855V7.0043V7.01005V7.0158V7.02155V7.0273V7.03304V7.03879V7.04454V7.05029V7.05604V7.06179V7.06754V7.07329V7.07904V7.08479V7.09054V7.09629V7.10204V7.10779V7.11354V7.11929V7.12504V7.13079V7.13654V7.14229V7.14804V7.15379V7.15954V7.16529V7.17104V7.17679V7.18254V7.18829V7.19404V7.19978V7.20553V7.21128V7.21703V7.22278V7.22853V7.23428V7.24003V7.24578C58.1146 7.78066 57.8307 8.045 57.5712 8.04696C57.4933 8.04696 57.4149 8.04679 57.3362 8.04662C57.1598 8.04625 56.9818 8.04587 56.8038 8.04734C56.8054 7.45956 56.8052 6.86993 56.8034 6.28254L56.8034 6.28232C56.8011 5.71363 56.5386 5.19447 56.0441 5.02343C56.0021 5.00813 55.9345 4.98585 55.8558 4.98488C55.8189 4.98357 55.78 4.98164 55.7395 4.97963C55.5511 4.9703 55.3273 4.95921 55.1098 4.99985L55.1096 4.99988C54.5443 5.1059 54.2356 5.66797 54.2333 6.27432L54.2333 6.27447C54.2314 6.8659 54.2313 7.4576 54.2345 8.04949C53.9808 8.04553 53.7228 8.0435 53.4641 8.05248L53.4636 8.0525C53.3439 8.05687 53.2114 7.99385 53.1004 7.84703C52.9897 7.70077 52.9149 7.48647 52.92 7.24288L52.92 7.24084C52.9239 6.92745 52.922 6.61241 52.9201 6.30053C52.919 6.12413 52.918 5.94873 52.918 5.77521V5.77232V5.76942V5.76652V5.76362V5.76072V5.75782V5.75493V5.75203V5.74913V5.74623V5.74333V5.74043V5.73753V5.73464V5.73174V5.72884V5.72594V5.72304V5.72014V5.71725V5.71435V5.71145V5.70855V5.70565V5.70275V5.69985V5.69696V5.69406V5.69116V5.68826V5.68536V5.68246V5.67957V5.67667V5.67377V5.67087V5.66797V5.66507V5.66217V5.65928V5.65638V5.65348V5.65058V5.64768V5.64478V5.64189V5.63899V5.63609V5.63319V5.63029V5.62739V5.62449V5.6216V5.6187V5.6158V5.6129V5.61V5.6071V5.60421V5.60131V5.59841V5.59551V5.59261V5.58971V5.58681V5.58392V5.58102V5.57812V5.57522V5.57232V5.56942V5.56653V5.56363V5.56073V5.55783V5.55493V5.55203V5.54913V5.54624V5.54334V5.54044V5.53754V5.53464V5.53174V5.52885V5.52595V5.52305V5.52015V5.51725V5.51435V5.51146V5.50856V5.50566V5.50276V5.49986V5.49696V5.49406V5.49117V5.48827V5.48537V5.48247V5.47957V5.47667V5.47378V5.47088V5.46798V5.46508V5.46218V5.45928V5.45638V5.45349V5.45059V5.44769V5.44479V5.44189V5.43899V5.4361V5.4332V5.4303V5.4274V5.4245V5.4216V5.4187V5.41581V5.41291V5.41001V5.40711V5.40421V5.40131V5.39842V5.39552V5.39262V5.38972V5.38682V5.38392V5.38102V5.37813V5.37523V5.37233V5.36943V5.36653V5.36363V5.36074V5.35784V5.35494V5.35204V5.34914V5.34624V5.34335V5.34045V5.33755V5.33465V5.33175V5.32885V5.32595V5.32306V5.32016V5.31726V5.31436V5.31146V5.30856V5.30567V5.30277V5.29987V5.29697V5.29407V5.29117V5.28827V5.28538V5.28248V5.27958V5.27668V5.27378V5.27088V5.26799V5.26509V5.26219V5.25929V5.25639V5.25349V5.25059V5.2477V5.2448V5.2419V5.239V5.2361V5.2332V5.23031V5.22741V5.22451V5.22161V5.21871V5.21581V5.21291V5.21002V5.20712V5.20422V5.20132V5.19842V5.19552V5.19263V5.18973V5.18683V5.18393V5.18103V5.17813V5.17524V5.17234V5.16944V5.16654V5.16364V5.16074V5.15784V5.15495V5.15205V5.14915V5.14625V5.14335V5.14045V5.13756V5.13466V5.13176V5.12886V5.12596V5.12306V5.12016V5.11727V5.11437V5.11147V5.10857V5.10567V5.10277V5.09988V5.09698V5.09408V5.09118V5.08828V5.08538V5.08248V5.07959V5.07669V5.07379V5.07089V5.06799V5.06509V5.0622V5.0593V5.0564V5.0535V5.0506V5.0477V5.04481V5.04191V5.03901V5.03611V5.03321V5.03031V5.02741V5.02452V5.02162V5.01872V5.01582V5.01292V5.01002V5.00713V5.00423V5.00133V4.99843V4.99553V4.99263V4.98973V4.98684V4.98394V4.98104V4.97814V4.97524V4.97234V4.96945V4.96655V4.96365V4.96075V4.95785V4.95495V4.95205V4.94916V4.94626V4.94336V4.94046V4.93756V4.93466V4.93177V4.92887V4.92597V4.92307V4.92017V4.91727V4.91437V4.91148V4.90858V4.90568V4.90278V4.89988V4.89698V4.89409V4.89119V4.88829V4.88539V4.88249V4.87959V4.87669V4.8738V4.8709V4.868V4.8651V4.8622V4.8593V4.85641V4.85351V4.85061V4.84771V4.84481V4.84191V4.83902V4.83612V4.83322V4.83032V4.82742V4.82452V4.82162V4.81873V4.81583V4.81293V4.81003V4.80713V4.80423V4.80134V4.79844V4.79554V4.79264V4.78974V4.78684V4.78394V4.78105V4.77815V4.77525V4.77235V4.76945V4.76655V4.76366V4.76076V4.75786V4.75496V4.75206V4.74916V4.74626V4.74337V4.74047V4.73757V4.73467V4.73177V4.72887V4.72598V4.72308V4.72018V4.71728V4.71438V4.71148V4.70859V4.70569V4.70279V4.69989V4.69699V4.69409V4.69119V4.6883V4.6854V4.6825V4.6796V4.6767V4.6738V4.67091V4.66801V4.66511V4.66221V4.65931V4.65641V4.65351V4.65062V4.64772V4.64482V4.64192V4.63902V4.63612V4.63323V4.63033V4.62743V4.62453V4.62163V4.61873V4.61583V4.61294V4.61004V4.60714V4.60424V4.60134V4.59844V4.59555V4.59265V4.58975V4.58685V4.58395V4.58105V4.57815V4.57526V4.57236V4.56946V4.56656V4.56366V4.56076V4.55787V4.55497V4.55207V4.54917V4.54627V4.54337V4.54047V4.53758V4.53468V4.53178V4.52888V4.52598V4.52308V4.52019V4.51729V4.51439V4.51149V4.50859V4.50569V4.50279V4.4999V4.497V4.4941V4.4912V4.4883V4.4854V4.48251V4.47961V4.47671V4.47381V4.47091V4.46801V4.46512V4.46222V4.45932V4.45642V4.45352V4.45062V4.44772V4.44483V4.44193V4.43903V4.43613V4.43323V4.43033V4.42744V4.42454V4.42164V4.41874V4.41584V4.41294V4.41004V4.40715V4.40425V4.40135V4.39845V4.39555V4.39265V4.38976V4.38686V4.38396V4.38106V4.37816V4.37526V4.37236V4.36947V4.36657V4.36367V4.36077V4.35787V4.35497V4.35208V4.34918V4.34628V4.34338V4.34048V4.33758V4.33468V4.33179V4.32889V4.32599V4.32309V4.32019V4.31729V4.3144V4.3115V4.3086V4.3057V4.3028V4.2999V4.297V4.29411V4.29121C52.918 3.9853 53.0131 3.76983 53.1721 3.62863Z" stroke="#223872" stroke-width="0.5"/>
<path d="M55.5123 0C55.6753 0.00806527 55.8261 0.0672082 55.9605 0.190876C56.9732 1.11569 57.9858 2.04051 58.9984 2.96533C59.0962 3.05405 59.1532 3.17233 59.1308 3.33632C59.1084 3.48956 59.0248 3.58904 58.9046 3.61324C58.8252 3.62937 58.7579 3.58635 58.6948 3.52721C57.9654 2.86048 57.236 2.19375 56.5066 1.52702C56.2376 1.27969 55.9667 1.03235 55.6977 0.787706C55.5551 0.655973 55.4655 0.658664 55.3228 0.790397C54.3245 1.70446 53.3261 2.61852 52.3278 3.53258C52.1526 3.6912 51.9509 3.60249 51.902 3.3444C51.8755 3.2046 51.9203 3.07017 52.0263 2.9707C52.3197 2.70186 52.6151 2.43302 52.9085 2.16418C53.6175 1.51358 54.3265 0.865666 55.0356 0.212379C55.1782 0.0779583 55.3371 0.00537684 55.5123 0Z" fill="#223872"/>
<path d="M58.3649 1.55912C58.257 1.45965 58.1592 1.37093 58.0614 1.27953C57.7721 1.01606 57.4848 0.749906 57.1934 0.489129C57.1466 0.446114 57.1466 0.419235 57.1792 0.368155C57.281 0.201472 57.4114 0.101995 57.5744 0.101995C57.7089 0.101995 57.8434 0.0778015 57.9758 0.120816C58.2081 0.196092 58.3649 0.462246 58.367 0.776792C58.3649 1.03219 58.3649 1.28759 58.3649 1.55912Z" fill="#223872"/>
<path d="M56.7893 15.05L56.7896 15.0498C57.4405 14.4704 58.0943 13.8949 58.7479 13.3194C58.8768 13.2059 59.0057 13.0925 59.1345 12.979C59.4094 13.222 59.6839 13.4641 59.9583 13.7061C60.4653 14.1531 60.9715 14.5995 61.4772 15.0496C61.6375 15.1926 61.7318 15.4101 61.7318 15.7233V15.7291V15.7348V15.7406V15.7463V15.7521V15.7578V15.7636V15.7693V15.7751V15.7808V15.7866V15.7923V15.7981V15.8038V15.8096V15.8153V15.8211V15.8268V15.8326V15.8383V15.8441V15.8498V15.8556V15.8613V15.8671V15.8728V15.8786V15.8843V15.8901V15.8958V15.9016V15.9073V15.9131V15.9188V15.9246V15.9303V15.9361V15.9418V15.9476V15.9533V15.9591V15.9648V15.9706V15.9763V15.9821V15.9878V15.9936V15.9993V16.0051V16.0108V16.0166V16.0223V16.0281V16.0338V16.0396V16.0453V16.0511V16.0568V16.0626V16.0683V16.0741V16.0798V16.0856V16.0913V16.0971V16.1028V16.1086V16.1143V16.1201V16.1258V16.1316V16.1373V16.1431V16.1488V16.1546V16.1603V16.1661V16.1718V16.1776V16.1833V16.1891V16.1948V16.2006V16.2063V16.2121V16.2178V16.2236V16.2293V16.2351V16.2408V16.2466V16.2523V16.2581V16.2638V16.2696V16.2753V16.2811V16.2868V16.2926V16.2983V16.3041V16.3098V16.3156V16.3213V16.3271V16.3328V16.3386V16.3443V16.3501V16.3558V16.3616V16.3673V16.3731V16.3788V16.3846V16.3903V16.3961V16.4018V16.4076V16.4133V16.4191V16.4248V16.4306V16.4363V16.442V16.4478V16.4535V16.4593V16.465V16.4708V16.4765V16.4823V16.488V16.4938V16.4995V16.5053V16.511V16.5168V16.5225V16.5283V16.534V16.5398V16.5455V16.5513V16.557V16.5628V16.5685V16.5743V16.58V16.5858V16.5915V16.5973V16.603V16.6088V16.6145V16.6203V16.626V16.6318V16.6375V16.6433V16.649V16.6548V16.6605V16.6663V16.672V16.6778V16.6835V16.6893V16.695V16.7008V16.7065V16.7123V16.718V16.7238V16.7295V16.7353V16.741V16.7468V16.7525V16.7583V16.764V16.7698V16.7755V16.7813V16.787V16.7928V16.7985V16.8043V16.81V16.8158V16.8215V16.8273V16.833V16.8388V16.8445V16.8503V16.856V16.8618V16.8675V16.8733V16.879V16.8848V16.8905V16.8963V16.902V16.9078V16.9135V16.9193V16.925V16.9308V16.9365V16.9423V16.948V16.9538V16.9595V16.9653V16.971V16.9768V16.9825V16.9883V16.994V16.9998V17.0055V17.0113V17.017V17.0228V17.0285V17.0343V17.04V17.0458V17.0515V17.0573V17.063V17.0688V17.0745V17.0803V17.086V17.0918V17.0975V17.1033V17.109V17.1148V17.1205V17.1263V17.132V17.1378V17.1435V17.1493V17.155V17.1608V17.1665V17.1723V17.178V17.1838V17.1895V17.1953V17.201V17.2068V17.2125V17.2183V17.224V17.2298V17.2355V17.2413V17.247V17.2528V17.2585V17.2643V17.27V17.2758V17.2815V17.2873V17.293V17.2987V17.3045V17.3102V17.316V17.3217V17.3275V17.3332V17.339V17.3447V17.3505V17.3562V17.362V17.3677V17.3735V17.3792V17.385V17.3907V17.3965V17.4022V17.408V17.4137V17.4195V17.4252V17.431V17.4367V17.4425V17.4482V17.454V17.4597V17.4655V17.4712V17.477V17.4827V17.4885V17.4942V17.5V17.5057V17.5115V17.5172V17.523V17.5287V17.5345V17.5402V17.546V17.5517V17.5575V17.5632V17.569V17.5747V17.5805V17.5862V17.592V17.5977V17.6035V17.6092V17.615V17.6207V17.6265V17.6322V17.638V17.6437V17.6495V17.6552V17.661V17.6667V17.6725V17.6782V17.684V17.6897V17.6955V17.7012V17.707V17.7127V17.7185V17.7242V17.73V17.7357V17.7415V17.7472V17.753V17.7587V17.7645V17.7702V17.776V17.7817V17.7875V17.7932V17.799V17.8047V17.8105V17.8162V17.822V17.8277V17.8335V17.8392V17.845V17.8507V17.8565V17.8622V17.868V17.8737V17.8795V17.8852V17.891V17.8967V17.9025V17.9082V17.914V17.9197V17.9255V17.9312V17.937V17.9427V17.9485V17.9542V17.96V17.9657V17.9715V17.9772V17.983V17.9887V17.9945V18.0002V18.006V18.0117V18.0175V18.0232V18.029V18.0347V18.0405V18.0462V18.052V18.0577V18.0635V18.0692V18.075V18.0807V18.0865V18.0922V18.098V18.1037V18.1095V18.1152V18.121V18.1267V18.1325V18.1382V18.1439V18.1497V18.1554V18.1612V18.1669V18.1727V18.1784V18.1842V18.1899V18.1957V18.2014V18.2072V18.2129V18.2187V18.2244V18.2302V18.2359V18.2417V18.2474V18.2532V18.2589V18.2647V18.2704V18.2762V18.2819V18.2877V18.2934V18.2992V18.3049V18.3107V18.3164V18.3222V18.3279V18.3337V18.3394V18.3452V18.3509V18.3567V18.3624V18.3682V18.3739V18.3797V18.3854V18.3912V18.3969V18.4027V18.4084V18.4142V18.4199V18.4257V18.4314V18.4372V18.4429V18.4487V18.4544V18.4602V18.4659V18.4717V18.4774V18.4832V18.4889V18.4947V18.5004V18.5062V18.5119V18.5177V18.5234V18.5292V18.5349V18.5407V18.5464V18.5522V18.5579V18.5637V18.5694V18.5752V18.5809V18.5867V18.5924V18.5982V18.6039V18.6097V18.6154V18.6212V18.6269V18.6327V18.6384V18.6442V18.6499V18.6557V18.6614V18.6672C61.7318 19.202 61.4479 19.4664 61.1884 19.4683C61.1105 19.4683 61.0321 19.4682 60.9534 19.468C60.777 19.4676 60.599 19.4673 60.421 19.4687C60.4226 18.8809 60.4224 18.2913 60.4205 17.7039L60.4205 17.7037C60.4183 17.135 60.1558 16.6159 59.6613 16.4448C59.6193 16.4295 59.5517 16.4072 59.473 16.4063C59.4361 16.4049 59.3973 16.403 59.3567 16.401C59.1683 16.3917 58.9445 16.3806 58.727 16.4212L58.7268 16.4213C58.1615 16.5273 57.8528 17.0893 57.8505 17.6957L57.8505 17.6958C57.8486 18.2873 57.8485 18.879 57.8517 19.4709C57.598 19.4669 57.34 19.4649 57.0813 19.4739L57.0808 19.4739C56.9611 19.4783 56.8286 19.4152 56.7176 19.2684C56.6069 19.1222 56.5321 18.9079 56.5372 18.6643L56.5372 18.6622C56.5411 18.3506 56.5392 18.0351 56.5373 17.7227C56.5362 17.5459 56.5352 17.3701 56.5352 17.1966V17.1937V17.1908V17.1879V17.185V17.1821V17.1792V17.1763V17.1734V17.1705V17.1676V17.1647V17.1618V17.1589V17.156V17.1531V17.1502V17.1473V17.1444V17.1415V17.1386V17.1357V17.1328V17.1299V17.127V17.1241V17.1212V17.1183V17.1154V17.1125V17.1096V17.1067V17.1039V17.101V17.0981V17.0952V17.0923V17.0894V17.0865V17.0836V17.0807V17.0778V17.0749V17.072V17.0691V17.0662V17.0633V17.0604V17.0575V17.0546V17.0517V17.0488V17.0459V17.043V17.0401V17.0372V17.0343V17.0314V17.0285V17.0256V17.0227V17.0198V17.0169V17.014V17.0111V17.0082V17.0053V17.0024V16.9995V16.9966V16.9937V16.9908V16.9879V16.985V16.9821V16.9792V16.9763V16.9734V16.9705V16.9676V16.9647V16.9618V16.9589V16.956V16.9531V16.9502V16.9473V16.9444V16.9415V16.9386V16.9357V16.9328V16.9299V16.927V16.9241V16.9212V16.9183V16.9155V16.9126V16.9097V16.9068V16.9039V16.901V16.8981V16.8952V16.8923V16.8894V16.8865V16.8836V16.8807V16.8778V16.8749V16.872V16.8691V16.8662V16.8633V16.8604V16.8575V16.8546V16.8517V16.8488V16.8459V16.843V16.8401V16.8372V16.8343V16.8314V16.8285V16.8256V16.8227V16.8198V16.8169V16.814V16.8111V16.8082V16.8053V16.8024V16.7995V16.7966V16.7937V16.7908V16.7879V16.785V16.7821V16.7792V16.7763V16.7734V16.7705V16.7676V16.7647V16.7618V16.7589V16.756V16.7531V16.7502V16.7473V16.7444V16.7415V16.7386V16.7357V16.7328V16.7299V16.727V16.7242V16.7213V16.7184V16.7155V16.7126V16.7097V16.7068V16.7039V16.701V16.6981V16.6952V16.6923V16.6894V16.6865V16.6836V16.6807V16.6778V16.6749V16.672V16.6691V16.6662V16.6633V16.6604V16.6575V16.6546V16.6517V16.6488V16.6459V16.643V16.6401V16.6372V16.6343V16.6314V16.6285V16.6256V16.6227V16.6198V16.6169V16.614V16.6111V16.6082V16.6053V16.6024V16.5995V16.5966V16.5937V16.5908V16.5879V16.585V16.5821V16.5792V16.5763V16.5734V16.5705V16.5676V16.5647V16.5618V16.5589V16.556V16.5531V16.5502V16.5473V16.5444V16.5415V16.5386V16.5358V16.5329V16.53V16.5271V16.5242V16.5213V16.5184V16.5155V16.5126V16.5097V16.5068V16.5039V16.501V16.4981V16.4952V16.4923V16.4894V16.4865V16.4836V16.4807V16.4778V16.4749V16.472V16.4691V16.4662V16.4633V16.4604V16.4575V16.4546V16.4517V16.4488V16.4459V16.443V16.4401V16.4372V16.4343V16.4314V16.4285V16.4256V16.4227V16.4198V16.4169V16.414V16.4111V16.4082V16.4053V16.4024V16.3995V16.3966V16.3937V16.3908V16.3879V16.385V16.3821V16.3792V16.3763V16.3734V16.3705V16.3676V16.3647V16.3618V16.3589V16.356V16.3531V16.3502V16.3474V16.3445V16.3416V16.3387V16.3358V16.3329V16.33V16.3271V16.3242V16.3213V16.3184V16.3155V16.3126V16.3097V16.3068V16.3039V16.301V16.2981V16.2952V16.2923V16.2894V16.2865V16.2836V16.2807V16.2778V16.2749V16.272V16.2691V16.2662V16.2633V16.2604V16.2575V16.2546V16.2517V16.2488V16.2459V16.243V16.2401V16.2372V16.2343V16.2314V16.2285V16.2256V16.2227V16.2198V16.2169V16.214V16.2111V16.2082V16.2053V16.2024V16.1995V16.1966V16.1937V16.1908V16.1879V16.185V16.1821V16.1792V16.1763V16.1734V16.1705V16.1676V16.1647V16.1618V16.1589V16.1561V16.1532V16.1503V16.1474V16.1445V16.1416V16.1387V16.1358V16.1329V16.13V16.1271V16.1242V16.1213V16.1184V16.1155V16.1126V16.1097V16.1068V16.1039V16.101V16.0981V16.0952V16.0923V16.0894V16.0865V16.0836V16.0807V16.0778V16.0749V16.072V16.0691V16.0662V16.0633V16.0604V16.0575V16.0546V16.0517V16.0488V16.0459V16.043V16.0401V16.0372V16.0343V16.0314V16.0285V16.0256V16.0227V16.0198V16.0169V16.014V16.0111V16.0082V16.0053V16.0024V15.9995V15.9966V15.9937V15.9908V15.9879V15.985V15.9821V15.9792V15.9763V15.9734V15.9705V15.9677V15.9648V15.9619V15.959V15.9561V15.9532V15.9503V15.9474V15.9445V15.9416V15.9387V15.9358V15.9329V15.93V15.9271V15.9242V15.9213V15.9184V15.9155V15.9126V15.9097V15.9068V15.9039V15.901V15.8981V15.8952V15.8923V15.8894V15.8865V15.8836V15.8807V15.8778V15.8749V15.872V15.8691V15.8662V15.8633V15.8604V15.8575V15.8546V15.8517V15.8488V15.8459V15.843V15.8401V15.8372V15.8343V15.8314V15.8285V15.8256V15.8227V15.8198V15.8169V15.814V15.8111V15.8082V15.8053V15.8024V15.7995V15.7966V15.7937V15.7908V15.7879V15.785V15.7821V15.7793V15.7764V15.7735V15.7706V15.7677V15.7648V15.7619V15.759V15.7561V15.7532V15.7503V15.7474V15.7445V15.7416V15.7387V15.7358V15.7329V15.73V15.7271V15.7242V15.7213V15.7184V15.7155V15.7126C56.5352 15.4067 56.6303 15.1912 56.7893 15.05Z" stroke="#223872" stroke-width="0.5"/>
<path d="M59.1295 11.4229C59.2925 11.4309 59.4433 11.4901 59.5777 11.6137C60.5903 12.5385 61.603 13.4634 62.6156 14.3882C62.7134 14.4769 62.7704 14.5952 62.748 14.7592C62.7256 14.9124 62.642 15.0119 62.5218 15.0361C62.4424 15.0522 62.3751 15.0092 62.312 14.9501C61.5826 14.2833 60.8532 13.6166 60.1238 12.9499C59.8548 12.7025 59.5838 12.4552 59.3149 12.2106C59.1723 12.0788 59.0826 12.0815 58.94 12.2132C57.9417 13.1273 56.9433 14.0414 55.945 14.9554C55.7698 15.1141 55.5681 15.0253 55.5192 14.7672C55.4927 14.6275 55.5375 14.493 55.6435 14.3936C55.9368 14.1247 56.2323 13.8559 56.5257 13.587C57.2347 12.9364 57.9437 12.2885 58.6527 11.6352C58.7954 11.5035 58.9522 11.4282 59.1295 11.4229Z" fill="#223872"/>
<path d="M61.9821 12.982C61.8741 12.8825 61.7764 12.7938 61.6786 12.7024C61.3892 12.4389 61.102 12.1728 60.8106 11.912C60.7637 11.869 60.7637 11.8421 60.7963 11.791C60.8982 11.6243 61.0286 11.5248 61.1916 11.5248C61.3261 11.5248 61.4605 11.5007 61.593 11.5437C61.8253 11.6189 61.9821 11.8851 61.9842 12.1996C61.9821 12.455 61.9821 12.7104 61.9821 12.982Z" fill="#223872"/>
<path d="M53.1721 28.8078L53.1724 28.8076C53.8238 28.2279 54.4779 27.652 55.132 27.0761C55.2604 26.963 55.3889 26.8499 55.5173 26.7368C55.792 26.9797 56.0665 27.2217 56.3407 27.4635C56.8478 27.9107 57.3541 28.3572 57.8601 28.8075C58.0204 28.9504 58.1146 29.1679 58.1146 29.4812V29.4869V29.4927V29.4984V29.5042V29.5099V29.5157V29.5214V29.5272V29.5329V29.5387V29.5444V29.5502V29.5559V29.5617V29.5674V29.5731V29.5789V29.5846V29.5904V29.5961V29.6019V29.6076V29.6134V29.6191V29.6249V29.6306V29.6364V29.6421V29.6479V29.6536V29.6594V29.6651V29.6709V29.6766V29.6824V29.6881V29.6939V29.6996V29.7054V29.7111V29.7169V29.7226V29.7284V29.7341V29.7399V29.7456V29.7514V29.7571V29.7629V29.7686V29.7744V29.7801V29.7859V29.7916V29.7974V29.8031V29.8089V29.8146V29.8204V29.8261V29.8319V29.8376V29.8434V29.8491V29.8549V29.8606V29.8664V29.8721V29.8779V29.8836V29.8894V29.8951V29.9009V29.9066V29.9124V29.9181V29.9239V29.9296V29.9354V29.9411V29.9469V29.9526V29.9584V29.9641V29.9699V29.9756V29.9814V29.9871V29.9929V29.9986V30.0044V30.0101V30.0159V30.0216V30.0274V30.0331V30.0389V30.0446V30.0504V30.0561V30.0619V30.0676V30.0734V30.0791V30.0849V30.0906V30.0964V30.1021V30.1079V30.1136V30.1194V30.1251V30.1309V30.1366V30.1424V30.1481V30.1539V30.1596V30.1654V30.1711V30.1769V30.1826V30.1884V30.1941V30.1999V30.2056V30.2114V30.2171V30.2229V30.2286V30.2344V30.2401V30.2459V30.2516V30.2574V30.2631V30.2689V30.2746V30.2804V30.2861V30.2919V30.2976V30.3034V30.3091V30.3149V30.3206V30.3264V30.3321V30.3379V30.3436V30.3494V30.3551V30.3609V30.3666V30.3724V30.3781V30.3839V30.3896V30.3954V30.4011V30.4068V30.4126V30.4183V30.4241V30.4298V30.4356V30.4413V30.4471V30.4528V30.4586V30.4643V30.4701V30.4758V30.4816V30.4873V30.4931V30.4988V30.5046V30.5103V30.5161V30.5218V30.5276V30.5333V30.5391V30.5448V30.5506V30.5563V30.5621V30.5678V30.5736V30.5793V30.5851V30.5908V30.5966V30.6023V30.6081V30.6138V30.6196V30.6253V30.6311V30.6368V30.6426V30.6483V30.6541V30.6598V30.6656V30.6713V30.6771V30.6828V30.6886V30.6943V30.7001V30.7058V30.7116V30.7173V30.7231V30.7288V30.7346V30.7403V30.7461V30.7518V30.7576V30.7633V30.7691V30.7748V30.7806V30.7863V30.7921V30.7978V30.8036V30.8093V30.8151V30.8208V30.8266V30.8323V30.8381V30.8438V30.8496V30.8553V30.8611V30.8668V30.8726V30.8783V30.8841V30.8898V30.8956V30.9013V30.9071V30.9128V30.9186V30.9243V30.9301V30.9358V30.9416V30.9473V30.9531V30.9588V30.9646V30.9703V30.9761V30.9818V30.9876V30.9933V30.9991V31.0048V31.0106V31.0163V31.0221V31.0278V31.0336V31.0393V31.0451V31.0508V31.0566V31.0623V31.0681V31.0738V31.0796V31.0853V31.0911V31.0968V31.1026V31.1083V31.1141V31.1198V31.1256V31.1313V31.1371V31.1428V31.1486V31.1543V31.1601V31.1658V31.1716V31.1773V31.1831V31.1888V31.1946V31.2003V31.2061V31.2118V31.2176V31.2233V31.2291V31.2348V31.2406V31.2463V31.2521V31.2578V31.2635V31.2693V31.275V31.2808V31.2865V31.2923V31.298V31.3038V31.3095V31.3153V31.321V31.3268V31.3325V31.3383V31.344V31.3498V31.3555V31.3613V31.367V31.3728V31.3785V31.3843V31.39V31.3958V31.4015V31.4073V31.413V31.4188V31.4245V31.4303V31.436V31.4418V31.4475V31.4533V31.459V31.4648V31.4705V31.4763V31.482V31.4878V31.4935V31.4993V31.505V31.5108V31.5165V31.5223V31.528V31.5338V31.5395V31.5453V31.551V31.5568V31.5625V31.5683V31.574V31.5798V31.5855V31.5913V31.597V31.6028V31.6085V31.6143V31.62V31.6258V31.6315V31.6373V31.643V31.6488V31.6545V31.6603V31.666V31.6718V31.6775V31.6833V31.689V31.6948V31.7005V31.7063V31.712V31.7178V31.7235V31.7293V31.735V31.7408V31.7465V31.7523V31.758V31.7638V31.7695V31.7753V31.781V31.7868V31.7925V31.7983V31.804V31.8098V31.8155V31.8213V31.827V31.8328V31.8385V31.8443V31.85V31.8558V31.8615V31.8673V31.873V31.8788V31.8845V31.8903V31.896V31.9018V31.9075V31.9133V31.919V31.9248V31.9305V31.9363V31.942V31.9478V31.9535V31.9593V31.965V31.9708V31.9765V31.9823V31.988V31.9938V31.9995V32.0053V32.011V32.0168V32.0225V32.0283V32.034V32.0398V32.0455V32.0513V32.057V32.0628V32.0685V32.0743V32.08V32.0858V32.0915V32.0973V32.103V32.1087V32.1145V32.1202V32.126V32.1317V32.1375V32.1432V32.149V32.1547V32.1605V32.1662V32.172V32.1777V32.1835V32.1892V32.195V32.2007V32.2065V32.2122V32.218V32.2237V32.2295V32.2352V32.241V32.2467V32.2525V32.2582V32.264V32.2697V32.2755V32.2812V32.287V32.2927V32.2985V32.3042V32.31V32.3157V32.3215V32.3272V32.333V32.3387V32.3445V32.3502V32.356V32.3617V32.3675V32.3732V32.379V32.3847V32.3905V32.3962V32.402V32.4077V32.4135V32.4192V32.425C58.1146 32.9599 57.8307 33.2242 57.5712 33.2262C57.4933 33.2262 57.4149 33.226 57.3362 33.2258C57.1598 33.2254 56.9818 33.2251 56.8038 33.2265C56.8054 32.6388 56.8052 32.0491 56.8034 31.4617L56.8034 31.4615C56.8011 30.8928 56.5386 30.3737 56.0441 30.2026C56.0021 30.1873 55.9345 30.165 55.8558 30.1641C55.819 30.1628 55.7801 30.1608 55.7395 30.1588C55.5511 30.1495 55.3273 30.1384 55.1098 30.179L55.1096 30.1791C54.5443 30.2851 54.2356 30.8472 54.2333 31.4535L54.2333 31.4537C54.2314 32.0451 54.2313 32.6368 54.2345 33.2287C53.9808 33.2247 53.7228 33.2227 53.4641 33.2317L53.4636 33.2317C53.3439 33.2361 53.2114 33.173 53.1004 33.0262C52.9897 32.88 52.9149 32.6657 52.92 32.4221L52.92 32.4201C52.9239 32.1087 52.922 31.7947 52.9201 31.4827C52.919 31.3056 52.918 31.1293 52.918 30.9544V30.9515V30.9486V30.9457V30.9428V30.9399V30.937V30.9341V30.9312V30.9283V30.9254V30.9225V30.9196V30.9167V30.9138V30.9109V30.908V30.9051V30.9022V30.8993V30.8964V30.8935V30.8906V30.8877V30.8849V30.882V30.8791V30.8762V30.8733V30.8704V30.8675V30.8646V30.8617V30.8588V30.8559V30.853V30.8501V30.8472V30.8443V30.8414V30.8385V30.8356V30.8327V30.8298V30.8269V30.824V30.8211V30.8182V30.8153V30.8124V30.8095V30.8066V30.8037V30.8008V30.7979V30.795V30.7921V30.7892V30.7863V30.7834V30.7805V30.7776V30.7747V30.7718V30.7689V30.766V30.7631V30.7602V30.7573V30.7544V30.7515V30.7486V30.7457V30.7428V30.7399V30.737V30.7341V30.7312V30.7283V30.7254V30.7225V30.7196V30.7167V30.7138V30.7109V30.708V30.7051V30.7022V30.6993V30.6965V30.6936V30.6907V30.6878V30.6849V30.682V30.6791V30.6762V30.6733V30.6704V30.6675V30.6646V30.6617V30.6588V30.6559V30.653V30.6501V30.6472V30.6443V30.6414V30.6385V30.6356V30.6327V30.6298V30.6269V30.624V30.6211V30.6182V30.6153V30.6124V30.6095V30.6066V30.6037V30.6008V30.5979V30.595V30.5921V30.5892V30.5863V30.5834V30.5805V30.5776V30.5747V30.5718V30.5689V30.566V30.5631V30.5602V30.5573V30.5544V30.5515V30.5486V30.5457V30.5428V30.5399V30.537V30.5341V30.5312V30.5283V30.5254V30.5225V30.5196V30.5167V30.5138V30.511V30.5081V30.5052V30.5023V30.4994V30.4965V30.4936V30.4907V30.4878V30.4849V30.482V30.4791V30.4762V30.4733V30.4704V30.4675V30.4646V30.4617V30.4588V30.4559V30.453V30.4501V30.4472V30.4443V30.4414V30.4385V30.4356V30.4327V30.4298V30.4269V30.424V30.4211V30.4182V30.4153V30.4124V30.4095V30.4066V30.4037V30.4008V30.3979V30.395V30.3921V30.3892V30.3863V30.3834V30.3805V30.3776V30.3747V30.3718V30.3689V30.366V30.3631V30.3602V30.3573V30.3544V30.3515V30.3486V30.3457V30.3428V30.3399V30.337V30.3341V30.3312V30.3283V30.3254V30.3226V30.3197V30.3168V30.3139V30.311V30.3081V30.3052V30.3023V30.2994V30.2965V30.2936V30.2907V30.2878V30.2849V30.282V30.2791V30.2762V30.2733V30.2704V30.2675V30.2646V30.2617V30.2588V30.2559V30.253V30.2501V30.2472V30.2443V30.2414V30.2385V30.2356V30.2327V30.2298V30.2269V30.224V30.2211V30.2182V30.2153V30.2124V30.2095V30.2066V30.2037V30.2008V30.1979V30.195V30.1921V30.1892V30.1863V30.1834V30.1805V30.1776V30.1747V30.1718V30.1689V30.166V30.1631V30.1602V30.1573V30.1544V30.1515V30.1486V30.1457V30.1428V30.1399V30.1371V30.1342V30.1313V30.1284V30.1255V30.1226V30.1197V30.1168V30.1139V30.111V30.1081V30.1052V30.1023V30.0994V30.0965V30.0936V30.0907V30.0878V30.0849V30.082V30.0791V30.0762V30.0733V30.0704V30.0675V30.0646V30.0617V30.0588V30.0559V30.053V30.0501V30.0472V30.0443V30.0414V30.0385V30.0356V30.0327V30.0298V30.0269V30.024V30.0211V30.0182V30.0153V30.0124V30.0095V30.0066V30.0037V30.0008V29.9979V29.995V29.9921V29.9892V29.9863V29.9834V29.9805V29.9776V29.9747V29.9718V29.9689V29.966V29.9631V29.9602V29.9573V29.9544V29.9516V29.9487V29.9458V29.9429V29.94V29.9371V29.9342V29.9313V29.9284V29.9255V29.9226V29.9197V29.9168V29.9139V29.911V29.9081V29.9052V29.9023V29.8994V29.8965V29.8936V29.8907V29.8878V29.8849V29.882V29.8791V29.8762V29.8733V29.8704V29.8675V29.8646V29.8617V29.8588V29.8559V29.853V29.8501V29.8472V29.8443V29.8414V29.8385V29.8356V29.8327V29.8298V29.8269V29.824V29.8211V29.8182V29.8153V29.8124V29.8095V29.8066V29.8037V29.8008V29.7979V29.795V29.7921V29.7892V29.7863V29.7834V29.7805V29.7776V29.7747V29.7718V29.7689V29.766V29.7632V29.7603V29.7574V29.7545V29.7516V29.7487V29.7458V29.7429V29.74V29.7371V29.7342V29.7313V29.7284V29.7255V29.7226V29.7197V29.7168V29.7139V29.711V29.7081V29.7052V29.7023V29.6994V29.6965V29.6936V29.6907V29.6878V29.6849V29.682V29.6791V29.6762V29.6733V29.6704V29.6675V29.6646V29.6617V29.6588V29.6559V29.653V29.6501V29.6472V29.6443V29.6414V29.6385V29.6356V29.6327V29.6298V29.6269V29.624V29.6211V29.6182V29.6153V29.6124V29.6095V29.6066V29.6037V29.6008V29.5979V29.595V29.5921V29.5892V29.5863V29.5834V29.5805V29.5776V29.5748V29.5719V29.569V29.5661V29.5632V29.5603V29.5574V29.5545V29.5516V29.5487V29.5458V29.5429V29.54V29.5371V29.5342V29.5313V29.5284V29.5255V29.5226V29.5197V29.5168V29.5139V29.511V29.5081V29.5052V29.5023V29.4994V29.4965V29.4936V29.4907V29.4878V29.4849V29.482V29.4791V29.4762V29.4733V29.4704C52.918 29.1645 53.0131 28.949 53.1721 28.8078Z" stroke="#223872" stroke-width="0.5"/>
<path d="M55.5123 25.1821C55.6753 25.1902 55.8261 25.2493 55.9605 25.373C56.9732 26.2978 57.9858 27.2226 58.9984 28.1475C59.0962 28.2362 59.1532 28.3545 59.1308 28.5185C59.1084 28.6717 59.0248 28.7712 58.9046 28.7954C58.8252 28.8115 58.7579 28.7685 58.6948 28.7093C57.9654 28.0426 57.236 27.3759 56.5066 26.7092C56.2376 26.4618 55.9667 26.2145 55.6977 25.9698C55.5551 25.8381 55.4655 25.8408 55.3228 25.9725C54.3245 26.8866 53.3261 27.8007 52.3278 28.7147C52.1526 28.8733 51.9509 28.7846 51.902 28.5265C51.8755 28.3867 51.9203 28.2523 52.0263 28.1528C52.3197 27.884 52.6151 27.6152 52.9085 27.3463C53.6175 26.6957 54.3265 26.0478 55.0356 25.3945C55.1782 25.2601 55.3371 25.1848 55.5123 25.1821Z" fill="#223872"/>
<path d="M58.3649 26.7398C58.257 26.6403 58.1592 26.5516 58.0614 26.4602C57.7721 26.1967 57.4848 25.9306 57.1934 25.6698C57.1466 25.6268 57.1466 25.5999 57.1792 25.5488C57.281 25.3821 57.4114 25.2827 57.5744 25.2827C57.7089 25.2827 57.8434 25.2585 57.9758 25.3015C58.2081 25.3768 58.3649 25.6429 58.367 25.9575C58.3649 26.2155 58.3649 26.4683 58.3649 26.7398Z" fill="#223872"/>
</svg>
