<svg width="456" height="538" viewBox="0 0 456 538" fill="none" xmlns="http://www.w3.org/2000/svg">
<path d="M166 403.289C166 417.219 175.018 422.153 182.033 422.153C205.21 422.153 246.494 422.153 261.195 422.153C275.896 422.153 280.228 428 280.228 431.827V438.115V461.92H290.756M290.756 461.92V347.663M290.756 461.92V487.936H389.959C396.639 488.419 410 486.388 410 474.392C410 462.396 410 358.466 410 308" stroke="#4560B0" stroke-width="1.5"/>
<path d="M120.001 177C101.95 177 62.5525 177 49.3677 177C36.1829 177 32.8867 184.559 32.8867 188.338V212" stroke="#4ABCEB" stroke-width="1.5"/>
<path d="M166 97V178M166 178V310V355H227V298H290V252V178H166Z" stroke="#B2B2B2" stroke-width="1.5" stroke-dasharray="4 4"/>
<path d="M47.8428 418.894L48.3369 418.894C48.9242 418.894 49.4505 418.967 49.916 419.114C50.3815 419.261 50.7772 419.472 51.103 419.748C51.4289 420.024 51.6777 420.355 51.8496 420.742C52.0215 421.125 52.1074 421.555 52.1074 422.031C52.1074 422.493 52.0215 422.917 51.8496 423.304C51.6777 423.687 51.4289 424.02 51.103 424.303C50.7772 424.582 50.3815 424.799 49.916 424.953C49.4505 425.107 48.9242 425.184 48.3369 425.184L47.8428 425.184C47.2555 425.184 46.731 425.108 46.269 424.958C45.8035 424.804 45.4079 424.587 45.082 424.308C44.7526 424.029 44.502 423.698 44.3301 423.314C44.1582 422.928 44.0723 422.503 44.0723 422.042C44.0723 421.565 44.1582 421.136 44.3301 420.752C44.502 420.366 44.7526 420.035 45.082 419.759C45.4079 419.479 45.8035 419.266 46.269 419.12C46.731 418.969 47.2555 418.894 47.8428 418.894ZM48.3369 419.92L47.832 419.92C47.3665 419.92 46.9548 419.968 46.5967 420.065C46.2386 420.158 45.9378 420.296 45.6943 420.479C45.4508 420.661 45.2664 420.885 45.1411 421.15C45.0158 421.411 44.9531 421.708 44.9531 422.042C44.9531 422.364 45.0158 422.656 45.1411 422.917C45.2664 423.175 45.4508 423.397 45.6943 423.583C45.9378 423.766 46.2386 423.907 46.5967 424.007C46.9548 424.108 47.3665 424.158 47.832 424.158L48.3369 424.158C48.806 424.158 49.2214 424.108 49.583 424.007C49.9411 423.907 50.2437 423.764 50.4907 423.578C50.7342 423.388 50.9186 423.164 51.0439 422.906C51.1693 422.645 51.2319 422.353 51.2319 422.031C51.2319 421.694 51.1693 421.395 51.0439 421.134C50.9186 420.872 50.7342 420.652 50.4907 420.473C50.2437 420.291 49.9411 420.153 49.583 420.06C49.2214 419.966 48.806 419.92 48.3369 419.92ZM47.1016 416.499L52 416.499L52 417.492L46.1885 417.492L46.1885 416.525L47.1016 416.499ZM46.1562 414.683L47.0801 414.688C47.0622 414.771 47.0514 414.85 47.0479 414.925C47.0407 414.996 47.0371 415.079 47.0371 415.172C47.0371 415.401 47.0729 415.603 47.1445 415.779C47.2161 415.954 47.3164 416.103 47.4453 416.225C47.5742 416.346 47.7282 416.443 47.9072 416.515C48.0827 416.583 48.276 416.627 48.4873 416.649L48.6484 416.928C48.2975 416.928 47.9681 416.894 47.6602 416.826C47.3522 416.755 47.0801 416.645 46.8437 416.499C46.6038 416.352 46.4176 416.166 46.2852 415.94C46.1491 415.711 46.0811 415.439 46.0811 415.124C46.0811 415.052 46.09 414.97 46.1079 414.876C46.1222 414.783 46.1383 414.719 46.1562 414.683ZM50.8721 410.209L43.75 410.209L43.75 409.21L52 409.21L52 410.123L50.8721 410.209ZM49.1587 414.119L49.0459 414.119C48.6019 414.119 48.1991 414.065 47.8374 413.958C47.4722 413.847 47.1589 413.691 46.8975 413.491C46.6361 413.287 46.4355 413.045 46.2959 412.766C46.1527 412.483 46.0811 412.168 46.0811 411.82C46.0811 411.455 46.1455 411.136 46.2744 410.864C46.3997 410.589 46.5841 410.356 46.8276 410.166C47.0675 409.973 47.3576 409.82 47.6978 409.709C48.0379 409.598 48.4229 409.521 48.8525 409.479L49.3467 409.479C49.7728 409.518 50.1559 409.595 50.4961 409.709C50.8363 409.82 51.1263 409.973 51.3662 410.166C51.6061 410.356 51.7905 410.589 51.9194 410.864C52.0448 411.14 52.1074 411.462 52.1074 411.831C52.1074 412.171 52.034 412.483 51.8872 412.766C51.7404 413.045 51.5345 413.287 51.2695 413.491C51.0046 413.691 50.693 413.847 50.335 413.958C49.9733 414.065 49.5812 414.119 49.1587 414.119ZM49.0459 413.12L49.1587 413.12C49.4487 413.12 49.7209 413.091 49.9751 413.034C50.2293 412.973 50.4531 412.88 50.6465 412.755C50.8398 412.63 50.992 412.47 51.103 412.277C51.2104 412.083 51.2642 411.853 51.2642 411.584C51.2642 411.255 51.1943 410.984 51.0547 410.773C50.915 410.558 50.7306 410.386 50.5015 410.257C50.2723 410.128 50.0234 410.028 49.7549 409.957L48.4604 409.957C48.2635 410 48.0737 410.062 47.8911 410.145C47.7049 410.223 47.5402 410.327 47.397 410.456C47.2502 410.581 47.1338 410.737 47.0479 410.923C46.9619 411.106 46.9189 411.323 46.9189 411.573C46.9189 411.845 46.9762 412.08 47.0908 412.277C47.2018 412.47 47.3558 412.63 47.5527 412.755C47.7461 412.88 47.9717 412.973 48.2295 413.034C48.4837 413.091 48.7559 413.12 49.0459 413.12ZM52.1074 405.251C52.1074 405.656 52.0394 406.023 51.9033 406.353C51.7637 406.678 51.5685 406.959 51.3179 407.196C51.0672 407.429 50.77 407.608 50.4263 407.733C50.0825 407.858 49.7065 407.921 49.2983 407.921L49.0728 407.921C48.6001 407.921 48.1794 407.851 47.8105 407.711C47.4382 407.572 47.123 407.382 46.8652 407.142C46.6074 406.902 46.4123 406.63 46.2798 406.326C46.1473 406.021 46.0811 405.706 46.0811 405.38C46.0811 404.965 46.1527 404.607 46.2959 404.306C46.4391 404.002 46.6396 403.753 46.8975 403.56C47.1517 403.366 47.4525 403.223 47.7998 403.13C48.1436 403.037 48.5195 402.99 48.9277 402.99L49.3735 402.99L49.3735 407.33L48.5625 407.33L48.5625 403.984L48.4873 403.984C48.2295 403.998 47.9788 404.052 47.7354 404.145C47.4919 404.235 47.2913 404.378 47.1338 404.575C46.9762 404.772 46.8975 405.04 46.8975 405.38C46.8975 405.606 46.9458 405.814 47.0425 406.003C47.1356 406.193 47.2752 406.356 47.4614 406.492C47.6476 406.628 47.875 406.734 48.1436 406.809C48.4121 406.884 48.7218 406.922 49.0728 406.922L49.2983 406.922C49.5741 406.922 49.8337 406.884 50.0771 406.809C50.3171 406.73 50.5283 406.618 50.7109 406.471C50.8936 406.32 51.0368 406.139 51.1406 405.928C51.2445 405.713 51.2964 405.47 51.2964 405.198C51.2964 404.847 51.2248 404.55 51.0815 404.306C50.9383 404.063 50.7467 403.85 50.5068 403.667L50.9849 403.065C51.1746 403.191 51.3555 403.35 51.5273 403.543C51.6992 403.737 51.8389 403.975 51.9463 404.258C52.0537 404.537 52.1074 404.868 52.1074 405.251ZM47.1016 400.836L52 400.836L52 401.83L46.1885 401.83L46.1885 400.863L47.1016 400.836ZM46.1562 399.021L47.0801 399.026C47.0622 399.109 47.0514 399.187 47.0479 399.263C47.0407 399.334 47.0371 399.417 47.0371 399.51C47.0371 399.739 47.0729 399.941 47.1445 400.117C47.2161 400.292 47.3164 400.441 47.4453 400.562C47.5742 400.684 47.7282 400.781 47.9072 400.853C48.0827 400.921 48.276 400.965 48.4873 400.987L48.6484 401.266C48.2975 401.266 47.9681 401.232 47.6602 401.164C47.3522 401.092 47.0801 400.983 46.8437 400.836C46.6038 400.69 46.4176 400.503 46.2852 400.278C46.1491 400.049 46.0811 399.777 46.0811 399.461C46.0811 399.39 46.09 399.307 46.1079 399.214C46.1222 399.121 46.1383 399.057 46.1562 399.021ZM50.4585 394.719C50.3153 394.719 50.1828 394.751 50.061 394.815C49.9357 394.876 49.8229 395.003 49.7227 395.197C49.6188 395.387 49.5293 395.673 49.4541 396.056C49.3861 396.378 49.3055 396.67 49.2124 396.932C49.1193 397.189 49.0065 397.41 48.874 397.592C48.7415 397.771 48.5858 397.909 48.4067 398.006C48.2277 398.103 48.0182 398.151 47.7783 398.151C47.5492 398.151 47.3325 398.101 47.1284 398C46.9243 397.897 46.7435 397.752 46.5859 397.565C46.4284 397.376 46.3048 397.148 46.2153 396.883C46.1258 396.618 46.0811 396.323 46.0811 395.997C46.0811 395.532 46.1634 395.134 46.3281 394.805C46.4928 394.475 46.7131 394.223 46.9888 394.047C47.2609 393.872 47.5635 393.784 47.8965 393.784L47.8965 394.778C47.7354 394.778 47.5796 394.826 47.4292 394.923C47.2752 395.016 47.1481 395.154 47.0479 395.336C46.9476 395.515 46.8975 395.736 46.8975 395.997C46.8975 396.273 46.9404 396.497 47.0264 396.668C47.1087 396.837 47.2144 396.96 47.3433 397.039C47.4722 397.114 47.6082 397.152 47.7515 397.152C47.8589 397.152 47.9556 397.134 48.0415 397.098C48.1239 397.059 48.2008 396.991 48.2725 396.894C48.3405 396.797 48.4049 396.661 48.4658 396.486C48.5267 396.31 48.5876 396.087 48.6484 395.814C48.7559 395.338 48.8848 394.946 49.0352 394.638C49.1855 394.33 49.37 394.101 49.5884 393.951C49.8068 393.8 50.0718 393.725 50.3833 393.725C50.6375 393.725 50.8703 393.779 51.0815 393.886C51.2928 393.99 51.4754 394.142 51.6294 394.343C51.7798 394.54 51.8979 394.776 51.9839 395.052C52.0662 395.324 52.1074 395.63 52.1074 395.97C52.1074 396.482 52.0161 396.916 51.8335 397.27C51.6509 397.625 51.4145 397.893 51.1245 398.076C50.8345 398.258 50.5283 398.35 50.2061 398.35L50.2061 397.351C50.4782 397.336 50.6948 397.257 50.856 397.114C51.0135 396.971 51.1263 396.796 51.1943 396.588C51.2588 396.38 51.291 396.174 51.291 395.97C51.291 395.698 51.2552 395.471 51.1836 395.288C51.112 395.102 51.0135 394.96 50.8882 394.864C50.7629 394.767 50.6196 394.719 50.4585 394.719Z" fill="#20336B"/>
<path d="M198.055 420.157V421H194.145V420.157H198.055ZM194.349 413.18V421H193.312V413.18H194.349ZM200.171 415.188V421H199.172V415.188H200.171ZM199.097 413.647C199.097 413.486 199.145 413.35 199.242 413.239C199.342 413.128 199.489 413.072 199.682 413.072C199.872 413.072 200.017 413.128 200.117 413.239C200.221 413.35 200.273 413.486 200.273 413.647C200.273 413.801 200.221 413.933 200.117 414.044C200.017 414.152 199.872 414.206 199.682 414.206C199.489 414.206 199.342 414.152 199.242 414.044C199.145 413.933 199.097 413.801 199.097 413.647ZM202.76 416.429V421H201.766V415.188H202.706L202.76 416.429ZM202.523 417.874L202.11 417.858C202.113 417.46 202.173 417.093 202.287 416.757C202.402 416.417 202.563 416.121 202.771 415.871C202.978 415.62 203.225 415.427 203.512 415.291C203.802 415.151 204.122 415.081 204.473 415.081C204.76 415.081 205.017 415.12 205.247 415.199C205.476 415.274 205.671 415.396 205.832 415.564C205.997 415.733 206.122 415.951 206.208 416.22C206.294 416.485 206.337 416.809 206.337 417.192V421H205.338V417.181C205.338 416.877 205.293 416.633 205.204 416.451C205.114 416.264 204.983 416.13 204.812 416.048C204.64 415.962 204.428 415.919 204.178 415.919C203.931 415.919 203.705 415.971 203.501 416.075C203.3 416.179 203.127 416.322 202.98 416.504C202.837 416.687 202.724 416.896 202.642 417.133C202.563 417.366 202.523 417.613 202.523 417.874ZM208.845 412.75V421H207.846V412.75H208.845ZM212.396 415.188L209.86 417.901L208.442 419.373L208.362 418.314L209.377 417.101L211.182 415.188H212.396ZM211.488 421L209.415 418.229L209.93 417.342L212.659 421H211.488ZM214.501 415.188V421H213.502V415.188H214.501ZM213.427 413.647C213.427 413.486 213.475 413.35 213.572 413.239C213.672 413.128 213.819 413.072 214.012 413.072C214.202 413.072 214.347 413.128 214.447 413.239C214.551 413.35 214.603 413.486 214.603 413.647C214.603 413.801 214.551 413.933 214.447 414.044C214.347 414.152 214.202 414.206 214.012 414.206C213.819 414.206 213.672 414.152 213.572 414.044C213.475 413.933 213.427 413.801 213.427 413.647ZM217.09 416.429V421H216.096V415.188H217.036L217.09 416.429ZM216.854 417.874L216.44 417.858C216.444 417.46 216.503 417.093 216.617 416.757C216.732 416.417 216.893 416.121 217.101 415.871C217.308 415.62 217.555 415.427 217.842 415.291C218.132 415.151 218.452 415.081 218.803 415.081C219.09 415.081 219.347 415.12 219.577 415.199C219.806 415.274 220.001 415.396 220.162 415.564C220.327 415.733 220.452 415.951 220.538 416.22C220.624 416.485 220.667 416.809 220.667 417.192V421H219.668V417.181C219.668 416.877 219.623 416.633 219.534 416.451C219.444 416.264 219.313 416.13 219.142 416.048C218.97 415.962 218.758 415.919 218.508 415.919C218.261 415.919 218.035 415.971 217.831 416.075C217.631 416.179 217.457 416.322 217.31 416.504C217.167 416.687 217.054 416.896 216.972 417.133C216.893 417.366 216.854 417.613 216.854 417.874ZM225.941 415.188H226.844V420.876C226.844 421.389 226.74 421.825 226.532 422.187C226.325 422.549 226.035 422.823 225.662 423.009C225.293 423.199 224.867 423.293 224.384 423.293C224.183 423.293 223.947 423.261 223.675 423.197C223.406 423.136 223.141 423.03 222.88 422.88C222.622 422.733 222.405 422.534 222.23 422.284L222.751 421.693C222.994 421.986 223.249 422.191 223.514 422.305C223.782 422.42 224.047 422.477 224.309 422.477C224.624 422.477 224.896 422.418 225.125 422.3C225.354 422.182 225.531 422.006 225.657 421.773C225.786 421.544 225.85 421.261 225.85 420.925V416.467L225.941 415.188ZM221.94 418.159V418.046C221.94 417.602 221.992 417.199 222.096 416.837C222.203 416.472 222.355 416.159 222.552 415.897C222.753 415.636 222.994 415.436 223.277 415.296C223.56 415.153 223.879 415.081 224.233 415.081C224.599 415.081 224.917 415.146 225.189 415.274C225.465 415.4 225.698 415.584 225.888 415.828C226.081 416.068 226.233 416.358 226.344 416.698C226.455 417.038 226.532 417.423 226.575 417.853V418.347C226.536 418.773 226.459 419.156 226.344 419.496C226.233 419.836 226.081 420.126 225.888 420.366C225.698 420.606 225.465 420.791 225.189 420.919C224.914 421.045 224.591 421.107 224.223 421.107C223.875 421.107 223.56 421.034 223.277 420.887C222.998 420.74 222.758 420.535 222.558 420.27C222.357 420.005 222.203 419.693 222.096 419.335C221.992 418.973 221.94 418.581 221.94 418.159ZM222.934 418.046V418.159C222.934 418.449 222.962 418.721 223.02 418.975C223.08 419.229 223.172 419.453 223.293 419.646C223.419 419.84 223.578 419.992 223.771 420.103C223.965 420.21 224.196 420.264 224.464 420.264C224.794 420.264 225.066 420.194 225.281 420.055C225.496 419.915 225.666 419.731 225.791 419.501C225.92 419.272 226.02 419.023 226.092 418.755V417.46C226.052 417.264 225.992 417.074 225.909 416.891C225.83 416.705 225.727 416.54 225.598 416.397C225.472 416.25 225.317 416.134 225.13 416.048C224.944 415.962 224.726 415.919 224.475 415.919C224.203 415.919 223.968 415.976 223.771 416.091C223.578 416.202 223.419 416.356 223.293 416.553C223.172 416.746 223.08 416.972 223.02 417.229C222.962 417.484 222.934 417.756 222.934 418.046Z" fill="#20336B"/>
<path d="M50.1152 186.18V194H49.0786V186.18H50.1152ZM52.8438 189.429V194H51.8501V188.188H52.79L52.8438 189.429ZM52.6074 190.874L52.1938 190.858C52.1974 190.46 52.2565 190.093 52.3711 189.757C52.4857 189.417 52.6468 189.121 52.8545 188.871C53.0622 188.62 53.3092 188.427 53.5957 188.291C53.8857 188.151 54.2062 188.081 54.5571 188.081C54.8436 188.081 55.1014 188.12 55.3306 188.199C55.5597 188.274 55.7549 188.396 55.916 188.564C56.0807 188.733 56.2061 188.951 56.292 189.22C56.3779 189.485 56.4209 189.809 56.4209 190.192V194H55.4219V190.181C55.4219 189.877 55.3771 189.633 55.2876 189.451C55.1981 189.264 55.0674 189.13 54.8955 189.048C54.7236 188.962 54.5124 188.919 54.2617 188.919C54.0146 188.919 53.7891 188.971 53.585 189.075C53.3844 189.179 53.2108 189.322 53.064 189.504C52.9207 189.687 52.8079 189.896 52.7256 190.133C52.6468 190.366 52.6074 190.613 52.6074 190.874ZM60.3633 188.188V188.951H57.2212V188.188H60.3633ZM58.2847 186.776H59.2783V192.561C59.2783 192.757 59.3088 192.906 59.3696 193.006C59.4305 193.107 59.5093 193.173 59.606 193.205C59.7026 193.237 59.8065 193.253 59.9175 193.253C59.9998 193.253 60.0858 193.246 60.1753 193.232C60.2684 193.214 60.3382 193.2 60.3848 193.189L60.3901 194C60.3114 194.025 60.2075 194.048 60.0786 194.07C59.9533 194.095 59.8011 194.107 59.6221 194.107C59.3786 194.107 59.1548 194.059 58.9507 193.962C58.7466 193.866 58.5837 193.705 58.4619 193.479C58.3438 193.25 58.2847 192.942 58.2847 192.555V186.776ZM63.9404 194.107C63.5358 194.107 63.1688 194.039 62.8394 193.903C62.5135 193.764 62.2324 193.569 61.9961 193.318C61.7633 193.067 61.5843 192.77 61.459 192.426C61.3337 192.083 61.271 191.707 61.271 191.298V191.073C61.271 190.6 61.3408 190.179 61.4805 189.811C61.6201 189.438 61.8099 189.123 62.0498 188.865C62.2897 188.607 62.5618 188.412 62.8662 188.28C63.1706 188.147 63.4857 188.081 63.8115 188.081C64.2269 188.081 64.585 188.153 64.8857 188.296C65.1901 188.439 65.439 188.64 65.6323 188.897C65.8257 189.152 65.9689 189.452 66.062 189.8C66.1551 190.144 66.2017 190.52 66.2017 190.928V191.374H61.8618V190.562H65.208V190.487C65.1937 190.229 65.14 189.979 65.0469 189.735C64.9574 189.492 64.8141 189.291 64.6172 189.134C64.4202 188.976 64.1517 188.897 63.8115 188.897C63.5859 188.897 63.3783 188.946 63.1885 189.042C62.9987 189.136 62.8358 189.275 62.6997 189.461C62.5636 189.648 62.458 189.875 62.3828 190.144C62.3076 190.412 62.27 190.722 62.27 191.073V191.298C62.27 191.574 62.3076 191.834 62.3828 192.077C62.4616 192.317 62.5744 192.528 62.7212 192.711C62.8716 192.894 63.0524 193.037 63.2637 193.141C63.4785 193.244 63.722 193.296 63.9941 193.296C64.3451 193.296 64.6423 193.225 64.8857 193.082C65.1292 192.938 65.3423 192.747 65.5249 192.507L66.1265 192.985C66.0011 193.175 65.8418 193.355 65.6484 193.527C65.4551 193.699 65.217 193.839 64.9341 193.946C64.6548 194.054 64.3236 194.107 63.9404 194.107ZM71.127 188.188H72.0293V193.876C72.0293 194.389 71.9255 194.825 71.7178 195.187C71.5101 195.549 71.2201 195.823 70.8477 196.009C70.4788 196.199 70.0527 196.293 69.5693 196.293C69.3688 196.293 69.1325 196.261 68.8604 196.197C68.5918 196.136 68.3268 196.03 68.0654 195.88C67.8076 195.733 67.591 195.534 67.4155 195.284L67.9365 194.693C68.18 194.986 68.4342 195.191 68.6992 195.305C68.9678 195.42 69.2327 195.477 69.4941 195.477C69.8092 195.477 70.0814 195.418 70.3105 195.3C70.5397 195.182 70.717 195.006 70.8423 194.773C70.9712 194.544 71.0356 194.261 71.0356 193.925V189.467L71.127 188.188ZM67.1255 191.159V191.046C67.1255 190.602 67.1774 190.199 67.2812 189.837C67.3887 189.472 67.5409 189.159 67.7378 188.897C67.9383 188.636 68.18 188.436 68.4629 188.296C68.7458 188.153 69.0645 188.081 69.4189 188.081C69.7842 188.081 70.1029 188.146 70.375 188.274C70.6507 188.4 70.8835 188.584 71.0732 188.828C71.2666 189.068 71.4188 189.358 71.5298 189.698C71.6408 190.038 71.7178 190.423 71.7607 190.853V191.347C71.7214 191.773 71.6444 192.156 71.5298 192.496C71.4188 192.836 71.2666 193.126 71.0732 193.366C70.8835 193.606 70.6507 193.791 70.375 193.919C70.0993 194.045 69.777 194.107 69.4082 194.107C69.0609 194.107 68.7458 194.034 68.4629 193.887C68.1836 193.74 67.9437 193.535 67.7432 193.27C67.5426 193.005 67.3887 192.693 67.2812 192.335C67.1774 191.973 67.1255 191.581 67.1255 191.159ZM68.1191 191.046V191.159C68.1191 191.449 68.1478 191.721 68.2051 191.975C68.266 192.229 68.3573 192.453 68.479 192.646C68.6043 192.84 68.7637 192.992 68.957 193.103C69.1504 193.21 69.3813 193.264 69.6499 193.264C69.9793 193.264 70.2515 193.194 70.4663 193.055C70.6812 192.915 70.8512 192.731 70.9766 192.501C71.1055 192.272 71.2057 192.023 71.2773 191.755V190.46C71.238 190.264 71.1771 190.074 71.0947 189.891C71.016 189.705 70.9121 189.54 70.7832 189.397C70.6579 189.25 70.5021 189.134 70.3159 189.048C70.1297 188.962 69.9113 188.919 69.6606 188.919C69.3885 188.919 69.154 188.976 68.957 189.091C68.7637 189.202 68.6043 189.356 68.479 189.553C68.3573 189.746 68.266 189.972 68.2051 190.229C68.1478 190.484 68.1191 190.756 68.1191 191.046ZM74.5322 189.102V194H73.5386V188.188H74.5054L74.5322 189.102ZM76.3477 188.156L76.3423 189.08C76.2599 189.062 76.1812 189.051 76.106 189.048C76.0343 189.041 75.952 189.037 75.8589 189.037C75.6297 189.037 75.4274 189.073 75.252 189.145C75.0765 189.216 74.9279 189.316 74.8062 189.445C74.6844 189.574 74.5877 189.728 74.5161 189.907C74.4481 190.083 74.4033 190.276 74.3818 190.487L74.1025 190.648C74.1025 190.298 74.1366 189.968 74.2046 189.66C74.2762 189.352 74.3854 189.08 74.5322 188.844C74.679 188.604 74.8652 188.418 75.0908 188.285C75.32 188.149 75.5921 188.081 75.9072 188.081C75.9788 188.081 76.0612 188.09 76.1543 188.108C76.2474 188.122 76.3118 188.138 76.3477 188.156ZM80.478 193.006V190.015C80.478 189.785 80.4315 189.587 80.3384 189.418C80.2489 189.247 80.1128 189.114 79.9302 189.021C79.7476 188.928 79.522 188.881 79.2534 188.881C79.0028 188.881 78.7826 188.924 78.5928 189.01C78.4066 189.096 78.2598 189.209 78.1523 189.349C78.0485 189.488 77.9966 189.639 77.9966 189.8H77.0029C77.0029 189.592 77.0566 189.386 77.1641 189.182C77.2715 188.978 77.4255 188.794 77.626 188.629C77.8301 188.461 78.0736 188.328 78.3564 188.231C78.6429 188.131 78.9616 188.081 79.3125 188.081C79.735 188.081 80.1074 188.153 80.4297 188.296C80.7555 188.439 81.0098 188.656 81.1924 188.946C81.3786 189.232 81.4717 189.592 81.4717 190.025V192.732C81.4717 192.926 81.4878 193.132 81.52 193.35C81.5558 193.569 81.6077 193.757 81.6758 193.914V194H80.6392C80.589 193.885 80.5496 193.733 80.521 193.543C80.4924 193.35 80.478 193.171 80.478 193.006ZM80.6499 190.477L80.6606 191.175H79.6562C79.3734 191.175 79.1209 191.198 78.8989 191.245C78.6769 191.288 78.4907 191.354 78.3403 191.443C78.1899 191.533 78.0754 191.646 77.9966 191.782C77.9178 191.914 77.8784 192.07 77.8784 192.249C77.8784 192.432 77.9196 192.598 78.002 192.749C78.0843 192.899 78.2078 193.019 78.3726 193.108C78.5409 193.194 78.7467 193.237 78.9902 193.237C79.2946 193.237 79.5632 193.173 79.7959 193.044C80.0286 192.915 80.2131 192.757 80.3491 192.571C80.4888 192.385 80.564 192.204 80.5747 192.029L80.999 192.507C80.974 192.657 80.9059 192.824 80.7949 193.006C80.6839 193.189 80.5353 193.364 80.3491 193.533C80.1665 193.697 79.9481 193.835 79.6938 193.946C79.4432 194.054 79.1603 194.107 78.8452 194.107C78.4513 194.107 78.1058 194.03 77.8086 193.876C77.515 193.722 77.2858 193.517 77.1211 193.259C76.96 192.997 76.8794 192.706 76.8794 192.383C76.8794 192.072 76.9403 191.798 77.062 191.562C77.1838 191.322 77.3592 191.123 77.5884 190.965C77.8175 190.804 78.0933 190.682 78.4155 190.6C78.7378 190.518 79.0977 190.477 79.4951 190.477H80.6499ZM85.4678 188.188V188.951H82.3257V188.188H85.4678ZM83.3892 186.776H84.3828V192.561C84.3828 192.757 84.4132 192.906 84.4741 193.006C84.535 193.107 84.6138 193.173 84.7104 193.205C84.8071 193.237 84.911 193.253 85.022 193.253C85.1043 193.253 85.1903 193.246 85.2798 193.232C85.3729 193.214 85.4427 193.2 85.4893 193.189L85.4946 194C85.4159 194.025 85.312 194.048 85.1831 194.07C85.0578 194.095 84.9056 194.107 84.7266 194.107C84.4831 194.107 84.2593 194.059 84.0552 193.962C83.8511 193.866 83.6882 193.705 83.5664 193.479C83.4482 193.25 83.3892 192.942 83.3892 192.555V186.776ZM87.7129 188.188V194H86.7139V188.188H87.7129ZM86.6387 186.647C86.6387 186.486 86.687 186.35 86.7837 186.239C86.884 186.128 87.0308 186.072 87.2241 186.072C87.4139 186.072 87.5589 186.128 87.6592 186.239C87.763 186.35 87.8149 186.486 87.8149 186.647C87.8149 186.801 87.763 186.933 87.6592 187.044C87.5589 187.152 87.4139 187.206 87.2241 187.206C87.0308 187.206 86.884 187.152 86.7837 187.044C86.687 186.933 86.6387 186.801 86.6387 186.647ZM89.0449 191.159V191.035C89.0449 190.616 89.1058 190.228 89.2275 189.87C89.3493 189.508 89.5247 189.195 89.7539 188.93C89.9831 188.661 90.2606 188.453 90.5864 188.307C90.9123 188.156 91.2775 188.081 91.6821 188.081C92.0903 188.081 92.4574 188.156 92.7832 188.307C93.1126 188.453 93.3919 188.661 93.6211 188.93C93.8538 189.195 94.0311 189.508 94.1528 189.87C94.2746 190.228 94.3354 190.616 94.3354 191.035V191.159C94.3354 191.578 94.2746 191.966 94.1528 192.324C94.0311 192.682 93.8538 192.996 93.6211 193.264C93.3919 193.529 93.1144 193.737 92.7886 193.887C92.4663 194.034 92.1011 194.107 91.6929 194.107C91.2847 194.107 90.9176 194.034 90.5918 193.887C90.266 193.737 89.9867 193.529 89.7539 193.264C89.5247 192.996 89.3493 192.682 89.2275 192.324C89.1058 191.966 89.0449 191.578 89.0449 191.159ZM90.0386 191.035V191.159C90.0386 191.449 90.0726 191.723 90.1406 191.98C90.2087 192.235 90.3107 192.46 90.4468 192.657C90.5864 192.854 90.7601 193.01 90.9678 193.125C91.1755 193.236 91.4172 193.291 91.6929 193.291C91.965 193.291 92.2031 193.236 92.4072 193.125C92.6149 193.01 92.7868 192.854 92.9229 192.657C93.0589 192.46 93.161 192.235 93.229 191.98C93.3006 191.723 93.3364 191.449 93.3364 191.159V191.035C93.3364 190.749 93.3006 190.478 93.229 190.224C93.161 189.966 93.0571 189.739 92.9175 189.542C92.7814 189.341 92.6095 189.184 92.4019 189.069C92.1978 188.955 91.9578 188.897 91.6821 188.897C91.41 188.897 91.1701 188.955 90.9624 189.069C90.7583 189.184 90.5864 189.341 90.4468 189.542C90.3107 189.739 90.2087 189.966 90.1406 190.224C90.0726 190.478 90.0386 190.749 90.0386 191.035ZM96.5752 189.429V194H95.5815V188.188H96.5215L96.5752 189.429ZM96.3389 190.874L95.9253 190.858C95.9289 190.46 95.988 190.093 96.1025 189.757C96.2171 189.417 96.3783 189.121 96.5859 188.871C96.7936 188.62 97.0407 188.427 97.3271 188.291C97.6172 188.151 97.9377 188.081 98.2886 188.081C98.575 188.081 98.8328 188.12 99.062 188.199C99.2912 188.274 99.4863 188.396 99.6475 188.564C99.8122 188.733 99.9375 188.951 100.023 189.22C100.109 189.485 100.152 189.809 100.152 190.192V194H99.1533V190.181C99.1533 189.877 99.1086 189.633 99.019 189.451C98.9295 189.264 98.7988 189.13 98.627 189.048C98.4551 188.962 98.2438 188.919 97.9932 188.919C97.7461 188.919 97.5205 188.971 97.3164 189.075C97.1159 189.179 96.9422 189.322 96.7954 189.504C96.6522 189.687 96.5394 189.896 96.457 190.133C96.3783 190.366 96.3389 190.613 96.3389 190.874Z" fill="#20336B"/>
<path d="M284.157 390.945L285 390.945L285 394.855L284.157 394.855L284.157 390.945ZM277.18 394.651L285 394.651L285 395.688L277.18 395.688L277.18 394.651ZM279.188 388.829L285 388.829L285 389.828L279.188 389.828L279.188 388.829ZM277.647 389.903C277.486 389.903 277.35 389.855 277.239 389.758C277.128 389.658 277.072 389.511 277.072 389.318C277.072 389.128 277.128 388.983 277.239 388.883C277.35 388.779 277.486 388.727 277.647 388.727C277.801 388.727 277.933 388.779 278.044 388.883C278.152 388.983 278.206 389.128 278.206 389.318C278.206 389.511 278.152 389.658 278.044 389.758C277.933 389.855 277.801 389.903 277.647 389.903ZM280.429 386.24L285 386.24L285 387.234L279.188 387.234L279.188 386.294L280.429 386.24ZM281.874 386.477L281.858 386.89C281.46 386.887 281.093 386.827 280.757 386.713C280.417 386.598 280.121 386.437 279.871 386.229C279.62 386.022 279.427 385.775 279.291 385.488C279.151 385.198 279.081 384.878 279.081 384.527C279.081 384.24 279.12 383.983 279.199 383.753C279.274 383.524 279.396 383.329 279.564 383.168C279.733 383.003 279.951 382.878 280.22 382.792C280.485 382.706 280.809 382.663 281.192 382.663L285 382.663L285 383.662L281.181 383.662C280.877 383.662 280.633 383.707 280.451 383.796C280.264 383.886 280.13 384.017 280.048 384.188C279.962 384.36 279.919 384.572 279.919 384.822C279.919 385.069 279.971 385.295 280.075 385.499C280.179 385.7 280.322 385.873 280.504 386.02C280.687 386.163 280.896 386.276 281.133 386.358C281.366 386.437 281.613 386.477 281.874 386.477ZM276.75 380.155L285 380.155L285 381.154L276.75 381.154L276.75 380.155ZM279.188 376.604L281.901 379.14L283.373 380.558L282.314 380.638L281.101 379.623L279.188 377.818L279.188 376.604ZM285 377.512L282.229 379.585L281.342 379.07L285 376.341L285 377.512ZM279.188 374.499L285 374.499L285 375.498L279.188 375.498L279.188 374.499ZM277.647 375.573C277.486 375.573 277.35 375.525 277.239 375.428C277.128 375.328 277.072 375.181 277.072 374.988C277.072 374.798 277.128 374.653 277.239 374.553C277.35 374.449 277.486 374.397 277.647 374.397C277.801 374.397 277.933 374.449 278.044 374.553C278.152 374.653 278.206 374.798 278.206 374.988C278.206 375.181 278.152 375.328 278.044 375.428C277.933 375.525 277.801 375.573 277.647 375.573ZM280.429 371.91L285 371.91L285 372.904L279.188 372.904L279.188 371.964L280.429 371.91ZM281.874 372.146L281.858 372.56C281.46 372.556 281.093 372.497 280.757 372.383C280.417 372.268 280.121 372.107 279.871 371.899C279.62 371.692 279.427 371.445 279.291 371.158C279.151 370.868 279.081 370.548 279.081 370.197C279.081 369.91 279.12 369.653 279.199 369.423C279.274 369.194 279.396 368.999 279.564 368.838C279.733 368.673 279.951 368.548 280.22 368.462C280.485 368.376 280.809 368.333 281.192 368.333L285 368.333L285 369.332L281.181 369.332C280.877 369.332 280.633 369.377 280.451 369.466C280.264 369.556 280.13 369.687 280.048 369.858C279.962 370.03 279.919 370.242 279.919 370.492C279.919 370.739 279.971 370.965 280.075 371.169C280.179 371.369 280.322 371.543 280.504 371.69C280.687 371.833 280.896 371.946 281.133 372.028C281.366 372.107 281.613 372.146 281.874 372.146ZM279.188 363.059L279.188 362.156L284.876 362.156C285.389 362.156 285.825 362.26 286.187 362.468C286.549 362.675 286.823 362.965 287.009 363.338C287.199 363.707 287.293 364.133 287.293 364.616C287.293 364.817 287.261 365.053 287.197 365.325C287.136 365.594 287.03 365.859 286.88 366.12C286.733 366.378 286.534 366.595 286.284 366.77L285.693 366.249C285.986 366.006 286.191 365.751 286.305 365.486C286.42 365.218 286.477 364.953 286.477 364.691C286.477 364.376 286.418 364.104 286.3 363.875C286.182 363.646 286.006 363.469 285.773 363.343C285.544 363.214 285.261 363.15 284.925 363.15L280.467 363.15L279.188 363.059ZM282.159 367.06L282.046 367.06C281.602 367.06 281.199 367.008 280.837 366.904C280.472 366.797 280.159 366.645 279.897 366.448C279.636 366.247 279.436 366.006 279.296 365.723C279.153 365.44 279.081 365.121 279.081 364.767C279.081 364.401 279.146 364.083 279.274 363.811C279.4 363.535 279.584 363.302 279.828 363.112C280.068 362.919 280.358 362.767 280.698 362.656C281.038 362.545 281.423 362.468 281.853 362.425L282.347 362.425C282.773 362.464 283.156 362.541 283.496 362.656C283.836 362.767 284.126 362.919 284.366 363.112C284.606 363.302 284.791 363.535 284.919 363.811C285.045 364.086 285.107 364.409 285.107 364.777C285.107 365.125 285.034 365.44 284.887 365.723C284.74 366.002 284.535 366.242 284.27 366.442C284.005 366.643 283.693 366.797 283.335 366.904C282.973 367.008 282.581 367.06 282.159 367.06ZM282.046 366.066L282.159 366.066C282.449 366.066 282.721 366.038 282.975 365.98C283.229 365.92 283.453 365.828 283.646 365.707C283.84 365.581 283.992 365.422 284.103 365.229C284.21 365.035 284.264 364.804 284.264 364.536C284.264 364.206 284.194 363.934 284.055 363.719C283.915 363.504 283.731 363.334 283.501 363.209C283.272 363.08 283.023 362.98 282.755 362.908L281.46 362.908C281.264 362.948 281.074 363.008 280.891 363.091C280.705 363.17 280.54 363.273 280.397 363.402C280.25 363.528 280.134 363.683 280.048 363.87C279.962 364.056 279.919 364.274 279.919 364.525C279.919 364.797 279.976 365.032 280.091 365.229C280.202 365.422 280.356 365.581 280.553 365.707C280.746 365.828 280.972 365.92 281.229 365.98C281.484 366.038 281.756 366.066 282.046 366.066Z" fill="#20336B"/>
<path d="M34.0035 308V462.678C33.8365 475.274 39.5181 500.465 70.5948 500.465C100.167 500.465 185.536 499.962 239 499.962" stroke="#4ABCEB"/>
<path d="M239.998 481H80.3232C71.6927 481 58.3996 468.649 58.7449 450.351C59.0901 432.053 58.8893 348.493 58.7455 309" stroke="#FF5900"/>
</svg>
