<svg width="382" height="404" viewBox="0 0 382 404" fill="none" xmlns="http://www.w3.org/2000/svg">
<path d="M137 309C137 323.4 146 328.5 153 328.5C176.129 328.5 217.329 328.5 232 328.5C246.671 328.5 251.159 335.071 250.994 338.5V345V354H261.5M261.5 354V251.5M261.5 354V396.5H360.5C367.167 397 380.5 394.9 380.5 382.5C380.5 370.1 380.5 262.667 380.5 210.5" stroke="#4560B0" stroke-width="1.5"/>
<path d="M90.9983 80C72.3654 80 31.697 80 18.0869 80C4.47675 80 1.07422 87.1268 1.07422 90.6901V113" stroke="#4ABCEB" stroke-width="1.5"/>
<path d="M137 0V81M137 81V213V258H198V201H261V155V81H137Z" stroke="#B2B2B2" stroke-width="1.5" stroke-dasharray="4 4"/>
<path d="M19.9331 333.12L19.9331 335.209L19.0898 335.209L19.0898 333.12C19.0898 332.715 19.0254 332.387 18.8965 332.137C18.7676 331.886 18.5885 331.703 18.3594 331.589C18.1302 331.471 17.8688 331.412 17.5752 331.412C17.3066 331.412 17.0542 331.471 16.8179 331.589C16.5815 331.703 16.3918 331.886 16.2485 332.137C16.1017 332.387 16.0283 332.715 16.0283 333.12L16.0283 334.967L23 334.967L23 336.004L15.1797 336.004L15.1797 333.12C15.1797 332.529 15.2817 332.029 15.4858 331.621C15.6899 331.213 15.9728 330.903 16.3345 330.692C16.6925 330.481 17.1025 330.375 17.5645 330.375C18.0658 330.375 18.4937 330.481 18.8481 330.692C19.2026 330.903 19.473 331.213 19.6592 331.621C19.8418 332.029 19.9331 332.529 19.9331 333.12ZM22.0063 325.853L19.0146 325.853C18.7855 325.853 18.5868 325.899 18.4185 325.992C18.2466 326.082 18.1141 326.218 18.021 326.4C17.9279 326.583 17.8813 326.809 17.8813 327.077C17.8813 327.328 17.9243 327.548 18.0103 327.738C18.0962 327.924 18.209 328.071 18.3486 328.178C18.4883 328.282 18.6387 328.334 18.7998 328.334L18.7998 329.328C18.5921 329.328 18.3862 329.274 18.1821 329.167C17.978 329.059 17.7936 328.905 17.6289 328.705C17.4606 328.5 17.3281 328.257 17.2314 327.974C17.1312 327.688 17.0811 327.369 17.0811 327.018C17.0811 326.596 17.1527 326.223 17.2959 325.901C17.4391 325.575 17.6558 325.321 17.9458 325.138C18.2323 324.952 18.5921 324.859 19.0254 324.859L21.7324 324.859C21.9258 324.859 22.1317 324.843 22.3501 324.811C22.5685 324.775 22.7565 324.723 22.9141 324.655L23 324.655L23 325.691C22.8854 325.742 22.7332 325.781 22.5435 325.81C22.3501 325.838 22.1711 325.853 22.0063 325.853ZM19.4766 325.681L20.1748 325.67L20.1748 326.674C20.1748 326.957 20.1981 327.21 20.2446 327.432C20.2876 327.654 20.3538 327.84 20.4434 327.99C20.5329 328.141 20.6457 328.255 20.7817 328.334C20.9142 328.413 21.07 328.452 21.249 328.452C21.4316 328.452 21.5981 328.411 21.7485 328.329C21.8989 328.246 22.0189 328.123 22.1084 327.958C22.1943 327.79 22.2373 327.584 22.2373 327.34C22.2373 327.036 22.1729 326.767 22.0439 326.535C21.915 326.302 21.7575 326.118 21.5713 325.981C21.3851 325.842 21.2043 325.767 21.0288 325.756L21.5068 325.332C21.6572 325.357 21.8237 325.425 22.0063 325.536C22.189 325.647 22.3644 325.795 22.5327 325.981C22.6974 326.164 22.8353 326.382 22.9463 326.637C23.0537 326.887 23.1074 327.17 23.1074 327.485C23.1074 327.879 23.0304 328.225 22.8765 328.522C22.7225 328.816 22.5166 329.045 22.2588 329.209C21.9974 329.371 21.7056 329.451 21.3833 329.451C21.0718 329.451 20.7979 329.39 20.5615 329.269C20.3216 329.147 20.1229 328.971 19.9653 328.742C19.8042 328.513 19.6825 328.237 19.6001 327.915C19.5177 327.593 19.4766 327.233 19.4766 326.835L19.4766 325.681ZM22.3984 321.749L17.1885 320.132L17.1885 319.069L23.897 321.4C24.0402 321.454 24.1942 321.525 24.3589 321.615C24.5272 321.701 24.6865 321.812 24.8369 321.948C24.9873 322.084 25.109 322.249 25.2021 322.442C25.2988 322.632 25.3472 322.859 25.3472 323.124C25.3472 323.203 25.3364 323.303 25.3149 323.425C25.2935 323.547 25.2756 323.632 25.2612 323.683L24.4556 323.688C24.4591 323.659 24.4627 323.615 24.4663 323.554C24.4735 323.489 24.4771 323.444 24.4771 323.419C24.4771 323.194 24.4466 323.002 24.3857 322.845C24.3284 322.687 24.23 322.555 24.0903 322.447C23.9543 322.336 23.7663 322.241 23.5264 322.163L22.3984 321.749ZM17.1885 322.936L21.7002 321.427L22.7476 321.169L23.1128 321.883L17.1885 324.021L17.1885 322.936ZM18.3433 317.184L23 317.184L23 318.183L17.1885 318.183L17.1885 317.237L18.3433 317.184ZM19.874 317.388L19.8579 317.85C19.4604 317.846 19.0934 317.794 18.7568 317.694C18.4167 317.594 18.1213 317.445 17.8706 317.248C17.62 317.051 17.4266 316.806 17.2905 316.512C17.1509 316.219 17.0811 315.878 17.0811 315.492C17.0811 315.22 17.1204 314.969 17.1992 314.74C17.2744 314.511 17.3944 314.312 17.5591 314.144C17.7238 313.975 17.9351 313.845 18.1929 313.751C18.4507 313.658 18.7622 313.612 19.1274 313.612L23 313.612L23 314.605L19.1758 314.605C18.8714 314.605 18.6279 314.657 18.4453 314.761C18.2627 314.861 18.1302 315.005 18.0479 315.191C17.9619 315.377 17.9189 315.596 17.9189 315.846C17.9189 316.14 17.9709 316.385 18.0747 316.582C18.1785 316.779 18.3218 316.937 18.5044 317.055C18.687 317.173 18.8965 317.259 19.1328 317.312C19.3656 317.363 19.6126 317.388 19.874 317.388ZM19.3262 313.623L19.5303 314.289C19.2116 314.285 18.9054 314.233 18.6118 314.133C18.3182 314.029 18.0568 313.88 17.8276 313.687C17.5985 313.49 17.4176 313.248 17.2852 312.962C17.1491 312.675 17.0811 312.348 17.0811 311.979C17.0811 311.667 17.1222 311.392 17.2046 311.152C17.2869 310.908 17.4141 310.704 17.5859 310.54C17.7542 310.371 17.9709 310.244 18.2358 310.158C18.5008 310.072 18.8159 310.029 19.1812 310.029L23 310.029L23 311.028L19.1704 311.028C18.8446 311.028 18.5921 311.08 18.4131 311.184C18.2305 311.284 18.1034 311.428 18.0317 311.614C17.9565 311.796 17.9189 312.015 17.9189 312.269C17.9189 312.487 17.9565 312.681 18.0317 312.849C18.1069 313.017 18.2108 313.159 18.3433 313.273C18.4722 313.388 18.6208 313.476 18.7891 313.537C18.9574 313.594 19.1364 313.623 19.3262 313.623ZM23.1074 306.114C23.1074 306.518 23.0394 306.885 22.9033 307.215C22.7637 307.541 22.5685 307.822 22.3179 308.058C22.0672 308.291 21.77 308.47 21.4263 308.595C21.0825 308.721 20.7065 308.783 20.2983 308.783L20.0728 308.783C19.6001 308.783 19.1794 308.713 18.8105 308.574C18.4381 308.434 18.123 308.244 17.8652 308.004C17.6074 307.764 17.4123 307.492 17.2798 307.188C17.1473 306.884 17.0811 306.569 17.0811 306.243C17.0811 305.827 17.1527 305.469 17.2959 305.168C17.4391 304.864 17.6396 304.615 17.8975 304.422C18.1517 304.229 18.4525 304.085 18.7998 303.992C19.1436 303.899 19.5195 303.853 19.9277 303.853L20.3735 303.853L20.3735 308.192L19.5625 308.192L19.5625 304.846L19.4873 304.846C19.2295 304.861 18.9788 304.914 18.7354 305.007C18.4919 305.097 18.2913 305.24 18.1338 305.437C17.9762 305.634 17.8975 305.903 17.8975 306.243C17.8975 306.468 17.9458 306.676 18.0425 306.866C18.1356 307.056 18.2752 307.218 18.4614 307.354C18.6476 307.491 18.875 307.596 19.1436 307.671C19.4121 307.747 19.7218 307.784 20.0728 307.784L20.2983 307.784C20.5741 307.784 20.8337 307.747 21.0771 307.671C21.3171 307.593 21.5283 307.48 21.7109 307.333C21.8936 307.183 22.0368 307.002 22.1406 306.791C22.2445 306.576 22.2964 306.332 22.2964 306.06C22.2964 305.709 22.2248 305.412 22.0815 305.168C21.9383 304.925 21.7467 304.712 21.5068 304.529L21.9849 303.928C22.1746 304.053 22.3555 304.212 22.5273 304.406C22.6992 304.599 22.8389 304.837 22.9463 305.12C23.0537 305.399 23.1074 305.731 23.1074 306.114ZM18.4292 301.699L23 301.699L23 302.692L17.1885 302.692L17.1885 301.752L18.4292 301.699ZM19.874 301.935L19.8579 302.349C19.4604 302.345 19.0934 302.286 18.7568 302.171C18.4167 302.057 18.1213 301.896 17.8706 301.688C17.62 301.48 17.4266 301.233 17.2905 300.947C17.1509 300.657 17.0811 300.336 17.0811 299.985C17.0811 299.699 17.1204 299.441 17.1992 299.212C17.2744 298.983 17.3962 298.788 17.5645 298.626C17.7327 298.462 17.9512 298.336 18.2197 298.25C18.4847 298.165 18.8088 298.122 19.1919 298.122L23 298.122L23 299.121L19.1812 299.121C18.8768 299.121 18.6333 299.165 18.4507 299.255C18.2645 299.344 18.1302 299.475 18.0478 299.647C17.9619 299.819 17.9189 300.03 17.9189 300.281C17.9189 300.528 17.9709 300.753 18.0747 300.958C18.1785 301.158 18.3218 301.332 18.5044 301.479C18.687 301.622 18.8965 301.735 19.1328 301.817C19.3656 301.896 19.6126 301.935 19.874 301.935ZM17.1885 294.179L17.9512 294.179L17.9512 297.321L17.1885 297.321L17.1885 294.179ZM15.7759 296.258L15.7759 295.264L21.5605 295.264C21.7575 295.264 21.9061 295.234 22.0063 295.173C22.1066 295.112 22.1728 295.033 22.2051 294.937C22.2373 294.84 22.2534 294.736 22.2534 294.625C22.2534 294.543 22.2463 294.457 22.2319 294.367C22.214 294.274 22.1997 294.204 22.189 294.158L23 294.152C23.0251 294.231 23.0483 294.335 23.0698 294.464C23.0949 294.589 23.1074 294.741 23.1074 294.92C23.1074 295.164 23.0591 295.388 22.9624 295.592C22.8657 295.796 22.7046 295.959 22.479 296.081C22.2498 296.199 21.9419 296.258 21.5552 296.258L15.7759 296.258ZM21.4585 289.63C21.3153 289.63 21.1828 289.662 21.061 289.727C20.9357 289.787 20.8229 289.915 20.7227 290.108C20.6188 290.298 20.5293 290.584 20.4541 290.967C20.3861 291.29 20.3055 291.581 20.2124 291.843C20.1193 292.101 20.0065 292.321 19.874 292.503C19.7415 292.682 19.5858 292.82 19.4067 292.917C19.2277 293.014 19.0182 293.062 18.7783 293.062C18.5492 293.062 18.3325 293.012 18.1284 292.912C17.9243 292.808 17.7435 292.663 17.5859 292.477C17.4284 292.287 17.3048 292.059 17.2153 291.794C17.1258 291.529 17.0811 291.234 17.0811 290.908C17.0811 290.443 17.1634 290.045 17.3281 289.716C17.4928 289.386 17.7131 289.134 17.9888 288.958C18.2609 288.783 18.5635 288.695 18.8965 288.695L18.8965 289.689C18.7353 289.689 18.5796 289.737 18.4292 289.834C18.2752 289.927 18.1481 290.065 18.0478 290.248C17.9476 290.427 17.8975 290.647 17.8975 290.908C17.8975 291.184 17.9404 291.408 18.0264 291.58C18.1087 291.748 18.2144 291.871 18.3433 291.95C18.4722 292.025 18.6082 292.063 18.7515 292.063C18.8589 292.063 18.9556 292.045 19.0415 292.009C19.1239 291.97 19.2008 291.902 19.2725 291.805C19.3405 291.708 19.4049 291.572 19.4658 291.397C19.5267 291.222 19.5876 290.998 19.6484 290.726C19.7559 290.249 19.8848 289.857 20.0352 289.549C20.1855 289.241 20.37 289.012 20.5884 288.862C20.8068 288.711 21.0718 288.636 21.3833 288.636C21.6375 288.636 21.8703 288.69 22.0815 288.797C22.2928 288.901 22.4754 289.053 22.6294 289.254C22.7798 289.451 22.8979 289.687 22.9839 289.963C23.0662 290.235 23.1074 290.541 23.1074 290.881C23.1074 291.393 23.0161 291.827 22.8335 292.181C22.6509 292.536 22.4145 292.804 22.1245 292.987C21.8345 293.169 21.5283 293.261 21.2061 293.261L21.2061 292.262C21.4782 292.247 21.6948 292.169 21.856 292.025C22.0135 291.882 22.1263 291.707 22.1943 291.499C22.2588 291.291 22.291 291.085 22.291 290.881C22.291 290.609 22.2552 290.382 22.1836 290.199C22.112 290.013 22.0135 289.872 21.8882 289.775C21.7629 289.678 21.6196 289.63 21.4585 289.63Z" fill="#20336B"/>
<path d="M169.055 323.157V324H165.145V323.157H169.055ZM165.349 316.18V324H164.312V316.18H165.349ZM171.171 318.188V324H170.172V318.188H171.171ZM170.097 316.647C170.097 316.486 170.145 316.35 170.242 316.239C170.342 316.128 170.489 316.072 170.682 316.072C170.872 316.072 171.017 316.128 171.117 316.239C171.221 316.35 171.273 316.486 171.273 316.647C171.273 316.801 171.221 316.933 171.117 317.044C171.017 317.152 170.872 317.206 170.682 317.206C170.489 317.206 170.342 317.152 170.242 317.044C170.145 316.933 170.097 316.801 170.097 316.647ZM173.76 319.429V324H172.766V318.188H173.706L173.76 319.429ZM173.523 320.874L173.11 320.858C173.113 320.46 173.173 320.093 173.287 319.757C173.402 319.417 173.563 319.121 173.771 318.871C173.978 318.62 174.225 318.427 174.512 318.291C174.802 318.151 175.122 318.081 175.473 318.081C175.76 318.081 176.017 318.12 176.247 318.199C176.476 318.274 176.671 318.396 176.832 318.564C176.997 318.733 177.122 318.951 177.208 319.22C177.294 319.485 177.337 319.809 177.337 320.192V324H176.338V320.181C176.338 319.877 176.293 319.633 176.204 319.451C176.114 319.264 175.983 319.13 175.812 319.048C175.64 318.962 175.428 318.919 175.178 318.919C174.931 318.919 174.705 318.971 174.501 319.075C174.3 319.179 174.127 319.322 173.98 319.504C173.837 319.687 173.724 319.896 173.642 320.133C173.563 320.366 173.523 320.613 173.523 320.874ZM179.845 315.75V324H178.846V315.75H179.845ZM183.396 318.188L180.86 320.901L179.442 322.373L179.362 321.314L180.377 320.101L182.182 318.188H183.396ZM182.488 324L180.415 321.229L180.93 320.342L183.659 324H182.488ZM185.501 318.188V324H184.502V318.188H185.501ZM184.427 316.647C184.427 316.486 184.475 316.35 184.572 316.239C184.672 316.128 184.819 316.072 185.012 316.072C185.202 316.072 185.347 316.128 185.447 316.239C185.551 316.35 185.603 316.486 185.603 316.647C185.603 316.801 185.551 316.933 185.447 317.044C185.347 317.152 185.202 317.206 185.012 317.206C184.819 317.206 184.672 317.152 184.572 317.044C184.475 316.933 184.427 316.801 184.427 316.647ZM188.09 319.429V324H187.096V318.188H188.036L188.09 319.429ZM187.854 320.874L187.44 320.858C187.444 320.46 187.503 320.093 187.617 319.757C187.732 319.417 187.893 319.121 188.101 318.871C188.308 318.62 188.555 318.427 188.842 318.291C189.132 318.151 189.452 318.081 189.803 318.081C190.09 318.081 190.347 318.12 190.577 318.199C190.806 318.274 191.001 318.396 191.162 318.564C191.327 318.733 191.452 318.951 191.538 319.22C191.624 319.485 191.667 319.809 191.667 320.192V324H190.668V320.181C190.668 319.877 190.623 319.633 190.534 319.451C190.444 319.264 190.313 319.13 190.142 319.048C189.97 318.962 189.758 318.919 189.508 318.919C189.261 318.919 189.035 318.971 188.831 319.075C188.631 319.179 188.457 319.322 188.31 319.504C188.167 319.687 188.054 319.896 187.972 320.133C187.893 320.366 187.854 320.613 187.854 320.874ZM196.941 318.188H197.844V323.876C197.844 324.389 197.74 324.825 197.532 325.187C197.325 325.549 197.035 325.823 196.662 326.009C196.293 326.199 195.867 326.293 195.384 326.293C195.183 326.293 194.947 326.261 194.675 326.197C194.406 326.136 194.141 326.03 193.88 325.88C193.622 325.733 193.405 325.534 193.23 325.284L193.751 324.693C193.994 324.986 194.249 325.191 194.514 325.305C194.782 325.42 195.047 325.477 195.309 325.477C195.624 325.477 195.896 325.418 196.125 325.3C196.354 325.182 196.531 325.006 196.657 324.773C196.786 324.544 196.85 324.261 196.85 323.925V319.467L196.941 318.188ZM192.94 321.159V321.046C192.94 320.602 192.992 320.199 193.096 319.837C193.203 319.472 193.355 319.159 193.552 318.897C193.753 318.636 193.994 318.436 194.277 318.296C194.56 318.153 194.879 318.081 195.233 318.081C195.599 318.081 195.917 318.146 196.189 318.274C196.465 318.4 196.698 318.584 196.888 318.828C197.081 319.068 197.233 319.358 197.344 319.698C197.455 320.038 197.532 320.423 197.575 320.853V321.347C197.536 321.773 197.459 322.156 197.344 322.496C197.233 322.836 197.081 323.126 196.888 323.366C196.698 323.606 196.465 323.791 196.189 323.919C195.914 324.045 195.591 324.107 195.223 324.107C194.875 324.107 194.56 324.034 194.277 323.887C193.998 323.74 193.758 323.535 193.558 323.27C193.357 323.005 193.203 322.693 193.096 322.335C192.992 321.973 192.94 321.581 192.94 321.159ZM193.934 321.046V321.159C193.934 321.449 193.962 321.721 194.02 321.975C194.08 322.229 194.172 322.453 194.293 322.646C194.419 322.84 194.578 322.992 194.771 323.103C194.965 323.21 195.196 323.264 195.464 323.264C195.794 323.264 196.066 323.194 196.281 323.055C196.496 322.915 196.666 322.731 196.791 322.501C196.92 322.272 197.02 322.023 197.092 321.755V320.46C197.052 320.264 196.992 320.074 196.909 319.891C196.83 319.705 196.727 319.54 196.598 319.397C196.472 319.25 196.317 319.134 196.13 319.048C195.944 318.962 195.726 318.919 195.475 318.919C195.203 318.919 194.968 318.976 194.771 319.091C194.578 319.202 194.419 319.356 194.293 319.553C194.172 319.746 194.08 319.972 194.02 320.229C193.962 320.484 193.934 320.756 193.934 321.046Z" fill="#20336B"/>
<path d="M14.1152 89.1797L14.1152 97H13.0786L13.0786 89.1797H14.1152ZM16.8438 92.4292V97H15.8501V91.1885H16.79L16.8438 92.4292ZM16.6074 93.874L16.1938 93.8579C16.1974 93.4604 16.2565 93.0934 16.3711 92.7568C16.4857 92.4167 16.6468 92.1213 16.8545 91.8706C17.0622 91.62 17.3092 91.4266 17.5957 91.2905C17.8857 91.1509 18.2062 91.0811 18.5571 91.0811C18.8436 91.0811 19.1014 91.1204 19.3306 91.1992C19.5597 91.2744 19.7549 91.3962 19.916 91.5645C20.0807 91.7327 20.2061 91.9512 20.292 92.2197C20.3779 92.4847 20.4209 92.8088 20.4209 93.1919V97H19.4219V93.1812C19.4219 92.8768 19.3771 92.6333 19.2876 92.4507C19.1981 92.2645 19.0674 92.1302 18.8955 92.0479C18.7236 91.9619 18.5124 91.9189 18.2617 91.9189C18.0146 91.9189 17.7891 91.9709 17.585 92.0747C17.3844 92.1785 17.2108 92.3218 17.064 92.5044C16.9207 92.687 16.8079 92.8965 16.7256 93.1328C16.6468 93.3656 16.6074 93.6126 16.6074 93.874ZM24.3633 91.1885V91.9512H21.2212V91.1885H24.3633ZM22.2847 89.7759H23.2783V95.5605C23.2783 95.7575 23.3088 95.9061 23.3696 96.0063C23.4305 96.1066 23.5093 96.1729 23.606 96.2051C23.7026 96.2373 23.8065 96.2534 23.9175 96.2534C23.9998 96.2534 24.0858 96.2463 24.1753 96.2319C24.2684 96.214 24.3382 96.1997 24.3848 96.189L24.3901 97C24.3114 97.0251 24.2075 97.0483 24.0786 97.0698C23.9533 97.0949 23.8011 97.1074 23.6221 97.1074C23.3786 97.1074 23.1548 97.0591 22.9507 96.9624C22.7466 96.8657 22.5837 96.7046 22.4619 96.479C22.3438 96.2498 22.2847 95.9419 22.2847 95.5552V89.7759ZM27.9404 97.1074C27.5358 97.1074 27.1688 97.0394 26.8394 96.9033C26.5135 96.7637 26.2324 96.5685 25.9961 96.3179C25.7633 96.0672 25.5843 95.77 25.459 95.4263C25.3337 95.0825 25.271 94.7065 25.271 94.2983V94.0728C25.271 93.6001 25.3408 93.1794 25.4805 92.8105C25.6201 92.4382 25.8099 92.123 26.0498 91.8652C26.2897 91.6074 26.5618 91.4123 26.8662 91.2798C27.1706 91.1473 27.4857 91.0811 27.8115 91.0811C28.2269 91.0811 28.585 91.1527 28.8857 91.2959C29.1901 91.4391 29.439 91.6396 29.6323 91.8975C29.8257 92.1517 29.9689 92.4525 30.062 92.7998C30.1551 93.1436 30.2017 93.5195 30.2017 93.9277V94.3735H25.8618V93.5625H29.208V93.4873C29.1937 93.2295 29.14 92.9788 29.0469 92.7354C28.9574 92.4919 28.8141 92.2913 28.6172 92.1338C28.4202 91.9762 28.1517 91.8975 27.8115 91.8975C27.5859 91.8975 27.3783 91.9458 27.1885 92.0425C26.9987 92.1356 26.8358 92.2752 26.6997 92.4614C26.5636 92.6476 26.458 92.875 26.3828 93.1436C26.3076 93.4121 26.27 93.7218 26.27 94.0728V94.2983C26.27 94.5741 26.3076 94.8337 26.3828 95.0771C26.4616 95.3171 26.5744 95.5283 26.7212 95.7109C26.8716 95.8936 27.0524 96.0368 27.2637 96.1406C27.4785 96.2445 27.722 96.2964 27.9941 96.2964C28.3451 96.2964 28.6423 96.2248 28.8857 96.0815C29.1292 95.9383 29.3423 95.7467 29.5249 95.5068L30.1265 95.9849C30.0011 96.1746 29.8418 96.3555 29.6484 96.5273C29.4551 96.6992 29.217 96.8389 28.9341 96.9463C28.6548 97.0537 28.3236 97.1074 27.9404 97.1074ZM35.127 91.1885H36.0293V96.8765C36.0293 97.3885 35.9255 97.8254 35.7178 98.187C35.5101 98.5487 35.2201 98.8226 34.8477 99.0088C34.4788 99.1986 34.0527 99.2935 33.5693 99.2935C33.3688 99.2935 33.1325 99.2612 32.8604 99.1968C32.5918 99.1359 32.3268 99.0303 32.0654 98.8799C31.8076 98.7331 31.591 98.5343 31.4155 98.2837L31.9365 97.6929C32.18 97.9865 32.4342 98.1906 32.6992 98.3052C32.9678 98.4198 33.2327 98.4771 33.4941 98.4771C33.8092 98.4771 34.0814 98.418 34.3105 98.2998C34.5397 98.1816 34.717 98.0062 34.8423 97.7734C34.9712 97.5443 35.0356 97.2614 35.0356 96.9248V92.4668L35.127 91.1885ZM31.1255 94.1587V94.0459C31.1255 93.6019 31.1774 93.1991 31.2812 92.8374C31.3887 92.4722 31.5409 92.1589 31.7378 91.8975C31.9383 91.6361 32.18 91.4355 32.4629 91.2959C32.7458 91.1527 33.0645 91.0811 33.4189 91.0811C33.7842 91.0811 34.1029 91.1455 34.375 91.2744C34.6507 91.3997 34.8835 91.5841 35.0732 91.8276C35.2666 92.0675 35.4188 92.3576 35.5298 92.6978C35.6408 93.0379 35.7178 93.4229 35.7607 93.8525V94.3467C35.7214 94.7728 35.6444 95.1559 35.5298 95.4961C35.4188 95.8363 35.2666 96.1263 35.0732 96.3662C34.8835 96.6061 34.6507 96.7905 34.375 96.9194C34.0993 97.0448 33.777 97.1074 33.4082 97.1074C33.0609 97.1074 32.7458 97.034 32.4629 96.8872C32.1836 96.7404 31.9437 96.5345 31.7432 96.2695C31.5426 96.0046 31.3887 95.693 31.2812 95.335C31.1774 94.9733 31.1255 94.5812 31.1255 94.1587ZM32.1191 94.0459V94.1587C32.1191 94.4487 32.1478 94.7209 32.2051 94.9751C32.266 95.2293 32.3573 95.4531 32.479 95.6465C32.6043 95.8398 32.7637 95.992 32.957 96.103C33.1504 96.2104 33.3813 96.2642 33.6499 96.2642C33.9793 96.2642 34.2515 96.1943 34.4663 96.0547C34.6812 95.915 34.8512 95.7306 34.9766 95.5015C35.1055 95.2723 35.2057 95.0234 35.2773 94.7549V93.4604C35.238 93.2635 35.1771 93.0737 35.0947 92.8911C35.016 92.7049 34.9121 92.5402 34.7832 92.397C34.6579 92.2502 34.5021 92.1338 34.3159 92.0479C34.1297 91.9619 33.9113 91.9189 33.6606 91.9189C33.3885 91.9189 33.154 91.9762 32.957 92.0908C32.7637 92.2018 32.6043 92.3558 32.479 92.5527C32.3573 92.7461 32.266 92.9717 32.2051 93.2295C32.1478 93.4837 32.1191 93.7559 32.1191 94.0459ZM38.5322 92.1016V97H37.5386V91.1885H38.5054L38.5322 92.1016ZM40.3477 91.1562L40.3423 92.0801C40.2599 92.0622 40.1812 92.0514 40.106 92.0479C40.0343 92.0407 39.952 92.0371 39.8589 92.0371C39.6297 92.0371 39.4274 92.0729 39.252 92.1445C39.0765 92.2161 38.9279 92.3164 38.8062 92.4453C38.6844 92.5742 38.5877 92.7282 38.5161 92.9072C38.4481 93.0827 38.4033 93.276 38.3818 93.4873L38.1025 93.6484C38.1025 93.2975 38.1366 92.9681 38.2046 92.6602C38.2762 92.3522 38.3854 92.0801 38.5322 91.8438C38.679 91.6038 38.8652 91.4176 39.0908 91.2852C39.32 91.1491 39.5921 91.0811 39.9072 91.0811C39.9788 91.0811 40.0612 91.09 40.1543 91.1079C40.2474 91.1222 40.3118 91.1383 40.3477 91.1562ZM44.478 96.0063V93.0146C44.478 92.7855 44.4315 92.5868 44.3384 92.4185C44.2489 92.2466 44.1128 92.1141 43.9302 92.021C43.7476 91.9279 43.522 91.8813 43.2534 91.8813C43.0028 91.8813 42.7826 91.9243 42.5928 92.0103C42.4066 92.0962 42.2598 92.209 42.1523 92.3486C42.0485 92.4883 41.9966 92.6387 41.9966 92.7998H41.0029C41.0029 92.5921 41.0566 92.3862 41.1641 92.1821C41.2715 91.978 41.4255 91.7936 41.626 91.6289C41.8301 91.4606 42.0736 91.3281 42.3564 91.2314C42.6429 91.1312 42.9616 91.0811 43.3125 91.0811C43.735 91.0811 44.1074 91.1527 44.4297 91.2959C44.7555 91.4391 45.0098 91.6558 45.1924 91.9458C45.3786 92.2323 45.4717 92.5921 45.4717 93.0254V95.7324C45.4717 95.9258 45.4878 96.1317 45.52 96.3501C45.5558 96.5685 45.6077 96.7565 45.6758 96.9141V97H44.6392C44.589 96.8854 44.5496 96.7332 44.521 96.5435C44.4924 96.3501 44.478 96.1711 44.478 96.0063ZM44.6499 93.4766L44.6606 94.1748H43.6562C43.3734 94.1748 43.1209 94.1981 42.8989 94.2446C42.6769 94.2876 42.4907 94.3538 42.3403 94.4434C42.1899 94.5329 42.0754 94.6457 41.9966 94.7817C41.9178 94.9142 41.8784 95.07 41.8784 95.249C41.8784 95.4316 41.9196 95.5981 42.002 95.7485C42.0843 95.8989 42.2078 96.0189 42.3726 96.1084C42.5409 96.1943 42.7467 96.2373 42.9902 96.2373C43.2946 96.2373 43.5632 96.1729 43.7959 96.0439C44.0286 95.915 44.2131 95.7575 44.3491 95.5713C44.4888 95.3851 44.564 95.2043 44.5747 95.0288L44.999 95.5068C44.974 95.6572 44.9059 95.8237 44.7949 96.0063C44.6839 96.189 44.5353 96.3644 44.3491 96.5327C44.1665 96.6974 43.9481 96.8353 43.6938 96.9463C43.4432 97.0537 43.1603 97.1074 42.8452 97.1074C42.4513 97.1074 42.1058 97.0304 41.8086 96.8765C41.515 96.7225 41.2858 96.5166 41.1211 96.2588C40.96 95.9974 40.8794 95.7056 40.8794 95.3833C40.8794 95.0718 40.9403 94.7979 41.062 94.5615C41.1838 94.3216 41.3592 94.1229 41.5884 93.9653C41.8175 93.8042 42.0933 93.6825 42.4155 93.6001C42.7378 93.5177 43.0977 93.4766 43.4951 93.4766H44.6499ZM49.4678 91.1885V91.9512H46.3257V91.1885H49.4678ZM47.3892 89.7759H48.3828V95.5605C48.3828 95.7575 48.4132 95.9061 48.4741 96.0063C48.535 96.1066 48.6138 96.1729 48.7104 96.2051C48.8071 96.2373 48.911 96.2534 49.022 96.2534C49.1043 96.2534 49.1903 96.2463 49.2798 96.2319C49.3729 96.214 49.4427 96.1997 49.4893 96.189L49.4946 97C49.4159 97.0251 49.312 97.0483 49.1831 97.0698C49.0578 97.0949 48.9056 97.1074 48.7266 97.1074C48.4831 97.1074 48.2593 97.0591 48.0552 96.9624C47.8511 96.8657 47.6882 96.7046 47.5664 96.479C47.4482 96.2498 47.3892 95.9419 47.3892 95.5552V89.7759ZM51.7129 91.1885V97H50.7139V91.1885H51.7129ZM50.6387 89.647C50.6387 89.4858 50.687 89.3498 50.7837 89.2388C50.884 89.1278 51.0308 89.0723 51.2241 89.0723C51.4139 89.0723 51.5589 89.1278 51.6592 89.2388C51.763 89.3498 51.8149 89.4858 51.8149 89.647C51.8149 89.8009 51.763 89.9334 51.6592 90.0444C51.5589 90.1519 51.4139 90.2056 51.2241 90.2056C51.0308 90.2056 50.884 90.1519 50.7837 90.0444C50.687 89.9334 50.6387 89.8009 50.6387 89.647ZM53.0449 94.1587V94.0352C53.0449 93.6162 53.1058 93.2277 53.2275 92.8696C53.3493 92.508 53.5247 92.1947 53.7539 91.9297C53.9831 91.6611 54.2606 91.4535 54.5864 91.3066C54.9123 91.1562 55.2775 91.0811 55.6821 91.0811C56.0903 91.0811 56.4574 91.1562 56.7832 91.3066C57.1126 91.4535 57.3919 91.6611 57.6211 91.9297C57.8538 92.1947 58.0311 92.508 58.1528 92.8696C58.2746 93.2277 58.3354 93.6162 58.3354 94.0352V94.1587C58.3354 94.5776 58.2746 94.9661 58.1528 95.3242C58.0311 95.6823 57.8538 95.9956 57.6211 96.2642C57.3919 96.5291 57.1144 96.7368 56.7886 96.8872C56.4663 97.034 56.1011 97.1074 55.6929 97.1074C55.2847 97.1074 54.9176 97.034 54.5918 96.8872C54.266 96.7368 53.9867 96.5291 53.7539 96.2642C53.5247 95.9956 53.3493 95.6823 53.2275 95.3242C53.1058 94.9661 53.0449 94.5776 53.0449 94.1587ZM54.0386 94.0352V94.1587C54.0386 94.4487 54.0726 94.7227 54.1406 94.9805C54.2087 95.2347 54.3107 95.4603 54.4468 95.6572C54.5864 95.8542 54.7601 96.0099 54.9678 96.1245C55.1755 96.2355 55.4172 96.291 55.6929 96.291C55.965 96.291 56.2031 96.2355 56.4072 96.1245C56.6149 96.0099 56.7868 95.8542 56.9229 95.6572C57.0589 95.4603 57.161 95.2347 57.229 94.9805C57.3006 94.7227 57.3364 94.4487 57.3364 94.1587V94.0352C57.3364 93.7487 57.3006 93.4784 57.229 93.2241C57.161 92.9663 57.0571 92.7389 56.9175 92.542C56.7814 92.3415 56.6095 92.1839 56.4019 92.0693C56.1978 91.9548 55.9578 91.8975 55.6821 91.8975C55.41 91.8975 55.1701 91.9548 54.9624 92.0693C54.7583 92.1839 54.5864 92.3415 54.4468 92.542C54.3107 92.7389 54.2087 92.9663 54.1406 93.2241C54.0726 93.4784 54.0386 93.7487 54.0386 94.0352ZM60.5752 92.4292V97H59.5815V91.1885H60.5215L60.5752 92.4292ZM60.3389 93.874L59.9253 93.8579C59.9289 93.4604 59.988 93.0934 60.1025 92.7568C60.2171 92.4167 60.3783 92.1213 60.5859 91.8706C60.7936 91.62 61.0407 91.4266 61.3271 91.2905C61.6172 91.1509 61.9377 91.0811 62.2886 91.0811C62.575 91.0811 62.8328 91.1204 63.062 91.1992C63.2912 91.2744 63.4863 91.3962 63.6475 91.5645C63.8122 91.7327 63.9375 91.9512 64.0234 92.2197C64.1094 92.4847 64.1523 92.8088 64.1523 93.1919V97H63.1533V93.1812C63.1533 92.8768 63.1086 92.6333 63.019 92.4507C62.9295 92.2645 62.7988 92.1302 62.627 92.0479C62.4551 91.9619 62.2438 91.9189 61.9932 91.9189C61.7461 91.9189 61.5205 91.9709 61.3164 92.0747C61.1159 92.1785 60.9422 92.3218 60.7954 92.5044C60.6522 92.687 60.5394 92.8965 60.457 93.1328C60.3783 93.3656 60.3389 93.6126 60.3389 93.874Z" fill="#20336B"/>
<path d="M255.157 293.945L256 293.945L256 297.855L255.157 297.855L255.157 293.945ZM248.18 297.651L256 297.651L256 298.688L248.18 298.688L248.18 297.651ZM250.188 291.829L256 291.829L256 292.828L250.188 292.828L250.188 291.829ZM248.647 292.903C248.486 292.903 248.35 292.855 248.239 292.758C248.128 292.658 248.072 292.511 248.072 292.318C248.072 292.128 248.128 291.983 248.239 291.883C248.35 291.779 248.486 291.727 248.647 291.727C248.801 291.727 248.933 291.779 249.044 291.883C249.152 291.983 249.206 292.128 249.206 292.318C249.206 292.511 249.152 292.658 249.044 292.758C248.933 292.855 248.801 292.903 248.647 292.903ZM251.429 289.24L256 289.24L256 290.234L250.188 290.234L250.188 289.294L251.429 289.24ZM252.874 289.477L252.858 289.89C252.46 289.887 252.093 289.827 251.757 289.713C251.417 289.598 251.121 289.437 250.871 289.229C250.62 289.022 250.427 288.775 250.291 288.488C250.151 288.198 250.081 287.878 250.081 287.527C250.081 287.24 250.12 286.983 250.199 286.753C250.274 286.524 250.396 286.329 250.564 286.168C250.733 286.003 250.951 285.878 251.22 285.792C251.485 285.706 251.809 285.663 252.192 285.663L256 285.663L256 286.662L252.181 286.662C251.877 286.662 251.633 286.707 251.451 286.796C251.264 286.886 251.13 287.017 251.048 287.188C250.962 287.36 250.919 287.572 250.919 287.822C250.919 288.069 250.971 288.295 251.075 288.499C251.179 288.7 251.322 288.873 251.504 289.02C251.687 289.163 251.896 289.276 252.133 289.358C252.366 289.437 252.613 289.477 252.874 289.477ZM247.75 283.155L256 283.155L256 284.154L247.75 284.154L247.75 283.155ZM250.188 279.604L252.901 282.14L254.373 283.558L253.314 283.638L252.101 282.623L250.188 280.818L250.188 279.604ZM256 280.512L253.229 282.585L252.342 282.07L256 279.341L256 280.512ZM250.188 277.499L256 277.499L256 278.498L250.188 278.498L250.188 277.499ZM248.647 278.573C248.486 278.573 248.35 278.525 248.239 278.428C248.128 278.328 248.072 278.181 248.072 277.988C248.072 277.798 248.128 277.653 248.239 277.553C248.35 277.449 248.486 277.397 248.647 277.397C248.801 277.397 248.933 277.449 249.044 277.553C249.152 277.653 249.206 277.798 249.206 277.988C249.206 278.181 249.152 278.328 249.044 278.428C248.933 278.525 248.801 278.573 248.647 278.573ZM251.429 274.91L256 274.91L256 275.904L250.188 275.904L250.188 274.964L251.429 274.91ZM252.874 275.146L252.858 275.56C252.46 275.556 252.093 275.497 251.757 275.383C251.417 275.268 251.121 275.107 250.871 274.899C250.62 274.692 250.427 274.445 250.291 274.158C250.151 273.868 250.081 273.548 250.081 273.197C250.081 272.91 250.12 272.653 250.199 272.423C250.274 272.194 250.396 271.999 250.564 271.838C250.733 271.673 250.951 271.548 251.22 271.462C251.485 271.376 251.809 271.333 252.192 271.333L256 271.333L256 272.332L252.181 272.332C251.877 272.332 251.633 272.377 251.451 272.466C251.264 272.556 251.13 272.687 251.048 272.858C250.962 273.03 250.919 273.242 250.919 273.492C250.919 273.739 250.971 273.965 251.075 274.169C251.179 274.369 251.322 274.543 251.504 274.69C251.687 274.833 251.896 274.946 252.133 275.028C252.366 275.107 252.613 275.146 252.874 275.146ZM250.188 266.059L250.188 265.156L255.876 265.156C256.389 265.156 256.825 265.26 257.187 265.468C257.549 265.675 257.823 265.965 258.009 266.338C258.199 266.707 258.293 267.133 258.293 267.616C258.293 267.817 258.261 268.053 258.197 268.325C258.136 268.594 258.03 268.859 257.88 269.12C257.733 269.378 257.534 269.595 257.284 269.77L256.693 269.249C256.986 269.006 257.191 268.751 257.305 268.486C257.42 268.218 257.477 267.953 257.477 267.691C257.477 267.376 257.418 267.104 257.3 266.875C257.182 266.646 257.006 266.469 256.773 266.343C256.544 266.214 256.261 266.15 255.925 266.15L251.467 266.15L250.188 266.059ZM253.159 270.06L253.046 270.06C252.602 270.06 252.199 270.008 251.837 269.904C251.472 269.797 251.159 269.645 250.897 269.448C250.636 269.247 250.436 269.006 250.296 268.723C250.153 268.44 250.081 268.121 250.081 267.767C250.081 267.401 250.146 267.083 250.274 266.811C250.4 266.535 250.584 266.302 250.828 266.112C251.068 265.919 251.358 265.767 251.698 265.656C252.038 265.545 252.423 265.468 252.853 265.425L253.347 265.425C253.773 265.464 254.156 265.541 254.496 265.656C254.836 265.767 255.126 265.919 255.366 266.112C255.606 266.302 255.791 266.535 255.919 266.811C256.045 267.086 256.107 267.409 256.107 267.777C256.107 268.125 256.034 268.44 255.887 268.723C255.74 269.002 255.535 269.242 255.27 269.442C255.005 269.643 254.693 269.797 254.335 269.904C253.973 270.008 253.581 270.06 253.159 270.06ZM253.046 269.066L253.159 269.066C253.449 269.066 253.721 269.038 253.975 268.98C254.229 268.92 254.453 268.828 254.646 268.707C254.84 268.581 254.992 268.422 255.103 268.229C255.21 268.035 255.264 267.804 255.264 267.536C255.264 267.206 255.194 266.934 255.055 266.719C254.915 266.504 254.731 266.334 254.501 266.209C254.272 266.08 254.023 265.98 253.755 265.908L252.46 265.908C252.264 265.948 252.074 266.008 251.891 266.091C251.705 266.17 251.54 266.273 251.397 266.402C251.25 266.528 251.134 266.683 251.048 266.87C250.962 267.056 250.919 267.274 250.919 267.525C250.919 267.797 250.976 268.032 251.091 268.229C251.202 268.422 251.356 268.581 251.553 268.707C251.746 268.828 251.972 268.92 252.229 268.98C252.484 269.038 252.756 269.066 253.046 269.066Z" fill="#20336B"/>
<path d="M211 380H45.5C35 380 27.5004 370.5 27.5004 357.5C27.5004 345.893 27.6667 256 27.5 212" stroke="#0E9C4A"/>
<path d="M4.00352 211V365.678C3.83645 378.274 9.51806 403.465 40.5948 403.465C70.167 403.465 155.536 402.962 209 402.962" stroke="#4ABCEB"/>
</svg>
