<svg width="456" height="538" viewBox="0 0 456 538" fill="none" xmlns="http://www.w3.org/2000/svg">
<path d="M166 406C166 420.4 175 425.5 182 425.5C205.129 425.5 246.329 425.5 261 425.5C275.671 425.5 280.159 432.071 279.994 435.5V442V451H290.5M290.5 451V348.5M290.5 451V493.5H389.5C396.167 494 409.5 491.9 409.5 479.5C409.5 467.1 409.5 359.667 409.5 307.5" stroke="#4560B0" stroke-width="1.5"/>
<path d="M124.56 169C109.909 169 68.8562 169 58.155 169C47.4538 169 44.3008 175.656 44.3008 179.484V212.433" stroke="#4ABCEB" stroke-width="1.5"/>
<path d="M166 97V178M166 178V310V355H227V298H290V252V178H166Z" stroke="#B2B2B2" stroke-width="1.5" stroke-dasharray="4 4"/>
<path d="M63.0928 519.18V527H62.0562V519.18H63.0928ZM65.8213 522.429V527H64.8276V521.188H65.7676L65.8213 522.429ZM65.585 523.874L65.1714 523.858C65.175 523.46 65.234 523.093 65.3486 522.757C65.4632 522.417 65.6243 522.121 65.832 521.871C66.0397 521.62 66.2868 521.427 66.5732 521.291C66.8633 521.151 67.1838 521.081 67.5347 521.081C67.8211 521.081 68.0789 521.12 68.3081 521.199C68.5373 521.274 68.7324 521.396 68.8936 521.564C69.0583 521.733 69.1836 521.951 69.2695 522.22C69.3555 522.485 69.3984 522.809 69.3984 523.192V527H68.3994V523.181C68.3994 522.877 68.3547 522.633 68.2651 522.451C68.1756 522.264 68.0449 522.13 67.873 522.048C67.7012 521.962 67.4899 521.919 67.2393 521.919C66.9922 521.919 66.7666 521.971 66.5625 522.075C66.362 522.179 66.1883 522.322 66.0415 522.504C65.8983 522.687 65.7855 522.896 65.7031 523.133C65.6243 523.366 65.585 523.613 65.585 523.874ZM74.2915 525.458C74.2915 525.315 74.2593 525.183 74.1948 525.061C74.134 524.936 74.0068 524.823 73.8135 524.723C73.6237 524.619 73.3372 524.529 72.9541 524.454C72.6318 524.386 72.34 524.306 72.0786 524.212C71.8208 524.119 71.6006 524.007 71.418 523.874C71.2389 523.742 71.1011 523.586 71.0044 523.407C70.9077 523.228 70.8594 523.018 70.8594 522.778C70.8594 522.549 70.9095 522.333 71.0098 522.128C71.1136 521.924 71.2586 521.743 71.4448 521.586C71.6346 521.428 71.862 521.305 72.127 521.215C72.3919 521.126 72.6873 521.081 73.0132 521.081C73.4787 521.081 73.8761 521.163 74.2056 521.328C74.535 521.493 74.7874 521.713 74.9629 521.989C75.1383 522.261 75.2261 522.563 75.2261 522.896H74.2324C74.2324 522.735 74.1841 522.58 74.0874 522.429C73.9943 522.275 73.8564 522.148 73.6738 522.048C73.4948 521.948 73.2746 521.897 73.0132 521.897C72.7375 521.897 72.5137 521.94 72.3418 522.026C72.1735 522.109 72.05 522.214 71.9712 522.343C71.896 522.472 71.8584 522.608 71.8584 522.751C71.8584 522.859 71.8763 522.956 71.9121 523.042C71.9515 523.124 72.0195 523.201 72.1162 523.272C72.2129 523.34 72.349 523.405 72.5244 523.466C72.6999 523.527 72.9237 523.588 73.1958 523.648C73.672 523.756 74.0641 523.885 74.3721 524.035C74.68 524.186 74.9092 524.37 75.0596 524.588C75.21 524.807 75.2852 525.072 75.2852 525.383C75.2852 525.638 75.2314 525.87 75.124 526.082C75.0202 526.293 74.868 526.475 74.6675 526.629C74.4705 526.78 74.2342 526.898 73.9585 526.984C73.6864 527.066 73.3802 527.107 73.04 527.107C72.528 527.107 72.0947 527.016 71.7402 526.833C71.3857 526.651 71.1172 526.415 70.9346 526.125C70.752 525.834 70.6606 525.528 70.6606 525.206H71.6597C71.674 525.478 71.7528 525.695 71.896 525.856C72.0392 526.014 72.2147 526.126 72.4224 526.194C72.63 526.259 72.8359 526.291 73.04 526.291C73.3122 526.291 73.5396 526.255 73.7222 526.184C73.9084 526.112 74.0498 526.014 74.1465 525.888C74.2432 525.763 74.2915 525.62 74.2915 525.458ZM79.0234 521.188V521.951H75.8813V521.188H79.0234ZM76.9448 519.776H77.9385V525.561C77.9385 525.757 77.9689 525.906 78.0298 526.006C78.0907 526.107 78.1694 526.173 78.2661 526.205C78.3628 526.237 78.4666 526.253 78.5776 526.253C78.66 526.253 78.7459 526.246 78.8354 526.232C78.9285 526.214 78.9984 526.2 79.0449 526.189L79.0503 527C78.9715 527.025 78.8677 527.048 78.7388 527.07C78.6134 527.095 78.4613 527.107 78.2822 527.107C78.0387 527.107 77.8149 527.059 77.6108 526.962C77.4067 526.866 77.2438 526.705 77.1221 526.479C77.0039 526.25 76.9448 525.942 76.9448 525.555V519.776ZM83.6157 526.006V523.015C83.6157 522.785 83.5692 522.587 83.4761 522.418C83.3866 522.247 83.2505 522.114 83.0679 522.021C82.8853 521.928 82.6597 521.881 82.3911 521.881C82.1405 521.881 81.9202 521.924 81.7305 522.01C81.5443 522.096 81.3975 522.209 81.29 522.349C81.1862 522.488 81.1343 522.639 81.1343 522.8H80.1406C80.1406 522.592 80.1943 522.386 80.3018 522.182C80.4092 521.978 80.5632 521.794 80.7637 521.629C80.9678 521.461 81.2113 521.328 81.4941 521.231C81.7806 521.131 82.0993 521.081 82.4502 521.081C82.8727 521.081 83.2451 521.153 83.5674 521.296C83.8932 521.439 84.1475 521.656 84.3301 521.946C84.5163 522.232 84.6094 522.592 84.6094 523.025V525.732C84.6094 525.926 84.6255 526.132 84.6577 526.35C84.6935 526.569 84.7454 526.757 84.8135 526.914V527H83.7769C83.7267 526.885 83.6873 526.733 83.6587 526.543C83.63 526.35 83.6157 526.171 83.6157 526.006ZM83.7876 523.477L83.7983 524.175H82.7939C82.5111 524.175 82.2586 524.198 82.0366 524.245C81.8146 524.288 81.6284 524.354 81.478 524.443C81.3276 524.533 81.2131 524.646 81.1343 524.782C81.0555 524.914 81.0161 525.07 81.0161 525.249C81.0161 525.432 81.0573 525.598 81.1396 525.749C81.222 525.899 81.3455 526.019 81.5103 526.108C81.6785 526.194 81.8844 526.237 82.1279 526.237C82.4323 526.237 82.7008 526.173 82.9336 526.044C83.1663 525.915 83.3507 525.757 83.4868 525.571C83.6265 525.385 83.7017 525.204 83.7124 525.029L84.1367 525.507C84.1117 525.657 84.0436 525.824 83.9326 526.006C83.8216 526.189 83.673 526.364 83.4868 526.533C83.3042 526.697 83.0858 526.835 82.8315 526.946C82.5809 527.054 82.298 527.107 81.9829 527.107C81.589 527.107 81.2435 527.03 80.9463 526.876C80.6527 526.722 80.4235 526.517 80.2588 526.259C80.0977 525.997 80.0171 525.706 80.0171 525.383C80.0171 525.072 80.078 524.798 80.1997 524.562C80.3215 524.322 80.4969 524.123 80.7261 523.965C80.9552 523.804 81.231 523.682 81.5532 523.6C81.8755 523.518 82.2354 523.477 82.6328 523.477H83.7876ZM87.166 522.429V527H86.1724V521.188H87.1123L87.166 522.429ZM86.9297 523.874L86.5161 523.858C86.5197 523.46 86.5788 523.093 86.6934 522.757C86.8079 522.417 86.9691 522.121 87.1768 521.871C87.3844 521.62 87.6315 521.427 87.918 521.291C88.208 521.151 88.5285 521.081 88.8794 521.081C89.1659 521.081 89.4237 521.12 89.6528 521.199C89.882 521.274 90.0771 521.396 90.2383 521.564C90.403 521.733 90.5283 521.951 90.6143 522.22C90.7002 522.485 90.7432 522.809 90.7432 523.192V527H89.7441V523.181C89.7441 522.877 89.6994 522.633 89.6099 522.451C89.5203 522.264 89.3896 522.13 89.2178 522.048C89.0459 521.962 88.8346 521.919 88.584 521.919C88.3369 521.919 88.1113 521.971 87.9072 522.075C87.7067 522.179 87.533 522.322 87.3862 522.504C87.243 522.687 87.1302 522.896 87.0479 523.133C86.9691 523.366 86.9297 523.613 86.9297 523.874ZM94.6855 521.188V521.951H91.5435V521.188H94.6855ZM92.6069 519.776H93.6006V525.561C93.6006 525.757 93.631 525.906 93.6919 526.006C93.7528 526.107 93.8315 526.173 93.9282 526.205C94.0249 526.237 94.1287 526.253 94.2397 526.253C94.3221 526.253 94.408 526.246 94.4976 526.232C94.5907 526.214 94.6605 526.2 94.707 526.189L94.7124 527C94.6336 527.025 94.5298 527.048 94.4009 527.07C94.2756 527.095 94.1234 527.107 93.9443 527.107C93.7008 527.107 93.4771 527.059 93.2729 526.962C93.0688 526.866 92.9059 526.705 92.7842 526.479C92.666 526.25 92.6069 525.942 92.6069 525.555V519.776ZM100.846 527H99.2134L99.2241 526.157H100.846C101.405 526.157 101.87 526.04 102.243 525.808C102.615 525.571 102.894 525.242 103.081 524.819C103.27 524.393 103.365 523.896 103.365 523.326V522.848C103.365 522.401 103.312 522.003 103.204 521.656C103.097 521.305 102.939 521.009 102.731 520.77C102.524 520.526 102.27 520.342 101.969 520.216C101.672 520.091 101.33 520.028 100.943 520.028H99.1812V519.18H100.943C101.455 519.18 101.922 519.266 102.345 519.438C102.767 519.606 103.131 519.851 103.435 520.173C103.743 520.492 103.979 520.879 104.144 521.333C104.309 521.785 104.391 522.293 104.391 522.859V523.326C104.391 523.892 104.309 524.402 104.144 524.857C103.979 525.308 103.741 525.693 103.43 526.012C103.122 526.33 102.749 526.576 102.312 526.748C101.879 526.916 101.39 527 100.846 527ZM99.7666 519.18V527H98.73V519.18H99.7666ZM106.878 521.188V527H105.879V521.188H106.878ZM105.804 519.647C105.804 519.486 105.852 519.35 105.949 519.239C106.049 519.128 106.196 519.072 106.389 519.072C106.579 519.072 106.724 519.128 106.824 519.239C106.928 519.35 106.98 519.486 106.98 519.647C106.98 519.801 106.928 519.933 106.824 520.044C106.724 520.152 106.579 520.206 106.389 520.206C106.196 520.206 106.049 520.152 105.949 520.044C105.852 519.933 105.804 519.801 105.804 519.647ZM111.857 525.458C111.857 525.315 111.825 525.183 111.76 525.061C111.699 524.936 111.572 524.823 111.379 524.723C111.189 524.619 110.903 524.529 110.52 524.454C110.197 524.386 109.905 524.306 109.644 524.212C109.386 524.119 109.166 524.007 108.983 523.874C108.804 523.742 108.667 523.586 108.57 523.407C108.473 523.228 108.425 523.018 108.425 522.778C108.425 522.549 108.475 522.333 108.575 522.128C108.679 521.924 108.824 521.743 109.01 521.586C109.2 521.428 109.427 521.305 109.692 521.215C109.957 521.126 110.253 521.081 110.579 521.081C111.044 521.081 111.442 521.163 111.771 521.328C112.1 521.493 112.353 521.713 112.528 521.989C112.704 522.261 112.792 522.563 112.792 522.896H111.798C111.798 522.735 111.75 522.58 111.653 522.429C111.56 522.275 111.422 522.148 111.239 522.048C111.06 521.948 110.84 521.897 110.579 521.897C110.303 521.897 110.079 521.94 109.907 522.026C109.739 522.109 109.615 522.214 109.537 522.343C109.461 522.472 109.424 522.608 109.424 522.751C109.424 522.859 109.442 522.956 109.478 523.042C109.517 523.124 109.585 523.201 109.682 523.272C109.778 523.34 109.914 523.405 110.09 523.466C110.265 523.527 110.489 523.588 110.761 523.648C111.237 523.756 111.63 523.885 111.938 524.035C112.245 524.186 112.475 524.37 112.625 524.588C112.775 524.807 112.851 525.072 112.851 525.383C112.851 525.638 112.797 525.87 112.689 526.082C112.586 526.293 112.433 526.475 112.233 526.629C112.036 526.78 111.8 526.898 111.524 526.984C111.252 527.066 110.946 527.107 110.605 527.107C110.093 527.107 109.66 527.016 109.306 526.833C108.951 526.651 108.683 526.415 108.5 526.125C108.317 525.834 108.226 525.528 108.226 525.206H109.225C109.239 525.478 109.318 525.695 109.461 525.856C109.605 526.014 109.78 526.126 109.988 526.194C110.195 526.259 110.401 526.291 110.605 526.291C110.878 526.291 111.105 526.255 111.288 526.184C111.474 526.112 111.615 526.014 111.712 525.888C111.809 525.763 111.857 525.62 111.857 525.458ZM116.481 526.291C116.718 526.291 116.936 526.243 117.137 526.146C117.337 526.049 117.502 525.917 117.631 525.749C117.76 525.577 117.833 525.382 117.851 525.163H118.796C118.778 525.507 118.662 525.827 118.447 526.125C118.236 526.418 117.958 526.656 117.615 526.839C117.271 527.018 116.893 527.107 116.481 527.107C116.045 527.107 115.663 527.03 115.337 526.876C115.015 526.722 114.747 526.511 114.532 526.243C114.32 525.974 114.161 525.666 114.054 525.319C113.95 524.968 113.898 524.597 113.898 524.207V523.981C113.898 523.591 113.95 523.222 114.054 522.875C114.161 522.524 114.32 522.214 114.532 521.946C114.747 521.677 115.015 521.466 115.337 521.312C115.663 521.158 116.045 521.081 116.481 521.081C116.936 521.081 117.334 521.174 117.674 521.36C118.014 521.543 118.281 521.794 118.474 522.112C118.671 522.427 118.778 522.785 118.796 523.187H117.851C117.833 522.947 117.765 522.73 117.647 522.537C117.532 522.343 117.375 522.189 117.174 522.075C116.977 521.957 116.746 521.897 116.481 521.897C116.177 521.897 115.921 521.958 115.713 522.08C115.509 522.198 115.346 522.359 115.225 522.563C115.106 522.764 115.021 522.988 114.967 523.235C114.917 523.478 114.892 523.727 114.892 523.981V524.207C114.892 524.461 114.917 524.712 114.967 524.959C115.017 525.206 115.101 525.43 115.219 525.63C115.341 525.831 115.504 525.992 115.708 526.114C115.916 526.232 116.174 526.291 116.481 526.291ZM119.65 524.159V524.035C119.65 523.616 119.711 523.228 119.833 522.87C119.955 522.508 120.13 522.195 120.359 521.93C120.589 521.661 120.866 521.453 121.192 521.307C121.518 521.156 121.883 521.081 122.288 521.081C122.696 521.081 123.063 521.156 123.389 521.307C123.718 521.453 123.997 521.661 124.227 521.93C124.459 522.195 124.637 522.508 124.758 522.87C124.88 523.228 124.941 523.616 124.941 524.035V524.159C124.941 524.578 124.88 524.966 124.758 525.324C124.637 525.682 124.459 525.996 124.227 526.264C123.997 526.529 123.72 526.737 123.394 526.887C123.072 527.034 122.707 527.107 122.298 527.107C121.89 527.107 121.523 527.034 121.197 526.887C120.871 526.737 120.592 526.529 120.359 526.264C120.13 525.996 119.955 525.682 119.833 525.324C119.711 524.966 119.65 524.578 119.65 524.159ZM120.644 524.035V524.159C120.644 524.449 120.678 524.723 120.746 524.98C120.814 525.235 120.916 525.46 121.052 525.657C121.192 525.854 121.366 526.01 121.573 526.125C121.781 526.236 122.023 526.291 122.298 526.291C122.57 526.291 122.809 526.236 123.013 526.125C123.22 526.01 123.392 525.854 123.528 525.657C123.664 525.46 123.766 525.235 123.834 524.98C123.906 524.723 123.942 524.449 123.942 524.159V524.035C123.942 523.749 123.906 523.478 123.834 523.224C123.766 522.966 123.663 522.739 123.523 522.542C123.387 522.341 123.215 522.184 123.007 522.069C122.803 521.955 122.563 521.897 122.288 521.897C122.015 521.897 121.776 521.955 121.568 522.069C121.364 522.184 121.192 522.341 121.052 522.542C120.916 522.739 120.814 522.966 120.746 523.224C120.678 523.478 120.644 523.749 120.644 524.035ZM129.743 525.657V521.188H130.742V527H129.791L129.743 525.657ZM129.931 524.433L130.344 524.422C130.344 524.809 130.303 525.167 130.221 525.496C130.142 525.822 130.013 526.105 129.834 526.345C129.655 526.585 129.42 526.773 129.13 526.909C128.84 527.041 128.488 527.107 128.072 527.107C127.789 527.107 127.53 527.066 127.293 526.984C127.061 526.902 126.86 526.774 126.692 526.603C126.524 526.431 126.393 526.207 126.3 525.931C126.21 525.655 126.166 525.324 126.166 524.938V521.188H127.159V524.948C127.159 525.21 127.188 525.426 127.245 525.598C127.306 525.766 127.387 525.901 127.487 526.001C127.591 526.098 127.705 526.166 127.831 526.205C127.959 526.244 128.092 526.264 128.228 526.264C128.651 526.264 128.985 526.184 129.232 526.022C129.479 525.858 129.657 525.638 129.764 525.362C129.875 525.083 129.931 524.773 129.931 524.433ZM133.25 522.429V527H132.256V521.188H133.196L133.25 522.429ZM133.014 523.874L132.6 523.858C132.604 523.46 132.663 523.093 132.777 522.757C132.892 522.417 133.053 522.121 133.261 521.871C133.468 521.62 133.715 521.427 134.002 521.291C134.292 521.151 134.612 521.081 134.963 521.081C135.25 521.081 135.508 521.12 135.737 521.199C135.966 521.274 136.161 521.396 136.322 521.564C136.487 521.733 136.612 521.951 136.698 522.22C136.784 522.485 136.827 522.809 136.827 523.192V527H135.828V523.181C135.828 522.877 135.783 522.633 135.694 522.451C135.604 522.264 135.474 522.13 135.302 522.048C135.13 521.962 134.919 521.919 134.668 521.919C134.421 521.919 134.195 521.971 133.991 522.075C133.791 522.179 133.617 522.322 133.47 522.504C133.327 522.687 133.214 522.896 133.132 523.133C133.053 523.366 133.014 523.613 133.014 523.874ZM140.77 521.188V521.951H137.627V521.188H140.77ZM138.691 519.776H139.685V525.561C139.685 525.757 139.715 525.906 139.776 526.006C139.837 526.107 139.916 526.173 140.012 526.205C140.109 526.237 140.213 526.253 140.324 526.253C140.406 526.253 140.492 526.246 140.582 526.232C140.675 526.214 140.744 526.2 140.791 526.189L140.796 527C140.718 527.025 140.614 527.048 140.485 527.07C140.36 527.095 140.207 527.107 140.028 527.107C139.785 527.107 139.561 527.059 139.357 526.962C139.153 526.866 138.99 526.705 138.868 526.479C138.75 526.25 138.691 525.942 138.691 525.555V519.776ZM145.319 525.458C145.319 525.315 145.287 525.183 145.222 525.061C145.161 524.936 145.034 524.823 144.841 524.723C144.651 524.619 144.365 524.529 143.981 524.454C143.659 524.386 143.367 524.306 143.106 524.212C142.848 524.119 142.628 524.007 142.445 523.874C142.266 523.742 142.128 523.586 142.032 523.407C141.935 523.228 141.887 523.018 141.887 522.778C141.887 522.549 141.937 522.333 142.037 522.128C142.141 521.924 142.286 521.743 142.472 521.586C142.662 521.428 142.889 521.305 143.154 521.215C143.419 521.126 143.715 521.081 144.041 521.081C144.506 521.081 144.903 521.163 145.233 521.328C145.562 521.493 145.815 521.713 145.99 521.989C146.166 522.261 146.253 522.563 146.253 522.896H145.26C145.26 522.735 145.211 522.58 145.115 522.429C145.022 522.275 144.884 522.148 144.701 522.048C144.522 521.948 144.302 521.897 144.041 521.897C143.765 521.897 143.541 521.94 143.369 522.026C143.201 522.109 143.077 522.214 142.999 522.343C142.923 522.472 142.886 522.608 142.886 522.751C142.886 522.859 142.904 522.956 142.939 523.042C142.979 523.124 143.047 523.201 143.144 523.272C143.24 523.34 143.376 523.405 143.552 523.466C143.727 523.527 143.951 523.588 144.223 523.648C144.699 523.756 145.091 523.885 145.399 524.035C145.707 524.186 145.937 524.37 146.087 524.588C146.237 524.807 146.312 525.072 146.312 525.383C146.312 525.638 146.259 525.87 146.151 526.082C146.048 526.293 145.895 526.475 145.695 526.629C145.498 526.78 145.262 526.898 144.986 526.984C144.714 527.066 144.408 527.107 144.067 527.107C143.555 527.107 143.122 527.016 142.768 526.833C142.413 526.651 142.145 526.415 141.962 526.125C141.779 525.834 141.688 525.528 141.688 525.206H142.687C142.701 525.478 142.78 525.695 142.923 525.856C143.067 526.014 143.242 526.126 143.45 526.194C143.657 526.259 143.863 526.291 144.067 526.291C144.34 526.291 144.567 526.255 144.75 526.184C144.936 526.112 145.077 526.014 145.174 525.888C145.271 525.763 145.319 525.62 145.319 525.458ZM153.805 519.18L150.545 527.671H149.691L152.957 519.18H153.805ZM162.49 524.513H163.521C163.468 525.007 163.326 525.45 163.097 525.84C162.868 526.23 162.544 526.54 162.125 526.769C161.706 526.995 161.183 527.107 160.557 527.107C160.098 527.107 159.681 527.021 159.305 526.85C158.933 526.678 158.612 526.434 158.344 526.119C158.075 525.8 157.868 525.419 157.721 524.975C157.577 524.528 157.506 524.03 157.506 523.482V522.703C157.506 522.155 157.577 521.659 157.721 521.215C157.868 520.768 158.077 520.385 158.349 520.066C158.625 519.747 158.956 519.502 159.343 519.33C159.729 519.158 160.165 519.072 160.648 519.072C161.239 519.072 161.738 519.183 162.146 519.405C162.555 519.627 162.872 519.935 163.097 520.329C163.326 520.719 163.468 521.172 163.521 521.688H162.49C162.44 521.323 162.347 521.009 162.211 520.748C162.075 520.483 161.882 520.279 161.631 520.136C161.38 519.993 161.053 519.921 160.648 519.921C160.301 519.921 159.994 519.987 159.729 520.12C159.468 520.252 159.248 520.44 159.069 520.684C158.893 520.927 158.761 521.219 158.671 521.559C158.582 521.899 158.537 522.277 158.537 522.692V523.482C158.537 523.865 158.576 524.225 158.655 524.562C158.738 524.898 158.861 525.194 159.026 525.448C159.191 525.702 159.4 525.903 159.654 526.049C159.909 526.193 160.209 526.264 160.557 526.264C160.997 526.264 161.348 526.194 161.609 526.055C161.871 525.915 162.068 525.715 162.2 525.453C162.336 525.192 162.433 524.878 162.49 524.513ZM168.21 526.006V523.015C168.21 522.785 168.164 522.587 168.071 522.418C167.981 522.247 167.845 522.114 167.663 522.021C167.48 521.928 167.254 521.881 166.986 521.881C166.735 521.881 166.515 521.924 166.325 522.01C166.139 522.096 165.992 522.209 165.885 522.349C165.781 522.488 165.729 522.639 165.729 522.8H164.735C164.735 522.592 164.789 522.386 164.896 522.182C165.004 521.978 165.158 521.794 165.358 521.629C165.562 521.461 165.806 521.328 166.089 521.231C166.375 521.131 166.694 521.081 167.045 521.081C167.467 521.081 167.84 521.153 168.162 521.296C168.488 521.439 168.742 521.656 168.925 521.946C169.111 522.232 169.204 522.592 169.204 523.025V525.732C169.204 525.926 169.22 526.132 169.252 526.35C169.288 526.569 169.34 526.757 169.408 526.914V527H168.372C168.321 526.885 168.282 526.733 168.253 526.543C168.225 526.35 168.21 526.171 168.21 526.006ZM168.382 523.477L168.393 524.175H167.389C167.106 524.175 166.853 524.198 166.631 524.245C166.409 524.288 166.223 524.354 166.073 524.443C165.922 524.533 165.808 524.646 165.729 524.782C165.65 524.914 165.611 525.07 165.611 525.249C165.611 525.432 165.652 525.598 165.734 525.749C165.817 525.899 165.94 526.019 166.105 526.108C166.273 526.194 166.479 526.237 166.723 526.237C167.027 526.237 167.296 526.173 167.528 526.044C167.761 525.915 167.945 525.757 168.082 525.571C168.221 525.385 168.296 525.204 168.307 525.029L168.731 525.507C168.706 525.657 168.638 525.824 168.527 526.006C168.416 526.189 168.268 526.364 168.082 526.533C167.899 526.697 167.681 526.835 167.426 526.946C167.176 527.054 166.893 527.107 166.578 527.107C166.184 527.107 165.838 527.03 165.541 526.876C165.247 526.722 165.018 526.517 164.854 526.259C164.692 525.997 164.612 525.706 164.612 525.383C164.612 525.072 164.673 524.798 164.794 524.562C164.916 524.322 165.092 524.123 165.321 523.965C165.55 523.804 165.826 523.682 166.148 523.6C166.47 523.518 166.83 523.477 167.228 523.477H168.382ZM174.151 525.458C174.151 525.315 174.119 525.183 174.054 525.061C173.993 524.936 173.866 524.823 173.673 524.723C173.483 524.619 173.197 524.529 172.813 524.454C172.491 524.386 172.199 524.306 171.938 524.212C171.68 524.119 171.46 524.007 171.277 523.874C171.098 523.742 170.96 523.586 170.864 523.407C170.767 523.228 170.719 523.018 170.719 522.778C170.719 522.549 170.769 522.333 170.869 522.128C170.973 521.924 171.118 521.743 171.304 521.586C171.494 521.428 171.721 521.305 171.986 521.215C172.251 521.126 172.547 521.081 172.873 521.081C173.338 521.081 173.736 521.163 174.065 521.328C174.394 521.493 174.647 521.713 174.822 521.989C174.998 522.261 175.085 522.563 175.085 522.896H174.092C174.092 522.735 174.043 522.58 173.947 522.429C173.854 522.275 173.716 522.148 173.533 522.048C173.354 521.948 173.134 521.897 172.873 521.897C172.597 521.897 172.373 521.94 172.201 522.026C172.033 522.109 171.909 522.214 171.831 522.343C171.755 522.472 171.718 522.608 171.718 522.751C171.718 522.859 171.736 522.956 171.771 523.042C171.811 523.124 171.879 523.201 171.976 523.272C172.072 523.34 172.208 523.405 172.384 523.466C172.559 523.527 172.783 523.588 173.055 523.648C173.531 523.756 173.924 523.885 174.231 524.035C174.539 524.186 174.769 524.37 174.919 524.588C175.069 524.807 175.145 525.072 175.145 525.383C175.145 525.638 175.091 525.87 174.983 526.082C174.88 526.293 174.727 526.475 174.527 526.629C174.33 526.78 174.094 526.898 173.818 526.984C173.546 527.066 173.24 527.107 172.899 527.107C172.387 527.107 171.954 527.016 171.6 526.833C171.245 526.651 170.977 526.415 170.794 526.125C170.611 525.834 170.52 525.528 170.52 525.206H171.519C171.533 525.478 171.612 525.695 171.755 525.856C171.899 526.014 172.074 526.126 172.282 526.194C172.489 526.259 172.695 526.291 172.899 526.291C173.172 526.291 173.399 526.255 173.582 526.184C173.768 526.112 173.909 526.014 174.006 525.888C174.103 525.763 174.151 525.62 174.151 525.458ZM177.443 518.75V527H176.45V518.75H177.443ZM177.207 523.874L176.793 523.858C176.797 523.46 176.856 523.093 176.971 522.757C177.085 522.417 177.246 522.121 177.454 521.871C177.662 521.62 177.909 521.427 178.195 521.291C178.485 521.151 178.806 521.081 179.157 521.081C179.443 521.081 179.701 521.12 179.93 521.199C180.159 521.274 180.354 521.396 180.516 521.564C180.68 521.733 180.806 521.951 180.892 522.22C180.978 522.485 181.021 522.809 181.021 523.192V527H180.021V523.181C180.021 522.877 179.977 522.633 179.887 522.451C179.798 522.264 179.667 522.13 179.495 522.048C179.323 521.962 179.112 521.919 178.861 521.919C178.614 521.919 178.389 521.971 178.185 522.075C177.984 522.179 177.81 522.322 177.664 522.504C177.52 522.687 177.408 522.896 177.325 523.133C177.246 523.366 177.207 523.613 177.207 523.874ZM182.503 518.75H183.502V525.872L183.416 527H182.503V518.75ZM187.428 524.046V524.159C187.428 524.581 187.378 524.973 187.278 525.335C187.178 525.693 187.031 526.005 186.837 526.27C186.644 526.535 186.408 526.74 186.128 526.887C185.849 527.034 185.529 527.107 185.167 527.107C184.798 527.107 184.474 527.045 184.195 526.919C183.919 526.791 183.686 526.606 183.497 526.366C183.307 526.126 183.155 525.836 183.04 525.496C182.929 525.156 182.852 524.773 182.809 524.347V523.853C182.852 523.423 182.929 523.038 183.04 522.698C183.155 522.358 183.307 522.068 183.497 521.828C183.686 521.584 183.919 521.4 184.195 521.274C184.471 521.146 184.791 521.081 185.156 521.081C185.521 521.081 185.846 521.153 186.128 521.296C186.411 521.436 186.648 521.636 186.837 521.897C187.031 522.159 187.178 522.472 187.278 522.837C187.378 523.199 187.428 523.602 187.428 524.046ZM186.429 524.159V524.046C186.429 523.756 186.402 523.484 186.349 523.229C186.295 522.972 186.209 522.746 186.091 522.553C185.973 522.356 185.817 522.202 185.624 522.091C185.43 521.976 185.192 521.919 184.909 521.919C184.659 521.919 184.44 521.962 184.254 522.048C184.071 522.134 183.916 522.25 183.787 522.397C183.658 522.54 183.552 522.705 183.47 522.891C183.391 523.074 183.332 523.264 183.292 523.46V524.755C183.35 525.006 183.443 525.247 183.572 525.48C183.704 525.709 183.88 525.897 184.098 526.044C184.32 526.191 184.594 526.264 184.92 526.264C185.188 526.264 185.418 526.21 185.607 526.103C185.801 525.992 185.957 525.84 186.075 525.646C186.196 525.453 186.286 525.229 186.343 524.975C186.401 524.721 186.429 524.449 186.429 524.159ZM192.112 526.006V523.015C192.112 522.785 192.065 522.587 191.972 522.418C191.883 522.247 191.747 522.114 191.564 522.021C191.381 521.928 191.156 521.881 190.887 521.881C190.637 521.881 190.416 521.924 190.227 522.01C190.04 522.096 189.894 522.209 189.786 522.349C189.682 522.488 189.63 522.639 189.63 522.8H188.637C188.637 522.592 188.69 522.386 188.798 522.182C188.905 521.978 189.059 521.794 189.26 521.629C189.464 521.461 189.707 521.328 189.99 521.231C190.277 521.131 190.595 521.081 190.946 521.081C191.369 521.081 191.741 521.153 192.063 521.296C192.389 521.439 192.644 521.656 192.826 521.946C193.012 522.232 193.105 522.592 193.105 523.025V525.732C193.105 525.926 193.122 526.132 193.154 526.35C193.19 526.569 193.242 526.757 193.31 526.914V527H192.273C192.223 526.885 192.183 526.733 192.155 526.543C192.126 526.35 192.112 526.171 192.112 526.006ZM192.284 523.477L192.294 524.175H191.29C191.007 524.175 190.755 524.198 190.533 524.245C190.311 524.288 190.125 524.354 189.974 524.443C189.824 524.533 189.709 524.646 189.63 524.782C189.552 524.914 189.512 525.07 189.512 525.249C189.512 525.432 189.553 525.598 189.636 525.749C189.718 525.899 189.842 526.019 190.006 526.108C190.175 526.194 190.381 526.237 190.624 526.237C190.928 526.237 191.197 526.173 191.43 526.044C191.662 525.915 191.847 525.757 191.983 525.571C192.123 525.385 192.198 525.204 192.208 525.029L192.633 525.507C192.608 525.657 192.54 525.824 192.429 526.006C192.318 526.189 192.169 526.364 191.983 526.533C191.8 526.697 191.582 526.835 191.328 526.946C191.077 527.054 190.794 527.107 190.479 527.107C190.085 527.107 189.74 527.03 189.442 526.876C189.149 526.722 188.92 526.517 188.755 526.259C188.594 525.997 188.513 525.706 188.513 525.383C188.513 525.072 188.574 524.798 188.696 524.562C188.818 524.322 188.993 524.123 189.222 523.965C189.451 523.804 189.727 523.682 190.049 523.6C190.372 523.518 190.731 523.477 191.129 523.477H192.284ZM196.994 526.291C197.23 526.291 197.449 526.243 197.649 526.146C197.85 526.049 198.015 525.917 198.144 525.749C198.272 525.577 198.346 525.382 198.364 525.163H199.309C199.291 525.507 199.175 525.827 198.96 526.125C198.749 526.418 198.471 526.656 198.127 526.839C197.784 527.018 197.406 527.107 196.994 527.107C196.557 527.107 196.176 527.03 195.85 526.876C195.528 526.722 195.259 526.511 195.044 526.243C194.833 525.974 194.674 525.666 194.566 525.319C194.463 524.968 194.411 524.597 194.411 524.207V523.981C194.411 523.591 194.463 523.222 194.566 522.875C194.674 522.524 194.833 522.214 195.044 521.946C195.259 521.677 195.528 521.466 195.85 521.312C196.176 521.158 196.557 521.081 196.994 521.081C197.449 521.081 197.846 521.174 198.187 521.36C198.527 521.543 198.793 521.794 198.987 522.112C199.184 522.427 199.291 522.785 199.309 523.187H198.364C198.346 522.947 198.278 522.73 198.16 522.537C198.045 522.343 197.888 522.189 197.687 522.075C197.49 521.957 197.259 521.897 196.994 521.897C196.69 521.897 196.434 521.958 196.226 522.08C196.022 522.198 195.859 522.359 195.737 522.563C195.619 522.764 195.533 522.988 195.479 523.235C195.429 523.478 195.404 523.727 195.404 523.981V524.207C195.404 524.461 195.429 524.712 195.479 524.959C195.53 525.206 195.614 525.43 195.732 525.63C195.854 525.831 196.017 525.992 196.221 526.114C196.428 526.232 196.686 526.291 196.994 526.291ZM201.425 518.75V527H200.426V518.75H201.425ZM204.976 521.188L202.44 523.901L201.022 525.373L200.942 524.314L201.957 523.101L203.762 521.188H204.976ZM204.068 527L201.995 524.229L202.51 523.342L205.239 527H204.068ZM209.385 525.458C209.385 525.315 209.353 525.183 209.289 525.061C209.228 524.936 209.101 524.823 208.907 524.723C208.717 524.619 208.431 524.529 208.048 524.454C207.726 524.386 207.434 524.306 207.172 524.212C206.915 524.119 206.694 524.007 206.512 523.874C206.333 523.742 206.195 523.586 206.098 523.407C206.001 523.228 205.953 523.018 205.953 522.778C205.953 522.549 206.003 522.333 206.104 522.128C206.207 521.924 206.352 521.743 206.539 521.586C206.728 521.428 206.956 521.305 207.221 521.215C207.486 521.126 207.781 521.081 208.107 521.081C208.572 521.081 208.97 521.163 209.299 521.328C209.629 521.493 209.881 521.713 210.057 521.989C210.232 522.261 210.32 522.563 210.32 522.896H209.326C209.326 522.735 209.278 522.58 209.181 522.429C209.088 522.275 208.95 522.148 208.768 522.048C208.589 521.948 208.368 521.897 208.107 521.897C207.831 521.897 207.607 521.94 207.436 522.026C207.267 522.109 207.144 522.214 207.065 522.343C206.99 522.472 206.952 522.608 206.952 522.751C206.952 522.859 206.97 522.956 207.006 523.042C207.045 523.124 207.113 523.201 207.21 523.272C207.307 523.34 207.443 523.405 207.618 523.466C207.794 523.527 208.017 523.588 208.29 523.648C208.766 523.756 209.158 523.885 209.466 524.035C209.774 524.186 210.003 524.37 210.153 524.588C210.304 524.807 210.379 525.072 210.379 525.383C210.379 525.638 210.325 525.87 210.218 526.082C210.114 526.293 209.962 526.475 209.761 526.629C209.564 526.78 209.328 526.898 209.052 526.984C208.78 527.066 208.474 527.107 208.134 527.107C207.622 527.107 207.188 527.016 206.834 526.833C206.479 526.651 206.211 526.415 206.028 526.125C205.846 525.834 205.754 525.528 205.754 525.206H206.753C206.768 525.478 206.847 525.695 206.99 525.856C207.133 526.014 207.308 526.126 207.516 526.194C207.724 526.259 207.93 526.291 208.134 526.291C208.406 526.291 208.633 526.255 208.816 526.184C209.002 526.112 209.144 526.014 209.24 525.888C209.337 525.763 209.385 525.62 209.385 525.458Z" fill="#20336B"/>
<path d="M100.88 452.933H98.791V452.09H100.88C101.285 452.09 101.613 452.025 101.863 451.896C102.114 451.768 102.297 451.589 102.411 451.359C102.529 451.13 102.588 450.869 102.588 450.575C102.588 450.307 102.529 450.054 102.411 449.818C102.297 449.582 102.114 449.392 101.863 449.249C101.613 449.102 101.285 449.028 100.88 449.028H99.0327V456H97.9961V448.18H100.88C101.471 448.18 101.971 448.282 102.379 448.486C102.787 448.69 103.097 448.973 103.308 449.334C103.519 449.693 103.625 450.103 103.625 450.564C103.625 451.066 103.519 451.494 103.308 451.848C103.097 452.203 102.787 452.473 102.379 452.659C101.971 452.842 101.471 452.933 100.88 452.933ZM108.147 455.006V452.015C108.147 451.785 108.101 451.587 108.008 451.418C107.918 451.247 107.782 451.114 107.6 451.021C107.417 450.928 107.191 450.881 106.923 450.881C106.672 450.881 106.452 450.924 106.262 451.01C106.076 451.096 105.929 451.209 105.822 451.349C105.718 451.488 105.666 451.639 105.666 451.8H104.672C104.672 451.592 104.726 451.386 104.833 451.182C104.941 450.978 105.095 450.794 105.295 450.629C105.5 450.461 105.743 450.328 106.026 450.231C106.312 450.131 106.631 450.081 106.982 450.081C107.404 450.081 107.777 450.153 108.099 450.296C108.425 450.439 108.679 450.656 108.862 450.946C109.048 451.232 109.141 451.592 109.141 452.025V454.732C109.141 454.926 109.157 455.132 109.189 455.35C109.225 455.569 109.277 455.757 109.345 455.914V456H108.309C108.258 455.885 108.219 455.733 108.19 455.543C108.162 455.35 108.147 455.171 108.147 455.006ZM108.319 452.477L108.33 453.175H107.326C107.043 453.175 106.79 453.198 106.568 453.245C106.346 453.288 106.16 453.354 106.01 453.443C105.859 453.533 105.745 453.646 105.666 453.782C105.587 453.914 105.548 454.07 105.548 454.249C105.548 454.432 105.589 454.598 105.671 454.749C105.754 454.899 105.877 455.019 106.042 455.108C106.21 455.194 106.416 455.237 106.66 455.237C106.964 455.237 107.233 455.173 107.465 455.044C107.698 454.915 107.882 454.757 108.019 454.571C108.158 454.385 108.233 454.204 108.244 454.029L108.668 454.507C108.643 454.657 108.575 454.824 108.464 455.006C108.353 455.189 108.205 455.364 108.019 455.533C107.836 455.697 107.618 455.835 107.363 455.946C107.113 456.054 106.83 456.107 106.515 456.107C106.121 456.107 105.775 456.03 105.478 455.876C105.184 455.722 104.955 455.517 104.791 455.259C104.629 454.997 104.549 454.706 104.549 454.383C104.549 454.072 104.61 453.798 104.731 453.562C104.853 453.322 105.029 453.123 105.258 452.965C105.487 452.804 105.763 452.682 106.085 452.6C106.407 452.518 106.767 452.477 107.165 452.477H108.319ZM112.251 455.398L113.868 450.188H114.931L112.6 456.897C112.546 457.04 112.475 457.194 112.385 457.359C112.299 457.527 112.188 457.687 112.052 457.837C111.916 457.987 111.751 458.109 111.558 458.202C111.368 458.299 111.141 458.347 110.876 458.347C110.797 458.347 110.697 458.336 110.575 458.315C110.453 458.293 110.368 458.276 110.317 458.261L110.312 457.456C110.341 457.459 110.385 457.463 110.446 457.466C110.511 457.473 110.556 457.477 110.581 457.477C110.806 457.477 110.998 457.447 111.155 457.386C111.313 457.328 111.445 457.23 111.553 457.09C111.664 456.954 111.759 456.766 111.837 456.526L112.251 455.398ZM111.064 450.188L112.573 454.7L112.831 455.748L112.117 456.113L109.979 450.188H111.064ZM116.816 451.343V456H115.817V450.188H116.763L116.816 451.343ZM116.612 452.874L116.15 452.858C116.154 452.46 116.206 452.093 116.306 451.757C116.406 451.417 116.555 451.121 116.752 450.871C116.949 450.62 117.194 450.427 117.488 450.291C117.781 450.151 118.122 450.081 118.508 450.081C118.78 450.081 119.031 450.12 119.26 450.199C119.489 450.274 119.688 450.394 119.856 450.559C120.025 450.724 120.155 450.935 120.249 451.193C120.342 451.451 120.388 451.762 120.388 452.127V456H119.395V452.176C119.395 451.871 119.343 451.628 119.239 451.445C119.139 451.263 118.995 451.13 118.809 451.048C118.623 450.962 118.404 450.919 118.154 450.919C117.86 450.919 117.615 450.971 117.418 451.075C117.221 451.179 117.063 451.322 116.945 451.504C116.827 451.687 116.741 451.896 116.688 452.133C116.637 452.366 116.612 452.613 116.612 452.874ZM120.377 452.326L119.711 452.53C119.715 452.212 119.767 451.905 119.867 451.612C119.971 451.318 120.12 451.057 120.313 450.828C120.51 450.598 120.752 450.418 121.038 450.285C121.325 450.149 121.652 450.081 122.021 450.081C122.333 450.081 122.608 450.122 122.848 450.205C123.092 450.287 123.296 450.414 123.46 450.586C123.629 450.754 123.756 450.971 123.842 451.236C123.928 451.501 123.971 451.816 123.971 452.181V456H122.972V452.17C122.972 451.845 122.92 451.592 122.816 451.413C122.716 451.23 122.572 451.103 122.386 451.032C122.204 450.957 121.985 450.919 121.731 450.919C121.513 450.919 121.319 450.957 121.151 451.032C120.983 451.107 120.841 451.211 120.727 451.343C120.612 451.472 120.524 451.621 120.463 451.789C120.406 451.957 120.377 452.136 120.377 452.326ZM127.886 456.107C127.482 456.107 127.115 456.039 126.785 455.903C126.459 455.764 126.178 455.569 125.942 455.318C125.709 455.067 125.53 454.77 125.405 454.426C125.279 454.083 125.217 453.707 125.217 453.298V453.073C125.217 452.6 125.287 452.179 125.426 451.811C125.566 451.438 125.756 451.123 125.996 450.865C126.236 450.607 126.508 450.412 126.812 450.28C127.116 450.147 127.431 450.081 127.757 450.081C128.173 450.081 128.531 450.153 128.832 450.296C129.136 450.439 129.385 450.64 129.578 450.897C129.771 451.152 129.915 451.452 130.008 451.8C130.101 452.144 130.147 452.52 130.147 452.928V453.374H125.808V452.562H129.154V452.487C129.139 452.229 129.086 451.979 128.993 451.735C128.903 451.492 128.76 451.291 128.563 451.134C128.366 450.976 128.097 450.897 127.757 450.897C127.532 450.897 127.324 450.946 127.134 451.042C126.944 451.136 126.782 451.275 126.646 451.461C126.509 451.648 126.404 451.875 126.329 452.144C126.253 452.412 126.216 452.722 126.216 453.073V453.298C126.216 453.574 126.253 453.834 126.329 454.077C126.407 454.317 126.52 454.528 126.667 454.711C126.817 454.894 126.998 455.037 127.209 455.141C127.424 455.244 127.668 455.296 127.94 455.296C128.291 455.296 128.588 455.225 128.832 455.082C129.075 454.938 129.288 454.747 129.471 454.507L130.072 454.985C129.947 455.175 129.788 455.355 129.594 455.527C129.401 455.699 129.163 455.839 128.88 455.946C128.601 456.054 128.269 456.107 127.886 456.107ZM132.301 451.429V456H131.308V450.188H132.248L132.301 451.429ZM132.065 452.874L131.651 452.858C131.655 452.46 131.714 452.093 131.829 451.757C131.943 451.417 132.104 451.121 132.312 450.871C132.52 450.62 132.767 450.427 133.053 450.291C133.343 450.151 133.664 450.081 134.015 450.081C134.301 450.081 134.559 450.12 134.788 450.199C135.017 450.274 135.212 450.396 135.374 450.564C135.538 450.733 135.664 450.951 135.75 451.22C135.835 451.485 135.878 451.809 135.878 452.192V456H134.879V452.181C134.879 451.877 134.835 451.633 134.745 451.451C134.656 451.264 134.525 451.13 134.353 451.048C134.181 450.962 133.97 450.919 133.719 450.919C133.472 450.919 133.247 450.971 133.042 451.075C132.842 451.179 132.668 451.322 132.521 451.504C132.378 451.687 132.265 451.896 132.183 452.133C132.104 452.366 132.065 452.613 132.065 452.874ZM139.821 450.188V450.951H136.679V450.188H139.821ZM137.742 448.776H138.736V454.561C138.736 454.757 138.766 454.906 138.827 455.006C138.888 455.107 138.967 455.173 139.063 455.205C139.16 455.237 139.264 455.253 139.375 455.253C139.457 455.253 139.543 455.246 139.633 455.232C139.726 455.214 139.796 455.2 139.842 455.189L139.848 456C139.769 456.025 139.665 456.048 139.536 456.07C139.411 456.095 139.259 456.107 139.08 456.107C138.836 456.107 138.612 456.059 138.408 455.962C138.204 455.866 138.041 455.705 137.919 455.479C137.801 455.25 137.742 454.942 137.742 454.555V448.776ZM144.37 454.458C144.37 454.315 144.338 454.183 144.273 454.061C144.213 453.936 144.085 453.823 143.892 453.723C143.702 453.619 143.416 453.529 143.033 453.454C142.71 453.386 142.419 453.306 142.157 453.212C141.899 453.119 141.679 453.007 141.497 452.874C141.318 452.742 141.18 452.586 141.083 452.407C140.986 452.228 140.938 452.018 140.938 451.778C140.938 451.549 140.988 451.333 141.088 451.128C141.192 450.924 141.337 450.743 141.523 450.586C141.713 450.428 141.941 450.305 142.206 450.215C142.471 450.126 142.766 450.081 143.092 450.081C143.557 450.081 143.955 450.163 144.284 450.328C144.614 450.493 144.866 450.713 145.042 450.989C145.217 451.261 145.305 451.563 145.305 451.896H144.311C144.311 451.735 144.263 451.58 144.166 451.429C144.073 451.275 143.935 451.148 143.752 451.048C143.573 450.948 143.353 450.897 143.092 450.897C142.816 450.897 142.592 450.94 142.42 451.026C142.252 451.109 142.129 451.214 142.05 451.343C141.975 451.472 141.937 451.608 141.937 451.751C141.937 451.859 141.955 451.956 141.991 452.042C142.03 452.124 142.098 452.201 142.195 452.272C142.292 452.34 142.428 452.405 142.603 452.466C142.778 452.527 143.002 452.588 143.274 452.648C143.751 452.756 144.143 452.885 144.451 453.035C144.759 453.186 144.988 453.37 145.138 453.588C145.289 453.807 145.364 454.072 145.364 454.383C145.364 454.638 145.31 454.87 145.203 455.082C145.099 455.293 144.947 455.475 144.746 455.629C144.549 455.78 144.313 455.898 144.037 455.984C143.765 456.066 143.459 456.107 143.119 456.107C142.607 456.107 142.173 456.016 141.819 455.833C141.464 455.651 141.196 455.415 141.013 455.125C140.831 454.834 140.739 454.528 140.739 454.206H141.738C141.753 454.478 141.831 454.695 141.975 454.856C142.118 455.014 142.293 455.126 142.501 455.194C142.709 455.259 142.915 455.291 143.119 455.291C143.391 455.291 143.618 455.255 143.801 455.184C143.987 455.112 144.128 455.014 144.225 454.888C144.322 454.763 144.37 454.62 144.37 454.458Z" fill="#20336B"/>
<path d="M198.055 420.157V421H194.145V420.157H198.055ZM194.349 413.18V421H193.312V413.18H194.349ZM200.171 415.188V421H199.172V415.188H200.171ZM199.097 413.647C199.097 413.486 199.145 413.35 199.242 413.239C199.342 413.128 199.489 413.072 199.682 413.072C199.872 413.072 200.017 413.128 200.117 413.239C200.221 413.35 200.273 413.486 200.273 413.647C200.273 413.801 200.221 413.933 200.117 414.044C200.017 414.152 199.872 414.206 199.682 414.206C199.489 414.206 199.342 414.152 199.242 414.044C199.145 413.933 199.097 413.801 199.097 413.647ZM202.76 416.429V421H201.766V415.188H202.706L202.76 416.429ZM202.523 417.874L202.11 417.858C202.113 417.46 202.173 417.093 202.287 416.757C202.402 416.417 202.563 416.121 202.771 415.871C202.978 415.62 203.225 415.427 203.512 415.291C203.802 415.151 204.122 415.081 204.473 415.081C204.76 415.081 205.017 415.12 205.247 415.199C205.476 415.274 205.671 415.396 205.832 415.564C205.997 415.733 206.122 415.951 206.208 416.22C206.294 416.485 206.337 416.809 206.337 417.192V421H205.338V417.181C205.338 416.877 205.293 416.633 205.204 416.451C205.114 416.264 204.983 416.13 204.812 416.048C204.64 415.962 204.428 415.919 204.178 415.919C203.931 415.919 203.705 415.971 203.501 416.075C203.3 416.179 203.127 416.322 202.98 416.504C202.837 416.687 202.724 416.896 202.642 417.133C202.563 417.366 202.523 417.613 202.523 417.874ZM208.845 412.75V421H207.846V412.75H208.845ZM212.396 415.188L209.86 417.901L208.442 419.373L208.362 418.314L209.377 417.101L211.182 415.188H212.396ZM211.488 421L209.415 418.229L209.93 417.342L212.659 421H211.488ZM214.501 415.188V421H213.502V415.188H214.501ZM213.427 413.647C213.427 413.486 213.475 413.35 213.572 413.239C213.672 413.128 213.819 413.072 214.012 413.072C214.202 413.072 214.347 413.128 214.447 413.239C214.551 413.35 214.603 413.486 214.603 413.647C214.603 413.801 214.551 413.933 214.447 414.044C214.347 414.152 214.202 414.206 214.012 414.206C213.819 414.206 213.672 414.152 213.572 414.044C213.475 413.933 213.427 413.801 213.427 413.647ZM217.09 416.429V421H216.096V415.188H217.036L217.09 416.429ZM216.854 417.874L216.44 417.858C216.444 417.46 216.503 417.093 216.617 416.757C216.732 416.417 216.893 416.121 217.101 415.871C217.308 415.62 217.555 415.427 217.842 415.291C218.132 415.151 218.452 415.081 218.803 415.081C219.09 415.081 219.347 415.12 219.577 415.199C219.806 415.274 220.001 415.396 220.162 415.564C220.327 415.733 220.452 415.951 220.538 416.22C220.624 416.485 220.667 416.809 220.667 417.192V421H219.668V417.181C219.668 416.877 219.623 416.633 219.534 416.451C219.444 416.264 219.313 416.13 219.142 416.048C218.97 415.962 218.758 415.919 218.508 415.919C218.261 415.919 218.035 415.971 217.831 416.075C217.631 416.179 217.457 416.322 217.31 416.504C217.167 416.687 217.054 416.896 216.972 417.133C216.893 417.366 216.854 417.613 216.854 417.874ZM225.941 415.188H226.844V420.876C226.844 421.389 226.74 421.825 226.532 422.187C226.325 422.549 226.035 422.823 225.662 423.009C225.293 423.199 224.867 423.293 224.384 423.293C224.183 423.293 223.947 423.261 223.675 423.197C223.406 423.136 223.141 423.03 222.88 422.88C222.622 422.733 222.405 422.534 222.23 422.284L222.751 421.693C222.994 421.986 223.249 422.191 223.514 422.305C223.782 422.42 224.047 422.477 224.309 422.477C224.624 422.477 224.896 422.418 225.125 422.3C225.354 422.182 225.531 422.006 225.657 421.773C225.786 421.544 225.85 421.261 225.85 420.925V416.467L225.941 415.188ZM221.94 418.159V418.046C221.94 417.602 221.992 417.199 222.096 416.837C222.203 416.472 222.355 416.159 222.552 415.897C222.753 415.636 222.994 415.436 223.277 415.296C223.56 415.153 223.879 415.081 224.233 415.081C224.599 415.081 224.917 415.146 225.189 415.274C225.465 415.4 225.698 415.584 225.888 415.828C226.081 416.068 226.233 416.358 226.344 416.698C226.455 417.038 226.532 417.423 226.575 417.853V418.347C226.536 418.773 226.459 419.156 226.344 419.496C226.233 419.836 226.081 420.126 225.888 420.366C225.698 420.606 225.465 420.791 225.189 420.919C224.914 421.045 224.591 421.107 224.223 421.107C223.875 421.107 223.56 421.034 223.277 420.887C222.998 420.74 222.758 420.535 222.558 420.27C222.357 420.005 222.203 419.693 222.096 419.335C221.992 418.973 221.94 418.581 221.94 418.159ZM222.934 418.046V418.159C222.934 418.449 222.962 418.721 223.02 418.975C223.08 419.229 223.172 419.453 223.293 419.646C223.419 419.84 223.578 419.992 223.771 420.103C223.965 420.21 224.196 420.264 224.464 420.264C224.794 420.264 225.066 420.194 225.281 420.055C225.496 419.915 225.666 419.731 225.791 419.501C225.92 419.272 226.02 419.023 226.092 418.755V417.46C226.052 417.264 225.992 417.074 225.909 416.891C225.83 416.705 225.727 416.54 225.598 416.397C225.472 416.25 225.317 416.134 225.13 416.048C224.944 415.962 224.726 415.919 224.475 415.919C224.203 415.919 223.968 415.976 223.771 416.091C223.578 416.202 223.419 416.356 223.293 416.553C223.172 416.746 223.08 416.972 223.02 417.229C222.962 417.484 222.934 417.756 222.934 418.046Z" fill="#20336B"/>
<path d="M59.1152 179.18V187H58.0786V179.18H59.1152ZM61.8438 182.429V187H60.8501V181.188H61.79L61.8438 182.429ZM61.6074 183.874L61.1938 183.858C61.1974 183.46 61.2565 183.093 61.3711 182.757C61.4857 182.417 61.6468 182.121 61.8545 181.871C62.0622 181.62 62.3092 181.427 62.5957 181.291C62.8857 181.151 63.2062 181.081 63.5571 181.081C63.8436 181.081 64.1014 181.12 64.3306 181.199C64.5597 181.274 64.7549 181.396 64.916 181.564C65.0807 181.733 65.2061 181.951 65.292 182.22C65.3779 182.485 65.4209 182.809 65.4209 183.192V187H64.4219V183.181C64.4219 182.877 64.3771 182.633 64.2876 182.451C64.1981 182.264 64.0674 182.13 63.8955 182.048C63.7236 181.962 63.5124 181.919 63.2617 181.919C63.0146 181.919 62.7891 181.971 62.585 182.075C62.3844 182.179 62.2108 182.322 62.064 182.504C61.9207 182.687 61.8079 182.896 61.7256 183.133C61.6468 183.366 61.6074 183.613 61.6074 183.874ZM69.3633 181.188V181.951H66.2212V181.188H69.3633ZM67.2847 179.776H68.2783V185.561C68.2783 185.757 68.3088 185.906 68.3696 186.006C68.4305 186.107 68.5093 186.173 68.606 186.205C68.7026 186.237 68.8065 186.253 68.9175 186.253C68.9998 186.253 69.0858 186.246 69.1753 186.232C69.2684 186.214 69.3382 186.2 69.3848 186.189L69.3901 187C69.3114 187.025 69.2075 187.048 69.0786 187.07C68.9533 187.095 68.8011 187.107 68.6221 187.107C68.3786 187.107 68.1548 187.059 67.9507 186.962C67.7466 186.866 67.5837 186.705 67.4619 186.479C67.3438 186.25 67.2847 185.942 67.2847 185.555V179.776ZM72.9404 187.107C72.5358 187.107 72.1688 187.039 71.8394 186.903C71.5135 186.764 71.2324 186.569 70.9961 186.318C70.7633 186.067 70.5843 185.77 70.459 185.426C70.3337 185.083 70.271 184.707 70.271 184.298V184.073C70.271 183.6 70.3408 183.179 70.4805 182.811C70.6201 182.438 70.8099 182.123 71.0498 181.865C71.2897 181.607 71.5618 181.412 71.8662 181.28C72.1706 181.147 72.4857 181.081 72.8115 181.081C73.2269 181.081 73.585 181.153 73.8857 181.296C74.1901 181.439 74.439 181.64 74.6323 181.897C74.8257 182.152 74.9689 182.452 75.062 182.8C75.1551 183.144 75.2017 183.52 75.2017 183.928V184.374H70.8618V183.562H74.208V183.487C74.1937 183.229 74.14 182.979 74.0469 182.735C73.9574 182.492 73.8141 182.291 73.6172 182.134C73.4202 181.976 73.1517 181.897 72.8115 181.897C72.5859 181.897 72.3783 181.946 72.1885 182.042C71.9987 182.136 71.8358 182.275 71.6997 182.461C71.5636 182.648 71.458 182.875 71.3828 183.144C71.3076 183.412 71.27 183.722 71.27 184.073V184.298C71.27 184.574 71.3076 184.834 71.3828 185.077C71.4616 185.317 71.5744 185.528 71.7212 185.711C71.8716 185.894 72.0524 186.037 72.2637 186.141C72.4785 186.244 72.722 186.296 72.9941 186.296C73.3451 186.296 73.6423 186.225 73.8857 186.082C74.1292 185.938 74.3423 185.747 74.5249 185.507L75.1265 185.985C75.0011 186.175 74.8418 186.355 74.6484 186.527C74.4551 186.699 74.217 186.839 73.9341 186.946C73.6548 187.054 73.3236 187.107 72.9404 187.107ZM80.127 181.188H81.0293V186.876C81.0293 187.389 80.9255 187.825 80.7178 188.187C80.5101 188.549 80.2201 188.823 79.8477 189.009C79.4788 189.199 79.0527 189.293 78.5693 189.293C78.3688 189.293 78.1325 189.261 77.8604 189.197C77.5918 189.136 77.3268 189.03 77.0654 188.88C76.8076 188.733 76.591 188.534 76.4155 188.284L76.9365 187.693C77.18 187.986 77.4342 188.191 77.6992 188.305C77.9678 188.42 78.2327 188.477 78.4941 188.477C78.8092 188.477 79.0814 188.418 79.3105 188.3C79.5397 188.182 79.717 188.006 79.8423 187.773C79.9712 187.544 80.0356 187.261 80.0356 186.925V182.467L80.127 181.188ZM76.1255 184.159V184.046C76.1255 183.602 76.1774 183.199 76.2812 182.837C76.3887 182.472 76.5409 182.159 76.7378 181.897C76.9383 181.636 77.18 181.436 77.4629 181.296C77.7458 181.153 78.0645 181.081 78.4189 181.081C78.7842 181.081 79.1029 181.146 79.375 181.274C79.6507 181.4 79.8835 181.584 80.0732 181.828C80.2666 182.068 80.4188 182.358 80.5298 182.698C80.6408 183.038 80.7178 183.423 80.7607 183.853V184.347C80.7214 184.773 80.6444 185.156 80.5298 185.496C80.4188 185.836 80.2666 186.126 80.0732 186.366C79.8835 186.606 79.6507 186.791 79.375 186.919C79.0993 187.045 78.777 187.107 78.4082 187.107C78.0609 187.107 77.7458 187.034 77.4629 186.887C77.1836 186.74 76.9437 186.535 76.7432 186.27C76.5426 186.005 76.3887 185.693 76.2812 185.335C76.1774 184.973 76.1255 184.581 76.1255 184.159ZM77.1191 184.046V184.159C77.1191 184.449 77.1478 184.721 77.2051 184.975C77.266 185.229 77.3573 185.453 77.479 185.646C77.6043 185.84 77.7637 185.992 77.957 186.103C78.1504 186.21 78.3813 186.264 78.6499 186.264C78.9793 186.264 79.2515 186.194 79.4663 186.055C79.6812 185.915 79.8512 185.731 79.9766 185.501C80.1055 185.272 80.2057 185.023 80.2773 184.755V183.46C80.238 183.264 80.1771 183.074 80.0947 182.891C80.016 182.705 79.9121 182.54 79.7832 182.397C79.6579 182.25 79.5021 182.134 79.3159 182.048C79.1297 181.962 78.9113 181.919 78.6606 181.919C78.3885 181.919 78.154 181.976 77.957 182.091C77.7637 182.202 77.6043 182.356 77.479 182.553C77.3573 182.746 77.266 182.972 77.2051 183.229C77.1478 183.484 77.1191 183.756 77.1191 184.046ZM83.5322 182.102V187H82.5386V181.188H83.5054L83.5322 182.102ZM85.3477 181.156L85.3423 182.08C85.2599 182.062 85.1812 182.051 85.106 182.048C85.0343 182.041 84.952 182.037 84.8589 182.037C84.6297 182.037 84.4274 182.073 84.252 182.145C84.0765 182.216 83.9279 182.316 83.8062 182.445C83.6844 182.574 83.5877 182.728 83.5161 182.907C83.4481 183.083 83.4033 183.276 83.3818 183.487L83.1025 183.648C83.1025 183.298 83.1366 182.968 83.2046 182.66C83.2762 182.352 83.3854 182.08 83.5322 181.844C83.679 181.604 83.8652 181.418 84.0908 181.285C84.32 181.149 84.5921 181.081 84.9072 181.081C84.9788 181.081 85.0612 181.09 85.1543 181.108C85.2474 181.122 85.3118 181.138 85.3477 181.156ZM89.478 186.006V183.015C89.478 182.785 89.4315 182.587 89.3384 182.418C89.2489 182.247 89.1128 182.114 88.9302 182.021C88.7476 181.928 88.522 181.881 88.2534 181.881C88.0028 181.881 87.7826 181.924 87.5928 182.01C87.4066 182.096 87.2598 182.209 87.1523 182.349C87.0485 182.488 86.9966 182.639 86.9966 182.8H86.0029C86.0029 182.592 86.0566 182.386 86.1641 182.182C86.2715 181.978 86.4255 181.794 86.626 181.629C86.8301 181.461 87.0736 181.328 87.3564 181.231C87.6429 181.131 87.9616 181.081 88.3125 181.081C88.735 181.081 89.1074 181.153 89.4297 181.296C89.7555 181.439 90.0098 181.656 90.1924 181.946C90.3786 182.232 90.4717 182.592 90.4717 183.025V185.732C90.4717 185.926 90.4878 186.132 90.52 186.35C90.5558 186.569 90.6077 186.757 90.6758 186.914V187H89.6392C89.589 186.885 89.5496 186.733 89.521 186.543C89.4924 186.35 89.478 186.171 89.478 186.006ZM89.6499 183.477L89.6606 184.175H88.6562C88.3734 184.175 88.1209 184.198 87.8989 184.245C87.6769 184.288 87.4907 184.354 87.3403 184.443C87.1899 184.533 87.0754 184.646 86.9966 184.782C86.9178 184.914 86.8784 185.07 86.8784 185.249C86.8784 185.432 86.9196 185.598 87.002 185.749C87.0843 185.899 87.2078 186.019 87.3726 186.108C87.5409 186.194 87.7467 186.237 87.9902 186.237C88.2946 186.237 88.5632 186.173 88.7959 186.044C89.0286 185.915 89.2131 185.757 89.3491 185.571C89.4888 185.385 89.564 185.204 89.5747 185.029L89.999 185.507C89.974 185.657 89.9059 185.824 89.7949 186.006C89.6839 186.189 89.5353 186.364 89.3491 186.533C89.1665 186.697 88.9481 186.835 88.6938 186.946C88.4432 187.054 88.1603 187.107 87.8452 187.107C87.4513 187.107 87.1058 187.03 86.8086 186.876C86.515 186.722 86.2858 186.517 86.1211 186.259C85.96 185.997 85.8794 185.706 85.8794 185.383C85.8794 185.072 85.9403 184.798 86.062 184.562C86.1838 184.322 86.3592 184.123 86.5884 183.965C86.8175 183.804 87.0933 183.682 87.4155 183.6C87.7378 183.518 88.0977 183.477 88.4951 183.477H89.6499ZM94.4678 181.188V181.951H91.3257V181.188H94.4678ZM92.3892 179.776H93.3828V185.561C93.3828 185.757 93.4132 185.906 93.4741 186.006C93.535 186.107 93.6138 186.173 93.7104 186.205C93.8071 186.237 93.911 186.253 94.022 186.253C94.1043 186.253 94.1903 186.246 94.2798 186.232C94.3729 186.214 94.4427 186.2 94.4893 186.189L94.4946 187C94.4159 187.025 94.312 187.048 94.1831 187.07C94.0578 187.095 93.9056 187.107 93.7266 187.107C93.4831 187.107 93.2593 187.059 93.0552 186.962C92.8511 186.866 92.6882 186.705 92.5664 186.479C92.4482 186.25 92.3892 185.942 92.3892 185.555V179.776ZM96.7129 181.188V187H95.7139V181.188H96.7129ZM95.6387 179.647C95.6387 179.486 95.687 179.35 95.7837 179.239C95.884 179.128 96.0308 179.072 96.2241 179.072C96.4139 179.072 96.5589 179.128 96.6592 179.239C96.763 179.35 96.8149 179.486 96.8149 179.647C96.8149 179.801 96.763 179.933 96.6592 180.044C96.5589 180.152 96.4139 180.206 96.2241 180.206C96.0308 180.206 95.884 180.152 95.7837 180.044C95.687 179.933 95.6387 179.801 95.6387 179.647ZM98.0449 184.159V184.035C98.0449 183.616 98.1058 183.228 98.2275 182.87C98.3493 182.508 98.5247 182.195 98.7539 181.93C98.9831 181.661 99.2606 181.453 99.5864 181.307C99.9123 181.156 100.278 181.081 100.682 181.081C101.09 181.081 101.457 181.156 101.783 181.307C102.113 181.453 102.392 181.661 102.621 181.93C102.854 182.195 103.031 182.508 103.153 182.87C103.275 183.228 103.335 183.616 103.335 184.035V184.159C103.335 184.578 103.275 184.966 103.153 185.324C103.031 185.682 102.854 185.996 102.621 186.264C102.392 186.529 102.114 186.737 101.789 186.887C101.466 187.034 101.101 187.107 100.693 187.107C100.285 187.107 99.9176 187.034 99.5918 186.887C99.266 186.737 98.9867 186.529 98.7539 186.264C98.5247 185.996 98.3493 185.682 98.2275 185.324C98.1058 184.966 98.0449 184.578 98.0449 184.159ZM99.0386 184.035V184.159C99.0386 184.449 99.0726 184.723 99.1406 184.98C99.2087 185.235 99.3107 185.46 99.4468 185.657C99.5864 185.854 99.7601 186.01 99.9678 186.125C100.175 186.236 100.417 186.291 100.693 186.291C100.965 186.291 101.203 186.236 101.407 186.125C101.615 186.01 101.787 185.854 101.923 185.657C102.059 185.46 102.161 185.235 102.229 184.98C102.301 184.723 102.336 184.449 102.336 184.159V184.035C102.336 183.749 102.301 183.478 102.229 183.224C102.161 182.966 102.057 182.739 101.917 182.542C101.781 182.341 101.61 182.184 101.402 182.069C101.198 181.955 100.958 181.897 100.682 181.897C100.41 181.897 100.17 181.955 99.9624 182.069C99.7583 182.184 99.5864 182.341 99.4468 182.542C99.3107 182.739 99.2087 182.966 99.1406 183.224C99.0726 183.478 99.0386 183.749 99.0386 184.035ZM105.575 182.429V187H104.582V181.188H105.521L105.575 182.429ZM105.339 183.874L104.925 183.858C104.929 183.46 104.988 183.093 105.103 182.757C105.217 182.417 105.378 182.121 105.586 181.871C105.794 181.62 106.041 181.427 106.327 181.291C106.617 181.151 106.938 181.081 107.289 181.081C107.575 181.081 107.833 181.12 108.062 181.199C108.291 181.274 108.486 181.396 108.647 181.564C108.812 181.733 108.938 181.951 109.023 182.22C109.109 182.485 109.152 182.809 109.152 183.192V187H108.153V183.181C108.153 182.877 108.109 182.633 108.019 182.451C107.93 182.264 107.799 182.13 107.627 182.048C107.455 181.962 107.244 181.919 106.993 181.919C106.746 181.919 106.521 181.971 106.316 182.075C106.116 182.179 105.942 182.322 105.795 182.504C105.652 182.687 105.539 182.896 105.457 183.133C105.378 183.366 105.339 183.613 105.339 183.874Z" fill="#20336B"/>
<path d="M284.157 390.945L285 390.945L285 394.855L284.157 394.855L284.157 390.945ZM277.18 394.651L285 394.651L285 395.688L277.18 395.688L277.18 394.651ZM279.188 388.829L285 388.829L285 389.828L279.188 389.828L279.188 388.829ZM277.647 389.903C277.486 389.903 277.35 389.855 277.239 389.758C277.128 389.658 277.072 389.511 277.072 389.318C277.072 389.128 277.128 388.983 277.239 388.883C277.35 388.779 277.486 388.727 277.647 388.727C277.801 388.727 277.933 388.779 278.044 388.883C278.152 388.983 278.206 389.128 278.206 389.318C278.206 389.511 278.152 389.658 278.044 389.758C277.933 389.855 277.801 389.903 277.647 389.903ZM280.429 386.24L285 386.24L285 387.234L279.188 387.234L279.188 386.294L280.429 386.24ZM281.874 386.477L281.858 386.89C281.46 386.887 281.093 386.827 280.757 386.713C280.417 386.598 280.121 386.437 279.871 386.229C279.62 386.022 279.427 385.775 279.291 385.488C279.151 385.198 279.081 384.878 279.081 384.527C279.081 384.24 279.12 383.983 279.199 383.753C279.274 383.524 279.396 383.329 279.564 383.168C279.733 383.003 279.951 382.878 280.22 382.792C280.485 382.706 280.809 382.663 281.192 382.663L285 382.663L285 383.662L281.181 383.662C280.877 383.662 280.633 383.707 280.451 383.796C280.264 383.886 280.13 384.017 280.048 384.188C279.962 384.36 279.919 384.572 279.919 384.822C279.919 385.069 279.971 385.295 280.075 385.499C280.179 385.7 280.322 385.873 280.504 386.02C280.687 386.163 280.896 386.276 281.133 386.358C281.366 386.437 281.613 386.477 281.874 386.477ZM276.75 380.155L285 380.155L285 381.154L276.75 381.154L276.75 380.155ZM279.188 376.604L281.901 379.14L283.373 380.558L282.314 380.638L281.101 379.623L279.188 377.818L279.188 376.604ZM285 377.512L282.229 379.585L281.342 379.07L285 376.341L285 377.512ZM279.188 374.499L285 374.499L285 375.498L279.188 375.498L279.188 374.499ZM277.647 375.573C277.486 375.573 277.35 375.525 277.239 375.428C277.128 375.328 277.072 375.181 277.072 374.988C277.072 374.798 277.128 374.653 277.239 374.553C277.35 374.449 277.486 374.397 277.647 374.397C277.801 374.397 277.933 374.449 278.044 374.553C278.152 374.653 278.206 374.798 278.206 374.988C278.206 375.181 278.152 375.328 278.044 375.428C277.933 375.525 277.801 375.573 277.647 375.573ZM280.429 371.91L285 371.91L285 372.904L279.188 372.904L279.188 371.964L280.429 371.91ZM281.874 372.146L281.858 372.56C281.46 372.556 281.093 372.497 280.757 372.383C280.417 372.268 280.121 372.107 279.871 371.899C279.62 371.692 279.427 371.445 279.291 371.158C279.151 370.868 279.081 370.548 279.081 370.197C279.081 369.91 279.12 369.653 279.199 369.423C279.274 369.194 279.396 368.999 279.564 368.838C279.733 368.673 279.951 368.548 280.22 368.462C280.485 368.376 280.809 368.333 281.192 368.333L285 368.333L285 369.332L281.181 369.332C280.877 369.332 280.633 369.377 280.451 369.466C280.264 369.556 280.13 369.687 280.048 369.858C279.962 370.03 279.919 370.242 279.919 370.492C279.919 370.739 279.971 370.965 280.075 371.169C280.179 371.369 280.322 371.543 280.504 371.69C280.687 371.833 280.896 371.946 281.133 372.028C281.366 372.107 281.613 372.146 281.874 372.146ZM279.188 363.059L279.188 362.156L284.876 362.156C285.389 362.156 285.825 362.26 286.187 362.468C286.549 362.675 286.823 362.965 287.009 363.338C287.199 363.707 287.293 364.133 287.293 364.616C287.293 364.817 287.261 365.053 287.197 365.325C287.136 365.594 287.03 365.859 286.88 366.12C286.733 366.378 286.534 366.595 286.284 366.77L285.693 366.249C285.986 366.006 286.191 365.751 286.305 365.486C286.42 365.218 286.477 364.953 286.477 364.691C286.477 364.376 286.418 364.104 286.3 363.875C286.182 363.646 286.006 363.469 285.773 363.343C285.544 363.214 285.261 363.15 284.925 363.15L280.467 363.15L279.188 363.059ZM282.159 367.06L282.046 367.06C281.602 367.06 281.199 367.008 280.837 366.904C280.472 366.797 280.159 366.645 279.897 366.448C279.636 366.247 279.436 366.006 279.296 365.723C279.153 365.44 279.081 365.121 279.081 364.767C279.081 364.401 279.146 364.083 279.274 363.811C279.4 363.535 279.584 363.302 279.828 363.112C280.068 362.919 280.358 362.767 280.698 362.656C281.038 362.545 281.423 362.468 281.853 362.425L282.347 362.425C282.773 362.464 283.156 362.541 283.496 362.656C283.836 362.767 284.126 362.919 284.366 363.112C284.606 363.302 284.791 363.535 284.919 363.811C285.045 364.086 285.107 364.409 285.107 364.777C285.107 365.125 285.034 365.44 284.887 365.723C284.74 366.002 284.535 366.242 284.27 366.442C284.005 366.643 283.693 366.797 283.335 366.904C282.973 367.008 282.581 367.06 282.159 367.06ZM282.046 366.066L282.159 366.066C282.449 366.066 282.721 366.038 282.975 365.98C283.229 365.92 283.453 365.828 283.646 365.707C283.84 365.581 283.992 365.422 284.103 365.229C284.21 365.035 284.264 364.804 284.264 364.536C284.264 364.206 284.194 363.934 284.055 363.719C283.915 363.504 283.731 363.334 283.501 363.209C283.272 363.08 283.023 362.98 282.755 362.908L281.46 362.908C281.264 362.948 281.074 363.008 280.891 363.091C280.705 363.17 280.54 363.273 280.397 363.402C280.25 363.528 280.134 363.683 280.048 363.87C279.962 364.056 279.919 364.274 279.919 364.525C279.919 364.797 279.976 365.032 280.091 365.229C280.202 365.422 280.356 365.581 280.553 365.707C280.746 365.828 280.972 365.92 281.229 365.98C281.484 366.038 281.756 366.066 282.046 366.066Z" fill="#20336B"/>
<path d="M44.0033 308V453.256C43.8452 465.084 49.222 488.742 78.6312 488.742C106.617 488.742 187.405 488.269 238 488.269" stroke="#4ABCEB"/>
<path d="M240.001 466H86.3351C78.0294 466 65.2366 454.726 65.5688 438.024C65.9011 421.322 65.7078 345.049 65.5694 309" stroke="#0E9C4A"/>
<path d="M23.0037 308V471.315C22.8285 484.614 28.7872 511.212 61.38 511.212C92.3946 511.212 181.928 510.68 238 510.68" stroke="#4D148C"/>
</svg>
