<svg width="461" height="239" viewBox="0 0 461 239" fill="none" xmlns="http://www.w3.org/2000/svg">
<path d="M0 53H95.25H120.5M460 116C460.167 86.333 460.4 23.5 460 13.5C459.6 3.5 447.5 1 441.5 1C369.167 1 222.7 1 215.5 1C208.3 1 204.5 7.33333 203.5 10.5C203.5 13 203.5 21.1 203.5 33.5C203.5 42.7 197.833 45 195 45H167.5L120.5 53M460 212C460 213.833 460 219.2 460 226C460 232.8 453 237.441 447 237.5C430.167 237.667 393.2 237.9 380 237.5C366.8 237.1 365.5 222.333 366.5 215C366.167 190.5 365.7 137.7 366.5 122.5C367.3 107.3 353.5 104.5 346.5 105C308.333 105.167 229 105.4 217 105C202 104.5 203.5 91.5 203.5 75C203.5 65.7375 197.833 64.1406 195 64.5H167.5L120.5 53" stroke="url(#paint0_linear_3806_10705)" stroke-width="1.5"/>
<defs>
<linearGradient id="paint0_linear_3806_10705" x1="230.11" y1="1" x2="230.11" y2="168" gradientUnits="userSpaceOnUse">
<stop stop-color="#9B66FF"/>
<stop offset="1" stop-color="#13ECE2"/>
</linearGradient>
</defs>
</svg>
