<svg width="28" height="52" viewBox="0 0 28 52" fill="none" xmlns="http://www.w3.org/2000/svg">
<path fill-rule="evenodd" clip-rule="evenodd" d="M14.2435 23.431C12.5065 23.4314 10.9404 22.3849 10.2756 20.7798C9.6107 19.1747 9.97796 17.327 11.2062 16.0983C12.4343 14.8697 14.2813 14.5021 15.8862 15.1669C17.491 15.8317 18.5373 17.3981 18.5373 19.1355C18.5353 21.5067 16.614 23.4285 14.2435 23.431ZM14.2437 16.0788C13.0073 16.0785 11.8924 16.8234 11.4193 17.9659C10.946 19.1084 11.2076 20.4236 12.0818 21.2981C12.9561 22.1726 14.2707 22.434 15.413 21.9606C16.5554 21.4873 17.3 20.3722 17.2998 19.1356C17.2979 17.4483 15.9307 16.0808 14.2437 16.0788ZM21.0986 32.6309H7.38846L6.76953 32.0118C6.76953 29.341 8.19406 26.8729 10.5065 25.5373C12.8191 24.2019 15.6679 24.2019 17.9805 25.5373C20.293 26.8729 21.7175 29.341 21.7175 32.0118L21.0986 32.6309ZM8.03683 31.3926H20.4506C20.1369 28.1989 17.452 25.7641 14.2437 25.7641C11.0352 25.7641 8.35042 28.1989 8.03683 31.3926Z" fill="#C8D0DB"/>
<path d="M24.8277 1C26.1019 1 27.1345 2.03261 27.1345 3.30678V44.6932C27.1345 45.9673 26.1019 47 24.8277 47H3.30678C2.03261 47 1 45.9673 1 44.6932V3.30678C1 2.03261 2.03261 1 3.30678 1H24.8277Z" stroke="#C8D0DB" stroke-linecap="round" stroke-linejoin="round"/>
<path d="M2.15625 9.16797H25.2241" stroke="#C8D0DB" stroke-linecap="square"/>
<path d="M3.30469 38.0039H26.3725" stroke="#C8D0DB" stroke-linecap="square"/>
<path d="M18.2985 4.09375C18.9356 4.09375 19.4519 4.61005 19.4519 5.24714C19.4519 5.88423 18.9356 6.40053 18.2985 6.40053H9.07136C8.43427 6.40053 7.91797 5.88423 7.91797 5.24714C7.91797 4.61005 8.43427 4.09375 9.07136 4.09375H18.2985Z" fill="#C8D0DB"/>
<g filter="url(#filter0_d_3285_7428)">
<path fill-rule="evenodd" clip-rule="evenodd" d="M12.5352 42.6193C12.5352 41.3452 13.5679 40.3125 14.8419 40.3125C16.1159 40.3125 17.1487 41.3452 17.1487 42.6193C17.1487 43.8933 16.1159 44.9261 14.8419 44.9261C13.5679 44.9261 12.5352 43.8933 12.5352 42.6193Z" stroke="#C8D0DB" stroke-width="0.6"/>
</g>
<defs>
<filter id="filter0_d_3285_7428" x="8.23438" y="38.0117" width="13.2148" height="13.2148" filterUnits="userSpaceOnUse" color-interpolation-filters="sRGB">
<feFlood flood-opacity="0" result="BackgroundImageFix"/>
<feColorMatrix in="SourceAlpha" type="matrix" values="0 0 0 0 0 0 0 0 0 0 0 0 0 0 0 0 0 0 127 0" result="hardAlpha"/>
<feOffset dy="2"/>
<feGaussianBlur stdDeviation="2"/>
<feColorMatrix type="matrix" values="0 0 0 0 0.392157 0 0 0 0 0.392157 0 0 0 0 0.392157 0 0 0 0.498039 0"/>
<feBlend mode="normal" in2="BackgroundImageFix" result="effect1_dropShadow_3285_7428"/>
<feBlend mode="normal" in="SourceGraphic" in2="effect1_dropShadow_3285_7428" result="shape"/>
</filter>
</defs>
</svg>
