<svg width="48" height="48" viewBox="0 0 48 48" fill="none" xmlns="http://www.w3.org/2000/svg">
<rect x="0.5" y="0.5" width="47" height="47" rx="23.5" stroke="#D3D3D3"/>
<path d="M21.4369 31C21.3702 31 21.1969 30.9867 20.9169 30.96C20.6369 30.92 20.2969 30.8733 19.8969 30.82C19.4969 30.7667 19.0835 30.7067 18.6569 30.64C18.2435 30.5733 17.8502 30.5067 17.4769 30.44C17.1169 30.3733 16.8369 30.3133 16.6369 30.26C16.6369 30.0867 16.6569 29.9333 16.6969 29.8C16.7369 29.6667 16.7835 29.5733 16.8369 29.52L17.2369 29.4C17.3702 29.3467 17.5102 29.3133 17.6569 29.3C17.8035 29.2733 17.9702 29.1667 18.1569 28.98C18.3435 28.7933 18.5435 28.46 18.7569 27.98C18.9702 27.4867 19.2102 26.76 19.4769 25.8L21.5769 18.24C21.6835 18.12 21.8702 17.9733 22.1369 17.8C22.4169 17.6133 22.7302 17.4333 23.0769 17.26C23.4235 17.0733 23.7502 16.92 24.0569 16.8C24.3769 16.6667 24.6235 16.6 24.7969 16.6C24.9835 16.6 25.2702 16.6533 25.6569 16.76C26.0569 16.8667 26.4635 17.0133 26.8769 17.2C27.2902 17.3733 27.6369 17.5733 27.9169 17.8L30.3969 28.88C30.4369 29.04 30.5102 29.1533 30.6169 29.22C30.7235 29.2733 30.8569 29.3133 31.0169 29.34L32.2569 29.56C32.3102 29.64 32.3502 29.7133 32.3769 29.78C32.4169 29.8467 32.4435 30.0067 32.4569 30.26C32.3502 30.38 32.1769 30.5 31.9369 30.62C31.6969 30.7267 31.4502 30.82 31.1969 30.9C30.9435 30.9667 30.7369 31 30.5769 31C30.5102 31 30.3035 30.98 29.9569 30.94C29.6102 30.9 29.1902 30.8533 28.6969 30.8C28.2035 30.7333 27.7035 30.6667 27.1969 30.6C26.7035 30.5333 26.2635 30.4667 25.8769 30.4C25.4902 30.3333 25.2302 30.28 25.0969 30.24C25.0969 30.04 25.1302 29.8733 25.1969 29.74C25.2635 29.5933 25.3035 29.5133 25.3169 29.5L25.9169 29.44C26.0502 29.4267 26.1969 29.38 26.3569 29.3C26.5302 29.22 26.6569 29.0733 26.7369 28.86C26.8302 28.6467 26.8302 28.32 26.7369 27.88L26.1369 25.38H21.6569L20.8969 28.04C20.8435 28.2267 20.7569 28.42 20.6369 28.62C20.5302 28.82 20.4102 28.9933 20.2769 29.14C20.1569 29.2733 20.0569 29.3467 19.9769 29.36L23.0569 29.6C23.0835 29.64 23.1302 29.7267 23.1969 29.86C23.2635 29.98 23.2969 30.12 23.2969 30.28C23.2035 30.3867 23.0369 30.5 22.7969 30.62C22.5569 30.7267 22.3102 30.82 22.0569 30.9C21.8035 30.9667 21.5969 31 21.4369 31ZM22.0369 23.9C22.7435 23.86 23.3369 23.8333 23.8169 23.82C24.3102 23.7933 24.7169 23.7667 25.0369 23.74C25.3569 23.7133 25.5969 23.6867 25.7569 23.66L24.8369 19.3C24.5969 19.14 24.3569 19.0133 24.1169 18.92C23.8902 18.8133 23.6435 18.74 23.3769 18.7L22.0369 23.9Z" fill="#D3D3D3"/>
</svg>
