<svg width="37" height="32" viewBox="0 0 37 32" fill="none" xmlns="http://www.w3.org/2000/svg">
<g clip-path="url(#clip0_734_19)">
<path d="M18.0982 10.0547C16.905 10.0547 15.7387 10.4085 14.7466 11.0714C13.7545 11.7343 12.9813 12.6765 12.5247 13.7788C12.0681 14.8811 11.9486 16.0941 12.1814 17.2644C12.4142 18.4346 12.9887 19.5095 13.8324 20.3532C14.6761 21.1969 15.751 21.7715 16.9213 22.0042C18.0915 22.237 19.3045 22.1176 20.4068 21.6609C21.5092 21.2043 22.4513 20.4311 23.1142 19.439C23.7771 18.447 24.1309 17.2806 24.1309 16.0874C24.1309 14.4875 23.4953 12.953 22.364 11.8216C21.2326 10.6903 19.6982 10.0547 18.0982 10.0547ZM18.0982 19.7071C17.3823 19.7071 16.6825 19.4948 16.0872 19.0971C15.492 18.6993 15.028 18.134 14.7541 17.4726C14.4801 16.8112 14.4084 16.0834 14.5481 15.3813C14.6878 14.6791 15.0325 14.0342 15.5387 13.528C16.0449 13.0217 16.6899 12.677 17.392 12.5373C18.0942 12.3977 18.822 12.4694 19.4834 12.7433C20.1448 13.0173 20.7101 13.4812 21.1078 14.0765C21.5055 14.6717 21.7178 15.3715 21.7178 16.0874C21.7178 17.0474 21.3365 17.9681 20.6577 18.6469C19.9789 19.3257 19.0582 19.7071 18.0982 19.7071ZM34.9898 5.22852H1.20655C0.88655 5.22852 0.57966 5.35563 0.353389 5.58191C0.127118 5.80818 0 6.11507 0 6.43506V25.7398C0 26.0598 0.127118 26.3667 0.353389 26.593C0.57966 26.8192 0.88655 26.9464 1.20655 26.9464H34.9898C35.3098 26.9464 35.6167 26.8192 35.843 26.593C36.0693 26.3667 36.1964 26.0598 36.1964 25.7398V6.43506C36.1964 6.11507 36.0693 5.80818 35.843 5.58191C35.6167 5.35563 35.3098 5.22852 34.9898 5.22852ZM27.9994 24.5333H8.19697C7.79188 23.1632 7.05046 21.9163 6.04025 20.9061C5.03003 19.8959 3.78312 19.1545 2.41309 18.7494V13.4255C3.78312 13.0204 5.03003 12.279 6.04025 11.2688C7.05046 10.2585 7.79188 9.01164 8.19697 7.64161H27.9994C28.4045 9.01164 29.1459 10.2585 30.1561 11.2688C31.1664 12.279 32.4133 13.0204 33.7833 13.4255V18.7494C32.4133 19.1545 31.1664 19.8959 30.1561 20.9061C29.1459 21.9163 28.4045 23.1632 27.9994 24.5333ZM33.7833 10.8646C32.3361 10.2423 31.1826 9.0888 30.5603 7.64161H33.7833V10.8646ZM5.63608 7.64161C5.01379 9.0888 3.86029 10.2423 2.41309 10.8646V7.64161H5.63608ZM2.41309 21.3103C3.86029 21.9326 5.01379 23.0861 5.63608 24.5333H2.41309V21.3103ZM30.5603 24.5333C31.1826 23.0861 32.3361 21.9326 33.7833 21.3103V24.5333H30.5603Z" fill="#20336B"/>
<path d="M33.2498 1.9198L31.1953 0L3.08717 30.0802L5.14166 32L33.2498 1.9198Z" fill="#3FAFE9"/>
</g>
<defs>
<clipPath id="clip0_734_19">
<rect width="37" height="32" fill="white"/>
</clipPath>
</defs>
</svg>
