<svg width="33" height="17" viewBox="0 0 33 17" fill="none" xmlns="http://www.w3.org/2000/svg">
<path d="M30.923 1H7.72656C7.17428 1 6.72656 1.44772 6.72656 2V14.5714C6.72656 15.1237 7.17428 15.5714 7.72656 15.5714H30.923C31.4753 15.5714 31.923 15.1237 31.923 14.5714V2C31.923 1.44772 31.4753 1 30.923 1Z" stroke="#FF5900"/>
<ellipse cx="4.85765" cy="12.4274" rx="4.85765" ry="4.57191" fill="#EBCAB4"/>
<path d="M2.28125 12.607L3.44735 13.7889C3.82347 14.1701 4.43314 14.1874 4.83021 13.828L7.79763 11.1426" stroke="#FF5900" stroke-linecap="round"/>
<path d="M20.8438 4H27.8259" stroke="#FF5900"/>
<path d="M20.8438 6.85938H27.8259" stroke="#FF5900"/>
<path d="M20.8438 9.85938H27.8259" stroke="#FF5900"/>
<path d="M20.8438 12.7129H27.8259" stroke="#FF5900"/>
<path d="M16.4074 6.57003C16.4074 7.84373 15.3011 8.92718 13.8716 8.92718C12.4422 8.92718 11.3359 7.84373 11.3359 6.57003C11.3359 5.29634 12.4422 4.21289 13.8716 4.21289C15.3011 4.21289 16.4074 5.29634 16.4074 6.57003Z" stroke="#FF5900"/>
<path d="M17.4624 13.3711H10.5577C10.4525 13.3711 10.3672 13.2858 10.3672 13.1806V13.0139C10.3672 11.0021 11.9981 9.37109 14.01 9.37109C16.0219 9.37109 17.6529 11.0021 17.6529 13.0139V13.1806C17.6529 13.2858 17.5676 13.3711 17.4624 13.3711Z" stroke="#FF5900"/>
</svg>
