<svg width="29" height="19" viewBox="0 0 29 19" fill="none" xmlns="http://www.w3.org/2000/svg">
<path d="M27.6925 5.00413C27.2454 3.80478 23.9179 2.625 18.0971 2.625C12.2763 2.625 8.94836 3.80478 8.50168 5.00413C8.46648 5.04538 8.44703 5.09265 8.44531 5.14112V15.4852C8.44552 15.5293 8.46105 15.5727 8.49048 15.6113C8.94643 16.9798 13.0257 18.0013 18.0971 18.0013C23.1569 18.0013 27.2296 16.984 27.7006 15.6205C27.7324 15.5791 27.749 15.5325 27.7488 15.4852V5.14112C27.7471 5.09265 27.7277 5.04538 27.6925 5.00413ZM26.9462 12.1262C26.9253 12.1908 26.8917 12.253 26.8462 12.3107C26.7982 12.3756 26.7399 12.4362 26.6725 12.4913C26.6283 12.5295 26.5815 12.566 26.5323 12.6009C26.5011 12.623 26.4667 12.6448 26.432 12.6668C26.3665 12.7085 26.2988 12.7483 26.2289 12.7859C26.1972 12.803 26.1632 12.8195 26.1297 12.8363C26.0424 12.8799 25.9513 12.9232 25.8513 12.9657C25.825 12.9772 25.7969 12.9881 25.7695 12.9993C25.6499 13.0484 25.5283 13.0947 25.4046 13.1382C25.388 13.1441 25.3706 13.1497 25.3537 13.1553C25.2089 13.2047 25.0575 13.2534 24.8958 13.3004L24.8819 13.3043C24.0051 13.5578 22.8836 13.7711 21.5767 13.9109L21.557 13.9129C21.297 13.9405 21.0362 13.9647 20.7749 13.9853C20.7312 13.9887 20.6853 13.9909 20.6413 13.9942C20.4077 14.0119 20.1714 14.0281 19.9282 14.0409C19.817 14.0468 19.7004 14.0496 19.5873 14.0546C19.4043 14.0625 19.2232 14.0711 19.0356 14.0759C18.41 14.0916 17.7838 14.0913 17.1582 14.075C16.9705 14.0703 16.7895 14.0613 16.6065 14.0538C16.4933 14.049 16.3767 14.046 16.2656 14.0401C16.0275 14.0272 15.7898 14.0116 15.5525 13.9934C15.5085 13.9901 15.4625 13.9878 15.4189 13.9845C15.1576 13.9637 14.8968 13.9396 14.6367 13.9121L14.617 13.9101C13.3102 13.7703 12.1887 13.557 11.3119 13.3034C11.1525 13.2573 10.9952 13.2076 10.8401 13.1544C10.8235 13.1485 10.8057 13.143 10.7891 13.1374C10.6654 13.094 10.5437 13.0477 10.4243 12.9984C10.3973 12.9872 10.3687 12.9763 10.3425 12.9649C10.2475 12.9242 10.1546 12.8811 10.0641 12.8354C10.0309 12.8187 9.99654 12.8022 9.96489 12.7851C9.89497 12.7474 9.82722 12.7077 9.76181 12.666C9.72745 12.6442 9.69271 12.6224 9.66143 12.6C9.61217 12.5653 9.56539 12.5287 9.52129 12.4904C9.45474 12.4348 9.39651 12.3743 9.34756 12.3098C9.30191 12.2522 9.26822 12.19 9.24757 12.1253C9.23328 12.0809 9.21745 12.0356 9.21745 11.9906C9.21745 11.959 9.22247 11.9274 9.22942 11.8961C9.23846 11.8545 9.23437 11.8119 9.21745 11.7717V9.69615C9.22826 9.70341 9.24178 9.7104 9.25297 9.71767C9.33714 9.77135 9.42284 9.82475 9.51936 9.87619C10.9737 10.6727 13.882 11.2916 18.0971 11.2916C22.2944 11.2916 25.1954 10.6777 26.6559 9.88597C26.7725 9.82447 26.8775 9.76101 26.9763 9.69643L26.9767 9.69615V11.7717C26.9598 11.8119 26.9557 11.8545 26.9647 11.8961C26.9721 11.9274 26.9767 11.959 26.9767 11.9906C26.9767 12.0356 26.9609 12.0809 26.9462 12.1262ZM26.9767 6.34131V8.41684C26.9598 8.45712 26.9557 8.49965 26.9647 8.54124C26.9721 8.57256 26.9767 8.60415 26.9767 8.63574C26.9767 8.68075 26.9609 8.72604 26.9462 8.77133C26.9253 8.83601 26.8917 8.89816 26.8462 8.95585C26.7982 9.02073 26.7399 9.08134 26.6725 9.13645C26.6283 9.17462 26.5815 9.2112 26.5323 9.24604C26.5011 9.26813 26.4667 9.28993 26.432 9.31202C26.3665 9.35371 26.2988 9.39345 26.2289 9.43111C26.1972 9.44817 26.1632 9.46466 26.1297 9.48144C26.0424 9.52505 25.9513 9.56838 25.8513 9.61088C25.825 9.62234 25.7969 9.63324 25.7695 9.64442C25.6499 9.69357 25.5283 9.73991 25.4046 9.78337C25.388 9.78924 25.3706 9.79483 25.3537 9.80043C25.2089 9.84991 25.0575 9.89855 24.8958 9.94552L24.8819 9.94944C24.0051 10.203 22.8836 10.4163 21.5767 10.5561L21.557 10.5581C21.297 10.5857 21.0362 10.6098 20.7749 10.6305C20.7312 10.6338 20.6853 10.6361 20.6413 10.6394C20.4077 10.657 20.1714 10.6732 19.9282 10.6861C19.817 10.692 19.7004 10.6948 19.5873 10.6998C19.4043 10.7076 19.2232 10.7163 19.0356 10.721C18.41 10.7367 17.7838 10.7365 17.1582 10.7202C16.9705 10.7155 16.7895 10.7065 16.6065 10.699C16.4933 10.6942 16.3767 10.6911 16.2656 10.6853C16.0275 10.6724 15.7898 10.6568 15.5525 10.6386C15.5085 10.6352 15.4625 10.633 15.4189 10.6296C15.1576 10.6089 14.8968 10.5847 14.6367 10.5572L14.617 10.5553C13.3102 10.4155 12.1887 10.2022 11.3119 9.9486C11.1525 9.90251 10.9952 9.85282 10.8401 9.79959C10.8235 9.79372 10.8057 9.78812 10.7891 9.78253C10.6654 9.73919 10.5437 9.69284 10.4243 9.64359C10.3973 9.6324 10.3687 9.6215 10.3425 9.61004C10.2475 9.5694 10.1546 9.52622 10.0641 9.4806C10.0309 9.46382 9.99654 9.44733 9.96489 9.43027C9.89497 9.39261 9.82722 9.35288 9.76181 9.31118C9.72745 9.28937 9.69271 9.26757 9.66143 9.2452C9.61217 9.21043 9.56539 9.17385 9.52129 9.13561C9.45474 9.08002 9.39651 9.01948 9.34756 8.95501C9.30191 8.89739 9.26822 8.83521 9.24757 8.77049C9.23328 8.72604 9.21745 8.68075 9.21745 8.63574C9.21745 8.60415 9.22247 8.57256 9.22942 8.54124C9.23846 8.49965 9.23437 8.45712 9.21745 8.41684V6.34131C9.26378 6.37179 9.31667 6.4017 9.36686 6.43189C9.39466 6.44867 9.42053 6.46544 9.44987 6.48222C9.56569 6.5482 9.69078 6.61334 9.82629 6.6768C9.85447 6.68994 9.88613 6.7028 9.91547 6.71594C10.0785 6.7893 10.2458 6.85749 10.417 6.9203C10.5579 6.9723 10.7058 7.0229 10.8613 7.07183C10.8868 7.07994 10.91 7.08832 10.9359 7.09615C11.1169 7.15179 11.3092 7.2049 11.5092 7.25634C11.5644 7.2706 11.6223 7.28402 11.679 7.298C11.8381 7.33686 12.0026 7.37404 12.1728 7.41011C12.2342 7.42297 12.2944 7.43639 12.3574 7.44869C12.5832 7.49398 12.8164 7.53703 13.0612 7.57673C13.0948 7.58232 13.1311 7.5868 13.165 7.59211C13.4656 7.6393 13.7679 7.68078 14.0715 7.71652C14.2904 7.74252 14.5159 7.76628 14.7471 7.78809C14.8066 7.79368 14.8633 7.80011 14.9236 7.80542C15.2108 7.83058 15.5081 7.85211 15.8135 7.87056C15.8888 7.87503 15.9671 7.87839 16.0436 7.8823C16.2879 7.89516 16.5377 7.90578 16.7933 7.91417C16.8864 7.91725 16.979 7.92032 17.074 7.92284C17.4068 7.93095 17.7458 7.93682 18.0971 7.93682C18.4484 7.93682 18.7874 7.93095 19.1202 7.92284C19.2147 7.92032 19.3074 7.91725 19.4008 7.91417C19.6564 7.90578 19.9062 7.89516 20.1506 7.8823C20.227 7.87811 20.305 7.87503 20.3807 7.87056C20.6779 7.85296 20.9745 7.83125 21.2706 7.80542C21.3308 7.80011 21.3876 7.79368 21.447 7.78809C21.7521 7.75942 22.0563 7.72586 22.3593 7.68744C22.5834 7.6588 22.8067 7.62701 23.0291 7.59211C23.0631 7.5868 23.0994 7.58204 23.133 7.57673C23.369 7.53817 23.6036 7.49548 23.8368 7.44869C23.8997 7.43611 23.9599 7.42297 24.0213 7.41011C24.187 7.37517 24.3516 7.3378 24.5151 7.298C24.5719 7.28402 24.6298 7.2706 24.685 7.25634C24.8783 7.20713 25.0695 7.15371 25.2583 7.09615C25.2842 7.08832 25.3073 7.07994 25.3328 7.07183C25.5318 7.00894 25.7273 6.9404 25.9189 6.86635C26.0451 6.81742 26.1652 6.76738 26.2787 6.71594C26.308 6.7028 26.3397 6.68994 26.3679 6.6768C26.5034 6.61334 26.6285 6.54848 26.7443 6.48222C26.7732 6.46544 26.7991 6.44867 26.8273 6.43189C26.8775 6.4017 26.9304 6.37179 26.9767 6.34131ZM18.0971 3.18414C23.3303 3.18414 26.9767 4.289 26.9767 5.28091C26.9767 6.27282 23.3303 7.37768 18.0971 7.37768C12.8639 7.37768 9.21745 6.27282 9.21745 5.28091C9.21745 4.289 12.8639 3.18414 18.0971 3.18414ZM26.9767 15.4022C26.9714 15.4145 26.9673 15.4271 26.9643 15.4399C26.7454 16.4069 23.1299 17.4422 18.0971 17.4422C13.0643 17.4422 9.44871 16.4069 9.22981 15.4399C9.22674 15.4275 9.22261 15.4153 9.21745 15.4033V13.051C9.22826 13.0582 9.24178 13.0652 9.25297 13.0725C9.33714 13.1262 9.42284 13.1796 9.51936 13.231C10.9737 14.0275 13.882 14.6465 18.0971 14.6465C22.2944 14.6465 25.1954 14.0325 26.6559 13.2408C26.7725 13.1793 26.8775 13.1158 26.9763 13.0513L26.9767 13.051V15.4022Z" fill="#FF5900" stroke="#FF5900"/>
<path d="M15.5257 8.43822C15.5257 12.5661 12.2543 15.8764 8.26285 15.8764C4.27138 15.8764 1 12.5661 1 8.43822C1 4.3103 4.27138 1 8.26285 1C12.2543 1 15.5257 4.3103 15.5257 8.43822Z" fill="white" stroke="#FF5900" stroke-width="2"/>
<path d="M10.9663 12.2845C10.9005 12.2845 10.8357 12.2689 10.7769 12.2389C10.7181 12.2088 10.6669 12.1652 10.6274 12.1115L6.3079 6.22988V11.852C6.3079 12.0908 6.11831 12.2845 5.88442 12.2845C5.65053 12.2845 5.46094 12.0908 5.46094 11.852V4.93247C5.46094 4.8417 5.4889 4.75324 5.54087 4.6796C5.59284 4.60597 5.66618 4.5509 5.7505 4.52219C5.83482 4.49349 5.92585 4.49261 6.01069 4.51967C6.09553 4.54674 6.16988 4.60037 6.22321 4.67299L10.5427 10.5546V4.93247C10.5427 4.69362 10.7324 4.5 10.9662 4.5C11.2001 4.5 11.3897 4.69362 11.3897 4.93247V11.852C11.3897 11.9088 11.3788 11.965 11.3575 12.0175C11.3362 12.07 11.305 12.1177 11.2657 12.1578C11.2264 12.198 11.1797 12.2298 11.1284 12.2516C11.077 12.2733 11.0219 12.2845 10.9663 12.2845Z" fill="#4D148C"/>
<path d="M12.0289 7.96065H4.82973C4.59584 7.96065 4.40625 7.76703 4.40625 7.52817C4.40625 7.28932 4.59584 7.0957 4.82973 7.0957H12.0289C12.2628 7.0957 12.4524 7.28932 12.4524 7.52817C12.4524 7.76703 12.2628 7.96065 12.0289 7.96065ZM12.0289 9.69053H4.82973C4.59584 9.69053 4.40625 9.49687 4.40625 9.25806C4.40625 9.01925 4.59584 8.82559 4.82973 8.82559H12.0289C12.2628 8.82559 12.4524 9.01925 12.4524 9.25806C12.4524 9.49687 12.2628 9.69053 12.0289 9.69053Z" fill="#4D148C"/>
</svg>
