<svg width="23" height="22" viewBox="0 0 23 22" fill="none" xmlns="http://www.w3.org/2000/svg">
<path d="M14.3906 9.30078H16.9151C19.8975 9.30078 22.3151 11.7184 22.3151 14.7008V17.2253H18.1642" stroke="#FF5900" stroke-linecap="square"/>
<path d="M18.1666 9.30078V16.8479C18.1666 19.1404 16.3081 20.9989 14.0156 20.9989V20.9989" stroke="#FF5900" stroke-linecap="square"/>
<path d="M1.00001 16.6L1 3.26415L2.09089 1.62493C2.28866 1.32776 2.72516 1.32758 2.92317 1.62459L3.53827 2.54726C3.75122 2.86669 4.22982 2.8369 4.40151 2.49352L4.76295 1.77063C4.93464 1.42725 5.41324 1.39745 5.62619 1.71689L6.17978 2.54726C6.39273 2.8667 6.87132 2.8369 7.04301 2.49352L7.37641 1.82673C7.5541 1.47135 8.05531 1.4552 8.25551 1.7984L8.67864 2.52377C8.87158 2.85452 9.34948 2.85452 9.54242 2.52377L9.99939 1.74038C10.1923 1.40963 10.6702 1.40963 10.8632 1.74038L11.3201 2.52377C11.5131 2.85452 11.991 2.85452 12.1839 2.52377L12.6409 1.74037C12.8338 1.40962 13.3117 1.40962 13.5047 1.74037L14.3936 3.26415V21H5.40001C2.96996 21 1.00001 19.03 1.00001 16.6Z" stroke="#FF5900" stroke-linecap="square"/>
<path d="M3.44531 15.9043H4.20003" stroke="#4D148C" stroke-linecap="square"/>
<path d="M6.08594 15.9043H11.7463" stroke="#4D148C" stroke-linecap="square"/>
<path d="M3.44531 18.5488H4.20003" stroke="#4D148C" stroke-linecap="square"/>
<path d="M6.08594 18.5488H11.7463" stroke="#4D148C" stroke-linecap="square"/>
<path d="M10.0309 12.6646C9.97261 12.6646 9.91509 12.651 9.86293 12.6249C9.81077 12.5989 9.76539 12.561 9.7304 12.5143L5.89958 7.40658V12.289C5.89958 12.4964 5.73144 12.6646 5.52401 12.6646C5.31658 12.6646 5.14844 12.4964 5.14844 12.289V6.27987C5.14844 6.20104 5.17324 6.12421 5.21933 6.06027C5.26542 5.99632 5.33046 5.9485 5.40524 5.92357C5.48002 5.89864 5.56075 5.89788 5.63599 5.92138C5.71123 5.94488 5.77717 5.99146 5.82446 6.05453L9.65529 11.1623V6.27987C9.65529 6.07244 9.82347 5.9043 10.0309 5.9043C10.2382 5.9043 10.4064 6.07244 10.4064 6.27987V12.289C10.4064 12.3383 10.3967 12.3872 10.3779 12.4327C10.359 12.4783 10.3313 12.5197 10.2965 12.5546C10.2616 12.5895 10.2202 12.6171 10.1746 12.636C10.1291 12.6549 10.0803 12.6646 10.0309 12.6646Z" fill="#4D148C"/>
<path d="M10.9712 8.90934H4.58651C4.37908 8.90934 4.21094 8.7412 4.21094 8.53377C4.21094 8.32635 4.37908 8.1582 4.58651 8.1582H10.9712C11.1786 8.1582 11.3468 8.32635 11.3468 8.53377C11.3468 8.7412 11.1786 8.90934 10.9712 8.90934ZM10.9712 10.4116H4.58651C4.37908 10.4116 4.21094 10.2434 4.21094 10.0361C4.21094 9.82867 4.37908 9.66049 4.58651 9.66049H10.9712C11.1786 9.66049 11.3468 9.82867 11.3468 10.0361C11.3468 10.2434 11.1786 10.4116 10.9712 10.4116Z" fill="#4D148C"/>
</svg>
