<svg width="31" height="18" viewBox="0 0 31 18" fill="none" xmlns="http://www.w3.org/2000/svg">
<path fill-rule="evenodd" clip-rule="evenodd" d="M10.6363 17.4355H23.8693C27.7353 17.4355 30.8693 14.3015 30.8693 10.4355V7C30.8693 3.13401 27.7353 0 23.8693 0H19.2051L18.4679 1.5H23.8693C26.9068 1.5 29.3693 3.96243 29.3693 7V10.4355C29.3693 13.4731 26.9068 15.9355 23.8693 15.9355H11.3735L10.6363 17.4355Z" fill="#4D148C"/>
<path d="M5.71094 3.27148H15.3597" stroke="#FF5900" stroke-width="1.5" stroke-linecap="round"/>
<path d="M1 8.71875H9.36223" stroke="#FF5900" stroke-width="1.5" stroke-linecap="round"/>
<path d="M3.14844 14.3867H9.79534" stroke="#FF5900" stroke-width="1.5" stroke-linecap="round"/>
<path d="M12.7891 14.1687L18.3639 3.27148H24.1531C25.234 5.71565 26.0756 6.3882 27.7982 6.75859V11.1175C25.5787 11.5027 24.902 12.293 24.1531 14.1687H12.7891Z" fill="#4D148C" stroke="#4D148C" stroke-linecap="round"/>
<path d="M22.729 11.0198C22.6872 11.0198 22.6461 11.0099 22.6087 10.9909C22.5714 10.972 22.5389 10.9444 22.5139 10.9105L19.772 7.1945V10.7465C19.772 10.8974 19.6516 11.0198 19.5032 11.0198C19.3547 11.0198 19.2344 10.8974 19.2344 10.7465V6.3748C19.2344 6.31745 19.2521 6.26156 19.2851 6.21503C19.3181 6.16851 19.3647 6.13372 19.4182 6.11558C19.4717 6.09745 19.5295 6.09689 19.5833 6.11399C19.6372 6.13109 19.6844 6.16498 19.7182 6.21086L22.4601 9.92683V6.3748C22.4601 6.22389 22.5805 6.10156 22.7289 6.10156C22.8773 6.10156 22.9977 6.22389 22.9977 6.3748V10.7465C22.9977 10.7824 22.9908 10.8179 22.9773 10.8511C22.9638 10.8842 22.944 10.9144 22.919 10.9397C22.8941 10.9651 22.8644 10.9852 22.8318 10.999C22.7992 11.0127 22.7643 11.0198 22.729 11.0198Z" fill="white"/>
<path d="M23.4089 8.2867H18.8391C18.6907 8.2867 18.5703 8.16437 18.5703 8.01347C18.5703 7.86256 18.6907 7.74023 18.8391 7.74023H23.4089C23.5573 7.74023 23.6777 7.86256 23.6777 8.01347C23.6777 8.16437 23.5573 8.2867 23.4089 8.2867ZM23.4089 9.37964H18.8391C18.6907 9.37964 18.5703 9.25728 18.5703 9.1064C18.5703 8.95552 18.6907 8.83317 18.8391 8.83317H23.4089C23.5573 8.83317 23.6777 8.95552 23.6777 9.1064C23.6777 9.25728 23.5573 9.37964 23.4089 9.37964Z" fill="white"/>
</svg>
