<svg width="21" height="31" viewBox="0 0 21 31" fill="none" xmlns="http://www.w3.org/2000/svg">
<path d="M8.47656 9.2506L9.56436 10.6492C9.81795 10.9752 10.2972 11.012 10.5975 10.7283L14.0509 7.4668" stroke="#FF5900" stroke-linecap="round"/>
<path d="M3.00371 5.4476C6.56133 5.00498 8.24348 3.87664 10.7104 1C12.5964 3.72713 14.2392 4.77054 18.1957 5.44335C18.2485 5.45234 18.2861 5.50322 18.2793 5.55642C17.3854 12.615 15.8155 14.8366 10.7104 17.5002C6.05026 15.503 3.54799 12.3482 2.91523 5.55751C2.91021 5.50365 2.95004 5.45428 3.00371 5.4476Z" stroke="#FF5900" stroke-linecap="square"/>
<rect x="0.5" y="17.5" width="20" height="13" rx="2.5" fill="#512D87" stroke="#172C51"/>
<path d="M4.21533 26V25.3848L6.18066 23.4639C6.39486 23.2542 6.55436 23.0605 6.65918 22.8828C6.764 22.7051 6.81641 22.5194 6.81641 22.3257C6.81641 22.1206 6.74805 21.9543 6.61133 21.8267C6.47461 21.6968 6.28662 21.6318 6.04736 21.6318C5.80355 21.6318 5.60303 21.7093 5.4458 21.8643C5.29085 22.0192 5.2054 22.2425 5.18945 22.5342V22.5684H4.21533V22.5342C4.21533 22.0534 4.38965 21.6649 4.73828 21.3687C5.08691 21.0701 5.52555 20.9209 6.0542 20.9209C6.5874 20.9209 7.00895 21.0531 7.31885 21.3174C7.63102 21.5817 7.78711 21.9053 7.78711 22.2881C7.78711 22.598 7.70394 22.8805 7.5376 23.1357C7.37354 23.391 7.15023 23.6541 6.86768 23.9253L5.49365 25.2583H7.91699V26H4.21533ZM8.65869 26V21.0234H12.1416V21.7173H9.61914V23.2554H11.8169V23.9526H9.61914V26H8.65869ZM11.769 26L13.5601 20.9995H14.6025L16.4004 26H15.3784L14.1685 22.4146C14.1388 22.3302 14.1126 22.2493 14.0898 22.1719C14.0671 22.0944 14.0454 22.0146 14.0249 21.9326H13.9941C13.9759 22.0146 13.9543 22.0944 13.9292 22.1719C13.9064 22.2493 13.8802 22.3302 13.8506 22.4146L12.6406 26H11.769ZM12.6099 24.8242L12.8662 24.127L15.228 24.1304L15.4844 24.8276L12.6099 24.8242Z" fill="white"/>
</svg>
