<svg width="21" height="24" viewBox="0 0 21 24" fill="none" xmlns="http://www.w3.org/2000/svg">
<path d="M6.42429 10.8984C6.58135 10.7595 6.59677 10.5188 6.45876 10.3607L6.43791 10.3367C6.40511 10.2992 6.36526 10.2686 6.32065 10.2467C6.27605 10.2248 6.22757 10.212 6.17802 10.209H6.15281C6.06091 10.2088 5.97214 10.2425 5.90324 10.3037L5.39542 10.752L4.93295 11.1602C4.77635 11.2994 4.76103 11.5396 4.89866 11.6977L4.91987 11.7222C5.05816 11.88 5.29743 11.8955 5.45471 11.7568L5.8102 11.4431L6.42429 10.8984Z" fill="#FF5900"/>
<path d="M5.20221 11.9425C5.19168 11.9425 5.18136 11.9425 5.17083 11.9415C5.1093 11.9377 5.04913 11.9217 4.99381 11.8943C4.93849 11.8669 4.88911 11.8288 4.84854 11.7821L4.82712 11.7575C4.65689 11.5616 4.67593 11.2641 4.86975 11.0918L5.84042 10.2345C5.93411 10.1521 6.05642 10.1102 6.18066 10.1181C6.24219 10.122 6.30236 10.138 6.35768 10.1654C6.41301 10.1927 6.46238 10.2309 6.50295 10.2775L6.5327 10.3124C6.69498 10.5088 6.67232 10.7995 6.48157 10.9681L5.51125 11.8254C5.42595 11.9011 5.316 11.9428 5.20221 11.9425ZM6.14966 10.3009C6.07972 10.3013 6.01229 10.3272 5.95995 10.3739L4.98963 11.2311C4.87061 11.3371 4.85904 11.5198 4.96371 11.64L4.98512 11.6647C5.09035 11.7845 5.27221 11.7962 5.39174 11.6907L6.36188 10.8335C6.48124 10.7278 6.49291 10.5449 6.38801 10.4247L6.3668 10.4001C6.34194 10.3715 6.31168 10.3482 6.27777 10.3314C6.24387 10.3147 6.207 10.3048 6.16929 10.3025L6.14966 10.3009ZM7.78341 11.8531C7.6915 11.853 7.6027 11.8865 7.53366 11.9476L7.0329 12.3897C6.87554 12.5286 6.85992 12.7694 6.99798 12.9277C7.13607 13.0859 7.37556 13.1016 7.53292 12.9628L8.03369 12.5207C8.19105 12.382 8.2068 12.1412 8.06889 11.983C8.03327 11.9421 7.98937 11.9094 7.94013 11.887C7.89089 11.8646 7.83745 11.853 7.78341 11.8531Z" fill="#FF5900"/>
<path d="M7.27539 13.1478C7.01606 13.1483 6.80547 12.9372 6.80501 12.6763C6.8049 12.6089 6.81912 12.5423 6.84673 12.4809C6.87434 12.4195 6.91469 12.3647 6.96508 12.3203L7.46601 11.8781C7.66352 11.7136 7.95428 11.7326 8.1289 11.9215C8.30006 12.1177 8.28073 12.4163 8.08575 12.5885L7.58498 13.0307C7.49943 13.1064 7.38933 13.1481 7.27539 13.1478ZM7.77559 11.9438C7.7056 11.9432 7.63781 11.9684 7.58496 12.0145L7.08402 12.4568C6.96426 12.5626 6.95246 12.746 7.05764 12.8664C7.16281 12.9869 7.34516 12.9988 7.46489 12.893L7.96583 12.4513C8.08554 12.3458 8.09752 12.1626 7.99262 12.0422C7.96552 12.0111 7.93211 11.9862 7.89465 11.9691C7.85718 11.9521 7.81653 11.9433 7.77541 11.9434L7.77559 11.9438ZM3.30726 4.86133L2.28906 9.3297L3.10304 9.78982L5.20943 6.34314L3.30726 4.86133Z" fill="#FF5900"/>
<path d="M3.1444 9.91171L2.19531 9.37533L3.2601 4.70117L5.33893 6.32035L3.1444 9.91171ZM2.40243 9.28302L3.08128 9.66615L5.09951 6.36394L3.37364 5.02043L2.40243 9.28302ZM5.24535 10.3797C5.40266 10.2407 5.41824 9.99979 5.28017 9.8415L5.27365 9.83401C5.24092 9.7963 5.20109 9.76551 5.15645 9.7434C5.1118 9.72129 5.06325 9.7083 5.01358 9.70521H4.98837C4.89648 9.70506 4.80771 9.73874 4.73881 9.79991L4.13067 10.3356C3.97336 10.4745 3.95779 10.7155 4.09585 10.8738C4.23119 11.0357 4.47145 11.0567 4.63248 10.9205L4.63743 10.9162L4.68349 10.8756L5.14634 10.4669L5.24535 10.3797Z" fill="#FF5900"/>
<path d="M4.38593 11.1027C4.37434 11.1027 4.36253 11.1027 4.35058 11.1014C4.22389 11.0916 4.10618 11.0319 4.02303 10.9352C3.85186 10.7392 3.8711 10.4407 4.06601 10.2686L4.67341 9.73251C4.86834 9.56059 5.16489 9.57995 5.33612 9.77573C5.37878 9.82285 5.41159 9.87812 5.43259 9.93825C5.45359 9.99838 5.46235 10.0621 5.45835 10.1257C5.45455 10.1877 5.43856 10.2482 5.41133 10.3039C5.38409 10.3596 5.34613 10.4092 5.29966 10.4501L4.69245 10.9861C4.60789 11.0614 4.49884 11.1028 4.38593 11.1027ZM4.9828 9.79745C4.91284 9.79773 4.84539 9.82367 4.79309 9.87041L4.1857 10.4065C4.06599 10.5121 4.05413 10.6954 4.15919 10.8157L4.15921 10.8158C4.21101 10.8764 4.28453 10.914 4.36378 10.9205C4.4015 10.9234 4.43942 10.9187 4.47528 10.9066C4.51115 10.8945 4.54422 10.8753 4.57253 10.8501L5.17975 10.314C5.29936 10.2083 5.31121 10.0251 5.20623 9.90471C5.18103 9.87413 5.14993 9.849 5.1148 9.83085C5.07967 9.8127 5.04124 9.8019 5.00184 9.79911L4.9828 9.79745ZM7.35835 11.448C7.36174 11.398 7.35523 11.3478 7.3392 11.3004C7.32317 11.2529 7.29793 11.2092 7.26495 11.1716L7.25952 11.1654C7.22677 11.128 7.18698 11.0974 7.14243 11.0755C7.09789 11.0536 7.04948 11.0408 6.99999 11.0377H6.97478C6.88288 11.0376 6.79411 11.0713 6.72521 11.1324L6.66572 11.1849L6.05124 11.7274L5.88801 11.8708C5.7304 12.0142 5.71826 12.2589 5.86086 12.4174C5.92741 12.4914 6.01978 12.5367 6.11871 12.5438C6.16842 12.5473 6.21832 12.5408 6.2655 12.5246C6.31268 12.5085 6.35619 12.4831 6.39349 12.4499L7.23013 11.7113C7.26783 11.6782 7.2986 11.6379 7.32061 11.5926C7.34263 11.5474 7.35546 11.4982 7.35835 11.448Z" fill="#FF5900"/>
<path d="M6.15514 12.6317C6.14479 12.6317 6.13465 12.6317 6.12432 12.6307C5.86308 12.6145 5.66442 12.3883 5.68061 12.1256C5.68836 11.9996 5.74554 11.8818 5.83958 11.7981L6.6755 11.0587C6.76933 10.9765 6.89154 10.9347 7.01574 10.9423C7.0772 10.9461 7.13729 10.9621 7.19256 10.9894C7.24782 11.0167 7.29714 11.0547 7.33768 11.1013C7.38026 11.1484 7.413 11.2036 7.43394 11.2636C7.45488 11.3237 7.46359 11.3873 7.45956 11.4508C7.45566 11.5126 7.43967 11.573 7.4125 11.6285C7.38533 11.684 7.34751 11.7336 7.30123 11.7744L6.46459 12.5129C6.37936 12.5892 6.26926 12.6315 6.15514 12.6317ZM6.73551 11.2489L5.95908 11.9344C5.83932 12.04 5.82716 12.2231 5.93188 12.3438C5.95711 12.374 5.9881 12.3988 6.02303 12.4167C6.05796 12.4346 6.0961 12.4452 6.13521 12.448C6.17314 12.4507 6.21123 12.4457 6.24723 12.4334C6.28324 12.4211 6.31644 12.4017 6.34488 12.3763L7.18152 11.6378C7.3012 11.5323 7.31318 11.3492 7.20826 11.2288L7.208 11.2285C7.18286 11.1981 7.15187 11.1733 7.11689 11.1553C7.08191 11.1374 7.04368 11.1268 7.0045 11.1241H6.98528C6.91527 11.1241 6.84771 11.1501 6.79557 11.1971L6.73551 11.2489Z" fill="#FF5900"/>
<path d="M12.3764 10.2273L9.42479 7.80793C8.29451 8.41164 7.49414 8.10092 7.11146 7.85519C6.91198 7.72425 6.8558 7.45541 6.98596 7.25476C7.0264 7.19241 7.08211 7.14159 7.14773 7.10718L8.13146 6.58157C8.10736 6.57787 8.08317 6.57477 8.05891 6.57227C7.17117 6.71335 6.2746 6.79103 5.37595 6.80469L3.65625 9.6183L4.03965 9.91222L4.49034 9.51414C4.80325 9.23781 5.27962 9.26896 5.55432 9.58373L5.55442 9.58384L5.56095 9.59132C5.65114 9.69536 5.71112 9.82236 5.73434 9.9584C5.87101 9.86461 6.03502 9.81964 6.2001 9.8307C6.29896 9.83689 6.39561 9.86276 6.48446 9.90679C6.57331 9.95082 6.65259 10.0121 6.71771 10.0872L6.73892 10.1116C6.80439 10.1863 6.85449 10.2733 6.88634 10.3675C6.91818 10.4618 6.93114 10.5615 6.92445 10.6608V10.6619C6.95897 10.6584 6.9937 10.6572 7.02838 10.6584C7.12723 10.6646 7.22388 10.6905 7.31273 10.7345C7.40157 10.7786 7.48086 10.8399 7.54599 10.9149L7.4105 11.0456L7.55142 10.9211C7.61698 10.9958 7.66717 11.0828 7.69908 11.1772C7.73099 11.2715 7.744 11.3712 7.73733 11.4707C7.73733 11.4732 7.73624 11.4756 7.73606 11.4781C8.149 11.4486 8.50757 11.7614 8.53696 12.1768C8.53941 12.2114 8.53948 12.2462 8.53716 12.2809C8.52786 12.4114 8.48485 12.5371 8.41238 12.6458L9.22108 13.1152C9.39838 13.2163 9.62352 13.1563 9.72781 12.9802C9.82672 12.8121 9.77849 12.5955 9.61771 12.4859L8.33002 11.5883C8.32892 11.5883 8.32839 11.5863 8.32747 11.5856L8.24077 11.5252C8.22077 11.5107 8.20379 11.4925 8.19081 11.4714C8.17783 11.4504 8.1691 11.4269 8.16512 11.4025C8.16114 11.378 8.16198 11.353 8.16761 11.3289C8.17323 11.3048 8.18352 11.282 8.19789 11.2619C8.22625 11.2222 8.26883 11.1951 8.31665 11.1864C8.36447 11.1776 8.4138 11.1879 8.45424 11.215L10.2705 12.4807C10.438 12.5975 10.6679 12.5555 10.784 12.387L10.7843 12.3867C10.8982 12.2191 10.8579 11.9906 10.6936 11.8728L8.88627 10.5832C8.88518 10.5832 8.88482 10.5812 8.88372 10.5805C8.84404 10.5511 8.81742 10.5072 8.80962 10.4583C8.80182 10.4094 8.81347 10.3593 8.84203 10.3189C8.8706 10.2786 8.91381 10.2511 8.96233 10.2425C9.01085 10.2339 9.06079 10.2448 9.10137 10.2729L11.1276 11.7189C11.3048 11.8448 11.5499 11.8023 11.6751 11.624C11.7962 11.4515 11.761 11.2136 11.5951 11.084L9.41492 9.50373C9.32876 9.4459 9.30551 9.32879 9.36299 9.24212C9.37721 9.22069 9.39563 9.20241 9.41713 9.18842C9.43864 9.17442 9.46276 9.16501 9.48802 9.16075C9.51328 9.1565 9.53913 9.15749 9.56399 9.16368C9.58885 9.16986 9.61219 9.1811 9.63257 9.1967L9.78165 9.30361H9.78364L11.8042 10.7681C11.808 10.7708 11.8108 10.7743 11.8144 10.777L11.8478 10.8011C11.8541 10.8055 11.8602 10.8103 11.8659 10.8155L11.9022 10.8405C12.071 10.9623 12.3051 10.9297 12.4348 10.7664C12.4731 10.7179 12.4991 10.6607 12.5108 10.5999C12.5225 10.5391 12.5196 10.4763 12.5021 10.4169C12.4806 10.3422 12.4367 10.276 12.3764 10.2273Z" fill="#FF5900"/>
<path d="M9.40015 13.2556C9.31999 13.2557 9.24124 13.2345 9.17182 13.1941L8.27894 12.6762L8.33334 12.5959C8.5349 12.29 8.45178 11.8777 8.14771 11.675C8.05127 11.6107 7.93972 11.573 7.82424 11.5657C7.80174 11.5646 7.77918 11.5652 7.75677 11.5675L7.63507 11.5751L7.64213 11.4713C7.65355 11.3239 7.6159 11.1769 7.53512 11.0534L7.4671 11.1136L7.34449 10.9793L7.41342 10.9129C7.30375 10.8156 7.16504 10.7579 7.01914 10.7487C6.99269 10.7478 6.96622 10.7487 6.93988 10.7513L6.84248 10.7586L6.83032 10.6506V10.6467C6.83982 10.4728 6.78123 10.3021 6.6671 10.1711L6.64568 10.1465C6.42735 9.89434 6.05619 9.84611 5.78128 10.0341L5.66575 10.1122L5.64146 9.97422C5.57985 9.60955 5.23601 9.3642 4.87349 9.4262C4.75225 9.44694 4.63909 9.50105 4.54654 9.58252L4.03999 10.0299L3.53125 9.64035L5.3197 6.71396L5.36849 6.7125C6.26227 6.69877 7.15396 6.62165 8.03695 6.48171L8.04964 6.47915L8.06252 6.48025C8.08645 6.48243 8.11294 6.4861 8.14032 6.4901L8.41237 6.53115L7.1856 7.18649C7.01848 7.27334 6.95301 7.48005 7.03935 7.64816C7.06642 7.70086 7.10663 7.74558 7.15603 7.77797C7.51605 8.00912 8.28432 8.31034 9.37759 7.72671L9.43074 7.69824L12.4287 10.1556C12.5031 10.2164 12.5572 10.2987 12.5834 10.3915C12.605 10.4648 12.6088 10.5422 12.5944 10.6172C12.58 10.6923 12.5479 10.7628 12.5007 10.8227C12.3405 11.0241 12.0517 11.0642 11.8433 10.914L11.7415 10.8375L9.5753 9.26852C9.55451 9.25351 9.52865 9.24742 9.5034 9.25159C9.47815 9.25576 9.45558 9.26985 9.44065 9.29075L9.44037 9.29116C9.42543 9.31212 9.41937 9.33819 9.42353 9.36364C9.42769 9.38908 9.44173 9.41183 9.46255 9.42687L9.46286 9.4271L11.6434 11.0087C11.8548 11.1728 11.8939 11.4783 11.7308 11.6909C11.5728 11.8968 11.2819 11.9412 11.0703 11.7919L9.04354 10.3466C9.03313 10.3392 9.02136 10.3339 9.00891 10.331C8.99646 10.3282 8.98358 10.3278 8.97099 10.33C8.9521 10.3332 8.93459 10.342 8.92066 10.3553C8.90673 10.3685 8.89702 10.3856 8.89275 10.4044C8.88848 10.4232 8.88984 10.4428 8.89667 10.4608C8.90349 10.4788 8.91548 10.4944 8.9311 10.5055L10.7415 11.7982C10.946 11.9452 10.996 12.2298 10.8538 12.4383C10.7094 12.6485 10.423 12.701 10.2141 12.5558L10.2139 12.5557L8.39807 11.2899C8.38763 11.2821 8.37575 11.2765 8.36313 11.2735C8.35051 11.2704 8.33741 11.2699 8.32461 11.2721C8.3118 11.2742 8.29956 11.2789 8.2886 11.2859C8.27764 11.2929 8.26819 11.302 8.26081 11.3128C8.25343 11.3235 8.24827 11.3357 8.24564 11.3484C8.24301 11.3612 8.24296 11.3744 8.24549 11.3872C8.24803 11.4 8.2531 11.4122 8.2604 11.423C8.2677 11.4338 8.27708 11.443 8.28799 11.4501L9.66529 12.4108C9.87473 12.555 9.92826 12.8428 9.78487 13.0534C9.7231 13.1442 9.63119 13.2098 9.52564 13.2385C9.48476 13.2498 9.44255 13.2556 9.40015 13.2556ZM8.53287 12.6125L9.26249 13.0361C9.39852 13.1102 9.56844 13.0593 9.64204 12.9225C9.67417 12.8627 9.68377 12.7934 9.66908 12.7271C9.65439 12.6608 9.6164 12.6021 9.5621 12.5618L8.53284 11.8433C8.60254 11.9799 8.63389 12.133 8.62351 12.2861C8.61617 12.4 8.5853 12.5112 8.53287 12.6125ZM8.34389 11.0904C8.40028 11.0903 8.45534 11.1076 8.50169 11.1398L10.3175 12.4055C10.444 12.4934 10.6174 12.4616 10.7049 12.3345C10.791 12.2081 10.7606 12.0358 10.6367 11.9468L8.81651 10.6467C8.75983 10.6015 8.72287 10.5359 8.71347 10.4638C8.70407 10.3916 8.72296 10.3186 8.76615 10.2603C8.80933 10.2019 8.87341 10.1628 8.9448 10.1511C9.0162 10.1395 9.08929 10.1563 9.14859 10.1979L11.1754 11.6439C11.3122 11.74 11.5006 11.7063 11.5961 11.5687C11.6403 11.505 11.6585 11.4268 11.6472 11.35C11.6358 11.2732 11.5957 11.2037 11.535 11.1557L9.35719 9.57706C9.23223 9.48718 9.20338 9.31242 9.29272 9.18672C9.38207 9.06102 9.5558 9.03199 9.68076 9.12187L9.83203 9.2297L11.896 10.7274C11.9052 10.7341 11.9141 10.7414 11.9225 10.7493L11.948 10.7661C12.0772 10.8602 12.2571 10.8362 12.3574 10.7114C12.3867 10.6742 12.4067 10.6304 12.4158 10.5838C12.4248 10.5372 12.4226 10.4891 12.4092 10.4435C12.3935 10.3862 12.3605 10.3353 12.3147 10.2976L9.40907 7.91598C8.26301 8.50526 7.44597 8.1809 7.05801 7.93149C6.81617 7.77366 6.74732 7.44851 6.90422 7.20523C6.95335 7.12905 7.02128 7.06699 7.10137 7.02511L7.65745 6.72809C7.09194 6.80528 6.31987 6.86274 5.42338 6.89228L3.77291 9.59419L4.03244 9.79287L4.42764 9.44405C4.77808 9.13451 5.31165 9.16936 5.61936 9.52188L5.61959 9.52213C5.69541 9.60839 5.75326 9.70908 5.78972 9.81823C5.91812 9.75545 6.06062 9.72759 6.20304 9.73741C6.31388 9.74432 6.42226 9.7733 6.52188 9.82265C6.62151 9.87201 6.7104 9.94077 6.78342 10.0249L6.80483 10.0496C6.93025 10.1926 7.00372 10.3741 7.01322 10.5646H7.03135C7.22666 10.5774 7.41137 10.6586 7.5535 10.7939L7.5564 10.7914L7.60555 10.8479L7.6108 10.8538L7.66793 10.9193L7.66538 10.9218C7.76271 11.0561 7.81831 11.2164 7.82516 11.3825H7.83623C7.91678 11.3878 7.99619 11.4046 8.072 11.4325C8.03713 11.2823 8.12994 11.1321 8.27927 11.097C8.30051 11.092 8.32225 11.0895 8.34405 11.0897L8.34389 11.0904ZM13.9713 4.79102L12.0695 6.27282L13.8288 9.15123C13.8403 9.15726 13.8512 9.16454 13.8612 9.17295C13.8914 9.20422 13.9096 9.24517 13.9128 9.28863L14.1763 9.71974L14.9895 9.25944L13.9713 4.79102Z" fill="#FF5900"/>
<path d="M14.1555 9.84356L13.8354 9.3196L13.8335 9.29844C13.8323 9.2761 13.8233 9.2549 13.8081 9.23859L13.7732 9.21779L13.7625 9.19956L11.9606 6.25217L14.0398 4.63281L15.1048 9.30698L14.1555 9.84356ZM14.0105 9.25864L14.2183 9.59854L14.8972 9.21541L13.9263 4.95191L12.2006 6.29615L13.9054 9.08553C13.9167 9.09229 13.9271 9.10037 13.9365 9.1096C13.9762 9.1502 14.0023 9.20235 14.011 9.25867L14.0105 9.25864ZM11.5927 6.78527C11.2238 6.93805 10.8127 6.95307 10.4337 6.8276L9.43533 6.50158C9.36701 6.47979 9.29508 6.4718 9.22368 6.47806C9.15228 6.48432 9.08282 6.50471 9.01928 6.53807L8.68085 6.71888C8.67723 6.7207 8.67414 6.7229 8.67032 6.72454L7.3293 7.44119C7.31993 7.44571 7.31197 7.45272 7.30628 7.46147C7.30059 7.47022 7.29739 7.48036 7.29703 7.49081C7.2963 7.50026 7.29817 7.50973 7.30242 7.51819C7.30667 7.52665 7.31315 7.53377 7.32114 7.53879C7.7156 7.79201 8.39121 7.97664 9.35842 7.41837C9.39134 7.39941 9.4292 7.39092 9.46701 7.39401C9.50482 7.3971 9.54081 7.41164 9.57026 7.4357L12.6187 9.93516C12.6611 9.97026 12.6994 10.0101 12.7329 10.0539L13.4867 9.29516L11.8803 6.6669L11.5927 6.78527Z" fill="#FF5900"/>
<path d="M12.7135 10.1886L12.6504 10.1081C12.6212 10.0697 12.5878 10.0349 12.5506 10.0042L9.5015 7.50608C9.48631 7.49387 9.46783 7.4865 9.44845 7.48491C9.42906 7.48331 9.40965 7.48757 9.39268 7.49713C8.38591 8.07862 7.67805 7.88234 7.26144 7.61531C7.23991 7.60167 7.22244 7.58244 7.21085 7.55965C7.19926 7.53687 7.19399 7.51137 7.19559 7.48582C7.19667 7.45952 7.20472 7.43397 7.21891 7.41185C7.2331 7.38972 7.25291 7.37181 7.2763 7.35997L8.96572 6.45767C9.03996 6.41855 9.12117 6.39461 9.20465 6.38722C9.28814 6.37983 9.37226 6.38915 9.45215 6.41463L10.4502 6.74003C10.8087 6.85881 11.1975 6.8447 11.5466 6.70027L11.9062 6.55217L13.5904 9.30635L12.7135 10.1886ZM9.43964 7.3016C9.50371 7.30147 9.56588 7.32349 9.61573 7.36397L12.6643 9.8628C12.6858 9.88021 12.7062 9.89891 12.7255 9.91879L13.3602 9.28041L11.8318 6.77956L11.6156 6.86857C11.2267 7.02959 10.7933 7.04537 10.3938 6.91308L9.39625 6.58731C9.33937 6.56935 9.27953 6.56284 9.22015 6.56817C9.16077 6.57349 9.10302 6.59054 9.0502 6.61833L7.41192 7.49385C7.79151 7.71563 8.41596 7.85079 9.30229 7.33882C9.34408 7.31464 9.39142 7.30181 9.43964 7.3016Z" fill="#FF5900"/>
<path fill-rule="evenodd" clip-rule="evenodd" d="M1 1.04297C0.447715 1.04297 0 1.49068 0 2.04297V22.4993C0 23.0516 0.447716 23.4993 1 23.4993H15.0916C14.5311 23.275 14.0306 22.9312 13.6214 22.4993H1V2.04297H5.64187V1.04297H1ZM16.2826 15.4632C16.3952 15.4539 16.5091 15.4492 16.624 15.4492C16.8481 15.4492 17.0681 15.4671 17.2826 15.5015V2.04297C17.2826 1.49068 16.8349 1.04297 16.2826 1.04297H11.8856V2.04297H16.2826V15.4632Z" fill="#FF5900"/>
<rect x="6.33594" width="4.77586" height="2.78067" rx="0.5" fill="#FF5900"/>
<path d="M2.03906 15.4531H11.7165" stroke="#FF5900"/>
<path d="M2.03906 17.9785H11.2137" stroke="#FF5900"/>
<path d="M2.03906 20.5117H10.9624" stroke="#FF5900"/>
<path d="M20.2715 19.6193C20.2715 21.6502 18.6357 23.2914 16.624 23.2914C14.6124 23.2914 12.9766 21.6502 12.9766 19.6193C12.9766 17.5885 14.6124 15.9473 16.624 15.9473C18.6357 15.9473 20.2715 17.5885 20.2715 19.6193Z" fill="white" stroke="#FF5900"/>
<ellipse cx="16.6728" cy="18.2809" rx="1.49308" ry="1.50156" fill="#EBCAB4"/>
<path d="M15.5629 19.9782C16.3467 20.063 16.8765 20.0697 17.6074 19.9917C17.8383 19.9671 18.0738 20.0139 18.2646 20.1464C18.4151 20.2508 18.5396 20.3487 18.6468 20.4497C18.9959 20.7784 18.8542 21.3352 18.4449 21.585C17.1064 22.402 16.0276 22.3917 14.7456 21.5539C14.3777 21.3135 14.2223 20.8094 14.5043 20.4724C14.65 20.2982 14.8286 20.1694 15.0762 20.0507C15.2268 19.9785 15.3968 19.9602 15.5629 19.9782Z" fill="#EBCAB4" stroke="#EBCAB4"/>
</svg>
