<svg width="24" height="24" viewBox="0 0 24 24" fill="none" xmlns="http://www.w3.org/2000/svg">
<rect x="0.5" y="0.5" width="23" height="15.3722" rx="1.5" stroke="#FF5900"/>
<path d="M9.09315 4.279C9.09315 5.54778 8.07354 6.56972 6.82392 6.56972C5.57429 6.56972 4.55469 5.54778 4.55469 4.279C4.55469 3.01022 5.57429 1.98828 6.82392 1.98828C8.07354 1.98828 9.09315 3.01022 9.09315 4.279Z" stroke="#FF5900"/>
<path d="M12.7344 2.79102H21.2267" stroke="#4D148C" stroke-linecap="square"/>
<path d="M12.7344 8.00195H21.2267" stroke="#4D148C" stroke-linecap="square"/>
<path d="M12.7344 5.20898H20.119" stroke="#4D148C" stroke-linecap="square"/>
<path d="M2.58594 8.82065V12.6228C2.58594 12.8438 2.76502 13.0228 2.98594 13.0228H10.4936C10.7145 13.0228 10.8936 12.8438 10.8936 12.6228V8.82065C10.8936 8.66105 10.7988 8.51672 10.6522 8.45343L8.67175 7.59807C8.4707 7.51124 8.2372 7.60222 8.14791 7.80219L7.0344 10.2959C6.89008 10.6191 6.42797 10.6093 6.29738 10.2803L5.32259 7.82446C5.23937 7.61478 4.99931 7.51537 4.79221 7.60481L2.82734 8.45343C2.68082 8.51672 2.58594 8.66105 2.58594 8.82065Z" stroke="#FF5900" stroke-linecap="square"/>
<path d="M18.1488 17.2087C18.1488 20.6867 15.3521 23.4995 11.9103 23.4995C8.46857 23.4995 5.67188 20.6867 5.67188 17.2087C5.67188 13.7308 8.46857 10.918 11.9103 10.918C15.3521 10.918 18.1488 13.7308 18.1488 17.2087Z" fill="white" stroke="#FF5900"/>
<path d="M15.4471 18.9766H8.39831C8.23901 18.9766 8.09489 19.0711 8.03142 19.2172L7.81325 19.7196C7.69852 19.9837 7.89214 20.2789 8.18014 20.2789H15.738C16.0461 20.2789 16.2386 19.9451 16.0841 19.6784L15.7932 19.1761C15.7217 19.0526 15.5898 18.9766 15.4471 18.9766Z" fill="#4D148C" stroke="#4D148C" stroke-width="0.5" stroke-linecap="square"/>
<path d="M8.67969 15.998V18.7888" stroke="#4D148C" stroke-linecap="square"/>
<path d="M10.5156 15.998V18.7888" stroke="#4D148C" stroke-linecap="square"/>
<path d="M12 15.998V18.9748" stroke="#4D148C" stroke-linecap="square"/>
<path d="M13.4766 15.998V18.9748" stroke="#4D148C" stroke-linecap="square"/>
<path d="M15.1328 15.998V18.9748" stroke="#4D148C" stroke-linecap="square"/>
<path d="M11.7237 12.9322L7.78735 14.9569C7.65408 15.0254 7.57031 15.1627 7.57031 15.3126V15.5988C7.57031 15.8197 7.7494 15.9988 7.97031 15.9988H15.6626C15.8835 15.9988 16.0626 15.8197 16.0626 15.5988V15.3076C16.0626 15.1604 15.9817 15.025 15.8521 14.9553L12.0961 12.9356C11.9801 12.8732 11.8409 12.8719 11.7237 12.9322Z" fill="#4D148C" stroke="#4D148C" stroke-width="0.5" stroke-linecap="square"/>
</svg>
