<svg width="24" height="24" viewBox="0 0 24 24" fill="none" xmlns="http://www.w3.org/2000/svg">
<mask id="path-1-inside-1_1287_11749" fill="white">
<path d="M9.20434 14.4043C6.99447 14.4043 5.20312 16.1956 5.20312 18.4055C5.20312 20.6154 6.99447 22.4067 9.20434 22.4067C11.4142 22.4067 13.2056 20.6154 13.2056 18.4055C13.2032 16.1966 11.4132 14.4066 9.20434 14.4043ZM9.20434 21.6065C7.4364 21.6065 6.00337 20.1734 6.00337 18.4055C6.00337 16.6376 7.4364 15.2045 9.20434 15.2045C10.9723 15.2045 12.4053 16.6376 12.4053 18.4055C12.4033 20.1724 10.9713 21.6045 9.20434 21.6065Z"/>
</mask>
<path d="M9.20434 14.4043C6.99447 14.4043 5.20312 16.1956 5.20312 18.4055C5.20312 20.6154 6.99447 22.4067 9.20434 22.4067C11.4142 22.4067 13.2056 20.6154 13.2056 18.4055C13.2032 16.1966 11.4132 14.4066 9.20434 14.4043ZM9.20434 21.6065C7.4364 21.6065 6.00337 20.1734 6.00337 18.4055C6.00337 16.6376 7.4364 15.2045 9.20434 15.2045C10.9723 15.2045 12.4053 16.6376 12.4053 18.4055C12.4033 20.1724 10.9713 21.6045 9.20434 21.6065Z" fill="#FF5900"/>
<path d="M9.20434 14.4043L9.20541 13.4043H9.20434V14.4043ZM13.2056 18.4055H14.2056L14.2056 18.4044L13.2056 18.4055ZM9.20434 21.6065V22.6065L9.20547 22.6065L9.20434 21.6065ZM12.4053 18.4055L13.4053 18.4066V18.4055H12.4053ZM9.20434 13.4043C6.44218 13.4043 4.20312 15.6434 4.20312 18.4055H6.20312C6.20312 16.7479 7.54675 15.4043 9.20434 15.4043V13.4043ZM4.20312 18.4055C4.20312 21.1677 6.44218 23.4067 9.20434 23.4067V21.4067C7.54675 21.4067 6.20312 20.0631 6.20312 18.4055H4.20312ZM9.20434 23.4067C11.9665 23.4067 14.2056 21.1677 14.2056 18.4055H12.2056C12.2056 20.0631 10.8619 21.4067 9.20434 21.4067V23.4067ZM14.2056 18.4044C14.2026 15.6441 11.9657 13.4072 9.20541 13.4043L9.20328 15.4043C10.8607 15.4061 12.2038 16.7492 12.2056 18.4066L14.2056 18.4044ZM9.20434 20.6065C7.98869 20.6065 7.00337 19.6212 7.00337 18.4055H5.00337C5.00337 20.7257 6.88412 22.6065 9.20434 22.6065V20.6065ZM7.00337 18.4055C7.00337 17.1899 7.98869 16.2045 9.20434 16.2045V14.2045C6.88412 14.2045 5.00337 16.0853 5.00337 18.4055H7.00337ZM9.20434 16.2045C10.42 16.2045 11.4053 17.1899 11.4053 18.4055H13.4053C13.4053 16.0853 11.5246 14.2045 9.20434 14.2045V16.2045ZM11.4053 18.4044C11.4039 19.6199 10.4187 20.6051 9.20321 20.6065L9.20547 22.6065C11.5238 22.6039 13.4027 20.725 13.4053 18.4066L11.4053 18.4044Z" fill="#FF5900" mask="url(#path-1-inside-1_1287_11749)"/>
<mask id="path-3-inside-2_1287_11749" fill="white">
<path d="M20.4062 23.2071H3.60109V13.6041H10.003C10.6659 13.6041 11.2034 13.0667 11.2034 12.4038V2.40073H15.6047V7.20219H20.4062V12.8039H21.2064V6.63637L16.1705 1.60049H11.2034V1.20036C11.2034 0.537463 10.6659 0 10.003 0H1.20036C0.537463 0 0 0.537463 0 1.20036V12.4038C0 13.0667 0.537463 13.6041 1.20036 13.6041H2.80085V24.0073H21.2064V18.4056H20.4062V23.2071ZM16.405 2.9665L19.8404 6.40195H16.405V2.9665ZM0.800243 12.4038V1.20036C0.800243 1.09425 0.842399 0.992473 0.917436 0.917436C0.992474 0.842399 1.09425 0.800243 1.20036 0.800243H10.003C10.1092 0.800243 10.2109 0.842399 10.286 0.917436C10.361 0.992473 10.4032 1.09425 10.4032 1.20036V12.4038C10.4032 12.5099 10.361 12.6117 10.286 12.6867C10.2109 12.7617 10.1092 12.8039 10.003 12.8039H1.20036C1.09425 12.8039 0.992474 12.7617 0.917436 12.6867C0.842399 12.6117 0.800243 12.5099 0.800243 12.4038Z"/>
</mask>
<path d="M20.4062 23.2071H3.60109V13.6041H10.003C10.6659 13.6041 11.2034 13.0667 11.2034 12.4038V2.40073H15.6047V7.20219H20.4062V12.8039H21.2064V6.63637L16.1705 1.60049H11.2034V1.20036C11.2034 0.537463 10.6659 0 10.003 0H1.20036C0.537463 0 0 0.537463 0 1.20036V12.4038C0 13.0667 0.537463 13.6041 1.20036 13.6041H2.80085V24.0073H21.2064V18.4056H20.4062V23.2071ZM16.405 2.9665L19.8404 6.40195H16.405V2.9665ZM0.800243 12.4038V1.20036C0.800243 1.09425 0.842399 0.992473 0.917436 0.917436C0.992474 0.842399 1.09425 0.800243 1.20036 0.800243H10.003C10.1092 0.800243 10.2109 0.842399 10.286 0.917436C10.361 0.992473 10.4032 1.09425 10.4032 1.20036V12.4038C10.4032 12.5099 10.361 12.6117 10.286 12.6867C10.2109 12.7617 10.1092 12.8039 10.003 12.8039H1.20036C1.09425 12.8039 0.992474 12.7617 0.917436 12.6867C0.842399 12.6117 0.800243 12.5099 0.800243 12.4038Z" fill="#FF5900"/>
<path d="M20.4062 23.2071V24.2071H21.4062V23.2071H20.4062ZM3.60109 23.2071H2.60109V24.2071H3.60109V23.2071ZM3.60109 13.6041V12.6041H2.60109V13.6041H3.60109ZM11.2034 2.40073V1.40073H10.2034V2.40073H11.2034ZM15.6047 2.40073H16.6047V1.40073H15.6047V2.40073ZM15.6047 7.20219H14.6047V8.20219H15.6047V7.20219ZM20.4062 7.20219H21.4062V6.20219H20.4062V7.20219ZM20.4062 12.8039H19.4062V13.8039H20.4062V12.8039ZM21.2064 12.8039V13.8039H22.2064V12.8039H21.2064ZM21.2064 6.63637H22.2064V6.22215L21.9136 5.92926L21.2064 6.63637ZM16.1705 1.60049L16.8776 0.893376L16.5847 0.600486H16.1705V1.60049ZM11.2034 1.60049H10.2034V2.60049H11.2034V1.60049ZM2.80085 13.6041H3.80085V12.6041H2.80085V13.6041ZM2.80085 24.0073H1.80085V25.0073H2.80085V24.0073ZM21.2064 24.0073V25.0073H22.2064V24.0073H21.2064ZM21.2064 18.4056H22.2064V17.4056H21.2064V18.4056ZM20.4062 18.4056V17.4056H19.4062V18.4056H20.4062ZM16.405 2.9665L17.1121 2.25939L15.405 0.552288V2.9665H16.405ZM19.8404 6.40195V7.40195H22.2546L20.5475 5.69484L19.8404 6.40195ZM16.405 6.40195H15.405V7.40195H16.405V6.40195ZM0.800243 12.4038H-0.199757H0.800243ZM1.20036 0.800243V-0.199757V0.800243ZM10.003 0.800243V-0.199757V0.800243ZM20.4062 22.2071H3.60109V24.2071H20.4062V22.2071ZM4.60109 23.2071V13.6041H2.60109V23.2071H4.60109ZM3.60109 14.6041H10.003V12.6041H3.60109V14.6041ZM10.003 14.6041C11.2182 14.6041 12.2034 13.619 12.2034 12.4038H10.2034C10.2034 12.5144 10.1137 12.6041 10.003 12.6041V14.6041ZM12.2034 12.4038V2.40073H10.2034V12.4038H12.2034ZM11.2034 3.40073H15.6047V1.40073H11.2034V3.40073ZM14.6047 2.40073V7.20219H16.6047V2.40073H14.6047ZM15.6047 8.20219H20.4062V6.20219H15.6047V8.20219ZM19.4062 7.20219V12.8039H21.4062V7.20219H19.4062ZM20.4062 13.8039H21.2064V11.8039H20.4062V13.8039ZM22.2064 12.8039V6.63637H20.2064V12.8039H22.2064ZM21.9136 5.92926L16.8776 0.893376L15.4634 2.3076L20.4993 7.34348L21.9136 5.92926ZM16.1705 0.600486H11.2034V2.60049H16.1705V0.600486ZM12.2034 1.60049V1.20036H10.2034V1.60049H12.2034ZM12.2034 1.20036C12.2034 -0.0148215 11.2182 -1 10.003 -1V1C10.1137 1 10.2034 1.08975 10.2034 1.20036H12.2034ZM10.003 -1H1.20036V1H10.003V-1ZM1.20036 -1C-0.0148212 -1 -1 -0.0148215 -1 1.20036H1C1 1.08975 1.08975 1 1.20036 1V-1ZM-1 1.20036V12.4038H1V1.20036H-1ZM-1 12.4038C-1 13.619 -0.0148212 14.6041 1.20036 14.6041V12.6041C1.08975 12.6041 1 12.5144 1 12.4038H-1ZM1.20036 14.6041H2.80085V12.6041H1.20036V14.6041ZM1.80085 13.6041V24.0073H3.80085V13.6041H1.80085ZM2.80085 25.0073H21.2064V23.0073H2.80085V25.0073ZM22.2064 24.0073V18.4056H20.2064V24.0073H22.2064ZM21.2064 17.4056H20.4062V19.4056H21.2064V17.4056ZM19.4062 18.4056V23.2071H21.4062V18.4056H19.4062ZM15.6979 3.67361L19.1333 7.10905L20.5475 5.69484L17.1121 2.25939L15.6979 3.67361ZM19.8404 5.40195H16.405V7.40195H19.8404V5.40195ZM17.405 6.40195V2.9665H15.405V6.40195H17.405ZM1.80024 12.4038V1.20036H-0.199757V12.4038H1.80024ZM1.80024 1.20036C1.80024 1.35946 1.73704 1.51204 1.62454 1.62454L0.210329 0.210329C-0.0522444 0.472903 -0.199757 0.82903 -0.199757 1.20036H1.80024ZM1.62454 1.62454C1.51204 1.73704 1.35946 1.80024 1.20036 1.80024V-0.199757C0.82903 -0.199757 0.472903 -0.0522446 0.210329 0.210329L1.62454 1.62454ZM1.20036 1.80024H10.003V-0.199757H1.20036V1.80024ZM10.003 1.80024C9.84394 1.80024 9.69136 1.73704 9.57886 1.62454L10.9931 0.210329C10.7305 -0.0522451 10.3744 -0.199757 10.003 -0.199757V1.80024ZM9.57886 1.62454C9.46636 1.51204 9.40316 1.35946 9.40316 1.20036H11.4032C11.4032 0.829031 11.2557 0.472904 10.9931 0.210329L9.57886 1.62454ZM9.40316 1.20036V12.4038H11.4032V1.20036H9.40316ZM9.40316 12.4038C9.40316 12.2447 9.46636 12.0921 9.57886 11.9796L10.9931 13.3938C11.2557 13.1312 11.4032 12.7751 11.4032 12.4038H9.40316ZM9.57886 11.9796C9.69136 11.8671 9.84395 11.8039 10.003 11.8039V13.8039C10.3744 13.8039 10.7305 13.6564 10.9931 13.3938L9.57886 11.9796ZM10.003 11.8039H1.20036V13.8039H10.003V11.8039ZM1.20036 11.8039C1.35946 11.8039 1.51204 11.8671 1.62454 11.9796L0.210329 13.3938C0.472905 13.6564 0.829032 13.8039 1.20036 13.8039V11.8039ZM1.62454 11.9796C1.73704 12.0921 1.80024 12.2447 1.80024 12.4038H-0.199757C-0.199757 12.7751 -0.0522449 13.1312 0.210329 13.3938L1.62454 11.9796Z" fill="#FF5900" mask="url(#path-3-inside-2_1287_11749)"/>
<mask id="path-5-inside-3_1287_11749" fill="white">
<path d="M3.20986 4.40039H2.40962C1.96768 4.40039 1.60938 4.7587 1.60938 5.20063V6.00088C1.60938 6.44281 1.96768 6.80112 2.40962 6.80112H3.20986C3.6518 6.80112 4.0101 6.44281 4.0101 6.00088V5.20063C4.0101 4.7587 3.6518 4.40039 3.20986 4.40039ZM2.40962 6.00088V5.20063H3.20986V6.00088H2.40962ZM6.01071 4.40039H5.21047C4.76853 4.40039 4.41023 4.7587 4.41023 5.20063V6.00088C4.41023 6.44281 4.76853 6.80112 5.21047 6.80112H6.01071C6.45265 6.80112 6.81096 6.44281 6.81096 6.00088V5.20063C6.81096 4.7587 6.45265 4.40039 6.01071 4.40039ZM5.21047 6.00088V5.20063H6.01071V6.00088H5.21047ZM8.81156 4.40039H8.01132C7.56939 4.40039 7.21108 4.7587 7.21108 5.20063V6.00088C7.21108 6.44281 7.56939 6.80112 8.01132 6.80112H8.81156C9.2535 6.80112 9.61181 6.44281 9.61181 6.00088V5.20063C9.61181 4.7587 9.2535 4.40039 8.81156 4.40039ZM8.01132 6.00088V5.20063H8.81156V6.00088H8.01132ZM3.20986 7.20124H2.40962C1.96768 7.20124 1.60938 7.55955 1.60938 8.00149V8.80173C1.60938 9.24366 1.96768 9.60197 2.40962 9.60197H3.20986C3.6518 9.60197 4.0101 9.24366 4.0101 8.80173V8.00149C4.0101 7.55955 3.6518 7.20124 3.20986 7.20124ZM2.40962 8.80173V8.00149H3.20986V8.80173H2.40962ZM6.01071 7.20124H5.21047C4.76853 7.20124 4.41023 7.55955 4.41023 8.00149V8.80173C4.41023 9.24366 4.76853 9.60197 5.21047 9.60197H6.01071C6.45265 9.60197 6.81096 9.24366 6.81096 8.80173V8.00149C6.81096 7.55955 6.45265 7.20124 6.01071 7.20124ZM5.21047 8.80173V8.00149H6.01071V8.80173H5.21047ZM8.81156 7.20124H8.01132C7.56939 7.20124 7.21108 7.55955 7.21108 8.00149V8.80173C7.21108 9.24366 7.56939 9.60197 8.01132 9.60197H8.81156C9.2535 9.60197 9.61181 9.24366 9.61181 8.80173V8.00149C9.61181 7.55955 9.2535 7.20124 8.81156 7.20124ZM8.01132 8.80173V8.00149H8.81156V8.80173H8.01132ZM3.20986 10.0021H2.40962C1.96768 10.0021 1.60938 10.3604 1.60938 10.8023V11.6026C1.60938 12.0445 1.96768 12.4028 2.40962 12.4028H3.20986C3.6518 12.4028 4.0101 12.0445 4.0101 11.6026V10.8023C4.0101 10.3604 3.6518 10.0021 3.20986 10.0021ZM2.40962 11.6026V10.8023H3.20986V11.6026H2.40962ZM6.01071 10.0021H5.21047C4.76853 10.0021 4.41023 10.3604 4.41023 10.8023V11.6026C4.41023 12.0445 4.76853 12.4028 5.21047 12.4028H6.01071C6.45265 12.4028 6.81096 12.0445 6.81096 11.6026V10.8023C6.81096 10.3604 6.45265 10.0021 6.01071 10.0021ZM5.21047 11.6026V10.8023H6.01071V11.6026H5.21047ZM8.81156 10.0021H8.01132C7.56939 10.0021 7.21108 10.3604 7.21108 10.8023V11.6026C7.21108 12.0445 7.56939 12.4028 8.01132 12.4028H8.81156C9.2535 12.4028 9.61181 12.0445 9.61181 11.6026V10.8023C9.61181 10.3604 9.2535 10.0021 8.81156 10.0021ZM8.01132 11.6026V10.8023H8.81156V11.6026H8.01132ZM23.6528 12.7662C23.1778 12.3127 22.4306 12.3127 21.9556 12.7662L15.0963 19.6253C15.063 19.6589 15.0359 19.6981 15.0162 19.741L14.0503 21.8385C14.0162 21.9127 14.0057 21.9956 14.0201 22.076C14.0346 22.1564 14.0733 22.2305 14.1311 22.2882C14.1889 22.346 14.2629 22.3848 14.3433 22.3993C14.4237 22.4137 14.5067 22.4032 14.5809 22.3692L16.6784 21.4032C16.7214 21.3835 16.7605 21.3564 16.7941 21.3231L23.6528 14.4638C24.1217 13.9951 24.1217 13.2349 23.6528 12.7662ZM16.2783 20.7061L15.23 21.1891L15.7129 20.1407L20.8272 15.0261L21.393 15.5919L16.2783 20.7061ZM21.96 15.0243L21.3941 14.4587L21.6743 14.1786L22.2401 14.7443L21.96 15.0243ZM23.0884 13.896L22.8055 14.179L22.2397 13.6131L22.523 13.3303C22.5991 13.2575 22.7004 13.2169 22.8057 13.2169C22.911 13.2169 23.0123 13.2575 23.0884 13.3303C23.1634 13.4053 23.2055 13.5071 23.2055 13.6131C23.2055 13.7192 23.1634 13.821 23.0884 13.896Z"/>
</mask>
<path d="M3.20986 4.40039H2.40962C1.96768 4.40039 1.60938 4.7587 1.60938 5.20063V6.00088C1.60938 6.44281 1.96768 6.80112 2.40962 6.80112H3.20986C3.6518 6.80112 4.0101 6.44281 4.0101 6.00088V5.20063C4.0101 4.7587 3.6518 4.40039 3.20986 4.40039ZM2.40962 6.00088V5.20063H3.20986V6.00088H2.40962ZM6.01071 4.40039H5.21047C4.76853 4.40039 4.41023 4.7587 4.41023 5.20063V6.00088C4.41023 6.44281 4.76853 6.80112 5.21047 6.80112H6.01071C6.45265 6.80112 6.81096 6.44281 6.81096 6.00088V5.20063C6.81096 4.7587 6.45265 4.40039 6.01071 4.40039ZM5.21047 6.00088V5.20063H6.01071V6.00088H5.21047ZM8.81156 4.40039H8.01132C7.56939 4.40039 7.21108 4.7587 7.21108 5.20063V6.00088C7.21108 6.44281 7.56939 6.80112 8.01132 6.80112H8.81156C9.2535 6.80112 9.61181 6.44281 9.61181 6.00088V5.20063C9.61181 4.7587 9.2535 4.40039 8.81156 4.40039ZM8.01132 6.00088V5.20063H8.81156V6.00088H8.01132ZM3.20986 7.20124H2.40962C1.96768 7.20124 1.60938 7.55955 1.60938 8.00149V8.80173C1.60938 9.24366 1.96768 9.60197 2.40962 9.60197H3.20986C3.6518 9.60197 4.0101 9.24366 4.0101 8.80173V8.00149C4.0101 7.55955 3.6518 7.20124 3.20986 7.20124ZM2.40962 8.80173V8.00149H3.20986V8.80173H2.40962ZM6.01071 7.20124H5.21047C4.76853 7.20124 4.41023 7.55955 4.41023 8.00149V8.80173C4.41023 9.24366 4.76853 9.60197 5.21047 9.60197H6.01071C6.45265 9.60197 6.81096 9.24366 6.81096 8.80173V8.00149C6.81096 7.55955 6.45265 7.20124 6.01071 7.20124ZM5.21047 8.80173V8.00149H6.01071V8.80173H5.21047ZM8.81156 7.20124H8.01132C7.56939 7.20124 7.21108 7.55955 7.21108 8.00149V8.80173C7.21108 9.24366 7.56939 9.60197 8.01132 9.60197H8.81156C9.2535 9.60197 9.61181 9.24366 9.61181 8.80173V8.00149C9.61181 7.55955 9.2535 7.20124 8.81156 7.20124ZM8.01132 8.80173V8.00149H8.81156V8.80173H8.01132ZM3.20986 10.0021H2.40962C1.96768 10.0021 1.60938 10.3604 1.60938 10.8023V11.6026C1.60938 12.0445 1.96768 12.4028 2.40962 12.4028H3.20986C3.6518 12.4028 4.0101 12.0445 4.0101 11.6026V10.8023C4.0101 10.3604 3.6518 10.0021 3.20986 10.0021ZM2.40962 11.6026V10.8023H3.20986V11.6026H2.40962ZM6.01071 10.0021H5.21047C4.76853 10.0021 4.41023 10.3604 4.41023 10.8023V11.6026C4.41023 12.0445 4.76853 12.4028 5.21047 12.4028H6.01071C6.45265 12.4028 6.81096 12.0445 6.81096 11.6026V10.8023C6.81096 10.3604 6.45265 10.0021 6.01071 10.0021ZM5.21047 11.6026V10.8023H6.01071V11.6026H5.21047ZM8.81156 10.0021H8.01132C7.56939 10.0021 7.21108 10.3604 7.21108 10.8023V11.6026C7.21108 12.0445 7.56939 12.4028 8.01132 12.4028H8.81156C9.2535 12.4028 9.61181 12.0445 9.61181 11.6026V10.8023C9.61181 10.3604 9.2535 10.0021 8.81156 10.0021ZM8.01132 11.6026V10.8023H8.81156V11.6026H8.01132ZM23.6528 12.7662C23.1778 12.3127 22.4306 12.3127 21.9556 12.7662L15.0963 19.6253C15.063 19.6589 15.0359 19.6981 15.0162 19.741L14.0503 21.8385C14.0162 21.9127 14.0057 21.9956 14.0201 22.076C14.0346 22.1564 14.0733 22.2305 14.1311 22.2882C14.1889 22.346 14.2629 22.3848 14.3433 22.3993C14.4237 22.4137 14.5067 22.4032 14.5809 22.3692L16.6784 21.4032C16.7214 21.3835 16.7605 21.3564 16.7941 21.3231L23.6528 14.4638C24.1217 13.9951 24.1217 13.2349 23.6528 12.7662ZM16.2783 20.7061L15.23 21.1891L15.7129 20.1407L20.8272 15.0261L21.393 15.5919L16.2783 20.7061ZM21.96 15.0243L21.3941 14.4587L21.6743 14.1786L22.2401 14.7443L21.96 15.0243ZM23.0884 13.896L22.8055 14.179L22.2397 13.6131L22.523 13.3303C22.5991 13.2575 22.7004 13.2169 22.8057 13.2169C22.911 13.2169 23.0123 13.2575 23.0884 13.3303C23.1634 13.4053 23.2055 13.5071 23.2055 13.6131C23.2055 13.7192 23.1634 13.821 23.0884 13.896Z" fill="#FF5900" stroke="#FF5900" stroke-width="2" mask="url(#path-5-inside-3_1287_11749)"/>
<path d="M10.4485 20.1499C10.4144 20.1499 10.3807 20.142 10.3502 20.1267C10.3197 20.1115 10.2932 20.0893 10.2728 20.0621L8.03293 17.0756V19.9303C8.03293 20.0516 7.93462 20.1499 7.81334 20.1499C7.69206 20.1499 7.59375 20.0516 7.59375 19.9303V16.4169C7.59375 16.3708 7.60825 16.3258 7.6352 16.2885C7.66215 16.2511 7.70018 16.2231 7.7439 16.2085C7.78762 16.194 7.83482 16.1935 7.87882 16.2073C7.92281 16.221 7.96136 16.2482 7.98901 16.2851L10.2288 19.2715V16.4169C10.2288 16.2956 10.3272 16.1973 10.4484 16.1973C10.5697 16.1973 10.668 16.2956 10.668 16.4169V19.9303C10.668 19.9591 10.6624 19.9877 10.6513 20.0143C10.6403 20.041 10.6241 20.0652 10.6037 20.0856C10.5833 20.106 10.5591 20.1222 10.5325 20.1332C10.5059 20.1442 10.4773 20.1499 10.4485 20.1499Z" fill="#4D148C"/>
<path d="M10.9917 17.9548H7.25865C7.13737 17.9548 7.03906 17.8565 7.03906 17.7352C7.03906 17.6139 7.13737 17.5156 7.25865 17.5156H10.9917C11.113 17.5156 11.2113 17.6139 11.2113 17.7352C11.2113 17.8565 11.113 17.9548 10.9917 17.9548ZM10.9917 18.8332H7.25865C7.13737 18.8332 7.03906 18.7348 7.03906 18.6136C7.03906 18.4923 7.13737 18.394 7.25865 18.394H10.9917C11.113 18.394 11.2113 18.4923 11.2113 18.6136C11.2113 18.7348 11.113 18.8332 10.9917 18.8332Z" fill="#4D148C"/>
<mask id="path-8-inside-4_1287_11749" fill="white">
<path d="M13.6049 10.0028H12.8047V10.8031H13.6049V10.0028Z"/>
<path d="M19.2066 10.0028H14.4052V10.8031H19.2066V10.0028Z"/>
<path d="M13.6049 8.40234H12.8047V9.20259H13.6049V8.40234Z"/>
<path d="M19.2066 8.40234H14.4052V9.20259H19.2066V8.40234Z"/>
<path d="M13.6049 11.6033H12.8047V12.4036H13.6049V11.6033Z"/>
<path d="M19.2066 11.6033H14.4052V12.4036H19.2066V11.6033Z"/>
<path d="M13.6049 13.2038H12.8047V14.004H13.6049V13.2038Z"/>
<path d="M19.2066 13.2038H14.4052V14.004H19.2066V13.2038Z"/>
</mask>
<path d="M13.6049 10.0028H12.8047V10.8031H13.6049V10.0028Z" fill="#4D148C"/>
<path d="M19.2066 10.0028H14.4052V10.8031H19.2066V10.0028Z" fill="#4D148C"/>
<path d="M13.6049 8.40234H12.8047V9.20259H13.6049V8.40234Z" fill="#4D148C"/>
<path d="M19.2066 8.40234H14.4052V9.20259H19.2066V8.40234Z" fill="#4D148C"/>
<path d="M13.6049 11.6033H12.8047V12.4036H13.6049V11.6033Z" fill="#4D148C"/>
<path d="M19.2066 11.6033H14.4052V12.4036H19.2066V11.6033Z" fill="#4D148C"/>
<path d="M13.6049 13.2038H12.8047V14.004H13.6049V13.2038Z" fill="#4D148C"/>
<path d="M19.2066 13.2038H14.4052V14.004H19.2066V13.2038Z" fill="#4D148C"/>
<path d="M12.8047 10.0028V9.00283H11.8047V10.0028H12.8047ZM13.6049 10.0028H14.6049V9.00283H13.6049V10.0028ZM13.6049 10.8031V11.8031H14.6049V10.8031H13.6049ZM12.8047 10.8031H11.8047V11.8031H12.8047V10.8031ZM14.4052 10.0028V9.00283H13.4052V10.0028H14.4052ZM19.2066 10.0028H20.2066V9.00283H19.2066V10.0028ZM19.2066 10.8031V11.8031H20.2066V10.8031H19.2066ZM14.4052 10.8031H13.4052V11.8031H14.4052V10.8031ZM12.8047 8.40234V7.40234H11.8047V8.40234H12.8047ZM13.6049 8.40234H14.6049V7.40234H13.6049V8.40234ZM13.6049 9.20259V10.2026H14.6049V9.20259H13.6049ZM12.8047 9.20259H11.8047V10.2026H12.8047V9.20259ZM14.4052 8.40234V7.40234H13.4052V8.40234H14.4052ZM19.2066 8.40234H20.2066V7.40234H19.2066V8.40234ZM19.2066 9.20259V10.2026H20.2066V9.20259H19.2066ZM14.4052 9.20259H13.4052V10.2026H14.4052V9.20259ZM12.8047 11.6033V10.6033H11.8047V11.6033H12.8047ZM13.6049 11.6033H14.6049V10.6033H13.6049V11.6033ZM13.6049 12.4036V13.4036H14.6049V12.4036H13.6049ZM12.8047 12.4036H11.8047V13.4036H12.8047V12.4036ZM14.4052 11.6033V10.6033H13.4052V11.6033H14.4052ZM19.2066 11.6033H20.2066V10.6033H19.2066V11.6033ZM19.2066 12.4036V13.4036H20.2066V12.4036H19.2066ZM14.4052 12.4036H13.4052V13.4036H14.4052V12.4036ZM12.8047 13.2038V12.2038H11.8047V13.2038H12.8047ZM13.6049 13.2038H14.6049V12.2038H13.6049V13.2038ZM13.6049 14.004V15.004H14.6049V14.004H13.6049ZM12.8047 14.004H11.8047V15.004H12.8047V14.004ZM14.4052 13.2038V12.2038H13.4052V13.2038H14.4052ZM19.2066 13.2038H20.2066V12.2038H19.2066V13.2038ZM19.2066 14.004V15.004H20.2066V14.004H19.2066ZM14.4052 14.004H13.4052V15.004H14.4052V14.004ZM12.8047 11.0028H13.6049V9.00283H12.8047V11.0028ZM12.6049 10.0028V10.8031H14.6049V10.0028H12.6049ZM13.6049 9.80307H12.8047V11.8031H13.6049V9.80307ZM13.8047 10.8031V10.0028H11.8047V10.8031H13.8047ZM14.4052 11.0028H19.2066V9.00283H14.4052V11.0028ZM18.2066 10.0028V10.8031H20.2066V10.0028H18.2066ZM19.2066 9.80307H14.4052V11.8031H19.2066V9.80307ZM15.4052 10.8031V10.0028H13.4052V10.8031H15.4052ZM12.8047 9.40234H13.6049V7.40234H12.8047V9.40234ZM12.6049 8.40234V9.20259H14.6049V8.40234H12.6049ZM13.6049 8.20259H12.8047V10.2026H13.6049V8.20259ZM13.8047 9.20259V8.40234H11.8047V9.20259H13.8047ZM14.4052 9.40234H19.2066V7.40234H14.4052V9.40234ZM18.2066 8.40234V9.20259H20.2066V8.40234H18.2066ZM19.2066 8.20259H14.4052V10.2026H19.2066V8.20259ZM15.4052 9.20259V8.40234H13.4052V9.20259H15.4052ZM12.8047 12.6033H13.6049V10.6033H12.8047V12.6033ZM12.6049 11.6033V12.4036H14.6049V11.6033H12.6049ZM13.6049 11.4036H12.8047V13.4036H13.6049V11.4036ZM13.8047 12.4036V11.6033H11.8047V12.4036H13.8047ZM14.4052 12.6033H19.2066V10.6033H14.4052V12.6033ZM18.2066 11.6033V12.4036H20.2066V11.6033H18.2066ZM19.2066 11.4036H14.4052V13.4036H19.2066V11.4036ZM15.4052 12.4036V11.6033H13.4052V12.4036H15.4052ZM12.8047 14.2038H13.6049V12.2038H12.8047V14.2038ZM12.6049 13.2038V14.004H14.6049V13.2038H12.6049ZM13.6049 13.004H12.8047V15.004H13.6049V13.004ZM13.8047 14.004V13.2038H11.8047V14.004H13.8047ZM14.4052 14.2038H19.2066V12.2038H14.4052V14.2038ZM18.2066 13.2038V14.004H20.2066V13.2038H18.2066ZM19.2066 13.004H14.4052V15.004H19.2066V13.004ZM15.4052 14.004V13.2038H13.4052V14.004H15.4052Z" fill="#4D148C" mask="url(#path-8-inside-4_1287_11749)"/>
<rect x="2.40458" y="1.80106" width="6.44881" height="1.19978" stroke="#4D148C" stroke-width="1.19978"/>
</svg>
