<svg width="18" height="24" viewBox="0 0 18 24" fill="none" xmlns="http://www.w3.org/2000/svg">
<path d="M18 14.0126V21.4431C17.999 21.6251 17.9331 21.8022 17.8117 21.9492L17.435 22.3819C17.3136 22.5289 17.2477 22.706 17.2467 22.888V23.1543C17.2467 23.2653 17.2219 23.3753 17.1739 23.4779C17.1258 23.5805 17.0553 23.6737 16.9665 23.7522C16.8776 23.8307 16.7722 23.893 16.6561 23.9355C16.54 23.978 16.4156 23.9999 16.29 23.9999H8.88494C8.64139 23.9985 8.40759 23.9151 8.23122 23.7666C8.05485 23.6182 7.94919 23.4158 7.93577 23.2009C7.8755 22.3486 7.62691 21.3233 6.67021 20.9238C6.57326 20.8907 6.47205 20.8683 6.36888 20.8572C5.50257 20.7041 2.55713 19.3658 1.09571 19.0728C0.801787 19.0368 0.531718 18.9102 0.333219 18.7153C0.134721 18.5203 0.0205699 18.2696 0.0109382 18.0075C0.0109382 18.0075 -0.312985 16.4428 2.56466 16.9222C2.93378 16.9822 4.56094 17.2019 4.56094 17.2019C5.94703 17.5414 5.94703 14.4321 5.94703 14.4321V10.0177C5.94483 9.73443 6.04806 9.45837 6.24082 9.23204C6.28697 9.17798 6.33732 9.12681 6.39148 9.0789C6.54481 8.9462 6.72845 8.84398 6.9301 8.77909C7.13175 8.7142 7.34676 8.68813 7.56073 8.70263C7.7747 8.71713 7.9827 8.77186 8.1708 8.86316C8.3589 8.95447 8.52276 9.08023 8.65141 9.23204C8.84956 9.45667 8.95814 9.73288 8.96027 10.0177V12.681H16.4934C16.893 12.681 17.2762 12.8213 17.5587 13.071C17.8413 13.3207 18 13.6594 18 14.0126Z" fill="black"/>
<path d="M10.7703 1.68202C10.7199 1.76084 10.6519 1.82974 10.5703 1.88452C10.4888 1.9393 10.3954 1.97881 10.296 2.00062C10.1966 2.02243 10.0932 2.02609 9.99211 2.01138C9.89104 1.99667 9.79442 1.96389 9.70817 1.91505C8.7607 1.42714 7.64486 1.26029 6.56854 1.4456C5.49222 1.63092 4.52882 2.15575 3.85784 2.92231C3.18685 3.68888 2.85405 4.64491 2.92143 5.61227C2.9888 6.57963 3.45177 7.49236 4.22406 8.1804C4.40959 8.34918 4.61404 8.50088 4.83425 8.63315C4.55704 9.03436 4.40861 9.49469 4.40486 9.96479C3.94694 9.73385 3.52633 9.44943 3.15436 9.1192C2.10308 8.20291 1.46895 6.97739 1.37231 5.67521C1.27566 4.37303 1.72323 3.0848 2.63007 2.05498C3.53692 1.02516 4.83994 0.325408 6.29187 0.0885135C7.7438 -0.148381 9.24361 0.0940655 10.5067 0.769847C10.6785 0.859924 10.8028 1.00662 10.8522 1.17768C10.9016 1.34874 10.8722 1.53015 10.7703 1.68202Z" fill="#FFC000"/>
<path d="M11.7189 9.12677C11.347 9.457 10.9264 9.74143 10.4684 9.97236C10.4647 9.50227 10.3163 9.04194 10.0391 8.64073C10.2593 8.50845 10.4637 8.35676 10.6492 8.18797C11.1097 7.78414 11.4665 7.29743 11.6953 6.7609C11.9241 6.22438 12.0195 5.65062 11.9751 5.0786C11.9627 4.90302 12.0294 4.73024 12.1607 4.598C12.2919 4.46576 12.4771 4.38481 12.6757 4.37284C12.7746 4.3665 12.874 4.3775 12.9682 4.40523C13.0623 4.43295 13.1494 4.47684 13.2243 4.53438C13.2992 4.59192 13.3605 4.66197 13.4046 4.74051C13.4488 4.81905 13.475 4.90453 13.4817 4.99204C13.5363 5.7523 13.4073 6.51412 13.1034 7.22697C12.7995 7.93982 12.3276 8.58741 11.7189 9.12677Z" fill="#FFC000"/>
<path d="M7.5581 7.05487C7.45896 7.05537 7.36068 7.03858 7.2689 7.00544C7.17712 6.97231 7.09364 6.92349 7.02325 6.86178L4.76332 4.86433C4.68446 4.80464 4.62041 4.73119 4.57519 4.64858C4.52998 4.56598 4.50457 4.476 4.50056 4.38431C4.49655 4.29261 4.51404 4.20117 4.55191 4.11573C4.58978 4.03029 4.64723 3.95269 4.72064 3.8878C4.79405 3.82292 4.88185 3.77214 4.97852 3.73867C5.07519 3.7052 5.17864 3.68975 5.28239 3.69329C5.38613 3.69683 5.48793 3.71929 5.58139 3.75925C5.67485 3.79922 5.75795 3.85583 5.82548 3.92552L7.56563 5.46356L12.545 1.16238C12.6908 1.05485 12.8772 0.999971 13.0669 1.00872C13.2565 1.01746 13.4354 1.08919 13.5678 1.20955C13.7001 1.32991 13.7762 1.49001 13.7807 1.65781C13.7852 1.82561 13.7179 1.98872 13.5921 2.1145L8.08542 6.86844C7.9439 6.98901 7.75466 7.05591 7.5581 7.05487Z" fill="#FFC000"/>
</svg>
