<svg width="14" height="18" viewBox="0 0 14 18" fill="none" xmlns="http://www.w3.org/2000/svg">
<path d="M13.5 10.5098V16.0827C13.4992 16.2192 13.4498 16.352 13.3588 16.4622L13.0763 16.7868C12.9852 16.8971 12.9358 17.0299 12.935 17.1663V17.3661C12.935 17.4494 12.9165 17.5318 12.8804 17.6088C12.8443 17.6857 12.7915 17.7556 12.7249 17.8145C12.6582 17.8734 12.5791 17.9201 12.4921 17.952C12.405 17.9839 12.3117 18.0003 12.2175 18.0003H6.6637C6.48104 17.9992 6.3057 17.9367 6.17342 17.8253C6.04114 17.714 5.96189 17.5622 5.95183 17.401C5.90663 16.7619 5.72018 15.9928 5.00265 15.6932C4.92995 15.6684 4.85404 15.6516 4.77666 15.6433C4.12693 15.5284 1.91785 14.5247 0.82178 14.305C0.60134 14.278 0.398788 14.183 0.249914 14.0368C0.10104 13.8906 0.0154274 13.7026 0.00820367 13.506C0.00820367 13.506 -0.234739 12.3325 1.9235 12.692C2.20034 12.737 3.4207 12.9018 3.4207 12.9018C4.46027 13.1565 4.46027 10.8244 4.46027 10.8244V7.51365C4.45863 7.30119 4.53605 7.09414 4.68061 6.9244C4.71523 6.88385 4.75299 6.84547 4.79361 6.80954C4.90861 6.71002 5.04634 6.63335 5.19758 6.58468C5.34881 6.53601 5.51007 6.51646 5.67055 6.52734C5.83102 6.53821 5.98702 6.57926 6.1281 6.64774C6.26917 6.71622 6.39207 6.81054 6.48856 6.9244C6.63717 7.09287 6.71861 7.30003 6.7202 7.51365V9.5111H12.37C12.6697 9.5111 12.9571 9.61632 13.169 9.80362C13.381 9.99092 13.5 10.2449 13.5 10.5098Z" fill="#333333"/>
<path d="M8.07385 1.26151C8.03604 1.32063 7.985 1.37231 7.92383 1.41339C7.86267 1.45448 7.79266 1.48411 7.7181 1.50046C7.64354 1.51682 7.56598 1.51957 7.49018 1.50853C7.41437 1.4975 7.34191 1.47292 7.27722 1.43629C6.56662 1.07035 5.72974 0.945218 4.9225 1.0842C4.11526 1.22319 3.39271 1.61681 2.88947 2.19174C2.38623 2.76666 2.13663 3.48368 2.18716 4.2092C2.2377 4.93472 2.58492 5.61927 3.16414 6.1353C3.30329 6.26189 3.45662 6.37566 3.62178 6.47486C3.41387 6.77577 3.30255 7.12102 3.29974 7.47359C2.9563 7.30039 2.64084 7.08707 2.36187 6.8394C1.5734 6.15218 1.09781 5.23304 1.02532 4.25641C0.952841 3.27978 1.28852 2.3136 1.96865 1.54124C2.64878 0.76887 3.62605 0.244056 4.715 0.0663851C5.80394 -0.111286 6.9288 0.0705491 7.8761 0.577385C8.00495 0.644943 8.09816 0.754966 8.13525 0.883259C8.17233 1.01155 8.15024 1.14761 8.07385 1.26151Z" fill="#FFC000"/>
<path d="M8.79116 6.84508C8.51219 7.09275 8.19673 7.30607 7.85329 7.47927C7.85048 7.1267 7.73916 6.78145 7.53125 6.48054C7.69641 6.38134 7.84974 6.26757 7.98889 6.14098C8.33426 5.8381 8.60183 5.47307 8.77341 5.07068C8.94499 4.66828 9.01656 4.23796 8.98326 3.80895C8.97395 3.67727 9.02399 3.54768 9.12245 3.4485C9.2209 3.34932 9.35976 3.28861 9.50869 3.27963C9.58292 3.27487 9.65749 3.28313 9.7281 3.30392C9.79871 3.32471 9.86398 3.35763 9.92016 3.40079C9.97633 3.44394 10.0223 3.49648 10.0554 3.55538C10.0886 3.61429 10.1082 3.6784 10.1132 3.74403C10.1542 4.31422 10.0575 4.88559 9.82953 5.42023C9.6016 5.95487 9.24765 6.44056 8.79116 6.84508Z" fill="#FFC000"/>
<path d="M5.66857 5.29115C5.59422 5.29153 5.52051 5.27893 5.45167 5.25408C5.38284 5.22923 5.32023 5.19262 5.26744 5.14633L3.57249 3.64825C3.51334 3.60348 3.46531 3.54839 3.4314 3.48644C3.39748 3.42448 3.37843 3.357 3.37542 3.28823C3.37242 3.21946 3.38553 3.15088 3.41393 3.0868C3.44234 3.02272 3.48542 2.96452 3.54048 2.91585C3.59554 2.86719 3.66139 2.82911 3.73389 2.804C3.80639 2.7789 3.88398 2.76731 3.96179 2.76997C4.0396 2.77262 4.11595 2.78947 4.18604 2.81944C4.25614 2.84941 4.31846 2.89187 4.36911 2.94414L5.67422 4.09767L9.40877 0.871785C9.51813 0.79114 9.65792 0.749978 9.80015 0.756538C9.94238 0.763098 10.0766 0.816896 10.1758 0.907163C10.2751 0.997431 10.3321 1.11751 10.3355 1.24336C10.3389 1.3692 10.2884 1.49154 10.1941 1.58587L6.06406 5.15133C5.95792 5.24176 5.81599 5.29193 5.66857 5.29115Z" fill="#FFC000"/>
</svg>
