<svg width="48" height="48" viewBox="0 0 48 48" fill="none" xmlns="http://www.w3.org/2000/svg">
<g clip-path="url(#clip0_2369_1789)">
<path d="M24 47.5C36.9787 47.5 47.5 36.9787 47.5 24C47.5 11.0213 36.9787 0.5 24 0.5C11.0213 0.5 0.5 11.0213 0.5 24C0.5 36.9787 11.0213 47.5 24 47.5Z" stroke="#101010"/>
<path d="M34 26.378V36.6531C33.9987 36.9048 33.9182 37.1496 33.7698 37.3529L33.3095 37.9513C33.1611 38.1546 33.0805 38.3994 33.0793 38.6511V39.0194C33.0793 39.1729 33.049 39.325 32.9903 39.4668C32.9315 39.6087 32.8454 39.7376 32.7368 39.8462C32.6282 39.9548 32.4993 40.0409 32.3575 40.0997C32.2156 40.1584 32.0635 40.1887 31.91 40.1887H22.8594C22.5617 40.1868 22.2759 40.0714 22.0604 39.8661C21.8448 39.6608 21.7157 39.3811 21.6993 39.0838C21.6256 37.9053 21.3218 36.4874 20.1525 35.935C20.034 35.8892 19.9103 35.8583 19.7842 35.8429C18.7254 35.6312 15.1254 33.7805 13.3392 33.3754C12.98 33.3256 12.6499 33.1505 12.4073 32.8809C12.1647 32.6114 12.0251 32.2647 12.0134 31.9023C12.0134 31.9023 11.6175 29.7386 15.1346 30.4015C15.5857 30.4844 17.5745 30.7882 17.5745 30.7882C19.2686 31.2578 19.2686 26.958 19.2686 26.958V20.8537C19.2659 20.462 19.3921 20.0802 19.6277 19.7673C19.6841 19.6925 19.7456 19.6217 19.8118 19.5555C19.9992 19.372 20.2237 19.2306 20.4701 19.1409C20.7166 19.0512 20.9794 19.0151 21.2409 19.0352C21.5024 19.0552 21.7566 19.1309 21.9865 19.2572C22.2164 19.3834 22.4167 19.5573 22.5739 19.7673C22.8161 20.0779 22.9488 20.4598 22.9514 20.8537V24.5366H32.1586C32.6469 24.5366 33.1153 24.7306 33.4607 25.0759C33.806 25.4212 34 25.8896 34 26.378Z" fill="black"/>
<path d="M25.1704 9.32594C25.1088 9.43494 25.0256 9.53022 24.9259 9.60598C24.8262 9.68173 24.7122 9.73636 24.5906 9.76652C24.4691 9.79668 24.3427 9.80174 24.2192 9.7814C24.0957 9.76105 23.9776 9.71573 23.8722 9.64819C22.7142 8.97349 21.3504 8.74277 20.0348 8.99902C18.7193 9.25528 17.5419 9.98103 16.7218 11.0411C15.9017 12.1011 15.4949 13.4231 15.5773 14.7608C15.6596 16.0985 16.2255 17.3607 17.1694 18.3121C17.3961 18.5455 17.646 18.7553 17.9152 18.9382C17.5763 19.493 17.3949 20.1296 17.3903 20.7796C16.8307 20.4603 16.3166 20.067 15.862 19.6103C14.5771 18.3432 13.802 16.6486 13.6839 14.8479C13.5658 13.0472 14.1128 11.2658 15.2212 9.84169C16.3295 8.41762 17.9221 7.44998 19.6967 7.1224C21.4713 6.79481 23.3044 7.13008 24.8481 8.06457C25.0581 8.18913 25.21 8.39199 25.2704 8.62853C25.3309 8.86507 25.2949 9.11593 25.1704 9.32594Z" fill="#FFC000"/>
<path d="M26.3213 19.6198C25.8666 20.0764 25.3525 20.4697 24.7929 20.7891C24.7883 20.139 24.6069 19.5024 24.2681 18.9476C24.5372 18.7647 24.7871 18.555 25.0138 18.3216C25.5767 17.7631 26.0127 17.0901 26.2923 16.3482C26.5719 15.6062 26.6886 14.8128 26.6343 14.0218C26.6191 13.779 26.7007 13.5401 26.8611 13.3572C27.0216 13.1744 27.2479 13.0624 27.4906 13.0459C27.6115 13.0371 27.733 13.0523 27.8481 13.0907C27.9632 13.129 28.0696 13.1897 28.1611 13.2693C28.2526 13.3488 28.3276 13.4457 28.3816 13.5543C28.4355 13.6629 28.4676 13.7811 28.4757 13.9021C28.5424 14.9534 28.3849 16.0069 28.0134 16.9927C27.642 17.9784 27.0652 18.8739 26.3213 19.6198Z" fill="#FFC000"/>
<path d="M21.239 16.7563C21.1178 16.757 20.9977 16.7338 20.8856 16.688C20.7734 16.6422 20.6713 16.5747 20.5853 16.4893L17.8232 13.7272C17.7268 13.6447 17.6485 13.5431 17.5932 13.4289C17.538 13.3146 17.5069 13.1902 17.502 13.0634C17.4971 12.9366 17.5185 12.8102 17.5648 12.692C17.6111 12.5739 17.6813 12.4666 17.771 12.3768C17.8607 12.2871 17.968 12.2169 18.0862 12.1706C18.2043 12.1243 18.3308 12.1029 18.4576 12.1078C18.5844 12.1127 18.7088 12.1438 18.823 12.1991C18.9373 12.2543 19.0388 12.3326 19.1214 12.429L21.2482 14.5558L27.3341 8.60803C27.5124 8.45934 27.7402 8.38344 27.972 8.39554C28.2037 8.40763 28.4224 8.50683 28.5842 8.67326C28.746 8.83969 28.8389 9.06108 28.8444 9.29312C28.8499 9.52516 28.7676 9.75072 28.6139 9.92465L21.8835 16.4985C21.7105 16.6653 21.4793 16.7578 21.239 16.7563Z" fill="#FFC000"/>
</g>
<defs>
<clipPath id="clip0_2369_1789">
<rect width="48" height="48" fill="white"/>
</clipPath>
</defs>
</svg>
