<svg width="22" height="41" viewBox="0 0 22 41" fill="none" xmlns="http://www.w3.org/2000/svg">
<path fill-rule="evenodd" clip-rule="evenodd" d="M11.1337 18.1664C9.80441 18.1667 8.60594 17.3658 8.09717 16.1375C7.58834 14.9091 7.86939 13.4951 8.8093 12.5549C9.74916 11.6146 11.1626 11.3333 12.3908 11.8421C13.6189 12.3508 14.4197 13.5495 14.4197 14.8792C14.4181 16.6937 12.9477 18.1644 11.1337 18.1664ZM11.1339 12.5399C10.1877 12.5397 9.33448 13.1097 8.97242 13.9841C8.61017 14.8584 8.81036 15.8649 9.47941 16.5342C10.1485 17.2034 11.1545 17.4034 12.0287 17.0412C12.9029 16.6789 13.4727 15.8256 13.4726 14.8792C13.4712 13.588 12.4248 12.5415 11.1339 12.5399ZM16.3797 25.2068H5.88771L5.41406 24.733C5.41406 22.6891 6.50422 20.8004 8.27388 19.7783C10.0436 18.7563 12.2238 18.7563 13.9935 19.7783C15.7632 20.8004 16.8533 22.6891 16.8533 24.733L16.3797 25.2068ZM6.38389 24.2592H15.8838C15.6437 21.8151 13.5891 19.9518 11.1339 19.9518C8.67849 19.9518 6.62387 21.8151 6.38389 24.2592Z" fill="#C8D0DB"/>
<path d="M19.2347 1C20.2098 1 21 1.79023 21 2.76532V34.4373C21 35.4122 20.2098 36.2026 19.2347 36.2026H2.76532C1.79023 36.2026 1 35.4122 1 34.4373V2.76532C1 1.79023 1.79023 1 2.76532 1H19.2347Z" stroke="#C8D0DB" stroke-linecap="round" stroke-linejoin="round"/>
<path d="M1.88281 7.25195H19.536" stroke="#C8D0DB" stroke-linecap="square"/>
<path d="M2.76562 29.3184H20.4188" stroke="#C8D0DB" stroke-linecap="square"/>
<path d="M14.2408 3.36719C14.7284 3.36719 15.1235 3.7623 15.1235 4.24985C15.1235 4.73739 14.7284 5.13251 14.2408 5.13251H7.17953C6.69199 5.13251 6.29688 4.73739 6.29688 4.24985C6.29688 3.7623 6.69199 3.36719 7.17953 3.36719H14.2408Z" fill="#C8D0DB"/>
<g filter="url(#filter0_d_302_9961)">
<path fill-rule="evenodd" clip-rule="evenodd" d="M9.82812 32.8493C9.82812 31.8743 10.6185 31.084 11.5934 31.084C12.5684 31.084 13.3588 31.8743 13.3588 32.8493C13.3588 33.8243 12.5684 34.6146 11.5934 34.6146C10.6185 34.6146 9.82812 33.8243 9.82812 32.8493Z" stroke="#C8D0DB" stroke-width="0.6"/>
</g>
<defs>
<filter id="filter0_d_302_9961" x="5.53125" y="28.7832" width="12.125" height="12.1309" filterUnits="userSpaceOnUse" color-interpolation-filters="sRGB">
<feFlood flood-opacity="0" result="BackgroundImageFix"/>
<feColorMatrix in="SourceAlpha" type="matrix" values="0 0 0 0 0 0 0 0 0 0 0 0 0 0 0 0 0 0 127 0" result="hardAlpha"/>
<feOffset dy="2"/>
<feGaussianBlur stdDeviation="2"/>
<feColorMatrix type="matrix" values="0 0 0 0 0.392157 0 0 0 0 0.392157 0 0 0 0 0.392157 0 0 0 0.498039 0"/>
<feBlend mode="normal" in2="BackgroundImageFix" result="effect1_dropShadow_302_9961"/>
<feBlend mode="normal" in="SourceGraphic" in2="effect1_dropShadow_302_9961" result="shape"/>
</filter>
</defs>
</svg>
