<svg width="48" height="48" viewBox="0 0 48 48" fill="none" xmlns="http://www.w3.org/2000/svg">
<g clip-path="url(#clip0_2191_265)">
<path d="M24 48C37.2548 48 48 37.2548 48 24C48 10.7452 37.2548 0 24 0C10.7452 0 0 10.7452 0 24C0 37.2548 10.7452 48 24 48Z" fill="white"/>
<path fill-rule="evenodd" clip-rule="evenodd" d="M28.9528 32.1868L30.5514 33.7852C30.6576 33.8912 30.801 33.9507 30.951 33.9507C31.1011 33.9507 31.2445 33.8912 31.3507 33.7852L34.5472 30.5884C34.6505 30.4818 34.7077 30.339 34.7062 30.1908C34.7047 30.0426 34.6453 29.9008 34.5406 29.7961C34.4358 29.6913 34.2939 29.6318 34.1461 29.6305C33.9975 29.6292 33.8549 29.6862 33.7486 29.7892L30.951 32.5864L29.7521 31.3876C29.6458 31.2846 29.5032 31.2276 29.3547 31.229C29.2068 31.2302 29.0649 31.2897 28.9602 31.3945C28.8555 31.4993 28.796 31.641 28.7945 31.7892C28.793 31.9374 28.8502 32.0802 28.9528 32.1868ZM18.7659 22.2853C18.7659 21.9558 18.6352 21.6393 18.402 21.4059C18.1687 21.1729 17.8523 21.042 17.5224 21.0419H16.6184C16.2885 21.0419 15.9721 21.173 15.7388 21.4059C15.5056 21.6393 15.3748 21.9556 15.3748 22.2853V23.1897C15.3748 23.5192 15.5056 23.8358 15.7388 24.0692C15.9721 24.302 16.2885 24.4332 16.6184 24.4332H17.5224C17.8523 24.4332 18.1687 24.302 18.402 24.0692C18.6352 23.8358 18.7659 23.5192 18.7659 23.1897V22.2853ZM17.6353 22.2853V23.1897C17.6353 23.2046 17.6331 23.2192 17.6272 23.2329C17.6212 23.2466 17.613 23.259 17.6026 23.2694C17.5922 23.2799 17.5796 23.2883 17.5655 23.2941C17.5521 23.2998 17.5373 23.3028 17.5224 23.3028H16.6184C16.6035 23.3028 16.5887 23.2998 16.5753 23.2941C16.5612 23.2883 16.5493 23.2799 16.5389 23.2694C16.5277 23.259 16.5196 23.2466 16.5136 23.2329C16.5084 23.2192 16.5055 23.2046 16.5055 23.1897V22.2853C16.5055 22.2554 16.5173 22.2266 16.5389 22.2056C16.5493 22.1951 16.5612 22.1866 16.5753 22.1809C16.5887 22.1752 16.6035 22.1723 16.6184 22.1723H17.5224C17.5529 22.1723 17.5811 22.1842 17.6026 22.2056C17.613 22.216 17.6212 22.2284 17.6272 22.2421C17.6331 22.2558 17.6353 22.2705 17.6353 22.2853ZM18.7659 26.807C18.7659 26.4776 18.6352 26.161 18.402 25.9276C18.1687 25.6947 17.8523 25.5638 17.5224 25.5636H16.6184C16.2885 25.5636 15.9721 25.6948 15.7388 25.9276C15.5056 26.161 15.3748 26.4773 15.3748 26.807V27.7114C15.3748 28.0409 15.5056 28.3575 15.7388 28.5909C15.9721 28.8237 16.2885 28.9549 16.6184 28.9549H17.5224C17.8523 28.9549 18.1687 28.8237 18.402 28.5909C18.6352 28.3575 18.7659 28.0409 18.7659 27.7114V26.807ZM17.6353 26.807V27.7114C17.6353 27.7262 17.6331 27.741 17.6272 27.7546C17.6212 27.7683 17.613 27.7807 17.6026 27.7911C17.5922 27.8017 17.5796 27.8101 17.5655 27.8158C17.5521 27.8216 17.5373 27.8245 17.5224 27.8245H16.6184C16.6035 27.8245 16.5887 27.8216 16.5753 27.8158C16.5612 27.8101 16.5493 27.8017 16.5389 27.7911C16.5277 27.7807 16.5196 27.7683 16.5136 27.7546C16.5084 27.741 16.5055 27.7262 16.5055 27.7114V26.807C16.5055 26.7771 16.5173 26.7483 16.5389 26.7274C16.5493 26.7168 16.5612 26.7084 16.5753 26.7027C16.5887 26.6969 16.6035 26.694 16.6184 26.694H17.5224C17.5529 26.694 17.5811 26.7059 17.6026 26.7274C17.613 26.7378 17.6212 26.7501 17.6272 26.7639C17.6331 26.7775 17.6353 26.7923 17.6353 26.807ZM18.7659 31.3288C18.7659 30.9993 18.6352 30.6827 18.402 30.4493C18.1687 30.2165 17.8523 30.0856 17.5224 30.0853H16.6184C16.2885 30.0853 15.9721 30.2165 15.7388 30.4493C15.5056 30.6828 15.3748 30.9991 15.3748 31.3288V32.2332C15.3748 32.5627 15.5056 32.8792 15.7388 33.1126C15.9721 33.3455 16.2885 33.4766 16.6184 33.4766H17.5224C17.8523 33.4766 18.1687 33.3455 18.402 33.1126C18.6352 32.8792 18.7659 32.5627 18.7659 32.2332V31.3288ZM17.6353 31.3288V32.2332C17.6353 32.248 17.6331 32.2627 17.6272 32.2764C17.6212 32.2901 17.613 32.3025 17.6026 32.3129C17.5922 32.3234 17.5796 32.3318 17.5655 32.3376C17.5521 32.3433 17.5373 32.3462 17.5224 32.3462H16.6184C16.6035 32.3462 16.5887 32.3433 16.5753 32.3376C16.5612 32.3318 16.5493 32.3234 16.5389 32.3129C16.5277 32.3025 16.5196 32.2901 16.5136 32.2764C16.5084 32.2627 16.5055 32.248 16.5055 32.2332V31.3288C16.5055 31.2989 16.5173 31.27 16.5389 31.2491C16.5493 31.2385 16.5612 31.2302 16.5753 31.2244C16.5887 31.2186 16.6035 31.2157 16.6184 31.2157H17.5224C17.5529 31.2157 17.5811 31.2276 17.6026 31.2491C17.613 31.2595 17.6212 31.2719 17.6272 31.2856C17.6331 31.2993 17.6353 31.3139 17.6353 31.3288ZM23.2877 22.2853C23.2877 21.9558 23.157 21.6393 22.9238 21.4059C22.6905 21.1729 22.374 21.042 22.0442 21.0419H21.1402C20.8103 21.0419 20.4939 21.173 20.2606 21.4059C20.0273 21.6393 19.8966 21.9556 19.8966 22.2853V23.1897C19.8966 23.5192 20.0273 23.8358 20.2606 24.0692C20.4939 24.302 20.8103 24.4332 21.1402 24.4332H22.0442C22.374 24.4332 22.6905 24.302 22.9238 24.0692C23.157 23.8358 23.2877 23.5192 23.2877 23.1897V22.2853ZM22.1571 22.2853V23.1897C22.1571 23.2046 22.1541 23.2192 22.1489 23.2329C22.143 23.2466 22.1348 23.259 22.1244 23.2694C22.114 23.2799 22.1014 23.2883 22.0873 23.2941C22.0739 23.2998 22.0591 23.3028 22.0442 23.3028H21.1402C21.1253 23.3028 21.1104 23.2998 21.097 23.2941C21.0829 23.2883 21.0711 23.2799 21.0607 23.2694C21.0495 23.259 21.0414 23.2466 21.0354 23.2329C21.0302 23.2192 21.0272 23.2046 21.0272 23.1897V22.2853C21.0272 22.2554 21.0391 22.2266 21.0607 22.2056C21.0711 22.1951 21.0829 22.1866 21.097 22.1809C21.1104 22.1752 21.1253 22.1723 21.1402 22.1723H22.0442C22.0747 22.1723 22.1029 22.1842 22.1244 22.2056C22.1348 22.216 22.143 22.2284 22.1489 22.2421C22.1541 22.2558 22.1571 22.2705 22.1571 22.2853ZM23.2877 26.807C23.2877 26.4776 23.157 26.161 22.9238 25.9276C22.6905 25.6947 22.374 25.5638 22.0442 25.5636H21.1402C20.8103 25.5636 20.4939 25.6948 20.2606 25.9276C20.0273 26.161 19.8966 26.4773 19.8966 26.807V27.7114C19.8966 28.0409 20.0273 28.3575 20.2606 28.5909C20.4939 28.8237 20.8103 28.9549 21.1402 28.9549H22.0442C22.374 28.9549 22.6905 28.8237 22.9238 28.5909C23.157 28.3575 23.2877 28.0409 23.2877 27.7114V26.807ZM22.1571 26.807V27.7114C22.1571 27.7262 22.1541 27.741 22.1489 27.7546C22.143 27.7683 22.1348 27.7807 22.1244 27.7911C22.114 27.8017 22.1014 27.8101 22.0873 27.8158C22.0739 27.8216 22.0591 27.8245 22.0442 27.8245H21.1402C21.1253 27.8245 21.1104 27.8216 21.097 27.8158C21.0829 27.8101 21.0711 27.8017 21.0607 27.7911C21.0495 27.7807 21.0414 27.7683 21.0354 27.7546C21.0302 27.741 21.0272 27.7262 21.0272 27.7114V26.807C21.0272 26.7771 21.0391 26.7483 21.0607 26.7274C21.0711 26.7168 21.0829 26.7084 21.097 26.7027C21.1104 26.6969 21.1253 26.694 21.1402 26.694H22.0442C22.0747 26.694 22.1029 26.7059 22.1244 26.7274C22.1348 26.7378 22.143 26.7501 22.1489 26.7639C22.1541 26.7775 22.1571 26.7923 22.1571 26.807ZM23.2877 31.3288C23.2877 30.9993 23.157 30.6827 22.9238 30.4493C22.6905 30.2165 22.374 30.0856 22.0442 30.0853H21.1402C20.8103 30.0853 20.4939 30.2165 20.2606 30.4493C20.0273 30.6828 19.8966 30.9991 19.8966 31.3288V32.2332C19.8966 32.5627 20.0273 32.8792 20.2606 33.1126C20.4939 33.3455 20.8103 33.4766 21.1402 33.4766H22.0442C22.374 33.4766 22.6905 33.3455 22.9238 33.1126C23.157 32.8792 23.2877 32.5627 23.2877 32.2332V31.3288ZM22.1571 31.3288V32.2332C22.1571 32.248 22.1541 32.2627 22.1489 32.2764C22.143 32.2901 22.1348 32.3025 22.1244 32.3129C22.114 32.3234 22.1014 32.3318 22.0873 32.3376C22.0739 32.3433 22.0591 32.3462 22.0442 32.3462H21.1402C21.1253 32.3462 21.1104 32.3433 21.097 32.3376C21.0829 32.3318 21.0711 32.3234 21.0607 32.3129C21.0495 32.3025 21.0414 32.2901 21.0354 32.2764C21.0302 32.2627 21.0272 32.248 21.0272 32.2332V31.3288C21.0272 31.2989 21.0391 31.27 21.0607 31.2491C21.0711 31.2385 21.0829 31.2302 21.097 31.2244C21.1104 31.2186 21.1253 31.2157 21.1402 31.2157H22.0442C22.0747 31.2157 22.1029 31.2276 22.1244 31.2491C22.1348 31.2595 22.143 31.2719 22.1489 31.2856C22.1541 31.2993 22.1571 31.3139 22.1571 31.3288ZM27.8095 22.2853C27.8095 21.9558 27.6788 21.6393 27.4455 21.4059C27.2123 21.1729 26.8958 21.042 26.5659 21.0419H25.6619C25.3321 21.0419 25.0156 21.173 24.7823 21.4059C24.5491 21.6393 24.4184 21.9556 24.4184 22.2853V23.1897C24.4184 23.5192 24.5491 23.8358 24.7823 24.0692C25.0156 24.302 25.3321 24.4332 25.6619 24.4332H26.5659C26.8958 24.4332 27.2123 24.302 27.4455 24.0692C27.6788 23.8358 27.8095 23.5192 27.8095 23.1897V22.2853ZM26.6789 22.2853V23.1897C26.6789 23.2046 26.6759 23.2192 26.6707 23.2329C26.6648 23.2466 26.6566 23.259 26.6455 23.2694C26.6351 23.2799 26.6232 23.2883 26.6091 23.2941C26.5957 23.2998 26.5808 23.3028 26.5659 23.3028H25.6619C25.647 23.3028 25.6322 23.2998 25.6188 23.2941C25.6047 23.2883 25.5921 23.2799 25.5824 23.2694C25.5713 23.259 25.5631 23.2466 25.5572 23.2329C25.552 23.2192 25.549 23.2046 25.549 23.1897V22.2853C25.549 22.2554 25.5609 22.2266 25.5824 22.2056C25.5921 22.1951 25.6047 22.1866 25.6188 22.1809C25.6322 22.1752 25.647 22.1723 25.6619 22.1723H26.5659C26.5964 22.1723 26.6247 22.1842 26.6455 22.2056C26.6566 22.216 26.6648 22.2284 26.6707 22.2421C26.6759 22.2558 26.6789 22.2705 26.6789 22.2853ZM32.3313 22.2853C32.3313 21.9558 32.2006 21.6393 31.9673 21.4059C31.734 21.1729 31.4176 21.042 31.0877 21.0419H30.1837C29.8539 21.0419 29.5374 21.173 29.3041 21.4059C29.0709 21.6393 28.9402 21.9556 28.9402 22.2853V23.1897C28.9402 23.5192 29.0709 23.8358 29.3041 24.0692C29.5374 24.302 29.8539 24.4332 30.1837 24.4332H31.0877C31.4176 24.4332 31.734 24.302 31.9673 24.0692C32.2006 23.8358 32.3313 23.5192 32.3313 23.1897V22.2853ZM31.2006 22.2853V23.1897C31.2006 23.2046 31.1977 23.2192 31.1925 23.2329C31.1865 23.2466 31.1784 23.259 31.1672 23.2694C31.1568 23.2799 31.1449 23.2883 31.1308 23.2941C31.1174 23.2998 31.1026 23.3028 31.0877 23.3028H30.1837C30.1688 23.3028 30.154 23.2998 30.1406 23.2941C30.1265 23.2883 30.1139 23.2799 30.1035 23.2694C30.0931 23.259 30.0849 23.2466 30.0789 23.2329C30.073 23.2192 30.0708 23.2046 30.0708 23.1897V22.2853C30.0708 22.2554 30.0827 22.2266 30.1035 22.2056C30.1139 22.1951 30.1265 22.1866 30.1406 22.1809C30.154 22.1752 30.1688 22.1723 30.1837 22.1723H31.0877C31.1175 22.1723 31.1464 22.1842 31.1672 22.2056C31.1784 22.216 31.1865 22.2284 31.1925 22.2421C31.1977 22.2558 31.2006 22.2705 31.2006 22.2853Z" fill="#24BAF2"/>
<path fill-rule="evenodd" clip-rule="evenodd" d="M26.9879 35.7391H14.8258C14.0763 35.739 13.358 35.4414 12.8276 34.9116C12.2979 34.3814 12 33.6626 12 32.9131V17.0869C12 16.3375 12.2979 15.6186 12.8276 15.0886C13.358 14.5586 14.0763 14.2609 14.8258 14.2609H16.5218V13.6956C16.5218 13.2459 16.7 12.8146 17.0187 12.4967C17.3367 12.1787 17.7675 12 18.2177 12C18.6671 12 19.0987 12.1787 19.4167 12.4967C19.7346 12.8146 19.9129 13.2459 19.9129 13.6956V14.2609H27.8258V13.6956C27.8258 13.2459 28.0049 12.8146 28.3228 12.4967C28.6408 12.1787 29.0723 12 29.5218 12C29.9712 12 30.4028 12.1787 30.7207 12.4967C31.0387 12.8146 31.2177 13.2459 31.2177 13.6956V14.2609H32.9129C33.6624 14.2609 34.3815 14.5586 34.9112 15.0886C35.4416 15.6186 35.7395 16.3375 35.7395 17.0869V26.9879C37.1197 28.1291 38 29.8535 38 31.7826C38 35.2141 35.2143 38 31.7823 38C30.8663 38.0007 29.9608 37.7982 29.1318 37.4073C28.3028 37.0164 27.5703 36.4467 26.9879 35.7391ZM31.7823 26.6956C34.5903 26.6956 36.8694 28.9752 36.8694 31.7826C36.8694 34.5901 34.5903 36.8696 31.7823 36.8696C28.975 36.8696 26.696 34.5901 26.696 31.7826C26.696 28.9752 28.975 26.6956 31.7823 26.6956ZM34.6089 26.2441V19.9131H13.1306V32.9131C13.1306 33.3629 13.3089 33.7942 13.6276 34.1119C13.7843 34.2694 13.9716 34.3944 14.1773 34.4797C14.3831 34.565 14.6037 34.6088 14.8258 34.6087H26.2443C25.8097 33.7609 25.5653 32.8 25.5653 31.7826C25.5653 28.3512 28.351 25.5652 31.7823 25.5652C32.8 25.5652 33.7605 25.8099 34.6089 26.2441ZM31.2177 15.3913V15.9565C31.2177 16.4063 31.0387 16.8376 30.7207 17.1555C30.4028 17.4735 29.9712 17.6522 29.5218 17.6522C29.0723 17.6522 28.6408 17.4735 28.3228 17.1555C28.0049 16.8376 27.8258 16.4063 27.8258 15.9565V15.3913H19.9129V15.9565C19.9129 16.4063 19.7346 16.8376 19.4167 17.1555C19.0987 17.4735 18.6671 17.6522 18.2177 17.6522C17.7675 17.6522 17.3367 17.4735 17.0187 17.1555C16.7 16.8376 16.5218 16.4063 16.5218 15.9565V15.3913H14.8258C14.3764 15.3913 13.9448 15.5699 13.6269 15.888C13.3089 16.206 13.1306 16.6372 13.1306 17.0869V18.7826H34.6089V17.0869C34.6089 16.6372 34.4298 16.206 34.1119 15.888C33.7939 15.5699 33.3631 15.3913 32.9129 15.3913H31.2177ZM30.0871 13.6956V15.9565C30.0871 16.1064 30.0277 16.2502 29.9214 16.3562C29.8152 16.4622 29.6718 16.5218 29.5218 16.5218C29.3717 16.5218 29.2284 16.4622 29.1221 16.3562C29.0159 16.2502 28.9564 16.1064 28.9564 15.9565V13.6956C28.9564 13.5457 29.0159 13.402 29.1221 13.296C29.2284 13.19 29.3717 13.1304 29.5218 13.1304C29.6718 13.1304 29.8152 13.19 29.9214 13.296C30.0277 13.402 30.0871 13.5457 30.0871 13.6956ZM18.7823 13.6956V15.9565C18.7823 16.1064 18.7229 16.2502 18.6174 16.3562C18.5112 16.4622 18.367 16.5218 18.2177 16.5218C18.0677 16.5218 17.9235 16.4622 17.818 16.3562C17.7118 16.2502 17.6524 16.1064 17.6524 15.9565V13.6956C17.6524 13.5457 17.7118 13.402 17.818 13.296C17.9235 13.19 18.0677 13.1304 18.2177 13.1304C18.367 13.1304 18.5112 13.19 18.6174 13.296C18.7229 13.402 18.7823 13.5457 18.7823 13.6956Z" fill="#20336B"/>
</g>
<defs>
<clipPath id="clip0_2191_265">
<rect width="48" height="48" fill="white"/>
</clipPath>
</defs>
</svg>
