<svg width="109" height="34" viewBox="0 0 109 34" fill="none" xmlns="http://www.w3.org/2000/svg">
<g clip-path="url(#clip0_244_44)">
<path d="M102.403 1.14937H7.00311C3.77224 1.14937 1.15311 3.55614 1.15311 6.52504V28.0277C1.15311 30.9966 3.77224 33.4034 7.00311 33.4034H102.403C105.634 33.4034 108.253 30.9966 108.253 28.0277V6.52504C108.253 3.55614 105.634 1.14937 102.403 1.14937Z" fill="white"/>
<path d="M102.403 1.14937H7.00311C3.77224 1.14937 1.15311 3.55614 1.15311 6.52504V28.0277C1.15311 30.9966 3.77224 33.4034 7.00311 33.4034H102.403C105.634 33.4034 108.253 30.9966 108.253 28.0277V6.52504C108.253 3.55614 105.634 1.14937 102.403 1.14937Z" stroke="black" stroke-width="0.9"/>
<path d="M22.9934 17.5245C23.0129 16.1343 23.8253 14.8188 25.1143 14.0906C24.3011 13.0235 22.9392 12.3469 21.5222 12.3062C20.0109 12.1604 18.5458 13.1371 17.7756 13.1371C16.9906 13.1371 15.8048 12.3206 14.528 12.3448C12.8636 12.3942 11.3121 13.2637 10.5023 14.6008C8.76174 17.37 10.0601 21.4398 11.7274 23.6783C12.5616 24.7744 13.5366 25.9988 14.8123 25.9553C16.0606 25.9078 16.5269 25.2239 18.0337 25.2239C19.5266 25.2239 19.9641 25.9553 21.2656 25.9278C22.6052 25.9078 23.4492 24.8268 24.2541 23.7203C24.8535 22.9392 25.3147 22.0761 25.6207 21.1627C24.0465 20.5509 22.9952 19.0951 22.9934 17.5245Z" fill="black"/>
<path d="M20.5349 10.8341C21.2652 10.0283 21.6251 8.99277 21.5379 7.94721C20.4221 8.05491 19.3914 8.54497 18.6511 9.31976C17.9273 10.0768 17.5506 11.0941 17.6218 12.0997C18.738 12.1102 19.8354 11.6335 20.5349 10.8341Z" fill="black"/>
<path d="M74.0771 16.6151V18.5098H72.7847V19.7523H74.0771V23.9743C74.0771 25.416 74.7868 25.9926 76.5723 25.9926C76.8861 25.9926 77.1849 25.9583 77.4464 25.9171V24.6883C77.2223 24.7089 77.0803 24.7226 76.8338 24.7226C76.0344 24.7226 75.6833 24.3794 75.6833 23.5967V19.7523H77.4464V18.5098H75.6833V16.6151H74.0771Z" fill="black"/>
<path d="M81.9949 26.0956C84.3706 26.0956 85.8273 24.6334 85.8273 22.21C85.8273 19.8004 84.3631 18.3313 81.9949 18.3313C79.6192 18.3313 78.1549 19.8004 78.1549 22.21C78.1549 24.6334 79.6117 26.0956 81.9949 26.0956ZM81.9949 24.7844C80.5979 24.7844 79.8134 23.8439 79.8134 22.21C79.8134 20.5899 80.5979 19.6425 81.9949 19.6425C83.3844 19.6425 84.1763 20.5899 84.1763 22.21C84.1763 23.837 83.3844 24.7844 81.9949 24.7844Z" fill="black"/>
<path d="M87.0738 25.9515H88.68V21.5373C88.68 20.4869 89.5391 19.7798 90.7568 19.7798C91.0407 19.7798 91.5188 19.8279 91.6533 19.869V18.4137C91.4815 18.3725 91.1752 18.3519 90.9361 18.3519C89.8753 18.3519 88.9713 18.8874 88.7397 19.622H88.6202V18.4755H87.0738V25.9515Z" fill="black"/>
<path d="M95.6415 19.5876C96.8293 19.5876 97.6062 20.3496 97.6436 21.5236H93.5347C93.6244 20.3564 94.4536 19.5876 95.6415 19.5876ZM97.6361 23.9332C97.3373 24.5167 96.6724 24.8393 95.7012 24.8393C94.4163 24.8393 93.587 24.0087 93.5347 22.6975V22.6151H99.2797V22.1002C99.2797 19.7523 97.9126 18.3313 95.6489 18.3313C93.3554 18.3313 91.8986 19.8485 91.8986 22.2375C91.8986 24.6265 93.3255 26.0956 95.6564 26.0956C97.5166 26.0956 98.8165 25.2718 99.1826 23.9332H97.6361Z" fill="black"/>
<path d="M63.5439 23.1907C63.6678 25.0265 65.3326 26.2005 67.8104 26.2005C70.4585 26.2005 72.1156 24.9695 72.1156 23.0057C72.1156 21.4616 71.1709 20.6079 68.8789 20.1169L67.6478 19.8394C66.1921 19.5263 65.6036 19.1064 65.6036 18.3736C65.6036 17.4486 66.5173 16.8438 67.8878 16.8438C69.1887 16.8438 70.0869 17.4344 70.2495 18.3807H71.9375C71.8368 16.6517 70.1798 15.435 67.911 15.435C65.4719 15.435 63.8459 16.6517 63.8459 18.4803C63.8459 19.9888 64.7673 20.8853 66.7883 21.3194L68.2285 21.6395C69.7075 21.9598 70.3579 22.4293 70.3579 23.2121C70.3579 24.1228 69.3358 24.7845 67.942 24.7845C66.4476 24.7845 65.41 24.1655 65.2629 23.1907H63.5439Z" fill="black"/>
<path d="M46.9053 18.3519C45.7996 18.3519 44.8434 18.8599 44.3503 19.7112H44.2308V18.4755H42.6843V28.4366H44.2905V24.8187H44.4175C44.8434 25.6082 45.7623 26.075 46.9202 26.075C48.9747 26.075 50.2821 24.5853 50.2821 22.21C50.2821 19.8348 48.9747 18.3519 46.9053 18.3519ZM46.4496 24.7501C45.1049 24.7501 44.2607 23.7753 44.2607 22.2169C44.2607 20.6517 45.1049 19.6768 46.4571 19.6768C47.8167 19.6768 48.631 20.6311 48.631 22.21C48.631 23.7959 47.8167 24.7501 46.4496 24.7501Z" fill="black"/>
<path d="M55.9024 18.3519C54.7967 18.3519 53.8405 18.8599 53.3474 19.7112H53.2279V18.4755H51.6815V28.4366H53.2877V24.8187H53.4147C53.8405 25.6082 54.7594 26.075 55.9174 26.075C57.9718 26.075 59.2792 24.5853 59.2792 22.21C59.2792 19.8348 57.9718 18.3519 55.9024 18.3519ZM55.4467 24.7501C54.102 24.7501 53.2578 23.7753 53.2578 22.2169C53.2578 20.6517 54.102 19.6768 55.4542 19.6768C56.8138 19.6768 57.6281 20.6311 57.6281 22.21C57.6281 23.7959 56.8138 24.7501 55.4467 24.7501Z" fill="black"/>
<path d="M39.8025 25.9515H41.6454L37.6112 15.684H35.7451L31.7109 25.9515H33.4919L34.5217 23.2262H38.7804L39.8025 25.9515ZM36.5891 17.5482H36.7208L38.3391 21.8886H34.9631L36.5891 17.5482Z" fill="black"/>
<path d="M32.7891 7.93965V12.8927H34.7352C36.3414 12.8927 37.2715 11.9832 37.2715 10.4008C37.2715 8.8424 36.3339 7.93965 34.7352 7.93965H32.7891ZM33.6258 8.63988H34.6418C35.7587 8.63988 36.4198 9.29202 36.4198 10.4111C36.4198 11.5472 35.7699 12.1925 34.6418 12.1925H33.6258V8.63988Z" fill="black"/>
<path d="M40.1201 12.9648C41.3079 12.9648 42.0363 12.2337 42.0363 11.0221C42.0363 9.81718 41.3042 9.08266 40.1201 9.08266C38.9322 9.08266 38.2001 9.81718 38.2001 11.0221C38.2001 12.2337 38.9285 12.9648 40.1201 12.9648ZM40.1201 12.3092C39.4216 12.3092 39.0293 11.839 39.0293 11.0221C39.0293 10.2119 39.4216 9.73824 40.1201 9.73824C40.8148 9.73824 41.2108 10.2119 41.2108 11.0221C41.2108 11.8355 40.8148 12.3092 40.1201 12.3092Z" fill="black"/>
<path d="M48.2392 9.15475H47.4361L46.7115 12.0071H46.648L45.8112 9.15475H45.0418L44.205 12.0071H44.1453L43.4169 9.15475H42.6026L43.7232 12.8927H44.5487L45.3854 10.1399H45.4489L46.2894 12.8927H47.1224L48.2392 9.15475Z" fill="black"/>
<path d="M49.1641 12.8927H49.9672V10.7062C49.9672 10.1227 50.3445 9.75882 50.9384 9.75882C51.5323 9.75882 51.8162 10.0575 51.8162 10.6582V12.8927H52.6193V10.4728C52.6193 9.58377 52.1188 9.08266 51.2111 9.08266C50.5985 9.08266 50.1951 9.33327 49.9971 9.74853H49.9373V9.15474H49.1641V12.8927Z" fill="black"/>
<path d="M53.8841 12.8927H54.6872V7.69595H53.8841V12.8927Z" fill="black"/>
<path d="M57.7076 12.9648C58.8954 12.9648 59.6238 12.2337 59.6238 11.0221C59.6238 9.81718 58.8917 9.08266 57.7076 9.08266C56.5198 9.08266 55.7876 9.81718 55.7876 11.0221C55.7876 12.2337 56.516 12.9648 57.7076 12.9648ZM57.7076 12.3092C57.0091 12.3092 56.6169 11.839 56.6169 11.0221C56.6169 10.2119 57.0091 9.73824 57.7076 9.73824C58.4024 9.73824 58.7983 10.2119 58.7983 11.0221C58.7983 11.8355 58.4024 12.3092 57.7076 12.3092Z" fill="black"/>
<path d="M62.0167 12.3333C61.5797 12.3333 61.2622 12.1375 61.2622 11.8012C61.2622 11.4717 61.5162 11.2966 62.0765 11.2623L63.0701 11.2039V11.5163C63.0701 11.9797 62.6218 12.3333 62.0167 12.3333ZM61.8112 12.9545C62.3454 12.9545 62.7899 12.7417 63.0327 12.3675H63.0962V12.8927H63.8694V10.3389C63.8694 9.54949 63.2942 9.08266 62.2744 9.08266C61.3518 9.08266 60.6944 9.49454 60.6122 10.1364H61.3892C61.4788 9.87213 61.7888 9.72115 62.2371 9.72115C62.7862 9.72115 63.0701 9.94426 63.0701 10.3389V10.6616L61.9681 10.7199C61.0007 10.7749 60.4553 11.1627 60.4553 11.8355C60.4553 12.5186 61.0268 12.9545 61.8112 12.9545Z" fill="black"/>
<path d="M66.5947 12.9546C67.155 12.9546 67.6294 12.7108 67.8722 12.3023H67.9357V12.8927H68.7052V7.69595H67.9021V9.74853H67.8423C67.622 9.33668 67.1513 9.09297 66.5947 9.09297C65.5675 9.09297 64.9064 9.84125 64.9064 11.0221C64.9064 12.2063 65.56 12.9546 66.5947 12.9546ZM66.8226 9.75543C67.495 9.75543 67.9171 10.2463 67.9171 11.0255C67.9171 11.8081 67.4987 12.292 66.8226 12.292C66.1428 12.292 65.7356 11.8149 65.7356 11.0221C65.7356 10.236 66.1465 9.75543 66.8226 9.75543Z" fill="black"/>
<path d="M73.913 12.9648C75.1009 12.9648 75.8293 12.2337 75.8293 11.0221C75.8293 9.81718 75.0971 9.08266 73.913 9.08266C72.7252 9.08266 71.9931 9.81718 71.9931 11.0221C71.9931 12.2337 72.7215 12.9648 73.913 12.9648ZM73.913 12.3092C73.2145 12.3092 72.8223 11.839 72.8223 11.0221C72.8223 10.2119 73.2145 9.73824 73.913 9.73824C74.6078 9.73824 75.0038 10.2119 75.0038 11.0221C75.0038 11.8355 74.6078 12.3092 73.913 12.3092Z" fill="black"/>
<path d="M76.8924 12.8927H77.6955V10.7062C77.6955 10.1227 78.0727 9.75882 78.6667 9.75882C79.2606 9.75882 79.5445 10.0575 79.5445 10.6582V12.8927H80.3476V10.4728C80.3476 9.58377 79.847 9.08266 78.9393 9.08266C78.3267 9.08266 77.9233 9.33327 77.7253 9.74853H77.6656V9.15474H76.8924V12.8927Z" fill="black"/>
<path d="M84.0463 8.22455V9.17192H83.4001V9.7932H84.0463V11.9041C84.0463 12.625 84.4012 12.9133 85.2939 12.9133C85.4508 12.9133 85.6002 12.8962 85.7309 12.8755V12.2611C85.6189 12.2714 85.5479 12.2783 85.4246 12.2783C85.025 12.2783 84.8494 12.1067 84.8494 11.7154V9.7932H85.7309V9.17192H84.8494V8.22455H84.0463Z" fill="black"/>
<path d="M86.809 12.8927H87.6121V10.7096C87.6121 10.1433 87.9781 9.76232 88.6356 9.76232C89.2033 9.76232 89.5059 10.0644 89.5059 10.6616V12.8927H90.309V10.4797C90.309 9.59066 89.7748 9.0861 88.9082 9.0861C88.2956 9.0861 87.8661 9.33668 87.6681 9.75543H87.6046V7.69595H86.809V12.8927Z" fill="black"/>
<path d="M93.2061 9.71086C93.8001 9.71086 94.1885 10.0918 94.2072 10.6788H92.1528C92.1976 10.0952 92.6122 9.71086 93.2061 9.71086ZM94.2035 11.8835C94.0541 12.1753 93.7216 12.3367 93.236 12.3367C92.5935 12.3367 92.1789 11.9213 92.1528 11.2658V11.2245H95.0252V10.9671C95.0252 9.79319 94.3417 9.08266 93.2099 9.08266C92.0631 9.08266 91.3347 9.84125 91.3347 11.0358C91.3347 12.2303 92.0482 12.9648 93.2136 12.9648C94.1437 12.9648 94.7937 12.5529 94.9767 11.8835H94.2035Z" fill="black"/>
</g>
<defs>
<clipPath id="clip0_244_44">
<rect width="109" height="34" fill="white"/>
</clipPath>
</defs>
</svg>
