<svg width="109" height="36" viewBox="0 0 109 36" fill="none" xmlns="http://www.w3.org/2000/svg">
<rect x="0.95" y="0.45" width="107.1" height="35.1" rx="5.85" fill="black"/>
<rect x="0.95" y="0.45" width="107.1" height="35.1" rx="5.85" stroke="#A6A6A6" stroke-width="0.9"/>
<path d="M22.7902 18.27C22.8097 16.7571 23.6222 15.3255 24.9111 14.5331C24.098 13.3718 22.7361 12.6355 21.3191 12.5912C19.8078 12.4326 18.3426 13.4956 17.5725 13.4956C16.7874 13.4956 15.6017 12.607 14.3248 12.6332C12.6605 12.687 11.1089 13.6333 10.2992 15.0883C8.55861 18.1019 9.85694 22.5308 11.5243 24.9668C12.3585 26.1596 13.3335 27.492 14.6092 27.4448C15.8575 27.393 16.3237 26.6487 17.8306 26.6487C19.3235 26.6487 19.7609 27.4448 21.0625 27.4147C22.4021 27.393 23.246 26.2166 24.051 25.0125C24.6504 24.1626 25.1116 23.2232 25.4176 22.2292C23.8433 21.5634 22.7921 19.9792 22.7902 18.27Z" fill="white"/>
<path d="M20.3317 10.9892C21.0621 10.1124 21.4219 8.98547 21.3348 7.84766C20.219 7.96485 19.1882 8.49816 18.448 9.34131C17.7241 10.1651 17.3474 11.2722 17.4186 12.3666C18.5349 12.378 19.6323 11.8592 20.3317 10.9892Z" fill="white"/>
<path d="M73.874 17.2803V19.3422H72.5816V20.6944H73.874V25.2889C73.874 26.8578 74.5837 27.4853 76.3692 27.4853C76.683 27.4853 76.9818 27.448 77.2433 27.4031V26.0659C77.0192 26.0883 76.8772 26.1032 76.6307 26.1032C75.8313 26.1032 75.4802 25.7297 75.4802 24.878V20.6944H77.2433V19.3422H75.4802V17.2803H73.874Z" fill="white"/>
<path d="M81.7917 27.5974C84.1674 27.5974 85.6242 26.0061 85.6242 23.369C85.6242 20.7467 84.16 19.148 81.7917 19.148C79.4161 19.148 77.9518 20.7467 77.9518 23.369C77.9518 26.0061 79.4086 27.5974 81.7917 27.5974ZM81.7917 26.1705C80.3947 26.1705 79.6103 25.147 79.6103 23.369C79.6103 21.6059 80.3947 20.5749 81.7917 20.5749C83.1813 20.5749 83.9732 21.6059 83.9732 23.369C83.9732 25.1395 83.1813 26.1705 81.7917 26.1705Z" fill="white"/>
<path d="M86.8706 27.4405H88.4768V22.6368C88.4768 21.4938 89.336 20.7243 90.5537 20.7243C90.8376 20.7243 91.3157 20.7766 91.4502 20.8214V19.2377C91.2783 19.1928 90.972 19.1704 90.733 19.1704C89.6721 19.1704 88.7682 19.7531 88.5366 20.5525H88.4171V19.3049H86.8706V27.4405Z" fill="white"/>
<path d="M95.4383 20.5151C96.6262 20.5151 97.4031 21.3444 97.4405 22.6219H93.3316C93.4212 21.3519 94.2505 20.5151 95.4383 20.5151ZM97.433 25.2441C97.1342 25.8791 96.4693 26.2302 95.4981 26.2302C94.2131 26.2302 93.3839 25.3263 93.3316 23.8994V23.8097H99.0766V23.2494C99.0766 20.6944 97.7094 19.148 95.4458 19.148C93.1523 19.148 91.6955 20.799 91.6955 23.3988C91.6955 25.9986 93.1224 27.5974 95.4533 27.5974C97.3135 27.5974 98.6134 26.7009 98.9794 25.2441H97.433Z" fill="white"/>
<path d="M63.3408 24.4361C63.4647 26.4339 65.1294 27.7115 67.6073 27.7115C70.2554 27.7115 71.9125 26.3719 71.9125 24.2348C71.9125 22.5546 70.9678 21.6254 68.6758 21.0911L67.4446 20.7891C65.9889 20.4484 65.4005 19.9916 65.4005 19.194C65.4005 18.1874 66.3141 17.5292 67.6847 17.5292C68.9855 17.5292 69.8837 18.1719 70.0463 19.2018H71.7344C71.6337 17.3202 69.9767 15.9961 67.7079 15.9961C65.2688 15.9961 63.6428 17.3202 63.6428 19.3102C63.6428 20.9517 64.5642 21.9274 66.5852 22.3997L68.0254 22.7481C69.5043 23.0966 70.1548 23.6076 70.1548 24.4594C70.1548 25.4505 69.1327 26.1706 67.7389 26.1706C66.2445 26.1706 65.2069 25.497 65.0597 24.4361H63.3408Z" fill="white"/>
<path d="M46.7022 19.1704C45.5965 19.1704 44.6403 19.7233 44.1472 20.6496H44.0277V19.3049H42.4812V30.1449H44.0874V26.2078H44.2144C44.6403 27.067 45.5592 27.575 46.7171 27.575C48.7716 27.575 50.0789 25.9538 50.0789 23.369C50.0789 20.7841 48.7716 19.1704 46.7022 19.1704ZM46.2465 26.1331C44.9017 26.1331 44.0575 25.0723 44.0575 23.3764C44.0575 21.6731 44.9017 20.6123 46.2539 20.6123C47.6136 20.6123 48.4279 21.6507 48.4279 23.369C48.4279 25.0947 47.6136 26.1331 46.2465 26.1331Z" fill="white"/>
<path d="M55.6993 19.1704C54.5936 19.1704 53.6374 19.7233 53.1443 20.6496H53.0248V19.3049H51.4783V30.1449H53.0845V26.2078H53.2115C53.6374 27.067 54.5563 27.575 55.7142 27.575C57.7687 27.575 59.076 25.9538 59.076 23.369C59.076 20.7841 57.7687 19.1704 55.6993 19.1704ZM55.2436 26.1331C53.8988 26.1331 53.0547 25.0723 53.0547 23.3764C53.0547 21.6731 53.8988 20.6123 55.251 20.6123C56.6107 20.6123 57.425 21.6507 57.425 23.369C57.425 25.0947 56.6107 26.1331 55.2436 26.1331Z" fill="white"/>
<path d="M39.5994 27.4405H41.4423L37.4081 16.2671H35.542L31.5078 27.4405H33.2887L34.3186 24.4749H38.5773L39.5994 27.4405ZM36.386 18.2958H36.5176L38.136 23.0191H34.7599L36.386 18.2958Z" fill="white"/>
<path d="M32.5859 7.83943V13.2295H34.5321C36.1383 13.2295 37.0684 12.2397 37.0684 10.5177C37.0684 8.82183 36.1308 7.83943 34.5321 7.83943H32.5859ZM33.4227 8.60144H34.4387C35.5555 8.60144 36.2167 9.31116 36.2167 10.5289C36.2167 11.7653 35.5667 12.4675 34.4387 12.4675H33.4227V8.60144Z" fill="white"/>
<path d="M39.9169 13.308C41.1048 13.308 41.8332 12.5124 41.8332 11.1938C41.8332 9.88267 41.101 9.0833 39.9169 9.0833C38.7291 9.0833 37.997 9.88267 37.997 11.1938C37.997 12.5124 38.7254 13.308 39.9169 13.308ZM39.9169 12.5945C39.2184 12.5945 38.8262 12.0828 38.8262 11.1938C38.8262 10.3122 39.2184 9.79675 39.9169 9.79675C40.6117 9.79675 41.0077 10.3122 41.0077 11.1938C41.0077 12.0791 40.6117 12.5945 39.9169 12.5945Z" fill="white"/>
<path d="M48.0361 9.16174H47.233L46.5083 12.2658H46.4448L45.6081 9.16174H44.8386L44.0019 12.2658H43.9422L43.2138 9.16174H42.3995L43.5201 13.2295H44.3456L45.1823 10.2338H45.2458L46.0862 13.2295H46.9192L48.0361 9.16174Z" fill="white"/>
<path d="M48.961 13.2295H49.7641V10.8501C49.7641 10.2151 50.1413 9.81916 50.7353 9.81916C51.3292 9.81916 51.6131 10.1441 51.6131 10.7978V13.2295H52.4162V10.5961C52.4162 9.62866 51.9156 9.0833 51.0079 9.0833C50.3953 9.0833 49.9919 9.35598 49.794 9.80796H49.7342V9.16174H48.961V13.2295Z" fill="white"/>
<path d="M53.681 13.2295H54.4841V7.57422H53.681V13.2295Z" fill="white"/>
<path d="M57.5045 13.308C58.6923 13.308 59.4207 12.5124 59.4207 11.1938C59.4207 9.88267 58.6886 9.0833 57.5045 9.0833C56.3166 9.0833 55.5845 9.88267 55.5845 11.1938C55.5845 12.5124 56.3129 13.308 57.5045 13.308ZM57.5045 12.5945C56.806 12.5945 56.4137 12.0828 56.4137 11.1938C56.4137 10.3122 56.806 9.79675 57.5045 9.79675C58.1992 9.79675 58.5952 10.3122 58.5952 11.1938C58.5952 12.0791 58.1992 12.5945 57.5045 12.5945Z" fill="white"/>
<path d="M61.8136 12.6207C61.3765 12.6207 61.059 12.4078 61.059 12.0417C61.059 11.6831 61.313 11.4926 61.8733 11.4552L62.8669 11.3917V11.7317C62.8669 12.2359 62.4187 12.6207 61.8136 12.6207ZM61.6081 13.2968C62.1423 13.2968 62.5868 13.0652 62.8296 12.658H62.8931V13.2295H63.6663V10.4504C63.6663 9.59131 63.0911 9.0833 62.0713 9.0833C61.1487 9.0833 60.4913 9.53154 60.4091 10.2301H61.186C61.2757 9.94243 61.5857 9.77808 62.034 9.77808C62.583 9.77808 62.8669 10.0209 62.8669 10.4504V10.8016L61.765 10.8651C60.7976 10.9248 60.2522 11.3469 60.2522 12.0791C60.2522 12.8224 60.8237 13.2968 61.6081 13.2968Z" fill="white"/>
<path d="M66.3916 13.2968C66.9519 13.2968 67.4263 13.0316 67.6691 12.5871H67.7326V13.2295H68.5021V7.57422H67.699V9.80796H67.6392C67.4188 9.35972 66.9482 9.09451 66.3916 9.09451C65.3644 9.09451 64.7032 9.90881 64.7032 11.1938C64.7032 12.4825 65.3569 13.2968 66.3916 13.2968ZM66.6195 9.81543C67.2918 9.81543 67.7139 10.3496 67.7139 11.1975C67.7139 12.0492 67.2956 12.5759 66.6195 12.5759C65.9396 12.5759 65.5325 12.0566 65.5325 11.1938C65.5325 10.3384 65.9434 9.81543 66.6195 9.81543Z" fill="white"/>
<path d="M73.7099 13.308C74.8978 13.308 75.6262 12.5124 75.6262 11.1938C75.6262 9.88267 74.894 9.0833 73.7099 9.0833C72.5221 9.0833 71.7899 9.88267 71.7899 11.1938C71.7899 12.5124 72.5183 13.308 73.7099 13.308ZM73.7099 12.5945C73.0114 12.5945 72.6192 12.0828 72.6192 11.1938C72.6192 10.3122 73.0114 9.79675 73.7099 9.79675C74.4047 9.79675 74.8006 10.3122 74.8006 11.1938C74.8006 12.0791 74.4047 12.5945 73.7099 12.5945Z" fill="white"/>
<path d="M76.6892 13.2295H77.4923V10.8501C77.4923 10.2151 77.8696 9.81916 78.4635 9.81916C79.0574 9.81916 79.3413 10.1441 79.3413 10.7978V13.2295H80.1444V10.5961C80.1444 9.62866 79.6439 9.0833 78.7362 9.0833C78.1236 9.0833 77.7202 9.35598 77.5222 9.80796H77.4625V9.16174H76.6892V13.2295Z" fill="white"/>
<path d="M83.8432 8.14946V9.18042H83.197V9.85652H83.8432V12.1538C83.8432 12.9382 84.198 13.252 85.0908 13.252C85.2477 13.252 85.3971 13.2333 85.5278 13.2109V12.5422C85.4158 12.5534 85.3448 12.5609 85.2215 12.5609C84.8218 12.5609 84.6463 12.3741 84.6463 11.9483V9.85652H85.5278V9.18042H84.6463V8.14946H83.8432Z" fill="white"/>
<path d="M86.6058 13.2295H87.4089V10.8539C87.4089 10.2375 87.775 9.8229 88.4324 9.8229C89.0002 9.8229 89.3028 10.1516 89.3028 10.8016V13.2295H90.1059V10.6036C90.1059 9.63613 89.5717 9.08704 88.7051 9.08704C88.0925 9.08704 87.6629 9.35972 87.465 9.81543H87.4015V7.57422H86.6058V13.2295Z" fill="white"/>
<path d="M93.003 9.76687C93.5969 9.76687 93.9854 10.1815 94.0041 10.8202H91.9496C91.9945 10.1852 92.4091 9.76687 93.003 9.76687ZM94.0003 12.1313C93.8509 12.4489 93.5185 12.6244 93.0329 12.6244C92.3904 12.6244 91.9758 12.1724 91.9496 11.459V11.4142H94.8221V11.134C94.8221 9.85652 94.1386 9.0833 93.0067 9.0833C91.86 9.0833 91.1316 9.90881 91.1316 11.2087C91.1316 12.5086 91.845 13.308 93.0105 13.308C93.9406 13.308 94.5905 12.8597 94.7736 12.1313H94.0003Z" fill="white"/>
</svg>
