<svg width="30" height="31" viewBox="0 0 30 31" fill="none" xmlns="http://www.w3.org/2000/svg">
<path fill-rule="evenodd" clip-rule="evenodd" d="M21.2852 4.00059C21.2852 2.34341 22.6286 1 24.2858 1C25.9429 1 27.2863 2.34341 27.2863 4.00059C27.2863 5.65778 25.9429 7.00119 24.2858 7.00119C22.6286 7.00119 21.2852 5.65778 21.2852 4.00059Z" stroke="#FF5900" stroke-width="2"/>
<path d="M3.60547 17.0879V23.2407V29.0903H4.80719" stroke="#FF5900" stroke-width="2"/>
<path d="M27.1733 9.50414C27.2418 9.54703 27.2847 9.62419 27.2847 9.70135V19.0032C27.2847 19.0032 27.2847 21.5751 24.7128 21.5751H17.2713C17.1084 21.5751 16.9713 21.6951 16.9455 21.8494L16.1397 26.719C16.1397 26.719 15.2824 29.2909 13.5677 28.4336C11.8531 27.5763 12.7104 25.0044 12.7104 25.0044L14.2793 17.9658C14.365 17.5715 14.7165 17.2885 15.1195 17.2885H22.9982V12.9505C22.9982 12.6505 22.6381 12.5047 22.4238 12.7105L20.5034 14.6309C20.452 14.6823 20.3834 14.708 20.3148 14.708H14.425C14.425 14.708 13.3877 14.1937 13.7306 13.1563C13.945 12.5219 14.5879 12.1361 15.2566 12.1361H19.5689L22.9982 9.56415C22.9982 9.57274 24.6613 7.90955 27.1733 9.50414Z" stroke="#FF5900" stroke-width="2"/>
<path d="M29.0024 9.57324V19.861C29.0024 19.861 28.1451 23.2902 25.5732 23.2902C23.0012 23.2902 17 23.2902 17 23.2902" stroke="#FF5900" stroke-width="2"/>
<path d="M1 2.98145L3.57194 17.1271H15.1457" stroke="#2D017C" stroke-width="2"/>
</svg>
