<svg width="36" height="36" viewBox="0 0 36 36" fill="none" xmlns="http://www.w3.org/2000/svg">
<path d="M2.39062 34.5245L3.27663 31.969C3.34461 31.7731 3.5355 31.6408 3.75063 31.6406H22.0306C22.2457 31.6408 22.4366 31.7731 22.5046 31.969L23.3906 34.5206" stroke="#C8D0DB" stroke-linecap="round" stroke-linejoin="round"/>
<path fill-rule="evenodd" clip-rule="evenodd" d="M4.39062 21.084H21.3907V31.644H4.39062V21.084Z" stroke="#C8D0DB" stroke-linecap="round" stroke-linejoin="round"/>
<path d="M24.3907 34.5234H1.39062" stroke="#C8D0DB" stroke-linecap="round" stroke-linejoin="round"/>
<path d="M7.39062 21.084V31.644" stroke="#C8D0DB" stroke-linecap="round" stroke-linejoin="round"/>
<path d="M10.3906 21.084V31.644" stroke="#C8D0DB" stroke-linecap="round" stroke-linejoin="round"/>
<path d="M15.3906 21.084V31.644" stroke="#C8D0DB" stroke-linecap="round" stroke-linejoin="round"/>
<path d="M18.3906 21.084V31.644" stroke="#C8D0DB" stroke-linecap="round" stroke-linejoin="round"/>
<path fill-rule="evenodd" clip-rule="evenodd" d="M23.258 18.577C23.3333 18.3601 23.2388 18.1222 23.0321 18.0087L13.1361 12.576C12.9814 12.4903 12.7908 12.4903 12.6361 12.576L2.73607 18.0048C2.52934 18.1184 2.43478 18.3562 2.51007 18.5731L3.27408 20.7552C3.34206 20.9512 3.53295 21.0834 3.74808 21.0835H22.028C22.2431 21.0834 22.4341 20.9512 22.502 20.7552L23.258 18.577Z" stroke="#C8D0DB" stroke-linecap="round" stroke-linejoin="round"/>
<path d="M23.2179 18.2031H2.54688" stroke="#C8D0DB" stroke-linecap="round" stroke-linejoin="round"/>
<path fill-rule="evenodd" clip-rule="evenodd" d="M20.3438 8.86599C20.3438 4.79787 23.6416 1.5 27.7097 1.5C31.7779 1.5 35.0757 4.79787 35.0757 8.86599C35.0757 12.9341 31.7779 16.232 27.7097 16.232C23.6416 16.232 20.3438 12.9341 20.3438 8.86599Z" stroke="#C8D0DB"/>
<path d="M23.3438 8.03516H32.4347" stroke="#C8D0DB" stroke-linecap="square"/>
<path d="M23.3438 9.625H32.4347" stroke="#C8D0DB" stroke-linecap="square"/>
<path d="M30.6129 12.0121H29.7038L26.0675 5.64844H25.1016V12.0121" stroke="#C8D0DB" stroke-linecap="square"/>
<path d="M30.6719 12.0121V5.64844" stroke="#C8D0DB" stroke-linecap="square"/>
</svg>
