<svg width="49" height="48" viewBox="0 0 49 48" fill="none" xmlns="http://www.w3.org/2000/svg">
<circle cx="24.5" cy="24" r="24" fill="white"/>
<path d="M15.5078 31.1097V23.4297" stroke="#20336B" stroke-linecap="round" stroke-linejoin="round"/>
<path d="M14.5078 31.1113H19.5078" stroke="#20336B" stroke-linecap="round" stroke-linejoin="round"/>
<path d="M13.5078 34.9512H36.5078" stroke="#20336B" stroke-linecap="round" stroke-linejoin="round"/>
<path d="M13.5078 33.0312H36.5078" stroke="#20336B" stroke-linecap="round" stroke-linejoin="round"/>
<path d="M14.5078 23.4297H19.5078" stroke="#20336B" stroke-linecap="round" stroke-linejoin="round"/>
<path d="M22.5078 31.1113H27.5078" stroke="#20336B" stroke-linecap="round" stroke-linejoin="round"/>
<path d="M22.5078 23.4297H27.5078" stroke="#20336B" stroke-linecap="round" stroke-linejoin="round"/>
<path d="M18.5078 31.1097V23.4297" stroke="#20336B" stroke-linecap="round" stroke-linejoin="round"/>
<path d="M23.5078 31.1097V23.4297" stroke="#20336B" stroke-linecap="round" stroke-linejoin="round"/>
<path d="M26.5078 31.1097V23.4297" stroke="#20336B" stroke-linecap="round" stroke-linejoin="round"/>
<path d="M30.5078 31.1113H35.5078" stroke="#20336B" stroke-linecap="round" stroke-linejoin="round"/>
<path d="M30.5078 23.4297H35.5078" stroke="#20336B" stroke-linecap="round" stroke-linejoin="round"/>
<path d="M31.5078 31.1097V23.4297" stroke="#20336B" stroke-linecap="round" stroke-linejoin="round"/>
<path d="M34.5078 31.1097V23.4297" stroke="#20336B" stroke-linecap="round" stroke-linejoin="round"/>
<path fill-rule="evenodd" clip-rule="evenodd" d="M14.6544 20.6513C14.4855 20.7772 14.4187 20.9921 14.488 21.1863C14.5574 21.3804 14.7476 21.5107 14.9614 21.5105H35.0614C35.275 21.511 35.4654 21.3811 35.5351 21.1873C35.6049 20.9935 35.5387 20.7785 35.3704 20.6523L25.3474 13.1019C25.1664 12.966 24.9124 12.966 24.7314 13.1019L14.6544 20.6513Z" stroke="#20336B" stroke-linecap="round" stroke-linejoin="round"/>
<path fill-rule="evenodd" clip-rule="evenodd" d="M25 19.4551C26.1046 19.4551 27 18.5596 27 17.4551C27 16.3505 26.1046 15.4551 25 15.4551C23.8954 15.4551 23 16.3505 23 17.4551C23 18.5596 23.8954 19.4551 25 19.4551Z" fill="#20336B" stroke="#20336B" stroke-linecap="round" stroke-linejoin="round"/>
<path d="M25.6684 16.7891L24.7363 18.0266C24.6943 18.0821 24.6301 18.1168 24.5604 18.1218C24.4907 18.1267 24.4223 18.1015 24.3728 18.0525L23.8906 17.5732" stroke="white" stroke-linecap="round" stroke-linejoin="round"/>
</svg>
