<svg width="40" height="36" viewBox="0 0 40 36" fill="none" xmlns="http://www.w3.org/2000/svg">
<g clip-path="url(#clip0_2171_144)">
<mask id="mask0_2171_144" style="mask-type:luminance" maskUnits="userSpaceOnUse" x="0" y="0" width="35" height="36">
<path d="M34.2839 0H0V35.998H34.2839V0Z" fill="white"/>
</mask>
<g mask="url(#mask0_2171_144)">
<path d="M27.8502 0.750539H9.27979C7.30745 0.750539 5.70855 2.42938 5.70855 4.50034V29.453C5.70821 31.6848 4.7075 33.7863 3.00727 35.1257L2.85156 35.2487H21.422L21.5777 35.1257C23.2779 33.7863 24.2787 31.6848 24.279 29.453V4.71482C24.2394 2.73738 25.6159 1.04194 27.4817 0.770038C28.4876 0.660446 29.4907 1.00386 30.2418 1.71502C30.9929 2.42619 31.4216 3.43839 31.4214 4.50034V9.75005C31.4214 10.5784 30.7819 11.25 29.9929 11.25H24.279" stroke="white" stroke-linecap="round" stroke-linejoin="round"/>
<path d="M9.28125 6.75H12.8525" stroke="#00BAF2" stroke-linecap="round" stroke-linejoin="round"/>
<path d="M12.1406 11.25H19.9973" stroke="#00BAF2" stroke-linecap="round" stroke-linejoin="round"/>
<path d="M9.28125 15.75H19.995" stroke="#00BAF2" stroke-linecap="round" stroke-linejoin="round"/>
<path d="M9.28125 20.248H19.995" stroke="#00BAF2" stroke-linecap="round" stroke-linejoin="round"/>
<path d="M9.28125 24.748H15.7095" stroke="#00BAF2" stroke-linecap="round" stroke-linejoin="round"/>
<path d="M9.28125 24.748H19.995" stroke="#00BAF2" stroke-linecap="round" stroke-linejoin="round"/>
<path d="M9.28125 29.248H15.7095" stroke="#00BAF2" stroke-linecap="round" stroke-linejoin="round"/>
</g>
<path d="M36.0055 12H21.1484C18.9393 12 17.1484 13.7909 17.1484 16V32C17.1484 34.2091 18.9393 36 21.1484 36H36.0055C38.2146 36 40.0055 34.2091 40.0055 32V16C40.0055 13.7909 38.2146 12 36.0055 12Z" fill="white"/>
<path d="M27.913 27.9794L28.0781 27.1943L29.0814 27.0384L28.8866 27.9794H27.913Z" fill="#4ABCEB" stroke="#4ABCEB"/>
<path d="M33.3569 27.9674L33.6668 26.3775L34.6476 26.2555L34.2684 27.9674H33.3569Z" fill="#4ABCEB" stroke="#4ABCEB"/>
<path d="M21.9062 28.403L24.0556 27.6406L23.8986 28.4666H21.9062V28.403Z" fill="#4ABCEB"/>
<mask id="mask1_2171_144" style="mask-type:luminance" maskUnits="userSpaceOnUse" x="21" y="27" width="4" height="2">
<path d="M21.9062 28.403L24.0556 27.6406L23.8986 28.4666H21.9062V28.403Z" fill="white"/>
</mask>
<g mask="url(#mask1_2171_144)">
<path d="M21.9062 28.403L21.5719 27.4606L20.9062 27.6967V28.403H21.9062ZM24.0556 27.6406L25.038 27.8273L25.3633 26.1157L23.7212 26.6982L24.0556 27.6406ZM23.8986 28.4666V29.4666H24.7264L24.881 28.6533L23.8986 28.4666ZM21.9062 28.4666H20.9062V29.4666H21.9062V28.4666ZM22.2406 29.3455L24.3899 28.5831L23.7212 26.6982L21.5719 27.4606L22.2406 29.3455ZM23.0731 27.4539L22.9162 28.2799L24.881 28.6533L25.038 27.8273L23.0731 27.4539ZM23.8986 27.4666H21.9062V29.4666H23.8986V27.4666ZM22.9062 28.4666V28.403H20.9062V28.4666H22.9062Z" fill="#4ABCEB"/>
</g>
<mask id="mask2_2171_144" style="mask-type:luminance" maskUnits="userSpaceOnUse" x="21" y="19" width="16" height="10">
<path d="M35.2775 25.6953C34.584 25.7724 33.9047 25.8533 33.2396 25.938L33.8767 22.7927C33.9446 22.4825 33.9785 22.2022 33.9785 21.9518C33.9785 21.0579 33.4639 20.611 32.4346 20.611H30.8893L29.706 26.4466C28.9905 26.5641 28.3034 26.6874 27.6447 26.8165L28.9024 20.611H25.9825C25.632 20.611 25.4229 20.7897 25.355 21.147L24.0395 27.6791C23.229 27.9189 22.5108 28.176 21.8984 28.4491L23.4877 20.611C23.6006 20.0504 23.7928 19.6415 24.0643 19.3843C24.3358 19.1281 24.7601 19 25.3371 19H32.9603C33.8997 19 34.6496 19.197 35.2101 19.5909C35.7705 19.9839 36.0508 20.5922 36.0508 21.4157C36.0508 21.7615 36.0279 22.0356 35.982 22.2378L35.2775 25.6953Z" fill="white"/>
</mask>
<g mask="url(#mask2_2171_144)">
<path d="M81.7923 34.8454H19.8438V16.7129H81.7923V34.8454Z" fill="#20336B"/>
</g>
</g>
<defs>
<clipPath id="clip0_2171_144">
<rect width="40" height="36" fill="white"/>
</clipPath>
</defs>
</svg>
