<svg width="48" height="48" viewBox="0 0 48 48" fill="none" xmlns="http://www.w3.org/2000/svg">
<circle cx="24" cy="24" r="24" fill="#20336B"/>
<path d="M21.2031 17.4922V23.2522" stroke="white"/>
<path d="M23.4062 17.4922V22.3802C23.4062 22.4906 23.4958 22.5802 23.6062 22.5802H25.5778" stroke="white"/>
<path d="M26.9609 17.4922V22.3802C26.9609 22.4906 27.0505 22.5802 27.1609 22.5802H29.1325" stroke="white"/>
<path d="M31.28 22.7938V13.4807C31.28 13.3001 31.0596 13.212 30.9351 13.3428L29.0897 15.2816C29.0109 15.3644 28.8788 15.3644 28.8 15.2816L26.7715 13.1505C26.6867 13.0613 26.5421 13.0692 26.4675 13.1672L24.8838 15.2471C24.8092 15.345 24.6647 15.353 24.5798 15.2638L22.5683 13.1505C22.4834 13.0613 22.3389 13.0692 22.2643 13.1672L20.6975 15.2248C20.6175 15.3299 20.4593 15.3299 20.3793 15.2248L18.8125 13.1672C18.7379 13.0692 18.5933 13.0613 18.5085 13.1505L16.48 15.2816C16.4012 15.3644 16.2691 15.3644 16.1903 15.2816L14.3449 13.3428C14.2204 13.212 14 13.3001 14 13.4807V34.4865C14 34.676 14.2389 34.7592 14.3567 34.6108L16.1784 32.314C16.2585 32.2131 16.4118 32.2131 16.4918 32.314L18.4954 34.8401C18.581 34.9479 18.7473 34.9391 18.821 34.8229L20.3695 32.3826C20.4481 32.2588 20.6287 32.2588 20.7072 32.3826L22.2693 34.8443C22.339 34.9541 22.4933 34.9692 22.583 34.875L25.2086 32.1165" stroke="white" stroke-linecap="round"/>
<mask id="path-6-inside-1_527_31557" fill="white">
<path fill-rule="evenodd" clip-rule="evenodd" d="M16.2109 18.2922C16.2109 17.8504 16.5691 17.4922 17.0109 17.4922H19.0109C19.4528 17.4922 19.8109 17.8504 19.8109 18.2922V22.5482C19.8109 22.99 19.4528 23.3482 19.0109 23.3482H17.0109C16.5691 23.3482 16.2109 22.99 16.2109 22.5482V18.2922ZM17.1016 18.3008H18.9016V20.1008H17.1016V18.3008ZM18.9016 20.8008H17.1016V22.6008H18.9016V20.8008Z"/>
</mask>
<path fill-rule="evenodd" clip-rule="evenodd" d="M16.2109 18.2922C16.2109 17.8504 16.5691 17.4922 17.0109 17.4922H19.0109C19.4528 17.4922 19.8109 17.8504 19.8109 18.2922V22.5482C19.8109 22.99 19.4528 23.3482 19.0109 23.3482H17.0109C16.5691 23.3482 16.2109 22.99 16.2109 22.5482V18.2922ZM17.1016 18.3008H18.9016V20.1008H17.1016V18.3008ZM18.9016 20.8008H17.1016V22.6008H18.9016V20.8008Z" fill="white"/>
<path d="M18.9016 18.3008H19.9016V17.3008H18.9016V18.3008ZM17.1016 18.3008V17.3008H16.1016V18.3008H17.1016ZM18.9016 20.1008V21.1008H19.9016V20.1008H18.9016ZM17.1016 20.1008H16.1016V21.1008H17.1016V20.1008ZM17.1016 20.8008V19.8008H16.1016V20.8008H17.1016ZM18.9016 20.8008H19.9016V19.8008H18.9016V20.8008ZM17.1016 22.6008H16.1016V23.6008H17.1016V22.6008ZM18.9016 22.6008V23.6008H19.9016V22.6008H18.9016ZM17.0109 16.4922C16.0168 16.4922 15.2109 17.2981 15.2109 18.2922H17.2109C17.2109 18.4026 17.1214 18.4922 17.0109 18.4922V16.4922ZM19.0109 16.4922H17.0109V18.4922H19.0109V16.4922ZM20.8109 18.2922C20.8109 17.2981 20.005 16.4922 19.0109 16.4922V18.4922C18.9005 18.4922 18.8109 18.4026 18.8109 18.2922H20.8109ZM20.8109 22.5482V18.2922H18.8109V22.5482H20.8109ZM19.0109 24.3482C20.005 24.3482 20.8109 23.5423 20.8109 22.5482H18.8109C18.8109 22.4377 18.9005 22.3482 19.0109 22.3482V24.3482ZM17.0109 24.3482H19.0109V22.3482H17.0109V24.3482ZM15.2109 22.5482C15.2109 23.5423 16.0168 24.3482 17.0109 24.3482V22.3482C17.1214 22.3482 17.2109 22.4377 17.2109 22.5482H15.2109ZM15.2109 18.2922V22.5482H17.2109V18.2922H15.2109ZM18.9016 17.3008H17.1016V19.3008H18.9016V17.3008ZM19.9016 20.1008V18.3008H17.9016V20.1008H19.9016ZM17.1016 21.1008H18.9016V19.1008H17.1016V21.1008ZM16.1016 18.3008V20.1008H18.1016V18.3008H16.1016ZM17.1016 21.8008H18.9016V19.8008H17.1016V21.8008ZM18.1016 22.6008V20.8008H16.1016V22.6008H18.1016ZM18.9016 21.6008H17.1016V23.6008H18.9016V21.6008ZM17.9016 20.8008V22.6008H19.9016V20.8008H17.9016Z" fill="white" mask="url(#path-6-inside-1_527_31557)"/>
<path d="M16.9766 25.4609H22.7366" stroke="white" stroke-linecap="round"/>
<path d="M16.9766 28.3398H22.7366" stroke="white" stroke-linecap="round"/>
<circle cx="29.8381" cy="29.26" r="5.26" stroke="white"/>
<path d="M27.25 29.8755L29.0286 31.6541C29.1067 31.7322 29.2333 31.7322 29.3114 31.6541L32.53 28.4355" stroke="#00BAF2" stroke-linecap="round"/>
</svg>
