<svg width="37" height="37" viewBox="0 0 37 37" fill="none" xmlns="http://www.w3.org/2000/svg">
<path d="M14 8.52734V17.4698" stroke="#C8D0DB"/>
<path d="M17.4297 8.52734V16.2266C17.4297 16.337 17.5192 16.4266 17.6297 16.4266H20.8011" stroke="#C8D0DB"/>
<path d="M22.9531 8.52734V16.2266C22.9531 16.337 23.0427 16.4266 23.1531 16.4266H26.3245" stroke="#C8D0DB"/>
<path d="M29.6556 16.7569V2.0217C29.6556 1.84113 29.4352 1.75301 29.3108 1.88381L26.1752 5.17813C26.0963 5.26094 25.9642 5.26094 25.8854 5.17813L22.5668 1.69148C22.4819 1.60231 22.3374 1.61026 22.2628 1.70821L19.6469 5.1436C19.5723 5.24155 19.4278 5.24951 19.3429 5.16033L16.0411 1.69148C15.9563 1.60231 15.8117 1.61026 15.7372 1.70821L13.1382 5.12136C13.0582 5.22647 12.9 5.22647 12.82 5.12136L10.221 1.70821C10.1464 1.61026 10.0019 1.60231 9.91699 1.69148L6.59833 5.17813C6.51951 5.26094 6.38742 5.26094 6.30859 5.17813L3.17299 1.88381C3.0485 1.75301 2.82812 1.84113 2.82812 2.0217V35.2271C2.82812 35.4166 3.06707 35.4998 3.18482 35.3514L6.29677 31.428C6.37684 31.3271 6.53008 31.3271 6.61016 31.428L9.90397 35.5807C9.98949 35.6885 10.1558 35.6797 10.2295 35.5635L12.8102 31.4966C12.8888 31.3728 13.0694 31.3728 13.1479 31.4966L15.7421 35.5849C15.8118 35.6947 15.9662 35.7098 16.0559 35.6156L20.2297 31.2305" stroke="#C8D0DB" stroke-linecap="round"/>
<mask id="path-5-inside-1_331_4841" fill="white">
<path fill-rule="evenodd" clip-rule="evenodd" d="M6.25781 9.32734C6.25781 8.88552 6.61598 8.52734 7.05781 8.52734H11.0469C11.4887 8.52734 11.8469 8.88552 11.8469 9.32734V16.8189C11.8469 17.2607 11.4887 17.6189 11.0469 17.6189H7.05781C6.61598 17.6189 6.25781 17.2607 6.25781 16.8189V9.32734ZM7.64062 9.78174H10.4352V12.5763H7.64062V9.78174ZM10.4352 13.6631H7.64062V16.4576H10.4352V13.6631Z"/>
</mask>
<path fill-rule="evenodd" clip-rule="evenodd" d="M6.25781 9.32734C6.25781 8.88552 6.61598 8.52734 7.05781 8.52734H11.0469C11.4887 8.52734 11.8469 8.88552 11.8469 9.32734V16.8189C11.8469 17.2607 11.4887 17.6189 11.0469 17.6189H7.05781C6.61598 17.6189 6.25781 17.2607 6.25781 16.8189V9.32734ZM7.64062 9.78174H10.4352V12.5763H7.64062V9.78174ZM10.4352 13.6631H7.64062V16.4576H10.4352V13.6631Z" fill="#C8D0DB"/>
<path d="M10.4352 9.78174H11.4352V8.78174H10.4352V9.78174ZM7.64062 9.78174V8.78174H6.64062V9.78174H7.64062ZM10.4352 12.5763V13.5763H11.4352V12.5763H10.4352ZM7.64062 12.5763H6.64062V13.5763H7.64062V12.5763ZM7.64062 13.6631V12.6631H6.64062V13.6631H7.64062ZM10.4352 13.6631H11.4352V12.6631H10.4352V13.6631ZM7.64062 16.4576H6.64062V17.4576H7.64062V16.4576ZM10.4352 16.4576V17.4576H11.4352V16.4576H10.4352ZM7.05781 7.52734C6.0637 7.52734 5.25781 8.33323 5.25781 9.32734H7.25781C7.25781 9.4378 7.16827 9.52734 7.05781 9.52734V7.52734ZM11.0469 7.52734H7.05781V9.52734H11.0469V7.52734ZM12.8469 9.32734C12.8469 8.33323 12.041 7.52734 11.0469 7.52734V9.52734C10.9364 9.52734 10.8469 9.4378 10.8469 9.32734H12.8469ZM12.8469 16.8189V9.32734H10.8469V16.8189H12.8469ZM11.0469 18.6189C12.041 18.6189 12.8469 17.813 12.8469 16.8189H10.8469C10.8469 16.7084 10.9364 16.6189 11.0469 16.6189V18.6189ZM7.05781 18.6189H11.0469V16.6189H7.05781V18.6189ZM5.25781 16.8189C5.25781 17.813 6.0637 18.6189 7.05781 18.6189V16.6189C7.16827 16.6189 7.25781 16.7084 7.25781 16.8189H5.25781ZM5.25781 9.32734V16.8189H7.25781V9.32734H5.25781ZM10.4352 8.78174H7.64062V10.7817H10.4352V8.78174ZM11.4352 12.5763V9.78174H9.43516V12.5763H11.4352ZM7.64062 13.5763H10.4352V11.5763H7.64062V13.5763ZM6.64062 9.78174V12.5763H8.64062V9.78174H6.64062ZM7.64062 14.6631H10.4352V12.6631H7.64062V14.6631ZM8.64062 16.4576V13.6631H6.64062V16.4576H8.64062ZM10.4352 15.4576H7.64062V17.4576H10.4352V15.4576ZM9.43516 13.6631V16.4576H11.4352V13.6631H9.43516Z" fill="#C8D0DB" mask="url(#path-5-inside-1_331_4841)"/>
<path d="M7.45312 20.8965H16.3956" stroke="#C8D0DB" stroke-linecap="round"/>
<path d="M7.45312 25.3672H16.3956" stroke="#C8D0DB" stroke-linecap="round"/>
<circle cx="27.4191" cy="26.796" r="8.4425" stroke="#C8D0DB"/>
<path d="M23.3906 27.7532L26.23 30.5926C26.3081 30.6707 26.4348 30.6707 26.5129 30.5926L31.5879 25.5176" stroke="#C8D0DB" stroke-linecap="round"/>
</svg>
