<svg width="47" height="36" viewBox="0 0 47 36" fill="none" xmlns="http://www.w3.org/2000/svg">
<path d="M33.1875 4.5C33.5742 4.5 33.9375 4.57031 34.2773 4.71094C34.6172 4.85156 34.916 5.05664 35.1738 5.32617C35.4316 5.5957 35.6309 5.89453 35.7715 6.22266C35.9121 6.55078 35.9883 6.91406 36 7.3125V26.4375C36 26.8242 35.9297 27.1875 35.7891 27.5273C35.6484 27.8672 35.4434 28.166 35.1738 28.4238C34.9043 28.6816 34.6055 28.8809 34.2773 29.0215C33.9492 29.1621 33.5859 29.2383 33.1875 29.25H2.8125C2.42578 29.25 2.0625 29.1797 1.72266 29.0391C1.38281 28.8984 1.08398 28.6934 0.826172 28.4238C0.568359 28.1543 0.369141 27.8555 0.228516 27.5273C0.0878906 27.1992 0.0117188 26.8359 0 26.4375V7.3125C0 6.92578 0.0703125 6.5625 0.210938 6.22266C0.351562 5.88281 0.556641 5.58398 0.826172 5.32617C1.0957 5.06836 1.39453 4.86914 1.72266 4.72852C2.05078 4.58789 2.41406 4.51172 2.8125 4.5H33.1875ZM2.8125 6.75C2.64844 6.75 2.51367 6.80273 2.4082 6.9082C2.30273 7.01367 2.25 7.14844 2.25 7.3125V11.25H33.75V7.3125C33.75 7.14844 33.6973 7.01367 33.5918 6.9082C33.4863 6.80273 33.3516 6.75 33.1875 6.75H2.8125ZM33.1875 27C33.3516 27 33.4863 26.9473 33.5918 26.8418C33.6973 26.7363 33.75 26.6016 33.75 26.4375V13.5H2.25V26.4375C2.25 26.6016 2.30273 26.7363 2.4082 26.8418C2.51367 26.9473 2.64844 27 2.8125 27H33.1875Z" fill="#20336B"/>
<path fill-rule="evenodd" clip-rule="evenodd" d="M45 8.94L35 5.44L25 8.94V17.001C25 21.128 27.535 24.013 29.895 25.802C31.2312 26.8067 32.6895 27.6377 34.235 28.275C34.3667 28.329 34.4994 28.3807 34.633 28.43L34.658 28.44L34.665 28.442L34.669 28.444L35 28.56L35.331 28.444L35.2157 28.1151C35.331 28.443 35.332 28.443 35.332 28.443L35.335 28.442L35.342 28.44L35.367 28.431C35.3961 28.4202 35.4251 28.4092 35.454 28.398C37.1141 27.747 38.6783 26.874 40.104 25.803C42.467 24.012 45 21.127 45 17V8.94ZM35.2157 28.1151C35.167 27.9767 35.0979 27.7799 35 27.5L35.2157 28.1151ZM35.009 26.424L35 26.428C33.6128 25.8563 32.3037 25.111 31.104 24.21C28.966 22.588 27 20.223 27 17V10.36L35 7.56L43 10.36V17C43 20.223 41.034 22.59 38.896 24.209C37.6989 25.1083 36.3929 25.8525 35.009 26.424Z" fill="#00BAF2"/>
<path d="M41.072 13.343L34.001 20.414L29.758 16.172L31.173 14.757L34 17.586L39.657 11.929L41.072 13.343Z" fill="#00BAF2"/>
<path fill-rule="evenodd" clip-rule="evenodd" d="M35 26.428L35.009 26.424C36.3929 25.8525 37.6989 25.1083 38.896 24.209C41.034 22.59 43 20.223 43 17V10.36L35 7.56L27 10.36V17C27 20.223 28.966 22.588 31.104 24.21C32.3037 25.111 33.6128 25.8563 35 26.428ZM34.001 20.414L41.072 13.343L39.657 11.929L34 17.586L31.173 14.757L29.758 16.172L34.001 20.414Z" fill="#20336B"/>
</svg>
