<svg width="36" height="36" viewBox="0 0 36 36" fill="none" xmlns="http://www.w3.org/2000/svg">
<g clip-path="url(#clip0_1383_3)">
<path d="M29.8 20.2V17.8C29.8 17.1635 29.5471 16.553 29.0971 16.1029C28.647 15.6529 28.0365 15.4 27.4 15.4H3.4C2.76348 15.4 2.15303 15.6529 1.70294 16.1029C1.25286 16.553 1 17.1635 1 17.8V32.2C1 32.8365 1.25286 33.447 1.70294 33.8971C2.15303 34.3471 2.76348 34.6 3.4 34.6H27.4C28.0365 34.6 28.647 34.3471 29.0971 33.8971C29.5471 33.447 29.8 32.8365 29.8 32.2V29.8M29.8 20.2H20.2C18.927 20.2 17.7061 20.7057 16.8059 21.6059C15.9057 22.5061 15.4 23.727 15.4 25C15.4 26.273 15.9057 27.4939 16.8059 28.3941C17.7061 29.2943 18.927 29.8 20.2 29.8H29.8M29.8 20.2C31.073 20.2 32.2939 20.7057 33.1941 21.6059C34.0943 22.5061 34.6 23.727 34.6 25C34.6 26.273 34.0943 27.4939 33.1941 28.3941C32.2939 29.2943 31.073 29.8 29.8 29.8M8.2 15.4V8.2C8.2 6.29044 8.95857 4.45909 10.3088 3.10883C11.6591 1.75857 13.4904 1 15.4 1C17.3096 1 19.1409 1.75857 20.4912 3.10883C21.8414 4.45909 22.6 6.29044 22.6 8.2V15.4M28.6 25H31M23.8 25H26.2M19 25H21.4" stroke="white" stroke-width="2"/>
</g>
<defs>
<clipPath id="clip0_1383_3">
<rect width="36" height="36" fill="white"/>
</clipPath>
</defs>
</svg>
