<svg width="401" height="188" viewBox="0 0 401 188" fill="none" xmlns="http://www.w3.org/2000/svg">
<path d="M20.952 15V4.948H24.942C27.098 4.948 28.246 5.886 28.246 7.594C28.246 8.84 27.518 9.484 26.818 9.764C27.868 10.1 28.568 10.968 28.568 12.2C28.568 13.964 27.266 15 25.194 15H20.952ZM22.674 9.106H24.774C25.922 9.106 26.552 8.658 26.552 7.776C26.552 6.894 25.922 6.46 24.774 6.46H22.674V9.106ZM22.674 10.618V13.488H25.096C26.23 13.488 26.846 12.9 26.846 12.046C26.846 11.206 26.23 10.618 25.096 10.618H22.674ZM35.9414 7.65V15H34.2614V14.216C33.8414 14.706 33.2114 15.154 32.2594 15.154C30.7194 15.154 29.7674 14.104 29.7674 12.522V7.65H31.4474V12.158C31.4474 13.054 31.8394 13.628 32.7494 13.628C33.5054 13.628 34.2614 13.068 34.2614 12.018V7.65H35.9414ZM36.9421 13.6L38.2021 12.592C38.6361 13.306 39.4761 13.782 40.3301 13.782C41.0441 13.782 41.7021 13.53 41.7021 12.872C41.7021 12.242 41.0861 12.172 39.9241 11.934C38.7621 11.696 37.4321 11.402 37.4321 9.834C37.4321 8.49 38.6081 7.51 40.3021 7.51C41.5901 7.51 42.7381 8.084 43.2701 8.896L42.1361 9.918C41.7161 9.26 41.0161 8.882 40.2041 8.882C39.5181 8.882 39.0701 9.19 39.0701 9.68C39.0701 10.212 39.6021 10.31 40.5261 10.506C41.7721 10.772 43.3401 11.038 43.3401 12.718C43.3401 14.202 41.9821 15.154 40.3161 15.154C38.9581 15.154 37.6001 14.608 36.9421 13.6ZM44.602 6.67V4.948H46.338V6.67H44.602ZM46.31 7.65V15H44.63V7.65H46.31ZM48.0754 15V7.65H49.7554V8.434C50.1754 7.944 50.8334 7.51 51.7854 7.51C53.3254 7.51 54.2494 8.574 54.2494 10.156V15H52.5694V10.646C52.5694 9.736 52.2054 9.078 51.2814 9.078C50.5254 9.078 49.7554 9.638 49.7554 10.688V15H48.0754ZM59.072 15.154C56.972 15.154 55.502 13.6 55.502 11.332C55.502 9.176 56.958 7.51 59.002 7.51C61.13 7.51 62.264 9.12 62.264 11.136V11.696H57.112C57.238 12.956 57.994 13.726 59.072 13.726C59.898 13.726 60.556 13.306 60.78 12.55L62.222 13.096C61.704 14.384 60.542 15.154 59.072 15.154ZM58.988 8.924C58.12 8.924 57.448 9.442 57.196 10.436H60.57C60.556 9.624 60.052 8.924 58.988 8.924ZM62.7546 13.6L64.0146 12.592C64.4486 13.306 65.2886 13.782 66.1426 13.782C66.8566 13.782 67.5146 13.53 67.5146 12.872C67.5146 12.242 66.8986 12.172 65.7366 11.934C64.5746 11.696 63.2446 11.402 63.2446 9.834C63.2446 8.49 64.4206 7.51 66.1146 7.51C67.4026 7.51 68.5506 8.084 69.0826 8.896L67.9486 9.918C67.5286 9.26 66.8286 8.882 66.0166 8.882C65.3306 8.882 64.8826 9.19 64.8826 9.68C64.8826 10.212 65.4146 10.31 66.3386 10.506C67.5846 10.772 69.1526 11.038 69.1526 12.718C69.1526 14.202 67.7946 15.154 66.1286 15.154C64.7706 15.154 63.4126 14.608 62.7546 13.6ZM69.6725 13.6L70.9325 12.592C71.3665 13.306 72.2065 13.782 73.0605 13.782C73.7745 13.782 74.4325 13.53 74.4325 12.872C74.4325 12.242 73.8165 12.172 72.6545 11.934C71.4925 11.696 70.1625 11.402 70.1625 9.834C70.1625 8.49 71.3385 7.51 73.0325 7.51C74.3205 7.51 75.4685 8.084 76.0005 8.896L74.8665 9.918C74.4465 9.26 73.7465 8.882 72.9345 8.882C72.2485 8.882 71.8005 9.19 71.8005 9.68C71.8005 10.212 72.3325 10.31 73.2565 10.506C74.5025 10.772 76.0705 11.038 76.0705 12.718C76.0705 14.202 74.7125 15.154 73.0465 15.154C71.6885 15.154 70.3305 14.608 69.6725 13.6ZM86.0693 15H84.6133L81.9813 7.23V15H80.3153V4.948H82.7793L85.3693 12.648L87.9593 4.948H90.3673V15H88.7013V7.23L86.0693 15ZM94.1405 15.126C92.7405 15.126 91.6625 14.272 91.6625 12.956C91.6625 11.556 92.7125 10.94 94.1265 10.646L96.1565 10.226V10.1C96.1565 9.4 95.7925 8.966 94.8965 8.966C94.0985 8.966 93.6785 9.33 93.4825 10.044L91.9005 9.68C92.2645 8.462 93.3425 7.51 94.9665 7.51C96.7305 7.51 97.7945 8.35 97.7945 10.044V13.208C97.7945 13.628 97.9765 13.754 98.4385 13.698V15C97.2205 15.14 96.5765 14.902 96.3245 14.3C95.8625 14.818 95.0925 15.126 94.1405 15.126ZM96.1565 12.41V11.514L94.5745 11.85C93.8605 12.004 93.3285 12.228 93.3285 12.886C93.3285 13.46 93.7485 13.782 94.3925 13.782C95.2885 13.782 96.1565 13.306 96.1565 12.41ZM99.632 15V7.65H101.312V8.434C101.732 7.944 102.39 7.51 103.342 7.51C104.882 7.51 105.806 8.574 105.806 10.156V15H104.126V10.646C104.126 9.736 103.762 9.078 102.838 9.078C102.082 9.078 101.312 9.638 101.312 10.688V15H99.632ZM109.467 15.126C108.067 15.126 106.989 14.272 106.989 12.956C106.989 11.556 108.039 10.94 109.453 10.646L111.483 10.226V10.1C111.483 9.4 111.119 8.966 110.223 8.966C109.425 8.966 109.005 9.33 108.809 10.044L107.227 9.68C107.591 8.462 108.669 7.51 110.293 7.51C112.057 7.51 113.121 8.35 113.121 10.044V13.208C113.121 13.628 113.303 13.754 113.765 13.698V15C112.547 15.14 111.903 14.902 111.651 14.3C111.189 14.818 110.419 15.126 109.467 15.126ZM111.483 12.41V11.514L109.901 11.85C109.187 12.004 108.655 12.228 108.655 12.886C108.655 13.46 109.075 13.782 109.719 13.782C110.615 13.782 111.483 13.306 111.483 12.41ZM121.496 14.258C121.496 16.428 120.012 17.674 117.912 17.674C116.218 17.674 115.028 16.96 114.566 15.532L116.134 14.972C116.358 15.798 116.988 16.316 117.912 16.316C119.046 16.316 119.816 15.756 119.816 14.412V13.894C119.424 14.412 118.682 14.818 117.744 14.818C115.728 14.818 114.524 13.18 114.524 11.164C114.524 9.148 115.728 7.51 117.744 7.51C118.668 7.51 119.424 7.916 119.816 8.434V7.65H121.496V14.258ZM119.844 11.094C119.844 9.75 119.116 8.98 118.066 8.98C116.904 8.98 116.218 9.792 116.218 11.164C116.218 12.522 116.904 13.348 118.066 13.348C119.116 13.348 119.844 12.578 119.844 11.262V11.094ZM126.379 15.154C124.279 15.154 122.809 13.6 122.809 11.332C122.809 9.176 124.265 7.51 126.309 7.51C128.437 7.51 129.571 9.12 129.571 11.136V11.696H124.419C124.545 12.956 125.301 13.726 126.379 13.726C127.205 13.726 127.863 13.306 128.087 12.55L129.529 13.096C129.011 14.384 127.849 15.154 126.379 15.154ZM126.295 8.924C125.427 8.924 124.755 9.442 124.503 10.436H127.877C127.863 9.624 127.359 8.924 126.295 8.924ZM132.511 10.688V15H130.831V7.65H132.511V8.434C132.917 7.944 133.547 7.51 134.527 7.51C135.409 7.51 136.067 7.902 136.473 8.532C136.921 8.056 137.621 7.51 138.755 7.51C140.267 7.51 141.247 8.574 141.247 10.156V15H139.567V10.646C139.567 9.736 139.231 9.078 138.335 9.078C137.621 9.078 136.879 9.638 136.879 10.688V15H135.199V10.646C135.199 9.736 134.863 9.078 133.967 9.078C133.253 9.078 132.511 9.638 132.511 10.688ZM146.066 15.154C143.966 15.154 142.496 13.6 142.496 11.332C142.496 9.176 143.952 7.51 145.996 7.51C148.124 7.51 149.258 9.12 149.258 11.136V11.696H144.106C144.232 12.956 144.988 13.726 146.066 13.726C146.892 13.726 147.55 13.306 147.774 12.55L149.216 13.096C148.698 14.384 147.536 15.154 146.066 15.154ZM145.982 8.924C145.114 8.924 144.442 9.442 144.19 10.436H147.564C147.55 9.624 147.046 8.924 145.982 8.924ZM150.519 15V7.65H152.199V8.434C152.619 7.944 153.277 7.51 154.229 7.51C155.769 7.51 156.693 8.574 156.693 10.156V15H155.013V10.646C155.013 9.736 154.649 9.078 153.725 9.078C152.969 9.078 152.199 9.638 152.199 10.688V15H150.519ZM158.561 13.152V9.078H157.539V7.65H158.561V5.494H160.213V7.65H161.753V9.078H160.213V12.886C160.213 13.544 160.591 13.614 161.193 13.614C161.473 13.614 161.627 13.6 161.879 13.572V14.986C161.571 15.042 161.151 15.084 160.717 15.084C159.317 15.084 158.561 14.65 158.561 13.152ZM19.93 31.04L21.302 29.906C22.002 30.998 23.052 31.628 24.2 31.628C25.334 31.628 26.188 31.11 26.188 30.144C26.188 29.122 25.138 28.982 23.64 28.618C22.128 28.254 20.504 27.806 20.504 25.846C20.504 23.984 22.1 22.794 24.13 22.794C25.852 22.794 27.196 23.606 27.868 24.656L26.552 25.79C25.992 24.922 25.25 24.32 24.074 24.32C22.996 24.32 22.254 24.866 22.254 25.664C22.254 26.546 23.024 26.728 24.382 27.036C26.006 27.4 27.952 27.778 27.952 29.962C27.952 31.936 26.216 33.154 24.144 33.154C22.422 33.154 20.714 32.328 19.93 31.04ZM35.8985 29.332C35.8985 31.614 34.4285 33.154 32.3565 33.154C30.2845 33.154 28.8145 31.614 28.8145 29.332C28.8145 27.05 30.2845 25.51 32.3565 25.51C34.4285 25.51 35.8985 27.05 35.8985 29.332ZM30.5085 29.332C30.5085 30.83 31.2225 31.74 32.3565 31.74C33.4905 31.74 34.2045 30.83 34.2045 29.332C34.2045 27.834 33.4905 26.924 32.3565 26.924C31.2225 26.924 30.5085 27.834 30.5085 29.332ZM38.8862 22.948V33H37.2062V22.948H38.8862ZM46.7695 25.65V33H45.0895V32.216C44.6695 32.706 44.0395 33.154 43.0875 33.154C41.5475 33.154 40.5955 32.104 40.5955 30.522V25.65H42.2755V30.158C42.2755 31.054 42.6675 31.628 43.5775 31.628C44.3335 31.628 45.0895 31.068 45.0895 30.018V25.65H46.7695ZM48.6942 31.152V27.078H47.6722V25.65H48.6942V23.494H50.3462V25.65H51.8862V27.078H50.3462V30.886C50.3462 31.544 50.7242 31.614 51.3262 31.614C51.6062 31.614 51.7602 31.6 52.0122 31.572V32.986C51.7042 33.042 51.2842 33.084 50.8502 33.084C49.4502 33.084 48.6942 32.65 48.6942 31.152ZM53.2427 24.67V22.948H54.9787V24.67H53.2427ZM54.9507 25.65V33H53.2707V25.65H54.9507ZM63.338 29.332C63.338 31.614 61.868 33.154 59.796 33.154C57.724 33.154 56.254 31.614 56.254 29.332C56.254 27.05 57.724 25.51 59.796 25.51C61.868 25.51 63.338 27.05 63.338 29.332ZM57.948 29.332C57.948 30.83 58.662 31.74 59.796 31.74C60.93 31.74 61.644 30.83 61.644 29.332C61.644 27.834 60.93 26.924 59.796 26.924C58.662 26.924 57.948 27.834 57.948 29.332ZM64.6457 33V25.65H66.3257V26.434C66.7457 25.944 67.4037 25.51 68.3557 25.51C69.8957 25.51 70.8197 26.574 70.8197 28.156V33H69.1397V28.646C69.1397 27.736 68.7757 27.078 67.8517 27.078C67.0957 27.078 66.3257 27.638 66.3257 28.688V33H64.6457ZM71.7643 31.6L73.0243 30.592C73.4583 31.306 74.2983 31.782 75.1523 31.782C75.8663 31.782 76.5243 31.53 76.5243 30.872C76.5243 30.242 75.9083 30.172 74.7463 29.934C73.5843 29.696 72.2543 29.402 72.2543 27.834C72.2543 26.49 73.4303 25.51 75.1243 25.51C76.4123 25.51 77.5603 26.084 78.0923 26.896L76.9583 27.918C76.5383 27.26 75.8383 26.882 75.0263 26.882C74.3403 26.882 73.8923 27.19 73.8923 27.68C73.8923 28.212 74.4243 28.31 75.3483 28.506C76.5943 28.772 78.1623 29.038 78.1623 30.718C78.1623 32.202 76.8043 33.154 75.1383 33.154C73.7803 33.154 72.4223 32.608 71.7643 31.6Z" fill="#20336B"/>
<path d="M45 80L47.8868 75H42.1132L45 80ZM44.5 44V75.5H45.5V44H44.5Z" fill="#20336B"/>
<path d="M112 117L107 114.113V119.887L112 117ZM80 117.5H107.5V116.5H80V117.5Z" fill="#20336B"/>
<path d="M43.5 143.5C58.6878 143.5 71 131.188 71 116C71 100.812 58.6878 88.5 43.5 88.5C28.3122 88.5 16 100.812 16 116C16 131.188 28.3122 143.5 43.5 143.5Z" stroke="#20336B"/>
<path d="M39.1953 113.749V109.193L43.3049 111.52V116.204L39.3077 113.943L39.307 113.942C39.2379 113.902 39.1953 113.829 39.1953 113.749Z" stroke="#20336B"/>
<path d="M49.8192 109.198V113.878L45.7578 116.199V111.518L49.8192 109.198Z" stroke="#20336B"/>
<path d="M49.0548 106.819L44.5332 109.403L39.9726 106.819L44.5333 104.559L49.0548 106.819Z" stroke="#20336B"/>
<path d="M31.6123 124.903L35.6096 127.165V122.481L31.5 120.154V124.71C31.5 124.79 31.5432 124.863 31.6123 124.903ZM31.6123 124.903C31.6121 124.903 31.6125 124.903 31.6123 124.903Z" stroke="#20336B"/>
<path d="M42.1239 120.158V124.839L38.0625 127.16V122.479L42.1239 120.158Z" stroke="#20336B"/>
<path d="M41.3595 117.776L36.8379 120.36L32.2773 117.776L36.838 115.516L41.3595 117.776Z" stroke="#20336B"/>
<path d="M46.875 124.706V120.151L50.9846 122.477V127.161L46.9873 124.9L46.9867 124.899C46.9176 124.859 46.875 124.786 46.875 124.706Z" stroke="#20336B"/>
<path d="M57.4989 120.155V124.835L53.4375 127.156V122.475L57.4989 120.155Z" stroke="#20336B"/>
<path d="M56.7345 117.776L52.2129 120.36L47.6523 117.776L52.213 115.516L56.7345 117.776Z" stroke="#20336B"/>
<path d="M16.7333 156.948V167H14.9413V156.948H16.7333ZM18.5627 167V159.65H20.2427V160.434C20.6627 159.944 21.3207 159.51 22.2727 159.51C23.8127 159.51 24.7367 160.574 24.7367 162.156V167H23.0567V162.646C23.0567 161.736 22.6927 161.078 21.7687 161.078C21.0127 161.078 20.2427 161.638 20.2427 162.688V167H18.5627ZM29.8426 167H28.1486L25.4606 159.65H27.2246L29.0166 164.984L30.7946 159.65H32.5306L29.8426 167ZM36.3679 167.154C34.2679 167.154 32.7979 165.6 32.7979 163.332C32.7979 161.176 34.2539 159.51 36.2979 159.51C38.4259 159.51 39.5599 161.12 39.5599 163.136V163.696H34.4079C34.5339 164.956 35.2899 165.726 36.3679 165.726C37.1939 165.726 37.8519 165.306 38.0759 164.55L39.5179 165.096C38.9999 166.384 37.8379 167.154 36.3679 167.154ZM36.2839 160.924C35.4159 160.924 34.7439 161.442 34.4919 162.436H37.8659C37.8519 161.624 37.3479 160.924 36.2839 160.924ZM40.8205 167V159.65H42.5005V160.434C42.9205 159.944 43.5785 159.51 44.5305 159.51C46.0705 159.51 46.9945 160.574 46.9945 162.156V167H45.3145V162.646C45.3145 161.736 44.9505 161.078 44.0265 161.078C43.2705 161.078 42.5005 161.638 42.5005 162.688V167H40.8205ZM48.8631 165.152V161.078H47.8411V159.65H48.8631V157.494H50.5151V159.65H52.0551V161.078H50.5151V164.886C50.5151 165.544 50.8931 165.614 51.4951 165.614C51.7751 165.614 51.9291 165.6 52.1811 165.572V166.986C51.8731 167.042 51.4531 167.084 51.0191 167.084C49.6191 167.084 48.8631 166.65 48.8631 165.152ZM59.9933 163.332C59.9933 165.614 58.5233 167.154 56.4513 167.154C54.3793 167.154 52.9093 165.614 52.9093 163.332C52.9093 161.05 54.3793 159.51 56.4513 159.51C58.5233 159.51 59.9933 161.05 59.9933 163.332ZM54.6033 163.332C54.6033 164.83 55.3173 165.74 56.4513 165.74C57.5853 165.74 58.2993 164.83 58.2993 163.332C58.2993 161.834 57.5853 160.924 56.4513 160.924C55.3173 160.924 54.6033 161.834 54.6033 163.332ZM65.4729 159.636V161.316C65.2629 161.288 65.0949 161.274 64.8569 161.274C63.7929 161.274 62.9809 161.96 62.9809 163.136V167H61.3009V159.65H62.9809V160.742C63.3029 160.056 64.0589 159.608 64.9969 159.608C65.1929 159.608 65.3469 159.622 65.4729 159.636ZM69.9617 167.686C69.5417 168.806 68.8977 169.576 67.3717 169.576C67.0217 169.576 66.9237 169.562 66.6857 169.534V168.12C66.9097 168.148 67.0357 168.162 67.2457 168.162C67.8057 168.162 68.0717 168.008 68.3097 167.42L68.5897 166.734L65.9157 159.65H67.6797L69.4857 164.802L71.2497 159.65H72.9857L69.9617 167.686ZM8.75971 185H7.30371L4.67171 177.23V185H3.00571V174.948H5.46971L8.05971 182.648L10.6497 174.948H13.0577V185H11.3917V177.23L8.75971 185ZM16.8309 185.126C15.4309 185.126 14.3529 184.272 14.3529 182.956C14.3529 181.556 15.4029 180.94 16.8169 180.646L18.8469 180.226V180.1C18.8469 179.4 18.4829 178.966 17.5869 178.966C16.7889 178.966 16.3689 179.33 16.1729 180.044L14.5909 179.68C14.9549 178.462 16.0329 177.51 17.6569 177.51C19.4209 177.51 20.4849 178.35 20.4849 180.044V183.208C20.4849 183.628 20.6669 183.754 21.1289 183.698V185C19.9109 185.14 19.2669 184.902 19.0149 184.3C18.5529 184.818 17.7829 185.126 16.8309 185.126ZM18.8469 182.41V181.514L17.2649 181.85C16.5509 182.004 16.0189 182.228 16.0189 182.886C16.0189 183.46 16.4389 183.782 17.0829 183.782C17.9789 183.782 18.8469 183.306 18.8469 182.41ZM22.3224 185V177.65H24.0024V178.434C24.4224 177.944 25.0804 177.51 26.0324 177.51C27.5724 177.51 28.4964 178.574 28.4964 180.156V185H26.8164V180.646C26.8164 179.736 26.4524 179.078 25.5284 179.078C24.7724 179.078 24.0024 179.638 24.0024 180.688V185H22.3224ZM32.1571 185.126C30.7571 185.126 29.6791 184.272 29.6791 182.956C29.6791 181.556 30.7291 180.94 32.1431 180.646L34.1731 180.226V180.1C34.1731 179.4 33.8091 178.966 32.9131 178.966C32.1151 178.966 31.6951 179.33 31.4991 180.044L29.9171 179.68C30.2811 178.462 31.3591 177.51 32.9831 177.51C34.7471 177.51 35.8111 178.35 35.8111 180.044V183.208C35.8111 183.628 35.9931 183.754 36.4551 183.698V185C35.2371 185.14 34.5931 184.902 34.3411 184.3C33.8791 184.818 33.1091 185.126 32.1571 185.126ZM34.1731 182.41V181.514L32.5911 181.85C31.8771 182.004 31.3451 182.228 31.3451 182.886C31.3451 183.46 31.7651 183.782 32.4091 183.782C33.3051 183.782 34.1731 183.306 34.1731 182.41ZM44.1866 184.258C44.1866 186.428 42.7026 187.674 40.6026 187.674C38.9086 187.674 37.7186 186.96 37.2566 185.532L38.8246 184.972C39.0486 185.798 39.6786 186.316 40.6026 186.316C41.7366 186.316 42.5066 185.756 42.5066 184.412V183.894C42.1146 184.412 41.3726 184.818 40.4346 184.818C38.4186 184.818 37.2146 183.18 37.2146 181.164C37.2146 179.148 38.4186 177.51 40.4346 177.51C41.3586 177.51 42.1146 177.916 42.5066 178.434V177.65H44.1866V184.258ZM42.5346 181.094C42.5346 179.75 41.8066 178.98 40.7566 178.98C39.5946 178.98 38.9086 179.792 38.9086 181.164C38.9086 182.522 39.5946 183.348 40.7566 183.348C41.8066 183.348 42.5346 182.578 42.5346 181.262V181.094ZM49.0691 185.154C46.9691 185.154 45.4991 183.6 45.4991 181.332C45.4991 179.176 46.9551 177.51 48.9991 177.51C51.1271 177.51 52.2611 179.12 52.2611 181.136V181.696H47.1091C47.2351 182.956 47.9911 183.726 49.0691 183.726C49.8951 183.726 50.5531 183.306 50.7771 182.55L52.2191 183.096C51.7011 184.384 50.5391 185.154 49.0691 185.154ZM48.9851 178.924C48.1171 178.924 47.4451 179.442 47.1931 180.436H50.5671C50.5531 179.624 50.0491 178.924 48.9851 178.924ZM55.2016 180.688V185H53.5216V177.65H55.2016V178.434C55.6076 177.944 56.2376 177.51 57.2176 177.51C58.0996 177.51 58.7576 177.902 59.1636 178.532C59.6116 178.056 60.3116 177.51 61.4456 177.51C62.9576 177.51 63.9376 178.574 63.9376 180.156V185H62.2576V180.646C62.2576 179.736 61.9216 179.078 61.0256 179.078C60.3116 179.078 59.5696 179.638 59.5696 180.688V185H57.8896V180.646C57.8896 179.736 57.5536 179.078 56.6576 179.078C55.9436 179.078 55.2016 179.638 55.2016 180.688ZM68.7566 185.154C66.6566 185.154 65.1866 183.6 65.1866 181.332C65.1866 179.176 66.6426 177.51 68.6866 177.51C70.8146 177.51 71.9486 179.12 71.9486 181.136V181.696H66.7966C66.9226 182.956 67.6786 183.726 68.7566 183.726C69.5826 183.726 70.2406 183.306 70.4646 182.55L71.9066 183.096C71.3886 184.384 70.2266 185.154 68.7566 185.154ZM68.6726 178.924C67.8046 178.924 67.1326 179.442 66.8806 180.436H70.2546C70.2406 179.624 69.7366 178.924 68.6726 178.924ZM73.2091 185V177.65H74.8891V178.434C75.3091 177.944 75.9671 177.51 76.9191 177.51C78.4591 177.51 79.3831 178.574 79.3831 180.156V185H77.7031V180.646C77.7031 179.736 77.3391 179.078 76.4151 179.078C75.6591 179.078 74.8891 179.638 74.8891 180.688V185H73.2091ZM81.2518 183.152V179.078H80.2298V177.65H81.2518V175.494H82.9038V177.65H84.4438V179.078H82.9038V182.886C82.9038 183.544 83.2818 183.614 83.8838 183.614C84.1638 183.614 84.3178 183.6 84.5698 183.572V184.986C84.2618 185.042 83.8418 185.084 83.4078 185.084C82.0078 185.084 81.2518 184.65 81.2518 183.152Z" fill="#20336B"/>
<path d="M334 117L329 114.113V119.887L334 117ZM302 117.5H329.5V116.5H302V117.5Z" fill="#20336B"/>
<path d="M266 143.5C281.188 143.5 293.5 131.188 293.5 116C293.5 100.812 281.188 88.5 266 88.5C250.812 88.5 238.5 100.812 238.5 116C238.5 131.188 250.812 143.5 266 143.5Z" stroke="#20336B"/>
<path d="M260 118H268V121H260V118Z" fill="#00BAF2"/>
<path fill-rule="evenodd" clip-rule="evenodd" d="M257 107H275V109H257V107Z" fill="#20336B"/>
<path fill-rule="evenodd" clip-rule="evenodd" d="M275 117V124C275 124.265 274.895 124.52 274.707 124.707C274.52 124.895 274.265 125 274 125H258C257.735 125 257.48 124.895 257.293 124.707C257.105 124.52 257 124.265 257 124V117H256V115L257 110H275L276 115V117H275ZM259 123V117H273V123H259ZM273.96 115H258.04L258.64 112H273.36L273.96 115Z" fill="#20336B"/>
<path d="M250.175 167H248.719L246.087 159.23V167H244.421V156.948H246.885L249.475 164.648L252.065 156.948H254.473V167H252.807V159.23L250.175 167ZM262.922 163.332C262.922 165.614 261.452 167.154 259.38 167.154C257.308 167.154 255.838 165.614 255.838 163.332C255.838 161.05 257.308 159.51 259.38 159.51C261.452 159.51 262.922 161.05 262.922 163.332ZM257.532 163.332C257.532 164.83 258.246 165.74 259.38 165.74C260.514 165.74 261.228 164.83 261.228 163.332C261.228 161.834 260.514 160.924 259.38 160.924C258.246 160.924 257.532 161.834 257.532 163.332ZM264.23 167V159.65H265.91V160.434C266.33 159.944 266.988 159.51 267.94 159.51C269.48 159.51 270.404 160.574 270.404 162.156V167H268.724V162.646C268.724 161.736 268.36 161.078 267.436 161.078C266.68 161.078 265.91 161.638 265.91 162.688V167H264.23ZM272.272 165.152V161.078H271.25V159.65H272.272V157.494H273.924V159.65H275.464V161.078H273.924V164.886C273.924 165.544 274.302 165.614 274.904 165.614C275.184 165.614 275.338 165.6 275.59 165.572V166.986C275.282 167.042 274.862 167.084 274.428 167.084C273.028 167.084 272.272 166.65 272.272 165.152ZM281.021 159.636V161.316C280.811 161.288 280.643 161.274 280.405 161.274C279.341 161.274 278.529 161.96 278.529 163.136V167H276.849V159.65H278.529V160.742C278.851 160.056 279.607 159.608 280.545 159.608C280.741 159.608 280.895 159.622 281.021 159.636ZM283.922 167.126C282.522 167.126 281.444 166.272 281.444 164.956C281.444 163.556 282.494 162.94 283.908 162.646L285.938 162.226V162.1C285.938 161.4 285.574 160.966 284.678 160.966C283.88 160.966 283.46 161.33 283.264 162.044L281.682 161.68C282.046 160.462 283.124 159.51 284.748 159.51C286.512 159.51 287.576 160.35 287.576 162.044V165.208C287.576 165.628 287.758 165.754 288.22 165.698V167C287.002 167.14 286.358 166.902 286.106 166.3C285.644 166.818 284.874 167.126 283.922 167.126ZM285.938 164.41V163.514L284.356 163.85C283.642 164.004 283.11 164.228 283.11 164.886C283.11 165.46 283.53 165.782 284.174 165.782C285.07 165.782 285.938 165.306 285.938 164.41ZM249.168 183.04L250.54 181.906C251.24 182.998 252.29 183.628 253.438 183.628C254.572 183.628 255.426 183.11 255.426 182.144C255.426 181.122 254.376 180.982 252.878 180.618C251.366 180.254 249.742 179.806 249.742 177.846C249.742 175.984 251.338 174.794 253.368 174.794C255.09 174.794 256.434 175.606 257.106 176.656L255.79 177.79C255.23 176.922 254.488 176.32 253.312 176.32C252.234 176.32 251.492 176.866 251.492 177.664C251.492 178.546 252.262 178.728 253.62 179.036C255.244 179.4 257.19 179.778 257.19 181.962C257.19 183.936 255.454 185.154 253.382 185.154C251.66 185.154 249.952 184.328 249.168 183.04ZM258.669 183.152V179.078H257.647V177.65H258.669V175.494H260.321V177.65H261.861V179.078H260.321V182.886C260.321 183.544 260.699 183.614 261.301 183.614C261.581 183.614 261.735 183.6 261.987 183.572V184.986C261.679 185.042 261.259 185.084 260.825 185.084C259.425 185.084 258.669 184.65 258.669 183.152ZM269.799 181.332C269.799 183.614 268.329 185.154 266.257 185.154C264.185 185.154 262.715 183.614 262.715 181.332C262.715 179.05 264.185 177.51 266.257 177.51C268.329 177.51 269.799 179.05 269.799 181.332ZM264.409 181.332C264.409 182.83 265.123 183.74 266.257 183.74C267.391 183.74 268.105 182.83 268.105 181.332C268.105 179.834 267.391 178.924 266.257 178.924C265.123 178.924 264.409 179.834 264.409 181.332ZM275.279 177.636V179.316C275.069 179.288 274.901 179.274 274.663 179.274C273.599 179.274 272.787 179.96 272.787 181.136V185H271.107V177.65H272.787V178.742C273.109 178.056 273.865 177.608 274.803 177.608C274.999 177.608 275.153 177.622 275.279 177.636ZM279.191 185.154C277.091 185.154 275.621 183.6 275.621 181.332C275.621 179.176 277.077 177.51 279.121 177.51C281.249 177.51 282.383 179.12 282.383 181.136V181.696H277.231C277.357 182.956 278.113 183.726 279.191 183.726C280.017 183.726 280.675 183.306 280.899 182.55L282.341 183.096C281.823 184.384 280.661 185.154 279.191 185.154ZM279.107 178.924C278.239 178.924 277.567 179.442 277.315 180.436H280.689C280.675 179.624 280.171 178.924 279.107 178.924Z" fill="#20336B"/>
<path d="M370 143.5C385.188 143.5 397.5 131.188 397.5 116C397.5 100.812 385.188 88.5 370 88.5C354.812 88.5 342.5 100.812 342.5 116C342.5 131.188 354.812 143.5 370 143.5Z" stroke="#20336B"/>
<path fill-rule="evenodd" clip-rule="evenodd" d="M374.36 114C374.44 114.66 374.5 115.32 374.5 116C374.5 116.54 374.46 117.07 374.4 117.6C373.314 118.119 372.411 118.956 371.81 120H368.09C368.5 121.43 369.17 122.76 370 123.96C370.4 123.39 370.75 122.78 371.07 122.15C371.03 122.43 371 122.71 371 123C370.997 123.992 371.245 124.969 371.72 125.84C371.16 125.94 370.59 126 370 126C364.5 126 360 121.5 360 116C360 110.5 364.47 106 370 106C375.5 106 380 110.5 380 116C380 116.59 379.94 117.16 379.84 117.72C379.25 117.4 378.61 117.18 377.92 117.08C377.97 116.73 378 116.37 378 116C378 115.31 377.9 114.64 377.74 114H374.36ZM371.91 112C371.5 110.57 370.83 109.23 370 108.03C369.17 109.23 368.5 110.57 368.09 112H371.91ZM362 116C362 116.69 362.1 117.36 362.26 118H365.64C365.56 117.34 365.5 116.68 365.5 116C365.5 115.32 365.56 114.66 365.64 114H362.26C362.1 114.64 362 115.31 362 116ZM366 120H363.08C364.045 121.668 365.579 122.932 367.4 123.56C366.8 122.45 366.35 121.25 366 120ZM363.08 112H366C366.35 110.75 366.8 109.55 367.4 108.44C365.575 109.061 364.039 110.327 363.08 112ZM367.66 118H372.34C372.43 117.34 372.5 116.68 372.5 116C372.5 115.32 372.43 114.65 372.34 114H367.66C367.56 114.65 367.5 115.32 367.5 116C367.5 116.68 367.56 117.34 367.66 118ZM376.92 112C375.96 110.34 374.43 109.07 372.59 108.44C373.194 109.566 373.657 110.761 373.97 112H376.92Z" fill="#20336B"/>
<path d="M380.5 121.25L375.75 126L373 123L374.16 121.84L375.75 123.43L379.34 119.84L380.5 121.25Z" fill="#00BAF2"/>
<path d="M345.093 163.108V167H343.301V156.948H347.319C349.559 156.948 350.959 157.998 350.959 160.028C350.959 162.03 349.559 163.108 347.319 163.108H345.093ZM345.093 161.568H347.221C348.509 161.568 349.195 161.008 349.195 160.028C349.195 159.034 348.509 158.488 347.221 158.488H345.093V161.568ZM353.749 167.126C352.349 167.126 351.271 166.272 351.271 164.956C351.271 163.556 352.321 162.94 353.735 162.646L355.765 162.226V162.1C355.765 161.4 355.401 160.966 354.505 160.966C353.707 160.966 353.287 161.33 353.091 162.044L351.509 161.68C351.873 160.462 352.951 159.51 354.575 159.51C356.339 159.51 357.403 160.35 357.403 162.044V165.208C357.403 165.628 357.585 165.754 358.047 165.698V167C356.829 167.14 356.185 166.902 355.933 166.3C355.471 166.818 354.701 167.126 353.749 167.126ZM355.765 164.41V163.514L354.183 163.85C353.469 164.004 352.937 164.228 352.937 164.886C352.937 165.46 353.357 165.782 354.001 165.782C354.897 165.782 355.765 165.306 355.765 164.41ZM362.296 167.686C361.876 168.806 361.232 169.576 359.706 169.576C359.356 169.576 359.258 169.562 359.02 169.534V168.12C359.244 168.148 359.37 168.162 359.58 168.162C360.14 168.162 360.406 168.008 360.644 167.42L360.924 166.734L358.25 159.65H360.014L361.82 164.802L363.584 159.65H365.32L362.296 167.686ZM367.907 162.688V167H366.227V159.65H367.907V160.434C368.313 159.944 368.943 159.51 369.923 159.51C370.805 159.51 371.463 159.902 371.869 160.532C372.317 160.056 373.017 159.51 374.151 159.51C375.663 159.51 376.643 160.574 376.643 162.156V167H374.963V162.646C374.963 161.736 374.627 161.078 373.731 161.078C373.017 161.078 372.275 161.638 372.275 162.688V167H370.595V162.646C370.595 161.736 370.259 161.078 369.363 161.078C368.649 161.078 367.907 161.638 367.907 162.688ZM381.462 167.154C379.362 167.154 377.892 165.6 377.892 163.332C377.892 161.176 379.348 159.51 381.392 159.51C383.52 159.51 384.654 161.12 384.654 163.136V163.696H379.502C379.628 164.956 380.384 165.726 381.462 165.726C382.288 165.726 382.946 165.306 383.17 164.55L384.612 165.096C384.094 166.384 382.932 167.154 381.462 167.154ZM381.378 160.924C380.51 160.924 379.838 161.442 379.586 162.436H382.96C382.946 161.624 382.442 160.924 381.378 160.924ZM385.914 167V159.65H387.594V160.434C388.014 159.944 388.672 159.51 389.624 159.51C391.164 159.51 392.088 160.574 392.088 162.156V167H390.408V162.646C390.408 161.736 390.044 161.078 389.12 161.078C388.364 161.078 387.594 161.638 387.594 162.688V167H385.914ZM393.957 165.152V161.078H392.935V159.65H393.957V157.494H395.609V159.65H397.149V161.078H395.609V164.886C395.609 165.544 395.987 165.614 396.589 165.614C396.869 165.614 397.023 165.6 397.275 165.572V166.986C396.967 167.042 396.547 167.084 396.113 167.084C394.713 167.084 393.957 166.65 393.957 165.152ZM350.643 185V183.964C350.237 184.636 349.257 185.154 347.941 185.154C345.337 185.154 343.405 183.054 343.405 180.016C343.405 176.964 345.351 174.794 348.053 174.794C350.111 174.794 351.497 175.9 352.113 177.678L350.405 178.252C350.111 177.062 349.271 176.376 348.067 176.376C346.373 176.376 345.197 177.818 345.197 179.988C345.197 182.158 346.373 183.614 348.095 183.614C349.551 183.614 350.503 182.578 350.559 181.15H347.913V179.582H352.281V185H350.643ZM355.971 185.126C354.571 185.126 353.493 184.272 353.493 182.956C353.493 181.556 354.543 180.94 355.957 180.646L357.987 180.226V180.1C357.987 179.4 357.623 178.966 356.727 178.966C355.929 178.966 355.509 179.33 355.313 180.044L353.731 179.68C354.095 178.462 355.173 177.51 356.797 177.51C358.561 177.51 359.625 178.35 359.625 180.044V183.208C359.625 183.628 359.807 183.754 360.269 183.698V185C359.051 185.14 358.407 184.902 358.155 184.3C357.693 184.818 356.923 185.126 355.971 185.126ZM357.987 182.41V181.514L356.405 181.85C355.691 182.004 355.159 182.228 355.159 182.886C355.159 183.46 355.579 183.782 356.223 183.782C357.119 183.782 357.987 183.306 357.987 182.41ZM361.616 183.152V179.078H360.594V177.65H361.616V175.494H363.268V177.65H364.808V179.078H363.268V182.886C363.268 183.544 363.646 183.614 364.248 183.614C364.528 183.614 364.682 183.6 364.934 183.572V184.986C364.626 185.042 364.206 185.084 363.772 185.084C362.372 185.084 361.616 184.65 361.616 183.152ZM369.232 185.154C367.132 185.154 365.662 183.6 365.662 181.332C365.662 179.176 367.118 177.51 369.162 177.51C371.29 177.51 372.424 179.12 372.424 181.136V181.696H367.272C367.398 182.956 368.154 183.726 369.232 183.726C370.058 183.726 370.716 183.306 370.94 182.55L372.382 183.096C371.864 184.384 370.702 185.154 369.232 185.154ZM369.148 178.924C368.28 178.924 367.608 179.442 367.356 180.436H370.73C370.716 179.624 370.212 178.924 369.148 178.924ZM377.116 177.65H378.502L379.818 182.522L381.12 177.65H382.786L380.574 185H379.118L377.774 180.184L376.43 185H374.974L372.762 177.65H374.484L375.814 182.522L377.116 177.65ZM385.433 185.126C384.033 185.126 382.955 184.272 382.955 182.956C382.955 181.556 384.005 180.94 385.419 180.646L387.449 180.226V180.1C387.449 179.4 387.085 178.966 386.189 178.966C385.391 178.966 384.971 179.33 384.775 180.044L383.193 179.68C383.557 178.462 384.635 177.51 386.259 177.51C388.023 177.51 389.087 178.35 389.087 180.044V183.208C389.087 183.628 389.269 183.754 389.731 183.698V185C388.513 185.14 387.869 184.902 387.617 184.3C387.155 184.818 386.385 185.126 385.433 185.126ZM387.449 182.41V181.514L385.867 181.85C385.153 182.004 384.621 182.228 384.621 182.886C384.621 183.46 385.041 183.782 385.685 183.782C386.581 183.782 387.449 183.306 387.449 182.41ZM393.98 185.686C393.56 186.806 392.916 187.576 391.39 187.576C391.04 187.576 390.942 187.562 390.704 187.534V186.12C390.928 186.148 391.054 186.162 391.264 186.162C391.824 186.162 392.09 186.008 392.328 185.42L392.608 184.734L389.934 177.65H391.698L393.504 182.802L395.268 177.65H397.004L393.98 185.686Z" fill="#20336B"/>
<path d="M230 117L225 114.113V119.887L230 117ZM198 117.5H225.5V116.5H198V117.5Z" fill="#20336B"/>
<path d="M161.5 143.5C176.688 143.5 189 131.188 189 116C189 100.812 176.688 88.5 161.5 88.5C146.312 88.5 134 100.812 134 116C134 131.188 146.312 143.5 161.5 143.5Z" stroke="#20336B"/>
<path fill-rule="evenodd" clip-rule="evenodd" d="M156.073 104C155.806 104 155.548 104.107 155.359 104.297L154.037 105.619L153.224 104.805L153.224 104.805C152.936 104.518 152.503 104.429 152.125 104.586C151.745 104.741 151.5 105.111 151.5 105.518V126.482C151.5 126.889 151.745 127.259 152.125 127.414C152.503 127.571 152.936 127.482 153.224 127.195L154.037 126.381L155.358 127.702L155.359 127.703C155.548 127.893 155.806 128 156.073 128C156.343 128 156.599 127.892 156.788 127.704L158.11 126.381L159.432 127.704C159.621 127.892 159.877 128 160.147 128C160.414 128 160.672 127.893 160.861 127.703L160.862 127.702L162 126.564V125.209C161.938 125.233 161.88 125.27 161.829 125.32L160.153 126.996L160.152 126.998C160.151 126.999 160.149 127 160.147 127C160.145 127 160.144 127 160.144 126.999C160.143 126.999 160.141 126.998 160.14 126.996L158.464 125.32C158.268 125.125 157.952 125.125 157.756 125.32L156.08 126.996C156.079 126.998 156.077 126.999 156.076 126.999C156.076 127 156.075 127 156.073 127C156.071 127 156.069 126.999 156.068 126.998L156.067 126.996L154.391 125.32C154.195 125.125 153.879 125.125 153.683 125.32L152.516 126.487C152.512 126.491 152.509 126.491 152.507 126.49L152.504 126.489C152.502 126.488 152.5 126.486 152.5 126.482V105.518C152.5 105.514 152.502 105.512 152.504 105.511L152.504 105.511L152.507 105.51C152.509 105.509 152.512 105.509 152.516 105.513L152.516 105.513L153.683 106.68C153.879 106.875 154.195 106.875 154.391 106.68L156.067 105.004L156.067 105.004L156.068 105.002C156.069 105.001 156.071 105 156.073 105C156.075 105 156.076 105 156.076 105.001C156.077 105.001 156.079 105.002 156.08 105.004L157.756 106.68C157.952 106.875 158.268 106.875 158.464 106.68L160.14 105.004C160.141 105.002 160.143 105.001 160.144 105.001C160.144 105 160.145 105 160.147 105C160.149 105 160.151 105.001 160.152 105.002L160.152 105.002L160.153 105.004L161.829 106.68C162.025 106.875 162.341 106.875 162.536 106.68L164.213 105.004L164.213 105.004L164.215 105.002C164.216 105.001 164.218 105 164.22 105C164.222 105 164.225 105.001 164.227 105.004L164.581 104.65L164.227 105.004L165.903 106.68C166.099 106.875 166.415 106.875 166.611 106.68L167.778 105.513L167.779 105.511C167.78 105.51 167.784 105.508 167.788 105.51L167.789 105.511C167.79 105.511 167.793 105.513 167.793 105.518V124H168.793V105.518C168.793 105.111 168.548 104.742 168.17 104.586C167.792 104.43 167.358 104.516 167.07 104.806L167.069 104.807L166.257 105.619L164.935 104.296C164.745 104.107 164.488 104 164.22 104C163.953 104 163.695 104.107 163.506 104.297L163.505 104.298L162.183 105.619L160.862 104.298L160.861 104.297C160.672 104.107 160.414 104 160.147 104C159.877 104 159.621 104.108 159.432 104.296L158.11 105.619L156.788 104.296C156.599 104.108 156.343 104 156.073 104Z" fill="#20336B"/>
<path d="M155.055 110.398H161.165" stroke="#00BAF2" stroke-linecap="round" stroke-linejoin="round"/>
<path d="M155.055 113.457H159.128" stroke="#00BAF2" stroke-linecap="round" stroke-linejoin="round"/>
<path d="M155.055 116.51H160.146" stroke="#00BAF2" stroke-linecap="round" stroke-linejoin="round"/>
<path d="M155.055 119.564H158.11" stroke="#00BAF2" stroke-linecap="round" stroke-linejoin="round"/>
<path d="M164.219 110.398H165.237" stroke="#00BAF2" stroke-linecap="round" stroke-linejoin="round"/>
<path d="M164.219 113.457H165.237" stroke="#00BAF2" stroke-linecap="round" stroke-linejoin="round"/>
<path d="M164.219 116.51H165.237" stroke="#00BAF2" stroke-linecap="round" stroke-linejoin="round"/>
<path d="M164.219 119.564H165.237" stroke="#00BAF2" stroke-linecap="round" stroke-linejoin="round"/>
<rect x="163" y="116" width="13" height="9" rx="1" fill="white"/>
<path fill-rule="evenodd" clip-rule="evenodd" d="M164.305 116.125H174.641C175.194 116.125 175.641 116.573 175.641 117.125V123.552C175.641 124.104 175.194 124.552 174.641 124.552H168.153C168.123 124.899 168.052 125.234 167.947 125.552H174.641C175.746 125.552 176.641 124.656 176.641 123.552V117.125C176.641 116.02 175.746 115.125 174.641 115.125H164.305C163.2 115.125 162.305 116.02 162.305 117.125V120.549C162.614 120.358 162.95 120.211 163.305 120.116V117.125C163.305 116.573 163.752 116.125 164.305 116.125Z" fill="#223872"/>
<path d="M171.752 117.08H164.584C164.404 117.08 164.258 117.226 164.258 117.406C164.258 117.586 164.404 117.732 164.584 117.732H171.752C171.932 117.732 172.078 117.586 172.078 117.406C172.078 117.226 171.932 117.08 171.752 117.08Z" fill="#3FAFE9"/>
<path d="M171.752 118.383H164.584C164.404 118.383 164.258 118.529 164.258 118.709C164.258 118.889 164.404 119.035 164.584 119.035H171.752C171.932 119.035 172.078 118.889 172.078 118.709C172.078 118.529 171.932 118.383 171.752 118.383Z" fill="#3FAFE9"/>
<path d="M167.672 124.248C167.672 126.131 166.145 127.658 164.262 127.658C162.378 127.658 160.852 126.131 160.852 124.248C160.852 122.365 162.378 120.838 164.262 120.838C166.145 120.838 167.672 122.365 167.672 124.248Z" stroke="#223872"/>
<mask id="mask0_1963_1580" style="mask-type:luminance" maskUnits="userSpaceOnUse" x="162" y="122" width="5" height="5">
<path fill-rule="evenodd" clip-rule="evenodd" d="M163.949 123.656L164.294 123.266C164.515 123.016 164.897 122.993 165.147 123.214C165.396 123.436 165.419 123.818 165.198 124.067L164.872 124.435L165.637 125.08L165.947 124.73C166.534 124.067 166.473 123.053 165.81 122.466C165.147 121.878 164.133 121.94 163.545 122.603L163.184 123.01L163.949 123.656ZM163.49 124.174L162.725 123.528L162.482 123.803C161.894 124.467 161.955 125.48 162.618 126.068C163.282 126.655 164.295 126.594 164.883 125.931L165.178 125.598L164.413 124.953L164.134 125.268C163.913 125.518 163.531 125.541 163.282 125.319C163.032 125.098 163.009 124.716 163.23 124.467L163.49 124.174Z" fill="white"/>
</mask>
<g mask="url(#mask0_1963_1580)">
<path d="M163.949 123.656L163.304 124.42L164.05 125.05L164.697 124.319L163.949 123.656ZM164.872 124.435L164.124 123.772L163.445 124.539L164.227 125.199L164.872 124.435ZM165.637 125.08L164.991 125.845L165.738 126.474L166.385 125.744L165.637 125.08ZM163.184 123.01L162.436 122.347L161.757 123.114L162.539 123.774L163.184 123.01ZM163.49 124.174L164.238 124.837L164.917 124.07L164.135 123.409L163.49 124.174ZM162.725 123.528L163.37 122.764L162.624 122.134L161.977 122.865L162.725 123.528ZM165.178 125.598L165.926 126.262L166.605 125.495L165.823 124.834L165.178 125.598ZM164.413 124.953L165.058 124.189L164.312 123.559L163.665 124.29L164.413 124.953ZM163.545 122.603L163.2 122.992L164.697 124.319L165.042 123.929L163.545 122.603ZM165.81 122.466C165.147 121.878 164.133 121.94 163.545 122.603L165.042 123.929C164.897 124.093 164.647 124.108 164.483 123.963L165.81 122.466ZM165.947 124.73C166.534 124.067 166.473 123.053 165.81 122.466L164.483 123.963C164.32 123.818 164.305 123.568 164.45 123.404L165.947 124.73ZM165.621 125.098L165.947 124.73L164.45 123.404L164.124 123.772L165.621 125.098ZM164.227 125.199L164.991 125.845L166.282 124.316L165.517 123.671L164.227 125.199ZM166.385 125.744L166.695 125.394L165.198 124.067L164.888 124.417L166.385 125.744ZM166.695 125.394C167.649 124.317 167.549 122.671 166.473 121.717L165.147 123.214C165.396 123.436 165.419 123.818 165.198 124.067L166.695 125.394ZM166.473 121.717C165.396 120.764 163.751 120.863 162.797 121.94L164.294 123.266C164.515 123.016 164.897 122.993 165.147 123.214L166.473 121.717ZM162.797 121.94L162.436 122.347L163.933 123.673L164.294 123.266L162.797 121.94ZM162.539 123.774L163.304 124.42L164.594 122.891L163.829 122.246L162.539 123.774ZM164.135 123.409L163.37 122.764L162.08 124.292L162.845 124.938L164.135 123.409ZM161.977 122.865L161.733 123.14L163.23 124.467L163.474 124.191L161.977 122.865ZM161.733 123.14C160.779 124.217 160.879 125.863 161.955 126.816L163.282 125.319C163.032 125.098 163.009 124.716 163.23 124.467L161.733 123.14ZM161.955 126.816C163.032 127.77 164.678 127.671 165.631 126.594L164.134 125.268C163.913 125.518 163.531 125.541 163.282 125.319L161.955 126.816ZM165.631 126.594L165.926 126.262L164.429 124.935L164.134 125.268L165.631 126.594ZM165.823 124.834L165.058 124.189L163.768 125.717L164.532 126.363L165.823 124.834ZM164.883 125.931L165.162 125.616L163.665 124.29L163.386 124.605L164.883 125.931ZM162.618 126.068C163.282 126.655 164.295 126.594 164.883 125.931L163.386 124.605C163.531 124.441 163.781 124.426 163.945 124.571L162.618 126.068ZM162.482 123.803C161.894 124.467 161.955 125.48 162.618 126.068L163.945 124.571C164.108 124.716 164.124 124.966 163.979 125.13L162.482 123.803ZM162.741 123.51L162.482 123.803L163.979 125.13L164.238 124.837L162.741 123.51Z" fill="#223872"/>
</g>
<path d="M165.115 123.841C165.23 123.722 165.227 123.531 165.107 123.416C164.988 123.301 164.797 123.304 164.682 123.423L163.429 124.722C163.313 124.841 163.316 125.031 163.436 125.147C163.555 125.262 163.746 125.259 163.861 125.139L165.115 123.841Z" fill="#3FAFE9"/>
<path d="M171.754 123.748C172.378 123.748 172.883 123.243 172.883 122.619C172.883 121.995 172.378 121.49 171.754 121.49C171.13 121.49 170.625 121.995 170.625 122.619C170.625 123.243 171.13 123.748 171.754 123.748Z" stroke="#223872" stroke-width="0.7"/>
<path d="M173.059 123.748C173.683 123.748 174.188 123.243 174.188 122.619C174.188 121.995 173.683 121.49 173.059 121.49C172.435 121.49 171.93 121.995 171.93 122.619C171.93 123.243 172.435 123.748 173.059 123.748Z" stroke="#223872" stroke-width="0.7"/>
<path d="M129.34 156.948V167H127.548V156.948H129.34ZM131.169 167V159.65H132.849V160.434C133.269 159.944 133.927 159.51 134.879 159.51C136.419 159.51 137.343 160.574 137.343 162.156V167H135.663V162.646C135.663 161.736 135.299 161.078 134.375 161.078C133.619 161.078 132.849 161.638 132.849 162.688V167H131.169ZM142.449 167H140.755L138.067 159.65H139.831L141.623 164.984L143.401 159.65H145.137L142.449 167ZM152.488 163.332C152.488 165.614 151.018 167.154 148.946 167.154C146.874 167.154 145.404 165.614 145.404 163.332C145.404 161.05 146.874 159.51 148.946 159.51C151.018 159.51 152.488 161.05 152.488 163.332ZM147.098 163.332C147.098 164.83 147.812 165.74 148.946 165.74C150.08 165.74 150.794 164.83 150.794 163.332C150.794 161.834 150.08 160.924 148.946 160.924C147.812 160.924 147.098 161.834 147.098 163.332ZM153.768 158.67V156.948H155.504V158.67H153.768ZM155.476 159.65V167H153.796V159.65H155.476ZM158.459 163.332C158.459 164.83 159.243 165.698 160.391 165.698C161.287 165.698 161.833 165.11 162.043 164.298L163.485 165.026C163.107 166.216 161.987 167.154 160.391 167.154C158.291 167.154 156.779 165.6 156.779 163.332C156.779 161.064 158.291 159.51 160.391 159.51C161.973 159.51 163.065 160.406 163.457 161.582L162.043 162.352C161.833 161.554 161.287 160.952 160.391 160.952C159.243 160.952 158.459 161.834 158.459 163.332ZM164.473 158.67V156.948H166.209V158.67H164.473ZM166.181 159.65V167H164.501V159.65H166.181ZM167.946 167V159.65H169.626V160.434C170.046 159.944 170.704 159.51 171.656 159.51C173.196 159.51 174.12 160.574 174.12 162.156V167H172.44V162.646C172.44 161.736 172.076 161.078 171.152 161.078C170.396 161.078 169.626 161.638 169.626 162.688V167H167.946ZM182.373 166.258C182.373 168.428 180.889 169.674 178.789 169.674C177.095 169.674 175.905 168.96 175.443 167.532L177.011 166.972C177.235 167.798 177.865 168.316 178.789 168.316C179.923 168.316 180.693 167.756 180.693 166.412V165.894C180.301 166.412 179.559 166.818 178.621 166.818C176.605 166.818 175.401 165.18 175.401 163.164C175.401 161.148 176.605 159.51 178.621 159.51C179.545 159.51 180.301 159.916 180.693 160.434V159.65H182.373V166.258ZM180.721 163.094C180.721 161.75 179.993 160.98 178.943 160.98C177.781 160.98 177.095 161.792 177.095 163.164C177.095 164.522 177.781 165.348 178.943 165.348C179.993 165.348 180.721 164.578 180.721 163.262V163.094ZM190.406 156.85C190.91 156.85 191.34 156.939 191.694 157.116C192.058 157.284 192.338 157.527 192.534 157.844C192.73 158.161 192.828 158.549 192.828 159.006C192.828 159.594 192.637 160.093 192.254 160.504C191.881 160.915 191.405 161.288 190.826 161.624L193.528 164.228C193.771 163.939 193.967 163.607 194.116 163.234C194.275 162.851 194.406 162.441 194.508 162.002H195.754C195.605 162.599 195.418 163.155 195.194 163.668C194.97 164.181 194.681 164.629 194.326 165.012L196.37 167H194.704L193.486 165.824C193.262 166.02 193.029 166.202 192.786 166.37C192.553 166.529 192.296 166.664 192.016 166.776C191.736 166.888 191.433 166.977 191.106 167.042C190.789 167.107 190.434 167.14 190.042 167.14C189.398 167.14 188.838 167.037 188.362 166.832C187.896 166.617 187.532 166.305 187.27 165.894C187.018 165.483 186.892 164.984 186.892 164.396C186.892 163.92 186.976 163.509 187.144 163.164C187.322 162.819 187.574 162.511 187.9 162.24C188.227 161.969 188.61 161.708 189.048 161.456C188.852 161.232 188.661 160.999 188.474 160.756C188.288 160.513 188.134 160.252 188.012 159.972C187.891 159.683 187.83 159.37 187.83 159.034C187.83 158.577 187.933 158.185 188.138 157.858C188.344 157.531 188.638 157.284 189.02 157.116C189.412 156.939 189.874 156.85 190.406 156.85ZM189.79 162.226C189.454 162.422 189.165 162.623 188.922 162.828C188.689 163.024 188.507 163.243 188.376 163.486C188.246 163.729 188.18 164.018 188.18 164.354C188.18 164.867 188.353 165.278 188.698 165.586C189.044 165.894 189.506 166.048 190.084 166.048C190.682 166.048 191.195 165.95 191.624 165.754C192.054 165.558 192.413 165.325 192.702 165.054L189.79 162.226ZM190.364 157.858C189.972 157.858 189.65 157.961 189.398 158.166C189.156 158.371 189.034 158.656 189.034 159.02C189.034 159.356 189.123 159.669 189.3 159.958C189.478 160.238 189.734 160.551 190.07 160.896C190.621 160.579 191.013 160.28 191.246 160C191.489 159.711 191.61 159.379 191.61 159.006C191.61 158.67 191.498 158.395 191.274 158.18C191.05 157.965 190.747 157.858 190.364 157.858ZM120.002 181.108V185H118.21V174.948H122.228C124.468 174.948 125.868 175.998 125.868 178.028C125.868 180.03 124.468 181.108 122.228 181.108H120.002ZM120.002 179.568H122.13C123.418 179.568 124.104 179.008 124.104 178.028C124.104 177.034 123.418 176.488 122.13 176.488H120.002V179.568ZM128.658 185.126C127.258 185.126 126.18 184.272 126.18 182.956C126.18 181.556 127.23 180.94 128.644 180.646L130.674 180.226V180.1C130.674 179.4 130.31 178.966 129.414 178.966C128.616 178.966 128.196 179.33 128 180.044L126.418 179.68C126.782 178.462 127.86 177.51 129.484 177.51C131.248 177.51 132.312 178.35 132.312 180.044V183.208C132.312 183.628 132.494 183.754 132.956 183.698V185C131.738 185.14 131.094 184.902 130.842 184.3C130.38 184.818 129.61 185.126 128.658 185.126ZM130.674 182.41V181.514L129.092 181.85C128.378 182.004 127.846 182.228 127.846 182.886C127.846 183.46 128.266 183.782 128.91 183.782C129.806 183.782 130.674 183.306 130.674 182.41ZM137.205 185.686C136.785 186.806 136.141 187.576 134.615 187.576C134.265 187.576 134.167 187.562 133.929 187.534V186.12C134.153 186.148 134.279 186.162 134.489 186.162C135.049 186.162 135.315 186.008 135.553 185.42L135.833 184.734L133.159 177.65H134.923L136.729 182.802L138.493 177.65H140.229L137.205 185.686ZM142.816 180.688V185H141.136V177.65H142.816V178.434C143.222 177.944 143.852 177.51 144.832 177.51C145.714 177.51 146.372 177.902 146.778 178.532C147.226 178.056 147.926 177.51 149.06 177.51C150.572 177.51 151.552 178.574 151.552 180.156V185H149.872V180.646C149.872 179.736 149.536 179.078 148.64 179.078C147.926 179.078 147.184 179.638 147.184 180.688V185H145.504V180.646C145.504 179.736 145.168 179.078 144.272 179.078C143.558 179.078 142.816 179.638 142.816 180.688ZM156.371 185.154C154.271 185.154 152.801 183.6 152.801 181.332C152.801 179.176 154.257 177.51 156.301 177.51C158.429 177.51 159.563 179.12 159.563 181.136V181.696H154.411C154.537 182.956 155.293 183.726 156.371 183.726C157.197 183.726 157.855 183.306 158.079 182.55L159.521 183.096C159.003 184.384 157.841 185.154 156.371 185.154ZM156.287 178.924C155.419 178.924 154.747 179.442 154.495 180.436H157.869C157.855 179.624 157.351 178.924 156.287 178.924ZM160.823 185V177.65H162.503V178.434C162.923 177.944 163.581 177.51 164.533 177.51C166.073 177.51 166.997 178.574 166.997 180.156V185H165.317V180.646C165.317 179.736 164.953 179.078 164.029 179.078C163.273 179.078 162.503 179.638 162.503 180.688V185H160.823ZM168.866 183.152V179.078H167.844V177.65H168.866V175.494H170.518V177.65H172.058V179.078H170.518V182.886C170.518 183.544 170.896 183.614 171.498 183.614C171.778 183.614 171.932 183.6 172.184 183.572V184.986C171.876 185.042 171.456 185.084 171.022 185.084C169.622 185.084 168.866 184.65 168.866 183.152ZM176.397 185V174.948H178.189V183.432H182.921V185H176.397ZM183.983 176.67V174.948H185.719V176.67H183.983ZM185.691 177.65V185H184.011V177.65H185.691ZM187.456 185V177.65H189.136V178.434C189.556 177.944 190.214 177.51 191.166 177.51C192.706 177.51 193.63 178.574 193.63 180.156V185H191.95V180.646C191.95 179.736 191.586 179.078 190.662 179.078C189.906 179.078 189.136 179.638 189.136 180.688V185H187.456ZM197.025 174.948V180.744L199.853 177.65H201.911L199.139 180.506L202.135 185H200.189L197.991 181.682L197.025 182.662V185H195.345V174.948H197.025Z" fill="#20336B"/>
</svg>
