<svg width="467" height="186" viewBox="0 0 467 186" fill="none" xmlns="http://www.w3.org/2000/svg">
<path d="M26.9706 15H25.5146L22.8826 7.23V15H21.2166V4.948H23.6806L26.2706 12.648L28.8606 4.948H31.2686V15H29.6026V7.23L26.9706 15ZM39.7179 11.332C39.7179 13.614 38.2479 15.154 36.1759 15.154C34.1039 15.154 32.6339 13.614 32.6339 11.332C32.6339 9.05 34.1039 7.51 36.1759 7.51C38.2479 7.51 39.7179 9.05 39.7179 11.332ZM34.3279 11.332C34.3279 12.83 35.0419 13.74 36.1759 13.74C37.3099 13.74 38.0239 12.83 38.0239 11.332C38.0239 9.834 37.3099 8.924 36.1759 8.924C35.0419 8.924 34.3279 9.834 34.3279 11.332ZM41.0256 15V7.65H42.7056V8.434C43.1256 7.944 43.7836 7.51 44.7356 7.51C46.2756 7.51 47.1996 8.574 47.1996 10.156V15H45.5196V10.646C45.5196 9.736 45.1556 9.078 44.2316 9.078C43.4756 9.078 42.7056 9.638 42.7056 10.688V15H41.0256ZM49.0682 13.152V9.078H48.0462V7.65H49.0682V5.494H50.7202V7.65H52.2602V9.078H50.7202V12.886C50.7202 13.544 51.0982 13.614 51.7002 13.614C51.9802 13.614 52.1342 13.6 52.3862 13.572V14.986C52.0782 15.042 51.6582 15.084 51.2242 15.084C49.8242 15.084 49.0682 14.65 49.0682 13.152ZM57.8167 7.636V9.316C57.6067 9.288 57.4387 9.274 57.2007 9.274C56.1367 9.274 55.3247 9.96 55.3247 11.136V15H53.6447V7.65H55.3247V8.742C55.6467 8.056 56.4027 7.608 57.3407 7.608C57.5367 7.608 57.6907 7.622 57.8167 7.636ZM60.7176 15.126C59.3176 15.126 58.2396 14.272 58.2396 12.956C58.2396 11.556 59.2896 10.94 60.7036 10.646L62.7336 10.226V10.1C62.7336 9.4 62.3696 8.966 61.4736 8.966C60.6756 8.966 60.2556 9.33 60.0596 10.044L58.4776 9.68C58.8416 8.462 59.9196 7.51 61.5436 7.51C63.3076 7.51 64.3716 8.35 64.3716 10.044V13.208C64.3716 13.628 64.5536 13.754 65.0156 13.698V15C63.7976 15.14 63.1536 14.902 62.9016 14.3C62.4396 14.818 61.6696 15.126 60.7176 15.126ZM62.7336 12.41V11.514L61.1516 11.85C60.4376 12.004 59.9056 12.228 59.9056 12.886C59.9056 13.46 60.3256 13.782 60.9696 13.782C61.8656 13.782 62.7336 13.306 62.7336 12.41ZM68.1419 13.04L69.5139 11.906C70.2139 12.998 71.2639 13.628 72.4119 13.628C73.5459 13.628 74.3999 13.11 74.3999 12.144C74.3999 11.122 73.3499 10.982 71.8519 10.618C70.3399 10.254 68.7159 9.806 68.7159 7.846C68.7159 5.984 70.3119 4.794 72.3419 4.794C74.0639 4.794 75.4079 5.606 76.0799 6.656L74.7639 7.79C74.2039 6.922 73.4619 6.32 72.2859 6.32C71.2079 6.32 70.4659 6.866 70.4659 7.664C70.4659 8.546 71.2359 8.728 72.5939 9.036C74.2179 9.4 76.1639 9.778 76.1639 11.962C76.1639 13.936 74.4279 15.154 72.3559 15.154C70.6339 15.154 68.9259 14.328 68.1419 13.04ZM77.6424 13.152V9.078H76.6204V7.65H77.6424V5.494H79.2944V7.65H80.8344V9.078H79.2944V12.886C79.2944 13.544 79.6724 13.614 80.2744 13.614C80.5544 13.614 80.7084 13.6 80.9604 13.572V14.986C80.6524 15.042 80.2324 15.084 79.7984 15.084C78.3984 15.084 77.6424 14.65 77.6424 13.152ZM88.7726 11.332C88.7726 13.614 87.3026 15.154 85.2306 15.154C83.1586 15.154 81.6886 13.614 81.6886 11.332C81.6886 9.05 83.1586 7.51 85.2306 7.51C87.3026 7.51 88.7726 9.05 88.7726 11.332ZM83.3826 11.332C83.3826 12.83 84.0966 13.74 85.2306 13.74C86.3646 13.74 87.0786 12.83 87.0786 11.332C87.0786 9.834 86.3646 8.924 85.2306 8.924C84.0966 8.924 83.3826 9.834 83.3826 11.332ZM94.2522 7.636V9.316C94.0422 9.288 93.8742 9.274 93.6362 9.274C92.5722 9.274 91.7602 9.96 91.7602 11.136V15H90.0802V7.65H91.7602V8.742C92.0822 8.056 92.8382 7.608 93.7762 7.608C93.9722 7.608 94.1262 7.622 94.2522 7.636ZM98.1648 15.154C96.0648 15.154 94.5948 13.6 94.5948 11.332C94.5948 9.176 96.0508 7.51 98.0948 7.51C100.223 7.51 101.357 9.12 101.357 11.136V11.696H96.2048C96.3308 12.956 97.0868 13.726 98.1648 13.726C98.9908 13.726 99.6488 13.306 99.8728 12.55L101.315 13.096C100.797 14.384 99.6348 15.154 98.1648 15.154ZM98.0808 8.924C97.2128 8.924 96.5408 9.442 96.2888 10.436H99.6628C99.6488 9.624 99.1448 8.924 98.0808 8.924ZM32.583 33H31.127L28.495 25.23V33H26.829V22.948H29.293L31.883 30.648L34.473 22.948H36.881V33H35.215V25.23L32.583 33ZM41.8162 33.154C39.7162 33.154 38.2462 31.6 38.2462 29.332C38.2462 27.176 39.7022 25.51 41.7462 25.51C43.8742 25.51 45.0082 27.12 45.0082 29.136V29.696H39.8562C39.9822 30.956 40.7382 31.726 41.8162 31.726C42.6422 31.726 43.3002 31.306 43.5242 30.55L44.9662 31.096C44.4482 32.384 43.2862 33.154 41.8162 33.154ZM41.7322 26.924C40.8642 26.924 40.1922 27.442 39.9402 28.436H43.3142C43.3002 27.624 42.7962 26.924 41.7322 26.924ZM50.4407 25.636V27.316C50.2307 27.288 50.0627 27.274 49.8247 27.274C48.7607 27.274 47.9487 27.96 47.9487 29.136V33H46.2687V25.65H47.9487V26.742C48.2707 26.056 49.0267 25.608 49.9647 25.608C50.1607 25.608 50.3147 25.622 50.4407 25.636ZM52.4633 29.332C52.4633 30.83 53.2473 31.698 54.3953 31.698C55.2913 31.698 55.8373 31.11 56.0473 30.298L57.4893 31.026C57.1113 32.216 55.9913 33.154 54.3953 33.154C52.2953 33.154 50.7833 31.6 50.7833 29.332C50.7833 27.064 52.2953 25.51 54.3953 25.51C55.9773 25.51 57.0693 26.406 57.4613 27.582L56.0473 28.352C55.8373 27.554 55.2913 26.952 54.3953 26.952C53.2473 26.952 52.4633 27.834 52.4633 29.332ZM58.505 33V22.948H60.185V26.434C60.605 25.944 61.263 25.51 62.215 25.51C63.755 25.51 64.679 26.574 64.679 28.156V33H62.999V28.646C62.999 27.736 62.635 27.078 61.711 27.078C60.955 27.078 60.185 27.638 60.185 28.688V33H58.505ZM68.3397 33.126C66.9397 33.126 65.8617 32.272 65.8617 30.956C65.8617 29.556 66.9117 28.94 68.3257 28.646L70.3557 28.226V28.1C70.3557 27.4 69.9917 26.966 69.0957 26.966C68.2977 26.966 67.8777 27.33 67.6817 28.044L66.0997 27.68C66.4637 26.462 67.5417 25.51 69.1657 25.51C70.9297 25.51 71.9937 26.35 71.9937 28.044V31.208C71.9937 31.628 72.1757 31.754 72.6377 31.698V33C71.4197 33.14 70.7757 32.902 70.5237 32.3C70.0617 32.818 69.2917 33.126 68.3397 33.126ZM70.3557 30.41V29.514L68.7737 29.85C68.0597 30.004 67.5277 30.228 67.5277 30.886C67.5277 31.46 67.9477 31.782 68.5917 31.782C69.4877 31.782 70.3557 31.306 70.3557 30.41ZM73.8312 33V25.65H75.5112V26.434C75.9312 25.944 76.5892 25.51 77.5412 25.51C79.0812 25.51 80.0052 26.574 80.0052 28.156V33H78.3252V28.646C78.3252 27.736 77.9612 27.078 77.0372 27.078C76.2812 27.078 75.5112 27.638 75.5112 28.688V33H73.8312ZM81.8739 31.152V27.078H80.8519V25.65H81.8739V23.494H83.5259V25.65H85.0659V27.078H83.5259V30.886C83.5259 31.544 83.9039 31.614 84.5059 31.614C84.7859 31.614 84.9399 31.6 85.1919 31.572V32.986C84.8839 33.042 84.4639 33.084 84.0299 33.084C82.6299 33.084 81.8739 32.65 81.8739 31.152ZM85.6804 31.6L86.9404 30.592C87.3744 31.306 88.2144 31.782 89.0684 31.782C89.7824 31.782 90.4404 31.53 90.4404 30.872C90.4404 30.242 89.8244 30.172 88.6624 29.934C87.5004 29.696 86.1704 29.402 86.1704 27.834C86.1704 26.49 87.3464 25.51 89.0404 25.51C90.3284 25.51 91.4764 26.084 92.0084 26.896L90.8744 27.918C90.4544 27.26 89.7544 26.882 88.9424 26.882C88.2564 26.882 87.8084 27.19 87.8084 27.68C87.8084 28.212 88.3404 28.31 89.2644 28.506C90.5104 28.772 92.0784 29.038 92.0784 30.718C92.0784 32.202 90.7204 33.154 89.0544 33.154C87.6964 33.154 86.3384 32.608 85.6804 31.6Z" fill="white"/>
<path d="M57 80L59.8868 75H54.1132L57 80ZM56.5 44V75.5H57.5V44H56.5Z" fill="#C5CFD8"/>
<path d="M136 115L131 112.113V117.887L136 115ZM96 115.5H131.5V114.5H96V115.5Z" fill="#C5CFD8"/>
<path d="M258 115L253 112.113V117.887L258 115ZM218 115.5H253.5V114.5H218V115.5Z" fill="#C5CFD8"/>
<path d="M381 115L376 112.113V117.887L381 115ZM341 115.5H376.5V114.5H341V115.5Z" fill="#C5CFD8"/>
<path d="M300.5 141.5C315.688 141.5 328 129.188 328 114C328 98.8122 315.688 86.5 300.5 86.5C285.312 86.5 273 98.8122 273 114C273 129.188 285.312 141.5 300.5 141.5Z" stroke="#C5CFD8"/>
<path d="M258.971 154.948H260.763V165H258.971V160.604H254.155V165H252.363V154.948H254.155V159.036H258.971V154.948ZM269.224 161.332C269.224 163.614 267.754 165.154 265.682 165.154C263.61 165.154 262.14 163.614 262.14 161.332C262.14 159.05 263.61 157.51 265.682 157.51C267.754 157.51 269.224 159.05 269.224 161.332ZM263.834 161.332C263.834 162.83 264.548 163.74 265.682 163.74C266.816 163.74 267.53 162.83 267.53 161.332C267.53 159.834 266.816 158.924 265.682 158.924C264.548 158.924 263.834 159.834 263.834 161.332ZM272.211 160.688V165H270.531V157.65H272.211V158.434C272.617 157.944 273.247 157.51 274.227 157.51C275.109 157.51 275.767 157.902 276.173 158.532C276.621 158.056 277.321 157.51 278.455 157.51C279.967 157.51 280.947 158.574 280.947 160.156V165H279.267V160.646C279.267 159.736 278.931 159.078 278.035 159.078C277.321 159.078 276.579 159.638 276.579 160.688V165H274.899V160.646C274.899 159.736 274.563 159.078 273.667 159.078C272.953 159.078 272.211 159.638 272.211 160.688ZM285.766 165.154C283.666 165.154 282.196 163.6 282.196 161.332C282.196 159.176 283.652 157.51 285.696 157.51C287.824 157.51 288.958 159.12 288.958 161.136V161.696H283.806C283.932 162.956 284.688 163.726 285.766 163.726C286.592 163.726 287.25 163.306 287.474 162.55L288.916 163.096C288.398 164.384 287.236 165.154 285.766 165.154ZM285.682 158.924C284.814 158.924 284.142 159.442 283.89 160.436H287.264C287.25 159.624 286.746 158.924 285.682 158.924ZM292.152 163.04L293.524 161.906C294.224 162.998 295.274 163.628 296.422 163.628C297.556 163.628 298.41 163.11 298.41 162.144C298.41 161.122 297.36 160.982 295.862 160.618C294.35 160.254 292.726 159.806 292.726 157.846C292.726 155.984 294.322 154.794 296.352 154.794C298.074 154.794 299.418 155.606 300.09 156.656L298.774 157.79C298.214 156.922 297.472 156.32 296.296 156.32C295.218 156.32 294.476 156.866 294.476 157.664C294.476 158.546 295.246 158.728 296.604 159.036C298.228 159.4 300.174 159.778 300.174 161.962C300.174 163.936 298.438 165.154 296.366 165.154C294.644 165.154 292.936 164.328 292.152 163.04ZM304.606 165.154C302.506 165.154 301.036 163.6 301.036 161.332C301.036 159.176 302.492 157.51 304.536 157.51C306.664 157.51 307.798 159.12 307.798 161.136V161.696H302.646C302.772 162.956 303.528 163.726 304.606 163.726C305.432 163.726 306.09 163.306 306.314 162.55L307.756 163.096C307.238 164.384 306.076 165.154 304.606 165.154ZM304.522 158.924C303.654 158.924 302.982 159.442 302.73 160.436H306.104C306.09 159.624 305.586 158.924 304.522 158.924ZM313.231 157.636V159.316C313.021 159.288 312.853 159.274 312.615 159.274C311.551 159.274 310.739 159.96 310.739 161.136V165H309.059V157.65H310.739V158.742C311.061 158.056 311.817 157.608 312.755 157.608C312.951 157.608 313.105 157.622 313.231 157.636ZM318.056 165H316.362L313.674 157.65H315.438L317.23 162.984L319.008 157.65H320.744L318.056 165ZM321.623 156.67V154.948H323.359V156.67H321.623ZM323.331 157.65V165H321.651V157.65H323.331ZM326.314 161.332C326.314 162.83 327.098 163.698 328.246 163.698C329.142 163.698 329.688 163.11 329.898 162.298L331.34 163.026C330.962 164.216 329.842 165.154 328.246 165.154C326.146 165.154 324.634 163.6 324.634 161.332C324.634 159.064 326.146 157.51 328.246 157.51C329.828 157.51 330.92 158.406 331.312 159.582L329.898 160.352C329.688 159.554 329.142 158.952 328.246 158.952C327.098 158.952 326.314 159.834 326.314 161.332ZM335.464 165.154C333.364 165.154 331.894 163.6 331.894 161.332C331.894 159.176 333.35 157.51 335.394 157.51C337.522 157.51 338.656 159.12 338.656 161.136V161.696H333.504C333.63 162.956 334.386 163.726 335.464 163.726C336.29 163.726 336.948 163.306 337.172 162.55L338.614 163.096C338.096 164.384 336.934 165.154 335.464 165.154ZM335.38 158.924C334.512 158.924 333.84 159.442 333.588 160.436H336.962C336.948 159.624 336.444 158.924 335.38 158.924ZM339.146 163.6L340.406 162.592C340.84 163.306 341.68 163.782 342.534 163.782C343.248 163.782 343.906 163.53 343.906 162.872C343.906 162.242 343.29 162.172 342.128 161.934C340.966 161.696 339.636 161.402 339.636 159.834C339.636 158.49 340.812 157.51 342.506 157.51C343.794 157.51 344.942 158.084 345.474 158.896L344.34 159.918C343.92 159.26 343.22 158.882 342.408 158.882C341.722 158.882 341.274 159.19 341.274 159.68C341.274 160.212 341.806 160.31 342.73 160.506C343.976 160.772 345.544 161.038 345.544 162.718C345.544 164.202 344.186 165.154 342.52 165.154C341.162 165.154 339.804 164.608 339.146 163.6Z" fill="white"/>
<path d="M28.6649 165V154.948H32.0249C35.1469 154.948 37.0789 156.908 37.0789 159.974C37.0789 163.04 35.1469 165 32.0249 165H28.6649ZM30.4149 163.46H32.0249C34.0969 163.46 35.3149 162.088 35.3149 159.974C35.3149 157.846 34.0969 156.488 32.0109 156.488H30.4149V163.46ZM41.5193 165.154C39.4193 165.154 37.9493 163.6 37.9493 161.332C37.9493 159.176 39.4053 157.51 41.4493 157.51C43.5773 157.51 44.7113 159.12 44.7113 161.136V161.696H39.5593C39.6853 162.956 40.4413 163.726 41.5193 163.726C42.3453 163.726 43.0033 163.306 43.2273 162.55L44.6693 163.096C44.1513 164.384 42.9893 165.154 41.5193 165.154ZM41.4353 158.924C40.5673 158.924 39.8953 159.442 39.6433 160.436H43.0173C43.0033 159.624 42.4993 158.924 41.4353 158.924ZM47.6518 154.948V165H45.9718V154.948H47.6518ZM49.3892 156.67V154.948H51.1252V156.67H49.3892ZM51.0972 157.65V165H49.4172V157.65H51.0972ZM56.3905 165H54.6965L52.0085 157.65H53.7725L55.5645 162.984L57.3425 157.65H59.0785L56.3905 165ZM62.9158 165.154C60.8158 165.154 59.3458 163.6 59.3458 161.332C59.3458 159.176 60.8018 157.51 62.8458 157.51C64.9738 157.51 66.1078 159.12 66.1078 161.136V161.696H60.9558C61.0818 162.956 61.8378 163.726 62.9158 163.726C63.7418 163.726 64.3998 163.306 64.6238 162.55L66.0658 163.096C65.5478 164.384 64.3858 165.154 62.9158 165.154ZM62.8318 158.924C61.9638 158.924 61.2918 159.442 61.0398 160.436H64.4138C64.3998 159.624 63.8958 158.924 62.8318 158.924ZM71.5403 157.636V159.316C71.3303 159.288 71.1623 159.274 70.9243 159.274C69.8603 159.274 69.0483 159.96 69.0483 161.136V165H67.3683V157.65H69.0483V158.742C69.3703 158.056 70.1263 157.608 71.0643 157.608C71.2603 157.608 71.4143 157.622 71.5403 157.636ZM76.0291 165.686C75.6091 166.806 74.9651 167.576 73.4391 167.576C73.0891 167.576 72.9911 167.562 72.7531 167.534V166.12C72.9771 166.148 73.1031 166.162 73.3131 166.162C73.8731 166.162 74.1391 166.008 74.3771 165.42L74.6571 164.734L71.9831 157.65H73.7471L75.5531 162.802L77.3171 157.65H79.0531L76.0291 165.686ZM84.1461 155.004L80.4221 165H79.2181L82.9421 155.004H84.1461ZM10.0901 174.516H6.85611V183H5.06411V174.516H1.83011V172.948H10.0901V174.516ZM11.6532 183.126C10.2532 183.126 9.17519 182.272 9.17519 180.956C9.17519 179.556 10.2252 178.94 11.6392 178.646L13.6692 178.226V178.1C13.6692 177.4 13.3052 176.966 12.4092 176.966C11.6112 176.966 11.1912 177.33 10.9952 178.044L9.41319 177.68C9.77719 176.462 10.8552 175.51 12.4792 175.51C14.2432 175.51 15.3072 176.35 15.3072 178.044V181.208C15.3072 181.628 15.4892 181.754 15.9512 181.698V183C14.7332 183.14 14.0892 182.902 13.8372 182.3C13.3752 182.818 12.6052 183.126 11.6532 183.126ZM13.6692 180.41V179.514L12.0872 179.85C11.3732 180.004 10.8412 180.228 10.8412 180.886C10.8412 181.46 11.2612 181.782 11.9052 181.782C12.8012 181.782 13.6692 181.306 13.6692 180.41ZM18.8247 172.948V178.744L21.6527 175.65H23.7107L20.9387 178.506L23.9347 183H21.9887L19.7907 179.682L18.8247 180.662V183H17.1447V172.948H18.8247ZM27.5398 183.154C25.4398 183.154 23.9698 181.6 23.9698 179.332C23.9698 177.176 25.4258 175.51 27.4698 175.51C29.5978 175.51 30.7318 177.12 30.7318 179.136V179.696H25.5798C25.7058 180.956 26.4618 181.726 27.5398 181.726C28.3658 181.726 29.0238 181.306 29.2478 180.55L30.6898 181.096C30.1718 182.384 29.0098 183.154 27.5398 183.154ZM27.4558 176.924C26.5878 176.924 25.9158 177.442 25.6638 178.436H29.0378C29.0238 177.624 28.5198 176.924 27.4558 176.924ZM38.6144 179.332C38.6144 181.614 37.1444 183.154 35.0724 183.154C33.0004 183.154 31.5304 181.614 31.5304 179.332C31.5304 177.05 33.0004 175.51 35.0724 175.51C37.1444 175.51 38.6144 177.05 38.6144 179.332ZM33.2244 179.332C33.2244 180.83 33.9384 181.74 35.0724 181.74C36.2064 181.74 36.9204 180.83 36.9204 179.332C36.9204 177.834 36.2064 176.924 35.0724 176.924C33.9384 176.924 33.2244 177.834 33.2244 179.332ZM46.04 175.65V183H44.36V182.216C43.94 182.706 43.31 183.154 42.358 183.154C40.818 183.154 39.866 182.104 39.866 180.522V175.65H41.546V180.158C41.546 181.054 41.938 181.628 42.848 181.628C43.604 181.628 44.36 181.068 44.36 180.018V175.65H46.04ZM47.9647 181.152V177.078H46.9427V175.65H47.9647V173.494H49.6167V175.65H51.1567V177.078H49.6167V180.886C49.6167 181.544 49.9947 181.614 50.5967 181.614C50.8767 181.614 51.0307 181.6 51.2827 181.572V182.986C50.9747 183.042 50.5547 183.084 50.1207 183.084C48.7207 183.084 47.9647 182.65 47.9647 181.152ZM56.7272 173.004L53.0032 183H51.7992L55.5232 173.004H56.7272ZM62.4969 179.108V183H60.7049V172.948H64.7229C66.9629 172.948 68.3629 173.998 68.3629 176.028C68.3629 177.61 67.4949 178.618 66.0249 178.968L68.6149 183H66.5709L64.1209 179.108H62.4969ZM62.4969 177.568H64.6249C65.9129 177.568 66.5989 177.008 66.5989 176.028C66.5989 175.034 65.9129 174.488 64.6249 174.488H62.4969V177.568ZM72.7527 183.154C70.6527 183.154 69.1827 181.6 69.1827 179.332C69.1827 177.176 70.6387 175.51 72.6827 175.51C74.8107 175.51 75.9447 177.12 75.9447 179.136V179.696H70.7927C70.9187 180.956 71.6747 181.726 72.7527 181.726C73.5787 181.726 74.2367 181.306 74.4607 180.55L75.9027 181.096C75.3847 182.384 74.2227 183.154 72.7527 183.154ZM72.6687 176.924C71.8007 176.924 71.1287 177.442 70.8767 178.436H74.2507C74.2367 177.624 73.7327 176.924 72.6687 176.924ZM77.2052 183V175.65H78.8852V176.434C79.3052 175.944 79.9632 175.51 80.9152 175.51C82.4552 175.51 83.3792 176.574 83.3792 178.156V183H81.6992V178.646C81.6992 177.736 81.3352 177.078 80.4112 177.078C79.6552 177.078 78.8852 177.638 78.8852 178.688V183H77.2052ZM85.2479 181.152V177.078H84.2259V175.65H85.2479V173.494H86.8999V175.65H88.4399V177.078H86.8999V180.886C86.8999 181.544 87.2779 181.614 87.8799 181.614C88.1599 181.614 88.3139 181.6 88.5659 181.572V182.986C88.2579 183.042 87.8379 183.084 87.4039 183.084C86.0039 183.084 85.2479 182.65 85.2479 181.152ZM91.7704 183.126C90.3704 183.126 89.2924 182.272 89.2924 180.956C89.2924 179.556 90.3424 178.94 91.7564 178.646L93.7864 178.226V178.1C93.7864 177.4 93.4224 176.966 92.5264 176.966C91.7284 176.966 91.3084 177.33 91.1124 178.044L89.5304 177.68C89.8944 176.462 90.9724 175.51 92.5964 175.51C94.3604 175.51 95.4244 176.35 95.4244 178.044V181.208C95.4244 181.628 95.6064 181.754 96.0684 181.698V183C94.8504 183.14 94.2064 182.902 93.9544 182.3C93.4924 182.818 92.7224 183.126 91.7704 183.126ZM93.7864 180.41V179.514L92.2044 179.85C91.4904 180.004 90.9584 180.228 90.9584 180.886C90.9584 181.46 91.3784 181.782 92.0224 181.782C92.9184 181.782 93.7864 181.306 93.7864 180.41ZM98.9419 172.948V183H97.2619V172.948H98.9419ZM99.9372 181.6L101.197 180.592C101.631 181.306 102.471 181.782 103.325 181.782C104.039 181.782 104.697 181.53 104.697 180.872C104.697 180.242 104.081 180.172 102.919 179.934C101.757 179.696 100.427 179.402 100.427 177.834C100.427 176.49 101.603 175.51 103.297 175.51C104.585 175.51 105.733 176.084 106.265 176.896L105.131 177.918C104.711 177.26 104.011 176.882 103.199 176.882C102.513 176.882 102.065 177.19 102.065 177.68C102.065 178.212 102.597 178.31 103.521 178.506C104.767 178.772 106.335 179.038 106.335 180.718C106.335 182.202 104.977 183.154 103.311 183.154C101.953 183.154 100.595 182.608 99.9372 181.6Z" fill="white"/>
<path d="M176 141.5C191.188 141.5 203.5 129.188 203.5 114C203.5 98.8122 191.188 86.5 176 86.5C160.812 86.5 148.5 98.8122 148.5 114C148.5 129.188 160.812 141.5 176 141.5Z" stroke="#C5CFD8"/>
<path d="M178.842 113.631C179.243 113.636 179.64 113.561 180.011 113.409C180.382 113.258 180.719 113.034 181.002 112.751L183.832 109.921C184.019 109.734 184.123 109.48 184.123 109.216C184.123 108.952 184.019 108.698 183.832 108.511C183.739 108.417 183.629 108.343 183.507 108.292C183.385 108.241 183.254 108.215 183.122 108.215C182.99 108.215 182.86 108.241 182.738 108.292C182.616 108.343 182.505 108.417 182.412 108.511L179.552 111.331C179.459 111.425 179.349 111.499 179.227 111.55C179.105 111.601 178.974 111.627 178.842 111.627C178.71 111.627 178.58 111.601 178.458 111.55C178.336 111.499 178.225 111.425 178.132 111.331L181.672 107.801C181.766 107.708 181.84 107.597 181.89 107.475C181.941 107.353 181.967 107.223 181.967 107.091C181.967 106.959 181.941 106.828 181.89 106.707C181.84 106.585 181.766 106.474 181.672 106.381C181.579 106.288 181.469 106.214 181.347 106.163C181.225 106.113 181.094 106.087 180.962 106.087C180.831 106.087 180.7 106.113 180.578 106.163C180.456 106.214 180.346 106.288 180.252 106.381L176.722 109.921C176.536 109.734 176.432 109.48 176.432 109.216C176.432 108.952 176.536 108.698 176.722 108.511L179.552 105.681C179.646 105.588 179.72 105.477 179.77 105.355C179.821 105.233 179.847 105.103 179.847 104.971C179.847 104.839 179.821 104.708 179.77 104.587C179.72 104.465 179.646 104.354 179.552 104.261C179.459 104.168 179.349 104.094 179.227 104.043C179.105 103.993 178.974 103.967 178.842 103.967C178.711 103.967 178.58 103.993 178.458 104.043C178.336 104.094 178.226 104.168 178.132 104.261L175.302 107.091C174.741 107.653 174.425 108.416 174.425 109.211C174.425 110.006 174.741 110.768 175.302 111.331L174.002 112.621L165.732 104.321L165.632 104.261C165.581 104.216 165.524 104.179 165.462 104.151L165.282 104.081L165.162 104.001H164.892C164.833 103.991 164.772 103.991 164.712 104.001C164.652 104.023 164.595 104.053 164.542 104.091L164.382 104.191H164.312L164.252 104.291C164.21 104.344 164.173 104.401 164.142 104.461C164.113 104.522 164.09 104.585 164.072 104.651C164.072 104.651 164.072 104.721 164.072 104.761C163.83 106.452 163.984 108.177 164.524 109.798C165.064 111.419 165.974 112.893 167.182 114.101L169.822 116.731L164.412 122.131C164.319 122.224 164.244 122.334 164.194 122.456C164.143 122.578 164.117 122.709 164.117 122.841C164.117 122.973 164.143 123.104 164.194 123.225C164.244 123.347 164.319 123.458 164.412 123.551C164.506 123.644 164.617 123.717 164.739 123.767C164.86 123.816 164.991 123.842 165.122 123.841C165.254 123.842 165.384 123.816 165.506 123.767C165.628 123.717 165.739 123.644 165.832 123.551L171.902 117.571L174.732 114.741L176.732 112.741C177.29 113.305 178.049 113.625 178.842 113.631ZM171.192 115.451L168.562 112.811C167.121 111.35 166.218 109.442 166.002 107.401L172.612 114.001L171.192 115.451ZM177.432 116.021C177.244 115.831 176.988 115.724 176.721 115.723C176.454 115.722 176.197 115.828 176.007 116.016C175.818 116.204 175.711 116.46 175.71 116.727C175.709 116.995 175.814 117.251 176.002 117.441L182.302 123.741C182.493 123.915 182.744 124.008 183.002 124.001C183.134 124.002 183.264 123.976 183.386 123.927C183.508 123.877 183.619 123.804 183.712 123.711C183.806 123.618 183.881 123.507 183.931 123.385C183.982 123.264 184.008 123.133 184.008 123.001C184.008 122.869 183.982 122.738 183.931 122.616C183.881 122.494 183.806 122.384 183.712 122.291L177.432 116.021Z" fill="#C8D0DB"/>
<path d="M154.305 165V154.948H157.665C160.787 154.948 162.719 156.908 162.719 159.974C162.719 163.04 160.787 165 157.665 165H154.305ZM156.055 163.46H157.665C159.737 163.46 160.955 162.088 160.955 159.974C160.955 157.846 159.737 156.488 157.651 156.488H156.055V163.46ZM164.023 156.67V154.948H165.759V156.67H164.023ZM165.731 157.65V165H164.051V157.65H165.731ZM167.496 165V157.65H169.176V158.434C169.596 157.944 170.254 157.51 171.206 157.51C172.746 157.51 173.67 158.574 173.67 160.156V165H171.99V160.646C171.99 159.736 171.626 159.078 170.702 159.078C169.946 159.078 169.176 159.638 169.176 160.688V165H167.496ZM178.493 165.154C176.393 165.154 174.923 163.6 174.923 161.332C174.923 159.176 176.379 157.51 178.423 157.51C180.551 157.51 181.685 159.12 181.685 161.136V161.696H176.533C176.659 162.956 177.415 163.726 178.493 163.726C179.319 163.726 179.977 163.306 180.201 162.55L181.643 163.096C181.125 164.384 179.963 165.154 178.493 165.154ZM178.409 158.924C177.541 158.924 176.869 159.442 176.617 160.436H179.991C179.977 159.624 179.473 158.924 178.409 158.924ZM182.829 161.668V160.17H186.749V161.668H182.829ZM188.167 156.67V154.948H189.903V156.67H188.167ZM189.875 157.65V165H188.195V157.65H189.875ZM191.641 165V157.65H193.321V158.434C193.741 157.944 194.399 157.51 195.351 157.51C196.891 157.51 197.815 158.574 197.815 160.156V165H196.135V160.646C196.135 159.736 195.771 159.078 194.847 159.078C194.091 159.078 193.321 159.638 193.321 160.688V165H191.641Z" fill="white"/>
<path d="M419.5 141.5C434.688 141.5 447 129.188 447 114C447 98.8122 434.688 86.5 419.5 86.5C404.312 86.5 392 98.8122 392 114C392 129.188 404.312 141.5 419.5 141.5Z" stroke="#C5CFD8"/>
<path fill-rule="evenodd" clip-rule="evenodd" d="M423.953 122.187L425.551 123.785C425.658 123.891 425.801 123.951 425.951 123.951C426.101 123.951 426.244 123.891 426.351 123.785L429.547 120.588C429.65 120.482 429.708 120.339 429.706 120.191C429.705 120.043 429.645 119.901 429.541 119.796C429.436 119.691 429.294 119.632 429.146 119.631C428.998 119.629 428.855 119.686 428.749 119.789L425.951 122.586L424.752 121.388C424.646 121.285 424.503 121.228 424.355 121.229C424.207 121.23 424.065 121.29 423.96 121.395C423.855 121.499 423.796 121.641 423.794 121.789C423.793 121.938 423.85 122.08 423.953 122.187ZM413.766 112.285C413.766 111.956 413.635 111.639 413.402 111.406C413.169 111.173 412.852 111.042 412.522 111.042H411.618C411.289 111.042 410.972 111.173 410.739 111.406C410.506 111.639 410.375 111.956 410.375 112.285V113.19C410.375 113.519 410.506 113.836 410.739 114.069C410.972 114.302 411.289 114.433 411.618 114.433H412.522C412.852 114.433 413.169 114.302 413.402 114.069C413.635 113.836 413.766 113.519 413.766 113.19V112.285ZM412.635 112.285V113.19C412.635 113.205 412.633 113.219 412.627 113.233C412.621 113.247 412.613 113.259 412.603 113.27C412.592 113.28 412.58 113.288 412.565 113.294C412.552 113.3 412.537 113.303 412.522 113.303H411.618C411.603 113.303 411.589 113.3 411.575 113.294C411.561 113.288 411.549 113.28 411.539 113.27C411.528 113.259 411.52 113.247 411.514 113.233C411.508 113.219 411.505 113.205 411.505 113.19V112.285C411.505 112.255 411.517 112.227 411.539 112.206C411.549 112.195 411.561 112.187 411.575 112.181C411.589 112.175 411.603 112.172 411.618 112.172H412.522C412.553 112.172 412.581 112.184 412.603 112.206C412.613 112.216 412.621 112.229 412.627 112.242C412.633 112.256 412.635 112.271 412.635 112.285ZM413.766 116.807C413.766 116.478 413.635 116.161 413.402 115.928C413.169 115.695 412.852 115.564 412.522 115.564H411.618C411.289 115.564 410.972 115.695 410.739 115.928C410.506 116.161 410.375 116.477 410.375 116.807V117.711C410.375 118.041 410.506 118.358 410.739 118.591C410.972 118.824 411.289 118.955 411.618 118.955H412.522C412.852 118.955 413.169 118.824 413.402 118.591C413.635 118.358 413.766 118.041 413.766 117.711V116.807ZM412.635 116.807V117.711C412.635 117.726 412.633 117.741 412.627 117.755C412.621 117.768 412.613 117.781 412.603 117.791C412.592 117.802 412.58 117.81 412.565 117.816C412.552 117.822 412.537 117.825 412.522 117.825H411.618C411.603 117.825 411.589 117.822 411.575 117.816C411.561 117.81 411.549 117.802 411.539 117.791C411.528 117.781 411.52 117.768 411.514 117.755C411.508 117.741 411.505 117.726 411.505 117.711V116.807C411.505 116.777 411.517 116.748 411.539 116.727C411.549 116.717 411.561 116.708 411.575 116.703C411.589 116.697 411.603 116.694 411.618 116.694H412.522C412.553 116.694 412.581 116.706 412.603 116.727C412.613 116.738 412.621 116.75 412.627 116.764C412.633 116.778 412.635 116.792 412.635 116.807ZM413.766 121.329C413.766 120.999 413.635 120.683 413.402 120.449C413.169 120.217 412.852 120.086 412.522 120.085H411.618C411.289 120.085 410.972 120.217 410.739 120.449C410.506 120.683 410.375 120.999 410.375 121.329V122.233C410.375 122.563 410.506 122.879 410.739 123.113C410.972 123.346 411.289 123.477 411.618 123.477H412.522C412.852 123.477 413.169 123.346 413.402 123.113C413.635 122.879 413.766 122.563 413.766 122.233V121.329ZM412.635 121.329V122.233C412.635 122.248 412.633 122.263 412.627 122.276C412.621 122.29 412.613 122.303 412.603 122.313C412.592 122.324 412.58 122.332 412.565 122.338C412.552 122.343 412.537 122.346 412.522 122.346H411.618C411.603 122.346 411.589 122.343 411.575 122.338C411.561 122.332 411.549 122.324 411.539 122.313C411.528 122.303 411.52 122.29 411.514 122.276C411.508 122.263 411.505 122.248 411.505 122.233V121.329C411.505 121.299 411.517 121.27 411.539 121.249C411.549 121.239 411.561 121.23 411.575 121.224C411.589 121.219 411.603 121.216 411.618 121.216H412.522C412.553 121.216 412.581 121.228 412.603 121.249C412.613 121.26 412.621 121.272 412.627 121.286C412.633 121.299 412.635 121.314 412.635 121.329ZM418.288 112.285C418.288 111.956 418.157 111.639 417.924 111.406C417.69 111.173 417.374 111.042 417.044 111.042H416.14C415.81 111.042 415.494 111.173 415.261 111.406C415.027 111.639 414.897 111.956 414.897 112.285V113.19C414.897 113.519 415.027 113.836 415.261 114.069C415.494 114.302 415.81 114.433 416.14 114.433H417.044C417.374 114.433 417.69 114.302 417.924 114.069C418.157 113.836 418.288 113.519 418.288 113.19V112.285ZM417.157 112.285V113.19C417.157 113.205 417.154 113.219 417.149 113.233C417.143 113.247 417.135 113.259 417.124 113.27C417.114 113.28 417.101 113.288 417.087 113.294C417.074 113.3 417.059 113.303 417.044 113.303H416.14C416.125 113.303 416.11 113.3 416.097 113.294C416.083 113.288 416.071 113.28 416.061 113.27C416.05 113.259 416.041 113.247 416.035 113.233C416.03 113.219 416.027 113.205 416.027 113.19V112.285C416.027 112.255 416.039 112.227 416.061 112.206C416.071 112.195 416.083 112.187 416.097 112.181C416.11 112.175 416.125 112.172 416.14 112.172H417.044C417.075 112.172 417.103 112.184 417.124 112.206C417.135 112.216 417.143 112.229 417.149 112.242C417.154 112.256 417.157 112.271 417.157 112.285ZM418.288 116.807C418.288 116.478 418.157 116.161 417.924 115.928C417.69 115.695 417.374 115.564 417.044 115.564H416.14C415.81 115.564 415.494 115.695 415.261 115.928C415.027 116.161 414.897 116.477 414.897 116.807V117.711C414.897 118.041 415.027 118.358 415.261 118.591C415.494 118.824 415.81 118.955 416.14 118.955H417.044C417.374 118.955 417.69 118.824 417.924 118.591C418.157 118.358 418.288 118.041 418.288 117.711V116.807ZM417.157 116.807V117.711C417.157 117.726 417.154 117.741 417.149 117.755C417.143 117.768 417.135 117.781 417.124 117.791C417.114 117.802 417.101 117.81 417.087 117.816C417.074 117.822 417.059 117.825 417.044 117.825H416.14C416.125 117.825 416.11 117.822 416.097 117.816C416.083 117.81 416.071 117.802 416.061 117.791C416.05 117.781 416.041 117.768 416.035 117.755C416.03 117.741 416.027 117.726 416.027 117.711V116.807C416.027 116.777 416.039 116.748 416.061 116.727C416.071 116.717 416.083 116.708 416.097 116.703C416.11 116.697 416.125 116.694 416.14 116.694H417.044C417.075 116.694 417.103 116.706 417.124 116.727C417.135 116.738 417.143 116.75 417.149 116.764C417.154 116.778 417.157 116.792 417.157 116.807ZM418.288 121.329C418.288 120.999 418.157 120.683 417.924 120.449C417.69 120.217 417.374 120.086 417.044 120.085H416.14C415.81 120.085 415.494 120.217 415.261 120.449C415.027 120.683 414.897 120.999 414.897 121.329V122.233C414.897 122.563 415.027 122.879 415.261 123.113C415.494 123.346 415.81 123.477 416.14 123.477H417.044C417.374 123.477 417.69 123.346 417.924 123.113C418.157 122.879 418.288 122.563 418.288 122.233V121.329ZM417.157 121.329V122.233C417.157 122.248 417.154 122.263 417.149 122.276C417.143 122.29 417.135 122.303 417.124 122.313C417.114 122.324 417.101 122.332 417.087 122.338C417.074 122.343 417.059 122.346 417.044 122.346H416.14C416.125 122.346 416.11 122.343 416.097 122.338C416.083 122.332 416.071 122.324 416.061 122.313C416.05 122.303 416.041 122.29 416.035 122.276C416.03 122.263 416.027 122.248 416.027 122.233V121.329C416.027 121.299 416.039 121.27 416.061 121.249C416.071 121.239 416.083 121.23 416.097 121.224C416.11 121.219 416.125 121.216 416.14 121.216H417.044C417.075 121.216 417.103 121.228 417.124 121.249C417.135 121.26 417.143 121.272 417.149 121.286C417.154 121.299 417.157 121.314 417.157 121.329ZM422.809 112.285C422.809 111.956 422.679 111.639 422.445 111.406C422.212 111.173 421.896 111.042 421.566 111.042H420.662C420.332 111.042 420.016 111.173 419.782 111.406C419.549 111.639 419.418 111.956 419.418 112.285V113.19C419.418 113.519 419.549 113.836 419.782 114.069C420.016 114.302 420.332 114.433 420.662 114.433H421.566C421.896 114.433 422.212 114.302 422.445 114.069C422.679 113.836 422.809 113.519 422.809 113.19V112.285ZM421.679 112.285V113.19C421.679 113.205 421.676 113.219 421.671 113.233C421.665 113.247 421.657 113.259 421.645 113.27C421.635 113.28 421.623 113.288 421.609 113.294C421.596 113.3 421.581 113.303 421.566 113.303H420.662C420.647 113.303 420.632 113.3 420.619 113.294C420.605 113.288 420.592 113.28 420.582 113.27C420.571 113.259 420.563 113.247 420.557 113.233C420.552 113.219 420.549 113.205 420.549 113.19V112.285C420.549 112.255 420.561 112.227 420.582 112.206C420.592 112.195 420.605 112.187 420.619 112.181C420.632 112.175 420.647 112.172 420.662 112.172H421.566C421.596 112.172 421.625 112.184 421.645 112.206C421.657 112.216 421.665 112.229 421.671 112.242C421.676 112.256 421.679 112.271 421.679 112.285ZM427.331 112.285C427.331 111.956 427.201 111.639 426.967 111.406C426.734 111.173 426.418 111.042 426.088 111.042H425.184C424.854 111.042 424.537 111.173 424.304 111.406C424.071 111.639 423.94 111.956 423.94 112.285V113.19C423.94 113.519 424.071 113.836 424.304 114.069C424.537 114.302 424.854 114.433 425.184 114.433H426.088C426.418 114.433 426.734 114.302 426.967 114.069C427.201 113.836 427.331 113.519 427.331 113.19V112.285ZM426.201 112.285V113.19C426.201 113.205 426.198 113.219 426.192 113.233C426.187 113.247 426.178 113.259 426.167 113.27C426.157 113.28 426.145 113.288 426.131 113.294C426.117 113.3 426.103 113.303 426.088 113.303H425.184C425.169 113.303 425.154 113.3 425.141 113.294C425.126 113.288 425.114 113.28 425.103 113.27C425.093 113.259 425.085 113.247 425.079 113.233C425.073 113.219 425.071 113.205 425.071 113.19V112.285C425.071 112.255 425.083 112.227 425.103 112.206C425.114 112.195 425.126 112.187 425.141 112.181C425.154 112.175 425.169 112.172 425.184 112.172H426.088C426.117 112.172 426.146 112.184 426.167 112.206C426.178 112.216 426.187 112.229 426.192 112.242C426.198 112.256 426.201 112.271 426.201 112.285Z" fill="#C8D0DB"/>
<path fill-rule="evenodd" clip-rule="evenodd" d="M421.988 125.739H409.826C409.076 125.739 408.358 125.441 407.828 124.912C407.298 124.381 407 123.663 407 122.913V107.087C407 106.337 407.298 105.619 407.828 105.089C408.358 104.559 409.076 104.261 409.826 104.261H411.522V103.696C411.522 103.246 411.7 102.815 412.019 102.497C412.337 102.179 412.768 102 413.218 102C413.667 102 414.099 102.179 414.417 102.497C414.735 102.815 414.913 103.246 414.913 103.696V104.261H422.826V103.696C422.826 103.246 423.005 102.815 423.323 102.497C423.641 102.179 424.072 102 424.522 102C424.971 102 425.403 102.179 425.721 102.497C426.039 102.815 426.218 103.246 426.218 103.696V104.261H427.913C428.662 104.261 429.382 104.559 429.911 105.089C430.442 105.619 430.739 106.337 430.739 107.087V116.988C432.12 118.129 433 119.854 433 121.783C433 125.214 430.214 128 426.782 128C425.866 128.001 424.961 127.798 424.132 127.407C423.303 127.016 422.57 126.447 421.988 125.739ZM426.782 116.696C429.59 116.696 431.869 118.975 431.869 121.783C431.869 124.59 429.59 126.87 426.782 126.87C423.975 126.87 421.696 124.59 421.696 121.783C421.696 118.975 423.975 116.696 426.782 116.696ZM429.609 116.244V109.913H408.131V122.913C408.131 123.363 408.309 123.794 408.628 124.112C408.784 124.269 408.972 124.394 409.177 124.48C409.383 124.565 409.604 124.609 409.826 124.609H421.244C420.81 123.761 420.565 122.8 420.565 121.783C420.565 118.351 423.351 115.565 426.782 115.565C427.8 115.565 428.761 115.81 429.609 116.244ZM426.218 105.391V105.957C426.218 106.406 426.039 106.838 425.721 107.156C425.403 107.474 424.971 107.652 424.522 107.652C424.072 107.652 423.641 107.474 423.323 107.156C423.005 106.838 422.826 106.406 422.826 105.957V105.391H414.913V105.957C414.913 106.406 414.735 106.838 414.417 107.156C414.099 107.474 413.667 107.652 413.218 107.652C412.768 107.652 412.337 107.474 412.019 107.156C411.7 106.838 411.522 106.406 411.522 105.957V105.391H409.826C409.376 105.391 408.945 105.57 408.627 105.888C408.309 106.206 408.131 106.637 408.131 107.087V108.783H429.609V107.087C429.609 106.637 429.43 106.206 429.112 105.888C428.794 105.57 428.363 105.391 427.913 105.391H426.218ZM425.087 103.696V105.957C425.087 106.106 425.028 106.25 424.921 106.356C424.815 106.462 424.672 106.522 424.522 106.522C424.372 106.522 424.228 106.462 424.122 106.356C424.016 106.25 423.956 106.106 423.956 105.957V103.696C423.956 103.546 424.016 103.402 424.122 103.296C424.228 103.19 424.372 103.13 424.522 103.13C424.672 103.13 424.815 103.19 424.921 103.296C425.028 103.402 425.087 103.546 425.087 103.696ZM413.782 103.696V105.957C413.782 106.106 413.723 106.25 413.617 106.356C413.511 106.462 413.367 106.522 413.218 106.522C413.068 106.522 412.924 106.462 412.818 106.356C412.712 106.25 412.652 106.106 412.652 105.957V103.696C412.652 103.546 412.712 103.402 412.818 103.296C412.924 103.19 413.068 103.13 413.218 103.13C413.367 103.13 413.511 103.19 413.617 103.296C413.723 103.402 413.782 103.546 413.782 103.696Z" fill="#C8D0DB"/>
<path d="M376.8 153.948H378.83L382.638 164H380.832L379.964 161.704H375.624L374.77 164H372.992L376.8 153.948ZM377.78 155.936L376.212 160.136H379.376L377.78 155.936ZM387.317 164.154C386.365 164.154 385.665 163.776 385.203 163.23V166.52H383.523V156.65H385.203V157.434C385.665 156.888 386.365 156.51 387.317 156.51C389.375 156.51 390.551 158.246 390.551 160.332C390.551 162.418 389.375 164.154 387.317 164.154ZM385.161 160.122V160.556C385.161 161.914 385.945 162.684 386.981 162.684C388.199 162.684 388.857 161.732 388.857 160.332C388.857 158.932 388.199 157.98 386.981 157.98C385.945 157.98 385.161 158.736 385.161 160.122ZM395.643 164.154C394.691 164.154 393.991 163.776 393.529 163.23V166.52H391.849V156.65H393.529V157.434C393.991 156.888 394.691 156.51 395.643 156.51C397.701 156.51 398.877 158.246 398.877 160.332C398.877 162.418 397.701 164.154 395.643 164.154ZM393.487 160.122V160.556C393.487 161.914 394.271 162.684 395.307 162.684C396.525 162.684 397.183 161.732 397.183 160.332C397.183 158.932 396.525 157.98 395.307 157.98C394.271 157.98 393.487 158.736 393.487 160.122ZM406.797 160.332C406.797 162.614 405.327 164.154 403.255 164.154C401.183 164.154 399.713 162.614 399.713 160.332C399.713 158.05 401.183 156.51 403.255 156.51C405.327 156.51 406.797 158.05 406.797 160.332ZM401.407 160.332C401.407 161.83 402.121 162.74 403.255 162.74C404.389 162.74 405.103 161.83 405.103 160.332C405.103 158.834 404.389 157.924 403.255 157.924C402.121 157.924 401.407 158.834 401.407 160.332ZM408.077 155.67V153.948H409.813V155.67H408.077ZM409.785 156.65V164H408.105V156.65H409.785ZM411.55 164V156.65H413.23V157.434C413.65 156.944 414.308 156.51 415.26 156.51C416.8 156.51 417.724 157.574 417.724 159.156V164H416.044V159.646C416.044 158.736 415.68 158.078 414.756 158.078C414 158.078 413.23 158.638 413.23 159.688V164H411.55ZM419.593 162.152V158.078H418.571V156.65H419.593V154.494H421.245V156.65H422.785V158.078H421.245V161.886C421.245 162.544 421.623 162.614 422.225 162.614C422.505 162.614 422.659 162.6 422.911 162.572V163.986C422.603 164.042 422.183 164.084 421.749 164.084C420.349 164.084 419.593 163.65 419.593 162.152ZM425.849 159.688V164H424.169V156.65H425.849V157.434C426.255 156.944 426.885 156.51 427.865 156.51C428.747 156.51 429.405 156.902 429.811 157.532C430.259 157.056 430.959 156.51 432.093 156.51C433.605 156.51 434.585 157.574 434.585 159.156V164H432.905V159.646C432.905 158.736 432.569 158.078 431.673 158.078C430.959 158.078 430.217 158.638 430.217 159.688V164H428.537V159.646C428.537 158.736 428.201 158.078 427.305 158.078C426.591 158.078 425.849 158.638 425.849 159.688ZM439.404 164.154C437.304 164.154 435.834 162.6 435.834 160.332C435.834 158.176 437.29 156.51 439.334 156.51C441.462 156.51 442.596 158.12 442.596 160.136V160.696H437.444C437.57 161.956 438.326 162.726 439.404 162.726C440.23 162.726 440.888 162.306 441.112 161.55L442.554 162.096C442.036 163.384 440.874 164.154 439.404 164.154ZM439.32 157.924C438.452 157.924 437.78 158.442 437.528 159.436H440.902C440.888 158.624 440.384 157.924 439.32 157.924ZM443.857 164V156.65H445.537V157.434C445.957 156.944 446.615 156.51 447.567 156.51C449.107 156.51 450.031 157.574 450.031 159.156V164H448.351V159.646C448.351 158.736 447.987 158.078 447.063 158.078C446.307 158.078 445.537 158.638 445.537 159.688V164H443.857ZM451.899 162.152V158.078H450.877V156.65H451.899V154.494H453.551V156.65H455.091V158.078H453.551V161.886C453.551 162.544 453.929 162.614 454.531 162.614C454.811 162.614 454.965 162.6 455.217 162.572V163.986C454.909 164.042 454.489 164.084 454.055 164.084C452.655 164.084 451.899 163.65 451.899 162.152ZM455.706 162.6L456.966 161.592C457.4 162.306 458.24 162.782 459.094 162.782C459.808 162.782 460.466 162.53 460.466 161.872C460.466 161.242 459.85 161.172 458.688 160.934C457.526 160.696 456.196 160.402 456.196 158.834C456.196 157.49 457.372 156.51 459.066 156.51C460.354 156.51 461.502 157.084 462.034 157.896L460.9 158.918C460.48 158.26 459.78 157.882 458.968 157.882C458.282 157.882 457.834 158.19 457.834 158.68C457.834 159.212 458.366 159.31 459.29 159.506C460.536 159.772 462.104 160.038 462.104 161.718C462.104 163.202 460.746 164.154 459.08 164.154C457.722 164.154 456.364 163.608 455.706 162.6Z" fill="white"/>
<path d="M56 141.5C71.1878 141.5 83.5 129.188 83.5 114C83.5 98.8122 71.1878 86.5 56 86.5C40.8122 86.5 28.5 98.8122 28.5 114C28.5 129.188 40.8122 141.5 56 141.5Z" stroke="#C5CFD8"/>
<path d="M56.0004 104.25C53.9409 104.25 52.2504 105.941 52.2504 108V108.75H48.5469L48.5004 109.453L47.7504 122.953L47.7031 123.75H64.2969L64.2504 122.953L63.5004 109.453L63.4531 108.75H59.7504V108C59.7504 105.941 58.0599 104.25 56.0004 104.25ZM56.0004 105.75C56.5971 105.75 57.1694 105.987 57.5914 106.409C58.0133 106.831 58.2504 107.403 58.2504 108V108.75H53.7504V108C53.7504 107.403 53.9874 106.831 54.4094 106.409C54.8313 105.987 55.4036 105.75 56.0004 105.75ZM49.9531 110.25H52.2504V112.5H53.7504V110.25H58.2504V112.5H59.7504V110.25H62.0476L62.7039 122.25H49.2976L49.9531 110.25Z" fill="#C8D0DB"/>
<path d="M311.834 109.874C311.768 109.796 311.685 109.733 311.593 109.69C311.5 109.647 311.399 109.625 311.297 109.625H293.679L292.288 104.518C292.247 104.37 292.159 104.238 292.036 104.144C291.914 104.051 291.764 104 291.609 104H288.703C288.314 104 288 104.314 288 104.703C288 105.092 288.314 105.406 288.703 105.406H291.072L294.966 119.67C294.228 120.001 293.719 120.724 293.719 121.578C293.719 122.55 294.383 123.363 295.28 123.606C295.182 123.849 295.125 124.113 295.125 124.391C295.125 125.554 296.071 126.5 297.234 126.5C298.398 126.5 299.344 125.554 299.344 124.391C299.344 124.143 299.293 123.908 299.214 123.687H305.098C305.019 123.908 304.969 124.143 304.969 124.391C304.969 125.554 305.915 126.5 307.078 126.5C308.241 126.5 309.187 125.554 309.187 124.391C309.187 123.227 308.241 122.281 307.078 122.281H295.828C295.441 122.281 295.125 121.966 295.125 121.578C295.125 120.923 295.969 120.785 295.828 120.861C295.969 120.861 296.444 120.802 309.959 119.465C310.113 119.45 310.258 119.385 310.371 119.279C310.484 119.174 310.559 119.034 310.584 118.881L311.99 110.443C312.007 110.343 312.002 110.24 311.975 110.141C311.948 110.043 311.9 109.952 311.834 109.874ZM297.937 124.391C297.937 124.779 297.622 125.094 297.234 125.094C296.847 125.094 296.531 124.779 296.531 124.391C296.531 124.003 296.847 123.687 297.234 123.687C297.622 123.687 297.937 124.003 297.937 124.391ZM307.078 125.094C306.691 125.094 306.375 124.779 306.375 124.391C306.375 124.003 306.691 123.687 307.078 123.687C307.465 123.687 307.781 124.003 307.781 124.391C307.781 124.779 307.465 125.094 307.078 125.094ZM299.344 115.953C299.344 116.342 299.029 116.656 298.641 116.656C298.252 116.656 297.937 116.342 297.937 115.953V113.141C297.937 112.752 298.252 112.438 298.641 112.438C299.029 112.438 299.344 112.752 299.344 113.141V115.953ZM303.562 115.953C303.562 116.342 303.248 116.656 302.859 116.656C302.471 116.656 302.156 116.342 302.156 115.953V113.141C302.156 112.752 302.471 112.438 302.859 112.438C303.248 112.438 303.562 112.752 303.562 113.141V115.953ZM307.781 115.953C307.781 116.342 307.467 116.656 307.078 116.656C306.689 116.656 306.375 116.342 306.375 115.953V113.141C306.375 112.752 306.689 112.438 307.078 112.438C307.467 112.438 307.781 112.752 307.781 113.141V115.953Z" fill="#C8D0DB"/>
<path d="M309.187 106.109C309.187 105.721 308.873 105.406 308.484 105.406H307.369L307.575 105.2C307.85 104.926 307.85 104.481 307.575 104.206C307.301 103.931 306.856 103.931 306.581 104.206L305.672 105.115L304.763 104.206C304.488 103.931 304.043 103.931 303.768 104.206C303.494 104.481 303.494 104.926 303.768 105.2L303.974 105.406H302.859C302.471 105.406 302.156 105.721 302.156 106.109V108.219H309.187V106.109ZM300.75 106.813H295.828C295.439 106.813 295.125 107.127 295.125 107.516V108.219H300.75V106.813Z" fill="#C8D0DB"/>
</svg>
