<svg width="410" height="188" viewBox="0 0 410 188" fill="none" xmlns="http://www.w3.org/2000/svg">
<path d="M379 143.5C394.188 143.5 406.5 131.188 406.5 116C406.5 100.812 394.188 88.5 379 88.5C363.812 88.5 351.5 100.812 351.5 116C351.5 131.188 363.812 143.5 379 143.5Z" stroke="#20336B"/>
<path d="M390.929 119.657C390.84 119.345 390.667 119.063 390.429 118.841C390.191 118.62 389.898 118.467 389.58 118.4C389.164 118.312 388.732 118.376 388.363 118.572C388.577 117.244 388.464 115.869 388.025 114.588C387.941 114.343 387.674 114.213 387.429 114.297C387.184 114.381 387.054 114.647 387.138 114.892C387.657 116.405 387.662 118.065 387.153 119.58L383.417 122.898C383.189 123.101 382.936 123.275 382.665 123.417C382.742 123.107 382.735 122.782 382.645 122.475C382.573 122.233 382.452 122.009 382.288 121.817C382.125 121.625 381.923 121.47 381.696 121.361L378.387 119.776C376.94 119.083 375.246 119.003 373.741 119.556L373.404 119.679C372.471 117.042 373.12 114.116 375.12 112.117L378.429 108.808H382.093L384.897 111.612C385.08 111.795 385.377 111.795 385.56 111.612C385.743 111.429 385.743 111.132 385.56 110.949L382.881 108.27L383.849 105.482C383.979 105.109 383.836 104.701 383.501 104.491C383.166 104.281 382.736 104.33 382.456 104.609L382.451 104.615C382.257 104.809 381.941 104.809 381.748 104.615C380.925 103.792 379.586 103.792 378.764 104.615C378.67 104.709 378.545 104.761 378.412 104.761C378.28 104.761 378.155 104.709 378.061 104.615C377.781 104.335 377.351 104.287 377.016 104.497C376.68 104.708 376.538 105.116 376.668 105.49L377.641 108.27L374.457 111.454C373.279 112.633 372.495 114.118 372.192 115.751C371.926 117.182 372.041 118.642 372.523 120.003L371.784 120.274C371.538 119.954 371.152 119.748 370.719 119.748H368.344C367.603 119.748 367 120.351 367 121.091V126.654C367 127.395 367.603 127.998 368.344 127.998H380.699C382.639 127.998 384.475 127.253 385.866 125.9L390.456 121.439C390.69 121.213 390.857 120.928 390.94 120.614C391.024 120.3 391.02 119.969 390.929 119.657ZM378.412 105.698C378.795 105.698 379.156 105.549 379.427 105.278C379.884 104.821 380.628 104.821 381.085 105.278C381.356 105.549 381.716 105.698 382.099 105.698C382.371 105.698 382.632 105.623 382.857 105.482L382.027 107.87H378.495L377.66 105.486C377.884 105.624 378.142 105.698 378.412 105.698ZM367.938 126.654V121.091C367.938 120.867 368.12 120.685 368.344 120.685H370.719C370.943 120.685 371.125 120.867 371.125 121.091V126.654C371.125 126.878 370.943 127.06 370.719 127.06H368.344C368.12 127.06 367.938 126.878 367.938 126.654ZM389.803 120.767L385.213 125.228C383.997 126.41 382.394 127.06 380.699 127.06H372C372.041 126.929 372.063 126.792 372.063 126.654V121.171L374.064 120.436C375.333 119.97 376.762 120.037 377.982 120.622L381.291 122.207C381.514 122.314 381.676 122.503 381.746 122.741C381.816 122.978 381.783 123.225 381.654 123.436C381.553 123.6 381.4 123.726 381.219 123.794C381.039 123.861 380.84 123.865 380.657 123.807L376.26 122.409C376.014 122.33 375.75 122.467 375.672 122.713C375.593 122.96 375.73 123.224 375.976 123.302L380.373 124.7C380.55 124.757 380.734 124.785 380.92 124.785C380.942 124.785 380.964 124.784 380.986 124.783C382.113 124.767 383.195 124.349 384.04 123.599L388.639 119.514C388.739 119.425 388.859 119.361 388.988 119.327C389.118 119.293 389.253 119.29 389.384 119.317C389.699 119.384 389.939 119.608 390.028 119.917C390.118 120.225 390.033 120.543 389.803 120.767Z" fill="#20336B"/>
<path d="M386.633 113.326C386.756 113.326 386.877 113.276 386.964 113.189C387.052 113.101 387.101 112.982 387.102 112.857C387.102 112.734 387.051 112.614 386.964 112.526C386.876 112.438 386.757 112.389 386.633 112.389C386.509 112.389 386.389 112.439 386.301 112.526C386.214 112.614 386.165 112.733 386.164 112.857C386.164 112.981 386.214 113.102 386.301 113.189C386.389 113.277 386.509 113.326 386.633 113.326Z" fill="#20336B"/>
<path d="M383.952 115.334H382.966V114.387H383.952C384.1 114.387 384.22 114.267 384.22 114.119C384.22 113.97 384.1 113.85 383.952 113.85H382.966V112.536C382.966 112.344 382.928 112.203 382.854 112.118C382.783 112.036 382.689 111.998 382.56 111.998C382.436 111.998 382.347 112.036 382.277 112.117C382.203 112.203 382.166 112.344 382.166 112.536V113.851H380.312L379.523 112.658C379.46 112.557 379.395 112.456 379.331 112.356C379.275 112.27 379.221 112.199 379.17 112.147C379.125 112.101 379.074 112.065 379.013 112.037C378.956 112.011 378.884 111.998 378.798 111.998C378.689 111.998 378.59 112.028 378.495 112.089C378.402 112.15 378.337 112.225 378.297 112.319C378.262 112.408 378.244 112.545 378.244 112.721V113.85H377.268C377.12 113.85 377 113.97 377 114.119C377 114.267 377.12 114.387 377.268 114.387H378.244V115.334H377.268C377.12 115.334 377 115.454 377 115.602C377 115.75 377.12 115.87 377.268 115.87H378.244V117.371C378.244 117.557 378.283 117.696 378.36 117.785C378.434 117.869 378.528 117.908 378.654 117.908C378.777 117.908 378.87 117.869 378.946 117.784C379.025 117.698 379.065 117.558 379.065 117.371V115.87H380.743L381.65 117.262C381.714 117.355 381.778 117.447 381.844 117.538C381.902 117.62 381.966 117.692 382.034 117.752C382.095 117.807 382.16 117.846 382.228 117.871C382.297 117.896 382.379 117.909 382.469 117.909C382.715 117.909 382.966 117.833 382.966 117.276V115.87H383.952C384.1 115.87 384.22 115.75 384.22 115.602C384.22 115.454 384.1 115.334 383.952 115.334ZM382.166 114.387V115.334H381.292L380.666 114.387H382.166ZM379.065 113.298L379.425 113.85H379.065V113.298ZM379.065 115.334V114.387H379.775L380.393 115.334H379.065ZM382.166 116.656L381.646 115.87H382.166V116.656Z" fill="#24BAF2"/>
<path d="M351.713 167V156.948H355.703C357.859 156.948 359.007 157.886 359.007 159.594C359.007 160.84 358.279 161.484 357.579 161.764C358.629 162.1 359.329 162.968 359.329 164.2C359.329 165.964 358.027 167 355.955 167H351.713ZM353.435 161.106H355.535C356.683 161.106 357.313 160.658 357.313 159.776C357.313 158.894 356.683 158.46 355.535 158.46H353.435V161.106ZM353.435 162.618V165.488H355.857C356.991 165.488 357.607 164.9 357.607 164.046C357.607 163.206 356.991 162.618 355.857 162.618H353.435ZM366.702 159.65V167H365.022V166.216C364.602 166.706 363.972 167.154 363.02 167.154C361.48 167.154 360.528 166.104 360.528 164.522V159.65H362.208V164.158C362.208 165.054 362.6 165.628 363.51 165.628C364.266 165.628 365.022 165.068 365.022 164.018V159.65H366.702ZM367.703 165.6L368.963 164.592C369.397 165.306 370.237 165.782 371.091 165.782C371.805 165.782 372.463 165.53 372.463 164.872C372.463 164.242 371.847 164.172 370.685 163.934C369.523 163.696 368.193 163.402 368.193 161.834C368.193 160.49 369.369 159.51 371.063 159.51C372.351 159.51 373.499 160.084 374.031 160.896L372.897 161.918C372.477 161.26 371.777 160.882 370.965 160.882C370.279 160.882 369.831 161.19 369.831 161.68C369.831 162.212 370.363 162.31 371.287 162.506C372.533 162.772 374.101 163.038 374.101 164.718C374.101 166.202 372.743 167.154 371.077 167.154C369.719 167.154 368.361 166.608 367.703 165.6ZM375.363 158.67V156.948H377.099V158.67H375.363ZM377.071 159.65V167H375.391V159.65H377.071ZM378.836 167V159.65H380.516V160.434C380.936 159.944 381.594 159.51 382.546 159.51C384.086 159.51 385.01 160.574 385.01 162.156V167H383.33V162.646C383.33 161.736 382.966 161.078 382.042 161.078C381.286 161.078 380.516 161.638 380.516 162.688V167H378.836ZM389.833 167.154C387.733 167.154 386.263 165.6 386.263 163.332C386.263 161.176 387.719 159.51 389.763 159.51C391.891 159.51 393.025 161.12 393.025 163.136V163.696H387.873C387.999 164.956 388.755 165.726 389.833 165.726C390.659 165.726 391.317 165.306 391.541 164.55L392.983 165.096C392.465 166.384 391.303 167.154 389.833 167.154ZM389.749 160.924C388.881 160.924 388.209 161.442 387.957 162.436H391.331C391.317 161.624 390.813 160.924 389.749 160.924ZM393.515 165.6L394.775 164.592C395.209 165.306 396.049 165.782 396.903 165.782C397.617 165.782 398.275 165.53 398.275 164.872C398.275 164.242 397.659 164.172 396.497 163.934C395.335 163.696 394.005 163.402 394.005 161.834C394.005 160.49 395.181 159.51 396.875 159.51C398.163 159.51 399.311 160.084 399.843 160.896L398.709 161.918C398.289 161.26 397.589 160.882 396.777 160.882C396.091 160.882 395.643 161.19 395.643 161.68C395.643 162.212 396.175 162.31 397.099 162.506C398.345 162.772 399.913 163.038 399.913 164.718C399.913 166.202 398.555 167.154 396.889 167.154C395.531 167.154 394.173 166.608 393.515 165.6ZM400.433 165.6L401.693 164.592C402.127 165.306 402.967 165.782 403.821 165.782C404.535 165.782 405.193 165.53 405.193 164.872C405.193 164.242 404.577 164.172 403.415 163.934C402.253 163.696 400.923 163.402 400.923 161.834C400.923 160.49 402.099 159.51 403.793 159.51C405.081 159.51 406.229 160.084 406.761 160.896L405.627 161.918C405.207 161.26 404.507 160.882 403.695 160.882C403.009 160.882 402.561 161.19 402.561 161.68C402.561 162.212 403.093 162.31 404.017 162.506C405.263 162.772 406.831 163.038 406.831 164.718C406.831 166.202 405.473 167.154 403.807 167.154C402.449 167.154 401.091 166.608 400.433 165.6ZM361.092 185V174.948H362.884V183.432H367.616V185H361.092ZM375.191 181.332C375.191 183.614 373.721 185.154 371.649 185.154C369.577 185.154 368.107 183.614 368.107 181.332C368.107 179.05 369.577 177.51 371.649 177.51C373.721 177.51 375.191 179.05 375.191 181.332ZM369.801 181.332C369.801 182.83 370.515 183.74 371.649 183.74C372.783 183.74 373.497 182.83 373.497 181.332C373.497 179.834 372.783 178.924 371.649 178.924C370.515 178.924 369.801 179.834 369.801 181.332ZM378.444 185.126C377.044 185.126 375.966 184.272 375.966 182.956C375.966 181.556 377.016 180.94 378.43 180.646L380.46 180.226V180.1C380.46 179.4 380.096 178.966 379.2 178.966C378.402 178.966 377.982 179.33 377.786 180.044L376.204 179.68C376.568 178.462 377.646 177.51 379.27 177.51C381.034 177.51 382.098 178.35 382.098 180.044V183.208C382.098 183.628 382.28 183.754 382.742 183.698V185C381.524 185.14 380.88 184.902 380.628 184.3C380.166 184.818 379.396 185.126 378.444 185.126ZM380.46 182.41V181.514L378.878 181.85C378.164 182.004 377.632 182.228 377.632 182.886C377.632 183.46 378.052 183.782 378.696 183.782C379.592 183.782 380.46 183.306 380.46 182.41ZM383.936 185V177.65H385.616V178.434C386.036 177.944 386.694 177.51 387.646 177.51C389.186 177.51 390.11 178.574 390.11 180.156V185H388.43V180.646C388.43 179.736 388.066 179.078 387.142 179.078C386.386 179.078 385.616 179.638 385.616 180.688V185H383.936ZM391.054 183.6L392.314 182.592C392.748 183.306 393.588 183.782 394.442 183.782C395.156 183.782 395.814 183.53 395.814 182.872C395.814 182.242 395.198 182.172 394.036 181.934C392.874 181.696 391.544 181.402 391.544 179.834C391.544 178.49 392.72 177.51 394.414 177.51C395.702 177.51 396.85 178.084 397.382 178.896L396.248 179.918C395.828 179.26 395.128 178.882 394.316 178.882C393.63 178.882 393.182 179.19 393.182 179.68C393.182 180.212 393.714 180.31 394.638 180.506C395.884 180.772 397.452 181.038 397.452 182.718C397.452 184.202 396.094 185.154 394.428 185.154C393.07 185.154 391.712 184.608 391.054 183.6Z" fill="#20336B"/>
<path d="M9.9931 15H8.53711L5.90511 7.23V15H4.23911V4.948H6.70311L9.29311 12.648L11.8831 4.948H14.2911V15H12.6251V7.23L9.9931 15ZM22.7403 11.332C22.7403 13.614 21.2703 15.154 19.1983 15.154C17.1263 15.154 15.6563 13.614 15.6563 11.332C15.6563 9.05 17.1263 7.51 19.1983 7.51C21.2703 7.51 22.7403 9.05 22.7403 11.332ZM17.3503 11.332C17.3503 12.83 18.0643 13.74 19.1983 13.74C20.3323 13.74 21.0463 12.83 21.0463 11.332C21.0463 9.834 20.3323 8.924 19.1983 8.924C18.0643 8.924 17.3503 9.834 17.3503 11.332ZM24.048 15V7.65H25.728V8.434C26.148 7.944 26.806 7.51 27.758 7.51C29.298 7.51 30.222 8.574 30.222 10.156V15H28.542V10.646C28.542 9.736 28.178 9.078 27.254 9.078C26.498 9.078 25.728 9.638 25.728 10.688V15H24.048ZM32.0907 13.152V9.078H31.0687V7.65H32.0907V5.494H33.7427V7.65H35.2827V9.078H33.7427V12.886C33.7427 13.544 34.1207 13.614 34.7227 13.614C35.0027 13.614 35.1567 13.6 35.4087 13.572V14.986C35.1007 15.042 34.6807 15.084 34.2467 15.084C32.8467 15.084 32.0907 14.65 32.0907 13.152ZM40.8392 7.636V9.316C40.6292 9.288 40.4612 9.274 40.2232 9.274C39.1592 9.274 38.3472 9.96 38.3472 11.136V15H36.6672V7.65H38.3472V8.742C38.6692 8.056 39.4252 7.608 40.3632 7.608C40.5592 7.608 40.7132 7.622 40.8392 7.636ZM43.7401 15.126C42.3401 15.126 41.2621 14.272 41.2621 12.956C41.2621 11.556 42.3121 10.94 43.7261 10.646L45.7561 10.226V10.1C45.7561 9.4 45.3921 8.966 44.4961 8.966C43.6981 8.966 43.2781 9.33 43.0821 10.044L41.5001 9.68C41.8641 8.462 42.9421 7.51 44.5661 7.51C46.3301 7.51 47.3941 8.35 47.3941 10.044V13.208C47.3941 13.628 47.5761 13.754 48.0381 13.698V15C46.8201 15.14 46.1761 14.902 45.9241 14.3C45.4621 14.818 44.6921 15.126 43.7401 15.126ZM45.7561 12.41V11.514L44.1741 11.85C43.4601 12.004 42.9281 12.228 42.9281 12.886C42.9281 13.46 43.3481 13.782 43.9921 13.782C44.8881 13.782 45.7561 13.306 45.7561 12.41ZM52.1864 15V4.948H56.1764C58.3324 4.948 59.4804 5.886 59.4804 7.594C59.4804 8.84 58.7524 9.484 58.0524 9.764C59.1024 10.1 59.8024 10.968 59.8024 12.2C59.8024 13.964 58.5004 15 56.4284 15H52.1864ZM53.9084 9.106H56.0084C57.1564 9.106 57.7864 8.658 57.7864 7.776C57.7864 6.894 57.1564 6.46 56.0084 6.46H53.9084V9.106ZM53.9084 10.618V13.488H56.3304C57.4644 13.488 58.0804 12.9 58.0804 12.046C58.0804 11.206 57.4644 10.618 56.3304 10.618H53.9084ZM67.1758 7.65V15H65.4958V14.216C65.0758 14.706 64.4458 15.154 63.4938 15.154C61.9538 15.154 61.0018 14.104 61.0018 12.522V7.65H62.6818V12.158C62.6818 13.054 63.0738 13.628 63.9838 13.628C64.7398 13.628 65.4958 13.068 65.4958 12.018V7.65H67.1758ZM68.1765 13.6L69.4365 12.592C69.8705 13.306 70.7105 13.782 71.5645 13.782C72.2785 13.782 72.9365 13.53 72.9365 12.872C72.9365 12.242 72.3205 12.172 71.1585 11.934C69.9965 11.696 68.6665 11.402 68.6665 9.834C68.6665 8.49 69.8425 7.51 71.5365 7.51C72.8245 7.51 73.9725 8.084 74.5045 8.896L73.3705 9.918C72.9505 9.26 72.2505 8.882 71.4385 8.882C70.7525 8.882 70.3045 9.19 70.3045 9.68C70.3045 10.212 70.8365 10.31 71.7605 10.506C73.0065 10.772 74.5745 11.038 74.5745 12.718C74.5745 14.202 73.2165 15.154 71.5505 15.154C70.1925 15.154 68.8345 14.608 68.1765 13.6ZM75.8364 6.67V4.948H77.5724V6.67H75.8364ZM77.5444 7.65V15H75.8644V7.65H77.5444ZM79.3097 15V7.65H80.9897V8.434C81.4097 7.944 82.0677 7.51 83.0197 7.51C84.5597 7.51 85.4837 8.574 85.4837 10.156V15H83.8037V10.646C83.8037 9.736 83.4397 9.078 82.5157 9.078C81.7597 9.078 80.9897 9.638 80.9897 10.688V15H79.3097ZM90.3064 15.154C88.2064 15.154 86.7364 13.6 86.7364 11.332C86.7364 9.176 88.1924 7.51 90.2364 7.51C92.3644 7.51 93.4984 9.12 93.4984 11.136V11.696H88.3464C88.4724 12.956 89.2284 13.726 90.3064 13.726C91.1324 13.726 91.7904 13.306 92.0144 12.55L93.4564 13.096C92.9384 14.384 91.7764 15.154 90.3064 15.154ZM90.2224 8.924C89.3544 8.924 88.6824 9.442 88.4304 10.436H91.8044C91.7904 9.624 91.2864 8.924 90.2224 8.924ZM93.989 13.6L95.249 12.592C95.683 13.306 96.523 13.782 97.377 13.782C98.091 13.782 98.749 13.53 98.749 12.872C98.749 12.242 98.133 12.172 96.971 11.934C95.809 11.696 94.479 11.402 94.479 9.834C94.479 8.49 95.655 7.51 97.349 7.51C98.637 7.51 99.785 8.084 100.317 8.896L99.183 9.918C98.763 9.26 98.063 8.882 97.251 8.882C96.565 8.882 96.117 9.19 96.117 9.68C96.117 10.212 96.649 10.31 97.573 10.506C98.819 10.772 100.387 11.038 100.387 12.718C100.387 14.202 99.029 15.154 97.363 15.154C96.005 15.154 94.647 14.608 93.989 13.6ZM100.907 13.6L102.167 12.592C102.601 13.306 103.441 13.782 104.295 13.782C105.009 13.782 105.667 13.53 105.667 12.872C105.667 12.242 105.051 12.172 103.889 11.934C102.727 11.696 101.397 11.402 101.397 9.834C101.397 8.49 102.573 7.51 104.267 7.51C105.555 7.51 106.703 8.084 107.235 8.896L106.101 9.918C105.681 9.26 104.981 8.882 104.169 8.882C103.483 8.882 103.035 9.19 103.035 9.68C103.035 10.212 103.567 10.31 104.491 10.506C105.737 10.772 107.305 11.038 107.305 12.718C107.305 14.202 105.947 15.154 104.281 15.154C102.923 15.154 101.565 14.608 100.907 13.6ZM33.1843 22.948H35.2143L39.0223 33H37.2163L36.3483 30.704H32.0083L31.1543 33H29.3763L33.1843 22.948ZM34.1643 24.936L32.5963 29.136H35.7603L34.1643 24.936ZM40.9066 29.332C40.9066 30.83 41.6906 31.698 42.8386 31.698C43.7346 31.698 44.2806 31.11 44.4906 30.298L45.9326 31.026C45.5546 32.216 44.4346 33.154 42.8386 33.154C40.7386 33.154 39.2266 31.6 39.2266 29.332C39.2266 27.064 40.7386 25.51 42.8386 25.51C44.4206 25.51 45.5126 26.406 45.9046 27.582L44.4906 28.352C44.2806 27.554 43.7346 26.952 42.8386 26.952C41.6906 26.952 40.9066 27.834 40.9066 29.332ZM48.1664 29.332C48.1664 30.83 48.9504 31.698 50.0984 31.698C50.9944 31.698 51.5404 31.11 51.7504 30.298L53.1924 31.026C52.8144 32.216 51.6944 33.154 50.0984 33.154C47.9984 33.154 46.4864 31.6 46.4864 29.332C46.4864 27.064 47.9984 25.51 50.0984 25.51C51.6804 25.51 52.7724 26.406 53.1644 27.582L51.7504 28.352C51.5404 27.554 50.9944 26.952 50.0984 26.952C48.9504 26.952 48.1664 27.834 48.1664 29.332ZM60.8302 29.332C60.8302 31.614 59.3602 33.154 57.2882 33.154C55.2162 33.154 53.7462 31.614 53.7462 29.332C53.7462 27.05 55.2162 25.51 57.2882 25.51C59.3602 25.51 60.8302 27.05 60.8302 29.332ZM55.4402 29.332C55.4402 30.83 56.1542 31.74 57.2882 31.74C58.4222 31.74 59.1362 30.83 59.1362 29.332C59.1362 27.834 58.4222 26.924 57.2882 26.924C56.1542 26.924 55.4402 27.834 55.4402 29.332ZM68.2559 25.65V33H66.5759V32.216C66.1559 32.706 65.5259 33.154 64.5739 33.154C63.0339 33.154 62.0819 32.104 62.0819 30.522V25.65H63.7619V30.158C63.7619 31.054 64.1539 31.628 65.0639 31.628C65.8199 31.628 66.5759 31.068 66.5759 30.018V25.65H68.2559ZM70.0265 33V25.65H71.7065V26.434C72.1265 25.944 72.7845 25.51 73.7365 25.51C75.2765 25.51 76.2005 26.574 76.2005 28.156V33H74.5205V28.646C74.5205 27.736 74.1565 27.078 73.2325 27.078C72.4765 27.078 71.7065 27.638 71.7065 28.688V33H70.0265ZM78.0692 31.152V27.078H77.0472V25.65H78.0692V23.494H79.7212V25.65H81.2612V27.078H79.7212V30.886C79.7212 31.544 80.0992 31.614 80.7012 31.614C80.9812 31.614 81.1352 31.6 81.3872 31.572V32.986C81.0792 33.042 80.6592 33.084 80.2252 33.084C78.8252 33.084 78.0692 32.65 78.0692 31.152Z" fill="#20336B"/>
<path d="M54 80L56.8868 75H51.1132L54 80ZM53.5 44V75.5H54.5V44H53.5Z" fill="#20336B"/>
<path d="M121 117L116 114.113V119.887L121 117ZM89 117.5H116.5V116.5H89V117.5Z" fill="#20336B"/>
<path d="M52.5 143.5C67.6878 143.5 80 131.188 80 116C80 100.812 67.6878 88.5 52.5 88.5C37.3122 88.5 25 100.812 25 116C25 131.188 37.3122 143.5 52.5 143.5Z" stroke="#20336B"/>
<mask id="mask0_635_27" style="mask-type:luminance" maskUnits="userSpaceOnUse" x="40" y="103" width="24" height="25">
<path d="M64 103.998H40V127.998H64V103.998Z" fill="white"/>
</mask>
<g mask="url(#mask0_635_27)">
<mask id="mask1_635_27" style="mask-type:luminance" maskUnits="userSpaceOnUse" x="40" y="103" width="24" height="25">
<path d="M64 103.998H40V127.998H64V103.998Z" fill="white"/>
</mask>
<g mask="url(#mask1_635_27)">
<path d="M60.4222 123.79C60.4222 125.267 59.2929 126.464 57.8999 126.464H43.5224C42.1293 126.464 41 125.267 41 123.79V111.759C41 110.283 42.1293 109.086 43.5224 109.086" stroke="#20336B"/>
<path d="M60.3594 115.668L60.4233 123.399" stroke="#20336B" stroke-linecap="square" stroke-linejoin="round"/>
<path d="M43.5547 109.086H53.7769" stroke="#20336B" stroke-linecap="square"/>
<path d="M60.4234 113L60.1875 105.48" stroke="#20336B" stroke-linecap="round" stroke-linejoin="round"/>
<path d="M57.6094 109.871L60.2286 112.915C60.2771 112.972 60.3469 113.004 60.4203 113.004C60.4936 113.004 60.5634 112.972 60.6119 112.915L63.2316 109.871" stroke="#20336B" stroke-linecap="round" stroke-linejoin="round"/>
<path d="M45.5 116.498H55.5" stroke="#00BAF2" stroke-linecap="square"/>
<path d="M45.5 118.498H55.5" stroke="#00BAF2" stroke-linecap="square"/>
<path d="M53.5 121.498H52.5L48.5 113.498H47.4375V121.498" stroke="#00BAF2" stroke-linecap="square"/>
<path d="M53.5625 121.498V113.498" stroke="#00BAF2" stroke-linecap="square"/>
</g>
</g>
<mask id="mask2_635_27" style="mask-type:luminance" maskUnits="userSpaceOnUse" x="40" y="104" width="24" height="24">
<path d="M64 104H40V128H64V104Z" fill="white"/>
</mask>
<g mask="url(#mask2_635_27)">
<mask id="mask3_635_27" style="mask-type:luminance" maskUnits="userSpaceOnUse" x="40" y="104" width="24" height="24">
<path d="M64 104H40V128H64V104Z" fill="white"/>
</mask>
<g mask="url(#mask3_635_27)">
<path d="M60.4222 123.792C60.4222 125.269 59.2929 126.466 57.8999 126.466H43.5224C42.1293 126.466 41 125.269 41 123.792V111.761C41 110.285 42.1293 109.088 43.5224 109.088" stroke="#20336B"/>
<path d="M60.3594 115.67L60.4233 123.401" stroke="#20336B" stroke-linecap="square" stroke-linejoin="round"/>
<path d="M43.5547 109.088H53.7769" stroke="#20336B" stroke-linecap="square"/>
<path d="M60.4234 113.002L60.1875 105.482" stroke="#20336B" stroke-linecap="round" stroke-linejoin="round"/>
<path d="M57.6094 109.873L60.2286 112.917C60.2771 112.974 60.3469 113.006 60.4203 113.006C60.4936 113.006 60.5634 112.974 60.6119 112.917L63.2316 109.873" stroke="#20336B" stroke-linecap="round" stroke-linejoin="round"/>
<path d="M45.5 116.5H55.5" stroke="#00BAF2" stroke-linecap="square"/>
<path d="M45.5 118.5H55.5" stroke="#00BAF2" stroke-linecap="square"/>
<path d="M53.5 121.5H52.5L48.5 113.5H47.4375V121.5" stroke="#00BAF2" stroke-linecap="square"/>
<path d="M53.5625 121.5V113.5" stroke="#00BAF2" stroke-linecap="square"/>
</g>
</g>
<path d="M34.0945 156.948H36.1245L39.9325 167H38.1265L37.2585 164.704H32.9185L32.0645 167H30.2865L34.0945 156.948ZM35.0745 158.936L33.5065 163.136H36.6705L35.0745 158.936ZM41.8168 163.332C41.8168 164.83 42.6008 165.698 43.7488 165.698C44.6448 165.698 45.1908 165.11 45.4008 164.298L46.8428 165.026C46.4648 166.216 45.3448 167.154 43.7488 167.154C41.6488 167.154 40.1368 165.6 40.1368 163.332C40.1368 161.064 41.6488 159.51 43.7488 159.51C45.3308 159.51 46.4228 160.406 46.8148 161.582L45.4008 162.352C45.1908 161.554 44.6448 160.952 43.7488 160.952C42.6008 160.952 41.8168 161.834 41.8168 163.332ZM49.0766 163.332C49.0766 164.83 49.8606 165.698 51.0086 165.698C51.9046 165.698 52.4506 165.11 52.6606 164.298L54.1026 165.026C53.7246 166.216 52.6046 167.154 51.0086 167.154C48.9086 167.154 47.3966 165.6 47.3966 163.332C47.3966 161.064 48.9086 159.51 51.0086 159.51C52.5906 159.51 53.6826 160.406 54.0746 161.582L52.6606 162.352C52.4506 161.554 51.9046 160.952 51.0086 160.952C49.8606 160.952 49.0766 161.834 49.0766 163.332ZM58.2263 167.154C56.1263 167.154 54.6563 165.6 54.6563 163.332C54.6563 161.176 56.1123 159.51 58.1563 159.51C60.2843 159.51 61.4183 161.12 61.4183 163.136V163.696H56.2663C56.3923 164.956 57.1483 165.726 58.2263 165.726C59.0523 165.726 59.7103 165.306 59.9343 164.55L61.3763 165.096C60.8583 166.384 59.6963 167.154 58.2263 167.154ZM58.1423 160.924C57.2743 160.924 56.6023 161.442 56.3503 162.436H59.7243C59.7103 161.624 59.2063 160.924 58.1423 160.924ZM66.4729 167.154C65.5209 167.154 64.8209 166.776 64.3589 166.23V169.52H62.6789V159.65H64.3589V160.434C64.8209 159.888 65.5209 159.51 66.4729 159.51C68.5309 159.51 69.7069 161.246 69.7069 163.332C69.7069 165.418 68.5309 167.154 66.4729 167.154ZM64.3169 163.122V163.556C64.3169 164.914 65.1009 165.684 66.1369 165.684C67.3549 165.684 68.0129 164.732 68.0129 163.332C68.0129 161.932 67.3549 160.98 66.1369 160.98C65.1009 160.98 64.3169 161.736 64.3169 163.122ZM71.159 165.152V161.078H70.137V159.65H71.159V157.494H72.811V159.65H74.351V161.078H72.811V164.886C72.811 165.544 73.189 165.614 73.791 165.614C74.071 165.614 74.225 165.6 74.477 165.572V166.986C74.169 167.042 73.749 167.084 73.315 167.084C71.915 167.084 71.159 166.65 71.159 165.152ZM24.1336 181.108V185H22.3416V174.948H26.3596C28.5996 174.948 29.9996 175.998 29.9996 178.028C29.9996 180.03 28.5996 181.108 26.3596 181.108H24.1336ZM24.1336 179.568H26.2616C27.5496 179.568 28.2356 179.008 28.2356 178.028C28.2356 177.034 27.5496 176.488 26.2616 176.488H24.1336V179.568ZM32.7899 185.126C31.3899 185.126 30.3119 184.272 30.3119 182.956C30.3119 181.556 31.3619 180.94 32.7759 180.646L34.8059 180.226V180.1C34.8059 179.4 34.4419 178.966 33.5459 178.966C32.7479 178.966 32.3279 179.33 32.1319 180.044L30.5499 179.68C30.9139 178.462 31.9919 177.51 33.6159 177.51C35.3799 177.51 36.4439 178.35 36.4439 180.044V183.208C36.4439 183.628 36.6259 183.754 37.0879 183.698V185C35.8699 185.14 35.2259 184.902 34.9739 184.3C34.5119 184.818 33.7419 185.126 32.7899 185.126ZM34.8059 182.41V181.514L33.2239 181.85C32.5099 182.004 31.9779 182.228 31.9779 182.886C31.9779 183.46 32.3979 183.782 33.0419 183.782C33.9379 183.782 34.8059 183.306 34.8059 182.41ZM41.3367 185.686C40.9167 186.806 40.2727 187.576 38.7467 187.576C38.3967 187.576 38.2987 187.562 38.0607 187.534V186.12C38.2847 186.148 38.4107 186.162 38.6207 186.162C39.1807 186.162 39.4467 186.008 39.6847 185.42L39.9647 184.734L37.2907 177.65H39.0547L40.8607 182.802L42.6247 177.65H44.3607L41.3367 185.686ZM46.9477 180.688V185H45.2677V177.65H46.9477V178.434C47.3537 177.944 47.9837 177.51 48.9637 177.51C49.8457 177.51 50.5037 177.902 50.9097 178.532C51.3577 178.056 52.0577 177.51 53.1917 177.51C54.7037 177.51 55.6837 178.574 55.6837 180.156V185H54.0037V180.646C54.0037 179.736 53.6677 179.078 52.7717 179.078C52.0577 179.078 51.3157 179.638 51.3157 180.688V185H49.6357V180.646C49.6357 179.736 49.2997 179.078 48.4037 179.078C47.6897 179.078 46.9477 179.638 46.9477 180.688ZM60.5027 185.154C58.4027 185.154 56.9327 183.6 56.9327 181.332C56.9327 179.176 58.3887 177.51 60.4327 177.51C62.5607 177.51 63.6947 179.12 63.6947 181.136V181.696H58.5427C58.6687 182.956 59.4247 183.726 60.5027 183.726C61.3287 183.726 61.9867 183.306 62.2107 182.55L63.6527 183.096C63.1347 184.384 61.9727 185.154 60.5027 185.154ZM60.4187 178.924C59.5507 178.924 58.8787 179.442 58.6267 180.436H62.0007C61.9867 179.624 61.4827 178.924 60.4187 178.924ZM64.9552 185V177.65H66.6352V178.434C67.0552 177.944 67.7132 177.51 68.6652 177.51C70.2052 177.51 71.1292 178.574 71.1292 180.156V185H69.4492V180.646C69.4492 179.736 69.0852 179.078 68.1612 179.078C67.4052 179.078 66.6352 179.638 66.6352 180.688V185H64.9552ZM72.9979 183.152V179.078H71.9759V177.65H72.9979V175.494H74.6499V177.65H76.1899V179.078H74.6499V182.886C74.6499 183.544 75.0279 183.614 75.6299 183.614C75.9099 183.614 76.0639 183.6 76.3159 183.572V184.986C76.0079 185.042 75.5879 185.084 75.1539 185.084C73.7539 185.084 72.9979 184.65 72.9979 183.152ZM76.8044 183.6L78.0644 182.592C78.4984 183.306 79.3384 183.782 80.1924 183.782C80.9064 183.782 81.5644 183.53 81.5644 182.872C81.5644 182.242 80.9484 182.172 79.7864 181.934C78.6244 181.696 77.2944 181.402 77.2944 179.834C77.2944 178.49 78.4704 177.51 80.1644 177.51C81.4524 177.51 82.6004 178.084 83.1324 178.896L81.9984 179.918C81.5784 179.26 80.8784 178.882 80.0664 178.882C79.3804 178.882 78.9324 179.19 78.9324 179.68C78.9324 180.212 79.4644 180.31 80.3884 180.506C81.6344 180.772 83.2024 181.038 83.2024 182.718C83.2024 184.202 81.8444 185.154 80.1784 185.154C78.8204 185.154 77.4624 184.608 76.8044 183.6Z" fill="#20336B"/>
<path d="M343 117L338 114.113V119.887L343 117ZM311 117.5H338.5V116.5H311V117.5Z" fill="#20336B"/>
<path d="M275 143.5C290.188 143.5 302.5 131.188 302.5 116C302.5 100.812 290.188 88.5 275 88.5C259.812 88.5 247.5 100.812 247.5 116C247.5 131.188 259.812 143.5 275 143.5Z" stroke="#20336B"/>
<path d="M264.297 127.016L264.888 125.313C264.933 125.182 265.06 125.094 265.204 125.094H277.39C277.534 125.094 277.661 125.182 277.706 125.313L278.297 127.014" stroke="#20336B" stroke-linecap="round" stroke-linejoin="round"/>
<path fill-rule="evenodd" clip-rule="evenodd" d="M265.633 118.057H276.966V125.097H265.633V118.057Z" stroke="#20336B" stroke-linecap="round" stroke-linejoin="round"/>
<path d="M278.966 127.016H263.633" stroke="#20336B" stroke-linecap="round" stroke-linejoin="round"/>
<path d="M267.633 118.057V125.097" stroke="#20336B" stroke-linecap="round" stroke-linejoin="round"/>
<path d="M269.633 118.057V125.097" stroke="#20336B" stroke-linecap="round" stroke-linejoin="round"/>
<path d="M272.969 118.057V125.097" stroke="#20336B" stroke-linecap="round" stroke-linejoin="round"/>
<path d="M274.969 118.057V125.097" stroke="#20336B" stroke-linecap="round" stroke-linejoin="round"/>
<path fill-rule="evenodd" clip-rule="evenodd" d="M278.216 116.385C278.266 116.241 278.203 116.082 278.066 116.006L271.468 112.385C271.365 112.328 271.238 112.328 271.135 112.385L264.535 116.004C264.397 116.08 264.334 116.238 264.384 116.383L264.894 117.837C264.939 117.968 265.066 118.056 265.21 118.056H277.396C277.54 118.056 277.667 117.968 277.712 117.837L278.216 116.385Z" stroke="#20336B" stroke-linecap="round" stroke-linejoin="round"/>
<path d="M278.187 116.137H264.406" stroke="#20336B" stroke-linecap="round" stroke-linejoin="round"/>
<path fill-rule="evenodd" clip-rule="evenodd" d="M276.266 109.911C276.266 107.199 278.464 105 281.176 105C283.888 105 286.087 107.199 286.087 109.911C286.087 112.623 283.888 114.821 281.176 114.821C278.464 114.821 276.266 112.623 276.266 109.911Z" stroke="#20336B"/>
<path d="M278.266 109.355H284.326" stroke="#00BAF2" stroke-linecap="square"/>
<path d="M278.266 110.416H284.326" stroke="#00BAF2" stroke-linecap="square"/>
<path d="M283.112 112.008H282.506L280.081 107.766H279.438V112.008" stroke="#00BAF2" stroke-linecap="square"/>
<path d="M283.148 112.008V107.766" stroke="#00BAF2" stroke-linecap="square"/>
<path d="M281.422 115V120.862C281.422 121.414 280.974 121.862 280.422 121.862H277.305" stroke="#20336B"/>
<path d="M276.359 121.829L278.463 120.306L278.37 123.474L276.359 121.829Z" fill="#20336B"/>
<path d="M244.069 156.948H250.873V158.516H245.833V161.036H250.075V162.604H245.833V165.432H250.873V167H244.069V156.948ZM254.189 167.126C252.789 167.126 251.711 166.272 251.711 164.956C251.711 163.556 252.761 162.94 254.175 162.646L256.205 162.226V162.1C256.205 161.4 255.841 160.966 254.945 160.966C254.147 160.966 253.727 161.33 253.531 162.044L251.949 161.68C252.313 160.462 253.391 159.51 255.015 159.51C256.779 159.51 257.843 160.35 257.843 162.044V165.208C257.843 165.628 258.025 165.754 258.487 165.698V167C257.269 167.14 256.625 166.902 256.373 166.3C255.911 166.818 255.141 167.126 254.189 167.126ZM256.205 164.41V163.514L254.623 163.85C253.909 164.004 253.377 164.228 253.377 164.886C253.377 165.46 253.797 165.782 254.441 165.782C255.337 165.782 256.205 165.306 256.205 164.41ZM258.911 165.6L260.171 164.592C260.605 165.306 261.445 165.782 262.299 165.782C263.013 165.782 263.671 165.53 263.671 164.872C263.671 164.242 263.055 164.172 261.893 163.934C260.731 163.696 259.401 163.402 259.401 161.834C259.401 160.49 260.577 159.51 262.271 159.51C263.559 159.51 264.707 160.084 265.239 160.896L264.105 161.918C263.685 161.26 262.985 160.882 262.173 160.882C261.487 160.882 261.039 161.19 261.039 161.68C261.039 162.212 261.571 162.31 262.495 162.506C263.741 162.772 265.309 163.038 265.309 164.718C265.309 166.202 263.951 167.154 262.285 167.154C260.927 167.154 259.569 166.608 258.911 165.6ZM269.654 167.686C269.234 168.806 268.59 169.576 267.064 169.576C266.714 169.576 266.616 169.562 266.378 169.534V168.12C266.602 168.148 266.728 168.162 266.938 168.162C267.498 168.162 267.764 168.008 268.002 167.42L268.282 166.734L265.608 159.65H267.372L269.178 164.802L270.942 159.65H272.678L269.654 167.686ZM280.264 167.154C279.312 167.154 278.612 166.776 278.15 166.23V167H276.47V156.948H278.15V160.434C278.612 159.888 279.312 159.51 280.264 159.51C282.322 159.51 283.498 161.246 283.498 163.332C283.498 165.418 282.322 167.154 280.264 167.154ZM278.108 163.122V163.556C278.108 164.914 278.892 165.684 279.928 165.684C281.146 165.684 281.804 164.732 281.804 163.332C281.804 161.932 281.146 160.98 279.928 160.98C278.892 160.98 278.108 161.736 278.108 163.122ZM286.742 167.126C285.342 167.126 284.264 166.272 284.264 164.956C284.264 163.556 285.314 162.94 286.728 162.646L288.758 162.226V162.1C288.758 161.4 288.394 160.966 287.498 160.966C286.7 160.966 286.28 161.33 286.084 162.044L284.502 161.68C284.866 160.462 285.944 159.51 287.568 159.51C289.332 159.51 290.396 160.35 290.396 162.044V165.208C290.396 165.628 290.578 165.754 291.04 165.698V167C289.822 167.14 289.178 166.902 288.926 166.3C288.464 166.818 287.694 167.126 286.742 167.126ZM288.758 164.41V163.514L287.176 163.85C286.462 164.004 285.93 164.228 285.93 164.886C285.93 165.46 286.35 165.782 286.994 165.782C287.89 165.782 288.758 165.306 288.758 164.41ZM292.234 167V159.65H293.914V160.434C294.334 159.944 294.992 159.51 295.944 159.51C297.484 159.51 298.408 160.574 298.408 162.156V167H296.728V162.646C296.728 161.736 296.364 161.078 295.44 161.078C294.684 161.078 293.914 161.638 293.914 162.688V167H292.234ZM301.802 156.948V162.744L304.63 159.65H306.688L303.916 162.506L306.912 167H304.966L302.768 163.682L301.802 164.662V167H300.122V156.948H301.802ZM248.015 183.152V179.078H246.993V177.65H248.015V175.494H249.667V177.65H251.207V179.078H249.667V182.886C249.667 183.544 250.045 183.614 250.647 183.614C250.927 183.614 251.081 183.6 251.333 183.572V184.986C251.025 185.042 250.605 185.084 250.171 185.084C248.771 185.084 248.015 184.65 248.015 183.152ZM256.764 177.636V179.316C256.554 179.288 256.386 179.274 256.148 179.274C255.084 179.274 254.272 179.96 254.272 181.136V185H252.592V177.65H254.272V178.742C254.594 178.056 255.35 177.608 256.288 177.608C256.484 177.608 256.638 177.622 256.764 177.636ZM259.665 185.126C258.265 185.126 257.187 184.272 257.187 182.956C257.187 181.556 258.237 180.94 259.651 180.646L261.681 180.226V180.1C261.681 179.4 261.317 178.966 260.421 178.966C259.623 178.966 259.203 179.33 259.007 180.044L257.425 179.68C257.789 178.462 258.867 177.51 260.491 177.51C262.255 177.51 263.319 178.35 263.319 180.044V183.208C263.319 183.628 263.501 183.754 263.963 183.698V185C262.745 185.14 262.101 184.902 261.849 184.3C261.387 184.818 260.617 185.126 259.665 185.126ZM261.681 182.41V181.514L260.099 181.85C259.385 182.004 258.853 182.228 258.853 182.886C258.853 183.46 259.273 183.782 259.917 183.782C260.813 183.782 261.681 183.306 261.681 182.41ZM265.156 185V177.65H266.836V178.434C267.256 177.944 267.914 177.51 268.866 177.51C270.406 177.51 271.33 178.574 271.33 180.156V185H269.65V180.646C269.65 179.736 269.286 179.078 268.362 179.078C267.606 179.078 266.836 179.638 266.836 180.688V185H265.156ZM272.275 183.6L273.535 182.592C273.969 183.306 274.809 183.782 275.663 183.782C276.377 183.782 277.035 183.53 277.035 182.872C277.035 182.242 276.419 182.172 275.257 181.934C274.095 181.696 272.765 181.402 272.765 179.834C272.765 178.49 273.941 177.51 275.635 177.51C276.923 177.51 278.071 178.084 278.603 178.896L277.469 179.918C277.049 179.26 276.349 178.882 275.537 178.882C274.851 178.882 274.403 179.19 274.403 179.68C274.403 180.212 274.935 180.31 275.859 180.506C277.105 180.772 278.673 181.038 278.673 182.718C278.673 184.202 277.315 185.154 275.649 185.154C274.291 185.154 272.933 184.608 272.275 183.6ZM283.365 174.808V176.278C283.169 176.264 283.071 176.264 282.861 176.264C282.203 176.264 281.839 176.46 281.839 177.3V177.65H283.337V179.078H281.839V185H280.159V179.078H279.137V177.65H280.159V177.174C280.159 175.648 281.013 174.794 282.665 174.794C282.931 174.794 283.057 174.794 283.365 174.808ZM287.337 185.154C285.237 185.154 283.767 183.6 283.767 181.332C283.767 179.176 285.223 177.51 287.267 177.51C289.395 177.51 290.529 179.12 290.529 181.136V181.696H285.377C285.503 182.956 286.259 183.726 287.337 183.726C288.163 183.726 288.821 183.306 289.045 182.55L290.487 183.096C289.969 184.384 288.807 185.154 287.337 185.154ZM287.253 178.924C286.385 178.924 285.713 179.442 285.461 180.436H288.835C288.821 179.624 288.317 178.924 287.253 178.924ZM295.961 177.636V179.316C295.751 179.288 295.583 179.274 295.345 179.274C294.281 179.274 293.469 179.96 293.469 181.136V185H291.789V177.65H293.469V178.742C293.791 178.056 294.547 177.608 295.485 177.608C295.681 177.608 295.835 177.622 295.961 177.636ZM296.215 183.6L297.475 182.592C297.909 183.306 298.749 183.782 299.603 183.782C300.317 183.782 300.975 183.53 300.975 182.872C300.975 182.242 300.359 182.172 299.197 181.934C298.035 181.696 296.705 181.402 296.705 179.834C296.705 178.49 297.881 177.51 299.575 177.51C300.863 177.51 302.011 178.084 302.543 178.896L301.409 179.918C300.989 179.26 300.289 178.882 299.477 178.882C298.791 178.882 298.343 179.19 298.343 179.68C298.343 180.212 298.875 180.31 299.799 180.506C301.045 180.772 302.613 181.038 302.613 182.718C302.613 184.202 301.255 185.154 299.589 185.154C298.231 185.154 296.873 184.608 296.215 183.6Z" fill="#20336B"/>
<path d="M239 117L234 114.113V119.887L239 117ZM207 117.5H234.5V116.5H207V117.5Z" fill="#20336B"/>
<path d="M170.5 143.5C185.688 143.5 198 131.188 198 116C198 100.812 185.688 88.5 170.5 88.5C155.312 88.5 143 100.812 143 116C143 131.188 155.312 143.5 170.5 143.5Z" stroke="#20336B"/>
<mask id="mask4_635_27" style="mask-type:luminance" maskUnits="userSpaceOnUse" x="158" y="103" width="24" height="25">
<path d="M182 103.998H158V127.998H182V103.998Z" fill="white"/>
</mask>
<g mask="url(#mask4_635_27)">
<path d="M177.5 104.498H164.5C163.119 104.498 162 105.618 162 106.998V123.634C162 125.122 161.299 126.523 160.109 127.416L160 127.498H173L173.109 127.416C174.299 126.523 175 125.122 175 123.634V107.141C174.972 105.823 175.936 104.693 177.242 104.511C177.946 104.438 178.648 104.667 179.174 105.141C179.7 105.616 180 106.29 180 106.998V110.498C180 111.051 179.552 111.498 179 111.498H175" stroke="#20336B" stroke-linecap="round" stroke-linejoin="round"/>
<path d="M164.5 108.498H167" stroke="#00BAF2" stroke-linecap="round" stroke-linejoin="round"/>
<path d="M166.5 111.498H172" stroke="#00BAF2" stroke-linecap="round" stroke-linejoin="round"/>
<path d="M164.5 114.498H172" stroke="#00BAF2" stroke-linecap="round" stroke-linejoin="round"/>
<path d="M164.5 117.498H172" stroke="#00BAF2" stroke-linecap="round" stroke-linejoin="round"/>
<path d="M164.5 120.498H169" stroke="#00BAF2" stroke-linecap="round" stroke-linejoin="round"/>
<path d="M164.5 120.498H172" stroke="#00BAF2" stroke-linecap="round" stroke-linejoin="round"/>
<path d="M164.5 123.498H169" stroke="#00BAF2" stroke-linecap="round" stroke-linejoin="round"/>
</g>
<path d="M161.559 158.516H158.325V167H156.533V158.516H153.299V156.948H161.559V158.516ZM165.498 159.636V161.316C165.288 161.288 165.12 161.274 164.882 161.274C163.818 161.274 163.006 161.96 163.006 163.136V167H161.326V159.65H163.006V160.742C163.328 160.056 164.084 159.608 165.022 159.608C165.218 159.608 165.372 159.622 165.498 159.636ZM168.399 167.126C166.999 167.126 165.921 166.272 165.921 164.956C165.921 163.556 166.971 162.94 168.385 162.646L170.415 162.226V162.1C170.415 161.4 170.051 160.966 169.155 160.966C168.357 160.966 167.937 161.33 167.741 162.044L166.159 161.68C166.523 160.462 167.601 159.51 169.225 159.51C170.989 159.51 172.053 160.35 172.053 162.044V165.208C172.053 165.628 172.235 165.754 172.697 165.698V167C171.479 167.14 170.835 166.902 170.583 166.3C170.121 166.818 169.351 167.126 168.399 167.126ZM170.415 164.41V163.514L168.833 163.85C168.119 164.004 167.587 164.228 167.587 164.886C167.587 165.46 168.007 165.782 168.651 165.782C169.547 165.782 170.415 165.306 170.415 164.41ZM175.109 163.332C175.109 164.83 175.893 165.698 177.041 165.698C177.937 165.698 178.483 165.11 178.693 164.298L180.135 165.026C179.757 166.216 178.637 167.154 177.041 167.154C174.941 167.154 173.429 165.6 173.429 163.332C173.429 161.064 174.941 159.51 177.041 159.51C178.623 159.51 179.715 160.406 180.107 161.582L178.693 162.352C178.483 161.554 177.937 160.952 177.041 160.952C175.893 160.952 175.109 161.834 175.109 163.332ZM182.831 156.948V162.744L185.659 159.65H187.717L184.945 162.506L187.941 167H185.995L183.797 163.682L182.831 164.662V167H181.151V156.948H182.831ZM137.781 179.974C137.781 182.144 138.957 183.572 140.609 183.572C141.785 183.572 142.639 182.858 142.947 181.682L144.627 182.256C144.039 184.034 142.639 185.154 140.609 185.154C137.935 185.154 135.989 183.026 135.989 179.974C135.989 176.922 137.935 174.794 140.609 174.794C142.639 174.794 144.039 175.914 144.627 177.692L142.947 178.266C142.639 177.09 141.785 176.376 140.609 176.376C138.957 176.376 137.781 177.804 137.781 179.974ZM152.397 181.332C152.397 183.614 150.927 185.154 148.855 185.154C146.783 185.154 145.313 183.614 145.313 181.332C145.313 179.05 146.783 177.51 148.855 177.51C150.927 177.51 152.397 179.05 152.397 181.332ZM147.007 181.332C147.007 182.83 147.721 183.74 148.855 183.74C149.989 183.74 150.703 182.83 150.703 181.332C150.703 179.834 149.989 178.924 148.855 178.924C147.721 178.924 147.007 179.834 147.007 181.332ZM155.384 174.948V185H153.704V174.948H155.384ZM158.83 174.948V185H157.15V174.948H158.83ZM163.703 185.154C161.603 185.154 160.133 183.6 160.133 181.332C160.133 179.176 161.589 177.51 163.633 177.51C165.761 177.51 166.895 179.12 166.895 181.136V181.696H161.743C161.869 182.956 162.625 183.726 163.703 183.726C164.529 183.726 165.187 183.306 165.411 182.55L166.853 183.096C166.335 184.384 165.173 185.154 163.703 185.154ZM163.619 178.924C162.751 178.924 162.079 179.442 161.827 180.436H165.201C165.187 179.624 164.683 178.924 163.619 178.924ZM169.373 181.332C169.373 182.83 170.157 183.698 171.305 183.698C172.201 183.698 172.747 183.11 172.957 182.298L174.399 183.026C174.021 184.216 172.901 185.154 171.305 185.154C169.205 185.154 167.693 183.6 167.693 181.332C167.693 179.064 169.205 177.51 171.305 177.51C172.887 177.51 173.979 178.406 174.371 179.582L172.957 180.352C172.747 179.554 172.201 178.952 171.305 178.952C170.157 178.952 169.373 179.834 169.373 181.332ZM175.569 183.152V179.078H174.547V177.65H175.569V175.494H177.221V177.65H178.761V179.078H177.221V182.886C177.221 183.544 177.599 183.614 178.201 183.614C178.481 183.614 178.635 183.6 178.887 183.572V184.986C178.579 185.042 178.159 185.084 177.725 185.084C176.325 185.084 175.569 184.65 175.569 183.152ZM180.118 176.67V174.948H181.854V176.67H180.118ZM181.826 177.65V185H180.146V177.65H181.826ZM190.213 181.332C190.213 183.614 188.743 185.154 186.671 185.154C184.599 185.154 183.129 183.614 183.129 181.332C183.129 179.05 184.599 177.51 186.671 177.51C188.743 177.51 190.213 179.05 190.213 181.332ZM184.823 181.332C184.823 182.83 185.537 183.74 186.671 183.74C187.805 183.74 188.519 182.83 188.519 181.332C188.519 179.834 187.805 178.924 186.671 178.924C185.537 178.924 184.823 179.834 184.823 181.332ZM191.521 185V177.65H193.201V178.434C193.621 177.944 194.279 177.51 195.231 177.51C196.771 177.51 197.695 178.574 197.695 180.156V185H196.015V180.646C196.015 179.736 195.651 179.078 194.727 179.078C193.971 179.078 193.201 179.638 193.201 180.688V185H191.521ZM198.639 183.6L199.899 182.592C200.333 183.306 201.173 183.782 202.027 183.782C202.741 183.782 203.399 183.53 203.399 182.872C203.399 182.242 202.783 182.172 201.621 181.934C200.459 181.696 199.129 181.402 199.129 179.834C199.129 178.49 200.305 177.51 201.999 177.51C203.287 177.51 204.435 178.084 204.967 178.896L203.833 179.918C203.413 179.26 202.713 178.882 201.901 178.882C201.215 178.882 200.767 179.19 200.767 179.68C200.767 180.212 201.299 180.31 202.223 180.506C203.469 180.772 205.037 181.038 205.037 182.718C205.037 184.202 203.679 185.154 202.013 185.154C200.655 185.154 199.297 184.608 198.639 183.6Z" fill="#20336B"/>
</svg>
