<svg width="48" height="48" viewBox="0 0 48 48" fill="none" xmlns="http://www.w3.org/2000/svg">
<g clip-path="url(#clip0_2283_100)">
<path d="M24 47.5C36.9787 47.5 47.5 36.9787 47.5 24C47.5 11.0213 36.9787 0.5 24 0.5C11.0213 0.5 0.5 11.0213 0.5 24C0.5 36.9787 11.0213 47.5 24 47.5Z" stroke="#20336B"/>
<path fill-rule="evenodd" clip-rule="evenodd" d="M19 11C17.3431 11 16 12.343 16 14V19H19.5V28H16V34C16 35.657 17.3431 37 19 37H30C31.6569 37 33 35.657 33 34V14C33 12.343 31.6569 11 30 11H19Z" fill="#20336B"/>
<path d="M31.8 14H17.5V33H31.8V14Z" fill="white"/>
<path d="M24.7 29.2C27.7375 29.2 30.2 26.7376 30.2 23.7C30.2 20.6624 27.7375 18.2 24.7 18.2C21.6624 18.2 19.2 20.6624 19.2 23.7C19.2 26.7376 21.6624 29.2 24.7 29.2Z" fill="#20336B"/>
<path d="M26.3068 26.526C26.2591 26.526 26.2114 26.515 26.1683 26.494C26.1252 26.472 26.0881 26.441 26.0589 26.403L22.8968 22.228V26.219C22.8968 26.389 22.7583 26.526 22.5866 26.526C22.4155 26.526 22.277 26.389 22.277 26.219V21.307C22.277 21.243 22.2969 21.18 22.3353 21.127C22.3731 21.076 22.4268 21.036 22.4884 21.016C22.5501 20.995 22.617 20.995 22.6794 21.014C22.741 21.033 22.7954 21.072 22.8345 21.123L25.9973 25.298V21.307C25.9973 21.137 26.1358 21 26.3068 21C26.4779 21 26.6171 21.137 26.6171 21.307V26.219C26.6171 26.26 26.6091 26.299 26.5932 26.336C26.578 26.374 26.5548 26.407 26.5262 26.436C26.4977 26.464 26.4633 26.487 26.4255 26.503C26.3884 26.518 26.3479 26.526 26.3068 26.526Z" fill="white"/>
<path d="M27.0804 23.458H21.8096C21.6386 23.458 21.5 23.32 21.5 23.15C21.5 22.981 21.6386 22.844 21.8096 22.844H27.0804C27.2515 22.844 27.39 22.981 27.39 23.15C27.39 23.32 27.2515 23.458 27.0804 23.458ZM27.0804 24.686H21.8096C21.6386 24.686 21.5 24.549 21.5 24.379C21.5 24.209 21.6386 24.072 21.8096 24.072H27.0804C27.2515 24.072 27.39 24.209 27.39 24.379C27.39 24.549 27.2515 24.686 27.0804 24.686Z" fill="white"/>
<path d="M13.5 21H18.5" stroke="#4ABCEB" stroke-linecap="round"/>
<path d="M11.5 23.8H17.5" stroke="#4ABCEB" stroke-linecap="round"/>
<path d="M13.5 26.5H18.5" stroke="#4ABCEB" stroke-linecap="round"/>
<path d="M11.75 21.7C12.1642 21.7 12.5 21.3642 12.5 20.95C12.5 20.5358 12.1642 20.2 11.75 20.2C11.3358 20.2 11 20.5358 11 20.95C11 21.3642 11.3358 21.7 11.75 21.7Z" fill="#4ABCEB"/>
<path d="M9.75 24.5C10.1642 24.5 10.5 24.1642 10.5 23.75C10.5 23.3358 10.1642 23 9.75 23C9.33579 23 9 23.3358 9 23.75C9 24.1642 9.33579 24.5 9.75 24.5Z" fill="#4ABCEB"/>
<path d="M11.75 27.3C12.1642 27.3 12.5 26.9642 12.5 26.55C12.5 26.1358 12.1642 25.8 11.75 25.8C11.3358 25.8 11 26.1358 11 26.55C11 26.9642 11.3358 27.3 11.75 27.3Z" fill="#4ABCEB"/>
</g>
<defs>
<clipPath id="clip0_2283_100">
<rect width="48" height="48" fill="white"/>
</clipPath>
</defs>
</svg>
