<svg width="48" height="48" viewBox="0 0 48 48" fill="none" xmlns="http://www.w3.org/2000/svg">
<circle cx="24" cy="24" r="23.5" stroke="#20336B"/>
<path d="M13.0845 21.839C12.9182 22.7506 12.8711 23.6849 12.9441 24.6159L15.0582 24.4532C14.9993 23.7011 15.0372 22.9471 15.1712 22.212L13.0845 21.839ZM15.4069 21.2414C15.6265 20.5229 15.9384 19.8354 16.3349 19.1956L14.5274 18.0973C14.0358 18.8904 13.6492 19.7429 13.377 20.6336L15.4069 21.2414ZM19.3598 16.2366C20.0109 15.8524 20.7095 15.5532 21.4381 15.3464L20.8542 13.3276C19.9497 13.5843 19.0826 13.9557 18.2743 14.4326L19.3598 16.2366ZM27.8265 15.9191L28.7713 14.0391C27.9294 13.6242 27.037 13.3185 26.1161 13.1297L25.6863 15.186C26.4286 15.3382 27.1479 15.5846 27.8265 15.9191ZM22.9316 12.9474C22.6446 12.9723 22.3561 13.0085 22.0741 13.0552L22.423 15.1264C22.6529 15.0885 22.8842 15.0595 23.1164 15.0393C23.6406 14.9939 24.1697 14.9942 24.689 15.0403L24.878 12.9487C24.2305 12.8917 23.5792 12.8913 22.9316 12.9474ZM15.2407 17.0806L16.911 18.3743C17.3784 17.7824 17.9204 17.2521 18.5237 16.7963L17.2378 15.1266C16.4907 15.691 15.8196 16.3477 15.2407 17.0806ZM25.6024 30.0425L21.9863 33.5319C21.8186 33.6939 21.8395 33.9308 22.0331 34.0614L26.2061 36.876C26.3997 37.0067 26.5401 36.9251 26.5197 36.6941L26.315 34.3773C26.3607 34.3671 26.4063 34.3565 26.4518 34.3456C26.4742 34.3402 26.4967 34.3353 26.519 34.3299C26.6831 34.2899 26.8463 34.2461 27.0083 34.1986C27.0235 34.1943 27.0386 34.1894 27.0538 34.185C27.2332 34.1317 27.4115 34.0752 27.5878 34.0128L27.587 34.0108C27.9827 33.8704 28.3664 33.7066 28.7387 33.5245L28.7411 33.5293C29.5844 33.1173 30.3707 32.5996 31.0806 31.9889L31.0758 31.9835C31.3907 31.7122 31.6908 31.4251 31.9723 31.1213L31.9767 31.1254C32.6118 30.4398 33.1558 29.6766 33.5955 28.8545L33.5889 28.851C33.7845 28.4864 33.9589 28.1111 34.1113 27.7269L34.1165 27.7289C34.3912 27.0334 34.5909 26.311 34.7152 25.5753L34.7202 25.5453C34.7487 25.3736 34.7744 25.2015 34.7945 25.0285L34.7937 25.0284C34.8413 24.6218 34.863 24.2089 34.8633 23.7918L34.8661 23.7918C34.866 23.6648 34.8636 23.5377 34.859 23.4108C34.858 23.3818 34.856 23.3529 34.8549 23.324C34.8488 23.1855 34.8402 23.047 34.8288 22.9088C34.8266 22.882 34.8263 22.8555 34.8239 22.8287C34.8226 22.8144 34.8204 22.8002 34.8191 22.7859C34.8058 22.641 34.7894 22.497 34.7703 22.3536C34.7635 22.3021 34.7555 22.2508 34.748 22.1993C34.732 22.0902 34.7143 21.9817 34.695 21.8735C34.6865 21.8262 34.6789 21.7788 34.6698 21.7317C34.6433 21.593 34.6136 21.4552 34.5816 21.3182C34.5692 21.2646 34.5557 21.2112 34.5425 21.158C34.5324 21.1174 34.5232 21.0764 34.5127 21.0361L34.5104 21.0367C34.4062 20.6364 34.279 20.2423 34.1294 19.8564L34.1298 19.8562C34.1281 19.8519 34.1262 19.8474 34.1243 19.843C34.092 19.7604 34.058 19.6785 34.0237 19.5967C34.0042 19.5503 33.9841 19.504 33.964 19.458C33.8404 19.1743 33.7044 18.8962 33.5565 18.6243C33.5431 18.5997 33.5296 18.5752 33.5159 18.5508C33.3615 18.2719 33.1947 18 33.0159 17.7358C32.9957 17.7057 32.975 17.6759 32.9545 17.6461C32.9002 17.5669 32.8448 17.4885 32.7884 17.4107L32.7865 17.412C32.5419 17.0772 32.2783 16.7566 31.9968 16.4515L31.9985 16.45C31.9615 16.4099 31.9233 16.371 31.8856 16.3315C31.8495 16.2934 31.8137 16.2549 31.777 16.2175C31.6738 16.1122 31.5685 16.009 31.4612 15.9078C31.4322 15.8805 31.403 15.854 31.3737 15.827C31.2728 15.7338 31.1702 15.6425 31.0658 15.5531C31.0523 15.5415 31.0396 15.5293 31.026 15.5176C31.023 15.5152 31.0199 15.5132 31.017 15.5108C30.6497 15.2001 30.2624 14.9135 29.8573 14.6529L28.7033 16.4145C29.0471 16.6357 29.375 16.8803 29.6845 17.1465C29.7959 17.2419 29.9049 17.34 30.0115 17.4406C30.0395 17.4671 30.0664 17.4946 30.094 17.5215C30.1943 17.6187 30.2922 17.7183 30.3877 17.8201C30.6329 18.0816 30.8616 18.3552 31.0709 18.6414L31.0707 18.6416C31.1123 18.6986 31.1525 18.7565 31.1928 18.8144C31.2595 18.9101 31.3244 19.0072 31.3873 19.1054C31.3959 19.1189 31.4039 19.1327 31.4125 19.1463C31.492 19.2727 31.5681 19.4011 31.6408 19.5315C31.6615 19.5686 31.6822 19.6057 31.7023 19.6431C31.7367 19.7062 31.7702 19.7698 31.8029 19.8337C31.8321 19.8911 31.8598 19.9492 31.8876 20.0071C31.9545 20.1461 32.0176 20.2869 32.0769 20.4292C32.0989 20.4819 32.1209 20.5347 32.1419 20.588C32.281 20.9424 32.3965 21.3054 32.4877 21.6748C32.4967 21.7115 32.506 21.7482 32.5146 21.7851C32.5411 21.8992 32.5659 22.014 32.588 22.1294C32.5946 22.164 32.6002 22.1986 32.6064 22.2333C32.6227 22.3246 32.6376 22.4158 32.651 22.5076C32.6568 22.5471 32.6628 22.5865 32.6682 22.6261C32.6838 22.7433 32.697 22.8609 32.708 22.9786C32.7109 23.0101 32.713 23.0417 32.7155 23.0732C32.7249 23.1872 32.732 23.3012 32.7369 23.4153C32.7379 23.4367 32.7393 23.4582 32.7401 23.4795C32.7968 25.1145 32.3919 26.6721 31.6359 28.0204C31.6336 28.0245 31.6311 28.0286 31.6288 28.0326C31.4252 28.3941 31.1963 28.7411 30.9437 29.0708C30.939 29.0768 30.9344 29.083 30.9297 29.089C29.8909 30.4377 28.4626 31.4869 26.7953 32.0607C26.6722 32.1028 26.5485 32.1435 26.4232 32.1802L26.4193 32.1813C26.3233 32.2097 26.2258 32.2342 26.1284 32.2594L25.9435 30.1673C25.9227 29.9368 25.7701 29.8808 25.6024 30.0425Z" fill="#20336B"/>
<path d="M26.8063 27.375C26.7337 27.375 26.6621 27.3583 26.5971 27.3261C26.5322 27.294 26.4757 27.2473 26.4321 27.1898L21.6619 20.8915V26.9119C21.6619 27.1676 21.4525 27.375 21.1942 27.375C20.9359 27.375 20.7266 27.1676 20.7266 26.9119V19.5022C20.7266 19.405 20.7574 19.3102 20.8148 19.2314C20.8722 19.1525 20.9532 19.0936 21.0463 19.0628C21.1395 19.0321 21.24 19.0311 21.3337 19.0601C21.4274 19.0891 21.5095 19.1465 21.5684 19.2243L26.3385 25.5226V19.5022C26.3385 19.2464 26.548 19.0391 26.8062 19.0391C27.0645 19.0391 27.2739 19.2464 27.2739 19.5022V26.9119C27.2739 26.9727 27.2618 27.0329 27.2383 27.0891C27.2148 27.1453 27.1804 27.1964 27.137 27.2394C27.0935 27.2824 27.042 27.3165 26.9853 27.3398C26.9285 27.3631 26.8677 27.375 26.8063 27.375Z" fill="#4ABCEB"/>
<path d="M27.9727 22.7465H20.0224C19.7641 22.7465 19.5547 22.5392 19.5547 22.2834C19.5547 22.0276 19.7641 21.8203 20.0224 21.8203H27.9727C28.2309 21.8203 28.4403 22.0276 28.4403 22.2834C28.4403 22.5392 28.2309 22.7465 27.9727 22.7465ZM27.9727 24.599H20.0224C19.7641 24.599 19.5547 24.3916 19.5547 24.1358C19.5547 23.8801 19.7641 23.6727 20.0224 23.6727H27.9727C28.2309 23.6727 28.4403 23.8801 28.4403 24.1358C28.4403 24.3916 28.2309 24.599 27.9727 24.599Z" fill="#4ABCEB"/>
</svg>
