<svg width="48" height="48" viewBox="0 0 48 48" fill="none" xmlns="http://www.w3.org/2000/svg">
<g clip-path="url(#clip0_2284_122)">
<path d="M24 47.5C36.9787 47.5 47.5 36.9787 47.5 24C47.5 11.0213 36.9787 0.5 24 0.5C11.0213 0.5 0.5 11.0213 0.5 24C0.5 36.9787 11.0213 47.5 24 47.5Z" stroke="#20336B"/>
<path d="M31.7047 22.8769L35.1409 24.3087" stroke="#00BAF2" stroke-linecap="round"/>
<path d="M33.1365 14.8591L30.8457 17.7226" stroke="#00BAF2" stroke-linecap="round"/>
<path d="M31.9911 20.0134L36 19.1543" stroke="#00BAF2" stroke-linecap="round"/>
<path d="M14.2124 27.4184C12.3937 26.4343 11.2277 24.234 13.0908 22.149C13.1442 22.0893 13.2424 22.1157 13.2592 22.1941L14.3518 27.3116C14.3692 27.393 14.2856 27.458 14.2124 27.4184Z" fill="#20336B" stroke="#20336B" stroke-width="0.5"/>
<path d="M20.4395 28.3476L16.9362 29.4255C16.8743 29.4446 16.8469 29.5173 16.8802 29.573C17.9653 31.386 18.5947 32.3775 19.6399 33.4337C19.6635 33.4575 19.6982 33.4679 19.7311 33.4612C21.2597 33.152 22.0851 32.9194 23.2597 32.3906C23.3259 32.3608 23.3389 32.2726 23.2843 32.2248L21.1319 30.3415C21.1174 30.3288 21.1069 30.3122 21.1016 30.2937L20.565 28.4157C20.5496 28.3618 20.493 28.3311 20.4395 28.3476Z" fill="#20336B" stroke="#20336B" stroke-width="0.5"/>
<path d="M20.6171 19.9832C23.0593 19.0517 24.7408 17.2285 26.9888 14.1825C27.0403 14.1127 27.1509 14.1361 27.1682 14.2211L29.9432 27.8187C29.9603 27.9024 29.8702 27.9669 29.7955 27.9258C26.6232 26.1798 25.0292 25.5652 21.7701 25.7357C21.7204 25.7383 21.6751 25.7042 21.6654 25.6553L20.5537 20.0971C20.5441 20.0489 20.5712 20.0008 20.6171 19.9832Z" stroke="#20336B" stroke-width="1.5"/>
<path d="M18.1561 20.0273L14.631 20.5696C14.5732 20.5785 14.5353 20.6349 14.5489 20.6918L16.2186 27.6485C16.2314 27.7019 16.2848 27.735 16.3383 27.7226L19.8651 26.9087C19.9196 26.8962 19.9531 26.8413 19.9396 26.7871L18.2683 20.1018C18.2558 20.0517 18.2071 20.0194 18.1561 20.0273Z" fill="#20336B" stroke="#20336B" stroke-width="0.5"/>
<path d="M29.5349 23.9352C31.1178 22.707 31.3361 18.9772 28.4147 18.3249C28.3457 18.3095 28.2835 18.3704 28.2974 18.4396L29.3846 23.8759C29.3986 23.9457 29.4786 23.9788 29.5349 23.9352Z" fill="#20336B" stroke="#20336B" stroke-width="0.5"/>
</g>
<defs>
<clipPath id="clip0_2284_122">
<rect width="48" height="48" fill="white"/>
</clipPath>
</defs>
</svg>
