<svg width="48" height="48" viewBox="0 0 48 48" fill="none" xmlns="http://www.w3.org/2000/svg">
<g clip-path="url(#clip0_2284_134)">
<path d="M24 47.5C36.9787 47.5 47.5 36.9787 47.5 24C47.5 11.0213 36.9787 0.5 24 0.5C11.0213 0.5 0.5 11.0213 0.5 24C0.5 36.9787 11.0213 47.5 24 47.5Z" stroke="#20336B"/>
<path fill-rule="evenodd" clip-rule="evenodd" d="M15.3019 35.7398C15.0365 35.6602 14.7646 35.6005 14.5125 35.4877C13.5374 35.0432 12.9934 34.3069 13.0001 33.2058C13.0001 27.2091 13.0001 21.2124 13.0001 15.2158C13.0001 13.7166 14.1676 12.5292 15.6667 12.5027C16.4561 12.4894 17.2521 12.5027 18.0813 12.5027C18.0813 12.1976 18.0813 11.9057 18.0813 11.6138C18.0813 11.1229 18.2538 10.9306 18.7513 10.9173C19.3085 10.904 19.8657 10.9107 20.4229 10.9107C20.5556 10.9107 20.6352 10.8841 20.7015 10.7448C21.2521 9.58396 22.1742 8.98695 23.4544 9.00022C24.728 9.01348 25.6966 9.53753 26.2405 10.7448C26.2736 10.8244 26.3997 10.8974 26.486 10.904C27.0099 10.9173 27.5273 10.9107 28.0514 10.9107C28.1974 10.9107 28.3499 10.9173 28.4892 10.9571C28.7877 11.0367 28.9072 11.1959 28.9072 11.501C28.9138 11.8194 28.9072 12.1445 28.9072 12.4894C29.2123 12.4894 29.4975 12.4828 29.7828 12.4894C30.4329 12.5027 31.0896 12.4629 31.7397 12.5425C33.0133 12.7017 33.995 13.8427 33.995 15.1229C34.0017 21.1793 34.0017 27.2356 33.995 33.292C33.995 34.4662 33.1194 35.4346 31.8922 35.6668C31.8259 35.6801 31.7595 35.6999 31.6932 35.7199C26.2405 35.7398 20.7745 35.7398 15.3019 35.7398ZM18.0879 13.8028C18.0282 13.7829 18.0083 13.7763 17.9951 13.7763C17.2787 13.7763 16.5689 13.7697 15.8525 13.7697C14.8442 13.7697 14.2671 14.3468 14.2671 15.3551C14.2671 21.2655 14.2671 27.1759 14.2671 33.0798C14.2671 33.146 14.2671 33.219 14.2671 33.2854C14.2803 33.6701 14.4462 33.9686 14.7646 34.1809C15.0697 34.3866 15.4146 34.4528 15.7795 34.4528C20.9204 34.4528 26.068 34.4528 31.2089 34.4528C31.3549 34.4528 31.5074 34.4396 31.6534 34.4196C32.3499 34.3003 32.7413 33.8426 32.7413 33.1394C32.7413 27.1892 32.7413 21.2324 32.7413 15.2821C32.7413 14.3733 32.151 13.7763 31.2488 13.763C30.7181 13.7564 30.1874 13.763 29.6567 13.763C29.4246 13.763 29.1924 13.763 28.9734 13.763C28.9469 13.8028 28.9337 13.8227 28.9337 13.836C28.927 14.2738 28.927 14.705 28.927 15.1428C28.927 15.7398 28.6816 15.9919 28.0913 15.9919C25.0265 15.9919 21.9619 15.9919 18.9039 15.9919C18.34 15.9919 18.0946 15.7464 18.0946 15.1826C18.0879 14.7249 18.0879 14.2672 18.0879 13.8028ZM27.6269 12.1777C27.0829 12.1777 26.5655 12.1777 26.0415 12.1777C25.5042 12.1777 25.3118 12.0317 25.1658 11.5143C24.9337 10.6785 24.1642 10.1213 23.335 10.1876C22.5788 10.2407 21.9486 10.7913 21.7297 11.5806C21.6103 12.0185 21.3914 12.1777 20.9403 12.1843C20.7745 12.1843 20.6086 12.1843 20.4428 12.1843C20.0912 12.1843 19.733 12.1843 19.3881 12.1843C19.3881 13.0533 19.3881 13.8825 19.3881 14.7183C22.1476 14.7183 24.8806 14.7183 27.6269 14.7183C27.6269 13.8692 27.6269 13.04 27.6269 12.1777Z" fill="#20336B"/>
<path d="M26.5258 19.501C27.7198 19.501 28.9072 19.501 30.1012 19.501C30.4661 19.501 30.7182 19.6735 30.8043 19.9654C30.9039 20.3169 30.6783 20.6885 30.3135 20.7547C30.2008 20.7747 30.088 20.7747 29.9752 20.7747C27.68 20.7747 25.3848 20.7747 23.0897 20.7747C22.9967 20.7747 22.8973 20.7747 22.8044 20.7614C22.4595 20.715 22.2339 20.4629 22.2405 20.1246C22.2472 19.793 22.4793 19.5275 22.8243 19.501C23.0498 19.4811 23.2754 19.4944 23.5009 19.4944C24.5092 19.501 25.5175 19.501 26.5258 19.501Z" fill="#20336B"/>
<path d="M26.5522 29.6834C27.7064 29.6834 28.8673 29.6834 30.0215 29.6834C30.1476 29.6834 30.2869 29.69 30.4062 29.7298C30.6716 29.816 30.8374 30.0681 30.8242 30.3534C30.8109 30.632 30.6251 30.8708 30.3465 30.9305C30.2404 30.957 30.121 30.9637 30.0083 30.9637C27.6932 30.9637 25.3847 30.9637 23.0697 30.9637C22.9635 30.9637 22.8573 30.957 22.7578 30.9438C22.4527 30.8907 22.2471 30.6453 22.2404 30.3468C22.2338 30.0416 22.4129 29.7895 22.7181 29.7166C22.8242 29.69 22.9436 29.69 23.0563 29.69C24.2173 29.6834 25.3847 29.6834 26.5522 29.6834Z" fill="#20336B"/>
<path d="M26.539 24.5955C27.733 24.5955 28.9205 24.5955 30.1145 24.5955C30.5058 24.5955 30.7646 24.7945 30.8176 25.1196C30.8774 25.4977 30.612 25.8294 30.2273 25.8626C30.088 25.8758 29.9487 25.8691 29.8094 25.8691C27.534 25.8691 25.2521 25.8691 22.9769 25.8691C22.5324 25.8691 22.2604 25.637 22.2405 25.2656C22.2273 24.8741 22.486 24.6088 22.9105 24.6022C23.7596 24.5955 24.6154 24.6022 25.4644 24.6022C25.8226 24.5955 26.1808 24.5955 26.539 24.5955Z" fill="#20336B"/>
<path d="M18.1476 25.1129C18.7778 24.5093 19.408 23.899 20.0514 23.302C20.1708 23.1959 20.3168 23.0963 20.4627 23.0499C20.7413 22.9703 21.0266 23.1229 21.1659 23.375C21.3052 23.6337 21.272 23.899 21.0266 24.1312C20.3101 24.8144 19.5937 25.4977 18.8707 26.1809C18.7579 26.2871 18.6451 26.3998 18.5257 26.4993C18.2538 26.7249 17.9287 26.7182 17.6766 26.4728C17.2322 26.035 16.7944 25.5839 16.3632 25.1262C16.1045 24.8543 16.1178 24.443 16.3632 24.2108C16.6153 23.9653 16.9868 23.9853 17.272 24.2638C17.4179 24.4031 17.5506 24.5558 17.6899 24.6951C17.8425 24.8343 17.9884 24.9604 18.1476 25.1129Z" fill="#00BAF2"/>
<path d="M18.1476 20.0184C18.7977 19.4015 19.4477 18.778 20.0978 18.1677C20.3632 17.9156 20.6351 17.8692 20.9005 18.0217C21.2852 18.234 21.3781 18.705 21.0597 19.0101C20.2239 19.8195 19.3748 20.6221 18.5257 21.4114C18.267 21.6502 17.9353 21.6304 17.6832 21.3783C17.2521 20.9471 16.8275 20.5159 16.4096 20.0715C16.1244 19.773 16.1244 19.3683 16.3831 19.1162C16.6352 18.8774 17.0265 18.9106 17.3118 19.2025C17.5771 19.4678 17.8358 19.7332 18.0945 20.0052C18.1012 20.0052 18.1144 20.0052 18.1476 20.0184Z" fill="#00BAF2"/>
<path d="M18.1675 30.1876C18.7977 29.5906 19.4478 28.9604 20.1045 28.3435C20.3831 28.0781 20.7015 28.0516 20.9735 28.2639C21.2919 28.5094 21.345 28.914 21.0597 29.1926C20.2239 30.0019 19.3748 30.8045 18.5258 31.5938C18.2604 31.8459 17.9287 31.8194 17.6634 31.5541C17.2389 31.1295 16.821 30.705 16.403 30.2672C16.1178 29.9687 16.1112 29.564 16.3632 29.3119C16.6153 29.0665 17.0067 29.1064 17.3118 29.3982C17.5904 29.6569 17.869 29.909 18.1675 30.1876Z" fill="#00BAF2"/>
</g>
<defs>
<clipPath id="clip0_2284_134">
<rect width="48" height="48" fill="white"/>
</clipPath>
</defs>
</svg>
