<svg width="49" height="48" viewBox="0 0 49 48" fill="none" xmlns="http://www.w3.org/2000/svg">
<circle cx="24.5" cy="24" r="24" fill="white"/>
<path d="M16.6838 31.3391C16.1812 31.4738 15.2641 31.1954 15.1294 30.6928L12.2438 19.9236C12.1091 19.421 12.4073 18.9045 12.9099 18.7699L29.1868 14.4085C29.6894 14.2738 30.2059 14.572 30.3406 15.0746L32.2964 19.9236" stroke="#20336B" stroke-linecap="round" stroke-linejoin="round"/>
<path d="M13.5625 21.1914L29.9557 16.5076" stroke="white" stroke-linecap="round" stroke-linejoin="round"/>
<path d="M14.3438 23.5332L30.737 18.8494" stroke="white" stroke-linecap="round" stroke-linejoin="round"/>
<path d="M30.3995 23.8675L28.0391 24.5" stroke="white" stroke-linecap="round" stroke-linejoin="round"/>
<path d="M26.9932 24.7816L24.6328 25.4141" stroke="white" stroke-linecap="round" stroke-linejoin="round"/>
<path d="M23.5714 25.6956L21.2109 26.3281" stroke="white" stroke-linecap="round" stroke-linejoin="round"/>
<path d="M35.0587 20.2676C35.579 20.2676 36.0007 20.6893 36.0007 21.2096V32.3587C36.0007 32.879 35.579 33.3007 35.0587 33.3007H18.2077C17.6873 33.3007 17.2656 32.879 17.2656 32.3587V21.2096C17.2656 20.6893 17.6873 20.2676 18.2077 20.2676H35.0587Z" stroke="#20336B" stroke-linecap="round" stroke-linejoin="round"/>
<path d="M17.2656 22.6426H36.0007" stroke="#20336B" stroke-linecap="round" stroke-linejoin="round"/>
<path d="M17.2656 25.125H36.0007" stroke="#20336B" stroke-linecap="round" stroke-linejoin="round"/>
<path d="M33.7796 29.7168H31.3359" stroke="#00BAF2" stroke-linecap="round" stroke-linejoin="round"/>
<path d="M30.2484 29.7168H27.8047" stroke="#00BAF2" stroke-linecap="round" stroke-linejoin="round"/>
<path d="M26.7171 29.7168H24.2734" stroke="#00BAF2" stroke-linecap="round" stroke-linejoin="round"/>
<circle cx="19.8638" cy="29.5376" r="0.974745" stroke="#20336B" stroke-width="0.7"/>
<circle cx="21.1841" cy="29.5376" r="0.974745" stroke="#20336B" stroke-width="0.7"/>
</svg>
