<svg width="48" height="48" viewBox="0 0 48 48" fill="none" xmlns="http://www.w3.org/2000/svg">
<g clip-path="url(#clip0_2369_1753)">
<path d="M24 47.5C36.9787 47.5 47.5 36.9787 47.5 24C47.5 11.0213 36.9787 0.5 24 0.5C11.0213 0.5 0.5 11.0213 0.5 24C0.5 36.9787 11.0213 47.5 24 47.5Z" stroke="#101010"/>
<path d="M32.1971 20.5109H16.1533C15.601 20.5109 15.1533 20.9586 15.1533 21.5109V30.5474C15.1533 31.0997 15.601 31.5474 16.1533 31.5474H32.1971C32.7494 31.5474 33.1971 31.0997 33.1971 30.5474V21.5109C33.1971 20.9586 32.7494 20.5109 32.1971 20.5109Z" stroke="#FFC000" stroke-linecap="square"/>
<path d="M26.5401 18.4088C25.2536 15.3533 24.185 14.3741 16.9072 10.973C15.5907 10.3577 13.8837 10.3018 12.9752 11.436C12.119 12.5049 12.3899 14.0282 13.2493 15.0946C13.8493 15.8392 14.596 16.6218 15.3285 17.0073C17.4696 18.1342 19.2483 19.7686 20.2448 20.7912C20.8371 21.399 21.7922 22.4387 22.2753 21.7409C22.4696 21.4602 22.4314 20.9623 22.1606 20.5109C21.8053 19.9189 20.5697 18.2863 19.8061 17.2904C19.5529 16.9602 19.7902 16.4852 20.2032 16.5352C21.5549 16.6985 22.186 17.2523 23.0365 18.4088H26.5401Z" fill="black" stroke="white" stroke-linecap="square"/>
<path d="M21.4599 33.353C22.7464 36.4085 23.815 37.3876 31.0928 40.7888C32.4093 41.404 34.1163 41.46 35.0248 40.3258C35.881 39.2569 35.6101 37.7336 34.7507 36.6672C34.1507 35.9226 33.404 35.14 32.6715 34.7545C30.5304 33.6276 28.7517 31.9932 27.7552 30.9706C27.1629 30.3628 26.2078 29.3231 25.7247 30.0209C25.5304 30.3016 25.5686 30.7995 25.8394 31.2508C26.1947 31.8429 27.4303 33.4755 28.1939 34.4714C28.4471 34.8016 28.2098 35.2765 27.7968 35.2266C26.4451 35.0632 25.814 34.5095 24.9635 33.353H21.4599Z" fill="black" stroke="white" stroke-linecap="square"/>
<path d="M15.6788 23.6642H32.4964" stroke="#FFC000" stroke-linecap="square"/>
<path d="M17.4307 27.6934H23.0365" stroke="black" stroke-width="3.5" stroke-linecap="square"/>
<rect x="26.365" y="25.9416" width="4.90511" height="3.15328" rx="1" fill="black"/>
</g>
<defs>
<clipPath id="clip0_2369_1753">
<rect width="48" height="48" fill="white"/>
</clipPath>
</defs>
</svg>
