<svg width="28" height="29" viewBox="0 0 28 29" fill="none" xmlns="http://www.w3.org/2000/svg">
<path fill-rule="evenodd" clip-rule="evenodd" d="M8.33594 28.3339C9.8026 28.3339 11.0026 27.1339 11.0026 25.6672C11.0026 24.2005 9.8026 23.0005 8.33594 23.0005C6.86927 23.0005 5.66927 24.2005 5.66927 25.6672C5.66927 27.1339 6.86927 28.3339 8.33594 28.3339ZM19.0026 25.6672C19.0026 24.2005 20.2026 23.0005 21.6693 23.0005C23.1359 23.0005 24.3359 24.2005 24.3359 25.6672C24.3359 27.1339 23.1359 28.3339 21.6693 28.3339C20.2026 28.3339 19.0026 27.1339 19.0026 25.6672ZM8.6026 18.6005V18.7339C8.6026 18.8672 8.73594 19.0005 8.86927 19.0005H24.3359V21.6672H8.33594C6.86927 21.6672 5.66927 20.4672 5.66927 19.0005C5.66927 18.4672 5.8026 18.0672 5.93594 17.6672L7.8026 14.4672L3.0026 4.33385H0.335938V1.66719H4.73594L10.3359 13.6672H19.6693L24.8693 4.33385L27.1359 5.66719L21.9359 15.0005C21.5359 15.8005 20.6026 16.3339 19.6693 16.3339H9.8026L8.6026 18.6005Z" fill="#20336B"/>
<path d="M23.0026 2.73385L21.1359 0.867188L14.7359 7.26719L11.2693 3.80052L9.40261 5.66719L14.7359 11.0005L23.0026 2.73385Z" fill="#4ABCEB"/>
</svg>
