<svg width="28" height="29" viewBox="0 0 28 29" fill="none" xmlns="http://www.w3.org/2000/svg">
<path d="M13.6693 11.0007H16.3359V7.00065H20.3359V4.33398H16.3359V0.333984H13.6693V4.33398H9.66927V7.00065H13.6693V11.0007Z" fill="#4ABCEB"/>
<path d="M8.5626 18.6673L8.6026 18.5073L9.8026 16.334H19.7359C20.7359 16.334 21.6159 15.7873 22.0693 14.9607L27.2159 5.61398L24.8959 4.33398H24.8826L23.4159 7.00065L19.7359 13.6673H10.3759L10.2026 13.3073L7.21594 7.00065L5.94927 4.33398L4.69594 1.66732H0.335938V4.33398H3.0026L7.8026 14.454L6.0026 17.7207C5.78927 18.094 5.66927 18.534 5.66927 19.0007C5.66927 20.4673 6.86927 21.6673 8.33594 21.6673H24.3359V19.0007H8.89594C8.7226 19.0007 8.5626 18.854 8.5626 18.6673Z" fill="#20336B"/>
<path fill-rule="evenodd" clip-rule="evenodd" d="M5.6826 25.6673C5.6826 24.2007 6.86927 23.0007 8.33594 23.0007C9.8026 23.0007 11.0026 24.2007 11.0026 25.6673C11.0026 27.134 9.8026 28.334 8.33594 28.334C6.86927 28.334 5.6826 27.134 5.6826 25.6673Z" fill="#20336B"/>
<path d="M21.6693 23.0007C20.2026 23.0007 19.0159 24.2007 19.0159 25.6673C19.0159 27.134 20.2026 28.334 21.6693 28.334C23.1359 28.334 24.3359 27.134 24.3359 25.6673C24.3359 24.2007 23.1359 23.0007 21.6693 23.0007Z" fill="#20336B"/>
</svg>
