<svg width="36" height="36" viewBox="0 0 36 36" fill="none" xmlns="http://www.w3.org/2000/svg">
<path d="M31.5001 20.252V33.7519H4.5V20.252H0V22.5018H2.24999V36.0019H33.75V22.5018H36V20.252H31.5001Z" fill="#C8D0DB"/>
<path d="M15.024 22.0991C15.63 22.2661 16.2489 22.3818 16.8743 22.4454V27.6619L14.8571 25.6448L13.2664 27.2355L17.9992 31.9684L22.7321 27.2355L21.1414 25.6448L19.1242 27.6619V22.4454C25.3107 21.8189 29.8181 16.296 29.1919 10.1095C29.1584 9.77908 29.1104 9.45036 29.0479 9.12417L26.8384 9.5483C27.7722 14.4241 24.5767 19.1337 19.701 20.0674C14.8253 21.0012 10.1157 17.8057 9.18184 12.93C8.24803 8.0543 11.4436 3.3447 16.3193 2.41089C17.6733 2.15157 19.0687 2.20712 20.3978 2.57331L20.9974 0.406553C15.0071 -1.24298 8.81389 2.27588 7.16437 8.26615C5.51483 14.2564 9.0337 20.4496 15.024 22.0991Z" fill="#C8D0DB"/>
<path d="M25.3662 2.75119C24.7367 2.20437 24.0481 1.72969 23.313 1.33594L22.25 3.31706C22.8375 3.63305 23.3883 4.01302 23.8924 4.44994L25.3662 2.75119Z" fill="#C8D0DB"/>
<path d="M26.249 7.64399L28.3101 6.744C27.9748 5.98004 27.5561 5.25569 27.0613 4.58398L25.25 5.91824C25.6462 6.45459 25.9812 7.0334 26.249 7.64399Z" fill="#C8D0DB"/>
<path d="M11.25 29.2539H8.99999V27.0039H6.75V31.5038H11.25V29.2539Z" fill="#C8D0DB"/>
<path d="M24.75 29.2539V31.5038H29.2501V27.0039H27V29.2539H24.75Z" fill="#C8D0DB"/>
<path d="M13.3281 10.5723H22.8922" stroke="#C8D0DB" stroke-linecap="square"/>
<path d="M13.3281 12.4863H22.8922" stroke="#C8D0DB" stroke-linecap="square"/>
<path d="M20.9857 15.3544H20.0293L16.2037 7.70312H15.1875V15.3544" stroke="#C8D0DB" stroke-linecap="square"/>
<path d="M21.0469 15.3544V7.70312" stroke="#C8D0DB" stroke-linecap="square"/>
</svg>
