<svg width="36" height="36" viewBox="0 0 36 36" fill="none" xmlns="http://www.w3.org/2000/svg">
<path d="M1.28125 33.7475L2.24776 30.957L2.94391 29.6277C2.99731 29.5259 3.14731 29.457 3.31633 29.457H17.6792C17.8482 29.457 19.4978 29.4627 19.4978 29.4627" stroke="#C8D0DB" stroke-linecap="round" stroke-linejoin="round"/>
<path fill-rule="evenodd" clip-rule="evenodd" d="M5.25 13.625H14.25V29.465H5.25V13.625Z" stroke="#C8D0DB" stroke-linecap="round" stroke-linejoin="round"/>
<path d="M23.25 33.7812H0.75" stroke="#C8D0DB" stroke-linecap="round" stroke-linejoin="round"/>
<path d="M9.75781 13.625V29.465" stroke="#C8D0DB" stroke-linecap="round" stroke-linejoin="round"/>
<path d="M14.2578 13.625V29.465" stroke="#C8D0DB" stroke-linecap="round" stroke-linejoin="round"/>
<path d="M21.7578 13.625V21.125" stroke="#C8D0DB" stroke-linecap="round" stroke-linejoin="round"/>
<path d="M26.2578 13.625V18.7497" stroke="#C8D0DB" stroke-linecap="round" stroke-linejoin="round"/>
<path d="M30 14.5586V19.8085" stroke="#C8D0DB" stroke-linecap="round" stroke-linejoin="round"/>
<path fill-rule="evenodd" clip-rule="evenodd" d="M33.559 9.86353C33.6719 9.53812 33.53 9.18142 33.22 9.01105L18.376 0.862087C18.1439 0.733471 17.858 0.733471 17.626 0.862087L2.77598 9.00529C2.4659 9.17566 2.32405 9.53236 2.43698 9.85777L3.58298 13.1309C3.68495 13.4248 3.9713 13.6231 4.29398 13.6234H31.714C32.0366 13.6231 32.323 13.4248 32.425 13.1309L33.559 9.86353Z" stroke="#C8D0DB" stroke-linecap="round" stroke-linejoin="round"/>
<path d="M33.4987 9.30469H2.49219" stroke="#C8D0DB" stroke-linecap="round" stroke-linejoin="round"/>
<path fill-rule="evenodd" clip-rule="evenodd" d="M28.4452 26.7343L28.4803 26.7694C28.7879 27.0769 29.2867 27.0769 29.5943 26.7694L31.1557 25.2071C31.6147 24.7448 31.6147 23.9989 31.1557 23.5367L30.4632 22.8447C30.0012 22.3851 29.2545 22.3851 28.7925 22.8447L27.2307 24.4056C26.9231 24.7131 26.9231 25.2117 27.2307 25.5192L27.2658 25.5543L28.4452 26.7343Z" stroke="#C8D0DB" stroke-linecap="round" stroke-linejoin="round"/>
<path fill-rule="evenodd" clip-rule="evenodd" d="M25.5553 27.2657L25.5202 27.2306C25.2126 26.9231 24.7139 26.9231 24.4062 27.2306L22.8445 28.7928C22.3852 29.2549 22.3852 30.001 22.8445 30.4631L23.5367 31.155C23.9986 31.615 24.7457 31.615 25.2076 31.155L26.769 29.5943C26.9169 29.4467 27 29.2464 27 29.0375C27 28.8286 26.9169 28.6283 26.769 28.4807L26.7339 28.4456L25.5553 27.2657Z" stroke="#C8D0DB" stroke-linecap="round" stroke-linejoin="round"/>
<path d="M25.5 28.5L28.5 25.5" stroke="#C8D0DB" stroke-linecap="round" stroke-linejoin="round"/>
<path fill-rule="evenodd" clip-rule="evenodd" d="M19.5 27C19.5 22.8579 22.8579 19.5 27 19.5C31.1421 19.5 34.5 22.8579 34.5 27C34.5 31.1421 31.1421 34.5 27 34.5C22.8579 34.5 19.5 31.1421 19.5 27Z" stroke="#C8D0DB" stroke-linecap="round" stroke-linejoin="round"/>
</svg>
