<svg width="23" height="16" viewBox="0 0 23 16" fill="none" xmlns="http://www.w3.org/2000/svg">
<path d="M18.8231 2.53516H6.88215C5.30265 2.53516 4.03906 3.74821 4.03906 5.26452V5.50713C4.03906 6.96279 5.30265 8.17585 6.81897 8.17585H15.9169C17.4964 8.17585 18.7599 9.38889 18.7599 10.9052V11.2084C18.7599 12.7248 17.4964 13.9378 15.9169 13.9378H4.03906" stroke="#2C007D" stroke-width="1.5"/>
<path fill-rule="evenodd" clip-rule="evenodd" d="M2.08493 11.875C0.947696 11.875 0 12.7848 0 13.8765C0 14.9683 0.947696 15.8781 2.08493 15.8781C2.52719 15.8781 2.90627 15.7568 3.22217 15.5141C3.41171 15.3928 3.60124 15.2109 3.79078 14.9683C4.0435 14.665 4.16986 14.2404 4.16986 13.8765C4.16986 12.7848 3.22217 11.875 2.08493 11.875ZM2.08492 15.5141C1.13722 15.5141 0.37907 14.7863 0.37907 13.8765C0.37907 12.9668 1.13722 12.2389 2.08492 12.2389C3.03261 12.2389 3.79077 12.9668 3.79077 13.8765C3.7276 14.7863 3.03261 15.5141 2.08492 15.5141Z" fill="#FF5900"/>
<path fill-rule="evenodd" clip-rule="evenodd" d="M20.9131 0.533203C19.7758 0.533203 18.8281 1.44299 18.8281 2.53474C18.8281 3.62648 19.7758 4.53627 20.9131 4.53627C21.3553 4.53627 21.7344 4.41497 22.0503 4.17236C22.2398 4.05106 22.4294 3.8691 22.6189 3.62648C22.8716 3.32322 22.998 2.89865 22.998 2.53474C22.998 1.44299 22.0503 0.533203 20.9131 0.533203ZM20.913 4.1117C19.9654 4.1117 19.2073 3.38386 19.2073 2.47408C19.2073 1.56429 19.9654 0.836456 20.913 0.836456C21.8607 0.836456 22.6189 1.56429 22.6189 2.47408C22.6189 3.38386 21.7975 4.1117 20.913 4.1117Z" fill="#FF5900"/>
</svg>
