<svg width="24" height="25" viewBox="0 0 24 25" fill="none" xmlns="http://www.w3.org/2000/svg">
<mask id="mask0_1115_5598" style="mask-type:luminance" maskUnits="userSpaceOnUse" x="0" y="0" width="24" height="25">
<path d="M0 0.205078H24V24.2051H0V0.205078Z" fill="white"/>
</mask>
<g mask="url(#mask0_1115_5598)">
<path fill-rule="evenodd" clip-rule="evenodd" d="M16.3552 9.93698C16.3552 9.98142 16.3996 10.0259 16.4441 10.0703L16.8886 9.62587H16.8441V9.53699C16.7107 8.91475 16.4885 8.33697 16.2663 7.80365L16.1774 7.75921L17.2885 6.64809C17.4663 6.47031 17.5552 6.20365 17.5552 5.93699C17.5552 5.67031 17.4663 5.40365 17.2441 5.22587L16.1774 4.15921C15.7775 3.7592 15.1107 3.7592 14.7108 4.15921L13.6441 5.22587L13.5552 5.18142C13.0218 4.91476 12.4441 4.73697 11.8219 4.60364H11.733V3.09253C11.733 2.51476 11.2885 2.07031 10.7108 2.07031H9.9552C9.37743 2.07031 8.93298 2.51476 8.93298 3.09253V4.5592H8.84409C8.22187 4.69253 7.64409 4.91476 7.11076 5.13698L7.02187 5.18142L5.9552 4.11476C5.55521 3.71476 4.88854 3.71476 4.53298 4.11476L3.46631 5.18142C3.06632 5.58143 3.06632 6.24809 3.46631 6.60365L4.53298 7.67031L4.48854 7.75921C4.22188 8.29254 4.04409 8.87032 3.91076 9.49254V9.58143H2.4441C1.86632 9.58143 1.42188 10.0259 1.42188 10.6036V11.3592C1.42188 11.937 1.86632 12.3814 2.4441 12.3814H3.95521V12.4703C4.08854 13.0481 4.26632 13.5815 4.53298 14.2036L4.57743 14.2925L3.46631 15.4036C3.28854 15.5814 3.19965 15.8481 3.19965 16.1148C3.19965 16.3814 3.28854 16.6481 3.51076 16.8258L4.57743 17.8925C4.97743 18.2926 5.6441 18.2926 5.99966 17.8925L7.06631 16.8258L7.15521 16.8703C7.73299 17.137 8.31077 17.3148 8.88854 17.4481L8.97743 17.4925L9.42187 17.0481C9.37743 17.0037 9.33298 17.0037 9.28854 17.0037C8.53299 16.8258 7.82188 16.6036 7.15521 16.2481C7.02187 16.2037 6.93298 16.2037 6.8441 16.2925L5.6441 17.537C5.46632 17.7147 5.15521 17.7147 4.93299 17.537L3.86632 16.4703C3.68854 16.2481 3.68854 15.9815 3.86632 15.7593L5.06632 14.5591C5.15521 14.4703 5.15521 14.3814 5.11076 14.2481C4.75521 13.5815 4.53298 12.8703 4.35521 12.1148C4.31077 11.9814 4.22188 11.8925 4.08854 11.8925H2.4441C2.17743 11.8925 1.95521 11.6703 1.95521 11.4037V10.6481C1.95521 10.3814 2.17743 10.1592 2.4441 10.1592H4.13299C4.26632 10.1592 4.35521 10.0703 4.39965 9.93698C4.57743 9.18143 4.79966 8.47032 5.15521 7.80365C5.19965 7.71475 5.19965 7.58142 5.11076 7.49253L3.91076 6.29253C3.73299 6.11476 3.73299 5.80364 3.91076 5.58143L4.97743 4.51476C5.19965 4.33698 5.51077 4.33698 5.68854 4.51476L6.88854 5.71476C6.97743 5.80364 7.06631 5.80364 7.19966 5.7592C7.91077 5.40364 8.62187 5.18142 9.33298 5.00365C9.46631 4.9592 9.5552 4.87032 9.5552 4.73697V3.09253C9.5552 2.82587 9.77743 2.60365 10.0441 2.60365H10.7997C11.0663 2.60365 11.2885 2.82587 11.2885 3.09253V4.78143C11.2885 4.91476 11.3774 5.00365 11.5108 5.04809C12.2663 5.22587 12.9774 5.44809 13.6441 5.80364C13.733 5.84809 13.8663 5.84809 13.9552 5.7592L15.1107 4.5592C15.2885 4.38143 15.5997 4.38143 15.8219 4.5592L16.8886 5.62587C17.0663 5.84809 17.0663 6.11476 16.8886 6.33698L15.6886 7.53698C15.5997 7.62586 15.5997 7.71476 15.6441 7.84809C15.9552 8.47032 16.2219 9.22587 16.3552 9.93698Z" fill="#FF5900"/>
<path fill-rule="evenodd" clip-rule="evenodd" d="M10.27 7.31445C8.18108 7.31445 6.49219 9.00334 6.49219 11.0922C6.49219 13.1811 8.18108 14.87 10.27 14.87C11.0255 14.87 11.7811 14.6478 12.3588 14.2033C12.7589 13.9367 13.07 13.6256 13.3366 13.2255L13.3811 13.1811C13.781 12.5589 14.0478 11.8478 14.0478 11.0922C14.0478 9.00334 12.3588 7.31445 10.27 7.31445Z" stroke="#2C007D" stroke-width="1.5"/>
<path fill-rule="evenodd" clip-rule="evenodd" d="M9.37344 19.2699L10.6179 20.5143C10.7512 20.6476 10.9734 20.6476 11.1068 20.5143L22.2623 9.35872C22.3956 9.22539 22.3956 9.00317 22.2623 8.86983L21.0179 7.62539C20.8845 7.49206 20.6623 7.49206 20.529 7.62539L9.37344 18.7809C9.2401 18.9142 9.2401 19.1365 9.37344 19.2699Z" fill="white" stroke="#FF5900" stroke-width="1.5"/>
<path fill-rule="evenodd" clip-rule="evenodd" d="M10.0398 21.6705L7.68421 22.2927C7.59533 22.3372 7.50644 22.2483 7.55088 22.1594L8.17311 19.8039C8.21755 19.715 8.30644 19.6705 8.35088 19.7594L10.0842 21.4927C10.1731 21.5816 10.1287 21.6705 10.0398 21.6705Z" fill="#FF5900"/>
</g>
</svg>
