<svg width="18" height="25" viewBox="0 0 18 25" fill="none" xmlns="http://www.w3.org/2000/svg">
<path fill-rule="evenodd" clip-rule="evenodd" d="M6.5347 8.84375C6.99981 8.84375 7.46492 9.0298 7.82539 9.40189L8.46492 10.0647C8.48818 10.0996 8.53468 10.1112 8.5812 10.1112C8.62771 10.1112 8.66259 10.0996 8.69748 10.0647L9.32538 9.40189C10.0463 8.6577 11.1743 8.6577 11.8952 9.40189C12.6161 10.1461 12.6161 11.3554 11.8952 12.0995C10.7905 13.2508 9.68586 14.4019 8.5812 15.553L5.26726 12.0995C4.54633 11.3554 4.54633 10.1461 5.26726 9.40189C5.6161 9.0298 6.08121 8.84375 6.5347 8.84375Z" fill="white" stroke="#332977" stroke-width="1.5"/>
<path fill-rule="evenodd" clip-rule="evenodd" d="M0.662789 14.8212V24.2049H17.1395V19.1002H15.5115V23.0421H2.29069V14.8212H3.08139L1.53488 12.9375L0 14.8212H0.662789Z" fill="#F15B22"/>
<path fill-rule="evenodd" clip-rule="evenodd" d="M16.4767 9.57714V0.205078H0V5.30972H1.6279V1.36787H14.8605V9.57714H14.0697L15.6046 11.4725L17.1395 9.57714H16.4767Z" fill="#F15B22"/>
</svg>
