<svg width="331" height="409" viewBox="0 0 331 409" fill="none" xmlns="http://www.w3.org/2000/svg">
<rect x="0.5" y="0.5" width="330" height="408" rx="7.5" fill="white" stroke="#4D148C"/>
<mask id="mask0_1162_4950" style="mask-type:luminance" maskUnits="userSpaceOnUse" x="24" y="24" width="35" height="36">
<path d="M24 24H58.9714V60H24V24Z" fill="white"/>
</mask>
<g mask="url(#mask0_1162_4950)">
<path fill-rule="evenodd" clip-rule="evenodd" d="M54.2335 55.3599L47.1937 26.56C47.1538 26.44 47.1136 26.2799 47.0337 26.1599C46.9537 26.0399 46.8739 25.9199 46.7536 25.8399C46.6337 25.7199 46.5137 25.6401 46.3535 25.5999C46.2335 25.5198 46.0734 25.4799 45.9534 25.4799L30.4734 24C30.3136 24 30.1534 24 29.9935 24.0399C29.8336 24.0798 29.7134 24.1599 29.6336 24.24C29.5535 24.32 29.4737 24.3998 29.4335 24.5201V24.4802V24.56C30.5535 32.2 34.1936 57.1199 34.2737 57.7199C34.3537 58.2799 34.7536 58.8798 35.5136 58.8798C36.0736 58.8798 46.5135 57.4398 54.1536 56.3597V56.3198C54.2337 56.1998 54.2735 56.0397 54.2735 55.8798C54.2735 55.7199 54.2737 55.5201 54.2335 55.3599ZM46.2736 55.12C46.2337 55.3599 46.1536 55.5999 46.0336 55.8C45.9137 56 45.7535 56.2001 45.5537 56.32C45.3537 56.44 45.1137 56.56 44.8738 56.56C44.6338 56.5999 44.3536 56.56 44.1137 56.4799C43.8737 56.3998 43.6338 56.2799 43.4337 56.12C43.2336 55.9601 43.0336 55.7601 42.9136 55.5201C42.7538 55.2801 42.6737 55 42.6335 54.7202C42.5937 54.4401 42.5937 54.1602 42.6335 53.8801C42.6734 53.6401 42.7535 53.4001 42.9136 53.2C43.0336 53 43.1938 52.8401 43.3936 52.7202C43.5936 52.6002 43.8336 52.5201 44.0735 52.4802C44.3134 52.4403 44.5534 52.4802 44.7934 52.5603C45.0334 52.6404 45.2334 52.7603 45.4334 52.9202C45.6335 53.0801 45.7934 53.2801 45.9535 53.5201C46.0735 53.76 46.1935 54 46.2337 54.2801C46.3134 54.5999 46.3134 54.8799 46.2736 55.12ZM34.9936 51.4799L31.0336 25.52L46.0335 26.7998L51.5536 49.9997L34.9936 51.4799ZM35.5137 59.1999C34.5537 59.1999 34.0338 58.4399 33.9537 57.7599C33.8736 57.1999 30.3937 33.24 29.1936 25.12L28.6735 26.2798C28.6735 26.3197 28.6336 26.3599 28.6336 26.3998C28.6336 26.4397 28.6336 26.4799 28.5938 26.5198V26.6398V26.7597L32.9939 58.6797C33.0337 58.8797 33.074 59.0798 33.1939 59.2397C33.274 59.3995 33.4339 59.5597 33.5539 59.6797C33.7138 59.7997 33.8739 59.8798 34.0338 59.9197C34.2336 60 34.3937 60 34.5935 60L51.6735 57.44H51.7133H51.7533H51.7932H51.8331L53.633 56.8401H53.593C53.6731 56.8401 53.7131 56.8002 53.753 56.76C47.5136 57.64 36.1137 59.1999 35.5137 59.1999ZM53.9479 56.84H53.6047H53.4336H53.9479Z" fill="url(#paint0_linear_1162_4950)"/>
<path d="M58.4573 44.2924V29.0194C58.4573 27.3888 57.135 26.0658 55.5038 26.0664H27.2192C26.8902 26.0664 26.5744 26.1199 26.2764 26.2222C25.1076 26.6138 24.2656 27.7192 24.2656 29.02V44.2931C24.2656 45.9239 25.5888 47.2448 27.2192 47.2448H55.5038C56.8061 47.2448 57.9117 46.4025 58.3015 45.234C58.4039 44.9375 58.4573 44.6198 58.4573 44.2924Z" fill="url(#paint1_linear_1162_4950)" stroke="#2C007D"/>
<path d="M33.1245 36.9535H27.7555C27.4891 36.9535 27.2734 36.7379 27.2734 36.4714V31.7906C27.2734 31.5242 27.4891 31.3086 27.7555 31.3086H33.1245C33.3909 31.3086 33.6066 31.5242 33.6066 31.7906V36.4714C33.6066 36.7379 33.3909 36.9535 33.1245 36.9535Z" fill="#2C007D"/>
<path d="M30.1035 42.0818H27.7501C27.5042 42.0818 27.3047 41.7704 27.3047 41.3866C27.3047 41.0027 27.5042 40.6914 27.7501 40.6914H30.1035C30.3495 40.6914 30.5489 41.0027 30.5489 41.3866C30.5486 41.7704 30.3495 42.0818 30.1035 42.0818Z" fill="white"/>
<path d="M34.2676 42.0818H31.9142C31.6683 42.0818 31.4688 41.7704 31.4688 41.3866C31.4688 41.0027 31.6683 40.6914 31.9142 40.6914H34.2676C34.5135 40.6914 34.713 41.0027 34.713 41.3866C34.713 41.7704 34.5135 42.0818 34.2676 42.0818Z" fill="white"/>
<path d="M38.9081 42.0818H36.5548C36.3088 42.0818 36.1094 41.7704 36.1094 41.3866C36.1094 41.0027 36.3088 40.6914 36.5548 40.6914H38.9081C39.1542 40.6914 39.3536 41.0027 39.3536 41.3866C39.3536 41.7704 39.1542 42.0818 38.9081 42.0818Z" fill="white"/>
<path d="M43.08 42.0818H40.7267C40.4807 42.0818 40.2812 41.7704 40.2812 41.3866C40.2812 41.0027 40.4807 40.6914 40.7267 40.6914H43.08C43.326 40.6914 43.5255 41.0027 43.5255 41.3866C43.5252 41.7704 43.326 42.0818 43.08 42.0818Z" fill="white"/>
<path fill-rule="evenodd" clip-rule="evenodd" d="M32.5158 32.8868H33.6072V32.7172H32.5158C32.3234 32.7172 32.1663 32.8742 32.1663 33.0678V34.0462H31.4931V33.434C31.4931 33.2387 31.3342 33.0804 31.1395 33.0804H30.5254V31.3086H30.3557V33.0804H29.7572C29.5625 33.0804 29.4036 33.2392 29.4036 33.434V34.0462H28.7143V33.0678C28.7143 32.8742 28.5577 32.7172 28.3648 32.7172H27.2734V32.8868H28.3648C28.464 32.8868 28.5446 32.968 28.5446 33.0684V35.1956C28.5446 35.2959 28.464 35.3772 28.3648 35.3772H27.2734V35.5468H28.3648C28.5571 35.5468 28.7143 35.3897 28.7143 35.1961V34.2171H29.4036V34.8294C29.4036 35.0247 29.5625 35.1836 29.7572 35.1836H30.3557V36.9554H30.5254V35.1836H31.1395C31.3342 35.1836 31.4931 35.0247 31.4931 34.8294V34.2171H32.1663V35.1961C32.1663 35.3897 32.3228 35.5468 32.5158 35.5468H33.6072V35.3772H32.5158C32.4166 35.3772 32.3359 35.2959 32.3359 35.1956V33.0684C32.3359 32.9686 32.4166 32.8868 32.5158 32.8868ZM31.3235 34.8288C31.3235 34.9304 31.241 35.0134 31.1389 35.0134H29.7566C29.6551 35.0134 29.5721 34.9304 29.5721 34.8288V33.4351C29.5721 33.3336 29.6545 33.2506 29.7566 33.2506H31.1389C31.2405 33.2506 31.3235 33.3336 31.3235 33.4351V34.8288Z" fill="white" stroke="white" stroke-width="0.1"/>
<path fill-rule="evenodd" clip-rule="evenodd" d="M51.8744 38.8358C51.2412 39.3114 50.8317 40.0686 50.8317 40.9214C50.8317 41.7743 51.2412 42.5315 51.8744 43.0071C51.4387 43.3344 50.8971 43.5285 50.3101 43.5285C48.8703 43.5285 47.7031 42.3612 47.7031 40.9214C47.7031 39.4816 48.8703 38.3145 50.3101 38.3145C50.8971 38.3145 51.4387 38.5084 51.8744 38.8358Z" fill="#BF9BFF"/>
<path fill-rule="evenodd" clip-rule="evenodd" d="M51.8594 38.8356C52.4926 39.3113 52.9022 40.0686 52.9022 40.9214C52.9022 41.7744 52.4926 42.5316 51.8594 43.0073C52.2951 43.3345 52.8367 43.5285 53.4235 43.5285C54.8634 43.5285 56.0305 42.3612 56.0305 40.9214C56.0305 39.4816 54.8634 38.3145 53.4235 38.3145C52.8367 38.3145 52.2951 38.5084 51.8594 38.8356Z" fill="#BF9BFF"/>
<path fill-rule="evenodd" clip-rule="evenodd" d="M51.8632 43.0075C52.4964 42.5319 52.906 41.7746 52.906 40.9217C52.906 40.0688 52.4964 39.3115 51.8632 38.8359C51.2299 39.3115 50.8203 40.0688 50.8203 40.9217C50.8203 41.7746 51.2299 42.5319 51.8632 43.0075Z" fill="#2C007D"/>
</g>
<path d="M31.1992 94H28.7352L24.4952 82.512H27.0232L29.9992 91.008L32.9912 82.512H35.4072L31.1992 94ZM36.3101 84.592V82.512H38.5981V84.592H36.3101ZM38.5821 85.584V94H36.3421V85.584H38.5821ZM45.4442 85.568V87.76C45.1882 87.728 44.9962 87.712 44.7242 87.712C43.5562 87.712 42.6602 88.432 42.6602 89.728V94H40.4202V85.584H42.6602V86.768C43.0282 86.032 43.8602 85.536 44.9002 85.536C45.1242 85.536 45.2842 85.552 45.4442 85.568ZM47.0504 91.808V87.456H45.9304V85.584H47.0504V83.184H49.2584V85.584H50.9704V87.456H49.2584V91.344C49.2584 92.064 49.6584 92.16 50.3144 92.16C50.6344 92.16 50.7944 92.144 51.0824 92.112V93.968C50.6824 94.048 50.2024 94.096 49.6424 94.096C47.9464 94.096 47.0504 93.536 47.0504 91.808ZM59.6697 85.584V94H57.4297V93.136C56.9657 93.68 56.2297 94.176 55.1577 94.176C53.4137 94.176 52.2937 92.976 52.2937 91.152V85.584H54.5337V90.656C54.5337 91.584 54.9497 92.192 55.8777 92.192C56.6617 92.192 57.4297 91.616 57.4297 90.528V85.584H59.6697ZM63.8176 94.144C62.1696 94.144 60.9536 93.152 60.9536 91.664C60.9536 89.984 62.2976 89.28 63.9936 88.976L66.0896 88.576V88.448C66.0896 87.728 65.7216 87.28 64.7936 87.28C63.9616 87.28 63.5296 87.648 63.3376 88.4L61.2096 88C61.5936 86.576 62.8736 85.424 64.8736 85.424C67.0016 85.424 68.2816 86.4 68.2816 88.352V91.792C68.2816 92.24 68.4736 92.384 68.9696 92.32V94C67.5456 94.208 66.6816 93.92 66.3136 93.216C65.7696 93.808 64.9216 94.144 63.8176 94.144ZM66.0896 91.008V90.144L64.4416 90.48C63.7056 90.624 63.1616 90.864 63.1616 91.536C63.1616 92.112 63.5936 92.448 64.2656 92.448C65.2096 92.448 66.0896 91.952 66.0896 91.008ZM72.4727 82.512V94H70.2327V82.512H72.4727ZM79.4172 88.256C79.4172 90.592 80.6492 92.112 82.4092 92.112C83.6572 92.112 84.5692 91.328 84.8892 90.048L87.0972 90.784C86.4252 92.864 84.7932 94.176 82.4092 94.176C79.3052 94.176 77.0492 91.728 77.0492 88.256C77.0492 84.784 79.3052 82.336 82.4092 82.336C84.7932 82.336 86.4252 83.648 87.0972 85.728L84.8892 86.464C84.5692 85.184 83.6572 84.4 82.4092 84.4C80.6492 84.4 79.4172 85.92 79.4172 88.256ZM90.5676 94.144C88.9196 94.144 87.7036 93.152 87.7036 91.664C87.7036 89.984 89.0476 89.28 90.7436 88.976L92.8396 88.576V88.448C92.8396 87.728 92.4716 87.28 91.5436 87.28C90.7116 87.28 90.2796 87.648 90.0876 88.4L87.9596 88C88.3436 86.576 89.6236 85.424 91.6236 85.424C93.7516 85.424 95.0316 86.4 95.0316 88.352V91.792C95.0316 92.24 95.2236 92.384 95.7196 92.32V94C94.2956 94.208 93.4316 93.92 93.0636 93.216C92.5196 93.808 91.6716 94.144 90.5676 94.144ZM92.8396 91.008V90.144L91.1916 90.48C90.4556 90.624 89.9116 90.864 89.9116 91.536C89.9116 92.112 90.3436 92.448 91.0156 92.448C91.9596 92.448 92.8396 91.952 92.8396 91.008ZM102.007 85.568V87.76C101.751 87.728 101.559 87.712 101.287 87.712C100.119 87.712 99.2227 88.432 99.2227 89.728V94H96.9827V85.584H99.2227V86.768C99.5907 86.032 100.423 85.536 101.463 85.536C101.687 85.536 101.847 85.552 102.007 85.568ZM106.103 94.176C103.783 94.176 102.439 92.192 102.439 89.792C102.439 87.408 103.783 85.424 106.103 85.424C107.159 85.424 107.959 85.84 108.455 86.448V82.512H110.695V94H108.455V93.136C107.959 93.76 107.159 94.176 106.103 94.176ZM108.503 89.568C108.503 88.128 107.703 87.344 106.631 87.344C105.367 87.344 104.695 88.352 104.695 89.792C104.695 91.248 105.367 92.256 106.631 92.256C107.703 92.256 108.503 91.456 108.503 90.032V89.568ZM111.713 92.576L113.105 91.152C113.681 91.936 114.705 92.432 115.649 92.432C116.401 92.432 117.057 92.176 117.057 91.568C117.057 90.928 116.433 90.848 115.089 90.592C113.729 90.32 112.225 89.968 112.225 88.16C112.225 86.544 113.649 85.424 115.665 85.424C117.153 85.424 118.481 86.032 119.137 86.88L117.857 88.288C117.297 87.568 116.481 87.168 115.601 87.168C114.897 87.168 114.433 87.472 114.433 87.936C114.433 88.48 114.993 88.576 116.033 88.784C117.505 89.088 119.249 89.424 119.249 91.328C119.249 93.088 117.617 94.176 115.601 94.176C114.081 94.176 112.481 93.616 111.713 92.576Z" fill="#4D148C"/>
<path d="M31.688 117.512H33.384L37.816 129H36.264L35.096 125.976H29.944L28.792 129H27.256L31.688 117.512ZM32.504 119.24L30.456 124.632H34.584L32.504 119.24ZM46.2211 129H44.7971L41.6611 120.632H43.1811L45.5331 127.24L47.8531 120.632H49.3571L46.2211 129ZM50.6985 119.176V117.512H52.2665V119.176H50.6985ZM52.2025 120.632V129H50.7625V120.632H52.2025ZM58.9423 120.6V122.056C58.7023 122.008 58.5103 121.992 58.2383 121.992C57.0223 121.992 56.0463 122.952 56.0463 124.424V129H54.6063V120.632H56.0463V122.056C56.4143 121.208 57.2303 120.568 58.3663 120.568C58.5903 120.568 58.7983 120.584 58.9423 120.6ZM60.8459 127V121.864H59.5499V120.632H60.8459V118.184H62.2699V120.632H64.1739V121.864H62.2699V126.776C62.2699 127.656 62.7019 127.816 63.4379 127.816C63.7739 127.816 64.0139 127.8 64.3499 127.72V128.952C63.9819 129.032 63.5659 129.08 63.0859 129.08C61.6619 129.08 60.8459 128.6 60.8459 127ZM72.6213 120.632V129H71.1813V127.848C70.7013 128.552 69.8853 129.176 68.7013 129.176C66.9093 129.176 65.9013 127.944 65.9013 126.168V120.632H67.3413V125.864C67.3413 127.048 67.8533 127.848 69.0853 127.848C70.1253 127.848 71.1813 127.064 71.1813 125.672V120.632H72.6213ZM77.1085 129.144C75.5885 129.144 74.3565 128.248 74.3565 126.744C74.3565 125.08 75.6525 124.392 77.5245 124.008L79.5565 123.592V123.24C79.5565 122.28 79.0285 121.736 77.9085 121.736C76.8525 121.736 76.2285 122.232 75.9725 123.16L74.6125 122.808C75.0125 121.448 76.2445 120.472 77.9565 120.472C79.8285 120.472 80.9805 121.384 80.9805 123.176V127.256C80.9805 127.8 81.3165 127.976 81.8765 127.848V129C80.5965 129.16 79.8605 128.856 79.6845 128.056C79.1725 128.712 78.2445 129.144 77.1085 129.144ZM79.5565 126.152V124.712L77.9245 125.064C76.6445 125.32 75.7805 125.672 75.7805 126.68C75.7805 127.496 76.3725 127.976 77.2845 127.976C78.5165 127.976 79.5565 127.224 79.5565 126.152ZM84.8744 117.512V129H83.4344V117.512H84.8744ZM91.5171 124.824C91.5171 126.728 92.5411 127.912 94.0291 127.912C95.1811 127.912 95.8691 127.176 96.1091 126.136L97.3891 126.728C96.9891 128.12 95.7731 129.176 94.0291 129.176C91.6931 129.176 90.0771 127.4 90.0771 124.824C90.0771 122.232 91.6931 120.472 94.0291 120.472C95.7731 120.472 96.9571 121.48 97.3571 122.872L96.1091 123.496C95.8691 122.472 95.1811 121.72 94.0291 121.72C92.5411 121.72 91.5171 122.904 91.5171 124.824ZM101.155 129.144C99.6354 129.144 98.4034 128.248 98.4034 126.744C98.4034 125.08 99.6994 124.392 101.571 124.008L103.603 123.592V123.24C103.603 122.28 103.075 121.736 101.955 121.736C100.899 121.736 100.275 122.232 100.019 123.16L98.6594 122.808C99.0594 121.448 100.291 120.472 102.003 120.472C103.875 120.472 105.027 121.384 105.027 123.176V127.256C105.027 127.8 105.363 127.976 105.923 127.848V129C104.643 129.16 103.907 128.856 103.731 128.056C103.219 128.712 102.291 129.144 101.155 129.144ZM103.603 126.152V124.712L101.971 125.064C100.691 125.32 99.8274 125.672 99.8274 126.68C99.8274 127.496 100.419 127.976 101.331 127.976C102.563 127.976 103.603 127.224 103.603 126.152ZM111.817 120.6V122.056C111.577 122.008 111.385 121.992 111.113 121.992C109.897 121.992 108.921 122.952 108.921 124.424V129H107.481V120.632H108.921V122.056C109.289 121.208 110.105 120.568 111.241 120.568C111.465 120.568 111.673 120.584 111.817 120.6ZM116.194 129.176C113.874 129.176 112.546 127.192 112.546 124.824C112.546 122.44 113.874 120.472 116.194 120.472C117.362 120.472 118.29 121.032 118.786 121.848V117.512H120.226V129H118.786V127.784C118.29 128.616 117.362 129.176 116.194 129.176ZM118.818 124.536C118.818 122.584 117.634 121.736 116.45 121.736C114.882 121.736 114.002 123.016 114.002 124.824C114.002 126.616 114.882 127.912 116.45 127.912C117.634 127.912 118.818 127.048 118.818 125.128V124.536ZM125.917 119.176V117.512H127.485V119.176H125.917ZM127.421 120.632V129H125.981V120.632H127.421ZM128.897 127.224L130.017 126.408C130.465 127.384 131.489 127.976 132.577 127.976C133.553 127.976 134.417 127.56 134.417 126.648C134.417 125.736 133.617 125.608 132.241 125.32C130.865 125.016 129.425 124.712 129.425 123C129.425 121.512 130.721 120.472 132.497 120.472C134.001 120.472 135.233 121.208 135.729 122.2L134.705 123.016C134.273 122.184 133.489 121.656 132.433 121.656C131.473 121.656 130.833 122.136 130.833 122.888C130.833 123.672 131.569 123.816 132.737 124.072C134.177 124.408 135.825 124.696 135.825 126.52C135.825 128.12 134.369 129.176 132.577 129.176C131.057 129.176 129.537 128.52 128.897 127.224ZM143.077 129.144C141.557 129.144 140.325 128.248 140.325 126.744C140.325 125.08 141.621 124.392 143.493 124.008L145.525 123.592V123.24C145.525 122.28 144.997 121.736 143.877 121.736C142.821 121.736 142.197 122.232 141.941 123.16L140.581 122.808C140.981 121.448 142.213 120.472 143.925 120.472C145.797 120.472 146.949 121.384 146.949 123.176V127.256C146.949 127.8 147.285 127.976 147.845 127.848V129C146.565 129.16 145.829 128.856 145.653 128.056C145.141 128.712 144.213 129.144 143.077 129.144ZM145.525 126.152V124.712L143.893 125.064C142.613 125.32 141.749 125.672 141.749 126.68C141.749 127.496 142.341 127.976 143.253 127.976C144.485 127.976 145.525 127.224 145.525 126.152ZM155.85 129.176C153.53 129.176 152.202 127.192 152.202 124.824C152.202 122.44 153.53 120.472 155.85 120.472C157.018 120.472 157.946 121.032 158.442 121.848V117.512H159.882V129H158.442V127.784C157.946 128.616 157.018 129.176 155.85 129.176ZM158.474 124.536C158.474 122.584 157.29 121.736 156.106 121.736C154.538 121.736 153.658 123.016 153.658 124.824C153.658 126.616 154.538 127.912 156.106 127.912C157.29 127.912 158.474 127.048 158.474 125.128V124.536ZM162.199 119.176V117.512H163.767V119.176H162.199ZM163.703 120.632V129H162.263V120.632H163.703ZM173.194 128.248C173.194 130.696 171.578 132.056 169.306 132.056C167.466 132.056 166.122 131.208 165.658 129.672L167.002 129.16C167.274 130.232 168.138 130.856 169.306 130.856C170.778 130.856 171.754 130.104 171.754 128.36V127.416C171.306 128.232 170.362 128.808 169.194 128.808C166.906 128.808 165.562 126.92 165.562 124.632C165.562 122.36 166.906 120.472 169.194 120.472C170.346 120.472 171.306 121.048 171.754 121.864V120.632H173.194V128.248ZM171.77 124.504C171.77 122.632 170.65 121.736 169.45 121.736C167.93 121.736 167.002 122.872 167.002 124.632C167.002 126.392 167.93 127.544 169.45 127.544C170.65 127.544 171.77 126.648 171.77 124.808V124.504ZM175.527 119.176V117.512H177.095V119.176H175.527ZM177.031 120.632V129H175.591V120.632H177.031ZM179.658 127V121.864H178.362V120.632H179.658V118.184H181.082V120.632H182.986V121.864H181.082V126.776C181.082 127.656 181.514 127.816 182.25 127.816C182.586 127.816 182.826 127.8 183.162 127.72V128.952C182.794 129.032 182.378 129.08 181.898 129.08C180.474 129.08 179.658 128.6 179.658 127ZM186.968 129.144C185.448 129.144 184.216 128.248 184.216 126.744C184.216 125.08 185.512 124.392 187.384 124.008L189.416 123.592V123.24C189.416 122.28 188.888 121.736 187.768 121.736C186.712 121.736 186.088 122.232 185.832 123.16L184.472 122.808C184.872 121.448 186.104 120.472 187.816 120.472C189.688 120.472 190.84 121.384 190.84 123.176V127.256C190.84 127.8 191.176 127.976 191.736 127.848V129C190.456 129.16 189.72 128.856 189.544 128.056C189.032 128.712 188.104 129.144 186.968 129.144ZM189.416 126.152V124.712L187.784 125.064C186.504 125.32 185.64 125.672 185.64 126.68C185.64 127.496 186.232 127.976 187.144 127.976C188.376 127.976 189.416 127.224 189.416 126.152ZM194.734 117.512V129H193.294V117.512H194.734ZM201.377 124.824C201.377 126.728 202.401 127.912 203.889 127.912C205.041 127.912 205.729 127.176 205.969 126.136L207.249 126.728C206.849 128.12 205.633 129.176 203.889 129.176C201.553 129.176 199.937 127.4 199.937 124.824C199.937 122.232 201.553 120.472 203.889 120.472C205.633 120.472 206.817 121.48 207.217 122.872L205.969 123.496C205.729 122.472 205.041 121.72 203.889 121.72C202.401 121.72 201.377 122.904 201.377 124.824ZM211.015 129.144C209.495 129.144 208.263 128.248 208.263 126.744C208.263 125.08 209.559 124.392 211.431 124.008L213.463 123.592V123.24C213.463 122.28 212.935 121.736 211.815 121.736C210.759 121.736 210.135 122.232 209.879 123.16L208.519 122.808C208.919 121.448 210.151 120.472 211.863 120.472C213.735 120.472 214.887 121.384 214.887 123.176V127.256C214.887 127.8 215.223 127.976 215.783 127.848V129C214.503 129.16 213.767 128.856 213.591 128.056C213.079 128.712 212.151 129.144 211.015 129.144ZM213.463 126.152V124.712L211.831 125.064C210.551 125.32 209.687 125.672 209.687 126.68C209.687 127.496 210.279 127.976 211.191 127.976C212.423 127.976 213.463 127.224 213.463 126.152ZM221.677 120.6V122.056C221.437 122.008 221.245 121.992 220.973 121.992C219.757 121.992 218.781 122.952 218.781 124.424V129H217.341V120.632H218.781V122.056C219.149 121.208 219.965 120.568 221.101 120.568C221.325 120.568 221.533 120.584 221.677 120.6ZM226.053 129.176C223.733 129.176 222.405 127.192 222.405 124.824C222.405 122.44 223.733 120.472 226.053 120.472C227.221 120.472 228.149 121.032 228.645 121.848V117.512H230.085V129H228.645V127.784C228.149 128.616 227.221 129.176 226.053 129.176ZM228.677 124.536C228.677 122.584 227.493 121.736 226.309 121.736C224.741 121.736 223.861 123.016 223.861 124.824C223.861 126.616 224.741 127.912 226.309 127.912C227.493 127.912 228.677 127.048 228.677 125.128V124.536ZM236.065 127V121.864H234.769V120.632H236.065V118.184H237.489V120.632H239.393V121.864H237.489V126.776C237.489 127.656 237.921 127.816 238.657 127.816C238.993 127.816 239.233 127.8 239.569 127.72V128.952C239.201 129.032 238.785 129.08 238.305 129.08C236.881 129.08 236.065 128.6 236.065 127ZM241.278 129V117.512H242.718V121.768C243.198 121.08 244.03 120.472 245.214 120.472C246.99 120.472 247.998 121.704 247.998 123.48V129H246.558V123.864C246.558 122.696 246.062 121.816 244.814 121.816C243.774 121.816 242.718 122.616 242.718 124.008V129H241.278ZM252.405 129.144C250.885 129.144 249.653 128.248 249.653 126.744C249.653 125.08 250.949 124.392 252.821 124.008L254.853 123.592V123.24C254.853 122.28 254.325 121.736 253.205 121.736C252.149 121.736 251.525 122.232 251.269 123.16L249.909 122.808C250.309 121.448 251.541 120.472 253.253 120.472C255.125 120.472 256.277 121.384 256.277 123.176V127.256C256.277 127.8 256.613 127.976 257.173 127.848V129C255.893 129.16 255.157 128.856 254.981 128.056C254.469 128.712 253.541 129.144 252.405 129.144ZM254.853 126.152V124.712L253.221 125.064C251.941 125.32 251.077 125.672 251.077 126.68C251.077 127.496 251.669 127.976 252.581 127.976C253.813 127.976 254.853 127.224 254.853 126.152ZM258.955 127V121.864H257.659V120.632H258.955V118.184H260.379V120.632H262.283V121.864H260.379V126.776C260.379 127.656 260.811 127.816 261.547 127.816C261.883 127.816 262.123 127.8 262.459 127.72V128.952C262.091 129.032 261.675 129.08 261.195 129.08C259.771 129.08 258.955 128.6 258.955 127ZM274.744 124.824C274.744 127.416 273.144 129.176 270.856 129.176C268.568 129.176 266.968 127.416 266.968 124.824C266.968 122.232 268.568 120.472 270.856 120.472C273.144 120.472 274.744 122.232 274.744 124.824ZM268.424 124.824C268.424 126.728 269.384 127.944 270.856 127.944C272.328 127.944 273.288 126.728 273.288 124.824C273.288 122.904 272.328 121.688 270.856 121.688C269.384 121.688 268.424 122.904 268.424 124.824ZM276.575 129V120.632H278.015V121.768C278.495 121.08 279.327 120.472 280.511 120.472C282.287 120.472 283.295 121.704 283.295 123.48V129H281.855V123.864C281.855 122.696 281.359 121.816 280.111 121.816C279.071 121.816 278.015 122.616 278.015 124.008V129H276.575ZM287.046 117.512V129H285.606V117.512H287.046ZM292.554 129.912C292.074 131.176 291.418 131.976 289.962 131.976C289.61 131.976 289.434 131.96 289.178 131.912V130.664C289.45 130.728 289.626 130.744 289.866 130.744C290.49 130.744 290.826 130.52 291.162 129.688L291.562 128.696L288.458 120.632H289.978L292.33 127.032L294.65 120.632H296.154L292.554 129.912ZM31.544 153.176C29.224 153.176 27.624 151.4 27.624 148.824C27.624 146.328 29.208 144.472 31.48 144.472C33.816 144.472 35.048 146.248 35.048 148.568V149.048H29C29.08 150.808 30.088 151.928 31.544 151.928C32.664 151.928 33.464 151.32 33.72 150.328L34.984 150.776C34.472 152.264 33.208 153.176 31.544 153.176ZM31.464 145.704C30.248 145.704 29.336 146.52 29.08 147.944H33.592C33.56 146.76 32.92 145.704 31.464 145.704ZM41.6489 153L39.3289 149.704L37.0249 153H35.4569L38.5129 148.632L35.7129 144.632H37.3609L39.3769 147.56L41.4249 144.632H43.0089L40.2089 148.632L43.2809 153H41.6489ZM44.5579 143.176V141.512H46.1259V143.176H44.5579ZM46.0619 144.632V153H44.6219V144.632H46.0619ZM47.5376 151.224L48.6576 150.408C49.1056 151.384 50.1296 151.976 51.2176 151.976C52.1936 151.976 53.0576 151.56 53.0576 150.648C53.0576 149.736 52.2576 149.608 50.8816 149.32C49.5056 149.016 48.0656 148.712 48.0656 147C48.0656 145.512 49.3616 144.472 51.1376 144.472C52.6416 144.472 53.8736 145.208 54.3696 146.2L53.3456 147.016C52.9136 146.184 52.1296 145.656 51.0736 145.656C50.1136 145.656 49.4736 146.136 49.4736 146.888C49.4736 147.672 50.2096 147.816 51.3776 148.072C52.8176 148.408 54.4656 148.696 54.4656 150.52C54.4656 152.12 53.0096 153.176 51.2176 153.176C49.6976 153.176 48.1776 152.52 47.5376 151.224ZM56.4709 151V145.864H55.1749V144.632H56.4709V142.184H57.8949V144.632H59.7989V145.864H57.8949V150.776C57.8949 151.656 58.3269 151.816 59.0629 151.816C59.3989 151.816 59.6389 151.8 59.9749 151.72V152.952C59.6069 153.032 59.1909 153.08 58.7109 153.08C57.2869 153.08 56.4709 152.6 56.4709 151ZM60.7564 151.224L61.8764 150.408C62.3244 151.384 63.3484 151.976 64.4364 151.976C65.4124 151.976 66.2764 151.56 66.2764 150.648C66.2764 149.736 65.4764 149.608 64.1004 149.32C62.7244 149.016 61.2844 148.712 61.2844 147C61.2844 145.512 62.5804 144.472 64.3564 144.472C65.8604 144.472 67.0924 145.208 67.5884 146.2L66.5644 147.016C66.1324 146.184 65.3484 145.656 64.2924 145.656C63.3324 145.656 62.6924 146.136 62.6924 146.888C62.6924 147.672 63.4284 147.816 64.5964 148.072C66.0364 148.408 67.6844 148.696 67.6844 150.52C67.6844 152.12 66.2284 153.176 64.4364 153.176C62.9164 153.176 61.3964 152.52 60.7564 151.224ZM80.0406 148.824C80.0406 151.416 78.4406 153.176 76.1526 153.176C73.8646 153.176 72.2646 151.416 72.2646 148.824C72.2646 146.232 73.8646 144.472 76.1526 144.472C78.4406 144.472 80.0406 146.232 80.0406 148.824ZM73.7206 148.824C73.7206 150.728 74.6806 151.944 76.1526 151.944C77.6246 151.944 78.5846 150.728 78.5846 148.824C78.5846 146.904 77.6246 145.688 76.1526 145.688C74.6806 145.688 73.7206 146.904 73.7206 148.824ZM81.8719 153V144.632H83.3119V145.768C83.7919 145.08 84.6239 144.472 85.8079 144.472C87.5839 144.472 88.5919 145.704 88.5919 147.48V153H87.1519V147.864C87.1519 146.696 86.6559 145.816 85.4079 145.816C84.3679 145.816 83.3119 146.616 83.3119 148.008V153H81.8719ZM97.3821 153.912C96.9021 155.176 96.2461 155.976 94.7901 155.976C94.4381 155.976 94.2621 155.96 94.0061 155.912V154.664C94.2781 154.728 94.4541 154.744 94.6941 154.744C95.3181 154.744 95.6541 154.52 95.9901 153.688L96.3901 152.696L93.2861 144.632H94.8061L97.1581 151.032L99.4781 144.632H100.982L97.3821 153.912ZM109.275 148.824C109.275 151.416 107.675 153.176 105.387 153.176C103.099 153.176 101.499 151.416 101.499 148.824C101.499 146.232 103.099 144.472 105.387 144.472C107.675 144.472 109.275 146.232 109.275 148.824ZM102.955 148.824C102.955 150.728 103.915 151.944 105.387 151.944C106.859 151.944 107.819 150.728 107.819 148.824C107.819 146.904 106.859 145.688 105.387 145.688C103.915 145.688 102.955 146.904 102.955 148.824ZM117.746 144.632V153H116.306V151.848C115.826 152.552 115.01 153.176 113.826 153.176C112.034 153.176 111.026 151.944 111.026 150.168V144.632H112.466V149.864C112.466 151.048 112.978 151.848 114.21 151.848C115.25 151.848 116.306 151.064 116.306 149.672V144.632H117.746ZM124.474 144.6V146.056C124.234 146.008 124.042 145.992 123.77 145.992C122.554 145.992 121.578 146.952 121.578 148.424V153H120.138V144.632H121.578V146.056C121.946 145.208 122.762 144.568 123.898 144.568C124.122 144.568 124.33 144.584 124.474 144.6ZM133.466 153.176C132.298 153.176 131.37 152.616 130.874 151.784V155.88H129.434V144.632H130.874V145.848C131.37 145.032 132.298 144.472 133.466 144.472C135.786 144.472 137.114 146.44 137.114 148.824C137.114 151.192 135.786 153.176 133.466 153.176ZM130.842 148.536V149.128C130.842 151.048 132.026 151.912 133.21 151.912C134.778 151.912 135.658 150.616 135.658 148.824C135.658 147.016 134.778 145.736 133.21 145.736C132.026 145.736 130.842 146.584 130.842 148.536ZM138.934 153V141.512H140.374V145.768C140.854 145.08 141.686 144.472 142.87 144.472C144.646 144.472 145.654 145.704 145.654 147.48V153H144.214V147.864C144.214 146.696 143.718 145.816 142.47 145.816C141.43 145.816 140.374 146.616 140.374 148.008V153H138.934ZM155.166 148.824C155.166 151.416 153.566 153.176 151.278 153.176C148.99 153.176 147.39 151.416 147.39 148.824C147.39 146.232 148.99 144.472 151.278 144.472C153.566 144.472 155.166 146.232 155.166 148.824ZM148.846 148.824C148.846 150.728 149.806 151.944 151.278 151.944C152.75 151.944 153.71 150.728 153.71 148.824C153.71 146.904 152.75 145.688 151.278 145.688C149.806 145.688 148.846 146.904 148.846 148.824ZM156.997 153V144.632H158.437V145.768C158.917 145.08 159.749 144.472 160.933 144.472C162.709 144.472 163.717 145.704 163.717 147.48V153H162.277V147.864C162.277 146.696 161.781 145.816 160.533 145.816C159.493 145.816 158.437 146.616 158.437 148.008V153H156.997ZM169.372 153.176C167.052 153.176 165.452 151.4 165.452 148.824C165.452 146.328 167.036 144.472 169.308 144.472C171.644 144.472 172.876 146.248 172.876 148.568V149.048H166.828C166.908 150.808 167.916 151.928 169.372 151.928C170.492 151.928 171.292 151.32 171.548 150.328L172.812 150.776C172.3 152.264 171.036 153.176 169.372 153.176ZM169.292 145.704C168.076 145.704 167.164 146.52 166.908 147.944H171.42C171.388 146.76 170.748 145.704 169.292 145.704ZM174.161 153V151.112H175.985V153H174.161ZM189.274 153V151.288C188.81 152.344 187.578 153.176 185.93 153.176C183.002 153.176 180.826 150.776 180.826 147.288C180.826 143.784 183.018 141.336 186.026 141.336C188.234 141.336 189.802 142.536 190.49 144.52L189.018 145C188.602 143.544 187.546 142.696 186.042 142.696C183.866 142.696 182.362 144.552 182.362 147.272C182.362 149.976 183.866 151.848 186.058 151.848C187.914 151.848 189.162 150.424 189.194 148.376H185.898V147.032H190.682V153H189.274ZM196.325 153.176C194.005 153.176 192.405 151.4 192.405 148.824C192.405 146.328 193.989 144.472 196.261 144.472C198.597 144.472 199.829 146.248 199.829 148.568V149.048H193.781C193.861 150.808 194.869 151.928 196.325 151.928C197.445 151.928 198.245 151.32 198.501 150.328L199.765 150.776C199.253 152.264 197.989 153.176 196.325 153.176ZM196.245 145.704C195.029 145.704 194.117 146.52 193.861 147.944H198.373C198.341 146.76 197.701 145.704 196.245 145.704ZM201.846 151V145.864H200.55V144.632H201.846V142.184H203.27V144.632H205.174V145.864H203.27V150.776C203.27 151.656 203.702 151.816 204.438 151.816C204.774 151.816 205.014 151.8 205.35 151.72V152.952C204.982 153.032 204.566 153.08 204.086 153.08C202.662 153.08 201.846 152.6 201.846 151ZM212.53 153.144C211.01 153.144 209.778 152.248 209.778 150.744C209.778 149.08 211.074 148.392 212.946 148.008L214.978 147.592V147.24C214.978 146.28 214.45 145.736 213.33 145.736C212.274 145.736 211.65 146.232 211.394 147.16L210.034 146.808C210.434 145.448 211.666 144.472 213.378 144.472C215.25 144.472 216.402 145.384 216.402 147.176V151.256C216.402 151.8 216.738 151.976 217.298 151.848V153C216.018 153.16 215.282 152.856 215.106 152.056C214.594 152.712 213.666 153.144 212.53 153.144ZM214.978 150.152V148.712L213.346 149.064C212.066 149.32 211.202 149.672 211.202 150.68C211.202 151.496 211.794 151.976 212.706 151.976C213.938 151.976 214.978 151.224 214.978 150.152ZM220.296 141.512V153H218.856V141.512H220.296ZM224.14 141.512V153H222.7V141.512H224.14ZM230.143 151V145.864H228.847V144.632H230.143V142.184H231.567V144.632H233.471V145.864H231.567V150.776C231.567 151.656 231.999 151.816 232.735 151.816C233.071 151.816 233.311 151.8 233.647 151.72V152.952C233.279 153.032 232.863 153.08 232.383 153.08C230.959 153.08 230.143 152.6 230.143 151ZM235.356 153V141.512H236.796V145.768C237.276 145.08 238.108 144.472 239.292 144.472C241.068 144.472 242.076 145.704 242.076 147.48V153H240.636V147.864C240.636 146.696 240.14 145.816 238.892 145.816C237.852 145.816 236.796 146.616 236.796 148.008V153H235.356ZM247.732 153.176C245.412 153.176 243.812 151.4 243.812 148.824C243.812 146.328 245.396 144.472 247.668 144.472C250.004 144.472 251.236 146.248 251.236 148.568V149.048H245.188C245.268 150.808 246.276 151.928 247.732 151.928C248.852 151.928 249.652 151.32 249.908 150.328L251.172 150.776C250.66 152.264 249.396 153.176 247.732 153.176ZM247.652 145.704C246.436 145.704 245.524 146.52 245.268 147.944H249.78C249.748 146.76 249.108 145.704 247.652 145.704ZM260.435 153.176C259.267 153.176 258.339 152.616 257.843 151.784V153H256.403V141.512H257.843V145.848C258.339 145.032 259.267 144.472 260.435 144.472C262.755 144.472 264.083 146.44 264.083 148.824C264.083 151.192 262.755 153.176 260.435 153.176ZM257.811 148.536V149.128C257.811 151.048 258.995 151.912 260.179 151.912C261.747 151.912 262.627 150.616 262.627 148.824C262.627 147.016 261.747 145.736 260.179 145.736C258.995 145.736 257.811 146.584 257.811 148.536ZM269.247 153.176C266.927 153.176 265.327 151.4 265.327 148.824C265.327 146.328 266.911 144.472 269.183 144.472C271.519 144.472 272.751 146.248 272.751 148.568V149.048H266.703C266.783 150.808 267.791 151.928 269.247 151.928C270.367 151.928 271.167 151.32 271.423 150.328L272.687 150.776C272.175 152.264 270.911 153.176 269.247 153.176ZM269.167 145.704C267.951 145.704 267.039 146.52 266.783 147.944H271.295C271.263 146.76 270.623 145.704 269.167 145.704ZM274.544 153V144.632H275.984V145.768C276.464 145.08 277.296 144.472 278.48 144.472C280.256 144.472 281.264 145.704 281.264 147.48V153H279.824V147.864C279.824 146.696 279.328 145.816 278.08 145.816C277.04 145.816 275.984 146.616 275.984 148.008V153H274.544ZM286.919 153.176C284.599 153.176 282.999 151.4 282.999 148.824C282.999 146.328 284.583 144.472 286.855 144.472C289.191 144.472 290.423 146.248 290.423 148.568V149.048H284.375C284.455 150.808 285.463 151.928 286.919 151.928C288.039 151.928 288.839 151.32 289.095 150.328L290.359 150.776C289.847 152.264 288.583 153.176 286.919 153.176ZM286.839 145.704C285.623 145.704 284.711 146.52 284.455 147.944H288.967C288.935 146.76 288.295 145.704 286.839 145.704ZM295.864 141.368V142.648C295.624 142.616 295.48 142.616 295.24 142.616C294.392 142.616 293.928 142.984 293.928 144.056V144.632H295.784V145.864H293.928V153H292.488V145.864H291.224V144.632H292.488V143.96C292.488 142.328 293.384 141.336 295.096 141.336C295.384 141.336 295.544 141.352 295.864 141.368ZM297.058 143.176V141.512H298.626V143.176H297.058ZM298.562 144.632V153H297.122V144.632H298.562ZM301.19 151V145.864H299.894V144.632H301.19V142.184H302.614V144.632H304.518V145.864H302.614V150.776C302.614 151.656 303.046 151.816 303.782 151.816C304.118 151.816 304.358 151.8 304.694 151.72V152.952C304.326 153.032 303.91 153.08 303.43 153.08C302.006 153.08 301.19 152.6 301.19 151ZM305.475 151.224L306.595 150.408C307.043 151.384 308.067 151.976 309.155 151.976C310.131 151.976 310.995 151.56 310.995 150.648C310.995 149.736 310.195 149.608 308.819 149.32C307.443 149.016 306.003 148.712 306.003 147C306.003 145.512 307.299 144.472 309.075 144.472C310.579 144.472 311.811 145.208 312.307 146.2L311.283 147.016C310.851 146.184 310.067 145.656 309.011 145.656C308.051 145.656 307.411 146.136 307.411 146.888C307.411 147.672 308.147 147.816 309.315 148.072C310.755 148.408 312.403 148.696 312.403 150.52C312.403 152.12 310.947 153.176 309.155 153.176C307.635 153.176 306.115 152.52 305.475 151.224ZM35.4 172.824C35.4 175.416 33.8 177.176 31.512 177.176C29.224 177.176 27.624 175.416 27.624 172.824C27.624 170.232 29.224 168.472 31.512 168.472C33.8 168.472 35.4 170.232 35.4 172.824ZM29.08 172.824C29.08 174.728 30.04 175.944 31.512 175.944C32.984 175.944 33.944 174.728 33.944 172.824C33.944 170.904 32.984 169.688 31.512 169.688C30.04 169.688 29.08 170.904 29.08 172.824ZM40.8793 165.368V166.648C40.6393 166.616 40.4953 166.616 40.2552 166.616C39.4073 166.616 38.9433 166.984 38.9433 168.056V168.632H40.7993V169.864H38.9433V177H37.5033V169.864H36.2393V168.632H37.5033V167.96C37.5033 166.328 38.3993 165.336 40.1113 165.336C40.3993 165.336 40.5593 165.352 40.8793 165.368ZM47.6085 177.144C46.0885 177.144 44.8565 176.248 44.8565 174.744C44.8565 173.08 46.1525 172.392 48.0245 172.008L50.0565 171.592V171.24C50.0565 170.28 49.5285 169.736 48.4085 169.736C47.3525 169.736 46.7285 170.232 46.4725 171.16L45.1125 170.808C45.5125 169.448 46.7445 168.472 48.4565 168.472C50.3285 168.472 51.4805 169.384 51.4805 171.176V175.256C51.4805 175.8 51.8165 175.976 52.3765 175.848V177C51.0965 177.16 50.3605 176.856 50.1845 176.056C49.6725 176.712 48.7445 177.144 47.6085 177.144ZM50.0565 174.152V172.712L48.4245 173.064C47.1445 173.32 46.2805 173.672 46.2805 174.68C46.2805 175.496 46.8725 175.976 47.7845 175.976C49.0165 175.976 50.0565 175.224 50.0565 174.152ZM53.9344 177V168.632H55.3744V169.768C55.8544 169.08 56.6864 168.472 57.8704 168.472C59.6464 168.472 60.6544 169.704 60.6544 171.48V177H59.2144V171.864C59.2144 170.696 58.7184 169.816 57.4704 169.816C56.4304 169.816 55.3744 170.616 55.3744 172.008V177H53.9344ZM66.0228 177.912C65.5428 179.176 64.8868 179.976 63.4308 179.976C63.0788 179.976 62.9028 179.96 62.6468 179.912V178.664C62.9188 178.728 63.0948 178.744 63.3348 178.744C63.9588 178.744 64.2948 178.52 64.6308 177.688L65.0308 176.696L61.9268 168.632H63.4468L65.7988 175.032L68.1188 168.632H69.6228L66.0228 177.912ZM75.2671 172.824C75.2671 174.728 76.2911 175.912 77.7791 175.912C78.9311 175.912 79.6191 175.176 79.8591 174.136L81.1391 174.728C80.7391 176.12 79.5231 177.176 77.7791 177.176C75.4431 177.176 73.8271 175.4 73.8271 172.824C73.8271 170.232 75.4431 168.472 77.7791 168.472C79.5231 168.472 80.7071 169.48 81.1071 170.872L79.8591 171.496C79.6191 170.472 78.9311 169.72 77.7791 169.72C76.2911 169.72 75.2671 170.904 75.2671 172.824ZM84.9054 177.144C83.3854 177.144 82.1534 176.248 82.1534 174.744C82.1534 173.08 83.4494 172.392 85.3214 172.008L87.3534 171.592V171.24C87.3534 170.28 86.8254 169.736 85.7054 169.736C84.6494 169.736 84.0254 170.232 83.7694 171.16L82.4094 170.808C82.8094 169.448 84.0414 168.472 85.7534 168.472C87.6254 168.472 88.7774 169.384 88.7774 171.176V175.256C88.7774 175.8 89.1134 175.976 89.6734 175.848V177C88.3934 177.16 87.6574 176.856 87.4814 176.056C86.9694 176.712 86.0414 177.144 84.9054 177.144ZM87.3534 174.152V172.712L85.7214 173.064C84.4414 173.32 83.5774 173.672 83.5774 174.68C83.5774 175.496 84.1694 175.976 85.0814 175.976C86.3134 175.976 87.3534 175.224 87.3534 174.152ZM95.5673 168.6V170.056C95.3273 170.008 95.1353 169.992 94.8633 169.992C93.6473 169.992 92.6713 170.952 92.6713 172.424V177H91.2313V168.632H92.6713V170.056C93.0393 169.208 93.8553 168.568 94.9913 168.568C95.2153 168.568 95.4233 168.584 95.5673 168.6ZM99.9439 177.176C97.6239 177.176 96.2959 175.192 96.2959 172.824C96.2959 170.44 97.6239 168.472 99.9439 168.472C101.112 168.472 102.04 169.032 102.536 169.848V165.512H103.976V177H102.536V175.784C102.04 176.616 101.112 177.176 99.9439 177.176ZM102.568 172.536C102.568 170.584 101.384 169.736 100.2 169.736C98.6319 169.736 97.7519 171.016 97.7519 172.824C97.7519 174.616 98.6319 175.912 100.2 175.912C101.384 175.912 102.568 175.048 102.568 173.128V172.536ZM113.379 165.368V166.648C113.139 166.616 112.995 166.616 112.755 166.616C111.907 166.616 111.443 166.984 111.443 168.056V168.632H113.299V169.864H111.443V177H110.003V169.864H108.739V168.632H110.003V167.96C110.003 166.328 110.899 165.336 112.611 165.336C112.899 165.336 113.059 165.352 113.379 165.368ZM121.791 172.824C121.791 175.416 120.191 177.176 117.903 177.176C115.615 177.176 114.015 175.416 114.015 172.824C114.015 170.232 115.615 168.472 117.903 168.472C120.191 168.472 121.791 170.232 121.791 172.824ZM115.471 172.824C115.471 174.728 116.431 175.944 117.903 175.944C119.375 175.944 120.335 174.728 120.335 172.824C120.335 170.904 119.375 169.688 117.903 169.688C116.431 169.688 115.471 170.904 115.471 172.824ZM127.958 168.6V170.056C127.718 170.008 127.526 169.992 127.254 169.992C126.038 169.992 125.062 170.952 125.062 172.424V177H123.622V168.632H125.062V170.056C125.43 169.208 126.246 168.568 127.382 168.568C127.606 168.568 127.814 168.584 127.958 168.6ZM130.984 171.992V177H129.544V168.632H130.984V169.768C131.432 169.08 132.232 168.472 133.4 168.472C134.52 168.472 135.304 169.032 135.72 169.896C136.184 169.208 137.08 168.472 138.392 168.472C140.12 168.472 141.16 169.704 141.16 171.48V177H139.72V171.864C139.72 170.696 139.24 169.816 138.056 169.816C137.096 169.816 136.072 170.632 136.072 171.992V177H134.632V171.864C134.632 170.696 134.152 169.816 132.968 169.816C132.008 169.816 130.984 170.632 130.984 171.992ZM146.792 167.176V165.512H148.36V167.176H146.792ZM148.296 168.632V177H146.856V168.632H148.296ZM150.364 177V175.112H152.188V177H150.364ZM157.122 177.176C154.802 177.176 153.202 175.4 153.202 172.824C153.202 170.328 154.786 168.472 157.058 168.472C159.394 168.472 160.626 170.248 160.626 172.568V173.048H154.578C154.658 174.808 155.666 175.928 157.122 175.928C158.242 175.928 159.042 175.32 159.298 174.328L160.562 174.776C160.05 176.264 158.786 177.176 157.122 177.176ZM157.042 169.704C155.826 169.704 154.914 170.52 154.658 171.944H159.17C159.138 170.76 158.498 169.704 157.042 169.704ZM161.911 177V175.112H163.735V177H161.911ZM165.473 177V175.112H167.297V177.096C167.297 178.344 166.497 179.096 165.217 179.128V178.296C165.937 178.264 166.305 177.896 166.305 177.128V177H165.473ZM172.811 177V165.512H176.459C179.947 165.512 182.155 167.752 182.155 171.256C182.155 174.76 179.947 177 176.459 177H172.811ZM174.315 175.672H176.459C179.067 175.672 180.651 173.928 180.651 171.256C180.651 168.568 179.067 166.84 176.443 166.84H174.315V175.672ZM187.31 177.176C184.99 177.176 183.39 175.4 183.39 172.824C183.39 170.328 184.974 168.472 187.246 168.472C189.582 168.472 190.814 170.248 190.814 172.568V173.048H184.766C184.846 174.808 185.854 175.928 187.31 175.928C188.43 175.928 189.23 175.32 189.486 174.328L190.75 174.776C190.238 176.264 188.974 177.176 187.31 177.176ZM187.23 169.704C186.014 169.704 185.102 170.52 184.846 171.944H189.358C189.326 170.76 188.686 169.704 187.23 169.704ZM196.638 177.176C195.47 177.176 194.542 176.616 194.046 175.784V177H192.606V165.512H194.046V169.848C194.542 169.032 195.47 168.472 196.638 168.472C198.958 168.472 200.286 170.44 200.286 172.824C200.286 175.192 198.958 177.176 196.638 177.176ZM194.014 172.536V173.128C194.014 175.048 195.198 175.912 196.382 175.912C197.95 175.912 198.83 174.616 198.83 172.824C198.83 171.016 197.95 169.736 196.382 169.736C195.198 169.736 194.014 170.584 194.014 172.536ZM202.042 167.176V165.512H203.61V167.176H202.042ZM203.546 168.632V177H202.106V168.632H203.546ZM206.174 175V169.864H204.878V168.632H206.174V166.184H207.598V168.632H209.502V169.864H207.598V174.776C207.598 175.656 208.03 175.816 208.766 175.816C209.102 175.816 209.342 175.8 209.678 175.72V176.952C209.31 177.032 208.894 177.08 208.414 177.08C206.99 177.08 206.174 176.6 206.174 175ZM211.255 177V175.112H213.079V177.096C213.079 178.344 212.279 179.096 210.999 179.128V178.296C211.719 178.264 212.087 177.896 212.087 177.128V177H211.255ZM219.456 171.256C219.456 173.976 220.96 175.816 223.088 175.816C224.576 175.816 225.648 174.952 226.064 173.496L227.52 173.976C226.848 175.96 225.28 177.176 223.088 177.176C220.112 177.176 217.92 174.76 217.92 171.256C217.92 167.752 220.112 165.336 223.088 165.336C225.28 165.336 226.848 166.552 227.52 168.536L226.064 169.016C225.648 167.56 224.576 166.696 223.088 166.696C220.96 166.696 219.456 168.536 219.456 171.256ZM233.411 168.6V170.056C233.171 170.008 232.979 169.992 232.707 169.992C231.491 169.992 230.515 170.952 230.515 172.424V177H229.075V168.632H230.515V170.056C230.883 169.208 231.699 168.568 232.835 168.568C233.059 168.568 233.267 168.584 233.411 168.6ZM237.997 177.176C235.677 177.176 234.077 175.4 234.077 172.824C234.077 170.328 235.661 168.472 237.933 168.472C240.269 168.472 241.501 170.248 241.501 172.568V173.048H235.453C235.533 174.808 236.541 175.928 237.997 175.928C239.117 175.928 239.917 175.32 240.173 174.328L241.437 174.776C240.925 176.264 239.661 177.176 237.997 177.176ZM237.917 169.704C236.701 169.704 235.789 170.52 235.533 171.944H240.045C240.013 170.76 239.373 169.704 237.917 169.704ZM246.366 177.176C244.046 177.176 242.718 175.192 242.718 172.824C242.718 170.44 244.046 168.472 246.366 168.472C247.534 168.472 248.462 169.032 248.958 169.848V165.512H250.398V177H248.958V175.784C248.462 176.616 247.534 177.176 246.366 177.176ZM248.99 172.536C248.99 170.584 247.806 169.736 246.622 169.736C245.054 169.736 244.174 171.016 244.174 172.824C244.174 174.616 245.054 175.912 246.622 175.912C247.806 175.912 248.99 175.048 248.99 173.128V172.536ZM252.714 167.176V165.512H254.282V167.176H252.714ZM254.218 168.632V177H252.778V168.632H254.218ZM256.846 175V169.864H255.55V168.632H256.846V166.184H258.27V168.632H260.174V169.864H258.27V174.776C258.27 175.656 258.702 175.816 259.438 175.816C259.774 175.816 260.014 175.8 260.35 175.72V176.952C259.982 177.032 259.566 177.08 259.086 177.08C257.662 177.08 256.846 176.6 256.846 175ZM272.634 172.824C272.634 175.416 271.034 177.176 268.746 177.176C266.458 177.176 264.858 175.416 264.858 172.824C264.858 170.232 266.458 168.472 268.746 168.472C271.034 168.472 272.634 170.232 272.634 172.824ZM266.314 172.824C266.314 174.728 267.274 175.944 268.746 175.944C270.218 175.944 271.178 174.728 271.178 172.824C271.178 170.904 270.218 169.688 268.746 169.688C267.274 169.688 266.314 170.904 266.314 172.824ZM278.802 168.6V170.056C278.562 170.008 278.37 169.992 278.098 169.992C276.882 169.992 275.906 170.952 275.906 172.424V177H274.466V168.632H275.906V170.056C276.274 169.208 277.09 168.568 278.226 168.568C278.45 168.568 278.658 168.584 278.802 168.6ZM285.363 172.184V177H283.827V165.512H288.211C290.642 165.512 292.195 166.648 292.195 168.84C292.195 171 290.642 172.184 288.211 172.184H285.363ZM285.363 170.856H288.131C289.763 170.856 290.675 170.136 290.675 168.84C290.675 167.544 289.763 166.84 288.131 166.84H285.363V170.856ZM297.895 168.6V170.056C297.655 170.008 297.463 169.992 297.191 169.992C295.975 169.992 294.999 170.952 294.999 172.424V177H293.559V168.632H294.999V170.056C295.367 169.208 296.183 168.568 297.319 168.568C297.543 168.568 297.751 168.584 297.895 168.6ZM302.482 177.176C300.162 177.176 298.562 175.4 298.562 172.824C298.562 170.328 300.146 168.472 302.418 168.472C304.754 168.472 305.986 170.248 305.986 172.568V173.048H299.938C300.018 174.808 301.026 175.928 302.482 175.928C303.602 175.928 304.402 175.32 304.658 174.328L305.922 174.776C305.41 176.264 304.146 177.176 302.482 177.176ZM302.402 169.704C301.186 169.704 300.274 170.52 300.018 171.944H304.53C304.498 170.76 303.858 169.704 302.402 169.704ZM307.597 172.984V171.688H311.965V172.984H307.597ZM32.232 201.176C31.064 201.176 30.136 200.616 29.64 199.784V203.88H28.2V192.632H29.64V193.848C30.136 193.032 31.064 192.472 32.232 192.472C34.552 192.472 35.88 194.44 35.88 196.824C35.88 199.192 34.552 201.176 32.232 201.176ZM29.608 196.536V197.128C29.608 199.048 30.792 199.912 31.976 199.912C33.544 199.912 34.424 198.616 34.424 196.824C34.424 195.016 33.544 193.736 31.976 193.736C30.792 193.736 29.608 194.584 29.608 196.536ZM39.796 201.144C38.276 201.144 37.044 200.248 37.044 198.744C37.044 197.08 38.34 196.392 40.212 196.008L42.244 195.592V195.24C42.244 194.28 41.716 193.736 40.596 193.736C39.54 193.736 38.916 194.232 38.66 195.16L37.3 194.808C37.7 193.448 38.932 192.472 40.644 192.472C42.516 192.472 43.668 193.384 43.668 195.176V199.256C43.668 199.8 44.004 199.976 44.564 199.848V201C43.284 201.16 42.548 200.856 42.372 200.056C41.86 200.712 40.932 201.144 39.796 201.144ZM42.244 198.152V196.712L40.612 197.064C39.332 197.32 38.468 197.672 38.468 198.68C38.468 199.496 39.06 199.976 39.972 199.976C41.204 199.976 42.244 199.224 42.244 198.152ZM46.0579 191.176V189.512H47.6259V191.176H46.0579ZM47.5619 192.632V201H46.1219V192.632H47.5619ZM53.0376 201.176C50.7176 201.176 49.3896 199.192 49.3896 196.824C49.3896 194.44 50.7176 192.472 53.0376 192.472C54.2056 192.472 55.1336 193.032 55.6296 193.848V189.512H57.0696V201H55.6296V199.784C55.1336 200.616 54.2056 201.176 53.0376 201.176ZM55.6616 196.536C55.6616 194.584 54.4776 193.736 53.2936 193.736C51.7256 193.736 50.8456 195.016 50.8456 196.824C50.8456 198.616 51.7256 199.912 53.2936 199.912C54.4776 199.912 55.6616 199.048 55.6616 197.128V196.536ZM66.489 189.4C67.065 189.4 67.5557 189.501 67.961 189.704C68.377 189.896 68.697 190.173 68.921 190.536C69.145 190.899 69.257 191.341 69.257 191.864C69.257 192.536 69.0383 193.107 68.601 193.576C68.1743 194.045 67.6303 194.472 66.969 194.856L70.057 197.832C70.3343 197.501 70.5583 197.123 70.729 196.696C70.9103 196.259 71.0597 195.789 71.177 195.288H72.601C72.4303 195.971 72.217 196.605 71.961 197.192C71.705 197.779 71.3743 198.291 70.969 198.728L73.305 201H71.401L70.009 199.656C69.753 199.88 69.4863 200.088 69.209 200.28C68.9423 200.461 68.649 200.616 68.329 200.744C68.009 200.872 67.6623 200.973 67.289 201.048C66.9263 201.123 66.521 201.16 66.073 201.16C65.337 201.16 64.697 201.043 64.153 200.808C63.6197 200.563 63.2037 200.205 62.905 199.736C62.617 199.267 62.473 198.696 62.473 198.024C62.473 197.48 62.569 197.011 62.761 196.616C62.9637 196.221 63.2517 195.869 63.625 195.56C63.9983 195.251 64.4357 194.952 64.937 194.664C64.713 194.408 64.4943 194.141 64.281 193.864C64.0677 193.587 63.8917 193.288 63.753 192.968C63.6143 192.637 63.545 192.28 63.545 191.896C63.545 191.373 63.6623 190.925 63.897 190.552C64.1317 190.179 64.4677 189.896 64.905 189.704C65.353 189.501 65.881 189.4 66.489 189.4ZM65.785 195.544C65.401 195.768 65.0703 195.997 64.793 196.232C64.5263 196.456 64.3183 196.707 64.169 196.984C64.0197 197.261 63.945 197.592 63.945 197.976C63.945 198.563 64.1423 199.032 64.537 199.384C64.9317 199.736 65.4597 199.912 66.121 199.912C66.8037 199.912 67.3903 199.8 67.881 199.576C68.3717 199.352 68.7823 199.085 69.113 198.776L65.785 195.544ZM66.441 190.552C65.993 190.552 65.625 190.669 65.337 190.904C65.0597 191.139 64.921 191.464 64.921 191.88C64.921 192.264 65.0223 192.621 65.225 192.952C65.4277 193.272 65.721 193.629 66.105 194.024C66.7343 193.661 67.1823 193.32 67.449 193C67.7263 192.669 67.865 192.291 67.865 191.864C67.865 191.48 67.737 191.165 67.481 190.92C67.225 190.675 66.8783 190.552 66.441 190.552ZM76.9908 199.224L78.1108 198.408C78.5588 199.384 79.5828 199.976 80.6708 199.976C81.6468 199.976 82.5108 199.56 82.5108 198.648C82.5108 197.736 81.7108 197.608 80.3348 197.32C78.9588 197.016 77.5188 196.712 77.5188 195C77.5188 193.512 78.8148 192.472 80.5908 192.472C82.0948 192.472 83.3268 193.208 83.8228 194.2L82.7988 195.016C82.3668 194.184 81.5828 193.656 80.5268 193.656C79.5668 193.656 78.9268 194.136 78.9268 194.888C78.9268 195.672 79.6628 195.816 80.8307 196.072C82.2708 196.408 83.9188 196.696 83.9188 198.52C83.9188 200.12 82.4628 201.176 80.6708 201.176C79.1508 201.176 77.6308 200.52 76.9908 199.224ZM89.732 201.176C88.564 201.176 87.636 200.616 87.14 199.784V203.88H85.7V192.632H87.14V193.848C87.636 193.032 88.564 192.472 89.732 192.472C92.052 192.472 93.38 194.44 93.38 196.824C93.38 199.192 92.052 201.176 89.732 201.176ZM87.108 196.536V197.128C87.108 199.048 88.292 199.912 89.476 199.912C91.044 199.912 91.924 198.616 91.924 196.824C91.924 195.016 91.044 193.736 89.476 193.736C88.292 193.736 87.108 194.584 87.108 196.536ZM98.544 201.176C96.224 201.176 94.624 199.4 94.624 196.824C94.624 194.328 96.208 192.472 98.48 192.472C100.816 192.472 102.048 194.248 102.048 196.568V197.048H96C96.08 198.808 97.088 199.928 98.544 199.928C99.664 199.928 100.464 199.32 100.72 198.328L101.984 198.776C101.472 200.264 100.208 201.176 98.544 201.176ZM98.464 193.704C97.248 193.704 96.336 194.52 96.08 195.944H100.592C100.56 194.76 99.92 193.704 98.464 193.704ZM103.841 201V192.632H105.281V193.768C105.761 193.08 106.593 192.472 107.777 192.472C109.553 192.472 110.561 193.704 110.561 195.48V201H109.121V195.864C109.121 194.696 108.625 193.816 107.377 193.816C106.337 193.816 105.281 194.616 105.281 196.008V201H103.841ZM115.944 201.176C113.624 201.176 112.296 199.192 112.296 196.824C112.296 194.44 113.624 192.472 115.944 192.472C117.112 192.472 118.04 193.032 118.536 193.848V189.512H119.976V201H118.536V199.784C118.04 200.616 117.112 201.176 115.944 201.176ZM118.568 196.536C118.568 194.584 117.384 193.736 116.2 193.736C114.632 193.736 113.752 195.016 113.752 196.824C113.752 198.616 114.632 199.912 116.2 199.912C117.384 199.912 118.568 199.048 118.568 197.128V196.536ZM132.931 196.824C132.931 199.416 131.331 201.176 129.043 201.176C126.755 201.176 125.155 199.416 125.155 196.824C125.155 194.232 126.755 192.472 129.043 192.472C131.331 192.472 132.931 194.232 132.931 196.824ZM126.611 196.824C126.611 198.728 127.571 199.944 129.043 199.944C130.515 199.944 131.475 198.728 131.475 196.824C131.475 194.904 130.515 193.688 129.043 193.688C127.571 193.688 126.611 194.904 126.611 196.824ZM134.763 201V192.632H136.203V193.768C136.683 193.08 137.515 192.472 138.699 192.472C140.475 192.472 141.483 193.704 141.483 195.48V201H140.043V195.864C140.043 194.696 139.547 193.816 138.299 193.816C137.259 193.816 136.203 194.616 136.203 196.008V201H134.763ZM145.234 189.512V201H143.794V189.512H145.234ZM147.574 191.176V189.512H149.142V191.176H147.574ZM149.078 192.632V201H147.638V192.632H149.078ZM151.481 201V192.632H152.921V193.768C153.401 193.08 154.233 192.472 155.417 192.472C157.193 192.472 158.201 193.704 158.201 195.48V201H156.761V195.864C156.761 194.696 156.265 193.816 155.017 193.816C153.977 193.816 152.921 194.616 152.921 196.008V201H151.481ZM163.857 201.176C161.537 201.176 159.937 199.4 159.937 196.824C159.937 194.328 161.521 192.472 163.793 192.472C166.129 192.472 167.361 194.248 167.361 196.568V197.048H161.312C161.393 198.808 162.401 199.928 163.857 199.928C164.977 199.928 165.777 199.32 166.033 198.328L167.297 198.776C166.785 200.264 165.521 201.176 163.857 201.176ZM163.777 193.704C162.561 193.704 161.649 194.52 161.393 195.944H165.905C165.873 194.76 165.233 193.704 163.777 193.704ZM168.645 201V199.112H170.469V201.096C170.469 202.344 169.669 203.096 168.389 203.128V202.296C169.109 202.264 169.477 201.896 169.477 201.128V201H168.645ZM175.855 191.176V189.512H177.423V191.176H175.855ZM177.359 192.632V201H175.919V192.632H177.359ZM179.763 201V192.632H181.203V193.768C181.683 193.08 182.515 192.472 183.699 192.472C185.475 192.472 186.483 193.704 186.483 195.48V201H185.043V195.864C185.043 194.696 184.547 193.816 183.299 193.816C182.259 193.816 181.203 194.616 181.203 196.008V201H179.763ZM188.41 196.984V195.688H192.778V196.984H188.41ZM193.866 199.224L194.986 198.408C195.434 199.384 196.458 199.976 197.546 199.976C198.522 199.976 199.386 199.56 199.386 198.648C199.386 197.736 198.586 197.608 197.21 197.32C195.834 197.016 194.394 196.712 194.394 195C194.394 193.512 195.69 192.472 197.466 192.472C198.97 192.472 200.202 193.208 200.698 194.2L199.674 195.016C199.242 194.184 198.458 193.656 197.402 193.656C196.442 193.656 195.802 194.136 195.802 194.888C195.802 195.672 196.538 195.816 197.706 196.072C199.146 196.408 200.794 196.696 200.794 198.52C200.794 200.12 199.338 201.176 197.546 201.176C196.026 201.176 194.506 200.52 193.866 199.224ZM202.799 199V193.864H201.503V192.632H202.799V190.184H204.223V192.632H206.127V193.864H204.223V198.776C204.223 199.656 204.655 199.816 205.391 199.816C205.727 199.816 205.967 199.8 206.303 199.72V200.952C205.935 201.032 205.519 201.08 205.039 201.08C203.615 201.08 202.799 200.6 202.799 199ZM215.166 196.824C215.166 199.416 213.566 201.176 211.278 201.176C208.99 201.176 207.39 199.416 207.39 196.824C207.39 194.232 208.99 192.472 211.278 192.472C213.566 192.472 215.166 194.232 215.166 196.824ZM208.846 196.824C208.846 198.728 209.806 199.944 211.278 199.944C212.75 199.944 213.71 198.728 213.71 196.824C213.71 194.904 212.75 193.688 211.278 193.688C209.806 193.688 208.846 194.904 208.846 196.824ZM221.333 192.6V194.056C221.093 194.008 220.901 193.992 220.629 193.992C219.413 193.992 218.437 194.952 218.437 196.424V201H216.997V192.632H218.437V194.056C218.805 193.208 219.621 192.568 220.757 192.568C220.981 192.568 221.189 192.584 221.333 192.6ZM225.919 201.176C223.599 201.176 221.999 199.4 221.999 196.824C221.999 194.328 223.583 192.472 225.855 192.472C228.191 192.472 229.423 194.248 229.423 196.568V197.048H223.375C223.455 198.808 224.463 199.928 225.919 199.928C227.039 199.928 227.839 199.32 228.095 198.328L229.359 198.776C228.847 200.264 227.583 201.176 225.919 201.176ZM225.839 193.704C224.623 193.704 223.711 194.52 223.455 195.944H227.967C227.935 194.76 227.295 193.704 225.839 193.704ZM236.687 201.144C235.167 201.144 233.935 200.248 233.935 198.744C233.935 197.08 235.231 196.392 237.103 196.008L239.135 195.592V195.24C239.135 194.28 238.607 193.736 237.487 193.736C236.431 193.736 235.807 194.232 235.551 195.16L234.191 194.808C234.591 193.448 235.823 192.472 237.535 192.472C239.407 192.472 240.559 193.384 240.559 195.176V199.256C240.559 199.8 240.895 199.976 241.455 199.848V201C240.175 201.16 239.439 200.856 239.263 200.056C238.751 200.712 237.823 201.144 236.687 201.144ZM239.135 198.152V196.712L237.503 197.064C236.223 197.32 235.359 197.672 235.359 198.68C235.359 199.496 235.951 199.976 236.863 199.976C238.095 199.976 239.135 199.224 239.135 198.152ZM243.013 201V192.632H244.453V193.768C244.933 193.08 245.765 192.472 246.949 192.472C248.725 192.472 249.733 193.704 249.733 195.48V201H248.293V195.864C248.293 194.696 247.797 193.816 246.549 193.816C245.509 193.816 244.453 194.616 244.453 196.008V201H243.013ZM255.116 201.176C252.796 201.176 251.468 199.192 251.468 196.824C251.468 194.44 252.796 192.472 255.116 192.472C256.284 192.472 257.212 193.032 257.708 193.848V189.512H259.148V201H257.708V199.784C257.212 200.616 256.284 201.176 255.116 201.176ZM257.74 196.536C257.74 194.584 256.556 193.736 255.372 193.736C253.804 193.736 252.924 195.016 252.924 196.824C252.924 198.616 253.804 199.912 255.372 199.912C256.556 199.912 257.74 199.048 257.74 197.128V196.536ZM266.999 201.144C265.479 201.144 264.247 200.248 264.247 198.744C264.247 197.08 265.543 196.392 267.415 196.008L269.447 195.592V195.24C269.447 194.28 268.919 193.736 267.799 193.736C266.743 193.736 266.119 194.232 265.863 195.16L264.503 194.808C264.903 193.448 266.135 192.472 267.847 192.472C269.719 192.472 270.871 193.384 270.871 195.176V199.256C270.871 199.8 271.207 199.976 271.767 199.848V201C270.487 201.16 269.751 200.856 269.575 200.056C269.063 200.712 268.135 201.144 266.999 201.144ZM269.447 198.152V196.712L267.815 197.064C266.535 197.32 265.671 197.672 265.671 198.68C265.671 199.496 266.263 199.976 267.175 199.976C268.407 199.976 269.447 199.224 269.447 198.152ZM277.357 201.176C276.189 201.176 275.261 200.616 274.765 199.784V201H273.325V189.512H274.765V193.848C275.261 193.032 276.189 192.472 277.357 192.472C279.677 192.472 281.005 194.44 281.005 196.824C281.005 199.192 279.677 201.176 277.357 201.176ZM274.733 196.536V197.128C274.733 199.048 275.917 199.912 277.101 199.912C278.669 199.912 279.549 198.616 279.549 196.824C279.549 195.016 278.669 193.736 277.101 193.736C275.917 193.736 274.733 194.584 274.733 196.536ZM287.161 192.6V194.056C286.921 194.008 286.729 193.992 286.457 193.992C285.241 193.992 284.265 194.952 284.265 196.424V201H282.825V192.632H284.265V194.056C284.633 193.208 285.449 192.568 286.585 192.568C286.809 192.568 287.017 192.584 287.161 192.6ZM295.603 196.824C295.603 199.416 294.003 201.176 291.715 201.176C289.427 201.176 287.827 199.416 287.827 196.824C287.827 194.232 289.427 192.472 291.715 192.472C294.003 192.472 295.603 194.232 295.603 196.824ZM289.283 196.824C289.283 198.728 290.243 199.944 291.715 199.944C293.187 199.944 294.147 198.728 294.147 196.824C294.147 194.904 293.187 193.688 291.715 193.688C290.243 193.688 289.283 194.904 289.283 196.824ZM299.53 201.144C298.01 201.144 296.778 200.248 296.778 198.744C296.778 197.08 298.074 196.392 299.946 196.008L301.978 195.592V195.24C301.978 194.28 301.45 193.736 300.33 193.736C299.274 193.736 298.65 194.232 298.394 195.16L297.034 194.808C297.434 193.448 298.666 192.472 300.378 192.472C302.25 192.472 303.402 193.384 303.402 195.176V199.256C303.402 199.8 303.738 199.976 304.298 199.848V201C303.018 201.16 302.282 200.856 302.106 200.056C301.594 200.712 300.666 201.144 299.53 201.144ZM301.978 198.152V196.712L300.346 197.064C299.066 197.32 298.202 197.672 298.202 198.68C298.202 199.496 298.794 199.976 299.706 199.976C300.938 199.976 301.978 199.224 301.978 198.152ZM308.928 201.176C306.608 201.176 305.28 199.192 305.28 196.824C305.28 194.44 306.608 192.472 308.928 192.472C310.096 192.472 311.024 193.032 311.52 193.848V189.512H312.96V201H311.52V199.784C311.024 200.616 310.096 201.176 308.928 201.176ZM311.552 196.536C311.552 194.584 310.368 193.736 309.184 193.736C307.616 193.736 306.736 195.016 306.736 196.824C306.736 198.616 307.616 199.912 309.184 199.912C310.368 199.912 311.552 199.048 311.552 197.128V196.536ZM32.184 216.632H33.4L35.128 222.872L36.872 216.632H38.312L35.768 225H34.504L32.76 218.792L31.016 225H29.752L27.208 216.632H28.696L30.456 222.856L32.184 216.632ZM39.7156 225V213.512H41.1556V217.768C41.6356 217.08 42.4676 216.472 43.6516 216.472C45.4276 216.472 46.4356 217.704 46.4356 219.48V225H44.9956V219.864C44.9956 218.696 44.4996 217.816 43.2516 217.816C42.2116 217.816 41.1556 218.616 41.1556 220.008V225H39.7156ZM48.6829 215.176V213.512H50.2509V215.176H48.6829ZM50.1869 216.632V225H48.7469V216.632H50.1869ZM54.0306 213.512V225H52.5906V213.512H54.0306ZM59.7784 225.176C57.4584 225.176 55.8584 223.4 55.8584 220.824C55.8584 218.328 57.4424 216.472 59.7144 216.472C62.0504 216.472 63.2824 218.248 63.2824 220.568V221.048H57.2344C57.3144 222.808 58.3224 223.928 59.7784 223.928C60.8984 223.928 61.6984 223.32 61.9544 222.328L63.2184 222.776C62.7064 224.264 61.4424 225.176 59.7784 225.176ZM59.6984 217.704C58.4824 217.704 57.5704 218.52 57.3144 219.944H61.8264C61.7944 218.76 61.1544 217.704 59.6984 217.704ZM67.522 223.224L68.642 222.408C69.09 223.384 70.114 223.976 71.202 223.976C72.178 223.976 73.042 223.56 73.042 222.648C73.042 221.736 72.242 221.608 70.866 221.32C69.49 221.016 68.05 220.712 68.05 219C68.05 217.512 69.346 216.472 71.122 216.472C72.626 216.472 73.858 217.208 74.354 218.2L73.33 219.016C72.898 218.184 72.114 217.656 71.058 217.656C70.098 217.656 69.458 218.136 69.458 218.888C69.458 219.672 70.194 219.816 71.362 220.072C72.802 220.408 74.45 220.696 74.45 222.52C74.45 224.12 72.994 225.176 71.202 225.176C69.682 225.176 68.162 224.52 67.522 223.224ZM78.3273 225.144C76.8073 225.144 75.5753 224.248 75.5753 222.744C75.5753 221.08 76.8713 220.392 78.7433 220.008L80.7753 219.592V219.24C80.7753 218.28 80.2473 217.736 79.1273 217.736C78.0713 217.736 77.4473 218.232 77.1913 219.16L75.8313 218.808C76.2313 217.448 77.4633 216.472 79.1753 216.472C81.0473 216.472 82.1993 217.384 82.1993 219.176V223.256C82.1993 223.8 82.5353 223.976 83.0953 223.848V225C81.8153 225.16 81.0793 224.856 80.9033 224.056C80.3913 224.712 79.4633 225.144 78.3273 225.144ZM80.7753 222.152V220.712L79.1432 221.064C77.8633 221.32 76.9993 221.672 76.9993 222.68C76.9993 223.496 77.5913 223.976 78.5033 223.976C79.7352 223.976 80.7753 223.224 80.7753 222.152ZM88.018 225H86.594L83.458 216.632H84.978L87.33 223.24L89.65 216.632H91.154L88.018 225ZM92.4954 215.176V213.512H94.0634V215.176H92.4954ZM93.9994 216.632V225H92.5594V216.632H93.9994ZM96.4031 225V216.632H97.8431V217.768C98.3231 217.08 99.1551 216.472 100.339 216.472C102.115 216.472 103.123 217.704 103.123 219.48V225H101.683V219.864C101.683 218.696 101.187 217.816 99.9391 217.816C98.8991 217.816 97.8431 218.616 97.8431 220.008V225H96.4031ZM112.522 224.248C112.522 226.696 110.906 228.056 108.634 228.056C106.794 228.056 105.45 227.208 104.986 225.672L106.33 225.16C106.602 226.232 107.466 226.856 108.634 226.856C110.106 226.856 111.082 226.104 111.082 224.36V223.416C110.634 224.232 109.69 224.808 108.522 224.808C106.234 224.808 104.89 222.92 104.89 220.632C104.89 218.36 106.234 216.472 108.522 216.472C109.674 216.472 110.634 217.048 111.082 217.864V216.632H112.522V224.248ZM111.098 220.504C111.098 218.632 109.978 217.736 108.778 217.736C107.258 217.736 106.33 218.872 106.33 220.632C106.33 222.392 107.258 223.544 108.778 223.544C109.978 223.544 111.098 222.648 111.098 220.808V220.504ZM125.494 220.824C125.494 223.416 123.894 225.176 121.606 225.176C119.318 225.176 117.718 223.416 117.718 220.824C117.718 218.232 119.318 216.472 121.606 216.472C123.894 216.472 125.494 218.232 125.494 220.824ZM119.174 220.824C119.174 222.728 120.134 223.944 121.606 223.944C123.078 223.944 124.038 222.728 124.038 220.824C124.038 218.904 123.078 217.688 121.606 217.688C120.134 217.688 119.174 218.904 119.174 220.824ZM127.325 225V216.632H128.765V217.768C129.245 217.08 130.077 216.472 131.261 216.472C133.037 216.472 134.045 217.704 134.045 219.48V225H132.605V219.864C132.605 218.696 132.109 217.816 130.861 217.816C129.821 217.816 128.765 218.616 128.765 220.008V225H127.325ZM140.595 220.824C140.595 222.728 141.619 223.912 143.107 223.912C144.259 223.912 144.947 223.176 145.187 222.136L146.467 222.728C146.067 224.12 144.851 225.176 143.107 225.176C140.771 225.176 139.155 223.4 139.155 220.824C139.155 218.232 140.771 216.472 143.107 216.472C144.851 216.472 146.035 217.48 146.435 218.872L145.187 219.496C144.947 218.472 144.259 217.72 143.107 217.72C141.619 217.72 140.595 218.904 140.595 220.824ZM154.684 216.632V225H153.244V223.848C152.764 224.552 151.948 225.176 150.764 225.176C148.972 225.176 147.964 223.944 147.964 222.168V216.632H149.404V221.864C149.404 223.048 149.916 223.848 151.148 223.848C152.188 223.848 153.244 223.064 153.244 221.672V216.632H154.684ZM161.411 216.6V218.056C161.171 218.008 160.979 217.992 160.707 217.992C159.491 217.992 158.515 218.952 158.515 220.424V225H157.075V216.632H158.515V218.056C158.883 217.208 159.699 216.568 160.835 216.568C161.059 216.568 161.267 216.584 161.411 216.6ZM167.333 216.6V218.056C167.093 218.008 166.901 217.992 166.629 217.992C165.413 217.992 164.437 218.952 164.437 220.424V225H162.997V216.632H164.437V218.056C164.805 217.208 165.621 216.568 166.757 216.568C166.981 216.568 167.189 216.584 167.333 216.6ZM171.919 225.176C169.599 225.176 167.999 223.4 167.999 220.824C167.999 218.328 169.583 216.472 171.855 216.472C174.191 216.472 175.423 218.248 175.423 220.568V221.048H169.375C169.455 222.808 170.463 223.928 171.919 223.928C173.039 223.928 173.839 223.32 174.095 222.328L175.359 222.776C174.847 224.264 173.583 225.176 171.919 225.176ZM171.839 217.704C170.623 217.704 169.711 218.52 169.455 219.944H173.967C173.935 218.76 173.295 217.704 171.839 217.704ZM177.216 225V216.632H178.656V217.768C179.136 217.08 179.968 216.472 181.152 216.472C182.928 216.472 183.936 217.704 183.936 219.48V225H182.496V219.864C182.496 218.696 182 217.816 180.752 217.816C179.712 217.816 178.656 218.616 178.656 220.008V225H177.216ZM187.111 220.824C187.111 222.728 188.135 223.912 189.623 223.912C190.775 223.912 191.463 223.176 191.703 222.136L192.983 222.728C192.583 224.12 191.367 225.176 189.623 225.176C187.287 225.176 185.671 223.4 185.671 220.824C185.671 218.232 187.287 216.472 189.623 216.472C191.367 216.472 192.551 217.48 192.951 218.872L191.703 219.496C191.463 218.472 190.775 217.72 189.623 217.72C188.135 217.72 187.111 218.904 187.111 220.824ZM197.601 225.912C197.121 227.176 196.465 227.976 195.009 227.976C194.657 227.976 194.481 227.96 194.225 227.912V226.664C194.497 226.728 194.673 226.744 194.913 226.744C195.537 226.744 195.873 226.52 196.209 225.688L196.609 224.696L193.505 216.632H195.025L197.377 223.032L199.697 216.632H201.201L197.601 225.912ZM206.845 220.824C206.845 222.728 207.869 223.912 209.357 223.912C210.509 223.912 211.197 223.176 211.437 222.136L212.717 222.728C212.317 224.12 211.101 225.176 209.357 225.176C207.021 225.176 205.405 223.4 205.405 220.824C205.405 218.232 207.021 216.472 209.357 216.472C211.101 216.472 212.285 217.48 212.685 218.872L211.437 219.496C211.197 218.472 210.509 217.72 209.357 217.72C207.869 217.72 206.845 218.904 206.845 220.824ZM221.494 220.824C221.494 223.416 219.894 225.176 217.606 225.176C215.318 225.176 213.718 223.416 213.718 220.824C213.718 218.232 215.318 216.472 217.606 216.472C219.894 216.472 221.494 218.232 221.494 220.824ZM215.174 220.824C215.174 222.728 216.134 223.944 217.606 223.944C219.078 223.944 220.038 222.728 220.038 220.824C220.038 218.904 219.078 217.688 217.606 217.688C216.134 217.688 215.174 218.904 215.174 220.824ZM223.325 225V216.632H224.765V217.768C225.245 217.08 226.077 216.472 227.261 216.472C229.037 216.472 230.045 217.704 230.045 219.48V225H228.605V219.864C228.605 218.696 228.109 217.816 226.861 217.816C225.821 217.816 224.765 218.616 224.765 220.008V225H223.325ZM235.799 225H234.375L231.239 216.632H232.759L235.111 223.24L237.431 216.632H238.935L235.799 225ZM243.466 225.176C241.146 225.176 239.546 223.4 239.546 220.824C239.546 218.328 241.13 216.472 243.402 216.472C245.738 216.472 246.97 218.248 246.97 220.568V221.048H240.922C241.002 222.808 242.01 223.928 243.466 223.928C244.586 223.928 245.386 223.32 245.642 222.328L246.906 222.776C246.394 224.264 245.13 225.176 243.466 225.176ZM243.386 217.704C242.17 217.704 241.258 218.52 241.002 219.944H245.514C245.482 218.76 244.842 217.704 243.386 217.704ZM253.099 216.6V218.056C252.859 218.008 252.667 217.992 252.395 217.992C251.179 217.992 250.203 218.952 250.203 220.424V225H248.763V216.632H250.203V218.056C250.571 217.208 251.387 216.568 252.523 216.568C252.747 216.568 252.955 216.584 253.099 216.6ZM253.6 223.224L254.72 222.408C255.168 223.384 256.192 223.976 257.28 223.976C258.256 223.976 259.12 223.56 259.12 222.648C259.12 221.736 258.32 221.608 256.944 221.32C255.568 221.016 254.128 220.712 254.128 219C254.128 217.512 255.424 216.472 257.2 216.472C258.704 216.472 259.936 217.208 260.432 218.2L259.408 219.016C258.976 218.184 258.192 217.656 257.136 217.656C256.176 217.656 255.536 218.136 255.536 218.888C255.536 219.672 256.272 219.816 257.44 220.072C258.88 220.408 260.528 220.696 260.528 222.52C260.528 224.12 259.072 225.176 257.28 225.176C255.76 225.176 254.24 224.52 253.6 223.224ZM262.245 215.176V213.512H263.813V215.176H262.245ZM263.749 216.632V225H262.309V216.632H263.749ZM273.353 220.824C273.353 223.416 271.753 225.176 269.465 225.176C267.177 225.176 265.577 223.416 265.577 220.824C265.577 218.232 267.177 216.472 269.465 216.472C271.753 216.472 273.353 218.232 273.353 220.824ZM267.033 220.824C267.033 222.728 267.993 223.944 269.465 223.944C270.937 223.944 271.897 222.728 271.897 220.824C271.897 218.904 270.937 217.688 269.465 217.688C267.993 217.688 267.033 218.904 267.033 220.824ZM275.184 225V216.632H276.624V217.768C277.104 217.08 277.936 216.472 279.12 216.472C280.896 216.472 281.904 217.704 281.904 219.48V225H280.464V219.864C280.464 218.696 279.968 217.816 278.72 217.816C277.68 217.816 276.624 218.616 276.624 220.008V225H275.184ZM31.848 237.368V238.648C31.608 238.616 31.464 238.616 31.224 238.616C30.376 238.616 29.912 238.984 29.912 240.056V240.632H31.768V241.864H29.912V249H28.472V241.864H27.208V240.632H28.472V239.96C28.472 238.328 29.368 237.336 31.08 237.336C31.368 237.336 31.528 237.352 31.848 237.368ZM36.4034 249.176C34.0834 249.176 32.4834 247.4 32.4834 244.824C32.4834 242.328 34.0674 240.472 36.3394 240.472C38.6754 240.472 39.9074 242.248 39.9074 244.568V245.048H33.8594C33.9394 246.808 34.9474 247.928 36.4034 247.928C37.5234 247.928 38.3234 247.32 38.5794 246.328L39.8434 246.776C39.3314 248.264 38.0674 249.176 36.4034 249.176ZM36.3234 241.704C35.1074 241.704 34.1954 242.52 33.9394 243.944H38.4514C38.4194 242.76 37.7794 241.704 36.3234 241.704ZM45.044 249.176C42.724 249.176 41.124 247.4 41.124 244.824C41.124 242.328 42.708 240.472 44.98 240.472C47.316 240.472 48.548 242.248 48.548 244.568V245.048H42.5C42.58 246.808 43.588 247.928 45.044 247.928C46.164 247.928 46.964 247.32 47.22 246.328L48.484 246.776C47.972 248.264 46.708 249.176 45.044 249.176ZM44.964 241.704C43.748 241.704 42.836 242.52 42.58 243.944H47.092C47.06 242.76 46.42 241.704 44.964 241.704ZM49.4126 247.224L50.5326 246.408C50.9806 247.384 52.0046 247.976 53.0926 247.976C54.0686 247.976 54.9326 247.56 54.9326 246.648C54.9326 245.736 54.1326 245.608 52.7566 245.32C51.3806 245.016 49.9406 244.712 49.9406 243C49.9406 241.512 51.2366 240.472 53.0126 240.472C54.5166 240.472 55.7486 241.208 56.2446 242.2L55.2206 243.016C54.7886 242.184 54.0046 241.656 52.9486 241.656C51.9886 241.656 51.3486 242.136 51.3486 242.888C51.3486 243.672 52.0846 243.816 53.2526 244.072C54.6926 244.408 56.3406 244.696 56.3406 246.52C56.3406 248.12 54.8846 249.176 53.0926 249.176C51.5726 249.176 50.0526 248.52 49.4126 247.224ZM57.6296 249V247.112H59.4536V249.096C59.4536 250.344 58.6536 251.096 57.3736 251.128V250.296C58.0936 250.264 58.4616 249.896 58.4616 249.128V249H57.6296ZM68.8871 240.632H70.1031L71.8311 246.872L73.5751 240.632H75.0151L72.4711 249H71.2071L69.4631 242.792L67.7191 249H66.4551L63.9111 240.632H65.3991L67.1591 246.856L68.8871 240.632ZM76.3548 239.176V237.512H77.9228V239.176H76.3548ZM77.8588 240.632V249H76.4188V240.632H77.8588ZM80.4865 247V241.864H79.1905V240.632H80.4865V238.184H81.9105V240.632H83.8145V241.864H81.9105V246.776C81.9105 247.656 82.3425 247.816 83.0785 247.816C83.4145 247.816 83.6545 247.8 83.9905 247.72V248.952C83.6225 249.032 83.2065 249.08 82.7265 249.08C81.3025 249.08 80.4865 248.6 80.4865 247ZM85.7 249V237.512H87.14V241.768C87.62 241.08 88.452 240.472 89.636 240.472C91.412 240.472 92.42 241.704 92.42 243.48V249H90.98V243.864C90.98 242.696 90.484 241.816 89.236 241.816C88.196 241.816 87.14 242.616 87.14 244.008V249H85.7ZM98.3303 247V241.864H97.0343V240.632H98.3303V238.184H99.7543V240.632H101.658V241.864H99.7543V246.776C99.7543 247.656 100.186 247.816 100.922 247.816C101.258 247.816 101.498 247.8 101.834 247.72V248.952C101.466 249.032 101.05 249.08 100.57 249.08C99.1463 249.08 98.3303 248.6 98.3303 247ZM103.544 249V237.512H104.984V241.768C105.464 241.08 106.296 240.472 107.48 240.472C109.256 240.472 110.264 241.704 110.264 243.48V249H108.824V243.864C108.824 242.696 108.328 241.816 107.08 241.816C106.04 241.816 104.984 242.616 104.984 244.008V249H103.544ZM115.919 249.176C113.599 249.176 111.999 247.4 111.999 244.824C111.999 242.328 113.583 240.472 115.855 240.472C118.191 240.472 119.423 242.248 119.423 244.568V245.048H113.375C113.455 246.808 114.463 247.928 115.919 247.928C117.039 247.928 117.839 247.32 118.095 246.328L119.359 246.776C118.847 248.264 117.583 249.176 115.919 249.176ZM115.839 241.704C114.623 241.704 113.711 242.52 113.455 243.944H117.967C117.935 242.76 117.295 241.704 115.839 241.704ZM127.935 249.176C125.615 249.176 124.015 247.4 124.015 244.824C124.015 242.328 125.599 240.472 127.871 240.472C130.207 240.472 131.439 242.248 131.439 244.568V245.048H125.391C125.471 246.808 126.479 247.928 127.935 247.928C129.055 247.928 129.855 247.32 130.111 246.328L131.375 246.776C130.863 248.264 129.599 249.176 127.935 249.176ZM127.855 241.704C126.639 241.704 125.727 242.52 125.471 243.944H129.983C129.951 242.76 129.311 241.704 127.855 241.704ZM138.04 249L135.72 245.704L133.416 249H131.848L134.904 244.632L132.104 240.632H133.752L135.768 243.56L137.816 240.632H139.4L136.6 244.632L139.672 249H138.04ZM141.237 247V241.864H139.941V240.632H141.237V238.184H142.661V240.632H144.565V241.864H142.661V246.776C142.661 247.656 143.093 247.816 143.829 247.816C144.165 247.816 144.405 247.8 144.741 247.72V248.952C144.373 249.032 143.957 249.08 143.477 249.08C142.053 249.08 141.237 248.6 141.237 247ZM150.786 240.6V242.056C150.546 242.008 150.354 241.992 150.082 241.992C148.866 241.992 147.89 242.952 147.89 244.424V249H146.45V240.632H147.89V242.056C148.258 241.208 149.074 240.568 150.21 240.568C150.434 240.568 150.642 240.584 150.786 240.6ZM154.296 249.144C152.776 249.144 151.544 248.248 151.544 246.744C151.544 245.08 152.84 244.392 154.712 244.008L156.744 243.592V243.24C156.744 242.28 156.216 241.736 155.096 241.736C154.04 241.736 153.416 242.232 153.16 243.16L151.8 242.808C152.2 241.448 153.432 240.472 155.144 240.472C157.016 240.472 158.168 241.384 158.168 243.176V247.256C158.168 247.8 158.504 247.976 159.064 247.848V249C157.784 249.16 157.048 248.856 156.872 248.056C156.36 248.712 155.432 249.144 154.296 249.144ZM156.744 246.152V244.712L155.112 245.064C153.832 245.32 152.968 245.672 152.968 246.68C152.968 247.496 153.56 247.976 154.472 247.976C155.704 247.976 156.744 247.224 156.744 246.152ZM165.437 237.512V249H163.997V237.512H165.437ZM169.937 249.144C168.417 249.144 167.185 248.248 167.185 246.744C167.185 245.08 168.481 244.392 170.353 244.008L172.385 243.592V243.24C172.385 242.28 171.857 241.736 170.737 241.736C169.681 241.736 169.057 242.232 168.801 243.16L167.441 242.808C167.841 241.448 169.073 240.472 170.785 240.472C172.657 240.472 173.809 241.384 173.809 243.176V247.256C173.809 247.8 174.145 247.976 174.705 247.848V249C173.425 249.16 172.689 248.856 172.513 248.056C172.001 248.712 171.073 249.144 169.937 249.144ZM172.385 246.152V244.712L170.753 245.064C169.473 245.32 168.609 245.672 168.609 246.68C168.609 247.496 169.201 247.976 170.113 247.976C171.345 247.976 172.385 247.224 172.385 246.152ZM179.273 249.912C178.793 251.176 178.137 251.976 176.681 251.976C176.329 251.976 176.153 251.96 175.897 251.912V250.664C176.169 250.728 176.345 250.744 176.585 250.744C177.209 250.744 177.545 250.52 177.881 249.688L178.281 248.696L175.177 240.632H176.697L179.049 247.032L181.369 240.632H182.873L179.273 249.912ZM187.31 249.176C184.99 249.176 183.39 247.4 183.39 244.824C183.39 242.328 184.974 240.472 187.246 240.472C189.582 240.472 190.814 242.248 190.814 244.568V245.048H184.766C184.846 246.808 185.854 247.928 187.31 247.928C188.43 247.928 189.23 247.32 189.486 246.328L190.75 246.776C190.238 248.264 188.974 249.176 187.31 249.176ZM187.23 241.704C186.014 241.704 185.102 242.52 184.846 243.944H189.358C189.326 242.76 188.686 241.704 187.23 241.704ZM196.942 240.6V242.056C196.702 242.008 196.51 241.992 196.238 241.992C195.022 241.992 194.046 242.952 194.046 244.424V249H192.606V240.632H194.046V242.056C194.414 241.208 195.23 240.568 196.366 240.568C196.59 240.568 196.798 240.584 196.942 240.6ZM209.103 244.824C209.103 247.416 207.503 249.176 205.215 249.176C202.927 249.176 201.327 247.416 201.327 244.824C201.327 242.232 202.927 240.472 205.215 240.472C207.503 240.472 209.103 242.232 209.103 244.824ZM202.783 244.824C202.783 246.728 203.743 247.944 205.215 247.944C206.687 247.944 207.647 246.728 207.647 244.824C207.647 242.904 206.687 241.688 205.215 241.688C203.743 241.688 202.783 242.904 202.783 244.824ZM214.582 237.368V238.648C214.342 238.616 214.198 238.616 213.958 238.616C213.11 238.616 212.646 238.984 212.646 240.056V240.632H214.502V241.864H212.646V249H211.206V241.864H209.942V240.632H211.206V239.96C211.206 238.328 212.102 237.336 213.814 237.336C214.102 237.336 214.262 237.352 214.582 237.368ZM218.288 247.224L219.408 246.408C219.856 247.384 220.88 247.976 221.968 247.976C222.944 247.976 223.808 247.56 223.808 246.648C223.808 245.736 223.008 245.608 221.632 245.32C220.256 245.016 218.816 244.712 218.816 243C218.816 241.512 220.112 240.472 221.888 240.472C223.392 240.472 224.624 241.208 225.12 242.2L224.096 243.016C223.664 242.184 222.88 241.656 221.824 241.656C220.864 241.656 220.224 242.136 220.224 242.888C220.224 243.672 220.96 243.816 222.128 244.072C223.568 244.408 225.216 244.696 225.216 246.52C225.216 248.12 223.76 249.176 221.968 249.176C220.448 249.176 218.928 248.52 218.288 247.224ZM230.341 249.176C228.021 249.176 226.421 247.4 226.421 244.824C226.421 242.328 228.005 240.472 230.277 240.472C232.613 240.472 233.845 242.248 233.845 244.568V245.048H227.797C227.877 246.808 228.885 247.928 230.341 247.928C231.461 247.928 232.261 247.32 232.517 246.328L233.781 246.776C233.269 248.264 232.005 249.176 230.341 249.176ZM230.261 241.704C229.045 241.704 228.133 242.52 227.877 243.944H232.389C232.357 242.76 231.717 241.704 230.261 241.704ZM236.502 244.824C236.502 246.728 237.526 247.912 239.014 247.912C240.166 247.912 240.854 247.176 241.094 246.136L242.374 246.728C241.974 248.12 240.758 249.176 239.014 249.176C236.678 249.176 235.062 247.4 235.062 244.824C235.062 242.232 236.678 240.472 239.014 240.472C240.758 240.472 241.942 241.48 242.342 242.872L241.094 243.496C240.854 242.472 240.166 241.72 239.014 241.72C237.526 241.72 236.502 242.904 236.502 244.824ZM250.59 240.632V249H249.15V247.848C248.67 248.552 247.854 249.176 246.67 249.176C244.878 249.176 243.87 247.944 243.87 246.168V240.632H245.31V245.864C245.31 247.048 245.822 247.848 247.054 247.848C248.094 247.848 249.15 247.064 249.15 245.672V240.632H250.59ZM257.317 240.6V242.056C257.077 242.008 256.885 241.992 256.613 241.992C255.397 241.992 254.421 242.952 254.421 244.424V249H252.981V240.632H254.421V242.056C254.789 241.208 255.605 240.568 256.741 240.568C256.965 240.568 257.173 240.584 257.317 240.6ZM258.839 239.176V237.512H260.407V239.176H258.839ZM260.343 240.632V249H258.903V240.632H260.343ZM262.971 247V241.864H261.675V240.632H262.971V238.184H264.395V240.632H266.299V241.864H264.395V246.776C264.395 247.656 264.827 247.816 265.563 247.816C265.899 247.816 266.139 247.8 266.475 247.72V248.952C266.107 249.032 265.691 249.08 265.211 249.08C263.787 249.08 262.971 248.6 262.971 247ZM271.257 249.912C270.777 251.176 270.121 251.976 268.665 251.976C268.313 251.976 268.137 251.96 267.881 251.912V250.664C268.153 250.728 268.329 250.744 268.569 250.744C269.193 250.744 269.529 250.52 269.865 249.688L270.265 248.696L267.161 240.632H268.681L271.033 247.032L273.353 240.632H274.857L271.257 249.912ZM286.838 244.824C286.838 247.416 285.238 249.176 282.95 249.176C280.662 249.176 279.062 247.416 279.062 244.824C279.062 242.232 280.662 240.472 282.95 240.472C285.238 240.472 286.838 242.232 286.838 244.824ZM280.518 244.824C280.518 246.728 281.478 247.944 282.95 247.944C284.422 247.944 285.382 246.728 285.382 244.824C285.382 242.904 284.422 241.688 282.95 241.688C281.478 241.688 280.518 242.904 280.518 244.824ZM292.317 237.368V238.648C292.077 238.616 291.933 238.616 291.693 238.616C290.845 238.616 290.381 238.984 290.381 240.056V240.632H292.237V241.864H290.381V249H288.941V241.864H287.677V240.632H288.941V239.96C288.941 238.328 289.837 237.336 291.549 237.336C291.837 237.336 291.997 237.352 292.317 237.368ZM35.4 268.824C35.4 271.416 33.8 273.176 31.512 273.176C29.224 273.176 27.624 271.416 27.624 268.824C27.624 266.232 29.224 264.472 31.512 264.472C33.8 264.472 35.4 266.232 35.4 268.824ZM29.08 268.824C29.08 270.728 30.04 271.944 31.512 271.944C32.984 271.944 33.944 270.728 33.944 268.824C33.944 266.904 32.984 265.688 31.512 265.688C30.04 265.688 29.08 266.904 29.08 268.824ZM43.8713 264.632V273H42.4313V271.848C41.9513 272.552 41.1353 273.176 39.9513 273.176C38.1593 273.176 37.1513 271.944 37.1513 270.168V264.632H38.5913V269.864C38.5913 271.048 39.1033 271.848 40.3353 271.848C41.3753 271.848 42.4313 271.064 42.4313 269.672V264.632H43.8713ZM50.5985 264.6V266.056C50.3585 266.008 50.1665 265.992 49.8945 265.992C48.6785 265.992 47.7025 266.952 47.7025 268.424V273H46.2625V264.632H47.7025V266.056C48.0705 265.208 48.8865 264.568 50.0225 264.568C50.2465 264.568 50.4545 264.584 50.5985 264.6ZM59.1274 273H57.7034L54.5674 264.632H56.0874L58.4394 271.24L60.7594 264.632H62.2634L59.1274 273ZM63.6048 263.176V261.512H65.1728V263.176H63.6048ZM65.1088 264.632V273H63.6688V264.632H65.1088ZM71.8485 264.6V266.056C71.6085 266.008 71.4165 265.992 71.1445 265.992C69.9285 265.992 68.9525 266.952 68.9525 268.424V273H67.5125V264.632H68.9525V266.056C69.3205 265.208 70.1365 264.568 71.2725 264.568C71.4965 264.568 71.7045 264.584 71.8485 264.6ZM73.7521 271V265.864H72.4561V264.632H73.7521V262.184H75.1761V264.632H77.0801V265.864H75.1761V270.776C75.1761 271.656 75.6081 271.816 76.3441 271.816C76.6801 271.816 76.9201 271.8 77.2561 271.72V272.952C76.8881 273.032 76.4721 273.08 75.9921 273.08C74.5681 273.08 73.7521 272.6 73.7521 271ZM85.5275 264.632V273H84.0875V271.848C83.6075 272.552 82.7915 273.176 81.6075 273.176C79.8155 273.176 78.8075 271.944 78.8075 270.168V264.632H80.2475V269.864C80.2475 271.048 80.7595 271.848 81.9915 271.848C83.0315 271.848 84.0875 271.064 84.0875 269.672V264.632H85.5275ZM90.0148 273.144C88.4948 273.144 87.2628 272.248 87.2628 270.744C87.2628 269.08 88.5588 268.392 90.4308 268.008L92.4628 267.592V267.24C92.4628 266.28 91.9348 265.736 90.8148 265.736C89.7588 265.736 89.1348 266.232 88.8788 267.16L87.5188 266.808C87.9188 265.448 89.1508 264.472 90.8628 264.472C92.7348 264.472 93.8868 265.384 93.8868 267.176V271.256C93.8868 271.8 94.2228 271.976 94.7828 271.848V273C93.5028 273.16 92.7668 272.856 92.5908 272.056C92.0788 272.712 91.1508 273.144 90.0148 273.144ZM92.4628 270.152V268.712L90.8307 269.064C89.5508 269.32 88.6868 269.672 88.6868 270.68C88.6868 271.496 89.2788 271.976 90.1908 271.976C91.4227 271.976 92.4628 271.224 92.4628 270.152ZM97.7806 261.512V273H96.3406V261.512H97.7806ZM104.423 268.824C104.423 270.728 105.447 271.912 106.935 271.912C108.087 271.912 108.775 271.176 109.015 270.136L110.295 270.728C109.895 272.12 108.679 273.176 106.935 273.176C104.599 273.176 102.983 271.4 102.983 268.824C102.983 266.232 104.599 264.472 106.935 264.472C108.679 264.472 109.863 265.48 110.263 266.872L109.015 267.496C108.775 266.472 108.087 265.72 106.935 265.72C105.447 265.72 104.423 266.904 104.423 268.824ZM114.062 273.144C112.542 273.144 111.31 272.248 111.31 270.744C111.31 269.08 112.606 268.392 114.478 268.008L116.51 267.592V267.24C116.51 266.28 115.982 265.736 114.862 265.736C113.806 265.736 113.182 266.232 112.926 267.16L111.566 266.808C111.966 265.448 113.198 264.472 114.91 264.472C116.782 264.472 117.934 265.384 117.934 267.176V271.256C117.934 271.8 118.27 271.976 118.83 271.848V273C117.55 273.16 116.814 272.856 116.638 272.056C116.126 272.712 115.198 273.144 114.062 273.144ZM116.51 270.152V268.712L114.878 269.064C113.598 269.32 112.734 269.672 112.734 270.68C112.734 271.496 113.326 271.976 114.238 271.976C115.47 271.976 116.51 271.224 116.51 270.152ZM124.724 264.6V266.056C124.484 266.008 124.292 265.992 124.02 265.992C122.804 265.992 121.828 266.952 121.828 268.424V273H120.388V264.632H121.828V266.056C122.196 265.208 123.012 264.568 124.148 264.568C124.372 264.568 124.58 264.584 124.724 264.6ZM129.1 273.176C126.78 273.176 125.452 271.192 125.452 268.824C125.452 266.44 126.78 264.472 129.1 264.472C130.268 264.472 131.196 265.032 131.692 265.848V261.512H133.132V273H131.692V271.784C131.196 272.616 130.268 273.176 129.1 273.176ZM131.724 268.536C131.724 266.584 130.54 265.736 129.356 265.736C127.788 265.736 126.908 267.016 126.908 268.824C126.908 270.616 127.788 271.912 129.356 271.912C130.54 271.912 131.724 271.048 131.724 269.128V268.536ZM134.585 271.224L135.705 270.408C136.153 271.384 137.177 271.976 138.265 271.976C139.241 271.976 140.105 271.56 140.105 270.648C140.105 269.736 139.305 269.608 137.929 269.32C136.553 269.016 135.113 268.712 135.113 267C135.113 265.512 136.409 264.472 138.185 264.472C139.689 264.472 140.921 265.208 141.417 266.2L140.393 267.016C139.961 266.184 139.177 265.656 138.121 265.656C137.161 265.656 136.521 266.136 136.521 266.888C136.521 267.672 137.257 267.816 138.424 268.072C139.865 268.408 141.513 268.696 141.513 270.52C141.513 272.12 140.057 273.176 138.265 273.176C136.745 273.176 135.225 272.52 134.585 271.224Z" fill="#4D148C"/>
<defs>
<linearGradient id="paint0_linear_1162_4950" x1="52.9785" y1="25.6148" x2="5.85222" y2="31.8514" gradientUnits="userSpaceOnUse">
<stop stop-color="#CDE1FF"/>
<stop offset="0.501376" stop-color="#BF9BFF"/>
<stop offset="1" stop-color="#6E1DFF"/>
</linearGradient>
<linearGradient id="paint1_linear_1162_4950" x1="56.5018" y1="27.2505" x2="29.3993" y2="69.2262" gradientUnits="userSpaceOnUse">
<stop stop-color="#CDE1FF"/>
<stop offset="0.501376" stop-color="#BF9BFF"/>
<stop offset="1" stop-color="#6E1DFF"/>
</linearGradient>
</defs>
</svg>
