<svg width="331" height="410" viewBox="0 0 331 410" fill="none" xmlns="http://www.w3.org/2000/svg">
<rect x="0.5" y="0.5" width="330" height="408.206" rx="7.5" fill="white"/>
<rect x="0.5" y="0.5" width="330" height="408.206" rx="7.5" stroke="#4D148C"/>
<mask id="mask0_1151_4815" style="mask-type:luminance" maskUnits="userSpaceOnUse" x="24" y="24" width="49" height="31">
<path d="M24 24H73V54.2055H24V24Z" fill="white"/>
</mask>
<g mask="url(#mask0_1151_4815)">
<path d="M72.7748 27.9044V50.0242C72.7748 50.4585 72.7038 50.8781 72.5689 51.2683C72.0541 52.8134 70.592 53.9277 68.8696 53.9277H27.9052C25.7493 53.9277 24 52.1811 24 50.0251V27.9052C24 26.1853 25.1134 24.7233 26.6594 24.2059C27.0522 24.0709 27.4692 24 27.9052 24H68.8696C71.0263 23.9991 72.7748 25.7485 72.7748 27.9044Z" fill="url(#paint0_linear_1151_4815)"/>
<path d="M36.4584 39.3983H28.6825C28.2967 39.3983 27.9844 39.086 27.9844 38.7001V31.9209C27.9844 31.535 28.2967 31.2227 28.6825 31.2227H36.4584C36.8442 31.2227 37.1566 31.535 37.1566 31.9209V38.7001C37.1566 39.086 36.8442 39.3983 36.4584 39.3983Z" fill="#2C007D"/>
<path d="M32.0848 46.8223H28.6764C28.3202 46.8223 28.0312 46.3714 28.0312 45.8154C28.0312 45.2595 28.3202 44.8086 28.6764 44.8086H32.0848C32.441 44.8086 32.7299 45.2595 32.7299 45.8154C32.7294 46.3714 32.441 46.8223 32.0848 46.8223Z" fill="white"/>
<path d="M38.116 46.8223H34.7077C34.3514 46.8223 34.0625 46.3714 34.0625 45.8154C34.0625 45.2595 34.3514 44.8086 34.7077 44.8086H38.116C38.4722 44.8086 38.7611 45.2595 38.7611 45.8154C38.7611 46.3714 38.4722 46.8223 38.116 46.8223Z" fill="white"/>
<path d="M44.8425 46.8223H41.4343C41.078 46.8223 40.7891 46.3714 40.7891 45.8154C40.7891 45.2595 41.078 44.8086 41.4343 44.8086H44.8425C45.1988 44.8086 45.4877 45.2595 45.4877 45.8154C45.4877 46.3714 45.1988 46.8223 44.8425 46.8223Z" fill="white"/>
<path d="M50.8738 46.8223H47.4655C47.1092 46.8223 46.8203 46.3714 46.8203 45.8154C46.8203 45.2595 47.1092 44.8086 47.4655 44.8086H50.8738C51.2301 44.8086 51.519 45.2595 51.519 45.8154C51.5185 46.3714 51.2301 46.8223 50.8738 46.8223Z" fill="white"/>
<path fill-rule="evenodd" clip-rule="evenodd" d="M35.5768 33.5083H37.1574V33.2626H35.5768C35.2983 33.2626 35.0708 33.4901 35.0708 33.7705V35.1875H34.0957V34.3008C34.0957 34.0179 33.8656 33.7886 33.5836 33.7886H32.6941V31.2227H32.4485V33.7886H31.5816C31.2996 33.7886 31.0694 34.0187 31.0694 34.3008V35.1875H30.0711V33.7705C30.0711 33.4901 29.8444 33.2626 29.565 33.2626H27.9844V33.5083H29.565C29.7086 33.5083 29.8254 33.626 29.8254 33.7713V36.8521C29.8254 36.9974 29.7086 37.1151 29.565 37.1151H27.9844V37.3608H29.565C29.8436 37.3608 30.0711 37.1332 30.0711 36.853V35.435H31.0694V36.3217C31.0694 36.6047 31.2996 36.8348 31.5816 36.8348H32.4485V39.4008H32.6941V36.8348H33.5836C33.8656 36.8348 34.0957 36.6047 34.0957 36.3217V35.435H35.0708V36.853C35.0708 37.1332 35.2974 37.3608 35.5768 37.3608H37.1574V37.1151H35.5768C35.4332 37.1151 35.3164 36.9974 35.3164 36.8521V33.7713C35.3164 33.6269 35.4332 33.5083 35.5768 33.5083ZM33.85 36.3209C33.85 36.4679 33.7306 36.5882 33.5827 36.5882H31.5808C31.4337 36.5882 31.3134 36.4679 31.3134 36.3209V34.3025C31.3134 34.1555 31.4329 34.0352 31.5808 34.0352H33.5827C33.7297 34.0352 33.85 34.1555 33.85 34.3025V36.3209Z" fill="white" stroke="white" stroke-width="0.1"/>
<path fill-rule="evenodd" clip-rule="evenodd" d="M63.5957 42.122C62.6787 42.8109 62.0855 43.9076 62.0855 45.1429C62.0855 46.3782 62.6787 47.4749 63.5957 48.1637C62.9647 48.6377 62.1804 48.9185 61.3304 48.9185C59.2451 48.9185 57.5547 47.2281 57.5547 45.1429C57.5547 43.0576 59.2451 41.3672 61.3304 41.3672C62.1804 41.3672 62.9647 41.6481 63.5957 42.122Z" fill="#BF9BFF"/>
<path fill-rule="evenodd" clip-rule="evenodd" d="M63.6016 42.122C64.5186 42.8109 65.1118 43.9076 65.1118 45.1429C65.1118 46.3782 64.5186 47.4749 63.6016 48.1637C64.2326 48.6377 65.0169 48.9185 65.8669 48.9185C67.9522 48.9185 69.6426 47.2281 69.6426 45.1429C69.6426 43.0576 67.9522 41.3672 65.8669 41.3672C65.0169 41.3672 64.2326 41.6481 63.6016 42.122Z" fill="#BF9BFF"/>
<path fill-rule="evenodd" clip-rule="evenodd" d="M63.6041 48.1627C64.5211 47.4739 65.1143 46.3772 65.1143 45.1419C65.1143 43.9067 64.5211 42.8099 63.6041 42.1211C62.6869 42.8099 62.0938 43.9067 62.0938 45.1419C62.0938 46.3772 62.6869 47.4739 63.6041 48.1627Z" fill="#2C007D"/>
</g>
<path d="M26.8391 82.4611C26.8391 84.7971 28.0711 86.3171 29.8311 86.3171C31.0791 86.3171 31.9911 85.5331 32.3111 84.2531L34.5191 84.9891C33.8471 87.0691 32.2151 88.3811 29.8311 88.3811C26.7271 88.3811 24.4711 85.9331 24.4711 82.4611C24.4711 78.9891 26.7271 76.5411 29.8311 76.5411C32.2151 76.5411 33.8471 77.8531 34.5191 79.9331L32.3111 80.6691C31.9911 79.3891 31.0791 78.6051 29.8311 78.6051C28.0711 78.6051 26.8391 80.1251 26.8391 82.4611ZM40.7254 79.7731V81.9651C40.4694 81.9331 40.2774 81.9171 40.0054 81.9171C38.8374 81.9171 37.9414 82.6371 37.9414 83.9331V88.2051H35.7014V79.7891H37.9414V80.9731C38.3094 80.2371 39.1414 79.7411 40.1814 79.7411C40.4054 79.7411 40.5654 79.7571 40.7254 79.7731ZM45.2721 88.3811C42.7921 88.3811 41.0961 86.6051 41.0961 83.9971C41.0961 81.5171 42.8081 79.6291 45.1921 79.6291C47.6881 79.6291 49.0321 81.4851 49.0321 83.8371V84.4931H43.2401C43.4001 85.7731 44.1841 86.5411 45.2881 86.5411C46.1521 86.5411 46.8401 86.1251 47.0961 85.3091L48.9841 85.9811C48.3761 87.5171 46.9521 88.3811 45.2721 88.3811ZM45.1761 81.4211C44.2801 81.4211 43.5921 81.9491 43.3201 82.9731H46.8081C46.7921 82.1411 46.2641 81.4211 45.1761 81.4211ZM53.5253 88.3811C51.2053 88.3811 49.8613 86.3971 49.8613 83.9971C49.8613 81.6131 51.2053 79.6291 53.5253 79.6291C54.5813 79.6291 55.3813 80.0451 55.8773 80.6531V76.7171H58.1173V88.2051H55.8773V87.3411C55.3813 87.9651 54.5813 88.3811 53.5253 88.3811ZM55.9253 83.7731C55.9253 82.3331 55.1253 81.5491 54.0533 81.5491C52.7893 81.5491 52.1173 82.5571 52.1173 83.9971C52.1173 85.4531 52.7893 86.4611 54.0533 86.4611C55.1253 86.4611 55.9253 85.6611 55.9253 84.2371V83.7731ZM59.9351 78.7971V76.7171H62.2231V78.7971H59.9351ZM62.2071 79.7891V88.2051H59.9671V79.7891H62.2071ZM64.2692 86.0131V81.6611H63.1492V79.7891H64.2692V77.3891H66.4772V79.7891H68.1892V81.6611H66.4772V85.5491C66.4772 86.2691 66.8772 86.3651 67.5332 86.3651C67.8532 86.3651 68.0132 86.3491 68.3012 86.3171V88.1731C67.9012 88.2531 67.4212 88.3011 66.8612 88.3011C65.1652 88.3011 64.2692 87.7411 64.2692 86.0131ZM74.7453 82.4611C74.7453 84.7971 75.9773 86.3171 77.7373 86.3171C78.9853 86.3171 79.8973 85.5331 80.2173 84.2531L82.4253 84.9891C81.7533 87.0691 80.1213 88.3811 77.7373 88.3811C74.6333 88.3811 72.3773 85.9331 72.3773 82.4611C72.3773 78.9891 74.6333 76.5411 77.7373 76.5411C80.1213 76.5411 81.7533 77.8531 82.4253 79.9331L80.2173 80.6691C79.8973 79.3891 78.9853 78.6051 77.7373 78.6051C75.9773 78.6051 74.7453 80.1251 74.7453 82.4611ZM85.8957 88.3491C84.2477 88.3491 83.0317 87.3571 83.0317 85.8691C83.0317 84.1891 84.3757 83.4851 86.0717 83.1811L88.1677 82.7811V82.6531C88.1677 81.9331 87.7997 81.4851 86.8717 81.4851C86.0397 81.4851 85.6077 81.8531 85.4157 82.6051L83.2877 82.2051C83.6717 80.7811 84.9517 79.6291 86.9517 79.6291C89.0797 79.6291 90.3597 80.6051 90.3597 82.5571V85.9971C90.3597 86.4451 90.5517 86.5891 91.0477 86.5251V88.2051C89.6237 88.4131 88.7597 88.1251 88.3917 87.4211C87.8477 88.0131 86.9997 88.3491 85.8957 88.3491ZM88.1677 85.2131V84.3491L86.5197 84.6851C85.7837 84.8291 85.2397 85.0691 85.2397 85.7411C85.2397 86.3171 85.6717 86.6531 86.3437 86.6531C87.2877 86.6531 88.1677 86.1571 88.1677 85.2131ZM97.3348 79.7731V81.9651C97.0788 81.9331 96.8868 81.9171 96.6148 81.9171C95.4468 81.9171 94.5508 82.6371 94.5508 83.9331V88.2051H92.3108V79.7891H94.5508V80.9731C94.9188 80.2371 95.7508 79.7411 96.7908 79.7411C97.0148 79.7411 97.1748 79.7571 97.3348 79.7731ZM101.432 88.3811C99.1116 88.3811 97.7676 86.3971 97.7676 83.9971C97.7676 81.6131 99.1116 79.6291 101.432 79.6291C102.488 79.6291 103.288 80.0451 103.784 80.6531V76.7171H106.024V88.2051H103.784V87.3411C103.288 87.9651 102.488 88.3811 101.432 88.3811ZM103.832 83.7731C103.832 82.3331 103.032 81.5491 101.96 81.5491C100.696 81.5491 100.024 82.5571 100.024 83.9971C100.024 85.4531 100.696 86.4611 101.96 86.4611C103.032 86.4611 103.832 85.6611 103.832 84.2371V83.7731ZM107.041 86.7811L108.433 85.3571C109.009 86.1411 110.033 86.6371 110.977 86.6371C111.729 86.6371 112.385 86.3811 112.385 85.7731C112.385 85.1331 111.761 85.0531 110.417 84.7971C109.057 84.5251 107.553 84.1731 107.553 82.3651C107.553 80.7491 108.977 79.6291 110.993 79.6291C112.481 79.6291 113.809 80.2371 114.465 81.0851L113.185 82.4931C112.625 81.7731 111.809 81.3731 110.929 81.3731C110.225 81.3731 109.761 81.6771 109.761 82.1411C109.761 82.6851 110.321 82.7811 111.361 82.9891C112.833 83.2931 114.577 83.6291 114.577 85.5331C114.577 87.2931 112.945 88.3811 110.929 88.3811C109.409 88.3811 107.809 87.8211 107.041 86.7811Z" fill="#4D148C"/>
<path d="M26.128 117.461C26.128 120.181 27.632 122.021 29.76 122.021C31.248 122.021 32.32 121.157 32.736 119.701L34.192 120.181C33.52 122.165 31.952 123.381 29.76 123.381C26.784 123.381 24.592 120.965 24.592 117.461C24.592 113.957 26.784 111.541 29.76 111.541C31.952 111.541 33.52 112.757 34.192 114.741L32.736 115.221C32.32 113.765 31.248 112.901 29.76 112.901C27.632 112.901 26.128 114.741 26.128 117.461ZM42.9469 119.029C42.9469 121.621 41.3469 123.381 39.0589 123.381C36.7709 123.381 35.1709 121.621 35.1709 119.029C35.1709 116.437 36.7709 114.677 39.0589 114.677C41.3469 114.677 42.9469 116.437 42.9469 119.029ZM36.6269 119.029C36.6269 120.933 37.5869 122.149 39.0589 122.149C40.5309 122.149 41.4909 120.933 41.4909 119.029C41.4909 117.109 40.5309 115.893 39.0589 115.893C37.5869 115.893 36.6269 117.109 36.6269 119.029ZM46.2181 118.197V123.205H44.7781V114.837H46.2181V115.973C46.6661 115.285 47.4661 114.677 48.6341 114.677C49.7541 114.677 50.5381 115.237 50.9541 116.101C51.4181 115.413 52.3141 114.677 53.6261 114.677C55.3541 114.677 56.3941 115.909 56.3941 117.685V123.205H54.9541V118.069C54.9541 116.901 54.4741 116.021 53.2901 116.021C52.3301 116.021 51.3061 116.837 51.3061 118.197V123.205H49.8661V118.069C49.8661 116.901 49.3861 116.021 48.2021 116.021C47.2421 116.021 46.2181 116.837 46.2181 118.197ZM62.7476 123.381C61.5796 123.381 60.6516 122.821 60.1556 121.989V126.085H58.7156V114.837H60.1556V116.053C60.6516 115.237 61.5796 114.677 62.7476 114.677C65.0676 114.677 66.3956 116.645 66.3956 119.029C66.3956 121.397 65.0676 123.381 62.7476 123.381ZM60.1236 118.741V119.333C60.1236 121.253 61.3076 122.117 62.4916 122.117C64.0596 122.117 64.9396 120.821 64.9396 119.029C64.9396 117.221 64.0596 115.941 62.4916 115.941C61.3076 115.941 60.1236 116.789 60.1236 118.741ZM69.6556 111.717V123.205H68.2156V111.717H69.6556ZM75.4034 123.381C73.0834 123.381 71.4834 121.605 71.4834 119.029C71.4834 116.533 73.0674 114.677 75.3394 114.677C77.6754 114.677 78.9074 116.453 78.9074 118.773V119.253H72.8594C72.9394 121.013 73.9474 122.133 75.4034 122.133C76.5234 122.133 77.3234 121.525 77.5794 120.533L78.8434 120.981C78.3314 122.469 77.0674 123.381 75.4034 123.381ZM75.3234 115.909C74.1074 115.909 73.1954 116.725 72.9394 118.149H77.4514C77.4194 116.965 76.7794 115.909 75.3234 115.909ZM80.924 121.205V116.069H79.628V114.837H80.924V112.389H82.348V114.837H84.252V116.069H82.348V120.981C82.348 121.861 82.78 122.021 83.516 122.021C83.852 122.021 84.092 122.005 84.428 121.925V123.157C84.06 123.237 83.644 123.285 83.164 123.285C81.74 123.285 80.924 122.805 80.924 121.205ZM89.4346 123.381C87.1146 123.381 85.5146 121.605 85.5146 119.029C85.5146 116.533 87.0986 114.677 89.3706 114.677C91.7066 114.677 92.9386 116.453 92.9386 118.773V119.253H86.8906C86.9706 121.013 87.9786 122.133 89.4346 122.133C90.5546 122.133 91.3546 121.525 91.6106 120.533L92.8746 120.981C92.3626 122.469 91.0986 123.381 89.4346 123.381ZM89.3546 115.909C88.1386 115.909 87.2266 116.725 86.9706 118.149H91.4826C91.4506 116.965 90.8106 115.909 89.3546 115.909ZM101.594 111.717H103.29L107.722 123.205H106.17L105.002 120.181H99.8503L98.6983 123.205H97.1623L101.594 111.717ZM102.41 113.445L100.362 118.837H104.49L102.41 113.445ZM110.784 118.389V123.205H109.248V111.717H113.632C116.064 111.717 117.616 112.853 117.616 115.045C117.616 117.205 116.064 118.389 113.632 118.389H110.784ZM110.784 117.061H113.552C115.184 117.061 116.096 116.341 116.096 115.045C116.096 113.749 115.184 113.045 113.552 113.045H110.784V117.061ZM120.738 111.717V123.205H119.202V111.717H120.738ZM125.647 121.429L126.767 120.613C127.215 121.589 128.239 122.181 129.327 122.181C130.303 122.181 131.167 121.765 131.167 120.853C131.167 119.941 130.367 119.813 128.991 119.525C127.615 119.221 126.175 118.917 126.175 117.205C126.175 115.717 127.471 114.677 129.247 114.677C130.751 114.677 131.983 115.413 132.479 116.405L131.455 117.221C131.023 116.389 130.239 115.861 129.183 115.861C128.223 115.861 127.583 116.341 127.583 117.093C127.583 117.877 128.319 118.021 129.487 118.277C130.927 118.613 132.575 118.901 132.575 120.725C132.575 122.325 131.119 123.381 129.327 123.381C127.807 123.381 126.287 122.725 125.647 121.429ZM134.58 121.205V116.069H133.284V114.837H134.58V112.389H136.004V114.837H137.908V116.069H136.004V120.981C136.004 121.861 136.436 122.021 137.172 122.021C137.508 122.021 137.748 122.005 138.084 121.925V123.157C137.716 123.237 137.3 123.285 136.82 123.285C135.396 123.285 134.58 122.805 134.58 121.205ZM141.89 123.349C140.37 123.349 139.138 122.453 139.138 120.949C139.138 119.285 140.434 118.597 142.306 118.213L144.338 117.797V117.445C144.338 116.485 143.81 115.941 142.69 115.941C141.634 115.941 141.01 116.437 140.754 117.365L139.394 117.013C139.794 115.653 141.026 114.677 142.738 114.677C144.61 114.677 145.762 115.589 145.762 117.381V121.461C145.762 122.005 146.098 122.181 146.658 122.053V123.205C145.378 123.365 144.642 123.061 144.466 122.261C143.954 122.917 143.026 123.349 141.89 123.349ZM144.338 120.357V118.917L142.706 119.269C141.426 119.525 140.562 119.877 140.562 120.885C140.562 121.701 141.154 122.181 142.066 122.181C143.298 122.181 144.338 121.429 144.338 120.357ZM149.08 119.029C149.08 120.933 150.104 122.117 151.592 122.117C152.744 122.117 153.432 121.381 153.672 120.341L154.952 120.933C154.552 122.325 153.336 123.381 151.592 123.381C149.256 123.381 147.64 121.605 147.64 119.029C147.64 116.437 149.256 114.677 151.592 114.677C153.336 114.677 154.52 115.685 154.92 117.077L153.672 117.701C153.432 116.677 152.744 115.925 151.592 115.925C150.104 115.925 149.08 117.109 149.08 119.029ZM157.968 111.717V118.741L161.68 114.837H163.472L160.208 118.133L163.744 123.205H162.064L159.184 119.173L157.968 120.405V123.205H156.528V111.717H157.968ZM172.098 111.573V112.853C171.858 112.821 171.714 112.821 171.474 112.821C170.626 112.821 170.162 113.189 170.162 114.261V114.837H172.018V116.069H170.162V123.205H168.722V116.069H167.458V114.837H168.722V114.165C168.722 112.533 169.618 111.541 171.33 111.541C171.618 111.541 171.778 111.557 172.098 111.573ZM180.509 119.029C180.509 121.621 178.909 123.381 176.621 123.381C174.333 123.381 172.733 121.621 172.733 119.029C172.733 116.437 174.333 114.677 176.621 114.677C178.909 114.677 180.509 116.437 180.509 119.029ZM174.189 119.029C174.189 120.933 175.149 122.149 176.621 122.149C178.093 122.149 179.053 120.933 179.053 119.029C179.053 117.109 178.093 115.893 176.621 115.893C175.149 115.893 174.189 117.109 174.189 119.029ZM186.677 114.805V116.261C186.437 116.213 186.245 116.197 185.973 116.197C184.757 116.197 183.781 117.157 183.781 118.629V123.205H182.341V114.837H183.781V116.261C184.149 115.413 184.965 114.773 186.101 114.773C186.325 114.773 186.533 114.789 186.677 114.805ZM192.502 119.029C192.502 120.933 193.526 122.117 195.014 122.117C196.166 122.117 196.854 121.381 197.094 120.341L198.374 120.933C197.974 122.325 196.758 123.381 195.014 123.381C192.678 123.381 191.062 121.605 191.062 119.029C191.062 116.437 192.678 114.677 195.014 114.677C196.758 114.677 197.942 115.685 198.342 117.077L197.094 117.701C196.854 116.677 196.166 115.925 195.014 115.925C193.526 115.925 192.502 117.109 192.502 119.029ZM204.286 114.805V116.261C204.046 116.213 203.854 116.197 203.582 116.197C202.366 116.197 201.39 117.157 201.39 118.629V123.205H199.95V114.837H201.39V116.261C201.758 115.413 202.574 114.773 203.71 114.773C203.934 114.773 204.142 114.789 204.286 114.805ZM208.872 123.381C206.552 123.381 204.952 121.605 204.952 119.029C204.952 116.533 206.536 114.677 208.808 114.677C211.144 114.677 212.376 116.453 212.376 118.773V119.253H206.328C206.408 121.013 207.416 122.133 208.872 122.133C209.992 122.133 210.792 121.525 211.048 120.533L212.312 120.981C211.8 122.469 210.536 123.381 208.872 123.381ZM208.792 115.909C207.576 115.909 206.664 116.725 206.408 118.149H210.92C210.888 116.965 210.248 115.909 208.792 115.909ZM217.241 123.381C214.921 123.381 213.593 121.397 213.593 119.029C213.593 116.645 214.921 114.677 217.241 114.677C218.409 114.677 219.337 115.237 219.833 116.053V111.717H221.273V123.205H219.833V121.989C219.337 122.821 218.409 123.381 217.241 123.381ZM219.865 118.741C219.865 116.789 218.681 115.941 217.497 115.941C215.929 115.941 215.049 117.221 215.049 119.029C215.049 120.821 215.929 122.117 217.497 122.117C218.681 122.117 219.865 121.253 219.865 119.333V118.741ZM223.589 113.381V111.717H225.157V113.381H223.589ZM225.093 114.837V123.205H223.653V114.837H225.093ZM227.721 121.205V116.069H226.425V114.837H227.721V112.389H229.145V114.837H231.049V116.069H229.145V120.981C229.145 121.861 229.577 122.021 230.313 122.021C230.649 122.021 230.889 122.005 231.225 121.925V123.157C230.857 123.237 230.441 123.285 229.961 123.285C228.537 123.285 227.721 122.805 227.721 121.205ZM237.173 119.029C237.173 120.933 238.197 122.117 239.685 122.117C240.837 122.117 241.525 121.381 241.765 120.341L243.045 120.933C242.645 122.325 241.429 123.381 239.685 123.381C237.349 123.381 235.733 121.605 235.733 119.029C235.733 116.437 237.349 114.677 239.685 114.677C241.429 114.677 242.613 115.685 243.013 117.077L241.765 117.701C241.525 116.677 240.837 115.925 239.685 115.925C238.197 115.925 237.173 117.109 237.173 119.029ZM246.812 123.349C245.292 123.349 244.06 122.453 244.06 120.949C244.06 119.285 245.356 118.597 247.228 118.213L249.26 117.797V117.445C249.26 116.485 248.732 115.941 247.612 115.941C246.556 115.941 245.932 116.437 245.676 117.365L244.316 117.013C244.716 115.653 245.948 114.677 247.66 114.677C249.532 114.677 250.684 115.589 250.684 117.381V121.461C250.684 122.005 251.02 122.181 251.58 122.053V123.205C250.3 123.365 249.564 123.061 249.388 122.261C248.876 122.917 247.948 123.349 246.812 123.349ZM249.26 120.357V118.917L247.628 119.269C246.348 119.525 245.484 119.877 245.484 120.885C245.484 121.701 246.076 122.181 246.988 122.181C248.22 122.181 249.26 121.429 249.26 120.357ZM257.474 114.805V116.261C257.234 116.213 257.042 116.197 256.77 116.197C255.554 116.197 254.578 117.157 254.578 118.629V123.205H253.138V114.837H254.578V116.261C254.946 115.413 255.762 114.773 256.898 114.773C257.122 114.773 257.33 114.789 257.474 114.805ZM261.85 123.381C259.53 123.381 258.202 121.397 258.202 119.029C258.202 116.645 259.53 114.677 261.85 114.677C263.018 114.677 263.946 115.237 264.442 116.053V111.717H265.882V123.205H264.442V121.989C263.946 122.821 263.018 123.381 261.85 123.381ZM264.474 118.741C264.474 116.789 263.29 115.941 262.106 115.941C260.538 115.941 259.658 117.221 259.658 119.029C259.658 120.821 260.538 122.117 262.106 122.117C263.29 122.117 264.474 121.253 264.474 119.333V118.741ZM25.136 137.381V135.717H26.704V137.381H25.136ZM26.64 138.837V147.205H25.2V138.837H26.64ZM28.1158 145.429L29.2358 144.613C29.6838 145.589 30.7078 146.181 31.7958 146.181C32.7718 146.181 33.6358 145.765 33.6358 144.853C33.6358 143.941 32.8358 143.813 31.4598 143.525C30.0838 143.221 28.6438 142.917 28.6438 141.205C28.6438 139.717 29.9398 138.677 31.7158 138.677C33.2198 138.677 34.4518 139.413 34.9478 140.405L33.9238 141.221C33.4918 140.389 32.7078 139.861 31.6518 139.861C30.6918 139.861 30.0518 140.341 30.0518 141.093C30.0518 141.877 30.7878 142.021 31.9557 142.277C33.3958 142.613 35.0438 142.901 35.0438 144.725C35.0438 146.325 33.5878 147.381 31.7958 147.381C30.2758 147.381 28.7558 146.725 28.1158 145.429ZM35.897 145.429L37.017 144.613C37.465 145.589 38.489 146.181 39.577 146.181C40.553 146.181 41.417 145.765 41.417 144.853C41.417 143.941 40.617 143.813 39.241 143.525C37.865 143.221 36.425 142.917 36.425 141.205C36.425 139.717 37.721 138.677 39.497 138.677C41.001 138.677 42.233 139.413 42.729 140.405L41.705 141.221C41.273 140.389 40.489 139.861 39.433 139.861C38.473 139.861 37.833 140.341 37.833 141.093C37.833 141.877 38.569 142.021 39.737 142.277C41.177 142.613 42.825 142.901 42.825 144.725C42.825 146.325 41.369 147.381 39.577 147.381C38.057 147.381 36.537 146.725 35.897 145.429ZM51.2463 138.837V147.205H49.8063V146.053C49.3263 146.757 48.5103 147.381 47.3263 147.381C45.5343 147.381 44.5263 146.149 44.5263 144.373V138.837H45.9663V144.069C45.9663 145.253 46.4783 146.053 47.7103 146.053C48.7503 146.053 49.8063 145.269 49.8063 143.877V138.837H51.2463ZM55.7335 147.349C54.2135 147.349 52.9815 146.453 52.9815 144.949C52.9815 143.285 54.2775 142.597 56.1495 142.213L58.1815 141.797V141.445C58.1815 140.485 57.6535 139.941 56.5335 139.941C55.4775 139.941 54.8535 140.437 54.5975 141.365L53.2375 141.013C53.6375 139.653 54.8695 138.677 56.5815 138.677C58.4535 138.677 59.6055 139.589 59.6055 141.381V145.461C59.6055 146.005 59.9415 146.181 60.5015 146.053V147.205C59.2215 147.365 58.4855 147.061 58.3095 146.261C57.7975 146.917 56.8695 147.349 55.7335 147.349ZM58.1815 144.357V142.917L56.5495 143.269C55.2695 143.525 54.4055 143.877 54.4055 144.885C54.4055 145.701 54.9975 146.181 55.9095 146.181C57.1415 146.181 58.1815 145.429 58.1815 144.357ZM62.0594 147.205V138.837H63.4994V139.973C63.9794 139.285 64.8114 138.677 65.9954 138.677C67.7714 138.677 68.7794 139.909 68.7794 141.685V147.205H67.3394V142.069C67.3394 140.901 66.8434 140.021 65.5954 140.021C64.5554 140.021 63.4994 140.821 63.4994 142.213V147.205H62.0594ZM71.9546 143.029C71.9546 144.933 72.9786 146.117 74.4666 146.117C75.6186 146.117 76.3066 145.381 76.5466 144.341L77.8266 144.933C77.4266 146.325 76.2106 147.381 74.4666 147.381C72.1306 147.381 70.5146 145.605 70.5146 143.029C70.5146 140.437 72.1306 138.677 74.4666 138.677C76.2106 138.677 77.3946 139.685 77.7946 141.077L76.5466 141.701C76.3066 140.677 75.6186 139.925 74.4666 139.925C72.9786 139.925 71.9546 141.109 71.9546 143.029ZM82.7471 147.381C80.4271 147.381 78.8271 145.605 78.8271 143.029C78.8271 140.533 80.4111 138.677 82.6831 138.677C85.0191 138.677 86.2511 140.453 86.2511 142.773V143.253H80.2031C80.2831 145.013 81.2911 146.133 82.7471 146.133C83.8671 146.133 84.6671 145.525 84.9231 144.533L86.1871 144.981C85.6751 146.469 84.4111 147.381 82.7471 147.381ZM82.6671 139.909C81.4511 139.909 80.5391 140.725 80.2831 142.149H84.7951C84.7631 140.965 84.1231 139.909 82.6671 139.909ZM87.5359 147.205V145.317H89.3599V147.301C89.3599 148.549 88.5599 149.301 87.2799 149.333V148.501C87.9999 148.469 88.3679 148.101 88.3679 147.333V147.205H87.5359ZM96.2494 142.197V147.205H94.8094V138.837H96.2494V139.973C96.6974 139.285 97.4974 138.677 98.6654 138.677C99.7854 138.677 100.569 139.237 100.985 140.101C101.449 139.413 102.345 138.677 103.657 138.677C105.385 138.677 106.425 139.909 106.425 141.685V147.205H104.985V142.069C104.985 140.901 104.505 140.021 103.321 140.021C102.361 140.021 101.337 140.837 101.337 142.197V147.205H99.8974V142.069C99.8974 140.901 99.4174 140.021 98.2334 140.021C97.2734 140.021 96.2494 140.837 96.2494 142.197ZM115.947 143.029C115.947 145.621 114.347 147.381 112.059 147.381C109.771 147.381 108.171 145.621 108.171 143.029C108.171 140.437 109.771 138.677 112.059 138.677C114.347 138.677 115.947 140.437 115.947 143.029ZM109.627 143.029C109.627 144.933 110.587 146.149 112.059 146.149C113.531 146.149 114.491 144.933 114.491 143.029C114.491 141.109 113.531 139.893 112.059 139.893C110.587 139.893 109.627 141.109 109.627 143.029ZM121.81 147.381C120.642 147.381 119.714 146.821 119.218 145.989V147.205H117.778V135.717H119.218V140.053C119.714 139.237 120.642 138.677 121.81 138.677C124.13 138.677 125.458 140.645 125.458 143.029C125.458 145.397 124.13 147.381 121.81 147.381ZM119.186 142.741V143.333C119.186 145.253 120.37 146.117 121.554 146.117C123.122 146.117 124.002 144.821 124.002 143.029C124.002 141.221 123.122 139.941 121.554 139.941C120.37 139.941 119.186 140.789 119.186 142.741ZM127.214 137.381V135.717H128.782V137.381H127.214ZM128.718 138.837V147.205H127.278V138.837H128.718ZM132.562 135.717V147.205H131.122V135.717H132.562ZM138.31 147.381C135.99 147.381 134.39 145.605 134.39 143.029C134.39 140.533 135.974 138.677 138.246 138.677C140.582 138.677 141.814 140.453 141.814 142.773V143.253H135.766C135.846 145.013 136.854 146.133 138.31 146.133C139.43 146.133 140.23 145.525 140.486 144.533L141.75 144.981C141.238 146.469 139.974 147.381 138.31 147.381ZM138.23 139.909C137.014 139.909 136.102 140.725 135.846 142.149H140.358C140.326 140.965 139.686 139.909 138.23 139.909ZM143.425 143.189V141.893H147.793V143.189H143.425ZM151.905 147.349C150.385 147.349 149.153 146.453 149.153 144.949C149.153 143.285 150.449 142.597 152.321 142.213L154.353 141.797V141.445C154.353 140.485 153.825 139.941 152.705 139.941C151.649 139.941 151.025 140.437 150.769 141.365L149.409 141.013C149.809 139.653 151.041 138.677 152.753 138.677C154.625 138.677 155.777 139.589 155.777 141.381V145.461C155.777 146.005 156.113 146.181 156.673 146.053V147.205C155.393 147.365 154.657 147.061 154.481 146.261C153.969 146.917 153.041 147.349 151.905 147.349ZM154.353 144.357V142.917L152.721 143.269C151.441 143.525 150.577 143.877 150.577 144.885C150.577 145.701 151.169 146.181 152.081 146.181C153.313 146.181 154.353 145.429 154.353 144.357ZM162.263 147.381C161.095 147.381 160.167 146.821 159.671 145.989V150.085H158.231V138.837H159.671V140.053C160.167 139.237 161.095 138.677 162.263 138.677C164.583 138.677 165.911 140.645 165.911 143.029C165.911 145.397 164.583 147.381 162.263 147.381ZM159.639 142.741V143.333C159.639 145.253 160.823 146.117 162.007 146.117C163.575 146.117 164.455 144.821 164.455 143.029C164.455 141.221 163.575 139.941 162.007 139.941C160.823 139.941 159.639 140.789 159.639 142.741ZM171.763 147.381C170.595 147.381 169.667 146.821 169.171 145.989V150.085H167.731V138.837H169.171V140.053C169.667 139.237 170.595 138.677 171.763 138.677C174.083 138.677 175.411 140.645 175.411 143.029C175.411 145.397 174.083 147.381 171.763 147.381ZM169.139 142.741V143.333C169.139 145.253 170.323 146.117 171.507 146.117C173.075 146.117 173.955 144.821 173.955 143.029C173.955 141.221 173.075 139.941 171.507 139.941C170.323 139.941 169.139 140.789 169.139 142.741ZM179.678 145.429L180.798 144.613C181.246 145.589 182.27 146.181 183.358 146.181C184.334 146.181 185.198 145.765 185.198 144.853C185.198 143.941 184.398 143.813 183.022 143.525C181.646 143.221 180.206 142.917 180.206 141.205C180.206 139.717 181.502 138.677 183.278 138.677C184.782 138.677 186.014 139.413 186.51 140.405L185.486 141.221C185.054 140.389 184.27 139.861 183.214 139.861C182.254 139.861 181.614 140.341 181.614 141.093C181.614 141.877 182.35 142.021 183.518 142.277C184.958 142.613 186.606 142.901 186.606 144.725C186.606 146.325 185.15 147.381 183.358 147.381C181.838 147.381 180.318 146.725 179.678 145.429ZM195.028 138.837V147.205H193.588V146.053C193.108 146.757 192.292 147.381 191.108 147.381C189.316 147.381 188.308 146.149 188.308 144.373V138.837H189.748V144.069C189.748 145.253 190.26 146.053 191.492 146.053C192.532 146.053 193.588 145.269 193.588 143.877V138.837H195.028ZM201.451 147.381C200.283 147.381 199.355 146.821 198.859 145.989V150.085H197.419V138.837H198.859V140.053C199.355 139.237 200.283 138.677 201.451 138.677C203.771 138.677 205.099 140.645 205.099 143.029C205.099 145.397 203.771 147.381 201.451 147.381ZM198.827 142.741V143.333C198.827 145.253 200.011 146.117 201.195 146.117C202.763 146.117 203.643 144.821 203.643 143.029C203.643 141.221 202.763 139.941 201.195 139.941C200.011 139.941 198.827 140.789 198.827 142.741ZM210.951 147.381C209.783 147.381 208.855 146.821 208.359 145.989V150.085H206.919V138.837H208.359V140.053C208.855 139.237 209.783 138.677 210.951 138.677C213.271 138.677 214.599 140.645 214.599 143.029C214.599 145.397 213.271 147.381 210.951 147.381ZM208.327 142.741V143.333C208.327 145.253 209.511 146.117 210.695 146.117C212.263 146.117 213.143 144.821 213.143 143.029C213.143 141.221 212.263 139.941 210.695 139.941C209.511 139.941 208.327 140.789 208.327 142.741ZM223.619 143.029C223.619 145.621 222.019 147.381 219.731 147.381C217.443 147.381 215.843 145.621 215.843 143.029C215.843 140.437 217.443 138.677 219.731 138.677C222.019 138.677 223.619 140.437 223.619 143.029ZM217.299 143.029C217.299 144.933 218.259 146.149 219.731 146.149C221.203 146.149 222.163 144.933 222.163 143.029C222.163 141.109 221.203 139.893 219.731 139.893C218.259 139.893 217.299 141.109 217.299 143.029ZM229.786 138.805V140.261C229.546 140.213 229.354 140.197 229.082 140.197C227.866 140.197 226.89 141.157 226.89 142.629V147.205H225.45V138.837H226.89V140.261C227.258 139.413 228.074 138.773 229.21 138.773C229.434 138.773 229.642 138.789 229.786 138.805ZM231.69 145.205V140.069H230.394V138.837H231.69V136.389H233.114V138.837H235.018V140.069H233.114V144.981C233.114 145.861 233.546 146.021 234.282 146.021C234.618 146.021 234.858 146.005 235.194 145.925V147.157C234.826 147.237 234.41 147.285 233.93 147.285C232.506 147.285 231.69 146.805 231.69 145.205ZM242.374 147.349C240.854 147.349 239.622 146.453 239.622 144.949C239.622 143.285 240.918 142.597 242.79 142.213L244.822 141.797V141.445C244.822 140.485 244.294 139.941 243.174 139.941C242.118 139.941 241.494 140.437 241.238 141.365L239.878 141.013C240.278 139.653 241.51 138.677 243.222 138.677C245.094 138.677 246.246 139.589 246.246 141.381V145.461C246.246 146.005 246.582 146.181 247.142 146.053V147.205C245.862 147.365 245.126 147.061 244.95 146.261C244.438 146.917 243.51 147.349 242.374 147.349ZM244.822 144.357V142.917L243.19 143.269C241.91 143.525 241.046 143.877 241.046 144.885C241.046 145.701 241.638 146.181 242.55 146.181C243.782 146.181 244.822 145.429 244.822 144.357ZM248.7 147.205V138.837H250.14V139.973C250.62 139.285 251.452 138.677 252.636 138.677C254.412 138.677 255.42 139.909 255.42 141.685V147.205H253.98V142.069C253.98 140.901 253.484 140.021 252.236 140.021C251.196 140.021 250.14 140.821 250.14 142.213V147.205H248.7ZM260.803 147.381C258.483 147.381 257.155 145.397 257.155 143.029C257.155 140.645 258.483 138.677 260.803 138.677C261.971 138.677 262.899 139.237 263.395 140.053V135.717H264.835V147.205H263.395V145.989C262.899 146.821 261.971 147.381 260.803 147.381ZM263.427 142.741C263.427 140.789 262.243 139.941 261.059 139.941C259.491 139.941 258.611 141.221 258.611 143.029C258.611 144.821 259.491 146.117 261.059 146.117C262.243 146.117 263.427 145.253 263.427 143.333V142.741ZM25.136 161.381V159.717H26.704V161.381H25.136ZM26.64 162.837V171.205H25.2V162.837H26.64ZM29.0438 171.205V162.837H30.4838V163.973C30.9638 163.285 31.7958 162.677 32.9798 162.677C34.7558 162.677 35.7638 163.909 35.7638 165.685V171.205H34.3238V166.069C34.3238 164.901 33.8278 164.021 32.5798 164.021C31.5398 164.021 30.4838 164.821 30.4838 166.213V171.205H29.0438ZM42.107 171.381C40.939 171.381 40.011 170.821 39.515 169.989V171.205H38.075V159.717H39.515V164.053C40.011 163.237 40.939 162.677 42.107 162.677C44.427 162.677 45.755 164.645 45.755 167.029C45.755 169.397 44.427 171.381 42.107 171.381ZM39.483 166.741V167.333C39.483 169.253 40.667 170.117 41.851 170.117C43.419 170.117 44.299 168.821 44.299 167.029C44.299 165.221 43.419 163.941 41.851 163.941C40.667 163.941 39.483 164.789 39.483 166.741ZM54.215 162.837V171.205H52.775V170.053C52.295 170.757 51.479 171.381 50.295 171.381C48.503 171.381 47.495 170.149 47.495 168.373V162.837H48.935V168.069C48.935 169.253 49.447 170.053 50.679 170.053C51.719 170.053 52.775 169.269 52.775 167.877V162.837H54.215ZM56.5423 161.381V159.717H58.1103V161.381H56.5423ZM58.0463 162.837V171.205H56.6063V162.837H58.0463ZM61.89 159.717V171.205H60.45V159.717H61.89ZM64.5178 169.205V164.069H63.2218V162.837H64.5178V160.389H65.9418V162.837H67.8458V164.069H65.9418V168.981C65.9418 169.861 66.3738 170.021 67.1098 170.021C67.4458 170.021 67.6858 170.005 68.0218 169.925V171.157C67.6538 171.237 67.2378 171.285 66.7578 171.285C65.3338 171.285 64.5178 170.805 64.5178 169.205ZM72.1783 169.429L73.2983 168.613C73.7463 169.589 74.7703 170.181 75.8583 170.181C76.8343 170.181 77.6983 169.765 77.6983 168.853C77.6983 167.941 76.8983 167.813 75.5223 167.525C74.1463 167.221 72.7063 166.917 72.7063 165.205C72.7063 163.717 74.0023 162.677 75.7783 162.677C77.2823 162.677 78.5143 163.413 79.0103 164.405L77.9863 165.221C77.5543 164.389 76.7703 163.861 75.7143 163.861C74.7543 163.861 74.1143 164.341 74.1143 165.093C74.1143 165.877 74.8503 166.021 76.0182 166.277C77.4583 166.613 79.1063 166.901 79.1063 168.725C79.1063 170.325 77.6503 171.381 75.8583 171.381C74.3383 171.381 72.8183 170.725 72.1783 169.429ZM84.2315 171.381C81.9115 171.381 80.3115 169.605 80.3115 167.029C80.3115 164.533 81.8955 162.677 84.1675 162.677C86.5035 162.677 87.7355 164.453 87.7355 166.773V167.253H81.6875C81.7675 169.013 82.7755 170.133 84.2315 170.133C85.3515 170.133 86.1515 169.525 86.4075 168.533L87.6715 168.981C87.1595 170.469 85.8955 171.381 84.2315 171.381ZM84.1515 163.909C82.9355 163.909 82.0235 164.725 81.7675 166.149H86.2795C86.2475 164.965 85.6075 163.909 84.1515 163.909ZM90.3921 167.029C90.3921 168.933 91.4161 170.117 92.9041 170.117C94.0561 170.117 94.7441 169.381 94.9841 168.341L96.2641 168.933C95.8641 170.325 94.6481 171.381 92.9041 171.381C90.5681 171.381 88.9521 169.605 88.9521 167.029C88.9521 164.437 90.5681 162.677 92.9041 162.677C94.6481 162.677 95.8321 163.685 96.2321 165.077L94.9841 165.701C94.7441 164.677 94.0561 163.925 92.9041 163.925C91.4161 163.925 90.3921 165.109 90.3921 167.029ZM104.481 162.837V171.205H103.041V170.053C102.561 170.757 101.745 171.381 100.561 171.381C98.7686 171.381 97.7606 170.149 97.7606 168.373V162.837H99.2006V168.069C99.2006 169.253 99.7126 170.053 100.945 170.053C101.985 170.053 103.041 169.269 103.041 167.877V162.837H104.481ZM111.208 162.805V164.261C110.968 164.213 110.776 164.197 110.504 164.197C109.288 164.197 108.312 165.157 108.312 166.629V171.205H106.872V162.837H108.312V164.261C108.68 163.413 109.496 162.773 110.632 162.773C110.856 162.773 111.064 162.789 111.208 162.805ZM112.73 161.381V159.717H114.298V161.381H112.73ZM114.234 162.837V171.205H112.794V162.837H114.234ZM116.862 169.205V164.069H115.566V162.837H116.862V160.389H118.286V162.837H120.19V164.069H118.286V168.981C118.286 169.861 118.718 170.021 119.454 170.021C119.79 170.021 120.03 170.005 120.366 169.925V171.157C119.998 171.237 119.582 171.285 119.102 171.285C117.678 171.285 116.862 170.805 116.862 169.205ZM125.148 172.117C124.668 173.381 124.012 174.181 122.556 174.181C122.204 174.181 122.028 174.165 121.772 174.117V172.869C122.044 172.933 122.22 172.949 122.46 172.949C123.084 172.949 123.42 172.725 123.756 171.893L124.156 170.901L121.052 162.837H122.572L124.924 169.237L127.244 162.837H128.748L125.148 172.117ZM137.192 159.605C137.768 159.605 138.259 159.706 138.664 159.909C139.08 160.101 139.4 160.378 139.624 160.741C139.848 161.104 139.96 161.546 139.96 162.069C139.96 162.741 139.741 163.312 139.304 163.781C138.877 164.25 138.333 164.677 137.672 165.061L140.76 168.037C141.037 167.706 141.261 167.328 141.432 166.901C141.613 166.464 141.763 165.994 141.88 165.493H143.304C143.133 166.176 142.92 166.81 142.664 167.397C142.408 167.984 142.077 168.496 141.672 168.933L144.008 171.205H142.104L140.712 169.861C140.456 170.085 140.189 170.293 139.912 170.485C139.645 170.666 139.352 170.821 139.032 170.949C138.712 171.077 138.365 171.178 137.992 171.253C137.629 171.328 137.224 171.365 136.776 171.365C136.04 171.365 135.4 171.248 134.856 171.013C134.323 170.768 133.907 170.41 133.608 169.941C133.32 169.472 133.176 168.901 133.176 168.229C133.176 167.685 133.272 167.216 133.464 166.821C133.667 166.426 133.955 166.074 134.328 165.765C134.701 165.456 135.139 165.157 135.64 164.869C135.416 164.613 135.197 164.346 134.984 164.069C134.771 163.792 134.595 163.493 134.456 163.173C134.317 162.842 134.248 162.485 134.248 162.101C134.248 161.578 134.365 161.13 134.6 160.757C134.835 160.384 135.171 160.101 135.608 159.909C136.056 159.706 136.584 159.605 137.192 159.605ZM136.488 165.749C136.104 165.973 135.773 166.202 135.496 166.437C135.229 166.661 135.021 166.912 134.872 167.189C134.723 167.466 134.648 167.797 134.648 168.181C134.648 168.768 134.845 169.237 135.24 169.589C135.635 169.941 136.163 170.117 136.824 170.117C137.507 170.117 138.093 170.005 138.584 169.781C139.075 169.557 139.485 169.29 139.816 168.981L136.488 165.749ZM137.144 160.757C136.696 160.757 136.328 160.874 136.04 161.109C135.763 161.344 135.624 161.669 135.624 162.085C135.624 162.469 135.725 162.826 135.928 163.157C136.131 163.477 136.424 163.834 136.808 164.229C137.437 163.866 137.885 163.525 138.152 163.205C138.429 162.874 138.568 162.496 138.568 162.069C138.568 161.685 138.44 161.37 138.184 161.125C137.928 160.88 137.581 160.757 137.144 160.757ZM149.486 167.029C149.486 168.933 150.51 170.117 151.998 170.117C153.15 170.117 153.838 169.381 154.078 168.341L155.358 168.933C154.958 170.325 153.742 171.381 151.998 171.381C149.662 171.381 148.046 169.605 148.046 167.029C148.046 164.437 149.662 162.677 151.998 162.677C153.742 162.677 154.926 163.685 155.326 165.077L154.078 165.701C153.838 164.677 153.15 163.925 151.998 163.925C150.51 163.925 149.486 165.109 149.486 167.029ZM164.134 167.029C164.134 169.621 162.534 171.381 160.246 171.381C157.958 171.381 156.358 169.621 156.358 167.029C156.358 164.437 157.958 162.677 160.246 162.677C162.534 162.677 164.134 164.437 164.134 167.029ZM157.814 167.029C157.814 168.933 158.774 170.149 160.246 170.149C161.718 170.149 162.678 168.933 162.678 167.029C162.678 165.109 161.718 163.893 160.246 163.893C158.774 163.893 157.814 165.109 157.814 167.029ZM167.406 166.197V171.205H165.966V162.837H167.406V163.973C167.854 163.285 168.654 162.677 169.822 162.677C170.942 162.677 171.726 163.237 172.142 164.101C172.606 163.413 173.502 162.677 174.814 162.677C176.542 162.677 177.582 163.909 177.582 165.685V171.205H176.142V166.069C176.142 164.901 175.662 164.021 174.478 164.021C173.518 164.021 172.494 164.837 172.494 166.197V171.205H171.054V166.069C171.054 164.901 170.574 164.021 169.39 164.021C168.43 164.021 167.406 164.837 167.406 166.197ZM183.935 171.381C182.767 171.381 181.839 170.821 181.343 169.989V174.085H179.903V162.837H181.343V164.053C181.839 163.237 182.767 162.677 183.935 162.677C186.255 162.677 187.583 164.645 187.583 167.029C187.583 169.397 186.255 171.381 183.935 171.381ZM181.311 166.741V167.333C181.311 169.253 182.495 170.117 183.679 170.117C185.247 170.117 186.127 168.821 186.127 167.029C186.127 165.221 185.247 163.941 183.679 163.941C182.495 163.941 181.311 164.789 181.311 166.741ZM190.843 159.717V171.205H189.403V159.717H190.843ZM193.183 161.381V159.717H194.751V161.381H193.183ZM194.687 162.837V171.205H193.247V162.837H194.687ZM199.187 171.349C197.667 171.349 196.435 170.453 196.435 168.949C196.435 167.285 197.731 166.597 199.603 166.213L201.635 165.797V165.445C201.635 164.485 201.107 163.941 199.987 163.941C198.931 163.941 198.307 164.437 198.051 165.365L196.691 165.013C197.091 163.653 198.323 162.677 200.035 162.677C201.907 162.677 203.059 163.589 203.059 165.381V169.461C203.059 170.005 203.395 170.181 203.955 170.053V171.205C202.675 171.365 201.939 171.061 201.763 170.261C201.251 170.917 200.323 171.349 199.187 171.349ZM201.635 168.357V166.917L200.003 167.269C198.723 167.525 197.859 167.877 197.859 168.885C197.859 169.701 198.451 170.181 199.363 170.181C200.595 170.181 201.635 169.429 201.635 168.357ZM205.513 171.205V162.837H206.953V163.973C207.433 163.285 208.265 162.677 209.449 162.677C211.225 162.677 212.233 163.909 212.233 165.685V171.205H210.793V166.069C210.793 164.901 210.297 164.021 209.049 164.021C208.009 164.021 206.953 164.821 206.953 166.213V171.205H205.513ZM215.408 167.029C215.408 168.933 216.432 170.117 217.92 170.117C219.072 170.117 219.76 169.381 220 168.341L221.28 168.933C220.88 170.325 219.664 171.381 217.92 171.381C215.584 171.381 213.968 169.605 213.968 167.029C213.968 164.437 215.584 162.677 217.92 162.677C219.664 162.677 220.848 163.685 221.248 165.077L220 165.701C219.76 164.677 219.072 163.925 217.92 163.925C216.432 163.925 215.408 165.109 215.408 167.029ZM226.2 171.381C223.88 171.381 222.28 169.605 222.28 167.029C222.28 164.533 223.864 162.677 226.136 162.677C228.472 162.677 229.704 164.453 229.704 166.773V167.253H223.656C223.736 169.013 224.744 170.133 226.2 170.133C227.32 170.133 228.12 169.525 228.376 168.533L229.64 168.981C229.128 170.469 227.864 171.381 226.2 171.381ZM226.12 163.909C224.904 163.909 223.992 164.725 223.736 166.149H228.248C228.216 164.965 227.576 163.909 226.12 163.909Z" fill="#4D148C"/>
<path d="M40.1701 207.996L33.8705 217.101L29.0938 212.324" stroke="#F15B22" stroke-width="1.5" stroke-linecap="round" stroke-linejoin="round"/>
<path fill-rule="evenodd" clip-rule="evenodd" d="M24.0002 204.627V212.595C23.9898 217.883 27.2334 222.639 32.1666 224.558L33.2826 224.986C34.0231 225.278 34.8471 225.278 35.5876 224.986L36.7036 224.558C41.6368 222.639 44.8804 217.883 44.87 212.595V204.627C44.87 204.001 44.5154 203.428 43.9417 203.156C40.9484 201.842 37.7048 201.175 34.4403 201.206C31.1758 201.175 27.9322 201.842 24.9389 203.156C24.3548 203.428 23.9898 204.001 24.0002 204.627Z" stroke="#F15B22" stroke-width="1.5" stroke-linecap="round" stroke-linejoin="round"/>
<path d="M60.4512 207.637H62.0032V219.205H59.9552V211.237H57.1872V209.717L58.3072 209.621C59.7472 209.493 60.3392 208.997 60.4512 207.637ZM63.7237 213.461C63.7237 209.957 65.3877 207.541 68.2357 207.541C71.0837 207.541 72.7477 209.957 72.7477 213.461C72.7477 216.965 71.0837 219.381 68.2357 219.381C65.3877 219.381 63.7237 216.965 63.7237 213.461ZM65.7717 213.461C65.7717 215.877 66.5397 217.605 68.2357 217.605C69.9317 217.605 70.6997 215.877 70.6997 213.461C70.6997 211.045 69.9317 209.317 68.2357 209.317C66.5397 209.317 65.7717 211.045 65.7717 213.461ZM73.8331 213.461C73.8331 209.957 75.4971 207.541 78.3451 207.541C81.1931 207.541 82.8571 209.957 82.8571 213.461C82.8571 216.965 81.1931 219.381 78.3451 219.381C75.4971 219.381 73.8331 216.965 73.8331 213.461ZM75.8811 213.461C75.8811 215.877 76.6491 217.605 78.3451 217.605C80.0411 217.605 80.8091 215.877 80.8091 213.461C80.8091 211.045 80.0411 209.317 78.3451 209.317C76.6491 209.317 75.8811 211.045 75.8811 213.461ZM86.5184 207.621C87.3078 207.621 87.9051 207.936 88.3104 208.565C88.7158 209.184 88.9184 210.058 88.9184 211.189C88.9184 212.32 88.7211 213.205 88.3264 213.845C87.9424 214.474 87.3398 214.789 86.5184 214.789C86.0171 214.789 85.5904 214.645 85.2384 214.357C84.8864 214.069 84.6198 213.658 84.4384 213.125C84.2678 212.581 84.1824 211.936 84.1824 211.189C84.1824 210.058 84.3691 209.184 84.7424 208.565C85.1158 207.936 85.7078 207.621 86.5184 207.621ZM86.5184 208.613C86.1131 208.613 85.8144 208.832 85.6224 209.269C85.4411 209.696 85.3504 210.336 85.3504 211.189C85.3504 212.042 85.4411 212.688 85.6224 213.125C85.8144 213.562 86.1131 213.781 86.5184 213.781C86.9344 213.781 87.2438 213.568 87.4464 213.141C87.6491 212.704 87.7504 212.053 87.7504 211.189C87.7504 210.336 87.6491 209.696 87.4464 209.269C87.2438 208.832 86.9344 208.613 86.5184 208.613ZM93.8304 207.781L87.4944 219.205H86.2624L92.5984 207.781H93.8304ZM93.5104 212.197C94.0331 212.197 94.4704 212.341 94.8224 212.629C95.1744 212.906 95.4411 213.312 95.6224 213.845C95.8144 214.368 95.9104 215.008 95.9104 215.765C95.9104 216.896 95.7131 217.781 95.3184 218.421C94.9344 219.05 94.3318 219.365 93.5104 219.365C93.0091 219.365 92.5824 219.221 92.2304 218.933C91.8784 218.645 91.6118 218.234 91.4304 217.701C91.2598 217.157 91.1744 216.512 91.1744 215.765C91.1744 214.634 91.3611 213.76 91.7344 213.141C92.1078 212.512 92.6998 212.197 93.5104 212.197ZM93.5104 213.205C93.1051 213.205 92.8064 213.418 92.6144 213.845C92.4331 214.272 92.3424 214.912 92.3424 215.765C92.3424 216.629 92.4331 217.28 92.6144 217.717C92.8064 218.144 93.1051 218.357 93.5104 218.357C93.9264 218.357 94.2358 218.144 94.4384 217.717C94.6411 217.29 94.7424 216.64 94.7424 215.765C94.7424 214.912 94.6411 214.272 94.4384 213.845C94.2358 213.418 93.9264 213.205 93.5104 213.205ZM99.9122 216.965L101.48 215.669C102.28 216.917 103.48 217.637 104.792 217.637C106.088 217.637 107.064 217.045 107.064 215.941C107.064 214.773 105.864 214.613 104.152 214.197C102.424 213.781 100.568 213.269 100.568 211.029C100.568 208.901 102.392 207.541 104.712 207.541C106.68 207.541 108.216 208.469 108.984 209.669L107.48 210.965C106.84 209.973 105.992 209.285 104.648 209.285C103.416 209.285 102.568 209.909 102.568 210.821C102.568 211.829 103.448 212.037 105 212.389C106.856 212.805 109.08 213.237 109.08 215.733C109.08 217.989 107.096 219.381 104.728 219.381C102.76 219.381 100.808 218.437 99.9122 216.965ZM114.146 219.381C111.746 219.381 110.066 217.605 110.066 215.013C110.066 212.549 111.73 210.645 114.066 210.645C116.498 210.645 117.794 212.485 117.794 214.789V215.429H111.906C112.05 216.869 112.914 217.749 114.146 217.749C115.09 217.749 115.842 217.269 116.098 216.405L117.746 217.029C117.154 218.501 115.826 219.381 114.146 219.381ZM114.05 212.261C113.058 212.261 112.29 212.853 112.002 213.989H115.858C115.842 213.061 115.266 212.261 114.05 212.261ZM120.627 215.013C120.627 216.725 121.523 217.717 122.835 217.717C123.859 217.717 124.483 217.045 124.723 216.117L126.371 216.949C125.939 218.309 124.659 219.381 122.835 219.381C120.435 219.381 118.707 217.605 118.707 215.013C118.707 212.421 120.435 210.645 122.835 210.645C124.643 210.645 125.891 211.669 126.339 213.013L124.723 213.893C124.483 212.981 123.859 212.293 122.835 212.293C121.523 212.293 120.627 213.301 120.627 215.013ZM134.523 210.805V219.205H132.603V218.309C132.123 218.869 131.403 219.381 130.315 219.381C128.555 219.381 127.467 218.181 127.467 216.373V210.805H129.387V215.957C129.387 216.981 129.835 217.637 130.875 217.637C131.739 217.637 132.603 216.997 132.603 215.797V210.805H134.523ZM141.315 210.789V212.709C141.075 212.677 140.883 212.661 140.611 212.661C139.395 212.661 138.467 213.445 138.467 214.789V219.205H136.547V210.805H138.467V212.053C138.835 211.269 139.699 210.757 140.771 210.757C140.995 210.757 141.171 210.773 141.315 210.789ZM145.787 219.381C143.387 219.381 141.707 217.605 141.707 215.013C141.707 212.549 143.371 210.645 145.707 210.645C148.139 210.645 149.435 212.485 149.435 214.789V215.429H143.547C143.691 216.869 144.555 217.749 145.787 217.749C146.731 217.749 147.483 217.269 147.739 216.405L149.387 217.029C148.795 218.501 147.467 219.381 145.787 219.381ZM145.691 212.261C144.699 212.261 143.931 212.853 143.643 213.989H147.499C147.483 213.061 146.907 212.261 145.691 212.261Z" fill="#4D148C"/>
<path d="M42.8231 247.535H30.8821C29.3026 247.535 28.0391 248.748 28.0391 250.265V250.507C28.0391 251.963 29.3027 253.176 30.819 253.176H39.9169C41.4964 253.176 42.7599 254.389 42.7599 255.905V256.208C42.7599 257.725 41.4964 258.938 39.9169 258.938H28.0391" stroke="#2C007D" stroke-width="1.5"/>
<path fill-rule="evenodd" clip-rule="evenodd" d="M26.0849 256.875C24.9477 256.875 24 257.785 24 258.876C24 259.968 24.9477 260.878 26.0849 260.878C26.5272 260.878 26.9063 260.757 27.2222 260.514C27.4117 260.393 27.6012 260.211 27.7908 259.968C28.0435 259.665 28.1699 259.24 28.1699 258.876C28.1699 257.785 27.2222 256.875 26.0849 256.875ZM26.0849 260.514C25.1372 260.514 24.3791 259.786 24.3791 258.876C24.3791 257.967 25.1372 257.239 26.0849 257.239C27.0326 257.239 27.7908 257.967 27.7908 258.876C27.7276 259.786 27.0326 260.514 26.0849 260.514Z" fill="#FF5900"/>
<path fill-rule="evenodd" clip-rule="evenodd" d="M44.9131 245.533C43.7758 245.533 42.8281 246.443 42.8281 247.535C42.8281 248.626 43.7758 249.536 44.9131 249.536C45.3553 249.536 45.7344 249.415 46.0503 249.172C46.2398 249.051 46.4294 248.869 46.6189 248.626C46.8716 248.323 46.998 247.899 46.998 247.535C46.998 246.443 46.0503 245.533 44.9131 245.533ZM44.913 249.112C43.9654 249.112 43.2073 248.384 43.2073 247.474C43.2073 246.564 43.9654 245.836 44.913 245.836C45.8607 245.836 46.6189 246.564 46.6189 247.474C46.6189 248.384 45.7975 249.112 44.913 249.112Z" fill="#FF5900"/>
<path d="M60.088 247.717H67.864V249.509H62.104V252.389H66.952V254.181H62.104V257.413H67.864V259.205H60.088V247.717ZM69.3518 259.205V250.805H71.2718V251.701C71.7518 251.141 72.5038 250.645 73.5918 250.645C75.3518 250.645 76.4078 251.861 76.4078 253.669V259.205H74.4878V254.229C74.4878 253.189 74.0718 252.437 73.0158 252.437C72.1518 252.437 71.2718 253.077 71.2718 254.277V259.205H69.3518ZM81.5354 259.381C79.1834 259.381 77.8394 257.397 77.8394 255.013C77.8394 252.629 79.1834 250.645 81.5354 250.645C82.6234 250.645 83.4234 251.077 83.9514 251.701V247.717H85.8714V259.205H83.9514V258.325C83.4234 258.949 82.6234 259.381 81.5354 259.381ZM83.9994 254.773C83.9994 253.189 83.1034 252.325 81.9194 252.325C80.5274 252.325 79.7754 253.413 79.7754 255.013C79.7754 256.613 80.5274 257.701 81.9194 257.701C83.1034 257.701 83.9994 256.821 83.9994 255.269V254.773ZM87.515 255.397V253.685H91.995V255.397H87.515ZM93.8246 257.093V252.437H92.6566V250.805H93.8246V248.341H95.7126V250.805H97.4726V252.437H95.7126V256.789C95.7126 257.541 96.1446 257.621 96.8326 257.621C97.1526 257.621 97.3286 257.605 97.6166 257.573V259.189C97.2646 259.253 96.7846 259.301 96.2886 259.301C94.6886 259.301 93.8246 258.805 93.8246 257.093ZM106.545 255.013C106.545 257.621 104.865 259.381 102.497 259.381C100.129 259.381 98.4488 257.621 98.4488 255.013C98.4488 252.405 100.129 250.645 102.497 250.645C104.865 250.645 106.545 252.405 106.545 255.013ZM100.385 255.013C100.385 256.725 101.201 257.765 102.497 257.765C103.793 257.765 104.609 256.725 104.609 255.013C104.609 253.301 103.793 252.261 102.497 252.261C101.201 252.261 100.385 253.301 100.385 255.013ZM107.984 255.397V253.685H112.464V255.397H107.984ZM114.197 247.717H121.973V249.509H116.213V252.389H121.061V254.181H116.213V257.413H121.973V259.205H114.197V247.717ZM123.461 259.205V250.805H125.381V251.701C125.861 251.141 126.613 250.645 127.701 250.645C129.461 250.645 130.517 251.861 130.517 253.669V259.205H128.597V254.229C128.597 253.189 128.181 252.437 127.125 252.437C126.261 252.437 125.381 253.077 125.381 254.277V259.205H123.461ZM135.645 259.381C133.293 259.381 131.949 257.397 131.949 255.013C131.949 252.629 133.293 250.645 135.645 250.645C136.733 250.645 137.533 251.077 138.061 251.701V247.717H139.981V259.205H138.061V258.325C137.533 258.949 136.733 259.381 135.645 259.381ZM138.109 254.773C138.109 253.189 137.213 252.325 136.029 252.325C134.637 252.325 133.885 253.413 133.885 255.013C133.885 256.613 134.637 257.701 136.029 257.701C137.213 257.701 138.109 256.821 138.109 255.269V254.773ZM144.201 256.965L145.769 255.669C146.569 256.917 147.769 257.637 149.081 257.637C150.377 257.637 151.353 257.045 151.353 255.941C151.353 254.773 150.153 254.613 148.441 254.197C146.713 253.781 144.857 253.269 144.857 251.029C144.857 248.901 146.681 247.541 149.001 247.541C150.969 247.541 152.505 248.469 153.273 249.669L151.769 250.965C151.129 249.973 150.281 249.285 148.937 249.285C147.705 249.285 146.857 249.909 146.857 250.821C146.857 251.829 147.737 252.037 149.289 252.389C151.145 252.805 153.369 253.237 153.369 255.733C153.369 257.989 151.385 259.381 149.017 259.381C147.049 259.381 145.097 258.437 144.201 256.965ZM161.719 250.805V259.205H159.799V258.309C159.319 258.869 158.599 259.381 157.511 259.381C155.751 259.381 154.663 258.181 154.663 256.373V250.805H156.583V255.957C156.583 256.981 157.031 257.637 158.071 257.637C158.935 257.637 159.799 256.997 159.799 255.797V250.805H161.719ZM168.078 259.381C166.99 259.381 166.19 258.949 165.662 258.325V262.085H163.742V250.805H165.662V251.701C166.19 251.077 166.99 250.645 168.078 250.645C170.43 250.645 171.774 252.629 171.774 255.013C171.774 257.397 170.43 259.381 168.078 259.381ZM165.614 254.773V255.269C165.614 256.821 166.51 257.701 167.694 257.701C169.086 257.701 169.838 256.613 169.838 255.013C169.838 253.413 169.086 252.325 167.694 252.325C166.51 252.325 165.614 253.189 165.614 254.773ZM177.594 259.381C176.506 259.381 175.706 258.949 175.178 258.325V262.085H173.258V250.805H175.178V251.701C175.706 251.077 176.506 250.645 177.594 250.645C179.946 250.645 181.29 252.629 181.29 255.013C181.29 257.397 179.946 259.381 177.594 259.381ZM175.13 254.773V255.269C175.13 256.821 176.026 257.701 177.21 257.701C178.602 257.701 179.354 256.613 179.354 255.013C179.354 253.413 178.602 252.325 177.21 252.325C176.026 252.325 175.13 253.189 175.13 254.773ZM190.342 255.013C190.342 257.621 188.662 259.381 186.294 259.381C183.926 259.381 182.246 257.621 182.246 255.013C182.246 252.405 183.926 250.645 186.294 250.645C188.662 250.645 190.342 252.405 190.342 255.013ZM184.182 255.013C184.182 256.725 184.998 257.765 186.294 257.765C187.59 257.765 188.406 256.725 188.406 255.013C188.406 253.301 187.59 252.261 186.294 252.261C184.998 252.261 184.182 253.301 184.182 255.013ZM196.604 250.789V252.709C196.364 252.677 196.172 252.661 195.9 252.661C194.684 252.661 193.756 253.445 193.756 254.789V259.205H191.836V250.805H193.756V252.053C194.124 251.269 194.988 250.757 196.06 250.757C196.284 250.757 196.46 250.773 196.604 250.789ZM198.262 257.093V252.437H197.094V250.805H198.262V248.341H200.15V250.805H201.91V252.437H200.15V256.789C200.15 257.541 200.582 257.621 201.27 257.621C201.59 257.621 201.766 257.605 202.054 257.573V259.189C201.702 259.253 201.222 259.301 200.726 259.301C199.126 259.301 198.262 258.805 198.262 257.093Z" fill="#4D148C"/>
<mask id="mask1_1151_4815" style="mask-type:luminance" maskUnits="userSpaceOnUse" x="24" y="281" width="24" height="25">
<path d="M24 281.205H48V305.205H24V281.205Z" fill="white"/>
</mask>
<g mask="url(#mask1_1151_4815)">
<path fill-rule="evenodd" clip-rule="evenodd" d="M40.3552 290.937C40.3552 290.981 40.3996 291.026 40.4441 291.07L40.8886 290.626H40.8441V290.537C40.7107 289.915 40.4885 289.337 40.2663 288.804L40.1774 288.759L41.2885 287.648C41.4663 287.47 41.5552 287.204 41.5552 286.937C41.5552 286.67 41.4663 286.404 41.2441 286.226L40.1774 285.159C39.7775 284.759 39.1107 284.759 38.7108 285.159L37.6441 286.226L37.5552 286.181C37.0218 285.915 36.4441 285.737 35.8219 285.604H35.733V284.093C35.733 283.515 35.2885 283.07 34.7108 283.07H33.9552C33.3774 283.07 32.933 283.515 32.933 284.093V285.559H32.8441C32.2219 285.693 31.6441 285.915 31.1108 286.137L31.0219 286.181L29.9552 285.115C29.5552 284.715 28.8885 284.715 28.533 285.115L27.4663 286.181C27.0663 286.581 27.0663 287.248 27.4663 287.604L28.533 288.67L28.4885 288.759C28.2219 289.293 28.0441 289.87 27.9108 290.493V290.581H26.4441C25.8663 290.581 25.4219 291.026 25.4219 291.604V292.359C25.4219 292.937 25.8663 293.381 26.4441 293.381H27.9552V293.47C28.0885 294.048 28.2663 294.581 28.533 295.204L28.5774 295.293L27.4663 296.404C27.2885 296.581 27.1997 296.848 27.1997 297.115C27.1997 297.381 27.2885 297.648 27.5108 297.826L28.5774 298.893C28.9774 299.293 29.6441 299.293 29.9997 298.893L31.0663 297.826L31.1552 297.87C31.733 298.137 32.3108 298.315 32.8885 298.448L32.9774 298.492L33.4219 298.048C33.3774 298.004 33.333 298.004 33.2885 298.004C32.533 297.826 31.8219 297.604 31.1552 297.248C31.0219 297.204 30.933 297.204 30.8441 297.292L29.6441 298.537C29.4663 298.715 29.1552 298.715 28.933 298.537L27.8663 297.47C27.6885 297.248 27.6885 296.981 27.8663 296.759L29.0663 295.559C29.1552 295.47 29.1552 295.381 29.1108 295.248C28.7552 294.581 28.533 293.87 28.3552 293.115C28.3108 292.981 28.2219 292.893 28.0885 292.893H26.4441C26.1774 292.893 25.9552 292.67 25.9552 292.404V291.648C25.9552 291.381 26.1774 291.159 26.4441 291.159H28.133C28.2663 291.159 28.3552 291.07 28.3997 290.937C28.5774 290.181 28.7997 289.47 29.1552 288.804C29.1996 288.715 29.1996 288.581 29.1108 288.493L27.9108 287.293C27.733 287.115 27.733 286.804 27.9108 286.581L28.9774 285.515C29.1996 285.337 29.5108 285.337 29.6885 285.515L30.8885 286.715C30.9774 286.804 31.0663 286.804 31.1997 286.759C31.9108 286.404 32.6219 286.181 33.333 286.004C33.4663 285.959 33.5552 285.87 33.5552 285.737V284.093C33.5552 283.826 33.7774 283.604 34.0441 283.604H34.7997C35.0663 283.604 35.2885 283.826 35.2885 284.093V285.781C35.2885 285.915 35.3774 286.004 35.5108 286.048C36.2663 286.226 36.9774 286.448 37.6441 286.804C37.733 286.848 37.8663 286.848 37.9552 286.759L39.1107 285.559C39.2885 285.381 39.5997 285.381 39.8219 285.559L40.8886 286.626C41.0663 286.848 41.0663 287.115 40.8886 287.337L39.6886 288.537C39.5997 288.626 39.5997 288.715 39.6441 288.848C39.9552 289.47 40.2219 290.226 40.3552 290.937Z" fill="#FF5900"/>
<path fill-rule="evenodd" clip-rule="evenodd" d="M34.27 288.314C32.1811 288.314 30.4922 290.003 30.4922 292.092C30.4922 294.181 32.1811 295.87 34.27 295.87C35.0255 295.87 35.7811 295.648 36.3588 295.203C36.7589 294.937 37.07 294.626 37.3366 294.226L37.3811 294.181C37.781 293.559 38.0478 292.848 38.0478 292.092C38.0478 290.003 36.3588 288.314 34.27 288.314Z" stroke="#2C007D" stroke-width="1.5"/>
<path fill-rule="evenodd" clip-rule="evenodd" d="M33.3734 300.27L34.6179 301.514C34.7512 301.648 34.9734 301.648 35.1068 301.514L46.2623 290.359C46.3956 290.225 46.3956 290.003 46.2623 289.87L45.0179 288.625C44.8845 288.492 44.6623 288.492 44.529 288.625L33.3734 299.781C33.2401 299.914 33.2401 300.136 33.3734 300.27Z" fill="white" stroke="#FF5900" stroke-width="1.5"/>
<path fill-rule="evenodd" clip-rule="evenodd" d="M34.0398 302.671L31.6842 303.293C31.5953 303.337 31.5064 303.248 31.5509 303.159L32.1731 300.804C32.2175 300.715 32.3064 300.67 32.3509 300.759L34.0842 302.493C34.1731 302.582 34.1287 302.671 34.0398 302.671Z" fill="#FF5900"/>
</g>
<path d="M63.104 299.205H61.088V287.717H68.752V289.509H63.104V292.629H67.84V294.421H63.104V299.205ZM76.4375 290.805V299.205H74.5175V298.309C74.0375 298.869 73.3175 299.381 72.2295 299.381C70.4695 299.381 69.3815 298.181 69.3815 296.373V290.805H71.3015V295.957C71.3015 296.981 71.7495 297.637 72.7895 297.637C73.6535 297.637 74.5175 296.997 74.5175 295.797V290.805H76.4375ZM80.3811 287.717V299.205H78.4611V287.717H80.3811ZM84.3186 287.717V299.205H82.3986V287.717H84.3186ZM89.9841 299.989C89.5041 301.269 88.7681 302.149 87.0241 302.149C86.6241 302.149 86.5121 302.133 86.2401 302.101V300.485C86.4961 300.517 86.6401 300.533 86.8801 300.533C87.5201 300.533 87.8241 300.357 88.0961 299.685L88.4161 298.901L85.3601 290.805H87.3761L89.4401 296.693L91.4561 290.805H93.4401L89.9841 299.989ZM99.3096 293.461C99.3096 295.941 100.654 297.573 102.542 297.573C103.886 297.573 104.862 296.757 105.214 295.413L107.134 296.069C106.462 298.101 104.862 299.381 102.542 299.381C99.4856 299.381 97.2616 296.949 97.2616 293.461C97.2616 289.973 99.4856 287.541 102.542 287.541C104.862 287.541 106.462 288.821 107.134 290.853L105.214 291.509C104.862 290.165 103.886 289.349 102.542 289.349C100.654 289.349 99.3096 290.981 99.3096 293.461ZM115.438 290.805V299.205H113.518V298.309C113.038 298.869 112.318 299.381 111.23 299.381C109.47 299.381 108.382 298.181 108.382 296.373V290.805H110.302V295.957C110.302 296.981 110.75 297.637 111.79 297.637C112.654 297.637 113.518 296.997 113.518 295.797V290.805H115.438ZM116.581 297.605L118.021 296.453C118.517 297.269 119.477 297.813 120.453 297.813C121.269 297.813 122.021 297.525 122.021 296.773C122.021 296.053 121.317 295.973 119.989 295.701C118.661 295.429 117.141 295.093 117.141 293.301C117.141 291.765 118.485 290.645 120.421 290.645C121.893 290.645 123.205 291.301 123.813 292.229L122.517 293.397C122.037 292.645 121.237 292.213 120.309 292.213C119.525 292.213 119.013 292.565 119.013 293.125C119.013 293.733 119.621 293.845 120.677 294.069C122.101 294.373 123.893 294.677 123.893 296.597C123.893 298.293 122.341 299.381 120.437 299.381C118.885 299.381 117.333 298.757 116.581 297.605ZM125.543 297.093V292.437H124.375V290.805H125.543V288.341H127.431V290.805H129.191V292.437H127.431V296.789C127.431 297.541 127.863 297.621 128.551 297.621C128.871 297.621 129.047 297.605 129.335 297.573V299.189C128.983 299.253 128.503 299.301 128.007 299.301C126.407 299.301 125.543 298.805 125.543 297.093ZM138.264 295.013C138.264 297.621 136.584 299.381 134.216 299.381C131.848 299.381 130.168 297.621 130.168 295.013C130.168 292.405 131.848 290.645 134.216 290.645C136.584 290.645 138.264 292.405 138.264 295.013ZM132.104 295.013C132.104 296.725 132.92 297.765 134.216 297.765C135.512 297.765 136.328 296.725 136.328 295.013C136.328 293.301 135.512 292.261 134.216 292.261C132.92 292.261 132.104 293.301 132.104 295.013ZM141.678 294.277V299.205H139.758V290.805H141.678V291.701C142.142 291.141 142.862 290.645 143.982 290.645C144.99 290.645 145.742 291.093 146.206 291.813C146.718 291.269 147.518 290.645 148.814 290.645C150.542 290.645 151.662 291.861 151.662 293.669V299.205H149.742V294.229C149.742 293.189 149.358 292.437 148.334 292.437C147.518 292.437 146.67 293.077 146.67 294.277V299.205H144.75V294.229C144.75 293.189 144.366 292.437 143.342 292.437C142.526 292.437 141.678 293.077 141.678 294.277ZM153.585 289.685V287.717H155.569V289.685H153.585ZM155.537 290.805V299.205H153.617V290.805H155.537ZM163.955 297.573V299.205H157.107V297.765L161.619 292.437H157.171V290.805H163.907V292.261L159.523 297.573H163.955ZM167.685 299.349C166.085 299.349 164.853 298.373 164.853 296.869C164.853 295.269 166.053 294.565 167.669 294.229L169.989 293.749V293.605C169.989 292.805 169.573 292.309 168.549 292.309C167.637 292.309 167.157 292.725 166.933 293.541L165.125 293.125C165.541 291.733 166.773 290.645 168.629 290.645C170.645 290.645 171.861 291.605 171.861 293.541V297.157C171.861 297.637 172.069 297.781 172.597 297.717V299.205C171.205 299.365 170.469 299.093 170.181 298.405C169.653 298.997 168.773 299.349 167.685 299.349ZM169.989 296.245V295.221L168.181 295.605C167.365 295.781 166.757 296.037 166.757 296.789C166.757 297.445 167.237 297.813 167.973 297.813C168.997 297.813 169.989 297.269 169.989 296.245ZM178.297 299.381C177.209 299.381 176.409 298.949 175.881 298.325V299.205H173.961V287.717H175.881V291.701C176.409 291.077 177.209 290.645 178.297 290.645C180.649 290.645 181.993 292.629 181.993 295.013C181.993 297.397 180.649 299.381 178.297 299.381ZM175.833 294.773V295.269C175.833 296.821 176.729 297.701 177.913 297.701C179.305 297.701 180.057 296.613 180.057 295.013C180.057 293.413 179.305 292.325 177.913 292.325C176.729 292.325 175.833 293.189 175.833 294.773ZM185.397 287.717V299.205H183.477V287.717H185.397ZM190.966 299.381C188.566 299.381 186.886 297.605 186.886 295.013C186.886 292.549 188.55 290.645 190.886 290.645C193.318 290.645 194.614 292.485 194.614 294.789V295.429H188.726C188.87 296.869 189.734 297.749 190.966 297.749C191.91 297.749 192.662 297.269 192.918 296.405L194.566 297.029C193.974 298.501 192.646 299.381 190.966 299.381ZM190.87 292.261C189.878 292.261 189.11 292.853 188.822 293.989H192.678C192.662 293.061 192.086 292.261 190.87 292.261Z" fill="#4D148C"/>
<path fill-rule="evenodd" clip-rule="evenodd" d="M30.5347 329.844C30.9998 329.844 31.4649 330.03 31.8254 330.402L32.4649 331.065C32.4882 331.1 32.5347 331.111 32.5812 331.111C32.6277 331.111 32.6626 331.1 32.6975 331.065L33.3254 330.402C34.0463 329.658 35.1743 329.658 35.8952 330.402C36.6161 331.146 36.6161 332.355 35.8952 333.1C34.7905 334.251 33.6859 335.402 32.5812 336.553L29.2673 333.1C28.5463 332.355 28.5463 331.146 29.2673 330.402C29.6161 330.03 30.0812 329.844 30.5347 329.844Z" fill="white" stroke="#332977" stroke-width="1.5"/>
<path fill-rule="evenodd" clip-rule="evenodd" d="M24.6628 335.821V345.205H41.1395V340.1H39.5115V344.042H26.2907V335.821H27.0814L25.5349 333.938L24 335.821H24.6628Z" fill="#F15B22"/>
<path fill-rule="evenodd" clip-rule="evenodd" d="M40.4767 330.577V321.205H24V326.31H25.6279V322.368H38.8605V330.577H38.0697L39.6046 332.473L41.1395 330.577H40.4767Z" fill="#F15B22"/>
<path d="M56.2766 327.717V339.205H54.2286V327.717H56.2766ZM60.2874 334.277V339.205H58.3674V330.805H60.2874V331.701C60.7514 331.141 61.4714 330.645 62.5914 330.645C63.5994 330.645 64.3514 331.093 64.8154 331.813C65.3274 331.269 66.1274 330.645 67.4234 330.645C69.1514 330.645 70.2714 331.861 70.2714 333.669V339.205H68.3514V334.229C68.3514 333.189 67.9674 332.437 66.9434 332.437C66.1274 332.437 65.2794 333.077 65.2794 334.277V339.205H63.3594V334.229C63.3594 333.189 62.9754 332.437 61.9514 332.437C61.1354 332.437 60.2874 333.077 60.2874 334.277ZM76.5628 339.381C75.4748 339.381 74.6748 338.949 74.1468 338.325V342.085H72.2268V330.805H74.1468V331.701C74.6748 331.077 75.4748 330.645 76.5628 330.645C78.9148 330.645 80.2587 332.629 80.2587 335.013C80.2587 337.397 78.9148 339.381 76.5628 339.381ZM74.0988 334.773V335.269C74.0988 336.821 74.9948 337.701 76.1788 337.701C77.5708 337.701 78.3228 336.613 78.3228 335.013C78.3228 333.413 77.5708 332.325 76.1788 332.325C74.9948 332.325 74.0988 333.189 74.0988 334.773ZM86.5104 330.789V332.709C86.2704 332.677 86.0784 332.661 85.8064 332.661C84.5904 332.661 83.6624 333.445 83.6624 334.789V339.205H81.7424V330.805H83.6624V332.053C84.0304 331.269 84.8944 330.757 85.9664 330.757C86.1904 330.757 86.3664 330.773 86.5104 330.789ZM94.9979 335.013C94.9979 337.621 93.3179 339.381 90.9499 339.381C88.5819 339.381 86.9019 337.621 86.9019 335.013C86.9019 332.405 88.5819 330.645 90.9499 330.645C93.3179 330.645 94.9979 332.405 94.9979 335.013ZM88.8379 335.013C88.8379 336.725 89.6539 337.765 90.9499 337.765C92.2459 337.765 93.0619 336.725 93.0619 335.013C93.0619 333.301 92.2459 332.261 90.9499 332.261C89.6539 332.261 88.8379 333.301 88.8379 335.013ZM100.321 339.205H98.3853L95.3133 330.805H97.3293L99.3773 336.901L101.409 330.805H103.393L100.321 339.205ZM107.779 339.381C105.379 339.381 103.699 337.605 103.699 335.013C103.699 332.549 105.363 330.645 107.699 330.645C110.131 330.645 111.427 332.485 111.427 334.789V335.429H105.539C105.683 336.869 106.547 337.749 107.779 337.749C108.723 337.749 109.475 337.269 109.731 336.405L111.379 337.029C110.787 338.501 109.459 339.381 107.779 339.381ZM107.683 332.261C106.691 332.261 105.923 332.853 105.635 333.989H109.491C109.475 333.061 108.899 332.261 107.683 332.261ZM116.035 339.381C113.683 339.381 112.339 337.397 112.339 335.013C112.339 332.629 113.683 330.645 116.035 330.645C117.123 330.645 117.923 331.077 118.451 331.701V327.717H120.371V339.205H118.451V338.325C117.923 338.949 117.123 339.381 116.035 339.381ZM118.499 334.773C118.499 333.189 117.603 332.325 116.419 332.325C115.027 332.325 114.275 333.413 114.275 335.013C114.275 336.613 115.027 337.701 116.419 337.701C117.603 337.701 118.499 336.821 118.499 335.269V334.773ZM127.216 333.461C127.216 335.941 128.56 337.573 130.448 337.573C131.792 337.573 132.768 336.757 133.12 335.413L135.04 336.069C134.368 338.101 132.768 339.381 130.448 339.381C127.392 339.381 125.168 336.949 125.168 333.461C125.168 329.973 127.392 327.541 130.448 327.541C132.768 327.541 134.368 328.821 135.04 330.853L133.12 331.509C132.768 330.165 131.792 329.349 130.448 329.349C128.56 329.349 127.216 330.981 127.216 333.461ZM143.344 330.805V339.205H141.424V338.309C140.944 338.869 140.224 339.381 139.136 339.381C137.376 339.381 136.288 338.181 136.288 336.373V330.805H138.208V335.957C138.208 336.981 138.656 337.637 139.696 337.637C140.56 337.637 141.424 336.997 141.424 335.797V330.805H143.344ZM144.487 337.605L145.927 336.453C146.423 337.269 147.383 337.813 148.359 337.813C149.175 337.813 149.927 337.525 149.927 336.773C149.927 336.053 149.223 335.973 147.895 335.701C146.567 335.429 145.047 335.093 145.047 333.301C145.047 331.765 146.391 330.645 148.327 330.645C149.799 330.645 151.111 331.301 151.719 332.229L150.423 333.397C149.943 332.645 149.143 332.213 148.215 332.213C147.431 332.213 146.919 332.565 146.919 333.125C146.919 333.733 147.527 333.845 148.583 334.069C150.007 334.373 151.799 334.677 151.799 336.597C151.799 338.293 150.247 339.381 148.343 339.381C146.791 339.381 145.239 338.757 144.487 337.605ZM153.45 337.093V332.437H152.282V330.805H153.45V328.341H155.338V330.805H157.098V332.437H155.338V336.789C155.338 337.541 155.77 337.621 156.458 337.621C156.778 337.621 156.954 337.605 157.242 337.573V339.189C156.89 339.253 156.41 339.301 155.914 339.301C154.314 339.301 153.45 338.805 153.45 337.093ZM166.17 335.013C166.17 337.621 164.49 339.381 162.122 339.381C159.754 339.381 158.074 337.621 158.074 335.013C158.074 332.405 159.754 330.645 162.122 330.645C164.49 330.645 166.17 332.405 166.17 335.013ZM160.01 335.013C160.01 336.725 160.826 337.765 162.122 337.765C163.418 337.765 164.234 336.725 164.234 335.013C164.234 333.301 163.418 332.261 162.122 332.261C160.826 332.261 160.01 333.301 160.01 335.013ZM169.584 334.277V339.205H167.664V330.805H169.584V331.701C170.048 331.141 170.768 330.645 171.888 330.645C172.896 330.645 173.648 331.093 174.112 331.813C174.624 331.269 175.424 330.645 176.72 330.645C178.448 330.645 179.568 331.861 179.568 333.669V339.205H177.648V334.229C177.648 333.189 177.264 332.437 176.24 332.437C175.424 332.437 174.576 333.077 174.576 334.277V339.205H172.656V334.229C172.656 333.189 172.272 332.437 171.248 332.437C170.432 332.437 169.584 333.077 169.584 334.277ZM185.076 339.381C182.676 339.381 180.996 337.605 180.996 335.013C180.996 332.549 182.66 330.645 184.996 330.645C187.428 330.645 188.724 332.485 188.724 334.789V335.429H182.836C182.98 336.869 183.844 337.749 185.076 337.749C186.02 337.749 186.772 337.269 187.028 336.405L188.676 337.029C188.084 338.501 186.756 339.381 185.076 339.381ZM184.98 332.261C183.988 332.261 183.22 332.853 182.932 333.989H186.788C186.772 333.061 186.196 332.261 184.98 332.261ZM194.932 330.789V332.709C194.692 332.677 194.5 332.661 194.228 332.661C193.012 332.661 192.084 333.445 192.084 334.789V339.205H190.164V330.805H192.084V332.053C192.452 331.269 193.316 330.757 194.388 330.757C194.612 330.757 194.788 330.773 194.932 330.789ZM199.635 339.205V327.717H201.683V337.413H207.091V339.205H199.635ZM215.748 335.013C215.748 337.621 214.068 339.381 211.7 339.381C209.332 339.381 207.652 337.621 207.652 335.013C207.652 332.405 209.332 330.645 211.7 330.645C214.068 330.645 215.748 332.405 215.748 335.013ZM209.588 335.013C209.588 336.725 210.404 337.765 211.7 337.765C212.996 337.765 213.812 336.725 213.812 335.013C213.812 333.301 212.996 332.261 211.7 332.261C210.404 332.261 209.588 333.301 209.588 335.013ZM220.656 339.989C220.176 341.269 219.44 342.149 217.696 342.149C217.296 342.149 217.184 342.133 216.912 342.101V340.485C217.168 340.517 217.312 340.533 217.552 340.533C218.192 340.533 218.496 340.357 218.768 339.685L219.088 338.901L216.032 330.805H218.048L220.112 336.693L222.128 330.805H224.112L220.656 339.989ZM226.966 339.349C225.366 339.349 224.134 338.373 224.134 336.869C224.134 335.269 225.334 334.565 226.95 334.229L229.27 333.749V333.605C229.27 332.805 228.854 332.309 227.83 332.309C226.918 332.309 226.438 332.725 226.214 333.541L224.406 333.125C224.822 331.733 226.054 330.645 227.91 330.645C229.926 330.645 231.142 331.605 231.142 333.541V337.157C231.142 337.637 231.35 337.781 231.878 337.717V339.205C230.486 339.365 229.75 339.093 229.462 338.405C228.934 338.997 228.054 339.349 226.966 339.349ZM229.27 336.245V335.221L227.462 335.605C226.646 335.781 226.038 336.037 226.038 336.789C226.038 337.445 226.518 337.813 227.254 337.813C228.278 337.813 229.27 337.269 229.27 336.245ZM235.162 327.717V339.205H233.242V327.717H235.162ZM237.356 337.093V332.437H236.188V330.805H237.356V328.341H239.244V330.805H241.004V332.437H239.244V336.789C239.244 337.541 239.676 337.621 240.364 337.621C240.684 337.621 240.86 337.605 241.148 337.573V339.189C240.796 339.253 240.316 339.301 239.82 339.301C238.22 339.301 237.356 338.805 237.356 337.093ZM246.234 339.989C245.754 341.269 245.018 342.149 243.274 342.149C242.874 342.149 242.762 342.133 242.49 342.101V340.485C242.746 340.517 242.89 340.533 243.13 340.533C243.77 340.533 244.074 340.357 244.346 339.685L244.666 338.901L241.61 330.805H243.626L245.69 336.693L247.706 330.805H249.69L246.234 339.989Z" fill="#4D148C"/>
<mask id="mask2_1151_4815" style="mask-type:luminance" maskUnits="userSpaceOnUse" x="24" y="361" width="21" height="25">
<path d="M24 361.205H44.2556V385.205H24V361.205Z" fill="white"/>
</mask>
<g mask="url(#mask2_1151_4815)">
<path fill-rule="evenodd" clip-rule="evenodd" d="M34.1309 384.89L24.4609 378.271L34.1826 371.652L43.8008 377.961L34.1309 384.89Z" fill="white" stroke="#FF5900" stroke-width="1.5"/>
<path fill-rule="evenodd" clip-rule="evenodd" d="M34.1309 379.824L24.4609 373.205L34.1826 366.586L43.8008 372.895L34.1309 379.824Z" fill="white" stroke="#FF5900" stroke-width="1.5"/>
<path fill-rule="evenodd" clip-rule="evenodd" d="M34.1309 374.756L24.4609 368.137L34.1826 361.518L43.8008 367.826L34.1309 374.756Z" fill="white" stroke="#FF5900" stroke-width="1.5"/>
</g>
<path d="M58.8018 373.461C58.8018 375.941 60.1458 377.573 62.0338 377.573C63.3778 377.573 64.3538 376.757 64.7058 375.413L66.6258 376.069C65.9538 378.101 64.3538 379.381 62.0338 379.381C58.9778 379.381 56.7538 376.949 56.7538 373.461C56.7538 369.973 58.9778 367.541 62.0338 367.541C64.3538 367.541 65.9538 368.821 66.6258 370.853L64.7058 371.509C64.3538 370.165 63.3778 369.349 62.0338 369.349C60.1458 369.349 58.8018 370.981 58.8018 373.461ZM74.9297 370.805V379.205H73.0097V378.309C72.5297 378.869 71.8097 379.381 70.7217 379.381C68.9617 379.381 67.8737 378.181 67.8737 376.373V370.805H69.7937V375.957C69.7937 376.981 70.2417 377.637 71.2817 377.637C72.1457 377.637 73.0097 376.997 73.0097 375.797V370.805H74.9297ZM76.0733 377.605L77.5133 376.453C78.0093 377.269 78.9693 377.813 79.9453 377.813C80.7613 377.813 81.5133 377.525 81.5133 376.773C81.5133 376.053 80.8093 375.973 79.4813 375.701C78.1533 375.429 76.6333 375.093 76.6333 373.301C76.6333 371.765 77.9773 370.645 79.9133 370.645C81.3853 370.645 82.6973 371.301 83.3053 372.229L82.0093 373.397C81.5293 372.645 80.7293 372.213 79.8013 372.213C79.0173 372.213 78.5053 372.565 78.5053 373.125C78.5053 373.733 79.1133 373.845 80.1693 374.069C81.5933 374.373 83.3853 374.677 83.3853 376.597C83.3853 378.293 81.8333 379.381 79.9293 379.381C78.3773 379.381 76.8253 378.757 76.0733 377.605ZM85.0356 377.093V372.437H83.8676V370.805H85.0356V368.341H86.9236V370.805H88.6836V372.437H86.9236V376.789C86.9236 377.541 87.3556 377.621 88.0436 377.621C88.3636 377.621 88.5396 377.605 88.8276 377.573V379.189C88.4756 379.253 87.9956 379.301 87.4996 379.301C85.8996 379.301 85.0356 378.805 85.0356 377.093ZM97.7557 375.013C97.7557 377.621 96.0757 379.381 93.7077 379.381C91.3397 379.381 89.6597 377.621 89.6597 375.013C89.6597 372.405 91.3397 370.645 93.7077 370.645C96.0757 370.645 97.7557 372.405 97.7557 375.013ZM91.5957 375.013C91.5957 376.725 92.4117 377.765 93.7077 377.765C95.0037 377.765 95.8197 376.725 95.8197 375.013C95.8197 373.301 95.0037 372.261 93.7077 372.261C92.4117 372.261 91.5957 373.301 91.5957 375.013ZM101.17 374.277V379.205H99.2502V370.805H101.17V371.701C101.634 371.141 102.354 370.645 103.474 370.645C104.482 370.645 105.234 371.093 105.698 371.813C106.21 371.269 107.01 370.645 108.306 370.645C110.034 370.645 111.154 371.861 111.154 373.669V379.205H109.234V374.229C109.234 373.189 108.85 372.437 107.826 372.437C107.01 372.437 106.162 373.077 106.162 374.277V379.205H104.242V374.229C104.242 373.189 103.858 372.437 102.834 372.437C102.018 372.437 101.17 373.077 101.17 374.277ZM116.486 379.205V367.717H120.326C123.894 367.717 126.102 369.957 126.102 373.461C126.102 376.965 123.894 379.205 120.326 379.205H116.486ZM118.486 377.445H120.326C122.694 377.445 124.086 375.877 124.086 373.461C124.086 371.029 122.694 369.477 120.31 369.477H118.486V377.445ZM131.177 379.381C128.777 379.381 127.097 377.605 127.097 375.013C127.097 372.549 128.761 370.645 131.097 370.645C133.529 370.645 134.825 372.485 134.825 374.789V375.429H128.937C129.081 376.869 129.945 377.749 131.177 377.749C132.121 377.749 132.873 377.269 133.129 376.405L134.777 377.029C134.185 378.501 132.857 379.381 131.177 379.381ZM131.081 372.261C130.089 372.261 129.321 372.853 129.033 373.989H132.889C132.873 373.061 132.297 372.261 131.081 372.261ZM140.602 379.381C139.514 379.381 138.714 378.949 138.186 378.325V382.085H136.266V370.805H138.186V371.701C138.714 371.077 139.514 370.645 140.602 370.645C142.954 370.645 144.298 372.629 144.298 375.013C144.298 377.397 142.954 379.381 140.602 379.381ZM138.138 374.773V375.269C138.138 376.821 139.034 377.701 140.218 377.701C141.61 377.701 142.362 376.613 142.362 375.013C142.362 373.413 141.61 372.325 140.218 372.325C139.034 372.325 138.138 373.189 138.138 374.773ZM147.701 367.717V379.205H145.781V367.717H147.701ZM157.287 375.013C157.287 377.621 155.607 379.381 153.239 379.381C150.871 379.381 149.191 377.621 149.191 375.013C149.191 372.405 150.871 370.645 153.239 370.645C155.607 370.645 157.287 372.405 157.287 375.013ZM151.127 375.013C151.127 376.725 151.943 377.765 153.239 377.765C154.535 377.765 155.351 376.725 155.351 375.013C155.351 373.301 154.535 372.261 153.239 372.261C151.943 372.261 151.127 373.301 151.127 375.013ZM162.195 379.989C161.715 381.269 160.979 382.149 159.235 382.149C158.835 382.149 158.723 382.133 158.451 382.101V380.485C158.707 380.517 158.851 380.533 159.091 380.533C159.731 380.533 160.035 380.357 160.307 379.685L160.627 378.901L157.571 370.805H159.587L161.651 376.693L163.667 370.805H165.651L162.195 379.989ZM168.608 374.277V379.205H166.688V370.805H168.608V371.701C169.072 371.141 169.792 370.645 170.912 370.645C171.92 370.645 172.672 371.093 173.136 371.813C173.648 371.269 174.448 370.645 175.744 370.645C177.472 370.645 178.592 371.861 178.592 373.669V379.205H176.672V374.229C176.672 373.189 176.288 372.437 175.264 372.437C174.448 372.437 173.6 373.077 173.6 374.277V379.205H171.68V374.229C171.68 373.189 171.296 372.437 170.272 372.437C169.456 372.437 168.608 373.077 168.608 374.277ZM184.099 379.381C181.699 379.381 180.019 377.605 180.019 375.013C180.019 372.549 181.683 370.645 184.019 370.645C186.451 370.645 187.747 372.485 187.747 374.789V375.429H181.859C182.003 376.869 182.867 377.749 184.099 377.749C185.043 377.749 185.795 377.269 186.051 376.405L187.699 377.029C187.107 378.501 185.779 379.381 184.099 379.381ZM184.003 372.261C183.011 372.261 182.243 372.853 181.955 373.989H185.811C185.795 373.061 185.219 372.261 184.003 372.261ZM189.188 379.205V370.805H191.108V371.701C191.588 371.141 192.34 370.645 193.428 370.645C195.188 370.645 196.244 371.861 196.244 373.669V379.205H194.324V374.229C194.324 373.189 193.908 372.437 192.852 372.437C191.988 372.437 191.108 373.077 191.108 374.277V379.205H189.188ZM198.379 377.093V372.437H197.211V370.805H198.379V368.341H200.267V370.805H202.027V372.437H200.267V376.789C200.267 377.541 200.699 377.621 201.387 377.621C201.707 377.621 201.883 377.605 202.171 377.573V379.189C201.819 379.253 201.339 379.301 200.843 379.301C199.243 379.301 198.379 378.805 198.379 377.093ZM205.818 376.965L207.386 375.669C208.186 376.917 209.386 377.637 210.698 377.637C211.994 377.637 212.97 377.045 212.97 375.941C212.97 374.773 211.77 374.613 210.058 374.197C208.33 373.781 206.474 373.269 206.474 371.029C206.474 368.901 208.298 367.541 210.618 367.541C212.586 367.541 214.122 368.469 214.89 369.669L213.386 370.965C212.746 369.973 211.898 369.285 210.554 369.285C209.322 369.285 208.474 369.909 208.474 370.821C208.474 371.829 209.354 372.037 210.906 372.389C212.762 372.805 214.986 373.237 214.986 375.733C214.986 377.989 213.002 379.381 210.634 379.381C208.666 379.381 206.714 378.437 205.818 376.965ZM216.676 377.093V372.437H215.508V370.805H216.676V368.341H218.564V370.805H220.324V372.437H218.564V376.789C218.564 377.541 218.996 377.621 219.684 377.621C220.004 377.621 220.18 377.605 220.468 377.573V379.189C220.116 379.253 219.636 379.301 219.14 379.301C217.54 379.301 216.676 378.805 216.676 377.093ZM224.13 379.349C222.53 379.349 221.298 378.373 221.298 376.869C221.298 375.269 222.498 374.565 224.114 374.229L226.434 373.749V373.605C226.434 372.805 226.018 372.309 224.994 372.309C224.082 372.309 223.602 372.725 223.378 373.541L221.57 373.125C221.986 371.733 223.218 370.645 225.074 370.645C227.09 370.645 228.306 371.605 228.306 373.541V377.157C228.306 377.637 228.514 377.781 229.042 377.717V379.205C227.65 379.365 226.914 379.093 226.626 378.405C226.098 378.997 225.218 379.349 224.13 379.349ZM226.434 376.245V375.221L224.626 375.605C223.81 375.781 223.202 376.037 223.202 376.789C223.202 377.445 223.682 377.813 224.418 377.813C225.442 377.813 226.434 377.269 226.434 376.245ZM231.798 375.013C231.798 376.725 232.694 377.717 234.006 377.717C235.03 377.717 235.654 377.045 235.894 376.117L237.542 376.949C237.11 378.309 235.83 379.381 234.006 379.381C231.606 379.381 229.878 377.605 229.878 375.013C229.878 372.421 231.606 370.645 234.006 370.645C235.814 370.645 237.062 371.669 237.51 373.013L235.894 373.893C235.654 372.981 235.03 372.293 234.006 372.293C232.694 372.293 231.798 373.301 231.798 375.013ZM240.623 367.717V374.341L243.855 370.805H246.207L243.039 374.069L246.463 379.205H244.239L241.727 375.413L240.623 376.533V379.205H238.703V367.717H240.623Z" fill="#4D148C"/>
<defs>
<linearGradient id="paint0_linear_1151_4815" x1="70.3151" y1="25.3425" x2="31.7507" y2="86.207" gradientUnits="userSpaceOnUse">
<stop stop-color="#CDE1FF"/>
<stop offset="0.501376" stop-color="#BF9BFF"/>
<stop offset="1" stop-color="#6E1DFF"/>
</linearGradient>
</defs>
</svg>
