<svg width="331" height="409" viewBox="0 0 331 409" fill="none" xmlns="http://www.w3.org/2000/svg">
<rect x="0.5" y="0.5" width="330" height="408" rx="7.5" fill="white" stroke="#4D148C"/>
<mask id="mask0_1162_4951" style="mask-type:luminance" maskUnits="userSpaceOnUse" x="24" y="24" width="45" height="36">
<path d="M24 24H68.3479V60H24V24Z" fill="white"/>
</mask>
<g mask="url(#mask0_1162_4951)">
<path d="M60.5946 26.962L66.8768 42.9666C67.0002 43.2808 67.068 43.6046 67.0811 43.9252C67.1475 45.1894 66.4061 46.4108 65.1598 46.9L35.5205 58.5342C33.9606 59.1466 32.1988 58.3796 31.5865 56.8197L25.3043 40.815C24.8158 39.5706 25.2062 38.1965 26.1778 37.3831C26.4237 37.1739 26.7053 37.0041 27.0207 36.8804L56.6601 25.2461C58.2204 24.6329 59.9822 25.4021 60.5946 26.962Z" fill="url(#paint0_linear_1162_4951)"/>
<path d="M37.5895 45.5917L31.9634 47.8001C31.6842 47.9097 31.3695 47.7725 31.26 47.4933L29.3346 42.5883C29.225 42.3091 29.3623 41.9944 29.6415 41.8848L35.2676 39.6764C35.5468 39.5668 35.8615 39.704 35.9711 39.9833L37.8964 44.8883C38.006 45.1675 37.8688 45.4822 37.5895 45.5917Z" fill="#2C007D"/>
<path d="M36.5183 52.2064L34.0521 53.1744C33.7944 53.2756 33.4573 53.0314 33.2995 52.6291C33.1415 52.2269 33.2225 51.8186 33.4803 51.7174L35.9464 50.7494C36.2041 50.6483 36.5412 50.8924 36.6991 51.2947C36.8567 51.6971 36.776 52.1053 36.5183 52.2064Z" fill="white"/>
<path d="M40.8932 50.4915L38.4271 51.4596C38.1694 51.5608 37.8323 51.3166 37.6744 50.9143C37.5165 50.512 37.5975 50.1038 37.8552 50.0026L40.3213 49.0346C40.5791 48.9334 40.9162 49.1775 41.074 49.5798C41.2319 49.9822 41.151 50.3904 40.8932 50.4915Z" fill="white"/>
<path d="M45.7526 48.5833L43.2865 49.5514C43.0287 49.6526 42.6916 49.4084 42.5338 49.0061C42.3759 48.6038 42.4569 48.1955 42.7146 48.0944L45.1807 47.1264C45.4385 47.0252 45.7755 47.2693 45.9335 47.6716C46.0913 48.0739 46.0103 48.4822 45.7526 48.5833Z" fill="white"/>
<path d="M50.1198 46.8685L47.6538 47.8365C47.396 47.9376 47.0589 47.6935 46.901 47.2912C46.7431 46.889 46.8241 46.4806 47.0819 46.3795L49.5479 45.4115C49.8057 45.3104 50.1428 45.5545 50.3006 45.9568C50.4582 46.3591 50.3776 46.7673 50.1198 46.8685Z" fill="white"/>
<path fill-rule="evenodd" clip-rule="evenodd" d="M35.2742 41.5792L36.4179 41.1304L36.348 40.9526L35.2044 41.4015C35.0028 41.4807 34.9029 41.7099 34.9825 41.9127L35.3849 42.938L34.6795 43.2149L34.4276 42.5733C34.3473 42.3686 34.1157 42.2681 33.9116 42.3482L33.2681 42.6008L32.5394 40.7441L32.3615 40.814L33.0903 42.6705L32.4631 42.9168C32.2591 42.9968 32.1579 43.2287 32.238 43.4328L32.4898 44.0744L31.7675 44.3579L31.365 43.3326C31.2854 43.1298 31.0568 43.0295 30.8546 43.1089L29.7109 43.5578L29.7808 43.7356L30.9244 43.2867C31.0283 43.2459 31.1462 43.2978 31.1876 43.403L32.0625 45.6321C32.1037 45.7373 32.0527 45.8555 31.9487 45.8963L30.8051 46.3452L30.8749 46.523L32.0185 46.0741C32.2201 45.995 32.3201 45.7657 32.2405 45.5629L31.8378 44.537L32.5601 44.2534L32.812 44.895C32.8923 45.0997 33.1242 45.2009 33.3283 45.1208L33.9555 44.8746L34.6842 46.7312L34.8621 46.6614L34.1333 44.8048L34.7767 44.5522C34.9808 44.4721 35.082 44.2402 35.0016 44.0355L34.7498 43.394L35.4552 43.117L35.8579 44.1429C35.9375 44.3458 36.1662 44.4461 36.3683 44.3667L37.512 43.9178L37.4422 43.74L36.2985 44.1889C36.1947 44.2297 36.0767 44.1777 36.0355 44.0726L35.1605 41.8435C35.1194 41.739 35.1703 41.6201 35.2742 41.5792ZM34.8236 44.1047C34.8654 44.2111 34.8132 44.3321 34.7061 44.374L33.2576 44.9426C33.1512 44.9844 33.03 44.9315 32.9882 44.8251L32.415 43.3648C32.3732 43.2583 32.4255 43.1374 32.5325 43.0954L33.981 42.5268C34.0874 42.4851 34.2085 42.538 34.2503 42.6443L34.8236 44.1047Z" fill="white" stroke="white" stroke-width="0.1"/>
<path fill-rule="evenodd" clip-rule="evenodd" d="M57.998 39.8545C57.5301 40.6134 57.4123 41.5754 57.7632 42.4691C58.114 43.363 58.8547 43.988 59.7139 44.2259C59.3919 44.7481 58.9042 45.1741 58.2891 45.4155C56.7804 46.0077 55.0772 45.2648 54.485 43.756C53.8927 42.2472 54.6357 40.544 56.1445 39.9518C56.7595 39.7104 57.4068 39.6908 57.998 39.8545Z" fill="#BF9BFF"/>
<path fill-rule="evenodd" clip-rule="evenodd" d="M57.9922 39.8562C58.8514 40.0941 59.5921 40.7192 59.9429 41.613C60.2937 42.5067 60.176 43.4687 59.7081 44.2276C60.2993 44.3913 60.9466 44.3718 61.5616 44.1304C63.0704 43.5381 63.8134 41.8349 63.2211 40.3261C62.6289 38.8174 60.9257 38.0743 59.4169 38.6666C58.8019 38.908 58.3142 39.334 57.9922 39.8562Z" fill="#BF9BFF"/>
<path fill-rule="evenodd" clip-rule="evenodd" d="M59.7091 44.2249C60.1769 43.466 60.2947 42.504 59.9438 41.6103C59.593 40.7165 58.8524 40.0915 57.9932 39.8535C57.5253 40.6124 57.4076 41.5744 57.7584 42.4682C58.1092 43.3619 58.8499 43.9869 59.7091 44.2249Z" fill="#2C007D"/>
<path d="M65.0448 33.2946V50.488C65.0448 50.8256 64.9896 51.1517 64.8847 51.455C64.4846 52.656 63.3481 53.5222 62.0093 53.5222H30.1683C28.4925 53.5222 27.1328 52.1645 27.1328 50.4887V33.2953C27.1328 31.9584 27.9983 30.8219 29.2 30.4198C29.5053 30.3149 29.8294 30.2598 30.1683 30.2598H62.0093C63.6857 30.2591 65.0448 31.6188 65.0448 33.2946Z" fill="url(#paint1_linear_1162_4951)"/>
<path d="M36.8133 42.2278H30.7692C30.4693 42.2278 30.2266 41.985 30.2266 41.6851V36.4157C30.2266 36.1158 30.4693 35.873 30.7692 35.873H36.8133C37.1132 35.873 37.356 36.1158 37.356 36.4157V41.6851C37.356 41.985 37.1132 42.2278 36.8133 42.2278Z" fill="#2C007D"/>
<path d="M33.4164 47.9969H30.7671C30.4902 47.9969 30.2656 47.6464 30.2656 47.2143C30.2656 46.7821 30.4902 46.4316 30.7671 46.4316H33.4164C33.6933 46.4316 33.9178 46.7821 33.9178 47.2143C33.9174 47.6464 33.6933 47.9969 33.4164 47.9969Z" fill="white"/>
<path d="M38.1116 47.9969H35.4624C35.1855 47.9969 34.9609 47.6464 34.9609 47.2143C34.9609 46.7821 35.1855 46.4316 35.4624 46.4316H38.1116C38.3886 46.4316 38.6131 46.7821 38.6131 47.2143C38.6131 47.6464 38.3886 47.9969 38.1116 47.9969Z" fill="white"/>
<path d="M43.3304 47.9969H40.6812C40.4042 47.9969 40.1797 47.6464 40.1797 47.2143C40.1797 46.7821 40.4042 46.4316 40.6812 46.4316H43.3304C43.6073 46.4316 43.8318 46.7821 43.8318 47.2143C43.8318 47.6464 43.6073 47.9969 43.3304 47.9969Z" fill="white"/>
<path d="M48.0257 47.9969H45.3765C45.0996 47.9969 44.875 47.6464 44.875 47.2143C44.875 46.7821 45.0996 46.4316 45.3765 46.4316H48.0257C48.3026 46.4316 48.5272 46.7821 48.5272 47.2143C48.5268 47.6464 48.3026 47.9969 48.0257 47.9969Z" fill="white"/>
<path fill-rule="evenodd" clip-rule="evenodd" d="M36.1281 37.6496H37.3567V37.4587H36.1281C35.9116 37.4587 35.7347 37.6355 35.7347 37.8534V38.9549H34.9768V38.2656C34.9768 38.0457 34.7979 37.8675 34.5787 37.8675H33.8874V35.873H33.6964V37.8675H33.0226C32.8035 37.8675 32.6245 38.0464 32.6245 38.2656V38.9549H31.8486V37.8534C31.8486 37.6355 31.6724 37.4587 31.4552 37.4587H30.2266V37.6496H31.4552C31.5668 37.6496 31.6575 37.7411 31.6575 37.8541V40.2487C31.6575 40.3617 31.5668 40.4531 31.4552 40.4531H30.2266V40.6441H31.4552C31.6717 40.6441 31.8486 40.4673 31.8486 40.2494V39.1472H32.6245V39.8365C32.6245 40.0564 32.8035 40.2352 33.0226 40.2352H33.6964V42.2298H33.8874V40.2352H34.5787C34.7979 40.2352 34.9768 40.0564 34.9768 39.8365V39.1472H35.7347V40.2494C35.7347 40.4673 35.9109 40.6441 36.1281 40.6441H37.3567V40.4531H36.1281C36.0164 40.4531 35.9256 40.3617 35.9256 40.2487V37.8541C35.9256 37.7418 36.0164 37.6496 36.1281 37.6496ZM34.7858 39.8358C34.7858 39.9501 34.693 40.0436 34.578 40.0436H33.022C32.9076 40.0436 32.8141 39.9501 32.8141 39.8358V38.267C32.8141 38.1526 32.907 38.0592 33.022 38.0592H34.578C34.6923 38.0592 34.7858 38.1526 34.7858 38.267V39.8358Z" fill="white" stroke="white" stroke-width="0.1"/>
<path fill-rule="evenodd" clip-rule="evenodd" d="M27.1328 33.2953V33.3902H65.0448V33.2946C65.0448 31.6188 63.6857 30.2591 62.0093 30.2598H30.1683C29.8294 30.2598 29.5053 30.3149 29.2 30.4198C27.9983 30.8219 27.1328 31.9584 27.1328 33.2953Z" fill="#9358FF"/>
<path fill-rule="evenodd" clip-rule="evenodd" d="M57.9144 44.3465C57.2016 44.8819 56.7405 45.7344 56.7405 46.6946C56.7405 47.6547 57.2016 48.5071 57.9144 49.0426C57.4239 49.411 56.8142 49.6293 56.1536 49.6293C54.5327 49.6293 53.2188 48.3154 53.2188 46.6946C53.2188 45.0737 54.5327 43.7598 56.1536 43.7598C56.8142 43.7598 57.4239 43.978 57.9144 44.3465Z" fill="#BF9BFF"/>
<path fill-rule="evenodd" clip-rule="evenodd" d="M57.9141 44.3465C58.6269 44.8819 59.088 45.7344 59.088 46.6946C59.088 47.6547 58.6269 48.5071 57.9141 49.0426C58.4046 49.411 59.0143 49.6293 59.675 49.6293C61.2958 49.6293 62.6098 48.3154 62.6098 46.6946C62.6098 45.0737 61.2958 43.7598 59.675 43.7598C59.0143 43.7598 58.4046 43.978 57.9141 44.3465Z" fill="#BF9BFF"/>
<path fill-rule="evenodd" clip-rule="evenodd" d="M57.9161 49.0398C58.629 48.5044 59.09 47.6519 59.09 46.6918C59.09 45.7316 58.629 44.8792 57.9161 44.3438C57.2032 44.8792 56.7422 45.7316 56.7422 46.6918C56.7422 47.6519 57.2032 48.5044 57.9161 49.0398Z" fill="#2C007D"/>
</g>
<path d="M27.2424 94V82.512H31.1944C34.8104 82.512 37.0184 84.752 37.0184 88.256C37.0184 91.76 34.8104 94 31.1944 94H27.2424ZM29.5464 91.984H31.1944C33.4184 91.984 34.6984 90.512 34.6984 88.256C34.6984 85.984 33.4184 84.528 31.1784 84.528H29.5464V91.984ZM42.0924 94.176C39.6124 94.176 37.9164 92.4 37.9164 89.792C37.9164 87.312 39.6284 85.424 42.0124 85.424C44.5084 85.424 45.8524 87.28 45.8524 89.632V90.288H40.0604C40.2204 91.568 41.0044 92.336 42.1084 92.336C42.9724 92.336 43.6604 91.92 43.9164 91.104L45.8044 91.776C45.1964 93.312 43.7724 94.176 42.0924 94.176ZM41.9964 87.216C41.1004 87.216 40.4124 87.744 40.1404 88.768H43.6284C43.6124 87.936 43.0844 87.216 41.9964 87.216ZM51.77 94.176C50.714 94.176 49.914 93.76 49.418 93.136V94H47.178V82.512H49.418V86.448C49.914 85.84 50.714 85.424 51.77 85.424C54.09 85.424 55.434 87.408 55.434 89.792C55.434 92.192 54.09 94.176 51.77 94.176ZM49.37 89.568V90.032C49.37 91.456 50.17 92.256 51.242 92.256C52.506 92.256 53.178 91.248 53.178 89.792C53.178 88.352 52.506 87.344 51.242 87.344C50.17 87.344 49.37 88.128 49.37 89.568ZM56.7398 84.592V82.512H59.0278V84.592H56.7398ZM59.0118 85.584V94H56.7718V85.584H59.0118ZM61.0739 91.808V87.456H59.9539V85.584H61.0739V83.184H63.2819V85.584H64.9939V87.456H63.2819V91.344C63.2819 92.064 63.6819 92.16 64.3379 92.16C64.6579 92.16 64.8179 92.144 65.1059 92.112V93.968C64.7059 94.048 64.2259 94.096 63.6659 94.096C61.9699 94.096 61.0739 93.536 61.0739 91.808ZM71.55 88.256C71.55 90.592 72.782 92.112 74.542 92.112C75.79 92.112 76.702 91.328 77.022 90.048L79.23 90.784C78.558 92.864 76.926 94.176 74.542 94.176C71.438 94.176 69.182 91.728 69.182 88.256C69.182 84.784 71.438 82.336 74.542 82.336C76.926 82.336 78.558 83.648 79.23 85.728L77.022 86.464C76.702 85.184 75.79 84.4 74.542 84.4C72.782 84.4 71.55 85.92 71.55 88.256ZM82.7004 94.144C81.0524 94.144 79.8364 93.152 79.8364 91.664C79.8364 89.984 81.1804 89.28 82.8764 88.976L84.9724 88.576V88.448C84.9724 87.728 84.6044 87.28 83.6764 87.28C82.8444 87.28 82.4124 87.648 82.2204 88.4L80.0924 88C80.4764 86.576 81.7564 85.424 83.7564 85.424C85.8844 85.424 87.1644 86.4 87.1644 88.352V91.792C87.1644 92.24 87.3564 92.384 87.8524 92.32V94C86.4284 94.208 85.5644 93.92 85.1964 93.216C84.6524 93.808 83.8044 94.144 82.7004 94.144ZM84.9724 91.008V90.144L83.3244 90.48C82.5884 90.624 82.0444 90.864 82.0444 91.536C82.0444 92.112 82.4764 92.448 83.1484 92.448C84.0924 92.448 84.9724 91.952 84.9724 91.008ZM94.1395 85.568V87.76C93.8835 87.728 93.6915 87.712 93.4195 87.712C92.2515 87.712 91.3555 88.432 91.3555 89.728V94H89.1155V85.584H91.3555V86.768C91.7235 86.032 92.5555 85.536 93.5955 85.536C93.8195 85.536 93.9795 85.552 94.1395 85.568ZM98.2363 94.176C95.9163 94.176 94.5723 92.192 94.5723 89.792C94.5723 87.408 95.9163 85.424 98.2363 85.424C99.2923 85.424 100.092 85.84 100.588 86.448V82.512H102.828V94H100.588V93.136C100.092 93.76 99.2923 94.176 98.2363 94.176ZM100.636 89.568C100.636 88.128 99.8363 87.344 98.7643 87.344C97.5003 87.344 96.8283 88.352 96.8283 89.792C96.8283 91.248 97.5003 92.256 98.7643 92.256C99.8363 92.256 100.636 91.456 100.636 90.032V89.568ZM103.846 92.576L105.238 91.152C105.814 91.936 106.838 92.432 107.782 92.432C108.534 92.432 109.19 92.176 109.19 91.568C109.19 90.928 108.566 90.848 107.222 90.592C105.862 90.32 104.358 89.968 104.358 88.16C104.358 86.544 105.782 85.424 107.798 85.424C109.286 85.424 110.614 86.032 111.27 86.88L109.99 88.288C109.43 87.568 108.614 87.168 107.734 87.168C107.03 87.168 106.566 87.472 106.566 87.936C106.566 88.48 107.126 88.576 108.166 88.784C109.638 89.088 111.382 89.424 111.382 91.328C111.382 93.088 109.75 94.176 107.734 94.176C106.214 94.176 104.614 93.616 103.846 92.576Z" fill="#4D148C"/>
<path d="M26.128 123.256C26.128 125.976 27.632 127.816 29.76 127.816C31.248 127.816 32.32 126.952 32.736 125.496L34.192 125.976C33.52 127.96 31.952 129.176 29.76 129.176C26.784 129.176 24.592 126.76 24.592 123.256C24.592 119.752 26.784 117.336 29.76 117.336C31.952 117.336 33.52 118.552 34.192 120.536L32.736 121.016C32.32 119.56 31.248 118.696 29.76 118.696C27.632 118.696 26.128 120.536 26.128 123.256ZM42.3869 120.632V129H40.9469V127.848C40.4669 128.552 39.6509 129.176 38.4669 129.176C36.6749 129.176 35.6669 127.944 35.6669 126.168V120.632H37.1069V125.864C37.1069 127.048 37.6189 127.848 38.8509 127.848C39.8909 127.848 40.9469 127.064 40.9469 125.672V120.632H42.3869ZM43.8501 127.224L44.9701 126.408C45.4181 127.384 46.4421 127.976 47.5301 127.976C48.5061 127.976 49.3701 127.56 49.3701 126.648C49.3701 125.736 48.5701 125.608 47.1941 125.32C45.8181 125.016 44.3781 124.712 44.3781 123C44.3781 121.512 45.6741 120.472 47.4501 120.472C48.9541 120.472 50.1861 121.208 50.6821 122.2L49.6581 123.016C49.2261 122.184 48.4421 121.656 47.3861 121.656C46.4261 121.656 45.7861 122.136 45.7861 122.888C45.7861 123.672 46.5221 123.816 47.6901 124.072C49.1301 124.408 50.7781 124.696 50.7781 126.52C50.7781 128.12 49.3221 129.176 47.5301 129.176C46.0101 129.176 44.4901 128.52 43.8501 127.224ZM52.7834 127V121.864H51.4874V120.632H52.7834V118.184H54.2074V120.632H56.1114V121.864H54.2074V126.776C54.2074 127.656 54.6394 127.816 55.3754 127.816C55.7114 127.816 55.9514 127.8 56.2874 127.72V128.952C55.9194 129.032 55.5034 129.08 55.0234 129.08C53.5994 129.08 52.7834 128.6 52.7834 127ZM65.15 124.824C65.15 127.416 63.55 129.176 61.262 129.176C58.974 129.176 57.374 127.416 57.374 124.824C57.374 122.232 58.974 120.472 61.262 120.472C63.55 120.472 65.15 122.232 65.15 124.824ZM58.83 124.824C58.83 126.728 59.79 127.944 61.262 127.944C62.734 127.944 63.694 126.728 63.694 124.824C63.694 122.904 62.734 121.688 61.262 121.688C59.79 121.688 58.83 122.904 58.83 124.824ZM68.4213 123.992V129H66.9813V120.632H68.4213V121.768C68.8693 121.08 69.6693 120.472 70.8373 120.472C71.9573 120.472 72.7413 121.032 73.1573 121.896C73.6213 121.208 74.5173 120.472 75.8293 120.472C77.5573 120.472 78.5973 121.704 78.5973 123.48V129H77.1573V123.864C77.1573 122.696 76.6773 121.816 75.4933 121.816C74.5333 121.816 73.5093 122.632 73.5093 123.992V129H72.0693V123.864C72.0693 122.696 71.5893 121.816 70.4053 121.816C69.4453 121.816 68.4213 122.632 68.4213 123.992ZM80.8548 119.176V117.512H82.4228V119.176H80.8548ZM82.3588 120.632V129H80.9188V120.632H82.3588ZM90.8105 127.768V129H84.2185V127.912L89.0505 121.864H84.2825V120.632H90.7625V121.736L86.0265 127.768H90.8105ZM94.6398 129.144C93.1198 129.144 91.8878 128.248 91.8878 126.744C91.8878 125.08 93.1838 124.392 95.0558 124.008L97.0878 123.592V123.24C97.0878 122.28 96.5598 121.736 95.4398 121.736C94.3838 121.736 93.7598 122.232 93.5038 123.16L92.1438 122.808C92.5438 121.448 93.7758 120.472 95.4878 120.472C97.3598 120.472 98.5118 121.384 98.5118 123.176V127.256C98.5118 127.8 98.8478 127.976 99.4078 127.848V129C98.1278 129.16 97.3918 128.856 97.2158 128.056C96.7038 128.712 95.7758 129.144 94.6398 129.144ZM97.0878 126.152V124.712L95.4557 125.064C94.1758 125.32 93.3118 125.672 93.3118 126.68C93.3118 127.496 93.9038 127.976 94.8158 127.976C96.0477 127.976 97.0878 127.224 97.0878 126.152ZM104.998 129.176C103.83 129.176 102.902 128.616 102.406 127.784V129H100.966V117.512H102.406V121.848C102.902 121.032 103.83 120.472 104.998 120.472C107.318 120.472 108.646 122.44 108.646 124.824C108.646 127.192 107.318 129.176 104.998 129.176ZM102.374 124.536V125.128C102.374 127.048 103.558 127.912 104.742 127.912C106.31 127.912 107.19 126.616 107.19 124.824C107.19 123.016 106.31 121.736 104.742 121.736C103.558 121.736 102.374 122.584 102.374 124.536ZM111.906 117.512V129H110.466V117.512H111.906ZM117.653 129.176C115.333 129.176 113.733 127.4 113.733 124.824C113.733 122.328 115.317 120.472 117.589 120.472C119.925 120.472 121.157 122.248 121.157 124.568V125.048H115.109C115.189 126.808 116.197 127.928 117.653 127.928C118.773 127.928 119.573 127.32 119.829 126.328L121.093 126.776C120.581 128.264 119.317 129.176 117.653 129.176ZM117.573 121.704C116.357 121.704 115.445 122.52 115.189 123.944H119.701C119.669 122.76 119.029 121.704 117.573 121.704ZM126.549 127V121.864H125.253V120.632H126.549V118.184H127.973V120.632H129.877V121.864H127.973V126.776C127.973 127.656 128.405 127.816 129.141 127.816C129.477 127.816 129.717 127.8 130.053 127.72V128.952C129.685 129.032 129.269 129.08 128.789 129.08C127.365 129.08 126.549 128.6 126.549 127ZM138.916 124.824C138.916 127.416 137.316 129.176 135.028 129.176C132.74 129.176 131.14 127.416 131.14 124.824C131.14 122.232 132.74 120.472 135.028 120.472C137.316 120.472 138.916 122.232 138.916 124.824ZM132.596 124.824C132.596 126.728 133.556 127.944 135.028 127.944C136.5 127.944 137.46 126.728 137.46 124.824C137.46 122.904 136.5 121.688 135.028 121.688C133.556 121.688 132.596 122.904 132.596 124.824ZM144.779 129.176C143.611 129.176 142.683 128.616 142.187 127.784V131.88H140.747V120.632H142.187V121.848C142.683 121.032 143.611 120.472 144.779 120.472C147.099 120.472 148.427 122.44 148.427 124.824C148.427 127.192 147.099 129.176 144.779 129.176ZM142.155 124.536V125.128C142.155 127.048 143.339 127.912 144.523 127.912C146.091 127.912 146.971 126.616 146.971 124.824C146.971 123.016 146.091 121.736 144.523 121.736C143.339 121.736 142.155 122.584 142.155 124.536ZM150.113 124.984V123.688H154.481V124.984H150.113ZM163.947 124.824C163.947 127.416 162.347 129.176 160.059 129.176C157.771 129.176 156.171 127.416 156.171 124.824C156.171 122.232 157.771 120.472 160.059 120.472C162.347 120.472 163.947 122.232 163.947 124.824ZM157.627 124.824C157.627 126.728 158.587 127.944 160.059 127.944C161.531 127.944 162.491 126.728 162.491 124.824C162.491 122.904 161.531 121.688 160.059 121.688C158.587 121.688 157.627 122.904 157.627 124.824ZM169.426 117.368V118.648C169.186 118.616 169.042 118.616 168.802 118.616C167.954 118.616 167.49 118.984 167.49 120.056V120.632H169.346V121.864H167.49V129H166.05V121.864H164.786V120.632H166.05V119.96C166.05 118.328 166.946 117.336 168.658 117.336C168.946 117.336 169.106 117.352 169.426 117.368ZM169.894 124.984V123.688H174.262V124.984H169.894ZM176.502 127V121.864H175.206V120.632H176.502V118.184H177.926V120.632H179.83V121.864H177.926V126.776C177.926 127.656 178.358 127.816 179.094 127.816C179.43 127.816 179.67 127.8 180.006 127.72V128.952C179.638 129.032 179.222 129.08 178.742 129.08C177.318 129.08 176.502 128.6 176.502 127ZM181.716 129V117.512H183.156V121.768C183.636 121.08 184.468 120.472 185.652 120.472C187.428 120.472 188.436 121.704 188.436 123.48V129H186.996V123.864C186.996 122.696 186.5 121.816 185.252 121.816C184.212 121.816 183.156 122.616 183.156 124.008V129H181.716ZM194.091 129.176C191.771 129.176 190.171 127.4 190.171 124.824C190.171 122.328 191.755 120.472 194.027 120.472C196.363 120.472 197.595 122.248 197.595 124.568V125.048H191.547C191.627 126.808 192.635 127.928 194.091 127.928C195.211 127.928 196.011 127.32 196.267 126.328L197.531 126.776C197.019 128.264 195.755 129.176 194.091 129.176ZM194.011 121.704C192.795 121.704 191.883 122.52 191.627 123.944H196.139C196.107 122.76 195.467 121.704 194.011 121.704ZM199.207 124.984V123.688H203.575V124.984H199.207ZM207.031 117.512V129H205.591V117.512H207.031ZM209.37 119.176V117.512H210.938V119.176H209.37ZM210.874 120.632V129H209.434V120.632H210.874ZM213.278 129V120.632H214.718V121.768C215.198 121.08 216.03 120.472 217.214 120.472C218.99 120.472 219.998 121.704 219.998 123.48V129H218.558V123.864C218.558 122.696 218.062 121.816 216.814 121.816C215.774 121.816 214.718 122.616 214.718 124.008V129H213.278ZM225.653 129.176C223.333 129.176 221.733 127.4 221.733 124.824C221.733 122.328 223.317 120.472 225.589 120.472C227.925 120.472 229.157 122.248 229.157 124.568V125.048H223.109C223.189 126.808 224.197 127.928 225.653 127.928C226.773 127.928 227.573 127.32 227.829 126.328L229.093 126.776C228.581 128.264 227.317 129.176 225.653 129.176ZM225.573 121.704C224.357 121.704 223.445 122.52 223.189 123.944H227.701C227.669 122.76 227.029 121.704 225.573 121.704ZM237.397 129.176C235.077 129.176 233.749 127.192 233.749 124.824C233.749 122.44 235.077 120.472 237.397 120.472C238.565 120.472 239.493 121.032 239.989 121.848V117.512H241.429V129H239.989V127.784C239.493 128.616 238.565 129.176 237.397 129.176ZM240.021 124.536C240.021 122.584 238.837 121.736 237.653 121.736C236.085 121.736 235.205 123.016 235.205 124.824C235.205 126.616 236.085 127.912 237.653 127.912C238.837 127.912 240.021 127.048 240.021 125.128V124.536ZM247.153 129.176C244.833 129.176 243.233 127.4 243.233 124.824C243.233 122.328 244.817 120.472 247.089 120.472C249.425 120.472 250.657 122.248 250.657 124.568V125.048H244.609C244.689 126.808 245.697 127.928 247.153 127.928C248.273 127.928 249.073 127.32 249.329 126.328L250.593 126.776C250.081 128.264 248.817 129.176 247.153 129.176ZM247.073 121.704C245.857 121.704 244.945 122.52 244.689 123.944H249.201C249.169 122.76 248.529 121.704 247.073 121.704ZM256.482 129.176C255.314 129.176 254.386 128.616 253.89 127.784V129H252.45V117.512H253.89V121.848C254.386 121.032 255.314 120.472 256.482 120.472C258.802 120.472 260.13 122.44 260.13 124.824C260.13 127.192 258.802 129.176 256.482 129.176ZM253.858 124.536V125.128C253.858 127.048 255.042 127.912 256.226 127.912C257.794 127.912 258.674 126.616 258.674 124.824C258.674 123.016 257.794 121.736 256.226 121.736C255.042 121.736 253.858 122.584 253.858 124.536ZM261.886 119.176V117.512H263.454V119.176H261.886ZM263.39 120.632V129H261.95V120.632H263.39ZM266.018 127V121.864H264.722V120.632H266.018V118.184H267.442V120.632H269.346V121.864H267.442V126.776C267.442 127.656 267.874 127.816 268.61 127.816C268.946 127.816 269.186 127.8 269.522 127.72V128.952C269.154 129.032 268.738 129.08 268.258 129.08C266.834 129.08 266.018 128.6 266.018 127ZM26.064 148.824C26.064 150.728 27.088 151.912 28.576 151.912C29.728 151.912 30.416 151.176 30.656 150.136L31.936 150.728C31.536 152.12 30.32 153.176 28.576 153.176C26.24 153.176 24.624 151.4 24.624 148.824C24.624 146.232 26.24 144.472 28.576 144.472C30.32 144.472 31.504 145.48 31.904 146.872L30.656 147.496C30.416 146.472 29.728 145.72 28.576 145.72C27.088 145.72 26.064 146.904 26.064 148.824ZM35.7023 153.144C34.1823 153.144 32.9503 152.248 32.9503 150.744C32.9503 149.08 34.2463 148.392 36.1183 148.008L38.1503 147.592V147.24C38.1503 146.28 37.6223 145.736 36.5023 145.736C35.4463 145.736 34.8223 146.232 34.5663 147.16L33.2063 146.808C33.6063 145.448 34.8383 144.472 36.5503 144.472C38.4223 144.472 39.5743 145.384 39.5743 147.176V151.256C39.5743 151.8 39.9103 151.976 40.4703 151.848V153C39.1903 153.16 38.4543 152.856 38.2783 152.056C37.7663 152.712 36.8383 153.144 35.7023 153.144ZM38.1503 150.152V148.712L36.5182 149.064C35.2383 149.32 34.3743 149.672 34.3743 150.68C34.3743 151.496 34.9663 151.976 35.8783 151.976C37.1102 151.976 38.1503 151.224 38.1503 150.152ZM46.3641 144.6V146.056C46.1241 146.008 45.9321 145.992 45.6601 145.992C44.4441 145.992 43.4681 146.952 43.4681 148.424V153H42.0281V144.632H43.4681V146.056C43.8361 145.208 44.6521 144.568 45.7881 144.568C46.0121 144.568 46.2201 144.584 46.3641 144.6ZM50.7408 153.176C48.4208 153.176 47.0928 151.192 47.0928 148.824C47.0928 146.44 48.4208 144.472 50.7408 144.472C51.9088 144.472 52.8368 145.032 53.3328 145.848V141.512H54.7728V153H53.3328V151.784C52.8368 152.616 51.9088 153.176 50.7408 153.176ZM53.3648 148.536C53.3648 146.584 52.1808 145.736 50.9968 145.736C49.4288 145.736 48.5488 147.016 48.5488 148.824C48.5488 150.616 49.4288 151.912 50.9968 151.912C52.1808 151.912 53.3648 151.048 53.3648 149.128V148.536ZM56.2251 151.224L57.3451 150.408C57.7931 151.384 58.8171 151.976 59.9051 151.976C60.8811 151.976 61.7451 151.56 61.7451 150.648C61.7451 149.736 60.9451 149.608 59.5691 149.32C58.1931 149.016 56.7531 148.712 56.7531 147C56.7531 145.512 58.0491 144.472 59.8251 144.472C61.3291 144.472 62.5611 145.208 63.0571 146.2L62.0331 147.016C61.6011 146.184 60.8171 145.656 59.7611 145.656C58.8011 145.656 58.1611 146.136 58.1611 146.888C58.1611 147.672 58.8971 147.816 60.0651 148.072C61.5051 148.408 63.1531 148.696 63.1531 150.52C63.1531 152.12 61.6971 153.176 59.9051 153.176C58.3851 153.176 56.8651 152.52 56.2251 151.224ZM72.2934 144.632H73.5094L75.2374 150.872L76.9814 144.632H78.4214L75.8774 153H74.6134L72.8694 146.792L71.1254 153H69.8614L67.3174 144.632H68.8054L70.5654 150.856L72.2934 144.632ZM79.761 143.176V141.512H81.329V143.176H79.761ZM81.265 144.632V153H79.825V144.632H81.265ZM83.8928 151V145.864H82.5968V144.632H83.8928V142.184H85.3168V144.632H87.2208V145.864H85.3168V150.776C85.3168 151.656 85.7488 151.816 86.4848 151.816C86.8208 151.816 87.0608 151.8 87.3968 151.72V152.952C87.0288 153.032 86.6128 153.08 86.1328 153.08C84.7088 153.08 83.8928 152.6 83.8928 151ZM89.1063 153V141.512H90.5463V145.768C91.0263 145.08 91.8583 144.472 93.0423 144.472C94.8183 144.472 95.8263 145.704 95.8263 147.48V153H94.3863V147.864C94.3863 146.696 93.8903 145.816 92.6423 145.816C91.6023 145.816 90.5463 146.616 90.5463 148.008V153H89.1063ZM104.585 153.176C102.265 153.176 100.937 151.192 100.937 148.824C100.937 146.44 102.265 144.472 104.585 144.472C105.753 144.472 106.681 145.032 107.177 145.848V141.512H108.617V153H107.177V151.784C106.681 152.616 105.753 153.176 104.585 153.176ZM107.209 148.536C107.209 146.584 106.025 145.736 104.841 145.736C103.273 145.736 102.393 147.016 102.393 148.824C102.393 150.616 103.273 151.912 104.841 151.912C106.025 151.912 107.209 151.048 107.209 149.128V148.536ZM110.933 143.176V141.512H112.501V143.176H110.933ZM112.437 144.632V153H110.997V144.632H112.437ZM121.929 152.248C121.929 154.696 120.313 156.056 118.041 156.056C116.201 156.056 114.857 155.208 114.393 153.672L115.737 153.16C116.009 154.232 116.873 154.856 118.041 154.856C119.513 154.856 120.489 154.104 120.489 152.36V151.416C120.041 152.232 119.097 152.808 117.929 152.808C115.641 152.808 114.297 150.92 114.297 148.632C114.297 146.36 115.641 144.472 117.929 144.472C119.081 144.472 120.041 145.048 120.489 145.864V144.632H121.929V152.248ZM120.505 148.504C120.505 146.632 119.385 145.736 118.185 145.736C116.665 145.736 115.737 146.872 115.737 148.632C115.737 150.392 116.665 151.544 118.185 151.544C119.385 151.544 120.505 150.648 120.505 148.808V148.504ZM124.261 143.176V141.512H125.829V143.176H124.261ZM125.765 144.632V153H124.325V144.632H125.765ZM128.393 151V145.864H127.097V144.632H128.393V142.184H129.817V144.632H131.721V145.864H129.817V150.776C129.817 151.656 130.249 151.816 130.985 151.816C131.321 151.816 131.561 151.8 131.897 151.72V152.952C131.529 153.032 131.113 153.08 130.633 153.08C129.209 153.08 128.393 152.6 128.393 151ZM135.702 153.144C134.182 153.144 132.95 152.248 132.95 150.744C132.95 149.08 134.246 148.392 136.118 148.008L138.15 147.592V147.24C138.15 146.28 137.622 145.736 136.502 145.736C135.446 145.736 134.822 146.232 134.566 147.16L133.206 146.808C133.606 145.448 134.838 144.472 136.55 144.472C138.422 144.472 139.574 145.384 139.574 147.176V151.256C139.574 151.8 139.91 151.976 140.47 151.848V153C139.19 153.16 138.454 152.856 138.278 152.056C137.766 152.712 136.838 153.144 135.702 153.144ZM138.15 150.152V148.712L136.518 149.064C135.238 149.32 134.374 149.672 134.374 150.68C134.374 151.496 134.966 151.976 135.878 151.976C137.11 151.976 138.15 151.224 138.15 150.152ZM143.468 141.512V153H142.028V141.512H143.468ZM156.447 148.824C156.447 151.416 154.847 153.176 152.559 153.176C150.271 153.176 148.671 151.416 148.671 148.824C148.671 146.232 150.271 144.472 152.559 144.472C154.847 144.472 156.447 146.232 156.447 148.824ZM150.127 148.824C150.127 150.728 151.087 151.944 152.559 151.944C154.031 151.944 154.991 150.728 154.991 148.824C154.991 146.904 154.031 145.688 152.559 145.688C151.087 145.688 150.127 146.904 150.127 148.824ZM158.278 153V144.632H159.718V145.768C160.198 145.08 161.03 144.472 162.214 144.472C163.99 144.472 164.998 145.704 164.998 147.48V153H163.558V147.864C163.558 146.696 163.062 145.816 161.814 145.816C160.774 145.816 159.718 146.616 159.718 148.008V153H158.278ZM171.341 153.176C170.173 153.176 169.245 152.616 168.749 151.784V153H167.309V141.512H168.749V145.848C169.245 145.032 170.173 144.472 171.341 144.472C173.661 144.472 174.989 146.44 174.989 148.824C174.989 151.192 173.661 153.176 171.341 153.176ZM168.717 148.536V149.128C168.717 151.048 169.901 151.912 171.085 151.912C172.653 151.912 173.533 150.616 173.533 148.824C173.533 147.016 172.653 145.736 171.085 145.736C169.901 145.736 168.717 146.584 168.717 148.536ZM184.009 148.824C184.009 151.416 182.409 153.176 180.121 153.176C177.833 153.176 176.233 151.416 176.233 148.824C176.233 146.232 177.833 144.472 180.121 144.472C182.409 144.472 184.009 146.232 184.009 148.824ZM177.689 148.824C177.689 150.728 178.649 151.944 180.121 151.944C181.593 151.944 182.553 150.728 182.553 148.824C182.553 146.904 181.593 145.688 180.121 145.688C178.649 145.688 177.689 146.904 177.689 148.824ZM187.937 153.144C186.417 153.144 185.185 152.248 185.185 150.744C185.185 149.08 186.481 148.392 188.353 148.008L190.385 147.592V147.24C190.385 146.28 189.857 145.736 188.737 145.736C187.681 145.736 187.057 146.232 186.801 147.16L185.441 146.808C185.841 145.448 187.073 144.472 188.785 144.472C190.657 144.472 191.809 145.384 191.809 147.176V151.256C191.809 151.8 192.145 151.976 192.705 151.848V153C191.425 153.16 190.689 152.856 190.513 152.056C190.001 152.712 189.073 153.144 187.937 153.144ZM190.385 150.152V148.712L188.753 149.064C187.473 149.32 186.609 149.672 186.609 150.68C186.609 151.496 187.201 151.976 188.113 151.976C189.345 151.976 190.385 151.224 190.385 150.152ZM198.599 144.6V146.056C198.359 146.008 198.167 145.992 197.895 145.992C196.679 145.992 195.703 146.952 195.703 148.424V153H194.263V144.632H195.703V146.056C196.071 145.208 196.887 144.568 198.023 144.568C198.247 144.568 198.455 144.584 198.599 144.6ZM202.975 153.176C200.655 153.176 199.327 151.192 199.327 148.824C199.327 146.44 200.655 144.472 202.975 144.472C204.143 144.472 205.071 145.032 205.567 145.848V141.512H207.007V153H205.567V151.784C205.071 152.616 204.143 153.176 202.975 153.176ZM205.599 148.536C205.599 146.584 204.415 145.736 203.231 145.736C201.663 145.736 200.783 147.016 200.783 148.824C200.783 150.616 201.663 151.912 203.231 151.912C204.415 151.912 205.599 151.048 205.599 149.128V148.536ZM209.324 143.176V141.512H210.892V143.176H209.324ZM210.828 144.632V153H209.388V144.632H210.828ZM213.231 153V144.632H214.671V145.768C215.151 145.08 215.983 144.472 217.167 144.472C218.943 144.472 219.951 145.704 219.951 147.48V153H218.511V147.864C218.511 146.696 218.015 145.816 216.767 145.816C215.727 145.816 214.671 146.616 214.671 148.008V153H213.231ZM229.351 152.248C229.351 154.696 227.735 156.056 225.463 156.056C223.623 156.056 222.279 155.208 221.815 153.672L223.159 153.16C223.431 154.232 224.295 154.856 225.463 154.856C226.935 154.856 227.911 154.104 227.911 152.36V151.416C227.463 152.232 226.519 152.808 225.351 152.808C223.062 152.808 221.719 150.92 221.719 148.632C221.719 146.36 223.062 144.472 225.351 144.472C226.503 144.472 227.463 145.048 227.911 145.864V144.632H229.351V152.248ZM227.927 148.504C227.927 146.632 226.807 145.736 225.607 145.736C224.087 145.736 223.159 146.872 223.159 148.632C223.159 150.392 224.087 151.544 225.607 151.544C226.807 151.544 227.927 150.648 227.927 148.808V148.504ZM231.411 153V151.112H233.235V153.096C233.235 154.344 232.435 155.096 231.155 155.128V154.296C231.875 154.264 232.243 153.896 232.243 153.128V153H231.411ZM240.124 141.512V153H238.684V141.512H240.124ZM242.464 143.176V141.512H244.032V143.176H242.464ZM243.968 144.632V153H242.528V144.632H243.968ZM247.812 147.992V153H246.372V144.632H247.812V145.768C248.26 145.08 249.06 144.472 250.228 144.472C251.348 144.472 252.132 145.032 252.548 145.896C253.012 145.208 253.908 144.472 255.22 144.472C256.948 144.472 257.988 145.704 257.988 147.48V153H256.548V147.864C256.548 146.696 256.068 145.816 254.884 145.816C253.924 145.816 252.9 146.632 252.9 147.992V153H251.46V147.864C251.46 146.696 250.98 145.816 249.796 145.816C248.836 145.816 247.812 146.632 247.812 147.992ZM260.245 143.176V141.512H261.813V143.176H260.245ZM261.749 144.632V153H260.309V144.632H261.749ZM264.377 151V145.864H263.081V144.632H264.377V142.184H265.801V144.632H267.705V145.864H265.801V150.776C265.801 151.656 266.233 151.816 266.969 151.816C267.305 151.816 267.545 151.8 267.881 151.72V152.952C267.513 153.032 267.097 153.08 266.617 153.08C265.193 153.08 264.377 152.6 264.377 151ZM26.064 172.824C26.064 174.728 27.088 175.912 28.576 175.912C29.728 175.912 30.416 175.176 30.656 174.136L31.936 174.728C31.536 176.12 30.32 177.176 28.576 177.176C26.24 177.176 24.624 175.4 24.624 172.824C24.624 170.232 26.24 168.472 28.576 168.472C30.32 168.472 31.504 169.48 31.904 170.872L30.656 171.496C30.416 170.472 29.728 169.72 28.576 169.72C27.088 169.72 26.064 170.904 26.064 172.824ZM40.7125 172.824C40.7125 175.416 39.1125 177.176 36.8245 177.176C34.5365 177.176 32.9365 175.416 32.9365 172.824C32.9365 170.232 34.5365 168.472 36.8245 168.472C39.1125 168.472 40.7125 170.232 40.7125 172.824ZM34.3925 172.824C34.3925 174.728 35.3525 175.944 36.8245 175.944C38.2965 175.944 39.2565 174.728 39.2565 172.824C39.2565 170.904 38.2965 169.688 36.8245 169.688C35.3525 169.688 34.3925 170.904 34.3925 172.824ZM42.5438 177V168.632H43.9838V169.768C44.4638 169.08 45.2958 168.472 46.4798 168.472C48.2558 168.472 49.2638 169.704 49.2638 171.48V177H47.8238V171.864C47.8238 170.696 47.3278 169.816 46.0798 169.816C45.0398 169.816 43.9838 170.616 43.9838 172.008V177H42.5438ZM55.223 165.368V166.648C54.983 166.616 54.839 166.616 54.599 166.616C53.751 166.616 53.287 166.984 53.287 168.056V168.632H55.143V169.864H53.287V177H51.847V169.864H50.583V168.632H51.847V167.96C51.847 166.328 52.743 165.336 54.455 165.336C54.743 165.336 54.903 165.352 55.223 165.368ZM56.4173 167.176V165.512H57.9853V167.176H56.4173ZM57.9213 168.632V177H56.4813V168.632H57.9213ZM67.413 176.248C67.413 178.696 65.797 180.056 63.525 180.056C61.685 180.056 60.341 179.208 59.877 177.672L61.221 177.16C61.493 178.232 62.357 178.856 63.525 178.856C64.997 178.856 65.973 178.104 65.973 176.36V175.416C65.525 176.232 64.581 176.808 63.413 176.808C61.125 176.808 59.781 174.92 59.781 172.632C59.781 170.36 61.125 168.472 63.413 168.472C64.565 168.472 65.525 169.048 65.973 169.864V168.632H67.413V176.248ZM65.989 172.504C65.989 170.632 64.869 169.736 63.669 169.736C62.149 169.736 61.221 170.872 61.221 172.632C61.221 174.392 62.149 175.544 63.669 175.544C64.869 175.544 65.989 174.648 65.989 172.808V172.504ZM76.4494 168.632V177H75.0094V175.848C74.5294 176.552 73.7134 177.176 72.5294 177.176C70.7374 177.176 69.7294 175.944 69.7294 174.168V168.632H71.1694V173.864C71.1694 175.048 71.6814 175.848 72.9134 175.848C73.9534 175.848 75.0094 175.064 75.0094 173.672V168.632H76.4494ZM83.1766 168.6V170.056C82.9366 170.008 82.7446 169.992 82.4726 169.992C81.2566 169.992 80.2806 170.952 80.2806 172.424V177H78.8406V168.632H80.2806V170.056C80.6486 169.208 81.4646 168.568 82.6006 168.568C82.8246 168.568 83.0326 168.584 83.1766 168.6ZM86.6866 177.144C85.1666 177.144 83.9346 176.248 83.9346 174.744C83.9346 173.08 85.2306 172.392 87.1026 172.008L89.1346 171.592V171.24C89.1346 170.28 88.6066 169.736 87.4866 169.736C86.4306 169.736 85.8066 170.232 85.5506 171.16L84.1906 170.808C84.5906 169.448 85.8226 168.472 87.5346 168.472C89.4066 168.472 90.5586 169.384 90.5586 171.176V175.256C90.5586 175.8 90.8946 175.976 91.4546 175.848V177C90.1746 177.16 89.4386 176.856 89.2626 176.056C88.7506 176.712 87.8226 177.144 86.6866 177.144ZM89.1346 174.152V172.712L87.5026 173.064C86.2226 173.32 85.3586 173.672 85.3586 174.68C85.3586 175.496 85.9506 175.976 86.8626 175.976C88.0946 175.976 89.1346 175.224 89.1346 174.152ZM93.2365 175V169.864H91.9405V168.632H93.2365V166.184H94.6605V168.632H96.5645V169.864H94.6605V174.776C94.6605 175.656 95.0925 175.816 95.8285 175.816C96.1645 175.816 96.4045 175.8 96.7405 175.72V176.952C96.3725 177.032 95.9565 177.08 95.4765 177.08C94.0525 177.08 93.2365 176.6 93.2365 175ZM98.386 167.176V165.512H99.954V167.176H98.386ZM99.89 168.632V177H98.45V168.632H99.89ZM109.494 172.824C109.494 175.416 107.894 177.176 105.606 177.176C103.318 177.176 101.718 175.416 101.718 172.824C101.718 170.232 103.318 168.472 105.606 168.472C107.894 168.472 109.494 170.232 109.494 172.824ZM103.174 172.824C103.174 174.728 104.134 175.944 105.606 175.944C107.078 175.944 108.038 174.728 108.038 172.824C108.038 170.904 107.078 169.688 105.606 169.688C104.134 169.688 103.174 170.904 103.174 172.824ZM111.325 177V168.632H112.765V169.768C113.245 169.08 114.077 168.472 115.261 168.472C117.037 168.472 118.045 169.704 118.045 171.48V177H116.605V171.864C116.605 170.696 116.109 169.816 114.861 169.816C113.821 169.816 112.765 170.616 112.765 172.008V177H111.325ZM120.02 177V175.112H121.844V177.096C121.844 178.344 121.044 179.096 119.764 179.128V178.296C120.484 178.264 120.852 177.896 120.852 177.128V177H120.02ZM130.942 165.368V166.648C130.702 166.616 130.558 166.616 130.318 166.616C129.47 166.616 129.006 166.984 129.006 168.056V168.632H130.862V169.864H129.006V177H127.566V169.864H126.302V168.632H127.566V167.96C127.566 166.328 128.462 165.336 130.174 165.336C130.462 165.336 130.622 165.352 130.942 165.368ZM138.84 168.632V177H137.4V175.848C136.92 176.552 136.104 177.176 134.92 177.176C133.128 177.176 132.12 175.944 132.12 174.168V168.632H133.56V173.864C133.56 175.048 134.072 175.848 135.304 175.848C136.344 175.848 137.4 175.064 137.4 173.672V168.632H138.84ZM141.231 177V168.632H142.671V169.768C143.151 169.08 143.983 168.472 145.167 168.472C146.943 168.472 147.951 169.704 147.951 171.48V177H146.511V171.864C146.511 170.696 146.015 169.816 144.767 169.816C143.727 169.816 142.671 170.616 142.671 172.008V177H141.231ZM153.335 177.176C151.015 177.176 149.687 175.192 149.687 172.824C149.687 170.44 151.015 168.472 153.335 168.472C154.503 168.472 155.431 169.032 155.927 169.848V165.512H157.367V177H155.927V175.784C155.431 176.616 154.503 177.176 153.335 177.176ZM155.959 172.536C155.959 170.584 154.775 169.736 153.591 169.736C152.023 169.736 151.143 171.016 151.143 172.824C151.143 174.616 152.023 175.912 153.591 175.912C154.775 175.912 155.959 175.048 155.959 173.128V172.536ZM163.346 175V169.864H162.05V168.632H163.346V166.184H164.77V168.632H166.674V169.864H164.77V174.776C164.77 175.656 165.202 175.816 165.938 175.816C166.274 175.816 166.514 175.8 166.85 175.72V176.952C166.482 177.032 166.066 177.08 165.586 177.08C164.162 177.08 163.346 176.6 163.346 175ZM172.895 168.6V170.056C172.655 170.008 172.463 169.992 172.191 169.992C170.975 169.992 169.999 170.952 169.999 172.424V177H168.559V168.632H169.999V170.056C170.367 169.208 171.183 168.568 172.319 168.568C172.543 168.568 172.751 168.584 172.895 168.6ZM176.405 177.144C174.885 177.144 173.653 176.248 173.653 174.744C173.653 173.08 174.949 172.392 176.821 172.008L178.853 171.592V171.24C178.853 170.28 178.325 169.736 177.205 169.736C176.149 169.736 175.525 170.232 175.269 171.16L173.909 170.808C174.309 169.448 175.541 168.472 177.253 168.472C179.125 168.472 180.277 169.384 180.277 171.176V175.256C180.277 175.8 180.613 175.976 181.173 175.848V177C179.893 177.16 179.157 176.856 178.981 176.056C178.469 176.712 177.541 177.144 176.405 177.144ZM178.853 174.152V172.712L177.221 173.064C175.941 173.32 175.077 173.672 175.077 174.68C175.077 175.496 175.669 175.976 176.581 175.976C177.813 175.976 178.853 175.224 178.853 174.152ZM182.731 177V168.632H184.171V169.768C184.651 169.08 185.483 168.472 186.667 168.472C188.443 168.472 189.451 169.704 189.451 171.48V177H188.011V171.864C188.011 170.696 187.515 169.816 186.267 169.816C185.227 169.816 184.171 170.616 184.171 172.008V177H182.731ZM190.835 175.224L191.955 174.408C192.403 175.384 193.427 175.976 194.515 175.976C195.491 175.976 196.355 175.56 196.355 174.648C196.355 173.736 195.555 173.608 194.179 173.32C192.803 173.016 191.363 172.712 191.363 171C191.363 169.512 192.659 168.472 194.435 168.472C195.939 168.472 197.171 169.208 197.667 170.2L196.643 171.016C196.211 170.184 195.427 169.656 194.371 169.656C193.411 169.656 192.771 170.136 192.771 170.888C192.771 171.672 193.507 171.816 194.674 172.072C196.115 172.408 197.763 172.696 197.763 174.52C197.763 176.12 196.307 177.176 194.515 177.176C192.995 177.176 191.475 176.52 190.835 175.224ZM203.192 165.368V166.648C202.952 166.616 202.808 166.616 202.568 166.616C201.72 166.616 201.256 166.984 201.256 168.056V168.632H203.112V169.864H201.256V177H199.816V169.864H198.552V168.632H199.816V167.96C199.816 166.328 200.712 165.336 202.424 165.336C202.712 165.336 202.872 165.352 203.192 165.368ZM207.747 177.176C205.427 177.176 203.827 175.4 203.827 172.824C203.827 170.328 205.411 168.472 207.683 168.472C210.019 168.472 211.251 170.248 211.251 172.568V173.048H205.203C205.283 174.808 206.291 175.928 207.747 175.928C208.867 175.928 209.667 175.32 209.923 174.328L211.187 174.776C210.675 176.264 209.411 177.176 207.747 177.176ZM207.667 169.704C206.451 169.704 205.539 170.52 205.283 171.944H209.795C209.763 170.76 209.123 169.704 207.667 169.704ZM217.38 168.6V170.056C217.14 170.008 216.948 169.992 216.676 169.992C215.46 169.992 214.484 170.952 214.484 172.424V177H213.044V168.632H214.484V170.056C214.852 169.208 215.668 168.568 216.804 168.568C217.028 168.568 217.236 168.584 217.38 168.6ZM26.064 196.824C26.064 198.728 27.088 199.912 28.576 199.912C29.728 199.912 30.416 199.176 30.656 198.136L31.936 198.728C31.536 200.12 30.32 201.176 28.576 201.176C26.24 201.176 24.624 199.4 24.624 196.824C24.624 194.232 26.24 192.472 28.576 192.472C30.32 192.472 31.504 193.48 31.904 194.872L30.656 195.496C30.416 194.472 29.728 193.72 28.576 193.72C27.088 193.72 26.064 194.904 26.064 196.824ZM40.1525 192.632V201H38.7125V199.848C38.2325 200.552 37.4165 201.176 36.2325 201.176C34.4405 201.176 33.4325 199.944 33.4325 198.168V192.632H34.8725V197.864C34.8725 199.048 35.3845 199.848 36.6165 199.848C37.6565 199.848 38.7125 199.064 38.7125 197.672V192.632H40.1525ZM41.6158 199.224L42.7358 198.408C43.1838 199.384 44.2078 199.976 45.2958 199.976C46.2718 199.976 47.1358 199.56 47.1358 198.648C47.1358 197.736 46.3358 197.608 44.9598 197.32C43.5838 197.016 42.1438 196.712 42.1438 195C42.1438 193.512 43.4398 192.472 45.2158 192.472C46.7198 192.472 47.9518 193.208 48.4478 194.2L47.4238 195.016C46.9918 194.184 46.2078 193.656 45.1518 193.656C44.1918 193.656 43.5518 194.136 43.5518 194.888C43.5518 195.672 44.2878 195.816 45.4557 196.072C46.8958 196.408 48.5438 196.696 48.5438 198.52C48.5438 200.12 47.0878 201.176 45.2958 201.176C43.7758 201.176 42.2558 200.52 41.6158 199.224ZM50.549 199V193.864H49.253V192.632H50.549V190.184H51.973V192.632H53.877V193.864H51.973V198.776C51.973 199.656 52.405 199.816 53.141 199.816C53.477 199.816 53.717 199.8 54.053 199.72V200.952C53.685 201.032 53.269 201.08 52.789 201.08C51.365 201.08 50.549 200.6 50.549 199ZM62.9156 196.824C62.9156 199.416 61.3156 201.176 59.0276 201.176C56.7396 201.176 55.1396 199.416 55.1396 196.824C55.1396 194.232 56.7396 192.472 59.0276 192.472C61.3156 192.472 62.9156 194.232 62.9156 196.824ZM56.5956 196.824C56.5956 198.728 57.5556 199.944 59.0276 199.944C60.4996 199.944 61.4596 198.728 61.4596 196.824C61.4596 194.904 60.4996 193.688 59.0276 193.688C57.5556 193.688 56.5956 194.904 56.5956 196.824ZM66.1869 195.992V201H64.7469V192.632H66.1869V193.768C66.6349 193.08 67.4349 192.472 68.6029 192.472C69.7229 192.472 70.5069 193.032 70.9229 193.896C71.3869 193.208 72.2829 192.472 73.5949 192.472C75.3229 192.472 76.3629 193.704 76.3629 195.48V201H74.9229V195.864C74.9229 194.696 74.4429 193.816 73.2589 193.816C72.2989 193.816 71.2749 194.632 71.2749 195.992V201H69.8349V195.864C69.8349 194.696 69.3549 193.816 68.1709 193.816C67.2109 193.816 66.1869 194.632 66.1869 195.992ZM78.6204 191.176V189.512H80.1884V191.176H78.6204ZM80.1244 192.632V201H78.6844V192.632H80.1244ZM88.5761 199.768V201H81.9841V199.912L86.8161 193.864H82.0481V192.632H88.5281V193.736L83.7921 199.768H88.5761ZM92.4054 201.144C90.8854 201.144 89.6534 200.248 89.6534 198.744C89.6534 197.08 90.9494 196.392 92.8214 196.008L94.8534 195.592V195.24C94.8534 194.28 94.3254 193.736 93.2054 193.736C92.1494 193.736 91.5254 194.232 91.2694 195.16L89.9094 194.808C90.3094 193.448 91.5414 192.472 93.2534 192.472C95.1254 192.472 96.2774 193.384 96.2774 195.176V199.256C96.2774 199.8 96.6134 199.976 97.1734 199.848V201C95.8934 201.16 95.1574 200.856 94.9814 200.056C94.4694 200.712 93.5414 201.144 92.4054 201.144ZM94.8534 198.152V196.712L93.2214 197.064C91.9414 197.32 91.0774 197.672 91.0774 198.68C91.0774 199.496 91.6694 199.976 92.5814 199.976C93.8134 199.976 94.8534 199.224 94.8534 198.152ZM98.9553 199V193.864H97.6593V192.632H98.9553V190.184H100.379V192.632H102.283V193.864H100.379V198.776C100.379 199.656 100.811 199.816 101.547 199.816C101.883 199.816 102.123 199.8 102.459 199.72V200.952C102.091 201.032 101.675 201.08 101.195 201.08C99.7713 201.08 98.9553 200.6 98.9553 199ZM104.105 191.176V189.512H105.673V191.176H104.105ZM105.609 192.632V201H104.169V192.632H105.609ZM115.213 196.824C115.213 199.416 113.613 201.176 111.325 201.176C109.037 201.176 107.437 199.416 107.437 196.824C107.437 194.232 109.037 192.472 111.325 192.472C113.613 192.472 115.213 194.232 115.213 196.824ZM108.893 196.824C108.893 198.728 109.853 199.944 111.325 199.944C112.797 199.944 113.757 198.728 113.757 196.824C113.757 194.904 112.797 193.688 111.325 193.688C109.853 193.688 108.893 194.904 108.893 196.824ZM117.044 201V192.632H118.484V193.768C118.964 193.08 119.796 192.472 120.98 192.472C122.756 192.472 123.764 193.704 123.764 195.48V201H122.324V195.864C122.324 194.696 121.828 193.816 120.58 193.816C119.54 193.816 118.484 194.616 118.484 196.008V201H117.044ZM131.546 201.144C130.026 201.144 128.794 200.248 128.794 198.744C128.794 197.08 130.09 196.392 131.962 196.008L133.994 195.592V195.24C133.994 194.28 133.466 193.736 132.346 193.736C131.29 193.736 130.666 194.232 130.41 195.16L129.05 194.808C129.45 193.448 130.682 192.472 132.394 192.472C134.266 192.472 135.418 193.384 135.418 195.176V199.256C135.418 199.8 135.754 199.976 136.314 199.848V201C135.034 201.16 134.298 200.856 134.122 200.056C133.61 200.712 132.682 201.144 131.546 201.144ZM133.994 198.152V196.712L132.362 197.064C131.082 197.32 130.218 197.672 130.218 198.68C130.218 199.496 130.81 199.976 131.722 199.976C132.954 199.976 133.994 199.224 133.994 198.152ZM137.872 201V192.632H139.312V193.768C139.792 193.08 140.624 192.472 141.808 192.472C143.584 192.472 144.592 193.704 144.592 195.48V201H143.152V195.864C143.152 194.696 142.656 193.816 141.408 193.816C140.368 193.816 139.312 194.616 139.312 196.008V201H137.872ZM149.975 201.176C147.655 201.176 146.327 199.192 146.327 196.824C146.327 194.44 147.655 192.472 149.975 192.472C151.143 192.472 152.071 193.032 152.567 193.848V189.512H154.007V201H152.567V199.784C152.071 200.616 151.143 201.176 149.975 201.176ZM152.599 196.536C152.599 194.584 151.415 193.736 150.231 193.736C148.663 193.736 147.783 195.016 147.783 196.824C147.783 198.616 148.663 199.912 150.231 199.912C151.415 199.912 152.599 199.048 152.599 197.128V196.536ZM161.203 195.992V201H159.763V192.632H161.203V193.768C161.651 193.08 162.451 192.472 163.619 192.472C164.739 192.472 165.523 193.032 165.939 193.896C166.403 193.208 167.299 192.472 168.611 192.472C170.339 192.472 171.379 193.704 171.379 195.48V201H169.939V195.864C169.939 194.696 169.459 193.816 168.275 193.816C167.315 193.816 166.291 194.632 166.291 195.992V201H164.851V195.864C164.851 194.696 164.371 193.816 163.187 193.816C162.227 193.816 161.203 194.632 161.203 195.992ZM180.9 196.824C180.9 199.416 179.3 201.176 177.012 201.176C174.724 201.176 173.124 199.416 173.124 196.824C173.124 194.232 174.724 192.472 177.012 192.472C179.3 192.472 180.9 194.232 180.9 196.824ZM174.58 196.824C174.58 198.728 175.54 199.944 177.012 199.944C178.484 199.944 179.444 198.728 179.444 196.824C179.444 194.904 178.484 193.688 177.012 193.688C175.54 193.688 174.58 194.904 174.58 196.824ZM187.067 192.6V194.056C186.827 194.008 186.635 193.992 186.363 193.992C185.147 193.992 184.171 194.952 184.171 196.424V201H182.731V192.632H184.171V194.056C184.539 193.208 185.355 192.568 186.491 192.568C186.715 192.568 186.923 192.584 187.067 192.6ZM191.653 201.176C189.333 201.176 187.733 199.4 187.733 196.824C187.733 194.328 189.317 192.472 191.589 192.472C193.925 192.472 195.157 194.248 195.157 196.568V197.048H189.109C189.189 198.808 190.197 199.928 191.653 199.928C192.773 199.928 193.573 199.32 193.829 198.328L195.093 198.776C194.581 200.264 193.317 201.176 191.653 201.176ZM191.573 193.704C190.357 193.704 189.445 194.52 189.189 195.944H193.701C193.669 194.76 193.029 193.704 191.573 193.704Z" fill="#4D148C"/>
<defs>
<linearGradient id="paint0_linear_1162_4951" x1="24.8023" y1="71.1756" x2="63.9331" y2="-5.30097" gradientUnits="userSpaceOnUse">
<stop stop-color="#CDE1FF"/>
<stop offset="0.501376" stop-color="#BF9BFF"/>
<stop offset="1" stop-color="#6E1DFF"/>
</linearGradient>
<linearGradient id="paint1_linear_1162_4951" x1="63.1329" y1="31.3032" x2="33.1573" y2="78.6124" gradientUnits="userSpaceOnUse">
<stop stop-color="#CDE1FF"/>
<stop offset="0.501376" stop-color="#BF9BFF"/>
<stop offset="1" stop-color="#6E1DFF"/>
</linearGradient>
</defs>
</svg>
