<svg width="24" height="24" viewBox="0 0 24 24" fill="none" xmlns="http://www.w3.org/2000/svg">
<path d="M7.34735 10.994C7.52952 10.8539 7.54741 10.6113 7.38733 10.4518L7.36314 10.4276C7.3251 10.3898 7.27888 10.3589 7.22714 10.3369C7.1754 10.3148 7.11917 10.3018 7.06169 10.2988H7.03245C6.92586 10.2987 6.8229 10.3326 6.74298 10.3943L6.15395 10.8464L5.61752 11.258C5.43588 11.3983 5.41811 11.6406 5.57775 11.8L5.60235 11.8247C5.76276 11.9838 6.04029 11.9995 6.22272 11.8596L6.63505 11.5433L7.34735 10.994Z" fill="black"/>
<path d="M5.95264 12.0466C5.94043 12.0466 5.92846 12.0466 5.91625 12.0456C5.84487 12.0418 5.77509 12.0256 5.71092 11.998C5.64675 11.9704 5.58948 11.9319 5.54241 11.8848L5.51758 11.86C5.32012 11.6623 5.34221 11.3622 5.56702 11.1883L6.69292 10.3234C6.80159 10.2403 6.94345 10.1981 7.08756 10.206C7.15894 10.2099 7.22873 10.2261 7.2929 10.2537C7.35706 10.2813 7.41434 10.3198 7.4614 10.3669L7.4959 10.402C7.68413 10.6002 7.65785 10.8935 7.43659 11.0635L6.3111 11.9284C6.21217 12.0048 6.08463 12.0469 5.95264 12.0466ZM7.05161 10.3904C6.97048 10.3908 6.89227 10.417 6.83156 10.464L5.70607 11.3289C5.56802 11.4358 5.5546 11.6201 5.676 11.7415L5.70084 11.7663C5.8229 11.8872 6.03384 11.899 6.17248 11.7926L7.29776 10.9277C7.4362 10.8211 7.44975 10.6366 7.32807 10.5153L7.30347 10.4905C7.27463 10.4617 7.23953 10.4381 7.20021 10.4212C7.16088 10.4043 7.11811 10.3944 7.07438 10.3921L7.05161 10.3904ZM8.94661 11.9564C8.84001 11.9563 8.73701 11.9902 8.65693 12.0517L8.07609 12.4978C7.89357 12.6379 7.87544 12.8809 8.03558 13.0405C8.19575 13.2002 8.47355 13.2161 8.65607 13.076L9.23691 12.6299C9.41944 12.49 9.43771 12.2471 9.27774 12.0875C9.23643 12.0462 9.1855 12.0132 9.12839 11.9906C9.07128 11.968 9.0093 11.9563 8.94661 11.9564Z" fill="black"/>
<path d="M8.35402 13.2628C8.05322 13.2633 7.80895 13.0504 7.80842 12.7872C7.80829 12.7193 7.82479 12.6521 7.85681 12.5901C7.88883 12.5282 7.93564 12.4729 7.99408 12.4281L8.57513 11.9821C8.80422 11.8162 9.14148 11.8354 9.34402 12.0259C9.54254 12.2238 9.52013 12.5249 9.29396 12.6986L8.71312 13.1447C8.61389 13.2211 8.48618 13.2631 8.35402 13.2628ZM8.9342 12.0484C8.85302 12.0478 8.7744 12.0732 8.71309 12.1197L8.13205 12.5658C7.99313 12.6725 7.97944 12.8575 8.10144 12.979C8.22344 13.1005 8.43494 13.1125 8.57383 13.0058L9.15487 12.5603C9.29373 12.4538 9.30762 12.2691 9.18595 12.1476C9.15451 12.1163 9.11576 12.0911 9.0723 12.074C9.02885 12.0568 8.98169 12.0479 8.934 12.048L8.9342 12.0484ZM3.75133 4.90479L2.57031 9.41173L3.51446 9.87582L5.95768 6.39939L3.75133 4.90479Z" fill="black"/>
<path d="M3.55398 9.99966L2.45312 9.45865L3.68819 4.74414L6.09945 6.3773L3.55398 9.99966ZM2.69337 9.36554L3.48077 9.75198L5.82175 6.42127L3.81989 5.06615L2.69337 9.36554ZM5.99091 10.4717C6.17337 10.3315 6.19144 10.0885 6.0313 9.92884L6.02373 9.92129C5.98577 9.88326 5.93956 9.85219 5.88778 9.82989C5.836 9.80759 5.77968 9.7945 5.72207 9.79137H5.69283C5.58624 9.79122 5.48328 9.8252 5.40336 9.88689L4.69798 10.4272C4.51551 10.5674 4.49744 10.8104 4.65759 10.97C4.81456 11.1334 5.09324 11.1545 5.28003 11.0172L5.28576 11.0129L5.33919 10.9718L5.87606 10.5596L5.99091 10.4717Z" fill="black"/>
<path d="M5.00952 11.2008C4.99606 11.2008 4.98237 11.2008 4.96851 11.1995C4.82156 11.1896 4.68502 11.1294 4.58858 11.0319C4.39003 10.8341 4.41236 10.533 4.63844 10.3593L5.34296 9.81851C5.56907 9.64507 5.91303 9.66459 6.11164 9.86212C6.16114 9.90966 6.19919 9.96542 6.22355 10.0261C6.2479 10.0867 6.25806 10.1511 6.25342 10.2152C6.24902 10.2777 6.23048 10.3388 6.19888 10.395C6.16729 10.4511 6.12326 10.5013 6.06936 10.5424L5.36505 11.0833C5.26697 11.1592 5.14048 11.201 5.00952 11.2008ZM5.70183 9.88403C5.62068 9.88431 5.54244 9.91049 5.48178 9.95764L4.77726 10.4985C4.63841 10.605 4.62466 10.7899 4.74651 10.9114L4.74654 10.9114C4.80662 10.9726 4.8919 11.0106 4.98382 11.017C5.02757 11.02 5.07155 11.0153 5.11315 11.0031C5.15475 10.9909 5.19312 10.9714 5.22596 10.946L5.93027 10.4052C6.06901 10.2985 6.08276 10.1137 5.96099 9.99224C5.93176 9.96139 5.89568 9.93604 5.85493 9.91773C5.81418 9.89942 5.76961 9.88852 5.72392 9.88571L5.70183 9.88403ZM8.45726 11.5492C8.4612 11.4988 8.45365 11.4482 8.43505 11.4003C8.41645 11.3524 8.38718 11.3083 8.34893 11.2704L8.34263 11.2642C8.30464 11.2264 8.25848 11.1956 8.20682 11.1734C8.15515 11.1513 8.099 11.1384 8.04159 11.1353H8.01235C7.90576 11.1352 7.80279 11.1692 7.72288 11.2309L7.65386 11.2839L6.94112 11.8311L6.7518 11.9758C6.56898 12.1205 6.5549 12.3674 6.72031 12.5273C6.79749 12.6019 6.90464 12.6476 7.01939 12.6548C7.07705 12.6583 7.13493 12.6517 7.18965 12.6354C7.24437 12.6192 7.29484 12.5935 7.33811 12.56L8.30854 11.8149C8.35227 11.7815 8.38795 11.7408 8.41349 11.6952C8.43902 11.6495 8.45391 11.5999 8.45726 11.5492Z" fill="black"/>
<path d="M7.03586 12.743C7.02385 12.743 7.01209 12.743 7.00011 12.742C6.6971 12.7256 6.46667 12.4976 6.48545 12.2327C6.49444 12.1056 6.56075 11.9868 6.66983 11.9024L7.63944 11.1568C7.74826 11.0739 7.89002 11.0318 8.03408 11.0395C8.10536 11.0433 8.17507 11.0594 8.23917 11.087C8.30327 11.1145 8.36048 11.1529 8.4075 11.1999C8.4569 11.2473 8.49487 11.3029 8.51915 11.3635C8.54344 11.424 8.55354 11.4882 8.54887 11.5522C8.54435 11.6145 8.5258 11.6754 8.49429 11.7314C8.46277 11.7874 8.41891 11.8374 8.36522 11.8785L7.39479 12.6232C7.29593 12.7002 7.16823 12.7428 7.03586 12.743ZM7.70904 11.3486L6.80845 12.0398C6.66954 12.1463 6.65543 12.331 6.7769 12.4527C6.80616 12.4831 6.84211 12.5081 6.88262 12.5262C6.92314 12.5442 6.96738 12.5549 7.01274 12.5577C7.05674 12.5605 7.10092 12.5555 7.14268 12.5431C7.18444 12.5307 7.22295 12.5111 7.25594 12.4855L8.22637 11.7408C8.36519 11.6344 8.37909 11.4498 8.25738 11.3284L8.25709 11.328C8.22793 11.2975 8.19197 11.2724 8.1514 11.2543C8.11083 11.2362 8.06648 11.2255 8.02104 11.2228H7.99875C7.91754 11.2228 7.83918 11.249 7.7787 11.2964L7.70904 11.3486Z" fill="black"/>
<path d="M14.2552 10.3189L10.8316 7.87865C9.5206 8.48758 8.59224 8.17418 8.14837 7.92632C7.91699 7.79426 7.85183 7.52309 8.0028 7.32071C8.04971 7.25782 8.11433 7.20656 8.19044 7.17186L9.33148 6.64171C9.30352 6.63798 9.27546 6.63485 9.24733 6.63232C8.21762 6.77463 7.17769 6.85297 6.13533 6.86676L4.14062 9.70465L4.58533 10.0011L5.1081 9.59959C5.47105 9.32088 6.02359 9.3523 6.34222 9.66979L6.34234 9.66989L6.34991 9.67745C6.45452 9.78238 6.5241 9.91047 6.55103 10.0477C6.70956 9.95309 6.89979 9.90773 7.09127 9.91889C7.20593 9.92514 7.31804 9.95122 7.4211 9.99563C7.52416 10.04 7.61612 10.1019 7.69165 10.1776L7.71626 10.2023C7.79219 10.2776 7.85031 10.3653 7.88725 10.4604C7.92418 10.5554 7.93921 10.656 7.93145 10.7561V10.7573C7.9715 10.7537 8.01178 10.7525 8.052 10.7538C8.16666 10.76 8.27876 10.7861 8.38182 10.8305C8.48487 10.8749 8.57684 10.9368 8.65239 11.0125L8.49523 11.1442L8.65868 11.0187C8.73473 11.0941 8.79295 11.1818 8.82996 11.277C8.86697 11.3721 8.88205 11.4727 8.87433 11.573C8.87433 11.5756 8.87305 11.578 8.87285 11.5805C9.35182 11.5507 9.76773 11.8662 9.80182 12.2852C9.80466 12.3202 9.80475 12.3553 9.80206 12.3902C9.79127 12.5218 9.74138 12.6487 9.65732 12.7583L10.5953 13.2317C10.801 13.3337 11.0621 13.2732 11.1831 13.0956C11.2978 12.926 11.2419 12.7076 11.0554 12.597L9.56179 11.6917C9.56052 11.6917 9.5599 11.6897 9.55883 11.6889L9.45827 11.628C9.43507 11.6134 9.41538 11.595 9.40032 11.5738C9.38527 11.5525 9.37514 11.5289 9.37052 11.5042C9.3659 11.4796 9.36688 11.4544 9.37341 11.43C9.37993 11.4057 9.39187 11.3828 9.40854 11.3625C9.44143 11.3224 9.49082 11.2951 9.54628 11.2863C9.60175 11.2775 9.65897 11.2878 9.70587 11.3152L11.8125 12.5917C12.0068 12.7095 12.2736 12.6672 12.4082 12.4973L12.4085 12.497C12.5407 12.3279 12.4939 12.0975 12.3033 11.9786L10.207 10.6779C10.2057 10.6779 10.2053 10.6759 10.204 10.6752C10.158 10.6455 10.1271 10.6013 10.1181 10.5519C10.109 10.5026 10.1225 10.4521 10.1557 10.4113C10.1888 10.3706 10.2389 10.3429 10.2952 10.3342C10.3515 10.3255 10.4094 10.3366 10.4565 10.3649L12.8067 11.8234C13.0123 11.9504 13.2966 11.9076 13.4418 11.7277C13.5823 11.5537 13.5414 11.3137 13.349 11.183L10.8202 9.58909C10.7202 9.53077 10.6933 9.41265 10.76 9.32522C10.7764 9.30361 10.7978 9.28517 10.8227 9.27106C10.8477 9.25695 10.8757 9.24745 10.905 9.24316C10.9343 9.23887 10.9643 9.23987 10.9931 9.24611C11.0219 9.25234 11.049 9.26368 11.0726 9.27942L11.2456 9.38725H11.2479L13.5916 10.8644C13.596 10.8671 13.5992 10.8706 13.6034 10.8734L13.6421 10.8977C13.6494 10.9021 13.6565 10.907 13.6631 10.9122L13.7052 10.9374C13.901 11.0602 14.1725 11.0274 14.323 10.8627C14.3674 10.8137 14.3976 10.7561 14.4112 10.6947C14.4248 10.6334 14.4213 10.5701 14.4011 10.5101C14.3761 10.4348 14.3252 10.368 14.2552 10.3189Z" fill="black"/>
<path d="M10.823 13.3736C10.7301 13.3737 10.6387 13.3523 10.5582 13.3116L9.52254 12.7892L9.58563 12.7082C9.81943 12.3997 9.72301 11.9838 9.37032 11.7793C9.25846 11.7144 9.12907 11.6764 8.99513 11.6691C8.96902 11.6679 8.94286 11.6686 8.91686 11.6709L8.7757 11.6786L8.78389 11.5739C8.79714 11.4252 8.75347 11.2769 8.65976 11.1523L8.58087 11.2131L8.43865 11.0776L8.5186 11.0107C8.3914 10.9126 8.23051 10.8543 8.06127 10.845C8.0306 10.8442 7.99989 10.845 7.96934 10.8476L7.85636 10.855L7.84226 10.7461V10.7422C7.85328 10.5668 7.78532 10.3946 7.65293 10.2624L7.6281 10.2376C7.37484 9.98332 6.94433 9.93467 6.62547 10.1243L6.49146 10.203L6.46329 10.0639C6.39182 9.69607 5.993 9.4486 5.57251 9.51114C5.43188 9.53206 5.30062 9.58663 5.19327 9.66881L4.60572 10.12L4.01562 9.72713L6.09007 6.77548L6.14667 6.77401C7.18337 6.76016 8.21766 6.68238 9.24184 6.54123L9.25657 6.53864L9.2715 6.53976C9.29926 6.54195 9.32999 6.54565 9.36174 6.54969L9.6773 6.5911L8.25435 7.25209C8.0605 7.33969 7.98457 7.54818 8.08472 7.71775C8.11612 7.7709 8.16275 7.81601 8.22005 7.84868C8.63765 8.08182 9.52877 8.38565 10.7969 7.79697L10.8585 7.76826L14.3359 10.2468C14.4222 10.3081 14.4849 10.3912 14.5154 10.4847C14.5404 10.5587 14.5448 10.6368 14.5281 10.7125C14.5114 10.7882 14.4741 10.8593 14.4195 10.9197C14.2336 11.1229 13.8986 11.1633 13.6569 11.0117L13.5388 10.9346L11.0262 9.3521C11.0021 9.33695 10.9721 9.33081 10.9428 9.33502C10.9135 9.33922 10.8873 9.35343 10.87 9.37452L10.8697 9.37493C10.8524 9.39607 10.8453 9.42236 10.8502 9.44803C10.855 9.4737 10.8713 9.49664 10.8954 9.51181L10.8958 9.51204L13.425 11.1073C13.6703 11.2728 13.7156 11.5809 13.5263 11.7954C13.3432 12.003 13.0057 12.0479 12.7603 11.8973L10.4094 10.4395C10.3973 10.432 10.3837 10.4267 10.3692 10.4238C10.3548 10.4209 10.3398 10.4206 10.3253 10.4228C10.3033 10.426 10.283 10.4349 10.2669 10.4482C10.2507 10.4616 10.2394 10.4788 10.2345 10.4978C10.2295 10.5167 10.2311 10.5365 10.239 10.5547C10.247 10.5728 10.2609 10.5885 10.279 10.5998L12.3789 11.9036C12.6161 12.0518 12.674 12.3389 12.5091 12.5493C12.3416 12.7612 12.0095 12.8143 11.7672 12.6678L11.7669 12.6676L9.66071 11.3909C9.6486 11.3831 9.63483 11.3774 9.62019 11.3743C9.60555 11.3713 9.59036 11.3708 9.5755 11.3729C9.56065 11.3751 9.54645 11.3798 9.53374 11.3869C9.52102 11.394 9.51006 11.4032 9.5015 11.414C9.49294 11.4248 9.48696 11.4371 9.4839 11.45C9.48085 11.4629 9.4808 11.4762 9.48374 11.4891C9.48668 11.502 9.49256 11.5143 9.50103 11.5251C9.5095 11.536 9.52038 11.5453 9.53303 11.5525L11.1306 12.5215C11.3735 12.667 11.4356 12.9572 11.2693 13.1697C11.1976 13.2612 11.091 13.3274 10.9686 13.3564C10.9212 13.3678 10.8722 13.3736 10.823 13.3736ZM9.81706 12.7249L10.6634 13.1522C10.8211 13.2269 11.0182 13.1756 11.1036 13.0376C11.1409 12.9773 11.152 12.9074 11.135 12.8405C11.1179 12.7737 11.0739 12.7145 11.0109 12.6738L9.81704 11.9491C9.89788 12.0868 9.93424 12.2413 9.92221 12.3957C9.91369 12.5107 9.87788 12.6228 9.81706 12.7249ZM9.59788 11.1897C9.66327 11.1896 9.72714 11.207 9.7809 11.2396L11.8871 12.5161C12.0338 12.6048 12.2349 12.5728 12.3365 12.4445C12.4363 12.3171 12.4011 12.1432 12.2574 12.0535L10.1461 10.7422C10.0803 10.6966 10.0375 10.6304 10.0266 10.5577C10.0156 10.4849 10.0376 10.4113 10.0876 10.3524C10.1377 10.2935 10.2121 10.2541 10.2949 10.2423C10.3777 10.2306 10.4625 10.2475 10.5313 10.2895L12.8821 11.748C13.0409 11.8449 13.2593 11.8109 13.3701 11.6721C13.4214 11.6079 13.4426 11.529 13.4294 11.4515C13.4162 11.3741 13.3697 11.304 13.2993 11.2556L10.7732 9.6633C10.6283 9.57264 10.5948 9.39638 10.6984 9.26959C10.8021 9.1428 11.0036 9.11352 11.1485 9.20418L11.324 9.31294L13.718 10.8235C13.7287 10.8303 13.739 10.8377 13.7487 10.8456L13.7784 10.8626C13.9282 10.9576 14.1369 10.9333 14.2532 10.8074C14.2872 10.7699 14.3104 10.7257 14.3209 10.6787C14.3314 10.6317 14.3288 10.5832 14.3133 10.5373C14.295 10.4795 14.2567 10.428 14.2037 10.39L10.8334 7.98788C9.50406 8.58224 8.55636 8.25508 8.10636 8.00353C7.82585 7.84433 7.74599 7.51637 7.92798 7.27099C7.98496 7.19415 8.06375 7.13156 8.15666 7.08932L8.80166 6.78973C8.14572 6.86759 7.25019 6.92555 6.21033 6.95534L4.29593 9.68057L4.59697 9.88097L5.05536 9.52914C5.46184 9.21693 6.08073 9.25208 6.43765 9.60764L6.43792 9.60789C6.52586 9.6949 6.59297 9.79646 6.63525 9.90655C6.78418 9.84323 6.94947 9.81513 7.11467 9.82503C7.24324 9.832 7.36894 9.86123 7.4845 9.91101C7.60005 9.96079 7.70316 10.0301 7.78785 10.115L7.81269 10.1399C7.95817 10.2841 8.04339 10.4673 8.05441 10.6594H8.07544C8.30198 10.6723 8.51622 10.7541 8.68108 10.8907L8.68445 10.8881L8.74146 10.9451L8.74755 10.951L8.81381 11.0171L8.81086 11.0197C8.92375 11.1551 8.98824 11.3168 8.99619 11.4843H9.00902C9.10246 11.4897 9.19456 11.5067 9.2825 11.5347C9.24205 11.3832 9.34971 11.2317 9.52292 11.1963C9.54755 11.1913 9.57277 11.1888 9.59805 11.189L9.59788 11.1897ZM16.1252 4.83594L13.9192 6.33054L15.9598 9.23379C15.9733 9.23987 15.9859 9.24722 15.9975 9.2557C16.0325 9.28724 16.0536 9.32855 16.0573 9.37237L16.3629 9.80721L17.3062 9.34294L16.1252 4.83594Z" fill="black"/>
<path d="M16.3226 9.93102L15.9514 9.40254L15.9491 9.3812C15.9477 9.35867 15.9373 9.33728 15.9196 9.32083L15.8792 9.29985L15.8668 9.28146L13.7768 6.30863L16.1884 4.67529L17.4237 9.38981L16.3226 9.93102ZM16.1544 9.34106L16.3954 9.68389L17.1828 9.29745L16.0567 4.99715L14.0551 6.35299L16.0326 9.16644C16.0456 9.17327 16.0577 9.18142 16.0685 9.19073C16.1147 9.23168 16.1449 9.28427 16.155 9.34108L16.1544 9.34106ZM13.3499 6.84633C12.922 7.00043 12.4452 7.01558 12.0057 6.88903L10.8476 6.56019C10.7684 6.53821 10.6849 6.53015 10.6021 6.53647C10.5193 6.54279 10.4387 6.56335 10.365 6.59699L9.97248 6.77936C9.96828 6.7812 9.9647 6.78343 9.96027 6.78508L8.4048 7.50791C8.39393 7.51247 8.3847 7.51955 8.3781 7.52837C8.3715 7.53719 8.36779 7.54743 8.36736 7.55796C8.36652 7.56749 8.36869 7.57704 8.37362 7.58558C8.37855 7.59411 8.38606 7.60129 8.39534 7.60635C8.85288 7.86177 9.63652 8.04799 10.7584 7.48489C10.7966 7.46577 10.8405 7.45721 10.8844 7.46033C10.9282 7.46345 10.97 7.47811 11.0041 7.50238L14.54 10.0234C14.5892 10.0588 14.6337 10.099 14.6725 10.1432L15.5468 9.37789L13.6836 6.72694L13.3499 6.84633Z" fill="black"/>
<path d="M14.6506 10.281L14.5774 10.1998C14.5436 10.1611 14.5048 10.1259 14.4617 10.0949L10.925 7.57464C10.9074 7.56232 10.8859 7.55488 10.8634 7.55328C10.841 7.55167 10.8184 7.55596 10.7988 7.56561C9.63099 8.15227 8.80993 7.95425 8.3267 7.68484C8.30173 7.67108 8.28146 7.65168 8.26802 7.62869C8.25458 7.6057 8.24847 7.57997 8.25032 7.5542C8.25157 7.52766 8.26091 7.50189 8.27737 7.47957C8.29383 7.45724 8.31681 7.43918 8.34394 7.42723L10.3035 6.51691C10.3896 6.47745 10.4838 6.45329 10.5807 6.44584C10.6775 6.43838 10.7751 6.44778 10.8677 6.47348L12.0254 6.80178C12.4412 6.92161 12.8922 6.90738 13.2971 6.76167L13.7142 6.61225L15.6677 9.39091L14.6506 10.281ZM10.8532 7.36834C10.9275 7.36821 10.9997 7.39043 11.0575 7.43127L14.5936 9.9523C14.6185 9.96987 14.6422 9.98874 14.6645 10.0088L15.4008 9.36474L13.628 6.84166L13.3772 6.93147C12.926 7.09391 12.4233 7.10984 11.9599 6.97637L10.8029 6.64771C10.7369 6.62958 10.6675 6.62302 10.5986 6.62839C10.5298 6.63376 10.4628 6.65096 10.4015 6.679L8.50124 7.5623C8.94154 7.78605 9.66585 7.92241 10.6939 7.4059C10.7424 7.3815 10.7973 7.36855 10.8532 7.36834Z" fill="black"/>
<path fill-rule="evenodd" clip-rule="evenodd" d="M1.5 1.05664C0.671574 1.05664 0 1.72821 0 2.55664V22.1982C0 23.0266 0.671574 23.6982 1.5 23.6982H17.4163C16.773 23.4727 16.1983 23.1292 15.7273 22.6982H1.5C1.22386 22.6982 1 22.4744 1 22.1982V2.55664C1 2.2805 1.22386 2.05664 1.5 2.05664H6.91425V1.05664H1.5ZM18.8864 15.5916C18.9917 15.5856 19.0979 15.5825 19.2049 15.5825C19.4363 15.5825 19.6638 15.5968 19.8864 15.6244V2.55664C19.8864 1.72821 19.2148 1.05664 18.3864 1.05664H13.1503V2.05664H18.3864C18.6625 2.05664 18.8864 2.2805 18.8864 2.55664V15.5916Z" fill="black"/>
<rect x="7.27344" y="-0.000976562" width="5.53958" height="2.80539" rx="0.5" fill="black"/>
<path d="M2.28906 15.5845H13.514" stroke="black" stroke-linecap="round"/>
<path d="M2.28906 18.1338H12.9309" stroke="black" stroke-linecap="round"/>
<path d="M2.28906 20.6841H12.6393" stroke="black" stroke-linecap="round"/>
<path d="M23.5042 19.7921C23.5042 21.7792 21.6392 23.5001 19.1935 23.5001C16.7478 23.5001 14.8828 21.7792 14.8828 19.7921C14.8828 17.8049 16.7478 16.084 19.1935 16.084C21.6392 16.084 23.5042 17.8049 23.5042 19.7921Z" fill="white" stroke="black"/>
<ellipse cx="18.9997" cy="19.0098" rx="0.999709" ry="1.00052" fill="#FFC000"/>
<path d="M18.048 21.0187C18.7804 21.065 19.2317 21.0672 19.9266 21.0209C20.0184 21.0148 20.1648 21.0456 20.2509 21.0778C20.6841 21.2398 20.5562 21.7237 20.1104 21.8464C19.3396 22.0586 18.6624 22.0659 17.9249 21.8683C17.4338 21.7368 17.287 21.1736 17.7796 21.0476C17.8534 21.0287 17.9719 21.0139 18.048 21.0187Z" fill="#FFC000" stroke="#FFC000"/>
</svg>
