<svg width="18" height="18" viewBox="0 0 18 18" fill="none" xmlns="http://www.w3.org/2000/svg">
<path d="M5.59204 8.17411C5.72748 8.06992 5.74078 7.88952 5.62176 7.77099L5.60378 7.75294C5.57549 7.72485 5.54113 7.70192 5.50266 7.6855C5.46419 7.66907 5.42239 7.65946 5.37965 7.65723H5.35791C5.27866 7.65712 5.20211 7.68236 5.14269 7.72821L4.70475 8.06432L4.30592 8.37036C4.17088 8.47469 4.15766 8.6548 4.27636 8.77335L4.29465 8.79166C4.41391 8.91002 4.62025 8.92165 4.75589 8.81765L5.06245 8.58245L5.59204 8.17411Z" fill="#333333"/>
<path d="M4.55648 8.95605C4.5474 8.95605 4.5385 8.95605 4.52942 8.95536C4.47635 8.95249 4.42446 8.94044 4.37676 8.91992C4.32905 8.89939 4.28647 8.8708 4.25148 8.83578L4.23301 8.81732C4.0862 8.67035 4.10262 8.44724 4.26977 8.31794L5.10686 7.67491C5.18766 7.61307 5.29314 7.58169 5.40028 7.58762C5.45335 7.59049 5.50523 7.60253 5.55294 7.62306C5.60065 7.64358 5.64323 7.67218 5.67822 7.7072L5.70388 7.73333C5.84382 7.88069 5.82428 8.09872 5.65978 8.22517L4.82299 8.86821C4.74943 8.92503 4.65461 8.95628 4.55648 8.95605ZM5.37355 7.72472C5.31323 7.72499 5.25508 7.74444 5.20994 7.77944L4.37316 8.42247C4.27051 8.50193 4.26053 8.63898 4.3508 8.72921L4.36926 8.74767C4.46001 8.83759 4.61685 8.84634 4.71993 8.76723L5.55656 8.1242C5.65949 8.04493 5.66956 7.90773 5.5791 7.8176L5.56081 7.79913C5.53936 7.77768 5.51327 7.76017 5.48403 7.7476C5.45479 7.73504 5.42299 7.72768 5.39048 7.72595L5.37355 7.72472ZM6.78246 8.88901C6.70321 8.88891 6.62663 8.91411 6.56709 8.95987L6.13524 9.29151C5.99954 9.39568 5.98606 9.57635 6.10512 9.69506C6.22421 9.81376 6.43075 9.82555 6.56645 9.7214L6.9983 9.38976C7.13401 9.28573 7.14759 9.10516 7.02866 8.98645C6.99794 8.95579 6.96008 8.93123 6.91762 8.91443C6.87515 8.89762 6.82907 8.88895 6.78246 8.88901Z" fill="#333333"/>
<path d="M6.34701 9.86063C6.12337 9.86097 5.94176 9.70265 5.94136 9.50703C5.94127 9.45648 5.95353 9.40651 5.97734 9.36046C6.00115 9.31441 6.03595 9.27335 6.0794 9.24004L6.5114 8.9084C6.68173 8.78506 6.93248 8.79932 7.08307 8.94095C7.23067 9.08808 7.214 9.312 7.04585 9.44114L6.614 9.77278C6.54022 9.82956 6.44527 9.8608 6.34701 9.86063ZM6.77837 8.95766C6.71802 8.95725 6.65956 8.97613 6.61398 9.01074L6.18198 9.34238C6.0787 9.42172 6.06852 9.55927 6.15922 9.6496C6.24993 9.73994 6.40718 9.74884 6.51044 9.6695L6.94244 9.33826C7.04567 9.25913 7.05601 9.12177 6.96554 9.03149C6.94217 9.00816 6.91336 8.98948 6.88105 8.9767C6.84874 8.96392 6.81368 8.95733 6.77822 8.95738L6.77837 8.95766ZM2.92495 3.64648L2.04688 6.99736L2.74884 7.34241L4.56536 4.75771L2.92495 3.64648Z" fill="#333333"/>
<path d="M2.7716 7.43478L1.95312 7.03254L2.87139 3.52734L4.66414 4.74158L2.7716 7.43478ZM2.13174 6.96332L2.71717 7.25063L4.45767 4.77427L2.9693 3.76676L2.13174 6.96332ZM4.58344 7.78572C4.7191 7.6815 4.73253 7.50083 4.61347 7.38212L4.60784 7.37651C4.57962 7.34823 4.54526 7.32514 4.50676 7.30856C4.46826 7.29198 4.42639 7.28224 4.38356 7.27992H4.36182C4.28257 7.27981 4.20602 7.30507 4.1466 7.35093L3.62215 7.75263C3.48649 7.85685 3.47306 8.03752 3.59212 8.15623C3.70883 8.2777 3.91603 8.29339 4.0549 8.19128L4.05917 8.18809L4.09889 8.15757L4.49805 7.8511L4.58344 7.78572Z" fill="#333333"/>
<path d="M3.85117 8.3286C3.84117 8.3286 3.83099 8.3286 3.82068 8.32764C3.71143 8.32028 3.60991 8.27549 3.53821 8.20301C3.39059 8.05596 3.40719 7.83209 3.57528 7.70296L4.09908 7.30086C4.26719 7.1719 4.52293 7.18642 4.67059 7.33328C4.70739 7.36863 4.73569 7.41008 4.75379 7.45519C4.7719 7.50029 4.77946 7.54812 4.77601 7.59583C4.77273 7.64228 4.75895 7.6877 4.73545 7.72945C4.71196 7.77121 4.67923 7.80848 4.63916 7.83909L4.11551 8.24119C4.04259 8.29763 3.94854 8.32873 3.85117 8.3286ZM4.3659 7.34957C4.30557 7.34978 4.2474 7.36924 4.2023 7.4043L3.67849 7.8064C3.57526 7.88564 3.56503 8.0231 3.65563 8.11338L3.65565 8.1134C3.70032 8.1589 3.76373 8.18713 3.83207 8.19194C3.86459 8.19416 3.89729 8.19063 3.92822 8.18156C3.95915 8.17249 3.98768 8.15806 4.01209 8.13913L4.53575 7.73703C4.63889 7.65773 4.64912 7.52033 4.55859 7.43003C4.53685 7.40709 4.51003 7.38824 4.47973 7.37462C4.44944 7.36101 4.4163 7.35291 4.38232 7.35082L4.3659 7.34957ZM6.41454 8.58761C6.41747 8.55012 6.41185 8.51249 6.39803 8.47691C6.3842 8.44133 6.36243 8.4085 6.33399 8.38033L6.32931 8.37568C6.30107 8.3476 6.26675 8.32468 6.22834 8.30824C6.18993 8.29181 6.14818 8.28218 6.10549 8.27991H6.08375C6.0045 8.27979 5.92795 8.30506 5.86853 8.35093L5.81722 8.39033L5.2873 8.79722L5.14654 8.90475C5.01062 9.01235 5.00015 9.19593 5.12313 9.31481C5.18052 9.3703 5.26018 9.40425 5.3455 9.4096C5.38836 9.41221 5.4314 9.40732 5.47208 9.39522C5.51277 9.38313 5.55029 9.36406 5.58246 9.33914L6.30396 8.78518C6.33648 8.76033 6.36301 8.73006 6.38199 8.69614C6.40098 8.66221 6.41205 8.62532 6.41454 8.58761Z" fill="#333333"/>
<path d="M5.35534 9.47423C5.34641 9.47423 5.33766 9.47423 5.32876 9.47354C5.10347 9.46136 4.93215 9.2918 4.94611 9.09483C4.95279 9.00034 5.0021 8.91203 5.0832 8.8493L5.80409 8.29494C5.885 8.23331 5.99039 8.20197 6.09751 8.2077C6.1505 8.21053 6.20233 8.22253 6.24999 8.243C6.29764 8.26347 6.34018 8.292 6.37514 8.32694C6.41186 8.36221 6.4401 8.40359 6.45815 8.4486C6.47621 8.49361 6.48372 8.54134 6.48024 8.58894C6.47689 8.63525 6.4631 8.68052 6.43966 8.72215C6.41623 8.76377 6.38362 8.80094 6.3437 8.83152L5.6222 9.38519C5.5487 9.44241 5.45375 9.47409 5.35534 9.47423ZM5.85584 8.43757L5.18626 8.95145C5.08298 9.03064 5.07249 9.16794 5.1628 9.25843C5.18455 9.28105 5.21129 9.29962 5.24141 9.31304C5.27153 9.32645 5.30442 9.33444 5.33814 9.33652C5.37086 9.33855 5.40371 9.33484 5.43476 9.32561C5.46581 9.31638 5.49444 9.30182 5.51896 9.28278L6.24047 8.72912C6.34368 8.65001 6.35401 8.51274 6.26353 8.42248L6.26331 8.42225C6.24163 8.39951 6.2149 8.38086 6.18473 8.36741C6.15457 8.35396 6.1216 8.34601 6.08781 8.34403H6.07124C6.01086 8.34402 5.9526 8.3635 5.90763 8.39873L5.85584 8.43757Z" fill="#333333"/>
<path d="M10.731 7.67258L8.18564 5.85827C7.2109 6.31101 6.52068 6.078 6.19066 5.89372C6.01864 5.79553 5.97018 5.59392 6.08243 5.44345C6.11731 5.39669 6.16535 5.35858 6.22194 5.33278L7.07029 4.93862C7.04951 4.93584 7.02865 4.93352 7.00773 4.93164C6.24215 5.03744 5.46897 5.09569 4.69398 5.10594L3.21094 7.21589L3.54157 7.43631L3.93025 7.13778C4.2001 6.93056 4.61091 6.95392 4.8478 7.18997L4.84789 7.19005L4.85352 7.19566C4.9313 7.27368 4.98303 7.36891 5.00305 7.47094C5.12092 7.4006 5.26235 7.36688 5.40472 7.37517C5.48997 7.37982 5.57332 7.39921 5.64994 7.43223C5.72656 7.46525 5.79493 7.51124 5.8511 7.56753L5.86939 7.58586C5.92585 7.64184 5.96905 7.70707 5.99652 7.77775C6.02398 7.84844 6.03515 7.92318 6.02939 7.99767V7.99849C6.05916 7.99584 6.0891 7.99497 6.11901 7.9959C6.20426 8.00055 6.28761 8.01995 6.36423 8.05297C6.44085 8.08599 6.50922 8.13197 6.56539 8.18825L6.44855 8.28621L6.57008 8.19291C6.62662 8.24891 6.6699 8.31417 6.69742 8.3849C6.72494 8.45564 6.73615 8.53044 6.7304 8.60499C6.7304 8.60691 6.72946 8.60868 6.7293 8.6106C7.08542 8.58843 7.39464 8.823 7.41999 9.1345C7.4221 9.1605 7.42217 9.1866 7.42016 9.2126C7.41214 9.31044 7.37505 9.40476 7.31255 9.48622L8.00997 9.83824C8.16286 9.91409 8.35702 9.86909 8.44696 9.737C8.53226 9.61093 8.49066 9.44855 8.35201 9.36636L7.24153 8.69323C7.24058 8.69323 7.24012 8.69173 7.23933 8.69118L7.16456 8.64589C7.14731 8.63505 7.13267 8.62135 7.12148 8.60556C7.11028 8.58977 7.10275 8.57221 7.09932 8.55387C7.09589 8.53554 7.09662 8.51679 7.10146 8.4987C7.10631 8.48062 7.11519 8.46354 7.12758 8.44846C7.15204 8.41868 7.18876 8.39837 7.23 8.39181C7.27124 8.38525 7.31378 8.39296 7.34865 8.4133L8.91493 9.3624C9.0594 9.44999 9.2577 9.41855 9.35783 9.29217L9.35803 9.29194C9.45632 9.16627 9.42154 8.99493 9.27984 8.90653L7.72123 7.93951C7.72029 7.93951 7.71998 7.93801 7.71903 7.93746C7.68481 7.91543 7.66186 7.88252 7.65513 7.84582C7.6484 7.80912 7.65844 7.77158 7.68308 7.7413C7.70772 7.71102 7.74498 7.69043 7.78682 7.68397C7.82866 7.67751 7.87173 7.6857 7.90673 7.70677L9.65411 8.79117C9.80694 8.88557 10.0183 8.85373 10.1263 8.72002C10.2307 8.59062 10.2003 8.41223 10.0573 8.31506L8.17713 7.12997C8.10283 7.08661 8.08278 6.99879 8.13235 6.93379C8.14461 6.91772 8.1605 6.90401 8.17904 6.89352C8.19758 6.88302 8.21839 6.87596 8.24017 6.87277C8.26195 6.86958 8.28425 6.87033 8.30569 6.87496C8.32713 6.8796 8.34726 6.88803 8.36483 6.89973L8.49339 6.9799H8.4951L10.2376 8.07812C10.2409 8.08018 10.2433 8.08278 10.2464 8.08484L10.2752 8.10289C10.2806 8.1062 10.2859 8.1098 10.2908 8.1137L10.3221 8.13245C10.4677 8.22373 10.6696 8.19933 10.7815 8.07689C10.8144 8.04046 10.8369 7.99763 10.847 7.95201C10.8571 7.90639 10.8545 7.85932 10.8395 7.81475C10.8209 7.75872 10.7831 7.70908 10.731 7.67258Z" fill="#333333"/>
<path d="M8.17844 9.9434C8.10931 9.94342 8.0414 9.92752 7.98153 9.89729L7.21153 9.50886L7.25844 9.44867C7.43227 9.21929 7.36058 8.9101 7.09836 8.75804C7.01519 8.70982 6.91899 8.68155 6.8194 8.67607C6.79999 8.67524 6.78054 8.6757 6.76121 8.67743L6.65626 8.68318L6.66235 8.60534C6.6722 8.49479 6.63973 8.38452 6.57006 8.29189L6.51141 8.33704L6.40567 8.23635L6.46511 8.18655C6.37054 8.11363 6.25091 8.07031 6.12509 8.06342C6.10229 8.06276 6.07945 8.0634 6.05674 8.06534L5.97274 8.07082L5.96226 7.98983V7.98694C5.97045 7.85652 5.91992 7.72849 5.8215 7.63026L5.80303 7.6118C5.61474 7.42274 5.29466 7.38656 5.05758 7.52752L4.95795 7.58607L4.937 7.48264C4.88387 7.20917 4.58735 7.02517 4.27472 7.07167C4.17016 7.08723 4.07257 7.1278 3.99276 7.1889L3.55592 7.52437L3.11719 7.23226L4.65952 5.03774L4.7016 5.03664C5.47238 5.02635 6.24136 4.96852 7.00284 4.86357L7.01378 4.86165L7.02489 4.86248C7.04553 4.86411 7.06837 4.86686 7.09198 4.86986L7.32659 4.90065L6.26865 5.39209C6.12452 5.45722 6.06807 5.61223 6.14252 5.73831C6.16587 5.77782 6.20054 5.81136 6.24314 5.83565C6.55362 6.00899 7.21617 6.23488 8.15898 5.79721L8.20482 5.77586L10.7902 7.61863C10.8544 7.66422 10.901 7.72598 10.9237 7.79553C10.9423 7.85049 10.9455 7.90856 10.9331 7.96485C10.9207 8.02114 10.893 8.07399 10.8523 8.11896C10.7142 8.26997 10.4651 8.30003 10.2854 8.18736L10.1976 8.13003L8.32949 6.95343C8.31156 6.94217 8.28926 6.9376 8.26748 6.94073C8.24571 6.94386 8.22624 6.95442 8.21337 6.9701L8.21313 6.97041C8.20024 6.98612 8.19502 7.00567 8.1986 7.02475C8.20219 7.04384 8.2143 7.06089 8.23226 7.07217L8.23252 7.07235L10.113 8.25839C10.2953 8.38148 10.329 8.61053 10.1883 8.77001C10.0521 8.92436 9.80123 8.95771 9.61877 8.84575L7.87091 7.76189C7.86193 7.75632 7.85178 7.75236 7.84104 7.75022C7.83031 7.74809 7.81919 7.74783 7.80834 7.74945C7.79205 7.75187 7.77695 7.75845 7.76493 7.76838C7.75292 7.7783 7.74455 7.79112 7.74086 7.80521C7.73718 7.8193 7.73836 7.83403 7.74425 7.84754C7.75013 7.86104 7.76047 7.87271 7.77394 7.88108L9.3352 8.85043C9.5116 8.96067 9.55464 9.17412 9.43202 9.3305C9.3075 9.48807 9.06054 9.52751 8.8804 9.41859L8.8802 9.41848L7.31426 8.46925C7.30526 8.46343 7.29501 8.45924 7.28413 8.45695C7.27325 8.45466 7.26195 8.45431 7.25091 8.45591C7.23987 8.45752 7.22931 8.46105 7.21985 8.46629C7.2104 8.47153 7.20225 8.47839 7.19589 8.48644C7.18952 8.4945 7.18508 8.50359 7.18281 8.51317C7.18054 8.52276 7.1805 8.53265 7.18268 8.54225C7.18487 8.55186 7.18924 8.56098 7.19554 8.56907C7.20183 8.57717 7.20992 8.58407 7.21933 8.58938L8.40709 9.30985C8.58771 9.41802 8.63388 9.63378 8.51022 9.79177C8.45695 9.85982 8.37768 9.90904 8.28666 9.93057C8.25141 9.93906 8.21501 9.94337 8.17844 9.9434ZM7.43051 9.46111L8.05973 9.77879C8.17703 9.83431 8.32358 9.79615 8.38704 9.69354C8.41475 9.64876 8.42303 9.59674 8.41036 9.54704C8.3977 9.49734 8.36493 9.45332 8.3181 9.42307L7.43049 8.88429C7.49059 8.98669 7.51763 9.10149 7.50868 9.21633C7.50235 9.30179 7.47572 9.38516 7.43051 9.46111ZM7.26754 8.31968C7.31616 8.3196 7.36365 8.33254 7.40362 8.35675L8.96957 9.30585C9.07863 9.37179 9.22816 9.34796 9.30365 9.25262C9.37785 9.15787 9.35169 9.02861 9.24485 8.96188L7.67512 7.98694C7.62624 7.95305 7.59437 7.90384 7.58626 7.84975C7.57815 7.79565 7.59444 7.74092 7.63168 7.69715C7.66893 7.65339 7.72419 7.62402 7.78576 7.61529C7.84733 7.60656 7.91036 7.61915 7.9615 7.65038L9.70936 8.73478C9.82737 8.80683 9.98981 8.78154 10.0722 8.67832C10.1103 8.63058 10.126 8.57191 10.1162 8.51433C10.1065 8.45675 10.0719 8.40463 10.0195 8.36866L8.1414 7.1848C8.03363 7.1174 8.00875 6.98635 8.0858 6.89208C8.16285 6.79782 8.31267 6.77605 8.42044 6.84345L8.55089 6.92431L10.3308 8.04744C10.3388 8.05248 10.3464 8.05796 10.3536 8.06386L10.3757 8.07646C10.4871 8.14707 10.6422 8.12903 10.7287 8.03542C10.754 8.00753 10.7713 7.97473 10.7791 7.93977C10.7869 7.90482 10.7849 7.86875 10.7734 7.83458C10.7598 7.79162 10.7314 7.75338 10.692 7.72513L8.18613 5.93914C7.19779 6.38105 6.49319 6.13781 6.15862 5.95078C5.95006 5.83242 5.89068 5.58858 6.02599 5.40615C6.06835 5.34902 6.12693 5.30248 6.19601 5.27108L6.67556 5.04833C6.18788 5.10622 5.52206 5.14931 4.74893 5.17146L3.32559 7.19765L3.54941 7.34664L3.89022 7.08506C4.19243 6.85293 4.65258 6.87907 4.91794 7.14342L4.91814 7.14361C4.98353 7.2083 5.03342 7.28381 5.06486 7.36566C5.17559 7.31858 5.29848 7.29769 5.4213 7.30505C5.51689 7.31023 5.61035 7.33196 5.69626 7.36898C5.78218 7.40599 5.85884 7.45755 5.92181 7.52067L5.94027 7.53913C6.04844 7.64637 6.1118 7.78254 6.11999 7.92537H6.13562C6.30406 7.93499 6.46334 7.99583 6.58591 8.09734L6.58842 8.09542L6.63081 8.13784L6.63533 8.14222L6.6846 8.19134L6.6824 8.19326C6.76633 8.29398 6.81428 8.41419 6.8202 8.53873H6.82974C6.8992 8.54269 6.96768 8.55532 7.03306 8.57621C7.00299 8.46356 7.08303 8.35091 7.21181 8.3246C7.23013 8.32087 7.24888 8.31902 7.26767 8.31912L7.26754 8.31968ZM12.1205 3.5957L10.4804 4.70693L11.9976 6.86547C12.0076 6.86999 12.017 6.87545 12.0256 6.88176C12.0516 6.90521 12.0674 6.93592 12.07 6.9685L12.2973 7.2918L12.9986 6.94662L12.1205 3.5957Z" fill="#333333"/>
<path d="M12.2664 7.38415L11.9903 6.99123L11.9886 6.97536C11.9876 6.95861 11.9798 6.94271 11.9667 6.93048L11.9367 6.91488L11.9275 6.90121L10.3735 4.69094L12.1666 3.47656L13.085 6.98177L12.2664 7.38415ZM12.1413 6.94552L12.3205 7.20041L12.9059 6.9131L12.0687 3.71586L10.5805 4.72392L12.0507 6.8157C12.0604 6.82077 12.0694 6.82683 12.0774 6.83375C12.1117 6.86419 12.1342 6.9033 12.1417 6.94554L12.1413 6.94552ZM10.0562 5.09071C9.73806 5.20529 9.38355 5.21655 9.05675 5.12246L8.19573 4.87797C8.13682 4.86163 8.07479 4.85563 8.01321 4.86033C7.95164 4.86503 7.89173 4.88032 7.83694 4.90533L7.54508 5.04092C7.54196 5.04229 7.5393 5.04394 7.536 5.04517L6.37953 5.58259C6.37145 5.58598 6.36458 5.59124 6.35967 5.5978C6.35477 5.60436 6.35201 5.61197 6.35169 5.6198C6.35107 5.62689 6.35268 5.63399 6.35634 5.64033C6.36001 5.64668 6.3656 5.65202 6.37249 5.65578C6.71267 5.84568 7.2953 5.98413 8.12941 5.56548C8.1578 5.55126 8.19045 5.54489 8.22305 5.54721C8.25566 5.54953 8.2867 5.56043 8.31209 5.57848L10.941 7.45284C10.9776 7.47917 11.0107 7.50905 11.0395 7.54192L11.6896 6.9729L10.3043 5.00194L10.0562 5.09071Z" fill="#333333"/>
<path d="M11.0244 7.64426L10.97 7.58391C10.9448 7.55511 10.916 7.52894 10.884 7.50594L8.25445 5.63211C8.24134 5.62295 8.22541 5.61743 8.2087 5.61623C8.19198 5.61503 8.17523 5.61823 8.1606 5.6254C7.29238 6.06157 6.68193 5.91435 6.32265 5.71405C6.30409 5.70381 6.28902 5.68939 6.27902 5.6723C6.26903 5.65521 6.26449 5.63608 6.26587 5.61692C6.26679 5.59718 6.27373 5.57803 6.28597 5.56143C6.29821 5.54483 6.3153 5.5314 6.33547 5.52252L7.7924 4.8457C7.85642 4.81636 7.92645 4.7984 7.99845 4.79286C8.07045 4.78732 8.14299 4.7943 8.21189 4.81341L9.0726 5.0575C9.38172 5.14659 9.71709 5.13601 10.0181 5.02767L10.3282 4.91658L11.7806 6.9825L11.0244 7.64426ZM8.2011 5.47873C8.25635 5.47863 8.30997 5.49515 8.35296 5.52552L10.982 7.39988C11.0005 7.41295 11.0181 7.42697 11.0347 7.44188L11.5822 6.96304L10.2641 5.08715L10.0777 5.15392C9.74222 5.2747 9.36846 5.28654 9.02393 5.1873L8.16368 4.94295C8.11463 4.92947 8.06302 4.92459 8.01182 4.92858C7.96061 4.93258 7.9108 4.94536 7.86525 4.96621L6.45242 5.62294C6.77978 5.7893 7.31829 5.89068 8.08265 5.50665C8.11869 5.48851 8.15951 5.47889 8.2011 5.47873Z" fill="#333333"/>
<path fill-rule="evenodd" clip-rule="evenodd" d="M1.5 0.908203C0.809645 0.908203 0.25 1.46785 0.25 2.1582V16.2485C0.25 16.9389 0.809644 17.4985 1.5 17.4985H12.7666C12.47 17.365 12.1975 17.1962 11.9563 16.9985H1.5C1.08579 16.9985 0.75 16.6627 0.75 16.2485V2.1582C0.75 1.74399 1.08579 1.4082 1.5 1.4082H5.26894V0.908203H1.5ZM14.2919 11.5878C14.3282 11.5868 14.3647 11.5864 14.4013 11.5864C14.5333 11.5864 14.6636 11.5926 14.7919 11.6048V2.1582C14.7919 1.46785 14.2322 0.908203 13.5419 0.908203H9.90541V1.4082H13.5419C13.9561 1.4082 14.2919 1.74399 14.2919 2.1582V11.5878Z" fill="#333333"/>
<rect x="5.53906" width="4.11863" height="2.08578" rx="0.5" fill="#333333"/>
<path d="M1.82812 11.5879H10.1738" stroke="#333333" stroke-width="0.5" stroke-linecap="round"/>
<path d="M1.82812 13.4834H9.74023" stroke="#333333" stroke-width="0.5" stroke-linecap="round"/>
<path d="M1.82812 15.3799H9.52346" stroke="#333333" stroke-width="0.5" stroke-linecap="round"/>
<path d="M17.7237 14.7156C17.7237 16.2751 16.2668 17.5943 14.397 17.5943C12.5273 17.5943 11.0703 16.2751 11.0703 14.7156C11.0703 13.1561 12.5273 11.8369 14.397 11.8369C16.2668 11.8369 17.7237 13.1561 17.7237 14.7156Z" fill="white" stroke="#333333" stroke-width="0.5"/>
<ellipse cx="14.2589" cy="14.1335" rx="0.743275" ry="0.74388" fill="#FFC000"/>
<path d="M13.5448 15.6266C14.0893 15.6611 14.4249 15.6627 14.9415 15.6283C15.0098 15.6237 15.1186 15.6467 15.1827 15.6706C15.5047 15.791 15.4096 16.1508 15.0781 16.2421C14.5051 16.3998 14.0016 16.4052 13.4533 16.2583C13.0882 16.1605 12.979 15.7418 13.3452 15.6481C13.4001 15.6341 13.4882 15.6231 13.5448 15.6266Z" fill="#FFC000" stroke="#FFC000"/>
</svg>
