<svg width="24" height="26" viewBox="0 0 24 26" fill="none" xmlns="http://www.w3.org/2000/svg">
<path d="M1.08445 9.83899C0.918235 10.7506 0.871062 11.6849 0.944088 12.6159L3.05816 12.4532C2.99926 11.7011 3.03722 10.9471 3.17123 10.212L1.08445 9.83899ZM3.4069 9.24137C3.62655 8.52293 3.93843 7.83538 4.3349 7.1956L2.52745 6.09729C2.03581 6.89044 1.64916 7.74288 1.37697 8.63365L3.4069 9.24137ZM7.35976 4.23655C8.0109 3.85236 8.70948 3.55317 9.43812 3.34642L8.85421 1.32762C7.94974 1.5843 7.08259 1.95571 6.27431 2.43263L7.35976 4.23655ZM15.8265 3.91914L16.7713 2.03911C15.9294 1.62418 15.037 1.31851 14.1161 1.12965L13.6863 3.18595C14.4286 3.33821 15.1479 3.58464 15.8265 3.91914ZM10.9316 0.947414C10.6446 0.972278 10.3561 1.00853 10.0741 1.05518L10.423 3.12636C10.6529 3.08851 10.8842 3.05947 11.1164 3.03933C11.6406 2.99392 12.1697 2.99419 12.689 3.04026L12.878 0.948702C12.2305 0.891712 11.5792 0.891281 10.9316 0.947414ZM3.24066 5.08061L4.91099 6.37431C5.37841 5.78238 5.92037 5.25208 6.52368 4.79632L5.23779 3.12659C4.49072 3.691 3.81957 4.34767 3.24066 5.08061ZM13.6024 18.0425L9.98633 21.5319C9.81858 21.6939 9.83951 21.9308 10.0331 22.0614L14.2061 24.876C14.3997 25.0067 14.5401 24.9251 14.5197 24.6941L14.315 22.3773C14.3607 22.3671 14.4063 22.3565 14.4518 22.3456C14.4742 22.3402 14.4967 22.3353 14.519 22.3299C14.6831 22.2899 14.8463 22.2461 15.0083 22.1986C15.0235 22.1943 15.0386 22.1894 15.0538 22.185C15.2332 22.1317 15.4115 22.0752 15.5878 22.0128L15.587 22.0108C15.9827 21.8704 16.3664 21.7066 16.7387 21.5245L16.7411 21.5293C17.5844 21.1173 18.3707 20.5996 19.0806 19.9889L19.0758 19.9835C19.3907 19.7122 19.6908 19.4251 19.9723 19.1213L19.9767 19.1254C20.6118 18.4398 21.1558 17.6766 21.5955 16.8545L21.5889 16.851C21.7845 16.4864 21.9589 16.1111 22.1113 15.7269L22.1165 15.7289C22.3912 15.0334 22.5909 14.311 22.7152 13.5753L22.7202 13.5453C22.7487 13.3736 22.7744 13.2015 22.7945 13.0285L22.7937 13.0284C22.8413 12.6218 22.863 12.2089 22.8633 11.7918L22.8661 11.7918C22.866 11.6648 22.8636 11.5377 22.859 11.4108C22.858 11.3818 22.856 11.3529 22.8549 11.324C22.8488 11.1855 22.8402 11.047 22.8288 10.9088C22.8266 10.882 22.8263 10.8555 22.8239 10.8287C22.8226 10.8144 22.8204 10.8002 22.8191 10.7859C22.8058 10.641 22.7894 10.497 22.7703 10.3536C22.7635 10.3021 22.7555 10.2508 22.748 10.1993C22.732 10.0902 22.7143 9.98174 22.695 9.87352C22.6865 9.82622 22.6789 9.77879 22.6698 9.73168C22.6433 9.59305 22.6136 9.45523 22.5816 9.31816C22.5692 9.26459 22.5557 9.21125 22.5425 9.15797C22.5324 9.11743 22.5232 9.07643 22.5127 9.03606L22.5104 9.03667C22.4062 8.63638 22.279 8.2423 22.1294 7.85639L22.1298 7.85622C22.1281 7.85186 22.1262 7.84739 22.1243 7.84305C22.092 7.76043 22.058 7.67851 22.0237 7.59671C22.0042 7.55031 21.9841 7.50402 21.964 7.45795C21.8404 7.17434 21.7044 6.89618 21.5565 6.62426C21.5431 6.5997 21.5296 6.57515 21.5159 6.55076C21.3615 6.27189 21.1947 5.99996 21.0159 5.73577C20.9957 5.70575 20.975 5.67594 20.9545 5.64608C20.9002 5.56691 20.8448 5.48846 20.7884 5.41073L20.7865 5.412C20.5419 5.07724 20.2783 4.75656 19.9968 4.45151L19.9985 4.44998C19.9615 4.40988 19.9233 4.37103 19.8856 4.33145C19.8495 4.29344 19.8137 4.25493 19.777 4.21746C19.6738 4.11219 19.5685 4.00897 19.4612 3.90784C19.4322 3.88055 19.403 3.85401 19.3737 3.82702C19.2728 3.73384 19.1702 3.64253 19.0658 3.55312C19.0523 3.54153 19.0396 3.52927 19.026 3.51763C19.023 3.51523 19.0199 3.51325 19.017 3.51084C18.6497 3.2001 18.2624 2.9135 17.8573 2.65289L16.7033 4.41446C17.0471 4.63566 17.375 4.88025 17.6845 5.14647C17.7959 5.24188 17.9049 5.33996 18.0115 5.44062C18.0395 5.46712 18.0664 5.4946 18.094 5.52146C18.1943 5.61871 18.2922 5.71828 18.3877 5.82009C18.6329 6.0816 18.8616 6.35519 19.0709 6.64144L19.0707 6.6416C19.1123 6.69856 19.1525 6.75648 19.1928 6.81439C19.2595 6.91014 19.3244 7.00716 19.3873 7.1054C19.3959 7.11885 19.4039 7.13267 19.4125 7.14625C19.492 7.27266 19.5681 7.40111 19.6408 7.53147C19.6615 7.56862 19.6822 7.60573 19.7023 7.64306C19.7367 7.70621 19.7702 7.76977 19.8029 7.83374C19.8321 7.89105 19.8598 7.94923 19.8876 8.00711C19.9545 8.14613 20.0176 8.28687 20.0769 8.42919C20.0989 8.48194 20.1209 8.53468 20.1419 8.58797C20.281 8.94238 20.3965 9.30543 20.4877 9.67477C20.4967 9.71151 20.506 9.74823 20.5146 9.78514C20.5411 9.89921 20.5659 10.014 20.588 10.1294C20.5946 10.164 20.6002 10.1986 20.6064 10.2333C20.6227 10.3246 20.6376 10.4158 20.651 10.5076C20.6568 10.5471 20.6628 10.5865 20.6682 10.6261C20.6838 10.7433 20.697 10.8609 20.708 10.9786C20.7109 11.0101 20.713 11.0417 20.7155 11.0732C20.7249 11.1872 20.732 11.3012 20.7369 11.4153C20.7379 11.4367 20.7393 11.4582 20.7401 11.4795C20.7968 13.1145 20.3919 14.6721 19.6359 16.0204C19.6336 16.0245 19.6311 16.0286 19.6288 16.0326C19.4252 16.3941 19.1963 16.7411 18.9437 17.0708C18.939 17.0768 18.9344 17.083 18.9297 17.089C17.8909 18.4377 16.4626 19.4869 14.7953 20.0607C14.6722 20.1028 14.5485 20.1435 14.4232 20.1802L14.4193 20.1813C14.3233 20.2097 14.2258 20.2342 14.1284 20.2594L13.9435 18.1673C13.9227 17.9368 13.7701 17.8808 13.6024 18.0425Z" fill="black"/>
<path d="M14.8063 15.375C14.7337 15.375 14.6621 15.3583 14.5971 15.3261C14.5322 15.294 14.4757 15.2473 14.4321 15.1898L9.66189 8.89149V14.9119C9.66189 15.1676 9.45252 15.375 9.19423 15.375C8.93594 15.375 8.72656 15.1676 8.72656 14.9119V7.50217C8.72656 7.40497 8.75745 7.31024 8.81484 7.23139C8.87223 7.15253 8.95322 7.09356 9.04634 7.06283C9.13946 7.03209 9.23998 7.03115 9.33367 7.06013C9.42736 7.08911 9.50947 7.14655 9.56836 7.22431L14.3385 13.5226V7.50217C14.3385 7.2464 14.548 7.03906 14.8062 7.03906C15.0645 7.03906 15.2739 7.2464 15.2739 7.50217V14.9119C15.2739 14.9727 15.2618 15.0329 15.2383 15.0891C15.2148 15.1453 15.1804 15.1964 15.137 15.2394C15.0935 15.2824 15.042 15.3165 14.9853 15.3398C14.9285 15.3631 14.8677 15.375 14.8063 15.375Z" fill="#FFC000"/>
<path d="M15.9727 10.7465H8.02235C7.76406 10.7465 7.55469 10.5392 7.55469 10.2834C7.55469 10.0276 7.76406 9.82031 8.02235 9.82031H15.9727C16.2309 9.82031 16.4403 10.0276 16.4403 10.2834C16.4403 10.5392 16.2309 10.7465 15.9727 10.7465ZM15.9727 12.599H8.02235C7.76406 12.599 7.55469 12.3916 7.55469 12.1358C7.55469 11.8801 7.76406 11.6727 8.02235 11.6727H15.9727C16.2309 11.6727 16.4403 11.8801 16.4403 12.1358C16.4403 12.3916 16.2309 12.599 15.9727 12.599Z" fill="#FFC000"/>
</svg>
