<svg width="17" height="18" viewBox="0 0 17 18" fill="none" xmlns="http://www.w3.org/2000/svg">
<path d="M0.752578 6.81161C0.637503 7.44275 0.604845 8.08952 0.655402 8.73406L2.11899 8.62148C2.07822 8.10074 2.1045 7.57874 2.19727 7.06987L0.752578 6.81161ZM2.36043 6.39787C2.51249 5.90049 2.72841 5.4245 3.00289 4.98157L1.75158 4.2212C1.41121 4.77031 1.14353 5.36046 0.955092 5.97714L2.36043 6.39787ZM5.09702 2.933C5.54781 2.66702 6.03144 2.45989 6.53589 2.31676L6.13164 0.91912C5.50547 1.09682 4.90513 1.35396 4.34556 1.68413L5.09702 2.933ZM10.9586 2.71325L11.6127 1.41169C11.0298 1.12443 10.412 0.912813 9.7745 0.782067L9.47693 2.20566C9.99081 2.31107 10.4888 2.48167 10.9586 2.71325ZM7.56985 0.655902C7.37115 0.673116 7.17139 0.698212 6.97619 0.730511L7.21771 2.1644C7.3769 2.1382 7.53705 2.1181 7.6978 2.10415C8.06068 2.07271 8.42696 2.0729 8.7865 2.10479L8.91735 0.656794C8.46908 0.617339 8.01817 0.617041 7.56985 0.655902ZM2.24534 3.51735L3.40172 4.41299C3.72532 4.00319 4.10052 3.63606 4.51819 3.32053L3.62796 2.16457C3.11076 2.55531 2.64612 3.00992 2.24534 3.51735ZM9.41882 12.4909L6.91542 14.9067C6.79928 15.0188 6.81377 15.1829 6.94781 15.2733L9.8368 17.2219C9.97084 17.3124 10.068 17.2559 10.0539 17.0959L9.91218 15.492C9.94381 15.4849 9.97539 15.4776 10.0069 15.47C10.0224 15.4663 10.038 15.4629 10.0534 15.4591C10.167 15.4315 10.28 15.4012 10.3922 15.3683C10.4027 15.3653 10.4131 15.3619 10.4237 15.3589C10.5478 15.322 10.6713 15.2828 10.7933 15.2397L10.7928 15.2383C11.0668 15.1411 11.3324 15.0277 11.5901 14.9016L11.5918 14.9049C12.1756 14.6197 12.72 14.2613 13.2114 13.8385L13.2082 13.8347C13.4262 13.6469 13.6339 13.4482 13.8288 13.2378L13.8319 13.2406C14.2715 12.766 14.6481 12.2377 14.9525 11.6685L14.948 11.6661C15.0834 11.4137 15.2041 11.1539 15.3096 10.8879L15.3132 10.8892C15.5034 10.4077 15.6417 9.90762 15.7277 9.39828L15.7312 9.37754C15.7509 9.25864 15.7687 9.1395 15.7826 9.01971L15.7821 9.01969C15.815 8.7382 15.83 8.45232 15.8302 8.16356L15.8322 8.16358C15.8321 8.07562 15.8304 7.98767 15.8273 7.89977C15.8266 7.87971 15.8252 7.85967 15.8244 7.83971C15.8202 7.74378 15.8142 7.64794 15.8064 7.55224C15.8048 7.53368 15.8046 7.51532 15.803 7.4968C15.8021 7.48686 15.8005 7.47708 15.7997 7.46714C15.7904 7.36684 15.779 7.26714 15.7659 7.16791C15.7612 7.13223 15.7556 7.09669 15.7504 7.06105C15.7393 6.98555 15.7271 6.91043 15.7137 6.83551C15.7079 6.80277 15.7026 6.76994 15.6963 6.73732C15.6779 6.64134 15.6574 6.54593 15.6353 6.45104C15.6266 6.41395 15.6173 6.37702 15.6081 6.34014C15.6011 6.31207 15.5948 6.28368 15.5875 6.25573L15.5859 6.25616C15.5138 5.97903 15.4257 5.70621 15.3221 5.43904L15.3224 5.43892C15.3213 5.4359 15.3199 5.43281 15.3186 5.4298C15.2963 5.37261 15.2727 5.31589 15.249 5.25926C15.2355 5.22714 15.2216 5.19509 15.2077 5.1632C15.1221 4.96685 15.028 4.77428 14.9255 4.58603C14.9162 4.56902 14.9069 4.55203 14.8975 4.53514C14.7906 4.34208 14.6751 4.15382 14.5513 3.97092C14.5373 3.95013 14.5229 3.9295 14.5088 3.90882C14.4712 3.85402 14.4328 3.7997 14.3938 3.74589L14.3925 3.74677C14.2231 3.51501 14.0406 3.293 13.8457 3.08181L13.8469 3.08076C13.8213 3.053 13.7948 3.0261 13.7688 2.9987C13.7437 2.97238 13.719 2.94572 13.6936 2.91978C13.6222 2.8469 13.5492 2.77544 13.4749 2.70543C13.4549 2.68653 13.4346 2.66816 13.4144 2.64947C13.3445 2.58497 13.2735 2.52175 13.2012 2.45985C13.1919 2.45183 13.183 2.44334 13.1736 2.43528C13.1716 2.43362 13.1694 2.43225 13.1674 2.43058C12.9132 2.21545 12.645 2.01704 12.3646 1.83661L11.5656 3.05617C11.8036 3.2093 12.0306 3.37864 12.2449 3.56294C12.3221 3.62899 12.3975 3.69689 12.4713 3.76658C12.4907 3.78493 12.5093 3.80396 12.5284 3.82255C12.5978 3.88988 12.6656 3.95881 12.7318 4.02929C12.9015 4.21034 13.0598 4.39975 13.2048 4.59792L13.2046 4.59803C13.2334 4.63747 13.2612 4.67757 13.2891 4.71765C13.3353 4.78394 13.3802 4.85111 13.4238 4.91913C13.4297 4.92844 13.4353 4.938 13.4412 4.94741C13.4963 5.03492 13.549 5.12384 13.5993 5.2141C13.6136 5.23981 13.6279 5.2655 13.6419 5.29135C13.6656 5.33507 13.6889 5.37907 13.7115 5.42336C13.7317 5.46304 13.7509 5.50331 13.7702 5.54339C13.8164 5.63963 13.8601 5.73707 13.9012 5.8356C13.9164 5.87211 13.9316 5.90863 13.9462 5.94552C14.0425 6.19088 14.1224 6.44222 14.1856 6.69792C14.1918 6.72335 14.1982 6.74877 14.2042 6.77433C14.2226 6.8533 14.2397 6.93276 14.255 7.01266C14.2596 7.03659 14.2635 7.06057 14.2678 7.08462C14.2791 7.14777 14.2893 7.21097 14.2987 7.27448C14.3027 7.30186 14.3068 7.32912 14.3106 7.35653C14.3213 7.43769 14.3305 7.51905 14.3381 7.60057C14.3401 7.62236 14.3416 7.64424 14.3433 7.66609C14.3498 7.74501 14.3547 7.82388 14.3581 7.90287C14.3588 7.91769 14.3598 7.93258 14.3603 7.94735C14.3996 9.07928 14.1193 10.1576 13.5959 11.091C13.5943 11.0939 13.5926 11.0967 13.591 11.0995C13.45 11.3498 13.2915 11.59 13.1167 11.8183C13.1134 11.8224 13.1102 11.8267 13.107 11.8308C12.3878 12.7645 11.399 13.491 10.2447 13.8882C10.1594 13.9173 10.0738 13.9455 9.98712 13.9709L9.98443 13.9717C9.91797 13.9913 9.85041 14.0083 9.78299 14.0258L9.65502 12.5774C9.64057 12.4178 9.53498 12.379 9.41882 12.4909Z" fill="#333333"/>
<path d="M10.2559 10.6441C10.2057 10.6441 10.1561 10.6325 10.1111 10.6103C10.0661 10.588 10.027 10.5557 9.99685 10.5158L6.69441 6.1555V10.3235C6.69441 10.5005 6.54946 10.6441 6.37064 10.6441C6.19183 10.6441 6.04688 10.5005 6.04688 10.3235V5.19366C6.04688 5.12637 6.06826 5.06078 6.10799 5.00619C6.14772 4.9516 6.20379 4.91078 6.26826 4.8895C6.33273 4.86822 6.40232 4.86757 6.46718 4.88763C6.53204 4.90769 6.58889 4.94746 6.62966 5.00129L9.93209 9.36163V5.19366C9.93209 5.01659 10.0771 4.87305 10.2559 4.87305C10.4346 4.87305 10.5796 5.01659 10.5796 5.19366V10.3235C10.5796 10.3656 10.5713 10.4073 10.555 10.4462C10.5387 10.4851 10.5149 10.5204 10.4848 10.5502C10.4548 10.58 10.4191 10.6036 10.3798 10.6197C10.3405 10.6358 10.2984 10.6441 10.2559 10.6441Z" fill="#FFC000"/>
<path d="M11.0622 7.44005H5.55814C5.37933 7.44005 5.23438 7.29652 5.23438 7.11944C5.23438 6.94237 5.37933 6.79883 5.55814 6.79883H11.0622C11.241 6.79883 11.386 6.94237 11.386 7.11944C11.386 7.29652 11.241 7.44005 11.0622 7.44005ZM11.0622 8.7225H5.55814C5.37933 8.7225 5.23438 8.57893 5.23438 8.40189C5.23438 8.22485 5.37933 8.08128 5.55814 8.08128H11.0622C11.241 8.08128 11.386 8.22485 11.386 8.40189C11.386 8.57893 11.241 8.7225 11.0622 8.7225Z" fill="#FFC000"/>
</svg>
