<svg width="48" height="48" viewBox="0 0 48 48" fill="none" xmlns="http://www.w3.org/2000/svg">
<circle cx="24" cy="24" r="23.5" stroke="#101010"/>
<path d="M14.0034 21.0821C13.85 21.9237 13.8065 22.786 13.8739 23.6454L15.8253 23.4953C15.771 22.801 15.806 22.105 15.9297 21.4265L14.0034 21.0821ZM16.1472 20.5305C16.35 19.8673 16.6379 19.2327 17.0038 18.6421L15.3354 17.6283C14.8816 18.3604 14.5247 19.1473 14.2735 19.9695L16.1472 20.5305ZM19.796 15.9107C20.3971 15.556 21.0419 15.2798 21.7145 15.089L21.1755 13.2255C20.3406 13.4624 19.5402 13.8053 18.7941 14.2455L19.796 15.9107ZM27.6115 15.6177L28.4836 13.8823C27.7065 13.4992 26.8827 13.2171 26.0327 13.0428L25.6359 14.9409C26.3211 15.0814 26.9851 15.3089 27.6115 15.6177ZM23.0931 12.8745C22.8282 12.8975 22.5619 12.9309 22.3016 12.974L22.6236 14.8859C22.8359 14.8509 23.0494 14.8241 23.2637 14.8055C23.7476 14.7636 24.2359 14.7639 24.7153 14.8064L24.8898 12.8757C24.2921 12.8231 23.6909 12.8227 23.0931 12.8745ZM15.9938 16.6898L17.5356 17.884C17.9671 17.3376 18.4674 16.8481 19.0243 16.4274L17.8373 14.8861C17.1477 15.4071 16.5282 16.0132 15.9938 16.6898ZM25.5584 28.6546L22.2206 31.8756C22.0657 32.0251 22.085 32.2438 22.2637 32.3644L26.1157 34.9625C26.2945 35.0831 26.424 35.0078 26.4052 34.7945L26.2162 32.656C26.2584 32.6466 26.3005 32.6368 26.3425 32.6267C26.3632 32.6217 26.384 32.6172 26.4045 32.6122C26.556 32.5753 26.7066 32.5349 26.8562 32.4911C26.8703 32.487 26.8842 32.4825 26.8982 32.4785C27.0638 32.4293 27.2284 32.3771 27.3911 32.3195L27.3904 32.3177C27.7557 32.1881 28.1098 32.0369 28.4535 31.8688L28.4557 31.8732C29.2342 31.4929 29.96 31.015 30.6153 30.4513L30.6109 30.4463C30.9016 30.1959 31.1785 29.9309 31.4384 29.6504L31.4425 29.6542C32.0287 29.0213 32.5308 28.3169 32.9367 27.558L32.9306 27.5548C33.1112 27.2182 33.2722 26.8718 33.4129 26.5171L33.4176 26.519C33.6712 25.877 33.8556 25.2102 33.9703 24.531L33.9749 24.5034C34.0012 24.3449 34.025 24.186 34.0435 24.0263L34.0428 24.0262C34.0866 23.6509 34.1067 23.2698 34.107 22.8847L34.1096 22.8848C34.1095 22.7675 34.1073 22.6502 34.103 22.533C34.1021 22.5063 34.1003 22.4796 34.0992 22.4529C34.0936 22.325 34.0856 22.1973 34.0752 22.0697C34.0731 22.0449 34.0728 22.0204 34.0706 21.9957C34.0694 21.9825 34.0674 21.9694 34.0662 21.9562C34.0539 21.8225 34.0387 21.6895 34.0212 21.5572C34.0149 21.5096 34.0075 21.4622 34.0006 21.4147C33.9858 21.3141 33.9695 21.2139 33.9516 21.114C33.9438 21.0704 33.9368 21.0266 33.9284 20.9831C33.9039 20.8551 33.8765 20.7279 33.847 20.6014C33.8355 20.5519 33.8231 20.5027 33.8109 20.4535C33.8015 20.4161 33.7931 20.3782 33.7834 20.341L33.7812 20.3415C33.685 19.972 33.5676 19.6083 33.4295 19.2521L33.4299 19.2519C33.4284 19.2479 33.4265 19.2437 33.4249 19.2397C33.3951 19.1635 33.3636 19.0879 33.332 19.0123C33.314 18.9695 33.2955 18.9268 33.2769 18.8843C33.1628 18.6225 33.0373 18.3657 32.9007 18.1147C32.8883 18.092 32.8759 18.0694 32.8633 18.0469C32.7208 17.7894 32.5668 17.5384 32.4017 17.2946C32.383 17.2668 32.3639 17.2393 32.345 17.2118C32.2949 17.1387 32.2438 17.0663 32.1917 16.9945L32.19 16.9957C31.9642 16.6867 31.7208 16.3907 31.461 16.1091L31.4626 16.1077C31.4284 16.0707 31.3931 16.0348 31.3584 15.9983C31.325 15.9632 31.292 15.9276 31.2581 15.893C31.1629 15.7959 31.0657 15.7006 30.9666 15.6072C30.9399 15.582 30.9128 15.5576 30.8858 15.5326C30.7927 15.4466 30.698 15.3623 30.6016 15.2798C30.5891 15.2691 30.5774 15.2578 30.5648 15.247C30.5621 15.2448 30.5592 15.243 30.5565 15.2408C30.2176 14.9539 29.86 14.6894 29.4861 14.4488L28.4208 16.0749C28.7382 16.2791 29.0408 16.5048 29.3266 16.7506C29.4294 16.8387 29.53 16.9292 29.6284 17.0221C29.6543 17.0466 29.679 17.0719 29.7046 17.0967C29.7971 17.1865 29.8875 17.2784 29.9757 17.3724C30.202 17.6138 30.4131 17.8663 30.6063 18.1306L30.6061 18.1307C30.6446 18.1833 30.6816 18.2368 30.7188 18.2902C30.7804 18.3786 30.8403 18.4682 30.8984 18.5588C30.9063 18.5712 30.9137 18.584 30.9216 18.5965C30.995 18.7132 31.0653 18.8318 31.1324 18.9521C31.1515 18.9864 31.1705 19.0207 31.1892 19.0551C31.2209 19.1134 31.2518 19.1721 31.282 19.2311C31.309 19.2841 31.3345 19.3378 31.3602 19.3912C31.4219 19.5195 31.4802 19.6494 31.5349 19.7808C31.5552 19.8295 31.5755 19.8782 31.5949 19.9274C31.7233 20.2545 31.8299 20.5896 31.9141 20.9306C31.9225 20.9645 31.931 20.9984 31.939 21.0324C31.9635 21.1377 31.9863 21.2437 32.0067 21.3502C32.0128 21.3821 32.018 21.4141 32.0237 21.4462C32.0388 21.5304 32.0525 21.6146 32.0649 21.6993C32.0702 21.7358 32.0758 21.7722 32.0807 21.8087C32.0951 21.9169 32.1074 22.0254 32.1175 22.1341C32.1202 22.1631 32.1221 22.1923 32.1244 22.2214C32.133 22.3267 32.1396 22.4318 32.1442 22.5372C32.145 22.5569 32.1464 22.5768 32.1471 22.5965C32.1995 24.1057 31.8257 25.5435 31.1279 26.788C31.1257 26.7919 31.1234 26.7956 31.1213 26.7994C30.9334 27.133 30.7221 27.4533 30.4889 27.7577C30.4846 27.7632 30.4803 27.769 30.476 27.7745C29.5171 29.0194 28.1987 29.9879 26.6596 30.5176C26.5459 30.5564 26.4317 30.594 26.3162 30.6279L26.3126 30.6289C26.224 30.6551 26.1339 30.6778 26.044 30.701L25.8734 28.7698C25.8541 28.557 25.7133 28.5053 25.5584 28.6546Z" fill="black"/>
<path d="M26.6668 26.1923C26.5997 26.1923 26.5336 26.1769 26.4737 26.1472C26.4137 26.1175 26.3615 26.0744 26.3213 26.0213L21.9181 20.2075V25.7648C21.9181 26.0008 21.7248 26.1923 21.4864 26.1923C21.248 26.1923 21.0547 26.0008 21.0547 25.7648V18.925C21.0547 18.8353 21.0832 18.7479 21.1362 18.6751C21.1891 18.6023 21.2639 18.5479 21.3499 18.5195C21.4358 18.4911 21.5286 18.4903 21.6151 18.517C21.7016 18.5438 21.7774 18.5968 21.8317 18.6686L26.235 24.4823V18.925C26.235 18.6889 26.4283 18.4976 26.6667 18.4976C26.9051 18.4976 27.0984 18.6889 27.0984 18.925V25.7648C27.0984 25.8209 27.0872 25.8765 27.0655 25.9284C27.0438 25.9802 27.0121 26.0274 26.972 26.0671C26.9319 26.1068 26.8843 26.1383 26.8319 26.1598C26.7796 26.1812 26.7234 26.1923 26.6668 26.1923Z" fill="#FFC000"/>
<path d="M27.7392 21.9199H20.4004C20.162 21.9199 19.9688 21.7285 19.9688 21.4924C19.9688 21.2563 20.162 21.0649 20.4004 21.0649H27.7392C27.9776 21.0649 28.1709 21.2563 28.1709 21.4924C28.1709 21.7285 27.9776 21.9199 27.7392 21.9199ZM27.7392 23.6298H20.4004C20.162 23.6298 19.9688 23.4384 19.9688 23.2024C19.9688 22.9663 20.162 22.7749 20.4004 22.7749H27.7392C27.9776 22.7749 28.1709 22.9663 28.1709 23.2024C28.1709 23.4384 27.9776 23.6298 27.7392 23.6298Z" fill="#FFC000"/>
</svg>
