<svg width="48" height="51" viewBox="0 0 48 51" fill="none" xmlns="http://www.w3.org/2000/svg">
<path d="M28.6297 22.2838L28.6409 22.3328L27.9685 22.285C27.1955 22.23 25.896 22.2648 24.7412 22.2976L24.6737 22.2995C24.1301 22.3149 23.6242 22.3293 23.243 22.3313C23.0458 22.3324 22.8714 22.3303 22.7383 22.3223C22.6735 22.3184 22.6042 22.3123 22.5416 22.3011C22.5112 22.2956 22.4673 22.2864 22.4201 22.2696L22.4194 22.2694C22.3953 22.2608 22.3114 22.2309 22.2303 22.1564C20.7607 23.3867 19.2964 25.419 18.3298 27.6101L18.3297 27.6103C17.2457 30.0644 16.9987 32.18 17.4959 33.6038C17.6687 34.0981 17.9732 34.6255 18.5111 35.036C19.0462 35.4443 19.8521 35.7677 21.0825 35.7888L21.0829 35.7889C21.6257 35.7986 23.5489 35.8309 25.5293 35.8447H25.538C25.5386 35.8447 25.5391 35.8447 25.5396 35.8447M28.6297 22.2838L30.0022 36.2888C28.8815 36.3082 27.1214 36.3333 25.5413 36.3447V35.8447H25.5396M28.6297 22.2838C28.6959 22.2624 28.7746 22.2245 28.8466 22.1571C30.3159 23.3874 31.7799 25.4194 32.7463 27.6101L32.7464 27.6103C33.8304 30.0652 34.0774 32.1799 33.5802 33.6037M28.6297 22.2838L33.5802 33.6037M25.5396 35.8447C27.1171 35.8333 28.8744 35.8083 29.9935 35.7888H29.9936C31.224 35.7677 32.0299 35.4443 32.565 35.036C33.1029 34.6255 33.4075 34.098 33.5802 33.6037M25.5396 35.8447L33.5802 33.6037M33.5802 33.6037C33.5802 33.6037 33.5802 33.6038 33.5802 33.6038L34.0522 33.7686L33.5802 33.6037ZM28.5317 19.0797H28.2365H22.8404H22.5452L21.292 14.405C21.564 14.4423 21.8363 14.6368 22.2381 14.9527L22.2431 14.9567C22.3799 15.0646 22.5491 15.1982 22.7142 15.3039C22.8576 15.3957 23.1012 15.5378 23.3672 15.5378C23.6333 15.5378 23.8769 15.396 24.0207 15.304C24.186 15.1982 24.3553 15.0647 24.492 14.9567L24.4971 14.9527C24.4972 14.9526 24.4973 14.9526 24.4974 14.9525C24.9462 14.5996 25.2333 14.3984 25.538 14.3984C25.8435 14.3984 26.1309 14.5997 26.5783 14.9522L28.5317 19.0797ZM28.5317 19.0797L29.7841 14.405C29.5125 14.4423 29.2411 14.6365 28.8394 14.9523C28.8392 14.9524 28.839 14.9526 28.8388 14.9527L28.8338 14.9567C28.697 15.0647 28.5277 15.1982 28.3624 15.304C28.2187 15.396 27.9751 15.5378 27.7089 15.5378C27.4428 15.5378 27.1992 15.396 27.0554 15.304C26.8901 15.1982 26.7209 15.0647 26.5841 14.9567L26.5786 14.9524L28.5317 19.0797Z" stroke="#C8D0DB"/>
<path fill-rule="evenodd" clip-rule="evenodd" d="M28.8258 22.0074L22.05 22.0629C21.0355 22.0712 20.2054 21.4463 20.199 20.6708C20.1927 19.8947 21.0124 19.2569 22.0269 19.2486L28.8027 19.193C29.8172 19.1847 30.6473 19.809 30.6536 20.5851C30.66 21.3606 29.8395 21.999 28.8258 22.0074Z" fill="#C8D0DB"/>
<path d="M29.5413 29.9251H28.3614V28.7911H29.5413C29.7186 28.7911 29.8623 28.6475 29.8623 28.4702C29.8623 28.2929 29.7186 28.1492 29.5413 28.1492H28.3614V26.5758C28.3614 26.3461 28.316 26.1775 28.2265 26.0748C28.1415 25.9771 28.0297 25.9316 27.8749 25.9316C27.7272 25.9316 27.6196 25.9768 27.5362 26.0739C27.4477 26.1767 27.4029 26.3456 27.4029 26.5759V28.1494H25.1834L24.2397 26.7214C24.1633 26.6006 24.0865 26.4802 24.0093 26.36C23.9429 26.2568 23.8781 26.1727 23.8169 26.11C23.7628 26.0545 23.7011 26.0115 23.6289 25.9784C23.5608 25.9474 23.4742 25.9317 23.3718 25.9317C23.2411 25.9317 23.1226 25.9675 23.009 26.0411C22.8966 26.1138 22.8189 26.2037 22.7715 26.316C22.7298 26.4227 22.7078 26.5862 22.7078 26.7972V28.1493H21.5396C21.3624 28.1493 21.2188 28.293 21.2188 28.4703C21.2188 28.6476 21.3624 28.7912 21.5396 28.7912H22.7078V29.9253H21.5396C21.3624 29.9253 21.2188 30.0689 21.2188 30.2463C21.2188 30.4236 21.3624 30.5671 21.5396 30.5671H22.7078V32.3635C22.7078 32.5864 22.7547 32.7533 22.8474 32.8594C22.9356 32.9605 23.0475 33.0074 23.1994 33.0074C23.3459 33.0074 23.4569 32.9602 23.549 32.859C23.6432 32.7552 23.6909 32.5884 23.6909 32.3636V30.5671H25.6992L26.7861 32.2336C26.8622 32.3445 26.9393 32.4546 27.0175 32.564C27.0877 32.6619 27.1643 32.7482 27.2451 32.8202C27.3179 32.8854 27.3959 32.9332 27.477 32.9623C27.5605 32.9924 27.6581 33.0076 27.7664 33.0076C28.0603 33.0076 28.3614 32.9176 28.3614 32.2503V30.5671H29.5413C29.7186 30.5671 29.8623 30.4233 29.8623 30.2461C29.8623 30.0688 29.7186 29.9251 29.5413 29.9251ZM27.4028 28.7911V29.9251H26.3571L25.6078 28.7911H27.4028ZM23.6909 27.4881L24.1221 28.1492H23.6909V27.4881ZM23.6909 29.9251V28.7911H24.5409L25.2805 29.9251H23.6909ZM27.4028 31.5078L26.7813 30.5671H27.4028V31.5078Z" fill="#C8D0DB"/>
<path d="M3.29664 31.6368L6.04651 27.2161L9.46969 30.84" stroke="#C8D0DB" stroke-linecap="round" stroke-linejoin="round"/>
<path d="M6.03037 28.7063C7.45733 37.7494 15.1951 44.4468 24.3493 44.5622C33.5032 44.6777 41.4076 38.1775 43.0622 29.1735" stroke="#C8D0DB" stroke-linecap="round" stroke-linejoin="round"/>
<path d="M44.7034 18.7363L41.9535 23.1569L38.5303 19.533" stroke="#C8D0DB" stroke-linecap="round" stroke-linejoin="round"/>
<path d="M41.9696 21.6667C40.5427 12.6237 32.8049 5.92628 23.6507 5.81088C14.4968 5.69539 6.59242 12.1955 4.93781 21.1996" stroke="#C8D0DB" stroke-linecap="round" stroke-linejoin="round"/>
</svg>
