<svg width="22" height="29" viewBox="0 0 22 29" fill="none" xmlns="http://www.w3.org/2000/svg">
<path fill-rule="evenodd" clip-rule="evenodd" d="M2.41036 28.2148C2.13252 28.1315 1.84773 28.069 1.58377 27.9509C0.562698 27.4855 -0.00688347 26.7145 6.27961e-05 25.5614C6.27961e-05 19.2821 6.27961e-05 13.0028 6.27961e-05 6.72357C6.27961e-05 5.15376 1.22258 3.9104 2.7924 3.88261C3.61899 3.86873 4.45252 3.88261 5.32078 3.88261C5.32078 3.56309 5.32078 3.25747 5.32078 2.95183C5.32078 2.43782 5.50138 2.23639 6.02234 2.2225C6.60581 2.2086 7.18929 2.21555 7.77276 2.21555C7.91168 2.21555 7.99503 2.18776 8.0645 2.0419C8.64102 0.826327 9.60653 0.201178 10.9471 0.21507C12.2808 0.228962 13.2949 0.777705 13.8645 2.0419C13.8992 2.12525 14.0312 2.20166 14.1215 2.2086C14.6702 2.2225 15.212 2.21555 15.7608 2.21555C15.9136 2.21555 16.0733 2.2225 16.2192 2.26418C16.5318 2.34752 16.6569 2.51423 16.6569 2.83375C16.6638 3.16717 16.6569 3.50753 16.6569 3.86873C16.9763 3.86873 17.275 3.86178 17.5737 3.86873C18.2545 3.88261 18.9421 3.84094 19.6229 3.92429C20.9565 4.091 21.9845 5.28573 21.9845 6.62633C21.9915 12.9681 21.9915 19.3099 21.9845 25.6517C21.9845 26.8812 21.0676 27.8953 19.7826 28.1384C19.7131 28.1523 19.6436 28.1731 19.5742 28.194C13.8645 28.2148 8.1409 28.2148 2.41036 28.2148ZM5.32773 5.24402C5.26521 5.22319 5.24438 5.21624 5.23048 5.21624C4.48031 5.21624 3.73708 5.20929 2.98689 5.20929C1.93109 5.20929 1.32678 5.8136 1.32678 6.86942C1.32678 13.0584 1.32678 19.2474 1.32678 25.4294C1.32678 25.4988 1.32678 25.5753 1.32678 25.6448C1.34066 26.0476 1.51432 26.3602 1.84774 26.5825C2.16726 26.7978 2.52845 26.8672 2.91049 26.8672C8.29372 26.8672 13.6839 26.8672 19.0671 26.8672C19.2199 26.8672 19.3797 26.8533 19.5325 26.8325C20.2619 26.7075 20.6717 26.2282 20.6717 25.4919C20.6717 19.2613 20.6717 13.0237 20.6717 6.79301C20.6717 5.84138 20.0535 5.21624 19.1088 5.20234C18.5532 5.19541 17.9974 5.20234 17.4417 5.20234C17.1986 5.20234 16.9556 5.20234 16.7262 5.20234C16.6985 5.24402 16.6846 5.26486 16.6846 5.27875C16.6776 5.7372 16.6776 6.1887 16.6776 6.64713C16.6776 7.27229 16.4207 7.53624 15.8025 7.53624C12.5933 7.53624 9.38426 7.53624 6.18211 7.53624C5.59168 7.53624 5.33468 7.27924 5.33468 6.68881C5.32773 6.20953 5.32773 5.73025 5.32773 5.24402ZM15.3162 3.54227C14.7466 3.54227 14.2048 3.54227 13.6561 3.54227C13.0935 3.54227 12.892 3.38945 12.7392 2.84765C12.4961 1.97244 11.6904 1.38897 10.8221 1.45843C10.0303 1.514 9.37033 2.09053 9.14111 2.91711C9.01608 3.37556 8.78686 3.54227 8.31453 3.54921C8.14087 3.54921 7.96722 3.54921 7.79357 3.54921C7.42543 3.54921 7.05033 3.54921 6.68914 3.54921C6.68914 4.45915 6.68914 5.32741 6.68914 6.20262C9.57872 6.20262 12.4405 6.20262 15.3162 6.20262C15.3162 5.31353 15.3162 4.44526 15.3162 3.54227Z" fill="#FF5900"/>
<path d="M14.1592 11.2098C15.4095 11.2098 16.6529 11.2098 17.9032 11.2098C18.2852 11.2098 18.5492 11.3903 18.6394 11.696C18.7437 12.0641 18.5075 12.4531 18.1254 12.5225C18.0074 12.5434 17.8893 12.5434 17.7712 12.5434C15.3679 12.5434 12.9645 12.5434 10.5612 12.5434C10.4638 12.5434 10.3597 12.5434 10.2625 12.5295C9.90129 12.4809 9.66508 12.2169 9.67202 11.8626C9.67897 11.5154 9.92205 11.2375 10.2832 11.2098C10.5194 11.1889 10.7556 11.2028 10.9917 11.2028C12.0476 11.2098 13.1034 11.2098 14.1592 11.2098Z" fill="#FF5900"/>
<path d="M14.187 21.8721C15.3957 21.8721 16.6112 21.8721 17.8199 21.8721C17.9518 21.8721 18.0977 21.879 18.2227 21.9207C18.5005 22.0109 18.6742 22.2749 18.6603 22.5736C18.6465 22.8654 18.4519 23.1154 18.1602 23.178C18.0491 23.2057 17.924 23.2127 17.806 23.2127C15.3818 23.2127 12.9645 23.2127 10.5404 23.2127C10.4292 23.2127 10.318 23.2057 10.2138 23.1918C9.89436 23.1362 9.679 22.8793 9.67206 22.5667C9.66511 22.2471 9.85263 21.9832 10.1722 21.9068C10.2833 21.879 10.4084 21.879 10.5264 21.879C11.742 21.8721 12.9645 21.8721 14.187 21.8721Z" fill="#FF5900"/>
<path d="M14.1734 16.5469C15.4237 16.5469 16.6671 16.5469 17.9174 16.5469C18.3272 16.5469 18.5982 16.7552 18.6537 17.0956C18.7163 17.4916 18.4384 17.8389 18.0355 17.8736C17.8897 17.8875 17.7438 17.8805 17.5979 17.8805C15.2154 17.8805 12.8259 17.8805 10.4434 17.8805C9.97802 17.8805 9.69323 17.6374 9.67238 17.2485C9.6585 16.8386 9.9294 16.5608 10.3739 16.5539C11.263 16.5469 12.1591 16.5539 13.0482 16.5539C13.4233 16.5469 13.7984 16.5469 14.1734 16.5469Z" fill="#FF5900"/>
<path d="M5.39072 17.0877C6.0506 16.4557 6.71048 15.8166 7.38425 15.1914C7.50928 15.0803 7.66209 14.9761 7.81492 14.9275C8.10665 14.8441 8.40534 15.0039 8.5512 15.2679C8.69707 15.5387 8.66233 15.8166 8.40534 16.0597C7.65515 16.7751 6.90497 17.4906 6.14785 18.206C6.02976 18.3172 5.91168 18.4352 5.78665 18.5395C5.50186 18.7757 5.1615 18.7687 4.89754 18.5117C4.43216 18.0533 3.97371 17.5809 3.52221 17.1016C3.25132 16.8169 3.26521 16.3862 3.52221 16.1431C3.78617 15.886 4.17515 15.9069 4.47384 16.1986C4.62665 16.3445 4.76557 16.5043 4.91144 16.6501C5.0712 16.796 5.22401 16.928 5.39072 17.0877Z" fill="#2D017C"/>
<path d="M5.39515 11.7526C6.07587 11.1066 6.75659 10.4537 7.43731 9.8146C7.71515 9.55065 7.99995 9.50203 8.27779 9.66179C8.68066 9.88406 8.7779 10.3772 8.4445 10.6968C7.56928 11.5442 6.68019 12.3847 5.79108 13.2112C5.52019 13.4613 5.17288 13.4405 4.90893 13.1766C4.45743 12.725 4.01288 12.2735 3.57527 11.8082C3.27658 11.4956 3.27658 11.0718 3.54749 10.8079C3.81144 10.5578 4.22126 10.5925 4.51994 10.8982C4.79779 11.176 5.06869 11.4539 5.33958 11.7387C5.34653 11.7387 5.36042 11.7387 5.39515 11.7526Z" fill="#2D017C"/>
<path d="M5.41191 22.4008C6.0718 21.7757 6.75252 21.1158 7.44018 20.4698C7.73192 20.192 8.06533 20.1642 8.35012 20.3864C8.68354 20.6435 8.7391 21.0672 8.44042 21.3589C7.56521 22.2064 6.67611 23.0468 5.78701 23.8733C5.50916 24.1373 5.16186 24.1095 4.88402 23.8317C4.43947 23.3872 4.00186 22.9426 3.56426 22.4842C3.26557 22.1716 3.25862 21.7478 3.52258 21.4839C3.78653 21.2269 4.19635 21.2686 4.51587 21.5742C4.8076 21.8452 5.09934 22.1091 5.41191 22.4008Z" fill="#2D017C"/>
</svg>
