<svg width="36" height="36" viewBox="0 0 36 36" fill="none" xmlns="http://www.w3.org/2000/svg">
<g clip-path="url(#clip0_300_6370)">
<mask id="mask0_300_6370" style="mask-type:luminance" maskUnits="userSpaceOnUse" x="0" y="0" width="36" height="36">
<path d="M36 0H0V36H36V0Z" fill="white"/>
</mask>
<g mask="url(#mask0_300_6370)">
<path d="M3.46875 13.5005L8.3149 8.6543" stroke="#C8D0DB"/>
<path d="M3.46875 20.4238L8.3149 25.27" stroke="#C8D0DB"/>
<path d="M15.9225 25.2697H4.15325C3.77089 25.2697 3.46094 24.9597 3.46094 24.5774V9.3466C3.46094 8.96426 3.77089 8.6543 4.15325 8.6543H31.8456C32.2278 8.6543 32.5379 8.96426 32.5379 9.3466V23.8851" stroke="#C8D0DB"/>
<path d="M32.5415 13.5005L27.6953 8.6543" stroke="#C8D0DB"/>
<path d="M10.5781 28.4453L11.7717 30.1152V33.5767" stroke="#C8D0DB"/>
<path d="M13.1538 7.96157C13.1538 7.94357 13.1538 7.92695 13.1538 7.90895C13.1538 6.7619 12.224 5.83203 11.0769 5.83203C9.92987 5.83203 9 6.7619 9 7.90895C9 7.92695 9 7.94357 9 7.96157V8.65388" stroke="#C8D0DB"/>
<path d="M17.3101 8.65373V6.5768C17.3101 6.5588 17.3101 6.54219 17.3101 6.52419C17.3101 5.37713 16.3802 4.44727 15.2332 4.44727C14.0861 4.44727 13.1562 5.37713 13.1562 6.52419C13.1562 6.54219 13.1562 6.5588 13.1562 6.5768V8.65373" stroke="#C8D0DB"/>
<path d="M21.4585 8.6546V4.55337C21.4585 4.53537 21.4585 4.51875 21.4585 4.50075C21.4585 3.35369 20.5286 2.42383 19.3816 2.42383C18.2346 2.42383 17.3047 3.35369 17.3047 4.50075C17.3047 4.51875 17.3047 4.53537 17.3047 4.55337V8.6546" stroke="#C8D0DB"/>
<path d="M25.6148 8.65373V6.5768C25.6148 6.5588 25.6148 6.54219 25.6148 6.52419C25.6148 5.37713 24.6849 4.44727 23.5379 4.44727C22.3908 4.44727 21.4609 5.37713 21.4609 6.52419C21.4609 6.54219 21.4609 6.5588 21.4609 6.5768V7.96142" stroke="#C8D0DB"/>
<path d="M24.232 33.5782V32.1936C24.232 31.322 24.6424 30.5012 25.3397 29.9782L28.6627 27.4859C29.36 26.9629 29.7704 26.1421 29.7704 25.2705V18.9968C29.7704 18.9871 29.7635 18.9788 29.7635 18.9691C29.7162 17.9261 28.9017 17.0803 27.8612 16.9936C26.8205 16.9069 25.8775 17.6063 25.6581 18.6271C25.5954 18.7415 25.5489 18.8641 25.5197 18.9913L25.1043 21.8533C24.9834 22.6987 24.4791 23.4412 23.7377 23.8651L21.4627 25.1653C20.6039 25.6611 20.0756 26.5786 20.0781 27.5704V29.4244" stroke="#C8D0DB"/>
<path d="M12.9609 15.9863H23.0309" stroke="#C8D0DB" stroke-linecap="square"/>
<path d="M12.9609 18H23.0309" stroke="#C8D0DB" stroke-linecap="square"/>
<path d="M21.019 21.0208H20.012L15.984 12.9648H14.9141V21.0208" stroke="#C8D0DB" stroke-linecap="square"/>
<path d="M21.0781 21.0208V12.9648" stroke="#C8D0DB" stroke-linecap="square"/>
</g>
</g>
<defs>
<clipPath id="clip0_300_6370">
<rect width="36" height="36" fill="white"/>
</clipPath>
</defs>
</svg>
