<svg width="32" height="30" viewBox="0 0 32 30" fill="none" xmlns="http://www.w3.org/2000/svg">
<path fill-rule="evenodd" clip-rule="evenodd" d="M10.2118 1.21484C8.04423 1.26573 6.67256 2.18183 6.08238 3.59745C5.52108 4.94522 5.6384 6.64357 6.03906 8.40791C5.8243 8.67182 5.64742 9.04316 5.69255 9.59927V9.62934C5.77015 10.2174 5.93981 10.6322 6.15457 10.9263C6.25745 11.0657 6.40365 11.0732 6.52998 11.1524C6.64187 11.8103 6.89275 12.438 7.17972 12.9319C7.19416 13.0035 7.22303 13.0695 7.26634 13.1279C7.26634 13.1279 7.31327 13.1901 7.3241 13.2033C7.46848 13.4295 7.54068 13.7443 7.54068 14.093C7.54068 14.4643 7.53527 14.8093 7.49736 15.1939C7.35839 15.5595 7.01186 15.8517 6.45779 16.1439C5.87844 16.4493 5.12041 16.7301 4.34976 17.0788C3.57909 17.4275 2.79761 17.846 2.16952 18.5114C1.54145 19.1768 1.09205 20.0986 1.02888 21.3012L1 21.8139H19.5391L19.5103 21.3012C19.4471 20.0986 19.0085 19.1786 18.3841 18.5114C17.7596 17.8441 16.9745 17.4275 16.2038 17.0788C15.4331 16.7301 14.6697 16.4511 14.0813 16.1439C13.511 15.846 13.1536 15.5426 12.9984 15.1637C12.9624 14.7075 12.9552 14.3474 12.9552 13.9422C12.9552 13.684 13.0399 13.4503 13.1862 13.2184C13.1898 13.2127 13.197 13.2089 13.2006 13.2033C13.2024 13.1996 13.2295 13.1731 13.2295 13.1731C13.2872 13.1109 13.327 13.0318 13.345 12.9469C13.6247 12.4455 13.8575 11.8084 13.9659 11.1675C14.1103 11.0884 14.2727 11.0789 14.3845 10.9263C14.6066 10.6227 14.7365 10.1911 14.7889 9.59927C14.8304 9.08839 14.6896 8.71705 14.4712 8.43808C14.7112 7.66523 14.9964 6.4287 14.9044 5.16576C14.8538 4.47209 14.6788 3.7803 14.2835 3.20538C13.9261 2.68513 13.3486 2.32887 12.623 2.16487C12.134 1.48251 11.246 1.21484 10.2263 1.21484H10.2118ZM10.2265 2.17995C10.2319 2.17995 10.2355 2.17995 10.2409 2.17995C11.1632 2.18372 11.7534 2.45516 11.9447 2.79822L12.0602 3.00934L12.2913 3.03951C12.9265 3.13186 13.2749 3.38823 13.533 3.76334C13.791 4.13844 13.939 4.66246 13.9805 5.24115C14.0654 6.40041 13.7441 7.75949 13.533 8.37776L13.3886 8.78492L13.7495 8.98095C13.7459 8.99414 13.8975 9.15437 13.8795 9.50873C13.8795 9.51625 13.8795 9.51625 13.8795 9.52377C13.8362 9.97808 13.7242 10.2344 13.6484 10.3382C13.5709 10.4437 13.5311 10.4286 13.5474 10.4286H13.1431L13.0854 10.8509C13.006 11.4767 12.7009 12.2646 12.4356 12.6604H12.4211C12.3941 12.7019 12.3743 12.7509 12.3489 12.7961C12.228 12.9432 12.0457 13.1374 11.7859 13.3692C11.3545 13.7537 10.7824 14.093 10.2698 14.093C9.76086 14.093 9.18331 13.7368 8.73933 13.339C8.3549 12.9941 8.12569 12.6981 8.06072 12.6152C8.05891 12.6115 8.06252 12.6038 8.06072 12.6001C7.78819 12.1892 7.47595 11.4691 7.39654 10.8509L7.35322 10.4286H6.97782C6.96158 10.4211 6.91826 10.3966 6.87675 10.3382C6.79553 10.2269 6.68002 9.96675 6.61686 9.52377C6.61686 9.5144 6.61686 9.51821 6.61686 9.50873C6.61505 9.50122 6.61866 9.50122 6.61686 9.4937C6.60964 9.12798 6.82621 8.9244 6.79011 8.95079L7.05001 8.75475L6.97782 8.423C6.55188 6.66431 6.48511 5.07151 6.9345 3.98953C7.3839 2.91132 8.29354 2.22897 10.2265 2.17995ZM8.4648 14.3493C8.9521 14.7244 9.56213 15.0581 10.2696 15.0581C10.9627 15.0581 11.5565 14.7414 12.0311 14.3795C12.033 14.6735 12.0419 14.9751 12.0745 15.3446V15.4049L12.1033 15.4653C12.1846 15.6876 12.3 15.8762 12.4354 16.0534C12.43 16.0722 12.4245 16.0929 12.4209 16.1137C12.4209 16.1137 12.3108 16.4303 11.9878 16.7772C11.6647 17.124 11.163 17.4709 10.2696 17.4709C9.37984 17.4709 8.86005 17.109 8.52255 16.747C8.18504 16.3851 8.07495 16.0534 8.07495 16.0534C8.2085 15.8724 8.31861 15.6782 8.3926 15.4501L8.42148 15.3597C8.46118 14.9939 8.4648 14.6642 8.4648 14.3493ZM13.1576 16.717C13.32 16.8262 13.4878 16.928 13.6629 17.0185C14.3379 17.3691 15.1031 17.6405 15.8286 17.9686C16.5542 18.2965 17.231 18.6679 17.7201 19.19C18.11 19.6066 18.3446 20.1608 18.4709 20.8488H2.06868C2.19501 20.1608 2.42783 19.6066 2.81948 19.19C3.3104 18.6679 3.99984 18.2965 4.72538 17.9686C5.45092 17.6405 6.20894 17.371 6.87672 17.0185C7.04277 16.9299 7.21243 16.8376 7.36764 16.732C7.47051 16.9261 7.62934 17.1788 7.85855 17.4257C8.32961 17.9327 9.12735 18.436 10.2698 18.436C11.4086 18.436 12.1901 17.9384 12.6522 17.4408C12.9048 17.1693 13.0583 16.9168 13.1576 16.717Z" fill="#FF5900" stroke="#FF5900"/>
<path fill-rule="evenodd" clip-rule="evenodd" d="M30.3708 16.7534C30.8179 17.4689 31.2153 18.1048 31.6228 18.7607C30.5694 19.3867 29.7348 19.9829 29.7646 21.5827C29.7845 23.1329 30.5198 23.7589 31.6129 24.3651C31.275 24.9215 30.9471 25.4681 30.6291 26.0245C30.4702 26.3028 30.2913 26.3425 30.0329 26.1835C28.9399 25.4978 27.8766 25.4283 26.8631 26.3624C26.7239 26.4915 26.5053 26.5711 26.3165 26.6307C25.77 26.8195 25.5116 27.1872 25.4719 27.7734C25.3526 29.2142 25.3427 29.2142 23.9019 29.2142C22.8784 29.2142 22.8187 29.2142 22.7691 28.1908C22.7293 27.2965 22.4113 26.73 21.5369 26.4717C21.2288 26.3823 20.9208 26.2232 20.6823 26.0146C20.0265 25.4382 19.3905 25.5674 18.7148 25.9451C18.5061 26.0642 18.2776 26.1636 18.0391 26.2332C17.9298 26.263 17.7311 26.2332 17.6715 26.1636C17.274 25.6171 16.8964 25.0408 16.4492 24.385C17.6516 23.7887 18.4068 23.1627 18.4267 21.5827C18.4366 19.9829 17.6516 19.3768 16.4492 18.7806C16.9262 18.075 17.3435 17.4689 17.7907 16.8131C18.2379 17.0118 18.6751 17.1807 19.0924 17.3894C19.5793 17.6279 20.0066 17.608 20.4637 17.29C20.9109 16.982 21.4176 16.7435 21.9145 16.5249C22.4213 16.3063 22.6896 15.9784 22.7194 15.4219C22.7392 14.9747 22.8187 14.5375 22.8684 14.0605C23.6733 14.0605 24.4384 14.0605 25.3228 14.0605C25.3725 15.2728 25.6209 16.2268 26.9426 16.9522C28.2741 17.6577 29.218 17.459 30.3708 16.7534ZM20.0762 21.5728C19.9272 23.59 22.2325 25.4283 24.0311 25.4283C26.3762 25.4183 28.0654 23.5006 28.0753 21.6126C28.0853 19.6749 26.4258 17.767 24.0907 17.7272C22.1629 17.6974 19.957 19.5457 20.0762 21.5728Z" fill="#2D017C"/>
<path fill-rule="evenodd" clip-rule="evenodd" d="M24.0195 23.3711C22.9861 23.3612 22.2011 22.5663 22.211 21.5428C22.221 20.5093 23.0457 19.7442 24.1288 19.7641C25.1822 19.7839 25.9672 20.5491 25.9672 21.5626C25.9771 22.6358 25.1623 23.3811 24.0195 23.3711Z" fill="#FF5900"/>
</svg>
