<svg width="51" height="36" viewBox="0 0 51 36" fill="none" xmlns="http://www.w3.org/2000/svg">
<path d="M34.4118 11.1287L37.0819 8.45855L34.6663 6.04297L31.7485 8.95909C29.9547 7.88284 27.8637 7.25076 25.6224 7.25076C19.0299 7.25076 13.6641 12.6149 13.6641 19.2091C13.6641 25.8033 19.0299 31.1674 25.6224 31.1674C32.2149 31.1674 37.5807 25.8033 37.5807 19.2091C37.5794 16.2127 36.4477 13.3271 34.4118 11.1287ZM25.6224 27.7508C20.9125 27.7508 17.0807 23.919 17.0807 19.2091C17.0807 14.4992 20.9125 10.6674 25.6224 10.6674C30.3323 10.6674 34.1641 14.4992 34.1641 19.2091C34.1641 23.919 30.3323 27.7508 25.6224 27.7508Z" fill="white"/>
<path d="M23.9141 14.0833H27.3307V20.9167H23.9141V14.0833ZM22.2057 2.125H29.0391V5.54167H22.2057V2.125ZM5.1224 10.6667H11.9557V14.0833H5.1224V10.6667ZM5.1224 24.3333H11.9557V27.75H5.1224V24.3333ZM3.41406 17.5H10.2303V20.9167H3.41406V17.5Z" fill="#00BAF2"/>
<path d="M34.4844 25.1528V17.9481L41.9788 22.5082V28.9501L34.767 25.5555C34.5688 25.4542 34.4844 25.291 34.4844 25.1528Z" stroke="white"/>
<path d="M50.4788 17.9069V25.4647L42.9844 28.9549V22.0563L50.4788 17.9069Z" stroke="white"/>
<path d="M49.9015 17.1333L42.5142 21.6934L35.0632 17.1334L42.5144 13.8761L49.9015 17.1333Z" stroke="white"/>
</svg>
