<svg width="50" height="31" viewBox="0 0 50 31" fill="none" xmlns="http://www.w3.org/2000/svg">
<mask id="mask0_875_70" style="mask-type:luminance" maskUnits="userSpaceOnUse" x="0" y="0" width="50" height="31">
<path d="M0 0H50V30.8219H0V0Z" fill="white"/>
</mask>
<g mask="url(#mask0_875_70)">
<path d="M49.0875 27.6613L49.0875 27.6613L49.0857 27.6668C48.6267 29.0445 47.3221 30.0385 45.7853 30.0385H3.98493C2.0607 30.0385 0.5 28.4796 0.5 26.5563V3.98493C0.5 2.45088 1.49302 1.14585 2.87238 0.684262L2.87239 0.684277L2.8762 0.682969C3.22437 0.563331 3.59495 0.5 3.98493 0.5L45.7853 0.5L45.7855 0.5C47.7098 0.499228 49.2702 2.06017 49.2702 3.98405V26.5553C49.2702 26.9439 49.2067 27.3168 49.0875 27.6613Z" fill="url(#paint0_linear_875_70)" stroke="#BF9BFF"/>
<path d="M12.7171 15.7128H4.78255C4.38882 15.7128 4.07013 15.3941 4.07013 15.0003V8.0828C4.07013 7.68907 4.38882 7.37033 4.78255 7.37033H12.7171C13.1108 7.37033 13.4295 7.68907 13.4295 8.0828V15.0003C13.4295 15.3941 13.1108 15.7128 12.7171 15.7128Z" fill="#FF5900"/>
<path d="M8.2458 23.2877H4.76788C4.40436 23.2877 4.10956 22.8276 4.10956 22.2603C4.10956 21.6929 4.40436 21.2329 4.76788 21.2329H8.2458C8.60926 21.2329 8.90406 21.6929 8.90406 22.2603C8.9036 22.8276 8.60926 23.2877 8.2458 23.2877Z" fill="#FF5900"/>
<path d="M14.4101 23.2877H10.9323C10.5687 23.2877 10.2739 22.8276 10.2739 22.2603C10.2739 21.6929 10.5687 21.2329 10.9323 21.2329H14.4101C14.7737 21.2329 15.0685 21.6929 15.0685 22.2603C15.0685 22.8276 14.7737 23.2877 14.4101 23.2877Z" fill="#FF5900"/>
<path d="M21.2595 23.2877H17.7817C17.4181 23.2877 17.1233 22.8276 17.1233 22.2603C17.1233 21.6929 17.4181 21.2329 17.7817 21.2329H21.2595C21.623 21.2329 21.9178 21.6929 21.9178 22.2603C21.9178 22.8276 21.623 23.2877 21.2595 23.2877Z" fill="#FF5900"/>
<path d="M27.4239 23.2877H23.9461C23.5825 23.2877 23.2877 22.8276 23.2877 22.2603C23.2877 21.6929 23.5825 21.2329 23.9461 21.2329H27.4239C27.7874 21.2329 28.0822 21.6929 28.0822 22.2603C28.0817 22.8276 27.7874 23.2877 27.4239 23.2877Z" fill="#FF5900"/>
<path fill-rule="evenodd" clip-rule="evenodd" d="M11.8175 9.70207H13.4304V9.45133H11.8175C11.5333 9.45133 11.3011 9.68347 11.3011 9.96953V11.4155H10.3062V10.5107C10.3062 10.222 10.0714 9.98806 9.7836 9.98806H8.876V7.36973H8.62534V9.98806H7.74074C7.453 9.98806 7.21814 10.2229 7.21814 10.5107V11.4155H6.19944V9.96953C6.19944 9.68347 5.96814 9.45133 5.683 9.45133H4.07013V9.70207H5.683C5.82954 9.70207 5.94872 9.82213 5.94872 9.9704V13.1141C5.94872 13.2623 5.82954 13.3824 5.683 13.3824H4.07013V13.6331H5.683C5.96726 13.6331 6.19944 13.4009 6.19944 13.1149V11.668H7.21814V12.5729C7.21814 12.8616 7.453 13.0964 7.74074 13.0964H8.62534V15.7148H8.876V13.0964H9.7836C10.0714 13.0964 10.3062 12.8616 10.3062 12.5729V11.668H11.3011V13.1149C11.3011 13.4009 11.5324 13.6331 11.8175 13.6331H13.4304V13.3824H11.8175C11.6709 13.3824 11.5518 13.2623 11.5518 13.1141V9.9704C11.5518 9.823 11.6709 9.70207 11.8175 9.70207ZM10.0555 12.572C10.0555 12.7221 9.93367 12.8448 9.78267 12.8448H7.73994C7.5898 12.8448 7.46714 12.7221 7.46714 12.572V10.5125C7.46714 10.3624 7.589 10.2397 7.73994 10.2397H9.78267C9.93274 10.2397 10.0555 10.3624 10.0555 10.5125V12.572Z" fill="white" stroke="white" stroke-width="0.1"/>
<path d="M38.0993 18.2226C38.6306 18.2226 39.1324 18.3459 39.5783 18.5654C38.8302 19.3468 38.3699 20.4074 38.3699 21.5753C38.3699 22.7434 38.8302 23.8039 39.5783 24.5852C39.1324 24.8048 38.6306 24.9281 38.0993 24.9281C36.2477 24.9281 34.7466 23.427 34.7466 21.5753C34.7466 19.7237 36.2477 18.2226 38.0993 18.2226Z" stroke="#BF9BFF"/>
<path d="M42.4521 21.5753C42.4521 20.4074 41.9917 19.3468 41.2437 18.5654C41.6895 18.3459 42.1913 18.2226 42.7226 18.2226C44.5743 18.2226 46.0753 19.7237 46.0753 21.5753C46.0753 23.427 44.5743 24.9281 42.7226 24.9281C42.1913 24.9281 41.6895 24.8048 41.2437 24.5852C41.9917 23.8039 42.4521 22.7434 42.4521 21.5753Z" stroke="#BF9BFF"/>
<path fill-rule="evenodd" clip-rule="evenodd" d="M40.411 24.6577C41.3468 23.9549 41.9521 22.8357 41.9521 21.5753C41.9521 20.3148 41.3468 19.1957 40.411 18.4928C39.4751 19.1957 38.8699 20.3148 38.8699 21.5753C38.8699 22.8357 39.4751 23.9549 40.411 24.6577Z" fill="#FF5900"/>
</g>
<defs>
<linearGradient id="paint0_linear_875_70" x1="47.2603" y1="1.36986" x2="7.90892" y2="63.4765" gradientUnits="userSpaceOnUse">
<stop stop-color="white"/>
<stop offset="0.501376" stop-color="white"/>
<stop offset="1" stop-color="white"/>
</linearGradient>
</defs>
</svg>
