<svg width="50" height="41" viewBox="0 0 50 41" fill="none" xmlns="http://www.w3.org/2000/svg">
<mask id="mask0_875_87" style="mask-type:luminance" maskUnits="userSpaceOnUse" x="0" y="0" width="50" height="41">
<path d="M0 0H50V40.5882H0V0Z" fill="white"/>
</mask>
<g mask="url(#mask0_875_87)">
<path d="M41.2545 3.34167L48.3374 21.3861C48.4765 21.7404 48.5529 22.1054 48.5677 22.4669C48.6426 23.8922 47.8067 25.2693 46.4016 25.8208L12.9847 38.9378C11.226 39.6282 9.23965 38.7635 8.54927 37.0047L1.4664 18.9603C0.915676 17.5573 1.3558 16.0081 2.4513 15.091C2.7285 14.8551 3.04595 14.6637 3.40164 14.5242L36.8185 1.40713C38.5777 0.715806 40.5641 1.58296 41.2545 3.34167Z" fill="url(#paint0_linear_875_87)"/>
<path d="M15.313 24.3456L8.96986 26.8355C8.65506 26.959 8.30025 26.8042 8.17672 26.4895L6.00596 20.9593C5.88243 20.6446 6.03719 20.2897 6.35196 20.1662L12.6951 17.6764C13.0099 17.5528 13.3647 17.7075 13.4883 18.0223L15.659 23.5525C15.7826 23.8672 15.6278 24.2221 15.313 24.3456Z" fill="#FF5900"/>
<path d="M14.1158 31.8041L11.3353 32.8955C11.0448 33.0096 10.6647 32.7342 10.4868 32.2807C10.3087 31.8272 10.4 31.3669 10.6906 31.2528L13.471 30.1614C13.7616 30.0474 14.1416 30.3226 14.3196 30.7762C14.4973 31.2299 14.4064 31.6901 14.1158 31.8041Z" fill="white"/>
<path d="M19.0439 29.8699L16.2635 30.9614C15.9729 31.0755 15.5928 30.8001 15.4149 30.3465C15.2369 29.893 15.3281 29.4328 15.6187 29.3187L18.3991 28.2273C18.6897 28.1132 19.0698 28.3885 19.2478 28.8421C19.4258 29.2956 19.3345 29.7559 19.0439 29.8699Z" fill="white"/>
<path d="M24.5196 27.7203L21.7392 28.8117C21.4486 28.9258 21.0685 28.6505 20.8906 28.197C20.7126 27.7434 20.8038 27.2831 21.0944 27.169L23.8748 26.0777C24.1654 25.9636 24.5454 26.2389 24.7235 26.6924C24.9015 27.146 24.8102 27.6063 24.5196 27.7203Z" fill="white"/>
<path d="M29.4472 25.7862L26.6669 26.8776C26.3763 26.9916 25.9962 26.7163 25.8181 26.2628C25.6401 25.8093 25.7314 25.3489 26.0221 25.2349L28.8024 24.1435C29.093 24.0295 29.4731 24.3047 29.6511 24.7583C29.8287 25.2119 29.7378 25.6721 29.4472 25.7862Z" fill="white"/>
<path fill-rule="evenodd" clip-rule="evenodd" d="M12.7079 19.8223L13.9973 19.3162L13.9186 19.1158L12.6292 19.6219C12.4019 19.7112 12.2892 19.9696 12.3789 20.1983L12.8327 21.3542L12.0373 21.6664L11.7534 20.9431C11.6628 20.7123 11.4017 20.599 11.1716 20.6892L10.4461 20.974L9.62446 18.8808L9.42394 18.9595L10.2456 21.0527L9.5385 21.3303C9.30843 21.4206 9.19439 21.682 9.28471 21.9121L9.56862 22.6355L8.7542 22.9551L8.30042 21.7991C8.21067 21.5705 7.95292 21.4574 7.72497 21.5469L6.43555 22.0531L6.51426 22.2535L7.80369 21.7474C7.9208 21.7014 8.05375 21.7599 8.10035 21.8785L9.08683 24.3917C9.1333 24.5103 9.07574 24.6436 8.95856 24.6896L7.66914 25.1957L7.74785 25.3962L9.03721 24.89C9.26452 24.8008 9.37721 24.5424 9.28753 24.3137L8.83343 23.157L9.64785 22.8373L9.93183 23.5607C10.0224 23.7915 10.2838 23.9055 10.5139 23.8152L11.2211 23.5376L12.0427 25.6308L12.2432 25.5522L11.4215 23.459L12.147 23.1742C12.377 23.0839 12.4911 22.8224 12.4005 22.5917L12.1166 21.8683L12.9119 21.5561L13.366 22.7128C13.4557 22.9414 13.7135 23.0545 13.9414 22.965L15.2309 22.4589L15.1521 22.2585L13.8627 22.7646C13.7456 22.8105 13.6127 22.7519 13.5661 22.6334L12.5796 20.1203C12.5334 20.0024 12.5907 19.8683 12.7079 19.8223ZM12.1998 22.6697C12.2469 22.7896 12.188 22.926 12.0673 22.9733L10.4342 23.6144C10.3143 23.6614 10.1777 23.6019 10.1305 23.4819L9.48426 21.8354C9.43715 21.7154 9.49606 21.579 9.6167 21.5317L11.2498 20.8906C11.3698 20.8436 11.5064 20.9032 11.5535 21.0231L12.1998 22.6697Z" fill="white" stroke="white" stroke-width="0.1"/>
<path fill-rule="evenodd" clip-rule="evenodd" d="M38.3252 17.8774C37.7977 18.733 37.6649 19.8176 38.0605 20.8253C38.456 21.833 39.2911 22.5377 40.2598 22.806C39.8968 23.3947 39.3469 23.875 38.6535 24.1471C36.9524 24.8148 35.0322 23.9772 34.3645 22.2761C33.6967 20.5751 34.5344 18.6547 36.2355 17.9871C36.9289 17.7149 37.6586 17.6928 38.3252 17.8774Z" fill="#BF9BFF"/>
<path fill-rule="evenodd" clip-rule="evenodd" d="M38.3255 17.8776C39.2942 18.1458 40.1292 18.8506 40.5247 19.8583C40.9203 20.8659 40.7876 21.9505 40.2601 22.8061C40.9266 22.9907 41.6564 22.9687 42.3497 22.6965C44.0508 22.0288 44.8885 20.1085 44.2208 18.4074C43.5531 16.7064 41.6329 15.8687 39.9318 16.5364C39.2384 16.8086 38.6885 17.2888 38.3255 17.8776Z" fill="#BF9BFF"/>
<path fill-rule="evenodd" clip-rule="evenodd" d="M40.2599 22.806C40.7874 21.9505 40.9201 20.8658 40.5246 19.8582C40.129 18.8505 39.294 18.1458 38.3253 17.8775C37.7978 18.7331 37.6651 19.8177 38.0606 20.8254C38.4561 21.833 39.2912 22.5377 40.2599 22.806Z" fill="#FF5900"/>
<path d="M45.6202 30.792L45.6202 30.792L45.6184 30.7974C45.2336 31.9525 44.1396 32.786 42.8509 32.786H6.9518C5.33813 32.786 4.02942 31.4788 4.02942 29.866V10.4812C4.02942 9.19491 4.86204 8.10047 6.01868 7.71346L6.01868 7.71347L6.02249 7.71217C6.31412 7.61197 6.62464 7.55885 6.9518 7.55885L42.8509 7.55885L42.8511 7.55885C44.4648 7.55819 45.7733 8.86713 45.7733 10.4805V29.8652C45.7733 30.1912 45.72 30.5036 45.6202 30.792Z" fill="url(#paint1_linear_875_87)" stroke="#BF9BFF"/>
<path d="M14.4512 20.5533H7.63673C7.29865 20.5533 7.02493 20.2796 7.02493 19.9415V14.0005C7.02493 13.6623 7.29865 13.3887 7.63673 13.3887H14.4512C14.7893 13.3887 15.063 13.6623 15.063 14.0005V19.9415C15.063 20.2796 14.7893 20.5533 14.4512 20.5533Z" fill="#FF5900"/>
<path d="M10.6111 27.0589H7.62422C7.31198 27.0589 7.05884 26.6637 7.05884 26.1765C7.05884 25.6892 7.31198 25.2941 7.62422 25.2941H10.6111C10.9233 25.2941 11.1765 25.6892 11.1765 26.1765C11.1761 26.6637 10.9233 27.0589 10.6111 27.0589Z" fill="#FF5900"/>
<path d="M15.9051 27.0589H12.9183C12.6061 27.0589 12.3529 26.6637 12.3529 26.1765C12.3529 25.6892 12.6061 25.2941 12.9183 25.2941H15.9051C16.2174 25.2941 16.4705 25.6892 16.4705 26.1765C16.4705 26.6637 16.2174 27.0589 15.9051 27.0589Z" fill="#FF5900"/>
<path d="M21.7875 27.0589H18.8006C18.4884 27.0589 18.2352 26.6637 18.2352 26.1765C18.2352 25.6892 18.4884 25.2941 18.8006 25.2941H21.7875C22.0997 25.2941 22.3529 25.6892 22.3529 26.1765C22.3529 26.6637 22.0997 27.0589 21.7875 27.0589Z" fill="#FF5900"/>
<path d="M27.0816 27.0589H24.0949C23.7826 27.0589 23.5294 26.6637 23.5294 26.1765C23.5294 25.6892 23.7826 25.2941 24.0949 25.2941H27.0816C27.3939 25.2941 27.6471 25.6892 27.6471 26.1765C27.6466 26.6637 27.3939 27.0589 27.0816 27.0589Z" fill="#FF5900"/>
<path fill-rule="evenodd" clip-rule="evenodd" d="M13.6786 15.3912H15.0638V15.1758H13.6786C13.4345 15.1758 13.2351 15.3753 13.2351 15.6209V16.8628H12.3806V16.0856C12.3806 15.8377 12.1789 15.6368 11.9317 15.6368H11.1524V13.3881H10.937V15.6368H10.1774C9.93025 15.6368 9.72852 15.8385 9.72852 16.0856V16.8628H8.85365V15.6209C8.85365 15.3753 8.655 15.1758 8.41012 15.1758H7.02493V15.3912H8.41012C8.53596 15.3912 8.63827 15.4943 8.63827 15.6217V18.3215C8.63827 18.4488 8.53596 18.5519 8.41012 18.5519H7.02493V18.7673H8.41012C8.65423 18.7673 8.85365 18.5679 8.85365 18.3222V17.0796H9.72852V17.8567C9.72852 18.1047 9.93025 18.3063 10.1774 18.3063H10.937V20.5551H11.1524V18.3063H11.9317C12.1789 18.3063 12.3806 18.1047 12.3806 17.8567V17.0796H13.2351V18.3222C13.2351 18.5679 13.4337 18.7673 13.6786 18.7673H15.0638V18.5519H13.6786C13.5527 18.5519 13.4503 18.4488 13.4503 18.3215V15.6217C13.4503 15.4951 13.5527 15.3912 13.6786 15.3912ZM12.1653 17.856C12.1653 17.9848 12.0606 18.0903 11.931 18.0903H10.1766C10.0477 18.0903 9.9423 17.9848 9.9423 17.856V16.0872C9.9423 15.9583 10.047 15.8529 10.1766 15.8529H11.931C12.0599 15.8529 12.1653 15.9583 12.1653 16.0872V17.856Z" fill="white" stroke="white" stroke-width="0.1"/>
<path fill-rule="evenodd" clip-rule="evenodd" d="M3.52942 10.4812V10.5883H46.2733V10.4805C46.2733 8.59109 44.741 7.05808 42.8509 7.05885H6.9518C6.56968 7.05885 6.20425 7.12103 5.86002 7.2393C4.50518 7.69263 3.52942 8.97398 3.52942 10.4812Z" fill="#FF5900"/>
<path d="M36.2501 22.7794C36.6612 22.7794 37.0512 22.8675 37.4026 23.0259C36.7875 23.7021 36.4118 24.6013 36.4118 25.5883C36.4118 26.5752 36.7875 27.4744 37.4026 28.1506C37.0512 28.309 36.6612 28.3971 36.2501 28.3971C34.6988 28.3971 33.4412 27.1395 33.4412 25.5883C33.4412 24.037 34.6988 22.7794 36.2501 22.7794Z" stroke="#BF9BFF"/>
<path d="M40.0588 25.5883C40.0588 24.6013 39.6831 23.7021 39.068 23.0259C39.4195 22.8675 39.8094 22.7794 40.2206 22.7794C41.7719 22.7794 43.0294 24.037 43.0294 25.5883C43.0294 27.1395 41.7719 28.3971 40.2206 28.3971C39.8094 28.3971 39.4195 28.309 39.068 28.1506C39.6831 27.4744 40.0588 26.5752 40.0588 25.5883Z" stroke="#BF9BFF"/>
<path fill-rule="evenodd" clip-rule="evenodd" d="M38.2354 28.2355C39.0391 27.6318 39.5589 26.6707 39.5589 25.5882C39.5589 24.5056 39.0391 23.5446 38.2354 22.9409C37.4317 23.5446 36.9119 24.5056 36.9119 25.5882C36.9119 26.6707 37.4317 27.6318 38.2354 28.2355Z" fill="#FF5900"/>
</g>
<defs>
<linearGradient id="paint0_linear_875_87" x1="0.900502" y1="53.1904" x2="45.0185" y2="-33.0332" gradientUnits="userSpaceOnUse">
<stop stop-color="#CDE1FF"/>
<stop offset="0.501376" stop-color="#BF9BFF"/>
<stop offset="1" stop-color="#6E1DFF"/>
</linearGradient>
<linearGradient id="paint1_linear_875_87" x1="44.1177" y1="8.23532" x2="10.3218" y2="61.574" gradientUnits="userSpaceOnUse">
<stop stop-color="white"/>
<stop offset="0.501376" stop-color="white"/>
<stop offset="1" stop-color="white"/>
</linearGradient>
</defs>
</svg>
