<svg width="36" height="36" viewBox="0 0 36 36" fill="none" xmlns="http://www.w3.org/2000/svg">
<rect x="1.25391" y="8.46875" width="31.3438" height="24.875" rx="1.5" stroke="#C8D0DB"/>
<path d="M10.1016 8.6875L21.1353 1.79144C21.3853 1.63516 21.7156 1.72809 21.8475 1.99183L23.0391 4.375" stroke="#C8D0DB"/>
<path d="M14.4141 8.6875L26.1422 3.1684C26.4065 3.04402 26.7207 3.17174 26.8232 3.44525L28.7891 8.6875" stroke="#C8D0DB"/>
<mask id="path-4-inside-1_3285_7404" fill="white">
<path d="M20.8828 18.5938C20.8828 17.4892 21.7782 16.5938 22.8828 16.5938H34.7578C35.034 16.5938 35.2578 16.8176 35.2578 17.0938V24.7188C35.2578 24.9949 35.034 25.2188 34.7578 25.2188H22.8828C21.7782 25.2188 20.8828 24.3233 20.8828 23.2188V18.5938Z"/>
</mask>
<path d="M20.8828 18.5938C20.8828 17.4892 21.7782 16.5938 22.8828 16.5938H34.7578C35.034 16.5938 35.2578 16.8176 35.2578 17.0938V24.7188C35.2578 24.9949 35.034 25.2188 34.7578 25.2188H22.8828C21.7782 25.2188 20.8828 24.3233 20.8828 23.2188V18.5938Z" stroke="#C8D0DB" stroke-width="2" mask="url(#path-4-inside-1_3285_7404)"/>
<circle cx="25.5469" cy="20.8359" r="1.44687" stroke="#C8D0DB" stroke-width="0.7"/>
<rect x="23.4648" y="5.66797" width="2.875" height="1.4375" rx="0.3" fill="#C8D0DB"/>
<path d="M32.375 14.4375H34.2313C34.3969 14.4375 34.5312 14.5718 34.5312 14.7375V17.3125" stroke="#C8D0DB"/>
<path d="M11.1772 23.8267L11.3374 23.1011L12.3709 22.9481L12.1799 23.8267H11.1772Z" fill="#C8D0DB" stroke="#C8D0DB"/>
<path d="M16.7065 23.8137L17.0144 22.3093L18.0244 22.1897L17.6466 23.8137H16.7065Z" fill="#C8D0DB" stroke="#C8D0DB"/>
<mask id="path-10-inside-2_3285_7404" fill="white">
<path d="M5.08203 24.2532L7.26515 23.5156L7.10571 24.3146H5.08203V24.2532Z"/>
</mask>
<path d="M5.08203 24.2532L7.26515 23.5156L7.10571 24.3146H5.08203V24.2532Z" fill="#C8D0DB"/>
<path d="M5.08203 24.2532L4.76197 23.3058L4.08203 23.5355V24.2532H5.08203ZM7.26515 23.5156L8.24581 23.7113L8.58443 22.0144L6.94508 22.5682L7.26515 23.5156ZM7.10571 24.3146V25.3146H7.92587L8.08637 24.5103L7.10571 24.3146ZM5.08203 24.3146H4.08203V25.3146H5.08203V24.3146ZM5.4021 25.2006L7.58521 24.463L6.94508 22.5682L4.76197 23.3058L5.4021 25.2006ZM6.28448 23.3199L6.12504 24.1189L8.08637 24.5103L8.24581 23.7113L6.28448 23.3199ZM7.10571 23.3146H5.08203V25.3146H7.10571V23.3146ZM6.08203 24.3146V24.2532H4.08203V24.3146H6.08203Z" fill="#C8D0DB" mask="url(#path-10-inside-2_3285_7404)"/>
<mask id="mask0_3285_7404" style="mask-type:luminance" maskUnits="userSpaceOnUse" x="5" y="15" width="15" height="10">
<path d="M18.6637 21.633C17.9593 21.7076 17.2693 21.7858 16.5938 21.8678L17.2409 18.8251C17.3099 18.5251 17.3443 18.2539 17.3443 18.0117C17.3443 17.147 16.8216 16.7147 15.7761 16.7147H14.2066L13.0046 22.3598C12.2778 22.4735 11.5799 22.5928 10.9109 22.7176L12.1883 16.7147H9.22249C8.86655 16.7147 8.65411 16.8875 8.58516 17.2332L7.24899 23.5521C6.42576 23.784 5.69618 24.0328 5.07422 24.297L6.68852 16.7147C6.80313 16.1724 6.99834 15.7768 7.27415 15.528C7.54995 15.2802 7.9809 15.1562 8.56699 15.1562H16.3101C17.2642 15.1562 18.0259 15.3468 18.5952 15.7279C19.1645 16.1081 19.4492 16.6965 19.4492 17.4932C19.4492 17.8277 19.4259 18.0927 19.3793 18.2884L18.6637 21.633Z" fill="white"/>
<path d="M18.6637 21.633C17.9593 21.7076 17.2693 21.7858 16.5938 21.8678L17.2409 18.8251C17.3099 18.5251 17.3443 18.2539 17.3443 18.0117C17.3443 17.147 16.8216 16.7147 15.7761 16.7147H14.2066L13.0046 22.3598C12.2778 22.4735 11.5799 22.5928 10.9109 22.7176L12.1883 16.7147H9.22249C8.86655 16.7147 8.65411 16.8875 8.58516 17.2332L7.24899 23.5521C6.42576 23.784 5.69618 24.0328 5.07422 24.297L6.68852 16.7147C6.80313 16.1724 6.99834 15.7768 7.27415 15.528C7.54995 15.2802 7.9809 15.1562 8.56699 15.1562H16.3101C17.2642 15.1562 18.0259 15.3468 18.5952 15.7279C19.1645 16.1081 19.4492 16.6965 19.4492 17.4932C19.4492 17.8277 19.4259 18.0927 19.3793 18.2884L18.6637 21.633Z" stroke="white"/>
</mask>
<g mask="url(#mask0_3285_7404)">
<path d="M65.9035 30.486H2.98047V12.9453H65.9035V30.486Z" fill="#C8D0DB"/>
<path d="M65.9035 30.486H2.98047V12.9453H65.9035V30.486Z" stroke="#C8D0DB"/>
</g>
</svg>
