<svg width="48" height="48" viewBox="0 0 48 48" fill="none" xmlns="http://www.w3.org/2000/svg">
<g clip-path="url(#clip0_2191_273)">
<path d="M24 48C37.2548 48 48 37.2548 48 24C48 10.7452 37.2548 0 24 0C10.7452 0 0 10.7452 0 24C0 37.2548 10.7452 48 24 48Z" fill="white"/>
<path d="M24.2973 14C22.2377 14 20.5473 15.6905 20.5473 17.75V18.5H16.8438L16.7973 19.2035L16.0473 32.7035L16 33.5H32.5938L32.5473 32.7028L31.7973 19.2028L31.75 18.5H28.0473V17.75C28.0473 15.6905 26.3568 14 24.2973 14ZM24.2973 15.5C24.894 15.5 25.4663 15.737 25.8883 16.159C26.3102 16.581 26.5473 17.1533 26.5473 17.75V18.5H22.0472V17.75C22.0472 17.1533 22.2843 16.581 22.7063 16.159C23.1282 15.737 23.7005 15.5 24.2973 15.5ZM18.25 20H20.5473V22.25H22.0472V20H26.5473V22.25H28.0473V20H30.3445L31.0008 32H17.5945L18.25 20Z" fill="#20336B"/>
</g>
<defs>
<clipPath id="clip0_2191_273">
<rect width="48" height="48" fill="white"/>
</clipPath>
</defs>
</svg>
