<svg width="49" height="48" viewBox="0 0 49 48" fill="none" xmlns="http://www.w3.org/2000/svg">
<rect x="1" y="0.5" width="47" height="47" rx="23.5" stroke="white"/>
<g clip-path="url(#clip0_2035_13952)">
<path d="M25 34.75C30.9371 34.75 35.75 29.9371 35.75 24C35.75 18.0629 30.9371 13.25 25 13.25C19.0629 13.25 14.25 18.0629 14.25 24C14.25 29.9371 19.0629 34.75 25 34.75Z" stroke="white" stroke-linecap="round" stroke-linejoin="round"/>
<path d="M19.1919 14.957V18.194M19.1919 27.754V33.0515M24.9979 31.3775C25.7404 31.3775 31.6989 28.88 31.6989 25.4085V18.432L24.9979 16.637L18.2969 18.432V25.4085C18.2969 28.88 24.2554 31.3775 24.9979 31.3775Z" stroke="white" stroke-linecap="round" stroke-linejoin="round"/>
<path d="M23.0471 22.2669V21.3254C23.0471 21.0726 23.0969 20.8223 23.1937 20.5887C23.2904 20.3552 23.4322 20.143 23.6109 19.9642C23.7897 19.7855 24.0019 19.6437 24.2355 19.5469C24.469 19.4502 24.7193 19.4004 24.9721 19.4004C25.2249 19.4004 25.4752 19.4502 25.7088 19.5469C25.9423 19.6437 26.1546 19.7855 26.3333 19.9642C26.5121 20.143 26.6539 20.3552 26.7506 20.5887C26.8473 20.8223 26.8971 21.0726 26.8971 21.3254V22.2669M21.8926 22.2669H28.1576V26.9684C28.1506 27.2214 27.9806 27.3899 27.7366 27.3899H22.3506C22.0646 27.3899 21.8281 27.1179 21.8281 26.8674L21.8926 22.2669Z" stroke="white" stroke-linecap="round" stroke-linejoin="round"/>
<path d="M25.0007 25.1869C25.4541 25.1869 25.8217 24.8193 25.8217 24.3659C25.8217 23.9125 25.4541 23.5449 25.0007 23.5449C24.5473 23.5449 24.1797 23.9125 24.1797 24.3659C24.1797 24.8193 24.5473 25.1869 25.0007 25.1869Z" stroke="white" stroke-linecap="round" stroke-linejoin="round"/>
<path d="M25 25.1875V26.1115" stroke="white" stroke-linecap="round" stroke-linejoin="round"/>
</g>
<defs>
<clipPath id="clip0_2035_13952">
<rect width="24" height="24" fill="white" transform="translate(13 12)"/>
</clipPath>
</defs>
</svg>
