<svg width="48" height="48" viewBox="0 0 48 48" fill="none" xmlns="http://www.w3.org/2000/svg">
<rect width="48" height="48" rx="24" fill="white"/>
<path d="M28.8812 23.664C29.2822 23.669 29.6792 23.594 30.0502 23.442C30.4212 23.291 30.7582 23.067 31.0412 22.784L33.8712 19.954C34.0582 19.767 34.1622 19.513 34.1622 19.249C34.1622 18.985 34.0582 18.731 33.8712 18.544C33.7782 18.45 33.6682 18.376 33.5462 18.325C33.4242 18.274 33.2932 18.248 33.1612 18.248C33.0292 18.248 32.8992 18.274 32.7772 18.325C32.6552 18.376 32.5442 18.45 32.4512 18.544L29.5912 21.364C29.4982 21.458 29.3882 21.532 29.2662 21.583C29.1442 21.634 29.0132 21.66 28.8812 21.66C28.7492 21.66 28.6192 21.634 28.4972 21.583C28.3752 21.532 28.2642 21.458 28.1712 21.364L31.7112 17.834C31.8052 17.741 31.8792 17.63 31.9292 17.508C31.9802 17.386 32.0062 17.256 32.0062 17.124C32.0062 16.992 31.9802 16.861 31.9292 16.74C31.8792 16.618 31.8052 16.507 31.7112 16.414C31.6182 16.321 31.5082 16.247 31.3862 16.196C31.2642 16.146 31.1332 16.12 31.0012 16.12C30.8702 16.12 30.7392 16.146 30.6172 16.196C30.4952 16.247 30.3852 16.321 30.2912 16.414L26.7612 19.954C26.5752 19.767 26.4712 19.513 26.4712 19.249C26.4712 18.985 26.5752 18.731 26.7612 18.544L29.5912 15.714C29.6852 15.621 29.7592 15.51 29.8092 15.388C29.8602 15.266 29.8862 15.136 29.8862 15.004C29.8862 14.872 29.8602 14.741 29.8092 14.62C29.7592 14.498 29.6852 14.387 29.5912 14.294C29.4982 14.201 29.3882 14.127 29.2662 14.076C29.1442 14.026 29.0132 14 28.8812 14C28.7502 14 28.6192 14.026 28.4972 14.076C28.3752 14.127 28.2652 14.201 28.1712 14.294L25.3412 17.124C24.7802 17.686 24.4642 18.449 24.4642 19.244C24.4642 20.039 24.7802 20.801 25.3412 21.364L24.0412 22.654L15.7712 14.354L15.6712 14.294C15.6202 14.249 15.5632 14.212 15.5012 14.184L15.3212 14.114L15.2012 14.034H14.9312C14.8722 14.024 14.8112 14.024 14.7512 14.034C14.6912 14.056 14.6342 14.086 14.5812 14.124L14.4212 14.224H14.3512L14.2912 14.324C14.2492 14.377 14.2122 14.434 14.1812 14.494C14.1522 14.555 14.1292 14.618 14.1112 14.684C14.1112 14.684 14.1112 14.754 14.1112 14.794C13.8692 16.485 14.0232 18.21 14.5632 19.831C15.1032 21.452 16.0132 22.926 17.2212 24.134L19.8612 26.764L14.4512 32.164C14.3582 32.257 14.2832 32.367 14.2332 32.489C14.1822 32.611 14.1562 32.742 14.1562 32.874C14.1562 33.006 14.1822 33.137 14.2332 33.258C14.2832 33.38 14.3582 33.491 14.4512 33.584C14.5452 33.677 14.6562 33.75 14.7782 33.8C14.8992 33.849 15.0302 33.875 15.1612 33.874C15.2932 33.875 15.4232 33.849 15.5452 33.8C15.6672 33.75 15.7782 33.677 15.8712 33.584L21.9412 27.604L24.7712 24.774L26.7712 22.774C27.3292 23.338 28.0882 23.658 28.8812 23.664ZM21.2312 25.484L18.6012 22.844C17.1602 21.383 16.2572 19.475 16.0412 17.434L22.6512 24.034L21.2312 25.484ZM27.4712 26.054C27.2832 25.864 27.0272 25.757 26.7602 25.756C26.4932 25.755 26.2362 25.861 26.0462 26.049C25.8572 26.237 25.7502 26.493 25.7492 26.76C25.7482 27.028 25.8532 27.284 26.0412 27.474L32.3412 33.774C32.5322 33.948 32.7832 34.041 33.0412 34.034C33.1732 34.035 33.3032 34.009 33.4252 33.96C33.5472 33.91 33.6582 33.837 33.7512 33.744C33.8452 33.651 33.9202 33.54 33.9702 33.418C34.0212 33.297 34.0472 33.166 34.0472 33.034C34.0472 32.902 34.0212 32.771 33.9702 32.649C33.9202 32.527 33.8452 32.417 33.7512 32.324L27.4712 26.054Z" fill="#20336B"/>
</svg>
