<svg width="38" height="42" viewBox="0 0 38 42" fill="none" xmlns="http://www.w3.org/2000/svg">
<path fill-rule="evenodd" clip-rule="evenodd" d="M4.11822 1H22.4117C24.1312 1 25.53 2.31422 25.53 3.92969V8H24.2827V6.85938H2.24729V32.7969H4.11822C4.28362 32.7969 4.44224 32.8586 4.5592 32.9685C4.67615 33.0784 4.74186 33.2274 4.74186 33.3828C4.74186 33.5382 4.67615 33.6872 4.5592 33.7971C4.44224 33.907 4.28362 33.9688 4.11822 33.9688H2.24729V38.0703C2.24729 39.0396 3.08654 39.8281 4.11822 39.8281H17.5224V41H4.11822C2.39879 41 1 39.6858 1 38.0703V3.92969C1 2.31422 2.39879 1 4.11822 1ZM17.5224 33.9688V32.7969H6.61279C6.44739 32.7969 6.28876 32.8586 6.17181 32.9685C6.05485 33.0784 5.98914 33.2274 5.98914 33.3828C5.98914 33.5382 6.05485 33.6872 6.17181 33.7971C6.28876 33.907 6.44739 33.9688 6.61279 33.9688H17.5224ZM2.24729 5.6875H24.2827V3.92969C24.2827 2.96039 23.4434 2.17188 22.4117 2.17188H4.11822C3.08654 2.17188 2.24729 2.96039 2.24729 3.92969V5.6875Z" fill="#C8D0DB"/>
<path d="M25.53 8V8.2H25.73V8H25.53ZM24.2827 8H24.0827V8.2H24.2827V8ZM24.2827 6.85938H24.4827V6.65938H24.2827V6.85938ZM2.24729 6.85938V6.65938H2.04729V6.85938H2.24729ZM2.24729 32.7969H2.04729V32.9969H2.24729V32.7969ZM4.5592 32.9685L4.69614 32.8227L4.69614 32.8227L4.5592 32.9685ZM4.5592 33.7971L4.69614 33.9429H4.69614L4.5592 33.7971ZM2.24729 33.9688V33.7687H2.04729V33.9688H2.24729ZM17.5224 39.8281H17.7224V39.6281H17.5224V39.8281ZM17.5224 41V41.2H17.7224V41H17.5224ZM17.5224 33.9688V34.1688H17.7224V33.9688H17.5224ZM17.5224 32.7969H17.7224V32.5969H17.5224V32.7969ZM6.17181 32.9685L6.03486 32.8227L6.03486 32.8227L6.17181 32.9685ZM6.17181 33.7971L6.03486 33.9429H6.03486L6.17181 33.7971ZM24.2827 5.6875V5.8875H24.4827V5.6875H24.2827ZM2.24729 5.6875H2.04729V5.8875H2.24729V5.6875ZM22.4117 0.8H4.11822V1.2H22.4117V0.8ZM25.73 3.92969C25.73 2.19219 24.2297 0.8 22.4117 0.8V1.2C24.0326 1.2 25.33 2.43624 25.33 3.92969H25.73ZM25.73 8V3.92969H25.33V8H25.73ZM24.2827 8.2H25.53V7.8H24.2827V8.2ZM24.0827 6.85938V8H24.4827V6.85938H24.0827ZM2.24729 7.05937H24.2827V6.65938H2.24729V7.05937ZM2.44729 32.7969V6.85938H2.04729V32.7969H2.44729ZM4.11822 32.5969H2.24729V32.9969H4.11822V32.5969ZM4.69614 32.8227C4.54086 32.6768 4.33277 32.5969 4.11822 32.5969V32.9969C4.23446 32.9969 4.34362 33.0404 4.42225 33.1143L4.69614 32.8227ZM4.94186 33.3828C4.94186 33.1702 4.85185 32.969 4.69614 32.8227L4.42225 33.1143C4.50046 33.1877 4.54186 33.2846 4.54186 33.3828H4.94186ZM4.69614 33.9429C4.85185 33.7966 4.94186 33.5954 4.94186 33.3828H4.54186C4.54186 33.481 4.50046 33.5779 4.42225 33.6514L4.69614 33.9429ZM4.11822 34.1688C4.33277 34.1688 4.54086 34.0888 4.69614 33.9429L4.42225 33.6514C4.34362 33.7252 4.23446 33.7687 4.11822 33.7687V34.1688ZM2.24729 34.1688H4.11822V33.7687H2.24729V34.1688ZM2.44729 38.0703V33.9688H2.04729V38.0703H2.44729ZM4.11822 39.6281C3.18507 39.6281 2.44729 38.9176 2.44729 38.0703H2.04729C2.04729 39.1616 2.98802 40.0281 4.11822 40.0281V39.6281ZM17.5224 39.6281H4.11822V40.0281H17.5224V39.6281ZM17.7224 41V39.8281H17.3224V41H17.7224ZM4.11822 41.2H17.5224V40.8H4.11822V41.2ZM0.8 38.0703C0.8 39.8078 2.30027 41.2 4.11822 41.2V40.8C2.49731 40.8 1.2 39.5638 1.2 38.0703H0.8ZM0.8 3.92969V38.0703H1.2V3.92969H0.8ZM4.11822 0.8C2.30027 0.8 0.8 2.19219 0.8 3.92969H1.2C1.2 2.43624 2.49731 1.2 4.11822 1.2V0.8ZM17.7224 33.9688V32.7969H17.3224V33.9688H17.7224ZM17.5224 32.5969H6.61279V32.9969H17.5224V32.5969ZM6.61279 32.5969C6.39823 32.5969 6.19014 32.6768 6.03486 32.8227L6.30875 33.1143C6.38738 33.0404 6.49654 32.9969 6.61279 32.9969V32.5969ZM6.03486 32.8227C5.87915 32.969 5.78914 33.1702 5.78914 33.3828H6.18914C6.18914 33.2846 6.23055 33.1877 6.30875 33.1143L6.03486 32.8227ZM5.78914 33.3828C5.78914 33.5954 5.87915 33.7966 6.03486 33.9429L6.30875 33.6514C6.23055 33.5779 6.18914 33.481 6.18914 33.3828H5.78914ZM6.03486 33.9429C6.19014 34.0888 6.39823 34.1688 6.61279 34.1688V33.7687C6.49655 33.7687 6.38738 33.7252 6.30875 33.6514L6.03486 33.9429ZM6.61279 34.1688H17.5224V33.7687H6.61279V34.1688ZM24.2827 5.4875H2.24729V5.8875H24.2827V5.4875ZM24.0827 3.92969V5.6875H24.4827V3.92969H24.0827ZM22.4117 2.37188C23.3449 2.37188 24.0827 3.08241 24.0827 3.92969H24.4827C24.4827 2.83837 23.5419 1.97188 22.4117 1.97188V2.37188ZM4.11822 2.37188H22.4117V1.97188H4.11822V2.37188ZM2.44729 3.92969C2.44729 3.08241 3.18507 2.37188 4.11822 2.37188V1.97188C2.98802 1.97188 2.04729 2.83837 2.04729 3.92969H2.44729ZM2.44729 5.6875V3.92969H2.04729V5.6875H2.44729Z" fill="#C8D0DB"/>
<path d="M15.7595 3.34375H13.265C13.0996 3.34375 12.9409 3.40548 12.824 3.51537C12.707 3.62525 12.6413 3.77429 12.6413 3.92969C12.6413 4.08509 12.707 4.23412 12.824 4.34401C12.9409 4.45389 13.0996 4.51562 13.265 4.51562H15.7595C15.9249 4.51562 16.0836 4.45389 16.2005 4.34401C16.3175 4.23412 16.3832 4.08509 16.3832 3.92969C16.3832 3.77429 16.3175 3.62525 16.2005 3.51537C16.0836 3.40548 15.9249 3.34375 15.7595 3.34375ZM13.265 35.1406C12.2333 35.1406 11.394 35.9291 11.394 36.8984C11.394 37.8677 12.2333 38.6562 13.265 38.6562C14.2966 38.6562 15.1359 37.8677 15.1359 36.8984C15.1359 35.9291 14.2966 35.1406 13.265 35.1406ZM13.265 37.4844C12.9211 37.4844 12.6413 37.2216 12.6413 36.8984C12.6413 36.5753 12.9211 36.3125 13.265 36.3125C13.6089 36.3125 13.8886 36.5753 13.8886 36.8984C13.8886 37.2216 13.6089 37.4844 13.265 37.4844Z" fill="#C8D0DB"/>
<path d="M10.7704 4.51562C11.1148 4.51562 11.394 4.25329 11.394 3.92969C11.394 3.60608 11.1148 3.34375 10.7704 3.34375C10.426 3.34375 10.1468 3.60608 10.1468 3.92969C10.1468 4.25329 10.426 4.51562 10.7704 4.51562Z" fill="#C8D0DB"/>
<path d="M34.3887 8H19.0693C17.6294 8 16.458 9.10056 16.458 10.4534V39.0436C16.458 40.3964 17.6294 41.497 19.0693 41.497H34.3887C35.8286 41.497 37 40.3964 37 39.0436V10.4534C37 9.10056 35.8286 8 34.3887 8ZM35.9555 34.6275H21.1583C21.0198 34.6275 20.887 34.6792 20.789 34.7712C20.6911 34.8632 20.6361 34.988 20.6361 35.1182C20.6361 35.2483 20.6911 35.3731 20.789 35.4651C20.887 35.5571 21.0198 35.6088 21.1583 35.6088H35.9555V39.0436C35.9555 39.8553 35.2527 40.5156 34.3887 40.5156H19.0693C18.2054 40.5156 17.5025 39.8553 17.5025 39.0436V35.6088H19.0693C19.2078 35.6088 19.3407 35.5571 19.4386 35.4651C19.5365 35.3731 19.5916 35.2483 19.5916 35.1182C19.5916 34.988 19.5365 34.8632 19.4386 34.7712C19.3407 34.6792 19.2078 34.6275 19.0693 34.6275H17.5025V12.9068H35.9555V34.6275ZM35.9555 11.9254H17.5025V10.4534C17.5025 9.64168 18.2054 8.98136 19.0693 8.98136H34.3887C35.2527 8.98136 35.9555 9.64168 35.9555 10.4534V11.9254Z" fill="#C8D0DB" stroke="#C8D0DB" stroke-width="0.5"/>
<path d="M28.818 9.96268H26.729C26.5905 9.96268 26.4576 10.0144 26.3597 10.1064C26.2617 10.1984 26.2067 10.3232 26.2067 10.4534C26.2067 10.5835 26.2617 10.7083 26.3597 10.8003C26.4576 10.8923 26.5905 10.944 26.729 10.944H28.818C28.9565 10.944 29.0893 10.8923 29.1873 10.8003C29.2852 10.7083 29.3402 10.5835 29.3402 10.4534C29.3402 10.3232 29.2852 10.1984 29.1873 10.1064C29.0893 10.0144 28.9565 9.96268 28.818 9.96268ZM26.729 36.5902C25.865 36.5902 25.1622 37.2505 25.1622 38.0622C25.1622 38.8739 25.865 39.5342 26.729 39.5342C27.5929 39.5342 28.2957 38.8739 28.2957 38.0622C28.2957 37.2505 27.5929 36.5902 26.729 36.5902ZM26.729 38.5529C26.441 38.5529 26.2067 38.3328 26.2067 38.0622C26.2067 37.7916 26.441 37.5715 26.729 37.5715C27.017 37.5715 27.2512 37.7916 27.2512 38.0622C27.2512 38.3328 27.017 38.5529 26.729 38.5529Z" fill="#C8D0DB" stroke="#C8D0DB" stroke-width="0.5"/>
<path d="M24.64 10.944C24.9284 10.944 25.1622 10.7243 25.1622 10.4534C25.1622 10.1824 24.9284 9.96268 24.64 9.96268C24.3516 9.96268 24.1177 10.1824 24.1177 10.4534C24.1177 10.7243 24.3516 10.944 24.64 10.944Z" fill="#C8D0DB" stroke="#C8D0DB" stroke-width="0.5"/>
</svg>
