<svg width="65" height="35" viewBox="0 0 65 35" fill="none" xmlns="http://www.w3.org/2000/svg">
<path d="M50.4947 5.51392L33.2456 17.749H50.4947H54.8537" stroke="#C8D0DB" stroke-miterlimit="10" stroke-linecap="round" stroke-linejoin="round"/>
<path d="M33.2456 17.7482L50.4947 30.5804" stroke="#C8D0DB" stroke-miterlimit="10" stroke-linecap="round" stroke-linejoin="round"/>
<path d="M55.1052 3.8872L55.1048 3.88754C54.9752 4.00258 54.8866 4.18548 54.8866 4.47414V4.47717V4.48019V4.48321V4.48623V4.48925V4.49228V4.4953V4.49832V4.50134V4.50436V4.50739V4.51041V4.51343V4.51645V4.51947V4.5225V4.52552V4.52854V4.53156V4.53458V4.53761V4.54063V4.54365V4.54667V4.54969V4.55272V4.55574V4.55876V4.56178V4.5648V4.56783V4.57085V4.57387V4.57689V4.57991V4.58294V4.58596V4.58898V4.592V4.59502V4.59805V4.60107V4.60409V4.60711V4.61013V4.61316V4.61618V4.6192V4.62222V4.62524V4.62826V4.63129V4.63431V4.63733V4.64035V4.64337V4.6464V4.64942V4.65244V4.65546V4.65848V4.66151V4.66453V4.66755V4.67057V4.67359V4.67662V4.67964V4.68266V4.68568V4.6887V4.69173V4.69475V4.69777V4.70079V4.70381V4.70684V4.70986V4.71288V4.7159V4.71892V4.72195V4.72497V4.72799V4.73101V4.73403V4.73706V4.74008V4.7431V4.74612V4.74914V4.75217V4.75519V4.75821V4.76123V4.76425V4.76728V4.7703V4.77332V4.77634V4.77936V4.78239V4.78541V4.78843V4.79145V4.79447V4.7975V4.80052V4.80354V4.80656V4.80958V4.81261V4.81563V4.81865V4.82167V4.82469V4.82772V4.83074V4.83376V4.83678V4.8398V4.84283V4.84585V4.84887V4.85189V4.85491V4.85794V4.86096V4.86398V4.867V4.87002V4.87305V4.87607V4.87909V4.88211V4.88513V4.88815V4.89118V4.8942V4.89722V4.90024V4.90326V4.90629V4.90931V4.91233V4.91535V4.91837V4.9214V4.92442V4.92744V4.93046V4.93348V4.93651V4.93953V4.94255V4.94557V4.94859V4.95162V4.95464V4.95766V4.96068V4.9637V4.96673V4.96975V4.97277V4.97579V4.97881V4.98184V4.98486V4.98788V4.9909V4.99392V4.99695V4.99997V5.00299V5.00601V5.00903V5.01206V5.01508V5.0181V5.02112V5.02414V5.02717V5.03019V5.03321V5.03623V5.03925V5.04228V5.0453V5.04832V5.05134V5.05436V5.05739V5.06041V5.06343V5.06645V5.06947V5.0725V5.07552V5.07854V5.08156V5.08458V5.08761V5.09063V5.09365V5.09667V5.09969V5.10272V5.10574V5.10876V5.11178V5.1148V5.11783V5.12085V5.12387V5.12689V5.12991V5.13294V5.13596V5.13898V5.142V5.14502V5.14804V5.15107V5.15409V5.15711V5.16013V5.16315V5.16618V5.1692V5.17222V5.17524V5.17826V5.18129V5.18431V5.18733V5.19035V5.19337V5.1964V5.19942V5.20244V5.20546V5.20848V5.21151V5.21453V5.21755V5.22057V5.22359V5.22662V5.22964V5.23266V5.23568V5.2387V5.24173V5.24475V5.24777V5.25079V5.25381V5.25684V5.25986V5.26288V5.2659V5.26892V5.27195V5.27497V5.27799V5.28101V5.28403V5.28706V5.29008V5.2931V5.29612V5.29914V5.30217V5.30519V5.30821V5.31123V5.31425V5.31728V5.3203V5.32332V5.32634V5.32936V5.33239V5.33541V5.33843V5.34145V5.34447V5.3475V5.35052V5.35354V5.35656V5.35958V5.36261V5.36563V5.36865V5.37167V5.37469V5.37771V5.38074V5.38376V5.38678V5.3898V5.39282V5.39585V5.39887V5.40189V5.40491V5.40793V5.41096V5.41398V5.417V5.42002V5.42304V5.42607V5.42909V5.43211V5.43513V5.43815V5.44118V5.4442V5.44722V5.45024V5.45326V5.45629V5.45931V5.46233V5.46535V5.46837V5.4714V5.47442V5.47744V5.48046V5.48348V5.48651V5.48953V5.49255V5.49557V5.49859V5.50162V5.50464V5.50766V5.51068V5.5137V5.51673V5.51975V5.52277V5.52579V5.52881V5.53184V5.53486V5.53788V5.5409V5.54392V5.54695V5.54997V5.55299V5.55601V5.55903V5.56206V5.56508V5.5681V5.57112V5.57414V5.57717V5.58019V5.58321V5.58623V5.58925V5.59228V5.5953V5.59832V5.60134V5.60436V5.60739V5.61041V5.61343V5.61645V5.61947V5.62249V5.62552V5.62854V5.63156V5.63458V5.6376V5.64063V5.64365V5.64667V5.64969V5.65271V5.65574V5.65876V5.66178V5.6648V5.66782V5.67085V5.67387V5.67689V5.67991V5.68293V5.68596V5.68898V5.692V5.69502V5.69804V5.70107V5.70409V5.70711V5.71013V5.71315V5.71618V5.7192V5.72222V5.72524V5.72826V5.73129V5.73431V5.73733V5.74035V5.74337V5.7464V5.74942V5.75244V5.75546V5.75848V5.76151V5.76453V5.76755V5.77057V5.77359V5.77662V5.77964V5.78266V5.78568V5.7887V5.79173V5.79475V5.79777V5.80079V5.80381V5.80684V5.80986V5.81288V5.8159V5.81892V5.82195V5.82497V5.82799V5.83101V5.83403V5.83706V5.84008V5.8431V5.84612V5.84914V5.85217V5.85519V5.85821V5.86123V5.86425V5.86728V5.8703V5.87332V5.87634V5.87936V5.88238V5.88541V5.88843V5.89145V5.89447V5.89749V5.90052V5.90354V5.90656V5.90958V5.9126V5.91563V5.91865V5.92167V5.92469V5.92771V5.93074V5.93376V5.93678V5.9398V5.94282V5.94585V5.94887V5.95189V5.95491V5.95793V5.96096V5.96398V5.967V5.97002V5.97304V5.97607V5.97909V5.98211V5.98513V5.98815V5.99118V5.9942V5.99722V6.00024V6.00326V6.00629V6.00931V6.01233V6.01535V6.01837V6.0214C54.8866 6.20048 54.8877 6.38253 54.8888 6.56613C54.8908 6.89235 54.8928 7.22341 54.8887 7.55122L54.8887 7.55449C54.884 7.7794 54.9534 7.97169 55.0486 8.09744C55.1444 8.22408 55.2427 8.25897 55.3111 8.25648L55.3118 8.25645C55.5363 8.24866 55.76 8.24872 55.9798 8.2513C55.9772 7.68106 55.9775 7.11108 55.9793 6.54148L55.9793 6.54125C55.9819 5.87228 56.3258 5.20373 57.0066 5.07606L57.0069 5.07601C57.2517 5.03028 57.506 5.04307 57.7021 5.05294C57.7419 5.05494 57.7793 5.05682 57.8138 5.05807C57.9184 5.05969 58.0058 5.08898 58.0533 5.10628C58.6434 5.31099 58.935 5.92126 58.9376 6.54955L58.9376 6.5499C58.9394 7.11579 58.9397 7.68368 58.9384 8.25019C59.078 8.24968 59.2172 8.24997 59.3551 8.25026C59.4367 8.25044 59.5178 8.25061 59.5983 8.25061C59.7594 8.24901 60.0261 8.07302 60.0261 7.55464V7.54864V7.54265V7.53665V7.53066V7.52466V7.51867V7.51267V7.50668V7.50068V7.49469V7.48869V7.4827V7.47671V7.47071V7.46472V7.45872V7.45273V7.44673V7.44074V7.43474V7.42875V7.42275V7.41676V7.41076V7.40477V7.39877V7.39278V7.38678V7.38079V7.3748V7.3688V7.36281V7.35681V7.35082V7.34482V7.33883V7.33283V7.32684V7.32084V7.31485V7.30885V7.30286V7.29686V7.29087V7.28487V7.27888V7.27289V7.26689V7.2609V7.2549V7.24891V7.24291V7.23692V7.23092V7.22493V7.21893V7.21294V7.20694V7.20095V7.19495V7.18896V7.18297V7.17697V7.17098V7.16498V7.15899V7.15299V7.147V7.141V7.13501V7.12901V7.12302V7.11702V7.11103V7.10503V7.09904V7.09304V7.08705V7.08106V7.07506V7.06907V7.06307V7.05708V7.05108V7.04509V7.03909V7.0331V7.0271V7.02111V7.01511V7.00912V7.00312V6.99713V6.99114V6.98514V6.97915V6.97315V6.96716V6.96116V6.95517V6.94917V6.94318V6.93718V6.93119V6.92519V6.9192V6.9132V6.90721V6.90122V6.89522V6.88923V6.88323V6.87724V6.87124V6.86525V6.85925V6.85326V6.84726V6.84127V6.83527V6.82928V6.82328V6.81729V6.8113V6.8053V6.79931V6.79331V6.78732V6.78132V6.77533V6.76933V6.76334V6.75734V6.75135V6.74535V6.73936V6.73336V6.72737V6.72137V6.71538V6.70939V6.70339V6.6974V6.6914V6.68541V6.67941V6.67342V6.66742V6.66143V6.65543V6.64944V6.64344V6.63745V6.63145V6.62546V6.61946V6.61347V6.60748V6.60148V6.59549V6.58949V6.5835V6.5775V6.57151V6.56551V6.55952V6.55352V6.54753V6.54153V6.53554V6.52954V6.52355V6.51756V6.51156V6.50557V6.49957V6.49358V6.48758V6.48159V6.47559V6.4696V6.4636V6.45761V6.45161V6.44562V6.43962V6.43363V6.42764V6.42164V6.41565V6.40965V6.40366V6.39766V6.39167V6.38567V6.37968V6.37368V6.36769V6.36169V6.3557V6.3497V6.34371V6.33772V6.33172V6.32573V6.31973V6.31374V6.30774V6.30175V6.29575V6.28976V6.28376V6.27777V6.27177V6.26578V6.25978V6.25379V6.2478V6.2418V6.23581V6.22981V6.22382V6.21782V6.21183V6.20583V6.19984V6.19384V6.18785V6.18185V6.17586V6.16986V6.16387V6.15787V6.15188V6.14589V6.13989V6.1339V6.1279V6.12191V6.11591V6.10992V6.10392V6.09793V6.09193V6.08594V6.07994V6.07395V6.06795V6.06196V6.05597V6.04997V6.04398V6.03798V6.03199V6.02599V6.02V6.014V6.00801V6.00201V5.99602V5.99002V5.98403V5.97803V5.97204V5.96604V5.96005V5.95406V5.94806V5.94207V5.93607V5.93008V5.92408V5.91809V5.91209V5.9061V5.9001V5.89411V5.88811V5.88212V5.87612V5.87013V5.86414V5.85814V5.85215V5.84615V5.84016V5.83416V5.82817V5.82217V5.81618V5.81018V5.80419V5.79819V5.7922V5.7862V5.78021V5.77422V5.76822V5.76223V5.75623V5.75024V5.74424V5.73825V5.73225V5.72626V5.72026V5.71427V5.70827V5.70228V5.69628V5.69029V5.6843V5.6783V5.67231V5.66631V5.66032V5.65432V5.64833V5.64233V5.63634V5.63034V5.62435V5.61835V5.61236V5.60636V5.60037V5.59438V5.58838V5.58239V5.57639V5.5704V5.5644V5.55841V5.55241V5.54642V5.54042V5.53443V5.52843V5.52244V5.51644V5.51045V5.50445V5.49846V5.49247V5.48647V5.48048V5.47448V5.46849V5.46249V5.4565V5.4505V5.44451V5.43851V5.43252V5.42652V5.42053V5.41453V5.40854V5.40255V5.39655V5.39056V5.38456V5.37857V5.37257V5.36658V5.36058V5.35459V5.34859V5.3426V5.3366V5.33061V5.32461V5.31862V5.31262V5.30663V5.30064V5.29464V5.28865V5.28265V5.27666V5.27066V5.26467V5.25867V5.25268V5.24668V5.24069V5.23469V5.2287V5.2227V5.21671V5.21072V5.20472V5.19873V5.19273V5.18674V5.18074V5.17475V5.16875V5.16276V5.15676V5.15077V5.14477V5.13878V5.13278V5.12679V5.1208V5.1148V5.10881V5.10281V5.09682V5.09082V5.08483V5.07883V5.07284V5.06684V5.06085V5.05485V5.04886V5.04286V5.03687V5.03087V5.02488V5.01889V5.01289V5.0069V5.0009V4.99491V4.98891V4.98292V4.97692V4.97093V4.96493V4.95894V4.95294V4.94695V4.94095V4.93496V4.92897V4.92297V4.91698V4.91098V4.90499V4.89899V4.893V4.887V4.88101V4.87501V4.86902V4.86302V4.85703V4.85103V4.84504V4.83905V4.83305V4.82706V4.82106V4.81507V4.80907V4.80308V4.79708V4.79109V4.78509V4.7791V4.7731V4.76711V4.76111V4.75512V4.74912V4.74313V4.73714V4.73114V4.72515V4.71915V4.71316V4.70716V4.70117V4.69517V4.68918V4.68318V4.67719V4.67119V4.6652V4.6592V4.65321V4.64722V4.64122V4.63523V4.62923V4.62324V4.61724V4.61125V4.60525V4.59926V4.59326V4.58727V4.58127V4.57528V4.56928V4.56329V4.55729V4.5513V4.54531V4.53931V4.53332V4.52732V4.52133V4.51533V4.50934V4.50334V4.49735V4.49135V4.48536C60.0261 4.18798 59.9377 4.0033 59.8073 3.88702L55.1052 3.8872ZM55.1052 3.8872C55.784 3.28306 56.4657 2.68287 57.1476 2.08251C57.2508 1.99163 57.354 1.90076 57.4572 1.80986M55.1052 3.8872L57.3593 1.7233C57.3591 1.72318 57.359 1.72311 57.359 1.72311C57.359 1.72311 57.3592 1.72328 57.3597 1.72362C57.3922 1.75238 57.4247 1.78113 57.4572 1.80986M57.622 1.42168C57.5116 1.32637 57.4032 1.32357 57.2928 1.42168L57.3571 1.72133L57.4571 1.60822L57.4578 1.60745L57.622 1.42168ZM57.622 1.42168L57.4598 1.60973L57.4591 1.61052L57.3609 1.72439L58.4876 2.18563C58.1991 1.93126 57.9106 1.67682 57.622 1.42168ZM57.4572 1.80986C57.7132 2.03605 57.9687 2.26142 58.2241 2.48657C58.7526 2.95264 59.28 3.41773 59.8072 3.88696L57.4572 1.80986Z" stroke="#C8D0DB" stroke-width="0.8"/>
<path d="M57.454 0C57.624 0.00840899 57.7812 0.0700726 57.9214 0.19901C58.9771 1.16324 60.0329 2.12748 61.0887 3.09171C61.1906 3.18421 61.2501 3.30753 61.2267 3.47851C61.2034 3.63828 61.1163 3.742 60.9909 3.76723C60.9081 3.78405 60.838 3.7392 60.7721 3.67753C60.0116 2.98239 59.2512 2.28724 58.4907 1.5921C58.2103 1.33423 57.9277 1.07635 57.6473 0.821276C57.4986 0.68393 57.4052 0.686735 57.2565 0.824082C56.2156 1.7771 55.1747 2.73012 54.1338 3.68314C53.9511 3.84851 53.7408 3.75602 53.6898 3.48693C53.6622 3.34117 53.7089 3.20102 53.8194 3.09731C54.1253 2.81701 54.4333 2.53671 54.7392 2.25641C55.4785 1.57808 56.2177 0.902559 56.957 0.221431C57.1057 0.0812808 57.2713 0.005606 57.454 0Z" fill="#C8D0DB"/>
<path d="M60.4287 1.62559C60.3161 1.52188 60.2141 1.42938 60.1122 1.33408C59.8105 1.05939 59.511 0.781889 59.2072 0.509998C59.1584 0.46515 59.1584 0.437126 59.1923 0.383869C59.2986 0.210083 59.4345 0.106366 59.6044 0.106366C59.7447 0.106366 59.8849 0.0811411 60.0229 0.125989C60.2651 0.204473 60.4287 0.48197 60.4308 0.809921C60.4287 1.07621 60.4287 1.34249 60.4287 1.62559Z" fill="#C8D0DB"/>
<path d="M63.8416 15.4967L63.5754 15.7953C63.7059 15.9116 63.7942 16.0962 63.7942 16.3937V16.3997V16.4057V16.4117V16.4176V16.4236V16.4296V16.4356V16.4416V16.4476V16.4536V16.4596V16.4656V16.4716V16.4776V16.4836V16.4896V16.4956V16.5016V16.5076V16.5136V16.5196V16.5256V16.5315V16.5375V16.5435V16.5495V16.5555V16.5615V16.5675V16.5735V16.5795V16.5855V16.5915V16.5975V16.6035V16.6095V16.6155V16.6215V16.6275V16.6335V16.6395V16.6454V16.6514V16.6574V16.6634V16.6694V16.6754V16.6814V16.6874V16.6934V16.6994V16.7054V16.7114V16.7174V16.7234V16.7294V16.7354V16.7414V16.7474V16.7533V16.7593V16.7653V16.7713V16.7773V16.7833V16.7893V16.7953V16.8013V16.8073V16.8133V16.8193V16.8253V16.8313V16.8373V16.8433V16.8493V16.8553V16.8613V16.8672V16.8732V16.8792V16.8852V16.8912V16.8972V16.9032V16.9092V16.9152V16.9212V16.9272V16.9332V16.9392V16.9452V16.9512V16.9572V16.9632V16.9692V16.9752V16.9811V16.9871V16.9931V16.9991V17.0051V17.0111V17.0171V17.0231V17.0291V17.0351V17.0411V17.0471V17.0531V17.0591V17.0651V17.0711V17.0771V17.0831V17.0891V17.095V17.101V17.107V17.113V17.119V17.125V17.131V17.137V17.143V17.149V17.155V17.161V17.167V17.173V17.179V17.185V17.191V17.197V17.203V17.2089V17.2149V17.2209V17.2269V17.2329V17.2389V17.2449V17.2509V17.2569V17.2629V17.2689V17.2749V17.2809V17.2869V17.2929V17.2989V17.3049V17.3109V17.3169V17.3228V17.3288V17.3348V17.3408V17.3468V17.3528V17.3588V17.3648V17.3708V17.3768V17.3828V17.3888V17.3948V17.4008V17.4068V17.4128V17.4188V17.4248V17.4308V17.4367V17.4427V17.4487V17.4547V17.4607V17.4667V17.4727V17.4787V17.4847V17.4907V17.4967V17.5027V17.5087V17.5147V17.5207V17.5267V17.5327V17.5387V17.5446V17.5506V17.5566V17.5626V17.5686V17.5746V17.5806V17.5866V17.5926V17.5986V17.6046V17.6106V17.6166V17.6226V17.6286V17.6346V17.6406V17.6466V17.6526V17.6585V17.6645V17.6705V17.6765V17.6825V17.6885V17.6945V17.7005V17.7065V17.7125V17.7185V17.7245V17.7305V17.7365V17.7425V17.7485V17.7545V17.7605V17.7665V17.7724V17.7784V17.7844V17.7904V17.7964V17.8024V17.8084V17.8144V17.8204V17.8264V17.8324V17.8384V17.8444V17.8504V17.8564V17.8624V17.8684V17.8744V17.8804V17.8863V17.8923V17.8983V17.9043V17.9103V17.9163V17.9223V17.9283V17.9343V17.9403V17.9463V17.9523V17.9583V17.9643V17.9703V17.9763V17.9823V17.9883V17.9943V18.0002V18.0062V18.0122V18.0182V18.0242V18.0302V18.0362V18.0422V18.0482V18.0542V18.0602V18.0662V18.0722V18.0782V18.0842V18.0902V18.0962V18.1022V18.1082V18.1141V18.1201V18.1261V18.1321V18.1381V18.1441V18.1501V18.1561V18.1621V18.1681V18.1741V18.1801V18.1861V18.1921V18.1981V18.2041V18.2101V18.2161V18.2221V18.228V18.234V18.24V18.246V18.252V18.258V18.264V18.27V18.276V18.282V18.288V18.294V18.3V18.306V18.312V18.318V18.324V18.33V18.336V18.3419V18.3479V18.3539V18.3599V18.3659V18.3719V18.3779V18.3839V18.3899V18.3959V18.4019V18.4079V18.4139V18.4199V18.4259V18.4319V18.4379V18.4439V18.4498V18.4558V18.4618V18.4678V18.4738V18.4798V18.4858V18.4918V18.4978V18.5038V18.5098V18.5158V18.5218V18.5278V18.5338V18.5398V18.5458V18.5518V18.5578V18.5637V18.5697V18.5757V18.5817V18.5877V18.5937V18.5997V18.6057V18.6117V18.6177V18.6237V18.6297V18.6357V18.6417V18.6477V18.6537V18.6597V18.6657V18.6717V18.6776V18.6836V18.6896V18.6956V18.7016V18.7076V18.7136V18.7196V18.7256V18.7316V18.7376V18.7436V18.7496V18.7556V18.7616V18.7676V18.7736V18.7796V18.7856V18.7915V18.7975V18.8035V18.8095V18.8155V18.8215V18.8275V18.8335V18.8395V18.8455V18.8515V18.8575V18.8635V18.8695V18.8755V18.8815V18.8875V18.8935V18.8995V18.9054V18.9114V18.9174V18.9234V18.9294V18.9354V18.9414V18.9474V18.9534V18.9594V18.9654V18.9714V18.9774V18.9834V18.9894V18.9954V19.0014V19.0074V19.0134V19.0193V19.0253V19.0313V19.0373V19.0433V19.0493V19.0553V19.0613V19.0673V19.0733V19.0793V19.0853V19.0913V19.0973V19.1033V19.1093V19.1153V19.1213V19.1273V19.1332V19.1392V19.1452V19.1512V19.1572V19.1632V19.1692V19.1752V19.1812V19.1872V19.1932V19.1992V19.2052V19.2112V19.2172V19.2232V19.2292V19.2352V19.2411V19.2471V19.2531V19.2591V19.2651V19.2711V19.2771V19.2831V19.2891V19.2951V19.3011V19.3071V19.3131V19.3191V19.3251V19.3311V19.3371V19.3431V19.3491V19.355V19.361V19.367V19.373V19.379V19.385V19.391V19.397V19.403V19.409V19.415V19.421V19.427V19.433V19.439V19.445V19.451V19.457V19.463C63.7942 19.9813 63.5276 20.1573 63.3665 20.1589C63.286 20.1589 63.2049 20.1587 63.1233 20.1586C62.9854 20.1583 62.8462 20.158 62.7066 20.1585C62.7078 19.592 62.7076 19.0241 62.7058 18.4582L62.7058 18.4579C62.7032 17.8296 62.4115 17.2193 61.8215 17.0146C61.774 16.9973 61.6866 16.968 61.582 16.9664C61.5475 16.9651 61.5101 16.9633 61.4703 16.9612C61.2742 16.9514 61.0199 16.9386 60.7751 16.9843L60.7748 16.9844C60.094 17.112 59.75 17.7806 59.7475 18.4496L59.7475 18.4498C59.7457 19.0194 59.7454 19.5894 59.748 20.1596C59.5282 20.157 59.3045 20.157 59.08 20.1648L59.0793 20.1648C59.0109 20.1673 58.9126 20.1324 58.8168 20.0058C58.7216 19.88 58.6522 19.6877 58.6568 19.4628L58.6569 19.4596C58.661 19.1336 58.659 18.802 58.657 18.4752C58.6559 18.2913 58.6548 18.1088 58.6548 17.9297V17.9267V17.9237V17.9206V17.9176V17.9146V17.9116V17.9086V17.9055V17.9025V17.8995V17.8965V17.8934V17.8904V17.8874V17.8844V17.8814V17.8783V17.8753V17.8723V17.8693V17.8663V17.8632V17.8602V17.8572V17.8542V17.8511V17.8481V17.8451V17.8421V17.8391V17.836V17.833V17.83V17.827V17.8239V17.8209V17.8179V17.8149V17.8119V17.8088V17.8058V17.8028V17.7998V17.7967V17.7937V17.7907V17.7877V17.7847V17.7816V17.7786V17.7756V17.7726V17.7695V17.7665V17.7635V17.7605V17.7575V17.7544V17.7514V17.7484V17.7454V17.7424V17.7393V17.7363V17.7333V17.7303V17.7272V17.7242V17.7212V17.7182V17.7152V17.7121V17.7091V17.7061V17.7031V17.7V17.697V17.694V17.691V17.688V17.6849V17.6819V17.6789V17.6759V17.6728V17.6698V17.6668V17.6638V17.6608V17.6577V17.6547V17.6517V17.6487V17.6456V17.6426V17.6396V17.6366V17.6336V17.6305V17.6275V17.6245V17.6215V17.6184V17.6154V17.6124V17.6094V17.6064V17.6033V17.6003V17.5973V17.5943V17.5913V17.5882V17.5852V17.5822V17.5792V17.5761V17.5731V17.5701V17.5671V17.5641V17.561V17.558V17.555V17.552V17.5489V17.5459V17.5429V17.5399V17.5369V17.5338V17.5308V17.5278V17.5248V17.5217V17.5187V17.5157V17.5127V17.5097V17.5066V17.5036V17.5006V17.4976V17.4945V17.4915V17.4885V17.4855V17.4825V17.4794V17.4764V17.4734V17.4704V17.4673V17.4643V17.4613V17.4583V17.4553V17.4522V17.4492V17.4462V17.4432V17.4402V17.4371V17.4341V17.4311V17.4281V17.425V17.422V17.419V17.416V17.413V17.4099V17.4069V17.4039V17.4009V17.3978V17.3948V17.3918V17.3888V17.3858V17.3827V17.3797V17.3767V17.3737V17.3706V17.3676V17.3646V17.3616V17.3586V17.3555V17.3525V17.3495V17.3465V17.3434V17.3404V17.3374V17.3344V17.3314V17.3283V17.3253V17.3223V17.3193V17.3162V17.3132V17.3102V17.3072V17.3042V17.3011V17.2981V17.2951V17.2921V17.2891V17.286V17.283V17.28V17.277V17.2739V17.2709V17.2679V17.2649V17.2619V17.2588V17.2558V17.2528V17.2498V17.2467V17.2437V17.2407V17.2377V17.2347V17.2316V17.2286V17.2256V17.2226V17.2195V17.2165V17.2135V17.2105V17.2075V17.2044V17.2014V17.1984V17.1954V17.1923V17.1893V17.1863V17.1833V17.1803V17.1772V17.1742V17.1712V17.1682V17.1651V17.1621V17.1591V17.1561V17.1531V17.15V17.147V17.144V17.141V17.138V17.1349V17.1319V17.1289V17.1259V17.1228V17.1198V17.1168V17.1138V17.1108V17.1077V17.1047V17.1017V17.0987V17.0956V17.0926V17.0896V17.0866V17.0836V17.0805V17.0775V17.0745V17.0715V17.0684V17.0654V17.0624V17.0594V17.0564V17.0533V17.0503V17.0473V17.0443V17.0412V17.0382V17.0352V17.0322V17.0292V17.0261V17.0231V17.0201V17.0171V17.014V17.011V17.008V17.005V17.002V16.9989V16.9959V16.9929V16.9899V16.9869V16.9838V16.9808V16.9778V16.9748V16.9717V16.9687V16.9657V16.9627V16.9597V16.9566V16.9536V16.9506V16.9476V16.9445V16.9415V16.9385V16.9355V16.9325V16.9294V16.9264V16.9234V16.9204V16.9173V16.9143V16.9113V16.9083V16.9053V16.9022V16.8992V16.8962V16.8932V16.8901V16.8871V16.8841V16.8811V16.8781V16.875V16.872V16.869V16.866V16.8629V16.8599V16.8569V16.8539V16.8509V16.8478V16.8448V16.8418V16.8388V16.8358V16.8327V16.8297V16.8267V16.8237V16.8206V16.8176V16.8146V16.8116V16.8086V16.8055V16.8025V16.7995V16.7965V16.7934V16.7904V16.7874V16.7844V16.7814V16.7783V16.7753V16.7723V16.7693V16.7662V16.7632V16.7602V16.7572V16.7542V16.7511V16.7481V16.7451V16.7421V16.739V16.736V16.733V16.73V16.727V16.7239V16.7209V16.7179V16.7149V16.7118V16.7088V16.7058V16.7028V16.6998V16.6967V16.6937V16.6907V16.6877V16.6847V16.6816V16.6786V16.6756V16.6726V16.6695V16.6665V16.6635V16.6605V16.6575V16.6544V16.6514V16.6484V16.6454V16.6423V16.6393V16.6363V16.6333V16.6303V16.6272V16.6242V16.6212V16.6182V16.6151V16.6121V16.6091V16.6061V16.6031V16.6V16.597V16.594V16.591V16.5879V16.5849V16.5819V16.5789V16.5759V16.5728V16.5698V16.5668V16.5638V16.5608V16.5577V16.5547V16.5517V16.5487V16.5456V16.5426V16.5396V16.5366V16.5336V16.5305V16.5275V16.5245V16.5215V16.5184V16.5154V16.5124V16.5094V16.5064V16.5033V16.5003V16.4973V16.4943V16.4912V16.4882V16.4852V16.4822V16.4792V16.4761V16.4731V16.4701V16.4671V16.464V16.461V16.458V16.455V16.452V16.4489V16.4459V16.4429V16.4399V16.4368V16.4338V16.4308V16.4278V16.4248V16.4217V16.4187V16.4157V16.4127V16.4097V16.4066V16.4036V16.4006V16.3976V16.3945V16.3915V16.3885V16.3855V16.3825C58.6548 16.0938 58.7434 15.9109 58.873 15.7958L58.8733 15.7955C59.5517 15.1917 60.233 14.5919 60.9145 13.9919C61.0181 13.9007 61.1218 13.8094 61.2254 13.7182C61.4815 13.9445 61.7372 14.1699 61.9926 14.3952C62.5211 14.8612 63.0485 15.3263 63.5757 15.7955L63.8416 15.4967ZM63.8416 15.4967C63.3138 15.027 62.7851 14.5608 62.2561 14.0943C61.9676 13.8398 61.6789 13.5853 61.3902 13.33L62.3737 20.5617C62.6223 20.5575 62.8709 20.558 63.1195 20.5586C63.2023 20.5587 63.2851 20.5589 63.3679 20.5589C63.8437 20.5561 64.1942 20.0936 64.1942 19.463V16.3937C64.1942 16.0125 64.0774 15.7069 63.8416 15.4967Z" stroke="#C8D0DB" stroke-width="0.8"/>
<path d="M61.2222 11.9096C61.3922 11.918 61.5494 11.9797 61.6896 12.1086C62.7453 13.0729 63.8011 14.0371 64.8568 15.0013C64.9588 15.0938 65.0183 15.2172 64.9949 15.3882C64.9716 15.5479 64.8845 15.6516 64.7591 15.6769C64.6763 15.6937 64.6062 15.6488 64.5403 15.5872C63.7798 14.892 63.0194 14.1969 62.2589 13.5017C61.9785 13.2439 61.6959 12.986 61.4155 12.7309C61.2668 12.5936 61.1734 12.5964 61.0247 12.7337C59.9838 13.6867 58.9429 14.6397 57.902 15.5928C57.7193 15.7581 57.509 15.6656 57.458 15.3966C57.4304 15.2508 57.4771 15.1107 57.5876 15.0069C57.8935 14.7266 58.2015 14.4463 58.5074 14.166C59.2467 13.4877 59.9859 12.8122 60.7251 12.1311C60.8738 11.9937 61.0374 11.9152 61.2222 11.9096Z" fill="#C8D0DB"/>
<path d="M64.1969 13.5349C64.0843 13.4312 63.9823 13.3387 63.8803 13.2434C63.5787 12.9687 63.2792 12.6912 62.9754 12.4193C62.9265 12.3744 62.9265 12.3464 62.9605 12.2931C63.0667 12.1194 63.2027 12.0157 63.3726 12.0157C63.5128 12.0157 63.653 11.9904 63.7911 12.0353C64.0333 12.1138 64.1969 12.3912 64.199 12.7192C64.1969 12.9855 64.1969 13.2518 64.1969 13.5349Z" fill="#C8D0DB"/>
<path d="M55.1052 30.1397L55.1048 30.1401C54.9752 30.2551 54.8866 30.438 54.8866 30.7267V30.7297V30.7327V30.7358V30.7388V30.7418V30.7448V30.7478V30.7509V30.7539V30.7569V30.7599V30.7629V30.766V30.769V30.772V30.775V30.7781V30.7811V30.7841V30.7871V30.7901V30.7932V30.7962V30.7992V30.8022V30.8053V30.8083V30.8113V30.8143V30.8173V30.8204V30.8234V30.8264V30.8294V30.8325V30.8355V30.8385V30.8415V30.8445V30.8476V30.8506V30.8536V30.8566V30.8597V30.8627V30.8657V30.8687V30.8717V30.8748V30.8778V30.8808V30.8838V30.8868V30.8899V30.8929V30.8959V30.8989V30.902V30.905V30.908V30.911V30.914V30.9171V30.9201V30.9231V30.9261V30.9292V30.9322V30.9352V30.9382V30.9412V30.9443V30.9473V30.9503V30.9533V30.9564V30.9594V30.9624V30.9654V30.9684V30.9715V30.9745V30.9775V30.9805V30.9836V30.9866V30.9896V30.9926V30.9956V30.9987V31.0017V31.0047V31.0077V31.0108V31.0138V31.0168V31.0198V31.0228V31.0259V31.0289V31.0319V31.0349V31.0379V31.041V31.044V31.047V31.05V31.0531V31.0561V31.0591V31.0621V31.0651V31.0682V31.0712V31.0742V31.0772V31.0803V31.0833V31.0863V31.0893V31.0923V31.0954V31.0984V31.1014V31.1044V31.1075V31.1105V31.1135V31.1165V31.1195V31.1226V31.1256V31.1286V31.1316V31.1347V31.1377V31.1407V31.1437V31.1467V31.1498V31.1528V31.1558V31.1588V31.1618V31.1649V31.1679V31.1709V31.1739V31.177V31.18V31.183V31.186V31.189V31.1921V31.1951V31.1981V31.2011V31.2042V31.2072V31.2102V31.2132V31.2162V31.2193V31.2223V31.2253V31.2283V31.2314V31.2344V31.2374V31.2404V31.2434V31.2465V31.2495V31.2525V31.2555V31.2586V31.2616V31.2646V31.2676V31.2706V31.2737V31.2767V31.2797V31.2827V31.2858V31.2888V31.2918V31.2948V31.2978V31.3009V31.3039V31.3069V31.3099V31.3129V31.316V31.319V31.322V31.325V31.3281V31.3311V31.3341V31.3371V31.3401V31.3432V31.3462V31.3492V31.3522V31.3553V31.3583V31.3613V31.3643V31.3673V31.3704V31.3734V31.3764V31.3794V31.3825V31.3855V31.3885V31.3915V31.3945V31.3976V31.4006V31.4036V31.4066V31.4097V31.4127V31.4157V31.4187V31.4217V31.4248V31.4278V31.4308V31.4338V31.4368V31.4399V31.4429V31.4459V31.4489V31.452V31.455V31.458V31.461V31.464V31.4671V31.4701V31.4731V31.4761V31.4792V31.4822V31.4852V31.4882V31.4912V31.4943V31.4973V31.5003V31.5033V31.5064V31.5094V31.5124V31.5154V31.5184V31.5215V31.5245V31.5275V31.5305V31.5336V31.5366V31.5396V31.5426V31.5456V31.5487V31.5517V31.5547V31.5577V31.5608V31.5638V31.5668V31.5698V31.5728V31.5759V31.5789V31.5819V31.5849V31.5879V31.591V31.594V31.597V31.6V31.6031V31.6061V31.6091V31.6121V31.6151V31.6182V31.6212V31.6242V31.6272V31.6303V31.6333V31.6363V31.6393V31.6423V31.6454V31.6484V31.6514V31.6544V31.6575V31.6605V31.6635V31.6665V31.6695V31.6726V31.6756V31.6786V31.6816V31.6847V31.6877V31.6907V31.6937V31.6967V31.6998V31.7028V31.7058V31.7088V31.7118V31.7149V31.7179V31.7209V31.7239V31.727V31.73V31.733V31.736V31.739V31.7421V31.7451V31.7481V31.7511V31.7542V31.7572V31.7602V31.7632V31.7662V31.7693V31.7723V31.7753V31.7783V31.7814V31.7844V31.7874V31.7904V31.7934V31.7965V31.7995V31.8025V31.8055V31.8086V31.8116V31.8146V31.8176V31.8206V31.8237V31.8267V31.8297V31.8327V31.8357V31.8388V31.8418V31.8448V31.8478V31.8509V31.8539V31.8569V31.8599V31.8629V31.866V31.869V31.872V31.875V31.8781V31.8811V31.8841V31.8871V31.8901V31.8932V31.8962V31.8992V31.9022V31.9053V31.9083V31.9113V31.9143V31.9173V31.9204V31.9234V31.9264V31.9294V31.9325V31.9355V31.9385V31.9415V31.9445V31.9476V31.9506V31.9536V31.9566V31.9597V31.9627V31.9657V31.9687V31.9717V31.9748V31.9778V31.9808V31.9838V31.9868V31.9899V31.9929V31.9959V31.9989V32.002V32.005V32.008V32.011V32.014V32.0171V32.0201V32.0231V32.0261V32.0292V32.0322V32.0352V32.0382V32.0412V32.0443V32.0473V32.0503V32.0533V32.0564V32.0594V32.0624V32.0654V32.0684V32.0715V32.0745V32.0775V32.0805V32.0836V32.0866V32.0896V32.0926V32.0956V32.0987V32.1017V32.1047V32.1077V32.1107V32.1138V32.1168V32.1198V32.1228V32.1259V32.1289V32.1319V32.1349V32.1379V32.141V32.144V32.147V32.15V32.1531V32.1561V32.1591V32.1621V32.1651V32.1682V32.1712V32.1742V32.1772V32.1803V32.1833V32.1863V32.1893V32.1923V32.1954V32.1984V32.2014V32.2044V32.2075V32.2105V32.2135V32.2165V32.2195V32.2226V32.2256V32.2286V32.2316V32.2347V32.2377V32.2407V32.2437V32.2467V32.2498V32.2528V32.2558V32.2588V32.2618V32.2649V32.2679V32.2709V32.2739C54.8866 32.4544 54.8877 32.6375 54.8888 32.8217C54.8908 33.1481 54.8928 33.4781 54.8887 33.8038L54.8887 33.807C54.884 34.0319 54.9534 34.2242 55.0486 34.35C55.1444 34.4766 55.2427 34.5115 55.3111 34.509L55.3118 34.509C55.5363 34.5012 55.76 34.5013 55.9798 34.5038C55.9772 33.9336 55.9775 33.3636 55.9793 32.794L55.9793 32.7938C55.9819 32.1248 56.3258 31.4563 57.0066 31.3286L57.0069 31.3285C57.2517 31.2828 57.506 31.2956 57.7021 31.3055C57.7419 31.3075 57.7793 31.3094 57.8138 31.3106C57.9185 31.3122 58.0058 31.3415 58.0533 31.3588C58.6434 31.5635 58.935 32.1738 58.9376 32.8021L58.9376 32.8024C58.9394 33.3683 58.9397 33.9362 58.9384 34.5027C59.078 34.5022 59.2172 34.5025 59.3551 34.5028C59.4367 34.503 59.5178 34.5031 59.5983 34.5031C59.7594 34.5015 60.0261 34.3256 60.0261 33.8072V33.8012V33.7952V33.7892V33.7832V33.7772V33.7712V33.7652V33.7592V33.7532V33.7472V33.7412V33.7352V33.7292V33.7233V33.7173V33.7113V33.7053V33.6993V33.6933V33.6873V33.6813V33.6753V33.6693V33.6633V33.6573V33.6513V33.6453V33.6393V33.6333V33.6273V33.6213V33.6153V33.6094V33.6034V33.5974V33.5914V33.5854V33.5794V33.5734V33.5674V33.5614V33.5554V33.5494V33.5434V33.5374V33.5314V33.5254V33.5194V33.5134V33.5074V33.5014V33.4955V33.4895V33.4835V33.4775V33.4715V33.4655V33.4595V33.4535V33.4475V33.4415V33.4355V33.4295V33.4235V33.4175V33.4115V33.4055V33.3995V33.3935V33.3875V33.3816V33.3756V33.3696V33.3636V33.3576V33.3516V33.3456V33.3396V33.3336V33.3276V33.3216V33.3156V33.3096V33.3036V33.2976V33.2916V33.2856V33.2796V33.2736V33.2677V33.2617V33.2557V33.2497V33.2437V33.2377V33.2317V33.2257V33.2197V33.2137V33.2077V33.2017V33.1957V33.1897V33.1837V33.1777V33.1717V33.1657V33.1597V33.1538V33.1478V33.1418V33.1358V33.1298V33.1238V33.1178V33.1118V33.1058V33.0998V33.0938V33.0878V33.0818V33.0758V33.0698V33.0638V33.0578V33.0518V33.0459V33.0399V33.0339V33.0279V33.0219V33.0159V33.0099V33.0039V32.9979V32.9919V32.9859V32.9799V32.9739V32.9679V32.9619V32.9559V32.9499V32.9439V32.9379V32.932V32.926V32.92V32.914V32.908V32.902V32.896V32.89V32.884V32.878V32.872V32.866V32.86V32.854V32.848V32.842V32.836V32.83V32.824V32.8181V32.8121V32.8061V32.8001V32.7941V32.7881V32.7821V32.7761V32.7701V32.7641V32.7581V32.7521V32.7461V32.7401V32.7341V32.7281V32.7221V32.7161V32.7101V32.7042V32.6982V32.6922V32.6862V32.6802V32.6742V32.6682V32.6622V32.6562V32.6502V32.6442V32.6382V32.6322V32.6262V32.6202V32.6142V32.6082V32.6022V32.5962V32.5903V32.5843V32.5783V32.5723V32.5663V32.5603V32.5543V32.5483V32.5423V32.5363V32.5303V32.5243V32.5183V32.5123V32.5063V32.5003V32.4943V32.4883V32.4823V32.4764V32.4704V32.4644V32.4584V32.4524V32.4464V32.4404V32.4344V32.4284V32.4224V32.4164V32.4104V32.4044V32.3984V32.3924V32.3864V32.3804V32.3744V32.3684V32.3625V32.3565V32.3505V32.3445V32.3385V32.3325V32.3265V32.3205V32.3145V32.3085V32.3025V32.2965V32.2905V32.2845V32.2785V32.2725V32.2665V32.2605V32.2545V32.2486V32.2426V32.2366V32.2306V32.2246V32.2186V32.2126V32.2066V32.2006V32.1946V32.1886V32.1826V32.1766V32.1706V32.1646V32.1586V32.1526V32.1466V32.1407V32.1347V32.1287V32.1227V32.1167V32.1107V32.1047V32.0987V32.0927V32.0867V32.0807V32.0747V32.0687V32.0627V32.0567V32.0507V32.0447V32.0387V32.0327V32.0268V32.0208V32.0148V32.0088V32.0028V31.9968V31.9908V31.9848V31.9788V31.9728V31.9668V31.9608V31.9548V31.9488V31.9428V31.9368V31.9308V31.9248V31.9188V31.9129V31.9069V31.9009V31.8949V31.8889V31.8829V31.8769V31.8709V31.8649V31.8589V31.8529V31.8469V31.8409V31.8349V31.8289V31.8229V31.8169V31.8109V31.8049V31.799V31.793V31.787V31.781V31.775V31.769V31.763V31.757V31.751V31.745V31.739V31.733V31.727V31.721V31.715V31.709V31.703V31.697V31.691V31.6851V31.6791V31.6731V31.6671V31.6611V31.6551V31.6491V31.6431V31.6371V31.6311V31.6251V31.6191V31.6131V31.6071V31.6011V31.5951V31.5891V31.5831V31.5771V31.5712V31.5652V31.5592V31.5532V31.5472V31.5412V31.5352V31.5292V31.5232V31.5172V31.5112V31.5052V31.4992V31.4932V31.4872V31.4812V31.4752V31.4692V31.4632V31.4573V31.4513V31.4453V31.4393V31.4333V31.4273V31.4213V31.4153V31.4093V31.4033V31.3973V31.3913V31.3853V31.3793V31.3733V31.3673V31.3613V31.3553V31.3493V31.3434V31.3374V31.3314V31.3254V31.3194V31.3134V31.3074V31.3014V31.2954V31.2894V31.2834V31.2774V31.2714V31.2654V31.2594V31.2534V31.2474V31.2414V31.2355V31.2295V31.2235V31.2175V31.2115V31.2055V31.1995V31.1935V31.1875V31.1815V31.1755V31.1695V31.1635V31.1575V31.1515V31.1455V31.1395V31.1335V31.1275V31.1216V31.1156V31.1096V31.1036V31.0976V31.0916V31.0856V31.0796V31.0736V31.0676V31.0616V31.0556V31.0496V31.0436V31.0376V31.0316V31.0256V31.0196V31.0136V31.0077V31.0017V30.9957V30.9897V30.9837V30.9777V30.9717V30.9657V30.9597V30.9537V30.9477V30.9417V30.9357V30.9297V30.9237V30.9177V30.9117V30.9057V30.8997V30.8938V30.8878V30.8818V30.8758V30.8698V30.8638V30.8578V30.8518V30.8458V30.8398V30.8338V30.8278V30.8218V30.8158V30.8098V30.8038V30.7978V30.7918V30.7858V30.7799V30.7739V30.7679V30.7619V30.7559V30.7499V30.7439V30.7379C60.0261 30.4405 59.9377 30.2558 59.8073 30.1396L55.1052 30.1397ZM55.1052 30.1397C55.784 29.5356 56.4657 28.9354 57.1476 28.335C57.2508 28.2442 57.354 28.1533 57.4572 28.0624M55.1052 30.1397L57.3593 27.9758C57.3591 27.9757 57.359 27.9757 57.359 27.9757C57.359 27.9757 57.3592 27.9758 57.3597 27.9762C57.3922 28.0049 57.4247 28.0337 57.4572 28.0624M57.622 27.6742C57.5116 27.5789 57.4032 27.5761 57.2928 27.6742L57.3571 27.9739L57.4571 27.8608L57.4578 27.86L57.622 27.6742ZM57.622 27.6742L57.4598 27.8623L57.4591 27.8631L57.3609 27.9769L58.4876 28.4382C58.1991 28.1838 57.9106 27.9294 57.622 27.6742ZM57.4572 28.0624C57.7132 28.2886 57.9687 28.514 58.2241 28.7391C58.7526 29.2052 59.28 29.6703 59.8072 30.1395L57.4572 28.0624Z" stroke="#C8D0DB" stroke-width="0.8"/>
<path d="M57.454 26.2556C57.624 26.264 57.7812 26.3257 57.9214 26.4546C58.9771 27.4189 60.0329 28.3831 61.0887 29.3473C61.1906 29.4398 61.2501 29.5632 61.2267 29.7341C61.2034 29.8939 61.1163 29.9976 60.9909 30.0228C60.9081 30.0397 60.838 29.9948 60.7721 29.9331C60.0116 29.238 59.2512 28.5429 58.4907 27.8477C58.2103 27.5898 57.9277 27.332 57.6473 27.0769C57.4986 26.9395 57.4052 26.9424 57.2565 27.0797C56.2156 28.0327 55.1747 28.9857 54.1338 29.9388C53.9511 30.1041 53.7408 30.0116 53.6898 29.7425C53.6622 29.5968 53.7089 29.4566 53.8194 29.3529C54.1253 29.0726 54.4333 28.7923 54.7392 28.512C55.4785 27.8337 56.2177 27.1582 56.957 26.4771C57.1057 26.3369 57.2713 26.2584 57.454 26.2556Z" fill="#C8D0DB"/>
<path d="M60.4287 27.8796C60.3161 27.7759 60.2141 27.6834 60.1122 27.5881C59.8105 27.3134 59.511 27.0359 59.2072 26.764C59.1584 26.7191 59.1584 26.6911 59.1923 26.6378C59.2986 26.4641 59.4345 26.3603 59.6044 26.3603C59.7447 26.3603 59.8849 26.3351 60.0229 26.38C60.2651 26.4584 60.4287 26.7359 60.4308 27.0639C60.4287 27.333 60.4287 27.5965 60.4287 27.8796Z" fill="#C8D0DB"/>
<path d="M27.6284 9.35571H22.185C22.1685 9.35571 22.155 9.36914 22.155 9.38571V21.862C22.155 21.8786 22.1685 21.892 22.185 21.892H33.8778C33.8944 21.892 33.9078 21.8786 33.9078 21.862V14.854C33.9078 14.8453 33.9041 14.8371 33.8976 14.8314L27.6481 9.36314C27.6427 9.35835 27.6357 9.35571 27.6284 9.35571Z" stroke="#C8D0DB" stroke-width="1.5"/>
<path d="M27.0129 11.3927H23.8788V16.0938H30.1469V14.5267L27.0129 11.3927Z" stroke="#C8D0DB"/>
<path d="M22.125 4.65454H1.03C1.01343 4.65454 1 4.66797 1 4.68454V21.862C1 21.8785 1.01343 21.892 1.03 21.892H22.125C22.1416 21.892 22.155 21.8785 22.155 21.862V4.68454C22.155 4.66797 22.1416 4.65454 22.125 4.65454Z" stroke="#C8D0DB" stroke-width="1.5"/>
<path d="M1 17.191H22.155" stroke="#C8D0DB" stroke-width="1.5"/>
<path d="M7.30163 21.892C7.30163 23.2087 6.23424 24.2761 4.91755 24.2761C3.60086 24.2761 2.53348 23.2087 2.53348 21.892C2.53348 20.5753 3.60086 19.5079 4.91755 19.5079C6.23424 19.5079 7.30163 20.5753 7.30163 21.892Z" stroke="#C8D0DB" stroke-width="1.5"/>
<path d="M29.2402 21.892C29.2402 23.2087 28.1728 24.2761 26.8561 24.2761C25.5394 24.2761 24.472 23.2087 24.472 21.892C24.472 20.5753 25.5394 19.5079 26.8561 19.5079C28.1728 19.5079 29.2402 20.5753 29.2402 21.892Z" stroke="#C8D0DB" stroke-width="1.5"/>
</svg>
