<svg width="16" height="19" viewBox="0 0 16 19" fill="none" xmlns="http://www.w3.org/2000/svg">
<path d="M6.7352 7.55122C5.73503 6.80161 6.87317 3.61945 7.33668 2.44898C7.40158 2.28506 7.62404 2.28686 7.68607 2.45188C8.12723 3.62545 9.2027 6.80612 8.20856 7.55122C7.68534 7.94336 7.25841 7.94336 6.7352 7.55122Z" stroke="#333333" stroke-width="0.5" stroke-linecap="square"/>
<path d="M1.64844 16.9707H4.31027" stroke="#333333" stroke-width="0.5" stroke-linecap="square"/>
<path d="M6.08754 16.9714H8.62262M14.1998 7.84511C14.1998 -1.40802 0.890625 -1.15451 0.890625 7.8451H3.1722" stroke="#333333" stroke-width="0.5" stroke-linecap="square"/>
<path fill-rule="evenodd" clip-rule="evenodd" d="M8.14849 3.78521C9.83773 4.07505 11.4032 5.42513 11.6696 7.87573L11.6938 8.09871H11.9181H14.1997H14.4497V7.59871H14.1997H12.1387C11.7612 4.94245 9.92601 3.48084 7.98074 3.25624C8.03609 3.42291 8.09279 3.6005 8.14849 3.78521ZM7.05122 3.24299C5.00813 3.42083 3.10942 4.96834 2.92263 7.83244L2.90636 8.08191L3.4053 8.11445L3.42157 7.86498C3.58486 5.36119 5.15441 4.01052 6.87496 3.76621C6.93368 3.58343 6.99322 3.40778 7.05122 3.24299Z" fill="#333333"/>
<rect x="0.25" y="9.11035" width="14.7105" height="9.64031" rx="1.75" stroke="#333333" stroke-width="0.5"/>
<rect x="1.77344" y="10.8838" width="2.7956" height="2.03508" rx="1.01754" stroke="#333333" stroke-width="0.5"/>
<rect x="1.52344" y="14.4365" width="0.507016" height="1.26754" rx="0.253508" fill="#333333"/>
<rect x="2.78906" y="14.4365" width="0.507016" height="1.26754" rx="0.253508" fill="#333333"/>
<rect x="3.92969" y="14.4365" width="0.507016" height="1.26754" rx="0.253508" fill="#333333"/>
<rect x="5.57031" y="14.4365" width="0.507016" height="1.26754" rx="0.253508" fill="#333333"/>
<rect x="6.96875" y="14.4365" width="0.507016" height="1.26754" rx="0.253508" fill="#333333"/>
<rect x="8.11719" y="14.4365" width="0.507016" height="1.26754" rx="0.253508" fill="#333333"/>
<rect x="9.89062" y="14.4365" width="0.507016" height="1.26754" rx="0.253508" fill="#333333"/>
<rect x="11.1562" y="14.4365" width="0.507016" height="1.26754" rx="0.253508" fill="#333333"/>
<rect x="12.4219" y="14.4365" width="0.507016" height="1.26754" rx="0.253508" fill="#333333"/>
<path d="M3.55469 2.26855L5.07573 4.16986" stroke="#333333" stroke-width="0.5" stroke-linecap="square"/>
<path d="M11.2849 2.14062L9.89062 4.16869" stroke="#333333" stroke-width="0.5" stroke-linecap="square"/>
</svg>
