<svg width="543" height="237" viewBox="0 0 543 237" fill="none" xmlns="http://www.w3.org/2000/svg">
<rect width="543" height="237" rx="12" fill="#ECF1F7"/>
<circle cx="184.5" cy="94.5" r="73.5" fill="white" stroke="#0DB746" stroke-width="2"/>
<path d="M120 128.5H123.5L133.5 112.5L151 115L165.5 94.5L181.5 112.5L212.5 71M212.5 71L201 72.5M212.5 71L214.5 83" stroke="#0DB746" stroke-width="2"/>
<path d="M153.297 182.948V193H151.505V182.948H153.297ZM155.126 193V185.65H156.806V186.434C157.226 185.944 157.884 185.51 158.836 185.51C160.376 185.51 161.3 186.574 161.3 188.156V193H159.62V188.646C159.62 187.736 159.256 187.078 158.332 187.078C157.576 187.078 156.806 187.638 156.806 188.688V193H155.126ZM164.233 189.332C164.233 190.83 165.017 191.698 166.165 191.698C167.061 191.698 167.607 191.11 167.817 190.298L169.259 191.026C168.881 192.216 167.761 193.154 166.165 193.154C164.065 193.154 162.553 191.6 162.553 189.332C162.553 187.064 164.065 185.51 166.165 185.51C167.747 185.51 168.839 186.406 169.231 187.582L167.817 188.352C167.607 187.554 167.061 186.952 166.165 186.952C165.017 186.952 164.233 187.834 164.233 189.332ZM174.447 185.636V187.316C174.237 187.288 174.069 187.274 173.831 187.274C172.767 187.274 171.955 187.96 171.955 189.136V193H170.275V185.65H171.955V186.742C172.277 186.056 173.033 185.608 173.971 185.608C174.167 185.608 174.321 185.622 174.447 185.636ZM178.359 193.154C176.259 193.154 174.789 191.6 174.789 189.332C174.789 187.176 176.245 185.51 178.289 185.51C180.417 185.51 181.551 187.12 181.551 189.136V189.696H176.399C176.525 190.956 177.281 191.726 178.359 191.726C179.185 191.726 179.843 191.306 180.067 190.55L181.509 191.096C180.991 192.384 179.829 193.154 178.359 193.154ZM178.275 186.924C177.407 186.924 176.735 187.442 176.483 188.436H179.857C179.843 187.624 179.339 186.924 178.275 186.924ZM184.894 193.126C183.494 193.126 182.416 192.272 182.416 190.956C182.416 189.556 183.466 188.94 184.88 188.646L186.91 188.226V188.1C186.91 187.4 186.546 186.966 185.65 186.966C184.852 186.966 184.432 187.33 184.236 188.044L182.654 187.68C183.018 186.462 184.096 185.51 185.72 185.51C187.484 185.51 188.548 186.35 188.548 188.044V191.208C188.548 191.628 188.73 191.754 189.192 191.698V193C187.974 193.14 187.33 192.902 187.078 192.3C186.616 192.818 185.846 193.126 184.894 193.126ZM186.91 190.41V189.514L185.328 189.85C184.614 190.004 184.082 190.228 184.082 190.886C184.082 191.46 184.502 191.782 185.146 191.782C186.042 191.782 186.91 191.306 186.91 190.41ZM189.616 191.6L190.876 190.592C191.31 191.306 192.15 191.782 193.004 191.782C193.718 191.782 194.376 191.53 194.376 190.872C194.376 190.242 193.76 190.172 192.598 189.934C191.436 189.696 190.106 189.402 190.106 187.834C190.106 186.49 191.282 185.51 192.976 185.51C194.264 185.51 195.412 186.084 195.944 186.896L194.81 187.918C194.39 187.26 193.69 186.882 192.878 186.882C192.192 186.882 191.744 187.19 191.744 187.68C191.744 188.212 192.276 188.31 193.2 188.506C194.446 188.772 196.014 189.038 196.014 190.718C196.014 192.202 194.656 193.154 192.99 193.154C191.632 193.154 190.274 192.608 189.616 191.6ZM200.412 193.154C198.312 193.154 196.842 191.6 196.842 189.332C196.842 187.176 198.298 185.51 200.342 185.51C202.47 185.51 203.604 187.12 203.604 189.136V189.696H198.452C198.578 190.956 199.334 191.726 200.412 191.726C201.238 191.726 201.896 191.306 202.12 190.55L203.562 191.096C203.044 192.384 201.882 193.154 200.412 193.154ZM200.328 186.924C199.46 186.924 198.788 187.442 198.536 188.436H201.91C201.896 187.624 201.392 186.924 200.328 186.924ZM209.611 182.948V193H207.819V182.948H209.611ZM211.441 193V185.65H213.121V186.434C213.541 185.944 214.199 185.51 215.151 185.51C216.691 185.51 217.615 186.574 217.615 188.156V193H215.935V188.646C215.935 187.736 215.571 187.078 214.647 187.078C213.891 187.078 213.121 187.638 213.121 188.688V193H211.441ZM150.379 207.974C150.379 210.144 151.555 211.572 153.207 211.572C154.383 211.572 155.237 210.858 155.545 209.682L157.225 210.256C156.637 212.034 155.237 213.154 153.207 213.154C150.533 213.154 148.587 211.026 148.587 207.974C148.587 204.922 150.533 202.794 153.207 202.794C155.237 202.794 156.637 203.914 157.225 205.692L155.545 206.266C155.237 205.09 154.383 204.376 153.207 204.376C151.555 204.376 150.379 205.804 150.379 207.974ZM162.545 205.636V207.316C162.335 207.288 162.167 207.274 161.929 207.274C160.865 207.274 160.053 207.96 160.053 209.136V213H158.373V205.65H160.053V206.742C160.375 206.056 161.131 205.608 162.069 205.608C162.265 205.608 162.419 205.622 162.545 205.636ZM166.458 213.154C164.358 213.154 162.888 211.6 162.888 209.332C162.888 207.176 164.344 205.51 166.388 205.51C168.516 205.51 169.65 207.12 169.65 209.136V209.696H164.498C164.624 210.956 165.38 211.726 166.458 211.726C167.284 211.726 167.942 211.306 168.166 210.55L169.608 211.096C169.09 212.384 167.928 213.154 166.458 213.154ZM166.374 206.924C165.506 206.924 164.834 207.442 164.582 208.436H167.956C167.942 207.624 167.438 206.924 166.374 206.924ZM173.682 213.154C171.624 213.154 170.448 211.418 170.448 209.332C170.448 207.246 171.624 205.51 173.682 205.51C174.634 205.51 175.334 205.888 175.796 206.434V202.948H177.476V213H175.796V212.23C175.334 212.776 174.634 213.154 173.682 213.154ZM175.838 209.122C175.838 207.736 175.054 206.98 174.018 206.98C172.8 206.98 172.142 207.932 172.142 209.332C172.142 210.732 172.8 211.684 174.018 211.684C175.054 211.684 175.838 210.914 175.838 209.556V209.122ZM179.208 204.67V202.948H180.944V204.67H179.208ZM180.916 205.65V213H179.236V205.65H180.916ZM182.836 211.152V207.078H181.814V205.65H182.836V203.494H184.488V205.65H186.028V207.078H184.488V210.886C184.488 211.544 184.866 211.614 185.468 211.614C185.748 211.614 185.902 211.6 186.154 211.572V212.986C185.846 213.042 185.426 213.084 184.992 213.084C183.592 213.084 182.836 212.65 182.836 211.152ZM190.367 213V202.948H192.159V211.432H196.891V213H190.367ZM197.953 204.67V202.948H199.689V204.67H197.953ZM199.661 205.65V213H197.981V205.65H199.661ZM203.106 208.688V213H201.426V205.65H203.106V206.434C203.512 205.944 204.142 205.51 205.122 205.51C206.004 205.51 206.662 205.902 207.068 206.532C207.516 206.056 208.216 205.51 209.35 205.51C210.862 205.51 211.842 206.574 211.842 208.156V213H210.162V208.646C210.162 207.736 209.826 207.078 208.93 207.078C208.216 207.078 207.474 207.638 207.474 208.688V213H205.794V208.646C205.794 207.736 205.458 207.078 204.562 207.078C203.848 207.078 203.106 207.638 203.106 208.688ZM213.525 204.67V202.948H215.261V204.67H213.525ZM215.233 205.65V213H213.553V205.65H215.233ZM217.152 211.152V207.078H216.13V205.65H217.152V203.494H218.804V205.65H220.344V207.078H218.804V210.886C218.804 211.544 219.182 211.614 219.784 211.614C220.064 211.614 220.218 211.6 220.47 211.572V212.986C220.162 213.042 219.742 213.084 219.308 213.084C217.908 213.084 217.152 212.65 217.152 211.152Z" fill="#0DB746"/>
<circle cx="357.5" cy="94.5" r="73.5" fill="white" stroke="#E2001A" stroke-width="2"/>
<path d="M288 70H291.5L301.5 86L319 83.5L333.5 104L349.5 83.5L364.5 105.5L396 108.5M396 108.5L388.5 113.5M396 108.5L391.5 99.5" stroke="#E2001A" stroke-width="2"/>
<path d="M321.606 193V182.948H324.966C328.088 182.948 330.02 184.908 330.02 187.974C330.02 191.04 328.088 193 324.966 193H321.606ZM323.356 191.46H324.966C327.038 191.46 328.256 190.088 328.256 187.974C328.256 185.846 327.038 184.488 324.952 184.488H323.356V191.46ZM334.461 193.154C332.361 193.154 330.891 191.6 330.891 189.332C330.891 187.176 332.347 185.51 334.391 185.51C336.519 185.51 337.653 187.12 337.653 189.136V189.696H332.501C332.627 190.956 333.383 191.726 334.461 191.726C335.287 191.726 335.945 191.306 336.169 190.55L337.611 191.096C337.093 192.384 335.931 193.154 334.461 193.154ZM334.377 186.924C333.509 186.924 332.837 187.442 332.585 188.436H335.959C335.945 187.624 335.441 186.924 334.377 186.924ZM340.131 189.332C340.131 190.83 340.915 191.698 342.063 191.698C342.959 191.698 343.505 191.11 343.715 190.298L345.157 191.026C344.779 192.216 343.659 193.154 342.063 193.154C339.963 193.154 338.451 191.6 338.451 189.332C338.451 187.064 339.963 185.51 342.063 185.51C343.645 185.51 344.737 186.406 345.129 187.582L343.715 188.352C343.505 187.554 342.959 186.952 342.063 186.952C340.915 186.952 340.131 187.834 340.131 189.332ZM350.345 185.636V187.316C350.135 187.288 349.967 187.274 349.729 187.274C348.665 187.274 347.853 187.96 347.853 189.136V193H346.173V185.65H347.853V186.742C348.175 186.056 348.931 185.608 349.869 185.608C350.065 185.608 350.219 185.622 350.345 185.636ZM354.258 193.154C352.158 193.154 350.688 191.6 350.688 189.332C350.688 187.176 352.144 185.51 354.188 185.51C356.316 185.51 357.45 187.12 357.45 189.136V189.696H352.298C352.424 190.956 353.18 191.726 354.258 191.726C355.084 191.726 355.742 191.306 355.966 190.55L357.408 191.096C356.89 192.384 355.728 193.154 354.258 193.154ZM354.174 186.924C353.306 186.924 352.634 187.442 352.382 188.436H355.756C355.742 187.624 355.238 186.924 354.174 186.924ZM360.793 193.126C359.393 193.126 358.315 192.272 358.315 190.956C358.315 189.556 359.365 188.94 360.779 188.646L362.809 188.226V188.1C362.809 187.4 362.445 186.966 361.549 186.966C360.751 186.966 360.331 187.33 360.135 188.044L358.553 187.68C358.917 186.462 359.995 185.51 361.619 185.51C363.383 185.51 364.447 186.35 364.447 188.044V191.208C364.447 191.628 364.629 191.754 365.091 191.698V193C363.873 193.14 363.229 192.902 362.977 192.3C362.515 192.818 361.745 193.126 360.793 193.126ZM362.809 190.41V189.514L361.227 189.85C360.513 190.004 359.981 190.228 359.981 190.886C359.981 191.46 360.401 191.782 361.045 191.782C361.941 191.782 362.809 191.306 362.809 190.41ZM365.514 191.6L366.774 190.592C367.208 191.306 368.048 191.782 368.902 191.782C369.616 191.782 370.274 191.53 370.274 190.872C370.274 190.242 369.658 190.172 368.496 189.934C367.334 189.696 366.004 189.402 366.004 187.834C366.004 186.49 367.18 185.51 368.874 185.51C370.162 185.51 371.31 186.084 371.842 186.896L370.708 187.918C370.288 187.26 369.588 186.882 368.776 186.882C368.09 186.882 367.642 187.19 367.642 187.68C367.642 188.212 368.174 188.31 369.098 188.506C370.344 188.772 371.912 189.038 371.912 190.718C371.912 192.202 370.554 193.154 368.888 193.154C367.53 193.154 366.172 192.608 365.514 191.6ZM376.31 193.154C374.21 193.154 372.74 191.6 372.74 189.332C372.74 187.176 374.196 185.51 376.24 185.51C378.368 185.51 379.502 187.12 379.502 189.136V189.696H374.35C374.476 190.956 375.232 191.726 376.31 191.726C377.136 191.726 377.794 191.306 378.018 190.55L379.46 191.096C378.942 192.384 377.78 193.154 376.31 193.154ZM376.226 186.924C375.358 186.924 374.686 187.442 374.434 188.436H377.808C377.794 187.624 377.29 186.924 376.226 186.924ZM385.51 182.948V193H383.718V182.948H385.51ZM387.339 193V185.65H389.019V186.434C389.439 185.944 390.097 185.51 391.049 185.51C392.589 185.51 393.513 186.574 393.513 188.156V193H391.833V188.646C391.833 187.736 391.469 187.078 390.545 187.078C389.789 187.078 389.019 187.638 389.019 188.688V193H387.339ZM323.379 207.974C323.379 210.144 324.555 211.572 326.207 211.572C327.383 211.572 328.237 210.858 328.545 209.682L330.225 210.256C329.637 212.034 328.237 213.154 326.207 213.154C323.533 213.154 321.587 211.026 321.587 207.974C321.587 204.922 323.533 202.794 326.207 202.794C328.237 202.794 329.637 203.914 330.225 205.692L328.545 206.266C328.237 205.09 327.383 204.376 326.207 204.376C324.555 204.376 323.379 205.804 323.379 207.974ZM335.545 205.636V207.316C335.335 207.288 335.167 207.274 334.929 207.274C333.865 207.274 333.053 207.96 333.053 209.136V213H331.373V205.65H333.053V206.742C333.375 206.056 334.131 205.608 335.069 205.608C335.265 205.608 335.419 205.622 335.545 205.636ZM339.458 213.154C337.358 213.154 335.888 211.6 335.888 209.332C335.888 207.176 337.344 205.51 339.388 205.51C341.516 205.51 342.65 207.12 342.65 209.136V209.696H337.498C337.624 210.956 338.38 211.726 339.458 211.726C340.284 211.726 340.942 211.306 341.166 210.55L342.608 211.096C342.09 212.384 340.928 213.154 339.458 213.154ZM339.374 206.924C338.506 206.924 337.834 207.442 337.582 208.436H340.956C340.942 207.624 340.438 206.924 339.374 206.924ZM346.682 213.154C344.624 213.154 343.448 211.418 343.448 209.332C343.448 207.246 344.624 205.51 346.682 205.51C347.634 205.51 348.334 205.888 348.796 206.434V202.948H350.476V213H348.796V212.23C348.334 212.776 347.634 213.154 346.682 213.154ZM348.838 209.122C348.838 207.736 348.054 206.98 347.018 206.98C345.8 206.98 345.142 207.932 345.142 209.332C345.142 210.732 345.8 211.684 347.018 211.684C348.054 211.684 348.838 210.914 348.838 209.556V209.122ZM352.208 204.67V202.948H353.944V204.67H352.208ZM353.916 205.65V213H352.236V205.65H353.916ZM355.836 211.152V207.078H354.814V205.65H355.836V203.494H357.488V205.65H359.028V207.078H357.488V210.886C357.488 211.544 357.866 211.614 358.468 211.614C358.748 211.614 358.902 211.6 359.154 211.572V212.986C358.846 213.042 358.426 213.084 357.992 213.084C356.592 213.084 355.836 212.65 355.836 211.152ZM363.367 213V202.948H365.159V211.432H369.891V213H363.367ZM370.953 204.67V202.948H372.689V204.67H370.953ZM372.661 205.65V213H370.981V205.65H372.661ZM376.106 208.688V213H374.426V205.65H376.106V206.434C376.512 205.944 377.142 205.51 378.122 205.51C379.004 205.51 379.662 205.902 380.068 206.532C380.516 206.056 381.216 205.51 382.35 205.51C383.862 205.51 384.842 206.574 384.842 208.156V213H383.162V208.646C383.162 207.736 382.826 207.078 381.93 207.078C381.216 207.078 380.474 207.638 380.474 208.688V213H378.794V208.646C378.794 207.736 378.458 207.078 377.562 207.078C376.848 207.078 376.106 207.638 376.106 208.688ZM386.525 204.67V202.948H388.261V204.67H386.525ZM388.233 205.65V213H386.553V205.65H388.233ZM390.152 211.152V207.078H389.13V205.65H390.152V203.494H391.804V205.65H393.344V207.078H391.804V210.886C391.804 211.544 392.182 211.614 392.784 211.614C393.064 211.614 393.218 211.6 393.47 211.572V212.986C393.162 213.042 392.742 213.084 392.308 213.084C390.908 213.084 390.152 212.65 390.152 211.152Z" fill="#E2001A"/>
</svg>
