<svg width="49" height="48" viewBox="0 0 49 48" fill="none" xmlns="http://www.w3.org/2000/svg">
<rect x="1" y="0.5" width="47" height="47" rx="23.5" stroke="white"/>
<path d="M20.5844 30.3693C20.5783 30.3393 20.5694 30.3098 20.5577 30.2812C20.5459 30.253 20.5314 30.2259 20.5145 30.2005C20.4976 30.1749 20.4782 30.151 20.4564 30.1293C20.4347 30.1075 20.4108 30.0881 20.3852 30.0712C20.3596 30.0541 20.3325 30.0397 20.3041 30.028C20.2759 30.0163 20.2464 30.007 20.2164 30.0013C20.1561 29.9891 20.0939 29.9891 20.0336 30.0013C20.0036 30.007 19.9741 30.0163 19.9455 30.028C19.9173 30.0398 19.8902 30.0543 19.8648 30.0712C19.8391 30.088 19.8152 30.1077 19.7936 30.1293C19.772 30.1509 19.7523 30.1748 19.7355 30.2005C19.7181 30.2259 19.7041 30.253 19.6923 30.2812C19.6805 30.3096 19.6715 30.3391 19.6656 30.3693C19.6595 30.3993 19.6562 30.4302 19.6562 30.4607C19.6562 30.4912 19.6595 30.5221 19.6656 30.5521C19.6712 30.5821 19.6806 30.6116 19.6923 30.6398C19.7041 30.6684 19.7181 30.6955 19.7355 30.7209C19.7523 30.7466 19.772 30.7705 19.7936 30.7921C19.8152 30.8137 19.8391 30.8334 19.8648 30.8502C19.8902 30.8672 19.9173 30.8817 19.9455 30.8934C19.9741 30.9051 20.0036 30.9145 20.0336 30.9201C20.0636 30.9262 20.0945 30.9295 20.125 30.9295C20.1555 30.9295 20.1864 30.9262 20.2164 30.9201C20.2464 30.9145 20.2759 30.9051 20.3041 30.8934C20.3327 30.8817 20.3598 30.8671 20.3852 30.8502C20.4108 30.8334 20.4347 30.8139 20.4564 30.7921C20.478 30.7705 20.4977 30.7466 20.5145 30.7209C20.5314 30.6955 20.5459 30.6684 20.5577 30.6398C20.5812 30.583 20.5935 30.5222 20.5938 30.4607C20.5938 30.4302 20.5905 30.3993 20.5844 30.3693Z" fill="white"/>
<path d="M34.0622 30.5129C34.0604 30.5082 34.0585 30.5036 34.0565 30.499C33.6251 29.4895 32.6132 29.1163 31.4158 29.5253L28.1501 30.4284C27.9613 29.8566 27.4903 29.3701 26.8244 29.1229C26.8203 29.1214 26.8161 29.1199 26.812 29.1185L23.2222 27.9002C22.9235 27.514 21.9875 26.5257 20.2352 26.5257C19.0106 26.5257 17.9273 27.3658 17.3075 28.2815H12.9688C12.7099 28.2815 12.5 28.4914 12.5 28.7503V34.6601C12.5 34.919 12.7099 35.1289 12.9688 35.1289H15.7558C16.0147 35.1289 16.2245 34.919 16.2245 34.6601V34.2554H17.5316C17.7905 34.2554 18.0003 34.0456 18.0003 33.7867V33.6518C18.7622 33.7182 19.0128 33.8627 19.7126 34.2663C20.2507 34.5766 21.064 35.0455 22.5287 35.7041C22.5355 35.7071 22.5424 35.71 22.5492 35.7128C22.8304 35.8233 23.3799 35.9971 24.0574 35.9971C24.5289 35.9971 25.0626 35.9128 25.6104 35.6645L32.8287 33.08C32.8415 33.0754 32.8542 33.0703 32.8666 33.0646C33.5564 32.7472 34.5845 31.8527 34.0622 30.5129ZM15.287 34.1913H13.4375V29.219H15.287V34.1913ZM17.0628 33.3179H16.2245V29.219H17.0628V33.3179ZM32.492 32.2047L25.2769 34.7881C25.2634 34.793 25.25 34.7984 25.2369 34.8044C24.232 35.2662 23.2768 34.9897 22.9025 34.8442C21.4877 34.2076 20.7326 33.7721 20.1809 33.454C19.4138 33.0117 19.0442 32.7985 18.0003 32.7123V28.9369C18.4446 28.2086 19.3063 27.4632 20.2353 27.4632C21.8284 27.4632 22.5034 28.4994 22.5299 28.5412C22.5872 28.6343 22.6751 28.7044 22.7786 28.7395L26.504 30.004C27.099 30.2273 27.4134 30.7368 27.2689 31.2449C27.2364 31.3604 27.1813 31.4683 27.1068 31.5624C27.0324 31.6565 26.94 31.7348 26.835 31.7929C26.6255 31.9104 26.378 31.94 26.1467 31.8753L21.947 30.5445C21.7001 30.4662 21.4368 30.6029 21.3586 30.8497C21.2803 31.0965 21.417 31.36 21.6638 31.4382L25.8708 32.7714C25.8753 32.7728 25.8797 32.7741 25.8842 32.7754C26.0497 32.8226 26.221 32.8467 26.3931 32.8468C26.7043 32.8468 27.012 32.7675 27.2913 32.6119C27.7232 32.3713 28.0355 31.9769 28.1706 31.5013C28.1814 31.4634 28.191 31.4254 28.1993 31.3874L31.7188 30.4124C32.2271 30.2388 32.8944 30.1762 33.1915 30.8605C33.499 31.6637 32.6998 32.1056 32.492 32.2047ZM29.3309 18.1642C29.3248 18.1342 29.3159 18.1047 29.3038 18.0761C29.292 18.048 29.278 18.0208 29.2606 17.9955C29.2437 17.9698 29.2243 17.9459 29.2025 17.9242C29.1808 17.9025 29.1569 17.883 29.1312 17.8661C29.1059 17.8492 29.0787 17.8347 29.0506 17.823C29.0224 17.8112 28.993 17.8022 28.963 17.7962C28.9025 17.7841 28.8402 17.7841 28.7797 17.7962C28.7497 17.8019 28.7202 17.8112 28.692 17.823C28.6634 17.8347 28.6363 17.8492 28.6109 17.8661C28.5852 17.883 28.5612 17.9027 28.5397 17.9242C28.5181 17.9458 28.4984 17.9697 28.4816 17.9955C28.4647 18.0208 28.4502 18.048 28.4384 18.0761C28.4266 18.1045 28.4176 18.134 28.4117 18.1642C28.4056 18.1942 28.4023 18.2252 28.4023 18.2556C28.4023 18.2861 28.4056 18.317 28.4117 18.347C28.4173 18.377 28.4267 18.4066 28.4384 18.4347C28.4502 18.4633 28.4647 18.4905 28.4816 18.5158C28.4984 18.5416 28.5181 18.5655 28.5397 18.587C28.5612 18.6086 28.5852 18.6283 28.6109 18.6452C28.6363 18.662 28.6634 18.6766 28.692 18.6883C28.7202 18.7 28.7497 18.7089 28.7797 18.715C28.8097 18.7211 28.8406 18.7244 28.8711 18.7244C28.9016 18.7244 28.9325 18.7211 28.963 18.715C28.9925 18.7089 29.022 18.7 29.0506 18.6883C29.0787 18.6766 29.1059 18.662 29.1312 18.6452C29.1569 18.6283 29.1808 18.6088 29.2025 18.587C29.2241 18.5655 29.2437 18.5416 29.2606 18.5158C29.278 18.4905 29.292 18.4633 29.3038 18.4347C29.3159 18.4066 29.3248 18.377 29.3309 18.347C29.337 18.317 29.3398 18.2861 29.3398 18.2556C29.3398 18.2252 29.337 18.1942 29.3309 18.1642Z" fill="white"/>
<path d="M36.0301 13.5876H33.2431C32.9842 13.5876 32.7743 13.7974 32.7743 14.0563V14.461H31.4673C31.2084 14.461 30.9986 14.6709 30.9986 14.9298V15.0647C30.2367 14.9982 29.9861 14.8537 29.2864 14.4502C28.7482 14.1399 27.9349 13.6709 26.4702 13.0123C26.4634 13.0093 26.4565 13.0064 26.4496 13.0037C25.9728 12.8161 24.7233 12.447 23.3887 13.0518L21.5024 13.7272L19.9125 12.1373C19.7294 11.9542 19.4326 11.9542 19.2496 12.1373L14.0297 17.3571C13.8608 17.526 13.8284 17.8189 14.0297 18.0201L22.9494 26.9398C23.0921 27.0826 23.4263 27.1258 23.6123 26.9398L28.3779 22.1743C28.5018 22.185 28.6303 22.1908 28.7636 22.1908C29.9883 22.1908 31.0715 21.3507 31.6913 20.435H36.0301C36.289 20.435 36.4989 20.2251 36.4989 19.9663V14.0563C36.4989 13.7974 36.289 13.5876 36.0301 13.5876ZM19.581 13.1316L20.6494 14.2C20.3318 14.3964 19.9646 14.5015 19.581 14.5015C19.1973 14.5015 18.8302 14.3965 18.5126 14.2L19.581 13.1316ZM16.0925 18.757L15.0241 17.6886L16.0925 16.6202C16.2889 16.9378 16.394 17.305 16.394 17.6886C16.394 18.0722 16.2889 18.4394 16.0925 18.757ZM23.2809 25.9454L22.2127 24.8772C22.8649 24.4747 23.6968 24.4747 24.349 24.8772L23.2809 25.9454ZM25.0244 24.2019C23.9885 23.4505 22.5732 23.4505 21.5374 24.2019L16.7678 19.4323C17.1338 18.9289 17.3314 18.3241 17.3314 17.6886C17.3314 17.053 17.1339 16.4483 16.7678 15.9449L17.8373 14.8754C18.3408 15.2414 18.9454 15.4391 19.581 15.4391C20.2166 15.4391 20.8213 15.2414 21.3247 14.8754L22.3386 15.8893C22.1169 15.9222 21.9031 15.9951 21.7076 16.1045C21.3716 16.2917 21.1079 16.5721 20.9438 16.9113C20.4125 17.0097 19.9235 17.267 19.5415 17.6491C18.4997 18.691 18.4997 20.3861 19.5416 21.428C20.0624 21.9488 20.7467 22.2093 21.4309 22.2093C22.1152 22.2093 22.7995 21.9489 23.3204 21.428C23.6593 21.0891 23.8967 20.6725 24.0156 20.2186L25.5983 20.7557C25.4202 21.5811 25.6026 22.4494 26.0949 23.1314L25.0244 24.2019ZM22.1745 19.5935C22.1786 19.595 22.1827 19.5965 22.1869 19.5979L23.1242 19.9161C23.0534 20.2355 22.8933 20.5292 22.6575 20.7651C21.9812 21.4413 20.8807 21.4414 20.2045 20.7651C19.5282 20.0888 19.5282 18.9884 20.2045 18.3121C20.3662 18.1502 20.5584 18.022 20.7699 17.9348C20.8564 18.6549 21.3749 19.2968 22.1745 19.5935ZM26.7703 22.456C26.59 22.1614 26.4869 21.8261 26.4708 21.4812C26.7259 21.6654 27.0038 21.8159 27.2975 21.9288L26.7703 22.456ZM30.9985 19.7794C30.5542 20.5077 29.6926 21.2532 28.7636 21.2532C28.5898 21.2532 28.4269 21.2408 28.2746 21.2188L28.2728 21.2185C27.2605 21.0714 26.7159 20.4961 26.5364 20.2683C26.5269 20.2542 26.4861 20.2009 26.4801 20.1921C26.4236 20.0909 26.3315 20.0143 26.2218 19.9772L22.4948 18.7123C21.9001 18.4891 21.5857 17.9798 21.7298 17.4718L21.7301 17.4709L21.7304 17.4697C21.763 17.3545 21.8181 17.247 21.8925 17.1532C21.9669 17.0594 22.0591 16.9813 22.1638 16.9233C22.3733 16.8058 22.6208 16.7762 22.8521 16.841L27.0518 18.1718C27.2986 18.2501 27.5621 18.1133 27.6402 17.8665C27.7184 17.6197 27.5818 17.3563 27.335 17.2781L23.9949 16.2196L23.9658 16.1905L23.9649 16.1896L22.2357 14.4604L23.722 13.9281C23.727 13.9263 23.7332 13.924 23.7381 13.922L23.7431 13.92C23.7494 13.9175 23.7557 13.9147 23.7619 13.9119C24.7668 13.4501 25.7219 13.7265 26.0963 13.8721C27.5111 14.5087 28.2663 14.9441 28.818 15.2623C29.585 15.7046 29.9547 15.9178 30.9985 16.004V19.7794ZM32.7743 19.4974H31.9361V15.3985H32.7743V19.4974ZM35.5614 19.4974H33.7118V14.5251H35.5614V19.4974Z" fill="white"/>
</svg>
