<svg width="70" height="54" viewBox="0 0 70 54" fill="none" xmlns="http://www.w3.org/2000/svg">
<circle cx="27" cy="27" r="25" fill="#F6F9FC" stroke="#101010" stroke-width="4"/>
<path d="M38 25C38 24.4696 37.7893 23.9609 37.4142 23.5858C37.0391 23.2107 36.5304 23 36 23H29.68L30.64 18.43C30.66 18.33 30.67 18.22 30.67 18.11C30.67 17.7 30.5 17.32 30.23 17.05L29.17 16L22.59 22.58C22.22 22.95 22 23.45 22 24V34C22 34.5304 22.2107 35.0391 22.5858 35.4142C22.9609 35.7893 23.4696 36 24 36H33C33.83 36 34.54 35.5 34.84 34.78L37.86 27.73C37.95 27.5 38 27.26 38 27V25ZM16 36H20V24H16V36Z" fill="#FFC000"/>
<circle cx="56" cy="40" r="13" fill="#F6F9FC" stroke="#101010" stroke-width="2"/>
<path d="M57.7964 35.5136C57.3403 35.0212 56.7033 34.75 56.0001 34.75C55.2933 34.75 54.6541 35.0195 54.2001 35.5089C53.7412 36.0037 53.5176 36.6761 53.5701 37.4022C53.6742 38.8347 54.7643 40 56.0001 40C57.236 40 58.3242 38.8349 58.4299 37.4027C58.4831 36.6831 58.2581 36.0121 57.7964 35.5136ZM60.1251 45.25H51.8751C51.7671 45.2514 51.6602 45.2287 51.5621 45.1836C51.464 45.1385 51.3772 45.072 51.3079 44.9891C51.1556 44.807 51.0942 44.5584 51.1397 44.3069C51.3375 43.2095 51.9548 42.2877 52.9251 41.6406C53.7872 41.0662 54.8791 40.75 56.0001 40.75C57.1211 40.75 58.2131 41.0664 59.0751 41.6406C60.0454 42.2875 60.6628 43.2093 60.8606 44.3066C60.9061 44.5581 60.8447 44.8068 60.6923 44.9889C60.6231 45.0718 60.5363 45.1383 60.4382 45.1835C60.3401 45.2287 60.2331 45.2514 60.1251 45.25Z" fill="#FFC000"/>
</svg>
