<svg width="70" height="54" viewBox="0 0 70 54" fill="none" xmlns="http://www.w3.org/2000/svg">
<circle cx="27" cy="27" r="25" fill="#F6F9FC" stroke="#101010" stroke-width="4"/>
<path d="M38 25C38 24.4696 37.7893 23.9609 37.4142 23.5858C37.0391 23.2107 36.5304 23 36 23H29.68L30.64 18.43C30.66 18.33 30.67 18.22 30.67 18.11C30.67 17.7 30.5 17.32 30.23 17.05L29.17 16L22.59 22.58C22.22 22.95 22 23.45 22 24V34C22 34.5304 22.2107 35.0391 22.5858 35.4142C22.9609 35.7893 23.4696 36 24 36H33C33.83 36 34.54 35.5 34.84 34.78L37.86 27.73C37.95 27.5 38 27.26 38 27V25ZM16 36H20V24H16V36Z" fill="#FFC000"/>
<circle cx="56" cy="40" r="13" fill="#F6F9FC" stroke="#101010" stroke-width="2"/>
<g clip-path="url(#clip0_874_9038)">
<path d="M51.1684 38.5198L51.6684 38.2265V39.3331H60.3351V38.2365L60.8284 38.5198C60.9046 38.5597 60.9932 38.5685 61.0758 38.5446C61.1584 38.5206 61.2285 38.4657 61.2715 38.3913C61.3145 38.3168 61.3271 38.2287 61.3067 38.1451C61.2862 38.0616 61.2343 37.9893 61.1617 37.9431L56.0017 34.9731L50.8351 37.9431C50.7952 37.964 50.76 37.9927 50.7316 38.0275C50.7031 38.0623 50.682 38.1025 50.6694 38.1456C50.6569 38.1888 50.6533 38.2341 50.6587 38.2787C50.6641 38.3233 50.6785 38.3664 50.701 38.4053C50.7235 38.4442 50.7536 38.4782 50.7896 38.5052C50.8256 38.5322 50.8666 38.5516 50.9103 38.5623C50.9539 38.573 50.9993 38.5747 51.0437 38.5674C51.088 38.5601 51.1305 38.5439 51.1684 38.5198ZM55.9517 36.3698C55.9923 36.3464 56.0383 36.3341 56.0851 36.3341C56.1319 36.3341 56.1779 36.3464 56.2184 36.3698L58.4584 37.6665H57.3851L56.0851 36.9198L54.7851 37.6665H53.7151L55.9517 36.3698Z" fill="#FFC000"/>
<path d="M60.9474 42.9998H60.6641V42.7165C60.6641 42.6148 60.6237 42.5173 60.5518 42.4454C60.4799 42.3735 60.3824 42.3331 60.2807 42.3331H59.3307V39.8765H57.9974V42.3331H56.6641V39.8765H55.3307V42.3331H53.9974V39.8765H52.6641V42.3331H51.7141C51.6124 42.3331 51.5149 42.3735 51.443 42.4454C51.3711 42.5173 51.3307 42.6148 51.3307 42.7165V42.9998H51.0474C50.9457 42.9998 50.8482 43.0402 50.7763 43.1121C50.7044 43.184 50.6641 43.2815 50.6641 43.3831V44.3331H61.3307V43.3831C61.3307 43.2815 61.2903 43.184 61.2185 43.1121C61.1466 43.0402 61.0491 42.9998 60.9474 42.9998Z" fill="#FFC000"/>
</g>
<defs>
<clipPath id="clip0_874_9038">
<rect width="12" height="12" fill="white" transform="translate(50 34)"/>
</clipPath>
</defs>
</svg>
