<svg width="505" height="319" viewBox="0 0 505 319" fill="none" xmlns="http://www.w3.org/2000/svg">
<mask id="mask0_1094_5661" style="mask-type:luminance" maskUnits="userSpaceOnUse" x="0" y="0" width="505" height="319">
<path d="M0 0H505V318.5H0V0Z" fill="white"/>
</mask>
<g mask="url(#mask0_1094_5661)">
<path fill-rule="evenodd" clip-rule="evenodd" d="M7.92859 227.572C7.92859 229.786 6.14287 231.572 3.92859 231.572C1.7143 231.572 -0.0714111 229.786 -0.0714111 227.572C-0.0714111 225.357 1.7143 223.572 3.92859 223.572C6.14287 223.572 7.92859 225.357 7.92859 227.572Z" fill="url(#paint0_linear_1094_5661)"/>
<path fill-rule="evenodd" clip-rule="evenodd" d="M28.6429 227.572C28.6429 229.786 26.8572 231.572 24.6429 231.572C22.4287 231.572 20.6429 229.786 20.6429 227.572C20.6429 225.357 22.4287 223.572 24.6429 223.572C26.8572 223.572 28.6429 225.357 28.6429 227.572Z" fill="url(#paint1_linear_1094_5661)"/>
<path fill-rule="evenodd" clip-rule="evenodd" d="M49.3572 227.572C49.3572 229.786 47.5715 231.572 45.3572 231.572C43.1429 231.572 41.3572 229.786 41.3572 227.572C41.3572 225.357 43.1429 223.572 45.3572 223.572C47.5715 223.572 49.3572 225.357 49.3572 227.572Z" fill="url(#paint2_linear_1094_5661)"/>
<path fill-rule="evenodd" clip-rule="evenodd" d="M70 227.572C70 229.786 68.2143 231.572 66 231.572C63.7857 231.572 62 229.786 62 227.572C62 225.357 63.7857 223.572 66 223.572C68.2143 223.572 70 225.357 70 227.572Z" fill="url(#paint3_linear_1094_5661)"/>
<path fill-rule="evenodd" clip-rule="evenodd" d="M90.7144 227.572C90.7144 229.786 88.9286 231.572 86.7144 231.572C84.5001 231.572 82.7144 229.786 82.7144 227.572C82.7144 225.357 84.5001 223.572 86.7144 223.572C88.9286 223.572 90.7144 225.357 90.7144 227.572Z" fill="url(#paint4_linear_1094_5661)"/>
<path fill-rule="evenodd" clip-rule="evenodd" d="M7.92859 249.286C7.92859 251.5 6.14287 253.286 3.92859 253.286C1.7143 253.286 -0.0714111 251.5 -0.0714111 249.286C-0.0714111 247.072 1.7143 245.286 3.92859 245.286C6.14287 245.286 7.92859 247.072 7.92859 249.286Z" fill="url(#paint5_linear_1094_5661)"/>
<path fill-rule="evenodd" clip-rule="evenodd" d="M28.6429 249.286C28.6429 251.5 26.8572 253.286 24.6429 253.286C22.4287 253.286 20.6429 251.5 20.6429 249.286C20.6429 247.072 22.4287 245.286 24.6429 245.286C26.8572 245.286 28.6429 247.072 28.6429 249.286Z" fill="url(#paint6_linear_1094_5661)"/>
<path fill-rule="evenodd" clip-rule="evenodd" d="M49.3572 249.286C49.3572 251.5 47.5715 253.286 45.3572 253.286C43.1429 253.286 41.3572 251.5 41.3572 249.286C41.3572 247.072 43.1429 245.286 45.3572 245.286C47.5715 245.286 49.3572 247.072 49.3572 249.286Z" fill="url(#paint7_linear_1094_5661)"/>
<path fill-rule="evenodd" clip-rule="evenodd" d="M70 249.286C70 251.5 68.2143 253.286 66 253.286C63.7857 253.286 62 251.5 62 249.286C62 247.072 63.7857 245.286 66 245.286C68.2143 245.286 70 247.072 70 249.286Z" fill="url(#paint8_linear_1094_5661)"/>
<path fill-rule="evenodd" clip-rule="evenodd" d="M90.7144 249.286C90.7144 251.5 88.9286 253.286 86.7144 253.286C84.5001 253.286 82.7144 251.5 82.7144 249.286C82.7144 247.072 84.5001 245.286 86.7144 245.286C88.9286 245.286 90.7144 247.072 90.7144 249.286Z" fill="url(#paint9_linear_1094_5661)"/>
<path fill-rule="evenodd" clip-rule="evenodd" d="M7.92859 271.072C7.92859 273.286 6.14287 275.072 3.92859 275.072C1.7143 275.072 -0.0714111 273.286 -0.0714111 271.072C-0.0714111 268.857 1.7143 267.072 3.92859 267.072C6.14287 267.072 7.92859 268.857 7.92859 271.072Z" fill="url(#paint10_linear_1094_5661)"/>
<path fill-rule="evenodd" clip-rule="evenodd" d="M28.6429 271.072C28.6429 273.286 26.8572 275.072 24.6429 275.072C22.4287 275.072 20.6429 273.286 20.6429 271.072C20.6429 268.857 22.4287 267.072 24.6429 267.072C26.8572 267.072 28.6429 268.857 28.6429 271.072Z" fill="url(#paint11_linear_1094_5661)"/>
<path fill-rule="evenodd" clip-rule="evenodd" d="M49.3572 271.072C49.3572 273.286 47.5715 275.072 45.3572 275.072C43.1429 275.072 41.3572 273.286 41.3572 271.072C41.3572 268.857 43.1429 267.072 45.3572 267.072C47.5715 267.072 49.3572 268.857 49.3572 271.072Z" fill="url(#paint12_linear_1094_5661)"/>
<path fill-rule="evenodd" clip-rule="evenodd" d="M70 271.072C70 273.286 68.2143 275.072 66 275.072C63.7857 275.072 62 273.286 62 271.072C62 268.857 63.7857 267.072 66 267.072C68.2143 267.072 70 268.857 70 271.072Z" fill="url(#paint13_linear_1094_5661)"/>
<path fill-rule="evenodd" clip-rule="evenodd" d="M90.7144 271.072C90.7144 273.286 88.9286 275.072 86.7144 275.072C84.5001 275.072 82.7144 273.286 82.7144 271.072C82.7144 268.857 84.5001 267.072 86.7144 267.072C88.9286 267.072 90.7144 268.857 90.7144 271.072Z" fill="url(#paint14_linear_1094_5661)"/>
<path fill-rule="evenodd" clip-rule="evenodd" d="M7.92859 292.786C7.92859 295 6.14287 296.786 3.92859 296.786C1.7143 296.786 -0.0714111 295 -0.0714111 292.786C-0.0714111 290.571 1.7143 288.786 3.92859 288.786C6.14287 288.857 7.92859 290.571 7.92859 292.786Z" fill="url(#paint15_linear_1094_5661)"/>
<path fill-rule="evenodd" clip-rule="evenodd" d="M28.6429 292.786C28.6429 295 26.8572 296.786 24.6429 296.786C22.4287 296.786 20.6429 295 20.6429 292.786C20.6429 290.571 22.4287 288.786 24.6429 288.786C26.8572 288.857 28.6429 290.571 28.6429 292.786Z" fill="url(#paint16_linear_1094_5661)"/>
<path fill-rule="evenodd" clip-rule="evenodd" d="M49.3572 292.786C49.3572 295 47.5715 296.786 45.3572 296.786C43.1429 296.786 41.3572 295 41.3572 292.786C41.3572 290.571 43.1429 288.786 45.3572 288.786C47.5715 288.786 49.3572 290.571 49.3572 292.786Z" fill="url(#paint17_linear_1094_5661)"/>
<path fill-rule="evenodd" clip-rule="evenodd" d="M70 292.786C70 295 68.2143 296.786 66 296.786C63.7857 296.786 62 295 62 292.786C62 290.571 63.7857 288.786 66 288.786C68.2143 288.857 70 290.571 70 292.786Z" fill="url(#paint18_linear_1094_5661)"/>
<path fill-rule="evenodd" clip-rule="evenodd" d="M90.7144 292.786C90.7144 295 88.9286 296.786 86.7144 296.786C84.5001 296.786 82.7144 295 82.7144 292.786C82.7144 290.571 84.5001 288.786 86.7144 288.786C88.9286 288.857 90.7144 290.571 90.7144 292.786Z" fill="url(#paint19_linear_1094_5661)"/>
<path fill-rule="evenodd" clip-rule="evenodd" d="M7.92859 314.572C7.92859 316.786 6.14287 318.572 3.92859 318.572C1.7143 318.572 -0.0714111 316.786 -0.0714111 314.572C-0.0714111 312.357 1.7143 310.572 3.92859 310.572C6.14287 310.572 7.92859 312.357 7.92859 314.572Z" fill="url(#paint20_linear_1094_5661)"/>
<path fill-rule="evenodd" clip-rule="evenodd" d="M28.6429 314.572C28.6429 316.786 26.8572 318.572 24.6429 318.572C22.4287 318.572 20.6429 316.786 20.6429 314.572C20.6429 312.357 22.4287 310.572 24.6429 310.572C26.8572 310.572 28.6429 312.357 28.6429 314.572Z" fill="url(#paint21_linear_1094_5661)"/>
<path fill-rule="evenodd" clip-rule="evenodd" d="M49.3572 314.572C49.3572 316.786 47.5715 318.572 45.3572 318.572C43.1429 318.572 41.3572 316.786 41.3572 314.572C41.3572 312.357 43.1429 310.572 45.3572 310.572C47.5715 310.572 49.3572 312.357 49.3572 314.572Z" fill="url(#paint22_linear_1094_5661)"/>
<path fill-rule="evenodd" clip-rule="evenodd" d="M70 314.572C70 316.786 68.2143 318.572 66 318.572C63.7857 318.572 62 316.786 62 314.572C62 312.357 63.7857 310.572 66 310.572C68.2143 310.572 70 312.357 70 314.572Z" fill="url(#paint23_linear_1094_5661)"/>
<path fill-rule="evenodd" clip-rule="evenodd" d="M90.7144 314.572C90.7144 316.786 88.9286 318.572 86.7144 318.572C84.5001 318.572 82.7144 316.786 82.7144 314.572C82.7144 312.357 84.5001 310.572 86.7144 310.572C88.9286 310.572 90.7144 312.357 90.7144 314.572Z" fill="url(#paint24_linear_1094_5661)"/>
<path fill-rule="evenodd" clip-rule="evenodd" d="M343.571 84.2859C343.571 41.6811 378.109 7.14307 420.714 7.14307C463.319 7.14307 497.857 41.6811 497.857 84.2859C497.857 126.891 463.319 161.429 420.714 161.429C378.109 161.429 343.571 126.891 343.571 84.2859Z" stroke="#FFC000" stroke-opacity="0.129412" stroke-width="20"/>
<path fill-rule="evenodd" clip-rule="evenodd" d="M349.286 84.2861C349.286 44.8372 381.266 12.8575 420.714 12.8575C460.163 12.8575 492.143 44.8372 492.143 84.2861C492.143 123.735 460.163 155.715 420.714 155.715C381.266 155.715 349.286 123.735 349.286 84.2861Z" fill="#FFC000"/>
<path fill-rule="evenodd" clip-rule="evenodd" d="M452.714 57.3576L453.357 285.786C453.357 286.572 453.286 287.358 453.071 288.072C452.857 288.929 452.5 289.786 452.071 290.5C451.071 292.215 449.5 293.572 447.643 294.358C446.643 294.786 445.571 295 444.429 295.072C444.357 295.072 444.214 295.072 444.143 295.072L41.8571 296.215C36.7142 296.215 32.5714 292.072 32.5714 287L31.9286 58.5005C31.9286 57.5005 32.0714 56.5719 32.3572 55.7148C33.5 51.929 37 49.2148 41.1429 49.2148L443.357 48.0719C443.643 48.0719 443.929 48.0719 444.214 48.1433C444.5 48.1433 444.714 48.2148 445 48.2148C445.357 48.2862 445.714 48.3576 446.071 48.429C447.643 48.8576 449 49.6433 450.071 50.7862C451.143 51.7862 451.929 53.1433 452.357 54.5719C452.429 54.7148 452.429 54.8576 452.5 55.0005C452.643 55.7862 452.714 56.5719 452.714 57.3576Z" fill="black"/>
<path fill-rule="evenodd" clip-rule="evenodd" d="M452.571 57.2862L453.214 285.715C453.214 286.5 453.143 287.286 452.929 288C452.714 288.858 452.357 289.715 451.929 290.429C450.929 292.143 449.357 293.5 447.5 294.286C446.5 294.715 445.429 294.929 444.286 295C444.214 295 444.071 295 444 295L41.7143 296.143C36.5714 296.143 32.4286 292 32.4286 286.929L31.7858 58.4291C31.7858 53.2862 35.9286 49.1433 41.0001 49.1433L443.214 48.0005C443.5 48.0005 443.786 48.0005 444.071 48.0719C444.357 48.0719 444.571 48.1433 444.857 48.1433C448.5 48.7148 451.429 51.4291 452.357 55.0005C452.5 55.7148 452.571 56.5005 452.571 57.2862Z" fill="#1F1E21"/>
<path fill-rule="evenodd" clip-rule="evenodd" d="M452.286 55.0718V67.0004C450.929 65.3575 448.786 63.6432 447.429 62.0004C446.429 60.7861 445 58.2147 444 57.0004C441.786 54.3575 439.286 54.7147 437.072 48.0718H443.143C447.572 48.0004 451.214 51.0004 452.286 55.0718Z" fill="black"/>
<path fill-rule="evenodd" clip-rule="evenodd" d="M452.357 81.3578L452.429 94.6435C437.571 79.2149 420 65.8578 407.714 48.072L423 48.0006C428.143 57.4292 433.357 60.7863 438.5 66.4292C439.714 67.7863 441.714 69.7863 443 71.2149C445.786 74.4292 449.643 78.2149 452.357 81.3578Z" fill="black"/>
<path fill-rule="evenodd" clip-rule="evenodd" d="M452.429 104.93V114.644C452.429 113.572 444.072 108.501 442.929 107.572C439.643 104.93 436.429 102.144 433.214 99.3581C424.357 91.5724 415.929 83.2867 407.143 75.3581C397.786 66.9295 388.929 58.0009 381.072 48.2152L394.643 48.1438C395.5 48.1438 399.143 54.0009 399.786 54.9295C401.643 57.2152 403.572 59.4295 405.572 61.5724C409.143 65.4295 412.857 69.0724 416.643 72.6438C427.357 82.6438 437.786 92.7866 448.786 102.43C449.786 103.287 452.429 104.072 452.429 104.93Z" fill="black"/>
<path fill-rule="evenodd" clip-rule="evenodd" d="M452.5 130.358V122.429C443.071 116.501 435.214 110.001 426.643 102.929C424.857 101.501 422.714 99.9292 420.929 98.4292C415.643 93.9292 410.072 89.215 404.572 84.2864C402.572 82.4292 400.429 80.5721 398.357 78.6435C391.643 72.3578 384.714 64.5721 377.643 57.5007C374.929 54.7864 372.072 55.0007 369.286 48.2864L356.214 48.3578C365.5 59.0721 374.5 66.9292 383.143 74.8578C383.357 75.0721 383.572 75.7864 383.786 76.0007C387.714 79.6435 391.572 83.5007 395.429 86.8578C402.643 93.2864 409.643 99.4292 416.5 104.929C418.286 106.358 420.857 107.858 422.572 109.286C432.643 117.072 441.714 124.144 452.5 130.358Z" fill="black"/>
<path fill-rule="evenodd" clip-rule="evenodd" d="M452.5 145.072V137.286C440.357 130.858 430.286 123.429 418.714 114.715C416.929 113.429 414.857 112.001 413 110.644C404.929 104.429 396.429 97.5721 387.714 90.0007C386.643 89.0721 385.5 88.1435 384.429 87.2149C380.143 83.5007 375.643 78.3578 371.143 74.2864C362.429 66.4292 353.357 60.3578 343.857 48.2864L329.071 48.3578C339.214 60.4292 348.786 66.2149 358 74.3578C365.286 80.7864 372.286 87.5721 379 93.2149C379.929 94.0007 380.929 95.1435 381.857 95.9292C391.071 103.644 399.857 110.858 408.214 117.072C410 118.358 412.5 119.786 414.214 121.001C427.571 130.572 440.357 138.572 452.5 145.072Z" fill="black"/>
<path fill-rule="evenodd" clip-rule="evenodd" d="M452.571 161.501V152.572C452.571 152.501 451.643 152.643 451.571 152.572C438.429 146.001 424.286 137.643 409.214 127.001C407.5 125.786 405.571 124.501 403.786 123.215C395.143 117.001 386 109.929 376.429 102.072C374.643 100.643 372.857 99.2148 371.071 97.7862C363.143 91.2862 354.857 83.072 346.071 75.6434C336.071 67.2148 325.429 60.4291 314.214 48.3577L295.357 48.4291C308.571 60.5005 320.786 68.5005 332.214 77.7148C342.786 86.2148 352.643 95.072 361.929 102.501C363.643 103.929 365.357 105.572 367.071 106.858C378 115.572 388.143 123.572 397.714 130.286C399.5 131.572 401.286 132.858 403 134.072C415.429 142.572 427.571 149.501 438.643 155.215C443 157.501 448.5 159.643 452.571 161.501Z" fill="black"/>
<path fill-rule="evenodd" clip-rule="evenodd" d="M246.732 50.8579L247.357 51.5722H246.643C246.643 51.5722 246.643 50.8579 246.732 50.8579Z" fill="black"/>
<path fill-rule="evenodd" clip-rule="evenodd" d="M452.643 179.215V169.929C441.857 167.001 433.929 163.215 424.5 158.215C415.857 153.429 406.5 147.787 396.857 141.215C395.071 140.001 393.143 138.715 391.286 137.501C380.571 130.001 368.857 121.215 356.143 111.072C355.214 110.358 354.143 109.572 353.214 108.787C342.643 100.501 331.214 90.2866 318.786 80.7866C305.429 70.5723 290.857 63.2152 274.929 48.4294L247.214 48.5723C268.571 63.2866 287.357 73.5009 304.143 85.5723C317.857 95.4294 330.286 105.572 341.714 114.429C342.286 114.858 342.786 115.572 343.357 116.001C357.786 127.358 370.643 137.501 382.5 145.929C384.286 147.215 386.071 148.501 387.786 149.715C394.286 154.215 401.214 158.287 407.214 161.858C422.286 170.644 435.071 176.215 452.643 179.215Z" fill="black"/>
<path fill-rule="evenodd" clip-rule="evenodd" d="M452.643 187.143V194.786C444.572 195.215 437.5 195.215 430.929 194.643C408.143 192.929 388.929 184.715 370.286 172.572C368 171.072 365.643 169.429 363.286 167.786C362.214 167 361.072 166.215 360 165.429C348.286 156.929 336.214 147 322.786 136.143C318.5 132.715 314.072 129.215 309.429 125.643C298.929 117.572 287.429 109.072 274.714 101C259.072 91.0719 241.214 81.6433 220.857 74.2862C183.714 60.2862 137.143 54.929 76.4286 71.929C62.5001 75.8576 48.2144 81.1433 31.7858 87.6433L31.7144 64.429C46.4286 59.3576 57.6429 56.2862 69.2858 49.0719C69.2858 49.0719 69.2858 49.0719 69.3572 49.0719L208 48.7147C208 48.7147 208 48.7147 208.072 48.7147C217.643 55.3576 226.714 56.1433 235.357 60.0719C256.072 69.5004 274.214 83.0004 290.357 92.2147C303.857 102.786 316 110.858 327.143 119.429C329.357 121.143 331.572 123.072 333.714 124.786C348.143 136.143 360.857 146.215 372.857 154.786C374.5 155.929 376.143 157.072 377.714 158.215C381.857 161.143 386.143 163.858 390.214 166.429C409.286 177.929 427.857 185.215 449.857 187.072C450.5 187.143 452.643 187.143 452.643 187.143Z" fill="black"/>
<path fill-rule="evenodd" clip-rule="evenodd" d="M452.714 201.072V207.215C451.357 207.715 447.572 208.286 445.429 208.715C440.214 209.858 434.5 210.858 429.714 211.643C418.357 213.501 408 214.215 398.357 213.715C397.572 213.643 396.857 213.643 396.072 213.572C371.643 212.143 352.072 202.429 333.429 189.286C332.714 188.786 331.929 188.215 331.143 187.643C330.072 186.858 329 186.143 327.929 185.358C319.429 179.143 311 172.286 302.286 165.143C293.357 157.858 284 150.286 273.929 142.786C264.929 136.215 255.214 129.786 244.643 123.929C229.214 115.429 211.429 108.429 190.857 104.715C156.286 97.3577 112.643 101.643 56.6429 122.643C48.7143 125.572 41.2143 128.858 31.8572 132.429L31.7858 108.786C45.2857 103.643 56.1429 99.1434 67.4286 95.4291C125.857 76.2863 171.286 76.9291 207.143 87.7148C227.429 93.3577 244.929 101.572 260.429 110.786C272.286 117.786 282.929 125.358 292.857 132.786C299.929 138.143 306.572 143.429 312.929 148.572C325 158.358 336.143 167.501 347.072 175.501C347.357 175.715 347.714 175.929 348 176.215C349.643 177.358 351.286 178.572 352.929 179.643C371.572 192.286 390.429 201.358 413.714 203.001C417.143 203.286 420.786 203.429 424.429 203.429C430.214 203.429 436.643 203.001 443.072 202.215C446 201.929 450 201.501 452.714 201.072Z" fill="black"/>
<path fill-rule="evenodd" clip-rule="evenodd" d="M452.714 212.358V217.858C443.286 221.286 434.714 224.286 426.643 226.858C422.857 228.072 418.429 229.144 414.786 230.144C399.5 234.358 385.572 236.715 372.929 237.001C371 237.072 369.072 237.072 367.214 237.001C340.572 236.644 319.072 226.644 299.572 213.501H299.5C296 211.358 292.5 209.001 289.071 206.644C288.143 206.001 287.143 205.358 286.214 204.715C264.286 189.144 243.357 170.429 216.786 158.215C200.5 150.715 181.857 145.644 159.714 145.286C127.572 143.572 86.8573 155.072 36.5716 176.429C35.0716 177.072 33.643 177.644 32.0715 178.286L32.0001 154.144C38.0001 151.929 42.0002 149.858 47.0002 147.858C100.357 126.215 143.072 118.072 176.5 122.572C197.643 124.929 215.429 130.858 231.072 138.715C255.5 150.929 274.857 167.786 293.786 182.786C298.643 186.715 303.5 190.501 308.429 194.001C311 195.858 313.572 197.644 316.143 199.358C316.357 199.501 316.572 199.644 316.786 199.786C335.714 213.144 356.214 223.144 381.571 224.215C382.143 224.215 382.786 224.286 383.429 224.286C395 224.715 407.857 223.358 421.857 220.429C426.071 219.501 430.857 218.501 435.357 217.286C440.714 215.786 448.643 214.144 452.714 212.358Z" fill="black"/>
<path fill-rule="evenodd" clip-rule="evenodd" d="M452.714 222.715V228.072C439.286 234.858 426.572 240.715 414.929 245.644C412.429 246.715 409.214 247.715 406.786 248.715C392.857 254.286 379.929 258.358 367.857 261.001C360.572 262.572 353.643 263.572 346.929 264.001C321.572 266.001 300.072 259.715 280.357 250.644C277.714 249.429 275.072 248.144 272.429 246.858C271.643 246.429 270.857 246.072 270.072 245.644C269.429 245.286 268.643 244.929 267.929 244.572C243.714 231.501 221.214 215.644 195.5 205.858C176.5 198.644 155.214 194.644 130.214 197.429C103.072 199.858 71.143 211.286 32.0715 226.929L32.143 200.858C77.8572 181.215 115.572 169.286 145.929 168.501C169 167.501 188.357 171.929 205.714 179.215C231.929 190.215 253.572 207.644 276.429 222.501C278.286 223.715 280.143 224.858 282 226.072C282.929 226.715 283.929 227.286 284.857 227.858C285.072 228.001 285.286 228.072 285.5 228.215C306.357 240.572 328.857 250.144 356.357 249.501C360.286 249.429 364.429 249.215 368.643 248.786C381.429 247.429 395.429 244.144 410.643 239.072C413.714 238.072 417.214 236.929 420.357 235.786C430.357 232.144 440.643 227.786 452.714 222.715Z" fill="black"/>
<path fill-rule="evenodd" clip-rule="evenodd" d="M452.786 233.072V238.715C452.786 239.286 450.071 239.929 449.071 240.501C434.714 249.501 420.5 257.572 407.643 264.501C406.357 265.215 405 265.929 403.786 266.572C393.071 272.286 382.857 277.144 373.071 281.215C361.071 286.215 349.714 289.929 339 292.358C332.929 293.786 327 294.786 321.286 295.429L288.786 295.501C288 295.429 287.286 295.358 286.5 295.215C281.071 294.572 275.714 293.644 270.5 292.572C265.929 291.644 261.429 290.501 257 289.358C254.071 288.501 251.143 287.644 248.286 286.644C244.571 285.429 240.786 284.215 237.071 282.929C221.214 277.429 205.643 271.644 189.786 267.072C165 260.001 138.643 256.144 107.929 261.929C85.6429 265.429 59.8572 274.001 32.3572 283.644L32.2858 252.644C66.0001 240.001 93.9286 229.715 118.571 226.572C145.857 222.215 169.571 226.001 190.786 233.215C214.214 241.215 235.714 253.501 258.857 263.786C260.357 264.429 261.929 265.144 263.429 265.786C264.5 266.215 265.5 266.572 266.5 267.001C271.5 268.929 276.643 270.715 281.857 272.286C299.857 277.715 319.357 280.501 341.429 277.286C350.357 276.144 359.857 274.001 369.714 270.858C380.714 267.429 392.5 262.858 404.929 257.144C406.857 256.286 408.929 255.358 410.857 254.429C422.857 248.715 435.929 241.929 449.357 234.286C450.357 234.001 452.786 233.501 452.786 233.072Z" fill="black"/>
<path fill-rule="evenodd" clip-rule="evenodd" d="M196.929 295.715L86.2859 296C90.3573 294.286 94.5002 292.858 98.8573 291.643C115.572 287.072 131.786 283.643 149.214 284.715C165.286 285.715 180.929 289.786 196 295.215C196.286 295.358 196.643 295.5 196.929 295.715Z" fill="black"/>
<path fill-rule="evenodd" clip-rule="evenodd" d="M452.786 243.858V250.001C435.286 262.215 420.357 273.572 405.714 283.644C405.643 283.715 404.857 283.929 404.714 284.001C399.143 287.787 393.714 291.572 388.357 295.144L366 295.215C369.357 293.929 372.786 292.644 376.286 290.858C385.143 286.358 394.357 280.572 403.857 274.929C404.572 274.501 405.5 274.072 406.214 273.644C420.357 265.144 435.643 255.501 451.429 244.572C451.714 244.429 452.786 244.001 452.786 243.858Z" fill="black"/>
<path fill-rule="evenodd" clip-rule="evenodd" d="M452.857 255.929V263.001C439.214 273.715 428 284.501 416.786 295.143L402 295.215C404.072 293.858 406.143 292.501 407.929 291.143C413.5 286.858 418.857 282.286 424.286 277.858C428.857 274.215 433.429 270.572 438 267.001C440.5 265.072 443 263.143 445.5 261.286C446.5 260.572 452.857 256.858 452.857 255.929Z" fill="black"/>
<path fill-rule="evenodd" clip-rule="evenodd" d="M452.857 270.143V279.358C447.143 284.572 442.143 289.072 437.286 295.072H425.929C434.5 285.286 443.286 278.501 452.857 270.143Z" fill="black"/>
<path fill-rule="evenodd" clip-rule="evenodd" d="M451.929 290.501C450.929 292.215 449.357 293.572 447.5 294.358C449.071 292.858 450.643 291.786 451.929 290.501Z" fill="black"/>
<path fill-rule="evenodd" clip-rule="evenodd" d="M452.286 55.0005V66.7862C450.929 65.1433 448.857 63.5005 447.5 61.7862C446.5 60.5719 445.143 58.0719 444.071 56.8576C441.929 54.2862 439.429 54.6433 437.286 48.0005H443.286C447.643 48.0005 451.286 51.0005 452.286 55.0005Z" fill="#2A2738"/>
<path fill-rule="evenodd" clip-rule="evenodd" d="M452.357 80.929L452.429 94.0719C437.714 78.8576 420.429 65.6433 408.286 48.1433L423.357 48.0719C428.5 57.3576 433.571 60.7148 438.643 66.2862C439.857 67.6433 441.786 69.6433 443.071 71.0005C445.929 74.1433 449.714 77.8576 452.357 80.929Z" fill="#2A2738"/>
<path fill-rule="evenodd" clip-rule="evenodd" d="M452.429 104.215V113.786C452.429 112.715 444.214 107.715 443 106.786C439.714 104.143 436.571 101.429 433.429 98.6433C424.643 91.0005 416.357 82.7862 407.643 74.929C398.429 66.6433 389.643 57.7862 381.857 48.1433L395.214 48.0719C396.071 48.0719 399.643 53.8576 400.357 54.7148C402.214 57.0005 404.071 59.1433 406.071 61.2862C409.571 65.0719 413.286 68.7148 417.071 72.2148C427.643 82.0719 437.929 92.0719 448.857 101.643C449.786 102.572 452.429 103.358 452.429 104.215Z" fill="#2A2738"/>
<path fill-rule="evenodd" clip-rule="evenodd" d="M452.5 129.287V121.429C443.143 115.572 435.429 109.144 426.929 102.144C425.143 100.715 423.071 99.2151 421.286 97.7151C416.071 93.2865 410.571 88.6437 405.143 83.7151C403.143 81.9294 401.071 80.0723 399 78.1437C392.357 71.9294 385.5 64.2151 378.5 57.2865C375.786 54.6437 373 54.7865 370.286 48.1437H357.357C366.571 58.7151 375.429 66.5008 383.929 74.2865C384.143 74.5008 384.357 75.2151 384.5 75.4294C388.357 79.0723 392.214 82.7865 396 86.1437C403.143 92.5008 410.071 98.5723 416.786 104.001C418.571 105.429 421.071 106.929 422.786 108.287C432.929 116.215 441.857 123.144 452.5 129.287Z" fill="#2A2738"/>
<path fill-rule="evenodd" clip-rule="evenodd" d="M452.5 143.858V136.143C440.5 129.858 430.571 122.429 419.143 113.858C417.429 112.572 415.286 111.215 413.5 109.858C405.571 103.715 397.143 96.9291 388.5 89.4291C387.429 88.5005 386.286 87.572 385.286 86.6434C381 82.9291 376.643 77.9291 372.143 73.9291C363.571 66.2148 354.571 60.2148 345.143 48.2863L330.5 48.3577C340.5 60.2863 350 66.0006 359.071 74.0005C366.286 80.3577 373.143 87.0005 379.786 92.6434C380.714 93.4291 381.643 94.5005 382.643 95.2863C391.714 102.929 400.429 110.072 408.643 116.215C410.429 117.501 412.857 118.858 414.571 120.143C427.857 129.572 440.5 137.429 452.5 143.858Z" fill="#2A2738"/>
<path fill-rule="evenodd" clip-rule="evenodd" d="M452.571 160.072V151.215C452.571 151.143 451.643 151.286 451.571 151.215C438.643 144.715 424.643 136.5 409.714 125.929C408 124.715 406.071 123.5 404.357 122.215C395.857 116.072 386.786 109.072 377.286 101.358C375.571 100 373.786 98.5718 372 97.1432C364.214 90.7147 355.929 82.6432 347.357 75.2861C337.5 66.9289 327 60.2861 315.857 48.3575L297.143 48.429C310.214 60.3575 322.286 68.2147 333.571 77.3575C344 85.7861 353.714 94.5004 362.929 101.786C364.643 103.143 366.357 104.786 368 106.143C378.857 114.786 388.857 122.643 398.286 129.286C400.071 130.572 401.786 131.786 403.5 133C415.786 141.429 427.786 148.286 438.714 153.929C443.143 156.143 448.571 158.215 452.571 160.072Z" fill="#2A2738"/>
<path fill-rule="evenodd" clip-rule="evenodd" d="M249.304 50.8578L249.929 51.5721H249.214C249.214 51.5721 249.214 50.8578 249.304 50.8578Z" fill="#2A2738"/>
<path fill-rule="evenodd" clip-rule="evenodd" d="M452.643 177.572V168.429C442 165.501 434.143 161.858 424.857 156.858C416.357 152.144 407.143 146.572 397.571 140.072C395.857 138.858 393.857 137.644 392.071 136.358C381.429 128.929 369.929 120.215 357.357 110.286C356.429 109.572 355.429 108.786 354.429 108.072C344 99.9293 332.643 89.7864 320.429 80.4293C307.214 70.3579 292.857 63.0722 277.143 48.5007L249.786 48.5722C270.857 63.1436 289.429 73.215 306 85.1436C319.571 94.8579 331.786 104.929 343.071 113.644C343.643 114.072 344.143 114.786 344.714 115.215C359 126.429 371.643 136.429 383.357 144.786C385.143 146.072 386.857 147.358 388.571 148.572C395 153.001 401.786 157.001 407.786 160.572C422.643 169.144 435.286 174.644 452.643 177.572Z" fill="#2A2738"/>
<path fill-rule="evenodd" clip-rule="evenodd" d="M452.643 193.001V185.429C452.643 185.358 450.5 185.358 449.786 185.286C428 183.501 409.714 176.286 390.857 164.929C386.857 162.429 382.643 159.715 378.571 156.858C377 155.786 375.357 154.643 373.786 153.501C362 145.001 349.357 135.072 335.143 123.858C333 122.215 330.857 120.572 328.643 118.858C317.643 110.358 305.643 101.501 292.286 92.2149C276.357 83.0006 258.429 69.5006 238 60.1435C229.5 56.2149 220.5 55.2149 211 48.572L74.0714 48.9292C61.1429 57.0006 48.7857 59.9292 31.5 66.1435L31.5714 89.2863C50.1429 81.9292 65.8571 75.9292 81.1429 71.572C141.071 54.7863 187.143 60.1435 223.786 73.9292C243.857 81.2149 261.5 90.5006 276.929 100.286C289.5 108.286 300.857 116.643 311.214 124.643C315.714 128.215 320.143 131.715 324.357 135.072C337.643 145.786 349.571 155.572 361.143 164.001C362.214 164.786 363.357 165.572 364.429 166.358C366.714 168.001 369.071 169.572 371.357 171.143C389.786 183.143 408.786 191.286 431.286 192.929C437.714 193.429 444.643 193.501 452.643 193.001Z" fill="#2A2738"/>
<path fill-rule="evenodd" clip-rule="evenodd" d="M452.714 205.214V199.143C450.072 199.572 446.143 200 443.286 200.286C436.929 201.072 430.572 201.429 424.857 201.429C421.286 201.429 417.643 201.286 414.286 201C391.286 199.357 372.714 190.429 354.286 177.929C352.714 176.786 351 175.714 349.429 174.5C349.143 174.286 348.786 174.072 348.5 173.857C337.643 165.929 326.714 156.857 314.786 147.214C308.5 142.143 301.929 136.929 295 131.572C285.214 124.214 274.714 116.786 263 109.857C247.714 100.786 230.429 92.643 210.429 87.0716C175 76.4288 130.143 75.8573 72.4286 94.7145C59.8572 98.8573 47.6429 104 31.7144 110L31.7858 133.286C43.7143 129 52.4286 125.072 61.7143 121.572C117 100.857 160.143 96.5716 194.214 103.857C214.571 107.572 232.071 114.5 247.357 122.857C257.786 128.572 267.429 135 276.286 141.429C286.286 148.786 295.5 156.286 304.286 163.5C312.929 170.5 321.214 177.286 329.643 183.429C330.714 184.214 331.714 184.929 332.786 185.714C333.5 186.286 334.286 186.786 335 187.286C353.429 200.286 372.786 209.857 396.857 211.286C397.571 211.357 398.357 211.357 399.071 211.429C408.571 211.929 418.786 211.214 430 209.357C434.786 208.572 440.429 207.643 445.572 206.5C447.643 206.214 451.357 205.714 452.714 205.214Z" fill="#2A2738"/>
<path fill-rule="evenodd" clip-rule="evenodd" d="M452.714 215.715V210.286C448.714 212.072 440.857 213.643 435.571 215.072C431.143 216.215 426.429 217.286 422.286 218.215C408.429 221.143 395.786 222.501 384.357 222.072C383.786 222.072 383.143 222.072 382.572 222.001C357.5 220.929 337.286 211.072 318.572 197.858C318.357 197.715 318.143 197.572 317.929 197.429C315.357 195.715 312.786 194.001 310.286 192.143C305.429 188.643 300.643 184.929 295.857 181.072C277.214 166.215 258.143 149.572 233.929 137.501C218.429 129.786 200.857 123.929 180 121.572C147.071 117.072 104.857 125.143 52.1429 146.501C45.8572 149.001 41.0715 151.715 31.7858 154.572L31.8572 178.572C35.8572 177.286 38.8572 176.001 41.8572 174.786C91.5001 153.643 131.643 142.286 163.429 144.001C185.286 144.358 203.714 149.358 219.786 156.786C246 168.858 266.643 187.286 288.357 202.715C289.286 203.358 290.214 204.001 291.143 204.643C294.5 207.001 297.929 209.286 301.429 211.429H301.5C320.786 224.429 342 234.358 368.357 234.643C370.214 234.715 372.072 234.715 374 234.643C386.572 234.358 400.214 232.001 415.357 227.858C418.929 226.858 423.286 225.786 427.071 224.572C434.929 222.072 443.429 219.143 452.714 215.715Z" fill="#2A2738"/>
<path fill-rule="evenodd" clip-rule="evenodd" d="M452.786 225.786V220.5C440.857 225.5 430.643 229.786 420.857 233.429C417.714 234.572 414.286 235.643 411.286 236.643C396.214 241.643 382.429 244.929 369.786 246.286C365.643 246.715 361.571 246.929 357.643 247C330.429 247.572 308.286 238.215 287.643 225.929C287.429 225.786 287.214 225.715 287 225.572C286.071 225 285.071 224.429 284.143 223.858C282.286 222.715 280.429 221.572 278.643 220.358C256.071 205.715 234.714 188.429 208.857 177.572C191.714 170.358 172.571 166 149.786 167C118.857 167.786 80.2143 180.286 33.1429 200.786C33 200.858 31.8572 200.858 31.8572 200.929L31.9286 226.929C73 210.286 106.286 198.072 134.357 195.572C159 192.786 180.071 196.715 198.786 203.858C224.214 213.572 246.357 229.143 270.286 242.072C270.929 242.429 271.714 242.786 272.429 243.143C273.143 243.572 274 243.929 274.714 244.358C277.286 245.643 279.929 246.929 282.571 248.143C302.071 257.143 323.286 263.286 348.357 261.286C354.929 260.858 361.857 259.858 369 258.358C380.929 255.786 393.643 251.786 407.429 246.286C409.857 245.358 413 244.286 415.5 243.215C426.929 238.286 439.429 232.5 452.786 225.786Z" fill="#2A2738"/>
<path fill-rule="evenodd" clip-rule="evenodd" d="M452.786 236.286V230.715C452.786 231.215 450.357 231.643 449.571 232.143C436.286 239.715 423.357 246.358 411.5 252.001C409.571 252.929 407.5 253.786 405.643 254.643C393.357 260.286 381.786 264.786 370.857 268.215C361.071 271.286 351.786 273.358 342.929 274.572C321.071 277.715 301.857 275.001 284.071 269.643C278.929 268.072 273.857 266.286 268.929 264.358C267.929 263.929 266.857 263.572 265.857 263.144C264.357 262.501 262.786 261.858 261.286 261.143C238.429 251.001 217.214 238.858 194.071 230.929C173.143 223.786 149.643 220.001 122.786 224.358C97.1429 227.715 67.8571 238.786 32 252.143L32.0714 282.572C61.2143 272.358 88.7143 262.929 112.214 259.215C142.5 253.429 168.5 257.215 193 264.286C208.643 268.786 224 274.501 239.643 279.929C243.286 281.215 247 282.429 250.714 283.572C253.5 284.501 256.429 285.358 259.286 286.215C263.643 287.358 268.143 288.501 272.643 289.429C277.786 290.501 283.071 291.429 288.429 292.072C304.429 294.001 321.5 293.644 340.286 289.215C350.929 286.858 362.143 283.143 373.929 278.215C383.571 274.215 393.714 269.358 404.286 263.786C405.571 263.143 406.857 262.429 408.143 261.715C420.786 254.858 434.857 246.929 449.071 238.072C450.071 237.501 452.786 236.858 452.786 236.286Z" fill="#2A2738"/>
<path fill-rule="evenodd" clip-rule="evenodd" d="M204.929 295.715L83.9286 296.072C90.2143 293.072 96.4286 290.572 103.214 288.715C119.714 284.143 135.714 280.786 152.929 281.857C168.786 282.857 184.214 286.929 199.143 292.215C201.071 292.857 203 294.5 204.929 295.715Z" fill="#2A2738"/>
<path fill-rule="evenodd" clip-rule="evenodd" d="M452.786 241.429V247.5C435.5 259.572 420.786 270.786 406.286 280.715C406.214 280.786 405.429 281 405.357 281.072C398.286 285.929 391.357 290.715 384.571 295.143L359.643 295.215C365.429 292.5 371.286 290.858 377.357 287.786C386.071 283.286 395.214 277.643 404.571 272C405.286 271.572 406.143 271.143 406.857 270.715C420.786 262.358 435.929 252.786 451.5 242C451.714 242 452.786 241.572 452.786 241.429Z" fill="#2A2738"/>
<path fill-rule="evenodd" clip-rule="evenodd" d="M452.857 253.358V260.358C438 272 426.214 283.715 413.929 295.143L398.357 295.215C401.571 292.572 405.429 290.5 408.5 288.072C414 283.858 419.286 279.286 424.714 275C429.214 271.429 433.714 267.786 438.286 264.286C440.714 262.429 443.214 260.5 445.714 258.643C446.571 257.929 452.857 254.215 452.857 253.358Z" fill="#2A2738"/>
<path fill-rule="evenodd" clip-rule="evenodd" d="M452.857 267.358V276.429C446.286 282.429 440.643 287.501 435.143 295.072H423.714C432.929 283.643 442.429 276.501 452.857 267.358Z" fill="#2A2738"/>
<path fill-rule="evenodd" clip-rule="evenodd" d="M452.929 286.215V288.072C451.929 292.001 448.5 294.929 444.286 295.072C447.286 290.429 450.857 289.286 452.929 286.215Z" fill="#2A2738"/>
<path fill-rule="evenodd" clip-rule="evenodd" d="M41.5716 294.786C37.2144 294.786 33.643 291.215 33.643 286.858L32.9287 58.429C32.9287 54.0718 36.4287 50.5004 40.8573 50.5004L443.143 49.3575C447.5 49.3575 451.072 52.929 451.072 57.2861L451.714 285.715C451.714 290.072 448.214 293.643 443.786 293.643L41.5716 294.786Z" fill="url(#paint25_linear_1094_5661)"/>
<path fill-rule="evenodd" clip-rule="evenodd" d="M450.857 57.286L451.5 285.715C451.5 290.072 448 293.643 443.572 293.643L41.2858 294.786C36.9287 294.786 33.3572 291.286 33.3572 286.857L32.7144 58.4289C32.7144 54.0717 36.2144 50.5003 40.6429 50.5003L442.929 49.3574C447.286 49.3574 450.857 52.8574 450.857 57.286Z" fill="url(#paint26_linear_1094_5661)" fill-opacity="0.7"/>
<path fill-rule="evenodd" clip-rule="evenodd" d="M115.72 175.982L56.6521 176.154C55.0185 176.154 53.7288 174.864 53.7288 173.231L53.6428 134.024C53.6428 132.391 54.9325 131.101 56.5661 131.101L115.634 130.929C117.267 130.929 118.557 132.219 118.557 133.852L118.643 173.059V173.145C118.643 174.692 117.353 175.982 115.72 175.982Z" fill="#FFAD45"/>
<path fill-rule="evenodd" clip-rule="evenodd" d="M89.5814 170.6L115.547 170.531L115.548 170.961L89.5825 171.03L89.5814 170.6Z" fill="white"/>
<path fill-rule="evenodd" clip-rule="evenodd" d="M95.6006 159.532C95.6006 159.818 95.6866 159.962 95.6866 160.248L115.462 160.105V159.389L95.6006 159.532Z" fill="white"/>
<path fill-rule="evenodd" clip-rule="evenodd" d="M95.3423 148.383C94.9984 149.587 94.3965 150.705 93.6227 151.736C93.1068 152.338 92.9349 153.026 93.0209 153.714C93.1068 153.112 93.2788 152.596 93.7087 152.166C94.4825 151.134 95.0844 150.017 95.4283 148.813L115.547 148.727V148.297L95.3423 148.383Z" fill="white"/>
<path fill-rule="evenodd" clip-rule="evenodd" d="M89.4965 134.145L115.462 134.077L115.463 134.507L89.4977 134.575L89.4965 134.145Z" fill="white"/>
<path fill-rule="evenodd" clip-rule="evenodd" d="M91.0441 169.706H91.6459C94.2253 167.901 95.7729 164.977 95.7729 161.796V161.538C95.7729 164.977 93.8814 167.986 91.0441 169.706Z" fill="white"/>
<path fill-rule="evenodd" clip-rule="evenodd" d="M94.8263 144.686C94.4824 141.333 92.161 138.495 88.8938 137.378H88.8078L88.6359 137.292V137.722L88.8078 137.807H88.8938C92.161 138.925 94.4824 141.763 94.8263 145.116C94.8263 145.374 94.8263 145.632 94.9123 145.89C94.8263 145.46 94.8263 145.03 94.8263 144.686Z" fill="white"/>
<path fill-rule="evenodd" clip-rule="evenodd" d="M94.6545 159.474C94.5685 159.131 94.4825 158.873 94.3966 158.615C94.0526 157.583 93.5368 156.637 92.8489 155.863C92.3331 155.261 92.0751 154.488 91.9891 153.714C91.9032 154.574 92.2471 155.519 92.8489 156.207C93.5368 157.067 94.0526 157.927 94.3966 158.959C94.4825 159.217 94.5685 159.56 94.6545 159.818C94.7405 160.334 94.8265 160.85 94.8265 161.452C94.8265 161.366 94.8265 161.366 94.8265 161.28C94.9124 160.764 94.8265 160.076 94.6545 159.474Z" fill="white"/>
<path fill-rule="evenodd" clip-rule="evenodd" d="M56.8246 159.618V160.334L76.5998 160.191C76.5998 159.904 76.6857 159.761 76.6857 159.474L56.8246 159.618ZM78.6633 151.736C77.8895 150.704 77.2876 149.587 76.8577 148.383L56.7387 148.469V148.899L76.8577 148.813C77.2016 150.017 77.8035 151.134 78.6633 152.166C79.0072 152.596 79.2651 153.112 79.2651 153.714C79.3511 153.026 79.0932 152.338 78.6633 151.736ZM79.3511 155.949C78.6633 156.809 78.1474 157.669 77.8895 158.7C77.8035 158.958 77.7175 159.302 77.6315 159.56C77.4596 160.248 77.4596 160.85 77.4596 161.538C77.4596 161.022 77.5455 160.506 77.6315 159.904C77.7175 159.56 77.8035 159.302 77.8895 159.044C78.2334 158.099 78.7492 157.153 79.3511 156.293C79.9529 155.519 80.2969 154.573 80.2109 153.628C80.2109 154.487 79.9529 155.261 79.3511 155.949ZM56.8246 137.435V138.151L80.6408 138.008C80.8127 137.722 81.0707 137.578 81.2426 137.292L56.8246 137.435ZM76.5998 162.484C76.5998 162.14 76.5138 161.882 76.5138 161.624C76.5138 162.054 76.5138 162.484 76.5998 162.913C76.9437 165.751 78.4913 168.244 80.7268 169.792H81.3286C78.7492 168.244 76.9437 165.579 76.5998 162.484ZM56.7387 134.254V134.97L82.7043 134.827V134.11L56.7387 134.254ZM56.9106 170.795V171.511L82.8762 171.368V170.652L56.9106 170.795ZM56.6527 173.919C56.2228 173.919 55.9648 173.661 55.9648 173.231V173.661C55.9648 174.091 56.2228 174.349 56.6527 174.349L82.7902 174.263V173.833L56.6527 173.919ZM83.3921 137.292H83.3061C79.781 138.495 77.3736 141.849 77.3736 145.546C77.3736 145.632 77.3736 145.718 77.3736 145.718C77.4596 142.021 79.781 138.839 83.3061 137.636H83.3921L83.5641 137.55V137.12L83.3921 137.292Z" fill="white"/>
<path fill-rule="evenodd" clip-rule="evenodd" d="M95.6866 159.905C95.6866 160.421 96.5464 161.022 96.5464 161.538V161.366C96.5464 160.85 96.5464 160.335 95.6866 159.905Z" fill="white"/>
<path fill-rule="evenodd" clip-rule="evenodd" d="M77.3725 159.904C76.5127 160.42 76.5127 161.022 76.5127 161.538C76.5126 161.022 77.3725 160.506 77.3725 159.904Z" fill="white"/>
<g opacity="0.8">
<path fill-rule="evenodd" clip-rule="evenodd" d="M115.633 133.165L89.4958 133.251V131.015H88.636V133.251V134.11V137.206L88.8079 137.292H88.8939C92.1611 138.409 94.4825 141.247 94.8265 144.6C94.9124 145.546 94.9124 146.491 94.6545 147.437C94.5685 147.781 94.4825 148.039 94.3966 148.297C94.0527 149.243 93.5368 150.188 92.9349 151.048C91.8172 152.424 91.8172 154.401 92.9349 155.777C93.6228 156.637 94.1386 157.497 94.4826 158.528C94.5685 158.786 94.6545 159.13 94.7405 159.388C94.9124 159.99 94.9124 160.592 94.9124 161.28C94.9124 165.063 92.505 168.33 88.9799 169.534L88.8079 169.62L88.636 169.706V172.801V173.661V175.896H89.4958V173.661L115.633 173.575C115.977 173.575 116.321 173.231 116.321 172.887V170.393V169.534V159.302V158.442V148.211V147.351V133.766C116.321 133.423 115.977 133.165 115.633 133.165ZM115.461 172.801L89.4958 172.887V170.565L115.461 170.479V172.801ZM115.461 169.62L90.9574 169.706C93.8807 167.986 95.7722 164.891 95.6863 161.366C95.6863 160.764 95.6003 160.076 95.5143 159.474L115.375 159.388L115.461 169.62ZM115.461 158.528L95.3423 158.614C94.9984 157.411 94.3966 156.293 93.5368 155.261C92.677 154.229 92.677 152.768 93.5368 151.736C94.3106 150.704 94.9124 149.587 95.2564 148.383L115.375 148.297L115.461 158.528ZM95.6003 147.523C95.7722 146.577 95.8582 145.632 95.7722 144.6C95.4283 141.505 93.6228 138.839 91.0434 137.292C90.6135 137.034 90.0976 136.776 89.5818 136.604V134.11L115.547 134.024V147.437L95.6003 147.523Z" fill="#934606"/>
<path fill-rule="evenodd" clip-rule="evenodd" d="M82.7041 133.251L56.5665 133.337C56.2226 133.337 55.8787 133.681 55.8787 134.025V136.518V137.378V147.61V148.47V158.701V159.561V169.792V170.652V173.145C55.8787 173.575 56.1366 173.833 56.5665 173.833H82.79V176.069H83.6498V173.833V172.973V169.878L83.4779 169.792L83.3059 169.706C80.1247 168.589 77.7173 165.751 77.3734 162.398C77.2874 161.452 77.2874 160.507 77.5453 159.561C77.6313 159.217 77.7173 158.959 77.8033 158.701C78.1472 157.755 78.663 156.809 79.2649 155.95C80.3826 154.574 80.3826 152.596 79.2649 151.221C78.5771 150.361 78.0612 149.415 77.7173 148.47C77.6313 148.212 77.5453 147.868 77.4593 147.61C77.2874 147.008 77.2014 146.406 77.2014 145.718C77.2014 141.935 79.6088 138.668 83.1339 137.464H83.2199L83.3919 137.378V134.283V133.423V131.188H82.5321L82.7041 133.251ZM82.79 172.887L56.9104 172.973V170.652L82.876 170.566L82.79 172.887ZM81.3284 169.706L56.8244 169.792V159.561L76.6855 159.475C76.5136 160.421 76.4276 161.452 76.5996 162.398C76.9435 165.579 78.749 168.245 81.3284 169.706ZM78.663 151.737C79.5228 152.768 79.5228 154.23 78.663 155.262C77.8892 156.294 77.2874 157.411 76.9435 158.529L56.8244 158.615V148.384L76.9435 148.298C77.2874 149.673 77.8892 150.791 78.663 151.737ZM76.5136 145.632C76.5136 146.234 76.5996 146.922 76.6855 147.524L56.8244 147.61V137.378L81.2424 137.292C78.3191 139.012 76.4276 142.193 76.5136 145.632ZM82.7041 136.432L56.7385 136.518V134.197L82.7041 134.111V136.432Z" fill="#934606"/>
</g>
<path fill-rule="evenodd" clip-rule="evenodd" d="M409 63.7859C408.714 63.5717 408.357 63.3574 408.071 63.1431C407.571 62.7859 406.929 63.0002 406.643 63.4288V63.5002C406.286 64.0002 406.429 64.6431 406.929 65.0002C407.214 65.2145 407.5 65.4288 407.786 65.6431C411.786 68.7859 414.357 73.6431 414.357 79.0716C414.357 84.4288 411.929 89.2145 408.071 92.3573C407.786 92.5716 407.5 92.7859 407.214 93.0716C406.714 93.4288 406.571 94.0716 406.929 94.5716V94.6431C407.286 95.1431 407.929 95.2859 408.429 94.9288C408.714 94.7145 409.071 94.5002 409.357 94.2145C413.786 90.643 416.571 85.2145 416.571 79.0716C416.5 72.8573 413.571 67.2859 409 63.7859Z" fill="white"/>
<path fill-rule="evenodd" clip-rule="evenodd" d="M404.571 70.2148C404.286 70.0005 404 69.7148 403.714 69.5719C403.214 69.2148 402.571 69.3576 402.214 69.8576V69.9291C401.857 70.429 402 71.0719 402.5 71.429C402.786 71.6433 403.071 71.8576 403.357 72.1433C405.357 73.8576 406.571 76.429 406.571 79.2148C406.571 81.929 405.429 84.3576 403.643 86.0719C403.357 86.3576 403.071 86.5719 402.714 86.7862C402.214 87.1433 402.143 87.7862 402.5 88.2862V88.3576C402.857 88.8576 403.571 89.0005 404 88.6433C404.286 88.429 404.571 88.2148 404.857 87.929C407.286 85.7862 408.786 82.7148 408.786 79.2148C408.786 75.5005 407.143 72.2862 404.571 70.2148Z" fill="white"/>
<path fill-rule="evenodd" clip-rule="evenodd" d="M400.929 75.5003C400.643 75.2146 400.357 74.9288 400.071 74.7146C399.571 74.4288 398.929 74.5717 398.643 75.0003V75.0717C398.286 75.5717 398.429 76.2146 398.929 76.5717C399.214 76.786 399.5 77.0717 399.714 77.3574C400.071 77.8574 400.214 78.4288 400.214 79.0717C400.214 79.5717 400.071 80.0717 399.857 80.5003C399.643 80.8574 399.357 81.2146 399 81.5003C398.571 81.8574 398.5 82.4288 398.857 82.9288V83.0003C399.214 83.5003 399.857 83.6431 400.357 83.286C400.643 83.0717 400.929 82.786 401.143 82.5003C401.857 81.5717 402.357 80.4288 402.357 79.1432C402.357 77.7146 401.857 76.4288 400.929 75.5003Z" fill="white"/>
<path fill-rule="evenodd" clip-rule="evenodd" d="M387.857 235.143H334.5C328.286 235.143 323.286 231.215 323.286 226.286V118.286C323.286 113.429 328.286 109.429 334.5 109.429H387.857C394.071 109.429 399.071 113.358 399.071 118.286V226.358C399.071 231.215 394.071 235.143 387.857 235.143Z" fill="#D6D6D6" fill-opacity="0.5"/>
<path fill-rule="evenodd" clip-rule="evenodd" d="M387.857 235.501H334.5C328.286 235.501 323.286 231.572 323.286 226.643V118.572C323.286 113.715 328.286 109.715 334.5 109.715H387.857C394.071 109.715 399.071 113.643 399.071 118.572V226.643C399.071 231.501 394.071 235.501 387.857 235.501Z" fill="url(#paint27_linear_1094_5661)"/>
<path fill-rule="evenodd" clip-rule="evenodd" d="M326.428 227V118.215C326.428 114.929 329.786 112.286 334 112.286H388.214C392.428 112.286 395.786 114.929 395.786 118.215V226.929C395.786 230.215 392.428 232.858 388.214 232.858H334C329.857 232.929 326.428 230.286 326.428 227Z" fill="#010101" fill-opacity="0.3"/>
<g opacity="0.1">
<path fill-rule="evenodd" clip-rule="evenodd" d="M318.571 258.143L323.5 138.858C323.643 135.643 327.571 133 332.214 133H390.143C394.857 133 398.714 135.643 398.857 138.858L403.786 258.143C403.929 262.286 399.714 265.715 394.357 265.715H328C322.643 265.786 318.429 262.358 318.571 258.143Z" fill="#F9F9F9" fill-opacity="0.0243902"/>
<path fill-rule="evenodd" clip-rule="evenodd" d="M318.786 257.358L323.571 138.429C323.714 135.215 327.571 132.572 332.286 132.572H390C394.643 132.572 398.572 135.215 398.714 138.429L403.5 257.358C403.643 261.5 399.5 264.929 394.143 264.929H328.143C322.786 264.929 318.643 261.5 318.786 257.358Z" fill="#F3F3F3" fill-opacity="0.0487805"/>
<path fill-rule="evenodd" clip-rule="evenodd" d="M319 256.572L323.643 137.929C323.786 134.715 327.643 132.072 332.286 132.072H389.857C394.5 132.072 398.429 134.715 398.5 137.929L403.143 256.572C403.286 260.715 399.143 264.072 393.857 264.072H328.214C323 264.072 318.857 260.715 319 256.572Z" fill="#ECECEC" fill-opacity="0.0731707"/>
<path fill-rule="evenodd" clip-rule="evenodd" d="M319.286 255.786L323.857 137.5C324 134.215 327.857 131.643 332.5 131.643H389.929C394.572 131.643 398.429 134.286 398.572 137.5L403.143 255.786C403.286 259.929 399.143 263.286 393.857 263.286H328.571C323.214 263.215 319.071 259.858 319.286 255.786Z" fill="#E6E6E6" fill-opacity="0.097561"/>
<path fill-rule="evenodd" clip-rule="evenodd" d="M319.5 254.929L323.929 136.929C324.071 133.643 327.929 131.072 332.571 131.072H389.857C394.5 131.072 398.357 133.715 398.5 136.929L402.929 254.929C403.072 259 398.929 262.357 393.714 262.357H328.857C323.429 262.357 319.357 259.072 319.5 254.929Z" fill="#E0E0E0" fill-opacity="0.122"/>
<path fill-rule="evenodd" clip-rule="evenodd" d="M319.714 254.143L324 136.429C324.143 133.143 327.929 130.572 332.572 130.572H389.714C394.357 130.572 398.215 133.215 398.286 136.429L402.572 254.143C402.715 258.215 398.643 261.501 393.357 261.501H328.857C323.643 261.501 319.571 258.215 319.714 254.143Z" fill="#DADADA" fill-opacity="0.1463"/>
<path fill-rule="evenodd" clip-rule="evenodd" d="M319.928 253.357L324.071 136C324.214 132.715 328 130.143 332.643 130.143H389.643C394.286 130.143 398.071 132.786 398.214 136L402.357 253.357C402.5 257.429 398.429 260.715 393.214 260.715H329.071C323.857 260.715 319.786 257.357 319.928 253.357Z" fill="#D3D3D3" fill-opacity="0.1707"/>
<path fill-rule="evenodd" clip-rule="evenodd" d="M320.143 252.5L324.214 135.429C324.357 132.143 328.143 129.572 332.714 129.572H389.5C394.072 129.572 397.929 132.215 398 135.429L402.072 252.5C402.214 256.5 398.143 259.786 393 259.786H329.286C324.071 259.857 320 256.572 320.143 252.5Z" fill="#CDCDCD" fill-opacity="0.1951"/>
<path fill-rule="evenodd" clip-rule="evenodd" d="M320.429 251.715L324.357 134.929C324.429 131.643 328.286 129.072 332.857 129.072H389.5C394.072 129.072 397.857 131.715 398 134.929L401.929 251.715C402.072 255.715 398 259 392.857 259H329.429C324.286 259 320.286 255.715 320.429 251.715Z" fill="#C7C7C7" fill-opacity="0.2195"/>
<path fill-rule="evenodd" clip-rule="evenodd" d="M320.643 250.929L324.429 134.5C324.5 131.215 328.357 128.643 332.929 128.643H389.429C394 128.643 397.786 131.286 397.929 134.5L401.714 250.929C401.857 254.929 397.786 258.143 392.714 258.143H329.643C324.5 258.143 320.5 254.929 320.643 250.929Z" fill="#C1C1C1" fill-opacity="0.2439"/>
<path fill-rule="evenodd" clip-rule="evenodd" d="M320.857 250.143L324.571 134C324.643 130.714 328.429 128.143 333 128.143H389.357C393.929 128.143 397.714 130.786 397.786 134L401.5 250.143C401.643 254.072 397.643 257.357 392.572 257.357H329.857C324.714 257.286 320.714 254.072 320.857 250.143Z" fill="#BBBBBB" fill-opacity="0.2683"/>
<path fill-rule="evenodd" clip-rule="evenodd" d="M321.071 249.286L324.643 133.5C324.714 130.215 328.5 127.643 333.071 127.643H389.286C393.857 127.643 397.572 130.286 397.714 133.5L401.286 249.286C401.429 253.215 397.429 256.429 392.357 256.429H330C324.929 256.429 321 253.215 321.071 249.286Z" fill="#B4B4B4" fill-opacity="0.2927"/>
<path fill-rule="evenodd" clip-rule="evenodd" d="M321.357 248.5L324.786 133C324.857 129.714 328.643 127.143 333.143 127.143H389.214C393.714 127.143 397.5 129.786 397.572 133L401 248.5C401.143 252.429 397.143 255.572 392.143 255.572H330.214C325.143 255.572 321.214 252.429 321.357 248.5Z" fill="#AEAEAE" fill-opacity="0.3171"/>
<path fill-rule="evenodd" clip-rule="evenodd" d="M321.571 247.715L324.857 132.5C324.929 129.215 328.714 126.572 333.214 126.572H389.071C393.572 126.572 397.357 129.215 397.429 132.5L400.714 247.715C400.857 251.572 396.857 254.786 391.929 254.786H330.357C325.357 254.786 321.429 251.572 321.571 247.715Z" fill="#A8A8A8" fill-opacity="0.3415"/>
<path fill-rule="evenodd" clip-rule="evenodd" d="M321.786 246.929L325 132.072C325.071 128.786 328.786 126.143 333.357 126.143H389.072C393.572 126.143 397.286 128.786 397.429 132.072L400.643 246.929C400.786 250.786 396.857 253.929 391.857 253.929H330.643C325.571 253.929 321.643 250.786 321.786 246.929Z" fill="#A2A2A2" fill-opacity="0.3659"/>
<path fill-rule="evenodd" clip-rule="evenodd" d="M322 246.072L325.071 131.5C325.143 128.215 328.857 125.572 333.357 125.572H388.929C393.429 125.572 397.143 128.215 397.214 131.5L400.286 246.072C400.429 249.929 396.5 253.072 391.572 253.072H330.714C325.786 253.072 321.929 249.929 322 246.072Z" fill="#9B9B9B" fill-opacity="0.3902"/>
<path fill-rule="evenodd" clip-rule="evenodd" d="M322.214 245.286L325.143 131.072C325.214 127.786 328.929 125.143 333.429 125.143H388.857C393.357 125.143 397.072 127.786 397.143 131.072L400.072 245.286C400.143 249.143 396.286 252.215 391.429 252.215H330.928C326 252.215 322.143 249.143 322.214 245.286Z" fill="#959595" fill-opacity="0.4146"/>
<path fill-rule="evenodd" clip-rule="evenodd" d="M322.5 244.5L325.286 130.572C325.357 127.286 329.071 124.643 333.5 124.643H388.786C393.286 124.643 396.929 127.286 397 130.572L399.786 244.5C399.857 248.286 396 251.429 391.143 251.429H331C326.214 251.357 322.357 248.286 322.5 244.5Z" fill="#8F8F8F" fill-opacity="0.439"/>
<path fill-rule="evenodd" clip-rule="evenodd" d="M322.714 243.643L325.428 130C325.5 126.715 329.143 124.072 333.643 124.072H388.714C393.143 124.072 396.857 126.715 396.929 130L399.643 243.643C399.714 247.429 395.929 250.5 391.071 250.5H331.357C326.428 250.5 322.571 247.429 322.714 243.643Z" fill="#898989" fill-opacity="0.4634"/>
<path fill-rule="evenodd" clip-rule="evenodd" d="M322.928 242.857L325.5 129.572C325.571 126.286 329.214 123.643 333.643 123.643H388.571C393 123.643 396.714 126.286 396.714 129.572L399.286 242.857C399.357 246.643 395.572 249.643 390.714 249.643H331.357C326.643 249.715 322.857 246.643 322.928 242.857Z" fill="#838383" fill-opacity="0.4878"/>
<path fill-rule="evenodd" clip-rule="evenodd" d="M323.143 242.072L325.571 129.072C325.643 125.786 329.286 123.143 333.714 123.143H388.571C393 123.143 396.643 125.786 396.714 129.072L399.143 242.072C399.214 245.786 395.429 248.857 390.643 248.857H331.643C326.857 248.857 323.071 245.786 323.143 242.072Z" fill="#7C7C7C" fill-opacity="0.5122"/>
<path fill-rule="evenodd" clip-rule="evenodd" d="M323.357 241.286L325.714 128.572C325.786 125.286 329.429 122.643 333.857 122.643H388.5C392.929 122.643 396.572 125.286 396.643 128.572L399 241.215C399.072 244.929 395.286 247.929 390.572 247.929H331.929C327.071 248 323.286 245 323.357 241.286Z" fill="#767676" fill-opacity="0.5366"/>
<path fill-rule="evenodd" clip-rule="evenodd" d="M323.643 240.429L325.857 128.072C325.929 124.786 329.571 122.143 333.929 122.143H388.429C392.857 122.143 396.429 124.786 396.5 128.072L398.714 240.429C398.786 244.143 395 247.143 390.286 247.143H332C327.286 247.143 323.571 244.143 323.643 240.429Z" fill="#707070" fill-opacity="0.561"/>
<path fill-rule="evenodd" clip-rule="evenodd" d="M323.857 239.643L325.928 127.572C326 124.286 329.571 121.643 334 121.643H388.286C392.714 121.643 396.286 124.286 396.357 127.572L398.429 239.643C398.5 243.286 394.786 246.286 390.072 246.286H332.143C327.5 246.286 323.786 243.286 323.857 239.643Z" fill="#6A6A6A" fill-opacity="0.5854"/>
<path fill-rule="evenodd" clip-rule="evenodd" d="M324.071 238.858L326 127.143C326.071 123.858 329.643 121.215 334 121.215H388.143C392.5 121.215 396.143 123.858 396.143 127.143L398.071 238.858C398.143 242.5 394.429 245.5 389.786 245.5H332.214C327.714 245.429 324 242.5 324.071 238.858Z" fill="#646464" fill-opacity="0.6098"/>
<path fill-rule="evenodd" clip-rule="evenodd" d="M324.286 238L326.143 126.572C326.214 123.286 329.786 120.643 334.143 120.643H388.143C392.5 120.643 396.072 123.286 396.143 126.572L398 238C398.072 241.643 394.357 244.571 389.714 244.571H332.571C327.929 244.643 324.214 241.643 324.286 238Z" fill="#5D5D5D" fill-opacity="0.6341"/>
<path fill-rule="evenodd" clip-rule="evenodd" d="M324.5 237.215L326.214 126.072C326.286 122.786 329.857 120.143 334.214 120.143H388.071C392.429 120.143 396 122.786 396.072 126.072L397.786 237.215C397.857 240.786 394.143 243.715 389.571 243.715H332.786C328.143 243.786 324.5 240.858 324.5 237.215Z" fill="#575757" fill-opacity="0.6585"/>
<path fill-rule="evenodd" clip-rule="evenodd" d="M324.786 236.429L326.357 125.643C326.429 122.357 329.929 119.714 334.286 119.714H388C392.357 119.714 395.929 122.357 395.929 125.643L397.5 236.429C397.572 240 393.929 242.929 389.357 242.929H332.929C328.357 242.929 324.714 240 324.786 236.429Z" fill="#515151" fill-opacity="0.6829"/>
<path fill-rule="evenodd" clip-rule="evenodd" d="M325 235.643L326.5 125.143C326.571 121.857 330.071 119.214 334.429 119.214H388C392.357 119.214 395.857 121.857 395.929 125.143L397.429 235.643C397.5 239.214 393.857 242.071 389.286 242.071H333.214C328.571 242.071 324.928 239.143 325 235.643Z" fill="#4B4B4B" fill-opacity="0.7073"/>
<path fill-rule="evenodd" clip-rule="evenodd" d="M325.214 234.786L326.571 124.643C326.643 121.358 330.143 118.715 334.429 118.715H387.857C392.143 118.715 395.714 121.358 395.714 124.643L397.072 234.786C397.143 238.358 393.5 241.215 389 241.215H333.286C328.786 241.215 325.143 238.358 325.214 234.786Z" fill="#444444" fill-opacity="0.7317"/>
<path fill-rule="evenodd" clip-rule="evenodd" d="M325.429 234L326.643 124.143C326.643 120.857 330.214 118.214 334.5 118.214H387.714C392 118.214 395.572 120.857 395.572 124.143L396.786 234C396.857 237.5 393.214 240.357 388.786 240.357H333.429C329 240.357 325.429 237.5 325.429 234Z" fill="#3E3E3E" fill-opacity="0.7561"/>
<path fill-rule="evenodd" clip-rule="evenodd" d="M325.714 233.215L326.786 123.643C326.786 120.357 330.357 117.715 334.643 117.715H387.714C392 117.715 395.5 120.357 395.572 123.643L396.643 233.215C396.714 236.715 393.072 239.572 388.643 239.572H333.643C329.214 239.5 325.643 236.715 325.714 233.215Z" fill="#383838" fill-opacity="0.7805"/>
<path fill-rule="evenodd" clip-rule="evenodd" d="M325.929 232.429L326.929 123.215C326.929 119.929 330.429 117.286 334.714 117.286H387.643C391.929 117.286 395.429 119.929 395.429 123.215L396.429 232.429C396.429 235.929 392.929 238.715 388.5 238.715H333.929C329.429 238.715 325.857 235.857 325.929 232.429Z" fill="#323232" fill-opacity="0.8049"/>
<path fill-rule="evenodd" clip-rule="evenodd" d="M326.143 231.572L327 122.643C327 119.357 330.5 116.715 334.786 116.715H387.572C391.857 116.715 395.357 119.357 395.357 122.643L396.215 231.572C396.215 235 392.715 237.786 388.286 237.786H334.072C329.643 237.857 326.143 235.072 326.143 231.572Z" fill="#2C2C2C" fill-opacity="0.8293"/>
<path fill-rule="evenodd" clip-rule="evenodd" d="M326.357 230.786L327.071 122.215C327.071 118.929 330.571 116.286 334.786 116.286H387.357C391.643 116.286 395.071 118.929 395.071 122.215L395.786 230.786C395.786 234.215 392.286 237.001 387.928 237.001H334.071C329.857 237.001 326.357 234.215 326.357 230.786Z" fill="#252525" fill-opacity="0.8537"/>
<path fill-rule="evenodd" clip-rule="evenodd" d="M326.571 230L327.214 121.715C327.214 118.429 330.714 115.786 334.929 115.786H387.357C391.572 115.786 395.072 118.429 395.072 121.715L395.714 230C395.714 233.429 392.214 236.143 387.928 236.143H334.428C330.071 236.143 326.571 233.357 326.571 230Z" fill="#1F1F1F" fill-opacity="0.878"/>
<path fill-rule="evenodd" clip-rule="evenodd" d="M326.857 229.143L327.357 121.143C327.357 117.858 330.786 115.215 335.071 115.215H387.357C391.572 115.215 395 117.858 395.072 121.143L395.572 229.143C395.572 232.501 392.143 235.286 387.786 235.286H334.643C330.286 235.286 326.786 232.572 326.857 229.143Z" fill="#191919" fill-opacity="0.9024"/>
<path fill-rule="evenodd" clip-rule="evenodd" d="M327.071 228.357L327.429 120.715C327.429 117.429 330.857 114.786 335.071 114.786H387.214C391.429 114.786 394.857 117.429 394.857 120.715L395.214 228.357C395.214 231.715 391.786 234.429 387.5 234.429H334.714C330.5 234.429 327.071 231.715 327.071 228.357Z" fill="#131313" fill-opacity="0.9268"/>
<path fill-rule="evenodd" clip-rule="evenodd" d="M327.286 227.572L327.5 120.214C327.5 116.929 330.928 114.286 335.143 114.286H387.143C391.357 114.286 394.786 116.929 394.786 120.214L395 227.572C395 230.929 391.572 233.643 387.357 233.643H334.929C330.714 233.643 327.286 230.929 327.286 227.572Z" fill="#0C0C0C" fill-opacity="0.9512"/>
<path fill-rule="evenodd" clip-rule="evenodd" d="M327.5 226.786L327.643 119.786C327.643 116.5 331.071 113.857 335.214 113.857H387.071C391.286 113.857 394.643 116.5 394.643 119.786L394.786 226.786C394.786 230.072 391.357 232.786 387.143 232.786H335.143C330.928 232.786 327.5 230.072 327.5 226.786Z" fill="#060606" fill-opacity="0.9756"/>
<path fill-rule="evenodd" clip-rule="evenodd" d="M327.714 225.929V119.215C327.714 115.929 331.071 113.286 335.286 113.286H386.928C391.143 113.286 394.5 115.929 394.5 119.215V225.929C394.5 229.215 391.143 231.857 386.928 231.857H335.286C331.143 231.929 327.714 229.215 327.714 225.929Z" fill="black"/>
</g>
<path fill-rule="evenodd" clip-rule="evenodd" d="M327.714 119.215V225.929C327.714 229.215 331.071 231.858 335.286 231.858H386.928C391.143 231.858 394.5 229.215 394.5 225.929V119.215C394.5 115.929 391.143 113.286 386.928 113.286H335.286C331.143 113.286 327.714 115.929 327.714 119.215Z" fill="url(#paint28_linear_1094_5661)"/>
<path fill-rule="evenodd" clip-rule="evenodd" d="M327.714 119.214V225.929C327.714 229.214 331.071 231.857 335.286 231.857H386.929C391.143 231.857 394.5 229.214 394.5 225.929V119.214C394.5 115.929 391.143 113.286 386.929 113.286H335.286C331.143 113.286 327.714 115.929 327.714 119.214Z" fill="#4A4A4A"/>
<path fill-rule="evenodd" clip-rule="evenodd" d="M327.714 119.214C327.714 120.714 327.714 224.214 327.571 225.714C327.571 229 330.928 231.643 335.143 231.643C336 231.643 386.286 231.643 387.143 231.643C391.357 231.643 394.714 229 394.714 225.714C394.5 224.286 394.571 120.714 394.571 119.214C394.571 115.929 391.214 113.286 387 113.286C386.286 113.286 336.071 113.286 335.357 113.286C331.143 113.286 327.714 115.929 327.714 119.214Z" fill="#4D4D4D"/>
<path fill-rule="evenodd" clip-rule="evenodd" d="M327.714 119.214C327.714 122.143 327.786 222.571 327.357 225.429C327.286 228.714 330.714 231.357 334.929 231.357C336.714 231.357 385.5 231.357 387.214 231.357C391.429 231.357 394.857 228.714 394.786 225.429C394.357 222.5 394.428 122.143 394.428 119.214C394.428 115.929 391.071 113.286 386.857 113.286C385.357 113.286 336.714 113.286 335.214 113.286C331.143 113.286 327.714 115.929 327.714 119.214Z" fill="#505050"/>
<path fill-rule="evenodd" clip-rule="evenodd" d="M327.714 119.214C327.714 123.643 327.786 220.857 327.214 225.214C327.143 228.5 330.571 231.143 334.857 231.143C337.5 231.143 384.857 231.143 387.5 231.143C391.786 231.143 395.143 228.5 395.143 225.214C394.5 220.857 394.643 123.571 394.643 119.214C394.643 115.929 391.214 113.286 387.071 113.286C384.857 113.286 337.643 113.286 335.429 113.286C331.143 113.286 327.714 115.929 327.714 119.214Z" fill="#535353"/>
<path fill-rule="evenodd" clip-rule="evenodd" d="M327.714 119.214C327.643 125.071 327.857 219.143 327 225C326.928 228.286 330.357 230.929 334.643 230.929C338.143 230.929 384.071 230.929 387.643 230.929C391.928 230.929 395.357 228.286 395.286 225C394.5 219.143 394.643 125.071 394.571 119.214C394.571 115.929 391.143 113.286 387 113.286C384 113.286 338.357 113.286 335.357 113.286C331.143 113.286 327.714 115.929 327.714 119.214Z" fill="#565656"/>
<path fill-rule="evenodd" clip-rule="evenodd" d="M327.714 119.143C327.643 126.5 327.857 217.357 326.857 224.714C326.786 228 330.143 230.643 334.5 230.643C338.857 230.643 383.429 230.643 387.786 230.643C392.143 230.643 395.5 228 395.429 224.714C394.428 217.429 394.571 126.5 394.571 119.143C394.571 115.857 391.143 113.214 387 113.214C383.286 113.214 339.071 113.214 335.357 113.214C331.143 113.286 327.714 115.929 327.714 119.143Z" fill="#595959"/>
<path fill-rule="evenodd" clip-rule="evenodd" d="M327.714 119.143C327.643 127.929 327.928 215.643 326.643 224.429C326.5 227.714 329.928 230.286 334.286 230.286C339.571 230.286 382.643 230.286 387.928 230.286C392.286 230.286 395.714 227.643 395.572 224.429C394.357 215.643 394.571 127.929 394.5 119.143C394.5 115.857 391.071 113.286 386.928 113.286C382.428 113.286 339.786 113.286 335.286 113.286C331.143 113.286 327.714 115.929 327.714 119.143Z" fill="#5C5C5C"/>
<path fill-rule="evenodd" clip-rule="evenodd" d="M327.714 119.143C327.643 129.429 327.928 214 326.5 224.214C326.357 227.429 329.786 230.071 334.143 230.071C340.286 230.071 381.929 230.071 388.071 230.071C392.5 230.071 395.857 227.429 395.715 224.214C394.286 214 394.571 129.429 394.5 119.143C394.5 115.929 391.071 113.286 386.929 113.286C381.714 113.286 340.5 113.286 335.286 113.286C331.143 113.286 327.714 115.929 327.714 119.143Z" fill="#5F5F5F"/>
<path fill-rule="evenodd" clip-rule="evenodd" d="M327.714 119.143C327.643 130.857 327.928 212.286 326.286 224C326.143 227.214 329.571 229.857 334 229.857C341 229.857 381.286 229.857 388.286 229.857C392.714 229.857 396.143 227.214 396 224C394.357 212.286 394.643 130.929 394.571 119.143C394.571 115.929 391.143 113.286 387 113.286C381 113.286 341.286 113.286 335.357 113.286C331.143 113.286 327.714 115.929 327.714 119.143Z" fill="#626262"/>
<path fill-rule="evenodd" clip-rule="evenodd" d="M327.714 119.143C327.643 132.357 328 210.571 326.143 223.714C326 226.929 329.357 229.571 333.857 229.571C341.714 229.571 380.571 229.571 388.429 229.571C392.857 229.571 396.286 226.929 396.143 223.714C394.286 210.571 394.643 132.357 394.571 119.143C394.571 115.929 391.143 113.286 387 113.286C380.286 113.286 342.071 113.286 335.357 113.286C331.143 113.286 327.714 115.857 327.714 119.143Z" fill="#656565"/>
<path fill-rule="evenodd" clip-rule="evenodd" d="M327.714 119.072C327.643 133.786 328 208.786 325.928 223.429C325.714 226.643 329.143 229.286 333.643 229.286C342.428 229.286 379.786 229.286 388.571 229.286C393.071 229.286 396.5 226.643 396.286 223.429C394.214 208.786 394.643 133.714 394.5 119.072C394.5 115.857 391.071 113.214 386.928 113.214C379.428 113.214 342.714 113.214 335.286 113.214C331.143 113.286 327.714 115.857 327.714 119.072Z" fill="#686868"/>
<path fill-rule="evenodd" clip-rule="evenodd" d="M327.714 119.071C327.643 135.214 328.071 207.143 325.786 223.214C325.571 226.429 329 229 333.5 229C343.143 229 379.071 229 388.714 229C393.214 229 396.643 226.429 396.429 223.214C394.143 207.143 394.571 135.214 394.5 119.071C394.5 115.857 391.071 113.286 386.928 113.286C378.714 113.286 343.5 113.286 335.286 113.286C331.143 113.286 327.714 115.857 327.714 119.071Z" fill="#6B6B6B"/>
<path fill-rule="evenodd" clip-rule="evenodd" d="M327.714 119.071C327.571 136.714 328.071 205.429 325.643 223C325.428 226.214 328.857 228.786 333.357 228.786C343.857 228.786 378.428 228.786 388.928 228.786C393.5 228.786 396.929 226.214 396.643 223C394.214 205.429 394.643 136.714 394.571 119.071C394.571 115.857 391.143 113.286 387 113.286C378 113.286 344.286 113.286 335.357 113.286C331.143 113.286 327.714 115.857 327.714 119.071Z" fill="#6E6E6E"/>
<path fill-rule="evenodd" clip-rule="evenodd" d="M327.714 119.071C327.571 138.143 328.071 203.714 325.428 222.714C325.214 225.929 328.643 228.5 333.214 228.5C344.571 228.5 377.714 228.5 389.071 228.5C393.643 228.5 397.072 225.929 396.857 222.714C394.214 203.714 394.714 138.143 394.571 119.071C394.571 115.857 391.143 113.286 387 113.286C377.286 113.286 345.071 113.286 335.357 113.286C331.143 113.286 327.714 115.857 327.714 119.071Z" fill="#717171"/>
<path fill-rule="evenodd" clip-rule="evenodd" d="M327.714 119.071C327.571 139.643 328.143 202 325.286 222.5C325 225.714 328.429 228.286 333.071 228.286C345.357 228.286 377 228.286 389.286 228.286C393.929 228.286 397.357 225.714 397.072 222.5C394.214 202 394.714 139.643 394.643 119.071C394.643 115.857 391.214 113.286 387.071 113.286C376.571 113.286 345.857 113.286 335.429 113.286C331.143 113.286 327.714 115.857 327.714 119.071Z" fill="#747474"/>
<path fill-rule="evenodd" clip-rule="evenodd" d="M327.714 119.071C327.571 141.071 328.143 200.286 325.071 222.286C324.786 225.5 328.214 228.071 332.857 228.071C346 228.071 376.286 228.071 389.357 228.071C394 228.071 397.429 225.5 397.143 222.286C394.071 200.357 394.643 141.143 394.5 119.071C394.5 115.857 391.071 113.286 386.929 113.286C375.714 113.286 346.5 113.286 335.286 113.286C331.143 113.286 327.714 115.857 327.714 119.071Z" fill="#777777"/>
<path fill-rule="evenodd" clip-rule="evenodd" d="M327.714 119C327.571 142.5 328.214 198.572 324.928 221.929C324.643 225.143 328.071 227.714 332.714 227.714C346.714 227.714 375.571 227.714 389.571 227.714C394.214 227.714 397.715 225.143 397.357 221.929C394.071 198.5 394.714 142.5 394.571 119C394.571 115.857 391.143 113.214 387 113.214C375 113.214 347.286 113.214 335.357 113.214C331.143 113.286 327.714 115.857 327.714 119Z" fill="#7A7A7A"/>
<path fill-rule="evenodd" clip-rule="evenodd" d="M327.714 119C327.571 143.929 328.214 196.857 324.714 221.714C324.357 224.857 327.857 227.429 332.5 227.429C347.357 227.429 374.786 227.429 389.714 227.429C394.429 227.429 397.857 224.857 397.5 221.714C394 196.857 394.643 143.929 394.5 119C394.5 115.857 391.071 113.286 386.929 113.286C374.214 113.286 348 113.286 335.214 113.286C331.143 113.286 327.714 115.857 327.714 119Z" fill="#7D7D7D"/>
<path fill-rule="evenodd" clip-rule="evenodd" d="M327.714 119C327.571 145.429 328.286 195.143 324.571 221.5C324.214 224.643 327.643 227.214 332.429 227.214C348.214 227.214 374.143 227.214 389.929 227.214C394.643 227.214 398.072 224.643 397.786 221.5C394.071 195.143 394.786 145.429 394.643 119C394.643 115.857 391.214 113.286 387.071 113.286C373.571 113.286 348.857 113.286 335.357 113.286C331.143 113.286 327.714 115.857 327.714 119Z" fill="#808080"/>
<path fill-rule="evenodd" clip-rule="evenodd" d="M327.714 119C327.571 146.929 328.286 193.429 324.357 221.286C324 224.429 327.428 227 332.214 227C348.857 227 373.429 227 390.071 227C394.857 227 398.286 224.429 397.929 221.286C394 193.5 394.786 146.929 394.571 119C394.571 115.857 391.143 113.286 387 113.286C372.786 113.286 349.571 113.286 335.286 113.286C331.143 113.286 327.714 115.857 327.714 119Z" fill="#838383"/>
<path fill-rule="evenodd" clip-rule="evenodd" d="M327.714 119C327.5 148.357 328.286 191.786 324.214 221C323.857 224.143 327.286 226.714 332.071 226.714C349.571 226.714 372.714 226.714 390.214 226.714C395 226.714 398.429 224.143 398.072 221C394 191.714 394.714 148.357 394.571 119C394.571 115.857 391.143 113.286 387 113.286C372 113.286 350.286 113.286 335.286 113.286C331.143 113.286 327.714 115.857 327.714 119Z" fill="#868686"/>
<path fill-rule="evenodd" clip-rule="evenodd" d="M327.714 118.929C327.5 149.786 328.357 190 324 220.714C323.571 223.857 327.071 226.429 331.857 226.429C350.214 226.429 371.928 226.429 390.357 226.429C395.214 226.429 398.643 223.857 398.214 220.714C393.928 190 394.714 149.786 394.5 118.929C394.5 115.786 391.071 113.214 386.928 113.214C371.214 113.214 351 113.214 335.214 113.214C331.143 113.286 327.714 115.786 327.714 118.929Z" fill="#898989"/>
<path fill-rule="evenodd" clip-rule="evenodd" d="M327.714 118.929C327.5 151.214 328.357 188.286 323.857 220.5C323.428 223.643 326.857 226.143 331.714 226.143C351 226.143 371.286 226.143 390.5 226.143C395.357 226.143 398.786 223.571 398.357 220.5C393.857 188.286 394.714 151.286 394.5 118.929C394.5 115.786 391.071 113.286 386.929 113.286C370.429 113.286 351.714 113.286 335.214 113.286C331.143 113.286 327.714 115.786 327.714 118.929Z" fill="#8C8C8C"/>
<path fill-rule="evenodd" clip-rule="evenodd" d="M327.714 118.929C327.5 152.715 328.429 186.572 323.714 220.215C323.286 223.357 326.714 225.857 331.643 225.857C351.786 225.857 370.643 225.857 390.786 225.857C395.643 225.857 399.143 223.357 398.715 220.215C394 186.572 394.857 152.643 394.714 118.929C394.714 115.786 391.286 113.286 387.143 113.286C369.929 113.286 352.714 113.286 335.429 113.286C331.143 113.286 327.714 115.786 327.714 118.929Z" fill="#8F8F8F"/>
<path fill-rule="evenodd" clip-rule="evenodd" d="M327.714 118.929C327.5 152.715 328.429 186.572 323.714 220.215C323.286 223.358 326.714 225.858 331.643 225.858C351.786 225.858 370.643 225.858 390.786 225.858C395.643 225.858 399.143 223.358 398.715 220.215C394 186.572 394.857 152.643 394.714 118.929C394.714 115.786 391.286 113.286 387.143 113.286C369.929 113.286 352.714 113.286 335.429 113.286C331.143 113.286 327.714 115.786 327.714 118.929Z" fill="url(#paint29_linear_1094_5661)"/>
<path fill-rule="evenodd" clip-rule="evenodd" d="M327.714 118.643C327.5 152.429 328.429 186.286 323.714 219.929C323.286 223.072 326.714 225.572 331.643 225.572C351.786 225.572 370.643 225.572 390.786 225.572C395.643 225.572 399.143 223.072 398.715 219.929C394 186.286 394.857 152.358 394.714 118.643C394.714 115.5 391.286 113 387.143 113C369.929 113 352.714 113 335.429 113C331.143 113 327.714 115.5 327.714 118.643Z" fill="url(#paint30_linear_1094_5661)"/>
<path fill-rule="evenodd" clip-rule="evenodd" d="M327.714 118.929C327.5 152.715 328.429 186.572 323.714 220.215C323.286 223.358 326.714 225.858 331.643 225.858C351.786 225.858 370.643 225.858 390.786 225.858C395.643 225.858 399.143 223.358 398.715 220.215C394 186.572 394.857 152.643 394.714 118.929C394.714 115.786 391.286 113.286 387.143 113.286C369.929 113.286 352.714 113.286 335.429 113.286C331.143 113.286 327.714 115.786 327.714 118.929Z" fill="url(#paint31_linear_1094_5661)"/>
<path fill-rule="evenodd" clip-rule="evenodd" d="M335.929 114.215C332.5 114.215 329.643 116.287 329.643 118.858C329.643 124.429 329.571 130.072 329.571 135.572C329.571 146.001 329.571 156.501 329.357 167.144C329 184.858 328.071 202.715 325.571 220.358C325.429 221.429 325.857 222.429 326.714 223.215C327.929 224.287 329.929 224.929 332.143 224.929H391.286C393.5 224.929 395.5 224.287 396.715 223.215C397.643 222.429 398 221.429 397.857 220.358C395.357 202.715 394.429 184.858 394.071 167.144C393.857 156.572 393.857 146.001 393.857 135.572C393.857 130.072 393.857 124.429 393.786 118.858C393.786 116.287 390.929 114.215 387.5 114.215L335.929 114.215Z" fill="url(#paint32_linear_1094_5661)"/>
<g opacity="0.7">
<path fill-rule="evenodd" clip-rule="evenodd" d="M349.786 145.215C349.214 145.501 348.071 145.786 346.643 145.786C343.286 145.786 340.786 143.643 340.786 139.715C340.786 135.929 343.286 133.429 347 133.429C348.5 133.429 349.429 133.715 349.857 133.929L349.5 135.215C348.929 134.929 348.071 134.715 347.143 134.715C344.357 134.715 342.5 136.501 342.5 139.643C342.5 142.572 344.214 144.429 347.071 144.429C348 144.429 349 144.215 349.571 143.929L349.786 145.215Z" fill="black"/>
<path fill-rule="evenodd" clip-rule="evenodd" d="M351.643 139.643C351.643 138.643 351.643 137.786 351.571 137.001H352.929L353 138.715H353.071C353.429 137.572 354.429 136.858 355.429 136.858C355.571 136.858 355.714 136.858 355.857 136.858V138.358C355.714 138.358 355.571 138.358 355.357 138.358C354.286 138.358 353.5 139.143 353.286 140.358C353.286 140.572 353.214 140.858 353.214 141.072V145.643H351.643V139.643Z" fill="black"/>
<path fill-rule="evenodd" clip-rule="evenodd" d="M358.143 141.572C358.143 143.643 359.5 144.572 361.071 144.572C362.214 144.572 362.857 144.358 363.429 144.143L363.714 145.286C363.143 145.5 362.214 145.858 360.857 145.858C358.214 145.858 356.643 144.072 356.643 141.5C356.643 138.929 358.143 136.929 360.643 136.929C363.429 136.929 364.214 139.358 364.214 140.929C364.214 141.215 364.214 141.5 364.143 141.643H358.143V141.572ZM362.714 140.429C362.714 139.429 362.286 137.929 360.571 137.929C359 137.929 358.286 139.358 358.214 140.429H362.714Z" fill="black"/>
<path fill-rule="evenodd" clip-rule="evenodd" d="M373.5 133.001V143.358C373.5 144.143 373.5 145.001 373.571 145.572H372.214L372.143 144.072H372.071C371.643 145.001 370.571 145.786 369.214 145.786C367.143 145.786 365.5 144.001 365.5 141.429C365.5 138.572 367.286 136.858 369.357 136.858C370.714 136.858 371.571 137.501 371.929 138.143V133.001H373.5ZM371.929 140.501C371.929 140.286 371.929 140.072 371.857 139.858C371.643 138.858 370.786 138.072 369.643 138.072C368 138.072 367.071 139.501 367.071 141.358C367.071 143.072 367.929 144.501 369.571 144.501C370.643 144.501 371.572 143.786 371.857 142.643C371.929 142.429 371.929 142.215 371.929 142.001L371.929 140.501Z" fill="black"/>
<path fill-rule="evenodd" clip-rule="evenodd" d="M377.857 134.572C377.857 135.072 377.5 135.5 376.857 135.5C376.286 135.5 375.928 135.072 375.928 134.572C375.928 134.072 376.286 133.572 376.928 133.572C377.428 133.643 377.857 134.072 377.857 134.572ZM376.071 145.572V137H377.643V145.572H376.071Z" fill="black"/>
<path fill-rule="evenodd" clip-rule="evenodd" d="M382.143 134.929V137H384.357V138.215H382.143V142.858C382.143 143.929 382.429 144.501 383.286 144.501C383.714 144.501 383.929 144.501 384.214 144.429L384.286 145.643C384 145.715 383.5 145.858 382.929 145.858C382.214 145.858 381.643 145.643 381.214 145.215C380.786 144.715 380.643 144.001 380.643 143.001V138.358H379.286V137.143H380.643V135.572L382.143 134.929Z" fill="black"/>
</g>
<g opacity="0.7">
<path fill-rule="evenodd" clip-rule="evenodd" d="M351.643 185.929V196.286C351.643 197.072 351.643 197.929 351.714 198.501H350.357L350.286 197.001H350.214C349.786 197.929 348.714 198.715 347.357 198.715C345.286 198.715 343.643 196.929 343.643 194.358C343.643 191.501 345.428 189.786 347.5 189.786C348.857 189.786 349.714 190.429 350.071 191.072V185.929L351.643 185.929ZM350.143 193.429C350.143 193.215 350.143 193.001 350.071 192.786C349.857 191.786 349 191.001 347.857 191.001C346.214 191.001 345.286 192.429 345.286 194.286C345.286 196.001 346.143 197.429 347.786 197.429C348.857 197.429 349.786 196.715 350.071 195.572C350.143 195.358 350.143 195.143 350.143 194.929V193.429Z" fill="black"/>
<path fill-rule="evenodd" clip-rule="evenodd" d="M355.143 194.501C355.143 196.572 356.5 197.501 358.071 197.501C359.214 197.501 359.857 197.286 360.429 197.072L360.714 198.215C360.143 198.429 359.214 198.786 357.857 198.786C355.214 198.786 353.643 197.001 353.643 194.429C353.643 191.858 355.143 189.858 357.643 189.858C360.429 189.858 361.214 192.286 361.214 193.858C361.214 194.143 361.214 194.429 361.143 194.572H355.143V194.501ZM359.714 193.358C359.714 192.358 359.286 190.858 357.571 190.858C356 190.858 355.286 192.286 355.214 193.358H359.714Z" fill="black"/>
<path fill-rule="evenodd" clip-rule="evenodd" d="M363.143 185.929H364.714V191.286C365.286 190.358 366.286 189.715 367.643 189.715C369.786 189.715 371.286 191.501 371.286 194.072C371.286 197.144 369.357 198.644 367.428 198.644C366.214 198.644 365.214 198.144 364.571 197.072L364.5 198.501H363.143C363.143 197.929 363.214 197.072 363.214 196.286V185.929H363.143ZM364.714 195.072C364.714 195.286 364.714 195.429 364.786 195.644C365.071 196.715 366 197.501 367.143 197.501C368.786 197.501 369.714 196.144 369.714 194.215C369.714 192.501 368.857 191.001 367.143 191.001C366.071 191.001 365.071 191.715 364.786 192.929C364.714 193.144 364.714 193.358 364.714 193.572V195.072Z" fill="black"/>
<path fill-rule="evenodd" clip-rule="evenodd" d="M374.928 187.501C374.928 188.001 374.571 188.429 373.928 188.429C373.357 188.429 373 188.001 373 187.501C373 187.001 373.357 186.501 374 186.501C374.571 186.572 374.928 187.001 374.928 187.501ZM373.214 198.501V189.929H374.786V198.501H373.214Z" fill="black"/>
<path fill-rule="evenodd" clip-rule="evenodd" d="M379.214 187.858V189.929H381.428V191.144H379.214V195.786C379.214 196.858 379.5 197.429 380.357 197.429C380.786 197.429 381 197.429 381.286 197.358L381.357 198.572C381.071 198.644 380.571 198.786 380 198.786C379.286 198.786 378.714 198.572 378.286 198.144C377.857 197.644 377.714 196.929 377.714 195.929V191.286H376.428V190.072H377.786V188.501L379.214 187.858Z" fill="black"/>
</g>
<path d="M329.357 168.144L394.214 166.715" stroke="black" stroke-width="0.5"/>
</g>
<path fill-rule="evenodd" clip-rule="evenodd" d="M50.3572 74.4234L57.5253 67.8218L69.8571 68.3447L69.3342 80.6765L62.1661 87.2564L62.689 74.9463L50.3572 74.4234Z" fill="#FFC000"/>
<path fill-rule="evenodd" clip-rule="evenodd" d="M73.7575 88.0835L66.5676 94.6851L54.2358 94.1622L54.7587 81.8523L61.9486 75.2506L61.4258 87.5606L73.7575 88.0835Z" fill="white"/>
<path fill-rule="evenodd" clip-rule="evenodd" d="M79.6617 92.3101V70.3699H87.4399C95.2399 70.3699 99.1398 73.9286 99.1398 81.0458C99.1398 84.4738 98.0723 87.2045 95.9371 89.238C93.8164 91.286 90.9841 92.3101 87.4399 92.3101H79.6617ZM84.6075 74.3788V88.3011H87.0478C89.1974 88.3011 90.8823 87.6548 92.1025 86.362C93.3226 85.0838 93.9326 83.3335 93.9326 81.1112C93.9326 79.0196 93.3226 77.3782 92.1025 76.1872C90.8969 74.9816 89.2047 74.3788 87.026 74.3788H84.6075ZM120.644 82.8107C120.644 89.3905 117.572 92.6804 111.428 92.6804C105.473 92.6804 102.495 89.4631 102.495 83.0285V70.3699H107.463V83.0939C107.463 86.638 108.85 88.41 111.624 88.41C114.34 88.41 115.698 86.6961 115.698 83.2682V70.3699H120.644V82.8107ZM134.697 92.6804C131.545 92.6804 128.981 91.6564 127.006 89.6083C125.031 87.5748 124.043 84.9095 124.043 81.6123C124.043 78.1554 125.045 75.352 127.05 73.2023C129.069 71.0671 131.734 69.9995 135.046 69.9995C138.183 69.9995 140.718 71.0235 142.649 73.0716C144.582 75.1196 145.547 77.8212 145.547 81.1766C145.547 84.619 144.545 87.4006 142.541 89.5212C140.536 91.6274 137.922 92.6804 134.697 92.6804ZM134.915 74.2481C133.172 74.2481 131.792 74.8945 130.775 76.1872C129.759 77.4945 129.25 79.2229 129.25 81.3727C129.25 83.5369 129.759 85.2508 130.775 86.5146C131.792 87.7782 133.128 88.41 134.784 88.41C136.484 88.41 137.834 87.8 138.836 86.5799C139.839 85.3453 140.34 83.6386 140.34 81.4598C140.34 79.1793 139.854 77.4073 138.88 76.1436C137.907 74.8799 136.585 74.2481 134.915 74.2481Z" fill="white"/>
<path d="M61.1978 266L56.0278 252.228H55.9398C55.9838 252.683 56.0205 253.299 56.0498 254.076C56.0791 254.839 56.0938 255.638 56.0938 256.474V266H54.2678V250.292H57.1938L62.0338 263.162H62.1218L67.0498 250.292H69.9538V266H67.9958V256.342C67.9958 255.579 68.0105 254.824 68.0398 254.076C68.0838 253.328 68.1205 252.719 68.1498 252.25H68.0618L62.8258 266H61.1978ZM78.4288 254.01C79.8661 254.01 80.9294 254.325 81.6188 254.956C82.3081 255.587 82.6528 256.591 82.6528 257.97V266H81.2448L80.8708 264.328H80.7828C80.2694 264.973 79.7268 265.45 79.1548 265.758C78.5828 266.066 77.8054 266.22 76.8228 266.22C75.7521 266.22 74.8648 265.941 74.1608 265.384C73.4568 264.812 73.1048 263.925 73.1048 262.722C73.1048 261.549 73.5668 260.647 74.4908 260.016C75.4148 259.371 76.8374 259.019 78.7588 258.96L80.7608 258.894V258.19C80.7608 257.207 80.5481 256.525 80.1228 256.144C79.6974 255.763 79.0961 255.572 78.3188 255.572C77.7028 255.572 77.1161 255.667 76.5588 255.858C76.0014 256.034 75.4808 256.239 74.9968 256.474L74.4028 255.022C74.9161 254.743 75.5248 254.509 76.2288 254.318C76.9328 254.113 77.6661 254.01 78.4288 254.01ZM80.7388 260.236L79.0008 260.302C77.5341 260.361 76.5148 260.595 75.9428 261.006C75.3854 261.417 75.1068 261.996 75.1068 262.744C75.1068 263.404 75.3048 263.888 75.7008 264.196C76.1114 264.504 76.6321 264.658 77.2628 264.658C78.2454 264.658 79.0668 264.387 79.7268 263.844C80.4014 263.287 80.7388 262.436 80.7388 261.292V260.236ZM84.4468 254.208H86.5148L89.0668 260.918C89.2868 261.519 89.4848 262.084 89.6608 262.612C89.8368 263.14 89.9688 263.646 90.0568 264.13H90.1448C90.2328 263.763 90.3721 263.287 90.5628 262.7C90.7535 262.099 90.9515 261.497 91.1568 260.896L93.5548 254.208H95.6448L90.5628 267.628C90.1375 268.743 89.6021 269.63 88.9568 270.29C88.3115 270.95 87.4168 271.28 86.2728 271.28C85.9208 271.28 85.6128 271.258 85.3488 271.214C85.0848 271.185 84.8575 271.148 84.6668 271.104V269.564C84.8281 269.593 85.0188 269.623 85.2388 269.652C85.4735 269.681 85.7155 269.696 85.9648 269.696C86.6395 269.696 87.1821 269.505 87.5928 269.124C88.0035 268.743 88.3335 268.237 88.5828 267.606L89.1988 266.044L84.4468 254.208ZM107.762 260.082C107.762 262.033 107.263 263.543 106.266 264.614C105.283 265.685 103.948 266.22 102.262 266.22C101.22 266.22 100.289 265.985 99.4676 265.516C98.661 265.032 98.023 264.335 97.5536 263.426C97.0843 262.502 96.8496 261.387 96.8496 260.082C96.8496 258.131 97.3336 256.628 98.3016 255.572C99.2843 254.516 100.626 253.988 102.328 253.988C103.384 253.988 104.322 254.23 105.144 254.714C105.965 255.183 106.603 255.873 107.058 256.782C107.527 257.677 107.762 258.777 107.762 260.082ZM98.8516 260.082C98.8516 261.475 99.123 262.583 99.6656 263.404C100.223 264.211 101.103 264.614 102.306 264.614C103.494 264.614 104.366 264.211 104.924 263.404C105.481 262.583 105.76 261.475 105.76 260.082C105.76 258.689 105.481 257.596 104.924 256.804C104.366 256.012 103.486 255.616 102.284 255.616C101.081 255.616 100.208 256.012 99.6656 256.804C99.123 257.596 98.8516 258.689 98.8516 260.082ZM120.036 265.978L118.012 259.334C117.822 258.733 117.653 258.146 117.506 257.574C117.36 257.002 117.257 256.547 117.198 256.21H117.11C117.052 256.547 116.956 257.002 116.824 257.574C116.692 258.146 116.524 258.74 116.318 259.356L114.206 265.978H112.006L108.772 254.186H110.774L112.402 260.478C112.564 261.109 112.718 261.747 112.864 262.392C113.011 263.037 113.114 263.573 113.172 263.998H113.26C113.304 263.749 113.37 263.441 113.458 263.074C113.546 262.707 113.642 262.326 113.744 261.93C113.847 261.519 113.95 261.153 114.052 260.83L116.142 254.186H118.254L120.278 260.83C120.425 261.343 120.579 261.893 120.74 262.48C120.902 263.067 121.012 263.565 121.07 263.976H121.158C121.202 263.609 121.298 263.103 121.444 262.458C121.606 261.813 121.774 261.153 121.95 260.478L123.6 254.186H125.58L122.302 265.978H120.036ZM132.161 254.01C133.599 254.01 134.662 254.325 135.351 254.956C136.041 255.587 136.385 256.591 136.385 257.97V266H134.977L134.603 264.328H134.515C134.002 264.973 133.459 265.45 132.887 265.758C132.315 266.066 131.538 266.22 130.555 266.22C129.485 266.22 128.597 265.941 127.893 265.384C127.189 264.812 126.837 263.925 126.837 262.722C126.837 261.549 127.299 260.647 128.223 260.016C129.147 259.371 130.57 259.019 132.491 258.96L134.493 258.894V258.19C134.493 257.207 134.281 256.525 133.855 256.144C133.43 255.763 132.829 255.572 132.051 255.572C131.435 255.572 130.849 255.667 130.291 255.858C129.734 256.034 129.213 256.239 128.729 256.474L128.135 255.022C128.649 254.743 129.257 254.509 129.961 254.318C130.665 254.113 131.399 254.01 132.161 254.01ZM134.471 260.236L132.733 260.302C131.267 260.361 130.247 260.595 129.675 261.006C129.118 261.417 128.839 261.996 128.839 262.744C128.839 263.404 129.037 263.888 129.433 264.196C129.844 264.504 130.365 264.658 130.995 264.658C131.978 264.658 132.799 264.387 133.459 263.844C134.134 263.287 134.471 262.436 134.471 261.292V260.236ZM153.146 251.81C151.46 251.81 150.132 252.375 149.164 253.504C148.196 254.633 147.712 256.181 147.712 258.146C147.712 260.097 148.16 261.644 149.054 262.788C149.964 263.917 151.32 264.482 153.124 264.482C153.799 264.482 154.444 264.423 155.06 264.306C155.676 264.189 156.285 264.042 156.886 263.866V265.582C156.3 265.802 155.691 265.963 155.06 266.066C154.444 266.169 153.704 266.22 152.838 266.22C151.24 266.22 149.905 265.89 148.834 265.23C147.764 264.57 146.957 263.631 146.414 262.414C145.886 261.197 145.622 259.767 145.622 258.124C145.622 256.54 145.908 255.147 146.48 253.944C147.067 252.727 147.925 251.781 149.054 251.106C150.184 250.417 151.555 250.072 153.168 250.072C154.826 250.072 156.27 250.38 157.502 250.996L156.71 252.668C156.226 252.448 155.684 252.25 155.082 252.074C154.496 251.898 153.85 251.81 153.146 251.81ZM161.987 249.28V254.186C161.987 254.773 161.95 255.323 161.877 255.836H162.009C162.39 255.235 162.903 254.78 163.549 254.472C164.209 254.164 164.92 254.01 165.683 254.01C167.105 254.01 168.176 254.355 168.895 255.044C169.628 255.719 169.995 256.811 169.995 258.322V266H168.081V258.454C168.081 256.562 167.201 255.616 165.441 255.616C164.121 255.616 163.211 255.99 162.713 256.738C162.229 257.471 161.987 258.527 161.987 259.906V266H160.051V249.28H161.987ZM174.64 249.786C174.934 249.786 175.19 249.889 175.41 250.094C175.645 250.285 175.762 250.593 175.762 251.018C175.762 251.443 175.645 251.759 175.41 251.964C175.19 252.155 174.934 252.25 174.64 252.25C174.318 252.25 174.046 252.155 173.826 251.964C173.606 251.759 173.496 251.443 173.496 251.018C173.496 250.593 173.606 250.285 173.826 250.094C174.046 249.889 174.318 249.786 174.64 249.786ZM175.586 254.208V266H173.65V254.208H175.586ZM189.574 260.082C189.574 262.033 189.075 263.543 188.078 264.614C187.095 265.685 185.761 266.22 184.074 266.22C183.033 266.22 182.101 265.985 181.28 265.516C180.473 265.032 179.835 264.335 179.366 263.426C178.897 262.502 178.662 261.387 178.662 260.082C178.662 258.131 179.146 256.628 180.114 255.572C181.097 254.516 182.439 253.988 184.14 253.988C185.196 253.988 186.135 254.23 186.956 254.714C187.777 255.183 188.415 255.873 188.87 256.782C189.339 257.677 189.574 258.777 189.574 260.082ZM180.664 260.082C180.664 261.475 180.935 262.583 181.478 263.404C182.035 264.211 182.915 264.614 184.118 264.614C185.306 264.614 186.179 264.211 186.736 263.404C187.293 262.583 187.572 261.475 187.572 260.082C187.572 258.689 187.293 257.596 186.736 256.804C186.179 256.012 185.299 255.616 184.096 255.616C182.893 255.616 182.021 256.012 181.478 256.804C180.935 257.596 180.664 258.689 180.664 260.082ZM205.578 253.988C206.913 253.988 207.91 254.333 208.57 255.022C209.23 255.711 209.56 256.811 209.56 258.322V266H207.646V258.41C207.646 256.547 206.847 255.616 205.248 255.616C204.104 255.616 203.283 255.946 202.784 256.606C202.3 257.266 202.058 258.227 202.058 259.488V266H200.144V258.41C200.144 256.547 199.338 255.616 197.724 255.616C196.536 255.616 195.715 255.983 195.26 256.716C194.806 257.449 194.578 258.505 194.578 259.884V266H192.642V254.208H194.204L194.49 255.814H194.6C194.967 255.198 195.458 254.743 196.074 254.45C196.705 254.142 197.372 253.988 198.076 253.988C199.924 253.988 201.127 254.648 201.684 255.968H201.794C202.19 255.293 202.726 254.795 203.4 254.472C204.075 254.149 204.801 253.988 205.578 253.988ZM217.669 254.01C219.106 254.01 220.17 254.325 220.859 254.956C221.548 255.587 221.893 256.591 221.893 257.97V266H220.485L220.111 264.328H220.023C219.51 264.973 218.967 265.45 218.395 265.758C217.823 266.066 217.046 266.22 216.063 266.22C214.992 266.22 214.105 265.941 213.401 265.384C212.697 264.812 212.345 263.925 212.345 262.722C212.345 261.549 212.807 260.647 213.731 260.016C214.655 259.371 216.078 259.019 217.999 258.96L220.001 258.894V258.19C220.001 257.207 219.788 256.525 219.363 256.144C218.938 255.763 218.336 255.572 217.559 255.572C216.943 255.572 216.356 255.667 215.799 255.858C215.242 256.034 214.721 256.239 214.237 256.474L213.643 255.022C214.156 254.743 214.765 254.509 215.469 254.318C216.173 254.113 216.906 254.01 217.669 254.01ZM219.979 260.236L218.241 260.302C216.774 260.361 215.755 260.595 215.183 261.006C214.626 261.417 214.347 261.996 214.347 262.744C214.347 263.404 214.545 263.888 214.941 264.196C215.352 264.504 215.872 264.658 216.503 264.658C217.486 264.658 218.307 264.387 218.967 263.844C219.642 263.287 219.979 262.436 219.979 261.292V260.236ZM241.778 266L239.886 261.138H233.66L231.79 266H229.788L235.926 250.226H237.708L243.824 266H241.778ZM239.292 259.378L237.532 254.626C237.488 254.509 237.415 254.296 237.312 253.988C237.209 253.68 237.107 253.365 237.004 253.042C236.916 252.705 236.843 252.448 236.784 252.272C236.667 252.727 236.542 253.174 236.41 253.614C236.293 254.039 236.19 254.377 236.102 254.626L234.32 259.378H239.292ZM249.889 266.22C248.422 266.22 247.249 265.714 246.369 264.702C245.489 263.675 245.049 262.15 245.049 260.126C245.049 258.102 245.489 256.577 246.369 255.55C247.264 254.509 248.444 253.988 249.911 253.988C250.82 253.988 251.561 254.157 252.133 254.494C252.72 254.831 253.196 255.242 253.563 255.726H253.695C253.666 255.535 253.636 255.257 253.607 254.89C253.578 254.509 253.563 254.208 253.563 253.988V249.28H255.499V266H253.937L253.651 264.416H253.563C253.211 264.915 252.742 265.34 252.155 265.692C251.568 266.044 250.813 266.22 249.889 266.22ZM250.197 264.614C251.444 264.614 252.316 264.277 252.815 263.602C253.328 262.913 253.585 261.879 253.585 260.5V260.148C253.585 258.681 253.343 257.559 252.859 256.782C252.375 255.99 251.48 255.594 250.175 255.594C249.134 255.594 248.349 256.012 247.821 256.848C247.308 257.669 247.051 258.777 247.051 260.17C247.051 261.578 247.308 262.671 247.821 263.448C248.349 264.225 249.141 264.614 250.197 264.614ZM263.71 254.01C265.147 254.01 266.211 254.325 266.9 254.956C267.589 255.587 267.934 256.591 267.934 257.97V266H266.526L266.152 264.328H266.064C265.551 264.973 265.008 265.45 264.436 265.758C263.864 266.066 263.087 266.22 262.104 266.22C261.033 266.22 260.146 265.941 259.442 265.384C258.738 264.812 258.386 263.925 258.386 262.722C258.386 261.549 258.848 260.647 259.772 260.016C260.696 259.371 262.119 259.019 264.04 258.96L266.042 258.894V258.19C266.042 257.207 265.829 256.525 265.404 256.144C264.979 255.763 264.377 255.572 263.6 255.572C262.984 255.572 262.397 255.667 261.84 255.858C261.283 256.034 260.762 256.239 260.278 256.474L259.684 255.022C260.197 254.743 260.806 254.509 261.51 254.318C262.214 254.113 262.947 254.01 263.71 254.01ZM266.02 260.236L264.282 260.302C262.815 260.361 261.796 260.595 261.224 261.006C260.667 261.417 260.388 261.996 260.388 262.744C260.388 263.404 260.586 263.888 260.982 264.196C261.393 264.504 261.913 264.658 262.544 264.658C263.527 264.658 264.348 264.387 265.008 263.844C265.683 263.287 266.02 262.436 266.02 261.292V260.236ZM284.512 253.988C285.847 253.988 286.844 254.333 287.504 255.022C288.164 255.711 288.494 256.811 288.494 258.322V266H286.58V258.41C286.58 256.547 285.781 255.616 284.182 255.616C283.038 255.616 282.217 255.946 281.718 256.606C281.234 257.266 280.992 258.227 280.992 259.488V266H279.078V258.41C279.078 256.547 278.271 255.616 276.658 255.616C275.47 255.616 274.649 255.983 274.194 256.716C273.739 257.449 273.512 258.505 273.512 259.884V266H271.576V254.208H273.138L273.424 255.814H273.534C273.901 255.198 274.392 254.743 275.008 254.45C275.639 254.142 276.306 253.988 277.01 253.988C278.858 253.988 280.061 254.648 280.618 255.968H280.728C281.124 255.293 281.659 254.795 282.334 254.472C283.009 254.149 283.735 253.988 284.512 253.988ZM301.993 254.208V266H300.409L300.123 264.438H300.035C299.653 265.054 299.125 265.509 298.451 265.802C297.776 266.081 297.057 266.22 296.295 266.22C294.872 266.22 293.801 265.883 293.083 265.208C292.364 264.519 292.005 263.426 292.005 261.93V254.208H293.963V261.798C293.963 263.675 294.835 264.614 296.581 264.614C297.886 264.614 298.788 264.247 299.287 263.514C299.8 262.781 300.057 261.725 300.057 260.346V254.208H301.993Z" fill="white"/>
<defs>
<linearGradient id="paint0_linear_1094_5661" x1="-39.1248" y1="286.65" x2="30.161" y2="191.65" gradientUnits="userSpaceOnUse">
<stop stop-color="#FFC000"/>
<stop offset="1" stop-color="#FFC000" stop-opacity="0"/>
</linearGradient>
<linearGradient id="paint1_linear_1094_5661" x1="-25.6192" y1="296.5" x2="43.6666" y2="201.5" gradientUnits="userSpaceOnUse">
<stop stop-color="#FFC000"/>
<stop offset="1" stop-color="#FFC000" stop-opacity="0"/>
</linearGradient>
<linearGradient id="paint2_linear_1094_5661" x1="-12.1138" y1="306.35" x2="57.172" y2="211.35" gradientUnits="userSpaceOnUse">
<stop stop-color="#FFC000"/>
<stop offset="1" stop-color="#FFC000" stop-opacity="0"/>
</linearGradient>
<linearGradient id="paint3_linear_1094_5661" x1="1.39172" y1="316.2" x2="70.6776" y2="221.2" gradientUnits="userSpaceOnUse">
<stop stop-color="#FFC000"/>
<stop offset="1" stop-color="#FFC000" stop-opacity="0"/>
</linearGradient>
<linearGradient id="paint4_linear_1094_5661" x1="14.8972" y1="326.05" x2="84.1831" y2="231.05" gradientUnits="userSpaceOnUse">
<stop stop-color="#FFC000"/>
<stop offset="1" stop-color="#FFC000" stop-opacity="0"/>
</linearGradient>
<linearGradient id="paint5_linear_1094_5661" x1="-28.7698" y1="294.202" x2="40.516" y2="199.202" gradientUnits="userSpaceOnUse">
<stop stop-color="#FFC000"/>
<stop offset="1" stop-color="#FFC000" stop-opacity="0"/>
</linearGradient>
<linearGradient id="paint6_linear_1094_5661" x1="-15.2642" y1="304.052" x2="54.0216" y2="209.052" gradientUnits="userSpaceOnUse">
<stop stop-color="#FFC000"/>
<stop offset="1" stop-color="#FFC000" stop-opacity="0"/>
</linearGradient>
<linearGradient id="paint7_linear_1094_5661" x1="-1.75875" y1="313.902" x2="67.5271" y2="218.902" gradientUnits="userSpaceOnUse">
<stop stop-color="#FFC000"/>
<stop offset="1" stop-color="#FFC000" stop-opacity="0"/>
</linearGradient>
<linearGradient id="paint8_linear_1094_5661" x1="11.7467" y1="323.752" x2="81.0325" y2="228.752" gradientUnits="userSpaceOnUse">
<stop stop-color="#FFC000"/>
<stop offset="1" stop-color="#FFC000" stop-opacity="0"/>
</linearGradient>
<linearGradient id="paint9_linear_1094_5661" x1="25.2523" y1="333.602" x2="94.5381" y2="238.602" gradientUnits="userSpaceOnUse">
<stop stop-color="#FFC000"/>
<stop offset="1" stop-color="#FFC000" stop-opacity="0"/>
</linearGradient>
<linearGradient id="paint10_linear_1094_5661" x1="-18.4147" y1="301.754" x2="50.8711" y2="206.754" gradientUnits="userSpaceOnUse">
<stop stop-color="#FFC000"/>
<stop offset="1" stop-color="#FFC000" stop-opacity="0"/>
</linearGradient>
<linearGradient id="paint11_linear_1094_5661" x1="-4.90913" y1="311.604" x2="64.3767" y2="216.604" gradientUnits="userSpaceOnUse">
<stop stop-color="#FFC000"/>
<stop offset="1" stop-color="#FFC000" stop-opacity="0"/>
</linearGradient>
<linearGradient id="paint12_linear_1094_5661" x1="8.59625" y1="321.454" x2="77.8821" y2="226.454" gradientUnits="userSpaceOnUse">
<stop stop-color="#FFC000"/>
<stop offset="1" stop-color="#FFC000" stop-opacity="0"/>
</linearGradient>
<linearGradient id="paint13_linear_1094_5661" x1="22.1017" y1="331.304" x2="91.3875" y2="236.304" gradientUnits="userSpaceOnUse">
<stop stop-color="#FFC000"/>
<stop offset="1" stop-color="#FFC000" stop-opacity="0"/>
</linearGradient>
<linearGradient id="paint14_linear_1094_5661" x1="35.6073" y1="341.154" x2="104.893" y2="246.154" gradientUnits="userSpaceOnUse">
<stop stop-color="#FFC000"/>
<stop offset="1" stop-color="#FFC000" stop-opacity="0"/>
</linearGradient>
<linearGradient id="paint15_linear_1094_5661" x1="-8.05977" y1="309.306" x2="61.226" y2="214.307" gradientUnits="userSpaceOnUse">
<stop stop-color="#FFC000"/>
<stop offset="1" stop-color="#FFC000" stop-opacity="0"/>
</linearGradient>
<linearGradient id="paint16_linear_1094_5661" x1="5.4458" y1="319.156" x2="74.7316" y2="224.156" gradientUnits="userSpaceOnUse">
<stop stop-color="#FFC000"/>
<stop offset="1" stop-color="#FFC000" stop-opacity="0"/>
</linearGradient>
<linearGradient id="paint17_linear_1094_5661" x1="18.9512" y1="329.006" x2="88.2371" y2="234.006" gradientUnits="userSpaceOnUse">
<stop stop-color="#FFC000"/>
<stop offset="1" stop-color="#FFC000" stop-opacity="0"/>
</linearGradient>
<linearGradient id="paint18_linear_1094_5661" x1="32.4567" y1="338.856" x2="101.743" y2="243.856" gradientUnits="userSpaceOnUse">
<stop stop-color="#FFC000"/>
<stop offset="1" stop-color="#FFC000" stop-opacity="0"/>
</linearGradient>
<linearGradient id="paint19_linear_1094_5661" x1="45.9622" y1="348.706" x2="115.248" y2="253.706" gradientUnits="userSpaceOnUse">
<stop stop-color="#FFC000"/>
<stop offset="1" stop-color="#FFC000" stop-opacity="0"/>
</linearGradient>
<linearGradient id="paint20_linear_1094_5661" x1="2.29516" y1="316.859" x2="71.581" y2="221.859" gradientUnits="userSpaceOnUse">
<stop stop-color="#FFC000"/>
<stop offset="1" stop-color="#FFC000" stop-opacity="0"/>
</linearGradient>
<linearGradient id="paint21_linear_1094_5661" x1="15.8008" y1="326.708" x2="85.0866" y2="231.709" gradientUnits="userSpaceOnUse">
<stop stop-color="#FFC000"/>
<stop offset="1" stop-color="#FFC000" stop-opacity="0"/>
</linearGradient>
<linearGradient id="paint22_linear_1094_5661" x1="29.3062" y1="336.558" x2="98.592" y2="241.558" gradientUnits="userSpaceOnUse">
<stop stop-color="#FFC000"/>
<stop offset="1" stop-color="#FFC000" stop-opacity="0"/>
</linearGradient>
<linearGradient id="paint23_linear_1094_5661" x1="42.8116" y1="346.408" x2="112.097" y2="251.408" gradientUnits="userSpaceOnUse">
<stop stop-color="#FFC000"/>
<stop offset="1" stop-color="#FFC000" stop-opacity="0"/>
</linearGradient>
<linearGradient id="paint24_linear_1094_5661" x1="56.3172" y1="356.258" x2="125.603" y2="261.258" gradientUnits="userSpaceOnUse">
<stop stop-color="#FFC000"/>
<stop offset="1" stop-color="#FFC000" stop-opacity="0"/>
</linearGradient>
<linearGradient id="paint25_linear_1094_5661" x1="87.5782" y1="335.692" x2="160.953" y2="109.845" gradientUnits="userSpaceOnUse">
<stop stop-color="#1F1E21"/>
<stop offset="0.6496" stop-color="#1F1E21" stop-opacity="0"/>
</linearGradient>
<linearGradient id="paint26_linear_1094_5661" x1="351.849" y1="5.05475" x2="302.491" y2="223.744" gradientUnits="userSpaceOnUse">
<stop stop-color="white"/>
<stop offset="0.1237" stop-color="white" stop-opacity="0.87451"/>
<stop offset="1" stop-color="white" stop-opacity="0"/>
</linearGradient>
<linearGradient id="paint27_linear_1094_5661" x1="361.154" y1="106.687" x2="361.154" y2="234.707" gradientUnits="userSpaceOnUse">
<stop stop-color="#ADADAD"/>
<stop offset="1" stop-color="white"/>
</linearGradient>
<linearGradient id="paint28_linear_1094_5661" x1="361.154" y1="228.364" x2="361.154" y2="111.158" gradientUnits="userSpaceOnUse">
<stop stop-color="#EBEBEB"/>
<stop offset="1" stop-color="#ADADAD"/>
</linearGradient>
<linearGradient id="paint29_linear_1094_5661" x1="361.155" y1="222.533" x2="361.155" y2="111.265" gradientUnits="userSpaceOnUse">
<stop stop-color="#EBEBEB"/>
<stop offset="1" stop-color="#ADADAD"/>
</linearGradient>
<linearGradient id="paint30_linear_1094_5661" x1="361.154" y1="222.237" x2="361.154" y2="110.97" gradientUnits="userSpaceOnUse">
<stop stop-color="#F2F2F2"/>
<stop offset="1" stop-color="#ADADAD"/>
</linearGradient>
<linearGradient id="paint31_linear_1094_5661" x1="361.155" y1="222.533" x2="361.155" y2="111.265" gradientUnits="userSpaceOnUse">
<stop stop-color="#ADADAD"/>
<stop offset="0.9962" stop-color="#D9D9D9"/>
</linearGradient>
<linearGradient id="paint32_linear_1094_5661" x1="361.789" y1="221.506" x2="361.789" y2="112.241" gradientUnits="userSpaceOnUse">
<stop stop-color="#EBEBEB"/>
<stop offset="1" stop-color="#ADADAD"/>
</linearGradient>
</defs>
</svg>
