<svg width="505" height="352" viewBox="0 0 505 352" fill="none" xmlns="http://www.w3.org/2000/svg">
<g clip-path="url(#clip0_1973_6146)">
<path d="M68.5004 136.493C106.052 136.493 136.493 106.052 136.493 68.5004C136.493 30.9491 106.052 0.507812 68.5004 0.507812C30.9491 0.507812 0.507812 30.9491 0.507812 68.5004C0.507812 106.052 30.9491 136.493 68.5004 136.493Z" fill="white" stroke="#FFC000"/>
<path d="M83.4628 51.1065V29.43C83.4628 28.3091 82.5541 27.4004 81.4331 27.4004H52.6937C51.5727 27.4004 50.6641 28.3091 50.6641 29.43V62.0664C50.6641 63.1873 51.5727 64.096 52.6937 64.096H69.8237" stroke="black" stroke-width="2" stroke-linecap="square"/>
<path d="M55.2031 42.9883H77.935" stroke="black" stroke-width="2" stroke-linecap="square"/>
<path d="M55.2031 47.5342H77.935" stroke="black" stroke-width="2" stroke-linecap="square"/>
<path d="M55.2031 52.7295H70.7907" stroke="black" stroke-width="2" stroke-linecap="square"/>
<path d="M55.2031 57.9248H67.5433" stroke="black" stroke-width="2" stroke-linecap="square"/>
<path d="M62.6849 30.7725V38.522H61.2698L57.8983 33.6445H57.8415V38.522H56.2031V30.7725H57.641L60.9859 35.6462H61.054V30.7725H62.6849ZM66.7858 38.522H64.0386V30.7725H66.8085C67.588 30.7725 68.259 30.9276 68.8215 31.2379C69.3841 31.5456 69.8168 31.9884 70.1195 32.566C70.4246 33.1437 70.5773 33.835 70.5773 34.6396C70.5773 35.4469 70.4246 36.1406 70.1195 36.7208C69.8168 37.301 69.3816 37.7463 68.814 38.0565C68.2489 38.3668 67.5728 38.522 66.7858 38.522ZM65.6771 37.1181H66.7177C67.202 37.1181 67.6094 37.0323 67.9399 36.8608C68.2729 36.6867 68.5227 36.4181 68.6891 36.0549C68.8582 35.689 68.9426 35.2173 68.9426 34.6396C68.9426 34.067 68.8582 33.599 68.6891 33.2358C68.5227 32.8725 68.2741 32.6051 67.9437 32.4336C67.6132 32.2621 67.2058 32.1763 66.7215 32.1763H65.6771V37.1181ZM72.6897 38.522H70.934L73.6091 30.7725H75.7206L78.392 38.522H76.6363L74.6952 32.5433H74.6346L72.6897 38.522ZM72.5799 35.4759H76.7271V36.7549H72.5799V35.4759Z" fill="black"/>
<path d="M79.2357 67.9919C83.7194 67.9919 87.3542 64.3571 87.3542 59.8734C87.3542 55.3897 83.7194 51.7549 79.2357 51.7549C74.752 51.7549 71.1172 55.3897 71.1172 59.8734C71.1172 64.3571 74.752 67.9919 79.2357 67.9919Z" fill="black"/>
<path d="M75.625 59.8742L78.174 62.4232C78.2584 62.5075 78.3971 62.5012 78.4735 62.4096L82.8414 57.168" stroke="white" stroke-width="2" stroke-linecap="round"/>
<path d="M44.7188 81.1318H51.382V82.3253H46.0685V85.4651H50.5722V86.6585H46.0685V90.1393H51.382V91.3328H44.7188V81.1318ZM57.6862 91.3328L55.6261 88.406L53.5802 91.3328H52.1879L54.9015 87.4541L52.4152 83.9023H53.8786L55.6687 86.5022L57.4873 83.9023H58.8938L56.4075 87.4541L59.1353 91.3328H57.6862ZM62.9209 91.489C60.8608 91.489 59.4401 89.912 59.4401 87.6246C59.4401 85.4083 60.8466 83.7602 62.864 83.7602C64.9383 83.7602 66.0323 85.3372 66.0323 87.3973V87.8235H60.6619C60.7329 89.3863 61.628 90.3809 62.9209 90.3809C63.9154 90.3809 64.6258 89.841 64.8531 88.9601L65.9755 89.3579C65.5208 90.6792 64.3984 91.489 62.9209 91.489ZM62.8498 84.8542C61.7701 84.8542 60.9603 85.5788 60.7329 86.8432H64.7394C64.711 85.7919 64.1427 84.8542 62.8498 84.8542ZM68.3912 87.6246C68.3912 89.3153 69.3005 90.3666 70.6218 90.3666C71.6447 90.3666 72.2556 89.7131 72.4688 88.7896L73.6053 89.3153C73.2502 90.5513 72.1704 91.489 70.6218 91.489C68.5475 91.489 67.1126 89.912 67.1126 87.6246C67.1126 85.323 68.5475 83.7602 70.6218 83.7602C72.1704 83.7602 73.2217 84.6553 73.5769 85.8913L72.4688 86.4454C72.2556 85.5361 71.6447 84.8684 70.6218 84.8684C69.3005 84.8684 68.3912 85.9197 68.3912 87.6246ZM80.9014 83.9023V91.3328H79.6227V90.3098C79.1965 90.9349 78.4719 91.489 77.4205 91.489C75.8293 91.489 74.9342 90.3951 74.9342 88.818V83.9023H76.2129V88.5481C76.2129 89.5994 76.6676 90.3098 77.7615 90.3098C78.685 90.3098 79.6227 89.6137 79.6227 88.3776V83.9023H80.9014ZM83.2236 89.5568V84.9962H82.0728V83.9023H83.2236V81.7286H84.488V83.9023H86.1787V84.9962H84.488V89.3579C84.488 90.1393 84.8716 90.2814 85.5252 90.2814C85.8235 90.2814 86.0366 90.2672 86.335 90.1962V91.2901C86.0082 91.3612 85.6388 91.4038 85.2126 91.4038C83.9481 91.4038 83.2236 90.9776 83.2236 89.5568ZM90.7807 91.489C88.7206 91.489 87.2999 89.912 87.2999 87.6246C87.2999 85.4083 88.7064 83.7602 90.7239 83.7602C92.7981 83.7602 93.8921 85.3372 93.8921 87.3973V87.8235H88.5217C88.5927 89.3863 89.4878 90.3809 90.7807 90.3809C91.7752 90.3809 92.4856 89.841 92.7129 88.9601L93.8353 89.3579C93.3806 90.6792 92.2583 91.489 90.7807 91.489ZM90.7096 84.8542C89.6299 84.8542 88.8201 85.5788 88.5927 86.8432H92.5992C92.5708 85.7919 92.0025 84.8542 90.7096 84.8542ZM63.3882 99.3985V109.599H62.209L56.6397 101.388V109.599H55.3326V99.3985H56.7675L62.0669 107.284V99.3985H63.3882ZM65.6275 109.599V99.3985H68.8668C71.964 99.3985 73.9246 101.388 73.9246 104.499C73.9246 107.61 71.964 109.599 68.8668 109.599H65.6275ZM66.963 108.42H68.8668C71.1826 108.42 72.5891 106.872 72.5891 104.499C72.5891 102.112 71.1826 100.578 68.8526 100.578H66.963V108.42ZM78.1302 99.3985H79.6362L83.5716 109.599H82.1935L81.1564 106.914H76.5816L75.5587 109.599H74.1948L78.1302 99.3985ZM78.8548 100.933L77.0362 105.721H80.7017L78.8548 100.933Z" fill="black"/>
</g>
<g clip-path="url(#clip1_1973_6146)">
<path d="M251.496 136.528C289.067 136.528 319.524 106.071 319.524 68.5002C319.524 30.9296 289.067 0.472656 251.496 0.472656C213.926 0.472656 183.469 30.9296 183.469 68.5002C183.469 106.071 213.926 136.528 251.496 136.528Z" fill="white" stroke="#FFC000"/>
<path d="M242.801 51.1441C248.705 51.1441 253.492 46.3575 253.492 40.4529C253.492 34.5483 248.705 29.7617 242.801 29.7617C236.896 29.7617 232.109 34.5483 232.109 40.4529C232.109 46.3575 236.896 51.1441 242.801 51.1441Z" stroke="black" stroke-width="3"/>
<path d="M229.285 53.1833L231.056 39.7197C231.965 50.0852 233.625 51.0943 245.366 51.8282L229.702 53.6082C229.458 53.6359 229.253 53.427 229.285 53.1833Z" fill="black" stroke="black" stroke-linecap="square"/>
<path fill-rule="evenodd" clip-rule="evenodd" d="M256.653 44.814C256.951 43.7787 257.111 42.6846 257.111 41.5532C257.111 41.5383 257.111 41.5233 257.111 41.5084C258.374 41.0622 259.732 40.8193 261.147 40.8193C267.835 40.8193 273.256 46.2405 273.256 52.9279C273.256 59.6152 267.835 65.0363 261.147 65.0363C254.46 65.0363 249.039 59.6152 249.039 52.9279C249.039 52.8548 249.04 52.7821 249.041 52.7094C250.114 52.3566 251.118 51.8533 252.03 51.2246C251.927 51.7768 251.874 52.346 251.874 52.9279C251.874 58.0497 256.026 62.2018 261.147 62.2018C266.269 62.2018 270.421 58.0497 270.421 52.9279C270.421 47.806 266.269 43.6538 261.147 43.6538C259.517 43.6538 257.984 44.0748 256.653 44.814Z" fill="black"/>
<path d="M274.66 65.658L272.888 52.1943C271.979 62.5599 270.32 63.5689 258.578 64.3028L274.242 66.0828C274.486 66.1105 274.692 65.9016 274.66 65.658Z" fill="black" stroke="black" stroke-linecap="square"/>
<path d="M238.03 42.2879C238.841 42.2879 239.498 41.6308 239.498 40.8202C239.498 40.0097 238.841 39.3525 238.03 39.3525C237.22 39.3525 236.562 40.0097 236.562 40.8202C236.562 41.6308 237.22 42.2879 238.03 42.2879Z" fill="black"/>
<path d="M242.436 42.2879C243.247 42.2879 243.904 41.6308 243.904 40.8202C243.904 40.0097 243.247 39.3525 242.436 39.3525C241.626 39.3525 240.969 40.0097 240.969 40.8202C240.969 41.6308 241.626 42.2879 242.436 42.2879Z" fill="black"/>
<path d="M246.835 42.2879C247.645 42.2879 248.303 41.6308 248.303 40.8202C248.303 40.0097 247.645 39.3525 246.835 39.3525C246.024 39.3525 245.367 40.0097 245.367 40.8202C245.367 41.6308 246.024 42.2879 246.835 42.2879Z" fill="black"/>
<path d="M266.698 51.5747L265.72 51.4504C265.641 51.2049 265.542 50.9661 265.424 50.7362L266.028 49.959C266.146 49.8098 266.205 49.6224 266.193 49.4325C266.181 49.2427 266.1 49.0639 265.965 48.9303L265.146 48.1116C265.012 47.9754 264.833 47.8933 264.643 47.8811C264.452 47.8689 264.264 47.9275 264.114 48.0455L263.338 48.6491C263.108 48.5317 262.869 48.4328 262.623 48.3533L262.499 47.3775C262.476 47.1885 262.385 47.0143 262.243 46.8879C262.1 46.7614 261.917 46.6916 261.726 46.6914H260.562C260.168 46.6914 259.836 46.9861 259.789 47.376L259.665 48.3533C259.419 48.4326 259.18 48.5316 258.95 48.6491L258.174 48.0455C258.025 47.9278 257.837 47.8692 257.647 47.8809C257.458 47.8927 257.279 47.9738 257.145 48.1089L256.326 48.9272C256.19 49.0608 256.108 49.2402 256.096 49.4307C256.084 49.6212 256.142 49.8096 256.26 49.9596L256.864 50.7362C256.746 50.966 256.648 51.2048 256.568 51.4504L255.592 51.5747C255.201 51.6214 254.906 51.9536 254.906 52.3471V53.5115C254.906 53.9051 255.201 54.2372 255.591 54.284L256.568 54.4083C256.649 54.6562 256.748 54.8953 256.864 55.1225L256.26 55.8996C256.142 56.0489 256.084 56.2363 256.095 56.4262C256.107 56.616 256.188 56.7948 256.324 56.9284L257.143 57.7471C257.276 57.883 257.456 57.9648 257.646 57.9769C257.836 57.989 258.024 57.9305 258.174 57.8126L258.951 57.2091C259.178 57.3255 259.417 57.4248 259.665 57.5049L259.789 58.4801C259.836 58.8725 260.168 59.1673 260.562 59.1673H261.726C262.12 59.1673 262.452 58.8725 262.499 58.4827L262.623 57.5054C262.869 57.4257 263.107 57.3269 263.337 57.2096L264.114 57.8132C264.429 58.0575 264.873 58.0289 265.143 57.7497L265.962 56.931C266.098 56.7973 266.18 56.6181 266.192 56.4277C266.204 56.2373 266.146 56.0491 266.028 55.8991L265.424 55.1225C265.541 54.8953 265.64 54.6562 265.72 54.4083L266.695 54.284C266.884 54.2614 267.059 54.1703 267.185 54.028C267.312 53.8856 267.381 53.7019 267.382 53.5115V52.3471C267.382 52.157 267.312 51.9735 267.186 51.8311C267.06 51.6888 266.886 51.5975 266.698 51.5747ZM261.144 55.5285C259.711 55.5285 258.545 54.3625 258.545 52.9293C258.545 51.4961 259.711 50.3302 261.144 50.3302C262.577 50.3302 263.743 51.4961 263.743 52.9293C263.743 54.3625 262.577 55.5285 261.144 55.5285Z" fill="black"/>
<path d="M231.951 79.4822H228.737V87.8685H227.467V79.4822H224.252V78.3711H231.951V79.4822ZM234.463 88.014C232.545 88.014 231.222 86.5457 231.222 84.4161C231.222 82.3526 232.531 80.8182 234.41 80.8182C236.341 80.8182 237.36 82.2865 237.36 84.2045V84.6013H232.359C232.426 86.0563 233.259 86.9823 234.463 86.9823C235.389 86.9823 236.05 86.4796 236.262 85.6595L237.307 86.0299C236.883 87.26 235.838 88.014 234.463 88.014ZM234.397 81.8367C233.391 81.8367 232.637 82.5113 232.426 83.6886H236.156C236.129 82.7097 235.6 81.8367 234.397 81.8367ZM239.556 84.4161C239.556 85.9902 240.402 86.969 241.632 86.969C242.585 86.969 243.154 86.3606 243.352 85.5008L244.41 85.9902C244.08 87.141 243.074 88.014 241.632 88.014C239.701 88.014 238.365 86.5457 238.365 84.4161C238.365 82.2732 239.701 80.8182 241.632 80.8182C243.074 80.8182 244.053 81.6515 244.384 82.8023L243.352 83.3182C243.154 82.4716 242.585 81.8499 241.632 81.8499C240.402 81.8499 239.556 82.8288 239.556 84.4161ZM245.714 87.8685V78.3711H246.904V81.8896C247.301 81.3208 247.989 80.8182 248.968 80.8182C250.436 80.8182 251.269 81.8367 251.269 83.305V87.8685H250.079V83.6224C250.079 82.6568 249.669 81.9293 248.637 81.9293C247.777 81.9293 246.904 82.5907 246.904 83.7415V87.8685H245.714ZM253.18 87.8685V80.9505H254.37V81.8896C254.767 81.3208 255.455 80.8182 256.434 80.8182C257.902 80.8182 258.736 81.8367 258.736 83.305V87.8685H257.545V83.6224C257.545 82.6568 257.135 81.9293 256.103 81.9293C255.243 81.9293 254.37 82.5907 254.37 83.7415V87.8685H253.18ZM260.593 79.7468V78.3711H261.89V79.7468H260.593ZM261.837 80.9505V87.8685H260.646V80.9505H261.837ZM264.538 84.4161C264.538 85.9902 265.385 86.969 266.615 86.969C267.567 86.969 268.136 86.3606 268.335 85.5008L269.393 85.9902C269.062 87.141 268.057 88.014 266.615 88.014C264.684 88.014 263.348 86.5457 263.348 84.4161C263.348 82.2732 264.684 80.8182 266.615 80.8182C268.057 80.8182 269.036 81.6515 269.366 82.8023L268.335 83.3182C268.136 82.4716 267.567 81.8499 266.615 81.8499C265.385 81.8499 264.538 82.8288 264.538 84.4161ZM272.507 87.9876C271.25 87.9876 270.231 87.2468 270.231 86.0034C270.231 84.6277 271.303 84.059 272.85 83.7415L274.53 83.3976V83.1066C274.53 82.3129 274.094 81.8632 273.168 81.8632C272.295 81.8632 271.779 82.2732 271.567 83.0404L270.443 82.7494C270.774 81.6251 271.792 80.8182 273.208 80.8182C274.755 80.8182 275.708 81.5722 275.708 83.0537V86.4267C275.708 86.8764 275.985 87.0219 276.448 86.9161V87.8685C275.39 88.0008 274.782 87.7495 274.636 87.0881C274.213 87.6304 273.446 87.9876 272.507 87.9876ZM274.53 85.514V84.3235L273.181 84.6145C272.123 84.8262 271.409 85.1172 271.409 85.9505C271.409 86.6251 271.898 87.0219 272.652 87.0219C273.671 87.0219 274.53 86.4002 274.53 85.514ZM278.927 78.3711V87.8685H277.736V78.3711H278.927ZM217.703 104.875V95.378H220.719C223.603 95.378 225.428 97.2299 225.428 100.127C225.428 103.024 223.603 104.875 220.719 104.875H217.703ZM218.947 103.778H220.719C222.875 103.778 224.185 102.336 224.185 100.127C224.185 97.9045 222.875 96.4759 220.706 96.4759H218.947V103.778ZM226.872 96.7537V95.378H228.168V96.7537H226.872ZM228.116 97.9574V104.875H226.925V97.9574H228.116ZM229.336 103.407L230.261 102.733C230.632 103.539 231.478 104.029 232.378 104.029C233.185 104.029 233.899 103.685 233.899 102.931C233.899 102.177 233.238 102.071 232.1 101.833C230.963 101.582 229.772 101.33 229.772 99.9151C229.772 98.6849 230.844 97.8251 232.312 97.8251C233.555 97.8251 234.574 98.4336 234.984 99.2537L234.137 99.9283C233.78 99.2404 233.132 98.8039 232.259 98.8039C231.465 98.8039 230.936 99.2008 230.936 99.8225C230.936 100.471 231.545 100.59 232.51 100.801C233.701 101.079 235.063 101.317 235.063 102.825C235.063 104.148 233.859 105.021 232.378 105.021C231.121 105.021 229.865 104.479 229.336 103.407ZM237.25 101.423C237.25 102.997 238.097 103.976 239.327 103.976C240.279 103.976 240.848 103.367 241.046 102.508L242.105 102.997C241.774 104.148 240.769 105.021 239.327 105.021C237.396 105.021 236.06 103.553 236.06 101.423C236.06 99.2801 237.396 97.8251 239.327 97.8251C240.769 97.8251 241.747 98.6584 242.078 99.8092L241.046 100.325C240.848 99.4785 240.279 98.8568 239.327 98.8568C238.097 98.8568 237.25 99.8357 237.25 101.423ZM248.897 97.9574V104.875H247.707V103.923C247.31 104.505 246.635 105.021 245.657 105.021C244.175 105.021 243.342 104.002 243.342 102.534V97.9574H244.532V102.283C244.532 103.262 244.955 103.923 245.974 103.923C246.834 103.923 247.707 103.275 247.707 102.124V97.9574H248.897ZM250.107 103.407L251.033 102.733C251.403 103.539 252.25 104.029 253.149 104.029C253.956 104.029 254.671 103.685 254.671 102.931C254.671 102.177 254.009 102.071 252.872 101.833C251.734 101.582 250.544 101.33 250.544 99.9151C250.544 98.6849 251.615 97.8251 253.083 97.8251C254.327 97.8251 255.345 98.4336 255.755 99.2537L254.909 99.9283C254.551 99.2404 253.903 98.8039 253.03 98.8039C252.237 98.8039 251.708 99.2008 251.708 99.8225C251.708 100.471 252.316 100.59 253.282 100.801C254.472 101.079 255.835 101.317 255.835 102.825C255.835 104.148 254.631 105.021 253.149 105.021C251.893 105.021 250.636 104.479 250.107 103.407ZM256.54 103.407L257.466 102.733C257.836 103.539 258.683 104.029 259.582 104.029C260.389 104.029 261.103 103.685 261.103 102.931C261.103 102.177 260.442 102.071 259.305 101.833C258.167 101.582 256.976 101.33 256.976 99.9151C256.976 98.6849 258.048 97.8251 259.516 97.8251C260.76 97.8251 261.778 98.4336 262.188 99.2537L261.342 99.9283C260.984 99.2404 260.336 98.8039 259.463 98.8039C258.67 98.8039 258.141 99.2008 258.141 99.8225C258.141 100.471 258.749 100.59 259.715 100.801C260.905 101.079 262.268 101.317 262.268 102.825C262.268 104.148 261.064 105.021 259.582 105.021C258.326 105.021 257.069 104.479 256.54 103.407ZM263.687 96.7537V95.378H264.983V96.7537H263.687ZM264.931 97.9574V104.875H263.74V97.9574H264.931ZM272.87 101.423C272.87 103.566 271.547 105.021 269.656 105.021C267.764 105.021 266.442 103.566 266.442 101.423C266.442 99.2801 267.764 97.8251 269.656 97.8251C271.547 97.8251 272.87 99.2801 272.87 101.423ZM267.645 101.423C267.645 102.997 268.439 104.002 269.656 104.002C270.873 104.002 271.666 102.997 271.666 101.423C271.666 99.8357 270.873 98.8304 269.656 98.8304C268.439 98.8304 267.645 99.8357 267.645 101.423ZM274.384 104.875V97.9574H275.575V98.8965C275.971 98.3277 276.659 97.8251 277.638 97.8251C279.106 97.8251 279.94 98.8436 279.94 100.312V104.875H278.749V100.629C278.749 99.6637 278.339 98.9362 277.307 98.9362C276.448 98.9362 275.575 99.5976 275.575 100.748V104.875H274.384ZM281.083 103.407L282.009 102.733C282.379 103.539 283.226 104.029 284.125 104.029C284.932 104.029 285.647 103.685 285.647 102.931C285.647 102.177 284.985 102.071 283.848 101.833C282.71 101.582 281.52 101.33 281.52 99.9151C281.52 98.6849 282.591 97.8251 284.059 97.8251C285.303 97.8251 286.321 98.4336 286.731 99.2537L285.885 99.9283C285.527 99.2404 284.879 98.8039 284.006 98.8039C283.213 98.8039 282.684 99.2008 282.684 99.8225C282.684 100.471 283.292 100.59 284.258 100.801C285.448 101.079 286.811 101.317 286.811 102.825C286.811 104.148 285.607 105.021 284.125 105.021C282.869 105.021 281.612 104.479 281.083 103.407Z" fill="black"/>
</g>
<g clip-path="url(#clip2_1973_6146)">
<path d="M434.501 136.611C472.118 136.611 502.612 106.117 502.612 68.5005C502.612 30.8839 472.118 0.389648 434.501 0.389648C396.885 0.389648 366.391 30.8839 366.391 68.5005C366.391 106.117 396.885 136.611 434.501 136.611Z" fill="white" stroke="#FFC000"/>
<path d="M422.353 53.9657C422.264 53.9657 422.177 53.9447 422.098 53.9044L417.857 51.7197C417.726 51.6525 417.627 51.5361 417.582 51.3962C417.536 51.2563 417.548 51.1041 417.615 50.973L422.598 41.1314C422.631 41.066 422.676 41.0078 422.732 40.9602C422.788 40.9125 422.852 40.8763 422.922 40.8535C422.991 40.8309 423.065 40.8222 423.138 40.8279C423.211 40.8336 423.282 40.8538 423.347 40.887L427.382 42.946C427.512 43.0119 427.61 43.1259 427.657 43.2636C427.703 43.4013 427.694 43.5517 427.631 43.6827L422.855 53.6479C422.822 53.715 422.777 53.7748 422.721 53.8242C422.666 53.8734 422.601 53.9111 422.53 53.935C422.473 53.9546 422.413 53.9649 422.353 53.9657ZM418.858 50.983L422.098 52.6524L426.393 43.6933L423.338 42.1352L418.858 50.983Z" fill="black" stroke="black" stroke-width="0.2"/>
<path d="M428.111 46.221C428.016 46.221 427.922 46.1963 427.838 46.1493L426.221 45.2383C426.157 45.2025 426.101 45.1544 426.056 45.0969C426.011 45.0395 425.978 44.9736 425.958 44.9033C425.938 44.8329 425.933 44.7593 425.941 44.6868C425.95 44.6142 425.973 44.5441 426.009 44.4804C426.045 44.4168 426.093 44.3607 426.15 44.3156C426.208 44.2705 426.274 44.2371 426.344 44.2175C426.414 44.1978 426.488 44.1921 426.561 44.2009C426.633 44.2096 426.703 44.2326 426.767 44.2684L428.103 45.0202C428.624 44.7041 429.752 44.0236 430.475 43.6157C431.654 42.9479 432.484 43.0397 433.437 43.9429C433.542 44.045 433.602 44.184 433.604 44.33C433.607 44.476 433.553 44.6172 433.452 44.7232C433.352 44.8292 433.214 44.8916 433.068 44.8967C432.922 44.9019 432.78 44.8495 432.672 44.7508C432.08 44.1899 431.772 44.161 431.022 44.584C430.094 45.1087 428.42 46.1293 428.402 46.142C428.315 46.1946 428.214 46.222 428.111 46.221Z" fill="black" stroke="black" stroke-width="0.2"/>
<path d="M442.753 55.9047C442.348 55.9152 441.948 55.8095 441.6 55.6004C441.088 55.2587 438.836 53.0495 438.389 52.6104C438.291 52.5057 438.237 52.367 438.238 52.2233C438.24 52.0796 438.297 51.9422 438.398 51.8396C438.498 51.737 438.635 51.6774 438.778 51.6732C438.922 51.669 439.062 51.7205 439.168 51.8169C440.17 52.8058 441.888 54.4557 442.216 54.6744C442.427 54.772 442.661 54.8109 442.892 54.787C443.124 54.7631 443.345 54.6773 443.532 54.5386C443.619 54.4627 443.689 54.3685 443.736 54.2628C443.783 54.157 443.806 54.0421 443.804 53.9263C443.802 53.8105 443.775 53.6965 443.724 53.5925C443.673 53.4885 443.599 53.397 443.509 53.3244C442.941 52.6845 440.578 50.4113 440.059 49.9127C438.249 49.2493 436.495 48.4452 434.811 47.5076L434.225 47.8905C434.094 48.5006 433.743 49.0413 433.24 49.4102C433.063 49.5494 432.858 49.6481 432.639 49.6993C432.42 49.7504 432.192 49.7528 431.972 49.7063C431.705 49.6729 431.448 49.5843 431.217 49.446C430.986 49.3076 430.787 49.1225 430.632 48.9027C430.336 48.2705 430.302 47.5467 430.539 46.89C431.014 44.9902 431.784 44.5011 432.85 43.8244L433.084 43.6748C434.258 42.9207 435.266 42.519 436.372 43.017C437.06 43.327 439.501 44.2723 440.194 44.5406L442.518 43.7788C442.657 43.7365 442.808 43.7503 442.937 43.8174C443.066 43.8845 443.163 43.9995 443.209 44.1378C443.254 44.2761 443.244 44.4265 443.179 44.5571C443.115 44.6876 443.002 44.7877 442.865 44.8361L440.352 45.6596C440.231 45.6993 440.099 45.6962 439.98 45.6507C439.848 45.5995 436.744 44.4054 435.917 44.0325C435.422 43.81 434.898 43.8328 433.687 44.6107L433.448 44.7638C432.476 45.3809 431.988 45.6914 431.62 47.1598C431.432 47.9122 431.519 48.2172 431.588 48.3285C431.675 48.4754 431.879 48.5349 432.204 48.6162C432.273 48.6279 432.345 48.624 432.412 48.6047C432.48 48.5855 432.543 48.5513 432.596 48.5049C432.753 48.3866 432.884 48.2375 432.982 48.0666C433.079 47.8958 433.14 47.7069 433.161 47.5115C433.168 47.4277 433.195 47.3465 433.238 47.2742C433.281 47.202 433.34 47.1404 433.41 47.0942L434.482 46.3936C434.566 46.3387 434.664 46.3077 434.765 46.304C434.865 46.3003 434.965 46.3239 435.053 46.3725C435.091 46.393 438.843 48.4448 440.486 48.8766C440.577 48.901 440.661 48.9479 440.73 49.0129C440.85 49.1281 443.679 51.837 444.344 52.5865C444.527 52.7647 444.674 52.9785 444.773 53.2148C444.871 53.4511 444.921 53.7051 444.92 53.9613C444.917 54.2175 444.864 54.4707 444.76 54.7054C444.657 54.94 444.508 55.1514 444.321 55.3265C443.893 55.715 443.331 55.9222 442.753 55.9047Z" fill="black" stroke="black" stroke-width="0.2"/>
<path d="M443.923 53.5104C443.796 53.5103 443.672 53.4665 443.573 53.3862C443.474 53.3058 443.406 53.1939 443.379 53.0692C443.353 52.9444 443.37 52.8144 443.428 52.7008C443.486 52.5873 443.581 52.4971 443.698 52.4454L445.65 51.5806C445.717 51.549 445.79 51.531 445.864 51.5279C445.938 51.5247 446.012 51.5364 446.082 51.5623C446.151 51.5881 446.215 51.6277 446.269 51.6786C446.323 51.7294 446.366 51.7905 446.396 51.8584C446.427 51.9262 446.443 51.9993 446.444 52.0735C446.445 52.1478 446.432 52.2214 446.404 52.2904C446.377 52.3593 446.336 52.4219 446.283 52.4748C446.231 52.5276 446.169 52.5694 446.1 52.5979L444.148 53.4648C444.077 53.4954 444 53.511 443.923 53.5104Z" fill="black" stroke="black" stroke-width="0.2"/>
<path d="M446.485 53.9657C446.374 53.9656 446.266 53.9324 446.173 53.8703C446.082 53.8083 446.011 53.7202 445.97 53.6173L441.769 43.1969C441.741 43.1274 441.727 43.053 441.729 42.978C441.73 42.9032 441.746 42.8293 441.777 42.7609C441.808 42.6924 441.852 42.631 441.907 42.58C441.962 42.5291 442.027 42.4899 442.097 42.4646L446.586 40.8587C446.721 40.8101 446.871 40.8162 447.002 40.8756C447.134 40.9349 447.237 41.043 447.29 41.177L451.408 51.5128C451.435 51.5811 451.448 51.6541 451.446 51.7275C451.446 51.8009 451.429 51.8734 451.4 51.9406C451.37 52.0079 451.328 52.0686 451.274 52.1194C451.221 52.17 451.159 52.2097 451.091 52.2361L446.684 53.9267C446.621 53.9518 446.553 53.965 446.485 53.9657ZM443.016 43.3171L446.795 52.6919L450.164 51.4009L446.455 42.0874L443.016 43.3171ZM440.251 57.5916C439.793 57.6054 439.345 57.4512 438.992 57.1581C438.247 56.4959 436.331 54.5816 436.25 54.5004C436.149 54.3954 436.093 54.2549 436.094 54.109C436.095 53.9631 436.154 53.8235 436.257 53.7203C436.36 53.6172 436.499 53.5587 436.645 53.5574C436.791 53.5562 436.932 53.6122 437.037 53.7136C437.056 53.7331 439.011 55.6863 439.731 56.329C439.88 56.4199 440.049 56.4735 440.223 56.4851C440.398 56.4967 440.572 56.4661 440.732 56.3957C440.994 56.3066 441.225 56.1474 441.402 55.9356C441.579 55.7237 441.695 55.4673 441.736 55.1943C441.749 55.1223 441.775 55.0534 441.814 54.9917C441.853 54.9299 441.904 54.8764 441.964 54.8343C442.023 54.7921 442.091 54.7621 442.162 54.7461C442.233 54.73 442.307 54.7281 442.379 54.7405C442.451 54.753 442.52 54.7794 442.582 54.8185C442.644 54.8575 442.697 54.9083 442.739 54.968C442.781 55.0277 442.811 55.0951 442.827 55.1665C442.844 55.2378 442.845 55.3115 442.833 55.3835C442.757 55.851 442.556 56.2893 442.252 56.6518C441.947 57.0143 441.55 57.2875 441.102 57.4424C440.829 57.5394 440.541 57.5899 440.251 57.5916Z" fill="black" stroke="black" stroke-width="0.2"/>
<path d="M437.653 58.9396C437.196 58.9592 436.748 58.7994 436.406 58.4944L434.43 56.5179L435.217 55.7305L437.194 57.707C437.316 57.7757 437.451 57.8179 437.591 57.831C437.731 57.844 437.872 57.8276 438.004 57.7827C438.26 57.7201 438.493 57.5899 438.681 57.406C438.869 57.2221 439.004 56.991 439.072 56.7371C439.092 56.6663 439.127 56.6003 439.173 56.5428C439.219 56.4854 439.277 56.4378 439.342 56.4028C439.407 56.3677 439.478 56.3459 439.551 56.3386C439.625 56.3313 439.699 56.3387 439.769 56.3604C439.84 56.3819 439.905 56.4173 439.962 56.4645C440.019 56.5117 440.065 56.5697 440.1 56.6351C440.134 56.7004 440.154 56.772 440.161 56.8455C440.167 56.919 440.158 56.993 440.136 57.0632C439.981 57.6025 439.655 58.077 439.208 58.4153C438.76 58.7537 438.214 58.9377 437.653 58.9396Z" fill="black" stroke="black" stroke-width="0.2"/>
<path d="M435.533 60.4253C435.078 60.435 434.633 60.291 434.27 60.0163C433.769 59.615 433.265 59.2166 432.759 58.8211C432.701 58.7765 432.651 58.7208 432.614 58.6569C432.577 58.5932 432.553 58.5226 432.544 58.4495C432.534 58.3763 432.539 58.302 432.559 58.2309C432.578 58.1597 432.612 58.0931 432.657 58.035C432.702 57.9768 432.759 57.9283 432.823 57.8922C432.888 57.8562 432.958 57.8332 433.032 57.8247C433.105 57.8163 433.179 57.8225 433.25 57.8429C433.321 57.8634 433.387 57.8978 433.444 57.9441C433.444 57.9441 434.139 58.4866 434.966 59.1477C435.142 59.2525 435.342 59.3098 435.547 59.314C435.752 59.3182 435.954 59.2691 436.134 59.1716C436.296 59.1023 436.432 58.9859 436.525 58.8376C436.619 58.6892 436.665 58.516 436.659 58.3408C436.654 58.1933 436.708 58.0501 436.81 57.9426C436.911 57.8351 437.05 57.7722 437.198 57.7677C437.345 57.7651 437.487 57.8201 437.594 57.9209C437.701 58.0217 437.765 58.1605 437.771 58.3074C437.784 58.6951 437.683 59.078 437.481 59.4087C437.278 59.7394 436.983 60.0033 436.631 60.1677C436.29 60.3367 435.914 60.4249 435.533 60.4253Z" fill="black" stroke="black" stroke-width="0.2"/>
<path d="M431.359 60.1689C431.178 60.1682 430.999 60.1323 430.832 60.0631C430.379 59.8405 430.004 59.4833 429.761 59.0403C429.366 59.1169 428.957 59.0554 428.602 58.8661C428.304 58.671 428.048 58.4185 427.849 58.1236C427.65 57.8286 427.511 57.4969 427.441 57.1478C427.412 57.0056 427.439 56.8577 427.517 56.7355C427.97 56.0298 428.652 54.933 428.754 54.7044C428.845 54.5219 428.975 54.3614 429.135 54.2338C429.294 54.1063 429.479 54.0147 429.678 53.9653C429.947 53.8947 430.229 53.8852 430.503 53.9376C430.776 53.99 431.035 54.103 431.259 54.2681C431.508 54.4327 431.707 54.6613 431.837 54.9298C431.967 55.1983 432.022 55.4968 431.996 55.7939C432.261 55.8053 432.52 55.8734 432.756 55.9935C432.992 56.1135 433.2 56.2829 433.365 56.49C433.525 56.7407 433.627 57.024 433.664 57.3193C433.701 57.6146 433.672 57.9144 433.578 58.1968C433.286 59.0114 432.687 59.6793 431.908 60.0575C431.735 60.131 431.548 60.1689 431.359 60.1689ZM430.698 58.4321C430.873 58.7276 431.185 59.1516 431.477 59.0297C431.962 58.7771 432.336 58.3528 432.524 57.8395C432.562 57.7259 432.576 57.606 432.566 57.4869C432.557 57.3678 432.524 57.2518 432.469 57.1456C432.384 57.0626 432.284 56.9976 432.173 56.9544C432.063 56.9112 431.945 56.8907 431.827 56.894L430.698 58.4321ZM428.589 57.1244C428.677 57.4336 428.869 57.7031 429.132 57.8879C429.214 57.9301 429.304 57.9549 429.397 57.961C429.489 57.967 429.581 57.9541 429.668 57.9229L430.856 55.8863C430.903 55.7604 430.906 55.6223 430.865 55.4944C430.823 55.3666 430.739 55.2568 430.627 55.1829C430.541 55.1155 430.443 55.0669 430.337 55.0399C430.232 55.013 430.122 55.0084 430.015 55.0265C429.92 55.0422 429.834 55.0899 429.77 55.1617C429.623 55.4873 428.916 56.6091 428.589 57.1244Z" fill="black" stroke="black" stroke-width="0.2"/>
<path d="M427.12 57.9932C426.988 57.9936 426.857 57.9749 426.731 57.9376C425.777 57.651 425.404 56.4167 425.365 56.2771C425.345 56.2062 425.339 56.1321 425.348 56.059C425.357 55.986 425.38 55.9154 425.416 55.8514C425.889 55.0298 426.412 54.2381 426.983 53.4808C427.269 53.1083 427.684 52.856 428.146 52.7729C428.609 52.6899 429.085 52.7822 429.484 53.0317C430.009 53.3963 430.394 54.1892 429.75 55.2254C429.711 55.2875 429.661 55.3413 429.601 55.384C429.542 55.4267 429.475 55.4572 429.403 55.4738C429.332 55.4905 429.258 55.493 429.186 55.4812C429.114 55.4693 429.045 55.4433 428.983 55.4048C428.921 55.3663 428.867 55.3159 428.824 55.2565C428.782 55.1971 428.751 55.1299 428.735 55.0587C428.718 54.9876 428.715 54.9138 428.727 54.8416C428.739 54.7695 428.765 54.7004 428.804 54.6383C428.947 54.4073 429.071 54.1007 428.849 53.9466C428.686 53.8579 428.498 53.8307 428.317 53.8697C428.136 53.9087 427.975 54.0114 427.864 54.1592C427.375 54.8087 426.923 55.485 426.509 56.1847C426.631 56.4757 426.839 56.809 427.051 56.8719C427.238 56.9276 427.496 56.735 427.636 56.616C427.747 56.5195 427.893 56.4713 428.04 56.482C428.187 56.4928 428.324 56.5616 428.421 56.6733C428.517 56.785 428.565 56.9305 428.555 57.0777C428.544 57.2249 428.475 57.3619 428.363 57.4585C428.029 57.7835 427.586 57.9738 427.12 57.9932Z" fill="black" stroke="black" stroke-width="0.2"/>
<path d="M425.89 56.681C425.829 56.6809 425.768 56.6708 425.711 56.651C425.617 56.6193 423.398 55.8441 423.398 54.1068C423.398 54.0484 423.407 53.9904 423.425 53.9349C423.626 53.3808 423.902 52.8566 424.245 52.3768C424.5 52.0721 424.852 51.8646 425.242 51.7892C425.632 51.7138 426.036 51.7751 426.386 51.9628C426.716 52.1088 426.978 52.3731 427.123 52.7035C427.267 53.0339 427.282 53.4063 427.165 53.7473C426.801 54.9192 426.428 56.2586 426.424 56.2726C426.391 56.3896 426.321 56.4927 426.224 56.5661C426.128 56.6396 426.01 56.6794 425.888 56.6794L425.89 56.681ZM424.516 54.1931C424.571 54.7139 425.105 55.1101 425.532 55.3477C425.677 54.8402 425.892 54.1018 426.104 53.419C426.123 53.3756 426.133 53.3286 426.133 53.2811C426.133 53.2336 426.122 53.1866 426.103 53.1434C426.083 53.1003 426.054 53.0618 426.018 53.0307C425.982 52.9994 425.94 52.9763 425.895 52.9627C425.78 52.8979 425.648 52.8685 425.516 52.8785C425.385 52.8884 425.259 52.937 425.155 53.0184C424.897 53.3838 424.683 53.778 424.516 54.1931Z" fill="black" stroke="black" stroke-width="0.2"/>
<path d="M424.414 53.703C424.302 53.7028 424.193 53.6689 424.1 53.6056L422.641 52.6039C422.519 52.5206 422.435 52.3922 422.408 52.247C422.381 52.1019 422.412 51.952 422.496 51.8302C422.579 51.7083 422.707 51.6246 422.853 51.5974C422.998 51.5702 423.148 51.6018 423.269 51.6852L424.729 52.6868C424.827 52.7539 424.902 52.8508 424.941 52.9632C424.98 53.0756 424.982 53.1975 424.947 53.3112C424.912 53.4249 424.841 53.5243 424.745 53.5948C424.649 53.6653 424.533 53.7032 424.414 53.703Z" fill="black" stroke="black" stroke-width="0.2"/>
<path d="M423.016 40.8264V29.5792C423.016 29.1493 423.364 28.8008 423.794 28.8008H445.742C446.172 28.8008 446.52 29.1493 446.52 29.5792V40.8264" stroke="black" stroke-width="2" stroke-linecap="square"/>
<path d="M431.492 32.3545H443.791" stroke="black" stroke-width="2" stroke-linecap="square"/>
<path d="M431.492 35.6338H443.791" stroke="black" stroke-width="2" stroke-linecap="square"/>
<path d="M431.492 38.9141H441.605" stroke="black" stroke-width="2" stroke-linecap="square"/>
<path d="M429.02 37.7765C428.971 37.7765 428.923 37.765 428.879 37.7431C428.835 37.7211 428.797 37.6891 428.767 37.6498L425.539 33.3459V37.46C425.539 37.6347 425.398 37.7765 425.223 37.7765C425.048 37.7765 424.906 37.6347 424.906 37.46V32.3966C424.906 32.3301 424.927 32.2654 424.966 32.2116C425.005 32.1576 425.06 32.1174 425.123 32.0963C425.186 32.0753 425.254 32.0747 425.317 32.0945C425.38 32.1143 425.436 32.1536 425.476 32.2066L428.704 36.5105V32.3966C428.704 32.2217 428.846 32.0801 429.02 32.0801C429.195 32.0801 429.337 32.2217 429.337 32.3966V37.46C429.337 37.5015 429.329 37.5427 429.313 37.5811C429.297 37.6195 429.273 37.6543 429.244 37.6838C429.215 37.7131 429.18 37.7365 429.141 37.7523C429.103 37.7683 429.062 37.7765 429.02 37.7765Z" fill="black"/>
<path d="M429.806 34.6114H424.426C424.251 34.6114 424.109 34.4698 424.109 34.2949C424.109 34.1202 424.251 33.9785 424.426 33.9785H429.806C429.981 33.9785 430.122 34.1202 430.122 34.2949C430.122 34.4698 429.981 34.6114 429.806 34.6114ZM429.806 35.8773H424.426C424.251 35.8773 424.109 35.7355 424.109 35.5608C424.109 35.386 424.251 35.2444 424.426 35.2444H429.806C429.981 35.2444 430.122 35.386 430.122 35.5608C430.122 35.7355 429.981 35.8773 429.806 35.8773Z" fill="black"/>
<path d="M420.276 77.5515H419.389V70.8447H423.723V71.6294H420.276V73.7871H423.191V74.5717H420.276V77.5515ZM424.559 71.8162V70.8447H425.475V71.8162H424.559ZM425.437 72.6662V77.5515H424.597V72.6662H425.437ZM426.841 77.5515V72.6662H427.681V73.3294C427.962 72.9278 428.447 72.5728 429.139 72.5728C430.175 72.5728 430.764 73.292 430.764 74.3289V77.5515H429.923V74.5531C429.923 73.8712 429.634 73.3574 428.905 73.3574C428.298 73.3574 427.681 73.8245 427.681 74.6371V77.5515H426.841ZM433.337 77.6356C432.449 77.6356 431.73 77.1125 431.73 76.2344C431.73 75.263 432.487 74.8613 433.58 74.6371L434.766 74.3943V74.1888C434.766 73.6283 434.458 73.3107 433.804 73.3107C433.187 73.3107 432.823 73.6003 432.674 74.1421L431.88 73.9366C432.113 73.1426 432.832 72.5728 433.832 72.5728C434.925 72.5728 435.597 73.1052 435.597 74.1514V76.5333C435.597 76.8509 435.793 76.9537 436.12 76.879V77.5515C435.373 77.6449 434.943 77.4674 434.841 77.0004C434.542 77.3834 434 77.6356 433.337 77.6356ZM434.766 75.8888V75.0481L433.813 75.2536C433.066 75.4031 432.562 75.6086 432.562 76.1971C432.562 76.6735 432.907 76.9537 433.44 76.9537C434.159 76.9537 434.766 76.5147 434.766 75.8888ZM437.871 70.8447V77.5515H437.03V70.8447H437.871ZM439.237 71.8162V70.8447H440.152V71.8162H439.237ZM440.115 72.6662V77.5515H439.274V72.6662H440.115ZM445.049 76.8323V77.5515H441.2V76.9163L444.021 73.3855H441.238V72.6662H445.021V73.3107L442.256 76.8323H445.049ZM447.958 77.6543C446.604 77.6543 445.67 76.6174 445.67 75.1135C445.67 73.6563 446.595 72.5728 447.921 72.5728C449.285 72.5728 450.004 73.6096 450.004 74.9641V75.2443H446.473C446.52 76.2718 447.108 76.9257 447.958 76.9257C448.612 76.9257 449.079 76.5707 449.229 75.9916L449.967 76.2531C449.668 77.1218 448.93 77.6543 447.958 77.6543ZM447.912 73.292C447.202 73.292 446.669 73.7684 446.52 74.5998H449.154C449.135 73.9085 448.762 73.292 447.912 73.292ZM403.934 88.2096C403.934 89.7975 404.812 90.8717 406.055 90.8717C406.923 90.8717 407.549 90.3673 407.792 89.5173L408.642 89.7975C408.25 90.9558 407.334 91.6657 406.055 91.6657C404.317 91.6657 403.038 90.2552 403.038 88.2096C403.038 86.1639 404.317 84.7534 406.055 84.7534C407.334 84.7534 408.25 85.4633 408.642 86.6216L407.792 86.9018C407.549 86.0518 406.923 85.5474 406.055 85.5474C404.812 85.5474 403.934 86.6216 403.934 88.2096ZM413.753 89.125C413.753 90.6382 412.819 91.6657 411.484 91.6657C410.148 91.6657 409.214 90.6382 409.214 89.125C409.214 87.6117 410.148 86.5842 411.484 86.5842C412.819 86.5842 413.753 87.6117 413.753 89.125ZM410.064 89.125C410.064 90.2365 410.624 90.9464 411.484 90.9464C412.343 90.9464 412.903 90.2365 412.903 89.125C412.903 88.0041 412.343 87.2941 411.484 87.2941C410.624 87.2941 410.064 88.0041 410.064 89.125ZM415.663 88.6392V91.5629H414.822V86.6776H415.663V87.3408C415.925 86.9392 416.392 86.5842 417.074 86.5842C417.727 86.5842 418.185 86.9112 418.428 87.4156C418.699 87.0139 419.222 86.5842 419.988 86.5842C420.997 86.5842 421.604 87.3035 421.604 88.3403V91.5629H420.763V88.5645C420.763 87.8826 420.483 87.3689 419.792 87.3689C419.231 87.3689 418.634 87.8453 418.634 88.6392V91.5629H417.793V88.5645C417.793 87.8826 417.513 87.3689 416.821 87.3689C416.261 87.3689 415.663 87.8453 415.663 88.6392ZM423.8 88.6392V91.5629H422.959V86.6776H423.8V87.3408C424.061 86.9392 424.528 86.5842 425.21 86.5842C425.864 86.5842 426.322 86.9112 426.565 87.4156C426.836 87.0139 427.359 86.5842 428.125 86.5842C429.134 86.5842 429.741 87.3035 429.741 88.3403V91.5629H428.9V88.5645C428.9 87.8826 428.62 87.3689 427.929 87.3689C427.368 87.3689 426.77 87.8453 426.77 88.6392V91.5629H425.93V88.5645C425.93 87.8826 425.649 87.3689 424.958 87.3689C424.398 87.3689 423.8 87.8453 423.8 88.6392ZM433.048 91.6657C431.694 91.6657 430.76 90.6288 430.76 89.125C430.76 87.6678 431.685 86.5842 433.011 86.5842C434.375 86.5842 435.094 87.6211 435.094 88.9755V89.2557H431.563C431.61 90.2832 432.198 90.9371 433.048 90.9371C433.702 90.9371 434.169 90.5821 434.319 90.003L435.057 90.2646C434.758 91.1333 434.02 91.6657 433.048 91.6657ZM433.002 87.3035C432.292 87.3035 431.759 87.7799 431.61 88.6112H434.244C434.225 87.92 433.852 87.3035 433.002 87.3035ZM438.672 86.659V87.509C438.532 87.481 438.42 87.4716 438.261 87.4716C437.551 87.4716 436.981 88.0321 436.981 88.8914V91.5629H436.14V86.6776H436.981V87.509C437.196 87.0139 437.672 86.6403 438.336 86.6403C438.466 86.6403 438.588 86.6496 438.672 86.659ZM439.901 89.125C439.901 90.2365 440.499 90.9278 441.368 90.9278C442.041 90.9278 442.442 90.4981 442.582 89.8909L443.33 90.2365C443.096 91.0492 442.386 91.6657 441.368 91.6657C440.004 91.6657 439.061 90.6288 439.061 89.125C439.061 87.6117 440.004 86.5842 441.368 86.5842C442.386 86.5842 443.077 87.1727 443.311 87.9854L442.582 88.3497C442.442 87.7518 442.041 87.3128 441.368 87.3128C440.499 87.3128 439.901 88.0041 439.901 89.125ZM444.213 85.8276V84.8562H445.128V85.8276H444.213ZM445.091 86.6776V91.5629H444.25V86.6776H445.091ZM447.718 91.647C446.83 91.647 446.111 91.1239 446.111 90.2459C446.111 89.2744 446.868 88.8728 447.961 88.6486L449.147 88.4057V88.2002C449.147 87.6398 448.839 87.3222 448.185 87.3222C447.568 87.3222 447.204 87.6117 447.055 88.1535L446.261 87.948C446.494 87.154 447.213 86.5842 448.213 86.5842C449.306 86.5842 449.978 87.1167 449.978 88.1628V90.5448C449.978 90.8624 450.174 90.9651 450.501 90.8904V91.5629C449.754 91.6563 449.324 91.4789 449.222 91.0118C448.923 91.3948 448.381 91.647 447.718 91.647ZM449.147 89.9003V89.0596L448.194 89.2651C447.447 89.4145 446.942 89.62 446.942 90.2085C446.942 90.6849 447.288 90.9651 447.821 90.9651C448.54 90.9651 449.147 90.5261 449.147 89.9003ZM452.251 84.8562V91.5629H451.411V84.8562H452.251ZM453.113 90.5261L453.767 90.0497C454.028 90.6195 454.626 90.9651 455.261 90.9651C455.831 90.9651 456.336 90.7223 456.336 90.1898C456.336 89.6574 455.868 89.5827 455.065 89.4145C454.262 89.237 453.421 89.0596 453.421 88.0601C453.421 87.1914 454.178 86.5842 455.215 86.5842C456.093 86.5842 456.812 87.0139 457.101 87.5931L456.504 88.0694C456.251 87.5837 455.794 87.2755 455.177 87.2755C454.617 87.2755 454.243 87.5557 454.243 87.9947C454.243 88.4524 454.673 88.5365 455.355 88.6859C456.195 88.8821 457.158 89.0502 457.158 90.1151C457.158 91.0492 456.308 91.6657 455.261 91.6657C454.374 91.6657 453.487 91.2827 453.113 90.5261ZM462.307 84.7908C462.643 84.7908 462.929 84.8499 463.166 84.9683C463.409 85.0803 463.596 85.2423 463.727 85.454C463.857 85.6657 463.923 85.9241 463.923 86.2293C463.923 86.6216 463.795 86.9548 463.54 87.2288C463.291 87.5028 462.973 87.7518 462.587 87.976L464.39 89.7134C464.552 89.5204 464.682 89.2993 464.782 89.0502C464.888 88.7949 464.975 88.5209 465.044 88.2282H465.875C465.775 88.6268 465.651 88.9973 465.501 89.3398C465.352 89.6823 465.159 89.9812 464.922 90.2365L466.286 91.5629H465.174L464.362 90.7783C464.212 90.9091 464.057 91.0305 463.895 91.1426C463.739 91.2485 463.568 91.3388 463.381 91.4135C463.194 91.4882 462.992 91.5474 462.774 91.591C462.562 91.6346 462.325 91.6563 462.064 91.6563C461.634 91.6563 461.261 91.5878 460.943 91.4508C460.632 91.3076 460.389 91.099 460.214 90.825C460.046 90.551 459.962 90.2178 459.962 89.8255C459.962 89.5079 460.018 89.2339 460.13 89.0035C460.249 88.7731 460.417 88.5676 460.635 88.387C460.853 88.2064 461.108 88.0321 461.401 87.8639C461.27 87.7145 461.142 87.5588 461.018 87.3969C460.893 87.235 460.79 87.0606 460.709 86.8738C460.628 86.6808 460.588 86.4721 460.588 86.248C460.588 85.9428 460.656 85.6813 460.793 85.4633C460.93 85.2454 461.127 85.0803 461.382 84.9683C461.644 84.8499 461.952 84.7908 462.307 84.7908ZM461.896 88.3777C461.672 88.5085 461.478 88.6423 461.317 88.7793C461.161 88.9101 461.039 89.0565 460.952 89.2184C460.865 89.3803 460.822 89.5733 460.822 89.7975C460.822 90.14 460.937 90.414 461.167 90.6195C461.398 90.825 461.706 90.9278 462.092 90.9278C462.49 90.9278 462.833 90.8624 463.119 90.7316C463.406 90.6008 463.646 90.4451 463.839 90.2646L461.896 88.3777ZM462.279 85.4633C462.017 85.4633 461.802 85.5318 461.634 85.6688C461.472 85.8058 461.391 85.9958 461.391 86.2386C461.391 86.4628 461.45 86.6714 461.569 86.8645C461.687 87.0513 461.858 87.2599 462.083 87.4903C462.45 87.2786 462.711 87.0793 462.867 86.8925C463.029 86.6994 463.11 86.4784 463.11 86.2293C463.11 86.0051 463.035 85.8214 462.886 85.6782C462.736 85.5349 462.534 85.4633 462.279 85.4633ZM391.836 98.8675H396.217V99.6522H392.723V101.717H395.684V102.501H392.723V104.79H396.217V105.574H391.836V98.8675ZM400.362 105.574L399.007 103.65L397.662 105.574H396.747L398.531 103.024L396.896 100.689H397.858L399.035 102.398L400.231 100.689H401.156L399.521 103.024L401.314 105.574H400.362ZM403.803 105.677C402.449 105.677 401.515 104.64 401.515 103.136C401.515 101.679 402.44 100.596 403.766 100.596C405.13 100.596 405.849 101.632 405.849 102.987V103.267H402.318C402.365 104.295 402.953 104.948 403.803 104.948C404.457 104.948 404.924 104.594 405.074 104.014L405.812 104.276C405.513 105.145 404.775 105.677 403.803 105.677ZM403.757 101.315C403.047 101.315 402.514 101.791 402.365 102.623H404.999C404.98 101.931 404.607 101.315 403.757 101.315ZM407.4 103.136C407.4 104.248 407.998 104.939 408.866 104.939C409.539 104.939 409.941 104.509 410.081 103.902L410.828 104.248C410.594 105.061 409.885 105.677 408.866 105.677C407.503 105.677 406.559 104.64 406.559 103.136C406.559 101.623 407.503 100.596 408.866 100.596C409.885 100.596 410.576 101.184 410.809 101.997L410.081 102.361C409.941 101.763 409.539 101.324 408.866 101.324C407.998 101.324 407.4 102.015 407.4 103.136ZM415.625 100.689V105.574H414.784V104.902C414.504 105.313 414.028 105.677 413.336 105.677C412.29 105.677 411.702 104.958 411.702 103.921V100.689H412.542V103.743C412.542 104.435 412.841 104.902 413.56 104.902C414.168 104.902 414.784 104.444 414.784 103.631V100.689H415.625ZM417.152 104.407V101.408H416.395V100.689H417.152V99.2598H417.983V100.689H419.095V101.408H417.983V104.276C417.983 104.79 418.235 104.883 418.665 104.883C418.861 104.883 419.001 104.874 419.197 104.827V105.546C418.982 105.593 418.74 105.621 418.459 105.621C417.628 105.621 417.152 105.341 417.152 104.407ZM422.12 105.677C420.766 105.677 419.832 104.64 419.832 103.136C419.832 101.679 420.756 100.596 422.083 100.596C423.447 100.596 424.166 101.632 424.166 102.987V103.267H420.635C420.682 104.295 421.27 104.948 422.12 104.948C422.774 104.948 423.241 104.594 423.391 104.014L424.128 104.276C423.83 105.145 423.092 105.677 422.12 105.677ZM422.073 101.315C421.364 101.315 420.831 101.791 420.682 102.623H423.316C423.297 101.931 422.923 101.315 422.073 101.315ZM429.219 98.8675H430.209L432.797 105.574H431.891L431.209 103.809H428.201L427.528 105.574H426.632L429.219 98.8675ZM429.695 99.8763L428.5 103.024H430.91L429.695 99.8763ZM437.688 105.135C437.688 106.564 436.744 107.358 435.418 107.358C434.344 107.358 433.559 106.863 433.288 105.967L434.073 105.668C434.232 106.294 434.736 106.658 435.418 106.658C436.277 106.658 436.847 106.219 436.847 105.201V104.65C436.586 105.126 436.035 105.462 435.353 105.462C434.017 105.462 433.232 104.36 433.232 103.024C433.232 101.698 434.017 100.596 435.353 100.596C436.025 100.596 436.586 100.932 436.847 101.408V100.689H437.688V105.135ZM436.857 102.95C436.857 101.857 436.203 101.334 435.502 101.334C434.615 101.334 434.073 101.997 434.073 103.024C434.073 104.052 434.615 104.724 435.502 104.724C436.203 104.724 436.857 104.201 436.857 103.127V102.95ZM441.618 100.67V101.52C441.478 101.492 441.366 101.483 441.207 101.483C440.497 101.483 439.928 102.043 439.928 102.903V105.574H439.087V100.689H439.928V101.52C440.142 101.025 440.619 100.652 441.282 100.652C441.413 100.652 441.534 100.661 441.618 100.67ZM444.296 105.677C442.941 105.677 442.007 104.64 442.007 103.136C442.007 101.679 442.932 100.596 444.259 100.596C445.622 100.596 446.342 101.632 446.342 102.987V103.267H442.811C442.857 104.295 443.446 104.948 444.296 104.948C444.95 104.948 445.417 104.594 445.566 104.014L446.304 104.276C446.005 105.145 445.267 105.677 444.296 105.677ZM444.249 101.315C443.539 101.315 443.007 101.791 442.857 102.623H445.492C445.473 101.931 445.099 101.315 444.249 101.315ZM449.34 105.677C447.986 105.677 447.051 104.64 447.051 103.136C447.051 101.679 447.976 100.596 449.303 100.596C450.666 100.596 451.386 101.632 451.386 102.987V103.267H447.855C447.901 104.295 448.49 104.948 449.34 104.948C449.994 104.948 450.461 104.594 450.61 104.014L451.348 104.276C451.049 105.145 450.311 105.677 449.34 105.677ZM449.293 101.315C448.583 101.315 448.051 101.791 447.901 102.623H450.536C450.517 101.931 450.143 101.315 449.293 101.315ZM453.273 102.651V105.574H452.433V100.689H453.273V101.352C453.535 100.951 454.002 100.596 454.684 100.596C455.338 100.596 455.795 100.923 456.038 101.427C456.309 101.025 456.832 100.596 457.598 100.596C458.607 100.596 459.214 101.315 459.214 102.352V105.574H458.373V102.576C458.373 101.894 458.093 101.38 457.402 101.38C456.842 101.38 456.244 101.857 456.244 102.651V105.574H455.403V102.576C455.403 101.894 455.123 101.38 454.432 101.38C453.871 101.38 453.273 101.857 453.273 102.651ZM462.522 105.677C461.167 105.677 460.233 104.64 460.233 103.136C460.233 101.679 461.158 100.596 462.484 100.596C463.848 100.596 464.567 101.632 464.567 102.987V103.267H461.036C461.083 104.295 461.672 104.948 462.522 104.948C463.175 104.948 463.642 104.594 463.792 104.014L464.53 104.276C464.231 105.145 463.493 105.677 462.522 105.677ZM462.475 101.315C461.765 101.315 461.233 101.791 461.083 102.623H463.717C463.699 101.931 463.325 101.315 462.475 101.315ZM465.613 105.574V100.689H466.454V101.352C466.734 100.951 467.22 100.596 467.911 100.596C468.948 100.596 469.537 101.315 469.537 102.352V105.574H468.696V102.576C468.696 101.894 468.406 101.38 467.678 101.38C467.071 101.38 466.454 101.847 466.454 102.66V105.574H465.613ZM471.017 104.407V101.408H470.261V100.689H471.017V99.2598H471.848V100.689H472.96V101.408H471.848V104.276C471.848 104.79 472.101 104.883 472.53 104.883C472.727 104.883 472.867 104.874 473.063 104.827V105.546C472.848 105.593 472.605 105.621 472.325 105.621C471.493 105.621 471.017 105.341 471.017 104.407ZM473.519 104.537L474.173 104.061C474.434 104.631 475.032 104.976 475.667 104.976C476.237 104.976 476.742 104.734 476.742 104.201C476.742 103.669 476.274 103.594 475.471 103.426C474.668 103.248 473.827 103.071 473.827 102.071C473.827 101.203 474.584 100.596 475.621 100.596C476.499 100.596 477.218 101.025 477.507 101.604L476.91 102.081C476.657 101.595 476.2 101.287 475.583 101.287C475.023 101.287 474.649 101.567 474.649 102.006C474.649 102.464 475.079 102.548 475.761 102.697C476.601 102.893 477.564 103.062 477.564 104.126C477.564 105.061 476.714 105.677 475.667 105.677C474.78 105.677 473.893 105.294 473.519 104.537Z" fill="black"/>
</g>
<path d="M150 74.2308V63.1538H160.303V57L169.5 68.5L160.303 81V74.2308H150Z" fill="black"/>
<path d="M333 74.2308V63.1538H343.303V57L352.5 68.5L343.303 81V74.2308H333Z" fill="black"/>
<path d="M352.5 265.231V254.154H342.197V248L333 259.5L342.197 272V265.231H352.5Z" fill="black"/>
<path d="M429.769 150L440.846 150L440.846 160.303L447 160.303L435.5 169.5L423 160.303L429.769 160.303L429.769 150Z" fill="black"/>
<g clip-path="url(#clip3_1973_6146)">
<path d="M435.501 321.539C473.63 321.539 504.54 290.629 504.54 252.5C504.54 214.37 473.63 183.46 435.501 183.46C397.371 183.46 366.461 214.37 366.461 252.5C366.461 290.629 397.371 321.539 435.501 321.539Z" fill="white" stroke="#FFC000"/>
<path d="M428.516 229.443C429.232 230.15 430.184 230.535 431.194 230.53C432.204 230.52 433.146 230.121 433.853 229.405C434.559 228.688 434.944 227.736 434.939 226.727C434.939 226.568 434.809 226.438 434.651 226.438C434.492 226.438 434.362 226.568 434.362 226.727C434.367 227.583 434.04 228.386 433.444 228.996C432.848 229.607 432.045 229.943 431.189 229.948C430.333 229.953 429.53 229.626 428.92 229.03C428.309 228.434 427.972 227.631 427.968 226.775C427.963 225.919 428.29 225.116 428.886 224.505C429.482 223.895 430.285 223.558 431.141 223.554C431.3 223.554 431.429 223.424 431.429 223.265C431.429 223.106 431.3 222.977 431.141 222.977C430.131 222.986 429.189 223.385 428.482 224.102C427.775 224.818 427.381 225.775 427.391 226.784C427.4 227.794 427.799 228.737 428.516 229.443Z" fill="black" stroke="black"/>
<path d="M422.752 225.145L423.647 225.515C423.507 226.347 423.507 227.183 423.647 228.01L422.752 228.38C422.497 228.481 422.291 228.683 422.185 228.948C422.074 229.212 422.074 229.501 422.185 229.765L422.685 230.977C422.796 231.241 422.998 231.443 423.262 231.554C423.526 231.664 423.815 231.664 424.079 231.554L424.974 231.183C425.459 231.866 426.051 232.457 426.738 232.948L426.368 233.842C426.142 234.385 426.402 235.01 426.945 235.236L428.152 235.736C428.695 235.962 429.32 235.703 429.546 235.16L429.916 234.265C430.748 234.405 431.584 234.405 432.411 234.265L432.782 235.16C432.892 235.424 433.094 235.626 433.359 235.736C433.623 235.847 433.911 235.847 434.176 235.736L435.383 235.236C435.647 235.126 435.849 234.924 435.96 234.66C436.07 234.395 436.07 234.107 435.96 233.842L435.589 232.948C436.272 232.462 436.864 231.871 437.354 231.183L438.248 231.554C438.513 231.664 438.801 231.664 439.066 231.554C439.33 231.443 439.532 231.241 439.643 230.977L440.147 229.77C440.373 229.227 440.114 228.602 439.57 228.376L438.46 227.914C438.311 227.852 438.142 227.924 438.085 228.068C438.022 228.217 438.094 228.385 438.239 228.443L439.349 228.904C439.599 229.01 439.719 229.294 439.614 229.544L439.114 230.751C439.013 231.001 438.724 231.121 438.474 231.015L437.364 230.554C437.239 230.501 437.09 230.544 437.013 230.659C436.498 231.429 435.844 232.082 435.08 232.592C434.964 232.669 434.921 232.813 434.974 232.943L435.436 234.054C435.484 234.174 435.484 234.309 435.436 234.429C435.388 234.549 435.291 234.645 435.171 234.693L433.96 235.193C433.839 235.241 433.705 235.241 433.585 235.193C433.464 235.145 433.368 235.049 433.32 234.929L432.859 233.818C432.806 233.693 432.671 233.621 432.536 233.645C431.628 233.828 430.709 233.828 429.801 233.645C429.666 233.616 429.532 233.688 429.479 233.818L429.017 234.929C428.911 235.179 428.628 235.299 428.378 235.193L427.171 234.693C426.921 234.587 426.801 234.304 426.906 234.054L427.358 232.953C427.411 232.828 427.368 232.679 427.252 232.602C426.483 232.087 425.829 231.433 425.32 230.669C425.243 230.554 425.099 230.51 424.969 230.563L423.858 231.025C423.738 231.073 423.603 231.073 423.483 231.025C423.363 230.977 423.267 230.881 423.219 230.76L422.719 229.549C422.671 229.428 422.671 229.294 422.719 229.174C422.767 229.053 422.863 228.957 422.983 228.909L424.094 228.448C424.219 228.395 424.291 228.26 424.267 228.126C424.084 227.217 424.089 226.299 424.267 225.39C424.296 225.255 424.224 225.121 424.094 225.068L422.983 224.606C422.733 224.5 422.613 224.217 422.719 223.967L423.219 222.76C423.324 222.51 423.608 222.39 423.858 222.496L424.969 222.957C425.094 223.01 425.243 222.967 425.32 222.851C425.834 222.082 426.488 221.428 427.252 220.918C427.368 220.842 427.411 220.697 427.358 220.567L426.897 219.457C426.849 219.337 426.849 219.202 426.897 219.082C426.945 218.962 427.041 218.865 427.161 218.817L428.373 218.317C428.493 218.269 428.628 218.269 428.748 218.317C428.868 218.365 428.964 218.462 429.012 218.582L429.474 219.692C429.536 219.842 429.705 219.909 429.849 219.846C429.998 219.784 430.065 219.616 430.003 219.471L429.541 218.361C429.431 218.096 429.229 217.894 428.964 217.784C428.834 217.731 428.695 217.702 428.555 217.702C428.416 217.702 428.277 217.731 428.147 217.784L426.935 218.284C426.671 218.394 426.469 218.596 426.358 218.861C426.248 219.125 426.248 219.414 426.358 219.678L426.728 220.572C426.046 221.058 425.454 221.649 424.964 222.337L424.07 221.967C423.805 221.856 423.517 221.856 423.252 221.967C422.988 222.077 422.786 222.279 422.675 222.544L422.175 223.75C421.949 224.294 422.209 224.919 422.752 225.145ZM438.936 221.904C440.426 221.904 441.638 220.688 441.638 219.197C441.638 217.707 440.426 216.5 438.936 216.5C437.445 216.5 436.234 217.712 436.234 219.202C436.234 220.692 437.445 221.904 438.936 221.904ZM438.936 217.072C440.109 217.072 441.061 218.024 441.061 219.197C441.061 220.37 440.109 221.322 438.936 221.322C437.763 221.322 436.811 220.37 436.811 219.197C436.811 218.024 437.763 217.072 438.936 217.072Z" fill="black" stroke="black"/>
<path d="M432.832 220.538H433.472C433.606 221.1 433.828 221.629 434.131 222.124L433.679 222.576C433.515 222.74 433.429 222.951 433.429 223.182C433.429 223.408 433.515 223.624 433.679 223.788L434.352 224.461C434.515 224.625 434.727 224.711 434.958 224.711C435.188 224.711 435.4 224.625 435.563 224.461L436.015 224.009C436.51 224.312 437.039 224.528 437.602 224.668V225.307C437.602 225.778 437.987 226.163 438.458 226.163H439.41C439.881 226.163 440.265 225.778 440.265 225.307V224.668C440.828 224.533 441.357 224.312 441.852 224.009L442.304 224.461C442.467 224.625 442.679 224.711 442.91 224.711C443.136 224.711 443.352 224.625 443.516 224.461L444.189 223.788C444.352 223.624 444.439 223.413 444.439 223.182C444.439 222.956 444.352 222.74 444.189 222.576L443.737 222.124C444.04 221.629 444.256 221.1 444.395 220.538H445.025C445.496 220.538 445.881 220.153 445.881 219.682V218.73C445.876 218.249 445.496 217.869 445.025 217.869H444.386C444.251 217.307 444.03 216.778 443.727 216.283L444.179 215.831C444.343 215.667 444.429 215.456 444.429 215.225C444.429 214.999 444.343 214.783 444.179 214.619L443.506 213.946C443.343 213.783 443.131 213.696 442.9 213.696C442.674 213.696 442.458 213.783 442.294 213.946L441.842 214.398C441.347 214.095 440.818 213.879 440.256 213.739V213.1C440.256 212.629 439.871 212.244 439.4 212.244H438.448C437.977 212.244 437.592 212.629 437.592 213.1V213.744C437.03 213.879 436.501 214.1 436.006 214.403L435.554 213.951C435.39 213.787 435.179 213.701 434.948 213.701C434.717 213.701 434.506 213.787 434.342 213.951L433.669 214.624C433.505 214.787 433.419 214.999 433.419 215.23C433.419 215.456 433.505 215.672 433.669 215.836L434.121 216.288C433.818 216.783 433.602 217.312 433.462 217.874H432.832C432.361 217.874 431.977 218.259 431.977 218.73V219.682C431.977 220.153 432.361 220.538 432.832 220.538ZM432.554 218.72C432.554 218.567 432.679 218.442 432.832 218.442H433.707C433.847 218.442 433.962 218.345 433.991 218.211C434.121 217.562 434.371 216.951 434.741 216.403C434.818 216.288 434.804 216.134 434.707 216.038L434.087 215.417C434.034 215.364 434.006 215.297 434.006 215.22C434.006 215.148 434.034 215.076 434.087 215.023L434.76 214.35C434.813 214.297 434.881 214.268 434.958 214.268C435.034 214.268 435.102 214.297 435.155 214.35L435.775 214.97C435.871 215.066 436.025 215.081 436.14 215.004C436.693 214.634 437.299 214.384 437.948 214.254C438.083 214.225 438.179 214.11 438.179 213.97V213.095C438.179 212.941 438.304 212.816 438.458 212.816H439.41C439.563 212.816 439.688 212.941 439.688 213.095V213.97C439.688 214.11 439.785 214.225 439.919 214.254C440.568 214.384 441.179 214.634 441.727 215.004C441.775 215.037 441.833 215.052 441.886 215.052C441.958 215.052 442.035 215.023 442.088 214.965L442.708 214.345C442.761 214.292 442.828 214.263 442.905 214.263C442.977 214.263 443.049 214.292 443.102 214.345L443.775 215.018C443.828 215.071 443.857 215.138 443.857 215.215C443.857 215.288 443.828 215.36 443.775 215.413L443.155 216.033C443.059 216.129 443.044 216.283 443.121 216.398C443.492 216.951 443.742 217.557 443.871 218.206C443.9 218.341 444.016 218.437 444.155 218.437H445.025C445.179 218.437 445.304 218.562 445.304 218.716V219.672H445.299C445.299 219.826 445.174 219.951 445.02 219.951H444.145C444.006 219.951 443.891 220.047 443.862 220.182C443.732 220.831 443.482 221.442 443.112 221.99C443.035 222.105 443.049 222.259 443.145 222.355L443.77 222.975C443.823 223.028 443.852 223.096 443.852 223.172C443.852 223.245 443.823 223.317 443.77 223.37L443.097 224.043C443.044 224.096 442.977 224.124 442.9 224.124C442.828 224.124 442.756 224.096 442.703 224.043L442.083 223.423C441.987 223.326 441.833 223.312 441.717 223.389C441.165 223.759 440.559 224.009 439.91 224.139C439.775 224.168 439.679 224.283 439.679 224.423V225.298C439.679 225.451 439.554 225.576 439.4 225.576H438.448C438.294 225.576 438.169 225.451 438.169 225.298V224.418C438.169 224.278 438.073 224.163 437.938 224.134C437.289 224.004 436.679 223.754 436.131 223.384C436.015 223.307 435.861 223.322 435.765 223.418L435.145 224.038C435.092 224.091 435.025 224.12 434.948 224.12C434.871 224.12 434.804 224.091 434.751 224.038L434.078 223.365C434.025 223.312 433.996 223.245 433.996 223.168C433.996 223.096 434.025 223.023 434.078 222.971L434.707 222.355C434.804 222.259 434.818 222.105 434.741 221.99C434.371 221.437 434.121 220.831 433.991 220.182C433.962 220.047 433.847 219.951 433.707 219.951H432.832C432.679 219.951 432.554 219.826 432.554 219.672V218.72Z" fill="black" stroke="black"/>
<path fill-rule="evenodd" clip-rule="evenodd" d="M437.553 240.623C436.579 240.799 435.576 240.891 434.551 240.891C425.301 240.891 417.803 233.392 417.803 224.143C417.803 214.893 425.301 207.394 434.551 207.394C443.801 207.394 451.299 214.893 451.299 224.143C451.299 224.946 451.243 225.736 451.133 226.509C451.595 226.568 452.048 226.654 452.492 226.763C452.616 225.908 452.68 225.033 452.68 224.143C452.68 214.13 444.563 206.014 434.551 206.014C424.539 206.014 416.422 214.13 416.422 224.143C416.422 234.155 424.539 242.272 434.551 242.272C435.681 242.272 436.787 242.168 437.86 241.97C437.733 241.531 437.63 241.081 437.553 240.623Z" fill="black"/>
<path d="M454.162 233.71H450.565C451.978 231.76 451.556 229.835 451.632 229.091C451.632 227.407 449.361 226.928 448.718 228.495C448.277 229.312 447.972 231.549 445.628 232.684L444.434 233.262V233.184C444.434 232.832 444.148 232.546 443.796 232.546H441.804C440.926 232.546 440.211 233.261 440.211 234.14V240.976C440.211 241.855 440.926 242.569 441.804 242.569H443.797C444.148 242.569 444.434 242.283 444.434 241.932V241.917C446.35 242.36 447.397 242.834 449.194 242.834H452.563C453.305 242.834 453.908 242.215 453.908 241.455C453.908 241.137 453.799 240.848 453.622 240.615C453.876 240.51 454.093 240.333 454.245 240.104C454.398 239.876 454.478 239.608 454.477 239.333C454.477 239.016 454.368 238.726 454.191 238.493C454.445 238.388 454.662 238.211 454.814 237.983C454.966 237.754 455.047 237.486 455.046 237.212C455.046 236.877 454.925 236.574 454.731 236.335C455.233 236.093 455.507 235.602 455.507 235.089C455.507 234.329 454.904 233.71 454.162 233.71ZM441.804 241.932C441.277 241.932 440.848 241.503 440.848 240.976V234.14C440.848 233.612 441.277 233.184 441.804 233.184H443.797C443.797 244.967 443.797 232.916 443.797 241.932H441.804ZM454.162 235.831L452.274 235.832C452.189 235.832 452.108 235.865 452.048 235.925C451.989 235.985 451.955 236.066 451.955 236.15C451.955 236.235 451.989 236.316 452.048 236.376C452.108 236.435 452.189 236.469 452.274 236.469H453.7C454.091 236.469 454.408 236.802 454.408 237.212C454.408 237.621 454.091 237.953 453.7 237.953H451.704C451.62 237.953 451.539 237.987 451.479 238.047C451.419 238.106 451.386 238.188 451.386 238.272C451.386 238.357 451.419 238.438 451.479 238.497C451.539 238.557 451.62 238.591 451.704 238.591H453.131C453.522 238.591 453.84 238.924 453.84 239.333C453.84 239.743 453.522 240.075 453.131 240.075H451.135C451.051 240.075 450.97 240.109 450.91 240.169C450.85 240.229 450.817 240.31 450.817 240.394C450.817 240.479 450.85 240.56 450.91 240.619C450.97 240.679 451.051 240.713 451.135 240.713H452.562C452.952 240.713 453.27 241.045 453.27 241.455C453.27 241.864 452.952 242.197 452.562 242.197H449.194C447.495 242.197 446.543 241.751 444.434 241.259V233.971L445.906 233.258C448.531 231.987 448.877 229.524 449.309 228.736C449.687 227.812 450.995 228.104 450.995 229.091C450.922 229.829 451.34 231.579 450.033 233.36L449.681 233.841C449.528 234.048 449.687 234.347 449.938 234.347H454.162C454.553 234.347 454.87 234.68 454.87 235.089C454.87 235.508 454.542 235.831 454.162 235.831Z" fill="black" stroke="black"/>
<path d="M420.415 259.762V263.087H419.355V255.155H422.381C424.06 255.155 425.132 255.94 425.132 257.453C425.132 258.944 424.06 259.762 422.381 259.762H420.415ZM420.415 258.845H422.326C423.453 258.845 424.083 258.348 424.083 257.453C424.083 256.558 423.453 256.072 422.326 256.072H420.415V258.845ZM429.068 257.287V258.292C428.902 258.259 428.77 258.248 428.582 258.248C427.742 258.248 427.068 258.911 427.068 259.927V263.087H426.074V257.309H427.068V258.292C427.322 257.707 427.886 257.265 428.67 257.265C428.825 257.265 428.968 257.276 429.068 257.287ZM434.896 260.203C434.896 261.993 433.792 263.208 432.212 263.208C430.632 263.208 429.528 261.993 429.528 260.203C429.528 258.414 430.632 257.199 432.212 257.199C433.792 257.199 434.896 258.414 434.896 260.203ZM430.533 260.203C430.533 261.518 431.196 262.357 432.212 262.357C433.228 262.357 433.891 261.518 433.891 260.203C433.891 258.878 433.228 258.038 432.212 258.038C431.196 258.038 430.533 258.878 430.533 260.203ZM436.116 256.304V255.155H437.199V256.304H436.116ZM436.161 263.385V257.309H437.155V263.562C437.155 264.589 436.514 265.108 435.531 265.108C435.299 265.108 435.155 265.097 434.979 265.075V264.213C435.1 264.235 435.2 264.246 435.365 264.246C435.94 264.246 436.161 263.97 436.161 263.385ZM441.123 263.208C439.521 263.208 438.417 261.982 438.417 260.203C438.417 258.48 439.51 257.199 441.079 257.199C442.692 257.199 443.542 258.425 443.542 260.027V260.358H439.367C439.422 261.573 440.118 262.346 441.123 262.346C441.896 262.346 442.448 261.927 442.625 261.242L443.498 261.551C443.144 262.578 442.272 263.208 441.123 263.208ZM441.068 258.049C440.228 258.049 439.599 258.613 439.422 259.596H442.537C442.515 258.778 442.073 258.049 441.068 258.049ZM445.376 260.203C445.376 261.518 446.083 262.335 447.11 262.335C447.906 262.335 448.381 261.827 448.546 261.109L449.43 261.518C449.154 262.479 448.314 263.208 447.11 263.208C445.498 263.208 444.382 261.982 444.382 260.203C444.382 258.414 445.498 257.199 447.11 257.199C448.314 257.199 449.132 257.895 449.408 258.856L448.546 259.287C448.381 258.58 447.906 258.06 447.11 258.06C446.083 258.06 445.376 258.878 445.376 260.203ZM450.673 261.706V258.16H449.778V257.309H450.673V255.619H451.656V257.309H452.971V258.16H451.656V261.551C451.656 262.159 451.955 262.269 452.463 262.269C452.695 262.269 452.86 262.258 453.092 262.203V263.053C452.838 263.109 452.551 263.142 452.22 263.142C451.237 263.142 450.673 262.81 450.673 261.706ZM398.959 271.725V279.656H397.898V271.725H398.959ZM401.653 276.199V279.656H400.659V273.879H401.653V274.663C401.962 274.188 402.515 273.768 403.321 273.768C404.094 273.768 404.636 274.155 404.923 274.752C405.243 274.277 405.862 273.768 406.768 273.768C407.961 273.768 408.679 274.619 408.679 275.845V279.656H407.684V276.11C407.684 275.304 407.353 274.696 406.536 274.696C405.873 274.696 405.166 275.26 405.166 276.199V279.656H404.172V276.11C404.172 275.304 403.84 274.696 403.023 274.696C402.36 274.696 401.653 275.26 401.653 276.199ZM413.065 279.778C412.259 279.778 411.618 279.391 411.276 278.817V281.644H410.281V273.879H411.276V274.718C411.618 274.155 412.259 273.768 413.065 273.768C414.667 273.768 415.584 275.127 415.584 276.773C415.584 278.408 414.667 279.778 413.065 279.778ZM411.253 276.574V276.983C411.253 278.308 412.071 278.905 412.888 278.905C413.971 278.905 414.578 278.01 414.578 276.773C414.578 275.525 413.971 274.641 412.888 274.641C412.071 274.641 411.253 275.227 411.253 276.574ZM417.834 271.725V279.656H416.84V271.725H417.834ZM421.803 279.778C420.201 279.778 419.096 278.551 419.096 276.773C419.096 275.05 420.19 273.768 421.758 273.768C423.371 273.768 424.222 274.995 424.222 276.596V276.928H420.046C420.101 278.143 420.797 278.916 421.803 278.916C422.576 278.916 423.128 278.496 423.305 277.811L424.178 278.121C423.824 279.148 422.951 279.778 421.803 279.778ZM421.747 274.619C420.908 274.619 420.278 275.182 420.101 276.165H423.217C423.194 275.348 422.753 274.619 421.747 274.619ZM426.454 276.199V279.656H425.459V273.879H426.454V274.663C426.763 274.188 427.315 273.768 428.122 273.768C428.895 273.768 429.436 274.155 429.723 274.752C430.044 274.277 430.662 273.768 431.568 273.768C432.761 273.768 433.479 274.619 433.479 275.845V279.656H432.485V276.11C432.485 275.304 432.153 274.696 431.336 274.696C430.673 274.696 429.966 275.26 429.966 276.199V279.656H428.972V276.11C428.972 275.304 428.641 274.696 427.823 274.696C427.161 274.696 426.454 275.26 426.454 276.199ZM437.39 279.778C435.789 279.778 434.684 278.551 434.684 276.773C434.684 275.05 435.778 273.768 437.346 273.768C438.959 273.768 439.81 274.995 439.81 276.596V276.928H435.634C435.689 278.143 436.385 278.916 437.39 278.916C438.164 278.916 438.716 278.496 438.893 277.811L439.765 278.121C439.412 279.148 438.539 279.778 437.39 279.778ZM437.335 274.619C436.496 274.619 435.866 275.182 435.689 276.165H438.804C438.782 275.348 438.34 274.619 437.335 274.619ZM441.047 279.656V273.879H442.041V274.663C442.373 274.188 442.947 273.768 443.765 273.768C444.991 273.768 445.687 274.619 445.687 275.845V279.656H444.692V276.11C444.692 275.304 444.35 274.696 443.488 274.696C442.77 274.696 442.041 275.249 442.041 276.21V279.656H441.047ZM447.437 278.275V274.729H446.542V273.879H447.437V272.189H448.42V273.879H449.735V274.729H448.42V278.121C448.42 278.728 448.718 278.839 449.227 278.839C449.459 278.839 449.624 278.828 449.856 278.772V279.623C449.602 279.678 449.315 279.711 448.984 279.711C448 279.711 447.437 279.38 447.437 278.275ZM452.483 279.756C451.434 279.756 450.583 279.137 450.583 278.099C450.583 276.95 451.478 276.475 452.771 276.21L454.174 275.922V275.679C454.174 275.017 453.809 274.641 453.036 274.641C452.307 274.641 451.876 274.983 451.699 275.624L450.76 275.381C451.036 274.442 451.887 273.768 453.069 273.768C454.361 273.768 455.157 274.398 455.157 275.635V278.452C455.157 278.828 455.389 278.949 455.775 278.861V279.656C454.892 279.767 454.383 279.557 454.262 279.004C453.908 279.457 453.268 279.756 452.483 279.756ZM454.174 277.69V276.696L453.047 276.939C452.163 277.115 451.567 277.358 451.567 278.054C451.567 278.618 451.975 278.949 452.605 278.949C453.456 278.949 454.174 278.43 454.174 277.69ZM457.005 278.275V274.729H456.111V273.879H457.005V272.189H457.989V273.879H459.303V274.729H457.989V278.121C457.989 278.728 458.287 278.839 458.795 278.839C459.027 278.839 459.193 278.828 459.425 278.772V279.623C459.171 279.678 458.883 279.711 458.552 279.711C457.569 279.711 457.005 279.38 457.005 278.275ZM460.561 272.874V271.725H461.643V272.874H460.561ZM461.599 273.879V279.656H460.605V273.879H461.599ZM468.229 276.773C468.229 278.563 467.125 279.778 465.545 279.778C463.966 279.778 462.861 278.563 462.861 276.773C462.861 274.983 463.966 273.768 465.545 273.768C467.125 273.768 468.229 274.983 468.229 276.773ZM463.866 276.773C463.866 278.088 464.529 278.927 465.545 278.927C466.561 278.927 467.224 278.088 467.224 276.773C467.224 275.447 466.561 274.608 465.545 274.608C464.529 274.608 463.866 275.447 463.866 276.773ZM469.493 279.656V273.879H470.488V274.663C470.819 274.188 471.393 273.768 472.211 273.768C473.437 273.768 474.133 274.619 474.133 275.845V279.656H473.139V276.11C473.139 275.304 472.796 274.696 471.935 274.696C471.217 274.696 470.488 275.249 470.488 276.21V279.656H469.493ZM403.438 293.199C403.438 292.595 403.494 292.006 403.604 291.432C403.722 290.857 403.902 290.308 404.145 289.786C404.388 289.263 404.694 288.78 405.062 288.339H405.979C405.64 288.795 405.353 289.289 405.118 289.819C404.889 290.349 404.716 290.898 404.598 291.465C404.481 292.032 404.422 292.606 404.422 293.188C404.422 293.755 404.481 294.318 404.598 294.878C404.716 295.438 404.889 295.975 405.118 296.491C405.346 297.014 405.629 297.507 405.968 297.971H405.062C404.694 297.536 404.388 297.061 404.145 296.546C403.902 296.038 403.722 295.5 403.604 294.933C403.494 294.366 403.438 293.788 403.438 293.199ZM408.242 288.294V296.226H407.181V288.294H408.242ZM409.942 296.226V290.448H410.936V291.233C411.267 290.758 411.842 290.338 412.659 290.338C413.885 290.338 414.581 291.188 414.581 292.415V296.226H413.587V292.68C413.587 291.873 413.244 291.266 412.383 291.266C411.665 291.266 410.936 291.818 410.936 292.779V296.226H409.942ZM416.331 294.845V291.299H415.437V290.448H416.331V288.758H417.315V290.448H418.629V291.299H417.315V294.69C417.315 295.298 417.613 295.408 418.121 295.408C418.353 295.408 418.519 295.397 418.751 295.342V296.192C418.496 296.248 418.209 296.281 417.878 296.281C416.895 296.281 416.331 295.949 416.331 294.845ZM422.207 296.347C420.605 296.347 419.501 295.121 419.501 293.343C419.501 291.619 420.594 290.338 422.163 290.338C423.776 290.338 424.626 291.564 424.626 293.166V293.497H420.451C420.506 294.712 421.202 295.486 422.207 295.486C422.98 295.486 423.533 295.066 423.709 294.381L424.582 294.69C424.229 295.717 423.356 296.347 422.207 296.347ZM422.152 291.188C421.312 291.188 420.683 291.752 420.506 292.735H423.621C423.599 291.918 423.157 291.188 422.152 291.188ZM430.757 295.706C430.757 297.397 429.642 298.335 428.073 298.335C426.803 298.335 425.875 297.75 425.555 296.69L426.482 296.336C426.67 297.076 427.267 297.507 428.073 297.507C429.089 297.507 429.763 296.988 429.763 295.784V295.132C429.454 295.695 428.802 296.093 427.996 296.093C426.416 296.093 425.488 294.79 425.488 293.21C425.488 291.641 426.416 290.338 427.996 290.338C428.791 290.338 429.454 290.736 429.763 291.299V290.448H430.757V295.706ZM429.774 293.122C429.774 291.829 429.001 291.211 428.173 291.211C427.123 291.211 426.482 291.995 426.482 293.21C426.482 294.425 427.123 295.22 428.173 295.22C429.001 295.22 429.774 294.602 429.774 293.331V293.122ZM435.405 290.426V291.432C435.24 291.398 435.107 291.387 434.919 291.387C434.08 291.387 433.406 292.05 433.406 293.066V296.226H432.412V290.448H433.406V291.432C433.66 290.846 434.223 290.404 435.008 290.404C435.162 290.404 435.306 290.415 435.405 290.426ZM437.829 296.325C436.779 296.325 435.929 295.706 435.929 294.668C435.929 293.519 436.823 293.044 438.116 292.779L439.519 292.492V292.249C439.519 291.586 439.154 291.211 438.381 291.211C437.652 291.211 437.221 291.553 437.044 292.194L436.105 291.951C436.382 291.012 437.232 290.338 438.414 290.338C439.707 290.338 440.502 290.968 440.502 292.205V295.022C440.502 295.397 440.734 295.519 441.121 295.43V296.226C440.237 296.336 439.729 296.126 439.607 295.574C439.254 296.027 438.613 296.325 437.829 296.325ZM439.519 294.259V293.265L438.392 293.508C437.508 293.685 436.912 293.928 436.912 294.624C436.912 295.187 437.321 295.519 437.95 295.519C438.801 295.519 439.519 294.999 439.519 294.259ZM442.351 294.845V291.299H441.456V290.448H442.351V288.758H443.334V290.448H444.648V291.299H443.334V294.69C443.334 295.298 443.632 295.408 444.14 295.408C444.372 295.408 444.538 295.397 444.77 295.342V296.192C444.516 296.248 444.229 296.281 443.897 296.281C442.914 296.281 442.351 295.949 442.351 294.845ZM445.906 289.443V288.294H446.988V289.443H445.906ZM446.944 290.448V296.226H445.95V290.448H446.944ZM453.575 293.343C453.575 295.132 452.47 296.347 450.89 296.347C449.311 296.347 448.206 295.132 448.206 293.343C448.206 291.553 449.311 290.338 450.89 290.338C452.47 290.338 453.575 291.553 453.575 293.343ZM449.211 293.343C449.211 294.657 449.874 295.497 450.89 295.497C451.907 295.497 452.569 294.657 452.569 293.343C452.569 292.017 451.907 291.177 450.89 291.177C449.874 291.177 449.211 292.017 449.211 293.343ZM454.839 296.226V290.448H455.833V291.233C456.165 290.758 456.739 290.338 457.556 290.338C458.782 290.338 459.478 291.188 459.478 292.415V296.226H458.484V292.68C458.484 291.873 458.141 291.266 457.28 291.266C456.562 291.266 455.833 291.818 455.833 292.779V296.226H454.839ZM460.434 294.999L461.207 294.436C461.516 295.11 462.223 295.519 462.974 295.519C463.648 295.519 464.245 295.231 464.245 294.602C464.245 293.972 463.692 293.884 462.742 293.685C461.792 293.475 460.798 293.265 460.798 292.083C460.798 291.056 461.693 290.338 462.919 290.338C463.957 290.338 464.808 290.846 465.15 291.531L464.443 292.094C464.145 291.52 463.604 291.155 462.875 291.155C462.212 291.155 461.77 291.487 461.77 292.006C461.77 292.547 462.278 292.647 463.085 292.823C464.079 293.055 465.217 293.254 465.217 294.513C465.217 295.618 464.211 296.347 462.974 296.347C461.925 296.347 460.875 295.894 460.434 294.999ZM468.49 293.199C468.49 293.788 468.431 294.366 468.313 294.933C468.203 295.5 468.026 296.038 467.783 296.546C467.547 297.061 467.242 297.536 466.866 297.971H465.96C466.299 297.507 466.583 297.014 466.811 296.491C467.039 295.975 467.212 295.438 467.33 294.878C467.448 294.318 467.507 293.755 467.507 293.188C467.507 292.606 467.448 292.032 467.33 291.465C467.212 290.898 467.039 290.349 466.811 289.819C466.583 289.289 466.295 288.795 465.949 288.339H466.866C467.242 288.78 467.547 289.263 467.783 289.786C468.026 290.308 468.203 290.857 468.313 291.432C468.431 292.006 468.49 292.595 468.49 293.199Z" fill="black"/>
</g>
<path d="M409.816 338.948H411.398L413.274 346.326L415.178 338.948H416.97L414.254 349H412.49L410.586 341.916L408.696 349H406.932L404.202 338.948H406.05L407.954 346.326L409.816 338.948ZM420.397 349.154C418.297 349.154 416.827 347.6 416.827 345.332C416.827 343.176 418.283 341.51 420.327 341.51C422.455 341.51 423.589 343.12 423.589 345.136V345.696H418.437C418.563 346.956 419.319 347.726 420.397 347.726C421.223 347.726 421.881 347.306 422.105 346.55L423.547 347.096C423.029 348.384 421.867 349.154 420.397 349.154ZM420.313 342.924C419.445 342.924 418.773 343.442 418.521 344.436H421.895C421.881 343.624 421.377 342.924 420.313 342.924ZM427.958 349.154C425.858 349.154 424.388 347.6 424.388 345.332C424.388 343.176 425.844 341.51 427.888 341.51C430.016 341.51 431.15 343.12 431.15 345.136V345.696H425.998C426.124 346.956 426.88 347.726 427.958 347.726C428.784 347.726 429.442 347.306 429.666 346.55L431.108 347.096C430.59 348.384 429.428 349.154 427.958 349.154ZM427.874 342.924C427.006 342.924 426.334 343.442 426.082 344.436H429.456C429.442 343.624 428.938 342.924 427.874 342.924ZM434.09 338.948V344.744L436.918 341.65H438.976L436.204 344.506L439.2 349H437.254L435.056 345.682L434.09 346.662V349H432.41V338.948H434.09ZM445.192 338.878H446.55V349H444.758V342.028H442.336V340.698L443.316 340.614C444.576 340.502 445.094 340.068 445.192 338.878ZM451.024 345.668V344.17H454.944V345.668H451.024ZM464.918 349H463.28V346.55H458.534V345.15L462.678 338.948H464.946V345.066H466.794V346.55H464.918V349ZM460.326 345.066H463.252V340.67L460.326 345.066Z" fill="black"/>
<g clip-path="url(#clip4_1973_6146)">
<path d="M250.501 321.485C288.6 321.485 319.486 290.599 319.486 252.5C319.486 214.4 288.6 183.515 250.501 183.515C212.401 183.515 181.516 214.4 181.516 252.5C181.516 290.599 212.401 321.485 250.501 321.485Z" fill="white" stroke="#FFC000"/>
<path d="M258.937 231.309C259.601 223.947 257.029 216.441 251.633 211.046C251.306 210.718 250.726 210.718 250.398 211.046C245.002 216.441 242.43 223.938 243.094 231.309C241.229 233.318 240.203 235.907 240.203 238.663C240.203 241.445 241.262 244.093 243.187 246.11C243.657 246.606 244.859 246.379 244.666 245.286C244.565 244.715 244.439 244.16 244.439 243.614C244.439 242.252 244.851 240.958 245.616 239.865C245.742 239.933 245.885 239.975 246.036 239.975H255.995C256.147 239.975 256.29 239.933 256.416 239.865C257.181 240.958 257.592 242.252 257.592 243.614C257.592 244.16 257.45 244.706 257.366 245.286C257.189 246.497 258.45 246.539 258.845 246.11C260.761 244.084 261.828 241.445 261.828 238.663C261.82 235.907 260.803 233.31 258.937 231.309ZM251.012 212.928C252.575 214.609 253.852 216.5 254.844 218.509H247.187C248.171 216.492 249.448 214.609 251.012 212.928ZM242.775 242.429C242.237 241.26 241.96 239.983 241.96 238.663C241.96 236.882 242.472 235.175 243.43 233.713C243.439 233.78 244.355 237.285 244.708 238.184C243.657 239.395 242.994 240.857 242.775 242.429ZM255.416 238.218H246.608C244.137 232.419 244.162 225.939 246.406 220.249H255.617C257.861 225.939 257.887 232.419 255.416 238.218ZM257.323 238.184C257.811 236.932 258.593 233.764 258.601 233.713C259.559 235.167 260.072 236.873 260.072 238.663C260.072 239.983 259.786 241.26 259.257 242.429C259.03 240.857 258.366 239.395 257.323 238.184Z" fill="black"/>
<path d="M247.476 241.438C246.988 241.438 246.602 241.832 246.602 242.312V246.707C246.602 247.195 246.997 247.581 247.476 247.581C247.955 247.581 248.35 247.186 248.35 246.707V242.312C248.35 241.824 247.955 241.438 247.476 241.438ZM251.014 241.438C250.77 241.438 250.552 241.538 250.392 241.698L250.384 241.706C250.283 241.807 250.207 241.942 250.165 242.093C250.148 242.169 250.132 242.244 250.132 242.328V251.111C250.132 251.179 250.14 251.246 250.157 251.313C250.249 251.7 250.594 251.985 251.006 251.985C251.417 251.985 251.762 251.7 251.855 251.313C251.871 251.246 251.88 251.179 251.88 251.111V242.312C251.88 242.228 251.871 242.152 251.846 242.076C251.754 241.706 251.417 241.438 251.014 241.438ZM254.552 241.438C254.065 241.438 253.678 241.832 253.678 242.312V246.707C253.678 247.195 254.073 247.581 254.552 247.581C255.032 247.581 255.427 247.186 255.427 246.707V242.312C255.435 241.824 255.04 241.438 254.552 241.438Z" fill="black"/>
<path d="M239.365 266.528H235.862V275.667H234.478V266.528H230.975V265.317H239.365V266.528ZM242.102 275.825C240.012 275.825 238.57 274.225 238.57 271.904C238.57 269.656 239.998 267.983 242.044 267.983C244.149 267.983 245.259 269.584 245.259 271.674V272.106H239.81C239.882 273.692 240.79 274.701 242.102 274.701C243.111 274.701 243.832 274.153 244.062 273.259L245.201 273.663C244.74 275.003 243.601 275.825 242.102 275.825ZM242.03 269.093C240.934 269.093 240.113 269.829 239.882 271.111H243.947C243.918 270.045 243.342 269.093 242.03 269.093ZM246.038 274.067L247.047 273.331C247.45 274.211 248.373 274.744 249.353 274.744C250.233 274.744 251.011 274.369 251.011 273.548C251.011 272.726 250.29 272.611 249.051 272.351C247.811 272.077 246.514 271.803 246.514 270.261C246.514 268.92 247.681 267.983 249.281 267.983C250.636 267.983 251.746 268.647 252.193 269.54L251.27 270.275C250.881 269.526 250.175 269.05 249.224 269.05C248.359 269.05 247.782 269.483 247.782 270.16C247.782 270.866 248.445 270.996 249.497 271.227C250.795 271.53 252.279 271.789 252.279 273.432C252.279 274.874 250.968 275.825 249.353 275.825C247.984 275.825 246.614 275.234 246.038 274.067ZM254.086 273.865V269.238H252.918V268.128H254.086V265.922H255.369V268.128H257.084V269.238H255.369V273.663C255.369 274.456 255.758 274.6 256.421 274.6C256.724 274.6 256.94 274.585 257.243 274.513V275.623C256.911 275.695 256.537 275.739 256.104 275.739C254.821 275.739 254.086 275.306 254.086 273.865ZM265.125 265.216C265.644 265.216 266.086 265.307 266.451 265.49C266.826 265.663 267.114 265.913 267.316 266.239C267.518 266.566 267.618 266.965 267.618 267.436C267.618 268.041 267.421 268.555 267.027 268.978C266.643 269.401 266.153 269.785 265.557 270.131L268.339 272.812C268.589 272.515 268.791 272.173 268.945 271.789C269.108 271.395 269.242 270.972 269.348 270.52H270.631C270.477 271.135 270.285 271.707 270.055 272.236C269.824 272.764 269.526 273.226 269.161 273.62L271.265 275.667H269.55L268.296 274.456C268.065 274.658 267.825 274.845 267.575 275.018C267.335 275.181 267.071 275.321 266.782 275.436C266.494 275.551 266.182 275.643 265.845 275.71C265.519 275.777 265.154 275.811 264.75 275.811C264.087 275.811 263.51 275.705 263.02 275.494C262.54 275.273 262.165 274.951 261.896 274.528C261.636 274.105 261.507 273.591 261.507 272.985C261.507 272.495 261.593 272.072 261.766 271.717C261.949 271.361 262.208 271.044 262.544 270.766C262.881 270.487 263.275 270.218 263.726 269.958C263.525 269.728 263.328 269.487 263.135 269.238C262.943 268.988 262.785 268.719 262.66 268.43C262.535 268.132 262.472 267.81 262.472 267.465C262.472 266.994 262.578 266.59 262.789 266.254C263.001 265.917 263.304 265.663 263.698 265.49C264.101 265.307 264.577 265.216 265.125 265.216ZM264.49 270.751C264.144 270.953 263.847 271.16 263.597 271.371C263.356 271.573 263.169 271.799 263.035 272.048C262.9 272.298 262.833 272.596 262.833 272.942C262.833 273.471 263.01 273.894 263.366 274.211C263.722 274.528 264.197 274.686 264.793 274.686C265.408 274.686 265.937 274.585 266.379 274.384C266.821 274.182 267.191 273.942 267.489 273.663L264.49 270.751ZM265.081 266.254C264.678 266.254 264.346 266.359 264.087 266.571C263.837 266.782 263.712 267.075 263.712 267.45C263.712 267.796 263.803 268.118 263.986 268.416C264.168 268.704 264.433 269.026 264.779 269.382C265.346 269.055 265.749 268.747 265.99 268.459C266.239 268.161 266.364 267.82 266.364 267.436C266.364 267.09 266.249 266.806 266.018 266.585C265.788 266.364 265.475 266.254 265.081 266.254ZM228.406 294.2V283.85H229.79V292.989H234.951V294.2H228.406ZM238.247 294.33C236.877 294.33 235.767 293.522 235.767 292.167C235.767 290.668 236.935 290.048 238.622 289.702L240.452 289.328V289.011C240.452 288.146 239.977 287.656 238.967 287.656C238.016 287.656 237.454 288.102 237.223 288.938L235.998 288.621C236.358 287.396 237.468 286.517 239.011 286.517C240.697 286.517 241.735 287.338 241.735 288.953V292.629C241.735 293.119 242.038 293.277 242.542 293.162V294.2C241.389 294.344 240.726 294.07 240.568 293.349C240.106 293.94 239.27 294.33 238.247 294.33ZM240.452 291.634V290.337L238.982 290.654C237.829 290.884 237.05 291.202 237.05 292.11C237.05 292.845 237.584 293.277 238.405 293.277C239.515 293.277 240.452 292.6 240.452 291.634ZM249.928 286.661V294.2H248.631V293.162C248.198 293.796 247.463 294.358 246.396 294.358C244.782 294.358 243.874 293.249 243.874 291.648V286.661H245.171V291.375C245.171 292.441 245.632 293.162 246.742 293.162C247.679 293.162 248.631 292.456 248.631 291.202V286.661H249.928ZM252.082 294.2V286.661H253.38V287.684C253.812 287.065 254.562 286.517 255.628 286.517C257.228 286.517 258.137 287.627 258.137 289.227V294.2H256.839V289.573C256.839 288.52 256.392 287.728 255.268 287.728C254.331 287.728 253.38 288.448 253.38 289.702V294.2H252.082ZM260.997 290.438C260.997 292.153 261.92 293.22 263.26 293.22C264.298 293.22 264.918 292.557 265.134 291.62L266.288 292.153C265.927 293.407 264.832 294.358 263.26 294.358C261.156 294.358 259.7 292.758 259.7 290.438C259.7 288.102 261.156 286.517 263.26 286.517C264.832 286.517 265.898 287.425 266.259 288.679L265.134 289.241C264.918 288.319 264.298 287.641 263.26 287.641C261.92 287.641 260.997 288.708 260.997 290.438ZM267.708 294.2V283.85H269.005V287.684C269.438 287.065 270.187 286.517 271.254 286.517C272.854 286.517 273.762 287.627 273.762 289.227V294.2H272.465V289.573C272.465 288.52 272.018 287.728 270.894 287.728C269.957 287.728 269.005 288.448 269.005 289.702V294.2H267.708Z" fill="black"/>
</g>
<path d="M223.414 338.948H224.996L226.872 346.326L228.776 338.948H230.568L227.852 349H226.088L224.184 341.916L222.294 349H220.53L217.8 338.948H219.648L221.552 346.326L223.414 338.948ZM233.996 349.154C231.896 349.154 230.426 347.6 230.426 345.332C230.426 343.176 231.882 341.51 233.926 341.51C236.054 341.51 237.188 343.12 237.188 345.136V345.696H232.036C232.162 346.956 232.918 347.726 233.996 347.726C234.822 347.726 235.48 347.306 235.704 346.55L237.146 347.096C236.628 348.384 235.466 349.154 233.996 349.154ZM233.912 342.924C233.044 342.924 232.372 343.442 232.12 344.436H235.494C235.48 343.624 234.976 342.924 233.912 342.924ZM241.556 349.154C239.456 349.154 237.986 347.6 237.986 345.332C237.986 343.176 239.442 341.51 241.486 341.51C243.614 341.51 244.748 343.12 244.748 345.136V345.696H239.596C239.722 346.956 240.478 347.726 241.556 347.726C242.382 347.726 243.04 347.306 243.264 346.55L244.706 347.096C244.188 348.384 243.026 349.154 241.556 349.154ZM241.472 342.924C240.604 342.924 239.932 343.442 239.68 344.436H243.054C243.04 343.624 242.536 342.924 241.472 342.924ZM247.689 338.948V344.744L250.517 341.65H252.575L249.803 344.506L252.799 349H250.853L248.655 345.682L247.689 346.662V349H246.009V338.948H247.689ZM262.178 349H260.54V346.55H255.794V345.15L259.938 338.948H262.206V345.066H264.054V346.55H262.178V349ZM257.586 345.066H260.512V340.67L257.586 345.066ZM267.644 345.668V344.17H271.564V345.668H267.644ZM282.91 341.104L281.468 341.734C281.216 340.908 280.6 340.278 279.564 340.278C278.136 340.278 277.184 341.678 277.128 343.526C277.604 342.868 278.486 342.336 279.634 342.336C281.51 342.336 282.896 343.792 282.896 345.668C282.896 347.656 281.384 349.154 279.312 349.154C276.736 349.154 275.49 346.886 275.49 344.1C275.49 341.006 277.086 338.794 279.634 338.794C281.398 338.794 282.448 339.718 282.91 341.104ZM281.272 345.766C281.272 344.66 280.432 343.806 279.326 343.806C278.22 343.806 277.352 344.66 277.352 345.766C277.352 346.886 278.206 347.712 279.312 347.712C280.418 347.712 281.272 346.886 281.272 345.766Z" fill="black"/>
<defs>
<clipPath id="clip0_1973_6146">
<rect width="137" height="137" fill="white"/>
</clipPath>
<clipPath id="clip1_1973_6146">
<rect width="137" height="137" fill="white" transform="translate(183)"/>
</clipPath>
<clipPath id="clip2_1973_6146">
<rect width="137" height="137" fill="white" transform="translate(366)"/>
</clipPath>
<clipPath id="clip3_1973_6146">
<rect width="139" height="139" fill="white" transform="translate(366 183)"/>
</clipPath>
<clipPath id="clip4_1973_6146">
<rect width="139" height="139" fill="white" transform="translate(181 183)"/>
</clipPath>
</defs>
</svg>
