<svg width="149" height="197" viewBox="0 0 149 197" fill="none" xmlns="http://www.w3.org/2000/svg">
<circle cx="74.5" cy="74.5" r="73.5" fill="white" stroke="#0DB746" stroke-width="2"/>
<path d="M10 108.5H13.5L23.5 92.5L41 95L55.5 74.5L71.5 92.5L102.5 51M102.5 51L91 52.5M102.5 51L104.5 63" stroke="#0DB746" stroke-width="2"/>
<path d="M43.2967 162.948V173H41.5047V162.948H43.2967ZM45.1261 173V165.65H46.8061V166.434C47.2261 165.944 47.8841 165.51 48.8361 165.51C50.3761 165.51 51.3001 166.574 51.3001 168.156V173H49.6201V168.646C49.6201 167.736 49.2561 167.078 48.3321 167.078C47.5761 167.078 46.8061 167.638 46.8061 168.688V173H45.1261ZM54.2328 169.332C54.2328 170.83 55.0168 171.698 56.1648 171.698C57.0608 171.698 57.6068 171.11 57.8168 170.298L59.2588 171.026C58.8808 172.216 57.7608 173.154 56.1648 173.154C54.0648 173.154 52.5528 171.6 52.5528 169.332C52.5528 167.064 54.0648 165.51 56.1648 165.51C57.7468 165.51 58.8388 166.406 59.2308 167.582L57.8168 168.352C57.6068 167.554 57.0608 166.952 56.1648 166.952C55.0168 166.952 54.2328 167.834 54.2328 169.332ZM64.4466 165.636V167.316C64.2366 167.288 64.0686 167.274 63.8306 167.274C62.7666 167.274 61.9546 167.96 61.9546 169.136V173H60.2746V165.65H61.9546V166.742C62.2766 166.056 63.0326 165.608 63.9706 165.608C64.1666 165.608 64.3206 165.622 64.4466 165.636ZM68.3591 173.154C66.2591 173.154 64.7891 171.6 64.7891 169.332C64.7891 167.176 66.2451 165.51 68.2891 165.51C70.4171 165.51 71.5511 167.12 71.5511 169.136V169.696H66.3991C66.5251 170.956 67.2811 171.726 68.3591 171.726C69.1851 171.726 69.8431 171.306 70.0671 170.55L71.5091 171.096C70.9911 172.384 69.8291 173.154 68.3591 173.154ZM68.2751 166.924C67.4071 166.924 66.7351 167.442 66.4831 168.436H69.8571C69.8431 167.624 69.3391 166.924 68.2751 166.924ZM74.8944 173.126C73.4944 173.126 72.4164 172.272 72.4164 170.956C72.4164 169.556 73.4664 168.94 74.8804 168.646L76.9104 168.226V168.1C76.9104 167.4 76.5464 166.966 75.6504 166.966C74.8524 166.966 74.4324 167.33 74.2364 168.044L72.6544 167.68C73.0184 166.462 74.0964 165.51 75.7204 165.51C77.4844 165.51 78.5484 166.35 78.5484 168.044V171.208C78.5484 171.628 78.7304 171.754 79.1924 171.698V173C77.9744 173.14 77.3304 172.902 77.0784 172.3C76.6164 172.818 75.8464 173.126 74.8944 173.126ZM76.9104 170.41V169.514L75.3284 169.85C74.6144 170.004 74.0824 170.228 74.0824 170.886C74.0824 171.46 74.5024 171.782 75.1464 171.782C76.0424 171.782 76.9104 171.306 76.9104 170.41ZM79.6159 171.6L80.8759 170.592C81.3099 171.306 82.1499 171.782 83.0039 171.782C83.7179 171.782 84.3759 171.53 84.3759 170.872C84.3759 170.242 83.7599 170.172 82.5979 169.934C81.4359 169.696 80.1059 169.402 80.1059 167.834C80.1059 166.49 81.2819 165.51 82.9759 165.51C84.2639 165.51 85.4119 166.084 85.9439 166.896L84.8099 167.918C84.3899 167.26 83.6899 166.882 82.8779 166.882C82.1919 166.882 81.7439 167.19 81.7439 167.68C81.7439 168.212 82.2759 168.31 83.1999 168.506C84.4459 168.772 86.0139 169.038 86.0139 170.718C86.0139 172.202 84.6559 173.154 82.9899 173.154C81.6319 173.154 80.2739 172.608 79.6159 171.6ZM90.4119 173.154C88.3119 173.154 86.8419 171.6 86.8419 169.332C86.8419 167.176 88.2979 165.51 90.3419 165.51C92.4699 165.51 93.6039 167.12 93.6039 169.136V169.696H88.4519C88.5779 170.956 89.3339 171.726 90.4119 171.726C91.2379 171.726 91.8959 171.306 92.1199 170.55L93.5619 171.096C93.0439 172.384 91.8819 173.154 90.4119 173.154ZM90.3279 166.924C89.4599 166.924 88.7879 167.442 88.5359 168.436H91.9099C91.8959 167.624 91.3919 166.924 90.3279 166.924ZM99.6112 162.948V173H97.8192V162.948H99.6112ZM101.441 173V165.65H103.121V166.434C103.541 165.944 104.199 165.51 105.151 165.51C106.691 165.51 107.615 166.574 107.615 168.156V173H105.935V168.646C105.935 167.736 105.571 167.078 104.647 167.078C103.891 167.078 103.121 167.638 103.121 168.688V173H101.441ZM40.3793 187.974C40.3793 190.144 41.5553 191.572 43.2073 191.572C44.3833 191.572 45.2373 190.858 45.5453 189.682L47.2253 190.256C46.6373 192.034 45.2373 193.154 43.2073 193.154C40.5333 193.154 38.5873 191.026 38.5873 187.974C38.5873 184.922 40.5333 182.794 43.2073 182.794C45.2373 182.794 46.6373 183.914 47.2253 185.692L45.5453 186.266C45.2373 185.09 44.3833 184.376 43.2073 184.376C41.5553 184.376 40.3793 185.804 40.3793 187.974ZM52.5452 185.636V187.316C52.3352 187.288 52.1672 187.274 51.9292 187.274C50.8652 187.274 50.0532 187.96 50.0532 189.136V193H48.3732V185.65H50.0532V186.742C50.3752 186.056 51.1312 185.608 52.0692 185.608C52.2652 185.608 52.4192 185.622 52.5452 185.636ZM56.4578 193.154C54.3578 193.154 52.8878 191.6 52.8878 189.332C52.8878 187.176 54.3438 185.51 56.3878 185.51C58.5158 185.51 59.6498 187.12 59.6498 189.136V189.696H54.4978C54.6238 190.956 55.3798 191.726 56.4578 191.726C57.2838 191.726 57.9418 191.306 58.1658 190.55L59.6078 191.096C59.0898 192.384 57.9278 193.154 56.4578 193.154ZM56.3738 186.924C55.5058 186.924 54.8338 187.442 54.5818 188.436H57.9558C57.9418 187.624 57.4378 186.924 56.3738 186.924ZM63.6823 193.154C61.6243 193.154 60.4483 191.418 60.4483 189.332C60.4483 187.246 61.6243 185.51 63.6823 185.51C64.6343 185.51 65.3343 185.888 65.7963 186.434V182.948H67.4763V193H65.7963V192.23C65.3343 192.776 64.6343 193.154 63.6823 193.154ZM65.8383 189.122C65.8383 187.736 65.0543 186.98 64.0183 186.98C62.8003 186.98 62.1423 187.932 62.1423 189.332C62.1423 190.732 62.8003 191.684 64.0183 191.684C65.0543 191.684 65.8383 190.914 65.8383 189.556V189.122ZM69.2085 184.67V182.948H70.9445V184.67H69.2085ZM70.9165 185.65V193H69.2365V185.65H70.9165ZM72.8358 191.152V187.078H71.8138V185.65H72.8358V183.494H74.4878V185.65H76.0278V187.078H74.4878V190.886C74.4878 191.544 74.8658 191.614 75.4678 191.614C75.7478 191.614 75.9018 191.6 76.1538 191.572V192.986C75.8458 193.042 75.4258 193.084 74.9918 193.084C73.5918 193.084 72.8358 192.65 72.8358 191.152ZM80.367 193V182.948H82.159V191.432H86.891V193H80.367ZM87.9526 184.67V182.948H89.6886V184.67H87.9526ZM89.6606 185.65V193H87.9806V185.65H89.6606ZM93.1059 188.688V193H91.4259V185.65H93.1059V186.434C93.5119 185.944 94.1419 185.51 95.1219 185.51C96.0039 185.51 96.6619 185.902 97.0679 186.532C97.5159 186.056 98.2159 185.51 99.3499 185.51C100.862 185.51 101.842 186.574 101.842 188.156V193H100.162V188.646C100.162 187.736 99.8259 187.078 98.9299 187.078C98.2159 187.078 97.4739 187.638 97.4739 188.688V193H95.7939V188.646C95.7939 187.736 95.4579 187.078 94.5619 187.078C93.8479 187.078 93.1059 187.638 93.1059 188.688ZM103.525 184.67V182.948H105.261V184.67H103.525ZM105.233 185.65V193H103.553V185.65H105.233ZM107.152 191.152V187.078H106.13V185.65H107.152V183.494H108.804V185.65H110.344V187.078H108.804V190.886C108.804 191.544 109.182 191.614 109.784 191.614C110.064 191.614 110.218 191.6 110.47 191.572V192.986C110.162 193.042 109.742 193.084 109.308 193.084C107.908 193.084 107.152 192.65 107.152 191.152Z" fill="#0DB746"/>
</svg>
