<svg width="897" height="928" viewBox="0 0 897 928" fill="none" xmlns="http://www.w3.org/2000/svg">
<path d="M88.9966 500.897C134.516 511.214 254.791 561.616 371.735 680.691C517.916 829.534 639.666 900.043 741.487 911.003" stroke="#FFC000" stroke-width="1.5" stroke-linecap="round" stroke-linejoin="bevel"/>
<path d="M97.3398 488.481C142.859 498.798 263.134 549.2 380.079 668.275C526.259 817.118 648.009 887.627 749.83 898.587" stroke="#FFC000" stroke-width="1.5" stroke-linecap="round" stroke-linejoin="bevel"/>
<path d="M105.683 476.063C151.202 486.38 271.477 536.782 388.422 655.857C534.603 804.7 656.352 875.209 758.173 886.169" stroke="#FFC000" stroke-width="1.5" stroke-linecap="round" stroke-linejoin="bevel"/>
<path d="M114.026 463.651C159.546 473.968 279.82 524.37 396.765 643.445C542.946 792.288 664.695 862.797 766.516 873.757" stroke="#FFC000" stroke-width="1.5" stroke-linecap="round" stroke-linejoin="bevel"/>
<path d="M122.37 451.233C167.889 461.55 288.164 511.952 405.108 631.027C551.289 779.87 673.039 850.379 774.86 861.339" stroke="#FFC000" stroke-width="1.5" stroke-linecap="round" stroke-linejoin="bevel"/>
<path d="M130.713 438.817C176.232 449.134 296.507 499.536 413.452 618.611C559.632 767.454 681.382 837.963 783.203 848.923" stroke="#FFC000" stroke-width="1.5" stroke-linecap="round" stroke-linejoin="bevel"/>
<path d="M139.056 426.403C184.575 436.72 304.85 487.122 421.795 606.197C567.976 755.04 689.725 825.549 791.546 836.509" stroke="#FFC000" stroke-width="1.5" stroke-linecap="round" stroke-linejoin="bevel"/>
<path d="M147.399 413.985C192.919 424.302 313.193 474.704 430.138 593.779C576.319 742.622 698.068 813.131 799.889 824.091" stroke="#FFC000" stroke-width="1.5" stroke-linecap="round" stroke-linejoin="bevel"/>
<path d="M155.743 401.569C201.262 411.886 321.537 462.288 438.481 581.363C584.662 730.206 706.412 800.715 808.233 811.675" stroke="#FFC000" stroke-width="1.5" stroke-linecap="round" stroke-linejoin="bevel"/>
<path d="M164.086 389.155C209.605 399.472 329.88 449.874 446.825 568.948C593.005 717.792 714.755 788.3 816.576 799.261" stroke="#FFC000" stroke-width="1.5" stroke-linecap="round" stroke-linejoin="bevel"/>
<path d="M172.421 376.739C217.94 387.056 338.215 437.458 455.159 556.532C601.34 705.376 723.09 775.884 824.911 786.845" stroke="#FFC000" stroke-width="1.5" stroke-linecap="round" stroke-linejoin="bevel"/>
<path d="M771.015 286.632C737.12 313.43 631.025 370.853 477.796 386.158C286.261 405.288 164.938 452.143 97.78 519.097" stroke="#FFC000" stroke-width="1.5" stroke-linecap="round" stroke-linejoin="bevel"/>
<path d="M775.026 299.819C741.131 326.617 635.036 384.041 481.808 399.345C290.272 418.475 168.949 465.33 101.791 532.284" stroke="#FFC000" stroke-width="1.5" stroke-linecap="round" stroke-linejoin="bevel"/>
<path d="M779.034 313.009C745.14 339.808 639.044 397.231 485.816 412.535C294.281 431.666 172.958 478.521 105.8 545.474" stroke="#FFC000" stroke-width="1.5" stroke-linecap="round" stroke-linejoin="bevel"/>
<path d="M783.047 326.193C749.153 352.991 643.057 410.415 489.829 425.719C298.293 444.849 176.971 491.704 109.812 558.658" stroke="#FFC000" stroke-width="1.5" stroke-linecap="round" stroke-linejoin="bevel"/>
<path d="M787.059 339.381C753.164 366.179 647.069 423.602 493.841 438.907C302.305 458.037 180.982 504.892 113.824 571.846" stroke="#FFC000" stroke-width="1.5" stroke-linecap="round" stroke-linejoin="bevel"/>
<path d="M791.069 352.567C757.175 379.366 651.079 436.789 497.851 452.093C306.315 471.224 184.993 518.079 117.834 585.032" stroke="#FFC000" stroke-width="1.5" stroke-linecap="round" stroke-linejoin="bevel"/>
<path d="M795.08 365.754C761.186 392.553 655.09 449.976 501.862 465.281C310.327 484.411 189.004 531.266 121.845 598.219" stroke="#FFC000" stroke-width="1.5" stroke-linecap="round" stroke-linejoin="bevel"/>
<path d="M799.092 378.942C765.198 405.741 659.102 463.164 505.874 478.468C314.338 497.599 193.016 544.454 125.857 611.407" stroke="#FFC000" stroke-width="1.5" stroke-linecap="round" stroke-linejoin="bevel"/>
<path d="M803.1 392.132C769.205 418.931 663.11 476.354 509.882 491.658C318.346 510.789 197.023 557.643 129.865 624.597" stroke="#FFC000" stroke-width="1.5" stroke-linecap="round" stroke-linejoin="bevel"/>
<path d="M807.111 405.319C773.216 432.118 667.121 489.541 513.893 504.845C322.357 523.976 201.034 570.831 133.876 637.784" stroke="#FFC000" stroke-width="1.5" stroke-linecap="round" stroke-linejoin="bevel"/>
<path d="M811.126 418.5C777.232 445.299 671.136 502.722 517.908 518.026C326.373 537.157 205.05 584.012 137.892 650.965" stroke="#FFC000" stroke-width="1.5" stroke-linecap="round" stroke-linejoin="bevel"/>
<path d="M27.467 374.9C50.2018 380.015 110.273 405.006 168.682 464.046C241.692 537.846 302.5 572.805 353.355 578.24" stroke="#FFC000" stroke-width="1.5" stroke-linecap="round" stroke-linejoin="bevel"/>
<path d="M31.6301 368.744C54.3649 373.859 114.437 398.85 172.845 457.89C245.855 531.69 306.663 566.649 357.518 572.084" stroke="#FFC000" stroke-width="1.5" stroke-linecap="round" stroke-linejoin="bevel"/>
<path d="M35.8071 362.588C58.5419 367.703 118.614 392.694 177.022 451.734C250.032 525.534 310.84 560.493 361.695 565.928" stroke="#FFC000" stroke-width="1.5" stroke-linecap="round" stroke-linejoin="bevel"/>
<path d="M39.9702 356.434C62.705 361.549 122.777 386.539 181.185 445.579C254.195 519.379 315.004 554.339 365.858 559.773" stroke="#FFC000" stroke-width="1.5" stroke-linecap="round" stroke-linejoin="bevel"/>
<path d="M44.1333 350.276C66.8681 355.391 126.94 380.381 185.348 439.422C258.358 513.222 319.167 548.181 370.021 553.616" stroke="#FFC000" stroke-width="1.5" stroke-linecap="round" stroke-linejoin="bevel"/>
<path d="M48.3033 344.12C71.0381 349.235 131.11 374.225 189.518 433.266C262.528 507.066 323.337 542.025 374.191 547.46" stroke="#FFC000" stroke-width="1.5" stroke-linecap="round" stroke-linejoin="bevel"/>
<path d="M52.4664 337.964C75.2012 343.079 135.273 368.069 193.681 427.11C266.692 500.91 327.5 535.869 378.354 541.304" stroke="#FFC000" stroke-width="1.5" stroke-linecap="round" stroke-linejoin="bevel"/>
<path d="M56.6364 331.808C79.3712 336.923 139.443 361.913 197.851 420.954C270.862 494.754 331.67 529.713 382.524 535.148" stroke="#FFC000" stroke-width="1.5" stroke-linecap="round" stroke-linejoin="bevel"/>
<path d="M60.8065 325.652C83.5412 330.767 143.613 355.757 202.021 414.797C275.032 488.598 335.84 523.557 386.695 528.992" stroke="#FFC000" stroke-width="1.5" stroke-linecap="round" stroke-linejoin="bevel"/>
<path d="M64.9696 319.496C87.7043 324.611 147.776 349.601 206.184 408.641C279.195 482.442 340.003 517.401 390.858 522.836" stroke="#FFC000" stroke-width="1.5" stroke-linecap="round" stroke-linejoin="bevel"/>
<path d="M69.1466 313.341C91.8813 318.457 151.953 343.447 210.361 402.487C283.372 476.287 344.18 511.247 395.035 516.681" stroke="#FFC000" stroke-width="1.5" stroke-linecap="round" stroke-linejoin="bevel"/>
<rect x="81.9966" y="370" width="450" height="274.675" rx="16" fill="#000001"/>
<path fill-rule="evenodd" clip-rule="evenodd" d="M106 408.935L113.53 402L126.485 402.549L125.936 415.504L118.406 422.417L118.955 409.485L106 408.935Z" fill="#FFC000"/>
<path fill-rule="evenodd" clip-rule="evenodd" d="M130.582 423.286L123.029 430.222L110.074 429.672L110.623 416.74L118.177 409.805L117.627 422.737L130.582 423.286Z" fill="white"/>
<path fill-rule="evenodd" clip-rule="evenodd" d="M136.785 427.727V404.678H144.956C153.15 404.678 157.247 408.417 157.247 415.894C157.247 419.495 156.126 422.363 153.883 424.5C151.655 426.651 148.679 427.727 144.956 427.727H136.785ZM141.98 408.89V423.515H144.544C146.802 423.515 148.572 422.837 149.854 421.478C151.136 420.136 151.777 418.297 151.777 415.962C151.777 413.765 151.136 412.041 149.854 410.789C148.588 409.523 146.81 408.89 144.521 408.89H141.98ZM179.838 417.748C179.838 424.66 176.611 428.116 170.156 428.116C163.9 428.116 160.772 424.736 160.772 417.976V404.678H165.991V418.045C165.991 421.768 167.448 423.63 170.362 423.63C173.216 423.63 174.642 421.829 174.642 418.228V404.678H179.838V417.748ZM194.602 428.116C191.29 428.116 188.597 427.04 186.522 424.889C184.446 422.752 183.409 419.952 183.409 416.489C183.409 412.857 184.462 409.912 186.568 407.654C188.689 405.411 191.489 404.289 194.968 404.289C198.264 404.289 200.926 405.365 202.956 407.516C204.985 409.668 206 412.506 206 416.031C206 419.647 204.947 422.569 202.841 424.797C200.736 427.01 197.989 428.116 194.602 428.116ZM194.83 408.752C192.999 408.752 191.55 409.431 190.482 410.789C189.413 412.163 188.879 413.979 188.879 416.237C188.879 418.511 189.413 420.311 190.482 421.639C191.55 422.966 192.954 423.63 194.693 423.63C196.478 423.63 197.897 422.989 198.95 421.707C200.003 420.41 200.53 418.617 200.53 416.328C200.53 413.933 200.019 412.071 198.996 410.744C197.974 409.416 196.585 408.752 194.83 408.752Z" fill="white"/>
<path d="M493.36 410.928C492.738 410.3 491.72 410.296 491.086 410.919C490.458 411.542 490.454 412.559 491.076 413.193C495.387 417.54 495.358 424.585 491.011 428.895C490.697 429.207 490.536 429.617 490.534 430.028C490.533 430.438 490.69 430.85 491.002 431.164C491.625 431.792 492.642 431.796 493.276 431.173C498.885 425.617 498.923 416.531 493.36 410.928Z" fill="white"/>
<path d="M489.002 415.251C488.379 414.623 487.361 414.619 486.727 415.242C486.099 415.864 486.095 416.882 486.717 417.516C488.647 419.456 488.634 422.607 486.688 424.53C486.374 424.842 486.213 425.252 486.212 425.663C486.21 426.073 486.368 426.485 486.679 426.799C487.302 427.427 488.319 427.431 488.947 426.808C492.155 423.639 492.176 418.452 489.002 415.251Z" fill="white"/>
<path d="M481.062 421C481.057 422.182 482.011 423.144 483.193 423.149C484.375 423.153 485.337 422.199 485.342 421.018C485.347 419.836 484.393 418.874 483.211 418.869C482.029 418.864 481.067 419.818 481.062 421Z" fill="white"/>
<path d="M497.673 435.6C505.713 427.62 505.767 414.585 497.793 406.538C497.17 405.91 496.153 405.906 495.518 406.529C494.89 407.152 494.886 408.169 495.509 408.803C502.244 415.588 502.198 426.587 495.407 433.322C495.093 433.633 494.932 434.043 494.931 434.454C494.929 434.865 495.087 435.276 495.398 435.59C496.021 436.218 497.038 436.223 497.673 435.6Z" fill="white"/>
<path d="M116.079 608L110.439 592.976H110.343C110.391 593.472 110.431 594.144 110.463 594.992C110.495 595.824 110.511 596.696 110.511 597.608V608H108.519V590.864H111.711L116.991 604.904H117.087L122.463 590.864H125.631V608H123.495V597.464C123.495 596.632 123.511 595.808 123.543 594.992C123.591 594.176 123.631 593.512 123.663 593H123.567L117.855 608H116.079ZM134.877 594.92C136.445 594.92 137.605 595.264 138.357 595.952C139.109 596.64 139.485 597.736 139.485 599.24V608H137.949L137.541 606.176H137.445C136.885 606.88 136.293 607.4 135.669 607.736C135.045 608.072 134.197 608.24 133.125 608.24C131.957 608.24 130.989 607.936 130.221 607.328C129.453 606.704 129.069 605.736 129.069 604.424C129.069 603.144 129.573 602.16 130.581 601.472C131.589 600.768 133.141 600.384 135.237 600.32L137.421 600.248V599.48C137.421 598.408 137.189 597.664 136.725 597.248C136.261 596.832 135.605 596.624 134.757 596.624C134.085 596.624 133.445 596.728 132.837 596.936C132.229 597.128 131.661 597.352 131.133 597.608L130.485 596.024C131.045 595.72 131.709 595.464 132.477 595.256C133.245 595.032 134.045 594.92 134.877 594.92ZM137.397 601.712L135.501 601.784C133.901 601.848 132.789 602.104 132.165 602.552C131.557 603 131.253 603.632 131.253 604.448C131.253 605.168 131.469 605.696 131.901 606.032C132.349 606.368 132.917 606.536 133.605 606.536C134.677 606.536 135.573 606.24 136.293 605.648C137.029 605.04 137.397 604.112 137.397 602.864V601.712ZM141.442 595.136H143.698L146.482 602.456C146.722 603.112 146.938 603.728 147.13 604.304C147.322 604.88 147.466 605.432 147.562 605.96H147.658C147.754 605.56 147.906 605.04 148.114 604.4C148.322 603.744 148.538 603.088 148.762 602.432L151.378 595.136H153.658L148.114 609.776C147.65 610.992 147.066 611.96 146.362 612.68C145.658 613.4 144.682 613.76 143.434 613.76C143.05 613.76 142.714 613.736 142.426 613.688C142.138 613.656 141.89 613.616 141.682 613.568V611.888C141.858 611.92 142.066 611.952 142.306 611.984C142.562 612.016 142.826 612.032 143.098 612.032C143.834 612.032 144.426 611.824 144.874 611.408C145.322 610.992 145.682 610.44 145.954 609.752L146.626 608.048L141.442 595.136ZM166.876 601.544C166.876 603.672 166.332 605.32 165.244 606.488C164.172 607.656 162.716 608.24 160.876 608.24C159.74 608.24 158.724 607.984 157.828 607.472C156.948 606.944 156.252 606.184 155.74 605.192C155.228 604.184 154.972 602.968 154.972 601.544C154.972 599.416 155.5 597.776 156.556 596.624C157.628 595.472 159.092 594.896 160.948 594.896C162.1 594.896 163.124 595.16 164.02 595.688C164.916 596.2 165.612 596.952 166.108 597.944C166.62 598.92 166.876 600.12 166.876 601.544ZM157.156 601.544C157.156 603.064 157.452 604.272 158.044 605.168C158.652 606.048 159.612 606.488 160.924 606.488C162.22 606.488 163.172 606.048 163.78 605.168C164.388 604.272 164.692 603.064 164.692 601.544C164.692 600.024 164.388 598.832 163.78 597.968C163.172 597.104 162.212 596.672 160.9 596.672C159.588 596.672 158.636 597.104 158.044 597.968C157.452 598.832 157.156 600.024 157.156 601.544ZM180.267 607.976L178.059 600.728C177.851 600.072 177.667 599.432 177.507 598.808C177.347 598.184 177.235 597.688 177.171 597.32H177.075C177.011 597.688 176.907 598.184 176.763 598.808C176.619 599.432 176.435 600.08 176.211 600.752L173.907 607.976H171.507L167.979 595.112H170.163L171.939 601.976C172.115 602.664 172.283 603.36 172.443 604.064C172.603 604.768 172.715 605.352 172.779 605.816H172.875C172.923 605.544 172.995 605.208 173.091 604.808C173.187 604.408 173.291 603.992 173.403 603.56C173.515 603.112 173.627 602.712 173.739 602.36L176.019 595.112H178.323L180.531 602.36C180.691 602.92 180.859 603.52 181.035 604.16C181.211 604.8 181.331 605.344 181.395 605.792H181.491C181.539 605.392 181.643 604.84 181.803 604.136C181.979 603.432 182.163 602.712 182.355 601.976L184.155 595.112H186.315L182.739 607.976H180.267ZM193.494 594.92C195.062 594.92 196.222 595.264 196.974 595.952C197.726 596.64 198.102 597.736 198.102 599.24V608H196.566L196.158 606.176H196.062C195.502 606.88 194.91 607.4 194.286 607.736C193.662 608.072 192.814 608.24 191.742 608.24C190.574 608.24 189.606 607.936 188.838 607.328C188.07 606.704 187.686 605.736 187.686 604.424C187.686 603.144 188.19 602.16 189.198 601.472C190.206 600.768 191.758 600.384 193.854 600.32L196.038 600.248V599.48C196.038 598.408 195.806 597.664 195.342 597.248C194.878 596.832 194.222 596.624 193.374 596.624C192.702 596.624 192.062 596.728 191.454 596.936C190.846 597.128 190.278 597.352 189.75 597.608L189.102 596.024C189.662 595.72 190.326 595.464 191.094 595.256C191.862 595.032 192.662 594.92 193.494 594.92ZM196.014 601.712L194.118 601.784C192.518 601.848 191.406 602.104 190.782 602.552C190.174 603 189.87 603.632 189.87 604.448C189.87 605.168 190.086 605.696 190.518 606.032C190.966 606.368 191.534 606.536 192.222 606.536C193.294 606.536 194.19 606.24 194.91 605.648C195.646 605.04 196.014 604.112 196.014 602.864V601.712ZM216.387 592.52C214.547 592.52 213.099 593.136 212.043 594.368C210.987 595.6 210.459 597.288 210.459 599.432C210.459 601.56 210.947 603.248 211.923 604.496C212.915 605.728 214.395 606.344 216.363 606.344C217.099 606.344 217.803 606.28 218.475 606.152C219.147 606.024 219.811 605.864 220.467 605.672V607.544C219.827 607.784 219.163 607.96 218.475 608.072C217.803 608.184 216.995 608.24 216.051 608.24C214.307 608.24 212.851 607.88 211.683 607.16C210.515 606.44 209.635 605.416 209.043 604.088C208.467 602.76 208.179 601.2 208.179 599.408C208.179 597.68 208.491 596.16 209.115 594.848C209.755 593.52 210.691 592.488 211.923 591.752C213.155 591 214.651 590.624 216.411 590.624C218.219 590.624 219.795 590.96 221.139 591.632L220.275 593.456C219.747 593.216 219.155 593 218.499 592.808C217.859 592.616 217.155 592.52 216.387 592.52ZM226.031 589.76V595.112C226.031 595.752 225.991 596.352 225.911 596.912H226.055C226.471 596.256 227.031 595.76 227.735 595.424C228.455 595.088 229.231 594.92 230.063 594.92C231.615 594.92 232.783 595.296 233.567 596.048C234.367 596.784 234.767 597.976 234.767 599.624V608H232.679V599.768C232.679 597.704 231.719 596.672 229.799 596.672C228.359 596.672 227.367 597.08 226.823 597.896C226.295 598.696 226.031 599.848 226.031 601.352V608H223.919V589.76H226.031ZM239.835 590.312C240.155 590.312 240.435 590.424 240.675 590.648C240.931 590.856 241.059 591.192 241.059 591.656C241.059 592.12 240.931 592.464 240.675 592.688C240.435 592.896 240.155 593 239.835 593C239.483 593 239.187 592.896 238.947 592.688C238.707 592.464 238.587 592.12 238.587 591.656C238.587 591.192 238.707 590.856 238.947 590.648C239.187 590.424 239.483 590.312 239.835 590.312ZM240.867 595.136V608H238.755V595.136H240.867ZM256.126 601.544C256.126 603.672 255.582 605.32 254.494 606.488C253.422 607.656 251.966 608.24 250.126 608.24C248.99 608.24 247.974 607.984 247.078 607.472C246.198 606.944 245.502 606.184 244.99 605.192C244.478 604.184 244.222 602.968 244.222 601.544C244.222 599.416 244.75 597.776 245.806 596.624C246.878 595.472 248.342 594.896 250.198 594.896C251.35 594.896 252.374 595.16 253.27 595.688C254.166 596.2 254.862 596.952 255.358 597.944C255.87 598.92 256.126 600.12 256.126 601.544ZM246.406 601.544C246.406 603.064 246.702 604.272 247.294 605.168C247.902 606.048 248.862 606.488 250.174 606.488C251.47 606.488 252.422 606.048 253.03 605.168C253.638 604.272 253.942 603.064 253.942 601.544C253.942 600.024 253.638 598.832 253.03 597.968C252.422 597.104 251.462 596.672 250.15 596.672C248.838 596.672 247.886 597.104 247.294 597.968C246.702 598.832 246.406 600.024 246.406 601.544ZM273.586 594.896C275.042 594.896 276.13 595.272 276.85 596.024C277.57 596.776 277.93 597.976 277.93 599.624V608H275.842V599.72C275.842 597.688 274.97 596.672 273.226 596.672C271.978 596.672 271.082 597.032 270.538 597.752C270.01 598.472 269.746 599.52 269.746 600.896V608H267.658V599.72C267.658 597.688 266.778 596.672 265.018 596.672C263.722 596.672 262.826 597.072 262.33 597.872C261.834 598.672 261.586 599.824 261.586 601.328V608H259.474V595.136H261.178L261.49 596.888H261.61C262.01 596.216 262.546 595.72 263.218 595.4C263.906 595.064 264.634 594.896 265.402 594.896C267.418 594.896 268.73 595.616 269.338 597.056H269.458C269.89 596.32 270.474 595.776 271.21 595.424C271.946 595.072 272.738 594.896 273.586 594.896ZM286.775 594.92C288.343 594.92 289.503 595.264 290.255 595.952C291.007 596.64 291.383 597.736 291.383 599.24V608H289.847L289.439 606.176H289.343C288.783 606.88 288.191 607.4 287.567 607.736C286.943 608.072 286.095 608.24 285.023 608.24C283.855 608.24 282.887 607.936 282.119 607.328C281.351 606.704 280.967 605.736 280.967 604.424C280.967 603.144 281.471 602.16 282.479 601.472C283.487 600.768 285.039 600.384 287.135 600.32L289.319 600.248V599.48C289.319 598.408 289.087 597.664 288.623 597.248C288.159 596.832 287.503 596.624 286.655 596.624C285.983 596.624 285.343 596.728 284.735 596.936C284.127 597.128 283.559 597.352 283.031 597.608L282.383 596.024C282.943 595.72 283.607 595.464 284.375 595.256C285.143 595.032 285.943 594.92 286.775 594.92ZM289.295 601.712L287.399 601.784C285.799 601.848 284.687 602.104 284.063 602.552C283.455 603 283.151 603.632 283.151 604.448C283.151 605.168 283.367 605.696 283.799 606.032C284.247 606.368 284.815 606.536 285.503 606.536C286.575 606.536 287.471 606.24 288.191 605.648C288.927 605.04 289.295 604.112 289.295 602.864V601.712ZM313.076 608L311.012 602.696H304.22L302.18 608H299.996L306.692 590.792H308.636L315.308 608H313.076ZM310.364 600.776L308.444 595.592C308.396 595.464 308.316 595.232 308.204 594.896C308.092 594.56 307.98 594.216 307.868 593.864C307.772 593.496 307.692 593.216 307.628 593.024C307.5 593.52 307.364 594.008 307.22 594.488C307.092 594.952 306.98 595.32 306.884 595.592L304.94 600.776H310.364ZM321.924 608.24C320.324 608.24 319.044 607.688 318.084 606.584C317.124 605.464 316.644 603.8 316.644 601.592C316.644 599.384 317.124 597.72 318.084 596.6C319.06 595.464 320.348 594.896 321.948 594.896C322.94 594.896 323.748 595.08 324.372 595.448C325.012 595.816 325.532 596.264 325.932 596.792H326.076C326.044 596.584 326.012 596.28 325.98 595.88C325.948 595.464 325.932 595.136 325.932 594.896V589.76H328.044V608H326.34L326.028 606.272H325.932C325.548 606.816 325.036 607.28 324.396 607.664C323.756 608.048 322.932 608.24 321.924 608.24ZM322.26 606.488C323.62 606.488 324.572 606.12 325.116 605.384C325.676 604.632 325.956 603.504 325.956 602V601.616C325.956 600.016 325.692 598.792 325.164 597.944C324.636 597.08 323.66 596.648 322.236 596.648C321.1 596.648 320.244 597.104 319.668 598.016C319.108 598.912 318.828 600.12 318.828 601.64C318.828 603.176 319.108 604.368 319.668 605.216C320.244 606.064 321.108 606.488 322.26 606.488ZM337.002 594.92C338.57 594.92 339.73 595.264 340.482 595.952C341.234 596.64 341.61 597.736 341.61 599.24V608H340.074L339.666 606.176H339.57C339.01 606.88 338.418 607.4 337.794 607.736C337.17 608.072 336.322 608.24 335.25 608.24C334.082 608.24 333.114 607.936 332.346 607.328C331.578 606.704 331.194 605.736 331.194 604.424C331.194 603.144 331.698 602.16 332.706 601.472C333.714 600.768 335.266 600.384 337.362 600.32L339.546 600.248V599.48C339.546 598.408 339.314 597.664 338.85 597.248C338.386 596.832 337.73 596.624 336.882 596.624C336.21 596.624 335.57 596.728 334.962 596.936C334.354 597.128 333.786 597.352 333.258 597.608L332.61 596.024C333.17 595.72 333.834 595.464 334.602 595.256C335.37 595.032 336.17 594.92 337.002 594.92ZM339.522 601.712L337.626 601.784C336.026 601.848 334.914 602.104 334.29 602.552C333.682 603 333.378 603.632 333.378 604.448C333.378 605.168 333.594 605.696 334.026 606.032C334.474 606.368 335.042 606.536 335.73 606.536C336.802 606.536 337.698 606.24 338.418 605.648C339.154 605.04 339.522 604.112 339.522 602.864V601.712ZM359.695 594.896C361.151 594.896 362.239 595.272 362.959 596.024C363.679 596.776 364.039 597.976 364.039 599.624V608H361.951V599.72C361.951 597.688 361.079 596.672 359.335 596.672C358.087 596.672 357.191 597.032 356.647 597.752C356.119 598.472 355.855 599.52 355.855 600.896V608H353.767V599.72C353.767 597.688 352.887 596.672 351.127 596.672C349.831 596.672 348.935 597.072 348.439 597.872C347.943 598.672 347.695 599.824 347.695 601.328V608H345.583V595.136H347.287L347.599 596.888H347.719C348.119 596.216 348.655 595.72 349.327 595.4C350.015 595.064 350.743 594.896 351.511 594.896C353.527 594.896 354.839 595.616 355.447 597.056H355.567C355.999 596.32 356.583 595.776 357.319 595.424C358.055 595.072 358.847 594.896 359.695 594.896ZM378.765 595.136V608H377.037L376.725 606.296H376.629C376.213 606.968 375.637 607.464 374.901 607.784C374.165 608.088 373.381 608.24 372.549 608.24C370.997 608.24 369.829 607.872 369.045 607.136C368.261 606.384 367.869 605.192 367.869 603.56V595.136H370.005V603.416C370.005 605.464 370.957 606.488 372.861 606.488C374.285 606.488 375.269 606.088 375.813 605.288C376.373 604.488 376.653 603.336 376.653 601.832V595.136H378.765Z" fill="white"/>
<path d="M158.359 501.621H109.631C107.629 501.621 106 499.992 106 497.98V461.631C106 459.629 107.629 458 109.631 458H158.348C160.36 458 161.989 459.629 161.989 461.631V497.98C161.989 499.992 160.36 501.621 158.359 501.621Z" fill="#FFC738"/>
<path d="M158.359 458H133.994V501.621H158.358C160.371 501.621 161.989 499.992 161.989 497.991V461.631C161.989 459.629 160.36 458 158.359 458Z" fill="#FFB42E"/>
<path d="M161.989 480.56V479.062H142.426V472.446L147.478 467.394H161.989C161.989 466.88 161.934 466.377 161.847 465.895H147.161C146.964 465.895 146.767 465.983 146.636 466.125L141.365 471.385H134.749V458H133.251V471.374H126.712L121.452 466.114C121.31 465.972 121.113 465.884 120.916 465.884H106.153C106.066 466.376 106.011 466.879 106.011 467.382H120.61L125.563 472.336V479.04H106V480.538H125.563V487.241L120.61 492.228H106.011C106.011 492.742 106.066 493.245 106.153 493.726H120.927C121.124 493.726 121.32 493.638 121.463 493.496L126.723 488.236H133.262V501.61H134.76V488.236H141.376L146.647 493.496C146.778 493.638 146.975 493.726 147.172 493.726H161.858C161.945 493.234 162 492.731 162 492.228H147.467L142.415 487.176V480.56H161.989ZM140.928 486.738H127.062V472.872H140.917V486.738H140.928Z" fill="#C66D4E"/>
<path d="M161.989 480.56V479.062H142.426V472.446L147.478 467.394H161.989C161.989 466.88 161.934 466.377 161.847 465.895H147.161C146.964 465.895 146.767 465.983 146.636 466.125L141.365 471.385H134.749V458H133.995V472.872H140.928V486.738H133.995V501.61H134.749V488.236H141.365L146.636 493.496C146.767 493.638 146.964 493.726 147.161 493.726H161.847C161.934 493.234 161.989 492.742 161.989 492.228H147.467L142.415 487.176V480.56H161.989Z" fill="#AF5A35"/>
<rect x="419" y="453" width="88" height="103.053" rx="8" fill="url(#paint0_linear_1005_2985)"/>
<path d="M439.654 477.151C439.654 479.871 441.158 481.711 443.286 481.711C444.774 481.711 445.846 480.847 446.262 479.391L447.718 479.871C447.046 481.855 445.478 483.071 443.286 483.071C440.31 483.071 438.118 480.655 438.118 477.151C438.118 473.647 440.31 471.231 443.286 471.231C445.478 471.231 447.046 472.447 447.718 474.431L446.262 474.911C445.846 473.455 444.774 472.591 443.286 472.591C441.158 472.591 439.654 474.431 439.654 477.151ZM453.609 474.495V475.951C453.369 475.903 453.177 475.887 452.905 475.887C451.689 475.887 450.713 476.847 450.713 478.319V482.895H449.273V474.527H450.713V475.951C451.081 475.103 451.897 474.463 453.033 474.463C453.257 474.463 453.465 474.479 453.609 474.495ZM458.195 483.071C455.875 483.071 454.275 481.295 454.275 478.719C454.275 476.223 455.859 474.367 458.131 474.367C460.467 474.367 461.699 476.143 461.699 478.463V478.943H455.651C455.731 480.703 456.739 481.823 458.195 481.823C459.315 481.823 460.115 481.215 460.371 480.223L461.635 480.671C461.123 482.159 459.859 483.071 458.195 483.071ZM458.115 475.599C456.899 475.599 455.987 476.415 455.731 477.839H460.243C460.211 476.655 459.571 475.599 458.115 475.599ZM466.564 483.071C464.244 483.071 462.916 481.087 462.916 478.719C462.916 476.335 464.244 474.367 466.564 474.367C467.732 474.367 468.66 474.927 469.156 475.743V471.407H470.596V482.895H469.156V481.679C468.66 482.511 467.732 483.071 466.564 483.071ZM469.188 478.431C469.188 476.479 468.004 475.631 466.82 475.631C465.252 475.631 464.372 476.911 464.372 478.719C464.372 480.511 465.252 481.807 466.82 481.807C468.004 481.807 469.188 480.943 469.188 479.023V478.431ZM472.912 473.071V471.407H474.48V473.071H472.912ZM474.416 474.527V482.895H472.976V474.527H474.416ZM477.044 480.895V475.759H475.748V474.527H477.044V472.079H478.468V474.527H480.372V475.759H478.468V480.671C478.468 481.551 478.9 481.711 479.636 481.711C479.972 481.711 480.212 481.695 480.548 481.615V482.847C480.18 482.927 479.764 482.975 479.284 482.975C477.86 482.975 477.044 482.495 477.044 480.895Z" fill="#393939"/>
<path d="M442.264 535V523.512H445.912C449.4 523.512 451.608 525.752 451.608 529.256C451.608 532.76 449.4 535 445.912 535H442.264ZM443.768 533.672H445.912C448.52 533.672 450.104 531.928 450.104 529.256C450.104 526.568 448.52 524.84 445.896 524.84H443.768V533.672ZM456.763 535.176C454.443 535.176 452.843 533.4 452.843 530.824C452.843 528.328 454.427 526.472 456.699 526.472C459.035 526.472 460.267 528.248 460.267 530.568V531.048H454.219C454.299 532.808 455.307 533.928 456.763 533.928C457.883 533.928 458.683 533.32 458.939 532.328L460.203 532.776C459.691 534.264 458.427 535.176 456.763 535.176ZM456.683 527.704C455.467 527.704 454.555 528.52 454.299 529.944H458.811C458.779 528.76 458.139 527.704 456.683 527.704ZM466.091 535.176C464.923 535.176 463.995 534.616 463.499 533.784V535H462.059V523.512H463.499V527.848C463.995 527.032 464.923 526.472 466.091 526.472C468.411 526.472 469.739 528.44 469.739 530.824C469.739 533.192 468.411 535.176 466.091 535.176ZM463.467 530.536V531.128C463.467 533.048 464.651 533.912 465.835 533.912C467.403 533.912 468.283 532.616 468.283 530.824C468.283 529.016 467.403 527.736 465.835 527.736C464.651 527.736 463.467 528.584 463.467 530.536ZM471.495 525.176V523.512H473.063V525.176H471.495ZM472.999 526.632V535H471.559V526.632H472.999ZM475.627 533V527.864H474.331V526.632H475.627V524.184H477.051V526.632H478.955V527.864H477.051V532.776C477.051 533.656 477.483 533.816 478.219 533.816C478.555 533.816 478.795 533.8 479.131 533.72V534.952C478.763 535.032 478.347 535.08 477.867 535.08C476.443 535.08 475.627 534.6 475.627 533Z" fill="#393939"/>
<rect x="419" y="503.947" width="88" height="1.15789" fill="#B9B9B9"/>
<defs>
<linearGradient id="paint0_linear_1005_2985" x1="463" y1="453" x2="463" y2="556.053" gradientUnits="userSpaceOnUse">
<stop stop-color="white"/>
<stop offset="1" stop-color="white" stop-opacity="0.57"/>
</linearGradient>
</defs>
</svg>
