<svg width="149" height="197" viewBox="0 0 149 197" fill="none" xmlns="http://www.w3.org/2000/svg">
<circle cx="74.5" cy="74.5" r="73.5" fill="white" stroke="#E2001A" stroke-width="2"/>
<path d="M5 50H8.5L18.5 66L36 63.5L50.5 84L66.5 63.5L81.5 85.5L113 88.5M113 88.5L105.5 93.5M113 88.5L108.5 79.5" stroke="#E2001A" stroke-width="2"/>
<path d="M38.6063 173V162.948H41.9663C45.0883 162.948 47.0203 164.908 47.0203 167.974C47.0203 171.04 45.0883 173 41.9663 173H38.6063ZM40.3563 171.46H41.9663C44.0383 171.46 45.2563 170.088 45.2563 167.974C45.2563 165.846 44.0383 164.488 41.9523 164.488H40.3563V171.46ZM51.4607 173.154C49.3607 173.154 47.8907 171.6 47.8907 169.332C47.8907 167.176 49.3467 165.51 51.3907 165.51C53.5187 165.51 54.6527 167.12 54.6527 169.136V169.696H49.5007C49.6267 170.956 50.3827 171.726 51.4607 171.726C52.2867 171.726 52.9447 171.306 53.1687 170.55L54.6107 171.096C54.0927 172.384 52.9307 173.154 51.4607 173.154ZM51.3767 166.924C50.5087 166.924 49.8367 167.442 49.5847 168.436H52.9587C52.9447 167.624 52.4407 166.924 51.3767 166.924ZM57.1313 169.332C57.1313 170.83 57.9153 171.698 59.0633 171.698C59.9593 171.698 60.5053 171.11 60.7153 170.298L62.1573 171.026C61.7793 172.216 60.6593 173.154 59.0633 173.154C56.9633 173.154 55.4513 171.6 55.4513 169.332C55.4513 167.064 56.9633 165.51 59.0633 165.51C60.6453 165.51 61.7373 166.406 62.1293 167.582L60.7153 168.352C60.5053 167.554 59.9593 166.952 59.0633 166.952C57.9153 166.952 57.1313 167.834 57.1313 169.332ZM67.345 165.636V167.316C67.135 167.288 66.967 167.274 66.729 167.274C65.665 167.274 64.853 167.96 64.853 169.136V173H63.173V165.65H64.853V166.742C65.175 166.056 65.931 165.608 66.869 165.608C67.065 165.608 67.219 165.622 67.345 165.636ZM71.2576 173.154C69.1576 173.154 67.6876 171.6 67.6876 169.332C67.6876 167.176 69.1436 165.51 71.1876 165.51C73.3156 165.51 74.4496 167.12 74.4496 169.136V169.696H69.2976C69.4236 170.956 70.1796 171.726 71.2576 171.726C72.0836 171.726 72.7416 171.306 72.9656 170.55L74.4076 171.096C73.8896 172.384 72.7276 173.154 71.2576 173.154ZM71.1736 166.924C70.3056 166.924 69.6336 167.442 69.3816 168.436H72.7556C72.7416 167.624 72.2376 166.924 71.1736 166.924ZM77.7928 173.126C76.3928 173.126 75.3148 172.272 75.3148 170.956C75.3148 169.556 76.3648 168.94 77.7788 168.646L79.8088 168.226V168.1C79.8088 167.4 79.4448 166.966 78.5488 166.966C77.7508 166.966 77.3308 167.33 77.1348 168.044L75.5528 167.68C75.9168 166.462 76.9948 165.51 78.6188 165.51C80.3828 165.51 81.4468 166.35 81.4468 168.044V171.208C81.4468 171.628 81.6288 171.754 82.0908 171.698V173C80.8728 173.14 80.2288 172.902 79.9768 172.3C79.5148 172.818 78.7448 173.126 77.7928 173.126ZM79.8088 170.41V169.514L78.2268 169.85C77.5128 170.004 76.9808 170.228 76.9808 170.886C76.9808 171.46 77.4008 171.782 78.0448 171.782C78.9408 171.782 79.8088 171.306 79.8088 170.41ZM82.5143 171.6L83.7743 170.592C84.2083 171.306 85.0483 171.782 85.9023 171.782C86.6163 171.782 87.2743 171.53 87.2743 170.872C87.2743 170.242 86.6583 170.172 85.4963 169.934C84.3343 169.696 83.0043 169.402 83.0043 167.834C83.0043 166.49 84.1803 165.51 85.8743 165.51C87.1623 165.51 88.3103 166.084 88.8423 166.896L87.7083 167.918C87.2883 167.26 86.5883 166.882 85.7763 166.882C85.0903 166.882 84.6423 167.19 84.6423 167.68C84.6423 168.212 85.1743 168.31 86.0983 168.506C87.3443 168.772 88.9123 169.038 88.9123 170.718C88.9123 172.202 87.5543 173.154 85.8883 173.154C84.5303 173.154 83.1723 172.608 82.5143 171.6ZM93.3103 173.154C91.2103 173.154 89.7403 171.6 89.7403 169.332C89.7403 167.176 91.1963 165.51 93.2403 165.51C95.3683 165.51 96.5023 167.12 96.5023 169.136V169.696H91.3503C91.4763 170.956 92.2323 171.726 93.3103 171.726C94.1363 171.726 94.7943 171.306 95.0183 170.55L96.4603 171.096C95.9423 172.384 94.7803 173.154 93.3103 173.154ZM93.2263 166.924C92.3583 166.924 91.6863 167.442 91.4343 168.436H94.8083C94.7943 167.624 94.2903 166.924 93.2263 166.924ZM102.51 162.948V173H100.718V162.948H102.51ZM104.339 173V165.65H106.019V166.434C106.439 165.944 107.097 165.51 108.049 165.51C109.589 165.51 110.513 166.574 110.513 168.156V173H108.833V168.646C108.833 167.736 108.469 167.078 107.545 167.078C106.789 167.078 106.019 167.638 106.019 168.688V173H104.339ZM40.3793 187.974C40.3793 190.144 41.5553 191.572 43.2073 191.572C44.3833 191.572 45.2373 190.858 45.5453 189.682L47.2253 190.256C46.6373 192.034 45.2373 193.154 43.2073 193.154C40.5333 193.154 38.5873 191.026 38.5873 187.974C38.5873 184.922 40.5333 182.794 43.2073 182.794C45.2373 182.794 46.6373 183.914 47.2253 185.692L45.5453 186.266C45.2373 185.09 44.3833 184.376 43.2073 184.376C41.5553 184.376 40.3793 185.804 40.3793 187.974ZM52.5452 185.636V187.316C52.3352 187.288 52.1672 187.274 51.9292 187.274C50.8652 187.274 50.0532 187.96 50.0532 189.136V193H48.3732V185.65H50.0532V186.742C50.3752 186.056 51.1312 185.608 52.0692 185.608C52.2652 185.608 52.4192 185.622 52.5452 185.636ZM56.4578 193.154C54.3578 193.154 52.8878 191.6 52.8878 189.332C52.8878 187.176 54.3438 185.51 56.3878 185.51C58.5158 185.51 59.6498 187.12 59.6498 189.136V189.696H54.4978C54.6238 190.956 55.3798 191.726 56.4578 191.726C57.2838 191.726 57.9418 191.306 58.1658 190.55L59.6078 191.096C59.0898 192.384 57.9278 193.154 56.4578 193.154ZM56.3738 186.924C55.5058 186.924 54.8338 187.442 54.5818 188.436H57.9558C57.9418 187.624 57.4378 186.924 56.3738 186.924ZM63.6823 193.154C61.6243 193.154 60.4483 191.418 60.4483 189.332C60.4483 187.246 61.6243 185.51 63.6823 185.51C64.6343 185.51 65.3343 185.888 65.7963 186.434V182.948H67.4763V193H65.7963V192.23C65.3343 192.776 64.6343 193.154 63.6823 193.154ZM65.8383 189.122C65.8383 187.736 65.0543 186.98 64.0183 186.98C62.8003 186.98 62.1423 187.932 62.1423 189.332C62.1423 190.732 62.8003 191.684 64.0183 191.684C65.0543 191.684 65.8383 190.914 65.8383 189.556V189.122ZM69.2085 184.67V182.948H70.9445V184.67H69.2085ZM70.9165 185.65V193H69.2365V185.65H70.9165ZM72.8358 191.152V187.078H71.8138V185.65H72.8358V183.494H74.4878V185.65H76.0278V187.078H74.4878V190.886C74.4878 191.544 74.8658 191.614 75.4678 191.614C75.7478 191.614 75.9018 191.6 76.1538 191.572V192.986C75.8458 193.042 75.4258 193.084 74.9918 193.084C73.5918 193.084 72.8358 192.65 72.8358 191.152ZM80.367 193V182.948H82.159V191.432H86.891V193H80.367ZM87.9526 184.67V182.948H89.6886V184.67H87.9526ZM89.6606 185.65V193H87.9806V185.65H89.6606ZM93.1059 188.688V193H91.4259V185.65H93.1059V186.434C93.5119 185.944 94.1419 185.51 95.1219 185.51C96.0039 185.51 96.6619 185.902 97.0679 186.532C97.5159 186.056 98.2159 185.51 99.3499 185.51C100.862 185.51 101.842 186.574 101.842 188.156V193H100.162V188.646C100.162 187.736 99.8259 187.078 98.9299 187.078C98.2159 187.078 97.4739 187.638 97.4739 188.688V193H95.7939V188.646C95.7939 187.736 95.4579 187.078 94.5619 187.078C93.8479 187.078 93.1059 187.638 93.1059 188.688ZM103.525 184.67V182.948H105.261V184.67H103.525ZM105.233 185.65V193H103.553V185.65H105.233ZM107.152 191.152V187.078H106.13V185.65H107.152V183.494H108.804V185.65H110.344V187.078H108.804V190.886C108.804 191.544 109.182 191.614 109.784 191.614C110.064 191.614 110.218 191.6 110.47 191.572V192.986C110.162 193.042 109.742 193.084 109.308 193.084C107.908 193.084 107.152 192.65 107.152 191.152Z" fill="#E2001A"/>
</svg>
