<svg width="60" height="19" viewBox="0 0 60 19" fill="none" xmlns="http://www.w3.org/2000/svg">
<path d="M2 4.0988L5.0988 1H12.1818V7.64028L7.75491 11.1818V4.98417L2 4.0988Z" fill="#FFC000" stroke="#FFC000"/>
<path d="M6.42686 6.61914L2 9.91675L2 16.9997L8.64028 16.9997L12.1818 12.5729L6.42686 13.0156L6.42686 6.61914Z" fill="black" stroke="black"/>
<path d="M25.9581 17H21.3175V3.90909H25.9964C27.3132 3.90909 28.4467 4.17116 29.397 4.69531C30.3473 5.2152 31.0781 5.96307 31.5895 6.93892C32.1051 7.91477 32.3629 9.08239 32.3629 10.4418C32.3629 11.8054 32.1051 12.9773 31.5895 13.9574C31.0781 14.9375 30.343 15.6896 29.3842 16.2138C28.4297 16.7379 27.2876 17 25.9581 17ZM24.0852 14.6286H25.843C26.6612 14.6286 27.3494 14.4837 27.9077 14.1939C28.4702 13.8999 28.892 13.446 29.1733 12.8324C29.4588 12.2145 29.6016 11.4176 29.6016 10.4418C29.6016 9.47443 29.4588 8.68395 29.1733 8.07031C28.892 7.45668 28.4723 7.00497 27.9141 6.7152C27.3558 6.42543 26.6676 6.28054 25.8494 6.28054H24.0852V14.6286ZM41.7791 3.90909H44.5469V12.4105C44.5469 13.3651 44.3189 14.2003 43.8629 14.9162C43.4112 15.6321 42.7784 16.1903 41.9645 16.5909C41.1506 16.9872 40.2024 17.1854 39.12 17.1854C38.0334 17.1854 37.0831 16.9872 36.2692 16.5909C35.4552 16.1903 34.8224 15.6321 34.3707 14.9162C33.919 14.2003 33.6932 13.3651 33.6932 12.4105V3.90909H36.4609V12.174C36.4609 12.6726 36.5696 13.1158 36.7869 13.5036C37.0085 13.8913 37.3196 14.196 37.7202 14.4176C38.1207 14.6392 38.5874 14.75 39.12 14.75C39.657 14.75 40.1236 14.6392 40.5199 14.4176C40.9204 14.196 41.2294 13.8913 41.4467 13.5036C41.6683 13.1158 41.7791 12.6726 41.7791 12.174V3.90909ZM58.1339 10.4545C58.1339 11.8821 57.8633 13.0966 57.3221 14.098C56.7851 15.0994 56.0522 15.8643 55.1232 16.3928C54.1985 16.9169 53.1587 17.179 52.0039 17.179C50.8405 17.179 49.7965 16.9148 48.8718 16.3864C47.9471 15.858 47.2162 15.093 46.6793 14.0916C46.1424 13.0902 45.8739 11.8778 45.8739 10.4545C45.8739 9.02699 46.1424 7.8125 46.6793 6.81108C47.2162 5.80966 47.9471 5.04687 48.8718 4.52273C49.7965 3.99432 50.8405 3.73011 52.0039 3.73011C53.1587 3.73011 54.1985 3.99432 55.1232 4.52273C56.0522 5.04687 56.7851 5.80966 57.3221 6.81108C57.8633 7.8125 58.1339 9.02699 58.1339 10.4545ZM55.3278 10.4545C55.3278 9.52983 55.1893 8.75 54.9123 8.11506C54.6395 7.48011 54.2539 6.99858 53.7553 6.67045C53.2567 6.34233 52.6729 6.17827 52.0039 6.17827C51.3349 6.17827 50.7511 6.34233 50.2525 6.67045C49.7539 6.99858 49.3661 7.48011 49.0891 8.11506C48.8164 8.75 48.68 9.52983 48.68 10.4545C48.68 11.3793 48.8164 12.1591 49.0891 12.794C49.3661 13.429 49.7539 13.9105 50.2525 14.2386C50.7511 14.5668 51.3349 14.7308 52.0039 14.7308C52.6729 14.7308 53.2567 14.5668 53.7553 14.2386C54.2539 13.9105 54.6395 13.429 54.9123 12.794C55.1893 12.1591 55.3278 11.3793 55.3278 10.4545Z" fill="black"/>
</svg>
