<svg width="48" height="48" viewBox="0 0 48 48" fill="none" xmlns="http://www.w3.org/2000/svg">
<g clip-path="url(#clip0_2369_1713)">
<path d="M24 47.5C36.9787 47.5 47.5 36.9787 47.5 24C47.5 11.0213 36.9787 0.5 24 0.5C11.0213 0.5 0.5 11.0213 0.5 24C0.5 36.9787 11.0213 47.5 24 47.5Z" stroke="#101010"/>
<path d="M20.8558 22.9957C21.0296 22.8427 21.0467 22.5779 20.8939 22.4038L20.8708 22.3774C20.8345 22.3361 20.7904 22.3024 20.741 22.2783C20.6917 22.2542 20.638 22.2401 20.5832 22.2368H20.5552C20.4535 22.2367 20.3552 22.2737 20.279 22.341L19.7168 22.8345L19.2049 23.2839C19.0315 23.4371 19.0145 23.7015 19.1669 23.8756L19.1904 23.9024C19.3435 24.0762 19.6083 24.0933 19.7824 23.9406L20.176 23.5953L20.8558 22.9957Z" fill="black"/>
<path d="M19.5058 24.143C19.4941 24.143 19.4827 24.143 19.471 24.142C19.4029 24.1378 19.3363 24.1201 19.2751 24.09C19.2138 24.0599 19.1592 24.0179 19.1142 23.9665L19.0905 23.9394C18.9021 23.7238 18.9232 23.3964 19.1377 23.2066L20.2123 22.263C20.316 22.1722 20.4514 22.1262 20.5889 22.1349C20.657 22.1391 20.7236 22.1568 20.7849 22.1869C20.8461 22.217 20.9008 22.259 20.9457 22.3104L20.9786 22.3487C21.1583 22.565 21.1332 22.8849 20.922 23.0705L19.8479 24.0141C19.7534 24.0975 19.6317 24.1434 19.5058 24.143ZM20.5546 22.3361C20.4772 22.3365 20.4025 22.365 20.3446 22.4164L19.2704 23.36C19.1387 23.4766 19.1259 23.6777 19.2417 23.8101L19.2654 23.8372C19.3819 23.9692 19.5832 23.982 19.7156 23.8659L20.7895 22.9223C20.9216 22.806 20.9346 22.6046 20.8184 22.4724L20.795 22.4453C20.7674 22.4138 20.7339 22.3881 20.6964 22.3697C20.6589 22.3512 20.6181 22.3404 20.5763 22.3379L20.5546 22.3361ZM22.3632 24.0446C22.2614 24.0445 22.1631 24.0815 22.0867 24.1486L21.5323 24.6353C21.3581 24.7882 21.3408 25.0533 21.4937 25.2275C21.6465 25.4017 21.9117 25.419 22.0859 25.2662L22.6402 24.7795C22.8144 24.6268 22.8319 24.3618 22.6792 24.1876C22.6398 24.1426 22.5912 24.1066 22.5366 24.0819C22.4821 24.0573 22.423 24.0446 22.3632 24.0446Z" fill="black"/>
<path d="M21.8105 25.4715C21.5235 25.472 21.2903 25.2396 21.2898 24.9526C21.2897 24.8784 21.3054 24.8051 21.336 24.7375C21.3666 24.6699 21.4112 24.6097 21.467 24.5608L22.0216 24.0741C22.2402 23.8931 22.5621 23.914 22.7554 24.1219C22.9448 24.3378 22.9235 24.6664 22.7076 24.8559L22.1533 25.3426C22.0586 25.4259 21.9367 25.4717 21.8105 25.4715ZM22.3643 24.1464C22.2868 24.1458 22.2117 24.1735 22.1532 24.2243L21.5987 24.711C21.4661 24.8274 21.4531 25.0292 21.5695 25.1618C21.6859 25.2944 21.8878 25.3074 22.0203 25.191L22.5749 24.7049C22.7074 24.5888 22.7206 24.3872 22.6045 24.2547C22.5745 24.2205 22.5375 24.1931 22.4961 24.1743C22.4546 24.1556 22.4096 24.1459 22.3641 24.146L22.3643 24.1464ZM17.4178 16.3524L16.2906 21.2697L17.1917 21.776L19.5235 17.983L17.4178 16.3524Z" fill="black"/>
<path d="M17.2261 21.9104L16.1754 21.3201L17.3541 16.1763L19.6554 17.9582L17.2261 21.9104ZM16.4047 21.2185L17.1562 21.6402L19.3904 18.0062L17.4798 16.5277L16.4047 21.2185ZM19.5518 22.4254C19.726 22.2725 19.7432 22.0073 19.5904 21.8331L19.5831 21.8249C19.5469 21.7834 19.5028 21.7495 19.4534 21.7252C19.404 21.7008 19.3502 21.6866 19.2953 21.6831H19.2673C19.1656 21.683 19.0673 21.7201 18.9911 21.7874L18.3179 22.3768C18.1437 22.5298 18.1265 22.7949 18.2793 22.9691C18.4291 23.1474 18.6951 23.1704 18.8734 23.0206L18.8788 23.0159L18.9298 22.9711L19.4422 22.5214L19.5518 22.4254Z" fill="black"/>
<path d="M18.6067 23.2195C18.5939 23.2195 18.5808 23.2195 18.5676 23.2181C18.4273 23.2073 18.297 23.1416 18.205 23.0352C18.0155 22.8194 18.0368 22.4909 18.2525 22.3014L18.9249 21.7113C19.1407 21.5221 19.469 21.5434 19.6586 21.7589C19.7058 21.8108 19.7421 21.8716 19.7654 21.9378C19.7886 22.004 19.7983 22.0742 19.7939 22.1442C19.7897 22.2123 19.772 22.279 19.7418 22.3403C19.7117 22.4015 19.6696 22.4562 19.6182 22.5011L18.946 23.0912C18.8524 23.174 18.7317 23.2197 18.6067 23.2195ZM19.2674 21.7828C19.19 21.7831 19.1153 21.8117 19.0574 21.8631L18.385 22.4532C18.2525 22.5695 18.2394 22.7712 18.3557 22.9037L18.3557 22.9037C18.4131 22.9705 18.4944 23.0119 18.5822 23.0189C18.6239 23.0222 18.6659 23.017 18.7056 23.0037C18.7453 22.9904 18.7819 22.9692 18.8133 22.9415L19.4855 22.3514C19.6179 22.235 19.631 22.0334 19.5148 21.9009C19.4869 21.8672 19.4524 21.8395 19.4136 21.8196C19.3747 21.7996 19.3321 21.7877 19.2885 21.7846L19.2674 21.7828ZM21.8972 23.5996C21.9009 23.5446 21.8937 23.4893 21.876 23.4371C21.8582 23.3849 21.8303 23.3367 21.7938 23.2954L21.7878 23.2886C21.7515 23.2474 21.7075 23.2137 21.6582 23.1896C21.6088 23.1655 21.5553 23.1514 21.5005 23.148H21.4726C21.3708 23.1479 21.2726 23.1849 21.1963 23.2523L21.1304 23.3101L20.4502 23.9072L20.2695 24.065C20.095 24.2229 20.0816 24.4923 20.2395 24.6667C20.3131 24.7482 20.4154 24.798 20.5249 24.8058C20.5799 24.8097 20.6352 24.8025 20.6874 24.7847C20.7396 24.767 20.7878 24.739 20.8291 24.7024L21.7552 23.8895C21.797 23.853 21.831 23.8086 21.8554 23.7588C21.8798 23.7091 21.894 23.6549 21.8972 23.5996Z" fill="black"/>
<path d="M20.5532 24.9062C20.5417 24.9062 20.5305 24.9062 20.5191 24.9051C20.2299 24.8872 20.01 24.6383 20.0279 24.3491C20.0365 24.2104 20.0998 24.0807 20.2039 23.9886L21.1292 23.1747C21.2331 23.0842 21.3684 23.0382 21.5059 23.0466C21.5739 23.0507 21.6404 23.0684 21.7016 23.0984C21.7628 23.1285 21.8174 23.1703 21.8623 23.2216C21.9094 23.2734 21.9456 23.3342 21.9688 23.4003C21.992 23.4664 22.0016 23.5364 21.9972 23.6063C21.9929 23.6743 21.9752 23.7408 21.9451 23.8019C21.915 23.863 21.8731 23.9176 21.8219 23.9625L20.8957 24.7754C20.8014 24.8594 20.6795 24.9059 20.5532 24.9062ZM21.1957 23.3841L20.3361 24.1386C20.2036 24.2548 20.1901 24.4564 20.306 24.5893C20.334 24.6225 20.3683 24.6498 20.4069 24.6695C20.4456 24.6892 20.4878 24.7009 20.5311 24.704C20.5731 24.7069 20.6153 24.7015 20.6551 24.6879C20.695 24.6744 20.7317 24.653 20.7632 24.6251L21.6894 23.8121C21.8219 23.696 21.8351 23.4944 21.719 23.3619L21.7187 23.3616C21.6909 23.3282 21.6566 23.3008 21.6178 23.2811C21.5791 23.2613 21.5368 23.2496 21.4934 23.2467H21.4722C21.3946 23.2467 21.3199 23.2753 21.2621 23.327L21.1957 23.3841Z" fill="black"/>
<path d="M27.4465 22.2589L24.1791 19.5964C22.9279 20.2608 22.0419 19.9189 21.6183 19.6485C21.3974 19.5044 21.3353 19.2085 21.4793 18.9877C21.5241 18.9191 21.5858 18.8632 21.6584 18.8253L22.7474 18.2469C22.7207 18.2428 22.694 18.2394 22.6671 18.2366C21.6844 18.3919 20.6919 18.4774 19.6971 18.4924L17.7933 21.5887L18.2178 21.9122L18.7167 21.4741C19.0631 21.17 19.5904 21.2043 19.8945 21.5507L19.8946 21.5508L19.9018 21.559C20.0017 21.6735 20.0681 21.8133 20.0938 21.963C20.2451 21.8598 20.4266 21.8103 20.6094 21.8225C20.7188 21.8293 20.8258 21.8577 20.9242 21.9062C21.0225 21.9546 21.1103 22.0221 21.1824 22.1047L21.2059 22.1316C21.2783 22.2138 21.3338 22.3095 21.3691 22.4132C21.4043 22.517 21.4187 22.6267 21.4112 22.736V22.7372C21.4495 22.7333 21.4879 22.732 21.5263 22.7334C21.6357 22.7402 21.7427 22.7687 21.8411 22.8171C21.9394 22.8656 22.0272 22.933 22.0993 23.0156L21.9493 23.1594L22.1053 23.0225C22.1779 23.1047 22.2334 23.2004 22.2688 23.3042C22.3041 23.408 22.3185 23.5178 22.3111 23.6272C22.3111 23.63 22.3099 23.6326 22.3097 23.6354C22.7668 23.6029 23.1638 23.9471 23.1963 24.4042C23.199 24.4424 23.1991 24.4807 23.1965 24.5188C23.1862 24.6624 23.1386 24.8008 23.0584 24.9204L23.9536 25.437C24.1499 25.5483 24.3991 25.4822 24.5146 25.2884C24.6241 25.1034 24.5707 24.8651 24.3927 24.7445L22.9672 23.7567C22.966 23.7567 22.9654 23.7545 22.9644 23.7537L22.8684 23.6872C22.8463 23.6713 22.8275 23.6512 22.8131 23.628C22.7987 23.6049 22.7891 23.5791 22.7847 23.5522C22.7803 23.5253 22.7812 23.4978 22.7874 23.4712C22.7937 23.4447 22.805 23.4196 22.821 23.3975C22.8523 23.3538 22.8995 23.324 22.9524 23.3144C23.0054 23.3047 23.06 23.316 23.1047 23.3459L25.1153 24.7387C25.3007 24.8672 25.5553 24.8211 25.6838 24.6356L25.6841 24.6353C25.8103 24.4509 25.7656 24.1994 25.5837 24.0697L23.583 22.6506C23.5818 22.6506 23.5814 22.6484 23.5802 22.6476C23.5362 22.6153 23.5068 22.567 23.4981 22.5131C23.4895 22.4593 23.5024 22.4042 23.534 22.3598C23.5657 22.3153 23.6135 22.2851 23.6672 22.2756C23.7209 22.2661 23.7762 22.2782 23.8211 22.3091L26.0641 23.9004C26.2603 24.0389 26.5317 23.9922 26.6702 23.796C26.8043 23.6061 26.7653 23.3443 26.5817 23.2017L24.1682 21.4626C24.0728 21.399 24.0471 21.2701 24.1107 21.1747C24.1265 21.1512 24.1469 21.131 24.1707 21.1156C24.1945 21.1002 24.2212 21.0899 24.2491 21.0852C24.2771 21.0805 24.3057 21.0816 24.3332 21.0884C24.3608 21.0952 24.3866 21.1076 24.4092 21.1248L24.5742 21.2424H24.5764L26.8132 22.854C26.8174 22.857 26.8204 22.8609 26.8244 22.8639L26.8614 22.8904C26.8684 22.8952 26.8751 22.9005 26.8814 22.9062L26.9216 22.9337C27.1085 23.0677 27.3677 23.0319 27.5113 22.8522C27.5536 22.7988 27.5824 22.7359 27.5954 22.669C27.6084 22.602 27.6051 22.5329 27.5858 22.4675C27.5619 22.3853 27.5133 22.3125 27.4465 22.2589Z" fill="black"/>
<path d="M24.1564 25.5922C24.0677 25.5922 23.9805 25.5689 23.9037 25.5245L22.9153 24.9545L22.9755 24.8662C23.1986 24.5296 23.1066 24.0759 22.77 23.8527C22.6632 23.7819 22.5397 23.7405 22.4119 23.7324C22.387 23.7312 22.362 23.7319 22.3372 23.7344L22.2025 23.7429L22.2103 23.6286C22.223 23.4664 22.1813 23.3046 22.0918 23.1686L22.0166 23.2349L21.8808 23.0872L21.9571 23.0141C21.8357 22.9071 21.6822 22.8435 21.5207 22.8334C21.4914 22.8324 21.4621 22.8334 21.4329 22.8362L21.3251 22.8442L21.3116 22.7254V22.7211C21.3222 22.5298 21.2573 22.3419 21.1309 22.1977L21.1072 22.1706C20.8655 21.8932 20.4547 21.8401 20.1503 22.047L20.0225 22.1329L19.9956 21.9811C19.9274 21.5798 19.5467 21.3098 19.1454 21.378C19.0112 21.4008 18.8859 21.4604 18.7835 21.55L18.2227 22.0423L17.6595 21.6137L19.6394 18.3933L19.6934 18.3916C20.6828 18.3765 21.6699 18.2917 22.6474 18.1377L22.6614 18.1348L22.6757 18.1361C22.7022 18.1385 22.7315 18.1425 22.7618 18.1469L23.063 18.1921L21.7049 18.9133C21.5199 19.0088 21.4475 19.2363 21.543 19.4213C21.573 19.4793 21.6175 19.5285 21.6722 19.5642C22.0707 19.8185 22.9212 20.15 24.1315 19.5078L24.1903 19.4764L27.5091 22.1807C27.5915 22.2476 27.6513 22.3382 27.6804 22.4402C27.7043 22.5209 27.7084 22.6061 27.6925 22.6887C27.6765 22.7713 27.641 22.8489 27.5888 22.9149C27.4115 23.1365 27.0917 23.1806 26.861 23.0152L26.7484 22.9311L24.3503 21.2045C24.3273 21.188 24.2987 21.1813 24.2707 21.1858C24.2428 21.1904 24.2178 21.2059 24.2013 21.229L24.201 21.2294C24.1844 21.2525 24.1777 21.2812 24.1823 21.3092C24.1869 21.3372 24.2025 21.3622 24.2255 21.3787L24.2259 21.379L26.6398 23.1195C26.8738 23.3001 26.9171 23.6362 26.7364 23.8703C26.5616 24.0968 26.2396 24.1457 26.0053 23.9814L23.7617 22.3909C23.7502 22.3827 23.7371 22.3769 23.7233 22.3738C23.7096 22.3706 23.6953 22.3702 23.6814 22.3726C23.6605 22.3762 23.6411 22.3858 23.6256 22.4004C23.6102 22.415 23.5995 22.4338 23.5948 22.4545C23.59 22.4751 23.5915 22.4967 23.5991 22.5166C23.6066 22.5364 23.6199 22.5535 23.6372 22.5658L25.6413 23.9883C25.8678 24.1501 25.923 24.4633 25.7656 24.6928C25.6058 24.924 25.2888 24.9819 25.0575 24.8221L25.0573 24.8219L23.0471 23.4289C23.0356 23.4204 23.0224 23.4142 23.0085 23.4109C22.9945 23.4075 22.98 23.407 22.9658 23.4093C22.9516 23.4117 22.9381 23.4169 22.926 23.4246C22.9138 23.4323 22.9034 23.4423 22.8952 23.4541C22.887 23.466 22.8813 23.4793 22.8784 23.4934C22.8755 23.5074 22.8754 23.522 22.8782 23.5361C22.881 23.5501 22.8867 23.5635 22.8947 23.5754C22.9028 23.5873 22.9132 23.5974 22.9253 23.6052L24.45 24.6625C24.6818 24.8212 24.7411 25.1378 24.5823 25.3697C24.514 25.4696 24.4122 25.5418 24.2954 25.5734C24.2501 25.5858 24.2034 25.5922 24.1564 25.5922ZM23.1964 24.8845L24.0041 25.3506C24.1546 25.4321 24.3428 25.3761 24.4242 25.2255C24.4598 25.1598 24.4704 25.0835 24.4542 25.0105C24.4379 24.9376 24.3958 24.873 24.3357 24.8286L23.1963 24.038C23.2735 24.1882 23.3082 24.3567 23.2967 24.5252C23.2886 24.6507 23.2544 24.773 23.1964 24.8845ZM22.9872 23.2094C23.0496 23.2093 23.1105 23.2283 23.1618 23.2638L25.172 24.6566C25.312 24.7534 25.5039 24.7184 25.6008 24.5785C25.6961 24.4395 25.6625 24.2498 25.5253 24.1518L23.5104 22.7211C23.4476 22.6714 23.4067 22.5992 23.3963 22.5198C23.3859 22.4404 23.4068 22.3601 23.4546 22.2959C23.5024 22.2317 23.5733 22.1886 23.6524 22.1758C23.7314 22.1629 23.8123 22.1814 23.878 22.2272L26.1216 23.8186C26.2731 23.9243 26.4816 23.8872 26.5874 23.7357C26.6363 23.6657 26.6565 23.5796 26.6439 23.4951C26.6314 23.4106 26.5869 23.3341 26.5198 23.2813L24.1089 21.544C23.9706 21.4451 23.9386 21.2528 24.0375 21.1145C24.1364 20.9761 24.3288 20.9442 24.4671 21.0431L24.6345 21.1618L26.9193 22.8099C26.9296 22.8173 26.9394 22.8254 26.9487 22.834L26.977 22.8525C27.12 22.9561 27.3191 22.9297 27.4301 22.7923C27.4626 22.7514 27.4848 22.7032 27.4948 22.6519C27.5048 22.6006 27.5023 22.5477 27.4875 22.4976C27.4701 22.4345 27.4335 22.3784 27.3829 22.3369L24.1663 19.716C22.8976 20.3645 21.9932 20.0076 21.5637 19.7331C21.296 19.5594 21.2198 19.2016 21.3934 18.9339C21.4478 18.85 21.523 18.7818 21.6117 18.7357L22.2273 18.4088C21.6013 18.4937 20.7466 18.557 19.7541 18.5895L17.9271 21.5629L18.2144 21.7815L18.6519 21.3976C19.0398 21.057 19.6305 21.0954 19.9711 21.4833L19.9713 21.4836C20.0553 21.5785 20.1193 21.6893 20.1597 21.8094C20.3018 21.7403 20.4596 21.7097 20.6172 21.7205C20.7399 21.7281 20.8599 21.76 20.9702 21.8143C21.0805 21.8686 21.1789 21.9443 21.2597 22.0369L21.2834 22.064C21.4223 22.2214 21.5036 22.4212 21.5141 22.6308H21.5342C21.7504 22.6449 21.9549 22.7342 22.1122 22.8832L22.1154 22.8803L22.1698 22.9426L22.1756 22.949L22.2389 23.0211L22.236 23.0239C22.3438 23.1717 22.4053 23.3481 22.4129 23.5309H22.4252C22.5144 23.5367 22.6023 23.5552 22.6862 23.5859C22.6476 23.4206 22.7503 23.2553 22.9156 23.2167C22.9391 23.2112 22.9632 23.2085 22.9873 23.2086L22.9872 23.2094ZM29.2167 16.2771L27.1114 17.9078L29.0589 21.0754C29.0718 21.082 29.0838 21.0901 29.0949 21.0993C29.1283 21.1337 29.1485 21.1788 29.1519 21.2266L29.4437 21.701L30.3439 21.1945L29.2167 16.2771Z" fill="black"/>
<path d="M29.4086 21.8356L29.0543 21.259L29.0521 21.2357C29.0508 21.2111 29.0408 21.1878 29.024 21.1699L28.9854 21.147L28.9736 21.1269L26.9789 17.8834L29.2805 16.1013L30.4595 21.2451L29.4086 21.8356ZM29.248 21.1919L29.4781 21.566L30.2296 21.1444L29.1548 16.4525L27.2445 17.9318L29.1318 21.0014C29.1442 21.0089 29.1557 21.0178 29.1661 21.0279C29.2101 21.0726 29.239 21.13 29.2486 21.192L29.248 21.1919ZM26.5715 18.47C26.1631 18.6382 25.7081 18.6547 25.2886 18.5166L24.1833 18.1578C24.1077 18.1339 24.0281 18.1251 23.949 18.132C23.87 18.1389 23.7931 18.1613 23.7227 18.198L23.3481 18.397C23.3441 18.399 23.3407 18.4014 23.3365 18.4032L21.8519 19.1919C21.8416 19.1968 21.8328 19.2046 21.8265 19.2142C21.8202 19.2238 21.8166 19.235 21.8162 19.2465C21.8154 19.2569 21.8175 19.2673 21.8222 19.2766C21.8269 19.2859 21.8341 19.2938 21.8429 19.2993C22.2796 19.5779 23.0275 19.7811 24.0982 19.1668C24.1346 19.1459 24.1765 19.1365 24.2184 19.14C24.2602 19.1434 24.3001 19.1593 24.3327 19.1858L27.7073 21.9364C27.7543 21.975 27.7967 22.0189 27.8338 22.0671L28.6682 21.2321L26.8899 18.3398L26.5715 18.47Z" fill="black"/>
<path d="M27.825 22.2174L27.7551 22.1288C27.7228 22.0866 27.6858 22.0482 27.6447 22.0144L24.2693 19.2646C24.2525 19.2512 24.232 19.2431 24.2105 19.2413C24.1891 19.2396 24.1676 19.2442 24.1488 19.2548C23.0343 19.8948 22.2507 19.6788 21.7895 19.3849C21.7657 19.3698 21.7463 19.3487 21.7335 19.3236C21.7207 19.2985 21.7148 19.2704 21.7166 19.2423C21.7178 19.2134 21.7267 19.1853 21.7424 19.1609C21.7581 19.1365 21.7801 19.1168 21.806 19.1038L23.6762 18.1106C23.7583 18.0675 23.8482 18.0412 23.9407 18.033C24.0331 18.0249 24.1262 18.0352 24.2146 18.0632L25.3195 18.4214C25.7163 18.5521 26.1468 18.5366 26.5332 18.3776L26.9313 18.2146L28.7957 21.2463L27.825 22.2174ZM24.2008 19.0395C24.2717 19.0394 24.3405 19.0636 24.3957 19.1082L27.7705 21.8588C27.7943 21.878 27.8169 21.8985 27.8382 21.9204L28.5409 21.2177L26.849 18.4649L26.6096 18.5629C26.1791 18.7401 25.6993 18.7575 25.257 18.6119L24.1528 18.2533C24.0898 18.2335 24.0235 18.2264 23.9578 18.2322C23.8921 18.2381 23.8281 18.2568 23.7697 18.2874L21.9561 19.2512C22.3763 19.4953 23.0676 19.6441 24.0487 19.0805C24.095 19.0539 24.1474 19.0398 24.2008 19.0395Z" fill="black"/>
<path fill-rule="evenodd" clip-rule="evenodd" d="M15.3048 12.2004C14.4764 12.2004 13.8048 12.872 13.8048 13.7004V35.3126C13.8048 36.1411 14.4764 36.8126 15.3048 36.8126H30.3421C29.7921 36.5754 29.2977 36.2337 28.8839 35.8126H15.3048C15.0287 35.8126 14.8048 35.5888 14.8048 35.3126V13.7004C14.8048 13.4243 15.0287 13.2004 15.3048 13.2004H20.4265V12.2004H15.3048ZM31.8297 28.0152C31.9385 28.0075 32.0482 28.0036 32.1589 28.0036C32.3868 28.0036 32.6108 28.0202 32.8297 28.0523V13.7004C32.8297 12.872 32.1582 12.2004 31.3297 12.2004H26.3781V13.2004H31.3297C31.6059 13.2004 31.8297 13.4243 31.8297 13.7004V28.0152Z" fill="black"/>
<rect x="20.7666" y="11" width="5.2869" height="2" rx="0.5" fill="black"/>
<path d="M16.0051 28.0036H26.7181" stroke="black" stroke-linecap="round"/>
<path d="M16.0051 30.7861H26.1615" stroke="black" stroke-linecap="round"/>
<path d="M16.0051 33.5685H25.8833" stroke="black" stroke-linecap="round"/>
<path d="M36.25 32.5949C36.25 34.8544 34.4183 36.6861 32.1588 36.6861C29.8992 36.6861 28.0675 34.8544 28.0675 32.5949C28.0675 30.3353 29.8992 28.5036 32.1588 28.5036C34.4183 28.5036 36.25 30.3353 36.25 32.5949Z" fill="white" stroke="black"/>
<ellipse cx="32.1956" cy="31.1254" rx="1.65285" ry="1.65285" fill="#FFC000"/>
<path d="M30.9414 32.9908C31.8391 33.0887 32.4342 33.0959 33.2729 33.0045C33.5026 32.9795 33.7368 33.0265 33.9278 33.1565C34.1378 33.2995 34.3032 33.4303 34.4418 33.5691C34.7822 33.9096 34.6386 34.4655 34.2299 34.7199C32.6942 35.6755 31.4721 35.6649 30.0034 34.6878C29.6361 34.4435 29.4842 33.9439 29.7529 33.594C29.9272 33.3671 30.1426 33.2081 30.4567 33.0617C30.6073 32.9915 30.7763 32.9728 30.9414 32.9908Z" fill="#FFC000" stroke="#FFC000"/>
</g>
<defs>
<clipPath id="clip0_2369_1713">
<rect width="48" height="48" fill="white"/>
</clipPath>
</defs>
</svg>
