<svg width="25" height="25" viewBox="0 0 25 25" fill="none" xmlns="http://www.w3.org/2000/svg">
<path fill-rule="evenodd" clip-rule="evenodd" d="M8.6875 9.15163C8.6875 2.92204 13.3984 0 16.844 0C21.9434 0 25.0005 4.66949 25.0005 9.15163C25.0005 12.0655 23.2183 17.8113 17.5814 18.2736V17.5605C18.7449 17.0834 19.7286 15.4954 20.2896 13.3239C19.309 12.7666 18.2292 12.4497 17.1141 12.4054C16.9664 12.1281 16.787 11.8702 16.5807 11.6366V9.44707H12.9006C12.9053 9.72953 12.9162 10.0084 12.9331 10.2832H12.4086C12.392 10.0082 12.3815 9.7293 12.3772 9.44707H9.22056C9.22911 9.72797 9.24982 10.007 9.28241 10.2832H8.74202C8.70615 9.91834 8.6875 9.54114 8.6875 9.15163ZM12.9392 4.69471C13.3951 3.02292 14.1016 1.6754 14.9526 0.861118C13.5782 1.25745 12.3194 2.07893 11.3239 3.24991C11.8056 3.81558 12.3483 4.30198 12.9392 4.69471ZM12.7946 5.282C12.1267 4.85685 11.5134 4.32 10.9739 3.68947C9.89492 5.14509 9.27836 6.9574 9.22056 8.85618H12.3772C12.3965 7.58432 12.5442 6.37371 12.7946 5.282ZM12.9006 8.85618H16.5807V6.4854C15.4214 6.44217 14.2911 6.1215 13.2635 5.55943C13.0483 6.56827 12.9199 7.6816 12.9006 8.85618ZM13.3984 4.97935C14.381 5.53781 15.4632 5.85488 16.5807 5.89811V0.61251C15.2127 0.807073 14.0342 2.5185 13.3984 4.97935ZM24.4674 8.85618C24.4096 6.9574 23.7931 5.14509 22.7141 3.68947C22.1746 4.32 21.5613 4.85324 20.8966 5.282C21.147 6.37371 21.2947 7.58072 21.314 8.85618H24.4674ZM20.7488 4.69111C21.3397 4.29838 21.8824 3.81198 22.3641 3.24631C21.3686 2.07893 20.1098 1.25745 18.7354 0.857515C19.5864 1.6754 20.2928 3.02292 20.7488 4.69111ZM20.2896 4.97935C19.6538 2.5221 18.4753 0.807073 17.1073 0.61251V5.89811C18.2248 5.85128 19.307 5.53781 20.2896 4.97935ZM20.4245 5.55943C19.4001 6.1215 18.2698 6.44217 17.1073 6.4854V8.85618H20.7874C20.7681 7.6816 20.6397 6.56827 20.4245 5.55943ZM20.7874 9.44707H17.1073V11.8178C18.2593 11.8571 19.3904 12.1729 20.4245 12.7438C20.6397 11.735 20.7681 10.6217 20.7874 9.44707ZM20.7488 13.6085C20.2928 15.2803 19.5864 16.6279 18.7354 17.4421C20.1098 17.0458 21.3686 16.2243 22.3641 15.0533C21.8824 14.4877 21.3397 14.0013 20.7488 13.6085ZM20.8966 13.0213C21.5613 13.45 22.1746 13.9833 22.7141 14.6138C23.7931 13.1582 24.4096 11.3459 24.4674 9.44707H21.314C21.2947 10.7189 21.147 11.9295 20.8966 13.0213Z" fill="black"/>
<path d="M14.9702 10.1855H4.27344C2.89273 10.1855 1.77344 11.3048 1.77344 12.6855V20.8912H17.4702V12.6855C17.4702 11.3048 16.3509 10.1855 14.9702 10.1855Z" stroke="black" stroke-linecap="square"/>
<path d="M7.46364 20.8906H12.2344V20.8906C12.2344 21.8443 11.4613 22.6173 10.5077 22.6173H9.19036C8.23672 22.6173 7.46364 21.8443 7.46364 20.8906V20.8906ZM18.3442 20.8906H1.2C1.08954 20.8906 1 20.9802 1 21.0906V21.9987C1 23.1033 1.89543 23.9987 3 23.9987H16.5442C17.6487 23.9987 18.5442 23.1033 18.5442 21.9987V21.0906C18.5442 20.9802 18.4546 20.8906 18.3442 20.8906Z" stroke="black" stroke-linecap="square"/>
<path d="M15.4581 11.5664H3.8125C3.53636 11.5664 3.3125 11.7903 3.3125 12.0664V19.182C3.3125 19.4581 3.53636 19.682 3.8125 19.682H15.4581C15.7342 19.682 15.9581 19.4581 15.9581 19.182V12.0664C15.9581 11.7903 15.7342 11.5664 15.4581 11.5664Z" stroke="black" stroke-linecap="square"/>
</svg>
