<svg width="19" height="19" viewBox="0 0 19 19" fill="none" xmlns="http://www.w3.org/2000/svg">
<path fill-rule="evenodd" clip-rule="evenodd" d="M6.76562 6.86405C6.76562 2.19163 10.2989 0 12.8833 0C16.708 0 19.001 3.50229 19.001 6.86405C19.001 9.04961 17.6642 13.3593 13.4361 13.7059V13.1711C14.3089 12.8134 15.0468 11.6223 15.4676 9.99341C14.7306 9.57454 13.919 9.33673 13.0808 9.3043V10.0623C12.9714 9.82116 12.8388 9.59276 12.6858 9.38V9.3043C12.6678 9.30505 12.6499 9.3059 12.6319 9.30684C12.5222 9.16139 12.4029 9.02367 12.2748 8.89463C12.411 8.87924 12.5481 8.86893 12.6858 8.86381V7.08564H9.92562C9.92928 7.3088 9.93819 7.52901 9.95209 7.74575C9.82213 7.72901 9.69022 7.71851 9.55667 7.71455C9.54418 7.5077 9.53623 7.29794 9.53303 7.08564H7.16544C7.17185 7.29632 7.18739 7.50559 7.21183 7.71277H6.80652C6.77961 7.43911 6.76562 7.15619 6.76562 6.86405ZM9.95452 3.5212C10.2965 2.2673 10.8264 1.25661 11.4647 0.645869C10.4338 0.943131 9.48967 1.55927 8.74303 2.43755C9.10431 2.86182 9.51135 3.22664 9.95452 3.5212ZM9.84613 3.96169C9.34516 3.64281 8.88513 3.24016 8.4805 2.76724C7.67123 3.859 7.20879 5.2183 7.16544 6.64245H9.53303C9.54748 5.68851 9.65827 4.78051 9.84613 3.96169ZM9.92562 6.64245H12.6858V4.86429C11.8163 4.83186 10.9685 4.59135 10.1978 4.16977C10.0364 4.92644 9.94007 5.76148 9.92562 6.64245ZM10.2989 3.73469C11.0359 4.15356 11.8476 4.39137 12.6858 4.4238V0.459405C11.6598 0.605333 10.7758 1.88896 10.2989 3.73469ZM18.6011 6.64245C18.5578 5.2183 18.0953 3.859 17.2861 2.76724C16.8814 3.24016 16.4214 3.64011 15.9229 3.96169C16.1107 4.78051 16.2215 5.68581 16.236 6.64245H18.6011ZM15.8121 3.5185C16.2552 3.22394 16.6623 2.85912 17.0236 2.43485C16.2769 1.55927 15.3328 0.943131 14.3019 0.643167C14.9402 1.25661 15.47 2.2673 15.8121 3.5185ZM15.4676 3.73469C14.9908 1.89167 14.1068 0.605333 13.0808 0.459405V4.4238C13.919 4.38867 14.7306 4.15356 15.4676 3.73469ZM15.5688 4.16977C14.8005 4.59135 13.9527 4.83186 13.0808 4.86429V6.64245H15.841C15.8265 5.76148 15.7302 4.92644 15.5688 4.16977ZM15.841 7.08564H13.0808V8.86381C13.9448 8.89327 14.7932 9.13009 15.5688 9.55832C15.7302 8.80166 15.8265 7.96662 15.841 7.08564ZM15.8121 10.2069C15.47 11.4608 14.9402 12.4715 14.3019 13.0822C15.3328 12.785 16.2769 12.1688 17.0236 11.2905C16.6623 10.8663 16.2552 10.5015 15.8121 10.2069ZM15.9229 9.76641C16.4214 10.088 16.8814 10.4879 17.2861 10.9609C18.0953 9.8691 18.5578 8.5098 18.6011 7.08564H16.236C16.2215 8.03958 16.1107 8.94758 15.9229 9.76641Z" fill="#333333"/>
<path d="M10.8512 7.63965H4.07813C2.69741 7.63965 1.57812 8.75894 1.57812 10.1396V15.6693H13.3512V10.1396C13.3512 8.75894 12.2319 7.63965 10.8512 7.63965Z" stroke="#333333" stroke-width="0.5" stroke-linecap="square"/>
<path d="M5.84796 15.6689H9.42622V15.6689C9.42622 16.3842 8.84638 16.964 8.13111 16.964H7.14306C6.4278 16.964 5.84796 16.3842 5.84796 15.6689V15.6689ZM13.9587 15.6689H1.2C1.08954 15.6689 1 15.7585 1 15.8689V16.0001C1 17.1047 1.89543 18.0001 3 18.0001H12.1587C13.2633 18.0001 14.1587 17.1047 14.1587 16.0001V15.8689C14.1587 15.7585 14.0692 15.6689 13.9587 15.6689Z" stroke="#333333" stroke-width="0.5" stroke-linecap="square"/>
<path d="M11.719 8.6748H3.23438C2.95823 8.6748 2.73438 8.89866 2.73438 9.1748V14.2618C2.73438 14.5379 2.95823 14.7618 3.23438 14.7618H11.719C11.9951 14.7618 12.219 14.5379 12.219 14.2618V9.1748C12.219 8.89866 11.9951 8.6748 11.719 8.6748Z" stroke="#333333" stroke-width="0.5" stroke-linecap="square"/>
</svg>
