<svg width="20" height="25" viewBox="0 0 20 25" fill="none" xmlns="http://www.w3.org/2000/svg">
<path d="M8.86092 9.73562C7.50412 8.70445 9.14005 4.22099 9.70696 2.79247C9.77235 2.62772 9.99595 2.62955 10.0585 2.79541C10.5985 4.228 12.147 8.71053 10.7982 9.73562C10.1102 10.2585 9.54889 10.2585 8.86092 9.73562Z" stroke="black" stroke-linecap="square"/>
<path d="M2.17188 22.2944H5.67188" stroke="black" stroke-linecap="square"/>
<path d="M8.00521 22.2952H11.3385M18.6719 10.1268C18.6719 -2.21069 1.17188 -1.87268 1.17188 10.1268H4.17188" stroke="black" stroke-linecap="square"/>
<path fill-rule="evenodd" clip-rule="evenodd" d="M10.7675 4.89129C12.8809 5.29451 14.8364 7.02903 15.1745 10.1834L15.2224 10.6301H15.6717H18.6717H19.1717V9.6301H18.6717H16.1101C15.5531 6.07105 13.0678 4.10659 10.4367 3.83263C10.5446 4.15517 10.6584 4.51387 10.7675 4.89129ZM9.33277 3.81689C6.53093 4.0289 3.92572 6.1641 3.67272 10.098L3.64062 10.597L4.63856 10.6612L4.67065 10.1622C4.87785 6.94066 6.83557 5.2088 8.9852 4.86391C9.10047 4.49038 9.21986 4.1357 9.33277 3.81689Z" fill="black"/>
<rect x="0.5" y="11.9795" width="19" height="12.5204" rx="2.5" stroke="black"/>
<rect x="2.5" y="14.3452" width="3.33333" height="2.3801" rx="1.19005" stroke="black"/>
<rect x="2" y="18.915" width="0.666667" height="1.69005" rx="0.333333" fill="black"/>
<rect x="3.67188" y="18.915" width="0.666667" height="1.69005" rx="0.333333" fill="black"/>
<rect x="5.16406" y="18.915" width="0.666667" height="1.69005" rx="0.333333" fill="black"/>
<rect x="7.32812" y="18.915" width="0.666667" height="1.69005" rx="0.333333" fill="black"/>
<rect x="9.16406" y="18.915" width="0.666667" height="1.69005" rx="0.333333" fill="black"/>
<rect x="10.6719" y="18.915" width="0.666667" height="1.69005" rx="0.333333" fill="black"/>
<rect x="13.0078" y="18.915" width="0.666667" height="1.69005" rx="0.333333" fill="black"/>
<rect x="14.6719" y="18.915" width="0.666667" height="1.69005" rx="0.333333" fill="black"/>
<rect x="16.3281" y="18.915" width="0.666667" height="1.69005" rx="0.333333" fill="black"/>
<path d="M4.67188 2.69043L6.67188 5.22551" stroke="black" stroke-linecap="square"/>
<path d="M14.8411 2.521L13.0078 5.22508" stroke="black" stroke-linecap="square"/>
</svg>
