<svg width="26" height="30" viewBox="0 0 26 30" fill="none" xmlns="http://www.w3.org/2000/svg">
<path d="M20.4988 3.7207H20.4292H20.3595H20.2899H20.2202H20.1506L16.7377 5.18337C16.5287 5.25302 16.3894 5.39232 16.3198 5.60127C16.2501 5.81022 16.2501 5.94952 16.3894 6.15848C16.5984 6.50673 17.0859 6.64603 17.5038 6.50673L18.9665 5.87987C17.5735 8.31765 14.9964 10.8947 11.7228 12.9146C9.2154 14.5166 6.42937 15.7006 3.78264 16.3275C3.57369 16.3971 3.36474 16.4668 3.29509 16.6757C3.15579 16.815 3.15579 17.024 3.22544 17.2329C3.36474 17.5812 3.78264 17.8598 4.2702 17.7205C7.12588 17.024 10.0512 15.7703 12.7676 14.0987C16.1805 11.9395 18.8968 9.29276 20.4988 6.64603L20.8471 7.76044C20.9167 7.96939 21.056 8.1087 21.265 8.17835C21.4739 8.248 21.6829 8.31765 21.8918 8.248C22.3097 8.1087 22.5883 7.76044 22.449 7.34254L21.4043 4.27791C21.3346 4.06896 21.1953 3.86 20.9167 3.7207H20.8471C20.6381 3.7207 20.6381 3.7207 20.4988 3.7207Z" fill="#2C007D"/>
<path d="M24.9605 12.8477H22.0352V29.2156H24.9605V12.8477Z" stroke="#2C007D" stroke-miterlimit="107.69"/>
<path d="M19.1089 14.9375H16.1836V29.1462H19.1089V14.9375Z" stroke="#2C007D" stroke-miterlimit="107.69"/>
<path d="M13.3316 17.5137H10.4062V29.215H13.3316V17.5137Z" stroke="#2C007D" stroke-miterlimit="107.69"/>
<path d="M7.47611 20.3008H4.55078V29.1464H7.47611V20.3008Z" stroke="#2C007D" stroke-miterlimit="107.69"/>
<path d="M6.3631 11.941C9.32506 11.941 11.7262 9.53991 11.7262 6.57795C11.7262 3.61599 9.32506 1.21484 6.3631 1.21484C3.40114 1.21484 1 3.61599 1 6.57795C1 9.53991 3.40114 11.941 6.3631 11.941Z" stroke="#FF5900" stroke-miterlimit="107.69"/>
<path d="M6.02344 3.7207V7.41219C6.02344 7.55149 6.16274 7.69079 6.30204 7.69079H9.15772" stroke="#2C007D" stroke-miterlimit="107.69"/>
</svg>
