<svg width="36" height="44" viewBox="0 0 36 44" fill="none" xmlns="http://www.w3.org/2000/svg">
<path d="M7.09417 26.5785L2.50224 31.3493V34.3632" stroke="#C8D0DB" stroke-width="1.5" stroke-linecap="round" stroke-linejoin="round"/>
<path d="M28.9058 26.5785L33.4978 31.3493V34.3632" stroke="#C8D0DB" stroke-width="1.5" stroke-linecap="round" stroke-linejoin="round"/>
<path d="M2.60772 37.2491C3.49564 37.2491 4.21544 36.5764 4.21544 35.7466C4.21544 34.9168 3.49564 34.244 2.60772 34.244C1.7198 34.244 1 34.9168 1 35.7466C1 36.5764 1.7198 37.2491 2.60772 37.2491Z" stroke="#C8D0DB" stroke-width="1.5" stroke-linecap="round" stroke-linejoin="round"/>
<path d="M33.3923 37.2491C32.5044 37.2491 31.7846 36.5764 31.7846 35.7466C31.7846 34.9168 32.5044 34.244 33.3923 34.244C34.2802 34.244 35 34.9168 35 35.7466C35 36.5764 34.2802 37.2491 33.3923 37.2491Z" stroke="#C8D0DB" stroke-width="1.5" stroke-linecap="round" stroke-linejoin="round"/>
<path d="M17.8095 42.5181C18.6974 42.5181 19.4172 41.8453 19.4172 41.0155C19.4172 40.1857 18.6974 39.513 17.8095 39.513C16.9216 39.513 16.2018 40.1857 16.2018 41.0155C16.2018 41.8453 16.9216 42.5181 17.8095 42.5181Z" stroke="#C8D0DB" stroke-width="1.5" stroke-linecap="round" stroke-linejoin="round"/>
<path d="M17.7937 29.3126L17.8131 38.99" stroke="#C8D0DB" stroke-width="1.5" stroke-linecap="round" stroke-linejoin="round"/>
<path fill-rule="evenodd" clip-rule="evenodd" d="M20.9281 3.92807C22.0261 4.11109 22.9411 4.66009 23.8561 5.20912L25.3201 4.2941C25.8692 3.92807 26.7842 3.92807 27.3332 4.4771L28.9802 6.12414C29.5293 6.67317 29.5293 7.40519 29.1634 8.13721L28.2482 9.60124C28.7973 10.5163 29.1634 11.4313 29.5293 12.5293L31.1763 12.8953C31.9083 13.0784 32.4574 13.6274 32.4574 14.3594V16.5554C32.4574 17.2875 31.9083 18.0195 31.1763 18.0195L29.5293 18.3855C29.3463 19.4835 28.7973 20.3985 28.2482 21.3137L29.1634 22.7775C29.5293 23.3266 29.5293 24.2416 28.9802 24.7906L27.3332 26.4376C26.7842 26.9867 26.0521 26.9867 25.3201 26.6208L23.8561 25.7056C22.9411 26.2547 22.0261 26.6208 20.9281 26.9867L20.5621 28.4508C20.3791 29.1828 19.8301 29.7318 19.098 29.7318H16.902C16.1699 29.7318 15.4379 29.1828 15.4379 28.4508L15.0719 26.8037C13.7909 26.6208 12.8758 26.2547 11.9608 25.7056L10.4968 26.6208C9.94777 26.9867 9.03274 26.9867 8.48373 26.4376L7.01968 24.7906C6.47068 24.2416 6.47068 23.5096 6.83669 22.7775L7.75171 21.3137C7.20268 20.3985 6.83669 19.4835 6.47068 18.3855L4.82362 18.0195C4.0916 17.8365 3.54259 17.2875 3.54259 16.5554V14.3594C3.54259 13.6274 4.0916 12.8953 4.82362 12.8953L6.47068 12.5293C6.65367 11.4313 7.20268 10.5163 7.75171 9.60125L6.83669 8.13721C6.47068 7.58818 6.47068 6.67317 7.01968 6.12414L8.66673 4.4771C9.21575 3.92809 9.94777 3.92809 10.6798 4.2941L12.1438 5.20912C13.0589 4.66011 13.9739 4.2941 15.0719 3.92809L15.4379 2.28104C15.6209 1.54902 16.1699 1 16.902 1H19.098C19.8301 1 20.5621 1.54902 20.5621 2.28104L20.9281 3.92807ZM19.098 10.3333C15.4379 9.60125 12.3268 12.7123 13.0588 16.3725C13.4249 18.3855 15.0719 20.0326 17.085 20.3985C20.7451 21.1305 23.8561 18.0195 23.1241 14.3594C22.7581 12.3463 21.1111 10.6993 19.098 10.3333Z" stroke="#C8D0DB" stroke-width="2"/>
</svg>
