<svg width="25" height="25" viewBox="0 0 25 25" fill="none" xmlns="http://www.w3.org/2000/svg">
<path d="M24.4766 18.0126L21.8516 11.1538C21.8188 11.0683 21.7539 10.9989 21.6708 10.9605C21.5876 10.922 21.4927 10.9176 21.4063 10.9481L18.6407 11.9348C18.5962 11.9507 18.5555 11.9754 18.5208 12.0074C18.4861 12.0394 18.4581 12.078 18.4386 12.121C18.4191 12.1639 18.4085 12.2104 18.4073 12.2575C18.4061 12.3047 18.4143 12.3517 18.4316 12.3956L18.6721 13.0049L16.7849 13.9012L13.6874 13.3195C13.3857 13.2631 13.0756 13.2695 12.7766 13.3384C12.4775 13.4073 12.1959 13.5371 11.9492 13.7198L11.3957 14.1304L11.0291 13.8665C10.7524 13.6684 10.4343 13.5359 10.0987 13.479C9.76324 13.4222 9.41918 13.4425 9.09269 13.5384L7.90394 13.8923L6.34675 12.9614L6.57034 12.396C6.58761 12.3521 6.59588 12.3052 6.59467 12.258C6.59346 12.2108 6.58279 12.1644 6.56329 12.1214C6.54379 12.0784 6.51587 12.0398 6.48117 12.0078C6.44647 11.9759 6.4057 11.9512 6.36128 11.9353L3.59378 10.9481C3.50726 10.9173 3.41213 10.9216 3.32873 10.96C3.24534 10.9985 3.1803 11.0681 3.14753 11.1538L0.523468 18.0126C0.490932 18.0971 0.492272 18.1908 0.527208 18.2743C0.562144 18.3578 0.627977 18.4246 0.710968 18.4607L3.33597 19.5918C3.37921 19.6105 3.42576 19.6203 3.47287 19.6206C3.51997 19.621 3.56666 19.6118 3.61017 19.5938C3.65367 19.5757 3.6931 19.5491 3.72612 19.5155C3.75914 19.4819 3.78507 19.442 3.80237 19.3982L4.06675 18.7293L6.24269 19.9556C6.09606 20.1684 6.02853 20.4259 6.05182 20.6834C6.07511 20.9408 6.18774 21.182 6.37019 21.3651C6.47282 21.4678 6.59472 21.5492 6.7289 21.6046C6.86308 21.66 7.00689 21.6884 7.15206 21.6881H7.17972C7.20433 21.9631 7.33108 22.2189 7.53499 22.4051C7.73889 22.5913 8.00515 22.6944 8.28128 22.694H8.30987C8.33214 22.9524 8.44504 23.1947 8.62862 23.3779C8.73125 23.4806 8.85316 23.562 8.98734 23.6174C9.12152 23.6728 9.26532 23.7012 9.4105 23.7009H9.43815C9.45675 23.9104 9.53474 24.1102 9.66296 24.277C9.79118 24.4437 9.96432 24.5704 10.162 24.6421C10.3597 24.7139 10.5738 24.7278 10.7791 24.6821C10.9845 24.6364 11.1725 24.5331 11.3211 24.3843L11.7388 23.9671L12.3041 24.389C12.5436 24.5675 12.8395 24.6535 13.1373 24.6311C13.4352 24.6087 13.7149 24.4794 13.925 24.2671L13.9649 24.2268C14.1423 24.0457 14.2601 23.8145 14.3024 23.5645C14.5139 23.6242 14.7375 23.6265 14.9502 23.5713C15.1629 23.516 15.357 23.4051 15.5127 23.2499L15.5417 23.2209C15.739 23.024 15.8636 22.766 15.8952 22.4892C16.1083 22.5527 16.3347 22.5572 16.5502 22.5023C16.7657 22.4474 16.9623 22.3352 17.1191 22.1774L17.1388 22.1578C17.3311 21.9672 17.4544 21.718 17.4894 21.4495C17.6792 21.4947 17.8769 21.4944 18.0666 21.4486C18.2562 21.4027 18.4322 21.3126 18.5804 21.1856C18.7285 21.0586 18.8444 20.8984 18.9187 20.718C18.9929 20.5376 19.0234 20.3422 19.0077 20.1478C19.0015 20.0724 18.9885 19.9977 18.9688 19.9246L21.0121 18.9243L21.1996 19.3968C21.2168 19.4407 21.2426 19.4807 21.2756 19.5144C21.3086 19.548 21.3481 19.5747 21.3916 19.5928C21.4352 19.6108 21.4819 19.6199 21.529 19.6195C21.5762 19.6191 21.6227 19.6092 21.666 19.5904L24.291 18.4593C24.3733 18.4229 24.4384 18.3562 24.473 18.273C24.5075 18.1899 24.5088 18.0967 24.4766 18.0126ZM3.28112 18.8029L1.30066 17.9488L3.6805 11.7262L4.26409 11.9338L3.13909 15.1317C3.10801 15.2197 3.11317 15.3164 3.15343 15.4007C3.19369 15.4849 3.26576 15.5496 3.35378 15.5807C3.4418 15.6118 3.53856 15.6066 3.62277 15.5664C3.70699 15.5261 3.77176 15.4541 3.80284 15.366L4.92503 12.1715L5.7805 12.4767L3.28112 18.8029ZM7.43753 20.8678C7.36162 20.9406 7.2602 20.9809 7.15499 20.9799C7.04977 20.979 6.9491 20.9368 6.87455 20.8626C6.79999 20.7883 6.75746 20.6878 6.75606 20.5826C6.75466 20.4774 6.7945 20.3758 6.86706 20.2996L7.61706 19.5496C7.67346 19.4934 7.74524 19.4552 7.82335 19.4397C7.90145 19.4243 7.98239 19.4323 8.05594 19.4628C8.12949 19.4933 8.19237 19.5449 8.23664 19.611C8.28092 19.6772 8.3046 19.755 8.30472 19.8346C8.3049 19.8875 8.29455 19.9399 8.27427 19.9888C8.25399 20.0376 8.22418 20.082 8.18659 20.1192L7.43753 20.8678ZM8.62909 21.8128C8.608 21.8334 8.58925 21.8554 8.5705 21.8774L8.56675 21.8732C8.5297 21.912 8.48527 21.943 8.43608 21.9644C8.38688 21.9858 8.33391 21.9971 8.28027 21.9977C8.22663 21.9984 8.17341 21.9883 8.12373 21.9681C8.07404 21.9478 8.0289 21.9179 7.99096 21.88C7.95301 21.842 7.92302 21.7969 7.90275 21.7473C7.88249 21.6976 7.87234 21.6444 7.87293 21.5907C7.87351 21.5371 7.88481 21.4841 7.90615 21.4349C7.92749 21.3857 7.95846 21.3412 7.99722 21.3042L8.68534 20.6165C8.70597 20.5959 8.72566 20.5743 8.74441 20.5523L8.74769 20.5556C8.82372 20.4828 8.9252 20.4428 9.03041 20.4439C9.13562 20.445 9.2362 20.4873 9.31063 20.5617C9.38506 20.6361 9.42743 20.7366 9.42866 20.8418C9.42989 20.947 9.38989 21.0485 9.31722 21.1246L8.62909 21.8128ZM9.69409 22.8778C9.61746 22.9466 9.51738 22.9834 9.41442 22.9807C9.31147 22.9779 9.21348 22.9359 9.14059 22.8631C9.06771 22.7903 9.02548 22.6924 9.02258 22.5895C9.01969 22.4865 9.05635 22.3864 9.12503 22.3096L9.87503 21.5596C9.91141 21.5184 9.95584 21.4851 10.0056 21.4617C10.0553 21.4383 10.1093 21.4254 10.1643 21.4237C10.2192 21.422 10.2739 21.4315 10.325 21.4517C10.3762 21.472 10.4226 21.5024 10.4615 21.5413C10.5004 21.5802 10.5309 21.6266 10.5511 21.6776C10.5714 21.7287 10.581 21.7834 10.5793 21.8384C10.5777 21.8933 10.5648 21.9473 10.5414 21.9971C10.5181 22.0469 10.4848 22.0913 10.4436 22.1278L9.69409 22.8778ZM11.5728 23.1337L10.8228 23.8837C10.7468 23.9564 10.6453 23.9965 10.5401 23.9954C10.4349 23.9942 10.3343 23.9519 10.2599 23.8776C10.1855 23.8032 10.1431 23.7027 10.1419 23.5974C10.1406 23.4922 10.1806 23.3907 10.2533 23.3146L10.9414 22.627C10.9621 22.6063 10.9817 22.5848 11.0005 22.5628L11.0038 22.566C11.0798 22.4933 11.1813 22.4532 11.2865 22.4544C11.3917 22.4555 11.4923 22.4978 11.5667 22.5722C11.6412 22.6465 11.6835 22.7471 11.6848 22.8523C11.686 22.9575 11.646 23.059 11.5733 23.1351L11.5728 23.1337ZM18.1522 20.6212C18.0588 20.7157 17.9332 20.7715 17.8004 20.7775C17.6677 20.7835 17.5375 20.7392 17.436 20.6535L17.1617 20.4253C17.1426 20.3974 17.1196 20.3725 17.0933 20.3512L16.461 19.8431C16.3881 19.7883 16.2968 19.764 16.2063 19.7753C16.1159 19.7865 16.0333 19.8325 15.9761 19.9035C15.9189 19.9744 15.8915 20.0648 15.8996 20.1556C15.9078 20.2464 15.9509 20.3305 16.0199 20.3901L16.5655 20.8303C16.5807 20.8512 16.5979 20.8705 16.6171 20.8879C16.6713 20.9359 16.7151 20.9945 16.7458 21.06C16.7765 21.1256 16.7935 21.1967 16.7957 21.2691C16.7979 21.3415 16.7852 21.4135 16.7586 21.4808C16.7319 21.5481 16.6917 21.6092 16.6405 21.6604L16.6208 21.6801C16.5319 21.7694 16.4141 21.8241 16.2885 21.8344C16.1629 21.8447 16.0378 21.8099 15.9355 21.7363L15.3922 21.3473L15.3866 21.3431L15.1813 21.1964C15.1054 21.1421 15.0112 21.1202 14.9192 21.1354C14.8272 21.1507 14.745 21.2018 14.6907 21.2777C14.6365 21.3535 14.6145 21.4478 14.6298 21.5398C14.6451 21.6318 14.6962 21.714 14.7721 21.7682L14.9811 21.9178C15.0432 21.963 15.0947 22.0211 15.1321 22.0881C15.1696 22.1551 15.192 22.2295 15.1979 22.306C15.2039 22.3826 15.1931 22.4595 15.1665 22.5315C15.1398 22.6035 15.0978 22.6689 15.0435 22.7231L15.0144 22.7521C14.9188 22.8477 14.7903 22.9032 14.6552 22.9075C14.5201 22.9118 14.3884 22.8644 14.2869 22.7751L13.701 22.2595C13.6673 22.2246 13.6268 22.197 13.582 22.1785C13.5372 22.16 13.489 22.151 13.4405 22.152C13.3921 22.153 13.3443 22.1641 13.3003 22.1844C13.2563 22.2048 13.217 22.234 13.1848 22.2703C13.1526 22.3066 13.1283 22.3491 13.1134 22.3952C13.0985 22.4414 13.0932 22.4901 13.0981 22.5383C13.1029 22.5866 13.1176 22.6333 13.1413 22.6756C13.1651 22.7179 13.1973 22.7548 13.236 22.784L13.4352 22.9603C13.4895 23.008 13.5334 23.0663 13.5644 23.1316C13.5954 23.1969 13.6127 23.2678 13.6153 23.3401C13.6178 23.4123 13.6057 23.4843 13.5795 23.5517C13.5532 23.619 13.5136 23.6803 13.4628 23.7318L13.423 23.7721C13.3325 23.8636 13.2121 23.9192 13.0838 23.9289C12.9556 23.9385 12.8282 23.9015 12.725 23.8246L12.2188 23.4468C12.3258 23.2797 12.3858 23.0869 12.3927 22.8886C12.3995 22.6903 12.3528 22.4938 12.2576 22.3197C12.1623 22.1457 12.022 22.0004 11.8513 21.8993C11.6806 21.7981 11.4858 21.7448 11.2874 21.7448H11.2597C11.235 21.4698 11.1083 21.2141 10.9045 21.0278C10.7008 20.8416 10.4347 20.7383 10.1586 20.7384H10.13C10.1045 20.4594 9.97371 20.2006 9.76422 20.0146C9.55472 19.8286 9.28226 19.7294 9.00222 19.7371C8.98015 19.4787 8.86702 19.2365 8.683 19.0537C8.47551 18.8466 8.1943 18.7302 7.90112 18.7302C7.60794 18.7302 7.32674 18.8466 7.11925 19.0537L6.74097 19.4315L4.32691 18.0721L6.08378 13.6265L7.67472 14.5776C7.71659 14.6027 7.76322 14.6187 7.81164 14.6248C7.86006 14.6308 7.90921 14.6267 7.95597 14.6128L9.29284 14.2148C9.5162 14.149 9.75162 14.1349 9.98122 14.1737C10.2108 14.2124 10.4286 14.3029 10.618 14.4384L10.8027 14.5715L8.92347 15.966C8.78403 16.0696 8.67062 16.2041 8.59221 16.3591C8.51381 16.514 8.47256 16.6851 8.47174 16.8588C8.47092 17.0324 8.51055 17.2039 8.5875 17.3596C8.66444 17.5153 8.77658 17.6509 8.91503 17.7557C9.17617 17.9518 9.49046 18.0643 9.81669 18.0786C10.1429 18.0929 10.4659 18.0083 10.7432 17.8359L12.2188 16.9073C12.3903 17.2495 12.711 17.7145 13.2678 18.0009C13.9133 18.3328 14.698 18.3412 15.6027 18.0262L18.0871 19.8154C18.1495 19.8605 18.2014 19.9186 18.2392 19.9856C18.277 20.0527 18.2997 20.1272 18.3059 20.204C18.3121 20.2807 18.3016 20.3579 18.2751 20.4302C18.2485 20.5024 18.2066 20.5681 18.1522 20.6226V20.6212ZM18.6041 19.3199L15.8624 17.3465C15.8148 17.3123 15.7594 17.2906 15.7013 17.2832C15.6432 17.2759 15.5842 17.2831 15.5296 17.3043C14.7467 17.6081 14.0966 17.6324 13.596 17.3788C12.9332 17.0418 12.7302 16.3049 12.7283 16.3007C12.7146 16.2471 12.6885 16.1974 12.652 16.1558C12.6154 16.1142 12.5696 16.0818 12.5182 16.0613C12.4668 16.0407 12.4113 16.0326 12.3562 16.0375C12.3011 16.0425 12.2479 16.0604 12.201 16.0898L10.3691 17.2387C10.2126 17.336 10.0303 17.3835 9.8462 17.3752C9.66212 17.3668 9.48489 17.3029 9.33784 17.1918C9.28643 17.153 9.24477 17.1027 9.2162 17.0449C9.18762 16.9872 9.17291 16.9236 9.17323 16.8591C9.17355 16.7947 9.18889 16.7312 9.21803 16.6737C9.24718 16.6163 9.28933 16.5664 9.34112 16.5281L12.3664 14.2828C12.5352 14.1578 12.7279 14.069 12.9325 14.0219C13.1371 13.9748 13.3493 13.9704 13.5557 14.009L16.7657 14.6118C16.8386 14.6258 16.9142 14.6161 16.9813 14.5842L18.9294 13.6588L20.7514 18.2695L18.6041 19.3199ZM21.7189 18.8015L19.2182 12.4734L20.0741 12.1682L21.1958 15.3628C21.2269 15.4508 21.2917 15.5228 21.3759 15.5631C21.4601 15.6034 21.5569 15.6085 21.6449 15.5774C21.7329 15.5464 21.805 15.4816 21.8452 15.3974C21.8855 15.3132 21.8906 15.2164 21.8596 15.1284L20.7346 11.9306L21.3182 11.7229L23.698 17.9456L21.7189 18.8015Z" fill="#20336B"/>
<path d="M12.5 11.7207C13.5893 11.7207 14.6542 11.3977 15.56 10.7925C16.4657 10.1873 17.1717 9.32706 17.5886 8.32064C18.0054 7.31422 18.1145 6.20678 17.902 5.13837C17.6895 4.06996 17.1649 3.08856 16.3946 2.31828C15.6243 1.548 14.6429 1.02343 13.5745 0.810912C12.5061 0.598392 11.3987 0.707465 10.3923 1.12434C9.38583 1.54121 8.52563 2.24716 7.92042 3.15292C7.31522 4.05867 6.99219 5.12355 6.99219 6.21289C6.9938 7.67316 7.5746 9.07316 8.60717 10.1057C9.63974 11.1383 11.0397 11.7191 12.5 11.7207ZM12.5 1.40821C13.4503 1.40821 14.3792 1.69 15.1693 2.21794C15.9595 2.74589 16.5753 3.49628 16.939 4.37422C17.3026 5.25216 17.3978 6.21822 17.2124 7.15024C17.027 8.08226 16.5694 8.93837 15.8974 9.61032C15.2255 10.2823 14.3694 10.7399 13.4373 10.9253C12.5053 11.1106 11.5393 11.0155 10.6613 10.6518C9.78338 10.2882 9.03299 9.67236 8.50505 8.88223C7.9771 8.09211 7.69531 7.16317 7.69531 6.21289C7.69668 4.93903 8.20332 3.71773 9.10408 2.81697C10.0048 1.91622 11.2261 1.40957 12.5 1.40821Z" fill="#20336B"/>
<path d="M12.5 10.3145C13.3112 10.3145 14.1042 10.0739 14.7787 9.62322C15.4532 9.17253 15.9789 8.53196 16.2893 7.78249C16.5998 7.03303 16.681 6.20834 16.5228 5.41272C16.3645 4.61709 15.9739 3.88626 15.4002 3.31265C14.8266 2.73904 14.0958 2.3484 13.3002 2.19014C12.5045 2.03188 11.6799 2.11311 10.9304 2.42354C10.1809 2.73398 9.54036 3.25969 9.08968 3.93419C8.63899 4.60868 8.39844 5.40168 8.39844 6.21289C8.39968 7.30031 8.8322 8.34284 9.60113 9.11176C10.3701 9.88069 11.4126 10.3132 12.5 10.3145ZM12.5 2.81445C13.1721 2.81445 13.8292 3.01377 14.3881 3.38719C14.9469 3.76062 15.3825 4.29138 15.6397 4.91237C15.897 5.53335 15.9643 6.21666 15.8331 6.87589C15.702 7.53513 15.3783 8.14067 14.9031 8.61595C14.4278 9.09123 13.8222 9.4149 13.163 9.54603C12.5038 9.67716 11.8205 9.60986 11.1995 9.35264C10.5785 9.09542 10.0477 8.65983 9.6743 8.10096C9.30088 7.54209 9.10156 6.88504 9.10156 6.21289C9.10256 5.31188 9.46092 4.44805 10.098 3.81093C10.7352 3.17382 11.599 2.81545 12.5 2.81445ZM19.5753 6.21289C19.5753 6.25906 19.5844 6.30478 19.6021 6.34743C19.6197 6.39008 19.6456 6.42884 19.6783 6.46148C19.7109 6.49413 19.7497 6.52003 19.7923 6.53769C19.835 6.55536 19.8807 6.56446 19.9269 6.56446H21.875C21.9682 6.56446 22.0577 6.52742 22.1236 6.46148C22.1895 6.39555 22.2266 6.30613 22.2266 6.21289C22.2266 6.11965 22.1895 6.03023 22.1236 5.9643C22.0577 5.89837 21.9682 5.86133 21.875 5.86133H19.9269C19.8336 5.86133 19.7442 5.89837 19.6783 5.9643C19.6124 6.03023 19.5753 6.11965 19.5753 6.21289ZM19.1966 4.61024C19.259 4.61072 19.3205 4.59454 19.3747 4.56336L20.8353 3.70508C20.9161 3.6579 20.9749 3.58055 20.9987 3.49005C21.0224 3.39955 21.0093 3.30331 20.9621 3.2225C20.9149 3.14169 20.8376 3.08294 20.7471 3.05916C20.6566 3.03538 20.5603 3.04853 20.4795 3.09571L19.0184 3.95539C18.9511 3.99414 18.8985 4.05408 18.8689 4.12586C18.8392 4.19765 18.8342 4.27723 18.8545 4.35218C18.8749 4.42714 18.9195 4.49325 18.9813 4.54018C19.0432 4.58712 19.1189 4.61225 19.1966 4.61164V4.61024ZM19.0184 8.47039L20.4795 9.33008C20.5195 9.35344 20.5638 9.36869 20.6097 9.37496C20.6556 9.38123 20.7023 9.3784 20.7471 9.36663C20.7919 9.35485 20.8339 9.33437 20.8708 9.30634C20.9077 9.27831 20.9387 9.2433 20.9621 9.20328C20.9855 9.16327 21.0007 9.11905 21.007 9.07314C21.0133 9.02724 21.0104 8.98055 20.9987 8.93573C20.9869 8.89092 20.9664 8.84887 20.9384 8.81197C20.9103 8.77508 20.8753 8.74407 20.8353 8.72071L19.3747 7.86289C19.3349 7.83864 19.2906 7.82255 19.2445 7.81556C19.1984 7.80857 19.1514 7.81082 19.1061 7.82219C19.0609 7.83355 19.0184 7.8538 18.9811 7.88175C18.9438 7.90971 18.9124 7.9448 18.8887 7.985C18.8651 8.02521 18.8497 8.06971 18.8434 8.11591C18.8372 8.16212 18.8402 8.20911 18.8522 8.25416C18.8643 8.2992 18.8852 8.34139 18.9138 8.37827C18.9423 8.41515 18.9779 8.44599 19.0184 8.46899V8.47039ZM3.125 6.56446H5.07312C5.16637 6.56446 5.25579 6.52742 5.32172 6.46148C5.38765 6.39555 5.42469 6.30613 5.42469 6.21289C5.42469 6.11965 5.38765 6.03023 5.32172 5.9643C5.25579 5.89837 5.16637 5.86133 5.07312 5.86133H3.125C3.03176 5.86133 2.94234 5.89837 2.87641 5.9643C2.81048 6.03023 2.77344 6.11965 2.77344 6.21289C2.77344 6.30613 2.81048 6.39555 2.87641 6.46148C2.94234 6.52742 3.03176 6.56446 3.125 6.56446ZM4.16469 3.70508L5.62531 4.56289C5.66514 4.58715 5.70939 4.60324 5.7555 4.61023C5.8016 4.61721 5.84863 4.61496 5.89386 4.6036C5.93908 4.59223 5.9816 4.57198 6.01892 4.54403C6.05624 4.51608 6.08764 4.48098 6.11126 4.44078C6.13489 4.40058 6.15029 4.35608 6.15655 4.30987C6.16282 4.26366 6.15983 4.21667 6.14776 4.17163C6.13569 4.12659 6.11478 4.0844 6.08625 4.04752C6.05771 4.01063 6.02213 3.9798 5.98156 3.9568L4.52047 3.09571C4.48046 3.07234 4.43624 3.05709 4.39033 3.05082C4.34442 3.04455 4.29773 3.04738 4.25292 3.05916C4.16242 3.08294 4.08507 3.14169 4.03789 3.2225C3.99071 3.30331 3.97756 3.39955 4.00134 3.49005C4.02512 3.58055 4.08388 3.6579 4.16469 3.70508ZM5.62531 7.8643L4.16469 8.72071C4.08388 8.76788 4.02512 8.84523 4.00134 8.93573C3.97756 9.02624 3.99071 9.12248 4.03789 9.20328C4.08507 9.28409 4.16242 9.34285 4.25292 9.36663C4.34342 9.39041 4.43966 9.37726 4.52047 9.33008L5.98156 8.4718C6.02213 8.4488 6.05771 8.41796 6.08625 8.38108C6.11478 8.3442 6.13569 8.30201 6.14776 8.25697C6.15983 8.21193 6.16282 8.16493 6.15655 8.11873C6.15029 8.07252 6.13489 8.02802 6.11126 7.98782C6.08764 7.94762 6.05624 7.91252 6.01892 7.88457C5.9816 7.85661 5.93908 7.83637 5.89386 7.825C5.84863 7.81364 5.8016 7.81138 5.7555 7.81837C5.70939 7.82536 5.66514 7.84145 5.62531 7.8657V7.8643Z" fill="#4ABCEB"/>
<path d="M11.7127 7.74262C11.7456 7.77806 11.7855 7.80632 11.8299 7.82565C11.8743 7.84497 11.9221 7.85495 11.9705 7.85495C12.0189 7.85495 12.0668 7.84497 12.1111 7.82565C12.1555 7.80632 12.1954 7.77806 12.2283 7.74262L14.6349 5.1645C14.6664 5.13064 14.6909 5.09091 14.7071 5.04757C14.7233 5.00423 14.7307 4.95813 14.7291 4.9119C14.7274 4.86568 14.7167 4.82023 14.6975 4.77815C14.6783 4.73608 14.6509 4.6982 14.6171 4.66669C14.5832 4.63517 14.5435 4.61063 14.5001 4.59447C14.4568 4.5783 14.4107 4.57084 14.3645 4.57249C14.3183 4.57414 14.2728 4.58489 14.2307 4.60411C14.1887 4.62332 14.1508 4.65064 14.1193 4.6845L11.97 6.987L10.8835 5.82309C10.8198 5.75472 10.7316 5.71443 10.6383 5.71108C10.5449 5.70774 10.454 5.74163 10.3857 5.80528C10.3173 5.86893 10.277 5.95714 10.2737 6.0505C10.2703 6.14385 10.3042 6.23472 10.3679 6.30309L11.7127 7.74262Z" fill="#4ABCEB"/>
</svg>
