<svg width="437" height="186" viewBox="0 0 437 186" fill="none" xmlns="http://www.w3.org/2000/svg">
<path d="M13.93 13.04L15.302 11.906C16.002 12.998 17.052 13.628 18.2 13.628C19.334 13.628 20.188 13.11 20.188 12.144C20.188 11.122 19.138 10.982 17.64 10.618C16.128 10.254 14.504 9.80601 14.504 7.84601C14.504 5.98401 16.1 4.79401 18.13 4.79401C19.852 4.79401 21.196 5.60601 21.868 6.65601L20.552 7.79001C19.992 6.92201 19.25 6.32001 18.074 6.32001C16.996 6.32001 16.254 6.86601 16.254 7.66401C16.254 8.54601 17.024 8.72801 18.382 9.03601C20.006 9.40001 21.952 9.77801 21.952 11.962C21.952 13.936 20.216 15.154 18.144 15.154C16.422 15.154 14.714 14.328 13.93 13.04ZM29.8985 11.332C29.8985 13.614 28.4285 15.154 26.3565 15.154C24.2845 15.154 22.8145 13.614 22.8145 11.332C22.8145 9.05001 24.2845 7.51001 26.3565 7.51001C28.4285 7.51001 29.8985 9.05001 29.8985 11.332ZM24.5085 11.332C24.5085 12.83 25.2225 13.74 26.3565 13.74C27.4905 13.74 28.2045 12.83 28.2045 11.332C28.2045 9.83401 27.4905 8.92401 26.3565 8.92401C25.2225 8.92401 24.5085 9.83401 24.5085 11.332ZM34.6082 4.80801V6.27801C34.4122 6.26401 34.3142 6.26401 34.1042 6.26401C33.4462 6.26401 33.0822 6.46001 33.0822 7.30001V7.65001H34.5802V9.07801H33.0822V15H31.4022V9.07801H30.3802V7.65001H31.4022V7.17401C31.4022 5.64801 32.2562 4.79401 33.9082 4.79401C34.1742 4.79401 34.3002 4.79401 34.6082 4.80801ZM35.9676 13.152V9.07801H34.9456V7.65001H35.9676V5.49401H37.6196V7.65001H39.1596V9.07801H37.6196V12.886C37.6196 13.544 37.9976 13.614 38.5996 13.614C38.8796 13.614 39.0336 13.6 39.2856 13.572V14.986C38.9776 15.042 38.5576 15.084 38.1236 15.084C36.7236 15.084 35.9676 14.65 35.9676 13.152ZM51.0169 6.51601H47.7829V15H45.9909V6.51601H42.7569V4.94801H51.0169V6.51601ZM57.0509 11.332C57.0509 13.614 55.5809 15.154 53.5089 15.154C51.4369 15.154 49.9669 13.614 49.9669 11.332C49.9669 9.05001 51.4369 7.51001 53.5089 7.51001C55.5809 7.51001 57.0509 9.05001 57.0509 11.332ZM51.6609 11.332C51.6609 12.83 52.3749 13.74 53.5089 13.74C54.6429 13.74 55.3569 12.83 55.3569 11.332C55.3569 9.83401 54.6429 8.92401 53.5089 8.92401C52.3749 8.92401 51.6609 9.83401 51.6609 11.332ZM60.0386 4.94801V10.744L62.8666 7.65001H64.9246L62.1526 10.506L65.1486 15H63.2026L61.0046 11.682L60.0386 12.662V15H58.3586V4.94801H60.0386ZM68.7537 15.154C66.6537 15.154 65.1837 13.6 65.1837 11.332C65.1837 9.17601 66.6397 7.51001 68.6837 7.51001C70.8117 7.51001 71.9457 9.12001 71.9457 11.136V11.696H66.7937C66.9197 12.956 67.6757 13.726 68.7537 13.726C69.5797 13.726 70.2377 13.306 70.4617 12.55L71.9037 13.096C71.3857 14.384 70.2237 15.154 68.7537 15.154ZM68.6697 8.92401C67.8017 8.92401 67.1297 9.44201 66.8777 10.436H70.2517C70.2377 9.62401 69.7337 8.92401 68.6697 8.92401ZM73.2062 15V7.65001H74.8862V8.43401C75.3062 7.94401 75.9642 7.51001 76.9162 7.51001C78.4562 7.51001 79.3802 8.57401 79.3802 10.156V15H77.7002V10.646C77.7002 9.73601 77.3362 9.07801 76.4122 9.07801C75.6562 9.07801 74.8862 9.63801 74.8862 10.688V15H73.2062ZM13.93 31.04L15.302 29.906C16.002 30.998 17.052 31.628 18.2 31.628C19.334 31.628 20.188 31.11 20.188 30.144C20.188 29.122 19.138 28.982 17.64 28.618C16.128 28.254 14.504 27.806 14.504 25.846C14.504 23.984 16.1 22.794 18.13 22.794C19.852 22.794 21.196 23.606 21.868 24.656L20.552 25.79C19.992 24.922 19.25 24.32 18.074 24.32C16.996 24.32 16.254 24.866 16.254 25.664C16.254 26.546 17.024 26.728 18.382 27.036C20.006 27.4 21.952 27.778 21.952 29.962C21.952 31.936 20.216 33.154 18.144 33.154C16.422 33.154 14.714 32.328 13.93 31.04ZM29.8985 29.332C29.8985 31.614 28.4285 33.154 26.3565 33.154C24.2845 33.154 22.8145 31.614 22.8145 29.332C22.8145 27.05 24.2845 25.51 26.3565 25.51C28.4285 25.51 29.8985 27.05 29.8985 29.332ZM24.5085 29.332C24.5085 30.83 25.2225 31.74 26.3565 31.74C27.4905 31.74 28.2045 30.83 28.2045 29.332C28.2045 27.834 27.4905 26.924 26.3565 26.924C25.2225 26.924 24.5085 27.834 24.5085 29.332ZM32.8862 22.948V33H31.2062V22.948H32.8862ZM40.7695 25.65V33H39.0895V32.216C38.6695 32.706 38.0395 33.154 37.0875 33.154C35.5475 33.154 34.5955 32.104 34.5955 30.522V25.65H36.2755V30.158C36.2755 31.054 36.6675 31.628 37.5775 31.628C38.3335 31.628 39.0895 31.068 39.0895 30.018V25.65H40.7695ZM42.6942 31.152V27.078H41.6722V25.65H42.6942V23.494H44.3462V25.65H45.8862V27.078H44.3462V30.886C44.3462 31.544 44.7242 31.614 45.3262 31.614C45.6062 31.614 45.7602 31.6 46.0122 31.572V32.986C45.7042 33.042 45.2842 33.084 44.8502 33.084C43.4502 33.084 42.6942 32.65 42.6942 31.152ZM47.2427 24.67V22.948H48.9787V24.67H47.2427ZM48.9507 25.65V33H47.2707V25.65H48.9507ZM57.338 29.332C57.338 31.614 55.868 33.154 53.796 33.154C51.724 33.154 50.254 31.614 50.254 29.332C50.254 27.05 51.724 25.51 53.796 25.51C55.868 25.51 57.338 27.05 57.338 29.332ZM51.948 29.332C51.948 30.83 52.662 31.74 53.796 31.74C54.93 31.74 55.644 30.83 55.644 29.332C55.644 27.834 54.93 26.924 53.796 26.924C52.662 26.924 51.948 27.834 51.948 29.332ZM58.6457 33V25.65H60.3257V26.434C60.7457 25.944 61.4037 25.51 62.3557 25.51C63.8957 25.51 64.8197 26.574 64.8197 28.156V33H63.1397V28.646C63.1397 27.736 62.7757 27.078 61.8517 27.078C61.0957 27.078 60.3257 27.638 60.3257 28.688V33H58.6457Z" fill="#0A2540"/>
<path d="M37 80L39.8868 75H34.1132L37 80ZM36.5 44V75.5H37.5V44H36.5Z" fill="#2988E2"/>
<path d="M119 115L114 112.113V117.887L119 115ZM79 115.5H114.5V114.5H79V115.5Z" fill="#2988E2"/>
<path d="M239 115L234 112.113V117.887L239 115ZM199 115.5H234.5V114.5H199V115.5Z" fill="#2988E2"/>
<path d="M359 115L354 112.113V117.887L359 115ZM319 115.5H354.5V114.5H319V115.5Z" fill="#2988E2"/>
<path d="M399.5 141.5C414.688 141.5 427 129.188 427 114C427 98.8122 414.688 86.5 399.5 86.5C384.312 86.5 372 98.8122 372 114C372 129.188 384.312 141.5 399.5 141.5Z" stroke="#2988E2"/>
<path d="M395.49 153.948V164H393.698V153.948H395.49ZM397.39 164V153.948H400.75C403.872 153.948 405.804 155.908 405.804 158.974C405.804 162.04 403.872 164 400.75 164H397.39ZM399.14 162.46H400.75C402.822 162.46 404.04 161.088 404.04 158.974C404.04 156.846 402.822 155.488 400.736 155.488H399.14V162.46ZM367.146 180H365.452L362.764 172.65H364.528L366.32 177.984L368.098 172.65H369.834L367.146 180ZM373.672 180.154C371.572 180.154 370.102 178.6 370.102 176.332C370.102 174.176 371.558 172.51 373.602 172.51C375.73 172.51 376.864 174.12 376.864 176.136V176.696H371.712C371.838 177.956 372.594 178.726 373.672 178.726C374.498 178.726 375.156 178.306 375.38 177.55L376.822 178.096C376.304 179.384 375.142 180.154 373.672 180.154ZM373.588 173.924C372.72 173.924 372.048 174.442 371.796 175.436H375.17C375.156 174.624 374.652 173.924 373.588 173.924ZM382.296 172.636V174.316C382.086 174.288 381.918 174.274 381.68 174.274C380.616 174.274 379.804 174.96 379.804 176.136V180H378.124V172.65H379.804V173.742C380.126 173.056 380.882 172.608 381.82 172.608C382.016 172.608 382.17 172.622 382.296 172.636ZM383.428 171.67V169.948H385.164V171.67H383.428ZM385.136 172.65V180H383.456V172.65H385.136ZM390.304 169.808V171.278C390.108 171.264 390.01 171.264 389.8 171.264C389.142 171.264 388.778 171.46 388.778 172.3V172.65H390.276V174.078H388.778V180H387.098V174.078H386.076V172.65H387.098V172.174C387.098 170.648 387.952 169.794 389.604 169.794C389.87 169.794 389.996 169.794 390.304 169.808ZM391.208 171.67V169.948H392.944V171.67H391.208ZM392.916 172.65V180H391.236V172.65H392.916ZM395.899 176.332C395.899 177.83 396.683 178.698 397.831 178.698C398.727 178.698 399.273 178.11 399.483 177.298L400.925 178.026C400.547 179.216 399.427 180.154 397.831 180.154C395.731 180.154 394.219 178.6 394.219 176.332C394.219 174.064 395.731 172.51 397.831 172.51C399.413 172.51 400.505 173.406 400.897 174.582L399.483 175.352C399.273 174.554 398.727 173.952 397.831 173.952C396.683 173.952 395.899 174.834 395.899 176.332ZM404.023 180.126C402.623 180.126 401.545 179.272 401.545 177.956C401.545 176.556 402.595 175.94 404.009 175.646L406.039 175.226V175.1C406.039 174.4 405.675 173.966 404.779 173.966C403.981 173.966 403.561 174.33 403.365 175.044L401.783 174.68C402.147 173.462 403.225 172.51 404.849 172.51C406.613 172.51 407.677 173.35 407.677 175.044V178.208C407.677 178.628 407.859 178.754 408.321 178.698V180C407.103 180.14 406.459 179.902 406.207 179.3C405.745 179.818 404.975 180.126 404.023 180.126ZM406.039 177.41V176.514L404.457 176.85C403.743 177.004 403.211 177.228 403.211 177.886C403.211 178.46 403.631 178.782 404.275 178.782C405.171 178.782 406.039 178.306 406.039 177.41ZM409.669 178.152V174.078H408.647V172.65H409.669V170.494H411.321V172.65H412.861V174.078H411.321V177.886C411.321 178.544 411.699 178.614 412.301 178.614C412.581 178.614 412.735 178.6 412.987 178.572V179.986C412.679 180.042 412.259 180.084 411.825 180.084C410.425 180.084 409.669 179.65 409.669 178.152ZM414.217 171.67V169.948H415.953V171.67H414.217ZM415.925 172.65V180H414.245V172.65H415.925ZM424.313 176.332C424.313 178.614 422.843 180.154 420.771 180.154C418.699 180.154 417.229 178.614 417.229 176.332C417.229 174.05 418.699 172.51 420.771 172.51C422.843 172.51 424.313 174.05 424.313 176.332ZM418.923 176.332C418.923 177.83 419.637 178.74 420.771 178.74C421.905 178.74 422.619 177.83 422.619 176.332C422.619 174.834 421.905 173.924 420.771 173.924C419.637 173.924 418.923 174.834 418.923 176.332ZM425.62 180V172.65H427.3V173.434C427.72 172.944 428.378 172.51 429.33 172.51C430.87 172.51 431.794 173.574 431.794 175.156V180H430.114V175.646C430.114 174.736 429.75 174.078 428.826 174.078C428.07 174.078 427.3 174.638 427.3 175.688V180H425.62Z" fill="#0A2540"/>
<path d="M279 141.5C294.188 141.5 306.5 129.188 306.5 114C306.5 98.8122 294.188 86.5 279 86.5C263.812 86.5 251.5 98.8122 251.5 114C251.5 129.188 263.812 141.5 279 141.5Z" stroke="#2988E2"/>
<path d="M265.044 159.974C265.044 156.922 267.004 154.794 269.72 154.794C272.436 154.794 274.396 156.922 274.396 159.974C274.396 163.026 272.436 165.154 269.72 165.154C267.004 165.154 265.044 163.026 265.044 159.974ZM272.604 159.974C272.604 157.79 271.414 156.376 269.72 156.376C268.026 156.376 266.836 157.79 266.836 159.974C266.836 162.158 268.026 163.572 269.72 163.572C271.414 163.572 272.604 162.158 272.604 159.974ZM277.131 159.974C277.131 162.144 278.307 163.572 279.959 163.572C281.135 163.572 281.989 162.858 282.297 161.682L283.977 162.256C283.389 164.034 281.989 165.154 279.959 165.154C277.285 165.154 275.339 163.026 275.339 159.974C275.339 156.922 277.285 154.794 279.959 154.794C281.989 154.794 283.389 155.914 283.977 157.692L282.297 158.266C281.989 157.09 281.135 156.376 279.959 156.376C278.307 156.376 277.131 157.804 277.131 159.974ZM286.987 161.108V165H285.195V154.948H289.213C291.453 154.948 292.853 155.998 292.853 158.028C292.853 159.61 291.985 160.618 290.515 160.968L293.105 165H291.061L288.611 161.108H286.987ZM286.987 159.568H289.115C290.403 159.568 291.089 159.008 291.089 158.028C291.089 157.034 290.403 156.488 289.115 156.488H286.987V159.568Z" fill="#0A2540"/>
<path d="M39 141.5C54.1878 141.5 66.5 129.188 66.5 114C66.5 98.8122 54.1878 86.5 39 86.5C23.8122 86.5 11.5 98.8122 11.5 114C11.5 129.188 23.8122 141.5 39 141.5Z" stroke="#2988E2"/>
<path d="M12.492 165V154.948H14.284V163.432H19.016V165H12.492ZM20.0776 156.67V154.948H21.8136V156.67H20.0776ZM21.7856 157.65V165H20.1056V157.65H21.7856ZM27.0789 165H25.3849L22.6969 157.65H24.4609L26.2529 162.984L28.0309 157.65H29.7669L27.0789 165ZM33.6043 165.154C31.5043 165.154 30.0343 163.6 30.0343 161.332C30.0343 159.176 31.4903 157.51 33.5343 157.51C35.6623 157.51 36.7963 159.12 36.7963 161.136V161.696H31.6443C31.7703 162.956 32.5263 163.726 33.6043 163.726C34.4303 163.726 35.0883 163.306 35.3123 162.55L36.7543 163.096C36.2363 164.384 35.0743 165.154 33.6043 165.154ZM33.5203 158.924C32.6523 158.924 31.9803 159.442 31.7283 160.436H35.1023C35.0883 159.624 34.5843 158.924 33.5203 158.924ZM38.0568 165V157.65H39.7368V158.434C40.1568 157.944 40.8148 157.51 41.7668 157.51C43.3068 157.51 44.2308 158.574 44.2308 160.156V165H42.5508V160.646C42.5508 159.736 42.1868 159.078 41.2628 159.078C40.5068 159.078 39.7368 159.638 39.7368 160.688V165H38.0568ZM49.0535 165.154C46.9535 165.154 45.4835 163.6 45.4835 161.332C45.4835 159.176 46.9395 157.51 48.9835 157.51C51.1115 157.51 52.2455 159.12 52.2455 161.136V161.696H47.0935C47.2195 162.956 47.9755 163.726 49.0535 163.726C49.8795 163.726 50.5375 163.306 50.7615 162.55L52.2035 163.096C51.6855 164.384 50.5235 165.154 49.0535 165.154ZM48.9695 158.924C48.1015 158.924 47.4295 159.442 47.1775 160.436H50.5515C50.5375 159.624 50.0335 158.924 48.9695 158.924ZM52.736 163.6L53.996 162.592C54.43 163.306 55.27 163.782 56.124 163.782C56.838 163.782 57.496 163.53 57.496 162.872C57.496 162.242 56.88 162.172 55.718 161.934C54.556 161.696 53.226 161.402 53.226 159.834C53.226 158.49 54.402 157.51 56.096 157.51C57.384 157.51 58.532 158.084 59.064 158.896L57.93 159.918C57.51 159.26 56.81 158.882 55.998 158.882C55.312 158.882 54.864 159.19 54.864 159.68C54.864 160.212 55.396 160.31 56.32 160.506C57.566 160.772 59.134 161.038 59.134 162.718C59.134 164.202 57.776 165.154 56.11 165.154C54.752 165.154 53.394 164.608 52.736 163.6ZM59.654 163.6L60.914 162.592C61.348 163.306 62.188 163.782 63.042 163.782C63.756 163.782 64.414 163.53 64.414 162.872C64.414 162.242 63.798 162.172 62.636 161.934C61.474 161.696 60.144 161.402 60.144 159.834C60.144 158.49 61.32 157.51 63.014 157.51C64.302 157.51 65.45 158.084 65.982 158.896L64.848 159.918C64.428 159.26 63.728 158.882 62.916 158.882C62.23 158.882 61.782 159.19 61.782 159.68C61.782 160.212 62.314 160.31 63.238 160.506C64.484 160.772 66.052 161.038 66.052 162.718C66.052 164.202 64.694 165.154 63.028 165.154C61.67 165.154 60.312 164.608 59.654 163.6ZM7.19769 183H5.30769L1.56969 172.948H3.50169L6.27369 180.76L9.05969 172.948H10.9077L7.19769 183ZM13.9783 183.154C11.8783 183.154 10.4083 181.6 10.4083 179.332C10.4083 177.176 11.8643 175.51 13.9083 175.51C16.0363 175.51 17.1703 177.12 17.1703 179.136V179.696H12.0183C12.1443 180.956 12.9003 181.726 13.9783 181.726C14.8043 181.726 15.4623 181.306 15.6863 180.55L17.1283 181.096C16.6103 182.384 15.4483 183.154 13.9783 183.154ZM13.8943 176.924C13.0263 176.924 12.3543 177.442 12.1023 178.436H15.4763C15.4623 177.624 14.9583 176.924 13.8943 176.924ZM22.6028 175.636V177.316C22.3928 177.288 22.2248 177.274 21.9868 177.274C20.9228 177.274 20.1108 177.96 20.1108 179.136V183H18.4308V175.65H20.1108V176.742C20.4328 176.056 21.1888 175.608 22.1268 175.608C22.3228 175.608 22.4768 175.622 22.6028 175.636ZM23.7349 174.67V172.948H25.4709V174.67H23.7349ZM25.4429 175.65V183H23.7629V175.65H25.4429ZM30.6102 172.808V174.278C30.4142 174.264 30.3162 174.264 30.1062 174.264C29.4482 174.264 29.0842 174.46 29.0842 175.3V175.65H30.5822V177.078H29.0842V183H27.4042V177.078H26.3822V175.65H27.4042V175.174C27.4042 173.648 28.2582 172.794 29.9102 172.794C30.1762 172.794 30.3022 172.794 30.6102 172.808ZM31.5142 174.67V172.948H33.2502V174.67H31.5142ZM33.2222 175.65V183H31.5422V175.65H33.2222ZM36.2055 179.332C36.2055 180.83 36.9895 181.698 38.1375 181.698C39.0335 181.698 39.5795 181.11 39.7895 180.298L41.2315 181.026C40.8535 182.216 39.7335 183.154 38.1375 183.154C36.0375 183.154 34.5255 181.6 34.5255 179.332C34.5255 177.064 36.0375 175.51 38.1375 175.51C39.7195 175.51 40.8115 176.406 41.2035 177.582L39.7895 178.352C39.5795 177.554 39.0335 176.952 38.1375 176.952C36.9895 176.952 36.2055 177.834 36.2055 179.332ZM44.33 183.126C42.93 183.126 41.852 182.272 41.852 180.956C41.852 179.556 42.902 178.94 44.316 178.646L46.346 178.226V178.1C46.346 177.4 45.982 176.966 45.086 176.966C44.288 176.966 43.868 177.33 43.672 178.044L42.09 177.68C42.454 176.462 43.532 175.51 45.156 175.51C46.92 175.51 47.984 176.35 47.984 178.044V181.208C47.984 181.628 48.166 181.754 48.628 181.698V183C47.41 183.14 46.766 182.902 46.514 182.3C46.052 182.818 45.282 183.126 44.33 183.126ZM46.346 180.41V179.514L44.764 179.85C44.05 180.004 43.518 180.228 43.518 180.886C43.518 181.46 43.938 181.782 44.582 181.782C45.478 181.782 46.346 181.306 46.346 180.41ZM49.9755 181.152V177.078H48.9535V175.65H49.9755V173.494H51.6275V175.65H53.1675V177.078H51.6275V180.886C51.6275 181.544 52.0055 181.614 52.6075 181.614C52.8875 181.614 53.0415 181.6 53.2935 181.572V182.986C52.9855 183.042 52.5655 183.084 52.1315 183.084C50.7315 183.084 49.9755 182.65 49.9755 181.152ZM54.5239 174.67V172.948H56.2599V174.67H54.5239ZM56.2319 175.65V183H54.5519V175.65H56.2319ZM64.6192 179.332C64.6192 181.614 63.1492 183.154 61.0772 183.154C59.0052 183.154 57.5352 181.614 57.5352 179.332C57.5352 177.05 59.0052 175.51 61.0772 175.51C63.1492 175.51 64.6192 177.05 64.6192 179.332ZM59.2292 179.332C59.2292 180.83 59.9432 181.74 61.0772 181.74C62.2112 181.74 62.9252 180.83 62.9252 179.332C62.9252 177.834 62.2112 176.924 61.0772 176.924C59.9432 176.924 59.2292 177.834 59.2292 179.332ZM65.9269 183V175.65H67.6069V176.434C68.0269 175.944 68.6849 175.51 69.6369 175.51C71.1769 175.51 72.1009 176.574 72.1009 178.156V183H70.4209V178.646C70.4209 177.736 70.0569 177.078 69.1329 177.078C68.3769 177.078 67.6069 177.638 67.6069 178.688V183H65.9269Z" fill="#0A2540"/>
<path d="M159 141.5C174.188 141.5 186.5 129.188 186.5 114C186.5 98.8122 174.188 86.5 159 86.5C143.812 86.5 131.5 98.8122 131.5 114C131.5 129.188 143.812 141.5 159 141.5Z" stroke="#2988E2"/>
<path d="M125.8 165H124.036V154.948H130.742V156.516H125.8V159.246H129.944V160.814H125.8V165ZM133.226 165.126C131.826 165.126 130.748 164.272 130.748 162.956C130.748 161.556 131.798 160.94 133.212 160.646L135.242 160.226V160.1C135.242 159.4 134.878 158.966 133.982 158.966C133.184 158.966 132.764 159.33 132.568 160.044L130.986 159.68C131.35 158.462 132.428 157.51 134.052 157.51C135.816 157.51 136.88 158.35 136.88 160.044V163.208C136.88 163.628 137.062 163.754 137.524 163.698V165C136.306 165.14 135.662 164.902 135.41 164.3C134.948 164.818 134.178 165.126 133.226 165.126ZM135.242 162.41V161.514L133.66 161.85C132.946 162.004 132.414 162.228 132.414 162.886C132.414 163.46 132.834 163.782 133.478 163.782C134.374 163.782 135.242 163.306 135.242 162.41ZM139.936 161.332C139.936 162.83 140.72 163.698 141.868 163.698C142.764 163.698 143.31 163.11 143.52 162.298L144.962 163.026C144.584 164.216 143.464 165.154 141.868 165.154C139.768 165.154 138.256 163.6 138.256 161.332C138.256 159.064 139.768 157.51 141.868 157.51C143.45 157.51 144.542 158.406 144.934 159.582L143.52 160.352C143.31 159.554 142.764 158.952 141.868 158.952C140.72 158.952 139.936 159.834 139.936 161.332ZM149.086 165.154C146.986 165.154 145.516 163.6 145.516 161.332C145.516 159.176 146.972 157.51 149.016 157.51C151.144 157.51 152.278 159.12 152.278 161.136V161.696H147.126C147.252 162.956 148.008 163.726 149.086 163.726C149.912 163.726 150.57 163.306 150.794 162.55L152.236 163.096C151.718 164.384 150.556 165.154 149.086 165.154ZM149.002 158.924C148.134 158.924 147.462 159.442 147.21 160.436H150.584C150.57 159.624 150.066 158.924 149.002 158.924ZM158.103 160.688V165H156.423V157.65H158.103V158.434C158.509 157.944 159.139 157.51 160.119 157.51C161.001 157.51 161.659 157.902 162.065 158.532C162.513 158.056 163.213 157.51 164.347 157.51C165.859 157.51 166.839 158.574 166.839 160.156V165H165.159V160.646C165.159 159.736 164.823 159.078 163.927 159.078C163.213 159.078 162.471 159.638 162.471 160.688V165H160.791V160.646C160.791 159.736 160.455 159.078 159.559 159.078C158.845 159.078 158.103 159.638 158.103 160.688ZM170.496 165.126C169.096 165.126 168.018 164.272 168.018 162.956C168.018 161.556 169.068 160.94 170.482 160.646L172.512 160.226V160.1C172.512 159.4 172.148 158.966 171.252 158.966C170.454 158.966 170.034 159.33 169.838 160.044L168.256 159.68C168.62 158.462 169.698 157.51 171.322 157.51C173.086 157.51 174.15 158.35 174.15 160.044V163.208C174.15 163.628 174.332 163.754 174.794 163.698V165C173.576 165.14 172.932 164.902 172.68 164.3C172.218 164.818 171.448 165.126 170.496 165.126ZM172.512 162.41V161.514L170.93 161.85C170.216 162.004 169.684 162.228 169.684 162.886C169.684 163.46 170.104 163.782 170.748 163.782C171.644 163.782 172.512 163.306 172.512 162.41ZM176.141 163.152V159.078H175.119V157.65H176.141V155.494H177.793V157.65H179.333V159.078H177.793V162.886C177.793 163.544 178.171 163.614 178.773 163.614C179.053 163.614 179.207 163.6 179.459 163.572V164.986C179.151 165.042 178.731 165.084 178.297 165.084C176.897 165.084 176.141 164.65 176.141 163.152ZM181.868 161.332C181.868 162.83 182.652 163.698 183.8 163.698C184.696 163.698 185.242 163.11 185.452 162.298L186.894 163.026C186.516 164.216 185.396 165.154 183.8 165.154C181.7 165.154 180.188 163.6 180.188 161.332C180.188 159.064 181.7 157.51 183.8 157.51C185.382 157.51 186.474 158.406 186.866 159.582L185.452 160.352C185.242 159.554 184.696 158.952 183.8 158.952C182.652 158.952 181.868 159.834 181.868 161.332ZM187.909 165V154.948H189.589V158.434C190.009 157.944 190.667 157.51 191.619 157.51C193.159 157.51 194.083 158.574 194.083 160.156V165H192.403V160.646C192.403 159.736 192.039 159.078 191.115 159.078C190.359 159.078 189.589 159.638 189.589 160.688V165H187.909Z" fill="#0A2540"/>
<path d="M31.087 103H26.5C25.6716 103 25 103.672 25 104.5V109.087" stroke="#2988E2" stroke-linecap="round"/>
<path d="M47.1566 119.435V121.261" stroke="#2988E2" stroke-linecap="round"/>
<path d="M40.826 125.522H43.2608" stroke="#2988E2" stroke-linecap="round"/>
<path d="M31.087 125.522H26.5C25.6716 125.522 25 124.85 25 124.022V119.435" stroke="#2988E2" stroke-linecap="round"/>
<path d="M40.826 103H45.4129C46.2414 103 46.9129 103.672 46.9129 104.5V109.087" stroke="#2988E2" stroke-linecap="round"/>
<path d="M31.6957 119.435C34.1305 121.261 36.5652 121.87 40.2174 119.435" stroke="#37CC00"/>
<path d="M31.5528 112.184C31.5528 111.381 31.6468 110.25 31.8064 109.461C31.8931 109.033 31.97 108.602 32.1618 108.203C32.493 107.515 32.9148 107.544 33.6154 107.517C34.2388 107.494 34.6672 106.776 35.1472 106.426C35.6425 106.065 36.7375 106.353 37.2689 106.526C38.2471 106.845 39.0863 107.314 39.7319 108.434C40.3775 109.555 40.0106 111.242 40.2175 112.13M39.7319 114.423C39.7063 114.863 39.5954 115.036 39.3125 115.39C38.2426 116.727 37.1792 118.238 35.2325 117.995C34.3622 117.886 33.5073 117.014 33.0289 116.342C32.5032 115.603 32.1661 114.63 31.9769 113.748C31.885 113.319 31.3853 113.149 31.2697 112.756C31.1788 112.447 31.2311 112.184 31.5789 112.184" stroke="#37CC00" stroke-linecap="round"/>
<path d="M31.7654 112.186C31.8212 112.052 32.0204 111.956 32.1156 111.845C32.3008 111.63 32.422 111.38 32.5772 111.145C32.689 110.976 32.767 110.813 32.7986 110.611C32.8326 110.393 32.8259 110.184 32.9073 109.975C33.0693 109.558 33.3576 109.32 33.7862 109.186C34.008 109.116 34.2956 109.26 34.5081 109.312C34.844 109.394 35.1254 109.624 35.4554 109.706C35.7131 109.771 36.0478 109.577 36.2793 109.481C36.6142 109.342 36.9758 109.36 37.3313 109.36C37.4475 109.36 37.5811 109.344 37.6936 109.382C37.8672 109.441 38.0181 109.587 38.1565 109.701C38.469 109.959 39.3815 111.178 39.6088 111.522" stroke="#37CC00" stroke-linecap="round"/>
<path d="M39.3438 111.186C39.451 111.33 39.5847 111.463 39.7061 111.596C39.9574 111.87 40.303 112.014 40.4843 112.36C40.5997 112.581 40.6063 112.805 40.5071 113.03C40.4271 113.211 40.2985 113.3 40.1757 113.447C40.0692 113.575 39.9595 113.707 39.859 113.839C39.7702 113.956 39.7551 114.149 39.7114 114.287" stroke="#37CC00" stroke-linecap="round"/>
<path d="M33.9891 117.475C33.941 118.142 33.5088 118.584 32.9674 118.952C32.5986 119.203 32.2089 119.34 31.7705 119.409C31.2887 119.484 30.7958 119.442 30.3164 119.527C28.8293 119.791 28.6322 121.327 28.5703 122.565" stroke="#37CC00" stroke-linecap="round"/>
<path d="M37.7827 117.243C37.8308 117.911 38.4587 118.458 39.0001 118.826C39.3689 119.077 40.0898 119.34 40.5282 119.408C41.01 119.484 41.5029 119.442 41.9823 119.527C43.4694 119.79 43.6665 121.327 43.7284 122.565" stroke="#37CC00" stroke-linecap="round"/>
<circle cx="48.7393" cy="126.739" r="3.86087" stroke="#37CC00" stroke-width="0.8"/>
<path d="M46.9129 126.739L48.3768 128.203C48.5608 128.387 48.8687 128.349 49.0026 128.126L50.5651 125.522" stroke="#37CC00" stroke-width="0.8" stroke-linecap="round"/>
<path d="M145.159 105H142.4C142.179 105 142 105.179 142 105.4V108.159" stroke="#2988E2" stroke-linecap="round"/>
<path d="M145.159 120.796H142.4C142.179 120.796 142 120.617 142 120.396V117.637" stroke="#2988E2" stroke-linecap="round"/>
<path d="M154.52 120.796H157.279C157.5 120.796 157.679 120.617 157.679 120.396V117.637" stroke="#2988E2" stroke-linecap="round"/>
<path d="M154.52 105H157.279C157.5 105 157.679 105.179 157.679 105.4V108.159" stroke="#2988E2" stroke-linecap="round"/>
<path d="M148.318 115.305L149.066 116.052C149.232 116.219 149.505 116.206 149.656 116.025L152.018 113.19" stroke="#37CC00" stroke-linecap="round"/>
<path d="M145.978 113.19H145.793C145.572 113.19 145.393 113.369 145.393 113.59V115.131C145.393 115.351 145.572 115.531 145.793 115.531H146.165C146.385 115.531 146.562 115.709 146.578 115.929C146.646 116.811 146.943 117.458 147.632 118.284C148.05 118.785 148.687 119.041 149.339 119.041H150.733C151.429 119.041 152.111 118.753 152.512 118.184C152.973 117.531 153.263 116.88 153.512 115.845C153.556 115.662 153.718 115.531 153.906 115.531H154.354C154.575 115.531 154.754 115.351 154.754 115.131V113.59C154.754 113.369 154.575 113.19 154.354 113.19H154.169M145.978 113.19H146.143C146.372 113.19 146.553 112.998 146.546 112.77C146.487 110.858 146.745 110.05 147.435 109.364C147.592 109.208 147.847 109.235 148.001 109.394C149.049 110.474 150.335 110.773 151.896 110.837C152.542 110.863 153.109 111.292 153.266 111.92L153.508 112.887C153.552 113.065 153.712 113.19 153.896 113.19H154.169M145.978 113.19C144.435 109.174 145.689 107.273 147.581 107.872C147.679 107.903 147.79 107.901 147.885 107.861C154.558 105.099 154.749 108.545 154.169 113.19" stroke="#37CC00" stroke-linecap="round"/>
<path d="M163.88 105H161.121C160.9 105 160.721 105.179 160.721 105.4V108.159" stroke="#2988E2" stroke-linecap="round"/>
<path d="M163.88 120.796H161.121C160.9 120.796 160.721 120.617 160.721 120.396V117.637" stroke="#2988E2" stroke-linecap="round"/>
<path d="M173.241 120.796H176C176.221 120.796 176.4 120.617 176.4 120.396V117.637" stroke="#2988E2" stroke-linecap="round"/>
<path d="M173.241 105H176C176.221 105 176.4 105.179 176.4 105.4V108.159" stroke="#2988E2" stroke-linecap="round"/>
<path d="M173.476 113.383V115.171C173.476 115.392 173.297 115.571 173.076 115.571H172.505C172.317 115.571 172.154 115.702 172.111 115.886C171.822 117.099 171.484 117.837 170.93 118.599C170.52 119.162 169.842 119.452 169.146 119.452H167.381C166.729 119.452 166.094 119.195 165.671 118.698C164.848 117.732 164.503 116.995 164.433 115.969C164.418 115.749 164.241 115.571 164.021 115.571H163.526C163.305 115.571 163.126 115.392 163.126 115.171V113.383C163.126 113.162 163.305 112.983 163.526 112.983H163.773C162.062 108.53 163.46 106.429 165.561 107.107C165.659 107.139 165.77 107.137 165.866 107.097C173.26 104.03 173.472 107.843 172.829 112.983H173.076C173.297 112.983 173.476 113.162 173.476 113.383Z" fill="#37CC00"/>
<path d="M163.773 112.983H163.526C163.305 112.983 163.126 113.162 163.126 113.383V115.171C163.126 115.392 163.305 115.571 163.526 115.571H164.021C164.241 115.571 164.418 115.749 164.433 115.969C164.503 116.995 164.848 117.732 165.671 118.698C166.094 119.195 166.729 119.452 167.381 119.452H169.146C169.842 119.452 170.52 119.162 170.93 118.599C171.484 117.837 171.822 117.099 172.111 115.886C172.154 115.702 172.317 115.571 172.505 115.571H173.076C173.297 115.571 173.476 115.392 173.476 115.171V113.383C173.476 113.162 173.297 112.983 173.076 112.983H172.829M163.773 112.983H163.999C164.228 112.983 164.409 112.79 164.402 112.562C164.33 110.388 164.623 109.493 165.414 108.722C165.573 108.568 165.827 108.595 165.98 108.755C167.171 110.001 168.64 110.324 170.433 110.385C171.079 110.407 171.646 110.838 171.803 111.465L172.107 112.68C172.151 112.858 172.311 112.983 172.495 112.983H172.829M163.773 112.983C162.062 108.53 163.46 106.429 165.561 107.107C165.659 107.139 165.77 107.137 165.866 107.097C173.26 104.03 173.472 107.843 172.829 112.983" stroke="white" stroke-width="0.5" stroke-linecap="round"/>
<path d="M166.36 115.269L167.193 116.102C167.36 116.268 167.633 116.256 167.784 116.075L170.36 112.983" stroke="white" stroke-linecap="round"/>
<path fill-rule="evenodd" clip-rule="evenodd" d="M269 106H276.944V107H269V115.091L268 115.086V107V106H269ZM268 120.197V128V129H269H276.944V128H269V120.202L268 120.197ZM290 120.306V128H282.056V129H290H291V128V120.311L290 120.306ZM291 115.2V107V106H290H282.056V107H290V115.195L291 115.2Z" fill="#2988E2"/>
<path d="M276.944 106H277.294V105.65H276.944V106ZM276.944 107V107.35H277.294V107H276.944ZM269 107V106.65H268.65V107H269ZM269 115.091L268.998 115.441L269.35 115.443V115.091H269ZM268 115.086H267.65V115.434L267.998 115.436L268 115.086ZM268 106V105.65H267.65V106H268ZM268 120.197L268.002 119.847L267.65 119.846V120.197H268ZM268 129H267.65V129.35H268V129ZM276.944 129V129.35H277.294V129H276.944ZM276.944 128H277.294V127.65H276.944V128ZM269 128H268.65V128.35H269V128ZM269 120.202H269.35V119.854L269.002 119.852L269 120.202ZM290 128V128.35H290.35V128H290ZM290 120.306L290.002 119.956L289.65 119.954V120.306H290ZM282.056 128V127.65H281.706V128H282.056ZM282.056 129H281.706V129.35H282.056V129ZM291 129V129.35H291.35V129H291ZM291 120.311H291.35V119.963L291.002 119.961L291 120.311ZM291 115.2L290.998 115.55L291.35 115.552V115.2H291ZM291 106H291.35V105.65H291V106ZM282.056 106V105.65H281.706V106H282.056ZM282.056 107H281.706V107.35H282.056V107ZM290 107H290.35V106.65H290V107ZM290 115.195H289.65V115.543L289.998 115.545L290 115.195ZM276.944 105.65H269V106.35H276.944V105.65ZM277.294 107V106H276.594V107H277.294ZM269 107.35H276.944V106.65H269V107.35ZM269.35 115.091V107H268.65V115.091H269.35ZM267.998 115.436L268.998 115.441L269.002 114.741L268.002 114.736L267.998 115.436ZM267.65 107V115.086H268.35V107H267.65ZM267.65 106V107H268.35V106H267.65ZM269 105.65H268V106.35H269V105.65ZM267.65 120.197V128H268.35V120.197H267.65ZM267.65 128V129H268.35V128H267.65ZM268 129.35H269V128.65H268V129.35ZM269 129.35H276.944V128.65H269V129.35ZM277.294 129V128H276.594V129H277.294ZM276.944 127.65H269V128.35H276.944V127.65ZM269.35 128V120.202H268.65V128H269.35ZM269.002 119.852L268.002 119.847L267.998 120.547L268.998 120.552L269.002 119.852ZM290.35 128V120.306H289.65V128H290.35ZM282.056 128.35H290V127.65H282.056V128.35ZM282.406 129V128H281.706V129H282.406ZM290 128.65H282.056V129.35H290V128.65ZM291 128.65H290V129.35H291V128.65ZM290.65 128V129H291.35V128H290.65ZM290.65 120.311V128H291.35V120.311H290.65ZM291.002 119.961L290.002 119.956L289.998 120.656L290.998 120.661L291.002 119.961ZM290.65 107V115.2H291.35V107H290.65ZM290.65 106V107H291.35V106H290.65ZM290 106.35H291V105.65H290V106.35ZM282.056 106.35H290V105.65H282.056V106.35ZM282.406 107V106H281.706V107H282.406ZM290 106.65H282.056V107.35H290V106.65ZM290.35 115.195V107H289.65V115.195H290.35ZM289.998 115.545L290.998 115.55L291.002 114.85L290.002 114.845L289.998 115.545Z" fill="#2988E2"/>
<path d="M271.901 118.304C271.901 116.852 272.833 115.839 274.126 115.839C275.418 115.839 276.35 116.852 276.35 118.304C276.35 119.756 275.418 120.769 274.126 120.769C272.833 120.769 271.901 119.756 271.901 118.304ZM275.498 118.304C275.498 117.265 274.932 116.592 274.126 116.592C273.319 116.592 272.753 117.265 272.753 118.304C272.753 119.343 273.319 120.016 274.126 120.016C274.932 120.016 275.498 119.343 275.498 118.304ZM277.652 118.304C277.652 119.336 278.211 120.016 278.998 120.016C279.557 120.016 279.963 119.676 280.11 119.116L280.909 119.39C280.63 120.236 279.963 120.769 278.998 120.769C277.725 120.769 276.799 119.756 276.799 118.304C276.799 116.852 277.725 115.839 278.998 115.839C279.963 115.839 280.63 116.372 280.909 117.218L280.11 117.491C279.963 116.931 279.557 116.592 278.998 116.592C278.211 116.592 277.652 117.271 277.652 118.304ZM282.342 118.843V120.695H281.489V115.912H283.401C284.467 115.912 285.133 116.412 285.133 117.378C285.133 118.131 284.72 118.61 284.02 118.777L285.253 120.695H284.28L283.114 118.843H282.342ZM282.342 118.111H283.354C283.967 118.111 284.293 117.844 284.293 117.378C284.293 116.905 283.967 116.645 283.354 116.645H282.342V118.111Z" fill="#37CC00" stroke="#37CC00" stroke-width="0.5"/>
<rect x="387.306" y="104.5" width="26.5242" height="17.3495" rx="1" fill="white" stroke="#2988E2"/>
<rect x="400.306" y="109.374" width="10.4854" height="1.31068" rx="0.655338" fill="#2988E2"/>
<rect x="400.306" y="112.388" width="10.4854" height="1.31068" rx="0.655338" fill="#2988E2"/>
<rect x="400.306" y="115.534" width="6.16017" height="1.31068" rx="0.655338" fill="#2988E2"/>
<ellipse cx="394.342" cy="110.593" rx="2.29368" ry="2.29368" fill="#2988E2"/>
<path d="M390.214 114.673C390.214 114.121 390.661 113.673 391.214 113.673H397.471C398.023 113.673 398.471 114.121 398.471 114.673V117.998H390.214V114.673Z" fill="#2988E2"/>
<ellipse cx="384.534" cy="117.107" rx="5.53396" ry="5.53396" fill="#37CC00"/>
<path d="M381.563 117.232L382.886 118.996C383.026 119.183 383.294 119.211 383.47 119.057L387.363 115.651" stroke="white" stroke-linecap="round"/>
</svg>
