<svg width="472" height="176" viewBox="0 0 472 176" fill="none" xmlns="http://www.w3.org/2000/svg">
<path d="M23.394 12.538C23.394 15.598 25.086 17.668 27.48 17.668C29.154 17.668 30.36 16.696 30.828 15.058L32.466 15.598C31.71 17.83 29.946 19.198 27.48 19.198C24.132 19.198 21.666 16.48 21.666 12.538C21.666 8.596 24.132 5.878 27.48 5.878C29.946 5.878 31.71 7.246 32.466 9.478L30.828 10.018C30.36 8.38 29.154 7.408 27.48 7.408C25.086 7.408 23.394 9.478 23.394 12.538ZM42.3152 14.302C42.3152 17.218 40.5152 19.198 37.9412 19.198C35.3672 19.198 33.5672 17.218 33.5672 14.302C33.5672 11.386 35.3672 9.406 37.9412 9.406C40.5152 9.406 42.3152 11.386 42.3152 14.302ZM35.2052 14.302C35.2052 16.444 36.2852 17.812 37.9412 17.812C39.5972 17.812 40.6772 16.444 40.6772 14.302C40.6772 12.142 39.5972 10.774 37.9412 10.774C36.2852 10.774 35.2052 12.142 35.2052 14.302ZM44.3754 19V9.586H45.9954V10.864C46.5354 10.09 47.4714 9.406 48.8034 9.406C50.8014 9.406 51.9354 10.792 51.9354 12.79V19H50.3154V13.222C50.3154 11.908 49.7574 10.918 48.3534 10.918C47.1834 10.918 45.9954 11.818 45.9954 13.384V19H44.3754ZM58.6395 5.914V7.354C58.3695 7.318 58.2075 7.318 57.9375 7.318C56.9835 7.318 56.4615 7.732 56.4615 8.938V9.586H58.5495V10.972H56.4615V19H54.8415V10.972H53.4195V9.586H54.8415V8.83C54.8415 6.994 55.8495 5.878 57.7755 5.878C58.0995 5.878 58.2795 5.896 58.6395 5.914ZM59.9831 7.948V6.076H61.7471V7.948H59.9831ZM61.6751 9.586V19H60.0551V9.586H61.6751ZM69.2573 9.55V11.188C68.9873 11.134 68.7713 11.116 68.4653 11.116C67.0973 11.116 65.9993 12.196 65.9993 13.852V19H64.3793V9.586H65.9993V11.188C66.4133 10.234 67.3313 9.514 68.6093 9.514C68.8613 9.514 69.0953 9.532 69.2573 9.55ZM72.6614 13.366V19H71.0414V9.586H72.6614V10.864C73.1654 10.09 74.0654 9.406 75.3794 9.406C76.6394 9.406 77.5214 10.036 77.9894 11.008C78.5114 10.234 79.5194 9.406 80.9954 9.406C82.9394 9.406 84.1094 10.792 84.1094 12.79V19H82.4894V13.222C82.4894 11.908 81.9494 10.918 80.6174 10.918C79.5374 10.918 78.3854 11.836 78.3854 13.366V19H76.7654V13.222C76.7654 11.908 76.2254 10.918 74.8934 10.918C73.8134 10.918 72.6614 11.836 72.6614 13.366ZM90.59 19V6.076H92.318V17.488H98.762V19H90.59ZM100.342 7.948V6.076H102.106V7.948H100.342ZM102.034 9.586V19H100.414V9.586H102.034ZM108.753 19H107.151L103.623 9.586H105.333L107.979 17.02L110.589 9.586H112.281L108.753 19ZM117.378 19.198C114.768 19.198 112.968 17.2 112.968 14.302C112.968 11.494 114.75 9.406 117.306 9.406C119.934 9.406 121.32 11.404 121.32 14.014V14.554H114.516C114.606 16.534 115.74 17.794 117.378 17.794C118.638 17.794 119.538 17.11 119.826 15.994L121.248 16.498C120.672 18.172 119.25 19.198 117.378 19.198ZM117.288 10.792C115.92 10.792 114.894 11.71 114.606 13.312H119.682C119.646 11.98 118.926 10.792 117.288 10.792ZM123.336 19V9.586H124.956V10.864C125.496 10.09 126.432 9.406 127.764 9.406C129.762 9.406 130.896 10.792 130.896 12.79V19H129.276V13.222C129.276 11.908 128.718 10.918 127.314 10.918C126.144 10.918 124.956 11.818 124.956 13.384V19H123.336ZM137.258 19.198C134.648 19.198 132.848 17.2 132.848 14.302C132.848 11.494 134.63 9.406 137.186 9.406C139.814 9.406 141.2 11.404 141.2 14.014V14.554H134.396C134.486 16.534 135.62 17.794 137.258 17.794C138.518 17.794 139.418 17.11 139.706 15.994L141.128 16.498C140.552 18.172 139.13 19.198 137.258 19.198ZM137.168 10.792C135.8 10.792 134.774 11.71 134.486 13.312H139.562C139.526 11.98 138.806 10.792 137.168 10.792ZM142.173 17.002L143.433 16.084C143.937 17.182 145.089 17.848 146.313 17.848C147.411 17.848 148.383 17.38 148.383 16.354C148.383 15.328 147.483 15.184 145.935 14.86C144.387 14.518 142.767 14.176 142.767 12.25C142.767 10.576 144.225 9.406 146.223 9.406C147.915 9.406 149.301 10.234 149.859 11.35L148.707 12.268C148.221 11.332 147.339 10.738 146.151 10.738C145.071 10.738 144.351 11.278 144.351 12.124C144.351 13.006 145.179 13.168 146.493 13.456C148.113 13.834 149.967 14.158 149.967 16.21C149.967 18.01 148.329 19.198 146.313 19.198C144.603 19.198 142.893 18.46 142.173 17.002ZM150.927 17.002L152.187 16.084C152.691 17.182 153.843 17.848 155.067 17.848C156.165 17.848 157.137 17.38 157.137 16.354C157.137 15.328 156.237 15.184 154.689 14.86C153.141 14.518 151.521 14.176 151.521 12.25C151.521 10.576 152.979 9.406 154.977 9.406C156.669 9.406 158.055 10.234 158.613 11.35L157.461 12.268C156.975 11.332 156.093 10.738 154.905 10.738C153.825 10.738 153.105 11.278 153.105 12.124C153.105 13.006 153.933 13.168 155.247 13.456C156.867 13.834 158.721 14.158 158.721 16.21C158.721 18.01 157.083 19.198 155.067 19.198C153.357 19.198 151.647 18.46 150.927 17.002ZM169.058 19.198C167.744 19.198 166.7 18.568 166.142 17.632V19H164.522V6.076H166.142V10.954C166.7 10.036 167.744 9.406 169.058 9.406C171.668 9.406 173.162 11.62 173.162 14.302C173.162 16.966 171.668 19.198 169.058 19.198ZM166.106 13.978V14.644C166.106 16.804 167.438 17.776 168.77 17.776C170.534 17.776 171.524 16.318 171.524 14.302C171.524 12.268 170.534 10.828 168.77 10.828C167.438 10.828 166.106 11.782 166.106 13.978ZM178.971 19.198C176.361 19.198 174.561 17.2 174.561 14.302C174.561 11.494 176.343 9.406 178.899 9.406C181.527 9.406 182.913 11.404 182.913 14.014V14.554H176.109C176.199 16.534 177.333 17.794 178.971 17.794C180.231 17.794 181.131 17.11 181.419 15.994L182.841 16.498C182.265 18.172 180.843 19.198 178.971 19.198ZM178.881 10.792C177.513 10.792 176.487 11.71 176.199 13.312H181.275C181.239 11.98 180.519 10.792 178.881 10.792ZM189.034 5.914V7.354C188.764 7.318 188.602 7.318 188.332 7.318C187.378 7.318 186.856 7.732 186.856 8.938V9.586H188.944V10.972H186.856V19H185.236V10.972H183.814V9.586H185.236V8.83C185.236 6.994 186.244 5.878 188.17 5.878C188.494 5.878 188.674 5.896 189.034 5.914ZM198.497 14.302C198.497 17.218 196.697 19.198 194.123 19.198C191.549 19.198 189.749 17.218 189.749 14.302C189.749 11.386 191.549 9.406 194.123 9.406C196.697 9.406 198.497 11.386 198.497 14.302ZM191.387 14.302C191.387 16.444 192.467 17.812 194.123 17.812C195.779 17.812 196.859 16.444 196.859 14.302C196.859 12.142 195.779 10.774 194.123 10.774C192.467 10.774 191.387 12.142 191.387 14.302ZM205.435 9.55V11.188C205.165 11.134 204.949 11.116 204.643 11.116C203.275 11.116 202.177 12.196 202.177 13.852V19H200.557V9.586H202.177V11.188C202.591 10.234 203.509 9.514 204.787 9.514C205.039 9.514 205.273 9.532 205.435 9.55ZM210.594 19.198C207.984 19.198 206.184 17.2 206.184 14.302C206.184 11.494 207.966 9.406 210.522 9.406C213.15 9.406 214.536 11.404 214.536 14.014V14.554H207.732C207.822 16.534 208.956 17.794 210.594 17.794C211.854 17.794 212.754 17.11 213.042 15.994L214.464 16.498C213.888 18.172 212.466 19.198 210.594 19.198ZM210.504 10.792C209.136 10.792 208.11 11.71 207.822 13.312H212.898C212.862 11.98 212.142 10.792 210.504 10.792ZM223.842 20.026C223.302 21.448 222.564 22.348 220.926 22.348C220.53 22.348 220.332 22.33 220.044 22.276V20.872C220.35 20.944 220.548 20.962 220.818 20.962C221.52 20.962 221.898 20.71 222.276 19.774L222.726 18.658L219.234 9.586H220.944L223.59 16.786L226.2 9.586H227.892L223.842 20.026ZM237.221 14.302C237.221 17.218 235.421 19.198 232.847 19.198C230.273 19.198 228.473 17.218 228.473 14.302C228.473 11.386 230.273 9.406 232.847 9.406C235.421 9.406 237.221 11.386 237.221 14.302ZM230.111 14.302C230.111 16.444 231.191 17.812 232.847 17.812C234.503 17.812 235.583 16.444 235.583 14.302C235.583 12.142 234.503 10.774 232.847 10.774C231.191 10.774 230.111 12.142 230.111 14.302ZM246.752 9.586V19H245.132V17.704C244.592 18.496 243.674 19.198 242.342 19.198C240.326 19.198 239.192 17.812 239.192 15.814V9.586H240.812V15.472C240.812 16.804 241.388 17.704 242.774 17.704C243.944 17.704 245.132 16.822 245.132 15.256V9.586H246.752ZM252.195 17.002L253.455 16.084C253.959 17.182 255.111 17.848 256.335 17.848C257.433 17.848 258.405 17.38 258.405 16.354C258.405 15.328 257.505 15.184 255.957 14.86C254.409 14.518 252.789 14.176 252.789 12.25C252.789 10.576 254.247 9.406 256.245 9.406C257.937 9.406 259.323 10.234 259.881 11.35L258.729 12.268C258.243 11.332 257.361 10.738 256.173 10.738C255.093 10.738 254.373 11.278 254.373 12.124C254.373 13.006 255.201 13.168 256.515 13.456C258.135 13.834 259.989 14.158 259.989 16.21C259.989 18.01 258.351 19.198 256.335 19.198C254.625 19.198 252.915 18.46 252.195 17.002ZM264.351 19.162C262.641 19.162 261.255 18.154 261.255 16.462C261.255 14.59 262.713 13.816 264.819 13.384L267.105 12.916V12.52C267.105 11.44 266.511 10.828 265.251 10.828C264.063 10.828 263.361 11.386 263.073 12.43L261.543 12.034C261.993 10.504 263.379 9.406 265.305 9.406C267.411 9.406 268.707 10.432 268.707 12.448V17.038C268.707 17.65 269.085 17.848 269.715 17.704V19C268.275 19.18 267.447 18.838 267.249 17.938C266.673 18.676 265.629 19.162 264.351 19.162ZM267.105 15.796V14.176L265.269 14.572C263.829 14.86 262.857 15.256 262.857 16.39C262.857 17.308 263.523 17.848 264.549 17.848C265.935 17.848 267.105 17.002 267.105 15.796ZM275.253 19H273.651L270.123 9.586H271.833L274.479 17.02L277.089 9.586H278.781L275.253 19ZM283.878 19.198C281.268 19.198 279.468 17.2 279.468 14.302C279.468 11.494 281.25 9.406 283.806 9.406C286.434 9.406 287.82 11.404 287.82 14.014V14.554H281.016C281.106 16.534 282.24 17.794 283.878 17.794C285.138 17.794 286.038 17.11 286.326 15.994L287.748 16.498C287.172 18.172 285.75 19.198 283.878 19.198ZM283.788 10.792C282.42 10.792 281.394 11.71 281.106 13.312H286.182C286.146 11.98 285.426 10.792 283.788 10.792ZM298.169 19.198C296.855 19.198 295.811 18.568 295.253 17.632V22.24H293.633V9.586H295.253V10.954C295.811 10.036 296.855 9.406 298.169 9.406C300.779 9.406 302.273 11.62 302.273 14.302C302.273 16.966 300.779 19.198 298.169 19.198ZM295.217 13.978V14.644C295.217 16.804 296.549 17.776 297.881 17.776C299.645 17.776 300.635 16.318 300.635 14.302C300.635 12.268 299.645 10.828 297.881 10.828C296.549 10.828 295.217 11.782 295.217 13.978ZM309.199 9.55V11.188C308.929 11.134 308.713 11.116 308.407 11.116C307.039 11.116 305.941 12.196 305.941 13.852V19H304.321V9.586H305.941V11.188C306.355 10.234 307.273 9.514 308.551 9.514C308.803 9.514 309.037 9.532 309.199 9.55ZM318.696 14.302C318.696 17.218 316.896 19.198 314.322 19.198C311.748 19.198 309.948 17.218 309.948 14.302C309.948 11.386 311.748 9.406 314.322 9.406C316.896 9.406 318.696 11.386 318.696 14.302ZM311.586 14.302C311.586 16.444 312.666 17.812 314.322 17.812C315.978 17.812 317.058 16.444 317.058 14.302C317.058 12.142 315.978 10.774 314.322 10.774C312.666 10.774 311.586 12.142 311.586 14.302ZM324.86 5.914V7.354C324.59 7.318 324.428 7.318 324.158 7.318C323.204 7.318 322.682 7.732 322.682 8.938V9.586H324.77V10.972H322.682V19H321.062V10.972H319.64V9.586H321.062V8.83C321.062 6.994 322.07 5.878 323.996 5.878C324.32 5.878 324.5 5.896 324.86 5.914ZM326.204 7.948V6.076H327.968V7.948H326.204ZM327.896 9.586V19H326.276V9.586H327.896ZM332.22 6.076V19H330.6V6.076H332.22ZM338.686 19.198C336.076 19.198 334.276 17.2 334.276 14.302C334.276 11.494 336.058 9.406 338.614 9.406C341.242 9.406 342.628 11.404 342.628 14.014V14.554H335.824C335.914 16.534 337.048 17.794 338.686 17.794C339.946 17.794 340.846 17.11 341.134 15.994L342.556 16.498C341.98 18.172 340.558 19.198 338.686 19.198ZM338.596 10.792C337.228 10.792 336.202 11.71 335.914 13.312H340.99C340.954 11.98 340.234 10.792 338.596 10.792ZM352.978 19.198C351.664 19.198 350.62 18.568 350.062 17.632V22.24H348.442V9.586H350.062V10.954C350.62 10.036 351.664 9.406 352.978 9.406C355.588 9.406 357.082 11.62 357.082 14.302C357.082 16.966 355.588 19.198 352.978 19.198ZM350.026 13.978V14.644C350.026 16.804 351.358 17.776 352.69 17.776C354.454 17.776 355.444 16.318 355.444 14.302C355.444 12.268 354.454 10.828 352.69 10.828C351.358 10.828 350.026 11.782 350.026 13.978ZM359.057 7.948V6.076H360.821V7.948H359.057ZM360.749 9.586V19H359.129V9.586H360.749ZM364.426 14.302C364.426 16.444 365.578 17.776 367.252 17.776C368.548 17.776 369.322 16.948 369.592 15.778L371.032 16.444C370.582 18.01 369.214 19.198 367.252 19.198C364.624 19.198 362.806 17.2 362.806 14.302C362.806 11.386 364.624 9.406 367.252 9.406C369.214 9.406 370.546 10.54 370.996 12.106L369.592 12.808C369.322 11.656 368.548 10.81 367.252 10.81C365.578 10.81 364.426 12.142 364.426 14.302ZM373.057 16.75V10.972H371.599V9.586H373.057V6.832H374.659V9.586H376.801V10.972H374.659V16.498C374.659 17.488 375.145 17.668 375.973 17.668C376.351 17.668 376.621 17.65 376.999 17.56V18.946C376.585 19.036 376.117 19.09 375.577 19.09C373.975 19.09 373.057 18.55 373.057 16.75ZM386.304 9.586V19H384.684V17.704C384.144 18.496 383.226 19.198 381.894 19.198C379.878 19.198 378.744 17.812 378.744 15.814V9.586H380.364V15.472C380.364 16.804 380.94 17.704 382.326 17.704C383.496 17.704 384.684 16.822 384.684 15.256V9.586H386.304ZM393.873 9.55V11.188C393.603 11.134 393.387 11.116 393.081 11.116C391.713 11.116 390.615 12.196 390.615 13.852V19H388.995V9.586H390.615V11.188C391.029 10.234 391.947 9.514 393.225 9.514C393.477 9.514 393.711 9.532 393.873 9.55ZM399.032 19.198C396.422 19.198 394.622 17.2 394.622 14.302C394.622 11.494 396.404 9.406 398.96 9.406C401.588 9.406 402.974 11.404 402.974 14.014V14.554H396.17C396.26 16.534 397.394 17.794 399.032 17.794C400.292 17.794 401.192 17.11 401.48 15.994L402.902 16.498C402.326 18.172 400.904 19.198 399.032 19.198ZM398.942 10.792C397.574 10.792 396.548 11.71 396.26 13.312H401.336C401.3 11.98 400.58 10.792 398.942 10.792ZM416.888 14.302C416.888 17.218 415.088 19.198 412.514 19.198C409.94 19.198 408.14 17.218 408.14 14.302C408.14 11.386 409.94 9.406 412.514 9.406C415.088 9.406 416.888 11.386 416.888 14.302ZM409.778 14.302C409.778 16.444 410.858 17.812 412.514 17.812C414.17 17.812 415.25 16.444 415.25 14.302C415.25 12.142 414.17 10.774 412.514 10.774C410.858 10.774 409.778 12.142 409.778 14.302ZM423.052 5.914V7.354C422.782 7.318 422.62 7.318 422.35 7.318C421.396 7.318 420.874 7.732 420.874 8.938V9.586H422.962V10.972H420.874V19H419.254V10.972H417.832V9.586H419.254V8.83C419.254 6.994 420.262 5.878 422.188 5.878C422.512 5.878 422.692 5.896 423.052 5.914ZM431.756 20.026C431.216 21.448 430.478 22.348 428.84 22.348C428.444 22.348 428.246 22.33 427.958 22.276V20.872C428.264 20.944 428.462 20.962 428.732 20.962C429.434 20.962 429.812 20.71 430.19 19.774L430.64 18.658L427.148 9.586H428.858L431.504 16.786L434.114 9.586H435.806L431.756 20.026ZM445.136 14.302C445.136 17.218 443.336 19.198 440.762 19.198C438.188 19.198 436.388 17.218 436.388 14.302C436.388 11.386 438.188 9.406 440.762 9.406C443.336 9.406 445.136 11.386 445.136 14.302ZM438.026 14.302C438.026 16.444 439.106 17.812 440.762 17.812C442.418 17.812 443.498 16.444 443.498 14.302C443.498 12.142 442.418 10.774 440.762 10.774C439.106 10.774 438.026 12.142 438.026 14.302ZM454.666 9.586V19H453.046V17.704C452.506 18.496 451.588 19.198 450.256 19.198C448.24 19.198 447.106 17.812 447.106 15.814V9.586H448.726V15.472C448.726 16.804 449.302 17.704 450.688 17.704C451.858 17.704 453.046 16.822 453.046 15.256V9.586H454.666ZM462.234 9.55V11.188C461.964 11.134 461.748 11.116 461.442 11.116C460.074 11.116 458.976 12.196 458.976 13.852V19H457.356V9.586H458.976V11.188C459.39 10.234 460.308 9.514 461.586 9.514C461.838 9.514 462.072 9.532 462.234 9.55ZM29.82 33.586V43H28.2V41.704C27.66 42.496 26.742 43.198 25.41 43.198C23.394 43.198 22.26 41.812 22.26 39.814V33.586H23.88V39.472C23.88 40.804 24.456 41.704 25.842 41.704C27.012 41.704 28.2 40.822 28.2 39.256V33.586H29.82ZM31.4662 41.002L32.7262 40.084C33.2302 41.182 34.3822 41.848 35.6062 41.848C36.7042 41.848 37.6762 41.38 37.6762 40.354C37.6762 39.328 36.7762 39.184 35.2282 38.86C33.6802 38.518 32.0602 38.176 32.0602 36.25C32.0602 34.576 33.5182 33.406 35.5162 33.406C37.2082 33.406 38.5942 34.234 39.1522 35.35L38.0002 36.268C37.5142 35.332 36.6322 34.738 35.4442 34.738C34.3642 34.738 33.6442 35.278 33.6442 36.124C33.6442 37.006 34.4722 37.168 35.7862 37.456C37.4062 37.834 39.2602 38.158 39.2602 40.21C39.2602 42.01 37.6222 43.198 35.6062 43.198C33.8962 43.198 32.1862 42.46 31.4662 41.002ZM45.0261 43.198C42.4161 43.198 40.6161 41.2 40.6161 38.302C40.6161 35.494 42.3981 33.406 44.9541 33.406C47.5821 33.406 48.9681 35.404 48.9681 38.014V38.554H42.1641C42.2541 40.534 43.3881 41.794 45.0261 41.794C46.2861 41.794 47.1861 41.11 47.4741 39.994L48.8961 40.498C48.3201 42.172 46.8981 43.198 45.0261 43.198ZM44.9361 34.792C43.5681 34.792 42.5421 35.71 42.2541 37.312H47.3301C47.2941 35.98 46.5741 34.792 44.9361 34.792ZM55.8628 33.55V35.188C55.5928 35.134 55.3768 35.116 55.0708 35.116C53.7028 35.116 52.6048 36.196 52.6048 37.852V43H50.9848V33.586H52.6048V35.188C53.0188 34.234 53.9368 33.514 55.2148 33.514C55.4668 33.514 55.7008 33.532 55.8628 33.55ZM56.4271 41.002L57.6871 40.084C58.1911 41.182 59.3431 41.848 60.5671 41.848C61.6651 41.848 62.6371 41.38 62.6371 40.354C62.6371 39.328 61.7371 39.184 60.1891 38.86C58.6411 38.518 57.0211 38.176 57.0211 36.25C57.0211 34.576 58.4791 33.406 60.4771 33.406C62.1691 33.406 63.5551 34.234 64.1131 35.35L62.9611 36.268C62.4751 35.332 61.5931 34.738 60.4051 34.738C59.3251 34.738 58.6051 35.278 58.6051 36.124C58.6051 37.006 59.4331 37.168 60.7471 37.456C62.3671 37.834 64.2211 38.158 64.2211 40.21C64.2211 42.01 62.5831 43.198 60.5671 43.198C58.8571 43.198 57.1471 42.46 56.4271 41.002ZM65.6712 43V40.876H67.7232V43H65.6712Z" fill="#425466"/>
<circle cx="3" cy="12" r="3" fill="#425466"/>
<path d="M29.37 83H27.984L24.042 72.362V83H22.422V70.076H24.78L28.704 80.696L32.646 70.076H34.932V83H33.33V72.362L29.37 83ZM40.0713 83.162C38.3613 83.162 36.9753 82.154 36.9753 80.462C36.9753 78.59 38.4333 77.816 40.5393 77.384L42.8253 76.916V76.52C42.8253 75.44 42.2313 74.828 40.9713 74.828C39.7833 74.828 39.0813 75.386 38.7933 76.43L37.2633 76.034C37.7133 74.504 39.0993 73.406 41.0253 73.406C43.1313 73.406 44.4273 74.432 44.4273 76.448V81.038C44.4273 81.65 44.8053 81.848 45.4353 81.704V83C43.9953 83.18 43.1673 82.838 42.9693 81.938C42.3933 82.676 41.3493 83.162 40.0713 83.162ZM42.8253 79.796V78.176L40.9893 78.572C39.5493 78.86 38.5773 79.256 38.5773 80.39C38.5773 81.308 39.2433 81.848 40.2693 81.848C41.6553 81.848 42.8253 81.002 42.8253 79.796ZM47.4399 80.75V74.972H45.9819V73.586H47.4399V70.832H49.0419V73.586H51.1839V74.972H49.0419V80.498C49.0419 81.488 49.5279 81.668 50.3559 81.668C50.7339 81.668 51.0039 81.65 51.3819 81.56V82.946C50.9679 83.036 50.4999 83.09 49.9599 83.09C48.3579 83.09 47.4399 82.55 47.4399 80.75ZM54.2243 78.302C54.2243 80.444 55.3763 81.776 57.0503 81.776C58.3463 81.776 59.1203 80.948 59.3903 79.778L60.8303 80.444C60.3803 82.01 59.0123 83.198 57.0503 83.198C54.4223 83.198 52.6043 81.2 52.6043 78.302C52.6043 75.386 54.4223 73.406 57.0503 73.406C59.0123 73.406 60.3443 74.54 60.7943 76.106L59.3903 76.808C59.1203 75.656 58.3463 74.81 57.0503 74.81C55.3763 74.81 54.2243 76.142 54.2243 78.302ZM62.6039 83V70.076H64.2239V74.864C64.7639 74.09 65.6999 73.406 67.0319 73.406C69.0299 73.406 70.1639 74.792 70.1639 76.79V83H68.5439V77.222C68.5439 75.908 67.9859 74.918 66.5819 74.918C65.4119 74.918 64.2239 75.818 64.2239 77.384V83H62.6039ZM76.6329 83V70.076H78.3609V81.488H84.8049V83H76.6329ZM86.3854 71.948V70.076H88.1494V71.948H86.3854ZM88.0774 73.586V83H86.4574V73.586H88.0774ZM94.7956 83H93.1936L89.6656 73.586H91.3756L94.0216 81.02L96.6316 73.586H98.3236L94.7956 83ZM103.421 83.198C100.811 83.198 99.0106 81.2 99.0106 78.302C99.0106 75.494 100.793 73.406 103.349 73.406C105.977 73.406 107.363 75.404 107.363 78.014V78.554H100.559C100.649 80.534 101.783 81.794 103.421 81.794C104.681 81.794 105.581 81.11 105.869 79.994L107.291 80.498C106.715 82.172 105.293 83.198 103.421 83.198ZM103.331 74.792C101.963 74.792 100.937 75.71 100.649 77.312H105.725C105.689 75.98 104.969 74.792 103.331 74.792ZM109.379 83V73.586H110.999V74.864C111.539 74.09 112.475 73.406 113.807 73.406C115.805 73.406 116.939 74.792 116.939 76.79V83H115.319V77.222C115.319 75.908 114.761 74.918 113.357 74.918C112.187 74.918 110.999 75.818 110.999 77.384V83H109.379ZM123.301 83.198C120.691 83.198 118.891 81.2 118.891 78.302C118.891 75.494 120.673 73.406 123.229 73.406C125.857 73.406 127.243 75.404 127.243 78.014V78.554H120.439C120.529 80.534 121.663 81.794 123.301 81.794C124.561 81.794 125.461 81.11 125.749 79.994L127.171 80.498C126.595 82.172 125.173 83.198 123.301 83.198ZM123.211 74.792C121.843 74.792 120.817 75.71 120.529 77.312H125.605C125.569 75.98 124.849 74.792 123.211 74.792ZM128.216 81.002L129.476 80.084C129.98 81.182 131.132 81.848 132.356 81.848C133.454 81.848 134.426 81.38 134.426 80.354C134.426 79.328 133.526 79.184 131.978 78.86C130.43 78.518 128.81 78.176 128.81 76.25C128.81 74.576 130.268 73.406 132.266 73.406C133.958 73.406 135.344 74.234 135.902 75.35L134.75 76.268C134.264 75.332 133.382 74.738 132.194 74.738C131.114 74.738 130.394 75.278 130.394 76.124C130.394 77.006 131.222 77.168 132.536 77.456C134.156 77.834 136.01 78.158 136.01 80.21C136.01 82.01 134.372 83.198 132.356 83.198C130.646 83.198 128.936 82.46 128.216 81.002ZM136.97 81.002L138.23 80.084C138.734 81.182 139.886 81.848 141.11 81.848C142.208 81.848 143.18 81.38 143.18 80.354C143.18 79.328 142.28 79.184 140.732 78.86C139.184 78.518 137.564 78.176 137.564 76.25C137.564 74.576 139.022 73.406 141.02 73.406C142.712 73.406 144.098 74.234 144.656 75.35L143.504 76.268C143.018 75.332 142.136 74.738 140.948 74.738C139.868 74.738 139.148 75.278 139.148 76.124C139.148 77.006 139.976 77.168 141.29 77.456C142.91 77.834 144.764 78.158 144.764 80.21C144.764 82.01 143.126 83.198 141.11 83.198C139.4 83.198 137.69 82.46 136.97 81.002ZM154.579 83H152.977L149.449 73.586H151.159L153.805 81.02L156.415 73.586H158.107L154.579 83ZM163.204 83.198C160.594 83.198 158.794 81.2 158.794 78.302C158.794 75.494 160.576 73.406 163.132 73.406C165.76 73.406 167.146 75.404 167.146 78.014V78.554H160.342C160.432 80.534 161.566 81.794 163.204 81.794C164.464 81.794 165.364 81.11 165.652 79.994L167.074 80.498C166.498 82.172 165.076 83.198 163.204 83.198ZM163.114 74.792C161.746 74.792 160.72 75.71 160.432 77.312H165.508C165.472 75.98 164.752 74.792 163.114 74.792ZM174.041 73.55V75.188C173.771 75.134 173.555 75.116 173.249 75.116C171.881 75.116 170.783 76.196 170.783 77.852V83H169.163V73.586H170.783V75.188C171.197 74.234 172.115 73.514 173.393 73.514C173.645 73.514 173.879 73.532 174.041 73.55ZM175.753 71.948V70.076H177.517V71.948H175.753ZM177.445 73.586V83H175.825V73.586H177.445ZM184.253 69.914V71.354C183.983 71.318 183.821 71.318 183.551 71.318C182.597 71.318 182.075 71.732 182.075 72.938V73.586H184.163V74.972H182.075V83H180.455V74.972H179.033V73.586H180.455V72.83C180.455 70.994 181.463 69.878 183.389 69.878C183.713 69.878 183.893 69.896 184.253 69.914ZM185.596 71.948V70.076H187.36V71.948H185.596ZM187.288 73.586V83H185.668V73.586H187.288ZM193.755 83.198C191.145 83.198 189.345 81.2 189.345 78.302C189.345 75.494 191.127 73.406 193.683 73.406C196.311 73.406 197.697 75.404 197.697 78.014V78.554H190.893C190.983 80.534 192.117 81.794 193.755 81.794C195.015 81.794 195.915 81.11 196.203 79.994L197.625 80.498C197.049 82.172 195.627 83.198 193.755 83.198ZM193.665 74.792C192.297 74.792 191.271 75.71 190.983 77.312H196.059C196.023 75.98 195.303 74.792 193.665 74.792ZM203.169 83.198C200.559 83.198 199.065 80.966 199.065 78.302C199.065 75.62 200.559 73.406 203.169 73.406C204.483 73.406 205.527 74.036 206.085 74.954V70.076H207.705V83H206.085V81.632C205.527 82.568 204.483 83.198 203.169 83.198ZM206.121 77.978C206.121 75.782 204.789 74.828 203.457 74.828C201.693 74.828 200.703 76.268 200.703 78.302C200.703 80.318 201.693 81.776 203.457 81.776C204.789 81.776 206.121 80.804 206.121 78.644V77.978ZM221.65 73.586V83H220.03V81.704C219.49 82.496 218.572 83.198 217.24 83.198C215.224 83.198 214.09 81.812 214.09 79.814V73.586H215.71V79.472C215.71 80.804 216.286 81.704 217.672 81.704C218.842 81.704 220.03 80.822 220.03 79.256V73.586H221.65ZM223.296 81.002L224.556 80.084C225.06 81.182 226.212 81.848 227.436 81.848C228.534 81.848 229.506 81.38 229.506 80.354C229.506 79.328 228.606 79.184 227.058 78.86C225.51 78.518 223.89 78.176 223.89 76.25C223.89 74.576 225.348 73.406 227.346 73.406C229.038 73.406 230.424 74.234 230.982 75.35L229.83 76.268C229.344 75.332 228.462 74.738 227.274 74.738C226.194 74.738 225.474 75.278 225.474 76.124C225.474 77.006 226.302 77.168 227.616 77.456C229.236 77.834 231.09 78.158 231.09 80.21C231.09 82.01 229.452 83.198 227.436 83.198C225.726 83.198 224.016 82.46 223.296 81.002ZM236.856 83.198C234.246 83.198 232.446 81.2 232.446 78.302C232.446 75.494 234.228 73.406 236.784 73.406C239.412 73.406 240.798 75.404 240.798 78.014V78.554H233.994C234.084 80.534 235.218 81.794 236.856 81.794C238.116 81.794 239.016 81.11 239.304 79.994L240.726 80.498C240.15 82.172 238.728 83.198 236.856 83.198ZM236.766 74.792C235.398 74.792 234.372 75.71 234.084 77.312H239.16C239.124 75.98 238.404 74.792 236.766 74.792ZM247.693 73.55V75.188C247.423 75.134 247.207 75.116 246.901 75.116C245.533 75.116 244.435 76.196 244.435 77.852V83H242.815V73.586H244.435V75.188C244.849 74.234 245.767 73.514 247.045 73.514C247.297 73.514 247.531 73.532 247.693 73.55ZM248.257 81.002L249.517 80.084C250.021 81.182 251.173 81.848 252.397 81.848C253.495 81.848 254.467 81.38 254.467 80.354C254.467 79.328 253.567 79.184 252.019 78.86C250.471 78.518 248.851 78.176 248.851 76.25C248.851 74.576 250.309 73.406 252.307 73.406C253.999 73.406 255.385 74.234 255.943 75.35L254.791 76.268C254.305 75.332 253.423 74.738 252.235 74.738C251.155 74.738 250.435 75.278 250.435 76.124C250.435 77.006 251.263 77.168 252.577 77.456C254.197 77.834 256.051 78.158 256.051 80.21C256.051 82.01 254.413 83.198 252.397 83.198C250.687 83.198 248.977 82.46 248.257 81.002ZM266.334 73.586H267.702L269.646 80.606L271.608 73.586H273.228L270.366 83H268.944L266.982 76.016L265.02 83H263.598L260.736 73.586H262.41L264.39 80.588L266.334 73.586ZM274.735 71.948V70.076H276.499V71.948H274.735ZM276.427 73.586V83H274.807V73.586H276.427ZM279.383 80.75V74.972H277.925V73.586H279.383V70.832H280.985V73.586H283.127V74.972H280.985V80.498C280.985 81.488 281.471 81.668 282.299 81.668C282.677 81.668 282.947 81.65 283.325 81.56V82.946C282.911 83.036 282.443 83.09 281.903 83.09C280.301 83.09 279.383 82.55 279.383 80.75ZM285.248 83V70.076H286.868V74.864C287.408 74.09 288.344 73.406 289.676 73.406C291.674 73.406 292.808 74.792 292.808 76.79V83H291.188V77.222C291.188 75.908 290.63 74.918 289.226 74.918C288.056 74.918 286.868 75.818 286.868 77.384V83H285.248ZM299.457 80.75V74.972H297.999V73.586H299.457V70.832H301.059V73.586H303.201V74.972H301.059V80.498C301.059 81.488 301.545 81.668 302.373 81.668C302.751 81.668 303.021 81.65 303.399 81.56V82.946C302.985 83.036 302.517 83.09 301.977 83.09C300.375 83.09 299.457 82.55 299.457 80.75ZM305.323 83V70.076H306.943V74.864C307.483 74.09 308.419 73.406 309.751 73.406C311.749 73.406 312.883 74.792 312.883 76.79V83H311.263V77.222C311.263 75.908 310.705 74.918 309.301 74.918C308.131 74.918 306.943 75.818 306.943 77.384V83H305.323ZM319.245 83.198C316.635 83.198 314.835 81.2 314.835 78.302C314.835 75.494 316.617 73.406 319.173 73.406C321.801 73.406 323.187 75.404 323.187 78.014V78.554H316.383C316.473 80.534 317.607 81.794 319.245 81.794C320.505 81.794 321.405 81.11 321.693 79.994L323.115 80.498C322.539 82.172 321.117 83.198 319.245 83.198ZM319.155 74.792C317.787 74.792 316.761 75.71 316.473 77.312H321.549C321.513 75.98 320.793 74.792 319.155 74.792ZM325.132 71.948V70.076H326.896V71.948H325.132ZM326.824 73.586V83H325.204V73.586H326.824ZM334.406 73.55V75.188C334.136 75.134 333.92 75.116 333.614 75.116C332.246 75.116 331.148 76.196 331.148 77.852V83H329.528V73.586H331.148V75.188C331.562 74.234 332.48 73.514 333.758 73.514C334.01 73.514 334.244 73.532 334.406 73.55ZM344.523 83.198C343.209 83.198 342.165 82.568 341.607 81.632V86.24H339.987V73.586H341.607V74.954C342.165 74.036 343.209 73.406 344.523 73.406C347.133 73.406 348.627 75.62 348.627 78.302C348.627 80.966 347.133 83.198 344.523 83.198ZM341.571 77.978V78.644C341.571 80.804 342.903 81.776 344.235 81.776C345.999 81.776 346.989 80.318 346.989 78.302C346.989 76.268 345.999 74.828 344.235 74.828C342.903 74.828 341.571 75.782 341.571 77.978ZM350.674 83V70.076H352.294V74.864C352.834 74.09 353.77 73.406 355.102 73.406C357.1 73.406 358.234 74.792 358.234 76.79V83H356.614V77.222C356.614 75.908 356.056 74.918 354.652 74.918C353.482 74.918 352.294 75.818 352.294 77.384V83H350.674ZM368.934 78.302C368.934 81.218 367.134 83.198 364.56 83.198C361.986 83.198 360.186 81.218 360.186 78.302C360.186 75.386 361.986 73.406 364.56 73.406C367.134 73.406 368.934 75.386 368.934 78.302ZM361.824 78.302C361.824 80.444 362.904 81.812 364.56 81.812C366.216 81.812 367.296 80.444 367.296 78.302C367.296 76.142 366.216 74.774 364.56 74.774C362.904 74.774 361.824 76.142 361.824 78.302ZM371.247 80.75V74.972H369.789V73.586H371.247V70.832H372.849V73.586H374.991V74.972H372.849V80.498C372.849 81.488 373.335 81.668 374.163 81.668C374.541 81.668 374.811 81.65 375.189 81.56V82.946C374.775 83.036 374.307 83.09 373.767 83.09C372.165 83.09 371.247 82.55 371.247 80.75ZM385.159 78.302C385.159 81.218 383.359 83.198 380.785 83.198C378.211 83.198 376.411 81.218 376.411 78.302C376.411 75.386 378.211 73.406 380.785 73.406C383.359 73.406 385.159 75.386 385.159 78.302ZM378.049 78.302C378.049 80.444 379.129 81.812 380.785 81.812C382.441 81.812 383.521 80.444 383.521 78.302C383.521 76.142 382.441 74.774 380.785 74.774C379.129 74.774 378.049 76.142 378.049 78.302ZM392.816 70.076V83H391.088V70.076H392.816ZM395.658 83V70.076H399.762C403.686 70.076 406.17 72.596 406.17 76.538C406.17 80.48 403.686 83 399.762 83H395.658ZM397.35 81.506H399.762C402.696 81.506 404.478 79.544 404.478 76.538C404.478 73.514 402.696 71.57 399.744 71.57H397.35V81.506ZM416.108 69.914V71.354C415.838 71.318 415.676 71.318 415.406 71.318C414.452 71.318 413.93 71.732 413.93 72.938V73.586H416.018V74.972H413.93V83H412.31V74.972H410.888V73.586H412.31V72.83C412.31 70.994 413.318 69.878 415.244 69.878C415.568 69.878 415.748 69.896 416.108 69.914ZM425.571 78.302C425.571 81.218 423.771 83.198 421.197 83.198C418.623 83.198 416.823 81.218 416.823 78.302C416.823 75.386 418.623 73.406 421.197 73.406C423.771 73.406 425.571 75.386 425.571 78.302ZM418.461 78.302C418.461 80.444 419.541 81.812 421.197 81.812C422.853 81.812 423.933 80.444 423.933 78.302C423.933 76.142 422.853 74.774 421.197 74.774C419.541 74.774 418.461 76.142 418.461 78.302ZM432.509 73.55V75.188C432.239 75.134 432.023 75.116 431.717 75.116C430.349 75.116 429.251 76.196 429.251 77.852V83H427.631V73.586H429.251V75.188C429.665 74.234 430.583 73.514 431.861 73.514C432.113 73.514 432.347 73.532 432.509 73.55ZM24.15 94.076V100.61L30.162 94.076H32.232L26.994 99.71L32.484 107H30.45L25.842 100.952L24.15 102.77V107H22.422V94.076H24.15ZM37.8668 99.998L41.5568 94.076H43.3928L38.7128 101.564V107H36.9848V101.564L32.3048 94.076H34.1768L37.8668 99.998ZM44.9624 100.538C44.9624 103.598 46.6544 105.668 49.0484 105.668C50.7224 105.668 51.9284 104.696 52.3964 103.058L54.0344 103.598C53.2784 105.83 51.5144 107.198 49.0484 107.198C45.7004 107.198 43.2344 104.48 43.2344 100.538C43.2344 96.596 45.7004 93.878 49.0484 93.878C51.5144 93.878 53.2784 95.246 54.0344 97.478L52.3964 98.018C51.9284 96.38 50.7224 95.408 49.0484 95.408C46.6544 95.408 44.9624 97.478 44.9624 100.538ZM63.7025 93.95C64.3505 93.95 64.9025 94.064 65.3585 94.292C65.8265 94.508 66.1865 94.82 66.4385 95.228C66.6905 95.636 66.8165 96.134 66.8165 96.722C66.8165 97.478 66.5705 98.12 66.0785 98.648C65.5985 99.176 64.9865 99.656 64.2425 100.088L67.7165 103.436C68.0285 103.064 68.2805 102.638 68.4725 102.158C68.6765 101.666 68.8445 101.138 68.9765 100.574H70.5785C70.3865 101.342 70.1465 102.056 69.8585 102.716C69.5705 103.376 69.1985 103.952 68.7425 104.444L71.3705 107H69.2285L67.6625 105.488C67.3745 105.74 67.0745 105.974 66.7625 106.19C66.4625 106.394 66.1325 106.568 65.7725 106.712C65.4125 106.856 65.0225 106.97 64.6025 107.054C64.1945 107.138 63.7385 107.18 63.2345 107.18C62.4065 107.18 61.6865 107.048 61.0745 106.784C60.4745 106.508 60.0065 106.106 59.6705 105.578C59.3465 105.05 59.1845 104.408 59.1845 103.652C59.1845 103.04 59.2925 102.512 59.5085 102.068C59.7365 101.624 60.0605 101.228 60.4805 100.88C60.9005 100.532 61.3925 100.196 61.9565 99.872C61.7045 99.584 61.4585 99.284 61.2185 98.972C60.9785 98.66 60.7805 98.324 60.6245 97.964C60.4685 97.592 60.3905 97.19 60.3905 96.758C60.3905 96.17 60.5225 95.666 60.7865 95.246C61.0505 94.826 61.4285 94.508 61.9205 94.292C62.4245 94.064 63.0185 93.95 63.7025 93.95ZM62.9105 100.862C62.4785 101.114 62.1065 101.372 61.7945 101.636C61.4945 101.888 61.2605 102.17 61.0925 102.482C60.9245 102.794 60.8405 103.166 60.8405 103.598C60.8405 104.258 61.0625 104.786 61.5065 105.182C61.9505 105.578 62.5445 105.776 63.2885 105.776C64.0565 105.776 64.7165 105.65 65.2685 105.398C65.8205 105.146 66.2825 104.846 66.6545 104.498L62.9105 100.862ZM63.6485 95.246C63.1445 95.246 62.7305 95.378 62.4065 95.642C62.0945 95.906 61.9385 96.272 61.9385 96.74C61.9385 97.172 62.0525 97.574 62.2805 97.946C62.5085 98.306 62.8385 98.708 63.2705 99.152C63.9785 98.744 64.4825 98.36 64.7825 98C65.0945 97.628 65.2505 97.202 65.2505 96.722C65.2505 96.29 65.1065 95.936 64.8185 95.66C64.5305 95.384 64.1405 95.246 63.6485 95.246ZM78.3609 94.076V107H76.6329V94.076H78.3609ZM81.2033 107V94.076H85.3073C89.2313 94.076 91.7153 96.596 91.7153 100.538C91.7153 104.48 89.2313 107 85.3073 107H81.2033ZM82.8953 105.506H85.3073C88.2413 105.506 90.0233 103.544 90.0233 100.538C90.0233 97.514 88.2413 95.57 85.2893 95.57H82.8953V105.506ZM101.563 107H99.9612L96.4332 97.586H98.1432L100.789 105.02L103.399 97.586H105.091L101.563 107ZM110.188 107.198C107.578 107.198 105.778 105.2 105.778 102.302C105.778 99.494 107.56 97.406 110.116 97.406C112.744 97.406 114.13 99.404 114.13 102.014V102.554H107.326C107.416 104.534 108.55 105.794 110.188 105.794C111.448 105.794 112.348 105.11 112.636 103.994L114.058 104.498C113.482 106.172 112.06 107.198 110.188 107.198ZM110.098 98.792C108.73 98.792 107.704 99.71 107.416 101.312H112.492C112.456 99.98 111.736 98.792 110.098 98.792ZM121.025 97.55V99.188C120.755 99.134 120.539 99.116 120.233 99.116C118.865 99.116 117.767 100.196 117.767 101.852V107H116.147V97.586H117.767V99.188C118.181 98.234 119.099 97.514 120.377 97.514C120.629 97.514 120.863 97.532 121.025 97.55ZM122.737 95.948V94.076H124.501V95.948H122.737ZM124.429 97.586V107H122.809V97.586H124.429ZM131.237 93.914V95.354C130.967 95.318 130.805 95.318 130.535 95.318C129.581 95.318 129.059 95.732 129.059 96.938V97.586H131.147V98.972H129.059V107H127.439V98.972H126.017V97.586H127.439V96.83C127.439 94.994 128.447 93.878 130.373 93.878C130.697 93.878 130.877 93.896 131.237 93.914ZM132.581 95.948V94.076H134.345V95.948H132.581ZM134.273 97.586V107H132.653V97.586H134.273ZM137.949 102.302C137.949 104.444 139.101 105.776 140.775 105.776C142.071 105.776 142.845 104.948 143.115 103.778L144.555 104.444C144.105 106.01 142.737 107.198 140.775 107.198C138.147 107.198 136.329 105.2 136.329 102.302C136.329 99.386 138.147 97.406 140.775 97.406C142.737 97.406 144.069 98.54 144.519 100.106L143.115 100.808C142.845 99.656 142.071 98.81 140.775 98.81C139.101 98.81 137.949 100.142 137.949 102.302ZM148.792 107.162C147.082 107.162 145.696 106.154 145.696 104.462C145.696 102.59 147.154 101.816 149.26 101.384L151.546 100.916V100.52C151.546 99.44 150.952 98.828 149.692 98.828C148.504 98.828 147.802 99.386 147.514 100.43L145.984 100.034C146.434 98.504 147.82 97.406 149.746 97.406C151.852 97.406 153.148 98.432 153.148 100.448V105.038C153.148 105.65 153.526 105.848 154.156 105.704V107C152.716 107.18 151.888 106.838 151.69 105.938C151.114 106.676 150.07 107.162 148.792 107.162ZM151.546 103.796V102.176L149.71 102.572C148.27 102.86 147.298 103.256 147.298 104.39C147.298 105.308 147.964 105.848 148.99 105.848C150.376 105.848 151.546 105.002 151.546 103.796ZM156.161 104.75V98.972H154.703V97.586H156.161V94.832H157.763V97.586H159.905V98.972H157.763V104.498C157.763 105.488 158.249 105.668 159.077 105.668C159.455 105.668 159.725 105.65 160.103 105.56V106.946C159.689 107.036 159.221 107.09 158.681 107.09C157.079 107.09 156.161 106.55 156.161 104.75ZM161.954 95.948V94.076H163.718V95.948H161.954ZM163.646 97.586V107H162.026V97.586H163.646ZM174.45 102.302C174.45 105.218 172.65 107.198 170.076 107.198C167.502 107.198 165.702 105.218 165.702 102.302C165.702 99.386 167.502 97.406 170.076 97.406C172.65 97.406 174.45 99.386 174.45 102.302ZM167.34 102.302C167.34 104.444 168.42 105.812 170.076 105.812C171.732 105.812 172.812 104.444 172.812 102.302C172.812 100.142 171.732 98.774 170.076 98.774C168.42 98.774 167.34 100.142 167.34 102.302ZM176.51 107V97.586H178.13V98.864C178.67 98.09 179.606 97.406 180.938 97.406C182.936 97.406 184.07 98.792 184.07 100.79V107H182.45V101.222C182.45 99.908 181.892 98.918 180.488 98.918C179.318 98.918 178.13 99.818 178.13 101.384V107H176.51Z" fill="#425466"/>
<circle cx="3" cy="76" r="3" fill="#425466"/>
<path d="M21.666 140.538C21.666 136.596 24.15 133.878 27.534 133.878C30.918 133.878 33.384 136.596 33.384 140.538C33.384 144.48 30.918 147.198 27.534 147.198C24.15 147.198 21.666 144.48 21.666 140.538ZM31.674 140.538C31.674 137.478 29.964 135.408 27.534 135.408C25.104 135.408 23.394 137.478 23.394 140.538C23.394 143.598 25.104 145.668 27.534 145.668C29.964 145.668 31.674 143.598 31.674 140.538ZM35.4105 147V137.586H37.0305V138.864C37.5705 138.09 38.5065 137.406 39.8385 137.406C41.8365 137.406 42.9705 138.792 42.9705 140.79V147H41.3505V141.222C41.3505 139.908 40.7925 138.918 39.3885 138.918C38.2185 138.918 37.0305 139.818 37.0305 141.384V147H35.4105ZM50.1067 147.198C48.7927 147.198 47.7487 146.568 47.1907 145.632V147H45.5707V134.076H47.1907V138.954C47.7487 138.036 48.7927 137.406 50.1067 137.406C52.7167 137.406 54.2107 139.62 54.2107 142.302C54.2107 144.966 52.7167 147.198 50.1067 147.198ZM47.1547 141.978V142.644C47.1547 144.804 48.4867 145.776 49.8187 145.776C51.5827 145.776 52.5727 144.318 52.5727 142.302C52.5727 140.268 51.5827 138.828 49.8187 138.828C48.4867 138.828 47.1547 139.782 47.1547 141.978ZM64.3582 142.302C64.3582 145.218 62.5582 147.198 59.9842 147.198C57.4102 147.198 55.6102 145.218 55.6102 142.302C55.6102 139.386 57.4102 137.406 59.9842 137.406C62.5582 137.406 64.3582 139.386 64.3582 142.302ZM57.2482 142.302C57.2482 144.444 58.3282 145.812 59.9842 145.812C61.6402 145.812 62.7202 144.444 62.7202 142.302C62.7202 140.142 61.6402 138.774 59.9842 138.774C58.3282 138.774 57.2482 140.142 57.2482 142.302ZM68.7764 147.162C67.0664 147.162 65.6804 146.154 65.6804 144.462C65.6804 142.59 67.1384 141.816 69.2444 141.384L71.5304 140.916V140.52C71.5304 139.44 70.9364 138.828 69.6764 138.828C68.4884 138.828 67.7864 139.386 67.4984 140.43L65.9684 140.034C66.4184 138.504 67.8044 137.406 69.7304 137.406C71.8364 137.406 73.1324 138.432 73.1324 140.448V145.038C73.1324 145.65 73.5104 145.848 74.1404 145.704V147C72.7004 147.18 71.8724 146.838 71.6744 145.938C71.0984 146.676 70.0544 147.162 68.7764 147.162ZM71.5304 143.796V142.176L69.6944 142.572C68.2544 142.86 67.2824 143.256 67.2824 144.39C67.2824 145.308 67.9484 145.848 68.9744 145.848C70.3604 145.848 71.5304 145.002 71.5304 143.796ZM80.771 137.55V139.188C80.501 139.134 80.285 139.116 79.979 139.116C78.611 139.116 77.513 140.196 77.513 141.852V147H75.893V137.586H77.513V139.188C77.927 138.234 78.845 137.514 80.123 137.514C80.375 137.514 80.609 137.532 80.771 137.55ZM85.6947 147.198C83.0847 147.198 81.5907 144.966 81.5907 142.302C81.5907 139.62 83.0847 137.406 85.6947 137.406C87.0087 137.406 88.0527 138.036 88.6107 138.954V134.076H90.2307V147H88.6107V145.632C88.0527 146.568 87.0087 147.198 85.6947 147.198ZM88.6467 141.978C88.6467 139.782 87.3147 138.828 85.9827 138.828C84.2187 138.828 83.2287 140.268 83.2287 142.302C83.2287 144.318 84.2187 145.776 85.9827 145.776C87.3147 145.776 88.6467 144.804 88.6467 142.644V141.978ZM104.175 137.586V147H102.555V145.704C102.015 146.496 101.097 147.198 99.7655 147.198C97.7495 147.198 96.6155 145.812 96.6155 143.814V137.586H98.2355V143.472C98.2355 144.804 98.8115 145.704 100.197 145.704C101.367 145.704 102.555 144.822 102.555 143.256V137.586H104.175ZM105.822 145.002L107.082 144.084C107.586 145.182 108.738 145.848 109.962 145.848C111.06 145.848 112.032 145.38 112.032 144.354C112.032 143.328 111.132 143.184 109.584 142.86C108.036 142.518 106.416 142.176 106.416 140.25C106.416 138.576 107.874 137.406 109.872 137.406C111.564 137.406 112.95 138.234 113.508 139.35L112.356 140.268C111.87 139.332 110.988 138.738 109.8 138.738C108.72 138.738 108 139.278 108 140.124C108 141.006 108.828 141.168 110.142 141.456C111.762 141.834 113.616 142.158 113.616 144.21C113.616 146.01 111.978 147.198 109.962 147.198C108.252 147.198 106.542 146.46 105.822 145.002ZM119.382 147.198C116.772 147.198 114.972 145.2 114.972 142.302C114.972 139.494 116.754 137.406 119.31 137.406C121.938 137.406 123.324 139.404 123.324 142.014V142.554H116.52C116.61 144.534 117.744 145.794 119.382 145.794C120.642 145.794 121.542 145.11 121.83 143.994L123.252 144.498C122.676 146.172 121.254 147.198 119.382 147.198ZM119.292 138.792C117.924 138.792 116.898 139.71 116.61 141.312H121.686C121.65 139.98 120.93 138.792 119.292 138.792ZM130.109 142.302C130.109 144.444 131.261 145.776 132.935 145.776C134.231 145.776 135.005 144.948 135.275 143.778L136.715 144.444C136.265 146.01 134.897 147.198 132.935 147.198C130.307 147.198 128.489 145.2 128.489 142.302C128.489 139.386 130.307 137.406 132.935 137.406C134.897 137.406 136.229 138.54 136.679 140.106L135.275 140.808C135.005 139.656 134.231 138.81 132.935 138.81C131.261 138.81 130.109 140.142 130.109 142.302ZM140.952 147.162C139.242 147.162 137.856 146.154 137.856 144.462C137.856 142.59 139.314 141.816 141.42 141.384L143.706 140.916V140.52C143.706 139.44 143.112 138.828 141.852 138.828C140.664 138.828 139.962 139.386 139.674 140.43L138.144 140.034C138.594 138.504 139.98 137.406 141.906 137.406C144.012 137.406 145.308 138.432 145.308 140.448V145.038C145.308 145.65 145.686 145.848 146.316 145.704V147C144.876 147.18 144.048 146.838 143.85 145.938C143.274 146.676 142.23 147.162 140.952 147.162ZM143.706 143.796V142.176L141.87 142.572C140.43 142.86 139.458 143.256 139.458 144.39C139.458 145.308 140.124 145.848 141.15 145.848C142.536 145.848 143.706 145.002 143.706 143.796ZM147.025 145.002L148.285 144.084C148.789 145.182 149.941 145.848 151.165 145.848C152.263 145.848 153.235 145.38 153.235 144.354C153.235 143.328 152.335 143.184 150.787 142.86C149.239 142.518 147.619 142.176 147.619 140.25C147.619 138.576 149.077 137.406 151.075 137.406C152.767 137.406 154.153 138.234 154.711 139.35L153.559 140.268C153.073 139.332 152.191 138.738 151.003 138.738C149.923 138.738 149.203 139.278 149.203 140.124C149.203 141.006 150.031 141.168 151.345 141.456C152.965 141.834 154.819 142.158 154.819 144.21C154.819 146.01 153.181 147.198 151.165 147.198C149.455 147.198 147.745 146.46 147.025 145.002ZM160.585 147.198C157.975 147.198 156.175 145.2 156.175 142.302C156.175 139.494 157.957 137.406 160.513 137.406C163.141 137.406 164.527 139.404 164.527 142.014V142.554H157.723C157.813 144.534 158.947 145.794 160.585 145.794C161.845 145.794 162.745 145.11 163.033 143.994L164.455 144.498C163.879 146.172 162.457 147.198 160.585 147.198ZM160.495 138.792C159.127 138.792 158.101 139.71 157.813 141.312H162.889C162.853 139.98 162.133 138.792 160.495 138.792ZM165.499 145.002L166.759 144.084C167.263 145.182 168.415 145.848 169.639 145.848C170.737 145.848 171.709 145.38 171.709 144.354C171.709 143.328 170.809 143.184 169.261 142.86C167.713 142.518 166.093 142.176 166.093 140.25C166.093 138.576 167.551 137.406 169.549 137.406C171.241 137.406 172.627 138.234 173.185 139.35L172.033 140.268C171.547 139.332 170.665 138.738 169.477 138.738C168.397 138.738 167.677 139.278 167.677 140.124C167.677 141.006 168.505 141.168 169.819 141.456C171.439 141.834 173.293 142.158 173.293 144.21C173.293 146.01 171.655 147.198 169.639 147.198C167.929 147.198 166.219 146.46 165.499 145.002ZM183.198 133.914V135.354C182.928 135.318 182.766 135.318 182.496 135.318C181.542 135.318 181.02 135.732 181.02 136.938V137.586H183.108V138.972H181.02V147H179.4V138.972H177.978V137.586H179.4V136.83C179.4 134.994 180.408 133.878 182.334 133.878C182.658 133.878 182.838 133.896 183.198 133.914ZM192.661 142.302C192.661 145.218 190.861 147.198 188.287 147.198C185.713 147.198 183.913 145.218 183.913 142.302C183.913 139.386 185.713 137.406 188.287 137.406C190.861 137.406 192.661 139.386 192.661 142.302ZM185.551 142.302C185.551 144.444 186.631 145.812 188.287 145.812C189.943 145.812 191.023 144.444 191.023 142.302C191.023 140.142 189.943 138.774 188.287 138.774C186.631 138.774 185.551 140.142 185.551 142.302ZM199.599 137.55V139.188C199.329 139.134 199.113 139.116 198.807 139.116C197.439 139.116 196.341 140.196 196.341 141.852V147H194.721V137.586H196.341V139.188C196.755 138.234 197.673 137.514 198.951 137.514C199.203 137.514 199.437 137.532 199.599 137.55ZM205.108 135.948V134.076H206.872V135.948H205.108ZM206.8 137.586V147H205.18V137.586H206.8ZM212.96 147.198C210.35 147.198 208.856 144.966 208.856 142.302C208.856 139.62 210.35 137.406 212.96 137.406C214.274 137.406 215.318 138.036 215.876 138.954V134.076H217.496V147H215.876V145.632C215.318 146.568 214.274 147.198 212.96 147.198ZM215.912 141.978C215.912 139.782 214.58 138.828 213.248 138.828C211.484 138.828 210.494 140.268 210.494 142.302C210.494 144.318 211.484 145.776 213.248 145.776C214.58 145.776 215.912 144.804 215.912 142.644V141.978ZM223.936 147.198C221.326 147.198 219.526 145.2 219.526 142.302C219.526 139.494 221.308 137.406 223.864 137.406C226.492 137.406 227.878 139.404 227.878 142.014V142.554H221.074C221.164 144.534 222.298 145.794 223.936 145.794C225.196 145.794 226.096 145.11 226.384 143.994L227.806 144.498C227.23 146.172 225.808 147.198 223.936 147.198ZM223.846 138.792C222.478 138.792 221.452 139.71 221.164 141.312H226.24C226.204 139.98 225.484 138.792 223.846 138.792ZM229.895 147V137.586H231.515V138.864C232.055 138.09 232.991 137.406 234.323 137.406C236.321 137.406 237.455 138.792 237.455 140.79V147H235.835V141.222C235.835 139.908 235.277 138.918 233.873 138.918C232.703 138.918 231.515 139.818 231.515 141.384V147H229.895ZM240.307 144.75V138.972H238.849V137.586H240.307V134.832H241.909V137.586H244.051V138.972H241.909V144.498C241.909 145.488 242.395 145.668 243.223 145.668C243.601 145.668 243.871 145.65 244.249 145.56V146.946C243.835 147.036 243.367 147.09 242.827 147.09C241.225 147.09 240.307 146.55 240.307 144.75ZM246.1 135.948V134.076H247.864V135.948H246.1ZM247.792 137.586V147H246.172V137.586H247.792ZM254.6 133.914V135.354C254.33 135.318 254.168 135.318 253.898 135.318C252.944 135.318 252.422 135.732 252.422 136.938V137.586H254.51V138.972H252.422V147H250.802V138.972H249.38V137.586H250.802V136.83C250.802 134.994 251.81 133.878 253.736 133.878C254.06 133.878 254.24 133.896 254.6 133.914ZM259.737 148.026C259.197 149.448 258.459 150.348 256.821 150.348C256.425 150.348 256.227 150.33 255.939 150.276V148.872C256.245 148.944 256.443 148.962 256.713 148.962C257.415 148.962 257.793 148.71 258.171 147.774L258.621 146.658L255.129 137.586H256.839L259.485 144.786L262.095 137.586H263.787L259.737 148.026ZM265.296 135.948V134.076H267.06V135.948H265.296ZM266.988 137.586V147H265.368V137.586H266.988ZM269.692 147V137.586H271.312V138.864C271.852 138.09 272.788 137.406 274.12 137.406C276.118 137.406 277.252 138.792 277.252 140.79V147H275.632V141.222C275.632 139.908 275.074 138.918 273.67 138.918C272.5 138.918 271.312 139.818 271.312 141.384V147H269.692ZM287.826 146.154C287.826 148.908 286.008 150.438 283.452 150.438C281.382 150.438 279.87 149.484 279.348 147.756L280.86 147.18C281.166 148.386 282.138 149.088 283.452 149.088C285.108 149.088 286.206 148.242 286.206 146.28V145.218C285.702 146.136 284.64 146.784 283.326 146.784C280.752 146.784 279.24 144.66 279.24 142.086C279.24 139.53 280.752 137.406 283.326 137.406C284.622 137.406 285.702 138.054 286.206 138.972V137.586H287.826V146.154ZM286.224 141.942C286.224 139.836 284.964 138.828 283.614 138.828C281.904 138.828 280.86 140.106 280.86 142.086C280.86 144.066 281.904 145.362 283.614 145.362C284.964 145.362 286.224 144.354 286.224 142.284V141.942ZM294.571 144.75V138.972H293.113V137.586H294.571V134.832H296.173V137.586H298.315V138.972H296.173V144.498C296.173 145.488 296.659 145.668 297.487 145.668C297.865 145.668 298.135 145.65 298.513 145.56V146.946C298.099 147.036 297.631 147.09 297.091 147.09C295.489 147.09 294.571 146.55 294.571 144.75ZM300.436 147V134.076H302.056V138.864C302.596 138.09 303.532 137.406 304.864 137.406C306.862 137.406 307.996 138.792 307.996 140.79V147H306.376V141.222C306.376 139.908 305.818 138.918 304.414 138.918C303.244 138.918 302.056 139.818 302.056 141.384V147H300.436ZM314.358 147.198C311.748 147.198 309.948 145.2 309.948 142.302C309.948 139.494 311.73 137.406 314.286 137.406C316.914 137.406 318.3 139.404 318.3 142.014V142.554H311.496C311.586 144.534 312.72 145.794 314.358 145.794C315.618 145.794 316.518 145.11 316.806 143.994L318.228 144.498C317.652 146.172 316.23 147.198 314.358 147.198ZM314.268 138.792C312.9 138.792 311.874 139.71 311.586 141.312H316.662C316.626 139.98 315.906 138.792 314.268 138.792ZM331.584 137.586V147H329.964V145.704C329.424 146.496 328.506 147.198 327.174 147.198C325.158 147.198 324.024 145.812 324.024 143.814V137.586H325.644V143.472C325.644 144.804 326.22 145.704 327.606 145.704C328.776 145.704 329.964 144.822 329.964 143.256V137.586H331.584ZM333.23 145.002L334.49 144.084C334.994 145.182 336.146 145.848 337.37 145.848C338.468 145.848 339.44 145.38 339.44 144.354C339.44 143.328 338.54 143.184 336.992 142.86C335.444 142.518 333.824 142.176 333.824 140.25C333.824 138.576 335.282 137.406 337.28 137.406C338.972 137.406 340.358 138.234 340.916 139.35L339.764 140.268C339.278 139.332 338.396 138.738 337.208 138.738C336.128 138.738 335.408 139.278 335.408 140.124C335.408 141.006 336.236 141.168 337.55 141.456C339.17 141.834 341.024 142.158 341.024 144.21C341.024 146.01 339.386 147.198 337.37 147.198C335.66 147.198 333.95 146.46 333.23 145.002ZM346.79 147.198C344.18 147.198 342.38 145.2 342.38 142.302C342.38 139.494 344.162 137.406 346.718 137.406C349.346 137.406 350.732 139.404 350.732 142.014V142.554H343.928C344.018 144.534 345.152 145.794 346.79 145.794C348.05 145.794 348.95 145.11 349.238 143.994L350.66 144.498C350.084 146.172 348.662 147.198 346.79 147.198ZM346.7 138.792C345.332 138.792 344.306 139.71 344.018 141.312H349.094C349.058 139.98 348.338 138.792 346.7 138.792ZM357.626 137.55V139.188C357.356 139.134 357.14 139.116 356.834 139.116C355.466 139.116 354.368 140.196 354.368 141.852V147H352.748V137.586H354.368V139.188C354.782 138.234 355.7 137.514 356.978 137.514C357.23 137.514 357.464 137.532 357.626 137.55ZM367.311 133.914V135.354C367.041 135.318 366.879 135.318 366.609 135.318C365.655 135.318 365.133 135.732 365.133 136.938V137.586H367.221V138.972H365.133V147H363.513V138.972H362.091V137.586H363.513V136.83C363.513 134.994 364.521 133.878 366.447 133.878C366.771 133.878 366.951 133.896 367.311 133.914ZM376.774 142.302C376.774 145.218 374.974 147.198 372.4 147.198C369.826 147.198 368.026 145.218 368.026 142.302C368.026 139.386 369.826 137.406 372.4 137.406C374.974 137.406 376.774 139.386 376.774 142.302ZM369.664 142.302C369.664 144.444 370.744 145.812 372.4 145.812C374.056 145.812 375.136 144.444 375.136 142.302C375.136 140.142 374.056 138.774 372.4 138.774C370.744 138.774 369.664 140.142 369.664 142.302ZM383.712 137.55V139.188C383.442 139.134 383.226 139.116 382.92 139.116C381.552 139.116 380.454 140.196 380.454 141.852V147H378.834V137.586H380.454V139.188C380.868 138.234 381.786 137.514 383.064 137.514C383.316 137.514 383.55 137.532 383.712 137.55ZM390.265 142.302C390.265 144.444 391.417 145.776 393.091 145.776C394.387 145.776 395.161 144.948 395.431 143.778L396.871 144.444C396.421 146.01 395.053 147.198 393.091 147.198C390.463 147.198 388.645 145.2 388.645 142.302C388.645 139.386 390.463 137.406 393.091 137.406C395.053 137.406 396.385 138.54 396.835 140.106L395.431 140.808C395.161 139.656 394.387 138.81 393.091 138.81C391.417 138.81 390.265 140.142 390.265 142.302ZM406.745 142.302C406.745 145.218 404.945 147.198 402.371 147.198C399.797 147.198 397.997 145.218 397.997 142.302C397.997 139.386 399.797 137.406 402.371 137.406C404.945 137.406 406.745 139.386 406.745 142.302ZM399.635 142.302C399.635 144.444 400.715 145.812 402.371 145.812C404.027 145.812 405.107 144.444 405.107 142.302C405.107 140.142 404.027 138.774 402.371 138.774C400.715 138.774 399.635 140.142 399.635 142.302ZM408.805 147V137.586H410.425V138.864C410.965 138.09 411.901 137.406 413.233 137.406C415.231 137.406 416.365 138.792 416.365 140.79V147H414.745V141.222C414.745 139.908 414.187 138.918 412.783 138.918C411.613 138.918 410.425 139.818 410.425 141.384V147H408.805ZM419.217 144.75V138.972H417.759V137.586H419.217V134.832H420.819V137.586H422.961V138.972H420.819V144.498C420.819 145.488 421.305 145.668 422.133 145.668C422.511 145.668 422.781 145.65 423.159 145.56V146.946C422.745 147.036 422.277 147.09 421.737 147.09C420.135 147.09 419.217 146.55 419.217 144.75ZM425.01 135.948V134.076H426.774V135.948H425.01ZM426.702 137.586V147H425.082V137.586H426.702ZM429.407 147V137.586H431.027V138.864C431.567 138.09 432.503 137.406 433.835 137.406C435.833 137.406 436.967 138.792 436.967 140.79V147H435.347V141.222C435.347 139.908 434.789 138.918 433.385 138.918C432.215 138.918 431.027 139.818 431.027 141.384V147H429.407ZM447.037 137.586V147H445.417V145.704C444.877 146.496 443.959 147.198 442.627 147.198C440.611 147.198 439.477 145.812 439.477 143.814V137.586H441.097V143.472C441.097 144.804 441.673 145.704 443.059 145.704C444.229 145.704 445.417 144.822 445.417 143.256V137.586H447.037ZM453.489 147.198C450.879 147.198 449.079 145.2 449.079 142.302C449.079 139.494 450.861 137.406 453.417 137.406C456.045 137.406 457.431 139.404 457.431 142.014V142.554H450.627C450.717 144.534 451.851 145.794 453.489 145.794C454.749 145.794 455.649 145.11 455.937 143.994L457.359 144.498C456.783 146.172 455.361 147.198 453.489 147.198ZM453.399 138.792C452.031 138.792 451.005 139.71 450.717 141.312H455.793C455.757 139.98 455.037 138.792 453.399 138.792ZM462.904 147.198C460.294 147.198 458.8 144.966 458.8 142.302C458.8 139.62 460.294 137.406 462.904 137.406C464.218 137.406 465.262 138.036 465.82 138.954V134.076H467.44V147H465.82V145.632C465.262 146.568 464.218 147.198 462.904 147.198ZM465.856 141.978C465.856 139.782 464.524 138.828 463.192 138.828C461.428 138.828 460.438 140.268 460.438 142.302C460.438 144.318 461.428 145.776 463.192 145.776C464.524 145.776 465.856 144.804 465.856 142.644V141.978ZM24.708 171.162C22.998 171.162 21.612 170.154 21.612 168.462C21.612 166.59 23.07 165.816 25.176 165.384L27.462 164.916V164.52C27.462 163.44 26.868 162.828 25.608 162.828C24.42 162.828 23.718 163.386 23.43 164.43L21.9 164.034C22.35 162.504 23.736 161.406 25.662 161.406C27.768 161.406 29.064 162.432 29.064 164.448V169.038C29.064 169.65 29.442 169.848 30.072 169.704V171C28.632 171.18 27.804 170.838 27.606 169.938C27.03 170.676 25.986 171.162 24.708 171.162ZM27.462 167.796V166.176L25.626 166.572C24.186 166.86 23.214 167.256 23.214 168.39C23.214 169.308 23.88 169.848 24.906 169.848C26.292 169.848 27.462 169.002 27.462 167.796ZM32.7966 166.302C32.7966 168.444 33.9486 169.776 35.6226 169.776C36.9186 169.776 37.6926 168.948 37.9626 167.778L39.4026 168.444C38.9526 170.01 37.5846 171.198 35.6226 171.198C32.9946 171.198 31.1766 169.2 31.1766 166.302C31.1766 163.386 32.9946 161.406 35.6226 161.406C37.5846 161.406 38.9166 162.54 39.3666 164.106L37.9626 164.808C37.6926 163.656 36.9186 162.81 35.6226 162.81C33.9486 162.81 32.7966 164.142 32.7966 166.302ZM42.1482 166.302C42.1482 168.444 43.3002 169.776 44.9742 169.776C46.2702 169.776 47.0442 168.948 47.3142 167.778L48.7542 168.444C48.3042 170.01 46.9362 171.198 44.9742 171.198C42.3462 171.198 40.5282 169.2 40.5282 166.302C40.5282 163.386 42.3462 161.406 44.9742 161.406C46.9362 161.406 48.2682 162.54 48.7182 164.106L47.3142 164.808C47.0442 163.656 46.2702 162.81 44.9742 162.81C43.3002 162.81 42.1482 164.142 42.1482 166.302ZM54.2897 171.198C51.6797 171.198 49.8797 169.2 49.8797 166.302C49.8797 163.494 51.6617 161.406 54.2177 161.406C56.8457 161.406 58.2317 163.404 58.2317 166.014V166.554H51.4277C51.5177 168.534 52.6517 169.794 54.2897 169.794C55.5497 169.794 56.4497 169.11 56.7377 167.994L58.1597 168.498C57.5837 170.172 56.1617 171.198 54.2897 171.198ZM54.1997 162.792C52.8317 162.792 51.8057 163.71 51.5177 165.312H56.5937C56.5577 163.98 55.8377 162.792 54.1997 162.792ZM59.2044 169.002L60.4644 168.084C60.9684 169.182 62.1204 169.848 63.3444 169.848C64.4424 169.848 65.4144 169.38 65.4144 168.354C65.4144 167.328 64.5144 167.184 62.9664 166.86C61.4184 166.518 59.7984 166.176 59.7984 164.25C59.7984 162.576 61.2564 161.406 63.2544 161.406C64.9464 161.406 66.3324 162.234 66.8904 163.35L65.7384 164.268C65.2524 163.332 64.3704 162.738 63.1824 162.738C62.1024 162.738 61.3824 163.278 61.3824 164.124C61.3824 165.006 62.2104 165.168 63.5244 165.456C65.1444 165.834 66.9984 166.158 66.9984 168.21C66.9984 170.01 65.3604 171.198 63.3444 171.198C61.6344 171.198 59.9244 170.46 59.2044 169.002ZM67.9583 169.002L69.2183 168.084C69.7223 169.182 70.8743 169.848 72.0983 169.848C73.1963 169.848 74.1683 169.38 74.1683 168.354C74.1683 167.328 73.2683 167.184 71.7203 166.86C70.1723 166.518 68.5523 166.176 68.5523 164.25C68.5523 162.576 70.0103 161.406 72.0083 161.406C73.7003 161.406 75.0863 162.234 75.6443 163.35L74.4923 164.268C74.0063 163.332 73.1243 162.738 71.9363 162.738C70.8563 162.738 70.1363 163.278 70.1363 164.124C70.1363 165.006 70.9643 165.168 72.2783 165.456C73.8983 165.834 75.7523 166.158 75.7523 168.21C75.7523 170.01 74.1143 171.198 72.0983 171.198C70.3883 171.198 68.6783 170.46 67.9583 169.002ZM77.2025 171V168.876H79.2545V171H77.2025Z" fill="#425466"/>
<circle cx="3" cy="140" r="3" fill="#425466"/>
</svg>
