<svg width="37" height="37" viewBox="0 0 37 37" fill="none" xmlns="http://www.w3.org/2000/svg">
<path d="M36.7609 26.5324L32.7363 16.0166C32.686 15.8854 32.5865 15.779 32.459 15.7201C32.3315 15.6612 32.186 15.6543 32.0535 15.7011L27.8133 17.2139C27.7452 17.2384 27.6827 17.2762 27.6295 17.3252C27.5763 17.3743 27.5334 17.4335 27.5035 17.4994C27.4736 17.5652 27.4573 17.6365 27.4554 17.7088C27.4536 17.7811 27.4663 17.8531 27.4927 17.9204L27.8614 18.8547L24.968 20.2288L20.2189 19.3369C19.7564 19.2505 19.281 19.2603 18.8224 19.366C18.3639 19.4716 17.9321 19.6706 17.554 19.9507L16.7052 20.5803L16.1432 20.1756C15.719 19.8719 15.2312 19.6687 14.7168 19.5816C14.2024 19.4944 13.6749 19.5255 13.1743 19.6726L11.3517 20.2152L8.96424 18.7879L9.30705 17.9211C9.33352 17.8538 9.34621 17.7818 9.34435 17.7095C9.34249 17.6372 9.32613 17.566 9.29624 17.5001C9.26635 17.4342 9.22353 17.375 9.17033 17.326C9.11712 17.2769 9.05462 17.2391 8.98652 17.2147L4.74339 15.7011C4.61073 15.6539 4.46487 15.6605 4.33701 15.7195C4.20915 15.7784 4.10944 15.8851 4.05919 16.0166L0.0359809 26.5324C-0.0139033 26.6619 -0.0118489 26.8057 0.0417154 26.9337C0.0952797 27.0617 0.196215 27.1641 0.323456 27.2195L4.34811 28.9537C4.41441 28.9823 4.48578 28.9974 4.558 28.9979C4.63022 28.9984 4.70181 28.9844 4.76851 28.9567C4.83521 28.929 4.89567 28.8882 4.94629 28.8367C4.99692 28.7852 5.03667 28.7241 5.0632 28.6569L5.46854 27.6313L8.80469 29.5114C8.57988 29.8378 8.47635 30.2326 8.51205 30.6273C8.54776 31.022 8.72044 31.3917 9.00017 31.6725C9.15752 31.8299 9.34443 31.9547 9.55015 32.0397C9.75587 32.1247 9.97636 32.1682 10.1989 32.1677H10.2413C10.2791 32.5893 10.4734 32.9816 10.786 33.2671C11.0987 33.5526 11.5069 33.7106 11.9303 33.71H11.9741C12.0082 34.1062 12.1813 34.4776 12.4628 34.7585C12.6202 34.916 12.8071 35.0408 13.0128 35.1257C13.2185 35.2107 13.439 35.2542 13.6616 35.2537H13.704C13.7325 35.5749 13.8521 35.8814 14.0487 36.137C14.2452 36.3926 14.5107 36.5868 14.8138 36.6969C15.117 36.8069 15.4452 36.8281 15.76 36.7581C16.0748 36.6881 16.363 36.5297 16.591 36.3016L17.2313 35.6619L18.098 36.3088C18.4652 36.5824 18.9189 36.7142 19.3756 36.6799C19.8322 36.6455 20.2611 36.4474 20.5833 36.1219L20.6444 36.0601C20.9165 35.7823 21.097 35.428 21.1618 35.0446C21.4861 35.1361 21.8289 35.1397 22.155 35.055C22.4811 34.9702 22.7788 34.8002 23.0175 34.5623L23.062 34.5178C23.3644 34.2159 23.5555 33.8204 23.6039 33.3959C23.9307 33.4933 24.2777 33.5002 24.6081 33.4161C24.9386 33.3319 25.24 33.1598 25.4804 32.918L25.5106 32.8878C25.8054 32.5956 25.9946 32.2135 26.0482 31.8019C26.3391 31.8713 26.6423 31.8708 26.9331 31.8005C27.2238 31.7302 27.4937 31.592 27.7208 31.3973C27.9479 31.2026 28.1256 30.957 28.2395 30.6804C28.3534 30.4038 28.4002 30.1042 28.376 29.8061C28.3666 29.6905 28.3466 29.5759 28.3163 29.464L31.4491 27.9303L31.7366 28.6547C31.7629 28.722 31.8026 28.7833 31.8532 28.8349C31.9038 28.8865 31.9643 28.9274 32.031 28.9551C32.0978 28.9829 32.1694 28.9968 32.2417 28.9962C32.314 28.9956 32.3854 28.9804 32.4517 28.9515L36.4763 27.2173C36.6025 27.1614 36.7024 27.0592 36.7554 26.9317C36.8084 26.8043 36.8103 26.6613 36.7609 26.5324ZM4.26402 27.7441L1.22757 26.4347L4.87634 16.8941L5.77111 17.2125L4.04626 22.1154C3.99861 22.2503 4.00652 22.3987 4.06824 22.5278C4.12997 22.6569 4.24047 22.7562 4.37542 22.8039C4.51037 22.8515 4.65872 22.8436 4.78784 22.7819C4.91696 22.7202 5.01627 22.6097 5.06392 22.4747L6.78446 17.5769L8.09606 18.0447L4.26402 27.7441ZM10.6366 30.91C10.5202 31.0217 10.3647 31.0834 10.2034 31.0819C10.0421 31.0805 9.88777 31.0159 9.77346 30.902C9.65915 30.7882 9.59394 30.6341 9.59179 30.4728C9.58965 30.3115 9.65074 30.1558 9.76198 30.0389L10.9119 28.889C10.9984 28.8029 11.1084 28.7442 11.2282 28.7205C11.3479 28.6968 11.472 28.7091 11.5848 28.7559C11.6975 28.8026 11.7939 28.8817 11.8618 28.9832C11.9297 29.0846 11.966 29.2039 11.9662 29.326C11.9665 29.4071 11.9506 29.4874 11.9195 29.5623C11.8884 29.6372 11.8427 29.7052 11.7851 29.7622L10.6366 30.91ZM12.4635 32.3588C12.4312 32.3905 12.4024 32.4242 12.3737 32.458L12.3679 32.4516C12.3111 32.511 12.243 32.5586 12.1676 32.5913C12.0922 32.6241 12.011 32.6415 11.9287 32.6425C11.8465 32.6434 11.7649 32.628 11.6887 32.5969C11.6125 32.5659 11.5433 32.52 11.4851 32.4619C11.427 32.4037 11.381 32.3346 11.3499 32.2584C11.3188 32.1823 11.3033 32.1007 11.3042 32.0185C11.3051 31.9362 11.3224 31.855 11.3551 31.7795C11.3878 31.7041 11.4353 31.6359 11.4947 31.5791L12.5498 30.5248C12.5814 30.4931 12.6116 30.4601 12.6403 30.4263L12.6454 30.4313C12.7619 30.3198 12.9175 30.2583 13.0788 30.2601C13.2401 30.2619 13.3943 30.3267 13.5085 30.4407C13.6226 30.5547 13.6875 30.7089 13.6894 30.8702C13.6913 31.0315 13.63 31.1871 13.5186 31.3038L12.4635 32.3588ZM14.0964 33.9917C13.9789 34.0972 13.8254 34.1537 13.6676 34.1495C13.5098 34.1453 13.3595 34.0808 13.2478 33.9692C13.136 33.8577 13.0713 33.7075 13.0668 33.5497C13.0624 33.3919 13.1186 33.2383 13.2239 33.1207L14.3738 31.9708C14.4296 31.9076 14.4977 31.8565 14.574 31.8206C14.6503 31.7848 14.7331 31.7649 14.8173 31.7623C14.9015 31.7597 14.9854 31.7743 15.0638 31.8053C15.1421 31.8363 15.2133 31.8831 15.2729 31.9426C15.3325 32.0022 15.3793 32.0734 15.4104 32.1517C15.4415 32.23 15.4562 32.3139 15.4536 32.3981C15.4511 32.4824 15.4313 32.5652 15.3955 32.6415C15.3597 32.7178 15.3087 32.786 15.2456 32.8418L14.0964 33.9917ZM16.9769 34.3841L15.827 35.534C15.7104 35.6455 15.5548 35.707 15.3935 35.7052C15.2322 35.7035 15.078 35.6386 14.9639 35.5246C14.8498 35.4106 14.7848 35.2564 14.7829 35.0951C14.781 34.9338 14.8424 34.7782 14.9538 34.6615L16.0088 33.6072C16.0404 33.5756 16.0706 33.5425 16.0994 33.5087L16.1044 33.5138C16.221 33.4023 16.3766 33.3408 16.5379 33.3426C16.6992 33.3443 16.8534 33.4091 16.9675 33.5232C17.0816 33.6372 17.1466 33.7913 17.1485 33.9527C17.1504 34.114 17.089 34.2696 16.9776 34.3863L16.9769 34.3841ZM27.0644 30.5319C26.9211 30.6768 26.7285 30.7624 26.525 30.7715C26.3215 30.7807 26.122 30.7129 25.9662 30.5815L25.5458 30.2315C25.5164 30.1888 25.4811 30.1506 25.4409 30.118L24.4714 29.3389C24.3596 29.255 24.2196 29.2177 24.081 29.235C23.9423 29.2522 23.8157 29.3227 23.728 29.4315C23.6402 29.5403 23.5982 29.6789 23.6107 29.8181C23.6232 29.9573 23.6893 30.0862 23.7951 30.1776L24.6316 30.8525C24.6549 30.8846 24.6814 30.9142 24.7107 30.9409C24.7938 31.0145 24.861 31.1043 24.9081 31.2048C24.9552 31.3053 24.9812 31.4144 24.9846 31.5253C24.9879 31.6363 24.9685 31.7467 24.9276 31.8499C24.8867 31.9531 24.8251 32.0468 24.7466 32.1253L24.7164 32.1555C24.5801 32.2923 24.3995 32.3762 24.207 32.392C24.0144 32.4078 23.8225 32.3545 23.6657 32.2417L22.8328 31.6452L22.8241 31.6387L22.5093 31.4138C22.3931 31.3306 22.2485 31.297 22.1075 31.3203C21.9664 31.3437 21.8404 31.4222 21.7572 31.5385C21.674 31.6547 21.6404 31.7993 21.6638 31.9403C21.6872 32.0814 21.7657 32.2074 21.8819 32.2906L22.2025 32.5198C22.2976 32.5891 22.3766 32.6782 22.434 32.781C22.4914 32.8838 22.5258 32.9978 22.5349 33.1151C22.544 33.2325 22.5275 33.3504 22.4866 33.4608C22.4457 33.5712 22.3814 33.6714 22.2981 33.7545L22.2535 33.7991C22.1068 33.9456 21.9099 34.0307 21.7028 34.0373C21.4956 34.0438 21.2937 33.9713 21.1381 33.8343L20.2397 33.0438C20.1881 32.9902 20.126 32.948 20.0573 32.9196C19.9886 32.8913 19.9147 32.8774 19.8404 32.879C19.7661 32.8805 19.6929 32.8974 19.6254 32.9287C19.558 32.9599 19.4977 33.0047 19.4484 33.0603C19.399 33.1159 19.3618 33.1812 19.3389 33.2519C19.316 33.3226 19.308 33.3973 19.3153 33.4713C19.3227 33.5453 19.3453 33.6169 19.3817 33.6817C19.4181 33.7466 19.4675 33.8032 19.5268 33.848L19.8322 34.1182C19.9155 34.1914 19.9829 34.2808 20.0303 34.3809C20.0778 34.481 20.1043 34.5898 20.1083 34.7005C20.1123 34.8113 20.0936 34.9217 20.0534 35.0249C20.0132 35.1282 19.9524 35.2222 19.8746 35.3011L19.8135 35.363C19.6748 35.5031 19.4902 35.5885 19.2935 35.6033C19.0969 35.618 18.9015 35.5613 18.7434 35.4435L17.9672 34.8642C18.1313 34.608 18.2234 34.3124 18.2338 34.0083C18.2443 33.7043 18.1727 33.403 18.0267 33.1361C17.8807 32.8693 17.6655 32.6466 17.4038 32.4915C17.1421 32.3364 16.8434 32.2546 16.5392 32.2546H16.4968C16.4589 31.8331 16.2647 31.4409 15.9523 31.1554C15.6398 30.8698 15.2319 30.7115 14.8086 30.7116H14.7648C14.7256 30.2839 14.5251 29.8871 14.2039 29.6019C13.8827 29.3168 13.465 29.1647 13.0356 29.1765C13.0018 28.7803 12.8283 28.4089 12.5462 28.1286C12.228 27.8111 11.7969 27.6327 11.3474 27.6327C10.8979 27.6327 10.4668 27.8111 10.1486 28.1286L9.56865 28.7079L5.86741 26.6237L8.56105 19.8077L11.0003 21.2659C11.0645 21.3043 11.136 21.329 11.2102 21.3382C11.2845 21.3475 11.3598 21.3412 11.4315 21.3198L13.4812 20.7096C13.8236 20.6087 14.1846 20.5872 14.5366 20.6466C14.8886 20.706 15.2225 20.8448 15.5129 21.0524L15.7961 21.2566L12.9149 23.3946C12.7011 23.5534 12.5272 23.7597 12.407 23.9973C12.2868 24.2348 12.2235 24.4971 12.2223 24.7634C12.221 25.0296 12.2818 25.2925 12.3998 25.5312C12.5177 25.7699 12.6897 25.9779 12.9019 26.1386C13.3023 26.4392 13.7842 26.6118 14.2844 26.6337C14.7845 26.6556 15.2797 26.5259 15.7048 26.2615L17.9672 24.8378C18.2303 25.3624 18.7219 26.0754 19.5757 26.5145C20.5653 27.0233 21.7684 27.0362 23.1554 26.5533L26.9645 29.2965C27.0602 29.3656 27.1398 29.4547 27.1977 29.5575C27.2557 29.6604 27.2906 29.7746 27.3001 29.8922C27.3096 30.0099 27.2934 30.1282 27.2527 30.2391C27.212 30.3499 27.1478 30.4505 27.0644 30.5341V30.5319ZM27.7572 28.5369L23.5536 25.5112C23.4806 25.4588 23.3958 25.4254 23.3067 25.4142C23.2176 25.4029 23.127 25.414 23.0433 25.4465C21.8431 25.9122 20.8463 25.9496 20.0787 25.5608C19.0625 25.044 18.7513 23.9143 18.7485 23.9078C18.7275 23.8256 18.6873 23.7494 18.6314 23.6856C18.5754 23.6218 18.5052 23.5722 18.4264 23.5406C18.3476 23.5091 18.2624 23.4967 18.1779 23.5043C18.0934 23.5119 18.0118 23.5393 17.9399 23.5844L15.1313 25.3459C14.8913 25.495 14.6118 25.568 14.3296 25.5551C14.0474 25.5423 13.7756 25.4443 13.5502 25.274C13.4714 25.2145 13.4075 25.1374 13.3637 25.0488C13.3199 24.9603 13.2973 24.8627 13.2978 24.7639C13.2983 24.6651 13.3218 24.5678 13.3665 24.4797C13.4112 24.3916 13.4758 24.3151 13.5552 24.2564L18.1936 20.8138C18.4524 20.6223 18.7478 20.4862 19.0615 20.414C19.3753 20.3417 19.7005 20.335 20.0169 20.3941L24.9385 21.3184C25.0504 21.3398 25.1662 21.325 25.2691 21.276L28.256 19.8573L31.0495 26.9263L27.7572 28.5369ZM32.5329 27.742L28.6987 18.0397L30.011 17.5718L31.7308 22.4697C31.7785 22.6046 31.8778 22.7151 32.0069 22.7769C32.136 22.8386 32.2844 22.8465 32.4193 22.7989C32.5543 22.7512 32.6648 22.6519 32.7265 22.5228C32.7882 22.3937 32.7961 22.2453 32.7485 22.1104L31.0236 17.2075L31.9184 16.8891L35.5672 26.4297L32.5329 27.742Z" fill="#20336B"/>
<path d="M18.3977 16.8853C20.0679 16.8853 21.7006 16.39 23.0893 15.4621C24.478 14.5342 25.5603 13.2153 26.1995 11.6723C26.8386 10.1292 27.0059 8.43131 26.68 6.79322C26.3542 5.15513 25.5499 3.65045 24.3689 2.46946C23.1879 1.28846 21.6833 0.484194 20.0452 0.158358C18.4071 -0.167478 16.7091 -0.000247343 15.1661 0.638903C13.6231 1.27805 12.3042 2.36042 11.3763 3.74912C10.4484 5.13782 9.95313 6.7705 9.95312 8.44068C9.9556 10.6796 10.8461 12.826 12.4292 14.4092C14.0123 15.9923 16.1588 16.8828 18.3977 16.8853ZM18.3977 1.07413C19.8547 1.07413 21.2789 1.50617 22.4903 2.31562C23.7018 3.12506 24.646 4.27556 25.2035 5.62162C25.7611 6.96768 25.9069 8.44885 25.6227 9.87782C25.3385 11.3068 24.6369 12.6194 23.6066 13.6496C22.5764 14.6798 21.2638 15.3814 19.8348 15.6657C18.4059 15.9499 16.9247 15.804 15.5786 15.2465C14.2326 14.6889 13.0821 13.7447 12.2726 12.5333C11.4632 11.3219 11.0312 9.89764 11.0312 8.44068C11.0332 6.48759 11.81 4.6151 13.1911 3.23405C14.5721 1.85301 16.4446 1.07622 18.3977 1.07413Z" fill="#20336B"/>
<path d="M18.3971 14.7294C19.6409 14.7294 20.8567 14.3606 21.8909 13.6696C22.925 12.9786 23.731 11.9965 24.207 10.8474C24.6829 9.6983 24.8075 8.43389 24.5648 7.21404C24.3222 5.99418 23.7233 4.87368 22.8438 3.99421C21.9643 3.11475 20.8438 2.51582 19.624 2.27318C18.4041 2.03053 17.1397 2.15507 15.9906 2.63103C14.8416 3.10699 13.8594 3.91301 13.1684 4.94715C12.4774 5.98129 12.1086 7.19711 12.1086 8.44086C12.1105 10.1081 12.7737 11.7065 13.9526 12.8854C15.1315 14.0643 16.7299 14.7275 18.3971 14.7294ZM18.3971 3.23038C19.4277 3.23038 20.4351 3.53597 21.2919 4.1085C22.1488 4.68104 22.8166 5.49481 23.211 6.4469C23.6054 7.39899 23.7086 8.44664 23.5075 9.45738C23.3065 10.4681 22.8102 11.3965 22.0815 12.1252C21.3528 12.8539 20.4244 13.3502 19.4137 13.5512C18.4029 13.7523 17.3553 13.6491 16.4032 13.2547C15.4511 12.8604 14.6373 12.1925 14.0648 11.3357C13.4922 10.4788 13.1867 9.4714 13.1867 8.44086C13.1882 7.05942 13.7376 5.735 14.7145 4.75817C15.6913 3.78135 17.0157 3.2319 18.3971 3.23038ZM29.245 8.44086C29.245 8.51165 29.259 8.58174 29.286 8.64714C29.3131 8.71253 29.3528 8.77195 29.4029 8.82201C29.4529 8.87206 29.5124 8.91176 29.5778 8.93885C29.6432 8.96594 29.7132 8.97988 29.784 8.97988H32.7709C32.9139 8.97988 33.051 8.92309 33.152 8.82201C33.2531 8.72092 33.3099 8.58382 33.3099 8.44086C33.3099 8.29791 33.2531 8.16081 33.152 8.05972C33.051 7.95864 32.9139 7.90185 32.7709 7.90185H29.784C29.6411 7.90185 29.504 7.95864 29.4029 8.05972C29.3018 8.16081 29.245 8.29791 29.245 8.44086ZM28.6643 5.98367C28.7601 5.98441 28.8544 5.9596 28.9374 5.9118L31.1768 4.59588C31.3007 4.52355 31.3908 4.40496 31.4273 4.2662C31.4637 4.12745 31.4436 3.97989 31.3713 3.856C31.2989 3.7321 31.1803 3.64202 31.0416 3.60556C30.9028 3.5691 30.7553 3.58926 30.6314 3.66159L28.3912 4.97966C28.288 5.03906 28.2074 5.13097 28.1619 5.24103C28.1164 5.35109 28.1087 5.4731 28.1399 5.58802C28.1711 5.70294 28.2395 5.8043 28.3343 5.87627C28.4292 5.94823 28.5452 5.98676 28.6643 5.98583V5.98367ZM28.3912 11.9021L30.6314 13.2201C30.6927 13.256 30.7605 13.2793 30.8309 13.289C30.9013 13.2986 30.9729 13.2942 31.0416 13.2762C31.1103 13.2581 31.1748 13.2267 31.2313 13.1837C31.2879 13.1408 31.3354 13.0871 31.3713 13.0257C31.4071 12.9644 31.4305 12.8966 31.4401 12.8262C31.4497 12.7558 31.4453 12.6842 31.4273 12.6155C31.4092 12.5468 31.3778 12.4823 31.3349 12.4258C31.2919 12.3692 31.2382 12.3217 31.1768 12.2858L28.9374 10.9706C28.8764 10.9335 28.8085 10.9088 28.7378 10.8981C28.6671 10.8874 28.595 10.8908 28.5257 10.9082C28.4563 10.9257 28.3912 10.9567 28.3339 10.9996C28.2767 11.0424 28.2286 11.0962 28.1924 11.1579C28.1561 11.2195 28.1325 11.2877 28.1229 11.3586C28.1133 11.4294 28.1179 11.5015 28.1364 11.5705C28.1549 11.6396 28.187 11.7043 28.2307 11.7608C28.2745 11.8174 28.329 11.8646 28.3912 11.8999V11.9021ZM4.02339 8.97988H7.01026C7.15321 8.97988 7.29031 8.92309 7.3914 8.82201C7.49248 8.72092 7.54927 8.58382 7.54927 8.44086C7.54927 8.29791 7.49248 8.16081 7.3914 8.05972C7.29031 7.95864 7.15321 7.90185 7.01026 7.90185H4.02339C3.88043 7.90185 3.74333 7.95864 3.64225 8.05972C3.54116 8.16081 3.48438 8.29791 3.48438 8.44086C3.48438 8.58382 3.54116 8.72092 3.64225 8.82201C3.74333 8.92309 3.88043 8.97988 4.02339 8.97988ZM5.61744 4.59588L7.85687 5.91108C7.91793 5.94827 7.98578 5.97294 8.05647 5.98365C8.12716 5.99437 8.19927 5.99091 8.26861 5.97349C8.33795 5.95607 8.40313 5.92502 8.46035 5.88217C8.51758 5.83931 8.5657 5.7855 8.60193 5.72386C8.63816 5.66222 8.66177 5.594 8.67137 5.52315C8.68098 5.45231 8.67639 5.38026 8.65789 5.3112C8.63938 5.24214 8.60732 5.17746 8.56357 5.12091C8.51983 5.06436 8.46527 5.01708 8.40307 4.98182L6.16292 3.66159C6.10158 3.62577 6.03378 3.60239 5.96339 3.59278C5.89301 3.58316 5.82142 3.58751 5.75272 3.60556C5.61396 3.64202 5.49537 3.7321 5.42303 3.856C5.3507 3.97989 5.33054 4.12745 5.367 4.2662C5.40346 4.40496 5.49355 4.52355 5.61744 4.59588ZM7.85687 10.9728L5.61744 12.2858C5.49355 12.3582 5.40346 12.4768 5.367 12.6155C5.33054 12.7543 5.3507 12.9018 5.42303 13.0257C5.49537 13.1496 5.61396 13.2397 5.75272 13.2762C5.89147 13.3126 6.03903 13.2925 6.16292 13.2201L8.40307 11.9042C8.46527 11.869 8.51983 11.8217 8.56357 11.7651C8.60732 11.7086 8.63938 11.6439 8.65789 11.5748C8.67639 11.5058 8.68098 11.4337 8.67137 11.3629C8.66177 11.292 8.63816 11.2238 8.60193 11.1622C8.5657 11.1005 8.51758 11.0467 8.46035 11.0039C8.40313 10.961 8.33795 10.93 8.26861 10.9125C8.19927 10.8951 8.12716 10.8917 8.05647 10.9024C7.98578 10.9131 7.91793 10.9378 7.85687 10.975V10.9728Z" fill="#4ABCEB"/>
<path d="M17.1911 10.7866C17.2416 10.8409 17.3027 10.8842 17.3707 10.9139C17.4388 10.9435 17.5121 10.9588 17.5863 10.9588C17.6605 10.9588 17.7339 10.9435 17.8019 10.9139C17.8699 10.8842 17.9311 10.8409 17.9816 10.7866L21.6714 6.83379C21.7197 6.78188 21.7573 6.72096 21.7821 6.65452C21.8069 6.58807 21.8183 6.51739 21.8158 6.44651C21.8132 6.37564 21.7968 6.30596 21.7673 6.24145C21.7378 6.17694 21.696 6.11887 21.644 6.07055C21.5921 6.02222 21.5312 5.9846 21.4648 5.95982C21.3983 5.93504 21.3276 5.92359 21.2568 5.92613C21.1859 5.92866 21.1162 5.94513 21.0517 5.9746C20.9872 6.00406 20.9291 6.04595 20.8808 6.09786L17.5856 9.62805L15.9197 7.84355C15.8221 7.73871 15.6869 7.67694 15.5437 7.67182C15.4006 7.6667 15.2613 7.71865 15.1564 7.81624C15.0516 7.91383 14.9898 8.04907 14.9847 8.1922C14.9796 8.33534 15.0315 8.47465 15.1291 8.57948L17.1911 10.7866Z" fill="#4ABCEB"/>
</svg>
