<svg width="41" height="38" viewBox="0 0 41 38" fill="none" xmlns="http://www.w3.org/2000/svg">
<path d="M26.5738 34.8771H26.4014C25.8694 34.874 25.3544 34.6747 24.9491 34.3128C24.5435 33.9507 24.2742 33.4492 24.1916 32.8974C24.1915 32.8973 24.1915 32.8971 24.1915 32.897L23.7703 29.976L23.7394 29.7617H23.5229H16.9126H16.6961L16.6652 29.9761L16.2443 32.897C16.2443 32.8972 16.2443 32.8974 16.2443 32.8976C16.1616 33.4493 15.8923 33.9508 15.4867 34.3128C15.0814 34.6747 14.5664 34.874 14.0344 34.8771L13.862 34.8771L13.8616 34.8771C13.5311 34.8776 13.2108 34.99 12.9495 35.1957C12.6883 35.4012 12.5005 35.6882 12.4128 36.0121L12.3275 36.3274H12.6541H27.7817H28.1083L28.023 36.0121C27.9354 35.6882 27.7476 35.4012 27.4864 35.1957C27.225 34.99 26.9047 34.8776 26.5742 34.8771H26.5738Z" stroke="#20336B" stroke-width="0.5"/>
<rect x="0.4" y="1.20469" width="39.4466" height="28.9186" rx="1.6" stroke="#20336B" stroke-width="0.8"/>
<path d="M20.2075 28.831C20.7881 28.831 21.2587 28.3604 21.2587 27.7798C21.2587 27.1992 20.7881 26.7285 20.2075 26.7285C19.6269 26.7285 19.1562 27.1992 19.1562 27.7798C19.1562 28.3604 19.6269 28.831 20.2075 28.831Z" fill="#3FAFE9"/>
<path d="M35.4426 3.49766H35.4425H21.0543C20.9384 3.49766 20.8273 3.54368 20.7454 3.6256C20.6635 3.70753 20.6174 3.81864 20.6174 3.93449C20.6174 4.05035 20.6635 4.16146 20.7454 4.24338C20.8273 4.3253 20.9384 4.37133 21.0543 4.37133H35.4425C35.7733 4.37133 36.0906 4.50274 36.3245 4.73666C36.5584 4.97058 36.6898 5.28785 36.6898 5.61866V24.0711C36.6898 24.402 36.5584 24.7192 36.3245 24.9531C36.0906 25.1871 35.7733 25.3185 35.4425 25.3185H4.9819C4.65109 25.3185 4.33384 25.1871 4.09992 24.9531C3.866 24.7192 3.73459 24.402 3.73459 24.0711V5.61866C3.73459 5.28785 3.866 4.97058 4.09992 4.73666C4.33384 4.50274 4.65109 4.37133 4.9819 4.37133H15.0756C15.1914 4.37133 15.3026 4.3253 15.3845 4.24338L15.3138 4.17267L15.3845 4.24338C15.4664 4.16146 15.5124 4.05035 15.5124 3.93449C15.5124 3.81864 15.4664 3.70753 15.3845 3.6256L15.3845 3.6256C15.3026 3.54368 15.1914 3.49766 15.0756 3.49766L4.9819 3.49766L4.98178 3.49766C4.4195 3.49831 3.88043 3.72197 3.48284 4.11958C3.08525 4.51718 2.86159 5.05625 2.86094 5.61855V5.61866L2.86094 24.0711L2.86094 24.0713C2.86159 24.6336 3.08525 25.1726 3.48284 25.5702C3.88043 25.9678 4.4195 26.1915 4.98178 26.1922H4.9819H35.4425H35.4426C36.0049 26.1915 36.544 25.9678 36.9416 25.5702C37.3392 25.1726 37.5628 24.6336 37.5635 24.0713V24.0711V5.61866V5.61855C37.5628 5.05625 37.3392 4.51718 36.9416 4.11958C36.544 3.72197 36.0049 3.49831 35.4426 3.49766Z" fill="#24BAF2" stroke="#24BAF2" stroke-width="0.2"/>
<path d="M16.5946 4.37133H19.4577C19.5735 4.37133 19.6846 4.3253 19.7666 4.24338C19.8485 4.16146 19.8945 4.05035 19.8945 3.93449C19.8945 3.81864 19.8485 3.70753 19.7666 3.6256C19.6846 3.54368 19.5735 3.49766 19.4577 3.49766H16.5946C16.4788 3.49766 16.3677 3.54368 16.2858 3.6256C16.2038 3.70753 16.1578 3.81864 16.1578 3.93449C16.1578 4.05035 16.2038 4.16146 16.2858 4.24338C16.3677 4.3253 16.4788 4.37133 16.5946 4.37133Z" fill="#24BAF2" stroke="#24BAF2" stroke-width="0.2"/>
<path d="M12.5596 7.91289H12.5596C11.1859 7.91289 9.84305 8.32025 8.70086 9.08345C7.55868 9.84665 6.66845 10.9314 6.14276 12.2006C5.61707 13.4697 5.47953 14.8663 5.74752 16.2136C6.01552 17.5609 6.67701 18.7985 7.64836 19.7699C8.61971 20.7413 9.85728 21.4028 11.2046 21.6708C12.5519 21.9388 13.9484 21.8012 15.2175 21.2755C16.4867 20.7498 17.5714 19.8596 18.3346 18.7174C19.0978 17.5752 19.5051 16.2323 19.5051 14.8586V14.8585C19.503 13.0171 18.7706 11.2516 17.4686 9.9495C16.1665 8.64739 14.4011 7.91496 12.5596 7.91289ZM6.38839 14.8586V14.8586C6.3899 13.28 6.99551 11.7618 8.08095 10.6155C9.15427 9.48212 10.6163 8.79738 12.1728 8.69772V14.7963L10.2562 20.5841C9.12162 20.1295 8.14758 19.3473 7.45858 18.3367C6.75968 17.3116 6.38667 16.0993 6.38839 14.8586ZM12.5595 21.0302C12.0301 21.0303 11.5029 20.9621 10.9911 20.8274L12.8379 15.2454H18.7196C18.6196 16.8017 17.9348 18.2634 16.8017 19.3368C15.6557 20.4222 14.1379 21.0281 12.5595 21.0302ZM12.9464 14.4717V8.69772C14.4455 8.79382 15.859 9.43268 16.922 10.4958C17.985 11.559 18.6237 12.9726 18.7196 14.4717H12.9464ZM21.054 21.4715H34.3587C34.4613 21.4715 34.5597 21.4307 34.6322 21.3582C34.7048 21.2856 34.7455 21.1872 34.7455 21.0846C34.7455 20.982 34.7048 20.8836 34.6322 20.8111C34.5597 20.7385 34.4613 20.6978 34.3587 20.6978H32.893V15.0465C32.893 14.9439 32.8522 14.8455 32.7797 14.773C32.7071 14.7004 32.6087 14.6597 32.5061 14.6597H30.2326C30.13 14.6597 30.0316 14.7004 29.959 14.773C29.8865 14.8455 29.8457 14.9439 29.8457 15.0465V20.6978H29.1879V10.6677C29.1879 10.5651 29.1471 10.4667 29.0746 10.3941C29.002 10.3216 28.9036 10.2808 28.8011 10.2808H26.5275C26.4249 10.2808 26.3265 10.3216 26.2539 10.3941C26.1814 10.4667 26.1406 10.5651 26.1406 10.6677V20.6978H25.4828V13.3624C25.4828 13.2598 25.442 13.1614 25.3695 13.0888C25.2969 13.0163 25.1985 12.9755 25.096 12.9755H22.8224C22.7198 12.9755 22.6214 13.0163 22.5488 13.0888C22.4763 13.1614 22.4355 13.2598 22.4355 13.3624V20.6978H21.4409V8.60692C21.4409 8.50432 21.4001 8.40593 21.3276 8.33339C21.255 8.26084 21.1566 8.22008 21.054 8.22008C20.9514 8.22008 20.853 8.26084 20.7805 8.33339C20.708 8.40593 20.6672 8.50432 20.6672 8.60692V21.0846C20.6672 21.1872 20.708 21.2856 20.7805 21.3582C20.853 21.4307 20.9514 21.4715 21.054 21.4715ZM30.6194 15.4334H32.1193V20.6978H30.6194V15.4334ZM26.9143 11.0545H28.4142V20.6978H26.9143V11.0545ZM23.2092 13.7492H24.7091V20.6978H23.2092V13.7492Z" fill="#20336B" stroke="#20336B" stroke-width="0.1"/>
</svg>
