<svg width="36" height="37" viewBox="0 0 36 37" fill="none" xmlns="http://www.w3.org/2000/svg">
<path d="M35.7102 22.792L35.7018 22.7782C35.3176 22.1933 34.7311 21.7706 34.0547 21.5912C33.3783 21.4117 32.6594 21.4881 32.0358 21.8056L28.191 23.7724C27.7308 23.1256 27.0533 22.6659 26.2823 22.4771C25.5112 22.2883 24.698 22.383 23.991 22.744L19.1496 25.2256C18.8969 25.3554 18.6165 25.4223 18.3324 25.4205C18.0483 25.4187 17.7687 25.3484 17.5176 25.2154L14.2176 23.4634C12.9688 22.7967 11.5596 22.4891 10.1466 22.5747C8.73348 22.6603 7.37175 23.1357 6.21247 23.9482L5.83927 22.171C5.82302 22.0936 5.79164 22.0203 5.74695 21.9551C5.70225 21.8899 5.64512 21.8342 5.57883 21.7911C5.51254 21.7481 5.4384 21.7186 5.36066 21.7043C5.28293 21.69 5.20314 21.6912 5.12587 21.7078L0.47348 22.7116C0.318591 22.745 0.183208 22.8383 0.0968776 22.9712C0.0105473 23.1041 -0.0197205 23.2657 0.0126805 23.4208L2.72167 36.3286C2.7493 36.4639 2.82276 36.5855 2.92966 36.673C3.03656 36.7604 3.17036 36.8083 3.30847 36.8086C3.35081 36.8084 3.39302 36.804 3.43447 36.7954L8.08926 35.7934C8.24439 35.7601 8.38002 35.6667 8.46649 35.5337C8.55296 35.4007 8.58322 35.2388 8.55066 35.0836L8.31066 33.928L9.90126 33.586C10.3647 33.4872 10.8416 33.4689 11.3113 33.532L18.7926 34.3522C20.3458 34.5579 21.9206 34.1883 23.22 33.313L35.2038 25.273C35.5957 25.0076 35.8681 24.5994 35.9628 24.1357C36.0574 23.672 35.9667 23.1897 35.7102 22.792ZM3.77227 35.4922L1.30928 23.7592L4.78927 23.0092L7.25407 34.7428L3.77227 35.4922ZM34.536 24.2782L22.5528 32.3182C21.4898 33.0305 20.2029 33.3292 18.9348 33.1582L11.4541 32.338C10.852 32.2574 10.2406 32.2818 9.64686 32.41L8.06166 32.7508L6.48007 25.2256L6.88987 24.94C7.86852 24.2517 9.01893 23.8483 10.2131 23.7748C11.4074 23.7013 12.5986 23.9605 13.6543 24.5236L16.9542 26.2756C17.3758 26.4999 17.8454 26.6187 18.323 26.622C18.8005 26.6252 19.2717 26.5127 19.6962 26.2942L24.54 23.8096C25.0241 23.5622 25.5846 23.51 26.106 23.6639C26.6274 23.8177 27.0698 24.1658 27.342 24.6364C27.4223 24.7741 27.445 24.9379 27.4052 25.0922C27.3654 25.2466 27.2664 25.379 27.1296 25.4608L20.454 29.4208C19.2867 30.1176 17.8958 30.3379 16.5702 30.0358L10.5487 28.5958L10.2697 29.7634L16.2972 31.2034C17.9242 31.5761 19.6322 31.3073 21.066 30.4528L27.7422 26.4928C28.0155 26.3286 28.2403 26.0947 28.3936 25.8152C28.5469 25.5356 28.6232 25.2203 28.6146 24.9016L32.58 22.8724C32.9391 22.69 33.3527 22.6461 33.7422 22.7488C34.1316 22.8516 34.4696 23.094 34.692 23.4298L34.6986 23.4406C34.785 23.5742 34.8163 23.736 34.786 23.8921C34.7556 24.0483 34.6661 24.1866 34.536 24.2782Z" fill="#20336B"/>
<path d="M2.71192 24.6798L3.88672 24.4338L4.13272 25.6068L2.95792 25.8528L2.71192 24.6798ZM11.4023 16.4047C11.2432 16.4047 11.0906 16.4679 10.978 16.5804C10.8655 16.6929 10.8023 16.8455 10.8023 17.0047V20.6046C10.8023 20.7638 10.8655 20.9164 10.978 21.0289C11.0906 21.1414 11.2432 21.2046 11.4023 21.2046H13.8023C13.9614 21.2046 14.114 21.1414 14.2266 21.0289C14.3391 20.9164 14.4023 20.7638 14.4023 20.6046V17.0047C14.4023 16.8455 14.3391 16.6929 14.2266 16.5804C14.114 16.4679 13.9614 16.4047 13.8023 16.4047H11.4023ZM13.2023 20.0046H12.0023V17.6047H13.2023V20.0046ZM16.8023 12.2047C16.6432 12.2047 16.4906 12.2679 16.378 12.3804C16.2655 12.4929 16.2023 12.6455 16.2023 12.8047V20.6046C16.2023 20.7638 16.2655 20.9164 16.378 21.0289C16.4906 21.1414 16.6432 21.2046 16.8023 21.2046H19.2023C19.3614 21.2046 19.514 21.1414 19.6266 21.0289C19.7391 20.9164 19.8023 20.7638 19.8023 20.6046V12.8047C19.8023 12.6455 19.7391 12.4929 19.6266 12.3804C19.514 12.2679 19.3614 12.2047 19.2023 12.2047H16.8023ZM18.6023 20.0046H17.4023V13.4047H18.6023V20.0046ZM22.2023 14.0047C22.0432 14.0047 21.8905 14.0679 21.778 14.1804C21.6655 14.2929 21.6023 14.4455 21.6023 14.6047V20.6046C21.6023 20.7638 21.6655 20.9164 21.778 21.0289C21.8905 21.1414 22.0432 21.2046 22.2023 21.2046H24.6023C24.7614 21.2046 24.914 21.1414 25.0265 21.0289C25.1391 20.9164 25.2023 20.7638 25.2023 20.6046V14.6047C25.2023 14.4455 25.1391 14.2929 25.0265 14.1804C24.914 14.0679 24.7614 14.0047 24.6023 14.0047H22.2023ZM24.0023 20.0046H22.8023V15.2047H24.0023V20.0046ZM27.6023 11.0047C27.4431 11.0047 27.2905 11.0679 27.178 11.1804C27.0655 11.2929 27.0023 11.4455 27.0023 11.6047V20.6046C27.0023 20.7638 27.0655 20.9164 27.178 21.0289C27.2905 21.1414 27.4431 21.2046 27.6023 21.2046H30.0023C30.1614 21.2046 30.314 21.1414 30.4265 21.0289C30.539 20.9164 30.6023 20.7638 30.6023 20.6046V11.6047C30.6023 11.4455 30.539 11.2929 30.4265 11.1804C30.314 11.0679 30.1614 11.0047 30.0023 11.0047H27.6023ZM29.4023 20.0046H28.2023V12.2047H29.4023V20.0046ZM11.4023 7.05307L15.1781 10.8289C15.2906 10.9413 15.4432 11.0045 15.6023 11.0045C15.7614 11.0045 15.914 10.9413 16.0265 10.8289L22.8023 4.05308L27.7781 9.02887C27.8906 9.14135 28.0432 9.20454 28.2023 9.20454C28.3614 9.20454 28.514 9.14135 28.6265 9.02887L34.8023 2.85308V4.40468H36.0023V1.40469C36.0023 1.24556 35.939 1.09294 35.8265 0.980423C35.714 0.867901 35.5614 0.804688 35.4023 0.804688H32.4023V2.00468H33.9539L28.2023 7.75627L23.2265 2.78048C23.114 2.668 22.9614 2.60481 22.8023 2.60481C22.6432 2.60481 22.4906 2.668 22.3781 2.78048L15.6023 9.55627L11.8265 5.78048C11.714 5.66799 11.5614 5.6048 11.4023 5.6048C11.2432 5.6048 11.0906 5.66799 10.9781 5.78048L2.57812 14.1805L3.42652 15.0289L11.4023 7.05307Z" fill="#24BAF2"/>
</svg>
