<svg width="44" height="38" viewBox="0 0 44 38" fill="none" xmlns="http://www.w3.org/2000/svg">
<g clip-path="url(#clip0_1069_3654)">
<path d="M1 14.7976C2.39733 9.88344 6.68897 6.59916 11.4538 6.79758H17.0203C18.8238 6.79758 20.7313 7.79758 20.7313 9.79758V10.7976C20.7313 12.7976 18.8758 13.7976 17.0203 13.7976H13.3093C13.3093 13.7976 11.4538 20.7976 7.74285 20.7976" stroke="#20336B" stroke-width="1.6"/>
<path d="M23.5191 36.7969H9.60291C7.112 36.7981 4.7259 35.7165 2.98438 33.7969" stroke="#20336B" stroke-width="1.6"/>
<path d="M18.8672 24.7969H30.9279C32.465 24.7969 33.7111 26.1401 33.7111 27.7969C33.7111 29.4537 32.465 30.7969 30.9279 30.7969H23.5059" stroke="#20336B" stroke-width="1.6"/>
<path d="M18.8672 30.7969H23.5059C25.043 30.7969 26.2891 32.1401 26.2891 33.7969C26.2891 35.4537 25.043 36.7969 23.5059 36.7969H20.7227" stroke="#20336B" stroke-width="1.6"/>
<path d="M42.9979 8.79688H20.5391" stroke="#20336B" stroke-width="1.6"/>
<path d="M9.59375 6.95288V3.79688C9.59375 2.14002 10.8398 0.796875 12.377 0.796875H40.2093C41.7464 0.796875 42.9926 2.14002 42.9926 3.79688V21.7969C42.9926 23.4537 41.7464 24.7969 40.2093 24.7969H12.377C10.8398 24.7969 9.59375 23.4537 9.59375 21.7969V20.1729" stroke="#20336B" stroke-width="1.6"/>
<path d="M39.2852 12.7969H33.7188" stroke="#00BAF2" stroke-width="1.6"/>
</g>
<defs>
<clipPath id="clip0_1069_3654">
<rect width="44" height="38" fill="white"/>
</clipPath>
</defs>
</svg>
