<svg width="36" height="37" viewBox="0 0 36 37" fill="none" xmlns="http://www.w3.org/2000/svg">
<path fill-rule="evenodd" clip-rule="evenodd" d="M32.2483 1.92969H30.4843H30.4828C26.3722 1.93017 22.4168 3.50007 19.4248 6.31869L17.4688 8.16369C16.6608 8.92411 15.889 9.72198 15.1558 10.5547H7.60026C6.67776 10.5547 5.82426 11.0392 5.35026 11.8297L1.28526 18.6007C1.19293 18.7546 1.13877 18.9284 1.1273 19.1075C1.11583 19.2866 1.14738 19.4659 1.21932 19.6303C1.29126 19.7948 1.40151 19.9396 1.54084 20.0527C1.68017 20.1659 1.84456 20.244 2.02026 20.2807L8.87676 21.7252C8.93606 21.7998 9.00073 21.87 9.07026 21.9352L12.0613 24.7447L14.8693 27.7357C14.9345 27.8052 15.0046 27.8699 15.0793 27.9292L16.5238 34.7872C16.5608 34.9626 16.6392 35.1267 16.7525 35.2657C16.8659 35.4046 17.0107 35.5145 17.1751 35.5861C17.3395 35.6578 17.5186 35.6891 17.6976 35.6774C17.8765 35.6658 18.05 35.6115 18.2038 35.5192L24.9748 31.4557C25.7653 30.9817 26.2498 30.1282 26.2498 29.2057V21.6487C27.0834 20.9155 27.8823 20.1436 28.6438 19.3357L30.4858 17.3797C33.3049 14.3869 34.8744 10.4302 34.8733 6.31869V4.55319C34.8729 3.85725 34.5961 3.18996 34.1039 2.698C33.6116 2.20604 32.9442 1.92969 32.2483 1.92969ZM19.0123 9.80019L20.9683 7.95669C23.543 5.53091 26.9468 4.17988 30.4843 4.17969H32.2498C32.3492 4.17969 32.4446 4.2192 32.5149 4.28952C32.5853 4.35985 32.6248 4.45523 32.6248 4.55469V6.31869C32.6259 9.85699 31.2753 13.2621 28.8493 15.8377L27.0073 17.7922C25.2716 19.6345 23.3322 21.2735 21.2263 22.6777L16.2943 25.9657L13.6798 23.1787C13.6635 23.1609 13.6465 23.1439 13.6288 23.1277L10.8403 20.5117L14.1298 15.5767C15.5334 13.4726 17.1714 11.5347 19.0123 9.80019ZM12.2563 14.3302L8.86326 19.4227L4.02876 18.4042L7.27926 12.9862C7.3126 12.9308 7.35967 12.8851 7.41591 12.8533C7.47215 12.8215 7.53565 12.8047 7.60026 12.8047H13.3318C12.9613 13.3027 12.6013 13.8112 12.2563 14.3302ZM22.4743 24.5497C22.9933 24.2032 23.5018 23.8447 24.0013 23.4727V29.2057C24.0012 29.2703 23.9845 29.3338 23.9527 29.39C23.9209 29.4463 23.8751 29.4933 23.8198 29.5267L18.4018 32.7772L17.3848 27.9427L22.4743 24.5497ZM26.0796 13.666C26.1928 13.3929 26.2512 13.1003 26.2513 12.8047C26.2515 12.2078 26.0145 11.6352 25.5926 11.2129C25.1706 10.7907 24.5982 10.5534 24.0013 10.5532C23.4043 10.553 22.8318 10.7899 22.4095 11.2119C21.9873 11.6338 21.75 12.2063 21.7498 12.8032C21.7497 13.0988 21.8078 13.3915 21.9208 13.6646C22.0338 13.9377 22.1995 14.1859 22.4085 14.3949C22.6174 14.604 22.8655 14.7699 23.1385 14.8831C23.4115 14.9963 23.7042 15.0546 23.9998 15.0547C24.2953 15.0548 24.588 14.9967 24.8611 14.8836C25.1343 14.7706 25.3824 14.6049 25.5915 14.396C25.8006 14.1871 25.9664 13.939 26.0796 13.666Z" fill="#20336B"/>
<path d="M9.75126 32.3047C7.93776 34.1182 3.89976 34.4722 2.63676 34.5397C2.58723 34.5428 2.53759 34.5355 2.49107 34.5181C2.44456 34.5008 2.40221 34.4739 2.36676 34.4392C2.33202 34.4037 2.30512 34.3614 2.2878 34.3149C2.27049 34.2684 2.26315 34.2187 2.26626 34.1692C2.33376 32.9062 2.68776 28.8682 4.50126 27.0547C5.85126 25.7047 8.40126 25.7047 9.75126 27.0547C11.1013 28.4047 11.1013 30.9547 9.75126 32.3047Z" fill="#4ABCEB"/>
</svg>
