<svg width="30" height="30" viewBox="0 0 30 30" fill="none" xmlns="http://www.w3.org/2000/svg">
<path d="M25 5.29699V2.5C24.9982 1.12 23.88 0.00176 22.5 0H2.5C1.12 0.00176 0.00176 1.12 0 2.5V13.5C0.003872 14.7769 0.971744 15.8447 2.24202 15.9742L4.1215 20.8531C4.61802 22.1414 6.06474 22.7831 7.35312 22.2873L19.09 17.766C18.279 19.8844 18.5098 22.2607 19.7127 24.1836L20 24.643V29.5C20 29.7763 20.2237 30 20.5 30H29.5C29.7763 30 30 29.7763 30 29.5V12.9956C29.9954 11.2666 29.3067 9.60971 28.0844 8.38688L25 5.29699ZM25 8.28726L26.5175 12.2265C26.8149 12.9997 26.4295 13.8674 25.6564 14.165L24.789 14.5C24.9274 14.1847 24.9993 13.8443 25 13.5V8.28726ZM1 13.5V2.5C1 1.67174 1.67174 1 2.5 1H22.5C23.3283 1 24 1.67174 24 2.5V5.67802H23.9956L24 5.68938V13.5C23.9961 13.5872 23.9847 13.6738 23.966 13.759L19.386 9.17853C18.3565 8.17277 16.7153 8.16499 15.6765 9.16026C14.6375 10.1561 14.5751 11.7961 15.536 12.8674L17.4885 15H2.5C1.67174 15 1 14.3283 1 13.5ZM7.4055 16L3.84998 17.3689L3.32403 16H7.4055ZM6.9935 21.3539C6.22051 21.6519 5.35238 21.2665 5.0545 20.4935L4.21098 18.3L10.1795 16V15.997H18.405L19.0549 16.7055L6.9935 21.3539ZM29 29H21V25H29V29ZM29 24H20.7775L20.5606 23.6535C19.3415 21.7052 19.293 19.2445 20.434 17.25C20.4866 17.158 20.5087 17.0516 20.4969 16.9463C20.4851 16.841 20.4402 16.7421 20.3685 16.664L16.2711 12.194C15.6601 11.5252 15.6945 10.4914 16.3486 9.86502C17.003 9.2385 18.0374 9.24874 18.6789 9.88774L26.6465 17.8535L27.3535 17.1465L25.5035 15.2965L26.0165 15.0965C27.3037 14.5999 27.9452 13.1544 27.45 11.8664L25.7576 7.47187L27.3774 9.09501C28.4125 10.1297 28.9959 11.5321 29 12.9956V24Z" fill="#223872"/>
<path d="M2.5 8.5H4.5V9.5H2.5V8.5ZM2.5 11.5H4.5V12.5H2.5V11.5ZM11.5 11.5H13.5V12.5H11.5V11.5ZM5.5 8.5H7.5V9.5H5.5V8.5ZM8.5 8.5H10.5V9.5H8.5V8.5ZM11.5 8.5H13.5V9.5H11.5V8.5ZM21 2.5H22V4H21V2.5ZM19 2.5H20V4H19V2.5ZM17 2.5H18V4H17V2.5ZM15 2.5H16V4H15V2.5ZM22 26H23V27H22V26Z" fill="#4ABCEB"/>
</svg>
