<svg width="36" height="36" viewBox="0 0 36 36" fill="none" xmlns="http://www.w3.org/2000/svg">
<path d="M12.1266 27.5539C12.1174 27.5089 12.1041 27.4646 12.0865 27.4218C12.0689 27.3796 12.0471 27.3388 12.0218 27.3008C11.9965 27.2623 11.9673 27.2265 11.9346 27.1939C11.9021 27.1613 11.8663 27.1321 11.8277 27.1068C11.7894 27.0812 11.7487 27.0595 11.7061 27.0421C11.6639 27.0245 11.6196 27.0104 11.5746 27.002C11.4841 26.9837 11.3909 26.9837 11.3004 27.002C11.2554 27.0104 11.2111 27.0245 11.1682 27.0421C11.126 27.0596 11.0852 27.0814 11.0473 27.1068C11.0086 27.1321 10.9727 27.1616 10.9404 27.1939C10.908 27.2263 10.8785 27.2621 10.8532 27.3008C10.8272 27.3388 10.8061 27.3796 10.7885 27.4218C10.7707 27.4643 10.7573 27.5086 10.7484 27.5539C10.7393 27.5989 10.7344 27.6454 10.7344 27.6911C10.7344 27.7368 10.7393 27.7832 10.7484 27.8282C10.7569 27.8732 10.7709 27.9175 10.7885 27.9596C10.8061 28.0025 10.8272 28.0433 10.8532 28.0813C10.8785 28.12 10.908 28.1558 10.9404 28.1882C10.9727 28.2205 11.0086 28.25 11.0473 28.2754C11.0852 28.3007 11.126 28.3225 11.1682 28.3401C11.2111 28.3577 11.2554 28.3718 11.3004 28.3802C11.3454 28.3893 11.3918 28.3943 11.4375 28.3943C11.4832 28.3943 11.5296 28.3893 11.5746 28.3802C11.6196 28.3718 11.6639 28.3577 11.7061 28.3401C11.749 28.3225 11.7898 28.3007 11.8277 28.2754C11.8663 28.25 11.9021 28.2208 11.9346 28.1882C11.967 28.1558 11.9965 28.12 12.0218 28.0813C12.0471 28.0433 12.0689 28.0025 12.0865 27.9596C12.1218 27.8745 12.1402 27.7833 12.1406 27.6911C12.1406 27.6454 12.1357 27.5989 12.1266 27.5539Z" fill="#20336B"/>
<path d="M32.3433 27.7684C32.3405 27.7614 32.3377 27.7544 32.3348 27.7475C31.6876 26.2332 30.1698 25.6735 28.3736 26.287L23.4751 27.6416C23.1919 26.784 22.4854 26.0541 21.4866 25.6834C21.4804 25.6812 21.4742 25.6789 21.468 25.6768L16.0834 23.8493C15.6352 23.27 14.2313 21.7876 11.6028 21.7876C9.76592 21.7876 8.14092 23.0478 7.21125 24.4213H0.703125C0.314789 24.4213 0 24.7361 0 25.1244V33.9892C0 34.3776 0.314789 34.6924 0.703125 34.6924H4.8837C5.27203 34.6924 5.58682 34.3776 5.58682 33.9892V33.3822H7.54734C7.93568 33.3822 8.25047 33.0674 8.25047 32.679V32.4767C9.39333 32.5764 9.76922 32.7931 10.8188 33.3984C11.626 33.8639 12.846 34.5673 15.043 35.5552C15.0532 35.5597 15.0635 35.5641 15.0739 35.5682C15.4955 35.734 16.3198 35.9946 17.336 35.9946C18.0434 35.9946 18.8439 35.8683 19.6656 35.4958L30.4931 31.6191C30.5123 31.6122 30.5313 31.6044 30.5499 31.5959C31.5847 31.1198 33.1267 29.778 32.3433 27.7684ZM4.18057 33.286H1.40625V25.8275H4.18057V33.286ZM6.84422 31.9758H5.58682V25.8275H6.84422V31.9758ZM29.988 30.3061L19.1654 34.1811C19.145 34.1885 19.125 34.1967 19.1053 34.2056C17.598 34.8983 16.1653 34.4836 15.6038 34.2653C13.4816 33.3104 12.3489 32.6572 11.5213 32.18C10.3707 31.5166 9.81633 31.1968 8.25047 31.0675V25.4044C8.91696 24.312 10.2094 23.1938 11.6029 23.1938C13.9925 23.1938 15.0051 24.7481 15.0449 24.8108C15.1308 24.9504 15.2627 25.0557 15.4179 25.1083L21.006 27.0049C21.8985 27.3399 22.3701 28.1042 22.1534 28.8664C22.1046 29.0397 22.022 29.2015 21.9103 29.3426C21.7985 29.4837 21.6599 29.6013 21.5025 29.6884C21.1882 29.8646 20.817 29.909 20.4701 29.812L14.1706 27.8157C13.8002 27.6984 13.4052 27.9034 13.2879 28.2736C13.1705 28.6438 13.3755 29.0389 13.7457 29.1563L20.0562 31.1561C20.0629 31.1582 20.0696 31.1602 20.0763 31.1621C20.3246 31.233 20.5815 31.269 20.8397 31.2692C21.3064 31.2692 21.768 31.1503 22.187 30.9169C22.8348 30.5559 23.3032 29.9643 23.506 29.251C23.5221 29.1941 23.5365 29.1371 23.5489 29.0802L28.8282 27.6177C29.5907 27.3572 30.5916 27.2633 31.0372 28.2897C31.4985 29.4946 30.2996 30.1575 29.988 30.3061ZM25.2464 9.24535C25.2373 9.20035 25.2239 9.15605 25.2056 9.11316C25.1881 9.07098 25.167 9.03019 25.1409 8.99223C25.1156 8.95371 25.0864 8.9179 25.0538 8.88535C25.0212 8.8527 24.9854 8.82349 24.9469 8.79816C24.9089 8.77285 24.8681 8.75105 24.8259 8.73348C24.7836 8.71577 24.7395 8.70235 24.6945 8.6934C24.6037 8.67512 24.5103 8.67512 24.4195 8.6934C24.3745 8.70184 24.3302 8.7159 24.288 8.73348C24.2452 8.75105 24.2044 8.77285 24.1664 8.79816C24.1277 8.82348 24.0919 8.85301 24.0595 8.88535C24.0272 8.91769 23.9977 8.95355 23.9723 8.99223C23.947 9.03019 23.9252 9.07098 23.9077 9.11316C23.8899 9.15575 23.8764 9.20004 23.8676 9.24535C23.8584 9.29035 23.8535 9.33676 23.8535 9.38246C23.8535 9.42816 23.8584 9.47457 23.8676 9.51957C23.876 9.56457 23.8901 9.60887 23.9077 9.65105C23.9252 9.69394 23.947 9.73473 23.9723 9.77269C23.9977 9.81137 24.0272 9.84723 24.0595 9.87957C24.0919 9.91191 24.1277 9.94144 24.1664 9.96676C24.2044 9.99207 24.2452 10.0139 24.288 10.0314C24.3302 10.049 24.3745 10.0624 24.4195 10.0715C24.4645 10.0807 24.5109 10.0856 24.5566 10.0856C24.6023 10.0856 24.6488 10.0807 24.6945 10.0715C24.7388 10.0624 24.783 10.049 24.8259 10.0314C24.8681 10.0139 24.9089 9.99207 24.9469 9.96676C24.9854 9.94143 25.0212 9.91222 25.0538 9.87957C25.0861 9.84723 25.1156 9.81137 25.1409 9.77269C25.167 9.73473 25.1881 9.69394 25.2056 9.65105C25.2239 9.60887 25.2373 9.56457 25.2464 9.51957C25.2555 9.47457 25.2598 9.42816 25.2598 9.38246C25.2598 9.33676 25.2555 9.29035 25.2464 9.24535Z" fill="#20336B"/>
<path d="M35.2952 2.38133H31.1146C30.7263 2.38133 30.4115 2.69612 30.4115 3.08445V3.69153H28.451C28.0626 3.69153 27.7478 4.00632 27.7478 4.39465V4.59701C26.605 4.49724 26.2291 4.28054 25.1795 3.67529C24.3723 3.20982 23.1524 2.50634 20.9553 1.51852C20.9451 1.5139 20.9348 1.50956 20.9244 1.50551C20.2092 1.22412 18.3349 0.670482 16.333 1.57772L13.5037 2.59079L11.1187 0.205928C10.8442 -0.0686426 10.3989 -0.0686426 10.1244 0.205928L2.2945 8.03572C2.04124 8.28905 1.99265 8.72829 2.2945 9.03015L15.6741 22.4097C15.8882 22.6239 16.3895 22.6886 16.6685 22.4097L23.8168 15.2615C24.0026 15.2775 24.1955 15.2861 24.3954 15.2861C26.2324 15.2861 27.8573 14.026 28.7869 12.6525H35.2952C35.6835 12.6525 35.9983 12.3377 35.9983 11.9494V3.08445C35.9983 2.69612 35.6835 2.38133 35.2952 2.38133ZM10.6215 1.69747L12.224 3.30003C11.7477 3.59464 11.1969 3.75228 10.6215 3.75228C10.046 3.75228 9.49528 3.59471 9.01891 3.30003L10.6215 1.69747ZM5.38868 10.1355L3.78611 8.5329L5.38868 6.93033C5.68328 7.4067 5.84093 7.95746 5.84093 8.5329C5.84093 9.10833 5.68336 9.65909 5.38868 10.1355ZM16.1713 20.9181L14.569 19.3158C15.5473 18.7121 16.7952 18.7121 17.7735 19.3158L16.1713 20.9181ZM18.7866 18.3029C17.2328 17.1758 15.1098 17.1758 13.556 18.3029L6.40167 11.1485C6.95074 10.3933 7.24718 9.48619 7.24718 8.5329C7.24718 7.57953 6.95081 6.6725 6.40167 5.91734L8.00599 4.31309C8.76114 4.86216 9.66818 5.1586 10.6215 5.1586C11.5749 5.1586 12.4819 4.86216 13.2371 4.31309L14.7579 5.83388C14.4254 5.88329 14.1047 5.99269 13.8113 6.15676C13.3073 6.43758 12.9119 6.85812 12.6657 7.3669C11.8687 7.5146 11.1353 7.90051 10.5623 8.47369C8.99957 10.0365 8.99957 12.5792 10.5623 14.1419C11.3437 14.9232 12.37 15.314 13.3964 15.314C14.4228 15.314 15.4492 14.9233 16.2306 14.1419C16.7389 13.6336 17.0951 13.0088 17.2735 12.3279L19.6475 13.1336C19.3802 14.3716 19.654 15.6741 20.3923 16.6972L18.7866 18.3029ZM14.5117 11.3903C14.5179 11.3925 14.5241 11.3948 14.5304 11.3969L15.9363 11.8741C15.8302 12.3533 15.5899 12.7938 15.2362 13.1476C14.2218 14.1619 12.5711 14.162 11.5568 13.1476C10.5423 12.1332 10.5423 10.4826 11.5568 9.46812C11.7994 9.22537 12.0876 9.03305 12.4049 8.90225C12.5347 9.98239 13.3124 10.9452 14.5117 11.3903ZM21.4054 15.684C21.1349 15.2422 20.9804 14.7392 20.9562 14.2217C21.3388 14.4981 21.7557 14.7238 22.1962 14.8932L21.4054 15.684ZM27.7478 11.669C27.0813 12.7616 25.7889 13.8797 24.3954 13.8797C24.1347 13.8797 23.8904 13.8612 23.6619 13.8281L23.6592 13.8277C22.1407 13.6071 21.3239 12.7441 21.0547 12.4024C21.0403 12.3813 20.9792 12.3014 20.9701 12.2881C20.8854 12.1363 20.7473 12.0215 20.5826 11.9658L14.9922 10.0685C14.1001 9.73362 13.6285 8.96968 13.8447 8.20777L13.8451 8.2063L13.8456 8.20454C13.8945 8.03179 13.9772 7.87044 14.0888 7.72978C14.2004 7.58913 14.3387 7.47194 14.4958 7.38497C14.81 7.20874 15.1812 7.16432 15.5282 7.26144L21.8277 9.25768C22.1979 9.37517 22.5931 9.17 22.7104 8.7998C22.8277 8.42961 22.6227 8.03445 22.2525 7.9171L17.2424 6.32944L17.1986 6.28571L17.1973 6.28437L14.6035 3.69055L16.8329 2.89222C16.8405 2.88947 16.8498 2.88603 16.8572 2.88301L16.8646 2.88005C16.8741 2.87619 16.8836 2.87211 16.8929 2.86782C18.4001 2.1751 19.8328 2.58973 20.3944 2.80812C22.5167 3.76304 23.6494 4.41617 24.477 4.89338C25.6276 5.55692 26.182 5.87663 27.7478 6.00594V11.669ZM30.4115 11.2461H29.1541V5.09778H30.4115V11.2461ZM34.5921 11.2461H31.8177V3.78758H34.5921V11.2461Z" fill="#20336B"/>
</svg>
