<svg width="40" height="38" viewBox="0 0 40 38" fill="none" xmlns="http://www.w3.org/2000/svg">
<path d="M1 14.5986V11.2963C1 8.4935 3.27217 6.22133 6.07499 6.22133H23.2902M6.85213 4.60156V7.53874M16.7209 4.60156V7.53874" stroke="#20336B" stroke-miterlimit="10" stroke-linecap="round" stroke-linejoin="round"/>
<path d="M31.0167 17.2654C35.509 17.2654 39.1506 13.6234 39.1506 9.13074C39.1506 4.6381 35.509 0.996094 31.0167 0.996094C26.5245 0.996094 22.8828 4.6381 22.8828 9.13074C22.8828 13.6234 26.5245 17.2654 31.0167 17.2654Z" stroke="#20336B" stroke-miterlimit="10" stroke-linecap="round" stroke-linejoin="round"/>
<path d="M24.6456 14.3574H1V32.7416C1 35.3644 3.27217 37.4906 6.07499 37.4906H27.3669C30.1505 37.4906 32.4107 35.3935 32.4415 32.7955M32.4419 25.2305V17.0789" stroke="#20336B" stroke-miterlimit="10" stroke-linecap="round" stroke-linejoin="round"/>
<path d="M31.0234 7.14453V11.0501H34.251" stroke="#24BAF2" stroke-miterlimit="10" stroke-linecap="round" stroke-linejoin="round"/>
<circle cx="8.94928" cy="22.459" r="1.58991" fill="#24BAF2"/>
<circle cx="8.94928" cy="30.4102" r="1.58991" fill="#24BAF2"/>
<circle cx="16.9024" cy="30.4102" r="1.58991" fill="#24BAF2"/>
<circle cx="24.8477" cy="30.4102" r="1.58991" fill="#24BAF2"/>
<circle cx="16.9024" cy="22.459" r="1.58991" fill="#24BAF2"/>
<circle cx="24.8477" cy="22.459" r="1.58991" fill="#24BAF2"/>
</svg>
