<svg width="45" height="37" viewBox="0 0 45 37" fill="none" xmlns="http://www.w3.org/2000/svg">
<path fill-rule="evenodd" clip-rule="evenodd" d="M7.38281 1.79688H42.9948C43.547 1.79688 43.9948 2.24459 43.9948 2.79688V27.6056C43.9948 28.1578 43.547 28.6056 42.9948 28.6056H21.255C21.1743 28.9452 21.0794 29.2787 20.9711 29.6056H42.9948C44.0993 29.6056 44.9948 28.7101 44.9948 27.6056V2.79688C44.9948 1.69231 44.0993 0.796875 42.9948 0.796875H7.38281C6.27824 0.796875 5.38281 1.6923 5.38281 2.79687V15.7807C5.70594 15.5814 6.03965 15.3994 6.38281 15.236V2.79687C6.38281 2.24459 6.83053 1.79688 7.38281 1.79688Z" fill="#223872"/>
<rect x="10.8047" y="6.19727" width="21.6065" height="1.80054" rx="0.900271" fill="#3FAFE9"/>
<rect x="10.8047" y="9.79883" width="21.6065" height="1.80054" rx="0.900271" fill="#3FAFE9"/>
<path d="M21.1065 26.0005C21.1065 31.6909 16.4936 36.3038 10.8033 36.3038C5.11293 36.3038 0.5 31.6909 0.5 26.0005C0.5 20.3102 5.11293 15.6973 10.8033 15.6973C16.4936 15.6973 21.1065 20.3102 21.1065 26.0005Z" stroke="#223872"/>
<mask id="path-5-inside-1_1001_53385" fill="white">
<path fill-rule="evenodd" clip-rule="evenodd" d="M8.59534 23.2244L10.8556 20.6733C11.405 20.0532 12.353 19.9959 12.9731 20.5453L15.8654 23.1078C16.4854 23.6572 16.5427 24.6052 15.9934 25.2253L13.8419 27.6536L14.6063 28.2988L16.7418 25.8885C17.6575 24.855 17.562 23.275 16.5285 22.3594L13.6362 19.7968C12.6028 18.8812 11.0228 18.9767 10.1071 20.0101L7.831 22.5791L8.59534 23.2244ZM7.3272 24.6557L6.56286 24.0104L4.60539 26.2198C3.68976 27.2532 3.78527 28.8332 4.8187 29.7488L7.711 32.3114C8.74443 33.227 10.3245 33.1315 11.2401 32.0981L13.3381 29.7301L12.5738 29.0849L10.4916 31.4349C9.94223 32.055 8.99421 32.1123 8.37415 31.5629L5.48186 29.0004C4.8618 28.451 4.80449 27.503 5.35387 26.8829L7.3272 24.6557Z"/>
</mask>
<path d="M10.8556 20.6733L11.6041 21.3364L10.8556 20.6733ZM8.59534 23.2244L7.95027 23.9885L8.69634 24.6183L9.34382 23.8875L8.59534 23.2244ZM12.9731 20.5453L12.3099 21.2938H12.3099L12.9731 20.5453ZM15.8654 23.1078L16.5285 22.3594L16.5285 22.3594L15.8654 23.1078ZM15.9934 25.2253L16.7418 25.8885L16.7418 25.8885L15.9934 25.2253ZM13.8419 27.6536L13.0934 26.9904L12.4142 27.757L13.1968 28.4177L13.8419 27.6536ZM14.6063 28.2988L13.9612 29.0629L14.7073 29.6928L15.3547 28.962L14.6063 28.2988ZM16.7418 25.8885L17.4903 26.5516L16.7418 25.8885ZM16.5285 22.3594L15.8654 23.1078V23.1078L16.5285 22.3594ZM13.6362 19.7968L12.9731 20.5453L12.9731 20.5453L13.6362 19.7968ZM10.1071 20.0101L9.35865 19.347L9.35865 19.347L10.1071 20.0101ZM7.831 22.5791L7.08252 21.9159L6.40332 22.6825L7.18593 23.3432L7.831 22.5791ZM7.3272 24.6557L8.07568 25.3188L8.75488 24.5522L7.97227 23.8916L7.3272 24.6557ZM6.56286 24.0104L7.20794 23.2463L6.46187 22.6165L5.81438 23.3473L6.56286 24.0104ZM4.60539 26.2198L3.8569 25.5566H3.8569L4.60539 26.2198ZM4.8187 29.7488L4.15555 30.4973L4.15555 30.4973L4.8187 29.7488ZM7.711 32.3114L7.04784 33.0599L7.711 32.3114ZM11.2401 32.0981L11.9886 32.7613L11.2401 32.0981ZM13.3381 29.7301L14.0866 30.3933L14.7658 29.6267L13.9832 28.966L13.3381 29.7301ZM12.5738 29.0849L13.2189 28.3207L12.4728 27.6909L11.8253 28.4217L12.5738 29.0849ZM10.4916 31.4349L9.74312 30.7718L10.4916 31.4349ZM8.37415 31.5629L7.711 32.3114L7.711 32.3114L8.37415 31.5629ZM5.48186 29.0004L6.14501 28.2519H6.14501L5.48186 29.0004ZM5.35387 26.8829L6.10235 27.5461H6.10235L5.35387 26.8829ZM10.1071 20.0101L7.84686 22.5612L9.34382 23.8875L11.6041 21.3364L10.1071 20.0101ZM13.6362 19.7968C12.6028 18.8812 11.0228 18.9767 10.1071 20.0101L11.6041 21.3364C11.7872 21.1297 12.1032 21.1106 12.3099 21.2938L13.6362 19.7968ZM16.5285 22.3594L13.6362 19.7968L12.3099 21.2938L15.2022 23.8563L16.5285 22.3594ZM16.7418 25.8885C17.6575 24.855 17.562 23.275 16.5285 22.3594L15.2022 23.8563C15.4089 24.0395 15.428 24.3555 15.2449 24.5621L16.7418 25.8885ZM14.5904 28.3167L16.7418 25.8885L15.2449 24.5621L13.0934 26.9904L14.5904 28.3167ZM13.1968 28.4177L13.9612 29.0629L15.2513 27.5347L14.487 26.8894L13.1968 28.4177ZM15.3547 28.962L17.4903 26.5516L15.9934 25.2253L13.8578 27.6357L15.3547 28.962ZM17.4903 26.5516C18.7722 25.1048 18.6385 22.8928 17.1917 21.6109L15.8654 23.1078C16.4854 23.6572 16.5427 24.6052 15.9934 25.2253L17.4903 26.5516ZM17.1917 21.6109L14.2994 19.0483L12.9731 20.5453L15.8654 23.1078L17.1917 21.6109ZM14.2994 19.0483C12.8526 17.7664 10.6405 17.9001 9.35865 19.347L10.8556 20.6733C11.405 20.0532 12.353 19.9959 12.9731 20.5453L14.2994 19.0483ZM9.35865 19.347L7.08252 21.9159L8.57949 23.2423L10.8556 20.6733L9.35865 19.347ZM7.18593 23.3432L7.95027 23.9885L9.24042 22.4602L8.47608 21.815L7.18593 23.3432ZM7.97227 23.8916L7.20794 23.2463L5.91779 24.7745L6.68213 25.4198L7.97227 23.8916ZM5.81438 23.3473L3.8569 25.5566L5.35387 26.8829L7.31134 24.6736L5.81438 23.3473ZM3.8569 25.5566C2.57503 27.0034 2.70874 29.2155 4.15555 30.4973L5.48186 29.0004C4.8618 28.451 4.80449 27.503 5.35387 26.8829L3.8569 25.5566ZM4.15555 30.4973L7.04784 33.0599L8.37415 31.5629L5.48186 29.0004L4.15555 30.4973ZM7.04784 33.0599C8.49465 34.3418 10.7067 34.2081 11.9886 32.7613L10.4916 31.4349C9.94223 32.055 8.99421 32.1123 8.37415 31.5629L7.04784 33.0599ZM11.9886 32.7613L14.0866 30.3933L12.5896 29.067L10.4916 31.4349L11.9886 32.7613ZM13.9832 28.966L13.2189 28.3207L11.9287 29.849L12.693 30.4942L13.9832 28.966ZM11.2401 32.0981L13.3223 29.748L11.8253 28.4217L9.74312 30.7718L11.2401 32.0981ZM7.711 32.3114C8.74443 33.227 10.3245 33.1315 11.2401 32.0981L9.74312 30.7718C9.56 30.9785 9.24399 30.9976 9.0373 30.8145L7.711 32.3114ZM4.8187 29.7488L7.711 32.3114L9.03731 30.8145L6.14501 28.2519L4.8187 29.7488ZM4.60539 26.2198C3.68976 27.2532 3.78527 28.8332 4.8187 29.7488L6.14501 28.2519C5.93833 28.0688 5.91922 27.7528 6.10235 27.5461L4.60539 26.2198ZM6.57872 23.9925L4.60539 26.2198L6.10235 27.5461L8.07568 25.3188L6.57872 23.9925Z" fill="#223872" mask="url(#path-5-inside-1_1001_53385)"/>
<rect x="12.5625" y="23.125" width="1.66204" height="6.64816" rx="0.5" transform="rotate(43.9974 12.5625 23.125)" fill="#3FAFE9"/>
<circle cx="31.4935" cy="21.4994" r="4.00136" stroke="#223872"/>
<circle cx="35.1107" cy="21.4994" r="4.00136" stroke="#223872"/>
</svg>
