<svg width="300" height="168" viewBox="0 0 300 168" fill="none" xmlns="http://www.w3.org/2000/svg">
<path d="M12.1887 15H10.4247V4.948H17.1307V6.516H12.1887V9.246H16.3327V10.814H12.1887V15ZM18.1333 6.67V4.948H19.8693V6.67H18.1333ZM19.8413 7.65V15H18.1613V7.65H19.8413ZM21.6066 15V7.65H23.2866V8.434C23.7066 7.944 24.3646 7.51 25.3166 7.51C26.8566 7.51 27.7806 8.574 27.7806 10.156V15H26.1006V10.646C26.1006 9.736 25.7366 9.078 24.8126 9.078C24.0566 9.078 23.2866 9.638 23.2866 10.688V15H21.6066ZM31.4413 15.126C30.0413 15.126 28.9633 14.272 28.9633 12.956C28.9633 11.556 30.0133 10.94 31.4273 10.646L33.4573 10.226V10.1C33.4573 9.4 33.0933 8.966 32.1973 8.966C31.3993 8.966 30.9793 9.33 30.7833 10.044L29.2013 9.68C29.5653 8.462 30.6433 7.51 32.2673 7.51C34.0313 7.51 35.0953 8.35 35.0953 10.044V13.208C35.0953 13.628 35.2773 13.754 35.7393 13.698V15C34.5213 15.14 33.8773 14.902 33.6253 14.3C33.1633 14.818 32.3933 15.126 31.4413 15.126ZM33.4573 12.41V11.514L31.8753 11.85C31.1613 12.004 30.6293 12.228 30.6293 12.886C30.6293 13.46 31.0493 13.782 31.6933 13.782C32.5893 13.782 33.4573 13.306 33.4573 12.41ZM36.9328 15V7.65H38.6128V8.434C39.0328 7.944 39.6908 7.51 40.6428 7.51C42.1828 7.51 43.1068 8.574 43.1068 10.156V15H41.4268V10.646C41.4268 9.736 41.0628 9.078 40.1388 9.078C39.3828 9.078 38.6128 9.638 38.6128 10.688V15H36.9328ZM46.0395 11.332C46.0395 12.83 46.8235 13.698 47.9715 13.698C48.8675 13.698 49.4135 13.11 49.6235 12.298L51.0655 13.026C50.6875 14.216 49.5675 15.154 47.9715 15.154C45.8715 15.154 44.3595 13.6 44.3595 11.332C44.3595 9.064 45.8715 7.51 47.9715 7.51C49.5535 7.51 50.6455 8.406 51.0375 9.582L49.6235 10.352C49.4135 9.554 48.8675 8.952 47.9715 8.952C46.8235 8.952 46.0395 9.834 46.0395 11.332ZM52.0532 6.67V4.948H53.7892V6.67H52.0532ZM53.7612 7.65V15H52.0812V7.65H53.7612ZM57.4725 15.126C56.0725 15.126 54.9945 14.272 54.9945 12.956C54.9945 11.556 56.0445 10.94 57.4585 10.646L59.4885 10.226V10.1C59.4885 9.4 59.1245 8.966 58.2285 8.966C57.4305 8.966 57.0105 9.33 56.8145 10.044L55.2325 9.68C55.5965 8.462 56.6745 7.51 58.2985 7.51C60.0625 7.51 61.1265 8.35 61.1265 10.044V13.208C61.1265 13.628 61.3085 13.754 61.7705 13.698V15C60.5525 15.14 59.9085 14.902 59.6565 14.3C59.1945 14.818 58.4245 15.126 57.4725 15.126ZM59.4885 12.41V11.514L57.9065 11.85C57.1925 12.004 56.6605 12.228 56.6605 12.886C56.6605 13.46 57.0805 13.782 57.7245 13.782C58.6205 13.782 59.4885 13.306 59.4885 12.41ZM64.644 4.948V15H62.964V4.948H64.644ZM11.8749 29.108V33H10.0829V22.948H14.1009C16.3409 22.948 17.7409 23.998 17.7409 26.028C17.7409 28.03 16.3409 29.108 14.1009 29.108H11.8749ZM11.8749 27.568H14.0029C15.2909 27.568 15.9769 27.008 15.9769 26.028C15.9769 25.034 15.2909 24.488 14.0029 24.488H11.8749V27.568ZM22.8938 25.636V27.316C22.6838 27.288 22.5158 27.274 22.2778 27.274C21.2138 27.274 20.4018 27.96 20.4018 29.136V33H18.7218V25.65H20.4018V26.742C20.7238 26.056 21.4798 25.608 22.4178 25.608C22.6138 25.608 22.7678 25.622 22.8938 25.636ZM30.3204 29.332C30.3204 31.614 28.8504 33.154 26.7784 33.154C24.7064 33.154 23.2364 31.614 23.2364 29.332C23.2364 27.05 24.7064 25.51 26.7784 25.51C28.8504 25.51 30.3204 27.05 30.3204 29.332ZM24.9304 29.332C24.9304 30.83 25.6444 31.74 26.7784 31.74C27.9124 31.74 28.6264 30.83 28.6264 29.332C28.6264 27.834 27.9124 26.924 26.7784 26.924C25.6444 26.924 24.9304 27.834 24.9304 29.332ZM34.4001 33.154C32.3421 33.154 31.1661 31.418 31.1661 29.332C31.1661 27.246 32.3421 25.51 34.4001 25.51C35.3521 25.51 36.0521 25.888 36.5141 26.434V22.948H38.1941V33H36.5141V32.23C36.0521 32.776 35.3521 33.154 34.4001 33.154ZM36.5561 29.122C36.5561 27.736 35.7721 26.98 34.7361 26.98C33.5181 26.98 32.8601 27.932 32.8601 29.332C32.8601 30.732 33.5181 31.684 34.7361 31.684C35.7721 31.684 36.5561 30.914 36.5561 29.556V29.122ZM46.0723 25.65V33H44.3923V32.216C43.9723 32.706 43.3423 33.154 42.3903 33.154C40.8503 33.154 39.8983 32.104 39.8983 30.522V25.65H41.5783V30.158C41.5783 31.054 41.9703 31.628 42.8803 31.628C43.6363 31.628 44.3923 31.068 44.3923 30.018V25.65H46.0723ZM49.0609 29.332C49.0609 30.83 49.8449 31.698 50.9929 31.698C51.8889 31.698 52.4349 31.11 52.6449 30.298L54.0869 31.026C53.7089 32.216 52.5889 33.154 50.9929 33.154C48.8929 33.154 47.3809 31.6 47.3809 29.332C47.3809 27.064 48.8929 25.51 50.9929 25.51C52.5749 25.51 53.6669 26.406 54.0589 27.582L52.6449 28.352C52.4349 27.554 51.8889 26.952 50.9929 26.952C49.8449 26.952 49.0609 27.834 49.0609 29.332ZM55.2567 31.152V27.078H54.2347V25.65H55.2567V23.494H56.9087V25.65H58.4487V27.078H56.9087V30.886C56.9087 31.544 57.2867 31.614 57.8887 31.614C58.1687 31.614 58.3227 31.6 58.5747 31.572V32.986C58.2667 33.042 57.8467 33.084 57.4127 33.084C56.0127 33.084 55.2567 32.65 55.2567 31.152ZM59.0632 31.6L60.3232 30.592C60.7572 31.306 61.5972 31.782 62.4512 31.782C63.1652 31.782 63.8232 31.53 63.8232 30.872C63.8232 30.242 63.2072 30.172 62.0452 29.934C60.8832 29.696 59.5532 29.402 59.5532 27.834C59.5532 26.49 60.7292 25.51 62.4232 25.51C63.7112 25.51 64.8592 26.084 65.3912 26.896L64.2572 27.918C63.8372 27.26 63.1372 26.882 62.3252 26.882C61.6392 26.882 61.1912 27.19 61.1912 27.68C61.1912 28.212 61.7232 28.31 62.6472 28.506C63.8932 28.772 65.4612 29.038 65.4612 30.718C65.4612 32.202 64.1032 33.154 62.4372 33.154C61.0792 33.154 59.7212 32.608 59.0632 31.6Z" fill="#20336B"/>
<path d="M31 80L33.8868 75H28.1132L31 80ZM30.5 44V75.5H31.5V44H30.5Z" fill="#20336B"/>
<path d="M102 115L97 112.113V117.887L102 115ZM66 115.5H97.5V114.5H66V115.5Z" fill="#20336B"/>
<path d="M214 115L209 112.113V117.887L214 115ZM178 115.5H209.5V114.5H178V115.5Z" fill="#20336B"/>
<path d="M255 141.5C270.188 141.5 282.5 129.188 282.5 114C282.5 98.8122 270.188 86.5 255 86.5C239.812 86.5 227.5 98.8122 227.5 114C227.5 129.188 239.812 141.5 255 141.5Z" stroke="#20336B"/>
<path d="M265.319 115.74L265.314 115.731C265.074 115.365 264.707 115.101 264.284 114.989C263.861 114.877 263.412 114.925 263.022 115.123L260.619 116.352C260.332 115.948 259.908 115.661 259.426 115.543C258.945 115.425 258.436 115.484 257.994 115.71L254.969 117.261C254.811 117.342 254.635 117.384 254.458 117.382C254.28 117.381 254.105 117.337 253.949 117.254L251.886 116.159C251.106 115.743 250.225 115.55 249.342 115.604C248.458 115.657 247.607 115.954 246.883 116.462L246.65 115.352C246.639 115.303 246.62 115.257 246.592 115.217C246.564 115.176 246.528 115.141 246.487 115.114C246.445 115.087 246.399 115.069 246.35 115.06C246.302 115.051 246.252 115.052 246.204 115.062L243.296 115.689C243.199 115.71 243.115 115.769 243.061 115.852C243.007 115.935 242.988 116.036 243.008 116.133L244.701 124.2C244.718 124.285 244.764 124.361 244.831 124.415C244.898 124.47 244.981 124.5 245.068 124.5C245.094 124.5 245.121 124.497 245.147 124.492L248.056 123.866C248.153 123.845 248.238 123.786 248.292 123.703C248.346 123.62 248.365 123.519 248.344 123.422L248.194 122.7L249.188 122.486C249.478 122.424 249.776 122.413 250.07 122.452L254.745 122.965C255.716 123.093 256.7 122.862 257.513 122.315L265.002 117.29C265.247 117.124 265.418 116.869 265.477 116.579C265.536 116.29 265.479 115.988 265.319 115.74ZM245.358 123.677L243.818 116.344L245.993 115.875L247.534 123.209L245.358 123.677ZM264.585 116.669L257.096 121.694C256.431 122.139 255.627 122.325 254.834 122.219L250.159 121.706C249.783 121.656 249.4 121.671 249.029 121.751L248.039 121.964L247.05 117.261L247.306 117.082C247.918 116.652 248.637 116.4 249.383 116.354C250.13 116.308 250.874 116.47 251.534 116.822L253.596 117.917C253.86 118.057 254.153 118.131 254.452 118.133C254.75 118.135 255.045 118.065 255.31 117.929L258.338 116.376C258.64 116.221 258.99 116.188 259.316 116.285C259.642 116.381 259.919 116.598 260.089 116.892C260.139 116.978 260.153 117.081 260.128 117.177C260.103 117.274 260.042 117.357 259.956 117.408L255.784 119.883C255.054 120.318 254.185 120.456 253.356 120.267L249.593 119.367L249.419 120.097L253.186 120.997C254.203 121.23 255.27 121.062 256.166 120.528L260.339 118.053C260.51 117.95 260.65 117.804 260.746 117.629C260.842 117.454 260.89 117.257 260.884 117.058L263.363 115.79C263.587 115.676 263.846 115.648 264.089 115.713C264.332 115.777 264.544 115.928 264.683 116.138L264.687 116.145C264.741 116.228 264.76 116.33 264.741 116.427C264.722 116.525 264.666 116.611 264.585 116.669Z" fill="#20336B"/>
<path d="M244.693 116.92L245.427 116.766L245.581 117.499L244.847 117.653L244.693 116.92ZM250.124 111.748C250.025 111.748 249.93 111.788 249.859 111.858C249.789 111.928 249.749 112.024 249.749 112.123V114.373C249.749 114.473 249.789 114.568 249.859 114.638C249.93 114.709 250.025 114.748 250.124 114.748H251.625C251.724 114.748 251.819 114.709 251.89 114.638C251.96 114.568 252 114.473 252 114.373V112.123C252 112.024 251.96 111.928 251.89 111.858C251.819 111.788 251.724 111.748 251.625 111.748H250.124ZM251.25 113.998H250.499V112.498H251.25V113.998ZM253.5 109.123C253.4 109.123 253.305 109.163 253.234 109.233C253.164 109.303 253.125 109.399 253.125 109.498V114.373C253.125 114.473 253.164 114.568 253.234 114.638C253.305 114.709 253.4 114.748 253.5 114.748H255C255.099 114.748 255.194 114.709 255.265 114.638C255.335 114.568 255.375 114.473 255.375 114.373V109.498C255.375 109.399 255.335 109.303 255.265 109.233C255.194 109.163 255.099 109.123 255 109.123H253.5ZM254.625 113.998H253.875V109.873H254.625V113.998ZM256.875 110.248C256.775 110.248 256.68 110.288 256.609 110.358C256.539 110.428 256.5 110.524 256.5 110.623V114.373C256.5 114.473 256.539 114.568 256.609 114.638C256.68 114.709 256.775 114.748 256.875 114.748H258.375C258.474 114.748 258.569 114.709 258.64 114.638C258.71 114.568 258.75 114.473 258.75 114.373V110.623C258.75 110.524 258.71 110.428 258.64 110.358C258.569 110.288 258.474 110.248 258.375 110.248H256.875ZM258 113.998H257.25V110.998H258V113.998ZM260.25 108.373C260.15 108.373 260.055 108.413 259.984 108.483C259.914 108.553 259.875 108.649 259.875 108.748V114.373C259.875 114.473 259.914 114.568 259.984 114.638C260.055 114.709 260.15 114.748 260.25 114.748H261.75C261.849 114.748 261.944 114.709 262.015 114.638C262.085 114.568 262.125 114.473 262.125 114.373V108.748C262.125 108.649 262.085 108.553 262.015 108.483C261.944 108.413 261.849 108.373 261.75 108.373H260.25ZM261.375 113.998H260.625V109.123H261.375V113.998ZM250.124 105.903L252.484 108.263C252.555 108.333 252.65 108.373 252.75 108.373C252.849 108.373 252.944 108.333 253.015 108.263L257.25 104.028L260.359 107.138C260.43 107.208 260.525 107.248 260.625 107.248C260.724 107.248 260.819 107.208 260.89 107.138L264.75 103.278V104.248H265.5V102.373C265.5 102.274 265.46 102.178 265.39 102.108C265.319 102.038 265.224 101.998 265.125 101.998H263.25V102.748H264.219L260.625 106.343L257.515 103.233C257.444 103.163 257.349 103.123 257.25 103.123C257.15 103.123 257.055 103.163 256.984 103.233L252.75 107.468L250.39 105.108C250.319 105.038 250.224 104.998 250.124 104.998C250.025 104.998 249.93 105.038 249.859 105.108L244.609 110.358L245.14 110.888L250.124 105.903Z" fill="#24BAF2"/>
<path d="M219.333 154.948V165H217.541V154.948H219.333ZM221.162 165V157.65H222.842V158.434C223.262 157.944 223.92 157.51 224.872 157.51C226.412 157.51 227.336 158.574 227.336 160.156V165H225.656V160.646C225.656 159.736 225.292 159.078 224.368 159.078C223.612 159.078 222.842 159.638 222.842 160.688V165H221.162ZM232.442 165H230.748L228.06 157.65H229.824L231.616 162.984L233.394 157.65H235.13L232.442 165ZM238.968 165.154C236.868 165.154 235.398 163.6 235.398 161.332C235.398 159.176 236.854 157.51 238.898 157.51C241.026 157.51 242.16 159.12 242.16 161.136V161.696H237.008C237.134 162.956 237.89 163.726 238.968 163.726C239.794 163.726 240.452 163.306 240.676 162.55L242.118 163.096C241.6 164.384 240.438 165.154 238.968 165.154ZM238.884 158.924C238.016 158.924 237.344 159.442 237.092 160.436H240.466C240.452 159.624 239.948 158.924 238.884 158.924ZM242.65 163.6L243.91 162.592C244.344 163.306 245.184 163.782 246.038 163.782C246.752 163.782 247.41 163.53 247.41 162.872C247.41 162.242 246.794 162.172 245.632 161.934C244.47 161.696 243.14 161.402 243.14 159.834C243.14 158.49 244.316 157.51 246.01 157.51C247.298 157.51 248.446 158.084 248.978 158.896L247.844 159.918C247.424 159.26 246.724 158.882 245.912 158.882C245.226 158.882 244.778 159.19 244.778 159.68C244.778 160.212 245.31 160.31 246.234 160.506C247.48 160.772 249.048 161.038 249.048 162.718C249.048 164.202 247.69 165.154 246.024 165.154C244.666 165.154 243.308 164.608 242.65 163.6ZM250.492 163.152V159.078H249.47V157.65H250.492V155.494H252.144V157.65H253.684V159.078H252.144V162.886C252.144 163.544 252.522 163.614 253.124 163.614C253.404 163.614 253.558 163.6 253.81 163.572V164.986C253.502 165.042 253.082 165.084 252.648 165.084C251.248 165.084 250.492 164.65 250.492 163.152ZM256.749 160.688V165H255.069V157.65H256.749V158.434C257.155 157.944 257.785 157.51 258.765 157.51C259.647 157.51 260.305 157.902 260.711 158.532C261.159 158.056 261.859 157.51 262.993 157.51C264.505 157.51 265.485 158.574 265.485 160.156V165H263.805V160.646C263.805 159.736 263.469 159.078 262.573 159.078C261.859 159.078 261.117 159.638 261.117 160.688V165H259.437V160.646C259.437 159.736 259.101 159.078 258.205 159.078C257.491 159.078 256.749 159.638 256.749 160.688ZM270.303 165.154C268.203 165.154 266.733 163.6 266.733 161.332C266.733 159.176 268.189 157.51 270.233 157.51C272.361 157.51 273.495 159.12 273.495 161.136V161.696H268.343C268.469 162.956 269.225 163.726 270.303 163.726C271.129 163.726 271.787 163.306 272.011 162.55L273.453 163.096C272.935 164.384 271.773 165.154 270.303 165.154ZM270.219 158.924C269.351 158.924 268.679 159.442 268.427 160.436H271.801C271.787 159.624 271.283 158.924 270.219 158.924ZM274.756 165V157.65H276.436V158.434C276.856 157.944 277.514 157.51 278.466 157.51C280.006 157.51 280.93 158.574 280.93 160.156V165H279.25V160.646C279.25 159.736 278.886 159.078 277.962 159.078C277.206 159.078 276.436 159.638 276.436 160.688V165H274.756ZM282.799 163.152V159.078H281.777V157.65H282.799V155.494H284.451V157.65H285.991V159.078H284.451V162.886C284.451 163.544 284.829 163.614 285.431 163.614C285.711 163.614 285.865 163.6 286.117 163.572V164.986C285.809 165.042 285.389 165.084 284.955 165.084C283.555 165.084 282.799 164.65 282.799 163.152ZM286.605 163.6L287.865 162.592C288.299 163.306 289.139 163.782 289.993 163.782C290.707 163.782 291.365 163.53 291.365 162.872C291.365 162.242 290.749 162.172 289.587 161.934C288.425 161.696 287.095 161.402 287.095 159.834C287.095 158.49 288.271 157.51 289.965 157.51C291.253 157.51 292.401 158.084 292.933 158.896L291.799 159.918C291.379 159.26 290.679 158.882 289.867 158.882C289.181 158.882 288.733 159.19 288.733 159.68C288.733 160.212 289.265 160.31 290.189 160.506C291.435 160.772 293.003 161.038 293.003 162.718C293.003 164.202 291.645 165.154 289.979 165.154C288.621 165.154 287.263 164.608 286.605 163.6Z" fill="#20336B"/>
<path d="M12.5916 165V154.948H14.3836V163.432H19.1156V165H12.5916ZM26.6905 161.332C26.6905 163.614 25.2205 165.154 23.1485 165.154C21.0765 165.154 19.6065 163.614 19.6065 161.332C19.6065 159.05 21.0765 157.51 23.1485 157.51C25.2205 157.51 26.6905 159.05 26.6905 161.332ZM21.3005 161.332C21.3005 162.83 22.0145 163.74 23.1485 163.74C24.2825 163.74 24.9965 162.83 24.9965 161.332C24.9965 159.834 24.2825 158.924 23.1485 158.924C22.0145 158.924 21.3005 159.834 21.3005 161.332ZM29.9442 165.126C28.5442 165.126 27.4662 164.272 27.4662 162.956C27.4662 161.556 28.5162 160.94 29.9302 160.646L31.9602 160.226V160.1C31.9602 159.4 31.5962 158.966 30.7002 158.966C29.9022 158.966 29.4822 159.33 29.2862 160.044L27.7042 159.68C28.0682 158.462 29.1462 157.51 30.7702 157.51C32.5342 157.51 33.5982 158.35 33.5982 160.044V163.208C33.5982 163.628 33.7802 163.754 34.2422 163.698V165C33.0242 165.14 32.3802 164.902 32.1282 164.3C31.6662 164.818 30.8962 165.126 29.9442 165.126ZM31.9602 162.41V161.514L30.3782 161.85C29.6642 162.004 29.1322 162.228 29.1322 162.886C29.1322 163.46 29.5522 163.782 30.1962 163.782C31.0922 163.782 31.9602 163.306 31.9602 162.41ZM35.4357 165V157.65H37.1157V158.434C37.5357 157.944 38.1937 157.51 39.1457 157.51C40.6857 157.51 41.6097 158.574 41.6097 160.156V165H39.9297V160.646C39.9297 159.736 39.5657 159.078 38.6417 159.078C37.8857 159.078 37.1157 159.638 37.1157 160.688V165H35.4357ZM42.5544 163.6L43.8144 162.592C44.2484 163.306 45.0884 163.782 45.9424 163.782C46.6564 163.782 47.3144 163.53 47.3144 162.872C47.3144 162.242 46.6984 162.172 45.5364 161.934C44.3744 161.696 43.0444 161.402 43.0444 159.834C43.0444 158.49 44.2204 157.51 45.9144 157.51C47.2024 157.51 48.3504 158.084 48.8824 158.896L47.7484 159.918C47.3284 159.26 46.6284 158.882 45.8164 158.882C45.1304 158.882 44.6824 159.19 44.6824 159.68C44.6824 160.212 45.2144 160.31 46.1384 160.506C47.3844 160.772 48.9524 161.038 48.9524 162.718C48.9524 164.202 47.5944 165.154 45.9284 165.154C44.5704 165.154 43.2124 164.608 42.5544 163.6Z" fill="#20336B"/>
<path d="M136 141.5C151.188 141.5 163.5 129.188 163.5 114C163.5 98.8122 151.188 86.5 136 86.5C120.812 86.5 108.5 98.8122 108.5 114C108.5 129.188 120.812 141.5 136 141.5Z" stroke="#20336B"/>
<path d="M142.154 104.658L136.154 102.031C136.103 102.009 136.049 101.998 135.994 101.998C135.939 101.998 135.884 102.009 135.834 102.031L129.834 104.658C129.762 104.689 129.702 104.74 129.659 104.805C129.617 104.87 129.594 104.946 129.594 105.024V111.304C129.596 112.715 130.274 114.04 131.418 114.867L135.565 117.858C135.689 117.949 135.84 117.997 135.994 117.997C136.148 117.997 136.298 117.949 136.423 117.858L140.57 114.868C141.134 114.46 141.593 113.925 141.91 113.305C142.227 112.686 142.393 112 142.394 111.305V105.024C142.394 104.946 142.371 104.87 142.328 104.805C142.286 104.74 142.225 104.689 142.154 104.658ZM141.594 111.305C141.593 111.874 141.457 112.435 141.198 112.941C140.939 113.448 140.563 113.886 140.102 114.219L135.994 117.182L131.886 114.219C131.425 113.886 131.049 113.448 130.79 112.941C130.53 112.435 130.395 111.874 130.394 111.305V105.286L135.994 102.835L141.594 105.286V111.305Z" fill="#24BAF2"/>
<path d="M135.833 103.778L131.433 105.704C131.362 105.735 131.301 105.786 131.258 105.851C131.216 105.916 131.193 105.993 131.193 106.07V111.304C131.194 111.747 131.299 112.183 131.501 112.577C131.702 112.97 131.994 113.311 132.353 113.57L135.759 116.027C135.827 116.076 135.909 116.102 135.993 116.102C136.077 116.102 136.159 116.076 136.227 116.027L139.633 113.57C139.992 113.311 140.284 112.97 140.485 112.577C140.687 112.183 140.792 111.747 140.793 111.304V106.07C140.793 105.993 140.77 105.916 140.728 105.851C140.685 105.786 140.624 105.735 140.553 105.704L136.153 103.778C136.103 103.756 136.048 103.744 135.993 103.744C135.938 103.744 135.883 103.756 135.833 103.778ZM139.993 106.332V111.304C139.992 111.62 139.917 111.931 139.773 112.212C139.629 112.493 139.421 112.736 139.165 112.921L135.993 115.209L132.821 112.921C132.565 112.736 132.357 112.493 132.213 112.212C132.069 111.931 131.994 111.62 131.993 111.304V106.332L135.993 104.581L139.993 106.332ZM127.307 115.278L126.442 113.256C126.374 113.103 126.277 112.964 126.156 112.849C126.035 112.733 125.892 112.642 125.736 112.582C125.58 112.521 125.413 112.492 125.246 112.496C125.078 112.5 124.913 112.537 124.76 112.604C124.607 112.672 124.469 112.769 124.353 112.89C124.237 113.011 124.147 113.154 124.086 113.31C124.026 113.466 123.996 113.633 124 113.8C124.004 113.968 124.041 114.133 124.109 114.286L125.676 117.734C125.888 118.201 126.182 118.626 126.545 118.988L129.01 121.454C128.871 121.601 128.794 121.795 128.793 121.998V125.198C128.793 125.41 128.877 125.613 129.027 125.763C129.177 125.913 129.381 125.998 129.593 125.998H133.993C134.205 125.998 134.409 125.913 134.559 125.763C134.709 125.613 134.793 125.41 134.793 125.198V121.998C134.793 121.785 134.709 121.582 134.559 121.432C134.409 121.282 134.205 121.198 133.993 121.198V120.453C134.005 119.506 133.696 118.582 133.116 117.833C132.776 117.386 132.313 117.048 131.783 116.861C130.941 116.507 130.166 116.01 129.493 115.391C129.189 115.141 128.812 114.994 128.419 114.974C128.025 114.953 127.636 115.06 127.307 115.278ZM133.993 125.198H129.593V121.998H133.993V125.198ZM132.492 118.333C132.958 118.94 133.205 119.687 133.193 120.453V121.198H129.885L127.11 118.422C126.815 118.128 126.576 117.783 126.404 117.404L124.837 113.955C124.809 113.898 124.793 113.835 124.79 113.771C124.786 113.708 124.796 113.644 124.818 113.584C124.84 113.524 124.874 113.469 124.918 113.422C124.961 113.376 125.014 113.339 125.073 113.313C125.131 113.287 125.194 113.273 125.258 113.272C125.322 113.271 125.385 113.283 125.444 113.307C125.503 113.332 125.557 113.367 125.602 113.413C125.647 113.458 125.682 113.512 125.706 113.571L126.601 115.658C126.839 116.215 127.181 116.721 127.61 117.148L129.437 118.976C129.474 119.014 129.518 119.044 129.567 119.065C129.616 119.086 129.668 119.097 129.721 119.098C129.774 119.098 129.827 119.088 129.876 119.068C129.925 119.048 129.97 119.018 130.008 118.98C130.045 118.943 130.075 118.898 130.095 118.849C130.115 118.8 130.125 118.747 130.125 118.694C130.124 118.641 130.113 118.589 130.092 118.54C130.071 118.491 130.041 118.447 130.003 118.41L128.175 116.582C127.992 116.399 127.826 116.198 127.682 115.982C127.869 115.839 128.098 115.763 128.334 115.767C128.569 115.771 128.796 115.854 128.978 116.004C129.726 116.69 130.59 117.237 131.53 117.62C131.913 117.759 132.247 118.007 132.492 118.333Z" fill="#20336B"/>
<path d="M132.792 123.197H132.392C132.286 123.197 132.184 123.239 132.109 123.314C132.034 123.389 131.992 123.491 131.992 123.597C131.992 123.703 132.034 123.805 132.109 123.88C132.184 123.955 132.286 123.997 132.392 123.997H132.792C132.898 123.997 133 123.955 133.075 123.88C133.15 123.805 133.192 123.703 133.192 123.597C133.192 123.491 133.15 123.389 133.075 123.314C133 123.239 132.898 123.197 132.792 123.197ZM146.309 117.734L147.877 114.286C147.947 114.132 147.987 113.966 147.993 113.797C147.999 113.628 147.971 113.459 147.911 113.301C147.851 113.142 147.761 112.998 147.644 112.875C147.528 112.752 147.388 112.654 147.234 112.585C147.079 112.517 146.912 112.48 146.743 112.477C146.574 112.474 146.406 112.504 146.248 112.566C146.091 112.629 145.948 112.722 145.827 112.84C145.706 112.958 145.61 113.1 145.544 113.256L144.681 115.27C144.351 115.053 143.96 114.948 143.567 114.969C143.173 114.991 142.796 115.138 142.492 115.39C141.819 116.008 141.045 116.505 140.202 116.859C139.672 117.046 139.209 117.384 138.869 117.832C138.289 118.581 137.98 119.505 137.992 120.453V121.197C137.78 121.197 137.577 121.281 137.427 121.431C137.276 121.581 137.192 121.785 137.192 121.997V125.197C137.192 125.409 137.276 125.613 137.427 125.763C137.577 125.913 137.78 125.997 137.992 125.997H142.392C142.604 125.997 142.808 125.913 142.958 125.763C143.108 125.613 143.192 125.409 143.192 125.197V121.997C143.192 121.795 143.114 121.6 142.975 121.453L145.441 118.988C145.803 118.625 146.098 118.201 146.309 117.734ZM142.392 125.197H137.992V121.997H142.392V125.197ZM142.1 121.197H138.792V120.453C138.78 119.687 139.027 118.94 139.493 118.333C139.738 118.007 140.071 117.759 140.453 117.62C141.394 117.237 142.258 116.69 143.006 116.004C143.187 115.853 143.415 115.768 143.65 115.764C143.886 115.759 144.117 115.835 144.304 115.978C144.159 116.196 143.993 116.398 143.808 116.582L141.981 118.41C141.908 118.485 141.868 118.586 141.869 118.691C141.87 118.796 141.912 118.896 141.986 118.971C142.06 119.045 142.16 119.087 142.265 119.088C142.37 119.089 142.471 119.048 142.547 118.976L144.374 117.148C144.802 116.721 145.145 116.215 145.383 115.658L146.277 113.571C146.311 113.491 146.366 113.423 146.436 113.372C146.506 113.322 146.588 113.291 146.675 113.284C146.761 113.277 146.847 113.293 146.924 113.331C147.002 113.369 147.067 113.428 147.114 113.501C147.202 113.637 147.214 113.808 147.147 113.955L145.579 117.404C145.407 117.783 145.168 118.128 144.873 118.422L142.1 121.197Z" fill="#20336B"/>
<path d="M139.595 123.197H139.195C139.089 123.197 138.987 123.239 138.912 123.314C138.837 123.389 138.795 123.491 138.795 123.597C138.795 123.703 138.837 123.805 138.912 123.88C138.987 123.955 139.089 123.997 139.195 123.997H139.595C139.701 123.997 139.803 123.955 139.878 123.88C139.953 123.805 139.995 123.703 139.995 123.597C139.995 123.491 139.953 123.389 139.878 123.314C139.803 123.239 139.701 123.197 139.595 123.197ZM133.835 110.477C133.75 110.413 133.644 110.386 133.539 110.401C133.434 110.416 133.339 110.472 133.275 110.557C133.212 110.642 133.184 110.748 133.199 110.853C133.214 110.959 133.27 111.053 133.355 111.117L134.955 112.317C134.999 112.35 135.049 112.373 135.101 112.386C135.154 112.399 135.209 112.4 135.263 112.391C135.316 112.382 135.368 112.362 135.413 112.332C135.459 112.303 135.498 112.264 135.528 112.219L138.728 107.419C138.787 107.331 138.808 107.223 138.788 107.119C138.767 107.015 138.706 106.923 138.617 106.864C138.529 106.805 138.421 106.784 138.317 106.805C138.213 106.825 138.121 106.887 138.063 106.975L135.097 111.423L133.835 110.477Z" fill="#24BAF2"/>
<path d="M107.914 154.948V165H106.122V154.948H107.914ZM109.743 165V157.65H111.423V158.434C111.843 157.944 112.501 157.51 113.453 157.51C114.993 157.51 115.917 158.574 115.917 160.156V165H114.237V160.646C114.237 159.736 113.873 159.078 112.949 159.078C112.193 159.078 111.423 159.638 111.423 160.688V165H109.743ZM116.862 163.6L118.122 162.592C118.556 163.306 119.396 163.782 120.25 163.782C120.964 163.782 121.622 163.53 121.622 162.872C121.622 162.242 121.006 162.172 119.844 161.934C118.682 161.696 117.352 161.402 117.352 159.834C117.352 158.49 118.528 157.51 120.222 157.51C121.51 157.51 122.658 158.084 123.19 158.896L122.056 159.918C121.636 159.26 120.936 158.882 120.124 158.882C119.438 158.882 118.99 159.19 118.99 159.68C118.99 160.212 119.522 160.31 120.446 160.506C121.692 160.772 123.26 161.038 123.26 162.718C123.26 164.202 121.902 165.154 120.236 165.154C118.878 165.154 117.52 164.608 116.862 163.6ZM130.668 157.65V165H128.988V164.216C128.568 164.706 127.938 165.154 126.986 165.154C125.446 165.154 124.494 164.104 124.494 162.522V157.65H126.174V162.158C126.174 163.054 126.566 163.628 127.476 163.628C128.232 163.628 128.988 163.068 128.988 162.018V157.65H130.668ZM136.611 157.636V159.316C136.401 159.288 136.233 159.274 135.995 159.274C134.931 159.274 134.119 159.96 134.119 161.136V165H132.439V157.65H134.119V158.742C134.441 158.056 135.197 157.608 136.135 157.608C136.331 157.608 136.485 157.622 136.611 157.636ZM139.512 165.126C138.112 165.126 137.034 164.272 137.034 162.956C137.034 161.556 138.084 160.94 139.498 160.646L141.528 160.226V160.1C141.528 159.4 141.164 158.966 140.268 158.966C139.47 158.966 139.05 159.33 138.854 160.044L137.272 159.68C137.636 158.462 138.714 157.51 140.338 157.51C142.102 157.51 143.166 158.35 143.166 160.044V163.208C143.166 163.628 143.348 163.754 143.81 163.698V165C142.592 165.14 141.948 164.902 141.696 164.3C141.234 164.818 140.464 165.126 139.512 165.126ZM141.528 162.41V161.514L139.946 161.85C139.232 162.004 138.7 162.228 138.7 162.886C138.7 163.46 139.12 163.782 139.764 163.782C140.66 163.782 141.528 163.306 141.528 162.41ZM145.003 165V157.65H146.683V158.434C147.103 157.944 147.761 157.51 148.713 157.51C150.253 157.51 151.177 158.574 151.177 160.156V165H149.497V160.646C149.497 159.736 149.133 159.078 148.209 159.078C147.453 159.078 146.683 159.638 146.683 160.688V165H145.003ZM154.11 161.332C154.11 162.83 154.894 163.698 156.042 163.698C156.938 163.698 157.484 163.11 157.694 162.298L159.136 163.026C158.758 164.216 157.638 165.154 156.042 165.154C153.942 165.154 152.43 163.6 152.43 161.332C152.43 159.064 153.942 157.51 156.042 157.51C157.624 157.51 158.716 158.406 159.108 159.582L157.694 160.352C157.484 159.554 156.938 158.952 156.042 158.952C154.894 158.952 154.11 159.834 154.11 161.332ZM163.26 165.154C161.16 165.154 159.69 163.6 159.69 161.332C159.69 159.176 161.146 157.51 163.19 157.51C165.318 157.51 166.452 159.12 166.452 161.136V161.696H161.3C161.426 162.956 162.182 163.726 163.26 163.726C164.086 163.726 164.744 163.306 164.968 162.55L166.41 163.096C165.892 164.384 164.73 165.154 163.26 165.154ZM163.176 158.924C162.308 158.924 161.636 159.442 161.384 160.436H164.758C164.744 159.624 164.24 158.924 163.176 158.924Z" fill="#20336B"/>
<path d="M31 141.5C46.1878 141.5 58.5 129.188 58.5 114C58.5 98.8122 46.1878 86.5 31 86.5C15.8122 86.5 3.5 98.8122 3.5 114C3.5 129.188 15.8122 141.5 31 141.5Z" stroke="#20336B"/>
<mask id="mask0_1925_57" style="mask-type:luminance" maskUnits="userSpaceOnUse" x="19" y="101" width="24" height="25">
<path d="M43 101.998H19V125.998H43V101.998Z" fill="white"/>
</mask>
<g mask="url(#mask0_1925_57)">
<mask id="mask1_1925_57" style="mask-type:luminance" maskUnits="userSpaceOnUse" x="19" y="101" width="24" height="25">
<path d="M43 101.998H19V125.998H43V101.998Z" fill="white"/>
</mask>
<g mask="url(#mask1_1925_57)">
<path d="M34.7551 120.895L38.8444 119.537C39.8697 119.233 40.9757 119.602 41.6136 120.46C30.3253 126.103 33.9779 126.07 24.0751 122.768L20.3828 125.075" stroke="#20336B"/>
<path d="M28.6905 121.384H33.7674C34.1366 121.45 34.5098 121.29 34.7163 120.977C34.9227 120.664 34.9227 120.258 34.7163 119.944C34.5098 119.631 34.1366 119.471 33.7674 119.538H30.9982C29.9041 118.409 28.4155 117.747 26.8444 117.691H24.0751L20.3828 119.538" stroke="#20336B"/>
<path fill-rule="evenodd" clip-rule="evenodd" d="M34.2307 114.274C37.3655 114.274 39.9067 111.733 39.9067 108.598C39.9067 105.463 37.3655 102.922 34.2307 102.922C31.0959 102.922 28.5547 105.463 28.5547 108.598C28.5547 111.733 31.0959 114.274 34.2307 114.274Z" stroke="#20336B"/>
<path d="M31.2891 107.746H37.1632" stroke="#00BAF2" stroke-linecap="square"/>
<path d="M31.2891 108.922H37.1632" stroke="#00BAF2" stroke-linecap="square"/>
<path d="M35.9909 110.684H35.4035L33.0538 105.984H32.4297V110.684" stroke="#00BAF2" stroke-linecap="square"/>
<path d="M36.0234 110.684L36.0706 106.152" stroke="#00BAF2" stroke-linecap="square"/>
</g>
</g>
</svg>
