<svg width="38" height="32" viewBox="0 0 38 32" fill="none" xmlns="http://www.w3.org/2000/svg">
<mask id="path-1-inside-1_1972_5946" fill="white">
<rect x="1" width="26.8749" height="19.8197" rx="0.5"/>
</mask>
<rect x="1" width="26.8749" height="19.8197" rx="0.5" stroke="black" stroke-width="4" mask="url(#path-1-inside-1_1972_5946)"/>
<path d="M1.25781 30.9999V19.5654H4.30025V30.9999H1.25781Z" fill="black" stroke="black" stroke-linecap="square"/>
<path d="M17.2188 19.3114V28.1049C17.2188 28.1601 17.2635 28.2049 17.3188 28.2049H36.835C36.9088 28.2049 36.9572 28.1277 36.925 28.0613L32.7043 19.3523C32.6917 19.3263 32.6909 19.2962 32.7022 19.2696L36.9356 9.2865C36.9636 9.22056 36.9152 9.14746 36.8436 9.14746H27.6137" stroke="black" stroke-width="2" stroke-linecap="square"/>
<path d="M27.1109 19.8198L17.4766 27.951" stroke="black" stroke-width="2" stroke-linecap="square"/>
<path d="M13.6591 8.81066L13.659 6.11603L11.8067 7.14026C11.6729 7.20429 11.5604 7.24694 11.4752 7.26219C11.387 7.27437 11.3201 7.25914 11.2684 7.20734C11.2197 7.15549 11.1862 7.07016 11.168 6.94519C11.1498 6.82019 11.1406 6.64338 11.1406 6.41781C11.1406 6.27453 11.1437 6.15565 11.1498 6.0642C11.1558 5.97275 11.1711 5.8935 11.1954 5.82947C11.2167 5.76242 11.2501 5.7106 11.2927 5.66792C11.3323 5.62525 11.39 5.58257 11.46 5.53377L13.9358 3.92732C13.9662 3.90297 14.0027 3.88465 14.0453 3.86942C14.0909 3.85417 14.1487 3.842 14.2217 3.83285C14.2917 3.8237 14.386 3.81757 14.5016 3.81455C14.6171 3.81152 14.7662 3.81152 14.9517 3.81152C15.1768 3.81152 15.3593 3.81455 15.4992 3.8237C15.6391 3.83285 15.7456 3.8481 15.8155 3.86942C15.8885 3.89075 15.9341 3.91818 15.9585 3.95477C15.9828 3.99135 15.9949 4.03405 15.9949 4.0889V13.6332H17.8807C17.9355 13.6332 17.9841 13.6484 18.0298 13.6819C18.0754 13.7154 18.1119 13.7673 18.1454 13.8374C18.1788 13.9105 18.2031 14.002 18.2183 14.1179C18.2336 14.2367 18.2396 14.38 18.2396 14.5507C18.2396 14.7184 18.2305 14.8586 18.2123 14.9744C18.194 15.0902 18.1697 15.1847 18.1362 15.2518C18.1058 15.3219 18.0663 15.3707 18.0267 15.3981C17.9851 15.4281 17.9351 15.4441 17.8838 15.4438H11.5056C11.46 15.4438 11.4144 15.4286 11.3718 15.3981C11.3323 15.3707 11.2957 15.3219 11.2623 15.2518C11.2288 15.1847 11.2045 15.0902 11.1862 14.9744C11.168 14.8586 11.1589 14.7184 11.1589 14.5507C11.1589 14.38 11.1649 14.2367 11.1802 14.1179C11.1954 14.002 11.2197 13.9105 11.2532 13.8374C11.2866 13.7673 11.3231 13.7154 11.3657 13.6819C11.4052 13.6484 11.4539 13.6332 11.5056 13.6332H13.659V10.9385" stroke="black" stroke-width="1.2" stroke-miterlimit="2.613" stroke-linecap="round" stroke-linejoin="round"/>
<path d="M13.6562 8.38574V11.1808" stroke="black" stroke-width="1.22" stroke-linecap="square"/>
</svg>
