<svg width="393" height="323" viewBox="0 0 393 323" fill="none" xmlns="http://www.w3.org/2000/svg">
<path d="M0 322H14.5C17 321.833 22 321 22 313C22 308.674 22 228.036 22 145M52 1.4996C30.8 0.699597 22 5.99951 22 13.9996C22 49.2317 22 97.5079 22 145M22 145H52M148.5 145H165C168.333 144.666 175 142.3 175 135.5C175 128.7 175 82.3328 175 59.9995C175 56.8328 177.1 50.4995 185.5 50.4995C193.9 50.4995 198.667 50.4995 200 50.4995M148.5 1.4996H165.5C168.667 1.99957 175 5.49951 175 15.4995C175 25.4995 175 29.3328 175 29.9995C175.333 31.9995 177.9 35.9995 185.5 35.9995C193.1 35.9995 198.333 35.9995 200 35.9995M296.5 43.9995H371C377.833 43.8328 391.6 48.7995 392 69.9995C392.4 91.1995 392.167 154.166 392 183" stroke="black"/>
</svg>
