<svg width="48" height="37" viewBox="0 0 48 37" fill="none" xmlns="http://www.w3.org/2000/svg">
<mask id="mask0_875_115" style="mask-type:luminance" maskUnits="userSpaceOnUse" x="0" y="0" width="48" height="37">
<path d="M0 0H48V36.878H0V0Z" fill="white"/>
</mask>
<g mask="url(#mask0_875_115)">
<path d="M41.8832 34.1531L41.8832 34.1531L41.8813 34.1586C41.4987 35.3071 40.411 36.1358 39.1297 36.1358H3.40565C1.80123 36.1358 0.5 34.836 0.5 33.2325V13.9422C0.5 12.6633 1.32786 11.5751 2.47789 11.1903L2.4779 11.1903L2.48171 11.189C2.77162 11.0894 3.08034 11.0366 3.40565 11.0366L39.1297 11.0366L39.1299 11.0366C40.7343 11.0359 42.0353 12.3374 42.0353 13.9415V33.2317C42.0353 33.5559 41.9824 33.8665 41.8832 34.1531Z" fill="white" stroke="#BF9BFF"/>
<path d="M10.8685 23.9653H4.08731C3.75082 23.9653 3.47845 23.6929 3.47845 23.3564V17.4444C3.47845 17.1079 3.75082 16.8355 4.08731 16.8355H10.8685C11.205 16.8355 11.4773 17.1079 11.4773 17.4444V23.3564C11.4773 23.6929 11.205 23.9653 10.8685 23.9653Z" fill="#FF5900"/>
<path d="M7.04713 30.439H4.0748C3.76412 30.439 3.51218 30.0458 3.51218 29.561C3.51218 29.0761 3.76412 28.6829 4.0748 28.6829H7.04713C7.35779 28.6829 7.60976 29.0761 7.60976 29.561C7.60934 30.0458 7.35779 30.439 7.04713 30.439Z" fill="#FF5900"/>
<path d="M12.3154 30.439H9.34311C9.03245 30.439 8.78048 30.0458 8.78048 29.561C8.78048 29.0761 9.03245 28.6829 9.34311 28.6829H12.3154C12.6261 28.6829 12.878 29.0761 12.878 29.561C12.878 30.0458 12.6261 30.439 12.3154 30.439Z" fill="#FF5900"/>
<path d="M18.1691 30.439H15.1968C14.8861 30.439 14.6342 30.0458 14.6342 29.561C14.6342 29.0761 14.8861 28.6829 15.1968 28.6829H18.1691C18.4798 28.6829 18.7317 29.0761 18.7317 29.561C18.7317 30.0458 18.4798 30.439 18.1691 30.439Z" fill="#FF5900"/>
<path d="M23.4373 30.439H20.4651C20.1544 30.439 19.9024 30.0458 19.9024 29.561C19.9024 29.0761 20.1544 28.6829 20.4651 28.6829H23.4373C23.748 28.6829 24 29.0761 24 29.561C23.9996 30.0458 23.748 30.439 23.4373 30.439Z" fill="#FF5900"/>
<path fill-rule="evenodd" clip-rule="evenodd" d="M10.0996 18.8283H11.4781V18.614H10.0996C9.85671 18.614 9.65827 18.8124 9.65827 19.0568V20.2927H8.808V19.5193C8.808 19.2726 8.60732 19.0727 8.36136 19.0727H7.58577V16.835H7.37153V19.0727H6.6155C6.3696 19.0727 6.16885 19.2734 6.16885 19.5193V20.2927H5.29823V19.0568C5.29823 18.8124 5.10056 18.614 4.85686 18.614H3.47845V18.8283H4.85686C4.98211 18.8283 5.08396 18.9309 5.08396 19.0576V21.7443C5.08396 21.871 4.98211 21.9736 4.85686 21.9736H3.47845V22.1879H4.85686C5.0998 22.1879 5.29823 21.9895 5.29823 21.745V20.5085H6.16885V21.2818C6.16885 21.5285 6.3696 21.7292 6.6155 21.7292H7.37153V23.9669H7.58577V21.7292H8.36136C8.60732 21.7292 8.808 21.5285 8.808 21.2818V20.5085H9.65827V21.745C9.65827 21.9895 9.85598 22.1879 10.0996 22.1879H11.4781V21.9736H10.0996C9.9744 21.9736 9.87251 21.871 9.87251 21.7443V19.0576C9.87251 18.9316 9.9744 18.8283 10.0996 18.8283ZM8.59377 21.281C8.59377 21.4093 8.48962 21.5141 8.36057 21.5141H6.61477C6.48651 21.5141 6.38163 21.4093 6.38163 21.281V19.5209C6.38163 19.3926 6.48578 19.2877 6.61477 19.2877H8.36057C8.48883 19.2877 8.59377 19.3926 8.59377 19.5209V21.281Z" fill="white" stroke="white" stroke-width="0.1"/>
<path d="M32.561 26.1829C32.9686 26.1829 33.3552 26.27 33.7039 26.4266C33.0927 27.0996 32.7195 27.9941 32.7195 28.9756C32.7195 29.9571 33.0927 30.8516 33.7039 31.5246C33.3552 31.6812 32.9686 31.7683 32.561 31.7683C31.0186 31.7683 29.7683 30.518 29.7683 28.9756C29.7683 27.4333 31.0186 26.1829 32.561 26.1829Z" stroke="#BF9BFF"/>
<path d="M36.3536 28.9756C36.3536 27.9941 35.9805 27.0996 35.3693 26.4266C35.718 26.27 36.1046 26.1829 36.5122 26.1829C38.0545 26.1829 39.3049 27.4333 39.3049 28.9756C39.3049 30.518 38.0545 31.7683 36.5122 31.7683C36.1046 31.7683 35.718 31.6812 35.3693 31.5246C35.9805 30.8516 36.3536 29.9571 36.3536 28.9756Z" stroke="#BF9BFF"/>
<path fill-rule="evenodd" clip-rule="evenodd" d="M34.5366 31.6099C35.3364 31.0093 35.8536 30.0528 35.8536 28.9756C35.8536 27.8983 35.3364 26.9419 34.5366 26.3412C33.7368 26.9419 33.2195 27.8983 33.2195 28.9756C33.2195 30.0528 33.7368 31.0093 34.5366 31.6099Z" fill="#FF5900"/>
<path d="M36.6104 13.4093L37.1455 12.3687C37.2715 12.1236 37.1752 11.8226 36.9299 11.6964C36.9299 11.6965 36.9298 11.6964 36.9299 11.6964L35.0028 10.7055C34.9537 10.6802 34.9014 10.6635 34.8474 10.6556L34.8054 10.9453L34.8497 10.656C34.6435 10.6243 34.4313 10.7251 34.3305 10.9211L33.7953 11.9617C33.6691 12.2071 33.7661 12.5079 34.011 12.6338L35.9382 13.6249C36.1334 13.7253 36.3641 13.6846 36.5135 13.5397C36.5529 13.5019 36.5855 13.4577 36.6104 13.4093Z" fill="url(#paint0_linear_875_115)"/>
<path d="M36.9299 11.6964C37.1752 11.8226 37.2715 12.1236 37.1455 12.3687L36.6104 13.4093C36.5855 13.4577 36.5529 13.5019 36.5135 13.5397C36.3641 13.6846 36.1334 13.7253 35.9382 13.6249L34.011 12.6338C33.7661 12.5079 33.6691 12.2071 33.7953 11.9617L34.3305 10.9211C34.4313 10.7251 34.6435 10.6243 34.8497 10.656L34.8054 10.9453L34.8474 10.6556C34.9014 10.6635 34.9537 10.6802 35.0028 10.7055L36.9299 11.6964ZM36.9299 11.6964C36.9298 11.6964 36.9299 11.6965 36.9299 11.6964Z" stroke="#FF5900"/>
<path d="M34.399 11.9692L34.7648 12.1574C34.9267 12.2406 35.1254 12.1769 35.2087 12.0149L35.3727 11.696C35.4559 11.5342 35.3922 11.3355 35.2303 11.2522L34.8645 11.0641C34.7026 10.9808 34.5039 11.0445 34.4206 11.2064L34.2566 11.5253C34.1734 11.6873 34.2371 11.886 34.399 11.9692Z" fill="url(#paint1_linear_875_115)" stroke="#FF5900"/>
<path fill-rule="evenodd" clip-rule="evenodd" d="M34.8282 12.2428C34.8567 12.1875 34.8749 12.118 34.8677 12.043C34.861 11.9718 34.8233 11.851 34.6959 11.7855L34.5356 11.7031C34.4082 11.6375 34.288 11.6771 34.2262 11.713C34.161 11.7509 34.1152 11.8059 34.0867 11.8612C34.0582 11.9165 34.0402 11.9858 34.0473 12.0608C34.0541 12.132 34.0918 12.2528 34.2191 12.3183L34.3795 12.4008C34.507 12.4663 34.6271 12.4267 34.6889 12.3907C34.7541 12.353 34.7998 12.298 34.8282 12.2428ZM34.7495 11.8535C34.7957 11.8957 34.8247 11.942 34.8426 11.9837C34.8578 12.0194 34.8648 12.0518 34.8674 12.0753C34.8758 12.1511 34.8543 12.2122 34.829 12.2545C34.8038 12.2966 34.7585 12.3474 34.6821 12.3856C34.6582 12.3974 34.6236 12.4113 34.581 12.4214C34.5311 12.4333 34.4704 12.4399 34.4037 12.4321C34.3575 12.3899 34.3284 12.3435 34.3106 12.3019C34.2954 12.2661 34.2884 12.2337 34.2857 12.2102C34.2775 12.1345 34.2989 12.0734 34.3241 12.0311L34.3904 12.0604C34.3676 12.0983 34.3722 12.1392 34.4004 12.1517L34.6707 12.2713C34.6989 12.2838 34.7402 12.2632 34.7629 12.2252C34.7855 12.1873 34.7811 12.1464 34.7528 12.1339L34.4825 12.0143C34.4544 12.0018 34.4131 12.0227 34.3904 12.0604L34.3241 12.0311C34.3493 11.9891 34.3947 11.9382 34.471 11.9001C34.4949 11.8882 34.5296 11.8743 34.5723 11.8642C34.622 11.8523 34.6827 11.8457 34.7495 11.8535Z" fill="url(#paint2_linear_875_115)"/>
<path d="M34.3241 12.0311C34.2989 12.0734 34.2775 12.1345 34.2857 12.2102C34.2884 12.2337 34.2954 12.2661 34.3106 12.3019C34.3284 12.3435 34.3575 12.3899 34.4037 12.4321C34.4704 12.4399 34.5311 12.4333 34.581 12.4214C34.6236 12.4113 34.6582 12.3974 34.6821 12.3856C34.7585 12.3474 34.8038 12.2966 34.829 12.2545C34.8543 12.2122 34.8758 12.1511 34.8674 12.0753C34.8648 12.0518 34.8578 12.0194 34.8426 11.9837C34.8247 11.942 34.7957 11.8957 34.7495 11.8535C34.6827 11.8457 34.622 11.8523 34.5723 11.8642C34.5296 11.8743 34.4949 11.8882 34.471 11.9001C34.3947 11.9382 34.3493 11.9891 34.3241 12.0311ZM34.3241 12.0311L34.3904 12.0604M34.3904 12.0604C34.3676 12.0983 34.3722 12.1392 34.4004 12.1517L34.6707 12.2713C34.6989 12.2838 34.7402 12.2632 34.7629 12.2252C34.7855 12.1873 34.7811 12.1464 34.7528 12.1339L34.4825 12.0143C34.4544 12.0018 34.4131 12.0227 34.3904 12.0604ZM34.8282 12.2428C34.8567 12.1875 34.8749 12.118 34.8677 12.043C34.861 11.9718 34.8233 11.851 34.6959 11.7855L34.5356 11.7031C34.4082 11.6375 34.288 11.6771 34.2262 11.713C34.161 11.7509 34.1152 11.8059 34.0867 11.8612C34.0582 11.9165 34.0402 11.9858 34.0473 12.0608C34.0541 12.132 34.0918 12.2528 34.2191 12.3183L34.3795 12.4008C34.507 12.4663 34.6271 12.4267 34.6889 12.3907C34.7541 12.353 34.7998 12.298 34.8282 12.2428Z" stroke="#FF5900"/>
<path fill-rule="evenodd" clip-rule="evenodd" d="M34.8564 12.0102C34.9062 11.9984 34.9669 11.9917 35.0337 11.9995C35.0799 12.0417 35.109 12.0881 35.1267 12.1298C35.142 12.1655 35.149 12.1978 35.1516 12.2214C35.1599 12.2972 35.1386 12.3584 35.1133 12.4005C35.088 12.4428 35.0427 12.4934 34.9661 12.5316C34.9424 12.5435 34.9077 12.5573 34.8651 12.5676C34.8153 12.5793 34.7546 12.586 34.6878 12.5781C34.6415 12.536 34.6126 12.4896 34.5948 12.4479C34.5796 12.4121 34.5725 12.3798 34.5699 12.3563C34.5615 12.2806 34.583 12.2194 34.6083 12.1772C34.6335 12.1349 34.6788 12.0843 34.7553 12.0461C34.7791 12.0343 34.8137 12.0204 34.8564 12.0102ZM34.5033 12.4644L34.6636 12.5468C34.791 12.6123 34.9112 12.5727 34.973 12.5369C35.0382 12.499 35.0841 12.444 35.1125 12.3886C35.1409 12.3334 35.159 12.264 35.1519 12.189C35.1451 12.1178 35.1074 11.9971 34.98 11.9315L34.8197 11.8491C34.6923 11.7835 34.5721 11.8232 34.5103 11.859C34.4452 11.897 34.3992 11.9519 34.3709 12.0073C34.3424 12.0626 34.3243 12.1319 34.3314 12.2069C34.3382 12.278 34.3758 12.3989 34.5033 12.4644ZM34.6583 12.4192C34.6172 12.3915 34.6106 12.3009 34.6436 12.217C34.6767 12.1329 34.7368 12.0873 34.7781 12.1149L35.1722 12.3799C35.2133 12.4075 35.2199 12.4982 35.1869 12.5822C35.1537 12.6661 35.0937 12.7118 35.0525 12.6842L34.6583 12.4192Z" fill="url(#paint3_linear_875_115)" stroke="#FF5900"/>
<path fill-rule="evenodd" clip-rule="evenodd" d="M35.172 12.1725C35.2219 12.1607 35.2824 12.1541 35.3492 12.1618C35.3955 12.2041 35.4244 12.2504 35.4423 12.2921C35.4575 12.3278 35.4646 12.3602 35.4671 12.3838C35.4755 12.4595 35.454 12.5207 35.4288 12.5629C35.4035 12.6052 35.3582 12.6557 35.2817 12.6939C35.2579 12.7058 35.2233 12.7198 35.1807 12.7298C35.1308 12.7416 35.0701 12.7483 35.0033 12.7405C34.9571 12.6983 34.9281 12.652 34.9103 12.6102C34.8951 12.5745 34.888 12.5422 34.8855 12.5186C34.8771 12.4429 34.8985 12.3818 34.9238 12.3395C34.949 12.2972 34.9944 12.2466 35.0708 12.2085C35.0946 12.1966 35.1294 12.1826 35.172 12.1725ZM34.8188 12.6267L34.9791 12.7092C35.1066 12.7747 35.2268 12.735 35.2886 12.6992C35.3537 12.6614 35.3996 12.6063 35.428 12.551C35.4565 12.4957 35.4746 12.4264 35.4674 12.3513C35.4606 12.2802 35.423 12.1594 35.2956 12.0939L35.1353 12.0114C35.0079 11.9459 34.8877 11.9855 34.8259 12.0215C34.7607 12.0592 34.7149 12.1143 34.6864 12.1696C34.658 12.2249 34.6398 12.2942 34.647 12.3692C34.6538 12.4405 34.6914 12.5612 34.8188 12.6267ZM34.9739 12.5815C34.9328 12.5539 34.9261 12.4633 34.9592 12.3793C34.9923 12.2952 35.0525 12.2495 35.0936 12.2773L35.4876 12.5421C35.5289 12.5697 35.5356 12.6603 35.5024 12.7444C35.4693 12.8285 35.4091 12.8742 35.3679 12.8465L34.9739 12.5815Z" fill="url(#paint4_linear_875_115)" stroke="#FF5900"/>
<path fill-rule="evenodd" clip-rule="evenodd" d="M35.712 12.6973C35.7404 12.6419 35.7587 12.5724 35.7515 12.4974C35.7448 12.4262 35.7071 12.3054 35.5797 12.2399L35.4194 12.1574C35.292 12.0919 35.1718 12.1315 35.1099 12.1675C35.0448 12.2052 34.999 12.2604 34.9706 12.3157C34.9421 12.3709 34.924 12.4402 34.9311 12.5152C34.9379 12.5865 34.9755 12.7072 35.103 12.7727L35.2633 12.8552C35.3907 12.9208 35.511 12.8811 35.5727 12.8452C35.6378 12.8074 35.6836 12.7523 35.712 12.6973ZM35.6334 12.3079C35.6796 12.3502 35.7086 12.3964 35.7263 12.4382C35.7417 12.4739 35.7486 12.5063 35.7512 12.5298C35.7596 12.6055 35.7382 12.6667 35.7129 12.7089C35.6876 12.7512 35.6423 12.8018 35.5659 12.8399C35.5421 12.8518 35.5074 12.8657 35.4647 12.8759C35.415 12.8876 35.3543 12.8943 35.2875 12.8865C35.2412 12.8443 35.2123 12.798 35.1945 12.7563C35.1792 12.7206 35.1721 12.6882 35.1695 12.6647C35.1612 12.5889 35.1827 12.5278 35.2079 12.4855L35.2741 12.5148C35.2515 12.5527 35.2559 12.5936 35.2843 12.6061L35.5545 12.7257C35.5828 12.7382 35.624 12.7176 35.6467 12.6796C35.6694 12.6417 35.6649 12.6009 35.6367 12.5883L35.3663 12.4688C35.3381 12.4562 35.2967 12.477 35.2741 12.5148L35.2079 12.4855C35.2331 12.4434 35.2785 12.3927 35.3549 12.3545C35.3787 12.3426 35.4134 12.3287 35.456 12.3186C35.5059 12.3067 35.5666 12.3002 35.6334 12.3079Z" fill="url(#paint5_linear_875_115)"/>
<path d="M35.2079 12.4855C35.1827 12.5278 35.1612 12.5889 35.1695 12.6647C35.1721 12.6882 35.1792 12.7206 35.1945 12.7563C35.2123 12.798 35.2412 12.8443 35.2875 12.8865C35.3543 12.8943 35.415 12.8876 35.4647 12.8759C35.5074 12.8657 35.5421 12.8518 35.5659 12.8399C35.6423 12.8018 35.6876 12.7512 35.7129 12.7089C35.7382 12.6667 35.7596 12.6055 35.7512 12.5298C35.7486 12.5063 35.7417 12.4739 35.7263 12.4382C35.7086 12.3964 35.6796 12.3502 35.6334 12.3079C35.5666 12.3002 35.5059 12.3067 35.456 12.3186C35.4134 12.3287 35.3787 12.3426 35.3549 12.3545C35.2785 12.3927 35.2331 12.4434 35.2079 12.4855ZM35.2079 12.4855L35.2741 12.5148M35.2741 12.5148C35.2515 12.5527 35.2559 12.5936 35.2843 12.6061L35.5545 12.7257C35.5828 12.7382 35.624 12.7176 35.6467 12.6796C35.6694 12.6417 35.6649 12.6009 35.6367 12.5883L35.3663 12.4688C35.3381 12.4562 35.2967 12.477 35.2741 12.5148ZM35.712 12.6973C35.7404 12.6419 35.7587 12.5724 35.7515 12.4974C35.7448 12.4262 35.7071 12.3054 35.5797 12.2399L35.4194 12.1574C35.292 12.0919 35.1718 12.1315 35.1099 12.1675C35.0448 12.2052 34.999 12.2604 34.9706 12.3157C34.9421 12.3709 34.924 12.4402 34.9311 12.5152C34.9379 12.5865 34.9755 12.7072 35.103 12.7727L35.2633 12.8552C35.3907 12.9208 35.511 12.8811 35.5727 12.8452C35.6378 12.8074 35.6836 12.7523 35.712 12.6973Z" stroke="#FF5900"/>
<path d="M35.2641 11.3909L35.3135 11.2949L35.0532 11.1611L35.0416 11.1551L34.7813 11.0213L34.732 11.1172L34.522 11.0093L34.4288 11.1905L34.3881 11.2695L34.3822 11.2811L34.2949 11.4508L34.289 11.4623L34.2484 11.5414L34.1552 11.7226L34.3651 11.8306L34.3157 11.9266L34.5761 12.0605L34.5876 12.0663L34.8479 12.2002L34.8973 12.1042L35.1073 12.2122L35.2005 12.031L35.2411 11.952L35.247 11.9404L35.3343 11.7708L35.3402 11.7591L35.3809 11.6802L35.4741 11.4989L35.2641 11.3909Z" fill="url(#paint6_linear_875_115)" stroke="#FF5900"/>
<path fill-rule="evenodd" clip-rule="evenodd" d="M36.3158 12.7341C36.2878 12.6792 36.2412 12.632 36.1795 12.6018C36.0282 12.5279 35.8424 12.5845 35.7647 12.7282C35.6868 12.872 35.7464 13.0483 35.8977 13.1223C35.9595 13.1524 36.0269 13.1609 36.0904 13.1505C36.0496 13.0706 36.0475 12.9739 36.0936 12.8889C36.1396 12.8037 36.2237 12.7491 36.3158 12.7341Z" fill="url(#paint7_linear_875_115)"/>
<path fill-rule="evenodd" clip-rule="evenodd" d="M36.1099 12.6818L36.2086 13.2588L36.9765 13.1274L36.6366 12.4264L36.1099 12.6818ZM35.9638 12.966L36.0625 13.543L36.8304 13.4116L36.4904 12.7106L35.9638 12.966ZM35.7539 13.1121C35.6772 13.0726 35.6184 13.0098 35.5832 12.9373L36.6366 12.4264C36.5649 12.2786 36.4459 12.1515 36.2893 12.0709L35.7539 13.1121ZM36.2731 12.9455C36.1758 13.1349 35.9432 13.2095 35.7539 13.1121L36.2893 12.0709C35.9036 11.8726 35.4303 12.0245 35.2321 12.4101L36.2731 12.9455ZM36.1066 12.4262C36.296 12.5236 36.3706 12.7561 36.2731 12.9455L35.2321 12.4101C35.0337 12.7957 35.1856 13.269 35.5712 13.4673L36.1066 12.4262ZM35.8925 12.3891C35.9794 12.3754 36.0728 12.3868 36.1565 12.4262L35.5712 13.4673C35.7424 13.5478 35.9313 13.5707 36.1083 13.543L35.8925 12.3891ZM36.4904 12.7106C36.5408 12.8145 36.5442 12.9426 36.4864 13.0551L35.4453 12.5197C35.3276 12.7484 35.3338 13.0084 35.4371 13.2215L36.4904 12.7106ZM36.4864 13.0551C36.4285 13.1676 36.3224 13.2393 36.2086 13.2588L36.0111 12.1049C35.7777 12.1448 35.5628 12.291 35.4453 12.5197L36.4864 13.0551Z" fill="#FF5900"/>
<path fill-rule="evenodd" clip-rule="evenodd" d="M36.1888 12.6832C36.2297 12.7633 36.2318 12.8599 36.1857 12.945C36.1396 13.0301 36.0557 13.0846 35.9635 13.0996C35.9916 13.1547 36.0381 13.2019 36.0998 13.232C36.2511 13.3059 36.4369 13.2493 36.5148 13.1056C36.5925 12.9619 36.533 12.7854 36.3816 12.7116C36.3199 12.6814 36.2524 12.673 36.1888 12.6832Z" fill="url(#paint8_linear_875_115)"/>
<path fill-rule="evenodd" clip-rule="evenodd" d="M36.1095 12.682L35.5828 12.9373L35.243 12.2366L36.0107 12.1051L36.1095 12.682ZM35.9635 12.9661L35.4368 13.2216L35.097 12.5208L35.8646 12.3892L35.9635 12.9661ZM35.587 12.5929C35.5291 12.7054 35.5325 12.8334 35.5828 12.9373L36.6363 12.4266C36.7396 12.6396 36.7457 12.8996 36.6281 13.1283L35.587 12.5929ZM35.8646 12.3892C35.7508 12.4087 35.6448 12.4804 35.587 12.5929L36.6281 13.1283C36.5105 13.3569 36.2957 13.5031 36.0623 13.5431L35.8646 12.3892ZM36.4902 12.7108C36.455 12.6382 36.3961 12.5753 36.3195 12.5359L35.7842 13.577C35.6275 13.4965 35.5084 13.3693 35.4368 13.2216L36.4902 12.7108ZM36.3195 12.5359C36.1301 12.4385 35.8976 12.5131 35.8002 12.7025L36.8414 13.238C36.6431 13.6236 36.1698 13.7753 35.7842 13.577L36.3195 12.5359ZM35.8002 12.7025C35.7028 12.8919 35.7774 13.1244 35.9668 13.2218L36.5022 12.1807C36.8878 12.379 37.0396 12.8523 36.8414 13.238L35.8002 12.7025ZM35.9668 13.2218C36.0506 13.2612 36.144 13.2726 36.231 13.2589L36.0148 12.105C36.1919 12.0773 36.3808 12.1001 36.5522 12.1807L35.9668 13.2218Z" fill="#FF5900"/>
<path fill-rule="evenodd" clip-rule="evenodd" d="M36.0066 13.2671C36.1946 13.2462 36.3655 13.1695 36.4593 13.0497C36.5532 12.93 36.5488 12.7941 36.4658 12.6818C36.2779 12.7027 36.1069 12.7794 36.0131 12.8992C35.9193 13.0189 35.9236 13.1547 36.0066 13.2671Z" fill="url(#paint9_linear_875_115)"/>
<path fill-rule="evenodd" clip-rule="evenodd" d="M35.9637 12.966L35.4371 13.2215L35.6288 13.6166L36.0618 13.543L35.9637 12.966ZM36.11 12.6817L36.6367 12.4262L36.4449 12.031L36.012 12.1046L36.11 12.6817ZM35.5874 12.5927C35.6454 12.48 35.7516 12.4082 35.8656 12.3889L36.0618 13.543C36.2955 13.5033 36.5109 13.3571 36.6286 13.1281L35.5874 12.5927ZM35.5834 12.9372C35.5329 12.8333 35.5295 12.7051 35.5874 12.5927L36.6286 13.1281C36.7462 12.8993 36.74 12.6393 36.6367 12.4262L35.5834 12.9372ZM36.4863 13.055C36.4284 13.1676 36.3221 13.2394 36.2082 13.2588L36.012 12.1046C35.7782 12.1444 35.5629 12.2906 35.4452 12.5196L36.4863 13.055ZM36.4903 12.7105C36.5408 12.8144 36.5442 12.9424 36.4863 13.055L35.4452 12.5196C35.3275 12.7484 35.3336 13.0083 35.4371 13.2215L36.4903 12.7105Z" fill="#FF5900"/>
<path d="M37.2112 11.1892C37.2477 11.2357 37.2738 11.287 37.2899 11.3403C37.3378 11.3686 37.3814 11.4061 37.4178 11.4526L37.5728 11.6503L37.7533 11.8806L37.523 12.0612L37.5059 12.0746C37.515 12.1956 37.4655 12.3189 37.3628 12.3995L37.2311 12.5027L37.0008 12.6833L36.8202 12.453L36.0972 11.5309L35.9166 11.3005L36.1469 11.12L36.2787 11.0167C36.3814 10.9362 36.513 10.9175 36.6283 10.9552L36.6454 10.9419L36.8758 10.7612L37.0564 10.9916L37.2112 11.1892Z" fill="url(#paint10_linear_875_115)" stroke="#FF5900"/>
<path d="M35.9307 12.4624L35.7501 12.232L35.9804 12.0515L36.5155 11.6319L36.7459 11.4513L36.9265 11.6816L37.2622 12.1098L37.4427 12.3402L37.2124 12.5208L36.8302 12.8204C36.5946 13.0051 36.2862 12.9158 36.132 12.7193L35.9307 12.4624Z" fill="url(#paint11_linear_875_115)" stroke="#FF5900"/>
<path d="M36.3155 12.4784L36.0851 12.6589L35.9045 12.4287L35.6903 12.1554C35.5426 11.967 35.5024 11.6368 35.7502 11.4425L36.1324 11.1429L36.3627 10.9623L36.5433 11.1926L36.9003 11.6479L37.0809 11.8782L36.8505 12.0588L36.3155 12.4784Z" fill="url(#paint12_linear_875_115)" stroke="#FF5900"/>
<path fill-rule="evenodd" clip-rule="evenodd" d="M25.1836 13.5107L24.9233 13.3768L24.7895 13.6371L23.7396 15.6784L23.6058 15.9387L23.8661 16.0726L36.4391 22.5385L36.6994 22.6723L36.8333 22.4121L37.8831 20.3707L38.0169 20.1104L37.7566 19.9766L25.1836 13.5107ZM44.7769 7.80249L44.6876 7.52391L44.4089 7.61322L43.0979 8.03344L42.8192 8.12281L42.9085 8.40158L43.9331 11.5962L41.0362 17.2293C40.9962 17.307 40.9646 17.3707 40.9373 17.4258C40.9047 17.4915 40.8783 17.5448 40.851 17.5949C40.8357 17.6232 40.8235 17.6434 40.8143 17.6577C40.7685 17.6424 40.6972 17.6108 40.5813 17.5512L39.6817 17.0885C39.7899 16.7748 39.7987 16.4698 39.691 16.1864C39.5553 15.8295 39.2565 15.5651 38.8844 15.3737L38.6241 15.2399L38.4903 15.5001L36.8073 18.7727L36.6735 19.033L36.9337 19.1669C37.2987 19.3545 37.685 19.4441 38.0526 19.3524C38.3452 19.2793 38.5902 19.1005 38.7831 18.8334L39.6837 19.2965C40.3873 19.6584 41.0007 19.7459 41.5436 19.5062C42.0687 19.2744 42.4525 18.7665 42.7814 18.1269L45.9943 11.8792L46.0498 11.7715L46.0128 11.656L44.7769 7.80249ZM36.2161 19.1464L36.4764 19.2802L36.6102 19.02L42.6093 7.35469C43.1231 6.35568 42.7265 5.11944 41.7272 4.60556L35.3765 1.33965C34.3773 0.825762 33.141 1.22221 32.6272 2.22126L26.6281 13.8865L26.4943 14.1468L26.7546 14.2807L36.2161 19.1464ZM34.4506 3.6241L40.3779 6.67236L38.746 9.84553L32.8188 6.79735L34.4506 3.6241Z" fill="url(#paint13_linear_875_115)" stroke="#FF5900"/>
</g>
<defs>
<linearGradient id="paint0_linear_875_115" x1="35.8325" y1="11.4613" x2="34.7896" y2="14.1768" gradientUnits="userSpaceOnUse">
<stop stop-color="#CDE1FF"/>
<stop offset="0.473958" stop-color="#BF9BFF"/>
<stop offset="1" stop-color="#6E1DFF"/>
</linearGradient>
<linearGradient id="paint1_linear_875_115" x1="34.9135" y1="11.4184" x2="34.5702" y2="12.1392" gradientUnits="userSpaceOnUse">
<stop stop-color="#CDE1FF"/>
<stop offset="0.473958" stop-color="#BF9BFF"/>
<stop offset="1" stop-color="#6E1DFF"/>
</linearGradient>
<linearGradient id="paint2_linear_875_115" x1="34.4819" y1="12.0045" x2="34.4029" y2="12.1844" gradientUnits="userSpaceOnUse">
<stop stop-color="#CDE1FF"/>
<stop offset="0.473958" stop-color="#BF9BFF"/>
<stop offset="1" stop-color="#6E1DFF"/>
</linearGradient>
<linearGradient id="paint3_linear_875_115" x1="34.766" y1="12.1506" x2="34.6773" y2="12.3262" gradientUnits="userSpaceOnUse">
<stop stop-color="#CDE1FF"/>
<stop offset="0.473958" stop-color="#BF9BFF"/>
<stop offset="1" stop-color="#6E1DFF"/>
</linearGradient>
<linearGradient id="paint4_linear_875_115" x1="35.0816" y1="12.313" x2="34.9929" y2="12.4885" gradientUnits="userSpaceOnUse">
<stop stop-color="#CDE1FF"/>
<stop offset="0.473958" stop-color="#BF9BFF"/>
<stop offset="1" stop-color="#6E1DFF"/>
</linearGradient>
<linearGradient id="paint5_linear_875_115" x1="35.3656" y1="12.459" x2="35.2867" y2="12.6388" gradientUnits="userSpaceOnUse">
<stop stop-color="#CDE1FF"/>
<stop offset="0.473958" stop-color="#BF9BFF"/>
<stop offset="1" stop-color="#6E1DFF"/>
</linearGradient>
<linearGradient id="paint6_linear_875_115" x1="34.9136" y1="11.4184" x2="34.6101" y2="12.1551" gradientUnits="userSpaceOnUse">
<stop stop-color="#CDE1FF"/>
<stop offset="0.473958" stop-color="#BF9BFF"/>
<stop offset="1" stop-color="#6E1DFF"/>
</linearGradient>
<linearGradient id="paint7_linear_875_115" x1="35.986" y1="12.5732" x2="35.6629" y2="13.2361" gradientUnits="userSpaceOnUse">
<stop stop-color="#CDE1FF"/>
<stop offset="0.473958" stop-color="#BF9BFF"/>
<stop offset="1" stop-color="#6E1DFF"/>
</linearGradient>
<linearGradient id="paint8_linear_875_115" x1="36.27" y1="12.7194" x2="35.9188" y2="13.3679" gradientUnits="userSpaceOnUse">
<stop stop-color="#CDE1FF"/>
<stop offset="0.473958" stop-color="#BF9BFF"/>
<stop offset="1" stop-color="#6E1DFF"/>
</linearGradient>
<linearGradient id="paint9_linear_875_115" x1="36.1099" y1="12.6817" x2="35.8583" y2="13.2153" gradientUnits="userSpaceOnUse">
<stop stop-color="#CDE1FF"/>
<stop offset="0.473958" stop-color="#BF9BFF"/>
<stop offset="1" stop-color="#6E1DFF"/>
</linearGradient>
<linearGradient id="paint10_linear_875_115" x1="37.0842" y1="11.5015" x2="36.3271" y2="12.0353" gradientUnits="userSpaceOnUse">
<stop stop-color="#CDE1FF"/>
<stop offset="0.473958" stop-color="#BF9BFF"/>
<stop offset="1" stop-color="#6E1DFF"/>
</linearGradient>
<linearGradient id="paint11_linear_875_115" x1="36.8639" y1="12.0763" x2="35.9823" y2="12.9527" gradientUnits="userSpaceOnUse">
<stop stop-color="#CDE1FF"/>
<stop offset="0.473958" stop-color="#BF9BFF"/>
<stop offset="1" stop-color="#6E1DFF"/>
</linearGradient>
<linearGradient id="paint12_linear_875_115" x1="36.4915" y1="11.6008" x2="35.419" y2="12.2388" gradientUnits="userSpaceOnUse">
<stop stop-color="#CDE1FF"/>
<stop offset="0.473958" stop-color="#BF9BFF"/>
<stop offset="1" stop-color="#6E1DFF"/>
</linearGradient>
<linearGradient id="paint13_linear_875_115" x1="39.8988" y1="3.9944" x2="26.3297" y2="33.8663" gradientUnits="userSpaceOnUse">
<stop stop-color="#CDE1FF"/>
<stop offset="0.473958" stop-color="#BF9BFF"/>
<stop offset="1" stop-color="#6E1DFF"/>
</linearGradient>
</defs>
</svg>
