<svg width="24" height="21" viewBox="0 0 24 21" fill="none" xmlns="http://www.w3.org/2000/svg">
<g clip-path="url(#clip0_2215_350)">
<path d="M19.5625 5.37109H2C1.17157 5.37109 0.5 6.04267 0.5 6.87109V18.6836C0.5 19.512 1.17157 20.1836 2 20.1836H19.5625C20.3909 20.1836 21.0625 19.512 21.0625 18.6836V6.87109C21.0625 6.04267 20.3909 5.37109 19.5625 5.37109Z" stroke="white"/>
<path d="M6.23438 5.31027L13.458 1.17172C13.7012 1.03241 14.0113 1.12012 14.1455 1.36614L14.8594 2.67485" stroke="white"/>
<path d="M9.10938 5.31085L16.7873 1.9988C17.0443 1.88795 17.3422 2.00957 17.4481 2.26859L18.6927 5.31085" stroke="white"/>
<mask id="mask0_2215_350" style="mask-type:luminance" maskUnits="userSpaceOnUse" x="13" y="10" width="11" height="6">
<path d="M13.4219 12.1426C13.4219 11.038 14.3173 10.1426 15.4219 10.1426H22.5052C22.7814 10.1426 23.0052 10.3664 23.0052 10.6426V14.9134C23.0052 15.1896 22.7814 15.4134 22.5052 15.4134H15.4219C14.3173 15.4134 13.4219 14.518 13.4219 13.4134V12.1426Z" fill="white"/>
</mask>
<g mask="url(#mask0_2215_350)">
<path d="M13.4219 12.1426C13.4219 11.038 14.3173 10.1426 15.4219 10.1426H22.5052C22.7814 10.1426 23.0052 10.3664 23.0052 10.6426V14.9134C23.0052 15.1896 22.7814 15.4134 22.5052 15.4134H15.4219C14.3173 15.4134 13.4219 14.518 13.4219 13.4134V12.1426Z" stroke="white" stroke-width="2"/>
</g>
<path d="M17.374 12.733C17.374 13.1181 17.0236 13.481 16.526 13.481C16.0285 13.481 15.6781 13.1181 15.6781 12.733C15.6781 12.3478 16.0285 11.9849 16.526 11.9849C17.0236 11.9849 17.374 12.3478 17.374 12.733Z" stroke="white" stroke-width="0.7"/>
<path d="M16.7573 3.46484H15.4406C15.2749 3.46484 15.1406 3.59916 15.1406 3.76484V4.04332C15.1406 4.209 15.2749 4.34332 15.4406 4.34332H16.7573C16.923 4.34332 17.0573 4.209 17.0573 4.04332V3.76484C17.0573 3.59916 16.923 3.46484 16.7573 3.46484Z" fill="white"/>
<path d="M21.0781 8.82422H22.2156C22.3813 8.82422 22.5156 8.95853 22.5156 9.12422V10.5812" stroke="white"/>
<path d="M7.1582 14.3695L7.1753 14.2985L7.50782 14.2534L7.4803 14.3695H7.1582Z" fill="#4ABCEB" stroke="#4ABCEB"/>
<path d="M10.8427 14.3615L10.9642 13.8176L11.2763 13.7837L11.1297 14.3615H10.8427Z" fill="#4ABCEB" stroke="#4ABCEB"/>
<path d="M2.875 14.8238L4.33041 14.373L4.22412 14.8613H2.875V14.8238Z" fill="#4ABCEB"/>
<mask id="mask1_2215_350" style="mask-type:luminance" maskUnits="userSpaceOnUse" x="2" y="14" width="3" height="1">
<path d="M2.875 14.8238L4.33041 14.373L4.22412 14.8613H2.875V14.8238Z" fill="white"/>
</mask>
<g mask="url(#mask1_2215_350)">
<path d="M2.875 14.8237L2.57918 13.8684L1.875 14.0865V14.8237H2.875ZM4.33041 14.3729L5.30753 14.5857L5.67218 12.9106L4.03459 13.4177L4.33041 14.3729ZM4.22412 14.8612V15.8612H5.02984L5.20123 15.0739L4.22412 14.8612ZM2.875 14.8612H1.875V15.8612H2.875V14.8612ZM3.17082 15.7789L4.62623 15.3282L4.03459 13.4177L2.57918 13.8684L3.17082 15.7789ZM3.35329 14.1602L3.247 14.6485L5.20123 15.0739L5.30753 14.5857L3.35329 14.1602ZM4.22412 13.8612H2.875V15.8612H4.22412V13.8612ZM3.875 14.8612V14.8237H1.875V14.8612H3.875Z" fill="#4ABCEB"/>
</g>
<mask id="mask2_2215_350" style="mask-type:luminance" maskUnits="userSpaceOnUse" x="2" y="9" width="11" height="6">
<path d="M11.9347 13.2217C11.4651 13.2673 11.0051 13.3151 10.5547 13.3652L10.9861 11.5058C11.0321 11.3224 11.0551 11.1567 11.0551 11.0087C11.0551 10.4802 10.7066 10.216 10.0096 10.216H8.96322L8.16193 13.6659C7.67738 13.7353 7.21212 13.8082 6.7661 13.8845L7.61775 10.216H5.64052C5.40322 10.216 5.26159 10.3217 5.21563 10.5329L4.32485 14.3944C3.77603 14.5362 3.28964 14.6882 2.875 14.8497L3.9512 10.216C4.02761 9.88463 4.15775 9.64291 4.34162 9.49087C4.52549 9.3394 4.81279 9.26367 5.20352 9.26367H10.3656C11.0017 9.26367 11.5095 9.38012 11.889 9.61301C12.2685 9.84533 12.4583 10.2049 12.4583 10.6918C12.4583 10.8962 12.4428 11.0582 12.4117 11.1778L11.9347 13.2217Z" fill="white"/>
</mask>
<g mask="url(#mask2_2215_350)">
<path d="M43.433 18.6314H1.48438V7.91211H43.433V18.6314Z" fill="white"/>
</g>
</g>
<defs>
<clipPath id="clip0_2215_350">
<rect width="24" height="21" fill="white"/>
</clipPath>
</defs>
</svg>
