<svg width="24" height="24" viewBox="0 0 24 24" fill="none" xmlns="http://www.w3.org/2000/svg">
<path d="M23.9767 17.3076L21.3517 10.4488C21.3189 10.3632 21.2541 10.2938 21.1709 10.2554C21.0877 10.2169 20.9928 10.2125 20.9064 10.243L18.1408 11.2297C18.0963 11.2456 18.0556 11.2703 18.0209 11.3023C17.9862 11.3343 17.9582 11.3729 17.9387 11.4159C17.9192 11.4589 17.9086 11.5053 17.9074 11.5525C17.9062 11.5996 17.9144 11.6466 17.9317 11.6905L18.1722 12.2999L16.285 13.1961L13.1874 12.6144C12.8858 12.558 12.5757 12.5645 12.2766 12.6333C11.9776 12.7022 11.6959 12.8321 11.4493 13.0147L10.8957 13.4254L10.5292 13.1614C10.2525 12.9633 9.93431 12.8308 9.5988 12.774C9.26329 12.7171 8.91923 12.7374 8.59273 12.8333L7.40398 13.1872L5.84678 12.2563L6.07038 11.691C6.08764 11.6471 6.09591 11.6001 6.0947 11.5529C6.09349 11.5058 6.08282 11.4593 6.06332 11.4163C6.04383 11.3734 6.0159 11.3348 5.9812 11.3028C5.9465 11.2708 5.90573 11.2461 5.86131 11.2302L3.0938 10.243C3.00727 10.2122 2.91214 10.2165 2.82875 10.255C2.74535 10.2934 2.68031 10.363 2.64754 10.4488L0.023468 17.3076C-0.0090682 17.392 -0.00772824 17.4858 0.0272082 17.5693C0.0621446 17.6528 0.127978 17.7196 0.210969 17.7557L2.83598 18.8868C2.87923 18.9055 2.92578 18.9153 2.97288 18.9156C3.01999 18.9159 3.06668 18.9068 3.11018 18.8888C3.15369 18.8707 3.19312 18.8441 3.22614 18.8105C3.25916 18.7769 3.28509 18.737 3.30239 18.6932L3.56677 18.0243L5.74272 19.2505C5.59609 19.4634 5.52856 19.7209 5.55185 19.9783C5.57514 20.2358 5.68777 20.477 5.87022 20.6601C5.97285 20.7628 6.09475 20.8441 6.22893 20.8996C6.36311 20.955 6.50692 20.9834 6.6521 20.983H6.67975C6.70437 21.2581 6.83112 21.5139 7.03502 21.7001C7.23893 21.8863 7.50519 21.9894 7.78132 21.989H7.80992C7.83218 22.2474 7.94509 22.4897 8.12867 22.6729C8.2313 22.7756 8.3532 22.857 8.48738 22.9124C8.62156 22.9678 8.76537 22.9962 8.91055 22.9959H8.9382C8.9568 23.2054 9.03479 23.4052 9.16301 23.572C9.29123 23.7387 9.46437 23.8654 9.66208 23.9371C9.8598 24.0089 10.0739 24.0228 10.2792 23.9771C10.4845 23.9314 10.6725 23.8281 10.8212 23.6793L11.2388 23.2621L11.8042 23.684C12.0436 23.8625 12.3396 23.9485 12.6374 23.9261C12.9353 23.9037 13.215 23.7744 13.4251 23.5621L13.4649 23.5218C13.6424 23.3407 13.7602 23.1095 13.8025 22.8595C14.014 22.9192 14.2375 22.9215 14.4502 22.8663C14.6629 22.811 14.8571 22.7001 15.0128 22.5449L15.0418 22.5159C15.2391 22.319 15.3637 22.061 15.3953 21.7841C15.6084 21.8476 15.8348 21.8522 16.0503 21.7973C16.2658 21.7424 16.4624 21.6301 16.6192 21.4724L16.6389 21.4527C16.8312 21.2621 16.9545 21.0129 16.9895 20.7445C17.1793 20.7897 17.377 20.7894 17.5667 20.7435C17.7563 20.6977 17.9323 20.6076 18.0805 20.4806C18.2286 20.3536 18.3445 20.1934 18.4188 20.013C18.493 19.8326 18.5235 19.6372 18.5078 19.4427C18.5016 19.3673 18.4886 19.2926 18.4689 19.2196L20.5122 18.2193L20.6997 18.6918C20.7169 18.7357 20.7427 18.7757 20.7757 18.8093C20.8087 18.843 20.8482 18.8697 20.8917 18.8877C20.9353 18.9058 20.982 18.9149 21.0291 18.9145C21.0763 18.9141 21.1229 18.9042 21.1661 18.8854L23.7911 17.7543C23.8734 17.7178 23.9386 17.6511 23.9731 17.568C24.0077 17.4849 24.009 17.3916 23.9767 17.3076ZM2.78114 18.0979L0.80066 17.2438L3.18052 11.0211L3.76411 11.2288L2.63911 14.4266C2.60803 14.5146 2.61319 14.6114 2.65345 14.6956C2.69371 14.7798 2.76578 14.8446 2.8538 14.8757C2.94182 14.9068 3.03858 14.9016 3.12279 14.8613C3.20701 14.8211 3.27178 14.749 3.30286 14.661L4.42505 11.4664L5.28053 11.7716L2.78114 18.0979ZM6.93757 20.1627C6.86166 20.2356 6.76024 20.2759 6.65502 20.2749C6.5498 20.2739 6.44914 20.2318 6.37458 20.1576C6.30002 20.0833 6.25749 19.9828 6.25609 19.8776C6.2547 19.7724 6.29454 19.6708 6.3671 19.5946L7.1171 18.8446C7.1735 18.7884 7.24528 18.7502 7.32339 18.7347C7.40149 18.7193 7.48243 18.7273 7.55598 18.7578C7.62953 18.7882 7.69241 18.8398 7.73669 18.906C7.78096 18.9722 7.80465 19.05 7.80476 19.1296C7.80494 19.1825 7.79459 19.2349 7.77431 19.2837C7.75403 19.3326 7.72422 19.3769 7.68663 19.4141L6.93757 20.1627ZM8.12914 21.1077C8.10804 21.1284 8.08929 21.1504 8.07054 21.1724L8.06679 21.1682C8.02974 21.207 7.98532 21.238 7.93612 21.2594C7.88692 21.2808 7.83395 21.2921 7.78031 21.2927C7.72667 21.2934 7.67345 21.2833 7.62377 21.263C7.57408 21.2428 7.52894 21.2129 7.491 21.1749C7.45305 21.137 7.42306 21.0919 7.40279 21.0422C7.38253 20.9926 7.37239 20.9394 7.37297 20.8857C7.37355 20.8321 7.38485 20.7791 7.40619 20.7299C7.42753 20.6807 7.4585 20.6362 7.49726 20.5991L8.18539 19.9115C8.20601 19.8909 8.2257 19.8693 8.24445 19.8473L8.24773 19.8505C8.32376 19.7778 8.42524 19.7377 8.53045 19.7389C8.63567 19.74 8.73625 19.7823 8.81068 19.8567C8.88511 19.931 8.92748 20.0316 8.92871 20.1368C8.92994 20.242 8.88994 20.3435 8.81727 20.4196L8.12914 21.1077ZM9.19414 22.1727C9.11751 22.2415 9.01743 22.2784 8.91447 22.2757C8.81152 22.2729 8.71353 22.2309 8.64064 22.1581C8.56776 22.0853 8.52553 21.9874 8.52263 21.8845C8.51974 21.7815 8.5564 21.6814 8.62508 21.6046L9.37508 20.8546C9.41146 20.8134 9.4559 20.7801 9.50564 20.7567C9.55539 20.7333 9.6094 20.7204 9.66434 20.7187C9.71928 20.7169 9.77399 20.7265 9.8251 20.7467C9.87621 20.7669 9.92264 20.7974 9.96153 20.8363C10.0004 20.8751 10.0309 20.9215 10.0512 20.9726C10.0715 21.0237 10.0811 21.0784 10.0794 21.1334C10.0777 21.1883 10.0648 21.2423 10.0415 21.2921C10.0181 21.3419 9.98485 21.3863 9.94368 21.4227L9.19414 22.1727ZM11.0729 22.4287L10.3229 23.1787C10.2469 23.2514 10.1454 23.2915 10.0402 23.2904C9.93496 23.2892 9.83438 23.2469 9.75995 23.1726C9.68552 23.0982 9.64315 22.9976 9.64192 22.8924C9.64069 22.7872 9.68069 22.6857 9.75337 22.6096L10.4415 21.922C10.4621 21.9013 10.4818 21.8798 10.5006 21.8577L10.5038 21.861C10.5799 21.7883 10.6813 21.7482 10.7866 21.7493C10.8918 21.7505 10.9924 21.7928 11.0668 21.8671C11.1412 21.9415 11.1836 22.0421 11.1848 22.1473C11.186 22.2525 11.146 22.354 11.0734 22.4301L11.0729 22.4287ZM17.6523 19.9162C17.5589 20.0107 17.4333 20.0665 17.3005 20.0724C17.1678 20.0784 17.0376 20.0342 16.9361 19.9485L16.6618 19.7202C16.6427 19.6924 16.6196 19.6674 16.5934 19.6462L15.9611 19.138C15.8882 19.0833 15.7969 19.059 15.7064 19.0702C15.616 19.0815 15.5334 19.1275 15.4762 19.1984C15.419 19.2694 15.3915 19.3598 15.3997 19.4506C15.4079 19.5414 15.451 19.6255 15.52 19.6851L16.0656 20.1252C16.0807 20.1462 16.098 20.1655 16.1171 20.1829C16.1714 20.2309 16.2152 20.2895 16.2459 20.355C16.2766 20.4206 16.2936 20.4917 16.2958 20.5641C16.298 20.6364 16.2853 20.7085 16.2586 20.7758C16.232 20.8431 16.1918 20.9042 16.1406 20.9554L16.1209 20.9751C16.032 21.0644 15.9142 21.1191 15.7886 21.1294C15.663 21.1397 15.5379 21.1049 15.4356 21.0313L14.8923 20.6423L14.8867 20.638L14.6814 20.4913C14.6055 20.4371 14.5112 20.4151 14.4192 20.4304C14.3272 20.4456 14.2451 20.4968 14.1908 20.5727C14.1365 20.6485 14.1146 20.7428 14.1299 20.8348C14.1451 20.9268 14.1963 21.0089 14.2721 21.0632L14.4812 21.2127C14.5433 21.2579 14.5948 21.3161 14.6322 21.3831C14.6696 21.4501 14.6921 21.5245 14.698 21.601C14.7039 21.6776 14.6932 21.7545 14.6665 21.8265C14.6399 21.8985 14.5979 21.9638 14.5435 22.0181L14.5145 22.0471C14.4188 22.1427 14.2904 22.1982 14.1553 22.2025C14.0201 22.2067 13.8885 22.1594 13.787 22.0701L13.201 21.5545C13.1674 21.5196 13.1269 21.492 13.0821 21.4735C13.0372 21.455 12.9891 21.446 12.9406 21.447C12.8921 21.448 12.8444 21.459 12.8004 21.4794C12.7564 21.4997 12.717 21.529 12.6849 21.5653C12.6527 21.6015 12.6284 21.6441 12.6135 21.6902C12.5985 21.7363 12.5933 21.7851 12.5981 21.8333C12.6029 21.8816 12.6177 21.9283 12.6414 21.9706C12.6651 22.0129 12.6974 22.0498 12.736 22.079L12.9353 22.2552C12.9895 22.303 13.0335 22.3613 13.0645 22.4266C13.0954 22.4919 13.1127 22.5628 13.1153 22.6351C13.1179 22.7073 13.1057 22.7793 13.0795 22.8467C13.0533 22.914 13.0136 22.9753 12.9629 23.0268L12.9231 23.0671C12.8326 23.1585 12.7122 23.2142 12.5839 23.2239C12.4556 23.2335 12.3282 23.1965 12.2251 23.1196L11.7188 22.7418C11.8258 22.5747 11.8859 22.3819 11.8927 22.1836C11.8995 21.9853 11.8529 21.7888 11.7576 21.6147C11.6624 21.4407 11.522 21.2954 11.3513 21.1943C11.1806 21.0931 10.9859 21.0397 10.7874 21.0398H10.7598C10.7351 20.7648 10.6084 20.5091 10.4046 20.3228C10.2008 20.1366 9.93474 20.0333 9.65868 20.0334H9.63008C9.60457 19.7544 9.47377 19.4956 9.26427 19.3096C9.05477 19.1236 8.7823 19.0244 8.50226 19.0321C8.4802 18.7737 8.36707 18.5315 8.18304 18.3487C7.97555 18.1415 7.69435 18.0252 7.40116 18.0252C7.10798 18.0252 6.82678 18.1415 6.61929 18.3487L6.241 18.7265L3.82693 17.3671L5.58381 12.9214L7.17476 13.8725C7.21663 13.8976 7.26326 13.9137 7.31168 13.9197C7.3601 13.9258 7.40926 13.9217 7.45601 13.9077L8.79289 13.5097C9.01625 13.4439 9.25167 13.4299 9.48127 13.4686C9.71088 13.5073 9.92865 13.5979 10.1181 13.7333L10.3027 13.8664L8.42351 15.261C8.28408 15.3645 8.17066 15.4991 8.09226 15.654C8.01385 15.809 7.9726 15.9801 7.97178 16.1537C7.97097 16.3274 8.0106 16.4989 8.08754 16.6545C8.16448 16.8102 8.27662 16.9459 8.41508 17.0507C8.67622 17.2467 8.99051 17.3593 9.31674 17.3736C9.64297 17.3879 9.96591 17.3033 10.2432 17.1308L11.7188 16.2022C11.8904 16.5444 12.211 17.0094 12.7679 17.2958C13.4134 17.6277 14.1981 17.6362 15.1028 17.3212L17.5872 19.1104C17.6496 19.1555 17.7015 19.2135 17.7393 19.2806C17.7771 19.3477 17.7998 19.4222 17.806 19.4989C17.8122 19.5757 17.8017 19.6529 17.7752 19.7251C17.7486 19.7974 17.7067 19.8631 17.6523 19.9176V19.9162ZM18.1042 18.6149L15.3625 16.6415C15.3149 16.6073 15.2595 16.5855 15.2014 16.5782C15.1433 16.5708 15.0842 16.5781 15.0296 16.5993C14.2468 16.903 13.5967 16.9274 13.096 16.6738C12.4332 16.3368 12.2303 15.5999 12.2284 15.5957C12.2147 15.542 12.1885 15.4924 12.152 15.4508C12.1155 15.4092 12.0697 15.3768 12.0183 15.3562C11.9669 15.3356 11.9114 15.3275 11.8563 15.3325C11.8011 15.3374 11.7479 15.3553 11.701 15.3847L9.86915 16.5336C9.71263 16.6309 9.53033 16.6785 9.34625 16.6701C9.16217 16.6618 8.98493 16.5978 8.83789 16.4868C8.78647 16.4479 8.74482 16.3976 8.71625 16.3399C8.68767 16.2821 8.67296 16.2185 8.67328 16.1541C8.6736 16.0896 8.68894 16.0262 8.71808 15.9687C8.74723 15.9112 8.78937 15.8613 8.84117 15.823L11.8665 13.5777C12.0353 13.4528 12.228 13.364 12.4326 13.3169C12.6372 13.2698 12.8493 13.2654 13.0557 13.3039L16.2657 13.9068C16.3387 13.9208 16.4143 13.9111 16.4814 13.8791L18.4295 12.9538L20.2515 17.5644L18.1042 18.6149ZM21.2191 18.0965L18.7183 11.7683L19.5742 11.4632L20.6959 14.6577C20.727 14.7457 20.7918 14.8178 20.876 14.8581C20.9602 14.8983 21.057 14.9035 21.145 14.8724C21.233 14.8413 21.3051 14.7765 21.3453 14.6923C21.3856 14.6081 21.3908 14.5113 21.3597 14.4233L20.2347 11.2255L20.8183 11.0178L23.1981 17.2405L21.2191 18.0965Z" fill="white"/>
<path d="M12 11.0157C13.0894 11.0157 14.1543 10.6927 15.06 10.0874C15.9658 9.48224 16.6717 8.62203 17.0886 7.6156C17.5055 6.60918 17.6146 5.50174 17.402 4.43332C17.1895 3.3649 16.6649 2.3835 15.8947 1.61321C15.1244 0.842927 14.143 0.318355 13.0746 0.105834C12.0061 -0.106687 10.8987 0.00238646 9.89227 0.419262C8.88584 0.836138 8.02564 1.54209 7.42043 2.44785C6.81522 3.35361 6.49219 4.4185 6.49219 5.50785C6.4938 6.96812 7.07461 8.36812 8.10718 9.4007C9.13975 10.4333 10.5398 11.0141 12 11.0157ZM12 0.703131C12.9503 0.703131 13.8793 0.984923 14.6694 1.51287C15.4595 2.04082 16.0754 2.79121 16.439 3.66916C16.8027 4.54711 16.8978 5.51318 16.7124 6.4452C16.527 7.37722 16.0694 8.23334 15.3975 8.90529C14.7255 9.57724 13.8694 10.0348 12.9374 10.2202C12.0054 10.4056 11.0393 10.3105 10.1613 9.94682C9.2834 9.58316 8.53301 8.96733 8.00506 8.1772C7.47711 7.38707 7.19532 6.45813 7.19532 5.50785C7.19668 4.23397 7.70333 3.01267 8.60409 2.11191C9.50485 1.21114 10.7262 0.704496 12 0.703131Z" fill="white"/>
<path d="M12.0001 9.60942C12.8113 9.60942 13.6043 9.36887 14.2788 8.91818C14.9533 8.46749 15.479 7.82691 15.7894 7.07745C16.0999 6.32798 16.1811 5.50329 16.0228 4.70766C15.8646 3.91203 15.4739 3.1812 14.9003 2.60758C14.3267 2.03396 13.5959 1.64332 12.8002 1.48506C12.0046 1.3268 11.1799 1.40803 10.4304 1.71847C9.68098 2.02891 9.0404 2.55462 8.58971 3.22912C8.13902 3.90362 7.89847 4.69662 7.89847 5.50784C7.89971 6.59526 8.33224 7.6378 9.10117 8.40672C9.87009 9.17565 10.9126 9.60818 12.0001 9.60942ZM12.0001 2.10938C12.6722 2.10938 13.3293 2.3087 13.8881 2.68212C14.447 3.05555 14.8826 3.58632 15.1398 4.2073C15.397 4.82829 15.4643 5.51161 15.3332 6.17084C15.2021 6.83008 14.8784 7.43563 14.4031 7.91091C13.9278 8.38619 13.3223 8.70986 12.6631 8.84099C12.0038 8.97212 11.3205 8.90482 10.6995 8.6476C10.0785 8.39038 9.54777 7.95479 9.17434 7.39592C8.80091 6.83704 8.6016 6.17999 8.6016 5.50784C8.60259 4.60681 8.96096 3.74298 9.59808 3.10586C10.2352 2.46874 11.099 2.11037 12.0001 2.10938ZM19.0754 5.50784C19.0754 5.554 19.0845 5.59972 19.1022 5.64237C19.1198 5.68503 19.1457 5.72378 19.1784 5.75643C19.211 5.78908 19.2498 5.81497 19.2924 5.83264C19.3351 5.85031 19.3808 5.8594 19.427 5.8594H21.3751C21.4683 5.8594 21.5578 5.82236 21.6237 5.75643C21.6896 5.6905 21.7267 5.60108 21.7267 5.50784C21.7267 5.4146 21.6896 5.32517 21.6237 5.25924C21.5578 5.19331 21.4683 5.15627 21.3751 5.15627H19.427C19.3337 5.15627 19.2443 5.19331 19.1784 5.25924C19.1124 5.32517 19.0754 5.4146 19.0754 5.50784ZM18.6967 3.90517C18.7591 3.90565 18.8206 3.88947 18.8748 3.8583L20.3354 3.00001C20.4162 2.95283 20.475 2.87548 20.4988 2.78498C20.5225 2.69448 20.5094 2.59824 20.4622 2.51743C20.415 2.43662 20.3377 2.37786 20.2472 2.35409C20.1567 2.33031 20.0604 2.34345 19.9796 2.39063L18.5185 3.25032C18.4512 3.28907 18.3986 3.34901 18.369 3.42079C18.3393 3.49258 18.3343 3.57216 18.3546 3.64712C18.375 3.72207 18.4195 3.78818 18.4814 3.83512C18.5433 3.88206 18.619 3.90719 18.6967 3.90658V3.90517ZM18.5185 7.76535L19.9796 8.62504C20.0196 8.6484 20.0639 8.66365 20.1098 8.66992C20.1557 8.6762 20.2024 8.67336 20.2472 8.66159C20.292 8.64981 20.334 8.62933 20.3709 8.6013C20.4078 8.57328 20.4388 8.53826 20.4622 8.49824C20.4856 8.45823 20.5008 8.41401 20.5071 8.3681C20.5134 8.3222 20.5105 8.2755 20.4988 8.23069C20.487 8.18588 20.4665 8.14383 20.4385 8.10693C20.4104 8.07004 20.3754 8.03902 20.3354 8.01566L18.8748 7.15785C18.835 7.13359 18.7907 7.1175 18.7446 7.11051C18.6985 7.10352 18.6515 7.10578 18.6062 7.11714C18.561 7.12851 18.5185 7.14875 18.4812 7.17671C18.4438 7.20466 18.4125 7.23976 18.3888 7.27996C18.3652 7.32016 18.3498 7.36466 18.3435 7.41087C18.3373 7.45708 18.3403 7.50407 18.3523 7.54911C18.3644 7.59415 18.3853 7.63634 18.4138 7.67323C18.4424 7.71011 18.478 7.74095 18.5185 7.76394V7.76535ZM2.625 5.8594H4.57314C4.66638 5.8594 4.7558 5.82236 4.82173 5.75643C4.88766 5.6905 4.9247 5.60108 4.9247 5.50784C4.9247 5.4146 4.88766 5.32517 4.82173 5.25924C4.7558 5.19331 4.66638 5.15627 4.57314 5.15627H2.625C2.53176 5.15627 2.44234 5.19331 2.37641 5.25924C2.31048 5.32517 2.27344 5.4146 2.27344 5.50784C2.27344 5.60108 2.31048 5.6905 2.37641 5.75643C2.44234 5.82236 2.53176 5.8594 2.625 5.8594ZM3.6647 3.00001L5.12533 3.85783C5.16515 3.88208 5.20941 3.89817 5.25551 3.90516C5.30162 3.91215 5.34865 3.9099 5.39388 3.89853C5.4391 3.88717 5.48161 3.86692 5.51894 3.83897C5.55626 3.81101 5.58765 3.77592 5.61128 3.73571C5.63491 3.69551 5.65031 3.65101 5.65657 3.60481C5.66284 3.5586 5.65985 3.5116 5.64778 3.46656C5.63571 3.42152 5.6148 3.37933 5.58626 3.34245C5.55773 3.30557 5.52215 3.27473 5.48158 3.25173L4.02048 2.39063C3.98047 2.36727 3.93624 2.35202 3.89034 2.34575C3.84443 2.33948 3.79774 2.34231 3.75293 2.35409C3.66243 2.37786 3.58508 2.43662 3.5379 2.51743C3.49072 2.59824 3.47757 2.69448 3.50135 2.78498C3.52513 2.87548 3.58389 2.95283 3.6647 3.00001ZM5.12533 7.15925L3.6647 8.01566C3.58389 8.06284 3.52513 8.14019 3.50135 8.23069C3.47757 8.32119 3.49072 8.41743 3.5379 8.49824C3.58508 8.57905 3.66243 8.63781 3.75293 8.66159C3.84343 8.68537 3.93967 8.67222 4.02048 8.62504L5.48158 7.76676C5.52215 7.74376 5.55773 7.71292 5.58626 7.67604C5.6148 7.63915 5.63571 7.59697 5.64778 7.55192C5.65985 7.50688 5.66284 7.45989 5.65657 7.41368C5.65031 7.36747 5.63491 7.32297 5.61128 7.28277C5.58765 7.24257 5.55626 7.20747 5.51894 7.17952C5.48161 7.15157 5.4391 7.13132 5.39388 7.11995C5.34865 7.10859 5.30162 7.10634 5.25551 7.11332C5.20941 7.12031 5.16515 7.1364 5.12533 7.16066V7.15925Z" fill="#4ABCEB"/>
<path d="M11.2127 7.03756C11.2457 7.073 11.2856 7.10126 11.3299 7.12059C11.3743 7.13991 11.4221 7.14989 11.4705 7.14989C11.5189 7.14989 11.5668 7.13991 11.6111 7.12059C11.6555 7.10126 11.6954 7.073 11.7283 7.03756L14.1349 4.45942C14.1664 4.42557 14.191 4.38583 14.2071 4.34249C14.2233 4.29915 14.2308 4.25305 14.2291 4.20683C14.2275 4.1606 14.2167 4.11515 14.1975 4.07308C14.1783 4.031 14.151 3.99312 14.1171 3.96161C14.0832 3.93009 14.0435 3.90555 14.0002 3.88939C13.9568 3.87323 13.9107 3.86576 13.8645 3.86741C13.8183 3.86907 13.7728 3.87981 13.7308 3.89903C13.6887 3.91825 13.6508 3.94556 13.6193 3.97942L11.4701 6.28193L10.3835 5.11802C10.3198 5.04964 10.2316 5.00935 10.1383 5.00601C10.0449 5.00267 9.95405 5.03656 9.88567 5.10021C9.81729 5.16386 9.777 5.25207 9.77366 5.34543C9.77032 5.43878 9.80421 5.52965 9.86786 5.59802L11.2127 7.03756Z" fill="#4ABCEB"/>
</svg>
