<svg width="23" height="24" viewBox="0 0 23 24" fill="none" xmlns="http://www.w3.org/2000/svg">
<rect x="0.5" y="0.5" width="22" height="7.79412" rx="1.5" fill="white" stroke="#00BAF2"/>
<path d="M4.75977 4.9668H4.01953V4.57812H4.75977C4.88867 4.57812 4.99284 4.55729 5.07227 4.51562C5.15169 4.47396 5.20964 4.41667 5.24609 4.34375C5.28385 4.26953 5.30273 4.1849 5.30273 4.08984C5.30273 4 5.28385 3.91602 5.24609 3.83789C5.20964 3.75846 5.15169 3.69466 5.07227 3.64648C4.99284 3.59831 4.88867 3.57422 4.75977 3.57422H4.16992V6.02734H3.67969V3.18359H4.75977C4.97982 3.18359 5.16667 3.22266 5.32031 3.30078C5.47526 3.3776 5.5931 3.48438 5.67383 3.62109C5.75456 3.75651 5.79492 3.91146 5.79492 4.08594C5.79492 4.26953 5.75456 4.42708 5.67383 4.55859C5.5931 4.6901 5.47526 4.79102 5.32031 4.86133C5.16667 4.93164 4.97982 4.9668 4.75977 4.9668ZM7.04492 3.5625L6.19531 6.02734H5.68164L6.75195 3.18359H7.08008L7.04492 3.5625ZM7.75586 6.02734L6.9043 3.5625L6.86719 3.18359H7.19727L8.27148 6.02734H7.75586ZM7.71484 4.97266V5.36133H6.16797V4.97266H7.71484ZM8.63867 3.18359L9.29883 4.54102L9.95898 3.18359H10.502L9.54492 4.98047V6.02734H9.05078V4.98047L8.09375 3.18359H8.63867ZM14.0645 3.18359V6.02734H13.5742L12.2988 3.99023V6.02734H11.8086V3.18359H12.2988L13.5781 5.22461V3.18359H14.0645ZM16.916 4.52734V4.68359C16.916 4.89844 16.888 5.09115 16.832 5.26172C16.776 5.43229 16.696 5.57747 16.5918 5.69727C16.4889 5.81706 16.3652 5.90885 16.2207 5.97266C16.0762 6.03516 15.916 6.06641 15.7402 6.06641C15.5658 6.06641 15.4062 6.03516 15.2617 5.97266C15.1185 5.90885 14.9941 5.81706 14.8887 5.69727C14.7832 5.57747 14.7012 5.43229 14.6426 5.26172C14.5853 5.09115 14.5566 4.89844 14.5566 4.68359V4.52734C14.5566 4.3125 14.5853 4.12044 14.6426 3.95117C14.6999 3.7806 14.7806 3.63542 14.8848 3.51562C14.9902 3.39453 15.1146 3.30273 15.2578 3.24023C15.4023 3.17643 15.5618 3.14453 15.7363 3.14453C15.9121 3.14453 16.0723 3.17643 16.2168 3.24023C16.3613 3.30273 16.4857 3.39453 16.5898 3.51562C16.694 3.63542 16.7741 3.7806 16.8301 3.95117C16.8874 4.12044 16.916 4.3125 16.916 4.52734ZM16.4258 4.68359V4.52344C16.4258 4.36458 16.4102 4.22461 16.3789 4.10352C16.349 3.98112 16.304 3.87891 16.2441 3.79688C16.1855 3.71354 16.1133 3.65104 16.0273 3.60938C15.9414 3.56641 15.8444 3.54492 15.7363 3.54492C15.6283 3.54492 15.5319 3.56641 15.4473 3.60938C15.3626 3.65104 15.2904 3.71354 15.2305 3.79688C15.1719 3.87891 15.127 3.98112 15.0957 4.10352C15.0645 4.22461 15.0488 4.36458 15.0488 4.52344V4.68359C15.0488 4.84245 15.0645 4.98307 15.0957 5.10547C15.127 5.22786 15.1725 5.33138 15.2324 5.41602C15.2936 5.49935 15.3665 5.5625 15.4512 5.60547C15.5358 5.64714 15.6322 5.66797 15.7402 5.66797C15.8496 5.66797 15.9466 5.64714 16.0312 5.60547C16.1159 5.5625 16.1875 5.49935 16.2461 5.41602C16.3047 5.33138 16.349 5.22786 16.3789 5.10547C16.4102 4.98307 16.4258 4.84245 16.4258 4.68359ZM18.1191 5.38867L18.6855 3.18359H18.9824L18.9492 3.75195L18.3438 6.02734H18.0352L18.1191 5.38867ZM17.6953 3.18359L18.1543 5.37109L18.1953 6.02734H17.8672L17.209 3.18359H17.6953ZM19.625 5.36523L20.0781 3.18359H20.5664L19.9082 6.02734H19.5801L19.625 5.36523ZM19.0977 3.18359L19.6582 5.39453L19.7402 6.02734H19.4316L18.8359 3.75195L18.8047 3.18359H19.0977Z" fill="#20336B"/>
<path d="M11.1282 21.8639L11.1854 20.2672L11.013 20.1371C9.15805 18.7373 7.80765 16.7733 7.1648 14.5401C7.09776 14.3073 7.10574 14.0592 7.18759 13.8311C7.26944 13.603 7.42103 13.4064 7.62084 13.2693C8.12217 12.9252 8.80449 13.0292 9.18062 13.507L10.3113 14.9431L10.567 7.7975C10.588 7.21029 11.081 6.75126 11.6683 6.77229C12.2555 6.79326 12.7145 7.2864 12.6935 7.8736L12.4717 14.073L12.4343 15.1161L12.5646 11.4742C12.5857 10.887 13.0787 10.428 13.666 10.449C14.2532 10.47 14.7122 10.9631 14.6912 11.5503L14.5792 14.6805L14.5609 15.1922L14.6663 12.2434C14.6874 11.6561 15.1805 11.1971 15.7677 11.2181C16.3549 11.2391 16.8139 11.7322 16.7929 12.3195L16.7057 14.7566L16.6874 15.2683L16.7493 13.538C16.7703 12.9508 17.2634 12.4918 17.8506 12.5128C18.4379 12.5338 18.8968 13.0269 18.8758 13.6141L18.7291 17.714C18.6936 18.7069 18.2789 19.6484 17.5703 20.3449L17.5078 22.0922L11.1282 21.8639Z" fill="#20336B" stroke="white" stroke-width="0.5"/>
</svg>
