<svg width="24" height="24" viewBox="0 0 24 24" fill="none" xmlns="http://www.w3.org/2000/svg">
<g clip-path="url(#clip0_2214_334)">
<path d="M20 0H4C1.79086 0 0 1.79086 0 4V20C0 22.2091 1.79086 24 4 24H20C22.2091 24 24 22.2091 24 20V4C24 1.79086 22.2091 0 20 0Z" fill="white"/>
<path d="M11.2787 15.9795L11.4514 15.1975L12.5554 15.0342L12.3499 15.9795H11.2787Z" fill="#4ABCEB" stroke="#4ABCEB"/>
<path d="M17.0033 15.9674L17.3282 14.3801L18.4082 14.2522L18.0093 15.9674H17.0033Z" fill="#4ABCEB" stroke="#4ABCEB"/>
<path d="M5 16.403L7.25677 15.6406L7.09195 16.4666H5V16.403Z" fill="#4ABCEB"/>
<mask id="mask0_2214_334" style="mask-type:luminance" maskUnits="userSpaceOnUse" x="5" y="15" width="3" height="2">
<path d="M5 16.403L7.25677 15.6406L7.09195 16.4666H5V16.403Z" fill="white"/>
</mask>
<g mask="url(#mask0_2214_334)">
<path d="M5 16.403L4.67993 15.4557L4 15.6854V16.403H5ZM7.25677 15.6406L8.23744 15.8363L8.57606 14.1394L6.93671 14.6932L7.25677 15.6406ZM7.09195 16.4666V17.4666H7.91212L8.07262 16.6623L7.09195 16.4666ZM5 16.4666H4V17.4666H5V16.4666ZM5.32007 17.3504L7.57684 16.588L6.93671 14.6932L4.67993 15.4557L5.32007 17.3504ZM6.27611 15.4449L6.11129 16.2709L8.07262 16.6623L8.23744 15.8363L6.27611 15.4449ZM7.09195 15.4666H5V17.4666H7.09195V15.4666ZM6 16.4666V16.403H4V16.4666H6Z" fill="#4ABCEB"/>
</g>
<mask id="mask1_2214_334" style="mask-type:luminance" maskUnits="userSpaceOnUse" x="5" y="7" width="15" height="10">
<path d="M19.048 13.6953C18.3198 13.7724 17.6065 13.8533 16.9083 13.938L17.5772 10.7927C17.6485 10.4825 17.6841 10.2022 17.6841 9.95177C17.6841 9.0579 17.1437 8.61098 16.063 8.61098H14.4405L13.198 14.4466C12.4466 14.5641 11.7252 14.6874 11.0336 14.8165L12.3541 8.61098H9.28823C8.92028 8.61098 8.70067 8.78965 8.6294 9.147L7.24814 15.6791C6.39714 15.9189 5.64295 16.176 5 16.4491L6.66877 8.61098C6.78724 8.05039 6.98904 7.6415 7.27416 7.38432C7.55926 7.12811 8.00475 7 8.61062 7H16.6149C17.6013 7 18.3887 7.19698 18.9772 7.59093C19.5657 7.98392 19.86 8.59219 19.86 9.41575C19.86 9.76153 19.8359 10.0356 19.7878 10.2378L19.048 13.6953Z" fill="white"/>
</mask>
<g mask="url(#mask1_2214_334)">
<path d="M67.8897 22.8454H2.84375V4.71289H67.8897V22.8454Z" fill="#20336B"/>
</g>
</g>
<defs>
<clipPath id="clip0_2214_334">
<rect width="24" height="24" fill="white"/>
</clipPath>
</defs>
</svg>
