<svg width="25" height="24" viewBox="0 0 25 24" fill="none" xmlns="http://www.w3.org/2000/svg">
<rect x="0.5" width="24" height="24" rx="4" fill="white"/>
<path d="M11.7787 15.9794L11.9514 15.1974L13.0554 15.0341L12.8499 15.9794H11.7787Z" fill="#4ABCEB" stroke="#4ABCEB"/>
<path d="M17.5033 15.9674L17.8282 14.3801L18.9082 14.2522L18.5093 15.9674H17.5033Z" fill="#4ABCEB" stroke="#4ABCEB"/>
<mask id="path-4-inside-1_602_15347" fill="white">
<path d="M5.5 16.403L7.75677 15.6406L7.59195 16.4666H5.5V16.403Z"/>
</mask>
<path d="M5.5 16.403L7.75677 15.6406L7.59195 16.4666H5.5V16.403Z" fill="#4ABCEB"/>
<path d="M5.5 16.403L5.17993 15.4557L4.5 15.6854V16.403H5.5ZM7.75677 15.6406L8.73744 15.8363L9.07606 14.1394L7.43671 14.6932L7.75677 15.6406ZM7.59195 16.4666V17.4666H8.41212L8.57262 16.6623L7.59195 16.4666ZM5.5 16.4666H4.5V17.4666H5.5V16.4666ZM5.82007 17.3504L8.07684 16.588L7.43671 14.6932L5.17993 15.4557L5.82007 17.3504ZM6.77611 15.4449L6.61129 16.2709L8.57262 16.6623L8.73744 15.8363L6.77611 15.4449ZM7.59195 15.4666H5.5V17.4666H7.59195V15.4666ZM6.5 16.4666V16.403H4.5V16.4666H6.5Z" fill="#4ABCEB" mask="url(#path-4-inside-1_602_15347)"/>
<mask id="mask0_602_15347" style="mask-type:luminance" maskUnits="userSpaceOnUse" x="5" y="7" width="16" height="10">
<path d="M19.548 13.6953C18.8198 13.7724 18.1065 13.8533 17.4083 13.938L18.0772 10.7927C18.1485 10.4825 18.1841 10.2022 18.1841 9.95177C18.1841 9.0579 17.6437 8.61098 16.563 8.61098H14.9405L13.698 14.4466C12.9466 14.5641 12.2252 14.6874 11.5336 14.8165L12.8541 8.61098H9.78823C9.42028 8.61098 9.20067 8.78965 9.1294 9.147L7.74814 15.6791C6.89714 15.9189 6.14295 16.176 5.5 16.4491L7.16877 8.61098C7.28724 8.05039 7.48904 7.6415 7.77416 7.38432C8.05926 7.12811 8.50475 7 9.11062 7H17.1149C18.1013 7 18.8887 7.19698 19.4772 7.59093C20.0657 7.98392 20.36 8.59219 20.36 9.41575C20.36 9.76153 20.3359 10.0356 20.2878 10.2378L19.548 13.6953Z" fill="white"/>
<path d="M19.548 13.6953C18.8198 13.7724 18.1065 13.8533 17.4083 13.938L18.0772 10.7927C18.1485 10.4825 18.1841 10.2022 18.1841 9.95177C18.1841 9.0579 17.6437 8.61098 16.563 8.61098H14.9405L13.698 14.4466C12.9466 14.5641 12.2252 14.6874 11.5336 14.8165L12.8541 8.61098H9.78823C9.42028 8.61098 9.20067 8.78965 9.1294 9.147L7.74814 15.6791C6.89714 15.9189 6.14295 16.176 5.5 16.4491L7.16877 8.61098C7.28724 8.05039 7.48904 7.6415 7.77416 7.38432C8.05926 7.12811 8.50475 7 9.11062 7H17.1149C18.1013 7 18.8887 7.19698 19.4772 7.59093C20.0657 7.98392 20.36 8.59219 20.36 9.41575C20.36 9.76153 20.3359 10.0356 20.2878 10.2378L19.548 13.6953Z" stroke="white"/>
</mask>
<g mask="url(#mask0_602_15347)">
<path d="M68.3897 22.8454H3.34375V4.71289H68.3897V22.8454Z" fill="#223872"/>
<path d="M68.3897 22.8454H3.34375V4.71289H68.3897V22.8454Z" stroke="#4ABCEB"/>
</g>
</svg>
