<svg width="24" height="25" viewBox="0 0 24 25" fill="none" xmlns="http://www.w3.org/2000/svg">
<path d="M2.50781 19.6097V11.9297" stroke="white" stroke-linecap="round" stroke-linejoin="round"/>
<path d="M1.50781 19.6113H6.50781" stroke="white" stroke-linecap="round" stroke-linejoin="round"/>
<path d="M0.507812 23.4512H23.5078" stroke="white" stroke-linecap="round" stroke-linejoin="round"/>
<path d="M0.507812 21.5312H23.5078" stroke="white" stroke-linecap="round" stroke-linejoin="round"/>
<path d="M1.50781 11.9297H6.50781" stroke="white" stroke-linecap="round" stroke-linejoin="round"/>
<path d="M9.50781 19.6113H14.5078" stroke="white" stroke-linecap="round" stroke-linejoin="round"/>
<path d="M9.50781 11.9297H14.5078" stroke="white" stroke-linecap="round" stroke-linejoin="round"/>
<path d="M5.50781 19.6097V11.9297" stroke="white" stroke-linecap="round" stroke-linejoin="round"/>
<path d="M10.5078 19.6097V11.9297" stroke="white" stroke-linecap="round" stroke-linejoin="round"/>
<path d="M13.5078 19.6097V11.9297" stroke="white" stroke-linecap="round" stroke-linejoin="round"/>
<path d="M17.5078 19.6113H22.5078" stroke="white" stroke-linecap="round" stroke-linejoin="round"/>
<path d="M17.5078 11.9297H22.5078" stroke="white" stroke-linecap="round" stroke-linejoin="round"/>
<path d="M18.5078 19.6097V11.9297" stroke="white" stroke-linecap="round" stroke-linejoin="round"/>
<path d="M21.5078 19.6097V11.9297" stroke="white" stroke-linecap="round" stroke-linejoin="round"/>
<path fill-rule="evenodd" clip-rule="evenodd" d="M1.65442 9.15132C1.48553 9.27715 1.41866 9.49213 1.48802 9.68626C1.55739 9.88039 1.74764 10.0107 1.96142 10.0105H22.0614C22.275 10.011 22.4654 9.88114 22.5351 9.68733C22.6049 9.49351 22.5387 9.27854 22.3704 9.15228L12.3474 1.60188C12.1664 1.46604 11.9124 1.46604 11.7314 1.60188L1.65442 9.15132Z" stroke="white" stroke-linecap="round" stroke-linejoin="round"/>
<path fill-rule="evenodd" clip-rule="evenodd" d="M12 7.95508C13.1046 7.95508 14 7.05965 14 5.95508C14 4.85051 13.1046 3.95508 12 3.95508C10.8954 3.95508 10 4.85051 10 5.95508C10 7.05965 10.8954 7.95508 12 7.95508Z" fill="white" stroke="white" stroke-linecap="round" stroke-linejoin="round"/>
<path d="M12.6684 5.28906L11.7363 6.52662C11.6943 6.58212 11.6301 6.61682 11.5604 6.62178C11.4907 6.62674 11.4223 6.60148 11.3728 6.55251L10.8906 6.0732" stroke="white" stroke-linecap="round" stroke-linejoin="round"/>
</svg>
