<svg width="439" height="168" viewBox="0 0 439 168" fill="none" xmlns="http://www.w3.org/2000/svg">
<path d="M12.744 11.108V15H10.952V4.948H14.97C17.21 4.948 18.61 5.998 18.61 8.028C18.61 10.03 17.21 11.108 14.97 11.108H12.744ZM12.744 9.568H14.872C16.16 9.568 16.846 9.008 16.846 8.028C16.846 7.034 16.16 6.488 14.872 6.488H12.744V9.568ZM21.4003 15.126C20.0003 15.126 18.9223 14.272 18.9223 12.956C18.9223 11.556 19.9723 10.94 21.3863 10.646L23.4163 10.226V10.1C23.4163 9.4 23.0523 8.966 22.1563 8.966C21.3583 8.966 20.9383 9.33 20.7423 10.044L19.1603 9.68C19.5243 8.462 20.6023 7.51 22.2263 7.51C23.9903 7.51 25.0543 8.35 25.0543 10.044V13.208C25.0543 13.628 25.2363 13.754 25.6983 13.698V15C24.4803 15.14 23.8363 14.902 23.5843 14.3C23.1223 14.818 22.3523 15.126 21.4003 15.126ZM23.4163 12.41V11.514L21.8343 11.85C21.1203 12.004 20.5883 12.228 20.5883 12.886C20.5883 13.46 21.0083 13.782 21.6523 13.782C22.5483 13.782 23.4163 13.306 23.4163 12.41ZM29.947 15.686C29.527 16.806 28.883 17.576 27.357 17.576C27.007 17.576 26.909 17.562 26.671 17.534V16.12C26.895 16.148 27.021 16.162 27.231 16.162C27.791 16.162 28.057 16.008 28.295 15.42L28.575 14.734L25.901 7.65H27.665L29.471 12.802L31.235 7.65H32.971L29.947 15.686ZM35.5581 10.688V15H33.8781V7.65H35.5581V8.434C35.9641 7.944 36.5941 7.51 37.5741 7.51C38.4561 7.51 39.1141 7.902 39.5201 8.532C39.9681 8.056 40.6681 7.51 41.8021 7.51C43.3141 7.51 44.2941 8.574 44.2941 10.156V15H42.6141V10.646C42.6141 9.736 42.2781 9.078 41.3821 9.078C40.6681 9.078 39.9261 9.638 39.9261 10.688V15H38.2461V10.646C38.2461 9.736 37.9101 9.078 37.0141 9.078C36.3001 9.078 35.5581 9.638 35.5581 10.688ZM49.113 15.154C47.013 15.154 45.543 13.6 45.543 11.332C45.543 9.176 46.999 7.51 49.043 7.51C51.171 7.51 52.305 9.12 52.305 11.136V11.696H47.153C47.279 12.956 48.035 13.726 49.113 13.726C49.939 13.726 50.597 13.306 50.821 12.55L52.263 13.096C51.745 14.384 50.583 15.154 49.113 15.154ZM49.029 8.924C48.161 8.924 47.489 9.442 47.237 10.436H50.611C50.597 9.624 50.093 8.924 49.029 8.924ZM53.5656 15V7.65H55.2456V8.434C55.6656 7.944 56.3236 7.51 57.2756 7.51C58.8156 7.51 59.7396 8.574 59.7396 10.156V15H58.0596V10.646C58.0596 9.736 57.6956 9.078 56.7716 9.078C56.0156 9.078 55.2456 9.638 55.2456 10.688V15H53.5656ZM61.6083 13.152V9.078H60.5863V7.65H61.6083V5.494H63.2603V7.65H64.8003V9.078H63.2603V12.886C63.2603 13.544 63.6383 13.614 64.2403 13.614C64.5203 13.614 64.6743 13.6 64.9263 13.572V14.986C64.6183 15.042 64.1983 15.084 63.7643 15.084C62.3643 15.084 61.6083 14.65 61.6083 13.152ZM74.8935 15H73.4375L70.8055 7.23V15H69.1395V4.948H71.6035L74.1935 12.648L76.7835 4.948H79.1915V15H77.5255V7.23L74.8935 15ZM84.1267 15.154C82.0267 15.154 80.5567 13.6 80.5567 11.332C80.5567 9.176 82.0127 7.51 84.0567 7.51C86.1847 7.51 87.3187 9.12 87.3187 11.136V11.696H82.1667C82.2927 12.956 83.0487 13.726 84.1267 13.726C84.9527 13.726 85.6107 13.306 85.8347 12.55L87.2767 13.096C86.7587 14.384 85.5967 15.154 84.1267 15.154ZM84.0427 8.924C83.1747 8.924 82.5027 9.442 82.2507 10.436H85.6247C85.6107 9.624 85.1067 8.924 84.0427 8.924ZM88.7333 13.152V9.078H87.7113V7.65H88.7333V5.494H90.3853V7.65H91.9253V9.078H90.3853V12.886C90.3853 13.544 90.7633 13.614 91.3653 13.614C91.6453 13.614 91.7993 13.6 92.0513 13.572V14.986C91.7433 15.042 91.3233 15.084 90.8893 15.084C89.4893 15.084 88.7333 14.65 88.7333 13.152ZM93.3097 15V4.948H94.9897V8.434C95.4097 7.944 96.0677 7.51 97.0197 7.51C98.5597 7.51 99.4837 8.574 99.4837 10.156V15H97.8037V10.646C97.8037 9.736 97.4397 9.078 96.5157 9.078C95.7597 9.078 94.9897 9.638 94.9897 10.688V15H93.3097ZM107.82 11.332C107.82 13.614 106.35 15.154 104.278 15.154C102.206 15.154 100.736 13.614 100.736 11.332C100.736 9.05 102.206 7.51 104.278 7.51C106.35 7.51 107.82 9.05 107.82 11.332ZM102.43 11.332C102.43 12.83 103.144 13.74 104.278 13.74C105.412 13.74 106.126 12.83 106.126 11.332C106.126 9.834 105.412 8.924 104.278 8.924C103.144 8.924 102.43 9.834 102.43 11.332ZM111.9 15.154C109.842 15.154 108.666 13.418 108.666 11.332C108.666 9.246 109.842 7.51 111.9 7.51C112.852 7.51 113.552 7.888 114.014 8.434V4.948H115.694V15H114.014V14.23C113.552 14.776 112.852 15.154 111.9 15.154ZM114.056 11.122C114.056 9.736 113.272 8.98 112.236 8.98C111.018 8.98 110.36 9.932 110.36 11.332C110.36 12.732 111.018 13.684 112.236 13.684C113.272 13.684 114.056 12.914 114.056 11.556V11.122ZM116.684 13.6L117.944 12.592C118.378 13.306 119.218 13.782 120.072 13.782C120.786 13.782 121.444 13.53 121.444 12.872C121.444 12.242 120.828 12.172 119.666 11.934C118.504 11.696 117.174 11.402 117.174 9.834C117.174 8.49 118.35 7.51 120.044 7.51C121.332 7.51 122.48 8.084 123.012 8.896L121.878 9.918C121.458 9.26 120.758 8.882 119.946 8.882C119.26 8.882 118.812 9.19 118.812 9.68C118.812 10.212 119.344 10.31 120.268 10.506C121.514 10.772 123.082 11.038 123.082 12.718C123.082 14.202 121.724 15.154 120.058 15.154C118.7 15.154 117.342 14.608 116.684 13.6ZM13.948 22.948H15.978L19.786 33H17.98L17.112 30.704H12.772L11.918 33H10.14L13.948 22.948ZM14.928 24.936L13.36 29.136H16.524L14.928 24.936ZM23.7069 33H22.0129L19.3249 25.65H21.0889L22.8809 30.984L24.6589 25.65H26.3949L23.7069 33ZM28.9745 33.126C27.5745 33.126 26.4965 32.272 26.4965 30.956C26.4965 29.556 27.5465 28.94 28.9605 28.646L30.9905 28.226V28.1C30.9905 27.4 30.6265 26.966 29.7305 26.966C28.9325 26.966 28.5125 27.33 28.3165 28.044L26.7345 27.68C27.0985 26.462 28.1765 25.51 29.8005 25.51C31.5645 25.51 32.6285 26.35 32.6285 28.044V31.208C32.6285 31.628 32.8105 31.754 33.2725 31.698V33C32.0545 33.14 31.4105 32.902 31.1585 32.3C30.6965 32.818 29.9265 33.126 28.9745 33.126ZM30.9905 30.41V29.514L29.4085 29.85C28.6945 30.004 28.1625 30.228 28.1625 30.886C28.1625 31.46 28.5825 31.782 29.2265 31.782C30.1225 31.782 30.9905 31.306 30.9905 30.41ZM34.438 24.67V22.948H36.174V24.67H34.438ZM36.146 25.65V33H34.466V25.65H36.146ZM39.5913 22.948V33H37.9113V22.948H39.5913ZM43.3026 33.126C41.9026 33.126 40.8246 32.272 40.8246 30.956C40.8246 29.556 41.8746 28.94 43.2886 28.646L45.3186 28.226V28.1C45.3186 27.4 44.9546 26.966 44.0586 26.966C43.2606 26.966 42.8406 27.33 42.6446 28.044L41.0626 27.68C41.4266 26.462 42.5046 25.51 44.1286 25.51C45.8926 25.51 46.9566 26.35 46.9566 28.044V31.208C46.9566 31.628 47.1386 31.754 47.6006 31.698V33C46.3826 33.14 45.7386 32.902 45.4866 32.3C45.0246 32.818 44.2546 33.126 43.3026 33.126ZM45.3186 30.41V29.514L43.7366 29.85C43.0226 30.004 42.4906 30.228 42.4906 30.886C42.4906 31.46 42.9106 31.782 43.5546 31.782C44.4506 31.782 45.3186 31.306 45.3186 30.41ZM52.5881 33.154C51.6361 33.154 50.9361 32.776 50.4741 32.23V33H48.7941V22.948H50.4741V26.434C50.9361 25.888 51.6361 25.51 52.5881 25.51C54.6461 25.51 55.8221 27.246 55.8221 29.332C55.8221 31.418 54.6461 33.154 52.5881 33.154ZM50.4321 29.122V29.556C50.4321 30.914 51.2161 31.684 52.2521 31.684C53.4701 31.684 54.1281 30.732 54.1281 29.332C54.1281 27.932 53.4701 26.98 52.2521 26.98C51.2161 26.98 50.4321 27.736 50.4321 29.122ZM58.8003 22.948V33H57.1203V22.948H58.8003ZM63.6736 33.154C61.5736 33.154 60.1036 31.6 60.1036 29.332C60.1036 27.176 61.5596 25.51 63.6036 25.51C65.7316 25.51 66.8656 27.12 66.8656 29.136V29.696H61.7136C61.8396 30.956 62.5956 31.726 63.6736 31.726C64.4996 31.726 65.1576 31.306 65.3816 30.55L66.8236 31.096C66.3056 32.384 65.1436 33.154 63.6736 33.154ZM63.5896 26.924C62.7216 26.924 62.0496 27.442 61.7976 28.436H65.1716C65.1576 27.624 64.6536 26.924 63.5896 26.924Z" fill="#20336B"/>
<path d="M28 80L30.8868 75L25.1132 75L28 80ZM27.5 44L27.5 75.5L28.5 75.5L28.5 44L27.5 44Z" fill="#20336B"/>
<path d="M108 115L103 112.113L103 117.887L108 115ZM68 115.5L103.5 115.5L103.5 114.5L68 114.5L68 115.5Z" fill="#20336B"/>
<path d="M230 115L225 112.113L225 117.887L230 115ZM190 115.5L225.5 115.5L225.5 114.5L190 114.5L190 115.5Z" fill="#20336B"/>
<path d="M353 115L348 112.113L348 117.887L353 115ZM313 115.5L348.5 115.5L348.5 114.5L313 114.5L313 115.5Z" fill="#20336B"/>
<circle cx="272.5" cy="114" r="27.5" stroke="#20336B"/>
<rect x="260" y="102" width="24" height="24" rx="4" fill="#20336B"/>
<path d="M271.279 117.979L271.451 117.197L272.555 117.034L272.35 117.979H271.279Z" fill="#4ABCEB" stroke="#4ABCEB"/>
<path d="M277.003 117.967L277.328 116.38L278.408 116.252L278.009 117.967H277.003Z" fill="#4ABCEB" stroke="#4ABCEB"/>
<mask id="path-10-inside-1_3183_9823" fill="white">
<path d="M265 118.403L267.257 117.641L267.092 118.467H265V118.403Z"/>
</mask>
<path d="M265 118.403L267.257 117.641L267.092 118.467H265V118.403Z" fill="#4ABCEB"/>
<path d="M265 118.403L264.68 117.456L264 117.685V118.403H265ZM267.257 117.641L268.237 117.836L268.576 116.139L266.937 116.693L267.257 117.641ZM267.092 118.467V119.467H267.912L268.073 118.662L267.092 118.467ZM265 118.467H264V119.467H265V118.467ZM265.32 119.35L267.577 118.588L266.937 116.693L264.68 117.456L265.32 119.35ZM266.276 117.445L266.111 118.271L268.073 118.662L268.237 117.836L266.276 117.445ZM267.092 117.467H265V119.467H267.092V117.467ZM266 118.467V118.403H264V118.467H266Z" fill="#4ABCEB" mask="url(#path-10-inside-1_3183_9823)"/>
<mask id="mask0_3183_9823" style="mask-type:luminance" maskUnits="userSpaceOnUse" x="265" y="109" width="15" height="10">
<path d="M279.048 115.695C278.32 115.772 277.607 115.853 276.908 115.938L277.577 112.793C277.648 112.483 277.684 112.202 277.684 111.952C277.684 111.058 277.144 110.611 276.063 110.611H274.44L273.198 116.447C272.447 116.564 271.725 116.687 271.034 116.816L272.354 110.611H269.288C268.92 110.611 268.701 110.79 268.629 111.147L267.248 117.679C266.397 117.919 265.643 118.176 265 118.449L266.669 110.611C266.787 110.05 266.989 109.642 267.274 109.384C267.559 109.128 268.005 109 268.611 109H276.615C277.601 109 278.389 109.197 278.977 109.591C279.566 109.984 279.86 110.592 279.86 111.416C279.86 111.762 279.836 112.036 279.788 112.238L279.048 115.695Z" fill="white"/>
<path d="M279.048 115.695C278.32 115.772 277.607 115.853 276.908 115.938L277.577 112.793C277.648 112.483 277.684 112.202 277.684 111.952C277.684 111.058 277.144 110.611 276.063 110.611H274.44L273.198 116.447C272.447 116.564 271.725 116.687 271.034 116.816L272.354 110.611H269.288C268.92 110.611 268.701 110.79 268.629 111.147L267.248 117.679C266.397 117.919 265.643 118.176 265 118.449L266.669 110.611C266.787 110.05 266.989 109.642 267.274 109.384C267.559 109.128 268.005 109 268.611 109H276.615C277.601 109 278.389 109.197 278.977 109.591C279.566 109.984 279.86 110.592 279.86 111.416C279.86 111.762 279.836 112.036 279.788 112.238L279.048 115.695Z" stroke="white"/>
</mask>
<g mask="url(#mask0_3183_9823)">
<path d="M327.89 124.843H262.844V106.711H327.89V124.843Z" fill="white"/>
<path d="M327.89 124.843H262.844V106.711H327.89V124.843Z" stroke="#4ABCEB"/>
</g>
<path d="M242.012 165H240.556L237.924 157.23V165H236.258V154.948H238.722L241.312 162.648L243.902 154.948H246.31V165H244.644V157.23L242.012 165ZM254.759 161.332C254.759 163.614 253.289 165.154 251.217 165.154C249.145 165.154 247.675 163.614 247.675 161.332C247.675 159.05 249.145 157.51 251.217 157.51C253.289 157.51 254.759 159.05 254.759 161.332ZM249.369 161.332C249.369 162.83 250.083 163.74 251.217 163.74C252.351 163.74 253.065 162.83 253.065 161.332C253.065 159.834 252.351 158.924 251.217 158.924C250.083 158.924 249.369 159.834 249.369 161.332ZM256.067 165V157.65H257.747V158.434C258.167 157.944 258.825 157.51 259.777 157.51C261.317 157.51 262.241 158.574 262.241 160.156V165H260.561V160.646C260.561 159.736 260.197 159.078 259.273 159.078C258.517 159.078 257.747 159.638 257.747 160.688V165H256.067ZM264.109 163.152V159.078H263.087V157.65H264.109V155.494H265.761V157.65H267.301V159.078H265.761V162.886C265.761 163.544 266.139 163.614 266.741 163.614C267.021 163.614 267.175 163.6 267.427 163.572V164.986C267.119 165.042 266.699 165.084 266.265 165.084C264.865 165.084 264.109 164.65 264.109 163.152ZM272.858 157.636V159.316C272.648 159.288 272.48 159.274 272.242 159.274C271.178 159.274 270.366 159.96 270.366 161.136V165H268.686V157.65H270.366V158.742C270.688 158.056 271.444 157.608 272.382 157.608C272.578 157.608 272.732 157.622 272.858 157.636ZM275.759 165.126C274.359 165.126 273.281 164.272 273.281 162.956C273.281 161.556 274.331 160.94 275.745 160.646L277.775 160.226V160.1C277.775 159.4 277.411 158.966 276.515 158.966C275.717 158.966 275.297 159.33 275.101 160.044L273.519 159.68C273.883 158.462 274.961 157.51 276.585 157.51C278.349 157.51 279.413 158.35 279.413 160.044V163.208C279.413 163.628 279.595 163.754 280.057 163.698V165C278.839 165.14 278.195 164.902 277.943 164.3C277.481 164.818 276.711 165.126 275.759 165.126ZM277.775 162.41V161.514L276.193 161.85C275.479 162.004 274.947 162.228 274.947 162.886C274.947 163.46 275.367 163.782 276.011 163.782C276.907 163.782 277.775 163.306 277.775 162.41ZM287.201 154.948H289.231L293.039 165H291.233L290.365 162.704H286.025L285.171 165H283.393L287.201 154.948ZM288.181 156.936L286.613 161.136H289.777L288.181 156.936ZM297.718 165.154C296.766 165.154 296.066 164.776 295.604 164.23V167.52H293.924V157.65H295.604V158.434C296.066 157.888 296.766 157.51 297.718 157.51C299.776 157.51 300.952 159.246 300.952 161.332C300.952 163.418 299.776 165.154 297.718 165.154ZM295.562 161.122V161.556C295.562 162.914 296.346 163.684 297.382 163.684C298.6 163.684 299.258 162.732 299.258 161.332C299.258 159.932 298.6 158.98 297.382 158.98C296.346 158.98 295.562 159.736 295.562 161.122ZM306.044 165.154C305.092 165.154 304.392 164.776 303.93 164.23V167.52H302.25V157.65H303.93V158.434C304.392 157.888 305.092 157.51 306.044 157.51C308.102 157.51 309.278 159.246 309.278 161.332C309.278 163.418 308.102 165.154 306.044 165.154ZM303.888 161.122V161.556C303.888 162.914 304.672 163.684 305.708 163.684C306.926 163.684 307.584 162.732 307.584 161.332C307.584 159.932 306.926 158.98 305.708 158.98C304.672 158.98 303.888 159.736 303.888 161.122Z" fill="#20336B"/>
<path d="M15.6459 159.974C15.6459 162.144 16.8219 163.572 18.4739 163.572C19.6499 163.572 20.5039 162.858 20.8119 161.682L22.4919 162.256C21.9039 164.034 20.5039 165.154 18.4739 165.154C15.7999 165.154 13.8539 163.026 13.8539 159.974C13.8539 156.922 15.7999 154.794 18.4739 154.794C20.5039 154.794 21.9039 155.914 22.4919 157.692L20.8119 158.266C20.5039 157.09 19.6499 156.376 18.4739 156.376C16.8219 156.376 15.6459 157.804 15.6459 159.974ZM25.5858 165.126C24.1858 165.126 23.1078 164.272 23.1078 162.956C23.1078 161.556 24.1578 160.94 25.5718 160.646L27.6018 160.226V160.1C27.6018 159.4 27.2378 158.966 26.3418 158.966C25.5438 158.966 25.1238 159.33 24.9278 160.044L23.3458 159.68C23.7098 158.462 24.7878 157.51 26.4118 157.51C28.1758 157.51 29.2398 158.35 29.2398 160.044V163.208C29.2398 163.628 29.4218 163.754 29.8838 163.698V165C28.6658 165.14 28.0218 164.902 27.7698 164.3C27.3078 164.818 26.5378 165.126 25.5858 165.126ZM27.6018 162.41V161.514L26.0198 161.85C25.3058 162.004 24.7738 162.228 24.7738 162.886C24.7738 163.46 25.1938 163.782 25.8378 163.782C26.7338 163.782 27.6018 163.306 27.6018 162.41ZM35.2493 157.636V159.316C35.0393 159.288 34.8713 159.274 34.6333 159.274C33.5693 159.274 32.7573 159.96 32.7573 161.136V165H31.0773V157.65H32.7573V158.742C33.0793 158.056 33.8353 157.608 34.7733 157.608C34.9693 157.608 35.1233 157.622 35.2493 157.636ZM38.9079 165.154C36.8499 165.154 35.6739 163.418 35.6739 161.332C35.6739 159.246 36.8499 157.51 38.9079 157.51C39.8599 157.51 40.5599 157.888 41.0219 158.434V154.948H42.7019V165H41.0219V164.23C40.5599 164.776 39.8599 165.154 38.9079 165.154ZM41.0639 161.122C41.0639 159.736 40.2799 158.98 39.2439 158.98C38.0259 158.98 37.3679 159.932 37.3679 161.332C37.3679 162.732 38.0259 163.684 39.2439 163.684C40.2799 163.684 41.0639 162.914 41.0639 161.556V161.122Z" fill="#20336B"/>
<circle cx="148" cy="114" r="27.5" stroke="#20336B"/>
<path d="M148.504 119.867H137.969V103.867H153.969V114.796" stroke="#20336B" stroke-linecap="square"/>
<path d="M156 118L153.903 121.249C153.808 121.394 153.664 121.485 153.507 121.498C153.35 121.511 153.196 121.445 153.085 121.317L152 120.058" stroke="#00BAF2" stroke-linecap="round" stroke-linejoin="round"/>
<path fill-rule="evenodd" clip-rule="evenodd" d="M149 120C149 117.239 151.239 115 154 115C156.761 115 159 117.239 159 120C159 122.761 156.761 125 154 125C151.239 125 149 122.761 149 120Z" stroke="#20336B" stroke-linecap="round" stroke-linejoin="round"/>
<path d="M141.203 115.887V116.707C141.203 116.937 141.39 117.124 141.62 117.124H142.44" stroke="#20336B" stroke-linecap="round" stroke-linejoin="round"/>
<path d="M142.44 107.207H141.62C141.39 107.207 141.203 107.394 141.203 107.624V108.444" stroke="#20336B" stroke-linecap="round" stroke-linejoin="round"/>
<path d="M150.784 108.444V107.624C150.784 107.394 150.597 107.207 150.367 107.207H149.547" stroke="#20336B" stroke-linecap="round" stroke-linejoin="round"/>
<path fill-rule="evenodd" clip-rule="evenodd" d="M143.281 109.457H145.531V111.707H143.281V109.457Z" stroke="#20336B" stroke-linecap="round" stroke-linejoin="round"/>
<path fill-rule="evenodd" clip-rule="evenodd" d="M147.453 109.457H149.703V111.707H147.453V109.457Z" stroke="#20336B" stroke-linecap="round" stroke-linejoin="round"/>
<path fill-rule="evenodd" clip-rule="evenodd" d="M143.281 113.625H145.531V115.875H143.281V113.625Z" stroke="#20336B" stroke-linecap="round" stroke-linejoin="round"/>
<path d="M147.5 113.5V114" stroke="#20336B" stroke-linecap="square"/>
<path d="M147.5 115.5V116" stroke="#20336B" stroke-linecap="square"/>
<path d="M149.5 115.5V116" stroke="#20336B" stroke-linecap="square"/>
<path d="M149.5 113.5V114" stroke="#20336B" stroke-linecap="square"/>
<path d="M148.5 114.5V115" stroke="#20336B" stroke-linecap="square"/>
<path d="M121.747 159.974C121.747 156.922 123.707 154.794 126.423 154.794C129.139 154.794 131.099 156.922 131.099 159.974C131.099 161.85 130.357 163.376 129.153 164.286C129.559 164.818 130.245 165.224 131.043 165.42L130.007 166.694C129.083 166.428 128.145 165.742 127.725 164.972C127.319 165.098 126.885 165.154 126.423 165.154C123.707 165.154 121.747 163.026 121.747 159.974ZM129.307 159.974C129.307 157.79 128.117 156.376 126.423 156.376C124.729 156.376 123.539 157.79 123.539 159.974C123.539 162.158 124.729 163.572 126.423 163.572C128.117 163.572 129.307 162.158 129.307 159.974ZM134.283 161.108V165H132.491V154.948H136.509C138.749 154.948 140.149 155.998 140.149 158.028C140.149 159.61 139.281 160.618 137.811 160.968L140.401 165H138.357L135.907 161.108H134.283ZM134.283 159.568H136.411C137.699 159.568 138.385 159.008 138.385 158.028C138.385 157.034 137.699 156.488 136.411 156.488H134.283V159.568ZM143.5 163.04L144.872 161.906C145.572 162.998 146.622 163.628 147.77 163.628C148.904 163.628 149.758 163.11 149.758 162.144C149.758 161.122 148.708 160.982 147.21 160.618C145.698 160.254 144.074 159.806 144.074 157.846C144.074 155.984 145.67 154.794 147.7 154.794C149.422 154.794 150.766 155.606 151.438 156.656L150.122 157.79C149.562 156.922 148.82 156.32 147.644 156.32C146.566 156.32 145.824 156.866 145.824 157.664C145.824 158.546 146.594 158.728 147.952 159.036C149.576 159.4 151.522 159.778 151.522 161.962C151.522 163.936 149.786 165.154 147.714 165.154C145.992 165.154 144.284 164.328 143.5 163.04ZM154.065 161.332C154.065 162.83 154.849 163.698 155.997 163.698C156.893 163.698 157.439 163.11 157.649 162.298L159.091 163.026C158.713 164.216 157.593 165.154 155.997 165.154C153.897 165.154 152.385 163.6 152.385 161.332C152.385 159.064 153.897 157.51 155.997 157.51C157.579 157.51 158.671 158.406 159.063 159.582L157.649 160.352C157.439 159.554 156.893 158.952 155.997 158.952C154.849 158.952 154.065 159.834 154.065 161.332ZM162.189 165.126C160.789 165.126 159.711 164.272 159.711 162.956C159.711 161.556 160.761 160.94 162.175 160.646L164.205 160.226V160.1C164.205 159.4 163.841 158.966 162.945 158.966C162.147 158.966 161.727 159.33 161.531 160.044L159.949 159.68C160.313 158.462 161.391 157.51 163.015 157.51C164.779 157.51 165.843 158.35 165.843 160.044V163.208C165.843 163.628 166.025 163.754 166.487 163.698V165C165.269 165.14 164.625 164.902 164.373 164.3C163.911 164.818 163.141 165.126 162.189 165.126ZM164.205 162.41V161.514L162.623 161.85C161.909 162.004 161.377 162.228 161.377 162.886C161.377 163.46 161.797 163.782 162.441 163.782C163.337 163.782 164.205 163.306 164.205 162.41ZM167.681 165V157.65H169.361V158.434C169.781 157.944 170.439 157.51 171.391 157.51C172.931 157.51 173.855 158.574 173.855 160.156V165H172.175V160.646C172.175 159.736 171.811 159.078 170.887 159.078C170.131 159.078 169.361 159.638 169.361 160.688V165H167.681Z" fill="#20336B"/>
<circle cx="391.5" cy="114" r="27.5" stroke="#20336B"/>
<rect x="380" y="102" width="24" height="24" rx="4" fill="#20336B"/>
<rect x="384" y="104" width="16" height="10" rx="2" fill="white"/>
<path d="M390.016 106.44L389.896 107.52L390.988 107.214L391.084 107.952L390.088 108.024L390.742 108.894L390.076 109.248L389.62 108.33L389.218 109.242L388.528 108.894L389.176 108.024L388.186 107.946L388.3 107.214L389.368 107.52L389.248 106.44H390.016ZM394.558 108.528L394.42 109.206H395.176V109.812H394.306L394.078 111H393.436L393.664 109.812H393.094L392.872 111H392.242L392.458 109.812H391.762V109.206H392.572L392.71 108.528H391.972V107.916H392.818L393.046 106.722H393.688L393.46 107.916H394.042L394.27 106.722H394.9L394.672 107.916H395.374V108.528H394.558ZM393.208 109.206H393.784L393.922 108.528H393.346L393.208 109.206Z" fill="#4ABCEB"/>
<path d="M386.088 122.06C385.026 122.06 384.312 121.466 384.312 120.278V117.692H385.2V120.248C385.2 120.974 385.554 121.286 386.088 121.286C386.628 121.286 386.982 120.974 386.982 120.248V117.692H387.864V120.278C387.864 121.466 387.15 122.06 386.088 122.06ZM388.484 121.214L389.09 120.626C389.408 121.076 389.87 121.328 390.344 121.328C390.794 121.328 391.124 121.13 391.124 120.764C391.124 120.368 390.716 120.314 390.068 120.17C389.426 120.02 388.73 119.816 388.73 118.964C388.73 118.142 389.438 117.626 390.332 117.626C391.076 117.626 391.658 117.956 391.958 118.388L391.376 118.958C391.124 118.604 390.788 118.364 390.308 118.364C389.888 118.364 389.6 118.568 389.6 118.88C389.6 119.216 389.912 119.282 390.476 119.408C391.16 119.558 392 119.732 392 120.674C392 121.544 391.232 122.066 390.314 122.066C389.588 122.066 388.832 121.736 388.484 121.214ZM392.465 121.214L393.071 120.626C393.389 121.076 393.851 121.328 394.325 121.328C394.775 121.328 395.105 121.13 395.105 120.764C395.105 120.368 394.697 120.314 394.049 120.17C393.407 120.02 392.711 119.816 392.711 118.964C392.711 118.142 393.419 117.626 394.313 117.626C395.057 117.626 395.639 117.956 395.939 118.388L395.357 118.958C395.105 118.604 394.769 118.364 394.289 118.364C393.869 118.364 393.581 118.568 393.581 118.88C393.581 119.216 393.893 119.282 394.457 119.408C395.141 119.558 395.981 119.732 395.981 120.674C395.981 121.544 395.213 122.066 394.295 122.066C393.569 122.066 392.813 121.736 392.465 121.214ZM396.831 122V117.692H398.313C399.669 117.692 400.497 118.532 400.497 119.846C400.497 121.16 399.669 122 398.313 122H396.831ZM397.695 121.244H398.313C399.147 121.244 399.627 120.692 399.627 119.846C399.627 118.994 399.147 118.448 398.307 118.448H397.695V121.244Z" fill="white"/>
<path d="M378.256 164.14C375.862 164.14 374.21 162.782 374.21 160.01V153.948H376.002V159.954C376.002 161.788 376.912 162.558 378.256 162.558C379.614 162.558 380.524 161.788 380.524 159.954V153.948H382.316V160.01C382.316 162.782 380.664 164.14 378.256 164.14ZM383.049 162.04L384.421 160.906C385.121 161.998 386.171 162.628 387.319 162.628C388.453 162.628 389.307 162.11 389.307 161.144C389.307 160.122 388.257 159.982 386.759 159.618C385.247 159.254 383.623 158.806 383.623 156.846C383.623 154.984 385.219 153.794 387.249 153.794C388.971 153.794 390.315 154.606 390.987 155.656L389.671 156.79C389.111 155.922 388.369 155.32 387.193 155.32C386.115 155.32 385.373 155.866 385.373 156.664C385.373 157.546 386.143 157.728 387.501 158.036C389.125 158.4 391.071 158.778 391.071 160.962C391.071 162.936 389.335 164.154 387.263 164.154C385.541 164.154 383.833 163.328 383.049 162.04ZM391.444 162.04L392.816 160.906C393.516 161.998 394.566 162.628 395.714 162.628C396.848 162.628 397.702 162.11 397.702 161.144C397.702 160.122 396.652 159.982 395.154 159.618C393.642 159.254 392.018 158.806 392.018 156.846C392.018 154.984 393.614 153.794 395.644 153.794C397.366 153.794 398.71 154.606 399.382 155.656L398.066 156.79C397.506 155.922 396.764 155.32 395.588 155.32C394.51 155.32 393.768 155.866 393.768 156.664C393.768 157.546 394.538 157.728 395.896 158.036C397.52 158.4 399.466 158.778 399.466 160.962C399.466 162.936 397.73 164.154 395.658 164.154C393.936 164.154 392.228 163.328 391.444 162.04ZM400.723 164V153.948H404.083C407.205 153.948 409.137 155.908 409.137 158.974C409.137 162.04 407.205 164 404.083 164H400.723ZM402.473 162.46H404.083C406.155 162.46 407.373 161.088 407.373 158.974C407.373 156.846 406.155 155.488 404.069 155.488H402.473V162.46Z" fill="#20336B"/>
<circle cx="28" cy="114" r="27.5" stroke="#20336B"/>
<path d="M38.7932 105C39.4598 105 40 105.54 40 106.207V120.489C40 121.155 39.4598 121.696 38.7932 121.696H17.2068C16.5402 121.696 16 121.155 16 120.489V106.207C16 105.54 16.5402 105 17.2068 105H38.7932Z" stroke="#20336B" stroke-linecap="round" stroke-linejoin="round"/>
<path d="M16 108.043H40" stroke="#20336B" stroke-linecap="round" stroke-linejoin="round"/>
<path d="M16 111.223H40" stroke="#20336B" stroke-linecap="round" stroke-linejoin="round"/>
<path d="M37.1617 117.105H34.0312" stroke="#00BAF2" stroke-linecap="round" stroke-linejoin="round"/>
<path d="M32.6304 117.105H29.5" stroke="#00BAF2" stroke-linecap="round" stroke-linejoin="round"/>
<path d="M28.107 117.105H24.9766" stroke="#00BAF2" stroke-linecap="round" stroke-linejoin="round"/>
<circle cx="19.322" cy="116.877" r="1.34702" stroke="#20336B" stroke-width="0.7"/>
<circle cx="21.0173" cy="116.877" r="1.34702" stroke="#20336B" stroke-width="0.7"/>
</svg>
