<svg width="24" height="24" viewBox="0 0 24 24" fill="none" xmlns="http://www.w3.org/2000/svg">
<path d="M12.5045 17.8672H1.96875V1.86719H17.9688V12.7963" stroke="white" stroke-linecap="square"/>
<path d="M20 16L17.9027 19.2486C17.8082 19.3943 17.6639 19.4854 17.5071 19.4984C17.3503 19.5114 17.1963 19.4451 17.0848 19.3165L16 18.0584" stroke="#00BAF2" stroke-linecap="round" stroke-linejoin="round"/>
<path fill-rule="evenodd" clip-rule="evenodd" d="M13 18C13 15.2386 15.2386 13 18 13C20.7614 13 23 15.2386 23 18C23 20.7614 20.7614 23 18 23C15.2386 23 13 20.7614 13 18Z" stroke="white" stroke-linecap="round" stroke-linejoin="round"/>
<path d="M5.20312 13.8867V14.7071C5.20312 14.9372 5.38967 15.1238 5.61979 15.1238H6.44021" stroke="white" stroke-linecap="round" stroke-linejoin="round"/>
<path d="M6.44021 5.20703H5.61979C5.38967 5.20703 5.20312 5.39358 5.20312 5.6237V6.44412" stroke="white" stroke-linecap="round" stroke-linejoin="round"/>
<path d="M14.784 6.44412V5.6237C14.784 5.39358 14.5974 5.20703 14.3673 5.20703H13.5469" stroke="white" stroke-linecap="round" stroke-linejoin="round"/>
<path fill-rule="evenodd" clip-rule="evenodd" d="M7.28125 7.45703H9.53125V9.70703H7.28125V7.45703Z" stroke="white" stroke-linecap="round" stroke-linejoin="round"/>
<path fill-rule="evenodd" clip-rule="evenodd" d="M11.4531 7.45703H13.7031V9.70703H11.4531V7.45703Z" stroke="white" stroke-linecap="round" stroke-linejoin="round"/>
<path fill-rule="evenodd" clip-rule="evenodd" d="M7.28125 11.623H9.53125V13.873H7.28125V11.623Z" stroke="white" stroke-linecap="round" stroke-linejoin="round"/>
<path d="M11.5 11.498V11.998" stroke="white" stroke-linecap="square"/>
<path d="M11.5 13.498V13.998" stroke="white" stroke-linecap="square"/>
<path d="M13.5 13.498V13.998" stroke="white" stroke-linecap="square"/>
<path d="M13.5 11.498V11.998" stroke="white" stroke-linecap="square"/>
<path d="M12.5 12.498V12.998" stroke="white" stroke-linecap="square"/>
</svg>
