<svg width="40" height="39" viewBox="0 0 40 39" fill="none" xmlns="http://www.w3.org/2000/svg">
<path d="M1 14.7158V11.3858C1 8.5594 3.29126 6.26814 6.11763 6.26814H23.4775M6.9013 4.63477V7.59663M16.853 4.63477V7.59663" stroke="white" stroke-miterlimit="10" stroke-linecap="round" stroke-linejoin="round"/>
<path d="M31.2726 17.406C35.8026 17.406 39.4748 13.7334 39.4748 9.203C39.4748 4.67261 35.8026 1 31.2726 1C26.7426 1 23.0703 4.67261 23.0703 9.203C23.0703 13.7334 26.7426 17.406 31.2726 17.406Z" stroke="white" stroke-miterlimit="10" stroke-linecap="round" stroke-linejoin="round"/>
<path d="M24.8443 14.4746H1V33.0132C1 35.6581 3.29126 37.8022 6.11763 37.8022H27.5884C30.3954 37.8022 32.6746 35.6874 32.7057 33.0676M32.7061 25.439V17.219" stroke="white" stroke-miterlimit="10" stroke-linecap="round" stroke-linejoin="round"/>
<path d="M31.2734 7.19922V11.1376H34.5281" stroke="#24BAF2" stroke-miterlimit="10" stroke-linecap="round" stroke-linejoin="round"/>
<circle cx="9.01733" cy="22.6443" r="1.60327" fill="#24BAF2"/>
<circle cx="9.01733" cy="30.6599" r="1.60327" fill="#24BAF2"/>
<circle cx="17.033" cy="30.6599" r="1.60327" fill="#24BAF2"/>
<circle cx="25.0486" cy="30.6599" r="1.60327" fill="#24BAF2"/>
<circle cx="17.033" cy="22.6443" r="1.60327" fill="#24BAF2"/>
<circle cx="25.0486" cy="22.6443" r="1.60327" fill="#24BAF2"/>
</svg>
