<svg width="48" height="40" viewBox="0 0 48 40" fill="none" xmlns="http://www.w3.org/2000/svg">
<mask id="mask0_875_149" style="mask-type:luminance" maskUnits="userSpaceOnUse" x="0" y="0" width="48" height="40">
<path d="M0 0.900024H48V39.1857H0V0.900024Z" fill="white"/>
</mask>
<g mask="url(#mask0_875_149)">
<path d="M40.8747 36.5219L40.8747 36.5218L40.8729 36.5273C40.501 37.6437 39.4436 38.4493 38.198 38.4493H3.32457C1.76491 38.4493 0.5 37.1857 0.5 35.6269V16.796C0.5 15.5528 1.30473 14.495 2.42269 14.1209L2.4227 14.1209L2.4265 14.1196C2.70826 14.0228 3.00832 13.9715 3.32457 13.9715L38.198 13.9715L38.1982 13.9715C39.7579 13.9708 41.0226 15.2359 41.0226 16.7953V35.6262C41.0226 35.9414 40.9711 36.2433 40.8747 36.5219Z" fill="white" stroke="#BF9BFF"/>
<path d="M10.6097 26.5804H3.99002C3.66154 26.5804 3.39566 26.3145 3.39566 25.986V20.2148C3.39566 19.8863 3.66154 19.6204 3.99002 19.6204H10.6097C10.9382 19.6204 11.2041 19.8863 11.2041 20.2148V25.986C11.2041 26.3145 10.9382 26.5804 10.6097 26.5804Z" fill="#FF5900"/>
<path d="M6.87931 32.9H3.97776C3.67448 32.9 3.42853 32.5162 3.42853 32.0429C3.42853 31.5696 3.67448 31.1857 3.97776 31.1857H6.87931C7.18256 31.1857 7.42851 31.5696 7.42851 32.0429C7.42815 32.5162 7.18256 32.9 6.87931 32.9Z" fill="#FF5900"/>
<path d="M12.0222 32.9H9.12068C8.81743 32.9 8.57147 32.5162 8.57147 32.0429C8.57147 31.5696 8.81743 31.1857 9.12068 31.1857H12.0222C12.3256 31.1857 12.5715 31.5696 12.5715 32.0429C12.5715 32.5162 12.3256 32.9 12.0222 32.9Z" fill="#FF5900"/>
<path d="M17.7365 32.9H14.835C14.5317 32.9 14.2858 32.5162 14.2858 32.0429C14.2858 31.5696 14.5317 31.1857 14.835 31.1857H17.7365C18.0398 31.1857 18.2857 31.5696 18.2857 32.0429C18.2857 32.5162 18.0398 32.9 17.7365 32.9Z" fill="#FF5900"/>
<path d="M22.8793 32.9H19.9778C19.6745 32.9 19.4286 32.5162 19.4286 32.0429C19.4286 31.5696 19.6745 31.1857 19.9778 31.1857H22.8793C23.1827 31.1857 23.4286 31.5696 23.4286 32.0429C23.4282 32.5162 23.1827 32.9 22.8793 32.9Z" fill="#FF5900"/>
<path fill-rule="evenodd" clip-rule="evenodd" d="M9.85921 21.5658H11.2048V21.3566H9.85921C9.62206 21.3566 9.42836 21.5503 9.42836 21.7889V22.9953H8.59833V22.2404C8.59833 21.9995 8.40244 21.8044 8.16232 21.8044H7.40513V19.62H7.196V21.8044H6.45801C6.21795 21.8044 6.02202 22.0003 6.02202 22.2404V22.9953H5.17211V21.7889C5.17211 21.5503 4.97915 21.3566 4.74126 21.3566H3.39566V21.5658H4.74126C4.86351 21.5658 4.96295 21.666 4.96295 21.7897V24.4124C4.96295 24.5361 4.86351 24.6362 4.74126 24.6362H3.39566V24.8455H4.74126C4.97841 24.8455 5.17211 24.6517 5.17211 24.4131V23.2059H6.02202V23.9609C6.02202 24.2017 6.21795 24.3976 6.45801 24.3976H7.196V26.5821H7.40513V24.3976H8.16232C8.40244 24.3976 8.59833 24.2017 8.59833 23.9609V23.2059H9.42836V24.4131C9.42836 24.6517 9.62133 24.8455 9.85921 24.8455H11.2048V24.6362H9.85921C9.73696 24.6362 9.6375 24.5361 9.6375 24.4124V21.7897C9.6375 21.6667 9.73696 21.5658 9.85921 21.5658ZM8.38919 23.9601C8.38919 24.0853 8.28754 24.1877 8.16159 24.1877H6.45734C6.33212 24.1877 6.22974 24.0853 6.22974 23.9601V22.2419C6.22974 22.1167 6.33139 22.0143 6.45734 22.0143H8.16159C8.28675 22.0143 8.38919 22.1167 8.38919 22.2419V23.9601Z" fill="white" stroke="white" stroke-width="0.1"/>
<path d="M31.7857 28.7572C32.176 28.7572 32.5466 28.8393 32.8815 28.9873C32.2895 29.645 31.9286 30.5161 31.9286 31.4714C31.9286 32.4267 32.2895 33.2979 32.8815 33.9556C32.5466 34.1036 32.176 34.1857 31.7857 34.1857C30.2867 34.1857 29.0714 32.9705 29.0714 31.4714C29.0714 29.9724 30.2867 28.7572 31.7857 28.7572Z" stroke="#BF9BFF"/>
<path d="M35.5 31.4714C35.5 30.5161 35.139 29.645 34.547 28.9873C34.882 28.8393 35.2525 28.7572 35.6428 28.7572C37.1419 28.7572 38.3571 29.9724 38.3571 31.4714C38.3571 32.9705 37.1419 34.1857 35.6428 34.1857C35.2525 34.1857 34.882 34.1036 34.547 33.9556C35.139 33.2979 35.5 32.4267 35.5 31.4714Z" stroke="#BF9BFF"/>
<path fill-rule="evenodd" clip-rule="evenodd" d="M33.7143 34.0431C34.495 33.4567 35 32.523 35 31.4714C35 30.4198 34.495 29.4862 33.7143 28.8998C32.9335 29.4862 32.4286 30.4198 32.4286 31.4714C32.4286 32.523 32.9335 33.4567 33.7143 34.0431Z" fill="#FF5900"/>
<path fill-rule="evenodd" clip-rule="evenodd" d="M36.6439 3.45339C37.725 3.95033 38.3666 5.01189 38.3798 6.12704C39.2347 5.4109 40.4582 5.20671 41.5393 5.70365L45.2107 7.39133L45.4703 7.51072L45.351 7.77028L44.7884 8.99416C44.4137 9.80925 43.8144 10.4415 43.1029 10.8697L44.7468 11.6254C45.5657 12.0019 45.9248 12.9718 45.5484 13.7908L44.4233 16.2385L44.3039 16.498L44.0443 16.3786L26.9107 8.50274L26.6511 8.38341L26.7704 8.12378L27.8955 5.67615C28.272 4.85722 29.2419 4.49817 30.0609 4.87461L31.7049 5.6303C31.5666 4.81147 31.6562 3.94489 32.0309 3.12979L32.5935 1.90595L32.7128 1.64635L32.9724 1.76568L36.6439 3.45339ZM38.8873 8.93194L39.8515 9.37518C40.9702 9.88939 42.2834 9.47088 42.9107 8.44544L40.738 7.44674C40.207 7.20261 39.5746 7.43671 39.3305 7.96769L38.8873 8.93194ZM34.9562 7.1249L35.9205 7.56814L36.3636 6.60389C36.6078 6.07294 36.3736 5.4405 35.8427 5.19643L33.6699 4.19767C33.3001 5.34146 33.8375 6.61065 34.9562 7.1249Z" fill="url(#paint0_linear_875_149)" stroke="#FF5900"/>
<path d="M31.3832 23.0597L31.1236 22.9403L31.2429 22.6808L35.8135 12.7377L35.9329 12.4781L36.1925 12.5974L44.1483 16.2546L44.408 16.3738L44.2886 16.6335L41.0239 23.7357C40.2241 25.4755 38.0299 26.115 36.1568 25.2539L31.3832 23.0597Z" fill="url(#paint1_linear_875_149)" stroke="#FF5900"/>
<path d="M31.1332 22.6301L31.0138 22.8897L30.7543 22.7703L25.6784 20.4371C23.7098 19.5322 22.654 17.4155 23.4602 15.6618L26.7249 8.55967L26.8442 8.30005L27.1038 8.41938L35.5635 12.3081L35.8231 12.4274L35.7037 12.6871L31.1332 22.6301Z" fill="url(#paint2_linear_875_149)" stroke="#FF5900"/>
</g>
<defs>
<linearGradient id="paint0_linear_875_149" x1="38.9722" y1="4.83811" x2="34.9361" y2="19.0037" gradientUnits="userSpaceOnUse">
<stop stop-color="#CDE1FF"/>
<stop offset="0.473958" stop-color="#BF9BFF"/>
<stop offset="1" stop-color="#6E1DFF"/>
</linearGradient>
<linearGradient id="paint1_linear_875_149" x1="40.0511" y1="14.6855" x2="31.3598" y2="32.9206" gradientUnits="userSpaceOnUse">
<stop stop-color="#CDE1FF"/>
<stop offset="0.473958" stop-color="#BF9BFF"/>
<stop offset="1" stop-color="#6E1DFF"/>
</linearGradient>
<linearGradient id="paint2_linear_875_149" x1="31.2143" y1="10.6233" x2="20.3369" y2="27.4669" gradientUnits="userSpaceOnUse">
<stop stop-color="#CDE1FF"/>
<stop offset="0.473958" stop-color="#BF9BFF"/>
<stop offset="1" stop-color="#6E1DFF"/>
</linearGradient>
</defs>
</svg>
