<svg width="475" height="251" viewBox="0 0 475 251" fill="none" xmlns="http://www.w3.org/2000/svg">
<path d="M5 58.7209H124M124 58.7209L173 50.7209H200C203 50.5542 208.9 48.1209 208.5 39.7209C208.1 31.3209 208.333 20.5542 208.5 16.2209C209.167 13.0542 212.2 6.62086 219 6.22086C225.8 5.82086 373.5 6.05419 446.5 6.22086C453 6.22081 465.8 9.8207 465 24.2207C464.2 38.6207 464.667 94.8874 465 121.221M124 58.7209L173 73.7207H200C202.833 73.554 208.5 75.5207 208.5 84.7207C208.5 93.9207 208.5 99.2207 208.5 100.721C208.167 104.887 209.8 113.121 219 112.721C228.2 112.321 318.167 112.554 362 112.721C365.667 112.887 372.9 116.621 372.5 130.221C372.1 143.821 372.333 199.221 372.5 225.221C372.5 232.221 381.1 245.121 395.5 244.721C409.9 244.321 437.5 244.554 449.5 244.721C459 244.853 465 242.221 465 236.221C465 230.221 465 221.054 465 217.221" stroke="url(#paint0_linear_1163_29)" stroke-width="1.5"/>
<defs>
<linearGradient id="paint0_linear_1163_29" x1="235.018" y1="6" x2="235.018" y2="87.285" gradientUnits="userSpaceOnUse">
<stop stop-color="#9B66FF"/>
<stop offset="1" stop-color="#13ECE2"/>
</linearGradient>
</defs>
</svg>
