<svg width="46" height="38" viewBox="0 0 46 38" fill="none" xmlns="http://www.w3.org/2000/svg">
<path fill-rule="evenodd" clip-rule="evenodd" d="M21.7269 25.9458H0H4.02352L4.14732 1H21.4794L21.7269 26.7505V25.9458Z" stroke="#C8D0DB" stroke-linecap="square"/>
<path fill-rule="evenodd" clip-rule="evenodd" d="M7.10938 7.60156H9.74012V10.2323H7.10938V7.60156Z" stroke="#C8D0DB" stroke-linecap="round" stroke-linejoin="round"/>
<path fill-rule="evenodd" clip-rule="evenodd" d="M15.875 7.60156H18.5058V10.2323H15.875V7.60156Z" stroke="#C8D0DB" stroke-linecap="round" stroke-linejoin="round"/>
<path fill-rule="evenodd" clip-rule="evenodd" d="M7.10938 16.3711H9.74012V19.0019H7.10938V16.3711Z" stroke="#C8D0DB" stroke-linecap="round" stroke-linejoin="round"/>
<path d="M15.875 16.3711V19.0019H18.5058V16.3711H17.6288" stroke="#C8D0DB" stroke-linecap="round" stroke-linejoin="round"/>
<path d="M11.4922 9.79386V7.60156H14.123" stroke="#C8D0DB" stroke-linecap="round" stroke-linejoin="round"/>
<path d="M14.125 9.35547V12.4247" stroke="#C8D0DB" stroke-linecap="round" stroke-linejoin="round"/>
<path d="M7.10938 14.6142H11.494V12.4219" stroke="#C8D0DB" stroke-linecap="round" stroke-linejoin="round"/>
<path d="M11.4922 16.3711V19.0019H14.123" stroke="#C8D0DB" stroke-linecap="round" stroke-linejoin="round"/>
<path d="M13.25 16.3711H14.1269" stroke="#C8D0DB" stroke-linecap="round" stroke-linejoin="round"/>
<path d="M7.10938 11.9844H9.74012" stroke="#C8D0DB" stroke-linecap="round" stroke-linejoin="round"/>
<path d="M18.5058 11.9844H15.875V12.8613" stroke="#C8D0DB" stroke-linecap="round" stroke-linejoin="round"/>
<path d="M13.25 14.6172H18.5115" stroke="#C8D0DB" stroke-linecap="round" stroke-linejoin="round"/>
<path d="M45.1335 37.0015L41.8174 32.3589V26.3901C41.8732 24.0316 39.0571 21.9292 36.5117 19.7578" stroke="#C8D0DB" stroke-linecap="round" stroke-linejoin="round"/>
<path d="M36.9156 29.0428L33.3475 25.3713C32.5392 24.8241 31.4791 24.8241 30.6708 25.3713C30.4064 25.6349 30.2578 25.9928 30.2578 26.3662C30.2578 26.7395 30.4064 27.0974 30.6708 27.3609L34.9008 31.6958V33.6854C34.9008 34.9602 36.9714 37.0015 36.9714 37.0015" stroke="#C8D0DB" stroke-linecap="round" stroke-linejoin="round"/>
<path d="M31.7721 30.368H22.357C21.9571 30.368 21.6328 30.0711 21.6328 29.7047V7.1554C21.6328 6.78912 21.9571 6.49219 22.357 6.49219H35.3932C35.7932 6.49219 36.1175 6.78912 36.1175 7.1554V23.7358" stroke="#C8D0DB" stroke-linecap="round" stroke-linejoin="round"/>
<path fill-rule="evenodd" clip-rule="evenodd" d="M24.8633 13.8359H26.6515V15.6242H24.8633V13.8359Z" stroke="#C8D0DB" stroke-linecap="round" stroke-linejoin="round"/>
<path fill-rule="evenodd" clip-rule="evenodd" d="M24.8633 20.0938H26.6515V21.882H24.8633V20.0938Z" stroke="#C8D0DB" stroke-linecap="round" stroke-linejoin="round"/>
<path fill-rule="evenodd" clip-rule="evenodd" d="M31.1211 13.8359H32.9093V15.6242H31.1211V13.8359Z" stroke="#C8D0DB" stroke-linecap="round" stroke-linejoin="round"/>
<path d="M24.8633 18.3086H28.4397V19.2027" stroke="#C8D0DB" stroke-linecap="round" stroke-linejoin="round"/>
<path d="M30.2227 19.2031V21.8855H32.905V19.2031H32.0109" stroke="#C8D0DB" stroke-linecap="round" stroke-linejoin="round"/>
<path d="M28.4453 20.9883V21.8824" stroke="#C8D0DB" stroke-linecap="round" stroke-linejoin="round"/>
<path d="M28.4453 13.8359V16.5183H29.3394" stroke="#C8D0DB" stroke-linecap="round" stroke-linejoin="round"/>
<path d="M31.1211 17.4141H32.9093" stroke="#C8D0DB" stroke-linecap="round" stroke-linejoin="round"/>
</svg>
