<svg width="38" height="22" viewBox="0 0 38 22" fill="none" xmlns="http://www.w3.org/2000/svg">
<path d="M1.14326 12.7906L1.17665 12.6075C1.25719 12.1657 1.9347 11.9678 2.32431 12.1911C3.03163 12.5964 4.02774 12.9394 5.26271 13.3889C5.53765 13.489 5.66701 13.8036 5.54281 14.0685L5.38778 14.3992C5.15915 14.8869 4.58537 15.1058 4.08997 14.8945L1.73466 13.8898C1.305 13.7065 1.05948 13.2501 1.14326 12.7906Z" fill="black" stroke="black" stroke-linecap="square"/>
<path d="M36.8567 12.7906L36.8234 12.6075C36.7428 12.1657 36.0653 11.9678 35.6757 12.1911C34.9684 12.5964 33.9723 12.9394 32.7373 13.3889C32.4623 13.489 32.333 13.8036 32.4572 14.0685L32.6122 14.3992C32.8409 14.8869 33.4146 15.1058 33.91 14.8945L36.2653 13.8898C36.695 13.7065 36.9405 13.2501 36.8567 12.7906Z" fill="black" stroke="black" stroke-linecap="square"/>
<path d="M19.1057 21.9999C18.3933 21.9999 17.4732 21.5191 17.0463 21.1768C16.5288 20.7625 13.9322 18.3825 11.7718 16.1779C11.4121 15.8102 10.8773 15.1286 10.3598 14.4696C9.97575 13.9817 9.62768 13.5334 9.44784 13.3482C9.38964 13.2882 9.3417 13.2148 9.30676 13.1322C9.27182 13.0497 9.25057 12.9595 9.24421 12.867C9.23137 12.68 9.28 12.4945 9.37939 12.3512C9.47878 12.2079 9.6208 12.1186 9.7742 12.103C9.9276 12.0874 10.0798 12.1466 10.1974 12.2678C10.3946 12.4714 10.7786 12.9564 11.1986 13.491C11.672 14.0934 12.2081 14.775 12.5178 15.0932C14.7235 17.3445 17.2771 19.6665 17.6844 19.9932C18.0243 20.2676 18.7193 20.5857 19.1057 20.5857C19.6487 20.5857 19.6986 20.416 19.7206 20.3453C19.753 20.2358 19.8071 20.1378 19.8781 20.0599C19.9491 19.982 20.0348 19.9267 20.1275 19.8988C20.2203 19.871 20.3173 19.8715 20.4098 19.9003C20.5024 19.9291 20.5876 19.9853 20.6581 20.0639C20.889 20.3213 21.1465 20.2718 21.3241 20.1898C21.5073 20.1004 21.6674 19.9528 21.7879 19.7622C21.9083 19.5717 21.9845 19.3453 22.0086 19.1065C22.0187 18.975 22.0588 18.8494 22.1245 18.7442C22.1901 18.6391 22.2787 18.5584 22.38 18.5114C22.4814 18.4644 22.5915 18.453 22.6979 18.4785C22.8043 18.504 22.9028 18.5653 22.982 18.6554C23.1271 18.8195 23.5146 18.8591 23.8859 18.63C24.0321 18.5409 24.3697 18.2835 24.3302 17.8338C24.3184 17.6992 24.3385 17.5633 24.3881 17.4423C24.4377 17.3212 24.5148 17.22 24.6103 17.1508C24.7057 17.0815 24.8154 17.0471 24.9264 17.0516C25.0374 17.0562 25.145 17.0994 25.2364 17.1762C25.4069 17.3219 25.7214 17.2455 25.9511 17.0051C26.0796 16.8828 26.1678 16.7082 26.1995 16.5133C26.2312 16.3183 26.2044 16.116 26.124 15.9431C25.6889 14.8401 23.7548 12.9338 22.0492 11.2524C21.1059 10.3233 20.2102 9.43948 19.5466 8.68008C19.4101 8.74759 19.2747 8.81831 19.1405 8.8922C18.8388 9.05766 18.6381 9.15948 18.2691 9.22877C17.3758 10.674 16.1761 11.1803 14.8615 10.6514C14.3371 10.4407 13.9844 9.98816 13.8649 9.37726C13.5864 7.9419 14.6643 5.98473 15.4579 5.01746C17.5428 2.47483 19.0024 1.52029 21.6628 2.96978C23.9462 4.21564 26.2342 5.18998 26.2574 5.19988C26.3953 5.26843 26.5063 5.39885 26.5676 5.56426C26.6289 5.72967 26.6358 5.91744 26.5868 6.08884C26.5379 6.26025 26.4368 6.40222 26.3045 6.48546C26.1722 6.56871 26.0187 6.58689 25.8757 6.53624C25.8525 6.52635 23.5181 5.5322 21.1883 4.26231C19.1347 3.14372 18.1624 3.71928 16.277 6.01867C15.4846 6.98453 14.8731 8.42978 14.9949 9.05059C15.0124 9.14109 15.0448 9.23584 15.2258 9.30938C15.7932 9.5413 16.6425 9.66857 17.4628 8.17382C17.5104 8.08723 17.5732 8.01456 17.6467 7.96102C17.7201 7.90747 17.8023 7.87439 17.8874 7.86412C18.2784 7.81604 18.3759 7.76231 18.6659 7.60392C18.8562 7.50069 19.0976 7.36776 19.4886 7.19524C19.5922 7.14978 19.7042 7.1412 19.8117 7.1705C19.9191 7.1998 20.0175 7.26577 20.0954 7.36069C20.73 8.13422 21.7255 9.11564 22.779 10.1536C24.6679 12.016 26.6229 13.9435 27.1693 15.3322C27.5545 16.3065 27.3712 17.387 26.7052 18.0813C26.3397 18.4768 25.8629 18.685 25.3745 18.6625C25.2074 19.173 24.8709 19.61 24.4057 19.8956C23.93 20.187 23.4067 20.2704 22.9496 20.1516C22.6991 20.7715 22.2687 21.2558 21.7417 21.5106C21.2951 21.7227 20.831 21.7213 20.4226 21.5276C20.1174 21.8401 19.6777 21.9999 19.1057 21.9999Z" fill="black"/>
<path d="M16.7856 5.03084H11.5645C11.4106 5.03084 11.2631 4.95635 11.1543 4.82374C11.0455 4.69114 10.9844 4.5113 10.9844 4.32377C10.9844 4.13624 11.0455 3.9564 11.1543 3.8238C11.2631 3.69119 11.4106 3.6167 11.5645 3.6167H16.7856C16.9394 3.6167 17.087 3.69119 17.1958 3.8238C17.3046 3.9564 17.3657 4.13624 17.3657 4.32377C17.3657 4.5113 17.3046 4.69114 17.1958 4.82374C17.087 4.95635 16.9394 5.03084 16.7856 5.03084ZM26.6929 16.3185C26.5684 16.3189 26.4472 16.2704 26.3471 16.1804C26.247 16.0903 26.1732 15.9634 26.1368 15.8183C26.1004 15.6733 26.1032 15.5179 26.1449 15.3749C26.1865 15.232 26.2647 15.1092 26.368 15.0246L28.0643 13.6359C28.192 13.5313 28.3485 13.4927 28.4995 13.5288C28.6506 13.5649 28.7836 13.6726 28.8695 13.8282C28.9553 13.9839 28.9869 14.1747 28.9573 14.3588C28.9277 14.5428 28.8394 14.705 28.7117 14.8096L27.0154 16.1983C26.9202 16.2767 26.8078 16.3186 26.6929 16.3185ZM24.9073 18.4652C24.7772 18.4654 24.6509 18.4121 24.5487 18.3139C23.9373 17.7256 21.307 14.384 21.0088 14.005C20.9561 13.9379 20.9148 13.8589 20.8871 13.7724C20.8594 13.6858 20.846 13.5935 20.8477 13.5007C20.8493 13.4079 20.8659 13.3163 20.8965 13.2313C20.9272 13.1463 20.9712 13.0694 21.0263 13.0052C21.0813 12.9409 21.1461 12.8905 21.2171 12.8568C21.2881 12.8231 21.3638 12.8068 21.44 12.8087C21.5162 12.8107 21.5913 12.8309 21.661 12.8683C21.7308 12.9056 21.7938 12.9594 21.8465 13.0264C22.9952 14.4858 24.8527 16.8036 25.2681 17.2024C25.363 17.2934 25.4323 17.4183 25.4662 17.5596C25.5002 17.7009 25.497 17.8516 25.4573 17.9907C25.4176 18.1297 25.3432 18.2502 25.2446 18.3352C25.146 18.4203 25.0281 18.4657 24.9073 18.4652ZM22.5868 19.8793C22.4553 19.8792 22.3277 19.8249 22.2248 19.7252C21.3639 18.8852 19.2801 16.1432 19.2592 16.1163C19.155 15.9781 19.1002 15.7951 19.1067 15.6076C19.1132 15.4201 19.1806 15.2435 19.294 15.1165C19.4074 14.9895 19.5575 14.9227 19.7114 14.9306C19.8652 14.9386 20.0101 15.0207 20.1143 15.1589C20.5088 15.6822 22.2549 17.9434 22.9499 18.6207C23.043 18.7128 23.1104 18.8376 23.143 18.9782C23.1756 19.1187 23.1717 19.2681 23.132 19.4059C23.0922 19.5437 23.0185 19.6631 22.9209 19.7479C22.8233 19.8326 22.7066 19.8785 22.5868 19.8793ZM20.2663 21.2935C20.1295 21.2934 19.9971 21.2343 19.8927 21.1266C19.0376 20.247 17.4179 18.1541 16.9422 17.5333C16.8371 17.3962 16.781 17.2138 16.7862 17.0263C16.7915 16.8388 16.8576 16.6615 16.9701 16.5335C17.0825 16.4054 17.2321 16.337 17.386 16.3434C17.5398 16.3497 17.6853 16.4303 17.7903 16.5674C18.121 16.9987 19.8138 19.1949 20.6411 20.0448C20.7324 20.1382 20.7979 20.2636 20.8286 20.404C20.8594 20.5443 20.8539 20.6929 20.8129 20.8293C20.772 20.9658 20.6975 21.0835 20.5997 21.1666C20.5019 21.2496 20.3855 21.2939 20.2663 21.2935Z" fill="black"/>
<path d="M7.17969 14.5458L10.7599 2.66699C11.591 3.24587 11.9576 4.29225 11.6694 5.26327L9.24411 13.436C8.98331 14.3148 8.05659 14.813 7.17969 14.5458Z" fill="black" stroke="black" stroke-linecap="square"/>
<path d="M30.7734 15.2658L26.8595 3.54446C26.0452 4.15787 25.7085 5.21933 26.024 6.17787L28.6787 14.2427C28.9643 15.1105 29.9045 15.5697 30.7734 15.2658Z" fill="black" stroke="black" stroke-linecap="square"/>
<path d="M7.95393 1.5785L9.01102 2.10558C9.09908 2.14949 9.14212 2.25092 9.11251 2.34475L6.24775 11.4231C6.21186 11.5368 6.08502 11.5941 5.97598 11.5457L3.42801 10.4164C2.50195 10.006 2.02896 8.96802 2.32684 7.99986L3.74791 3.38106C4.29266 1.61048 6.29609 0.751873 7.95393 1.5785Z" fill="black" stroke="black" stroke-linecap="square"/>
<path d="M29.8664 1.82117L28.8093 2.34826C28.7212 2.39216 28.6782 2.49359 28.7078 2.58743L31.5726 11.6658C31.6085 11.7795 31.7353 11.8367 31.8443 11.7884L34.3923 10.6591C35.3184 10.2487 35.7913 9.21069 35.4935 8.24253L34.0724 3.62374C33.5276 1.85315 31.5242 0.994549 29.8664 1.82117Z" fill="black" stroke="black" stroke-linecap="square"/>
</svg>
