<svg width="42" height="37" viewBox="0 0 42 37" fill="none" xmlns="http://www.w3.org/2000/svg">
<path d="M24.5916 22.3271C24.5394 22.3271 24.4876 22.3179 24.4379 22.2994C20.949 20.9827 18.3074 18.6143 16.5853 15.2606C16.0692 14.2491 15.8001 13.1297 15.8 11.9941V3.78526C15.8 3.54526 15.9945 3.35074 16.2349 3.35074C19.1183 3.35074 21.9288 2.56 24.3638 1.06442C24.5032 0.978526 24.6796 0.978526 24.8194 1.06442C27.2543 2.56 30.0648 3.35074 32.9482 3.35074C33.1886 3.35074 33.3831 3.54526 33.3831 3.78526V11.9937C33.3831 13.1291 33.114 14.2484 32.5979 15.2598C30.8758 18.6139 28.2341 20.9819 24.7453 22.2989C24.6961 22.3174 24.6441 22.3272 24.5916 22.3271ZM16.6695 4.21516V11.9941C16.6695 12.992 16.9082 13.984 17.3592 14.864C18.9537 17.9701 21.3869 20.1777 24.5916 21.4269C27.7962 20.1777 30.2295 17.9701 31.824 14.8636C32.2773 13.975 32.5136 12.9916 32.5137 11.9941V4.21473C29.7225 4.14476 26.9956 3.36269 24.5916 1.94274C22.1876 3.36284 19.4607 4.14506 16.6695 4.21516Z" fill="#3FAFE9" stroke="#3FAFE9" stroke-width="0.6"/>
<path d="M23.2682 14.7173C23.1528 14.7173 23.0421 14.671 22.9608 14.5898L20.3705 11.9999L20.9853 11.3851L23.2682 13.6677L28.1975 8.73755L28.8122 9.35228L23.5756 14.5902C23.5352 14.6305 23.4873 14.6625 23.4345 14.6843C23.3818 14.7062 23.3253 14.7174 23.2682 14.7173Z" fill="#3FAFE9" stroke="#3FAFE9" stroke-width="0.6"/>
<path d="M40.8917 26.1249C40.5663 25.1561 39.4232 24.3143 37.1917 24.8581L29.2696 26.7852C28.9547 26.4574 28.5121 26.1819 27.9217 26.0084L17.9503 23.0804C16.0771 22.5293 14.3186 22.4755 12.4164 22.9109L9.84027 23.4989V22.596C9.84027 21.8072 9.19844 21.1661 8.41041 21.1661H2.43228C1.64264 21.1661 1 21.808 1 22.596V34.0639C1 34.8527 1.64264 35.4937 2.43228 35.4937H8.41121C9.20005 35.4937 9.84107 34.8519 9.84107 34.0639V33.2132L18.303 35.6688C19.3577 35.9757 20.3908 36.1291 21.4126 36.1291C22.8625 36.1291 24.2892 35.8199 25.7214 35.1997L39.0835 29.4112C40.5093 28.7934 41.303 27.3499 40.8917 26.1249ZM8.55741 34.0639C8.55741 34.1426 8.49073 34.2092 8.41201 34.2092H2.43228C2.35195 34.2092 2.28447 34.1426 2.28447 34.0639V22.5968C2.28447 22.5181 2.35195 22.4514 2.43228 22.4514H8.41121C8.48913 22.4514 8.5566 22.5197 8.5566 22.5968V34.0639H8.55741ZM38.5734 28.2327L25.2113 34.0213C23.0561 34.9547 20.9137 35.0905 18.6613 34.4358L9.84107 31.8765V24.8171L12.7032 24.164C14.4054 23.7744 15.9116 23.8202 17.5889 24.3135L27.5602 27.2415C28.0213 27.3772 28.3048 27.5853 28.4607 27.8142C28.4695 27.8311 28.48 27.8471 28.4904 27.8632C28.6197 28.0817 28.639 28.3147 28.5868 28.5211C28.4502 29.0585 27.8269 29.5333 26.7802 29.3067L16.7133 27.1234C16.3671 27.0479 16.0248 27.268 15.9493 27.615C15.8738 27.9612 16.0939 28.3034 16.441 28.3789L26.5079 30.5623C26.785 30.6225 27.0477 30.6498 27.2967 30.6498C28.6607 30.6498 29.5829 29.812 29.8311 28.8384C29.9018 28.5613 29.9162 28.2617 29.8672 27.9628L37.4961 26.1072C38.6561 25.8244 39.4907 25.9883 39.6747 26.5354C39.8474 27.0487 39.4457 27.8544 38.5734 28.2327Z" fill="#20336B" stroke="#20336B" stroke-width="0.6"/>
<path fill-rule="evenodd" clip-rule="evenodd" d="M2.43147 22.0225H8.4096C8.84418 22.0225 9.19924 22.3775 9.19924 22.8121V34.2783C9.19924 34.7105 8.84418 35.0656 8.4096 35.0656H2.43147C1.99689 35.0656 1.64183 34.7105 1.64183 34.2783V22.8121C1.64183 22.3775 1.99689 22.0225 2.43147 22.0225Z" fill="#3FAFE9"/>
<path fill-rule="evenodd" clip-rule="evenodd" d="M2.43147 22.0225H3.39543C2.96084 22.0225 2.60579 22.3775 2.60579 22.8121V35.0664H2.43147C1.99689 35.0664 1.64183 34.7113 1.64183 34.2791V22.8121C1.64183 22.3775 1.99689 22.0225 2.43147 22.0225Z" fill="#20336B"/>
</svg>
