<svg width="49" height="48" viewBox="0 0 49 48" fill="none" xmlns="http://www.w3.org/2000/svg">
<rect x="1" y="0.5" width="47" height="47" rx="23.5" stroke="white"/>
<g clip-path="url(#clip0_2035_13925)">
<path d="M32.778 16.043C30.701 14.081 27.938 13 25 13C22.062 13 19.3 14.08 17.222 16.043C15.144 18.006 14 20.616 14 23.391C14 23.727 14.289 24 14.644 24C15 24 15.289 23.727 15.289 23.391C15.289 22.378 16.161 21.554 17.233 21.554C19.126 21.554 18.431 24 19.823 24C21.213 24 20.519 21.554 22.411 21.554C24.304 21.554 25 24 25 24C25 24 25.697 21.554 27.589 21.554C29.481 21.554 28.988 24 30.178 24C31.368 24 30.874 21.554 32.767 21.554C33.839 21.554 34.711 22.378 34.711 23.391C34.711 23.727 35 24 35.356 24C35.711 24 36 23.727 36 23.391C36 20.616 34.856 18.006 32.778 16.043Z" stroke="white" stroke-width="1.5"/>
<path d="M25 24V32C25 36 19 36 19 32" stroke="white" stroke-width="1.5" stroke-linecap="round" stroke-linejoin="round"/>
</g>
<defs>
<clipPath id="clip0_2035_13925">
<rect width="24" height="24" fill="white" transform="translate(13 12)"/>
</clipPath>
</defs>
</svg>
