<svg width="49" height="48" viewBox="0 0 49 48" fill="none" xmlns="http://www.w3.org/2000/svg">
<rect x="1" y="0.5" width="47" height="47" rx="23.5" stroke="white"/>
<path d="M33.9595 23.5828C33.9865 23.8423 34 24.1138 34 24.4003C34 26.3458 33.322 27.6538 32.665 28.4728C32.3997 28.8054 32.0961 29.1055 31.7605 29.3668C31.647 29.4543 31.5289 29.5354 31.4065 29.6098L31.393 29.6173C31.2741 29.6817 31.1748 29.777 31.1056 29.8932C31.0364 30.0094 30.9999 30.1421 31 30.2773V32.2498C31 32.4488 30.921 32.6395 30.7803 32.7802C30.6397 32.9208 30.4489 32.9998 30.25 32.9998H29.5C29.5 32.602 29.342 32.2205 29.0607 31.9392C28.7794 31.6579 28.3978 31.4998 28 31.4998H25C24.6022 31.4998 24.2206 31.6579 23.9393 31.9392C23.658 32.2205 23.5 32.602 23.5 32.9998H22.75C22.5511 32.9998 22.3603 32.9208 22.2197 32.7802C22.079 32.6395 22 32.4488 22 32.2498V31.3453C22.0002 31.1593 21.9312 30.9798 21.8065 30.8418C21.6817 30.7037 21.5101 30.617 21.325 30.5983C21.0873 30.5467 20.8545 30.475 20.629 30.3838C20.0309 30.1425 19.4883 29.7816 19.0345 29.3233C18.37 28.6483 17.9635 27.7603 17.7445 27.1438C17.53 26.5303 17.038 25.9753 16.3345 25.7773C16.2382 25.75 16.1535 25.692 16.0931 25.6121C16.0328 25.5323 16.0001 25.4349 16 25.3348V24.1438C15.9999 24.0493 16.0306 23.9574 16.0874 23.8819C16.1443 23.8064 16.2242 23.7514 16.315 23.7253C17.0425 23.5168 17.5285 22.9288 17.734 22.3078C17.902 21.7978 18.199 21.1438 18.682 20.6533C19.2353 20.1009 19.8746 19.642 20.575 19.2943C20.6335 19.2643 20.68 19.2433 20.71 19.2298L20.74 19.2148L20.746 19.2133C20.881 19.1555 20.996 19.0592 21.0768 18.9366C21.1576 18.8139 21.2006 18.6702 21.2005 18.5233V16.0123C21.5341 16.2969 21.8848 16.5609 22.2505 16.8028C22.726 17.1148 23.281 17.4103 23.8615 17.5678C24.0325 17.0758 24.2665 16.6078 24.5575 16.1758H24.5485C24.13 16.1323 23.6185 15.9058 23.071 15.5473C22.5693 15.21 22.0975 14.8301 21.661 14.4118C21.4979 14.2588 21.294 14.1562 21.074 14.1163C20.8539 14.0764 20.627 14.1009 20.4205 14.1868C20.2087 14.2708 20.0269 14.4162 19.8986 14.6045C19.7703 14.7927 19.7013 15.015 19.7005 15.2428V18.0583C18.9357 18.4706 18.2336 18.9898 17.6155 19.6003C16.9 20.3233 16.5115 21.2263 16.3105 21.8368C16.2265 22.0873 16.0585 22.2388 15.9025 22.2823C15.4984 22.398 15.143 22.6421 14.89 22.9776C14.637 23.3132 14.5001 23.7221 14.5 24.1423V25.3348C14.5 26.2123 15.0835 26.9818 15.9265 27.2203C16.0224 27.2537 16.1091 27.3093 16.1795 27.3826C16.2499 27.4558 16.302 27.5447 16.3315 27.6418C16.5805 28.3498 17.0785 29.4763 17.9665 30.3763C18.6734 31.0909 19.5426 31.6241 20.5 31.9303V32.2498C20.5 32.8466 20.7371 33.4189 21.159 33.8408C21.581 34.2628 22.1533 34.4998 22.75 34.4998H23.5C23.8978 34.4998 24.2794 34.3418 24.5607 34.0605C24.842 33.7792 25 33.3977 25 32.9998H28C28 33.3977 28.158 33.7792 28.4393 34.0605C28.7206 34.3418 29.1022 34.4998 29.5 34.4998H30.25C30.8467 34.4998 31.419 34.2628 31.841 33.8408C32.2629 33.4189 32.5 32.8466 32.5 32.2498V30.6853C33 30.3219 33.449 29.8931 33.835 29.4103C34.678 28.3603 35.5 26.7283 35.5 24.4003C35.5 23.4253 35.362 22.5523 35.095 21.7723C34.8276 22.4388 34.443 23.052 33.9595 23.5828ZM33.6865 17.8123C34.0615 18.7172 34.131 19.7197 33.8847 20.6677C33.6384 21.6157 33.0895 22.4575 32.3215 23.0653C31.696 23.5588 30.8395 23.5213 30.1045 23.2153L26.5195 21.7318C25.7845 21.4273 25.1515 20.8483 25.0585 20.0578C24.9339 18.9797 25.2031 17.8928 25.8165 16.9973C26.4299 16.1019 27.3461 15.4583 28.3965 15.1849C29.4469 14.9115 30.5606 15.0269 31.5327 15.5097C32.5047 15.9925 33.2696 16.8102 33.6865 17.8123ZM31.3915 21.8878C31.802 21.5634 32.1207 21.1373 32.3157 20.6518C32.5108 20.1662 32.5755 19.6381 32.5035 19.1199C32.4315 18.6016 32.2253 18.1111 31.9053 17.6972C31.5853 17.2832 31.1626 16.96 30.6791 16.7598C30.1957 16.5596 29.6683 16.4892 29.1493 16.5557C28.6303 16.6221 28.1377 16.8231 27.7203 17.1387C27.3029 17.4543 26.9753 17.8735 26.7699 18.3548C26.5646 18.8361 26.4886 19.3626 26.5495 19.8823C26.5525 19.9123 26.5645 19.9678 26.6485 20.0563C26.7756 20.1824 26.9272 20.2809 27.094 20.3458L30.679 21.8308C30.8427 21.904 31.0202 21.9413 31.1995 21.9403C31.3195 21.9373 31.369 21.9058 31.3915 21.8878ZM21.625 23.2498C21.9234 23.2498 22.2095 23.1313 22.4205 22.9203C22.6315 22.7094 22.75 22.4232 22.75 22.1248C22.75 21.8265 22.6315 21.5403 22.4205 21.3293C22.2095 21.1184 21.9234 20.9998 21.625 20.9998C21.3266 20.9998 21.0405 21.1184 20.8295 21.3293C20.6185 21.5403 20.5 21.8265 20.5 22.1248C20.5 22.4232 20.6185 22.7094 20.8295 22.9203C21.0405 23.1313 21.3266 23.2498 21.625 23.2498Z" fill="white"/>
</svg>
