<svg width="431" height="186" viewBox="0 0 431 186" fill="none" xmlns="http://www.w3.org/2000/svg">
<path d="M17.2333 4.948V15H15.4413V4.948H17.2333ZM19.0627 15V7.65H20.7427V8.434C21.1627 7.944 21.8207 7.51 22.7727 7.51C24.3127 7.51 25.2367 8.574 25.2367 10.156V15H23.5567V10.646C23.5567 9.736 23.1927 9.078 22.2687 9.078C21.5127 9.078 20.7427 9.638 20.7427 10.688V15H19.0627ZM30.3426 15H28.6486L25.9606 7.65H27.7246L29.5166 12.984L31.2946 7.65H33.0306L30.3426 15ZM36.8679 15.154C34.7679 15.154 33.2979 13.6 33.2979 11.332C33.2979 9.176 34.7539 7.51 36.7979 7.51C38.9259 7.51 40.0599 9.12 40.0599 11.136V11.696H34.9079C35.0339 12.956 35.7899 13.726 36.8679 13.726C37.6939 13.726 38.3519 13.306 38.5759 12.55L40.0179 13.096C39.4999 14.384 38.3379 15.154 36.8679 15.154ZM36.7839 8.924C35.9159 8.924 35.2439 9.442 34.9919 10.436H38.3659C38.3519 9.624 37.8479 8.924 36.7839 8.924ZM41.3205 15V7.65H43.0005V8.434C43.4205 7.944 44.0785 7.51 45.0305 7.51C46.5705 7.51 47.4945 8.574 47.4945 10.156V15H45.8145V10.646C45.8145 9.736 45.4505 9.078 44.5265 9.078C43.7705 9.078 43.0005 9.638 43.0005 10.688V15H41.3205ZM49.3631 13.152V9.078H48.3411V7.65H49.3631V5.494H51.0151V7.65H52.5551V9.078H51.0151V12.886C51.0151 13.544 51.3931 13.614 51.9951 13.614C52.2751 13.614 52.4291 13.6 52.6811 13.572V14.986C52.3731 15.042 51.9531 15.084 51.5191 15.084C50.1191 15.084 49.3631 14.65 49.3631 13.152ZM60.4933 11.332C60.4933 13.614 59.0233 15.154 56.9513 15.154C54.8793 15.154 53.4093 13.614 53.4093 11.332C53.4093 9.05 54.8793 7.51 56.9513 7.51C59.0233 7.51 60.4933 9.05 60.4933 11.332ZM55.1033 11.332C55.1033 12.83 55.8173 13.74 56.9513 13.74C58.0853 13.74 58.7993 12.83 58.7993 11.332C58.7993 9.834 58.0853 8.924 56.9513 8.924C55.8173 8.924 55.1033 9.834 55.1033 11.332ZM65.9729 7.636V9.316C65.7629 9.288 65.5949 9.274 65.3569 9.274C64.2929 9.274 63.4809 9.96 63.4809 11.136V15H61.8009V7.65H63.4809V8.742C63.8029 8.056 64.5589 7.608 65.4969 7.608C65.6929 7.608 65.8469 7.622 65.9729 7.636ZM70.4617 15.686C70.0417 16.806 69.3977 17.576 67.8717 17.576C67.5217 17.576 67.4237 17.562 67.1857 17.534V16.12C67.4097 16.148 67.5357 16.162 67.7457 16.162C68.3057 16.162 68.5717 16.008 68.8097 15.42L69.0897 14.734L66.4157 7.65H68.1797L69.9857 12.802L71.7497 7.65H73.4857L70.4617 15.686ZM9.25971 33H7.80371L5.17171 25.23V33H3.50571V22.948H5.96971L8.55971 30.648L11.1497 22.948H13.5577V33H11.8917V25.23L9.25971 33ZM17.3309 33.126C15.9309 33.126 14.8529 32.272 14.8529 30.956C14.8529 29.556 15.9029 28.94 17.3169 28.646L19.3469 28.226V28.1C19.3469 27.4 18.9829 26.966 18.0869 26.966C17.2889 26.966 16.8689 27.33 16.6729 28.044L15.0909 27.68C15.4549 26.462 16.5329 25.51 18.1569 25.51C19.9209 25.51 20.9849 26.35 20.9849 28.044V31.208C20.9849 31.628 21.1669 31.754 21.6289 31.698V33C20.4109 33.14 19.7669 32.902 19.5149 32.3C19.0529 32.818 18.2829 33.126 17.3309 33.126ZM19.3469 30.41V29.514L17.7649 29.85C17.0509 30.004 16.5189 30.228 16.5189 30.886C16.5189 31.46 16.9389 31.782 17.5829 31.782C18.4789 31.782 19.3469 31.306 19.3469 30.41ZM22.8224 33V25.65H24.5024V26.434C24.9224 25.944 25.5804 25.51 26.5324 25.51C28.0724 25.51 28.9964 26.574 28.9964 28.156V33H27.3164V28.646C27.3164 27.736 26.9524 27.078 26.0284 27.078C25.2724 27.078 24.5024 27.638 24.5024 28.688V33H22.8224ZM32.6571 33.126C31.2571 33.126 30.1791 32.272 30.1791 30.956C30.1791 29.556 31.2291 28.94 32.6431 28.646L34.6731 28.226V28.1C34.6731 27.4 34.3091 26.966 33.4131 26.966C32.6151 26.966 32.1951 27.33 31.9991 28.044L30.4171 27.68C30.7811 26.462 31.8591 25.51 33.4831 25.51C35.2471 25.51 36.3111 26.35 36.3111 28.044V31.208C36.3111 31.628 36.4931 31.754 36.9551 31.698V33C35.7371 33.14 35.0931 32.902 34.8411 32.3C34.3791 32.818 33.6091 33.126 32.6571 33.126ZM34.6731 30.41V29.514L33.0911 29.85C32.3771 30.004 31.8451 30.228 31.8451 30.886C31.8451 31.46 32.2651 31.782 32.9091 31.782C33.8051 31.782 34.6731 31.306 34.6731 30.41ZM44.6866 32.258C44.6866 34.428 43.2026 35.674 41.1026 35.674C39.4086 35.674 38.2186 34.96 37.7566 33.532L39.3246 32.972C39.5486 33.798 40.1786 34.316 41.1026 34.316C42.2366 34.316 43.0066 33.756 43.0066 32.412V31.894C42.6146 32.412 41.8726 32.818 40.9346 32.818C38.9186 32.818 37.7146 31.18 37.7146 29.164C37.7146 27.148 38.9186 25.51 40.9346 25.51C41.8586 25.51 42.6146 25.916 43.0066 26.434V25.65H44.6866V32.258ZM43.0346 29.094C43.0346 27.75 42.3066 26.98 41.2566 26.98C40.0946 26.98 39.4086 27.792 39.4086 29.164C39.4086 30.522 40.0946 31.348 41.2566 31.348C42.3066 31.348 43.0346 30.578 43.0346 29.262V29.094ZM49.5691 33.154C47.4691 33.154 45.9991 31.6 45.9991 29.332C45.9991 27.176 47.4551 25.51 49.4991 25.51C51.6271 25.51 52.7611 27.12 52.7611 29.136V29.696H47.6091C47.7351 30.956 48.4911 31.726 49.5691 31.726C50.3951 31.726 51.0531 31.306 51.2771 30.55L52.7191 31.096C52.2011 32.384 51.0391 33.154 49.5691 33.154ZM49.4851 26.924C48.6171 26.924 47.9451 27.442 47.6931 28.436H51.0671C51.0531 27.624 50.5491 26.924 49.4851 26.924ZM55.7016 28.688V33H54.0216V25.65H55.7016V26.434C56.1076 25.944 56.7376 25.51 57.7176 25.51C58.5996 25.51 59.2576 25.902 59.6636 26.532C60.1116 26.056 60.8116 25.51 61.9456 25.51C63.4576 25.51 64.4376 26.574 64.4376 28.156V33H62.7576V28.646C62.7576 27.736 62.4216 27.078 61.5256 27.078C60.8116 27.078 60.0696 27.638 60.0696 28.688V33H58.3896V28.646C58.3896 27.736 58.0536 27.078 57.1576 27.078C56.4436 27.078 55.7016 27.638 55.7016 28.688ZM69.2566 33.154C67.1566 33.154 65.6866 31.6 65.6866 29.332C65.6866 27.176 67.1426 25.51 69.1866 25.51C71.3146 25.51 72.4486 27.12 72.4486 29.136V29.696H67.2966C67.4226 30.956 68.1786 31.726 69.2566 31.726C70.0826 31.726 70.7406 31.306 70.9646 30.55L72.4066 31.096C71.8886 32.384 70.7266 33.154 69.2566 33.154ZM69.1726 26.924C68.3046 26.924 67.6326 27.442 67.3806 28.436H70.7546C70.7406 27.624 70.2366 26.924 69.1726 26.924ZM73.7091 33V25.65H75.3891V26.434C75.8091 25.944 76.4671 25.51 77.4191 25.51C78.9591 25.51 79.8831 26.574 79.8831 28.156V33H78.2031V28.646C78.2031 27.736 77.8391 27.078 76.9151 27.078C76.1591 27.078 75.3891 27.638 75.3891 28.688V33H73.7091ZM81.7518 31.152V27.078H80.7298V25.65H81.7518V23.494H83.4038V25.65H84.9438V27.078H83.4038V30.886C83.4038 31.544 83.7818 31.614 84.3838 31.614C84.6638 31.614 84.8178 31.6 85.0698 31.572V32.986C84.7618 33.042 84.3418 33.084 83.9078 33.084C82.5078 33.084 81.7518 32.65 81.7518 31.152Z" fill="#20336B"/>
<path d="M40 80L42.8868 75H37.1132L40 80ZM39.5 44V75.5H40.5V44H39.5Z" fill="#20336B"/>
<path d="M111 115L106 112.113V117.887L111 115ZM75 115.5H106.5V114.5H75V115.5Z" fill="#20336B"/>
<path d="M223 115L218 112.113V117.887L223 115ZM187 115.5H218.5V114.5H187V115.5Z" fill="#20336B"/>
<path d="M344 115L339 112.113V117.887L344 115ZM308 115.5H339.5V114.5H308V115.5Z" fill="#20336B"/>
<path d="M264 141.5C279.188 141.5 291.5 129.188 291.5 114C291.5 98.8122 279.188 86.5 264 86.5C248.812 86.5 236.5 98.8122 236.5 114C236.5 129.188 248.812 141.5 264 141.5Z" stroke="#20336B"/>
<mask id="mask0_2010_6894" style="mask-type:luminance" maskUnits="userSpaceOnUse" x="252" y="101" width="24" height="25">
<path d="M276 101.998H252V125.998H276V101.998Z" fill="white"/>
</mask>
<g mask="url(#mask0_2010_6894)">
<mask id="mask1_2010_6894" style="mask-type:luminance" maskUnits="userSpaceOnUse" x="252" y="101" width="24" height="25">
<path d="M276 101.998H252V125.998H276V101.998Z" fill="white"/>
</mask>
<g mask="url(#mask1_2010_6894)">
<path d="M259 111.975V116.9C259 117.136 259.127 117.354 259.332 117.472L263.65 119.914V114.606L259 111.975Z" fill="#24BAF2"/>
<path d="M264.969 114.606V119.914L269.574 117.282V111.975L264.969 114.606Z" fill="#24BAF2"/>
<path d="M264.309 108.027L259.188 110.566L264.309 113.468L269.386 110.566L264.309 108.027Z" fill="#24BAF2"/>
<path d="M271.437 121.477C271.571 121.362 271.702 121.243 271.829 121.122C273.911 119.138 275.12 116.344 274.91 113.337C274.525 107.828 269.523 103.689 263.738 104.094C257.953 104.498 253.576 109.292 253.961 114.802C254.346 120.311 259.348 124.45 265.133 124.045C266.804 123.928 268.358 123.445 269.713 122.684C269.78 122.647 269.846 122.609 269.912 122.57" stroke="#20336B"/>
</g>
</g>
<path d="M245.413 165H243.957L241.325 157.23V165H239.659V154.948H242.123L244.713 162.648L247.303 154.948H249.711V165H248.045V157.23L245.413 165ZM253.484 165.126C252.084 165.126 251.006 164.272 251.006 162.956C251.006 161.556 252.056 160.94 253.47 160.646L255.5 160.226V160.1C255.5 159.4 255.136 158.966 254.24 158.966C253.442 158.966 253.022 159.33 252.826 160.044L251.244 159.68C251.608 158.462 252.686 157.51 254.31 157.51C256.074 157.51 257.138 158.35 257.138 160.044V163.208C257.138 163.628 257.32 163.754 257.782 163.698V165C256.564 165.14 255.92 164.902 255.668 164.3C255.206 164.818 254.436 165.126 253.484 165.126ZM255.5 162.41V161.514L253.918 161.85C253.204 162.004 252.672 162.228 252.672 162.886C252.672 163.46 253.092 163.782 253.736 163.782C254.632 163.782 255.5 163.306 255.5 162.41ZM258.976 165V157.65H260.656V158.434C261.076 157.944 261.734 157.51 262.686 157.51C264.226 157.51 265.15 158.574 265.15 160.156V165H263.47V160.646C263.47 159.736 263.106 159.078 262.182 159.078C261.426 159.078 260.656 159.638 260.656 160.688V165H258.976ZM268.81 165.126C267.41 165.126 266.332 164.272 266.332 162.956C266.332 161.556 267.382 160.94 268.796 160.646L270.826 160.226V160.1C270.826 159.4 270.462 158.966 269.566 158.966C268.768 158.966 268.348 159.33 268.152 160.044L266.57 159.68C266.934 158.462 268.012 157.51 269.636 157.51C271.4 157.51 272.464 158.35 272.464 160.044V163.208C272.464 163.628 272.646 163.754 273.108 163.698V165C271.89 165.14 271.246 164.902 270.994 164.3C270.532 164.818 269.762 165.126 268.81 165.126ZM270.826 162.41V161.514L269.244 161.85C268.53 162.004 267.998 162.228 267.998 162.886C267.998 163.46 268.418 163.782 269.062 163.782C269.958 163.782 270.826 163.306 270.826 162.41ZM280.84 164.258C280.84 166.428 279.356 167.674 277.256 167.674C275.562 167.674 274.372 166.96 273.91 165.532L275.478 164.972C275.702 165.798 276.332 166.316 277.256 166.316C278.39 166.316 279.16 165.756 279.16 164.412V163.894C278.768 164.412 278.026 164.818 277.088 164.818C275.072 164.818 273.868 163.18 273.868 161.164C273.868 159.148 275.072 157.51 277.088 157.51C278.012 157.51 278.768 157.916 279.16 158.434V157.65H280.84V164.258ZM279.188 161.094C279.188 159.75 278.46 158.98 277.41 158.98C276.248 158.98 275.562 159.792 275.562 161.164C275.562 162.522 276.248 163.348 277.41 163.348C278.46 163.348 279.188 162.578 279.188 161.262V161.094ZM285.722 165.154C283.622 165.154 282.152 163.6 282.152 161.332C282.152 159.176 283.608 157.51 285.652 157.51C287.78 157.51 288.914 159.12 288.914 161.136V161.696H283.762C283.888 162.956 284.644 163.726 285.722 163.726C286.548 163.726 287.206 163.306 287.43 162.55L288.872 163.096C288.354 164.384 287.192 165.154 285.722 165.154ZM285.638 158.924C284.77 158.924 284.098 159.442 283.846 160.436H287.22C287.206 159.624 286.702 158.924 285.638 158.924ZM235.466 174.67V172.948H237.202V174.67H235.466ZM237.174 175.65V183H235.494V175.65H237.174ZM238.94 183V175.65H240.62V176.434C241.04 175.944 241.698 175.51 242.65 175.51C244.19 175.51 245.114 176.574 245.114 178.156V183H243.434V178.646C243.434 177.736 243.07 177.078 242.146 177.078C241.39 177.078 240.62 177.638 240.62 178.688V183H238.94ZM250.22 183H248.526L245.838 175.65H247.602L249.394 180.984L251.172 175.65H252.908L250.22 183ZM256.745 183.154C254.645 183.154 253.175 181.6 253.175 179.332C253.175 177.176 254.631 175.51 256.675 175.51C258.803 175.51 259.937 177.12 259.937 179.136V179.696H254.785C254.911 180.956 255.667 181.726 256.745 181.726C257.571 181.726 258.229 181.306 258.453 180.55L259.895 181.096C259.377 182.384 258.215 183.154 256.745 183.154ZM256.661 176.924C255.793 176.924 255.121 177.442 254.869 178.436H258.243C258.229 177.624 257.725 176.924 256.661 176.924ZM261.197 183V175.65H262.877V176.434C263.297 175.944 263.955 175.51 264.907 175.51C266.447 175.51 267.371 176.574 267.371 178.156V183H265.691V178.646C265.691 177.736 265.327 177.078 264.403 177.078C263.647 177.078 262.877 177.638 262.877 178.688V183H261.197ZM269.24 181.152V177.078H268.218V175.65H269.24V173.494H270.892V175.65H272.432V177.078H270.892V180.886C270.892 181.544 271.27 181.614 271.872 181.614C272.152 181.614 272.306 181.6 272.558 181.572V182.986C272.25 183.042 271.83 183.084 271.396 183.084C269.996 183.084 269.24 182.65 269.24 181.152ZM280.37 179.332C280.37 181.614 278.9 183.154 276.828 183.154C274.756 183.154 273.286 181.614 273.286 179.332C273.286 177.05 274.756 175.51 276.828 175.51C278.9 175.51 280.37 177.05 280.37 179.332ZM274.98 179.332C274.98 180.83 275.694 181.74 276.828 181.74C277.962 181.74 278.676 180.83 278.676 179.332C278.676 177.834 277.962 176.924 276.828 176.924C275.694 176.924 274.98 177.834 274.98 179.332ZM285.85 175.636V177.316C285.64 177.288 285.472 177.274 285.234 177.274C284.17 177.274 283.358 177.96 283.358 179.136V183H281.678V175.65H283.358V176.742C283.68 176.056 284.436 175.608 285.374 175.608C285.57 175.608 285.724 175.622 285.85 175.636ZM290.339 183.686C289.919 184.806 289.275 185.576 287.749 185.576C287.399 185.576 287.301 185.562 287.063 185.534V184.12C287.287 184.148 287.413 184.162 287.623 184.162C288.183 184.162 288.449 184.008 288.687 183.42L288.967 182.734L286.293 175.65H288.057L289.863 180.802L291.627 175.65H293.363L290.339 183.686Z" fill="#20336B"/>
<path d="M30.9754 165V154.948H34.9654C37.1214 154.948 38.2694 155.886 38.2694 157.594C38.2694 158.84 37.5414 159.484 36.8414 159.764C37.8914 160.1 38.5914 160.968 38.5914 162.2C38.5914 163.964 37.2894 165 35.2174 165H30.9754ZM32.6974 159.106H34.7974C35.9454 159.106 36.5754 158.658 36.5754 157.776C36.5754 156.894 35.9454 156.46 34.7974 156.46H32.6974V159.106ZM32.6974 160.618V163.488H35.1194C36.2534 163.488 36.8694 162.9 36.8694 162.046C36.8694 161.206 36.2534 160.618 35.1194 160.618H32.6974ZM45.9648 157.65V165H44.2848V164.216C43.8648 164.706 43.2348 165.154 42.2828 165.154C40.7428 165.154 39.7908 164.104 39.7908 162.522V157.65H41.4708V162.158C41.4708 163.054 41.8628 163.628 42.7728 163.628C43.5288 163.628 44.2848 163.068 44.2848 162.018V157.65H45.9648ZM50.9275 165.686C50.5075 166.806 49.8635 167.576 48.3375 167.576C47.9875 167.576 47.8895 167.562 47.6515 167.534V166.12C47.8755 166.148 48.0015 166.162 48.2115 166.162C48.7715 166.162 49.0375 166.008 49.2755 165.42L49.5555 164.734L46.8815 157.65H48.6455L50.4515 162.802L52.2155 157.65H53.9515L50.9275 165.686ZM15.2333 172.948V183H13.4413V172.948H15.2333ZM17.0627 183V175.65H18.7427V176.434C19.1627 175.944 19.8207 175.51 20.7727 175.51C22.3127 175.51 23.2367 176.574 23.2367 178.156V183H21.5567V178.646C21.5567 177.736 21.1927 177.078 20.2687 177.078C19.5127 177.078 18.7427 177.638 18.7427 178.688V183H17.0627ZM28.3426 183H26.6486L23.9606 175.65H25.7246L27.5166 180.984L29.2946 175.65H31.0306L28.3426 183ZM34.8679 183.154C32.7679 183.154 31.2979 181.6 31.2979 179.332C31.2979 177.176 32.7539 175.51 34.7979 175.51C36.9259 175.51 38.0599 177.12 38.0599 179.136V179.696H32.9079C33.0339 180.956 33.7899 181.726 34.8679 181.726C35.6939 181.726 36.3519 181.306 36.5759 180.55L38.0179 181.096C37.4999 182.384 36.3379 183.154 34.8679 183.154ZM34.7839 176.924C33.9159 176.924 33.2439 177.442 32.9919 178.436H36.3659C36.3519 177.624 35.8479 176.924 34.7839 176.924ZM39.3205 183V175.65H41.0005V176.434C41.4205 175.944 42.0785 175.51 43.0305 175.51C44.5705 175.51 45.4945 176.574 45.4945 178.156V183H43.8145V178.646C43.8145 177.736 43.4505 177.078 42.5265 177.078C41.7705 177.078 41.0005 177.638 41.0005 178.688V183H39.3205ZM47.3631 181.152V177.078H46.3411V175.65H47.3631V173.494H49.0151V175.65H50.5551V177.078H49.0151V180.886C49.0151 181.544 49.3931 181.614 49.9951 181.614C50.2751 181.614 50.4291 181.6 50.6811 181.572V182.986C50.3731 183.042 49.9531 183.084 49.5191 183.084C48.1191 183.084 47.3631 182.65 47.3631 181.152ZM58.4933 179.332C58.4933 181.614 57.0233 183.154 54.9513 183.154C52.8793 183.154 51.4093 181.614 51.4093 179.332C51.4093 177.05 52.8793 175.51 54.9513 175.51C57.0233 175.51 58.4933 177.05 58.4933 179.332ZM53.1033 179.332C53.1033 180.83 53.8173 181.74 54.9513 181.74C56.0853 181.74 56.7993 180.83 56.7993 179.332C56.7993 177.834 56.0853 176.924 54.9513 176.924C53.8173 176.924 53.1033 177.834 53.1033 179.332ZM63.9729 175.636V177.316C63.7629 177.288 63.5949 177.274 63.3569 177.274C62.2929 177.274 61.4809 177.96 61.4809 179.136V183H59.8009V175.65H61.4809V176.742C61.8029 176.056 62.5589 175.608 63.4969 175.608C63.6929 175.608 63.8469 175.622 63.9729 175.636ZM68.4617 183.686C68.0417 184.806 67.3977 185.576 65.8717 185.576C65.5217 185.576 65.4237 185.562 65.1857 185.534V184.12C65.4097 184.148 65.5357 184.162 65.7457 184.162C66.3057 184.162 66.5717 184.008 66.8097 183.42L67.0897 182.734L64.4157 175.65H66.1797L67.9857 180.802L69.7497 175.65H71.4857L68.4617 183.686Z" fill="#20336B"/>
<path d="M145 141.5C160.188 141.5 172.5 129.188 172.5 114C172.5 98.8122 160.188 86.5 145 86.5C129.812 86.5 117.5 98.8122 117.5 114C117.5 129.188 129.812 141.5 145 141.5Z" stroke="#20336B"/>
<mask id="mask2_2010_6894" style="mask-type:luminance" maskUnits="userSpaceOnUse" x="133" y="102" width="24" height="24">
<path d="M157 102H133V126H157V102Z" fill="white"/>
</mask>
<g mask="url(#mask2_2010_6894)">
<mask id="mask3_2010_6894" style="mask-type:luminance" maskUnits="userSpaceOnUse" x="133" y="102" width="24" height="24">
<path d="M157 102H133V126H157V102Z" fill="white"/>
</mask>
<g mask="url(#mask3_2010_6894)">
<path d="M138.094 113.199H153.625C153.885 113.199 154.13 113.292 154.288 113.451C154.445 113.609 154.498 113.815 154.43 114.008L152.719 118.824C152.422 119.659 151.434 120.239 150.307 120.239H140.024" stroke="#20336B" stroke-linecap="round" stroke-linejoin="round"/>
<path d="M135.547 110H135.862C136.65 110 137.33 110.424 137.493 111.016L140.269 121.144C140.431 121.736 141.111 122.16 141.899 122.16H151.38" stroke="#20336B" stroke-linecap="round" stroke-linejoin="round"/>
<path fill-rule="evenodd" clip-rule="evenodd" d="M141.383 124.721C142.073 124.721 142.633 124.291 142.633 123.761C142.633 123.231 142.073 122.801 141.383 122.801C140.692 122.801 140.133 123.231 140.133 123.761C140.133 124.291 140.692 124.721 141.383 124.721Z" stroke="#20336B" stroke-linecap="round" stroke-linejoin="round"/>
<path fill-rule="evenodd" clip-rule="evenodd" d="M149.711 124.721C150.401 124.721 150.961 124.291 150.961 123.761C150.961 123.231 150.401 122.801 149.711 122.801C149.021 122.801 148.461 123.231 148.461 123.761C148.461 124.291 149.021 124.721 149.711 124.721Z" stroke="#20336B" stroke-linecap="round" stroke-linejoin="round"/>
<path fill-rule="evenodd" clip-rule="evenodd" d="M146.5 111.601C148.985 111.601 151 109.667 151 107.281C151 104.895 148.985 102.961 146.5 102.961C144.015 102.961 142 104.895 142 107.281C142 109.667 144.015 111.601 146.5 111.601Z" stroke="#20336B" stroke-linecap="round" stroke-linejoin="round"/>
<path d="M146.5 105.553V109.009" stroke="#24BAF2" stroke-linecap="round" stroke-linejoin="round"/>
<path d="M144.703 107.281L146.503 105.553L148.303 107.281" stroke="#24BAF2" stroke-linecap="round" stroke-linejoin="round"/>
</g>
</g>
<path d="M133.507 163.04L134.879 161.906C135.579 162.998 136.629 163.628 137.777 163.628C138.911 163.628 139.765 163.11 139.765 162.144C139.765 161.122 138.715 160.982 137.217 160.618C135.705 160.254 134.081 159.806 134.081 157.846C134.081 155.984 135.677 154.794 137.707 154.794C139.429 154.794 140.773 155.606 141.445 156.656L140.129 157.79C139.569 156.922 138.827 156.32 137.651 156.32C136.573 156.32 135.831 156.866 135.831 157.664C135.831 158.546 136.601 158.728 137.959 159.036C139.583 159.4 141.529 159.778 141.529 161.962C141.529 163.936 139.793 165.154 137.721 165.154C135.999 165.154 134.291 164.328 133.507 163.04ZM145.962 165.154C143.862 165.154 142.392 163.6 142.392 161.332C142.392 159.176 143.848 157.51 145.892 157.51C148.02 157.51 149.154 159.12 149.154 161.136V161.696H144.002C144.128 162.956 144.884 163.726 145.962 163.726C146.788 163.726 147.446 163.306 147.67 162.55L149.112 163.096C148.594 164.384 147.432 165.154 145.962 165.154ZM145.878 158.924C145.01 158.924 144.338 159.442 144.086 160.436H147.46C147.446 159.624 146.942 158.924 145.878 158.924ZM152.094 154.948V165H150.414V154.948H152.094ZM155.54 154.948V165H153.86V154.948H155.54ZM118.233 172.948V183H116.441V172.948H118.233ZM120.063 183V175.65H121.743V176.434C122.163 175.944 122.821 175.51 123.773 175.51C125.313 175.51 126.237 176.574 126.237 178.156V183H124.557V178.646C124.557 177.736 124.193 177.078 123.269 177.078C122.513 177.078 121.743 177.638 121.743 178.688V183H120.063ZM131.343 183H129.649L126.961 175.65H128.725L130.517 180.984L132.295 175.65H134.031L131.343 183ZM137.868 183.154C135.768 183.154 134.298 181.6 134.298 179.332C134.298 177.176 135.754 175.51 137.798 175.51C139.926 175.51 141.06 177.12 141.06 179.136V179.696H135.908C136.034 180.956 136.79 181.726 137.868 181.726C138.694 181.726 139.352 181.306 139.576 180.55L141.018 181.096C140.5 182.384 139.338 183.154 137.868 183.154ZM137.784 176.924C136.916 176.924 136.244 177.442 135.992 178.436H139.366C139.352 177.624 138.848 176.924 137.784 176.924ZM142.32 183V175.65H144V176.434C144.42 175.944 145.078 175.51 146.03 175.51C147.57 175.51 148.494 176.574 148.494 178.156V183H146.814V178.646C146.814 177.736 146.45 177.078 145.526 177.078C144.77 177.078 144 177.638 144 178.688V183H142.32ZM150.363 181.152V177.078H149.341V175.65H150.363V173.494H152.015V175.65H153.555V177.078H152.015V180.886C152.015 181.544 152.393 181.614 152.995 181.614C153.275 181.614 153.429 181.6 153.681 181.572V182.986C153.373 183.042 152.953 183.084 152.519 183.084C151.119 183.084 150.363 182.65 150.363 181.152ZM161.493 179.332C161.493 181.614 160.023 183.154 157.951 183.154C155.879 183.154 154.409 181.614 154.409 179.332C154.409 177.05 155.879 175.51 157.951 175.51C160.023 175.51 161.493 177.05 161.493 179.332ZM156.103 179.332C156.103 180.83 156.817 181.74 157.951 181.74C159.085 181.74 159.799 180.83 159.799 179.332C159.799 177.834 159.085 176.924 157.951 176.924C156.817 176.924 156.103 177.834 156.103 179.332ZM166.973 175.636V177.316C166.763 177.288 166.595 177.274 166.357 177.274C165.293 177.274 164.481 177.96 164.481 179.136V183H162.801V175.65H164.481V176.742C164.803 176.056 165.559 175.608 166.497 175.608C166.693 175.608 166.847 175.622 166.973 175.636ZM171.462 183.686C171.042 184.806 170.398 185.576 168.872 185.576C168.522 185.576 168.424 185.562 168.186 185.534V184.12C168.41 184.148 168.536 184.162 168.746 184.162C169.306 184.162 169.572 184.008 169.81 183.42L170.09 182.734L167.416 175.65H169.18L170.986 180.802L172.75 175.65H174.486L171.462 183.686Z" fill="#20336B"/>
<path d="M386 141.5C401.188 141.5 413.5 129.188 413.5 114C413.5 98.8122 401.188 86.5 386 86.5C370.812 86.5 358.5 98.8122 358.5 114C358.5 129.188 370.812 141.5 386 141.5Z" stroke="#20336B"/>
<mask id="mask4_2010_6894" style="mask-type:luminance" maskUnits="userSpaceOnUse" x="383" y="106" width="15" height="17">
<path d="M398 106.93H383.953V122.147H398V106.93Z" fill="white"/>
</mask>
<g mask="url(#mask4_2010_6894)">
<mask id="mask5_2010_6894" style="mask-type:luminance" maskUnits="userSpaceOnUse" x="383" y="106" width="15" height="17">
<path d="M398 106.93H383.953V122.147H398V106.93Z" fill="white"/>
</mask>
<g mask="url(#mask5_2010_6894)">
<path d="M386.938 114.031H396.028C396.18 114.031 396.323 114.09 396.415 114.191C396.508 114.291 396.538 114.422 396.498 114.544L395.497 117.598C395.324 118.127 394.745 118.495 394.086 118.495H388.067" stroke="#20336B" stroke-linecap="round" stroke-linejoin="round"/>
<path d="M385.445 112.002H385.63C386.091 112.002 386.489 112.271 386.584 112.646L388.209 119.067C388.304 119.443 388.702 119.712 389.163 119.712H394.712" stroke="#20336B" stroke-linecap="round" stroke-linejoin="round"/>
<path fill-rule="evenodd" clip-rule="evenodd" d="M388.857 121.335C389.261 121.335 389.588 121.062 389.588 120.726C389.588 120.39 389.261 120.117 388.857 120.117C388.453 120.117 388.125 120.39 388.125 120.726C388.125 121.062 388.453 121.335 388.857 121.335Z" stroke="#20336B" stroke-linecap="round" stroke-linejoin="round"/>
<path fill-rule="evenodd" clip-rule="evenodd" d="M393.739 121.335C394.143 121.335 394.471 121.062 394.471 120.726C394.471 120.39 394.143 120.117 393.739 120.117C393.335 120.117 393.008 120.39 393.008 120.726C393.008 121.062 393.335 121.335 393.739 121.335Z" stroke="#20336B" stroke-linecap="round" stroke-linejoin="round"/>
</g>
</g>
<path d="M387.13 123.016H376.264C375.664 123.015 375.088 122.776 374.664 122.352C374.239 121.927 374.001 121.352 374 120.752V106.264C374.001 105.664 374.239 105.088 374.664 104.664C375.088 104.239 375.664 104.001 376.264 104H383.263C383.565 104 383.863 104.06 384.141 104.177C384.419 104.294 384.671 104.464 384.883 104.679L388.749 108.636C389.163 109.059 389.395 109.628 389.394 110.221V113.594C389.394 113.714 389.346 113.829 389.261 113.914C389.176 113.999 389.061 114.047 388.941 114.047C388.821 114.047 388.706 113.999 388.621 113.914C388.536 113.829 388.488 113.714 388.488 113.594V110.221C388.488 109.865 388.349 109.524 388.101 109.27L384.235 105.313C384.108 105.184 383.957 105.081 383.79 105.012C383.623 104.942 383.444 104.906 383.263 104.906H376.264C375.904 104.906 375.558 105.049 375.303 105.303C375.049 105.558 374.906 105.904 374.906 106.264V120.752C374.906 121.112 375.049 121.458 375.303 121.712C375.558 121.967 375.904 122.11 376.264 122.11H387.13C387.301 122.111 387.47 122.078 387.628 122.013C387.739 121.967 387.864 121.967 387.975 122.014C388.085 122.06 388.173 122.148 388.219 122.259C388.265 122.37 388.264 122.495 388.218 122.606C388.172 122.717 388.084 122.805 387.972 122.85C387.705 122.96 387.419 123.016 387.13 123.016Z" fill="#20336B"/>
<path d="M388.755 109.884H385.772C385.171 109.883 384.596 109.645 384.172 109.22C383.747 108.796 383.509 108.221 383.508 107.62V104.591C383.508 104.471 383.556 104.356 383.64 104.271C383.725 104.186 383.84 104.139 383.961 104.139C384.081 104.139 384.196 104.186 384.281 104.271C384.366 104.356 384.413 104.471 384.413 104.591V107.62C384.413 107.981 384.556 108.326 384.811 108.581C385.066 108.836 385.411 108.979 385.772 108.979H388.755C388.875 108.979 388.99 109.026 389.075 109.111C389.16 109.196 389.208 109.311 389.208 109.431C389.208 109.551 389.16 109.667 389.075 109.752C388.99 109.836 388.875 109.884 388.755 109.884Z" fill="#20336B"/>
<path d="M380.786 108.531H377.164C377.044 108.531 376.928 108.483 376.844 108.398C376.759 108.313 376.711 108.198 376.711 108.078C376.711 107.958 376.759 107.843 376.844 107.758C376.928 107.673 377.044 107.625 377.164 107.625H380.786C380.906 107.625 381.021 107.673 381.106 107.758C381.191 107.843 381.238 107.958 381.238 108.078C381.238 108.198 381.191 108.313 381.106 108.398C381.021 108.483 380.906 108.531 380.786 108.531ZM383.502 111.247H377.164C377.044 111.247 376.928 111.199 376.844 111.114C376.759 111.03 376.711 110.914 376.711 110.794C376.711 110.674 376.759 110.559 376.844 110.474C376.928 110.389 377.044 110.342 377.164 110.342H383.502C383.622 110.342 383.738 110.389 383.822 110.474C383.907 110.559 383.955 110.674 383.955 110.794C383.955 110.914 383.907 111.03 383.822 111.114C383.738 111.199 383.622 111.247 383.502 111.247ZM384.408 113.964H377.164C377.044 113.964 376.928 113.916 376.844 113.831C376.759 113.746 376.711 113.631 376.711 113.511C376.711 113.391 376.759 113.276 376.844 113.191C376.928 113.106 377.044 113.058 377.164 113.058H384.408C384.528 113.058 384.643 113.106 384.728 113.191C384.813 113.276 384.861 113.391 384.861 113.511C384.861 113.631 384.813 113.746 384.728 113.831C384.643 113.916 384.528 113.964 384.408 113.964ZM381.691 116.68H377.164C377.044 116.68 376.928 116.632 376.844 116.547C376.759 116.463 376.711 116.347 376.711 116.227C376.711 116.107 376.759 115.992 376.844 115.907C376.928 115.822 377.044 115.775 377.164 115.775H381.691C381.811 115.775 381.926 115.822 382.011 115.907C382.096 115.992 382.144 116.107 382.144 116.227C382.144 116.347 382.096 116.463 382.011 116.547C381.926 116.632 381.811 116.68 381.691 116.68ZM381.691 119.397H377.164C377.044 119.397 376.928 119.349 376.844 119.264C376.759 119.179 376.711 119.064 376.711 118.944C376.711 118.824 376.759 118.709 376.844 118.624C376.928 118.539 377.044 118.491 377.164 118.491H381.691C381.811 118.491 381.926 118.539 382.011 118.624C382.096 118.709 382.144 118.824 382.144 118.944C382.144 119.064 382.096 119.179 382.011 119.264C381.926 119.349 381.811 119.397 381.691 119.397Z" fill="#24BAF2"/>
<path d="M348.453 160.108V164H346.661V153.948H350.679C352.919 153.948 354.319 154.998 354.319 157.028C354.319 159.03 352.919 160.108 350.679 160.108H348.453ZM348.453 158.568H350.581C351.869 158.568 352.555 158.008 352.555 157.028C352.555 156.034 351.869 155.488 350.581 155.488H348.453V158.568ZM356.98 153.948V164H355.3V153.948H356.98ZM360.691 164.126C359.291 164.126 358.213 163.272 358.213 161.956C358.213 160.556 359.263 159.94 360.677 159.646L362.707 159.226V159.1C362.707 158.4 362.343 157.966 361.447 157.966C360.649 157.966 360.229 158.33 360.033 159.044L358.451 158.68C358.815 157.462 359.893 156.51 361.517 156.51C363.281 156.51 364.345 157.35 364.345 159.044V162.208C364.345 162.628 364.527 162.754 364.989 162.698V164C363.771 164.14 363.127 163.902 362.875 163.3C362.413 163.818 361.643 164.126 360.691 164.126ZM362.707 161.41V160.514L361.125 160.85C360.411 161.004 359.879 161.228 359.879 161.886C359.879 162.46 360.299 162.782 360.943 162.782C361.839 162.782 362.707 162.306 362.707 161.41ZM367.401 160.332C367.401 161.83 368.185 162.698 369.333 162.698C370.229 162.698 370.775 162.11 370.985 161.298L372.427 162.026C372.049 163.216 370.929 164.154 369.333 164.154C367.233 164.154 365.721 162.6 365.721 160.332C365.721 158.064 367.233 156.51 369.333 156.51C370.915 156.51 372.007 157.406 372.399 158.582L370.985 159.352C370.775 158.554 370.229 157.952 369.333 157.952C368.185 157.952 367.401 158.834 367.401 160.332ZM376.551 164.154C374.451 164.154 372.981 162.6 372.981 160.332C372.981 158.176 374.437 156.51 376.481 156.51C378.609 156.51 379.743 158.12 379.743 160.136V160.696H374.591C374.717 161.956 375.473 162.726 376.551 162.726C377.377 162.726 378.035 162.306 378.259 161.55L379.701 162.096C379.183 163.384 378.021 164.154 376.551 164.154ZM376.467 157.924C375.599 157.924 374.927 158.442 374.675 159.436H378.049C378.035 158.624 377.531 157.924 376.467 157.924ZM383.44 158.974C383.44 155.922 385.4 153.794 388.116 153.794C390.832 153.794 392.792 155.922 392.792 158.974C392.792 162.026 390.832 164.154 388.116 164.154C385.4 164.154 383.44 162.026 383.44 158.974ZM391 158.974C391 156.79 389.81 155.376 388.116 155.376C386.422 155.376 385.232 156.79 385.232 158.974C385.232 161.158 386.422 162.572 388.116 162.572C389.81 162.572 391 161.158 391 158.974ZM398.286 156.636V158.316C398.076 158.288 397.908 158.274 397.67 158.274C396.606 158.274 395.794 158.96 395.794 160.136V164H394.114V156.65H395.794V157.742C396.116 157.056 396.872 156.608 397.81 156.608C398.006 156.608 398.16 156.622 398.286 156.636ZM401.945 164.154C399.887 164.154 398.711 162.418 398.711 160.332C398.711 158.246 399.887 156.51 401.945 156.51C402.897 156.51 403.597 156.888 404.059 157.434V153.948H405.739V164H404.059V163.23C403.597 163.776 402.897 164.154 401.945 164.154ZM404.101 160.122C404.101 158.736 403.317 157.98 402.281 157.98C401.063 157.98 400.405 158.932 400.405 160.332C400.405 161.732 401.063 162.684 402.281 162.684C403.317 162.684 404.101 161.914 404.101 160.556V160.122ZM410.607 164.154C408.507 164.154 407.037 162.6 407.037 160.332C407.037 158.176 408.493 156.51 410.537 156.51C412.665 156.51 413.799 158.12 413.799 160.136V160.696H408.647C408.773 161.956 409.529 162.726 410.607 162.726C411.433 162.726 412.091 162.306 412.315 161.55L413.757 162.096C413.239 163.384 412.077 164.154 410.607 164.154ZM410.523 157.924C409.655 157.924 408.983 158.442 408.731 159.436H412.105C412.091 158.624 411.587 157.924 410.523 157.924ZM419.232 156.636V158.316C419.022 158.288 418.854 158.274 418.616 158.274C417.552 158.274 416.74 158.96 416.74 160.136V164H415.06V156.65H416.74V157.742C417.062 157.056 417.818 156.608 418.756 156.608C418.952 156.608 419.106 156.622 419.232 156.636ZM419.485 162.6L420.745 161.592C421.179 162.306 422.019 162.782 422.873 162.782C423.587 162.782 424.245 162.53 424.245 161.872C424.245 161.242 423.629 161.172 422.467 160.934C421.305 160.696 419.975 160.402 419.975 158.834C419.975 157.49 421.151 156.51 422.845 156.51C424.133 156.51 425.281 157.084 425.813 157.896L424.679 158.918C424.259 158.26 423.559 157.882 422.747 157.882C422.061 157.882 421.613 158.19 421.613 158.68C421.613 159.212 422.145 159.31 423.069 159.506C424.315 159.772 425.883 160.038 425.883 161.718C425.883 163.202 424.525 164.154 422.859 164.154C421.501 164.154 420.143 163.608 419.485 162.6Z" fill="#20336B"/>
<path d="M40 141.5C55.1878 141.5 67.5 129.188 67.5 114C67.5 98.8122 55.1878 86.5 40 86.5C24.8122 86.5 12.5 98.8122 12.5 114C12.5 129.188 24.8122 141.5 40 141.5Z" stroke="#20336B"/>
<mask id="mask6_2010_6894" style="mask-type:luminance" maskUnits="userSpaceOnUse" x="28" y="100" width="24" height="26">
<path d="M52 100.998H28V125.998H52V100.998Z" fill="white"/>
</mask>
<g mask="url(#mask6_2010_6894)">
<mask id="mask7_2010_6894" style="mask-type:luminance" maskUnits="userSpaceOnUse" x="28" y="101" width="24" height="25">
<path d="M52 101.998H28V126H52V101.998Z" fill="white"/>
</mask>
<g mask="url(#mask7_2010_6894)">
<path d="M33.0938 113.199H48.6254C48.8852 113.199 49.1301 113.292 49.2878 113.451C49.4455 113.609 49.4979 113.815 49.4296 114.008L47.7188 118.825C47.4223 119.66 46.4345 120.24 45.3071 120.24H35.0237" stroke="#20336B" stroke-linecap="round" stroke-linejoin="round"/>
<path d="M30.5469 109.998H30.8619C31.65 109.998 32.3304 110.422 32.4927 111.014L35.2685 121.143C35.4309 121.735 36.1113 122.159 36.8994 122.159H46.3802" stroke="#20336B" stroke-linecap="round" stroke-linejoin="round"/>
<path fill-rule="evenodd" clip-rule="evenodd" d="M36.3828 124.719C37.0732 124.719 37.6328 124.289 37.6328 123.759C37.6328 123.229 37.0732 122.799 36.3828 122.799C35.6925 122.799 35.1328 123.229 35.1328 123.759C35.1328 124.289 35.6925 124.719 36.3828 124.719Z" stroke="#20336B" stroke-linecap="round" stroke-linejoin="round"/>
<path fill-rule="evenodd" clip-rule="evenodd" d="M44.7109 124.719C45.4012 124.719 45.9609 124.289 45.9609 123.759C45.9609 123.229 45.4012 122.799 44.7109 122.799C44.0205 122.799 43.4609 123.229 43.4609 123.759C43.4609 124.289 44.0205 124.719 44.7109 124.719Z" stroke="#20336B" stroke-linecap="round" stroke-linejoin="round"/>
<path fill-rule="evenodd" clip-rule="evenodd" d="M41.5 102.957C43.9853 102.957 46 104.891 46 107.277C46 109.663 43.9853 111.598 41.5 111.598C39.0147 111.598 37 109.663 37 107.277C37 104.891 39.0147 102.957 41.5 102.957Z" stroke="#20336B" stroke-linecap="round" stroke-linejoin="round"/>
<path d="M41.5 109.006V105.55" stroke="#24BAF2" stroke-linecap="round" stroke-linejoin="round"/>
<path d="M39.7031 107.278L41.5031 109.006L43.3031 107.278" stroke="#24BAF2" stroke-linecap="round" stroke-linejoin="round"/>
</g>
</g>
</svg>
