<svg width="49" height="48" viewBox="0 0 49 48" fill="none" xmlns="http://www.w3.org/2000/svg">
<g clip-path="url(#clip0_2120_3520)">
<path d="M48 24C48 11.0213 37.4787 0.5 24.5 0.5C11.5213 0.5 1 11.0213 1 24C1 36.9787 11.5213 47.5 24.5 47.5C37.4787 47.5 48 36.9787 48 24Z" stroke="white"/>
<path d="M35.9294 26.6589C35.8397 26.3465 35.6667 26.0645 35.4289 25.8431C35.1911 25.6217 34.8975 25.4692 34.5796 25.4019C34.1641 25.3135 33.732 25.378 33.363 25.5741C33.5767 24.2454 33.4644 22.871 33.0248 21.5898C32.9408 21.3449 32.6741 21.2147 32.4292 21.2986C32.1844 21.3826 32.054 21.6492 32.138 21.8941C32.6573 23.4072 32.6615 25.0669 32.1528 26.5818L28.4171 29.8996C28.1885 30.1025 27.936 30.2768 27.6652 30.4187C27.7421 30.1085 27.735 29.7835 27.6448 29.477C27.5733 29.2352 27.4519 29.0112 27.2884 28.8193C27.1249 28.6274 26.9231 28.4719 26.6958 28.3629L23.3865 26.7779C21.9397 26.0849 20.2464 26.0047 18.7406 26.5575L18.4042 26.6811C17.4705 24.0435 18.1204 21.1183 20.1199 19.1189L23.4293 15.8096H27.093L29.897 18.6136C30.0801 18.7966 30.3768 18.7966 30.56 18.6136C30.743 18.4305 30.743 18.1337 30.56 17.9506L27.8808 15.2716L28.8493 12.4844C28.9792 12.1107 28.8358 11.7031 28.5006 11.493C28.1655 11.2829 27.7361 11.3316 27.4563 11.6112L27.4506 11.617C27.2568 11.8108 26.9415 11.8108 26.7477 11.617C25.9249 10.7943 24.5864 10.7943 23.7637 11.617C23.6698 11.7109 23.545 11.7625 23.4122 11.7625C23.2795 11.7625 23.1547 11.7108 23.0608 11.617C22.7808 11.337 22.3511 11.2885 22.0158 11.4992C21.6805 11.7099 21.5377 12.1181 21.6685 12.4919L22.6412 15.2718L19.4569 18.456C18.2785 19.6345 17.4952 21.1203 17.1917 22.7528C16.9255 24.1844 17.0408 25.6441 17.5234 27.0045L16.7844 27.2759C16.5385 26.9562 16.1525 26.7495 15.7189 26.7495H13.3438C12.6028 26.7496 12 27.3524 12 28.0933V33.656C12 34.3969 12.6028 34.9998 13.3438 34.9998H25.6987C27.6393 34.9998 29.4745 34.2549 30.8661 32.9024L35.4562 28.4414C35.6895 28.2152 35.8567 27.9298 35.9401 27.6158C36.0235 27.3017 36.0197 26.9709 35.9294 26.6589ZM23.4122 12.7001C23.7954 12.7001 24.1556 12.5509 24.4266 12.2799C24.8838 11.8228 25.6276 11.8228 26.0847 12.2799C26.3557 12.5509 26.7159 12.7001 27.0991 12.7001C27.3712 12.7001 27.6317 12.6249 27.8569 12.4843L27.0271 14.8721H23.4946L22.6602 12.4878C22.8842 12.6261 23.1424 12.7001 23.4122 12.7001ZM12.9375 33.656V28.0933C12.9375 27.8693 13.1198 27.6871 13.3438 27.6871H15.7188C15.9429 27.6871 16.1251 27.8693 16.1251 28.0933V33.656C16.1251 33.88 15.9429 34.0623 15.7188 34.0623H13.3438C13.1198 34.0623 12.9375 33.8801 12.9375 33.656ZM34.8028 27.7691L30.2127 32.2302C28.9971 33.4116 27.3939 34.0623 25.6987 34.0623H16.9997C17.0415 33.9309 17.0627 33.7939 17.0627 33.656V28.1725L19.0637 27.4377C20.3335 26.9715 21.7616 27.0391 22.9816 27.6235L26.2909 29.2085C26.514 29.3154 26.6755 29.505 26.7455 29.7424C26.8156 29.9798 26.7829 30.2268 26.6535 30.4377C26.5529 30.6022 26.3999 30.7282 26.2192 30.7954C26.0385 30.8627 25.8404 30.8674 25.6567 30.8087L21.2604 29.4106C21.0137 29.3323 20.7501 29.4686 20.6716 29.7154C20.5931 29.9621 20.7295 30.2257 20.9763 30.3042L25.3726 31.7022C25.5496 31.7586 25.7343 31.7874 25.9201 31.7874C25.942 31.7874 25.9639 31.7861 25.9857 31.7853C27.1131 31.7691 28.1953 31.3506 29.0396 30.6007L33.6385 26.5161C33.7389 26.4274 33.8585 26.3633 33.9881 26.3291C34.1176 26.2949 34.2533 26.2915 34.3845 26.319C34.6987 26.3859 34.9394 26.6101 35.0284 26.9187C35.1176 27.2273 35.0332 27.5452 34.8028 27.7691Z" fill="white"/>
<path d="M31.6301 20.3281C31.7533 20.3281 31.8743 20.2784 31.9615 20.1907C32.0491 20.1027 32.0985 19.9836 32.0988 19.8593C32.0988 19.736 32.0487 19.6155 31.9615 19.5279C31.8733 19.4403 31.7543 19.391 31.6301 19.3905C31.5067 19.3905 31.3863 19.4407 31.2987 19.5279C31.2111 19.6161 31.1618 19.7351 31.1613 19.8593C31.1613 19.9831 31.2115 20.1035 31.2987 20.1907C31.3866 20.2785 31.5058 20.3279 31.6301 20.3281Z" fill="white"/>
<path d="M28.9518 22.3357H27.9662V21.3885H28.9518C29.0999 21.3885 29.2199 21.2685 29.2199 21.1204C29.2199 20.9723 29.0999 20.8523 28.9518 20.8523H27.9662V19.5379C27.9662 19.3462 27.9283 19.2053 27.8536 19.1196C27.7826 19.038 27.6892 19 27.5598 19C27.4364 19 27.3466 19.0377 27.2769 19.1188C27.203 19.2046 27.1656 19.3457 27.1656 19.5381V20.8525H25.3116L24.5234 19.6596C24.4595 19.5587 24.3954 19.4582 24.3309 19.3578C24.2754 19.2716 24.2213 19.2014 24.1702 19.149C24.125 19.1026 24.0735 19.0666 24.0131 19.039C23.9563 19.0131 23.8839 19 23.7984 19C23.6893 19 23.5902 19.03 23.4953 19.0914C23.4015 19.1521 23.3366 19.2272 23.2969 19.321C23.2621 19.4102 23.2437 19.5467 23.2437 19.723V20.8523H22.268C22.1199 20.8524 21.9999 20.9723 21.9999 21.1205C21.9999 21.2686 22.1199 21.3885 22.268 21.3885H23.2438V22.3359H22.268C22.1199 22.3359 21.9999 22.4558 21.9999 22.604C21.9999 22.7521 22.1199 22.8719 22.268 22.8719H23.2438V24.3725C23.2438 24.5587 23.2829 24.6981 23.3604 24.7867C23.4341 24.8712 23.5275 24.9104 23.6544 24.9104C23.7768 24.9104 23.8695 24.871 23.9464 24.7864C24.0251 24.6996 24.0649 24.5604 24.0649 24.3726V22.8719H25.7425L26.6503 24.264C26.7139 24.3566 26.7784 24.4486 26.8436 24.54C26.9023 24.6218 26.9663 24.6938 27.0338 24.754C27.0946 24.8084 27.1598 24.8484 27.2275 24.8727C27.2972 24.8978 27.3788 24.9105 27.4692 24.9105C27.7148 24.9105 27.9662 24.8354 27.9662 24.278V22.8719H28.9517C29.0999 22.8719 29.2199 22.7519 29.2199 22.6038C29.2199 22.4557 29.0999 22.3357 28.9518 22.3357ZM27.1655 21.3885V22.3357H26.292L25.6661 21.3885H27.1655ZM24.0649 20.3001L24.4252 20.8523H24.0649V20.3001ZM24.0649 22.3357V21.3885H24.7749L25.3928 22.3357H24.0649ZM27.1655 23.6578L26.6464 22.8719H27.1655V23.6578Z" fill="white"/>
</g>
<defs>
<clipPath id="clip0_2120_3520">
<rect width="49" height="48" fill="white"/>
</clipPath>
</defs>
</svg>
