<svg width="36" height="36" viewBox="0 0 36 36" fill="none" xmlns="http://www.w3.org/2000/svg">
<path d="M35.8944 23.4885C35.7598 23.02 35.5003 22.597 35.1436 22.2649C34.7869 21.9328 34.3465 21.704 33.8697 21.6031C33.2465 21.4704 32.5983 21.5672 32.0448 21.8614C32.3653 19.8683 32.1969 17.8066 31.5375 15.8848C31.4114 15.5175 31.0114 15.3222 30.6441 15.448C30.2768 15.574 30.0812 15.974 30.2072 16.3413C30.9862 18.6109 30.9925 21.1006 30.2294 23.3729L24.6259 28.3496C24.2829 28.654 23.9042 28.9155 23.498 29.1283C23.6133 28.663 23.6027 28.1755 23.4674 27.7157C23.3601 27.3531 23.178 27.017 22.9328 26.7292C22.6876 26.4413 22.3848 26.2081 22.0439 26.0446L17.0799 23.667C14.9097 22.6275 12.3697 22.5073 10.111 23.3365L9.6064 23.5218C8.20586 19.5654 9.18071 15.1776 12.1799 12.1784L17.1441 7.2144H22.6397L26.8457 11.4205C27.1204 11.695 27.5655 11.695 27.8402 11.4205C28.1148 11.1459 28.1148 10.7006 27.8402 10.426L23.8214 6.40739L25.2742 2.22659C25.469 1.6661 25.2539 1.05464 24.7511 0.739488C24.2485 0.424405 23.6043 0.497463 23.1847 0.916823L23.1761 0.925472C22.8854 1.21623 22.4124 1.21623 22.1218 0.925472C20.8876 -0.308491 18.8798 -0.308491 17.6457 0.925472C17.5049 1.06631 17.3177 1.1438 17.1185 1.1438C16.9194 1.1438 16.7322 1.06624 16.5914 0.925472C16.1714 0.505479 15.5268 0.432773 15.0238 0.74884C14.5208 1.06484 14.3066 1.67714 14.5028 2.23784L15.9619 6.40781L11.1855 11.1841C9.41789 12.9518 8.24285 15.1806 7.78763 17.6293C7.38831 19.7767 7.56128 21.9664 8.28518 24.007L7.17666 24.414C6.80779 23.9345 6.22874 23.6245 5.57839 23.6245H2.01573C0.904255 23.6246 0 24.5288 0 25.6402V33.9843C0 35.0957 0.904255 36 2.01573 36H20.5483C23.4592 36 26.212 34.8827 28.2994 32.8539L35.1846 26.1623C35.5345 25.823 35.7854 25.3949 35.9105 24.9239C36.0355 24.4528 36.0299 23.9566 35.8944 23.4885ZM17.1185 2.55018C17.6932 2.55018 18.2336 2.32636 18.6401 1.91994C19.3258 1.23423 20.4416 1.23423 21.1273 1.91994C21.5337 2.32636 22.0741 2.55018 22.6489 2.55018C23.057 2.55018 23.4477 2.43739 23.7855 2.22645L22.5409 5.80817H17.242L15.9905 2.23179C16.3264 2.43922 16.7138 2.55018 17.1185 2.55018ZM1.40631 33.9843V25.6402C1.40631 25.3042 1.67969 25.0308 2.01573 25.0308H5.57832C5.91436 25.0308 6.18775 25.3042 6.18775 25.6402V33.9843C6.18775 34.3203 5.91436 34.5937 5.57832 34.5937H2.01573C1.67969 34.5938 1.40631 34.3204 1.40631 33.9843ZM34.2045 25.1539L27.3193 31.8455C25.4958 33.6177 23.0911 34.5938 20.5483 34.5938H7.49962C7.56229 34.3967 7.59415 34.1911 7.59405 33.9843V25.7589L10.5957 24.6568C12.5003 23.9575 14.6425 24.0589 16.4725 24.9355L21.4365 27.313C21.7712 27.4734 22.0135 27.7578 22.1185 28.1139C22.2236 28.4699 22.1746 28.8404 21.9804 29.1568C21.8295 29.4036 21.6001 29.5925 21.329 29.6934C21.0579 29.7943 20.7608 29.8013 20.4853 29.7133L13.8907 27.6162C13.5207 27.4987 13.1253 27.7031 13.0075 28.0733C12.8898 28.4434 13.0944 28.8388 13.4645 28.9565L20.0591 31.0535C20.3246 31.1382 20.6017 31.1813 20.8803 31.1814C20.9132 31.1814 20.946 31.1794 20.9788 31.1782C22.6699 31.1539 24.2932 30.5261 25.5596 29.4013L32.458 23.2744C32.6086 23.1413 32.7881 23.0452 32.9824 22.9939C33.1767 22.9425 33.3803 22.9374 33.577 22.9787C34.0483 23.079 34.4094 23.4153 34.5429 23.8783C34.6767 24.3412 34.5501 24.818 34.2045 25.1539Z" fill="#C8D0DB"/>
<path d="M29.4453 13.9922C29.6302 13.9922 29.8116 13.9177 29.9424 13.7862C30.0739 13.6541 30.1479 13.4755 30.1484 13.2891C30.1484 13.1041 30.0732 12.9234 29.9424 12.792C29.8102 12.6606 29.6316 12.5866 29.4453 12.5859C29.2603 12.5859 29.0797 12.6612 28.9482 12.792C28.8169 12.9242 28.7429 13.1027 28.7422 13.2891C28.7422 13.4747 28.8174 13.6554 28.9482 13.7862C29.0801 13.9179 29.2589 13.992 29.4453 13.9922Z" fill="#C8D0DB"/>
<path d="M25.4279 17.0036H23.9495V15.5828H25.4279C25.65 15.5828 25.8301 15.4029 25.8301 15.1807C25.8301 14.9585 25.65 14.7785 25.4279 14.7785H23.9495V12.807C23.9495 12.5193 23.8926 12.308 23.7805 12.1794C23.674 12.057 23.5339 12 23.3399 12C23.1548 12 23.02 12.0566 22.9155 12.1782C22.8047 12.307 22.7485 12.5186 22.7485 12.8072V14.7788H19.9676L18.7852 12.9895C18.6894 12.8382 18.5932 12.6873 18.4964 12.5367C18.4132 12.4074 18.3321 12.3021 18.2554 12.2235C18.1876 12.1539 18.1103 12.1 18.0198 12.0586C17.9345 12.0197 17.826 12.0001 17.6977 12.0001C17.534 12.0001 17.3854 12.045 17.2431 12.1371C17.1023 12.2282 17.005 12.3409 16.9455 12.4816C16.8933 12.6153 16.8657 12.8201 16.8657 13.0846V14.7786H15.4021C15.18 14.7787 15 14.9586 15 15.1808C15 15.403 15.18 15.5829 15.4021 15.5829H16.8658V17.0039H15.4021C15.18 17.0039 15 17.1838 15 17.4061C15 17.6282 15.18 17.808 15.4021 17.808H16.8658V20.0589C16.8658 20.3382 16.9244 20.5473 17.0407 20.6802C17.1512 20.8069 17.2914 20.8657 17.4817 20.8657C17.6653 20.8657 17.8044 20.8066 17.9197 20.6797C18.0378 20.5496 18.0975 20.3407 18.0975 20.059V17.808H20.6139L21.9756 19.8961C22.071 20.035 22.1677 20.173 22.2656 20.3101C22.3536 20.4328 22.4496 20.5409 22.5508 20.6312C22.642 20.7128 22.7398 20.7727 22.8414 20.8092C22.946 20.8468 23.0683 20.8659 23.204 20.8659C23.5723 20.8659 23.9494 20.7532 23.9494 19.9171V17.808H25.4278C25.65 17.808 25.83 17.6279 25.83 17.4058C25.8301 17.1837 25.65 17.0036 25.4279 17.0036ZM22.7484 15.5828V17.0036H21.4382L20.4993 15.5828H22.7484ZM18.0975 13.9502L18.6379 14.7785H18.0975V13.9502ZM18.0975 17.0036V15.5828H19.1625L20.0893 17.0036H18.0975ZM22.7484 18.9868L21.9697 17.808H22.7484V18.9868Z" fill="#C8D0DB"/>
</svg>
