<svg width="241" height="322" viewBox="0 0 241 322" fill="none" xmlns="http://www.w3.org/2000/svg">
<path d="M0 165H21M21 165C24.9985 165 31.0015 176.255 31.0015 192.7C31.0015 209.145 31.0015 275.162 31.0015 306.114C31.3349 311.076 34.2015 321 43.0015 321C51.8015 321 65.8333 321 72 321M21 165C24.1667 163.582 31.0015 159.526 31.0015 140.246C31.0015 120.965 31.0015 56.1301 31.0015 26.1225C31.0015 16.9076 31.0028 1.88018 43.0015 1.31311C55.0003 0.746038 67.3333 1.07683 72 1.31311M168 1.31311H184.5C188 1.78567 195 7.40914 195 26.1225C195 44.8359 195 154.348 195 212C195 218.38 195 224.5 207.5 224.5C219.507 224.5 234.167 224.264 240 224.5M168 321H189.5C192.5 321 195 318.873 195 306.823C195 295.482 195 261.303 195 245C195.333 241.22 197.5 234.367 207.5 234.367C217.5 234.367 233 234.604 240 234.367" stroke="white"/>
</svg>
