<svg width="49" height="48" viewBox="0 0 49 48" fill="none" xmlns="http://www.w3.org/2000/svg">
<circle cx="24.5" cy="24" r="24" fill="white"/>
<path d="M13.3594 35.5009L14.0037 33.6406L14.4678 32.7544C14.5034 32.6865 14.6034 32.6406 14.7161 32.6406H24.2913C24.404 32.6406 25.5037 32.6444 25.5037 32.6444" stroke="#20336B" stroke-linecap="round" stroke-linejoin="round"/>
<path fill-rule="evenodd" clip-rule="evenodd" d="M16 22.084H22V32.644H16V22.084Z" stroke="#20336B" stroke-linecap="round" stroke-linejoin="round"/>
<path d="M28 35.5234H13" stroke="#20336B" stroke-linecap="round" stroke-linejoin="round"/>
<path d="M19 22.084V32.644" stroke="#20336B" stroke-linecap="round" stroke-linejoin="round"/>
<path d="M22 22.084V32.644" stroke="#20336B" stroke-linecap="round" stroke-linejoin="round"/>
<path d="M27 22.084V27.084" stroke="#20336B" stroke-linecap="round" stroke-linejoin="round"/>
<path d="M30 22.084V25.5005" stroke="#20336B" stroke-linecap="round" stroke-linejoin="round"/>
<path d="M32.5 22.709V26.2089" stroke="#20336B" stroke-linecap="round" stroke-linejoin="round"/>
<path fill-rule="evenodd" clip-rule="evenodd" d="M34.8674 19.577C34.9427 19.36 34.8481 19.1222 34.6414 19.0087L24.7454 13.576C24.5907 13.4903 24.4001 13.4903 24.2454 13.576L14.3454 19.0048C14.1387 19.1184 14.0442 19.3562 14.1194 19.5731L14.8834 21.7552C14.9514 21.9512 15.1423 22.0834 15.3574 22.0835H33.6374C33.8525 22.0834 34.0434 21.9512 34.1114 21.7552L34.8674 19.577Z" stroke="#20336B" stroke-linecap="round" stroke-linejoin="round"/>
<path d="M34.8272 19.2031H14.1562" stroke="#20336B" stroke-linecap="round" stroke-linejoin="round"/>
<path fill-rule="evenodd" clip-rule="evenodd" d="M31.4634 30.8228L31.4869 30.8463C31.6919 31.0513 32.0244 31.0513 32.2295 30.8463L33.2705 29.8047C33.5765 29.4965 33.5765 28.9993 33.2705 28.6911L32.8088 28.2298C32.5008 27.9234 32.003 27.9234 31.695 28.2298L30.6538 29.2704C30.4487 29.4754 30.4487 29.8078 30.6538 30.0128L30.6772 30.0362L31.4634 30.8228Z" stroke="#00BAF2" stroke-linecap="round" stroke-linejoin="round"/>
<path fill-rule="evenodd" clip-rule="evenodd" d="M29.5369 31.1772L29.5135 31.1537C29.3084 30.9488 28.9759 30.9488 28.7708 31.1537L27.7297 32.1952C27.4234 32.5033 27.4234 33.0007 27.7297 33.3087L28.1911 33.77C28.4991 34.0767 28.9971 34.0767 29.3051 33.77L30.346 32.7295C30.4446 32.6311 30.5 32.4976 30.5 32.3583C30.5 32.2191 30.4446 32.0855 30.346 31.9871L30.3226 31.9637L29.5369 31.1772Z" stroke="#00BAF2" stroke-linecap="round" stroke-linejoin="round"/>
<path d="M29.5 32L31.5 30" stroke="#00BAF2" stroke-linecap="round" stroke-linejoin="round"/>
<path fill-rule="evenodd" clip-rule="evenodd" d="M25.5 31C25.5 28.2386 27.7386 26 30.5 26C33.2614 26 35.5 28.2386 35.5 31C35.5 33.7614 33.2614 36 30.5 36C27.7386 36 25.5 33.7614 25.5 31Z" stroke="#20336B" stroke-linecap="round" stroke-linejoin="round"/>
</svg>
