<svg width="36" height="29" viewBox="0 0 36 29" fill="none" xmlns="http://www.w3.org/2000/svg">
<path fill-rule="evenodd" clip-rule="evenodd" d="M6.32031 1H34.0003C34.5526 1 35.0003 1.44772 35.0003 2V21.04C35.0003 21.5923 34.5526 22.04 34.0003 22.04H17.0569C16.9835 22.3809 16.8923 22.7147 16.7845 23.04H34.0003C35.1049 23.04 36.0003 22.1446 36.0003 21.04V2C36.0003 0.895431 35.1049 0 34.0003 0H6.32031C5.21574 0 4.32031 0.895432 4.32031 2V11.9825C4.64119 11.7848 4.97509 11.6084 5.32031 11.4553V2C5.32031 1.44772 5.76803 1 6.32031 1Z" fill="#C8D0DB"/>
<rect x="8.64062" y="4.32031" width="17.28" height="1.44" rx="0.72" fill="#C8D0DB"/>
<rect x="8.64062" y="7.19922" width="17.28" height="1.44" rx="0.72" fill="#C8D0DB"/>
<circle cx="8.64" cy="20.1595" r="8.14" stroke="#C8D0DB"/>
<mask id="path-5-inside-1_292_4811" fill="white">
<path fill-rule="evenodd" clip-rule="evenodd" d="M7.01651 18.0709L8.49014 16.4076C9.03952 15.7876 9.98753 15.7303 10.6076 16.2796L12.1713 17.6651C12.7914 18.2145 12.8487 19.1625 12.2993 19.7826L10.9064 21.3547L11.6707 22L13.0478 20.4457C13.9634 19.4123 13.8679 17.8323 12.8345 16.9166L11.2708 15.5312C10.2373 14.6155 8.65728 14.711 7.74166 15.7445L6.25217 17.4256L7.01651 18.0709ZM6.0023 19.2156L5.23796 18.5703L4.00554 19.9613C3.08992 20.9948 3.18542 22.5748 4.21886 23.4904L5.78261 24.8759C6.81605 25.7915 8.39608 25.696 9.31171 24.6626L10.6565 23.1447L9.8922 22.4994L8.56322 23.9994C8.01385 24.6195 7.06583 24.6768 6.44577 24.1274L4.88202 22.7419C4.26195 22.1925 4.20465 21.2445 4.75403 20.6245L6.0023 19.2156Z"/>
</mask>
<path d="M8.49014 16.4076L9.23862 17.0708V17.0708L8.49014 16.4076ZM7.01651 18.0709L6.37144 18.835L7.1175 19.4648L7.76499 18.734L7.01651 18.0709ZM10.6076 16.2796L9.94444 17.0281V17.0281L10.6076 16.2796ZM12.1713 17.6651L11.5082 18.4136L12.1713 17.6651ZM12.2993 19.7826L11.5509 19.1194L12.2993 19.7826ZM10.9064 21.3547L10.1579 20.6916L9.47872 21.4582L10.2613 22.1189L10.9064 21.3547ZM11.6707 22L11.0257 22.7641L11.7717 23.394L12.4192 22.6632L11.6707 22ZM13.0478 20.4457L13.7963 21.1089L13.7963 21.1089L13.0478 20.4457ZM12.8345 16.9166L13.4977 16.1682L13.4977 16.1682L12.8345 16.9166ZM11.2708 15.5312L10.6076 16.2796V16.2796L11.2708 15.5312ZM7.74166 15.7445L8.49014 16.4076V16.4076L7.74166 15.7445ZM6.25217 17.4256L5.50369 16.7625L4.82449 17.5291L5.6071 18.1897L6.25217 17.4256ZM6.0023 19.2156L6.75078 19.8787L7.42999 19.1121L6.64738 18.4515L6.0023 19.2156ZM5.23796 18.5703L5.88304 17.8062L5.13697 17.1764L4.48948 17.9072L5.23796 18.5703ZM4.00554 19.9613L3.25706 19.2982H3.25706L4.00554 19.9613ZM4.21886 23.4904L3.55571 24.2389H3.55571L4.21886 23.4904ZM5.78261 24.8759L6.44577 24.1274H6.44577L5.78261 24.8759ZM9.31171 24.6626L10.0602 25.3257L10.0602 25.3257L9.31171 24.6626ZM10.6565 23.1447L11.405 23.8079L12.0842 23.0413L11.3016 22.3806L10.6565 23.1447ZM9.8922 22.4994L10.5373 21.7353L9.7912 21.1055L9.14371 21.8363L9.8922 22.4994ZM8.56322 23.9994L7.81474 23.3363L8.56322 23.9994ZM6.44577 24.1274L5.78261 24.8759L5.78261 24.8759L6.44577 24.1274ZM4.88202 22.7419L5.54517 21.9934L4.88202 22.7419ZM4.75403 20.6245L5.50251 21.2876L4.75403 20.6245ZM7.74166 15.7445L6.26803 17.4077L7.76499 18.734L9.23862 17.0708L7.74166 15.7445ZM11.2708 15.5312C10.2373 14.6155 8.65728 14.711 7.74166 15.7445L9.23862 17.0708C9.42175 16.8641 9.73775 16.845 9.94444 17.0281L11.2708 15.5312ZM12.8345 16.9166L11.2708 15.5312L9.94444 17.0281L11.5082 18.4136L12.8345 16.9166ZM13.0478 20.4457C13.9634 19.4123 13.8679 17.8323 12.8345 16.9166L11.5082 18.4136C11.7149 18.5967 11.734 18.9127 11.5509 19.1194L13.0478 20.4457ZM11.6549 22.0179L13.0478 20.4457L11.5509 19.1194L10.1579 20.6916L11.6549 22.0179ZM10.2613 22.1189L11.0257 22.7641L12.3158 21.2359L11.5515 20.5906L10.2613 22.1189ZM12.4192 22.6632L13.7963 21.1089L12.2993 19.7826L10.9223 21.3368L12.4192 22.6632ZM13.7963 21.1089C15.0782 19.6621 14.9445 17.45 13.4977 16.1682L12.1713 17.6651C12.7914 18.2145 12.8487 19.1625 12.2993 19.7826L13.7963 21.1089ZM13.4977 16.1682L11.9339 14.7827L10.6076 16.2796L12.1713 17.6651L13.4977 16.1682ZM11.9339 14.7827C10.4871 13.5008 8.27505 13.6345 6.99318 15.0813L8.49014 16.4076C9.03952 15.7876 9.98753 15.7303 10.6076 16.2796L11.9339 14.7827ZM6.99318 15.0813L5.50369 16.7625L7.00065 18.0888L8.49014 16.4076L6.99318 15.0813ZM5.6071 18.1897L6.37144 18.835L7.66158 17.3068L6.89725 16.6615L5.6071 18.1897ZM6.64738 18.4515L5.88304 17.8062L4.59289 19.3344L5.35723 19.9797L6.64738 18.4515ZM4.48948 17.9072L3.25706 19.2982L4.75403 20.6245L5.98645 19.2335L4.48948 17.9072ZM3.25706 19.2982C1.97519 20.745 2.10889 22.957 3.55571 24.2389L4.88202 22.7419C4.26195 22.1925 4.20465 21.2445 4.75403 20.6245L3.25706 19.2982ZM3.55571 24.2389L5.11946 25.6244L6.44577 24.1274L4.88202 22.7419L3.55571 24.2389ZM5.11946 25.6244C6.56627 26.9062 8.77831 26.7725 10.0602 25.3257L8.56322 23.9994C8.01385 24.6195 7.06583 24.6768 6.44577 24.1274L5.11946 25.6244ZM10.0602 25.3257L11.405 23.8079L9.90805 22.4816L8.56322 23.9994L10.0602 25.3257ZM11.3016 22.3806L10.5373 21.7353L9.24712 23.2636L10.0115 23.9088L11.3016 22.3806ZM9.31171 24.6626L10.6407 23.1626L9.14371 21.8363L7.81474 23.3363L9.31171 24.6626ZM5.78261 24.8759C6.81605 25.7915 8.39608 25.696 9.31171 24.6626L7.81474 23.3363C7.63162 23.5429 7.31561 23.5621 7.10892 23.3789L5.78261 24.8759ZM4.21886 23.4904L5.78261 24.8759L7.10892 23.3789L5.54517 21.9934L4.21886 23.4904ZM4.00554 19.9613C3.08992 20.9948 3.18542 22.5748 4.21886 23.4904L5.54517 21.9934C5.33848 21.8103 5.31938 21.4943 5.50251 21.2876L4.00554 19.9613ZM5.25382 18.5524L4.00554 19.9613L5.50251 21.2876L6.75078 19.8787L5.25382 18.5524Z" fill="#C8D0DB" mask="url(#path-5-inside-1_292_4811)"/>
<rect x="10.0312" y="17.8613" width="1.32923" height="5.31692" rx="0.5" transform="rotate(43.9974 10.0312 17.8613)" fill="#C8D0DB"/>
<circle cx="25.2016" cy="16.5609" r="3.1" stroke="#C8D0DB"/>
<circle cx="28.0844" cy="16.5609" r="3.1" stroke="#C8D0DB"/>
</svg>
