<svg width="36" height="29" viewBox="0 0 36 29" fill="none" xmlns="http://www.w3.org/2000/svg">
<path fill-rule="evenodd" clip-rule="evenodd" d="M6.32031 1H34.0003C34.5526 1 35.0003 1.44772 35.0003 2V21.04C35.0003 21.5923 34.5526 22.04 34.0003 22.04H17.0564C16.9829 22.3809 16.8917 22.7147 16.7838 23.04H34.0003C35.1049 23.04 36.0003 22.1446 36.0003 21.04V2C36.0003 0.895431 35.1049 0 34.0003 0H6.32031C5.21574 0 4.32031 0.895432 4.32031 2V11.9803C4.64119 11.7826 4.97509 11.6062 5.32031 11.4531V2C5.32031 1.44772 5.76803 1 6.32031 1Z" fill="#C8D0DB"/>
<rect x="8.64062" y="4.32031" width="17.28" height="1.44" rx="0.72" fill="#C8D0DB"/>
<rect x="8.64062" y="7.19922" width="17.28" height="1.44" rx="0.72" fill="#C8D0DB"/>
<circle cx="8.64" cy="20.1595" r="8.14" stroke="#C8D0DB"/>
<mask id="path-5-inside-1_3285_7550" fill="white">
<path fill-rule="evenodd" clip-rule="evenodd" d="M7.02054 18.0702L8.49405 16.4071C9.04342 15.7871 9.99144 15.7298 10.6115 16.2792L12.1753 17.6646C12.7953 18.214 12.8526 19.162 12.3032 19.7821L10.9104 21.3541L11.6748 21.9994L13.0517 20.4453C13.9674 19.4118 13.8718 17.8318 12.8384 16.9162L11.2747 15.5307C10.2412 14.615 8.66119 14.7106 7.74556 15.744L6.2562 17.425L7.02054 18.0702ZM6.00633 19.215L5.24199 18.5697L4.00945 19.9608C3.09382 20.9943 3.18933 22.5743 4.22277 23.4899L5.78652 24.8754C6.81996 25.791 8.39999 25.6955 9.31561 24.6621L10.6606 23.1441L9.89623 22.4988L8.56713 23.9989C8.01775 24.619 7.06974 24.6763 6.44967 24.1269L4.88592 22.7414C4.26586 22.1921 4.20856 21.244 4.75793 20.624L6.00633 19.215Z"/>
</mask>
<path d="M8.49405 16.4071L9.24253 17.0703V17.0703L8.49405 16.4071ZM7.02054 18.0702L6.37547 18.8344L7.12153 19.4642L7.76902 18.7334L7.02054 18.0702ZM10.6115 16.2792L9.94835 17.0276V17.0276L10.6115 16.2792ZM12.1753 17.6646L11.5121 18.4131L12.1753 17.6646ZM12.3032 19.7821L11.5548 19.1189L12.3032 19.7821ZM10.9104 21.3541L10.162 20.691L9.48275 21.4576L10.2654 22.1182L10.9104 21.3541ZM11.6748 21.9994L11.0297 22.7635L11.7758 23.3933L12.4233 22.6625L11.6748 21.9994ZM13.0517 20.4453L13.8002 21.1084L13.8002 21.1084L13.0517 20.4453ZM12.8384 16.9162L13.5016 16.1677L13.5016 16.1677L12.8384 16.9162ZM11.2747 15.5307L10.6115 16.2792V16.2792L11.2747 15.5307ZM7.74556 15.744L8.49405 16.4071V16.4071L7.74556 15.744ZM6.2562 17.425L5.50772 16.7618L4.82852 17.5284L5.61113 18.1891L6.2562 17.425ZM6.00633 19.215L6.75481 19.8781L7.43402 19.1115L6.65141 18.4508L6.00633 19.215ZM5.24199 18.5697L5.88707 17.8056L5.141 17.1757L4.49351 17.9065L5.24199 18.5697ZM4.00945 19.9608L3.26097 19.2977H3.26097L4.00945 19.9608ZM4.22277 23.4899L3.55961 24.2384H3.55961L4.22277 23.4899ZM5.78652 24.8754L6.44967 24.1269H6.44967L5.78652 24.8754ZM9.31561 24.6621L10.0641 25.3252L10.0641 25.3252L9.31561 24.6621ZM10.6606 23.1441L11.409 23.8072L12.0882 23.0406L11.3056 22.38L10.6606 23.1441ZM9.89623 22.4988L10.5413 21.7347L9.79523 21.1049L9.14774 21.8357L9.89623 22.4988ZM8.56713 23.9989L7.81865 23.3358V23.3358L8.56713 23.9989ZM6.44967 24.1269L5.78652 24.8754L5.78652 24.8754L6.44967 24.1269ZM4.88592 22.7414L5.54908 21.993L4.88592 22.7414ZM4.75793 20.624L5.50641 21.2871L4.75793 20.624ZM7.74556 15.744L6.27206 17.4071L7.76902 18.7334L9.24253 17.0703L7.74556 15.744ZM11.2747 15.5307C10.2412 14.615 8.66119 14.7106 7.74556 15.744L9.24253 17.0703C9.42565 16.8636 9.74166 16.8445 9.94835 17.0276L11.2747 15.5307ZM12.8384 16.9162L11.2747 15.5307L9.94835 17.0276L11.5121 18.4131L12.8384 16.9162ZM13.0517 20.4453C13.9674 19.4118 13.8718 17.8318 12.8384 16.9162L11.5121 18.4131C11.7188 18.5962 11.7379 18.9123 11.5548 19.1189L13.0517 20.4453ZM11.6589 22.0173L13.0517 20.4453L11.5548 19.1189L10.162 20.691L11.6589 22.0173ZM10.2654 22.1182L11.0297 22.7635L12.3198 21.2353L11.5555 20.59L10.2654 22.1182ZM12.4233 22.6625L13.8002 21.1084L12.3032 19.7821L10.9263 21.3362L12.4233 22.6625ZM13.8002 21.1084C15.0821 19.6616 14.9484 17.4496 13.5016 16.1677L12.1753 17.6646C12.7953 18.214 12.8526 19.162 12.3032 19.7821L13.8002 21.1084ZM13.5016 16.1677L11.9378 14.7822L10.6115 16.2792L12.1753 17.6646L13.5016 16.1677ZM11.9378 14.7822C10.491 13.5003 8.27896 13.634 6.99708 15.0808L8.49405 16.4071C9.04342 15.7871 9.99144 15.7298 10.6115 16.2792L11.9378 14.7822ZM6.99708 15.0808L5.50772 16.7618L7.00468 18.0881L8.49405 16.4071L6.99708 15.0808ZM5.61113 18.1891L6.37547 18.8344L7.66561 17.3061L6.90128 16.6609L5.61113 18.1891ZM6.65141 18.4508L5.88707 17.8056L4.59692 19.3338L5.36126 19.9791L6.65141 18.4508ZM4.49351 17.9065L3.26097 19.2977L4.75793 20.624L5.99048 19.2328L4.49351 17.9065ZM3.26097 19.2977C1.97909 20.7445 2.1128 22.9565 3.55961 24.2384L4.88592 22.7414C4.26586 22.1921 4.20856 21.244 4.75793 20.624L3.26097 19.2977ZM3.55961 24.2384L5.12336 25.6239L6.44967 24.1269L4.88592 22.7414L3.55961 24.2384ZM5.12336 25.6239C6.57018 26.9058 8.78222 26.7721 10.0641 25.3252L8.56713 23.9989C8.01775 24.619 7.06974 24.6763 6.44967 24.1269L5.12336 25.6239ZM10.0641 25.3252L11.409 23.8072L9.91208 22.4809L8.56713 23.9989L10.0641 25.3252ZM11.3056 22.38L10.5413 21.7347L9.25115 23.2629L10.0155 23.9082L11.3056 22.38ZM9.31561 24.6621L10.6447 23.162L9.14774 21.8357L7.81865 23.3358L9.31561 24.6621ZM5.78652 24.8754C6.81996 25.791 8.39999 25.6955 9.31561 24.6621L7.81865 23.3358C7.63552 23.5425 7.31952 23.5616 7.11283 23.3784L5.78652 24.8754ZM4.22277 23.4899L5.78652 24.8754L7.11283 23.3784L5.54908 21.993L4.22277 23.4899ZM4.00945 19.9608C3.09382 20.9943 3.18933 22.5743 4.22277 23.4899L5.54908 21.993C5.34239 21.8098 5.32329 21.4938 5.50641 21.2871L4.00945 19.9608ZM5.25785 18.5518L4.00945 19.9608L5.50641 21.2871L6.75481 19.8781L5.25785 18.5518Z" fill="#C8D0DB" mask="url(#path-5-inside-1_3285_7550)"/>
<rect x="10.0352" y="17.8633" width="1.32923" height="5.31692" rx="0.5" transform="rotate(43.9974 10.0352 17.8633)" fill="#C8D0DB"/>
<circle cx="25.2016" cy="16.5609" r="3.1" stroke="#C8D0DB"/>
<circle cx="28.0805" cy="16.5609" r="3.1" stroke="#C8D0DB"/>
</svg>
