<svg width="25" height="28" viewBox="0 0 25 28" fill="none" xmlns="http://www.w3.org/2000/svg">
<path fill-rule="evenodd" clip-rule="evenodd" d="M4.27682 13.3804L0.0626419 7.23966C-0.0577633 7.05905 0.00243931 6.81824 0.183047 6.69783L1.4473 5.9152C1.62791 5.79479 1.92892 5.855 1.98913 6.09581L3.61459 9.88856C3.735 10.1294 4.03602 10.1896 4.27682 10.009L4.57784 9.70795C4.69825 9.58756 4.69825 9.40695 4.63804 9.28655L2.29014 3.6877C2.22994 3.44689 2.35034 3.20608 2.53095 3.14588L4.45744 2.66425C4.69825 2.60405 4.93905 2.78466 4.93905 3.02548C5.11967 4.47033 5.30027 5.855 5.48088 7.23966C5.54108 7.72128 5.66148 8.20289 5.66148 8.74472C5.66148 9.58756 6.0829 9.82836 6.68493 9.82836C6.92575 9.82836 7.10635 9.64774 7.10635 9.40695L5.9625 1.15919C5.9023 0.91838 6.0829 0.737772 6.32371 0.737772L9.39405 0.91838C9.63486 0.91838 9.81547 1.15919 9.75527 1.4C9.63486 2.24284 9.51445 3.08567 9.33385 3.86831C9.03283 5.7346 8.73182 7.54067 8.3104 9.40695C8.12979 10.2498 8.43081 10.4906 9.33385 10.4304C9.93588 7.11925 10.5379 3.7479 11.1399 0.316354C11.2001 0.0755443 11.4409 -0.0448609 11.6215 0.0153416L21.254 3.02548C21.6152 3.02548 21.7356 3.26628 21.6152 3.50709C21.1336 4.53054 20.6519 5.43358 20.1703 6.39682C19.2071 8.20289 18.2438 9.94877 17.2806 11.6946C17.2204 11.815 17.1602 11.9957 17.1 12.1161C16.5582 12.8987 16.3776 13.6813 17.1 14.464C17.2204 14.5844 17.3408 14.8252 17.2806 14.9456C17.2204 15.2466 17.1 15.6079 17.0398 15.9088C16.799 15.7282 16.4378 15.6681 16.2571 15.4273C15.8959 14.8854 15.6551 14.2834 15.294 13.7415C14.5113 12.5977 13.3674 12.1161 11.9828 11.9354C10.0563 11.6946 8.12979 11.2131 6.20331 10.8518C6.0829 10.8518 5.90229 10.7916 5.72169 10.7314C5.42067 10.6712 5.17986 10.9121 5.24007 11.1529C5.42067 12.1161 5.9625 12.8385 6.68493 13.26C7.94919 13.9823 9.39405 14.5242 10.7788 14.9456C11.5011 15.1864 11.8021 15.4273 11.6817 16.2098C11.5011 18.2567 12.2236 20.0027 13.548 21.5077C14.0296 22.0495 14.4511 22.5913 14.8123 23.1331C14.9327 23.374 15.1735 23.7352 14.8725 24.0362C14.5715 24.3372 14.1501 24.0362 13.9092 23.8556C13.3072 23.374 13.0063 23.1331 12.4644 23.9158C13.3674 24.7586 14.3307 25.5412 15.2337 26.4443C15.5949 26.8056 16.3776 27.1667 15.7755 27.7687C15.1735 28.3708 14.8123 27.6483 14.3909 27.2871C13.247 26.2637 12.1634 25.2402 11.0195 24.2168C10.7788 24.0362 10.4175 23.9158 10.1165 23.8556C8.85223 23.675 7.70837 23.374 6.92575 22.2904C6.20331 21.3873 5.36048 20.6046 4.81865 19.5812C4.27683 18.4373 3.97581 17.1129 3.6748 15.8486C3.43399 15.066 3.6146 14.2834 4.27683 13.6813C4.33703 13.8017 4.33703 13.5609 4.27682 13.3804ZM14.6919 4.04894C12.7052 4.04894 11.14 5.49379 11.14 7.36008C11.14 9.22636 12.645 10.6712 14.6919 10.6712C16.5582 10.6712 18.0632 9.22636 18.0632 7.36008C18.0031 5.554 16.498 4.04894 14.6919 4.04894ZM5.72168 15.1864C5.30026 15.0058 4.81864 15.3068 4.81864 15.7885C4.81864 16.4506 5.11966 16.8721 5.72168 17.1731C6.92573 17.715 8.25018 18.016 9.51445 18.2567C10.1165 18.3771 10.4175 17.8354 10.0563 17.2935C9.93588 17.0527 9.69506 16.8119 9.45424 16.6915C8.25018 16.1496 6.98593 15.6681 5.72168 15.1864ZM6.32376 19.5812C7.3472 20.4241 9.51449 20.9658 10.6583 20.6648C10.9594 20.6047 11.0196 20.1833 10.7788 20.0027C10.5379 19.822 10.1767 19.6414 9.93588 19.5812C8.85227 19.3404 7.70841 19.1598 6.62477 18.9792C6.26356 18.8588 6.02274 19.3404 6.32376 19.5812ZM8.06964 21.6281C8.67166 22.5913 11.8624 23.2535 12.1634 22.5311C12.2236 22.2904 11.441 21.8689 11.0798 21.8689C10.1165 21.8087 9.15328 21.6281 8.06964 21.6281Z" fill="#FF5900"/>
<path d="M18.12 12.6569C18.3006 12.3559 18.7219 12.4161 18.8423 12.7171C18.9025 12.9579 19.0229 13.1987 19.0831 13.4998C19.926 16.3894 20.7688 19.2792 21.7321 22.1689C22.0331 23.0117 22.8158 23.6138 23.4177 24.3362C23.7187 24.7577 24.5014 25.1188 23.9596 25.7209C23.3575 26.3229 22.9963 25.6004 22.5749 25.2392C21.3106 24.2158 20.5281 22.9515 20.1668 21.2659C19.625 18.9782 18.7821 16.7507 18.12 14.463C17.8189 13.5599 17.7587 13.3192 18.12 12.6569Z" fill="#2D017C"/>
<path d="M12.7344 7.19727H16.2316" stroke="#2D017C" stroke-linecap="square"/>
<path d="M12.7344 8.01367H16.2316" stroke="#2D017C" stroke-linecap="square"/>
<path d="M15.5304 9.23676H15.1806L13.7817 5.97266H13.4102V9.23676" stroke="#2D017C" stroke-linecap="square"/>
<path d="M15.5586 9.23835L15.5867 6.09082" stroke="#2D017C" stroke-linecap="square"/>
</svg>
