<svg width="56" height="56" viewBox="0 0 56 56" fill="none" xmlns="http://www.w3.org/2000/svg">
<g clip-path="url(#clip0_2301_236)">
<path d="M28 55.5C43.1878 55.5 55.5 43.1878 55.5 28C55.5 12.8122 43.1878 0.5 28 0.5C12.8122 0.5 0.5 12.8122 0.5 28C0.5 43.1878 12.8122 55.5 28 55.5Z" stroke="#4D148C"/>
<path fill-rule="evenodd" clip-rule="evenodd" d="M46.1429 15H10.8571C10.3571 15 10 15.3571 10 15.8571V37.7857C10 38.2857 10.3571 38.6429 10.8571 38.6429H46.1429C46.6429 38.6429 47 38.2857 47 37.7857V15.8571C47 15.4286 46.6429 15 46.1429 15V15ZM45.4999 36.3576C45.4999 36.8576 45.1428 37.2147 44.6428 37.2147H12.4285C11.9285 37.2147 11.5714 36.8576 11.5714 36.3576V17.2862C11.5714 16.7862 11.9285 16.429 12.4285 16.429H44.6428C45.1428 16.429 45.4999 16.7862 45.4999 17.2862C45.4999 17.2862 45.4999 36.3576 45.4999 36.3576V36.3576Z" fill="#FF5900"/>
<path d="M24.9998 38.6427C24.9998 38.6427 25.6427 38.7141 25.7141 39.357V40.9284C25.7141 41.4999 25.5712 41.9999 25.2855 42.4999C24.9284 43.0713 24.2855 43.7856 23.2141 44.2856C22.8569 44.4284 22.4284 44.5713 21.9998 44.5713H20.7141V46.2141H36.3569V44.7141C36.3569 44.7141 32.0712 44.7141 31.4998 41.4999V39.2856C31.4998 39.2141 31.5712 39.1427 31.5712 38.9999C31.7141 38.7856 31.8569 38.6427 31.9998 38.5713C29.6427 38.6427 27.3569 38.6427 24.9998 38.6427V38.6427Z" fill="#FF5900"/>
<path d="M20.3034 24.5091H21.2136L22.175 26.8545H22.2159L23.1773 24.5091H24.0875V28H23.3716V25.7278H23.3426L22.4392 27.983H21.9517L21.0483 25.7193H21.0193V28H20.3034V24.5091ZM25.8649 28.0511C25.6001 28.0511 25.3712 27.9949 25.178 27.8824C24.9859 27.7687 24.8376 27.6108 24.7331 27.4085C24.6286 27.2051 24.5763 26.9693 24.5763 26.7011C24.5763 26.4307 24.6286 26.1943 24.7331 25.992C24.8376 25.7886 24.9859 25.6307 25.178 25.5182C25.3712 25.4045 25.6001 25.3477 25.8649 25.3477C26.1297 25.3477 26.3581 25.4045 26.5501 25.5182C26.7433 25.6307 26.8922 25.7886 26.9967 25.992C27.1013 26.1943 27.1536 26.4307 27.1536 26.7011C27.1536 26.9693 27.1013 27.2051 26.9967 27.4085C26.8922 27.6108 26.7433 27.7687 26.5501 27.8824C26.3581 27.9949 26.1297 28.0511 25.8649 28.0511ZM25.8683 27.4886C25.9888 27.4886 26.0893 27.4545 26.17 27.3864C26.2507 27.317 26.3115 27.2227 26.3524 27.1034C26.3945 26.9841 26.4155 26.8483 26.4155 26.696C26.4155 26.5437 26.3945 26.408 26.3524 26.2886C26.3115 26.1693 26.2507 26.075 26.17 26.0057C26.0893 25.9364 25.9888 25.9017 25.8683 25.9017C25.7467 25.9017 25.6445 25.9364 25.5615 26.0057C25.4797 26.075 25.4178 26.1693 25.3757 26.2886C25.3348 26.408 25.3143 26.5437 25.3143 26.696C25.3143 26.8483 25.3348 26.9841 25.3757 27.1034C25.4178 27.2227 25.4797 27.317 25.5615 27.3864C25.6445 27.4545 25.7467 27.4886 25.8683 27.4886ZM28.3518 26.4864V28H27.6257V25.3818H28.3178V25.8437H28.3484C28.4064 25.6915 28.5036 25.571 28.6399 25.4824C28.7763 25.3926 28.9416 25.3477 29.1359 25.3477C29.3178 25.3477 29.4763 25.3875 29.6115 25.467C29.7467 25.5466 29.8518 25.6602 29.9268 25.808C30.0018 25.9545 30.0393 26.1295 30.0393 26.333V28H29.3132V26.4625C29.3143 26.3023 29.2734 26.1773 29.1905 26.0875C29.1075 25.9966 28.9933 25.9511 28.8479 25.9511C28.7501 25.9511 28.6638 25.9722 28.5888 26.0142C28.5149 26.0562 28.457 26.1176 28.4149 26.1983C28.374 26.2778 28.353 26.3739 28.3518 26.4864ZM31.8048 28.0511C31.5355 28.0511 31.3037 27.9966 31.1094 27.8875C30.9162 27.7773 30.7673 27.6216 30.6628 27.4205C30.5582 27.2182 30.506 26.979 30.506 26.7028C30.506 26.4335 30.5582 26.1972 30.6628 25.9937C30.7673 25.7903 30.9145 25.6318 31.1043 25.5182C31.2952 25.4045 31.519 25.3477 31.7759 25.3477C31.9486 25.3477 32.1094 25.3756 32.2582 25.4312C32.4082 25.4858 32.5389 25.5682 32.6503 25.6784C32.7628 25.7886 32.8503 25.9273 32.9128 26.0943C32.9753 26.2602 33.0065 26.4545 33.0065 26.6773V26.8767H30.7957V26.4267H32.323C32.323 26.3222 32.3003 26.2295 32.2548 26.1489C32.2094 26.0682 32.1463 26.0051 32.0656 25.9597C31.9861 25.9131 31.8935 25.8898 31.7878 25.8898C31.6776 25.8898 31.5798 25.9153 31.4946 25.9665C31.4105 26.0165 31.3446 26.0841 31.2969 26.1693C31.2491 26.2534 31.2247 26.3472 31.2236 26.4506V26.8784C31.2236 27.008 31.2474 27.1199 31.2952 27.2142C31.344 27.3085 31.4128 27.3812 31.5014 27.4324C31.5901 27.4835 31.6952 27.5091 31.8168 27.5091C31.8974 27.5091 31.9713 27.4977 32.0384 27.475C32.1054 27.4523 32.1628 27.4182 32.2105 27.3727C32.2582 27.3273 32.2946 27.2716 32.3196 27.2057L32.9912 27.25C32.9571 27.4114 32.8872 27.5523 32.7815 27.6727C32.677 27.792 32.5418 27.8852 32.3759 27.9523C32.2111 28.0182 32.0207 28.0511 31.8048 28.0511ZM33.8584 28.9818C33.7663 28.9818 33.68 28.9744 33.5993 28.9597C33.5197 28.946 33.4538 28.9284 33.4016 28.9068L33.5652 28.3648C33.6504 28.3909 33.7271 28.4051 33.7953 28.4074C33.8646 28.4097 33.9243 28.3938 33.9743 28.3597C34.0254 28.3256 34.0669 28.2676 34.0987 28.1858L34.1413 28.075L33.2021 25.3818H33.9658L34.5078 27.3045H34.5351L35.0822 25.3818H35.851L34.8334 28.283C34.7845 28.4239 34.718 28.5466 34.6339 28.6511C34.551 28.7568 34.4459 28.8381 34.3186 28.8949C34.1913 28.9528 34.0379 28.9818 33.8584 28.9818Z" fill="#4D148C"/>
<path d="M36.7705 24.5091V28H36.3682V24.5091H36.7705ZM37.5072 28V25.3818H37.9095V28H37.5072ZM37.7118 24.9455C37.6334 24.9455 37.5658 24.9187 37.5089 24.8653C37.4533 24.8119 37.4254 24.7477 37.4254 24.6727C37.4254 24.5977 37.4533 24.5335 37.5089 24.4801C37.5658 24.4267 37.6334 24.4 37.7118 24.4C37.7902 24.4 37.8572 24.4267 37.9129 24.4801C37.9697 24.5335 37.9982 24.5977 37.9982 24.6727C37.9982 24.7477 37.9697 24.8119 37.9129 24.8653C37.8572 24.9187 37.7902 24.9455 37.7118 24.9455ZM39.0486 26.425V28H38.6463V25.3818H39.0349V25.7909H39.069C39.1304 25.658 39.2236 25.5511 39.3486 25.4705C39.4736 25.3886 39.6349 25.3477 39.8327 25.3477C40.0099 25.3477 40.1651 25.3841 40.298 25.4568C40.431 25.5284 40.5344 25.6375 40.6082 25.7841C40.6821 25.9295 40.719 26.1136 40.719 26.3364V28H40.3168V26.3636C40.3168 26.158 40.2634 25.9977 40.1565 25.883C40.0497 25.767 39.9031 25.7091 39.7168 25.7091C39.5884 25.7091 39.4736 25.7369 39.3724 25.7926C39.2724 25.8483 39.1935 25.9295 39.1355 26.0364C39.0776 26.1432 39.0486 26.2727 39.0486 26.425ZM41.8291 27.0455L41.8223 26.5477H41.9041L43.0496 25.3818H43.5473L42.3268 26.6159H42.2928L41.8291 27.0455ZM41.4541 28V24.5091H41.8564V28H41.4541ZM43.1178 28L42.095 26.7045L42.3814 26.425L43.6291 28H43.1178Z" fill="#FF6600"/>
<path d="M17.5394 27.2538L17.5559 26.3885L18.3233 25.9957V27.7203L17.5394 27.2538Z" fill="#3C1777"/>
<path d="M15.9993 28.1351C16.0339 28.1005 17.5394 27.2536 17.5394 27.2536L18.3233 27.7201L15.9993 28.9651V28.1351Z" fill="#FF6600"/>
<path d="M18.3172 28.521L18.3191 27.7202L18.3233 25.9956L17.5559 26.3884L15.9993 27.1853V26.3876L18.9965 24.6769L19 28.1351" fill="#441582"/>
<path d="M18.3191 27.7201V28.5208L16.0013 29.8271L15.989 28.9651L18.3191 27.7201Z" fill="#E8640A"/>
<path d="M15.9993 25.5345L18.3233 24.2479L18.9965 24.6768L15.9993 26.4044V25.5345Z" fill="#4D148C"/>
<path d="M14.4607 27.2538L14.4441 26.3885L13.6768 25.9957V27.7203L14.4607 27.2538Z" fill="#4D148C"/>
<path d="M16.0008 28.1351C15.9662 28.1005 14.4607 27.2536 14.4607 27.2536L13.6768 27.7201L16.0008 28.9651V28.1351Z" fill="#FF6600"/>
<path d="M13.6828 28.521L13.6809 27.7202L13.6767 25.9956L14.4441 26.3884L16.0008 27.1853V26.406L13 24.6769V28.1351" fill="#3C1777"/>
<path d="M13.6809 27.7201V28.5208L15.9988 29.8271L16.0111 28.9651L13.6809 27.7201Z" fill="#D8600E"/>
<path d="M16.0008 25.5345L13.6768 24.2479L13.0035 24.6768L16.0008 26.4044V25.5345Z" fill="#4D148C"/>
<path d="M16.0008 23.0001L18.3332 24.2543L17.5025 24.7147L16.0008 23.8201L14.5295 24.735L13.6768 24.2481L16.0008 23.0001Z" fill="#D3D1D2"/>
<path d="M16.0008 23.8201L14.528 24.7341L15.189 25.0852L16.0008 24.6618V24.5988V23.8201Z" fill="#B3B3B2"/>
<path d="M16.0008 23.82V24.6053V24.6617L16.8156 25.0883L17.4979 24.7106L16.0008 23.82Z" fill="#B3B3B2"/>
</g>
<defs>
<clipPath id="clip0_2301_236">
<rect width="56" height="56" fill="white"/>
</clipPath>
</defs>
</svg>
