<svg width="166" height="191" viewBox="0 0 166 191" fill="none" xmlns="http://www.w3.org/2000/svg">
<path d="M6.744 4.948V15H4.952V4.948H6.744ZM8.57341 15V7.65H10.2534V8.434C10.6734 7.944 11.3314 7.51 12.2834 7.51C13.8234 7.51 14.7474 8.574 14.7474 10.156V15H13.0674V10.646C13.0674 9.736 12.7034 9.078 11.7794 9.078C11.0234 9.078 10.2534 9.638 10.2534 10.688V15H8.57341ZM19.8534 15H18.1594L15.4714 7.65H17.2354L19.0274 12.984L20.8054 7.65H22.5414L19.8534 15ZM26.3787 15.154C24.2787 15.154 22.8087 13.6 22.8087 11.332C22.8087 9.176 24.2647 7.51 26.3087 7.51C28.4367 7.51 29.5707 9.12 29.5707 11.136V11.696H24.4187C24.5447 12.956 25.3007 13.726 26.3787 13.726C27.2047 13.726 27.8627 13.306 28.0867 12.55L29.5287 13.096C29.0107 14.384 27.8487 15.154 26.3787 15.154ZM26.2947 8.924C25.4267 8.924 24.7547 9.442 24.5027 10.436H27.8767C27.8627 9.624 27.3587 8.924 26.2947 8.924ZM30.0612 13.6L31.3212 12.592C31.7552 13.306 32.5952 13.782 33.4492 13.782C34.1632 13.782 34.8212 13.53 34.8212 12.872C34.8212 12.242 34.2052 12.172 33.0432 11.934C31.8812 11.696 30.5512 11.402 30.5512 9.834C30.5512 8.49 31.7272 7.51 33.4212 7.51C34.7092 7.51 35.8572 8.084 36.3892 8.896L35.2552 9.918C34.8352 9.26 34.1352 8.882 33.3232 8.882C32.6372 8.882 32.1892 9.19 32.1892 9.68C32.1892 10.212 32.7212 10.31 33.6452 10.506C34.8912 10.772 36.4592 11.038 36.4592 12.718C36.4592 14.202 35.1012 15.154 33.4352 15.154C32.0772 15.154 30.7192 14.608 30.0612 13.6ZM37.9032 13.152V9.078H36.8812V7.65H37.9032V5.494H39.5552V7.65H41.0952V9.078H39.5552V12.886C39.5552 13.544 39.9332 13.614 40.5352 13.614C40.8152 13.614 40.9692 13.6 41.2212 13.572V14.986C40.9132 15.042 40.4932 15.084 40.0592 15.084C38.6592 15.084 37.9032 14.65 37.9032 13.152ZM44.1597 10.688V15H42.4797V7.65H44.1597V8.434C44.5657 7.944 45.1957 7.51 46.1757 7.51C47.0577 7.51 47.7157 7.902 48.1217 8.532C48.5697 8.056 49.2697 7.51 50.4037 7.51C51.9157 7.51 52.8957 8.574 52.8957 10.156V15H51.2157V10.646C51.2157 9.736 50.8797 9.078 49.9837 9.078C49.2697 9.078 48.5277 9.638 48.5277 10.688V15H46.8477V10.646C46.8477 9.736 46.5117 9.078 45.6157 9.078C44.9017 9.078 44.1597 9.638 44.1597 10.688ZM57.7146 15.154C55.6146 15.154 54.1446 13.6 54.1446 11.332C54.1446 9.176 55.6006 7.51 57.6446 7.51C59.7726 7.51 60.9066 9.12 60.9066 11.136V11.696H55.7546C55.8806 12.956 56.6366 13.726 57.7146 13.726C58.5406 13.726 59.1986 13.306 59.4226 12.55L60.8646 13.096C60.3466 14.384 59.1846 15.154 57.7146 15.154ZM57.6306 8.924C56.7626 8.924 56.0906 9.442 55.8386 10.436H59.2126C59.1986 9.624 58.6946 8.924 57.6306 8.924ZM62.1672 15V7.65H63.8472V8.434C64.2672 7.944 64.9252 7.51 65.8772 7.51C67.4172 7.51 68.3412 8.574 68.3412 10.156V15H66.6612V10.646C66.6612 9.736 66.2972 9.078 65.3732 9.078C64.6172 9.078 63.8472 9.638 63.8472 10.688V15H62.1672ZM70.2098 13.152V9.078H69.1878V7.65H70.2098V5.494H71.8618V7.65H73.4018V9.078H71.8618V12.886C71.8618 13.544 72.2398 13.614 72.8418 13.614C73.1218 13.614 73.2758 13.6 73.5278 13.572V14.986C73.2198 15.042 72.7998 15.084 72.3658 15.084C70.9658 15.084 70.2098 14.65 70.2098 13.152ZM6.744 29.108V33H4.952V22.948H8.97C11.21 22.948 12.61 23.998 12.61 26.028C12.61 28.03 11.21 29.108 8.97 29.108H6.744ZM6.744 27.568H8.872C10.16 27.568 10.846 27.008 10.846 26.028C10.846 25.034 10.16 24.488 8.872 24.488H6.744V27.568ZM17.763 25.636V27.316C17.553 27.288 17.385 27.274 17.147 27.274C16.083 27.274 15.271 27.96 15.271 29.136V33H13.591V25.65H15.271V26.742C15.593 26.056 16.349 25.608 17.287 25.608C17.483 25.608 17.637 25.622 17.763 25.636ZM25.1895 29.332C25.1895 31.614 23.7195 33.154 21.6475 33.154C19.5755 33.154 18.1055 31.614 18.1055 29.332C18.1055 27.05 19.5755 25.51 21.6475 25.51C23.7195 25.51 25.1895 27.05 25.1895 29.332ZM19.7995 29.332C19.7995 30.83 20.5135 31.74 21.6475 31.74C22.7815 31.74 23.4955 30.83 23.4955 29.332C23.4955 27.834 22.7815 26.924 21.6475 26.924C20.5135 26.924 19.7995 27.834 19.7995 29.332ZM29.2692 33.154C27.2112 33.154 26.0352 31.418 26.0352 29.332C26.0352 27.246 27.2112 25.51 29.2692 25.51C30.2212 25.51 30.9212 25.888 31.3832 26.434V22.948H33.0632V33H31.3832V32.23C30.9212 32.776 30.2212 33.154 29.2692 33.154ZM31.4252 29.122C31.4252 27.736 30.6412 26.98 29.6052 26.98C28.3872 26.98 27.7292 27.932 27.7292 29.332C27.7292 30.732 28.3872 31.684 29.6052 31.684C30.6412 31.684 31.4252 30.914 31.4252 29.556V29.122ZM40.9414 25.65V33H39.2614V32.216C38.8414 32.706 38.2114 33.154 37.2594 33.154C35.7194 33.154 34.7674 32.104 34.7674 30.522V25.65H36.4474V30.158C36.4474 31.054 36.8394 31.628 37.7494 31.628C38.5054 31.628 39.2614 31.068 39.2614 30.018V25.65H40.9414ZM43.9301 29.332C43.9301 30.83 44.7141 31.698 45.8621 31.698C46.7581 31.698 47.3041 31.11 47.5141 30.298L48.9561 31.026C48.5781 32.216 47.4581 33.154 45.8621 33.154C43.7621 33.154 42.2501 31.6 42.2501 29.332C42.2501 27.064 43.7621 25.51 45.8621 25.51C47.4441 25.51 48.5361 26.406 48.9281 27.582L47.5141 28.352C47.3041 27.554 46.7581 26.952 45.8621 26.952C44.7141 26.952 43.9301 27.834 43.9301 29.332ZM50.1258 31.152V27.078H49.1038V25.65H50.1258V23.494H51.7778V25.65H53.3178V27.078H51.7778V30.886C51.7778 31.544 52.1558 31.614 52.7578 31.614C53.0378 31.614 53.1918 31.6 53.4438 31.572V32.986C53.1358 33.042 52.7158 33.084 52.2818 33.084C50.8818 33.084 50.1258 32.65 50.1258 31.152ZM53.9323 31.6L55.1923 30.592C55.6263 31.306 56.4663 31.782 57.3203 31.782C58.0343 31.782 58.6923 31.53 58.6923 30.872C58.6923 30.242 58.0763 30.172 56.9143 29.934C55.7523 29.696 54.4223 29.402 54.4223 27.834C54.4223 26.49 55.5983 25.51 57.2923 25.51C58.5803 25.51 59.7283 26.084 60.2603 26.896L59.1263 27.918C58.7063 27.26 58.0063 26.882 57.1943 26.882C56.5083 26.882 56.0603 27.19 56.0603 27.68C56.0603 28.212 56.5923 28.31 57.5163 28.506C58.7623 28.772 60.3303 29.038 60.3303 30.718C60.3303 32.202 58.9723 33.154 57.3063 33.154C55.9483 33.154 54.5903 32.608 53.9323 31.6Z" fill="#0A2540"/>
<path d="M31 83L33.8868 78L28.1132 78L31 83ZM30.5 47L30.5 78.5L31.5 78.5L31.5 47L30.5 47Z" fill="#4ABCEB"/>
<path d="M99 120L94 117.113V122.887L99 120ZM63 120.5H94.5V119.5H63V120.5Z" fill="#4ABCEB"/>
<circle cx="128.5" cy="119" r="27.5" stroke="#4ABCEB"/>
<path d="M140.429 122.659C140.34 122.347 140.167 122.065 139.929 121.843C139.691 121.622 139.398 121.469 139.08 121.402C138.664 121.314 138.232 121.378 137.863 121.574C138.077 120.245 137.964 118.871 137.525 117.59C137.441 117.345 137.174 117.215 136.929 117.299C136.684 117.383 136.554 117.649 136.638 117.894C137.157 119.407 137.162 121.067 136.653 122.582L132.917 125.9C132.689 126.103 132.436 126.277 132.165 126.419C132.242 126.109 132.235 125.784 132.145 125.477C132.073 125.235 131.952 125.011 131.788 124.819C131.625 124.627 131.423 124.472 131.196 124.363L127.887 122.778C126.44 122.085 124.746 122.005 123.241 122.558L122.904 122.681C121.971 120.043 122.62 117.118 124.62 115.119L127.929 111.81H131.593L134.397 114.614C134.58 114.797 134.877 114.797 135.06 114.614C135.243 114.431 135.243 114.134 135.06 113.951L132.381 111.272L133.349 108.484C133.479 108.111 133.336 107.703 133.001 107.493C132.666 107.283 132.236 107.332 131.956 107.611L131.951 107.617C131.757 107.811 131.441 107.811 131.248 107.617C130.425 106.794 129.086 106.794 128.264 107.617C128.17 107.711 128.045 107.763 127.912 107.763C127.78 107.763 127.655 107.711 127.561 107.617C127.281 107.337 126.851 107.289 126.516 107.499C126.18 107.71 126.038 108.118 126.168 108.492L127.141 111.272L123.957 114.456C122.779 115.635 121.995 117.12 121.692 118.753C121.426 120.184 121.541 121.644 122.023 123.005L121.284 123.276C121.038 122.956 120.652 122.75 120.219 122.75H117.844C117.103 122.75 116.5 123.352 116.5 124.093V129.656C116.5 130.397 117.103 131 117.844 131H130.199C132.139 131 133.975 130.255 135.366 128.902L139.956 124.441C140.19 124.215 140.357 123.93 140.44 123.616C140.524 123.302 140.52 122.971 140.429 122.659ZM127.912 108.7C128.295 108.7 128.656 108.551 128.927 108.28C129.384 107.823 130.128 107.823 130.585 108.28C130.856 108.551 131.216 108.7 131.599 108.7C131.871 108.7 132.132 108.625 132.357 108.484L131.527 110.872H127.995L127.16 108.488C127.384 108.626 127.642 108.7 127.912 108.7ZM117.438 129.656V124.093C117.438 123.869 117.62 123.687 117.844 123.687H120.219C120.443 123.687 120.625 123.869 120.625 124.093V129.656C120.625 129.88 120.443 130.062 120.219 130.062H117.844C117.62 130.062 117.438 129.88 117.438 129.656ZM139.303 123.769L134.713 128.23C133.497 129.412 131.894 130.062 130.199 130.062H121.5C121.541 129.931 121.563 129.794 121.563 129.656V124.173L123.564 123.438C124.833 122.972 126.262 123.039 127.482 123.624L130.791 125.209C131.014 125.315 131.176 125.505 131.246 125.742C131.316 125.98 131.283 126.227 131.154 126.438C131.053 126.602 130.9 126.728 130.719 126.795C130.539 126.863 130.34 126.867 130.157 126.809L125.76 125.411C125.514 125.332 125.25 125.469 125.172 125.715C125.093 125.962 125.23 126.226 125.476 126.304L129.873 127.702C130.05 127.759 130.234 127.787 130.42 127.787C130.442 127.787 130.464 127.786 130.486 127.785C131.613 127.769 132.695 127.351 133.54 126.601L138.139 122.516C138.239 122.427 138.359 122.363 138.488 122.329C138.618 122.295 138.753 122.291 138.884 122.319C139.199 122.386 139.439 122.61 139.528 122.919C139.618 123.227 139.533 123.545 139.303 123.769Z" fill="#20336B"/>
<path d="M136.133 116.328C136.256 116.328 136.377 116.278 136.464 116.191C136.552 116.103 136.601 115.984 136.602 115.859C136.602 115.736 136.551 115.616 136.464 115.528C136.376 115.44 136.257 115.391 136.133 115.391C136.009 115.391 135.889 115.441 135.801 115.528C135.714 115.616 135.665 115.735 135.664 115.859C135.664 115.983 135.714 116.104 135.801 116.191C135.889 116.279 136.009 116.328 136.133 116.328Z" fill="#20336B"/>
<path d="M133.452 118.336H132.466V117.389H133.452C133.6 117.389 133.72 117.269 133.72 117.12C133.72 116.972 133.6 116.852 133.452 116.852H132.466V115.538C132.466 115.346 132.428 115.205 132.354 115.12C132.283 115.038 132.189 115 132.06 115C131.936 115 131.847 115.038 131.777 115.119C131.703 115.205 131.666 115.346 131.666 115.538V116.852H129.812L129.023 115.66C128.96 115.559 128.895 115.458 128.831 115.358C128.775 115.272 128.721 115.201 128.67 115.149C128.625 115.103 128.574 115.067 128.513 115.039C128.456 115.013 128.384 115 128.298 115C128.189 115 128.09 115.03 127.995 115.091C127.902 115.152 127.837 115.227 127.797 115.321C127.762 115.41 127.744 115.547 127.744 115.723V116.852H126.768C126.62 116.852 126.5 116.972 126.5 117.121C126.5 117.269 126.62 117.389 126.768 117.389H127.744V118.336H126.768C126.62 118.336 126.5 118.456 126.5 118.604C126.5 118.752 126.62 118.872 126.768 118.872H127.744V120.373C127.744 120.559 127.783 120.698 127.86 120.787C127.934 120.871 128.028 120.91 128.154 120.91C128.277 120.91 128.37 120.871 128.446 120.786C128.525 120.7 128.565 120.56 128.565 120.373V118.872H130.243L131.15 120.264C131.214 120.357 131.278 120.449 131.344 120.54C131.402 120.622 131.466 120.694 131.534 120.754C131.595 120.809 131.66 120.848 131.728 120.873C131.797 120.898 131.879 120.911 131.969 120.911C132.215 120.911 132.466 120.835 132.466 120.278V118.872H133.452C133.6 118.872 133.72 118.752 133.72 118.604C133.72 118.456 133.6 118.336 133.452 118.336ZM131.666 117.389V118.336H130.792L130.166 117.389H131.666ZM128.565 116.3L128.925 116.852H128.565V116.3ZM128.565 118.336V117.389H129.275L129.893 118.336H128.565ZM131.666 119.658L131.146 118.872H131.666V119.658Z" fill="#24BAF2"/>
<path d="M113.57 170H112.114L109.482 162.23V170H107.816V159.948H110.28L112.87 167.648L115.46 159.948H117.868V170H116.202V162.23L113.57 170ZM125.813 162.65V170H124.133V169.216C123.713 169.706 123.083 170.154 122.131 170.154C120.591 170.154 119.639 169.104 119.639 167.522V162.65H121.319V167.158C121.319 168.054 121.711 168.628 122.621 168.628C123.377 168.628 124.133 168.068 124.133 167.018V162.65H125.813ZM127.738 168.152V164.078H126.716V162.65H127.738V160.494H129.39V162.65H130.93V164.078H129.39V167.886C129.39 168.544 129.768 168.614 130.37 168.614C130.65 168.614 130.804 168.6 131.056 168.572V169.986C130.748 170.042 130.328 170.084 129.894 170.084C128.494 170.084 127.738 169.65 127.738 168.152ZM138.364 162.65V170H136.684V169.216C136.264 169.706 135.634 170.154 134.682 170.154C133.142 170.154 132.19 169.104 132.19 167.522V162.65H133.87V167.158C133.87 168.054 134.262 168.628 135.172 168.628C135.928 168.628 136.684 168.068 136.684 167.018V162.65H138.364ZM142.081 170.126C140.681 170.126 139.603 169.272 139.603 167.956C139.603 166.556 140.653 165.94 142.067 165.646L144.097 165.226V165.1C144.097 164.4 143.733 163.966 142.837 163.966C142.039 163.966 141.619 164.33 141.423 165.044L139.841 164.68C140.205 163.462 141.283 162.51 142.907 162.51C144.671 162.51 145.735 163.35 145.735 165.044V168.208C145.735 168.628 145.917 168.754 146.379 168.698V170C145.161 170.14 144.517 169.902 144.265 169.3C143.803 169.818 143.033 170.126 142.081 170.126ZM144.097 167.41V166.514L142.515 166.85C141.801 167.004 141.269 167.228 141.269 167.886C141.269 168.46 141.689 168.782 142.333 168.782C143.229 168.782 144.097 168.306 144.097 167.41ZM149.252 159.948V170H147.572V159.948H149.252ZM112.014 188H110.25V177.948H116.956V179.516H112.014V182.246H116.158V183.814H112.014V188ZM123.681 180.65V188H122.001V187.216C121.581 187.706 120.951 188.154 119.999 188.154C118.459 188.154 117.507 187.104 117.507 185.522V180.65H119.187V185.158C119.187 186.054 119.579 186.628 120.489 186.628C121.245 186.628 122.001 186.068 122.001 185.018V180.65H123.681ZM125.451 188V180.65H127.131V181.434C127.551 180.944 128.209 180.51 129.161 180.51C130.701 180.51 131.625 181.574 131.625 183.156V188H129.945V183.646C129.945 182.736 129.581 182.078 128.657 182.078C127.901 182.078 127.131 182.638 127.131 183.688V188H125.451ZM136.112 188.154C134.054 188.154 132.878 186.418 132.878 184.332C132.878 182.246 134.054 180.51 136.112 180.51C137.064 180.51 137.764 180.888 138.226 181.434V177.948H139.906V188H138.226V187.23C137.764 187.776 137.064 188.154 136.112 188.154ZM138.268 184.122C138.268 182.736 137.484 181.98 136.448 181.98C135.23 181.98 134.572 182.932 134.572 184.332C134.572 185.732 135.23 186.684 136.448 186.684C137.484 186.684 138.268 185.914 138.268 184.556V184.122ZM140.896 186.6L142.156 185.592C142.59 186.306 143.43 186.782 144.284 186.782C144.998 186.782 145.656 186.53 145.656 185.872C145.656 185.242 145.04 185.172 143.878 184.934C142.716 184.696 141.386 184.402 141.386 182.834C141.386 181.49 142.562 180.51 144.256 180.51C145.544 180.51 146.692 181.084 147.224 181.896L146.09 182.918C145.67 182.26 144.97 181.882 144.158 181.882C143.472 181.882 143.024 182.19 143.024 182.68C143.024 183.212 143.556 183.31 144.48 183.506C145.726 183.772 147.294 184.038 147.294 185.718C147.294 187.202 145.936 188.154 144.27 188.154C142.912 188.154 141.554 187.608 140.896 186.6Z" fill="#0A2540"/>
<circle cx="28.5" cy="119" r="27.5" stroke="#4ABCEB"/>
<g clip-path="url(#clip0_583_4073)">
<mask id="mask0_583_4073" style="mask-type:luminance" maskUnits="userSpaceOnUse" x="16" y="107" width="25" height="24">
<path d="M40.5 107H16.5V131H40.5V107Z" fill="white"/>
</mask>
<g mask="url(#mask0_583_4073)">
<path d="M18.8047 116L22.0355 112.77" stroke="#20336B"/>
<path d="M18.8047 120.615L22.0355 123.846" stroke="#20336B"/>
<path d="M27.1124 123.846H19.2662C19.0113 123.846 18.8047 123.64 18.8047 123.385V113.231C18.8047 112.976 19.0113 112.77 19.2662 112.77H37.7278C37.9826 112.77 38.1893 112.976 38.1893 113.231V122.923" stroke="#20336B"/>
<path d="M38.1917 116L34.9609 112.77" stroke="#20336B"/>
<path d="M23.5547 125.963L24.3504 127.076V129.384" stroke="#20336B"/>
<path d="M25.2692 112.308C25.2692 112.296 25.2692 112.285 25.2692 112.273C25.2692 111.509 24.6493 110.889 23.8846 110.889C23.1199 110.889 22.5 111.509 22.5 112.273C22.5 112.285 22.5 112.296 22.5 112.308V112.77" stroke="#20336B"/>
<path d="M28.0349 112.769V111.385C28.0349 111.373 28.0349 111.361 28.0349 111.349C28.0349 110.585 27.4149 109.965 26.6502 109.965C25.8855 109.965 25.2656 110.585 25.2656 111.349C25.2656 111.361 25.2656 111.373 25.2656 111.385V112.769" stroke="#20336B"/>
<path d="M30.8083 112.769V110.035C30.8083 110.023 30.8083 110.012 30.8083 110C30.8083 109.235 30.1884 108.615 29.4237 108.615C28.659 108.615 28.0391 109.235 28.0391 110C28.0391 110.012 28.0391 110.023 28.0391 110.035V112.769" stroke="#20336B"/>
<path d="M33.5739 112.769V111.385C33.5739 111.373 33.5739 111.361 33.5739 111.349C33.5739 110.585 32.954 109.965 32.1893 109.965C31.4246 109.965 30.8047 110.585 30.8047 111.349C30.8047 111.361 30.8047 111.373 30.8047 111.385V112.308" stroke="#20336B"/>
<path d="M32.652 129.384V128.46C32.652 127.879 32.9256 127.332 33.3905 126.984L35.6059 125.322C36.0708 124.973 36.3444 124.426 36.3444 123.845V119.663C36.3444 119.656 36.3397 119.651 36.3397 119.644C36.3082 118.949 35.7652 118.385 35.0715 118.327C34.3777 118.269 33.749 118.736 33.6028 119.416C33.561 119.492 33.53 119.574 33.5105 119.659L33.2336 121.567C33.153 122.131 32.8168 122.625 32.3225 122.908L30.8059 123.775C30.2333 124.105 29.8812 124.717 29.8828 125.378V126.614" stroke="#20336B"/>
<path d="M25.1406 117.656H31.8539" stroke="#00BAF2" stroke-linecap="square"/>
<path d="M25.1406 119H31.8539" stroke="#00BAF2" stroke-linecap="square"/>
<path d="M30.5074 121.013H29.8361L27.1508 115.643H26.4375V121.013" stroke="#00BAF2" stroke-linecap="square"/>
<path d="M30.5547 121.013V115.643" stroke="#00BAF2" stroke-linecap="square"/>
</g>
</g>
<path d="M22.008 170H20.244V159.948H26.95V161.516H22.008V164.246H26.152V165.814H22.008V170ZM27.9526 161.67V159.948H29.6886V161.67H27.9526ZM29.6606 162.65V170H27.9806V162.65H29.6606ZM35.8219 170L34.0859 167.452L32.3639 170H30.5439L33.1339 166.192L30.7259 162.65H32.6299L34.1419 164.946L35.6819 162.65H37.5159L35.1079 166.192L37.7119 170H35.8219ZM1.62973 188V177.948H4.98973C8.11173 177.948 10.0437 179.908 10.0437 182.974C10.0437 186.04 8.11173 188 4.98973 188H1.62973ZM3.37973 186.46H4.98973C7.06173 186.46 8.27973 185.088 8.27973 182.974C8.27973 180.846 7.06173 179.488 4.97573 179.488H3.37973V186.46ZM14.4841 188.154C12.3841 188.154 10.9141 186.6 10.9141 184.332C10.9141 182.176 12.3701 180.51 14.4141 180.51C16.5421 180.51 17.6761 182.12 17.6761 184.136V184.696H12.5241C12.6501 185.956 13.4061 186.726 14.4841 186.726C15.3101 186.726 15.9681 186.306 16.1921 185.55L17.6341 186.096C17.1161 187.384 15.9541 188.154 14.4841 188.154ZM14.4001 181.924C13.5321 181.924 12.8601 182.442 12.6081 183.436H15.9821C15.9681 182.624 15.4641 181.924 14.4001 181.924ZM22.7307 188.154C21.7787 188.154 21.0787 187.776 20.6167 187.23V190.52H18.9367V180.65H20.6167V181.434C21.0787 180.888 21.7787 180.51 22.7307 180.51C24.7887 180.51 25.9647 182.246 25.9647 184.332C25.9647 186.418 24.7887 188.154 22.7307 188.154ZM20.5747 184.122V184.556C20.5747 185.914 21.3587 186.684 22.3947 186.684C23.6127 186.684 24.2707 185.732 24.2707 184.332C24.2707 182.932 23.6127 181.98 22.3947 181.98C21.3587 181.98 20.5747 182.736 20.5747 184.122ZM33.8849 184.332C33.8849 186.614 32.4149 188.154 30.3429 188.154C28.2709 188.154 26.8009 186.614 26.8009 184.332C26.8009 182.05 28.2709 180.51 30.3429 180.51C32.4149 180.51 33.8849 182.05 33.8849 184.332ZM28.4949 184.332C28.4949 185.83 29.2089 186.74 30.3429 186.74C31.4769 186.74 32.1909 185.83 32.1909 184.332C32.1909 182.834 31.4769 181.924 30.3429 181.924C29.2089 181.924 28.4949 182.834 28.4949 184.332ZM34.4225 186.6L35.6825 185.592C36.1165 186.306 36.9565 186.782 37.8105 186.782C38.5245 186.782 39.1825 186.53 39.1825 185.872C39.1825 185.242 38.5665 185.172 37.4045 184.934C36.2425 184.696 34.9125 184.402 34.9125 182.834C34.9125 181.49 36.0885 180.51 37.7825 180.51C39.0705 180.51 40.2185 181.084 40.7505 181.896L39.6165 182.918C39.1965 182.26 38.4965 181.882 37.6845 181.882C36.9985 181.882 36.5505 182.19 36.5505 182.68C36.5505 183.212 37.0825 183.31 38.0065 183.506C39.2525 183.772 40.8205 184.038 40.8205 185.718C40.8205 187.202 39.4625 188.154 37.7965 188.154C36.4385 188.154 35.0805 187.608 34.4225 186.6ZM42.0825 179.67V177.948H43.8185V179.67H42.0825ZM43.7905 180.65V188H42.1105V180.65H43.7905ZM45.7098 186.152V182.078H44.6878V180.65H45.7098V178.494H47.3618V180.65H48.9018V182.078H47.3618V185.886C47.3618 186.544 47.7398 186.614 48.3418 186.614C48.6218 186.614 48.7758 186.6 49.0278 186.572V187.986C48.7198 188.042 48.2998 188.084 47.8658 188.084C46.4658 188.084 45.7098 187.65 45.7098 186.152ZM49.5163 186.6L50.7763 185.592C51.2103 186.306 52.0503 186.782 52.9043 186.782C53.6183 186.782 54.2763 186.53 54.2763 185.872C54.2763 185.242 53.6603 185.172 52.4983 184.934C51.3363 184.696 50.0063 184.402 50.0063 182.834C50.0063 181.49 51.1823 180.51 52.8763 180.51C54.1643 180.51 55.3123 181.084 55.8443 181.896L54.7103 182.918C54.2903 182.26 53.5903 181.882 52.7783 181.882C52.0923 181.882 51.6443 182.19 51.6443 182.68C51.6443 183.212 52.1763 183.31 53.1003 183.506C54.3463 183.772 55.9143 184.038 55.9143 185.718C55.9143 187.202 54.5563 188.154 52.8903 188.154C51.5323 188.154 50.1743 187.608 49.5163 186.6Z" fill="#0A2540"/>
<defs>
<clipPath id="clip0_583_4073">
<rect width="24" height="24" fill="white" transform="translate(16.5 107)"/>
</clipPath>
</defs>
</svg>
