<svg width="56" height="56" viewBox="0 0 56 56" fill="none" xmlns="http://www.w3.org/2000/svg">
<path d="M28 55.5C43.1878 55.5 55.5 43.1878 55.5 28C55.5 12.8122 43.1878 0.5 28 0.5C12.8122 0.5 0.5 12.8122 0.5 28C0.5 43.1878 12.8122 55.5 28 55.5Z" stroke="#4D148C"/>
<path fill-rule="evenodd" clip-rule="evenodd" d="M15 29.3513C15 22.1716 20.8203 16.3513 28 16.3513C35.1797 16.3513 41 22.1716 41 29.3513C41 36.531 35.1797 42.3512 28 42.3512C20.8203 42.3512 15 36.531 15 29.3513Z" stroke="#2C007D" stroke-width="0.8" stroke-dasharray="2 2"/>
<path fill-rule="evenodd" clip-rule="evenodd" d="M21.5274 21.0984H34.4727V37.6042H21.5274V21.0984Z" fill="white" stroke="#E84903" stroke-width="0.8"/>
<path d="M25.3297 23.3627H33.0438" stroke="#E84903" stroke-width="0.8"/>
<path d="M22.9563 28.1099H33.044" stroke="#E84903" stroke-width="0.8"/>
<path d="M22.9563 29.2969H28.8902" stroke="#E84903" stroke-width="0.8"/>
<path d="M29.4831 29.2969H33.0435" stroke="#E84903" stroke-width="0.8"/>
<path d="M22.9563 30.4835H24.7365" stroke="#E84903" stroke-width="0.8"/>
<path d="M25.3297 30.4835H33.0438" stroke="#E84903" stroke-width="0.8"/>
<path d="M27.7035 38.791H31.2639" stroke="#E84903" stroke-width="0.8"/>
<path d="M19.6377 30.2415V24.9009" stroke="#E84903" stroke-width="0.8"/>
<path d="M24.7365 24.5497H33.0439" stroke="#E84903" stroke-width="0.8"/>
<path d="M22.9563 25.7364H28.8902" stroke="#E84903" stroke-width="0.8"/>
<path d="M22.9563 26.9231H27.7035" stroke="#E84903" stroke-width="0.8"/>
<path d="M28.2965 26.9231H33.0436" stroke="#E84903" stroke-width="0.8"/>
<path d="M29.4831 25.7364H33.0435" stroke="#E84903" stroke-width="0.8"/>
<path fill-rule="evenodd" clip-rule="evenodd" d="M25.6811 34.0986C25.6811 32.8179 26.7193 31.7797 28.0001 31.7797C29.2807 31.7797 30.319 32.8179 30.319 34.0986C30.319 35.3793 29.2807 36.4175 28.0001 36.4175C26.7193 36.4175 25.6811 35.3793 25.6811 34.0986Z" fill="white" stroke="#2C007D" stroke-width="0.8"/>
<path d="M28.8903 33.2084L27.9562 34.8594C27.9086 34.9382 27.8461 34.9839 27.7805 34.9875C27.7137 34.9952 27.6476 34.962 27.5933 34.8937L27.1101 34.2536" stroke="#E84903" stroke-width="0.8" stroke-linecap="round" stroke-linejoin="round"/>
<path fill-rule="evenodd" clip-rule="evenodd" d="M26.5167 38.8456C26.5167 38.6817 26.6495 38.5489 26.8134 38.5489C26.9772 38.5489 27.1101 38.6817 27.1101 38.8456C27.1101 39.0094 26.9772 39.1423 26.8134 39.1423C26.6495 39.1423 26.5167 39.0094 26.5167 38.8456Z" fill="black"/>
<path fill-rule="evenodd" clip-rule="evenodd" d="M19.3958 31.1316C19.3958 30.9678 19.5287 30.8349 19.6925 30.8349C19.8564 30.8349 19.9892 30.9678 19.9892 31.1316C19.9892 31.2955 19.8564 31.4283 19.6925 31.4283C19.5287 31.4283 19.3958 31.2955 19.3958 31.1316Z" fill="black"/>
<path fill-rule="evenodd" clip-rule="evenodd" d="M35.7688 31.4282C35.7688 30.3114 36.6742 29.406 37.7911 29.406C38.9079 29.406 39.8133 30.3114 39.8133 31.4282C39.8133 32.5451 38.9079 33.4505 37.7911 33.4505C36.6742 33.4505 35.7688 32.5451 35.7688 31.4282Z" fill="white" stroke="#2C007D" stroke-width="0.8"/>
<path fill-rule="evenodd" clip-rule="evenodd" d="M37.5537 31.6655V32.6149H38.2563V31.6655H38.9777V30.9627H38.2563V30.2414H37.5537V30.9627H36.6042V31.6655H37.5537Z" fill="#E84903"/>
<path fill-rule="evenodd" clip-rule="evenodd" d="M16.7801 37.7134H20.2312V39.3843H16.7801V37.7134Z" fill="#E84903" stroke="#2C007D" stroke-width="0.8"/>
<path fill-rule="evenodd" clip-rule="evenodd" d="M15 35.3401H20.2312V37.011H15V35.3401Z" fill="#E84903" stroke="#2C007D" stroke-width="0.8"/>
<path fill-rule="evenodd" clip-rule="evenodd" d="M17.3736 32.9662H22.6048V34.6371H17.3736V32.9662Z" fill="#E84903" stroke="#2C007D" stroke-width="0.8"/>
<path d="M21.8578 23.2976C23.8729 23.2976 25.5065 21.6639 25.5065 19.6488C25.5065 17.6336 23.8729 16 21.8578 16C19.8426 16 18.209 17.6336 18.209 19.6488C18.209 21.6639 19.8426 23.2976 21.8578 23.2976Z" fill="white" stroke="#2C007D" stroke-width="0.8"/>
<path d="M21.8579 17.2961V16.5934" stroke="black" stroke-width="0.8"/>
<path d="M22.7455 17.7802H21.5416C21.3567 17.7804 21.1776 17.8448 21.035 17.9626C20.8925 18.0803 20.7953 18.2439 20.7602 18.4254C20.7252 18.607 20.7543 18.7951 20.8427 18.9575C20.9311 19.1198 21.0734 19.2463 21.2448 19.3153L22.4696 19.8055C22.6412 19.8745 22.7833 20.001 22.8717 20.1634C22.9601 20.3258 22.9893 20.5139 22.9542 20.6954C22.9191 20.8769 22.822 21.0405 22.6795 21.1583C22.5369 21.276 22.3578 21.3405 22.1729 21.3406H20.9653" stroke="#E84903" stroke-width="0.8"/>
<path d="M21.8579 22.6366V21.9339" stroke="black" stroke-width="0.8"/>
</svg>
