<svg width="28" height="28" viewBox="0 0 28 28" fill="none" xmlns="http://www.w3.org/2000/svg">
<path d="M27.676 7.10438C27.676 10.6518 27.676 14.1994 27.676 17.8151C27.4421 17.8151 27.2472 17.8151 27.0425 17.8151C23.9824 17.8151 20.9124 17.8054 17.8521 17.8249C17.4526 17.8249 17.2089 17.7274 17.0043 17.3473C16.4487 16.324 15.8445 15.3397 15.2597 14.3358C14.8017 13.5562 14.2851 13.3905 13.447 13.7608C13.1546 13.8875 12.833 13.9753 12.5699 14.1604C11.9656 14.5892 11.4686 14.2286 10.9813 13.9558C10.8448 13.8778 10.7668 13.6341 10.7376 13.449C10.6694 13.0202 10.6596 12.5719 10.5915 12.143C10.4842 11.3536 10.1723 11.0905 9.3537 11.0808C8.75919 11.071 8.15495 11.0808 7.51172 11.0808C7.51172 9.73578 7.51172 8.44932 7.51172 7.05565C7.74562 7.24082 7.93079 7.34803 8.06724 7.49422C9.61683 9.36543 11.6439 10.4765 13.9148 11.1976C14.3728 11.3439 14.6067 11.5193 14.5386 12.0164C14.3533 13.3223 15.133 13.7511 16.2343 13.6926C17.2381 13.6439 18.2322 13.6828 19.236 13.6828C20.3081 13.6828 20.6979 13.3223 20.6492 12.2307C20.6297 11.6264 20.7759 11.3146 21.4094 11.1391C23.7776 10.4765 25.7463 9.14128 27.3642 7.28955C27.4324 7.21159 27.481 7.12387 27.5298 7.0459C27.5785 7.06539 27.6273 7.08489 27.676 7.10438Z" fill="#FF5900"/>
<path fill-rule="evenodd" clip-rule="evenodd" d="M27.0323 4.07379C26.3209 6.18865 22.7539 9.05395 20.7365 9.20014C20.3954 7.66028 20.3954 7.66028 18.719 7.66028C17.9004 7.66028 17.0719 7.66028 16.2533 7.66028C14.7914 7.66028 14.6647 7.76749 14.4601 9.18065C12.6961 9.23913 8.73923 6.04246 8.24219 4.09328C9.6456 4.09328 11.0393 4.09328 12.5109 4.09328C12.5109 3.12844 12.5109 2.23181 12.5109 1.33519C12.5109 0.282631 12.774 0 13.8071 0C16.2533 0 18.6898 0 21.136 0C22.3153 0 22.5297 0.224156 22.5394 1.41315C22.5394 2.09537 22.5686 2.77758 22.5297 3.45005C22.5004 3.96659 22.7051 4.09328 23.1924 4.08354C24.4593 4.0543 25.7166 4.07379 27.0323 4.07379ZM20.5415 1.88096C20.2979 1.87122 20.0835 1.85173 19.8691 1.85173C18.5534 1.85173 17.228 1.85173 15.9123 1.85173C14.3432 1.85173 14.3529 1.85173 14.3529 3.44031C14.3529 3.90811 14.4894 4.06405 14.9669 4.06405C16.6627 4.04455 18.3683 4.0543 20.064 4.0543C20.22 4.0543 20.3662 4.01532 20.5415 3.99582C20.5415 3.28438 20.5415 2.6119 20.5415 1.88096Z" fill="#FF5900"/>
<path fill-rule="evenodd" clip-rule="evenodd" d="M13.654 15.7788C14.0926 16.4805 14.4824 17.1043 14.882 17.7475C13.8489 18.3615 13.0303 18.9463 13.0596 20.5153C13.0791 22.0357 13.8002 22.6497 14.8723 23.2442C14.5409 23.79 14.2193 24.326 13.9074 24.8717C13.7515 25.1447 13.5761 25.1837 13.3227 25.0277C12.2506 24.3552 11.2078 24.2871 10.2137 25.2032C10.0773 25.3298 9.86286 25.4078 9.67769 25.4663C9.14166 25.6515 8.88828 26.012 8.84928 26.5871C8.73234 28.0002 8.72259 28.0002 7.30943 28.0002C6.30561 28.0002 6.24713 28.0002 6.1984 26.9964C6.15942 26.1193 5.84755 25.5637 4.9899 25.3103C4.68778 25.2227 4.38566 25.0667 4.15176 24.862C3.50853 24.2968 2.88479 24.4234 2.22207 24.7939C2.0174 24.9107 1.79325 25.0082 1.55935 25.0764C1.45214 25.1057 1.25723 25.0764 1.19875 25.0082C0.808912 24.4722 0.438566 23.9069 0 23.2637C1.17925 22.679 1.91994 22.065 1.93944 20.5153C1.94919 18.9463 1.17925 18.3518 0 17.767C0.467804 17.0751 0.877132 16.4805 1.31569 15.8373C1.75427 16.0322 2.18309 16.1979 2.59242 16.4026C3.06996 16.6365 3.48904 16.617 3.93735 16.3051C4.37592 16.003 4.87296 15.7691 5.36025 15.5547C5.85729 15.3403 6.12043 15.0187 6.14967 14.4729C6.16916 14.0343 6.24713 13.6055 6.29586 13.1377C7.08527 13.1377 7.83571 13.1377 8.70309 13.1377C8.75182 14.3267 8.99547 15.2623 10.2917 15.9738C11.5977 16.6657 12.5235 16.4708 13.654 15.7788ZM3.55729 20.5056C3.4111 22.484 5.67216 24.2871 7.43616 24.2871C9.73619 24.2773 11.393 22.3963 11.4027 20.5446C11.4125 18.6441 9.78493 16.7729 7.49464 16.7339C5.60393 16.7047 3.44034 18.5174 3.55729 20.5056Z" fill="#2D017C"/>
<path d="M17.6287 11.6855C16.4203 11.666 16.6249 11.8316 16.6151 10.5452C16.6054 9.52186 16.4593 9.63881 17.7457 9.62906C18.8373 9.62906 18.6813 9.59008 18.6813 10.7498C18.691 11.8316 18.7495 11.666 17.6287 11.6855Z" fill="#FF5900"/>
<path d="M7.4262 22.2695C6.41262 22.2598 5.6427 21.4802 5.65244 20.4763C5.66218 19.4628 6.4711 18.7123 7.5334 18.7318C8.56647 18.7513 9.33639 19.5018 9.33639 20.4958C9.34614 21.5484 8.54697 22.2793 7.4262 22.2695Z" fill="#FF5900"/>
</svg>
