<svg width="37" height="29" viewBox="0 0 37 29" fill="none" xmlns="http://www.w3.org/2000/svg">
<path d="M20.0293 14.4294C20.4807 14.6139 20.9478 14.7403 21.4201 14.8096L21.5705 15.9952C22.113 16.0502 22.6599 16.0436 23.2009 15.9754C23.7417 15.9065 24.2729 15.7768 24.7846 15.5888L24.6348 14.4026C25.0794 14.2158 25.4997 13.9759 25.8867 13.6882L26.8309 14.4205C27.678 13.7284 28.3572 12.8533 28.8174 11.8609L27.8722 11.128C28.0548 10.6815 28.1824 10.2145 28.2524 9.73719L29.432 9.58804C29.5392 8.49928 29.3975 7.4004 29.0176 6.37446L27.8458 6.5226C27.6592 6.07777 27.4194 5.65718 27.1316 5.27004L27.8616 4.32815C27.5185 3.90401 27.1276 3.52087 26.6966 3.18633C26.2653 2.85351 25.7981 2.56999 25.3037 2.34108L24.5715 3.2853C24.125 3.10277 23.658 2.97512 23.1807 2.90513L23.0307 1.71967C22.4882 1.66454 21.9412 1.67119 21.4002 1.73947C20.8594 1.8084 20.3281 1.93818 19.8164 2.12636L19.9664 3.31183C19.5216 3.49849 19.1011 3.73848 18.7141 4.02651L17.7692 3.29405C16.9216 3.98565 16.2424 4.86089 15.7828 5.85362L16.7279 6.58653C16.5438 7.03802 16.4174 7.50509 16.3481 7.97742L15.1688 8.12668C15.0615 9.21554 15.2031 10.3146 15.5831 11.3406L16.755 11.1921C16.9416 11.6369 17.1815 12.0575 17.4693 12.4447L16.7394 13.3859C17.0825 13.8099 17.4733 14.193 17.9041 14.5276C18.3404 14.8661 18.8085 15.1476 19.2973 15.3741L20.0293 14.4294ZM20.3149 11.4181C19.6497 10.8868 19.2203 10.1151 19.1195 9.26975C19.0187 8.4244 19.2546 7.57334 19.7762 6.90052C20.2978 6.22769 21.0633 5.78716 21.9071 5.67413C22.7509 5.56109 23.6053 5.78465 24.2856 6.29647C24.9648 6.82301 25.4069 7.59779 25.5149 8.45037C25.6228 9.30294 25.3876 10.1635 24.8611 10.8426C24.3345 11.5218 23.5597 11.964 22.7072 12.0719C21.8546 12.1799 20.9941 11.9447 20.3149 11.4181ZM26.799 22.7859C27.006 22.8484 27.215 22.8883 27.4227 22.9113L27.6436 23.852C28.4283 23.8811 29.2065 23.6993 29.897 23.3254L29.6757 22.3824C30.034 22.1528 30.3466 21.8588 30.5978 21.5153L31.5242 21.795C31.7333 21.4645 31.8971 21.1074 32.0111 20.7333C32.1269 20.3498 32.1824 19.9627 32.1929 19.5796L31.2662 19.2998C31.2467 18.8748 31.149 18.4569 30.9778 18.0674L31.684 17.404C31.3152 16.7108 30.7677 16.1288 30.0982 15.7186L29.3937 16.3802C29.2076 16.2844 29.0122 16.2019 28.8049 16.1393C28.5975 16.0767 28.3888 16.0372 28.1811 16.0142L27.9603 15.0732C27.1756 15.0445 26.3975 15.2263 25.7068 15.5998L25.9282 16.5428C25.57 16.7725 25.2573 17.0665 25.006 17.4099L24.0793 17.1301C23.8758 17.455 23.7082 17.8083 23.5924 18.1918C23.4767 18.5753 23.4209 18.9631 23.4106 19.3455L24.3373 19.6253C24.3567 20.0503 24.4545 20.4682 24.6257 20.8577L23.9196 21.5208C24.288 22.2143 24.8356 22.7963 25.5054 23.2062L26.2098 22.5449C26.3984 22.6432 26.5956 22.7238 26.799 22.7859ZM26.2508 18.9949C26.3749 18.5835 26.6573 18.2382 27.036 18.0351C27.4146 17.8319 27.8585 17.7874 28.2699 17.9115C28.6814 18.0356 29.0266 18.3181 29.2298 18.6967C29.433 19.0754 29.4774 19.5193 29.3533 19.9307C29.2919 20.1344 29.1909 20.324 29.0562 20.4887C28.9215 20.6534 28.7556 20.79 28.5681 20.8906C28.3806 20.9912 28.1752 21.0539 27.9634 21.0751C27.7517 21.0963 27.5379 21.0756 27.3342 21.0141C27.1305 20.9527 26.9408 20.8517 26.7761 20.717C26.6114 20.5823 26.4749 20.4164 26.3743 20.2289C26.2737 20.0414 26.211 19.8359 26.1898 19.6242C26.1686 19.4125 26.1893 19.1987 26.2508 18.9949Z" fill="#C8D0DB"/>
<path d="M5.56174 28.4274L5.56207 28.4274C6.25948 28.4399 8.73023 28.4815 11.2746 28.4992H11.2863H11.2888C13.3155 28.4846 15.5732 28.4524 17.0109 28.4274H17.0109C18.6161 28.3998 19.6819 27.9773 20.3971 27.4314C21.1152 26.8834 21.5203 26.1801 21.7489 25.5259C22.4048 23.6476 22.0722 20.8908 20.6739 17.7243L20.6739 17.7242C19.411 14.8615 17.4888 12.2038 15.5588 10.6129L15.8768 10.2271M5.56174 28.4274L0.823739 25.5259C0.167842 23.6475 0.500521 20.8898 1.8987 17.7244L1.8988 17.7242C3.16156 14.8618 5.0835 12.2043 7.01329 10.6134C7.02367 10.6049 7.03695 10.6009 7.05028 10.6022C7.06369 10.6035 7.07605 10.6101 7.08464 10.6205C7.181 10.7371 7.30241 10.7793 7.33316 10.7899L7.33418 10.7903C7.3843 10.8077 7.43234 10.8176 7.46782 10.8238C7.54073 10.8364 7.62475 10.8437 7.70835 10.8486C7.87903 10.8586 8.10621 10.8613 8.36761 10.86C8.87454 10.8573 9.54892 10.8388 10.2745 10.8188L10.3532 10.8167C11.8808 10.7747 13.6055 10.7296 14.6071 10.8008L14.8216 10.816C14.8528 10.8232 14.886 10.8294 14.9197 10.8335C14.9567 10.8379 15.0154 10.8421 15.0845 10.8347L15.2795 10.8485L15.2659 10.7884C15.3428 10.7557 15.4209 10.7032 15.4894 10.6201L15.4895 10.62C15.4978 10.6099 15.5099 10.6035 15.5229 10.6022C15.536 10.6009 15.5491 10.6049 15.5592 10.6132L15.8768 10.2271M5.56174 28.4274C3.9566 28.3998 2.89079 27.9773 2.17553 27.4314M5.56174 28.4274L2.17553 27.4314M15.8768 10.2271C17.8791 11.8776 19.844 14.6043 21.1313 17.5224L15.1451 10.257C15.2341 10.1707 15.3501 10.1166 15.4747 10.1045C15.6197 10.0905 15.7643 10.1346 15.8768 10.2271ZM7.33358 6.9682H7.82185H14.7518H15.2401L16.9102 0.734547L16.9105 0.733406C16.9143 0.719301 16.9115 0.704333 16.9021 0.692156L16.901 0.690687C16.8921 0.679058 16.8782 0.671875 16.8624 0.671875C16.4118 0.671875 16.0044 0.968477 15.4381 1.41378C15.4379 1.4139 15.4378 1.41402 15.4376 1.41414L15.4334 1.4175C15.2561 1.55736 15.0434 1.72529 14.837 1.85733C14.6526 1.97535 14.3709 2.13509 14.0744 2.13509C13.7778 2.13509 13.4961 1.97535 13.3117 1.85733C13.1054 1.7253 12.8926 1.55738 12.7154 1.41752L12.7107 1.41384L7.33358 6.9682ZM7.33358 6.9682L5.66294 0.736243M7.33358 6.9682L5.66294 0.736243M5.66294 0.736243C5.6629 0.7361 5.66286 0.735958 5.66283 0.735816C5.65879 0.719987 5.66222 0.703246 5.67182 0.690477M5.66294 0.736243L5.67182 0.690477M5.67182 0.690477C5.6807 0.678971 5.69458 0.671875 5.71027 0.671875C6.16107 0.671875 6.56979 0.968888 7.13607 1.41414L7.14029 1.41747C7.31753 1.55734 7.53027 1.72524 7.7364 1.85725C7.92034 1.97505 8.20201 2.13509 8.4983 2.13509C8.79485 2.13509 9.07657 1.97535 9.26098 1.85733C9.4673 1.72529 9.68008 1.55737 9.8573 1.41751L9.86157 1.41414C9.86165 1.41407 9.86173 1.41401 9.86181 1.41395C10.4281 0.968678 10.8367 0.671875 11.2863 0.671875C11.7369 0.671875 12.1457 0.968745 12.7104 1.41358L5.67182 0.690477ZM2.17553 27.4314C1.45746 26.8834 1.05238 26.1801 0.82377 25.526L2.17553 27.4314Z" stroke="#C8D0DB"/>
<path fill-rule="evenodd" clip-rule="evenodd" d="M15.7128 11H7.28724C6.02573 11 5 10.1022 5 9C5 7.89692 6.02573 7 7.28724 7H15.7128C16.9743 7 18 7.89692 18 9C18 10.1022 16.9733 11 15.7128 11Z" fill="#C8D0DB"/>
<path d="M16.4229 20.7556H14.9076V19.2993H16.4229C16.6506 19.2993 16.8351 19.1149 16.8351 18.8872C16.8351 18.6594 16.6506 18.4749 16.4229 18.4749H14.9076V16.4542C14.9076 16.1592 14.8493 15.9427 14.7344 15.8108C14.6252 15.6853 14.4816 15.627 14.2827 15.627C14.093 15.627 13.9548 15.6849 13.8477 15.8096C13.7342 15.9416 13.6765 16.1585 13.6765 16.4543V18.4752H10.8261L9.61415 16.6412C9.51603 16.4861 9.41738 16.3314 9.31819 16.177C9.23292 16.0445 9.14975 15.9366 9.07119 15.856C9.00165 15.7847 8.92239 15.7295 8.8297 15.6871C8.74224 15.6471 8.63104 15.6271 8.49949 15.6271C8.3317 15.6271 8.17939 15.6731 8.03355 15.7675C7.88923 15.8609 7.78946 15.9764 7.72853 16.1206C7.67504 16.2576 7.64675 16.4676 7.64675 16.7386V18.475H6.14647C5.91883 18.4751 5.73438 18.6596 5.73438 18.8873C5.73438 19.115 5.91883 19.2994 6.1465 19.2994H7.64677V20.7559H6.1465C5.91883 20.7559 5.73438 20.9404 5.73438 21.1682C5.73438 21.3958 5.91883 21.5802 6.1465 21.5802H7.64677V23.8873C7.64677 24.1736 7.70692 24.3879 7.82606 24.5241C7.93935 24.6539 8.08301 24.7142 8.27808 24.7142C8.46629 24.7142 8.60883 24.6537 8.72703 24.5236C8.84806 24.3903 8.90929 24.1761 8.90929 23.8874V21.5802H11.4886L12.8844 23.7205C12.9821 23.8628 13.0812 24.0043 13.1816 24.1448C13.2718 24.2705 13.3701 24.3813 13.4739 24.4738C13.5674 24.5575 13.6676 24.6189 13.7718 24.6563C13.879 24.6949 14.0044 24.7145 14.1434 24.7145C14.5209 24.7145 14.9075 24.5989 14.9075 23.7419V21.5802H16.4228C16.6505 21.5802 16.8351 21.3956 16.8351 21.1679C16.8351 20.9402 16.6506 20.7556 16.4229 20.7556ZM13.6765 19.2993V20.7556H12.3335L11.3711 19.2993H13.6765ZM8.90931 17.6259L9.46316 18.4749H8.90931V17.6259ZM8.90931 20.7556V19.2993H10.0009L10.9509 20.7556H8.90931ZM13.6765 22.7884L12.8783 21.5802H13.6765V22.7884Z" fill="#C8D0DB"/>
</svg>
