<svg width="56" height="56" viewBox="0 0 56 56" fill="none" xmlns="http://www.w3.org/2000/svg">
<path d="M28 55.5C43.1878 55.5 55.5 43.1878 55.5 28C55.5 12.8122 43.1878 0.5 28 0.5C12.8122 0.5 0.5 12.8122 0.5 28C0.5 43.1878 12.8122 55.5 28 55.5Z" stroke="#4D148C"/>
<path fill-rule="evenodd" clip-rule="evenodd" d="M17.2627 19.1952V26.1274H15.8475V19.1952H17.2627V19.1952ZM18.1102 18.3478H15V26.9749H18.1102V18.3478V18.3478Z" fill="#2D017C"/>
<path d="M17.7206 19.7881H19.6274C19.7206 19.7881 19.8223 19.7542 19.8985 19.6949L22.5087 17.6017C22.6104 17.5169 22.7545 17.483 22.8816 17.5254L25.6104 18.2457C25.7121 18.2711 25.7969 18.3305 25.8562 18.4237L27.2714 20.5254L25.8477 21.8135L24.4494 20.6949C24.3901 20.644 24.3053 20.6525 24.246 20.6949L22.5935 22.1101C22.5596 22.144 22.5341 22.1864 22.5341 22.2288C22.5596 22.6525 22.5596 24.822 20.5426 26.0932C19.7969 25.6779 19.5596 25.5762 19.5596 25.5762H17.7206V19.7881V19.7881V19.7881Z" stroke="#FF5900"/>
<path d="M19.8728 26.1189C18.6864 28.8053 19.1271 31.7375 20.8898 33.3731C22.3474 34.7291 24.2796 34.7884 24.8644 34.7799C25.2627 34.7715 27.5084 34.746 28.9661 33.1104C30.822 31.0342 30.1525 27.7969 29.144 26.0341C28.9745 25.7291 28.8051 25.5002 28.6779 25.3392" stroke="#FF5900"/>
<path fill-rule="evenodd" clip-rule="evenodd" d="M28.0171 19.2542C28.3052 19.2542 28.534 19.483 28.534 19.7712C28.534 20.0593 28.3052 20.2881 28.0171 20.2881H26.1951C25.9069 20.2881 25.6781 20.0593 25.6781 19.7712C25.6781 19.483 25.9069 19.2542 26.1951 19.2542H28.0171V19.2542ZM28.0172 18.407H26.1951C25.4409 18.407 24.8307 19.0172 24.8307 19.7714C24.8307 20.5256 25.4409 21.1358 26.1951 21.1358H28.0172C28.7714 21.1358 29.3816 20.5256 29.3816 19.7714C29.3816 19.0256 28.7714 18.407 28.0172 18.407V18.407Z" fill="#FF5900"/>
<path fill-rule="evenodd" clip-rule="evenodd" d="M28.0171 20.9409C28.3052 20.9409 28.534 21.1697 28.534 21.4578C28.534 21.746 28.3052 21.9748 28.0171 21.9748H26.1951C25.9069 21.9748 25.6781 21.746 25.6781 21.4578C25.6781 21.1697 25.9069 20.9409 26.1951 20.9409H28.0171V20.9409ZM28.0172 20.0934H26.1951C25.4409 20.0934 24.8307 20.7036 24.8307 21.4578C24.8307 22.212 25.4409 22.8222 26.1951 22.8222H28.0172C28.7714 22.8222 29.3816 22.212 29.3816 21.4578C29.3816 20.7036 28.7714 20.0934 28.0172 20.0934V20.0934Z" fill="#FF5900"/>
<path fill-rule="evenodd" clip-rule="evenodd" d="M28.0171 22.6271C28.3052 22.6271 28.534 22.8559 28.534 23.144C28.534 23.4322 28.3052 23.661 28.0171 23.661H26.1951C25.9069 23.661 25.6781 23.4322 25.6781 23.144C25.6781 22.8559 25.9069 22.6271 26.1951 22.6271H28.0171V22.6271ZM28.0172 21.7796H26.1951C25.4409 21.7796 24.8307 22.3898 24.8307 23.144C24.8307 23.8982 25.4409 24.5084 26.1951 24.5084H28.0172C28.7714 24.5084 29.3816 23.8982 29.3816 23.144C29.3816 22.3898 28.7714 21.7796 28.0172 21.7796V21.7796Z" fill="#FF5900"/>
<path fill-rule="evenodd" clip-rule="evenodd" d="M28.0171 24.3052C28.3052 24.3052 28.534 24.534 28.534 24.8221C28.534 25.1103 28.3052 25.3391 28.0171 25.3391H26.1951C25.9069 25.3391 25.6781 25.1103 25.6781 24.8221C25.6781 24.534 25.9069 24.3052 26.1951 24.3052H28.0171V24.3052ZM28.0172 23.4577H26.1951C25.4409 23.4577 24.8307 24.0679 24.8307 24.8221C24.8307 25.5764 25.4409 26.1865 26.1951 26.1865H28.0172C28.7714 26.1865 29.3816 25.5764 29.3816 24.8221C29.3816 24.0679 28.7714 23.4577 28.0172 23.4577V23.4577Z" fill="#FF5900"/>
<path d="M21.6612 17.9153C21.6019 17.7797 21.551 17.6356 21.5086 17.4831C21.3307 16.8898 21.3137 16.3475 21.3476 15.9407C21.3053 15.5085 21.6527 15.1525 22.0425 15.1525C22.4324 15.1525 22.7459 15.4661 22.7459 15.8559V15.8729C22.7459 16.2034 23.0171 16.4831 23.3476 16.4915C23.6951 16.5 23.9747 16.2203 23.9747 15.8729V15.7627C23.9747 15.339 24.3137 15 24.7375 15C25.1612 15 25.5002 15.339 25.5002 15.7627C25.5002 15.8305 25.5002 15.8983 25.5002 15.9746C25.5002 16.3051 25.7629 16.5763 26.068 16.5932C26.407 16.6102 26.712 16.322 26.7036 15.9576C26.7036 15.8983 26.7036 15.839 26.7036 15.7797C26.7036 15.3814 27.0256 15.0593 27.4239 15.0593C27.8392 15.0593 28.0849 15.6441 28.1442 15.7797C28.6103 16.8898 27.5341 18.2542 27.3561 18.4746" stroke="#FF5900"/>
<path fill-rule="evenodd" clip-rule="evenodd" d="M42.1526 36.3394V41.1614H40.7373V36.3394H42.1526V36.3394ZM43 35.4919H39.8898V42.0089H43V35.4919V35.4919Z" fill="#FF5900"/>
<path d="M40.0931 37.2708L37.127 37.1437C37.0253 37.1267 36.9151 37.1183 36.8134 37.1013C36.6016 37.0759 36.3982 37.0505 36.1948 37.0251C34.9744 36.4488 33.7541 35.8725 32.5338 35.2962C32.0592 35.0928 31.4999 35.2878 31.2541 35.7369C30.9575 36.2793 31.2117 36.9488 31.788 37.1606L32.7456 37.5081L31.8134 38.1945H28.2626C27.8897 38.1945 27.5337 38.0844 27.2202 37.8895L26.7795 37.6098C26.3473 37.3301 25.771 37.4912 25.5422 37.9573C25.3304 38.3895 25.5168 38.9149 25.9575 39.1183L28.0761 40.0759L31.5253 40.8047H38.3982C38.8897 40.6946 39.3812 40.5844 39.8728 40.4827" stroke="#2D017C"/>
<path d="M27.9662 37.9156C27.9153 37.7292 27.873 37.5343 27.8221 37.3478C27.7204 36.6106 28.1865 36.0851 28.5764 36.0936C28.8645 36.0936 29.1696 36.3817 29.3052 36.7885C29.4238 37.1445 29.5509 37.5004 29.6696 37.8563" stroke="#2D017C"/>
<path d="M23.1754 29.1717H27.5528" stroke="#2D017C" stroke-linecap="square"/>
<path d="M23.1754 30.0474H27.5528" stroke="#2D017C" stroke-linecap="square"/>
<path d="M26.6774 31.3604H26.2397L24.4887 27.8585H24.0236V31.3604" stroke="#2D017C" stroke-linecap="square"/>
<path d="M26.7048 31.3605V27.8586" stroke="#2D017C" stroke-linecap="square"/>
</svg>
