<svg width="57" height="56" viewBox="0 0 57 56" fill="none" xmlns="http://www.w3.org/2000/svg">
<path d="M28.5 55.5C43.6878 55.5 56 43.1878 56 28C56 12.8122 43.6878 0.5 28.5 0.5C13.3122 0.5 1 12.8122 1 28C1 43.1878 13.3122 55.5 28.5 55.5Z" stroke="#4D148C"/>
<path fill-rule="evenodd" clip-rule="evenodd" d="M34.6201 19.9768H33.0378C32.9112 19.9768 32.8479 20.0401 32.8479 20.1667L32.4681 21.4958C32.1517 21.5591 31.8985 21.6857 31.6453 21.8123L30.4427 21.1794C30.3794 21.1161 30.2529 21.1794 30.1896 21.2426L29.0503 22.3819C28.987 22.4452 28.987 22.5718 28.987 22.6351L29.6199 23.8377C29.4933 24.0908 29.3668 24.4073 29.3035 24.6605L27.9743 25.0402C27.911 25.0402 27.7844 25.1668 27.7844 25.2301V26.7492C27.7844 26.8757 27.8477 26.939 27.9743 26.939L29.3035 27.3188C29.3668 27.6353 29.4933 27.8884 29.6832 28.1416L29.0503 29.3442C28.987 29.4075 28.987 29.5341 29.1136 29.5973L30.2529 30.7366C30.3162 30.7999 30.4427 30.7999 30.506 30.7999L31.7086 30.167C31.9618 30.2936 32.2782 30.4202 32.5314 30.4835L32.9112 31.8126C32.9112 31.8759 33.0378 32.0025 33.1011 32.0025H34.6834C34.81 32.0025 34.8733 31.9392 34.8733 31.8126L35.253 30.4835C35.5695 30.4202 35.8227 30.2936 36.0758 30.167L37.2784 30.7999C37.3417 30.8632 37.4683 30.8632 37.5316 30.7366L38.6709 29.5973C38.7341 29.5341 38.7341 29.4075 38.7341 29.3442L38.1012 28.1416C38.2278 27.8884 38.3544 27.572 38.481 27.3188L39.8101 26.939C39.8734 26.939 40 26.8124 40 26.7492V25.1035C40 24.9769 39.9367 24.9137 39.8101 24.9137L38.481 24.5339C38.4177 24.2174 38.2911 23.9643 38.1645 23.7111L38.7974 22.5085C38.8607 22.4452 38.8607 22.3186 38.7341 22.2553L37.5949 21.1161C37.405 21.0528 37.3417 21.0528 37.2151 21.1161L36.0125 21.749C35.7594 21.6224 35.4429 21.4958 35.1897 21.4325L34.81 20.1034C34.81 20.0401 34.7467 19.9135 34.6201 19.9768V19.9768V19.9768ZM34.4302 20.4199L34.7467 21.6857C34.7467 21.749 34.8099 21.8123 34.8732 21.8123C35.1897 21.9389 35.5695 22.0655 35.8859 22.1921C35.9492 22.2554 36.0125 22.2554 36.0758 22.1921L37.2151 21.5591L38.1012 22.4452L37.4683 23.5845C37.405 23.6478 37.405 23.7111 37.4683 23.7744C37.6581 24.0909 37.7847 24.4073 37.848 24.7238C37.848 24.7871 37.9113 24.8504 37.9746 24.8504L39.2405 25.2301V26.496L37.9746 26.8758C37.9113 26.8758 37.848 26.9391 37.848 27.0024C37.7214 27.3188 37.5948 27.6986 37.4683 27.9518C37.405 28.015 37.405 28.0783 37.4683 28.2049L38.1012 29.3442L37.2151 30.2303L36.0758 29.5974C36.0125 29.5341 35.9492 29.5341 35.8859 29.5974C35.5695 29.7873 35.253 29.9138 34.8732 29.9771C34.81 29.9771 34.7467 30.0404 34.7467 30.1037L34.3669 31.3696H33.101L32.7213 30.1037C32.7213 30.0404 32.658 29.9771 32.5947 29.9771C32.3415 30.0404 31.9618 29.9138 31.7086 29.724C31.6453 29.6607 31.582 29.6607 31.5187 29.724L30.3794 30.3569L29.4933 29.4708L30.1263 28.3315C30.1896 28.2682 30.1896 28.2049 30.1263 28.0783C29.9364 27.7619 29.8098 27.4454 29.7465 27.1289C29.7465 27.0656 29.6832 27.0024 29.6199 27.0024L28.354 26.6226V25.3567L29.6199 24.977C29.6832 24.977 29.7465 24.9137 29.7465 24.8504C29.8731 24.5339 29.9997 24.1542 30.1263 23.901C30.1896 23.8377 30.1896 23.7744 30.1263 23.7111L29.4933 22.5718L30.3794 21.6857L31.5187 22.3187C31.582 22.382 31.6453 22.382 31.7086 22.3187C32.0251 22.1288 32.3415 22.0022 32.7213 21.9389C32.7846 21.9389 32.8479 21.8756 32.8479 21.8123L33.1643 20.5464L34.4302 20.4199V20.4199V20.4199ZM31.582 25.9263C31.582 27.1289 32.5947 28.1416 33.7973 28.1416C34.9998 28.1416 36.0125 27.1289 36.0125 25.9263C36.0125 24.7238 34.9998 23.7111 33.7973 23.7111C32.5947 23.7111 31.582 24.7238 31.582 25.9263V25.9263ZM35.5695 25.9263C35.5695 26.939 34.7467 27.6986 33.7973 27.6986C32.7846 27.6986 32.0251 26.8757 32.0251 25.9263C32.0251 24.9137 32.8479 24.1541 33.7973 24.1541C34.81 24.1541 35.5695 24.9769 35.5695 25.9263V25.9263Z" fill="#FF5900"/>
<path d="M32.8479 20.1667L33.3286 20.304L33.3479 20.2367V20.1667H32.8479ZM32.4681 21.4958L32.5662 21.9861L32.8651 21.9263L32.9489 21.6332L32.4681 21.4958ZM31.6453 21.8123L31.4124 22.2547L31.6395 22.3742L31.8689 22.2595L31.6453 21.8123ZM30.4427 21.1794L30.0892 21.5329L30.1428 21.5865L30.2099 21.6218L30.4427 21.1794ZM30.1896 21.2426L29.836 20.8891L29.836 20.8891L30.1896 21.2426ZM29.0503 22.3819L29.4038 22.7355L29.4038 22.7355L29.0503 22.3819ZM28.987 22.6351H28.487V22.7586L28.5445 22.868L28.987 22.6351ZM29.6199 23.8377L30.0671 24.0613L30.1819 23.8318L30.0624 23.6048L29.6199 23.8377ZM29.3035 24.6605L29.4408 25.1412L29.7185 25.0619L29.7885 24.7817L29.3035 24.6605ZM27.9743 25.0402V25.5402H28.0443L28.1117 25.521L27.9743 25.0402ZM27.9743 26.939L28.1117 26.4583L28.0443 26.439H27.9743V26.939ZM29.3035 27.3188L29.7938 27.2207L29.734 26.9218L29.4408 26.838L29.3035 27.3188ZM29.6832 28.1416L30.1257 28.3745L30.273 28.0946L30.0832 27.8416L29.6832 28.1416ZM29.0503 29.3442L29.4038 29.6977L29.4574 29.6441L29.4927 29.577L29.0503 29.3442ZM29.1136 29.5973L29.4671 29.2438L29.4098 29.1864L29.3372 29.1501L29.1136 29.5973ZM30.2529 30.7366L29.8993 31.0902L29.8993 31.0902L30.2529 30.7366ZM30.506 30.7999V31.2999H30.6296L30.7389 31.2424L30.506 30.7999ZM31.7086 30.167L31.9322 29.7198L31.7027 29.605L31.4757 29.7245L31.7086 30.167ZM32.5314 30.4835L33.0122 30.3461L32.9328 30.0684L32.6527 29.9984L32.5314 30.4835ZM32.9112 31.8126H33.4112V31.7426L33.3919 31.6752L32.9112 31.8126ZM34.8733 31.8126L34.3925 31.6752L34.3733 31.7426V31.8126H34.8733ZM35.253 30.4835L35.155 29.9932L34.856 30.053L34.7723 30.3461L35.253 30.4835ZM36.0758 30.167L36.3087 29.7245L36.0817 29.605L35.8522 29.7198L36.0758 30.167ZM37.2784 30.7999L37.632 30.4464L37.5784 30.3928L37.5113 30.3575L37.2784 30.7999ZM37.5316 30.7366L37.178 30.3831L37.1207 30.4404L37.0844 30.513L37.5316 30.7366ZM38.6709 29.5973L39.0244 29.9509L39.0244 29.9509L38.6709 29.5973ZM38.7341 29.3442H39.2341V29.2206L39.1766 29.1113L38.7341 29.3442ZM38.1012 28.1416L37.654 27.918L37.5393 28.1475L37.6588 28.3745L38.1012 28.1416ZM38.481 27.3188L38.3436 26.838L38.1321 26.8985L38.0338 27.0952L38.481 27.3188ZM39.8101 26.939V26.439H39.7401L39.6728 26.4583L39.8101 26.939ZM39.8101 24.9137L39.6728 25.3944L39.7401 25.4137H39.8101V24.9137ZM38.481 24.5339L37.9907 24.632L38.0505 24.9309L38.3436 25.0147L38.481 24.5339ZM38.1645 23.7111L37.722 23.4782L37.6026 23.7052L37.7173 23.9347L38.1645 23.7111ZM38.7974 22.5085L38.4439 22.155L38.3903 22.2086L38.355 22.2756L38.7974 22.5085ZM38.7341 22.2553L38.3806 22.6089L38.438 22.6663L38.5105 22.7026L38.7341 22.2553ZM37.5949 21.1161L37.9484 20.7625L37.865 20.6791L37.753 20.6417L37.5949 21.1161ZM37.2151 21.1161L36.9915 20.6688L36.9822 20.6736L37.2151 21.1161ZM36.0125 21.749L35.7889 22.1962L36.0184 22.3109L36.2454 22.1915L36.0125 21.749ZM35.1897 21.4325L34.709 21.5699L34.7883 21.8476L35.0685 21.9176L35.1897 21.4325ZM34.81 20.1034H34.31V20.1734L34.3292 20.2407L34.81 20.1034ZM34.7467 21.6857H35.2467V21.6242L35.2317 21.5645L34.7467 21.6857ZM34.8732 21.8123L35.0589 21.3481L34.9695 21.3123H34.8732V21.8123ZM35.8859 22.1921L36.2395 21.8385L36.1669 21.766L36.0716 21.7278L35.8859 22.1921ZM36.0758 22.1921L35.833 21.755L35.7718 21.789L35.7223 21.8385L36.0758 22.1921ZM37.2151 21.5591L37.5686 21.2056L37.302 20.9389L36.9723 21.1221L37.2151 21.5591ZM38.1012 22.4452L38.5383 22.6881L38.7214 22.3584L38.4547 22.0917L38.1012 22.4452ZM37.4683 23.5845L37.8218 23.9381L37.8713 23.8886L37.9053 23.8273L37.4683 23.5845ZM37.4683 23.7744L37.897 23.5172L37.8653 23.4644L37.8218 23.4208L37.4683 23.7744ZM37.848 24.7238H38.348V24.6743L38.3383 24.6257L37.848 24.7238ZM37.9746 24.8504L38.1183 24.3715L38.048 24.3504H37.9746V24.8504ZM39.2405 25.2301H39.7405V24.8581L39.3841 24.7512L39.2405 25.2301ZM39.2405 26.496L39.3841 26.9749L39.7405 26.868V26.496H39.2405ZM37.9746 26.8758V27.3758H38.048L38.1183 27.3547L37.9746 26.8758ZM37.848 27.0024L38.3123 27.1881L38.348 27.0986V27.0024H37.848ZM37.4683 27.9518L37.8218 28.3053L37.8792 28.2479L37.9155 28.1754L37.4683 27.9518ZM37.4683 28.2049L37.021 28.4285L37.0259 28.4382L37.0312 28.4477L37.4683 28.2049ZM38.1012 29.3442L38.4547 29.6978L38.7214 29.4311L38.5383 29.1014L38.1012 29.3442ZM37.2151 30.2303L36.9723 30.6674L37.302 30.8505L37.5686 30.5839L37.2151 30.2303ZM36.0758 29.5974L35.7223 29.9509L35.7718 30.0004L35.833 30.0345L36.0758 29.5974ZM35.8859 29.5974L36.1432 30.0261L36.196 29.9945L36.2395 29.9509L35.8859 29.5974ZM34.8732 29.9771V30.4771H34.9146L34.9554 30.4703L34.8732 29.9771ZM34.7467 30.1037L35.2256 30.2474L35.2467 30.1771V30.1037H34.7467ZM34.3669 31.3696V31.8696H34.7389L34.8458 31.5133L34.3669 31.3696ZM33.101 31.3696L32.6221 31.5133L32.729 31.8696H33.101V31.3696ZM32.7213 30.1037H32.2213V30.1771L32.2424 30.2474L32.7213 30.1037ZM32.5947 29.9771V29.4771H32.5331L32.4734 29.4921L32.5947 29.9771ZM31.7086 29.724L31.355 30.0775L31.3802 30.1026L31.4086 30.124L31.7086 29.724ZM31.5187 29.724L31.7615 30.161L31.8227 30.127L31.8723 30.0775L31.5187 29.724ZM30.3794 30.3569L30.0259 30.7104L30.2926 30.9771L30.6223 30.794L30.3794 30.3569ZM29.4933 29.4708L29.0562 29.228L28.8731 29.5577L29.1398 29.8243L29.4933 29.4708ZM30.1263 28.3315L29.7727 27.978L29.7232 28.0275L29.6892 28.0887L30.1263 28.3315ZM30.1263 28.0783L30.5735 27.8547L30.5649 27.8376L30.555 27.8211L30.1263 28.0783ZM29.7465 27.1289H29.2465V27.1785L29.2562 27.227L29.7465 27.1289ZM29.6199 27.0024L29.4762 27.4813L29.5465 27.5024H29.6199V27.0024ZM28.354 26.6226H27.854V26.9946L28.2104 27.1015L28.354 26.6226ZM28.354 25.3567L28.2104 24.8778L27.854 24.9847V25.3567H28.354ZM29.6199 24.977V24.477H29.5465L29.4762 24.4981L29.6199 24.977ZM29.7465 24.8504L29.2823 24.6647L29.2465 24.7541V24.8504H29.7465ZM30.1263 23.901L29.7727 23.5474L29.7153 23.6048L29.679 23.6774L30.1263 23.901ZM30.1263 23.7111L29.6892 23.9539L29.7232 24.0151L29.7727 24.0647L30.1263 23.7111ZM29.4933 22.5718L29.1398 22.2183L28.8731 22.485L29.0562 22.8147L29.4933 22.5718ZM30.3794 21.6857L30.6223 21.2486L30.2926 21.0655L30.0259 21.3322L30.3794 21.6857ZM31.5187 22.3187L31.8723 21.9651L31.8227 21.9156L31.7615 21.8816L31.5187 22.3187ZM31.7086 22.3187L31.4513 21.8899L31.3986 21.9216L31.355 21.9651L31.7086 22.3187ZM32.7213 21.9389V21.4389H32.6799L32.6391 21.4457L32.7213 21.9389ZM32.8479 21.8123L32.3628 21.691L32.3479 21.7508V21.8123H32.8479ZM33.1643 20.5464L33.1146 20.0489L32.7646 20.0839L32.6793 20.4252L33.1643 20.5464ZM33.7973 24.1541L33.7973 24.6541L33.7973 24.6541L33.7973 24.1541ZM34.6201 19.4768H33.0378V20.4768H34.6201V19.4768ZM33.0378 19.4768C32.8974 19.4768 32.7003 19.5122 32.5418 19.6707C32.3833 19.8292 32.3479 20.0263 32.3479 20.1667H33.3479C33.3479 20.1804 33.3441 20.2826 33.2489 20.3778C33.1537 20.473 33.0515 20.4768 33.0378 20.4768V19.4768ZM32.3671 20.0293L31.9874 21.3585L32.9489 21.6332L33.3286 20.304L32.3671 20.0293ZM32.3701 21.0055C31.9793 21.0837 31.6704 21.2407 31.4217 21.3651L31.8689 22.2595C32.1266 22.1307 32.324 22.0345 32.5662 21.9861L32.3701 21.0055ZM31.8782 21.3698L30.6756 20.7369L30.2099 21.6218L31.4124 22.2547L31.8782 21.3698ZM30.7963 20.8258C30.5617 20.5912 30.2686 20.6523 30.158 20.6892C30.0286 20.7323 29.916 20.8091 29.836 20.8891L30.5431 21.5962C30.5264 21.6129 30.5087 21.6264 30.4743 21.6379C30.455 21.6443 30.4073 21.6577 30.3401 21.6516C30.2651 21.6448 30.1691 21.6128 30.0892 21.5329L30.7963 20.8258ZM29.836 20.8891L28.6967 22.0284L29.4038 22.7355L30.5431 21.5962L29.836 20.8891ZM28.6967 22.0284C28.5542 22.1709 28.5154 22.3442 28.5017 22.4263C28.4861 22.52 28.487 22.6063 28.487 22.6351H29.487C29.487 22.6188 29.4871 22.6095 29.4875 22.6004C29.4879 22.5915 29.4884 22.5888 29.4881 22.5907C29.4879 22.5918 29.4856 22.6063 29.4765 22.6286C29.4673 22.6509 29.4466 22.6927 29.4038 22.7355L28.6967 22.0284ZM28.5445 22.868L29.1775 24.0705L30.0624 23.6048L29.4295 22.4022L28.5445 22.868ZM29.1727 23.6141C29.0352 23.8892 28.893 24.2407 28.8184 24.5392L29.7885 24.7817C29.8405 24.5739 29.9515 24.2925 30.0671 24.0613L29.1727 23.6141ZM29.1661 24.1797L27.8369 24.5595L28.1117 25.521L29.4408 25.1412L29.1661 24.1797ZM27.9743 24.5402C27.8164 24.5402 27.6986 24.6088 27.6548 24.6359C27.5947 24.6731 27.5431 24.7168 27.5021 24.7579C27.461 24.7989 27.4172 24.8505 27.3801 24.9106C27.3529 24.9544 27.2844 25.0722 27.2844 25.2301H28.2844C28.2844 25.3015 28.2676 25.3543 28.2579 25.38C28.2473 25.4081 28.2362 25.4274 28.2303 25.4369C28.2189 25.4554 28.2107 25.4635 28.2092 25.465C28.2077 25.4665 28.1996 25.4747 28.1811 25.4861C28.1716 25.492 28.1523 25.5031 28.1242 25.5137C28.0985 25.5234 28.0457 25.5402 27.9743 25.5402V24.5402ZM27.2844 25.2301V26.7492H28.2844V25.2301H27.2844ZM27.2844 26.7492C27.2844 26.8895 27.3199 27.0866 27.4783 27.2451C27.6368 27.4036 27.8339 27.439 27.9743 27.439V26.439C27.9881 26.439 28.0903 26.4428 28.1854 26.538C28.2806 26.6332 28.2844 26.7354 28.2844 26.7492H27.2844ZM27.8369 27.4198L29.1661 27.7996L29.4408 26.838L28.1117 26.4583L27.8369 27.4198ZM28.8132 27.4169C28.8936 27.819 29.0568 28.1398 29.2832 28.4416L30.0832 27.8416C29.9298 27.6371 29.8399 27.4515 29.7938 27.2207L28.8132 27.4169ZM29.2408 27.9087L28.6078 29.1113L29.4927 29.577L30.1257 28.3745L29.2408 27.9087ZM28.6967 28.9906C28.5498 29.1375 28.4833 29.3477 28.5175 29.553C28.5544 29.7739 28.6985 29.9488 28.89 30.0446L29.3372 29.1501C29.4021 29.1826 29.4829 29.2625 29.5039 29.3886C29.5223 29.4988 29.4875 29.6141 29.4038 29.6977L28.6967 28.9906ZM28.76 29.9509L29.8993 31.0902L30.6064 30.3831L29.4671 29.2438L28.76 29.9509ZM29.8993 31.0902C30.0418 31.2327 30.2151 31.2715 30.2972 31.2852C30.3909 31.3008 30.4773 31.2999 30.506 31.2999V30.2999C30.4897 30.2999 30.4804 30.2999 30.4714 30.2994C30.4625 30.299 30.4597 30.2985 30.4616 30.2988C30.4627 30.299 30.4772 30.3013 30.4995 30.3104C30.5218 30.3196 30.5636 30.3403 30.6064 30.3831L29.8993 31.0902ZM30.7389 31.2424L31.9415 30.6094L31.4757 29.7245L30.2732 30.3575L30.7389 31.2424ZM31.485 30.6142C31.7601 30.7518 32.1116 30.8939 32.4101 30.9685L32.6527 29.9984C32.4449 29.9464 32.1634 29.8354 31.9322 29.7198L31.485 30.6142ZM32.0507 30.6208L32.4304 31.95L33.3919 31.6752L33.0122 30.3461L32.0507 30.6208ZM32.4112 31.8126C32.4112 31.9705 32.4797 32.0884 32.5068 32.1322C32.544 32.1922 32.5878 32.2438 32.6288 32.2848C32.6699 32.3259 32.7214 32.3697 32.7815 32.4069C32.8253 32.434 32.9432 32.5025 33.1011 32.5025V31.5025C33.1724 31.5025 33.2253 31.5193 33.2509 31.529C33.2791 31.5396 33.2983 31.5507 33.3079 31.5566C33.3264 31.5681 33.3344 31.5762 33.3359 31.5777C33.3374 31.5792 33.3456 31.5873 33.3571 31.6058C33.363 31.6153 33.3741 31.6346 33.3847 31.6627C33.3943 31.6884 33.4112 31.7412 33.4112 31.8126H32.4112ZM33.1011 32.5025H34.6834V31.5025H33.1011V32.5025ZM34.6834 32.5025C34.8237 32.5025 35.0209 32.4671 35.1793 32.3086C35.3378 32.1501 35.3733 31.953 35.3733 31.8126H34.3733C34.3733 31.7988 34.377 31.6967 34.4722 31.6015C34.5674 31.5063 34.6696 31.5025 34.6834 31.5025V32.5025ZM35.354 31.95L35.7338 30.6208L34.7723 30.3461L34.3925 31.6752L35.354 31.95ZM35.3511 30.9737C35.7418 30.8956 36.0508 30.7385 36.2994 30.6142L35.8522 29.7198C35.5946 29.8486 35.3971 29.9447 35.155 29.9932L35.3511 30.9737ZM35.843 30.6094L37.0455 31.2424L37.5113 30.3575L36.3087 29.7245L35.843 30.6094ZM36.9249 31.1535C37.0718 31.3004 37.282 31.3669 37.4872 31.3327C37.7081 31.2958 37.883 31.1518 37.9788 30.9602L37.0844 30.513C37.1168 30.4481 37.1968 30.3673 37.3228 30.3463C37.4331 30.3279 37.5483 30.3627 37.632 30.4464L36.9249 31.1535ZM37.8851 31.0902L39.0244 29.9509L38.3173 29.2438L37.178 30.3831L37.8851 31.0902ZM39.0244 29.9509C39.1669 29.8084 39.2057 29.6351 39.2194 29.553C39.235 29.4593 39.2341 29.3729 39.2341 29.3442H38.2341C38.2341 29.3605 38.2341 29.3698 38.2337 29.3788C38.2333 29.3877 38.2327 29.3905 38.233 29.3886C38.2332 29.3875 38.2355 29.373 38.2447 29.3507C38.2538 29.3284 38.2745 29.2866 38.3173 29.2438L39.0244 29.9509ZM39.1766 29.1113L38.5437 27.9087L37.6588 28.3745L38.2917 29.577L39.1766 29.1113ZM38.5484 28.3652C38.6178 28.2265 38.6858 28.0732 38.748 27.9333C38.8124 27.7884 38.8709 27.6569 38.9282 27.5424L38.0338 27.0952C37.9644 27.2339 37.8964 27.3872 37.8342 27.5271C37.7698 27.672 37.7113 27.8035 37.654 27.918L38.5484 28.3652ZM38.6183 27.7996L39.9475 27.4198L39.6728 26.4583L38.3436 26.838L38.6183 27.7996ZM39.8101 27.439C39.968 27.439 40.0859 27.3705 40.1297 27.3434C40.1897 27.3062 40.2413 27.2624 40.2824 27.2214C40.3234 27.1803 40.3672 27.1288 40.4044 27.0687C40.4315 27.0249 40.5 26.9071 40.5 26.7492H39.5C39.5 26.6778 39.5169 26.6249 39.5265 26.5993C39.5371 26.5711 39.5482 26.5519 39.5541 26.5423C39.5656 26.5238 39.5738 26.5158 39.5753 26.5143C39.5767 26.5128 39.5848 26.5046 39.6033 26.4931C39.6129 26.4872 39.6321 26.4762 39.6602 26.4656C39.6859 26.4559 39.7388 26.439 39.8101 26.439V27.439ZM40.5 26.7492V25.1035H39.5V26.7492H40.5ZM40.5 25.1035C40.5 24.9632 40.4646 24.7661 40.3061 24.6076C40.1476 24.4491 39.9505 24.4137 39.8101 24.4137V25.4137C39.7964 25.4137 39.6942 25.4099 39.599 25.3147C39.5038 25.2195 39.5 25.1173 39.5 25.1035H40.5ZM39.9475 24.4329L38.6183 24.0531L38.3436 25.0147L39.6728 25.3944L39.9475 24.4329ZM38.9713 24.4358C38.8931 24.0451 38.7361 23.7362 38.6117 23.4875L37.7173 23.9347C37.8461 24.1923 37.9423 24.3898 37.9907 24.632L38.9713 24.4358ZM38.607 23.944L39.2399 22.7414L38.355 22.2756L37.722 23.4782L38.607 23.944ZM39.151 22.8621C39.2979 22.7151 39.3644 22.5049 39.3302 22.2997C39.2934 22.0788 39.1493 21.9039 38.9578 21.8081L38.5105 22.7026C38.4456 22.6701 38.3648 22.5901 38.3438 22.4641C38.3254 22.3539 38.3603 22.2386 38.4439 22.155L39.151 22.8621ZM39.0877 21.9018L37.9484 20.7625L37.2413 21.4696L38.3806 22.6089L39.0877 21.9018ZM37.753 20.6417C37.656 20.6094 37.525 20.5686 37.3813 20.5686C37.2143 20.5686 37.0857 20.6218 36.9915 20.6688L37.4387 21.5633C37.4474 21.5589 37.4516 21.5571 37.4526 21.5567C37.4534 21.5564 37.45 21.5578 37.4432 21.5599C37.4361 21.562 37.4265 21.5643 37.4148 21.5661C37.403 21.5678 37.3916 21.5686 37.3813 21.5686C37.3609 21.5686 37.3518 21.5656 37.3618 21.5679C37.3668 21.569 37.3751 21.5711 37.388 21.5749C37.4008 21.5787 37.4167 21.5837 37.4368 21.5904L37.753 20.6417ZM36.9822 20.6736L35.7797 21.3065L36.2454 22.1915L37.448 21.5585L36.9822 20.6736ZM36.2361 21.3018C35.961 21.1642 35.6095 21.0221 35.311 20.9475L35.0685 21.9176C35.2763 21.9696 35.5577 22.0806 35.7889 22.1962L36.2361 21.3018ZM35.6705 21.2952L35.2907 19.966L34.3292 20.2407L34.709 21.5699L35.6705 21.2952ZM35.31 20.1034C35.31 19.948 35.2476 19.7706 35.1161 19.6391C35.0408 19.5638 34.9301 19.4919 34.7854 19.4678C34.6392 19.4434 34.5047 19.4755 34.3965 19.5296L34.8437 20.424C34.7988 20.4465 34.7196 20.4706 34.621 20.4542C34.5237 20.4379 34.4526 20.3898 34.4089 20.3462C34.3679 20.3051 34.3459 20.2638 34.3339 20.2337C34.3227 20.2058 34.31 20.1623 34.31 20.1034H35.31ZM33.9451 20.5411L34.2616 21.807L35.2317 21.5645L34.9153 20.2986L33.9451 20.5411ZM34.2467 21.6857C34.2467 21.88 34.3388 22.0324 34.4327 22.1263C34.5266 22.2202 34.679 22.3123 34.8732 22.3123V21.3123C35.0042 21.3123 35.0933 21.3728 35.1398 21.4192C35.1862 21.4656 35.2467 21.5548 35.2467 21.6857H34.2467ZM34.6875 22.2766C34.8545 22.3433 35.0364 22.4094 35.2087 22.4721C35.3845 22.536 35.5507 22.5965 35.7002 22.6563L36.0716 21.7278C35.9047 21.661 35.7228 21.595 35.5505 21.5323C35.3747 21.4684 35.2084 21.4079 35.0589 21.3481L34.6875 22.2766ZM35.5324 22.5456C35.6185 22.6318 35.7698 22.7395 35.9809 22.7395C36.1919 22.7395 36.3432 22.6318 36.4294 22.5456L35.7223 21.8385C35.7451 21.8157 35.8331 21.7395 35.9809 21.7395C36.1286 21.7395 36.2166 21.8157 36.2395 21.8385L35.5324 22.5456ZM36.3186 22.6292L37.4579 21.9962L36.9723 21.1221L35.833 21.755L36.3186 22.6292ZM36.8615 21.9127L37.7476 22.7988L38.4547 22.0917L37.5686 21.2056L36.8615 21.9127ZM37.6641 22.2024L37.0312 23.3417L37.9053 23.8273L38.5383 22.6881L37.6641 22.2024ZM37.1147 23.231C37.0286 23.3171 36.9208 23.4684 36.9208 23.6795C36.9208 23.8905 37.0286 24.0418 37.1147 24.128L37.8218 23.4208C37.8447 23.4437 37.9208 23.5317 37.9208 23.6795C37.9208 23.8272 37.8447 23.9152 37.8218 23.9381L37.1147 23.231ZM37.0395 24.0316C37.2041 24.3059 37.3072 24.569 37.3577 24.8219L38.3383 24.6257C38.2623 24.2456 38.1122 23.8758 37.897 23.5172L37.0395 24.0316ZM37.348 24.7238C37.348 24.9181 37.4401 25.0705 37.534 25.1644C37.6279 25.2583 37.7803 25.3504 37.9746 25.3504V24.3504C38.1056 24.3504 38.1947 24.4108 38.2411 24.4573C38.2876 24.5037 38.348 24.5928 38.348 24.7238H37.348ZM37.8309 25.3293L39.0968 25.7091L39.3841 24.7512L38.1183 24.3715L37.8309 25.3293ZM38.7405 25.2301V26.496H39.7405V25.2301H38.7405ZM39.0968 26.0171L37.8309 26.3969L38.1183 27.3547L39.3841 26.9749L39.0968 26.0171ZM37.9746 26.3758C37.7803 26.3758 37.6279 26.4679 37.534 26.5618C37.4401 26.6557 37.348 26.8081 37.348 27.0024H38.348C38.348 27.1333 38.2876 27.2224 38.2411 27.2689C38.1947 27.3153 38.1056 27.3758 37.9746 27.3758V26.3758ZM37.3838 26.8167C37.2379 27.1814 37.1362 27.4978 37.021 27.7281L37.9155 28.1754C38.0535 27.8993 38.205 27.4563 38.3123 27.1881L37.3838 26.8167ZM37.1147 27.5982C37.0147 27.6982 36.9208 27.8504 36.9208 28.0546C36.9208 28.2163 36.9825 28.3513 37.021 28.4285L37.9155 27.9813C37.9062 27.9628 37.9062 27.9601 37.9089 27.9685C37.9116 27.9771 37.9208 28.0083 37.9208 28.0546C37.9208 28.1056 37.9097 28.1608 37.8851 28.2131C37.8621 28.2619 37.8348 28.2923 37.8218 28.3053L37.1147 27.5982ZM37.0312 28.4477L37.6641 29.587L38.5383 29.1014L37.9053 27.9621L37.0312 28.4477ZM37.7476 28.9906L36.8615 29.8768L37.5686 30.5839L38.4547 29.6978L37.7476 28.9906ZM37.4579 29.7932L36.3186 29.1603L35.833 30.0345L36.9723 30.6674L37.4579 29.7932ZM36.4294 29.2438C36.3432 29.1577 36.1919 29.0499 35.9809 29.0499C35.7699 29.0499 35.6185 29.1577 35.5324 29.2438L36.2395 29.9509C36.2166 29.9738 36.1286 30.0499 35.9809 30.0499C35.8331 30.0499 35.7451 29.9738 35.7223 29.9509L36.4294 29.2438ZM35.6287 29.1686C35.3593 29.3303 35.1017 29.4322 34.791 29.4839L34.9554 30.4703C35.4044 30.3955 35.7796 30.2443 36.1432 30.0261L35.6287 29.1686ZM34.8732 29.4771C34.679 29.4771 34.5266 29.5692 34.4327 29.6631C34.3388 29.757 34.2467 29.9095 34.2467 30.1037H35.2467C35.2467 30.2347 35.1862 30.3238 35.1398 30.3702C35.0933 30.4167 35.0042 30.4771 34.8732 30.4771V29.4771ZM34.2677 29.96L33.888 31.2259L34.8458 31.5133L35.2256 30.2474L34.2677 29.96ZM34.3669 30.8696H33.101V31.8696H34.3669V30.8696ZM33.5799 31.2259L33.2002 29.96L32.2424 30.2474L32.6221 31.5133L33.5799 31.2259ZM33.2213 30.1037C33.2213 29.9095 33.1292 29.757 33.0353 29.6631C32.9414 29.5692 32.789 29.4771 32.5947 29.4771V30.4771C32.4637 30.4771 32.3746 30.4167 32.3282 30.3702C32.2817 30.3238 32.2213 30.2347 32.2213 30.1037H33.2213ZM32.4734 29.4921C32.4748 29.4917 32.4598 29.4953 32.4244 29.4925C32.3901 29.4898 32.3462 29.4818 32.2953 29.4666C32.1909 29.4353 32.0861 29.3821 32.0086 29.324L31.4086 30.124C31.5843 30.2557 31.7959 30.3608 32.008 30.4244C32.2119 30.4856 32.4686 30.524 32.716 30.4622L32.4734 29.4921ZM32.0621 29.3704C31.976 29.2843 31.8247 29.1765 31.6136 29.1765C31.4026 29.1765 31.2513 29.2843 31.1652 29.3704L31.8723 30.0775C31.8494 30.1004 31.7614 30.1765 31.6136 30.1765C31.4659 30.1765 31.3779 30.1004 31.355 30.0775L32.0621 29.3704ZM31.2759 29.2869L30.1366 29.9198L30.6223 30.794L31.7615 30.161L31.2759 29.2869ZM30.733 30.0033L29.8469 29.1172L29.1398 29.8243L30.0259 30.7104L30.733 30.0033ZM29.9304 29.7136L30.5633 28.5743L29.6892 28.0887L29.0562 29.228L29.9304 29.7136ZM30.4798 28.6851C30.5798 28.5851 30.6737 28.4329 30.6737 28.2287C30.6737 28.067 30.6121 27.9319 30.5735 27.8547L29.679 28.3019C29.6883 28.3205 29.6883 28.3231 29.6856 28.3148C29.6829 28.3061 29.6737 28.275 29.6737 28.2287C29.6737 28.1777 29.6848 28.1225 29.7095 28.0702C29.7324 28.0213 29.7597 27.991 29.7727 27.978L30.4798 28.6851ZM30.555 27.8211C30.3904 27.5468 30.2874 27.2837 30.2368 27.0309L29.2562 27.227C29.3322 27.6071 29.4823 27.9769 29.6975 28.3356L30.555 27.8211ZM30.2465 27.1289C30.2465 26.9347 30.1544 26.7823 30.0605 26.6884C29.9666 26.5945 29.8142 26.5024 29.6199 26.5024V27.5024C29.4889 27.5024 29.3998 27.4419 29.3534 27.3955C29.3069 27.349 29.2465 27.2599 29.2465 27.1289H30.2465ZM29.7636 26.5234L28.4977 26.1437L28.2104 27.1015L29.4762 27.4813L29.7636 26.5234ZM28.854 26.6226V25.3567H27.854V26.6226H28.854ZM28.4977 25.8356L29.7636 25.4559L29.4762 24.4981L28.2104 24.8778L28.4977 25.8356ZM29.6199 25.477C29.8142 25.477 29.9666 25.3849 30.0605 25.291C30.1544 25.1971 30.2465 25.0446 30.2465 24.8504H29.2465C29.2465 24.7194 29.3069 24.6303 29.3534 24.5839C29.3998 24.5374 29.4889 24.477 29.6199 24.477V25.477ZM30.2107 25.0361C30.3566 24.6714 30.4583 24.3549 30.5735 24.1246L29.679 23.6774C29.541 23.9534 29.3896 24.3965 29.2823 24.6647L30.2107 25.0361ZM30.4798 24.2545C30.566 24.1684 30.6737 24.0171 30.6737 23.806C30.6737 23.595 30.566 23.4437 30.4798 23.3576L29.7727 24.0647C29.7499 24.0418 29.6737 23.9538 29.6737 23.806C29.6737 23.6583 29.7499 23.5703 29.7727 23.5474L30.4798 24.2545ZM30.5633 23.4683L29.9304 22.329L29.0562 22.8147L29.6892 23.9539L30.5633 23.4683ZM29.8469 22.9254L30.733 22.0393L30.0259 21.3322L29.1398 22.2183L29.8469 22.9254ZM30.1366 22.1228L31.2759 22.7557L31.7615 21.8816L30.6223 21.2486L30.1366 22.1228ZM31.1652 22.6722C31.2513 22.7584 31.4026 22.8661 31.6136 22.8661C31.8247 22.8661 31.976 22.7584 32.0621 22.6722L31.355 21.9651C31.3779 21.9423 31.4659 21.8661 31.6136 21.8661C31.7614 21.8661 31.8494 21.9423 31.8723 21.9651L31.1652 22.6722ZM31.9658 22.7474C32.2352 22.5858 32.4929 22.4839 32.8035 22.4321L32.6391 21.4457C32.1902 21.5205 31.8149 21.6718 31.4513 21.8899L31.9658 22.7474ZM32.7213 22.4389C32.9155 22.4389 33.0679 22.3468 33.1619 22.2529C33.2558 22.159 33.3479 22.0066 33.3479 21.8123H32.3479C32.3479 21.6813 32.4083 21.5922 32.4548 21.5458C32.5012 21.4993 32.5903 21.4389 32.7213 21.4389V22.4389ZM33.3329 21.9336L33.6494 20.6677L32.6793 20.4252L32.3628 21.691L33.3329 21.9336ZM33.2141 21.044L34.4799 20.9174L34.3804 19.9223L33.1146 20.0489L33.2141 21.044ZM31.082 25.9263C31.082 27.405 32.3186 28.6416 33.7973 28.6416V27.6416C32.8708 27.6416 32.082 26.8528 32.082 25.9263H31.082ZM33.7973 28.6416C35.276 28.6416 36.5125 27.405 36.5125 25.9263H35.5125C35.5125 26.8528 34.7237 27.6416 33.7973 27.6416V28.6416ZM36.5125 25.9263C36.5125 24.4476 35.276 23.2111 33.7973 23.2111V24.2111C34.7237 24.2111 35.5125 24.9999 35.5125 25.9263H36.5125ZM33.7973 23.2111C32.3186 23.2111 31.082 24.4476 31.082 25.9263H32.082C32.082 24.9999 32.8708 24.2111 33.7973 24.2111V23.2111ZM35.0695 25.9263C35.0695 26.6513 34.4822 27.1986 33.7973 27.1986V28.1986C35.0111 28.1986 36.0695 27.2267 36.0695 25.9263H35.0695ZM33.7973 27.1986C33.0723 27.1986 32.5251 26.6113 32.5251 25.9263H31.5251C31.5251 27.1402 32.4969 28.1986 33.7973 28.1986V27.1986ZM32.5251 25.9263C32.5251 25.2014 33.1123 24.6541 33.7973 24.6541V23.6541C32.5834 23.6541 31.5251 24.6259 31.5251 25.9263H32.5251ZM33.7973 24.6541C34.5223 24.6541 35.0695 25.2414 35.0695 25.9263H36.0695C36.0695 24.7125 35.0977 23.6541 33.7973 23.6541L33.7973 24.6541Z" fill="#FF5900"/>
<path fill-rule="evenodd" clip-rule="evenodd" d="M26.7004 31.3085C26.5738 31.3085 26.5105 31.4351 26.5105 31.4984L26.1941 32.5743C25.9409 32.6376 25.751 32.7642 25.4978 32.8908L24.4852 32.3212C24.4219 32.2579 24.2953 32.3212 24.232 32.3845L23.2826 33.3339C23.2193 33.3971 23.2193 33.5237 23.2193 33.587L23.7889 34.5997C23.6623 34.7896 23.5991 35.0428 23.4725 35.2959L22.3965 35.6124C22.3332 35.6124 22.2066 35.739 22.2066 35.8023V37.1947C22.2066 37.3213 22.2699 37.3846 22.3965 37.3846L23.4725 37.7011C23.5358 37.9543 23.6623 38.1441 23.7256 38.3973L23.156 39.41C23.0927 39.4733 23.0927 39.5999 23.2193 39.6632L24.1687 40.6126C24.232 40.6759 24.3586 40.6759 24.4219 40.6759L25.4346 40.1062C25.6244 40.2328 25.8776 40.2961 26.1308 40.3594L26.4472 41.4354C26.4472 41.4987 26.5738 41.6253 26.6371 41.6253H28.0296C28.1562 41.6253 28.2195 41.562 28.2195 41.4354L28.5359 40.3594C28.7891 40.2961 28.979 40.1695 29.2321 40.1062L30.2448 40.6759C30.3081 40.7391 30.4347 40.7391 30.498 40.6126L31.4474 39.6632C31.5107 39.5999 31.5107 39.4733 31.5107 39.41L30.9411 38.3973C31.0676 38.2074 31.1309 37.9542 31.1942 37.7011L32.2702 37.3846C32.3335 37.3846 32.4601 37.258 32.4601 37.1947V35.8023C32.4601 35.6757 32.3968 35.6124 32.2702 35.6124L31.1942 35.2959C31.1309 35.0428 31.0044 34.8529 30.8778 34.5997L31.4474 33.587C31.5107 33.5237 31.5107 33.3971 31.3841 33.3339L30.4347 32.3845C30.3714 32.3212 30.2448 32.3212 30.1815 32.3212L29.1689 32.8908C28.979 32.7642 28.7258 32.7009 28.4726 32.5743L28.1562 31.4984C28.1562 31.4351 28.0296 31.3085 27.9663 31.3085H26.7004V31.3085V31.3085ZM26.827 31.7515H27.903L28.2194 32.7642C28.2194 32.8275 28.2827 32.8908 28.4093 32.8908C28.7258 32.9541 28.979 33.0807 29.2321 33.2073C29.2954 33.2706 29.3587 33.2706 29.422 33.2073L30.3714 32.7009L31.1309 33.4604L30.6246 34.4098C30.5613 34.4731 30.5613 34.5364 30.6246 34.663C30.7512 34.9162 30.8778 35.1694 30.9411 35.4858C30.9411 35.5491 31.0043 35.6124 31.0676 35.6124L32.0803 35.9289V36.9416L31.0676 37.258C31.0043 37.258 30.9411 37.3213 30.9411 37.3846C30.8778 37.7011 30.7512 37.9543 30.6246 38.2074C30.5613 38.2707 30.5613 38.334 30.6246 38.3973L31.1309 39.3467L30.4347 40.0429L29.4853 39.5366C29.422 39.4733 29.3587 39.5366 29.2954 39.5366C29.0423 39.6632 28.7891 39.7898 28.4726 39.853C28.4093 39.853 28.346 39.9163 28.2827 39.9796L27.903 41.1189H26.8903L26.5738 40.1062C26.5738 40.0429 26.5105 39.9796 26.3839 39.9796C26.0675 39.9163 25.8143 39.7898 25.5611 39.6632C25.4978 39.5999 25.4345 39.5999 25.3713 39.6632L24.4219 40.1695L23.7256 39.41L24.232 38.4606C24.2953 38.3973 24.2953 38.334 24.232 38.2707C24.1054 38.0175 23.9788 37.7644 23.9155 37.4479C23.9155 37.3846 23.8522 37.3213 23.7889 37.3213L22.7762 37.0049V35.9922L23.7889 35.6757C23.8522 35.6757 23.9155 35.6124 23.9155 35.5491C23.9788 35.2326 24.1054 34.9795 24.232 34.7263C24.2953 34.663 24.2953 34.5997 24.232 34.4731L23.7256 33.5237L24.4851 32.7642L25.4345 33.2706C25.4978 33.3338 25.5611 33.3338 25.6244 33.2706C25.8776 33.144 26.1308 33.0174 26.4472 32.9541C26.5105 32.9541 26.5738 32.8908 26.6371 32.8275L26.827 31.7515V31.7515V31.7515ZM27.3966 34.663C26.4472 34.663 25.6244 35.4858 25.6244 36.4352C25.6244 37.3846 26.4472 38.2074 27.3966 38.2074C28.346 38.2074 29.1688 37.3846 29.1688 36.4352C29.1688 35.4858 28.346 34.663 27.3966 34.663V34.663ZM27.3966 35.1061C28.1562 35.1061 28.7258 35.6757 28.7258 36.4352C28.7258 37.1947 28.1562 37.7644 27.3966 37.7644C26.6371 37.7644 26.0675 37.1947 26.0675 36.4352C26.0675 35.6757 26.6371 35.1061 27.3966 35.1061V35.1061Z" fill="#FF5900"/>
<path d="M26.5105 31.4984L26.9902 31.6394L27.0105 31.5704V31.4984H26.5105ZM26.1941 32.5743L26.3153 33.0594L26.593 32.99L26.6738 32.7154L26.1941 32.5743ZM25.4978 32.8908L25.2527 33.3266L25.4841 33.4567L25.7215 33.338L25.4978 32.8908ZM24.4852 32.3212L24.1316 32.6747L24.1802 32.7233L24.24 32.7569L24.4852 32.3212ZM24.232 32.3845L23.8784 32.0309L23.8784 32.0309L24.232 32.3845ZM23.2826 33.3339L23.6361 33.6874L23.6361 33.6874L23.2826 33.3339ZM23.2193 33.587H22.7193V33.718L22.7835 33.8322L23.2193 33.587ZM23.7889 34.5997L24.205 34.8771L24.3751 34.6219L24.2247 34.3546L23.7889 34.5997ZM23.4725 35.2959L23.6136 35.7756L23.8223 35.7142L23.9197 35.5195L23.4725 35.2959ZM22.3965 35.6124V36.1124H22.4685L22.5376 36.0921L22.3965 35.6124ZM22.3965 37.3846L22.5376 36.9049L22.4685 36.8846H22.3965V37.3846ZM23.4725 37.7011L23.9575 37.5798L23.8881 37.3022L23.6136 37.2214L23.4725 37.7011ZM23.7256 38.3973L24.1614 38.6424L24.259 38.469L24.2107 38.276L23.7256 38.3973ZM23.156 39.41L23.5096 39.7635L23.5581 39.715L23.5918 39.6551L23.156 39.41ZM23.2193 39.6632L23.5728 39.3096L23.5155 39.2522L23.4429 39.216L23.2193 39.6632ZM24.1687 40.6126L23.8151 40.9661L23.8151 40.9661L24.1687 40.6126ZM24.4219 40.6759V41.1759H24.5528L24.667 41.1116L24.4219 40.6759ZM25.4346 40.1062L25.7119 39.6902L25.4567 39.5201L25.1894 39.6704L25.4346 40.1062ZM26.1308 40.3594L26.6105 40.2183L26.5297 39.9437L26.2521 39.8743L26.1308 40.3594ZM26.4472 41.4354H26.9472V41.3634L26.9269 41.2943L26.4472 41.4354ZM28.2195 41.4354L27.7398 41.2943L27.7195 41.3634V41.4354H28.2195ZM28.5359 40.3594L28.4147 39.8743L28.137 39.9437L28.0562 40.2183L28.5359 40.3594ZM29.2321 40.1062L29.4773 39.6704L29.3039 39.5729L29.1109 39.6211L29.2321 40.1062ZM30.2448 40.6759L30.5984 40.3223L30.5498 40.2737L30.49 40.2401L30.2448 40.6759ZM30.498 40.6126L30.1445 40.259L30.0871 40.3164L30.0508 40.389L30.498 40.6126ZM31.4474 39.6632L31.0939 39.3096L31.0939 39.3096L31.4474 39.6632ZM31.5107 39.41H32.0107V39.279L31.9465 39.1649L31.5107 39.41ZM30.9411 38.3973L30.525 38.12L30.3549 38.3751L30.5053 38.6424L30.9411 38.3973ZM31.1942 37.7011L31.0532 37.2214L30.7786 37.3022L30.7092 37.5798L31.1942 37.7011ZM32.2702 37.3846V36.8846H32.1982L32.1291 36.9049L32.2702 37.3846ZM32.2702 35.6124L32.1291 36.0921L32.1982 36.1124H32.2702V35.6124ZM31.1942 35.2959L30.7092 35.4172L30.7786 35.6949L31.0532 35.7756L31.1942 35.2959ZM30.8778 34.5997L30.442 34.3546L30.3119 34.5859L30.4306 34.8233L30.8778 34.5997ZM31.4474 33.587L31.0939 33.2335L31.0453 33.282L31.0116 33.3419L31.4474 33.587ZM31.3841 33.3339L31.0306 33.6874L31.0879 33.7448L31.1605 33.7811L31.3841 33.3339ZM30.4347 32.3845L30.7883 32.0309L30.7883 32.0309L30.4347 32.3845ZM30.1815 32.3212V31.8212H30.0506L29.9364 31.8854L30.1815 32.3212ZM29.1689 32.8908L28.8915 33.3068L29.1467 33.4769L29.414 33.3266L29.1689 32.8908ZM28.4726 32.5743L27.9929 32.7154L28.0544 32.9242L28.249 33.0215L28.4726 32.5743ZM28.1562 31.4984H27.6562V31.5704L27.6765 31.6394L28.1562 31.4984ZM27.903 31.7515L28.3802 31.6024L28.2706 31.2515H27.903V31.7515ZM28.2194 32.7642H28.7194V32.6879L28.6967 32.6151L28.2194 32.7642ZM28.4093 32.8908L28.5074 32.4005L28.4588 32.3908H28.4093V32.8908ZM29.2321 33.2073L29.5857 32.8537L29.5283 32.7963L29.4557 32.7601L29.2321 33.2073ZM29.422 33.2073L29.1867 32.7661L29.1211 32.8011L29.0685 32.8537L29.422 33.2073ZM30.3714 32.7009L30.725 32.3474L30.463 32.0854L30.1361 32.2597L30.3714 32.7009ZM31.1309 33.4604L31.5721 33.6957L31.7464 33.3688L31.4845 33.1069L31.1309 33.4604ZM30.6246 34.4098L30.9781 34.7634L31.0307 34.7108L31.0658 34.6451L30.6246 34.4098ZM30.6246 34.663L31.0718 34.4394L31.0718 34.4394L30.6246 34.663ZM30.9411 35.4858H31.4411V35.4363L31.4313 35.3878L30.9411 35.4858ZM31.0676 35.6124L31.2168 35.1352L31.1439 35.1124H31.0676V35.6124ZM32.0803 35.9289H32.5803V35.5613L32.2295 35.4516L32.0803 35.9289ZM32.0803 36.9416L32.2295 37.4188L32.5803 37.3092V36.9416H32.0803ZM31.0676 37.258V37.758H31.1439L31.2168 37.7353L31.0676 37.258ZM30.9411 37.3846L31.4313 37.4827L31.4411 37.4341V37.3846H30.9411ZM30.6246 38.2074L30.9781 38.561L31.0355 38.5036L31.0718 38.431L30.6246 38.2074ZM30.6246 38.3973L31.0658 38.162L31.0307 38.0964L30.9781 38.0437L30.6246 38.3973ZM31.1309 39.3467L31.4845 39.7003L31.7464 39.4383L31.5721 39.1114L31.1309 39.3467ZM30.4347 40.0429L30.1994 40.4841L30.5263 40.6584L30.7883 40.3965L30.4347 40.0429ZM29.4853 39.5366L29.1318 39.8901L29.1844 39.9427L29.25 39.9778L29.4853 39.5366ZM29.2954 39.5366V39.0366H29.1774L29.0718 39.0894L29.2954 39.5366ZM28.4726 39.853V40.353H28.5221L28.5707 40.3433L28.4726 39.853ZM28.2827 39.9796L27.9292 39.6261L27.8457 39.7095L27.8084 39.8215L28.2827 39.9796ZM27.903 41.1189V41.6189H28.2634L28.3773 41.277L27.903 41.1189ZM26.8903 41.1189L26.413 41.268L26.5227 41.6189H26.8903V41.1189ZM26.5738 40.1062H26.0738V40.1825L26.0966 40.2554L26.5738 40.1062ZM26.3839 39.9796L26.2859 40.4699L26.3344 40.4796H26.3839V39.9796ZM25.5611 39.6632L25.2076 40.0167L25.265 40.0741L25.3375 40.1104L25.5611 39.6632ZM25.3713 39.6632L25.6065 40.1043L25.6722 40.0693L25.7248 40.0167L25.3713 39.6632ZM24.4219 40.1695L24.0533 40.5074L24.3152 40.7931L24.6572 40.6107L24.4219 40.1695ZM23.7256 39.41L23.2845 39.1747L23.1179 39.487L23.3571 39.7479L23.7256 39.41ZM24.232 38.4606L23.8784 38.107L23.8258 38.1597L23.7908 38.2253L24.232 38.4606ZM24.232 38.2707L23.7848 38.4943L23.821 38.5669L23.8784 38.6243L24.232 38.2707ZM23.9155 37.4479H23.4155V37.4974L23.4252 37.546L23.9155 37.4479ZM23.7889 37.3213L23.6398 37.7986L23.7126 37.8213H23.7889V37.3213ZM22.7762 37.0049H22.2762V37.3724L22.6271 37.4821L22.7762 37.0049ZM22.7762 35.9922L22.6271 35.5149L22.2762 35.6246V35.9922H22.7762ZM23.7889 35.6757V35.1757H23.7126L23.6398 35.1985L23.7889 35.6757ZM23.9155 35.5491L23.4252 35.4511L23.4155 35.4996V35.5491H23.9155ZM24.232 34.7263L23.8784 34.3727L23.8211 34.4301L23.7848 34.5027L24.232 34.7263ZM24.232 34.4731L24.6793 34.2494L24.6732 34.2378L24.232 34.4731ZM23.7256 33.5237L23.3721 33.1702L23.1101 33.4321L23.2845 33.759L23.7256 33.5237ZM24.4851 32.7642L24.7204 32.323L24.3936 32.1487L24.1316 32.4107L24.4851 32.7642ZM25.4345 33.2706L25.7881 32.917L25.7355 32.8644L25.6698 32.8294L25.4345 33.2706ZM25.6244 33.2706L25.4008 32.8233L25.3282 32.8596L25.2709 32.917L25.6244 33.2706ZM26.4472 32.9541V32.4541H26.3977L26.3492 32.4638L26.4472 32.9541ZM26.6371 32.8275L26.9907 33.181L27.1021 33.0696L27.1295 32.9144L26.6371 32.8275ZM26.7004 30.8085C26.4513 30.8085 26.2706 30.9385 26.1676 31.0673C26.0772 31.1803 26.0105 31.3351 26.0105 31.4984H27.0105C27.0105 31.5579 26.9975 31.5993 26.9897 31.62C26.9804 31.6443 26.9672 31.6685 26.9484 31.692C26.9087 31.7417 26.823 31.8085 26.7004 31.8085V30.8085ZM26.0309 31.3573L25.7144 32.4333L26.6738 32.7154L26.9902 31.6394L26.0309 31.3573ZM26.0728 32.0893C25.7486 32.1703 25.462 32.3497 25.2742 32.4436L25.7215 33.338C26.0401 33.1787 26.1332 33.1049 26.3153 33.0594L26.0728 32.0893ZM25.743 32.455L24.7303 31.8854L24.24 32.7569L25.2527 33.3266L25.743 32.455ZM24.8387 31.9676C24.6041 31.733 24.311 31.7941 24.2005 31.831C24.071 31.8741 23.9584 31.9509 23.8784 32.0309L24.5855 32.738C24.5688 32.7547 24.5512 32.7682 24.5167 32.7797C24.4975 32.7861 24.4497 32.7995 24.3825 32.7934C24.3075 32.7866 24.2115 32.7546 24.1316 32.6747L24.8387 31.9676ZM23.8784 32.0309L22.929 32.9803L23.6361 33.6874L24.5855 32.738L23.8784 32.0309ZM22.929 32.9803C22.7865 33.1228 22.7477 33.2961 22.734 33.3782C22.7184 33.4719 22.7193 33.5583 22.7193 33.587H23.7193C23.7193 33.5707 23.7194 33.5614 23.7198 33.5524C23.7202 33.5435 23.7207 33.5407 23.7204 33.5426C23.7202 33.5437 23.7179 33.5582 23.7088 33.5805C23.6996 33.6028 23.6789 33.6446 23.6361 33.6874L22.929 32.9803ZM22.7835 33.8322L23.3531 34.8448L24.2247 34.3546L23.6551 33.3419L22.7835 33.8322ZM23.3729 34.3224C23.2778 34.465 23.214 34.6196 23.1665 34.7384C23.1137 34.8702 23.0766 34.9697 23.0253 35.0723L23.9197 35.5195C23.9949 35.369 24.0527 35.2153 24.0949 35.1098C24.1423 34.9913 24.1735 34.9243 24.205 34.8771L23.3729 34.3224ZM23.3314 34.8163L22.2554 35.1327L22.5376 36.0921L23.6136 35.7756L23.3314 34.8163ZM22.3965 35.1124C22.2386 35.1124 22.1207 35.1809 22.0769 35.208C22.0169 35.2452 21.9653 35.289 21.9243 35.3301C21.8832 35.3711 21.8394 35.4227 21.8022 35.4827C21.7751 35.5265 21.7066 35.6444 21.7066 35.8023H22.7066C22.7066 35.8736 22.6897 35.9265 22.6801 35.9522C22.6695 35.9803 22.6584 35.9995 22.6525 36.0091C22.641 36.0276 22.6328 36.0357 22.6314 36.0372C22.6299 36.0386 22.6218 36.0468 22.6033 36.0583C22.5937 36.0642 22.5745 36.0753 22.5464 36.0859C22.5207 36.0955 22.4678 36.1124 22.3965 36.1124V35.1124ZM21.7066 35.8023V37.1947H22.7066V35.8023H21.7066ZM21.7066 37.1947C21.7066 37.3351 21.742 37.5322 21.9005 37.6907C22.059 37.8492 22.2561 37.8846 22.3965 37.8846V36.8846C22.4103 36.8846 22.5124 36.8884 22.6076 36.9836C22.7028 37.0788 22.7066 37.181 22.7066 37.1947H21.7066ZM22.2554 37.8643L23.3314 38.1808L23.6136 37.2214L22.5376 36.9049L22.2554 37.8643ZM22.9874 37.8223C23.0302 37.9935 23.0937 38.1394 23.1395 38.2461C23.1887 38.3609 23.2201 38.4365 23.2406 38.5186L24.2107 38.276C24.1679 38.1049 24.1044 37.959 24.0586 37.8522C24.0094 37.7374 23.9781 37.6619 23.9575 37.5798L22.9874 37.8223ZM23.2899 38.1522L22.7202 39.1649L23.5918 39.6551L24.1614 38.6424L23.2899 38.1522ZM22.8025 39.0564C22.6555 39.2034 22.589 39.4136 22.6232 39.6188C22.6601 39.8397 22.8042 40.0146 22.9957 40.1104L23.4429 39.216C23.5078 39.2484 23.5886 39.3284 23.6096 39.4544C23.628 39.5646 23.5932 39.6799 23.5096 39.7635L22.8025 39.0564ZM22.8657 40.0167L23.8151 40.9661L24.5222 40.259L23.5728 39.3096L22.8657 40.0167ZM23.8151 40.9661C23.9576 41.1086 24.1309 41.1474 24.2131 41.1611C24.3067 41.1767 24.3931 41.1759 24.4219 41.1759V40.1759C24.4056 40.1759 24.3962 40.1758 24.3872 40.1754C24.3783 40.175 24.3756 40.1744 24.3775 40.1747C24.3785 40.1749 24.393 40.1772 24.4154 40.1864C24.4377 40.1955 24.4794 40.2162 24.5222 40.259L23.8151 40.9661ZM24.667 41.1116L25.6797 40.542L25.1894 39.6704L24.1767 40.2401L24.667 41.1116ZM25.1572 40.5222C25.4334 40.7064 25.7798 40.787 26.0095 40.8445L26.2521 39.8743C25.9754 39.8051 25.8154 39.7592 25.7119 39.6902L25.1572 40.5222ZM25.6511 40.5005L25.9676 41.5765L26.9269 41.2943L26.6105 40.2183L25.6511 40.5005ZM25.9472 41.4354C25.9472 41.5933 26.0158 41.7111 26.0429 41.7549C26.0801 41.815 26.1239 41.8666 26.1649 41.9076C26.2059 41.9486 26.2575 41.9924 26.3176 42.0296C26.3614 42.0567 26.4792 42.1253 26.6371 42.1253V41.1253C26.7085 41.1253 26.7614 41.1421 26.787 41.1518C26.8152 41.1624 26.8344 41.1734 26.8439 41.1794C26.8625 41.1908 26.8705 41.199 26.872 41.2005C26.8735 41.202 26.8817 41.21 26.8931 41.2286C26.8991 41.2381 26.9101 41.2573 26.9207 41.2855C26.9304 41.3111 26.9472 41.364 26.9472 41.4354H25.9472ZM26.6371 42.1253H28.0296V41.1253H26.6371V42.1253ZM28.0296 42.1253C28.1699 42.1253 28.3671 42.0898 28.5255 41.9313C28.684 41.7728 28.7195 41.5757 28.7195 41.4354H27.7195C27.7195 41.4216 27.7232 41.3194 27.8184 41.2242C27.9136 41.129 28.0158 41.1253 28.0296 41.1253V42.1253ZM28.6991 41.5765L29.0156 40.5005L28.0562 40.2183L27.7398 41.2943L28.6991 41.5765ZM28.6572 40.8445C28.8283 40.8017 28.9743 40.7381 29.081 40.6924C29.1958 40.6432 29.2714 40.6118 29.3534 40.5913L29.1109 39.6211C28.9397 39.6639 28.7938 39.7275 28.6871 39.7732C28.5723 39.8224 28.4967 39.8538 28.4147 39.8743L28.6572 40.8445ZM28.987 40.542L29.9997 41.1116L30.49 40.2401L29.4773 39.6704L28.987 40.542ZM29.8913 41.0294C30.0382 41.1763 30.2484 41.2428 30.4536 41.2086C30.6746 41.1718 30.8495 41.0277 30.9452 40.8362L30.0508 40.389C30.0833 40.324 30.1632 40.2432 30.2892 40.2222C30.3995 40.2038 30.5148 40.2387 30.5984 40.3223L29.8913 41.0294ZM30.8516 40.9661L31.801 40.0167L31.0939 39.3096L30.1445 40.259L30.8516 40.9661ZM31.801 40.0167C31.9435 39.8742 31.9823 39.7009 31.996 39.6188C32.0116 39.5251 32.0107 39.4388 32.0107 39.41H31.0107C31.0107 39.4263 31.0106 39.4356 31.0102 39.4446C31.0098 39.4536 31.0093 39.4563 31.0096 39.4544C31.0098 39.4533 31.0121 39.4388 31.0212 39.4165C31.0304 39.3942 31.0511 39.3524 31.0939 39.3096L31.801 40.0167ZM31.9465 39.1649L31.3769 38.1522L30.5053 38.6424L31.0749 39.6551L31.9465 39.1649ZM31.3571 38.6747C31.5413 38.3984 31.6219 38.052 31.6793 37.8223L30.7092 37.5798C30.64 37.8565 30.594 38.0164 30.525 38.12L31.3571 38.6747ZM31.3353 38.1808L32.4113 37.8643L32.1291 36.9049L31.0532 37.2214L31.3353 38.1808ZM32.2702 37.8846C32.4281 37.8846 32.546 37.8161 32.5898 37.789C32.6498 37.7518 32.7014 37.708 32.7424 37.667C32.7835 37.6259 32.8273 37.5743 32.8645 37.5143C32.8916 37.4705 32.9601 37.3526 32.9601 37.1947H31.9601C31.9601 37.1234 31.977 37.0705 31.9866 37.0448C31.9972 37.0167 32.0083 36.9975 32.0142 36.9879C32.0257 36.9694 32.0339 36.9613 32.0353 36.9599C32.0368 36.9584 32.0449 36.9502 32.0634 36.9387C32.073 36.9328 32.0922 36.9217 32.1203 36.9111C32.146 36.9015 32.1989 36.8846 32.2702 36.8846V37.8846ZM32.9601 37.1947V35.8023H31.9601V37.1947H32.9601ZM32.9601 35.8023C32.9601 35.6619 32.9247 35.4648 32.7662 35.3063C32.6077 35.1478 32.4106 35.1124 32.2702 35.1124V36.1124C32.2564 36.1124 32.1543 36.1086 32.0591 36.0134C31.9639 35.9182 31.9601 35.8161 31.9601 35.8023H32.9601ZM32.4113 35.1327L31.3353 34.8163L31.0532 35.7756L32.1291 36.0921L32.4113 35.1327ZM31.6793 35.1747C31.5983 34.8505 31.4188 34.5638 31.325 34.3761L30.4306 34.8233C30.5899 35.1419 30.6636 35.235 30.7092 35.4172L31.6793 35.1747ZM31.3136 34.8448L31.8832 33.8322L31.0116 33.3419L30.442 34.3546L31.3136 34.8448ZM31.801 33.9406C31.9479 33.7937 32.0144 33.5835 31.9802 33.3782C31.9433 33.1573 31.7992 32.9824 31.6077 32.8866L31.1605 33.7811C31.0956 33.7486 31.0148 33.6687 30.9938 33.5426C30.9754 33.4324 31.0102 33.3171 31.0939 33.2335L31.801 33.9406ZM31.7377 32.9803L30.7883 32.0309L30.0812 32.738L31.0306 33.6874L31.7377 32.9803ZM30.7883 32.0309C30.6458 31.8884 30.4725 31.8496 30.3903 31.8359C30.2967 31.8203 30.2103 31.8212 30.1815 31.8212V32.8212C30.1978 32.8212 30.2072 32.8212 30.2162 32.8216C30.2251 32.822 30.2278 32.8226 30.2259 32.8223C30.2249 32.8221 30.2104 32.8198 30.188 32.8106C30.1657 32.8015 30.124 32.7808 30.0812 32.738L30.7883 32.0309ZM29.9364 31.8854L28.9237 32.455L29.414 33.3266L30.4267 32.7569L29.9364 31.8854ZM29.4462 32.4748C29.3036 32.3797 29.149 32.3159 29.0302 32.2683C28.8984 32.2156 28.7989 32.1784 28.6962 32.1271L28.249 33.0215C28.3996 33.0968 28.5532 33.1546 28.6588 33.1968C28.7773 33.2442 28.8443 33.2753 28.8915 33.3068L29.4462 32.4748ZM28.9523 32.4333L28.6358 31.3573L27.6765 31.6394L27.9929 32.7154L28.9523 32.4333ZM28.6562 31.4984C28.6562 31.3405 28.5876 31.2226 28.5605 31.1788C28.5233 31.1187 28.4796 31.0672 28.4385 31.0261C28.3975 30.9851 28.3459 30.9413 28.2858 30.9041C28.242 30.877 28.1242 30.8085 27.9663 30.8085V31.8085C27.8949 31.8085 27.842 31.7916 27.8164 31.7819C27.7883 31.7714 27.769 31.7603 27.7595 31.7544C27.741 31.7429 27.7329 31.7347 27.7314 31.7332C27.7299 31.7317 27.7217 31.7237 27.7103 31.7052C27.7044 31.6956 27.6933 31.6764 27.6827 31.6482C27.673 31.6226 27.6562 31.5697 27.6562 31.4984H28.6562ZM27.9663 30.8085H26.7004V31.8085H27.9663V30.8085ZM26.827 32.2515H27.903V31.2515H26.827V32.2515ZM27.4257 31.9007L27.7422 32.9133L28.6967 32.6151L28.3802 31.6024L27.4257 31.9007ZM27.7194 32.7642C27.7194 33.2275 28.1494 33.3908 28.4093 33.3908V32.3908C28.426 32.3908 28.4919 32.395 28.5669 32.4512C28.6451 32.5099 28.7194 32.6194 28.7194 32.7642H27.7194ZM28.3113 33.3811C28.5534 33.4295 28.7509 33.5256 29.0085 33.6545L29.4557 32.7601C29.2071 32.6357 28.8981 32.4787 28.5074 32.4005L28.3113 33.3811ZM28.8786 33.5608C28.9647 33.647 29.1161 33.7547 29.3271 33.7547C29.5381 33.7547 29.6894 33.647 29.7756 33.5608L29.0685 32.8537C29.0913 32.8309 29.1793 32.7547 29.3271 32.7547C29.4748 32.7547 29.5628 32.8309 29.5857 32.8537L28.8786 33.5608ZM29.6573 33.6484L30.6067 33.1421L30.1361 32.2597L29.1867 32.7661L29.6573 33.6484ZM30.0179 33.0545L30.7774 33.814L31.4845 33.1069L30.725 32.3474L30.0179 33.0545ZM30.6898 33.2251L30.1834 34.1745L31.0658 34.6451L31.5721 33.6957L30.6898 33.2251ZM30.271 34.0563C30.171 34.1563 30.0771 34.3084 30.0771 34.5127C30.0771 34.6744 30.1388 34.8094 30.1774 34.8866L31.0718 34.4394C31.0625 34.4209 31.0625 34.4182 31.0652 34.4266C31.068 34.4352 31.0771 34.4664 31.0771 34.5127C31.0771 34.5636 31.066 34.6189 31.0414 34.6712C31.0184 34.72 30.9912 34.7504 30.9781 34.7634L30.271 34.0563ZM30.1774 34.8866C30.3062 35.1443 30.4023 35.3417 30.4508 35.5839L31.4313 35.3878C31.3532 34.997 31.1961 34.6881 31.0718 34.4394L30.1774 34.8866ZM30.4411 35.4858C30.4411 35.6801 30.5331 35.8325 30.6271 35.9264C30.721 36.0203 30.8734 36.1124 31.0676 36.1124V35.1124C31.1986 35.1124 31.2877 35.1729 31.3342 35.2193C31.3806 35.2657 31.4411 35.3548 31.4411 35.4858H30.4411ZM30.9185 36.0896L31.9312 36.4061L32.2295 35.4516L31.2168 35.1352L30.9185 36.0896ZM31.5803 35.9289V36.9416H32.5803V35.9289H31.5803ZM31.9312 36.4643L30.9185 36.7808L31.2168 37.7353L32.2295 37.4188L31.9312 36.4643ZM31.0676 36.758C30.8734 36.758 30.721 36.8501 30.6271 36.944C30.5331 37.0379 30.4411 37.1904 30.4411 37.3846H31.4411C31.4411 37.5156 31.3806 37.6047 31.3342 37.6511C31.2877 37.6976 31.1986 37.758 31.0676 37.758V36.758ZM30.4508 37.2866C30.4023 37.5287 30.3062 37.7262 30.1774 37.9838L31.0718 38.431C31.1961 38.1823 31.3532 37.8734 31.4313 37.4827L30.4508 37.2866ZM30.271 37.8539C30.1849 37.94 30.0771 38.0913 30.0771 38.3024C30.0771 38.5134 30.1849 38.6647 30.271 38.7509L30.9781 38.0437C31.001 38.0666 31.0771 38.1546 31.0771 38.3024C31.0771 38.4501 31.001 38.5381 30.9781 38.561L30.271 37.8539ZM30.1834 38.6326L30.6898 39.582L31.5721 39.1114L31.0658 38.162L30.1834 38.6326ZM30.7774 38.9931L30.0812 39.6894L30.7883 40.3965L31.4845 39.7003L30.7774 38.9931ZM30.67 39.6017L29.7206 39.0954L29.25 39.9778L30.1994 40.4841L30.67 39.6017ZM29.8389 39.183C29.7594 39.1036 29.6549 39.0419 29.53 39.0184C29.4147 38.9968 29.3194 39.0152 29.2691 39.0278C29.2368 39.0359 29.1709 39.0576 29.1938 39.0504C29.1939 39.0504 29.2041 39.0472 29.2196 39.044C29.2357 39.0407 29.262 39.0366 29.2954 39.0366V40.0366C29.3895 40.0366 29.4645 40.0135 29.492 40.0049C29.5003 40.0024 29.5075 40 29.5123 39.9984C29.5186 39.9963 29.5195 39.9959 29.5225 39.995C29.5272 39.9934 29.5215 39.9955 29.5116 39.9979C29.493 40.0026 29.4294 40.017 29.3457 40.0013C29.3028 39.9933 29.2607 39.9785 29.2217 39.9571C29.1832 39.9361 29.1535 39.9119 29.1318 39.8901L29.8389 39.183ZM29.0718 39.0894C28.8142 39.2182 28.6167 39.3143 28.3746 39.3628L28.5707 40.3433C28.9614 40.2652 29.2703 40.1081 29.519 39.9838L29.0718 39.0894ZM28.4726 39.353C28.2778 39.353 28.1381 39.4473 28.0777 39.4926C28.012 39.5418 27.9543 39.601 27.9292 39.6261L28.6363 40.3332C28.6532 40.3163 28.6633 40.3063 28.6722 40.2979C28.6809 40.2897 28.682 40.2894 28.6777 40.2926C28.6739 40.2954 28.656 40.3087 28.6256 40.322C28.594 40.3358 28.5412 40.353 28.4726 40.353V39.353ZM27.8084 39.8215L27.4286 40.9608L28.3773 41.277L28.7571 40.1377L27.8084 39.8215ZM27.903 40.6189H26.8903V41.6189H27.903V40.6189ZM27.3675 40.9698L27.0511 39.9571L26.0966 40.2554L26.413 41.268L27.3675 40.9698ZM27.0738 40.1062C27.0738 39.6429 26.6439 39.4796 26.3839 39.4796V40.4796C26.3672 40.4796 26.3014 40.4755 26.2264 40.4192C26.1482 40.3606 26.0738 40.251 26.0738 40.1062H27.0738ZM26.482 39.4893C26.2398 39.4409 26.0424 39.3448 25.7847 39.216L25.3375 40.1104C25.5862 40.2347 25.8951 40.3918 26.2859 40.4699L26.482 39.4893ZM25.9147 39.3096C25.8285 39.2235 25.6772 39.1157 25.4662 39.1157C25.2552 39.1157 25.1038 39.2235 25.0177 39.3096L25.7248 40.0167C25.702 40.0396 25.6139 40.1157 25.4662 40.1157C25.3185 40.1157 25.2304 40.0396 25.2076 40.0167L25.9147 39.3096ZM25.136 39.222L24.1866 39.7283L24.6572 40.6107L25.6065 40.1043L25.136 39.222ZM24.7904 39.8317L24.0942 39.0721L23.3571 39.7479L24.0533 40.5074L24.7904 39.8317ZM24.1668 39.6453L24.6732 38.6959L23.7908 38.2253L23.2845 39.1747L24.1668 39.6453ZM24.5855 38.8142C24.6717 38.728 24.7794 38.5767 24.7794 38.3657C24.7794 38.1546 24.6717 38.0033 24.5855 37.9172L23.8784 38.6243C23.8556 38.6014 23.7794 38.5134 23.7794 38.3657C23.7794 38.2179 23.8556 38.1299 23.8784 38.107L24.5855 38.8142ZM24.6792 38.0471C24.5504 37.7895 24.4542 37.592 24.4058 37.3498L23.4252 37.546C23.5034 37.9367 23.6604 38.2456 23.7848 38.4943L24.6792 38.0471ZM24.4155 37.4479C24.4155 37.2536 24.3234 37.1012 24.2295 37.0073C24.1356 36.9134 23.9832 36.8213 23.7889 36.8213V37.8213C23.658 37.8213 23.5688 37.7609 23.5224 37.7144C23.476 37.668 23.4155 37.5789 23.4155 37.4479H24.4155ZM23.9381 36.8441L22.9254 36.5276L22.6271 37.4821L23.6398 37.7986L23.9381 36.8441ZM23.2762 37.0049V35.9922H22.2762V37.0049H23.2762ZM22.9254 36.4694L23.9381 36.1529L23.6398 35.1985L22.6271 35.5149L22.9254 36.4694ZM23.7889 36.1757C23.9832 36.1757 24.1356 36.0836 24.2295 35.9897C24.3234 35.8958 24.4155 35.7434 24.4155 35.5491H23.4155C23.4155 35.4181 23.476 35.329 23.5224 35.2826C23.5688 35.2361 23.658 35.1757 23.7889 35.1757V36.1757ZM24.4058 35.6472C24.4542 35.405 24.5504 35.2076 24.6792 34.9499L23.7848 34.5027C23.6604 34.7514 23.5034 35.0603 23.4252 35.4511L24.4058 35.6472ZM24.5855 35.0799C24.6855 34.9799 24.7794 34.8277 24.7794 34.6234C24.7794 34.4618 24.7178 34.3267 24.6792 34.2495L23.7848 34.6967C23.794 34.7153 23.794 34.7179 23.7914 34.7096C23.7886 34.7009 23.7794 34.6698 23.7794 34.6234C23.7794 34.5725 23.7905 34.5173 23.8152 34.4649C23.8381 34.4161 23.8654 34.3858 23.8784 34.3727L24.5855 35.0799ZM24.6732 34.2378L24.1668 33.2884L23.2845 33.759L23.7908 34.7084L24.6732 34.2378ZM24.0792 33.8773L24.8387 33.1178L24.1316 32.4107L23.3721 33.1702L24.0792 33.8773ZM24.2499 33.2054L25.1993 33.7117L25.6698 32.8294L24.7204 32.323L24.2499 33.2054ZM25.081 33.6241C25.1671 33.7103 25.3185 33.818 25.5295 33.818C25.7405 33.818 25.8918 33.7103 25.978 33.6241L25.2709 32.917C25.2937 32.8941 25.3818 32.818 25.5295 32.818C25.6772 32.818 25.7652 32.8941 25.7881 32.917L25.081 33.6241ZM25.848 33.7178C26.1057 33.5889 26.3031 33.4928 26.5453 33.4444L26.3492 32.4638C25.9584 32.542 25.6495 32.699 25.4008 32.8233L25.848 33.7178ZM26.4472 33.4541C26.642 33.4541 26.7818 33.3598 26.8422 33.3145C26.9078 33.2653 26.9656 33.2062 26.9907 33.181L26.2836 32.474C26.2667 32.4909 26.2566 32.5009 26.2477 32.5092C26.2389 32.5174 26.2378 32.5178 26.2422 32.5145C26.246 32.5117 26.2639 32.4984 26.2943 32.4851C26.3258 32.4713 26.3787 32.4541 26.4472 32.4541V33.4541ZM27.1295 32.9144L27.3194 31.8384L26.3346 31.6646L26.1447 32.7406L27.1295 32.9144ZM27.3966 34.163C26.1711 34.163 25.1244 35.2096 25.1244 36.4352H26.1244C26.1244 35.7619 26.7234 35.163 27.3966 35.163V34.163ZM25.1244 36.4352C25.1244 37.6607 26.1711 38.7074 27.3966 38.7074V37.7074C26.7234 37.7074 26.1244 37.1084 26.1244 36.4352H25.1244ZM27.3966 38.7074C28.6222 38.7074 29.6688 37.6607 29.6688 36.4352H28.6688C28.6688 37.1084 28.0699 37.7074 27.3966 37.7074V38.7074ZM29.6688 36.4352C29.6688 35.2096 28.6222 34.163 27.3966 34.163V35.163C28.0699 35.163 28.6688 35.7619 28.6688 36.4352H29.6688ZM27.3966 35.6061C27.88 35.6061 28.2258 35.9518 28.2258 36.4352H29.2258C29.2258 35.3996 28.4323 34.6061 27.3966 34.6061V35.6061ZM28.2258 36.4352C28.2258 36.9186 27.88 37.2644 27.3966 37.2644V38.2644C28.4323 38.2644 29.2258 37.4709 29.2258 36.4352H28.2258ZM27.3966 37.2644C26.9133 37.2644 26.5675 36.9186 26.5675 36.4352H25.5675C25.5675 37.4709 26.361 38.2644 27.3966 38.2644V37.2644ZM26.5675 36.4352C26.5675 35.9518 26.9133 35.6061 27.3966 35.6061V34.6061C26.361 34.6061 25.5675 35.3996 25.5675 36.4352H26.5675Z" fill="#FF5900"/>
<ellipse cx="27.4658" cy="36.412" rx="1.58233" ry="1.58233" stroke="#2C007D"/>
<ellipse cx="33.7892" cy="25.9286" rx="1.96209" ry="1.96209" stroke="#2C007D"/>
<path d="M22.628 18.6146L23.8797 16.4929C23.9393 16.3918 23.9402 16.2665 23.882 16.1646C23.8237 16.0628 23.7154 15.9999 23.598 16H19.516C19.3985 16 19.2902 16.063 19.232 16.1651C19.1739 16.2671 19.175 16.3925 19.2349 16.4935L20.4945 18.6146" stroke="#20336B"/>
<path d="M22.8633 22.5365C23.4026 22.9542 25.4779 25.1374 25.4779 27.5951C25.4779 29.5809 23.3333 30.3803 21.3475 30.3803C19.3617 30.3803 17.3073 29.5809 17.3073 27.5951C17.3073 25.0393 19.4284 22.8594 19.9219 22.5365" stroke="#20336B"/>
<path d="M16 17.961H17.3073C17.3955 17.9556 17.4818 17.9883 17.5443 18.0508C17.6068 18.1133 17.6395 18.1996 17.6341 18.2878V22.2097C17.6395 22.2979 17.6068 22.3842 17.5443 22.4467C17.4818 22.5092 17.3955 22.5419 17.3073 22.5365H16" stroke="#20336B"/>
<path d="M19.6833 17.2491L18.9414 18.2878C18.7814 18.4866 18.5428 18.6059 18.2878 18.6146H17.6341" stroke="#20336B"/>
<path d="M17.6341 21.556C18.9185 22.1979 19.4768 22.5365 20.2487 22.5365H22.8633C23.517 22.5365 23.6372 22.5031 23.8438 21.8828C24.1706 20.9023 24.4974 19.2682 24.4974 19.2682C24.4974 18.9414 24.1706 18.6146 23.517 18.6146H20.4945" stroke="#20336B"/>
<path d="M19.6073 26.3249H23.1727" stroke="#00BAF2" stroke-linecap="square"/>
<path d="M19.6073 27.1568H23.1727" stroke="#00BAF2" stroke-linecap="square"/>
<path d="M22.4596 28.4048H22.1031L20.6769 25.0771H20.2981V28.4048" stroke="#00BAF2" stroke-linecap="square"/>
<path d="M22.4819 28.4048L22.5105 25.196" stroke="#00BAF2" stroke-linecap="square"/>
</svg>
