<svg width="34" height="28" viewBox="0 0 34 28" fill="none" xmlns="http://www.w3.org/2000/svg">
<path fill-rule="evenodd" clip-rule="evenodd" d="M7.80557 23.6789C7.80557 22.4799 7.80557 21.281 7.80557 20.0821C5.20791 19.7824 3.00987 18.6832 1.4113 16.4853C0.41219 14.9866 -0.0873638 13.388 0.0125474 11.6896C0.112458 9.59144 0.911744 7.79303 2.41041 6.29438C3.90907 4.79572 5.70744 3.99644 7.80557 3.8965C7.70566 3.09723 7.90551 2.39786 8.30513 1.79839C9.00451 0.699375 10.0036 0.099911 11.4024 0C13.1009 0 14.7994 0 16.5977 0C18.3961 0 20.1945 0 21.9929 0C24.5905 0 27.1883 0 29.786 0C31.5844 0 32.9831 1.19893 33.3828 2.89741C33.3828 2.99732 33.3828 3.09723 33.4827 3.19714C33.6825 3.69669 33.2828 4.19625 32.7832 4.19625C31.0848 4.19625 29.3863 4.19625 27.5879 4.19625C27.2882 4.19625 27.2882 4.19625 27.2882 4.49597C27.2882 9.79125 27.2882 14.9866 27.2882 20.2819C27.2882 21.6806 27.2882 23.0794 27.2882 24.4781C27.2882 26.1766 26.0892 27.4755 24.4907 27.8751C23.7913 28.0749 23.1918 27.975 22.4924 27.975C18.3961 27.975 14.2998 27.975 10.2034 27.975C9.00451 27.975 7.90551 27.975 6.70657 27.975C5.50763 27.975 4.60844 27.3755 3.80916 26.3764C3.40951 25.7769 3.10978 25.1775 3.10978 24.3783C3.10978 23.9786 3.30959 23.7787 3.70925 23.7787C4.70835 23.7787 5.60754 23.7787 6.60667 23.7787C7.00629 23.6789 7.40595 23.6789 7.80557 23.6789ZM9.00451 3.79661C11.1026 3.99644 12.901 4.79572 14.2998 6.19447C15.6985 7.59322 16.5978 9.39159 16.6976 11.3898C16.7975 13.1882 16.3979 14.8867 15.2989 16.2854C13.8003 18.5834 11.6022 19.6824 9.00451 19.9822C9.00451 20.1819 9.00451 20.3818 9.00451 20.5816C9.00451 21.4807 9.00451 22.38 9.00451 23.2792C9.00451 23.479 9.00451 23.579 9.30422 23.579C9.60398 23.579 9.90373 23.579 10.1035 23.579C13.4006 23.579 16.5978 23.579 19.7949 23.579C20.3943 23.579 20.4943 23.6789 20.5941 24.2783C20.6941 25.1775 21.0937 25.7769 21.7931 26.2765C22.3925 26.6762 22.992 26.6762 23.5915 26.6762C24.8903 26.6762 25.9893 25.3774 25.9893 24.0784C25.9893 21.7806 25.9893 19.4826 25.9893 17.1847C25.9893 12.6886 25.9893 8.19269 25.9893 3.6967C25.9893 2.7975 26.289 1.99822 26.7886 1.29884C26.7886 1.19893 26.8886 1.19893 26.8886 1.09902C26.389 1.09902 25.8895 1.09902 25.3899 1.09902C22.7922 1.09902 20.0946 1.09902 17.4969 1.09902C15.3988 1.09902 13.4006 1.09902 11.3024 1.09902C10.2034 1.09902 9.20432 1.69849 8.9046 2.7975C9.10441 3.09724 9.00451 3.39696 9.00451 3.79661ZM8.10532 18.9831C11.902 19.0829 15.3988 16.2854 15.4987 12.1891C15.5987 8.2926 12.6013 5.09544 8.70479 4.89563C4.70835 4.69578 1.31141 7.69309 1.21149 11.5896C1.01167 15.586 4.10892 18.8831 8.10532 18.9831ZM20.4943 26.6761C20.3943 26.5762 20.3943 26.4763 20.2944 26.3763C19.9947 25.9768 19.695 25.4772 19.595 24.9777C19.595 24.6779 19.4951 24.6779 19.1954 24.6779C18.0963 24.6779 16.8974 24.6779 15.7983 24.6779C12.1017 24.6779 8.405 24.6779 4.70831 24.6779C4.60841 24.6779 4.5085 24.6779 4.40856 24.6779C4.40856 24.7778 4.5085 24.8776 4.5085 24.9777C4.90812 25.9768 5.80731 26.5762 6.90634 26.5762C7.90547 26.5762 9.00447 26.5762 10.0036 26.5762C13.3007 26.5762 16.5977 26.5762 19.8947 26.5762C20.0945 26.6761 20.2944 26.6761 20.4943 26.6761ZM32.1838 2.99733C31.984 1.7984 30.7851 0.999114 29.3863 1.19894C28.3872 1.29885 27.4881 2.09813 27.3882 2.99733C28.9868 2.99733 30.5853 2.99733 32.1838 2.99733Z" fill="#FF5900"/>
<path d="M18.9 18.1837C19.9991 18.1837 21.1979 18.1837 22.2971 18.1837C22.3969 18.1837 22.4968 18.1837 22.5968 18.1837C22.8965 18.1837 23.0963 18.4878 23.0963 18.7918C23.0963 19.0959 22.8965 19.2986 22.4968 19.3999C22.0972 19.3999 21.6975 19.3999 21.1979 19.3999C19.1998 19.3999 17.2016 19.3999 15.2033 19.3999C14.8037 19.3999 14.5039 19.1972 14.5039 18.7918C14.5039 18.3863 14.8037 18.1836 15.2033 18.1836C16.5022 18.1837 17.7011 18.1837 18.9 18.1837Z" fill="#2D017C"/>
<path d="M19.6938 6.79492C20.5931 6.79492 21.4922 6.79492 22.4913 6.79492C22.891 6.79492 23.1908 7.0161 23.1908 7.34781C23.1908 7.67956 22.891 8.01131 22.4913 8.01131C20.5931 8.01131 18.6948 8.01131 16.8964 8.01131C16.5966 8.01131 16.2969 7.79013 16.2969 7.45838C16.2969 7.12667 16.3969 6.90549 16.6966 6.79492C16.7964 6.79492 16.8964 6.79492 16.9963 6.79492C17.7956 6.79492 18.7947 6.79492 19.6938 6.79492Z" fill="#2D017C"/>
<path d="M20.5926 11.8044C19.9932 11.8044 19.2938 11.8044 18.5944 11.8044C18.1948 11.8044 17.895 11.399 18.0949 10.9935C18.1948 10.7908 18.3946 10.6895 18.6944 10.6895C19.4937 10.6895 20.1929 10.6895 20.9922 10.6895C21.4918 10.6895 21.8915 10.6895 22.3911 10.6895C22.7908 10.6895 23.0905 10.8922 23.0905 11.2976C23.0905 11.6017 22.7908 11.8044 22.3911 11.9058C21.7916 11.8044 21.1921 11.8044 20.5926 11.8044Z" fill="#2D017C"/>
<path d="M20.5915 14.3867C21.191 14.3867 21.7904 14.3867 22.3899 14.3867C22.7895 14.3867 23.0892 14.6079 23.0892 14.9396C23.0892 15.2714 22.7895 15.6031 22.4898 15.6031C21.2908 15.6031 19.992 15.6031 18.7931 15.6031C18.6931 15.6031 18.4934 15.6031 18.3934 15.4925C18.1936 15.3819 18.0938 15.0502 18.0938 14.829C18.1936 14.4973 18.3934 14.3867 18.5933 14.3867C19.0928 14.3867 19.5924 14.3867 20.092 14.3867C20.2918 14.3867 20.4916 14.3867 20.5915 14.3867Z" fill="#2D017C"/>
<path d="M5.02344 11.3936H11.6023" stroke="#2D017C" stroke-width="2" stroke-linecap="square"/>
<path d="M5.02344 12.707H11.6023" stroke="#2D017C" stroke-width="2" stroke-linecap="square"/>
<path d="M10.2814 14.682H9.62353L6.99197 9.41895H6.29297V14.682" stroke="#2D017C" stroke-width="2" stroke-linecap="square"/>
<path d="M10.3242 14.682V9.41895" stroke="#2D017C" stroke-width="2" stroke-linecap="square"/>
</svg>
