<svg width="30" height="28" viewBox="0 0 30 28" fill="none" xmlns="http://www.w3.org/2000/svg">
<mask id="mask0_3183_26642" style="mask-type:luminance" maskUnits="userSpaceOnUse" x="0" y="0" width="30" height="29">
<path d="M0 0.000976562H29.8709V28.001H0V0.000976562Z" fill="white"/>
</mask>
<g mask="url(#mask0_3183_26642)">
<path d="M12.3352 25.9648H11.0625" stroke="#FF5900" stroke-width="2" stroke-linecap="round" stroke-linejoin="round"/>
<path d="M9.91392 25.9648H3.35938" stroke="#FF5900" stroke-width="2" stroke-linecap="round" stroke-linejoin="round" stroke-dasharray="1.87 1.87"/>
<path d="M2.78871 25.9635H2.15234V25.3271" stroke="#FF5900" stroke-width="2" stroke-linecap="round" stroke-linejoin="round"/>
<path d="M2.15234 23.9916V14.1279" stroke="#FF5900" stroke-width="2" stroke-linecap="round" stroke-linejoin="round" stroke-dasharray="2.07 2.07"/>
<path d="M2.15234 14.1282V12.8555" stroke="#FF5900" stroke-width="2" stroke-linecap="round" stroke-linejoin="round"/>
<path d="M11.9531 3.24636V1.97363" stroke="#FF5900" stroke-width="2" stroke-linecap="round" stroke-linejoin="round"/>
<path d="M11.9531 0.954724V0.318359H12.5894" stroke="#FF5900" stroke-width="2" stroke-linecap="round" stroke-linejoin="round"/>
<path d="M13.7305 0.318359H24.8032" stroke="#FF5900" stroke-width="2" stroke-linecap="round" stroke-linejoin="round" stroke-dasharray="1.83 1.83"/>
<path d="M25.3789 0.318359H26.0153V0.954724" stroke="#FF5900" stroke-width="2" stroke-linecap="round" stroke-linejoin="round"/>
<path d="M26.0117 2.22656V4.19928" stroke="#FF5900" stroke-width="2" stroke-linecap="round" stroke-linejoin="round" stroke-dasharray="2.05 2.05"/>
<path d="M26.0117 4.83691V6.10964" stroke="#FF5900" stroke-width="2" stroke-linecap="round" stroke-linejoin="round"/>
<path d="M11.8242 26.472V25.1992" stroke="#FF5900" stroke-width="2" stroke-linecap="round" stroke-linejoin="round"/>
<path d="M11.8242 24.1169V20.3623" stroke="#FF5900" stroke-width="2" stroke-linecap="round" stroke-linejoin="round" stroke-dasharray="1.69 1.69"/>
<path d="M11.8242 20.4924V19.2197" stroke="#FF5900" stroke-width="2" stroke-linecap="round" stroke-linejoin="round"/>
<path fill-rule="evenodd" clip-rule="evenodd" d="M0.304688 10.8188C0.304688 9.86984 1.07394 9.10059 2.02287 9.10059C2.97179 9.10059 3.74105 9.86984 3.74105 10.8188C3.74105 11.7677 2.97179 12.537 2.02287 12.537C1.07394 12.537 0.304688 11.7677 0.304688 10.8188Z" stroke="#FF5900" stroke-width="2" stroke-linecap="round" stroke-linejoin="round"/>
<path fill-rule="evenodd" clip-rule="evenodd" d="M15.5703 25.9633C15.5703 25.0144 16.3395 24.2451 17.2885 24.2451C18.2374 24.2451 19.0067 25.0144 19.0067 25.9633C19.0067 26.9122 18.2374 27.6815 17.2885 27.6815C16.3395 27.6815 15.5703 26.9122 15.5703 25.9633Z" stroke="#FF5900" stroke-width="2" stroke-linecap="round" stroke-linejoin="round"/>
<path d="M19.2695 25.7725H20.5423" stroke="#FF5900" stroke-width="2" stroke-linecap="round" stroke-linejoin="round"/>
<path d="M20.9883 25.7725H24.8701" stroke="#FF5900" stroke-width="2" stroke-linecap="round" stroke-linejoin="round" stroke-dasharray="1.73 1.73"/>
<path d="M25.3789 25.7731H26.0153V25.1367" stroke="#FF5900" stroke-width="2" stroke-linecap="round" stroke-linejoin="round"/>
<path d="M26.0117 23.7363V15.9727" stroke="#FF5900" stroke-width="2" stroke-linecap="round" stroke-linejoin="round" stroke-dasharray="2.21 2.21"/>
<path d="M26.0117 15.9095V14.6367" stroke="#FF5900" stroke-width="2" stroke-linecap="round" stroke-linejoin="round"/>
<path fill-rule="evenodd" clip-rule="evenodd" d="M23.8517 13.9498C23.8392 13.9738 23.8392 14.0023 23.8517 14.0262C23.867 14.048 23.8895 14.0637 23.9152 14.0707L24.978 14.3571C25.0003 14.3666 25.0257 14.3666 25.048 14.3571C25.0695 14.3453 25.0872 14.3277 25.0989 14.3062L25.2707 13.6698C25.2778 13.6373 25.2987 13.6094 25.328 13.5934C25.357 13.571 25.3931 13.5597 25.4298 13.5616C25.595 13.5743 25.7609 13.5743 25.9262 13.5616C26.104 13.5405 26.2789 13.5 26.448 13.4408C26.5164 13.4217 26.589 13.4503 26.6262 13.5107L26.9444 14.0643C26.9562 14.0875 26.9737 14.1072 26.9952 14.1217C26.9952 14.1217 27.8798 13.6189 27.9689 13.568C27.9973 13.5541 28.0183 13.5286 28.0262 13.498C28.0325 13.4772 28.0325 13.4552 28.0262 13.4344L27.708 12.8871C27.6909 12.8279 27.7081 12.7642 27.7526 12.7217C27.884 12.6111 28.0015 12.4851 28.1026 12.3462C28.1997 12.215 28.2869 12.0767 28.3634 11.9325C28.3996 11.8672 28.4776 11.8376 28.548 11.8625L29.1399 12.028C29.1645 12.0373 29.1915 12.0373 29.2161 12.028C29.2394 12.014 29.2556 11.9909 29.2607 11.9643C29.3562 11.6143 29.458 11.258 29.5471 10.9081C29.5564 10.8834 29.5564 10.8563 29.5471 10.8317C29.5349 10.812 29.5172 10.7965 29.4962 10.7871L28.8598 10.6153C28.8289 10.6084 28.8017 10.5903 28.7834 10.5643C28.7581 10.5366 28.7445 10.5002 28.7453 10.4625C28.7578 10.2952 28.7578 10.1272 28.7453 9.95982C28.724 9.78467 28.6857 9.61203 28.6307 9.44437C28.6093 9.37591 28.6384 9.30178 28.7007 9.26618L29.248 8.95437C29.2835 8.93319 29.3122 8.90227 29.3307 8.86528L28.7898 7.9171C28.7759 7.89906 28.7552 7.88755 28.7326 7.88528C28.6976 7.87264 28.6593 7.87264 28.6243 7.88528L28.0771 8.19709C28.0222 8.24431 27.9411 8.24431 27.8862 8.19709C27.7717 8.08255 27.638 7.96164 27.498 7.84709C27.3688 7.74647 27.2327 7.65503 27.0907 7.57346C27.0289 7.54051 26.9973 7.46965 27.0143 7.40164L27.1798 6.76528C27.1891 6.74067 27.1891 6.71352 27.1798 6.68892C27.1661 6.66952 27.1457 6.65589 27.1226 6.65073C26.7726 6.54891 26.4225 6.45982 26.0662 6.36437C26.0438 6.35482 26.0186 6.35482 25.9962 6.36437C25.967 6.34589 25.9298 6.34589 25.9007 6.36437C25.9007 6.47255 25.7734 6.84164 25.7416 7.00074C25.7233 7.0724 25.6563 7.12066 25.5825 7.11528C25.4215 7.10565 25.26 7.10565 25.0989 7.11528C24.9263 7.13557 24.7558 7.17178 24.5898 7.22346C24.5213 7.24759 24.4454 7.21779 24.4117 7.15346L24.0998 6.60618C24.0818 6.58428 24.0573 6.56869 24.0298 6.56164C24.003 6.55243 23.9739 6.55243 23.9471 6.56164C23.648 6.72073 23.3107 6.93073 22.9925 7.10892C22.9952 7.14284 23.0062 7.1756 23.0244 7.20437L23.3361 7.75801C23.377 7.82153 23.3601 7.90599 23.298 7.94892C23.1692 8.06645 23.05 8.19414 22.9417 8.33074C22.8396 8.46692 22.746 8.60932 22.6616 8.7571C22.629 8.81552 22.5609 8.84434 22.4962 8.8271L21.8598 8.67437C21.8348 8.66761 21.8084 8.66761 21.7834 8.67437C21.7603 8.68831 21.744 8.71144 21.7389 8.73801L21.4461 9.78165C21.44 9.80672 21.44 9.83293 21.4461 9.85801C21.4616 9.87982 21.4841 9.89557 21.5098 9.90255L22.1462 10.068C22.1706 10.0745 22.1927 10.0877 22.2099 10.1062C22.2441 10.1368 22.2628 10.1812 22.2607 10.2271C22.251 10.3903 22.251 10.5539 22.2607 10.7171C22.2826 10.8921 22.321 11.0648 22.3753 11.2326C22.3943 11.3009 22.3657 11.3736 22.3053 11.4108L21.7643 11.7226C21.7486 11.7319 21.7355 11.745 21.7262 11.7607C21.722 11.7818 21.722 11.8033 21.7262 11.8244L22.2798 12.7853H22.3307C22.5152 12.6898 22.6999 12.5626 22.8907 12.4671C22.9548 12.4346 23.033 12.4535 23.0752 12.5116C23.1907 12.6403 23.3162 12.7595 23.4507 12.8681C23.5859 12.9644 23.7261 13.0537 23.8707 13.1353C23.9326 13.1682 23.9641 13.2391 23.9471 13.3071L23.7944 13.9435L23.8517 13.9498ZM23.597 14.179C23.5441 14.084 23.5283 13.973 23.5525 13.8671L23.6797 13.3644C23.5589 13.288 23.4379 13.2117 23.3234 13.1226C23.2034 13.0294 23.0906 12.9273 22.9862 12.8171L22.5407 13.0716C22.4545 13.1229 22.352 13.1388 22.2543 13.1162C22.1651 13.0877 22.0899 13.0262 22.0443 12.9443L21.4906 11.9835C21.4457 11.8997 21.4301 11.8035 21.4461 11.7098C21.4671 11.6085 21.5325 11.522 21.6243 11.4743L22.0634 11.2198C22.0227 11.0716 21.9929 10.9206 21.9743 10.768C21.9743 10.628 21.9743 10.488 21.9743 10.348L21.4461 10.1825C21.3414 10.1581 21.2515 10.0912 21.198 9.998C21.144 9.90335 21.1302 9.79105 21.1597 9.68618L21.4461 8.64254C21.4728 8.54051 21.5393 8.45342 21.6307 8.40072C21.721 8.34804 21.828 8.33209 21.9298 8.35618L22.4579 8.48346C22.5289 8.35638 22.6097 8.23509 22.6997 8.12072C22.7967 8.00009 22.9009 7.88535 23.0116 7.77709L22.7634 7.33164C22.7224 7.24896 22.7068 7.1559 22.7188 7.06436C22.7224 6.95882 22.7801 6.86256 22.8716 6.80982C23.1388 6.61891 23.5079 6.44072 23.8325 6.25618C23.9298 6.2032 24.0437 6.18953 24.1507 6.218C24.2538 6.24571 24.3426 6.3117 24.3989 6.40255L24.6534 6.848C24.8018 6.80926 24.9527 6.78161 25.1053 6.76527C25.2388 6.76527 25.3789 6.76527 25.5189 6.76527L25.6461 6.2689C25.6774 6.16732 25.7455 6.08108 25.8371 6.02709C25.927 5.97313 26.0355 5.95929 26.1361 5.98891L27.1988 6.27527C27.2967 6.29979 27.3812 6.3614 27.4343 6.44709C27.4874 6.53957 27.5033 6.64877 27.4789 6.75254L27.3452 7.2489C27.4651 7.32153 27.5799 7.40233 27.6888 7.49073C27.8098 7.58618 27.9243 7.688 28.0324 7.78981L28.478 7.52891C28.5756 7.47748 28.6874 7.45959 28.7961 7.47799C28.9058 7.4944 29.0018 7.56004 29.057 7.65618L29.598 8.60436C29.6415 8.69705 29.6415 8.80439 29.598 8.89709C29.5522 8.99467 29.4764 9.07498 29.3816 9.12618L28.9425 9.38072C28.9862 9.5304 29.016 9.68377 29.0316 9.83891C29.0411 9.98299 29.0411 10.1276 29.0316 10.2716L29.5343 10.4116C29.639 10.4361 29.7288 10.503 29.7825 10.5962C29.8334 10.6895 29.8471 10.7987 29.8206 10.9016L29.5343 11.9643C29.5096 12.0674 29.4426 12.1552 29.3498 12.2061C29.2549 12.2591 29.1438 12.2749 29.038 12.2507L28.5543 12.1107C28.4839 12.2311 28.4074 12.348 28.3252 12.4607C28.2346 12.5809 28.1345 12.6936 28.0261 12.798L28.2806 13.2371C28.3278 13.3379 28.3278 13.4544 28.2806 13.5553C28.2449 13.6547 28.175 13.7381 28.0834 13.7907C27.7716 13.9689 27.447 14.1471 27.1352 14.3316C27.0519 14.3852 26.9485 14.397 26.8552 14.3635C26.7738 14.3204 26.7074 14.2539 26.6643 14.1725L26.4098 13.7271C26.2595 13.7698 26.1064 13.8017 25.9516 13.8225C25.8032 13.8319 25.6544 13.8319 25.5061 13.8225L25.3661 14.3316C25.3369 14.4359 25.2684 14.5248 25.1752 14.5798C25.083 14.6341 24.9725 14.6479 24.8698 14.618L23.8134 14.3316C23.708 14.3087 23.6175 14.2414 23.5652 14.1471L23.597 14.179Z" fill="#2D017C"/>
<path fill-rule="evenodd" clip-rule="evenodd" d="M25.9556 11.651C25.8669 11.6819 25.7752 11.7032 25.682 11.7147H25.5102C25.4074 11.717 25.3047 11.7064 25.2047 11.6828C25.0108 11.6368 24.8273 11.5548 24.6637 11.441C24.5056 11.3229 24.3735 11.1734 24.2756 11.0019C24.2257 10.9206 24.1872 10.8327 24.161 10.7411C24.1301 10.6502 24.1088 10.5563 24.0974 10.461C24.0942 10.4229 24.0942 10.3846 24.0974 10.3465C24.0942 10.3084 24.0942 10.2701 24.0974 10.2319C24.0911 10.1727 24.0911 10.113 24.0974 10.0537C24.1085 9.98931 24.1234 9.92556 24.1419 9.86284C24.1955 9.70121 24.2774 9.55039 24.3838 9.41738C24.4369 9.34615 24.4989 9.282 24.5683 9.22648C24.635 9.16641 24.7075 9.11312 24.7847 9.06739C24.8838 9.01219 24.9883 8.96741 25.0965 8.93375C25.306 8.88749 25.5233 8.88749 25.7329 8.93375C26.0216 8.98713 26.2865 9.12954 26.4902 9.34102C26.5295 9.38047 26.5657 9.42303 26.5983 9.4683C26.6352 9.51585 26.6672 9.56702 26.6937 9.62102C26.7474 9.71028 26.7881 9.80669 26.8147 9.90739C26.8456 10.0091 26.8669 10.1135 26.8784 10.2192C26.891 10.327 26.891 10.4359 26.8784 10.5437V10.6201C26.8206 10.9014 26.6759 11.1574 26.4646 11.3519C26.3852 11.4317 26.2953 11.5002 26.1974 11.5556C26.1194 11.6019 26.0361 11.6381 25.9492 11.6638L25.9556 11.651ZM27.0055 9.44284C26.9689 9.37897 26.9286 9.31734 26.8846 9.25829C26.84 9.20738 26.7955 9.15011 26.7509 9.10556C26.506 8.85037 26.1882 8.67703 25.841 8.60919C25.7048 8.58302 25.566 8.57235 25.4273 8.57738C25.2914 8.58462 25.1567 8.60813 25.0264 8.64738C24.8951 8.68442 24.769 8.73786 24.651 8.80647C24.5539 8.86121 24.4622 8.92514 24.3773 8.99738C24.2989 9.06743 24.2264 9.14408 24.161 9.22647C24.0579 9.3569 23.9723 9.50023 23.9064 9.65283L23.8682 9.76739C23.8682 9.85011 23.8301 9.91375 23.8109 9.99648V10.1174V10.2128C23.8078 10.2616 23.8078 10.3105 23.8109 10.3592C23.8078 10.4058 23.8078 10.4526 23.8109 10.4992C23.8235 10.6142 23.8492 10.7273 23.8873 10.8365C23.9243 10.9476 23.9734 11.0544 24.0337 11.1547C24.1506 11.3628 24.3113 11.5429 24.5046 11.6828C24.6936 11.8257 24.9103 11.9276 25.141 11.9819C25.2627 12.0048 25.3862 12.0175 25.51 12.0201H25.7201C25.8328 12.0068 25.9438 11.9812 26.051 11.9437C26.1572 11.9101 26.2596 11.8653 26.3564 11.8101C26.4734 11.742 26.5823 11.6608 26.6809 11.5683C26.7798 11.475 26.8674 11.3703 26.9419 11.2565C27.0731 11.0513 27.1619 10.822 27.2028 10.582C27.2123 10.4506 27.2123 10.3187 27.2028 10.1874C27.2111 10.0574 27.2026 9.92694 27.1774 9.79919C27.1417 9.67946 27.0927 9.56417 27.031 9.45556L27.0055 9.44284Z" fill="#2D017C"/>
<path fill-rule="evenodd" clip-rule="evenodd" d="M9.6934 17.2196C9.6773 17.2626 9.6773 17.3101 9.6934 17.3531C9.71634 17.396 9.75521 17.4279 9.80158 17.4423L11.7107 17.945C11.7538 17.9606 11.8011 17.9606 11.8443 17.945C11.882 17.9137 11.9031 17.8667 11.9016 17.8177L12.2071 16.7169C12.2235 16.6597 12.2596 16.6102 12.3089 16.5768C12.3757 16.5301 12.4609 16.5183 12.538 16.545C12.8313 16.5544 13.1248 16.5416 13.4162 16.5068C13.7312 16.4632 14.042 16.3929 14.3452 16.2969C14.4646 16.2591 14.5942 16.3094 14.6571 16.4177L15.2171 17.3914C15.2369 17.4345 15.2675 17.4718 15.3062 17.4995C15.3062 17.4995 16.8716 16.6086 17.0243 16.5195C17.0748 16.4918 17.1132 16.4465 17.1325 16.3923C17.1485 16.358 17.1485 16.3183 17.1325 16.2841L16.5534 15.2723V15.2213C16.5221 15.1191 16.5517 15.0081 16.6298 14.935C16.8622 14.7442 17.0754 14.5311 17.2662 14.2986C17.4341 14.0624 17.5872 13.8158 17.7243 13.5605C17.7874 13.4487 17.9197 13.3957 18.0425 13.4331L19.0925 13.7259C19.1349 13.7455 19.1838 13.7455 19.2262 13.7259C19.2669 13.7023 19.2967 13.6633 19.3089 13.6178C19.4807 12.9814 19.6525 12.345 19.818 11.7468C19.8312 11.7033 19.8312 11.6567 19.818 11.6132C19.7961 11.5759 19.7625 11.5468 19.7225 11.5304L18.6279 11.2313C18.5767 11.2131 18.5309 11.1825 18.4943 11.1422C18.4521 11.0901 18.4296 11.0248 18.4307 10.9577C18.4528 10.6633 18.4528 10.3676 18.4307 10.0732C18.3906 9.76219 18.3224 9.45549 18.227 9.15681C18.1867 9.03731 18.2376 8.90604 18.348 8.845L19.2134 8.27227C19.2759 8.23644 19.3266 8.18343 19.3597 8.11954C19.3662 8.10318 19.3662 8.085 19.3597 8.06864L18.3989 6.36318C18.3791 6.32887 18.343 6.30722 18.3034 6.30591C18.238 6.29404 18.1705 6.30528 18.1125 6.33773L17.1516 6.89137C17.0415 6.95766 16.8999 6.93628 16.8143 6.84046C16.5984 6.61227 16.3666 6.39961 16.1207 6.20409C15.8917 6.02623 15.6491 5.86665 15.3952 5.72682C15.2873 5.66667 15.2347 5.54036 15.2679 5.42137L15.5543 4.34591C15.5704 4.30282 15.5704 4.25536 15.5543 4.21228C15.5287 4.17864 15.4931 4.1541 15.4524 4.14227C14.8162 3.96409 14.1798 3.79864 13.5816 3.63319C13.5406 3.61752 13.4953 3.61752 13.4543 3.63319C13.4135 3.65687 13.3838 3.69577 13.3716 3.74137C13.3716 3.93227 13.1425 4.58137 13.0852 4.81046C13.0495 4.93723 12.9303 5.02201 12.7989 5.01409C12.515 4.99176 12.2299 4.99176 11.9462 5.01409C11.6411 5.04546 11.3402 5.10947 11.0489 5.205C10.9294 5.24274 10.7998 5.19248 10.7371 5.0841L10.177 4.11045C10.1492 4.07084 10.1088 4.04171 10.0625 4.02773C10.0151 4.01123 9.96352 4.01123 9.91612 4.02773C9.38158 4.30772 8.73885 4.66409 8.22976 5.00136C8.22407 5.01121 8.22407 5.02333 8.22976 5.03318C8.23401 5.09438 8.25372 5.15349 8.28704 5.205L8.84067 6.17228C8.90766 6.28675 8.88057 6.43302 8.77704 6.51591C8.5436 6.71966 8.33048 6.94557 8.14067 7.19046C7.95696 7.42686 7.79307 7.67801 7.65067 7.94137C7.59281 8.0483 7.46875 8.10108 7.35158 8.06864L6.17431 7.85228C6.1329 7.83911 6.08843 7.83911 6.04703 7.85228C6.00582 7.87706 5.97438 7.91526 5.95794 7.96046L5.45522 9.83136C5.43911 9.87446 5.43911 9.92191 5.45522 9.965C5.4789 10.0058 5.5178 10.0356 5.5634 10.0477L6.63885 10.3405C6.68236 10.3537 6.72179 10.3778 6.7534 10.4105C6.81644 10.4639 6.84966 10.5445 6.84249 10.6268C6.83402 10.9157 6.84465 11.2049 6.87431 11.4923C6.90975 11.7994 6.97584 12.102 7.07158 12.3959C7.11065 12.5203 7.05417 12.6548 6.93794 12.7141L5.98339 13.2677C5.95829 13.2797 5.93806 13.2999 5.92612 13.325C5.92229 13.3687 5.93603 13.4123 5.9643 13.446L6.93158 15.1386C6.94554 15.1645 6.96803 15.1848 6.99521 15.1959C6.99521 15.1959 7.03976 15.1959 7.0843 15.1959C7.41522 15.0177 7.72067 14.8013 8.07067 14.6295C8.18505 14.5726 8.3237 14.6046 8.40158 14.7059C8.59083 14.9397 8.80413 15.153 9.03795 15.3423C9.2728 15.5232 9.52178 15.6849 9.78249 15.8259C9.89379 15.8799 9.95017 16.0061 9.91612 16.125L9.64249 17.2259L9.6934 17.2196ZM9.24156 17.6268C9.14836 17.4603 9.12328 17.2642 9.17156 17.0795L9.39428 16.1886C9.17436 16.0585 8.96191 15.9162 8.75792 15.7623C8.54124 15.5973 8.33899 15.4143 8.15337 15.215L7.37064 15.6668C7.22362 15.7564 7.04656 15.7827 6.87988 15.7395C6.71321 15.6963 6.57114 15.5874 6.4861 15.4377L5.53792 13.745C5.45258 13.5991 5.41895 13.4288 5.44246 13.2613C5.48305 13.0855 5.59639 12.9351 5.75428 12.8477L6.53701 12.3959C6.45835 12.1343 6.40506 11.8658 6.37791 11.5941C6.34336 11.3368 6.32636 11.0773 6.32701 10.8177L5.44883 10.5759C5.26503 10.5264 5.10901 10.4048 5.0161 10.2386C4.92263 10.0745 4.89749 9.88023 4.9461 9.69773L5.44883 7.83318C5.49814 7.64767 5.61957 7.48958 5.7861 7.39409C5.94558 7.30068 6.13596 7.27546 6.31428 7.32409L7.23701 7.54045C7.36963 7.32066 7.51409 7.10822 7.66974 6.90409C7.84037 6.69025 8.02533 6.48827 8.22338 6.29954L7.77792 5.51681C7.69188 5.37501 7.64774 5.21175 7.65064 5.0459C7.65716 4.858 7.75756 4.6859 7.91792 4.58772C8.39519 4.25045 9.10155 3.95136 9.62337 3.60772C9.7923 3.51433 9.99129 3.49146 10.177 3.54408C10.3589 3.59333 10.5157 3.70918 10.6161 3.86863L11.068 4.66409C11.3283 4.59106 11.5944 4.53997 11.8633 4.51136C12.1071 4.49867 12.3515 4.49867 12.5952 4.51136L12.8243 3.63954C12.8726 3.44502 12.9993 3.27917 13.1742 3.18136C13.336 3.0876 13.5285 3.0624 13.7088 3.11137C14.3452 3.27682 14.9815 3.46136 15.5798 3.61409C15.7528 3.66381 15.902 3.77459 15.9997 3.9259C16.0932 4.09002 16.1183 4.28431 16.0698 4.46682L15.8343 5.345C16.0565 5.47136 16.2693 5.61387 16.4707 5.77136C16.6832 5.93439 16.8851 6.11082 17.0752 6.29954L17.8707 5.84773C18.0409 5.75284 18.2386 5.71915 18.4307 5.75227C18.6242 5.78217 18.7933 5.89954 18.8888 6.07045L19.8497 7.74409C19.9437 7.90007 19.9579 8.09142 19.888 8.25954C19.8065 8.43195 19.6729 8.57442 19.5061 8.66682L18.7297 9.11227C18.8068 9.37888 18.8621 9.65128 18.8952 9.92682C18.9208 10.1806 18.9335 10.4354 18.9334 10.6905L19.8243 10.9323C20.2012 11.0376 20.4246 11.4251 20.327 11.804L19.8243 13.6814C19.775 13.8634 19.6561 14.0188 19.4934 14.1141C19.3269 14.2073 19.1307 14.2324 18.9461 14.1841L18.0552 13.9995C17.928 14.2096 17.8006 14.4131 17.6543 14.6359C17.4939 14.8505 17.3151 15.0508 17.1198 15.234L17.5715 16.0168C17.6628 16.1774 17.6835 16.3686 17.6288 16.545C17.567 16.7176 17.4449 16.8622 17.2852 16.9523C16.7316 17.2704 16.1525 17.5886 15.6052 17.9195C15.4568 18.0143 15.2717 18.0309 15.1088 17.9641H15.0834C14.9416 17.8884 14.8246 17.7735 14.7461 17.6332L14.2943 16.8441C14.0272 16.9193 13.755 16.9746 13.4797 17.0095C13.2204 17.0455 12.9588 17.0626 12.697 17.0605L12.4488 17.9577C12.3434 18.3377 11.9517 18.562 11.5707 18.4605L9.69974 17.9577C9.5168 17.9069 9.35991 17.7886 9.26065 17.6268H9.24156Z" fill="#FF5900"/>
<path fill-rule="evenodd" clip-rule="evenodd" d="M14.7939 9.54572C14.8803 9.70677 14.9527 9.87498 15.0102 10.0484C15.0631 10.2268 15.0972 10.4103 15.1121 10.5957C15.1311 10.7883 15.1311 10.9823 15.1121 11.1748V11.3148C15.0467 11.6146 14.9258 11.8994 14.7557 12.1548C14.6521 12.3221 14.5257 12.4742 14.3803 12.6067C14.2362 12.7443 14.0759 12.864 13.903 12.963C13.764 13.0442 13.6169 13.1103 13.4638 13.1602C13.3068 13.2127 13.1447 13.249 12.9802 13.2685C12.8786 13.278 12.7764 13.278 12.6748 13.2685C12.4929 13.2687 12.3116 13.2495 12.1339 13.2112C11.4254 13.0752 10.8078 12.645 10.4347 12.0275C10.3514 11.88 10.2831 11.7243 10.2311 11.563C10.1749 11.4023 10.1365 11.2358 10.1166 11.0667C10.1166 10.9967 10.1166 10.9266 10.1166 10.863C10.1102 10.7953 10.1102 10.7271 10.1166 10.6594C10.1226 10.5526 10.1354 10.4463 10.1548 10.3412C10.1756 10.2272 10.2032 10.1146 10.2375 10.0039C10.3186 9.71779 10.4501 9.44842 10.6257 9.20845C10.7182 9.08398 10.825 8.97078 10.9439 8.87117C11.2205 8.64013 11.5408 8.46701 11.8857 8.36208C12.0743 8.30664 12.2686 8.27249 12.4648 8.26027C12.6673 8.25267 12.8701 8.26762 13.0694 8.30481C13.5933 8.39322 14.0752 8.64752 14.4438 9.03027M15.2775 9.25299C15.1526 9.03704 15.0031 8.83631 14.832 8.6548C14.3818 8.19828 13.8019 7.89163 13.1712 7.77662C12.9296 7.73439 12.6844 7.71732 12.4393 7.72571C12.1999 7.73804 11.9628 7.77862 11.7329 7.84662C11.5103 7.91382 11.2966 8.00784 11.0965 8.12662C10.929 8.22651 10.7694 8.33927 10.6193 8.4639C10.4766 8.59064 10.3446 8.72899 10.2248 8.87753C10.0447 9.10655 9.89696 9.35922 9.78567 9.62844C9.78567 9.69844 9.73476 9.76844 9.71567 9.83207C9.69658 9.89571 9.64567 10.093 9.61385 10.2393C9.59919 10.3087 9.58857 10.3788 9.58203 10.4493V10.6212C9.58203 10.6975 9.58203 10.7866 9.58203 10.8693V11.1239C9.60562 11.3398 9.65038 11.553 9.71567 11.7603C9.78185 11.9549 9.86711 12.1424 9.97022 12.3203C10.1821 12.6889 10.4681 13.0096 10.8102 13.262C11.1531 13.5139 11.5458 13.6896 11.962 13.7776C12.1716 13.8214 12.3844 13.8469 12.5984 13.8539H12.9675C13.1684 13.8276 13.3665 13.7829 13.5593 13.7202C13.7462 13.6605 13.9256 13.5794 14.0939 13.4784C14.3047 13.3598 14.4994 13.2143 14.6729 13.0457C14.8492 12.8867 15.0033 12.7048 15.1312 12.5048C15.3688 12.1416 15.5251 11.7313 15.5893 11.302C15.6191 11.0722 15.6297 10.8402 15.6212 10.6084C15.6012 10.3924 15.5584 10.1791 15.4938 9.97208C15.4302 9.75115 15.3427 9.53778 15.2329 9.3357L15.2775 9.25299Z" fill="#FF5900"/>
</g>
</svg>
