<svg width="27" height="29" viewBox="0 0 27 29" fill="none" xmlns="http://www.w3.org/2000/svg">
<path d="M1 13.3847C1 12.8462 1 12.4154 2.07697 11.877" stroke="#FF5900" stroke-width="2"/>
<path d="M1.75781 9.07626C3.48095 4.33761 8.00421 0.999023 13.389 0.999023C20.2816 0.999023 25.7741 6.59924 25.7741 13.3841C25.7741 19.1998 21.6817 24.1538 16.2968 25.4461" stroke="#FF5900" stroke-width="2" stroke-dasharray="2.72 2.72"/>
<path d="M14.8944 25.7705C14.4637 26.8475 13.9252 26.8475 13.3867 26.8475" stroke="#FF5900" stroke-width="2"/>
<path d="M1 13.3847C1 12.8462 1 12.4154 2.07697 11.877" stroke="#FF5900" stroke-width="2"/>
<path d="M1.75781 9.07626C3.48095 4.33761 8.00421 0.999023 13.389 0.999023C20.2816 0.999023 25.7741 6.59924 25.7741 13.3841C25.7741 19.1998 21.6817 24.1538 16.2968 25.4461" stroke="#FF5900" stroke-width="2" stroke-dasharray="2.72 2.72"/>
<path d="M14.8944 25.7705C14.4637 26.8475 13.9252 26.8475 13.3867 26.8475" stroke="#FF5900" stroke-width="2"/>
<path d="M25.7601 13.3857C25.7601 20.2783 20.1599 25.7708 13.375 25.7708" stroke="#FF5900" stroke-width="2"/>
<path fill-rule="evenodd" clip-rule="evenodd" d="M14.4557 29.0016L8.10156 25.8783L14.4557 22.6475V29.0016Z" fill="#FF5900"/>
<path d="M7.41406 11.4023H19.1628" stroke="#2D017C" stroke-width="2" stroke-linecap="square"/>
<path d="M7.41406 13.7529H19.1628" stroke="#2D017C" stroke-width="2" stroke-linecap="square"/>
<path d="M16.8141 17.2769H15.6392L10.9397 7.87793H9.69141V17.2769" stroke="#2D017C" stroke-width="2" stroke-linecap="square"/>
<path d="M16.8906 17.2781L16.985 8.21484" stroke="#2D017C" stroke-width="2" stroke-linecap="square"/>
</svg>
