<svg width="25" height="28" viewBox="0 0 25 28" fill="none" xmlns="http://www.w3.org/2000/svg">
<path fill-rule="evenodd" clip-rule="evenodd" d="M18.6201 4.97678H17.0378C16.9112 4.97678 16.8479 5.04008 16.8479 5.16666L16.4681 6.49582C16.1517 6.55911 15.8985 6.6857 15.6453 6.81229L14.4427 6.17935C14.3794 6.11606 14.2529 6.17935 14.1896 6.24265L13.0503 7.38192C12.987 7.44522 12.987 7.5718 12.987 7.6351L13.6199 8.83767C13.4933 9.09084 13.3668 9.40731 13.3035 9.66048L11.9743 10.0402C11.911 10.0402 11.7844 10.1668 11.7844 10.2301V11.7492C11.7844 11.8757 11.8477 11.939 11.9743 11.939L13.3035 12.3188C13.3668 12.6353 13.4933 12.8884 13.6832 13.1416L13.0503 14.3442C12.987 14.4075 12.987 14.5341 13.1136 14.5973L14.2529 15.7366C14.3162 15.7999 14.4427 15.7999 14.506 15.7999L15.7086 15.167C15.9618 15.2936 16.2782 15.4202 16.5314 15.4835L16.9112 16.8126C16.9112 16.8759 17.0378 17.0025 17.1011 17.0025H18.6834C18.81 17.0025 18.8733 16.9392 18.8733 16.8126L19.253 15.4835C19.5695 15.4202 19.8227 15.2936 20.0758 15.167L21.2784 15.7999C21.3417 15.8632 21.4683 15.8632 21.5316 15.7366L22.6709 14.5973C22.7341 14.5341 22.7341 14.4075 22.7341 14.3442L22.1012 13.1416C22.2278 12.8884 22.3544 12.572 22.481 12.3188L23.8101 11.939C23.8734 11.939 24 11.8124 24 11.7492V10.1035C24 9.97695 23.9367 9.91365 23.8101 9.91365L22.481 9.5339C22.4177 9.21743 22.2911 8.96426 22.1645 8.71108L22.7974 7.50851C22.8607 7.44522 22.8607 7.31863 22.7341 7.25534L21.5949 6.11606C21.405 6.05277 21.3417 6.05277 21.2151 6.11606L20.0125 6.74899C19.7594 6.62241 19.4429 6.49582 19.1897 6.43253L18.81 5.10337C18.81 5.04008 18.7467 4.91349 18.6201 4.97678ZM18.4302 5.41986L18.7467 6.68573C18.7467 6.74902 18.8099 6.81231 18.8732 6.81231C19.1897 6.9389 19.5695 7.06549 19.8859 7.19207C19.9492 7.25537 20.0125 7.25537 20.0758 7.19207L21.2151 6.55914L22.1012 7.44524L21.4683 8.58452C21.405 8.64782 21.405 8.71111 21.4683 8.7744C21.6581 9.09087 21.7847 9.40733 21.848 9.7238C21.848 9.78709 21.9113 9.85039 21.9746 9.85039L23.2405 10.2301V11.496L21.9746 11.8758C21.9113 11.8758 21.848 11.9391 21.848 12.0024C21.7214 12.3188 21.5948 12.6986 21.4683 12.9518C21.405 13.015 21.405 13.0783 21.4683 13.2049L22.1012 14.3442L21.2151 15.2303L20.0758 14.5974C20.0125 14.5341 19.9492 14.5341 19.8859 14.5974C19.5695 14.7873 19.253 14.9138 18.8732 14.9771C18.81 14.9771 18.7467 15.0404 18.7467 15.1037L18.3669 16.3696H17.101L16.7213 15.1037C16.7213 15.0404 16.658 14.9771 16.5947 14.9771C16.3415 15.0404 15.9618 14.9138 15.7086 14.724C15.6453 14.6607 15.582 14.6607 15.5187 14.724L14.3794 15.3569L13.4933 14.4708L14.1263 13.3315C14.1896 13.2682 14.1896 13.2049 14.1263 13.0783C13.9364 12.7619 13.8098 12.4454 13.7465 12.1289C13.7465 12.0656 13.6832 12.0024 13.6199 12.0024L12.354 11.6226V10.3567L13.6199 9.97697C13.6832 9.97697 13.7465 9.91368 13.7465 9.85039C13.8731 9.53392 13.9997 9.15416 14.1263 8.90099C14.1896 8.83769 14.1896 8.7744 14.1263 8.71111L13.4933 7.57183L14.3794 6.68573L15.5187 7.31866C15.582 7.38195 15.6453 7.38195 15.7086 7.31866C16.0251 7.12878 16.3415 7.00219 16.7213 6.9389C16.7846 6.9389 16.8479 6.87561 16.8479 6.81231L17.1643 5.54645L18.4302 5.41986ZM15.582 10.9263C15.582 12.1289 16.5947 13.1416 17.7973 13.1416C18.9998 13.1416 20.0125 12.1289 20.0125 10.9263C20.0125 9.72376 18.9998 8.71107 17.7973 8.71107C16.5947 8.71107 15.582 9.72376 15.582 10.9263ZM19.5695 10.9263C19.5695 11.939 18.7467 12.6986 17.7973 12.6986C16.7846 12.6986 16.0251 11.8757 16.0251 10.9263C16.0251 9.91365 16.8479 9.15413 17.7973 9.15413C18.81 9.15413 19.5695 9.97694 19.5695 10.9263Z" fill="#FF5900"/>
<path d="M16.8479 5.16666L17.3286 5.30402L17.3479 5.23669V5.16666H16.8479ZM16.4681 6.49582L16.5662 6.98611L16.8651 6.92632L16.9489 6.63318L16.4681 6.49582ZM15.6453 6.81229L15.4124 7.25475L15.6395 7.37423L15.8689 7.2595L15.6453 6.81229ZM14.4427 6.17935L14.0892 6.53291L14.1428 6.58651L14.2099 6.62181L14.4427 6.17935ZM14.1896 6.24265L13.836 5.88909L13.836 5.88909L14.1896 6.24265ZM13.0503 7.38192L13.4038 7.73548H13.4038L13.0503 7.38192ZM12.987 7.6351H12.487V7.75864L12.5445 7.86797L12.987 7.6351ZM13.6199 8.83767L14.0671 9.06128L14.1819 8.83181L14.0624 8.60479L13.6199 8.83767ZM13.3035 9.66048L13.4408 10.1412L13.7185 10.0619L13.7885 9.78175L13.3035 9.66048ZM11.9743 10.0402V10.5402H12.0443L12.1117 10.521L11.9743 10.0402ZM11.9743 11.939L12.1117 11.4583L12.0443 11.439H11.9743V11.939ZM13.3035 12.3188L13.7938 12.2207L13.734 11.9218L13.4408 11.838L13.3035 12.3188ZM13.6832 13.1416L14.1257 13.3745L14.273 13.0946L14.0832 12.8416L13.6832 13.1416ZM13.0503 14.3442L13.4038 14.6977L13.4574 14.6441L13.4927 14.577L13.0503 14.3442ZM13.1136 14.5973L13.4671 14.2438L13.4098 14.1864L13.3372 14.1501L13.1136 14.5973ZM14.2529 15.7366L13.8993 16.0902L13.8993 16.0902L14.2529 15.7366ZM14.506 15.7999V16.2999H14.6296L14.7389 16.2424L14.506 15.7999ZM15.7086 15.167L15.9322 14.7198L15.7027 14.605L15.4757 14.7245L15.7086 15.167ZM16.5314 15.4835L17.0122 15.3461L16.9328 15.0684L16.6527 14.9984L16.5314 15.4835ZM16.9112 16.8126H17.4112V16.7426L17.3919 16.6752L16.9112 16.8126ZM18.8733 16.8126L18.3925 16.6752L18.3733 16.7426V16.8126H18.8733ZM19.253 15.4835L19.155 14.9932L18.856 15.053L18.7723 15.3461L19.253 15.4835ZM20.0758 15.167L20.3087 14.7245L20.0817 14.605L19.8522 14.7198L20.0758 15.167ZM21.2784 15.7999L21.632 15.4464L21.5784 15.3928L21.5113 15.3575L21.2784 15.7999ZM21.5316 15.7366L21.178 15.3831L21.1207 15.4404L21.0844 15.513L21.5316 15.7366ZM22.6709 14.5973L23.0244 14.9509L23.0244 14.9509L22.6709 14.5973ZM22.7341 14.3442H23.2341V14.2206L23.1766 14.1113L22.7341 14.3442ZM22.1012 13.1416L21.654 12.918L21.5393 13.1475L21.6588 13.3745L22.1012 13.1416ZM22.481 12.3188L22.3436 11.838L22.1321 11.8985L22.0338 12.0952L22.481 12.3188ZM23.8101 11.939V11.439H23.7401L23.6728 11.4583L23.8101 11.939ZM23.8101 9.91365L23.6728 10.3944L23.7401 10.4137H23.8101V9.91365ZM22.481 9.5339L21.9907 9.63195L22.0505 9.9309L22.3436 10.0147L22.481 9.5339ZM22.1645 8.71108L21.722 8.47821L21.6026 8.70523L21.7173 8.93469L22.1645 8.71108ZM22.7974 7.50851L22.4439 7.15496L22.3903 7.20856L22.355 7.27564L22.7974 7.50851ZM22.7341 7.25534L22.3806 7.60889L22.438 7.66627L22.5105 7.70255L22.7341 7.25534ZM21.5949 6.11606L21.9484 5.76251L21.865 5.67905L21.753 5.64172L21.5949 6.11606ZM21.2151 6.11606L20.9915 5.66875L20.9822 5.6736L21.2151 6.11606ZM20.0125 6.74899L19.7889 7.19621L20.0184 7.31094L20.2454 7.19145L20.0125 6.74899ZM19.1897 6.43253L18.709 6.56989L18.7883 6.84756L19.0685 6.9176L19.1897 6.43253ZM18.81 5.10337H18.31V5.1734L18.3292 5.24073L18.81 5.10337ZM18.7467 6.68573H19.2467V6.62417L19.2317 6.56446L18.7467 6.68573ZM18.8732 6.81231L19.0589 6.34807L18.9695 6.31231H18.8732V6.81231ZM19.8859 7.19207L20.2395 6.83852L20.1669 6.76595L20.0716 6.72783L19.8859 7.19207ZM20.0758 7.19207L19.833 6.75499L19.7718 6.789L19.7223 6.83852L20.0758 7.19207ZM21.2151 6.55914L21.5686 6.20559L21.302 5.9389L20.9723 6.12206L21.2151 6.55914ZM22.1012 7.44524L22.5383 7.68807L22.7214 7.35838L22.4547 7.09169L22.1012 7.44524ZM21.4683 8.58452L21.8218 8.93807L21.8713 8.88856L21.9053 8.82734L21.4683 8.58452ZM21.4683 8.7744L21.897 8.51715L21.8653 8.46437L21.8218 8.42085L21.4683 8.7744ZM21.848 9.7238H22.348V9.67429L22.3383 9.62574L21.848 9.7238ZM21.9746 9.85039L22.1183 9.37147L22.048 9.35039H21.9746V9.85039ZM23.2405 10.2301H23.7405V9.85813L23.3841 9.75123L23.2405 10.2301ZM23.2405 11.496L23.3841 11.9749L23.7405 11.868V11.496H23.2405ZM21.9746 11.8758V12.3758H22.048L22.1183 12.3547L21.9746 11.8758ZM21.848 12.0024L22.3123 12.1881L22.348 12.0986V12.0024H21.848ZM21.4683 12.9518L21.8218 13.3053L21.8792 13.2479L21.9155 13.1754L21.4683 12.9518ZM21.4683 13.2049L21.021 13.4285L21.0259 13.4382L21.0312 13.4477L21.4683 13.2049ZM22.1012 14.3442L22.4547 14.6978L22.7214 14.4311L22.5383 14.1014L22.1012 14.3442ZM21.2151 15.2303L20.9723 15.6674L21.302 15.8505L21.5686 15.5839L21.2151 15.2303ZM20.0758 14.5974L19.7223 14.9509L19.7718 15.0004L19.833 15.0345L20.0758 14.5974ZM19.8859 14.5974L20.1432 15.0261L20.196 14.9945L20.2395 14.9509L19.8859 14.5974ZM18.8732 14.9771V15.4771H18.9146L18.9554 15.4703L18.8732 14.9771ZM18.7467 15.1037L19.2256 15.2474L19.2467 15.1771V15.1037H18.7467ZM18.3669 16.3696V16.8696H18.7389L18.8458 16.5133L18.3669 16.3696ZM17.101 16.3696L16.6221 16.5133L16.729 16.8696H17.101V16.3696ZM16.7213 15.1037H16.2213V15.1771L16.2424 15.2474L16.7213 15.1037ZM16.5947 14.9771V14.4771H16.5331L16.4734 14.4921L16.5947 14.9771ZM15.7086 14.724L15.355 15.0775L15.3802 15.1026L15.4086 15.124L15.7086 14.724ZM15.5187 14.724L15.7615 15.161L15.8227 15.127L15.8723 15.0775L15.5187 14.724ZM14.3794 15.3569L14.0259 15.7104L14.2926 15.9771L14.6223 15.794L14.3794 15.3569ZM13.4933 14.4708L13.0562 14.228L12.8731 14.5577L13.1398 14.8243L13.4933 14.4708ZM14.1263 13.3315L13.7727 12.978L13.7232 13.0275L13.6892 13.0887L14.1263 13.3315ZM14.1263 13.0783L14.5735 12.8547L14.5649 12.8376L14.555 12.8211L14.1263 13.0783ZM13.7465 12.1289H13.2465V12.1785L13.2562 12.227L13.7465 12.1289ZM13.6199 12.0024L13.4762 12.4813L13.5465 12.5024H13.6199V12.0024ZM12.354 11.6226H11.854V11.9946L12.2104 12.1015L12.354 11.6226ZM12.354 10.3567L12.2104 9.87782L11.854 9.98472V10.3567H12.354ZM13.6199 9.97697V9.47697H13.5465L13.4762 9.49806L13.6199 9.97697ZM13.7465 9.85039L13.2823 9.66469L13.2465 9.75409V9.85039H13.7465ZM14.1263 8.90099L13.7727 8.54743L13.7153 8.60481L13.679 8.67738L14.1263 8.90099ZM14.1263 8.71111L13.6892 8.95393L13.7232 9.01515L13.7727 9.06467L14.1263 8.71111ZM13.4933 7.57183L13.1398 7.21828L12.8731 7.48496L13.0562 7.81465L13.4933 7.57183ZM14.3794 6.68573L14.6223 6.24865L14.2926 6.06549L14.0259 6.33217L14.3794 6.68573ZM15.5187 7.31866L15.8723 6.96511L15.8227 6.91559L15.7615 6.88158L15.5187 7.31866ZM15.7086 7.31866L15.4513 6.88991L15.3986 6.92158L15.355 6.96511L15.7086 7.31866ZM16.7213 6.9389V6.4389H16.6799L16.6391 6.4457L16.7213 6.9389ZM16.8479 6.81231L16.3628 6.69104L16.3479 6.75076V6.81231H16.8479ZM17.1643 5.54645L17.1146 5.04893L16.7646 5.08393L16.6793 5.42518L17.1643 5.54645ZM17.7973 9.15413V9.65413H17.7973L17.7973 9.15413ZM18.6201 4.47678H17.0378V5.47678H18.6201V4.47678ZM17.0378 4.47678C16.8974 4.47678 16.7003 4.51221 16.5418 4.6707C16.3833 4.82919 16.3479 5.0263 16.3479 5.16666H17.3479C17.3479 5.18044 17.3441 5.28261 17.2489 5.37781C17.1537 5.473 17.0515 5.47678 17.0378 5.47678V4.47678ZM16.3671 5.0293L15.9874 6.35846L16.9489 6.63318L17.3286 5.30402L16.3671 5.0293ZM16.3701 6.00553C15.9793 6.08368 15.6704 6.24073 15.4217 6.36507L15.8689 7.2595C16.1266 7.13067 16.324 7.03454 16.5662 6.98611L16.3701 6.00553ZM15.8782 6.36983L14.6756 5.7369L14.2099 6.62181L15.4124 7.25475L15.8782 6.36983ZM14.7963 5.8258C14.5617 5.59119 14.2686 5.65233 14.158 5.68919C14.0286 5.73233 13.916 5.80911 13.836 5.88909L14.5431 6.5962C14.5264 6.61289 14.5087 6.62638 14.4743 6.63787C14.455 6.64428 14.4073 6.65769 14.3401 6.65159C14.2651 6.64477 14.1691 6.61281 14.0892 6.53291L14.7963 5.8258ZM13.836 5.88909L12.6967 7.02837L13.4038 7.73548L14.5431 6.5962L13.836 5.88909ZM12.6967 7.02837C12.5542 7.17086 12.5154 7.34416 12.5017 7.42631C12.4861 7.51995 12.487 7.60633 12.487 7.6351H13.487C13.487 7.61881 13.4871 7.60948 13.4875 7.60044C13.4879 7.59153 13.4884 7.58881 13.4881 7.59071C13.4879 7.59176 13.4856 7.60625 13.4765 7.6286C13.4673 7.65091 13.4466 7.69268 13.4038 7.73548L12.6967 7.02837ZM12.5445 7.86797L13.1775 9.07054L14.0624 8.60479L13.4295 7.40222L12.5445 7.86797ZM13.1727 8.61406C13.0352 8.88917 12.893 9.24067 12.8184 9.53921L13.7885 9.78175C13.8405 9.57394 13.9515 9.29251 14.0671 9.06128L13.1727 8.61406ZM13.1661 9.17972L11.8369 9.55948L12.1117 10.521L13.4408 10.1412L13.1661 9.17972ZM11.9743 9.54024C11.8164 9.54024 11.6986 9.60876 11.6548 9.63587C11.5947 9.67305 11.5431 9.71685 11.5021 9.75789C11.461 9.79893 11.4172 9.85051 11.3801 9.91057C11.3529 9.95437 11.2844 10.0722 11.2844 10.2301H12.2844C12.2844 10.3015 12.2676 10.3543 12.2579 10.38C12.2473 10.4081 12.2362 10.4274 12.2303 10.4369C12.2189 10.4554 12.2107 10.4635 12.2092 10.465C12.2077 10.4665 12.1996 10.4747 12.1811 10.4861C12.1716 10.492 12.1523 10.5031 12.1242 10.5137C12.0985 10.5234 12.0457 10.5402 11.9743 10.5402V9.54024ZM11.2844 10.2301V11.7492H12.2844V10.2301H11.2844ZM11.2844 11.7492C11.2844 11.8895 11.3199 12.0866 11.4783 12.2451C11.6368 12.4036 11.8339 12.439 11.9743 12.439V11.439C11.9881 11.439 12.0903 11.4428 12.1854 11.538C12.2806 11.6332 12.2844 11.7354 12.2844 11.7492H11.2844ZM11.8369 12.4198L13.1661 12.7996L13.4408 11.838L12.1117 11.4583L11.8369 12.4198ZM12.8132 12.4169C12.8936 12.819 13.0568 13.1398 13.2832 13.4416L14.0832 12.8416C13.9298 12.6371 13.8399 12.4515 13.7938 12.2207L12.8132 12.4169ZM13.2408 12.9087L12.6078 14.1113L13.4927 14.577L14.1257 13.3745L13.2408 12.9087ZM12.6967 13.9906C12.5498 14.1375 12.4833 14.3477 12.5175 14.553C12.5544 14.7739 12.6985 14.9488 12.89 15.0446L13.3372 14.1501C13.4021 14.1826 13.4829 14.2625 13.5039 14.3886C13.5223 14.4988 13.4875 14.6141 13.4038 14.6977L12.6967 13.9906ZM12.76 14.9509L13.8993 16.0902L14.6064 15.3831L13.4671 14.2438L12.76 14.9509ZM13.8993 16.0902C14.0418 16.2327 14.2151 16.2715 14.2972 16.2852C14.3909 16.3008 14.4773 16.2999 14.506 16.2999V15.2999C14.4897 15.2999 14.4804 15.2999 14.4714 15.2994C14.4625 15.299 14.4597 15.2985 14.4616 15.2988C14.4627 15.299 14.4772 15.3013 14.4995 15.3104C14.5218 15.3196 14.5636 15.3403 14.6064 15.3831L13.8993 16.0902ZM14.7389 16.2424L15.9415 15.6094L15.4757 14.7245L14.2732 15.3575L14.7389 16.2424ZM15.485 15.6142C15.7601 15.7518 16.1116 15.8939 16.4101 15.9685L16.6527 14.9984C16.4449 14.9464 16.1634 14.8354 15.9322 14.7198L15.485 15.6142ZM16.0507 15.6208L16.4304 16.95L17.3919 16.6752L17.0122 15.3461L16.0507 15.6208ZM16.4112 16.8126C16.4112 16.9705 16.4797 17.0884 16.5068 17.1322C16.544 17.1922 16.5878 17.2438 16.6288 17.2848C16.6699 17.3259 16.7214 17.3697 16.7815 17.4069C16.8253 17.434 16.9432 17.5025 17.1011 17.5025V16.5025C17.1724 16.5025 17.2253 16.5193 17.2509 16.529C17.2791 16.5396 17.2983 16.5507 17.3079 16.5566C17.3264 16.5681 17.3344 16.5762 17.3359 16.5777C17.3374 16.5792 17.3456 16.5873 17.3571 16.6058C17.363 16.6153 17.3741 16.6346 17.3847 16.6627C17.3943 16.6884 17.4112 16.7412 17.4112 16.8126H16.4112ZM17.1011 17.5025H18.6834V16.5025H17.1011V17.5025ZM18.6834 17.5025C18.8237 17.5025 19.0209 17.4671 19.1793 17.3086C19.3378 17.1501 19.3733 16.953 19.3733 16.8126H18.3733C18.3733 16.7988 18.377 16.6967 18.4722 16.6015C18.5674 16.5063 18.6696 16.5025 18.6834 16.5025V17.5025ZM19.354 16.95L19.7338 15.6208L18.7723 15.3461L18.3925 16.6752L19.354 16.95ZM19.3511 15.9737C19.7418 15.8956 20.0508 15.7385 20.2994 15.6142L19.8522 14.7198C19.5946 14.8486 19.3971 14.9447 19.155 14.9932L19.3511 15.9737ZM19.843 15.6094L21.0455 16.2424L21.5113 15.3575L20.3087 14.7245L19.843 15.6094ZM20.9249 16.1535C21.0718 16.3004 21.282 16.3669 21.4872 16.3327C21.7081 16.2958 21.883 16.1518 21.9788 15.9602L21.0844 15.513C21.1168 15.4481 21.1968 15.3673 21.3228 15.3463C21.4331 15.3279 21.5483 15.3627 21.632 15.4464L20.9249 16.1535ZM21.8851 16.0902L23.0244 14.9509L22.3173 14.2438L21.178 15.3831L21.8851 16.0902ZM23.0244 14.9509C23.1669 14.8084 23.2057 14.6351 23.2194 14.553C23.235 14.4593 23.2341 14.3729 23.2341 14.3442H22.2341C22.2341 14.3605 22.2341 14.3698 22.2337 14.3788C22.2333 14.3877 22.2327 14.3905 22.233 14.3886C22.2332 14.3875 22.2355 14.373 22.2447 14.3507C22.2538 14.3284 22.2745 14.2866 22.3173 14.2438L23.0244 14.9509ZM23.1766 14.1113L22.5437 12.9087L21.6588 13.3745L22.2917 14.577L23.1766 14.1113ZM22.5484 13.3652C22.6178 13.2265 22.6858 13.0732 22.748 12.9333C22.8124 12.7884 22.8709 12.6569 22.9282 12.5424L22.0338 12.0952C21.9644 12.2339 21.8964 12.3872 21.8342 12.5271C21.7698 12.672 21.7113 12.8035 21.654 12.918L22.5484 13.3652ZM22.6183 12.7996L23.9475 12.4198L23.6728 11.4583L22.3436 11.838L22.6183 12.7996ZM23.8101 12.439C23.968 12.439 24.0859 12.3705 24.1297 12.3434C24.1897 12.3062 24.2413 12.2624 24.2824 12.2214C24.3234 12.1803 24.3672 12.1288 24.4044 12.0687C24.4315 12.0249 24.5 11.9071 24.5 11.7492H23.5C23.5 11.6778 23.5169 11.6249 23.5265 11.5993C23.5371 11.5711 23.5482 11.5519 23.5541 11.5423C23.5656 11.5238 23.5738 11.5158 23.5753 11.5143C23.5767 11.5128 23.5848 11.5046 23.6033 11.4931C23.6129 11.4872 23.6321 11.4762 23.6602 11.4656C23.6859 11.4559 23.7388 11.439 23.8101 11.439V12.439ZM24.5 11.7492V10.1035H23.5V11.7492H24.5ZM24.5 10.1035C24.5 9.96317 24.4646 9.76606 24.3061 9.60757C24.1476 9.44908 23.9505 9.41365 23.8101 9.41365V10.4137C23.7964 10.4137 23.6942 10.4099 23.599 10.3147C23.5038 10.2195 23.5 10.1173 23.5 10.1035H24.5ZM23.9475 9.43289L22.6183 9.05313L22.3436 10.0147L23.6728 10.3944L23.9475 9.43289ZM22.9713 9.43584C22.8931 9.04508 22.7361 8.73617 22.6117 8.48748L21.7173 8.93469C21.8461 9.19235 21.9423 9.38978 21.9907 9.63195L22.9713 9.43584ZM22.607 8.94396L23.2399 7.74139L22.355 7.27564L21.722 8.47821L22.607 8.94396ZM23.151 7.86206C23.2979 7.71514 23.3644 7.50494 23.3302 7.29973C23.2934 7.07877 23.1493 6.90389 22.9578 6.80813L22.5105 7.70255C22.4456 7.67009 22.3648 7.59014 22.3438 7.46413C22.3254 7.35386 22.3603 7.23859 22.4439 7.15496L23.151 7.86206ZM23.0877 6.90179L21.9484 5.76251L21.2413 6.46962L22.3806 7.60889L23.0877 6.90179ZM21.753 5.64172C21.656 5.60939 21.525 5.56859 21.3813 5.56859C21.2143 5.56859 21.0857 5.62176 20.9915 5.66885L21.4387 6.56328C21.4474 6.55895 21.4516 6.55714 21.4526 6.55671C21.4534 6.55637 21.45 6.55785 21.4432 6.55986C21.4361 6.56195 21.4265 6.56431 21.4148 6.56606C21.403 6.56782 21.3916 6.56859 21.3813 6.56859C21.3609 6.56859 21.3518 6.5656 21.3618 6.56789C21.3668 6.56902 21.3751 6.57114 21.388 6.57493C21.4008 6.57872 21.4167 6.58373 21.4368 6.5904L21.753 5.64172ZM20.9822 5.6736L19.7797 6.30653L20.2454 7.19145L21.448 6.55852L20.9822 5.6736ZM20.2361 6.30178C19.961 6.16423 19.6095 6.02209 19.311 5.94746L19.0685 6.9176C19.2763 6.96955 19.5577 7.08059 19.7889 7.19621L20.2361 6.30178ZM19.6705 6.29517L19.2907 4.96601L18.3292 5.24073L18.709 6.56989L19.6705 6.29517ZM19.31 5.10337C19.31 4.94804 19.2476 4.77059 19.1161 4.63905C19.0408 4.56377 18.9301 4.49189 18.7854 4.46776C18.6392 4.44341 18.5047 4.47546 18.3965 4.52957L18.8437 5.424C18.7988 5.44646 18.7196 5.4706 18.621 5.45416C18.5237 5.43795 18.4526 5.38979 18.4089 5.34616C18.3679 5.30511 18.3459 5.26378 18.3339 5.23369C18.3227 5.20576 18.31 5.16234 18.31 5.10337H19.31ZM17.9451 5.54113L18.2616 6.80699L19.2317 6.56446L18.9153 5.29859L17.9451 5.54113ZM18.2467 6.68573C18.2467 6.87999 18.3388 7.0324 18.4327 7.12631C18.5266 7.22022 18.679 7.31231 18.8732 7.31231V6.31231C19.0042 6.31231 19.0933 6.37276 19.1398 6.4192C19.1862 6.46564 19.2467 6.55476 19.2467 6.68573H18.2467ZM18.6875 7.27655C18.8545 7.34334 19.0364 7.40942 19.2087 7.47209C19.3845 7.536 19.5507 7.59651 19.7002 7.65631L20.0716 6.72783C19.9047 6.66104 19.7228 6.59497 19.5505 6.5323C19.3747 6.46838 19.2084 6.40787 19.0589 6.34807L18.6875 7.27655ZM19.5324 7.54562C19.6185 7.63177 19.7698 7.73954 19.9809 7.73954C20.1919 7.73954 20.3432 7.63177 20.4294 7.54562L19.7223 6.83852C19.7451 6.81567 19.8331 6.73954 19.9809 6.73954C20.1286 6.73954 20.2166 6.81567 20.2395 6.83852L19.5324 7.54562ZM20.3186 7.62915L21.4579 6.99622L20.9723 6.12206L19.833 6.75499L20.3186 7.62915ZM20.8615 6.91269L21.7476 7.7988L22.4547 7.09169L21.5686 6.20559L20.8615 6.91269ZM21.6641 7.20242L21.0312 8.3417L21.9053 8.82734L22.5383 7.68807L21.6641 7.20242ZM21.1147 8.23097C21.0286 8.31712 20.9208 8.46844 20.9208 8.67946C20.9208 8.89048 21.0286 9.04181 21.1147 9.12795L21.8218 8.42085C21.8447 8.4437 21.9208 8.53173 21.9208 8.67946C21.9208 8.82719 21.8447 8.91522 21.8218 8.93807L21.1147 8.23097ZM21.0395 9.03165C21.2041 9.30593 21.3072 9.56903 21.3577 9.82186L22.3383 9.62574C22.2623 9.24564 22.1122 8.87581 21.897 8.51715L21.0395 9.03165ZM21.348 9.7238C21.348 9.91806 21.4401 10.0705 21.534 10.1644C21.6279 10.2583 21.7803 10.3504 21.9746 10.3504V9.35039C22.1056 9.35039 22.1947 9.41083 22.2411 9.45728C22.2876 9.50372 22.348 9.59283 22.348 9.7238H21.348ZM21.8309 10.3293L23.0968 10.7091L23.3841 9.75123L22.1183 9.37147L21.8309 10.3293ZM22.7405 10.2301V11.496H23.7405V10.2301H22.7405ZM23.0968 11.0171L21.8309 11.3969L22.1183 12.3547L23.3841 11.9749L23.0968 11.0171ZM21.9746 11.3758C21.7803 11.3758 21.6279 11.4679 21.534 11.5618C21.4401 11.6557 21.348 11.8081 21.348 12.0024H22.348C22.348 12.1333 22.2876 12.2224 22.2411 12.2689C22.1947 12.3153 22.1056 12.3758 21.9746 12.3758V11.3758ZM21.3838 11.8167C21.2379 12.1814 21.1362 12.4978 21.021 12.7281L21.9155 13.1754C22.0535 12.8993 22.205 12.4563 22.3123 12.1881L21.3838 11.8167ZM21.1147 12.5982C21.0147 12.6982 20.9208 12.8504 20.9208 13.0546C20.9208 13.2163 20.9825 13.3513 21.021 13.4285L21.9155 12.9813C21.9062 12.9628 21.9062 12.9601 21.9089 12.9685C21.9116 12.9771 21.9208 13.0083 21.9208 13.0546C21.9208 13.1056 21.9097 13.1608 21.8851 13.2131C21.8621 13.2619 21.8348 13.2923 21.8218 13.3053L21.1147 12.5982ZM21.0312 13.4477L21.6641 14.587L22.5383 14.1014L21.9053 12.9621L21.0312 13.4477ZM21.7476 13.9906L20.8615 14.8768L21.5686 15.5839L22.4547 14.6978L21.7476 13.9906ZM21.4579 14.7932L20.3186 14.1603L19.833 15.0345L20.9723 15.6674L21.4579 14.7932ZM20.4294 14.2438C20.3432 14.1577 20.1919 14.0499 19.9809 14.0499C19.7699 14.0499 19.6185 14.1577 19.5324 14.2438L20.2395 14.9509C20.2166 14.9738 20.1286 15.0499 19.9809 15.0499C19.8331 15.0499 19.7451 14.9738 19.7223 14.9509L20.4294 14.2438ZM19.6287 14.1686C19.3593 14.3303 19.1017 14.4322 18.791 14.4839L18.9554 15.4703C19.4043 15.3955 19.7796 15.2443 20.1432 15.0261L19.6287 14.1686ZM18.8732 14.4771C18.679 14.4771 18.5266 14.5692 18.4327 14.6631C18.3388 14.757 18.2467 14.9095 18.2467 15.1037H19.2467C19.2467 15.2347 19.1862 15.3238 19.1398 15.3702C19.0933 15.4167 19.0042 15.4771 18.8732 15.4771V14.4771ZM18.2677 14.96L17.888 16.2259L18.8458 16.5133L19.2256 15.2474L18.2677 14.96ZM18.3669 15.8696H17.101V16.8696H18.3669V15.8696ZM17.5799 16.2259L17.2002 14.96L16.2424 15.2474L16.6221 16.5133L17.5799 16.2259ZM17.2213 15.1037C17.2213 14.9095 17.1292 14.757 17.0353 14.6631C16.9414 14.5692 16.789 14.4771 16.5947 14.4771V15.4771C16.4637 15.4771 16.3746 15.4167 16.3282 15.3702C16.2817 15.3238 16.2213 15.2347 16.2213 15.1037H17.2213ZM16.4734 14.4921C16.4748 14.4917 16.4598 14.4953 16.4244 14.4925C16.3901 14.4898 16.3462 14.4818 16.2953 14.4666C16.1909 14.4353 16.0861 14.3821 16.0086 14.324L15.4086 15.124C15.5843 15.2557 15.7959 15.3608 16.008 15.4244C16.2119 15.4856 16.4686 15.524 16.716 15.4622L16.4734 14.4921ZM16.0621 14.3704C15.976 14.2843 15.8247 14.1765 15.6136 14.1765C15.4026 14.1765 15.2513 14.2843 15.1652 14.3704L15.8723 15.0775C15.8494 15.1004 15.7614 15.1765 15.6136 15.1765C15.4659 15.1765 15.3779 15.1004 15.355 15.0775L16.0621 14.3704ZM15.2759 14.2869L14.1366 14.9198L14.6223 15.794L15.7615 15.161L15.2759 14.2869ZM14.733 15.0033L13.8469 14.1172L13.1398 14.8243L14.0259 15.7104L14.733 15.0033ZM13.9304 14.7136L14.5633 13.5743L13.6892 13.0887L13.0562 14.228L13.9304 14.7136ZM14.4798 13.6851C14.5798 13.5851 14.6737 13.4329 14.6737 13.2287C14.6737 13.067 14.6121 12.9319 14.5735 12.8547L13.679 13.3019C13.6883 13.3205 13.6883 13.3231 13.6856 13.3148C13.6829 13.3061 13.6737 13.275 13.6737 13.2287C13.6737 13.1777 13.6848 13.1225 13.7095 13.0702C13.7324 13.0213 13.7597 12.991 13.7727 12.978L14.4798 13.6851ZM14.555 12.8211C14.3904 12.5468 14.2874 12.2837 14.2368 12.0309L13.2562 12.227C13.3322 12.6071 13.4823 12.9769 13.6975 13.3356L14.555 12.8211ZM14.2465 12.1289C14.2465 11.9347 14.1544 11.7823 14.0605 11.6884C13.9666 11.5945 13.8142 11.5024 13.6199 11.5024V12.5024C13.4889 12.5024 13.3998 12.4419 13.3534 12.3955C13.3069 12.349 13.2465 12.2599 13.2465 12.1289H14.2465ZM13.7636 11.5234L12.4977 11.1437L12.2104 12.1015L13.4762 12.4813L13.7636 11.5234ZM12.854 11.6226V10.3567H11.854V11.6226H12.854ZM12.4977 10.8356L13.7636 10.4559L13.4762 9.49806L12.2104 9.87782L12.4977 10.8356ZM13.6199 10.477C13.8142 10.477 13.9666 10.3849 14.0605 10.291C14.1544 10.1971 14.2465 10.0446 14.2465 9.85039H13.2465C13.2465 9.71942 13.3069 9.6303 13.3534 9.58386C13.3998 9.53742 13.4889 9.47697 13.6199 9.47697V10.477ZM14.2107 10.0361C14.3566 9.67138 14.4583 9.35493 14.5735 9.1246L13.679 8.67738C13.541 8.95339 13.3896 9.39646 13.2823 9.66469L14.2107 10.0361ZM14.4798 9.25454C14.566 9.1684 14.6737 9.01707 14.6737 8.80605C14.6737 8.59502 14.566 8.4437 14.4798 8.35755L13.7727 9.06467C13.7499 9.04181 13.6737 8.95378 13.6737 8.80605C13.6737 8.65832 13.7499 8.57029 13.7727 8.54743L14.4798 9.25454ZM14.5633 8.46829L13.9304 7.32901L13.0562 7.81465L13.6892 8.95393L14.5633 8.46829ZM13.8469 7.92538L14.733 7.03928L14.0259 6.33217L13.1398 7.21828L13.8469 7.92538ZM14.1366 7.12281L15.2759 7.75574L15.7615 6.88158L14.6223 6.24865L14.1366 7.12281ZM15.1652 7.67221C15.2513 7.75836 15.4026 7.86613 15.6136 7.86613C15.8247 7.86613 15.976 7.75836 16.0621 7.67221L15.355 6.96511C15.3779 6.94226 15.4659 6.86613 15.6136 6.86613C15.7614 6.86613 15.8494 6.94225 15.8723 6.96511L15.1652 7.67221ZM15.9658 7.74741C16.2352 7.58578 16.4929 7.48387 16.8035 7.4321L16.6391 6.4457C16.1902 6.52052 15.8149 6.67178 15.4513 6.88991L15.9658 7.74741ZM16.7213 7.4389C16.9155 7.4389 17.0679 7.3468 17.1619 7.25289C17.2558 7.15899 17.3479 7.00658 17.3479 6.81231H16.3479C16.3479 6.68134 16.4083 6.59223 16.4548 6.54579C16.5012 6.49935 16.5903 6.4389 16.7213 6.4389V7.4389ZM17.3329 6.93358L17.6494 5.66772L16.6793 5.42518L16.3628 6.69104L17.3329 6.93358ZM17.2141 6.04397L18.4799 5.91738L18.3804 4.92234L17.1146 5.04893L17.2141 6.04397ZM15.082 10.9263C15.082 12.405 16.3186 13.6416 17.7973 13.6416V12.6416C16.8708 12.6416 16.082 11.8528 16.082 10.9263H15.082ZM17.7973 13.6416C19.276 13.6416 20.5125 12.405 20.5125 10.9263H19.5125C19.5125 11.8528 18.7237 12.6416 17.7973 12.6416V13.6416ZM20.5125 10.9263C20.5125 9.44762 19.276 8.21107 17.7973 8.21107V9.21107C18.7237 9.21107 19.5125 9.9999 19.5125 10.9263H20.5125ZM17.7973 8.21107C16.3186 8.21107 15.082 9.44761 15.082 10.9263H16.082C16.082 9.9999 16.8708 9.21107 17.7973 9.21107V8.21107ZM19.0695 10.9263C19.0695 11.6513 18.4822 12.1986 17.7973 12.1986V13.1986C19.0111 13.1986 20.0695 12.2267 20.0695 10.9263H19.0695ZM17.7973 12.1986C17.0723 12.1986 16.5251 11.6113 16.5251 10.9263H15.5251C15.5251 12.1402 16.4969 13.1986 17.7973 13.1986V12.1986ZM16.5251 10.9263C16.5251 10.2014 17.1123 9.65413 17.7973 9.65413V8.65413C16.5834 8.65413 15.5251 9.62594 15.5251 10.9263H16.5251ZM17.7973 9.65413C18.5223 9.65413 19.0695 10.2414 19.0695 10.9263H20.0695C20.0695 9.71251 19.0977 8.65413 17.7973 8.65413L17.7973 9.65413Z" fill="#FF5900"/>
<path fill-rule="evenodd" clip-rule="evenodd" d="M10.7004 16.3085C10.5738 16.3085 10.5105 16.4351 10.5105 16.4984L10.1941 17.5743C9.9409 17.6376 9.75102 17.7642 9.49785 17.8908L8.48516 17.3212C8.42186 17.2579 8.29528 17.3212 8.23199 17.3845L7.28259 18.3339C7.21929 18.3971 7.21929 18.5237 7.21929 18.587L7.78893 19.5997C7.66235 19.7896 7.59905 20.0428 7.47247 20.2959L6.39648 20.6124C6.33319 20.6124 6.2066 20.739 6.2066 20.8023V22.1947C6.2066 22.3213 6.2699 22.3846 6.39648 22.3846L7.47247 22.7011C7.53576 22.9543 7.66235 23.1441 7.72564 23.3973L7.156 24.41C7.09271 24.4733 7.09271 24.5999 7.21929 24.6632L8.16869 25.6126C8.23199 25.6759 8.35857 25.6759 8.42186 25.6759L9.43456 25.1062C9.62443 25.2328 9.87761 25.2961 10.1308 25.3594L10.4472 26.4354C10.4472 26.4987 10.5738 26.6253 10.6371 26.6253H12.0296C12.1562 26.6253 12.2195 26.562 12.2195 26.4354L12.5359 25.3594C12.7891 25.2961 12.979 25.1695 13.2321 25.1062L14.2448 25.6759C14.3081 25.7391 14.4347 25.7391 14.498 25.6126L15.4474 24.6632C15.5107 24.5999 15.5107 24.4733 15.5107 24.41L14.9411 23.3973C15.0676 23.2074 15.1309 22.9542 15.1942 22.7011L16.2702 22.3846C16.3335 22.3846 16.4601 22.258 16.4601 22.1947V20.8023C16.4601 20.6757 16.3968 20.6124 16.2702 20.6124L15.1942 20.2959C15.1309 20.0428 15.0044 19.8529 14.8778 19.5997L15.4474 18.587C15.5107 18.5237 15.5107 18.3971 15.3841 18.3339L14.4347 17.3845C14.3714 17.3212 14.2448 17.3212 14.1815 17.3212L13.1689 17.8908C12.979 17.7642 12.7258 17.7009 12.4726 17.5743L12.1562 16.4984C12.1562 16.4351 12.0296 16.3085 11.9663 16.3085H10.7004ZM10.827 16.7515H11.903L12.2194 17.7642C12.2194 17.8275 12.2827 17.8908 12.4093 17.8908C12.7258 17.9541 12.979 18.0807 13.2321 18.2073C13.2954 18.2706 13.3587 18.2706 13.422 18.2073L14.3714 17.7009L15.1309 18.4604L14.6246 19.4098C14.5613 19.4731 14.5613 19.5364 14.6246 19.663C14.7512 19.9162 14.8778 20.1694 14.9411 20.4858C14.9411 20.5491 15.0043 20.6124 15.0676 20.6124L16.0803 20.9289V21.9416L15.0676 22.258C15.0043 22.258 14.9411 22.3213 14.9411 22.3846C14.8778 22.7011 14.7512 22.9543 14.6246 23.2074C14.5613 23.2707 14.5613 23.334 14.6246 23.3973L15.1309 24.3467L14.4347 25.0429L13.4853 24.5366C13.422 24.4733 13.3587 24.5366 13.2954 24.5366C13.0423 24.6632 12.7891 24.7898 12.4726 24.853C12.4093 24.853 12.346 24.9163 12.2827 24.9796L11.903 26.1189H10.8903L10.5738 25.1062C10.5738 25.0429 10.5105 24.9796 10.3839 24.9796C10.0675 24.9163 9.81431 24.7898 9.56113 24.6632C9.49784 24.5999 9.43455 24.5999 9.37126 24.6632L8.42186 25.1695L7.72563 24.41L8.23198 23.4606C8.29527 23.3973 8.29527 23.334 8.23198 23.2707C8.10539 23.0175 7.9788 22.7644 7.91551 22.4479C7.91551 22.3846 7.85222 22.3213 7.78892 22.3213L6.77623 22.0049V20.9922L7.78892 20.6757C7.85222 20.6757 7.91551 20.6124 7.91551 20.5491C7.9788 20.2326 8.10539 19.9795 8.23198 19.7263C8.29527 19.663 8.29527 19.5997 8.23198 19.4731L7.72563 18.5237L8.48515 17.7642L9.43455 18.2706C9.49784 18.3338 9.56113 18.3338 9.62443 18.2706C9.8776 18.144 10.1308 18.0174 10.4472 17.9541C10.5105 17.9541 10.5738 17.8908 10.6371 17.8275L10.827 16.7515ZM11.3966 19.663C10.4472 19.663 9.62442 20.4858 9.62442 21.4352C9.62442 22.3846 10.4472 23.2074 11.3966 23.2074C12.346 23.2074 13.1688 22.3846 13.1688 21.4352C13.1688 20.4858 12.346 19.663 11.3966 19.663ZM11.3966 20.1061C12.1562 20.1061 12.7258 20.6757 12.7258 21.4352C12.7258 22.1947 12.1562 22.7644 11.3966 22.7644C10.6371 22.7644 10.0675 22.1947 10.0675 21.4352C10.0675 20.6757 10.6371 20.1061 11.3966 20.1061Z" fill="#FF5900"/>
<path d="M10.5105 16.4984L10.9902 16.6394L11.0105 16.5704V16.4984H10.5105ZM10.1941 17.5743L10.3153 18.0594L10.593 17.99L10.6738 17.7154L10.1941 17.5743ZM9.49785 17.8908L9.25272 18.3266L9.48406 18.4567L9.72146 18.338L9.49785 17.8908ZM8.48516 17.3212L8.13161 17.6747L8.18017 17.7233L8.24003 17.7569L8.48516 17.3212ZM8.23199 17.3845L7.87844 17.0309L7.87843 17.0309L8.23199 17.3845ZM7.28259 18.3339L7.63614 18.6874L7.63614 18.6874L7.28259 18.3339ZM7.21929 18.587H6.71929V18.718L6.78351 18.8322L7.21929 18.587ZM7.78893 19.5997L8.20496 19.8771L8.37508 19.6219L8.22472 19.3546L7.78893 19.5997ZM7.47247 20.2959L7.61355 20.7756L7.82235 20.7142L7.91968 20.5195L7.47247 20.2959ZM6.39648 20.6124V21.1124H6.46849L6.53757 21.0921L6.39648 20.6124ZM6.39648 22.3846L6.53757 21.9049L6.46849 21.8846H6.39648V22.3846ZM7.47247 22.7011L7.95754 22.5798L7.88812 22.3022L7.61355 22.2214L7.47247 22.7011ZM7.72564 23.3973L8.16143 23.6424L8.25896 23.469L8.21071 23.276L7.72564 23.3973ZM7.156 24.41L7.50955 24.7635L7.55812 24.715L7.59179 24.6551L7.156 24.41ZM7.21929 24.6632L7.57285 24.3096L7.51548 24.2522L7.4429 24.216L7.21929 24.6632ZM8.16869 25.6126L7.81514 25.9661L7.81514 25.9661L8.16869 25.6126ZM8.42186 25.6759V26.1759H8.55284L8.667 26.1116L8.42186 25.6759ZM9.43456 25.1062L9.71191 24.6902L9.45673 24.5201L9.18942 24.6704L9.43456 25.1062ZM10.1308 25.3594L10.6105 25.2183L10.5297 24.9437L10.2521 24.8743L10.1308 25.3594ZM10.4472 26.4354H10.9472V26.3634L10.9269 26.2943L10.4472 26.4354ZM12.2195 26.4354L11.7398 26.2943L11.7195 26.3634V26.4354H12.2195ZM12.5359 25.3594L12.4147 24.8743L12.137 24.9437L12.0562 25.2183L12.5359 25.3594ZM13.2321 25.1062L13.4773 24.6704L13.3039 24.5729L13.1109 24.6211L13.2321 25.1062ZM14.2448 25.6759L14.5984 25.3223L14.5498 25.2737L14.49 25.2401L14.2448 25.6759ZM14.498 25.6126L14.1445 25.259L14.0871 25.3164L14.0508 25.389L14.498 25.6126ZM15.4474 24.6632L15.0939 24.3096L15.0939 24.3096L15.4474 24.6632ZM15.5107 24.41H16.0107V24.279L15.9465 24.1649L15.5107 24.41ZM14.9411 23.3973L14.525 23.12L14.3549 23.3751L14.5053 23.6424L14.9411 23.3973ZM15.1942 22.7011L15.0532 22.2214L14.7786 22.3022L14.7092 22.5798L15.1942 22.7011ZM16.2702 22.3846V21.8846H16.1982L16.1291 21.9049L16.2702 22.3846ZM16.2702 20.6124L16.1291 21.0921L16.1982 21.1124H16.2702V20.6124ZM15.1942 20.2959L14.7092 20.4172L14.7786 20.6949L15.0532 20.7756L15.1942 20.2959ZM14.8778 19.5997L14.442 19.3546L14.3119 19.5859L14.4306 19.8233L14.8778 19.5997ZM15.4474 18.587L15.0939 18.2335L15.0453 18.282L15.0116 18.3419L15.4474 18.587ZM15.3841 18.3339L15.0306 18.6874L15.0879 18.7448L15.1605 18.7811L15.3841 18.3339ZM14.4347 17.3845L14.7883 17.0309L14.7883 17.0309L14.4347 17.3845ZM14.1815 17.3212V16.8212H14.0506L13.9364 16.8854L14.1815 17.3212ZM13.1689 17.8908L12.8915 18.3068L13.1467 18.4769L13.414 18.3266L13.1689 17.8908ZM12.4726 17.5743L11.9929 17.7154L12.0544 17.9242L12.249 18.0215L12.4726 17.5743ZM12.1562 16.4984H11.6562V16.5704L11.6765 16.6394L12.1562 16.4984ZM11.903 16.7515L12.3802 16.6024L12.2706 16.2515H11.903V16.7515ZM12.2194 17.7642H12.7194V17.6879L12.6967 17.6151L12.2194 17.7642ZM12.4093 17.8908L12.5074 17.4005L12.4588 17.3908H12.4093V17.8908ZM13.2321 18.2073L13.5857 17.8537L13.5283 17.7963L13.4557 17.7601L13.2321 18.2073ZM13.422 18.2073L13.1867 17.7661L13.1211 17.8011L13.0685 17.8537L13.422 18.2073ZM14.3714 17.7009L14.725 17.3474L14.463 17.0854L14.1361 17.2597L14.3714 17.7009ZM15.1309 18.4604L15.5721 18.6957L15.7464 18.3688L15.4845 18.1069L15.1309 18.4604ZM14.6246 19.4098L14.9781 19.7634L15.0307 19.7108L15.0658 19.6451L14.6246 19.4098ZM14.6246 19.663L15.0718 19.4394L15.0718 19.4394L14.6246 19.663ZM14.9411 20.4858H15.4411V20.4363L15.4313 20.3878L14.9411 20.4858ZM15.0676 20.6124L15.2168 20.1352L15.1439 20.1124H15.0676V20.6124ZM16.0803 20.9289H16.5803V20.5613L16.2295 20.4516L16.0803 20.9289ZM16.0803 21.9416L16.2295 22.4188L16.5803 22.3092V21.9416H16.0803ZM15.0676 22.258V22.758H15.1439L15.2168 22.7353L15.0676 22.258ZM14.9411 22.3846L15.4313 22.4827L15.4411 22.4341V22.3846H14.9411ZM14.6246 23.2074L14.9781 23.561L15.0355 23.5036L15.0718 23.431L14.6246 23.2074ZM14.6246 23.3973L15.0658 23.162L15.0307 23.0964L14.9781 23.0437L14.6246 23.3973ZM15.1309 24.3467L15.4845 24.7003L15.7464 24.4383L15.5721 24.1114L15.1309 24.3467ZM14.4347 25.0429L14.1994 25.4841L14.5263 25.6584L14.7883 25.3965L14.4347 25.0429ZM13.4853 24.5366L13.1318 24.8901L13.1844 24.9427L13.25 24.9778L13.4853 24.5366ZM13.2954 24.5366V24.0366H13.1774L13.0718 24.0894L13.2954 24.5366ZM12.4726 24.853V25.353H12.5221L12.5707 25.3433L12.4726 24.853ZM12.2827 24.9796L11.9292 24.6261L11.8457 24.7095L11.8084 24.8215L12.2827 24.9796ZM11.903 26.1189V26.6189H12.2634L12.3773 26.277L11.903 26.1189ZM10.8903 26.1189L10.413 26.268L10.5227 26.6189H10.8903V26.1189ZM10.5738 25.1062H10.0738V25.1825L10.0966 25.2554L10.5738 25.1062ZM10.3839 24.9796L10.2859 25.4699L10.3344 25.4796H10.3839V24.9796ZM9.56113 24.6632L9.20758 25.0167L9.26496 25.0741L9.33753 25.1104L9.56113 24.6632ZM9.37126 24.6632L9.60655 25.1043L9.6722 25.0693L9.72481 25.0167L9.37126 24.6632ZM8.42186 25.1695L8.05328 25.5074L8.31517 25.7931L8.65715 25.6107L8.42186 25.1695ZM7.72563 24.41L7.28445 24.1747L7.11791 24.487L7.35705 24.7479L7.72563 24.41ZM8.23198 23.4606L7.87843 23.107L7.82581 23.1597L7.7908 23.2253L8.23198 23.4606ZM8.23198 23.2707L7.78476 23.4943L7.82105 23.5669L7.87842 23.6243L8.23198 23.2707ZM7.91551 22.4479H7.41551V22.4974L7.42522 22.546L7.91551 22.4479ZM7.78892 22.3213L7.63979 22.7986L7.71262 22.8213H7.78892V22.3213ZM6.77623 22.0049H6.27623V22.3724L6.6271 22.4821L6.77623 22.0049ZM6.77623 20.9922L6.6271 20.5149L6.27623 20.6246V20.9922H6.77623ZM7.78892 20.6757V20.1757H7.71262L7.63979 20.1985L7.78892 20.6757ZM7.91551 20.5491L7.42522 20.4511L7.41551 20.4996V20.5491H7.91551ZM8.23198 19.7263L7.87843 19.3727L7.82105 19.4301L7.78476 19.5027L8.23198 19.7263ZM8.23198 19.4731L8.67934 19.2494L8.67315 19.2378L8.23198 19.4731ZM7.72563 18.5237L7.37208 18.1702L7.11012 18.4321L7.28445 18.759L7.72563 18.5237ZM8.48515 17.7642L8.72044 17.323L8.39356 17.1487L8.1316 17.4107L8.48515 17.7642ZM9.43455 18.2706L9.7881 17.917L9.73549 17.8644L9.66984 17.8294L9.43455 18.2706ZM9.62443 18.2706L9.40082 17.8233L9.32825 17.8596L9.27087 17.917L9.62443 18.2706ZM10.4472 17.9541V17.4541H10.3977L10.3492 17.4638L10.4472 17.9541ZM10.6371 17.8275L10.9907 18.181L11.1021 18.0696L11.1295 17.9144L10.6371 17.8275ZM10.7004 15.8085C10.4513 15.8085 10.2706 15.9385 10.1676 16.0673C10.0772 16.1803 10.0105 16.3351 10.0105 16.4984H11.0105C11.0105 16.5579 10.9975 16.5993 10.9897 16.62C10.9804 16.6443 10.9672 16.6685 10.9484 16.692C10.9087 16.7417 10.823 16.8085 10.7004 16.8085V15.8085ZM10.0309 16.3573L9.71439 17.4333L10.6738 17.7154L10.9902 16.6394L10.0309 16.3573ZM10.0728 17.0893C9.74864 17.1703 9.46196 17.3497 9.27424 17.4436L9.72146 18.338C10.0401 18.1787 10.1332 18.1049 10.3153 18.0594L10.0728 17.0893ZM9.74298 17.455L8.73029 16.8854L8.24003 17.7569L9.25272 18.3266L9.74298 17.455ZM8.83871 16.9676C8.6041 16.733 8.31102 16.7941 8.20046 16.831C8.07104 16.8741 7.95842 16.9509 7.87844 17.0309L8.58554 17.738C8.56884 17.7547 8.55116 17.7682 8.51668 17.7797C8.49746 17.7861 8.44969 17.7995 8.38253 17.7934C8.30755 17.7866 8.21151 17.7546 8.13161 17.6747L8.83871 16.9676ZM7.87843 17.0309L6.92903 17.9803L7.63614 18.6874L8.58554 17.738L7.87843 17.0309ZM6.92904 17.9803C6.78655 18.1228 6.7477 18.2961 6.73401 18.3782C6.7184 18.4719 6.71929 18.5583 6.71929 18.587H7.71929C7.71929 18.5707 7.71936 18.5614 7.71977 18.5524C7.72017 18.5435 7.72072 18.5407 7.7204 18.5426C7.72023 18.5437 7.71791 18.5582 7.70877 18.5805C7.69964 18.6028 7.67894 18.6446 7.63614 18.6874L6.92904 17.9803ZM6.78351 18.8322L7.35315 19.8448L8.22472 19.3546L7.65508 18.3419L6.78351 18.8322ZM7.37291 19.3224C7.27781 19.465 7.21399 19.6196 7.16646 19.7384C7.11374 19.8702 7.07657 19.9697 7.02525 20.0723L7.91968 20.5195C7.99495 20.369 8.05272 20.2153 8.09494 20.1098C8.14235 19.9913 8.17347 19.9243 8.20496 19.8771L7.37291 19.3224ZM7.33138 19.8163L6.2554 20.1327L6.53757 21.0921L7.61355 20.7756L7.33138 19.8163ZM6.39648 20.1124C6.23859 20.1124 6.12074 20.1809 6.07694 20.208C6.01688 20.2452 5.9653 20.289 5.92426 20.3301C5.88321 20.3711 5.83942 20.4227 5.80224 20.4827C5.77512 20.5265 5.7066 20.6444 5.7066 20.8023H6.7066C6.7066 20.8736 6.68975 20.9265 6.68008 20.9522C6.66949 20.9803 6.65842 20.9995 6.6525 21.0091C6.64104 21.0276 6.63285 21.0357 6.63136 21.0372C6.62988 21.0386 6.62181 21.0468 6.60329 21.0583C6.59374 21.0642 6.57451 21.0753 6.54638 21.0859C6.52072 21.0955 6.46785 21.1124 6.39648 21.1124V20.1124ZM5.7066 20.8023V22.1947H6.7066V20.8023H5.7066ZM5.7066 22.1947C5.7066 22.3351 5.74203 22.5322 5.90052 22.6907C6.05901 22.8492 6.25612 22.8846 6.39648 22.8846V21.8846C6.41026 21.8846 6.51243 21.8884 6.60763 21.9836C6.70282 22.0788 6.7066 22.181 6.7066 22.1947H5.7066ZM6.2554 22.8643L7.33138 23.1808L7.61355 22.2214L6.53757 21.9049L6.2554 22.8643ZM6.9874 22.8223C7.03018 22.9935 7.09374 23.1394 7.13948 23.2461C7.18868 23.3609 7.22006 23.4365 7.24057 23.5186L8.21071 23.276C8.16793 23.1049 8.10437 22.959 8.05863 22.8522C8.00943 22.7374 7.97805 22.6619 7.95754 22.5798L6.9874 22.8223ZM7.28985 23.1522L6.72021 24.1649L7.59179 24.6551L8.16143 23.6424L7.28985 23.1522ZM6.80245 24.0564C6.65552 24.2034 6.58904 24.4136 6.62325 24.6188C6.66007 24.8397 6.80417 25.0146 6.99569 25.1104L7.4429 24.216C7.50783 24.2484 7.58864 24.3284 7.60964 24.4544C7.62802 24.5646 7.59319 24.6799 7.50955 24.7635L6.80245 24.0564ZM6.86574 25.0167L7.81514 25.9661L8.52225 25.259L7.57285 24.3096L6.86574 25.0167ZM7.81514 25.9661C7.95763 26.1086 8.13093 26.1474 8.21308 26.1611C8.30672 26.1767 8.3931 26.1759 8.42186 26.1759V25.1759C8.40558 25.1759 8.39625 25.1758 8.38721 25.1754C8.37829 25.175 8.37558 25.1744 8.37748 25.1747C8.37852 25.1749 8.39302 25.1772 8.41537 25.1864C8.43767 25.1955 8.47944 25.2162 8.52224 25.259L7.81514 25.9661ZM8.667 26.1116L9.67969 25.542L9.18942 24.6704L8.17673 25.2401L8.667 26.1116ZM9.15721 25.5222C9.43345 25.7064 9.77983 25.787 10.0095 25.8445L10.2521 24.8743C9.97539 24.8052 9.81542 24.7592 9.71191 24.6902L9.15721 25.5222ZM9.6511 25.5005L9.96756 26.5765L10.9269 26.2943L10.6105 25.2183L9.6511 25.5005ZM9.94725 26.4354C9.94725 26.5933 10.0158 26.7111 10.0429 26.7549C10.0801 26.815 10.1239 26.8666 10.1649 26.9076C10.2059 26.9486 10.2575 26.9924 10.3176 27.0296C10.3614 27.0567 10.4792 27.1253 10.6371 27.1253V26.1253C10.7085 26.1253 10.7614 26.1421 10.787 26.1518C10.8152 26.1624 10.8344 26.1734 10.8439 26.1794C10.8625 26.1908 10.8705 26.199 10.872 26.2005C10.8735 26.202 10.8817 26.21 10.8931 26.2286C10.8991 26.2381 10.9101 26.2573 10.9207 26.2855C10.9304 26.3111 10.9472 26.364 10.9472 26.4354H9.94725ZM10.6371 27.1253H12.0296V26.1253H10.6371V27.1253ZM12.0296 27.1253C12.1699 27.1253 12.3671 27.0898 12.5255 26.9313C12.684 26.7728 12.7195 26.5757 12.7195 26.4354H11.7195C11.7195 26.4216 11.7232 26.3194 11.8184 26.2242C11.9136 26.129 12.0158 26.1253 12.0296 26.1253V27.1253ZM12.6991 26.5765L13.0156 25.5005L12.0562 25.2183L11.7398 26.2943L12.6991 26.5765ZM12.6572 25.8445C12.8283 25.8017 12.9743 25.7381 13.081 25.6924C13.1958 25.6432 13.2714 25.6118 13.3534 25.5913L13.1109 24.6211C12.9397 24.6639 12.7938 24.7275 12.6871 24.7732C12.5723 24.8224 12.4967 24.8538 12.4147 24.8743L12.6572 25.8445ZM12.987 25.542L13.9997 26.1116L14.49 25.2401L13.4773 24.6704L12.987 25.542ZM13.8913 26.0294C14.0382 26.1763 14.2484 26.2428 14.4536 26.2086C14.6746 26.1718 14.8495 26.0277 14.9452 25.8362L14.0508 25.389C14.0833 25.324 14.1632 25.2432 14.2892 25.2222C14.3995 25.2038 14.5148 25.2387 14.5984 25.3223L13.8913 26.0294ZM14.8516 25.9661L15.801 25.0167L15.0939 24.3096L14.1445 25.259L14.8516 25.9661ZM15.801 25.0167C15.9434 24.8742 15.9823 24.7009 15.996 24.6188C16.0116 24.5251 16.0107 24.4388 16.0107 24.41H15.0107C15.0107 24.4263 15.0106 24.4356 15.0102 24.4446C15.0098 24.4536 15.0093 24.4563 15.0096 24.4544C15.0098 24.4533 15.0121 24.4388 15.0212 24.4165C15.0304 24.3942 15.0511 24.3524 15.0939 24.3096L15.801 25.0167ZM15.9465 24.1649L15.3769 23.1522L14.5053 23.6424L15.0749 24.6551L15.9465 24.1649ZM15.3571 23.6747C15.5413 23.3984 15.6219 23.052 15.6793 22.8223L14.7092 22.5798C14.64 22.8565 14.594 23.0164 14.525 23.12L15.3571 23.6747ZM15.3353 23.1808L16.4113 22.8643L16.1291 21.9049L15.0532 22.2214L15.3353 23.1808ZM16.2702 22.8846C16.4281 22.8846 16.546 22.8161 16.5898 22.789C16.6498 22.7518 16.7014 22.708 16.7424 22.667C16.7835 22.6259 16.8273 22.5743 16.8645 22.5143C16.8916 22.4705 16.9601 22.3526 16.9601 22.1947H15.9601C15.9601 22.1234 15.977 22.0705 15.9866 22.0448C15.9972 22.0167 16.0083 21.9975 16.0142 21.9879C16.0257 21.9694 16.0339 21.9613 16.0353 21.9599C16.0368 21.9584 16.0449 21.9502 16.0634 21.9387C16.073 21.9328 16.0922 21.9217 16.1203 21.9111C16.146 21.9015 16.1989 21.8846 16.2702 21.8846V22.8846ZM16.9601 22.1947V20.8023H15.9601V22.1947H16.9601ZM16.9601 20.8023C16.9601 20.6619 16.9247 20.4648 16.7662 20.3063C16.6077 20.1478 16.4106 20.1124 16.2702 20.1124V21.1124C16.2564 21.1124 16.1543 21.1086 16.0591 21.0134C15.9639 20.9182 15.9601 20.8161 15.9601 20.8023H16.9601ZM16.4113 20.1327L15.3353 19.8163L15.0532 20.7756L16.1291 21.0921L16.4113 20.1327ZM15.6793 20.1747C15.5983 19.8505 15.4188 19.5638 15.325 19.3761L14.4306 19.8233C14.5899 20.1419 14.6636 20.235 14.7092 20.4172L15.6793 20.1747ZM15.3136 19.8448L15.8832 18.8322L15.0116 18.3419L14.442 19.3546L15.3136 19.8448ZM15.801 18.9406C15.9479 18.7937 16.0144 18.5835 15.9802 18.3782C15.9433 18.1573 15.7992 17.9824 15.6077 17.8866L15.1605 18.7811C15.0956 18.7486 15.0148 18.6687 14.9938 18.5426C14.9754 18.4324 15.0102 18.3171 15.0939 18.2335L15.801 18.9406ZM15.7377 17.9803L14.7883 17.0309L14.0812 17.738L15.0306 18.6874L15.7377 17.9803ZM14.7883 17.0309C14.6458 16.8884 14.4725 16.8496 14.3903 16.8359C14.2967 16.8203 14.2103 16.8212 14.1815 16.8212V17.8212C14.1978 17.8212 14.2072 17.8212 14.2162 17.8216C14.2251 17.822 14.2278 17.8226 14.2259 17.8223C14.2249 17.8221 14.2104 17.8198 14.188 17.8106C14.1657 17.8015 14.124 17.7808 14.0812 17.738L14.7883 17.0309ZM13.9364 16.8854L12.9237 17.455L13.414 18.3266L14.4267 17.7569L13.9364 16.8854ZM13.4462 17.4748C13.3036 17.3797 13.149 17.3159 13.0302 17.2683C12.8984 17.2156 12.7989 17.1784 12.6962 17.1271L12.249 18.0215C12.3996 18.0968 12.5532 18.1546 12.6588 18.1968C12.7773 18.2442 12.8443 18.2753 12.8915 18.3068L13.4462 17.4748ZM12.9523 17.4333L12.6358 16.3573L11.6765 16.6394L11.9929 17.7154L12.9523 17.4333ZM12.6562 16.4984C12.6562 16.3405 12.5876 16.2226 12.5605 16.1788C12.5233 16.1187 12.4796 16.0672 12.4385 16.0261C12.3975 15.9851 12.3459 15.9413 12.2858 15.9041C12.242 15.877 12.1242 15.8085 11.9663 15.8085V16.8085C11.8949 16.8085 11.842 16.7916 11.8164 16.7819C11.7883 16.7714 11.769 16.7603 11.7595 16.7544C11.741 16.7429 11.7329 16.7347 11.7314 16.7332C11.7299 16.7317 11.7217 16.7237 11.7103 16.7052C11.7044 16.6956 11.6933 16.6764 11.6827 16.6482C11.673 16.6226 11.6562 16.5697 11.6562 16.4984H12.6562ZM11.9663 15.8085H10.7004V16.8085H11.9663V15.8085ZM10.827 17.2515H11.903V16.2515H10.827V17.2515ZM11.4257 16.9007L11.7422 17.9133L12.6967 17.6151L12.3802 16.6024L11.4257 16.9007ZM11.7194 17.7642C11.7194 18.2275 12.1494 18.3908 12.4093 18.3908V17.3908C12.426 17.3908 12.4919 17.395 12.5669 17.4512C12.6451 17.5099 12.7194 17.6194 12.7194 17.7642H11.7194ZM12.3113 18.3811C12.5534 18.4295 12.7509 18.5256 13.0085 18.6545L13.4557 17.7601C13.2071 17.6357 12.8981 17.4787 12.5074 17.4005L12.3113 18.3811ZM12.8786 18.5608C12.9647 18.647 13.1161 18.7547 13.3271 18.7547C13.5381 18.7547 13.6894 18.647 13.7756 18.5608L13.0685 17.8537C13.0913 17.8309 13.1793 17.7547 13.3271 17.7547C13.4748 17.7547 13.5628 17.8309 13.5857 17.8537L12.8786 18.5608ZM13.6573 18.6484L14.6067 18.1421L14.1361 17.2597L13.1867 17.7661L13.6573 18.6484ZM14.0179 18.0545L14.7774 18.814L15.4845 18.1069L14.725 17.3474L14.0179 18.0545ZM14.6898 18.2251L14.1834 19.1745L15.0658 19.6451L15.5721 18.6957L14.6898 18.2251ZM14.271 19.0563C14.171 19.1563 14.0771 19.3084 14.0771 19.5127C14.0771 19.6744 14.1388 19.8094 14.1774 19.8866L15.0718 19.4394C15.0625 19.4209 15.0625 19.4182 15.0652 19.4266C15.068 19.4352 15.0771 19.4664 15.0771 19.5127C15.0771 19.5636 15.066 19.6189 15.0414 19.6712C15.0184 19.72 14.9912 19.7504 14.9781 19.7634L14.271 19.0563ZM14.1774 19.8866C14.3062 20.1443 14.4023 20.3417 14.4508 20.5839L15.4313 20.3878C15.3532 19.997 15.1961 19.6881 15.0718 19.4394L14.1774 19.8866ZM14.4411 20.4858C14.4411 20.6801 14.5331 20.8325 14.6271 20.9264C14.721 21.0203 14.8734 21.1124 15.0676 21.1124V20.1124C15.1986 20.1124 15.2877 20.1729 15.3342 20.2193C15.3806 20.2657 15.4411 20.3548 15.4411 20.4858H14.4411ZM14.9185 21.0896L15.9312 21.4061L16.2295 20.4516L15.2168 20.1352L14.9185 21.0896ZM15.5803 20.9289V21.9416H16.5803V20.9289H15.5803ZM15.9312 21.4643L14.9185 21.7808L15.2168 22.7353L16.2295 22.4188L15.9312 21.4643ZM15.0676 21.758C14.8734 21.758 14.721 21.8501 14.6271 21.944C14.5331 22.0379 14.4411 22.1904 14.4411 22.3846H15.4411C15.4411 22.5156 15.3806 22.6047 15.3342 22.6511C15.2877 22.6976 15.1986 22.758 15.0676 22.758V21.758ZM14.4508 22.2866C14.4023 22.5287 14.3062 22.7262 14.1774 22.9838L15.0718 23.431C15.1961 23.1823 15.3532 22.8734 15.4313 22.4827L14.4508 22.2866ZM14.271 22.8539C14.1849 22.94 14.0771 23.0913 14.0771 23.3024C14.0771 23.5134 14.1849 23.6647 14.271 23.7509L14.9781 23.0437C15.001 23.0666 15.0771 23.1546 15.0771 23.3024C15.0771 23.4501 15.001 23.5381 14.9781 23.561L14.271 22.8539ZM14.1834 23.6326L14.6898 24.582L15.5721 24.1114L15.0658 23.162L14.1834 23.6326ZM14.7774 23.9931L14.0812 24.6894L14.7883 25.3965L15.4845 24.7003L14.7774 23.9931ZM14.67 24.6018L13.7206 24.0954L13.25 24.9778L14.1994 25.4841L14.67 24.6018ZM13.8389 24.183C13.7594 24.1036 13.6549 24.0419 13.53 24.0184C13.4147 23.9968 13.3194 24.0152 13.2691 24.0278C13.2368 24.0359 13.1709 24.0576 13.1938 24.0504C13.1939 24.0504 13.2041 24.0472 13.2196 24.044C13.2357 24.0407 13.262 24.0366 13.2954 24.0366V25.0366C13.3895 25.0366 13.4645 25.0135 13.492 25.0049C13.5003 25.0024 13.5075 25 13.5123 24.9984C13.5186 24.9963 13.5195 24.9959 13.5225 24.995C13.5272 24.9934 13.5215 24.9955 13.5116 24.9979C13.493 25.0026 13.4294 25.017 13.3457 25.0013C13.3028 24.9933 13.2607 24.9785 13.2217 24.9571C13.1832 24.9361 13.1535 24.9119 13.1318 24.8901L13.8389 24.183ZM13.0718 24.0894C12.8142 24.2182 12.6167 24.3143 12.3746 24.3628L12.5707 25.3433C12.9614 25.2652 13.2703 25.1081 13.519 24.9838L13.0718 24.0894ZM12.4726 24.353C12.2778 24.353 12.1381 24.4473 12.0777 24.4926C12.012 24.5418 11.9543 24.601 11.9292 24.6261L12.6363 25.3332C12.6532 25.3163 12.6633 25.3063 12.6722 25.2979C12.6809 25.2897 12.682 25.2894 12.6777 25.2926C12.6739 25.2954 12.656 25.3087 12.6256 25.322C12.594 25.3358 12.5412 25.353 12.4726 25.353V24.353ZM11.8084 24.8215L11.4286 25.9608L12.3773 26.277L12.7571 25.1377L11.8084 24.8215ZM11.903 25.6189H10.8903V26.6189H11.903V25.6189ZM11.3675 25.9698L11.0511 24.9571L10.0966 25.2554L10.413 26.268L11.3675 25.9698ZM11.0738 25.1062C11.0738 24.6429 10.6439 24.4796 10.3839 24.4796V25.4796C10.3672 25.4796 10.3014 25.4755 10.2264 25.4192C10.1482 25.3606 10.0738 25.251 10.0738 25.1062H11.0738ZM10.482 24.4893C10.2398 24.4409 10.0424 24.3448 9.78474 24.216L9.33753 25.1104C9.58621 25.2347 9.89512 25.3918 10.2859 25.4699L10.482 24.4893ZM9.91468 24.3096C9.82854 24.2235 9.67722 24.1157 9.46619 24.1157C9.25517 24.1157 9.10385 24.2235 9.0177 24.3096L9.72481 25.0167C9.70195 25.0396 9.61392 25.1157 9.46619 25.1157C9.31846 25.1157 9.23044 25.0396 9.20758 25.0167L9.91468 24.3096ZM9.13596 24.222L8.18656 24.7283L8.65715 25.6107L9.60655 25.1043L9.13596 24.222ZM8.79043 24.8317L8.09421 24.0721L7.35705 24.7479L8.05328 25.5074L8.79043 24.8317ZM8.16681 24.6453L8.67315 23.6959L7.7908 23.2253L7.28445 24.1747L8.16681 24.6453ZM8.58553 23.8142C8.67168 23.728 8.77945 23.5767 8.77945 23.3657C8.77945 23.1546 8.67168 23.0033 8.58553 22.9172L7.87842 23.6243C7.85557 23.6014 7.77945 23.5134 7.77945 23.3657C7.77945 23.2179 7.85557 23.1299 7.87843 23.107L8.58553 23.8142ZM8.67919 23.0471C8.55036 22.7895 8.45423 22.592 8.4058 22.3498L7.42522 22.546C7.50337 22.9367 7.66042 23.2456 7.78476 23.4943L8.67919 23.0471ZM8.41551 22.4479C8.41551 22.2536 8.32341 22.1012 8.22951 22.0073C8.1356 21.9134 7.98319 21.8213 7.78892 21.8213V22.8213C7.65795 22.8213 7.56883 22.7609 7.5224 22.7144C7.47596 22.668 7.41551 22.5789 7.41551 22.4479H8.41551ZM7.93806 21.8441L6.92537 21.5276L6.6271 22.4821L7.63979 22.7986L7.93806 21.8441ZM7.27623 22.0049V20.9922H6.27623V22.0049H7.27623ZM6.92537 21.4694L7.93806 21.1529L7.63979 20.1985L6.6271 20.5149L6.92537 21.4694ZM7.78892 21.1757C7.98318 21.1757 8.1356 21.0836 8.2295 20.9897C8.32341 20.8958 8.41551 20.7434 8.41551 20.5491H7.41551C7.41551 20.4181 7.47596 20.329 7.5224 20.2826C7.56884 20.2361 7.65796 20.1757 7.78892 20.1757V21.1757ZM8.4058 20.6472C8.45423 20.405 8.55036 20.2076 8.67919 19.9499L7.78476 19.5027C7.66042 19.7514 7.50337 20.0603 7.42522 20.4511L8.4058 20.6472ZM8.58553 20.0799C8.68553 19.9799 8.77945 19.8277 8.77945 19.6234C8.77945 19.4618 8.71778 19.3267 8.67919 19.2495L7.78476 19.6967C7.79403 19.7153 7.79404 19.7179 7.79137 19.7096C7.7886 19.7009 7.77945 19.6698 7.77945 19.6234C7.77945 19.5725 7.79054 19.5173 7.81517 19.4649C7.83815 19.4161 7.8654 19.3858 7.87843 19.3727L8.58553 20.0799ZM8.67315 19.2378L8.16681 18.2884L7.28445 18.759L7.7908 19.7084L8.67315 19.2378ZM8.07918 18.8773L8.8387 18.1178L8.1316 17.4107L7.37208 18.1702L8.07918 18.8773ZM8.24986 18.2054L9.19925 18.7117L9.66984 17.8294L8.72044 17.323L8.24986 18.2054ZM9.081 18.6241C9.16714 18.7103 9.31846 18.818 9.52949 18.818C9.74051 18.818 9.89183 18.7103 9.97798 18.6241L9.27087 17.917C9.29373 17.8941 9.38176 17.818 9.52949 17.818C9.67722 17.818 9.76524 17.8941 9.7881 17.917L9.081 18.6241ZM9.84803 18.7178C10.1057 18.5889 10.3031 18.4928 10.5453 18.4444L10.3492 17.4638C9.95842 17.542 9.64951 17.699 9.40082 17.8233L9.84803 18.7178ZM10.4472 18.4541C10.642 18.4541 10.7818 18.3598 10.8422 18.3145C10.9078 18.2653 10.9656 18.2062 10.9907 18.181L10.2836 17.474C10.2667 17.4909 10.2566 17.5009 10.2477 17.5092C10.2389 17.5174 10.2378 17.5178 10.2422 17.5145C10.246 17.5117 10.2639 17.4984 10.2943 17.4851C10.3258 17.4713 10.3787 17.4541 10.4472 17.4541V18.4541ZM11.1295 17.9144L11.3194 16.8384L10.3346 16.6646L10.1447 17.7406L11.1295 17.9144ZM11.3966 19.163C10.1711 19.163 9.12442 20.2096 9.12442 21.4352H10.1244C10.1244 20.7619 10.7234 20.163 11.3966 20.163V19.163ZM9.12442 21.4352C9.12442 22.6607 10.1711 23.7074 11.3966 23.7074V22.7074C10.7234 22.7074 10.1244 22.1084 10.1244 21.4352H9.12442ZM11.3966 23.7074C12.6222 23.7074 13.6688 22.6607 13.6688 21.4352H12.6688C12.6688 22.1084 12.0699 22.7074 11.3966 22.7074V23.7074ZM13.6688 21.4352C13.6688 20.2096 12.6222 19.163 11.3966 19.163V20.163C12.0699 20.163 12.6688 20.7619 12.6688 21.4352H13.6688ZM11.3966 20.6061C11.88 20.6061 12.2258 20.9518 12.2258 21.4352H13.2258C13.2258 20.3996 12.4323 19.6061 11.3966 19.6061V20.6061ZM12.2258 21.4352C12.2258 21.9186 11.88 22.2644 11.3966 22.2644V23.2644C12.4323 23.2644 13.2258 22.4709 13.2258 21.4352H12.2258ZM11.3966 22.2644C10.9133 22.2644 10.5675 21.9186 10.5675 21.4352H9.56749C9.56749 22.4709 10.361 23.2644 11.3966 23.2644V22.2644ZM10.5675 21.4352C10.5675 20.9518 10.9133 20.6061 11.3966 20.6061V19.6061C10.361 19.6061 9.56749 20.3996 9.56749 21.4352H10.5675Z" fill="#FF5900"/>
<ellipse cx="11.4658" cy="21.412" rx="1.58233" ry="1.58233" stroke="#2C007D"/>
<ellipse cx="17.7892" cy="10.9286" rx="1.96209" ry="1.96209" stroke="#2C007D"/>
<path d="M6.628 3.6146L7.87974 1.49285C7.93935 1.39178 7.9402 1.26651 7.88197 1.16463C7.82373 1.06276 7.71536 0.999925 7.59802 1H3.51598C3.39855 1 3.29016 1.06304 3.23204 1.16508C3.17392 1.26712 3.17502 1.3925 3.23491 1.49351L4.49449 3.6146" stroke="#20336B"/>
<path d="M6.86333 7.5365C7.40259 7.95418 9.47793 10.1374 9.47793 12.5951C9.47793 14.5809 7.33331 15.3803 5.34752 15.3803C3.36173 15.3803 1.30731 14.5809 1.30731 12.5951C1.30731 10.0393 3.4284 7.8594 3.92191 7.5365" stroke="#20336B"/>
<path d="M0 2.96097H1.3073C1.39553 2.95556 1.48183 2.98825 1.54434 3.05075C1.60684 3.11326 1.63953 3.19957 1.63412 3.28779V7.20969C1.63953 7.29791 1.60684 7.38422 1.54434 7.44673C1.48183 7.50923 1.39553 7.54192 1.3073 7.53651H0" stroke="#20336B"/>
<path d="M3.68332 2.24915L2.94142 3.28779C2.7814 3.48656 2.5428 3.60586 2.28777 3.61462H1.63412" stroke="#20336B"/>
<path d="M1.63412 6.55599C2.91855 7.19787 3.47676 7.53646 4.24872 7.53646H6.86332C7.51697 7.53646 7.63724 7.50312 7.84379 6.88281C8.17062 5.90234 8.49744 4.26821 8.49744 4.26821C8.49744 3.94139 8.17062 3.61456 7.51697 3.61456H4.49449" stroke="#20336B"/>
<path d="M3.60731 11.3249H7.17267" stroke="#00BAF2" stroke-linecap="square"/>
<path d="M3.60731 12.1568H7.17267" stroke="#00BAF2" stroke-linecap="square"/>
<path d="M6.45963 13.4048H6.10309L4.67695 10.0771H4.29813V13.4048" stroke="#00BAF2" stroke-linecap="square"/>
<path d="M6.48188 13.4048L6.51053 10.196" stroke="#00BAF2" stroke-linecap="square"/>
</svg>
