<svg width="66" height="51" viewBox="0 0 66 51" fill="none" xmlns="http://www.w3.org/2000/svg">
<path d="M39.0895 12.3434H25.412V36.9164H39.0895V12.3434Z" fill="#FF5A00"/>
<path d="M26.3225 24.63C26.3225 19.6375 28.6695 15.2065 32.271 12.3435C29.6205 10.2595 26.277 9 22.63 9C13.9905 9 7 15.9905 7 24.63C7 33.2695 13.9905 40.26 22.63 40.26C26.277 40.26 29.6205 39.0005 32.271 36.9165C28.6645 34.094 26.3225 29.6225 26.3225 24.63Z" fill="#EB001B"/>
<path d="M57.5421 24.63C57.5421 33.2695 50.5516 40.26 41.9121 40.26C38.2651 40.26 34.9216 39.0005 32.2711 36.9165C35.9181 34.0485 38.2196 29.6225 38.2196 24.63C38.2196 19.6375 35.8725 15.2065 32.2711 12.3435C34.9165 10.2595 38.26 9 41.907 9C50.5516 9 57.5421 16.036 57.5421 24.63Z" fill="#F79E1B"/>
</svg>
