<svg width="64" height="51" viewBox="0 0 64 51" fill="none" xmlns="http://www.w3.org/2000/svg">
<path fill-rule="evenodd" clip-rule="evenodd" d="M10.5214 11C9.20164 11 8.01493 11.9143 8.00062 13.234C8.00021 13.2722 8 13.3105 8 13.3488V29.2755C8 35.7507 13.2492 41 19.7245 41C26.1998 41 31.449 35.7507 31.449 29.2755V13.3488C31.449 13.3331 31.449 13.3174 31.4489 13.3017C31.4428 11.9423 30.2193 11 28.8599 11H25.5277C24.4216 11 23.6735 12.4348 23.6735 13.5409V13.5409V27.9286C23.6735 30.1772 21.8506 32 19.602 32C17.3534 32 15.5306 30.1772 15.5306 27.9286V13.5409V13.5409C15.5306 12.4348 14.7824 11 13.6764 11H10.5214Z" fill="#00AFEF"/>
<path fill-rule="evenodd" clip-rule="evenodd" d="M35.9956 11C34.2961 11 32.9184 12.3777 32.9184 14.0772V24.6281C32.9184 28.598 36.1367 31.8163 40.1067 31.8163H46.1429C51.8912 31.8163 56.5511 27.1564 56.5511 21.4082C56.5511 15.6599 51.8912 11 46.1429 11H35.9956ZM45.4694 16.9388H40.449V26.1224H45.4694C48.0054 26.1224 50.0612 24.0666 50.0612 21.5306C50.0612 18.9946 48.0054 16.9388 45.4694 16.9388Z" fill="#F58634"/>
<path d="M32.949 34.7914V23.4592L40.3878 29V39.7086C40.3878 40.4049 39.8233 40.9694 39.1269 40.9694C35.7149 40.9694 32.949 38.2034 32.949 34.7914Z" fill="#F58634"/>
</svg>
