<svg width="118" height="51" viewBox="0 0 118 51" fill="none" xmlns="http://www.w3.org/2000/svg">
<path d="M25 42C34.3888 42 42 34.3888 42 25C42 15.6112 34.3888 8 25 8C15.6112 8 8 15.6112 8 25C8 34.3888 15.6112 42 25 42Z" fill="#EE312A"/>
<path d="M25 32.2527C21.1996 23.638 18.4126 15.5907 18.4126 15.5907H12.586C12.586 15.5907 16.1324 25.9199 22.7197 38.8372H27.2802C33.8675 25.9199 37.4139 15.5907 37.4139 15.5907H31.5873C31.5873 15.5907 28.8003 23.638 25 32.2527Z" fill="white"/>
<path d="M106.223 31.1738H94.8684C94.8684 31.1738 95.1206 34.9892 100.167 34.9892C102.69 34.9892 105.213 34.2255 105.213 34.2255L105.718 38.2944C105.718 38.2944 103.195 39.3116 99.6623 39.3116C94.6161 39.3116 90.0744 36.7685 90.0744 29.648C90.0744 24.0533 93.6067 20.493 98.6531 20.493C106.223 20.493 106.727 28.1222 106.223 31.1738ZM98.4008 24.0533C95.1206 24.0533 94.8684 27.6135 94.8684 27.6135H101.933C101.933 27.6135 101.681 24.0533 98.4008 24.0533Z" fill="#00425F"/>
<path d="M67.02 25.1776L67.7767 21.1302C67.7767 21.1302 61.9321 19.3518 57.1814 22.648V38.8372H62.2271L62.2267 25.6835C64.2447 24.1658 67.02 25.1776 67.02 25.1776Z" fill="#00425F"/>
<path d="M53.2459 31.1738H41.8918C41.8918 31.1738 42.144 34.9892 47.1904 34.9892C49.7134 34.9892 52.2365 34.2255 52.2365 34.2255L52.7412 38.2944C52.7412 38.2944 50.2181 39.3116 46.6857 39.3116C41.6393 39.3116 37.0977 36.7685 37.0977 29.648C37.0977 24.0533 40.6301 20.493 45.6765 20.493C53.2459 20.493 53.7504 28.1222 53.2459 31.1738ZM45.424 24.0533C42.144 24.0533 41.8918 27.6135 41.8918 27.6135H48.9565C48.9565 27.6135 48.7042 24.0533 45.424 24.0533Z" fill="#00425F"/>
<path d="M79.321 32.7656C77.7479 28.9387 76.4788 24.9938 75.5255 20.9674L70.4651 20.9681C70.4651 20.9681 72.9954 30.74 77.2972 38.8372H81.3447C85.6465 30.74 88.1768 20.9699 88.1768 20.9699H83.1165C82.1629 24.9954 80.8938 28.9395 79.321 32.7656Z" fill="#00425F"/>
</svg>
