<svg width="167" height="51" viewBox="0 0 167 51" fill="none" xmlns="http://www.w3.org/2000/svg">
<path fill-rule="evenodd" clip-rule="evenodd" d="M58.4864 22.9072L58.9876 20.0532C58.9876 20.0532 55.1274 18.7995 51.9857 21.1246V32.5417H55.322V23.2658C56.6515 22.1944 58.4864 22.9072 58.4864 22.9072Z" fill="#03435F"/>
<mask id="mask0_1372_954" style="mask-type:luminance" maskUnits="userSpaceOnUse" x="51" y="19" width="8" height="14">
<path d="M51.9856 21.1244C53.4972 20.006 55.1753 19.7156 56.5096 19.7159C57.9485 19.7159 58.9878 20.0533 58.9878 20.0533L58.4863 22.9073C58.4863 22.9073 56.6514 22.1945 55.3219 23.2656V32.5415H51.9856V21.1244Z" fill="white"/>
</mask>
<g mask="url(#mask0_1372_954)">
<path fill-rule="evenodd" clip-rule="evenodd" d="M-151.106 67.9272L318.731 67.9272L318.731 -597.676H-151.106L-151.106 67.9272Z" fill="#03435F"/>
</g>
<mask id="mask1_1372_954" style="mask-type:luminance" maskUnits="userSpaceOnUse" x="51" y="19" width="8" height="14">
<path d="M51.9856 21.1244C53.4972 20.006 55.1751 19.7159 56.5096 19.7159C57.9485 19.7159 58.9878 20.0533 58.9878 20.0533L58.4863 22.9073C58.4863 22.9073 56.6514 22.1945 55.3219 23.2656V32.5415H51.9856V21.1244Z" fill="white"/>
</mask>
<g mask="url(#mask1_1372_954)">
<path fill-rule="evenodd" clip-rule="evenodd" d="M46.3923 38.135H64.581V14.1225H46.3923V38.135Z" fill="#03435F"/>
</g>
<path fill-rule="evenodd" clip-rule="evenodd" d="M29.7233 16.7983L33.0581 16.17V19.8832H36.358V22.8527H33.0581V27.281C33.0581 28.0354 33.1801 28.6343 33.4295 29.0771C33.6761 29.5268 34.1706 29.7496 34.9133 29.7496C35.2764 29.7496 35.6411 29.7148 36.0258 29.6409C36.3996 29.5658 36.7482 29.4693 37.0619 29.3429L37.5337 32.1244C37.1301 32.2976 36.6839 32.4479 36.192 32.5753C35.6986 32.7014 35.0928 32.7672 34.3769 32.7672C33.467 32.7672 32.715 32.6346 32.117 32.3714C31.5221 32.1083 31.0437 31.739 30.6871 31.2678C30.3305 30.8008 30.0797 30.2276 29.939 29.5564C29.7956 28.8865 29.7233 28.1467 29.7233 27.3307V16.7983Z" fill="#03435F"/>
<mask id="mask2_1372_954" style="mask-type:luminance" maskUnits="userSpaceOnUse" x="29" y="16" width="9" height="17">
<path d="M29.7235 16.7983L33.0583 16.17V19.8832H36.3582V22.8526H33.0583V27.281C33.0583 28.0356 33.1803 28.6342 33.4295 29.0771C33.6761 29.527 34.1706 29.7496 34.9133 29.7496C35.2764 29.7496 35.6409 29.7147 36.0258 29.6409C36.3996 29.5657 36.7484 29.4692 37.0621 29.3431L37.5337 32.1243C37.1303 32.2977 36.6839 32.4481 36.192 32.5755C35.6986 32.7016 35.0928 32.7672 34.3769 32.7672C33.4668 32.7672 32.715 32.6345 32.1172 32.3714C31.5221 32.1082 31.0435 31.739 30.6871 31.268C30.3305 30.8007 30.0799 30.2276 29.9392 29.5564C29.7956 28.8865 29.7235 28.1469 29.7235 27.3307V16.7983Z" fill="white"/>
</mask>
<g mask="url(#mask2_1372_954)">
<path fill-rule="evenodd" clip-rule="evenodd" d="M-151.106 67.9272L318.731 67.9272L318.731 -597.676H-151.106L-151.106 67.9272Z" fill="#03435F"/>
</g>
<mask id="mask3_1372_954" style="mask-type:luminance" maskUnits="userSpaceOnUse" x="29" y="16" width="9" height="17">
<path d="M29.7235 16.7983L33.0583 16.17V19.8832H36.3582V22.8526H33.0583V27.281C33.0583 28.0356 33.1803 28.6342 33.4295 29.0771C33.6761 29.527 34.1706 29.7496 34.9133 29.7496C35.2764 29.7496 35.6409 29.7147 36.0258 29.6409C36.3996 29.5657 36.7484 29.4692 37.0621 29.3431L37.5337 32.1243C37.1303 32.2977 36.6839 32.4481 36.192 32.5755C35.6986 32.7016 35.0928 32.7672 34.3769 32.7672C33.4668 32.7672 32.715 32.6345 32.1172 32.3714C31.5221 32.1082 31.0435 31.739 30.6871 31.268C30.3305 30.8007 30.0799 30.2276 29.9392 29.5564C29.7956 28.8865 29.7235 28.1469 29.7235 27.3307V16.7983Z" fill="white"/>
</mask>
<g mask="url(#mask3_1372_954)">
<path fill-rule="evenodd" clip-rule="evenodd" d="M24.1299 38.3606H43.1268V10.5765H24.1299V38.3606Z" fill="#03435F"/>
</g>
<path fill-rule="evenodd" clip-rule="evenodd" d="M63.9271 29.9849C64.5371 29.9849 64.9686 29.9175 65.2248 29.7914C65.4793 29.664 65.6026 29.4143 65.6026 29.0492C65.6026 28.7606 65.4418 28.5096 65.112 28.2961C64.7824 28.0787 64.2863 27.8371 63.6136 27.5618C63.0921 27.3537 62.6176 27.1391 62.19 26.9176C61.7678 26.6921 61.406 26.429 61.1071 26.1161C60.8093 25.8048 60.5788 25.4315 60.4126 24.9966C60.2464 24.5696 60.1675 24.0529 60.1675 23.4434C60.1675 22.2633 60.5788 21.3277 61.3979 20.6417C62.2181 19.9585 63.3415 19.6095 64.7756 19.6095C65.4928 19.6095 66.179 19.6779 66.8358 19.8163C67.4913 19.9505 68.0154 20.1036 68.3999 20.2578L67.8196 23.0365C67.4309 22.8929 67.0087 22.7668 66.5543 22.6568C66.0999 22.5441 65.588 22.4849 65.0222 22.4849C63.9781 22.4849 63.4553 22.799 63.4553 23.4205C63.4553 23.5641 63.4781 23.6917 63.5236 23.8031C63.5692 23.9159 63.6578 24.0233 63.7892 24.1266C63.9271 24.2287 64.1068 24.344 64.3399 24.4623C64.5717 24.5871 64.8667 24.7158 65.2248 24.8622C65.9524 25.1522 66.5569 25.4341 67.0342 25.7188C67.5126 26.0033 67.888 26.3028 68.1655 26.6355C68.4415 26.9605 68.6374 27.3204 68.7472 27.7201C68.8572 28.119 68.9147 28.5793 68.9147 29.1043C68.9147 30.3487 68.4777 31.2895 67.6078 31.9259C66.7338 32.5596 65.498 32.8789 63.9016 32.8789C62.8588 32.8789 61.9902 32.7863 61.2973 32.5918C60.6017 32.4025 60.1218 32.2389 59.8538 32.1126L60.4126 29.2156C60.977 29.4546 61.5641 29.6398 62.1567 29.7796C62.7571 29.9165 63.3415 29.9849 63.9271 29.9849Z" fill="#03435F"/>
<mask id="mask4_1372_954" style="mask-type:luminance" maskUnits="userSpaceOnUse" x="59" y="19" width="10" height="14">
<path d="M61.3978 20.6419C62.2182 19.9585 63.3414 19.6095 64.7755 19.6095C65.4929 19.6095 66.1791 19.6779 66.8359 19.8163C67.4912 19.9505 68.0153 20.1034 68.4 20.2578L67.8197 23.0365C67.4308 22.8929 67.0089 22.7668 66.5542 22.6568C66.1 22.5439 65.5879 22.4851 65.0223 22.4851C63.978 22.4851 63.4554 22.7988 63.4554 23.4205C63.4554 23.5641 63.478 23.6917 63.5236 23.8031C63.5693 23.9159 63.658 24.0233 63.7893 24.1266C63.927 24.2287 64.107 24.344 64.34 24.4623C64.5718 24.5869 64.8666 24.716 65.2247 24.8622C65.9525 25.1522 66.5571 25.4341 67.0342 25.7188C67.5127 26.0033 67.8881 26.3026 68.1656 26.6355C68.4416 26.9605 68.6373 27.3202 68.7473 27.7201C68.8573 28.119 68.9146 28.5793 68.9146 29.1043C68.9146 30.3486 68.4776 31.2897 67.6079 31.9259C66.734 32.5596 65.4981 32.8789 63.9017 32.8789C62.8589 32.8789 61.9904 32.7863 61.2974 32.5918C60.6016 32.4025 60.1219 32.2389 59.8537 32.1126L60.4127 29.2156C60.9772 29.4548 61.564 29.6398 62.1566 29.7796C62.757 29.9162 63.3414 29.9849 63.927 29.9849C64.537 29.9849 64.9687 29.9177 65.2247 29.7914C65.4794 29.664 65.6027 29.4143 65.6027 29.0492C65.6027 28.7606 65.4419 28.5096 65.1121 28.2961C64.7823 28.0787 64.2862 27.8371 63.6135 27.5618C63.092 27.3537 62.6178 27.1391 62.1899 26.9176C61.768 26.6921 61.4059 26.429 61.1072 26.1161C60.8094 25.8046 60.5789 25.4314 60.4127 24.9966C60.2465 24.5694 60.1674 24.0529 60.1674 23.4434C60.1674 22.2635 60.5789 21.3279 61.3978 20.6419Z" fill="white"/>
</mask>
<g mask="url(#mask4_1372_954)">
<path fill-rule="evenodd" clip-rule="evenodd" d="M-151.106 67.9272L318.731 67.9272L318.731 -597.676H-151.106L-151.106 67.9272Z" fill="#03435F"/>
</g>
<mask id="mask5_1372_954" style="mask-type:luminance" maskUnits="userSpaceOnUse" x="59" y="19" width="10" height="14">
<path d="M61.3978 20.6419C62.2182 19.9585 63.3414 19.6095 64.7755 19.6095C65.4929 19.6095 66.1791 19.6779 66.8359 19.8163C67.4912 19.9505 68.0153 20.1034 68.4 20.2578L67.8197 23.0365C67.4308 22.8929 67.0089 22.7668 66.5542 22.6568C66.1 22.5439 65.5879 22.4851 65.0223 22.4851C63.978 22.4851 63.4554 22.7988 63.4554 23.4205C63.4554 23.5641 63.478 23.6917 63.5236 23.8031C63.5693 23.9159 63.658 24.0233 63.7893 24.1266C63.927 24.2287 64.107 24.344 64.34 24.4623C64.5718 24.5869 64.8666 24.716 65.2247 24.8622C65.9525 25.1522 66.5571 25.4341 67.0342 25.7188C67.5127 26.0033 67.8881 26.3026 68.1656 26.6355C68.4416 26.9605 68.6373 27.3202 68.7473 27.7201C68.8573 28.119 68.9146 28.5793 68.9146 29.1043C68.9146 30.3486 68.4776 31.2897 67.6079 31.9259C66.734 32.5596 65.4981 32.8789 63.9017 32.8789C62.8589 32.8789 61.9904 32.7863 61.2974 32.5918C60.6016 32.4025 60.1219 32.2389 59.8537 32.1126L60.4127 29.2156C60.9772 29.4548 61.564 29.6398 62.1566 29.7796C62.757 29.9162 63.3414 29.9849 63.927 29.9849C64.537 29.9849 64.9687 29.9177 65.2247 29.7914C65.4794 29.664 65.6027 29.4143 65.6027 29.0492C65.6027 28.7606 65.4419 28.5096 65.1121 28.2961C64.7823 28.0787 64.2862 27.8371 63.6135 27.5618C63.092 27.3537 62.6178 27.1391 62.1899 26.9176C61.768 26.6921 61.4059 26.429 61.1072 26.1161C60.8094 25.8046 60.5789 25.4314 60.4127 24.9966C60.2465 24.5694 60.1674 24.0529 60.1674 23.4434C60.1674 22.2635 60.5789 21.3279 61.3978 20.6419Z" fill="white"/>
</mask>
<g mask="url(#mask5_1372_954)">
<path fill-rule="evenodd" clip-rule="evenodd" d="M54.2606 38.4724H74.5083V14.0162H54.2606V38.4724Z" fill="#03435F"/>
</g>
<path fill-rule="evenodd" clip-rule="evenodd" d="M79.1929 25.3114C78.894 26.525 78.579 27.7332 78.2426 28.9279C77.9074 30.1267 77.5507 31.3322 77.1824 32.5456H74.5861C74.3166 31.8744 74.0232 31.0771 73.7095 30.1521C73.3929 29.2232 73.0701 28.2151 72.7309 27.1184C72.3956 26.0255 72.0528 24.8685 71.7014 23.6442C71.3489 22.4254 71.0071 21.193 70.6801 19.9459H74.1946C74.3112 20.519 74.4438 21.1488 74.5872 21.8265C74.7294 22.5058 74.8795 23.2053 75.0364 23.9248C75.1932 24.6418 75.3607 25.3624 75.5322 26.09C75.7052 26.8176 75.8823 27.5143 76.0615 28.1843C76.2561 27.4822 76.4465 26.7653 76.6327 26.0309C76.8164 25.2955 76.9974 24.5731 77.1702 23.8632C77.3405 23.1543 77.5081 22.4657 77.6607 21.8026C77.8163 21.1405 77.9544 20.519 78.0764 19.9459H80.4903C80.6136 20.519 80.7435 21.1405 80.8949 21.8026C81.0424 22.4657 81.1994 23.1543 81.3656 23.8632C81.5264 24.5731 81.702 25.2955 81.8776 26.0309C82.0584 26.7653 82.2436 27.4822 82.4353 28.1843C82.6161 27.5143 82.7958 26.8176 82.9766 26.09C83.1576 25.3624 83.3278 24.6418 83.4833 23.9248C83.6389 23.2053 83.789 22.5058 83.9338 21.8265C84.0772 21.1488 84.2072 20.519 84.3264 19.9459H87.7954C87.4658 21.193 87.1266 22.4254 86.7741 23.6442C86.4188 24.8685 86.0796 26.0255 85.7406 27.1184C85.4067 28.2151 85.0771 29.2232 84.7566 30.1521C84.4338 31.0771 84.136 31.8744 83.8709 32.5456H81.2746C80.899 31.3322 80.5346 30.1267 80.1753 28.9279C79.8174 27.7332 79.493 26.525 79.1929 25.3114Z" fill="#03435F"/>
<mask id="mask6_1372_954" style="mask-type:luminance" maskUnits="userSpaceOnUse" x="70" y="19" width="18" height="14">
<path d="M84.3265 19.9459H87.7955C87.4659 21.193 87.1267 22.4254 86.774 23.644C86.4189 24.8685 86.0797 26.0257 85.7405 27.1184C85.4068 28.2151 85.0772 29.2233 84.7565 30.1522C84.4337 31.0771 84.1361 31.8742 83.8708 32.5456H81.2745C80.8991 31.3322 80.5347 30.1265 80.1755 28.9277C79.8175 27.7332 79.4932 26.525 79.193 25.3114C78.8939 26.525 78.5789 27.7332 78.2427 28.9277C77.9075 30.1265 77.5509 31.3322 77.1823 32.5456H74.586C74.3165 31.8742 74.0231 31.0771 73.7094 30.1522C73.3931 29.2233 73.07 28.2151 72.731 27.1184C72.3958 26.0257 72.0527 24.8685 71.7015 23.644C71.349 22.4254 71.0072 21.193 70.6802 19.9459H74.1945C74.3113 20.519 74.444 21.1486 74.5873 21.8266C74.7296 22.5058 74.8794 23.2053 75.0365 23.9246C75.1931 24.6415 75.3609 25.3624 75.5323 26.09C75.7053 26.8176 75.8824 27.5143 76.0617 28.1844C76.256 27.4822 76.4464 26.7651 76.6326 26.031C76.8163 25.2955 76.9975 24.5731 77.1703 23.8632C77.3404 23.1541 77.508 22.4655 77.6609 21.8026C77.8164 21.1405 77.9545 20.519 78.0763 19.9459H80.4905C80.6135 20.519 80.7436 21.1405 80.895 21.8026C81.0425 22.4655 81.1996 23.1541 81.3655 23.8632C81.5265 24.5731 81.7019 25.2955 81.8777 26.031C82.0585 26.7651 82.2437 27.4822 82.4352 28.1844C82.6162 27.5143 82.7957 26.8176 82.9767 26.09C83.1578 25.3624 83.3279 24.6415 83.4834 23.9246C83.639 23.2053 83.7891 22.5058 83.9337 21.8266C84.0773 21.1486 84.2073 20.519 84.3265 19.9459Z" fill="white"/>
</mask>
<g mask="url(#mask6_1372_954)">
<path fill-rule="evenodd" clip-rule="evenodd" d="M-151.106 67.9272L318.731 67.9272L318.731 -597.676H-151.106L-151.106 67.9272Z" fill="#03435F"/>
</g>
<mask id="mask7_1372_954" style="mask-type:luminance" maskUnits="userSpaceOnUse" x="70" y="19" width="18" height="14">
<path d="M84.3265 19.9459H87.7955C87.4659 21.193 87.1267 22.4254 86.774 23.644C86.4189 24.8685 86.0797 26.0257 85.7405 27.1184C85.4068 28.2151 85.0772 29.2233 84.7565 30.1522C84.4337 31.0771 84.1361 31.8742 83.8708 32.5456H81.2745C80.8991 31.3322 80.5347 30.1265 80.1755 28.9277C79.8175 27.7332 79.4932 26.525 79.193 25.3114C78.8939 26.525 78.5789 27.7332 78.2427 28.9277C77.9075 30.1265 77.5509 31.3322 77.1823 32.5456H74.586C74.3165 31.8742 74.0231 31.0771 73.7094 30.1522C73.3931 29.2233 73.07 28.2151 72.731 27.1184C72.3958 26.0257 72.0527 24.8685 71.7015 23.644C71.349 22.4254 71.0072 21.193 70.6802 19.9459H74.1945C74.3113 20.519 74.444 21.1486 74.5873 21.8266C74.7296 22.5058 74.8794 23.2053 75.0365 23.9246C75.1931 24.6415 75.3609 25.3624 75.5323 26.09C75.7053 26.8176 75.8824 27.5143 76.0617 28.1844C76.256 27.4822 76.4464 26.7651 76.6326 26.031C76.8163 25.2955 76.9975 24.5731 77.1703 23.8632C77.3404 23.1541 77.508 22.4655 77.6609 21.8026C77.8164 21.1405 77.9545 20.519 78.0763 19.9459H80.4905C80.6135 20.519 80.7436 21.1405 80.895 21.8026C81.0425 22.4655 81.1996 23.1541 81.3655 23.8632C81.5265 24.5731 81.7019 25.2955 81.8777 26.031C82.0585 26.7651 82.2437 27.4822 82.4352 28.1844C82.6162 27.5143 82.7957 26.8176 82.9767 26.09C83.1578 25.3624 83.3279 24.6415 83.4834 23.9246C83.639 23.2053 83.7891 22.5058 83.9337 21.8266C84.0773 21.1486 84.2073 20.519 84.3265 19.9459Z" fill="white"/>
</mask>
<g mask="url(#mask7_1372_954)">
<path fill-rule="evenodd" clip-rule="evenodd" d="M65.0869 38.1391H93.3888V14.3527H65.0869V38.1391Z" fill="#03435F"/>
</g>
<path fill-rule="evenodd" clip-rule="evenodd" d="M90.1526 32.5407H93.4822V19.9436H90.1526V32.5407Z" fill="#03435F"/>
<mask id="mask8_1372_954" style="mask-type:luminance" maskUnits="userSpaceOnUse" x="90" y="19" width="4" height="14">
<path d="M90.1526 32.5409V19.9439H93.4824V32.5409H90.1526Z" fill="white"/>
</mask>
<g mask="url(#mask8_1372_954)">
<path fill-rule="evenodd" clip-rule="evenodd" d="M-151.106 67.9272L318.731 67.9272L318.731 -597.676H-151.106L-151.106 67.9272Z" fill="#03435F"/>
</g>
<mask id="mask9_1372_954" style="mask-type:luminance" maskUnits="userSpaceOnUse" x="90" y="19" width="4" height="14">
<path d="M90.1526 32.5409V19.9439H93.4824V32.5409H90.1526Z" fill="white"/>
</mask>
<g mask="url(#mask9_1372_954)">
<path fill-rule="evenodd" clip-rule="evenodd" d="M84.5593 38.1341H99.0754V14.3502H84.5593V38.1341Z" fill="#03435F"/>
</g>
<path fill-rule="evenodd" clip-rule="evenodd" d="M96.1308 16.8021L99.463 16.1699V19.95H102.76V22.914H99.463V27.3467C99.463 28.097 99.5863 28.7013 99.8316 29.1428C100.077 29.5899 100.574 29.814 101.318 29.814C101.679 29.814 102.049 29.7818 102.427 29.7079C102.808 29.6354 103.154 29.5321 103.469 29.4073L103.937 32.1861C103.534 32.363 103.085 32.5136 102.596 32.6423C102.101 32.7684 101.502 32.8329 100.783 32.8329C99.8719 32.8329 99.1199 32.7016 98.5234 32.4356C97.9256 32.1765 97.4483 31.8101 97.0919 31.3348C96.7353 30.8677 96.4861 30.2918 96.3428 29.6247C96.1979 28.9522 96.1308 28.2085 96.1308 27.3962V16.8021Z" fill="#03435F"/>
<mask id="mask10_1372_954" style="mask-type:luminance" maskUnits="userSpaceOnUse" x="96" y="16" width="8" height="17">
<path d="M96.1309 16.8022L99.4628 16.17V19.95H102.76V22.914H99.4628V27.3467C99.4628 28.097 99.5863 28.7011 99.8316 29.1429C100.077 29.5899 100.574 29.8139 101.318 29.8139C101.679 29.8139 102.049 29.7818 102.427 29.708C102.808 29.6352 103.154 29.5322 103.469 29.4073L103.937 32.186C103.534 32.3631 103.084 32.5136 102.596 32.6423C102.101 32.7685 101.502 32.833 100.783 32.833C99.8719 32.833 99.1197 32.7016 98.5235 32.4356C97.9255 32.1764 97.4484 31.8102 97.092 31.3351C96.7354 30.8678 96.4862 30.292 96.3426 29.6248C96.198 28.9523 96.1309 28.2083 96.1309 27.3964V16.8022Z" fill="white"/>
</mask>
<g mask="url(#mask10_1372_954)">
<path fill-rule="evenodd" clip-rule="evenodd" d="M-151.106 67.9271L318.731 67.9271L318.731 -597.676H-151.106L-151.106 67.9271Z" fill="#03435F"/>
</g>
<mask id="mask11_1372_954" style="mask-type:luminance" maskUnits="userSpaceOnUse" x="96" y="16" width="8" height="17">
<path d="M96.1309 16.8022L99.4628 16.17V19.95H102.76V22.914H99.4628V27.3467C99.4628 28.097 99.5863 28.7011 99.8316 29.1429C100.077 29.5899 100.574 29.8139 101.318 29.8139C101.679 29.8139 102.049 29.7818 102.427 29.708C102.808 29.6352 103.154 29.5322 103.469 29.4073L103.937 32.186C103.534 32.3631 103.084 32.5136 102.596 32.6423C102.101 32.7685 101.502 32.833 100.783 32.833C99.8719 32.833 99.1197 32.7016 98.5235 32.4356C97.9255 32.1764 97.4484 31.8102 97.092 31.3351C96.7354 30.8678 96.4862 30.292 96.3426 29.6248C96.198 28.9523 96.1309 28.2083 96.1309 27.3964V16.8022Z" fill="white"/>
</mask>
<g mask="url(#mask11_1372_954)">
<path fill-rule="evenodd" clip-rule="evenodd" d="M90.5373 38.4264H109.53V10.5765H90.5373V38.4264Z" fill="#03435F"/>
</g>
<path fill-rule="evenodd" clip-rule="evenodd" d="M105.115 26.2487C105.115 25.337 105.253 24.4781 105.529 23.6727C105.805 22.8645 106.203 22.1639 106.725 21.5637C107.248 20.9638 107.88 20.4911 108.628 20.1382C109.372 19.7905 110.222 19.6105 111.176 19.6105C111.802 19.6105 112.377 19.6737 112.9 19.7918C113.423 19.914 113.932 20.0846 114.421 20.3059L113.73 23.1559C113.415 23.0296 113.073 22.9196 112.698 22.8203C112.325 22.7262 111.905 22.6767 111.444 22.6767C110.461 22.6767 109.724 23.0054 109.243 23.6605C108.754 24.3171 108.515 25.1776 108.515 26.2487C108.515 27.3802 108.742 28.2594 109.2 28.8825C109.651 29.504 110.447 29.8168 111.58 29.8168C111.983 29.8168 112.413 29.775 112.878 29.6959C113.34 29.6153 113.764 29.4892 114.156 29.312L114.622 32.2358C114.233 32.4115 113.751 32.5592 113.169 32.6893C112.585 32.8159 111.945 32.8814 111.246 32.8814C110.172 32.8814 109.245 32.707 108.471 32.3645C107.697 32.0223 107.057 31.555 106.558 30.9644C106.056 30.3725 105.694 29.6746 105.462 28.869C105.23 28.0623 105.115 27.1872 105.115 26.2487Z" fill="#03435F"/>
<mask id="mask12_1372_954" style="mask-type:luminance" maskUnits="userSpaceOnUse" x="105" y="19" width="10" height="14">
<path d="M108.628 20.1383C109.372 19.7906 110.222 19.6106 111.176 19.6106C111.802 19.6106 112.377 19.6736 112.9 19.7917C113.423 19.9141 113.932 20.0844 114.421 20.306L113.73 23.1558C113.414 23.0297 113.073 22.9197 112.697 22.8204C112.325 22.726 111.905 22.6766 111.444 22.6766C110.461 22.6766 109.724 23.0055 109.243 23.6606C108.754 24.317 108.515 25.1774 108.515 26.2488C108.515 27.3803 108.742 28.2595 109.2 28.8826C109.651 29.5041 110.447 29.8169 111.579 29.8169C111.983 29.8169 112.413 29.7751 112.878 29.696C113.34 29.6154 113.764 29.4893 114.156 29.3119L114.622 32.2359C114.234 32.4117 113.751 32.5591 113.169 32.6894C112.585 32.8158 111.946 32.8815 111.246 32.8815C110.172 32.8815 109.245 32.7068 108.471 32.3644C107.697 32.0222 107.057 31.5551 106.558 30.9647C106.056 30.3726 105.694 29.6747 105.462 28.8691C105.23 28.0624 105.115 27.1871 105.115 26.2488C105.115 25.3371 105.253 24.4782 105.529 23.6728C105.805 22.8646 106.203 22.1638 106.725 21.5636C107.248 20.9637 107.88 20.4912 108.628 20.1383Z" fill="white"/>
</mask>
<g mask="url(#mask12_1372_954)">
<path fill-rule="evenodd" clip-rule="evenodd" d="M-151.106 67.9272L318.731 67.9272L318.731 -597.676H-151.106L-151.106 67.9272Z" fill="#03435F"/>
</g>
<mask id="mask13_1372_954" style="mask-type:luminance" maskUnits="userSpaceOnUse" x="105" y="19" width="10" height="14">
<path d="M108.628 20.1383C109.372 19.7906 110.222 19.6106 111.176 19.6106C111.802 19.6106 112.377 19.6736 112.9 19.7917C113.423 19.9141 113.932 20.0844 114.421 20.306L113.73 23.1558C113.414 23.0297 113.073 22.9197 112.697 22.8204C112.325 22.726 111.905 22.6766 111.444 22.6766C110.461 22.6766 109.724 23.0055 109.243 23.6606C108.754 24.317 108.515 25.1774 108.515 26.2488C108.515 27.3803 108.742 28.2595 109.2 28.8826C109.651 29.5041 110.447 29.8169 111.579 29.8169C111.983 29.8169 112.413 29.7751 112.878 29.696C113.34 29.6154 113.764 29.4893 114.156 29.3119L114.622 32.2359C114.234 32.4117 113.751 32.5591 113.169 32.6894C112.585 32.8158 111.946 32.8815 111.246 32.8815C110.172 32.8815 109.245 32.7068 108.471 32.3644C107.697 32.0222 107.057 31.5551 106.558 30.9647C106.056 30.3726 105.694 29.6747 105.462 28.8691C105.23 28.0624 105.115 27.1871 105.115 26.2488C105.115 25.3371 105.253 24.4782 105.529 23.6728C105.805 22.8646 106.203 22.1638 106.725 21.5636C107.248 20.9637 107.88 20.4912 108.628 20.1383Z" fill="white"/>
</mask>
<g mask="url(#mask13_1372_954)">
<path fill-rule="evenodd" clip-rule="evenodd" d="M99.5215 38.475H120.215V14.0173H99.5215V38.475Z" fill="#03435F"/>
</g>
<path fill-rule="evenodd" clip-rule="evenodd" d="M116.777 32.5412V16.7975L120.11 16.1707V19.9965C120.332 19.9172 120.618 19.8408 120.972 19.7684C121.32 19.6972 121.662 19.6595 121.989 19.6595C122.942 19.6595 123.734 19.8005 124.37 20.0784C125.002 20.3577 125.513 20.7538 125.891 21.2651C126.274 21.7739 126.54 22.3832 126.699 23.0827C126.853 23.7873 126.931 24.5715 126.931 25.4333V32.5412H123.599V25.8614C123.599 24.7122 123.461 23.8988 123.186 23.4169C122.91 22.9429 122.398 22.7028 121.654 22.7028C121.351 22.7028 121.075 22.7311 120.812 22.7847C120.552 22.8412 120.318 22.9028 120.11 22.966V32.5412H116.777Z" fill="#03435F"/>
<mask id="mask14_1372_954" style="mask-type:luminance" maskUnits="userSpaceOnUse" x="116" y="16" width="11" height="17">
<path d="M116.776 16.7974L120.11 16.1706V19.9967C120.332 19.9171 120.618 19.8407 120.972 19.7683C121.32 19.6971 121.662 19.6596 121.989 19.6596C122.942 19.6596 123.734 19.8006 124.37 20.0783C125.002 20.3578 125.513 20.7537 125.891 21.2652C126.274 21.7738 126.54 22.3831 126.699 23.0829C126.853 23.7874 126.931 24.5714 126.931 25.4334V32.5411H123.599V25.8613C123.599 24.7123 123.461 23.8987 123.186 23.4168C122.91 22.943 122.398 22.7027 121.654 22.7027C121.351 22.7027 121.075 22.731 120.812 22.7848C120.552 22.841 120.318 22.9027 120.11 22.9659V32.5411H116.776V16.7974Z" fill="white"/>
</mask>
<g mask="url(#mask14_1372_954)">
<path fill-rule="evenodd" clip-rule="evenodd" d="M-151.106 67.9272L318.731 67.9272L318.731 -597.676H-151.106L-151.106 67.9272Z" fill="#03435F"/>
</g>
<mask id="mask15_1372_954" style="mask-type:luminance" maskUnits="userSpaceOnUse" x="116" y="16" width="11" height="17">
<path d="M116.776 16.7974L120.11 16.1706V19.9967C120.332 19.9171 120.618 19.8407 120.972 19.7683C121.32 19.6971 121.662 19.6596 121.989 19.6596C122.942 19.6596 123.734 19.8006 124.37 20.0783C125.002 20.3578 125.513 20.7537 125.891 21.2652C126.274 21.7738 126.54 22.3831 126.699 23.0829C126.853 23.7874 126.931 24.5714 126.931 25.4334V32.5411H123.599V25.8613C123.599 24.7123 123.461 23.8987 123.186 23.4168C122.91 22.943 122.398 22.7027 121.654 22.7027C121.351 22.7027 121.075 22.731 120.812 22.7848C120.552 22.841 120.318 22.9027 120.11 22.9659V32.5411H116.776V16.7974Z" fill="white"/>
</mask>
<g mask="url(#mask15_1372_954)">
<path fill-rule="evenodd" clip-rule="evenodd" d="M111.183 38.1346H132.524V10.5772H111.183V38.1346Z" fill="#03435F"/>
</g>
<path fill-rule="evenodd" clip-rule="evenodd" d="M16.2757 32.5452V21.1294C16.2757 21.1294 17.9511 19.6971 21.6157 19.6971C24.9505 19.6971 26.7817 21.4812 26.7817 25.4077V32.5452H23.4508V25.4077C23.4508 22.9068 22.2819 22.7336 21.2833 22.7336C20.2847 22.7336 19.6159 23.2652 19.6159 23.2652V32.5452H16.2757Z" fill="#03435F"/>
<mask id="mask16_1372_954" style="mask-type:luminance" maskUnits="userSpaceOnUse" x="16" y="19" width="11" height="14">
<path d="M16.2757 21.1295C16.2757 21.1295 17.9511 19.6971 21.6157 19.6971C24.9505 19.6971 26.7815 21.4811 26.7815 25.4079V32.5452H23.4509V25.4079C23.4509 22.9066 22.2819 22.7337 21.2833 22.7337C20.2847 22.7337 19.6159 23.2654 19.6159 23.2654V32.5452H16.2757V21.1295Z" fill="white"/>
</mask>
<g mask="url(#mask16_1372_954)">
<path fill-rule="evenodd" clip-rule="evenodd" d="M-151.106 67.9272L318.731 67.9272L318.731 -597.676H-151.106L-151.106 67.9272Z" fill="#03435F"/>
</g>
<mask id="mask17_1372_954" style="mask-type:luminance" maskUnits="userSpaceOnUse" x="16" y="19" width="11" height="14">
<path d="M16.2757 21.1295C16.2757 21.1295 17.9511 19.6971 21.6157 19.6971C24.9505 19.6971 26.7815 21.4811 26.7815 25.4079V32.5452H23.4509V25.4079C23.4509 22.9066 22.2819 22.7337 21.2833 22.7337C20.2847 22.7337 19.6159 23.2654 19.6159 23.2654V32.5452H16.2757V21.1295Z" fill="white"/>
</mask>
<g mask="url(#mask17_1372_954)">
<path fill-rule="evenodd" clip-rule="evenodd" d="M10.6826 38.1387H32.3749V14.104H10.6826L10.6826 38.1387Z" fill="#03435F"/>
</g>
<path fill-rule="evenodd" clip-rule="evenodd" d="M10 32.5453L10 16.7989L13.3348 16.1705V32.5453H10Z" fill="#03435F"/>
<mask id="mask18_1372_954" style="mask-type:luminance" maskUnits="userSpaceOnUse" x="10" y="16" width="4" height="17">
<path d="M10 16.7991L13.3348 16.1705V32.5453H10L10 16.7991Z" fill="white"/>
</mask>
<g mask="url(#mask18_1372_954)">
<path fill-rule="evenodd" clip-rule="evenodd" d="M-151.106 67.9272L318.731 67.9272L318.731 -597.676H-151.106L-151.106 67.9272Z" fill="#03435F"/>
</g>
<mask id="mask19_1372_954" style="mask-type:luminance" maskUnits="userSpaceOnUse" x="10" y="16" width="4" height="17">
<path d="M10 16.7991L13.3348 16.1705V32.5453H10L10 16.7991Z" fill="white"/>
</mask>
<g mask="url(#mask19_1372_954)">
<path fill-rule="evenodd" clip-rule="evenodd" d="M4.40662 38.1387H18.9282V10.5774H4.40662L4.40662 38.1387Z" fill="#03435F"/>
</g>
<path fill-rule="evenodd" clip-rule="evenodd" d="M49.378 27.1507H41.8772C41.8772 27.1507 42.0447 29.8261 45.3756 29.8261C47.0432 29.8261 48.7106 29.293 48.7106 29.293L49.0443 32.1509C49.0443 32.1509 47.3782 32.8585 45.046 32.8585C41.7097 32.8585 38.7099 31.077 38.7099 26.0822C38.7099 22.1542 41.0422 19.6601 44.3759 19.6601C49.378 19.6601 49.7131 25.0054 49.378 27.1507ZM44.2123 22.1542C42.0447 22.1542 41.8772 24.651 41.8772 24.651H46.5417C46.5417 24.651 46.3783 22.1542 44.2123 22.1542Z" fill="#03435F"/>
<mask id="mask20_1372_954" style="mask-type:luminance" maskUnits="userSpaceOnUse" x="38" y="19" width="12" height="14">
<path d="M38.7101 26.0822C38.7101 22.1542 41.0423 19.6601 44.3758 19.6601C49.3779 19.6601 49.713 25.0056 49.3779 27.1507H41.8773C41.8773 27.1507 42.0448 29.826 45.3755 29.826C47.0431 29.826 48.7105 29.293 48.7105 29.293L49.0442 32.1509C49.0442 32.1509 47.3781 32.8587 45.0459 32.8587C41.7098 32.8587 38.7101 31.0771 38.7101 26.0822ZM44.2122 22.1542C42.0448 22.1542 41.8773 24.6511 41.8773 24.6511H46.5418C46.5418 24.6511 46.3782 22.1542 44.2122 22.1542Z" fill="white"/>
</mask>
<g mask="url(#mask20_1372_954)">
<path fill-rule="evenodd" clip-rule="evenodd" d="M-151.106 67.9271L318.731 67.9271L318.731 -597.676H-151.106L-151.106 67.9271Z" fill="#03435F"/>
</g>
<mask id="mask21_1372_954" style="mask-type:luminance" maskUnits="userSpaceOnUse" x="38" y="19" width="12" height="14">
<path d="M38.7101 26.0822C38.7101 22.1542 41.0423 19.6601 44.3758 19.6601C49.3779 19.6601 49.713 25.0056 49.3779 27.1507H41.8773C41.8773 27.1507 42.0448 29.826 45.3755 29.826C47.0431 29.826 48.7105 29.293 48.7105 29.293L49.0442 32.1509C49.0442 32.1509 47.3781 32.8587 45.0459 32.8587C41.7098 32.8587 38.7101 31.0771 38.7101 26.0822ZM44.2122 22.1542C42.0448 22.1542 41.8773 24.6511 41.8773 24.6511H46.5418C46.5418 24.6511 46.3782 22.1542 44.2122 22.1542Z" fill="white"/>
</mask>
<g mask="url(#mask21_1372_954)">
<path fill-rule="evenodd" clip-rule="evenodd" d="M33.1167 38.4518H55.0646V14.0667H33.1167V38.4518Z" fill="#03435F"/>
</g>
<mask id="mask22_1372_954" style="mask-type:luminance" maskUnits="userSpaceOnUse" x="131" y="13" width="23" height="29">
<path d="M131.348 16.1737C131.348 15.4125 140.936 13.77 147.366 13.77C150.154 13.77 152.348 14.0789 152.91 14.9023C155.805 18.7255 135.423 42.7114 133.725 41.9838C132.363 41.62 144.591 26.3529 142.553 20.1714C141.535 16.9026 131.348 17.2662 131.348 16.1737Z" fill="white"/>
</mask>
<g mask="url(#mask22_1372_954)">
<path fill-rule="evenodd" clip-rule="evenodd" d="M125.755 47.5934H158.784V8.17667H125.755V47.5934Z" fill="#ED342B"/>
</g>
<mask id="mask23_1372_954" style="mask-type:luminance" maskUnits="userSpaceOnUse" x="148" y="2" width="10" height="10">
<path d="M148.665 6.72374C148.665 4.11287 150.642 1.99999 153.079 1.99999C155.518 1.99999 157.493 4.11287 157.493 6.72374C157.493 9.33594 155.518 11.4488 153.079 11.4488C150.642 11.4488 148.665 9.33594 148.665 6.72374Z" fill="white"/>
</mask>
<g mask="url(#mask23_1372_954)">
<path fill-rule="evenodd" clip-rule="evenodd" d="M143.072 17.0423H163.086V-3.59356H143.072V17.0423Z" fill="#ED342B"/>
</g>
</svg>
