<svg width="88" height="51" viewBox="0 0 88 51" fill="none" xmlns="http://www.w3.org/2000/svg">
<path d="M36.1347 36.6539H30.1275L33.8848 13.4212H39.8917L36.1347 36.6539Z" fill="#00579F"/>
<path d="M57.9111 13.9892C56.7263 13.5191 54.8469 13.0001 52.5231 13.0001C46.5908 13.0001 42.4133 16.1635 42.3877 20.6863C42.3384 24.0232 45.3787 25.8765 47.6525 26.9892C49.9766 28.1261 50.7667 28.8682 50.7667 29.8816C50.743 31.438 48.8886 32.1554 47.1591 32.1554C44.7608 32.1554 43.4757 31.7856 41.5228 30.9196L40.7317 30.5484L39.8911 35.7637C41.3 36.4055 43.8958 36.9751 46.5908 37.0001C52.894 37.0001 56.9976 33.8856 57.0462 29.0659C57.0702 26.4212 55.4648 24.3947 52.0038 22.7387C49.9027 21.6757 48.616 20.9589 48.616 19.8713C48.6406 18.8825 49.7043 17.8698 52.0761 17.8698C54.029 17.8202 55.4638 18.2896 56.5508 18.7593L57.0942 19.006L57.9111 13.9892Z" fill="#00579F"/>
<path d="M65.8955 28.4234C66.3902 27.0887 68.2938 21.9231 68.2938 21.9231C68.2689 21.9727 68.7876 20.5638 69.0842 19.6988L69.504 21.7007C69.504 21.7007 70.6416 27.2618 70.8886 28.4234C69.9498 28.4234 67.082 28.4234 65.8955 28.4234ZM73.3106 13.4212H68.6641C67.2311 13.4212 66.1425 13.8411 65.5243 15.3489L56.6013 36.6535H62.9045C62.9045 36.6535 63.9422 33.7861 64.1653 33.1685C64.8568 33.1685 70.9885 33.1685 71.8781 33.1685C72.0505 33.9842 72.5948 36.6535 72.5948 36.6535H78.157L73.3106 13.4212Z" fill="#00579F"/>
<path d="M25.11 13.4212L19.2269 29.2637L18.5841 26.0506C17.4964 22.3432 14.0853 18.3152 10.2787 16.3123L15.6674 36.6292H22.0198L31.4621 13.4212H25.11Z" fill="#00579F"/>
<path d="M13.7639 13.4212H4.09888L4 13.8907C11.5393 15.8186 16.5325 20.4659 18.5839 26.0516L16.4829 15.3742C16.137 13.8903 15.074 13.4702 13.7639 13.4212Z" fill="#FAA61A"/>
</svg>
