<svg width="85" height="51" viewBox="0 0 85 51" fill="none" xmlns="http://www.w3.org/2000/svg">
<path d="M15.5726 26.5795C16.7728 26.5795 17.9729 26.5628 19.173 26.5795C19.623 26.5795 19.8064 26.4462 19.9564 26.0295C21.2232 22.5958 22.4066 19.1288 23.5734 15.6452C23.7401 15.1451 23.9567 14.9451 24.4901 14.9784C25.2735 15.0285 26.0736 15.0118 26.8737 14.9784C27.3071 14.9618 27.4904 15.0951 27.5737 15.5118C27.8904 17.0453 28.2405 18.5788 28.6072 20.0956C28.6572 20.3123 28.5405 20.679 29.0072 20.6956C29.4406 20.729 29.4739 20.4456 29.5739 20.1623C30.1406 18.5788 30.724 17.012 31.2741 15.4285C31.3908 15.0785 31.5741 14.9451 31.9575 14.9618C32.8409 14.9951 33.7243 14.9951 34.6077 14.9618C35.1244 14.9451 35.1911 15.0785 35.0244 15.5452C33.491 19.7122 31.9575 23.8793 30.4407 28.0463C30.0962 28.9797 29.4295 29.4464 28.4405 29.4464C27.7904 29.4464 27.1404 29.4464 26.507 29.4464C26.1903 29.4464 26.0903 29.3464 26.0736 29.0464C25.9736 27.6463 25.8569 26.2461 25.7069 24.8627C25.6902 24.6293 25.8569 24.2793 25.4069 24.2126C24.9902 24.146 24.9235 24.4293 24.8235 24.7127C24.2734 26.1461 23.7067 27.5629 23.1567 28.9797C23.0233 29.3131 22.8733 29.4631 22.4899 29.4631C18.923 29.4464 15.3726 29.4464 11.8056 29.4631C11.3723 29.4631 11.2723 29.3298 11.3056 28.9297C11.3389 28.3463 11.3389 27.7463 11.3056 27.1629C11.2723 26.6962 11.3723 26.5295 11.889 26.5462C13.1224 26.5962 14.3559 26.5462 15.606 26.5462L15.5726 26.5795Z" fill="#9C7B08"/>
<path d="M38.658 29.4797C39.2247 27.9463 39.7747 26.4628 40.3248 24.996C41.4916 21.8457 42.675 18.6788 43.8251 15.5118C43.9584 15.1451 44.1251 14.9951 44.5252 15.0118C46.442 15.0284 48.3589 15.0118 50.2757 15.0118C51.0591 15.0118 51.8258 15.1284 52.4759 15.5951C53.3926 16.2285 53.726 17.1119 53.5593 18.1954C53.2926 19.8455 52.4259 21.0456 50.8924 21.7457C50.7591 21.8124 50.6424 21.8957 50.509 21.9624C51.9592 22.7625 52.3259 23.6125 51.8925 25.2127C51.1924 27.8296 49.1089 29.4464 46.392 29.4631C43.9751 29.4631 41.5582 29.4631 39.1413 29.4631C38.9913 29.4631 38.8413 29.4631 38.6413 29.4631L38.658 29.4797ZM45.1086 26.4461C45.4586 26.4461 45.8086 26.4628 46.1587 26.4461C47.0254 26.3795 47.7255 26.0294 48.1088 25.2127C48.5755 24.2126 48.1088 23.4292 46.9921 23.3959C46.342 23.3792 45.7086 23.3959 45.0586 23.3959C44.8585 23.3959 44.7252 23.4459 44.6418 23.6625C44.3418 24.496 44.0418 25.3127 43.7084 26.1461C43.6084 26.4128 43.7084 26.4628 43.9418 26.4628C44.3251 26.4628 44.7085 26.4628 45.1086 26.4628V26.4461ZM45.7586 20.7123C46.5087 20.7123 47.1921 20.7456 47.8588 20.7123C49.1256 20.6289 49.9423 19.7455 49.759 18.6954C49.6756 18.2287 49.4089 17.962 48.9422 17.962C48.3088 17.962 47.6921 17.962 47.0587 17.962C46.842 17.962 46.7254 18.012 46.642 18.2287C46.3587 19.0455 46.0586 19.8455 45.7419 20.7456L45.7586 20.7123Z" fill="#9C7B08"/>
<path d="M60.8434 29.4797C61.2101 28.5297 61.5768 27.6462 61.9101 26.7462C62.0102 26.4961 62.2102 26.5795 62.3769 26.5628C63.3769 26.5628 64.377 26.5295 65.3605 26.5628C65.8438 26.5795 66.0939 26.4628 66.2939 25.9628C67.7273 22.4624 69.2275 18.9621 70.6776 15.4618C70.8276 15.0951 70.9943 14.9617 71.3943 14.9617C73.6779 14.9784 75.9781 14.9784 78.2616 14.9617C78.695 14.9617 78.8784 15.0118 78.6617 15.4951C78.3616 16.1452 78.1116 16.8286 77.8783 17.4953C77.7616 17.7953 77.6116 17.912 77.2782 17.912C76.1948 17.8953 75.0947 17.912 74.0112 17.8953C73.6445 17.8953 73.4779 17.9954 73.3279 18.3454C71.8444 21.879 70.3109 25.3794 68.8274 28.913C68.6608 29.3131 68.4607 29.4631 68.0274 29.4464C65.8438 29.4131 63.677 29.4464 61.4934 29.4464H60.8434V29.4797Z" fill="#9C7B08"/>
<path d="M65.894 17.9453C65.3773 17.9453 64.8606 17.962 64.3439 17.9453C63.9939 17.9287 63.8272 18.0454 63.6938 18.3787C62.1937 21.9124 60.6769 25.446 59.1768 28.9964C59.0268 29.3631 58.8434 29.5131 58.41 29.5131C56.1765 29.4964 53.943 29.4964 51.7094 29.5131C51.276 29.5131 51.2094 29.4131 51.376 29.013C51.6761 28.3463 51.9261 27.6462 52.1761 26.9628C52.2761 26.6628 52.4428 26.5961 52.7428 26.5961C53.7763 26.6128 54.8097 26.5795 55.8431 26.6128C56.2598 26.6128 56.4432 26.4795 56.6099 26.0961C58.0767 22.5791 59.5601 19.0788 61.0103 15.5451C61.1769 15.1284 61.377 15.0117 61.8103 15.0117C64.0439 15.0284 66.2774 15.0284 68.511 15.0117C69.011 15.0117 69.061 15.1284 68.8777 15.5618C68.5943 16.2119 68.3276 16.8953 68.0942 17.562C67.9776 17.8787 67.8109 17.9787 67.4775 17.962C66.9441 17.9287 66.4108 17.962 65.8774 17.962L65.894 17.9453Z" fill="#9C7B08"/>
<path d="M32.5742 29.4799C33.7576 26.2963 34.9077 23.1793 36.0578 20.079C36.6412 18.5289 37.2246 16.9787 37.7746 15.4119C37.8913 15.0952 38.0413 14.9786 38.3747 14.9952C39.2914 15.0119 40.2249 15.0119 41.1416 14.9952C41.4416 14.9952 41.575 15.0286 41.4416 15.3786C39.7915 19.9623 38.1413 24.5628 36.5078 29.1465C36.4245 29.3632 36.3412 29.4799 36.0911 29.4799C34.941 29.4799 33.8076 29.4799 32.5908 29.4799H32.5742Z" fill="#9C7B08"/>
<path d="M36.5076 13.2117C43.2583 13.2117 50.0089 13.2117 56.7762 13.2117C56.9095 13.2117 57.0429 13.2117 57.1595 13.2117C57.2762 13.2117 57.4596 13.1784 57.4262 13.3784C57.4096 13.5284 57.4429 13.7451 57.1929 13.7451C57.0429 13.7451 56.8928 13.7451 56.7428 13.7451C43.2416 13.7451 29.7237 13.7451 16.2225 13.7451C16.0891 13.7451 15.9558 13.7451 15.8391 13.7451C15.6557 13.7451 15.6391 13.6451 15.6391 13.4951C15.6391 13.3617 15.6224 13.2284 15.8057 13.2117C15.9558 13.2117 16.1058 13.2117 16.2558 13.2117C23.0064 13.2117 29.757 13.2117 36.5243 13.2117H36.5076Z" fill="#356D00"/>
<path d="M36.4573 12.6283C29.7067 12.6283 22.9394 12.6283 16.1888 12.6283C16.0221 12.6283 15.7054 12.845 15.6721 12.4616C15.6554 12.1116 15.9054 12.0949 16.1888 12.0949C29.7567 12.0949 43.3246 12.0949 56.8925 12.0949C57.0758 12.0949 57.3592 11.9782 57.3592 12.3616C57.3592 12.745 57.0758 12.6283 56.8758 12.6283C50.0585 12.6283 43.2579 12.6283 36.4406 12.6283H36.4573Z" fill="#356D00"/>
<path d="M36.6743 10.0947C30.007 10.0947 23.3398 10.0947 16.6892 10.0947C16.5058 10.0947 16.0891 10.328 16.2058 9.79463C16.2391 9.66129 16.3058 9.56128 16.4725 9.56128C16.6225 9.56128 16.7725 9.56128 16.9225 9.56128C30.107 9.56128 43.2916 9.56128 56.4595 9.56128C56.6261 9.56128 56.7928 9.56128 56.9595 9.56128C57.1762 9.59462 57.1762 9.79463 57.1929 9.94465C57.1929 10.1613 57.0262 10.078 56.9095 10.0947C56.7762 10.0947 56.6595 10.0947 56.5261 10.0947C49.9089 10.0947 43.3083 10.0947 36.691 10.0947H36.6743Z" fill="#356D00"/>
<path d="M16.6058 8.94466C16.6891 8.52795 16.9225 8.39461 17.3225 8.39461C23.6231 8.39461 29.907 8.39461 36.2076 8.39461C42.8415 8.39461 49.4921 8.39461 56.1261 8.39461C56.2761 8.39461 56.4261 8.39461 56.5761 8.39461C56.8261 8.39461 56.7928 8.62796 56.8095 8.76131C56.8428 8.97799 56.6594 8.91132 56.5428 8.92799C56.4594 8.92799 56.3594 8.92799 56.2594 8.92799C43.2082 8.92799 30.157 8.92799 17.1058 8.92799C16.9391 8.92799 16.7891 8.92799 16.6058 8.92799V8.94466Z" fill="#356D00"/>
<path d="M48.6086 30.4632C48.5753 30.9133 48.3419 31.0133 47.9419 31.0133C35.8075 31.0133 23.6563 31.0133 11.5219 31.0133C11.4052 31.0133 11.3052 31.0133 11.1885 31.0133C11.0052 31.0133 11.0052 30.8633 11.0052 30.7299C11.0052 30.5799 11.0219 30.4632 11.2052 30.4632C11.3219 30.4632 11.4219 30.4632 11.5386 30.4632C23.7564 30.4632 35.9741 30.4632 48.1919 30.4632H48.6253H48.6086Z" fill="#356D00"/>
<path d="M47.1753 32.9134C47.1753 33.4801 46.8086 33.4634 46.4419 33.4634C38.2578 33.4634 30.0571 33.4634 21.873 33.4634C18.4227 33.4634 14.9723 33.4634 11.522 33.4634C11.3554 33.4634 11.0887 33.5968 11.022 33.2968C10.972 33.1134 10.9887 32.9134 11.272 32.9301C11.3887 32.9301 11.4887 32.9301 11.6054 32.9301C23.2898 32.9301 34.9575 32.9301 46.6419 32.9301C46.8253 32.9301 46.9919 32.9301 47.1753 32.9301V32.9134Z" fill="#356D00"/>
<path d="M40.5746 35.2803C40.3412 35.7136 40.0578 35.8137 39.6745 35.8137C30.2903 35.8137 20.9228 35.8137 11.5386 35.8137C11.4386 35.8137 11.3552 35.8137 11.2552 35.8137C11.0552 35.8137 11.0052 35.7303 11.0052 35.547C11.0052 35.3636 11.0885 35.2803 11.2719 35.2803C11.3719 35.2803 11.4552 35.2803 11.5552 35.2803C21.0728 35.2803 30.607 35.2803 40.1245 35.2803C40.2412 35.2803 40.3745 35.2803 40.5746 35.2803Z" fill="#356D00"/>
<path d="M36.5245 11.3449C29.8406 11.3449 23.1733 11.3449 16.4894 11.3449C16.3394 11.3449 16.1894 11.3449 16.0393 11.3449C15.9227 11.3449 15.756 11.3449 15.806 11.1448C15.8393 11.0115 15.8227 10.8281 16.0393 10.8281C16.206 10.8281 16.3727 10.8281 16.5394 10.8281C29.9239 10.8281 43.2918 10.8281 56.6764 10.8281C56.8097 10.8281 56.9431 10.8281 57.0598 10.8281C57.2598 10.8281 57.3765 10.8781 57.3598 11.1115C57.3598 11.3115 57.2264 11.3449 57.0764 11.3449C56.9431 11.3449 56.8264 11.3449 56.6931 11.3449C49.9758 11.3449 43.2585 11.3449 36.5412 11.3449H36.5245Z" fill="#356D00"/>
<path d="M42.7749 34.1136C42.0415 34.5137 41.4081 34.6637 40.708 34.6637C31.0405 34.6637 21.3729 34.6637 11.7054 34.6637C11.5554 34.6637 11.4053 34.6637 11.2553 34.6637C11.0553 34.6637 11.022 34.547 11.022 34.3803C11.022 34.1803 11.122 34.1303 11.2887 34.1303C11.3553 34.1303 11.4387 34.1303 11.5054 34.1303C21.7896 34.1303 32.0572 34.1303 42.3415 34.1303C42.4248 34.1303 42.5249 34.1303 42.7749 34.1303V34.1136Z" fill="#356D00"/>
<path d="M47.9423 31.6467C47.8256 32.0467 47.6089 32.1801 47.2422 32.1801C35.3244 32.1801 23.4067 32.1801 11.4889 32.1801C11.3056 32.1801 11.0055 32.2968 11.0222 31.9134C11.0389 31.53 11.3389 31.68 11.5223 31.68C18.4229 31.68 25.3235 31.68 32.2242 31.68H47.3422C47.5422 31.68 47.7422 31.68 47.9589 31.68L47.9423 31.6467Z" fill="#356D00"/>
<path d="M18.556 36.5804H39.1246C39.0412 36.9804 38.8412 37.1304 38.4412 37.1138C32.3406 37.1138 26.2234 37.1138 20.1228 37.1138C19.5395 37.1138 19.0394 36.8304 18.556 36.5804Z" fill="#356D00"/>
<path d="M21.4059 38.9973H37.7574C37.7241 39.4473 37.4907 39.5307 37.0907 39.5307C32.1069 39.5307 27.1398 39.5307 22.156 39.5307C21.7726 39.5307 21.5393 39.414 21.4059 38.9973Z" fill="#356D00"/>
<path d="M33.5911 7.64441H17.4396C17.5563 7.24437 17.8063 7.14436 18.1896 7.14436C22.8734 7.14436 27.5572 7.14436 32.2409 7.14436C32.7576 7.14436 33.1743 7.37772 33.5744 7.64441H33.5911Z" fill="#356D00"/>
<path d="M22.1062 40.2474C22.3562 40.2474 22.4896 40.2474 22.6062 40.2474C27.2067 40.2474 31.7904 40.2474 36.3908 40.2474C36.5409 40.2474 36.8409 40.0974 36.8409 40.4141C36.8409 40.6641 36.6409 40.7975 36.3408 40.7808C31.8571 40.7808 27.3733 40.7808 22.8896 40.7808C22.5229 40.7808 22.3729 40.5641 22.1062 40.2474Z" fill="#356D00"/>
<path d="M20.6728 37.8806H38.3744C38.3744 38.264 38.1911 38.3807 37.841 38.3807C32.3572 38.3807 26.8734 38.3807 21.4062 38.3807C21.0562 38.3807 20.8728 38.214 20.6728 37.8806Z" fill="#356D00"/>
<path d="M56.1928 7.64441H42.1915C42.5415 7.27771 42.8749 7.14436 43.3416 7.14436C47.3586 7.14436 51.3756 7.14436 55.3927 7.14436C55.7594 7.14436 56.0427 7.1777 56.1928 7.64441Z" fill="#356D00"/>
<path d="M23.173 41.5475H35.9742C35.8575 41.9309 35.6408 42.0809 35.2408 42.0643C31.5071 42.0643 27.7901 42.0643 24.0564 42.0643C23.6564 42.0643 23.4064 41.8976 23.173 41.5309V41.5475Z" fill="#356D00"/>
<path d="M24.3231 42.6809H34.5573C33.9906 42.9643 33.3739 43.1977 32.7238 43.1977C30.3069 43.2143 27.8901 43.1977 25.4732 43.2143C25.0065 43.2143 24.6398 43.1143 24.3231 42.6809Z" fill="#356D00"/>
<path d="M27.1232 6.52769H18.6057C18.9057 6.19433 19.2058 5.99431 19.6391 5.99431C21.6393 5.99431 23.6562 5.99431 25.6564 5.99431C26.2064 5.99431 26.6564 6.261 27.1232 6.52769Z" fill="#356D00"/>
<path d="M16.2394 23.6626C15.4726 23.6626 14.6892 23.6626 13.9225 23.6626C13.8058 23.6626 13.5225 23.8127 13.5558 23.5126C13.5725 23.3293 13.6725 23.1293 13.9392 23.1459C14.6892 23.1459 15.4393 23.1459 16.206 23.1459C17.0728 23.1459 17.9395 23.1459 18.8063 23.1459C18.923 23.1459 19.1897 23.0126 19.1563 23.3126C19.1397 23.5293 19.0563 23.6793 18.773 23.6626C17.9229 23.646 17.0895 23.6626 16.2394 23.6626Z" fill="#356D00"/>
<path d="M18.9226 14.5117C19.8894 14.5117 20.8395 14.5117 21.8062 14.5117C21.9396 14.5117 22.1729 14.395 22.1896 14.6617C22.1896 14.8784 22.1229 15.0451 21.8395 15.0451C19.8727 15.0451 17.8892 15.0451 15.9223 15.0451C15.7056 15.0451 15.639 14.9617 15.639 14.745C15.639 14.495 15.7723 14.495 15.9557 14.495C16.9558 14.495 17.9559 14.495 18.9393 14.495L18.9226 14.5117Z" fill="#356D00"/>
<path d="M46.5917 6.47773C47.5251 6.37772 48.3252 6.37772 49.0752 6.21104C50.7754 5.84434 52.4922 6.07769 54.1924 5.99435C54.5924 5.97768 54.8258 6.24437 55.2091 6.4944H46.5917V6.47773Z" fill="#356D00"/>
<path d="M15.1724 19.9622C15.2557 19.5788 15.3891 19.4122 15.7558 19.4288C17.2392 19.4455 18.706 19.4288 20.1895 19.4288C20.3062 19.4288 20.5395 19.3288 20.5229 19.5622C20.5229 19.7288 20.4562 19.9455 20.2062 19.9455C20.0061 19.9455 19.8061 19.9455 19.5894 19.9455C18.1393 19.9455 16.6892 19.9455 15.1724 19.9455V19.9622Z" fill="#356D00"/>
<path d="M18.7558 15.7619C19.6558 15.7619 20.5559 15.7619 21.4727 15.7619C21.606 15.7619 21.8561 15.6453 21.8227 15.9453C21.8227 16.162 21.7227 16.312 21.456 16.312C19.6058 16.312 17.7723 16.312 15.9222 16.312C15.7222 16.312 15.6221 16.262 15.6388 16.0286C15.6388 15.7953 15.7555 15.7619 15.9388 15.7619C16.8723 15.7619 17.8223 15.7619 18.7558 15.7619Z" fill="#356D00"/>
<path d="M26.1069 43.6811H32.5241C32.2908 44.0311 32.0407 44.2145 31.624 44.2145C30.2406 44.1978 28.8571 44.1811 27.4903 44.2145C26.9736 44.2145 26.5569 44.0645 26.1069 43.6811Z" fill="#356D00"/>
<path d="M18.756 24.2627C18.706 24.5627 18.656 24.8127 18.3059 24.8127C16.4724 24.8127 14.6389 24.8127 12.7554 24.8127C12.8388 24.5294 12.8554 24.2627 13.2221 24.2627C15.0556 24.2627 16.8891 24.2627 18.756 24.2627Z" fill="#356D00"/>
<path d="M14.172 22.3792C14.222 21.9292 14.422 21.8292 14.7721 21.8292C16.2555 21.8458 17.7557 21.8292 19.2391 21.8292C19.3725 21.8292 19.6392 21.6791 19.6392 22.0125C19.6392 22.2459 19.5392 22.3625 19.2725 22.3625C17.5723 22.3625 15.8888 22.3625 14.172 22.3625V22.3792Z" fill="#356D00"/>
<path d="M14.689 21.129C14.8056 20.7457 14.989 20.579 15.3724 20.5957C16.8058 20.6123 18.2393 20.5957 19.6894 20.5957C19.8228 20.5957 20.0728 20.479 20.0561 20.7623C20.0561 20.9624 19.9728 21.129 19.6894 21.129C18.0393 21.129 16.3891 21.129 14.7056 21.129H14.689Z" fill="#356D00"/>
<path d="M18.3063 18.1788C19.0731 18.1788 19.8565 18.1788 20.6232 18.1788C20.7399 18.1788 20.9566 18.0788 20.9232 18.3455C20.8899 18.5121 20.8899 18.7122 20.6065 18.7122C19.0231 18.7122 17.4396 18.7122 15.8394 18.7122C15.6227 18.7122 15.6227 18.5955 15.6061 18.4288C15.6061 18.1954 15.7061 18.1621 15.9061 18.1621C16.7062 18.1621 17.4896 18.1621 18.2897 18.1621L18.3063 18.1788Z" fill="#356D00"/>
<path d="M18.3897 17.4287C17.5896 17.4287 16.8062 17.4287 16.0061 17.4287C15.8394 17.4287 15.6227 17.5121 15.6061 17.1954C15.6061 16.862 15.8061 16.912 16.0061 16.912C17.6563 16.912 19.2897 16.912 20.9399 16.912C21.0732 16.912 21.3066 16.8287 21.2899 17.112C21.2899 17.3454 21.1733 17.4287 20.9399 17.4287C20.0898 17.4287 19.2397 17.4287 18.3897 17.4287Z" fill="#356D00"/>
<path d="M21.1562 5.37757C22.2397 4.87752 23.3231 4.87752 24.5066 5.37757H21.1562Z" fill="#356D00"/>
<path d="M53.4427 5.3776H50.6091C51.5925 4.9609 52.4592 4.79422 53.4427 5.3776Z" fill="#356D00"/>
<path d="M27.9733 44.6812H30.7235C30.2568 45.0979 28.74 45.1146 27.9733 44.6812Z" fill="#356D00"/>
<path d="M45.7417 34.0303C45.9917 34.0303 46.1751 34.0303 46.3584 34.0303C46.4418 34.0303 46.6084 33.9636 46.5918 34.1636C46.5751 34.297 46.5251 34.4137 46.3418 34.347C46.1584 34.2636 45.9417 34.2803 45.7584 34.0303H45.7417Z" fill="#356D00"/>
</svg>
