<svg width="156" height="51" viewBox="0 0 156 51" fill="none" xmlns="http://www.w3.org/2000/svg">
<path d="M56.4736 32.3297C53.9963 32.8871 48.98 33.6922 49.5373 30.0382C49.9708 27.3133 54.306 27.3133 57.0929 27.6849L56.4736 32.3297ZM47.3698 22.235C50.9617 21.4299 57.5264 19.2623 57.4645 24.7122C54.306 24.7741 51.9526 24.3406 48.98 25.3934C41.3625 28.1803 43.6539 38.8943 57.0929 35.6739C61.2422 34.6831 60.4991 34.4353 61.1184 30.3479C61.8616 25.5792 63.5337 19.5719 56.9071 17.9617C55.0492 17.5282 50.3424 17.7759 48.5464 18.3953L47.3698 22.235ZM109.486 25.2076L101.373 25.2696C101.931 20.2532 110.291 18.7049 109.486 25.2076ZM111.158 31.7723C108.805 32.2058 106.947 33.1348 104.284 32.7013C101.931 32.2678 100.568 31.0291 100.754 28.3042H113.388C113.76 24.5264 114.441 18.8907 108.124 17.8998C96.6666 16.1657 92.3315 30.7195 99.6393 35.0546C102.55 36.7887 109.362 36.2933 110.106 35.1166C110.353 34.8069 111.035 32.3297 111.158 31.7723ZM129.552 31.5865L128.561 34.9927C132.834 37.4699 145.282 36.2933 142.619 28.9235C142.124 27.561 141.071 26.7559 139.832 26.0127C139.027 25.5173 136.736 24.4645 136.24 23.9071C134.754 22.1111 137.293 19.6958 143.301 22.1111C143.672 21.6157 143.734 21.1821 143.982 20.5009C144.229 19.8197 144.353 19.4481 144.539 18.7668C141.319 18.0237 138.222 17.1566 134.754 18.4572C132.153 19.4481 127.694 24.0929 135.002 28.0565C136.117 28.6758 138.036 29.357 137.974 30.7814C137.913 32.3916 135.869 32.7013 134.197 32.6393C132.029 32.6393 131.348 32.082 129.552 31.5865ZM129.056 18.7049C125.836 18.0856 122.492 17.0328 119.086 18.5191C117.661 19.1384 116.732 19.8197 116.113 21.2441C113.388 27.6229 122.987 27.9945 122.554 30.9053C122.306 32.3916 120.324 32.7013 118.652 32.6393C116.732 32.5774 115.865 32.1439 114.255 31.5865C113.76 32.2058 113.264 34.0018 113.202 34.9927C115.432 36.2933 120.696 36.479 123.297 35.612C125.836 34.745 128.747 32.082 127.075 28.5519C125.836 26.0127 121.315 25.0219 120.634 23.5974C119.705 21.7395 121.934 21.1202 123.359 21.0583C125.341 20.9964 126.393 21.5537 128.004 22.1111L129.056 18.7049ZM80.3169 18.7668C76.7869 17.8379 73.3187 17.2186 69.7268 18.7049C63.4098 21.2441 61.5519 30.5337 66.6922 34.4973C69.2313 36.4171 73.1949 36.4171 76.9107 35.7978L78.2113 31.8962C75.734 32.4535 73.4426 33.1348 71.0892 31.7104C67.3734 29.4189 68.2404 23.4117 72.5756 21.8015C75.4244 20.7486 76.7869 21.6157 79.2022 22.173L80.3169 18.7668ZM94.4371 31.9581C91.8361 32.4535 89.8543 33.1348 87.439 31.8342C83.9089 29.9144 84.2186 23.7213 88.8014 21.8634C91.6503 20.6867 93.0127 21.8015 95.428 22.173L96.6047 18.8288C92.8889 17.8379 88.6776 17.1566 85.2095 19.0765C77.7778 23.1639 76.7869 37.7177 91.5883 36.0455C93.1985 35.8597 93.1366 36.0455 93.5701 34.6831C93.8798 33.7541 94.2514 32.8871 94.4371 31.9581Z" fill="#004185"/>
<path d="M19.8725 9.72495L35.2313 25.0219L21.9781 38.275L8.72495 25.0219L15.1038 18.4572H12.5027L6 25.0219L21.9781 41L37.8944 25.0219L19.9344 7L19.8725 9.72495Z" fill="#F57E20"/>
<path d="M19.9344 18.5191L17.1475 18.4572L10.7687 25.0218L21.9781 36.2313L33.1876 25.0218L19.9344 11.7067L19.8725 14.3078L30.5865 25.0218L21.9781 33.6302L13.4317 25.0218L19.9344 18.5191Z" fill="#F57E20"/>
<path d="M21.9162 21.1821L25.8179 25.0218L21.9162 28.8616L18.0146 25.0218L21.9162 21.1821ZM28.4809 25.0218L21.9162 18.4572L15.3516 25.0218L21.9162 31.5865L28.4809 25.0218Z" fill="#F57E20"/>
</svg>
