<svg width="48" height="48" viewBox="0 0 48 48" fill="none" xmlns="http://www.w3.org/2000/svg">
<rect x="0.5" y="0.5" width="47" height="47" rx="23.5" stroke="#D3D3D3"/>
<path d="M17.9605 31C17.8538 31 17.6271 30.98 17.2805 30.94C16.9471 30.8867 16.5738 30.8267 16.1605 30.76C15.7471 30.6933 15.3605 30.6267 15.0005 30.56C14.6538 30.48 14.4071 30.4133 14.2605 30.36C14.2605 30.2133 14.2738 30.0667 14.3005 29.92C14.3405 29.7733 14.3805 29.6667 14.4205 29.6L14.8405 29.54C15.0538 29.5 15.2271 29.4467 15.3605 29.38C15.4938 29.3133 15.5938 29.1533 15.6605 28.9C15.7405 28.6467 15.7938 28.22 15.8205 27.62L16.2805 19.76C16.3071 19.2933 16.3605 18.94 16.4405 18.7C16.5338 18.46 16.6071 18.3267 16.6605 18.3H14.8205C14.7805 18.2333 14.7338 18.1333 14.6805 18C14.6271 17.8533 14.6005 17.6933 14.6005 17.52C14.6671 17.4267 14.7805 17.34 14.9405 17.26C15.1005 17.1667 15.2671 17.0867 15.4405 17.02C15.6138 16.9533 15.7405 16.92 15.8205 16.92H20.4405L23.4605 25C23.6471 24.5467 23.8338 24.0667 24.0205 23.56C24.2205 23.04 24.4071 22.5 24.5805 21.94C24.7671 21.38 24.9538 20.82 25.1405 20.26C25.3405 19.6867 25.5271 19.12 25.7005 18.56C25.8738 18 26.0471 17.4533 26.2205 16.92H32.2605C32.3005 17 32.3538 17.12 32.4205 17.28C32.4871 17.44 32.5271 17.6667 32.5405 17.96L31.7005 18.22C31.4338 18.3 31.2205 18.4 31.0605 18.52C30.9005 18.64 30.7871 18.8067 30.7205 19.02C30.6671 19.22 30.6471 19.5 30.6605 19.86L31.0805 27.96C31.1071 28.36 31.0871 28.68 31.0205 28.92C30.9538 29.1467 30.8805 29.2867 30.8005 29.34L32.5805 29.62C32.6205 29.7 32.6538 29.8067 32.6805 29.94C32.7205 30.06 32.7471 30.2 32.7605 30.36C32.5738 30.52 32.3271 30.6667 32.0205 30.8C31.7138 30.9333 31.4271 31 31.1605 31C31.0005 31 30.7338 30.9867 30.3605 30.96C29.9871 30.9333 29.5671 30.9 29.1005 30.86C28.6338 30.8067 28.1605 30.7533 27.6805 30.7C27.2138 30.6467 26.8071 30.5933 26.4605 30.54C26.1138 30.4733 25.8805 30.42 25.7605 30.38C25.7605 30.22 25.7805 30.06 25.8205 29.9C25.8738 29.74 25.9138 29.6333 25.9405 29.58L26.8005 29.52C27.0405 29.4933 27.2338 29.4467 27.3805 29.38C27.5405 29.3133 27.6538 29.1333 27.7205 28.84C27.7871 28.5467 27.7938 28.0667 27.7405 27.4L27.3605 21.38C27.3338 20.8467 27.3338 20.42 27.3605 20.1C27.4005 19.7667 27.4471 19.56 27.5005 19.48L27.3405 19.4L23.7405 29.32C23.5538 29.3867 23.2538 29.4533 22.8405 29.52C22.4405 29.5867 22.0205 29.62 21.5805 29.62L18.6605 21.46C18.5005 21.0067 18.3738 20.58 18.2805 20.18C18.2005 19.78 18.1605 19.5067 18.1605 19.36H18.0405C18.0271 19.4267 18.0005 19.6067 17.9605 19.9C17.9338 20.1933 17.9071 20.5533 17.8805 20.98L17.5205 28.22C17.5071 28.4067 17.4738 28.6133 17.4205 28.84C17.3671 29.0533 17.3071 29.22 17.2405 29.34L19.6605 29.62C19.6871 29.7 19.7205 29.7933 19.7605 29.9C19.8005 30.0067 19.8271 30.16 19.8405 30.36C19.6938 30.48 19.5005 30.5867 19.2605 30.68C19.0338 30.7733 18.8005 30.8533 18.5605 30.92C18.3205 30.9733 18.1205 31 17.9605 31Z" fill="#D3D3D3"/>
</svg>
