<svg width="513" height="200" viewBox="0 0 513 200" fill="none" xmlns="http://www.w3.org/2000/svg">
<g clip-path="url(#clip0_6002_5767)">
<path d="M52 2.0625C50.5312 1.15625 48.8438 0.625 47 0.625V2.0625H52Z" fill="#B22334"/>
<path d="M47 3.5H53.75C53.2187 2.96875 52.625 2.46875 52 2.0625H47V3.5Z" fill="white"/>
<path d="M47 4.9375H54.9062C54.5625 4.40625 54.1875 3.9375 53.7812 3.5H47V4.9375Z" fill="#B22334"/>
<path d="M47 6.375H55.6563C55.4375 5.875 55.1875 5.375 54.9063 4.9375H47V6.375Z" fill="white"/>
<path d="M47 7.8125H56.125C56 7.3125 55.8438 6.84375 55.6563 6.375H47V7.8125Z" fill="#B22334"/>
<path d="M47 9.28125H56.3438C56.3125 8.78125 56.2187 8.3125 56.125 7.84375H47V9.28125Z" fill="white"/>
<path d="M56.3438 9.28125H47V10H37.625C37.625 10.25 37.625 10.4687 37.6562 10.7187H56.3438C56.375 10.4687 56.375 10.25 56.375 10C56.375 9.75 56.375 9.5 56.3438 9.28125Z" fill="#B22334"/>
<path d="M37.875 12.1563H56.125C56.25 11.6875 56.3125 11.2188 56.3438 10.7188H37.6562C37.6875 11.1875 37.7812 11.6875 37.875 12.1563Z" fill="white"/>
<path d="M38.3438 13.5937H55.6563C55.8438 13.125 56 12.6562 56.125 12.1562H37.875C38 12.6562 38.1563 13.125 38.3438 13.5937Z" fill="#B22334"/>
<path d="M39.0937 15.0312H54.9063C55.1875 14.5625 55.4375 14.0938 55.6563 13.5938H38.3438C38.5625 14.0938 38.8125 14.5625 39.0937 15.0312Z" fill="white"/>
<path d="M40.2188 16.4688H53.7812C54.1875 16.0313 54.5938 15.5312 54.9062 15.0312H39.0938C39.4062 15.5625 39.8125 16.0313 40.2188 16.4688Z" fill="#B22334"/>
<path d="M41.9687 17.9062H52.0312C52.6875 17.5 53.25 17 53.7812 16.4688H40.2188C40.75 17.0312 41.3437 17.5 41.9687 17.9062Z" fill="white"/>
<path d="M47 19.375C48.8438 19.375 50.5625 18.8438 52.0312 17.9062H41.9688C43.4375 18.8438 45.1562 19.375 47 19.375Z" fill="#B22334"/>
<path d="M42 2.0625C41.3438 2.46875 40.75 2.96875 40.2188 3.5C39.7812 3.9375 39.4062 4.4375 39.0938 4.9375C38.8125 5.40625 38.5313 5.875 38.3438 6.375C38.1563 6.84375 38 7.3125 37.875 7.8125C37.75 8.28125 37.6875 8.75 37.6562 9.25C37.625 9.5 37.625 9.75 37.625 10H47V0.625C45.1562 0.625 43.4688 1.15625 42 2.0625Z" fill="#3C3B6E"/>
<path d="M44.8125 0.9375L44.9688 1.40625H45.4375L45.0625 1.71875L45.1875 2.1875L44.8125 1.90625L44.4375 2.1875L44.5625 1.71875L44.1875 1.40625H44.6562L44.8125 0.9375ZM46.0625 2.8125L46.2188 3.28125H46.6875L46.3125 3.59375L46.4375 4.0625L46.0625 3.78125L45.6875 4.0625L45.8125 3.59375L45.4375 3.28125H45.9062L46.0625 2.8125ZM43.5625 2.8125L43.7188 3.28125H44.1875L43.8125 3.59375L43.9375 4.0625L43.5625 3.78125L43.1875 4.0625L43.3125 3.59375L42.9375 3.28125H43.4062L43.5625 2.8125ZM44.8125 4.6875L44.9688 5.15625H45.4375L45.0625 5.46875L45.1875 5.9375L44.8125 5.65625L44.4375 5.9375L44.5625 5.46875L44.1875 5.15625H44.6562L44.8125 4.6875ZM42.3125 4.6875L42.4688 5.15625H42.9375L42.5625 5.46875L42.6875 5.9375L42.3125 5.65625L41.9375 5.9375L42.0625 5.46875L41.6875 5.15625H42.1562L42.3125 4.6875ZM39.8125 4.6875L39.9688 5.15625H40.4375L40.0625 5.46875L40.1875 5.9375L39.8125 5.65625L39.4375 5.9375L39.5625 5.46875L39.1875 5.15625H39.6562L39.8125 4.6875ZM46.0625 6.5625L46.2188 7.03125H46.6875L46.3125 7.34375L46.4375 7.8125L46.0625 7.53125L45.6875 7.8125L45.8125 7.34375L45.4375 7.03125H45.9062L46.0625 6.5625ZM43.5625 6.5625L43.7188 7.03125H44.1875L43.8125 7.34375L43.9375 7.8125L43.5625 7.53125L43.1875 7.8125L43.3125 7.34375L42.9375 7.03125H43.4062L43.5625 6.5625ZM41.0625 6.5625L41.2188 7.03125H41.6875L41.3125 7.34375L41.4375 7.8125L41.0625 7.53125L40.6875 7.8125L40.8125 7.34375L40.4375 7.03125H40.9062L41.0625 6.5625ZM44.8125 8.4375L44.9688 8.90625H45.4375L45.0625 9.21875L45.1875 9.6875L44.8125 9.40625L44.4375 9.6875L44.5625 9.21875L44.1875 8.90625H44.6562L44.8125 8.4375ZM42.3125 8.4375L42.4688 8.90625H42.9375L42.5625 9.21875L42.6875 9.6875L42.3125 9.40625L41.9375 9.6875L42.0625 9.21875L41.6875 8.90625H42.1562L42.3125 8.4375ZM39.8125 8.4375L39.9688 8.90625H40.4375L40.0625 9.21875L40.1875 9.6875L39.8125 9.40625L39.4375 9.6875L39.5625 9.21875L39.1875 8.90625H39.6562L39.8125 8.4375ZM40.6875 4.0625L41.0625 3.78125L41.4375 4.0625L41.2812 3.59375L41.6562 3.28125H41.1875L41.0625 2.8125L40.9062 3.28125H40.4688L40.8438 3.5625L40.6875 4.0625ZM38.1875 7.8125L38.5625 7.53125L38.9375 7.8125L38.7812 7.34375L39.1562 7.03125H38.7188L38.5625 6.5625L38.4062 7.03125H38.0937C38.0937 7.0625 38.0625 7.09375 38.0625 7.125L38.3125 7.3125L38.1875 7.8125Z" fill="white"/>
</g>
<path d="M27.8658 35H27.0958L24.9058 29.09V35H24.0058V27.82H25.3158L27.4958 33.72L29.6858 27.82H30.9558V35H30.0658V29.09L27.8658 35ZM37.001 32.39C37.001 34.01 36.001 35.11 34.571 35.11C33.141 35.11 32.141 34.01 32.141 32.39C32.141 30.77 33.141 29.67 34.571 29.67C36.001 29.67 37.001 30.77 37.001 32.39ZM33.051 32.39C33.051 33.58 33.651 34.34 34.571 34.34C35.491 34.34 36.091 33.58 36.091 32.39C36.091 31.19 35.491 30.43 34.571 30.43C33.651 30.43 33.051 31.19 33.051 32.39ZM38.1455 35V29.77H39.0455V30.48C39.3455 30.05 39.8655 29.67 40.6055 29.67C41.7155 29.67 42.3455 30.44 42.3455 31.55V35H41.4455V31.79C41.4455 31.06 41.1355 30.51 40.3555 30.51C39.7055 30.51 39.0455 31.01 39.0455 31.88V35H38.1455ZM43.93 33.75V30.54H43.12V29.77H43.93V28.24H44.82V29.77H46.01V30.54H44.82V33.61C44.82 34.16 45.09 34.26 45.55 34.26C45.76 34.26 45.91 34.25 46.12 34.2V34.97C45.89 35.02 45.63 35.05 45.33 35.05C44.44 35.05 43.93 34.75 43.93 33.75ZM49.8985 29.75V30.66C49.7485 30.63 49.6285 30.62 49.4585 30.62C48.6985 30.62 48.0885 31.22 48.0885 32.14V35H47.1885V29.77H48.0885V30.66C48.3185 30.13 48.8285 29.73 49.5385 29.73C49.6785 29.73 49.8085 29.74 49.8985 29.75ZM52.0922 35.09C51.1422 35.09 50.3722 34.53 50.3722 33.59C50.3722 32.55 51.1822 32.12 52.3522 31.88L53.6222 31.62V31.4C53.6222 30.8 53.2922 30.46 52.5922 30.46C51.9322 30.46 51.5422 30.77 51.3822 31.35L50.5322 31.13C50.7822 30.28 51.5522 29.67 52.6222 29.67C53.7922 29.67 54.5122 30.24 54.5122 31.36V33.91C54.5122 34.25 54.7222 34.36 55.0722 34.28V35C54.2722 35.1 53.8122 34.91 53.7022 34.41C53.3822 34.82 52.8022 35.09 52.0922 35.09ZM53.6222 33.22V32.32L52.6022 32.54C51.8022 32.7 51.2622 32.92 51.2622 33.55C51.2622 34.06 51.6322 34.36 52.2022 34.36C52.9722 34.36 53.6222 33.89 53.6222 33.22ZM59.1553 27.82V35H58.1953V27.82H59.1553ZM60.6943 35V29.77H61.5943V30.48C61.8943 30.05 62.4143 29.67 63.1543 29.67C64.2643 29.67 64.8943 30.44 64.8943 31.55V35H63.9943V31.79C63.9943 31.06 63.6843 30.51 62.9043 30.51C62.2543 30.51 61.5943 31.01 61.5943 31.88V35H60.6943ZM66.8789 32.39C66.8789 33.58 67.5189 34.32 68.4489 34.32C69.1689 34.32 69.5989 33.86 69.7489 33.21L70.5489 33.58C70.2989 34.45 69.5389 35.11 68.4489 35.11C66.9889 35.11 65.9789 34 65.9789 32.39C65.9789 30.77 66.9889 29.67 68.4489 29.67C69.5389 29.67 70.2789 30.3 70.5289 31.17L69.7489 31.56C69.5989 30.92 69.1689 30.45 68.4489 30.45C67.5189 30.45 66.8789 31.19 66.8789 32.39Z" fill="black"/>
<path fill-rule="evenodd" clip-rule="evenodd" d="M12.8817 54.9214L10.3273 50.948C9.03758 48.9417 9.59473 46.2718 11.5792 44.9488C13.0471 43.9702 14.9594 43.9702 16.4273 44.9488C18.4118 46.2718 18.969 48.9417 17.6792 50.9479L15.1249 54.9214C14.6 55.7379 13.4066 55.7379 12.8817 54.9214ZM14.0033 50.9994C15.2919 50.9994 16.3366 49.9548 16.3366 48.6661C16.3366 47.3774 15.2919 46.3328 14.0033 46.3328C12.7146 46.3328 11.67 47.3774 11.67 48.6661C11.67 49.9548 12.7146 50.9994 14.0033 50.9994Z" fill="#3C3B6E"/>
<path d="M22.9603 53V45.82H25.3603C27.5903 45.82 28.9703 47.22 28.9703 49.41C28.9703 51.6 27.5903 53 25.3603 53H22.9603ZM24.2103 51.9H25.3603C26.8403 51.9 27.7103 50.92 27.7103 49.41C27.7103 47.89 26.8403 46.92 25.3503 46.92H24.2103V51.9ZM32.142 53.11C30.642 53.11 29.592 52 29.592 50.38C29.592 48.84 30.632 47.65 32.092 47.65C33.612 47.65 34.422 48.8 34.422 50.24V50.64H30.742C30.832 51.54 31.372 52.09 32.142 52.09C32.732 52.09 33.202 51.79 33.362 51.25L34.392 51.64C34.022 52.56 33.192 53.11 32.142 53.11ZM32.082 48.66C31.462 48.66 30.982 49.03 30.802 49.74H33.212C33.202 49.16 32.842 48.66 32.082 48.66ZM36.5224 45.82V53H35.3224V45.82H36.5224ZM39.1733 53.09C38.1733 53.09 37.4033 52.48 37.4033 51.54C37.4033 50.54 38.1533 50.1 39.1633 49.89L40.6133 49.59V49.5C40.6133 49 40.3533 48.69 39.7133 48.69C39.1433 48.69 38.8433 48.95 38.7033 49.46L37.5733 49.2C37.8333 48.33 38.6033 47.65 39.7633 47.65C41.0233 47.65 41.7833 48.25 41.7833 49.46V51.72C41.7833 52.02 41.9133 52.11 42.2433 52.07V53C41.3733 53.1 40.9133 52.93 40.7333 52.5C40.4033 52.87 39.8533 53.09 39.1733 53.09ZM40.6133 51.15V50.51L39.4833 50.75C38.9733 50.86 38.5933 51.02 38.5933 51.49C38.5933 51.9 38.8933 52.13 39.3533 52.13C39.9933 52.13 40.6133 51.79 40.6133 51.15ZM45.4982 47.75H46.4882L47.4282 51.23L48.3582 47.75H49.5482L47.9682 53H46.9282L45.9682 49.56L45.0082 53H43.9682L42.3882 47.75H43.6182L44.5682 51.23L45.4982 47.75ZM51.4389 53.09C50.4389 53.09 49.6689 52.48 49.6689 51.54C49.6689 50.54 50.4189 50.1 51.4289 49.89L52.8789 49.59V49.5C52.8789 49 52.6189 48.69 51.9789 48.69C51.4089 48.69 51.1089 48.95 50.9689 49.46L49.8389 49.2C50.0989 48.33 50.8689 47.65 52.0289 47.65C53.2889 47.65 54.0489 48.25 54.0489 49.46V51.72C54.0489 52.02 54.1789 52.11 54.5089 52.07V53C53.6389 53.1 53.1789 52.93 52.9989 52.5C52.6689 52.87 52.1189 53.09 51.4389 53.09ZM52.8789 51.15V50.51L51.7489 50.75C51.2389 50.86 50.8589 51.02 50.8589 51.49C50.8589 51.9 51.1589 52.13 51.6189 52.13C52.2589 52.13 52.8789 51.79 52.8789 51.15ZM58.3414 47.74V48.94C58.1914 48.92 58.0714 48.91 57.9014 48.91C57.1414 48.91 56.5614 49.4 56.5614 50.24V53H55.3614V47.75H56.5614V48.53C56.7914 48.04 57.3314 47.72 58.0014 47.72C58.1414 47.72 58.2514 47.73 58.3414 47.74ZM61.1361 53.11C59.6361 53.11 58.5861 52 58.5861 50.38C58.5861 48.84 59.6261 47.65 61.0861 47.65C62.6061 47.65 63.4161 48.8 63.4161 50.24V50.64H59.7361C59.8261 51.54 60.3661 52.09 61.1361 52.09C61.7261 52.09 62.1961 51.79 62.3561 51.25L63.3861 51.64C63.0161 52.56 62.1861 53.11 61.1361 53.11ZM61.0761 48.66C60.4561 48.66 59.9761 49.03 59.7961 49.74H62.2061C62.1961 49.16 61.8361 48.66 61.0761 48.66ZM64.0865 53V51.55H65.5365V53.07C65.5365 53.91 64.9665 54.42 64.0865 54.43V53.76C64.5365 53.73 64.7465 53.52 64.7465 53.08V53H64.0865ZM71.4532 53.1C69.7432 53.1 68.5632 52.13 68.5632 50.15V45.82H69.8432V50.11C69.8432 51.42 70.4932 51.97 71.4532 51.97C72.4232 51.97 73.0732 51.42 73.0732 50.11V45.82H74.3532V50.15C74.3532 52.13 73.1732 53.1 71.4532 53.1ZM74.8768 51.6L75.8568 50.79C76.3568 51.57 77.1068 52.02 77.9268 52.02C78.7368 52.02 79.3468 51.65 79.3468 50.96C79.3468 50.23 78.5968 50.13 77.5268 49.87C76.4468 49.61 75.2868 49.29 75.2868 47.89C75.2868 46.56 76.4268 45.71 77.8768 45.71C79.1068 45.71 80.0668 46.29 80.5468 47.04L79.6068 47.85C79.2068 47.23 78.6768 46.8 77.8368 46.8C77.0668 46.8 76.5368 47.19 76.5368 47.76C76.5368 48.39 77.0868 48.52 78.0568 48.74C79.2168 49 80.6068 49.27 80.6068 50.83C80.6068 52.24 79.3668 53.11 77.8868 53.11C76.6568 53.11 75.4368 52.52 74.8768 51.6ZM83.4499 45.82H84.8999L87.6199 53H86.3299L85.7099 51.36H82.6099L81.9999 53H80.7299L83.4499 45.82ZM84.1499 47.24L83.0299 50.24H85.2899L84.1499 47.24Z" fill="black"/>
<path d="M5.74172 73V72.26C5.45172 72.74 4.75172 73.11 3.81172 73.11C1.95172 73.11 0.571719 71.61 0.571719 69.44C0.571719 67.26 1.96172 65.71 3.89172 65.71C5.36172 65.71 6.35172 66.5 6.79172 67.77L5.57172 68.18C5.36172 67.33 4.76172 66.84 3.90172 66.84C2.69172 66.84 1.85172 67.87 1.85172 69.42C1.85172 70.97 2.69172 72.01 3.92172 72.01C4.96172 72.01 5.64172 71.27 5.68172 70.25H3.79172V69.13H6.91172V73H5.74172ZM9.35734 65.82V73H8.15734V65.82H9.35734ZM15.3483 70.38C15.3483 72.01 14.2983 73.11 12.8183 73.11C11.3383 73.11 10.2883 72.01 10.2883 70.38C10.2883 68.75 11.3383 67.65 12.8183 67.65C14.2983 67.65 15.3483 68.75 15.3483 70.38ZM11.4983 70.38C11.4983 71.45 12.0083 72.1 12.8183 72.1C13.6283 72.1 14.1383 71.45 14.1383 70.38C14.1383 69.31 13.6283 68.66 12.8183 68.66C12.0083 68.66 11.4983 69.31 11.4983 70.38ZM18.9923 73.11C18.3123 73.11 17.8123 72.84 17.4823 72.45V73H16.2823V65.82H17.4823V68.31C17.8123 67.92 18.3123 67.65 18.9923 67.65C20.4623 67.65 21.3023 68.89 21.3023 70.38C21.3023 71.87 20.4623 73.11 18.9923 73.11ZM17.4523 70.23V70.54C17.4523 71.51 18.0123 72.06 18.7523 72.06C19.6223 72.06 20.0923 71.38 20.0923 70.38C20.0923 69.38 19.6223 68.7 18.7523 68.7C18.0123 68.7 17.4523 69.24 17.4523 70.23ZM23.6196 73.09C22.6196 73.09 21.8496 72.48 21.8496 71.54C21.8496 70.54 22.5996 70.1 23.6096 69.89L25.0596 69.59V69.5C25.0596 69 24.7996 68.69 24.1596 68.69C23.5896 68.69 23.2896 68.95 23.1496 69.46L22.0196 69.2C22.2796 68.33 23.0496 67.65 24.2096 67.65C25.4696 67.65 26.2296 68.25 26.2296 69.46V71.72C26.2296 72.02 26.3596 72.11 26.6896 72.07V73C25.8196 73.1 25.3596 72.93 25.1796 72.5C24.8496 72.87 24.2996 73.09 23.6196 73.09ZM25.0596 71.15V70.51L23.9296 70.75C23.4196 70.86 23.0396 71.02 23.0396 71.49C23.0396 71.9 23.3396 72.13 23.7996 72.13C24.4396 72.13 25.0596 71.79 25.0596 71.15ZM28.7421 65.82V73H27.5421V65.82H28.7421ZM36.8336 65.82H38.1136V73H36.8336V69.86H33.3936V73H32.1136V65.82H33.3936V68.74H36.8336V65.82ZM41.6469 73.11C40.1469 73.11 39.0969 72 39.0969 70.38C39.0969 68.84 40.1369 67.65 41.5969 67.65C43.1169 67.65 43.9269 68.8 43.9269 70.24V70.64H40.2469C40.3369 71.54 40.8769 72.09 41.6469 72.09C42.2369 72.09 42.7069 71.79 42.8669 71.25L43.8969 71.64C43.5269 72.56 42.6969 73.11 41.6469 73.11ZM41.5869 68.66C40.9669 68.66 40.4869 69.03 40.3069 69.74H42.7169C42.7069 69.16 42.3469 68.66 41.5869 68.66ZM46.3149 73.09C45.3149 73.09 44.5449 72.48 44.5449 71.54C44.5449 70.54 45.2949 70.1 46.3049 69.89L47.7549 69.59V69.5C47.7549 69 47.4949 68.69 46.8549 68.69C46.2849 68.69 45.9849 68.95 45.8449 69.46L44.7149 69.2C44.9749 68.33 45.7449 67.65 46.9049 67.65C48.1649 67.65 48.9249 68.25 48.9249 69.46V71.72C48.9249 72.02 49.0549 72.11 49.3849 72.07V73C48.5149 73.1 48.0549 72.93 47.8749 72.5C47.5449 72.87 46.9949 73.09 46.3149 73.09ZM47.7549 71.15V70.51L46.6249 70.75C46.1149 70.86 45.7349 71.02 45.7349 71.49C45.7349 71.9 46.0349 72.13 46.4949 72.13C47.1349 72.13 47.7549 71.79 47.7549 71.15ZM52.2174 73.11C50.7474 73.11 49.9074 71.87 49.9074 70.38C49.9074 68.89 50.7474 67.65 52.2174 67.65C52.8974 67.65 53.3974 67.92 53.7274 68.31V65.82H54.9274V73H53.7274V72.45C53.3974 72.84 52.8974 73.11 52.2174 73.11ZM53.7574 70.23C53.7574 69.24 53.1974 68.7 52.4574 68.7C51.5874 68.7 51.1174 69.38 51.1174 70.38C51.1174 71.38 51.5874 72.06 52.4574 72.06C53.1974 72.06 53.7574 71.51 53.7574 70.54V70.23ZM58.1647 73.11C56.6947 73.11 55.8547 71.87 55.8547 70.38C55.8547 68.89 56.6947 67.65 58.1647 67.65C58.8447 67.65 59.3447 67.92 59.6747 68.31V67.75H60.8747V74.8H59.6747V72.45C59.3447 72.84 58.8447 73.11 58.1647 73.11ZM59.7047 70.23C59.7047 69.24 59.1447 68.7 58.4047 68.7C57.5347 68.7 57.0647 69.38 57.0647 70.38C57.0647 71.38 57.5347 72.06 58.4047 72.06C59.1447 72.06 59.7047 71.51 59.7047 70.54V70.23ZM66.502 67.75V73H65.302V72.44C65.002 72.79 64.552 73.11 63.872 73.11C62.772 73.11 62.092 72.36 62.092 71.23V67.75H63.292V70.97C63.292 71.61 63.572 72.02 64.222 72.02C64.762 72.02 65.302 71.62 65.302 70.87V67.75H66.502ZM69.1567 73.09C68.1567 73.09 67.3867 72.48 67.3867 71.54C67.3867 70.54 68.1367 70.1 69.1467 69.89L70.5967 69.59V69.5C70.5967 69 70.3367 68.69 69.6967 68.69C69.1267 68.69 68.8267 68.95 68.6867 69.46L67.5567 69.2C67.8167 68.33 68.5867 67.65 69.7467 67.65C71.0067 67.65 71.7667 68.25 71.7667 69.46V71.72C71.7667 72.02 71.8967 72.11 72.2267 72.07V73C71.3567 73.1 70.8967 72.93 70.7167 72.5C70.3867 72.87 69.8367 73.09 69.1567 73.09ZM70.5967 71.15V70.51L69.4667 70.75C68.9567 70.86 68.5767 71.02 68.5767 71.49C68.5767 71.9 68.8767 72.13 69.3367 72.13C69.9767 72.13 70.5967 71.79 70.5967 71.15ZM76.0592 67.74V68.94C75.9092 68.92 75.7892 68.91 75.6192 68.91C74.8592 68.91 74.2792 69.4 74.2792 70.24V73H73.0792V67.75H74.2792V68.53C74.5092 68.04 75.0492 67.72 75.7192 67.72C75.8592 67.72 75.9692 67.73 76.0592 67.74ZM77.0955 71.68V68.77H76.3655V67.75H77.0955V66.21H78.2755V67.75H79.3755V68.77H78.2755V71.49C78.2755 71.96 78.5455 72.01 78.9755 72.01C79.1755 72.01 79.2855 72 79.4655 71.98V72.99C79.2455 73.03 78.9455 73.06 78.6355 73.06C77.6355 73.06 77.0955 72.75 77.0955 71.68ZM82.5355 73.11C81.0355 73.11 79.9855 72 79.9855 70.38C79.9855 68.84 81.0255 67.65 82.4855 67.65C84.0055 67.65 84.8155 68.8 84.8155 70.24V70.64H81.1355C81.2255 71.54 81.7655 72.09 82.5355 72.09C83.1255 72.09 83.5955 71.79 83.7555 71.25L84.7855 71.64C84.4155 72.56 83.5855 73.11 82.5355 73.11ZM82.4755 68.66C81.8555 68.66 81.3755 69.03 81.1955 69.74H83.6055C83.5955 69.16 83.2355 68.66 82.4755 68.66ZM88.6959 67.74V68.94C88.5459 68.92 88.4259 68.91 88.2559 68.91C87.4959 68.91 86.9159 69.4 86.9159 70.24V73H85.7159V67.75H86.9159V68.53C87.1459 68.04 87.6859 67.72 88.3559 67.72C88.4959 67.72 88.6059 67.73 88.6959 67.74ZM88.8769 72L89.7769 71.28C90.0869 71.79 90.6869 72.13 91.2969 72.13C91.8069 72.13 92.2769 71.95 92.2769 71.48C92.2769 71.03 91.8369 70.98 91.0069 70.81C90.1769 70.64 89.2269 70.43 89.2269 69.31C89.2269 68.35 90.0669 67.65 91.2769 67.65C92.1969 67.65 93.0169 68.06 93.3969 68.64L92.5869 69.37C92.2869 68.9 91.7869 68.63 91.2069 68.63C90.7169 68.63 90.3969 68.85 90.3969 69.2C90.3969 69.58 90.7769 69.65 91.4369 69.79C92.3269 69.98 93.4469 70.17 93.4469 71.37C93.4469 72.43 92.4769 73.11 91.2869 73.11C90.3169 73.11 89.3469 72.72 88.8769 72Z" fill="#00BAF2"/>
<path d="M226.125 121C226.125 125.094 228.75 128.562 232.375 129.844V112.156C228.75 113.437 226.125 116.906 226.125 121ZM244.875 121C244.875 116.906 242.281 113.437 238.625 112.156V129.844C242.281 128.562 244.875 125.094 244.875 121Z" fill="#009A49"/>
<path d="M232.375 129.844C233.344 130.188 234.406 130.375 235.5 130.375C236.594 130.375 237.656 130.188 238.625 129.844V112.156C237.656 111.812 236.594 111.625 235.5 111.625C234.406 111.625 233.344 111.812 232.375 112.156V129.844Z" fill="#F9F9F9"/>
<path d="M197.259 146H196.489L194.299 140.09V146H193.399V138.82H194.709L196.889 144.72L199.079 138.82H200.349V146H199.459V140.09L197.259 146ZM206.395 143.39C206.395 145.01 205.395 146.11 203.965 146.11C202.535 146.11 201.535 145.01 201.535 143.39C201.535 141.77 202.535 140.67 203.965 140.67C205.395 140.67 206.395 141.77 206.395 143.39ZM202.445 143.39C202.445 144.58 203.045 145.34 203.965 145.34C204.885 145.34 205.485 144.58 205.485 143.39C205.485 142.19 204.885 141.43 203.965 141.43C203.045 141.43 202.445 142.19 202.445 143.39ZM207.539 146V140.77H208.439V141.48C208.739 141.05 209.259 140.67 209.999 140.67C211.109 140.67 211.739 141.44 211.739 142.55V146H210.839V142.79C210.839 142.06 210.529 141.51 209.749 141.51C209.099 141.51 208.439 142.01 208.439 142.88V146H207.539ZM213.324 144.75V141.54H212.514V140.77H213.324V139.24H214.214V140.77H215.404V141.54H214.214V144.61C214.214 145.16 214.484 145.26 214.944 145.26C215.154 145.26 215.304 145.25 215.514 145.2V145.97C215.284 146.02 215.024 146.05 214.724 146.05C213.834 146.05 213.324 145.75 213.324 144.75ZM219.292 140.75V141.66C219.142 141.63 219.022 141.62 218.852 141.62C218.092 141.62 217.482 142.22 217.482 143.14V146H216.582V140.77H217.482V141.66C217.712 141.13 218.222 140.73 218.932 140.73C219.072 140.73 219.202 140.74 219.292 140.75ZM221.486 146.09C220.536 146.09 219.766 145.53 219.766 144.59C219.766 143.55 220.576 143.12 221.746 142.88L223.016 142.62V142.4C223.016 141.8 222.686 141.46 221.986 141.46C221.326 141.46 220.936 141.77 220.776 142.35L219.926 142.13C220.176 141.28 220.946 140.67 222.016 140.67C223.186 140.67 223.906 141.24 223.906 142.36V144.91C223.906 145.25 224.116 145.36 224.466 145.28V146C223.666 146.1 223.206 145.91 223.096 145.41C222.776 145.82 222.196 146.09 221.486 146.09ZM223.016 144.22V143.32L221.996 143.54C221.196 143.7 220.656 143.92 220.656 144.55C220.656 145.06 221.026 145.36 221.596 145.36C222.366 145.36 223.016 144.89 223.016 144.22ZM232.789 139.66H230.359V146H229.399V139.66H226.969V138.82H232.789V139.66ZM234.688 146.11C233.238 146.11 232.238 145 232.238 143.39C232.238 141.83 233.228 140.67 234.648 140.67C236.108 140.67 236.878 141.78 236.878 143.23V143.53H233.098C233.148 144.63 233.778 145.33 234.688 145.33C235.388 145.33 235.888 144.95 236.048 144.33L236.838 144.61C236.518 145.54 235.728 146.11 234.688 146.11ZM234.638 141.44C233.878 141.44 233.308 141.95 233.148 142.84H235.968C235.948 142.1 235.548 141.44 234.638 141.44ZM238.538 143.39C238.538 144.58 239.178 145.32 240.108 145.32C240.828 145.32 241.258 144.86 241.408 144.21L242.208 144.58C241.958 145.45 241.198 146.11 240.108 146.11C238.648 146.11 237.638 145 237.638 143.39C237.638 141.77 238.648 140.67 240.108 140.67C241.198 140.67 241.938 141.3 242.188 142.17L241.408 142.56C241.258 141.92 240.828 141.45 240.108 141.45C239.178 141.45 238.538 142.19 238.538 143.39ZM243.193 146V138.82H244.093V141.48C244.393 141.05 244.913 140.67 245.653 140.67C246.763 140.67 247.393 141.44 247.393 142.55V146H246.493V142.79C246.493 142.06 246.183 141.51 245.403 141.51C244.753 141.51 244.093 142.01 244.093 142.88V146H243.193ZM248.838 146V140.77H249.738V141.48C250.038 141.05 250.558 140.67 251.298 140.67C252.408 140.67 253.038 141.44 253.038 142.55V146H252.138V142.79C252.138 142.06 251.828 141.51 251.048 141.51C250.398 141.51 249.738 142.01 249.738 142.88V146H248.838ZM258.982 143.39C258.982 145.01 257.982 146.11 256.552 146.11C255.122 146.11 254.122 145.01 254.122 143.39C254.122 141.77 255.122 140.67 256.552 140.67C257.982 140.67 258.982 141.77 258.982 143.39ZM255.032 143.39C255.032 144.58 255.632 145.34 256.552 145.34C257.472 145.34 258.072 144.58 258.072 143.39C258.072 142.19 257.472 141.43 256.552 141.43C255.632 141.43 255.032 142.19 255.032 143.39ZM261.027 138.82V146H260.127V138.82H261.027ZM267.029 143.39C267.029 145.01 266.029 146.11 264.599 146.11C263.169 146.11 262.169 145.01 262.169 143.39C262.169 141.77 263.169 140.67 264.599 140.67C266.029 140.67 267.029 141.77 267.029 143.39ZM263.079 143.39C263.079 144.58 263.679 145.34 264.599 145.34C265.519 145.34 266.119 144.58 266.119 143.39C266.119 142.19 265.519 141.43 264.599 141.43C263.679 141.43 263.079 142.19 263.079 143.39ZM272.604 145.53C272.604 147.06 271.594 147.91 270.174 147.91C269.024 147.91 268.184 147.38 267.894 146.42L268.734 146.1C268.904 146.77 269.444 147.16 270.174 147.16C271.094 147.16 271.704 146.69 271.704 145.6V145.01C271.424 145.52 270.834 145.88 270.104 145.88C268.674 145.88 267.834 144.7 267.834 143.27C267.834 141.85 268.674 140.67 270.104 140.67C270.824 140.67 271.424 141.03 271.704 141.54V140.77H272.604V145.53ZM271.714 143.19C271.714 142.02 271.014 141.46 270.264 141.46C269.314 141.46 268.734 142.17 268.734 143.27C268.734 144.37 269.314 145.09 270.264 145.09C271.014 145.09 271.714 144.53 271.714 143.38V143.19ZM276.012 146.57C275.712 147.36 275.302 147.86 274.392 147.86C274.172 147.86 274.062 147.85 273.902 147.82V147.04C274.072 147.08 274.182 147.09 274.332 147.09C274.722 147.09 274.932 146.95 275.142 146.43L275.392 145.81L273.452 140.77H274.402L275.872 144.77L277.322 140.77H278.262L276.012 146.57ZM195.535 158.52L196.285 157.92C196.735 158.78 197.545 159.28 198.475 159.28C199.405 159.28 200.125 158.82 200.125 158C200.125 157.13 199.295 156.98 198.205 156.72C197.075 156.45 195.955 156.14 195.955 154.79C195.955 153.53 197.045 152.71 198.405 152.71C199.655 152.71 200.555 153.31 200.985 154.12L200.255 154.7C199.885 154.01 199.315 153.54 198.385 153.54C197.515 153.54 196.885 154.02 196.885 154.71C196.885 155.47 197.555 155.63 198.565 155.87C199.755 156.15 201.065 156.4 201.065 157.92C201.065 159.26 199.875 160.11 198.455 160.11C197.215 160.11 196.025 159.49 195.535 158.52ZM206.692 157.39C206.692 159.01 205.692 160.11 204.262 160.11C202.832 160.11 201.832 159.01 201.832 157.39C201.832 155.77 202.832 154.67 204.262 154.67C205.692 154.67 206.692 155.77 206.692 157.39ZM202.742 157.39C202.742 158.58 203.342 159.34 204.262 159.34C205.182 159.34 205.782 158.58 205.782 157.39C205.782 156.19 205.182 155.43 204.262 155.43C203.342 155.43 202.742 156.19 202.742 157.39ZM208.737 152.82V160H207.837V152.82H208.737ZM214.389 154.77V160H213.489V159.28C213.189 159.72 212.679 160.11 211.939 160.11C210.819 160.11 210.189 159.34 210.189 158.23V154.77H211.089V158.04C211.089 158.78 211.409 159.28 212.179 159.28C212.829 159.28 213.489 158.79 213.489 157.92V154.77H214.389ZM216.024 158.75V155.54H215.214V154.77H216.024V153.24H216.914V154.77H218.104V155.54H216.914V158.61C216.914 159.16 217.184 159.26 217.644 159.26C217.854 159.26 218.004 159.25 218.214 159.2V159.97C217.984 160.02 217.724 160.05 217.424 160.05C216.534 160.05 216.024 159.75 216.024 158.75ZM219.242 153.86V152.82H220.222V153.86H219.242ZM220.182 154.77V160H219.282V154.77H220.182ZM226.185 157.39C226.185 159.01 225.185 160.11 223.755 160.11C222.325 160.11 221.325 159.01 221.325 157.39C221.325 155.77 222.325 154.67 223.755 154.67C225.185 154.67 226.185 155.77 226.185 157.39ZM222.235 157.39C222.235 158.58 222.835 159.34 223.755 159.34C224.675 159.34 225.275 158.58 225.275 157.39C225.275 156.19 224.675 155.43 223.755 155.43C222.835 155.43 222.235 156.19 222.235 157.39ZM227.329 160V154.77H228.229V155.48C228.529 155.05 229.049 154.67 229.789 154.67C230.899 154.67 231.529 155.44 231.529 156.55V160H230.629V156.79C230.629 156.06 230.319 155.51 229.539 155.51C228.889 155.51 228.229 156.01 228.229 156.88V160H227.329ZM232.394 158.89L233.094 158.38C233.374 158.99 234.014 159.36 234.694 159.36C235.304 159.36 235.844 159.1 235.844 158.53C235.844 157.96 235.344 157.88 234.484 157.7C233.624 157.51 232.724 157.32 232.724 156.25C232.724 155.32 233.534 154.67 234.644 154.67C235.584 154.67 236.354 155.13 236.664 155.75L236.024 156.26C235.754 155.74 235.264 155.41 234.604 155.41C234.004 155.41 233.604 155.71 233.604 156.18C233.604 156.67 234.064 156.76 234.794 156.92C235.694 157.13 236.724 157.31 236.724 158.45C236.724 159.45 235.814 160.11 234.694 160.11C233.744 160.11 232.794 159.7 232.394 158.89ZM239.986 160V152.82H240.946V159.16H244.526V160H239.986ZM245.404 153.86V152.82H246.384V153.86H245.404ZM246.344 154.77V160H245.444V154.77H246.344ZM248.747 156.87V160H247.847V154.77H248.747V155.48C249.027 155.05 249.527 154.67 250.257 154.67C250.957 154.67 251.447 155.02 251.707 155.56C251.997 155.13 252.557 154.67 253.377 154.67C254.457 154.67 255.107 155.44 255.107 156.55V160H254.207V156.79C254.207 156.06 253.907 155.51 253.167 155.51C252.567 155.51 251.927 156.02 251.927 156.87V160H251.027V156.79C251.027 156.06 250.727 155.51 249.987 155.51C249.387 155.51 248.747 156.02 248.747 156.87ZM256.518 153.86V152.82H257.498V153.86H256.518ZM257.458 154.77V160H256.558V154.77H257.458ZM259.1 158.75V155.54H258.29V154.77H259.1V153.24H259.99V154.77H261.18V155.54H259.99V158.61C259.99 159.16 260.26 159.26 260.72 159.26C260.93 159.26 261.08 159.25 261.29 159.2V159.97C261.06 160.02 260.8 160.05 260.5 160.05C259.61 160.05 259.1 159.75 259.1 158.75ZM264.419 160.11C262.969 160.11 261.969 159 261.969 157.39C261.969 155.83 262.959 154.67 264.379 154.67C265.839 154.67 266.609 155.78 266.609 157.23V157.53H262.829C262.879 158.63 263.509 159.33 264.419 159.33C265.119 159.33 265.619 158.95 265.779 158.33L266.569 158.61C266.249 159.54 265.459 160.11 264.419 160.11ZM264.369 155.44C263.609 155.44 263.039 155.95 262.879 156.84H265.699C265.679 156.1 265.279 155.44 264.369 155.44ZM269.649 160.11C268.199 160.11 267.369 158.87 267.369 157.39C267.369 155.9 268.199 154.67 269.649 154.67C270.379 154.67 270.959 155.02 271.269 155.53V152.82H272.169V160H271.269V159.24C270.959 159.76 270.379 160.11 269.649 160.11ZM271.289 157.21C271.289 155.99 270.549 155.46 269.809 155.46C268.829 155.46 268.279 156.26 268.279 157.39C268.279 158.51 268.829 159.32 269.809 159.32C270.549 159.32 271.289 158.78 271.289 157.58V157.21Z" fill="black"/>
<path fill-rule="evenodd" clip-rule="evenodd" d="M200.882 179.921L198.327 175.948C197.038 173.942 197.595 171.272 199.579 169.949C201.047 168.97 202.959 168.97 204.427 169.949C206.412 171.272 206.969 173.942 205.679 175.948L203.125 179.921C202.6 180.738 201.407 180.738 200.882 179.921ZM202.003 175.999C203.292 175.999 204.337 174.955 204.337 173.666C204.337 172.377 203.292 171.333 202.003 171.333C200.715 171.333 199.67 172.377 199.67 173.666C199.67 174.955 200.715 175.999 202.003 175.999Z" fill="#009A49"/>
<path d="M210.733 178V170.82H212.013V176.88H215.393V178H210.733ZM217.659 178.09C216.659 178.09 215.889 177.48 215.889 176.54C215.889 175.54 216.639 175.1 217.649 174.89L219.099 174.59V174.5C219.099 174 218.839 173.69 218.199 173.69C217.629 173.69 217.329 173.95 217.189 174.46L216.059 174.2C216.319 173.33 217.089 172.65 218.249 172.65C219.509 172.65 220.269 173.25 220.269 174.46V176.72C220.269 177.02 220.399 177.11 220.729 177.07V178C219.859 178.1 219.399 177.93 219.219 177.5C218.889 177.87 218.339 178.09 217.659 178.09ZM219.099 176.15V175.51L217.969 175.75C217.459 175.86 217.079 176.02 217.079 176.49C217.079 176.9 217.379 177.13 217.839 177.13C218.479 177.13 219.099 176.79 219.099 176.15ZM226.251 177.47C226.251 179.02 225.191 179.91 223.691 179.91C222.481 179.91 221.631 179.4 221.301 178.38L222.421 177.98C222.581 178.57 223.031 178.94 223.691 178.94C224.501 178.94 225.051 178.54 225.051 177.58V177.21C224.771 177.58 224.241 177.87 223.571 177.87C222.131 177.87 221.271 176.7 221.271 175.26C221.271 173.82 222.131 172.65 223.571 172.65C224.231 172.65 224.771 172.94 225.051 173.31V172.75H226.251V177.47ZM225.071 175.21C225.071 174.25 224.551 173.7 223.801 173.7C222.971 173.7 222.481 174.28 222.481 175.26C222.481 176.23 222.971 176.82 223.801 176.82C224.551 176.82 225.071 176.27 225.071 175.33V175.21ZM232.249 175.38C232.249 177.01 231.199 178.11 229.719 178.11C228.239 178.11 227.189 177.01 227.189 175.38C227.189 173.75 228.239 172.65 229.719 172.65C231.199 172.65 232.249 173.75 232.249 175.38ZM228.399 175.38C228.399 176.45 228.909 177.1 229.719 177.1C230.529 177.1 231.039 176.45 231.039 175.38C231.039 174.31 230.529 173.66 229.719 173.66C228.909 173.66 228.399 174.31 228.399 175.38ZM232.633 177L233.533 176.28C233.843 176.79 234.443 177.13 235.053 177.13C235.563 177.13 236.033 176.95 236.033 176.48C236.033 176.03 235.593 175.98 234.763 175.81C233.933 175.64 232.983 175.43 232.983 174.31C232.983 173.35 233.823 172.65 235.033 172.65C235.953 172.65 236.773 173.06 237.153 173.64L236.343 174.37C236.043 173.9 235.543 173.63 234.963 173.63C234.473 173.63 234.153 173.85 234.153 174.2C234.153 174.58 234.533 174.65 235.193 174.79C236.083 174.98 237.203 175.17 237.203 176.37C237.203 177.43 236.233 178.11 235.043 178.11C234.073 178.11 233.103 177.72 232.633 177ZM237.796 178V176.55H239.246V178.07C239.246 178.91 238.676 179.42 237.796 179.43V178.76C238.246 178.73 238.456 178.52 238.456 178.08V178H237.796ZM248.293 170.82V178H247.173L243.613 172.73V178H242.383V170.82H243.703L247.063 175.85V170.82H248.293ZM249.579 172.05V170.82H250.819V172.05H249.579ZM250.799 172.75V178H249.599V172.75H250.799ZM256.73 177.47C256.73 179.02 255.67 179.91 254.17 179.91C252.96 179.91 252.11 179.4 251.78 178.38L252.9 177.98C253.06 178.57 253.51 178.94 254.17 178.94C254.98 178.94 255.53 178.54 255.53 177.58V177.21C255.25 177.58 254.72 177.87 254.05 177.87C252.61 177.87 251.75 176.7 251.75 175.26C251.75 173.82 252.61 172.65 254.05 172.65C254.71 172.65 255.25 172.94 255.53 173.31V172.75H256.73V177.47ZM255.55 175.21C255.55 174.25 255.03 173.7 254.28 173.7C253.45 173.7 252.96 174.28 252.96 175.26C252.96 176.23 253.45 176.82 254.28 176.82C255.03 176.82 255.55 176.27 255.55 175.33V175.21ZM260.217 178.11C258.717 178.11 257.667 177 257.667 175.38C257.667 173.84 258.707 172.65 260.167 172.65C261.687 172.65 262.497 173.8 262.497 175.24V175.64H258.817C258.907 176.54 259.447 177.09 260.217 177.09C260.807 177.09 261.277 176.79 261.437 176.25L262.467 176.64C262.097 177.56 261.267 178.11 260.217 178.11ZM260.157 173.66C259.537 173.66 259.057 174.03 258.877 174.74H261.287C261.277 174.16 260.917 173.66 260.157 173.66ZM266.378 172.74V173.94C266.228 173.92 266.108 173.91 265.938 173.91C265.178 173.91 264.598 174.4 264.598 175.24V178H263.398V172.75H264.598V173.53C264.828 173.04 265.368 172.72 266.038 172.72C266.178 172.72 266.288 172.73 266.378 172.74ZM267.186 172.05V170.82H268.426V172.05H267.186ZM268.406 172.75V178H267.206V172.75H268.406ZM271.057 178.09C270.057 178.09 269.287 177.48 269.287 176.54C269.287 175.54 270.037 175.1 271.047 174.89L272.497 174.59V174.5C272.497 174 272.237 173.69 271.597 173.69C271.027 173.69 270.727 173.95 270.587 174.46L269.457 174.2C269.717 173.33 270.487 172.65 271.647 172.65C272.907 172.65 273.667 173.25 273.667 174.46V176.72C273.667 177.02 273.797 177.11 274.127 177.07V178C273.257 178.1 272.797 177.93 272.617 177.5C272.287 177.87 271.737 178.09 271.057 178.09ZM272.497 176.15V175.51L271.367 175.75C270.857 175.86 270.477 176.02 270.477 176.49C270.477 176.9 270.777 177.13 271.237 177.13C271.877 177.13 272.497 176.79 272.497 176.15Z" fill="black"/>
<path d="M197.23 198V190.82H200.08C201.62 190.82 202.44 191.49 202.44 192.71C202.44 193.6 201.92 194.06 201.42 194.26C202.17 194.5 202.67 195.12 202.67 196C202.67 197.26 201.74 198 200.26 198H197.23ZM198.46 193.79H199.96C200.78 193.79 201.23 193.47 201.23 192.84C201.23 192.21 200.78 191.9 199.96 191.9H198.46V193.79ZM198.46 194.87V196.92H200.19C201 196.92 201.44 196.5 201.44 195.89C201.44 195.29 201 194.87 200.19 194.87H198.46ZM207.937 192.75V198H206.737V197.44C206.437 197.79 205.987 198.11 205.307 198.11C204.207 198.11 203.527 197.36 203.527 196.23V192.75H204.727V195.97C204.727 196.61 205.007 197.02 205.657 197.02C206.197 197.02 206.737 196.62 206.737 195.87V192.75H207.937ZM208.651 197L209.551 196.28C209.861 196.79 210.461 197.13 211.071 197.13C211.581 197.13 212.051 196.95 212.051 196.48C212.051 196.03 211.611 195.98 210.781 195.81C209.951 195.64 209.001 195.43 209.001 194.31C209.001 193.35 209.841 192.65 211.051 192.65C211.971 192.65 212.791 193.06 213.171 193.64L212.361 194.37C212.061 193.9 211.561 193.63 210.981 193.63C210.491 193.63 210.171 193.85 210.171 194.2C210.171 194.58 210.551 194.65 211.211 194.79C212.101 194.98 213.221 195.17 213.221 196.37C213.221 197.43 212.251 198.11 211.061 198.11C210.091 198.11 209.121 197.72 208.651 197ZM214.123 192.05V190.82H215.363V192.05H214.123ZM215.343 192.75V198H214.143V192.75H215.343ZM216.604 198V192.75H217.804V193.31C218.104 192.96 218.574 192.65 219.254 192.65C220.354 192.65 221.014 193.41 221.014 194.54V198H219.814V194.89C219.814 194.24 219.554 193.77 218.894 193.77C218.354 193.77 217.804 194.17 217.804 194.92V198H216.604ZM224.458 198.11C222.958 198.11 221.908 197 221.908 195.38C221.908 193.84 222.948 192.65 224.408 192.65C225.928 192.65 226.738 193.8 226.738 195.24V195.64H223.058C223.148 196.54 223.688 197.09 224.458 197.09C225.048 197.09 225.518 196.79 225.678 196.25L226.708 196.64C226.338 197.56 225.508 198.11 224.458 198.11ZM224.398 193.66C223.778 193.66 223.298 194.03 223.118 194.74H225.528C225.518 194.16 225.158 193.66 224.398 193.66ZM227.089 197L227.989 196.28C228.299 196.79 228.899 197.13 229.509 197.13C230.019 197.13 230.489 196.95 230.489 196.48C230.489 196.03 230.049 195.98 229.219 195.81C228.389 195.64 227.439 195.43 227.439 194.31C227.439 193.35 228.279 192.65 229.489 192.65C230.409 192.65 231.229 193.06 231.609 193.64L230.799 194.37C230.499 193.9 229.999 193.63 229.419 193.63C228.929 193.63 228.609 193.85 228.609 194.2C228.609 194.58 228.989 194.65 229.649 194.79C230.539 194.98 231.659 195.17 231.659 196.37C231.659 197.43 230.689 198.11 229.499 198.11C228.529 198.11 227.559 197.72 227.089 197ZM232.03 197L232.93 196.28C233.24 196.79 233.84 197.13 234.45 197.13C234.96 197.13 235.43 196.95 235.43 196.48C235.43 196.03 234.99 195.98 234.16 195.81C233.33 195.64 232.38 195.43 232.38 194.31C232.38 193.35 233.22 192.65 234.43 192.65C235.35 192.65 236.17 193.06 236.55 193.64L235.74 194.37C235.44 193.9 234.94 193.63 234.36 193.63C233.87 193.63 233.55 193.85 233.55 194.2C233.55 194.58 233.93 194.65 234.59 194.79C235.48 194.98 236.6 195.17 236.6 196.37C236.6 197.43 235.63 198.11 234.44 198.11C233.47 198.11 232.5 197.72 232.03 197ZM240.912 195.22V198H239.632V190.82H242.502C244.102 190.82 245.102 191.57 245.102 193.02C245.102 194.15 244.482 194.87 243.432 195.12L245.282 198H243.822L242.072 195.22H240.912ZM240.912 194.12H242.432C243.352 194.12 243.842 193.72 243.842 193.02C243.842 192.31 243.352 191.92 242.432 191.92H240.912V194.12ZM250.748 195.38C250.748 197.01 249.698 198.11 248.218 198.11C246.738 198.11 245.688 197.01 245.688 195.38C245.688 193.75 246.738 192.65 248.218 192.65C249.698 192.65 250.748 193.75 250.748 195.38ZM246.898 195.38C246.898 196.45 247.408 197.1 248.218 197.1C249.028 197.1 249.538 196.45 249.538 195.38C249.538 194.31 249.028 193.66 248.218 193.66C247.408 193.66 246.898 194.31 246.898 195.38ZM252.882 190.82V198H251.682V190.82H252.882ZM255.343 190.82V198H254.143V190.82H255.343ZM256.374 195.62V194.55H259.174V195.62H256.374ZM265.132 195.38C265.132 197.01 264.082 198.11 262.602 198.11C261.122 198.11 260.072 197.01 260.072 195.38C260.072 193.75 261.122 192.65 262.602 192.65C264.082 192.65 265.132 193.75 265.132 195.38ZM261.282 195.38C261.282 196.45 261.792 197.1 262.602 197.1C263.412 197.1 263.922 196.45 263.922 195.38C263.922 194.31 263.412 193.66 262.602 193.66C261.792 193.66 261.282 194.31 261.282 195.38ZM270.437 192.75V198H269.237V197.44C268.937 197.79 268.487 198.11 267.807 198.11C266.707 198.11 266.027 197.36 266.027 196.23V192.75H267.227V195.97C267.227 196.61 267.507 197.02 268.157 197.02C268.697 197.02 269.237 196.62 269.237 195.87V192.75H270.437ZM271.811 196.68V193.77H271.081V192.75H271.811V191.21H272.991V192.75H274.091V193.77H272.991V196.49C272.991 196.96 273.261 197.01 273.691 197.01C273.891 197.01 274.001 197 274.181 196.98V197.99C273.961 198.03 273.661 198.06 273.351 198.06C272.351 198.06 271.811 197.75 271.811 196.68Z" fill="#00BAF2"/>
<g clip-path="url(#clip1_6002_5767)">
<path d="M455.938 94.625C451.875 94.625 448.406 97.25 447.125 100.875H464.812C463.5 97.25 460.031 94.625 455.938 94.625Z" fill="#FF9933"/>
<path d="M455.938 113.375C460.031 113.375 463.5 110.781 464.781 107.125H447.125C448.406 110.781 451.875 113.375 455.938 113.375Z" fill="#138808"/>
<path d="M447.125 100.875C446.781 101.844 446.594 102.906 446.594 104C446.594 105.094 446.781 106.156 447.125 107.125H464.812C465.156 106.156 465.344 105.094 465.344 104C465.344 102.906 465.156 101.844 464.812 100.875H447.125Z" fill="white"/>
<path d="M455.938 106.5C457.318 106.5 458.438 105.381 458.438 104C458.438 102.619 457.318 101.5 455.938 101.5C454.557 101.5 453.438 102.619 453.438 104C453.438 105.381 454.557 106.5 455.938 106.5Z" fill="#000080"/>
<path d="M455.938 106.188C457.146 106.188 458.125 105.208 458.125 104C458.125 102.792 457.146 101.812 455.938 101.812C454.729 101.812 453.75 102.792 453.75 104C453.75 105.208 454.729 106.188 455.938 106.188Z" fill="white"/>
<path d="M455.125 102.125C455.211 102.125 455.281 102.055 455.281 101.969C455.281 101.882 455.211 101.812 455.125 101.812C455.039 101.812 454.969 101.882 454.969 101.969C454.969 102.055 455.039 102.125 455.125 102.125Z" fill="#000080"/>
<path d="M454.625 102.406C454.711 102.406 454.781 102.336 454.781 102.25C454.781 102.164 454.711 102.094 454.625 102.094C454.539 102.094 454.469 102.164 454.469 102.25C454.469 102.336 454.539 102.406 454.625 102.406Z" fill="#000080"/>
<path d="M454.219 102.812C454.305 102.812 454.375 102.743 454.375 102.656C454.375 102.57 454.305 102.5 454.219 102.5C454.132 102.5 454.062 102.57 454.062 102.656C454.062 102.743 454.132 102.812 454.219 102.812Z" fill="#000080"/>
<path d="M453.938 103.312C454.024 103.312 454.094 103.243 454.094 103.156C454.094 103.07 454.024 103 453.938 103C453.851 103 453.781 103.07 453.781 103.156C453.781 103.243 453.851 103.312 453.938 103.312Z" fill="#000080"/>
<path d="M453.781 103.875C453.868 103.875 453.938 103.805 453.938 103.719C453.938 103.632 453.868 103.562 453.781 103.562C453.695 103.562 453.625 103.632 453.625 103.719C453.625 103.805 453.695 103.875 453.781 103.875Z" fill="#000080"/>
<path d="M453.781 104.438C453.868 104.438 453.938 104.368 453.938 104.281C453.938 104.195 453.868 104.125 453.781 104.125C453.695 104.125 453.625 104.195 453.625 104.281C453.625 104.368 453.695 104.438 453.781 104.438Z" fill="#000080"/>
<path d="M453.938 105C454.024 105 454.094 104.93 454.094 104.844C454.094 104.757 454.024 104.688 453.938 104.688C453.851 104.688 453.781 104.757 453.781 104.844C453.781 104.93 453.851 105 453.938 105Z" fill="#000080"/>
<path d="M454.219 105.5C454.305 105.5 454.375 105.43 454.375 105.344C454.375 105.257 454.305 105.188 454.219 105.188C454.132 105.188 454.062 105.257 454.062 105.344C454.062 105.43 454.132 105.5 454.219 105.5Z" fill="#000080"/>
<path d="M454.625 105.906C454.711 105.906 454.781 105.836 454.781 105.75C454.781 105.664 454.711 105.594 454.625 105.594C454.539 105.594 454.469 105.664 454.469 105.75C454.469 105.836 454.539 105.906 454.625 105.906Z" fill="#000080"/>
<path d="M455.125 106.188C455.211 106.188 455.281 106.118 455.281 106.031C455.281 105.945 455.211 105.875 455.125 105.875C455.039 105.875 454.969 105.945 454.969 106.031C454.969 106.118 455.039 106.188 455.125 106.188Z" fill="#000080"/>
<path d="M455.656 106.312C455.743 106.312 455.812 106.243 455.812 106.156C455.812 106.07 455.743 106 455.656 106C455.57 106 455.5 106.07 455.5 106.156C455.5 106.243 455.57 106.312 455.656 106.312Z" fill="#000080"/>
<path d="M456.094 106.187C456.094 106.094 456.156 106.031 456.219 106C456.313 106 456.375 106.062 456.406 106.125C456.406 106.219 456.344 106.281 456.281 106.312C456.156 106.344 456.094 106.281 456.094 106.187Z" fill="#000080"/>
<path d="M456.781 106.188C456.868 106.188 456.938 106.118 456.938 106.031C456.938 105.945 456.868 105.875 456.781 105.875C456.695 105.875 456.625 105.945 456.625 106.031C456.625 106.118 456.695 106.188 456.781 106.188Z" fill="#000080"/>
<path d="M457.281 105.906C457.368 105.906 457.438 105.836 457.438 105.75C457.438 105.664 457.368 105.594 457.281 105.594C457.195 105.594 457.125 105.664 457.125 105.75C457.125 105.836 457.195 105.906 457.281 105.906Z" fill="#000080"/>
<path d="M457.688 105.5C457.774 105.5 457.844 105.43 457.844 105.344C457.844 105.257 457.774 105.188 457.688 105.188C457.601 105.188 457.531 105.257 457.531 105.344C457.531 105.43 457.601 105.5 457.688 105.5Z" fill="#000080"/>
<path d="M457.969 105C458.055 105 458.125 104.93 458.125 104.844C458.125 104.757 458.055 104.688 457.969 104.688C457.882 104.688 457.812 104.757 457.812 104.844C457.812 104.93 457.882 105 457.969 105Z" fill="#000080"/>
<path d="M458.125 104.438C458.211 104.438 458.281 104.368 458.281 104.281C458.281 104.195 458.211 104.125 458.125 104.125C458.039 104.125 457.969 104.195 457.969 104.281C457.969 104.368 458.039 104.438 458.125 104.438Z" fill="#000080"/>
<path d="M458.125 103.875C458.031 103.875 457.969 103.813 457.938 103.75C457.938 103.656 458 103.594 458.062 103.562C458.156 103.562 458.219 103.625 458.25 103.687C458.281 103.781 458.219 103.844 458.125 103.875Z" fill="#000080"/>
<path d="M457.969 103.312C458.055 103.312 458.125 103.243 458.125 103.156C458.125 103.07 458.055 103 457.969 103C457.882 103 457.812 103.07 457.812 103.156C457.812 103.243 457.882 103.312 457.969 103.312Z" fill="#000080"/>
<path d="M457.688 102.812C457.774 102.812 457.844 102.743 457.844 102.656C457.844 102.57 457.774 102.5 457.688 102.5C457.601 102.5 457.531 102.57 457.531 102.656C457.531 102.743 457.601 102.812 457.688 102.812Z" fill="#000080"/>
<path d="M457.281 102.406C457.368 102.406 457.438 102.336 457.438 102.25C457.438 102.164 457.368 102.094 457.281 102.094C457.195 102.094 457.125 102.164 457.125 102.25C457.125 102.336 457.195 102.406 457.281 102.406Z" fill="#000080"/>
<path d="M456.938 102.032C456.906 102.125 456.812 102.157 456.719 102.125C456.625 102.094 456.594 102 456.625 101.907C456.656 101.813 456.75 101.782 456.844 101.813C456.938 101.875 456.969 101.969 456.938 102.032ZM456.375 101.844C456.375 101.938 456.281 102 456.187 101.969C456.094 101.969 456.031 101.875 456.063 101.782C456.063 101.688 456.156 101.625 456.25 101.657C456.344 101.688 456.406 101.782 456.375 101.844ZM455.812 101.813C455.812 101.907 455.75 101.969 455.688 102C455.594 102 455.531 101.938 455.5 101.875C455.5 101.782 455.562 101.719 455.625 101.688C455.719 101.657 455.812 101.719 455.812 101.813Z" fill="#000080"/>
<path d="M455.938 104.469C456.196 104.469 456.406 104.259 456.406 104C456.406 103.741 456.196 103.531 455.938 103.531C455.679 103.531 455.469 103.741 455.469 104C455.469 104.259 455.679 104.469 455.938 104.469Z" fill="#000080"/>
<path d="M455.937 101.812L455.875 103.156L455.937 104L456.031 103.156L455.937 101.812ZM455.375 101.875L455.656 103.219L455.937 104L455.812 103.156L455.375 101.875Z" fill="#000080"/>
<path d="M454.844 102.094L455.469 103.312L455.937 104L455.594 103.219L454.844 102.094ZM454.406 102.438L455.312 103.469L455.937 104L455.406 103.344L454.406 102.438Z" fill="#000080"/>
<path d="M454.062 102.906L455.188 103.656L455.938 104L455.25 103.5L454.062 102.906Z" fill="#000080"/>
<path d="M453.844 103.438L455.125 103.844L455.938 104L455.156 103.719L453.844 103.438ZM453.75 104L455.125 104.062L455.938 104L455.125 103.937L453.75 104Z" fill="#000080"/>
<path d="M453.844 104.562L455.156 104.281L455.937 104L455.125 104.156L453.844 104.562ZM454.062 105.094L455.25 104.5L455.937 104L455.187 104.344L454.062 105.094Z" fill="#000080"/>
<path d="M454.406 105.531L455.406 104.656L455.937 104L455.312 104.531L454.406 105.531ZM454.844 105.906L455.594 104.75L455.937 104L455.469 104.688L454.844 105.906Z" fill="#000080"/>
<path d="M455.375 106.125L455.812 104.844L455.937 104L455.656 104.781L455.375 106.125ZM455.937 106.188L456.031 104.844L455.937 104L455.875 104.844L455.937 106.188ZM456.5 106.125L456.25 104.781L455.937 104L456.094 104.844L456.5 106.125Z" fill="#000080"/>
<path d="M457.031 105.906L456.438 104.688L455.938 104L456.313 104.781L457.031 105.906ZM457.5 105.531L456.594 104.531L455.938 104L456.5 104.656L457.5 105.531Z" fill="#000080"/>
<path d="M457.844 105.094L456.719 104.344L455.938 104L456.625 104.5L457.844 105.094ZM458.062 104.562L456.781 104.156L455.938 104L456.75 104.281L458.062 104.562ZM458.125 104L456.781 103.906L455.938 104L456.781 104.062L458.125 104ZM458.062 103.438L456.75 103.719L455.938 104L456.781 103.844L458.062 103.438Z" fill="#000080"/>
<path d="M457.844 102.906L456.625 103.5L455.938 104L456.719 103.656L457.844 102.906ZM457.5 102.469L456.5 103.344L455.938 104L456.594 103.469L457.5 102.469Z" fill="#000080"/>
<path d="M457.031 102.094L456.313 103.25L455.938 104L456.438 103.312L457.031 102.094Z" fill="#000080"/>
<path d="M456.531 101.875L456.094 103.156L455.938 104L456.25 103.219L456.531 101.875Z" fill="#000080"/>
</g>
<path d="M410.796 129H410.026L407.836 123.09V129H406.936V121.82H408.246L410.426 127.72L412.616 121.82H413.886V129H412.996V123.09L410.796 129ZM419.932 126.39C419.932 128.01 418.932 129.11 417.502 129.11C416.072 129.11 415.072 128.01 415.072 126.39C415.072 124.77 416.072 123.67 417.502 123.67C418.932 123.67 419.932 124.77 419.932 126.39ZM415.982 126.39C415.982 127.58 416.582 128.34 417.502 128.34C418.422 128.34 419.022 127.58 419.022 126.39C419.022 125.19 418.422 124.43 417.502 124.43C416.582 124.43 415.982 125.19 415.982 126.39ZM421.076 129V123.77H421.976V124.48C422.276 124.05 422.796 123.67 423.536 123.67C424.646 123.67 425.276 124.44 425.276 125.55V129H424.376V125.79C424.376 125.06 424.066 124.51 423.286 124.51C422.636 124.51 421.976 125.01 421.976 125.88V129H421.076ZM428.811 129.11C427.361 129.11 426.361 128 426.361 126.39C426.361 124.83 427.351 123.67 428.771 123.67C430.231 123.67 431.001 124.78 431.001 126.23V126.53H427.221C427.271 127.63 427.901 128.33 428.811 128.33C429.511 128.33 430.011 127.95 430.171 127.33L430.961 127.61C430.641 128.54 429.851 129.11 428.811 129.11ZM428.761 124.44C428.001 124.44 427.431 124.95 427.271 125.84H430.091C430.071 125.1 429.671 124.44 428.761 124.44ZM433.983 129.57C433.683 130.36 433.273 130.86 432.363 130.86C432.143 130.86 432.033 130.85 431.873 130.82V130.04C432.043 130.08 432.153 130.09 432.303 130.09C432.693 130.09 432.903 129.95 433.113 129.43L433.363 128.81L431.423 123.77H432.373L433.843 127.77L435.293 123.77H436.233L433.983 129.57ZM438.011 121.82V129H437.111V121.82H438.011ZM439.474 122.86V121.82H440.454V122.86H439.474ZM440.414 123.77V129H439.514V123.77H440.414ZM441.916 129V123.77H442.816V124.48C443.116 124.05 443.636 123.67 444.376 123.67C445.486 123.67 446.116 124.44 446.116 125.55V129H445.216V125.79C445.216 125.06 444.906 124.51 444.126 124.51C443.476 124.51 442.816 125.01 442.816 125.88V129H441.916ZM448.461 121.82V126.21L450.781 123.77H451.901L449.861 125.83L452.071 129H451.021L449.221 126.48L448.461 127.25V129H447.561V121.82H448.461ZM460.252 122.66H457.822V129H456.862V122.66H454.432V121.82H460.252V122.66ZM462.151 129.11C460.701 129.11 459.701 128 459.701 126.39C459.701 124.83 460.691 123.67 462.111 123.67C463.571 123.67 464.341 124.78 464.341 126.23V126.53H460.561C460.611 127.63 461.241 128.33 462.151 128.33C462.851 128.33 463.351 127.95 463.511 127.33L464.301 127.61C463.981 128.54 463.191 129.11 462.151 129.11ZM462.101 124.44C461.341 124.44 460.771 124.95 460.611 125.84H463.431C463.411 125.1 463.011 124.44 462.101 124.44ZM466.001 126.39C466.001 127.58 466.641 128.32 467.571 128.32C468.291 128.32 468.721 127.86 468.871 127.21L469.671 127.58C469.421 128.45 468.661 129.11 467.571 129.11C466.111 129.11 465.101 128 465.101 126.39C465.101 124.77 466.111 123.67 467.571 123.67C468.661 123.67 469.401 124.3 469.651 125.17L468.871 125.56C468.721 124.92 468.291 124.45 467.571 124.45C466.641 124.45 466.001 125.19 466.001 126.39ZM470.656 129V121.82H471.556V124.48C471.856 124.05 472.376 123.67 473.116 123.67C474.226 123.67 474.856 124.44 474.856 125.55V129H473.956V125.79C473.956 125.06 473.646 124.51 472.866 124.51C472.216 124.51 471.556 125.01 471.556 125.88V129H470.656ZM476.301 129V123.77H477.201V124.48C477.501 124.05 478.021 123.67 478.761 123.67C479.871 123.67 480.501 124.44 480.501 125.55V129H479.601V125.79C479.601 125.06 479.291 124.51 478.511 124.51C477.861 124.51 477.201 125.01 477.201 125.88V129H476.301ZM486.445 126.39C486.445 128.01 485.445 129.11 484.015 129.11C482.585 129.11 481.585 128.01 481.585 126.39C481.585 124.77 482.585 123.67 484.015 123.67C485.445 123.67 486.445 124.77 486.445 126.39ZM482.495 126.39C482.495 127.58 483.095 128.34 484.015 128.34C484.935 128.34 485.535 127.58 485.535 126.39C485.535 125.19 484.935 124.43 484.015 124.43C483.095 124.43 482.495 125.19 482.495 126.39ZM488.49 121.82V129H487.59V121.82H488.49ZM494.492 126.39C494.492 128.01 493.492 129.11 492.062 129.11C490.632 129.11 489.632 128.01 489.632 126.39C489.632 124.77 490.632 123.67 492.062 123.67C493.492 123.67 494.492 124.77 494.492 126.39ZM490.542 126.39C490.542 127.58 491.142 128.34 492.062 128.34C492.982 128.34 493.582 127.58 493.582 126.39C493.582 125.19 492.982 124.43 492.062 124.43C491.142 124.43 490.542 125.19 490.542 126.39ZM500.067 128.53C500.067 130.06 499.057 130.91 497.637 130.91C496.487 130.91 495.647 130.38 495.357 129.42L496.197 129.1C496.367 129.77 496.907 130.16 497.637 130.16C498.557 130.16 499.167 129.69 499.167 128.6V128.01C498.887 128.52 498.297 128.88 497.567 128.88C496.137 128.88 495.297 127.7 495.297 126.27C495.297 124.85 496.137 123.67 497.567 123.67C498.287 123.67 498.887 124.03 499.167 124.54V123.77H500.067V128.53ZM499.177 126.19C499.177 125.02 498.477 124.46 497.727 124.46C496.777 124.46 496.197 125.17 496.197 126.27C496.197 127.37 496.777 128.09 497.727 128.09C498.477 128.09 499.177 127.53 499.177 126.38V126.19ZM503.475 129.57C503.175 130.36 502.765 130.86 501.855 130.86C501.635 130.86 501.525 130.85 501.365 130.82V130.04C501.535 130.08 501.645 130.09 501.795 130.09C502.185 130.09 502.395 129.95 502.605 129.43L502.855 128.81L500.915 123.77H501.865L503.335 127.77L504.785 123.77H505.725L503.475 129.57ZM416.045 141.52L416.795 140.92C417.245 141.78 418.055 142.28 418.985 142.28C419.915 142.28 420.635 141.82 420.635 141C420.635 140.13 419.805 139.98 418.715 139.72C417.585 139.45 416.465 139.14 416.465 137.79C416.465 136.53 417.555 135.71 418.915 135.71C420.165 135.71 421.065 136.31 421.495 137.12L420.765 137.7C420.395 137.01 419.825 136.54 418.895 136.54C418.025 136.54 417.395 137.02 417.395 137.71C417.395 138.47 418.065 138.63 419.075 138.87C420.265 139.15 421.575 139.4 421.575 140.92C421.575 142.26 420.385 143.11 418.965 143.11C417.725 143.11 416.535 142.49 416.045 141.52ZM427.202 140.39C427.202 142.01 426.202 143.11 424.772 143.11C423.342 143.11 422.342 142.01 422.342 140.39C422.342 138.77 423.342 137.67 424.772 137.67C426.202 137.67 427.202 138.77 427.202 140.39ZM423.252 140.39C423.252 141.58 423.852 142.34 424.772 142.34C425.692 142.34 426.292 141.58 426.292 140.39C426.292 139.19 425.692 138.43 424.772 138.43C423.852 138.43 423.252 139.19 423.252 140.39ZM429.247 135.82V143H428.347V135.82H429.247ZM434.899 137.77V143H433.999V142.28C433.699 142.72 433.189 143.11 432.449 143.11C431.329 143.11 430.699 142.34 430.699 141.23V137.77H431.599V141.04C431.599 141.78 431.919 142.28 432.689 142.28C433.339 142.28 433.999 141.79 433.999 140.92V137.77H434.899ZM436.534 141.75V138.54H435.724V137.77H436.534V136.24H437.424V137.77H438.614V138.54H437.424V141.61C437.424 142.16 437.694 142.26 438.154 142.26C438.364 142.26 438.514 142.25 438.724 142.2V142.97C438.494 143.02 438.234 143.05 437.934 143.05C437.044 143.05 436.534 142.75 436.534 141.75ZM439.752 136.86V135.82H440.732V136.86H439.752ZM440.692 137.77V143H439.792V137.77H440.692ZM446.694 140.39C446.694 142.01 445.694 143.11 444.264 143.11C442.834 143.11 441.834 142.01 441.834 140.39C441.834 138.77 442.834 137.67 444.264 137.67C445.694 137.67 446.694 138.77 446.694 140.39ZM442.744 140.39C442.744 141.58 443.344 142.34 444.264 142.34C445.184 142.34 445.784 141.58 445.784 140.39C445.784 139.19 445.184 138.43 444.264 138.43C443.344 138.43 442.744 139.19 442.744 140.39ZM447.839 143V137.77H448.739V138.48C449.039 138.05 449.559 137.67 450.299 137.67C451.409 137.67 452.039 138.44 452.039 139.55V143H451.139V139.79C451.139 139.06 450.829 138.51 450.049 138.51C449.399 138.51 448.739 139.01 448.739 139.88V143H447.839ZM452.903 141.89L453.603 141.38C453.883 141.99 454.523 142.36 455.203 142.36C455.813 142.36 456.353 142.1 456.353 141.53C456.353 140.96 455.853 140.88 454.993 140.7C454.133 140.51 453.233 140.32 453.233 139.25C453.233 138.32 454.043 137.67 455.153 137.67C456.093 137.67 456.863 138.13 457.173 138.75L456.533 139.26C456.263 138.74 455.773 138.41 455.113 138.41C454.513 138.41 454.113 138.71 454.113 139.18C454.113 139.67 454.573 139.76 455.303 139.92C456.203 140.13 457.233 140.31 457.233 141.45C457.233 142.45 456.323 143.11 455.203 143.11C454.253 143.11 453.303 142.7 452.903 141.89ZM461.456 139.99V143H460.496V135.82H463.236C464.756 135.82 465.726 136.53 465.726 137.9C465.726 139.25 464.756 139.99 463.236 139.99H461.456ZM461.456 139.16H463.186C464.206 139.16 464.776 138.71 464.776 137.9C464.776 137.09 464.206 136.65 463.186 136.65H461.456V139.16ZM469.063 143H468.173L466.213 137.77H467.163L468.633 141.9L470.083 137.77H471.023L469.063 143ZM472.139 141.75V138.54H471.329V137.77H472.139V136.24H473.029V137.77H474.219V138.54H473.029V141.61C473.029 142.16 473.299 142.26 473.759 142.26C473.969 142.26 474.119 142.25 474.329 142.2V142.97C474.099 143.02 473.839 143.05 473.539 143.05C472.649 143.05 472.139 142.75 472.139 141.75ZM475.314 143V141.82H476.454V143H475.314ZM479.9 143V135.82H480.86V142.16H484.44V143H479.9ZM485.332 141.75V138.54H484.522V137.77H485.332V136.24H486.222V137.77H487.412V138.54H486.222V141.61C486.222 142.16 486.492 142.26 486.952 142.26C487.162 142.26 487.312 142.25 487.522 142.2V142.97C487.292 143.02 487.032 143.05 486.732 143.05C485.842 143.05 485.332 142.75 485.332 141.75ZM490.511 143.11C489.061 143.11 488.231 141.87 488.231 140.39C488.231 138.9 489.061 137.67 490.511 137.67C491.241 137.67 491.821 138.02 492.131 138.53V135.82H493.031V143H492.131V142.24C491.821 142.76 491.241 143.11 490.511 143.11ZM492.151 140.21C492.151 138.99 491.411 138.46 490.671 138.46C489.691 138.46 489.141 139.26 489.141 140.39C489.141 141.51 489.691 142.32 490.671 142.32C491.411 142.32 492.151 141.78 492.151 140.58V140.21ZM494.309 143V141.82H495.449V143H494.309Z" fill="black"/>
<path fill-rule="evenodd" clip-rule="evenodd" d="M418.882 162.921L416.327 158.948C415.038 156.942 415.595 154.272 417.579 152.949C419.047 151.97 420.959 151.97 422.427 152.949C424.412 154.272 424.969 156.942 423.679 158.948L421.125 162.921C420.6 163.738 419.407 163.738 418.882 162.921ZM420.003 158.999C421.292 158.999 422.337 157.955 422.337 156.666C422.337 155.377 421.292 154.333 420.003 154.333C418.715 154.333 417.67 155.377 417.67 156.666C417.67 157.955 418.715 158.999 420.003 158.999Z" fill="#FF9933"/>
<path d="M428.699 161V153.82H431.549C433.089 153.82 433.909 154.49 433.909 155.71C433.909 156.6 433.389 157.06 432.889 157.26C433.639 157.5 434.139 158.12 434.139 159C434.139 160.26 433.209 161 431.729 161H428.699ZM429.929 156.79H431.429C432.249 156.79 432.699 156.47 432.699 155.84C432.699 155.21 432.249 154.9 431.429 154.9H429.929V156.79ZM429.929 157.87V159.92H431.659C432.469 159.92 432.909 159.5 432.909 158.89C432.909 158.29 432.469 157.87 431.659 157.87H429.929ZM436.425 161.09C435.425 161.09 434.655 160.48 434.655 159.54C434.655 158.54 435.405 158.1 436.415 157.89L437.865 157.59V157.5C437.865 157 437.605 156.69 436.965 156.69C436.395 156.69 436.095 156.95 435.955 157.46L434.825 157.2C435.085 156.33 435.855 155.65 437.015 155.65C438.275 155.65 439.035 156.25 439.035 157.46V159.72C439.035 160.02 439.165 160.11 439.495 160.07V161C438.625 161.1 438.165 160.93 437.985 160.5C437.655 160.87 437.105 161.09 436.425 161.09ZM437.865 159.15V158.51L436.735 158.75C436.225 158.86 435.845 159.02 435.845 159.49C435.845 159.9 436.145 160.13 436.605 160.13C437.245 160.13 437.865 159.79 437.865 159.15ZM440.348 161V155.75H441.548V156.31C441.848 155.96 442.318 155.65 442.998 155.65C444.098 155.65 444.758 156.41 444.758 157.54V161H443.558V157.89C443.558 157.24 443.298 156.77 442.638 156.77C442.098 156.77 441.548 157.17 441.548 157.92V161H440.348ZM450.653 160.47C450.653 162.02 449.593 162.91 448.093 162.91C446.883 162.91 446.033 162.4 445.703 161.38L446.823 160.98C446.983 161.57 447.433 161.94 448.093 161.94C448.903 161.94 449.453 161.54 449.453 160.58V160.21C449.173 160.58 448.643 160.87 447.973 160.87C446.533 160.87 445.673 159.7 445.673 158.26C445.673 156.82 446.533 155.65 447.973 155.65C448.633 155.65 449.173 155.94 449.453 156.31V155.75H450.653V160.47ZM449.473 158.21C449.473 157.25 448.953 156.7 448.203 156.7C447.373 156.7 446.883 157.28 446.883 158.26C446.883 159.23 447.373 159.82 448.203 159.82C448.953 159.82 449.473 159.27 449.473 158.33V158.21ZM453.31 161.09C452.31 161.09 451.54 160.48 451.54 159.54C451.54 158.54 452.29 158.1 453.3 157.89L454.75 157.59V157.5C454.75 157 454.49 156.69 453.85 156.69C453.28 156.69 452.98 156.95 452.84 157.46L451.71 157.2C451.97 156.33 452.74 155.65 453.9 155.65C455.16 155.65 455.92 156.25 455.92 157.46V159.72C455.92 160.02 456.05 160.11 456.38 160.07V161C455.51 161.1 455.05 160.93 454.87 160.5C454.54 160.87 453.99 161.09 453.31 161.09ZM454.75 159.15V158.51L453.62 158.75C453.11 158.86 452.73 159.02 452.73 159.49C452.73 159.9 453.03 160.13 453.49 160.13C454.13 160.13 454.75 159.79 454.75 159.15ZM458.433 153.82V161H457.233V153.82H458.433ZM464.423 158.38C464.423 160.01 463.373 161.11 461.893 161.11C460.413 161.11 459.363 160.01 459.363 158.38C459.363 156.75 460.413 155.65 461.893 155.65C463.373 155.65 464.423 156.75 464.423 158.38ZM460.573 158.38C460.573 159.45 461.083 160.1 461.893 160.1C462.703 160.1 463.213 159.45 463.213 158.38C463.213 157.31 462.703 156.66 461.893 156.66C461.083 156.66 460.573 157.31 460.573 158.38ZM468.338 155.74V156.94C468.188 156.92 468.068 156.91 467.898 156.91C467.138 156.91 466.558 157.4 466.558 158.24V161H465.358V155.75H466.558V156.53C466.788 156.04 467.328 155.72 467.998 155.72C468.138 155.72 468.248 155.73 468.338 155.74ZM471.132 161.11C469.632 161.11 468.582 160 468.582 158.38C468.582 156.84 469.622 155.65 471.082 155.65C472.602 155.65 473.412 156.8 473.412 158.24V158.64H469.732C469.822 159.54 470.362 160.09 471.132 160.09C471.722 160.09 472.192 159.79 472.352 159.25L473.382 159.64C473.012 160.56 472.182 161.11 471.132 161.11ZM471.072 156.66C470.452 156.66 469.972 157.03 469.792 157.74H472.202C472.192 157.16 471.832 156.66 471.072 156.66ZM474.083 161V159.55H475.533V161.07C475.533 161.91 474.963 162.42 474.083 162.43V161.76C474.533 161.73 474.743 161.52 474.743 161.08V161H474.083ZM479.949 153.82V161H478.669V153.82H479.949ZM481.256 161V155.75H482.456V156.31C482.756 155.96 483.226 155.65 483.906 155.65C485.006 155.65 485.666 156.41 485.666 157.54V161H484.466V157.89C484.466 157.24 484.206 156.77 483.546 156.77C483.006 156.77 482.456 157.17 482.456 157.92V161H481.256ZM488.871 161.11C487.401 161.11 486.561 159.87 486.561 158.38C486.561 156.89 487.401 155.65 488.871 155.65C489.551 155.65 490.051 155.92 490.381 156.31V153.82H491.581V161H490.381V160.45C490.051 160.84 489.551 161.11 488.871 161.11ZM490.411 158.23C490.411 157.24 489.851 156.7 489.111 156.7C488.241 156.7 487.771 157.38 487.771 158.38C487.771 159.38 488.241 160.06 489.111 160.06C489.851 160.06 490.411 159.51 490.411 158.54V158.23ZM492.818 155.05V153.82H494.058V155.05H492.818ZM494.038 155.75V161H492.838V155.75H494.038ZM496.689 161.09C495.689 161.09 494.919 160.48 494.919 159.54C494.919 158.54 495.669 158.1 496.679 157.89L498.129 157.59V157.5C498.129 157 497.869 156.69 497.229 156.69C496.659 156.69 496.359 156.95 496.219 157.46L495.089 157.2C495.349 156.33 496.119 155.65 497.279 155.65C498.539 155.65 499.299 156.25 499.299 157.46V159.72C499.299 160.02 499.429 160.11 499.759 160.07V161C498.889 161.1 498.429 160.93 498.249 160.5C497.919 160.87 497.369 161.09 496.689 161.09ZM498.129 159.15V158.51L496.999 158.75C496.489 158.86 496.109 159.02 496.109 159.49C496.109 159.9 496.409 160.13 496.869 160.13C497.509 160.13 498.129 159.79 498.129 159.15Z" fill="black"/>
<path d="M405.297 174.94H402.987V181H401.707V174.94H399.397V173.82H405.297V174.94ZM407.097 181.11C405.597 181.11 404.547 180 404.547 178.38C404.547 176.84 405.587 175.65 407.047 175.65C408.567 175.65 409.377 176.8 409.377 178.24V178.64H405.697C405.787 179.54 406.327 180.09 407.097 180.09C407.687 180.09 408.157 179.79 408.317 179.25L409.347 179.64C408.977 180.56 408.147 181.11 407.097 181.11ZM407.037 176.66C406.417 176.66 405.937 177.03 405.757 177.74H408.167C408.157 177.16 407.797 176.66 407.037 176.66ZM411.147 178.38C411.147 179.45 411.707 180.07 412.527 180.07C413.167 180.07 413.557 179.65 413.707 179.07L414.737 179.59C414.467 180.44 413.667 181.11 412.527 181.11C411.027 181.11 409.947 180 409.947 178.38C409.947 176.76 411.027 175.65 412.527 175.65C413.657 175.65 414.437 176.29 414.717 177.13L413.707 177.68C413.557 177.11 413.167 176.68 412.527 176.68C411.707 176.68 411.147 177.31 411.147 178.38ZM415.463 181V173.82H416.663V176.31C416.963 175.96 417.433 175.65 418.113 175.65C419.213 175.65 419.873 176.41 419.873 177.54V181H418.673V177.89C418.673 177.24 418.413 176.77 417.753 176.77C417.213 176.77 416.663 177.17 416.663 177.92V181H415.463ZM421.098 181V175.75H422.298V176.31C422.598 175.96 423.068 175.65 423.748 175.65C424.848 175.65 425.508 176.41 425.508 177.54V181H424.308V177.89C424.308 177.24 424.048 176.77 423.388 176.77C422.848 176.77 422.298 177.17 422.298 177.92V181H421.098ZM431.463 178.38C431.463 180.01 430.413 181.11 428.933 181.11C427.453 181.11 426.403 180.01 426.403 178.38C426.403 176.75 427.453 175.65 428.933 175.65C430.413 175.65 431.463 176.75 431.463 178.38ZM427.613 178.38C427.613 179.45 428.123 180.1 428.933 180.1C429.743 180.1 430.253 179.45 430.253 178.38C430.253 177.31 429.743 176.66 428.933 176.66C428.123 176.66 427.613 177.31 427.613 178.38ZM433.597 173.82V181H432.397V173.82H433.597ZM439.588 178.38C439.588 180.01 438.538 181.11 437.058 181.11C435.578 181.11 434.528 180.01 434.528 178.38C434.528 176.75 435.578 175.65 437.058 175.65C438.538 175.65 439.588 176.75 439.588 178.38ZM435.738 178.38C435.738 179.45 436.248 180.1 437.058 180.1C437.868 180.1 438.378 179.45 438.378 178.38C438.378 177.31 437.868 176.66 437.058 176.66C436.248 176.66 435.738 177.31 435.738 178.38ZM445.192 180.47C445.192 182.02 444.132 182.91 442.632 182.91C441.422 182.91 440.572 182.4 440.242 181.38L441.362 180.98C441.522 181.57 441.972 181.94 442.632 181.94C443.442 181.94 443.992 181.54 443.992 180.58V180.21C443.712 180.58 443.182 180.87 442.512 180.87C441.072 180.87 440.212 179.7 440.212 178.26C440.212 176.82 441.072 175.65 442.512 175.65C443.172 175.65 443.712 175.94 443.992 176.31V175.75H445.192V180.47ZM444.012 178.21C444.012 177.25 443.492 176.7 442.742 176.7C441.912 176.7 441.422 177.28 441.422 178.26C441.422 179.23 441.912 179.82 442.742 179.82C443.492 179.82 444.012 179.27 444.012 178.33V178.21ZM448.69 181.49C448.39 182.29 447.93 182.84 446.84 182.84C446.59 182.84 446.52 182.83 446.35 182.81V181.8C446.51 181.82 446.6 181.83 446.75 181.83C447.15 181.83 447.34 181.72 447.51 181.3L447.71 180.81L445.8 175.75H447.06L448.35 179.43L449.61 175.75H450.85L448.69 181.49ZM453.609 181V173.82H456.009C458.239 173.82 459.619 175.22 459.619 177.41C459.619 179.6 458.239 181 456.009 181H453.609ZM454.859 179.9H456.009C457.489 179.9 458.359 178.92 458.359 177.41C458.359 175.89 457.489 174.92 455.999 174.92H454.859V179.9ZM462.79 181.11C461.29 181.11 460.24 180 460.24 178.38C460.24 176.84 461.28 175.65 462.74 175.65C464.26 175.65 465.07 176.8 465.07 178.24V178.64H461.39C461.48 179.54 462.02 180.09 462.79 180.09C463.38 180.09 463.85 179.79 464.01 179.25L465.04 179.64C464.67 180.56 463.84 181.11 462.79 181.11ZM462.73 176.66C462.11 176.66 461.63 177.03 461.45 177.74H463.86C463.85 177.16 463.49 176.66 462.73 176.66ZM468.393 181H467.183L465.263 175.75H466.523L467.803 179.56L469.073 175.75H470.313L468.393 181ZM473.054 181.11C471.554 181.11 470.504 180 470.504 178.38C470.504 176.84 471.544 175.65 473.004 175.65C474.524 175.65 475.334 176.8 475.334 178.24V178.64H471.654C471.744 179.54 472.284 180.09 473.054 180.09C473.644 180.09 474.114 179.79 474.274 179.25L475.304 179.64C474.934 180.56 474.104 181.11 473.054 181.11ZM472.994 176.66C472.374 176.66 471.894 177.03 471.714 177.74H474.124C474.114 177.16 473.754 176.66 472.994 176.66ZM477.434 173.82V181H476.234V173.82H477.434ZM483.425 178.38C483.425 180.01 482.375 181.11 480.895 181.11C479.415 181.11 478.365 180.01 478.365 178.38C478.365 176.75 479.415 175.65 480.895 175.65C482.375 175.65 483.425 176.75 483.425 178.38ZM479.575 178.38C479.575 179.45 480.085 180.1 480.895 180.1C481.705 180.1 482.215 179.45 482.215 178.38C482.215 177.31 481.705 176.66 480.895 176.66C480.085 176.66 479.575 177.31 479.575 178.38ZM487.069 181.11C486.389 181.11 485.889 180.84 485.559 180.45V182.8H484.359V175.75H485.559V176.31C485.889 175.92 486.389 175.65 487.069 175.65C488.539 175.65 489.379 176.89 489.379 178.38C489.379 179.87 488.539 181.11 487.069 181.11ZM485.529 178.23V178.54C485.529 179.51 486.089 180.06 486.829 180.06C487.699 180.06 488.169 179.38 488.169 178.38C488.169 177.38 487.699 176.7 486.829 176.7C486.089 176.7 485.529 177.24 485.529 178.23ZM491.507 177.92V181H490.307V175.75H491.507V176.31C491.797 175.96 492.247 175.65 492.947 175.65C493.577 175.65 494.047 175.93 494.337 176.38C494.657 176.04 495.157 175.65 495.967 175.65C497.047 175.65 497.747 176.41 497.747 177.54V181H496.547V177.89C496.547 177.24 496.307 176.77 495.667 176.77C495.157 176.77 494.627 177.17 494.627 177.92V181H493.427V177.89C493.427 177.24 493.187 176.77 492.547 176.77C492.037 176.77 491.507 177.17 491.507 177.92ZM501.189 181.11C499.689 181.11 498.639 180 498.639 178.38C498.639 176.84 499.679 175.65 501.139 175.65C502.659 175.65 503.469 176.8 503.469 178.24V178.64H499.789C499.879 179.54 500.419 180.09 501.189 180.09C501.779 180.09 502.249 179.79 502.409 179.25L503.439 179.64C503.069 180.56 502.239 181.11 501.189 181.11ZM501.129 176.66C500.509 176.66 500.029 177.03 499.849 177.74H502.259C502.249 177.16 501.889 176.66 501.129 176.66ZM504.369 181V175.75H505.569V176.31C505.869 175.96 506.339 175.65 507.019 175.65C508.119 175.65 508.779 176.41 508.779 177.54V181H507.579V177.89C507.579 177.24 507.319 176.77 506.659 176.77C506.119 176.77 505.569 177.17 505.569 177.92V181H504.369ZM510.114 179.68V176.77H509.384V175.75H510.114V174.21H511.294V175.75H512.394V176.77H511.294V179.49C511.294 179.96 511.564 180.01 511.994 180.01C512.194 180.01 512.304 180 512.484 179.98V180.99C512.264 181.03 511.964 181.06 511.654 181.06C510.654 181.06 510.114 180.75 510.114 179.68Z" fill="#00BAF2"/>
<path d="M61 11H235.279M455 89.5V11H235.279M455 89.5C454 87.5 451.6 83.5 450 83.5M455 89.5C456.333 87.5 459.3 83.5 460.5 83.5M235.279 11V108M235.279 108C234.353 106 232 102 230 102M235.279 108C236.686 106 239.7 102 240.5 102" stroke="#20336B" stroke-dasharray="2 2"/>
<defs>
<clipPath id="clip0_6002_5767">
<rect width="20" height="20" fill="white" transform="translate(37)"/>
</clipPath>
<clipPath id="clip1_6002_5767">
<rect width="20" height="20" fill="white" transform="translate(446 94)"/>
</clipPath>
</defs>
</svg>
