<svg width="49" height="44" viewBox="0 0 49 44" fill="none" xmlns="http://www.w3.org/2000/svg">
<mask id="mask0_875_169" style="mask-type:luminance" maskUnits="userSpaceOnUse" x="0" y="0" width="49" height="44">
<path d="M0.400024 0H48.4V43.1392H0.400024V0Z" fill="white"/>
</mask>
<g mask="url(#mask0_875_169)">
<path d="M43.8917 40.3171L43.8916 40.3171L43.8898 40.3226C43.4901 41.5223 42.354 42.3879 41.0156 42.3879H3.93501C2.2592 42.3879 0.900024 41.0302 0.900024 39.3553V19.3325C0.900024 17.9966 1.76476 16.86 2.96599 16.4581L2.96599 16.4581L2.96984 16.4568C3.27272 16.3527 3.59523 16.2976 3.93501 16.2976L41.0156 16.2976L41.0158 16.2976C42.6916 16.2968 44.0506 17.6562 44.0506 19.3317V39.3545C44.0506 39.6931 43.9953 40.0175 43.8917 40.3171Z" fill="white" stroke="#BF9BFF"/>
<path d="M11.6812 29.7361H4.64253C4.29326 29.7361 4.01055 29.4533 4.01055 29.104V22.9676C4.01055 22.6183 4.29326 22.3356 4.64253 22.3356H11.6812C12.0304 22.3356 12.3131 22.6183 12.3131 22.9676V29.104C12.3131 29.4533 12.0304 29.7361 11.6812 29.7361Z" fill="#FF5900"/>
<path d="M7.71474 36.4557H4.62953C4.30705 36.4557 4.04554 36.0475 4.04554 35.5443C4.04554 35.041 4.30705 34.6329 4.62953 34.6329H7.71474C8.03717 34.6329 8.2987 35.041 8.2987 35.5443C8.29829 36.0475 8.03717 36.4557 7.71474 36.4557Z" fill="#FF5900"/>
<path d="M13.183 36.4557H10.0979C9.77539 36.4557 9.51392 36.0475 9.51392 35.5443C9.51392 35.041 9.77539 34.6329 10.0979 34.6329H13.183C13.5055 34.6329 13.7671 35.041 13.7671 35.5443C13.7671 36.0475 13.5055 36.4557 13.183 36.4557Z" fill="#FF5900"/>
<path d="M19.2589 36.4557H16.1739C15.8514 36.4557 15.5898 36.0475 15.5898 35.5443C15.5898 35.041 15.8514 34.6329 16.1739 34.6329H19.2589C19.5815 34.6329 19.843 35.041 19.843 35.5443C19.843 36.0475 19.5815 36.4557 19.2589 36.4557Z" fill="#FF5900"/>
<path d="M24.7273 36.4557H21.6422C21.3197 36.4557 21.0582 36.0475 21.0582 35.5443C21.0582 35.041 21.3197 34.6329 21.6422 34.6329H24.7273C25.0499 34.6329 25.3113 35.041 25.3113 35.5443C25.3109 36.0475 25.0499 36.4557 24.7273 36.4557Z" fill="#FF5900"/>
<path fill-rule="evenodd" clip-rule="evenodd" d="M10.8832 24.4041H12.314V24.1816H10.8832C10.631 24.1816 10.425 24.3876 10.425 24.6413V25.9241H9.54245V25.1214C9.54245 24.8653 9.3342 24.6578 9.0789 24.6578H8.27381V22.3351H8.05143V24.6578H7.2667C7.01148 24.6578 6.80313 24.8661 6.80313 25.1214V25.9241H5.89943V24.6413C5.89943 24.3876 5.69426 24.1816 5.44131 24.1816H4.01055V24.4041H5.44131C5.5713 24.4041 5.67703 24.5106 5.67703 24.6422V27.4308C5.67703 27.5624 5.5713 27.6688 5.44131 27.6688H4.01055V27.8913H5.44131C5.69347 27.8913 5.89943 27.6854 5.89943 27.4316V26.1481H6.80313V26.9508C6.80313 27.2069 7.01148 27.4151 7.2667 27.4151H8.05143V29.7379H8.27381V27.4151H9.0789C9.3342 27.4151 9.54245 27.2069 9.54245 26.9508V26.1481H10.425V27.4316C10.425 27.6854 10.6303 27.8913 10.8832 27.8913H12.314V27.6688H10.8832C10.7531 27.6688 10.6475 27.5624 10.6475 27.4308V24.6422C10.6475 24.5114 10.7531 24.4041 10.8832 24.4041ZM9.32007 26.9499C9.32007 27.0831 9.212 27.1919 9.07808 27.1919H7.26601C7.13281 27.1919 7.02398 27.0831 7.02398 26.9499V25.123C7.02398 24.9898 7.13208 24.881 7.26601 24.881H9.07808C9.21118 24.881 9.32007 24.9898 9.32007 25.123V26.9499Z" fill="white" stroke="white" stroke-width="0.1"/>
<path d="M34.1975 32.019C34.6327 32.019 35.045 32.114 35.4155 32.2844C34.7737 32.9818 34.3811 33.9135 34.3811 34.9367C34.3811 35.9599 34.7737 36.8916 35.4155 37.589C35.045 37.7594 34.6327 37.8544 34.1975 37.8544C32.5862 37.8544 31.2798 36.5481 31.2798 34.9367C31.2798 33.3253 32.5862 32.019 34.1975 32.019Z" stroke="#BF9BFF"/>
<path d="M38.1152 34.9367C38.1152 33.9135 37.7227 32.9818 37.0809 32.2844C37.4514 32.114 37.8637 32.019 38.2988 32.019C39.9103 32.019 41.2166 33.3253 41.2166 34.9367C41.2166 36.5481 39.9103 37.8544 38.2988 37.8544C37.8637 37.8544 37.4514 37.7594 37.0809 37.589C37.7227 36.8916 38.1152 35.9599 38.1152 34.9367Z" stroke="#BF9BFF"/>
<path fill-rule="evenodd" clip-rule="evenodd" d="M36.2481 37.6712C37.0783 37.0476 37.6152 36.0549 37.6152 34.9367C37.6152 33.8185 37.0783 32.8258 36.2481 32.2023C35.4179 32.8258 34.881 33.8185 34.881 34.9367C34.881 36.0549 35.4179 37.0476 36.2481 37.6712Z" fill="#FF5900"/>
<path fill-rule="evenodd" clip-rule="evenodd" d="M35.3319 1.39459L35.9394 9.23246C35.9339 9.23266 35.9272 9.23287 35.9211 9.23314C35.8462 9.23575 35.7473 9.2376 35.6357 9.2376C35.524 9.2376 35.4257 9.23575 35.3507 9.23314C35.3441 9.23287 35.3374 9.23266 35.3319 9.23239V1.39459ZM35.3277 0.903122V0.911309H35.028H34.4212H34.1174V1.21511V9.22498C34.1049 9.23068 34.0821 9.2376 34.0504 9.2376C34.0187 9.2376 33.996 9.23068 33.9834 9.22498V1.21511V0.911309H33.6796H33.1403H32.8365V1.21511V9.23239C32.8358 9.2326 32.8351 9.23287 32.8344 9.23314C32.8262 9.23575 32.8154 9.2376 32.8032 9.2376C32.791 9.2376 32.7801 9.23575 32.772 9.23314C32.7713 9.23287 32.7705 9.2326 32.7699 9.23239V1.28254V0.903842L32.4003 0.985984C32.2172 1.02665 32.0577 1.09357 31.9291 1.20185C31.7974 1.31273 31.7196 1.44885 31.6722 1.591C31.627 1.72674 31.6078 1.87362 31.5948 2.01268C31.5891 2.07412 31.5841 2.13882 31.5792 2.20349C31.5784 2.21326 31.5777 2.22304 31.5769 2.2328C31.5712 2.30833 31.5651 2.3854 31.557 2.46592L31.5565 2.47084L31.5561 2.47577L31.0842 9.48754L31.0835 9.49776V9.50798C31.0835 11.0421 32.0072 12.0011 33.1021 12.3642C33.048 15.2161 32.8861 16.2269 32.4335 19.0539C32.2717 20.0641 32.0728 21.3061 31.8285 22.9469L31.8282 22.9488C31.6195 24.4098 31.8103 25.5686 32.2322 26.3835C32.653 27.1963 33.3177 27.6832 34.0351 27.7196C34.7609 27.7564 35.4404 27.3274 35.8676 26.5183C36.2922 25.7142 36.4803 24.524 36.273 22.952L36.2728 22.9501C36.1224 21.8633 35.994 20.9513 35.8834 20.1655C35.3604 16.4521 35.2343 15.5567 35.073 12.3501C35.5711 12.162 36.0433 11.8687 36.3997 11.4375C36.8138 10.9369 37.0536 10.2718 37.017 9.42734L37.0166 9.41993L36.5453 2.48587C36.5453 2.4764 36.5453 2.4669 36.5453 2.45739C36.5455 2.15374 36.5457 1.8353 36.4501 1.58045C36.3954 1.43463 36.3083 1.30209 36.1739 1.19589C36.0426 1.09219 35.8826 1.02643 35.7006 0.985984L35.3277 0.903122Z" fill="url(#paint0_linear_875_169)" stroke="#FF5900"/>
<path d="M44.2346 13.7955C46.107 13.3013 47.467 11.266 47.5342 8.97778L47.5344 8.97339V8.96887C47.5344 7.60169 47.0658 5.62062 46.3278 3.98152C45.9581 3.16044 45.5126 2.40664 45.0093 1.85301C44.5104 1.30432 43.9166 0.911903 43.2527 0.911903C42.5775 0.911903 41.9762 1.28981 41.471 1.8285C40.963 2.37013 40.5188 3.10812 40.1529 3.91319C39.4222 5.52066 38.971 7.46811 38.971 8.83399C38.971 11.2491 40.2624 13.3015 42.1987 13.7964C42.1168 16.0788 42.0086 16.7104 41.7404 18.2755C41.5693 19.2741 41.333 20.6526 40.9969 23.0823C40.7715 24.5076 40.9398 25.6367 41.3401 26.4304C41.7402 27.2237 42.3854 27.6971 43.0873 27.7284C43.7952 27.7602 44.4607 27.3382 44.8834 26.5511C45.304 25.7678 45.4973 24.6115 45.307 23.0892L45.3059 23.0822C45.0593 21.4258 44.8727 20.2629 44.7305 19.3762C44.3385 16.9334 44.283 16.5874 44.2346 13.7955Z" fill="url(#paint1_linear_875_169)" stroke="#FF5900"/>
</g>
<defs>
<linearGradient id="paint0_linear_875_169" x1="34.0521" y1="1.21511" x2="34.0521" y2="27.418" gradientUnits="userSpaceOnUse">
<stop stop-color="#CCDFFF"/>
<stop offset="0.359375" stop-color="#C5BBFF"/>
<stop offset="1" stop-color="#BA93FF"/>
</linearGradient>
<linearGradient id="paint1_linear_875_169" x1="43.2527" y1="1.2157" x2="43.2527" y2="27.4263" gradientUnits="userSpaceOnUse">
<stop stop-color="#CCDFFF"/>
<stop offset="0.359375" stop-color="#C5BBFF"/>
<stop offset="1" stop-color="#BA93FF"/>
</linearGradient>
</defs>
</svg>
