<svg width="528" height="188" viewBox="0 0 528 188" fill="none" xmlns="http://www.w3.org/2000/svg">
<path d="M22.422 19V6.076H27.192C29.928 6.076 31.386 7.282 31.386 9.442C31.386 11.098 30.378 11.926 29.388 12.268C30.846 12.664 31.818 13.798 31.818 15.436C31.818 17.686 30.18 19 27.57 19H22.422ZM24.096 11.62H27.048C28.776 11.62 29.73 10.954 29.73 9.586C29.73 8.2 28.776 7.534 27.048 7.534H24.096V11.62ZM24.096 13.096V17.542H27.498C29.226 17.542 30.162 16.642 30.162 15.31C30.162 13.996 29.226 13.096 27.498 13.096H24.096ZM36.2041 19.162C34.4941 19.162 33.1081 18.154 33.1081 16.462C33.1081 14.59 34.5661 13.816 36.6721 13.384L38.9581 12.916V12.52C38.9581 11.44 38.3641 10.828 37.1041 10.828C35.9161 10.828 35.2141 11.386 34.9261 12.43L33.3961 12.034C33.8461 10.504 35.2321 9.406 37.1581 9.406C39.2641 9.406 40.5601 10.432 40.5601 12.448V17.038C40.5601 17.65 40.9381 17.848 41.5681 17.704V19C40.1281 19.18 39.3001 18.838 39.1021 17.938C38.5261 18.676 37.4821 19.162 36.2041 19.162ZM38.9581 15.796V14.176L37.1221 14.572C35.6821 14.86 34.7101 15.256 34.7101 16.39C34.7101 17.308 35.3761 17.848 36.4021 17.848C37.7881 17.848 38.9581 17.002 38.9581 15.796ZM43.5727 16.75V10.972H42.1147V9.586H43.5727V6.832H45.1747V9.586H47.3167V10.972H45.1747V16.498C45.1747 17.488 45.6607 17.668 46.4887 17.668C46.8667 17.668 47.1367 17.65 47.5147 17.56V18.946C47.1007 19.036 46.6327 19.09 46.0927 19.09C44.4907 19.09 43.5727 18.55 43.5727 16.75ZM49.6899 16.75V10.972H48.2319V9.586H49.6899V6.832H51.2919V9.586H53.4339V10.972H51.2919V16.498C51.2919 17.488 51.7779 17.668 52.6059 17.668C52.9839 17.668 53.2539 17.65 53.6319 17.56V18.946C53.2179 19.036 52.7499 19.09 52.2099 19.09C50.6079 19.09 49.6899 18.55 49.6899 16.75ZM59.2643 19.198C56.6543 19.198 54.8543 17.2 54.8543 14.302C54.8543 11.494 56.6363 9.406 59.1923 9.406C61.8203 9.406 63.2063 11.404 63.2063 14.014V14.554H56.4023C56.4923 16.534 57.6263 17.794 59.2643 17.794C60.5243 17.794 61.4243 17.11 61.7123 15.994L63.1343 16.498C62.5583 18.172 61.1363 19.198 59.2643 19.198ZM59.1743 10.792C57.8063 10.792 56.7803 11.71 56.4923 13.312H61.5683C61.5323 11.98 60.8123 10.792 59.1743 10.792ZM70.101 9.55V11.188C69.831 11.134 69.615 11.116 69.309 11.116C67.941 11.116 66.843 12.196 66.843 13.852V19H65.223V9.586H66.843V11.188C67.257 10.234 68.175 9.514 69.453 9.514C69.705 9.514 69.939 9.532 70.101 9.55ZM75.4826 20.026C74.9426 21.448 74.2046 22.348 72.5666 22.348C72.1706 22.348 71.9726 22.33 71.6846 22.276V20.872C71.9906 20.944 72.1886 20.962 72.4586 20.962C73.1606 20.962 73.5386 20.71 73.9166 19.774L74.3666 18.658L70.8746 9.586H72.5846L75.2306 16.786L77.8406 9.586H79.5326L75.4826 20.026ZM84.9825 19V6.076H89.7525C92.4885 6.076 93.9465 7.282 93.9465 9.442C93.9465 11.098 92.9385 11.926 91.9485 12.268C93.4065 12.664 94.3785 13.798 94.3785 15.436C94.3785 17.686 92.7405 19 90.1305 19H84.9825ZM86.6565 11.62H89.6085C91.3365 11.62 92.2905 10.954 92.2905 9.586C92.2905 8.2 91.3365 7.534 89.6085 7.534H86.6565V11.62ZM86.6565 13.096V17.542H90.0585C91.7865 17.542 92.7225 16.642 92.7225 15.31C92.7225 13.996 91.7865 13.096 90.0585 13.096H86.6565ZM98.7646 19.162C97.0546 19.162 95.6686 18.154 95.6686 16.462C95.6686 14.59 97.1266 13.816 99.2326 13.384L101.519 12.916V12.52C101.519 11.44 100.925 10.828 99.6646 10.828C98.4766 10.828 97.7746 11.386 97.4866 12.43L95.9566 12.034C96.4066 10.504 97.7926 9.406 99.7186 9.406C101.825 9.406 103.121 10.432 103.121 12.448V17.038C103.121 17.65 103.499 17.848 104.129 17.704V19C102.689 19.18 101.861 18.838 101.663 17.938C101.087 18.676 100.043 19.162 98.7646 19.162ZM101.519 15.796V14.176L99.6826 14.572C98.2426 14.86 97.2706 15.256 97.2706 16.39C97.2706 17.308 97.9366 17.848 98.9626 17.848C100.349 17.848 101.519 17.002 101.519 15.796ZM106.853 14.302C106.853 16.444 108.005 17.776 109.679 17.776C110.975 17.776 111.749 16.948 112.019 15.778L113.459 16.444C113.009 18.01 111.641 19.198 109.679 19.198C107.051 19.198 105.233 17.2 105.233 14.302C105.233 11.386 107.051 9.406 109.679 9.406C111.641 9.406 112.973 10.54 113.423 12.106L112.019 12.808C111.749 11.656 110.975 10.81 109.679 10.81C108.005 10.81 106.853 12.142 106.853 14.302ZM116.853 6.076V13.978L121.029 9.586H123.045L119.373 13.294L123.351 19H121.461L118.221 14.464L116.853 15.85V19H115.233V6.076H116.853ZM123.52 14.482V13.024H128.434V14.482H123.52ZM138.172 9.586V19H136.552V17.704C136.012 18.496 135.094 19.198 133.762 19.198C131.746 19.198 130.612 17.812 130.612 15.814V9.586H132.232V15.472C132.232 16.804 132.808 17.704 134.194 17.704C135.364 17.704 136.552 16.822 136.552 15.256V9.586H138.172ZM145.398 19.198C144.084 19.198 143.04 18.568 142.482 17.632V22.24H140.862V9.586H142.482V10.954C143.04 10.036 144.084 9.406 145.398 9.406C148.008 9.406 149.502 11.62 149.502 14.302C149.502 16.966 148.008 19.198 145.398 19.198ZM142.446 13.978V14.644C142.446 16.804 143.778 17.776 145.11 17.776C146.874 17.776 147.864 16.318 147.864 14.302C147.864 12.268 146.874 10.828 145.11 10.828C143.778 10.828 142.446 11.782 142.446 13.978ZM153.907 19.162C152.197 19.162 150.811 18.154 150.811 16.462C150.811 14.59 152.269 13.816 154.375 13.384L156.661 12.916V12.52C156.661 11.44 156.067 10.828 154.807 10.828C153.619 10.828 152.917 11.386 152.629 12.43L151.099 12.034C151.549 10.504 152.935 9.406 154.861 9.406C156.967 9.406 158.263 10.432 158.263 12.448V17.038C158.263 17.65 158.641 17.848 159.271 17.704V19C157.831 19.18 157.003 18.838 156.805 17.938C156.229 18.676 155.185 19.162 153.907 19.162ZM156.661 15.796V14.176L154.825 14.572C153.385 14.86 152.413 15.256 152.413 16.39C152.413 17.308 153.079 17.848 154.105 17.848C155.491 17.848 156.661 17.002 156.661 15.796ZM159.98 17.002L161.24 16.084C161.744 17.182 162.896 17.848 164.12 17.848C165.218 17.848 166.19 17.38 166.19 16.354C166.19 15.328 165.29 15.184 163.742 14.86C162.194 14.518 160.574 14.176 160.574 12.25C160.574 10.576 162.032 9.406 164.03 9.406C165.722 9.406 167.108 10.234 167.666 11.35L166.514 12.268C166.028 11.332 165.146 10.738 163.958 10.738C162.878 10.738 162.158 11.278 162.158 12.124C162.158 13.006 162.986 13.168 164.3 13.456C165.92 13.834 167.774 14.158 167.774 16.21C167.774 18.01 166.136 19.198 164.12 19.198C162.41 19.198 160.7 18.46 159.98 17.002ZM178.057 9.586H179.425L181.369 16.606L183.331 9.586H184.951L182.089 19H180.667L178.705 12.016L176.743 19H175.321L172.459 9.586H174.133L176.113 16.588L178.057 9.586ZM190.116 19.198C187.506 19.198 185.706 17.2 185.706 14.302C185.706 11.494 187.488 9.406 190.044 9.406C192.672 9.406 194.058 11.404 194.058 14.014V14.554H187.254C187.344 16.534 188.478 17.794 190.116 17.794C191.376 17.794 192.276 17.11 192.564 15.994L193.986 16.498C193.41 18.172 191.988 19.198 190.116 19.198ZM190.026 10.792C188.658 10.792 187.632 11.71 187.344 13.312H192.42C192.384 11.98 191.664 10.792 190.026 10.792ZM197.695 6.076V19H196.075V6.076H197.695ZM202.019 6.076V19H200.399V6.076H202.019ZM215.99 9.586V19H214.37V17.704C213.83 18.496 212.912 19.198 211.58 19.198C209.564 19.198 208.43 17.812 208.43 15.814V9.586H210.05V15.472C210.05 16.804 210.626 17.704 212.012 17.704C213.182 17.704 214.37 16.822 214.37 15.256V9.586H215.99ZM217.636 17.002L218.896 16.084C219.4 17.182 220.552 17.848 221.776 17.848C222.874 17.848 223.846 17.38 223.846 16.354C223.846 15.328 222.946 15.184 221.398 14.86C219.85 14.518 218.23 14.176 218.23 12.25C218.23 10.576 219.688 9.406 221.686 9.406C223.378 9.406 224.764 10.234 225.322 11.35L224.17 12.268C223.684 11.332 222.802 10.738 221.614 10.738C220.534 10.738 219.814 11.278 219.814 12.124C219.814 13.006 220.642 13.168 221.956 13.456C223.576 13.834 225.43 14.158 225.43 16.21C225.43 18.01 223.792 19.198 221.776 19.198C220.066 19.198 218.356 18.46 217.636 17.002ZM236.109 9.55V11.188C235.839 11.134 235.623 11.116 235.317 11.116C233.949 11.116 232.851 12.196 232.851 13.852V19H231.231V9.586H232.851V11.188C233.265 10.234 234.183 9.514 235.461 9.514C235.713 9.514 235.947 9.532 236.109 9.55ZM246.226 19.198C244.912 19.198 243.868 18.568 243.31 17.632V22.24H241.69V9.586H243.31V10.954C243.868 10.036 244.912 9.406 246.226 9.406C248.836 9.406 250.33 11.62 250.33 14.302C250.33 16.966 248.836 19.198 246.226 19.198ZM243.274 13.978V14.644C243.274 16.804 244.606 17.776 245.938 17.776C247.702 17.776 248.692 16.318 248.692 14.302C248.692 12.268 247.702 10.828 245.938 10.828C244.606 10.828 243.274 11.782 243.274 13.978ZM253.997 6.076V19H252.377V6.076H253.997ZM264.172 9.586V19H262.552V17.704C262.012 18.496 261.094 19.198 259.762 19.198C257.746 19.198 256.612 17.812 256.612 15.814V9.586H258.232V15.472C258.232 16.804 258.808 17.704 260.194 17.704C261.364 17.704 262.552 16.822 262.552 15.256V9.586H264.172ZM274.836 18.154C274.836 20.908 273.018 22.438 270.462 22.438C268.392 22.438 266.88 21.484 266.358 19.756L267.87 19.18C268.176 20.386 269.148 21.088 270.462 21.088C272.118 21.088 273.216 20.242 273.216 18.28V17.218C272.712 18.136 271.65 18.784 270.336 18.784C267.762 18.784 266.25 16.66 266.25 14.086C266.25 11.53 267.762 9.406 270.336 9.406C271.632 9.406 272.712 10.054 273.216 10.972V9.586H274.836V18.154ZM273.234 13.942C273.234 11.836 271.974 10.828 270.624 10.828C268.914 10.828 267.87 12.106 267.87 14.086C267.87 16.066 268.914 17.362 270.624 17.362C271.974 17.362 273.234 16.354 273.234 14.284V13.942ZM277.1 14.482V13.024H282.014V14.482H277.1ZM284.21 7.948V6.076H285.974V7.948H284.21ZM285.902 9.586V19H284.282V9.586H285.902ZM288.606 19V9.586H290.226V10.864C290.766 10.09 291.702 9.406 293.034 9.406C295.032 9.406 296.166 10.792 296.166 12.79V19H294.546V13.222C294.546 11.908 293.988 10.918 292.584 10.918C291.414 10.918 290.226 11.818 290.226 13.384V19H288.606ZM310.033 9.586V19H308.413V17.704C307.873 18.496 306.955 19.198 305.623 19.198C303.607 19.198 302.473 17.812 302.473 15.814V9.586H304.093V15.472C304.093 16.804 304.669 17.704 306.055 17.704C307.225 17.704 308.413 16.822 308.413 15.256V9.586H310.033ZM311.679 17.002L312.939 16.084C313.443 17.182 314.595 17.848 315.819 17.848C316.917 17.848 317.889 17.38 317.889 16.354C317.889 15.328 316.989 15.184 315.441 14.86C313.893 14.518 312.273 14.176 312.273 12.25C312.273 10.576 313.731 9.406 315.729 9.406C317.421 9.406 318.807 10.234 319.365 11.35L318.213 12.268C317.727 11.332 316.845 10.738 315.657 10.738C314.577 10.738 313.857 11.278 313.857 12.124C313.857 13.006 314.685 13.168 315.999 13.456C317.619 13.834 319.473 14.158 319.473 16.21C319.473 18.01 317.835 19.198 315.819 19.198C314.109 19.198 312.399 18.46 311.679 17.002ZM323.835 19.162C322.125 19.162 320.739 18.154 320.739 16.462C320.739 14.59 322.197 13.816 324.303 13.384L326.589 12.916V12.52C326.589 11.44 325.995 10.828 324.735 10.828C323.547 10.828 322.845 11.386 322.557 12.43L321.027 12.034C321.477 10.504 322.863 9.406 324.789 9.406C326.895 9.406 328.191 10.432 328.191 12.448V17.038C328.191 17.65 328.569 17.848 329.199 17.704V19C327.759 19.18 326.931 18.838 326.733 17.938C326.157 18.676 325.113 19.162 323.835 19.162ZM326.589 15.796V14.176L324.753 14.572C323.313 14.86 322.341 15.256 322.341 16.39C322.341 17.308 323.007 17.848 324.033 17.848C325.419 17.848 326.589 17.002 326.589 15.796ZM338.926 18.154C338.926 20.908 337.108 22.438 334.552 22.438C332.482 22.438 330.97 21.484 330.448 19.756L331.96 19.18C332.266 20.386 333.238 21.088 334.552 21.088C336.208 21.088 337.306 20.242 337.306 18.28V17.218C336.802 18.136 335.74 18.784 334.426 18.784C331.852 18.784 330.34 16.66 330.34 14.086C330.34 11.53 331.852 9.406 334.426 9.406C335.722 9.406 336.802 10.054 337.306 10.972V9.586H338.926V18.154ZM337.324 13.942C337.324 11.836 336.064 10.828 334.714 10.828C333.004 10.828 331.96 12.106 331.96 14.086C331.96 16.066 333.004 17.362 334.714 17.362C336.064 17.362 337.324 16.354 337.324 14.284V13.942ZM345.383 19.198C342.773 19.198 340.973 17.2 340.973 14.302C340.973 11.494 342.755 9.406 345.311 9.406C347.939 9.406 349.325 11.404 349.325 14.014V14.554H342.521C342.611 16.534 343.745 17.794 345.383 17.794C346.643 17.794 347.543 17.11 347.831 15.994L349.253 16.498C348.677 18.172 347.255 19.198 345.383 19.198ZM345.293 10.792C343.925 10.792 342.899 11.71 342.611 13.312H347.687C347.651 11.98 346.931 10.792 345.293 10.792ZM356.759 13.366V19H355.139V9.586H356.759V10.864C357.263 10.09 358.163 9.406 359.477 9.406C360.737 9.406 361.619 10.036 362.087 11.008C362.609 10.234 363.617 9.406 365.093 9.406C367.037 9.406 368.207 10.792 368.207 12.79V19H366.587V13.222C366.587 11.908 366.047 10.918 364.715 10.918C363.635 10.918 362.483 11.836 362.483 13.366V19H360.863V13.222C360.863 11.908 360.323 10.918 358.991 10.918C357.911 10.918 356.759 11.836 356.759 13.366ZM378.919 14.302C378.919 17.218 377.119 19.198 374.545 19.198C371.971 19.198 370.171 17.218 370.171 14.302C370.171 11.386 371.971 9.406 374.545 9.406C377.119 9.406 378.919 11.386 378.919 14.302ZM371.809 14.302C371.809 16.444 372.889 17.812 374.545 17.812C376.201 17.812 377.281 16.444 377.281 14.302C377.281 12.142 376.201 10.774 374.545 10.774C372.889 10.774 371.809 12.142 371.809 14.302ZM384.435 19.198C381.825 19.198 380.331 16.966 380.331 14.302C380.331 11.62 381.825 9.406 384.435 9.406C385.749 9.406 386.793 10.036 387.351 10.954V6.076H388.971V19H387.351V17.632C386.793 18.568 385.749 19.198 384.435 19.198ZM387.387 13.978C387.387 11.782 386.055 10.828 384.723 10.828C382.959 10.828 381.969 12.268 381.969 14.302C381.969 16.318 382.959 17.776 384.723 17.776C386.055 17.776 387.387 16.804 387.387 14.644V13.978ZM395.411 19.198C392.801 19.198 391.001 17.2 391.001 14.302C391.001 11.494 392.783 9.406 395.339 9.406C397.967 9.406 399.353 11.404 399.353 14.014V14.554H392.549C392.639 16.534 393.773 17.794 395.411 17.794C396.671 17.794 397.571 17.11 397.859 15.994L399.281 16.498C398.705 18.172 397.283 19.198 395.411 19.198ZM395.321 10.792C393.953 10.792 392.927 11.71 392.639 13.312H397.715C397.679 11.98 396.959 10.792 395.321 10.792Z" fill="#4D148C"/>
<circle cx="3" cy="12" r="3" fill="#4D148C"/>
<rect y="9" width="6" height="6" fill="#4D148C"/>
<path d="M24.15 46.3828V51.8008H22.422V38.8768H27.354C30.09 38.8768 31.836 40.1548 31.836 42.6208C31.836 45.0508 30.09 46.3828 27.354 46.3828H24.15ZM24.15 44.8888H27.264C29.1 44.8888 30.126 44.0788 30.126 42.6208C30.126 41.1628 29.1 40.3708 27.264 40.3708H24.15V44.8888ZM34.644 45.3388C34.644 48.3988 36.336 50.4688 38.73 50.4688C40.404 50.4688 41.61 49.4968 42.078 47.8588L43.716 48.3988C42.96 50.6308 41.196 51.9988 38.73 51.9988C35.382 51.9988 32.916 49.2808 32.916 45.3388C32.916 41.3968 35.382 38.6788 38.73 38.6788C41.196 38.6788 42.96 40.0468 43.716 42.2788L42.078 42.8188C41.61 41.1808 40.404 40.2088 38.73 40.2088C36.336 40.2088 34.644 42.2788 34.644 45.3388ZM47.2652 38.8768V51.8008H45.5372V38.8768H47.2652ZM54.8044 47.1028C54.8044 49.2448 55.9564 50.5768 57.6304 50.5768C58.9264 50.5768 59.7004 49.7488 59.9704 48.5788L61.4104 49.2448C60.9604 50.8108 59.5924 51.9988 57.6304 51.9988C55.0024 51.9988 53.1844 50.0008 53.1844 47.1028C53.1844 44.1868 55.0024 42.2068 57.6304 42.2068C59.5924 42.2068 60.9244 43.3408 61.3744 44.9068L59.9704 45.6088C59.7004 44.4568 58.9264 43.6108 57.6304 43.6108C55.9564 43.6108 54.8044 44.9428 54.8044 47.1028ZM71.284 47.1028C71.284 50.0188 69.484 51.9988 66.91 51.9988C64.336 51.9988 62.536 50.0188 62.536 47.1028C62.536 44.1868 64.336 42.2068 66.91 42.2068C69.484 42.2068 71.284 44.1868 71.284 47.1028ZM64.174 47.1028C64.174 49.2448 65.254 50.6128 66.91 50.6128C68.566 50.6128 69.646 49.2448 69.646 47.1028C69.646 44.9428 68.566 43.5748 66.91 43.5748C65.254 43.5748 64.174 44.9428 64.174 47.1028ZM74.9641 46.1668V51.8008H73.3441V42.3868H74.9641V43.6648C75.4681 42.8908 76.3681 42.2068 77.6821 42.2068C78.9421 42.2068 79.8241 42.8368 80.2921 43.8088C80.8141 43.0348 81.8221 42.2068 83.2981 42.2068C85.2421 42.2068 86.4121 43.5928 86.4121 45.5908V51.8008H84.7921V46.0228C84.7921 44.7088 84.2521 43.7188 82.9201 43.7188C81.8401 43.7188 80.6881 44.6368 80.6881 46.1668V51.8008H79.0681V46.0228C79.0681 44.7088 78.5281 43.7188 77.1961 43.7188C76.1161 43.7188 74.9641 44.6368 74.9641 46.1668ZM93.5598 51.9988C92.2458 51.9988 91.2018 51.3688 90.6438 50.4328V55.0408H89.0238V42.3868H90.6438V43.7548C91.2018 42.8368 92.2458 42.2068 93.5598 42.2068C96.1698 42.2068 97.6638 44.4208 97.6638 47.1028C97.6638 49.7668 96.1698 51.9988 93.5598 51.9988ZM90.6078 46.7788V47.4448C90.6078 49.6048 91.9398 50.5768 93.2718 50.5768C95.0358 50.5768 96.0258 49.1188 96.0258 47.1028C96.0258 45.0688 95.0358 43.6288 93.2718 43.6288C91.9398 43.6288 90.6078 44.5828 90.6078 46.7788ZM101.331 38.8768V51.8008H99.7113V38.8768H101.331ZM103.964 40.7488V38.8768H105.728V40.7488H103.964ZM105.656 42.3868V51.8008H104.036V42.3868H105.656ZM110.718 51.9628C109.008 51.9628 107.622 50.9548 107.622 49.2628C107.622 47.3908 109.08 46.6168 111.186 46.1848L113.472 45.7168V45.3208C113.472 44.2408 112.878 43.6288 111.618 43.6288C110.43 43.6288 109.728 44.1868 109.44 45.2308L107.91 44.8348C108.36 43.3048 109.746 42.2068 111.672 42.2068C113.778 42.2068 115.074 43.2328 115.074 45.2488V49.8388C115.074 50.4508 115.452 50.6488 116.082 50.5048V51.8008C114.642 51.9808 113.814 51.6388 113.616 50.7388C113.04 51.4768 111.996 51.9628 110.718 51.9628ZM113.472 48.5968V46.9768L111.636 47.3728C110.196 47.6608 109.224 48.0568 109.224 49.1908C109.224 50.1088 109.89 50.6488 110.916 50.6488C112.302 50.6488 113.472 49.8028 113.472 48.5968ZM117.834 51.8008V42.3868H119.454V43.6648C119.994 42.8908 120.93 42.2068 122.262 42.2068C124.26 42.2068 125.394 43.5928 125.394 45.5908V51.8008H123.774V46.0228C123.774 44.7088 123.216 43.7188 121.812 43.7188C120.642 43.7188 119.454 44.6188 119.454 46.1848V51.8008H117.834ZM128.247 49.5508V43.7728H126.789V42.3868H128.247V39.6328H129.849V42.3868H131.991V43.7728H129.849V49.2988C129.849 50.2888 130.335 50.4688 131.163 50.4688C131.541 50.4688 131.811 50.4508 132.189 50.3608V51.7468C131.775 51.8368 131.307 51.8908 130.767 51.8908C129.165 51.8908 128.247 51.3508 128.247 49.5508ZM142.391 42.3868H143.759L145.703 49.4068L147.665 42.3868H149.285L146.423 51.8008H145.001L143.039 44.8168L141.077 51.8008H139.655L136.793 42.3868H138.467L140.447 49.3888L142.391 42.3868ZM150.792 40.7488V38.8768H152.556V40.7488H150.792ZM152.484 42.3868V51.8008H150.864V42.3868H152.484ZM155.44 49.5508V43.7728H153.982V42.3868H155.44V39.6328H157.042V42.3868H159.184V43.7728H157.042V49.2988C157.042 50.2888 157.528 50.4688 158.356 50.4688C158.734 50.4688 159.004 50.4508 159.382 50.3608V51.7468C158.968 51.8368 158.5 51.8908 157.96 51.8908C156.358 51.8908 155.44 51.3508 155.44 49.5508ZM161.305 51.8008V38.8768H162.925V43.6648C163.465 42.8908 164.401 42.2068 165.733 42.2068C167.731 42.2068 168.865 43.5928 168.865 45.5908V51.8008H167.245V46.0228C167.245 44.7088 166.687 43.7188 165.283 43.7188C164.113 43.7188 162.925 44.6188 162.925 46.1848V51.8008H161.305ZM179.366 38.7148V40.1548C179.096 40.1188 178.934 40.1188 178.664 40.1188C177.71 40.1188 177.188 40.5328 177.188 41.7388V42.3868H179.276V43.7728H177.188V51.8008H175.568V43.7728H174.146V42.3868H175.568V41.6308C175.568 39.7948 176.576 38.6788 178.502 38.6788C178.826 38.6788 179.006 38.6968 179.366 38.7148ZM188.252 42.3868V51.8008H186.632V50.5048C186.092 51.2968 185.174 51.9988 183.842 51.9988C181.826 51.9988 180.692 50.6128 180.692 48.6148V42.3868H182.312V48.2728C182.312 49.6048 182.888 50.5048 184.274 50.5048C185.444 50.5048 186.632 49.6228 186.632 48.0568V42.3868H188.252ZM192.562 38.8768V51.8008H190.942V38.8768H192.562ZM196.886 38.8768V51.8008H195.266V38.8768H196.886ZM207.149 51.9988C204.539 51.9988 202.739 50.0008 202.739 47.1028C202.739 44.2948 204.521 42.2068 207.077 42.2068C209.705 42.2068 211.091 44.2048 211.091 46.8148V47.3548H204.287C204.377 49.3348 205.511 50.5948 207.149 50.5948C208.409 50.5948 209.309 49.9108 209.597 48.7948L211.019 49.2988C210.443 50.9728 209.021 51.9988 207.149 51.9988ZM207.059 43.5928C205.691 43.5928 204.665 44.5108 204.377 46.1128H209.453C209.417 44.7808 208.697 43.5928 207.059 43.5928ZM213.108 51.8008V42.3868H214.728V43.6648C215.268 42.8908 216.204 42.2068 217.536 42.2068C219.534 42.2068 220.668 43.5928 220.668 45.5908V51.8008H219.048V46.0228C219.048 44.7088 218.49 43.7188 217.086 43.7188C215.916 43.7188 214.728 44.6188 214.728 46.1848V51.8008H213.108ZM224.24 47.1028C224.24 49.2448 225.392 50.5768 227.066 50.5768C228.362 50.5768 229.136 49.7488 229.406 48.5788L230.846 49.2448C230.396 50.8108 229.028 51.9988 227.066 51.9988C224.438 51.9988 222.62 50.0008 222.62 47.1028C222.62 44.1868 224.438 42.2068 227.066 42.2068C229.028 42.2068 230.36 43.3408 230.81 44.9068L229.406 45.6088C229.136 44.4568 228.362 43.6108 227.066 43.6108C225.392 43.6108 224.24 44.9428 224.24 47.1028ZM237.498 42.3508V43.9888C237.228 43.9348 237.012 43.9168 236.706 43.9168C235.338 43.9168 234.24 44.9968 234.24 46.6528V51.8008H232.62V42.3868H234.24V43.9888C234.654 43.0348 235.572 42.3148 236.85 42.3148C237.102 42.3148 237.336 42.3328 237.498 42.3508ZM242.879 52.8268C242.339 54.2488 241.601 55.1488 239.963 55.1488C239.567 55.1488 239.369 55.1308 239.081 55.0768V53.6728C239.387 53.7448 239.585 53.7628 239.855 53.7628C240.557 53.7628 240.935 53.5108 241.313 52.5748L241.763 51.4588L238.271 42.3868H239.981L242.627 49.5868L245.237 42.3868H246.929L242.879 52.8268ZM253.046 51.9988C251.732 51.9988 250.688 51.3688 250.13 50.4328V55.0408H248.51V42.3868H250.13V43.7548C250.688 42.8368 251.732 42.2068 253.046 42.2068C255.656 42.2068 257.15 44.4208 257.15 47.1028C257.15 49.7668 255.656 51.9988 253.046 51.9988ZM250.094 46.7788V47.4448C250.094 49.6048 251.426 50.5768 252.758 50.5768C254.522 50.5768 255.512 49.1188 255.512 47.1028C255.512 45.0688 254.522 43.6288 252.758 43.6288C251.426 43.6288 250.094 44.5828 250.094 46.7788ZM259.45 49.5508V43.7728H257.992V42.3868H259.45V39.6328H261.052V42.3868H263.194V43.7728H261.052V49.2988C261.052 50.2888 261.538 50.4688 262.366 50.4688C262.744 50.4688 263.014 50.4508 263.392 50.3608V51.7468C262.978 51.8368 262.51 51.8908 261.97 51.8908C260.368 51.8908 259.45 51.3508 259.45 49.5508ZM265.243 40.7488V38.8768H267.007V40.7488H265.243ZM266.935 42.3868V51.8008H265.315V42.3868H266.935ZM277.739 47.1028C277.739 50.0188 275.939 51.9988 273.365 51.9988C270.791 51.9988 268.991 50.0188 268.991 47.1028C268.991 44.1868 270.791 42.2068 273.365 42.2068C275.939 42.2068 277.739 44.1868 277.739 47.1028ZM270.629 47.1028C270.629 49.2448 271.709 50.6128 273.365 50.6128C275.021 50.6128 276.101 49.2448 276.101 47.1028C276.101 44.9428 275.021 43.5748 273.365 43.5748C271.709 43.5748 270.629 44.9428 270.629 47.1028ZM279.799 51.8008V42.3868H281.419V43.6648C281.959 42.8908 282.895 42.2068 284.227 42.2068C286.225 42.2068 287.359 43.5928 287.359 45.5908V51.8008H285.739V46.0228C285.739 44.7088 285.181 43.7188 283.777 43.7188C282.607 43.7188 281.419 44.6188 281.419 46.1848V51.8008H279.799ZM293.684 40.7488V38.8768H295.448V40.7488H293.684ZM295.376 42.3868V51.8008H293.756V42.3868H295.376ZM298.08 51.8008V42.3868H299.7V43.6648C300.24 42.8908 301.176 42.2068 302.508 42.2068C304.506 42.2068 305.64 43.5928 305.64 45.5908V51.8008H304.02V46.0228C304.02 44.7088 303.462 43.7188 302.058 43.7188C300.888 43.7188 299.7 44.6188 299.7 46.1848V51.8008H298.08ZM316.574 51.9988C315.26 51.9988 314.216 51.3688 313.658 50.4328V55.0408H312.038V42.3868H313.658V43.7548C314.216 42.8368 315.26 42.2068 316.574 42.2068C319.184 42.2068 320.678 44.4208 320.678 47.1028C320.678 49.7668 319.184 51.9988 316.574 51.9988ZM313.622 46.7788V47.4448C313.622 49.6048 314.954 50.5768 316.286 50.5768C318.05 50.5768 319.04 49.1188 319.04 47.1028C319.04 45.0688 318.05 43.6288 316.286 43.6288C314.954 43.6288 313.622 44.5828 313.622 46.7788ZM324.345 38.8768V51.8008H322.725V38.8768H324.345ZM329.407 51.9628C327.697 51.9628 326.311 50.9548 326.311 49.2628C326.311 47.3908 327.769 46.6168 329.875 46.1848L332.161 45.7168V45.3208C332.161 44.2408 331.567 43.6288 330.307 43.6288C329.119 43.6288 328.417 44.1868 328.129 45.2308L326.599 44.8348C327.049 43.3048 328.435 42.2068 330.361 42.2068C332.467 42.2068 333.763 43.2328 333.763 45.2488V49.8388C333.763 50.4508 334.141 50.6488 334.771 50.5048V51.8008C333.331 51.9808 332.503 51.6388 332.305 50.7388C331.729 51.4768 330.685 51.9628 329.407 51.9628ZM332.161 48.5968V46.9768L330.325 47.3728C328.885 47.6608 327.913 48.0568 327.913 49.1908C327.913 50.1088 328.579 50.6488 329.605 50.6488C330.991 50.6488 332.161 49.8028 332.161 48.5968ZM337.496 47.1028C337.496 49.2448 338.648 50.5768 340.322 50.5768C341.618 50.5768 342.392 49.7488 342.662 48.5788L344.102 49.2448C343.652 50.8108 342.284 51.9988 340.322 51.9988C337.694 51.9988 335.876 50.0008 335.876 47.1028C335.876 44.1868 337.694 42.2068 340.322 42.2068C342.284 42.2068 343.616 43.3408 344.066 44.9068L342.662 45.6088C342.392 44.4568 341.618 43.6108 340.322 43.6108C338.648 43.6108 337.496 44.9428 337.496 47.1028ZM349.637 51.9988C347.027 51.9988 345.227 50.0008 345.227 47.1028C345.227 44.2948 347.009 42.2068 349.565 42.2068C352.193 42.2068 353.579 44.2048 353.579 46.8148V47.3548H346.775C346.865 49.3348 347.999 50.5948 349.637 50.5948C350.897 50.5948 351.797 49.9108 352.085 48.7948L353.507 49.2988C352.931 50.9728 351.509 51.9988 349.637 51.9988ZM349.547 43.5928C348.179 43.5928 347.153 44.5108 346.865 46.1128H351.941C351.905 44.7808 351.185 43.5928 349.547 43.5928Z" fill="#4D148C"/>
<rect y="42" width="6" height="6" fill="#4D148C"/>
<path d="M22.422 84.5996V71.6756H26.526C30.45 71.6756 32.934 74.1956 32.934 78.1376C32.934 82.0796 30.45 84.5996 26.526 84.5996H22.422ZM24.114 83.1056H26.526C29.46 83.1056 31.242 81.1436 31.242 78.1376C31.242 75.1136 29.46 73.1696 26.508 73.1696H24.114V83.1056ZM37.3291 84.7616C35.6191 84.7616 34.2331 83.7536 34.2331 82.0616C34.2331 80.1896 35.6911 79.4156 37.7971 78.9836L40.0831 78.5156V78.1196C40.0831 77.0396 39.4891 76.4276 38.2291 76.4276C37.0411 76.4276 36.3391 76.9856 36.0511 78.0296L34.5211 77.6336C34.9711 76.1036 36.3571 75.0056 38.2831 75.0056C40.3891 75.0056 41.6851 76.0316 41.6851 78.0476V82.6376C41.6851 83.2496 42.0631 83.4476 42.6931 83.3036V84.5996C41.2531 84.7796 40.4251 84.4376 40.2271 83.5376C39.6511 84.2756 38.6071 84.7616 37.3291 84.7616ZM40.0831 81.3956V79.7756L38.2471 80.1716C36.8071 80.4596 35.8351 80.8556 35.8351 81.9896C35.8351 82.9076 36.5011 83.4476 37.5271 83.4476C38.9131 83.4476 40.0831 82.6016 40.0831 81.3956ZM43.4017 82.6016L44.6617 81.6836C45.1657 82.7816 46.3177 83.4476 47.5417 83.4476C48.6397 83.4476 49.6117 82.9796 49.6117 81.9536C49.6117 80.9276 48.7117 80.7836 47.1637 80.4596C45.6157 80.1176 43.9957 79.7756 43.9957 77.8496C43.9957 76.1756 45.4537 75.0056 47.4517 75.0056C49.1437 75.0056 50.5297 75.8336 51.0877 76.9496L49.9357 77.8676C49.4497 76.9316 48.5677 76.3376 47.3797 76.3376C46.2997 76.3376 45.5797 76.8776 45.5797 77.7236C45.5797 78.6056 46.4077 78.7676 47.7217 79.0556C49.3417 79.4336 51.1957 79.7576 51.1957 81.8096C51.1957 83.6096 49.5577 84.7976 47.5417 84.7976C45.8317 84.7976 44.1217 84.0596 43.4017 82.6016ZM53.1996 84.5996V71.6756H54.8196V76.4636C55.3596 75.6896 56.2956 75.0056 57.6276 75.0056C59.6256 75.0056 60.7596 76.3916 60.7596 78.3896V84.5996H59.1396V78.8216C59.1396 77.5076 58.5816 76.5176 57.1776 76.5176C56.0076 76.5176 54.8196 77.4176 54.8196 78.9836V84.5996H53.1996ZM67.8958 84.7976C66.5818 84.7976 65.5378 84.1676 64.9798 83.2316V84.5996H63.3598V71.6756H64.9798V76.5536C65.5378 75.6356 66.5818 75.0056 67.8958 75.0056C70.5058 75.0056 71.9998 77.2196 71.9998 79.9016C71.9998 82.5656 70.5058 84.7976 67.8958 84.7976ZM64.9438 79.5776V80.2436C64.9438 82.4036 66.2758 83.3756 67.6078 83.3756C69.3718 83.3756 70.3618 81.9176 70.3618 79.9016C70.3618 77.8676 69.3718 76.4276 67.6078 76.4276C66.2758 76.4276 64.9438 77.3816 64.9438 79.5776ZM82.1473 79.9016C82.1473 82.8176 80.3473 84.7976 77.7733 84.7976C75.1993 84.7976 73.3993 82.8176 73.3993 79.9016C73.3993 76.9856 75.1993 75.0056 77.7733 75.0056C80.3473 75.0056 82.1473 76.9856 82.1473 79.9016ZM75.0373 79.9016C75.0373 82.0436 76.1173 83.4116 77.7733 83.4116C79.4293 83.4116 80.5093 82.0436 80.5093 79.9016C80.5093 77.7416 79.4293 76.3736 77.7733 76.3736C76.1173 76.3736 75.0373 77.7416 75.0373 79.9016ZM86.5654 84.7616C84.8554 84.7616 83.4694 83.7536 83.4694 82.0616C83.4694 80.1896 84.9274 79.4156 87.0334 78.9836L89.3194 78.5156V78.1196C89.3194 77.0396 88.7254 76.4276 87.4654 76.4276C86.2774 76.4276 85.5754 76.9856 85.2874 78.0296L83.7574 77.6336C84.2074 76.1036 85.5934 75.0056 87.5194 75.0056C89.6254 75.0056 90.9214 76.0316 90.9214 78.0476V82.6376C90.9214 83.2496 91.2994 83.4476 91.9294 83.3036V84.5996C90.4894 84.7796 89.6614 84.4376 89.4634 83.5376C88.8874 84.2756 87.8434 84.7616 86.5654 84.7616ZM89.3194 81.3956V79.7756L87.4834 80.1716C86.0434 80.4596 85.0714 80.8556 85.0714 81.9896C85.0714 82.9076 85.7374 83.4476 86.7634 83.4476C88.1494 83.4476 89.3194 82.6016 89.3194 81.3956ZM98.56 75.1496V76.7876C98.29 76.7336 98.074 76.7156 97.768 76.7156C96.4 76.7156 95.302 77.7956 95.302 79.4516V84.5996H93.682V75.1856H95.302V76.7876C95.716 75.8336 96.634 75.1136 97.912 75.1136C98.164 75.1136 98.398 75.1316 98.56 75.1496ZM103.484 84.7976C100.874 84.7976 99.3797 82.5656 99.3797 79.9016C99.3797 77.2196 100.874 75.0056 103.484 75.0056C104.798 75.0056 105.842 75.6356 106.4 76.5536V71.6756H108.02V84.5996H106.4V83.2316C105.842 84.1676 104.798 84.7976 103.484 84.7976ZM106.436 79.5776C106.436 77.3816 105.104 76.4276 103.772 76.4276C102.008 76.4276 101.018 77.8676 101.018 79.9016C101.018 81.9176 102.008 83.3756 103.772 83.3756C105.104 83.3756 106.436 82.4036 106.436 80.2436V79.5776ZM118.509 84.5996H116.907L113.379 75.1856H115.089L117.735 82.6196L120.345 75.1856H122.037L118.509 84.5996ZM123.546 73.5476V71.6756H125.31V73.5476H123.546ZM125.238 75.1856V84.5996H123.618V75.1856H125.238ZM131.704 84.7976C129.094 84.7976 127.294 82.7996 127.294 79.9016C127.294 77.0936 129.076 75.0056 131.632 75.0056C134.26 75.0056 135.646 77.0036 135.646 79.6136V80.1536H128.842C128.932 82.1336 130.066 83.3936 131.704 83.3936C132.964 83.3936 133.864 82.7096 134.152 81.5936L135.574 82.0976C134.998 83.7716 133.576 84.7976 131.704 84.7976ZM131.614 76.3916C130.246 76.3916 129.22 77.3096 128.932 78.9116H134.008C133.972 77.5796 133.252 76.3916 131.614 76.3916ZM142.057 75.1856H143.425L145.369 82.2056L147.331 75.1856H148.951L146.089 84.5996H144.667L142.705 77.6156L140.743 84.5996H139.321L136.459 75.1856H138.133L140.113 82.1876L142.057 75.1856ZM158.431 71.5136V72.9536C158.161 72.9176 157.999 72.9176 157.729 72.9176C156.775 72.9176 156.253 73.3316 156.253 74.5376V75.1856H158.341V76.5716H156.253V84.5996H154.633V76.5716H153.211V75.1856H154.633V74.4296C154.633 72.5936 155.641 71.4776 157.567 71.4776C157.891 71.4776 158.071 71.4956 158.431 71.5136ZM167.893 79.9016C167.893 82.8176 166.093 84.7976 163.519 84.7976C160.945 84.7976 159.145 82.8176 159.145 79.9016C159.145 76.9856 160.945 75.0056 163.519 75.0056C166.093 75.0056 167.893 76.9856 167.893 79.9016ZM160.783 79.9016C160.783 82.0436 161.863 83.4116 163.519 83.4116C165.175 83.4116 166.255 82.0436 166.255 79.9016C166.255 77.7416 165.175 76.3736 163.519 76.3736C161.863 76.3736 160.783 77.7416 160.783 79.9016ZM174.832 75.1496V76.7876C174.562 76.7336 174.346 76.7156 174.04 76.7156C172.672 76.7156 171.574 77.7956 171.574 79.4516V84.5996H169.954V75.1856H171.574V76.7876C171.988 75.8336 172.906 75.1136 174.184 75.1136C174.436 75.1136 174.67 75.1316 174.832 75.1496ZM182.033 78.9656V84.5996H180.413V75.1856H182.033V76.4636C182.537 75.6896 183.437 75.0056 184.751 75.0056C186.011 75.0056 186.893 75.6356 187.361 76.6076C187.883 75.8336 188.891 75.0056 190.367 75.0056C192.311 75.0056 193.481 76.3916 193.481 78.3896V84.5996H191.861V78.8216C191.861 77.5076 191.321 76.5176 189.989 76.5176C188.909 76.5176 187.757 77.4356 187.757 78.9656V84.5996H186.137V78.8216C186.137 77.5076 185.597 76.5176 184.265 76.5176C183.185 76.5176 182.033 77.4356 182.033 78.9656ZM198.45 84.7616C196.74 84.7616 195.354 83.7536 195.354 82.0616C195.354 80.1896 196.812 79.4156 198.918 78.9836L201.204 78.5156V78.1196C201.204 77.0396 200.61 76.4276 199.35 76.4276C198.162 76.4276 197.46 76.9856 197.172 78.0296L195.642 77.6336C196.092 76.1036 197.478 75.0056 199.404 75.0056C201.51 75.0056 202.806 76.0316 202.806 78.0476V82.6376C202.806 83.2496 203.184 83.4476 203.814 83.3036V84.5996C202.374 84.7796 201.546 84.4376 201.348 83.5376C200.772 84.2756 199.728 84.7616 198.45 84.7616ZM201.204 81.3956V79.7756L199.368 80.1716C197.928 80.4596 196.956 80.8556 196.956 81.9896C196.956 82.9076 197.622 83.4476 198.648 83.4476C200.034 83.4476 201.204 82.6016 201.204 81.3956ZM205.567 84.5996V75.1856H207.187V76.4636C207.727 75.6896 208.663 75.0056 209.995 75.0056C211.993 75.0056 213.127 76.3916 213.127 78.3896V84.5996H211.507V78.8216C211.507 77.5076 210.949 76.5176 209.545 76.5176C208.375 76.5176 207.187 77.4176 207.187 78.9836V84.5996H205.567ZM218.085 84.7616C216.375 84.7616 214.989 83.7536 214.989 82.0616C214.989 80.1896 216.447 79.4156 218.553 78.9836L220.839 78.5156V78.1196C220.839 77.0396 220.245 76.4276 218.985 76.4276C217.797 76.4276 217.095 76.9856 216.807 78.0296L215.277 77.6336C215.727 76.1036 217.113 75.0056 219.039 75.0056C221.145 75.0056 222.441 76.0316 222.441 78.0476V82.6376C222.441 83.2496 222.819 83.4476 223.449 83.3036V84.5996C222.009 84.7796 221.181 84.4376 220.983 83.5376C220.407 84.2756 219.363 84.7616 218.085 84.7616ZM220.839 81.3956V79.7756L219.003 80.1716C217.563 80.4596 216.591 80.8556 216.591 81.9896C216.591 82.9076 217.257 83.4476 218.283 83.4476C219.669 83.4476 220.839 82.6016 220.839 81.3956ZM233.176 83.7536C233.176 86.5076 231.358 88.0376 228.802 88.0376C226.732 88.0376 225.22 87.0836 224.698 85.3556L226.21 84.7796C226.516 85.9856 227.488 86.6876 228.802 86.6876C230.458 86.6876 231.556 85.8416 231.556 83.8796V82.8176C231.052 83.7356 229.99 84.3836 228.676 84.3836C226.102 84.3836 224.59 82.2596 224.59 79.6856C224.59 77.1296 226.102 75.0056 228.676 75.0056C229.972 75.0056 231.052 75.6536 231.556 76.5716V75.1856H233.176V83.7536ZM231.574 79.5416C231.574 77.4356 230.314 76.4276 228.964 76.4276C227.254 76.4276 226.21 77.7056 226.21 79.6856C226.21 81.6656 227.254 82.9616 228.964 82.9616C230.314 82.9616 231.574 81.9536 231.574 79.8836V79.5416ZM235.799 73.5476V71.6756H237.563V73.5476H235.799ZM237.491 75.1856V84.5996H235.871V75.1856H237.491ZM240.196 84.5996V75.1856H241.816V76.4636C242.356 75.6896 243.292 75.0056 244.624 75.0056C246.622 75.0056 247.756 76.3916 247.756 78.3896V84.5996H246.136V78.8216C246.136 77.5076 245.578 76.5176 244.174 76.5176C243.004 76.5176 241.816 77.4176 241.816 78.9836V84.5996H240.196ZM258.33 83.7536C258.33 86.5076 256.512 88.0376 253.956 88.0376C251.886 88.0376 250.374 87.0836 249.852 85.3556L251.364 84.7796C251.67 85.9856 252.642 86.6876 253.956 86.6876C255.612 86.6876 256.71 85.8416 256.71 83.8796V82.8176C256.206 83.7356 255.144 84.3836 253.83 84.3836C251.256 84.3836 249.744 82.2596 249.744 79.6856C249.744 77.1296 251.256 75.0056 253.83 75.0056C255.126 75.0056 256.206 75.6536 256.71 76.5716V75.1856H258.33V83.7536ZM256.728 79.5416C256.728 77.4356 255.468 76.4276 254.118 76.4276C252.408 76.4276 251.364 77.7056 251.364 79.6856C251.364 81.6656 252.408 82.9616 254.118 82.9616C255.468 82.9616 256.728 81.9536 256.728 79.8836V79.5416ZM267.181 84.7616C265.471 84.7616 264.085 83.7536 264.085 82.0616C264.085 80.1896 265.543 79.4156 267.649 78.9836L269.935 78.5156V78.1196C269.935 77.0396 269.341 76.4276 268.081 76.4276C266.893 76.4276 266.191 76.9856 265.903 78.0296L264.373 77.6336C264.823 76.1036 266.209 75.0056 268.135 75.0056C270.241 75.0056 271.537 76.0316 271.537 78.0476V82.6376C271.537 83.2496 271.915 83.4476 272.545 83.3036V84.5996C271.105 84.7796 270.277 84.4376 270.079 83.5376C269.503 84.2756 268.459 84.7616 267.181 84.7616ZM269.935 81.3956V79.7756L268.099 80.1716C266.659 80.4596 265.687 80.8556 265.687 81.9896C265.687 82.9076 266.353 83.4476 267.379 83.4476C268.765 83.4476 269.935 82.6016 269.935 81.3956ZM275.917 71.6756V84.5996H274.297V71.6756H275.917ZM280.241 71.6756V84.5996H278.621V71.6756H280.241ZM290.235 85.6256C289.695 87.0476 288.957 87.9476 287.319 87.9476C286.923 87.9476 286.725 87.9296 286.437 87.8756V86.4716C286.743 86.5436 286.941 86.5616 287.211 86.5616C287.913 86.5616 288.291 86.3096 288.669 85.3736L289.119 84.2576L285.627 75.1856H287.337L289.983 82.3856L292.593 75.1856H294.285L290.235 85.6256ZM303.614 79.9016C303.614 82.8176 301.814 84.7976 299.24 84.7976C296.666 84.7976 294.866 82.8176 294.866 79.9016C294.866 76.9856 296.666 75.0056 299.24 75.0056C301.814 75.0056 303.614 76.9856 303.614 79.9016ZM296.504 79.9016C296.504 82.0436 297.584 83.4116 299.24 83.4116C300.896 83.4116 301.976 82.0436 301.976 79.9016C301.976 77.7416 300.896 76.3736 299.24 76.3736C297.584 76.3736 296.504 77.7416 296.504 79.9016ZM313.144 75.1856V84.5996H311.524V83.3036C310.984 84.0956 310.066 84.7976 308.734 84.7976C306.718 84.7976 305.584 83.4116 305.584 81.4136V75.1856H307.204V81.0716C307.204 82.4036 307.78 83.3036 309.166 83.3036C310.336 83.3036 311.524 82.4216 311.524 80.8556V75.1856H313.144ZM320.712 75.1496V76.7876C320.442 76.7336 320.226 76.7156 319.92 76.7156C318.552 76.7156 317.454 77.7956 317.454 79.4516V84.5996H315.834V75.1856H317.454V76.7876C317.868 75.8336 318.786 75.1136 320.064 75.1136C320.316 75.1136 320.55 75.1316 320.712 75.1496ZM326.545 82.3496V76.5716H325.087V75.1856H326.545V72.4316H328.147V75.1856H330.289V76.5716H328.147V82.0976C328.147 83.0876 328.633 83.2676 329.461 83.2676C329.839 83.2676 330.109 83.2496 330.487 83.1596V84.5456C330.073 84.6356 329.605 84.6896 329.065 84.6896C327.463 84.6896 326.545 84.1496 326.545 82.3496ZM336.12 84.7976C333.51 84.7976 331.71 82.7996 331.71 79.9016C331.71 77.0936 333.492 75.0056 336.048 75.0056C338.676 75.0056 340.062 77.0036 340.062 79.6136V80.1536H333.258C333.348 82.1336 334.482 83.3936 336.12 83.3936C337.38 83.3936 338.28 82.7096 338.568 81.5936L339.99 82.0976C339.414 83.7716 337.992 84.7976 336.12 84.7976ZM336.03 76.3916C334.662 76.3916 333.636 77.3096 333.348 78.9116H338.424C338.388 77.5796 337.668 76.3916 336.03 76.3916ZM346.957 75.1496V76.7876C346.687 76.7336 346.471 76.7156 346.165 76.7156C344.797 76.7156 343.699 77.7956 343.699 79.4516V84.5996H342.079V75.1856H343.699V76.7876C344.113 75.8336 345.031 75.1136 346.309 75.1136C346.561 75.1136 346.795 75.1316 346.957 75.1496ZM350.361 78.9656V84.5996H348.741V75.1856H350.361V76.4636C350.865 75.6896 351.765 75.0056 353.079 75.0056C354.339 75.0056 355.221 75.6356 355.689 76.6076C356.211 75.8336 357.219 75.0056 358.695 75.0056C360.639 75.0056 361.809 76.3916 361.809 78.3896V84.5996H360.189V78.8216C360.189 77.5076 359.649 76.5176 358.317 76.5176C357.237 76.5176 356.085 77.4356 356.085 78.9656V84.5996H354.465V78.8216C354.465 77.5076 353.925 76.5176 352.593 76.5176C351.513 76.5176 350.361 77.4356 350.361 78.9656ZM364.348 73.5476V71.6756H366.112V73.5476H364.348ZM366.04 75.1856V84.5996H364.42V75.1856H366.04ZM368.745 84.5996V75.1856H370.365V76.4636C370.905 75.6896 371.841 75.0056 373.173 75.0056C375.171 75.0056 376.305 76.3916 376.305 78.3896V84.5996H374.685V78.8216C374.685 77.5076 374.127 76.5176 372.723 76.5176C371.553 76.5176 370.365 77.4176 370.365 78.9836V84.5996H368.745ZM381.263 84.7616C379.553 84.7616 378.167 83.7536 378.167 82.0616C378.167 80.1896 379.625 79.4156 381.731 78.9836L384.017 78.5156V78.1196C384.017 77.0396 383.423 76.4276 382.163 76.4276C380.975 76.4276 380.273 76.9856 379.985 78.0296L378.455 77.6336C378.905 76.1036 380.291 75.0056 382.217 75.0056C384.323 75.0056 385.619 76.0316 385.619 78.0476V82.6376C385.619 83.2496 385.997 83.4476 386.627 83.3036V84.5996C385.187 84.7796 384.359 84.4376 384.161 83.5376C383.585 84.2756 382.541 84.7616 381.263 84.7616ZM384.017 81.3956V79.7756L382.181 80.1716C380.741 80.4596 379.769 80.8556 379.769 81.9896C379.769 82.9076 380.435 83.4476 381.461 83.4476C382.847 83.4476 384.017 82.6016 384.017 81.3956ZM389.999 71.6756V84.5996H388.379V71.6756H389.999ZM391.66 82.6016L392.92 81.6836C393.424 82.7816 394.576 83.4476 395.8 83.4476C396.898 83.4476 397.87 82.9796 397.87 81.9536C397.87 80.9276 396.97 80.7836 395.422 80.4596C393.874 80.1176 392.254 79.7756 392.254 77.8496C392.254 76.1756 393.712 75.0056 395.71 75.0056C397.402 75.0056 398.788 75.8336 399.346 76.9496L398.194 77.8676C397.708 76.9316 396.826 76.3376 395.638 76.3376C394.558 76.3376 393.838 76.8776 393.838 77.7236C393.838 78.6056 394.666 78.7676 395.98 79.0556C397.6 79.4336 399.454 79.7576 399.454 81.8096C399.454 83.6096 397.816 84.7976 395.8 84.7976C394.09 84.7976 392.38 84.0596 391.66 82.6016Z" fill="#4D148C"/>
<rect y="75" width="6" height="6" fill="#4D148C"/>
<path d="M29.37 117.4H27.984L24.042 106.762V117.4H22.422V104.476H24.78L28.704 115.096L32.646 104.476H34.932V117.4H33.33V106.762L29.37 117.4ZM41.4753 117.598C38.8653 117.598 37.0653 115.6 37.0653 112.702C37.0653 109.894 38.8473 107.806 41.4033 107.806C44.0313 107.806 45.4173 109.804 45.4173 112.414V112.954H38.6133C38.7033 114.934 39.8373 116.194 41.4753 116.194C42.7353 116.194 43.6353 115.51 43.9233 114.394L45.3453 114.898C44.7693 116.572 43.3473 117.598 41.4753 117.598ZM41.3853 109.192C40.0173 109.192 38.9913 110.11 38.7033 111.712H43.7793C43.7433 110.38 43.0233 109.192 41.3853 109.192ZM52.312 107.95V109.588C52.042 109.534 51.826 109.516 51.52 109.516C50.152 109.516 49.054 110.596 49.054 112.252V117.4H47.434V107.986H49.054V109.588C49.468 108.634 50.386 107.914 51.664 107.914C51.916 107.914 52.15 107.932 52.312 107.95ZM54.6814 112.702C54.6814 114.844 55.8334 116.176 57.5074 116.176C58.8034 116.176 59.5774 115.348 59.8474 114.178L61.2874 114.844C60.8374 116.41 59.4694 117.598 57.5074 117.598C54.8794 117.598 53.0614 115.6 53.0614 112.702C53.0614 109.786 54.8794 107.806 57.5074 107.806C59.4694 107.806 60.8014 108.94 61.2514 110.506L59.8474 111.208C59.5774 110.056 58.8034 109.21 57.5074 109.21C55.8334 109.21 54.6814 110.542 54.6814 112.702ZM63.0609 117.4V104.476H64.6809V109.264C65.2209 108.49 66.1569 107.806 67.4889 107.806C69.4869 107.806 70.6209 109.192 70.6209 111.19V117.4H69.0009V111.622C69.0009 110.308 68.4429 109.318 67.0389 109.318C65.8689 109.318 64.6809 110.218 64.6809 111.784V117.4H63.0609ZM75.5791 117.562C73.8691 117.562 72.4831 116.554 72.4831 114.862C72.4831 112.99 73.9411 112.216 76.0471 111.784L78.3331 111.316V110.92C78.3331 109.84 77.7391 109.228 76.4791 109.228C75.2911 109.228 74.5891 109.786 74.3011 110.83L72.7711 110.434C73.2211 108.904 74.6071 107.806 76.5331 107.806C78.6391 107.806 79.9351 108.832 79.9351 110.848V115.438C79.9351 116.05 80.3131 116.248 80.9431 116.104V117.4C79.5031 117.58 78.6751 117.238 78.4771 116.338C77.9011 117.076 76.8571 117.562 75.5791 117.562ZM78.3331 114.196V112.576L76.4971 112.972C75.0571 113.26 74.0851 113.656 74.0851 114.79C74.0851 115.708 74.7511 116.248 75.7771 116.248C77.1631 116.248 78.3331 115.402 78.3331 114.196ZM82.6957 117.4V107.986H84.3157V109.264C84.8557 108.49 85.7917 107.806 87.1237 107.806C89.1217 107.806 90.2557 109.192 90.2557 111.19V117.4H88.6357V111.622C88.6357 110.308 88.0777 109.318 86.6737 109.318C85.5037 109.318 84.3157 110.218 84.3157 111.784V117.4H82.6957ZM93.1079 115.15V109.372H91.6499V107.986H93.1079V105.232H94.7099V107.986H96.8519V109.372H94.7099V114.898C94.7099 115.888 95.1959 116.068 96.0239 116.068C96.4019 116.068 96.6719 116.05 97.0499 115.96V117.346C96.6359 117.436 96.1679 117.49 95.6279 117.49C94.0259 117.49 93.1079 116.95 93.1079 115.15ZM97.929 115.402L99.189 114.484C99.693 115.582 100.845 116.248 102.069 116.248C103.167 116.248 104.139 115.78 104.139 114.754C104.139 113.728 103.239 113.584 101.691 113.26C100.143 112.918 98.523 112.576 98.523 110.65C98.523 108.976 99.981 107.806 101.979 107.806C103.671 107.806 105.057 108.634 105.615 109.75L104.463 110.668C103.977 109.732 103.095 109.138 101.907 109.138C100.827 109.138 100.107 109.678 100.107 110.524C100.107 111.406 100.935 111.568 102.249 111.856C103.869 112.234 105.723 112.558 105.723 114.61C105.723 116.41 104.085 117.598 102.069 117.598C100.359 117.598 98.649 116.86 97.929 115.402ZM112.496 112.702C112.496 114.844 113.648 116.176 115.322 116.176C116.618 116.176 117.392 115.348 117.662 114.178L119.102 114.844C118.652 116.41 117.284 117.598 115.322 117.598C112.694 117.598 110.876 115.6 110.876 112.702C110.876 109.786 112.694 107.806 115.322 107.806C117.284 107.806 118.616 108.94 119.066 110.506L117.662 111.208C117.392 110.056 116.618 109.21 115.322 109.21C113.648 109.21 112.496 110.542 112.496 112.702ZM123.339 117.562C121.629 117.562 120.243 116.554 120.243 114.862C120.243 112.99 121.701 112.216 123.807 111.784L126.093 111.316V110.92C126.093 109.84 125.499 109.228 124.239 109.228C123.051 109.228 122.349 109.786 122.061 110.83L120.531 110.434C120.981 108.904 122.367 107.806 124.293 107.806C126.399 107.806 127.695 108.832 127.695 110.848V115.438C127.695 116.05 128.073 116.248 128.703 116.104V117.4C127.263 117.58 126.435 117.238 126.237 116.338C125.661 117.076 124.617 117.562 123.339 117.562ZM126.093 114.196V112.576L124.257 112.972C122.817 113.26 121.845 113.656 121.845 114.79C121.845 115.708 122.511 116.248 123.537 116.248C124.923 116.248 126.093 115.402 126.093 114.196ZM130.455 117.4V107.986H132.075V109.264C132.615 108.49 133.551 107.806 134.883 107.806C136.881 107.806 138.015 109.192 138.015 111.19V117.4H136.395V111.622C136.395 110.308 135.837 109.318 134.433 109.318C133.263 109.318 132.075 110.218 132.075 111.784V117.4H130.455ZM146.771 117.562C145.061 117.562 143.675 116.554 143.675 114.862C143.675 112.99 145.133 112.216 147.239 111.784L149.525 111.316V110.92C149.525 109.84 148.931 109.228 147.671 109.228C146.483 109.228 145.781 109.786 145.493 110.83L143.963 110.434C144.413 108.904 145.799 107.806 147.725 107.806C149.831 107.806 151.127 108.832 151.127 110.848V115.438C151.127 116.05 151.505 116.248 152.135 116.104V117.4C150.695 117.58 149.867 117.238 149.669 116.338C149.093 117.076 148.049 117.562 146.771 117.562ZM149.525 114.196V112.576L147.688 112.972C146.249 113.26 145.277 113.656 145.277 114.79C145.277 115.708 145.943 116.248 146.969 116.248C148.354 116.248 149.525 115.402 149.525 114.196ZM154.859 112.702C154.859 114.844 156.011 116.176 157.685 116.176C158.981 116.176 159.755 115.348 160.025 114.178L161.465 114.844C161.015 116.41 159.647 117.598 157.685 117.598C155.057 117.598 153.239 115.6 153.239 112.702C153.239 109.786 155.057 107.806 157.685 107.806C159.647 107.806 160.979 108.94 161.429 110.506L160.025 111.208C159.755 110.056 158.981 109.21 157.685 109.21C156.011 109.21 154.859 110.542 154.859 112.702ZM164.211 112.702C164.211 114.844 165.363 116.176 167.037 116.176C168.333 116.176 169.107 115.348 169.377 114.178L170.817 114.844C170.367 116.41 168.999 117.598 167.037 117.598C164.409 117.598 162.591 115.6 162.591 112.702C162.591 109.786 164.409 107.806 167.037 107.806C168.999 107.806 170.331 108.94 170.781 110.506L169.377 111.208C169.107 110.056 168.333 109.21 167.037 109.21C165.363 109.21 164.211 110.542 164.211 112.702ZM176.352 117.598C173.742 117.598 171.942 115.6 171.942 112.702C171.942 109.894 173.724 107.806 176.28 107.806C178.908 107.806 180.294 109.804 180.294 112.414V112.954H173.49C173.58 114.934 174.714 116.194 176.352 116.194C177.612 116.194 178.512 115.51 178.8 114.394L180.222 114.898C179.646 116.572 178.224 117.598 176.352 117.598ZM176.262 109.192C174.894 109.192 173.868 110.11 173.58 111.712H178.656C178.62 110.38 177.9 109.192 176.262 109.192ZM186.847 117.598C185.533 117.598 184.489 116.968 183.931 116.032V120.64H182.311V107.986H183.931V109.354C184.489 108.436 185.533 107.806 186.847 107.806C189.457 107.806 190.951 110.02 190.951 112.702C190.951 115.366 189.457 117.598 186.847 117.598ZM183.895 112.378V113.044C183.895 115.204 185.227 116.176 186.559 116.176C188.323 116.176 189.313 114.718 189.313 112.702C189.313 110.668 188.323 109.228 186.559 109.228C185.227 109.228 183.895 110.182 183.895 112.378ZM193.25 115.15V109.372H191.792V107.986H193.25V105.232H194.852V107.986H196.994V109.372H194.852V114.898C194.852 115.888 195.338 116.068 196.166 116.068C196.544 116.068 196.814 116.05 197.192 115.96V117.346C196.778 117.436 196.31 117.49 195.77 117.49C194.168 117.49 193.25 116.95 193.25 115.15ZM198.072 115.402L199.332 114.484C199.836 115.582 200.988 116.248 202.212 116.248C203.31 116.248 204.282 115.78 204.282 114.754C204.282 113.728 203.382 113.584 201.834 113.26C200.286 112.918 198.666 112.576 198.666 110.65C198.666 108.976 200.124 107.806 202.122 107.806C203.814 107.806 205.2 108.634 205.758 109.75L204.606 110.668C204.12 109.732 203.238 109.138 202.05 109.138C200.97 109.138 200.25 109.678 200.25 110.524C200.25 111.406 201.078 111.568 202.392 111.856C204.012 112.234 205.866 112.558 205.866 114.61C205.866 116.41 204.228 117.598 202.212 117.598C200.502 117.598 198.792 116.86 198.072 115.402ZM211.738 104.476H220.18V105.988H213.448V109.966H219.154V111.478H213.448V115.888H220.18V117.4H211.738V104.476ZM229.391 117.4H228.005L224.063 106.762V117.4H222.443V104.476H224.801L228.725 115.096L232.667 104.476H234.953V117.4H233.351V106.762L229.391 117.4ZM243.405 117.4H241.587L236.673 104.476H238.527L242.523 115.24L246.519 104.476H248.283L243.405 117.4ZM254.703 112.702C254.703 114.844 255.855 116.176 257.529 116.176C258.825 116.176 259.599 115.348 259.869 114.178L261.309 114.844C260.859 116.41 259.491 117.598 257.529 117.598C254.901 117.598 253.083 115.6 253.083 112.702C253.083 109.786 254.901 107.806 257.529 107.806C259.491 107.806 260.823 108.94 261.273 110.506L259.869 111.208C259.599 110.056 258.825 109.21 257.529 109.21C255.855 109.21 254.703 110.542 254.703 112.702ZM263.082 117.4V104.476H264.702V109.264C265.242 108.49 266.178 107.806 267.51 107.806C269.508 107.806 270.642 109.192 270.642 111.19V117.4H269.022V111.622C269.022 110.308 268.464 109.318 267.06 109.318C265.89 109.318 264.702 110.218 264.702 111.784V117.4H263.082ZM273.171 106.348V104.476H274.935V106.348H273.171ZM274.863 107.986V117.4H273.243V107.986H274.863ZM282.103 117.598C280.789 117.598 279.745 116.968 279.187 116.032V120.64H277.567V107.986H279.187V109.354C279.745 108.436 280.789 107.806 282.103 107.806C284.713 107.806 286.207 110.02 286.207 112.702C286.207 115.366 284.713 117.598 282.103 117.598ZM279.151 112.378V113.044C279.151 115.204 280.483 116.176 281.815 116.176C283.579 116.176 284.569 114.718 284.569 112.702C284.569 110.668 283.579 109.228 281.815 109.228C280.483 109.228 279.151 110.182 279.151 112.378ZM294.409 117.562C292.699 117.562 291.313 116.554 291.313 114.862C291.313 112.99 292.771 112.216 294.877 111.784L297.163 111.316V110.92C297.163 109.84 296.569 109.228 295.309 109.228C294.121 109.228 293.419 109.786 293.131 110.83L291.601 110.434C292.051 108.904 293.437 107.806 295.363 107.806C297.469 107.806 298.765 108.832 298.765 110.848V115.438C298.765 116.05 299.143 116.248 299.773 116.104V117.4C298.333 117.58 297.505 117.238 297.307 116.338C296.731 117.076 295.687 117.562 294.409 117.562ZM297.163 114.196V112.576L295.327 112.972C293.887 113.26 292.915 113.656 292.915 114.79C292.915 115.708 293.581 116.248 294.607 116.248C295.993 116.248 297.163 115.402 297.163 114.196ZM300.482 115.402L301.742 114.484C302.246 115.582 303.398 116.248 304.622 116.248C305.72 116.248 306.692 115.78 306.692 114.754C306.692 113.728 305.792 113.584 304.244 113.26C302.696 112.918 301.076 112.576 301.076 110.65C301.076 108.976 302.534 107.806 304.532 107.806C306.224 107.806 307.61 108.634 308.168 109.75L307.016 110.668C306.53 109.732 305.648 109.138 304.46 109.138C303.38 109.138 302.66 109.678 302.66 110.524C302.66 111.406 303.488 111.568 304.802 111.856C306.422 112.234 308.276 112.558 308.276 114.61C308.276 116.41 306.638 117.598 304.622 117.598C302.912 117.598 301.202 116.86 300.482 115.402ZM318.559 107.986H319.927L321.871 115.006L323.833 107.986H325.453L322.591 117.4H321.169L319.207 110.416L317.245 117.4H315.823L312.961 107.986H314.635L316.615 114.988L318.559 107.986ZM330.618 117.598C328.008 117.598 326.208 115.6 326.208 112.702C326.208 109.894 327.99 107.806 330.546 107.806C333.174 107.806 334.56 109.804 334.56 112.414V112.954H327.756C327.846 114.934 328.98 116.194 330.618 116.194C331.878 116.194 332.778 115.51 333.066 114.394L334.488 114.898C333.912 116.572 332.49 117.598 330.618 117.598ZM330.528 109.192C329.16 109.192 328.134 110.11 327.846 111.712H332.922C332.886 110.38 332.166 109.192 330.528 109.192ZM338.197 104.476V117.4H336.577V104.476H338.197ZM342.521 104.476V117.4H340.901V104.476H342.521ZM351.38 117.562C349.67 117.562 348.284 116.554 348.284 114.862C348.284 112.99 349.742 112.216 351.848 111.784L354.134 111.316V110.92C354.134 109.84 353.54 109.228 352.28 109.228C351.092 109.228 350.39 109.786 350.102 110.83L348.572 110.434C349.022 108.904 350.408 107.806 352.334 107.806C354.44 107.806 355.736 108.832 355.736 110.848V115.438C355.736 116.05 356.114 116.248 356.744 116.104V117.4C355.304 117.58 354.476 117.238 354.278 116.338C353.702 117.076 352.658 117.562 351.38 117.562ZM354.134 114.196V112.576L352.298 112.972C350.858 113.26 349.886 113.656 349.886 114.79C349.886 115.708 350.552 116.248 351.578 116.248C352.964 116.248 354.134 115.402 354.134 114.196ZM357.452 115.402L358.712 114.484C359.216 115.582 360.368 116.248 361.592 116.248C362.69 116.248 363.662 115.78 363.662 114.754C363.662 113.728 362.762 113.584 361.214 113.26C359.666 112.918 358.046 112.576 358.046 110.65C358.046 108.976 359.504 107.806 361.502 107.806C363.194 107.806 364.58 108.634 365.138 109.75L363.986 110.668C363.5 109.732 362.618 109.138 361.43 109.138C360.35 109.138 359.63 109.678 359.63 110.524C359.63 111.406 360.458 111.568 361.772 111.856C363.392 112.234 365.246 112.558 365.246 114.61C365.246 116.41 363.608 117.598 361.592 117.598C359.882 117.598 358.172 116.86 357.452 115.402ZM370.363 110.938C370.363 106.996 372.847 104.278 376.231 104.278C379.615 104.278 382.081 106.996 382.081 110.938C382.081 113.458 381.073 115.492 379.453 116.608C379.975 117.364 380.965 117.958 381.973 118.21L380.965 119.452C379.813 119.128 378.607 118.246 378.085 117.31C377.509 117.49 376.879 117.598 376.231 117.598C372.847 117.598 370.363 114.88 370.363 110.938ZM380.371 110.938C380.371 107.878 378.661 105.808 376.231 105.808C373.801 105.808 372.091 107.878 372.091 110.938C372.091 113.998 373.801 116.068 376.231 116.068C378.661 116.068 380.371 113.998 380.371 110.938ZM385.908 111.982V117.4H384.18V104.476H389.112C391.848 104.476 393.594 105.754 393.594 108.22C393.594 110.29 392.334 111.55 390.282 111.892L393.864 117.4H391.884L388.41 111.982H385.908ZM385.908 110.488H389.022C390.858 110.488 391.884 109.678 391.884 108.22C391.884 106.762 390.858 105.97 389.022 105.97H385.908V110.488ZM404.113 117.598C402.799 117.598 401.755 116.968 401.197 116.032V120.64H399.577V107.986H401.197V109.354C401.755 108.436 402.799 107.806 404.113 107.806C406.723 107.806 408.217 110.02 408.217 112.702C408.217 115.366 406.723 117.598 404.113 117.598ZM401.161 112.378V113.044C401.161 115.204 402.493 116.176 403.825 116.176C405.589 116.176 406.579 114.718 406.579 112.702C406.579 110.668 405.589 109.228 403.825 109.228C402.493 109.228 401.161 110.182 401.161 112.378ZM412.622 117.562C410.912 117.562 409.526 116.554 409.526 114.862C409.526 112.99 410.984 112.216 413.09 111.784L415.376 111.316V110.92C415.376 109.84 414.782 109.228 413.522 109.228C412.334 109.228 411.632 109.786 411.344 110.83L409.814 110.434C410.264 108.904 411.65 107.806 413.576 107.806C415.682 107.806 416.978 108.832 416.978 110.848V115.438C416.978 116.05 417.356 116.248 417.986 116.104V117.4C416.546 117.58 415.718 117.238 415.52 116.338C414.944 117.076 413.9 117.562 412.622 117.562ZM415.376 114.196V112.576L413.54 112.972C412.1 113.26 411.128 113.656 411.128 114.79C411.128 115.708 411.794 116.248 412.82 116.248C414.206 116.248 415.376 115.402 415.376 114.196ZM423.125 118.426C422.585 119.848 421.847 120.748 420.209 120.748C419.813 120.748 419.615 120.73 419.327 120.676V119.272C419.633 119.344 419.831 119.362 420.101 119.362C420.803 119.362 421.181 119.11 421.559 118.174L422.009 117.058L418.517 107.986H420.227L422.873 115.186L425.483 107.986H427.175L423.125 118.426ZM430.376 111.766V117.4H428.756V107.986H430.376V109.264C430.88 108.49 431.78 107.806 433.094 107.806C434.354 107.806 435.236 108.436 435.704 109.408C436.226 108.634 437.234 107.806 438.71 107.806C440.654 107.806 441.824 109.192 441.824 111.19V117.4H440.204V111.622C440.204 110.308 439.664 109.318 438.332 109.318C437.252 109.318 436.1 110.236 436.1 111.766V117.4H434.48V111.622C434.48 110.308 433.94 109.318 432.608 109.318C431.528 109.318 430.376 110.236 430.376 111.766ZM448.198 117.598C445.588 117.598 443.788 115.6 443.788 112.702C443.788 109.894 445.57 107.806 448.126 107.806C450.754 107.806 452.14 109.804 452.14 112.414V112.954H445.336C445.426 114.934 446.56 116.194 448.198 116.194C449.458 116.194 450.358 115.51 450.646 114.394L452.068 114.898C451.492 116.572 450.07 117.598 448.198 117.598ZM448.108 109.192C446.74 109.192 445.714 110.11 445.426 111.712H450.502C450.466 110.38 449.746 109.192 448.108 109.192ZM454.157 117.4V107.986H455.777V109.264C456.317 108.49 457.253 107.806 458.585 107.806C460.583 107.806 461.717 109.192 461.717 111.19V117.4H460.097V111.622C460.097 110.308 459.539 109.318 458.135 109.318C456.965 109.318 455.777 110.218 455.777 111.784V117.4H454.157ZM464.569 115.15V109.372H463.111V107.986H464.569V105.232H466.171V107.986H468.313V109.372H466.171V114.898C466.171 115.888 466.657 116.068 467.485 116.068C467.863 116.068 468.133 116.05 468.511 115.96V117.346C468.097 117.436 467.629 117.49 467.089 117.49C465.487 117.49 464.569 116.95 464.569 115.15ZM469.39 115.402L470.65 114.484C471.154 115.582 472.306 116.248 473.53 116.248C474.628 116.248 475.6 115.78 475.6 114.754C475.6 113.728 474.7 113.584 473.152 113.26C471.604 112.918 469.984 112.576 469.984 110.65C469.984 108.976 471.442 107.806 473.44 107.806C475.132 107.806 476.518 108.634 477.076 109.75L475.924 110.668C475.438 109.732 474.556 109.138 473.368 109.138C472.288 109.138 471.568 109.678 471.568 110.524C471.568 111.406 472.396 111.568 473.71 111.856C475.33 112.234 477.184 112.558 477.184 114.61C477.184 116.41 475.546 117.598 473.53 117.598C471.82 117.598 470.11 116.86 469.39 115.402Z" fill="#4D148C"/>
<rect y="107" width="6" height="6" fill="#4D148C"/>
<path d="M23.394 143.737C23.394 146.797 25.086 148.867 27.48 148.867C29.154 148.867 30.36 147.895 30.828 146.257L32.466 146.797C31.71 149.029 29.946 150.397 27.48 150.397C24.132 150.397 21.666 147.679 21.666 143.737C21.666 139.795 24.132 137.077 27.48 137.077C29.946 137.077 31.71 138.445 32.466 140.677L30.828 141.217C30.36 139.579 29.154 138.607 27.48 138.607C25.086 138.607 23.394 140.677 23.394 143.737ZM42.3152 145.501C42.3152 148.417 40.5152 150.397 37.9412 150.397C35.3672 150.397 33.5672 148.417 33.5672 145.501C33.5672 142.585 35.3672 140.605 37.9412 140.605C40.5152 140.605 42.3152 142.585 42.3152 145.501ZM35.2052 145.501C35.2052 147.643 36.2852 149.011 37.9412 149.011C39.5972 149.011 40.6772 147.643 40.6772 145.501C40.6772 143.341 39.5972 141.973 37.9412 141.973C36.2852 141.973 35.2052 143.341 35.2052 145.501ZM44.3754 150.199V140.785H45.9954V142.063C46.5354 141.289 47.4714 140.605 48.8034 140.605C50.8014 140.605 51.9354 141.991 51.9354 143.989V150.199H50.3154V144.421C50.3154 143.107 49.7574 142.117 48.3534 142.117C47.1834 142.117 45.9954 143.017 45.9954 144.583V150.199H44.3754ZM54.7875 147.949V142.171H53.3295V140.785H54.7875V138.031H56.3895V140.785H58.5315V142.171H56.3895V147.697C56.3895 148.687 56.8755 148.867 57.7035 148.867C58.0815 148.867 58.3515 148.849 58.7295 148.759V150.145C58.3155 150.235 57.8475 150.289 57.3075 150.289C55.7055 150.289 54.7875 149.749 54.7875 147.949ZM63.0107 150.361C61.3007 150.361 59.9147 149.353 59.9147 147.661C59.9147 145.789 61.3727 145.015 63.4787 144.583L65.7647 144.115V143.719C65.7647 142.639 65.1707 142.027 63.9107 142.027C62.7227 142.027 62.0207 142.585 61.7327 143.629L60.2027 143.233C60.6527 141.703 62.0387 140.605 63.9647 140.605C66.0707 140.605 67.3667 141.631 67.3667 143.647V148.237C67.3667 148.849 67.7447 149.047 68.3747 148.903V150.199C66.9347 150.379 66.1067 150.037 65.9087 149.137C65.3327 149.875 64.2887 150.361 63.0107 150.361ZM65.7647 146.995V145.375L63.9287 145.771C62.4887 146.059 61.5167 146.455 61.5167 147.589C61.5167 148.507 62.1827 149.047 63.2087 149.047C64.5947 149.047 65.7647 148.201 65.7647 146.995ZM71.0993 145.501C71.0993 147.643 72.2513 148.975 73.9253 148.975C75.2213 148.975 75.9953 148.147 76.2653 146.977L77.7053 147.643C77.2553 149.209 75.8873 150.397 73.9253 150.397C71.2973 150.397 69.4793 148.399 69.4793 145.501C69.4793 142.585 71.2973 140.605 73.9253 140.605C75.8873 140.605 77.2193 141.739 77.6693 143.305L76.2653 144.007C75.9953 142.855 75.2213 142.009 73.9253 142.009C72.2513 142.009 71.0993 143.341 71.0993 145.501ZM79.7309 147.949V142.171H78.2729V140.785H79.7309V138.031H81.3329V140.785H83.4749V142.171H81.3329V147.697C81.3329 148.687 81.8189 148.867 82.6469 148.867C83.0249 148.867 83.2949 148.849 83.6729 148.759V150.145C83.2589 150.235 82.7909 150.289 82.2509 150.289C80.6489 150.289 79.7309 149.749 79.7309 147.949ZM87.2161 137.275V150.199H85.5961V137.275H87.2161ZM93.6823 150.397C91.0723 150.397 89.2723 148.399 89.2723 145.501C89.2723 142.693 91.0543 140.605 93.6103 140.605C96.2383 140.605 97.6243 142.603 97.6243 145.213V145.753H90.8203C90.9103 147.733 92.0443 148.993 93.6823 148.993C94.9423 148.993 95.8423 148.309 96.1303 147.193L97.5523 147.697C96.9763 149.371 95.5543 150.397 93.6823 150.397ZM93.5923 141.991C92.2243 141.991 91.1983 142.909 90.9103 144.511H95.9863C95.9503 143.179 95.2303 141.991 93.5923 141.991ZM98.597 148.201L99.857 147.283C100.361 148.381 101.513 149.047 102.737 149.047C103.835 149.047 104.807 148.579 104.807 147.553C104.807 146.527 103.907 146.383 102.359 146.059C100.811 145.717 99.191 145.375 99.191 143.449C99.191 141.775 100.649 140.605 102.647 140.605C104.339 140.605 105.725 141.433 106.283 142.549L105.131 143.467C104.645 142.531 103.763 141.937 102.575 141.937C101.495 141.937 100.775 142.477 100.775 143.323C100.775 144.205 101.603 144.367 102.917 144.655C104.537 145.033 106.391 145.357 106.391 147.409C106.391 149.209 104.753 150.397 102.737 150.397C101.027 150.397 99.317 149.659 98.597 148.201ZM107.351 148.201L108.611 147.283C109.115 148.381 110.267 149.047 111.491 149.047C112.589 149.047 113.561 148.579 113.561 147.553C113.561 146.527 112.661 146.383 111.113 146.059C109.565 145.717 107.945 145.375 107.945 143.449C107.945 141.775 109.403 140.605 111.401 140.605C113.093 140.605 114.479 141.433 115.037 142.549L113.885 143.467C113.399 142.531 112.517 141.937 111.329 141.937C110.249 141.937 109.529 142.477 109.529 143.323C109.529 144.205 110.357 144.367 111.671 144.655C113.291 145.033 115.145 145.357 115.145 147.409C115.145 149.209 113.507 150.397 111.491 150.397C109.781 150.397 108.071 149.659 107.351 148.201ZM121.918 145.501C121.918 147.643 123.07 148.975 124.744 148.975C126.04 148.975 126.814 148.147 127.084 146.977L128.524 147.643C128.074 149.209 126.706 150.397 124.744 150.397C122.116 150.397 120.298 148.399 120.298 145.501C120.298 142.585 122.116 140.605 124.744 140.605C126.706 140.605 128.038 141.739 128.488 143.305L127.084 144.007C126.814 142.855 126.04 142.009 124.744 142.009C123.07 142.009 121.918 143.341 121.918 145.501ZM132.761 150.361C131.051 150.361 129.665 149.353 129.665 147.661C129.665 145.789 131.123 145.015 133.229 144.583L135.515 144.115V143.719C135.515 142.639 134.921 142.027 133.661 142.027C132.473 142.027 131.771 142.585 131.483 143.629L129.953 143.233C130.403 141.703 131.789 140.605 133.715 140.605C135.821 140.605 137.117 141.631 137.117 143.647V148.237C137.117 148.849 137.495 149.047 138.125 148.903V150.199C136.685 150.379 135.857 150.037 135.659 149.137C135.083 149.875 134.039 150.361 132.761 150.361ZM135.515 146.995V145.375L133.679 145.771C132.239 146.059 131.267 146.455 131.267 147.589C131.267 148.507 131.933 149.047 132.959 149.047C134.345 149.047 135.515 148.201 135.515 146.995ZM144.755 140.749V142.387C144.485 142.333 144.269 142.315 143.963 142.315C142.595 142.315 141.497 143.395 141.497 145.051V150.199H139.877V140.785H141.497V142.387C141.911 141.433 142.829 140.713 144.107 140.713C144.359 140.713 144.593 140.731 144.755 140.749ZM149.679 150.397C147.069 150.397 145.575 148.165 145.575 145.501C145.575 142.819 147.069 140.605 149.679 140.605C150.993 140.605 152.037 141.235 152.595 142.153V137.275H154.215V150.199H152.595V148.831C152.037 149.767 150.993 150.397 149.679 150.397ZM152.631 145.177C152.631 142.981 151.299 142.027 149.967 142.027C148.203 142.027 147.213 143.467 147.213 145.501C147.213 147.517 148.203 148.975 149.967 148.975C151.299 148.975 152.631 148.003 152.631 145.843V145.177ZM165.226 150.397C163.912 150.397 162.868 149.767 162.31 148.831V153.439H160.69V140.785H162.31V142.153C162.868 141.235 163.912 140.605 165.226 140.605C167.836 140.605 169.33 142.819 169.33 145.501C169.33 148.165 167.836 150.397 165.226 150.397ZM162.274 145.177V145.843C162.274 148.003 163.606 148.975 164.938 148.975C166.702 148.975 167.692 147.517 167.692 145.501C167.692 143.467 166.702 142.027 164.938 142.027C163.606 142.027 162.274 142.981 162.274 145.177ZM173.735 150.361C172.025 150.361 170.639 149.353 170.639 147.661C170.639 145.789 172.097 145.015 174.203 144.583L176.489 144.115V143.719C176.489 142.639 175.895 142.027 174.635 142.027C173.447 142.027 172.745 142.585 172.457 143.629L170.927 143.233C171.377 141.703 172.763 140.605 174.689 140.605C176.795 140.605 178.091 141.631 178.091 143.647V148.237C178.091 148.849 178.469 149.047 179.099 148.903V150.199C177.659 150.379 176.831 150.037 176.633 149.137C176.057 149.875 175.013 150.361 173.735 150.361ZM176.489 146.995V145.375L174.653 145.771C173.213 146.059 172.241 146.455 172.241 147.589C172.241 148.507 172.907 149.047 173.933 149.047C175.319 149.047 176.489 148.201 176.489 146.995ZM184.238 151.225C183.698 152.647 182.96 153.547 181.322 153.547C180.926 153.547 180.728 153.529 180.44 153.475V152.071C180.746 152.143 180.944 152.161 181.214 152.161C181.916 152.161 182.294 151.909 182.672 150.973L183.122 149.857L179.63 140.785H181.34L183.986 147.985L186.596 140.785H188.288L184.238 151.225ZM191.49 144.565V150.199H189.87V140.785H191.49V142.063C191.994 141.289 192.894 140.605 194.208 140.605C195.468 140.605 196.35 141.235 196.818 142.207C197.34 141.433 198.348 140.605 199.824 140.605C201.768 140.605 202.938 141.991 202.938 143.989V150.199H201.318V144.421C201.318 143.107 200.778 142.117 199.446 142.117C198.366 142.117 197.214 143.035 197.214 144.565V150.199H195.594V144.421C195.594 143.107 195.054 142.117 193.722 142.117C192.642 142.117 191.49 143.035 191.49 144.565ZM209.311 150.397C206.701 150.397 204.901 148.399 204.901 145.501C204.901 142.693 206.683 140.605 209.239 140.605C211.867 140.605 213.253 142.603 213.253 145.213V145.753H206.449C206.539 147.733 207.673 148.993 209.311 148.993C210.571 148.993 211.471 148.309 211.759 147.193L213.181 147.697C212.605 149.371 211.183 150.397 209.311 150.397ZM209.221 141.991C207.853 141.991 206.827 142.909 206.539 144.511H211.615C211.579 143.179 210.859 141.991 209.221 141.991ZM215.27 150.199V140.785H216.89V142.063C217.43 141.289 218.366 140.605 219.698 140.605C221.696 140.605 222.83 141.991 222.83 143.989V150.199H221.21V144.421C221.21 143.107 220.652 142.117 219.248 142.117C218.078 142.117 216.89 143.017 216.89 144.583V150.199H215.27ZM225.682 147.949V142.171H224.224V140.785H225.682V138.031H227.284V140.785H229.426V142.171H227.284V147.697C227.284 148.687 227.77 148.867 228.598 148.867C228.976 148.867 229.246 148.849 229.624 148.759V150.145C229.21 150.235 228.742 150.289 228.202 150.289C226.6 150.289 225.682 149.749 225.682 147.949ZM230.503 148.201L231.763 147.283C232.267 148.381 233.419 149.047 234.643 149.047C235.741 149.047 236.713 148.579 236.713 147.553C236.713 146.527 235.813 146.383 234.265 146.059C232.717 145.717 231.097 145.375 231.097 143.449C231.097 141.775 232.555 140.605 234.553 140.605C236.245 140.605 237.631 141.433 238.189 142.549L237.037 143.467C236.551 142.531 235.669 141.937 234.481 141.937C233.401 141.937 232.681 142.477 232.681 143.323C232.681 144.205 233.509 144.367 234.823 144.655C236.443 145.033 238.297 145.357 238.297 147.409C238.297 149.209 236.659 150.397 234.643 150.397C232.933 150.397 231.223 149.659 230.503 148.201ZM245.07 145.501C245.07 147.643 246.222 148.975 247.896 148.975C249.192 148.975 249.966 148.147 250.236 146.977L251.676 147.643C251.226 149.209 249.858 150.397 247.896 150.397C245.268 150.397 243.45 148.399 243.45 145.501C243.45 142.585 245.268 140.605 247.896 140.605C249.858 140.605 251.19 141.739 251.64 143.305L250.236 144.007C249.966 142.855 249.192 142.009 247.896 142.009C246.222 142.009 245.07 143.341 245.07 145.501ZM255.913 150.361C254.203 150.361 252.817 149.353 252.817 147.661C252.817 145.789 254.275 145.015 256.381 144.583L258.667 144.115V143.719C258.667 142.639 258.073 142.027 256.813 142.027C255.625 142.027 254.923 142.585 254.635 143.629L253.105 143.233C253.555 141.703 254.941 140.605 256.867 140.605C258.973 140.605 260.269 141.631 260.269 143.647V148.237C260.269 148.849 260.647 149.047 261.277 148.903V150.199C259.837 150.379 259.009 150.037 258.811 149.137C258.235 149.875 257.191 150.361 255.913 150.361ZM258.667 146.995V145.375L256.831 145.771C255.391 146.059 254.419 146.455 254.419 147.589C254.419 148.507 255.085 149.047 256.111 149.047C257.497 149.047 258.667 148.201 258.667 146.995ZM263.03 150.199V140.785H264.65V142.063C265.19 141.289 266.126 140.605 267.458 140.605C269.456 140.605 270.59 141.991 270.59 143.989V150.199H268.97V144.421C268.97 143.107 268.412 142.117 267.008 142.117C265.838 142.117 264.65 143.017 264.65 144.583V150.199H263.03ZM281.523 150.397C280.209 150.397 279.165 149.767 278.607 148.831V150.199H276.987V137.275H278.607V142.153C279.165 141.235 280.209 140.605 281.523 140.605C284.133 140.605 285.627 142.819 285.627 145.501C285.627 148.165 284.133 150.397 281.523 150.397ZM278.571 145.177V145.843C278.571 148.003 279.903 148.975 281.235 148.975C282.999 148.975 283.989 147.517 283.989 145.501C283.989 143.467 282.999 142.027 281.235 142.027C279.903 142.027 278.571 142.981 278.571 145.177ZM291.436 150.397C288.826 150.397 287.026 148.399 287.026 145.501C287.026 142.693 288.808 140.605 291.364 140.605C293.992 140.605 295.378 142.603 295.378 145.213V145.753H288.574C288.664 147.733 289.798 148.993 291.436 148.993C292.696 148.993 293.596 148.309 293.884 147.193L295.306 147.697C294.73 149.371 293.308 150.397 291.436 150.397ZM291.346 141.991C289.978 141.991 288.952 142.909 288.664 144.511H293.74C293.704 143.179 292.984 141.991 291.346 141.991ZM305.728 150.397C304.414 150.397 303.37 149.767 302.812 148.831V153.439H301.192V140.785H302.812V142.153C303.37 141.235 304.414 140.605 305.728 140.605C308.338 140.605 309.832 142.819 309.832 145.501C309.832 148.165 308.338 150.397 305.728 150.397ZM302.776 145.177V145.843C302.776 148.003 304.108 148.975 305.44 148.975C307.204 148.975 308.194 147.517 308.194 145.501C308.194 143.467 307.204 142.027 305.44 142.027C304.108 142.027 302.776 142.981 302.776 145.177ZM316.757 140.749V142.387C316.487 142.333 316.271 142.315 315.965 142.315C314.597 142.315 313.499 143.395 313.499 145.051V150.199H311.879V140.785H313.499V142.387C313.913 141.433 314.831 140.713 316.109 140.713C316.361 140.713 316.595 140.731 316.757 140.749ZM326.255 145.501C326.255 148.417 324.455 150.397 321.881 150.397C319.307 150.397 317.507 148.417 317.507 145.501C317.507 142.585 319.307 140.605 321.881 140.605C324.455 140.605 326.255 142.585 326.255 145.501ZM319.145 145.501C319.145 147.643 320.225 149.011 321.881 149.011C323.537 149.011 324.617 147.643 324.617 145.501C324.617 143.341 323.537 141.973 321.881 141.973C320.225 141.973 319.145 143.341 319.145 145.501ZM329.287 145.501C329.287 147.643 330.439 148.975 332.113 148.975C333.409 148.975 334.183 148.147 334.453 146.977L335.893 147.643C335.443 149.209 334.075 150.397 332.113 150.397C329.485 150.397 327.667 148.399 327.667 145.501C327.667 142.585 329.485 140.605 332.113 140.605C334.075 140.605 335.407 141.739 335.857 143.305L334.453 144.007C334.183 142.855 333.409 142.009 332.113 142.009C330.439 142.009 329.287 143.341 329.287 145.501ZM341.428 150.397C338.818 150.397 337.018 148.399 337.018 145.501C337.018 142.693 338.8 140.605 341.356 140.605C343.984 140.605 345.37 142.603 345.37 145.213V145.753H338.566C338.656 147.733 339.79 148.993 341.428 148.993C342.688 148.993 343.588 148.309 343.876 147.193L345.298 147.697C344.722 149.371 343.3 150.397 341.428 150.397ZM341.338 141.991C339.97 141.991 338.944 142.909 338.656 144.511H343.732C343.696 143.179 342.976 141.991 341.338 141.991ZM346.343 148.201L347.603 147.283C348.107 148.381 349.259 149.047 350.483 149.047C351.581 149.047 352.553 148.579 352.553 147.553C352.553 146.527 351.653 146.383 350.105 146.059C348.557 145.717 346.937 145.375 346.937 143.449C346.937 141.775 348.395 140.605 350.393 140.605C352.085 140.605 353.471 141.433 354.029 142.549L352.877 143.467C352.391 142.531 351.509 141.937 350.321 141.937C349.241 141.937 348.521 142.477 348.521 143.323C348.521 144.205 349.349 144.367 350.663 144.655C352.283 145.033 354.137 145.357 354.137 147.409C354.137 149.209 352.499 150.397 350.483 150.397C348.773 150.397 347.063 149.659 346.343 148.201ZM355.097 148.201L356.357 147.283C356.861 148.381 358.013 149.047 359.237 149.047C360.335 149.047 361.307 148.579 361.307 147.553C361.307 146.527 360.407 146.383 358.859 146.059C357.311 145.717 355.691 145.375 355.691 143.449C355.691 141.775 357.149 140.605 359.147 140.605C360.839 140.605 362.225 141.433 362.783 142.549L361.631 143.467C361.145 142.531 360.263 141.937 359.075 141.937C357.995 141.937 357.275 142.477 357.275 143.323C357.275 144.205 358.103 144.367 359.417 144.655C361.037 145.033 362.891 145.357 362.891 147.409C362.891 149.209 361.253 150.397 359.237 150.397C357.527 150.397 355.817 149.659 355.097 148.201ZM368.657 150.397C366.047 150.397 364.247 148.399 364.247 145.501C364.247 142.693 366.029 140.605 368.585 140.605C371.213 140.605 372.599 142.603 372.599 145.213V145.753H365.795C365.885 147.733 367.019 148.993 368.657 148.993C369.917 148.993 370.817 148.309 371.105 147.193L372.527 147.697C371.951 149.371 370.529 150.397 368.657 150.397ZM368.567 141.991C367.199 141.991 366.173 142.909 365.885 144.511H370.961C370.925 143.179 370.205 141.991 368.567 141.991ZM378.072 150.397C375.462 150.397 373.968 148.165 373.968 145.501C373.968 142.819 375.462 140.605 378.072 140.605C379.386 140.605 380.43 141.235 380.988 142.153V137.275H382.608V150.199H380.988V148.831C380.43 149.767 379.386 150.397 378.072 150.397ZM381.024 145.177C381.024 142.981 379.692 142.027 378.36 142.027C376.596 142.027 375.606 143.467 375.606 145.501C375.606 147.517 376.596 148.975 378.36 148.975C379.692 148.975 381.024 148.003 381.024 145.843V145.177Z" fill="#4D148C"/>
<rect y="140" width="6" height="6" fill="#4D148C"/>
<path d="M21.666 176.538C21.666 172.596 24.15 169.878 27.534 169.878C30.918 169.878 33.384 172.596 33.384 176.538C33.384 179.058 32.376 181.092 30.756 182.208C31.278 182.964 32.268 183.558 33.276 183.81L32.268 185.052C31.116 184.728 29.91 183.846 29.388 182.91C28.812 183.09 28.182 183.198 27.534 183.198C24.15 183.198 21.666 180.48 21.666 176.538ZM31.674 176.538C31.674 173.478 29.964 171.408 27.534 171.408C25.104 171.408 23.394 173.478 23.394 176.538C23.394 179.598 25.104 181.668 27.534 181.668C29.964 181.668 31.674 179.598 31.674 176.538ZM42.8805 173.586V183H41.2605V181.704C40.7205 182.496 39.8025 183.198 38.4705 183.198C36.4545 183.198 35.3205 181.812 35.3205 179.814V173.586H36.9405V179.472C36.9405 180.804 37.5165 181.704 38.9025 181.704C40.0725 181.704 41.2605 180.822 41.2605 179.256V173.586H42.8805ZM45.4987 171.948V170.076H47.2627V171.948H45.4987ZM47.1907 173.586V183H45.5707V173.586H47.1907ZM50.8669 178.302C50.8669 180.444 52.0189 181.776 53.6929 181.776C54.9889 181.776 55.7629 180.948 56.0329 179.778L57.4729 180.444C57.0229 182.01 55.6549 183.198 53.6929 183.198C51.0649 183.198 49.2469 181.2 49.2469 178.302C49.2469 175.386 51.0649 173.406 53.6929 173.406C55.6549 173.406 56.9869 174.54 57.4369 176.106L56.0329 176.808C55.7629 175.656 54.9889 174.81 53.6929 174.81C52.0189 174.81 50.8669 176.142 50.8669 178.302ZM60.8665 170.076V177.978L65.0425 173.586H67.0585L63.3865 177.294L67.3645 183H65.4745L62.2345 178.464L60.8665 179.85V183H59.2465V170.076H60.8665ZM71.6146 181.002L72.8746 180.084C73.3786 181.182 74.5306 181.848 75.7546 181.848C76.8526 181.848 77.8246 181.38 77.8246 180.354C77.8246 179.328 76.9246 179.184 75.3766 178.86C73.8286 178.518 72.2086 178.176 72.2086 176.25C72.2086 174.576 73.6666 173.406 75.6646 173.406C77.3566 173.406 78.7426 174.234 79.3006 175.35L78.1486 176.268C77.6626 175.332 76.7806 174.738 75.5926 174.738C74.5126 174.738 73.7926 175.278 73.7926 176.124C73.7926 177.006 74.6206 177.168 75.9346 177.456C77.5546 177.834 79.4086 178.158 79.4086 180.21C79.4086 182.01 77.7706 183.198 75.7546 183.198C74.0446 183.198 72.3346 182.46 71.6146 181.002ZM89.5125 178.302C89.5125 181.218 87.7125 183.198 85.1385 183.198C82.5645 183.198 80.7645 181.218 80.7645 178.302C80.7645 175.386 82.5645 173.406 85.1385 173.406C87.7125 173.406 89.5125 175.386 89.5125 178.302ZM82.4025 178.302C82.4025 180.444 83.4825 181.812 85.1385 181.812C86.7945 181.812 87.8745 180.444 87.8745 178.302C87.8745 176.142 86.7945 174.774 85.1385 174.774C83.4825 174.774 82.4025 176.142 82.4025 178.302ZM95.6767 169.914V171.354C95.4067 171.318 95.2447 171.318 94.9747 171.318C94.0207 171.318 93.4987 171.732 93.4987 172.938V173.586H95.5867V174.972H93.4987V183H91.8787V174.972H90.4567V173.586H91.8787V172.83C91.8787 170.994 92.8867 169.878 94.8127 169.878C95.1367 169.878 95.3167 169.896 95.6767 169.914ZM97.6254 180.75V174.972H96.1674V173.586H97.6254V170.832H99.2274V173.586H101.369V174.972H99.2274V180.498C99.2274 181.488 99.7134 181.668 100.541 181.668C100.919 181.668 101.189 181.65 101.567 181.56V182.946C101.153 183.036 100.685 183.09 100.145 183.09C98.5434 183.09 97.6254 182.55 97.6254 180.75ZM107.937 173.586H109.305L111.249 180.606L113.211 173.586H114.831L111.969 183H110.547L108.585 176.016L106.623 183H105.201L102.339 173.586H104.013L105.993 180.588L107.937 173.586ZM118.575 183.162C116.865 183.162 115.479 182.154 115.479 180.462C115.479 178.59 116.937 177.816 119.043 177.384L121.329 176.916V176.52C121.329 175.44 120.735 174.828 119.475 174.828C118.287 174.828 117.585 175.386 117.297 176.43L115.767 176.034C116.217 174.504 117.603 173.406 119.529 173.406C121.635 173.406 122.931 174.432 122.931 176.448V181.038C122.931 181.65 123.309 181.848 123.939 181.704V183C122.499 183.18 121.671 182.838 121.473 181.938C120.897 182.676 119.853 183.162 118.575 183.162ZM121.329 179.796V178.176L119.493 178.572C118.053 178.86 117.081 179.256 117.081 180.39C117.081 181.308 117.747 181.848 118.773 181.848C120.159 181.848 121.329 181.002 121.329 179.796ZM130.57 173.55V175.188C130.3 175.134 130.084 175.116 129.778 175.116C128.41 175.116 127.312 176.196 127.312 177.852V183H125.692V173.586H127.312V175.188C127.726 174.234 128.644 173.514 129.922 173.514C130.174 173.514 130.408 173.532 130.57 173.55ZM135.729 183.198C133.119 183.198 131.319 181.2 131.319 178.302C131.319 175.494 133.101 173.406 135.657 173.406C138.285 173.406 139.671 175.404 139.671 178.014V178.554H132.867C132.957 180.534 134.091 181.794 135.729 181.794C136.989 181.794 137.889 181.11 138.177 179.994L139.599 180.498C139.023 182.172 137.601 183.198 135.729 183.198ZM135.639 174.792C134.271 174.792 133.245 175.71 132.957 177.312H138.033C137.997 175.98 137.277 174.792 135.639 174.792ZM152.955 173.586V183H151.335V181.704C150.795 182.496 149.877 183.198 148.545 183.198C146.529 183.198 145.395 181.812 145.395 179.814V173.586H147.015V179.472C147.015 180.804 147.591 181.704 148.977 181.704C150.147 181.704 151.335 180.822 151.335 179.256V173.586H152.955ZM160.181 183.198C158.867 183.198 157.823 182.568 157.265 181.632V186.24H155.645V173.586H157.265V174.954C157.823 174.036 158.867 173.406 160.181 173.406C162.791 173.406 164.285 175.62 164.285 178.302C164.285 180.966 162.791 183.198 160.181 183.198ZM157.229 177.978V178.644C157.229 180.804 158.561 181.776 159.893 181.776C161.657 181.776 162.647 180.318 162.647 178.302C162.647 176.268 161.657 174.828 159.893 174.828C158.561 174.828 157.229 175.782 157.229 177.978ZM169.788 183.198C167.178 183.198 165.684 180.966 165.684 178.302C165.684 175.62 167.178 173.406 169.788 173.406C171.102 173.406 172.146 174.036 172.704 174.954V170.076H174.324V183H172.704V181.632C172.146 182.568 171.102 183.198 169.788 183.198ZM172.74 177.978C172.74 175.782 171.408 174.828 170.076 174.828C168.312 174.828 167.322 176.268 167.322 178.302C167.322 180.318 168.312 181.776 170.076 181.776C171.408 181.776 172.74 180.804 172.74 178.644V177.978ZM179.36 183.162C177.65 183.162 176.264 182.154 176.264 180.462C176.264 178.59 177.722 177.816 179.828 177.384L182.114 176.916V176.52C182.114 175.44 181.52 174.828 180.26 174.828C179.072 174.828 178.37 175.386 178.082 176.43L176.552 176.034C177.002 174.504 178.388 173.406 180.314 173.406C182.42 173.406 183.716 174.432 183.716 176.448V181.038C183.716 181.65 184.094 181.848 184.724 181.704V183C183.284 183.18 182.456 182.838 182.258 181.938C181.682 182.676 180.638 183.162 179.36 183.162ZM182.114 179.796V178.176L180.278 178.572C178.838 178.86 177.866 179.256 177.866 180.39C177.866 181.308 178.532 181.848 179.558 181.848C180.944 181.848 182.114 181.002 182.114 179.796ZM186.729 180.75V174.972H185.271V173.586H186.729V170.832H188.331V173.586H190.473V174.972H188.331V180.498C188.331 181.488 188.817 181.668 189.645 181.668C190.023 181.668 190.293 181.65 190.671 181.56V182.946C190.257 183.036 189.789 183.09 189.249 183.09C187.647 183.09 186.729 182.55 186.729 180.75ZM196.303 183.198C193.693 183.198 191.893 181.2 191.893 178.302C191.893 175.494 193.675 173.406 196.231 173.406C198.859 173.406 200.245 175.404 200.245 178.014V178.554H193.441C193.531 180.534 194.665 181.794 196.303 181.794C197.563 181.794 198.463 181.11 198.751 179.994L200.173 180.498C199.597 182.172 198.175 183.198 196.303 183.198ZM196.213 174.792C194.845 174.792 193.819 175.71 193.531 177.312H198.607C198.571 175.98 197.851 174.792 196.213 174.792ZM201.218 181.002L202.478 180.084C202.982 181.182 204.134 181.848 205.358 181.848C206.456 181.848 207.428 181.38 207.428 180.354C207.428 179.328 206.528 179.184 204.98 178.86C203.432 178.518 201.812 178.176 201.812 176.25C201.812 174.576 203.27 173.406 205.268 173.406C206.96 173.406 208.346 174.234 208.904 175.35L207.752 176.268C207.266 175.332 206.384 174.738 205.196 174.738C204.116 174.738 203.396 175.278 203.396 176.124C203.396 177.006 204.224 177.168 205.538 177.456C207.158 177.834 209.012 178.158 209.012 180.21C209.012 182.01 207.374 183.198 205.358 183.198C203.648 183.198 201.938 182.46 201.218 181.002ZM218.269 183.198C215.659 183.198 214.165 180.966 214.165 178.302C214.165 175.62 215.659 173.406 218.269 173.406C219.583 173.406 220.627 174.036 221.185 174.954V170.076H222.805V183H221.185V181.632C220.627 182.568 219.583 183.198 218.269 183.198ZM221.221 177.978C221.221 175.782 219.889 174.828 218.557 174.828C216.793 174.828 215.803 176.268 215.803 178.302C215.803 180.318 216.793 181.776 218.557 181.776C219.889 181.776 221.221 180.804 221.221 178.644V177.978ZM233.583 178.302C233.583 181.218 231.783 183.198 229.209 183.198C226.635 183.198 224.835 181.218 224.835 178.302C224.835 175.386 226.635 173.406 229.209 173.406C231.783 173.406 233.583 175.386 233.583 178.302ZM226.473 178.302C226.473 180.444 227.553 181.812 229.209 181.812C230.865 181.812 231.945 180.444 231.945 178.302C231.945 176.142 230.865 174.774 229.209 174.774C227.553 174.774 226.473 176.142 226.473 178.302ZM235.643 183V173.586H237.263V174.864C237.803 174.09 238.739 173.406 240.071 173.406C242.069 173.406 243.203 174.792 243.203 176.79V183H241.583V177.222C241.583 175.908 241.025 174.918 239.621 174.918C238.451 174.918 237.263 175.818 237.263 177.384V183H235.643ZM249.565 183.198C246.955 183.198 245.155 181.2 245.155 178.302C245.155 175.494 246.937 173.406 249.493 173.406C252.121 173.406 253.507 175.404 253.507 178.014V178.554H246.703C246.793 180.534 247.927 181.794 249.565 181.794C250.825 181.794 251.725 181.11 252.013 179.994L253.435 180.498C252.859 182.172 251.437 183.198 249.565 183.198ZM249.475 174.792C248.107 174.792 247.081 175.71 246.793 177.312H251.869C251.833 175.98 251.113 174.792 249.475 174.792ZM264.199 173.55V175.188C263.929 175.134 263.713 175.116 263.407 175.116C262.039 175.116 260.941 176.196 260.941 177.852V183H259.321V173.586H260.941V175.188C261.355 174.234 262.273 173.514 263.551 173.514C263.803 173.514 264.037 173.532 264.199 173.55ZM269.358 183.198C266.748 183.198 264.948 181.2 264.948 178.302C264.948 175.494 266.73 173.406 269.286 173.406C271.914 173.406 273.3 175.404 273.3 178.014V178.554H266.496C266.586 180.534 267.72 181.794 269.358 181.794C270.618 181.794 271.518 181.11 271.806 179.994L273.228 180.498C272.652 182.172 271.23 183.198 269.358 183.198ZM269.268 174.792C267.9 174.792 266.874 175.71 266.586 177.312H271.662C271.626 175.98 270.906 174.792 269.268 174.792ZM276.937 177.366V183H275.317V173.586H276.937V174.864C277.441 174.09 278.341 173.406 279.655 173.406C280.915 173.406 281.797 174.036 282.265 175.008C282.787 174.234 283.795 173.406 285.271 173.406C287.215 173.406 288.385 174.792 288.385 176.79V183H286.765V177.222C286.765 175.908 286.225 174.918 284.893 174.918C283.813 174.918 282.661 175.836 282.661 177.366V183H281.041V177.222C281.041 175.908 280.501 174.918 279.169 174.918C278.089 174.918 276.937 175.836 276.937 177.366ZM299.096 178.302C299.096 181.218 297.296 183.198 294.722 183.198C292.148 183.198 290.348 181.218 290.348 178.302C290.348 175.386 292.148 173.406 294.722 173.406C297.296 173.406 299.096 175.386 299.096 178.302ZM291.986 178.302C291.986 180.444 293.066 181.812 294.722 181.812C296.378 181.812 297.458 180.444 297.458 178.302C297.458 176.142 296.378 174.774 294.722 174.774C293.066 174.774 291.986 176.142 291.986 178.302ZM301.409 180.75V174.972H299.951V173.586H301.409V170.832H303.011V173.586H305.153V174.972H303.011V180.498C303.011 181.488 303.497 181.668 304.325 181.668C304.703 181.668 304.973 181.65 305.351 181.56V182.946C304.937 183.036 304.469 183.09 303.929 183.09C302.327 183.09 301.409 182.55 301.409 180.75ZM310.983 183.198C308.373 183.198 306.573 181.2 306.573 178.302C306.573 175.494 308.355 173.406 310.911 173.406C313.539 173.406 314.925 175.404 314.925 178.014V178.554H308.121C308.211 180.534 309.345 181.794 310.983 181.794C312.243 181.794 313.143 181.11 313.431 179.994L314.853 180.498C314.277 182.172 312.855 183.198 310.983 183.198ZM310.893 174.792C309.525 174.792 308.499 175.71 308.211 177.312H313.287C313.251 175.98 312.531 174.792 310.893 174.792ZM318.562 170.076V183H316.942V170.076H318.562ZM324.758 184.026C324.218 185.448 323.48 186.348 321.842 186.348C321.446 186.348 321.248 186.33 320.96 186.276V184.872C321.266 184.944 321.464 184.962 321.734 184.962C322.436 184.962 322.814 184.71 323.192 183.774L323.642 182.658L320.15 173.586H321.86L324.506 180.786L327.116 173.586H328.808L324.758 184.026Z" fill="#4D148C"/>
<rect y="173" width="6" height="6" fill="#4D148C"/>
</svg>
