<svg width="48" height="48" viewBox="0 0 48 48" fill="none" xmlns="http://www.w3.org/2000/svg">
<g clip-path="url(#clip0_2369_1804)">
<path d="M24 47.5C36.9787 47.5 47.5 36.9787 47.5 24C47.5 11.0213 36.9787 0.5 24 0.5C11.0213 0.5 0.5 11.0213 0.5 24C0.5 36.9787 11.0213 47.5 24 47.5Z" stroke="#101010"/>
<path d="M17.102 16.2858C14.0698 16.2858 11 17.0922 11 18.6327V29.898C11 31.4385 14.0698 32.245 17.102 32.245C20.1343 32.245 23.2041 31.4385 23.2041 29.898V18.6327C23.2041 17.0922 20.1343 16.2858 17.102 16.2858ZM22.2653 29.898C22.2653 30.3763 20.4427 31.3062 17.102 31.3062C13.7614 31.3062 11.9388 30.3763 11.9388 29.898V27.4572C11.9622 27.4713 11.9913 27.4825 12.0153 27.4966C12.1179 27.5547 12.2228 27.6085 12.3298 27.6581C12.3683 27.6764 12.4049 27.6952 12.4452 27.7125C12.799 27.8633 13.1641 27.986 13.537 28.0796L13.5511 28.0834C14.7138 28.3632 15.9063 28.4997 17.102 28.4899C18.2979 28.4989 19.4904 28.3616 20.653 28.081L20.667 28.0773C21.04 27.9837 21.4051 27.861 21.7588 27.7102C21.7992 27.6928 21.8358 27.6741 21.8743 27.6557C21.9813 27.6062 22.0862 27.5523 22.1888 27.4943C22.2127 27.4802 22.2418 27.4689 22.2653 27.4548V29.898ZM22.2653 26.1429C22.2653 26.6212 20.4427 27.5511 17.102 27.5511C13.7614 27.5511 11.9388 26.6212 11.9388 26.1429V23.7021C11.9622 23.7162 11.9913 23.7274 12.0153 23.7415C12.1179 23.7996 12.2228 23.8534 12.3298 23.903C12.3683 23.9213 12.4049 23.9401 12.4452 23.9574C12.799 24.1082 13.1641 24.2309 13.537 24.3245L13.5511 24.3283C14.7138 24.6081 15.9063 24.7446 17.102 24.7347C18.2979 24.7438 19.4904 24.6065 20.653 24.3259L20.667 24.3222C21.04 24.2286 21.4051 24.1059 21.7588 23.9551C21.7992 23.9377 21.8358 23.919 21.8743 23.9006C21.9813 23.8511 22.0862 23.7972 22.1888 23.7392C22.2127 23.7251 22.2418 23.7138 22.2653 23.6997V26.1429ZM22.2653 22.3878C22.2653 22.8661 20.4427 23.796 17.102 23.796C13.7614 23.796 11.9388 22.8661 11.9388 22.3878V19.947C11.9622 19.9611 11.9913 19.9723 12.0153 19.9864C12.1179 20.0445 12.2228 20.0983 12.3298 20.1479C12.3683 20.1662 12.4049 20.185 12.4452 20.2023C12.799 20.3531 13.1641 20.4758 13.537 20.5694L13.5511 20.5732C14.7138 20.853 15.9063 20.9895 17.102 20.9796C18.2979 20.9887 19.4904 20.8514 20.653 20.5708L20.667 20.5671C21.04 20.4735 21.4051 20.3508 21.7588 20.2C21.7992 20.1826 21.8358 20.1638 21.8743 20.1455C21.9813 20.096 22.0862 20.0421 22.1888 19.9841C22.2127 19.97 22.2418 19.9587 22.2653 19.9446V22.3878ZM17.102 20.0409C13.7614 20.0409 11.9388 19.111 11.9388 18.6327C11.9388 18.1544 13.7614 17.2245 17.102 17.2245C20.4427 17.2245 22.2653 18.1544 22.2653 18.6327C22.2653 19.111 20.4427 20.0409 17.102 20.0409Z" fill="black"/>
<path fill-rule="evenodd" clip-rule="evenodd" d="M27 16.5577C27.9114 16.3773 28.9374 16.2858 29.9592 16.2858C32.9914 16.2858 36.0612 17.0922 36.0612 18.6327V29.898C36.0612 31.4385 32.9914 32.245 29.9592 32.245C28.9374 32.245 27.9114 32.1534 27 31.973V31.0188C27.7879 31.1901 28.7788 31.3062 29.9592 31.3062C33.2998 31.3062 35.1224 30.3763 35.1224 29.898V27.4548C35.1105 27.462 35.097 27.4685 35.0835 27.475C35.0706 27.4812 35.0577 27.4874 35.0459 27.4943C34.9433 27.5523 34.8384 27.6062 34.7314 27.6557C34.7199 27.6612 34.7086 27.6668 34.6972 27.6723C34.6707 27.6852 34.6443 27.698 34.616 27.7102C34.2622 27.861 33.8972 27.9837 33.5242 28.0773L33.5101 28.081C32.3476 28.3616 31.1551 28.4989 29.9592 28.4898C28.9654 28.498 27.974 28.4051 27 28.2129V27.2637C27.7879 27.435 28.7788 27.5511 29.9592 27.5511C33.2998 27.5511 35.1224 26.6212 35.1224 26.1429V23.6997C35.1105 23.7069 35.097 23.7134 35.0835 23.7199C35.0706 23.7261 35.0577 23.7323 35.0459 23.7392C34.9433 23.7972 34.8384 23.8511 34.7314 23.9006C34.7199 23.9061 34.7086 23.9117 34.6972 23.9172C34.6707 23.9301 34.6443 23.9429 34.616 23.9551C34.2622 24.1059 33.8972 24.2286 33.5242 24.3222L33.5101 24.3259C32.3476 24.6065 31.1551 24.7438 29.9592 24.7347C28.9654 24.7429 27.974 24.65 27 24.4578V23.5086C27.7879 23.6799 28.7788 23.796 29.9592 23.796C33.2998 23.796 35.1224 22.8661 35.1224 22.3878V19.9446C35.1105 19.9518 35.097 19.9583 35.0835 19.9648C35.0706 19.971 35.0577 19.9772 35.0459 19.9841C34.9433 20.0421 34.8384 20.096 34.7314 20.1455C34.7199 20.151 34.7086 20.1565 34.6972 20.1621C34.6707 20.175 34.6443 20.1878 34.616 20.2C34.2622 20.3508 33.8972 20.4735 33.5242 20.5671L33.5101 20.5708C32.3476 20.8514 31.1551 20.9887 29.9592 20.9796C28.9654 20.9878 27.974 20.8949 27 20.7027V19.7535C27.7879 19.9248 28.7788 20.0409 29.9592 20.0409C33.2998 20.0409 35.1224 19.111 35.1224 18.6327C35.1224 18.1544 33.2998 17.2245 29.9592 17.2245C28.7788 17.2245 27.7879 17.3406 27 17.5119V16.5577Z" fill="black"/>
<path d="M26.7142 14.4285V34" stroke="black" stroke-width="2" stroke-linecap="round"/>
<path d="M22.5979 13.0765L17.8571 12.9569" stroke="#FFC000" stroke-linecap="round" stroke-linejoin="round"/>
<path d="M20.4508 10.8572L22.6001 13.0744L20.3744 15.22" stroke="#FFC000" stroke-linecap="round" stroke-linejoin="round"/>
<path d="M22.5979 35.4536L17.8571 35.334" stroke="#FFC000" stroke-linecap="round" stroke-linejoin="round"/>
<path d="M20.4508 33.2343L22.6001 35.4516L20.3744 37.5971" stroke="#FFC000" stroke-linecap="round" stroke-linejoin="round"/>
</g>
<defs>
<clipPath id="clip0_2369_1804">
<rect width="48" height="48" fill="white"/>
</clipPath>
</defs>
</svg>
