<svg width="501" height="500" viewBox="0 0 501 500" fill="none" xmlns="http://www.w3.org/2000/svg">
<path d="M451.67 244.279C468.31 137.859 379.5 30.5991 262.96 17.2691C261.51 17.1091 260.05 16.9491 258.6 16.8091C177.15 8.7191 102.7 70.9291 81.4097 118.389C60.1197 165.849 4.40965 210.999 25.0596 298.939C45.7096 386.879 101.81 433.759 233.34 447.629C364.87 461.499 389.13 423.879 424.04 341.709C437.142 310.465 446.42 277.751 451.67 244.279Z" fill="#4ABCEB"/>
<path opacity="0.8" d="M451.67 244.279C468.31 137.859 379.5 30.5991 262.96 17.2691C261.51 17.1091 260.05 16.9491 258.6 16.8091C177.15 8.7191 102.7 70.9291 81.4097 118.389C60.1197 165.849 4.40965 210.999 25.0596 298.939C45.7096 386.879 101.81 433.759 233.34 447.629C364.87 461.499 389.13 423.879 424.04 341.709C437.142 310.465 446.42 277.751 451.67 244.279Z" fill="white"/>
<path d="M348.077 282.719C347.981 282.716 347.888 282.689 347.807 282.639C264.807 230.729 191.597 227.639 144.807 234.249C94.0565 241.369 62.5165 261.019 62.2065 261.249C62.1512 261.286 62.089 261.31 62.0238 261.322C61.9587 261.334 61.8918 261.332 61.8273 261.317C61.7629 261.302 61.7021 261.274 61.6487 261.235C61.5952 261.196 61.5503 261.146 61.5165 261.089C61.4451 260.978 61.4208 260.843 61.4489 260.713C61.477 260.584 61.5553 260.471 61.6665 260.399C61.9865 260.209 93.6665 240.399 144.667 233.289C174.936 229.099 205.692 229.994 235.667 235.939C273.737 243.389 311.667 258.829 348.427 281.819C348.483 281.853 348.533 281.898 348.572 281.952C348.611 282.005 348.639 282.066 348.654 282.13C348.669 282.195 348.671 282.262 348.659 282.327C348.647 282.392 348.623 282.454 348.587 282.509C348.531 282.591 348.454 282.654 348.363 282.691C348.272 282.728 348.173 282.738 348.077 282.719Z" fill="#263238"/>
<path d="M211.969 269.779C203.379 262.719 228.969 235.519 228.969 235.519C217.769 233.519 219.289 233.919 219.289 233.919C219.289 233.919 190.169 261.999 189.869 277.999C189.569 293.999 234.259 308.899 234.259 308.899L251.029 301.539L265.679 296.109C265.679 296.109 220.569 276.839 211.969 269.779Z" fill="#4ABCEB"/>
<path d="M234.258 309.379H234.098C232.258 308.769 189.098 294.139 189.368 277.999C189.658 262.539 215.898 236.529 218.718 233.789C218.768 233.579 218.818 233.449 219.388 233.469C220.388 233.469 222.788 233.949 229.018 235.059C229.106 235.078 229.187 235.119 229.253 235.18C229.319 235.24 229.368 235.316 229.395 235.401C229.423 235.486 229.427 235.577 229.408 235.664C229.39 235.752 229.348 235.832 229.288 235.899C229.098 236.099 210.078 256.449 210.698 266.119C210.71 266.749 210.856 267.37 211.126 267.939C211.397 268.508 211.787 269.013 212.268 269.419C220.708 276.359 265.398 295.419 265.848 295.659C265.941 295.697 266.021 295.762 266.076 295.846C266.131 295.93 266.16 296.028 266.158 296.129C266.153 296.229 266.118 296.325 266.06 296.407C266.002 296.488 265.921 296.551 265.828 296.589L251.208 301.999L234.498 309.339C234.424 309.374 234.341 309.388 234.258 309.379ZM219.478 234.379C217.318 236.499 190.658 262.939 190.368 277.959C190.078 292.979 231.138 307.249 234.238 308.309L250.828 301.029L264.328 296.029C257.078 292.919 219.538 276.619 211.658 270.149C211.071 269.658 210.594 269.047 210.261 268.357C209.929 267.667 209.747 266.915 209.728 266.149C209.128 256.959 224.578 239.549 227.958 235.859C221.968 234.789 220.078 234.489 219.498 234.409L219.478 234.379Z" fill="#263238"/>
<path d="M188.149 339.629C188.081 339.63 188.015 339.618 187.953 339.592C187.891 339.566 187.835 339.528 187.789 339.479C187.742 339.433 187.704 339.378 187.679 339.317C187.654 339.256 187.641 339.19 187.641 339.124C187.641 339.058 187.654 338.993 187.679 338.932C187.704 338.871 187.742 338.816 187.789 338.769C188.059 338.519 215.299 312.979 263.879 296.039C292.751 286.036 323.093 280.932 353.649 280.939H354.379C392.949 280.939 432.919 288.699 473.189 304.009C473.313 304.056 473.414 304.15 473.47 304.271C473.525 304.392 473.53 304.53 473.484 304.654C473.437 304.779 473.343 304.88 473.222 304.936C473.101 304.991 472.963 304.996 472.839 304.949C381.349 270.169 308.919 281.419 264.259 296.949C215.859 313.809 188.749 339.219 188.479 339.479C188.392 339.571 188.274 339.625 188.149 339.629Z" fill="#263238"/>
<path d="M477.497 435C477.362 434.999 477.233 434.946 477.137 434.85C476.627 434.32 424.777 381.41 339.757 351.73C250.477 320.58 106.997 345.2 47.7572 386.36C47.6471 386.435 47.5115 386.464 47.3803 386.44C47.249 386.415 47.1328 386.34 47.0572 386.23C46.9816 386.12 46.9528 385.984 46.9772 385.853C47.0016 385.722 47.0771 385.605 47.1872 385.53C77.3672 364.53 128.797 347.77 184.767 340.58C243.337 333.05 299.967 336.78 340.117 350.79C425.377 380.54 477.367 433.62 477.887 434.15C477.934 434.196 477.971 434.252 477.997 434.313C478.022 434.373 478.035 434.439 478.035 434.505C478.035 434.571 478.022 434.636 477.997 434.697C477.971 434.758 477.934 434.813 477.887 434.86C477.835 434.909 477.774 434.946 477.707 434.97C477.64 434.994 477.568 435.004 477.497 435Z" fill="#263238"/>
<path d="M147.07 410C136.61 413.68 127.33 416.85 119.07 419.59C148.69 433.44 186.17 442.66 233.37 447.64C243.79 448.74 253.53 449.51 262.66 449.97C322.9 405.97 350.47 354.97 350.47 354.97C352.52 355.64 316.92 339.97 276.76 338.59C276.73 338.6 226.5 382.09 147.07 410Z" fill="#4ABCEB"/>
<path d="M183.569 492.94C183.467 492.942 183.367 492.912 183.283 492.855C183.199 492.797 183.135 492.715 183.099 492.62C183.075 492.558 183.064 492.492 183.065 492.426C183.067 492.36 183.082 492.294 183.108 492.234C183.135 492.174 183.174 492.119 183.222 492.074C183.271 492.028 183.327 491.993 183.389 491.97C242.999 469.97 285.129 433.86 309.969 407.41C334.809 380.96 347.829 358.6 349.749 355.19C345.449 353.36 313.429 340.41 276.909 339.11C273.789 341.75 223.729 383.6 147.239 410.47C69.4394 437.8 56.3494 437.47 39.7894 436.97C37.5994 436.91 35.3394 436.85 32.8594 436.85C32.7268 436.85 32.5996 436.797 32.5058 436.703C32.4121 436.609 32.3594 436.482 32.3594 436.35C32.3594 436.217 32.4121 436.09 32.5058 435.996C32.5996 435.902 32.7268 435.85 32.8594 435.85C35.3494 435.85 37.6194 435.91 39.8594 435.97C56.3294 436.43 69.3294 436.79 146.959 409.52C225.389 381.97 275.959 338.66 276.449 338.23C276.546 338.145 276.671 338.099 276.799 338.1C313.439 339.37 345.939 352.21 350.489 354.48H350.639C350.889 354.61 351.029 354.7 351.039 354.74C351.078 354.827 351.09 354.924 351.074 355.018C351.058 355.112 351.014 355.2 350.949 355.27C350.915 355.311 350.87 355.342 350.819 355.36C349.469 357.78 336.419 380.7 310.759 408.02C285.839 434.56 243.589 470.82 183.759 492.84L183.569 492.94Z" fill="#263238"/>
<path d="M375.179 365.27C393.899 372.84 414.949 354.48 413.449 334.92C411.999 315.92 388.199 305.63 373.259 299.35C333.629 282.7 307.789 285.57 307.789 285.57C307.789 285.57 347.979 278.11 389.909 283.27C426.199 287.74 463.969 309.7 479.329 344C487.589 362.44 487.919 382.92 486.329 402.73C484.549 425.14 477.489 434.47 477.489 434.47C477.489 434.47 426.929 393.79 375.179 365.27Z" fill="#4ABCEB"/>
<path d="M477.496 435C477.383 434.999 477.274 434.96 477.186 434.89C476.676 434.48 426.056 393.89 374.936 365.74C374.826 365.678 374.744 365.576 374.706 365.455C374.668 365.335 374.677 365.204 374.732 365.09C374.786 364.976 374.882 364.887 375 364.84C375.117 364.794 375.248 364.794 375.366 364.84C383.366 368.08 392.366 366.68 400.166 361.01C408.796 354.69 413.696 344.72 412.956 335.01C411.496 316 387.496 305.86 373.066 299.82C334.066 283.41 308.066 286.04 307.836 286.07C307.707 286.082 307.578 286.044 307.476 285.964C307.374 285.884 307.306 285.768 307.286 285.64C307.268 285.512 307.301 285.382 307.378 285.277C307.454 285.173 307.568 285.102 307.696 285.08C308.096 285 348.446 277.66 389.966 282.78C408.769 285.174 426.798 291.74 442.736 302C459.666 313 472.476 327.44 479.786 343.76C488.626 363.51 488.196 385.65 486.786 402.76C485.006 425.06 478.136 434.38 477.846 434.76C477.806 434.815 477.755 434.861 477.696 434.895C477.638 434.93 477.573 434.952 477.506 434.96L477.496 435ZM379.396 367.09C426.736 393.76 472.516 429.9 477.396 433.77C478.736 431.71 484.306 422.11 485.846 402.72C487.206 385.72 487.636 363.77 478.846 344.23C464.846 312.92 429.036 288.63 389.846 283.8C358.926 279.99 328.636 283.12 315.166 284.97C325.606 285.28 346.436 287.56 373.466 298.92C388.046 305.05 412.466 315.32 413.956 334.92C414.726 345 409.676 355.31 400.766 361.82C394.106 366.65 386.496 368.47 379.396 367.06V367.09Z" fill="#263238"/>
<path d="M308.501 292.889C308.108 292.889 307.731 292.736 307.451 292.461C307.17 292.186 307.009 291.812 307.001 291.419L303.141 99.3194C303.133 98.9215 303.283 98.5368 303.559 98.2499C303.835 97.963 304.213 97.7973 304.611 97.7894C305.009 97.7814 305.393 97.9318 305.68 98.2075C305.967 98.4832 306.133 98.8615 306.141 99.2594L310.001 291.359C310.006 291.557 309.972 291.753 309.901 291.937C309.83 292.121 309.723 292.289 309.586 292.432C309.449 292.574 309.285 292.688 309.104 292.766C308.923 292.845 308.728 292.887 308.531 292.889H308.501Z" fill="#263238"/>
<path d="M330.192 123.68L348.142 133.88L342.022 142.62L346.492 153.94L322.602 146.45L330.192 123.68Z" fill="#4ABCEB"/>
<path d="M346.499 154.441C346.449 154.45 346.398 154.45 346.349 154.441L322.499 146.931C322.436 146.911 322.377 146.879 322.327 146.836C322.278 146.793 322.237 146.74 322.208 146.681C322.179 146.62 322.164 146.553 322.164 146.486C322.164 146.418 322.179 146.351 322.208 146.291L329.798 123.521C329.822 123.451 329.86 123.388 329.91 123.335C329.96 123.281 330.021 123.239 330.089 123.211C330.156 123.181 330.23 123.166 330.303 123.166C330.377 123.166 330.451 123.181 330.518 123.211L348.469 133.411C348.529 133.446 348.582 133.494 348.623 133.551C348.664 133.607 348.693 133.672 348.708 133.741C348.723 133.808 348.724 133.877 348.71 133.944C348.696 134.011 348.668 134.075 348.629 134.131L342.629 142.651L346.999 153.731C347.032 153.818 347.041 153.913 347.023 154.005C347.005 154.097 346.962 154.182 346.898 154.251C346.851 154.312 346.791 154.36 346.721 154.393C346.652 154.426 346.575 154.443 346.499 154.441ZM323.249 146.131L345.648 153.131L341.569 142.781C341.539 142.704 341.528 142.621 341.537 142.54C341.546 142.458 341.574 142.379 341.618 142.311L347.428 134.021L330.499 124.411L323.249 146.131Z" fill="#263238"/>
<path d="M329.292 143.94L322.602 146.45L330.192 123.68L329.292 143.94Z" fill="#263238"/>
<path d="M322.602 147C322.522 147.002 322.443 146.984 322.372 146.948C322.3 146.913 322.239 146.86 322.192 146.795C322.146 146.73 322.116 146.654 322.106 146.575C322.095 146.496 322.104 146.415 322.132 146.34L329.722 123.57C329.734 123.505 329.759 123.442 329.795 123.386C329.831 123.33 329.877 123.281 329.932 123.243C329.987 123.205 330.049 123.178 330.114 123.164C330.179 123.15 330.246 123.149 330.312 123.16C330.378 123.172 330.44 123.197 330.497 123.233C330.553 123.269 330.601 123.316 330.639 123.37C330.677 123.425 330.704 123.487 330.718 123.552C330.733 123.617 330.734 123.685 330.722 123.75L329.822 144.02C329.818 144.117 329.786 144.211 329.729 144.289C329.672 144.367 329.593 144.427 329.502 144.46L322.812 146.97C322.745 146.993 322.673 147.004 322.602 147ZM329.502 127.23L323.382 145.62L328.782 143.62L329.502 127.23Z" fill="#263238"/>
<path d="M305.352 102.359L331.452 113.469L329.292 143.939L306.002 135.509L305.352 102.359Z" fill="#4ABCEB"/>
<path d="M329.292 144.44H329.122L305.822 136C305.728 135.964 305.647 135.901 305.589 135.819C305.53 135.737 305.496 135.641 305.492 135.54L304.852 102.39C304.851 102.307 304.87 102.226 304.909 102.152C304.947 102.079 305.003 102.016 305.072 101.97C305.145 101.931 305.228 101.91 305.312 101.91C305.395 101.91 305.478 101.931 305.552 101.97L331.652 113C331.75 113.039 331.832 113.109 331.886 113.199C331.94 113.29 331.963 113.395 331.952 113.5L329.792 144C329.789 144.077 329.767 144.151 329.729 144.217C329.69 144.284 329.636 144.34 329.572 144.38C329.487 144.428 329.389 144.449 329.292 144.44ZM306.502 135.15L328.852 143.25L330.942 113.79L305.872 103.13L306.502 135.15Z" fill="#263238"/>
<path d="M210.76 238.43C210.495 238.43 210.241 238.324 210.053 238.137C209.866 237.949 209.76 237.695 209.76 237.43L207.5 156.82C207.492 156.554 207.59 156.297 207.772 156.104C207.954 155.91 208.205 155.797 208.47 155.79C208.736 155.782 208.993 155.879 209.186 156.061C209.38 156.243 209.492 156.494 209.5 156.76L211.74 237.4C211.74 237.665 211.635 237.919 211.448 238.107C211.26 238.294 211.006 238.4 210.74 238.4L210.76 238.43Z" fill="#263238"/>
<path d="M219.337 166.949L227.107 172.139L224.367 174.859L227.217 179.149L216.227 176.529L219.337 166.949Z" fill="#4ABCEB"/>
<path d="M227.231 179.65H227.111L216.111 177.04C216.044 177.024 215.981 176.995 215.926 176.953C215.87 176.911 215.825 176.859 215.791 176.799C215.757 176.739 215.736 176.672 215.729 176.604C215.722 176.535 215.73 176.466 215.751 176.4L218.861 166.81C218.884 166.738 218.924 166.672 218.978 166.618C219.032 166.564 219.098 166.524 219.171 166.5C219.243 166.476 219.32 166.467 219.396 166.476C219.472 166.485 219.546 166.51 219.611 166.55L227.371 171.74C227.431 171.782 227.482 171.836 227.519 171.9C227.557 171.963 227.58 172.034 227.588 172.107C227.595 172.18 227.587 172.254 227.563 172.323C227.54 172.393 227.501 172.457 227.451 172.51L225.011 174.94L227.631 178.94C227.687 179.023 227.717 179.12 227.717 179.22C227.717 179.32 227.687 179.417 227.631 179.5C227.579 179.553 227.517 179.594 227.448 179.62C227.378 179.646 227.304 179.656 227.231 179.65ZM216.881 176.17L226.111 178.37L223.961 175.14C223.894 175.043 223.863 174.926 223.874 174.809C223.885 174.692 223.937 174.583 224.021 174.5L226.321 172.21L219.621 167.73L216.881 176.17Z" fill="#263238"/>
<path d="M219.027 175.459L216.227 176.529L219.337 166.949L219.027 175.459Z" fill="#263238"/>
<path d="M216.228 177C216.102 177.003 215.98 176.956 215.888 176.87C215.821 176.803 215.773 176.72 215.75 176.628C215.727 176.536 215.73 176.44 215.758 176.35L218.868 166.76C218.907 166.647 218.985 166.552 219.087 166.491C219.19 166.431 219.311 166.409 219.428 166.43C219.548 166.449 219.655 166.512 219.731 166.606C219.807 166.7 219.845 166.819 219.838 166.94L219.528 175.45C219.526 175.548 219.495 175.644 219.438 175.724C219.381 175.804 219.301 175.865 219.208 175.9L216.408 176.97C216.35 176.989 216.29 176.999 216.228 177ZM218.708 170.48L217.028 175.66L218.548 175.08L218.708 170.48Z" fill="#263238"/>
<path d="M208.852 158.08L219.932 162.89L219.032 175.46L209.222 171.99L208.852 158.08Z" fill="#4ABCEB"/>
<path d="M219.032 176.001C218.979 176.01 218.925 176.01 218.872 176.001L209.062 172.531C208.967 172.499 208.884 172.439 208.825 172.358C208.766 172.278 208.733 172.181 208.732 172.081L208.352 158.161C208.348 158.077 208.367 157.995 208.405 157.921C208.444 157.847 208.501 157.785 208.572 157.741C208.645 157.699 208.728 157.678 208.812 157.678C208.896 157.678 208.979 157.699 209.052 157.741L220.132 162.551C220.228 162.589 220.309 162.657 220.363 162.746C220.418 162.834 220.442 162.937 220.432 163.041L219.532 175.611C219.527 175.688 219.505 175.763 219.467 175.831C219.429 175.899 219.376 175.957 219.312 176.001C219.22 176.025 219.124 176.025 219.032 176.001ZM209.722 171.681L218.582 174.811L219.412 163.251L209.412 158.891L209.722 171.681Z" fill="#263238"/>
<path d="M278.111 248.61C277.981 248.607 277.857 248.555 277.764 248.464C277.671 248.373 277.616 248.25 277.611 248.12L275.961 195.84C275.958 195.709 276.007 195.582 276.097 195.487C276.187 195.391 276.31 195.335 276.441 195.33C276.507 195.324 276.574 195.333 276.637 195.354C276.7 195.376 276.758 195.41 276.807 195.455C276.856 195.501 276.895 195.555 276.921 195.616C276.948 195.677 276.961 195.743 276.961 195.81L278.611 248.09C278.614 248.155 278.603 248.221 278.581 248.283C278.558 248.344 278.523 248.401 278.479 248.449C278.434 248.498 278.381 248.537 278.321 248.564C278.261 248.592 278.197 248.607 278.131 248.61H278.111Z" fill="#263238"/>
<path d="M284.431 203.311L290.141 207.131L288.131 209.131L290.231 212.281L282.141 210.361L284.431 203.311Z" fill="#4ABCEB"/>
<path d="M290.227 212.79H290.117L282.017 210.87C281.884 210.833 281.77 210.748 281.697 210.63C281.67 210.567 281.656 210.499 281.656 210.43C281.656 210.362 281.67 210.294 281.697 210.23L283.987 203.17C284.012 203.096 284.054 203.028 284.11 202.973C284.165 202.917 284.233 202.875 284.307 202.85C284.38 202.826 284.458 202.818 284.534 202.829C284.61 202.839 284.683 202.867 284.747 202.91L290.457 206.73C290.521 206.77 290.574 206.824 290.612 206.889C290.65 206.953 290.673 207.026 290.677 207.1C290.683 207.173 290.673 207.246 290.649 207.315C290.625 207.384 290.587 207.447 290.537 207.5L288.817 209.21L290.687 212.03C290.743 212.113 290.773 212.211 290.773 212.31C290.773 212.41 290.743 212.508 290.687 212.59C290.636 212.662 290.566 212.718 290.485 212.754C290.404 212.789 290.315 212.802 290.227 212.79ZM282.777 210L289.107 211.5L287.707 209.41C287.643 209.312 287.616 209.194 287.628 209.078C287.641 208.961 287.694 208.853 287.777 208.77L289.357 207.2L284.697 204.09L282.777 210Z" fill="#263238"/>
<path d="M284.201 209.571L282.141 210.361L284.431 203.311L284.201 209.571Z" fill="#4ABCEB"/>
<path d="M282.137 210.861C282.007 210.859 281.882 210.809 281.787 210.721C281.719 210.657 281.671 210.575 281.648 210.485C281.625 210.394 281.628 210.299 281.657 210.211L283.947 203.151C283.97 203.018 284.044 202.9 284.154 202.822C284.264 202.744 284.4 202.713 284.532 202.736C284.665 202.758 284.783 202.833 284.861 202.942C284.939 203.052 284.97 203.188 284.947 203.321L284.717 209.591C284.713 209.688 284.68 209.783 284.623 209.863C284.567 209.943 284.488 210.004 284.397 210.041L282.337 210.831L282.137 210.861ZM283.797 206.871L282.937 209.521L283.707 209.221L283.797 206.871Z" fill="#263238"/>
<path d="M276.703 196.779L284.863 200.319L284.203 209.569L276.983 207.019L276.703 196.779Z" fill="#4ABCEB"/>
<path d="M284.199 210.07H284.029L276.809 207.52C276.708 207.477 276.624 207.404 276.568 207.311C276.512 207.217 276.488 207.108 276.499 207L276.219 196.76C276.219 196.676 276.239 196.593 276.277 196.518C276.315 196.443 276.371 196.379 276.439 196.33C276.513 196.29 276.595 196.27 276.679 196.27C276.762 196.27 276.845 196.29 276.919 196.33L285.079 199.87C285.175 199.908 285.256 199.976 285.31 200.065C285.364 200.153 285.388 200.256 285.379 200.36L284.719 209.62C284.713 209.695 284.691 209.769 284.653 209.835C284.615 209.901 284.562 209.957 284.499 210C284.407 210.05 284.303 210.074 284.199 210.07ZM277.499 206.66L283.779 208.88L284.369 200.63L277.249 197.55L277.499 206.66Z" fill="#263238"/>
<path d="M355.32 371.71C354.79 371.71 354.281 371.499 353.906 371.124C353.531 370.749 353.32 370.24 353.32 369.71L355.56 49.7598C355.56 49.2293 355.771 48.7206 356.146 48.3456C356.521 47.9705 357.03 47.7598 357.56 47.7598C358.091 47.7598 358.599 47.9705 358.975 48.3456C359.35 48.7206 359.56 49.2293 359.56 49.7598L357.32 369.76C357.307 370.281 357.091 370.777 356.717 371.142C356.343 371.506 355.842 371.71 355.32 371.71Z" fill="#263238"/>
<path d="M391.098 83.4297L415.357 100.87L406.318 109.28L414.978 123.31L384.188 119.32L391.098 83.4297Z" fill="#4ABCEB"/>
<path d="M414.982 123.8H414.922L384.132 119.8C384.064 119.794 383.999 119.772 383.94 119.738C383.881 119.703 383.831 119.656 383.792 119.6C383.712 119.487 383.68 119.347 383.702 119.21L390.602 83.3205C390.619 83.238 390.656 83.161 390.711 83.0965C390.765 83.0319 390.834 82.9818 390.912 82.9505C390.991 82.92 391.076 82.9095 391.16 82.92C391.243 82.9304 391.323 82.9615 391.392 83.0105L415.652 100.46C415.713 100.502 415.763 100.557 415.799 100.622C415.836 100.686 415.857 100.757 415.862 100.83C415.867 100.905 415.855 100.979 415.827 101.049C415.8 101.118 415.757 101.18 415.702 101.23L406.962 109.36L415.412 123C415.464 123.081 415.491 123.175 415.491 123.27C415.491 123.366 415.464 123.46 415.412 123.54C415.37 123.618 415.308 123.683 415.232 123.728C415.157 123.774 415.07 123.799 414.982 123.8ZM384.792 118.89L414.012 122.67L405.902 109.54C405.84 109.442 405.815 109.326 405.829 109.211C405.844 109.096 405.898 108.99 405.982 108.91L414.572 100.91L391.442 84.2905L384.792 118.89Z" fill="#263238"/>
<path d="M401.457 117.73L384.188 119.32L391.098 83.4297L401.457 117.73Z" fill="#263238"/>
<path d="M384.187 119.82C384.116 119.819 384.047 119.804 383.983 119.775C383.92 119.745 383.863 119.703 383.817 119.65C383.765 119.593 383.727 119.524 383.706 119.449C383.685 119.375 383.682 119.296 383.697 119.22L390.597 83.3302C390.62 83.2213 390.679 83.1233 390.764 83.051C390.849 82.9788 390.955 82.9364 391.067 82.9302C391.177 82.9252 391.286 82.9568 391.376 83.0201C391.467 83.0834 391.534 83.1749 391.567 83.2802L401.937 117.58C401.957 117.653 401.962 117.729 401.95 117.803C401.938 117.877 401.909 117.948 401.867 118.01C401.824 118.071 401.769 118.122 401.705 118.159C401.641 118.197 401.57 118.221 401.497 118.23L384.237 119.82H384.187ZM391.187 85.5102L384.797 118.76L400.797 117.29L391.187 85.5102Z" fill="#263238"/>
<path d="M358.472 53.9199L404.662 77.0599L401.462 117.73L358.172 98.4699L358.472 53.9199Z" fill="#4ABCEB"/>
<path d="M401.502 118.23C401.433 118.243 401.361 118.243 401.292 118.23L357.972 98.9197C357.883 98.8796 357.808 98.815 357.755 98.7335C357.702 98.652 357.673 98.557 357.672 98.4597L357.972 53.9197C357.971 53.8334 357.993 53.7484 358.035 53.6731C358.077 53.5977 358.138 53.5346 358.212 53.4897C358.286 53.4503 358.368 53.4297 358.452 53.4297C358.536 53.4297 358.618 53.4503 358.692 53.4897L404.892 76.6297C404.982 76.674 405.055 76.7448 405.104 76.8324C405.152 76.92 405.172 77.0202 405.162 77.1197L401.962 117.79C401.952 117.869 401.924 117.945 401.881 118.013C401.838 118.08 401.78 118.137 401.712 118.18C401.646 118.21 401.574 118.227 401.502 118.23ZM358.682 98.1397L401.012 117L404.142 77.3697L358.962 54.7297L358.682 98.1397Z" fill="#263238"/>
<path d="M236.278 62.9402H146.088C146 62.9418 145.914 62.9193 145.838 62.8753C145.762 62.8312 145.7 62.7672 145.658 62.6902C145.616 62.6154 145.594 62.531 145.594 62.4452C145.594 62.3594 145.616 62.275 145.658 62.2002C145.828 61.9002 149.748 54.9202 155.348 51.7202C158.798 49.7202 164.418 51.2302 168.918 52.4202C171.578 53.1202 174.328 53.8402 175.108 53.3202C175.783 52.6129 176.289 51.7615 176.588 50.8302C178.068 47.5102 180.588 41.9502 190.258 39.1102C195.408 37.6102 199.348 39.2802 202.508 40.6202C205.668 41.9602 207.738 42.8302 209.858 40.7202C210.836 39.6766 211.754 38.5782 212.608 37.4302C214.2 35.2975 215.955 33.2914 217.858 31.4302C217.906 31.3849 217.962 31.3495 218.024 31.326C218.085 31.3025 218.151 31.2913 218.217 31.2932C218.283 31.295 218.348 31.3099 218.408 31.3368C218.468 31.3637 218.523 31.4023 218.568 31.4502C218.613 31.4981 218.649 31.5545 218.672 31.6162C218.696 31.6778 218.707 31.7434 218.705 31.8094C218.703 31.8753 218.688 31.9402 218.661 32.0004C218.634 32.0606 218.596 32.1149 218.548 32.1602C216.679 33.9889 214.957 35.9617 213.398 38.0602C212.519 39.2418 211.57 40.3704 210.558 41.4402C207.978 44.0202 205.258 42.8802 202.118 41.5502C198.978 40.2202 195.348 38.6802 190.538 40.0802C181.268 42.7902 179.008 47.8802 177.538 51.2502C177.186 52.365 176.548 53.3682 175.688 54.1602C174.538 54.9302 172.088 54.2902 168.688 53.3902C164.358 52.2502 158.958 50.8202 155.868 52.6002C151.558 55.0602 148.168 60.0602 146.998 61.9502H236.308C236.44 61.9502 236.568 62.0029 236.661 62.0967C236.755 62.1904 236.808 62.3176 236.808 62.4502C236.807 62.5176 236.792 62.5841 236.764 62.6456C236.737 62.7072 236.697 62.7625 236.647 62.8083C236.598 62.854 236.54 62.8893 236.476 62.912C236.413 62.9347 236.345 62.9443 236.278 62.9402Z" fill="#263238"/>
<path d="M302.012 62.9403H246.422C246.29 62.9403 246.163 62.8876 246.069 62.7938C245.975 62.7001 245.922 62.5729 245.922 62.4403C245.922 62.3077 245.975 62.1805 246.069 62.0867C246.163 61.9929 246.29 61.9403 246.422 61.9403H301.362C300.612 59.3003 297.272 48.9403 289.962 46.2903C284.032 44.1303 280.962 47.5203 278.672 50.0003C277.966 50.9353 277.065 51.7063 276.032 52.2603C275.62 52.4632 275.167 52.5687 274.707 52.5687C274.248 52.5687 273.795 52.4632 273.382 52.2603C273.091 52.0868 272.839 51.8552 272.641 51.5799C272.443 51.3046 272.304 50.9916 272.232 50.6603C272.142 50.4703 260.232 21.8303 240.312 23.3703C234.804 23.6484 229.424 25.1334 224.552 27.7203C224.437 27.785 224.301 27.8014 224.173 27.7658C224.046 27.7302 223.938 27.6455 223.872 27.5303C223.839 27.4735 223.817 27.4105 223.809 27.3451C223.8 27.2798 223.805 27.2133 223.823 27.1499C223.841 27.0864 223.871 27.0271 223.912 26.9756C223.953 26.9242 224.004 26.8815 224.062 26.8503C229.06 24.1915 234.579 22.6621 240.232 22.3703C260.952 20.7903 273.072 50.0903 273.232 50.3703C273.275 50.5744 273.358 50.768 273.477 50.9397C273.595 51.1114 273.747 51.2578 273.922 51.3703C274.21 51.4869 274.52 51.541 274.83 51.5289C275.14 51.5168 275.444 51.4389 275.722 51.3003C276.596 50.783 277.363 50.1043 277.982 49.3003C280.292 46.7703 283.782 42.9403 290.352 45.3003C299.202 48.5203 302.402 61.7203 302.532 62.3003C302.55 62.3725 302.551 62.4479 302.536 62.5207C302.52 62.5934 302.488 62.6617 302.442 62.7203C302.395 62.7896 302.33 62.846 302.255 62.8844C302.18 62.9228 302.097 62.942 302.012 62.9403Z" fill="#263238"/>
<path d="M436.325 187.49H378.385C378.298 187.49 378.212 187.467 378.136 187.423C378.061 187.379 377.998 187.316 377.955 187.24C377.913 187.166 377.891 187.081 377.891 186.995C377.891 186.91 377.913 186.825 377.955 186.75C378.055 186.58 380.245 182.67 383.395 180.87C385.395 179.74 388.525 180.57 391.065 181.24C392.345 181.58 393.945 182 394.295 181.77C394.624 181.397 394.876 180.962 395.035 180.49C395.865 178.62 397.265 175.49 402.725 173.89C405.645 173.04 407.865 173.98 409.645 174.73C411.425 175.48 412.445 175.85 413.455 174.83C413.99 174.264 414.491 173.667 414.955 173.04C416.002 171.613 417.195 170.3 418.515 169.12C418.61 169.028 418.737 168.977 418.87 168.977C419.002 168.977 419.13 169.028 419.225 169.12C419.271 169.166 419.308 169.22 419.334 169.281C419.359 169.341 419.372 169.405 419.372 169.47C419.372 169.536 419.359 169.6 419.334 169.66C419.308 169.72 419.271 169.775 419.225 169.82C417.955 170.96 416.806 172.227 415.795 173.6C415.305 174.26 414.778 174.892 414.215 175.49C412.675 177.03 411.035 176.33 409.305 175.6C407.575 174.87 405.635 174.05 403.055 174.8C398.055 176.26 396.805 179.02 395.995 180.8C395.795 181.462 395.414 182.054 394.895 182.51C394.175 182.99 392.785 182.62 390.895 182.11C388.545 181.49 385.615 180.72 383.985 181.65C382.12 182.876 380.55 184.498 379.385 186.4H436.385C436.517 186.4 436.645 186.453 436.738 186.547C436.832 186.641 436.885 186.768 436.885 186.9C436.885 187.033 436.832 187.16 436.738 187.254C436.645 187.348 436.517 187.4 436.385 187.4L436.325 187.49Z" fill="#263238"/>
<path d="M464.499 187.49H441.049C440.916 187.49 440.789 187.438 440.695 187.344C440.602 187.25 440.549 187.123 440.549 186.99C440.549 186.858 440.602 186.731 440.695 186.637C440.789 186.543 440.916 186.49 441.049 186.49H463.849C463.309 184.72 461.489 179.63 457.779 178.28C454.629 177.14 453.049 178.87 451.779 180.28C451.365 180.826 450.836 181.274 450.229 181.59C449.972 181.715 449.69 181.78 449.404 181.78C449.118 181.78 448.836 181.715 448.579 181.59C448.394 181.483 448.234 181.338 448.106 181.166C447.979 180.994 447.888 180.799 447.839 180.59C447.839 180.52 441.339 164.83 430.439 165.69C428.115 165.841 425.829 166.347 423.659 167.19C423.599 167.216 423.534 167.23 423.468 167.231C423.402 167.231 423.337 167.218 423.277 167.193C423.216 167.168 423.161 167.131 423.115 167.084C423.069 167.037 423.033 166.982 423.009 166.92C422.983 166.86 422.969 166.795 422.969 166.73C422.968 166.664 422.981 166.599 423.006 166.538C423.031 166.478 423.069 166.423 423.115 166.377C423.162 166.331 423.218 166.295 423.279 166.27C425.548 165.385 427.939 164.852 430.369 164.69C441.929 163.8 448.519 179.63 448.789 180.31C448.825 180.492 448.929 180.653 449.079 180.76C449.343 180.845 449.63 180.823 449.879 180.7C450.324 180.442 450.718 180.103 451.039 179.7C452.359 178.26 454.349 176.08 458.119 177.45C463.119 179.27 464.919 186.67 464.989 186.99C465.007 187.063 465.008 187.138 464.992 187.211C464.977 187.284 464.945 187.352 464.899 187.41C464.841 187.451 464.776 187.478 464.707 187.492C464.638 187.506 464.567 187.505 464.499 187.49Z" fill="#263238"/>
<path d="M268.949 213.511H218.499C218.411 213.51 218.324 213.487 218.247 213.443C218.17 213.399 218.105 213.337 218.059 213.261C218.015 213.185 217.992 213.099 217.992 213.011C217.992 212.923 218.015 212.837 218.059 212.761C218.854 211.348 219.971 210.142 221.319 209.241C222.559 208.531 224.449 209.031 225.969 209.431C226.533 209.625 227.123 209.736 227.719 209.761C227.859 209.559 227.973 209.341 228.059 209.111C228.436 208.109 229.059 207.219 229.869 206.52C230.68 205.821 231.653 205.337 232.699 205.111C234.109 204.742 235.606 204.92 236.889 205.611C237.989 206.071 238.419 206.191 238.889 205.711C239.197 205.397 239.485 205.063 239.749 204.711C240.774 203.208 242.142 201.971 243.74 201.101C245.338 200.232 247.12 199.755 248.939 199.711C255.939 199.181 259.789 208.591 259.939 208.991V209.081C260.019 209.171 260.109 209.181 260.289 209.081C260.515 208.925 260.718 208.736 260.889 208.521C261.649 207.691 262.889 206.291 265.259 207.141C268.259 208.251 269.369 212.691 269.419 212.881C269.436 212.956 269.435 213.033 269.418 213.107C269.401 213.182 269.367 213.251 269.319 213.311C269.276 213.37 269.221 213.418 269.157 213.453C269.093 213.487 269.022 213.507 268.949 213.511ZM219.379 212.511H268.279C267.899 211.331 266.859 208.801 264.939 208.091C263.229 207.471 262.389 208.391 261.649 209.201C261.38 209.547 261.039 209.831 260.649 210.031C260.471 210.116 260.276 210.159 260.079 210.159C259.882 210.159 259.687 210.116 259.509 210.031C259.253 209.875 259.064 209.629 258.979 209.341C258.749 208.781 254.979 200.261 248.979 200.711C247.298 200.742 245.65 201.178 244.174 201.983C242.697 202.787 241.437 203.936 240.499 205.331C240.21 205.727 239.896 206.105 239.559 206.461C238.559 207.461 237.489 207.011 236.449 206.571C235.375 205.982 234.119 205.818 232.929 206.111C232.028 206.3 231.188 206.713 230.489 207.313C229.79 207.912 229.253 208.679 228.929 209.541C228.8 209.964 228.55 210.339 228.209 210.621C227.709 210.961 226.899 210.741 225.679 210.421C224.459 210.101 222.679 209.631 221.779 210.131C220.821 210.747 220.003 211.558 219.379 212.511Z" fill="#263238"/>
<path d="M94.1511 138.12H43.661C43.5742 138.118 43.4893 138.094 43.4142 138.05C43.3391 138.006 43.2761 137.945 43.231 137.87C43.1872 137.794 43.1641 137.708 43.1641 137.62C43.1641 137.533 43.1872 137.446 43.231 137.37C44.0286 135.956 45.1491 134.75 46.501 133.85C47.741 133.14 49.6311 133.64 51.1511 134.04C51.7153 134.235 52.3048 134.346 52.9011 134.37C53.0405 134.168 53.1547 133.95 53.2411 133.72C53.6183 132.719 54.2408 131.828 55.0514 131.129C55.862 130.43 56.8349 129.946 57.8811 129.72C59.2907 129.351 60.7879 129.53 62.071 130.22C63.171 130.68 63.601 130.8 64.071 130.32C64.3787 130.006 64.666 129.672 64.931 129.32C65.956 127.817 67.3241 126.58 68.9222 125.71C70.5202 124.841 72.3023 124.365 74.1211 124.32C81.1211 123.79 84.9711 133.2 85.1211 133.6C85.1257 133.63 85.1257 133.661 85.1211 133.69C85.2011 133.78 85.3011 133.79 85.4711 133.69C85.7016 133.539 85.9045 133.35 86.071 133.13C86.831 132.3 88.071 130.9 90.451 131.76C93.451 132.86 94.5611 137.3 94.611 137.49C94.6277 137.565 94.6273 137.642 94.61 137.717C94.5927 137.791 94.5589 137.861 94.5111 137.92C94.4692 137.978 94.4152 138.026 94.3531 138.06C94.2909 138.095 94.222 138.115 94.1511 138.12ZM44.5811 137.12H93.501C93.121 135.94 92.0811 133.41 90.1511 132.7C88.4411 132.08 87.6011 133 86.861 133.81C86.5963 134.161 86.2541 134.445 85.861 134.64C85.681 134.724 85.4847 134.768 85.2861 134.768C85.0874 134.768 84.8911 134.724 84.711 134.64C84.4539 134.488 84.2671 134.24 84.1911 133.95C83.951 133.39 80.271 124.87 74.1911 125.32C72.5098 125.35 70.8607 125.785 69.3842 126.59C67.9076 127.394 66.6474 128.544 65.711 129.94C65.4028 130.339 65.0688 130.716 64.711 131.07C63.711 132.07 62.6511 131.62 61.611 131.18C60.5365 130.592 59.2806 130.428 58.091 130.72C57.1894 130.909 56.3501 131.322 55.6508 131.922C54.9516 132.522 54.4151 133.288 54.091 134.15C53.9618 134.573 53.7115 134.949 53.371 135.23C52.871 135.57 52.0611 135.35 50.8311 135.03C49.6011 134.71 47.831 134.23 46.941 134.74C45.9969 135.36 45.1929 136.171 44.5811 137.12Z" fill="#263238"/>
<path d="M153.279 106C154.417 108.971 155.333 112.023 156.019 115.13C156.469 118.21 157.759 119.88 157.409 120.79C157.059 121.7 155.929 123.79 155.929 124.44C156.706 127.177 157.689 129.851 158.869 132.44C159.779 134.38 157.159 134.95 156.359 136.09C155.559 137.23 155.359 139.86 154.989 143.17C154.619 146.48 155.669 148.31 154.879 150.02C154.089 151.73 148.939 151.96 146.769 151.39C145.588 151.125 144.489 150.576 143.569 149.79L142.889 152.65C139.528 150.045 135.893 147.815 132.049 146C127.315 144.113 122.473 142.51 117.549 141.2L118.119 134.81C118.119 134.81 112.069 125.81 109.669 118.26C107.269 110.71 111.609 102.16 114.119 98.8498C116.629 95.5398 129.119 93.0298 135.469 92.9198C141.819 92.8098 152.019 97.7098 152.469 97.8198C152.919 97.9298 156.809 96.9098 156.919 98.3998C156.877 99.5938 156.566 100.763 156.009 101.82C156.009 101.82 160.919 99.5398 160.459 102.16C159.999 104.78 154.299 106.29 153.279 106Z" fill="white"/>
<path d="M142.889 153.14C142.776 153.139 142.667 153.1 142.579 153.03C139.244 150.465 135.643 148.266 131.839 146.47C127.131 144.598 122.316 143.009 117.419 141.71C117.305 141.678 117.206 141.608 117.139 141.511C117.072 141.414 117.04 141.297 117.049 141.18L117.609 134.96C116.809 133.75 111.419 125.42 109.189 118.43C106.729 110.69 111.079 102.05 113.729 98.57C116.379 95.09 129.359 92.57 135.459 92.44C140.999 92.33 149.209 95.89 151.899 97.06C152.279 97.23 152.529 97.34 152.609 97.36L153.309 97.27C154.829 97.07 156.249 96.94 156.989 97.54C157.116 97.642 157.221 97.7693 157.297 97.9138C157.373 98.0584 157.417 98.2172 157.429 98.38C157.444 99.2496 157.284 100.113 156.959 100.92C158.089 100.52 159.689 100.13 160.489 100.75C160.709 100.928 160.871 101.168 160.955 101.439C161.038 101.709 161.04 101.999 160.959 102.27C160.801 102.846 160.522 103.38 160.139 103.838C159.755 104.295 159.278 104.664 158.739 104.92C157.286 105.759 155.676 106.291 154.009 106.48C155.057 109.251 155.89 112.1 156.499 115C156.707 116.212 157.042 117.398 157.499 118.54C157.9 119.261 158.041 120.097 157.899 120.91C157.779 121.23 157.559 121.7 157.329 122.19C156.954 122.888 156.659 123.626 156.449 124.39C157.233 127.059 158.198 129.672 159.339 132.21C160.139 133.9 158.809 134.82 157.829 135.49C157.455 135.73 157.118 136.023 156.829 136.36C156.149 137.36 155.899 139.79 155.609 142.64L155.549 143.2C155.439 144.412 155.466 145.633 155.629 146.84C155.873 147.963 155.79 149.133 155.389 150.21C154.389 152.35 148.799 152.41 146.699 151.85C145.717 151.605 144.784 151.196 143.939 150.64L143.439 152.74C143.417 152.822 143.376 152.898 143.319 152.961C143.261 153.024 143.189 153.072 143.109 153.1C143.04 153.132 142.964 153.145 142.889 153.14ZM118.079 140.85C122.893 142.133 127.624 143.706 132.249 145.56C135.901 147.265 139.363 149.35 142.579 151.78L143.089 149.67C143.107 149.582 143.15 149.501 143.212 149.436C143.274 149.371 143.352 149.324 143.439 149.3C143.525 149.276 143.615 149.275 143.701 149.298C143.788 149.321 143.866 149.367 143.929 149.43C144.799 150.149 145.827 150.653 146.929 150.9C149.109 151.47 153.829 151.13 154.449 149.8C154.763 148.886 154.818 147.903 154.609 146.96C154.436 145.684 154.406 144.393 154.519 143.11L154.579 142.54C154.909 139.31 155.149 136.98 155.979 135.8C156.34 135.351 156.781 134.971 157.279 134.68C158.389 133.91 158.839 133.48 158.449 132.68C157.599 130.88 155.449 125.29 155.449 124.43C155.627 123.505 155.965 122.618 156.449 121.81C156.669 121.34 156.879 120.9 156.989 120.6C156.998 120.015 156.86 119.438 156.589 118.92C156.126 117.711 155.791 116.458 155.589 115.18C154.909 112.117 154.003 109.109 152.879 106.18C152.844 106.09 152.836 105.993 152.856 105.899C152.875 105.805 152.921 105.718 152.989 105.65C153.055 105.583 153.139 105.536 153.231 105.513C153.322 105.49 153.418 105.492 153.509 105.52C155.202 105.484 156.856 104.997 158.299 104.11C158.709 103.91 159.075 103.63 159.375 103.286C159.676 102.943 159.905 102.543 160.049 102.11C160.099 101.82 160.049 101.64 159.959 101.55C159.479 101.19 157.689 101.66 156.299 102.3C156.204 102.345 156.098 102.359 155.995 102.341C155.892 102.322 155.797 102.272 155.724 102.197C155.652 102.122 155.604 102.026 155.589 101.922C155.573 101.819 155.591 101.713 155.639 101.62C156.156 100.643 156.45 99.564 156.499 98.46C156.5 98.4326 156.494 98.4054 156.482 98.3809C156.47 98.3563 156.451 98.3354 156.429 98.32C155.969 97.95 154.309 98.17 153.509 98.32C153.154 98.398 152.79 98.4183 152.429 98.38C152.111 98.2724 151.801 98.1455 151.499 98C148.859 96.85 140.819 93.33 135.499 93.46C128.849 93.57 116.819 96.19 114.499 99.19C112.499 101.88 107.699 110.52 110.129 118.19C112.499 125.5 118.499 134.46 118.499 134.55C118.566 134.643 118.598 134.756 118.589 134.87L118.079 140.85Z" fill="#263238"/>
<path d="M154.447 126.41C154.806 126.41 155.097 125.537 155.097 124.46C155.097 123.383 154.806 122.51 154.447 122.51C154.088 122.51 153.797 123.383 153.797 124.46C153.797 125.537 154.088 126.41 154.447 126.41Z" fill="#263238"/>
<path d="M153.722 121.121C153.596 121.124 153.474 121.077 153.382 120.991C153.335 120.944 153.298 120.889 153.273 120.828C153.247 120.767 153.234 120.702 153.234 120.636C153.234 120.57 153.247 120.505 153.273 120.444C153.298 120.383 153.335 120.327 153.382 120.281C153.629 119.949 153.95 119.679 154.32 119.493C154.69 119.307 155.098 119.211 155.512 119.211C155.764 119.236 156.008 119.316 156.226 119.446C156.443 119.575 156.63 119.751 156.772 119.961C156.844 120.072 156.868 120.208 156.84 120.337C156.812 120.466 156.734 120.579 156.622 120.651C156.511 120.721 156.378 120.745 156.249 120.719C156.121 120.693 156.007 120.618 155.932 120.511C155.873 120.425 155.796 120.352 155.706 120.299C155.617 120.245 155.516 120.212 155.412 120.201C155.155 120.231 154.907 120.314 154.683 120.445C154.459 120.576 154.265 120.752 154.112 120.961C154.065 121.017 154.005 121.06 153.937 121.088C153.869 121.116 153.795 121.127 153.722 121.121Z" fill="#263238"/>
<path d="M154.877 149.999C155.667 148.289 154.647 146.459 154.987 143.149C155.327 139.839 155.557 137.219 156.357 136.069C154.077 135.279 149.357 138.699 148.827 137.899C148.297 137.099 147.827 122.829 148.137 120.659C148.447 118.489 151.447 118.499 152.707 115.759C153.967 113.019 149.707 109.929 149.507 108.109C149.307 106.289 153.277 105.939 153.277 105.939C154.277 106.279 160.007 104.799 160.467 102.169C160.927 99.5392 156.017 101.829 156.017 101.829C156.574 100.772 156.885 99.6032 156.927 98.4093C156.817 96.9193 152.927 97.9493 152.477 97.8293C152.027 97.7093 141.857 92.8293 135.477 92.9293C129.097 93.0293 116.637 95.5493 114.127 98.8593C111.617 102.169 107.277 110.729 109.677 118.269C111.677 124.689 116.407 132.169 117.747 134.269C118.144 134.553 118.578 134.782 119.037 134.949C123.068 136.162 127.323 136.435 131.477 135.749C137.187 134.749 141.757 132.669 140.957 131.069C140.157 129.469 139.697 122.849 141.527 119.769C143.357 116.689 145.407 121.369 144.947 126.959C144.487 132.549 143.237 136.089 142.897 139.629C142.557 143.169 143.577 149.789 143.577 149.789C144.497 150.575 145.596 151.125 146.777 151.389C148.937 151.999 154.077 151.719 154.877 149.999Z" fill="#263238"/>
<path d="M149.499 152.16C148.527 152.175 147.557 152.074 146.609 151.86C145.346 151.572 144.173 150.982 143.189 150.14C143.119 150.06 143.071 149.964 143.049 149.86C143.049 149.59 142.049 143.14 142.359 139.58C142.545 137.984 142.816 136.398 143.169 134.83C143.762 132.221 144.179 129.575 144.419 126.91C144.759 122.75 143.659 119.57 142.789 119.3C142.449 119.19 142.069 119.76 141.919 120.02C140.219 122.88 140.619 129.34 141.369 130.84C141.472 131.036 141.526 131.254 141.526 131.475C141.526 131.696 141.472 131.914 141.369 132.11C140.369 134.02 135.489 135.53 131.559 136.23C127.381 136.924 123.1 136.66 119.039 135.46H118.899C118.39 135.273 117.909 135.017 117.469 134.7C117.407 134.667 117.356 134.619 117.319 134.56C115.939 132.41 111.249 124.91 109.189 118.46C106.729 110.72 111.079 102.08 113.729 98.6001C116.379 95.1201 129.359 92.6001 135.459 92.4701C141.039 92.3901 149.209 95.9201 151.899 97.0901C152.279 97.2601 152.529 97.3701 152.609 97.3901L153.309 97.3001C154.829 97.1001 156.249 96.9701 156.989 97.5701C157.116 97.6721 157.221 97.7994 157.297 97.9439C157.373 98.0885 157.417 98.2473 157.429 98.4101C157.444 99.2797 157.284 100.143 156.959 100.95C158.089 100.55 159.689 100.16 160.489 100.78C160.709 100.958 160.871 101.198 160.955 101.469C161.038 101.739 161.04 102.029 160.959 102.3C160.801 102.876 160.522 103.41 160.139 103.868C159.755 104.325 159.278 104.694 158.739 104.95C156.899 106.05 154.229 106.69 153.239 106.49C152.499 106.56 150.729 106.88 150.159 107.59C150.096 107.656 150.05 107.735 150.024 107.822C149.998 107.909 149.993 108.001 150.009 108.09C150.294 108.91 150.739 109.664 151.319 110.31C152.549 111.96 154.079 114.01 153.159 116C152.532 117.217 151.557 118.219 150.359 118.88C149.469 119.46 148.769 119.88 148.629 120.78C148.289 122.99 148.739 135.86 149.209 137.56C149.877 137.38 150.527 137.135 151.149 136.83C152.879 136.07 155.049 135.12 156.519 135.64C156.593 135.665 156.661 135.707 156.716 135.763C156.772 135.818 156.814 135.886 156.839 135.96C156.86 136.034 156.864 136.112 156.852 136.188C156.84 136.264 156.812 136.336 156.769 136.4C156.089 137.4 155.839 139.83 155.549 142.68L155.489 143.24C155.379 144.453 155.406 145.674 155.569 146.88C155.813 148.003 155.73 149.173 155.329 150.25C154.659 151.67 151.889 152.16 149.499 152.16ZM144.009 149.53C144.852 150.187 145.828 150.655 146.869 150.9C149.049 151.47 153.769 151.13 154.389 149.8C154.703 148.886 154.758 147.903 154.549 146.96C154.376 145.684 154.346 144.393 154.459 143.11L154.519 142.54C154.597 140.48 154.933 138.437 155.519 136.46C154.118 136.625 152.761 137.052 151.519 137.72C149.869 138.44 148.869 138.88 148.389 138.2C147.629 137.2 147.309 122.55 147.619 120.6C147.819 119.29 148.819 118.6 149.789 118.01C150.828 117.459 151.676 116.604 152.219 115.56C152.889 114.1 151.619 112.39 150.489 110.87C149.785 110.102 149.268 109.181 148.979 108.18C148.952 107.958 148.97 107.732 149.034 107.517C149.098 107.302 149.205 107.102 149.349 106.93C150.349 105.73 152.909 105.48 153.199 105.45C153.268 105.435 153.339 105.435 153.409 105.45C155.102 105.414 156.756 104.927 158.199 104.04C158.609 103.84 158.975 103.56 159.275 103.216C159.576 102.873 159.805 102.473 159.949 102.04C159.999 101.75 159.949 101.57 159.859 101.48C159.379 101.12 157.589 101.59 156.199 102.23C156.104 102.275 155.998 102.289 155.895 102.271C155.792 102.253 155.697 102.202 155.624 102.127C155.552 102.052 155.504 101.956 155.489 101.852C155.473 101.749 155.491 101.643 155.539 101.55C156.056 100.573 156.35 99.4941 156.399 98.3901C156.4 98.3627 156.394 98.3355 156.382 98.3109C156.37 98.2864 156.351 98.2655 156.329 98.2501C155.869 97.8801 154.209 98.1001 153.409 98.2501C153.054 98.3281 152.69 98.3484 152.329 98.3101C152.047 98.2217 151.77 98.1183 151.499 98.0001C148.859 96.8501 140.819 93.3301 135.499 93.4601C128.849 93.5701 116.819 96.1901 114.499 99.1901C112.499 101.88 107.699 110.52 110.129 118.19C112.129 124.43 116.649 131.72 118.129 133.95C118.434 134.185 118.771 134.377 119.129 134.52H119.259C123.182 135.687 127.32 135.947 131.359 135.28C136.559 134.34 139.929 132.73 140.449 131.69C140.481 131.634 140.498 131.57 140.498 131.505C140.498 131.44 140.481 131.376 140.449 131.32C139.629 129.67 139.079 122.84 141.039 119.54C141.829 118.21 142.649 118.24 143.039 118.37C144.669 118.89 145.709 122.77 145.359 127.02C145.117 129.712 144.696 132.384 144.099 135.02C143.751 136.551 143.487 138.1 143.309 139.66C143.247 142.966 143.492 146.27 144.039 149.53H144.009Z" fill="#263238"/>
<path d="M144.348 151.58C144.348 151.58 144.868 149.24 135.768 144.95C126.668 140.66 117.038 138.83 115.868 139.35C114.698 139.87 113.398 142.35 113.398 142.35C119.474 143.429 125.379 145.312 130.958 147.95C138.888 151.95 145.648 155.49 145.648 155.49L144.348 151.58Z" fill="white"/>
<path d="M145.651 155.999C145.575 156.013 145.497 156.013 145.421 155.999C145.361 155.999 138.571 152.439 130.731 148.449C125.197 145.843 119.343 143.98 113.321 142.909C113.243 142.895 113.169 142.864 113.105 142.817C113.04 142.77 112.988 142.709 112.951 142.639C112.916 142.567 112.898 142.489 112.898 142.409C112.898 142.33 112.916 142.251 112.951 142.179C113.091 141.909 114.371 139.539 115.661 138.969C117.121 138.319 126.921 140.289 135.981 144.559C144.201 148.439 144.881 150.849 144.861 151.559L146.131 155.359C146.161 155.454 146.163 155.556 146.137 155.652C146.11 155.748 146.056 155.834 145.981 155.899C145.886 155.971 145.769 156.006 145.651 155.999ZM114.181 141.999C120.062 143.095 125.776 144.947 131.181 147.509C137.181 150.509 142.561 153.339 144.791 154.509L143.881 151.779C143.861 151.704 143.861 151.625 143.881 151.549C143.881 151.439 143.731 149.279 135.571 145.439C126.401 141.109 117.111 139.439 116.091 139.849C115.295 140.406 114.64 141.143 114.181 141.999Z" fill="#263238"/>
<path d="M149.43 158.001C148.285 155.747 146.4 153.957 144.09 152.931C139.93 150.851 135.56 146.281 118.6 142.521C115.38 141.811 114.31 142.001 113.4 142.391C111.553 143.642 109.961 145.234 108.71 147.081L107.5 148.851C107.5 148.851 118.56 148.721 126.23 151.061C133.9 153.401 151.73 160.291 151.73 160.291L149.43 158.001Z" fill="#4ABCEB"/>
<path d="M151.771 160.79C151.711 160.8 151.65 160.8 151.591 160.79C151.411 160.72 133.701 153.88 126.131 151.57C118.561 149.26 107.651 149.38 107.551 149.38C107.462 149.376 107.375 149.351 107.298 149.305C107.221 149.26 107.157 149.196 107.111 149.12C107.064 149.043 107.039 148.955 107.039 148.865C107.039 148.775 107.064 148.687 107.111 148.61L108.281 146.79C109.575 144.855 111.245 143.199 113.191 141.92C114.281 141.45 115.531 141.32 118.701 142.02C132.111 145.02 137.771 148.5 141.521 150.83C142.521 151.47 143.431 152.03 144.311 152.46C146.69 153.536 148.638 155.382 149.841 157.7L152.111 159.97C152.192 160.052 152.243 160.158 152.255 160.273C152.268 160.387 152.242 160.503 152.181 160.6C152.131 160.661 152.068 160.709 151.997 160.742C151.926 160.775 151.849 160.791 151.771 160.79ZM108.501 148.35C111.331 148.35 120.091 148.64 126.501 150.58C132.501 152.41 144.811 157.07 149.831 158.99L149.151 158.31C149.105 158.26 149.068 158.202 149.041 158.14C147.94 156.004 146.145 154.308 143.951 153.33C143.031 152.87 142.131 152.33 141.081 151.65C137.391 149.36 131.811 145.89 118.571 142.96C115.361 142.25 114.421 142.48 113.671 142.8C111.926 144.02 110.415 145.544 109.211 147.3L108.501 148.35Z" fill="#263238"/>
<path d="M186.503 286.66C186.503 286.66 182.503 290.05 183.573 292.66C184.578 294.877 185.71 297.034 186.963 299.12L188.653 297.27C188.653 297.27 186.343 292.04 186.803 291.27C187.263 290.5 198.343 284.04 198.343 284.04L201.583 290.81L203.273 289.42C203.273 289.42 200.503 282.35 199.423 281.73C198.343 281.11 189.223 283.59 186.503 286.66Z" fill="#263238"/>
<path d="M186.905 299.63C186.827 299.621 186.753 299.595 186.687 299.554C186.622 299.512 186.566 299.456 186.525 299.39C185.255 297.284 184.113 295.103 183.105 292.86C181.935 290.03 185.755 286.64 186.105 286.31C189.005 283.11 198.275 280.53 199.625 281.31C200.765 281.96 203.025 287.55 203.685 289.25C203.723 289.348 203.73 289.455 203.705 289.558C203.68 289.66 203.624 289.751 203.545 289.82L201.845 291.21C201.786 291.257 201.718 291.29 201.645 291.307C201.573 291.323 201.497 291.324 201.424 291.307C201.351 291.291 201.283 291.258 201.224 291.212C201.165 291.166 201.118 291.107 201.085 291.04L198.085 284.75C193.035 287.75 187.615 291.02 187.175 291.56C187.065 292.01 188.055 294.8 189.065 297.08C189.103 297.17 189.114 297.268 189.098 297.363C189.082 297.459 189.04 297.548 188.975 297.62L187.285 299.47C187.236 299.522 187.177 299.562 187.111 299.59C187.046 299.617 186.976 299.631 186.905 299.63ZM198.805 282.13C197.015 282.13 189.345 284.19 186.805 287V287.05C185.805 287.92 183.255 290.61 184.015 292.48C184.905 294.472 185.906 296.412 187.015 298.29L188.015 297.18C186.955 294.74 185.855 291.81 186.335 291.02C186.815 290.23 194.685 285.58 198.045 283.62C198.105 283.585 198.171 283.563 198.24 283.554C198.308 283.546 198.378 283.551 198.445 283.57C198.511 283.59 198.573 283.624 198.627 283.668C198.68 283.713 198.724 283.768 198.755 283.83L201.705 290.03L202.625 289.28C201.345 286.05 199.685 282.5 199.125 282.17C199.021 282.14 198.913 282.126 198.805 282.13Z" fill="#263238"/>
<path d="M188.91 269.891L199.68 280.511C200.063 281.123 200.316 281.807 200.423 282.521C200.529 283.235 200.488 283.963 200.3 284.661C199.83 285.901 191.22 292.661 189.52 293.441C187.82 294.221 186.91 291.901 186.75 291.281C186.59 290.661 185.83 288.971 185.68 288.511C185.53 288.051 181.37 283.431 180.14 279.891C179.525 278.297 179.06 276.65 178.75 274.971L188.91 269.891Z" fill="white"/>
<path d="M188.862 294.09C188.578 294.091 188.297 294.026 188.042 293.9C187.157 293.32 186.524 292.427 186.272 291.4C186.182 291.06 185.842 290.24 185.592 289.64C185.422 289.22 185.262 288.85 185.202 288.64C185.142 288.43 184.792 288.08 184.432 287.64C183.092 285.92 180.592 282.72 179.672 280.05C179.038 278.434 178.565 276.759 178.262 275.05C178.249 274.947 178.268 274.843 178.316 274.752C178.364 274.66 178.44 274.586 178.532 274.54L188.682 269.46C188.777 269.416 188.884 269.402 188.987 269.42C189.091 269.438 189.187 269.486 189.262 269.56C189.262 269.56 199.422 279.56 200.032 280.18C200.487 280.86 200.788 281.631 200.914 282.439C201.04 283.247 200.988 284.073 200.762 284.86C200.192 286.39 191.212 293.24 189.762 293.91C189.478 294.033 189.171 294.095 188.862 294.09ZM179.312 275.25C179.638 276.772 180.072 278.269 180.612 279.73C181.482 282.24 183.912 285.36 185.222 287.04C185.585 287.436 185.897 287.876 186.152 288.35C186.212 288.52 186.352 288.86 186.512 289.25C186.787 289.874 187.031 290.511 187.242 291.16C187.428 291.904 187.875 292.557 188.502 293C188.634 293.066 188.779 293.101 188.927 293.101C189.075 293.101 189.22 293.066 189.352 293C191.222 292.15 199.472 285.48 199.862 284.51C200.173 283.281 199.994 281.979 199.362 280.88L188.812 270.5L179.312 275.25Z" fill="#263238"/>
<path d="M67.6116 277C68.3629 278.814 69.2177 280.584 70.1716 282.3C70.6616 282.78 75.3116 287.76 75.7916 289.04C76.2716 290.32 75.7916 294.66 77.5616 297.87C79.3316 301.08 78.2016 302.36 76.2716 301.72C74.3416 301.08 72.9016 297.23 72.9016 297.23C72.9016 297.23 74.6716 303.65 74.9916 304.77C75.3116 305.89 80.1316 307.18 79.3216 308.3C78.5116 309.42 70.0116 309.91 68.0916 309.75C66.1716 309.59 62.6316 305.09 61.5116 304.45C60.3916 303.81 57.5116 291.61 56.6916 289.36C55.8716 287.11 54.6016 277.36 54.6016 277.36L67.6116 277Z" fill="white"/>
<path d="M68.8957 310.311H68.0457C66.7057 310.191 65.0457 308.611 63.0457 306.561C62.5075 305.974 61.9222 305.432 61.2957 304.941C60.4757 304.481 59.4557 301.151 57.4757 293.871C56.9557 291.941 56.4757 290.271 56.2557 289.591C55.4457 287.321 54.1957 277.851 54.1457 277.451C54.1358 277.382 54.1405 277.311 54.1594 277.244C54.1783 277.177 54.2111 277.115 54.2557 277.061C54.3511 276.955 54.4837 276.891 54.6257 276.881L67.6257 276.561C67.7252 276.557 67.8235 276.584 67.9075 276.638C67.9915 276.691 68.0571 276.769 68.0957 276.861C68.7949 278.619 69.5963 280.336 70.4957 282.001C70.4957 282.051 75.6657 287.421 76.2257 288.921C76.4244 289.672 76.5286 290.444 76.5357 291.221C76.5523 293.451 77.0396 295.652 77.9657 297.681C79.2757 300.081 78.9657 301.271 78.4957 301.851C78.182 302.158 77.7815 302.36 77.3487 302.432C76.9158 302.504 76.4714 302.44 76.0757 302.251C75.4537 301.971 74.9108 301.542 74.4957 301.001C74.9357 302.581 75.3657 304.171 75.4957 304.671C75.5857 304.971 76.7357 305.561 77.4257 305.921C78.6657 306.561 79.7357 307.121 79.9157 307.861C79.9469 307.993 79.9487 308.131 79.9211 308.264C79.8934 308.397 79.837 308.522 79.7557 308.631C78.7857 310.001 71.5757 310.311 68.8957 310.311ZM55.1657 277.851C55.4557 279.941 56.4857 287.371 57.1657 289.231C57.4257 289.951 57.8557 291.561 58.4157 293.591C59.3557 297.051 61.0957 303.481 61.7857 304.071C62.4884 304.593 63.1352 305.186 63.7157 305.841C65.0457 307.181 67.0557 309.201 68.1357 309.291C70.4557 309.481 78.2457 308.871 78.9257 308.051C78.3276 307.536 77.6528 307.118 76.9257 306.811C75.7257 306.191 74.6957 305.651 74.4957 304.951C74.1757 303.821 72.4057 297.401 72.4057 297.401C72.3646 297.268 72.3778 297.125 72.4425 297.002C72.5072 296.879 72.6181 296.787 72.7507 296.746C72.8833 296.705 73.0268 296.718 73.1496 296.783C73.2725 296.847 73.3646 296.958 73.4057 297.091C73.7857 298.091 75.0757 300.821 76.4657 301.291C77.0857 301.491 77.5857 301.461 77.7957 301.201C78.0057 300.941 78.0857 299.851 77.1557 298.151C76.1539 295.998 75.6253 293.655 75.6057 291.281C75.5955 290.607 75.5117 289.936 75.3557 289.281C74.9557 288.191 70.6157 283.481 69.8557 282.711C68.878 281.065 68.0288 279.347 67.3157 277.571L55.1657 277.851Z" fill="#263238"/>
<path d="M73.5012 307.88C73.4193 307.879 73.3388 307.859 73.2667 307.82C73.1945 307.781 73.1331 307.725 73.0877 307.657C73.0422 307.589 73.0142 307.51 73.0061 307.429C72.998 307.347 73.0101 307.265 73.0412 307.19C71.8051 306.767 70.5281 306.475 69.2312 306.32C68.3319 306.258 67.4495 306.045 66.6212 305.69C65.9412 305.18 64.6212 301.89 64.0512 300.5C64.0407 300.447 64.0407 300.392 64.0512 300.34C63.9752 298.418 64.2567 296.499 64.8812 294.68C65.7912 292.25 65.3412 287.41 65.3312 287.36C65.3253 287.294 65.3324 287.228 65.352 287.165C65.3717 287.102 65.4036 287.043 65.4458 286.993C65.4881 286.942 65.5399 286.9 65.5983 286.87C65.6567 286.839 65.7205 286.82 65.7862 286.815C65.8519 286.809 65.918 286.816 65.981 286.835C66.0439 286.855 66.1023 286.887 66.1529 286.929C66.2035 286.971 66.2453 287.023 66.2759 287.082C66.3065 287.14 66.3253 287.204 66.3312 287.27C66.3312 287.48 66.8112 292.39 65.8212 295.04C65.2593 296.704 64.9953 298.454 65.0412 300.21C65.6204 301.844 66.3642 303.415 67.2612 304.9C67.9749 305.088 68.6996 305.232 69.4312 305.33C72.4312 305.83 73.8812 306.15 74.1212 306.92C74.1631 307.062 74.1638 307.214 74.1231 307.358C74.0824 307.501 74.002 307.63 73.8912 307.73C73.8405 307.781 73.7795 307.82 73.7123 307.846C73.645 307.872 73.5731 307.883 73.5012 307.88Z" fill="#263238"/>
<path d="M145.595 446.259C145.595 446.259 149.755 449.419 151.735 450.609C153.715 451.799 162.215 452.609 162.815 454.169C163.415 455.729 161.915 457.239 161.085 457.979C160.255 458.719 154.305 460.979 149.755 460.499C148.161 460.42 146.563 460.555 145.005 460.899C143.625 461.099 133.925 462.279 129.775 462.679C125.625 463.079 124.625 459.679 124.425 455.559C124.225 451.439 124.425 446.649 124.425 446.649L141.045 444.279L145.595 446.259Z" fill="white"/>
<path d="M129.139 463.21C128.05 463.258 126.982 462.901 126.139 462.21C124.799 461.05 124.139 459.02 123.959 455.61C123.769 451.48 123.959 446.71 123.959 446.66C123.965 446.543 124.011 446.433 124.09 446.347C124.168 446.261 124.274 446.206 124.389 446.19L141.009 443.81C141.098 443.785 141.191 443.785 141.279 443.81L145.829 445.81L145.939 445.87C145.939 445.87 150.089 449.03 152.029 450.19C153.545 450.802 155.125 451.242 156.739 451.5C160.559 452.33 162.899 452.91 163.319 454.01C164.069 456.01 162.099 457.79 161.449 458.37C160.449 459.26 154.449 461.51 149.739 461.01C148.491 460.916 147.235 461 146.009 461.26L145.109 461.4C143.629 461.62 133.909 462.8 129.849 463.19L129.139 463.21ZM124.919 447.09C124.919 448.33 124.769 452.15 124.919 455.53C125.069 458.6 125.649 460.47 126.749 461.43C127.167 461.761 127.651 462 128.168 462.129C128.686 462.259 129.225 462.276 129.749 462.18C133.799 461.8 143.489 460.61 144.959 460.4C145.239 460.4 145.529 460.32 145.829 460.26C147.144 459.986 148.491 459.902 149.829 460.01C154.359 460.49 160.059 458.25 160.779 457.61C162.199 456.34 162.719 455.28 162.369 454.35C162.119 453.68 158.609 452.93 156.519 452.47C154.801 452.196 153.122 451.716 151.519 451.04C149.629 449.91 145.879 447.04 145.389 446.69L141.019 444.79L124.919 447.09Z" fill="#263238"/>
<path d="M151.17 457.87C147.6 457.64 145.06 458.56 135.26 459.02C131.778 459.282 128.278 459.168 124.82 458.68C125.4 461.25 126.74 462.97 129.82 462.68C133.97 462.28 143.67 461.1 145.05 460.9C146.609 460.555 148.206 460.421 149.8 460.5C154.35 460.99 160.22 458.8 161.13 457.98C162.042 457.278 162.687 456.287 162.96 455.17C159.84 457.21 154.02 458.05 151.17 457.87Z" fill="white"/>
<path d="M129.116 463.211C126.566 463.211 124.996 461.761 124.326 458.791C124.306 458.711 124.308 458.627 124.331 458.548C124.354 458.469 124.397 458.398 124.456 458.341C124.511 458.281 124.58 458.236 124.657 458.21C124.734 458.184 124.816 458.177 124.896 458.191C128.321 458.67 131.787 458.781 135.236 458.521C140.136 458.291 143.236 457.941 145.516 457.681C147.399 457.401 149.304 457.297 151.206 457.371C153.986 457.541 159.666 456.721 162.646 454.761C162.725 454.709 162.817 454.681 162.911 454.68C163.006 454.678 163.099 454.704 163.179 454.753C163.26 454.802 163.325 454.873 163.367 454.958C163.408 455.042 163.426 455.137 163.416 455.231C163.152 456.482 162.441 457.595 161.416 458.361C160.416 459.251 154.416 461.501 149.706 461.001C148.457 460.907 147.201 460.991 145.976 461.251L145.076 461.391C143.596 461.611 133.876 462.791 129.816 463.181L129.116 463.211ZM125.496 459.301C126.186 461.501 127.496 462.401 129.726 462.181C133.776 461.801 143.466 460.611 144.936 460.401C145.216 460.401 145.506 460.321 145.806 460.261C147.121 459.987 148.468 459.903 149.806 460.011C154.336 460.491 160.036 458.251 160.756 457.611C161.205 457.221 161.605 456.777 161.946 456.291C158.534 457.752 154.847 458.461 151.136 458.371C149.294 458.298 147.449 458.402 145.626 458.681C143.346 458.941 140.216 459.291 135.286 459.521C132.023 459.737 128.746 459.663 125.496 459.301Z" fill="#263238"/>
<path d="M80.8984 283.49C80.8984 283.49 85.2484 299.32 90.5984 313.17C95.9484 327.02 102.858 347.79 102.858 347.79L107.858 377.87C107.858 377.87 108.648 392.87 111.418 403.98C114.188 415.09 124.878 448.63 124.878 448.63C127.633 449.651 130.563 450.117 133.498 450C138.438 449.8 145.558 446.24 145.558 446.24C145.558 446.24 146.158 441.69 145.758 439.71C145.358 437.73 142.988 436.71 142.398 435.16C141.808 433.61 134.278 387.34 134.278 387.34C134.278 387.34 131.908 354.5 131.118 348.17C130.328 341.84 128.348 288.42 128.348 288.42L80.8984 283.49Z" fill="#263238"/>
<path d="M132.666 450.54C129.933 450.555 127.221 450.063 124.666 449.09C124.598 449.063 124.537 449.021 124.487 448.967C124.437 448.914 124.399 448.85 124.376 448.78C124.276 448.45 113.656 415.07 110.916 404.11C108.176 393.15 107.346 378.04 107.336 377.89L102.396 347.89C102.346 347.75 95.3963 327.04 90.1563 313.36C84.9163 299.68 80.4963 283.78 80.4163 283.62C80.3948 283.542 80.3927 283.461 80.4101 283.382C80.4275 283.304 80.464 283.231 80.5163 283.17C80.5679 283.108 80.6343 283.059 80.7095 283.03C80.7847 283 80.8661 282.99 80.9463 283L128.436 287.94C128.557 287.952 128.669 288.007 128.751 288.095C128.834 288.184 128.882 288.299 128.886 288.42C128.886 288.95 130.886 341.89 131.646 348.13C132.406 354.37 134.796 387 134.816 387.33C137.816 405.83 142.476 433.85 142.906 435C143.242 435.663 143.716 436.246 144.296 436.71C145.25 437.452 145.95 438.472 146.296 439.63C146.706 441.63 146.126 446.13 146.106 446.32C146.097 446.402 146.068 446.481 146.021 446.549C145.973 446.617 145.91 446.672 145.836 446.71C145.536 446.85 138.556 450.32 133.566 450.52L132.666 450.54ZM125.226 448.25C127.884 449.196 130.697 449.627 133.516 449.52C137.796 449.35 143.866 446.52 145.136 445.93C145.422 443.909 145.479 441.863 145.306 439.83C144.993 438.878 144.401 438.041 143.606 437.43C142.909 436.87 142.349 436.158 141.966 435.35C141.376 433.77 134.596 392.18 133.826 387.45C133.826 387.07 131.436 354.5 130.656 348.25C129.896 342.2 128.106 294.34 127.896 288.89L81.5763 284.07C82.4963 287.29 86.4263 301 91.0563 313C96.3463 326.7 103.266 347.44 103.336 347.65L108.336 377.8C108.336 378 109.166 392.97 111.896 403.87C114.496 414.32 124.286 445.28 125.226 448.25Z" fill="#263238"/>
<path d="M46.7205 421.23C46.7205 421.23 31.6305 424.15 27.8605 425.35C24.0905 426.55 24.0905 428.77 24.9505 432.89C25.8105 437.01 27.5205 439.06 28.2105 439.57C28.9005 440.08 29.4105 446.57 31.2905 450.71C33.1705 454.85 37.5005 463.06 41.4005 465.11C45.3005 467.16 49.6305 467.17 50.1505 466.48C50.6705 465.79 49.1505 461 49.1505 461L45.2105 448.31C45.2105 448.31 49.8005 435.8 50.5005 435.12C51.2005 434.44 54.6105 430.83 54.6105 430.83L46.7205 421.23Z" fill="white"/>
<path d="M48.1986 467.39C45.7572 467.315 43.3643 466.69 41.1986 465.56C36.7786 463.25 32.1986 453.77 30.8686 450.92C29.8413 448.342 29.097 445.659 28.6486 442.92C28.4995 441.898 28.2483 440.893 27.8986 439.92C27.0586 439.29 25.3486 437.08 24.4886 432.97C23.6786 429.08 23.4386 426.22 27.7386 424.85C31.4986 423.65 46.0386 420.85 46.6486 420.72C46.7365 420.703 46.8275 420.71 46.9119 420.74C46.9963 420.77 47.0712 420.822 47.1286 420.89L55.0186 430.49C55.0988 430.582 55.143 430.699 55.143 430.82C55.143 430.942 55.0988 431.059 55.0186 431.15C54.8686 431.3 51.5786 434.77 50.8886 435.45C50.3886 436.06 47.4986 443.59 45.7486 448.31L49.6486 460.83C50.3786 463.13 51.1486 466.03 50.5986 466.76C50.2604 467.019 49.874 467.208 49.462 467.317C49.0499 467.425 48.6205 467.45 48.1986 467.39ZM46.4986 421.78C44.3786 422.19 31.4086 424.78 27.9886 425.78C24.7586 426.78 24.5186 428.42 25.4186 432.78C26.2186 436.61 27.7686 438.63 28.4886 439.16C28.8986 439.47 29.0886 440.29 29.5786 442.73C30.0171 445.389 30.7378 447.994 31.7286 450.5C34.3486 456.22 38.3186 462.94 41.6186 464.66C45.5186 466.66 49.3186 466.52 49.7386 466.16C49.8886 465.75 49.2886 463.22 48.6186 461.16L44.6986 448.46C44.6636 448.357 44.6636 448.244 44.6986 448.14C45.7886 445.14 49.4186 435.47 50.1286 434.76C50.6786 434.21 53.0686 431.7 53.9286 430.81L46.4986 421.78Z" fill="#263238"/>
<path d="M41.3949 465.109C45.3949 467.169 49.6249 467.169 50.1449 466.479C50.285 466.016 50.285 465.522 50.1449 465.059C46.6449 464.889 40.7349 464.059 38.3049 460.309C35.2149 455.509 32.1349 445.229 30.7649 439.569C29.6949 435.169 28.5249 428.169 28.0549 425.279L27.8449 425.349C24.0749 426.549 24.0749 428.769 24.9349 432.889C25.7949 437.009 27.5049 439.059 28.1949 439.569C28.8849 440.079 29.3949 446.569 31.2749 450.709C33.1549 454.849 37.4949 463.059 41.3949 465.109Z" fill="white"/>
<path d="M48.1986 467.39C45.7572 467.316 43.3643 466.69 41.1986 465.56C36.7786 463.25 32.1986 453.77 30.8686 450.92C29.8413 448.342 29.097 445.66 28.6486 442.92C28.4995 441.898 28.2483 440.893 27.8986 439.92C27.0586 439.29 25.3486 437.08 24.4886 432.97C23.6786 429.08 23.4386 426.22 27.7386 424.85L27.9586 424.78C28.0272 424.76 28.0995 424.755 28.1703 424.765C28.2411 424.775 28.3088 424.801 28.3686 424.84C28.4871 424.919 28.5697 425.041 28.5986 425.18C29.0486 428 30.2286 435.04 31.2886 439.43C32.4986 444.43 35.6086 455.11 38.7686 460.02C40.9386 463.4 46.1886 464.34 50.2086 464.54C50.3233 464.546 50.4326 464.591 50.5182 464.667C50.6037 464.744 50.6604 464.847 50.6786 464.96C50.8386 465.96 50.8086 466.45 50.5786 466.76C50.3486 467.07 49.3886 467.39 48.1986 467.39ZM27.6686 425.94C24.7686 426.94 24.5686 428.62 25.4386 432.79C26.2386 436.62 27.7886 438.64 28.5086 439.17C28.9186 439.48 29.1086 440.3 29.5986 442.74C30.0371 445.399 30.7578 448.004 31.7486 450.51C34.3686 456.23 38.3386 462.95 41.6386 464.67C45.5186 466.67 49.2986 466.53 49.7586 466.17C49.7586 466.17 49.7586 466.01 49.7586 465.54C45.5586 465.28 40.2586 464.2 37.9386 460.54C34.7086 455.54 31.5486 444.68 30.3286 439.65C29.2786 435.54 28.1786 429.06 27.6686 425.94Z" fill="#263238"/>
<path d="M96.3281 287.841C96.3281 287.841 102.068 295.361 102.668 296.351C103.268 297.341 107.408 334.931 107.808 338.691C108.029 341.72 108.029 344.762 107.808 347.791C107.808 347.791 93.8981 361.671 84.7981 373.001C75.6981 384.331 46.0781 420.721 46.0781 420.721L59.0781 440.961C59.0781 440.961 75.3281 427.961 86.9781 416.831C105.418 399.261 122.768 380.681 123.978 379.691C125.188 378.701 133.168 370.221 133.758 367.851C134.348 365.481 140.698 332.211 142.878 321.531C145.058 310.851 148.018 281.961 148.018 281.961L93.6081 283.341" fill="#263238"/>
<path d="M59.0488 441.41H58.9688C58.8296 441.381 58.7074 441.299 58.6288 441.18L45.6288 420.94C45.5655 420.857 45.5312 420.755 45.5312 420.65C45.5312 420.545 45.5655 420.444 45.6288 420.36C45.9288 419.99 75.3488 383.78 84.3488 372.63C92.8888 362.05 105.809 349.03 107.259 347.57C107.476 344.634 107.476 341.686 107.259 338.75C106.579 332.26 102.749 298.07 102.169 296.57C101.729 295.85 97.8688 290.74 95.8888 288.15C95.8438 288.099 95.8098 288.039 95.7889 287.974C95.768 287.909 95.7607 287.84 95.7673 287.772C95.7739 287.704 95.7943 287.639 95.8274 287.579C95.8604 287.519 95.9053 287.467 95.9593 287.425C96.0134 287.383 96.0754 287.353 96.1415 287.336C96.2076 287.319 96.2765 287.316 96.3439 287.327C96.4113 287.338 96.4758 287.362 96.5334 287.399C96.591 287.436 96.6404 287.484 96.6788 287.54C96.9188 287.85 102.439 295.09 103.039 296.1C103.759 297.29 108.209 338.23 108.259 338.64C108.477 341.7 108.477 344.771 108.259 347.83C108.249 347.952 108.196 348.065 108.109 348.15C107.969 348.29 94.1088 362.15 85.1088 373.26C76.5288 383.89 49.3888 417.26 46.6088 420.71L59.0888 440.17C61.7488 438.02 76.0888 426.36 86.5188 416.41C99.7288 403.84 112.209 390.91 118.919 383.96C121.659 381.12 123.169 379.56 123.529 379.26C124.929 378.09 132.609 369.81 133.149 367.68C133.459 366.42 135.429 356.29 137.509 345.56C139.349 336.12 141.249 326.35 142.259 321.38C144.259 311.67 146.909 286.52 147.339 282.38L93.4988 283.75C93.4331 283.753 93.3675 283.743 93.3058 283.72C93.2441 283.697 93.1875 283.663 93.1392 283.618C93.0909 283.573 93.0519 283.52 93.0244 283.46C92.9968 283.4 92.9813 283.336 92.9788 283.27C92.9785 283.137 93.0292 283.009 93.1203 282.913C93.2114 282.816 93.3361 282.758 93.4688 282.75L147.879 281.37C147.95 281.365 148.022 281.377 148.088 281.405C148.154 281.433 148.212 281.476 148.259 281.53C148.309 281.581 148.346 281.643 148.369 281.71C148.391 281.778 148.398 281.85 148.389 281.92C148.389 282.21 145.389 310.92 143.239 321.54C142.239 326.54 140.329 336.27 138.499 345.71C136.409 356.45 134.439 366.6 134.109 367.88C133.459 370.49 125.109 379.19 124.169 379.99C123.849 380.25 122.079 382.08 119.639 384.61C112.929 391.61 100.429 404.51 87.2088 417.1C75.6788 428.1 59.4488 441.1 59.2788 441.26C59.2201 441.333 59.1395 441.386 59.0488 441.41Z" fill="#263238"/>
<path d="M108.707 147C108.707 147 99.0873 152.07 94.0173 154.54C88.9473 157.01 72.0173 162.09 70.3373 164.82C68.6573 167.55 68.9073 171.82 68.9073 171.82C68.9073 171.82 52.3073 217.52 51.9073 225.49C51.5073 233.46 53.1273 278.81 53.1273 278.81C53.1273 278.81 54.3573 280.64 60.8973 280.44C67.4373 280.24 70.0873 279.01 70.0873 279.01C70.0873 279.01 73.3573 233.25 73.9673 230.59C74.3656 228.911 74.9145 227.271 75.6073 225.69L82.7473 211.39C82.7473 211.39 85.2073 226.1 85.2073 226.71C85.2073 227.32 71.7173 282.48 71.7173 282.48C71.7173 282.48 71.7173 286.16 95.6173 289.48C119.517 292.8 140.357 294.79 141.377 294.79C142.397 294.79 147.917 285.6 147.917 285.6C147.917 285.6 149.347 290.7 148.917 291.32C148.487 291.94 153.007 290.32 154.027 289.48L158.107 286.21C158.107 286.21 151.777 251.07 151.777 248.42C151.777 245.77 153.417 236.16 153.417 236.16L177.107 279.47C177.107 279.47 177.107 280.08 182.827 276.81C186 275.077 188.892 272.876 191.407 270.28L172.207 223.09C172.207 223.09 167.717 170.99 167.307 168.34C166.897 165.69 167.917 165.07 165.467 163.84C163.017 162.61 151.757 160.29 151.757 160.29C151.757 160.29 133.217 153.19 126.257 151.06C119.297 148.93 108.707 147 108.707 147Z" fill="#4ABCEB"/>
<path d="M141.369 295.29C140.179 295.29 118.799 293.15 95.549 289.97C72.299 286.79 71.209 283.22 71.209 282.53C71.2041 282.49 71.2041 282.45 71.209 282.41C75.799 263.62 84.529 227.78 84.679 226.72C84.679 226.26 83.439 218.77 82.479 213.04L76.039 226C75.389 227.539 74.8737 229.132 74.499 230.76C73.899 233.34 70.659 278.64 70.629 279.09C70.6239 279.18 70.5941 279.267 70.543 279.341C70.4918 279.415 70.4212 279.474 70.339 279.51C70.229 279.57 67.519 280.78 60.949 280.99C54.379 281.2 52.949 279.34 52.759 279.13C52.707 279.053 52.676 278.963 52.669 278.87C52.669 278.42 51.039 233.41 51.449 225.51C51.859 217.61 67.399 174.71 68.449 171.8C68.449 171.09 68.329 167.21 69.959 164.58C71.059 162.8 77.049 160.5 85.379 157.44C88.829 156.17 92.089 154.97 93.839 154.12C98.839 151.68 108.419 146.64 108.519 146.58C108.622 146.541 108.736 146.541 108.839 146.58C108.949 146.58 119.549 148.51 126.459 150.58C133.369 152.65 151.799 159.76 151.989 159.83C152.369 159.9 163.259 162.16 165.739 163.4C167.659 164.4 167.739 165.11 167.739 166.47C167.728 167.069 167.765 167.667 167.849 168.26C168.249 170.88 172.489 219.95 172.749 222.97L191.929 270.09C191.962 270.175 191.971 270.268 191.955 270.358C191.939 270.448 191.899 270.531 191.839 270.6C189.292 273.248 186.355 275.491 183.129 277.25C177.679 280.36 177.209 280.09 176.929 279.93C176.845 279.874 176.776 279.799 176.729 279.71L153.729 237.71C153.279 240.48 152.339 246.48 152.339 248.46C152.339 250.44 156.479 274.02 158.669 286.16C158.683 286.249 158.674 286.34 158.642 286.424C158.611 286.508 158.558 286.583 158.489 286.64L154.399 289.91C153.809 290.38 149.399 292.49 148.629 291.83C148.563 291.786 148.507 291.729 148.465 291.663C148.422 291.596 148.394 291.522 148.381 291.444C148.369 291.366 148.373 291.286 148.394 291.21C148.414 291.133 148.45 291.062 148.499 291C148.387 289.583 148.122 288.181 147.709 286.82C144.329 292.46 142.189 295.29 141.369 295.29ZM72.219 282.55C72.369 282.83 74.409 286.07 95.679 288.98C119.789 292.28 140.449 294.29 141.369 294.29C141.979 293.99 144.989 289.5 147.479 285.29C147.53 285.206 147.605 285.139 147.693 285.096C147.782 285.054 147.881 285.038 147.979 285.05C148.075 285.063 148.166 285.104 148.239 285.168C148.312 285.232 148.364 285.316 148.389 285.41C148.962 287.169 149.331 288.987 149.489 290.83C150.974 290.421 152.4 289.82 153.729 289.04L157.579 285.95C156.929 282.33 151.289 250.95 151.289 248.37C151.289 245.79 152.869 236.42 152.929 236.03C152.946 235.928 152.995 235.833 153.068 235.76C153.142 235.686 153.236 235.637 153.339 235.62C153.441 235.6 153.547 235.613 153.641 235.658C153.735 235.703 153.811 235.778 153.859 235.87L177.419 279C179.223 278.304 180.954 277.433 182.589 276.4C185.612 274.72 188.388 272.631 190.839 270.19L171.759 223.29C171.753 223.244 171.753 223.197 171.759 223.15C171.759 222.63 167.259 171.04 166.859 168.44C166.766 167.778 166.726 167.109 166.739 166.44C166.739 165.3 166.739 165 165.299 164.27C162.929 163.09 151.819 160.79 151.709 160.76C151.439 160.67 133.029 153.62 126.169 151.52C119.789 149.57 110.219 147.78 108.829 147.52C107.579 148.18 98.949 152.71 94.269 154.99C92.479 155.87 89.199 157.07 85.719 158.35C79.849 160.5 71.819 163.45 70.809 165.08C69.219 167.65 69.449 171.77 69.449 171.81C69.4594 171.876 69.4594 171.944 69.449 172.01C69.289 172.47 52.869 217.73 52.449 225.53C52.059 233.13 53.559 275.48 53.669 278.63C54.019 278.94 55.669 280.13 60.919 279.96C63.8767 279.973 66.8195 279.542 69.649 278.68C69.969 274.3 72.929 233.08 73.519 230.5C73.9257 228.787 74.4846 227.114 75.189 225.5L82.349 211.18C82.3962 211.086 82.4719 211.01 82.5653 210.961C82.6586 210.913 82.7649 210.895 82.869 210.91C82.9727 210.927 83.0687 210.975 83.1438 211.049C83.219 211.122 83.2697 211.217 83.289 211.32C83.699 213.78 85.749 226.1 85.749 226.72C85.749 227.34 75.419 269.48 72.219 282.55Z" fill="#263238"/>
<path d="M82.75 211.439L76 175.279L78.86 218.389L82.75 211.439Z" fill="#263238"/>
<path d="M78.8606 218.891H78.7506C78.6459 218.864 78.552 218.806 78.4821 218.723C78.4122 218.641 78.3697 218.538 78.3606 218.431L75.5006 175.321C75.4944 175.193 75.5362 175.068 75.6176 174.97C75.699 174.872 75.8143 174.808 75.9406 174.791C76.067 174.776 76.1946 174.808 76.2982 174.882C76.4019 174.956 76.4741 175.066 76.5006 175.191L83.2406 211.351C83.2607 211.468 83.2395 211.588 83.1806 211.691L79.3006 218.631C79.2566 218.709 79.1928 218.774 79.1155 218.82C79.0383 218.866 78.9503 218.89 78.8606 218.891ZM77.0606 183.691L79.2506 216.691L82.2506 211.381L77.0606 183.691Z" fill="#263238"/>
<path d="M117.06 201.319C116.987 201.319 116.915 201.303 116.849 201.272C116.784 201.241 116.726 201.196 116.68 201.139C115.603 199.844 114.671 198.436 113.9 196.939C113.856 196.825 113.856 196.699 113.9 196.584C113.943 196.47 114.027 196.375 114.136 196.319C114.244 196.262 114.369 196.247 114.488 196.277C114.607 196.306 114.711 196.378 114.78 196.479C115.521 197.904 116.412 199.245 117.44 200.479C117.486 200.525 117.523 200.579 117.549 200.639C117.574 200.7 117.587 200.764 117.587 200.829C117.587 200.894 117.574 200.959 117.549 201.019C117.523 201.079 117.486 201.134 117.44 201.179C117.389 201.227 117.329 201.264 117.264 201.288C117.199 201.312 117.129 201.323 117.06 201.319Z" fill="#263238"/>
<path d="M113.381 195.209C113.284 195.21 113.188 195.181 113.106 195.128C113.025 195.075 112.96 194.999 112.921 194.909C108.251 184.359 107.781 169.519 107.781 169.369C107.78 169.304 107.792 169.238 107.816 169.177C107.839 169.116 107.875 169.06 107.921 169.013C107.966 168.966 108.021 168.928 108.081 168.901C108.141 168.875 108.206 168.861 108.271 168.859C108.402 168.862 108.528 168.913 108.622 169.004C108.717 169.095 108.774 169.218 108.781 169.349C108.781 169.489 109.251 184.129 113.781 194.509C113.81 194.569 113.825 194.634 113.828 194.699C113.831 194.765 113.82 194.831 113.797 194.893C113.773 194.954 113.738 195.01 113.692 195.058C113.647 195.106 113.592 195.143 113.531 195.169C113.484 195.19 113.433 195.204 113.381 195.209Z" fill="#263238"/>
<path d="M110.321 194.579C110.234 194.579 110.149 194.555 110.073 194.512C109.998 194.468 109.935 194.405 109.891 194.329C107.586 190.252 105.85 185.878 104.731 181.329C104.717 181.265 104.715 181.198 104.726 181.133C104.737 181.068 104.761 181.006 104.796 180.95C104.832 180.894 104.878 180.846 104.932 180.808C104.986 180.77 105.047 180.743 105.111 180.729C105.175 180.715 105.241 180.713 105.306 180.724C105.37 180.735 105.432 180.759 105.487 180.795C105.541 180.83 105.589 180.876 105.626 180.93C105.663 180.984 105.688 181.045 105.701 181.109C106.8 185.564 108.502 189.847 110.761 193.839C110.824 193.955 110.838 194.091 110.803 194.217C110.768 194.344 110.685 194.452 110.571 194.519C110.496 194.563 110.409 194.584 110.321 194.579Z" fill="#263238"/>
<path d="M105.371 243.049C105.259 243.047 105.151 243.009 105.063 242.94C104.974 242.872 104.911 242.777 104.881 242.669C104.85 242.54 104.872 242.403 104.941 242.289C105.01 242.175 105.121 242.092 105.251 242.059C113.181 240.059 123.331 237.599 128.851 236.409C126.281 236.529 122.691 236.789 119.351 237.069C119.218 237.08 119.087 237.037 118.985 236.951C118.884 236.865 118.821 236.742 118.811 236.609C118.8 236.477 118.842 236.345 118.929 236.244C119.015 236.143 119.138 236.08 119.271 236.069C132.911 234.919 132.971 235.359 133.051 235.909C133.131 236.459 132.641 236.659 130.651 237.059C125.751 238.059 114.261 240.849 105.491 243.059L105.371 243.049Z" fill="#263238"/>
<path d="M95.8214 245.439C95.7557 245.447 95.6892 245.442 95.6255 245.424C95.5618 245.406 95.5023 245.376 95.4503 245.335C95.3983 245.294 95.3548 245.243 95.3224 245.186C95.29 245.128 95.2693 245.065 95.2614 244.999C95.2535 244.933 95.2587 244.867 95.2765 244.803C95.2943 244.739 95.3246 244.68 95.3654 244.628C95.4063 244.576 95.457 244.532 95.5146 244.5C95.5723 244.468 95.6357 244.447 95.7014 244.439L100.011 243.349C100.14 243.319 100.275 243.341 100.388 243.41C100.5 243.48 100.581 243.591 100.611 243.719C100.628 243.782 100.631 243.848 100.622 243.912C100.613 243.977 100.591 244.039 100.557 244.095C100.524 244.151 100.48 244.199 100.427 244.238C100.374 244.276 100.315 244.304 100.251 244.319L95.9414 245.409L95.8214 245.439Z" fill="#263238"/>
<path d="M153.431 236.159C153.431 236.159 148.731 228.399 148.321 226.559C147.911 224.719 144.641 204.699 144.641 204.699C144.641 204.699 146.891 236.569 147.711 240.859C148.377 243.696 149.785 246.305 151.791 248.419L153.431 236.159Z" fill="#263238"/>
<path d="M151.786 248.919C151.721 248.92 151.656 248.907 151.596 248.881C151.535 248.856 151.481 248.817 151.436 248.769C149.353 246.589 147.895 243.888 147.216 240.949C146.396 236.679 144.216 206.039 144.136 204.739C144.129 204.674 144.134 204.607 144.152 204.543C144.169 204.48 144.2 204.42 144.24 204.368C144.281 204.316 144.332 204.273 144.39 204.24C144.447 204.208 144.511 204.187 144.576 204.179C144.642 204.171 144.709 204.177 144.772 204.194C144.836 204.212 144.896 204.243 144.948 204.283C145 204.324 145.043 204.375 145.075 204.433C145.108 204.49 145.129 204.554 145.136 204.619C145.136 204.819 148.406 224.619 148.806 226.449C149.126 227.889 152.556 233.759 153.806 235.899C153.869 235.997 153.894 236.115 153.876 236.229L152.246 248.479C152.233 248.572 152.194 248.66 152.134 248.732C152.074 248.805 151.995 248.859 151.906 248.889C151.868 248.905 151.828 248.915 151.786 248.919ZM145.946 215.739C146.676 225.379 147.706 238.189 148.196 240.739C148.739 243.132 149.851 245.358 151.436 247.229L152.906 236.229C152.226 235.099 148.226 228.399 147.826 226.629C147.626 225.779 146.786 220.749 145.946 215.739Z" fill="#263238"/>
<path d="M143.421 200.71C143.307 200.711 143.196 200.673 143.107 200.602C143.018 200.531 142.956 200.432 142.931 200.32C142.931 200.32 142.541 198.63 142.101 196.08C142.09 196.015 142.092 195.948 142.106 195.883C142.121 195.818 142.149 195.756 142.187 195.702C142.226 195.648 142.275 195.601 142.331 195.566C142.387 195.531 142.45 195.507 142.516 195.495C142.582 195.484 142.649 195.486 142.714 195.501C142.779 195.516 142.84 195.543 142.894 195.582C142.949 195.62 142.995 195.669 143.03 195.726C143.066 195.782 143.09 195.845 143.101 195.91C143.541 198.43 143.921 200.08 143.921 200.09C143.937 200.154 143.941 200.221 143.931 200.286C143.921 200.351 143.898 200.413 143.863 200.469C143.829 200.525 143.783 200.573 143.73 200.611C143.676 200.65 143.615 200.676 143.551 200.69L143.421 200.71Z" fill="#263238"/>
<path d="M142.107 193.479C141.986 193.478 141.87 193.435 141.778 193.356C141.687 193.277 141.626 193.169 141.607 193.049C140.741 187.702 140.496 182.273 140.877 176.869C141.877 166.629 150.147 164.399 150.237 164.379C150.301 164.363 150.367 164.359 150.432 164.368C150.497 164.377 150.56 164.399 150.617 164.433C150.673 164.466 150.723 164.51 150.762 164.563C150.802 164.616 150.831 164.676 150.847 164.739C150.878 164.868 150.857 165.003 150.79 165.117C150.723 165.231 150.614 165.314 150.487 165.349C150.177 165.429 142.837 167.439 141.867 176.969C141.502 182.293 141.747 187.641 142.597 192.909C142.614 193.04 142.58 193.173 142.502 193.279C142.424 193.385 142.307 193.457 142.177 193.479H142.107Z" fill="#263238"/>
<path d="M140.958 191.31C140.859 191.309 140.763 191.278 140.682 191.223C140.6 191.168 140.536 191.091 140.497 191C139.296 186.278 138.605 181.44 138.438 176.57C138.438 176.438 138.49 176.311 138.584 176.217C138.678 176.123 138.805 176.07 138.938 176.07C139.07 176.07 139.197 176.123 139.291 176.217C139.385 176.311 139.438 176.438 139.438 176.57C139.598 181.351 140.268 186.102 141.438 190.74C141.457 190.803 141.464 190.87 141.458 190.935C141.451 191.001 141.431 191.065 141.4 191.123C141.368 191.181 141.325 191.232 141.273 191.272C141.221 191.313 141.161 191.343 141.098 191.36L140.958 191.31Z" fill="#263238"/>
<path d="M215.065 282.659C215.065 282.659 174.745 303.749 173.495 305.279C172.245 306.809 173.035 309.279 173.345 310.359C173.655 311.439 183.345 350.989 184.575 351.599C185.805 352.209 189.655 350.219 189.655 350.219C189.655 350.219 193.965 352.829 195.035 352.369C196.105 351.909 232.585 329.289 234.585 327.439C236.585 325.589 236.435 324.209 235.815 322.829C235.195 321.449 225.815 300.359 225.815 300.359C226.107 299.909 226.299 299.401 226.379 298.869C226.458 298.338 226.423 297.796 226.275 297.279C225.665 295.899 220.585 285.739 219.505 284.199C218.425 282.659 219.065 280.999 215.065 282.659Z" fill="#969696"/>
<path d="M194.77 352.919C193.42 352.919 190.95 351.559 189.66 350.789C188.66 351.309 185.66 352.679 184.38 352.049C183.75 351.729 182.38 348.499 173.66 313.579C173.22 311.799 172.93 310.669 172.89 310.499V310.379C172.54 309.169 171.82 306.659 173.17 304.969C174.52 303.279 210.74 284.379 214.88 282.219C217.95 280.929 218.74 281.389 219.46 282.999C219.592 283.328 219.756 283.643 219.95 283.939C221.06 285.519 226.14 295.689 226.77 297.099C226.952 297.644 227.013 298.222 226.951 298.793C226.889 299.365 226.705 299.916 226.41 300.409L236.31 322.639C236.92 324.019 237.24 325.719 234.96 327.829C232.96 329.649 196.69 352.239 195.27 352.829C195.112 352.893 194.941 352.923 194.77 352.919ZM189.68 349.719C189.772 349.717 189.862 349.742 189.94 349.789C192.12 351.109 194.42 352.109 194.87 351.909C196.35 351.239 232.47 328.739 234.27 327.079C236.07 325.419 235.89 324.159 235.38 323.029C234.77 321.639 225.38 300.559 225.38 300.559C225.341 300.487 225.32 300.406 225.32 300.324C225.32 300.242 225.341 300.161 225.38 300.089C225.626 299.708 225.791 299.281 225.863 298.833C225.935 298.386 225.914 297.928 225.8 297.489C225.19 296.109 220.13 285.989 219.08 284.489C218.846 284.144 218.648 283.775 218.49 283.389C218.07 282.439 217.88 281.999 215.24 283.119C199.19 291.509 174.95 304.409 173.87 305.599C172.79 306.789 173.47 309.059 173.77 310.099V310.219C173.82 310.399 174.1 311.539 174.55 313.329C180.55 337.179 183.97 349.909 184.81 351.179C185.51 351.409 187.68 350.649 189.37 349.769C189.465 349.717 189.574 349.699 189.68 349.719Z" fill="#263238"/>
<path d="M173.365 310.36C173.665 311.44 183.365 350.99 184.595 351.6C185.825 352.21 189.675 350.22 189.675 350.22C189.675 350.22 193.765 352.7 194.965 352.39C191.965 344.49 180.315 313.5 178.285 308.39C176.565 304.03 174.755 304.46 173.945 304.96L173.615 305.22H173.565C172.285 306.82 173.055 309.28 173.365 310.36Z" fill="#263238"/>
<path d="M194.76 352.909C193.39 352.909 190.76 351.45 189.66 350.79C188.66 351.31 185.66 352.679 184.38 352.049C183.75 351.729 182.38 348.499 173.66 313.579C173.22 311.799 172.93 310.669 172.89 310.499V310.379C172.54 309.169 171.82 306.659 173.17 304.969L173.25 304.879L173.33 304.809C173.42 304.729 173.55 304.639 173.71 304.519C174.002 304.327 174.333 304.202 174.68 304.156C175.026 304.109 175.378 304.141 175.71 304.249C176.87 304.629 177.91 305.949 178.79 308.179C180.03 311.319 184.85 324.109 189.11 335.399C191.82 342.579 194.29 349.139 195.47 352.209C195.493 352.276 195.503 352.347 195.497 352.418C195.492 352.488 195.473 352.557 195.44 352.62C195.407 352.683 195.362 352.738 195.307 352.783C195.252 352.827 195.188 352.86 195.12 352.879C195.002 352.902 194.881 352.912 194.76 352.909ZM189.68 349.719C189.772 349.718 189.862 349.742 189.94 349.79C191.285 350.62 192.721 351.291 194.22 351.79C192.97 348.49 190.65 342.36 188.14 335.7C183.89 324.42 179.06 311.629 177.83 308.489C176.83 306.079 175.96 305.34 175.37 305.14C175.178 305.079 174.975 305.063 174.776 305.092C174.577 305.122 174.387 305.196 174.22 305.309C174.124 305.37 174.033 305.441 173.95 305.519C172.89 306.829 173.51 309.009 173.81 310.049V310.17C173.86 310.35 174.14 311.489 174.59 313.279C180.59 337.129 184.01 349.859 184.85 351.129C185.55 351.359 187.72 350.599 189.41 349.719C189.498 349.692 189.592 349.692 189.68 349.719Z" fill="#263238"/>
<path d="M185.678 326.71C185.571 326.71 185.466 326.675 185.379 326.61C185.293 326.545 185.23 326.454 185.2 326.351C185.17 326.247 185.173 326.137 185.211 326.036C185.249 325.935 185.318 325.848 185.408 325.79L224.648 301.17C224.704 301.134 224.766 301.109 224.831 301.097C224.896 301.086 224.963 301.088 225.028 301.103C225.092 301.117 225.153 301.145 225.206 301.184C225.26 301.224 225.305 301.273 225.338 301.33C225.374 301.385 225.399 301.446 225.41 301.51C225.422 301.575 225.42 301.641 225.405 301.705C225.39 301.768 225.362 301.828 225.323 301.881C225.284 301.933 225.235 301.977 225.178 302.01L185.938 326.63C185.863 326.685 185.772 326.713 185.678 326.71Z" fill="#263238"/>
<path d="M203.828 312.671L206.598 317.441L210.598 314.521L207.988 310.051L203.828 312.671Z" fill="white"/>
<path d="M206.601 317.94H206.501C206.432 317.924 206.367 317.895 206.311 317.854C206.254 317.813 206.206 317.76 206.171 317.7L203.401 312.93C203.337 312.818 203.32 312.685 203.351 312.56C203.383 312.436 203.462 312.328 203.571 312.26L207.721 309.64C207.839 309.571 207.978 309.55 208.111 309.58C208.176 309.594 208.237 309.622 208.29 309.662C208.343 309.702 208.388 309.752 208.421 309.81L211.041 314.27C211.104 314.377 211.125 314.505 211.099 314.627C211.073 314.749 211.002 314.857 210.901 314.93L206.901 317.85C206.814 317.913 206.708 317.945 206.601 317.94ZM204.511 312.84L206.761 316.71L209.951 314.38L207.821 310.75L204.511 312.84Z" fill="#263238"/>
</svg>
