<svg width="28" height="28" viewBox="0 0 28 28" fill="none" xmlns="http://www.w3.org/2000/svg">
<path fill-rule="evenodd" clip-rule="evenodd" d="M0.142451 7.57241C-0.17184 6.06296 -0.0670759 5.96233 1.50438 5.25792C5.38064 3.54721 9.15213 1.93713 12.9236 0.226418C13.657 -0.0754723 14.2856 -0.0754723 15.0189 0.226418C18.7904 1.93713 22.5619 3.54721 26.4381 5.15729C28.1144 5.8617 28.1144 5.8617 27.9048 7.77367C27.5905 7.8743 27.2763 7.97493 26.962 7.97493C26.6477 9.28312 26.6477 9.28312 25.0762 9.28312C17.4285 9.28312 9.88548 9.28312 2.23773 9.28312C1.50438 9.28312 1.08533 9.28312 1.08533 8.37745C1.08532 8.17619 0.561506 7.97493 0.142451 7.57241Z" fill="#FF5900"/>
<path fill-rule="evenodd" clip-rule="evenodd" d="M0.0390625 28.0015C0.0390625 27.2971 0.0390625 26.7939 0.0390625 26.0895C1.19146 26.1902 1.29623 25.4857 1.19146 24.5801C1.71528 24.5801 2.02957 24.5801 2.44863 24.5801C10.0964 24.5801 17.6394 24.5801 25.2871 24.5801C26.7538 24.5801 26.7538 24.5801 26.9633 25.8883C27.2776 25.9889 27.4872 25.9889 27.9062 26.0895C27.9062 26.6933 27.9062 27.2971 27.9062 27.9009C18.5822 28.0015 9.36303 28.0015 0.0390625 28.0015Z" fill="#FF5900"/>
<path fill-rule="evenodd" clip-rule="evenodd" d="M25.5958 21.8616C26.0149 24.0755 26.0149 24.0755 23.7101 24.0755C22.5577 24.0755 21.51 24.0755 20.3576 24.0755C19.7291 24.0755 19.5195 23.8742 19.5195 23.2704C19.5195 22.7673 19.5195 22.2641 19.5195 21.761C19.9386 21.6603 20.1481 21.6603 20.4624 21.6603C20.4624 21.4591 20.5672 21.2578 20.5672 21.1572C20.5672 18.1383 20.5672 15.22 20.5672 12.2011C20.5672 11.8992 20.0433 11.5973 19.8338 11.1948C19.7291 11.1948 19.6243 11.2955 19.5195 11.2955C19.5195 10.9936 19.5195 10.591 19.5195 10.0879C20.4624 10.0879 21.4053 10.0879 22.2434 10.0879C22.9767 10.0879 23.7101 10.0879 24.4434 10.0879C25.5958 10.0879 25.5958 10.0879 25.4911 11.2955C24.4434 11.1948 24.4434 12.6036 24.4434 12.6036C24.4434 12.6036 24.4434 17.937 24.4434 20.5534C24.5482 21.3584 24.653 21.9622 25.5958 21.8616Z" fill="#2D017C"/>
<path fill-rule="evenodd" clip-rule="evenodd" d="M2.23828 21.7609C3.18116 21.8615 3.39068 21.459 3.39068 20.7546C3.39068 17.9369 3.39068 15.2199 3.39068 12.4023C3.39068 11.9998 3.49545 11.4966 2.7621 11.4966C2.65733 11.4966 2.34304 11.0941 2.34304 10.7922C2.34304 10.591 2.65733 10.2891 2.86686 10.2891C4.64785 10.2891 6.5336 10.2891 8.41934 10.2891C8.41934 10.6916 8.41934 11.0941 8.41934 11.4966C8.10505 11.4966 7.79076 11.5973 7.47647 11.6979C7.47647 15.0187 7.47647 18.3395 7.47647 21.7609C7.79076 21.8615 8.10505 21.8615 8.41934 21.9622C8.41934 22.0628 8.52411 22.0628 8.52411 22.1634C8.62887 24.176 8.62887 24.176 6.5336 24.176C5.48596 24.176 4.33356 24.176 3.28592 24.176C2.65734 24.176 2.34305 23.9748 2.44781 23.371C2.34304 22.8678 2.23828 22.3647 2.23828 21.7609Z" fill="#2D017C"/>
<path fill-rule="evenodd" clip-rule="evenodd" d="M10.9329 11.4966C10.9329 11.0941 10.9329 10.6916 10.9329 10.2891C12.9234 10.2891 14.9139 10.2891 16.9044 10.2891C16.9044 10.6916 16.9044 10.9935 16.9044 11.4966C15.9615 11.396 15.8568 11.9998 15.8568 12.8048C15.8568 15.5218 15.8568 18.1382 15.8568 20.8552C15.8568 21.1571 15.8568 21.459 15.8568 21.8615C16.2758 21.9621 16.5901 21.9621 16.7997 22.0628C17.2187 24.2766 17.1139 24.2766 14.9139 24.2766C13.552 24.2766 12.2948 24.2766 10.8281 24.2766C10.8281 23.4716 10.8281 22.8678 10.8281 22.0628C11.9805 22.1634 11.8758 21.3584 11.8758 20.6539C11.8758 18.0376 11.8758 15.3206 11.8758 12.7042C11.9805 11.7985 11.8758 11.396 10.9329 11.4966Z" fill="#2D017C"/>
</svg>
