<svg width="30" height="30" viewBox="0 0 30 30" fill="none" xmlns="http://www.w3.org/2000/svg">
<circle cx="15" cy="15" r="14" fill="white" stroke="#FF5900" stroke-width="2"/>
<path d="M13.2507 15.0697C10.8129 15.0697 8.79297 13.0498 8.79297 10.612C8.79297 8.1742 10.8129 6.1543 13.2507 6.1543C15.6885 6.1543 17.7084 8.1742 17.7084 10.612C17.7084 13.0498 15.6885 15.0697 13.2507 15.0697Z" fill="#2D017C"/>
<path d="M21.0465 19.8754C21.1162 20.154 20.9072 20.4326 20.6286 20.4326H5.93209C5.44453 20.4326 5.16593 20.2933 5.37488 19.4575C5.65349 17.9252 6.83757 15.557 8.02165 14.4426C8.2306 14.2336 8.57886 14.3033 8.71816 14.5122C9.76294 16.1142 11.2953 16.4625 13.1062 16.4625C14.8475 16.4625 16.5192 16.1142 17.5639 14.5122C17.7032 14.3033 18.0515 14.2336 18.2604 14.4426C20.0017 15.9749 20.8376 18.761 21.0465 19.8754Z" fill="#2D017C"/>
<path d="M16.7308 11.3789C16.7308 12.9809 15.1288 14.2346 13.2482 14.2346C11.3676 14.2346 9.76562 12.9809 9.76562 11.3789" fill="white"/>
<path fill-rule="evenodd" clip-rule="evenodd" d="M22.144 23.9149H21.9119C21.7571 23.9149 21.6797 23.8453 21.6797 23.706V18.7607C21.6797 18.6214 21.7571 18.5518 21.9119 18.5518H22.144C22.2988 18.5518 22.3762 18.6214 22.3762 18.7607V23.706C22.3762 23.8453 22.2214 23.9149 22.144 23.9149Z" fill="#FF5900"/>
<path fill-rule="evenodd" clip-rule="evenodd" d="M24.6718 21.1521V21.3843C24.6718 21.5391 24.6021 21.6164 24.4628 21.6164H19.5175C19.3782 21.6164 19.3086 21.5391 19.3086 21.3843V21.1521C19.3086 20.9973 19.3782 20.9199 19.5175 20.9199H24.4628C24.6021 20.9199 24.6718 20.9973 24.6718 21.1521Z" fill="#FF5900"/>
</svg>
