<svg width="36" height="28" viewBox="0 0 36 28" fill="none" xmlns="http://www.w3.org/2000/svg">
<path fill-rule="evenodd" clip-rule="evenodd" d="M26.2346 7.25584C25.8524 7.38837 25.4702 7.52089 25.2155 7.52089C17.9544 7.52089 10.8207 7.52089 3.55968 7.52089C3.3049 7.52089 3.05013 7.25584 2.66797 7.12331C2.79536 6.85826 2.92274 6.59321 3.17752 6.46068C6.74435 4.34025 10.3112 2.21982 13.878 0.0993961C14.1328 -0.0331312 14.3876 -0.0331312 14.6423 0.0993961C15.1519 0.231923 15.5341 0.629502 16.0436 0.894557C19.1009 2.74993 22.1582 4.6053 25.2155 6.32815C25.5976 6.46068 25.8524 6.72573 26.1072 6.99079C26.2346 7.12331 26.2346 7.25584 26.2346 7.25584Z" fill="#FF5900"/>
<path fill-rule="evenodd" clip-rule="evenodd" d="M22.0339 27.5324C22.2887 26.6047 22.4161 25.8096 22.5435 25.0144C22.5435 24.6168 22.4161 24.0867 22.2887 23.6892C21.5244 22.3639 21.5244 19.1832 22.4161 17.858C22.5435 17.5929 22.6709 17.3279 22.9256 17.0628C24.9638 13.7497 29.295 12.822 32.4797 14.6773C36.5561 16.9303 37.0656 22.6289 34.1357 25.6771C32.0975 27.7975 29.5498 28.5926 26.7473 27.5324C25.6008 27.1349 24.4543 27.1349 23.3078 27.3999C23.053 27.3999 22.6709 27.3999 22.0339 27.5324ZM28.9053 14.9423C25.5932 14.9423 23.0455 17.4603 23.0455 20.7734C23.0455 24.0866 25.5932 26.6046 28.7779 26.7371C31.8352 26.8697 34.7651 24.2191 34.8925 20.906C34.8925 17.4603 31.8352 14.8097 28.9053 14.9423Z" fill="#FF5900"/>
<path fill-rule="evenodd" clip-rule="evenodd" d="M21.5284 25.6761C21.401 26.3387 21.401 26.8688 21.2736 27.5315C21.1463 28.0616 20.7641 27.9291 20.3819 27.9291C16.3056 27.9291 12.1018 27.9291 8.02539 27.9291C5.85981 27.9291 3.82161 27.9291 1.65603 27.9291C1.27387 27.9291 0.89171 27.9291 0.636936 27.7965C0.382162 27.5315 0 27.1339 0 26.8688C0 26.4713 0.382162 26.0737 0.636936 25.8086C0.764323 25.6761 1.14648 25.6761 1.40126 25.6761C7.898 25.6761 14.2674 25.6761 20.7641 25.6761C21.1463 25.5436 21.2736 25.6761 21.5284 25.6761Z" fill="#FF5900"/>
<path fill-rule="evenodd" clip-rule="evenodd" d="M5.98828 14.9414C5.98828 13.086 5.98828 11.2306 5.98828 9.50777C5.98828 8.84513 6.24306 8.58008 6.87999 8.58008C7.51693 8.58008 8.28125 8.58008 8.91819 8.58008C9.42773 8.58008 9.68251 8.71261 9.68251 9.37524C9.68251 13.086 9.68251 16.7967 9.68251 20.64C9.68251 21.1701 9.42773 21.4352 8.91819 21.4352C8.15386 21.4352 7.51693 21.4352 6.7526 21.4352C6.24306 21.4352 5.98828 21.1701 5.98828 20.64C5.98828 18.6521 5.98828 16.7967 5.98828 14.9414Z" fill="#2D017C"/>
<path fill-rule="evenodd" clip-rule="evenodd" d="M12.6172 14.9414C12.6172 13.2185 12.6172 11.3631 12.6172 9.64029C12.6172 8.58008 12.7446 8.58008 13.6363 8.58008C14.2732 8.58008 14.9102 8.58008 15.5471 8.58008C16.0566 8.58008 16.3114 8.84513 16.3114 9.37524C16.3114 13.086 16.3114 16.7967 16.3114 20.64C16.3114 21.1701 16.0566 21.4352 15.5471 21.4352C14.9102 21.4352 14.1458 21.4352 13.5089 21.4352C12.872 21.4352 12.6172 21.1701 12.6172 20.5075C12.6172 18.5196 12.6172 16.6642 12.6172 14.9414Z" fill="#2D017C"/>
<path fill-rule="evenodd" clip-rule="evenodd" d="M21.7786 24.616C21.3965 24.616 21.1417 24.616 20.7595 24.616C15.0271 24.616 9.2947 24.616 3.56228 24.616C3.30751 24.616 3.05273 24.616 2.92535 24.616C2.28841 24.4834 1.90625 24.0858 1.90625 23.4232C1.90625 22.7606 2.28841 22.363 2.92535 22.2305C3.18012 22.2305 3.30751 22.2305 3.56228 22.2305C9.16731 22.2305 14.7723 22.2305 20.3774 22.2305C20.8869 22.2305 21.2691 22.363 21.3965 22.8931C21.2691 23.4232 21.5239 23.9533 21.7786 24.616Z" fill="#FF5900"/>
<path fill-rule="evenodd" clip-rule="evenodd" d="M19.2383 14.8098C19.2383 12.9545 19.2383 11.2316 19.2383 9.37625C19.2383 8.58108 19.4931 8.31603 20.2574 8.44856C20.8943 8.44856 21.5313 8.44856 22.1682 8.44856C22.9325 8.44856 23.0599 8.71361 23.0599 9.50877C23.0599 11.3641 23.0599 13.2195 23.0599 15.0749C23.0599 15.4725 22.9325 15.87 22.6777 16.1351C21.5313 17.3278 21.1491 18.9182 21.0217 20.641C21.0217 21.3036 20.7669 21.4362 20.2574 21.4362C19.7478 21.4362 19.2383 21.4362 19.2383 20.641C19.2383 18.6531 19.2383 16.7977 19.2383 14.8098Z" fill="#2D017C"/>
<path fill-rule="evenodd" clip-rule="evenodd" d="M25.8546 16.7988C26.2367 17.0638 26.4915 17.0638 26.7463 17.3289C27.2558 17.7265 27.7654 17.5939 27.8928 16.9313C28.0202 16.4012 28.0202 15.8711 28.7845 15.8711C29.4214 15.8711 29.8036 16.1361 29.931 16.9313C29.931 17.5939 30.5679 17.7265 31.0775 17.3289C31.4596 16.9313 31.8418 16.7988 32.4787 17.3289C32.9883 17.859 32.7335 18.2566 32.4787 18.7867C32.0965 19.3168 32.2239 19.8469 32.9883 19.9794C33.3704 20.1119 34.0073 19.9794 34.0073 20.642C34.1347 21.4372 33.88 21.7023 33.1156 21.8348C32.2239 21.9673 32.0965 22.3649 32.6061 23.1601C32.8609 23.5576 32.9882 23.9552 32.6061 24.4853C32.0965 25.0154 31.7144 24.8829 31.3322 24.6178C30.5679 24.0877 30.3131 24.2203 30.0584 25.1479C29.931 25.6781 29.6762 25.9431 29.0393 25.9431C28.4023 25.9431 28.1476 25.6781 28.0202 25.1479C27.7654 24.0877 27.638 23.9552 26.6189 24.6178C26.1094 24.8829 25.7272 24.8829 25.2177 24.4853C24.7081 23.9552 24.9629 23.5576 25.2177 23.1601C25.7272 22.4974 25.4724 21.9673 24.7081 21.8348C24.1986 21.7023 23.8164 21.5697 23.8164 20.9071C23.8164 20.2445 24.0712 19.9794 24.5807 19.9794C25.5998 19.7144 25.5998 19.5818 25.0903 18.5216C24.9629 18.2566 24.8355 17.859 24.9629 17.7265C25.2177 17.3289 25.5998 17.0638 25.8546 16.7988ZM28.9165 22.3648C29.8082 22.3648 30.4451 21.7022 30.4451 20.907C30.4451 20.1119 29.6808 19.4492 28.7891 19.4492C28.0248 19.4492 27.2604 20.2444 27.3878 21.0395C27.3878 21.7022 28.1522 22.3648 28.9165 22.3648Z" fill="#2D017C"/>
</svg>
