<svg width="28" height="28" viewBox="0 0 28 28" fill="none" xmlns="http://www.w3.org/2000/svg">
<path fill-rule="evenodd" clip-rule="evenodd" d="M17.0666 2.67773H15.1189V4.3078H17.3531V8.90691C17.8114 9.02334 18.2124 9.13977 18.6134 9.31442V4.24958C18.6134 3.37633 17.926 2.67773 17.0666 2.67773ZM17.3581 22.646V24.7418H1.31761V4.3078H3.72368V2.67773H1.54676C0.687448 2.67773 0 3.37633 0 4.24958V24.8C0 25.6733 0.687448 26.3719 1.54676 26.3719H17.0716C17.9309 26.3719 18.6184 25.6733 18.6184 24.8V22.2385C18.2174 22.4132 17.7591 22.5296 17.3581 22.646Z" fill="#FF5900"/>
<path d="M14.0371 2.44538V3.02755C14.0371 4.13366 13.1777 5.00691 12.0893 5.00691H6.70428C5.61582 5.00691 4.69922 4.13366 4.69922 3.02755V2.44538C4.69922 2.27073 4.81379 2.1543 4.98566 2.1543H8.53747C8.65204 2.5036 8.99577 2.79468 9.39678 2.79468C9.79779 2.79468 10.0842 2.5036 10.1988 2.1543H13.8079C13.9225 2.1543 14.0371 2.27073 14.0371 2.44538Z" fill="#FF5900"/>
<path fill-rule="evenodd" clip-rule="evenodd" d="M9.39048 0C8.35931 0 7.5 0.873248 7.5 1.92115C7.5 1.97936 7.5 2.0958 7.5 2.15401C7.61458 3.08548 8.4166 3.84229 9.39048 3.84229C10.3644 3.84229 11.1664 3.08548 11.281 2.15401C11.281 2.0958 11.281 1.97936 11.281 1.92115C11.281 0.873248 10.4217 0 9.39048 0ZM9.39014 2.79337C8.98913 2.79337 8.70269 2.50229 8.58812 2.15299C8.53083 2.09477 8.53083 1.97834 8.53083 1.92012C8.53083 1.45439 8.87456 1.04688 9.39014 1.04688C9.90573 1.04688 10.2495 1.45439 10.2495 1.92012C10.2495 1.97834 10.2495 2.09477 10.1922 2.15299C10.0776 2.50229 9.73387 2.79337 9.39014 2.79337Z" fill="#FF5900"/>
<rect x="7.67969" y="7.79883" width="7.96294" height="0.931465" fill="#2C007D"/>
<path d="M10.3149 11.877C10.143 12.168 9.97118 12.4591 9.79932 12.8084H7.67969V11.877H10.3149Z" fill="#2C007D"/>
<path d="M9.22645 16.9979H7.67969V16.0664H9.16916C9.16916 16.3575 9.16916 16.7068 9.22645 16.9979Z" fill="#2C007D"/>
<path d="M11.5179 21.0721H7.67969V20.1406H10.6586C10.9451 20.4899 11.2315 20.781 11.5179 21.0721Z" fill="#2C007D"/>
<path fill-rule="evenodd" clip-rule="evenodd" d="M14.4414 12.1098C15.1289 11.877 15.8163 11.8187 16.561 11.9352C17.2485 12.0516 17.9932 12.3427 18.5661 12.8666C19.0817 13.3906 19.4827 14.0892 19.6546 14.7878C19.7691 15.1371 19.7118 15.4864 19.7691 15.8939C19.7691 16.2432 19.7118 16.5925 19.6546 16.9418C19.5973 16.5925 19.54 16.2432 19.4827 15.8939L19.3681 15.3699C19.3108 15.1953 19.3108 15.0206 19.2535 14.9042C19.1963 14.7296 19.139 14.6131 19.0817 14.4385C19.0244 14.2638 18.9098 14.1474 18.8525 14.031C18.7952 13.8563 18.6807 13.7399 18.5661 13.6235C18.4515 13.507 18.3942 13.3906 18.2224 13.2742C17.7641 12.8084 17.1912 12.5173 16.561 12.3427C15.8163 12.2263 15.1289 12.168 14.4414 12.1098Z" fill="#2C007D"/>
<path fill-rule="evenodd" clip-rule="evenodd" d="M11.7884 11.5837C14.0226 9.31325 17.6889 9.31325 19.9804 11.5837C22.1001 13.7377 22.2147 17.0561 20.4387 19.3847L21.4126 20.3744L21.8709 19.9087L28.0007 26.1378L26.1675 28.0008L19.9804 21.8298L20.4387 21.3641L19.4076 20.3744C17.1161 22.1791 13.8507 22.0627 11.7311 19.9087C9.49686 17.6382 9.49686 13.9124 11.7884 11.5837ZM12.5896 12.4558C10.8137 14.2605 10.8137 17.2878 12.5896 19.0925C14.3655 20.8972 17.3445 20.8972 19.1204 19.0925C20.8963 17.2878 20.8963 14.2605 19.1204 12.4558C17.3445 10.5929 14.4228 10.5929 12.5896 12.4558Z" fill="#2C007D"/>
<path d="M6.58828 6.11057C6.53099 6.05236 6.41642 5.99414 6.30185 5.99414C6.18727 5.99414 6.0727 6.05236 6.01541 6.11057L4.35408 7.74064L3.83849 7.21669C3.66663 7.04204 3.43748 7.04204 3.26562 7.21669C3.09375 7.39134 3.09375 7.62421 3.26562 7.79886L4.06764 8.61389C4.12493 8.6721 4.2395 8.73032 4.35408 8.73032C4.46865 8.73032 4.58322 8.6721 4.64051 8.61389L6.531 6.69274C6.70286 6.51809 6.70286 6.28522 6.58828 6.11057Z" fill="#2C007D"/>
<path d="M6.58828 10.1887C6.53099 10.1305 6.41642 10.0723 6.30185 10.0723C6.18727 10.0723 6.0727 10.1305 6.01541 10.1887L4.35408 11.8188L3.83849 11.2948C3.66663 11.1202 3.43748 11.1202 3.26562 11.2948C3.09375 11.4695 3.09375 11.7023 3.26562 11.877L4.06764 12.692C4.12493 12.7502 4.2395 12.8084 4.35408 12.8084C4.46865 12.8084 4.58322 12.7502 4.64051 12.692L6.531 10.7709C6.70286 10.5962 6.70286 10.3633 6.58828 10.1887Z" fill="#2C007D"/>
<path d="M6.58828 14.2629C6.53099 14.2047 6.41642 14.1465 6.30185 14.1465C6.18727 14.1465 6.0727 14.2047 6.01541 14.2629L4.35408 15.893L3.83849 15.369C3.66663 15.1944 3.43748 15.1944 3.26562 15.369C3.09375 15.5437 3.09375 15.7766 3.26562 15.9512L4.06764 16.7662C4.12493 16.8244 4.2395 16.8827 4.35408 16.8827C4.46865 16.8827 4.58322 16.8244 4.64051 16.7662L6.531 14.8451C6.70286 14.6704 6.70286 14.4376 6.58828 14.2629Z" fill="#2C007D"/>
<path d="M6.58828 18.4563C6.53099 18.3981 6.41642 18.3398 6.30185 18.3398C6.18727 18.3398 6.0727 18.3981 6.01541 18.4563L4.35408 20.0863L3.83849 19.5624C3.66663 19.3877 3.43748 19.3877 3.26562 19.5624C3.09375 19.737 3.09375 19.9699 3.26562 20.1446L4.06764 20.9596C4.12493 21.0178 4.2395 21.076 4.35408 21.076C4.46865 21.076 4.58322 21.0178 4.64051 20.9596L6.531 19.0384C6.70286 18.8638 6.70286 18.6309 6.58828 18.4563Z" fill="#2C007D"/>
</svg>
