<svg width="32" height="28" viewBox="0 0 32 28" fill="none" xmlns="http://www.w3.org/2000/svg">
<path fill-rule="evenodd" clip-rule="evenodd" d="M31.2587 0H0.741313C0.30888 0 0 0.320369 0 0.768886V20.4396C0 20.8881 0.30888 21.2085 0.741313 21.2085H31.2587C31.6911 21.2085 32 20.8881 32 20.4396V0.768886C32 0.384443 31.6911 0 31.2587 0ZM30.6994 19.1579C30.6994 19.6064 30.3906 19.9267 29.9581 19.9267H2.09713C1.6647 19.9267 1.35582 19.6064 1.35582 19.1579V2.05014C1.35582 1.60162 1.6647 1.28125 2.09713 1.28125H29.9581C30.3906 1.28125 30.6994 1.60162 30.6994 2.05014C30.6994 2.05014 30.6994 19.1579 30.6994 19.1579Z" fill="#FF5900"/>
<path fill-rule="evenodd" clip-rule="evenodd" d="M9.26953 7.68818L13.0996 9.99483C13.3467 9.41817 13.5321 8.84151 13.5321 8.20077C13.5321 5.89411 11.6788 3.9719 9.26953 3.84375C9.26953 3.84375 9.26953 7.68818 9.26953 7.68818Z" fill="#2C007D"/>
<path fill-rule="evenodd" clip-rule="evenodd" d="M8.33894 8.26484V3.84375C6.05322 4.10005 4.26172 5.95819 4.26172 8.20077C4.26172 10.6356 6.3621 12.6219 8.89492 12.6219C10.4393 12.6219 11.7984 11.9171 12.6015 10.8278L8.33894 8.26484Z" fill="#2C007D"/>
<rect x="16.4961" y="10.252" width="1.2973" height="4.93368" fill="#2C007D"/>
<rect x="22.8516" y="11.7891" width="1.2973" height="3.45999" fill="#2C007D"/>
<rect x="19.7031" y="8.39258" width="1.2973" height="6.8559" fill="#2C007D"/>
<rect x="26.0781" y="8.96875" width="1.2973" height="6.21516" fill="#2C007D"/>
<path d="M17.6016 8.84067L19.8255 6.40586C20.2579 5.95734 20.9992 5.95734 21.3699 6.53401L23.1614 9.16103C23.5321 9.67362 24.2116 9.7377 24.644 9.22511L27.1769 6.21364" stroke="#2C007D"/>
<path d="M26.8682 6.08763L26.6211 5.76726L27.7331 5.38281C27.6713 5.76726 27.6095 6.1517 27.5477 6.53614C27.486 6.47207 27.4242 6.408 27.3624 6.408" fill="#2C007D"/>
<path d="M12.1667 14.9919H5.43316C5.24783 14.9919 5.0625 14.8638 5.0625 14.6075C5.0625 14.4153 5.18605 14.2871 5.43316 14.2871H12.105C12.2903 14.2871 12.4139 14.4153 12.4139 14.6075C12.4756 14.8638 12.3521 14.9919 12.1667 14.9919Z" fill="#2C007D"/>
<path d="M12.1667 16.404H5.43316C5.24783 16.404 5.0625 16.2759 5.0625 16.0837C5.0625 15.8914 5.18605 15.6992 5.43316 15.6992H12.105C12.2903 15.6992 12.4139 15.8274 12.4139 16.0837C12.4756 16.2759 12.3521 16.404 12.1667 16.404Z" fill="#2C007D"/>
<path d="M12.98 21.2086C12.98 21.2086 13.536 21.2727 13.5978 21.8493V23.259C13.5978 23.7716 13.4742 24.2201 13.2271 24.6686C12.9182 25.1812 12.3622 25.8219 11.4356 26.2704C11.1267 26.3986 10.7561 26.5267 10.3854 26.5267H9.27344V28.0004H22.8024V26.6549C22.8024 26.6549 19.0958 26.6549 18.6016 23.7716V21.7853C18.6016 21.7212 18.6634 21.6571 18.6634 21.529C18.787 21.3368 18.9105 21.2086 19.0341 21.1445C16.9954 21.2086 15.0186 21.2086 12.98 21.2086Z" fill="#FF5900"/>
</svg>
