<svg width="28" height="28" viewBox="0 0 28 28" fill="none" xmlns="http://www.w3.org/2000/svg">
<path fill-rule="evenodd" clip-rule="evenodd" d="M19.8753 15.3654C19.1874 15.0239 18.981 14.2044 19.325 13.5215C19.4626 13.3166 19.6001 13.1117 19.8753 13.0434C20.2881 12.7702 20.5633 12.3605 20.5633 11.8824C20.5633 11.6776 20.4945 11.4044 20.3569 11.1995L19.9441 10.4483C19.6001 9.83363 18.7058 9.56046 18.0866 9.97022C17.8803 10.1068 17.6051 10.1751 17.3987 10.1751C16.6419 10.1751 16.0228 9.56046 16.0228 8.80923C16.0228 8.46776 15.8852 8.12629 15.61 7.85312C15.3348 7.57995 14.9909 7.44336 14.5781 7.44336H13.6149C12.8582 7.44336 12.239 8.058 12.239 8.80923C12.239 9.15069 12.1014 9.49216 11.8263 9.76534C11.5511 10.0385 11.2071 10.1751 10.8631 10.1751C10.6567 10.1751 10.3816 10.1068 10.1752 9.97022C9.8312 9.76534 9.48722 9.69704 9.07445 9.83363C8.73047 9.90192 8.3865 10.1751 8.18011 10.5166L7.76734 11.2678C7.42336 11.8824 7.62975 12.702 8.24891 13.1117C8.86807 13.4532 9.14325 14.2727 8.79927 14.9556C8.66168 15.1605 8.52409 15.3654 8.24891 15.4337C7.90493 15.6386 7.69855 15.9117 7.56095 16.3215C7.49216 16.663 7.56095 17.0727 7.76734 17.4142L8.18011 18.1654C8.3865 18.4386 8.66168 18.7118 9.00566 18.7801C9.34963 18.8484 9.76241 18.8484 10.0376 18.6435C10.244 18.5069 10.5192 18.4386 10.7255 18.4386C11.4823 18.4386 12.1014 19.0532 12.1014 19.8045C12.1014 20.1459 12.239 20.4874 12.5142 20.7606C12.7894 21.0338 13.1334 21.1703 13.4774 21.1703H14.5093C15.266 21.1703 15.8852 20.5557 15.8852 19.8045C15.8852 19.463 16.0228 19.1215 16.298 18.8484C16.5731 18.5752 16.9171 18.4386 17.2611 18.4386C17.4675 18.4386 17.7427 18.5069 17.9491 18.6435C18.1554 18.7801 18.4306 18.8484 18.637 18.8484C19.1186 18.8484 19.6001 18.5752 19.8753 18.1654L20.3569 17.4142C20.7697 16.5947 20.5633 15.7752 19.8753 15.3654ZM15.4099 15.5711C15.0659 15.9126 14.5844 16.1175 14.034 16.1175C13.2773 16.1175 12.5205 15.6394 12.2453 14.9565C11.9701 14.2735 12.1077 13.454 12.6581 12.9077C13.2085 12.3613 14.034 12.2247 14.7908 12.4979C15.4787 12.7711 15.9603 13.454 15.9603 14.2053C16.0291 14.7516 15.8227 15.2297 15.4099 15.5711Z" fill="#FF5900"/>
<path fill-rule="evenodd" clip-rule="evenodd" d="M13.346 3.55126V4.91712L15.5474 3.61955L17.4737 2.45856L16.029 1.57075L13.346 0V1.43416C9.56223 1.63904 6.19125 3.55126 4.05859 6.35129L5.64089 7.64886C7.42957 5.32688 10.1814 3.75614 13.346 3.55126Z" fill="#332977"/>
<path fill-rule="evenodd" clip-rule="evenodd" d="M3.43977 14.205H4.88447L3.64616 12.0879L2.47663 10.1074L1.71988 11.3367L0 14.1367H1.37591C1.4447 17.9612 3.16459 21.3758 5.9164 23.6978L7.22352 22.1271C4.88447 20.2148 3.43977 17.3465 3.43977 14.205Z" fill="#332977"/>
<path fill-rule="evenodd" clip-rule="evenodd" d="M14.241 24.5842V23.0817L12.0396 24.3793L11.6268 24.5842L10.3885 25.4037L10.1133 25.5403L12.3147 26.8379L14.241 27.9989V26.633C18.0935 26.5647 21.5333 24.7891 23.8036 22.0573L22.2213 20.7598C20.295 23.0817 17.4744 24.5159 14.241 24.5842Z" fill="#332977"/>
<path fill-rule="evenodd" clip-rule="evenodd" d="M26.6909 13.5904C26.5533 9.69765 24.5583 6.21469 21.6001 4.0293L20.293 5.60005C22.7696 7.44397 24.4207 10.3123 24.5583 13.5904H23.0448L24.4207 15.8441L24.6959 16.3221L25.315 17.3465L25.5214 17.6197L26.9661 15.2294L27.998 13.5221H26.6909V13.5904Z" fill="#332977"/>
</svg>
