<svg width="29" height="30" viewBox="0 0 29 30" fill="none" xmlns="http://www.w3.org/2000/svg">
<path d="M11.5547 6.70703H27.4931" stroke="#332977" stroke-width="1.5"/>
<path d="M11.3359 24.9072H27.5975" stroke="#332977" stroke-width="1.5"/>
<path d="M22.3221 4.98415H16.7221C16.399 4.98415 16.1836 4.76876 16.1836 4.44569C16.1836 4.12262 16.399 3.90723 16.7221 3.90723H22.3221C22.6451 3.90723 22.8606 4.12262 22.8606 4.44569C22.8606 4.76876 22.5375 4.98415 22.3221 4.98415Z" fill="#332977"/>
<path fill-rule="evenodd" clip-rule="evenodd" d="M18.9844 26.7946C18.9844 26.3451 19.3488 25.9805 19.7985 25.9805C20.2481 25.9805 20.6127 26.3451 20.6127 26.7946C20.6127 27.2443 20.2481 27.6088 19.7985 27.6088C19.3488 27.6088 18.9844 27.2443 18.9844 26.7946Z" stroke="#332977"/>
<path d="M11.2305 15.1084V21.4623" stroke="#FF5900" stroke-width="1.5"/>
<path d="M9.39844 15.1084V21.4623" stroke="#FF5900" stroke-width="1.5"/>
<path d="M1.64453 23.1849L2.183 21.6772C2.183 21.5696 2.29068 21.4619 2.50607 21.4619H13.4906C13.5984 21.4619 13.7061 21.5696 13.8137 21.6772L14.3522 23.1849" stroke="#FF5900" stroke-width="1.5"/>
<path d="M14.8923 23.1865H1" stroke="#FF5900" stroke-width="1.5"/>
<path d="M4.65625 15.1084V21.4623" stroke="#FF5900" stroke-width="1.5"/>
<path d="M6.38281 15.1084V21.4623" stroke="#FF5900" stroke-width="1.5"/>
<path d="M14.1369 13.6007C14.1369 13.493 14.1369 13.2776 14.0291 13.2776L8.10607 10.0469C7.99838 10.0469 7.89068 10.0469 7.783 10.0469L1.85992 13.2776C1.64453 13.2776 1.64453 13.3853 1.64453 13.493L2.0753 14.7853C2.0753 14.893 2.183 15.0007 2.39838 15.0007H13.383C13.4907 15.0007 13.5984 14.893 13.7061 14.7853L14.1369 13.6007Z" stroke="#FF5900" stroke-width="1.5"/>
<path d="M14.1369 13.2783H1.64453" stroke="#FF5900" stroke-width="1.5"/>
<path d="M3.15618 21.4623H13.387V15.1084C9.72542 15.1084 6.06388 15.1084 2.40234 15.1084" stroke="#FF5900" stroke-width="1.5"/>
<path d="M2.71875 15.001V19.0933" stroke="#FF5900" stroke-width="1.5"/>
<path d="M26.7409 1H12.3102C11.5563 1 10.9102 1.64615 10.9102 2.4V9.61538L11.5563 9.93846V2.29231C11.5563 1.86154 11.8794 1.53846 12.3102 1.53846H26.741C27.1717 1.53846 27.4948 1.86154 27.4948 2.29231V27.6C27.4948 28.0308 27.1717 28.3539 26.741 28.3539H12.3102C11.8794 28.3539 11.5563 28.0308 11.5563 27.6C11.5563 26.8462 11.5563 25.9846 11.5563 25.2307V24.5846H10.9102V25.2307C10.9102 25.9846 10.9102 26.8462 10.9102 27.6C10.9102 28.3539 11.5563 29 12.3102 29H26.7409C27.4948 29 28.1409 28.3539 28.1409 27.6V2.4C28.1409 1.64615 27.4948 1 26.7409 1Z" fill="#FF5900" stroke="#FF5900" stroke-width="0.3"/>
</svg>
