<svg width="331" height="283" viewBox="0 0 331 283" fill="none" xmlns="http://www.w3.org/2000/svg">
<rect x="0.5" y="0.5" width="330" height="179" rx="7.5" fill="#F8F6FC" stroke="#4D148C"/>
<path d="M19.1646 29.538C19.1646 32.166 20.5506 33.876 22.5306 33.876C23.9346 33.876 24.9606 32.994 25.3206 31.554L27.8046 32.382C27.0486 34.722 25.2126 36.198 22.5306 36.198C19.0386 36.198 16.5006 33.444 16.5006 29.538C16.5006 25.632 19.0386 22.878 22.5306 22.878C25.2126 22.878 27.0486 24.354 27.8046 26.694L25.3206 27.522C24.9606 26.082 23.9346 25.2 22.5306 25.2C20.5506 25.2 19.1646 26.91 19.1646 29.538ZM31.7088 36.162C29.8548 36.162 28.4868 35.046 28.4868 33.372C28.4868 31.482 29.9988 30.69 31.9068 30.348L34.2648 29.898V29.754C34.2648 28.944 33.8508 28.44 32.8068 28.44C31.8708 28.44 31.3848 28.854 31.1688 29.7L28.7748 29.25C29.2068 27.648 30.6468 26.352 32.8968 26.352C35.2908 26.352 36.7308 27.45 36.7308 29.646V33.516C36.7308 34.02 36.9468 34.182 37.5048 34.11V36C35.9028 36.234 34.9308 35.91 34.5168 35.118C33.9048 35.784 32.9508 36.162 31.7088 36.162ZM34.2648 32.634V31.662L32.4108 32.04C31.5828 32.202 30.9708 32.472 30.9708 33.228C30.9708 33.876 31.4568 34.254 32.2128 34.254C33.2748 34.254 34.2648 33.696 34.2648 32.634ZM44.5778 26.514V28.98C44.2898 28.944 44.0738 28.926 43.7678 28.926C42.4538 28.926 41.4458 29.736 41.4458 31.194V36H38.9258V26.532H41.4458V27.864C41.8598 27.036 42.7958 26.478 43.9658 26.478C44.2178 26.478 44.3978 26.496 44.5778 26.514ZM49.1867 36.198C46.5767 36.198 45.0647 33.966 45.0647 31.266C45.0647 28.584 46.5767 26.352 49.1867 26.352C50.3747 26.352 51.2747 26.82 51.8327 27.504V23.076H54.3527V36H51.8327V35.028C51.2747 35.73 50.3747 36.198 49.1867 36.198ZM51.8867 31.014C51.8867 29.394 50.9867 28.512 49.7807 28.512C48.3587 28.512 47.6027 29.646 47.6027 31.266C47.6027 32.904 48.3587 34.038 49.7807 34.038C50.9867 34.038 51.8867 33.138 51.8867 31.536V31.014ZM62.8083 23.076V36H60.1623V23.076H62.8083ZM64.0406 34.398L65.6066 32.796C66.2546 33.678 67.4066 34.236 68.4686 34.236C69.3146 34.236 70.0526 33.948 70.0526 33.264C70.0526 32.544 69.3506 32.454 67.8386 32.166C66.3086 31.86 64.6166 31.464 64.6166 29.43C64.6166 27.612 66.2186 26.352 68.4866 26.352C70.1606 26.352 71.6546 27.036 72.3926 27.99L70.9526 29.574C70.3226 28.764 69.4046 28.314 68.4146 28.314C67.6226 28.314 67.1006 28.656 67.1006 29.178C67.1006 29.79 67.7306 29.898 68.9006 30.132C70.5566 30.474 72.5186 30.852 72.5186 32.994C72.5186 34.974 70.6826 36.198 68.4146 36.198C66.7046 36.198 64.9046 35.568 64.0406 34.398ZM73.0582 34.398L74.6242 32.796C75.2722 33.678 76.4242 34.236 77.4862 34.236C78.3322 34.236 79.0702 33.948 79.0702 33.264C79.0702 32.544 78.3682 32.454 76.8562 32.166C75.3262 31.86 73.6342 31.464 73.6342 29.43C73.6342 27.612 75.2362 26.352 77.5042 26.352C79.1782 26.352 80.6722 27.036 81.4102 27.99L79.9702 29.574C79.3402 28.764 78.4222 28.314 77.4322 28.314C76.6402 28.314 76.1182 28.656 76.1182 29.178C76.1182 29.79 76.7482 29.898 77.9182 30.132C79.5742 30.474 81.5362 30.852 81.5362 32.994C81.5362 34.974 79.7002 36.198 77.4322 36.198C75.7222 36.198 73.9222 35.568 73.0582 34.398ZM91.2202 26.532V36H88.7002V35.028C88.1782 35.64 87.3502 36.198 86.1442 36.198C84.1822 36.198 82.9222 34.848 82.9222 32.796V26.532H85.4422V32.238C85.4422 33.282 85.9102 33.966 86.9542 33.966C87.8362 33.966 88.7002 33.318 88.7002 32.094V26.532H91.2202ZM93.2766 25.416V23.076H95.8506V25.416H93.2766ZM95.8326 26.532V36H93.3126V26.532H95.8326ZM97.9004 36V26.532H100.42V27.504C100.942 26.892 101.806 26.352 103.012 26.352C104.992 26.352 106.198 27.702 106.198 29.754V36H103.678V30.474C103.678 29.412 103.246 28.656 102.166 28.656C101.284 28.656 100.42 29.286 100.42 30.528V36H97.9004ZM116.949 34.956C116.949 37.818 114.969 39.402 112.161 39.402C109.875 39.402 108.291 38.466 107.751 36.612L110.109 35.928C110.379 36.864 111.117 37.44 112.197 37.44C113.511 37.44 114.429 36.792 114.429 35.226V34.578C113.943 35.226 112.989 35.73 111.801 35.73C109.209 35.73 107.697 33.624 107.697 31.032C107.697 28.458 109.209 26.352 111.801 26.352C112.971 26.352 113.943 26.856 114.429 27.504V26.532H116.949V34.956ZM114.447 30.924C114.447 29.358 113.601 28.476 112.395 28.476C111.027 28.476 110.253 29.448 110.253 31.032C110.253 32.616 111.027 33.606 112.395 33.606C113.601 33.606 114.447 32.724 114.447 31.176V30.924Z" fill="#4D148C"/>
<path d="M38.264 72V60.512H41.912C45.4 60.512 47.608 62.752 47.608 66.256C47.608 69.76 45.4 72 41.912 72H38.264ZM39.768 70.672H41.912C44.52 70.672 46.104 68.928 46.104 66.256C46.104 63.568 44.52 61.84 41.896 61.84H39.768V70.672ZM52.7628 72.176C50.4428 72.176 48.8428 70.4 48.8428 67.824C48.8428 65.328 50.4268 63.472 52.6988 63.472C55.0348 63.472 56.2668 65.248 56.2668 67.568V68.048H50.2188C50.2988 69.808 51.3068 70.928 52.7628 70.928C53.8828 70.928 54.6828 70.32 54.9388 69.328L56.2028 69.776C55.6908 71.264 54.4268 72.176 52.7628 72.176ZM52.6828 64.704C51.4668 64.704 50.5548 65.52 50.2988 66.944H54.8108C54.7788 65.76 54.1388 64.704 52.6828 64.704ZM62.0914 72.176C60.9234 72.176 59.9954 71.616 59.4994 70.784V72H58.0594V60.512H59.4994V64.848C59.9954 64.032 60.9234 63.472 62.0914 63.472C64.4114 63.472 65.7394 65.44 65.7394 67.824C65.7394 70.192 64.4114 72.176 62.0914 72.176ZM59.4674 67.536V68.128C59.4674 70.048 60.6514 70.912 61.8354 70.912C63.4034 70.912 64.2834 69.616 64.2834 67.824C64.2834 66.016 63.4034 64.736 61.8354 64.736C60.6514 64.736 59.4674 65.584 59.4674 67.536ZM67.4954 62.176V60.512H69.0634V62.176H67.4954ZM68.9994 63.632V72H67.5594V63.632H68.9994ZM71.6271 70V64.864H70.3311V63.632H71.6271V61.184H73.0511V63.632H74.9551V64.864H73.0511V69.776C73.0511 70.656 73.4831 70.816 74.2191 70.816C74.5551 70.816 74.7951 70.8 75.1311 70.72V71.952C74.7631 72.032 74.3471 72.08 73.8671 72.08C72.4431 72.08 71.6271 71.6 71.6271 70ZM76.7078 72V70.112H78.5318V72.096C78.5318 73.344 77.7318 74.096 76.4518 74.128V73.296C77.1718 73.264 77.5398 72.896 77.5398 72.128V72H76.7078ZM84.9093 66.256C84.9093 68.976 86.4133 70.816 88.5413 70.816C90.0293 70.816 91.1013 69.952 91.5173 68.496L92.9733 68.976C92.3013 70.96 90.7333 72.176 88.5413 72.176C85.5653 72.176 83.3733 69.76 83.3733 66.256C83.3733 62.752 85.5653 60.336 88.5413 60.336C90.7333 60.336 92.3013 61.552 92.9733 63.536L91.5173 64.016C91.1013 62.56 90.0293 61.696 88.5413 61.696C86.4133 61.696 84.9093 63.536 84.9093 66.256ZM98.8641 63.6V65.056C98.6241 65.008 98.4321 64.992 98.1601 64.992C96.9441 64.992 95.9681 65.952 95.9681 67.424V72H94.5281V63.632H95.9681V65.056C96.3361 64.208 97.1521 63.568 98.2881 63.568C98.5121 63.568 98.7201 63.584 98.8641 63.6ZM103.45 72.176C101.13 72.176 99.5303 70.4 99.5303 67.824C99.5303 65.328 101.114 63.472 103.386 63.472C105.722 63.472 106.954 65.248 106.954 67.568V68.048H100.906C100.986 69.808 101.994 70.928 103.45 70.928C104.57 70.928 105.37 70.32 105.626 69.328L106.89 69.776C106.378 71.264 105.114 72.176 103.45 72.176ZM103.37 64.704C102.154 64.704 101.242 65.52 100.986 66.944H105.498C105.466 65.76 104.826 64.704 103.37 64.704ZM111.819 72.176C109.499 72.176 108.171 70.192 108.171 67.824C108.171 65.44 109.499 63.472 111.819 63.472C112.987 63.472 113.915 64.032 114.411 64.848V60.512H115.851V72H114.411V70.784C113.915 71.616 112.987 72.176 111.819 72.176ZM114.443 67.536C114.443 65.584 113.259 64.736 112.075 64.736C110.507 64.736 109.627 66.016 109.627 67.824C109.627 69.616 110.507 70.912 112.075 70.912C113.259 70.912 114.443 70.048 114.443 68.128V67.536ZM118.167 62.176V60.512H119.735V62.176H118.167ZM119.671 63.632V72H118.231V63.632H119.671ZM122.299 70V64.864H121.003V63.632H122.299V61.184H123.723V63.632H125.627V64.864H123.723V69.776C123.723 70.656 124.155 70.816 124.891 70.816C125.227 70.816 125.467 70.8 125.803 70.72V71.952C125.435 72.032 125.019 72.08 124.539 72.08C123.115 72.08 122.299 71.6 122.299 70ZM134.552 60.4C135.128 60.4 135.618 60.5013 136.024 60.704C136.44 60.896 136.76 61.1733 136.984 61.536C137.208 61.8987 137.32 62.3413 137.32 62.864C137.32 63.536 137.101 64.1067 136.664 64.576C136.237 65.0453 135.693 65.472 135.032 65.856L138.12 68.832C138.397 68.5013 138.621 68.1227 138.792 67.696C138.973 67.2587 139.122 66.7893 139.24 66.288H140.664C140.493 66.9707 140.28 67.6053 140.024 68.192C139.768 68.7787 139.437 69.2907 139.032 69.728L141.368 72H139.464L138.072 70.656C137.816 70.88 137.549 71.088 137.272 71.28C137.005 71.4613 136.712 71.616 136.392 71.744C136.072 71.872 135.725 71.9733 135.352 72.048C134.989 72.1227 134.584 72.16 134.136 72.16C133.4 72.16 132.76 72.0427 132.216 71.808C131.682 71.5627 131.266 71.2053 130.968 70.736C130.68 70.2667 130.536 69.696 130.536 69.024C130.536 68.48 130.632 68.0107 130.824 67.616C131.026 67.2213 131.314 66.8693 131.688 66.56C132.061 66.2507 132.498 65.952 133 65.664C132.776 65.408 132.557 65.1413 132.344 64.864C132.13 64.5867 131.954 64.288 131.816 63.968C131.677 63.6373 131.608 63.28 131.608 62.896C131.608 62.3733 131.725 61.9253 131.96 61.552C132.194 61.1787 132.53 60.896 132.968 60.704C133.416 60.5013 133.944 60.4 134.552 60.4ZM133.848 66.544C133.464 66.768 133.133 66.9973 132.856 67.232C132.589 67.456 132.381 67.7067 132.232 67.984C132.082 68.2613 132.008 68.592 132.008 68.976C132.008 69.5627 132.205 70.032 132.6 70.384C132.994 70.736 133.522 70.912 134.184 70.912C134.866 70.912 135.453 70.8 135.944 70.576C136.434 70.352 136.845 70.0853 137.176 69.776L133.848 66.544ZM134.504 61.552C134.056 61.552 133.688 61.6693 133.4 61.904C133.122 62.1387 132.984 62.464 132.984 62.88C132.984 63.264 133.085 63.6213 133.288 63.952C133.49 64.272 133.784 64.6293 134.168 65.024C134.797 64.6613 135.245 64.32 135.512 64C135.789 63.6693 135.928 63.2907 135.928 62.864C135.928 62.48 135.8 62.1653 135.544 61.92C135.288 61.6747 134.941 61.552 134.504 61.552ZM147.581 67.184V72H146.045V60.512H150.429C152.861 60.512 154.413 61.648 154.413 63.84C154.413 66 152.861 67.184 150.429 67.184H147.581ZM147.581 65.856H150.349C151.981 65.856 152.893 65.136 152.893 63.84C152.893 62.544 151.981 61.84 150.349 61.84H147.581V65.856ZM160.114 63.6V65.056C159.874 65.008 159.682 64.992 159.41 64.992C158.194 64.992 157.218 65.952 157.218 67.424V72H155.778V63.632H157.218V65.056C157.586 64.208 158.402 63.568 159.538 63.568C159.762 63.568 159.97 63.584 160.114 63.6ZM164.7 72.176C162.38 72.176 160.78 70.4 160.78 67.824C160.78 65.328 162.364 63.472 164.636 63.472C166.972 63.472 168.204 65.248 168.204 67.568V68.048H162.156C162.236 69.808 163.244 70.928 164.7 70.928C165.82 70.928 166.62 70.32 166.876 69.328L168.14 69.776C167.628 71.264 166.364 72.176 164.7 72.176ZM164.62 64.704C163.404 64.704 162.492 65.52 162.236 66.944H166.748C166.716 65.76 166.076 64.704 164.62 64.704ZM174.029 72.176C172.861 72.176 171.933 71.616 171.437 70.784V74.88H169.997V63.632H171.437V64.848C171.933 64.032 172.861 63.472 174.029 63.472C176.349 63.472 177.677 65.44 177.677 67.824C177.677 70.192 176.349 72.176 174.029 72.176ZM171.405 67.536V68.128C171.405 70.048 172.589 70.912 173.773 70.912C175.341 70.912 176.221 69.616 176.221 67.824C176.221 66.016 175.341 64.736 173.773 64.736C172.589 64.736 171.405 65.584 171.405 67.536ZM181.593 72.144C180.073 72.144 178.841 71.248 178.841 69.744C178.841 68.08 180.137 67.392 182.009 67.008L184.041 66.592V66.24C184.041 65.28 183.513 64.736 182.393 64.736C181.337 64.736 180.713 65.232 180.457 66.16L179.097 65.808C179.497 64.448 180.729 63.472 182.441 63.472C184.313 63.472 185.465 64.384 185.465 66.176V70.256C185.465 70.8 185.801 70.976 186.361 70.848V72C185.081 72.16 184.345 71.856 184.169 71.056C183.657 71.712 182.729 72.144 181.593 72.144ZM184.041 69.152V67.712L182.409 68.064C181.129 68.32 180.265 68.672 180.265 69.68C180.265 70.496 180.857 70.976 181.769 70.976C183.001 70.976 184.041 70.224 184.041 69.152ZM187.855 62.176V60.512H189.423V62.176H187.855ZM189.359 63.632V72H187.919V63.632H189.359ZM194.835 72.176C192.515 72.176 191.187 70.192 191.187 67.824C191.187 65.44 192.515 63.472 194.835 63.472C196.003 63.472 196.931 64.032 197.427 64.848V60.512H198.867V72H197.427V70.784C196.931 71.616 196.003 72.176 194.835 72.176ZM197.459 67.536C197.459 65.584 196.275 64.736 195.091 64.736C193.523 64.736 192.643 66.016 192.643 67.824C192.643 69.616 193.523 70.912 195.091 70.912C196.275 70.912 197.459 70.048 197.459 68.128V67.536ZM205.55 66.256C205.55 68.976 207.054 70.816 209.182 70.816C210.67 70.816 211.742 69.952 212.158 68.496L213.614 68.976C212.942 70.96 211.374 72.176 209.182 72.176C206.206 72.176 204.014 69.76 204.014 66.256C204.014 62.752 206.206 60.336 209.182 60.336C211.374 60.336 212.942 61.552 213.614 63.536L212.158 64.016C211.742 62.56 210.67 61.696 209.182 61.696C207.054 61.696 205.55 63.536 205.55 66.256ZM217.265 72.144C215.745 72.144 214.513 71.248 214.513 69.744C214.513 68.08 215.809 67.392 217.681 67.008L219.713 66.592V66.24C219.713 65.28 219.185 64.736 218.065 64.736C217.009 64.736 216.385 65.232 216.129 66.16L214.769 65.808C215.169 64.448 216.401 63.472 218.113 63.472C219.985 63.472 221.137 64.384 221.137 66.176V70.256C221.137 70.8 221.473 70.976 222.033 70.848V72C220.753 72.16 220.017 71.856 219.841 71.056C219.329 71.712 218.401 72.144 217.265 72.144ZM219.713 69.152V67.712L218.081 68.064C216.801 68.32 215.937 68.672 215.937 69.68C215.937 70.496 216.529 70.976 217.441 70.976C218.673 70.976 219.713 70.224 219.713 69.152ZM227.927 63.6V65.056C227.687 65.008 227.495 64.992 227.223 64.992C226.007 64.992 225.031 65.952 225.031 67.424V72H223.591V63.632H225.031V65.056C225.399 64.208 226.215 63.568 227.351 63.568C227.575 63.568 227.783 63.584 227.927 63.6ZM232.303 72.176C229.983 72.176 228.655 70.192 228.655 67.824C228.655 65.44 229.983 63.472 232.303 63.472C233.471 63.472 234.399 64.032 234.895 64.848V60.512H236.335V72H234.895V70.784C234.399 71.616 233.471 72.176 232.303 72.176ZM234.927 67.536C234.927 65.584 233.743 64.736 232.559 64.736C230.991 64.736 230.111 66.016 230.111 67.824C230.111 69.616 230.991 70.912 232.559 70.912C233.743 70.912 234.927 70.048 234.927 68.128V67.536ZM237.788 70.224L238.908 69.408C239.356 70.384 240.38 70.976 241.468 70.976C242.444 70.976 243.308 70.56 243.308 69.648C243.308 68.736 242.508 68.608 241.132 68.32C239.756 68.016 238.316 67.712 238.316 66C238.316 64.512 239.612 63.472 241.388 63.472C242.892 63.472 244.124 64.208 244.62 65.2L243.596 66.016C243.164 65.184 242.38 64.656 241.324 64.656C240.364 64.656 239.724 65.136 239.724 65.888C239.724 66.672 240.46 66.816 241.628 67.072C243.068 67.408 244.716 67.696 244.716 69.52C244.716 71.12 243.26 72.176 241.468 72.176C239.948 72.176 238.428 71.52 237.788 70.224Z" fill="#4D148C"/>
<rect x="16" y="63" width="6" height="6" fill="#4D148C"/>
<path d="M39.8 95.9848V100.801H38.264V89.3128H42.648C45.08 89.3128 46.632 90.4488 46.632 92.6408C46.632 94.8008 45.08 95.9848 42.648 95.9848H39.8ZM39.8 94.6568H42.568C44.2 94.6568 45.112 93.9368 45.112 92.6408C45.112 91.3448 44.2 90.6408 42.568 90.6408H39.8V94.6568ZM48.0281 100.801V89.3128H49.4681V93.5688C49.9481 92.8808 50.7801 92.2728 51.9641 92.2728C53.7401 92.2728 54.7481 93.5048 54.7481 95.2808V100.801H53.3081V95.6648C53.3081 94.4968 52.8121 93.6168 51.5641 93.6168C50.5241 93.6168 49.4681 94.4168 49.4681 95.8088V100.801H48.0281ZM60.1165 101.713C59.6365 102.977 58.9805 103.777 57.5245 103.777C57.1725 103.777 56.9965 103.761 56.7405 103.713V102.465C57.0125 102.529 57.1885 102.545 57.4285 102.545C58.0525 102.545 58.3885 102.321 58.7245 101.489L59.1245 100.497L56.0205 92.4328H57.5405L59.8925 98.8328L62.2125 92.4328H63.7165L60.1165 101.713ZM63.9908 99.0248L65.1108 98.2088C65.5588 99.1848 66.5828 99.7768 67.6708 99.7768C68.6468 99.7768 69.5108 99.3608 69.5108 98.4488C69.5108 97.5368 68.7108 97.4088 67.3348 97.1208C65.9588 96.8168 64.5188 96.5128 64.5188 94.8008C64.5188 93.3128 65.8148 92.2728 67.5908 92.2728C69.0948 92.2728 70.3268 93.0088 70.8228 94.0008L69.7988 94.8168C69.3668 93.9848 68.5828 93.4568 67.5268 93.4568C66.5668 93.4568 65.9268 93.9368 65.9268 94.6888C65.9268 95.4728 66.6628 95.6168 67.8307 95.8728C69.2708 96.2088 70.9188 96.4968 70.9188 98.3208C70.9188 99.9208 69.4628 100.977 67.6708 100.977C66.1508 100.977 64.6308 100.321 63.9908 99.0248ZM72.636 90.9768V89.3128H74.204V90.9768H72.636ZM74.14 92.4328V100.801H72.7V92.4328H74.14ZM77.4078 96.6248C77.4078 98.5288 78.4318 99.7128 79.9198 99.7128C81.0718 99.7128 81.7598 98.9768 81.9998 97.9368L83.2798 98.5288C82.8798 99.9208 81.6638 100.977 79.9198 100.977C77.5838 100.977 75.9678 99.2008 75.9678 96.6248C75.9678 94.0328 77.5838 92.2728 79.9198 92.2728C81.6638 92.2728 82.8478 93.2808 83.2478 94.6728L81.9998 95.2968C81.7598 94.2728 81.0718 93.5208 79.9198 93.5208C78.4318 93.5208 77.4078 94.7048 77.4078 96.6248ZM87.046 100.945C85.526 100.945 84.294 100.049 84.294 98.5448C84.294 96.8808 85.59 96.1928 87.462 95.8088L89.494 95.3928V95.0408C89.494 94.0808 88.966 93.5368 87.846 93.5368C86.79 93.5368 86.166 94.0328 85.91 94.9608L84.55 94.6088C84.95 93.2488 86.182 92.2728 87.894 92.2728C89.766 92.2728 90.918 93.1848 90.918 94.9768V99.0568C90.918 99.6008 91.254 99.7768 91.814 99.6488V100.801C90.534 100.961 89.798 100.657 89.622 99.8568C89.11 100.513 88.182 100.945 87.046 100.945ZM89.494 97.9528V96.5128L87.862 96.8648C86.582 97.1208 85.718 97.4728 85.718 98.4808C85.718 99.2968 86.31 99.7768 87.222 99.7768C88.454 99.7768 89.494 99.0248 89.494 97.9528ZM94.8119 89.3128V100.801H93.3719V89.3128H94.8119ZM104.255 89.2008C104.831 89.2008 105.321 89.3021 105.727 89.5048C106.143 89.6968 106.463 89.9741 106.687 90.3368C106.911 90.6994 107.023 91.1421 107.023 91.6648C107.023 92.3368 106.804 92.9074 106.367 93.3768C105.94 93.8461 105.396 94.2728 104.735 94.6568L107.823 97.6328C108.1 97.3021 108.324 96.9234 108.495 96.4968C108.676 96.0594 108.825 95.5901 108.943 95.0888H110.367C110.196 95.7714 109.983 96.4061 109.727 96.9928C109.471 97.5794 109.14 98.0914 108.735 98.5288L111.071 100.801H109.167L107.775 99.4568C107.519 99.6808 107.252 99.8888 106.975 100.081C106.708 100.262 106.415 100.417 106.095 100.545C105.775 100.673 105.428 100.774 105.055 100.849C104.692 100.923 104.287 100.961 103.839 100.961C103.103 100.961 102.463 100.843 101.919 100.609C101.385 100.363 100.969 100.006 100.671 99.5368C100.383 99.0674 100.239 98.4968 100.239 97.8248C100.239 97.2808 100.335 96.8114 100.527 96.4168C100.729 96.0221 101.017 95.6701 101.391 95.3608C101.764 95.0514 102.201 94.7528 102.703 94.4648C102.479 94.2088 102.26 93.9421 102.047 93.6648C101.833 93.3874 101.657 93.0888 101.519 92.7688C101.38 92.4381 101.311 92.0808 101.311 91.6968C101.311 91.1741 101.428 90.7261 101.663 90.3528C101.897 89.9794 102.233 89.6968 102.671 89.5048C103.119 89.3021 103.647 89.2008 104.255 89.2008ZM103.551 95.3448C103.167 95.5688 102.836 95.7981 102.559 96.0328C102.292 96.2568 102.084 96.5074 101.935 96.7848C101.785 97.0621 101.711 97.3928 101.711 97.7768C101.711 98.3634 101.908 98.8328 102.303 99.1848C102.697 99.5368 103.225 99.7128 103.887 99.7128C104.569 99.7128 105.156 99.6008 105.647 99.3768C106.137 99.1528 106.548 98.8861 106.879 98.5768L103.551 95.3448ZM104.207 90.3528C103.759 90.3528 103.391 90.4701 103.103 90.7048C102.825 90.9394 102.687 91.2648 102.687 91.6808C102.687 92.0648 102.788 92.4221 102.991 92.7528C103.193 93.0728 103.487 93.4301 103.871 93.8248C104.5 93.4621 104.948 93.1208 105.215 92.8008C105.492 92.4701 105.631 92.0914 105.631 91.6648C105.631 91.2808 105.503 90.9661 105.247 90.7208C104.991 90.4754 104.644 90.3528 104.207 90.3528ZM120.724 100.801H119.108L114.74 89.3128H116.388L119.94 98.8808L123.492 89.3128H125.06L120.724 100.801ZM126.37 90.9768V89.3128H127.938V90.9768H126.37ZM127.874 92.4328V100.801H126.434V92.4328H127.874ZM134.614 92.4008V93.8568C134.374 93.8088 134.182 93.7928 133.91 93.7928C132.694 93.7928 131.718 94.7528 131.718 96.2248V100.801H130.278V92.4328H131.718V93.8568C132.086 93.0088 132.902 92.3688 134.038 92.3688C134.262 92.3688 134.47 92.3848 134.614 92.4008ZM136.518 98.8008V93.6648H135.222V92.4328H136.518V89.9848H137.942V92.4328H139.846V93.6648H137.942V98.5768C137.942 99.4568 138.374 99.6168 139.11 99.6168C139.446 99.6168 139.686 99.6008 140.022 99.5208V100.753C139.654 100.833 139.238 100.881 138.758 100.881C137.334 100.881 136.518 100.401 136.518 98.8008ZM148.293 92.4328V100.801H146.853V99.6488C146.373 100.353 145.557 100.977 144.373 100.977C142.581 100.977 141.573 99.7448 141.573 97.9688V92.4328H143.013V97.6648C143.013 98.8488 143.525 99.6488 144.757 99.6488C145.797 99.6488 146.853 98.8648 146.853 97.4728V92.4328H148.293ZM152.78 100.945C151.26 100.945 150.028 100.049 150.028 98.5448C150.028 96.8808 151.324 96.1928 153.196 95.8088L155.228 95.3928V95.0408C155.228 94.0808 154.7 93.5368 153.58 93.5368C152.524 93.5368 151.9 94.0328 151.644 94.9608L150.284 94.6088C150.684 93.2488 151.916 92.2728 153.628 92.2728C155.5 92.2728 156.652 93.1848 156.652 94.9768V99.0568C156.652 99.6008 156.988 99.7768 157.548 99.6488V100.801C156.268 100.961 155.532 100.657 155.356 99.8568C154.844 100.513 153.916 100.945 152.78 100.945ZM155.228 97.9528V96.5128L153.596 96.8648C152.316 97.1208 151.452 97.4728 151.452 98.4808C151.452 99.2968 152.044 99.7768 152.956 99.7768C154.188 99.7768 155.228 99.0248 155.228 97.9528ZM160.546 89.3128V100.801H159.106V89.3128H160.546ZM167.253 95.0568C167.253 97.7768 168.757 99.6168 170.885 99.6168C172.373 99.6168 173.445 98.7528 173.861 97.2968L175.317 97.7768C174.645 99.7608 173.077 100.977 170.885 100.977C167.909 100.977 165.717 98.5608 165.717 95.0568C165.717 91.5528 167.909 89.1368 170.885 89.1368C173.077 89.1368 174.645 90.3528 175.317 92.3368L173.861 92.8168C173.445 91.3608 172.373 90.4968 170.885 90.4968C168.757 90.4968 167.253 92.3368 167.253 95.0568ZM178.968 100.945C177.448 100.945 176.216 100.049 176.216 98.5448C176.216 96.8808 177.512 96.1928 179.384 95.8088L181.416 95.3928V95.0408C181.416 94.0808 180.888 93.5368 179.768 93.5368C178.712 93.5368 178.088 94.0328 177.832 94.9608L176.472 94.6088C176.872 93.2488 178.104 92.2728 179.816 92.2728C181.688 92.2728 182.84 93.1848 182.84 94.9768V99.0568C182.84 99.6008 183.176 99.7768 183.736 99.6488V100.801C182.456 100.961 181.72 100.657 181.544 99.8568C181.032 100.513 180.104 100.945 178.968 100.945ZM181.416 97.9528V96.5128L179.784 96.8648C178.504 97.1208 177.64 97.4728 177.64 98.4808C177.64 99.2968 178.232 99.7768 179.144 99.7768C180.376 99.7768 181.416 99.0248 181.416 97.9528ZM189.63 92.4008V93.8568C189.39 93.8088 189.198 93.7928 188.926 93.7928C187.71 93.7928 186.734 94.7528 186.734 96.2248V100.801H185.294V92.4328H186.734V93.8568C187.102 93.0088 187.918 92.3688 189.054 92.3688C189.278 92.3688 189.486 92.3848 189.63 92.4008ZM194.006 100.977C191.686 100.977 190.358 98.9928 190.358 96.6248C190.358 94.2408 191.686 92.2728 194.006 92.2728C195.174 92.2728 196.102 92.8328 196.598 93.6488V89.3128H198.038V100.801H196.598V99.5848C196.102 100.417 195.174 100.977 194.006 100.977ZM196.63 96.3368C196.63 94.3848 195.446 93.5368 194.262 93.5368C192.694 93.5368 191.814 94.8168 191.814 96.6248C191.814 98.4168 192.694 99.7128 194.262 99.7128C195.446 99.7128 196.63 98.8488 196.63 96.9288V96.3368ZM199.491 99.0248L200.611 98.2088C201.059 99.1848 202.083 99.7768 203.171 99.7768C204.147 99.7768 205.011 99.3608 205.011 98.4488C205.011 97.5368 204.211 97.4088 202.835 97.1208C201.459 96.8168 200.019 96.5128 200.019 94.8008C200.019 93.3128 201.315 92.2728 203.091 92.2728C204.595 92.2728 205.827 93.0088 206.323 94.0008L205.299 94.8168C204.867 93.9848 204.083 93.4568 203.027 93.4568C202.067 93.4568 201.427 93.9368 201.427 94.6888C201.427 95.4728 202.163 95.6168 203.331 95.8728C204.771 96.2088 206.419 96.4968 206.419 98.3208C206.419 99.9208 204.963 100.977 203.171 100.977C201.651 100.977 200.131 100.321 199.491 99.0248Z" fill="#4D148C"/>
<rect x="16" y="91.8008" width="6" height="6" fill="#4D148C"/>
<path d="M46.584 119.456H42.696V129.6H41.16V119.456H37.272V118.112H46.584V119.456ZM53.4781 125.424C53.4781 128.016 51.8781 129.776 49.5901 129.776C47.3021 129.776 45.7021 128.016 45.7021 125.424C45.7021 122.832 47.3021 121.072 49.5901 121.072C51.8781 121.072 53.4781 122.832 53.4781 125.424ZM47.1581 125.424C47.1581 127.328 48.1181 128.544 49.5901 128.544C51.0621 128.544 52.0221 127.328 52.0221 125.424C52.0221 123.504 51.0621 122.288 49.5901 122.288C48.1181 122.288 47.1581 123.504 47.1581 125.424ZM56.7494 118.112V125.136L60.4614 121.232H62.2534L58.9894 124.528L62.5254 129.6H60.8454L57.9654 125.568L56.7494 126.8V129.6H55.3094V118.112H56.7494ZM66.8565 129.776C64.5365 129.776 62.9365 128 62.9365 125.424C62.9365 122.928 64.5205 121.072 66.7925 121.072C69.1285 121.072 70.3605 122.848 70.3605 125.168V125.648H64.3125C64.3925 127.408 65.4005 128.528 66.8565 128.528C67.9765 128.528 68.7765 127.92 69.0325 126.928L70.2965 127.376C69.7845 128.864 68.5205 129.776 66.8565 129.776ZM66.7765 122.304C65.5605 122.304 64.6485 123.12 64.3925 124.544H68.9045C68.8725 123.36 68.2325 122.304 66.7765 122.304ZM72.1531 129.6V121.232H73.5931V122.368C74.0731 121.68 74.9051 121.072 76.0891 121.072C77.8651 121.072 78.8731 122.304 78.8731 124.08V129.6H77.4331V124.464C77.4331 123.296 76.9371 122.416 75.6891 122.416C74.6491 122.416 73.5931 123.216 73.5931 124.608V129.6H72.1531ZM81.1204 119.776V118.112H82.6884V119.776H81.1204ZM82.6244 121.232V129.6H81.1844V121.232H82.6244ZM91.0761 128.368V129.6H84.4841V128.512L89.3161 122.464H84.5481V121.232H91.0281V122.336L86.2921 128.368H91.0761ZM94.9054 129.744C93.3854 129.744 92.1534 128.848 92.1534 127.344C92.1534 125.68 93.4494 124.992 95.3214 124.608L97.3534 124.192V123.84C97.3534 122.88 96.8254 122.336 95.7054 122.336C94.6494 122.336 94.0254 122.832 93.7694 123.76L92.4094 123.408C92.8094 122.048 94.0414 121.072 95.7534 121.072C97.6254 121.072 98.7774 121.984 98.7774 123.776V127.856C98.7774 128.4 99.1134 128.576 99.6734 128.448V129.6C98.3934 129.76 97.6574 129.456 97.4814 128.656C96.9694 129.312 96.0414 129.744 94.9054 129.744ZM97.3534 126.752V125.312L95.7214 125.664C94.4414 125.92 93.5774 126.272 93.5774 127.28C93.5774 128.096 94.1694 128.576 95.0814 128.576C96.3134 128.576 97.3534 127.824 97.3534 126.752ZM101.455 127.6V122.464H100.159V121.232H101.455V118.784H102.879V121.232H104.783V122.464H102.879V127.376C102.879 128.256 103.311 128.416 104.047 128.416C104.383 128.416 104.623 128.4 104.959 128.32V129.552C104.591 129.632 104.175 129.68 103.695 129.68C102.271 129.68 101.455 129.2 101.455 127.6ZM106.605 119.776V118.112H108.173V119.776H106.605ZM108.109 121.232V129.6H106.669V121.232H108.109ZM117.713 125.424C117.713 128.016 116.113 129.776 113.825 129.776C111.537 129.776 109.937 128.016 109.937 125.424C109.937 122.832 111.537 121.072 113.825 121.072C116.113 121.072 117.713 122.832 117.713 125.424ZM111.393 125.424C111.393 127.328 112.353 128.544 113.825 128.544C115.297 128.544 116.257 127.328 116.257 125.424C116.257 123.504 115.297 122.288 113.825 122.288C112.353 122.288 111.393 123.504 111.393 125.424ZM119.544 129.6V121.232H120.984V122.368C121.464 121.68 122.296 121.072 123.48 121.072C125.256 121.072 126.264 122.304 126.264 124.08V129.6H124.824V124.464C124.824 123.296 124.328 122.416 123.08 122.416C122.04 122.416 120.984 123.216 120.984 124.608V129.6H119.544ZM132.878 123.856C132.878 126.576 134.382 128.416 136.51 128.416C137.998 128.416 139.07 127.552 139.486 126.096L140.942 126.576C140.27 128.56 138.702 129.776 136.51 129.776C133.534 129.776 131.342 127.36 131.342 123.856C131.342 120.352 133.534 117.936 136.51 117.936C138.702 117.936 140.27 119.152 140.942 121.136L139.486 121.616C139.07 120.16 137.998 119.296 136.51 119.296C134.382 119.296 132.878 121.136 132.878 123.856ZM144.593 129.744C143.073 129.744 141.841 128.848 141.841 127.344C141.841 125.68 143.137 124.992 145.009 124.608L147.041 124.192V123.84C147.041 122.88 146.513 122.336 145.393 122.336C144.337 122.336 143.713 122.832 143.457 123.76L142.097 123.408C142.497 122.048 143.729 121.072 145.441 121.072C147.313 121.072 148.465 121.984 148.465 123.776V127.856C148.465 128.4 148.801 128.576 149.361 128.448V129.6C148.081 129.76 147.345 129.456 147.169 128.656C146.657 129.312 145.729 129.744 144.593 129.744ZM147.041 126.752V125.312L145.409 125.664C144.129 125.92 143.265 126.272 143.265 127.28C143.265 128.096 143.857 128.576 144.769 128.576C146.001 128.576 147.041 127.824 147.041 126.752ZM155.255 121.2V122.656C155.015 122.608 154.823 122.592 154.551 122.592C153.335 122.592 152.359 123.552 152.359 125.024V129.6H150.919V121.232H152.359V122.656C152.727 121.808 153.543 121.168 154.679 121.168C154.903 121.168 155.111 121.184 155.255 121.2ZM159.631 129.776C157.311 129.776 155.983 127.792 155.983 125.424C155.983 123.04 157.311 121.072 159.631 121.072C160.799 121.072 161.727 121.632 162.223 122.448V118.112H163.663V129.6H162.223V128.384C161.727 129.216 160.799 129.776 159.631 129.776ZM162.255 125.136C162.255 123.184 161.071 122.336 159.887 122.336C158.319 122.336 157.439 123.616 157.439 125.424C157.439 127.216 158.319 128.512 159.887 128.512C161.071 128.512 162.255 127.648 162.255 125.728V125.136Z" fill="#4D148C"/>
<rect x="16" y="120.6" width="6" height="6" fill="#4D148C"/>
<path d="M44.44 158.4H43.208L39.704 148.944V158.4H38.264V146.912H40.36L43.848 156.352L47.352 146.912H49.384V158.4H47.96V148.944L44.44 158.4ZM53.9523 158.544C52.4323 158.544 51.2003 157.648 51.2003 156.144C51.2003 154.48 52.4963 153.792 54.3683 153.408L56.4003 152.992V152.64C56.4003 151.68 55.8723 151.136 54.7523 151.136C53.6963 151.136 53.0723 151.632 52.8163 152.56L51.4563 152.208C51.8563 150.848 53.0883 149.872 54.8003 149.872C56.6723 149.872 57.8243 150.784 57.8243 152.576V156.656C57.8243 157.2 58.1603 157.376 58.7203 157.248V158.4C57.4403 158.56 56.7043 158.256 56.5283 157.456C56.0163 158.112 55.0883 158.544 53.9523 158.544ZM56.4003 155.552V154.112L54.7682 154.464C53.4883 154.72 52.6243 155.072 52.6243 156.08C52.6243 156.896 53.2163 157.376 54.1283 157.376C55.3602 157.376 56.4003 156.624 56.4003 155.552ZM60.2781 158.4V150.032H61.7181V151.168C62.1981 150.48 63.0301 149.872 64.2141 149.872C65.9901 149.872 66.9981 151.104 66.9981 152.88V158.4H65.5581V153.264C65.5581 152.096 65.0621 151.216 63.8141 151.216C62.7741 151.216 61.7181 152.016 61.7181 153.408V158.4H60.2781ZM71.4054 158.544C69.8854 158.544 68.6534 157.648 68.6534 156.144C68.6534 154.48 69.9494 153.792 71.8214 153.408L73.8534 152.992V152.64C73.8534 151.68 73.3254 151.136 72.2054 151.136C71.1494 151.136 70.5254 151.632 70.2694 152.56L68.9094 152.208C69.3094 150.848 70.5414 149.872 72.2534 149.872C74.1254 149.872 75.2774 150.784 75.2774 152.576V156.656C75.2774 157.2 75.6134 157.376 76.1734 157.248V158.4C74.8934 158.56 74.1574 158.256 73.9814 157.456C73.4694 158.112 72.5414 158.544 71.4054 158.544ZM73.8534 155.552V154.112L72.2214 154.464C70.9414 154.72 70.0774 155.072 70.0774 156.08C70.0774 156.896 70.6694 157.376 71.5814 157.376C72.8134 157.376 73.8534 156.624 73.8534 155.552ZM84.8193 157.648C84.8193 160.096 83.2033 161.456 80.9313 161.456C79.0913 161.456 77.7473 160.608 77.2833 159.072L78.6273 158.56C78.8993 159.632 79.7633 160.256 80.9313 160.256C82.4033 160.256 83.3793 159.504 83.3793 157.76V156.816C82.9313 157.632 81.9873 158.208 80.8193 158.208C78.5312 158.208 77.1873 156.32 77.1873 154.032C77.1873 151.76 78.5312 149.872 80.8193 149.872C81.9713 149.872 82.9313 150.448 83.3793 151.264V150.032H84.8193V157.648ZM83.3953 153.904C83.3953 152.032 82.2753 151.136 81.0753 151.136C79.5553 151.136 78.6273 152.272 78.6273 154.032C78.6273 155.792 79.5553 156.944 81.0753 156.944C82.2753 156.944 83.3953 156.048 83.3953 154.208V153.904ZM90.5596 158.576C88.2396 158.576 86.6396 156.8 86.6396 154.224C86.6396 151.728 88.2236 149.872 90.4956 149.872C92.8316 149.872 94.0636 151.648 94.0636 153.968V154.448H88.0156C88.0956 156.208 89.1036 157.328 90.5596 157.328C91.6796 157.328 92.4796 156.72 92.7356 155.728L93.9996 156.176C93.4876 157.664 92.2236 158.576 90.5596 158.576ZM90.4796 151.104C89.2636 151.104 88.3516 151.92 88.0956 153.344H92.6076C92.5756 152.16 91.9356 151.104 90.4796 151.104ZM97.2963 153.392V158.4H95.8563V150.032H97.2963V151.168C97.7443 150.48 98.5443 149.872 99.7123 149.872C100.832 149.872 101.616 150.432 102.032 151.296C102.496 150.608 103.392 149.872 104.704 149.872C106.432 149.872 107.472 151.104 107.472 152.88V158.4H106.032V153.264C106.032 152.096 105.552 151.216 104.368 151.216C103.408 151.216 102.384 152.032 102.384 153.392V158.4H100.944V153.264C100.944 152.096 100.464 151.216 99.2803 151.216C98.3203 151.216 97.2963 152.032 97.2963 153.392ZM113.138 158.576C110.818 158.576 109.218 156.8 109.218 154.224C109.218 151.728 110.802 149.872 113.074 149.872C115.41 149.872 116.642 151.648 116.642 153.968V154.448H110.594C110.674 156.208 111.682 157.328 113.138 157.328C114.258 157.328 115.058 156.72 115.314 155.728L116.578 156.176C116.066 157.664 114.802 158.576 113.138 158.576ZM113.058 151.104C111.842 151.104 110.93 151.92 110.674 153.344H115.186C115.154 152.16 114.514 151.104 113.058 151.104ZM118.434 158.4V150.032H119.874V151.168C120.354 150.48 121.186 149.872 122.37 149.872C124.146 149.872 125.154 151.104 125.154 152.88V158.4H123.714V153.264C123.714 152.096 123.218 151.216 121.97 151.216C120.93 151.216 119.874 152.016 119.874 153.408V158.4H118.434ZM127.69 156.4V151.264H126.394V150.032H127.69V147.584H129.114V150.032H131.018V151.264H129.114V156.176C129.114 157.056 129.546 157.216 130.282 157.216C130.618 157.216 130.858 157.2 131.194 157.12V158.352C130.826 158.432 130.41 158.48 129.93 158.48C128.506 158.48 127.69 158 127.69 156.4ZM139.942 146.8C140.518 146.8 141.009 146.902 141.414 147.104C141.83 147.296 142.15 147.574 142.374 147.936C142.598 148.299 142.71 148.742 142.71 149.264C142.71 149.936 142.491 150.507 142.054 150.976C141.627 151.446 141.083 151.872 140.422 152.256L143.51 155.232C143.787 154.902 144.011 154.523 144.182 154.096C144.363 153.659 144.513 153.19 144.63 152.688H146.054C145.883 153.371 145.67 154.006 145.414 154.592C145.158 155.179 144.827 155.691 144.422 156.128L146.758 158.4H144.854L143.462 157.056C143.206 157.28 142.939 157.488 142.662 157.68C142.395 157.862 142.102 158.016 141.782 158.144C141.462 158.272 141.115 158.374 140.742 158.448C140.379 158.523 139.974 158.56 139.526 158.56C138.79 158.56 138.15 158.443 137.606 158.208C137.073 157.963 136.657 157.606 136.358 157.136C136.07 156.667 135.926 156.096 135.926 155.424C135.926 154.88 136.022 154.411 136.214 154.016C136.417 153.622 136.705 153.27 137.078 152.96C137.451 152.651 137.889 152.352 138.39 152.064C138.166 151.808 137.947 151.542 137.734 151.264C137.521 150.987 137.345 150.688 137.206 150.368C137.067 150.038 136.998 149.68 136.998 149.296C136.998 148.774 137.115 148.326 137.35 147.952C137.585 147.579 137.921 147.296 138.358 147.104C138.806 146.902 139.334 146.8 139.942 146.8ZM139.238 152.944C138.854 153.168 138.523 153.398 138.246 153.632C137.979 153.856 137.771 154.107 137.622 154.384C137.473 154.662 137.398 154.992 137.398 155.376C137.398 155.963 137.595 156.432 137.99 156.784C138.385 157.136 138.913 157.312 139.574 157.312C140.257 157.312 140.843 157.2 141.334 156.976C141.825 156.752 142.235 156.486 142.566 156.176L139.238 152.944ZM139.894 147.952C139.446 147.952 139.078 148.07 138.79 148.304C138.513 148.539 138.374 148.864 138.374 149.28C138.374 149.664 138.475 150.022 138.678 150.352C138.881 150.672 139.174 151.03 139.558 151.424C140.187 151.062 140.635 150.72 140.902 150.4C141.179 150.07 141.318 149.691 141.318 149.264C141.318 148.88 141.19 148.566 140.934 148.32C140.678 148.075 140.331 147.952 139.894 147.952ZM152.956 158.4H151.436V146.912H158.86V148.256H152.956V151.952H157.948V153.296H152.956V158.4ZM166.449 150.032V158.4H165.009V157.248C164.529 157.952 163.713 158.576 162.529 158.576C160.737 158.576 159.729 157.344 159.729 155.568V150.032H161.169V155.264C161.169 156.448 161.681 157.248 162.913 157.248C163.953 157.248 165.009 156.464 165.009 155.072V150.032H166.449ZM170.281 146.912V158.4H168.841V146.912H170.281ZM176.332 146.768V148.048C176.092 148.016 175.948 148.016 175.708 148.016C174.86 148.016 174.396 148.384 174.396 149.456V150.032H176.252V151.264H174.396V158.4H172.956V151.264H171.692V150.032H172.956V149.36C172.956 147.728 173.852 146.736 175.564 146.736C175.852 146.736 176.012 146.752 176.332 146.768ZM177.527 148.576V146.912H179.095V148.576H177.527ZM179.031 150.032V158.4H177.591V150.032H179.031ZM182.874 146.912V158.4H181.434V146.912H182.874ZM186.718 146.912V158.4H185.278V146.912H186.718ZM190.562 153.392V158.4H189.122V150.032H190.562V151.168C191.01 150.48 191.81 149.872 192.978 149.872C194.098 149.872 194.882 150.432 195.298 151.296C195.762 150.608 196.658 149.872 197.97 149.872C199.698 149.872 200.738 151.104 200.738 152.88V158.4H199.298V153.264C199.298 152.096 198.818 151.216 197.634 151.216C196.674 151.216 195.65 152.032 195.65 153.392V158.4H194.21V153.264C194.21 152.096 193.73 151.216 192.546 151.216C191.586 151.216 190.562 152.032 190.562 153.392ZM206.403 158.576C204.083 158.576 202.483 156.8 202.483 154.224C202.483 151.728 204.067 149.872 206.339 149.872C208.675 149.872 209.907 151.648 209.907 153.968V154.448H203.859C203.939 156.208 204.947 157.328 206.403 157.328C207.523 157.328 208.323 156.72 208.579 155.728L209.843 156.176C209.331 157.664 208.067 158.576 206.403 158.576ZM206.323 151.104C205.107 151.104 204.195 151.92 203.939 153.344H208.451C208.419 152.16 207.779 151.104 206.323 151.104ZM211.7 158.4V150.032H213.14V151.168C213.62 150.48 214.452 149.872 215.636 149.872C217.412 149.872 218.42 151.104 218.42 152.88V158.4H216.98V153.264C216.98 152.096 216.484 151.216 215.236 151.216C214.196 151.216 213.14 152.016 213.14 153.408V158.4H211.7ZM220.955 156.4V151.264H219.659V150.032H220.955V147.584H222.379V150.032H224.283V151.264H222.379V156.176C222.379 157.056 222.811 157.216 223.547 157.216C223.883 157.216 224.123 157.2 224.459 157.12V158.352C224.091 158.432 223.675 158.48 223.195 158.48C221.771 158.48 220.955 158 220.955 156.4Z" fill="#4D148C"/>
<rect x="16" y="149.4" width="6" height="6" fill="#4D148C"/>
<path d="M18.128 208.256C18.128 210.976 19.632 212.816 21.76 212.816C23.248 212.816 24.32 211.952 24.736 210.496L26.192 210.976C25.52 212.96 23.952 214.176 21.76 214.176C18.784 214.176 16.592 211.76 16.592 208.256C16.592 204.752 18.784 202.336 21.76 202.336C23.952 202.336 25.52 203.552 26.192 205.536L24.736 206.016C24.32 204.56 23.248 203.696 21.76 203.696C19.632 203.696 18.128 205.536 18.128 208.256ZM34.3869 205.632V214H32.9469V212.848C32.4669 213.552 31.6509 214.176 30.4669 214.176C28.6749 214.176 27.6669 212.944 27.6669 211.168V205.632H29.1069V210.864C29.1069 212.048 29.6189 212.848 30.8509 212.848C31.8909 212.848 32.9469 212.064 32.9469 210.672V205.632H34.3869ZM35.8501 212.224L36.9701 211.408C37.4181 212.384 38.4421 212.976 39.5301 212.976C40.5061 212.976 41.3701 212.56 41.3701 211.648C41.3701 210.736 40.5701 210.608 39.1941 210.32C37.8181 210.016 36.3781 209.712 36.3781 208C36.3781 206.512 37.6741 205.472 39.4501 205.472C40.9541 205.472 42.1861 206.208 42.6821 207.2L41.6581 208.016C41.2261 207.184 40.4421 206.656 39.3861 206.656C38.4261 206.656 37.7861 207.136 37.7861 207.888C37.7861 208.672 38.5221 208.816 39.6901 209.072C41.1301 209.408 42.7781 209.696 42.7781 211.52C42.7781 213.12 41.3221 214.176 39.5301 214.176C38.0101 214.176 36.4901 213.52 35.8501 212.224ZM44.7834 212V206.864H43.4874V205.632H44.7834V203.184H46.2074V205.632H48.1114V206.864H46.2074V211.776C46.2074 212.656 46.6394 212.816 47.3754 212.816C47.7114 212.816 47.9514 212.8 48.2874 212.72V213.952C47.9194 214.032 47.5034 214.08 47.0234 214.08C45.5994 214.08 44.7834 213.6 44.7834 212ZM57.15 209.824C57.15 212.416 55.55 214.176 53.262 214.176C50.974 214.176 49.374 212.416 49.374 209.824C49.374 207.232 50.974 205.472 53.262 205.472C55.55 205.472 57.15 207.232 57.15 209.824ZM50.83 209.824C50.83 211.728 51.79 212.944 53.262 212.944C54.734 212.944 55.694 211.728 55.694 209.824C55.694 207.904 54.734 206.688 53.262 206.688C51.79 206.688 50.83 207.904 50.83 209.824ZM60.4213 208.992V214H58.9813V205.632H60.4213V206.768C60.8693 206.08 61.6693 205.472 62.8373 205.472C63.9573 205.472 64.7413 206.032 65.1573 206.896C65.6213 206.208 66.5173 205.472 67.8293 205.472C69.5573 205.472 70.5973 206.704 70.5973 208.48V214H69.1573V208.864C69.1573 207.696 68.6773 206.816 67.4933 206.816C66.5333 206.816 65.5093 207.632 65.5093 208.992V214H64.0693V208.864C64.0693 207.696 63.5893 206.816 62.4053 206.816C61.4453 206.816 60.4213 207.632 60.4213 208.992ZM72.8548 204.176V202.512H74.4228V204.176H72.8548ZM74.3588 205.632V214H72.9188V205.632H74.3588ZM82.8105 212.768V214H76.2185V212.912L81.0505 206.864H76.2825V205.632H82.7625V206.736L78.0265 212.768H82.8105ZM87.794 214.176C85.474 214.176 83.874 212.4 83.874 209.824C83.874 207.328 85.458 205.472 87.73 205.472C90.066 205.472 91.298 207.248 91.298 209.568V210.048H85.25C85.33 211.808 86.338 212.928 87.794 212.928C88.914 212.928 89.714 212.32 89.97 211.328L91.234 211.776C90.722 213.264 89.458 214.176 87.794 214.176ZM87.714 206.704C86.498 206.704 85.586 207.52 85.33 208.944H89.842C89.81 207.76 89.17 206.704 87.714 206.704ZM100.034 214H98.6096L95.4736 205.632H96.9936L99.3456 212.24L101.666 205.632H103.17L100.034 214ZM104.511 204.176V202.512H106.079V204.176H104.511ZM106.015 205.632V214H104.575V205.632H106.015ZM112.755 205.6V207.056C112.515 207.008 112.323 206.992 112.051 206.992C110.835 206.992 109.859 207.952 109.859 209.424V214H108.419V205.632H109.859V207.056C110.227 206.208 111.043 205.568 112.179 205.568C112.403 205.568 112.611 205.584 112.755 205.6ZM114.658 212V206.864H113.362V205.632H114.658V203.184H116.082V205.632H117.986V206.864H116.082V211.776C116.082 212.656 116.514 212.816 117.25 212.816C117.586 212.816 117.826 212.8 118.162 212.72V213.952C117.794 214.032 117.378 214.08 116.898 214.08C115.474 214.08 114.658 213.6 114.658 212ZM126.434 205.632V214H124.994V212.848C124.514 213.552 123.698 214.176 122.514 214.176C120.722 214.176 119.714 212.944 119.714 211.168V205.632H121.154V210.864C121.154 212.048 121.666 212.848 122.898 212.848C123.938 212.848 124.994 212.064 124.994 210.672V205.632H126.434ZM130.921 214.144C129.401 214.144 128.169 213.248 128.169 211.744C128.169 210.08 129.465 209.392 131.337 209.008L133.369 208.592V208.24C133.369 207.28 132.841 206.736 131.721 206.736C130.665 206.736 130.041 207.232 129.785 208.16L128.425 207.808C128.825 206.448 130.057 205.472 131.769 205.472C133.641 205.472 134.793 206.384 134.793 208.176V212.256C134.793 212.8 135.129 212.976 135.689 212.848V214C134.409 214.16 133.673 213.856 133.497 213.056C132.985 213.712 132.057 214.144 130.921 214.144ZM133.369 211.152V209.712L131.737 210.064C130.457 210.32 129.593 210.672 129.593 211.68C129.593 212.496 130.185 212.976 131.097 212.976C132.329 212.976 133.369 212.224 133.369 211.152ZM138.687 202.512V214H137.247V202.512H138.687ZM151.666 209.824C151.666 212.416 150.066 214.176 147.778 214.176C145.49 214.176 143.89 212.416 143.89 209.824C143.89 207.232 145.49 205.472 147.778 205.472C150.066 205.472 151.666 207.232 151.666 209.824ZM145.346 209.824C145.346 211.728 146.306 212.944 147.778 212.944C149.25 212.944 150.21 211.728 150.21 209.824C150.21 207.904 149.25 206.688 147.778 206.688C146.306 206.688 145.346 207.904 145.346 209.824ZM157.833 205.6V207.056C157.593 207.008 157.401 206.992 157.129 206.992C155.913 206.992 154.937 207.952 154.937 209.424V214H153.497V205.632H154.937V207.056C155.305 206.208 156.121 205.568 157.257 205.568C157.481 205.568 157.689 205.584 157.833 205.6ZM166.826 214.176C165.658 214.176 164.73 213.616 164.234 212.784V216.88H162.794V205.632H164.234V206.848C164.73 206.032 165.658 205.472 166.826 205.472C169.146 205.472 170.474 207.44 170.474 209.824C170.474 212.192 169.146 214.176 166.826 214.176ZM164.202 209.536V210.128C164.202 212.048 165.386 212.912 166.57 212.912C168.138 212.912 169.018 211.616 169.018 209.824C169.018 208.016 168.138 206.736 166.57 206.736C165.386 206.736 164.202 207.584 164.202 209.536ZM172.294 214V202.512H173.734V206.768C174.214 206.08 175.046 205.472 176.23 205.472C178.006 205.472 179.014 206.704 179.014 208.48V214H177.574V208.864C177.574 207.696 177.078 206.816 175.83 206.816C174.79 206.816 173.734 207.616 173.734 209.008V214H172.294ZM184.382 214.912C183.902 216.176 183.246 216.976 181.79 216.976C181.438 216.976 181.262 216.96 181.006 216.912V215.664C181.278 215.728 181.454 215.744 181.694 215.744C182.318 215.744 182.654 215.52 182.99 214.688L183.39 213.696L180.286 205.632H181.806L184.158 212.032L186.478 205.632H187.982L184.382 214.912ZM188.256 212.224L189.376 211.408C189.824 212.384 190.848 212.976 191.936 212.976C192.912 212.976 193.776 212.56 193.776 211.648C193.776 210.736 192.976 210.608 191.6 210.32C190.224 210.016 188.784 209.712 188.784 208C188.784 206.512 190.08 205.472 191.856 205.472C193.36 205.472 194.592 206.208 195.088 207.2L194.064 208.016C193.632 207.184 192.848 206.656 191.792 206.656C190.832 206.656 190.192 207.136 190.192 207.888C190.192 208.672 190.928 208.816 192.096 209.072C193.536 209.408 195.184 209.696 195.184 211.52C195.184 213.12 193.728 214.176 191.936 214.176C190.416 214.176 188.896 213.52 188.256 212.224ZM196.902 204.176V202.512H198.47V204.176H196.902ZM198.406 205.632V214H196.966V205.632H198.406ZM201.673 209.824C201.673 211.728 202.697 212.912 204.185 212.912C205.337 212.912 206.025 212.176 206.265 211.136L207.545 211.728C207.145 213.12 205.929 214.176 204.185 214.176C201.849 214.176 200.233 212.4 200.233 209.824C200.233 207.232 201.849 205.472 204.185 205.472C205.929 205.472 207.113 206.48 207.513 207.872L206.265 208.496C206.025 207.472 205.337 206.72 204.185 206.72C202.697 206.72 201.673 207.904 201.673 209.824ZM211.312 214.144C209.792 214.144 208.56 213.248 208.56 211.744C208.56 210.08 209.856 209.392 211.728 209.008L213.76 208.592V208.24C213.76 207.28 213.232 206.736 212.112 206.736C211.056 206.736 210.432 207.232 210.176 208.16L208.816 207.808C209.216 206.448 210.448 205.472 212.16 205.472C214.032 205.472 215.184 206.384 215.184 208.176V212.256C215.184 212.8 215.52 212.976 216.08 212.848V214C214.8 214.16 214.064 213.856 213.888 213.056C213.376 213.712 212.448 214.144 211.312 214.144ZM213.76 211.152V209.712L212.128 210.064C210.848 210.32 209.984 210.672 209.984 211.68C209.984 212.496 210.576 212.976 211.488 212.976C212.72 212.976 213.76 212.224 213.76 211.152ZM219.078 202.512V214H217.638V202.512H219.078ZM225.72 209.824C225.72 211.728 226.744 212.912 228.232 212.912C229.384 212.912 230.072 212.176 230.312 211.136L231.592 211.728C231.192 213.12 229.976 214.176 228.232 214.176C225.896 214.176 224.28 212.4 224.28 209.824C224.28 207.232 225.896 205.472 228.232 205.472C229.976 205.472 231.16 206.48 231.56 207.872L230.312 208.496C230.072 207.472 229.384 206.72 228.232 206.72C226.744 206.72 225.72 207.904 225.72 209.824ZM235.359 214.144C233.839 214.144 232.607 213.248 232.607 211.744C232.607 210.08 233.903 209.392 235.775 209.008L237.807 208.592V208.24C237.807 207.28 237.279 206.736 236.159 206.736C235.103 206.736 234.479 207.232 234.223 208.16L232.863 207.808C233.263 206.448 234.495 205.472 236.207 205.472C238.079 205.472 239.231 206.384 239.231 208.176V212.256C239.231 212.8 239.567 212.976 240.127 212.848V214C238.847 214.16 238.111 213.856 237.935 213.056C237.423 213.712 236.495 214.144 235.359 214.144ZM237.807 211.152V209.712L236.174 210.064C234.895 210.32 234.031 210.672 234.031 211.68C234.031 212.496 234.623 212.976 235.535 212.976C236.766 212.976 237.807 212.224 237.807 211.152ZM246.02 205.6V207.056C245.78 207.008 245.588 206.992 245.316 206.992C244.1 206.992 243.124 207.952 243.124 209.424V214H241.684V205.632H243.124V207.056C243.492 206.208 244.308 205.568 245.444 205.568C245.668 205.568 245.876 205.584 246.02 205.6ZM250.397 214.176C248.077 214.176 246.749 212.192 246.749 209.824C246.749 207.44 248.077 205.472 250.397 205.472C251.565 205.472 252.493 206.032 252.989 206.848V202.512H254.429V214H252.989V212.784C252.493 213.616 251.565 214.176 250.397 214.176ZM253.021 209.536C253.021 207.584 251.837 206.736 250.653 206.736C249.085 206.736 248.205 208.016 248.205 209.824C248.205 211.616 249.085 212.912 250.653 212.912C251.837 212.912 253.021 212.048 253.021 210.128V209.536ZM255.881 212.224L257.001 211.408C257.449 212.384 258.473 212.976 259.561 212.976C260.537 212.976 261.401 212.56 261.401 211.648C261.401 210.736 260.601 210.608 259.225 210.32C257.849 210.016 256.409 209.712 256.409 208C256.409 206.512 257.705 205.472 259.481 205.472C260.985 205.472 262.217 206.208 262.713 207.2L261.689 208.016C261.257 207.184 260.473 206.656 259.417 206.656C258.457 206.656 257.817 207.136 257.817 207.888C257.817 208.672 258.553 208.816 259.721 209.072C261.161 209.408 262.809 209.696 262.809 211.52C262.809 213.12 261.353 214.176 259.561 214.176C258.041 214.176 256.521 213.52 255.881 212.224ZM264.098 214V212.112H265.922V214.096C265.922 215.344 265.122 216.096 263.842 216.128V215.296C264.562 215.264 264.93 214.896 264.93 214.128V214H264.098ZM278.012 205.632V214H276.572V212.848C276.092 213.552 275.276 214.176 274.092 214.176C272.3 214.176 271.292 212.944 271.292 211.168V205.632H272.732V210.864C272.732 212.048 273.244 212.848 274.476 212.848C275.516 212.848 276.572 212.064 276.572 210.672V205.632H278.012ZM279.475 212.224L280.595 211.408C281.043 212.384 282.067 212.976 283.155 212.976C284.131 212.976 284.995 212.56 284.995 211.648C284.995 210.736 284.195 210.608 282.819 210.32C281.443 210.016 280.003 209.712 280.003 208C280.003 206.512 281.299 205.472 283.075 205.472C284.579 205.472 285.811 206.208 286.307 207.2L285.283 208.016C284.851 207.184 284.067 206.656 283.011 206.656C282.051 206.656 281.411 207.136 281.411 207.888C281.411 208.672 282.147 208.816 283.315 209.072C284.755 209.408 286.403 209.696 286.403 211.52C286.403 213.12 284.947 214.176 283.155 214.176C281.635 214.176 280.115 213.52 279.475 212.224ZM291.528 214.176C289.208 214.176 287.608 212.4 287.608 209.824C287.608 207.328 289.192 205.472 291.464 205.472C293.8 205.472 295.032 207.248 295.032 209.568V210.048H288.984C289.064 211.808 290.072 212.928 291.528 212.928C292.648 212.928 293.448 212.32 293.704 211.328L294.968 211.776C294.456 213.264 293.192 214.176 291.528 214.176ZM291.448 206.704C290.232 206.704 289.32 207.52 289.064 208.944H293.576C293.544 207.76 292.904 206.704 291.448 206.704ZM20.304 238.912C19.824 240.176 19.168 240.976 17.712 240.976C17.36 240.976 17.184 240.96 16.928 240.912V239.664C17.2 239.728 17.376 239.744 17.616 239.744C18.24 239.744 18.576 239.52 18.912 238.688L19.312 237.696L16.208 229.632H17.728L20.08 236.032L22.4 229.632H23.904L20.304 238.912ZM32.1969 233.824C32.1969 236.416 30.5969 238.176 28.3089 238.176C26.0209 238.176 24.4209 236.416 24.4209 233.824C24.4209 231.232 26.0209 229.472 28.3089 229.472C30.5969 229.472 32.1969 231.232 32.1969 233.824ZM25.8769 233.824C25.8769 235.728 26.8369 236.944 28.3089 236.944C29.7809 236.944 30.7409 235.728 30.7409 233.824C30.7409 231.904 29.7809 230.688 28.3089 230.688C26.8369 230.688 25.8769 231.904 25.8769 233.824ZM40.6681 229.632V238H39.2281V236.848C38.7481 237.552 37.9321 238.176 36.7481 238.176C34.9561 238.176 33.9481 236.944 33.9481 235.168V229.632H35.3881V234.864C35.3881 236.048 35.9001 236.848 37.1321 236.848C38.1721 236.848 39.2281 236.064 39.2281 234.672V229.632H40.6681ZM47.3954 229.6V231.056C47.1554 231.008 46.9634 230.992 46.6914 230.992C45.4754 230.992 44.4994 231.952 44.4994 233.424V238H43.0594V229.632H44.4994V231.056C44.8674 230.208 45.6834 229.568 46.8194 229.568C47.0434 229.568 47.2514 229.584 47.3954 229.6ZM59.5563 233.824C59.5563 236.416 57.9563 238.176 55.6683 238.176C53.3803 238.176 51.7803 236.416 51.7803 233.824C51.7803 231.232 53.3803 229.472 55.6683 229.472C57.9563 229.472 59.5563 231.232 59.5563 233.824ZM53.2363 233.824C53.2363 235.728 54.1963 236.944 55.6683 236.944C57.1403 236.944 58.1003 235.728 58.1003 233.824C58.1003 231.904 57.1403 230.688 55.6683 230.688C54.1963 230.688 53.2363 231.904 53.2363 233.824ZM65.2153 229.632H66.4313L68.1593 235.872L69.9033 229.632H71.3433L68.7993 238H67.5353L65.7913 231.792L64.0473 238H62.7833L60.2393 229.632H61.7273L63.4873 235.856L65.2153 229.632ZM72.7469 238V229.632H74.1869V230.768C74.6669 230.08 75.4989 229.472 76.6829 229.472C78.4589 229.472 79.4669 230.704 79.4669 232.48V238H78.0269V232.864C78.0269 231.696 77.5309 230.816 76.2829 230.816C75.2429 230.816 74.1869 231.616 74.1869 233.008V238H72.7469ZM89.1851 238.176C88.0171 238.176 87.0891 237.616 86.5931 236.784V238H85.1531V226.512H86.5931V230.848C87.0891 230.032 88.0171 229.472 89.1851 229.472C91.5051 229.472 92.8331 231.44 92.8331 233.824C92.8331 236.192 91.5051 238.176 89.1851 238.176ZM86.5611 233.536V234.128C86.5611 236.048 87.7451 236.912 88.9291 236.912C90.4971 236.912 91.3771 235.616 91.3771 233.824C91.3771 232.016 90.4971 230.736 88.9291 230.736C87.7451 230.736 86.5611 231.584 86.5611 233.536ZM98.9891 229.6V231.056C98.7491 231.008 98.5571 230.992 98.2851 230.992C97.0691 230.992 96.0931 231.952 96.0931 233.424V238H94.6531V229.632H96.0931V231.056C96.4611 230.208 97.2771 229.568 98.4131 229.568C98.6371 229.568 98.8451 229.584 98.9891 229.6ZM102.499 238.144C100.979 238.144 99.7471 237.248 99.7471 235.744C99.7471 234.08 101.043 233.392 102.915 233.008L104.947 232.592V232.24C104.947 231.28 104.419 230.736 103.299 230.736C102.243 230.736 101.619 231.232 101.363 232.16L100.003 231.808C100.403 230.448 101.635 229.472 103.347 229.472C105.219 229.472 106.371 230.384 106.371 232.176V236.256C106.371 236.8 106.707 236.976 107.267 236.848V238C105.987 238.16 105.251 237.856 105.075 237.056C104.563 237.712 103.635 238.144 102.499 238.144ZM104.947 235.152V233.712L103.315 234.064C102.035 234.32 101.171 234.672 101.171 235.68C101.171 236.496 101.763 236.976 102.675 236.976C103.907 236.976 104.947 236.224 104.947 235.152ZM108.825 238V229.632H110.265V230.768C110.745 230.08 111.577 229.472 112.761 229.472C114.537 229.472 115.545 230.704 115.545 232.48V238H114.105V232.864C114.105 231.696 113.609 230.816 112.361 230.816C111.321 230.816 110.265 231.616 110.265 233.008V238H108.825ZM120.928 238.176C118.608 238.176 117.28 236.192 117.28 233.824C117.28 231.44 118.608 229.472 120.928 229.472C122.096 229.472 123.024 230.032 123.52 230.848V226.512H124.96V238H123.52V236.784C123.024 237.616 122.096 238.176 120.928 238.176ZM123.552 233.536C123.552 231.584 122.368 230.736 121.184 230.736C119.616 230.736 118.736 232.016 118.736 233.824C118.736 235.616 119.616 236.912 121.184 236.912C122.368 236.912 123.552 236.048 123.552 234.128V233.536ZM127.277 228.176V226.512H128.845V228.176H127.277ZM128.781 229.632V238H127.341V229.632H128.781ZM131.184 238V229.632H132.624V230.768C133.104 230.08 133.936 229.472 135.12 229.472C136.896 229.472 137.904 230.704 137.904 232.48V238H136.464V232.864C136.464 231.696 135.968 230.816 134.72 230.816C133.68 230.816 132.624 231.616 132.624 233.008V238H131.184ZM147.304 237.248C147.304 239.696 145.688 241.056 143.416 241.056C141.576 241.056 140.232 240.208 139.768 238.672L141.112 238.16C141.384 239.232 142.248 239.856 143.416 239.856C144.888 239.856 145.864 239.104 145.864 237.36V236.416C145.416 237.232 144.472 237.808 143.304 237.808C141.016 237.808 139.672 235.92 139.672 233.632C139.672 231.36 141.016 229.472 143.304 229.472C144.456 229.472 145.416 230.048 145.864 230.864V229.632H147.304V237.248ZM145.88 233.504C145.88 231.632 144.76 230.736 143.56 230.736C142.04 230.736 141.112 231.872 141.112 233.632C141.112 235.392 142.04 236.544 143.56 236.544C144.76 236.544 145.88 235.648 145.88 233.808V233.504ZM149.364 238V236.112H151.188V238.096C151.188 239.344 150.388 240.096 149.108 240.128V239.296C149.828 239.264 150.196 238.896 150.196 238.128V238H149.364ZM160.302 226.4C160.878 226.4 161.368 226.501 161.774 226.704C162.19 226.896 162.51 227.173 162.734 227.536C162.958 227.899 163.07 228.341 163.07 228.864C163.07 229.536 162.851 230.107 162.414 230.576C161.987 231.045 161.443 231.472 160.782 231.856L163.87 234.832C164.147 234.501 164.371 234.123 164.542 233.696C164.723 233.259 164.872 232.789 164.99 232.288H166.414C166.243 232.971 166.03 233.605 165.774 234.192C165.518 234.779 165.187 235.291 164.782 235.728L167.118 238H165.214L163.822 236.656C163.566 236.88 163.299 237.088 163.022 237.28C162.755 237.461 162.462 237.616 162.142 237.744C161.822 237.872 161.475 237.973 161.102 238.048C160.739 238.123 160.334 238.16 159.886 238.16C159.15 238.16 158.51 238.043 157.966 237.808C157.432 237.563 157.016 237.205 156.718 236.736C156.43 236.267 156.286 235.696 156.286 235.024C156.286 234.48 156.382 234.011 156.574 233.616C156.776 233.221 157.064 232.869 157.438 232.56C157.811 232.251 158.248 231.952 158.75 231.664C158.526 231.408 158.307 231.141 158.094 230.864C157.88 230.587 157.704 230.288 157.566 229.968C157.427 229.637 157.358 229.28 157.358 228.896C157.358 228.373 157.475 227.925 157.71 227.552C157.944 227.179 158.28 226.896 158.718 226.704C159.166 226.501 159.694 226.4 160.302 226.4ZM159.598 232.544C159.214 232.768 158.883 232.997 158.606 233.232C158.339 233.456 158.131 233.707 157.982 233.984C157.832 234.261 157.758 234.592 157.758 234.976C157.758 235.563 157.955 236.032 158.35 236.384C158.744 236.736 159.272 236.912 159.934 236.912C160.616 236.912 161.203 236.8 161.694 236.576C162.184 236.352 162.595 236.085 162.926 235.776L159.598 232.544ZM160.254 227.552C159.806 227.552 159.438 227.669 159.15 227.904C158.872 228.139 158.734 228.464 158.734 228.88C158.734 229.264 158.835 229.621 159.038 229.952C159.24 230.272 159.534 230.629 159.918 231.024C160.547 230.661 160.995 230.32 161.262 230C161.539 229.669 161.678 229.291 161.678 228.864C161.678 228.48 161.55 228.165 161.294 227.92C161.038 227.675 160.691 227.552 160.254 227.552ZM172.595 233.824C172.595 235.728 173.619 236.912 175.107 236.912C176.259 236.912 176.947 236.176 177.187 235.136L178.467 235.728C178.067 237.12 176.851 238.176 175.107 238.176C172.771 238.176 171.155 236.4 171.155 233.824C171.155 231.232 172.771 229.472 175.107 229.472C176.851 229.472 178.035 230.48 178.435 231.872L177.187 232.496C176.947 231.472 176.259 230.72 175.107 230.72C173.619 230.72 172.595 231.904 172.595 233.824ZM187.244 233.824C187.244 236.416 185.644 238.176 183.356 238.176C181.068 238.176 179.468 236.416 179.468 233.824C179.468 231.232 181.068 229.472 183.356 229.472C185.644 229.472 187.244 231.232 187.244 233.824ZM180.924 233.824C180.924 235.728 181.884 236.944 183.356 236.944C184.828 236.944 185.788 235.728 185.788 233.824C185.788 231.904 184.828 230.688 183.356 230.688C181.884 230.688 180.924 231.904 180.924 233.824ZM189.075 238V229.632H190.515V230.768C190.995 230.08 191.827 229.472 193.011 229.472C194.787 229.472 195.795 230.704 195.795 232.48V238H194.355V232.864C194.355 231.696 193.859 230.816 192.611 230.816C191.571 230.816 190.515 231.616 190.515 233.008V238H189.075ZM198.33 236V230.864H197.034V229.632H198.33V227.184H199.754V229.632H201.658V230.864H199.754V235.776C199.754 236.656 200.186 236.816 200.922 236.816C201.258 236.816 201.498 236.8 201.834 236.72V237.952C201.466 238.032 201.05 238.08 200.57 238.08C199.146 238.08 198.33 237.6 198.33 236ZM207.88 229.6V231.056C207.64 231.008 207.448 230.992 207.176 230.992C205.96 230.992 204.984 231.952 204.984 233.424V238H203.544V229.632H204.984V231.056C205.352 230.208 206.168 229.568 207.304 229.568C207.528 229.568 207.736 229.584 207.88 229.6ZM216.322 233.824C216.322 236.416 214.722 238.176 212.434 238.176C210.146 238.176 208.546 236.416 208.546 233.824C208.546 231.232 210.146 229.472 212.434 229.472C214.722 229.472 216.322 231.232 216.322 233.824ZM210.002 233.824C210.002 235.728 210.962 236.944 212.434 236.944C213.906 236.944 214.866 235.728 214.866 233.824C214.866 231.904 213.906 230.688 212.434 230.688C210.962 230.688 210.002 231.904 210.002 233.824ZM219.593 226.512V238H218.153V226.512H219.593ZM229.356 229.632H230.572L232.3 235.872L234.044 229.632H235.484L232.94 238H231.676L229.932 231.792L228.188 238H226.924L224.38 229.632H225.868L227.628 235.856L229.356 229.632ZM236.888 238V226.512H238.328V230.768C238.808 230.08 239.64 229.472 240.824 229.472C242.6 229.472 243.608 230.704 243.608 232.48V238H242.168V232.864C242.168 231.696 241.672 230.816 240.424 230.816C239.384 230.816 238.328 231.616 238.328 233.008V238H236.888ZM249.263 238.176C246.943 238.176 245.343 236.4 245.343 233.824C245.343 231.328 246.927 229.472 249.199 229.472C251.535 229.472 252.767 231.248 252.767 233.568V234.048H246.719C246.799 235.808 247.807 236.928 249.263 236.928C250.383 236.928 251.183 236.32 251.439 235.328L252.703 235.776C252.191 237.264 250.927 238.176 249.263 238.176ZM249.183 230.704C247.967 230.704 247.055 231.52 246.799 232.944H251.311C251.279 231.76 250.639 230.704 249.183 230.704ZM258.895 229.6V231.056C258.655 231.008 258.463 230.992 258.191 230.992C256.975 230.992 255.999 231.952 255.999 233.424V238H254.559V229.632H255.999V231.056C256.367 230.208 257.183 229.568 258.319 229.568C258.543 229.568 258.751 229.584 258.895 229.6ZM263.482 238.176C261.162 238.176 259.562 236.4 259.562 233.824C259.562 231.328 261.146 229.472 263.418 229.472C265.754 229.472 266.986 231.248 266.986 233.568V234.048H260.938C261.018 235.808 262.026 236.928 263.482 236.928C264.602 236.928 265.402 236.32 265.658 235.328L266.922 235.776C266.41 237.264 265.146 238.176 263.482 238.176ZM263.402 230.704C262.186 230.704 261.274 231.52 261.018 232.944H265.53C265.498 231.76 264.858 230.704 263.402 230.704ZM274.249 238.144C272.729 238.144 271.497 237.248 271.497 235.744C271.497 234.08 272.793 233.392 274.665 233.008L276.697 232.592V232.24C276.697 231.28 276.169 230.736 275.049 230.736C273.993 230.736 273.369 231.232 273.113 232.16L271.753 231.808C272.153 230.448 273.385 229.472 275.097 229.472C276.969 229.472 278.121 230.384 278.121 232.176V236.256C278.121 236.8 278.457 236.976 279.017 236.848V238C277.737 238.16 277.001 237.856 276.825 237.056C276.313 237.712 275.385 238.144 274.249 238.144ZM276.697 235.152V233.712L275.065 234.064C273.785 234.32 272.921 234.672 272.921 235.68C272.921 236.496 273.513 236.976 274.425 236.976C275.657 236.976 276.697 236.224 276.697 235.152ZM280.575 238V229.632H282.015V230.768C282.495 230.08 283.327 229.472 284.511 229.472C286.287 229.472 287.295 230.704 287.295 232.48V238H285.855V232.864C285.855 231.696 285.359 230.816 284.111 230.816C283.071 230.816 282.015 231.616 282.015 233.008V238H280.575ZM292.678 238.176C290.358 238.176 289.03 236.192 289.03 233.824C289.03 231.44 290.358 229.472 292.678 229.472C293.846 229.472 294.774 230.032 295.27 230.848V226.512H296.71V238H295.27V236.784C294.774 237.616 293.846 238.176 292.678 238.176ZM295.302 233.536C295.302 231.584 294.118 230.736 292.934 230.736C291.366 230.736 290.486 232.016 290.486 233.824C290.486 235.616 291.366 236.912 292.934 236.912C294.118 236.912 295.302 236.048 295.302 234.128V233.536ZM17.2 262V250.512H18.64V254.768C19.12 254.08 19.952 253.472 21.136 253.472C22.912 253.472 23.92 254.704 23.92 256.48V262H22.48V256.864C22.48 255.696 21.984 254.816 20.736 254.816C19.696 254.816 18.64 255.616 18.64 257.008V262H17.2ZM33.4313 257.824C33.4313 260.416 31.8313 262.176 29.5433 262.176C27.2553 262.176 25.6553 260.416 25.6553 257.824C25.6553 255.232 27.2553 253.472 29.5433 253.472C31.8313 253.472 33.4313 255.232 33.4313 257.824ZM27.1113 257.824C27.1113 259.728 28.0713 260.944 29.5433 260.944C31.0153 260.944 31.9753 259.728 31.9753 257.824C31.9753 255.904 31.0153 254.688 29.5433 254.688C28.0713 254.688 27.1113 255.904 27.1113 257.824ZM39.0903 253.632H40.3063L42.0343 259.872L43.7783 253.632H45.2183L42.6743 262H41.4103L39.6663 255.792L37.9223 262H36.6583L34.1143 253.632H35.6023L37.3623 259.856L39.0903 253.632ZM50.8609 257.824C50.8609 259.728 51.8849 260.912 53.3729 260.912C54.5249 260.912 55.2129 260.176 55.4529 259.136L56.7329 259.728C56.3329 261.12 55.1169 262.176 53.3729 262.176C51.0369 262.176 49.4209 260.4 49.4209 257.824C49.4209 255.232 51.0369 253.472 53.3729 253.472C55.1169 253.472 56.3009 254.48 56.7009 255.872L55.4529 256.496C55.2129 255.472 54.5249 254.72 53.3729 254.72C51.8849 254.72 50.8609 255.904 50.8609 257.824ZM60.4991 262.144C58.9791 262.144 57.7471 261.248 57.7471 259.744C57.7471 258.08 59.0431 257.392 60.9151 257.008L62.9471 256.592V256.24C62.9471 255.28 62.4191 254.736 61.2991 254.736C60.2431 254.736 59.6191 255.232 59.3631 256.16L58.0031 255.808C58.4031 254.448 59.6351 253.472 61.3471 253.472C63.2191 253.472 64.3711 254.384 64.3711 256.176V260.256C64.3711 260.8 64.7071 260.976 65.2671 260.848V262C63.9871 262.16 63.2511 261.856 63.0751 261.056C62.5631 261.712 61.6351 262.144 60.4991 262.144ZM62.9471 259.152V257.712L61.3151 258.064C60.0351 258.32 59.1711 258.672 59.1711 259.68C59.1711 260.496 59.7631 260.976 60.6751 260.976C61.9071 260.976 62.9471 260.224 62.9471 259.152ZM71.161 253.6V255.056C70.921 255.008 70.729 254.992 70.457 254.992C69.241 254.992 68.265 255.952 68.265 257.424V262H66.825V253.632H68.265V255.056C68.633 254.208 69.449 253.568 70.585 253.568C70.809 253.568 71.017 253.584 71.161 253.6ZM75.5376 262.176C73.2176 262.176 71.8896 260.192 71.8896 257.824C71.8896 255.44 73.2176 253.472 75.5376 253.472C76.7056 253.472 77.6336 254.032 78.1296 254.848V250.512H79.5696V262H78.1296V260.784C77.6336 261.616 76.7056 262.176 75.5376 262.176ZM78.1616 257.536C78.1616 255.584 76.9776 254.736 75.7936 254.736C74.2256 254.736 73.3456 256.016 73.3456 257.824C73.3456 259.616 74.2256 260.912 75.7936 260.912C76.9776 260.912 78.1616 260.048 78.1616 258.128V257.536ZM81.022 260.224L82.142 259.408C82.59 260.384 83.614 260.976 84.702 260.976C85.678 260.976 86.542 260.56 86.542 259.648C86.542 258.736 85.742 258.608 84.366 258.32C82.99 258.016 81.55 257.712 81.55 256C81.55 254.512 82.846 253.472 84.622 253.472C86.126 253.472 87.358 254.208 87.854 255.2L86.83 256.016C86.398 255.184 85.614 254.656 84.558 254.656C83.598 254.656 82.958 255.136 82.958 255.888C82.958 256.672 83.694 256.816 84.862 257.072C86.302 257.408 87.95 257.696 87.95 259.52C87.95 261.12 86.494 262.176 84.702 262.176C83.182 262.176 81.662 261.52 81.022 260.224ZM93.9703 257.824C93.9703 259.728 94.9943 260.912 96.4823 260.912C97.6343 260.912 98.3223 260.176 98.5623 259.136L99.8423 259.728C99.4423 261.12 98.2263 262.176 96.4823 262.176C94.1463 262.176 92.5303 260.4 92.5303 257.824C92.5303 255.232 94.1463 253.472 96.4823 253.472C98.2263 253.472 99.4103 254.48 99.8103 255.872L98.5623 256.496C98.3223 255.472 97.6343 254.72 96.4823 254.72C94.9943 254.72 93.9703 255.904 93.9703 257.824ZM103.609 262.144C102.089 262.144 100.857 261.248 100.857 259.744C100.857 258.08 102.153 257.392 104.025 257.008L106.057 256.592V256.24C106.057 255.28 105.529 254.736 104.409 254.736C103.353 254.736 102.729 255.232 102.473 256.16L101.113 255.808C101.513 254.448 102.745 253.472 104.457 253.472C106.329 253.472 107.481 254.384 107.481 256.176V260.256C107.481 260.8 107.817 260.976 108.377 260.848V262C107.097 262.16 106.361 261.856 106.185 261.056C105.673 261.712 104.745 262.144 103.609 262.144ZM106.057 259.152V257.712L104.424 258.064C103.145 258.32 102.281 258.672 102.281 259.68C102.281 260.496 102.873 260.976 103.785 260.976C105.016 260.976 106.057 260.224 106.057 259.152ZM109.934 262V253.632H111.374V254.768C111.854 254.08 112.686 253.472 113.87 253.472C115.646 253.472 116.654 254.704 116.654 256.48V262H115.214V256.864C115.214 255.696 114.718 254.816 113.47 254.816C112.43 254.816 111.374 255.616 111.374 257.008V262H109.934ZM126.373 262.176C125.205 262.176 124.277 261.616 123.781 260.784V262H122.341V250.512H123.781V254.848C124.277 254.032 125.205 253.472 126.373 253.472C128.693 253.472 130.021 255.44 130.021 257.824C130.021 260.192 128.693 262.176 126.373 262.176ZM123.749 257.536V258.128C123.749 260.048 124.933 260.912 126.117 260.912C127.685 260.912 128.565 259.616 128.565 257.824C128.565 256.016 127.685 254.736 126.117 254.736C124.933 254.736 123.749 255.584 123.749 257.536ZM135.185 262.176C132.865 262.176 131.265 260.4 131.265 257.824C131.265 255.328 132.849 253.472 135.121 253.472C137.457 253.472 138.689 255.248 138.689 257.568V258.048H132.641C132.721 259.808 133.729 260.928 135.185 260.928C136.305 260.928 137.105 260.32 137.361 259.328L138.625 259.776C138.113 261.264 136.849 262.176 135.185 262.176ZM135.105 254.704C133.889 254.704 132.977 255.52 132.721 256.944H137.233C137.201 255.76 136.561 254.704 135.105 254.704ZM150.496 253.632V262H149.056V260.848C148.576 261.552 147.76 262.176 146.576 262.176C144.784 262.176 143.776 260.944 143.776 259.168V253.632H145.216V258.864C145.216 260.048 145.728 260.848 146.96 260.848C148 260.848 149.056 260.064 149.056 258.672V253.632H150.496ZM151.96 260.224L153.08 259.408C153.528 260.384 154.552 260.976 155.64 260.976C156.616 260.976 157.48 260.56 157.48 259.648C157.48 258.736 156.68 258.608 155.304 258.32C153.928 258.016 152.488 257.712 152.488 256C152.488 254.512 153.784 253.472 155.56 253.472C157.064 253.472 158.296 254.208 158.792 255.2L157.768 256.016C157.336 255.184 156.552 254.656 155.496 254.656C154.536 254.656 153.896 255.136 153.896 255.888C153.896 256.672 154.632 256.816 155.799 257.072C157.24 257.408 158.888 257.696 158.888 259.52C158.888 261.12 157.432 262.176 155.64 262.176C154.12 262.176 152.6 261.52 151.96 260.224ZM164.013 262.176C161.693 262.176 160.093 260.4 160.093 257.824C160.093 255.328 161.677 253.472 163.949 253.472C166.285 253.472 167.517 255.248 167.517 257.568V258.048H161.469C161.549 259.808 162.557 260.928 164.013 260.928C165.133 260.928 165.933 260.32 166.189 259.328L167.453 259.776C166.941 261.264 165.677 262.176 164.013 262.176ZM163.933 254.704C162.717 254.704 161.805 255.52 161.549 256.944H166.061C166.029 255.76 165.389 254.704 163.933 254.704ZM172.381 262.176C170.061 262.176 168.733 260.192 168.733 257.824C168.733 255.44 170.061 253.472 172.381 253.472C173.549 253.472 174.477 254.032 174.973 254.848V250.512H176.413V262H174.973V260.784C174.477 261.616 173.549 262.176 172.381 262.176ZM175.005 257.536C175.005 255.584 173.821 254.736 172.637 254.736C171.069 254.736 170.189 256.016 170.189 257.824C170.189 259.616 171.069 260.912 172.637 260.912C173.821 260.912 175.005 260.048 175.005 258.128V257.536Z" fill="#FF5900"/>
</svg>
