<svg width="207" height="38" viewBox="0 0 207 38" fill="none" xmlns="http://www.w3.org/2000/svg">
<path d="M24.7949 23.233L24.8867 18.5095L29.0756 16.3629V25.7847L24.7949 23.233Z" fill="#3C1777"/>
<path d="M16.3837 28.0482C16.5716 27.8603 24.7948 23.2329 24.7948 23.2329L29.0756 25.7805L16.3837 32.5796V28.0482Z" fill="#FF6600"/>
<path d="M29.0464 30.1574L29.0547 25.7848L29.0756 16.363L24.8867 18.5096L16.3837 22.8614V18.5054L32.755 9.15878L32.7758 28.0484" fill="#441582"/>
<path d="M29.0551 25.7848V30.1574L16.3967 37.2906L16.3257 32.5839L29.0551 25.7848Z" fill="#E8640A"/>
<path d="M16.3837 13.8447L29.0756 6.81589L32.7549 9.15882L16.3837 18.5973V13.8447Z" fill="#4D148C"/>
<path d="M7.98085 23.233L7.88898 18.5095L3.69592 16.3629V25.7847L7.98085 23.233Z" fill="#4D148C"/>
<path d="M16.3919 28.0482C16.204 27.8603 7.98076 23.2329 7.98076 23.2329L3.70001 25.7805L16.3919 32.5796V28.0482Z" fill="#FF6600"/>
<path d="M3.72949 30.1574L3.72113 25.7848L3.69605 16.363L7.88911 18.5096L16.3921 22.8614V18.6057L0 9.15878V28.0484" fill="#3C1777"/>
<path d="M3.72104 25.7848V30.1574L16.3795 37.2906L16.4463 32.5839L3.72104 25.7848Z" fill="#D8600E"/>
<path d="M16.3864 13.8447L3.69028 6.81589L0.0151367 9.15882L16.3864 18.5973V13.8447Z" fill="#4D148C"/>
<path d="M16.392 0L29.134 6.85336L24.5943 9.36752L16.392 4.48121L8.35672 9.4761L3.69592 6.81577L16.392 0Z" fill="#D3D1D2"/>
<path d="M16.3922 4.48143L8.34857 9.47216L11.9569 11.3891L16.3922 9.07958V8.73294V4.48143Z" fill="#B3B3B2"/>
<path d="M16.3923 4.48143V8.77053V9.07959L20.8443 11.4058L24.5697 9.34687L16.3923 4.48143Z" fill="#B3B3B2"/>
<path d="M47.6769 26.9372C47.6769 27.2003 47.6142 27.3882 47.4931 27.501C47.372 27.6138 47.1798 27.6681 46.9167 27.6681H43.5089C43.2625 27.6681 43.0829 27.6054 42.9576 27.4843C42.8365 27.3632 42.7738 27.1794 42.7738 26.933V8.73671C42.7738 8.39843 42.8323 8.13531 42.9451 7.94738C43.0578 7.75944 43.2249 7.66757 43.4504 7.66757C43.6216 7.66757 43.797 7.73439 43.985 7.86386C44.1729 7.9975 44.3984 8.21049 44.6615 8.51119L52.7762 17.2982L60.8615 8.51119C61.1622 8.19379 61.3961 7.97244 61.5674 7.84715C61.7344 7.72604 61.9056 7.66339 62.0727 7.66339C62.5237 7.66339 62.7493 8.01838 62.7493 8.73253V26.9289C62.7493 27.1753 62.6908 27.3548 62.5822 27.4801C62.4694 27.6012 62.2815 27.6639 62.0184 27.6639H58.6105C58.1052 27.6639 57.8504 27.4217 57.8504 26.933V18.4258L53.8202 23.0156C53.5571 23.2954 53.3525 23.4959 53.2021 23.6087C53.0518 23.7214 52.9015 23.7757 52.7511 23.7757C52.6008 23.7757 52.4504 23.7172 52.3 23.6087C52.1497 23.4959 51.9534 23.2996 51.707 23.0156L47.6769 18.4258V26.9372Z" fill="#4D148C"/>
<path d="M67.2679 12.5707C68.1784 11.0129 69.4313 9.7934 71.0266 8.90801C72.622 8.0268 74.4261 7.58411 76.435 7.58411C78.4647 7.58411 80.2814 8.02263 81.8851 8.89548C83.4888 9.76834 84.7459 10.9795 85.6438 12.5289C86.5459 14.0783 86.9969 15.8407 86.9969 17.812C86.9969 19.7832 86.5417 21.5456 85.6312 23.0951C84.7208 24.6445 83.4595 25.8556 81.8433 26.7285C80.227 27.6013 78.4062 28.0399 76.3765 28.0399C74.3844 28.0399 72.5927 27.6097 70.9974 26.7452C69.402 25.8807 68.1533 24.6737 67.2512 23.1243C66.3491 21.5749 65.8981 19.825 65.8981 17.8704C65.9022 15.8909 66.3575 14.1284 67.2679 12.5707ZM71.6781 20.8231C72.1459 21.6876 72.7932 22.3558 73.6201 22.8236C74.447 23.2913 75.3742 23.5294 76.4099 23.5294C77.4415 23.5294 78.377 23.2913 79.2122 22.8111C80.0475 22.3308 80.7115 21.6626 81.2002 20.7981C81.6888 19.9336 81.931 18.9479 81.931 17.8412C81.931 16.6969 81.693 15.6904 81.2127 14.8259C80.7324 13.9614 80.0767 13.289 79.2414 12.8129C78.4062 12.3326 77.4707 12.0946 76.4391 12.0946C75.4076 12.0946 74.4721 12.3326 73.6368 12.8129C72.8016 13.2932 72.15 13.9697 71.6781 14.8426C71.2104 15.7155 70.9723 16.7178 70.9723 17.8412C70.9723 18.9646 71.2062 19.9586 71.6781 20.8231Z" fill="#4D148C"/>
<path d="M102.621 8.1192C102.742 8.00644 102.926 7.95215 103.172 7.95215H106.58C107.086 7.95215 107.34 8.19437 107.34 8.68301V26.9378C107.34 27.6686 107.115 28.0362 106.664 28.0362C106.476 28.0362 106.275 27.9652 106.058 27.8232C105.841 27.6812 105.557 27.4431 105.198 27.1049L95.0577 17.5828V26.9336C95.0577 27.1967 94.995 27.3847 94.8739 27.4974C94.7528 27.6102 94.5607 27.6645 94.2976 27.6645H90.8897C90.6433 27.6645 90.4637 27.6018 90.3384 27.4807C90.2173 27.3596 90.1546 27.1758 90.1546 26.9294V8.67466C90.1546 7.9438 90.3802 7.57628 90.8312 7.57628C91.0191 7.57628 91.2196 7.64728 91.4368 7.78928C91.654 7.93127 91.9379 8.16931 92.2971 8.50759L102.437 18.0297V8.67883C102.437 8.41989 102.5 8.23196 102.621 8.1192Z" fill="#4D148C"/>
<path d="M124.734 23.3291C124.855 23.4419 124.918 23.6298 124.918 23.893V26.9333C124.918 27.422 124.663 27.6642 124.158 27.6642H112.297C112.051 27.6642 111.871 27.6015 111.746 27.4804C111.625 27.3593 111.562 27.1756 111.562 26.9291V8.67436C111.562 8.41125 111.625 8.22331 111.746 8.11055C111.867 7.99779 112.051 7.9435 112.297 7.9435H124.129C124.634 7.9435 124.889 8.18572 124.889 8.67436V11.7147C124.889 11.9778 124.826 12.1658 124.705 12.2785C124.584 12.3913 124.392 12.4456 124.129 12.4456H116.891C116.72 12.4456 116.611 12.479 116.553 12.5458C116.494 12.6126 116.469 12.7212 116.469 12.8716V15.0683C116.469 15.2354 116.498 15.3481 116.553 15.4066C116.611 15.4651 116.72 15.4901 116.891 15.4901H123.201C123.464 15.4901 123.652 15.5528 123.765 15.6739C123.878 15.795 123.932 15.9871 123.932 16.2502V19.2656C123.932 19.512 123.874 19.6915 123.765 19.8168C123.652 19.9379 123.464 20.0006 123.201 20.0006H116.891C116.72 20.0006 116.611 20.034 116.553 20.1008C116.494 20.1676 116.469 20.2762 116.469 20.4266V22.7361C116.469 22.8864 116.498 22.995 116.553 23.0618C116.611 23.1287 116.72 23.1621 116.891 23.1621H124.158C124.417 23.1621 124.613 23.2164 124.734 23.3291Z" fill="#4D148C"/>
<path d="M139.903 8.73675C140.09 8.39847 140.27 8.18129 140.437 8.08941C140.608 7.99753 140.867 7.94742 141.226 7.94742H144.973C145.365 7.94742 145.566 8.06853 145.566 8.31494C145.566 8.44858 145.507 8.59476 145.399 8.76599L138.441 20.372V26.9372C138.441 27.1836 138.382 27.3632 138.27 27.4885C138.157 27.6096 137.969 27.6723 137.706 27.6723H134.269C134.022 27.6723 133.843 27.6096 133.717 27.4885C133.596 27.3674 133.534 27.1836 133.534 26.9372V20.514L126.492 8.76599C126.38 8.59894 126.325 8.44858 126.325 8.31494C126.325 8.07271 126.522 7.94742 126.918 7.94742H130.807C131.161 7.94742 131.425 7.99336 131.596 8.08941C131.767 8.18547 131.942 8.39847 132.13 8.73675L136.019 15.611L139.903 8.73675Z" fill="#4D148C"/>
<path d="M150.791 24.9201C150.836 24.966 150.928 24.991 151.058 24.991H159.369C159.594 24.991 159.753 25.0328 159.849 25.1163C159.941 25.1999 159.991 25.3669 159.991 25.6091V27.0458C159.991 27.288 159.945 27.4551 159.849 27.5386C159.753 27.6221 159.594 27.6639 159.369 27.6639H148.523C148.297 27.6639 148.139 27.6221 148.042 27.5386C147.946 27.4551 147.9 27.288 147.9 27.0458V8.56552C147.9 8.32329 147.946 8.15624 148.042 8.07272C148.134 7.98919 148.297 7.94742 148.523 7.94742H150.101C150.327 7.94742 150.486 7.98919 150.582 8.07272C150.674 8.15624 150.724 8.32329 150.724 8.56552V24.6778C150.72 24.7948 150.745 24.8741 150.791 24.9201Z" fill="#FF6600"/>
<path d="M166.126 27.5433C166.03 27.6268 165.871 27.6686 165.646 27.6686H164.067C163.842 27.6686 163.683 27.6268 163.587 27.5433C163.491 27.4598 163.445 27.2927 163.445 27.0505V8.57019C163.445 8.32796 163.491 8.1609 163.587 8.07737C163.679 7.99385 163.842 7.95209 164.067 7.95209H165.646C165.871 7.95209 166.03 7.99385 166.126 8.07737C166.218 8.1609 166.268 8.32796 166.268 8.57019V27.0505C166.268 27.2927 166.222 27.4556 166.126 27.5433Z" fill="#FF6600"/>
<path d="M184.552 8.07679C184.644 7.99326 184.807 7.9515 185.033 7.9515H186.611C186.837 7.9515 186.995 7.99326 187.092 8.07679C187.183 8.16031 187.234 8.32738 187.234 8.5696V27.0499C187.234 27.668 187.046 27.9812 186.67 27.9812C186.519 27.9812 186.361 27.9186 186.189 27.7975C186.022 27.6763 185.784 27.4466 185.484 27.1084L174.049 13.6146V27.0499C174.049 27.2921 174.003 27.4592 173.907 27.5427C173.811 27.6262 173.652 27.668 173.427 27.668H171.848C171.622 27.668 171.464 27.6262 171.368 27.5427C171.272 27.4592 171.226 27.2921 171.226 27.0499V8.5696C171.226 8.2522 171.272 8.01415 171.368 7.8638C171.46 7.71345 171.61 7.63828 171.819 7.63828C171.969 7.63828 172.128 7.70092 172.299 7.82204C172.466 7.94315 172.692 8.17285 172.976 8.51113L184.41 22.0049V8.5696C184.41 8.3232 184.456 8.16031 184.552 8.07679Z" fill="#FF6600"/>
<path d="M194.859 27.5433C194.763 27.6268 194.604 27.6686 194.379 27.6686H192.8C192.575 27.6686 192.416 27.6268 192.32 27.5433C192.224 27.4598 192.178 27.2927 192.178 27.0505V8.57019C192.178 8.32796 192.224 8.1609 192.32 8.07737C192.412 7.99385 192.575 7.95209 192.8 7.95209H194.379C194.604 7.95209 194.763 7.99385 194.859 8.07737C194.951 8.1609 195.001 8.32796 195.001 8.57019V27.0505C195.001 27.2927 194.955 27.4556 194.859 27.5433ZM203.734 8.07737C203.884 7.99385 204.11 7.95209 204.411 7.95209H206.24C206.595 7.95209 206.774 8.05649 206.774 8.26113C206.774 8.37389 206.707 8.50754 206.578 8.65371L198.944 17.6663L206.774 26.9335C206.925 27.1215 207 27.2635 207 27.3553C207 27.5642 206.812 27.6644 206.436 27.6644H204.494C204.172 27.6644 203.939 27.6226 203.788 27.5391C203.638 27.4556 203.45 27.2802 203.224 27.0171L195.983 18.2843C195.816 18.0797 195.728 17.9001 195.728 17.7498C195.728 17.5827 195.82 17.3948 196.008 17.186L203.162 8.6203C203.396 8.34467 203.584 8.1609 203.734 8.07737Z" fill="#FF6600"/>
</svg>
