<svg width="330" height="283" viewBox="0 0 330 283" fill="none" xmlns="http://www.w3.org/2000/svg">
<rect x="0.5" y="0.5" width="329" height="179" rx="7.5" fill="#F8F6FC" stroke="#4D148C"/>
<path d="M23.15 29.538C23.15 32.166 24.536 33.876 26.516 33.876C27.92 33.876 28.946 32.994 29.306 31.554L31.79 32.382C31.034 34.722 29.198 36.198 26.516 36.198C23.024 36.198 20.486 33.444 20.486 29.538C20.486 25.632 23.024 22.878 26.516 22.878C29.198 22.878 31.034 24.354 31.79 26.694L29.306 27.522C28.946 26.082 27.92 25.2 26.516 25.2C24.536 25.2 23.15 26.91 23.15 29.538ZM35.6942 36.162C33.8402 36.162 32.4722 35.046 32.4722 33.372C32.4722 31.482 33.9842 30.69 35.8922 30.348L38.2502 29.898V29.754C38.2502 28.944 37.8362 28.44 36.7922 28.44C35.8562 28.44 35.3702 28.854 35.1542 29.7L32.7602 29.25C33.1922 27.648 34.6322 26.352 36.8822 26.352C39.2762 26.352 40.7162 27.45 40.7162 29.646V33.516C40.7162 34.02 40.9322 34.182 41.4902 34.11V36C39.8882 36.234 38.9162 35.91 38.5022 35.118C37.8902 35.784 36.9362 36.162 35.6942 36.162ZM38.2502 32.634V31.662L36.3962 32.04C35.5682 32.202 34.9562 32.472 34.9562 33.228C34.9562 33.876 35.4422 34.254 36.1982 34.254C37.2602 34.254 38.2502 33.696 38.2502 32.634ZM48.5632 26.514V28.98C48.2752 28.944 48.0592 28.926 47.7532 28.926C46.4392 28.926 45.4312 29.736 45.4312 31.194V36H42.9112V26.532H45.4312V27.864C45.8452 27.036 46.7812 26.478 47.9512 26.478C48.2032 26.478 48.3832 26.496 48.5632 26.514ZM53.172 36.198C50.562 36.198 49.05 33.966 49.05 31.266C49.05 28.584 50.562 26.352 53.172 26.352C54.36 26.352 55.26 26.82 55.818 27.504V23.076H58.338V36H55.818V35.028C55.26 35.73 54.36 36.198 53.172 36.198ZM55.872 31.014C55.872 29.394 54.972 28.512 53.766 28.512C52.344 28.512 51.588 29.646 51.588 31.266C51.588 32.904 52.344 34.038 53.766 34.038C54.972 34.038 55.872 33.138 55.872 31.536V31.014ZM67.9817 23.076H71.0057L75.8477 36H73.1657L72.1397 33.228H66.8117L65.7857 36H63.1577L67.9817 23.076ZM69.4577 26.01L67.6397 30.978H71.2937L69.4577 26.01ZM82.0557 36.198C80.8677 36.198 79.9677 35.73 79.4097 35.028V39.204H76.8897V26.532H79.4097V27.504C79.9677 26.82 80.8677 26.352 82.0557 26.352C84.6657 26.352 86.1777 28.584 86.1777 31.266C86.1777 33.966 84.6657 36.198 82.0557 36.198ZM79.3557 31.014V31.536C79.3557 33.138 80.2557 34.038 81.4617 34.038C82.8837 34.038 83.6397 32.904 83.6397 31.266C83.6397 29.646 82.8837 28.512 81.4617 28.512C80.2557 28.512 79.3557 29.394 79.3557 31.014ZM92.8487 36.198C91.6607 36.198 90.7607 35.73 90.2027 35.028V39.204H87.6827V26.532H90.2027V27.504C90.7607 26.82 91.6607 26.352 92.8487 26.352C95.4587 26.352 96.9707 28.584 96.9707 31.266C96.9707 33.966 95.4587 36.198 92.8487 36.198ZM90.1487 31.014V31.536C90.1487 33.138 91.0487 34.038 92.2547 34.038C93.6767 34.038 94.4327 32.904 94.4327 31.266C94.4327 29.646 93.6767 28.512 92.2547 28.512C91.0487 28.512 90.1487 29.394 90.1487 31.014ZM100.996 23.076V36H98.4756V23.076H100.996ZM103.028 25.416V23.076H105.602V25.416H103.028ZM105.584 26.532V36H103.064V26.532H105.584ZM109.595 31.266C109.595 33.048 110.477 34.074 111.809 34.074C112.853 34.074 113.483 33.354 113.717 32.382L115.895 33.354C115.463 34.902 113.987 36.198 111.791 36.198C109.037 36.198 107.093 34.2 107.093 31.266C107.093 28.35 109.037 26.352 111.791 26.352C113.969 26.352 115.409 27.612 115.859 29.142L113.717 30.15C113.483 29.178 112.853 28.458 111.809 28.458C110.477 28.458 109.595 29.502 109.595 31.266ZM119.823 36.162C117.969 36.162 116.601 35.046 116.601 33.372C116.601 31.482 118.113 30.69 120.021 30.348L122.379 29.898V29.754C122.379 28.944 121.965 28.44 120.921 28.44C119.985 28.44 119.499 28.854 119.283 29.7L116.889 29.25C117.321 27.648 118.761 26.352 121.011 26.352C123.405 26.352 124.845 27.45 124.845 29.646V33.516C124.845 34.02 125.061 34.182 125.619 34.11V36C124.017 36.234 123.045 35.91 122.631 35.118C122.019 35.784 121.065 36.162 119.823 36.162ZM122.379 32.634V31.662L120.525 32.04C119.697 32.202 119.085 32.472 119.085 33.228C119.085 33.876 119.571 34.254 120.327 34.254C121.389 34.254 122.379 33.696 122.379 32.634ZM127.257 33.534V28.638H125.997V26.532H127.257V23.832H129.741V26.532H131.667V28.638H129.741V33.012C129.741 33.822 130.191 33.93 130.929 33.93C131.289 33.93 131.469 33.912 131.793 33.876V35.964C131.343 36.054 130.803 36.108 130.173 36.108C128.265 36.108 127.257 35.478 127.257 33.534ZM133.262 25.416V23.076H135.836V25.416H133.262ZM135.818 26.532V36H133.298V26.532H135.818ZM146.616 31.266C146.616 34.218 144.708 36.198 141.972 36.198C139.236 36.198 137.328 34.218 137.328 31.266C137.328 28.332 139.236 26.352 141.972 26.352C144.708 26.352 146.616 28.332 146.616 31.266ZM139.83 31.266C139.83 33.066 140.658 34.11 141.972 34.11C143.286 34.11 144.096 33.066 144.096 31.266C144.096 29.484 143.286 28.44 141.972 28.44C140.658 28.44 139.83 29.484 139.83 31.266ZM148.151 36V26.532H150.671V27.504C151.193 26.892 152.057 26.352 153.263 26.352C155.243 26.352 156.449 27.702 156.449 29.754V36H153.929V30.474C153.929 29.412 153.497 28.656 152.417 28.656C151.535 28.656 150.671 29.286 150.671 30.528V36H148.151ZM157.534 34.398L159.1 32.796C159.748 33.678 160.9 34.236 161.962 34.236C162.808 34.236 163.546 33.948 163.546 33.264C163.546 32.544 162.844 32.454 161.332 32.166C159.802 31.86 158.11 31.464 158.11 29.43C158.11 27.612 159.712 26.352 161.98 26.352C163.654 26.352 165.148 27.036 165.886 27.99L164.446 29.574C163.816 28.764 162.898 28.314 161.908 28.314C161.116 28.314 160.594 28.656 160.594 29.178C160.594 29.79 161.224 29.898 162.394 30.132C164.05 30.474 166.012 30.852 166.012 32.994C166.012 34.974 164.176 36.198 161.908 36.198C160.198 36.198 158.398 35.568 157.534 34.398Z" fill="#4D148C"/>
<path d="M41.064 68.632L42.264 67.672C42.984 69.048 44.28 69.848 45.768 69.848C47.256 69.848 48.408 69.112 48.408 67.8C48.408 66.408 47.08 66.168 45.336 65.752C43.528 65.32 41.736 64.824 41.736 62.664C41.736 60.648 43.48 59.336 45.656 59.336C47.656 59.336 49.096 60.296 49.784 61.592L48.616 62.52C48.024 61.416 47.112 60.664 45.624 60.664C44.232 60.664 43.224 61.432 43.224 62.536C43.224 63.752 44.296 64.008 45.912 64.392C47.816 64.84 49.912 65.24 49.912 67.672C49.912 69.816 48.008 71.176 45.736 71.176C43.752 71.176 41.848 70.184 41.064 68.632ZM53.0306 65.992V71H51.5906V62.632H53.0306V63.768C53.4786 63.08 54.2786 62.472 55.4466 62.472C56.5666 62.472 57.3506 63.032 57.7666 63.896C58.2306 63.208 59.1266 62.472 60.4386 62.472C62.1666 62.472 63.2066 63.704 63.2066 65.48V71H61.7666V65.864C61.7666 64.696 61.2866 63.816 60.1026 63.816C59.1426 63.816 58.1186 64.632 58.1186 65.992V71H56.6786V65.864C56.6786 64.696 56.1986 63.816 55.0146 63.816C54.0546 63.816 53.0306 64.632 53.0306 65.992ZM67.6241 71.144C66.1041 71.144 64.8721 70.248 64.8721 68.744C64.8721 67.08 66.1681 66.392 68.0401 66.008L70.0721 65.592V65.24C70.0721 64.28 69.5441 63.736 68.4241 63.736C67.3681 63.736 66.7441 64.232 66.4881 65.16L65.1281 64.808C65.5281 63.448 66.7601 62.472 68.4721 62.472C70.3441 62.472 71.4961 63.384 71.4961 65.176V69.256C71.4961 69.8 71.8321 69.976 72.3921 69.848V71C71.1121 71.16 70.3761 70.856 70.2001 70.056C69.6881 70.712 68.7601 71.144 67.6241 71.144ZM70.0721 68.152V66.712L68.4401 67.064C67.1601 67.32 66.2961 67.672 66.2961 68.68C66.2961 69.496 66.8881 69.976 67.8001 69.976C69.0321 69.976 70.0721 69.224 70.0721 68.152ZM78.286 62.6V64.056C78.046 64.008 77.854 63.992 77.582 63.992C76.366 63.992 75.39 64.952 75.39 66.424V71H73.95V62.632H75.39V64.056C75.758 63.208 76.574 62.568 77.71 62.568C77.934 62.568 78.142 62.584 78.286 62.6ZM80.1896 69V63.864H78.8936V62.632H80.1896V60.184H81.6136V62.632H83.5176V63.864H81.6136V68.776C81.6136 69.656 82.0456 69.816 82.7816 69.816C83.1176 69.816 83.3576 69.8 83.6936 69.72V70.952C83.3256 71.032 82.9096 71.08 82.4296 71.08C81.0056 71.08 80.1896 70.6 80.1896 69ZM89.7061 65.256C89.7061 67.976 91.2101 69.816 93.3381 69.816C94.8261 69.816 95.8981 68.952 96.3141 67.496L97.7701 67.976C97.0981 69.96 95.5301 71.176 93.3381 71.176C90.3621 71.176 88.1701 68.76 88.1701 65.256C88.1701 61.752 90.3621 59.336 93.3381 59.336C95.5301 59.336 97.0981 60.552 97.7701 62.536L96.3141 63.016C95.8981 61.56 94.8261 60.696 93.3381 60.696C91.2101 60.696 89.7061 62.536 89.7061 65.256ZM106.525 66.824C106.525 69.416 104.925 71.176 102.637 71.176C100.349 71.176 98.749 69.416 98.749 66.824C98.749 64.232 100.349 62.472 102.637 62.472C104.925 62.472 106.525 64.232 106.525 66.824ZM100.205 66.824C100.205 68.728 101.165 69.944 102.637 69.944C104.109 69.944 105.069 68.728 105.069 66.824C105.069 64.904 104.109 63.688 102.637 63.688C101.165 63.688 100.205 64.904 100.205 66.824ZM109.796 59.512V71H108.356V59.512H109.796ZM113.64 59.512V71H112.2V59.512H113.64ZM119.388 71.176C117.068 71.176 115.468 69.4 115.468 66.824C115.468 64.328 117.052 62.472 119.324 62.472C121.66 62.472 122.892 64.248 122.892 66.568V67.048H116.844C116.924 68.808 117.932 69.928 119.388 69.928C120.508 69.928 121.308 69.32 121.564 68.328L122.828 68.776C122.316 70.264 121.052 71.176 119.388 71.176ZM119.308 63.704C118.092 63.704 117.18 64.52 116.924 65.944H121.436C121.404 64.76 120.764 63.704 119.308 63.704ZM125.548 66.824C125.548 68.728 126.572 69.912 128.06 69.912C129.212 69.912 129.9 69.176 130.14 68.136L131.42 68.728C131.02 70.12 129.804 71.176 128.06 71.176C125.724 71.176 124.108 69.4 124.108 66.824C124.108 64.232 125.724 62.472 128.06 62.472C129.804 62.472 130.988 63.48 131.388 64.872L130.14 65.496C129.9 64.472 129.212 63.72 128.06 63.72C126.572 63.72 125.548 64.904 125.548 66.824ZM133.221 69V63.864H131.925V62.632H133.221V60.184H134.645V62.632H136.549V63.864H134.645V68.776C134.645 69.656 135.077 69.816 135.813 69.816C136.149 69.816 136.389 69.8 136.725 69.72V70.952C136.357 71.032 135.941 71.08 135.461 71.08C134.037 71.08 133.221 70.6 133.221 69ZM138.37 61.176V59.512H139.938V61.176H138.37ZM139.874 62.632V71H138.434V62.632H139.874ZM149.478 66.824C149.478 69.416 147.878 71.176 145.59 71.176C143.302 71.176 141.702 69.416 141.702 66.824C141.702 64.232 143.302 62.472 145.59 62.472C147.878 62.472 149.478 64.232 149.478 66.824ZM143.158 66.824C143.158 68.728 144.118 69.944 145.59 69.944C147.062 69.944 148.022 68.728 148.022 66.824C148.022 64.904 147.062 63.688 145.59 63.688C144.118 63.688 143.158 64.904 143.158 66.824ZM151.309 71V62.632H152.749V63.768C153.229 63.08 154.061 62.472 155.245 62.472C157.021 62.472 158.029 63.704 158.029 65.48V71H156.589V65.864C156.589 64.696 156.093 63.816 154.845 63.816C153.805 63.816 152.749 64.616 152.749 66.008V71H151.309ZM167.364 59.368V60.648C167.124 60.616 166.98 60.616 166.74 60.616C165.892 60.616 165.428 60.984 165.428 62.056V62.632H167.284V63.864H165.428V71H163.988V63.864H162.724V62.632H163.988V61.96C163.988 60.328 164.884 59.336 166.596 59.336C166.884 59.336 167.044 59.352 167.364 59.368ZM175.775 66.824C175.775 69.416 174.175 71.176 171.887 71.176C169.599 71.176 167.999 69.416 167.999 66.824C167.999 64.232 169.599 62.472 171.887 62.472C174.175 62.472 175.775 64.232 175.775 66.824ZM169.455 66.824C169.455 68.728 170.415 69.944 171.887 69.944C173.359 69.944 174.319 68.728 174.319 66.824C174.319 64.904 173.359 63.688 171.887 63.688C170.415 63.688 169.455 64.904 169.455 66.824ZM181.942 62.6V64.056C181.702 64.008 181.51 63.992 181.238 63.992C180.022 63.992 179.046 64.952 179.046 66.424V71H177.606V62.632H179.046V64.056C179.414 63.208 180.23 62.568 181.366 62.568C181.59 62.568 181.798 62.584 181.942 62.6ZM187.831 65.256C187.831 67.976 189.335 69.816 191.463 69.816C192.951 69.816 194.023 68.952 194.439 67.496L195.895 67.976C195.223 69.96 193.655 71.176 191.463 71.176C188.487 71.176 186.295 68.76 186.295 65.256C186.295 61.752 188.487 59.336 191.463 59.336C193.655 59.336 195.223 60.552 195.895 62.536L194.439 63.016C194.023 61.56 192.951 60.696 191.463 60.696C189.335 60.696 187.831 62.536 187.831 65.256ZM201.786 62.6V64.056C201.546 64.008 201.354 63.992 201.082 63.992C199.866 63.992 198.89 64.952 198.89 66.424V71H197.45V62.632H198.89V64.056C199.258 63.208 200.074 62.568 201.21 62.568C201.434 62.568 201.642 62.584 201.786 62.6ZM206.372 71.176C204.052 71.176 202.452 69.4 202.452 66.824C202.452 64.328 204.036 62.472 206.308 62.472C208.644 62.472 209.876 64.248 209.876 66.568V67.048H203.828C203.908 68.808 204.916 69.928 206.372 69.928C207.492 69.928 208.292 69.32 208.548 68.328L209.812 68.776C209.3 70.264 208.036 71.176 206.372 71.176ZM206.292 63.704C205.076 63.704 204.164 64.52 203.908 65.944H208.42C208.388 64.76 207.748 63.704 206.292 63.704ZM214.741 71.176C212.421 71.176 211.093 69.192 211.093 66.824C211.093 64.44 212.421 62.472 214.741 62.472C215.909 62.472 216.837 63.032 217.333 63.848V59.512H218.773V71H217.333V69.784C216.837 70.616 215.909 71.176 214.741 71.176ZM217.365 66.536C217.365 64.584 216.181 63.736 214.997 63.736C213.429 63.736 212.549 65.016 212.549 66.824C212.549 68.616 213.429 69.912 214.997 69.912C216.181 69.912 217.365 69.048 217.365 67.128V66.536ZM221.089 61.176V59.512H222.657V61.176H221.089ZM222.593 62.632V71H221.153V62.632H222.593ZM225.221 69V63.864H223.925V62.632H225.221V60.184H226.645V62.632H228.549V63.864H226.645V68.776C226.645 69.656 227.077 69.816 227.813 69.816C228.149 69.816 228.389 69.8 228.725 69.72V70.952C228.357 71.032 227.941 71.08 227.461 71.08C226.037 71.08 225.221 70.6 225.221 69ZM234.737 65.256C234.737 67.976 236.241 69.816 238.369 69.816C239.857 69.816 240.929 68.952 241.345 67.496L242.801 67.976C242.129 69.96 240.561 71.176 238.369 71.176C235.393 71.176 233.201 68.76 233.201 65.256C233.201 61.752 235.393 59.336 238.369 59.336C240.561 59.336 242.129 60.552 242.801 62.536L241.345 63.016C240.929 61.56 239.857 60.696 238.369 60.696C236.241 60.696 234.737 62.536 234.737 65.256ZM246.452 71.144C244.932 71.144 243.7 70.248 243.7 68.744C243.7 67.08 244.996 66.392 246.868 66.008L248.9 65.592V65.24C248.9 64.28 248.372 63.736 247.252 63.736C246.196 63.736 245.572 64.232 245.316 65.16L243.956 64.808C244.356 63.448 245.588 62.472 247.3 62.472C249.172 62.472 250.324 63.384 250.324 65.176V69.256C250.324 69.8 250.66 69.976 251.22 69.848V71C249.94 71.16 249.204 70.856 249.028 70.056C248.516 70.712 247.588 71.144 246.452 71.144ZM248.9 68.152V66.712L247.268 67.064C245.988 67.32 245.124 67.672 245.124 68.68C245.124 69.496 245.716 69.976 246.628 69.976C247.86 69.976 248.9 69.224 248.9 68.152ZM257.114 62.6V64.056C256.874 64.008 256.682 63.992 256.41 63.992C255.194 63.992 254.218 64.952 254.218 66.424V71H252.778V62.632H254.218V64.056C254.586 63.208 255.402 62.568 256.538 62.568C256.762 62.568 256.97 62.584 257.114 62.6ZM261.491 71.176C259.171 71.176 257.843 69.192 257.843 66.824C257.843 64.44 259.171 62.472 261.491 62.472C262.659 62.472 263.587 63.032 264.083 63.848V59.512H265.523V71H264.083V69.784C263.587 70.616 262.659 71.176 261.491 71.176ZM264.115 66.536C264.115 64.584 262.931 63.736 261.747 63.736C260.179 63.736 259.299 65.016 259.299 66.824C259.299 68.616 260.179 69.912 261.747 69.912C262.931 69.912 264.115 69.048 264.115 67.128V66.536ZM266.975 69.224L268.095 68.408C268.543 69.384 269.567 69.976 270.655 69.976C271.631 69.976 272.495 69.56 272.495 68.648C272.495 67.736 271.695 67.608 270.319 67.32C268.943 67.016 267.503 66.712 267.503 65C267.503 63.512 268.799 62.472 270.575 62.472C272.079 62.472 273.311 63.208 273.807 64.2L272.783 65.016C272.351 64.184 271.567 63.656 270.511 63.656C269.551 63.656 268.911 64.136 268.911 64.888C268.911 65.672 269.647 65.816 270.815 66.072C272.255 66.408 273.903 66.696 273.903 68.52C273.903 70.12 272.447 71.176 270.655 71.176C269.135 71.176 267.615 70.52 266.975 69.224Z" fill="#4D148C"/>
<rect x="20" y="62" width="6" height="6" fill="#4D148C"/>
<path d="M43.128 94.0568C43.128 96.7768 44.632 98.6168 46.76 98.6168C48.248 98.6168 49.32 97.7528 49.736 96.2968L51.192 96.7768C50.52 98.7608 48.952 99.9768 46.76 99.9768C43.784 99.9768 41.592 97.5608 41.592 94.0568C41.592 90.5528 43.784 88.1368 46.76 88.1368C48.952 88.1368 50.52 89.3528 51.192 91.3368L49.736 91.8168C49.32 90.3608 48.248 89.4968 46.76 89.4968C44.632 89.4968 43.128 91.3368 43.128 94.0568ZM54.8429 99.9448C53.3229 99.9448 52.0909 99.0488 52.0909 97.5448C52.0909 95.8808 53.3869 95.1928 55.2589 94.8088L57.2909 94.3928V94.0408C57.2909 93.0808 56.7629 92.5368 55.6429 92.5368C54.5869 92.5368 53.9629 93.0328 53.7069 93.9608L52.3469 93.6088C52.7469 92.2488 53.9789 91.2728 55.6909 91.2728C57.5629 91.2728 58.7149 92.1848 58.7149 93.9768V98.0568C58.7149 98.6008 59.0509 98.7768 59.6109 98.6488V99.8008C58.3309 99.9608 57.5949 99.6568 57.4189 98.8568C56.9069 99.5128 55.9789 99.9448 54.8429 99.9448ZM57.2909 96.9528V95.5128L55.6589 95.8648C54.3789 96.1208 53.5149 96.4728 53.5149 97.4808C53.5149 98.2968 54.1069 98.7768 55.0189 98.7768C56.2509 98.7768 57.2909 98.0248 57.2909 96.9528ZM65.5048 91.4008V92.8568C65.2648 92.8088 65.0728 92.7928 64.8008 92.7928C63.5848 92.7928 62.6088 93.7528 62.6088 95.2248V99.8008H61.1688V91.4328H62.6088V92.8568C62.9768 92.0088 63.7928 91.3688 64.9288 91.3688C65.1528 91.3688 65.3608 91.3848 65.5048 91.4008ZM69.8814 99.9768C67.5614 99.9768 66.2334 97.9928 66.2334 95.6248C66.2334 93.2408 67.5614 91.2728 69.8814 91.2728C71.0494 91.2728 71.9774 91.8328 72.4734 92.6488V88.3128H73.9134V99.8008H72.4734V98.5848C71.9774 99.4168 71.0494 99.9768 69.8814 99.9768ZM72.5054 95.3368C72.5054 93.3848 71.3214 92.5368 70.1374 92.5368C68.5694 92.5368 67.6894 93.8168 67.6894 95.6248C67.6894 97.4168 68.5694 98.7128 70.1374 98.7128C71.3214 98.7128 72.5054 97.8488 72.5054 95.9288V95.3368ZM79.7328 99.8008V88.3128H81.2688V98.4568H86.9968V99.8008H79.7328ZM88.4016 89.9768V88.3128H89.9696V89.9768H88.4016ZM89.9056 91.4328V99.8008H88.4656V91.4328H89.9056ZM95.9574 88.1688V89.4488C95.7174 89.4168 95.5734 89.4168 95.3334 89.4168C94.4854 89.4168 94.0214 89.7848 94.0214 90.8568V91.4328H95.8774V92.6648H94.0214V99.8008H92.5814V92.6648H91.3174V91.4328H92.5814V90.7608C92.5814 89.1288 93.4774 88.1368 95.1894 88.1368C95.4774 88.1368 95.6374 88.1528 95.9574 88.1688ZM100.513 99.9768C98.1928 99.9768 96.5928 98.2008 96.5928 95.6248C96.5928 93.1288 98.1768 91.2728 100.449 91.2728C102.785 91.2728 104.017 93.0488 104.017 95.3688V95.8488H97.9688C98.0488 97.6088 99.0568 98.7288 100.513 98.7288C101.633 98.7288 102.433 98.1208 102.689 97.1288L103.953 97.5768C103.441 99.0648 102.177 99.9768 100.513 99.9768ZM100.433 92.5048C99.2168 92.5048 98.3048 93.3208 98.0488 94.7448H102.561C102.529 93.5608 101.889 92.5048 100.433 92.5048ZM105.629 95.7848V94.4888H109.997V95.7848H105.629ZM113.159 94.0568C113.159 96.7768 114.663 98.6168 116.791 98.6168C118.279 98.6168 119.351 97.7528 119.767 96.2968L121.223 96.7768C120.551 98.7608 118.983 99.9768 116.791 99.9768C113.815 99.9768 111.623 97.5608 111.623 94.0568C111.623 90.5528 113.815 88.1368 116.791 88.1368C118.983 88.1368 120.551 89.3528 121.223 91.3368L119.767 91.8168C119.351 90.3608 118.279 89.4968 116.791 89.4968C114.663 89.4968 113.159 91.3368 113.159 94.0568ZM125.882 100.713C125.402 101.977 124.746 102.777 123.29 102.777C122.938 102.777 122.762 102.761 122.506 102.713V101.465C122.778 101.529 122.954 101.545 123.194 101.545C123.818 101.545 124.154 101.321 124.49 100.489L124.89 99.4968L121.786 91.4328H123.306L125.658 97.8328L127.978 91.4328H129.482L125.882 100.713ZM131.439 95.6248C131.439 97.5288 132.463 98.7128 133.951 98.7128C135.103 98.7128 135.791 97.9768 136.031 96.9368L137.311 97.5288C136.911 98.9208 135.695 99.9768 133.951 99.9768C131.615 99.9768 129.999 98.2008 129.999 95.6248C129.999 93.0328 131.615 91.2728 133.951 91.2728C135.695 91.2728 136.879 92.2808 137.279 93.6728L136.031 94.2968C135.791 93.2728 135.103 92.5208 133.951 92.5208C132.463 92.5208 131.439 93.7048 131.439 95.6248ZM140.328 88.3128V99.8008H138.888V88.3128H140.328ZM146.075 99.9768C143.755 99.9768 142.155 98.2008 142.155 95.6248C142.155 93.1288 143.739 91.2728 146.011 91.2728C148.347 91.2728 149.579 93.0488 149.579 95.3688V95.8488H143.531C143.611 97.6088 144.619 98.7288 146.075 98.7288C147.195 98.7288 147.995 98.1208 148.251 97.1288L149.515 97.5768C149.003 99.0648 147.739 99.9768 146.075 99.9768ZM145.995 92.5048C144.779 92.5048 143.867 93.3208 143.611 94.7448H148.123C148.091 93.5608 147.451 92.5048 145.995 92.5048ZM160.987 99.8008H159.755L156.251 90.3448V99.8008H154.811V88.3128H156.907L160.395 97.7528L163.899 88.3128H165.931V99.8008H164.507V90.3448L160.987 99.8008ZM170.499 99.9448C168.979 99.9448 167.747 99.0488 167.747 97.5448C167.747 95.8808 169.043 95.1928 170.915 94.8088L172.947 94.3928V94.0408C172.947 93.0808 172.419 92.5368 171.299 92.5368C170.243 92.5368 169.619 93.0328 169.363 93.9608L168.003 93.6088C168.403 92.2488 169.635 91.2728 171.347 91.2728C173.219 91.2728 174.371 92.1848 174.371 93.9768V98.0568C174.371 98.6008 174.707 98.7768 175.267 98.6488V99.8008C173.987 99.9608 173.251 99.6568 173.075 98.8568C172.563 99.5128 171.635 99.9448 170.499 99.9448ZM172.947 96.9528V95.5128L171.315 95.8648C170.035 96.1208 169.171 96.4728 169.171 97.4808C169.171 98.2968 169.763 98.7768 170.675 98.7768C171.907 98.7768 172.947 98.0248 172.947 96.9528ZM176.825 99.8008V91.4328H178.265V92.5688C178.745 91.8808 179.577 91.2728 180.761 91.2728C182.537 91.2728 183.545 92.5048 183.545 94.2808V99.8008H182.105V94.6648C182.105 93.4968 181.609 92.6168 180.361 92.6168C179.321 92.6168 178.265 93.4168 178.265 94.8088V99.8008H176.825ZM187.952 99.9448C186.432 99.9448 185.2 99.0488 185.2 97.5448C185.2 95.8808 186.496 95.1928 188.368 94.8088L190.4 94.3928V94.0408C190.4 93.0808 189.872 92.5368 188.752 92.5368C187.696 92.5368 187.072 93.0328 186.816 93.9608L185.456 93.6088C185.856 92.2488 187.088 91.2728 188.8 91.2728C190.672 91.2728 191.824 92.1848 191.824 93.9768V98.0568C191.824 98.6008 192.16 98.7768 192.72 98.6488V99.8008C191.44 99.9608 190.704 99.6568 190.528 98.8568C190.016 99.5128 189.088 99.9448 187.952 99.9448ZM190.4 96.9528V95.5128L188.768 95.8648C187.488 96.1208 186.624 96.4728 186.624 97.4808C186.624 98.2968 187.216 98.7768 188.128 98.7768C189.36 98.7768 190.4 98.0248 190.4 96.9528ZM201.366 99.0488C201.366 101.497 199.75 102.857 197.478 102.857C195.638 102.857 194.294 102.009 193.83 100.473L195.174 99.9608C195.446 101.033 196.31 101.657 197.478 101.657C198.95 101.657 199.926 100.905 199.926 99.1608V98.2168C199.478 99.0328 198.534 99.6088 197.366 99.6088C195.078 99.6088 193.734 97.7208 193.734 95.4328C193.734 93.1608 195.078 91.2728 197.366 91.2728C198.518 91.2728 199.478 91.8488 199.926 92.6648V91.4328H201.366V99.0488ZM199.942 95.3048C199.942 93.4328 198.822 92.5368 197.622 92.5368C196.102 92.5368 195.174 93.6728 195.174 95.4328C195.174 97.1928 196.102 98.3448 197.622 98.3448C198.822 98.3448 199.942 97.4488 199.942 95.6088V95.3048ZM207.107 99.9768C204.787 99.9768 203.187 98.2008 203.187 95.6248C203.187 93.1288 204.771 91.2728 207.043 91.2728C209.379 91.2728 210.611 93.0488 210.611 95.3688V95.8488H204.562C204.643 97.6088 205.651 98.7288 207.107 98.7288C208.227 98.7288 209.027 98.1208 209.283 97.1288L210.547 97.5768C210.035 99.0648 208.771 99.9768 207.107 99.9768ZM207.027 92.5048C205.811 92.5048 204.899 93.3208 204.643 94.7448H209.155C209.123 93.5608 208.483 92.5048 207.027 92.5048ZM213.843 94.7928V99.8008H212.403V91.4328H213.843V92.5688C214.291 91.8808 215.091 91.2728 216.259 91.2728C217.379 91.2728 218.163 91.8328 218.579 92.6968C219.043 92.0088 219.939 91.2728 221.251 91.2728C222.979 91.2728 224.019 92.5048 224.019 94.2808V99.8008H222.579V94.6648C222.579 93.4968 222.099 92.6168 220.915 92.6168C219.955 92.6168 218.931 93.4328 218.931 94.7928V99.8008H217.491V94.6648C217.491 93.4968 217.011 92.6168 215.827 92.6168C214.867 92.6168 213.843 93.4328 213.843 94.7928ZM229.685 99.9768C227.365 99.9768 225.765 98.2008 225.765 95.6248C225.765 93.1288 227.349 91.2728 229.621 91.2728C231.957 91.2728 233.189 93.0488 233.189 95.3688V95.8488H227.141C227.221 97.6088 228.229 98.7288 229.685 98.7288C230.805 98.7288 231.605 98.1208 231.861 97.1288L233.125 97.5768C232.613 99.0648 231.349 99.9768 229.685 99.9768ZM229.605 92.5048C228.389 92.5048 227.477 93.3208 227.221 94.7448H231.733C231.701 93.5608 231.061 92.5048 229.605 92.5048ZM234.981 99.8008V91.4328H236.421V92.5688C236.901 91.8808 237.733 91.2728 238.917 91.2728C240.693 91.2728 241.701 92.5048 241.701 94.2808V99.8008H240.261V94.6648C240.261 93.4968 239.765 92.6168 238.517 92.6168C237.477 92.6168 236.421 93.4168 236.421 94.8088V99.8008H234.981ZM244.237 97.8008V92.6648H242.941V91.4328H244.237V88.9848H245.661V91.4328H247.565V92.6648H245.661V97.5768C245.661 98.4568 246.093 98.6168 246.829 98.6168C247.165 98.6168 247.405 98.6008 247.741 98.5208V99.7528C247.373 99.8328 246.957 99.8808 246.477 99.8808C245.053 99.8808 244.237 99.4008 244.237 97.8008Z" fill="#4D148C"/>
<rect x="20" y="90.8008" width="6" height="6" fill="#4D148C"/>
<path d="M42.264 128.6V117.112H45.912C49.4 117.112 51.608 119.352 51.608 122.856C51.608 126.36 49.4 128.6 45.912 128.6H42.264ZM43.768 127.272H45.912C48.52 127.272 50.104 125.528 50.104 122.856C50.104 120.168 48.52 118.44 45.896 118.44H43.768V127.272ZM55.5148 128.744C53.9948 128.744 52.7628 127.848 52.7628 126.344C52.7628 124.68 54.0588 123.992 55.9308 123.608L57.9628 123.192V122.84C57.9628 121.88 57.4348 121.336 56.3148 121.336C55.2588 121.336 54.6348 121.832 54.3788 122.76L53.0188 122.408C53.4188 121.048 54.6508 120.072 56.3628 120.072C58.2348 120.072 59.3868 120.984 59.3868 122.776V126.856C59.3868 127.4 59.7228 127.576 60.2828 127.448V128.6C59.0028 128.76 58.2668 128.456 58.0908 127.656C57.5788 128.312 56.6508 128.744 55.5148 128.744ZM57.9628 125.752V124.312L56.3307 124.664C55.0508 124.92 54.1868 125.272 54.1868 126.28C54.1868 127.096 54.7788 127.576 55.6908 127.576C56.9227 127.576 57.9628 126.824 57.9628 125.752ZM62.0646 126.6V121.464H60.7686V120.232H62.0646V117.784H63.4886V120.232H65.3926V121.464H63.4886V126.376C63.4886 127.256 63.9206 127.416 64.6566 127.416C64.9926 127.416 65.2326 127.4 65.5686 127.32V128.552C65.2006 128.632 64.7846 128.68 64.3046 128.68C62.8806 128.68 62.0646 128.2 62.0646 126.6ZM69.3741 128.744C67.8541 128.744 66.6221 127.848 66.6221 126.344C66.6221 124.68 67.9181 123.992 69.7901 123.608L71.8221 123.192V122.84C71.8221 121.88 71.2941 121.336 70.1741 121.336C69.1181 121.336 68.4941 121.832 68.2381 122.76L66.8781 122.408C67.2781 121.048 68.5101 120.072 70.2221 120.072C72.0941 120.072 73.2461 120.984 73.2461 122.776V126.856C73.2461 127.4 73.5821 127.576 74.1421 127.448V128.6C72.8621 128.76 72.1261 128.456 71.9501 127.656C71.4381 128.312 70.5101 128.744 69.3741 128.744ZM71.8221 125.752V124.312L70.1901 124.664C68.9101 124.92 68.0461 125.272 68.0461 126.28C68.0461 127.096 68.6381 127.576 69.5501 127.576C70.7821 127.576 71.8221 126.824 71.8221 125.752ZM80.675 117.112V128.6H79.139V117.112H80.675ZM83.1375 128.6V120.232H84.5775V121.368C85.0575 120.68 85.8895 120.072 87.0735 120.072C88.8495 120.072 89.8575 121.304 89.8575 123.08V128.6H88.4175V123.464C88.4175 122.296 87.9215 121.416 86.6735 121.416C85.6335 121.416 84.5775 122.216 84.5775 123.608V128.6H83.1375ZM91.2408 126.824L92.3608 126.008C92.8088 126.984 93.8328 127.576 94.9208 127.576C95.8968 127.576 96.7608 127.16 96.7608 126.248C96.7608 125.336 95.9608 125.208 94.5848 124.92C93.2088 124.616 91.7688 124.312 91.7688 122.6C91.7688 121.112 93.0648 120.072 94.8408 120.072C96.3448 120.072 97.5768 120.808 98.0728 121.8L97.0488 122.616C96.6168 121.784 95.8328 121.256 94.7768 121.256C93.8168 121.256 93.1768 121.736 93.1768 122.488C93.1768 123.272 93.9128 123.416 95.0807 123.672C96.5208 124.008 98.1688 124.296 98.1688 126.12C98.1688 127.72 96.7128 128.776 94.9208 128.776C93.4008 128.776 91.8808 128.12 91.2408 126.824ZM99.886 118.776V117.112H101.454V118.776H99.886ZM101.39 120.232V128.6H99.95V120.232H101.39ZM110.882 127.848C110.882 130.296 109.266 131.656 106.994 131.656C105.154 131.656 103.81 130.808 103.346 129.272L104.69 128.76C104.962 129.832 105.826 130.456 106.994 130.456C108.466 130.456 109.442 129.704 109.442 127.96V127.016C108.994 127.832 108.05 128.408 106.882 128.408C104.594 128.408 103.25 126.52 103.25 124.232C103.25 121.96 104.594 120.072 106.882 120.072C108.034 120.072 108.994 120.648 109.442 121.464V120.232H110.882V127.848ZM109.458 124.104C109.458 122.232 108.338 121.336 107.138 121.336C105.618 121.336 104.69 122.472 104.69 124.232C104.69 125.992 105.618 127.144 107.138 127.144C108.338 127.144 109.458 126.248 109.458 124.408V124.104ZM113.278 128.6V117.112H114.718V121.368C115.198 120.68 116.03 120.072 117.214 120.072C118.99 120.072 119.998 121.304 119.998 123.08V128.6H118.558V123.464C118.558 122.296 118.062 121.416 116.814 121.416C115.774 121.416 114.718 122.216 114.718 123.608V128.6H113.278ZM122.533 126.6V121.464H121.237V120.232H122.533V117.784H123.957V120.232H125.861V121.464H123.957V126.376C123.957 127.256 124.389 127.416 125.125 127.416C125.461 127.416 125.701 127.4 126.037 127.32V128.552C125.669 128.632 125.253 128.68 124.773 128.68C123.349 128.68 122.533 128.2 122.533 126.6ZM126.819 126.824L127.939 126.008C128.387 126.984 129.411 127.576 130.499 127.576C131.475 127.576 132.339 127.16 132.339 126.248C132.339 125.336 131.539 125.208 130.163 124.92C128.787 124.616 127.347 124.312 127.347 122.6C127.347 121.112 128.643 120.072 130.419 120.072C131.923 120.072 133.155 120.808 133.651 121.8L132.627 122.616C132.195 121.784 131.411 121.256 130.355 121.256C129.395 121.256 128.755 121.736 128.755 122.488C128.755 123.272 129.491 123.416 130.659 123.672C132.099 124.008 133.747 124.296 133.747 126.12C133.747 127.72 132.291 128.776 130.499 128.776C128.979 128.776 127.459 128.12 126.819 126.824ZM142.567 117C143.143 117 143.634 117.101 144.039 117.304C144.455 117.496 144.775 117.773 144.999 118.136C145.223 118.498 145.335 118.941 145.335 119.464C145.335 120.136 145.116 120.706 144.679 121.176C144.252 121.645 143.708 122.072 143.047 122.456L146.135 125.432C146.412 125.101 146.636 124.722 146.807 124.296C146.988 123.858 147.138 123.389 147.255 122.888H148.679C148.508 123.57 148.295 124.205 148.039 124.792C147.783 125.378 147.452 125.89 147.047 126.328L149.383 128.6H147.479L146.087 127.256C145.831 127.48 145.564 127.688 145.287 127.88C145.02 128.061 144.727 128.216 144.407 128.344C144.087 128.472 143.74 128.573 143.367 128.648C143.004 128.722 142.599 128.76 142.151 128.76C141.415 128.76 140.775 128.642 140.231 128.408C139.698 128.162 139.282 127.805 138.983 127.336C138.695 126.866 138.551 126.296 138.551 125.624C138.551 125.08 138.647 124.61 138.839 124.216C139.042 123.821 139.33 123.469 139.703 123.16C140.076 122.85 140.514 122.552 141.015 122.264C140.791 122.008 140.572 121.741 140.359 121.464C140.146 121.186 139.97 120.888 139.831 120.568C139.692 120.237 139.623 119.88 139.623 119.496C139.623 118.973 139.74 118.525 139.975 118.152C140.21 117.778 140.546 117.496 140.983 117.304C141.431 117.101 141.959 117 142.567 117ZM141.863 123.144C141.479 123.368 141.148 123.597 140.871 123.832C140.604 124.056 140.396 124.306 140.247 124.584C140.098 124.861 140.023 125.192 140.023 125.576C140.023 126.162 140.22 126.632 140.615 126.984C141.01 127.336 141.538 127.512 142.199 127.512C142.882 127.512 143.468 127.4 143.959 127.176C144.45 126.952 144.86 126.685 145.191 126.376L141.863 123.144ZM142.519 118.152C142.071 118.152 141.703 118.269 141.415 118.504C141.138 118.738 140.999 119.064 140.999 119.48C140.999 119.864 141.1 120.221 141.303 120.552C141.506 120.872 141.799 121.229 142.183 121.624C142.812 121.261 143.26 120.92 143.527 120.6C143.804 120.269 143.943 119.89 143.943 119.464C143.943 119.08 143.815 118.765 143.559 118.52C143.303 118.274 142.956 118.152 142.519 118.152ZM155.597 123.784V128.6H154.061V117.112H158.445C160.877 117.112 162.429 118.248 162.429 120.44C162.429 122.28 161.309 123.4 159.485 123.704L162.669 128.6H160.909L157.821 123.784H155.597ZM155.597 122.456H158.365C159.997 122.456 160.909 121.736 160.909 120.44C160.909 119.144 159.997 118.44 158.365 118.44H155.597V122.456ZM167.56 128.776C165.24 128.776 163.64 127 163.64 124.424C163.64 121.928 165.224 120.072 167.496 120.072C169.832 120.072 171.064 121.848 171.064 124.168V124.648H165.016C165.096 126.408 166.104 127.528 167.56 127.528C168.68 127.528 169.48 126.92 169.736 125.928L171 126.376C170.488 127.864 169.224 128.776 167.56 128.776ZM167.48 121.304C166.264 121.304 165.352 122.12 165.096 123.544H169.608C169.576 122.36 168.936 121.304 167.48 121.304ZM176.888 128.776C175.72 128.776 174.792 128.216 174.296 127.384V131.48H172.856V120.232H174.296V121.448C174.792 120.632 175.72 120.072 176.888 120.072C179.208 120.072 180.536 122.04 180.536 124.424C180.536 126.792 179.208 128.776 176.888 128.776ZM174.264 124.136V124.728C174.264 126.648 175.448 127.512 176.632 127.512C178.2 127.512 179.08 126.216 179.08 124.424C179.08 122.616 178.2 121.336 176.632 121.336C175.448 121.336 174.264 122.184 174.264 124.136ZM189.556 124.424C189.556 127.016 187.956 128.776 185.668 128.776C183.38 128.776 181.78 127.016 181.78 124.424C181.78 121.832 183.38 120.072 185.668 120.072C187.956 120.072 189.556 121.832 189.556 124.424ZM183.236 124.424C183.236 126.328 184.196 127.544 185.668 127.544C187.14 127.544 188.1 126.328 188.1 124.424C188.1 122.504 187.14 121.288 185.668 121.288C184.196 121.288 183.236 122.504 183.236 124.424ZM195.724 120.2V121.656C195.484 121.608 195.292 121.592 195.02 121.592C193.804 121.592 192.828 122.552 192.828 124.024V128.6H191.388V120.232H192.828V121.656C193.196 120.808 194.012 120.168 195.148 120.168C195.372 120.168 195.58 120.184 195.724 120.2ZM197.627 126.6V121.464H196.331V120.232H197.627V117.784H199.051V120.232H200.955V121.464H199.051V126.376C199.051 127.256 199.483 127.416 200.219 127.416C200.555 127.416 200.795 127.4 201.131 127.32V128.552C200.763 128.632 200.347 128.68 199.867 128.68C198.443 128.68 197.627 128.2 197.627 126.6ZM202.777 118.776V117.112H204.345V118.776H202.777ZM204.281 120.232V128.6H202.841V120.232H204.281ZM206.684 128.6V120.232H208.124V121.368C208.604 120.68 209.436 120.072 210.62 120.072C212.396 120.072 213.404 121.304 213.404 123.08V128.6H211.964V123.464C211.964 122.296 211.468 121.416 210.22 121.416C209.18 121.416 208.124 122.216 208.124 123.608V128.6H206.684ZM222.804 127.848C222.804 130.296 221.188 131.656 218.916 131.656C217.076 131.656 215.732 130.808 215.268 129.272L216.612 128.76C216.884 129.832 217.748 130.456 218.916 130.456C220.388 130.456 221.364 129.704 221.364 127.96V127.016C220.916 127.832 219.972 128.408 218.804 128.408C216.516 128.408 215.172 126.52 215.172 124.232C215.172 121.96 216.516 120.072 218.804 120.072C219.956 120.072 220.916 120.648 221.364 121.464V120.232H222.804V127.848ZM221.38 124.104C221.38 122.232 220.26 121.336 219.06 121.336C217.54 121.336 216.612 122.472 216.612 124.232C216.612 125.992 217.54 127.144 219.06 127.144C220.26 127.144 221.38 126.248 221.38 124.408V124.104Z" fill="#4D148C"/>
<rect x="20" y="119.6" width="6" height="6" fill="#4D148C"/>
<path d="M43.8 152.584V157.4H42.264V145.912H46.648C49.08 145.912 50.632 147.048 50.632 149.24C50.632 151.08 49.512 152.2 47.688 152.504L50.872 157.4H49.112L46.024 152.584H43.8ZM43.8 151.256H46.568C48.2 151.256 49.112 150.536 49.112 149.24C49.112 147.944 48.2 147.24 46.568 147.24H43.8V151.256ZM55.7628 157.576C53.4428 157.576 51.8428 155.8 51.8428 153.224C51.8428 150.728 53.4268 148.872 55.6988 148.872C58.0348 148.872 59.2668 150.648 59.2668 152.968V153.448H53.2188C53.2988 155.208 54.3068 156.328 55.7628 156.328C56.8828 156.328 57.6828 155.72 57.9388 154.728L59.2028 155.176C58.6908 156.664 57.4268 157.576 55.7628 157.576ZM55.6828 150.104C54.4668 150.104 53.5548 150.92 53.2988 152.344H57.8108C57.7788 151.16 57.1388 150.104 55.6828 150.104ZM64.9653 149.032H66.1813L67.9093 155.272L69.6533 149.032H71.0933L68.5493 157.4H67.2853L65.5413 151.192L63.7973 157.4H62.5333L59.9893 149.032H61.4773L63.2373 155.256L64.9653 149.032ZM74.421 157.544C72.901 157.544 71.669 156.648 71.669 155.144C71.669 153.48 72.965 152.792 74.837 152.408L76.869 151.992V151.64C76.869 150.68 76.341 150.136 75.221 150.136C74.165 150.136 73.541 150.632 73.285 151.56L71.925 151.208C72.325 149.848 73.557 148.872 75.269 148.872C77.141 148.872 78.293 149.784 78.293 151.576V155.656C78.293 156.2 78.629 156.376 79.189 156.248V157.4C77.909 157.56 77.173 157.256 76.997 156.456C76.485 157.112 75.557 157.544 74.421 157.544ZM76.869 154.552V153.112L75.237 153.464C73.957 153.72 73.093 154.072 73.093 155.08C73.093 155.896 73.685 156.376 74.597 156.376C75.829 156.376 76.869 155.624 76.869 154.552ZM85.0829 149V150.456C84.8429 150.408 84.6509 150.392 84.3789 150.392C83.1629 150.392 82.1869 151.352 82.1869 152.824V157.4H80.7469V149.032H82.1869V150.456C82.5549 149.608 83.3709 148.968 84.5069 148.968C84.7309 148.968 84.9389 148.984 85.0829 149ZM89.4595 157.576C87.1395 157.576 85.8115 155.592 85.8115 153.224C85.8115 150.84 87.1395 148.872 89.4595 148.872C90.6275 148.872 91.5555 149.432 92.0515 150.248V145.912H93.4915V157.4H92.0515V156.184C91.5555 157.016 90.6275 157.576 89.4595 157.576ZM92.0835 152.936C92.0835 150.984 90.8995 150.136 89.7155 150.136C88.1475 150.136 87.2675 151.416 87.2675 153.224C87.2675 155.016 88.1475 156.312 89.7155 156.312C90.8995 156.312 92.0835 155.448 92.0835 153.528V152.936ZM94.9439 155.624L96.0639 154.808C96.5119 155.784 97.5359 156.376 98.6239 156.376C99.5999 156.376 100.464 155.96 100.464 155.048C100.464 154.136 99.6639 154.008 98.2879 153.72C96.9119 153.416 95.4719 153.112 95.4719 151.4C95.4719 149.912 96.7679 148.872 98.5439 148.872C100.048 148.872 101.28 149.608 101.776 150.6L100.752 151.416C100.32 150.584 99.5359 150.056 98.4799 150.056C97.5199 150.056 96.8799 150.536 96.8799 151.288C96.8799 152.072 97.6159 152.216 98.7839 152.472C100.224 152.808 101.872 153.096 101.872 154.92C101.872 156.52 100.416 157.576 98.6239 157.576C97.1039 157.576 95.5839 156.92 94.9439 155.624ZM109.124 157.544C107.604 157.544 106.372 156.648 106.372 155.144C106.372 153.48 107.668 152.792 109.54 152.408L111.572 151.992V151.64C111.572 150.68 111.044 150.136 109.924 150.136C108.868 150.136 108.244 150.632 107.988 151.56L106.628 151.208C107.028 149.848 108.26 148.872 109.972 148.872C111.844 148.872 112.996 149.784 112.996 151.576V155.656C112.996 156.2 113.332 156.376 113.892 156.248V157.4C112.612 157.56 111.876 157.256 111.7 156.456C111.188 157.112 110.26 157.544 109.124 157.544ZM111.572 154.552V153.112L109.94 153.464C108.66 153.72 107.796 154.072 107.796 155.08C107.796 155.896 108.388 156.376 109.3 156.376C110.532 156.376 111.572 155.624 111.572 154.552ZM115.45 157.4V149.032H116.89V150.168C117.37 149.48 118.202 148.872 119.386 148.872C121.162 148.872 122.17 150.104 122.17 151.88V157.4H120.73V152.264C120.73 151.096 120.234 150.216 118.986 150.216C117.946 150.216 116.89 151.016 116.89 152.408V157.4H115.45ZM127.553 157.576C125.233 157.576 123.905 155.592 123.905 153.224C123.905 150.84 125.233 148.872 127.553 148.872C128.721 148.872 129.649 149.432 130.145 150.248V145.912H131.585V157.4H130.145V156.184C129.649 157.016 128.721 157.576 127.553 157.576ZM130.177 152.936C130.177 150.984 128.993 150.136 127.809 150.136C126.241 150.136 125.361 151.416 125.361 153.224C125.361 155.016 126.241 156.312 127.809 156.312C128.993 156.312 130.177 155.448 130.177 153.528V152.936ZM138.781 145.912V157.4H137.341V145.912H138.781ZM148.384 153.224C148.384 155.816 146.784 157.576 144.496 157.576C142.208 157.576 140.608 155.816 140.608 153.224C140.608 150.632 142.208 148.872 144.496 148.872C146.784 148.872 148.384 150.632 148.384 153.224ZM142.064 153.224C142.064 155.128 143.024 156.344 144.496 156.344C145.968 156.344 146.928 155.128 146.928 153.224C146.928 151.304 145.968 150.088 144.496 150.088C143.024 150.088 142.064 151.304 142.064 153.224ZM153.085 158.312C152.605 159.576 151.949 160.376 150.493 160.376C150.141 160.376 149.965 160.36 149.709 160.312V159.064C149.981 159.128 150.157 159.144 150.397 159.144C151.021 159.144 151.357 158.92 151.693 158.088L152.093 157.096L148.989 149.032H150.509L152.861 155.432L155.181 149.032H156.685L153.085 158.312ZM159.874 157.544C158.354 157.544 157.122 156.648 157.122 155.144C157.122 153.48 158.418 152.792 160.29 152.408L162.322 151.992V151.64C162.322 150.68 161.794 150.136 160.674 150.136C159.618 150.136 158.994 150.632 158.738 151.56L157.378 151.208C157.778 149.848 159.01 148.872 160.722 148.872C162.594 148.872 163.746 149.784 163.746 151.576V155.656C163.746 156.2 164.082 156.376 164.642 156.248V157.4C163.362 157.56 162.626 157.256 162.45 156.456C161.938 157.112 161.01 157.544 159.874 157.544ZM162.322 154.552V153.112L160.69 153.464C159.41 153.72 158.546 154.072 158.546 155.08C158.546 155.896 159.138 156.376 160.05 156.376C161.282 156.376 162.322 155.624 162.322 154.552ZM167.64 145.912V157.4H166.2V145.912H167.64ZM170.268 155.4V150.264H168.972V149.032H170.268V146.584H171.692V149.032H173.596V150.264H171.692V155.176C171.692 156.056 172.124 156.216 172.86 156.216C173.196 156.216 173.436 156.2 173.772 156.12V157.352C173.404 157.432 172.988 157.48 172.508 157.48C171.084 157.48 170.268 157 170.268 155.4ZM178.554 158.312C178.074 159.576 177.418 160.376 175.962 160.376C175.61 160.376 175.434 160.36 175.178 160.312V159.064C175.45 159.128 175.626 159.144 175.866 159.144C176.49 159.144 176.826 158.92 177.162 158.088L177.562 157.096L174.458 149.032H175.978L178.33 155.432L180.65 149.032H182.154L178.554 158.312ZM190.966 157.576C189.798 157.576 188.87 157.016 188.374 156.184V160.28H186.934V149.032H188.374V150.248C188.87 149.432 189.798 148.872 190.966 148.872C193.286 148.872 194.614 150.84 194.614 153.224C194.614 155.592 193.286 157.576 190.966 157.576ZM188.342 152.936V153.528C188.342 155.448 189.526 156.312 190.71 156.312C192.278 156.312 193.158 155.016 193.158 153.224C193.158 151.416 192.278 150.136 190.71 150.136C189.526 150.136 188.342 150.984 188.342 152.936ZM200.77 149V150.456C200.53 150.408 200.338 150.392 200.066 150.392C198.85 150.392 197.874 151.352 197.874 152.824V157.4H196.434V149.032H197.874V150.456C198.242 149.608 199.058 148.968 200.194 148.968C200.418 148.968 200.626 148.984 200.77 149ZM209.213 153.224C209.213 155.816 207.613 157.576 205.325 157.576C203.037 157.576 201.437 155.816 201.437 153.224C201.437 150.632 203.037 148.872 205.325 148.872C207.613 148.872 209.213 150.632 209.213 153.224ZM202.893 153.224C202.893 155.128 203.853 156.344 205.325 156.344C206.797 156.344 207.757 155.128 207.757 153.224C207.757 151.304 206.797 150.088 205.325 150.088C203.853 150.088 202.893 151.304 202.893 153.224ZM218.132 156.648C218.132 159.096 216.516 160.456 214.244 160.456C212.404 160.456 211.06 159.608 210.596 158.072L211.94 157.56C212.212 158.632 213.076 159.256 214.244 159.256C215.716 159.256 216.692 158.504 216.692 156.76V155.816C216.244 156.632 215.3 157.208 214.132 157.208C211.844 157.208 210.5 155.32 210.5 153.032C210.5 150.76 211.844 148.872 214.132 148.872C215.284 148.872 216.244 149.448 216.692 150.264V149.032H218.132V156.648ZM216.708 152.904C216.708 151.032 215.588 150.136 214.388 150.136C212.868 150.136 211.94 151.272 211.94 153.032C211.94 154.792 212.868 155.944 214.388 155.944C215.588 155.944 216.708 155.048 216.708 153.208V152.904ZM224.864 149V150.456C224.624 150.408 224.432 150.392 224.16 150.392C222.944 150.392 221.968 151.352 221.968 152.824V157.4H220.528V149.032H221.968V150.456C222.336 149.608 223.152 148.968 224.288 148.968C224.512 148.968 224.72 148.984 224.864 149ZM228.374 157.544C226.854 157.544 225.622 156.648 225.622 155.144C225.622 153.48 226.918 152.792 228.79 152.408L230.822 151.992V151.64C230.822 150.68 230.294 150.136 229.174 150.136C228.118 150.136 227.494 150.632 227.238 151.56L225.878 151.208C226.278 149.848 227.51 148.872 229.222 148.872C231.094 148.872 232.246 149.784 232.246 151.576V155.656C232.246 156.2 232.582 156.376 233.142 156.248V157.4C231.862 157.56 231.126 157.256 230.95 156.456C230.438 157.112 229.51 157.544 228.374 157.544ZM230.822 154.552V153.112L229.19 153.464C227.91 153.72 227.046 154.072 227.046 155.08C227.046 155.896 227.638 156.376 228.55 156.376C229.782 156.376 230.822 155.624 230.822 154.552ZM236.14 152.392V157.4H234.7V149.032H236.14V150.168C236.588 149.48 237.388 148.872 238.556 148.872C239.676 148.872 240.46 149.432 240.876 150.296C241.34 149.608 242.236 148.872 243.548 148.872C245.276 148.872 246.316 150.104 246.316 151.88V157.4H244.876V152.264C244.876 151.096 244.396 150.216 243.212 150.216C242.252 150.216 241.228 151.032 241.228 152.392V157.4H239.788V152.264C239.788 151.096 239.308 150.216 238.124 150.216C237.164 150.216 236.14 151.032 236.14 152.392Z" fill="#4D148C"/>
<rect x="20" y="148.4" width="6" height="6" fill="#4D148C"/>
<path d="M18.784 214H17.264V202.512H24.688V203.856H18.784V207.552H23.776V208.896H18.784V214ZM27.7491 214.144C26.2291 214.144 24.9971 213.248 24.9971 211.744C24.9971 210.08 26.2931 209.392 28.1651 209.008L30.1971 208.592V208.24C30.1971 207.28 29.6691 206.736 28.5491 206.736C27.4931 206.736 26.8691 207.232 26.6131 208.16L25.2531 207.808C25.6531 206.448 26.8851 205.472 28.5971 205.472C30.4691 205.472 31.6211 206.384 31.6211 208.176V212.256C31.6211 212.8 31.9571 212.976 32.5171 212.848V214C31.2371 214.16 30.5011 213.856 30.3251 213.056C29.8131 213.712 28.8851 214.144 27.7491 214.144ZM30.1971 211.152V209.712L28.5651 210.064C27.2851 210.32 26.4211 210.672 26.4211 211.68C26.4211 212.496 27.0131 212.976 27.9251 212.976C29.1571 212.976 30.1971 212.224 30.1971 211.152ZM33.147 212.224L34.267 211.408C34.715 212.384 35.739 212.976 36.827 212.976C37.803 212.976 38.667 212.56 38.667 211.648C38.667 210.736 37.867 210.608 36.491 210.32C35.115 210.016 33.675 209.712 33.675 208C33.675 206.512 34.971 205.472 36.747 205.472C38.251 205.472 39.483 206.208 39.979 207.2L38.955 208.016C38.523 207.184 37.739 206.656 36.683 206.656C35.723 206.656 35.083 207.136 35.083 207.888C35.083 208.672 35.819 208.816 36.987 209.072C38.427 209.408 40.075 209.696 40.075 211.52C40.075 213.12 38.619 214.176 36.827 214.176C35.307 214.176 33.787 213.52 33.147 212.224ZM42.0803 212V206.864H40.7843V205.632H42.0803V203.184H43.5043V205.632H45.4083V206.864H43.5043V211.776C43.5043 212.656 43.9363 212.816 44.6723 212.816C45.0083 212.816 45.2483 212.8 45.5843 212.72V213.952C45.2163 214.032 44.8003 214.08 44.3203 214.08C42.8963 214.08 42.0803 213.6 42.0803 212ZM50.5909 214.176C48.2709 214.176 46.6709 212.4 46.6709 209.824C46.6709 207.328 48.2549 205.472 50.5269 205.472C52.8629 205.472 54.0949 207.248 54.0949 209.568V210.048H48.0469C48.1269 211.808 49.1349 212.928 50.5909 212.928C51.7109 212.928 52.5109 212.32 52.7669 211.328L54.0309 211.776C53.5189 213.264 52.2549 214.176 50.5909 214.176ZM50.5109 206.704C49.2949 206.704 48.3829 207.52 48.1269 208.944H52.6389C52.6069 207.76 51.9669 206.704 50.5109 206.704ZM60.2235 205.6V207.056C59.9835 207.008 59.7915 206.992 59.5195 206.992C58.3035 206.992 57.3275 207.952 57.3275 209.424V214H55.8875V205.632H57.3275V207.056C57.6955 206.208 58.5115 205.568 59.6475 205.568C59.8715 205.568 60.0795 205.584 60.2235 205.6ZM73.5684 203.856H69.6804V214H68.1444V203.856H64.2564V202.512H73.5684V203.856ZM74.8235 204.176V202.512H76.3915V204.176H74.8235ZM76.3275 205.632V214H74.8875V205.632H76.3275ZM80.1713 208.992V214H78.7313V205.632H80.1713V206.768C80.6193 206.08 81.4193 205.472 82.5873 205.472C83.7073 205.472 84.4913 206.032 84.9073 206.896C85.3713 206.208 86.2673 205.472 87.5793 205.472C89.3073 205.472 90.3473 206.704 90.3473 208.48V214H88.9073V208.864C88.9073 207.696 88.4273 206.816 87.2433 206.816C86.2833 206.816 85.2593 207.632 85.2593 208.992V214H83.8193V208.864C83.8193 207.696 83.3393 206.816 82.1553 206.816C81.1953 206.816 80.1713 207.632 80.1713 208.992ZM96.0128 214.176C93.6928 214.176 92.0928 212.4 92.0928 209.824C92.0928 207.328 93.6768 205.472 95.9488 205.472C98.2848 205.472 99.5168 207.248 99.5168 209.568V210.048H93.4688C93.5488 211.808 94.5568 212.928 96.0128 212.928C97.1328 212.928 97.9328 212.32 98.1888 211.328L99.4528 211.776C98.9408 213.264 97.6768 214.176 96.0128 214.176ZM95.9328 206.704C94.7168 206.704 93.8048 207.52 93.5488 208.944H98.0608C98.0288 207.76 97.3888 206.704 95.9328 206.704ZM104.908 212V206.864H103.612V205.632H104.908V203.184H106.332V205.632H108.236V206.864H106.332V211.776C106.332 212.656 106.764 212.816 107.5 212.816C107.836 212.816 108.076 212.8 108.412 212.72V213.952C108.044 214.032 107.628 214.08 107.148 214.08C105.724 214.08 104.908 213.6 104.908 212ZM117.275 209.824C117.275 212.416 115.675 214.176 113.387 214.176C111.099 214.176 109.499 212.416 109.499 209.824C109.499 207.232 111.099 205.472 113.387 205.472C115.675 205.472 117.275 207.232 117.275 209.824ZM110.955 209.824C110.955 211.728 111.915 212.944 113.387 212.944C114.859 212.944 115.819 211.728 115.819 209.824C115.819 207.904 114.859 206.688 113.387 206.688C111.915 206.688 110.955 207.904 110.955 209.824ZM128.721 214H127.489L123.985 204.544V214H122.545V202.512H124.641L128.129 211.952L131.633 202.512H133.665V214H132.241V204.544L128.721 214ZM138.234 214.144C136.714 214.144 135.482 213.248 135.482 211.744C135.482 210.08 136.778 209.392 138.65 209.008L140.682 208.592V208.24C140.682 207.28 140.154 206.736 139.034 206.736C137.978 206.736 137.354 207.232 137.098 208.16L135.738 207.808C136.138 206.448 137.37 205.472 139.082 205.472C140.954 205.472 142.106 206.384 142.106 208.176V212.256C142.106 212.8 142.442 212.976 143.002 212.848V214C141.722 214.16 140.986 213.856 140.81 213.056C140.298 213.712 139.37 214.144 138.234 214.144ZM140.682 211.152V209.712L139.049 210.064C137.77 210.32 136.906 210.672 136.906 211.68C136.906 212.496 137.498 212.976 138.41 212.976C139.641 212.976 140.682 212.224 140.682 211.152ZM148.895 205.6V207.056C148.655 207.008 148.463 206.992 148.191 206.992C146.975 206.992 145.999 207.952 145.999 209.424V214H144.559V205.632H145.999V207.056C146.367 206.208 147.183 205.568 148.319 205.568C148.543 205.568 148.751 205.584 148.895 205.6ZM151.921 202.512V209.536L155.633 205.632H157.425L154.161 208.928L157.697 214H156.017L153.137 209.968L151.921 211.2V214H150.481V202.512H151.921ZM162.028 214.176C159.708 214.176 158.108 212.4 158.108 209.824C158.108 207.328 159.692 205.472 161.964 205.472C164.3 205.472 165.532 207.248 165.532 209.568V210.048H159.484C159.564 211.808 160.572 212.928 162.028 212.928C163.148 212.928 163.948 212.32 164.204 211.328L165.468 211.776C164.956 213.264 163.692 214.176 162.028 214.176ZM161.948 206.704C160.732 206.704 159.82 207.52 159.564 208.944H164.076C164.044 207.76 163.404 206.704 161.948 206.704ZM167.549 212V206.864H166.253V205.632H167.549V203.184H168.973V205.632H170.877V206.864H168.973V211.776C168.973 212.656 169.405 212.816 170.141 212.816C170.477 212.816 170.717 212.8 171.053 212.72V213.952C170.685 214.032 170.269 214.08 169.789 214.08C168.365 214.08 167.549 213.6 167.549 212ZM179.802 202.4C180.378 202.4 180.868 202.501 181.274 202.704C181.69 202.896 182.01 203.173 182.234 203.536C182.458 203.899 182.57 204.341 182.57 204.864C182.57 205.536 182.351 206.107 181.914 206.576C181.487 207.045 180.943 207.472 180.282 207.856L183.37 210.832C183.647 210.501 183.871 210.123 184.042 209.696C184.223 209.259 184.372 208.789 184.49 208.288H185.914C185.743 208.971 185.53 209.605 185.274 210.192C185.018 210.779 184.687 211.291 184.282 211.728L186.618 214H184.714L183.322 212.656C183.066 212.88 182.799 213.088 182.522 213.28C182.255 213.461 181.962 213.616 181.642 213.744C181.322 213.872 180.975 213.973 180.602 214.048C180.239 214.123 179.834 214.16 179.386 214.16C178.65 214.16 178.01 214.043 177.466 213.808C176.932 213.563 176.516 213.205 176.218 212.736C175.93 212.267 175.786 211.696 175.786 211.024C175.786 210.48 175.882 210.011 176.074 209.616C176.276 209.221 176.564 208.869 176.938 208.56C177.311 208.251 177.748 207.952 178.25 207.664C178.026 207.408 177.807 207.141 177.594 206.864C177.38 206.587 177.204 206.288 177.066 205.968C176.927 205.637 176.858 205.28 176.858 204.896C176.858 204.373 176.975 203.925 177.21 203.552C177.444 203.179 177.78 202.896 178.218 202.704C178.666 202.501 179.194 202.4 179.802 202.4ZM179.098 208.544C178.714 208.768 178.383 208.997 178.106 209.232C177.839 209.456 177.631 209.707 177.482 209.984C177.332 210.261 177.258 210.592 177.258 210.976C177.258 211.563 177.455 212.032 177.85 212.384C178.244 212.736 178.772 212.912 179.434 212.912C180.116 212.912 180.703 212.8 181.194 212.576C181.684 212.352 182.095 212.085 182.426 211.776L179.098 208.544ZM179.754 203.552C179.306 203.552 178.938 203.669 178.65 203.904C178.372 204.139 178.234 204.464 178.234 204.88C178.234 205.264 178.335 205.621 178.538 205.952C178.74 206.272 179.034 206.629 179.418 207.024C180.047 206.661 180.495 206.32 180.762 206C181.039 205.669 181.178 205.291 181.178 204.864C181.178 204.48 181.05 204.165 180.794 203.92C180.538 203.675 180.191 203.552 179.754 203.552ZM195.263 214.176C194.095 214.176 193.167 213.616 192.671 212.784V214H191.231V202.512H192.671V206.848C193.167 206.032 194.095 205.472 195.263 205.472C197.583 205.472 198.911 207.44 198.911 209.824C198.911 212.192 197.583 214.176 195.263 214.176ZM192.639 209.536V210.128C192.639 212.048 193.823 212.912 195.007 212.912C196.575 212.912 197.455 211.616 197.455 209.824C197.455 208.016 196.575 206.736 195.007 206.736C193.823 206.736 192.639 207.584 192.639 209.536ZM204.075 214.176C201.755 214.176 200.155 212.4 200.155 209.824C200.155 207.328 201.739 205.472 204.011 205.472C206.347 205.472 207.579 207.248 207.579 209.568V210.048H201.531C201.611 211.808 202.619 212.928 204.075 212.928C205.195 212.928 205.995 212.32 206.251 211.328L207.515 211.776C207.003 213.264 205.739 214.176 204.075 214.176ZM203.995 206.704C202.779 206.704 201.867 207.52 201.611 208.944H206.123C206.091 207.76 205.451 206.704 203.995 206.704ZM209.596 212V206.864H208.3V205.632H209.596V203.184H211.02V205.632H212.924V206.864H211.02V211.776C211.02 212.656 211.452 212.816 212.188 212.816C212.524 212.816 212.764 212.8 213.1 212.72V213.952C212.732 214.032 212.316 214.08 211.836 214.08C210.412 214.08 209.596 213.6 209.596 212ZM215.033 212V206.864H213.737V205.632H215.033V203.184H216.457V205.632H218.361V206.864H216.457V211.776C216.457 212.656 216.889 212.816 217.625 212.816C217.961 212.816 218.201 212.8 218.537 212.72V213.952C218.169 214.032 217.753 214.08 217.273 214.08C215.849 214.08 215.033 213.6 215.033 212ZM223.544 214.176C221.224 214.176 219.624 212.4 219.624 209.824C219.624 207.328 221.208 205.472 223.48 205.472C225.816 205.472 227.048 207.248 227.048 209.568V210.048H221C221.08 211.808 222.088 212.928 223.544 212.928C224.664 212.928 225.464 212.32 225.72 211.328L226.984 211.776C226.472 213.264 225.208 214.176 223.544 214.176ZM223.464 206.704C222.248 206.704 221.336 207.52 221.08 208.944H225.592C225.56 207.76 224.92 206.704 223.464 206.704ZM233.177 205.6V207.056C232.937 207.008 232.745 206.992 232.473 206.992C231.257 206.992 230.281 207.952 230.281 209.424V214H228.841V205.632H230.281V207.056C230.649 206.208 231.465 205.568 232.601 205.568C232.825 205.568 233.033 205.584 233.177 205.6ZM238.202 214V202.512H242.442C244.874 202.512 246.17 203.584 246.17 205.504C246.17 206.976 245.274 207.712 244.394 208.016C245.69 208.368 246.554 209.376 246.554 210.832C246.554 212.832 245.098 214 242.778 214H238.202ZM239.69 207.44H242.314C243.85 207.44 244.698 206.848 244.698 205.632C244.698 204.4 243.85 203.808 242.314 203.808H239.69V207.44ZM239.69 208.752V212.704H242.714C244.25 212.704 245.082 211.904 245.082 210.72C245.082 209.552 244.25 208.752 242.714 208.752H239.69ZM252.692 205.6V207.056C252.452 207.008 252.26 206.992 251.988 206.992C250.772 206.992 249.796 207.952 249.796 209.424V214H248.356V205.632H249.796V207.056C250.164 206.208 250.98 205.568 252.116 205.568C252.34 205.568 252.548 205.584 252.692 205.6ZM256.202 214.144C254.682 214.144 253.45 213.248 253.45 211.744C253.45 210.08 254.746 209.392 256.618 209.008L258.65 208.592V208.24C258.65 207.28 258.122 206.736 257.002 206.736C255.946 206.736 255.322 207.232 255.066 208.16L253.706 207.808C254.106 206.448 255.338 205.472 257.05 205.472C258.922 205.472 260.074 206.384 260.074 208.176V212.256C260.074 212.8 260.41 212.976 260.97 212.848V214C259.69 214.16 258.954 213.856 258.778 213.056C258.266 213.712 257.338 214.144 256.202 214.144ZM258.65 211.152V209.712L257.018 210.064C255.738 210.32 254.874 210.672 254.874 211.68C254.874 212.496 255.466 212.976 256.378 212.976C257.61 212.976 258.65 212.224 258.65 211.152ZM262.528 214V205.632H263.968V206.768C264.448 206.08 265.28 205.472 266.464 205.472C268.24 205.472 269.248 206.704 269.248 208.48V214H267.808V208.864C267.808 207.696 267.312 206.816 266.064 206.816C265.024 206.816 263.968 207.616 263.968 209.008V214H262.528ZM274.631 214.176C272.311 214.176 270.983 212.192 270.983 209.824C270.983 207.44 272.311 205.472 274.631 205.472C275.799 205.472 276.727 206.032 277.223 206.848V202.512H278.663V214H277.223V212.784C276.727 213.616 275.799 214.176 274.631 214.176ZM277.255 209.536C277.255 207.584 276.071 206.736 274.887 206.736C273.319 206.736 272.439 208.016 272.439 209.824C272.439 211.616 273.319 212.912 274.887 212.912C276.071 212.912 277.255 212.048 277.255 210.128V209.536ZM22.24 238H20.624L16.256 226.512H17.904L21.456 236.08L25.008 226.512H26.576L22.24 238ZM27.886 228.176V226.512H29.454V228.176H27.886ZM29.39 229.632V238H27.95V229.632H29.39ZM30.8658 236.224L31.9858 235.408C32.4338 236.384 33.4578 236.976 34.5458 236.976C35.5218 236.976 36.3858 236.56 36.3858 235.648C36.3858 234.736 35.5858 234.608 34.2098 234.32C32.8338 234.016 31.3938 233.712 31.3938 232C31.3938 230.512 32.6898 229.472 34.4658 229.472C35.9698 229.472 37.2018 230.208 37.6978 231.2L36.6738 232.016C36.2418 231.184 35.4578 230.656 34.4018 230.656C33.4418 230.656 32.8018 231.136 32.8018 231.888C32.8018 232.672 33.5378 232.816 34.7057 233.072C36.1458 233.408 37.7938 233.696 37.7938 235.52C37.7938 237.12 36.3378 238.176 34.5458 238.176C33.0258 238.176 31.5058 237.52 30.8658 236.224ZM39.511 228.176V226.512H41.079V228.176H39.511ZM41.015 229.632V238H39.575V229.632H41.015ZM47.4508 238.176C46.2828 238.176 45.3548 237.616 44.8588 236.784V238H43.4188V226.512H44.8588V230.848C45.3548 230.032 46.2828 229.472 47.4508 229.472C49.7708 229.472 51.0988 231.44 51.0988 233.824C51.0988 236.192 49.7708 238.176 47.4508 238.176ZM44.8268 233.536V234.128C44.8268 236.048 46.0108 236.912 47.1948 236.912C48.7628 236.912 49.6428 235.616 49.6428 233.824C49.6428 232.016 48.7628 230.736 47.1948 230.736C46.0108 230.736 44.8268 231.584 44.8268 233.536ZM52.8548 228.176V226.512H54.4228V228.176H52.8548ZM54.3588 229.632V238H52.9188V229.632H54.3588ZM58.2025 226.512V238H56.7625V226.512H58.2025ZM60.5423 228.176V226.512H62.1103V228.176H60.5423ZM62.0463 229.632V238H60.6063V229.632H62.0463ZM64.674 236V230.864H63.378V229.632H64.674V227.184H66.098V229.632H68.002V230.864H66.098V235.776C66.098 236.656 66.53 236.816 67.266 236.816C67.602 236.816 67.842 236.8 68.178 236.72V237.952C67.81 238.032 67.394 238.08 66.914 238.08C65.49 238.08 64.674 237.6 64.674 236ZM72.9603 238.912C72.4803 240.176 71.8243 240.976 70.3683 240.976C70.0163 240.976 69.8403 240.96 69.5843 240.912V239.664C69.8563 239.728 70.0323 239.744 70.2723 239.744C70.8963 239.744 71.2323 239.52 71.5683 238.688L71.9683 237.696L68.8643 229.632H70.3843L72.7363 236.032L75.0563 229.632H76.5603L72.9603 238.912ZM85.3246 229.632H86.5406L88.2686 235.872L90.0126 229.632H91.4526L88.9086 238H87.6446L85.9006 231.792L84.1566 238H82.8926L80.3486 229.632H81.8366L83.5966 235.856L85.3246 229.632ZM92.7923 228.176V226.512H94.3603V228.176H92.7923ZM94.2963 229.632V238H92.8563V229.632H94.2963ZM96.924 236V230.864H95.628V229.632H96.924V227.184H98.348V229.632H100.252V230.864H98.348V235.776C98.348 236.656 98.78 236.816 99.516 236.816C99.852 236.816 100.092 236.8 100.428 236.72V237.952C100.06 238.032 99.644 238.08 99.164 238.08C97.74 238.08 96.924 237.6 96.924 236ZM102.138 238V226.512H103.578V230.768C104.058 230.08 104.89 229.472 106.074 229.472C107.85 229.472 108.858 230.704 108.858 232.48V238H107.418V232.864C107.418 231.696 106.922 230.816 105.674 230.816C104.634 230.816 103.578 231.616 103.578 233.008V238H102.138ZM117.888 238.176C115.568 238.176 113.968 236.4 113.968 233.824C113.968 231.328 115.552 229.472 117.824 229.472C120.16 229.472 121.392 231.248 121.392 233.568V234.048H115.344C115.424 235.808 116.432 236.928 117.888 236.928C119.008 236.928 119.808 236.32 120.064 235.328L121.328 235.776C120.816 237.264 119.552 238.176 117.888 238.176ZM117.808 230.704C116.592 230.704 115.68 231.52 115.424 232.944H119.936C119.904 231.76 119.264 230.704 117.808 230.704ZM125.374 238.144C123.854 238.144 122.622 237.248 122.622 235.744C122.622 234.08 123.918 233.392 125.79 233.008L127.822 232.592V232.24C127.822 231.28 127.294 230.736 126.174 230.736C125.118 230.736 124.494 231.232 124.238 232.16L122.878 231.808C123.278 230.448 124.51 229.472 126.222 229.472C128.094 229.472 129.246 230.384 129.246 232.176V236.256C129.246 236.8 129.582 236.976 130.142 236.848V238C128.862 238.16 128.126 237.856 127.95 237.056C127.438 237.712 126.51 238.144 125.374 238.144ZM127.822 235.152V233.712L126.19 234.064C124.91 234.32 124.046 234.672 124.046 235.68C124.046 236.496 124.638 236.976 125.55 236.976C126.782 236.976 127.822 236.224 127.822 235.152ZM130.772 236.224L131.892 235.408C132.34 236.384 133.364 236.976 134.452 236.976C135.428 236.976 136.292 236.56 136.292 235.648C136.292 234.736 135.492 234.608 134.116 234.32C132.74 234.016 131.3 233.712 131.3 232C131.3 230.512 132.596 229.472 134.372 229.472C135.876 229.472 137.108 230.208 137.604 231.2L136.58 232.016C136.148 231.184 135.364 230.656 134.308 230.656C133.348 230.656 132.708 231.136 132.708 231.888C132.708 232.672 133.444 232.816 134.612 233.072C136.052 233.408 137.7 233.696 137.7 235.52C137.7 237.12 136.244 238.176 134.452 238.176C132.932 238.176 131.412 237.52 130.772 236.224ZM142.429 238.912C141.949 240.176 141.293 240.976 139.837 240.976C139.485 240.976 139.309 240.96 139.053 240.912V239.664C139.325 239.728 139.501 239.744 139.741 239.744C140.365 239.744 140.701 239.52 141.037 238.688L141.437 237.696L138.333 229.632H139.853L142.205 236.032L144.525 229.632H146.029L142.429 238.912ZM152.905 238.144C151.385 238.144 150.153 237.248 150.153 235.744C150.153 234.08 151.449 233.392 153.321 233.008L155.353 232.592V232.24C155.353 231.28 154.825 230.736 153.705 230.736C152.649 230.736 152.025 231.232 151.769 232.16L150.409 231.808C150.809 230.448 152.041 229.472 153.753 229.472C155.625 229.472 156.777 230.384 156.777 232.176V236.256C156.777 236.8 157.113 236.976 157.673 236.848V238C156.393 238.16 155.657 237.856 155.481 237.056C154.969 237.712 154.041 238.144 152.905 238.144ZM155.353 235.152V233.712L153.721 234.064C152.441 234.32 151.577 234.672 151.577 235.68C151.577 236.496 152.169 236.976 153.081 236.976C154.313 236.976 155.353 236.224 155.353 235.152ZM160.095 233.824C160.095 235.728 161.119 236.912 162.607 236.912C163.759 236.912 164.447 236.176 164.687 235.136L165.967 235.728C165.567 237.12 164.351 238.176 162.607 238.176C160.271 238.176 158.655 236.4 158.655 233.824C158.655 231.232 160.271 229.472 162.607 229.472C164.351 229.472 165.535 230.48 165.935 231.872L164.687 232.496C164.447 231.472 163.759 230.72 162.607 230.72C161.119 230.72 160.095 231.904 160.095 233.824ZM168.408 233.824C168.408 235.728 169.432 236.912 170.92 236.912C172.072 236.912 172.76 236.176 173 235.136L174.28 235.728C173.88 237.12 172.664 238.176 170.92 238.176C168.584 238.176 166.968 236.4 166.968 233.824C166.968 231.232 168.584 229.472 170.92 229.472C172.664 229.472 173.848 230.48 174.248 231.872L173 232.496C172.76 231.472 172.072 230.72 170.92 230.72C169.432 230.72 168.408 231.904 168.408 233.824ZM179.2 238.176C176.88 238.176 175.28 236.4 175.28 233.824C175.28 231.328 176.864 229.472 179.136 229.472C181.472 229.472 182.704 231.248 182.704 233.568V234.048H176.656C176.736 235.808 177.744 236.928 179.2 236.928C180.32 236.928 181.12 236.32 181.376 235.328L182.64 235.776C182.128 237.264 180.864 238.176 179.2 238.176ZM179.12 230.704C177.904 230.704 176.992 231.52 176.736 232.944H181.248C181.216 231.76 180.576 230.704 179.12 230.704ZM183.569 236.224L184.689 235.408C185.137 236.384 186.161 236.976 187.249 236.976C188.225 236.976 189.089 236.56 189.089 235.648C189.089 234.736 188.289 234.608 186.913 234.32C185.537 234.016 184.097 233.712 184.097 232C184.097 230.512 185.393 229.472 187.169 229.472C188.673 229.472 189.905 230.208 190.401 231.2L189.377 232.016C188.945 231.184 188.161 230.656 187.105 230.656C186.145 230.656 185.505 231.136 185.505 231.888C185.505 232.672 186.241 232.816 187.409 233.072C188.849 233.408 190.497 233.696 190.497 235.52C190.497 237.12 189.041 238.176 187.249 238.176C185.729 238.176 184.209 237.52 183.569 236.224ZM191.35 236.224L192.47 235.408C192.918 236.384 193.942 236.976 195.03 236.976C196.006 236.976 196.87 236.56 196.87 235.648C196.87 234.736 196.07 234.608 194.694 234.32C193.318 234.016 191.878 233.712 191.878 232C191.878 230.512 193.174 229.472 194.95 229.472C196.454 229.472 197.686 230.208 198.182 231.2L197.158 232.016C196.726 231.184 195.942 230.656 194.886 230.656C193.926 230.656 193.286 231.136 193.286 231.888C193.286 232.672 194.022 232.816 195.19 233.072C196.63 233.408 198.278 233.696 198.278 235.52C198.278 237.12 196.822 238.176 195.03 238.176C193.51 238.176 191.99 237.52 191.35 236.224ZM203.658 236V230.864H202.362V229.632H203.658V227.184H205.082V229.632H206.986V230.864H205.082V235.776C205.082 236.656 205.514 236.816 206.25 236.816C206.586 236.816 206.826 236.8 207.162 236.72V237.952C206.794 238.032 206.378 238.08 205.898 238.08C204.474 238.08 203.658 237.6 203.658 236ZM216.025 233.824C216.025 236.416 214.425 238.176 212.137 238.176C209.849 238.176 208.249 236.416 208.249 233.824C208.249 231.232 209.849 229.472 212.137 229.472C214.425 229.472 216.025 231.232 216.025 233.824ZM209.705 233.824C209.705 235.728 210.665 236.944 212.137 236.944C213.609 236.944 214.569 235.728 214.569 233.824C214.569 231.904 213.609 230.688 212.137 230.688C210.665 230.688 209.705 231.904 209.705 233.824ZM228.431 233.824C228.431 236.416 226.831 238.176 224.543 238.176C222.255 238.176 220.655 236.416 220.655 233.824C220.655 231.232 222.255 229.472 224.543 229.472C226.831 229.472 228.431 231.232 228.431 233.824ZM222.111 233.824C222.111 235.728 223.071 236.944 224.543 236.944C226.015 236.944 226.975 235.728 226.975 233.824C226.975 231.904 226.015 230.688 224.543 230.688C223.071 230.688 222.111 231.904 222.111 233.824ZM236.903 229.632V238H235.463V236.848C234.983 237.552 234.167 238.176 232.983 238.176C231.191 238.176 230.183 236.944 230.183 235.168V229.632H231.623V234.864C231.623 236.048 232.135 236.848 233.367 236.848C234.407 236.848 235.463 236.064 235.463 234.672V229.632H236.903ZM243.63 229.6V231.056C243.39 231.008 243.198 230.992 242.926 230.992C241.71 230.992 240.734 231.952 240.734 233.424V238H239.294V229.632H240.734V231.056C241.102 230.208 241.918 229.568 243.054 229.568C243.278 229.568 243.486 229.584 243.63 229.6ZM249.519 232.256C249.519 234.976 251.023 236.816 253.151 236.816C254.639 236.816 255.711 235.952 256.127 234.496L257.583 234.976C256.911 236.96 255.343 238.176 253.151 238.176C250.175 238.176 247.983 235.76 247.983 232.256C247.983 228.752 250.175 226.336 253.151 226.336C255.343 226.336 256.911 227.552 257.583 229.536L256.127 230.016C255.711 228.56 254.639 227.696 253.151 227.696C251.023 227.696 249.519 229.536 249.519 232.256ZM261.234 238.144C259.714 238.144 258.482 237.248 258.482 235.744C258.482 234.08 259.778 233.392 261.65 233.008L263.682 232.592V232.24C263.682 231.28 263.154 230.736 262.034 230.736C260.978 230.736 260.354 231.232 260.098 232.16L258.738 231.808C259.138 230.448 260.37 229.472 262.082 229.472C263.954 229.472 265.106 230.384 265.106 232.176V236.256C265.106 236.8 265.442 236.976 266.002 236.848V238C264.722 238.16 263.986 237.856 263.81 237.056C263.298 237.712 262.37 238.144 261.234 238.144ZM263.682 235.152V233.712L262.049 234.064C260.77 234.32 259.906 234.672 259.906 235.68C259.906 236.496 260.498 236.976 261.41 236.976C262.641 236.976 263.682 236.224 263.682 235.152ZM271.895 229.6V231.056C271.655 231.008 271.463 230.992 271.191 230.992C269.975 230.992 268.999 231.952 268.999 233.424V238H267.559V229.632H268.999V231.056C269.367 230.208 270.183 229.568 271.319 229.568C271.543 229.568 271.751 229.584 271.895 229.6ZM276.272 238.176C273.952 238.176 272.624 236.192 272.624 233.824C272.624 231.44 273.952 229.472 276.272 229.472C277.44 229.472 278.368 230.032 278.864 230.848V226.512H280.304V238H278.864V236.784C278.368 237.616 277.44 238.176 276.272 238.176ZM278.896 233.536C278.896 231.584 277.712 230.736 276.528 230.736C274.96 230.736 274.08 232.016 274.08 233.824C274.08 235.616 274.96 236.912 276.528 236.912C277.712 236.912 278.896 236.048 278.896 234.128V233.536ZM19.296 262.144C17.776 262.144 16.544 261.248 16.544 259.744C16.544 258.08 17.84 257.392 19.712 257.008L21.744 256.592V256.24C21.744 255.28 21.216 254.736 20.096 254.736C19.04 254.736 18.416 255.232 18.16 256.16L16.8 255.808C17.2 254.448 18.432 253.472 20.144 253.472C22.016 253.472 23.168 254.384 23.168 256.176V260.256C23.168 260.8 23.504 260.976 24.064 260.848V262C22.784 262.16 22.048 261.856 21.872 261.056C21.36 261.712 20.432 262.144 19.296 262.144ZM21.744 259.152V257.712L20.112 258.064C18.832 258.32 17.968 258.672 17.968 259.68C17.968 260.496 18.56 260.976 19.472 260.976C20.704 260.976 21.744 260.224 21.744 259.152ZM29.6539 262.176C28.4859 262.176 27.5579 261.616 27.0619 260.784V264.88H25.6219V253.632H27.0619V254.848C27.5579 254.032 28.4859 253.472 29.6539 253.472C31.9739 253.472 33.3019 255.44 33.3019 257.824C33.3019 260.192 31.9739 262.176 29.6539 262.176ZM27.0299 257.536V258.128C27.0299 260.048 28.2139 260.912 29.3979 260.912C30.9659 260.912 31.8459 259.616 31.8459 257.824C31.8459 256.016 30.9659 254.736 29.3979 254.736C28.2139 254.736 27.0299 255.584 27.0299 257.536ZM39.1539 262.176C37.9859 262.176 37.0579 261.616 36.5619 260.784V264.88H35.1219V253.632H36.5619V254.848C37.0579 254.032 37.9859 253.472 39.1539 253.472C41.4739 253.472 42.8019 255.44 42.8019 257.824C42.8019 260.192 41.4739 262.176 39.1539 262.176ZM36.5299 257.536V258.128C36.5299 260.048 37.7139 260.912 38.8979 260.912C40.4659 260.912 41.3459 259.616 41.3459 257.824C41.3459 256.016 40.4659 254.736 38.8979 254.736C37.7139 254.736 36.5299 255.584 36.5299 257.536ZM46.0619 250.512V262H44.6219V250.512H46.0619ZM48.4016 252.176V250.512H49.9696V252.176H48.4016ZM49.9056 253.632V262H48.4656V253.632H49.9056ZM53.1734 257.824C53.1734 259.728 54.1974 260.912 55.6854 260.912C56.8374 260.912 57.5254 260.176 57.7654 259.136L59.0454 259.728C58.6454 261.12 57.4294 262.176 55.6854 262.176C53.3494 262.176 51.7334 260.4 51.7334 257.824C51.7334 255.232 53.3494 253.472 55.6854 253.472C57.4294 253.472 58.6134 254.48 59.0134 255.872L57.7654 256.496C57.5254 255.472 56.8374 254.72 55.6854 254.72C54.1974 254.72 53.1734 255.904 53.1734 257.824ZM62.8116 262.144C61.2916 262.144 60.0596 261.248 60.0596 259.744C60.0596 258.08 61.3556 257.392 63.2276 257.008L65.2596 256.592V256.24C65.2596 255.28 64.7316 254.736 63.6116 254.736C62.5556 254.736 61.9316 255.232 61.6756 256.16L60.3156 255.808C60.7156 254.448 61.9476 253.472 63.6596 253.472C65.5316 253.472 66.6836 254.384 66.6836 256.176V260.256C66.6836 260.8 67.0196 260.976 67.5796 260.848V262C66.2996 262.16 65.5636 261.856 65.3876 261.056C64.8756 261.712 63.9476 262.144 62.8116 262.144ZM65.2596 259.152V257.712L63.6276 258.064C62.3476 258.32 61.4836 258.672 61.4836 259.68C61.4836 260.496 62.0756 260.976 62.9876 260.976C64.2196 260.976 65.2596 260.224 65.2596 259.152ZM69.3615 260V254.864H68.0655V253.632H69.3615V251.184H70.7855V253.632H72.6895V254.864H70.7855V259.776C70.7855 260.656 71.2175 260.816 71.9535 260.816C72.2895 260.816 72.5295 260.8 72.8655 260.72V261.952C72.4975 262.032 72.0815 262.08 71.6015 262.08C70.1775 262.08 69.3615 261.6 69.3615 260ZM74.511 252.176V250.512H76.079V252.176H74.511ZM76.015 253.632V262H74.575V253.632H76.015ZM85.6188 257.824C85.6188 260.416 84.0188 262.176 81.7308 262.176C79.4428 262.176 77.8428 260.416 77.8428 257.824C77.8428 255.232 79.4428 253.472 81.7308 253.472C84.0188 253.472 85.6188 255.232 85.6188 257.824ZM79.2988 257.824C79.2988 259.728 80.2588 260.944 81.7308 260.944C83.2028 260.944 84.1628 259.728 84.1628 257.824C84.1628 255.904 83.2028 254.688 81.7308 254.688C80.2588 254.688 79.2988 255.904 79.2988 257.824ZM87.45 262V253.632H88.89V254.768C89.37 254.08 90.202 253.472 91.386 253.472C93.162 253.472 94.17 254.704 94.17 256.48V262H92.73V256.864C92.73 255.696 92.234 254.816 90.986 254.816C89.946 254.816 88.89 255.616 88.89 257.008V262H87.45ZM95.5533 260.224L96.6733 259.408C97.1213 260.384 98.1453 260.976 99.2333 260.976C100.209 260.976 101.073 260.56 101.073 259.648C101.073 258.736 100.273 258.608 98.8973 258.32C97.5213 258.016 96.0813 257.712 96.0813 256C96.0813 254.512 97.3773 253.472 99.1533 253.472C100.657 253.472 101.889 254.208 102.385 255.2L101.361 256.016C100.929 255.184 100.145 254.656 99.0893 254.656C98.1293 254.656 97.4893 255.136 97.4893 255.888C97.4893 256.672 98.2253 256.816 99.3932 257.072C100.833 257.408 102.481 257.696 102.481 259.52C102.481 261.12 101.025 262.176 99.2333 262.176C97.7133 262.176 96.1933 261.52 95.5533 260.224Z" fill="#FF5900"/>
</svg>
