<svg width="331" height="283" viewBox="0 0 331 283" fill="none" xmlns="http://www.w3.org/2000/svg">
<rect x="0.5" y="0.5" width="330" height="179" rx="7.5" fill="#F8F6FC" stroke="#4D148C"/>
<path d="M24.1706 31.248V36H21.5246V23.076H26.8166C29.7866 23.076 31.6406 24.48 31.6406 27.162C31.6406 29.826 29.7866 31.248 26.8166 31.248H24.1706ZM24.1706 28.998H26.6726C28.2206 28.998 29.0126 28.314 29.0126 27.162C29.0126 25.992 28.2206 25.326 26.6726 25.326H24.1706V28.998ZM38.4421 26.514V28.98C38.1541 28.944 37.9381 28.926 37.6321 28.926C36.3181 28.926 35.3101 29.736 35.3101 31.194V36H32.7901V26.532H35.3101V27.864C35.7241 27.036 36.6601 26.478 37.8301 26.478C38.0821 26.478 38.2621 26.496 38.4421 26.514ZM48.147 31.266C48.147 34.218 46.239 36.198 43.503 36.198C40.767 36.198 38.859 34.218 38.859 31.266C38.859 28.332 40.767 26.352 43.503 26.352C46.239 26.352 48.147 28.332 48.147 31.266ZM41.361 31.266C41.361 33.066 42.189 34.11 43.503 34.11C44.817 34.11 45.627 33.066 45.627 31.266C45.627 29.484 44.817 28.44 43.503 28.44C42.189 28.44 41.361 29.484 41.361 31.266ZM51.6443 31.266C51.6443 33.048 52.5263 34.074 53.8583 34.074C54.9023 34.074 55.5323 33.354 55.7663 32.382L57.9443 33.354C57.5123 34.902 56.0363 36.198 53.8403 36.198C51.0863 36.198 49.1423 34.2 49.1423 31.266C49.1423 28.35 51.0863 26.352 53.8403 26.352C56.0183 26.352 57.4583 27.612 57.9082 29.142L55.7663 30.15C55.5323 29.178 54.9023 28.458 53.8583 28.458C52.5263 28.458 51.6443 29.502 51.6443 31.266ZM63.2973 36.198C60.5073 36.198 58.5993 34.2 58.5993 31.266C58.5993 28.476 60.5253 26.352 63.2073 26.352C66.0153 26.352 67.5273 28.44 67.5273 31.086V31.824H61.0113C61.1913 33.264 62.0733 34.128 63.3153 34.128C64.2873 34.128 65.0613 33.66 65.3493 32.742L67.4733 33.498C66.7893 35.226 65.1873 36.198 63.2973 36.198ZM63.1893 28.368C62.1813 28.368 61.4073 28.962 61.1013 30.114H65.0253C65.0073 29.178 64.4133 28.368 63.1893 28.368ZM68.1002 34.398L69.6662 32.796C70.3142 33.678 71.4662 34.236 72.5282 34.236C73.3742 34.236 74.1122 33.948 74.1122 33.264C74.1122 32.544 73.4102 32.454 71.8982 32.166C70.3682 31.86 68.6762 31.464 68.6762 29.43C68.6762 27.612 70.2782 26.352 72.5462 26.352C74.2202 26.352 75.7142 27.036 76.4522 27.99L75.0122 29.574C74.3822 28.764 73.4642 28.314 72.4742 28.314C71.6822 28.314 71.1602 28.656 71.1602 29.178C71.1602 29.79 71.7902 29.898 72.9602 30.132C74.6162 30.474 76.5782 30.852 76.5782 32.994C76.5782 34.974 74.7422 36.198 72.4742 36.198C70.7642 36.198 68.9642 35.568 68.1002 34.398ZM77.1178 34.398L78.6838 32.796C79.3318 33.678 80.4838 34.236 81.5458 34.236C82.3918 34.236 83.1298 33.948 83.1298 33.264C83.1298 32.544 82.4278 32.454 80.9158 32.166C79.3858 31.86 77.6938 31.464 77.6938 29.43C77.6938 27.612 79.2958 26.352 81.5638 26.352C83.2378 26.352 84.7318 27.036 85.4698 27.99L84.0298 29.574C83.3998 28.764 82.4818 28.314 81.4918 28.314C80.6998 28.314 80.1778 28.656 80.1778 29.178C80.1778 29.79 80.8078 29.898 81.9778 30.132C83.6338 30.474 85.5958 30.852 85.5958 32.994C85.5958 34.974 83.7598 36.198 81.4918 36.198C79.7818 36.198 77.9818 35.568 77.1178 34.398ZM87.0353 25.416V23.076H89.6093V25.416H87.0353ZM89.5913 26.532V36H87.0713V26.532H89.5913ZM91.6592 36V26.532H94.1792V27.504C94.7012 26.892 95.5652 26.352 96.7712 26.352C98.7512 26.352 99.9572 27.702 99.9572 29.754V36H97.4372V30.474C97.4372 29.412 97.0052 28.656 95.9252 28.656C95.0432 28.656 94.1792 29.286 94.1792 30.528V36H91.6592ZM110.708 34.956C110.708 37.818 108.728 39.402 105.92 39.402C103.634 39.402 102.05 38.466 101.51 36.612L103.868 35.928C104.138 36.864 104.876 37.44 105.956 37.44C107.27 37.44 108.188 36.792 108.188 35.226V34.578C107.702 35.226 106.748 35.73 105.56 35.73C102.968 35.73 101.456 33.624 101.456 31.032C101.456 28.458 102.968 26.352 105.56 26.352C106.73 26.352 107.702 26.856 108.188 27.504V26.532H110.708V34.956ZM108.206 30.924C108.206 29.358 107.36 28.476 106.154 28.476C104.786 28.476 104.012 29.448 104.012 31.032C104.012 32.616 104.786 33.606 106.154 33.606C107.36 33.606 108.206 32.724 108.206 31.176V30.924ZM120.963 22.968C121.659 22.968 122.277 23.076 122.817 23.292C123.357 23.508 123.783 23.826 124.095 24.246C124.407 24.654 124.563 25.158 124.563 25.758C124.563 26.586 124.317 27.282 123.825 27.846C123.333 28.41 122.721 28.902 121.989 29.322L124.491 31.752C124.731 31.344 124.941 30.918 125.121 30.474C125.301 30.018 125.451 29.562 125.571 29.106H128.361C128.181 29.778 127.917 30.498 127.569 31.266C127.221 32.034 126.777 32.754 126.237 33.426L128.883 36H125.571L124.563 35.01C124.299 35.19 124.023 35.352 123.735 35.496C123.447 35.64 123.147 35.766 122.835 35.874C122.523 35.97 122.193 36.042 121.845 36.09C121.497 36.15 121.137 36.18 120.765 36.18C119.793 36.18 118.959 36.03 118.263 35.73C117.567 35.418 117.033 34.986 116.661 34.434C116.289 33.882 116.103 33.246 116.103 32.526C116.103 31.914 116.193 31.392 116.373 30.96C116.565 30.516 116.835 30.132 117.183 29.808C117.543 29.472 117.969 29.166 118.461 28.89C118.149 28.53 117.897 28.194 117.705 27.882C117.525 27.558 117.393 27.24 117.309 26.928C117.237 26.616 117.201 26.286 117.201 25.938C117.201 25.326 117.357 24.798 117.669 24.354C117.993 23.91 118.437 23.568 119.001 23.328C119.577 23.088 120.231 22.968 120.963 22.968ZM120.027 30.492C119.799 30.66 119.601 30.834 119.433 31.014C119.277 31.194 119.151 31.386 119.055 31.59C118.971 31.794 118.929 32.022 118.929 32.274C118.929 32.79 119.121 33.198 119.505 33.498C119.889 33.786 120.369 33.93 120.945 33.93C121.329 33.93 121.689 33.882 122.025 33.786C122.361 33.69 122.667 33.558 122.943 33.39L120.027 30.492ZM120.945 25.038C120.645 25.038 120.357 25.116 120.081 25.272C119.817 25.416 119.685 25.698 119.685 26.118C119.685 26.418 119.757 26.706 119.901 26.982C120.057 27.258 120.261 27.54 120.513 27.828C121.017 27.552 121.401 27.276 121.665 27C121.941 26.724 122.079 26.406 122.079 26.046C122.079 25.686 121.959 25.428 121.719 25.272C121.479 25.116 121.221 25.038 120.945 25.038ZM132.359 33.642L134.177 31.878C135.131 33.228 136.517 33.984 137.939 33.984C139.289 33.984 140.279 33.39 140.279 32.292C140.279 31.104 139.055 30.942 137.111 30.51C135.185 30.06 133.097 29.448 133.097 26.892C133.097 24.426 135.221 22.878 137.903 22.878C140.135 22.878 141.881 23.868 142.781 25.164L141.035 26.874C140.279 25.812 139.271 25.092 137.831 25.092C136.571 25.092 135.707 25.704 135.707 26.64C135.707 27.648 136.643 27.846 138.335 28.224C140.387 28.674 142.907 29.196 142.907 32.022C142.907 34.632 140.603 36.198 137.849 36.198C135.671 36.198 133.403 35.208 132.359 33.642ZM148.604 36.198C145.814 36.198 143.906 34.2 143.906 31.266C143.906 28.476 145.832 26.352 148.514 26.352C151.322 26.352 152.834 28.44 152.834 31.086V31.824H146.318C146.498 33.264 147.38 34.128 148.622 34.128C149.594 34.128 150.368 33.66 150.656 32.742L152.78 33.498C152.096 35.226 150.494 36.198 148.604 36.198ZM148.496 28.368C147.488 28.368 146.714 28.962 146.408 30.114H150.332C150.314 29.178 149.72 28.368 148.496 28.368ZM154.577 33.534V28.638H153.317V26.532H154.577V23.832H157.061V26.532H158.987V28.638H157.061V33.012C157.061 33.822 157.511 33.93 158.249 33.93C158.609 33.93 158.789 33.912 159.113 33.876V35.964C158.663 36.054 158.123 36.108 157.493 36.108C155.585 36.108 154.577 35.478 154.577 33.534ZM160.87 33.534V28.638H159.61V26.532H160.87V23.832H163.354V26.532H165.28V28.638H163.354V33.012C163.354 33.822 163.804 33.93 164.542 33.93C164.902 33.93 165.082 33.912 165.406 33.876V35.964C164.956 36.054 164.416 36.108 163.786 36.108C161.878 36.108 160.87 35.478 160.87 33.534ZM169.431 23.076V36H166.911V23.076H169.431ZM175.639 36.198C172.849 36.198 170.941 34.2 170.941 31.266C170.941 28.476 172.867 26.352 175.549 26.352C178.357 26.352 179.869 28.44 179.869 31.086V31.824H173.353C173.533 33.264 174.415 34.128 175.657 34.128C176.629 34.128 177.403 33.66 177.691 32.742L179.815 33.498C179.131 35.226 177.529 36.198 175.639 36.198ZM175.531 28.368C174.523 28.368 173.749 28.962 173.443 30.114H177.367C177.349 29.178 176.755 28.368 175.531 28.368ZM183.88 30.528V36H181.36V26.532H183.88V27.504C184.384 26.892 185.23 26.352 186.454 26.352C187.606 26.352 188.488 26.838 189.01 27.648C189.586 27.054 190.486 26.352 191.944 26.352C193.888 26.352 195.148 27.702 195.148 29.754V36H192.628V30.474C192.628 29.412 192.232 28.656 191.188 28.656C190.36 28.656 189.514 29.286 189.514 30.528V36H186.994V30.474C186.994 29.412 186.598 28.656 185.554 28.656C184.726 28.656 183.88 29.286 183.88 30.528ZM201.321 36.198C198.531 36.198 196.623 34.2 196.623 31.266C196.623 28.476 198.549 26.352 201.231 26.352C204.039 26.352 205.551 28.44 205.551 31.086V31.824H199.035C199.215 33.264 200.097 34.128 201.339 34.128C202.311 34.128 203.085 33.66 203.373 32.742L205.497 33.498C204.813 35.226 203.211 36.198 201.321 36.198ZM201.213 28.368C200.205 28.368 199.431 28.962 199.125 30.114H203.049C203.031 29.178 202.437 28.368 201.213 28.368ZM207.042 36V26.532H209.562V27.504C210.084 26.892 210.948 26.352 212.154 26.352C214.134 26.352 215.34 27.702 215.34 29.754V36H212.82V30.474C212.82 29.412 212.388 28.656 211.308 28.656C210.426 28.656 209.562 29.286 209.562 30.528V36H207.042ZM217.612 33.534V28.638H216.352V26.532H217.612V23.832H220.096V26.532H222.022V28.638H220.096V33.012C220.096 33.822 220.546 33.93 221.284 33.93C221.644 33.93 221.824 33.912 222.148 33.876V35.964C221.698 36.054 221.158 36.108 220.528 36.108C218.62 36.108 217.612 35.478 217.612 33.534Z" fill="#4D148C"/>
<path d="M45.688 60.512H47.384L51.816 72H50.264L49.096 68.976H43.944L42.792 72H41.256L45.688 60.512ZM46.504 62.24L44.456 67.632H48.584L46.504 62.24ZM59.715 63.632V72H58.275V70.848C57.795 71.552 56.979 72.176 55.795 72.176C54.003 72.176 52.995 70.944 52.995 69.168V63.632H54.435V68.864C54.435 70.048 54.947 70.848 56.179 70.848C57.219 70.848 58.275 70.064 58.275 68.672V63.632H59.715ZM62.3303 70V64.864H61.0343V63.632H62.3303V61.184H63.7543V63.632H65.6583V64.864H63.7543V69.776C63.7543 70.656 64.1863 70.816 64.9223 70.816C65.2583 70.816 65.4983 70.8 65.8343 70.72V71.952C65.4663 72.032 65.0503 72.08 64.5703 72.08C63.1463 72.08 62.3303 71.6 62.3303 70ZM67.5438 72V60.512H68.9838V64.768C69.4638 64.08 70.2958 63.472 71.4798 63.472C73.2558 63.472 74.2638 64.704 74.2638 66.48V72H72.8238V66.864C72.8238 65.696 72.3278 64.816 71.0798 64.816C70.0398 64.816 68.9838 65.616 68.9838 67.008V72H67.5438ZM79.919 72.176C77.599 72.176 75.999 70.4 75.999 67.824C75.999 65.328 77.583 63.472 79.855 63.472C82.191 63.472 83.423 65.248 83.423 67.568V68.048H77.375C77.455 69.808 78.463 70.928 79.919 70.928C81.039 70.928 81.839 70.32 82.095 69.328L83.359 69.776C82.847 71.264 81.583 72.176 79.919 72.176ZM79.839 64.704C78.623 64.704 77.711 65.52 77.455 66.944H81.967C81.935 65.76 81.295 64.704 79.839 64.704ZM85.2156 72V63.632H86.6556V64.768C87.1356 64.08 87.9676 63.472 89.1516 63.472C90.9276 63.472 91.9356 64.704 91.9356 66.48V72H90.4956V66.864C90.4956 65.696 89.9996 64.816 88.7516 64.816C87.7116 64.816 86.6556 65.616 86.6556 67.008V72H85.2156ZM94.4709 70V64.864H93.1749V63.632H94.4709V61.184H95.8949V63.632H97.7989V64.864H95.8949V69.776C95.8949 70.656 96.3269 70.816 97.0629 70.816C97.3989 70.816 97.6389 70.8 97.9749 70.72V71.952C97.6069 72.032 97.1909 72.08 96.7109 72.08C95.2869 72.08 94.4709 71.6 94.4709 70ZM99.6204 62.176V60.512H101.188V62.176H99.6204ZM101.124 63.632V72H99.6844V63.632H101.124ZM104.392 67.824C104.392 69.728 105.416 70.912 106.904 70.912C108.056 70.912 108.744 70.176 108.984 69.136L110.264 69.728C109.864 71.12 108.648 72.176 106.904 72.176C104.568 72.176 102.952 70.4 102.952 67.824C102.952 65.232 104.568 63.472 106.904 63.472C108.648 63.472 109.832 64.48 110.232 65.872L108.984 66.496C108.744 65.472 108.056 64.72 106.904 64.72C105.416 64.72 104.392 65.904 104.392 67.824ZM114.03 72.144C112.51 72.144 111.278 71.248 111.278 69.744C111.278 68.08 112.574 67.392 114.446 67.008L116.478 66.592V66.24C116.478 65.28 115.95 64.736 114.83 64.736C113.774 64.736 113.15 65.232 112.894 66.16L111.534 65.808C111.934 64.448 113.166 63.472 114.878 63.472C116.75 63.472 117.902 64.384 117.902 66.176V70.256C117.902 70.8 118.238 70.976 118.798 70.848V72C117.518 72.16 116.782 71.856 116.606 71.056C116.094 71.712 115.166 72.144 114.03 72.144ZM116.478 69.152V67.712L114.846 68.064C113.566 68.32 112.702 68.672 112.702 69.68C112.702 70.496 113.294 70.976 114.206 70.976C115.438 70.976 116.478 70.224 116.478 69.152ZM120.58 70V64.864H119.284V63.632H120.58V61.184H122.004V63.632H123.908V64.864H122.004V69.776C122.004 70.656 122.436 70.816 123.172 70.816C123.508 70.816 123.748 70.8 124.084 70.72V71.952C123.716 72.032 123.3 72.08 122.82 72.08C121.396 72.08 120.58 71.6 120.58 70ZM125.73 62.176V60.512H127.298V62.176H125.73ZM127.234 63.632V72H125.794V63.632H127.234ZM136.838 67.824C136.838 70.416 135.238 72.176 132.95 72.176C130.662 72.176 129.062 70.416 129.062 67.824C129.062 65.232 130.662 63.472 132.95 63.472C135.238 63.472 136.838 65.232 136.838 67.824ZM130.518 67.824C130.518 69.728 131.478 70.944 132.95 70.944C134.422 70.944 135.382 69.728 135.382 67.824C135.382 65.904 134.422 64.688 132.95 64.688C131.478 64.688 130.518 65.904 130.518 67.824ZM138.669 72V63.632H140.109V64.768C140.589 64.08 141.421 63.472 142.605 63.472C144.381 63.472 145.389 64.704 145.389 66.48V72H143.949V66.864C143.949 65.696 143.453 64.816 142.205 64.816C141.165 64.816 140.109 65.616 140.109 67.008V72H138.669ZM154.739 60.4C155.315 60.4 155.806 60.5013 156.211 60.704C156.627 60.896 156.947 61.1733 157.171 61.536C157.395 61.8987 157.507 62.3413 157.507 62.864C157.507 63.536 157.288 64.1067 156.851 64.576C156.424 65.0453 155.88 65.472 155.219 65.856L158.307 68.832C158.584 68.5013 158.808 68.1227 158.979 67.696C159.16 67.2587 159.31 66.7893 159.427 66.288H160.851C160.68 66.9707 160.467 67.6053 160.211 68.192C159.955 68.7787 159.624 69.2907 159.219 69.728L161.555 72H159.651L158.259 70.656C158.003 70.88 157.736 71.088 157.459 71.28C157.192 71.4613 156.899 71.616 156.579 71.744C156.259 71.872 155.912 71.9733 155.539 72.048C155.176 72.1227 154.771 72.16 154.323 72.16C153.587 72.16 152.947 72.0427 152.403 71.808C151.87 71.5627 151.454 71.2053 151.155 70.736C150.867 70.2667 150.723 69.696 150.723 69.024C150.723 68.48 150.819 68.0107 151.011 67.616C151.214 67.2213 151.502 66.8693 151.875 66.56C152.248 66.2507 152.686 65.952 153.187 65.664C152.963 65.408 152.744 65.1413 152.531 64.864C152.318 64.5867 152.142 64.288 152.003 63.968C151.864 63.6373 151.795 63.28 151.795 62.896C151.795 62.3733 151.912 61.9253 152.147 61.552C152.382 61.1787 152.718 60.896 153.155 60.704C153.603 60.5013 154.131 60.4 154.739 60.4ZM154.035 66.544C153.651 66.768 153.32 66.9973 153.043 67.232C152.776 67.456 152.568 67.7067 152.419 67.984C152.27 68.2613 152.195 68.592 152.195 68.976C152.195 69.5627 152.392 70.032 152.787 70.384C153.182 70.736 153.71 70.912 154.371 70.912C155.054 70.912 155.64 70.8 156.131 70.576C156.622 70.352 157.032 70.0853 157.363 69.776L154.035 66.544ZM154.691 61.552C154.243 61.552 153.875 61.6693 153.587 61.904C153.31 62.1387 153.171 62.464 153.171 62.88C153.171 63.264 153.272 63.6213 153.475 63.952C153.678 64.272 153.971 64.6293 154.355 65.024C154.984 64.6613 155.432 64.32 155.699 64C155.976 63.6693 156.115 63.2907 156.115 62.864C156.115 62.48 155.987 62.1653 155.731 61.92C155.475 61.6747 155.128 61.552 154.691 61.552ZM169.625 72.176C167.433 72.176 165.689 70.976 165.321 68.688L166.809 68.368C167.033 69.968 168.169 70.896 169.609 70.896C171.065 70.896 172.073 70.064 172.073 68.704C172.073 67.344 170.969 66.672 169.513 66.672H168.281V65.376H169.529C170.857 65.376 171.753 64.704 171.753 63.552C171.753 62.368 170.937 61.632 169.625 61.632C168.249 61.632 167.289 62.544 167.033 63.984L165.657 63.712C165.961 61.792 167.449 60.336 169.657 60.336C171.897 60.336 173.193 61.648 173.193 63.472C173.193 64.72 172.393 65.68 171.417 66C172.569 66.32 173.561 67.2 173.561 68.784C173.561 70.672 172.009 72.176 169.625 72.176ZM175.358 72V60.512H179.006C182.494 60.512 184.702 62.752 184.702 66.256C184.702 69.76 182.494 72 179.006 72H175.358ZM176.862 70.672H179.006C181.614 70.672 183.198 68.928 183.198 66.256C183.198 63.568 181.614 61.84 178.99 61.84H176.862V70.672ZM185.377 69.632L186.577 68.672C187.297 70.048 188.593 70.848 190.081 70.848C191.569 70.848 192.721 70.112 192.721 68.8C192.721 67.408 191.393 67.168 189.649 66.752C187.841 66.32 186.049 65.824 186.049 63.664C186.049 61.648 187.793 60.336 189.969 60.336C191.969 60.336 193.409 61.296 194.097 62.592L192.929 63.52C192.337 62.416 191.425 61.664 189.937 61.664C188.545 61.664 187.537 62.432 187.537 63.536C187.537 64.752 188.609 65.008 190.225 65.392C192.129 65.84 194.225 66.24 194.225 68.672C194.225 70.816 192.321 72.176 190.049 72.176C188.065 72.176 186.161 71.184 185.377 69.632Z" fill="#4D148C"/>
<rect x="20" y="63" width="6" height="6" fill="#4D148C"/>
<path d="M41.432 100.769V99.3928C41.992 99.5048 42.376 99.5528 42.888 99.5528C44.312 99.5528 45.032 99.0568 45.032 97.4888V89.3128H46.568V97.6008C46.568 99.9048 45.288 100.929 43.064 100.929C42.456 100.929 41.976 100.881 41.432 100.769ZM55.465 92.4328V100.801H54.025V99.6488C53.545 100.353 52.729 100.977 51.545 100.977C49.753 100.977 48.745 99.7448 48.745 97.9688V92.4328H50.185V97.6648C50.185 98.8488 50.697 99.6488 51.929 99.6488C52.969 99.6488 54.025 98.8648 54.025 97.4728V92.4328H55.465ZM56.9283 99.0248L58.0483 98.2088C58.4963 99.1848 59.5203 99.7768 60.6083 99.7768C61.5843 99.7768 62.4483 99.3608 62.4483 98.4488C62.4483 97.5368 61.6483 97.4088 60.2723 97.1208C58.8963 96.8168 57.4563 96.5128 57.4563 94.8008C57.4563 93.3128 58.7523 92.2728 60.5283 92.2728C62.0323 92.2728 63.2643 93.0088 63.7603 94.0008L62.7363 94.8168C62.3043 93.9848 61.5203 93.4568 60.4643 93.4568C59.5043 93.4568 58.8643 93.9368 58.8643 94.6888C58.8643 95.4728 59.6003 95.6168 60.7682 95.8728C62.2083 96.2088 63.8563 96.4968 63.8563 98.3208C63.8563 99.9208 62.4003 100.977 60.6083 100.977C59.0883 100.977 57.5683 100.321 56.9283 99.0248ZM65.8615 98.8008V93.6648H64.5655V92.4328H65.8615V89.9848H67.2855V92.4328H69.1895V93.6648H67.2855V98.5768C67.2855 99.4568 67.7175 99.6168 68.4535 99.6168C68.7895 99.6168 69.0295 99.6008 69.3655 99.5208V100.753C68.9975 100.833 68.5815 100.881 68.1015 100.881C66.6775 100.881 65.8615 100.401 65.8615 98.8008ZM74.386 90.9768V89.3128H75.954V90.9768H74.386ZM75.89 92.4328V100.801H74.45V92.4328H75.89ZM78.2938 100.801V92.4328H79.7338V93.5688C80.2138 92.8808 81.0458 92.2728 82.2298 92.2728C84.0058 92.2728 85.0138 93.5048 85.0138 95.2808V100.801H83.5738V95.6648C83.5738 94.4968 83.0778 93.6168 81.8298 93.6168C80.7898 93.6168 79.7338 94.4168 79.7338 95.8088V100.801H78.2938ZM90.924 98.8008V93.6648H89.628V92.4328H90.924V89.9848H92.348V92.4328H94.252V93.6648H92.348V98.5768C92.348 99.4568 92.78 99.6168 93.516 99.6168C93.852 99.6168 94.092 99.6008 94.428 99.5208V100.753C94.06 100.833 93.644 100.881 93.164 100.881C91.74 100.881 90.924 100.401 90.924 98.8008ZM96.0735 90.9768V89.3128H97.6415V90.9768H96.0735ZM97.5775 92.4328V100.801H96.1375V92.4328H97.5775ZM101.421 95.7928V100.801H99.9813V92.4328H101.421V93.5688C101.869 92.8808 102.669 92.2728 103.837 92.2728C104.957 92.2728 105.741 92.8328 106.157 93.6968C106.621 93.0088 107.517 92.2728 108.829 92.2728C110.557 92.2728 111.597 93.5048 111.597 95.2808V100.801H110.157V95.6648C110.157 94.4968 109.677 93.6168 108.493 93.6168C107.533 93.6168 106.509 94.4328 106.509 95.7928V100.801H105.069V95.6648C105.069 94.4968 104.589 93.6168 103.405 93.6168C102.445 93.6168 101.421 94.4328 101.421 95.7928ZM117.263 100.977C114.943 100.977 113.343 99.2008 113.343 96.6248C113.343 94.1288 114.927 92.2728 117.199 92.2728C119.535 92.2728 120.767 94.0488 120.767 96.3688V96.8488H114.719C114.799 98.6088 115.807 99.7288 117.263 99.7288C118.383 99.7288 119.183 99.1208 119.439 98.1288L120.703 98.5768C120.191 100.065 118.927 100.977 117.263 100.977ZM117.183 93.5048C115.967 93.5048 115.055 94.3208 114.799 95.7448H119.311C119.279 94.5608 118.639 93.5048 117.183 93.5048ZM127.518 100.801H125.998V89.3128H133.422V90.6568H127.518V94.3528H132.51V95.6968H127.518V100.801ZM141.012 92.4328V100.801H139.572V99.6488C139.092 100.353 138.276 100.977 137.092 100.977C135.3 100.977 134.292 99.7448 134.292 97.9688V92.4328H135.732V97.6648C135.732 98.8488 136.244 99.6488 137.476 99.6488C138.516 99.6488 139.572 98.8648 139.572 97.4728V92.4328H141.012ZM143.403 100.801V92.4328H144.843V93.5688C145.323 92.8808 146.155 92.2728 147.339 92.2728C149.115 92.2728 150.123 93.5048 150.123 95.2808V100.801H148.683V95.6648C148.683 94.4968 148.187 93.6168 146.939 93.6168C145.899 93.6168 144.843 94.4168 144.843 95.8088V100.801H143.403ZM155.506 100.977C153.186 100.977 151.858 98.9928 151.858 96.6248C151.858 94.2408 153.186 92.2728 155.506 92.2728C156.674 92.2728 157.602 92.8328 158.098 93.6488V89.3128H159.538V100.801H158.098V99.5848C157.602 100.417 156.674 100.977 155.506 100.977ZM158.13 96.3368C158.13 94.3848 156.946 93.5368 155.762 93.5368C154.194 93.5368 153.314 94.8168 153.314 96.6248C153.314 98.4168 154.194 99.7128 155.762 99.7128C156.946 99.7128 158.13 98.8488 158.13 96.9288V96.3368ZM161.855 90.9768V89.3128H163.423V90.9768H161.855ZM163.359 92.4328V100.801H161.919V92.4328H163.359ZM165.763 100.801V92.4328H167.203V93.5688C167.683 92.8808 168.515 92.2728 169.699 92.2728C171.475 92.2728 172.483 93.5048 172.483 95.2808V100.801H171.043V95.6648C171.043 94.4968 170.547 93.6168 169.299 93.6168C168.259 93.6168 167.203 94.4168 167.203 95.8088V100.801H165.763ZM181.882 100.049C181.882 102.497 180.266 103.857 177.994 103.857C176.154 103.857 174.81 103.009 174.346 101.473L175.69 100.961C175.962 102.033 176.826 102.657 177.994 102.657C179.466 102.657 180.442 101.905 180.442 100.161V99.2168C179.994 100.033 179.05 100.609 177.882 100.609C175.594 100.609 174.25 98.7208 174.25 96.4328C174.25 94.1608 175.594 92.2728 177.882 92.2728C179.034 92.2728 179.994 92.8488 180.442 93.6648V92.4328H181.882V100.049ZM180.458 96.3048C180.458 94.4328 179.338 93.5368 178.138 93.5368C176.618 93.5368 175.69 94.6728 175.69 96.4328C175.69 98.1928 176.618 99.3448 178.138 99.3448C179.338 99.3448 180.458 98.4488 180.458 96.6088V96.3048Z" fill="#4D148C"/>
<rect x="20" y="91.8008" width="6" height="6" fill="#4D148C"/>
<path d="M42.264 129.6V118.112H45.912C49.4 118.112 51.608 120.352 51.608 123.856C51.608 127.36 49.4 129.6 45.912 129.6H42.264ZM43.768 128.272H45.912C48.52 128.272 50.104 126.528 50.104 123.856C50.104 121.168 48.52 119.44 45.896 119.44H43.768V128.272ZM56.5228 130.512C56.0428 131.776 55.3868 132.576 53.9308 132.576C53.5788 132.576 53.4028 132.56 53.1468 132.512V131.264C53.4188 131.328 53.5948 131.344 53.8348 131.344C54.4588 131.344 54.7948 131.12 55.1308 130.288L55.5308 129.296L52.4268 121.232H53.9468L56.2988 127.632L58.6188 121.232H60.1228L56.5228 130.512ZM61.5281 129.6V121.232H62.9681V122.368C63.4481 121.68 64.2801 121.072 65.4641 121.072C67.2401 121.072 68.2481 122.304 68.2481 124.08V129.6H66.8081V124.464C66.8081 123.296 66.3121 122.416 65.0641 122.416C64.0241 122.416 62.9681 123.216 62.9681 124.608V129.6H61.5281ZM72.6554 129.744C71.1354 129.744 69.9034 128.848 69.9034 127.344C69.9034 125.68 71.1994 124.992 73.0714 124.608L75.1034 124.192V123.84C75.1034 122.88 74.5754 122.336 73.4554 122.336C72.3994 122.336 71.7754 122.832 71.5194 123.76L70.1594 123.408C70.5594 122.048 71.7914 121.072 73.5034 121.072C75.3754 121.072 76.5274 121.984 76.5274 123.776V127.856C76.5274 128.4 76.8634 128.576 77.4234 128.448V129.6C76.1434 129.76 75.4074 129.456 75.2314 128.656C74.7194 129.312 73.7914 129.744 72.6554 129.744ZM75.1034 126.752V125.312L73.4714 125.664C72.1914 125.92 71.3274 126.272 71.3274 127.28C71.3274 128.096 71.9194 128.576 72.8314 128.576C74.0634 128.576 75.1034 127.824 75.1034 126.752ZM80.4213 124.592V129.6H78.9813V121.232H80.4213V122.368C80.8693 121.68 81.6693 121.072 82.8373 121.072C83.9573 121.072 84.7413 121.632 85.1573 122.496C85.6213 121.808 86.5173 121.072 87.8293 121.072C89.5573 121.072 90.5973 122.304 90.5973 124.08V129.6H89.1573V124.464C89.1573 123.296 88.6773 122.416 87.4933 122.416C86.5333 122.416 85.5093 123.232 85.5093 124.592V129.6H84.0693V124.464C84.0693 123.296 83.5893 122.416 82.4053 122.416C81.4453 122.416 80.4213 123.232 80.4213 124.592ZM92.8548 119.776V118.112H94.4228V119.776H92.8548ZM94.3588 121.232V129.6H92.9188V121.232H94.3588ZM97.6265 125.424C97.6265 127.328 98.6505 128.512 100.139 128.512C101.291 128.512 101.979 127.776 102.219 126.736L103.499 127.328C103.099 128.72 101.883 129.776 100.139 129.776C97.8025 129.776 96.1865 128 96.1865 125.424C96.1865 122.832 97.8025 121.072 100.139 121.072C101.883 121.072 103.067 122.08 103.467 123.472L102.219 124.096C101.979 123.072 101.291 122.32 100.139 122.32C98.6505 122.32 97.6265 123.504 97.6265 125.424ZM107.314 127.232L108.514 126.272C109.234 127.648 110.53 128.448 112.018 128.448C113.506 128.448 114.658 127.712 114.658 126.4C114.658 125.008 113.33 124.768 111.586 124.352C109.778 123.92 107.986 123.424 107.986 121.264C107.986 119.248 109.73 117.936 111.906 117.936C113.906 117.936 115.346 118.896 116.034 120.192L114.866 121.12C114.274 120.016 113.362 119.264 111.874 119.264C110.482 119.264 109.474 120.032 109.474 121.136C109.474 122.352 110.546 122.608 112.162 122.992C114.066 123.44 116.162 123.84 116.162 126.272C116.162 128.416 114.258 129.776 111.986 129.776C110.002 129.776 108.098 128.784 107.314 127.232ZM121.873 129.776C120.705 129.776 119.777 129.216 119.281 128.384V132.48H117.841V121.232H119.281V122.448C119.777 121.632 120.705 121.072 121.873 121.072C124.193 121.072 125.521 123.04 125.521 125.424C125.521 127.792 124.193 129.776 121.873 129.776ZM119.249 125.136V125.728C119.249 127.648 120.433 128.512 121.617 128.512C123.185 128.512 124.065 127.216 124.065 125.424C124.065 123.616 123.185 122.336 121.617 122.336C120.433 122.336 119.249 123.184 119.249 125.136ZM130.685 129.776C128.365 129.776 126.765 128 126.765 125.424C126.765 122.928 128.349 121.072 130.621 121.072C132.957 121.072 134.189 122.848 134.189 125.168V125.648H128.141C128.221 127.408 129.229 128.528 130.685 128.528C131.805 128.528 132.605 127.92 132.861 126.928L134.125 127.376C133.613 128.864 132.349 129.776 130.685 129.776ZM130.605 122.304C129.389 122.304 128.477 123.12 128.221 124.544H132.733C132.701 123.36 132.061 122.304 130.605 122.304ZM135.981 129.6V121.232H137.421V122.368C137.901 121.68 138.733 121.072 139.917 121.072C141.693 121.072 142.701 122.304 142.701 124.08V129.6H141.261V124.464C141.261 123.296 140.765 122.416 139.517 122.416C138.477 122.416 137.421 123.216 137.421 124.608V129.6H135.981ZM148.085 129.776C145.765 129.776 144.437 127.792 144.437 125.424C144.437 123.04 145.765 121.072 148.085 121.072C149.253 121.072 150.181 121.632 150.677 122.448V118.112H152.117V129.6H150.677V128.384C150.181 129.216 149.253 129.776 148.085 129.776ZM150.709 125.136C150.709 123.184 149.525 122.336 148.341 122.336C146.773 122.336 145.893 123.616 145.893 125.424C145.893 127.216 146.773 128.512 148.341 128.512C149.525 128.512 150.709 127.648 150.709 125.728V125.136ZM158.8 123.856C158.8 126.576 160.304 128.416 162.432 128.416C163.92 128.416 164.992 127.552 165.408 126.096L166.864 126.576C166.192 128.56 164.624 129.776 162.432 129.776C159.456 129.776 157.264 127.36 157.264 123.856C157.264 120.352 159.456 117.936 162.432 117.936C164.624 117.936 166.192 119.152 166.864 121.136L165.408 121.616C164.992 120.16 163.92 119.296 162.432 119.296C160.304 119.296 158.8 121.136 158.8 123.856ZM175.619 125.424C175.619 128.016 174.019 129.776 171.731 129.776C169.443 129.776 167.843 128.016 167.843 125.424C167.843 122.832 169.443 121.072 171.731 121.072C174.019 121.072 175.619 122.832 175.619 125.424ZM169.299 125.424C169.299 127.328 170.259 128.544 171.731 128.544C173.203 128.544 174.163 127.328 174.163 125.424C174.163 123.504 173.203 122.288 171.731 122.288C170.259 122.288 169.299 123.504 169.299 125.424ZM177.45 129.6V121.232H178.89V122.368C179.37 121.68 180.202 121.072 181.386 121.072C183.162 121.072 184.17 122.304 184.17 124.08V129.6H182.73V124.464C182.73 123.296 182.234 122.416 180.986 122.416C179.946 122.416 178.89 123.216 178.89 124.608V129.6H177.45ZM186.705 127.6V122.464H185.409V121.232H186.705V118.784H188.129V121.232H190.033V122.464H188.129V127.376C188.129 128.256 188.561 128.416 189.297 128.416C189.633 128.416 189.873 128.4 190.209 128.32V129.552C189.841 129.632 189.425 129.68 188.945 129.68C187.521 129.68 186.705 129.2 186.705 127.6ZM196.255 121.2V122.656C196.015 122.608 195.823 122.592 195.551 122.592C194.335 122.592 193.359 123.552 193.359 125.024V129.6H191.919V121.232H193.359V122.656C193.727 121.808 194.543 121.168 195.679 121.168C195.903 121.168 196.111 121.184 196.255 121.2ZM204.697 125.424C204.697 128.016 203.097 129.776 200.809 129.776C198.521 129.776 196.921 128.016 196.921 125.424C196.921 122.832 198.521 121.072 200.809 121.072C203.097 121.072 204.697 122.832 204.697 125.424ZM198.377 125.424C198.377 127.328 199.337 128.544 200.809 128.544C202.281 128.544 203.241 127.328 203.241 125.424C203.241 123.504 202.281 122.288 200.809 122.288C199.337 122.288 198.377 123.504 198.377 125.424ZM207.968 118.112V129.6H206.528V118.112H207.968Z" fill="#4D148C"/>
<rect x="20" y="120.6" width="6" height="6" fill="#4D148C"/>
<path d="M17.264 202.512H24.768V203.856H18.784V207.392H23.856V208.736H18.784V212.656H24.768V214H17.264V202.512ZM26.5281 214V205.632H27.9681V206.768C28.4481 206.08 29.2801 205.472 30.4641 205.472C32.2401 205.472 33.2481 206.704 33.2481 208.48V214H31.8081V208.864C31.8081 207.696 31.3121 206.816 30.0641 206.816C29.0241 206.816 27.9681 207.616 27.9681 209.008V214H26.5281ZM34.6314 212.224L35.7514 211.408C36.1994 212.384 37.2234 212.976 38.3114 212.976C39.2874 212.976 40.1514 212.56 40.1514 211.648C40.1514 210.736 39.3514 210.608 37.9754 210.32C36.5994 210.016 35.1594 209.712 35.1594 208C35.1594 206.512 36.4554 205.472 38.2314 205.472C39.7354 205.472 40.9674 206.208 41.4634 207.2L40.4394 208.016C40.0074 207.184 39.2234 206.656 38.1674 206.656C37.2074 206.656 36.5674 207.136 36.5674 207.888C36.5674 208.672 37.3034 208.816 38.4714 209.072C39.9114 209.408 41.5594 209.696 41.5594 211.52C41.5594 213.12 40.1034 214.176 38.3114 214.176C36.7914 214.176 35.2714 213.52 34.6314 212.224ZM49.9806 205.632V214H48.5406V212.848C48.0606 213.552 47.2446 214.176 46.0606 214.176C44.2686 214.176 43.2606 212.944 43.2606 211.168V205.632H44.7006V210.864C44.7006 212.048 45.2126 212.848 46.4446 212.848C47.4846 212.848 48.5406 212.064 48.5406 210.672V205.632H49.9806ZM56.7079 205.6V207.056C56.4679 207.008 56.2759 206.992 56.0039 206.992C54.7879 206.992 53.8119 207.952 53.8119 209.424V214H52.3719V205.632H53.8119V207.056C54.1799 206.208 54.9959 205.568 56.1319 205.568C56.3559 205.568 56.5639 205.584 56.7079 205.6ZM61.294 214.176C58.974 214.176 57.374 212.4 57.374 209.824C57.374 207.328 58.958 205.472 61.23 205.472C63.566 205.472 64.798 207.248 64.798 209.568V210.048H58.75C58.83 211.808 59.838 212.928 61.294 212.928C62.414 212.928 63.214 212.32 63.47 211.328L64.734 211.776C64.222 213.264 62.958 214.176 61.294 214.176ZM61.214 206.704C59.998 206.704 59.086 207.52 58.83 208.944H63.342C63.31 207.76 62.67 206.704 61.214 206.704ZM72.0616 214.144C70.5416 214.144 69.3096 213.248 69.3096 211.744C69.3096 210.08 70.6056 209.392 72.4776 209.008L74.5096 208.592V208.24C74.5096 207.28 73.9816 206.736 72.8616 206.736C71.8056 206.736 71.1816 207.232 70.9256 208.16L69.5656 207.808C69.9656 206.448 71.1976 205.472 72.9096 205.472C74.7816 205.472 75.9336 206.384 75.9336 208.176V212.256C75.9336 212.8 76.2696 212.976 76.8296 212.848V214C75.5496 214.16 74.8136 213.856 74.6376 213.056C74.1256 213.712 73.1976 214.144 72.0616 214.144ZM74.5096 211.152V209.712L72.8776 210.064C71.5976 210.32 70.7336 210.672 70.7336 211.68C70.7336 212.496 71.3256 212.976 72.2376 212.976C73.4696 212.976 74.5096 212.224 74.5096 211.152ZM80.8345 212.224L81.9545 211.408C82.4025 212.384 83.4265 212.976 84.5145 212.976C85.4905 212.976 86.3545 212.56 86.3545 211.648C86.3545 210.736 85.5545 210.608 84.1785 210.32C82.8025 210.016 81.3625 209.712 81.3625 208C81.3625 206.512 82.6585 205.472 84.4345 205.472C85.9385 205.472 87.1705 206.208 87.6665 207.2L86.6425 208.016C86.2105 207.184 85.4265 206.656 84.3705 206.656C83.4105 206.656 82.7705 207.136 82.7705 207.888C82.7705 208.672 83.5065 208.816 84.6745 209.072C86.1145 209.408 87.7625 209.696 87.7625 211.52C87.7625 213.12 86.3065 214.176 84.5145 214.176C82.9945 214.176 81.4745 213.52 80.8345 212.224ZM92.8878 214.176C90.5678 214.176 88.9678 212.4 88.9678 209.824C88.9678 207.328 90.5518 205.472 92.8238 205.472C95.1598 205.472 96.3918 207.248 96.3918 209.568V210.048H90.3438C90.4238 211.808 91.4318 212.928 92.8878 212.928C94.0078 212.928 94.8078 212.32 95.0638 211.328L96.3278 211.776C95.8158 213.264 94.5518 214.176 92.8878 214.176ZM92.8078 206.704C91.5918 206.704 90.6798 207.52 90.4238 208.944H94.9358C94.9038 207.76 94.2638 206.704 92.8078 206.704ZM99.0484 209.824C99.0484 211.728 100.072 212.912 101.56 212.912C102.712 212.912 103.4 212.176 103.64 211.136L104.92 211.728C104.52 213.12 103.304 214.176 101.56 214.176C99.2244 214.176 97.6084 212.4 97.6084 209.824C97.6084 207.232 99.2244 205.472 101.56 205.472C103.304 205.472 104.488 206.48 104.888 207.872L103.64 208.496C103.4 207.472 102.712 206.72 101.56 206.72C100.072 206.72 99.0484 207.904 99.0484 209.824ZM113.137 205.632V214H111.697V212.848C111.217 213.552 110.401 214.176 109.217 214.176C107.425 214.176 106.417 212.944 106.417 211.168V205.632H107.857V210.864C107.857 212.048 108.369 212.848 109.601 212.848C110.641 212.848 111.697 212.064 111.697 210.672V205.632H113.137ZM119.864 205.6V207.056C119.624 207.008 119.432 206.992 119.16 206.992C117.944 206.992 116.968 207.952 116.968 209.424V214H115.528V205.632H116.968V207.056C117.336 206.208 118.152 205.568 119.288 205.568C119.512 205.568 119.72 205.584 119.864 205.6ZM124.45 214.176C122.13 214.176 120.53 212.4 120.53 209.824C120.53 207.328 122.114 205.472 124.386 205.472C126.722 205.472 127.954 207.248 127.954 209.568V210.048H121.906C121.986 211.808 122.994 212.928 124.45 212.928C125.57 212.928 126.37 212.32 126.626 211.328L127.89 211.776C127.378 213.264 126.114 214.176 124.45 214.176ZM124.37 206.704C123.154 206.704 122.242 207.52 121.986 208.944H126.498C126.466 207.76 125.826 206.704 124.37 206.704ZM135.218 214.144C133.698 214.144 132.466 213.248 132.466 211.744C132.466 210.08 133.762 209.392 135.634 209.008L137.666 208.592V208.24C137.666 207.28 137.138 206.736 136.018 206.736C134.962 206.736 134.338 207.232 134.082 208.16L132.722 207.808C133.122 206.448 134.354 205.472 136.066 205.472C137.938 205.472 139.09 206.384 139.09 208.176V212.256C139.09 212.8 139.426 212.976 139.986 212.848V214C138.706 214.16 137.97 213.856 137.794 213.056C137.282 213.712 136.354 214.144 135.218 214.144ZM137.666 211.152V209.712L136.034 210.064C134.754 210.32 133.89 210.672 133.89 211.68C133.89 212.496 134.482 212.976 135.394 212.976C136.626 212.976 137.666 212.224 137.666 211.152ZM141.544 214V205.632H142.984V206.768C143.464 206.08 144.296 205.472 145.48 205.472C147.256 205.472 148.264 206.704 148.264 208.48V214H146.824V208.864C146.824 207.696 146.328 206.816 145.08 206.816C144.04 206.816 142.984 207.616 142.984 209.008V214H141.544ZM153.647 214.176C151.327 214.176 149.999 212.192 149.999 209.824C149.999 207.44 151.327 205.472 153.647 205.472C154.815 205.472 155.743 206.032 156.239 206.848V202.512H157.679V214H156.239V212.784C155.743 213.616 154.815 214.176 153.647 214.176ZM156.271 209.536C156.271 207.584 155.087 206.736 153.903 206.736C152.335 206.736 151.455 208.016 151.455 209.824C151.455 211.616 152.335 212.912 153.903 212.912C155.087 212.912 156.271 212.048 156.271 210.128V209.536ZM167.082 202.368V203.648C166.842 203.616 166.698 203.616 166.458 203.616C165.61 203.616 165.146 203.984 165.146 205.056V205.632H167.002V206.864H165.146V214H163.706V206.864H162.442V205.632H163.706V204.96C163.706 203.328 164.602 202.336 166.314 202.336C166.602 202.336 166.762 202.352 167.082 202.368ZM172.677 205.6V207.056C172.437 207.008 172.245 206.992 171.973 206.992C170.757 206.992 169.781 207.952 169.781 209.424V214H168.341V205.632H169.781V207.056C170.149 206.208 170.965 205.568 172.101 205.568C172.325 205.568 172.533 205.584 172.677 205.6ZM174.199 204.176V202.512H175.767V204.176H174.199ZM175.703 205.632V214H174.263V205.632H175.703ZM178.97 209.824C178.97 211.728 179.994 212.912 181.482 212.912C182.634 212.912 183.322 212.176 183.562 211.136L184.842 211.728C184.442 213.12 183.226 214.176 181.482 214.176C179.146 214.176 177.53 212.4 177.53 209.824C177.53 207.232 179.146 205.472 181.482 205.472C183.226 205.472 184.41 206.48 184.81 207.872L183.562 208.496C183.322 207.472 182.634 206.72 181.482 206.72C179.994 206.72 178.97 207.904 178.97 209.824ZM186.643 212V206.864H185.347V205.632H186.643V203.184H188.067V205.632H189.971V206.864H188.067V211.776C188.067 212.656 188.499 212.816 189.235 212.816C189.571 212.816 189.811 212.8 190.147 212.72V213.952C189.779 214.032 189.363 214.08 188.883 214.08C187.459 214.08 186.643 213.6 186.643 212ZM191.792 204.176V202.512H193.36V204.176H191.792ZM193.296 205.632V214H191.856V205.632H193.296ZM202.9 209.824C202.9 212.416 201.3 214.176 199.012 214.176C196.724 214.176 195.124 212.416 195.124 209.824C195.124 207.232 196.724 205.472 199.012 205.472C201.3 205.472 202.9 207.232 202.9 209.824ZM196.58 209.824C196.58 211.728 197.54 212.944 199.012 212.944C200.484 212.944 201.444 211.728 201.444 209.824C201.444 207.904 200.484 206.688 199.012 206.688C197.54 206.688 196.58 207.904 196.58 209.824ZM204.731 214V205.632H206.171V206.768C206.651 206.08 207.483 205.472 208.667 205.472C210.443 205.472 211.451 206.704 211.451 208.48V214H210.011V208.864C210.011 207.696 209.515 206.816 208.267 206.816C207.227 206.816 206.171 207.616 206.171 209.008V214H204.731ZM215.203 202.512V214H213.763V202.512H215.203ZM220.95 214.176C218.63 214.176 217.03 212.4 217.03 209.824C217.03 207.328 218.614 205.472 220.886 205.472C223.222 205.472 224.454 207.248 224.454 209.568V210.048H218.406C218.486 211.808 219.494 212.928 220.95 212.928C222.07 212.928 222.87 212.32 223.126 211.328L224.39 211.776C223.878 213.264 222.614 214.176 220.95 214.176ZM220.87 206.704C219.654 206.704 218.742 207.52 218.486 208.944H222.998C222.966 207.76 222.326 206.704 220.87 206.704ZM225.319 212.224L226.439 211.408C226.887 212.384 227.911 212.976 228.999 212.976C229.975 212.976 230.839 212.56 230.839 211.648C230.839 210.736 230.039 210.608 228.663 210.32C227.287 210.016 225.847 209.712 225.847 208C225.847 206.512 227.143 205.472 228.919 205.472C230.423 205.472 231.655 206.208 232.151 207.2L231.127 208.016C230.695 207.184 229.911 206.656 228.855 206.656C227.895 206.656 227.255 207.136 227.255 207.888C227.255 208.672 227.991 208.816 229.159 209.072C230.599 209.408 232.247 209.696 232.247 211.52C232.247 213.12 230.791 214.176 228.999 214.176C227.479 214.176 225.959 213.52 225.319 212.224ZM233.1 212.224L234.22 211.408C234.668 212.384 235.692 212.976 236.78 212.976C237.756 212.976 238.62 212.56 238.62 211.648C238.62 210.736 237.82 210.608 236.444 210.32C235.068 210.016 233.628 209.712 233.628 208C233.628 206.512 234.924 205.472 236.7 205.472C238.204 205.472 239.436 206.208 239.932 207.2L238.908 208.016C238.476 207.184 237.692 206.656 236.636 206.656C235.676 206.656 235.036 207.136 235.036 207.888C235.036 208.672 235.772 208.816 236.94 209.072C238.38 209.408 240.028 209.696 240.028 211.52C240.028 213.12 238.572 214.176 236.78 214.176C235.26 214.176 233.74 213.52 233.1 212.224ZM246.048 209.824C246.048 211.728 247.072 212.912 248.56 212.912C249.712 212.912 250.4 212.176 250.64 211.136L251.92 211.728C251.52 213.12 250.304 214.176 248.56 214.176C246.224 214.176 244.608 212.4 244.608 209.824C244.608 207.232 246.224 205.472 248.56 205.472C250.304 205.472 251.488 206.48 251.888 207.872L250.64 208.496C250.4 207.472 249.712 206.72 248.56 206.72C247.072 206.72 246.048 207.904 246.048 209.824ZM260.697 209.824C260.697 212.416 259.097 214.176 256.809 214.176C254.521 214.176 252.921 212.416 252.921 209.824C252.921 207.232 254.521 205.472 256.809 205.472C259.097 205.472 260.697 207.232 260.697 209.824ZM254.377 209.824C254.377 211.728 255.337 212.944 256.809 212.944C258.281 212.944 259.241 211.728 259.241 209.824C259.241 207.904 258.281 206.688 256.809 206.688C255.337 206.688 254.377 207.904 254.377 209.824ZM262.528 214V205.632H263.968V206.768C264.448 206.08 265.28 205.472 266.464 205.472C268.24 205.472 269.248 206.704 269.248 208.48V214H267.808V208.864C267.808 207.696 267.312 206.816 266.064 206.816C265.024 206.816 263.968 207.616 263.968 209.008V214H262.528ZM270.631 212.224L271.751 211.408C272.199 212.384 273.223 212.976 274.311 212.976C275.287 212.976 276.151 212.56 276.151 211.648C276.151 210.736 275.351 210.608 273.975 210.32C272.599 210.016 271.159 209.712 271.159 208C271.159 206.512 272.455 205.472 274.231 205.472C275.735 205.472 276.967 206.208 277.463 207.2L276.439 208.016C276.007 207.184 275.223 206.656 274.167 206.656C273.207 206.656 272.567 207.136 272.567 207.888C272.567 208.672 273.303 208.816 274.471 209.072C275.911 209.408 277.559 209.696 277.559 211.52C277.559 213.12 276.103 214.176 274.311 214.176C272.791 214.176 271.271 213.52 270.631 212.224ZM285.981 205.632V214H284.541V212.848C284.061 213.552 283.245 214.176 282.061 214.176C280.269 214.176 279.261 212.944 279.261 211.168V205.632H280.701V210.864C280.701 212.048 281.213 212.848 282.445 212.848C283.485 212.848 284.541 212.064 284.541 210.672V205.632H285.981ZM289.812 208.992V214H288.372V205.632H289.812V206.768C290.26 206.08 291.06 205.472 292.228 205.472C293.348 205.472 294.132 206.032 294.548 206.896C295.012 206.208 295.908 205.472 297.22 205.472C298.948 205.472 299.988 206.704 299.988 208.48V214H298.548V208.864C298.548 207.696 298.068 206.816 296.884 206.816C295.924 206.816 294.9 207.632 294.9 208.992V214H293.46V208.864C293.46 207.696 292.98 206.816 291.796 206.816C290.836 206.816 289.812 207.632 289.812 208.992ZM305.653 214.176C303.333 214.176 301.733 212.4 301.733 209.824C301.733 207.328 303.317 205.472 305.589 205.472C307.925 205.472 309.157 207.248 309.157 209.568V210.048H303.109C303.189 211.808 304.197 212.928 305.653 212.928C306.773 212.928 307.573 212.32 307.829 211.328L309.093 211.776C308.581 213.264 307.317 214.176 305.653 214.176ZM305.573 206.704C304.357 206.704 303.445 207.52 303.189 208.944H307.701C307.669 207.76 307.029 206.704 305.573 206.704ZM315.286 205.6V207.056C315.046 207.008 314.854 206.992 314.582 206.992C313.366 206.992 312.39 207.952 312.39 209.424V214H310.95V205.632H312.39V207.056C312.758 206.208 313.574 205.568 314.71 205.568C314.934 205.568 315.142 205.584 315.286 205.6ZM20.544 238.176C18.224 238.176 16.624 236.4 16.624 233.824C16.624 231.328 18.208 229.472 20.48 229.472C22.816 229.472 24.048 231.248 24.048 233.568V234.048H18C18.08 235.808 19.088 236.928 20.544 236.928C21.664 236.928 22.464 236.32 22.72 235.328L23.984 235.776C23.472 237.264 22.208 238.176 20.544 238.176ZM20.464 230.704C19.248 230.704 18.336 231.52 18.08 232.944H22.592C22.56 231.76 21.92 230.704 20.464 230.704ZM30.6489 238L28.3289 234.704L26.0249 238H24.4569L27.5129 233.632L24.7129 229.632H26.3609L28.3769 232.56L30.4249 229.632H32.0089L29.2089 233.632L32.2809 238H30.6489ZM37.6539 238.176C36.4859 238.176 35.5579 237.616 35.0619 236.784V240.88H33.6219V229.632H35.0619V230.848C35.5579 230.032 36.4859 229.472 37.6539 229.472C39.9739 229.472 41.3019 231.44 41.3019 233.824C41.3019 236.192 39.9739 238.176 37.6539 238.176ZM35.0299 233.536V234.128C35.0299 236.048 36.2139 236.912 37.3979 236.912C38.9659 236.912 39.8459 235.616 39.8459 233.824C39.8459 232.016 38.9659 230.736 37.3979 230.736C36.2139 230.736 35.0299 231.584 35.0299 233.536ZM46.4659 238.176C44.1459 238.176 42.5459 236.4 42.5459 233.824C42.5459 231.328 44.1299 229.472 46.4019 229.472C48.7379 229.472 49.9699 231.248 49.9699 233.568V234.048H43.9219C44.0019 235.808 45.0099 236.928 46.4659 236.928C47.5859 236.928 48.3859 236.32 48.6419 235.328L49.9059 235.776C49.3939 237.264 48.1299 238.176 46.4659 238.176ZM46.3859 230.704C45.1699 230.704 44.2579 231.52 44.0019 232.944H48.5139C48.4819 231.76 47.8419 230.704 46.3859 230.704ZM56.0985 229.6V231.056C55.8585 231.008 55.6665 230.992 55.3945 230.992C54.1785 230.992 53.2025 231.952 53.2025 233.424V238H51.7625V229.632H53.2025V231.056C53.5705 230.208 54.3865 229.568 55.5225 229.568C55.7465 229.568 55.9545 229.584 56.0985 229.6ZM57.6204 228.176V226.512H59.1884V228.176H57.6204ZM59.1244 229.632V238H57.6844V229.632H59.1244ZM64.8721 238.176C62.5521 238.176 60.9521 236.4 60.9521 233.824C60.9521 231.328 62.5361 229.472 64.8081 229.472C67.1441 229.472 68.3761 231.248 68.3761 233.568V234.048H62.3281C62.4081 235.808 63.4161 236.928 64.8721 236.928C65.9921 236.928 66.7921 236.32 67.0481 235.328L68.3121 235.776C67.8001 237.264 66.5361 238.176 64.8721 238.176ZM64.7921 230.704C63.5761 230.704 62.6641 231.52 62.4081 232.944H66.9201C66.8881 231.76 66.2481 230.704 64.7921 230.704ZM70.1688 238V229.632H71.6088V230.768C72.0888 230.08 72.9208 229.472 74.1048 229.472C75.8808 229.472 76.8888 230.704 76.8888 232.48V238H75.4488V232.864C75.4488 231.696 74.9528 230.816 73.7048 230.816C72.6648 230.816 71.6088 231.616 71.6088 233.008V238H70.1688ZM80.064 233.824C80.064 235.728 81.088 236.912 82.576 236.912C83.728 236.912 84.416 236.176 84.656 235.136L85.936 235.728C85.536 237.12 84.32 238.176 82.576 238.176C80.24 238.176 78.624 236.4 78.624 233.824C78.624 231.232 80.24 229.472 82.576 229.472C84.32 229.472 85.504 230.48 85.904 231.872L84.656 232.496C84.416 231.472 83.728 230.72 82.576 230.72C81.088 230.72 80.064 231.904 80.064 233.824ZM90.8565 238.176C88.5365 238.176 86.9365 236.4 86.9365 233.824C86.9365 231.328 88.5205 229.472 90.7925 229.472C93.1285 229.472 94.3605 231.248 94.3605 233.568V234.048H88.3125C88.3925 235.808 89.4005 236.928 90.8565 236.928C91.9765 236.928 92.7765 236.32 93.0325 235.328L94.2965 235.776C93.7845 237.264 92.5205 238.176 90.8565 238.176ZM90.7765 230.704C89.5605 230.704 88.6485 231.52 88.3925 232.944H92.9045C92.8725 231.76 92.2325 230.704 90.7765 230.704ZM103.192 226.4C103.768 226.4 104.259 226.501 104.664 226.704C105.08 226.896 105.4 227.173 105.624 227.536C105.848 227.899 105.96 228.341 105.96 228.864C105.96 229.536 105.741 230.107 105.304 230.576C104.877 231.045 104.333 231.472 103.672 231.856L106.76 234.832C107.037 234.501 107.261 234.123 107.432 233.696C107.613 233.259 107.763 232.789 107.88 232.288H109.304C109.133 232.971 108.92 233.605 108.664 234.192C108.408 234.779 108.077 235.291 107.672 235.728L110.008 238H108.104L106.712 236.656C106.456 236.88 106.189 237.088 105.912 237.28C105.645 237.461 105.352 237.616 105.032 237.744C104.712 237.872 104.365 237.973 103.992 238.048C103.629 238.123 103.224 238.16 102.776 238.16C102.04 238.16 101.4 238.043 100.856 237.808C100.323 237.563 99.9068 237.205 99.6081 236.736C99.3201 236.267 99.1761 235.696 99.1761 235.024C99.1761 234.48 99.2721 234.011 99.4641 233.616C99.6668 233.221 99.9548 232.869 100.328 232.56C100.701 232.251 101.139 231.952 101.64 231.664C101.416 231.408 101.197 231.141 100.984 230.864C100.771 230.587 100.595 230.288 100.456 229.968C100.317 229.637 100.248 229.28 100.248 228.896C100.248 228.373 100.365 227.925 100.6 227.552C100.835 227.179 101.171 226.896 101.608 226.704C102.056 226.501 102.584 226.4 103.192 226.4ZM102.488 232.544C102.104 232.768 101.773 232.997 101.496 233.232C101.229 233.456 101.021 233.707 100.872 233.984C100.723 234.261 100.648 234.592 100.648 234.976C100.648 235.563 100.845 236.032 101.24 236.384C101.635 236.736 102.163 236.912 102.824 236.912C103.507 236.912 104.093 236.8 104.584 236.576C105.075 236.352 105.485 236.085 105.816 235.776L102.488 232.544ZM103.144 227.552C102.696 227.552 102.328 227.669 102.04 227.904C101.763 228.139 101.624 228.464 101.624 228.88C101.624 229.264 101.725 229.621 101.928 229.952C102.131 230.272 102.424 230.629 102.808 231.024C103.437 230.661 103.885 230.32 104.152 230C104.429 229.669 104.568 229.291 104.568 228.864C104.568 228.48 104.44 228.165 104.184 227.92C103.928 227.675 103.581 227.552 103.144 227.552ZM112.847 233.184V238H111.311V226.512H115.695C118.127 226.512 119.679 227.648 119.679 229.84C119.679 231.68 118.559 232.8 116.735 233.104L119.919 238H118.159L115.071 233.184H112.847ZM112.847 231.856H115.615C117.247 231.856 118.159 231.136 118.159 229.84C118.159 228.544 117.247 227.84 115.615 227.84H112.847V231.856ZM124.81 238.176C122.49 238.176 120.89 236.4 120.89 233.824C120.89 231.328 122.474 229.472 124.746 229.472C127.082 229.472 128.314 231.248 128.314 233.568V234.048H122.266C122.346 235.808 123.354 236.928 124.81 236.928C125.93 236.928 126.73 236.32 126.986 235.328L128.25 235.776C127.738 237.264 126.474 238.176 124.81 238.176ZM124.73 230.704C123.514 230.704 122.602 231.52 122.346 232.944H126.858C126.826 231.76 126.186 230.704 124.73 230.704ZM133.178 238.176C130.858 238.176 129.53 236.192 129.53 233.824C129.53 231.44 130.858 229.472 133.178 229.472C134.346 229.472 135.274 230.032 135.77 230.848V226.512H137.21V238H135.77V236.784C135.274 237.616 134.346 238.176 133.178 238.176ZM135.802 233.536C135.802 231.584 134.618 230.736 133.434 230.736C131.866 230.736 130.986 232.016 130.986 233.824C130.986 235.616 131.866 236.912 133.434 236.912C134.618 236.912 135.802 236.048 135.802 234.128V233.536ZM146.231 229.632V238H144.791V236.848C144.311 237.552 143.495 238.176 142.311 238.176C140.519 238.176 139.511 236.944 139.511 235.168V229.632H140.951V234.864C140.951 236.048 141.463 236.848 142.695 236.848C143.735 236.848 144.791 236.064 144.791 234.672V229.632H146.231ZM149.486 233.824C149.486 235.728 150.51 236.912 151.998 236.912C153.15 236.912 153.838 236.176 154.078 235.136L155.358 235.728C154.958 237.12 153.742 238.176 151.998 238.176C149.662 238.176 148.046 236.4 148.046 233.824C148.046 231.232 149.662 229.472 151.998 229.472C153.742 229.472 154.926 230.48 155.326 231.872L154.078 232.496C153.838 231.472 153.15 230.72 151.998 230.72C150.51 230.72 149.486 231.904 149.486 233.824ZM160.278 238.176C157.958 238.176 156.358 236.4 156.358 233.824C156.358 231.328 157.942 229.472 160.214 229.472C162.55 229.472 163.782 231.248 163.782 233.568V234.048H157.734C157.814 235.808 158.822 236.928 160.278 236.928C161.398 236.928 162.198 236.32 162.454 235.328L163.718 235.776C163.206 237.264 161.942 238.176 160.278 238.176ZM160.198 230.704C158.982 230.704 158.07 231.52 157.814 232.944H162.326C162.294 231.76 161.654 230.704 160.198 230.704ZM172.598 226.368V227.648C172.358 227.616 172.214 227.616 171.974 227.616C171.126 227.616 170.662 227.984 170.662 229.056V229.632H172.518V230.864H170.662V238H169.222V230.864H167.958V229.632H169.222V228.96C169.222 227.328 170.118 226.336 171.83 226.336C172.118 226.336 172.278 226.352 172.598 226.368ZM178.192 229.6V231.056C177.952 231.008 177.76 230.992 177.488 230.992C176.272 230.992 175.296 231.952 175.296 233.424V238H173.856V229.632H175.296V231.056C175.664 230.208 176.48 229.568 177.616 229.568C177.84 229.568 178.048 229.584 178.192 229.6ZM181.702 238.144C180.182 238.144 178.95 237.248 178.95 235.744C178.95 234.08 180.246 233.392 182.118 233.008L184.15 232.592V232.24C184.15 231.28 183.622 230.736 182.502 230.736C181.446 230.736 180.822 231.232 180.566 232.16L179.206 231.808C179.606 230.448 180.838 229.472 182.55 229.472C184.422 229.472 185.574 230.384 185.574 232.176V236.256C185.574 236.8 185.91 236.976 186.47 236.848V238C185.19 238.16 184.454 237.856 184.278 237.056C183.766 237.712 182.838 238.144 181.702 238.144ZM184.15 235.152V233.712L182.518 234.064C181.238 234.32 180.374 234.672 180.374 235.68C180.374 236.496 180.966 236.976 181.878 236.976C183.11 236.976 184.15 236.224 184.15 235.152ZM194.668 229.632V238H193.228V236.848C192.748 237.552 191.932 238.176 190.748 238.176C188.956 238.176 187.948 236.944 187.948 235.168V229.632H189.388V234.864C189.388 236.048 189.9 236.848 191.132 236.848C192.172 236.848 193.228 236.064 193.228 234.672V229.632H194.668ZM200.131 238.176C197.811 238.176 196.483 236.192 196.483 233.824C196.483 231.44 197.811 229.472 200.131 229.472C201.299 229.472 202.227 230.032 202.723 230.848V226.512H204.163V238H202.723V236.784C202.227 237.616 201.299 238.176 200.131 238.176ZM202.755 233.536C202.755 231.584 201.571 230.736 200.387 230.736C198.819 230.736 197.939 232.016 197.939 233.824C197.939 235.616 198.819 236.912 200.387 236.912C201.571 236.912 202.755 236.048 202.755 234.128V233.536ZM213.951 238.176C212.783 238.176 211.855 237.616 211.359 236.784V238H209.919V226.512H211.359V230.848C211.855 230.032 212.783 229.472 213.951 229.472C216.271 229.472 217.599 231.44 217.599 233.824C217.599 236.192 216.271 238.176 213.951 238.176ZM211.327 233.536V234.128C211.327 236.048 212.511 236.912 213.695 236.912C215.263 236.912 216.143 235.616 216.143 233.824C216.143 232.016 215.263 230.736 213.695 230.736C212.511 230.736 211.327 231.584 211.327 233.536ZM222.335 238.912C221.855 240.176 221.199 240.976 219.743 240.976C219.391 240.976 219.215 240.96 218.959 240.912V239.664C219.231 239.728 219.407 239.744 219.647 239.744C220.271 239.744 220.607 239.52 220.943 238.688L221.343 237.696L218.239 229.632H219.759L222.111 236.032L224.431 229.632H225.935L222.335 238.912ZM232.156 226.512V238H230.716V226.512H232.156ZM234.495 228.176V226.512H236.063V228.176H234.495ZM235.999 229.632V238H234.559V229.632H235.999ZM239.843 232.992V238H238.403V229.632H239.843V230.768C240.291 230.08 241.091 229.472 242.259 229.472C243.379 229.472 244.163 230.032 244.579 230.896C245.043 230.208 245.939 229.472 247.251 229.472C248.979 229.472 250.019 230.704 250.019 232.48V238H248.579V232.864C248.579 231.696 248.099 230.816 246.915 230.816C245.955 230.816 244.931 231.632 244.931 232.992V238H243.491V232.864C243.491 231.696 243.011 230.816 241.827 230.816C240.867 230.816 239.843 231.632 239.843 232.992ZM252.277 228.176V226.512H253.845V228.176H252.277ZM253.781 229.632V238H252.341V229.632H253.781ZM256.408 236V230.864H255.112V229.632H256.408V227.184H257.832V229.632H259.736V230.864H257.832V235.776C257.832 236.656 258.264 236.816 259 236.816C259.336 236.816 259.576 236.8 259.912 236.72V237.952C259.544 238.032 259.128 238.08 258.648 238.08C257.224 238.08 256.408 237.6 256.408 236ZM261.558 228.176V226.512H263.126V228.176H261.558ZM263.062 229.632V238H261.622V229.632H263.062ZM265.466 238V229.632H266.906V230.768C267.386 230.08 268.218 229.472 269.402 229.472C271.178 229.472 272.186 230.704 272.186 232.48V238H270.746V232.864C270.746 231.696 270.25 230.816 269.002 230.816C267.962 230.816 266.906 231.616 266.906 233.008V238H265.466ZM281.585 237.248C281.585 239.696 279.969 241.056 277.697 241.056C275.857 241.056 274.513 240.208 274.049 238.672L275.393 238.16C275.665 239.232 276.529 239.856 277.697 239.856C279.169 239.856 280.145 239.104 280.145 237.36V236.416C279.697 237.232 278.753 237.808 277.585 237.808C275.297 237.808 273.953 235.92 273.953 233.632C273.953 231.36 275.297 229.472 277.585 229.472C278.737 229.472 279.697 230.048 280.145 230.864V229.632H281.585V237.248ZM280.161 233.504C280.161 231.632 279.041 230.736 277.841 230.736C276.321 230.736 275.393 231.872 275.393 233.632C275.393 235.392 276.321 236.544 277.841 236.544C279.041 236.544 280.161 235.648 280.161 233.808V233.504ZM287.58 236V230.864H286.284V229.632H287.58V227.184H289.004V229.632H290.908V230.864H289.004V235.776C289.004 236.656 289.436 236.816 290.172 236.816C290.508 236.816 290.748 236.8 291.084 236.72V237.952C290.716 238.032 290.3 238.08 289.82 238.08C288.396 238.08 287.58 237.6 287.58 236ZM292.794 238V226.512H294.234V230.768C294.714 230.08 295.546 229.472 296.73 229.472C298.506 229.472 299.514 230.704 299.514 232.48V238H298.074V232.864C298.074 231.696 297.578 230.816 296.33 230.816C295.29 230.816 294.234 231.616 294.234 233.008V238H292.794ZM305.169 238.176C302.849 238.176 301.249 236.4 301.249 233.824C301.249 231.328 302.833 229.472 305.105 229.472C307.441 229.472 308.673 231.248 308.673 233.568V234.048H302.625C302.705 235.808 303.713 236.928 305.169 236.928C306.289 236.928 307.089 236.32 307.345 235.328L308.609 235.776C308.097 237.264 306.833 238.176 305.169 238.176ZM305.089 230.704C303.873 230.704 302.961 231.52 302.705 232.944H307.217C307.185 231.76 306.545 230.704 305.089 230.704ZM19.296 262.144C17.776 262.144 16.544 261.248 16.544 259.744C16.544 258.08 17.84 257.392 19.712 257.008L21.744 256.592V256.24C21.744 255.28 21.216 254.736 20.096 254.736C19.04 254.736 18.416 255.232 18.16 256.16L16.8 255.808C17.2 254.448 18.432 253.472 20.144 253.472C22.016 253.472 23.168 254.384 23.168 256.176V260.256C23.168 260.8 23.504 260.976 24.064 260.848V262C22.784 262.16 22.048 261.856 21.872 261.056C21.36 261.712 20.432 262.144 19.296 262.144ZM21.744 259.152V257.712L20.112 258.064C18.832 258.32 17.968 258.672 17.968 259.68C17.968 260.496 18.56 260.976 19.472 260.976C20.704 260.976 21.744 260.224 21.744 259.152ZM27.0619 256.992V262H25.6219V253.632H27.0619V254.768C27.5099 254.08 28.3099 253.472 29.4779 253.472C30.5979 253.472 31.3819 254.032 31.7979 254.896C32.2619 254.208 33.1579 253.472 34.4699 253.472C36.1979 253.472 37.2379 254.704 37.2379 256.48V262H35.7979V256.864C35.7979 255.696 35.3179 254.816 34.1339 254.816C33.1739 254.816 32.1499 255.632 32.1499 256.992V262H30.7099V256.864C30.7099 255.696 30.2299 254.816 29.0459 254.816C28.0859 254.816 27.0619 255.632 27.0619 256.992ZM46.7594 257.824C46.7594 260.416 45.1594 262.176 42.8714 262.176C40.5834 262.176 38.9834 260.416 38.9834 257.824C38.9834 255.232 40.5834 253.472 42.8714 253.472C45.1594 253.472 46.7594 255.232 46.7594 257.824ZM40.4394 257.824C40.4394 259.728 41.3994 260.944 42.8714 260.944C44.3434 260.944 45.3034 259.728 45.3034 257.824C45.3034 255.904 44.3434 254.688 42.8714 254.688C41.3994 254.688 40.4394 255.904 40.4394 257.824ZM55.2306 253.632V262H53.7906V260.848C53.3106 261.552 52.4946 262.176 51.3106 262.176C49.5186 262.176 48.5106 260.944 48.5106 259.168V253.632H49.9506V258.864C49.9506 260.048 50.4626 260.848 51.6946 260.848C52.7346 260.848 53.7906 260.064 53.7906 258.672V253.632H55.2306ZM57.6219 262V253.632H59.0619V254.768C59.5419 254.08 60.3739 253.472 61.5579 253.472C63.3339 253.472 64.3419 254.704 64.3419 256.48V262H62.9019V256.864C62.9019 255.696 62.4059 254.816 61.1579 254.816C60.1179 254.816 59.0619 255.616 59.0619 257.008V262H57.6219ZM66.8771 260V254.864H65.5811V253.632H66.8771V251.184H68.3011V253.632H70.2051V254.864H68.3011V259.776C68.3011 260.656 68.7331 260.816 69.4691 260.816C69.8051 260.816 70.0451 260.8 70.3811 260.72V261.952C70.0131 262.032 69.5971 262.08 69.1171 262.08C67.6931 262.08 66.8771 261.6 66.8771 260ZM77.5616 262.144C76.0416 262.144 74.8096 261.248 74.8096 259.744C74.8096 258.08 76.1056 257.392 77.9776 257.008L80.0096 256.592V256.24C80.0096 255.28 79.4816 254.736 78.3616 254.736C77.3056 254.736 76.6816 255.232 76.4256 256.16L75.0656 255.808C75.4656 254.448 76.6976 253.472 78.4096 253.472C80.2816 253.472 81.4336 254.384 81.4336 256.176V260.256C81.4336 260.8 81.7696 260.976 82.3296 260.848V262C81.0496 262.16 80.3136 261.856 80.1376 261.056C79.6256 261.712 78.6976 262.144 77.5616 262.144ZM80.0096 259.152V257.712L78.3776 258.064C77.0976 258.32 76.2336 258.672 76.2336 259.68C76.2336 260.496 76.8256 260.976 77.7376 260.976C78.9696 260.976 80.0096 260.224 80.0096 259.152ZM83.8875 262V253.632H85.3275V254.768C85.8075 254.08 86.6395 253.472 87.8235 253.472C89.5995 253.472 90.6075 254.704 90.6075 256.48V262H89.1675V256.864C89.1675 255.696 88.6715 254.816 87.4235 254.816C86.3835 254.816 85.3275 255.616 85.3275 257.008V262H83.8875ZM95.9908 262.176C93.6708 262.176 92.3428 260.192 92.3428 257.824C92.3428 255.44 93.6708 253.472 95.9908 253.472C97.1588 253.472 98.0868 254.032 98.5828 254.848V250.512H100.023V262H98.5828V260.784C98.0868 261.616 97.1588 262.176 95.9908 262.176ZM98.6148 257.536C98.6148 255.584 97.4308 254.736 96.2468 254.736C94.6788 254.736 93.7988 256.016 93.7988 257.824C93.7988 259.616 94.6788 260.912 96.2468 260.912C97.4308 260.912 98.6148 260.048 98.6148 258.128V257.536ZM107.218 250.512V262H105.778V250.512H107.218ZM116.822 257.824C116.822 260.416 115.222 262.176 112.934 262.176C110.646 262.176 109.046 260.416 109.046 257.824C109.046 255.232 110.646 253.472 112.934 253.472C115.222 253.472 116.822 255.232 116.822 257.824ZM110.502 257.824C110.502 259.728 111.462 260.944 112.934 260.944C114.406 260.944 115.366 259.728 115.366 257.824C115.366 255.904 114.406 254.688 112.934 254.688C111.462 254.688 110.502 255.904 110.502 257.824ZM119.517 257.824C119.517 259.728 120.541 260.912 122.029 260.912C123.181 260.912 123.869 260.176 124.109 259.136L125.389 259.728C124.989 261.12 123.773 262.176 122.029 262.176C119.693 262.176 118.077 260.4 118.077 257.824C118.077 255.232 119.693 253.472 122.029 253.472C123.773 253.472 124.957 254.48 125.357 255.872L124.109 256.496C123.869 255.472 123.181 254.72 122.029 254.72C120.541 254.72 119.517 255.904 119.517 257.824ZM129.155 262.144C127.635 262.144 126.403 261.248 126.403 259.744C126.403 258.08 127.699 257.392 129.571 257.008L131.603 256.592V256.24C131.603 255.28 131.075 254.736 129.955 254.736C128.899 254.736 128.275 255.232 128.019 256.16L126.659 255.808C127.059 254.448 128.291 253.472 130.003 253.472C131.875 253.472 133.027 254.384 133.027 256.176V260.256C133.027 260.8 133.363 260.976 133.923 260.848V262C132.643 262.16 131.907 261.856 131.731 261.056C131.219 261.712 130.291 262.144 129.155 262.144ZM131.603 259.152V257.712L129.971 258.064C128.691 258.32 127.827 258.672 127.827 259.68C127.827 260.496 128.419 260.976 129.331 260.976C130.563 260.976 131.603 260.224 131.603 259.152ZM135.705 260V254.864H134.409V253.632H135.705V251.184H137.129V253.632H139.033V254.864H137.129V259.776C137.129 260.656 137.561 260.816 138.297 260.816C138.633 260.816 138.873 260.8 139.209 260.72V261.952C138.841 262.032 138.425 262.08 137.945 262.08C136.521 262.08 135.705 261.6 135.705 260ZM140.855 252.176V250.512H142.423V252.176H140.855ZM142.359 253.632V262H140.919V253.632H142.359ZM151.963 257.824C151.963 260.416 150.363 262.176 148.075 262.176C145.787 262.176 144.187 260.416 144.187 257.824C144.187 255.232 145.787 253.472 148.075 253.472C150.363 253.472 151.963 255.232 151.963 257.824ZM145.643 257.824C145.643 259.728 146.603 260.944 148.075 260.944C149.547 260.944 150.507 259.728 150.507 257.824C150.507 255.904 149.547 254.688 148.075 254.688C146.603 254.688 145.643 255.904 145.643 257.824ZM153.794 262V253.632H155.234V254.768C155.714 254.08 156.546 253.472 157.73 253.472C159.506 253.472 160.514 254.704 160.514 256.48V262H159.074V256.864C159.074 255.696 158.578 254.816 157.33 254.816C156.29 254.816 155.234 255.616 155.234 257.008V262H153.794ZM173.4 257.824C173.4 260.416 171.8 262.176 169.512 262.176C167.224 262.176 165.624 260.416 165.624 257.824C165.624 255.232 167.224 253.472 169.512 253.472C171.8 253.472 173.4 255.232 173.4 257.824ZM167.08 257.824C167.08 259.728 168.04 260.944 169.512 260.944C170.984 260.944 171.944 259.728 171.944 257.824C171.944 255.904 170.984 254.688 169.512 254.688C168.04 254.688 167.08 255.904 167.08 257.824ZM178.879 250.368V251.648C178.639 251.616 178.495 251.616 178.255 251.616C177.407 251.616 176.943 251.984 176.943 253.056V253.632H178.799V254.864H176.943V262H175.503V254.864H174.239V253.632H175.503V252.96C175.503 251.328 176.399 250.336 178.111 250.336C178.399 250.336 178.559 250.352 178.879 250.368ZM183.737 260V254.864H182.441V253.632H183.737V251.184H185.161V253.632H187.065V254.864H185.161V259.776C185.161 260.656 185.593 260.816 186.329 260.816C186.665 260.816 186.905 260.8 187.241 260.72V261.952C186.873 262.032 186.457 262.08 185.977 262.08C184.553 262.08 183.737 261.6 183.737 260ZM193.286 253.6V255.056C193.046 255.008 192.854 254.992 192.582 254.992C191.366 254.992 190.39 255.952 190.39 257.424V262H188.95V253.632H190.39V255.056C190.758 254.208 191.574 253.568 192.71 253.568C192.934 253.568 193.142 253.584 193.286 253.6ZM196.796 262.144C195.276 262.144 194.044 261.248 194.044 259.744C194.044 258.08 195.34 257.392 197.212 257.008L199.244 256.592V256.24C199.244 255.28 198.716 254.736 197.596 254.736C196.54 254.736 195.916 255.232 195.66 256.16L194.3 255.808C194.7 254.448 195.932 253.472 197.644 253.472C199.516 253.472 200.668 254.384 200.668 256.176V260.256C200.668 260.8 201.004 260.976 201.564 260.848V262C200.284 262.16 199.548 261.856 199.372 261.056C198.86 261.712 197.932 262.144 196.796 262.144ZM199.244 259.152V257.712L197.612 258.064C196.332 258.32 195.468 258.672 195.468 259.68C195.468 260.496 196.06 260.976 196.972 260.976C198.204 260.976 199.244 260.224 199.244 259.152ZM203.122 262V253.632H204.562V254.768C205.042 254.08 205.874 253.472 207.058 253.472C208.834 253.472 209.842 254.704 209.842 256.48V262H208.402V256.864C208.402 255.696 207.906 254.816 206.658 254.816C205.618 254.816 204.562 255.616 204.562 257.008V262H203.122ZM211.225 260.224L212.345 259.408C212.793 260.384 213.817 260.976 214.905 260.976C215.881 260.976 216.745 260.56 216.745 259.648C216.745 258.736 215.945 258.608 214.569 258.32C213.193 258.016 211.753 257.712 211.753 256C211.753 254.512 213.049 253.472 214.825 253.472C216.329 253.472 217.561 254.208 218.057 255.2L217.033 256.016C216.601 255.184 215.817 254.656 214.761 254.656C213.801 254.656 213.161 255.136 213.161 255.888C213.161 256.672 213.897 256.816 215.065 257.072C216.505 257.408 218.153 257.696 218.153 259.52C218.153 261.12 216.697 262.176 214.905 262.176C213.385 262.176 211.865 261.52 211.225 260.224ZM222.03 262.144C220.51 262.144 219.278 261.248 219.278 259.744C219.278 258.08 220.574 257.392 222.446 257.008L224.478 256.592V256.24C224.478 255.28 223.95 254.736 222.83 254.736C221.774 254.736 221.15 255.232 220.894 256.16L219.534 255.808C219.934 254.448 221.166 253.472 222.878 253.472C224.75 253.472 225.902 254.384 225.902 256.176V260.256C225.902 260.8 226.238 260.976 226.798 260.848V262C225.518 262.16 224.782 261.856 224.606 261.056C224.094 261.712 223.166 262.144 222.03 262.144ZM224.478 259.152V257.712L222.846 258.064C221.566 258.32 220.702 258.672 220.702 259.68C220.702 260.496 221.294 260.976 222.206 260.976C223.438 260.976 224.478 260.224 224.478 259.152ZM229.22 257.824C229.22 259.728 230.244 260.912 231.732 260.912C232.884 260.912 233.572 260.176 233.812 259.136L235.092 259.728C234.692 261.12 233.476 262.176 231.732 262.176C229.396 262.176 227.78 260.4 227.78 257.824C227.78 255.232 229.396 253.472 231.732 253.472C233.476 253.472 234.66 254.48 235.06 255.872L233.812 256.496C233.572 255.472 232.884 254.72 231.732 254.72C230.244 254.72 229.22 255.904 229.22 257.824ZM236.893 260V254.864H235.597V253.632H236.893V251.184H238.317V253.632H240.221V254.864H238.317V259.776C238.317 260.656 238.749 260.816 239.485 260.816C239.821 260.816 240.061 260.8 240.397 260.72V261.952C240.029 262.032 239.613 262.08 239.133 262.08C237.709 262.08 236.893 261.6 236.893 260ZM242.042 252.176V250.512H243.61V252.176H242.042ZM243.546 253.632V262H242.106V253.632H243.546ZM253.15 257.824C253.15 260.416 251.55 262.176 249.262 262.176C246.974 262.176 245.374 260.416 245.374 257.824C245.374 255.232 246.974 253.472 249.262 253.472C251.55 253.472 253.15 255.232 253.15 257.824ZM246.83 257.824C246.83 259.728 247.79 260.944 249.262 260.944C250.734 260.944 251.694 259.728 251.694 257.824C251.694 255.904 250.734 254.688 249.262 254.688C247.79 254.688 246.83 255.904 246.83 257.824ZM254.981 262V253.632H256.421V254.768C256.901 254.08 257.733 253.472 258.917 253.472C260.693 253.472 261.701 254.704 261.701 256.48V262H260.261V256.864C260.261 255.696 259.765 254.816 258.517 254.816C257.477 254.816 256.421 255.616 256.421 257.008V262H254.981ZM263.085 260.224L264.205 259.408C264.653 260.384 265.677 260.976 266.765 260.976C267.741 260.976 268.605 260.56 268.605 259.648C268.605 258.736 267.805 258.608 266.429 258.32C265.053 258.016 263.613 257.712 263.613 256C263.613 254.512 264.909 253.472 266.685 253.472C268.189 253.472 269.421 254.208 269.917 255.2L268.893 256.016C268.461 255.184 267.677 254.656 266.621 254.656C265.661 254.656 265.021 255.136 265.021 255.888C265.021 256.672 265.757 256.816 266.924 257.072C268.365 257.408 270.013 257.696 270.013 259.52C270.013 261.12 268.557 262.176 266.765 262.176C265.245 262.176 263.725 261.52 263.085 260.224Z" fill="#FF5900"/>
</svg>
