<svg width="312" height="186" viewBox="0 0 312 186" fill="none" xmlns="http://www.w3.org/2000/svg">
<path d="M6.17229 9.974C6.17229 12.144 7.34829 13.572 9.00029 13.572C10.1763 13.572 11.0303 12.858 11.3383 11.682L13.0183 12.256C12.4303 14.034 11.0303 15.154 9.00029 15.154C6.32629 15.154 4.38029 13.026 4.38029 9.974C4.38029 6.922 6.32629 4.794 9.00029 4.794C11.0303 4.794 12.4303 5.914 13.0183 7.692L11.3383 8.266C11.0303 7.09 10.1763 6.376 9.00029 6.376C7.34829 6.376 6.17229 7.804 6.17229 9.974ZM16.1122 15.126C14.7122 15.126 13.6342 14.272 13.6342 12.956C13.6342 11.556 14.6842 10.94 16.0982 10.646L18.1282 10.226V10.1C18.1282 9.4 17.7642 8.966 16.8682 8.966C16.0702 8.966 15.6502 9.33 15.4542 10.044L13.8722 9.68C14.2362 8.462 15.3142 7.51 16.9382 7.51C18.7022 7.51 19.7662 8.35 19.7662 10.044V13.208C19.7662 13.628 19.9482 13.754 20.4102 13.698V15C19.1922 15.14 18.5482 14.902 18.2962 14.3C17.8342 14.818 17.0642 15.126 16.1122 15.126ZM18.1282 12.41V11.514L16.5462 11.85C15.8322 12.004 15.3002 12.228 15.3002 12.886C15.3002 13.46 15.7202 13.782 16.3642 13.782C17.2602 13.782 18.1282 13.306 18.1282 12.41ZM25.7757 7.636V9.316C25.5657 9.288 25.3977 9.274 25.1597 9.274C24.0957 9.274 23.2837 9.96 23.2837 11.136V15H21.6037V7.65H23.2837V8.742C23.6057 8.056 24.3617 7.608 25.2997 7.608C25.4957 7.608 25.6497 7.622 25.7757 7.636ZM29.4343 15.154C27.3763 15.154 26.2003 13.418 26.2003 11.332C26.2003 9.246 27.3763 7.51 29.4343 7.51C30.3863 7.51 31.0863 7.888 31.5483 8.434V4.948H33.2283V15H31.5483V14.23C31.0863 14.776 30.3863 15.154 29.4343 15.154ZM31.5903 11.122C31.5903 9.736 30.8063 8.98 29.7703 8.98C28.5523 8.98 27.8943 9.932 27.8943 11.332C27.8943 12.732 28.5523 13.684 29.7703 13.684C30.8063 13.684 31.5903 12.914 31.5903 11.556V11.122ZM39.7352 4.948V15H37.9432V4.948H39.7352ZM40.7946 13.6L42.0546 12.592C42.4886 13.306 43.3286 13.782 44.1826 13.782C44.8966 13.782 45.5546 13.53 45.5546 12.872C45.5546 12.242 44.9386 12.172 43.7766 11.934C42.6146 11.696 41.2846 11.402 41.2846 9.834C41.2846 8.49 42.4606 7.51 44.1546 7.51C45.4426 7.51 46.5906 8.084 47.1226 8.896L45.9886 9.918C45.5686 9.26 44.8686 8.882 44.0566 8.882C43.3706 8.882 42.9226 9.19 42.9226 9.68C42.9226 10.212 43.4546 10.31 44.3786 10.506C45.6246 10.772 47.1926 11.038 47.1926 12.718C47.1926 14.202 45.8346 15.154 44.1686 15.154C42.8106 15.154 41.4526 14.608 40.7946 13.6ZM47.7126 13.6L48.9726 12.592C49.4066 13.306 50.2466 13.782 51.1006 13.782C51.8146 13.782 52.4726 13.53 52.4726 12.872C52.4726 12.242 51.8566 12.172 50.6946 11.934C49.5326 11.696 48.2026 11.402 48.2026 9.834C48.2026 8.49 49.3786 7.51 51.0726 7.51C52.3606 7.51 53.5086 8.084 54.0406 8.896L52.9066 9.918C52.4866 9.26 51.7866 8.882 50.9746 8.882C50.2886 8.882 49.8406 9.19 49.8406 9.68C49.8406 10.212 50.3726 10.31 51.2966 10.506C52.5426 10.772 54.1106 11.038 54.1106 12.718C54.1106 14.202 52.7526 15.154 51.0866 15.154C49.7286 15.154 48.3706 14.608 47.7126 13.6ZM61.5186 7.65V15H59.8386V14.216C59.4186 14.706 58.7886 15.154 57.8366 15.154C56.2966 15.154 55.3446 14.104 55.3446 12.522V7.65H57.0246V12.158C57.0246 13.054 57.4166 13.628 58.3266 13.628C59.0826 13.628 59.8386 13.068 59.8386 12.018V7.65H61.5186ZM63.2612 6.67V4.948H64.9972V6.67H63.2612ZM64.9692 7.65V15H63.2892V7.65H64.9692ZM66.7345 15V7.65H68.4145V8.434C68.8345 7.944 69.4925 7.51 70.4445 7.51C71.9845 7.51 72.9085 8.574 72.9085 10.156V15H71.2285V10.646C71.2285 9.736 70.8645 9.078 69.9405 9.078C69.1845 9.078 68.4145 9.638 68.4145 10.688V15H66.7345ZM81.1612 14.258C81.1612 16.428 79.6772 17.674 77.5772 17.674C75.8832 17.674 74.6932 16.96 74.2312 15.532L75.7992 14.972C76.0232 15.798 76.6532 16.316 77.5772 16.316C78.7112 16.316 79.4812 15.756 79.4812 14.412V13.894C79.0892 14.412 78.3472 14.818 77.4092 14.818C75.3932 14.818 74.1892 13.18 74.1892 11.164C74.1892 9.148 75.3932 7.51 77.4092 7.51C78.3332 7.51 79.0892 7.916 79.4812 8.434V7.65H81.1612V14.258ZM79.5092 11.094C79.5092 9.75 78.7812 8.98 77.7312 8.98C76.5692 8.98 75.8832 9.792 75.8832 11.164C75.8832 12.522 76.5692 13.348 77.7312 13.348C78.7812 13.348 79.5092 12.578 79.5092 11.262V11.094ZM5.72768 22.85C6.23168 22.85 6.66101 22.9387 7.01568 23.116C7.37968 23.284 7.65968 23.5267 7.85568 23.844C8.05168 24.1613 8.14968 24.5487 8.14968 25.006C8.14968 25.594 7.95835 26.0933 7.57568 26.504C7.20235 26.9147 6.72635 27.288 6.14768 27.624L8.84968 30.228C9.09235 29.9387 9.28835 29.6073 9.43768 29.234C9.59635 28.8513 9.72701 28.4407 9.82968 28.002H11.0757C10.9263 28.5993 10.7397 29.1547 10.5157 29.668C10.2917 30.1813 10.0023 30.6293 9.64768 31.012L11.6917 33H10.0257L8.80768 31.824C8.58368 32.02 8.35035 32.202 8.10768 32.37C7.87435 32.5287 7.61768 32.664 7.33768 32.776C7.05768 32.888 6.75435 32.9767 6.42768 33.042C6.11035 33.1073 5.75568 33.14 5.36368 33.14C4.71968 33.14 4.15968 33.0373 3.68368 32.832C3.21701 32.6173 2.85301 32.3047 2.59168 31.894C2.33968 31.4833 2.21368 30.984 2.21368 30.396C2.21368 29.92 2.29768 29.5093 2.46568 29.164C2.64301 28.8187 2.89501 28.5107 3.22168 28.24C3.54835 27.9693 3.93101 27.708 4.36968 27.456C4.17368 27.232 3.98235 26.9987 3.79568 26.756C3.60901 26.5133 3.45501 26.252 3.33368 25.972C3.21235 25.6827 3.15168 25.37 3.15168 25.034C3.15168 24.5767 3.25435 24.1847 3.45968 23.858C3.66501 23.5313 3.95901 23.284 4.34168 23.116C4.73368 22.9387 5.19568 22.85 5.72768 22.85ZM5.11168 28.226C4.77568 28.422 4.48635 28.6227 4.24368 28.828C4.01035 29.024 3.82835 29.2433 3.69768 29.486C3.56701 29.7287 3.50168 30.018 3.50168 30.354C3.50168 30.8673 3.67435 31.278 4.01968 31.586C4.36501 31.894 4.82701 32.048 5.40568 32.048C6.00301 32.048 6.51635 31.95 6.94568 31.754C7.37501 31.558 7.73435 31.3247 8.02368 31.054L5.11168 28.226ZM5.68568 23.858C5.29368 23.858 4.97168 23.9607 4.71968 24.166C4.47701 24.3713 4.35568 24.656 4.35568 25.02C4.35568 25.356 4.44435 25.6687 4.62168 25.958C4.79901 26.238 5.05568 26.5507 5.39168 26.896C5.94235 26.5787 6.33435 26.28 6.56768 26C6.81035 25.7107 6.93168 25.3793 6.93168 25.006C6.93168 24.67 6.81968 24.3947 6.59568 24.18C6.37168 23.9653 6.06835 23.858 5.68568 23.858ZM17.3544 29.108V33H15.5624V22.948H19.5804C21.8204 22.948 23.2204 23.998 23.2204 26.028C23.2204 28.03 21.8204 29.108 19.5804 29.108H17.3544ZM17.3544 27.568H19.4824C20.7704 27.568 21.4564 27.008 21.4564 26.028C21.4564 25.034 20.7704 24.488 19.4824 24.488H17.3544V27.568ZM28.3733 25.636V27.316C28.1633 27.288 27.9953 27.274 27.7573 27.274C26.6933 27.274 25.8813 27.96 25.8813 29.136V33H24.2013V25.65H25.8813V26.742C26.2033 26.056 26.9593 25.608 27.8973 25.608C28.0933 25.608 28.2473 25.622 28.3733 25.636ZM35.7999 29.332C35.7999 31.614 34.3299 33.154 32.2579 33.154C30.1859 33.154 28.7159 31.614 28.7159 29.332C28.7159 27.05 30.1859 25.51 32.2579 25.51C34.3299 25.51 35.7999 27.05 35.7999 29.332ZM30.4099 29.332C30.4099 30.83 31.1239 31.74 32.2579 31.74C33.3919 31.74 34.1059 30.83 34.1059 29.332C34.1059 27.834 33.3919 26.924 32.2579 26.924C31.1239 26.924 30.4099 27.834 30.4099 29.332ZM38.3256 29.332C38.3256 30.83 39.1096 31.698 40.2576 31.698C41.1536 31.698 41.6996 31.11 41.9096 30.298L43.3516 31.026C42.9736 32.216 41.8536 33.154 40.2576 33.154C38.1576 33.154 36.6456 31.6 36.6456 29.332C36.6456 27.064 38.1576 25.51 40.2576 25.51C41.8396 25.51 42.9316 26.406 43.3236 27.582L41.9096 28.352C41.6996 27.554 41.1536 26.952 40.2576 26.952C39.1096 26.952 38.3256 27.834 38.3256 29.332ZM47.4754 33.154C45.3754 33.154 43.9054 31.6 43.9054 29.332C43.9054 27.176 45.3614 25.51 47.4054 25.51C49.5334 25.51 50.6674 27.12 50.6674 29.136V29.696H45.5154C45.6414 30.956 46.3974 31.726 47.4754 31.726C48.3014 31.726 48.9594 31.306 49.1834 30.55L50.6254 31.096C50.1074 32.384 48.9454 33.154 47.4754 33.154ZM47.3914 26.924C46.5234 26.924 45.8514 27.442 45.5994 28.436H48.9734C48.9594 27.624 48.4554 26.924 47.3914 26.924ZM51.1579 31.6L52.4179 30.592C52.8519 31.306 53.6919 31.782 54.5459 31.782C55.2599 31.782 55.9179 31.53 55.9179 30.872C55.9179 30.242 55.3019 30.172 54.1399 29.934C52.9779 29.696 51.6479 29.402 51.6479 27.834C51.6479 26.49 52.8239 25.51 54.5179 25.51C55.8059 25.51 56.9539 26.084 57.4859 26.896L56.3519 27.918C55.9319 27.26 55.2319 26.882 54.4199 26.882C53.7339 26.882 53.2859 27.19 53.2859 27.68C53.2859 28.212 53.8179 28.31 54.7419 28.506C55.9879 28.772 57.5559 29.038 57.5559 30.718C57.5559 32.202 56.1979 33.154 54.5319 33.154C53.1739 33.154 51.8159 32.608 51.1579 31.6ZM58.0759 31.6L59.3359 30.592C59.7699 31.306 60.6099 31.782 61.4639 31.782C62.1779 31.782 62.8359 31.53 62.8359 30.872C62.8359 30.242 62.2199 30.172 61.0579 29.934C59.8959 29.696 58.5659 29.402 58.5659 27.834C58.5659 26.49 59.7419 25.51 61.4359 25.51C62.7239 25.51 63.8719 26.084 64.4039 26.896L63.2699 27.918C62.8499 27.26 62.1499 26.882 61.3379 26.882C60.6519 26.882 60.2039 27.19 60.2039 27.68C60.2039 28.212 60.7359 28.31 61.6599 28.506C62.9059 28.772 64.4739 29.038 64.4739 30.718C64.4739 32.202 63.1159 33.154 61.4499 33.154C60.0919 33.154 58.7339 32.608 58.0759 31.6ZM65.7358 24.67V22.948H67.4718V24.67H65.7358ZM67.4438 25.65V33H65.7638V25.65H67.4438ZM69.2091 33V25.65H70.8891V26.434C71.3091 25.944 71.9671 25.51 72.9191 25.51C74.4591 25.51 75.3831 26.574 75.3831 28.156V33H73.7031V28.646C73.7031 27.736 73.3391 27.078 72.4151 27.078C71.6591 27.078 70.8891 27.638 70.8891 28.688V33H69.2091ZM83.6358 32.258C83.6358 34.428 82.1518 35.674 80.0518 35.674C78.3578 35.674 77.1678 34.96 76.7058 33.532L78.2738 32.972C78.4978 33.798 79.1278 34.316 80.0518 34.316C81.1858 34.316 81.9558 33.756 81.9558 32.412V31.894C81.5638 32.412 80.8218 32.818 79.8838 32.818C77.8678 32.818 76.6638 31.18 76.6638 29.164C76.6638 27.148 77.8678 25.51 79.8838 25.51C80.8078 25.51 81.5638 25.916 81.9558 26.434V25.65H83.6358V32.258ZM81.9838 29.094C81.9838 27.75 81.2558 26.98 80.2058 26.98C79.0438 26.98 78.3578 27.792 78.3578 29.164C78.3578 30.522 79.0438 31.348 80.2058 31.348C81.2558 31.348 81.9838 30.578 81.9838 29.262V29.094Z" fill="#4D148C"/>
<path d="M43 80L45.8868 75L40.1132 75L43 80ZM42.5 44L42.5 75.5L43.5 75.5L43.5 44L42.5 44Z" fill="#4D148C"/>
<path d="M114 115L109 112.113V117.887L114 115ZM78 115.5H109.5V114.5H78V115.5Z" fill="#4D148C"/>
<path d="M226 115L221 112.113V117.887L226 115ZM190 115.5H221.5V114.5H190V115.5Z" fill="#4D148C"/>
<circle cx="267" cy="114" r="27.5" stroke="#4D148C"/>
<path d="M271.6 104.664H257.5C257.224 104.664 257 104.888 257 105.164V125.499C257 125.775 257.224 125.999 257.5 125.999H274.524C274.8 125.999 275.024 125.775 275.024 125.499V117.279" stroke="#FF5900" stroke-width="1.5"/>
<path d="M264.18 108.654C264.768 108.654 269.084 108.654 271.169 108.654" stroke="#FF5900" stroke-width="1.5"/>
<path d="M264.18 112.941C264.768 112.941 269.084 112.941 271.169 112.941" stroke="#FF5900" stroke-width="1.5"/>
<path d="M264.18 117.355C264.768 117.355 269.084 117.355 271.169 117.355" stroke="#FF5900" stroke-width="1.5"/>
<path d="M264.18 121.73C264.768 121.73 269.084 121.73 271.169 121.73" stroke="#FF5900" stroke-width="1.5"/>
<rect x="260.492" y="107.953" width="1.47135" height="1.47136" rx="0.735677" fill="#FF5900"/>
<rect x="260.492" y="112.389" width="1.47135" height="1.47136" rx="0.735677" fill="#FF5900"/>
<rect x="260.492" y="116.594" width="1.47135" height="1.47136" rx="0.735677" fill="#FF5900"/>
<rect x="260.492" y="120.949" width="1.47135" height="1.47136" rx="0.735677" fill="#FF5900"/>
<path d="M273.266 112.022V113.132C273.266 113.366 273.348 113.592 273.497 113.772L274.404 114.859C274.78 115.311 275.463 115.342 275.879 114.926L277.019 113.787C277.206 113.599 277.312 113.345 277.312 113.079V112.022M273.266 112.022H277.312M273.266 112.022V105.401M277.312 112.022V105.401M273.266 105.401V103.618C273.266 103.347 273.374 103.085 273.577 102.905C275.034 101.613 275.858 101.786 277.025 102.908C277.212 103.088 277.312 103.339 277.312 103.599V105.401M273.266 105.401H277.312" stroke="#FF5900" stroke-width="1.5"/>
<path d="M254.146 159.974C254.146 162.144 255.322 163.572 256.974 163.572C258.15 163.572 259.004 162.858 259.312 161.682L260.992 162.256C260.404 164.034 259.004 165.154 256.974 165.154C254.3 165.154 252.354 163.026 252.354 159.974C252.354 156.922 254.3 154.794 256.974 154.794C259.004 154.794 260.404 155.914 260.992 157.692L259.312 158.266C259.004 157.09 258.15 156.376 256.974 156.376C255.322 156.376 254.146 157.804 254.146 159.974ZM264.086 165.126C262.686 165.126 261.608 164.272 261.608 162.956C261.608 161.556 262.658 160.94 264.072 160.646L266.102 160.226V160.1C266.102 159.4 265.738 158.966 264.842 158.966C264.044 158.966 263.624 159.33 263.428 160.044L261.846 159.68C262.21 158.462 263.288 157.51 264.912 157.51C266.676 157.51 267.74 158.35 267.74 160.044V163.208C267.74 163.628 267.922 163.754 268.384 163.698V165C267.166 165.14 266.522 164.902 266.27 164.3C265.808 164.818 265.038 165.126 264.086 165.126ZM266.102 162.41V161.514L264.52 161.85C263.806 162.004 263.274 162.228 263.274 162.886C263.274 163.46 263.694 163.782 264.338 163.782C265.234 163.782 266.102 163.306 266.102 162.41ZM273.749 157.636V159.316C273.539 159.288 273.371 159.274 273.133 159.274C272.069 159.274 271.257 159.96 271.257 161.136V165H269.577V157.65H271.257V158.742C271.579 158.056 272.335 157.608 273.273 157.608C273.469 157.608 273.623 157.622 273.749 157.636ZM277.408 165.154C275.35 165.154 274.174 163.418 274.174 161.332C274.174 159.246 275.35 157.51 277.408 157.51C278.36 157.51 279.06 157.888 279.522 158.434V154.948H281.202V165H279.522V164.23C279.06 164.776 278.36 165.154 277.408 165.154ZM279.564 161.122C279.564 159.736 278.78 158.98 277.744 158.98C276.526 158.98 275.868 159.932 275.868 161.332C275.868 162.732 276.526 163.684 277.744 163.684C278.78 163.684 279.564 162.914 279.564 161.556V161.122ZM231.409 172.948H233.439L237.247 183H235.441L234.573 180.704H230.233L229.379 183H227.601L231.409 172.948ZM232.389 174.936L230.821 179.136H233.985L232.389 174.936ZM241.926 183.154C240.974 183.154 240.274 182.776 239.812 182.23V185.52H238.132V175.65H239.812V176.434C240.274 175.888 240.974 175.51 241.926 175.51C243.984 175.51 245.16 177.246 245.16 179.332C245.16 181.418 243.984 183.154 241.926 183.154ZM239.77 179.122V179.556C239.77 180.914 240.554 181.684 241.59 181.684C242.808 181.684 243.466 180.732 243.466 179.332C243.466 177.932 242.808 176.98 241.59 176.98C240.554 176.98 239.77 177.736 239.77 179.122ZM250.252 183.154C249.3 183.154 248.6 182.776 248.138 182.23V185.52H246.458V175.65H248.138V176.434C248.6 175.888 249.3 175.51 250.252 175.51C252.31 175.51 253.486 177.246 253.486 179.332C253.486 181.418 252.31 183.154 250.252 183.154ZM248.096 179.122V179.556C248.096 180.914 248.88 181.684 249.916 181.684C251.134 181.684 251.792 180.732 251.792 179.332C251.792 177.932 251.134 176.98 249.916 176.98C248.88 176.98 248.096 177.736 248.096 179.122ZM256.464 172.948V183H254.784V172.948H256.464ZM258.202 174.67V172.948H259.938V174.67H258.202ZM259.91 175.65V183H258.23V175.65H259.91ZM262.893 179.332C262.893 180.83 263.677 181.698 264.825 181.698C265.721 181.698 266.267 181.11 266.477 180.298L267.919 181.026C267.541 182.216 266.421 183.154 264.825 183.154C262.725 183.154 261.213 181.6 261.213 179.332C261.213 177.064 262.725 175.51 264.825 175.51C266.407 175.51 267.499 176.406 267.891 177.582L266.477 178.352C266.267 177.554 265.721 176.952 264.825 176.952C263.677 176.952 262.893 177.834 262.893 179.332ZM271.017 183.126C269.617 183.126 268.539 182.272 268.539 180.956C268.539 179.556 269.589 178.94 271.003 178.646L273.033 178.226V178.1C273.033 177.4 272.669 176.966 271.773 176.966C270.975 176.966 270.555 177.33 270.359 178.044L268.777 177.68C269.141 176.462 270.219 175.51 271.843 175.51C273.607 175.51 274.671 176.35 274.671 178.044V181.208C274.671 181.628 274.853 181.754 275.315 181.698V183C274.097 183.14 273.453 182.902 273.201 182.3C272.739 182.818 271.969 183.126 271.017 183.126ZM273.033 180.41V179.514L271.451 179.85C270.737 180.004 270.205 180.228 270.205 180.886C270.205 181.46 270.625 181.782 271.269 181.782C272.165 181.782 273.033 181.306 273.033 180.41ZM276.663 181.152V177.078H275.641V175.65H276.663V173.494H278.315V175.65H279.855V177.078H278.315V180.886C278.315 181.544 278.693 181.614 279.295 181.614C279.575 181.614 279.729 181.6 279.981 181.572V182.986C279.673 183.042 279.253 183.084 278.819 183.084C277.419 183.084 276.663 182.65 276.663 181.152ZM281.211 174.67V172.948H282.947V174.67H281.211ZM282.919 175.65V183H281.239V175.65H282.919ZM291.307 179.332C291.307 181.614 289.837 183.154 287.765 183.154C285.693 183.154 284.223 181.614 284.223 179.332C284.223 177.05 285.693 175.51 287.765 175.51C289.837 175.51 291.307 177.05 291.307 179.332ZM285.917 179.332C285.917 180.83 286.631 181.74 287.765 181.74C288.899 181.74 289.613 180.83 289.613 179.332C289.613 177.834 288.899 176.924 287.765 176.924C286.631 176.924 285.917 177.834 285.917 179.332ZM292.614 183V175.65H294.294V176.434C294.714 175.944 295.372 175.51 296.324 175.51C297.864 175.51 298.788 176.574 298.788 178.156V183H297.108V178.646C297.108 177.736 296.744 177.078 295.82 177.078C295.064 177.078 294.294 177.638 294.294 178.688V183H292.614ZM299.733 181.6L300.993 180.592C301.427 181.306 302.267 181.782 303.121 181.782C303.835 181.782 304.493 181.53 304.493 180.872C304.493 180.242 303.877 180.172 302.715 179.934C301.553 179.696 300.223 179.402 300.223 177.834C300.223 176.49 301.399 175.51 303.093 175.51C304.381 175.51 305.529 176.084 306.061 176.896L304.927 177.918C304.507 177.26 303.807 176.882 302.995 176.882C302.309 176.882 301.861 177.19 301.861 177.68C301.861 178.212 302.393 178.31 303.317 178.506C304.563 178.772 306.131 179.038 306.131 180.718C306.131 182.202 304.773 183.154 303.107 183.154C301.749 183.154 300.391 182.608 299.733 181.6Z" fill="#4D148C"/>
<path d="M30.1459 159.974C30.1459 162.144 31.3219 163.572 32.9739 163.572C34.1499 163.572 35.0039 162.858 35.3119 161.682L36.9919 162.256C36.4039 164.034 35.0039 165.154 32.9739 165.154C30.2999 165.154 28.3539 163.026 28.3539 159.974C28.3539 156.922 30.2999 154.794 32.9739 154.794C35.0039 154.794 36.4039 155.914 36.9919 157.692L35.3119 158.266C35.0039 157.09 34.1499 156.376 32.9739 156.376C31.3219 156.376 30.1459 157.804 30.1459 159.974ZM40.0858 165.126C38.6858 165.126 37.6078 164.272 37.6078 162.956C37.6078 161.556 38.6578 160.94 40.0718 160.646L42.1018 160.226V160.1C42.1018 159.4 41.7378 158.966 40.8418 158.966C40.0438 158.966 39.6238 159.33 39.4278 160.044L37.8458 159.68C38.2098 158.462 39.2878 157.51 40.9118 157.51C42.6758 157.51 43.7398 158.35 43.7398 160.044V163.208C43.7398 163.628 43.9218 163.754 44.3838 163.698V165C43.1658 165.14 42.5218 164.902 42.2698 164.3C41.8078 164.818 41.0378 165.126 40.0858 165.126ZM42.1018 162.41V161.514L40.5198 161.85C39.8058 162.004 39.2738 162.228 39.2738 162.886C39.2738 163.46 39.6938 163.782 40.3378 163.782C41.2338 163.782 42.1018 163.306 42.1018 162.41ZM49.7493 157.636V159.316C49.5393 159.288 49.3713 159.274 49.1333 159.274C48.0693 159.274 47.2573 159.96 47.2573 161.136V165H45.5773V157.65H47.2573V158.742C47.5793 158.056 48.3353 157.608 49.2733 157.608C49.4693 157.608 49.6233 157.622 49.7493 157.636ZM53.4079 165.154C51.3499 165.154 50.1739 163.418 50.1739 161.332C50.1739 159.246 51.3499 157.51 53.4079 157.51C54.3599 157.51 55.0599 157.888 55.5219 158.434V154.948H57.2019V165H55.5219V164.23C55.0599 164.776 54.3599 165.154 53.4079 165.154ZM55.5639 161.122C55.5639 159.736 54.7799 158.98 53.7439 158.98C52.5259 158.98 51.8679 159.932 51.8679 161.332C51.8679 162.732 52.5259 163.684 53.7439 163.684C54.7799 163.684 55.5639 162.914 55.5639 161.556V161.122ZM23.2128 172.948V183H21.4208V172.948H23.2128ZM24.2722 181.6L25.5322 180.592C25.9662 181.306 26.8062 181.782 27.6602 181.782C28.3742 181.782 29.0322 181.53 29.0322 180.872C29.0322 180.242 28.4162 180.172 27.2542 179.934C26.0922 179.696 24.7622 179.402 24.7622 177.834C24.7622 176.49 25.9382 175.51 27.6322 175.51C28.9202 175.51 30.0682 176.084 30.6002 176.896L29.4662 177.918C29.0462 177.26 28.3462 176.882 27.5342 176.882C26.8482 176.882 26.4002 177.19 26.4002 177.68C26.4002 178.212 26.9322 178.31 27.8562 178.506C29.1022 178.772 30.6702 179.038 30.6702 180.718C30.6702 182.202 29.3122 183.154 27.6462 183.154C26.2882 183.154 24.9302 182.608 24.2722 181.6ZM31.1901 181.6L32.4501 180.592C32.8841 181.306 33.7241 181.782 34.5781 181.782C35.2921 181.782 35.9501 181.53 35.9501 180.872C35.9501 180.242 35.3341 180.172 34.1721 179.934C33.0101 179.696 31.6801 179.402 31.6801 177.834C31.6801 176.49 32.8561 175.51 34.5501 175.51C35.8381 175.51 36.9861 176.084 37.5181 176.896L36.3841 177.918C35.9641 177.26 35.2641 176.882 34.4521 176.882C33.7661 176.882 33.3181 177.19 33.3181 177.68C33.3181 178.212 33.8501 178.31 34.7741 178.506C36.0201 178.772 37.5881 179.038 37.5881 180.718C37.5881 182.202 36.2301 183.154 34.5641 183.154C33.2061 183.154 31.8481 182.608 31.1901 181.6ZM44.9961 175.65V183H43.3161V182.216C42.8961 182.706 42.2661 183.154 41.3141 183.154C39.7741 183.154 38.8221 182.104 38.8221 180.522V175.65H40.5021V180.158C40.5021 181.054 40.8941 181.628 41.8041 181.628C42.5601 181.628 43.3161 181.068 43.3161 180.018V175.65H44.9961ZM46.7388 174.67V172.948H48.4748V174.67H46.7388ZM48.4468 175.65V183H46.7668V175.65H48.4468ZM50.2121 183V175.65H51.8921V176.434C52.3121 175.944 52.9701 175.51 53.9221 175.51C55.4621 175.51 56.3861 176.574 56.3861 178.156V183H54.7061V178.646C54.7061 177.736 54.3421 177.078 53.4181 177.078C52.6621 177.078 51.8921 177.638 51.8921 178.688V183H50.2121ZM64.6388 182.258C64.6388 184.428 63.1548 185.674 61.0548 185.674C59.3608 185.674 58.1708 184.96 57.7088 183.532L59.2767 182.972C59.5008 183.798 60.1308 184.316 61.0548 184.316C62.1888 184.316 62.9588 183.756 62.9588 182.412V181.894C62.5668 182.412 61.8248 182.818 60.8868 182.818C58.8708 182.818 57.6668 181.18 57.6668 179.164C57.6668 177.148 58.8708 175.51 60.8868 175.51C61.8108 175.51 62.5668 175.916 62.9588 176.434V175.65H64.6388V182.258ZM62.9868 179.094C62.9868 177.75 62.2588 176.98 61.2088 176.98C60.0468 176.98 59.3608 177.792 59.3608 179.164C59.3608 180.522 60.0468 181.348 61.2088 181.348C62.2588 181.348 62.9868 180.578 62.9868 179.262V179.094Z" fill="#4D148C"/>
<circle cx="148" cy="114" r="27.5" stroke="#4D148C"/>
<path d="M131.051 111.964C131.165 112.44 131.458 112.843 131.875 113.099L134.302 114.588C134.589 114.765 134.92 114.858 135.257 114.858C135.678 114.858 136.087 114.703 136.418 114.431L136.557 114.543C137.224 115.067 137.669 115.828 137.777 116.633C137.835 117.052 138.064 117.443 138.427 117.735L138.933 118.135L138.226 119.027C138.077 119.213 137.967 119.426 137.902 119.655C137.836 119.884 137.817 120.123 137.846 120.359C137.902 120.838 138.142 121.265 138.519 121.559C138.805 121.787 139.146 121.914 139.502 121.94C139.464 122.245 139.505 122.554 139.621 122.838C139.737 123.122 139.924 123.371 140.164 123.562C140.349 123.711 140.563 123.822 140.791 123.887C141.02 123.952 141.259 123.971 141.496 123.943C141.631 123.926 141.765 123.893 141.893 123.846C142.003 124.188 142.213 124.49 142.496 124.713C142.826 124.972 143.22 125.097 143.611 125.097C143.842 125.094 144.07 125.048 144.284 124.96C144.388 125.224 144.556 125.461 144.787 125.644C145.079 125.873 145.439 125.999 145.81 126C146.292 126 146.769 125.786 147.1 125.374L147.478 124.892L147.634 125.014C148.052 125.354 148.581 125.526 149.119 125.497C149.386 125.481 149.646 125.41 149.884 125.287C150.121 125.165 150.331 124.994 150.498 124.786C150.704 124.524 150.829 124.221 150.876 123.907C151.234 124.1 151.641 124.187 152.047 124.155C152.597 124.112 153.081 123.858 153.405 123.447C153.611 123.191 153.741 122.889 153.789 122.565C154.147 122.757 154.551 122.845 154.957 122.82C155.506 122.776 155.991 122.525 156.325 122.109C156.533 121.845 156.658 121.539 156.705 121.223C157.063 121.416 157.466 121.504 157.865 121.471C158.132 121.458 158.393 121.387 158.631 121.264C158.869 121.142 159.077 120.97 159.243 120.76C159.397 120.564 159.511 120.338 159.577 120.097C159.642 119.856 159.659 119.605 159.627 119.357C159.552 118.792 159.256 118.279 158.804 117.932L156.768 116.32C157.285 115.677 157.942 115.16 158.688 114.808L158.989 114.668C159.179 114.891 159.415 115.073 159.694 115.186C159.914 115.276 160.15 115.322 160.388 115.323C160.631 115.323 160.875 115.274 161.107 115.176L163.707 114.073C164.157 113.881 164.512 113.519 164.695 113.066C164.878 112.613 164.874 112.106 164.684 111.656L161.159 103.346C160.967 102.897 160.606 102.541 160.153 102.358C159.7 102.175 159.194 102.179 158.744 102.369L156.142 103.471C155.287 103.833 154.855 104.769 155.089 105.642C153.88 106.126 152.572 106.308 151.277 106.173L147.839 105.818C147.279 105.761 146.714 105.822 146.18 105.997C145.645 106.172 145.154 106.458 144.736 106.835L144.418 107.119L144.244 107.137C143.409 107.21 142.571 107.035 141.836 106.633L141.457 106.428L141.548 106.279C141.675 106.074 141.759 105.846 141.797 105.608C141.835 105.37 141.825 105.127 141.769 104.893C141.713 104.659 141.612 104.438 141.47 104.243C141.329 104.048 141.15 103.883 140.945 103.757L138.52 102.269C138.105 102.016 137.607 101.937 137.135 102.05C136.663 102.164 136.254 102.459 136 102.873L131.271 110.579C131.145 110.784 131.06 111.012 131.023 111.249C130.985 111.487 130.995 111.73 131.051 111.964ZM138.908 120.234C138.885 120.039 138.94 119.848 139.065 119.692L140.417 117.985C140.474 117.913 140.544 117.858 140.619 117.814C140.63 117.808 140.64 117.8 140.652 117.793C140.738 117.749 140.832 117.723 140.928 117.716C140.992 117.71 141.056 117.718 141.119 117.729C141.146 117.734 141.174 117.735 141.201 117.742C141.285 117.768 141.368 117.805 141.441 117.863C141.64 118.023 141.743 118.281 141.71 118.536C141.697 118.667 141.645 118.792 141.563 118.895L140.21 120.603C140.09 120.757 139.918 120.853 139.725 120.876C139.53 120.899 139.339 120.844 139.181 120.718C139.106 120.66 139.043 120.587 138.996 120.504C138.949 120.42 138.919 120.329 138.908 120.234ZM141.37 122.88C141.226 122.897 141.08 122.87 140.952 122.804C140.823 122.738 140.717 122.635 140.646 122.509C140.575 122.382 140.544 122.238 140.555 122.094C140.566 121.949 140.619 121.812 140.708 121.697L142.747 119.13C142.867 118.976 143.039 118.88 143.232 118.857C143.306 118.848 143.378 118.861 143.45 118.874C143.478 118.88 143.507 118.88 143.533 118.889C143.619 118.916 143.701 118.956 143.775 119.015C143.971 119.168 144.072 119.425 144.038 119.683C144.02 119.822 143.971 119.941 143.892 120.041L141.855 122.607C141.734 122.761 141.563 122.858 141.37 122.88ZM143.158 123.873C143.082 123.813 143.019 123.739 142.972 123.655C142.924 123.571 142.895 123.478 142.883 123.382C142.872 123.286 142.88 123.189 142.907 123.096C142.934 123.003 142.978 122.917 143.039 122.842L144.377 121.145L144.378 121.144L144.379 121.142L144.38 121.141L144.379 121.143L144.378 121.144C144.378 121.143 144.38 121.142 144.38 121.141L144.383 121.138C144.394 121.127 144.405 121.116 144.415 121.105C144.487 121.023 144.576 120.958 144.676 120.915C144.776 120.872 144.885 120.851 144.993 120.855C145.102 120.859 145.209 120.888 145.306 120.938C145.402 120.988 145.486 121.06 145.552 121.147C145.667 121.299 145.717 121.492 145.691 121.681C145.674 121.81 145.622 121.932 145.536 122.039L145.246 122.41C145.23 122.425 145.216 122.442 145.203 122.458L144.184 123.753C144.063 123.903 143.888 124 143.696 124.023C143.504 124.045 143.31 123.991 143.158 123.873ZM145.447 124.802C145.388 124.755 145.338 124.697 145.302 124.631C145.265 124.565 145.242 124.493 145.234 124.418C145.225 124.343 145.232 124.267 145.254 124.194C145.275 124.122 145.311 124.054 145.359 123.996C145.359 123.996 146.047 123.12 146.056 123.11C146.152 122.994 146.29 122.921 146.44 122.906C146.59 122.891 146.739 122.936 146.856 123.031C147.012 123.154 147.093 123.355 147.066 123.556C147.055 123.65 147.018 123.739 146.959 123.813L146.261 124.708C146.06 124.96 145.7 125 145.447 124.802ZM156.559 104.456L159.16 103.353C159.254 103.314 159.354 103.293 159.456 103.292C159.557 103.291 159.658 103.31 159.752 103.348C159.846 103.386 159.931 103.443 160.004 103.514C160.076 103.585 160.133 103.67 160.173 103.763L163.698 112.075C163.777 112.263 163.779 112.476 163.702 112.665C163.626 112.855 163.477 113.006 163.289 113.087L160.689 114.191C160.498 114.271 160.288 114.273 160.096 114.195C160.002 114.157 159.916 114.1 159.843 114.029C159.771 113.957 159.713 113.871 159.674 113.777L156.149 105.467C156.07 105.278 156.068 105.066 156.145 104.876C156.222 104.687 156.371 104.536 156.559 104.456ZM147.729 106.882L151.167 107.237C152.632 107.388 154.113 107.183 155.482 106.638L158.488 113.72L158.232 113.841C157.336 114.262 156.549 114.882 155.929 115.654L148.476 109.754C148.384 109.683 148.288 109.62 148.186 109.563C148.15 109.542 148.113 109.524 148.076 109.505C148.011 109.473 147.944 109.443 147.876 109.416C147.832 109.399 147.79 109.382 147.746 109.368C147.647 109.335 147.547 109.31 147.445 109.291C147.403 109.283 147.359 109.28 147.317 109.275C147.246 109.266 147.174 109.26 147.103 109.257C147.079 109.256 147.056 109.251 147.031 109.251C147.006 109.251 146.98 109.256 146.954 109.257C146.897 109.259 146.84 109.264 146.782 109.27C146.734 109.275 146.687 109.279 146.639 109.287C146.563 109.301 146.488 109.319 146.414 109.34C146.387 109.347 146.36 109.351 146.333 109.359C145.965 109.473 145.637 109.688 145.384 109.979C145.132 110.27 144.966 110.626 144.906 111.007L144.748 112C144.697 112.338 144.559 112.656 144.349 112.925C144.139 113.194 143.863 113.405 143.548 113.537C143.417 113.593 143.28 113.635 143.139 113.663L143.118 113.499L142.862 111.556C142.804 111.121 142.852 110.679 143.002 110.268C143.153 109.856 143.401 109.487 143.725 109.192L145.003 108.034L145.026 108.012L145.455 107.628C145.76 107.351 146.121 107.142 146.514 107.013C146.906 106.885 147.321 106.84 147.731 106.882H147.729ZM141.324 107.572C141.918 107.898 142.569 108.105 143.242 108.183L143.003 108.399C142.302 109.035 141.867 109.912 141.784 110.855C141.759 111.133 141.761 111.416 141.8 111.699L142.041 113.519L142.096 113.942C142.105 114.005 142.121 114.066 142.142 114.125C142.147 114.141 142.156 114.154 142.161 114.168C142.179 114.209 142.195 114.25 142.217 114.287C142.404 114.609 142.767 114.804 143.147 114.748C143.431 114.708 143.708 114.629 143.969 114.512C144.443 114.317 144.859 114.004 145.179 113.603C145.255 113.506 145.324 113.403 145.388 113.297L145.4 113.28C145.604 112.939 145.743 112.563 145.807 112.173L145.967 111.172C145.997 110.99 146.077 110.819 146.198 110.679C146.319 110.539 146.477 110.436 146.654 110.382C146.855 110.319 147.061 110.306 147.259 110.343C147.458 110.379 147.648 110.464 147.812 110.594L158.145 118.775C158.378 118.955 158.531 119.215 158.564 119.487C158.58 119.594 158.573 119.703 158.546 119.808C158.519 119.912 158.471 120.01 158.405 120.096C158.254 120.284 158.051 120.388 157.792 120.403C157.52 120.422 157.25 120.337 157.038 120.165L152.397 116.492C152.342 116.448 152.279 116.416 152.211 116.397C152.143 116.378 152.073 116.372 152.003 116.38C151.933 116.388 151.865 116.41 151.804 116.444C151.743 116.478 151.689 116.524 151.645 116.579C151.601 116.635 151.569 116.698 151.55 116.765C151.531 116.833 151.525 116.904 151.533 116.974C151.541 117.043 151.563 117.111 151.597 117.172C151.631 117.234 151.677 117.288 151.733 117.331L155.234 120.102H155.235C155.678 120.456 155.791 121.058 155.488 121.443C155.414 121.533 155.322 121.607 155.218 121.66C155.114 121.713 155 121.744 154.883 121.752C154.607 121.766 154.335 121.678 154.119 121.505L150.619 118.738C150.564 118.695 150.501 118.662 150.434 118.643C150.366 118.624 150.295 118.618 150.225 118.626C150.084 118.643 149.956 118.714 149.868 118.826C149.78 118.937 149.739 119.079 149.756 119.22C149.772 119.361 149.844 119.49 149.955 119.578L152.301 121.433C152.306 121.438 152.308 121.445 152.313 121.448C152.549 121.635 152.703 121.901 152.734 122.178C152.759 122.403 152.701 122.615 152.568 122.781C152.388 123.01 152.14 123.075 151.963 123.088C151.691 123.108 151.422 123.022 151.21 122.85L148.847 120.979C148.792 120.936 148.728 120.903 148.661 120.884C148.593 120.865 148.522 120.859 148.453 120.867C148.383 120.876 148.315 120.897 148.254 120.932C148.192 120.966 148.138 121.012 148.095 121.067C148.051 121.122 148.019 121.185 148 121.253C147.98 121.321 147.975 121.391 147.983 121.461C147.991 121.531 148.013 121.598 148.047 121.66C148.081 121.721 148.127 121.775 148.182 121.819L149.403 122.784C149.404 122.785 149.405 122.785 149.406 122.786C149.849 123.138 149.962 123.738 149.661 124.12C149.514 124.302 149.294 124.415 149.054 124.429C148.792 124.45 148.526 124.358 148.299 124.176L148.062 123.99C148.166 123.671 148.169 123.327 148.072 123.006C147.975 122.684 147.783 122.4 147.52 122.191C147.417 122.111 147.305 122.044 147.186 121.991C147.152 121.975 147.117 121.963 147.083 121.95C146.996 121.917 146.906 121.891 146.814 121.873C146.792 121.868 146.771 121.857 146.749 121.854L146.753 121.821C146.793 121.511 146.751 121.196 146.634 120.907C146.516 120.618 146.326 120.363 146.082 120.169C145.998 120.105 145.91 120.048 145.817 119.999C145.788 119.984 145.76 119.972 145.731 119.959C145.568 119.882 145.395 119.831 145.217 119.806C145.19 119.802 145.163 119.796 145.136 119.794C145.126 119.793 145.115 119.79 145.105 119.79C145.109 119.755 145.108 119.721 145.11 119.686C145.112 119.648 145.116 119.609 145.116 119.571C145.115 119.53 145.11 119.489 145.107 119.448C145.105 119.412 145.104 119.376 145.099 119.34C145.093 119.297 145.083 119.255 145.074 119.213C145.067 119.18 145.062 119.147 145.054 119.116C145.042 119.071 145.026 119.029 145.011 118.985C145.001 118.956 144.993 118.927 144.982 118.899C144.963 118.854 144.941 118.812 144.919 118.769C144.907 118.744 144.896 118.718 144.882 118.694C144.858 118.649 144.829 118.608 144.8 118.566C144.786 118.545 144.774 118.523 144.758 118.502C144.725 118.458 144.688 118.416 144.651 118.375C144.637 118.36 144.625 118.343 144.611 118.328C144.557 118.273 144.499 118.222 144.439 118.175C144.253 118.026 144.04 117.915 143.811 117.85C143.583 117.784 143.344 117.765 143.107 117.793C142.978 117.81 142.851 117.84 142.728 117.883C142.72 117.886 142.709 117.887 142.7 117.89C142.695 117.871 142.685 117.854 142.679 117.835C142.633 117.709 142.575 117.588 142.503 117.474C142.486 117.448 142.469 117.419 142.451 117.393C142.418 117.347 142.382 117.303 142.345 117.26C142.328 117.24 142.311 117.218 142.293 117.197C142.235 117.136 142.173 117.077 142.107 117.024C142.012 116.949 141.909 116.884 141.801 116.83C141.753 116.806 141.702 116.793 141.652 116.773C141.592 116.75 141.533 116.721 141.472 116.704C141.409 116.687 141.344 116.681 141.28 116.671C141.23 116.663 141.181 116.649 141.131 116.646C141.063 116.64 140.994 116.646 140.926 116.649C140.881 116.65 140.834 116.646 140.788 116.652C140.723 116.659 140.66 116.677 140.595 116.692C140.547 116.702 140.499 116.708 140.452 116.722C140.394 116.74 140.34 116.768 140.284 116.791C140.233 116.813 140.181 116.83 140.133 116.855C140.084 116.882 140.041 116.917 139.994 116.947C139.943 116.981 139.89 117.012 139.842 117.051C139.802 117.085 139.768 117.126 139.731 117.163C139.686 117.207 139.639 117.247 139.598 117.296L139.095 116.898C138.95 116.782 138.859 116.635 138.838 116.488C138.693 115.412 138.103 114.396 137.223 113.705L137.069 113.582L140.897 107.341L141.324 107.572ZM132.184 111.139L136.912 103.434C137.018 103.261 137.187 103.138 137.384 103.091C137.58 103.044 137.787 103.077 137.96 103.182L140.385 104.67C140.559 104.776 140.681 104.944 140.728 105.142C140.775 105.34 140.743 105.545 140.636 105.719L140.249 106.349L135.907 113.423C135.906 113.426 135.906 113.43 135.903 113.433C135.797 113.602 135.627 113.723 135.433 113.768C135.238 113.814 135.033 113.78 134.862 113.676L132.435 112.187C132.263 112.081 132.14 111.911 132.093 111.715C132.045 111.518 132.078 111.311 132.184 111.139Z" fill="#FF5900"/>
<path d="M109.216 161.108V165H107.424V154.948H111.442C113.682 154.948 115.082 155.998 115.082 158.028C115.082 160.03 113.682 161.108 111.442 161.108H109.216ZM109.216 159.568H111.344C112.632 159.568 113.318 159.008 113.318 158.028C113.318 157.034 112.632 156.488 111.344 156.488H109.216V159.568ZM120.235 157.636V159.316C120.025 159.288 119.857 159.274 119.619 159.274C118.555 159.274 117.743 159.96 117.743 161.136V165H116.063V157.65H117.743V158.742C118.065 158.056 118.821 157.608 119.759 157.608C119.955 157.608 120.109 157.622 120.235 157.636ZM127.661 161.332C127.661 163.614 126.191 165.154 124.119 165.154C122.047 165.154 120.577 163.614 120.577 161.332C120.577 159.05 122.047 157.51 124.119 157.51C126.191 157.51 127.661 159.05 127.661 161.332ZM122.271 161.332C122.271 162.83 122.985 163.74 124.119 163.74C125.253 163.74 125.967 162.83 125.967 161.332C125.967 159.834 125.253 158.924 124.119 158.924C122.985 158.924 122.271 159.834 122.271 161.332ZM130.187 161.332C130.187 162.83 130.971 163.698 132.119 163.698C133.015 163.698 133.561 163.11 133.771 162.298L135.213 163.026C134.835 164.216 133.715 165.154 132.119 165.154C130.019 165.154 128.507 163.6 128.507 161.332C128.507 159.064 130.019 157.51 132.119 157.51C133.701 157.51 134.793 158.406 135.185 159.582L133.771 160.352C133.561 159.554 133.015 158.952 132.119 158.952C130.971 158.952 130.187 159.834 130.187 161.332ZM139.337 165.154C137.237 165.154 135.767 163.6 135.767 161.332C135.767 159.176 137.223 157.51 139.267 157.51C141.395 157.51 142.529 159.12 142.529 161.136V161.696H137.377C137.503 162.956 138.259 163.726 139.337 163.726C140.163 163.726 140.821 163.306 141.045 162.55L142.487 163.096C141.969 164.384 140.807 165.154 139.337 165.154ZM139.253 158.924C138.385 158.924 137.713 159.442 137.461 160.436H140.835C140.821 159.624 140.317 158.924 139.253 158.924ZM143.019 163.6L144.279 162.592C144.713 163.306 145.553 163.782 146.407 163.782C147.121 163.782 147.779 163.53 147.779 162.872C147.779 162.242 147.163 162.172 146.001 161.934C144.839 161.696 143.509 161.402 143.509 159.834C143.509 158.49 144.685 157.51 146.379 157.51C147.667 157.51 148.815 158.084 149.347 158.896L148.213 159.918C147.793 159.26 147.093 158.882 146.281 158.882C145.595 158.882 145.147 159.19 145.147 159.68C145.147 160.212 145.679 160.31 146.603 160.506C147.849 160.772 149.417 161.038 149.417 162.718C149.417 164.202 148.059 165.154 146.393 165.154C145.035 165.154 143.677 164.608 143.019 163.6ZM149.937 163.6L151.197 162.592C151.631 163.306 152.471 163.782 153.325 163.782C154.039 163.782 154.697 163.53 154.697 162.872C154.697 162.242 154.081 162.172 152.919 161.934C151.757 161.696 150.427 161.402 150.427 159.834C150.427 158.49 151.603 157.51 153.297 157.51C154.585 157.51 155.733 158.084 156.265 158.896L155.131 159.918C154.711 159.26 154.011 158.882 153.199 158.882C152.513 158.882 152.065 159.19 152.065 159.68C152.065 160.212 152.597 160.31 153.521 160.506C154.767 160.772 156.335 161.038 156.335 162.718C156.335 164.202 154.977 165.154 153.311 165.154C151.953 165.154 150.595 164.608 149.937 163.6ZM157.597 156.67V154.948H159.333V156.67H157.597ZM159.305 157.65V165H157.625V157.65H159.305ZM161.07 165V157.65H162.75V158.434C163.17 157.944 163.828 157.51 164.78 157.51C166.32 157.51 167.244 158.574 167.244 160.156V165H165.564V160.646C165.564 159.736 165.2 159.078 164.276 159.078C163.52 159.078 162.75 159.638 162.75 160.688V165H161.07ZM175.497 164.258C175.497 166.428 174.013 167.674 171.913 167.674C170.219 167.674 169.029 166.96 168.567 165.532L170.135 164.972C170.359 165.798 170.989 166.316 171.913 166.316C173.047 166.316 173.817 165.756 173.817 164.412V163.894C173.425 164.412 172.683 164.818 171.745 164.818C169.729 164.818 168.525 163.18 168.525 161.164C168.525 159.148 169.729 157.51 171.745 157.51C172.669 157.51 173.425 157.916 173.817 158.434V157.65H175.497V164.258ZM173.845 161.094C173.845 159.75 173.117 158.98 172.067 158.98C170.905 158.98 170.219 159.792 170.219 161.164C170.219 162.522 170.905 163.348 172.067 163.348C173.117 163.348 173.845 162.578 173.845 161.262V161.094ZM183.53 154.85C184.034 154.85 184.464 154.939 184.818 155.116C185.182 155.284 185.462 155.527 185.658 155.844C185.854 156.161 185.952 156.549 185.952 157.006C185.952 157.594 185.761 158.093 185.378 158.504C185.005 158.915 184.529 159.288 183.95 159.624L186.652 162.228C186.895 161.939 187.091 161.607 187.24 161.234C187.399 160.851 187.53 160.441 187.632 160.002H188.878C188.729 160.599 188.542 161.155 188.318 161.668C188.094 162.181 187.805 162.629 187.45 163.012L189.494 165H187.828L186.61 163.824C186.386 164.02 186.153 164.202 185.91 164.37C185.677 164.529 185.42 164.664 185.14 164.776C184.86 164.888 184.557 164.977 184.23 165.042C183.913 165.107 183.558 165.14 183.166 165.14C182.522 165.14 181.962 165.037 181.486 164.832C181.02 164.617 180.656 164.305 180.394 163.894C180.142 163.483 180.016 162.984 180.016 162.396C180.016 161.92 180.1 161.509 180.268 161.164C180.446 160.819 180.698 160.511 181.024 160.24C181.351 159.969 181.734 159.708 182.172 159.456C181.976 159.232 181.785 158.999 181.598 158.756C181.412 158.513 181.258 158.252 181.136 157.972C181.015 157.683 180.954 157.37 180.954 157.034C180.954 156.577 181.057 156.185 181.262 155.858C181.468 155.531 181.762 155.284 182.144 155.116C182.536 154.939 182.998 154.85 183.53 154.85ZM182.914 160.226C182.578 160.422 182.289 160.623 182.046 160.828C181.813 161.024 181.631 161.243 181.5 161.486C181.37 161.729 181.304 162.018 181.304 162.354C181.304 162.867 181.477 163.278 181.822 163.586C182.168 163.894 182.63 164.048 183.208 164.048C183.806 164.048 184.319 163.95 184.748 163.754C185.178 163.558 185.537 163.325 185.826 163.054L182.914 160.226ZM183.488 155.858C183.096 155.858 182.774 155.961 182.522 156.166C182.28 156.371 182.158 156.656 182.158 157.02C182.158 157.356 182.247 157.669 182.424 157.958C182.602 158.238 182.858 158.551 183.194 158.896C183.745 158.579 184.137 158.28 184.37 158C184.613 157.711 184.734 157.379 184.734 157.006C184.734 156.67 184.622 156.395 184.398 156.18C184.174 155.965 183.871 155.858 183.488 155.858ZM111.747 181.04L113.119 179.906C113.819 180.998 114.869 181.628 116.017 181.628C117.151 181.628 118.005 181.11 118.005 180.144C118.005 179.122 116.955 178.982 115.457 178.618C113.945 178.254 112.321 177.806 112.321 175.846C112.321 173.984 113.917 172.794 115.947 172.794C117.669 172.794 119.013 173.606 119.685 174.656L118.369 175.79C117.809 174.922 117.067 174.32 115.891 174.32C114.813 174.32 114.071 174.866 114.071 175.664C114.071 176.546 114.841 176.728 116.199 177.036C117.823 177.4 119.769 177.778 119.769 179.962C119.769 181.936 118.033 183.154 115.961 183.154C114.239 183.154 112.531 182.328 111.747 181.04ZM124.202 183.154C122.102 183.154 120.632 181.6 120.632 179.332C120.632 177.176 122.088 175.51 124.132 175.51C126.26 175.51 127.394 177.12 127.394 179.136V179.696H122.242C122.368 180.956 123.124 181.726 124.202 181.726C125.028 181.726 125.686 181.306 125.91 180.55L127.352 181.096C126.834 182.384 125.672 183.154 124.202 183.154ZM124.118 176.924C123.25 176.924 122.578 177.442 122.326 178.436H125.7C125.686 177.624 125.182 176.924 124.118 176.924ZM128.808 181.152V177.078H127.786V175.65H128.808V173.494H130.46V175.65H132V177.078H130.46V180.886C130.46 181.544 130.838 181.614 131.44 181.614C131.72 181.614 131.874 181.6 132.126 181.572V182.986C131.818 183.042 131.398 183.084 130.964 183.084C129.564 183.084 128.808 182.65 128.808 181.152ZM133.539 181.152V177.078H132.517V175.65H133.539V173.494H135.191V175.65H136.731V177.078H135.191V180.886C135.191 181.544 135.569 181.614 136.171 181.614C136.451 181.614 136.605 181.6 136.857 181.572V182.986C136.549 183.042 136.129 183.084 135.695 183.084C134.295 183.084 133.539 182.65 133.539 181.152ZM139.795 172.948V183H138.115V172.948H139.795ZM144.669 183.154C142.569 183.154 141.099 181.6 141.099 179.332C141.099 177.176 142.555 175.51 144.599 175.51C146.727 175.51 147.861 177.12 147.861 179.136V179.696H142.709C142.835 180.956 143.591 181.726 144.669 181.726C145.495 181.726 146.153 181.306 146.377 180.55L147.819 181.096C147.301 182.384 146.139 183.154 144.669 183.154ZM144.585 176.924C143.717 176.924 143.045 177.442 142.793 178.436H146.167C146.153 177.624 145.649 176.924 144.585 176.924ZM150.801 178.688V183H149.121V175.65H150.801V176.434C151.207 175.944 151.837 175.51 152.817 175.51C153.699 175.51 154.357 175.902 154.763 176.532C155.211 176.056 155.911 175.51 157.045 175.51C158.557 175.51 159.537 176.574 159.537 178.156V183H157.857V178.646C157.857 177.736 157.521 177.078 156.625 177.078C155.911 177.078 155.169 177.638 155.169 178.688V183H153.489V178.646C153.489 177.736 153.153 177.078 152.257 177.078C151.543 177.078 150.801 177.638 150.801 178.688ZM164.356 183.154C162.256 183.154 160.786 181.6 160.786 179.332C160.786 177.176 162.242 175.51 164.286 175.51C166.414 175.51 167.548 177.12 167.548 179.136V179.696H162.396C162.522 180.956 163.278 181.726 164.356 181.726C165.182 181.726 165.84 181.306 166.064 180.55L167.506 181.096C166.988 182.384 165.826 183.154 164.356 183.154ZM164.272 176.924C163.404 176.924 162.732 177.442 162.48 178.436H165.854C165.84 177.624 165.336 176.924 164.272 176.924ZM168.809 183V175.65H170.489V176.434C170.909 175.944 171.567 175.51 172.519 175.51C174.059 175.51 174.983 176.574 174.983 178.156V183H173.303V178.646C173.303 177.736 172.939 177.078 172.015 177.078C171.259 177.078 170.489 177.638 170.489 178.688V183H168.809ZM176.851 181.152V177.078H175.829V175.65H176.851V173.494H178.503V175.65H180.043V177.078H178.503V180.886C178.503 181.544 178.881 181.614 179.483 181.614C179.763 181.614 179.917 181.6 180.169 181.572V182.986C179.861 183.042 179.441 183.084 179.007 183.084C177.607 183.084 176.851 182.65 176.851 181.152Z" fill="#4D148C"/>
<circle cx="43" cy="114" r="27.5" stroke="#4D148C"/>
<rect x="26.75" y="102.75" width="32.1" height="22.5" rx="4.25" stroke="#FF5900" stroke-width="1.5"/>
<path d="M26.4844 109.678H58.6444" stroke="#FF5900" stroke-width="1.5"/>
<path d="M54.5815 115.439H41.8359" stroke="#FF5900" stroke-width="1.5"/>
<path d="M54.5815 119.279H41.8359" stroke="#FF5900" stroke-width="1.5"/>
<rect x="32.5078" y="114.27" width="5.22" height="5.22" rx="0.75" stroke="#FF5900" stroke-width="1.5"/>
</svg>
