<svg width="1080" height="1080" viewBox="0 0 1080 1080" fill="none" xmlns="http://www.w3.org/2000/svg">
<path fill-rule="evenodd" clip-rule="evenodd" d="M142.221 450.511L235.22 504.131L329.366 450.69L329.366 576.55L302.52 591.762L302.52 496.798L235.116 535.059L169.067 496.977L169.067 591.762L142.221 576.55L142.221 450.511Z" fill="#1D1D1D"/>
<path fill-rule="evenodd" clip-rule="evenodd" d="M177.073 564.124L235.147 597.75L294.513 563.664L294.513 595.538L235.147 629.489L177.073 595.939L177.073 564.124Z" fill="#FE6E00"/>
<path d="M478.518 548.554L464.972 548.554L464.972 504.317L447.163 548.554L441.29 548.554L423.482 504.317L423.482 548.554L410.03 548.554L410.03 485.371L428.881 485.371L444.227 523.546L459.572 485.371L478.518 485.371L478.518 548.554ZM521 549.691C501.96 549.691 488.035 536.05 488.035 517.01C488.035 497.97 501.96 484.329 521 484.329C540.135 484.329 554.06 497.97 554.06 517.01C554.06 536.05 540.135 549.691 521 549.691ZM521 537.755C532.651 537.755 540.229 528.756 540.229 517.01C540.229 505.169 532.651 496.265 521 496.265C509.348 496.265 501.865 505.169 501.865 517.01C501.865 528.756 509.348 537.755 521 537.755ZM620.051 548.554L607.073 548.554L576.95 507.348L576.95 548.554L563.499 548.554L563.499 485.371L577.329 485.371L606.6 525.062L606.6 485.371L620.051 485.371L620.051 548.554ZM677.22 548.554L632.509 548.554L632.509 485.371L677.22 485.371L677.22 497.212L645.96 497.212L645.96 510.569L676.557 510.569L676.557 522.41L645.96 522.41L645.96 536.713L677.22 536.713L677.22 548.554ZM718.806 548.554L705.355 548.554L705.355 522.694L681.01 485.371L696.356 485.371L712.08 510.758L727.615 485.371L742.961 485.371L718.806 522.694L718.806 548.554Z" fill="#1D1D1D"/>
<path d="M787.154 548.554L749.927 548.554L749.927 485.371L757.789 485.371L757.789 541.544L787.154 541.544L787.154 548.554ZM806.077 548.554L798.215 548.554L798.215 485.371L806.077 485.371L806.077 548.554ZM873.168 548.554L865.59 548.554L828.741 498.16L828.741 548.554L820.879 548.554L820.879 485.371L828.931 485.371L865.306 534.724L865.306 485.371L873.168 485.371L873.168 548.554ZM935.878 548.554L926.121 548.554L902.155 520.136L895.809 527.335L895.809 548.554L887.946 548.554L887.946 485.371L895.809 485.371L895.809 518.052L923.753 485.371L933.605 485.371L907.271 515.4L935.878 548.554Z" fill="#FE6E00"/>
</svg>
