<svg width="49" height="48" viewBox="0 0 49 48" fill="none" xmlns="http://www.w3.org/2000/svg">
<g clip-path="url(#clip0_2171_118)">
<path d="M24.5 48C37.7548 48 48.5 37.2548 48.5 24C48.5 10.7452 37.7548 0 24.5 0C11.2452 0 0.5 10.7452 0.5 24C0.5 37.2548 11.2452 48 24.5 48Z" fill="white"/>
<path d="M32.5625 18.3711H15C14.1716 18.3711 13.5 19.0427 13.5 19.8711V31.6836C13.5 32.512 14.1716 33.1836 15 33.1836H32.5625C33.3909 33.1836 34.0625 32.512 34.0625 31.6836V19.8711C34.0625 19.0427 33.3909 18.3711 32.5625 18.3711Z" stroke="#20336B"/>
<path d="M19.2344 18.3103L26.458 14.1718C26.7012 14.0325 27.0113 14.1202 27.1455 14.3662L27.8594 15.6749" stroke="#20336B"/>
<path d="M22.1094 18.3108L29.7873 14.9987C30.0443 14.8879 30.3422 15.0095 30.4481 15.2685L31.6927 18.3108" stroke="#20336B"/>
<mask id="mask0_2171_118" style="mask-type:luminance" maskUnits="userSpaceOnUse" x="26" y="23" width="11" height="6">
<path d="M26.4219 25.1426C26.4219 24.038 27.3173 23.1426 28.4219 23.1426H35.5052C35.7814 23.1426 36.0052 23.3664 36.0052 23.6426V27.9134C36.0052 28.1896 35.7814 28.4134 35.5052 28.4134H28.4219C27.3173 28.4134 26.4219 27.518 26.4219 26.4134V25.1426Z" fill="white"/>
</mask>
<g mask="url(#mask0_2171_118)">
<path d="M26.4219 25.1426C26.4219 24.038 27.3173 23.1426 28.4219 23.1426H35.5052C35.7814 23.1426 36.0052 23.3664 36.0052 23.6426V27.9134C36.0052 28.1896 35.7814 28.4134 35.5052 28.4134H28.4219C27.3173 28.4134 26.4219 27.518 26.4219 26.4134V25.1426Z" stroke="#20336B" stroke-width="2"/>
</g>
<path d="M30.374 25.7329C30.374 26.118 30.0236 26.4809 29.526 26.4809C29.0285 26.4809 28.6781 26.118 28.6781 25.7329C28.6781 25.3477 29.0285 24.9848 29.526 24.9848C30.0236 24.9848 30.374 25.3477 30.374 25.7329Z" stroke="#20336B" stroke-width="0.7"/>
<path d="M29.7573 16.4648H28.4406C28.2749 16.4648 28.1406 16.5991 28.1406 16.7648V17.0433C28.1406 17.209 28.2749 17.3433 28.4406 17.3433H29.7573C29.923 17.3433 30.0573 17.209 30.0573 17.0433V16.7648C30.0573 16.5991 29.923 16.4648 29.7573 16.4648Z" fill="#20336B"/>
<path d="M34.0781 21.8242H35.2156C35.3813 21.8242 35.5156 21.9585 35.5156 22.1242V23.5812" stroke="#20336B"/>
<path d="M20.1582 27.3696L20.1753 27.2986L20.5078 27.2535L20.4803 27.3696H20.1582Z" fill="#4ABCEB" stroke="#4ABCEB"/>
<path d="M23.8427 27.3616L23.9642 26.8177L24.2763 26.7838L24.1297 27.3616H23.8427Z" fill="#4ABCEB" stroke="#4ABCEB"/>
<path d="M15.875 27.8238L17.3304 27.373L17.2241 27.8613H15.875V27.8238Z" fill="#4ABCEB"/>
<mask id="mask1_2171_118" style="mask-type:luminance" maskUnits="userSpaceOnUse" x="15" y="27" width="3" height="1">
<path d="M15.875 27.8238L17.3304 27.373L17.2241 27.8613H15.875V27.8238Z" fill="white"/>
</mask>
<g mask="url(#mask1_2171_118)">
<path d="M15.875 27.8238L15.5792 26.8685L14.875 27.0866V27.8238H15.875ZM17.3304 27.373L18.3075 27.5858L18.6722 25.9107L17.0346 26.4178L17.3304 27.373ZM17.2241 27.8613V28.8613H18.0298L18.2012 28.074L17.2241 27.8613ZM15.875 27.8613H14.875V28.8613H15.875V27.8613ZM16.1708 28.779L17.6262 28.3283L17.0346 26.4178L15.5792 26.8685L16.1708 28.779ZM16.3533 27.1603L16.247 27.6486L18.2012 28.074L18.3075 27.5858L16.3533 27.1603ZM17.2241 26.8613H15.875V28.8613H17.2241V26.8613ZM16.875 27.8613V27.8238H14.875V27.8613H16.875Z" fill="#4ABCEB"/>
</g>
<mask id="mask2_2171_118" style="mask-type:luminance" maskUnits="userSpaceOnUse" x="15" y="22" width="11" height="6">
<path d="M24.9347 26.2217C24.4651 26.2673 24.0051 26.3151 23.5547 26.3652L23.9861 24.5058C24.0321 24.3224 24.0551 24.1567 24.0551 24.0087C24.0551 23.4802 23.7066 23.216 23.0096 23.216H21.9632L21.1619 26.6659C20.6774 26.7353 20.2121 26.8082 19.7661 26.8845L20.6177 23.216H18.6405C18.4032 23.216 18.2616 23.3217 18.2156 23.5329L17.3248 27.3944C16.776 27.5362 16.2896 27.6882 15.875 27.8497L16.9512 23.216C17.0276 22.8846 17.1577 22.6429 17.3416 22.4909C17.5255 22.3394 17.8128 22.2637 18.2035 22.2637H23.3656C24.0017 22.2637 24.5095 22.3801 24.889 22.613C25.2685 22.8453 25.4583 23.2049 25.4583 23.6918C25.4583 23.8962 25.4428 24.0582 25.4117 24.1778L24.9347 26.2217Z" fill="white"/>
</mask>
<g mask="url(#mask2_2171_118)">
<path d="M56.433 31.6314H14.4844V20.9121H56.433V31.6314Z" fill="#20336B"/>
</g>
</g>
<defs>
<clipPath id="clip0_2171_118">
<rect width="49" height="48" fill="white"/>
</clipPath>
</defs>
</svg>
