<svg width="48" height="31" viewBox="0 0 48 31" fill="none" xmlns="http://www.w3.org/2000/svg">
<path d="M37.5243 14.7515C37.5172 14.8004 37.5079 14.847 37.4985 14.8936L37.6579 14.8191L37.5243 14.7515ZM37.5243 14.7515C37.5172 14.8004 37.5079 14.847 37.4985 14.8936L37.6579 14.8191L37.5243 14.7515ZM37.5243 14.7515C37.5172 14.8004 37.5079 14.847 37.4985 14.8936L37.6579 14.8191L37.5243 14.7515ZM37.5243 14.7515C37.5172 14.8004 37.5079 14.847 37.4985 14.8936L37.6579 14.8191L37.5243 14.7515Z" fill="#C8D0DB"/>
<path d="M39.8386 11.0608C36.0759 11.0608 32.9391 13.7548 32.285 17.3033C32.2358 17.5711 32.2006 17.8435 32.1818 18.1206C32.1678 18.3046 32.1607 18.4908 32.1607 18.6771C32.1607 20.2884 32.6671 21.7856 33.5322 23.0196C33.6682 23.2152 33.8135 23.4038 33.9706 23.5854C35.3726 25.2386 37.4708 26.2934 39.8058 26.2957C44.0491 26.2981 47.4954 22.8939 47.5001 18.6957C47.5024 14.4836 44.0679 11.0608 39.8386 11.0608ZM42.0962 12.4718C44.368 13.3567 45.784 14.9842 46.3396 17.3429C46.3935 17.5734 46.4099 17.8133 46.4474 18.0484C46.4615 18.1392 46.4427 18.1742 46.3349 18.1718C45.09 18.1695 43.8428 18.1695 42.5979 18.1742C42.4901 18.1742 42.4807 18.1346 42.4784 18.0461C42.4432 16.8307 42.3283 15.6222 42.0681 14.4301C41.9134 13.7129 41.7071 13.0097 41.3882 12.3438C41.3765 12.3228 41.3671 12.2995 41.3507 12.2576C41.618 12.3042 41.8618 12.381 42.0962 12.4718ZM38.9313 13.4032C39.0181 13.1541 39.1236 12.9142 39.2502 12.6814C39.3299 12.537 39.419 12.3997 39.5268 12.2763C39.7612 12.0108 39.9042 12.0085 40.134 12.2786C40.481 12.6884 40.6615 13.1797 40.8186 13.678C41.1538 14.7304 41.3109 15.8155 41.3953 16.9145C41.4234 17.287 41.4328 17.6642 41.4609 18.0368C41.4679 18.1532 41.4281 18.1742 41.3203 18.1718C40.8209 18.1672 40.3192 18.1695 39.8198 18.1695C39.3205 18.1695 38.8188 18.1695 38.3194 18.1718C38.2374 18.1718 38.1952 18.1672 38.1999 18.0647C38.235 17.1077 38.3054 16.1531 38.4718 15.2147C38.5023 15.0331 38.5375 14.8515 38.5773 14.6699C38.6711 14.2438 38.7883 13.8223 38.9313 13.4032ZM33.2134 18.0345C33.2274 17.8948 33.2462 17.7551 33.2696 17.6177C33.3142 17.3266 33.3798 17.0379 33.4666 16.7585C33.5674 16.4232 33.6963 16.0972 33.8581 15.7805C34.7747 13.9877 36.2142 12.8211 38.1671 12.2856C38.2069 12.2739 38.2468 12.2576 38.303 12.2739C37.9326 13.047 37.7005 13.8503 37.5388 14.6699C37.5341 14.6978 37.5294 14.7258 37.5223 14.7514L37.656 14.8189L37.4966 14.8934C37.4473 15.1682 37.4051 15.4453 37.3676 15.7247C37.3536 15.8062 37.3442 15.89 37.3325 15.9738C37.2457 16.6654 37.1988 17.3615 37.1801 18.0577C37.1777 18.1486 37.1543 18.1718 37.0652 18.1718C35.8203 18.1695 34.5731 18.1672 33.3282 18.1742C33.2063 18.1742 33.204 18.1253 33.2134 18.0345ZM38.289 25.0943C38.0405 25.05 37.7966 24.9755 37.5622 24.8824C36.4932 24.4586 35.614 23.8788 34.9271 23.143C34.7607 22.9684 34.6083 22.7821 34.4653 22.5865C33.8651 21.7693 33.4619 20.7913 33.2532 19.6551C33.2345 19.5456 33.2321 19.4338 33.2134 19.3244C33.1946 19.215 33.2251 19.1824 33.3423 19.1824C33.7995 19.1894 34.2566 19.187 34.7138 19.187C35.4804 19.187 36.2493 19.1894 37.0136 19.1824C37.1426 19.1824 37.1801 19.208 37.1824 19.343C37.2012 19.988 37.2434 20.6283 37.3184 21.2663C37.3442 21.5085 37.377 21.7506 37.4145 21.9928C37.5059 22.5656 37.6255 23.1314 37.7826 23.6949C37.9068 24.1419 38.0639 24.5773 38.2655 24.9988C38.2772 25.0244 38.3077 25.0477 38.289 25.0943ZM40.1832 25.0174C40.1434 25.0686 40.1012 25.1152 40.0566 25.1595C39.8878 25.3201 39.7706 25.3224 39.6042 25.1595C39.3205 24.8824 39.1587 24.5308 39.0157 24.1722C38.6922 23.3619 38.5211 22.5144 38.3945 21.6575C38.3898 21.6202 38.3851 21.5853 38.3804 21.5481C38.3523 21.3525 38.3288 21.1569 38.3077 20.9613C38.2515 20.4164 38.2186 19.8693 38.1999 19.3198C38.1952 19.2057 38.2257 19.1824 38.3359 19.1824C38.8376 19.1894 39.3369 19.187 39.8386 19.187C40.338 19.187 40.8397 19.187 41.339 19.1847C41.4164 19.1847 41.4656 19.1847 41.4609 19.2895C41.4 20.8705 41.2499 22.4398 40.7271 23.951C40.5958 24.3305 40.4364 24.6984 40.1832 25.0174ZM45.5097 22.1046C44.5625 23.6134 43.2239 24.6076 41.4914 25.071C41.4492 25.0803 41.4117 25.1012 41.3554 25.0803C41.9204 23.9021 42.1642 22.6541 42.326 21.3827C42.4127 20.6912 42.4596 19.995 42.4784 19.2965C42.4807 19.208 42.5065 19.1847 42.5956 19.1847C43.8405 19.187 45.0853 19.1894 46.3326 19.1824C46.5295 19.1824 46.4451 19.3128 46.4381 19.385C46.3302 20.3582 46.0301 21.271 45.5097 22.1046Z" fill="#C8D0DB"/>
<path d="M6.26427 10.4597C5.17646 9.95481 4.08865 9.44996 3.00089 8.94496C3.1184 8.88564 3.23569 8.82641 3.35279 8.76729C4.34054 8.26855 5.31501 7.77652 6.29224 7.28599C7.58072 6.6396 8.87012 5.99387 10.1598 5.34799C12.9981 3.92661 15.8379 2.50448 18.6724 1.07283C19.47 0.670123 20.1646 0.636726 20.9157 1.01501L20.9163 1.01532C24.9502 3.04225 28.9868 5.06556 33.0227 7.08857C34.2593 7.70843 35.4959 8.32827 36.7323 8.94817C35.4072 9.56078 34.1024 10.1642 32.8072 10.7632C31.6095 11.3171 30.4201 11.8672 29.2304 12.4172L29.23 12.4174C28.7928 12.6199 28.3556 12.8223 27.9184 13.0248C25.3292 14.2236 22.7392 15.4228 20.1527 16.6305C19.9705 16.7155 19.8984 16.7411 19.8476 16.7493C19.8306 16.752 19.8208 16.7516 19.812 16.7504C19.8027 16.7491 19.7796 16.7446 19.7389 16.7258C15.2502 14.63 10.7573 12.5448 6.26427 10.4597Z" stroke="#C8D0DB" stroke-width="1.5"/>
<path d="M29.3963 18.6395L28.4327 19.0843C25.7273 20.3369 23.0219 21.5896 20.3188 22.8517C19.9742 23.0123 19.8194 23.0635 19.5709 22.9471C15.1752 20.8934 10.7021 18.8188 6.37438 16.8094L2.08181 14.8162L2.37252 14.6696H1.02215C1.01043 14.6998 1.00339 14.7324 1.00105 14.7674C0.991671 14.8884 1.04559 15.0072 1.1464 15.077C1.20032 15.1166 1.24252 15.1469 1.27768 15.1748C1.3527 15.2307 1.41601 15.2796 1.5004 15.3169L6.07664 17.4427C10.4044 19.4498 14.8751 21.5268 19.2708 23.5781C19.4725 23.6736 19.6577 23.7085 19.8265 23.7085C20.1359 23.7085 20.3938 23.5874 20.6189 23.4827C23.3196 22.223 26.025 20.9703 28.7304 19.7176L29.6917 19.2729C30.5192 18.8887 31.3491 18.5045 32.1814 18.1203C32.2001 17.8432 32.2353 17.5708 32.2845 17.303C31.3187 17.7501 30.3575 18.1948 29.3963 18.6395Z" fill="#C8D0DB" stroke="#C8D0DB" stroke-miterlimit="10"/>
<path d="M33.5317 23.0194C32.1439 23.6598 30.7701 24.2954 29.3963 24.9311L28.4327 25.3758C25.7273 26.6285 23.0219 27.8812 20.3188 29.1432C19.9742 29.3039 19.8194 29.3551 19.5709 29.2387C15.1752 27.185 10.7021 25.1104 6.37438 23.1009L2.08181 21.1078L2.37252 20.9611H1.02215C1.01043 20.9914 1.00339 21.024 1.00105 21.0589C0.991671 21.18 1.04559 21.2987 1.1464 21.3686C1.20032 21.4082 1.24252 21.4384 1.27768 21.4664C1.3527 21.5223 1.41601 21.5712 1.5004 21.6084L6.07664 23.7343C10.4044 25.7414 14.8751 27.8183 19.2708 29.8697C19.4725 29.9651 19.6577 30.0001 19.8265 30.0001C20.1359 30.0001 20.3938 29.879 20.6189 29.7742C23.3196 28.5145 26.025 27.2618 28.7304 26.0091L29.6916 25.5644C31.1123 24.9055 32.5354 24.2489 33.9701 23.5852C33.8131 23.4036 33.6677 23.215 33.5317 23.0194Z" fill="#C8D0DB" stroke="#C8D0DB" stroke-miterlimit="10"/>
</svg>
