<svg width="604" height="84" viewBox="0 0 604 84" fill="none" xmlns="http://www.w3.org/2000/svg">
<g clip-path="url(#clip0_3458_8651)">
<rect x="0.5" y="36.5" width="463" height="47" stroke="#C8D0DB"/>
</g>
<rect x="0.5" y="0.5" width="463" height="83" stroke="#C8D0DB"/>
<circle cx="564" cy="42" r="39.5" stroke="#C8D0DB"/>
<path d="M570.051 41.5371C570.552 41.5433 571.049 41.4492 571.512 41.2603C571.976 41.0714 572.397 40.7915 572.751 40.4371L576.289 36.8996C576.521 36.6654 576.652 36.3486 576.652 36.0184C576.652 35.6882 576.521 35.3713 576.289 35.1371C576.172 35.02 576.034 34.927 575.882 34.8635C575.729 34.8001 575.566 34.7674 575.401 34.7674C575.236 34.7674 575.073 34.8001 574.92 34.8635C574.768 34.927 574.63 35.02 574.514 35.1371L570.939 38.6621C570.822 38.7793 570.684 38.8723 570.532 38.9358C570.379 38.9992 570.216 39.0319 570.051 39.0319C569.886 39.0319 569.723 38.9992 569.57 38.9358C569.418 38.8723 569.28 38.7793 569.164 38.6621L573.589 34.2496C573.705 34.1331 573.798 33.9947 573.861 33.8425C573.924 33.6902 573.956 33.527 573.956 33.3621C573.956 33.1973 573.924 33.0341 573.861 32.8818C573.798 32.7296 573.705 32.5912 573.589 32.4746C573.472 32.3581 573.334 32.2656 573.181 32.2026C573.029 32.1395 572.866 32.107 572.701 32.107C572.536 32.107 572.373 32.1395 572.221 32.2026C572.068 32.2656 571.93 32.3581 571.814 32.4746L567.401 36.8996C567.168 36.6654 567.038 36.3486 567.038 36.0184C567.038 35.6882 567.168 35.3713 567.401 35.1371L570.939 31.5996C571.055 31.4831 571.148 31.3447 571.211 31.1925C571.274 31.0402 571.306 30.877 571.306 30.7121C571.306 30.5473 571.274 30.3841 571.211 30.2318C571.148 30.0796 571.055 29.9412 570.939 29.8246C570.822 29.7081 570.684 29.6156 570.531 29.5526C570.379 29.4895 570.216 29.457 570.051 29.457C569.886 29.457 569.723 29.4895 569.571 29.5526C569.418 29.6156 569.28 29.7081 569.164 29.8246L565.626 33.3621C564.924 34.0653 564.529 35.0184 564.529 36.0121C564.529 37.0059 564.924 37.959 565.626 38.6621L564.001 40.2746L553.664 29.8996L553.539 29.8246C553.475 29.7689 553.403 29.7226 553.326 29.6871L553.101 29.5996L552.951 29.4996H552.614C552.539 29.4877 552.463 29.4877 552.389 29.4996C552.313 29.5272 552.241 29.565 552.176 29.6121L551.976 29.7371H551.889L551.814 29.8621C551.761 29.9281 551.715 29.9993 551.676 30.0746C551.639 30.1509 551.61 30.2304 551.589 30.3121C551.589 30.3121 551.589 30.3996 551.589 30.4496C551.285 32.5639 551.479 34.7198 552.153 36.7463C552.828 38.7728 553.966 40.6143 555.476 42.1246L558.776 45.4121L552.014 52.1621C551.896 52.2783 551.803 52.4166 551.74 52.5689C551.677 52.7212 551.644 52.8846 551.644 53.0496C551.644 53.2147 551.677 53.378 551.74 53.5304C551.803 53.6827 551.896 53.8209 552.014 53.9371C552.13 54.053 552.269 54.1447 552.421 54.2069C552.573 54.2691 552.737 54.3006 552.901 54.2996C553.066 54.3006 553.229 54.2691 553.381 54.2069C553.533 54.1447 553.672 54.053 553.789 53.9371L561.376 46.4621L564.914 42.9246L567.414 40.4246C568.111 41.1296 569.059 41.5297 570.051 41.5371ZM560.489 43.8121L557.201 40.5121C555.399 38.6856 554.271 36.3012 554.001 33.7496L562.264 41.9996L560.489 43.8121ZM568.289 44.5246C568.053 44.2876 567.733 44.1538 567.399 44.1526C567.065 44.1514 566.744 44.283 566.507 44.5184C566.27 44.7538 566.136 45.0737 566.135 45.4077C566.134 45.7418 566.266 46.0626 566.501 46.2996L574.376 54.1746C574.615 54.3919 574.928 54.5084 575.251 54.4996C575.416 54.5006 575.579 54.4691 575.731 54.4069C575.883 54.3447 576.022 54.253 576.139 54.1371C576.256 54.0209 576.349 53.8827 576.412 53.7304C576.476 53.578 576.508 53.4147 576.508 53.2496C576.508 53.0846 576.476 52.9212 576.412 52.7689C576.349 52.6166 576.256 52.4784 576.139 52.3621L568.289 44.5246Z" fill="#C8D0DB"/>
<defs>
<clipPath id="clip0_3458_8651">
<rect width="464" height="84" fill="white"/>
</clipPath>
</defs>
</svg>
