<svg width="48" height="48" viewBox="0 0 48 48" fill="none" xmlns="http://www.w3.org/2000/svg">
<rect x="0.5" y="0.5" width="47" height="47" rx="23.5" stroke="#D3D3D3"/>
<path d="M20.9378 31C20.8178 31 20.5978 30.98 20.2778 30.94C19.9578 30.9 19.5978 30.8533 19.1978 30.8C18.7978 30.7333 18.4045 30.66 18.0178 30.58C17.6445 30.5 17.3378 30.4267 17.0978 30.36C17.0978 30.2133 17.1111 30.0667 17.1378 29.92C17.1778 29.7733 17.2178 29.6667 17.2578 29.6L17.7978 29.52C17.9711 29.4933 18.1178 29.38 18.2378 29.18C18.3578 28.98 18.4445 28.7133 18.4978 28.38C18.5511 28.0333 18.5778 27.64 18.5778 27.2V19.74C18.5778 19.3 18.6178 18.9667 18.6978 18.74C18.7778 18.5 18.8511 18.3533 18.9178 18.3H17.3178C17.2645 18.2333 17.2111 18.1267 17.1578 17.98C17.1178 17.8333 17.0911 17.68 17.0778 17.52C17.1578 17.4267 17.2778 17.34 17.4378 17.26C17.6111 17.1667 17.7778 17.0867 17.9378 17.02C18.1111 16.9533 18.2311 16.92 18.2978 16.92H22.7978L28.7378 27.18C28.6845 26.9133 28.6378 26.6133 28.5978 26.28C28.5711 25.9333 28.5578 25.42 28.5578 24.74V19.76C28.5578 19.3067 28.5911 18.9533 28.6578 18.7C28.7378 18.4467 28.8178 18.2933 28.8978 18.24H26.8978C26.8578 18.1733 26.8111 18.0733 26.7578 17.94C26.7045 17.7933 26.6778 17.6333 26.6778 17.46C26.7311 17.38 26.8378 17.3 26.9978 17.22C27.1578 17.1267 27.3245 17.0533 27.4978 17C27.6711 16.9467 27.7978 16.92 27.8778 16.92H31.6178C31.6845 17 31.7445 17.14 31.7978 17.34C31.8511 17.5267 31.8778 17.7333 31.8778 17.96L31.2378 18.16C31.0111 18.2267 30.8245 18.3067 30.6778 18.4C30.5445 18.48 30.4445 18.64 30.3778 18.88C30.3111 19.12 30.2778 19.4933 30.2778 20V27.54C30.2778 28.2867 30.3045 28.8933 30.3578 29.36C30.4111 29.8133 30.4645 30.1067 30.5178 30.24C30.2778 30.4267 29.9311 30.58 29.4778 30.7C29.0378 30.8067 28.5845 30.8867 28.1178 30.94C27.6511 30.98 27.2578 31 26.9378 31L21.4378 21.46C21.1045 20.86 20.8645 20.3867 20.7178 20.04C20.5711 19.68 20.4911 19.4333 20.4778 19.3H20.3778C20.3645 19.42 20.3445 19.6 20.3178 19.84C20.3045 20.0667 20.2978 20.38 20.2978 20.78V27.94C20.2978 28.2067 20.2645 28.4733 20.1978 28.74C20.1445 29.0067 20.0778 29.2067 19.9978 29.34L22.6378 29.62C22.6511 29.66 22.6778 29.7533 22.7178 29.9C22.7711 30.0333 22.7978 30.1867 22.7978 30.36C22.6645 30.4667 22.4778 30.5733 22.2378 30.68C22.0111 30.7733 21.7778 30.8533 21.5378 30.92C21.2978 30.9733 21.0978 31 20.9378 31Z" fill="#D3D3D3"/>
</svg>
