<svg width="34" height="36" viewBox="0 0 34 36" fill="none" xmlns="http://www.w3.org/2000/svg">
<path d="M1.50516 13.6232C1.27501 14.8855 1.20969 16.179 1.3108 17.4681L4.23798 17.243C4.15643 16.2015 4.20899 15.1575 4.39454 14.1397L1.50516 13.6232ZM4.72085 12.7957C5.02498 11.801 5.45682 10.849 6.00577 9.96313L3.50315 8.4424C2.82243 9.54061 2.28705 10.7209 1.91018 11.9543L4.72085 12.7957ZM10.194 5.866C11.0956 5.33403 12.0629 4.91977 13.0718 4.63351L12.2633 1.83824C11.0109 2.19364 9.81026 2.70791 8.69112 3.36825L10.194 5.866ZM21.9172 5.4265L23.2254 2.82339C22.0597 2.24887 20.824 1.82563 19.549 1.56413L18.9539 4.41132C19.9816 4.62213 20.9776 4.96334 21.9172 5.4265ZM15.1397 1.3118C14.7423 1.34623 14.3428 1.39642 13.9524 1.46102L14.4354 4.32881C14.7538 4.2764 15.0741 4.2362 15.3956 4.2083C16.1214 4.14542 16.8539 4.1458 17.573 4.20959L17.8347 1.31359C16.9382 1.23468 16.0363 1.23408 15.1397 1.3118ZM4.49067 7.0347L6.80344 8.82597C7.45064 8.00637 8.20104 7.27211 9.03639 6.64107L7.25592 4.32913C6.22152 5.11062 5.29224 6.01985 4.49067 7.0347ZM18.8376 24.9819L13.8308 29.8134C13.5986 30.0377 13.6275 30.3658 13.8956 30.5466L19.6736 34.4438C19.9417 34.6247 20.136 34.5117 20.1078 34.1918L19.8244 30.984C19.8876 30.9698 19.9508 30.9552 20.0138 30.94C20.0448 30.9326 20.076 30.9258 20.1068 30.9183C20.334 30.8629 20.56 30.8024 20.7844 30.7366C20.8054 30.7306 20.8262 30.7237 20.8474 30.7177C21.0957 30.6439 21.3426 30.5656 21.5867 30.4793L21.5857 30.4765C22.1336 30.2821 22.6647 30.0553 23.1802 29.8031L23.1836 29.8098C24.3513 29.2394 25.44 28.5225 26.4229 27.6769L26.4163 27.6694C26.8523 27.2939 27.2678 26.8963 27.6576 26.4756L27.6637 26.4813C28.543 25.532 29.2962 24.4753 29.9051 23.337L29.896 23.3321C30.1668 22.8274 30.4083 22.3077 30.6193 21.7757L30.6264 21.7785C31.0068 20.8154 31.2833 19.8152 31.4555 18.7966L31.4624 18.7551C31.5019 18.5173 31.5374 18.279 31.5652 18.0394L31.5642 18.0394C31.63 17.4764 31.66 16.9046 31.6605 16.3271L31.6644 16.3272C31.6642 16.1512 31.6609 15.9753 31.6545 15.7995C31.6532 15.7594 31.6504 15.7193 31.6489 15.6794C31.6405 15.4876 31.6284 15.2959 31.6128 15.1045C31.6097 15.0674 31.6092 15.0306 31.6059 14.9936C31.6042 14.9737 31.6011 14.9542 31.5993 14.9343C31.5808 14.7337 31.5581 14.5343 31.5318 14.3358C31.5223 14.2645 31.5113 14.1934 31.5009 14.1221C31.4787 13.9711 31.4542 13.8209 31.4274 13.671C31.4157 13.6055 31.4052 13.5399 31.3926 13.4746C31.3558 13.2827 31.3148 13.0919 31.2705 12.9021C31.2533 12.8279 31.2346 12.754 31.2163 12.6803C31.2023 12.6241 31.1896 12.5674 31.1751 12.5115L31.1718 12.5123C31.0276 11.9581 30.8514 11.4124 30.6443 10.8781L30.6448 10.8778C30.6425 10.8718 30.6398 10.8656 30.6373 10.8596C30.5926 10.7452 30.5454 10.6318 30.4979 10.5185C30.471 10.4543 30.4432 10.3902 30.4153 10.3264C30.2442 9.93371 30.0559 9.54856 29.851 9.17205C29.8325 9.13805 29.8138 9.10406 29.7949 9.07028C29.5811 8.68416 29.3501 8.30764 29.1026 7.94183C29.0745 7.90026 29.0459 7.859 29.0175 7.81764C28.9423 7.70803 28.8656 7.5994 28.7876 7.49179L28.7849 7.49354C28.4463 7.03003 28.0812 6.58601 27.6915 6.16362L27.6939 6.16151C27.6426 6.10599 27.5897 6.0522 27.5375 5.9974C27.4875 5.94476 27.438 5.89144 27.3872 5.83956C27.2443 5.69381 27.0985 5.55088 26.9499 5.41086C26.9098 5.37306 26.8692 5.33633 26.8288 5.29895C26.689 5.16993 26.5469 5.0435 26.4025 4.91971C26.3837 4.90366 26.3661 4.88668 26.3473 4.87057C26.3432 4.86724 26.3388 4.8645 26.3348 4.86116C25.8263 4.4309 25.2899 4.03408 24.7291 3.67323L23.1312 6.11234C23.6073 6.41861 24.0612 6.75727 24.4899 7.12588C24.6441 7.25799 24.7951 7.39379 24.9426 7.53316C24.9814 7.56986 25.0186 7.60791 25.0568 7.6451C25.1957 7.77975 25.3313 7.91762 25.4636 8.05859C25.8031 8.42068 26.1196 8.7995 26.4095 9.19584L26.4091 9.19606C26.4668 9.27493 26.5224 9.35513 26.5782 9.43531C26.6706 9.56789 26.7605 9.70223 26.8476 9.83825C26.8595 9.85687 26.8706 9.876 26.8825 9.89481C26.9925 10.0698 27.0979 10.2477 27.1986 10.4282C27.2273 10.4796 27.2558 10.531 27.2838 10.5827C27.3313 10.6701 27.3777 10.7581 27.4231 10.8467C27.4635 10.9261 27.5018 11.0066 27.5403 11.0868C27.6329 11.2793 27.7203 11.4741 27.8024 11.6712C27.8328 11.7442 27.8633 11.8173 27.8924 11.891C28.0849 12.3818 28.2449 12.8844 28.3712 13.3958C28.3837 13.4467 28.3965 13.4975 28.4084 13.5487C28.4452 13.7066 28.4794 13.8655 28.5101 14.0253C28.5192 14.0732 28.5269 14.1211 28.5356 14.1692C28.5581 14.2955 28.5787 14.4219 28.5974 14.549C28.6053 14.6037 28.6137 14.6582 28.6211 14.7131C28.6427 14.8754 28.661 15.0381 28.6762 15.2011C28.6803 15.2447 28.6832 15.2885 28.6867 15.3322C28.6996 15.49 28.7094 15.6478 28.7163 15.8057C28.7176 15.8354 28.7196 15.8652 28.7206 15.8947C28.7992 18.1586 28.2386 20.3153 27.1918 22.182C27.1886 22.1878 27.1852 22.1934 27.1819 22.199C26.9001 22.6996 26.5831 23.1799 26.2334 23.6366C26.2269 23.6448 26.2205 23.6534 26.214 23.6617C24.7756 25.5291 22.798 26.9819 20.4894 27.7763C20.3189 27.8346 20.1476 27.891 19.9742 27.9418L19.9689 27.9434C19.8359 27.9826 19.7008 28.0167 19.566 28.0515L19.31 25.1547C19.2811 24.8356 19.07 24.758 18.8376 24.9819Z" fill="#20336B"/>
<path d="M20.504 21.2882C20.4035 21.2882 20.3043 21.265 20.2144 21.2205C20.1244 21.176 20.0462 21.1113 19.9859 21.0317L13.381 12.311V20.6469C13.381 21.001 13.0911 21.2882 12.7335 21.2882C12.3758 21.2882 12.0859 21.001 12.0859 20.6469V10.3873C12.0859 10.2527 12.1287 10.1216 12.2082 10.0124C12.2876 9.90321 12.3998 9.82156 12.5287 9.779C12.6576 9.73644 12.7968 9.73513 12.9265 9.77526C13.0563 9.81539 13.17 9.89492 13.2515 10.0026L19.8564 18.7233V10.3873C19.8564 10.0332 20.1463 9.74609 20.5039 9.74609C20.8615 9.74609 21.1514 10.0332 21.1514 10.3873V20.6469C21.1515 20.7311 21.1347 20.8145 21.1022 20.8923C21.0697 20.9701 21.022 21.0408 20.9619 21.1004C20.9018 21.1599 20.8304 21.2071 20.7518 21.2394C20.6733 21.2716 20.5891 21.2882 20.504 21.2882Z" fill="#00BAF2"/>
<path d="M22.1205 14.8801H11.1124C10.7547 14.8801 10.4648 14.593 10.4648 14.2389C10.4648 13.8847 10.7547 13.5977 11.1124 13.5977H22.1205C22.4781 13.5977 22.768 13.8847 22.768 14.2389C22.768 14.593 22.4781 14.8801 22.1205 14.8801ZM22.1205 17.445H11.1124C10.7547 17.445 10.4648 17.1579 10.4648 16.8038C10.4648 16.4497 10.7547 16.1626 11.1124 16.1626H22.1205C22.4781 16.1626 22.768 16.4497 22.768 16.8038C22.768 17.1579 22.4781 17.445 22.1205 17.445Z" fill="#00BAF2"/>
</svg>
