<svg width="48" height="48" viewBox="0 0 48 48" fill="none" xmlns="http://www.w3.org/2000/svg">
<rect x="0.5" y="0.5" width="47" height="47" rx="23.5" stroke="#D3D3D3"/>
<path d="M23.6209 31C23.0609 31 22.4943 30.9067 21.9209 30.72C21.3609 30.52 20.8343 30.2867 20.3409 30.02C19.8609 29.74 19.4543 29.4733 19.1209 29.22C18.7876 28.9667 18.5676 28.7867 18.4609 28.68C18.1676 28.1467 17.9476 27.48 17.8009 26.68C17.6676 25.88 17.6009 25.0867 17.6009 24.3C17.6009 23.6333 17.6343 22.98 17.7009 22.34C17.7809 21.6867 17.8809 21.0733 18.0009 20.5C18.1209 19.9267 18.2476 19.4267 18.3809 19C18.8076 18.6667 19.3076 18.36 19.8809 18.08C20.4543 17.7867 21.0543 17.5267 21.6809 17.3C22.3209 17.0733 22.9343 16.9 23.5209 16.78C24.1076 16.66 24.6143 16.6 25.0409 16.6C25.4143 16.6 25.8143 16.6533 26.2409 16.76C26.6676 16.8533 27.0876 16.9867 27.5009 17.16C27.9143 17.32 28.2743 17.4933 28.5809 17.68C28.8876 17.8667 29.1143 18.0533 29.2609 18.24C29.5009 18.6667 29.7009 19.1933 29.8609 19.82C30.0343 20.4467 30.1676 21.1 30.2609 21.78C30.3543 22.46 30.4009 23.1067 30.4009 23.72C30.4009 24.3333 30.3609 24.9467 30.2809 25.56C30.2143 26.1733 30.1076 26.78 29.9609 27.38C29.8276 27.98 29.6609 28.5867 29.4609 29.2C29.0609 29.5067 28.5209 29.8 27.8409 30.08C27.1743 30.36 26.4676 30.5867 25.7209 30.76C24.9743 30.92 24.2743 31 23.6209 31ZM24.1009 29.14C24.1943 29.14 24.3743 29.1267 24.6409 29.1C24.9076 29.0733 25.1876 29.0333 25.4809 28.98C25.7743 28.9133 26.0076 28.8467 26.1809 28.78C26.3276 28.4067 26.4409 27.96 26.5209 27.44C26.6009 26.92 26.6543 26.3667 26.6809 25.78C26.7076 25.1933 26.7209 24.62 26.7209 24.06C26.7209 23.1933 26.6943 22.3533 26.6409 21.54C26.5876 20.7267 26.5143 20.08 26.4209 19.6C26.3143 19.4667 26.1609 19.3467 25.9609 19.24C25.7743 19.12 25.5676 19.02 25.3409 18.94C25.1276 18.8467 24.9276 18.7733 24.7409 18.72C24.5676 18.6667 24.4276 18.64 24.3209 18.64C24.1743 18.64 23.9409 18.6533 23.6209 18.68C23.3009 18.6933 22.9676 18.72 22.6209 18.76C22.2876 18.7867 22.0009 18.8267 21.7609 18.88C21.6276 19.2 21.5143 19.58 21.4209 20.02C21.3276 20.46 21.2543 20.96 21.2009 21.52C21.1609 22.0667 21.1409 22.6533 21.1409 23.28C21.1409 24.1733 21.1943 25.0667 21.3009 25.96C21.4209 26.84 21.5876 27.56 21.8009 28.12C21.8676 28.24 22.0076 28.36 22.2209 28.48C22.4476 28.5867 22.6943 28.6933 22.9609 28.8C23.2276 28.8933 23.4676 28.9733 23.6809 29.04C23.9076 29.1067 24.0476 29.14 24.1009 29.14Z" fill="#D3D3D3"/>
</svg>
