<svg width="35" height="35" viewBox="0 0 35 35" fill="none" xmlns="http://www.w3.org/2000/svg">
<path d="M1.28125 33.7475L2.24776 30.957L2.94391 29.6277C2.99731 29.5259 3.14731 29.457 3.31633 29.457H17.6792C17.8482 29.457 19.4978 29.4627 19.4978 29.4627" stroke="#C8D0DB" stroke-linecap="round" stroke-linejoin="round"/>
<path fill-rule="evenodd" clip-rule="evenodd" d="M5.25 13.625H14.25V29.465H5.25V13.625Z" stroke="#C8D0DB" stroke-linecap="round" stroke-linejoin="round"/>
<path d="M23.25 33.7812H0.75" stroke="#C8D0DB" stroke-linecap="round" stroke-linejoin="round"/>
<path d="M9.75781 13.625V29.465" stroke="#C8D0DB" stroke-linecap="round" stroke-linejoin="round"/>
<path d="M14.2578 13.625V29.465" stroke="#C8D0DB" stroke-linecap="round" stroke-linejoin="round"/>
<path d="M21.7578 13.625V21.125" stroke="#C8D0DB" stroke-linecap="round" stroke-linejoin="round"/>
<path d="M26.2578 13.625V18.7497" stroke="#C8D0DB" stroke-linecap="round" stroke-linejoin="round"/>
<path d="M30 14.5586V19.8085" stroke="#C8D0DB" stroke-linecap="round" stroke-linejoin="round"/>
<path fill-rule="evenodd" clip-rule="evenodd" d="M33.559 9.86353C33.6719 9.53812 33.53 9.18142 33.22 9.01105L18.376 0.862087C18.1439 0.733471 17.858 0.733471 17.626 0.862087L2.77598 9.00529C2.4659 9.17566 2.32405 9.53236 2.43698 9.85777L3.58298 13.1309C3.68495 13.4248 3.9713 13.6231 4.29398 13.6234H31.714C32.0366 13.6231 32.323 13.4248 32.425 13.1309L33.559 9.86353Z" stroke="#C8D0DB" stroke-linecap="round" stroke-linejoin="round"/>
<path d="M33.4987 9.30469H2.49219" stroke="#C8D0DB" stroke-linecap="round" stroke-linejoin="round"/>
</svg>
