<svg width="24" height="24" viewBox="0 0 24 24" fill="none" xmlns="http://www.w3.org/2000/svg">
<path d="M2.50781 19.1097V11.4297" stroke="#FF5900" stroke-linecap="round" stroke-linejoin="round"/>
<path d="M1.50781 19.1113H6.50781" stroke="#FF5900" stroke-linecap="round" stroke-linejoin="round"/>
<path d="M0.507812 22.9512H23.5078" stroke="#FF5900" stroke-linecap="round" stroke-linejoin="round"/>
<path d="M0.507812 21.0312H23.5078" stroke="#FF5900" stroke-linecap="round" stroke-linejoin="round"/>
<path d="M1.50781 11.4297H6.50781" stroke="#FF5900" stroke-linecap="round" stroke-linejoin="round"/>
<path d="M9.50781 19.1113H14.5078" stroke="#FF5900" stroke-linecap="round" stroke-linejoin="round"/>
<path d="M9.50781 11.4297H14.5078" stroke="#FF5900" stroke-linecap="round" stroke-linejoin="round"/>
<path d="M5.50781 19.1097V11.4297" stroke="#FF5900" stroke-linecap="round" stroke-linejoin="round"/>
<path d="M10.5078 19.1097V11.4297" stroke="#FF5900" stroke-linecap="round" stroke-linejoin="round"/>
<path d="M13.5078 19.1097V11.4297" stroke="#FF5900" stroke-linecap="round" stroke-linejoin="round"/>
<path d="M17.5078 19.1113H22.5078" stroke="#FF5900" stroke-linecap="round" stroke-linejoin="round"/>
<path d="M17.5078 11.4297H22.5078" stroke="#FF5900" stroke-linecap="round" stroke-linejoin="round"/>
<path d="M18.5078 19.1097V11.4297" stroke="#FF5900" stroke-linecap="round" stroke-linejoin="round"/>
<path d="M21.5078 19.1097V11.4297" stroke="#FF5900" stroke-linecap="round" stroke-linejoin="round"/>
<path fill-rule="evenodd" clip-rule="evenodd" d="M1.65442 8.65132C1.48553 8.77715 1.41866 8.99213 1.48802 9.18626C1.55739 9.38039 1.74764 9.5107 1.96142 9.51052H22.0614C22.275 9.511 22.4654 9.38114 22.5351 9.18733C22.6049 8.99351 22.5387 8.77854 22.3704 8.65228L12.3474 1.10188C12.1664 0.96604 11.9124 0.96604 11.7314 1.10188L1.65442 8.65132Z" stroke="#FF5900" stroke-linecap="round" stroke-linejoin="round"/>
</svg>
