<svg width="46" height="36" viewBox="0 0 46 36" fill="none" xmlns="http://www.w3.org/2000/svg">
<path d="M19.5443 19.5437C19.5314 18.8546 19.5335 18.1649 19.546 17.4781C18.6763 17.4601 17.839 17.2597 17.0525 16.9179L17.0516 16.9175C15.0919 16.0612 13.4601 14.7455 12.8355 12.4455C12.8254 12.4088 12.8108 12.368 12.7889 12.312C12.7845 12.3006 12.7794 12.2878 12.7739 12.2739C12.7556 12.2279 12.7327 12.1702 12.7131 12.1149C12.3769 11.1708 11.5708 10.4194 10.6191 10.0911C9.67708 9.76621 8.62493 9.86495 7.76281 10.5717L7.7553 10.5778L7.75524 10.5778C7.6975 10.6233 7.63961 10.6696 7.58104 10.7168L6.50362 15.1539C6.42729 15.5835 6.35417 16.0084 6.28171 16.4295C6.12788 17.3234 5.97703 18.1999 5.80476 19.0676L19.5443 19.5437ZM19.5443 19.5437C16.7451 19.3832 14.4183 18.2411 12.5202 16.1251C12.4648 16.0621 12.4099 16.0017 12.358 15.9448C12.2729 15.8462 12.1715 15.806 12.1177 15.79C12.0647 15.7742 12.0185 15.7702 12.0088 15.7694C12.0083 15.7693 12.008 15.7693 12.0077 15.7693C11.9804 15.7668 11.9813 15.7672 11.9817 15.7674C11.982 15.7675 11.982 15.7675 11.9743 15.7666L11.5081 15.7142L11.4261 16.176C11.2602 17.1091 11.0961 18.0439 10.9323 18.9769C10.9073 19.1192 10.8823 19.2615 10.8574 19.4037C10.8155 19.6409 10.7748 19.8765 10.7342 20.111C10.642 20.6446 10.5507 21.1725 10.449 21.7021L10.4486 21.7044C10.415 21.8835 10.4026 22.0895 10.4704 22.3017C10.5402 22.5197 10.6763 22.6878 10.8405 22.8232L19.5443 19.5437ZM13.4552 25.0319C13.1282 24.7565 12.8053 24.4816 12.4837 24.2078C11.9373 23.7425 11.3944 23.2803 10.8405 22.8233L13.4552 25.0319ZM13.4552 25.0319C13.5291 25.0949 13.5634 25.1443 13.5886 25.2136C14.6158 28.0844 15.6473 30.9553 16.6833 33.824C16.0459 34.0503 15.4096 34.2851 14.7771 34.5311C14.2004 32.911 13.6175 31.2924 13.035 29.6747C12.6832 28.698 12.3316 27.7217 11.9816 26.7455C11.8912 26.4931 11.7567 26.2682 11.5267 26.0747L11.2048 26.4573M13.4552 25.0319L6.56422 22.5285C7.59756 23.3683 8.60903 24.2363 9.62019 25.1041C10.1474 25.5566 10.6746 26.009 11.2048 26.4573M11.2048 26.4573L11.5276 26.0755C11.0035 25.6323 10.4792 25.1823 9.9532 24.731C8.9386 23.8603 7.91771 22.9842 6.87956 22.1405L6.87948 22.1404C6.35768 21.7166 6.03586 21.2642 5.86819 20.7773C5.69997 20.2888 5.674 19.7279 5.80472 19.0679L14.0591 25.0443C15.111 27.9845 16.1676 30.9246 17.2287 33.8625M11.2048 26.4573C11.3544 26.5832 11.4442 26.7277 11.5109 26.9143C11.8615 27.8918 12.2133 28.8688 12.5651 29.8457C13.1673 31.518 13.7695 33.1901 14.3652 34.865M14.3652 34.865C14.4527 35.1099 14.5356 35.1612 14.7773 35.0679M14.3652 34.865L14.6568 34.7613M14.3652 34.865L14.6567 34.7609L14.598 34.6115C14.5872 34.6114 14.5782 34.612 14.5715 34.6126C14.5639 34.6134 14.5596 34.6144 14.5596 34.6143C14.5596 34.6143 14.5705 34.6117 14.5958 34.602L14.6568 34.7613M14.7773 35.0679C15.5369 34.7694 16.3034 34.4873 17.0722 34.2169M14.7773 35.0679L14.6587 34.7607L14.8194 34.7035M14.7773 35.0679L14.6568 34.7613M17.0722 34.2169C17.2771 34.1446 17.3001 34.0606 17.2287 33.8625M17.0722 34.2169L16.9792 33.9526M17.0722 34.2169L16.979 33.9527L16.7655 34.0298C16.7657 34.0405 16.7665 34.0488 16.7672 34.0542C16.768 34.0608 16.7688 34.0642 16.7686 34.0635C16.7683 34.0624 16.7658 34.0528 16.7583 34.0318L16.9792 33.9526M17.2287 33.8625L16.9792 33.9523L16.9075 33.7485M17.2287 33.8625L16.9792 33.9526M16.9792 33.9526L16.9075 33.7485M16.9075 33.7485C16.9189 33.7408 16.9259 33.7375 16.9253 33.7378C16.9248 33.738 16.919 33.7407 16.9059 33.7453L16.9075 33.7485ZM14.6568 34.7613L14.8194 34.7035M14.8194 34.7035C14.8402 34.7235 14.8516 34.7403 14.8553 34.7463C14.8565 34.7481 14.857 34.749 14.8569 34.7487C14.8565 34.7477 14.8493 34.7337 14.8362 34.6971L14.8194 34.7035ZM16.9789 33.9524L16.7655 34.0293C16.7649 33.9998 16.7688 33.9524 16.7914 33.8974C16.8238 33.8183 16.8748 33.7716 16.9043 33.7508C16.9052 33.7501 16.9062 33.7494 16.9071 33.7488L16.9789 33.9524ZM14.6586 34.7602L14.6012 34.6116C14.6352 34.6124 14.6861 34.6199 14.7418 34.6485C14.7754 34.6657 14.8007 34.6855 14.8189 34.703L14.6586 34.7602Z" stroke="#C8D0DB"/>
<path d="M6.00735 24.6975C6.63689 25.2295 7.25203 25.7492 7.86701 26.2668C7.77701 26.467 7.69048 26.6643 7.60504 26.859C7.37595 27.3813 7.15468 27.8857 6.89537 28.3817C6.7825 28.5971 6.62741 28.7998 6.43935 29.0176C6.37467 29.0925 6.298 29.1778 6.21736 29.2676C6.08867 29.4108 5.94988 29.5653 5.8336 29.7065L5.83324 29.7069C5.24585 30.4218 4.65549 31.1345 4.06438 31.8481L4.06411 31.8485C3.51854 32.5071 2.97234 33.1665 2.42827 33.8278C1.91564 33.3768 1.39277 32.937 0.867798 32.5052C1.75126 31.4474 2.63067 30.3865 3.50911 29.3267C3.96162 28.7807 4.41387 28.2351 4.86628 27.6904L4.86777 27.6886C5.02426 27.4984 5.1335 27.292 5.2068 27.0701C5.47181 26.2865 5.73545 25.5043 6.00735 24.6975Z" stroke="#C8D0DB"/>
<path d="M9.25916 5.47768C9.18097 6.86453 10.2409 8.05204 11.6879 8.14697C12.9941 8.23048 14.2035 7.14689 14.2894 5.73188C14.3684 4.40184 13.2817 3.14966 12.0369 3.06634L9.25916 5.47768ZM9.25916 5.47768C9.34196 4.02993 10.5508 2.96781 12.0367 3.06633L9.25916 5.47768Z" stroke="#C8D0DB"/>
<path d="M29.2791 33.2112C30.2428 33.2112 31.024 32.4199 31.024 31.4438C31.024 30.4677 30.2428 29.6765 29.2791 29.6765C28.3155 29.6765 27.5343 30.4677 27.5343 31.4438C27.5343 32.4199 28.3155 33.2112 29.2791 33.2112Z" fill="#C8D0DB"/>
<path d="M39.7698 33.2112C40.7334 33.2112 41.5146 32.4199 41.5146 31.4438C41.5146 30.4677 40.7334 29.6765 39.7698 29.6765C38.8061 29.6765 38.025 30.4677 38.025 31.4438C38.025 32.4199 38.8061 33.2112 39.7698 33.2112Z" fill="#C8D0DB"/>
<path d="M45.1107 29.726C45.1061 29.726 45.1038 29.726 45.0992 29.726L23.6505 29.4299C23.3558 29.4253 23.0888 29.2481 22.9691 28.9753L18.7291 19.4204C18.5564 19.0333 18.7268 18.5786 19.1112 18.4038C19.4933 18.2312 19.9422 18.4014 20.1148 18.7908L24.1569 27.8981L45.1223 28.1872C45.5412 28.1919 45.8773 28.5416 45.8704 28.9659C45.8635 29.3903 45.5251 29.726 45.1107 29.726Z" fill="#C8D0DB"/>
<path d="M31.5539 20.7231V19.2996H33.6131V26.2667H26.7476V19.2996H28.8091V20.7231V21.2231H29.3091H31.0539H31.5539V20.7231Z" stroke="#C8D0DB"/>
<path d="M40.9512 20.7231V19.2996H43.0103V26.2667H36.1449V19.2996H38.2041V20.7231V21.2231H38.7041H40.4512H40.9512V20.7231Z" stroke="#C8D0DB"/>
<path d="M31.5539 11.2713V9.85001H33.6131V16.8148H26.7476V9.85001H28.8091V11.2713V11.7713H29.3091H31.0539H31.5539V11.2713Z" stroke="#C8D0DB"/>
<path d="M36.2156 1.92124V0.5H38.2748V7.46709H31.4093V0.5H33.4708V1.92124V2.42124H33.9708H35.7156H36.2156V1.92124Z" stroke="#C8D0DB"/>
<path d="M40.9512 11.2713V9.85001H43.0103V16.8148H36.1449V9.85001H38.2041V11.2713V11.7713H38.7041H40.4512H40.9512V11.2713Z" stroke="#C8D0DB"/>
<path d="M1.51923 34.8506C2.35827 34.8506 3.03846 34.1616 3.03846 33.3117C3.03846 32.4618 2.35827 31.7729 1.51923 31.7729C0.680177 31.7729 0 32.4618 0 33.3117C0 34.1616 0.680177 34.8506 1.51923 34.8506Z" fill="#C8D0DB"/>
<path d="M15.8313 36C16.6704 36 17.3506 35.311 17.3506 34.4611C17.3506 33.6112 16.6704 32.9222 15.8313 32.9222C14.9923 32.9222 14.3121 33.6112 14.3121 34.4611C14.3121 35.311 14.9923 36 15.8313 36Z" fill="#C8D0DB"/>
<path d="M20.0465 20.1333C20.8856 20.1333 21.5658 19.4443 21.5658 18.5944C21.5658 17.7446 20.8856 17.0556 20.0465 17.0556C19.2075 17.0556 18.5273 17.7446 18.5273 18.5944C18.5273 19.4443 19.2075 20.1333 20.0465 20.1333Z" fill="#C8D0DB"/>
</svg>
