<svg width="44" height="39" viewBox="0 0 44 39" fill="none" xmlns="http://www.w3.org/2000/svg">
<g clip-path="url(#clip0_1094_5445)">
<path d="M8.89803 35.4809L8.89814 35.4815C8.91572 35.5775 8.93179 35.6347 8.94433 35.6683C8.98421 35.6754 9.04957 35.681 9.15839 35.681H9.17059H9.1828H9.19501H9.20721H9.21942H9.23162H9.24383H9.25604H9.26824H9.28045H9.29265H9.30486H9.31707H9.32927H9.34148H9.35368H9.36589H9.3781H9.3903H9.40251H9.41471H9.42692H9.43913H9.45133H9.46354H9.47574H9.48795H9.50016H9.51236H9.52457H9.53677H9.54898H9.56119H9.57339H9.5856H9.59781H9.61001H9.62222H9.63442H9.64663H9.65884H9.67104H9.68325H9.69545H9.70766H9.71986H9.73207H9.74428H9.75648H9.76869H9.7809H9.7931H9.80531H9.81751H9.82972H9.84193H9.85413H9.86634H9.87854H9.89075H9.90296H9.91516H9.92737H9.93957H9.95178H9.96399H9.97619H9.9884H10.0006H10.0128H10.025H10.0372H10.0494H10.0616H10.0738H10.086H10.0983H10.1105H10.1227H10.1349H10.1471H10.1593H10.1715H10.1837H10.1959H10.2081H10.2203H10.2325H10.2447H10.2569H10.2691H10.2813H10.2935H10.3058H10.318H10.3302H10.3424H10.3546H10.3668H10.379H10.3912H10.4034H10.4156H10.4278H10.44H10.4522H10.4644H10.4766H10.4888H10.5011H10.5133H10.5255H10.5377H10.5499H10.5621H10.5743H10.5865H10.5987H10.6109H10.6231H10.6353H10.6475H10.6597H10.6719H10.6841H10.6963H10.7086H10.7208H10.733H10.7452H10.7574H10.7696H10.7818H10.794H10.8062H10.8184H10.8306H10.8428H10.855H10.8672H10.8794H10.8916H10.9039H10.9161H10.9283H10.9405H10.9527H10.9649H10.9771H10.9893H11.0015H11.0137H11.0259H11.0381H11.0503H11.0625H11.0747H11.0869H11.0991H11.1114H11.1236H11.1358H11.148H11.1602H11.1724H11.1846H11.1968H11.209H11.2212H11.2334H11.2456H11.2578H11.27H11.2822H11.2944H11.3067H11.3189H11.3311H11.3433H11.3555H11.3677H11.3799H11.3921H11.4043H11.4165H11.4287H11.4409H11.4531H11.4653H11.4775H11.4897H11.5019H11.5142H11.5264H11.5386H11.5508H11.563H11.5752H11.5874H11.5996H11.6118H11.624H11.6362H11.6484H11.6606H11.6728H11.685H11.6972H11.7095H11.7217H11.7339H11.7461H11.7583H11.7705H11.7827H11.7949H11.8071H11.8193H11.8315H11.8437H11.8559H11.8681H11.8803H11.8925H11.9047H11.917H11.9292H11.9414H11.9536H11.9658H11.978H11.9902H12.0024H12.0146H12.0268H12.039H12.0512H12.0634H12.0756H12.0878H12.1H12.1123H12.1245H12.1367H12.1489H12.1611H12.1733H12.1855H12.1977H12.2099H12.2221H12.2343H12.2465H12.2587H12.2709H12.2831H12.2953H12.3075H12.3198H12.332H12.3442H12.3564H12.3686H12.3808H12.393H12.4052H12.4174H12.4296H12.4418H12.454H12.4662H12.4784H12.4906H12.5028H12.515H12.5273H12.5395H12.5517H12.5639H12.5761H12.5883H12.6005H12.6127H12.6249H12.6371H12.6493H12.6615H12.6737H12.6859H12.6981H12.7103H12.7226H12.7348H12.747H12.7592H12.7714H12.7836H12.7958H12.808H12.8202H12.8324H12.8446H12.8568H12.869H12.8812H12.8934H12.9056H12.9178H12.9301H12.9423H12.9545H12.9667H12.9789H12.9911H13.0033H13.0155H13.0277H13.0399H13.0521H13.0643H13.0765H13.0887H13.1009H13.1131H13.1254H13.1376H13.1498H13.162H13.1742H13.1864H13.1986H13.2108H13.223H13.2352H13.2474H13.2596H13.2718H13.284H13.2962H13.3084H13.3206H13.3329H13.3451H13.3573H13.3695H13.3817H13.3939H13.4061H13.4183H13.4305H13.4427H13.4549H13.4671H13.4793H13.4915H13.5037H13.5159H13.5282H13.5404H13.5526H13.5648H13.577H13.5892H13.6014H13.6136H13.6258H13.638H13.6502H13.6624H13.6746H13.6868H13.699H13.7112H13.7234H13.7357H13.7479H13.7601H13.7723H13.7845H13.7967H13.8089H13.8211H13.8333H13.8455H13.8577H13.8699H13.8821H13.8943H13.9065H13.9187H13.931H13.9432H13.9554H13.9676H13.9798H13.992H14.0042H14.0164H14.0286H14.0408H14.053H14.0652H14.0774H14.0896H14.1018H14.114H14.1262H14.1385H14.1507H14.1629H14.1751H14.1873H14.1995H14.2117H14.2239H14.2361H14.2483H14.2605H14.2727H14.2849H14.2971H14.3093H14.3215H14.3338H14.346H14.3582H14.3704H14.3826H14.3948H14.407H14.4192H14.4314H14.4436H14.4558H14.468H14.4802H14.4924H14.5046H14.5168H14.529H14.5413H14.5535H14.5657H14.5779H14.5901H14.6023H14.6145H14.6267H14.6389H14.6511H14.6633H14.6755H14.6877H14.6999H14.7121H14.7243H14.7366H14.7488H14.761H14.7732H14.7854H14.7976H14.8098H14.822H14.8342H14.8464H14.8586H14.8708H14.883H14.8952H14.9074H14.9196H14.9318H14.9441H14.9563H14.9685H14.9807H14.9929H15.0051H15.0173H15.0295H15.0417H15.0539H15.0661H15.0783H15.0905H15.1027H15.1149H15.1271H15.1393H15.1516H15.1638H15.176H15.1882H15.2004H15.2126H15.2248H15.237H15.2492H15.2614H15.2736H15.2858H15.298H15.3102H15.3224H15.3346H15.3469H15.3591H15.3713H15.3835H15.3957H15.4079C15.5215 35.681 15.5882 35.6715 15.6249 35.6621C15.6348 35.6241 15.6445 35.5553 15.6445 35.438V35.413V35.388V35.363V35.338V35.313V35.288V35.263V35.238V35.213V35.188V35.163V35.138V35.113V35.0879V35.0629V35.0379V35.0129V34.9879V34.9629V34.9379V34.9129V34.8879V34.8629V34.8379V34.8129V34.7879V34.7629V34.7379V34.7129V34.6879V34.6629V34.6378V34.6128V34.5878V34.5628V34.5378V34.5128V34.4878V34.4628V34.4378V34.4128V34.3878V34.3628V34.3378V34.3128V34.2878V34.2628V34.2378V34.2128V34.1878V34.1628V34.1377V34.1127V34.0877V34.0627V34.0377V34.0127V33.9877V33.9627V33.9377V33.9127V33.8877V33.8627V33.8377V33.8127V33.7877V33.7627V33.7377V33.7127V33.6877V33.6627V33.6377V33.6127V33.5877V33.5627V33.5376V33.5126V33.4876V33.4626V33.4376V33.4126V33.3876V33.3626V33.3376V33.3126V33.2876V33.2626V33.2376V33.2126V33.1876V33.1626V33.1376V33.1126V33.0876V33.0626V33.0376V33.0126V32.9876V32.9626V32.9376V32.9126V32.8876V32.8626V32.8375V32.8125V32.7875V32.7625V32.7375V32.7125V32.6875V32.6625V32.6375V32.6125V32.5875V32.5625V32.5375V32.5125V32.4875V32.4625V32.4375V32.4125V32.3875V32.3625V32.3375V32.3125V32.2875V32.2625V32.2375V32.2125V32.1875V32.1625V32.1375V32.1125V32.0875V32.0625V32.0375V32.0125V31.9875V31.9625V31.9374V31.9124V31.8874V31.8624V31.8374V31.8124V31.7874V31.7624V31.7374V31.7124V31.6874V31.6624V31.6374V31.6124V31.5874V31.5624V31.5374V31.5124V31.4874V31.4624V31.4374V31.4124V31.3874V31.3624V31.3374V31.3124V31.2874V31.2624V31.2374V31.2124V31.1874V31.1624V31.1374V31.1124V31.0874V31.0624V31.0374V31.0124V30.9874V30.9624V30.9374V30.9124V30.8874V30.8624V30.8374V30.8124V30.7874V30.7623V30.7373V30.7123V30.6873V30.6623V30.6373V30.6123V30.5873V30.5623V30.5373V30.5123V30.4873V30.4623V30.4373V30.4123V30.3873V30.3623V30.3373V30.3123V30.2873V30.2623V30.2373V30.2123V30.1873V30.1623V30.1373V30.1123V30.0873V30.0623V30.0373V30.0123V29.9873V29.9623V29.9373V29.9123V29.8873V29.8623V29.8373V29.8123V29.7873V29.7623V29.7373V29.7123V29.6873V29.6623V29.6373V29.6123V29.5873V29.5623V29.5373V29.5123V29.4873V29.4623V29.4373V29.4123V29.3873V29.3623V29.3373V29.3123V29.2873V29.2623V29.2373V29.2123V29.1873V29.1623V29.1372V29.1122V29.0872V29.0622V29.0372V29.0122V28.9872V28.9622V28.9372V28.9122V28.8872V28.8622V28.8372V28.8122V28.7872V28.7622V28.7372V28.7122V28.6872V28.6622V28.6372V28.6122V28.5872V28.5622V28.5372V28.5122V28.4872V28.4622V28.4372V28.4122V28.3872V28.3622V28.3372V28.3122V28.2872V28.2622V28.2372V28.2122V28.1872V28.1622V28.1372V28.1122V28.0872V28.0622V28.0372V28.0122V27.9872V27.9622V27.9372V27.9122V27.8872V27.8622V27.8372V27.8122V27.7872V27.7622V27.7372V27.7122V27.6872V27.6622V27.6372V27.6122V27.5872V27.5622V27.5372V27.5122V27.4871V27.4621V27.4371V27.4121V27.3871V27.3621V27.3371V27.3121V27.2871V27.2621V27.2371V27.2121V27.1871V27.1621V27.1371V27.1121V27.0871V27.0621V27.0371V27.0121V26.9871V26.9621V26.9371V26.9121V26.8871V26.8621V26.8371V26.8121V26.7871V26.7621V26.7371V26.7121V26.6871V26.6621V26.6371V26.6121V26.5871V26.5621V26.5371V26.5121V26.4871V26.4621V26.4371V26.4121V26.3871V26.3621V26.3371V26.3121V26.2871V26.2621V26.237V26.212V26.187V26.162V26.137V26.112V26.087V26.062V26.037V26.012V25.987V25.962V25.937V25.912V25.887V25.862V25.837V25.812V25.787V25.762V25.737V25.712V25.687V25.662V25.637V25.612V25.587V25.562V25.537V25.512V25.487V25.462V25.437V25.412V25.387V25.362V25.3369V25.3119V25.2869V25.2619V25.2369V25.2119V25.1869V25.1619V25.1369V25.1119V25.0869V25.0619V25.0369V25.0119V24.9869V24.9619V24.9369V24.9119V24.8869V24.8619V24.8369V24.8119V24.7869V24.7619V24.7369V24.7119V24.6869V24.6619V24.6369V24.6118V24.5868V24.5618V24.5368V24.5118V24.4868V24.4618V24.4368V24.4118V24.3868V24.3618V24.3368V24.3118V24.2868V24.2618V24.2368V24.2118V24.1868V24.1618V24.1368V24.1118V24.0868V24.0618V24.0368V24.0117V23.9867V23.9617V23.9367V23.9117V23.8867V23.8617V23.8367V23.8117V23.7867V23.7617V23.7367V23.7117V23.6867V23.6617V23.6367V23.6117V23.5867V23.5617V23.5367V23.5117V23.4866V23.4616V23.4366V23.4116V23.3866V23.3616V23.3366V23.3116V23.2866V23.2616V23.2366V23.2116V23.1866V23.1616V23.1366V23.1116V23.0866V23.0616V23.0365V23.0115V22.9865V22.9615V22.9365V22.9115V22.8865V22.8615V22.8365V22.8115V22.7865V22.7615V22.7365V22.7115V22.6865V22.6615V22.6365C15.6445 22.521 15.6363 22.4507 15.627 22.4094C15.5886 22.4011 15.5232 22.3935 15.4164 22.3935C14.6002 22.3935 13.7838 22.3935 12.9674 22.3936C8.88565 22.3938 4.80266 22.3941 0.720897 22.3884C0.595858 22.3884 0.537139 22.4051 0.510158 22.4178C0.507159 22.4192 0.50377 22.4208 0.5 22.4231V35.6492C0.503876 35.6521 0.50809 35.6547 0.512997 35.6571C0.535162 35.6682 0.588567 35.6852 0.701227 35.6828C0.701458 35.6828 0.701689 35.6828 0.701919 35.6828L8.89803 35.4809ZM8.89803 35.4809C8.6381 34.0713 7.66519 33.1666 6.52697 32.8197M8.89803 35.4809L6.52697 32.8197M6.52697 32.8197C5.40283 32.477 4.09728 32.6705 3.12218 33.4523L6.52697 32.8197ZM1.90403 35.6661C1.87892 35.6717 1.83474 35.6779 1.76168 35.6794L3.12203 33.4525C2.44957 33.9913 2.08085 34.7227 1.93854 35.5292L1.93853 35.5292C1.9255 35.6031 1.91237 35.6447 1.90403 35.6661Z" stroke="#C8D0DB"/>
<path d="M21.745 25.4269L21.745 25.4269C21.7429 25.4243 21.7402 25.4212 21.7373 25.4179L21.7305 25.4107L21.7253 25.4055L21.7202 25.4001C21.6456 25.321 21.5841 25.2927 21.4688 25.2934L21.4682 25.2934C20.8329 25.2969 20.1977 25.2969 19.5642 25.2969H19.5639H17.9519C17.8748 25.2969 17.8152 25.3001 17.7692 25.3055C17.7455 25.3083 17.7272 25.3115 17.7134 25.3144C17.7126 25.3186 17.7117 25.3232 17.7108 25.3283C17.7029 25.374 17.6972 25.4412 17.6964 25.5401V30.4923V30.5019V30.5115V30.5211V30.5307V30.5402V30.5498V30.5594V30.569V30.5786V30.5881V30.5977V30.6073V30.6169V30.6265V30.636V30.6456V30.6552V30.6648V30.6744V30.6839V30.6935V30.7031V30.7127V30.7222V30.7318V30.7414V30.751V30.7606V30.7701V30.7797V30.7893V30.7989V30.8085V30.818V30.8276V30.8372V30.8468V30.8564V30.8659V30.8755V30.8851V30.8947V30.9043V30.9138V30.9234V30.933V30.9426V30.9522V30.9617V30.9713V30.9809V30.9905V31V31.0096V31.0192V31.0288V31.0384V31.0479V31.0575V31.0671V31.0767V31.0863V31.0958V31.1054V31.115V31.1246V31.1342V31.1437V31.1533V31.1629V31.1725V31.1821V31.1916V31.2012V31.2108V31.2204V31.2299V31.2395V31.2491V31.2587V31.2683V31.2778V31.2874V31.297V31.3066V31.3162V31.3257V31.3353V31.3449V31.3545V31.3641V31.3736V31.3832V31.3928V31.4024V31.4119V31.4215V31.4311V31.4407V31.4503V31.4598V31.4694V31.479V31.4886V31.4982V31.5077V31.5173V31.5269V31.5365V31.5461V31.5556V31.5652V31.5748V31.5844V31.5939V31.6035V31.6131V31.6227V31.6323V31.6418V31.6514V31.661V31.6706V31.6802V31.6897V31.6993V31.7089V31.7185V31.728V31.7376V31.7472V31.7568V31.7664V31.7759V31.7855V31.7951V31.8047V31.8143V31.8238V31.8334V31.843V31.8526V31.8621V31.8717V31.8813V31.8909V31.9005V31.91V31.9196V31.9292V31.9388V31.9484V31.9579V31.9675V31.9771V31.9867V31.9962V32.0058V32.0154V32.025V32.0346V32.0441V32.0537V32.0633V32.0729V32.0824V32.092V32.1016V32.1112V32.1208V32.1303V32.1399V32.1495V32.1591V32.1687V32.1782V32.1878V32.1974V32.207V32.2165V32.2261V32.2357V32.2453V32.2549V32.2644V32.274V32.2836V32.2932V32.3027V32.3123V32.3219V32.3315V32.3411V32.3506V32.3602V32.3698V32.3794V32.3889V32.3985V32.4081V32.4177V32.4273V32.4368V32.4464V32.456V32.4656V32.4751V32.4847V32.4943V32.5039V32.5135V32.523V32.5326V32.5422V32.5518V32.5613V32.5709V32.5805V32.5901V32.5997V32.6092V32.6188V32.6284V32.638V32.6475V32.6571V32.6667V32.6763V32.6858V32.6954V32.705V32.7146V32.7242V32.7337V32.7433V32.7529V32.7625V32.772V32.7816V32.7912V32.8008V32.8104V32.8199V32.8295V32.8391V32.8487V32.8582V32.8678V32.8774V32.887V32.8965V32.9061V32.9157V32.9253V32.9349V32.9444V32.954V32.9636V32.9732V32.9827V32.9923V33.0019V33.0115V33.021V33.0306V33.0402V33.0498V33.0593V33.0689V33.0785V33.0881V33.0977V33.1072V33.1168V33.1264V33.136V33.1455V33.1551V33.1647V33.1743V33.1838V33.1934V33.203V33.2126V33.2221V33.2317V33.2413V33.2509V33.2605V33.27V33.2796V33.2892V33.2988V33.3083V33.3179V33.3275V33.3371V33.3466V33.3562V33.3658V33.3754V33.3849V33.3945V33.4041V33.4137V33.4232V33.4328V33.4424V33.452V33.4615V33.4711V33.4807V33.4903V33.4998V33.5094V33.519V33.5286V33.5381V33.5477V33.5573V33.5669V33.5764V33.586V33.5956V33.6052V33.6147V33.6243V33.6339V33.6435V33.6531V33.6626V33.6722V33.6818V33.6914V33.7009V33.7105V33.7201V33.7297V33.7392V33.7488V33.7584V33.768V33.7775V33.7871V33.7967V33.8062V33.8158V33.8254V33.835V33.8445V33.8541V33.8637V33.8733V33.8828V33.8924V33.902V33.9116V33.9211V33.9307V33.9403V33.9499V33.9594V33.969V33.9786V33.9882V33.9977V34.0073V34.0169V34.0265V34.036V34.0456V34.0552V34.0648V34.0743V34.0839V34.0935V34.1031V34.1126V34.1222V34.1318V34.1413V34.1509V34.1605V34.1701V34.1796V34.1892V34.1988V34.2084V34.2179V34.2275V34.2371V34.2467V34.2562V34.2658V34.2754V34.2849V34.2945V34.3041V34.3137V34.3232V34.3328V34.3424V34.352V34.3615V34.3711V34.3807V34.3903V34.3998V34.4094V34.419V34.4285V34.4381V34.4477V34.4573V34.4668V34.4764V34.486V34.4956V34.5051V34.5147V34.5243V34.5338V34.5434V34.553V34.5626V34.5721V34.5817V34.5913V34.6009V34.6104V34.62V34.6296V34.6391V34.6487V34.6583V34.6679V34.6774V34.687V34.6966V34.7061V34.7157V34.7253V34.7349V34.7444V34.754V34.7636V34.7731V34.7827V34.7923V34.8019V34.8114V34.821V34.8306V34.8401V34.8497V34.8593V34.8689V34.8784V34.888V34.8976V34.9071V34.9167V34.9263V34.9359V34.9454V34.955V34.9646V34.9741V34.9837V34.9933V35.0029V35.0124V35.022V35.0316V35.0411V35.0507V35.0603V35.0698V35.0794V35.089V35.0986V35.1081V35.1177V35.1273V35.1368V35.1464V35.156V35.1656V35.1751V35.1847V35.1943V35.2038V35.2134V35.223V35.2325V35.2421V35.2517V35.2613V35.2708V35.2804V35.29V35.2995V35.3091V35.3187V35.3282V35.3378V35.3474V35.3569V35.3665V35.3761V35.3857V35.3952C17.6964 35.4025 17.6964 35.4095 17.6964 35.4164C17.6963 35.5258 17.6963 35.5934 17.7047 35.6571C17.8884 35.6793 18.0299 35.6903 18.1419 35.6883C18.2635 35.6863 18.3141 35.6691 18.3294 35.6619C18.3295 35.6618 18.3295 35.6619 18.3296 35.6621C18.3298 35.6627 18.3303 35.664 18.337 35.6503C18.3518 35.6199 18.3769 35.543 18.3841 35.3805C18.3862 35.3209 18.3983 35.2728 18.4082 35.2413C18.4105 35.2343 18.4127 35.2276 18.415 35.2214C18.7451 33.8841 19.8996 32.843 21.4258 32.6844L21.4259 32.6844C23.2544 32.4949 25.0153 33.6208 25.3057 35.5484M21.745 25.4269L25.3288 35.657C25.3288 35.657 25.3293 35.6573 25.3303 35.658M21.745 25.4269L21.7477 25.4301C22.9453 26.8683 24.1448 28.3032 25.3496 29.7349C25.5129 29.9308 25.6761 30.1247 25.8385 30.3178C25.9196 30.4141 25.9542 30.4925 25.9613 30.5965L25.961 30.6484C25.9533 31.8638 25.9542 33.0798 25.9552 34.293C25.9555 34.6967 25.9558 35.1001 25.9558 35.5031C25.9558 35.5919 25.9472 35.6408 25.9409 35.6648M21.745 25.4269L25.7838 35.6828M25.3057 35.5484L24.8112 35.6229M25.3057 35.5484C25.3056 35.5483 25.3056 35.5482 25.3056 35.548L24.8112 35.6229M25.3057 35.5484C25.3159 35.6158 25.3288 35.6478 25.3354 35.6604M24.8112 35.6229C24.8678 35.9961 25.0528 36.1587 25.4314 36.181C25.5271 36.1878 25.6229 36.1859 25.7195 36.184C25.7439 36.1835 25.7683 36.183 25.7929 36.1827M24.8112 35.6229L25.7838 35.6828M25.3354 35.6604C25.333 35.6594 25.3314 35.6586 25.3303 35.658M25.3354 35.6604C25.3488 35.666 25.3847 35.6774 25.4607 35.6819L25.467 35.6822L25.467 35.6823C25.5381 35.6873 25.6054 35.686 25.6976 35.6843C25.7241 35.6838 25.7526 35.6832 25.7838 35.6828M25.3354 35.6604C25.3364 35.6624 25.3373 35.6639 25.338 35.665M25.3303 35.658C25.3312 35.6586 25.3325 35.6596 25.334 35.661C25.3358 35.6626 25.3371 35.664 25.338 35.665M25.3303 35.658L25.7838 35.6828M25.7838 35.6828C25.7832 35.6828 25.7827 35.6828 25.7821 35.6828L25.7929 36.1827M25.7838 35.6828C25.8698 35.6808 25.9174 35.6715 25.9409 35.6648M25.7838 35.6828C25.7845 35.6828 25.7851 35.6828 25.7858 35.6828L25.7929 36.1827M25.7838 35.6828L25.7929 36.1827M25.338 35.665C25.339 35.6665 25.3395 35.6671 25.3396 35.6671C25.3396 35.667 25.3391 35.6663 25.338 35.665ZM25.9409 35.6648C25.9373 35.6787 25.9344 35.6841 25.9343 35.6841C25.9343 35.6841 25.9373 35.6783 25.9456 35.6697C25.9542 35.6609 25.9602 35.6577 25.9602 35.6578C25.9602 35.6578 25.9548 35.6608 25.9409 35.6648ZM17.7654 28.9665L17.7654 28.9657C17.7534 28.1272 17.7534 27.2887 17.7654 26.4502L18.2654 26.4574M17.7654 28.9665L24.0236 29.7761C24.1253 29.6783 24.1937 29.5663 24.2424 29.4609L24.2424 29.4609L24.2446 29.4561C24.332 29.2616 24.3613 29.0534 24.3213 28.845C24.2824 28.6423 24.1843 28.472 24.0691 28.3346C23.3687 27.4977 22.6703 26.6612 21.9737 25.8215L21.9728 25.8205C21.724 25.5221 21.3965 25.3667 21.0003 25.372C20.5496 25.3774 20.1026 25.3766 19.6517 25.3757C19.3989 25.3752 19.145 25.3747 18.8883 25.3754M17.7654 28.9665C17.77 29.2547 17.8481 29.5747 18.1116 29.7989L17.7654 28.9665ZM18.2654 26.4574L17.7654 26.451C17.769 26.1706 17.8443 25.8683 18.0864 25.6463C18.3208 25.4315 18.6218 25.3754 18.8883 25.3754M18.2654 26.4574C18.2705 26.0534 18.4761 25.8754 18.8889 25.8754M18.2654 26.4574C18.2534 27.2911 18.2534 28.1248 18.2654 28.9585L21.0064 25.8719M18.8883 25.3754C18.8885 25.3754 18.8887 25.3754 18.8889 25.3754V25.8754M18.8883 25.3754C18.8881 25.3754 18.8879 25.3754 18.8877 25.3754L18.8889 25.8754M18.8889 25.8754C19.141 25.8747 19.3931 25.8752 19.6452 25.8757C20.0989 25.8766 20.5527 25.8774 21.0064 25.8719M21.0064 25.8719C21.2496 25.8685 21.4347 25.9558 21.5888 26.1407C22.2861 26.9812 22.985 27.8184 23.6857 28.6555L21.0064 25.8719ZM18.4401 35.1627C18.4404 35.1621 18.4405 35.1619 18.4402 35.1623L18.4401 35.1627Z" stroke="#C8D0DB"/>
<path d="M5.42889 34.1438C4.16974 34.1438 3.17099 35.1111 3.17442 36.3967C3.17956 37.7097 4.2297 38.6341 5.41862 38.6324C6.64008 38.6393 7.68337 37.6772 7.67309 36.3813C7.66453 35.0665 6.63836 34.1438 5.42889 34.1421V34.1438ZM5.39806 37.0352C5.06057 37.0267 4.76249 36.7185 4.76591 36.3847C4.77105 36.0423 5.08969 35.7325 5.43575 35.7376C5.7818 35.7445 6.08674 36.0612 6.07646 36.4087C6.06447 36.7647 5.76124 37.0455 5.39977 37.0369L5.39806 37.0352Z" fill="#C8D0DB"/>
<path d="M21.8441 34.1387C20.6021 34.1301 19.5793 35.147 19.5811 36.3933C19.5828 37.6327 20.5849 38.6324 21.8253 38.6342C23.0621 38.6342 24.0746 37.631 24.0797 36.3984C24.0849 35.171 23.0741 34.149 21.8441 34.137V34.1387ZM21.815 37.0352C21.4569 37.0301 21.1726 36.7339 21.1811 36.3676C21.1897 36.0269 21.4895 35.7359 21.8287 35.7359C22.1747 35.7359 22.4831 36.0475 22.4797 36.395C22.4762 36.7459 22.1713 37.0387 21.815 37.0352Z" fill="#C8D0DB"/>
<path d="M20.5558 19.9488C20.5644 19.1784 20.5644 18.4063 20.5558 17.636C20.5541 17.4734 20.6004 17.4254 20.7648 17.4271C21.3541 17.4374 21.9452 17.4374 22.5362 17.4271C22.7007 17.4254 22.7486 17.4734 22.7452 17.636C22.7332 18.0212 22.7418 18.4063 22.7418 18.7915C22.7418 19.1767 22.7332 19.5636 22.7452 19.9471C22.7504 20.1114 22.7007 20.1576 22.5362 20.1559C21.9469 20.1456 21.3559 20.1456 20.7648 20.1559C20.6004 20.1576 20.5541 20.1097 20.5558 19.9471V19.9488Z" fill="#C8D0DB"/>
<path d="M22.7452 21.4758C22.7332 22.2239 22.7349 22.9737 22.7452 23.7218C22.7486 23.905 22.7127 23.9769 22.5088 23.9717C21.9418 23.9563 21.373 23.9529 20.8077 23.9734C20.5781 23.9803 20.5524 23.8913 20.5576 23.7012C20.5713 23.328 20.561 22.9531 20.561 22.5782C20.561 22.2033 20.5713 21.8524 20.5576 21.4895C20.5507 21.3063 20.5918 21.2344 20.794 21.2395C21.361 21.2549 21.9281 21.2515 22.4951 21.2395C22.6784 21.2361 22.7486 21.2738 22.7452 21.4758Z" fill="#C8D0DB"/>
<path d="M26.0139 17.6377C26.0053 18.4081 26.0053 19.1801 26.0139 19.9505C26.0156 20.1165 25.9676 20.161 25.8049 20.1576C25.2156 20.1491 24.6245 20.1491 24.0352 20.1576C23.869 20.161 23.8228 20.1097 23.8279 19.947C23.8382 19.5619 23.8313 19.1767 23.8313 18.7915C23.8313 18.4063 23.8399 18.0195 23.8279 17.636C23.8228 17.4699 23.8742 17.4254 24.0369 17.4288C24.6262 17.4374 25.2173 17.4374 25.8066 17.4288C25.9728 17.4254 26.0156 17.4768 26.0139 17.6394V17.6377Z" fill="#C8D0DB"/>
<path d="M26.0139 21.4484C26.0053 22.2187 26.0053 22.9908 26.0139 23.7612C26.0156 23.9255 25.9693 23.9717 25.8049 23.97C25.2155 23.9597 24.6245 23.9597 24.0352 23.97C23.8707 23.9734 23.8228 23.9238 23.8262 23.7612C23.8365 23.376 23.8296 22.9908 23.8296 22.6056C23.8296 22.2204 23.8382 21.8336 23.8262 21.4501C23.8211 21.2858 23.8707 21.2395 24.0352 21.2412C24.6245 21.2498 25.2155 21.2498 25.8049 21.2412C25.9693 21.2378 26.0156 21.2858 26.0139 21.4501V21.4484Z" fill="#C8D0DB"/>
<path d="M24.3322 28.9105C24.7991 28.9106 25.2662 28.911 25.7334 28.9121C25.7336 28.9121 25.7339 28.9121 25.7342 28.9121L24.3322 28.9105ZM24.3322 28.9105C24.3295 28.887 24.3258 28.8634 24.3213 28.8398C24.2824 28.6371 24.1844 28.4669 24.0691 28.3294L24.3322 28.9105ZM17.7885 26.2012C17.826 25.9984 17.9138 25.7994 18.0864 25.6412C18.3208 25.4263 18.6218 25.3703 18.8883 25.3702M17.7885 26.2012L18.889 25.3702C18.8887 25.3702 18.8885 25.3702 18.8883 25.3702M17.7885 26.2012C17.7887 25.8102 17.7889 25.4192 17.7889 25.0283M17.7885 26.2012L17.7889 25.0284C17.7889 25.0284 17.7889 25.0283 17.7889 25.0283M18.8883 25.3702C19.0729 25.3698 19.2561 25.3699 19.4384 25.3702M18.8883 25.3702L19.4384 25.3702M19.4384 25.3702C19.3194 25.2941 19.2134 25.1887 19.1304 25.0442L19.1291 25.042C19 24.8146 18.9714 24.5527 18.9714 24.3141C18.9714 23.5093 18.9712 22.7041 18.971 21.8988C18.9707 20.2878 18.9703 18.6762 18.9714 17.0656C18.9715 16.7612 19.0255 16.4139 19.281 16.1571C19.5372 15.8997 19.8842 15.8453 20.1871 15.8452C22.2534 15.8435 24.3197 15.8435 26.386 15.8452C26.6903 15.8453 27.0369 15.9015 27.2922 16.1604C27.5459 16.4177 27.6 16.7647 27.6 17.0693C27.6 17.0691 27.6 17.0689 27.6 17.0686L19.4384 25.3702ZM21.6831 25.5554C21.7891 25.624 21.8858 25.7109 21.9728 25.8153L21.9737 25.8163C22.6702 26.656 23.3685 27.4923 24.0688 28.329L21.6831 25.5554ZM21.6831 25.5554H21.6835H21.6872H21.6908H21.6945H21.6982H21.7019H21.7055H21.7092H21.7129H21.7166H21.7202H21.7239H21.7276H21.7312H21.7349H21.7386H21.7423H21.7459H21.7496H21.7533H21.757H21.7606H21.7643H21.768H21.7717H21.7753H21.779H21.7827H21.7864H21.79H21.7937H21.7974H21.801H21.8047H21.8084H21.8121H21.8157H21.8194H21.8231H21.8268H21.8304H21.8341H21.8378H21.8415H21.8451H21.8488H21.8525H21.8562H21.8598H21.8635H21.8672H21.8709H21.8745H21.8782H21.8819H21.8855H21.8892H21.8929H21.8966H21.9002H21.9039H21.9076H21.9113H21.9149H21.9186H21.9223H21.926H21.9296H21.9333H21.937H21.9407H21.9443H21.948H21.9517H21.9554H21.959H21.9627H21.9664H21.97H21.9737H21.9774H21.9811H21.9847H21.9884H21.9921H21.9958H21.9994H22.0031H22.0068H22.0105H22.0141H22.0178H22.0215H22.0252H22.0288H22.0325H22.0362H22.0398H22.0435H22.0472H22.0509H22.0545H22.0582H22.0619H22.0656H22.0692H22.0729H22.0766H22.0803H22.0833C23.0351 25.5565 23.988 25.5561 24.9401 25.5557C25.4159 25.5556 25.8915 25.5554 26.3668 25.5554C26.6742 25.5554 27.0297 25.5038 27.2901 25.2411C27.5495 24.9796 27.6 24.624 27.6 24.3158V24.3088V24.3017V24.2947V24.2876V24.2806V24.2735V24.2665V24.2594V24.2524V24.2453V24.2383V24.2312V24.2242V24.2171V24.2101V24.203V24.1959V24.1889V24.1818V24.1748V24.1677V24.1607V24.1536V24.1466V24.1395V24.1325V24.1254V24.1184V24.1113V24.1043V24.0972V24.0902V24.0831V24.0761V24.069V24.062V24.0549V24.0479V24.0408V24.0338V24.0267V24.0197V24.0126V24.0056V23.9985V23.9915V23.9844V23.9774V23.9703V23.9633V23.9562V23.9492V23.9421V23.9351V23.928V23.921V23.9139V23.9069V23.8998V23.8928V23.8857V23.8787V23.8716V23.8646V23.8575V23.8505V23.8434V23.8364V23.8293V23.8223V23.8152V23.8082V23.8011V23.7941V23.7871V23.78V23.773V23.7659V23.7589V23.7518V23.7448V23.7377V23.7307V23.7236V23.7166V23.7095V23.7025V23.6954V23.6884V23.6813V23.6743V23.6672V23.6602V23.6531V23.6461V23.639V23.632V23.6249V23.6179V23.6108V23.6038V23.5967V23.5897V23.5826V23.5756V23.5685V23.5615V23.5544V23.5474V23.5403V23.5333V23.5263V23.5192V23.5122V23.5051V23.4981V23.491V23.484V23.4769V23.4699V23.4628V23.4558V23.4487V23.4417V23.4346V23.4276V23.4205V23.4135V23.4064V23.3994V23.3923V23.3853V23.3782V23.3712V23.3642V23.3571V23.3501V23.343V23.336V23.3289V23.3219V23.3148V23.3078V23.3007V23.2937V23.2866V23.2796V23.2725V23.2655V23.2584V23.2514V23.2443V23.2373V23.2303V23.2232V23.2162V23.2091V23.2021V23.195V23.188V23.1809V23.1739V23.1668V23.1598V23.1527V23.1457V23.1386V23.1316V23.1245V23.1175V23.1104V23.1034V23.0964V23.0893V23.0823V23.0752V23.0682V23.0611V23.0541V23.047V23.04V23.0329V23.0259V23.0188V23.0118V23.0047V22.9977V22.9906V22.9836V22.9766V22.9695V22.9625V22.9554V22.9484V22.9413V22.9343V22.9272V22.9202V22.9131V22.9061V22.899V22.892V22.8849V22.8779V22.8709V22.8638V22.8568V22.8497V22.8427V22.8356V22.8286V22.8215V22.8145V22.8074V22.8004V22.7933V22.7863V22.7792V22.7722V22.7652V22.7581V22.7511V22.744V22.737V22.7299V22.7229V22.7158V22.7088V22.7017V22.6947V22.6876V22.6806V22.6735V22.6665V22.6595V22.6524V22.6454V22.6383V22.6313V22.6242V22.6172V22.6101V22.6031V22.596V22.589V22.5819V22.5749V22.5678V22.5608V22.5538V22.5467V22.5397V22.5326V22.5256V22.5185V22.5115V22.5044V22.4974V22.4903V22.4833V22.4762V22.4692V22.4622V22.4551V22.4481V22.441V22.434V22.4269V22.4199V22.4128V22.4058V22.3987V22.3917V22.3846V22.3776V22.3705V22.3635V22.3565V22.3494V22.3424V22.3353V22.3283V22.3212V22.3142V22.3071V22.3001V22.293V22.286V22.2789V22.2719V22.2648V22.2578V22.2508V22.2437V22.2367V22.2296V22.2226V22.2155V22.2085V22.2014V22.1944V22.1873V22.1803V22.1732V22.1662V22.1591V22.1521V22.1451V22.138V22.131V22.1239V22.1169V22.1098V22.1028V22.0957V22.0887V22.0816V22.0746V22.0675V22.0605V22.0534V22.0464V22.0394V22.0323V22.0253V22.0182V22.0112V22.0041V21.9971V21.99V21.983V21.9759V21.9689V21.9618V21.9548V21.9477V21.9407V21.9336V21.9266V21.9196V21.9125V21.9055V21.8984V21.8914V21.8843V21.8773V21.8702V21.8632V21.8561V21.8491V21.842V21.835V21.8279V21.8209V21.8138V21.8068V21.7997V21.7927V21.7857V21.7786V21.7716V21.7645V21.7575V21.7504V21.7434V21.7363V21.7293V21.7222V21.7152V21.7081V21.7011V21.694V21.687V21.6799V21.6729V21.6658V21.6588V21.6518V21.6447V21.6377V21.6306V21.6236V21.6165V21.6095V21.6024V21.5954V21.5883V21.5813V21.5742V21.5672V21.5601V21.5531V21.546V21.539V21.5319V21.5249V21.5178V21.5108V21.5037V21.4967V21.4897V21.4826V21.4756V21.4685V21.4615V21.4544V21.4474V21.4403V21.4333V21.4262V21.4192V21.4121V21.4051V21.398V21.391V21.3839V21.3769V21.3698V21.3628V21.3557V21.3487V21.3416V21.3346V21.3275V21.3205V21.3134V21.3064V21.2993V21.2923V21.2852V21.2782V21.2711V21.2641V21.257V21.25V21.243V21.2359V21.2289V21.2218V21.2148V21.2077V21.2007V21.1936V21.1866V21.1795V21.1725V21.1654V21.1584V21.1513V21.1443V21.1372V21.1302V21.1231V21.1161V21.109V21.102V21.0949V21.0879V21.0808V21.0738V21.0667V21.0597V21.0526V21.0456V21.0385V21.0315V21.0244V21.0174V21.0103V21.0033V20.9962V20.9892V20.9821V20.9751V20.968V20.961V20.9539V20.9469V20.9398V20.9328V20.9257V20.9187V20.9116V20.9046V20.8975V20.8905V20.8834V20.8764V20.8693V20.8623V20.8552V20.8482V20.8411V20.8341V20.827V20.82V20.8129V20.8059V20.7988V20.7918V20.7847V20.7776V20.7706V20.7635V20.7565V20.7494V20.7424V20.7353V20.7283V20.7212V20.7142V20.7106C27.6 20.7094 27.6 20.7083 27.6 20.7071C27.6 20.3042 27.6002 19.9011 27.6004 19.4978C27.6007 18.6886 27.6011 17.8788 27.6 17.0693L21.6831 25.5554ZM17.7889 25.0283C17.7923 21.4055 17.7906 17.7828 17.7855 14.1601L17.2855 14.1608C17.2855 13.9554 17.3523 13.8356 17.515 13.7175M17.7889 25.0283L17.7855 14.1608C17.7855 14.1521 17.7857 14.1451 17.7861 14.1397M17.515 13.7175L17.8087 14.1221M17.515 13.7175L17.8087 14.1221M17.515 13.7175L17.5155 13.7171C21.1746 11.0621 24.8337 8.40702 28.4842 5.74C28.6932 5.58764 28.82 5.62188 29.0033 5.75541L17.8087 14.1221M17.8087 14.1221C17.7987 14.1294 17.7913 14.1352 17.7861 14.1397M17.8087 14.1221C17.8087 14.1221 17.8087 14.1221 17.8087 14.1221M17.8087 14.1221L17.8087 14.1221M17.7861 14.1397C17.7867 14.1298 17.7876 14.125 17.7878 14.1242C17.7878 14.1241 17.7863 14.1304 17.7817 14.1392C17.7779 14.1465 17.7746 14.1503 17.7746 14.1503C17.7746 14.1503 17.7748 14.1502 17.7751 14.1499C17.7764 14.1484 17.7798 14.145 17.7861 14.1397ZM17.8087 14.1221L17.8101 14.1211C21.4534 11.4775 25.0975 8.83336 28.7332 6.17729C32.3693 8.82676 36.0088 11.4711 39.6517 14.1104L39.6523 14.1108C39.6675 14.1218 39.677 14.1299 39.6824 14.135C39.6836 14.1431 39.6848 14.1572 39.6849 14.1791C39.6782 16.1122 39.6788 18.0465 39.6794 19.9791C39.6795 20.3639 39.6796 20.7486 39.6797 21.1333H39.678V21.6333C39.678 22.1297 39.6779 22.6263 39.6777 23.123C39.6772 25.0511 39.6767 26.9811 39.6841 28.9099C39.286 28.8961 38.8887 28.897 38.4925 28.9104C38.5003 25.793 38.4997 22.6745 38.4992 19.5574C38.499 18.7633 38.4989 17.9693 38.4989 17.1755C38.4989 17.1647 38.4992 17.1497 38.4996 17.1315C38.5011 17.0553 38.5037 16.9231 38.4903 16.8101L38.4902 16.8092C38.4592 16.552 38.3537 16.2988 38.1434 16.1108C37.9326 15.9225 37.6658 15.8437 37.3952 15.8435L17.8087 14.1221ZM29.0626 16.1789C28.8441 16.4205 28.7809 16.7328 28.7808 17.0209L29.9009 15.8435C29.9008 15.8435 29.9006 15.8435 29.9004 15.8435C29.6015 15.8436 29.29 15.9275 29.0626 16.1789Z" stroke="#C8D0DB"/>
<path d="M30.677 17.9107V17.9254C30.641 17.9254 30.6271 17.9273 30.6271 17.9271C30.6271 17.9271 30.6292 17.9267 30.6331 17.9259C30.6407 17.9241 30.6553 17.9201 30.674 17.912L30.6751 17.7387H30.3635L30.6751 17.738L30.677 17.9107ZM30.677 17.9107V17.7387M30.677 17.9107C30.7053 17.8981 30.7423 17.8765 30.7788 17.8399C30.8149 17.8036 30.8363 17.7669 30.8488 17.7387M30.677 17.7387L30.8635 17.7376C30.8635 17.7378 30.8635 17.738 30.8635 17.7382C30.8635 17.7384 30.8635 17.7385 30.8635 17.7387H30.8488M30.677 17.7387H30.8488M30.677 17.7387H30.8488M33.0456 22.9147L33.0456 22.9147C33.0329 23.2085 32.887 23.4595 32.7068 23.6289C32.5272 23.7976 32.2661 23.9295 31.969 23.9184L33.0456 22.9147ZM33.0456 22.9147L33.0457 22.912M33.0456 22.9147L33.0457 22.912M33.0457 22.912C33.0568 22.6146 32.9253 22.353 32.7561 22.1728C32.5865 21.9922 32.3353 21.8465 32.0415 21.8339L32.0201 22.3334M33.0457 22.912L32.0201 22.3334M32.0201 22.3334C32.2993 22.3454 32.5563 22.6193 32.546 22.8932L32.0201 22.3334ZM32.0201 22.3334L32.0421 21.8339C31.742 21.8207 31.479 21.9549 31.2998 22.1237C31.1201 22.293 30.9729 22.5451 30.962 22.8404L32.0201 22.3334ZM31.2525 23.5811C31.0829 23.4008 30.9509 23.1387 30.962 22.8405L31.2525 23.5811ZM31.2525 23.5811C31.4223 23.7614 31.6742 23.9074 31.9687 23.9184L31.2525 23.5811ZM30.8639 17.9265C32.7143 17.937 34.5647 17.937 36.4151 17.9265C36.4071 19.3225 36.4079 20.7179 36.4088 22.112C36.4091 22.5489 36.4094 22.9856 36.4094 23.4222C36.4094 23.8588 36.4091 24.2956 36.4088 24.7326C36.4079 26.127 36.4071 27.523 36.4151 28.9179C34.5647 28.9074 32.7143 28.9074 30.8639 28.9179C30.8719 25.2546 30.8719 21.5898 30.8639 17.9265Z" stroke="#C8D0DB"/>
<path d="M16.7527 12.9471C16.6893 12.8992 16.6345 12.8615 16.5814 12.8204C16.2816 12.5979 15.9886 12.3633 15.6803 12.1545C15.4832 12.0227 15.5072 11.9593 15.6871 11.8292C17.2563 10.6925 18.817 9.54555 20.3811 8.402C23.0793 6.4316 25.7791 4.46292 28.4773 2.4891C28.6418 2.36926 28.7566 2.29908 28.9673 2.45486C33.2227 5.57736 37.4832 8.6896 41.7489 11.7967C41.9716 11.9593 41.9956 12.0466 41.7541 12.1853C41.6461 12.2469 41.5519 12.3308 41.4509 12.4027C41.2042 12.579 40.9746 12.9146 40.7108 12.894C40.4504 12.8735 40.2088 12.5773 39.9621 12.3976C36.4074 9.8126 32.8509 7.22763 29.2962 4.64438C28.7771 4.26776 28.7069 4.26605 28.1947 4.63924C24.4652 7.34918 20.7374 10.0591 17.0096 12.7673C16.9291 12.8255 16.8452 12.882 16.7561 12.9454L16.7527 12.9471Z" fill="#C8D0DB"/>
<path d="M37.4541 7.3372C36.3594 6.54117 35.3213 5.7828 34.2797 5.03128C34.1786 4.95766 34.1838 4.87036 34.1838 4.76764C34.1855 3.98702 34.1906 3.20468 34.1803 2.42405C34.1786 2.23574 34.2249 2.17754 34.4202 2.17925C35.3607 2.18952 36.3012 2.1861 37.2417 2.17925C37.3942 2.17925 37.4593 2.20322 37.4576 2.37783C37.4507 4.00756 37.4541 5.63558 37.4541 7.33549V7.3372Z" fill="#C8D0DB"/>
<path d="M41.2693 27.2329C41.2693 26.5978 41.283 25.9627 41.2641 25.3275C41.2556 25.0314 41.3686 25.0177 41.5999 25.0982C42.1447 25.2882 42.4599 25.8274 42.3383 26.3855C42.2012 27.0052 42.3554 27.2123 42.9704 27.2329C43.5494 27.2534 44 27.7276 44 28.3199C44 28.9105 43.5494 29.395 42.9721 29.4087C42.4839 29.419 41.9956 29.4019 41.5074 29.4156C41.3155 29.4207 41.2607 29.3659 41.2641 29.1725C41.2761 28.5254 41.2693 27.88 41.2693 27.2329Z" fill="#C8D0DB"/>
<path d="M16.201 27.2329C16.201 27.8783 16.1942 28.5237 16.2045 29.1673C16.2079 29.3505 16.1685 29.4224 15.9681 29.4156C15.4935 29.4002 15.0173 29.4156 14.541 29.4087C13.9466 29.4002 13.4772 28.914 13.4772 28.3182C13.4772 27.7242 13.9466 27.2483 14.5462 27.2329C15.0841 27.2192 15.2777 26.9641 15.1526 26.4403C15.0053 25.824 15.3222 25.2574 15.9064 25.0827C16.1051 25.0245 16.2148 25.0297 16.2062 25.2967C16.1873 25.9421 16.201 26.5875 16.201 27.2312V27.2329Z" fill="#C8D0DB"/>
<path d="M35.8198 1.0939C35.1723 1.0939 34.5264 1.08706 33.8788 1.09904C33.687 1.10246 33.6356 1.04939 33.6339 0.855949C33.6236 0.00513497 33.6167 0.00513498 34.4562 0.00513498C35.5457 0.00513498 36.6353 0.0119826 37.7248 -7.20665e-07C37.9458 -0.00171262 38.0058 0.0547801 38.0041 0.277327C37.9989 1.0939 38.0075 1.0939 37.18 1.0939C36.7261 1.0939 36.2721 1.0939 35.8181 1.0939H35.8198Z" fill="#C8D0DB"/>
<path d="M20.5558 19.9488C20.5644 19.1784 20.5644 18.4063 20.5558 17.636C20.5541 17.4734 20.6004 17.4254 20.7648 17.4271C21.3541 17.4374 21.9452 17.4374 22.5362 17.4271C22.7007 17.4254 22.7486 17.4734 22.7452 17.636C22.7332 18.0212 22.7418 18.4063 22.7418 18.7915C22.7418 19.1767 22.7332 19.5636 22.7452 19.9471C22.7504 20.1114 22.7007 20.1576 22.5362 20.1559C21.9469 20.1456 21.3559 20.1456 20.7648 20.1559C20.6004 20.1576 20.5541 20.1097 20.5558 19.9471V19.9488Z" fill="white"/>
<path d="M22.7452 21.4758C22.7332 22.2239 22.7349 22.9737 22.7452 23.7218C22.7486 23.905 22.7127 23.9769 22.5088 23.9717C21.9418 23.9563 21.373 23.9529 20.8077 23.9734C20.5781 23.9803 20.5524 23.8913 20.5576 23.7012C20.5713 23.328 20.561 22.9531 20.561 22.5782C20.561 22.2033 20.5713 21.8524 20.5576 21.4895C20.5507 21.3063 20.5918 21.2344 20.794 21.2395C21.361 21.2549 21.9281 21.2515 22.4951 21.2395C22.6784 21.2361 22.7486 21.2738 22.7452 21.4758Z" fill="white"/>
<path d="M26.0139 19.9505C26.0156 20.1165 25.9676 20.161 25.8049 20.1576C25.2156 20.1491 24.6245 20.1491 24.0352 20.1576C23.869 20.161 23.8228 20.1097 23.8279 19.947C23.8382 19.5619 23.8313 19.1767 23.8313 18.7915C23.8313 18.4063 23.8399 18.0195 23.8279 17.636C23.8228 17.4699 23.8742 17.4254 24.0369 17.4288C24.6262 17.4374 25.2173 17.4374 25.8066 17.4288C25.9728 17.4254 26.0156 17.4768 26.0139 17.6394C26.0053 18.4098 26.0053 19.1818 26.0139 19.9522V19.9505Z" fill="white"/>
<path d="M26.0139 21.4484C26.0053 22.2187 26.0053 22.9908 26.0139 23.7612C26.0156 23.9255 25.9693 23.9717 25.8049 23.97C25.2155 23.9597 24.6245 23.9597 24.0352 23.97C23.8707 23.9734 23.8228 23.9238 23.8262 23.7612C23.8365 23.376 23.8296 22.9908 23.8296 22.6056C23.8296 22.2204 23.8382 21.8336 23.8262 21.4501C23.8211 21.2858 23.8707 21.2395 24.0352 21.2412C24.6245 21.2498 25.2155 21.2498 25.8049 21.2412C25.9693 21.2378 26.0156 21.2858 26.0139 21.4501V21.4484Z" fill="white"/>
<path d="M22.7435 19.9488C22.7486 20.1131 22.699 20.1593 22.5345 20.1576C21.9452 20.1473 21.3542 20.1473 20.7631 20.1576C20.5987 20.1593 20.5524 20.1114 20.5541 19.9488C20.5627 19.1784 20.5627 18.4063 20.5541 17.636C20.5524 17.4734 20.5987 17.4254 20.7631 17.4271C21.3524 17.4374 21.9435 17.4374 22.5345 17.4271C22.699 17.4254 22.7469 17.4734 22.7435 17.636C22.7315 18.0212 22.7401 18.4063 22.7401 18.7915C22.7401 19.1767 22.7315 19.5636 22.7435 19.9471V19.9488Z" fill="#C8D0DB"/>
<path d="M26.0139 19.9505C26.0156 20.1165 25.9676 20.161 25.8049 20.1576C25.2156 20.1491 24.6245 20.1491 24.0352 20.1576C23.869 20.161 23.8228 20.1097 23.8279 19.947C23.8382 19.5619 23.8313 19.1767 23.8313 18.7915C23.8313 18.4063 23.8399 18.0195 23.8279 17.636C23.8228 17.4699 23.8742 17.4254 24.0369 17.4288C24.6262 17.4374 25.2173 17.4374 25.8066 17.4288C25.9728 17.4254 26.0156 17.4768 26.0139 17.6394C26.0053 18.4098 26.0053 19.1818 26.0139 19.9522V19.9505Z" fill="#C8D0DB"/>
<path d="M22.7435 23.7201C22.7469 23.9032 22.711 23.9751 22.5071 23.97C21.9401 23.9546 21.3713 23.9512 20.806 23.9717C20.5764 23.9786 20.5507 23.8896 20.5558 23.6995C20.5695 23.3263 20.5593 22.9514 20.5593 22.5765C20.5593 22.2016 20.5695 21.8507 20.5558 21.4878C20.549 21.3046 20.5901 21.2327 20.7923 21.2378C21.3593 21.2532 21.9263 21.2498 22.4934 21.2378C22.6767 21.2344 22.7469 21.2721 22.7435 21.4741C22.7315 22.2222 22.7332 22.972 22.7435 23.7201Z" fill="#C8D0DB"/>
<path d="M26.0139 23.7612C26.0156 23.9255 25.9693 23.9717 25.8049 23.97C25.2155 23.9597 24.6245 23.9597 24.0352 23.97C23.8707 23.9734 23.8228 23.9238 23.8262 23.7612C23.8365 23.376 23.8296 22.9908 23.8296 22.6056C23.8296 22.2204 23.8382 21.8336 23.8262 21.4501C23.8211 21.2858 23.8707 21.2395 24.0352 21.2412C24.6245 21.2498 25.2155 21.2498 25.8049 21.2412C25.9693 21.2378 26.0156 21.2858 26.0139 21.4501C26.0053 22.2204 26.0053 22.9925 26.0139 23.7629V23.7612Z" fill="#C8D0DB"/>
</g>
<defs>
<clipPath id="clip0_1094_5445">
<rect width="44" height="38.6341" fill="white"/>
</clipPath>
</defs>
</svg>
