<svg width="36" height="36" viewBox="0 0 36 36" fill="none" xmlns="http://www.w3.org/2000/svg">
<path fill-rule="evenodd" clip-rule="evenodd" d="M18.083 2.64201C15.4707 2.64201 13.3529 4.7597 13.3529 7.37204C13.3529 9.98436 15.4707 12.1021 18.083 12.1021C20.6953 12.1021 22.813 9.98436 22.813 7.37204C22.813 4.7597 20.6953 2.64201 18.083 2.64201ZM11.4609 7.37204C11.4609 3.71478 14.4258 0.75 18.083 0.75C21.7403 0.75 24.705 3.71478 24.705 7.37204C24.705 11.0293 21.7403 13.9941 18.083 13.9941C14.4258 13.9941 11.4609 11.0293 11.4609 7.37204Z" fill="#C8D0DB"/>
<path fill-rule="evenodd" clip-rule="evenodd" d="M13.3844 14.8574C12.862 14.8574 12.4384 15.281 12.4384 15.8034C12.4384 16.326 12.862 16.7494 13.3844 16.7494H20.2647C25.1934 16.7494 29.4462 20.2073 30.4518 25.0325L30.8792 27.0838C31.4915 30.0211 29.2493 32.7789 26.2487 32.7789H13.0003V34.6709H26.2487C30.4494 34.6709 33.5886 30.8101 32.7315 26.6978L32.3039 24.6465C31.1156 18.944 26.0896 14.8574 20.2647 14.8574H13.3844Z" fill="#C8D0DB"/>
<path d="M6.74517 20.1113C1.12441 30.7283 6.74517 33.8509 11.3604 33.7325" stroke="#C8D0DB" stroke-width="1.5"/>
<path d="M6.75 20.1104L7.37453 18.8613" stroke="#C8D0DB" stroke-width="1.5"/>
<path d="M4.56758 16.3825L10.7281 16.3107L10.2176 21.8833L4.56758 16.3825Z" fill="#C8D0DB" stroke="#C8D0DB"/>
</svg>
