<svg width="27" height="28" viewBox="0 0 27 28" fill="none" xmlns="http://www.w3.org/2000/svg">
<path d="M1 2C1 1.17157 1.67157 0.5 2.5 0.5H24.5C25.3284 0.5 26 1.17157 26 2V10C26 10.8284 25.3284 11.5 24.5 11.5H2.5C1.67157 11.5 1 10.8284 1 10V2Z" fill="white" stroke="#20336B"/>
<path d="M5.21143 6.67432H4.28613V6.18848H5.21143C5.37256 6.18848 5.50277 6.16243 5.60205 6.11035C5.70133 6.05827 5.77376 5.98665 5.81934 5.89551C5.86654 5.80273 5.89014 5.69694 5.89014 5.57812C5.89014 5.46582 5.86654 5.36084 5.81934 5.26318C5.77376 5.1639 5.70133 5.08415 5.60205 5.02393C5.50277 4.9637 5.37256 4.93359 5.21143 4.93359H4.47412V8H3.86133V4.44531H5.21143C5.48649 4.44531 5.72005 4.49414 5.91211 4.5918C6.10579 4.68783 6.25309 4.82129 6.354 4.99219C6.45492 5.16146 6.50537 5.35514 6.50537 5.57324C6.50537 5.80273 6.45492 5.99967 6.354 6.16406C6.25309 6.32845 6.10579 6.45459 5.91211 6.54248C5.72005 6.63037 5.48649 6.67432 5.21143 6.67432ZM8.45605 7.47021V6.21045C8.45605 6.11605 8.43896 6.03467 8.40479 5.96631C8.37061 5.89795 8.31852 5.84505 8.24854 5.80762C8.18018 5.77018 8.09391 5.75146 7.98975 5.75146C7.89372 5.75146 7.81071 5.76774 7.74072 5.80029C7.67074 5.83285 7.61621 5.87679 7.57715 5.93213C7.53809 5.98747 7.51855 6.05013 7.51855 6.12012H6.93262C6.93262 6.01595 6.95785 5.91504 7.0083 5.81738C7.05876 5.71973 7.132 5.63265 7.22803 5.55615C7.32406 5.47965 7.4388 5.41943 7.57227 5.37549C7.70573 5.33154 7.85547 5.30957 8.02148 5.30957C8.22005 5.30957 8.39583 5.34294 8.54883 5.40967C8.70345 5.4764 8.82471 5.57731 8.9126 5.7124C9.00212 5.84587 9.04688 6.01351 9.04688 6.21533V7.38965C9.04688 7.51009 9.05501 7.61833 9.07129 7.71436C9.08919 7.80876 9.11442 7.89095 9.14697 7.96094V8H8.54395C8.51628 7.93652 8.4943 7.85596 8.47803 7.7583C8.46338 7.65902 8.45605 7.56299 8.45605 7.47021ZM8.5415 6.39355L8.54639 6.75732H8.12402C8.01497 6.75732 7.91895 6.7679 7.83594 6.78906C7.75293 6.80859 7.68376 6.83789 7.62842 6.87695C7.57308 6.91602 7.53158 6.96322 7.50391 7.01855C7.47624 7.07389 7.4624 7.13656 7.4624 7.20654C7.4624 7.27653 7.47868 7.34082 7.51123 7.39941C7.54378 7.45638 7.59098 7.50114 7.65283 7.53369C7.71631 7.56624 7.79281 7.58252 7.88232 7.58252C8.00277 7.58252 8.10775 7.55811 8.19727 7.50928C8.28841 7.45882 8.36003 7.39779 8.41211 7.32617C8.46419 7.25293 8.49186 7.18376 8.49512 7.11865L8.68555 7.37988C8.66602 7.44661 8.63265 7.51823 8.58545 7.59473C8.53825 7.67122 8.4764 7.74447 8.3999 7.81445C8.32503 7.88281 8.2347 7.93896 8.12891 7.98291C8.02474 8.02686 7.9043 8.04883 7.76758 8.04883C7.59505 8.04883 7.44124 8.01465 7.30615 7.94629C7.17106 7.8763 7.06527 7.78271 6.98877 7.66553C6.91227 7.54671 6.87402 7.41243 6.87402 7.2627C6.87402 7.12272 6.90007 6.99902 6.95215 6.8916C7.00586 6.78255 7.08398 6.69141 7.18652 6.61816C7.29069 6.54492 7.41764 6.48958 7.56738 6.45215C7.71712 6.41309 7.88802 6.39355 8.08008 6.39355H8.5415ZM10.3896 7.71191L11.1074 5.3584H11.7373L10.6777 8.40283C10.6533 8.46794 10.6216 8.53874 10.5825 8.61523C10.5435 8.69173 10.4922 8.76416 10.4287 8.83252C10.3669 8.90251 10.2896 8.95866 10.1968 9.00098C10.104 9.04492 9.9917 9.06689 9.85986 9.06689C9.80778 9.06689 9.75732 9.06201 9.7085 9.05225C9.6613 9.04411 9.61654 9.03516 9.57422 9.02539L9.57178 8.57617C9.58805 8.5778 9.60758 8.57943 9.63037 8.58105C9.65479 8.58268 9.67432 8.5835 9.68896 8.5835C9.78662 8.5835 9.868 8.57129 9.93311 8.54688C9.99821 8.52409 10.0511 8.48665 10.0918 8.43457C10.1341 8.38249 10.1699 8.3125 10.1992 8.22461L10.3896 7.71191ZM9.98438 5.3584L10.6118 7.33594L10.7168 7.95605L10.3091 8.06104L9.34961 5.3584H9.98438ZM16.1978 4.44531V8H15.585L13.9907 5.45361V8H13.3779V4.44531H13.9907L15.5898 6.99658V4.44531H16.1978ZM16.7568 6.7085V6.65234C16.7568 6.46191 16.7845 6.28532 16.8398 6.12256C16.8952 5.95817 16.9749 5.81576 17.0791 5.69531C17.1849 5.57324 17.3135 5.47884 17.4648 5.41211C17.6178 5.34375 17.7904 5.30957 17.9824 5.30957C18.1761 5.30957 18.3486 5.34375 18.5 5.41211C18.653 5.47884 18.7824 5.57324 18.8882 5.69531C18.994 5.81576 19.0745 5.95817 19.1299 6.12256C19.1852 6.28532 19.2129 6.46191 19.2129 6.65234V6.7085C19.2129 6.89893 19.1852 7.07552 19.1299 7.23828C19.0745 7.40104 18.994 7.54346 18.8882 7.66553C18.7824 7.78597 18.6538 7.88037 18.5024 7.94873C18.3511 8.01546 18.1794 8.04883 17.9873 8.04883C17.7936 8.04883 17.6203 8.01546 17.4673 7.94873C17.3159 7.88037 17.1873 7.78597 17.0815 7.66553C16.9757 7.54346 16.8952 7.40104 16.8398 7.23828C16.7845 7.07552 16.7568 6.89893 16.7568 6.7085ZM17.3452 6.65234V6.7085C17.3452 6.82731 17.3574 6.93962 17.3818 7.04541C17.4062 7.1512 17.4445 7.24398 17.4966 7.32373C17.5487 7.40348 17.6154 7.46615 17.6968 7.51172C17.7782 7.55729 17.875 7.58008 17.9873 7.58008C18.0964 7.58008 18.1908 7.55729 18.2705 7.51172C18.3519 7.46615 18.4186 7.40348 18.4707 7.32373C18.5228 7.24398 18.561 7.1512 18.5854 7.04541C18.6115 6.93962 18.6245 6.82731 18.6245 6.7085V6.65234C18.6245 6.53516 18.6115 6.42448 18.5854 6.32031C18.561 6.21452 18.522 6.12093 18.4683 6.03955C18.4162 5.95817 18.3494 5.89469 18.2681 5.84912C18.1883 5.80192 18.0931 5.77832 17.9824 5.77832C17.8717 5.77832 17.7757 5.80192 17.6943 5.84912C17.6146 5.89469 17.5487 5.95817 17.4966 6.03955C17.4445 6.12093 17.4062 6.21452 17.3818 6.32031C17.3574 6.42448 17.3452 6.53516 17.3452 6.65234ZM20.4238 7.41406L21.0342 5.3584H21.4102L21.3076 5.97363L20.6924 8H20.3555L20.4238 7.41406ZM20.0649 5.3584L20.541 7.42383L20.5801 8H20.2041L19.4888 5.3584H20.0649ZM21.9814 7.39941L22.4429 5.3584H23.0166L22.3037 8H21.9277L21.9814 7.39941ZM21.4736 5.3584L22.0767 7.38965L22.1523 8H21.8154L21.1929 5.97119L21.0903 5.3584H21.4736Z" fill="#20336B"/>
<path d="M13.1605 25.6422L13.2256 23.8258L13.0294 23.6778C10.9192 22.0854 9.38297 19.851 8.65166 17.3106C8.57539 17.0457 8.58446 16.7634 8.67758 16.504C8.77069 16.2445 8.94314 16.0209 9.17045 15.8649C9.74077 15.4734 10.517 15.5917 10.9449 16.1353L12.2311 17.769L12.522 9.64004C12.5459 8.97202 13.1068 8.44982 13.7749 8.47374C14.4429 8.4976 14.9651 9.0586 14.9412 9.72662L14.6888 16.7792L14.6464 17.9659L14.7946 13.8227C14.8186 13.1547 15.3795 12.6325 16.0475 12.6564C16.7155 12.6803 17.2377 13.2413 17.2138 13.9092L17.0864 17.4703L17.0655 18.0524L17.1856 14.6977C17.2095 14.0297 17.7704 13.5075 18.4385 13.5314C19.1065 13.5553 19.6287 14.1163 19.6047 14.7843L19.5056 17.5568L19.4847 18.139L19.5552 16.1706C19.5791 15.5025 20.14 14.9804 20.808 15.0043C21.4761 15.0281 21.9983 15.5891 21.9743 16.2571L21.8075 20.9213C21.767 22.0508 21.2953 23.1219 20.4892 23.9142L20.4181 25.902L13.1605 25.6422Z" stroke="#20336B" stroke-width="0.5"/>
<rect x="12.5" y="10" width="2" height="2" fill="white"/>
</svg>
