<svg width="492" height="589" viewBox="0 0 492 589" fill="none" xmlns="http://www.w3.org/2000/svg">
<rect x="196.5" y="0.5" width="95" height="95" rx="7.5" fill="white" stroke="#C8D0DB"/>
<path d="M231.478 51.0938C231.911 51.0938 232.261 51.444 232.261 51.8764V62.8329C232.261 63.265 231.911 63.6155 231.478 63.6155H226.783C226.35 63.6155 226 63.265 226 62.8329V51.8764C226 51.444 226.35 51.0938 226.783 51.0938H231.478Z" stroke="#C8D0DB"/>
<path d="M232.266 61.3663C248.7 66.8445 243.222 66.8445 262.005 57.4532C260.924 55.9968 259.048 55.3715 257.309 55.888L250.554 58.0276" stroke="#C8D0DB"/>
<path d="M232.266 52.6582H236.961C240.644 52.6582 243.222 55.7886 244.005 55.7886H249.483C251.048 55.7886 251.048 58.9191 249.483 58.9191H240.874" stroke="#C8D0DB"/>
<path d="M253.155 40.9165H251.612V39.4339H253.155C253.386 39.4339 253.574 39.2461 253.574 39.0143C253.574 38.7824 253.386 38.5946 253.155 38.5946H251.612V36.5374C251.612 36.2371 251.553 36.0167 251.436 35.8825C251.324 35.7547 251.178 35.6953 250.976 35.6953C250.783 35.6953 250.642 35.7543 250.533 35.8813C250.417 36.0157 250.359 36.2365 250.359 36.5376V38.5949H247.457L246.223 36.7278C246.123 36.57 246.023 36.4125 245.922 36.2553C245.835 36.1204 245.75 36.0105 245.67 35.9285C245.6 35.8559 245.519 35.7997 245.425 35.7565C245.336 35.7159 245.222 35.6954 245.088 35.6954C244.918 35.6954 244.763 35.7422 244.614 35.8384C244.467 35.9335 244.366 36.0511 244.304 36.1978C244.249 36.3373 244.22 36.5511 244.22 36.827V38.5947H242.693C242.461 38.5948 242.273 38.7826 242.273 39.0144C242.273 39.2463 242.461 39.434 242.693 39.434H244.22V40.9167H242.693C242.461 40.9167 242.273 41.1045 242.273 41.3364C242.273 41.5682 242.461 41.7558 242.693 41.7558H244.22V44.1046C244.22 44.396 244.282 44.6142 244.403 44.7528C244.518 44.885 244.664 44.9464 244.863 44.9464C245.055 44.9464 245.2 44.8847 245.32 44.7523C245.443 44.6166 245.506 44.3986 245.506 44.1046V41.7558H248.131L249.552 43.9347C249.652 44.0796 249.753 44.2236 249.855 44.3667C249.947 44.4947 250.047 44.6075 250.152 44.7017C250.248 44.7869 250.35 44.8493 250.456 44.8874C250.565 44.9267 250.692 44.9467 250.834 44.9467C251.218 44.9467 251.612 44.829 251.612 43.9566V41.7558H253.155C253.386 41.7558 253.574 41.5679 253.574 41.3361C253.574 41.1044 253.386 40.9165 253.155 40.9165ZM250.359 39.4338V40.9164H248.991L248.012 39.4338H250.359ZM245.506 37.7303L246.069 38.5946H245.506V37.7303ZM245.506 40.9165V39.4339H246.617L247.584 40.9165H245.506ZM250.359 42.9858L249.546 41.7558H250.359V42.9858Z" fill="#C8D0DB"/>
<circle cx="247.915" cy="40.3913" r="8.8913" stroke="#C8D0DB"/>
<rect x="165.5" y="139.5" width="156" height="95" rx="7.5" fill="white" stroke="#C8D0DB"/>
<path d="M231.478 190.094C231.911 190.094 232.261 190.444 232.261 190.876V201.833C232.261 202.265 231.911 202.615 231.478 202.615H226.783C226.35 202.615 226 202.265 226 201.833V190.876C226 190.444 226.35 190.094 226.783 190.094H231.478Z" stroke="#C8D0DB"/>
<path d="M232.266 200.366C248.7 205.845 243.222 205.845 262.005 196.453C260.924 194.997 259.048 194.371 257.309 194.888L250.554 197.028" stroke="#C8D0DB"/>
<path d="M232.266 191.658H236.961C240.644 191.658 243.222 194.789 244.005 194.789H249.483C251.048 194.789 251.048 197.919 249.483 197.919H240.874" stroke="#C8D0DB"/>
<path d="M253.155 179.916H251.612V178.434H253.155C253.386 178.434 253.574 178.246 253.574 178.014C253.574 177.782 253.386 177.595 253.155 177.595H251.612V175.537C251.612 175.237 251.553 175.017 251.436 174.882C251.324 174.755 251.178 174.695 250.976 174.695C250.783 174.695 250.642 174.754 250.533 174.881C250.417 175.016 250.359 175.236 250.359 175.538V177.595H247.457L246.223 175.728C246.123 175.57 246.023 175.412 245.922 175.255C245.835 175.12 245.75 175.011 245.67 174.929C245.6 174.856 245.519 174.8 245.425 174.757C245.336 174.716 245.222 174.695 245.088 174.695C244.918 174.695 244.763 174.742 244.614 174.838C244.467 174.933 244.366 175.051 244.304 175.198C244.249 175.337 244.22 175.551 244.22 175.827V177.595H242.693C242.461 177.595 242.273 177.783 242.273 178.014C242.273 178.246 242.461 178.434 242.693 178.434H244.22V179.917H242.693C242.461 179.917 242.273 180.105 242.273 180.336C242.273 180.568 242.461 180.756 242.693 180.756H244.22V183.105C244.22 183.396 244.282 183.614 244.403 183.753C244.518 183.885 244.664 183.946 244.863 183.946C245.055 183.946 245.2 183.885 245.32 183.752C245.443 183.617 245.506 183.399 245.506 183.105V180.756H248.131L249.552 182.935C249.652 183.08 249.753 183.224 249.855 183.367C249.947 183.495 250.047 183.607 250.152 183.702C250.248 183.787 250.35 183.849 250.456 183.887C250.565 183.927 250.692 183.947 250.834 183.947C251.218 183.947 251.612 183.829 251.612 182.957V180.756H253.155C253.386 180.756 253.574 180.568 253.574 180.336C253.574 180.104 253.386 179.916 253.155 179.916ZM250.359 178.434V179.916H248.991L248.012 178.434H250.359ZM245.506 176.73L246.069 177.595H245.506V176.73ZM245.506 179.916V178.434H246.617L247.584 179.916H245.506ZM250.359 181.986L249.546 180.756H250.359V181.986Z" fill="#C8D0DB"/>
<circle cx="247.915" cy="179.391" r="8.8913" stroke="#C8D0DB"/>
<rect x="132.5" y="333.5" width="95" height="95" rx="7.5" fill="white" stroke="#C8D0DB"/>
<path d="M167.478 384.094C167.911 384.094 168.261 384.444 168.261 384.876V395.833C168.261 396.265 167.911 396.615 167.478 396.615H162.783C162.35 396.615 162 396.265 162 395.833V384.876C162 384.444 162.35 384.094 162.783 384.094H167.478Z" stroke="#C8D0DB"/>
<path d="M168.266 394.366C184.7 399.845 179.222 399.845 198.005 390.453C196.924 388.997 195.048 388.371 193.309 388.888L186.554 391.028" stroke="#C8D0DB"/>
<path d="M168.266 385.658H172.961C176.644 385.658 179.222 388.789 180.005 388.789H185.483C187.048 388.789 187.048 391.919 185.483 391.919H176.874" stroke="#C8D0DB"/>
<path d="M189.155 373.916H187.612V372.434H189.155C189.386 372.434 189.574 372.246 189.574 372.014C189.574 371.782 189.386 371.595 189.155 371.595H187.612V369.537C187.612 369.237 187.553 369.017 187.436 368.882C187.324 368.755 187.178 368.695 186.976 368.695C186.783 368.695 186.642 368.754 186.533 368.881C186.417 369.016 186.359 369.236 186.359 369.538V371.595H183.457L182.223 369.728C182.123 369.57 182.023 369.412 181.922 369.255C181.835 369.12 181.75 369.011 181.67 368.929C181.6 368.856 181.519 368.8 181.425 368.757C181.336 368.716 181.222 368.695 181.088 368.695C180.918 368.695 180.763 368.742 180.614 368.838C180.467 368.933 180.366 369.051 180.304 369.198C180.249 369.337 180.22 369.551 180.22 369.827V371.595H178.693C178.461 371.595 178.273 371.783 178.273 372.014C178.273 372.246 178.461 372.434 178.693 372.434H180.22V373.917H178.693C178.461 373.917 178.273 374.105 178.273 374.336C178.273 374.568 178.461 374.756 178.693 374.756H180.22V377.105C180.22 377.396 180.282 377.614 180.403 377.753C180.518 377.885 180.664 377.946 180.863 377.946C181.055 377.946 181.2 377.885 181.32 377.752C181.443 377.617 181.506 377.399 181.506 377.105V374.756H184.131L185.552 376.935C185.652 377.08 185.753 377.224 185.855 377.367C185.947 377.495 186.047 377.607 186.152 377.702C186.248 377.787 186.35 377.849 186.456 377.887C186.565 377.927 186.692 377.947 186.834 377.947C187.218 377.947 187.612 377.829 187.612 376.957V374.756H189.155C189.386 374.756 189.574 374.568 189.574 374.336C189.574 374.104 189.386 373.916 189.155 373.916ZM186.359 372.434V373.916H184.991L184.012 372.434H186.359ZM181.506 370.73L182.069 371.595H181.506V370.73ZM181.506 373.916V372.434H182.617L183.584 373.916H181.506ZM186.359 375.986L185.546 374.756H186.359V375.986Z" fill="#C8D0DB"/>
<circle cx="183.915" cy="373.391" r="8.8913" stroke="#C8D0DB"/>
<rect x="264.5" y="301.5" width="95" height="95" rx="7.5" fill="white" stroke="#C8D0DB"/>
<path d="M299.478 352.094C299.911 352.094 300.261 352.444 300.261 352.876V363.833C300.261 364.265 299.911 364.615 299.478 364.615H294.783C294.35 364.615 294 364.265 294 363.833V352.876C294 352.444 294.35 352.094 294.783 352.094H299.478Z" stroke="#C8D0DB"/>
<path d="M300.266 362.366C316.7 367.845 311.222 367.845 330.005 358.453C328.924 356.997 327.048 356.371 325.309 356.888L318.554 359.028" stroke="#C8D0DB"/>
<path d="M300.266 353.658H304.961C308.644 353.658 311.222 356.789 312.005 356.789H317.483C319.048 356.789 319.048 359.919 317.483 359.919H308.874" stroke="#C8D0DB"/>
<path d="M321.155 341.916H319.612V340.434H321.155C321.386 340.434 321.574 340.246 321.574 340.014C321.574 339.782 321.386 339.595 321.155 339.595H319.612V337.537C319.612 337.237 319.553 337.017 319.436 336.882C319.324 336.755 319.178 336.695 318.976 336.695C318.783 336.695 318.642 336.754 318.533 336.881C318.417 337.016 318.359 337.236 318.359 337.538V339.595H315.457L314.223 337.728C314.123 337.57 314.023 337.412 313.922 337.255C313.835 337.12 313.75 337.011 313.67 336.929C313.6 336.856 313.519 336.8 313.425 336.757C313.336 336.716 313.222 336.695 313.088 336.695C312.918 336.695 312.763 336.742 312.614 336.838C312.467 336.933 312.366 337.051 312.304 337.198C312.249 337.337 312.22 337.551 312.22 337.827V339.595H310.693C310.461 339.595 310.273 339.783 310.273 340.014C310.273 340.246 310.461 340.434 310.693 340.434H312.22V341.917H310.693C310.461 341.917 310.273 342.105 310.273 342.336C310.273 342.568 310.461 342.756 310.693 342.756H312.22V345.105C312.22 345.396 312.282 345.614 312.403 345.753C312.518 345.885 312.664 345.946 312.863 345.946C313.055 345.946 313.2 345.885 313.32 345.752C313.443 345.617 313.506 345.399 313.506 345.105V342.756H316.131L317.552 344.935C317.652 345.08 317.753 345.224 317.855 345.367C317.947 345.495 318.047 345.607 318.152 345.702C318.248 345.787 318.35 345.849 318.456 345.887C318.565 345.927 318.692 345.947 318.834 345.947C319.218 345.947 319.612 345.829 319.612 344.957V342.756H321.155C321.386 342.756 321.574 342.568 321.574 342.336C321.574 342.104 321.386 341.916 321.155 341.916ZM318.359 340.434V341.916H316.991L316.012 340.434H318.359ZM313.506 338.73L314.069 339.595H313.506V338.73ZM313.506 341.916V340.434H314.617L315.584 341.916H313.506ZM318.359 343.986L317.546 342.756H318.359V343.986Z" fill="#C8D0DB"/>
<circle cx="315.915" cy="341.391" r="8.8913" stroke="#C8D0DB"/>
<rect x="396.5" y="205.5" width="95" height="156" rx="7.5" fill="white" stroke="#C8D0DB"/>
<path d="M431.478 287.094C431.911 287.094 432.261 287.444 432.261 287.876V298.833C432.261 299.265 431.911 299.615 431.478 299.615H426.783C426.35 299.615 426 299.265 426 298.833V287.876C426 287.444 426.35 287.094 426.783 287.094H431.478Z" stroke="#C8D0DB"/>
<path d="M432.266 297.366C448.7 302.845 443.222 302.845 462.005 293.453C460.924 291.997 459.048 291.371 457.309 291.888L450.554 294.028" stroke="#C8D0DB"/>
<path d="M432.266 288.658H436.961C440.644 288.658 443.222 291.789 444.005 291.789H449.483C451.048 291.789 451.048 294.919 449.483 294.919H440.874" stroke="#C8D0DB"/>
<path d="M453.155 276.916H451.612V275.434H453.155C453.386 275.434 453.574 275.246 453.574 275.014C453.574 274.782 453.386 274.595 453.155 274.595H451.612V272.537C451.612 272.237 451.553 272.017 451.436 271.882C451.324 271.755 451.178 271.695 450.976 271.695C450.783 271.695 450.642 271.754 450.533 271.881C450.417 272.016 450.359 272.236 450.359 272.538V274.595H447.457L446.223 272.728C446.123 272.57 446.023 272.412 445.922 272.255C445.835 272.12 445.75 272.011 445.67 271.929C445.6 271.856 445.519 271.8 445.425 271.757C445.336 271.716 445.222 271.695 445.088 271.695C444.918 271.695 444.763 271.742 444.614 271.838C444.467 271.933 444.366 272.051 444.304 272.198C444.249 272.337 444.22 272.551 444.22 272.827V274.595H442.693C442.461 274.595 442.273 274.783 442.273 275.014C442.273 275.246 442.461 275.434 442.693 275.434H444.22V276.917H442.693C442.461 276.917 442.273 277.105 442.273 277.336C442.273 277.568 442.461 277.756 442.693 277.756H444.22V280.105C444.22 280.396 444.282 280.614 444.403 280.753C444.518 280.885 444.664 280.946 444.863 280.946C445.055 280.946 445.2 280.885 445.32 280.752C445.443 280.617 445.506 280.399 445.506 280.105V277.756H448.131L449.552 279.935C449.652 280.08 449.753 280.224 449.855 280.367C449.947 280.495 450.047 280.607 450.152 280.702C450.248 280.787 450.35 280.849 450.456 280.887C450.565 280.927 450.692 280.947 450.834 280.947C451.218 280.947 451.612 280.829 451.612 279.957V277.756H453.155C453.386 277.756 453.574 277.568 453.574 277.336C453.574 277.104 453.386 276.916 453.155 276.916ZM450.359 275.434V276.916H448.991L448.012 275.434H450.359ZM445.506 273.73L446.069 274.595H445.506V273.73ZM445.506 276.916V275.434H446.617L447.584 276.916H445.506ZM450.359 278.986L449.546 277.756H450.359V278.986Z" fill="#C8D0DB"/>
<circle cx="447.915" cy="276.391" r="8.8913" stroke="#C8D0DB"/>
<rect x="0.5" y="205.5" width="95" height="156" rx="7.5" fill="white" stroke="#C8D0DB"/>
<path d="M35.4783 287.094C35.9105 287.094 36.2609 287.444 36.2609 287.876V298.833C36.2609 299.265 35.9105 299.615 35.4783 299.615H30.7826C30.3503 299.615 30 299.265 30 298.833V287.876C30 287.444 30.3503 287.094 30.7826 287.094H35.4783Z" stroke="#C8D0DB"/>
<path d="M36.2656 297.366C52.7004 302.845 47.2221 302.845 66.0048 293.453C64.9238 291.997 63.0477 291.371 61.3091 291.888L54.5536 294.028" stroke="#C8D0DB"/>
<path d="M36.2656 288.658H40.9613C44.6442 288.658 47.2221 291.789 48.0048 291.789H53.483C55.0482 291.789 55.0482 294.919 53.483 294.919H44.8743" stroke="#C8D0DB"/>
<path d="M57.1546 276.916H55.612V275.434H57.1546C57.3864 275.434 57.5743 275.246 57.5743 275.014C57.5743 274.782 57.3864 274.595 57.1546 274.595H55.612V272.537C55.612 272.237 55.5526 272.017 55.4357 271.882C55.3245 271.755 55.1783 271.695 54.9759 271.695C54.7827 271.695 54.6421 271.754 54.533 271.881C54.4174 272.016 54.3587 272.236 54.3587 272.538V274.595H51.457L50.2231 272.728C50.1233 272.57 50.0228 272.412 49.9219 272.255C49.835 272.12 49.7504 272.011 49.6704 271.929C49.5996 271.856 49.5189 271.8 49.4246 271.757C49.3355 271.716 49.2223 271.695 49.0884 271.695C48.9176 271.695 48.7625 271.742 48.6141 271.838C48.4671 271.933 48.3656 272.051 48.3035 272.198C48.2491 272.337 48.2203 272.551 48.2203 272.827V274.595H46.693C46.4612 274.595 46.2734 274.783 46.2734 275.014C46.2734 275.246 46.4612 275.434 46.693 275.434H48.2203V276.917H46.693C46.4612 276.917 46.2734 277.105 46.2734 277.336C46.2734 277.568 46.4612 277.756 46.693 277.756H48.2203V280.105C48.2203 280.396 48.2815 280.614 48.4028 280.753C48.5182 280.885 48.6644 280.946 48.863 280.946C49.0546 280.946 49.1997 280.885 49.32 280.752C49.4433 280.617 49.5056 280.399 49.5056 280.105V277.756H52.1314L53.5523 279.935C53.6518 280.08 53.7527 280.224 53.8549 280.367C53.9467 280.495 54.0468 280.607 54.1525 280.702C54.2477 280.787 54.3497 280.849 54.4557 280.887C54.5649 280.927 54.6925 280.947 54.8341 280.947C55.2184 280.947 55.6119 280.829 55.6119 279.957V277.756H57.1546C57.3864 277.756 57.5743 277.568 57.5743 277.336C57.5743 277.104 57.3864 276.916 57.1546 276.916ZM54.3587 275.434V276.916H52.9915L52.0118 275.434H54.3587ZM49.5056 273.73L50.0694 274.595H49.5056V273.73ZM49.5056 276.916V275.434H50.6169L51.584 276.916H49.5056ZM54.3587 278.986L53.5461 277.756H54.3587V278.986Z" fill="#C8D0DB"/>
<circle cx="51.9147" cy="276.391" r="8.8913" stroke="#C8D0DB"/>
<rect x="136.5" y="469.5" width="215" height="119" rx="7.5" fill="white" stroke="#C8D0DB"/>
<path d="M231.478 531.094C231.911 531.094 232.261 531.444 232.261 531.876V542.833C232.261 543.265 231.911 543.615 231.478 543.615H226.783C226.35 543.615 226 543.265 226 542.833V531.876C226 531.444 226.35 531.094 226.783 531.094H231.478Z" stroke="#C8D0DB"/>
<path d="M232.266 541.366C248.7 546.845 243.222 546.845 262.005 537.453C260.924 535.997 259.048 535.371 257.309 535.888L250.554 538.028" stroke="#C8D0DB"/>
<path d="M232.266 532.658H236.961C240.644 532.658 243.222 535.789 244.005 535.789H249.483C251.048 535.789 251.048 538.919 249.483 538.919H240.874" stroke="#C8D0DB"/>
<path d="M253.155 520.916H251.612V519.434H253.155C253.386 519.434 253.574 519.246 253.574 519.014C253.574 518.782 253.386 518.595 253.155 518.595H251.612V516.537C251.612 516.237 251.553 516.017 251.436 515.882C251.324 515.755 251.178 515.695 250.976 515.695C250.783 515.695 250.642 515.754 250.533 515.881C250.417 516.016 250.359 516.236 250.359 516.538V518.595H247.457L246.223 516.728C246.123 516.57 246.023 516.412 245.922 516.255C245.835 516.12 245.75 516.011 245.67 515.929C245.6 515.856 245.519 515.8 245.425 515.757C245.336 515.716 245.222 515.695 245.088 515.695C244.918 515.695 244.763 515.742 244.614 515.838C244.467 515.933 244.366 516.051 244.304 516.198C244.249 516.337 244.22 516.551 244.22 516.827V518.595H242.693C242.461 518.595 242.273 518.783 242.273 519.014C242.273 519.246 242.461 519.434 242.693 519.434H244.22V520.917H242.693C242.461 520.917 242.273 521.105 242.273 521.336C242.273 521.568 242.461 521.756 242.693 521.756H244.22V524.105C244.22 524.396 244.282 524.614 244.403 524.753C244.518 524.885 244.664 524.946 244.863 524.946C245.055 524.946 245.2 524.885 245.32 524.752C245.443 524.617 245.506 524.399 245.506 524.105V521.756H248.131L249.552 523.935C249.652 524.08 249.753 524.224 249.855 524.367C249.947 524.495 250.047 524.607 250.152 524.702C250.248 524.787 250.35 524.849 250.456 524.887C250.565 524.927 250.692 524.947 250.834 524.947C251.218 524.947 251.612 524.829 251.612 523.957V521.756H253.155C253.386 521.756 253.574 521.568 253.574 521.336C253.574 521.104 253.386 520.916 253.155 520.916ZM250.359 519.434V520.916H248.991L248.012 519.434H250.359ZM245.506 517.73L246.069 518.595H245.506V517.73ZM245.506 520.916V519.434H246.617L247.584 520.916H245.506ZM250.359 522.986L249.546 521.756H250.359V522.986Z" fill="#C8D0DB"/>
<circle cx="247.915" cy="520.391" r="8.8913" stroke="#C8D0DB"/>
</svg>
