<svg width="31" height="32" viewBox="0 0 31 32" fill="none" xmlns="http://www.w3.org/2000/svg">
<path d="M1.375 12.1256L6.08654 7.41406" stroke="#C8D0DB"/>
<path d="M1.375 18.8555L6.08654 23.567" stroke="#C8D0DB"/>
<path d="M13.4826 23.5679H2.04026C1.66853 23.5679 1.36719 23.2665 1.36719 22.8948V8.08714C1.36719 7.71541 1.66853 7.41406 2.04026 7.41406H28.9633C29.335 7.41406 29.6364 7.71541 29.6364 8.08714V22.2218" stroke="#C8D0DB"/>
<path d="M29.6412 12.1256L24.9297 7.41406" stroke="#C8D0DB"/>
<path d="M8.28906 26.6543L9.44945 28.2778V31.6431" stroke="#C8D0DB"/>
<path d="M10.7885 6.74031C10.7885 6.72281 10.7885 6.70665 10.7885 6.68915C10.7885 5.57396 9.88443 4.66992 8.76923 4.66992C7.65404 4.66992 6.75 5.57396 6.75 6.68915C6.75 6.70665 6.75 6.72281 6.75 6.74031V7.41338" stroke="#C8D0DB"/>
<path d="M14.8275 7.41383V5.3946C14.8275 5.3771 14.8275 5.36095 14.8275 5.34345C14.8275 4.22826 13.9235 3.32422 12.8083 3.32422C11.6931 3.32422 10.7891 4.22826 10.7891 5.34345C10.7891 5.36095 10.7891 5.3771 10.7891 5.3946V7.41383" stroke="#C8D0DB"/>
<path d="M18.8666 7.41316V3.42585C18.8666 3.40835 18.8666 3.3922 18.8666 3.3747C18.8666 2.25951 17.9625 1.35547 16.8474 1.35547C15.7322 1.35547 14.8281 2.25951 14.8281 3.3747C14.8281 3.3922 14.8281 3.40835 14.8281 3.42585V7.41316" stroke="#C8D0DB"/>
<path d="M22.9056 7.41383V5.3946C22.9056 5.3771 22.9056 5.36095 22.9056 5.34345C22.9056 4.22826 22.0016 3.32422 20.8864 3.32422C19.7713 3.32422 18.8672 4.22826 18.8672 5.34345C18.8672 5.36095 18.8672 5.3771 18.8672 5.3946V6.74076" stroke="#C8D0DB"/>
<path d="M21.5619 31.6447V30.2985C21.5619 29.4511 21.9609 28.6531 22.6388 28.1447L25.8696 25.7216C26.5475 25.2132 26.9465 24.4152 26.9465 23.5678V17.4683C26.9465 17.4589 26.9398 17.4508 26.9398 17.4414C26.8938 16.4274 26.1019 15.605 25.0903 15.5207C24.0785 15.4364 23.1617 16.1164 22.9484 17.1089C22.8875 17.2201 22.8422 17.3392 22.8138 17.463L22.41 20.2454C22.2925 21.0674 21.8022 21.7892 21.0813 22.2014L18.8696 23.4654C18.0346 23.9475 17.521 24.8395 17.5234 25.8037V27.6062" stroke="#C8D0DB"/>
<path d="M10.6094 14.543H20.3996" stroke="#C8D0DB" stroke-linecap="square"/>
<path d="M10.6094 16.5H20.3996" stroke="#C8D0DB" stroke-linecap="square"/>
<path d="M18.4431 19.4376H17.4641L13.548 11.6055H12.5078V19.4376" stroke="#C8D0DB" stroke-linecap="square"/>
<path d="M18.5 19.4376V11.6055" stroke="#C8D0DB" stroke-linecap="square"/>
</svg>
