<svg width="36" height="36" viewBox="0 0 36 36" fill="none" xmlns="http://www.w3.org/2000/svg">
<path d="M12.1345 27.5579C12.1254 27.5129 12.112 27.4686 12.0945 27.4257C12.0769 27.3835 12.0551 27.3427 12.0298 27.3048C12.0044 27.2662 11.9752 27.2304 11.9426 27.1979C11.91 27.1652 11.8742 27.136 11.8357 27.1107C11.7974 27.0851 11.7566 27.0635 11.714 27.046C11.6718 27.0284 11.6275 27.0143 11.5825 27.0059C11.492 26.9876 11.3988 26.9876 11.3083 27.0059C11.2633 27.0143 11.219 27.0284 11.1761 27.046C11.1339 27.0636 11.0931 27.0854 11.0551 27.1107C11.0164 27.136 10.9806 27.1655 10.9482 27.1979C10.9159 27.2302 10.8863 27.2661 10.861 27.3048C10.835 27.3427 10.8139 27.3835 10.7963 27.4257C10.7785 27.4683 10.7651 27.5126 10.7563 27.5579C10.7471 27.6029 10.7422 27.6493 10.7422 27.695C10.7422 27.7408 10.7471 27.7872 10.7563 27.8322C10.7647 27.8772 10.7788 27.9215 10.7963 27.9637C10.8139 28.0066 10.835 28.0474 10.861 28.0853C10.8863 28.124 10.9159 28.1599 10.9482 28.1922C10.9806 28.2246 11.0164 28.2541 11.0551 28.2794C11.0931 28.3048 11.1339 28.3266 11.1761 28.3442C11.219 28.3618 11.2633 28.3758 11.3083 28.3843C11.3533 28.3934 11.3997 28.3983 11.4454 28.3983C11.4911 28.3983 11.5375 28.3934 11.5825 28.3843C11.6275 28.3758 11.6718 28.3618 11.714 28.3442C11.7569 28.3266 11.7977 28.3047 11.8357 28.2794C11.8742 28.2541 11.91 28.2249 11.9426 28.1922C11.9749 28.1599 12.0044 28.124 12.0298 28.0853C12.0551 28.0474 12.0769 28.0066 12.0945 27.9637C12.1298 27.8785 12.1482 27.7873 12.1486 27.695C12.1486 27.6493 12.1437 27.6029 12.1345 27.5579Z" fill="#C8D0DB"/>
<path d="M32.3471 27.7746C32.3444 27.7676 32.3416 27.7606 32.3386 27.7537C31.6914 26.2392 30.1735 25.6795 28.377 26.293L23.4779 27.6478C23.1947 26.79 22.4881 26.0601 21.4892 25.6894C21.483 25.6871 21.4768 25.6849 21.4705 25.6828L16.0853 23.855C15.6371 23.2756 14.233 21.7931 11.6042 21.7931C9.76709 21.7931 8.1419 23.0534 7.21212 24.4271H0.70321C0.314827 24.4271 0 24.7419 0 25.1303V33.9962C0 34.3846 0.314827 34.6994 0.70321 34.6994H4.88428C5.27267 34.6994 5.58749 34.3846 5.58749 33.9962V33.389H7.54825C7.93663 33.389 8.25146 33.0742 8.25146 32.6858V32.4834C9.39446 32.5832 9.77039 32.8 10.8201 33.4053C11.6274 33.8708 12.8476 34.5744 15.0448 35.5623C15.055 35.5669 15.0654 35.5712 15.0757 35.5753C15.4974 35.7412 16.3218 36.0018 17.3381 36.0018C18.0456 36.0018 18.8462 35.8754 19.6679 35.503L30.4967 31.6257C30.516 31.6188 30.535 31.6111 30.5535 31.6025C31.5885 31.1264 33.1307 29.7845 32.3471 27.7746ZM4.18107 33.2929H1.40642V25.8335H4.18107V33.2929ZM6.84504 31.9825H5.58749V25.8335H6.84504V31.9825ZM29.9916 30.3126L19.1677 34.1881C19.1473 34.1955 19.1273 34.2037 19.1076 34.2126C17.6001 34.9054 16.1672 34.4906 15.6056 34.2723C13.4832 33.3172 12.3504 32.664 11.5227 32.1868C10.372 31.5232 9.81751 31.2034 8.25146 31.0741V25.4103C8.91803 24.3178 10.2107 23.1995 11.6043 23.1995C13.9942 23.1995 15.0069 24.7539 15.0467 24.8166C15.1326 24.9563 15.2645 25.0615 15.4198 25.1142L21.0085 27.0111C21.9011 27.3461 22.3728 28.1105 22.156 28.8727C22.1073 29.046 22.0246 29.2079 21.9129 29.349C21.8012 29.4901 21.6625 29.6077 21.5051 29.6949C21.1908 29.871 20.8195 29.9155 20.4725 29.8185L14.1723 27.8219C13.8018 27.7046 13.4068 27.9096 13.2895 28.2799C13.1721 28.6501 13.3772 29.0453 13.7474 29.1627L20.0586 31.1627C20.0653 31.1648 20.072 31.1668 20.0787 31.1687C20.327 31.2396 20.584 31.2756 20.8422 31.2758C21.309 31.2758 21.7707 31.1569 22.1896 30.9234C22.8375 30.5625 23.306 29.9708 23.5088 29.2574C23.525 29.2004 23.5393 29.1435 23.5518 29.0865L28.8317 27.6238C29.5942 27.3634 30.5952 27.2695 31.0409 28.296C31.5022 29.5011 30.3033 30.164 29.9916 30.3126ZM25.2494 9.24933C25.2403 9.20432 25.2269 9.16002 25.2087 9.11712C25.1911 9.07493 25.17 9.03414 25.144 8.99617C25.1186 8.95765 25.0894 8.92183 25.0568 8.88928C25.0242 8.85663 24.9884 8.82741 24.9499 8.80208C24.9119 8.77677 24.8711 8.75497 24.8289 8.73739C24.7865 8.71968 24.7425 8.70625 24.6974 8.69731C24.6067 8.67902 24.5132 8.67902 24.4225 8.69731C24.3775 8.70574 24.3332 8.71981 24.291 8.73739C24.2481 8.75497 24.2073 8.77677 24.1693 8.80208C24.1306 8.8274 24.0948 8.85693 24.0624 8.88928C24.0301 8.92163 24.0005 8.95749 23.9752 8.99617C23.9499 9.03414 23.9281 9.07493 23.9105 9.11712C23.8927 9.15972 23.8793 9.20401 23.8704 9.24933C23.8613 9.29433 23.8564 9.34074 23.8564 9.38645C23.8564 9.43216 23.8613 9.47857 23.8704 9.52358C23.8789 9.56858 23.893 9.61288 23.9105 9.65508C23.9281 9.69797 23.9499 9.73876 23.9752 9.77673C24.0005 9.81541 24.0301 9.85127 24.0624 9.88362C24.0948 9.91597 24.1306 9.9455 24.1693 9.97082C24.2073 9.99613 24.2481 10.0179 24.291 10.0355C24.3332 10.0531 24.3775 10.0665 24.4225 10.0756C24.4675 10.0847 24.5139 10.0897 24.5596 10.0897C24.6053 10.0897 24.6517 10.0847 24.6974 10.0756C24.7417 10.0665 24.786 10.0531 24.8289 10.0355C24.8711 10.0179 24.9119 9.99613 24.9499 9.97082C24.9884 9.94549 25.0242 9.91627 25.0568 9.88362C25.0891 9.85127 25.1186 9.81541 25.144 9.77673C25.17 9.73876 25.1911 9.69797 25.2087 9.65508C25.2269 9.61288 25.2403 9.56858 25.2494 9.52358C25.2586 9.47857 25.2628 9.43216 25.2628 9.38645C25.2628 9.34074 25.2586 9.29433 25.2494 9.24933Z" fill="#C8D0DB"/>
<path d="M35.2953 2.38161H31.1142C30.7258 2.38161 30.411 2.69644 30.411 3.08482V3.69197H28.4502C28.0618 3.69197 27.747 4.0068 27.747 4.39518V4.59757C26.604 4.49778 26.2281 4.28105 25.1784 3.67573C24.3711 3.2102 23.151 2.50664 20.9537 1.5187C20.9435 1.51408 20.9332 1.50974 20.9227 1.50569C20.2075 1.22427 18.3329 0.670563 16.3308 1.57791L13.5011 2.5911L11.1159 0.205953C10.8413 -0.0686508 10.396 -0.0686508 10.1214 0.205953L2.29062 8.03668C2.03733 8.29005 1.98873 8.72934 2.29062 9.03123L15.6718 22.4124C15.8859 22.6266 16.3873 22.6914 16.6663 22.4124L23.8155 15.2633C24.0014 15.2793 24.1943 15.288 24.3942 15.288C26.2314 15.288 27.8565 14.0277 28.7862 12.654H35.2953C35.6837 12.654 35.9985 12.3392 35.9985 11.9508V3.08482C35.9985 2.69644 35.6837 2.38161 35.2953 2.38161ZM10.6186 1.69767L12.2213 3.30043C11.7449 3.59507 11.1941 3.75273 10.6186 3.75273C10.043 3.75273 9.49226 3.59514 9.01584 3.30043L10.6186 1.69767ZM5.38517 10.1367L3.78241 8.53392L5.38517 6.93117C5.67981 7.40759 5.83747 7.95842 5.83747 8.53392C5.83747 9.10943 5.67988 9.66025 5.38517 10.1367ZM16.1691 20.9206L14.5666 19.3181C15.545 18.7144 16.7931 18.7144 17.7715 19.3181L16.1691 20.9206ZM18.7847 18.3051C17.2307 17.1778 15.1075 17.1778 13.5535 18.3051L6.39828 11.1498C6.94742 10.3945 7.24389 9.48733 7.24389 8.53392C7.24389 7.58044 6.94749 6.6733 6.39828 5.91805L8.00279 4.31361C8.75804 4.86275 9.66518 5.15922 10.6187 5.15922C11.5721 5.15922 12.4793 4.86275 13.2345 4.31361L14.7555 5.83458C14.423 5.884 14.1022 5.99341 13.8088 6.1575C13.3048 6.43836 12.9093 6.85895 12.663 7.36779C11.866 7.5155 11.1325 7.90146 10.5594 8.47471C8.9965 10.0377 8.9965 12.5807 10.5595 14.1436C11.3409 14.925 12.3673 15.3158 13.3939 15.3158C14.4204 15.3158 15.4469 14.9251 16.2284 14.1436C16.7368 13.6352 17.093 13.0103 17.2714 12.3294L19.6457 13.1352C19.3784 14.3734 19.6522 15.676 20.3906 16.6992L18.7847 18.3051ZM14.5093 11.3916C14.5155 11.3939 14.5217 11.3961 14.5279 11.3982L15.9341 11.8755C15.8279 12.3547 15.5876 12.7954 15.2339 13.1492C14.2193 14.1636 12.5684 14.1637 11.554 13.1492C10.5394 12.1346 10.5394 10.4839 11.554 9.46926C11.7966 9.22648 12.0849 9.03414 12.4022 8.90332C12.532 9.98359 13.3098 10.9465 14.5093 11.3916ZM21.4039 15.6858C21.1333 15.244 20.9788 14.741 20.9546 14.2234C21.3372 14.4999 21.7541 14.7256 22.1948 14.8949L21.4039 15.6858ZM27.7469 11.6704C27.0804 12.7631 25.7878 13.8814 24.3942 13.8814C24.1334 13.8814 23.8891 13.8628 23.6606 13.8298L23.6579 13.8294C22.1392 13.6088 21.3223 12.7457 21.053 12.4039C21.0387 12.3828 20.9776 12.3028 20.9685 12.2896C20.8838 12.1378 20.7456 12.0229 20.581 11.9673L14.9899 10.0697C14.0976 9.73479 13.626 8.97076 13.8422 8.20876L13.8426 8.20728L13.8431 8.20552C13.892 8.03276 13.9747 7.87139 14.0863 7.73071C14.1979 7.59004 14.3362 7.47284 14.4933 7.38586C14.8076 7.20961 15.1789 7.16518 15.5259 7.26231L21.8261 9.25879C22.1964 9.3763 22.5916 9.1711 22.7089 8.80086C22.8262 8.43062 22.6213 8.03542 22.251 7.91805L17.2403 6.3302L17.1966 6.28647L17.1952 6.28513L14.6011 3.69099L16.8308 2.89256C16.8383 2.88982 16.8476 2.88638 16.8551 2.88335L16.8625 2.8804C16.872 2.87654 16.8814 2.87246 16.8908 2.86816C18.3982 2.17536 19.8311 2.59004 20.3927 2.80846C22.5152 3.76349 23.6481 4.4167 24.4758 4.89397C25.6265 5.55759 26.181 5.87734 27.7469 6.00666V11.6704ZM30.411 11.2475H29.1534V5.09839H30.411V11.2475ZM34.5921 11.2475H31.8174V3.78803H34.5921V11.2475Z" fill="#C8D0DB"/>
</svg>
