<?xml version="1.0" encoding="utf-8"?>
<svg width="24px" height="24px" viewBox="0 0 24 24" version="1.1" xmlns:xlink="http://www.w3.org/1999/xlink" xmlns="http://www.w3.org/2000/svg">
  <g id="payment-gateway-2">
    <path d="M24 0L24 0L24 24L0 24L0 0L24 0Z" id="payment-gateway-2" fill="#FFFFFF" stroke="none" />
    <g id="payment-gateway-icon" transform="translate(0.5 1.7088013)">
      <path d="M11.9632 1.04529C10.0908 1.30134 8.2998 2.19753 6.96607 3.53621L6.96427 3.538C6.68297 3.81794 6.42163 4.11725 6.18219 4.43373L8.88737 4.43375C9.67036 3.3098 10.6946 2.18091 11.9632 1.04529L11.9632 1.04529ZM0.939316 9.31409L13.7115 9.31409C14.2277 9.31409 14.6508 9.73725 14.6508 10.2534L14.6508 18.6767C14.6508 19.1911 14.2263 19.616 13.7115 19.616L0.939316 19.616C0.424062 19.616 0 19.192 0 18.6767L0 10.2534C0 9.7377 0.423613 9.31409 0.939316 9.31409L0.939316 9.31409ZM3.0996 17.4109C2.93698 17.4109 2.80536 17.2788 2.80536 17.1166C2.80536 16.9545 2.93698 16.8224 3.0996 16.8224L6.12059 16.8224C6.28299 16.8226 6.41458 16.9542 6.41483 17.1166C6.41459 17.279 6.28301 17.4106 6.12061 17.4109L3.0996 17.4109L3.0996 17.4109ZM3.0996 16.0137C2.93698 16.0137 2.80536 15.8821 2.80536 15.72C2.80536 15.5578 2.93698 15.4257 3.0996 15.4257L7.57741 15.4257C7.73981 15.426 7.8714 15.5576 7.87165 15.72C7.87165 15.8821 7.73958 16.0137 7.57741 16.0137L3.0996 16.0137L3.0996 16.0137ZM0.573669 11.3136L14.0772 11.3136L14.0772 10.2534C14.0772 10.0535 13.9114 9.88776 13.7115 9.88776L0.939333 9.88776C0.737185 9.88776 0.573669 10.0513 0.573669 10.2534L0.573669 11.3136L0.573669 11.3136ZM14.0772 13.9546L0.573669 13.9546L0.573669 18.6768C0.573669 18.8771 0.738982 19.0424 0.939333 19.0424L13.7115 19.0424C13.9114 19.0424 14.0772 18.8767 14.0772 18.6768L14.0772 13.9546L14.0772 13.9546ZM20.8208 14.1764C20.8397 14.1764 20.8586 14.1777 20.877 14.1795C21.5688 12.964 21.9551 11.6742 22.0261 10.2668L19.4597 10.2668C19.4035 11.588 19.0123 12.8912 18.2908 14.1764L20.8208 14.1764L20.8208 14.1764ZM20.2458 15.1382L17.6875 15.1382C17.3821 15.5789 17.038 16.0169 16.6543 16.4535L16.6543 14.1764L17.1763 14.1764C17.993 12.8818 18.4377 11.5786 18.5011 10.2669L16.6543 10.2669L16.6543 9.30512L18.4795 9.30512C18.3609 8.02125 17.8807 6.71852 17.033 5.39557L13.6949 5.39557L13.6949 7.48129L12.7331 7.48129L12.7331 5.39557L9.39494 5.39557C8.94572 6.09635 8.60028 6.79129 8.35635 7.48129L7.34695 7.48129C7.56393 6.78815 7.87299 6.09275 8.27504 5.39557L5.54963 5.39557C5.17543 6.05367 4.88074 6.74951 4.68533 7.48129L3.69391 7.48129C3.96389 6.3515 4.45219 5.26619 5.09862 4.30307C5.44647 3.78408 5.84444 3.3005 6.28679 2.85928C8.11871 1.02018 10.6159 0 13.2142 0C13.8876 0 14.5425 0.0637891 15.1782 0.190918C17.6678 0.688652 19.9165 2.19758 21.3298 4.30307C22.4335 5.94721 23 7.79889 23 9.78578C23 11.7758 22.4326 13.6253 21.3298 15.2689C20.2624 16.8583 18.7854 18.0514 17.0299 18.8065C16.9054 18.8596 16.7805 18.9099 16.6543 18.9575L16.6543 17.9225C18.0846 17.3048 19.3061 16.379 20.2458 15.1382L20.2458 15.1382ZM19.4413 9.30512L22.0261 9.30512C21.9551 7.89907 21.5711 6.61385 20.8788 5.39557L18.153 5.39557C18.909 6.70639 19.3366 8.00957 19.4413 9.30512L19.4413 9.30512ZM10.0737 4.43374L12.7331 4.43374L12.7331 1.64185C11.6685 2.58206 10.7826 3.51239 10.0737 4.43374L10.0737 4.43374ZM13.6949 4.43374L16.3547 4.43374C15.6454 3.51239 14.76 2.58206 13.6949 1.64185L13.6949 4.43374L13.6949 4.43374ZM17.5411 4.43378L20.2463 4.43378C18.9691 2.74832 17.0649 1.5489 14.9904 1.13382C14.817 1.09923 14.6423 1.07003 14.4653 1.04578C15.7339 2.18095 16.7576 3.31029 17.5411 4.43378L17.5411 4.43378Z" id="Shape" fill="#20336B" fill-rule="evenodd" stroke="none" />
      <path d="M9.7031 15.082C10.142 15.082 10.5315 15.2936 10.7749 15.6206C11.0189 15.2936 11.4083 15.082 11.8472 15.082C12.5853 15.082 13.1832 15.6804 13.1832 16.418C13.1832 17.1561 12.5853 17.7544 11.8472 17.7544C11.4083 17.7544 11.0189 17.5424 10.7749 17.2158C10.5315 17.5424 10.142 17.7544 9.7031 17.7544C8.96504 17.7544 8.36713 17.1561 8.36713 16.418C8.36713 15.6804 8.96504 15.082 9.7031 15.082L9.7031 15.082Z" id="Shape-path" fill="#3FAFE9" fill-rule="evenodd" stroke="none" />
    </g>
  </g>
</svg>