<svg width="48" height="48" viewBox="0 0 48 48" fill="none" xmlns="http://www.w3.org/2000/svg">
<circle cx="24" cy="24" r="24" fill="#20336B"/>
<path d="M15.6522 26.3945C15.9404 26.3945 16.1739 26.6281 16.1739 26.9163V34.2206C16.1739 34.5087 15.9404 34.7424 15.6522 34.7424H12.5217C12.2336 34.7424 12 34.5087 12 34.2206V26.9163C12 26.6281 12.2336 26.3945 12.5217 26.3945H15.6522Z" stroke="white"/>
<path d="M16.1719 33.2442C27.1284 36.8963 23.4762 36.8963 35.998 30.6355C35.2773 29.6645 34.0266 29.2477 32.8675 29.592L28.3639 31.0184" stroke="white"/>
<path d="M16.1719 27.4375H19.3023C21.7576 27.4375 23.4762 29.5245 23.998 29.5245H27.6501C28.6936 29.5245 28.6936 31.6114 27.6501 31.6114H21.911" stroke="white"/>
<path d="M30.1057 19.6097H29.0773V18.6213H30.1057C30.2602 18.6213 30.3855 18.4961 30.3855 18.3416C30.3855 18.187 30.2602 18.0618 30.1057 18.0618H29.0773V16.6903C29.0773 16.4901 29.0377 16.3432 28.9597 16.2537C28.8856 16.1685 28.7881 16.1289 28.6532 16.1289C28.5244 16.1289 28.4307 16.1683 28.358 16.2529C28.2809 16.3425 28.2418 16.4897 28.2418 16.6904V18.0619H26.3072L25.4847 16.8173C25.4181 16.712 25.3512 16.607 25.2838 16.5022C25.226 16.4123 25.1695 16.3391 25.1162 16.2844C25.069 16.236 25.0152 16.1985 24.9523 16.1697C24.8929 16.1426 24.8175 16.129 24.7282 16.129C24.6143 16.129 24.511 16.1602 24.412 16.2243C24.314 16.2877 24.2463 16.3661 24.205 16.4639C24.1687 16.5569 24.1495 16.6994 24.1495 16.8834V18.0619H23.1312C22.9767 18.0619 22.8516 18.1871 22.8516 18.3416C22.8516 18.4962 22.9767 18.6213 23.1313 18.6213H24.1495V19.6098H23.1313C22.9767 19.6098 22.8516 19.735 22.8516 19.8896C22.8516 20.0442 22.9767 20.1692 23.1313 20.1692H24.1495V21.7351C24.1495 21.9294 24.1903 22.0748 24.2712 22.1672C24.348 22.2554 24.4455 22.2963 24.5779 22.2963C24.7057 22.2963 24.8024 22.2552 24.8826 22.1669C24.9648 22.0764 25.0063 21.9311 25.0063 21.7351V20.1692H26.7569L27.7042 21.6218C27.7705 21.7185 27.8377 21.8145 27.9059 21.9098C27.9671 21.9952 28.0338 22.0703 28.1043 22.1331C28.1677 22.19 28.2357 22.2316 28.3064 22.257C28.3792 22.2832 28.4643 22.2965 28.5587 22.2965C28.8148 22.2965 29.0772 22.218 29.0772 21.6364V20.1692H30.1057C30.2602 20.1692 30.3854 20.044 30.3854 19.8895C30.3855 19.7349 30.2602 19.6097 30.1057 19.6097ZM28.2418 18.6213V19.6096H27.3302L26.6771 18.6213H28.2418ZM25.0063 17.4856L25.3822 18.0618H25.0063V17.4856ZM25.0063 19.6097V18.6213H25.7472L26.3919 19.6097H25.0063ZM28.2418 20.9892L27.7 20.1692H28.2418V20.9892Z" fill="#24BAF2"/>
<circle cx="26.6124" cy="19.2609" r="5.76087" stroke="white"/>
</svg>
