<svg width="36" height="36" viewBox="0 0 36 36" fill="none" xmlns="http://www.w3.org/2000/svg">
<path fill-rule="evenodd" clip-rule="evenodd" d="M6.89062 5.5H33.2506C33.8029 5.5 34.2506 5.94772 34.2506 6.5V24.58C34.2506 25.1323 33.8029 25.58 33.2506 25.58H17.1094C17.0375 25.9212 16.9472 26.255 16.8395 26.58H33.2506C34.3552 26.58 35.2506 25.6846 35.2506 24.58V6.5C35.2506 5.39543 34.3552 4.5 33.2506 4.5H6.89062C5.78606 4.5 4.89062 5.39543 4.89062 6.5V15.9856C5.21101 15.7879 5.54496 15.6124 5.89062 15.4612V6.5C5.89062 5.94771 6.33834 5.5 6.89062 5.5Z" fill="white"/>
<rect x="9.03125" y="8.64062" width="16.56" height="1.38" rx="0.69" fill="#3FAFE9"/>
<rect x="9.03125" y="11.4004" width="16.56" height="1.38" rx="0.69" fill="#3FAFE9"/>
<path d="M16.81 23.8191C16.81 28.1158 13.3268 31.5991 9.03 31.5991C4.73322 31.5991 1.25 28.1158 1.25 23.8191C1.25 19.5223 4.73322 16.0391 9.03 16.0391C13.3268 16.0391 16.81 19.5223 16.81 23.8191Z" stroke="white"/>
<mask id="path-5-inside-1_662_20337" fill="white">
<path fill-rule="evenodd" clip-rule="evenodd" d="M7.50743 21.8458L8.85084 20.3295C9.40021 19.7095 10.3482 19.6521 10.9683 20.2015L12.311 21.3911C12.931 21.9405 12.9883 22.8885 12.4389 23.5086L11.1715 24.9391L11.9359 25.5843L13.1874 24.1717C14.1031 23.1383 14.0075 21.5583 12.9741 20.6426L11.6315 19.453C10.598 18.5374 9.01798 18.6329 8.10236 19.6664L6.74309 21.2005L7.50743 21.8458ZM6.53548 22.9428L5.77114 22.2975L4.66007 23.5516C3.74445 24.585 3.83995 26.165 4.87339 27.0807L6.21605 28.2702C7.24949 29.1859 8.82952 29.0904 9.74514 28.0569L10.9639 26.6813L10.1996 26.0361L8.99666 27.3938C8.44729 28.0138 7.49927 28.0711 6.87921 27.5218L5.53655 26.3322C4.91648 25.7828 4.85918 24.8348 5.40855 24.2147L6.53548 22.9428Z"/>
</mask>
<path d="M8.85084 20.3295L8.10236 19.6664L8.10236 19.6664L8.85084 20.3295ZM7.50743 21.8458L6.86235 22.6099L7.60842 23.2397L8.25591 22.5089L7.50743 21.8458ZM10.9683 20.2015L10.3051 20.95V20.95L10.9683 20.2015ZM12.311 21.3911L12.9741 20.6426V20.6426L12.311 21.3911ZM12.4389 23.5086L11.6905 22.8454L12.4389 23.5086ZM11.1715 24.9391L10.4231 24.2759L9.74386 25.0425L10.5265 25.7032L11.1715 24.9391ZM11.9359 25.5843L11.2908 26.3484L12.0369 26.9783L12.6844 26.2475L11.9359 25.5843ZM13.1874 24.1717L13.9359 24.8349L13.1874 24.1717ZM12.9741 20.6426L13.6373 19.8942L13.6373 19.8942L12.9741 20.6426ZM11.6315 19.453L10.9683 20.2015L11.6315 19.453ZM8.10236 19.6664L7.35388 19.0032V19.0032L8.10236 19.6664ZM6.74309 21.2005L5.99461 20.5374L5.31541 21.304L6.09802 21.9646L6.74309 21.2005ZM6.53548 22.9428L7.28396 23.6059L7.96316 22.8394L7.18055 22.1787L6.53548 22.9428ZM5.77114 22.2975L6.41622 21.5334L5.67015 20.9036L5.02266 21.6344L5.77114 22.2975ZM4.66007 23.5516L5.40855 24.2147L4.66007 23.5516ZM4.87339 27.0807L4.21024 27.8291H4.21024L4.87339 27.0807ZM6.21605 28.2702L5.5529 29.0187H5.5529L6.21605 28.2702ZM9.74514 28.0569L8.99666 27.3938L9.74514 28.0569ZM10.9639 26.6813L11.7124 27.3445L12.3916 26.5779L11.609 25.9172L10.9639 26.6813ZM10.1996 26.0361L10.8447 25.2719L10.0986 24.6421L9.45112 25.3729L10.1996 26.0361ZM8.99666 27.3938L9.74514 28.0569L9.74514 28.0569L8.99666 27.3938ZM6.87921 27.5218L6.21605 28.2702L6.21605 28.2702L6.87921 27.5218ZM5.53655 26.3322L6.1997 25.5837L5.53655 26.3322ZM5.40855 24.2147L6.15704 24.8779H6.15704L5.40855 24.2147ZM8.10236 19.6664L6.75895 21.1826L8.25591 22.5089L9.59932 20.9927L8.10236 19.6664ZM11.6315 19.453C10.598 18.5374 9.01798 18.6329 8.10236 19.6664L9.59932 20.9927C9.78245 20.786 10.0985 20.7669 10.3051 20.95L11.6315 19.453ZM12.9741 20.6426L11.6315 19.453L10.3051 20.95L11.6478 22.1396L12.9741 20.6426ZM13.1874 24.1717C14.1031 23.1383 14.0075 21.5583 12.9741 20.6426L11.6478 22.1396C11.8545 22.3227 11.8736 22.6387 11.6905 22.8454L13.1874 24.1717ZM11.92 25.6022L13.1874 24.1717L11.6905 22.8454L10.4231 24.2759L11.92 25.6022ZM10.5265 25.7032L11.2908 26.3484L12.581 24.8202L11.8166 24.1749L10.5265 25.7032ZM12.6844 26.2475L13.9359 24.8349L12.4389 23.5086L11.1874 24.9212L12.6844 26.2475ZM13.9359 24.8349C15.2178 23.3881 15.0841 21.176 13.6373 19.8942L12.311 21.3911C12.931 21.9405 12.9883 22.8885 12.4389 23.5086L13.9359 24.8349ZM13.6373 19.8942L12.2946 18.7046L10.9683 20.2015L12.311 21.3911L13.6373 19.8942ZM12.2946 18.7046C10.8478 17.4227 8.63575 17.5564 7.35388 19.0032L8.85084 20.3295C9.40022 19.7095 10.3482 19.6521 10.9683 20.2015L12.2946 18.7046ZM7.35388 19.0032L5.99461 20.5374L7.49157 21.8637L8.85084 20.3295L7.35388 19.0032ZM6.09802 21.9646L6.86235 22.6099L8.1525 21.0817L7.38816 20.4364L6.09802 21.9646ZM7.18055 22.1787L6.41622 21.5334L5.12607 23.0616L5.89041 23.7069L7.18055 22.1787ZM5.02266 21.6344L3.91159 22.8884L5.40855 24.2147L6.51962 22.9607L5.02266 21.6344ZM3.91159 22.8884C2.62971 24.3352 2.76342 26.5473 4.21024 27.8291L5.53655 26.3322C4.91648 25.7828 4.85918 24.8348 5.40855 24.2147L3.91159 22.8884ZM4.21024 27.8291L5.5529 29.0187L6.87921 27.5218L5.53655 26.3322L4.21024 27.8291ZM5.5529 29.0187C6.99971 30.3006 9.21175 30.1669 10.4936 28.7201L8.99666 27.3938C8.44729 28.0138 7.49927 28.0711 6.87921 27.5218L5.5529 29.0187ZM10.4936 28.7201L11.7124 27.3445L10.2155 26.0182L8.99666 27.3938L10.4936 28.7201ZM11.609 25.9172L10.8447 25.2719L9.55452 26.8002L10.3189 27.4454L11.609 25.9172ZM9.74514 28.0569L10.9481 26.6992L9.45112 25.3729L8.24818 26.7306L9.74514 28.0569ZM6.21605 28.2702C7.24949 29.1859 8.82952 29.0904 9.74514 28.0569L8.24818 26.7306C8.06505 26.9373 7.74905 26.9564 7.54236 26.7733L6.21605 28.2702ZM4.87339 27.0807L6.21605 28.2702L7.54236 26.7733L6.1997 25.5837L4.87339 27.0807ZM4.66007 23.5516C3.74445 24.585 3.83995 26.165 4.87339 27.0807L6.1997 25.5837C5.99301 25.4006 5.97391 25.0846 6.15704 24.8779L4.66007 23.5516ZM5.787 22.2796L4.66007 23.5516L6.15704 24.8779L7.28396 23.6059L5.787 22.2796Z" fill="white" mask="url(#path-5-inside-1_662_20337)"/>
<rect x="10.3594" y="21.6172" width="1.27385" height="5.09539" rx="0.5" transform="rotate(43.9974 10.3594 21.6172)" fill="#3FAFE9"/>
<circle cx="24.9031" cy="20.3699" r="2.95" stroke="white"/>
<circle cx="27.6609" cy="20.3699" r="2.95" stroke="white"/>
</svg>
