<svg width="48" height="48" viewBox="0 0 48 48" fill="none" xmlns="http://www.w3.org/2000/svg">
<circle cx="24" cy="24" r="24" fill="#20336B"/>
<path fill-rule="evenodd" clip-rule="evenodd" d="M16.8906 15H34.0055C34.5577 15 35.0055 15.4477 35.0055 16V27.3562C35.0055 27.9085 34.5577 28.3562 34.0055 28.3562H23.4416C23.3861 28.7002 23.3039 29.0344 23.1972 29.3562H34.0055C35.11 29.3562 36.0055 28.4608 36.0055 27.3562V16C36.0055 14.8954 35.11 14 34.0055 14H16.8906C15.7861 14 14.8906 14.8954 14.8906 16V21.9856C15.2063 21.7912 15.5408 21.6277 15.8906 21.4993V16C15.8906 15.4477 16.3383 15 16.8906 15Z" fill="white"/>
<rect x="17.7578" y="16.8789" width="11.5172" height="0.959765" rx="0.479883" fill="#3FAFE9"/>
<rect x="17.7578" y="18.7988" width="11.5172" height="0.959765" rx="0.479883" fill="#3FAFE9"/>
<path d="M23.0172 27.4363C23.0172 30.3406 20.6628 32.6949 17.7586 32.6949C14.8544 32.6949 12.5 30.3406 12.5 27.4363C12.5 24.5321 14.8544 22.1777 17.7586 22.1777C20.6628 22.1777 23.0172 24.5321 23.0172 27.4363Z" stroke="white"/>
<mask id="path-6-inside-1_514_30341" fill="white">
<path fill-rule="evenodd" clip-rule="evenodd" d="M16.9498 26.2601L17.4678 25.6754C17.9668 25.1122 18.828 25.0601 19.3912 25.5591C19.9544 26.0582 20.0065 26.9193 19.5074 27.4825L19.0326 28.0184L19.797 28.6637L20.2559 28.1457C21.1212 27.1691 21.0309 25.6759 20.0543 24.8107C19.0777 23.9454 17.5846 24.0357 16.7193 25.0123L16.1855 25.6148L16.9498 26.2601ZM16.2738 27.023L15.5095 26.3778L15.1526 26.7805C14.2874 27.7571 14.3776 29.2503 15.3542 30.1155C16.3308 30.9808 17.824 30.8905 18.6892 29.9139L19.121 29.4266L18.3567 28.7813L17.9407 29.2508C17.4417 29.814 16.5806 29.8661 16.0174 29.367C15.4542 28.868 15.4021 28.0069 15.9011 27.4437L16.2738 27.023Z"/>
</mask>
<path d="M17.4678 25.6754L16.7193 25.0123L16.7193 25.0123L17.4678 25.6754ZM16.9498 26.2601L16.3047 27.0242L17.0508 27.654L17.6983 26.9232L16.9498 26.2601ZM19.3912 25.5591L18.728 26.3076H18.728L19.3912 25.5591ZM19.5074 27.4825L20.2559 28.1457V28.1457L19.5074 27.4825ZM19.0326 28.0184L18.2842 27.3552L17.605 28.1218L18.3876 28.7825L19.0326 28.0184ZM19.797 28.6637L19.1519 29.4278L19.898 30.0576L20.5455 29.3268L19.797 28.6637ZM20.2559 28.1457L21.0044 28.8088L20.2559 28.1457ZM20.0543 24.8107L19.3912 25.5591V25.5591L20.0543 24.8107ZM16.7193 25.0123L17.4678 25.6754L16.7193 25.0123ZM16.1855 25.6148L15.437 24.9516L14.7578 25.7182L15.5404 26.3789L16.1855 25.6148ZM16.2738 27.023L17.0223 27.6862L17.7015 26.9196L16.9189 26.2589L16.2738 27.023ZM15.5095 26.3778L16.1546 25.6136L15.4085 24.9838L14.761 25.7146L15.5095 26.3778ZM15.1526 26.7805L14.4042 26.1174L14.4042 26.1174L15.1526 26.7805ZM15.3542 30.1155L14.6911 30.864L14.6911 30.864L15.3542 30.1155ZM18.6892 29.9139L17.9407 29.2508L18.6892 29.9139ZM19.121 29.4266L19.8695 30.0898L20.5487 29.3232L19.7661 28.6625L19.121 29.4266ZM18.3567 28.7813L19.0017 28.0172L18.2557 27.3874L17.6082 28.1182L18.3567 28.7813ZM17.9407 29.2508L18.6892 29.9139L18.6892 29.9139L17.9407 29.2508ZM16.0174 29.367L16.6805 28.6186L16.0174 29.367ZM15.9011 27.4437L16.6496 28.1069H16.6496L15.9011 27.4437ZM16.7193 25.0123L16.2013 25.5969L17.6983 26.9232L18.2163 26.3386L16.7193 25.0123ZM20.0543 24.8107C19.0777 23.9454 17.5846 24.0357 16.7193 25.0123L18.2163 26.3386C18.3491 26.1887 18.5782 26.1749 18.728 26.3076L20.0543 24.8107ZM20.2559 28.1457C21.1212 27.1691 21.0309 25.6759 20.0543 24.8107L18.728 26.3076C18.8779 26.4404 18.8917 26.6695 18.759 26.8193L20.2559 28.1457ZM19.7811 28.6815L20.2559 28.1457L18.759 26.8193L18.2842 27.3552L19.7811 28.6815ZM18.3876 28.7825L19.1519 29.4278L20.4421 27.8995L19.6777 27.2543L18.3876 28.7825ZM20.5455 29.3268L21.0044 28.8088L19.5074 27.4825L19.0485 28.0005L20.5455 29.3268ZM21.0044 28.8088C22.2359 27.4188 22.1075 25.2937 20.7175 24.0622L19.3912 25.5591C19.9544 26.0582 20.0065 26.9193 19.5074 27.4825L21.0044 28.8088ZM20.7175 24.0622C19.3275 22.8307 17.2024 22.9591 15.9709 24.3491L17.4678 25.6754C17.9668 25.1122 18.828 25.0601 19.3912 25.5591L20.7175 24.0622ZM15.9709 24.3491L15.437 24.9516L16.934 26.278L17.4678 25.6754L15.9709 24.3491ZM15.5404 26.3789L16.3047 27.0242L17.5949 25.4959L16.8306 24.8507L15.5404 26.3789ZM16.9189 26.2589L16.1546 25.6136L14.8644 27.1419L15.6288 27.7871L16.9189 26.2589ZM14.761 25.7146L14.4042 26.1174L15.9011 27.4437L16.258 27.0409L14.761 25.7146ZM14.4042 26.1174C13.1726 27.5074 13.3011 29.6325 14.6911 30.864L16.0174 29.367C15.4542 28.868 15.4021 28.0069 15.9011 27.4437L14.4042 26.1174ZM14.6911 30.864C16.081 32.0955 18.2062 31.9671 19.4377 30.5771L17.9407 29.2508C17.4417 29.814 16.5806 29.8661 16.0174 29.367L14.6911 30.864ZM19.4377 30.5771L19.8695 30.0898L18.3725 28.7634L17.9407 29.2508L19.4377 30.5771ZM19.7661 28.6625L19.0017 28.0172L17.7116 29.5455L18.4759 30.1907L19.7661 28.6625ZM18.6892 29.9139L19.1051 29.4445L17.6082 28.1182L17.1923 28.5876L18.6892 29.9139ZM15.3542 30.1155C16.3308 30.9808 17.824 30.8905 18.6892 29.9139L17.1923 28.5876C17.0595 28.7375 16.8304 28.7513 16.6805 28.6186L15.3542 30.1155ZM15.1526 26.7805C14.2874 27.7571 14.3776 29.2503 15.3542 30.1155L16.6805 28.6186C16.5307 28.4858 16.5168 28.2567 16.6496 28.1069L15.1526 26.7805ZM15.5254 26.3599L15.1526 26.7805L16.6496 28.1069L17.0223 27.6862L15.5254 26.3599Z" fill="white" mask="url(#path-6-inside-1_514_30341)"/>
<rect x="18.6953" y="25.9023" width="0.885937" height="3.54375" rx="0.442969" transform="rotate(43.9974 18.6953 25.9023)" fill="#3FAFE9"/>
<circle cx="28.7979" cy="25.0361" r="1.89941" stroke="white"/>
<circle cx="30.7197" cy="25.0361" r="1.89941" stroke="white"/>
</svg>
