<svg width="48" height="49" viewBox="0 0 48 49" fill="none" xmlns="http://www.w3.org/2000/svg">
<g clip-path="url(#clip0_1943_213)">
<path d="M24 48.5C37.2548 48.5 48 37.7548 48 24.5C48 11.2452 37.2548 0.5 24 0.5C10.7452 0.5 0 11.2452 0 24.5C0 37.7548 10.7452 48.5 24 48.5Z" fill="#20336B"/>
<path d="M32.0625 18.3125H14.5C13.6716 18.3125 13 18.9841 13 19.8125V33.0625C13 33.8909 13.6716 34.5625 14.5 34.5625H32.0625C32.8909 34.5625 33.5625 33.8909 33.5625 33.0625V19.8125C33.5625 18.9841 32.8909 18.3125 32.0625 18.3125Z" stroke="white"/>
<path d="M18.7344 18.2917L25.9347 13.7914C26.1848 13.6352 26.5151 13.7281 26.647 13.9918L27.3594 15.4167" stroke="white"/>
<path d="M21.6094 18.2923L29.2645 14.6899C29.5289 14.5655 29.843 14.6932 29.9456 14.9667L31.1927 18.2923" stroke="white"/>
<mask id="mask0_1943_213" style="mask-type:luminance" maskUnits="userSpaceOnUse" x="25" y="23" width="11" height="7">
<path d="M25.9219 25.5625C25.9219 24.4579 26.8173 23.5625 27.9219 23.5625H35.0052C35.2814 23.5625 35.5052 23.7864 35.5052 24.0625V28.8125C35.5052 29.0886 35.2814 29.3125 35.0052 29.3125H27.9219C26.8173 29.3125 25.9219 28.4171 25.9219 27.3125V25.5625Z" fill="white"/>
</mask>
<g mask="url(#mask0_1943_213)">
<path d="M25.9219 25.5625C25.9219 24.4579 26.8173 23.5625 27.9219 23.5625H35.0052C35.2814 23.5625 35.5052 23.7864 35.5052 24.0625V28.8125C35.5052 29.0886 35.2814 29.3125 35.0052 29.3125H27.9219C26.8173 29.3125 25.9219 28.4171 25.9219 27.3125V25.5625Z" stroke="white" stroke-width="2"/>
</g>
<path d="M29.026 27.2372C29.4943 27.2372 29.8739 26.8576 29.8739 26.3893C29.8739 25.921 29.4943 25.5414 29.026 25.5414C28.5577 25.5414 28.1781 25.921 28.1781 26.3893C28.1781 26.8576 28.5577 27.2372 29.026 27.2372Z" stroke="white" stroke-width="0.7"/>
<path d="M29.2573 16.2793H27.9406C27.7749 16.2793 27.6406 16.4136 27.6406 16.5793V16.9376C27.6406 17.1033 27.7749 17.2376 27.9406 17.2376H29.2573C29.423 17.2376 29.5573 17.1033 29.5573 16.9376V16.5793C29.5573 16.4136 29.423 16.2793 29.2573 16.2793Z" fill="white"/>
<path d="M33.5781 22.125H34.7156C34.8813 22.125 35.0156 22.2593 35.0156 22.425V24.0417" stroke="white"/>
<path d="M19.6459 28.2178L19.6832 28.0488L20.0202 27.9989L19.9726 28.2178H19.6459Z" fill="#4ABCEB" stroke="#4ABCEB"/>
<path d="M23.3315 28.2091L23.4716 27.5242L23.7897 27.4865L23.6216 28.2091H23.3315Z" fill="#4ABCEB" stroke="#4ABCEB"/>
<path d="M15.375 28.6675L16.8304 28.1758L16.7241 28.7084H15.375V28.6675Z" fill="#4ABCEB"/>
<mask id="mask1_1943_213" style="mask-type:luminance" maskUnits="userSpaceOnUse" x="15" y="28" width="2" height="1">
<path d="M15.375 28.6675L16.8304 28.1758L16.7241 28.7084H15.375V28.6675Z" fill="white"/>
</mask>
<g mask="url(#mask1_1943_213)">
<path d="M15.375 28.6675L15.0549 27.7201L14.375 27.9498V28.6675H15.375ZM16.8304 28.1758L17.8111 28.3715L18.1497 26.6746L16.5103 27.2284L16.8304 28.1758ZM16.7241 28.7084V29.7084H17.5443L17.7048 28.9041L16.7241 28.7084ZM15.375 28.7084H14.375V29.7084H15.375V28.7084ZM15.6951 29.6149L17.1505 29.1232L16.5103 27.2284L15.0549 27.7201L15.6951 29.6149ZM15.8497 27.9801L15.7435 28.5128L17.7048 28.9041L17.8111 28.3715L15.8497 27.9801ZM16.7241 27.7084H15.375V29.7084H16.7241V27.7084ZM16.375 28.7084V28.6675H14.375V28.7084H16.375Z" fill="#4ABCEB"/>
</g>
<mask id="mask2_1943_213" style="mask-type:luminance" maskUnits="userSpaceOnUse" x="15" y="22" width="10" height="7">
<path d="M24.4347 26.9214C23.9651 26.9711 23.5051 27.0232 23.0547 27.0779L23.4861 25.0494C23.5321 24.8494 23.5551 24.6686 23.5551 24.5071C23.5551 23.9307 23.2066 23.6424 22.5096 23.6424H21.4632L20.6619 27.4059C20.1774 27.4817 19.7121 27.5612 19.2661 27.6444L20.1177 23.6424H18.1405C17.9032 23.6424 17.7616 23.7577 17.7156 23.9881L16.8248 28.2007C16.276 28.3554 15.7896 28.5212 15.375 28.6973L16.4512 23.6424C16.5276 23.2809 16.6577 23.0172 16.8416 22.8514C17.0255 22.6861 17.3128 22.6035 17.7035 22.6035H22.8656C23.5017 22.6035 24.0095 22.7305 24.389 22.9846C24.7685 23.2381 24.9583 23.6303 24.9583 24.1614C24.9583 24.3845 24.9428 24.5612 24.9117 24.6916L24.4347 26.9214Z" fill="white"/>
</mask>
<g mask="url(#mask2_1943_213)">
<path d="M55.933 32.8227H13.9844V21.1289H55.933V32.8227Z" fill="white"/>
</g>
</g>
<defs>
<clipPath id="clip0_1943_213">
<rect width="48" height="49" fill="white"/>
</clipPath>
</defs>
</svg>
