<svg width="422" height="170" viewBox="0 0 422 170" fill="none" xmlns="http://www.w3.org/2000/svg">
<path d="M9.16785 11.108V15H7.37585V4.948H11.3938C13.6338 4.948 15.0338 5.998 15.0338 8.028C15.0338 10.03 13.6338 11.108 11.3938 11.108H9.16785ZM9.16785 9.568H11.2958C12.5838 9.568 13.2698 9.008 13.2698 8.028C13.2698 7.034 12.5838 6.488 11.2958 6.488H9.16785V9.568ZM17.8241 15.126C16.4241 15.126 15.3461 14.272 15.3461 12.956C15.3461 11.556 16.3961 10.94 17.8101 10.646L19.8401 10.226V10.1C19.8401 9.4 19.4761 8.966 18.5801 8.966C17.7821 8.966 17.3621 9.33 17.1661 10.044L15.5841 9.68C15.9481 8.462 17.0261 7.51 18.6501 7.51C20.4141 7.51 21.4781 8.35 21.4781 10.044V13.208C21.4781 13.628 21.6601 13.754 22.1221 13.698V15C20.9041 15.14 20.2601 14.902 20.0081 14.3C19.5461 14.818 18.7761 15.126 17.8241 15.126ZM19.8401 12.41V11.514L18.2581 11.85C17.5441 12.004 17.0121 12.228 17.0121 12.886C17.0121 13.46 17.4321 13.782 18.0761 13.782C18.9721 13.782 19.8401 13.306 19.8401 12.41ZM26.3709 15.686C25.9509 16.806 25.3069 17.576 23.7809 17.576C23.4309 17.576 23.3329 17.562 23.0949 17.534V16.12C23.3189 16.148 23.4449 16.162 23.6549 16.162C24.2149 16.162 24.4809 16.008 24.7189 15.42L24.9989 14.734L22.3249 7.65H24.0889L25.8949 12.802L27.6589 7.65H29.3949L26.3709 15.686ZM37.1487 15.14C34.7547 15.14 33.1027 13.782 33.1027 11.01V4.948H34.8947V10.954C34.8947 12.788 35.8047 13.558 37.1487 13.558C38.5067 13.558 39.4167 12.788 39.4167 10.954V4.948H41.2087V11.01C41.2087 13.782 39.5567 15.14 37.1487 15.14ZM42.1237 13.6L43.3837 12.592C43.8177 13.306 44.6577 13.782 45.5117 13.782C46.2257 13.782 46.8837 13.53 46.8837 12.872C46.8837 12.242 46.2677 12.172 45.1057 11.934C43.9437 11.696 42.6137 11.402 42.6137 9.834C42.6137 8.49 43.7897 7.51 45.4837 7.51C46.7717 7.51 47.9197 8.084 48.4517 8.896L47.3177 9.918C46.8977 9.26 46.1977 8.882 45.3857 8.882C44.6997 8.882 44.2517 9.19 44.2517 9.68C44.2517 10.212 44.7837 10.31 45.7077 10.506C46.9537 10.772 48.5217 11.038 48.5217 12.718C48.5217 14.202 47.1637 15.154 45.4977 15.154C44.1397 15.154 42.7817 14.608 42.1237 13.6ZM49.7837 6.67V4.948H51.5197V6.67H49.7837ZM51.4917 7.65V15H49.8117V7.65H51.4917ZM53.257 15V7.65H54.937V8.434C55.357 7.944 56.015 7.51 56.967 7.51C58.507 7.51 59.431 8.574 59.431 10.156V15H57.751V10.646C57.751 9.736 57.387 9.078 56.463 9.078C55.707 9.078 54.937 9.638 54.937 10.688V15H53.257ZM67.6837 14.258C67.6837 16.428 66.1997 17.674 64.0997 17.674C62.4057 17.674 61.2157 16.96 60.7537 15.532L62.3217 14.972C62.5457 15.798 63.1757 16.316 64.0997 16.316C65.2337 16.316 66.0037 15.756 66.0037 14.412V13.894C65.6117 14.412 64.8697 14.818 63.9317 14.818C61.9157 14.818 60.7117 13.18 60.7117 11.164C60.7117 9.148 61.9157 7.51 63.9317 7.51C64.8557 7.51 65.6117 7.916 66.0037 8.434V7.65H67.6837V14.258ZM66.0317 11.094C66.0317 9.75 65.3037 8.98 64.2537 8.98C63.0917 8.98 62.4057 9.792 62.4057 11.164C62.4057 12.522 63.0917 13.348 64.2537 13.348C65.3037 13.348 66.0317 12.578 66.0317 11.262V11.094Z" fill="#20336B"/>
<path d="M31 64L33.8868 59H28.1132L31 64ZM30.5 28V59.5H31.5V28H30.5Z" fill="#4ABCEB"/>
<path d="M102 99L97 96.1132V101.887L102 99ZM66 99.5H97.5V98.5H66V99.5Z" fill="#4ABCEB"/>
<path d="M214 99L209 96.1132V101.887L214 99ZM178 99.5H209.5V98.5H178V99.5Z" fill="#4ABCEB"/>
<path d="M335 99L330 96.1132V101.887L335 99ZM299 99.5H330.5V98.5H299V99.5Z" fill="#4ABCEB"/>
<path d="M255 125.5C270.188 125.5 282.5 113.188 282.5 98C282.5 82.8122 270.188 70.5 255 70.5C239.812 70.5 227.5 82.8122 227.5 98C227.5 113.188 239.812 125.5 255 125.5Z" stroke="#4ABCEB"/>
<path fill-rule="evenodd" clip-rule="evenodd" d="M247.766 89H264.006C264.558 89 265.006 89.4477 265.006 90V100.72C265.006 101.272 264.558 101.72 264.006 101.72H253.967C253.913 102.064 253.832 102.399 253.726 102.72H264.006C265.11 102.72 266.006 101.825 266.006 100.72V90C266.006 88.8954 265.11 88 264.006 88H247.766C246.661 88 245.766 88.8954 245.766 90V95.6534C246.081 95.4595 246.415 95.2979 246.766 95.1727V90C246.766 89.4477 247.213 89 247.766 89Z" fill="#223872"/>
<path d="M259.096 90.7598H248.976C248.722 90.7598 248.516 90.9657 248.516 91.2198C248.516 91.4738 248.722 91.6798 248.976 91.6798H259.096C259.35 91.6798 259.556 91.4738 259.556 91.2198C259.556 90.9657 259.35 90.7598 259.096 90.7598Z" fill="#3FAFE9"/>
<path d="M259.096 92.5996H248.976C248.722 92.5996 248.516 92.8056 248.516 93.0596C248.516 93.3137 248.722 93.5196 248.976 93.5196H259.096C259.35 93.5196 259.556 93.3137 259.556 93.0596C259.556 92.8056 259.35 92.5996 259.096 92.5996Z" fill="#3FAFE9"/>
<path d="M253.54 100.879C253.54 103.652 251.292 105.899 248.52 105.899C245.748 105.899 243.5 103.652 243.5 100.879C243.5 98.1069 245.748 95.8594 248.52 95.8594C251.292 95.8594 253.54 98.1069 253.54 100.879Z" stroke="#223872"/>
<mask id="mask0_1899_2480" style="mask-type:luminance" maskUnits="userSpaceOnUse" x="245" y="97" width="7" height="8">
<path fill-rule="evenodd" clip-rule="evenodd" d="M247.765 99.7791L248.26 99.2204C248.723 98.6976 249.522 98.6493 250.045 99.1125C250.568 99.5756 250.616 100.375 250.153 100.898L249.698 101.411L250.462 102.056L250.901 101.561C251.731 100.625 251.644 99.1934 250.708 98.364C249.772 97.5346 248.341 97.6211 247.511 98.5572L247.001 99.1338L247.765 99.7791ZM247.117 100.51L246.353 99.8651L246.01 100.252C245.18 101.188 245.267 102.62 246.203 103.449C247.139 104.278 248.57 104.192 249.4 103.256L249.814 102.788L249.05 102.142L248.651 102.593C248.188 103.115 247.389 103.164 246.866 102.701C246.343 102.237 246.295 101.438 246.758 100.915L247.117 100.51Z" fill="white"/>
</mask>
<g mask="url(#mask0_1899_2480)">
<path d="M247.765 99.7791L247.12 100.543L247.866 101.173L248.513 100.442L247.765 99.7791ZM249.698 101.411L248.95 100.748L248.27 101.515L249.053 102.175L249.698 101.411ZM250.462 102.056L249.817 102.82L250.563 103.45L251.211 102.719L250.462 102.056ZM247.001 99.1338L246.252 98.4706L245.573 99.2372L246.355 99.8979L247.001 99.1338ZM247.117 100.51L247.865 101.174L248.545 100.407L247.762 99.7463L247.117 100.51ZM246.353 99.8651L246.998 99.101L246.252 98.4706L245.604 99.202L246.353 99.8651ZM249.814 102.788L250.563 103.45L251.242 102.684L250.46 102.024L249.814 102.788ZM249.05 102.142L249.695 101.378L248.95 100.748L248.302 101.479L249.05 102.142ZM247.511 98.5572L247.016 99.1159L248.513 100.442L249.008 99.8835L247.511 98.5572ZM250.708 98.364C249.772 97.5346 248.341 97.6211 247.511 98.5572L249.008 99.8835C249.105 99.7741 249.273 99.764 249.382 99.8609L250.708 98.364ZM250.901 101.561C251.731 100.625 251.644 99.1934 250.708 98.364L249.382 99.8609C249.491 99.9579 249.501 100.125 249.404 100.234L250.901 101.561ZM250.447 102.074L250.901 101.561L249.404 100.234L248.95 100.748L250.447 102.074ZM249.053 102.175L249.817 102.82L251.107 101.292L250.343 100.647L249.053 102.175ZM251.211 102.719L251.65 102.224L250.153 100.898L249.714 101.393L251.211 102.719ZM251.65 102.224C252.846 100.874 252.721 98.8112 251.371 97.6155L250.045 99.1125C250.568 99.5756 250.616 100.375 250.153 100.898L251.65 102.224ZM251.371 97.6155C250.022 96.4198 247.959 96.5445 246.763 97.8941L248.26 99.2204C248.723 98.6976 249.522 98.6493 250.045 99.1125L251.371 97.6155ZM246.763 97.8941L246.252 98.4706L247.749 99.797L248.26 99.2204L246.763 97.8941ZM246.355 99.8979L247.12 100.543L248.41 99.0149L247.646 98.3697L246.355 99.8979ZM247.762 99.7463L246.998 99.101L245.707 100.629L246.472 101.275L247.762 99.7463ZM245.604 99.202L245.261 99.5891L246.758 100.915L247.101 100.528L245.604 99.202ZM245.261 99.5891C244.065 100.939 244.19 103.002 245.54 104.198L246.866 102.701C246.343 102.237 246.295 101.438 246.758 100.915L245.261 99.5891ZM245.54 104.198C246.889 105.393 248.952 105.268 250.148 103.919L248.651 102.593C248.188 103.115 247.389 103.164 246.866 102.701L245.54 104.198ZM250.148 103.919L250.563 103.45L249.066 102.125L248.651 102.593L250.148 103.919ZM250.46 102.024L249.695 101.378L248.405 102.907L249.169 103.552L250.46 102.024ZM249.4 103.256L249.799 102.806L248.302 101.479L247.903 101.93L249.4 103.256ZM246.203 103.449C247.139 104.278 248.57 104.192 249.4 103.256L247.903 101.93C247.806 102.039 247.639 102.049 247.529 101.952L246.203 103.449ZM246.01 100.252C245.18 101.188 245.267 102.62 246.203 103.449L247.529 101.952C247.42 101.855 247.41 101.688 247.507 101.579L246.01 100.252ZM246.368 99.8472L246.01 100.252L247.507 101.579L247.865 101.174L246.368 99.8472Z" fill="#223872"/>
</g>
<path d="M249.719 99.7052L249.719 99.7051C249.551 99.5422 249.282 99.547 249.119 99.7157L247.349 101.548C247.186 101.717 247.191 101.986 247.36 102.149L247.36 102.149C247.529 102.312 247.797 102.307 247.96 102.138L249.73 100.306C249.893 100.137 249.888 99.8681 249.719 99.7052Z" fill="#3FAFE9"/>
<path d="M259.097 100.379C260.091 100.379 260.897 99.5734 260.897 98.5793C260.897 97.5852 260.091 96.7793 259.097 96.7793C258.103 96.7793 257.297 97.5852 257.297 98.5793C257.297 99.5734 258.103 100.379 259.097 100.379Z" stroke="#223872"/>
<path d="M260.941 100.379C261.935 100.379 262.741 99.5734 262.741 98.5793C262.741 97.5852 261.935 96.7793 260.941 96.7793C259.947 96.7793 259.141 97.5852 259.141 98.5793C259.141 99.5734 259.947 100.379 260.941 100.379Z" stroke="#223872"/>
<path d="M214.875 149V138.948H216.667V147.432H221.399V149H214.875ZM222.46 140.67V138.948H224.196V140.67H222.46ZM224.168 141.65V149H222.488V141.65H224.168ZM225.934 149V141.65H227.614V142.434C228.034 141.944 228.692 141.51 229.644 141.51C231.184 141.51 232.108 142.574 232.108 144.156V149H230.428V144.646C230.428 143.736 230.064 143.078 229.14 143.078C228.384 143.078 227.614 143.638 227.614 144.688V149H225.934ZM235.502 138.948V144.744L238.33 141.65H240.388L237.616 144.506L240.612 149H238.666L236.468 145.682L235.502 146.662V149H233.822V138.948H235.502ZM244.218 149.154C242.118 149.154 240.648 147.6 240.648 145.332C240.648 143.176 242.104 141.51 244.148 141.51C246.276 141.51 247.41 143.12 247.41 145.136V145.696H242.258C242.384 146.956 243.14 147.726 244.218 147.726C245.044 147.726 245.702 147.306 245.926 146.55L247.368 147.096C246.85 148.384 245.688 149.154 244.218 149.154ZM244.134 142.924C243.266 142.924 242.594 143.442 242.342 144.436H245.716C245.702 143.624 245.198 142.924 244.134 142.924ZM251.442 149.154C249.384 149.154 248.208 147.418 248.208 145.332C248.208 143.246 249.384 141.51 251.442 141.51C252.394 141.51 253.094 141.888 253.556 142.434V138.948H255.236V149H253.556V148.23C253.094 148.776 252.394 149.154 251.442 149.154ZM253.598 145.122C253.598 143.736 252.814 142.98 251.778 142.98C250.56 142.98 249.902 143.932 249.902 145.332C249.902 146.732 250.56 147.684 251.778 147.684C252.814 147.684 253.598 146.914 253.598 145.556V145.122ZM261.225 143.974C261.225 146.144 262.401 147.572 264.053 147.572C265.229 147.572 266.083 146.858 266.391 145.682L268.071 146.256C267.483 148.034 266.083 149.154 264.053 149.154C261.379 149.154 259.433 147.026 259.433 143.974C259.433 140.922 261.379 138.794 264.053 138.794C266.083 138.794 267.483 139.914 268.071 141.692L266.391 142.266C266.083 141.09 265.229 140.376 264.053 140.376C262.401 140.376 261.225 141.804 261.225 143.974ZM271.165 149.126C269.765 149.126 268.687 148.272 268.687 146.956C268.687 145.556 269.737 144.94 271.151 144.646L273.181 144.226V144.1C273.181 143.4 272.817 142.966 271.921 142.966C271.123 142.966 270.703 143.33 270.507 144.044L268.925 143.68C269.289 142.462 270.367 141.51 271.991 141.51C273.755 141.51 274.819 142.35 274.819 144.044V147.208C274.819 147.628 275.001 147.754 275.463 147.698V149C274.245 149.14 273.601 148.902 273.349 148.3C272.887 148.818 272.117 149.126 271.165 149.126ZM273.181 146.41V145.514L271.599 145.85C270.885 146.004 270.353 146.228 270.353 146.886C270.353 147.46 270.773 147.782 271.417 147.782C272.313 147.782 273.181 147.306 273.181 146.41ZM280.828 141.636V143.316C280.618 143.288 280.45 143.274 280.212 143.274C279.148 143.274 278.336 143.96 278.336 145.136V149H276.656V141.65H278.336V142.742C278.658 142.056 279.414 141.608 280.352 141.608C280.548 141.608 280.702 141.622 280.828 141.636ZM284.487 149.154C282.429 149.154 281.253 147.418 281.253 145.332C281.253 143.246 282.429 141.51 284.487 141.51C285.439 141.51 286.139 141.888 286.601 142.434V138.948H288.281V149H286.601V148.23C286.139 148.776 285.439 149.154 284.487 149.154ZM286.643 145.122C286.643 143.736 285.859 142.98 284.823 142.98C283.605 142.98 282.947 143.932 282.947 145.332C282.947 146.732 283.605 147.684 284.823 147.684C285.859 147.684 286.643 146.914 286.643 145.556V145.122ZM289.271 147.6L290.531 146.592C290.965 147.306 291.805 147.782 292.659 147.782C293.373 147.782 294.031 147.53 294.031 146.872C294.031 146.242 293.415 146.172 292.253 145.934C291.091 145.696 289.761 145.402 289.761 143.834C289.761 142.49 290.937 141.51 292.631 141.51C293.919 141.51 295.067 142.084 295.599 142.896L294.465 143.918C294.045 143.26 293.345 142.882 292.533 142.882C291.847 142.882 291.399 143.19 291.399 143.68C291.399 144.212 291.931 144.31 292.855 144.506C294.101 144.772 295.669 145.038 295.669 146.718C295.669 148.202 294.311 149.154 292.645 149.154C291.287 149.154 289.929 148.608 289.271 147.6Z" fill="#20336B"/>
<path d="M15.1748 149H13.7188L11.0868 141.23V149H9.42076V138.948H11.8848L14.4748 146.648L17.0648 138.948H19.4728V149H17.8068V141.23L15.1748 149ZM27.922 145.332C27.922 147.614 26.452 149.154 24.38 149.154C22.308 149.154 20.838 147.614 20.838 145.332C20.838 143.05 22.308 141.51 24.38 141.51C26.452 141.51 27.922 143.05 27.922 145.332ZM22.532 145.332C22.532 146.83 23.246 147.74 24.38 147.74C25.514 147.74 26.228 146.83 26.228 145.332C26.228 143.834 25.514 142.924 24.38 142.924C23.246 142.924 22.532 143.834 22.532 145.332ZM29.2297 149V141.65H30.9097V142.434C31.3297 141.944 31.9877 141.51 32.9397 141.51C34.4797 141.51 35.4037 142.574 35.4037 144.156V149H33.7237V144.646C33.7237 143.736 33.3597 143.078 32.4357 143.078C31.6797 143.078 30.9097 143.638 30.9097 144.688V149H29.2297ZM37.2723 147.152V143.078H36.2503V141.65H37.2723V139.494H38.9243V141.65H40.4643V143.078H38.9243V146.886C38.9243 147.544 39.3023 147.614 39.9043 147.614C40.1843 147.614 40.3383 147.6 40.5903 147.572V148.986C40.2823 149.042 39.8623 149.084 39.4283 149.084C38.0283 149.084 37.2723 148.65 37.2723 147.152ZM46.0208 141.636V143.316C45.8108 143.288 45.6428 143.274 45.4048 143.274C44.3408 143.274 43.5288 143.96 43.5288 145.136V149H41.8488V141.65H43.5288V142.742C43.8508 142.056 44.6068 141.608 45.5448 141.608C45.7408 141.608 45.8948 141.622 46.0208 141.636ZM48.9218 149.126C47.5218 149.126 46.4438 148.272 46.4438 146.956C46.4438 145.556 47.4938 144.94 48.9078 144.646L50.9378 144.226V144.1C50.9378 143.4 50.5738 142.966 49.6778 142.966C48.8798 142.966 48.4598 143.33 48.2638 144.044L46.6818 143.68C47.0458 142.462 48.1238 141.51 49.7478 141.51C51.5118 141.51 52.5758 142.35 52.5758 144.044V147.208C52.5758 147.628 52.7578 147.754 53.2198 147.698V149C52.0018 149.14 51.3578 148.902 51.1058 148.3C50.6438 148.818 49.8738 149.126 48.9218 149.126ZM50.9378 146.41V145.514L49.3558 145.85C48.6418 146.004 48.1098 146.228 48.1098 146.886C48.1098 147.46 48.5298 147.782 49.1738 147.782C50.0698 147.782 50.9378 147.306 50.9378 146.41ZM8.68434 156.948H10.7143L14.5223 167H12.7163L11.8483 164.704H7.50834L6.65434 167H4.87634L8.68434 156.948ZM9.66434 158.936L8.09634 163.136H11.2603L9.66434 158.936ZM16.4066 163.332C16.4066 164.83 17.1906 165.698 18.3386 165.698C19.2346 165.698 19.7806 165.11 19.9906 164.298L21.4326 165.026C21.0546 166.216 19.9346 167.154 18.3386 167.154C16.2386 167.154 14.7266 165.6 14.7266 163.332C14.7266 161.064 16.2386 159.51 18.3386 159.51C19.9206 159.51 21.0126 160.406 21.4046 161.582L19.9906 162.352C19.7806 161.554 19.2346 160.952 18.3386 160.952C17.1906 160.952 16.4066 161.834 16.4066 163.332ZM23.6664 163.332C23.6664 164.83 24.4504 165.698 25.5984 165.698C26.4944 165.698 27.0404 165.11 27.2504 164.298L28.6924 165.026C28.3144 166.216 27.1944 167.154 25.5984 167.154C23.4984 167.154 21.9864 165.6 21.9864 163.332C21.9864 161.064 23.4984 159.51 25.5984 159.51C27.1804 159.51 28.2724 160.406 28.6644 161.582L27.2504 162.352C27.0404 161.554 26.4944 160.952 25.5984 160.952C24.4504 160.952 23.6664 161.834 23.6664 163.332ZM36.3302 163.332C36.3302 165.614 34.8602 167.154 32.7882 167.154C30.7162 167.154 29.2462 165.614 29.2462 163.332C29.2462 161.05 30.7162 159.51 32.7882 159.51C34.8602 159.51 36.3302 161.05 36.3302 163.332ZM30.9402 163.332C30.9402 164.83 31.6542 165.74 32.7882 165.74C33.9222 165.74 34.6362 164.83 34.6362 163.332C34.6362 161.834 33.9222 160.924 32.7882 160.924C31.6542 160.924 30.9402 161.834 30.9402 163.332ZM43.7559 159.65V167H42.0759V166.216C41.6559 166.706 41.0259 167.154 40.0739 167.154C38.5339 167.154 37.5819 166.104 37.5819 164.522V159.65H39.2619V164.158C39.2619 165.054 39.6539 165.628 40.5639 165.628C41.3199 165.628 42.0759 165.068 42.0759 164.018V159.65H43.7559ZM45.5265 167V159.65H47.2065V160.434C47.6265 159.944 48.2845 159.51 49.2365 159.51C50.7765 159.51 51.7005 160.574 51.7005 162.156V167H50.0205V162.646C50.0205 161.736 49.6565 161.078 48.7325 161.078C47.9765 161.078 47.2065 161.638 47.2065 162.688V167H45.5265ZM53.5692 165.152V161.078H52.5472V159.65H53.5692V157.494H55.2212V159.65H56.7612V161.078H55.2212V164.886C55.2212 165.544 55.5992 165.614 56.2012 165.614C56.4812 165.614 56.6352 165.6 56.8872 165.572V166.986C56.5792 167.042 56.1592 167.084 55.7252 167.084C54.3252 167.084 53.5692 166.65 53.5692 165.152Z" fill="#20336B"/>
<path d="M136 125.5C151.188 125.5 163.5 113.188 163.5 98C163.5 82.8122 151.188 70.5 136 70.5C120.812 70.5 108.5 82.8122 108.5 98C108.5 113.188 120.812 125.5 136 125.5Z" stroke="#4ABCEB"/>
<path d="M124.859 109.501L125.504 107.641L125.968 106.754C126.003 106.687 126.103 106.641 126.216 106.641H135.791C135.904 106.641 137.004 106.644 137.004 106.644" stroke="#20336B" stroke-linecap="round" stroke-linejoin="round"/>
<path fill-rule="evenodd" clip-rule="evenodd" d="M127.5 96.084H133.5V106.644H127.5V96.084Z" stroke="#20336B" stroke-linecap="round" stroke-linejoin="round"/>
<path d="M139.5 109.523H124.5" stroke="#20336B" stroke-linecap="round" stroke-linejoin="round"/>
<path d="M130.5 96.084V106.644" stroke="#20336B" stroke-linecap="round" stroke-linejoin="round"/>
<path d="M133.5 96.084V106.644" stroke="#20336B" stroke-linecap="round" stroke-linejoin="round"/>
<path d="M138.5 96.084V101.084" stroke="#20336B" stroke-linecap="round" stroke-linejoin="round"/>
<path d="M141.5 96.084V99.5005" stroke="#20336B" stroke-linecap="round" stroke-linejoin="round"/>
<path d="M144 96.709V100.209" stroke="#20336B" stroke-linecap="round" stroke-linejoin="round"/>
<path fill-rule="evenodd" clip-rule="evenodd" d="M146.367 93.577C146.443 93.36 146.348 93.1222 146.141 93.0087L136.245 87.576C136.091 87.4903 135.9 87.4903 135.745 87.576L125.845 93.0048C125.639 93.1184 125.544 93.3562 125.619 93.5731L126.383 95.7552C126.451 95.9512 126.642 96.0834 126.857 96.0835H145.137C145.353 96.0834 145.543 95.9512 145.611 95.7552L146.367 93.577Z" stroke="#20336B" stroke-linecap="round" stroke-linejoin="round"/>
<path d="M146.327 93.2031H125.656" stroke="#20336B" stroke-linecap="round" stroke-linejoin="round"/>
<path fill-rule="evenodd" clip-rule="evenodd" d="M142.963 104.823L142.987 104.846C143.192 105.051 143.524 105.051 143.73 104.846L144.77 103.805C145.077 103.497 145.077 102.999 144.77 102.691L144.309 102.23C144.001 101.923 143.503 101.923 143.195 102.23L142.154 103.27C141.949 103.475 141.949 103.808 142.154 104.013L142.177 104.036L142.963 104.823Z" stroke="#00BAF2" stroke-linecap="round" stroke-linejoin="round"/>
<path fill-rule="evenodd" clip-rule="evenodd" d="M141.037 105.177L141.013 105.154C140.808 104.949 140.476 104.949 140.271 105.154L139.23 106.195C138.923 106.503 138.923 107.001 139.23 107.309L139.691 107.77C139.999 108.077 140.497 108.077 140.805 107.77L141.846 106.73C141.945 106.631 142 106.498 142 106.358C142 106.219 141.945 106.086 141.846 105.987L141.823 105.964L141.037 105.177Z" stroke="#00BAF2" stroke-linecap="round" stroke-linejoin="round"/>
<path d="M141 106L143 104" stroke="#00BAF2" stroke-linecap="round" stroke-linejoin="round"/>
<path fill-rule="evenodd" clip-rule="evenodd" d="M137 105C137 102.239 139.239 100 142 100C144.761 100 147 102.239 147 105C147 107.761 144.761 110 142 110C139.239 110 137 107.761 137 105Z" stroke="#20336B" stroke-linecap="round" stroke-linejoin="round"/>
<path d="M98.4588 149V138.948H100.251V147.432H104.983V149H98.4588ZM106.044 140.67V138.948H107.78V140.67H106.044ZM107.752 141.65V149H106.072V141.65H107.752ZM109.518 149V141.65H111.198V142.434C111.618 141.944 112.276 141.51 113.228 141.51C114.768 141.51 115.692 142.574 115.692 144.156V149H114.012V144.646C114.012 143.736 113.648 143.078 112.724 143.078C111.968 143.078 111.198 143.638 111.198 144.688V149H109.518ZM119.086 138.948V144.744L121.914 141.65H123.972L121.2 144.506L124.196 149H122.25L120.052 145.682L119.086 146.662V149H117.406V138.948H119.086ZM127.802 149.154C125.702 149.154 124.232 147.6 124.232 145.332C124.232 143.176 125.688 141.51 127.732 141.51C129.86 141.51 130.994 143.12 130.994 145.136V145.696H125.842C125.968 146.956 126.724 147.726 127.802 147.726C128.628 147.726 129.286 147.306 129.51 146.55L130.952 147.096C130.434 148.384 129.272 149.154 127.802 149.154ZM127.718 142.924C126.85 142.924 126.178 143.442 125.926 144.436H129.3C129.286 143.624 128.782 142.924 127.718 142.924ZM135.026 149.154C132.968 149.154 131.792 147.418 131.792 145.332C131.792 143.246 132.968 141.51 135.026 141.51C135.978 141.51 136.678 141.888 137.14 142.434V138.948H138.82V149H137.14V148.23C136.678 148.776 135.978 149.154 135.026 149.154ZM137.182 145.122C137.182 143.736 136.398 142.98 135.362 142.98C134.144 142.98 133.486 143.932 133.486 145.332C133.486 146.732 134.144 147.684 135.362 147.684C136.398 147.684 137.182 146.914 137.182 145.556V145.122ZM143.535 149V138.948H147.525C149.681 138.948 150.829 139.886 150.829 141.594C150.829 142.84 150.101 143.484 149.401 143.764C150.451 144.1 151.151 144.968 151.151 146.2C151.151 147.964 149.849 149 147.777 149H143.535ZM145.257 143.106H147.357C148.505 143.106 149.135 142.658 149.135 141.776C149.135 140.894 148.505 140.46 147.357 140.46H145.257V143.106ZM145.257 144.618V147.488H147.679C148.813 147.488 149.429 146.9 149.429 146.046C149.429 145.206 148.813 144.618 147.679 144.618H145.257ZM154.352 149.126C152.952 149.126 151.874 148.272 151.874 146.956C151.874 145.556 152.924 144.94 154.338 144.646L156.368 144.226V144.1C156.368 143.4 156.004 142.966 155.108 142.966C154.31 142.966 153.89 143.33 153.694 144.044L152.112 143.68C152.476 142.462 153.554 141.51 155.178 141.51C156.942 141.51 158.006 142.35 158.006 144.044V147.208C158.006 147.628 158.188 147.754 158.65 147.698V149C157.432 149.14 156.788 148.902 156.536 148.3C156.074 148.818 155.304 149.126 154.352 149.126ZM156.368 146.41V145.514L154.786 145.85C154.072 146.004 153.54 146.228 153.54 146.886C153.54 147.46 153.96 147.782 154.604 147.782C155.5 147.782 156.368 147.306 156.368 146.41ZM159.844 149V141.65H161.524V142.434C161.944 141.944 162.602 141.51 163.554 141.51C165.094 141.51 166.018 142.574 166.018 144.156V149H164.338V144.646C164.338 143.736 163.974 143.078 163.05 143.078C162.294 143.078 161.524 143.638 161.524 144.688V149H159.844ZM169.413 138.948V144.744L172.241 141.65H174.299L171.527 144.506L174.523 149H172.577L170.379 145.682L169.413 146.662V149H167.733V138.948H169.413ZM110.225 156.948H112.255L116.063 167H114.257L113.389 164.704H109.049L108.195 167H106.417L110.225 156.948ZM111.205 158.936L109.637 163.136H112.801L111.205 158.936ZM117.948 163.332C117.948 164.83 118.732 165.698 119.88 165.698C120.776 165.698 121.322 165.11 121.532 164.298L122.974 165.026C122.596 166.216 121.476 167.154 119.88 167.154C117.78 167.154 116.268 165.6 116.268 163.332C116.268 161.064 117.78 159.51 119.88 159.51C121.462 159.51 122.554 160.406 122.946 161.582L121.532 162.352C121.322 161.554 120.776 160.952 119.88 160.952C118.732 160.952 117.948 161.834 117.948 163.332ZM125.207 163.332C125.207 164.83 125.991 165.698 127.139 165.698C128.035 165.698 128.581 165.11 128.791 164.298L130.233 165.026C129.855 166.216 128.735 167.154 127.139 167.154C125.039 167.154 123.527 165.6 123.527 163.332C123.527 161.064 125.039 159.51 127.139 159.51C128.721 159.51 129.813 160.406 130.205 161.582L128.791 162.352C128.581 161.554 128.035 160.952 127.139 160.952C125.991 160.952 125.207 161.834 125.207 163.332ZM137.871 163.332C137.871 165.614 136.401 167.154 134.329 167.154C132.257 167.154 130.787 165.614 130.787 163.332C130.787 161.05 132.257 159.51 134.329 159.51C136.401 159.51 137.871 161.05 137.871 163.332ZM132.481 163.332C132.481 164.83 133.195 165.74 134.329 165.74C135.463 165.74 136.177 164.83 136.177 163.332C136.177 161.834 135.463 160.924 134.329 160.924C133.195 160.924 132.481 161.834 132.481 163.332ZM145.297 159.65V167H143.617V166.216C143.197 166.706 142.567 167.154 141.615 167.154C140.075 167.154 139.123 166.104 139.123 164.522V159.65H140.803V164.158C140.803 165.054 141.195 165.628 142.105 165.628C142.861 165.628 143.617 165.068 143.617 164.018V159.65H145.297ZM147.068 167V159.65H148.748V160.434C149.168 159.944 149.826 159.51 150.778 159.51C152.318 159.51 153.242 160.574 153.242 162.156V167H151.562V162.646C151.562 161.736 151.198 161.078 150.274 161.078C149.518 161.078 148.748 161.638 148.748 162.688V167H147.068ZM155.11 165.152V161.078H154.088V159.65H155.11V157.494H156.762V159.65H158.302V161.078H156.762V164.886C156.762 165.544 157.14 165.614 157.742 165.614C158.022 165.614 158.176 165.6 158.428 165.572V166.986C158.12 167.042 157.7 167.084 157.266 167.084C155.866 167.084 155.11 166.65 155.11 165.152ZM158.917 165.6L160.177 164.592C160.611 165.306 161.451 165.782 162.305 165.782C163.019 165.782 163.677 165.53 163.677 164.872C163.677 164.242 163.061 164.172 161.899 163.934C160.737 163.696 159.407 163.402 159.407 161.834C159.407 160.49 160.583 159.51 162.277 159.51C163.565 159.51 164.713 160.084 165.245 160.896L164.111 161.918C163.691 161.26 162.991 160.882 162.179 160.882C161.493 160.882 161.045 161.19 161.045 161.68C161.045 162.212 161.577 162.31 162.501 162.506C163.747 162.772 165.315 163.038 165.315 164.718C165.315 166.202 163.957 167.154 162.291 167.154C160.933 167.154 159.575 166.608 158.917 165.6Z" fill="#20336B"/>
<path d="M377 125.5C392.188 125.5 404.5 113.188 404.5 98C404.5 82.8122 392.188 70.5 377 70.5C361.812 70.5 349.5 82.8122 349.5 98C349.5 113.188 361.812 125.5 377 125.5Z" stroke="#4ABCEB"/>
<path d="M368 98.8379C368.276 98.8379 368.5 99.0617 368.5 99.3379V106.338C368.5 106.614 368.276 106.838 368 106.838H365C364.724 106.838 364.5 106.614 364.5 106.338V99.3379C364.5 99.0617 364.724 98.8379 365 98.8379H368Z" stroke="#20336B"/>
<path d="M368.5 105.401C379 108.901 375.5 108.901 387.5 102.901C386.809 101.971 385.611 101.571 384.5 101.901L380.184 103.268" stroke="#20336B"/>
<path d="M368.5 99.8379H371.5C373.853 99.8379 375.5 101.838 376 101.838H379.5C380.5 101.838 380.5 103.838 379.5 103.838H374" stroke="#20336B"/>
<path d="M381.85 92.3357H380.865V91.3885H381.85C381.998 91.3885 382.118 91.2686 382.118 91.1205C382.118 90.9723 381.998 90.8523 381.85 90.8523H380.865V89.538C380.865 89.3462 380.827 89.2054 380.752 89.1196C380.681 89.038 380.588 89 380.458 89C380.335 89 380.245 89.0377 380.175 89.1188C380.102 89.2047 380.064 89.3458 380.064 89.5381V90.8525H378.21L377.422 89.6597C377.358 89.5588 377.294 89.4582 377.229 89.3578C377.174 89.2716 377.12 89.2014 377.069 89.149C377.023 89.1026 376.972 89.0667 376.912 89.0391C376.855 89.0131 376.782 89.0001 376.697 89.0001C376.588 89.0001 376.489 89.03 376.394 89.0914C376.3 89.1522 376.235 89.2273 376.195 89.3211C376.161 89.4102 376.142 89.5468 376.142 89.723V90.8524H375.166C375.018 90.8524 374.898 90.9724 374.898 91.1205C374.898 91.2687 375.018 91.3886 375.166 91.3886H376.142V92.3359H375.166C375.018 92.3359 374.898 92.4559 374.898 92.604C374.898 92.7521 375.018 92.872 375.166 92.872H376.142V94.3726C376.142 94.5588 376.181 94.6982 376.259 94.7867C376.333 94.8712 376.426 94.9104 376.553 94.9104C376.675 94.9104 376.768 94.871 376.845 94.7864C376.924 94.6997 376.963 94.5604 376.963 94.3726V92.872H378.641L379.549 94.2641C379.612 94.3567 379.677 94.4486 379.742 94.54C379.801 94.6218 379.865 94.6939 379.932 94.7541C379.993 94.8085 380.058 94.8484 380.126 94.8727C380.196 94.8979 380.277 94.9106 380.368 94.9106C380.613 94.9106 380.865 94.8354 380.865 94.278V92.872H381.85C381.998 92.872 382.118 92.7519 382.118 92.6039C382.118 92.4558 381.998 92.3357 381.85 92.3357ZM380.064 91.3885V92.3357H379.191L378.565 91.3885H380.064ZM376.963 90.3001L377.324 90.8523H376.963V90.3001ZM376.963 92.3357V91.3885H377.673L378.291 92.3357H376.963ZM380.064 93.6578L379.545 92.872H380.064V93.6578Z" fill="#24BAF2"/>
<path d="M378.5 97.5C381.538 97.5 384 95.0376 384 92C384 88.9624 381.538 86.5 378.5 86.5C375.462 86.5 373 88.9624 373 92C373 95.0376 375.462 97.5 378.5 97.5Z" stroke="#20336B"/>
<path d="M341.353 137.948V148H339.561V137.948H341.353ZM343.183 148V140.65H344.863V141.434C345.283 140.944 345.941 140.51 346.893 140.51C348.433 140.51 349.357 141.574 349.357 143.156V148H347.677V143.646C347.677 142.736 347.313 142.078 346.389 142.078C345.633 142.078 344.863 142.638 344.863 143.688V148H343.183ZM350.301 146.6L351.561 145.592C351.995 146.306 352.835 146.782 353.689 146.782C354.403 146.782 355.061 146.53 355.061 145.872C355.061 145.242 354.445 145.172 353.283 144.934C352.121 144.696 350.791 144.402 350.791 142.834C350.791 141.49 351.967 140.51 353.661 140.51C354.949 140.51 356.097 141.084 356.629 141.896L355.495 142.918C355.075 142.26 354.375 141.882 353.563 141.882C352.877 141.882 352.429 142.19 352.429 142.68C352.429 143.212 352.961 143.31 353.885 143.506C355.131 143.772 356.699 144.038 356.699 145.718C356.699 147.202 355.341 148.154 353.675 148.154C352.317 148.154 350.959 147.608 350.301 146.6ZM358.143 146.152V142.078H357.121V140.65H358.143V138.494H359.795V140.65H361.335V142.078H359.795V145.886C359.795 146.544 360.173 146.614 360.775 146.614C361.055 146.614 361.209 146.6 361.461 146.572V147.986C361.153 148.042 360.733 148.084 360.299 148.084C358.899 148.084 358.143 147.65 358.143 146.152ZM364.666 148.126C363.266 148.126 362.188 147.272 362.188 145.956C362.188 144.556 363.238 143.94 364.652 143.646L366.682 143.226V143.1C366.682 142.4 366.318 141.966 365.422 141.966C364.624 141.966 364.204 142.33 364.008 143.044L362.426 142.68C362.79 141.462 363.868 140.51 365.492 140.51C367.256 140.51 368.32 141.35 368.32 143.044V146.208C368.32 146.628 368.502 146.754 368.964 146.698V148C367.746 148.14 367.102 147.902 366.85 147.3C366.388 147.818 365.618 148.126 364.666 148.126ZM366.682 145.41V144.514L365.1 144.85C364.386 145.004 363.854 145.228 363.854 145.886C363.854 146.46 364.274 146.782 364.918 146.782C365.814 146.782 366.682 146.306 366.682 145.41ZM371.837 137.948V148H370.157V137.948H371.837ZM375.283 137.948V148H373.603V137.948H375.283ZM378.728 143.688V148H377.048V140.65H378.728V141.434C379.134 140.944 379.764 140.51 380.744 140.51C381.626 140.51 382.284 140.902 382.69 141.532C383.138 141.056 383.838 140.51 384.972 140.51C386.484 140.51 387.464 141.574 387.464 143.156V148H385.784V143.646C385.784 142.736 385.448 142.078 384.552 142.078C383.838 142.078 383.096 142.638 383.096 143.688V148H381.416V143.646C381.416 142.736 381.08 142.078 380.184 142.078C379.47 142.078 378.728 142.638 378.728 143.688ZM392.283 148.154C390.183 148.154 388.713 146.6 388.713 144.332C388.713 142.176 390.169 140.51 392.213 140.51C394.341 140.51 395.475 142.12 395.475 144.136V144.696H390.323C390.449 145.956 391.205 146.726 392.283 146.726C393.109 146.726 393.767 146.306 393.991 145.55L395.433 146.096C394.915 147.384 393.753 148.154 392.283 148.154ZM392.199 141.924C391.331 141.924 390.659 142.442 390.407 143.436H393.781C393.767 142.624 393.263 141.924 392.199 141.924ZM396.736 148V140.65H398.416V141.434C398.836 140.944 399.494 140.51 400.446 140.51C401.986 140.51 402.91 141.574 402.91 143.156V148H401.23V143.646C401.23 142.736 400.866 142.078 399.942 142.078C399.186 142.078 398.416 142.638 398.416 143.688V148H396.736ZM404.778 146.152V142.078H403.756V140.65H404.778V138.494H406.43V140.65H407.97V142.078H406.43V145.886C406.43 146.544 406.808 146.614 407.41 146.614C407.69 146.614 407.844 146.6 408.096 146.572V147.986C407.788 148.042 407.368 148.084 406.934 148.084C405.534 148.084 404.778 147.65 404.778 146.152ZM408.585 146.6L409.845 145.592C410.279 146.306 411.119 146.782 411.973 146.782C412.687 146.782 413.345 146.53 413.345 145.872C413.345 145.242 412.729 145.172 411.567 144.934C410.405 144.696 409.075 144.402 409.075 142.834C409.075 141.49 410.251 140.51 411.945 140.51C413.233 140.51 414.381 141.084 414.913 141.896L413.779 142.918C413.359 142.26 412.659 141.882 411.847 141.882C411.161 141.882 410.713 142.19 410.713 142.68C410.713 143.212 411.245 143.31 412.169 143.506C413.415 143.772 414.983 144.038 414.983 145.718C414.983 147.202 413.625 148.154 411.959 148.154C410.601 148.154 409.243 147.608 408.585 146.6Z" fill="#20336B"/>
<path d="M31 125.5C46.1878 125.5 58.5 113.188 58.5 98C58.5 82.8122 46.1878 70.5 31 70.5C15.8122 70.5 3.5 82.8122 3.5 98C3.5 113.188 15.8122 125.5 31 125.5Z" stroke="#4ABCEB"/>
<path d="M39.0625 91.8125H21.5C20.6716 91.8125 20 92.4841 20 93.3125V106.562C20 107.391 20.6716 108.062 21.5 108.062H39.0625C39.8909 108.062 40.5625 107.391 40.5625 106.562V93.3125C40.5625 92.4841 39.8909 91.8125 39.0625 91.8125Z" stroke="#20336B"/>
<path d="M25.7344 91.7917L32.9347 87.2914C33.1848 87.1352 33.5151 87.2281 33.647 87.4918L34.3594 88.9167" stroke="#20336B"/>
<path d="M28.6094 91.7923L36.2645 88.1899C36.5289 88.0655 36.843 88.1932 36.9456 88.4667L38.1927 91.7923" stroke="#20336B"/>
<mask id="mask1_1899_2480" style="mask-type:luminance" maskUnits="userSpaceOnUse" x="32" y="97" width="11" height="6">
<path d="M32.9219 99.0625C32.9219 97.9579 33.8173 97.0625 34.9219 97.0625H42.0052C42.2814 97.0625 42.5052 97.2864 42.5052 97.5625V102.312C42.5052 102.589 42.2814 102.812 42.0052 102.812H34.9219C33.8173 102.812 32.9219 101.917 32.9219 100.812V99.0625Z" fill="white"/>
</mask>
<g mask="url(#mask1_1899_2480)">
<path d="M32.9219 99.0625C32.9219 97.9579 33.8173 97.0625 34.9219 97.0625H42.0052C42.2814 97.0625 42.5052 97.2864 42.5052 97.5625V102.312C42.5052 102.589 42.2814 102.812 42.0052 102.812H34.9219C33.8173 102.812 32.9219 101.917 32.9219 100.812V99.0625Z" stroke="#20336B" stroke-width="2"/>
</g>
<path d="M36.026 100.737C36.4943 100.737 36.8739 100.358 36.8739 99.8893C36.8739 99.421 36.4943 99.0414 36.026 99.0414C35.5577 99.0414 35.1781 99.421 35.1781 99.8893C35.1781 100.358 35.5577 100.737 36.026 100.737Z" stroke="#20336B" stroke-width="0.7"/>
<path d="M36.2573 89.7793H34.9406C34.7749 89.7793 34.6406 89.9136 34.6406 90.0793V90.4376C34.6406 90.6033 34.7749 90.7376 34.9406 90.7376H36.2573C36.423 90.7376 36.5573 90.6033 36.5573 90.4376V90.0793C36.5573 89.9136 36.423 89.7793 36.2573 89.7793Z" fill="#20336B"/>
<path d="M40.5781 95.625H41.7156C41.8813 95.625 42.0156 95.7593 42.0156 95.925V97.5417" stroke="#20336B"/>
<path d="M26.6459 101.718L26.6832 101.549L27.0202 101.499L26.9726 101.718H26.6459Z" fill="#4ABCEB" stroke="#4ABCEB"/>
<path d="M30.3315 101.709L30.4716 101.024L30.7897 100.987L30.6216 101.709H30.3315Z" fill="#4ABCEB" stroke="#4ABCEB"/>
<mask id="mask2_1899_2480" style="mask-type:luminance" maskUnits="userSpaceOnUse" x="22" y="96" width="10" height="7">
<path d="M31.4347 100.421C30.9651 100.471 30.5051 100.523 30.0547 100.578L30.4861 98.5494C30.5321 98.3494 30.5551 98.1686 30.5551 98.0071C30.5551 97.4307 30.2066 97.1424 29.5096 97.1424H28.4632L27.6619 100.906C27.1774 100.982 26.7121 101.061 26.2661 101.144L27.1177 97.1424H25.1405C24.9032 97.1424 24.7616 97.2577 24.7156 97.4881L23.8248 101.701C23.276 101.855 22.7896 102.021 22.375 102.197L23.4512 97.1424C23.5276 96.7809 23.6577 96.5172 23.8416 96.3514C24.0255 96.1861 24.3128 96.1035 24.7035 96.1035H29.8656C30.5017 96.1035 31.0095 96.2305 31.389 96.4846C31.7685 96.7381 31.9583 97.1303 31.9583 97.6614C31.9583 97.8845 31.9428 98.0612 31.9117 98.1916L31.4347 100.421Z" fill="white"/>
</mask>
<g mask="url(#mask2_1899_2480)">
<path d="M62.933 106.323H20.9844V94.6289H62.933V106.323Z" fill="#20336B"/>
</g>
<mask id="mask3_1899_2480" style="mask-type:luminance" maskUnits="userSpaceOnUse" x="22" y="101" width="2" height="2">
<path d="M22.28 102.322L23.77 101.676L23.6612 102.376H22.28V102.322Z" fill="white"/>
</mask>
<g mask="url(#mask3_1899_2480)">
<path d="M22.28 102.322L21.9523 101.076L21.2562 101.379V102.322H22.28ZM23.77 101.676L24.774 101.933L25.1207 99.701L23.4423 100.429L23.77 101.676ZM23.6612 102.376V103.692H24.5009L24.6652 102.634L23.6612 102.376ZM22.28 102.376H21.2562V103.692H22.28V102.376ZM22.6077 103.569L24.0977 102.922L23.4423 100.429L21.9523 101.076L22.6077 103.569ZM22.766 101.418L22.6573 102.119L24.6652 102.634L24.774 101.933L22.766 101.418ZM23.6612 101.06H22.28V103.692H23.6612V101.06ZM23.3038 102.376V102.322H21.2562V102.376H23.3038Z" fill="#4ABCEB"/>
</g>
</svg>
