<svg width="546" height="695" viewBox="0 0 546 695" fill="none" xmlns="http://www.w3.org/2000/svg">
<rect x="280.5" y="309.5" width="95" height="95" rx="7.5" stroke="#C8D0DB"/>
<path d="M347.561 354.677L343.117 350.213L340.538 354.895" stroke="#C8D0DB" stroke-linecap="round" stroke-linejoin="round"/>
<path d="M307.887 358.641L312.901 363.798L315.399 359.082" stroke="#C8D0DB" stroke-linecap="round" stroke-linejoin="round"/>
<path d="M343.1 350.205C346.417 357.561 343.948 366.237 337.255 370.745C330.563 375.253 321.595 374.28 316.025 368.442" stroke="#C8D0DB" stroke-linecap="round" stroke-linejoin="round"/>
<path d="M312.898 363.798C309.583 356.448 312.044 347.777 318.728 343.266C325.411 338.754 334.373 339.713 339.951 345.536" stroke="#C8D0DB" stroke-linecap="round" stroke-linejoin="round"/>
<path d="M318.859 355.172H337.119" stroke="#C8D0DB" stroke-linecap="square"/>
<path d="M318.859 358.822H337.119" stroke="#C8D0DB" stroke-linecap="square"/>
<path d="M333.468 364.301H331.643L324.339 349.693H322.398V364.301" stroke="#C8D0DB" stroke-linecap="square"/>
<path d="M333.578 364.301V349.693" stroke="#C8D0DB" stroke-linecap="square"/>
<rect x="0.5" y="247.5" width="95" height="95" rx="7.5" stroke="#C8D0DB"/>
<path fill-rule="evenodd" clip-rule="evenodd" d="M48.083 279.642C45.4707 279.642 43.3529 281.76 43.3529 284.372C43.3529 286.984 45.4707 289.102 48.083 289.102C50.6953 289.102 52.813 286.984 52.813 284.372C52.813 281.76 50.6953 279.642 48.083 279.642ZM41.4609 284.372C41.4609 280.715 44.4258 277.75 48.083 277.75C51.7403 277.75 54.705 280.715 54.705 284.372C54.705 288.029 51.7403 290.994 48.083 290.994C44.4258 290.994 41.4609 288.029 41.4609 284.372Z" fill="#C8D0DB"/>
<path fill-rule="evenodd" clip-rule="evenodd" d="M43.3835 291.857C42.861 291.857 42.4375 292.281 42.4375 292.803C42.4375 293.326 42.861 293.749 43.3835 293.749H50.2638C55.1924 293.749 59.4453 297.207 60.4509 302.032L60.8783 304.084C61.4906 307.021 59.2483 309.779 56.2478 309.779H43.0032V311.671H56.2478C60.4484 311.671 63.5877 307.81 62.7306 303.698L62.303 301.647C61.1146 295.944 56.0887 291.857 50.2638 291.857H43.3835Z" fill="#C8D0DB"/>
<path d="M36.7452 297.111C31.1244 307.728 36.7452 310.851 41.3604 310.733" stroke="#C8D0DB" stroke-width="1.5"/>
<path d="M36.75 297.11L37.3745 295.861" stroke="#C8D0DB" stroke-width="1.5"/>
<path d="M34.5676 293.382L40.7281 293.311L40.2176 298.883L34.5676 293.382Z" fill="#C8D0DB" stroke="#C8D0DB"/>
<rect x="208.5" y="0.5" width="95" height="95" rx="7.5" stroke="#C8D0DB"/>
<path fill-rule="evenodd" clip-rule="evenodd" d="M256.24 47.431C254.503 47.4314 252.937 46.3849 252.272 44.7798C251.607 43.1747 251.974 41.327 253.202 40.0983C254.43 38.8697 256.277 38.5021 257.882 39.1669C259.487 39.8317 260.533 41.3981 260.533 43.1355C260.531 45.5067 258.61 47.4285 256.24 47.431ZM256.24 40.0788C255.003 40.0785 253.889 40.8234 253.415 41.9659C252.942 43.1084 253.204 44.4236 254.078 45.2981C254.952 46.1726 256.267 46.434 257.409 45.9606C258.551 45.4873 259.296 44.3722 259.296 43.1356C259.294 41.4483 257.927 40.0808 256.24 40.0788ZM263.095 56.6309H249.385L248.766 56.0118C248.766 53.341 250.19 50.8729 252.503 49.5373C254.815 48.2019 257.664 48.2019 259.977 49.5373C262.289 50.8729 263.714 53.341 263.714 56.0118L263.095 56.6309ZM250.033 55.3926H262.447C262.133 52.1989 259.448 49.7641 256.24 49.7641C253.031 49.7641 250.347 52.1989 250.033 55.3926Z" fill="#C8D0DB"/>
<path d="M266.828 25C268.102 25 269.134 26.0326 269.134 27.3068V68.6932C269.134 69.9673 268.102 71 266.828 71H245.307C244.033 71 243 69.9673 243 68.6932V27.3068C243 26.0326 244.033 25 245.307 25H266.828Z" stroke="#C8D0DB" stroke-linecap="round" stroke-linejoin="round"/>
<path d="M244.156 33.168H267.224" stroke="#C8D0DB" stroke-linecap="square"/>
<path d="M245.305 62.0039H268.373" stroke="#C8D0DB" stroke-linecap="square"/>
<path d="M260.302 28.0938C260.939 28.0938 261.456 28.6101 261.456 29.2471C261.456 29.8842 260.939 30.4005 260.302 30.4005H251.075C250.438 30.4005 249.922 29.8842 249.922 29.2471C249.922 28.6101 250.438 28.0938 251.075 28.0938H260.302Z" fill="#C8D0DB"/>
<g filter="url(#filter0_d_472_16561)">
<path fill-rule="evenodd" clip-rule="evenodd" d="M254.531 66.6173C254.531 65.3433 255.564 64.3105 256.838 64.3105C258.112 64.3105 259.145 65.3433 259.145 66.6173C259.145 67.8914 258.112 68.9241 256.838 68.9241C255.564 68.9241 254.531 67.8914 254.531 66.6173Z" stroke="#C8D0DB" stroke-width="0.6"/>
</g>
<rect x="208.5" y="135.5" width="95" height="95" rx="7.5" stroke="#C8D0DB"/>
<rect x="239.25" y="173.469" width="31.3438" height="24.875" rx="1.5" stroke="#C8D0DB"/>
<path d="M248.094 173.688L259.127 166.791C259.378 166.635 259.708 166.728 259.84 166.992L261.031 169.375" stroke="#C8D0DB"/>
<path d="M252.406 173.687L264.134 168.168C264.399 168.044 264.713 168.172 264.815 168.445L266.781 173.687" stroke="#C8D0DB"/>
<mask id="path-27-inside-1_472_16561" fill="white">
<path d="M258.875 183.594C258.875 182.489 259.77 181.594 260.875 181.594H272.75C273.026 181.594 273.25 181.818 273.25 182.094V189.719C273.25 189.995 273.026 190.219 272.75 190.219H260.875C259.77 190.219 258.875 189.323 258.875 188.219V183.594Z"/>
</mask>
<path d="M258.875 183.594C258.875 182.489 259.77 181.594 260.875 181.594H272.75C273.026 181.594 273.25 181.818 273.25 182.094V189.719C273.25 189.995 273.026 190.219 272.75 190.219H260.875C259.77 190.219 258.875 189.323 258.875 188.219V183.594Z" stroke="#C8D0DB" stroke-width="2" mask="url(#path-27-inside-1_472_16561)"/>
<circle cx="263.547" cy="185.834" r="1.44687" stroke="#C8D0DB" stroke-width="0.7"/>
<rect x="261.461" y="170.668" width="2.875" height="1.4375" rx="0.3" fill="#C8D0DB"/>
<path d="M270.375 179.438H272.231C272.397 179.438 272.531 179.572 272.531 179.738V182.312" stroke="#C8D0DB"/>
<path d="M249.169 188.827L249.33 188.101L250.363 187.948L250.172 188.827H249.169Z" fill="#C8D0DB" stroke="#C8D0DB"/>
<path d="M254.706 188.814L255.014 187.309L256.024 187.19L255.647 188.814H254.706Z" fill="#C8D0DB" stroke="#C8D0DB"/>
<mask id="path-33-inside-2_472_16561" fill="white">
<path d="M243.078 189.253L245.261 188.516L245.102 189.315H243.078V189.253Z"/>
</mask>
<path d="M243.078 189.253L245.261 188.516L245.102 189.315H243.078V189.253Z" fill="#C8D0DB"/>
<path d="M243.078 189.253L242.758 188.306L242.078 188.535V189.253H243.078ZM245.261 188.516L246.242 188.711L246.581 187.014L244.941 187.568L245.261 188.516ZM245.102 189.315V190.315H245.922L246.082 189.51L245.102 189.315ZM243.078 189.315H242.078V190.315H243.078V189.315ZM243.398 190.201L245.581 189.463L244.941 187.568L242.758 188.306L243.398 190.201ZM244.281 188.32L244.121 189.119L246.082 189.51L246.242 188.711L244.281 188.32ZM245.102 188.315H243.078V190.315H245.102V188.315ZM244.078 189.315V189.253H242.078V189.315H244.078Z" fill="#C8D0DB" mask="url(#path-33-inside-2_472_16561)"/>
<mask id="mask0_472_16561" style="mask-type:luminance" maskUnits="userSpaceOnUse" x="243" y="180" width="15" height="10">
<path d="M256.66 186.633C255.955 186.708 255.265 186.786 254.59 186.868L255.237 183.825C255.306 183.525 255.34 183.254 255.34 183.012C255.34 182.147 254.818 181.715 253.772 181.715H252.203L251.001 187.36C250.274 187.473 249.576 187.593 248.907 187.718L250.184 181.715H247.219C246.863 181.715 246.65 181.887 246.581 182.233L245.245 188.552C244.422 188.784 243.692 189.033 243.07 189.297L244.685 181.715C244.799 181.172 244.994 180.777 245.27 180.528C245.546 180.28 245.977 180.156 246.563 180.156H254.306C255.26 180.156 256.022 180.347 256.591 180.728C257.161 181.108 257.445 181.696 257.445 182.493C257.445 182.828 257.422 183.093 257.375 183.288L256.66 186.633Z" fill="white"/>
<path d="M256.66 186.633C255.955 186.708 255.265 186.786 254.59 186.868L255.237 183.825C255.306 183.525 255.34 183.254 255.34 183.012C255.34 182.147 254.818 181.715 253.772 181.715H252.203L251.001 187.36C250.274 187.473 249.576 187.593 248.907 187.718L250.184 181.715H247.219C246.863 181.715 246.65 181.887 246.581 182.233L245.245 188.552C244.422 188.784 243.692 189.033 243.07 189.297L244.685 181.715C244.799 181.172 244.994 180.777 245.27 180.528C245.546 180.28 245.977 180.156 246.563 180.156H254.306C255.26 180.156 256.022 180.347 256.591 180.728C257.161 181.108 257.445 181.696 257.445 182.493C257.445 182.828 257.422 183.093 257.375 183.288L256.66 186.633Z" stroke="white"/>
</mask>
<g mask="url(#mask0_472_16561)">
<path d="M303.9 195.484H240.977V177.943H303.9V195.484Z" fill="#C8D0DB"/>
<path d="M303.9 195.484H240.977V177.943H303.9V195.484Z" stroke="#C8D0DB"/>
</g>
<rect x="320.5" y="135.5" width="95" height="95" rx="7.5" stroke="#C8D0DB"/>
<path d="M351.281 198.749L352.248 195.959L352.944 194.63C352.997 194.528 353.147 194.459 353.316 194.459H367.679C367.848 194.459 369.498 194.465 369.498 194.465" stroke="#C8D0DB" stroke-linecap="round" stroke-linejoin="round"/>
<path fill-rule="evenodd" clip-rule="evenodd" d="M355.25 178.625H364.25V194.465H355.25V178.625Z" stroke="#C8D0DB" stroke-linecap="round" stroke-linejoin="round"/>
<path d="M373.25 198.785H350.75" stroke="#C8D0DB" stroke-linecap="round" stroke-linejoin="round"/>
<path d="M359.758 178.625V194.465" stroke="#C8D0DB" stroke-linecap="round" stroke-linejoin="round"/>
<path d="M364.258 178.625V194.465" stroke="#C8D0DB" stroke-linecap="round" stroke-linejoin="round"/>
<path d="M371.758 178.625V186.125" stroke="#C8D0DB" stroke-linecap="round" stroke-linejoin="round"/>
<path d="M376.258 178.625V183.75" stroke="#C8D0DB" stroke-linecap="round" stroke-linejoin="round"/>
<path d="M380 179.562V184.812" stroke="#C8D0DB" stroke-linecap="round" stroke-linejoin="round"/>
<path fill-rule="evenodd" clip-rule="evenodd" d="M383.559 174.865C383.672 174.54 383.53 174.183 383.22 174.013L368.376 165.864C368.144 165.735 367.858 165.735 367.626 165.864L352.776 174.007C352.466 174.178 352.324 174.534 352.437 174.86L353.583 178.133C353.685 178.427 353.971 178.625 354.294 178.625H381.714C382.037 178.625 382.323 178.427 382.425 178.133L383.559 174.865Z" stroke="#C8D0DB" stroke-linecap="round" stroke-linejoin="round"/>
<path d="M383.499 174.305H352.492" stroke="#C8D0DB" stroke-linecap="round" stroke-linejoin="round"/>
<path fill-rule="evenodd" clip-rule="evenodd" d="M378.445 191.734L378.48 191.769C378.788 192.077 379.287 192.077 379.594 191.769L381.156 190.207C381.615 189.745 381.615 188.999 381.156 188.537L380.463 187.845C380.001 187.385 379.255 187.385 378.793 187.845L377.231 189.406C376.923 189.713 376.923 190.212 377.231 190.519L377.266 190.554L378.445 191.734Z" stroke="#C8D0DB" stroke-linecap="round" stroke-linejoin="round"/>
<path fill-rule="evenodd" clip-rule="evenodd" d="M375.555 192.266L375.52 192.231C375.213 191.923 374.714 191.923 374.406 192.231L372.845 193.793C372.385 194.255 372.385 195.001 372.845 195.463L373.537 196.155C373.999 196.615 374.746 196.615 375.208 196.155L376.769 194.594C376.917 194.447 377 194.246 377 194.037C377 193.829 376.917 193.628 376.769 193.481L376.734 193.446L375.555 192.266Z" stroke="#C8D0DB" stroke-linecap="round" stroke-linejoin="round"/>
<path d="M375.5 193.5L378.5 190.5" stroke="#C8D0DB" stroke-linecap="round" stroke-linejoin="round"/>
<path fill-rule="evenodd" clip-rule="evenodd" d="M369.5 192C369.5 187.858 372.858 184.5 377 184.5C381.142 184.5 384.5 187.858 384.5 192C384.5 196.142 381.142 199.5 377 199.5C372.858 199.5 369.5 196.142 369.5 192Z" stroke="#C8D0DB" stroke-linecap="round" stroke-linejoin="round"/>
<rect x="450.5" y="183.5" width="95" height="95" rx="7.5" stroke="#C8D0DB"/>
<path fill-rule="evenodd" clip-rule="evenodd" d="M498.083 215.642C495.471 215.642 493.353 217.76 493.353 220.372C493.353 222.984 495.471 225.102 498.083 225.102C500.695 225.102 502.813 222.984 502.813 220.372C502.813 217.76 500.695 215.642 498.083 215.642ZM491.461 220.372C491.461 216.715 494.426 213.75 498.083 213.75C501.74 213.75 504.705 216.715 504.705 220.372C504.705 224.029 501.74 226.994 498.083 226.994C494.426 226.994 491.461 224.029 491.461 220.372Z" fill="#C8D0DB"/>
<path fill-rule="evenodd" clip-rule="evenodd" d="M493.384 227.857C492.861 227.857 492.438 228.281 492.438 228.803C492.438 229.326 492.861 229.749 493.384 229.749H500.264C505.192 229.749 509.445 233.207 510.451 238.032L510.878 240.084C511.491 243.021 509.248 245.779 506.248 245.779H493.003V247.671H506.248C510.448 247.671 513.588 243.81 512.731 239.698L512.303 237.647C511.115 231.944 506.089 227.857 500.264 227.857H493.384Z" fill="#C8D0DB"/>
<path d="M486.745 233.111C481.124 243.728 486.745 246.851 491.36 246.733" stroke="#C8D0DB" stroke-width="1.5"/>
<path d="M486.75 233.11L487.375 231.861" stroke="#C8D0DB" stroke-width="1.5"/>
<path d="M484.568 229.382L490.728 229.311L490.218 234.883L484.568 229.382Z" fill="#C8D0DB" stroke="#C8D0DB"/>
<rect x="450.5" y="303.5" width="95" height="95" rx="7.5" stroke="#C8D0DB"/>
<mask id="path-59-outside-3_472_16561" maskUnits="userSpaceOnUse" x="478.016" y="333.361" width="17" height="16" fill="black">
<rect fill="white" x="478.016" y="333.361" width="17" height="16"/>
<path fill-rule="evenodd" clip-rule="evenodd" d="M489.403 344.199C489.465 344.275 489.547 344.332 489.64 344.364C491.701 345.114 494.394 346.4 494.756 349.047H493.688C493.407 347.506 492.016 346.35 489.281 345.355C489.009 345.257 488.768 345.085 488.586 344.86C488.403 344.635 488.286 344.364 488.247 344.077C488.207 343.793 488.247 343.503 488.36 343.24C488.473 342.976 488.656 342.749 488.89 342.582C489.467 342.169 490.05 340.662 490.05 340.165V338.737C490.064 337.895 489.753 337.081 489.182 336.463C488.611 335.845 487.824 335.47 486.984 335.418C486.56 335.405 486.138 335.477 485.743 335.63C485.347 335.783 484.987 336.014 484.683 336.309C484.378 336.605 484.136 336.958 483.971 337.348C483.806 337.739 483.721 338.158 483.721 338.582V340.165C483.721 340.662 484.305 342.169 484.882 342.583C485.115 342.749 485.299 342.976 485.412 343.24C485.526 343.503 485.565 343.793 485.526 344.077C485.487 344.364 485.369 344.635 485.187 344.861C485.005 345.086 484.764 345.257 484.491 345.356C481.753 346.35 480.364 347.506 480.083 349.047H479.016C479.377 346.4 482.07 345.114 484.129 344.364C484.222 344.332 484.304 344.275 484.366 344.199C484.428 344.122 484.467 344.031 484.48 343.933C484.494 343.839 484.482 343.743 484.445 343.656C484.408 343.569 484.347 343.493 484.269 343.439C483.4 342.815 482.667 340.984 482.667 340.165V338.582C482.666 338.017 482.78 337.458 483 336.937C483.22 336.417 483.542 335.946 483.948 335.552C484.353 335.159 484.834 334.851 485.361 334.646C485.888 334.442 486.45 334.346 487.015 334.363C488.129 334.426 489.176 334.915 489.937 335.73C490.699 336.544 491.117 337.622 491.105 338.737V340.165C491.105 340.984 490.372 342.815 489.5 343.439C489.423 343.494 489.362 343.569 489.324 343.656C489.287 343.743 489.275 343.839 489.289 343.933C489.302 344.031 489.341 344.122 489.403 344.199Z"/>
</mask>
<path fill-rule="evenodd" clip-rule="evenodd" d="M489.403 344.199C489.465 344.275 489.547 344.332 489.64 344.364C491.701 345.114 494.394 346.4 494.756 349.047H493.688C493.407 347.506 492.016 346.35 489.281 345.355C489.009 345.257 488.768 345.085 488.586 344.86C488.403 344.635 488.286 344.364 488.247 344.077C488.207 343.793 488.247 343.503 488.36 343.24C488.473 342.976 488.656 342.749 488.89 342.582C489.467 342.169 490.05 340.662 490.05 340.165V338.737C490.064 337.895 489.753 337.081 489.182 336.463C488.611 335.845 487.824 335.47 486.984 335.418C486.56 335.405 486.138 335.477 485.743 335.63C485.347 335.783 484.987 336.014 484.683 336.309C484.378 336.605 484.136 336.958 483.971 337.348C483.806 337.739 483.721 338.158 483.721 338.582V340.165C483.721 340.662 484.305 342.169 484.882 342.583C485.115 342.749 485.299 342.976 485.412 343.24C485.526 343.503 485.565 343.793 485.526 344.077C485.487 344.364 485.369 344.635 485.187 344.861C485.005 345.086 484.764 345.257 484.491 345.356C481.753 346.35 480.364 347.506 480.083 349.047H479.016C479.377 346.4 482.07 345.114 484.129 344.364C484.222 344.332 484.304 344.275 484.366 344.199C484.428 344.122 484.467 344.031 484.48 343.933C484.494 343.839 484.482 343.743 484.445 343.656C484.408 343.569 484.347 343.493 484.269 343.439C483.4 342.815 482.667 340.984 482.667 340.165V338.582C482.666 338.017 482.78 337.458 483 336.937C483.22 336.417 483.542 335.946 483.948 335.552C484.353 335.159 484.834 334.851 485.361 334.646C485.888 334.442 486.45 334.346 487.015 334.363C488.129 334.426 489.176 334.915 489.937 335.73C490.699 336.544 491.117 337.622 491.105 338.737V340.165C491.105 340.984 490.372 342.815 489.5 343.439C489.423 343.494 489.362 343.569 489.324 343.656C489.287 343.743 489.275 343.839 489.289 343.933C489.302 344.031 489.341 344.122 489.403 344.199Z" fill="#C8D0DB"/>
<path d="M489.64 344.364L489.708 344.176L489.705 344.175L489.64 344.364ZM489.403 344.199L489.559 344.072L489.559 344.072L489.403 344.199ZM494.756 349.047V349.247H494.985L494.954 349.02L494.756 349.047ZM493.688 349.047L493.491 349.083L493.521 349.247H493.688V349.047ZM489.281 345.355L489.35 345.167L489.349 345.167L489.281 345.355ZM488.586 344.86L488.43 344.986L488.586 344.86ZM488.247 344.077L488.445 344.049L488.445 344.049L488.247 344.077ZM488.36 343.24L488.544 343.319L488.36 343.24ZM488.89 342.582L489.006 342.745L489.006 342.745L488.89 342.582ZM490.05 338.737L489.85 338.734V338.737H490.05ZM489.182 336.463L489.035 336.598L489.182 336.463ZM486.984 335.418L486.996 335.218L486.99 335.218L486.984 335.418ZM485.743 335.63L485.67 335.444V335.444L485.743 335.63ZM484.683 336.309L484.822 336.453V336.453L484.683 336.309ZM483.721 338.582H483.921V338.582L483.721 338.582ZM484.882 342.583L484.765 342.745L484.765 342.745L484.882 342.583ZM485.412 343.24L485.596 343.161H485.596L485.412 343.24ZM485.526 344.077L485.328 344.05L485.328 344.05L485.526 344.077ZM485.187 344.861L485.342 344.986H485.342L485.187 344.861ZM484.491 345.356L484.423 345.167L484.423 345.168L484.491 345.356ZM480.083 349.047V349.247H480.25L480.28 349.083L480.083 349.047ZM479.016 349.047L478.817 349.02L478.786 349.247H479.016V349.047ZM484.129 344.364L484.064 344.175L484.061 344.176L484.129 344.364ZM484.366 344.199L484.211 344.072L484.211 344.072L484.366 344.199ZM484.48 343.933L484.282 343.903L484.281 343.908L484.48 343.933ZM484.445 343.656L484.629 343.577L484.629 343.577L484.445 343.656ZM484.269 343.439L484.152 343.602L484.154 343.603L484.269 343.439ZM482.667 338.582H482.867V338.582L482.667 338.582ZM483.948 335.552L484.087 335.696L483.948 335.552ZM485.361 334.646L485.289 334.46L485.289 334.46L485.361 334.646ZM487.015 334.363L487.026 334.164L487.021 334.163L487.015 334.363ZM489.937 335.73L490.083 335.593V335.593L489.937 335.73ZM491.105 338.737L490.905 338.735V338.737H491.105ZM489.5 343.439L489.615 343.603L489.617 343.602L489.5 343.439ZM489.324 343.656L489.14 343.577V343.577L489.324 343.656ZM489.289 343.933L489.488 343.908L489.487 343.903L489.289 343.933ZM489.705 344.175C489.648 344.155 489.597 344.12 489.559 344.072L489.248 344.325C489.334 344.43 489.447 344.509 489.575 344.553L489.705 344.175ZM494.954 349.02C494.764 347.628 493.96 346.602 492.957 345.835C491.956 345.07 490.744 344.553 489.708 344.176L489.572 344.552C490.597 344.925 491.762 345.426 492.714 346.153C493.662 346.878 494.386 347.819 494.557 349.074L494.954 349.02ZM493.688 349.247H494.756V348.847H493.688V349.247ZM489.213 345.543C491.938 346.535 493.231 347.656 493.491 349.083L493.885 349.011C493.583 347.356 492.093 346.166 489.35 345.167L489.213 345.543ZM488.43 344.986C488.636 345.24 488.907 345.432 489.214 345.543L489.349 345.167C489.111 345.081 488.901 344.931 488.741 344.734L488.43 344.986ZM488.049 344.104C488.093 344.427 488.225 344.732 488.43 344.986L488.741 344.734C488.582 344.537 488.479 344.3 488.445 344.049L488.049 344.104ZM488.176 343.161C488.048 343.458 488.004 343.784 488.049 344.104L488.445 344.049C488.411 343.801 488.445 343.549 488.544 343.319L488.176 343.161ZM488.773 342.419C488.51 342.607 488.304 342.864 488.176 343.161L488.544 343.319C488.642 343.089 488.802 342.89 489.006 342.745L488.773 342.419ZM489.85 340.165C489.85 340.26 489.82 340.425 489.758 340.638C489.697 340.846 489.609 341.086 489.503 341.324C489.398 341.562 489.276 341.794 489.147 341.99C489.017 342.189 488.888 342.337 488.773 342.419L489.006 342.745C489.18 342.62 489.34 342.425 489.482 342.21C489.625 341.991 489.757 341.739 489.869 341.486C489.981 341.233 490.075 340.977 490.142 340.75C490.207 340.528 490.25 340.318 490.25 340.165H489.85ZM489.85 338.737V340.165H490.25V338.737H489.85ZM489.035 336.598C489.572 337.179 489.863 337.943 489.85 338.734L490.25 338.74C490.265 337.847 489.935 336.983 489.329 336.327L489.035 336.598ZM486.971 335.618C487.76 335.667 488.499 336.018 489.035 336.598L489.329 336.327C488.723 335.671 487.887 335.274 486.996 335.218L486.971 335.618ZM485.815 335.817C486.185 335.673 486.581 335.606 486.977 335.618L486.99 335.218C486.539 335.204 486.091 335.281 485.67 335.444L485.815 335.817ZM484.822 336.453C485.107 336.177 485.445 335.96 485.815 335.817L485.67 335.444C485.25 335.607 484.867 335.852 484.543 336.166L484.822 336.453ZM484.155 337.426C484.31 337.06 484.537 336.73 484.822 336.453L484.543 336.166C484.22 336.48 483.963 336.855 483.787 337.27L484.155 337.426ZM483.921 338.582C483.921 338.185 484.001 337.792 484.155 337.426L483.787 337.27C483.611 337.686 483.521 338.132 483.521 338.582L483.921 338.582ZM483.921 340.165V338.582H483.521V340.165H483.921ZM484.998 342.42C484.883 342.338 484.755 342.189 484.624 341.99C484.496 341.794 484.374 341.562 484.268 341.324C484.162 341.086 484.074 340.846 484.013 340.638C483.951 340.425 483.921 340.26 483.921 340.165H483.521C483.521 340.318 483.565 340.528 483.63 340.75C483.696 340.977 483.79 341.233 483.902 341.486C484.014 341.739 484.146 341.991 484.29 342.21C484.431 342.425 484.591 342.621 484.765 342.745L484.998 342.42ZM485.596 343.161C485.468 342.864 485.261 342.607 484.998 342.42L484.765 342.745C484.969 342.891 485.13 343.089 485.229 343.319L485.596 343.161ZM485.724 344.105C485.768 343.784 485.724 343.458 485.596 343.161L485.229 343.319C485.328 343.549 485.362 343.802 485.328 344.05L485.724 344.105ZM485.342 344.986C485.548 344.733 485.68 344.428 485.724 344.104L485.328 344.05C485.293 344.301 485.191 344.538 485.031 344.735L485.342 344.986ZM484.559 345.544C484.866 345.433 485.137 345.24 485.342 344.986L485.031 344.735C484.872 344.932 484.662 345.081 484.423 345.167L484.559 345.544ZM480.28 349.083C480.54 347.656 481.831 346.535 484.56 345.543L484.423 345.168C481.675 346.166 480.188 347.356 479.886 349.011L480.28 349.083ZM479.016 349.247H480.083V348.847H479.016V349.247ZM484.061 344.176C483.026 344.553 481.815 345.07 480.814 345.835C479.811 346.602 479.008 347.628 478.817 349.02L479.214 349.074C479.385 347.819 480.109 346.878 481.057 346.153C482.008 345.426 483.173 344.925 484.197 344.552L484.061 344.176ZM484.211 344.072C484.172 344.12 484.121 344.155 484.064 344.175L484.194 344.553C484.322 344.509 484.435 344.43 484.521 344.325L484.211 344.072ZM484.281 343.908C484.274 343.968 484.249 344.025 484.211 344.072L484.521 344.325C484.606 344.22 484.661 344.093 484.678 343.959L484.281 343.908ZM484.261 343.734C484.283 343.787 484.291 343.846 484.282 343.903L484.677 343.964C484.698 343.833 484.681 343.699 484.629 343.577L484.261 343.734ZM484.154 343.603C484.201 343.636 484.238 343.681 484.261 343.734L484.629 343.577C484.577 343.456 484.492 343.351 484.383 343.275L484.154 343.603ZM482.467 340.165C482.467 340.616 482.663 341.31 482.96 341.958C483.256 342.606 483.675 343.259 484.152 343.601L484.385 343.277C483.994 342.995 483.611 342.421 483.324 341.792C483.036 341.164 482.867 340.532 482.867 340.165H482.467ZM482.467 338.582V340.165H482.867V338.582H482.467ZM482.815 336.859C482.585 337.405 482.466 337.991 482.467 338.582L482.867 338.582C482.866 338.044 482.974 337.511 483.184 337.015L482.815 336.859ZM483.809 335.409C483.384 335.821 483.046 336.314 482.815 336.859L483.184 337.015C483.394 336.519 483.701 336.071 484.087 335.696L483.809 335.409ZM485.289 334.46C484.737 334.674 484.233 334.997 483.809 335.409L484.087 335.696C484.473 335.321 484.931 335.027 485.433 334.833L485.289 334.46ZM487.021 334.163C486.43 334.145 485.841 334.246 485.289 334.46L485.433 334.833C485.935 334.638 486.471 334.547 487.009 334.563L487.021 334.163ZM490.083 335.593C489.287 334.741 488.192 334.229 487.026 334.164L487.004 334.563C488.066 334.622 489.065 335.089 489.791 335.866L490.083 335.593ZM491.305 338.739C491.318 337.572 490.88 336.445 490.083 335.593L489.791 335.866C490.518 336.643 490.917 337.671 490.905 338.735L491.305 338.739ZM491.305 340.165V338.737H490.905V340.165H491.305ZM489.617 343.602C490.095 343.259 490.514 342.606 490.811 341.958C491.108 341.31 491.305 340.616 491.305 340.165H490.905C490.905 340.532 490.735 341.164 490.447 341.792C490.16 342.42 489.776 342.995 489.384 343.276L489.617 343.602ZM489.508 343.735C489.531 343.682 489.568 343.636 489.615 343.603L489.386 343.275C489.277 343.351 489.192 343.456 489.14 343.577L489.508 343.735ZM489.487 343.903C489.478 343.846 489.486 343.788 489.508 343.735L489.14 343.577C489.088 343.699 489.072 343.833 489.092 343.964L489.487 343.903ZM489.559 344.072C489.52 344.025 489.496 343.968 489.488 343.908L489.091 343.959C489.108 344.093 489.163 344.22 489.248 344.325L489.559 344.072Z" fill="#C8D0DB" mask="url(#path-59-outside-3_472_16561)"/>
<path d="M479.547 349.174C484.884 352.54 488.22 352.54 494.224 349.174" stroke="#C8D0DB" stroke-linecap="round"/>
<path fill-rule="evenodd" clip-rule="evenodd" d="M497.462 346.141C497.077 346.141 496.842 345.711 497.025 345.372C497.849 343.849 498.316 342.105 498.316 340.252C498.316 334.299 493.49 329.473 487.537 329.473C481.584 329.473 476.758 334.299 476.758 340.252C476.758 342.105 477.225 343.849 478.049 345.372C478.232 345.711 477.997 346.141 477.612 346.141C477.44 346.141 477.279 346.049 477.196 345.897C476.279 344.221 475.758 342.297 475.758 340.252C475.758 333.746 481.032 328.473 487.537 328.473C494.043 328.473 499.316 333.746 499.316 340.252C499.316 342.297 498.795 344.221 497.878 345.897C497.795 346.049 497.635 346.141 497.462 346.141Z" fill="#C8D0DB"/>
<mask id="path-63-outside-4_472_16561" maskUnits="userSpaceOnUse" x="498.93" y="353.975" width="17" height="16" fill="black">
<rect fill="white" x="498.93" y="353.975" width="17" height="16"/>
<path fill-rule="evenodd" clip-rule="evenodd" d="M510.317 364.812C510.379 364.888 510.461 364.945 510.554 364.977C512.615 365.727 515.308 367.014 515.67 369.66H514.602C514.321 368.12 512.93 366.964 510.196 365.968C509.923 365.87 509.682 365.699 509.5 365.473C509.318 365.248 509.2 364.977 509.161 364.69C509.121 364.406 509.161 364.116 509.274 363.853C509.387 363.59 509.57 363.362 509.804 363.195C510.381 362.782 510.964 361.276 510.964 360.778V359.35C510.978 358.509 510.667 357.694 510.096 357.076C509.525 356.458 508.738 356.084 507.898 356.031C507.474 356.018 507.052 356.09 506.657 356.243C506.261 356.397 505.901 356.628 505.597 356.923C505.292 357.218 505.05 357.571 504.885 357.962C504.72 358.352 504.635 358.772 504.635 359.196V360.778C504.635 361.276 505.219 362.782 505.796 363.196C506.029 363.362 506.213 363.59 506.326 363.853C506.44 364.117 506.479 364.406 506.44 364.69C506.401 364.978 506.283 365.249 506.101 365.474C505.919 365.699 505.678 365.87 505.405 365.969C502.667 366.964 501.278 368.12 500.997 369.66H499.93C500.291 367.014 502.984 365.727 505.043 364.977C505.136 364.945 505.218 364.888 505.28 364.812C505.342 364.736 505.381 364.644 505.394 364.546C505.408 364.453 505.396 364.357 505.359 364.269C505.322 364.182 505.261 364.107 505.183 364.052C504.314 363.428 503.581 361.597 503.581 360.778V359.196C503.58 358.631 503.694 358.071 503.914 357.551C504.134 357.03 504.456 356.559 504.862 356.166C505.267 355.772 505.748 355.464 506.275 355.26C506.802 355.056 507.365 354.959 507.929 354.977C509.043 355.039 510.09 355.528 510.851 356.343C511.613 357.158 512.031 358.235 512.019 359.35V360.778C512.019 361.597 511.286 363.428 510.414 364.052C510.337 364.107 510.276 364.182 510.238 364.269C510.201 364.357 510.189 364.453 510.203 364.546C510.216 364.644 510.256 364.736 510.317 364.812Z"/>
</mask>
<path fill-rule="evenodd" clip-rule="evenodd" d="M510.317 364.812C510.379 364.888 510.461 364.945 510.554 364.977C512.615 365.727 515.308 367.014 515.67 369.66H514.602C514.321 368.12 512.93 366.964 510.196 365.968C509.923 365.87 509.682 365.699 509.5 365.473C509.318 365.248 509.2 364.977 509.161 364.69C509.121 364.406 509.161 364.116 509.274 363.853C509.387 363.59 509.57 363.362 509.804 363.195C510.381 362.782 510.964 361.276 510.964 360.778V359.35C510.978 358.509 510.667 357.694 510.096 357.076C509.525 356.458 508.738 356.084 507.898 356.031C507.474 356.018 507.052 356.09 506.657 356.243C506.261 356.397 505.901 356.628 505.597 356.923C505.292 357.218 505.05 357.571 504.885 357.962C504.72 358.352 504.635 358.772 504.635 359.196V360.778C504.635 361.276 505.219 362.782 505.796 363.196C506.029 363.362 506.213 363.59 506.326 363.853C506.44 364.117 506.479 364.406 506.44 364.69C506.401 364.978 506.283 365.249 506.101 365.474C505.919 365.699 505.678 365.87 505.405 365.969C502.667 366.964 501.278 368.12 500.997 369.66H499.93C500.291 367.014 502.984 365.727 505.043 364.977C505.136 364.945 505.218 364.888 505.28 364.812C505.342 364.736 505.381 364.644 505.394 364.546C505.408 364.453 505.396 364.357 505.359 364.269C505.322 364.182 505.261 364.107 505.183 364.052C504.314 363.428 503.581 361.597 503.581 360.778V359.196C503.58 358.631 503.694 358.071 503.914 357.551C504.134 357.03 504.456 356.559 504.862 356.166C505.267 355.772 505.748 355.464 506.275 355.26C506.802 355.056 507.365 354.959 507.929 354.977C509.043 355.039 510.09 355.528 510.851 356.343C511.613 357.158 512.031 358.235 512.019 359.35V360.778C512.019 361.597 511.286 363.428 510.414 364.052C510.337 364.107 510.276 364.182 510.238 364.269C510.201 364.357 510.189 364.453 510.203 364.546C510.216 364.644 510.256 364.736 510.317 364.812Z" fill="#C8D0DB"/>
<path d="M510.554 364.977L510.623 364.789L510.62 364.788L510.554 364.977ZM510.317 364.812L510.473 364.686L510.473 364.686L510.317 364.812ZM515.67 369.66V369.86H515.899L515.868 369.633L515.67 369.66ZM514.602 369.66L514.405 369.696L514.435 369.86H514.602V369.66ZM510.196 365.968L510.264 365.78L510.263 365.78L510.196 365.968ZM509.5 365.473L509.344 365.599L509.5 365.473ZM509.161 364.69L509.359 364.663L509.359 364.662L509.161 364.69ZM509.274 363.853L509.458 363.932L509.274 363.853ZM509.804 363.195L509.92 363.358L509.92 363.358L509.804 363.195ZM510.964 359.35L510.764 359.347V359.35H510.964ZM510.096 357.076L509.949 357.212L510.096 357.076ZM507.898 356.031L507.91 355.832L507.904 355.831L507.898 356.031ZM506.657 356.243L506.584 356.057V356.057L506.657 356.243ZM505.597 356.923L505.736 357.066V357.066L505.597 356.923ZM504.635 359.196H504.835V359.196L504.635 359.196ZM505.796 363.196L505.679 363.358L505.679 363.359L505.796 363.196ZM506.326 363.853L506.51 363.774H506.51L506.326 363.853ZM506.44 364.69L506.242 364.663L506.242 364.663L506.44 364.69ZM506.101 365.474L506.256 365.6H506.256L506.101 365.474ZM505.405 365.969L505.337 365.781L505.337 365.781L505.405 365.969ZM500.997 369.66V369.86H501.164L501.194 369.696L500.997 369.66ZM499.93 369.66L499.732 369.633L499.701 369.86H499.93V369.66ZM505.043 364.977L504.978 364.788L504.975 364.789L505.043 364.977ZM505.28 364.812L505.125 364.686L505.125 364.686L505.28 364.812ZM505.394 364.546L505.196 364.516L505.195 364.521L505.394 364.546ZM505.359 364.269L505.543 364.191L505.543 364.191L505.359 364.269ZM505.183 364.052L505.066 364.215L505.068 364.216L505.183 364.052ZM503.581 359.196H503.781V359.196L503.581 359.196ZM504.862 356.166L505.001 356.309L504.862 356.166ZM506.275 355.26L506.203 355.073L506.203 355.073L506.275 355.26ZM507.929 354.977L507.941 354.777L507.936 354.777L507.929 354.977ZM510.851 356.343L510.998 356.206V356.206L510.851 356.343ZM512.019 359.35L511.819 359.348V359.35H512.019ZM510.414 364.052L510.529 364.216L510.531 364.215L510.414 364.052ZM510.238 364.269L510.054 364.191V364.191L510.238 364.269ZM510.203 364.546L510.402 364.521L510.401 364.516L510.203 364.546ZM510.62 364.788C510.562 364.768 510.511 364.733 510.473 364.686L510.162 364.938C510.248 365.043 510.361 365.122 510.489 365.166L510.62 364.788ZM515.868 369.633C515.678 368.242 514.874 367.216 513.871 366.449C512.87 365.684 511.658 365.166 510.623 364.789L510.486 365.165C511.511 365.538 512.676 366.039 513.628 366.766C514.577 367.492 515.3 368.432 515.471 369.687L515.868 369.633ZM514.602 369.86H515.67V369.46H514.602V369.86ZM510.127 366.156C512.852 367.148 514.145 368.27 514.405 369.696L514.799 369.624C514.497 367.97 513.007 366.779 510.264 365.78L510.127 366.156ZM509.344 365.599C509.55 365.853 509.821 366.046 510.128 366.156L510.263 365.78C510.025 365.694 509.815 365.545 509.655 365.348L509.344 365.599ZM508.963 364.717C509.007 365.04 509.139 365.346 509.344 365.599L509.655 365.348C509.496 365.151 509.393 364.914 509.359 364.663L508.963 364.717ZM509.09 363.774C508.962 364.071 508.918 364.397 508.963 364.717L509.359 364.662C509.325 364.415 509.359 364.162 509.458 363.932L509.09 363.774ZM509.687 363.033C509.424 363.221 509.218 363.477 509.09 363.774L509.458 363.932C509.557 363.702 509.716 363.504 509.92 363.358L509.687 363.033ZM510.764 360.778C510.764 360.873 510.734 361.038 510.672 361.251C510.611 361.46 510.523 361.699 510.417 361.937C510.312 362.175 510.19 362.408 510.061 362.603C509.931 362.802 509.802 362.95 509.687 363.033L509.92 363.358C510.094 363.234 510.254 363.038 510.396 362.823C510.539 362.604 510.671 362.352 510.783 362.099C510.895 361.847 510.989 361.591 511.056 361.364C511.121 361.141 511.164 360.932 511.164 360.778H510.764ZM510.764 359.35V360.778H511.164V359.35H510.764ZM509.949 357.212C510.486 357.792 510.777 358.557 510.764 359.347L511.164 359.354C511.179 358.461 510.849 357.596 510.243 356.94L509.949 357.212ZM507.885 356.231C508.674 356.28 509.413 356.631 509.949 357.212L510.243 356.94C509.637 356.284 508.802 355.887 507.91 355.832L507.885 356.231ZM506.729 356.43C507.099 356.287 507.495 356.219 507.892 356.231L507.904 355.831C507.453 355.817 507.005 355.894 506.584 356.057L506.729 356.43ZM505.736 357.066C506.021 356.79 506.359 356.573 506.729 356.43L506.584 356.057C506.164 356.22 505.781 356.465 505.457 356.779L505.736 357.066ZM505.069 358.04C505.224 357.674 505.451 357.343 505.736 357.066L505.457 356.779C505.134 357.093 504.877 357.469 504.701 357.884L505.069 358.04ZM504.835 359.196C504.835 358.798 504.915 358.405 505.069 358.04L504.701 357.884C504.526 358.299 504.435 358.745 504.435 359.196L504.835 359.196ZM504.835 360.778V359.196H504.435V360.778H504.835ZM505.912 363.033C505.797 362.951 505.669 362.803 505.538 362.604C505.41 362.408 505.288 362.175 505.182 361.937C505.076 361.699 504.988 361.46 504.927 361.251C504.865 361.038 504.835 360.873 504.835 360.778H504.435C504.435 360.932 504.479 361.141 504.544 361.364C504.61 361.591 504.704 361.847 504.816 362.099C504.929 362.352 505.06 362.605 505.204 362.823C505.345 363.038 505.506 363.234 505.679 363.358L505.912 363.033ZM506.51 363.774C506.382 363.477 506.175 363.221 505.912 363.033L505.679 363.359C505.883 363.504 506.044 363.702 506.143 363.932L506.51 363.774ZM506.638 364.718C506.682 364.397 506.638 364.071 506.51 363.774L506.143 363.932C506.242 364.162 506.276 364.415 506.242 364.663L506.638 364.718ZM506.256 365.6C506.462 365.346 506.594 365.041 506.638 364.718L506.242 364.663C506.207 364.914 506.105 365.151 505.946 365.348L506.256 365.6ZM505.473 366.157C505.78 366.046 506.051 365.853 506.256 365.6L505.946 365.348C505.786 365.545 505.576 365.695 505.337 365.781L505.473 366.157ZM501.194 369.696C501.454 368.27 502.745 367.148 505.474 366.157L505.337 365.781C502.589 366.779 501.102 367.97 500.8 369.624L501.194 369.696ZM499.93 369.86H500.997V369.46H499.93V369.86ZM504.975 364.789C503.94 365.166 502.729 365.684 501.728 366.449C500.725 367.216 499.922 368.242 499.732 369.633L500.128 369.687C500.299 368.432 501.023 367.492 501.971 366.766C502.923 366.039 504.087 365.538 505.111 365.165L504.975 364.789ZM505.125 364.686C505.086 364.733 505.035 364.768 504.978 364.788L505.108 365.166C505.236 365.122 505.349 365.043 505.435 364.938L505.125 364.686ZM505.195 364.521C505.188 364.581 505.163 364.638 505.125 364.686L505.435 364.938C505.52 364.833 505.575 364.706 505.592 364.572L505.195 364.521ZM505.175 364.348C505.198 364.401 505.205 364.459 505.196 364.516L505.591 364.577C505.612 364.446 505.595 364.312 505.543 364.191L505.175 364.348ZM505.068 364.216C505.115 364.249 505.152 364.295 505.175 364.348L505.543 364.191C505.491 364.069 505.406 363.964 505.297 363.888L505.068 364.216ZM503.381 360.778C503.381 361.23 503.577 361.923 503.874 362.572C504.17 363.219 504.589 363.872 505.066 364.215L505.299 363.89C504.908 363.609 504.525 363.034 504.238 362.405C503.951 361.777 503.781 361.146 503.781 360.778H503.381ZM503.381 359.196V360.778H503.781V359.196H503.381ZM503.729 357.473C503.499 358.018 503.38 358.604 503.381 359.196L503.781 359.196C503.78 358.657 503.888 358.124 504.098 357.628L503.729 357.473ZM504.723 356.022C504.298 356.434 503.96 356.927 503.729 357.473L504.098 357.628C504.308 357.133 504.615 356.684 505.001 356.309L504.723 356.022ZM506.203 355.073C505.651 355.287 505.147 355.61 504.723 356.022L505.001 356.309C505.388 355.934 505.845 355.641 506.347 355.446L506.203 355.073ZM507.936 354.777C507.344 354.758 506.755 354.859 506.203 355.073L506.347 355.446C506.849 355.252 507.385 355.16 507.923 355.177L507.936 354.777ZM510.998 356.206C510.201 355.354 509.106 354.842 507.941 354.777L507.918 355.176C508.98 355.236 509.979 355.703 510.705 356.48L510.998 356.206ZM512.219 359.352C512.232 358.186 511.794 357.059 510.998 356.206L510.705 356.48C511.432 357.257 511.831 358.284 511.819 359.348L512.219 359.352ZM512.219 360.778V359.35H511.819V360.778H512.219ZM510.531 364.215C511.01 363.872 511.429 363.22 511.725 362.572C512.022 361.923 512.219 361.23 512.219 360.778H511.819C511.819 361.146 511.649 361.777 511.361 362.405C511.074 363.034 510.69 363.609 510.298 363.89L510.531 364.215ZM510.422 364.348C510.445 364.295 510.482 364.249 510.529 364.216L510.3 363.889C510.191 363.964 510.106 364.069 510.054 364.191L510.422 364.348ZM510.401 364.516C510.392 364.459 510.4 364.401 510.422 364.348L510.054 364.191C510.003 364.312 509.986 364.446 510.006 364.577L510.401 364.516ZM510.473 364.686C510.434 364.638 510.41 364.581 510.402 364.521L510.005 364.572C510.022 364.706 510.077 364.833 510.162 364.938L510.473 364.686Z" fill="#C8D0DB" mask="url(#path-63-outside-4_472_16561)"/>
<path d="M500.461 369.787C505.798 373.153 509.134 373.153 515.138 369.787" stroke="#C8D0DB" stroke-linecap="round"/>
<path fill-rule="evenodd" clip-rule="evenodd" d="M518.384 366.754C517.999 366.754 517.764 366.324 517.947 365.986C518.771 364.462 519.238 362.718 519.238 360.865C519.238 354.912 514.412 350.086 508.459 350.086C502.506 350.086 497.68 354.912 497.68 360.865C497.68 362.718 498.147 364.462 498.971 365.986C499.154 366.324 498.919 366.754 498.534 366.754C498.361 366.754 498.201 366.662 498.118 366.511C497.201 364.834 496.68 362.911 496.68 360.865C496.68 354.36 501.953 349.086 508.459 349.086C514.964 349.086 520.238 354.36 520.238 360.865C520.238 362.911 519.717 364.834 518.8 366.511C518.717 366.662 518.556 366.754 518.384 366.754Z" fill="#C8D0DB"/>
<path d="M484.123 360.13L484.123 360.13L482.351 354.34L484.123 360.13ZM484.123 360.13C484.252 360.552 484.698 360.789 485.119 360.66L484.123 360.13ZM482.88 353.343L482.88 353.343C483.302 353.214 483.748 353.451 483.877 353.873L483.877 353.873L485.649 359.663C485.76 360.026 485.6 360.407 485.284 360.588L482.88 353.343ZM482.88 353.343C482.459 353.472 482.222 353.918 482.351 354.34L482.88 353.343Z" fill="#C8D0DB" stroke="#C8D0DB" stroke-width="0.2"/>
<path d="M479.078 358.903L479.078 358.903C478.762 359.084 478.353 359.031 478.095 358.753L478.095 358.753C477.796 358.429 477.815 357.924 478.139 357.625M479.078 358.903L483.655 354.693C483.979 354.393 483.998 353.888 483.699 353.565L483.699 353.565C483.399 353.241 482.894 353.222 482.571 353.521L482.571 353.521L478.139 357.625M479.078 358.903C479.13 358.873 479.179 358.837 479.223 358.796C479.223 358.796 479.223 358.796 479.223 358.796L483.655 354.693L479.078 358.903ZM478.139 357.625L478.207 357.698M478.139 357.625L478.139 357.625L478.207 357.698M478.207 357.698C477.924 357.96 477.907 358.402 478.169 358.685L478.207 357.698Z" fill="#C8D0DB" stroke="#C8D0DB" stroke-width="0.2"/>
<path d="M480.981 358.946L480.98 358.946C480.318 361.445 480.662 364.055 481.95 366.297C484.623 370.951 490.574 372.569 495.216 369.902C495.598 369.683 495.73 369.195 495.511 368.813C495.291 368.43 494.803 368.298 494.421 368.518C490.543 370.746 485.569 369.393 483.334 365.502C482.257 363.627 481.969 361.445 482.523 359.358L483.816 354.549L483.816 354.549C483.93 354.123 483.678 353.685 483.252 353.571C482.827 353.456 482.389 353.709 482.274 354.134L482.274 354.134L480.981 358.946Z" fill="#C8D0DB" stroke="#C8D0DB" stroke-width="0.2"/>
<path d="M510.773 341.075L510.773 341.075L513.186 346.629L510.773 341.075ZM510.773 341.075C510.597 340.671 510.127 340.485 509.723 340.661L510.773 341.075ZM512.772 347.679L512.772 347.679C512.368 347.854 511.898 347.669 511.722 347.265L511.722 347.265L509.309 341.711C509.157 341.363 509.274 340.966 509.567 340.75L512.772 347.679ZM512.772 347.679C513.176 347.503 513.362 347.033 513.186 346.629L512.772 347.679Z" fill="#C8D0DB" stroke="#C8D0DB" stroke-width="0.2"/>
<path d="M515.922 341.725L515.922 341.725C515.874 341.761 515.829 341.802 515.79 341.848L511.849 346.425C511.849 346.425 511.849 346.425 511.849 346.425C511.561 346.759 511.599 347.263 511.933 347.551L511.933 347.551C512.267 347.838 512.771 347.801 513.058 347.467L513.058 347.467L517 342.889C517 342.889 517 342.889 517 342.889C517.287 342.555 517.25 342.051 516.916 341.764L516.916 341.764C516.628 341.516 516.215 341.51 515.922 341.725Z" fill="#C8D0DB" stroke="#C8D0DB" stroke-width="0.2"/>
<path d="M514.021 341.899L514.021 341.898C514.397 339.341 513.761 336.786 512.229 334.704C509.048 330.381 502.953 329.444 498.64 332.617C498.285 332.878 498.209 333.378 498.47 333.733C498.732 334.088 499.231 334.164 499.586 333.903C503.189 331.252 508.284 332.035 510.943 335.65C512.224 337.391 512.756 339.527 512.442 341.663L511.699 346.588L511.699 346.588C511.633 347.023 511.933 347.43 512.369 347.496C512.805 347.562 513.212 347.261 513.278 346.826L513.278 346.826L514.021 341.899Z" fill="#C8D0DB" stroke="#C8D0DB" stroke-width="0.2"/>
<rect x="0.5" y="247.5" width="95" height="95" rx="7.5" stroke="#C8D0DB"/>
<path fill-rule="evenodd" clip-rule="evenodd" d="M48.083 279.642C45.4707 279.642 43.3529 281.76 43.3529 284.372C43.3529 286.984 45.4707 289.102 48.083 289.102C50.6953 289.102 52.813 286.984 52.813 284.372C52.813 281.76 50.6953 279.642 48.083 279.642ZM41.4609 284.372C41.4609 280.715 44.4258 277.75 48.083 277.75C51.7403 277.75 54.705 280.715 54.705 284.372C54.705 288.029 51.7403 290.994 48.083 290.994C44.4258 290.994 41.4609 288.029 41.4609 284.372Z" fill="#C8D0DB"/>
<path fill-rule="evenodd" clip-rule="evenodd" d="M43.3835 291.857C42.861 291.857 42.4375 292.281 42.4375 292.803C42.4375 293.326 42.861 293.749 43.3835 293.749H50.2638C55.1924 293.749 59.4453 297.207 60.4509 302.032L60.8783 304.084C61.4906 307.021 59.2483 309.779 56.2478 309.779H43.0032V311.671H56.2478C60.4484 311.671 63.5877 307.81 62.7306 303.698L62.303 301.647C61.1146 295.944 56.0887 291.857 50.2638 291.857H43.3835Z" fill="#C8D0DB"/>
<path d="M36.7452 297.111C31.1244 307.728 36.7452 310.851 41.3604 310.733" stroke="#C8D0DB" stroke-width="1.5"/>
<path d="M36.75 297.11L37.3745 295.861" stroke="#C8D0DB" stroke-width="1.5"/>
<path d="M34.5676 293.382L40.7281 293.311L40.2176 298.883L34.5676 293.382Z" fill="#C8D0DB" stroke="#C8D0DB"/>
<rect x="120.5" y="247.5" width="95" height="95" rx="7.5" stroke="#C8D0DB"/>
<path fill-rule="evenodd" clip-rule="evenodd" d="M166.727 301.946H145H149.024L149.147 277H166.479L166.727 302.751V301.946Z" stroke="#C8D0DB" stroke-linecap="square"/>
<path fill-rule="evenodd" clip-rule="evenodd" d="M152.109 283.604H154.74V286.234H152.109V283.604Z" stroke="#C8D0DB" stroke-linecap="round" stroke-linejoin="round"/>
<path fill-rule="evenodd" clip-rule="evenodd" d="M160.875 283.604H163.506V286.234H160.875V283.604Z" stroke="#C8D0DB" stroke-linecap="round" stroke-linejoin="round"/>
<path fill-rule="evenodd" clip-rule="evenodd" d="M152.109 292.373H154.74V295.004H152.109V292.373Z" stroke="#C8D0DB" stroke-linecap="round" stroke-linejoin="round"/>
<path d="M160.875 292.373V295.004H163.506V292.373H162.629" stroke="#C8D0DB" stroke-linecap="round" stroke-linejoin="round"/>
<path d="M156.492 285.796V283.604H159.123" stroke="#C8D0DB" stroke-linecap="round" stroke-linejoin="round"/>
<path d="M159.125 285.357V288.427" stroke="#C8D0DB" stroke-linecap="round" stroke-linejoin="round"/>
<path d="M152.109 290.618H156.494V288.426" stroke="#C8D0DB" stroke-linecap="round" stroke-linejoin="round"/>
<path d="M156.492 292.373V295.004H159.123" stroke="#C8D0DB" stroke-linecap="round" stroke-linejoin="round"/>
<path d="M158.25 292.373H159.127" stroke="#C8D0DB" stroke-linecap="round" stroke-linejoin="round"/>
<path d="M152.109 287.988H154.74" stroke="#C8D0DB" stroke-linecap="round" stroke-linejoin="round"/>
<path d="M163.506 287.988H160.875V288.865" stroke="#C8D0DB" stroke-linecap="round" stroke-linejoin="round"/>
<path d="M158.25 290.619H163.512" stroke="#C8D0DB" stroke-linecap="round" stroke-linejoin="round"/>
<path d="M190.137 313L186.821 308.357V302.388C186.877 300.03 184.061 297.927 181.516 295.756" stroke="#C8D0DB" stroke-linecap="round" stroke-linejoin="round"/>
<path d="M181.916 305.041L178.348 301.369C177.539 300.822 176.479 300.822 175.671 301.369C175.406 301.633 175.258 301.991 175.258 302.364C175.258 302.738 175.406 303.095 175.671 303.359L179.901 307.694V309.683C179.901 310.958 181.971 313 181.971 313" stroke="#C8D0DB" stroke-linecap="round" stroke-linejoin="round"/>
<path d="M176.772 306.368H167.357C166.957 306.368 166.633 306.071 166.633 305.705V283.155C166.633 282.789 166.957 282.492 167.357 282.492H180.393C180.793 282.492 181.117 282.789 181.117 283.155V299.736" stroke="#C8D0DB" stroke-linecap="round" stroke-linejoin="round"/>
<path fill-rule="evenodd" clip-rule="evenodd" d="M169.859 289.834H171.648V291.622H169.859V289.834Z" stroke="#C8D0DB" stroke-linecap="round" stroke-linejoin="round"/>
<path fill-rule="evenodd" clip-rule="evenodd" d="M169.859 296.092H171.648V297.88H169.859V296.092Z" stroke="#C8D0DB" stroke-linecap="round" stroke-linejoin="round"/>
<path fill-rule="evenodd" clip-rule="evenodd" d="M176.117 289.834H177.905V291.622H176.117V289.834Z" stroke="#C8D0DB" stroke-linecap="round" stroke-linejoin="round"/>
<path d="M169.859 294.305H173.436V295.199" stroke="#C8D0DB" stroke-linecap="round" stroke-linejoin="round"/>
<path d="M175.219 295.199V297.882H177.901V295.199H177.007" stroke="#C8D0DB" stroke-linecap="round" stroke-linejoin="round"/>
<path d="M173.438 296.986V297.88" stroke="#C8D0DB" stroke-linecap="round" stroke-linejoin="round"/>
<path d="M173.438 289.834V292.516H174.332" stroke="#C8D0DB" stroke-linecap="round" stroke-linejoin="round"/>
<path d="M176.117 293.41H177.905" stroke="#C8D0DB" stroke-linecap="round" stroke-linejoin="round"/>
<rect x="208.5" y="135.5" width="95" height="95" rx="7.5" stroke="#C8D0DB"/>
<rect x="239.25" y="173.469" width="31.3438" height="24.875" rx="1.5" stroke="#C8D0DB"/>
<path d="M248.094 173.688L259.127 166.791C259.378 166.635 259.708 166.728 259.84 166.992L261.031 169.375" stroke="#C8D0DB"/>
<path d="M252.406 173.687L264.134 168.168C264.399 168.044 264.713 168.172 264.815 168.445L266.781 173.687" stroke="#C8D0DB"/>
<mask id="path-108-inside-5_472_16561" fill="white">
<path d="M258.875 183.594C258.875 182.489 259.77 181.594 260.875 181.594H272.75C273.026 181.594 273.25 181.818 273.25 182.094V189.719C273.25 189.995 273.026 190.219 272.75 190.219H260.875C259.77 190.219 258.875 189.323 258.875 188.219V183.594Z"/>
</mask>
<path d="M258.875 183.594C258.875 182.489 259.77 181.594 260.875 181.594H272.75C273.026 181.594 273.25 181.818 273.25 182.094V189.719C273.25 189.995 273.026 190.219 272.75 190.219H260.875C259.77 190.219 258.875 189.323 258.875 188.219V183.594Z" stroke="#C8D0DB" stroke-width="2" mask="url(#path-108-inside-5_472_16561)"/>
<circle cx="263.547" cy="185.834" r="1.44687" stroke="#C8D0DB" stroke-width="0.7"/>
<rect x="261.461" y="170.668" width="2.875" height="1.4375" rx="0.3" fill="#C8D0DB"/>
<path d="M270.375 179.438H272.231C272.397 179.438 272.531 179.572 272.531 179.738V182.312" stroke="#C8D0DB"/>
<path d="M249.169 188.827L249.33 188.101L250.363 187.948L250.172 188.827H249.169Z" fill="#C8D0DB" stroke="#C8D0DB"/>
<path d="M254.706 188.814L255.014 187.309L256.024 187.19L255.647 188.814H254.706Z" fill="#C8D0DB" stroke="#C8D0DB"/>
<mask id="path-114-inside-6_472_16561" fill="white">
<path d="M243.078 189.253L245.261 188.516L245.102 189.315H243.078V189.253Z"/>
</mask>
<path d="M243.078 189.253L245.261 188.516L245.102 189.315H243.078V189.253Z" fill="#C8D0DB"/>
<path d="M243.078 189.253L242.758 188.306L242.078 188.535V189.253H243.078ZM245.261 188.516L246.242 188.711L246.581 187.014L244.941 187.568L245.261 188.516ZM245.102 189.315V190.315H245.922L246.082 189.51L245.102 189.315ZM243.078 189.315H242.078V190.315H243.078V189.315ZM243.398 190.201L245.581 189.463L244.941 187.568L242.758 188.306L243.398 190.201ZM244.281 188.32L244.121 189.119L246.082 189.51L246.242 188.711L244.281 188.32ZM245.102 188.315H243.078V190.315H245.102V188.315ZM244.078 189.315V189.253H242.078V189.315H244.078Z" fill="#C8D0DB" mask="url(#path-114-inside-6_472_16561)"/>
<mask id="mask1_472_16561" style="mask-type:luminance" maskUnits="userSpaceOnUse" x="243" y="180" width="15" height="10">
<path d="M256.66 186.633C255.955 186.708 255.265 186.786 254.59 186.868L255.237 183.825C255.306 183.525 255.34 183.254 255.34 183.012C255.34 182.147 254.818 181.715 253.772 181.715H252.203L251.001 187.36C250.274 187.473 249.576 187.593 248.907 187.718L250.184 181.715H247.219C246.863 181.715 246.65 181.887 246.581 182.233L245.245 188.552C244.422 188.784 243.692 189.033 243.07 189.297L244.685 181.715C244.799 181.172 244.994 180.777 245.27 180.528C245.546 180.28 245.977 180.156 246.563 180.156H254.306C255.26 180.156 256.022 180.347 256.591 180.728C257.161 181.108 257.445 181.696 257.445 182.493C257.445 182.828 257.422 183.093 257.375 183.288L256.66 186.633Z" fill="white"/>
<path d="M256.66 186.633C255.955 186.708 255.265 186.786 254.59 186.868L255.237 183.825C255.306 183.525 255.34 183.254 255.34 183.012C255.34 182.147 254.818 181.715 253.772 181.715H252.203L251.001 187.36C250.274 187.473 249.576 187.593 248.907 187.718L250.184 181.715H247.219C246.863 181.715 246.65 181.887 246.581 182.233L245.245 188.552C244.422 188.784 243.692 189.033 243.07 189.297L244.685 181.715C244.799 181.172 244.994 180.777 245.27 180.528C245.546 180.28 245.977 180.156 246.563 180.156H254.306C255.26 180.156 256.022 180.347 256.591 180.728C257.161 181.108 257.445 181.696 257.445 182.493C257.445 182.828 257.422 183.093 257.375 183.288L256.66 186.633Z" stroke="white"/>
</mask>
<g mask="url(#mask1_472_16561)">
<path d="M303.9 195.484H240.977V177.943H303.9V195.484Z" fill="#C8D0DB"/>
<path d="M303.9 195.484H240.977V177.943H303.9V195.484Z" stroke="#C8D0DB"/>
</g>
<rect x="320.5" y="135.5" width="95" height="95" rx="7.5" stroke="#C8D0DB"/>
<path d="M351.281 198.749L352.248 195.959L352.944 194.63C352.997 194.528 353.147 194.459 353.316 194.459H367.679C367.848 194.459 369.498 194.465 369.498 194.465" stroke="#C8D0DB" stroke-linecap="round" stroke-linejoin="round"/>
<path fill-rule="evenodd" clip-rule="evenodd" d="M355.25 178.625H364.25V194.465H355.25V178.625Z" stroke="#C8D0DB" stroke-linecap="round" stroke-linejoin="round"/>
<path d="M373.25 198.785H350.75" stroke="#C8D0DB" stroke-linecap="round" stroke-linejoin="round"/>
<path d="M359.758 178.625V194.465" stroke="#C8D0DB" stroke-linecap="round" stroke-linejoin="round"/>
<path d="M364.258 178.625V194.465" stroke="#C8D0DB" stroke-linecap="round" stroke-linejoin="round"/>
<path d="M371.758 178.625V186.125" stroke="#C8D0DB" stroke-linecap="round" stroke-linejoin="round"/>
<path d="M376.258 178.625V183.75" stroke="#C8D0DB" stroke-linecap="round" stroke-linejoin="round"/>
<path d="M380 179.562V184.812" stroke="#C8D0DB" stroke-linecap="round" stroke-linejoin="round"/>
<path fill-rule="evenodd" clip-rule="evenodd" d="M383.559 174.865C383.672 174.54 383.53 174.183 383.22 174.013L368.376 165.864C368.144 165.735 367.858 165.735 367.626 165.864L352.776 174.007C352.466 174.178 352.324 174.534 352.437 174.86L353.583 178.133C353.685 178.427 353.971 178.625 354.294 178.625H381.714C382.037 178.625 382.323 178.427 382.425 178.133L383.559 174.865Z" stroke="#C8D0DB" stroke-linecap="round" stroke-linejoin="round"/>
<path d="M383.499 174.305H352.492" stroke="#C8D0DB" stroke-linecap="round" stroke-linejoin="round"/>
<path fill-rule="evenodd" clip-rule="evenodd" d="M378.445 191.734L378.48 191.769C378.788 192.077 379.287 192.077 379.594 191.769L381.156 190.207C381.615 189.745 381.615 188.999 381.156 188.537L380.463 187.845C380.001 187.385 379.255 187.385 378.793 187.845L377.231 189.406C376.923 189.713 376.923 190.212 377.231 190.519L377.266 190.554L378.445 191.734Z" stroke="#C8D0DB" stroke-linecap="round" stroke-linejoin="round"/>
<path fill-rule="evenodd" clip-rule="evenodd" d="M375.555 192.266L375.52 192.231C375.213 191.923 374.714 191.923 374.406 192.231L372.845 193.793C372.385 194.255 372.385 195.001 372.845 195.463L373.537 196.155C373.999 196.615 374.746 196.615 375.208 196.155L376.769 194.594C376.917 194.447 377 194.246 377 194.037C377 193.829 376.917 193.628 376.769 193.481L376.734 193.446L375.555 192.266Z" stroke="#C8D0DB" stroke-linecap="round" stroke-linejoin="round"/>
<path d="M375.5 193.5L378.5 190.5" stroke="#C8D0DB" stroke-linecap="round" stroke-linejoin="round"/>
<path fill-rule="evenodd" clip-rule="evenodd" d="M369.5 192C369.5 187.858 372.858 184.5 377 184.5C381.142 184.5 384.5 187.858 384.5 192C384.5 196.142 381.142 199.5 377 199.5C372.858 199.5 369.5 196.142 369.5 192Z" stroke="#C8D0DB" stroke-linecap="round" stroke-linejoin="round"/>
<rect x="208.5" y="487.5" width="95" height="95" rx="7.5" stroke="#C8D0DB"/>
<path d="M243.478 538.094C243.911 538.094 244.261 538.444 244.261 538.876V549.833C244.261 550.265 243.911 550.615 243.478 550.615H238.783C238.35 550.615 238 550.265 238 549.833V538.876C238 538.444 238.35 538.094 238.783 538.094H243.478Z" stroke="#C8D0DB"/>
<path d="M244.266 548.366C260.7 553.845 255.222 553.845 274.005 544.453C272.924 542.997 271.048 542.371 269.309 542.888L262.554 545.028" stroke="#C8D0DB"/>
<path d="M244.266 539.658H248.961C252.644 539.658 255.222 542.789 256.005 542.789H261.483C263.048 542.789 263.048 545.919 261.483 545.919H252.874" stroke="#C8D0DB"/>
<path d="M265.155 527.916H263.612V526.434H265.155C265.386 526.434 265.574 526.246 265.574 526.014C265.574 525.782 265.386 525.595 265.155 525.595H263.612V523.537C263.612 523.237 263.553 523.017 263.436 522.882C263.324 522.755 263.178 522.695 262.976 522.695C262.783 522.695 262.642 522.754 262.533 522.881C262.417 523.016 262.359 523.236 262.359 523.538V525.595H259.457L258.223 523.728C258.123 523.57 258.023 523.412 257.922 523.255C257.835 523.12 257.75 523.011 257.67 522.929C257.6 522.856 257.519 522.8 257.425 522.757C257.336 522.716 257.222 522.695 257.088 522.695C256.918 522.695 256.763 522.742 256.614 522.838C256.467 522.933 256.366 523.051 256.304 523.198C256.249 523.337 256.22 523.551 256.22 523.827V525.595H254.693C254.461 525.595 254.273 525.783 254.273 526.014C254.273 526.246 254.461 526.434 254.693 526.434H256.22V527.917H254.693C254.461 527.917 254.273 528.105 254.273 528.336C254.273 528.568 254.461 528.756 254.693 528.756H256.22V531.105C256.22 531.396 256.282 531.614 256.403 531.753C256.518 531.885 256.664 531.946 256.863 531.946C257.055 531.946 257.2 531.885 257.32 531.752C257.443 531.617 257.506 531.399 257.506 531.105V528.756H260.131L261.552 530.935C261.652 531.08 261.753 531.224 261.855 531.367C261.947 531.495 262.047 531.607 262.152 531.702C262.248 531.787 262.35 531.849 262.456 531.887C262.565 531.927 262.692 531.947 262.834 531.947C263.218 531.947 263.612 531.829 263.612 530.957V528.756H265.155C265.386 528.756 265.574 528.568 265.574 528.336C265.574 528.104 265.386 527.916 265.155 527.916ZM262.359 526.434V527.916H260.991L260.012 526.434H262.359ZM257.506 524.73L258.069 525.595H257.506V524.73ZM257.506 527.916V526.434H258.617L259.584 527.916H257.506ZM262.359 529.986L261.546 528.756H262.359V529.986Z" fill="#C8D0DB"/>
<circle cx="259.915" cy="527.391" r="8.8913" stroke="#C8D0DB"/>
<rect x="208.5" y="599.5" width="95" height="95" rx="7.5" stroke="#C8D0DB"/>
<path fill-rule="evenodd" clip-rule="evenodd" d="M244.32 634H272C272.553 634 273 634.448 273 635V654.04C273 654.592 272.553 655.04 272 655.04H255.061C254.987 655.381 254.896 655.715 254.788 656.04H272C273.105 656.04 274 655.145 274 654.04V635C274 633.895 273.105 633 272 633H244.32C243.216 633 242.32 633.895 242.32 635V644.985C242.641 644.787 242.975 644.61 243.32 644.457V635C243.32 634.448 243.768 634 244.32 634Z" fill="#C8D0DB"/>
<rect x="246.641" y="637.32" width="17.28" height="1.44" rx="0.72" fill="#C8D0DB"/>
<rect x="246.641" y="640.199" width="17.28" height="1.44" rx="0.72" fill="#C8D0DB"/>
<circle cx="246.64" cy="653.16" r="8.14" stroke="#C8D0DB"/>
<mask id="path-144-inside-7_472_16561" fill="white">
<path fill-rule="evenodd" clip-rule="evenodd" d="M245.015 651.071L246.488 649.408C247.038 648.788 247.986 648.73 248.606 649.28L250.17 650.665C250.79 651.215 250.847 652.163 250.298 652.783L248.905 654.355L249.669 655L251.046 653.446C251.962 652.412 251.866 650.832 250.833 649.917L249.269 648.531C248.236 647.616 246.656 647.711 245.74 648.744L244.251 650.425L245.015 651.071ZM244.001 652.215L243.236 651.57L242.004 652.961C241.088 653.995 241.184 655.575 242.217 656.49L243.781 657.876C244.814 658.792 246.394 658.696 247.31 657.663L248.655 656.145L247.891 655.499L246.562 656.999C246.012 657.619 245.064 657.677 244.444 657.127L242.88 655.742C242.26 655.193 242.203 654.245 242.752 653.624L244.001 652.215Z"/>
</mask>
<path d="M246.488 649.408L247.237 650.071L246.488 649.408ZM245.015 651.071L244.37 651.835L245.116 652.465L245.763 651.734L245.015 651.071ZM248.606 649.28L247.943 650.028H247.943L248.606 649.28ZM250.17 650.665L249.506 651.414L250.17 650.665ZM250.298 652.783L249.549 652.119L250.298 652.783ZM248.905 654.355L248.156 653.691L247.477 654.458L248.26 655.119L248.905 654.355ZM249.669 655L249.024 655.764L249.77 656.394L250.418 655.663L249.669 655ZM251.046 653.446L251.795 654.109L251.795 654.109L251.046 653.446ZM250.833 649.917L251.496 649.168L251.496 649.168L250.833 649.917ZM249.269 648.531L248.606 649.28L248.606 649.28L249.269 648.531ZM245.74 648.744L246.488 649.408V649.408L245.74 648.744ZM244.251 650.425L243.502 649.762L242.823 650.529L243.606 651.19L244.251 650.425ZM244.001 652.215L244.749 652.879L245.428 652.112L244.646 651.451L244.001 652.215ZM243.236 651.57L243.881 650.806L243.135 650.176L242.488 650.907L243.236 651.57ZM242.004 652.961L241.255 652.298H241.255L242.004 652.961ZM242.217 656.49L241.554 657.239H241.554L242.217 656.49ZM243.781 657.876L244.444 657.127H244.444L243.781 657.876ZM247.31 657.663L248.058 658.326L247.31 657.663ZM248.655 656.145L249.403 656.808L250.083 656.041L249.3 655.38L248.655 656.145ZM247.891 655.499L248.536 654.735L247.79 654.105L247.142 654.836L247.891 655.499ZM246.562 656.999L245.813 656.336H245.813L246.562 656.999ZM244.444 657.127L243.781 657.876H243.781L244.444 657.127ZM242.88 655.742L243.543 654.993L242.88 655.742ZM242.752 653.624L243.501 654.288L242.752 653.624ZM245.74 648.744L244.266 650.408L245.763 651.734L247.237 650.071L245.74 648.744ZM249.269 648.531C248.236 647.616 246.656 647.711 245.74 648.744L247.237 650.071C247.42 649.864 247.736 649.845 247.943 650.028L249.269 648.531ZM250.833 649.917L249.269 648.531L247.943 650.028L249.506 651.414L250.833 649.917ZM251.046 653.446C251.962 652.412 251.866 650.832 250.833 649.917L249.506 651.414C249.713 651.597 249.732 651.913 249.549 652.119L251.046 653.446ZM249.653 655.018L251.046 653.446L249.549 652.119L248.156 653.691L249.653 655.018ZM248.26 655.119L249.024 655.764L250.314 654.236L249.55 653.59L248.26 655.119ZM250.418 655.663L251.795 654.109L250.298 652.783L248.921 654.337L250.418 655.663ZM251.795 654.109C253.076 652.662 252.943 650.45 251.496 649.168L250.17 650.665C250.79 651.215 250.847 652.163 250.298 652.783L251.795 654.109ZM251.496 649.168L249.932 647.783L248.606 649.28L250.17 650.665L251.496 649.168ZM249.932 647.783C248.485 646.501 246.273 646.635 244.991 648.081L246.488 649.408C247.038 648.788 247.986 648.73 248.606 649.28L249.932 647.783ZM244.991 648.081L243.502 649.762L244.999 651.089L246.488 649.408L244.991 648.081ZM243.606 651.19L244.37 651.835L245.66 650.307L244.896 649.661L243.606 651.19ZM244.646 651.451L243.881 650.806L242.591 652.334L243.356 652.98L244.646 651.451ZM242.488 650.907L241.255 652.298L242.752 653.624L243.985 652.233L242.488 650.907ZM241.255 652.298C239.973 653.745 240.107 655.957 241.554 657.239L242.88 655.742C242.26 655.193 242.203 654.245 242.752 653.624L241.255 652.298ZM241.554 657.239L243.118 658.624L244.444 657.127L242.88 655.742L241.554 657.239ZM243.118 658.624C244.565 659.906 246.777 659.773 248.058 658.326L246.562 656.999C246.012 657.619 245.064 657.677 244.444 657.127L243.118 658.624ZM248.058 658.326L249.403 656.808L247.906 655.481L246.562 656.999L248.058 658.326ZM249.3 655.38L248.536 654.735L247.246 656.263L248.01 656.909L249.3 655.38ZM247.31 657.663L248.639 656.162L247.142 654.836L245.813 656.336L247.31 657.663ZM243.781 657.876C244.814 658.792 246.394 658.696 247.31 657.663L245.813 656.336C245.63 656.543 245.314 656.562 245.107 656.379L243.781 657.876ZM242.217 656.49L243.781 657.876L245.107 656.379L243.543 654.993L242.217 656.49ZM242.004 652.961C241.088 653.995 241.184 655.575 242.217 656.49L243.543 654.993C243.337 654.81 243.318 654.494 243.501 654.288L242.004 652.961ZM243.252 651.552L242.004 652.961L243.501 654.288L244.749 652.879L243.252 651.552Z" fill="#C8D0DB" mask="url(#path-144-inside-7_472_16561)"/>
<rect x="248.031" y="650.861" width="1.32923" height="5.31692" rx="0.5" transform="rotate(43.9974 248.031 650.861)" fill="#C8D0DB"/>
<circle cx="263.202" cy="649.561" r="3.1" stroke="#C8D0DB"/>
<circle cx="266.084" cy="649.561" r="3.1" stroke="#C8D0DB"/>
<rect x="280.5" y="309.5" width="95" height="95" rx="7.5" stroke="#C8D0DB"/>
<path d="M347.569 354.677L343.125 350.213L340.545 354.895" stroke="#C8D0DB" stroke-linecap="round" stroke-linejoin="round"/>
<path d="M307.894 358.641L312.909 363.798L315.407 359.082" stroke="#C8D0DB" stroke-linecap="round" stroke-linejoin="round"/>
<path d="M343.108 350.205C346.425 357.561 343.956 366.237 337.263 370.745C330.571 375.253 321.603 374.28 316.032 368.442" stroke="#C8D0DB" stroke-linecap="round" stroke-linejoin="round"/>
<path d="M312.906 363.798C309.591 356.448 312.052 347.777 318.735 343.266C325.419 338.754 334.381 339.713 339.958 345.536" stroke="#C8D0DB" stroke-linecap="round" stroke-linejoin="round"/>
<path d="M318.859 355.172H337.119" stroke="#C8D0DB" stroke-linecap="square"/>
<path d="M318.859 358.822H337.119" stroke="#C8D0DB" stroke-linecap="square"/>
<path d="M333.468 364.301H331.643L324.339 349.693H322.398V364.301" stroke="#C8D0DB" stroke-linecap="square"/>
<path d="M333.578 364.301V349.693" stroke="#C8D0DB" stroke-linecap="square"/>
<rect x="0.5" y="247.5" width="95" height="95" rx="7.5" stroke="#C8D0DB"/>
<path fill-rule="evenodd" clip-rule="evenodd" d="M48.083 279.642C45.4707 279.642 43.3529 281.76 43.3529 284.372C43.3529 286.984 45.4707 289.102 48.083 289.102C50.6953 289.102 52.813 286.984 52.813 284.372C52.813 281.76 50.6953 279.642 48.083 279.642ZM41.4609 284.372C41.4609 280.715 44.4258 277.75 48.083 277.75C51.7403 277.75 54.705 280.715 54.705 284.372C54.705 288.029 51.7403 290.994 48.083 290.994C44.4258 290.994 41.4609 288.029 41.4609 284.372Z" fill="#C8D0DB"/>
<path fill-rule="evenodd" clip-rule="evenodd" d="M43.3835 291.857C42.861 291.857 42.4375 292.281 42.4375 292.803C42.4375 293.326 42.861 293.749 43.3835 293.749H50.2638C55.1924 293.749 59.4453 297.207 60.4509 302.032L60.8783 304.084C61.4906 307.021 59.2483 309.779 56.2478 309.779H43.0032V311.671H56.2478C60.4484 311.671 63.5877 307.81 62.7306 303.698L62.303 301.647C61.1146 295.944 56.0887 291.857 50.2638 291.857H43.3835Z" fill="#C8D0DB"/>
<path d="M36.7452 297.111C31.1244 307.728 36.7452 310.851 41.3604 310.733" stroke="#C8D0DB" stroke-width="1.5"/>
<path d="M36.75 297.11L37.3745 295.861" stroke="#C8D0DB" stroke-width="1.5"/>
<path d="M34.5676 293.382L40.7281 293.311L40.2176 298.883L34.5676 293.382Z" fill="#C8D0DB" stroke="#C8D0DB"/>
<rect x="208.5" y="135.5" width="95" height="95" rx="7.5" stroke="#C8D0DB"/>
<rect x="239.25" y="173.469" width="31.3438" height="24.875" rx="1.5" stroke="#C8D0DB"/>
<path d="M248.094 173.688L259.127 166.791C259.378 166.635 259.708 166.728 259.84 166.992L261.031 169.375" stroke="#C8D0DB"/>
<path d="M252.406 173.687L264.134 168.168C264.399 168.044 264.713 168.172 264.815 168.445L266.781 173.687" stroke="#C8D0DB"/>
<mask id="path-168-inside-8_472_16561" fill="white">
<path d="M258.875 183.594C258.875 182.489 259.77 181.594 260.875 181.594H272.75C273.026 181.594 273.25 181.818 273.25 182.094V189.719C273.25 189.995 273.026 190.219 272.75 190.219H260.875C259.77 190.219 258.875 189.323 258.875 188.219V183.594Z"/>
</mask>
<path d="M258.875 183.594C258.875 182.489 259.77 181.594 260.875 181.594H272.75C273.026 181.594 273.25 181.818 273.25 182.094V189.719C273.25 189.995 273.026 190.219 272.75 190.219H260.875C259.77 190.219 258.875 189.323 258.875 188.219V183.594Z" stroke="#C8D0DB" stroke-width="2" mask="url(#path-168-inside-8_472_16561)"/>
<circle cx="263.547" cy="185.834" r="1.44687" stroke="#C8D0DB" stroke-width="0.7"/>
<rect x="261.461" y="170.668" width="2.875" height="1.4375" rx="0.3" fill="#C8D0DB"/>
<path d="M270.375 179.438H272.231C272.397 179.438 272.531 179.572 272.531 179.738V182.312" stroke="#C8D0DB"/>
<path d="M249.169 188.827L249.33 188.101L250.363 187.948L250.172 188.827H249.169Z" fill="#C8D0DB" stroke="#C8D0DB"/>
<path d="M254.706 188.814L255.014 187.309L256.024 187.19L255.647 188.814H254.706Z" fill="#C8D0DB" stroke="#C8D0DB"/>
<mask id="path-174-inside-9_472_16561" fill="white">
<path d="M243.078 189.253L245.261 188.516L245.102 189.315H243.078V189.253Z"/>
</mask>
<path d="M243.078 189.253L245.261 188.516L245.102 189.315H243.078V189.253Z" fill="#C8D0DB"/>
<path d="M243.078 189.253L242.758 188.306L242.078 188.535V189.253H243.078ZM245.261 188.516L246.242 188.711L246.581 187.014L244.941 187.568L245.261 188.516ZM245.102 189.315V190.315H245.922L246.082 189.51L245.102 189.315ZM243.078 189.315H242.078V190.315H243.078V189.315ZM243.398 190.201L245.581 189.463L244.941 187.568L242.758 188.306L243.398 190.201ZM244.281 188.32L244.121 189.119L246.082 189.51L246.242 188.711L244.281 188.32ZM245.102 188.315H243.078V190.315H245.102V188.315ZM244.078 189.315V189.253H242.078V189.315H244.078Z" fill="#C8D0DB" mask="url(#path-174-inside-9_472_16561)"/>
<mask id="mask2_472_16561" style="mask-type:luminance" maskUnits="userSpaceOnUse" x="243" y="180" width="15" height="10">
<path d="M256.66 186.633C255.955 186.708 255.265 186.786 254.59 186.868L255.237 183.825C255.306 183.525 255.34 183.254 255.34 183.012C255.34 182.147 254.818 181.715 253.772 181.715H252.203L251.001 187.36C250.274 187.473 249.576 187.593 248.907 187.718L250.184 181.715H247.219C246.863 181.715 246.65 181.887 246.581 182.233L245.245 188.552C244.422 188.784 243.692 189.033 243.07 189.297L244.685 181.715C244.799 181.172 244.994 180.777 245.27 180.528C245.546 180.28 245.977 180.156 246.563 180.156H254.306C255.26 180.156 256.022 180.347 256.591 180.728C257.161 181.108 257.445 181.696 257.445 182.493C257.445 182.828 257.422 183.093 257.375 183.288L256.66 186.633Z" fill="white"/>
<path d="M256.66 186.633C255.955 186.708 255.265 186.786 254.59 186.868L255.237 183.825C255.306 183.525 255.34 183.254 255.34 183.012C255.34 182.147 254.818 181.715 253.772 181.715H252.203L251.001 187.36C250.274 187.473 249.576 187.593 248.907 187.718L250.184 181.715H247.219C246.863 181.715 246.65 181.887 246.581 182.233L245.245 188.552C244.422 188.784 243.692 189.033 243.07 189.297L244.685 181.715C244.799 181.172 244.994 180.777 245.27 180.528C245.546 180.28 245.977 180.156 246.563 180.156H254.306C255.26 180.156 256.022 180.347 256.591 180.728C257.161 181.108 257.445 181.696 257.445 182.493C257.445 182.828 257.422 183.093 257.375 183.288L256.66 186.633Z" stroke="white"/>
</mask>
<g mask="url(#mask2_472_16561)">
<path d="M303.9 195.484H240.977V177.943H303.9V195.484Z" fill="#C8D0DB"/>
<path d="M303.9 195.484H240.977V177.943H303.9V195.484Z" stroke="#C8D0DB"/>
</g>
<rect x="320.5" y="135.5" width="95" height="95" rx="7.5" stroke="#C8D0DB"/>
<path d="M351.281 198.749L352.248 195.959L352.944 194.63C352.997 194.528 353.147 194.459 353.316 194.459H367.679C367.848 194.459 369.498 194.465 369.498 194.465" stroke="#C8D0DB" stroke-linecap="round" stroke-linejoin="round"/>
<path fill-rule="evenodd" clip-rule="evenodd" d="M355.25 178.625H364.25V194.465H355.25V178.625Z" stroke="#C8D0DB" stroke-linecap="round" stroke-linejoin="round"/>
<path d="M373.25 198.785H350.75" stroke="#C8D0DB" stroke-linecap="round" stroke-linejoin="round"/>
<path d="M359.758 178.625V194.465" stroke="#C8D0DB" stroke-linecap="round" stroke-linejoin="round"/>
<path d="M364.258 178.625V194.465" stroke="#C8D0DB" stroke-linecap="round" stroke-linejoin="round"/>
<path d="M371.758 178.625V186.125" stroke="#C8D0DB" stroke-linecap="round" stroke-linejoin="round"/>
<path d="M376.258 178.625V183.75" stroke="#C8D0DB" stroke-linecap="round" stroke-linejoin="round"/>
<path d="M380 179.562V184.812" stroke="#C8D0DB" stroke-linecap="round" stroke-linejoin="round"/>
<path fill-rule="evenodd" clip-rule="evenodd" d="M383.559 174.865C383.672 174.54 383.53 174.183 383.22 174.013L368.376 165.864C368.144 165.735 367.858 165.735 367.626 165.864L352.776 174.007C352.466 174.178 352.324 174.534 352.437 174.86L353.583 178.133C353.685 178.427 353.971 178.625 354.294 178.625H381.714C382.037 178.625 382.323 178.427 382.425 178.133L383.559 174.865Z" stroke="#C8D0DB" stroke-linecap="round" stroke-linejoin="round"/>
<path d="M383.499 174.305H352.492" stroke="#C8D0DB" stroke-linecap="round" stroke-linejoin="round"/>
<path fill-rule="evenodd" clip-rule="evenodd" d="M378.445 191.734L378.48 191.769C378.788 192.077 379.287 192.077 379.594 191.769L381.156 190.207C381.615 189.745 381.615 188.999 381.156 188.537L380.463 187.845C380.001 187.385 379.255 187.385 378.793 187.845L377.231 189.406C376.923 189.713 376.923 190.212 377.231 190.519L377.266 190.554L378.445 191.734Z" stroke="#C8D0DB" stroke-linecap="round" stroke-linejoin="round"/>
<path fill-rule="evenodd" clip-rule="evenodd" d="M375.555 192.266L375.52 192.231C375.213 191.923 374.714 191.923 374.406 192.231L372.845 193.793C372.385 194.255 372.385 195.001 372.845 195.463L373.537 196.155C373.999 196.615 374.746 196.615 375.208 196.155L376.769 194.594C376.917 194.447 377 194.246 377 194.037C377 193.829 376.917 193.628 376.769 193.481L376.734 193.446L375.555 192.266Z" stroke="#C8D0DB" stroke-linecap="round" stroke-linejoin="round"/>
<path d="M375.5 193.5L378.5 190.5" stroke="#C8D0DB" stroke-linecap="round" stroke-linejoin="round"/>
<path fill-rule="evenodd" clip-rule="evenodd" d="M369.5 192C369.5 187.858 372.858 184.5 377 184.5C381.142 184.5 384.5 187.858 384.5 192C384.5 196.142 381.142 199.5 377 199.5C372.858 199.5 369.5 196.142 369.5 192Z" stroke="#C8D0DB" stroke-linecap="round" stroke-linejoin="round"/>
<rect x="63.5" y="367.5" width="95" height="95" rx="7.5" stroke="#C8D0DB"/>
<path d="M90.2031 437.031L91.3845 433.623C91.4751 433.362 91.7296 433.186 92.0165 433.186H116.39C116.677 433.186 116.931 433.362 117.022 433.623L118.203 437.026" stroke="#C8D0DB" stroke-linecap="round" stroke-linejoin="round"/>
<path fill-rule="evenodd" clip-rule="evenodd" d="M92.8594 419.111H115.526V433.191H92.8594V419.111Z" stroke="#C8D0DB" stroke-linecap="round" stroke-linejoin="round"/>
<path d="M119.526 437.031H88.8594" stroke="#C8D0DB" stroke-linecap="round" stroke-linejoin="round"/>
<path d="M96.8594 419.111V433.191" stroke="#C8D0DB" stroke-linecap="round" stroke-linejoin="round"/>
<path d="M100.859 419.111V433.191" stroke="#C8D0DB" stroke-linecap="round" stroke-linejoin="round"/>
<path d="M107.531 419.111V433.191" stroke="#C8D0DB" stroke-linecap="round" stroke-linejoin="round"/>
<path d="M111.531 419.111V433.191" stroke="#C8D0DB" stroke-linecap="round" stroke-linejoin="round"/>
<path fill-rule="evenodd" clip-rule="evenodd" d="M118.026 415.769C118.127 415.479 118.001 415.162 117.725 415.011L104.53 407.767C104.324 407.653 104.07 407.653 103.864 407.767L90.6637 415.006C90.3881 415.157 90.262 415.474 90.3624 415.764L91.3811 418.673C91.4717 418.934 91.7262 419.111 92.0131 419.111H116.386C116.673 419.111 116.928 418.934 117.018 418.673L118.026 415.769Z" stroke="#C8D0DB" stroke-linecap="round" stroke-linejoin="round"/>
<path d="M117.968 415.271H90.4062" stroke="#C8D0DB" stroke-linecap="round" stroke-linejoin="round"/>
<path fill-rule="evenodd" clip-rule="evenodd" d="M114.125 402.821C114.125 397.397 118.522 393 123.946 393C129.37 393 133.768 397.397 133.768 402.821C133.768 408.245 129.37 412.643 123.946 412.643C118.522 412.643 114.125 408.245 114.125 402.821Z" stroke="#C8D0DB"/>
<path d="M118.125 401.713H130.246" stroke="#C8D0DB" stroke-linecap="square"/>
<path d="M118.125 403.834H130.246" stroke="#C8D0DB" stroke-linecap="square"/>
<path d="M127.817 407.016H126.605L121.757 398.531H120.469V407.016" stroke="#C8D0DB" stroke-linecap="square"/>
<path d="M127.891 407.016V398.531" stroke="#C8D0DB" stroke-linecap="square"/>
<path d="M124.438 413V425.724C124.438 426.276 123.99 426.724 123.437 426.724H116.203" stroke="#C8D0DB"/>
<path d="M114.311 426.658L118.52 423.612L118.333 429.948L114.311 426.658Z" fill="#C8D0DB"/>
<rect x="280.5" y="309.5" width="95" height="95" rx="7.5" stroke="#C8D0DB"/>
<path d="M347.561 354.677L343.117 350.213L340.538 354.895" stroke="#C8D0DB" stroke-linecap="round" stroke-linejoin="round"/>
<path d="M307.894 358.64L312.909 363.797L315.407 359.082" stroke="#C8D0DB" stroke-linecap="round" stroke-linejoin="round"/>
<path d="M343.099 350.202C346.416 357.558 343.948 366.234 337.255 370.742C330.563 375.25 321.595 374.277 316.025 368.438" stroke="#C8D0DB" stroke-linecap="round" stroke-linejoin="round"/>
<path d="M312.907 363.797C309.591 356.446 312.053 347.777 318.736 343.265C325.419 338.754 334.38 339.712 339.958 345.536" stroke="#C8D0DB" stroke-linecap="round" stroke-linejoin="round"/>
<path d="M318.859 355.168H337.118" stroke="#C8D0DB" stroke-linecap="square"/>
<path d="M318.859 358.82H337.118" stroke="#C8D0DB" stroke-linecap="square"/>
<path d="M333.468 364.299H331.642L324.338 349.691H322.398V364.299" stroke="#C8D0DB" stroke-linecap="square"/>
<path d="M333.578 364.299V349.691" stroke="#C8D0DB" stroke-linecap="square"/>
<rect x="450.5" y="423.5" width="95" height="95" rx="7.5" stroke="#C8D0DB"/>
<path d="M486.137 465.555C488.706 467.413 490.327 467.786 493.548 467.217C493.977 469.389 494.366 470.162 495.195 471.135C493.416 471.701 492.469 472.338 490.842 473.865C489.439 472.329 488.616 471.424 486.96 469.591C485.074 471.516 483.885 472.769 481.549 475.29C481.252 469.775 482.243 467.632 486.137 465.555Z" stroke="#C8D0DB"/>
<circle cx="501.909" cy="465.866" r="6.925" stroke="#C8D0DB"/>
<mask id="path-222-inside-10_472_16561" fill="white">
<path fill-rule="evenodd" clip-rule="evenodd" d="M496.388 459.308C494.685 460.742 493.588 462.883 493.543 465.282C492.687 465.771 491.693 466.05 490.633 466.05C487.41 466.05 484.797 463.464 484.797 460.275C484.797 457.086 487.41 454.5 490.633 454.5C493.524 454.5 495.923 456.579 496.388 459.308Z"/>
</mask>
<path d="M493.543 465.282L494.039 466.151L494.532 465.869L494.543 465.301L493.543 465.282ZM496.388 459.308L497.032 460.073L497.47 459.704L497.374 459.14L496.388 459.308ZM494.543 465.301C494.582 463.201 495.541 461.329 497.032 460.073L495.744 458.543C493.828 460.156 492.594 462.565 492.543 465.263L494.543 465.301ZM493.048 464.413C492.339 464.818 491.515 465.05 490.633 465.05V467.05C491.871 467.05 493.035 466.723 494.039 466.151L493.048 464.413ZM490.633 465.05C487.952 465.05 485.797 462.902 485.797 460.275H483.797C483.797 464.027 486.868 467.05 490.633 467.05V465.05ZM485.797 460.275C485.797 457.648 487.952 455.5 490.633 455.5V453.5C486.868 453.5 483.797 456.523 483.797 460.275H485.797ZM490.633 455.5C493.036 455.5 495.019 457.227 495.403 459.476L497.374 459.14C496.827 455.931 494.012 453.5 490.633 453.5V455.5Z" fill="#C8D0DB" mask="url(#path-222-inside-10_472_16561)"/>
<path d="M508.423 472.154C502.968 475.951 500.014 475.869 494.913 472.154C493.332 473.038 492.562 473.587 491.595 474.747C492.692 476.074 493.188 476.6 493.965 477.34C492.301 477.269 491.422 477.272 489.936 477.34C489.1 482.29 491.139 483.506 494.913 485.59C502.16 484.372 505.915 484.705 512.097 487.004C513.176 486.79 513.713 486.52 514.467 485.59C514.74 478.308 513.363 475.407 508.423 472.154Z" stroke="#C8D0DB"/>
<path d="M482.156 475.95L487.106 471L491.231 475.95H488.756C488.191 482.211 490.478 483.925 494.531 486.675C488.586 485.121 485.516 484.223 484.631 475.95H482.156Z" fill="#C8D0DB" stroke="#C8D0DB" stroke-width="0.2"/>
<defs>
<filter id="filter0_d_472_16561" x="250.234" y="62.0098" width="13.2109" height="13.2148" filterUnits="userSpaceOnUse" color-interpolation-filters="sRGB">
<feFlood flood-opacity="0" result="BackgroundImageFix"/>
<feColorMatrix in="SourceAlpha" type="matrix" values="0 0 0 0 0 0 0 0 0 0 0 0 0 0 0 0 0 0 127 0" result="hardAlpha"/>
<feOffset dy="2"/>
<feGaussianBlur stdDeviation="2"/>
<feColorMatrix type="matrix" values="0 0 0 0 0.392157 0 0 0 0 0.392157 0 0 0 0 0.392157 0 0 0 0.498039 0"/>
<feBlend mode="normal" in2="BackgroundImageFix" result="effect1_dropShadow_472_16561"/>
<feBlend mode="normal" in="SourceGraphic" in2="effect1_dropShadow_472_16561" result="shape"/>
</filter>
</defs>
</svg>
