<svg width="409" height="302" viewBox="0 0 409 302" fill="none" xmlns="http://www.w3.org/2000/svg">
<path d="M0.5 196V20.0002C0.5 13.8335 4 1.40016 18 1.00016C32 0.600158 123.167 0.833491 167 1.00016M215.5 45.0001V84.0001M229.5 45.0001V57.0001C230 61.0001 231.1 65.5001 241.5 65.5001C251.9 65.5001 286.167 65.5001 306 65.5001C310 65.5001 314 68.5001 314 74.5001C314 80.5001 314 83.1668 314 84.0001M314 180V258M208.5 180V288C208.333 292.5 209.3 301.5 214.5 301.5C219.7 301.5 233 301.5 239 301.5M335.5 301.5H356C361.5 301.667 372.5 299.9 372.5 291.5C372.5 283.1 372.5 233.667 372.5 210C373 207.333 375.5 202 381.5 202C387.5 202 402.333 202 409 202" stroke="url(#paint0_linear_292_4065)"/>
<defs>
<linearGradient id="paint0_linear_292_4065" x1="204.75" y1="0.779297" x2="204.75" y2="301.511" gradientUnits="userSpaceOnUse">
<stop stop-color="#EF7331"/>
<stop offset="1" stop-color="#FFDD74"/>
</linearGradient>
</defs>
</svg>
