<svg width="49" height="48" viewBox="0 0 49 48" fill="none" xmlns="http://www.w3.org/2000/svg">
<circle cx="24.5" cy="24" r="24" fill="white"/>
<g clip-path="url(#clip0_590_9678)">
<path d="M29.3294 13.959C29.8818 13.959 30.3294 14.4066 30.3294 14.959V32.9002C30.3294 33.4525 29.8818 33.9002 29.3294 33.9002H20C19.4476 33.9002 19 33.4525 19 32.9002V14.959C19 14.4066 19.4476 13.959 20 13.959H29.3294Z" stroke="#20336B" stroke-linecap="round" stroke-linejoin="round"/>
<path d="M19.5 17.5H29.5" stroke="#20336B" stroke-linecap="square"/>
<path d="M20 30H30" stroke="#20336B" stroke-linecap="square"/>
<path d="M26.5 15.3008C26.7762 15.3008 27 15.5246 27 15.8008C27 16.077 26.7762 16.3008 26.5 16.3008H22.5C22.2238 16.3008 22 16.077 22 15.8008C22 15.5246 22.2238 15.3008 22.5 15.3008H26.5Z" fill="#20336B"/>
<g filter="url(#filter0_d_590_9678)">
<path fill-rule="evenodd" clip-rule="evenodd" d="M24 32C24 31.4477 24.4477 31 25 31C25.5523 31 26 31.4477 26 32C26 32.5523 25.5523 33 25 33C24.4477 33 24 32.5523 24 32Z" stroke="#20336B" stroke-width="0.6"/>
</g>
<mask id="mask0_590_9678" style="mask-type:luminance" maskUnits="userSpaceOnUse" x="22" y="21" width="5" height="5">
<path d="M22.1953 21.1934H27.0013V25.9994H22.1953V21.1934Z" fill="white"/>
</mask>
<g mask="url(#mask0_590_9678)">
<path fill-rule="evenodd" clip-rule="evenodd" d="M25.9901 24.1699C25.8917 24.0674 25.773 24.0126 25.6472 24.0126C25.5225 24.0126 25.4028 24.0664 25.3003 24.1688L24.9798 24.4884C24.9534 24.4742 24.927 24.461 24.9017 24.4478C24.8652 24.4295 24.8307 24.4123 24.8013 24.394C24.501 24.2033 24.2282 23.9548 23.9665 23.6333C23.8397 23.473 23.7545 23.3381 23.6926 23.2012C23.7758 23.1251 23.8529 23.046 23.9279 22.9699C23.9563 22.9415 23.9847 22.9121 24.0131 22.8837C24.2261 22.6707 24.2261 22.3948 24.0131 22.1818L23.7362 21.9048C23.7048 21.8734 23.6723 21.8409 23.6419 21.8085C23.581 21.7456 23.5171 21.6807 23.4512 21.6198C23.3528 21.5224 23.2351 21.4707 23.1114 21.4707C22.9876 21.4707 22.8679 21.5224 22.7665 21.6198C22.7655 21.6208 22.7655 21.6208 22.7645 21.6218L22.4196 21.9698C22.2898 22.0996 22.2157 22.2578 22.1995 22.4414C22.1751 22.7376 22.2624 23.0135 22.3293 23.1941C22.4936 23.6373 22.7391 24.0481 23.1053 24.4884C23.5496 25.0189 24.0841 25.4378 24.6948 25.733C24.9281 25.8435 25.2395 25.9744 25.5874 25.9967C25.6087 25.9977 25.631 25.9987 25.6513 25.9987C25.8856 25.9987 26.0824 25.9145 26.2366 25.7472C26.2376 25.7451 26.2396 25.7441 26.2406 25.7421C26.2934 25.6782 26.3542 25.6204 26.4181 25.5585C26.4617 25.5169 26.5064 25.4733 26.55 25.4276C26.6504 25.3232 26.7032 25.2014 26.7032 25.0767C26.7032 24.9509 26.6494 24.8302 26.5469 24.7288L25.9901 24.1699ZM26.3532 25.2379C26.3522 25.2379 26.3522 25.239 26.3532 25.2379C26.3137 25.2806 26.2731 25.3191 26.2295 25.3617C26.1635 25.4246 26.0966 25.4905 26.0337 25.5646C25.9313 25.6741 25.8105 25.7258 25.6523 25.7258C25.6371 25.7258 25.6209 25.7258 25.6056 25.7248C25.3044 25.7056 25.0244 25.5879 24.8145 25.4875C24.2403 25.2095 23.7362 24.815 23.3173 24.3149C22.9714 23.898 22.7401 23.5126 22.587 23.0987C22.4926 22.8461 22.4582 22.6494 22.4734 22.4637C22.4835 22.3451 22.5292 22.2467 22.6133 22.1625L22.9592 21.8166C23.0089 21.7699 23.0617 21.7446 23.1134 21.7446C23.1773 21.7446 23.2291 21.7831 23.2615 21.8156C23.2625 21.8166 23.2635 21.8176 23.2646 21.8186C23.3264 21.8764 23.3853 21.9363 23.4471 22.0002C23.4786 22.0326 23.511 22.0651 23.5435 22.0986L23.8204 22.3755C23.9279 22.483 23.9279 22.5824 23.8204 22.6899C23.791 22.7193 23.7626 22.7488 23.7332 22.7772C23.648 22.8644 23.5668 22.9455 23.4786 23.0247C23.4766 23.0267 23.4745 23.0277 23.4735 23.0297C23.3863 23.117 23.4025 23.2022 23.4208 23.26C23.4218 23.263 23.4228 23.2661 23.4238 23.2691C23.4958 23.4436 23.5973 23.6079 23.7514 23.8037L23.7525 23.8047C24.0324 24.1496 24.3276 24.4184 24.6532 24.6243C24.6948 24.6506 24.7374 24.6719 24.7779 24.6922C24.8145 24.7105 24.849 24.7277 24.8784 24.746C24.8824 24.748 24.8865 24.7511 24.8905 24.7531C24.925 24.7703 24.9575 24.7785 24.991 24.7785C25.0751 24.7785 25.1279 24.7257 25.1451 24.7085L25.492 24.3616C25.5265 24.3271 25.5813 24.2855 25.6452 24.2855C25.7081 24.2855 25.7598 24.325 25.7913 24.3595C25.7923 24.3605 25.7923 24.3605 25.7933 24.3616L26.3522 24.9205C26.4567 25.0239 26.4567 25.1304 26.3532 25.2379Z" fill="#00BAF2"/>
<path fill-rule="evenodd" clip-rule="evenodd" d="M24.7924 22.3361C25.0582 22.3807 25.2996 22.5065 25.4923 22.6992C25.685 22.892 25.8098 23.1334 25.8554 23.3991C25.8666 23.4661 25.9244 23.5127 25.9903 23.5127C25.9984 23.5127 26.0055 23.5117 26.0137 23.5107C26.0887 23.4985 26.1384 23.4275 26.1263 23.3525C26.0715 23.0309 25.9193 22.7378 25.687 22.5055C25.4548 22.2732 25.1616 22.1211 24.8401 22.0663C24.765 22.0541 24.695 22.1038 24.6818 22.1779C24.6687 22.2519 24.7173 22.3239 24.7924 22.3361Z" fill="#00BAF2"/>
<path fill-rule="evenodd" clip-rule="evenodd" d="M26.9957 23.3134C26.9055 22.7839 26.6559 22.3021 26.2725 21.9187C25.8891 21.5353 25.4073 21.2857 24.8778 21.1954C24.8038 21.1823 24.7338 21.233 24.7206 21.307C24.7084 21.3821 24.7581 21.4521 24.8332 21.4653C25.3059 21.5454 25.737 21.7696 26.0798 22.1114C26.4226 22.4542 26.6458 22.8853 26.7259 23.358C26.7371 23.425 26.7949 23.4716 26.8608 23.4716C26.869 23.4716 26.8761 23.4706 26.8842 23.4696C26.9582 23.4584 27.0089 23.3874 26.9957 23.3134Z" fill="#00BAF2"/>
</g>
</g>
<defs>
<filter id="filter0_d_590_9678" x="19.7031" y="28.6992" width="10.5938" height="10.6016" filterUnits="userSpaceOnUse" color-interpolation-filters="sRGB">
<feFlood flood-opacity="0" result="BackgroundImageFix"/>
<feColorMatrix in="SourceAlpha" type="matrix" values="0 0 0 0 0 0 0 0 0 0 0 0 0 0 0 0 0 0 127 0" result="hardAlpha"/>
<feOffset dy="2"/>
<feGaussianBlur stdDeviation="2"/>
<feColorMatrix type="matrix" values="0 0 0 0 0.392157 0 0 0 0 0.392157 0 0 0 0 0.392157 0 0 0 0.498039 0"/>
<feBlend mode="normal" in2="BackgroundImageFix" result="effect1_dropShadow_590_9678"/>
<feBlend mode="normal" in="SourceGraphic" in2="effect1_dropShadow_590_9678" result="shape"/>
</filter>
<clipPath id="clip0_590_9678">
<rect width="24" height="24" fill="white" transform="translate(13 12)"/>
</clipPath>
</defs>
</svg>
