<svg width="25" height="20" viewBox="0 0 25 20" fill="none" xmlns="http://www.w3.org/2000/svg">
<g clip-path="url(#clip0_662_20116)">
<mask id="mask0_662_20116" style="mask-type:luminance" maskUnits="userSpaceOnUse" x="10" y="2" width="15" height="17">
<path d="M25.0035 2.99219H10.6641V18.5266H25.0035V2.99219Z" fill="white"/>
</mask>
<g mask="url(#mask0_662_20116)">
<path d="M13.7031 10.2402H22.9829C23.1381 10.2402 23.2845 10.3004 23.3787 10.403C23.4729 10.5056 23.5042 10.6389 23.4634 10.7634L22.4412 13.8811C22.2641 14.4217 21.6739 14.7969 21.0003 14.797H14.8563" stroke="#20336B" stroke-linecap="round" stroke-linejoin="round"/>
<path d="M12.1797 8.16992H12.3679C12.8388 8.16994 13.2453 8.44438 13.3423 8.82775L15.0008 15.3828C15.0978 15.7662 15.5043 16.0407 15.9752 16.0407H21.6397" stroke="#20336B" stroke-linecap="round" stroke-linejoin="round"/>
<path fill-rule="evenodd" clip-rule="evenodd" d="M15.6687 17.6978C16.0812 17.6978 16.4156 17.4196 16.4156 17.0765C16.4156 16.7333 16.0812 16.4551 15.6687 16.4551C15.2563 16.4551 14.9219 16.7333 14.9219 17.0765C14.9219 17.4196 15.2563 17.6978 15.6687 17.6978Z" stroke="#20336B" stroke-linecap="round" stroke-linejoin="round"/>
<path fill-rule="evenodd" clip-rule="evenodd" d="M20.6453 17.6978C21.0577 17.6978 21.3921 17.4196 21.3921 17.0765C21.3921 16.7333 21.0577 16.4551 20.6453 16.4551C20.2328 16.4551 19.8984 16.7333 19.8984 17.0765C19.8984 17.4196 20.2328 17.6978 20.6453 17.6978Z" stroke="#20336B" stroke-linecap="round" stroke-linejoin="round"/>
</g>
</g>
<path d="M13.9038 19.4124H2.811C2.19831 19.4116 1.61092 19.1679 1.17769 18.7347C0.744449 18.3014 0.500734 17.7141 0.5 17.1014V2.311C0.500734 1.69831 0.744449 1.11092 1.17769 0.677685C1.61092 0.244449 2.19831 0.000733906 2.811 0H9.95659C10.2644 0.000206136 10.569 0.0616059 10.8529 0.180628C11.1367 0.29965 11.394 0.473919 11.6099 0.693299L15.5561 4.73246C15.9794 5.16458 16.216 5.74572 16.2148 6.35061V9.794C16.2148 9.91658 16.1661 10.0341 16.0794 10.1208C15.9927 10.2075 15.8752 10.2562 15.7526 10.2562C15.63 10.2562 15.5124 10.2075 15.4257 10.1208C15.3391 10.0341 15.2904 9.91658 15.2904 9.794V6.35061C15.2906 5.98777 15.1485 5.63931 14.8947 5.38L10.948 1.34038C10.8187 1.20865 10.6644 1.10402 10.4942 1.0326C10.3239 0.961179 10.1412 0.924395 9.95659 0.924398H2.811C2.44325 0.924398 2.09056 1.07049 1.83052 1.33052C1.57049 1.59056 1.4244 1.94325 1.4244 2.311V17.1014C1.4244 17.4691 1.57049 17.8218 1.83052 18.0818C2.09056 18.3419 2.44325 18.488 2.811 18.488H13.9038C14.0781 18.4886 14.2509 18.4549 14.4122 18.3886C14.5256 18.3419 14.6529 18.3423 14.766 18.3895C14.8792 18.4366 14.9689 18.5269 15.0156 18.6403C15.0622 18.7536 15.0619 18.8809 15.0147 18.9941C14.9675 19.1072 14.8773 19.197 14.7639 19.2437C14.491 19.3557 14.1988 19.4131 13.9038 19.4124Z" fill="#20336B"/>
<path d="M15.56 6.00788H12.5141C11.9014 6.00715 11.314 5.76343 10.8808 5.3302C10.4476 4.89696 10.2039 4.30958 10.2031 3.69689V0.604777C10.2031 0.482194 10.2518 0.364632 10.3385 0.277953C10.4252 0.191274 10.5427 0.142578 10.6653 0.142578C10.7879 0.142578 10.9055 0.191274 10.9921 0.277953C11.0788 0.364632 11.1275 0.482194 11.1275 0.604777V3.69689C11.1275 4.06464 11.2736 4.41732 11.5336 4.67736C11.7937 4.9374 12.1464 5.08349 12.5141 5.08349H15.56C15.6826 5.08349 15.8002 5.13218 15.8868 5.21886C15.9735 5.30554 16.0222 5.4231 16.0222 5.54568C16.0222 5.66827 15.9735 5.78583 15.8868 5.87251C15.8002 5.95919 15.6826 6.00788 15.56 6.00788Z" fill="#20336B"/>
<path d="M7.43323 4.62362H3.73564C3.61305 4.62362 3.49549 4.57492 3.40881 4.48824C3.32213 4.40156 3.27344 4.284 3.27344 4.16142C3.27344 4.03883 3.32213 3.92127 3.40881 3.83459C3.49549 3.74791 3.61305 3.69922 3.73564 3.69922H7.43323C7.55581 3.69922 7.67337 3.74791 7.76005 3.83459C7.84673 3.92127 7.89543 4.03883 7.89543 4.16142C7.89543 4.284 7.84673 4.40156 7.76005 4.48824C7.67337 4.57492 7.55581 4.62362 7.43323 4.62362ZM10.2064 7.39681H3.73564C3.61305 7.39681 3.49549 7.34812 3.40881 7.26144C3.32213 7.17476 3.27344 7.05719 3.27344 6.93461C3.27344 6.81203 3.32213 6.69447 3.40881 6.60779C3.49549 6.52111 3.61305 6.47241 3.73564 6.47241H10.2064C10.329 6.47241 10.4466 6.52111 10.5332 6.60779C10.6199 6.69447 10.6686 6.81203 10.6686 6.93461C10.6686 7.05719 10.6199 7.17476 10.5332 7.26144C10.4466 7.34812 10.329 7.39681 10.2064 7.39681ZM11.1308 10.17H3.73564C3.61305 10.17 3.49549 10.1213 3.40881 10.0346C3.32213 9.94795 3.27344 9.83039 3.27344 9.70781C3.27344 9.58522 3.32213 9.46766 3.40881 9.38098C3.49549 9.2943 3.61305 9.24561 3.73564 9.24561H11.1308C11.2534 9.24561 11.371 9.2943 11.4576 9.38098C11.5443 9.46766 11.593 9.58522 11.593 9.70781C11.593 9.83039 11.5443 9.94795 11.4576 10.0346C11.371 10.1213 11.2534 10.17 11.1308 10.17ZM8.35763 12.9432H3.73564C3.61305 12.9432 3.49549 12.8945 3.40881 12.8078C3.32213 12.7211 3.27344 12.6036 3.27344 12.481C3.27344 12.3584 3.32213 12.2409 3.40881 12.1542C3.49549 12.0675 3.61305 12.0188 3.73564 12.0188H8.35763C8.48021 12.0188 8.59777 12.0675 8.68445 12.1542C8.77113 12.2409 8.81982 12.3584 8.81982 12.481C8.81982 12.6036 8.77113 12.7211 8.68445 12.8078C8.59777 12.8945 8.48021 12.9432 8.35763 12.9432ZM8.35763 15.7164H3.73564C3.61305 15.7164 3.49549 15.6677 3.40881 15.581C3.32213 15.4943 3.27344 15.3768 3.27344 15.2542C3.27344 15.1316 3.32213 15.014 3.40881 14.9274C3.49549 14.8407 3.61305 14.792 3.73564 14.792H8.35763C8.48021 14.792 8.59777 14.8407 8.68445 14.9274C8.77113 15.014 8.81982 15.1316 8.81982 15.2542C8.81982 15.3768 8.77113 15.4943 8.68445 15.581C8.59777 15.6677 8.48021 15.7164 8.35763 15.7164Z" fill="#24BAF2"/>
<defs>
<clipPath id="clip0_662_20116">
<rect width="14.3394" height="15.5344" fill="white" transform="translate(10.6641 2.99219)"/>
</clipPath>
</defs>
</svg>
