<svg width="46" height="37" viewBox="0 0 46 37" fill="none" xmlns="http://www.w3.org/2000/svg">
<g clip-path="url(#clip0_662_20162)">
<mask id="mask0_662_20162" style="mask-type:luminance" maskUnits="userSpaceOnUse" x="18" y="6" width="28" height="30">
<path d="M45.4439 6.34766H18.8516V35.156H45.4439V6.34766Z" fill="white"/>
</mask>
<g mask="url(#mask0_662_20162)">
<path d="M24.4922 19.793H41.7014C41.9893 19.7929 42.2607 19.9045 42.4354 20.0948C42.6101 20.285 42.6682 20.5322 42.5925 20.7632L40.6969 26.5449C40.3684 27.5475 39.2739 28.2433 38.0247 28.2434H26.6307" stroke="white" stroke-linecap="round" stroke-linejoin="round"/>
<path d="M21.6719 15.9512H22.0209C22.8941 15.9512 23.648 16.4602 23.8279 17.1711L26.9035 29.3274C27.0834 30.0384 27.8373 30.5474 28.7105 30.5474H39.2154" stroke="white" stroke-linecap="round" stroke-linejoin="round"/>
<path fill-rule="evenodd" clip-rule="evenodd" d="M28.135 33.6211C28.8999 33.6211 29.52 33.1052 29.52 32.4687C29.52 31.8323 28.8999 31.3164 28.135 31.3164C27.3701 31.3164 26.75 31.8323 26.75 32.4687C26.75 33.1052 27.3701 33.6211 28.135 33.6211Z" stroke="white" stroke-linecap="round" stroke-linejoin="round"/>
<path fill-rule="evenodd" clip-rule="evenodd" d="M37.3694 33.6211C38.1343 33.6211 38.7544 33.1052 38.7544 32.4687C38.7544 31.8323 38.1343 31.3164 37.3694 31.3164C36.6044 31.3164 35.9844 31.8323 35.9844 32.4687C35.9844 33.1052 36.6044 33.6211 37.3694 33.6211Z" stroke="white" stroke-linecap="round" stroke-linejoin="round"/>
</g>
</g>
<path d="M24.8571 36.7988H4.28571C3.14949 36.7975 2.06019 36.3455 1.25676 35.5421C0.453327 34.7386 0.00136102 33.6493 0 32.5131V5.08454C0.00136102 3.94832 0.453327 2.85902 1.25676 2.05559C2.06019 1.25216 3.14949 0.800189 4.28571 0.798828H17.5371C18.1079 0.79921 18.6729 0.913076 19.1992 1.1338C19.7256 1.35453 20.2028 1.67771 20.6031 2.08454L27.9214 9.57511C28.7064 10.3765 29.1451 11.4542 29.1428 12.576V18.9617C29.1428 19.189 29.0525 19.407 28.8918 19.5678C28.7311 19.7285 28.513 19.8188 28.2857 19.8188C28.0584 19.8188 27.8404 19.7285 27.6796 19.5678C27.5189 19.407 27.4286 19.189 27.4286 18.9617V12.576C27.4289 11.9031 27.1655 11.2569 26.6949 10.776L19.3757 3.28454C19.1359 3.04026 18.8497 2.84623 18.5341 2.71378C18.2184 2.58132 17.8795 2.51311 17.5371 2.51311H4.28571C3.60373 2.51311 2.94968 2.78403 2.46744 3.26627C1.9852 3.7485 1.71429 4.40256 1.71429 5.08454V32.5131C1.71429 33.1951 1.9852 33.8491 2.46744 34.3314C2.94968 34.8136 3.60373 35.0845 4.28571 35.0845H24.8571C25.1805 35.0858 25.5009 35.0232 25.8 34.9002C26.0103 34.8137 26.2463 34.8143 26.4562 34.9019C26.666 34.9894 26.8325 35.1567 26.919 35.367C27.0055 35.5772 27.0049 35.8133 26.9174 36.0231C26.8299 36.233 26.6626 36.3995 26.4523 36.486C25.9462 36.6938 25.4042 36.8001 24.8571 36.7988Z" fill="white"/>
<path d="M27.9265 11.9416H22.2779C21.1417 11.9402 20.0524 11.4883 19.2489 10.6848C18.4455 9.8814 17.9935 8.7921 17.9922 7.65588V1.9216C17.9922 1.69427 18.0825 1.47625 18.2432 1.3155C18.404 1.15476 18.622 1.06445 18.8493 1.06445C19.0767 1.06445 19.2947 1.15476 19.4554 1.3155C19.6162 1.47625 19.7065 1.69427 19.7065 1.9216V7.65588C19.7065 8.33786 19.9774 8.99192 20.4596 9.47415C20.9419 9.95639 21.5959 10.2273 22.2779 10.2273H27.9265C28.1538 10.2273 28.3718 10.3176 28.5326 10.4784C28.6933 10.6391 28.7836 10.8571 28.7836 11.0844C28.7836 11.3118 28.6933 11.5298 28.5326 11.6905C28.3718 11.8513 28.1538 11.9416 27.9265 11.9416Z" fill="white"/>
<path d="M12.8549 9.37444H5.99777C5.77044 9.37444 5.55242 9.28414 5.39168 9.12339C5.23093 8.96264 5.14062 8.74463 5.14062 8.5173C5.14062 8.28997 5.23093 8.07195 5.39168 7.91121C5.55242 7.75046 5.77044 7.66016 5.99777 7.66016H12.8549C13.0822 7.66016 13.3003 7.75046 13.461 7.91121C13.6217 8.07195 13.7121 8.28997 13.7121 8.5173C13.7121 8.74463 13.6217 8.96264 13.461 9.12339C13.3003 9.28414 13.0822 9.37444 12.8549 9.37444ZM17.9978 14.5173H5.99777C5.77044 14.5173 5.55242 14.427 5.39168 14.2662C5.23093 14.1055 5.14062 13.8875 5.14062 13.6602C5.14062 13.4328 5.23093 13.2148 5.39168 13.0541C5.55242 12.8933 5.77044 12.803 5.99777 12.803H17.9978C18.2251 12.803 18.4431 12.8933 18.6039 13.0541C18.7646 13.2148 18.8549 13.4328 18.8549 13.6602C18.8549 13.8875 18.7646 14.1055 18.6039 14.2662C18.4431 14.427 18.2251 14.5173 17.9978 14.5173ZM19.712 19.6602H5.99777C5.77044 19.6602 5.55242 19.5698 5.39168 19.4091C5.23093 19.2484 5.14062 19.0303 5.14062 18.803C5.14062 18.5757 5.23093 18.3577 5.39168 18.1969C5.55242 18.0362 5.77044 17.9459 5.99777 17.9459H19.712C19.9394 17.9459 20.1574 18.0362 20.3181 18.1969C20.4789 18.3577 20.5692 18.5757 20.5692 18.803C20.5692 19.0303 20.4789 19.2484 20.3181 19.4091C20.1574 19.5698 19.9394 19.6602 19.712 19.6602ZM14.5692 24.803H5.99777C5.77044 24.803 5.55242 24.7127 5.39168 24.552C5.23093 24.3912 5.14062 24.1732 5.14062 23.9459C5.14062 23.7185 5.23093 23.5005 5.39168 23.3398C5.55242 23.179 5.77044 23.0887 5.99777 23.0887H14.5692C14.7965 23.0887 15.0145 23.179 15.1753 23.3398C15.336 23.5005 15.4263 23.7185 15.4263 23.9459C15.4263 24.1732 15.336 24.3912 15.1753 24.552C15.0145 24.7127 14.7965 24.803 14.5692 24.803ZM14.5692 29.9459H5.99777C5.77044 29.9459 5.55242 29.8556 5.39168 29.6948C5.23093 29.5341 5.14062 29.316 5.14062 29.0887C5.14062 28.8614 5.23093 28.6434 5.39168 28.4826C5.55242 28.3219 5.77044 28.2316 5.99777 28.2316H14.5692C14.7965 28.2316 15.0145 28.3219 15.1753 28.4826C15.336 28.6434 15.4263 28.8614 15.4263 29.0887C15.4263 29.316 15.336 29.5341 15.1753 29.6948C15.0145 29.8556 14.7965 29.9459 14.5692 29.9459Z" fill="#24BAF2"/>
<defs>
<clipPath id="clip0_662_20162">
<rect width="26.5923" height="28.8083" fill="white" transform="translate(18.8516 6.34766)"/>
</clipPath>
</defs>
</svg>
