<svg width="122" height="37" viewBox="0 0 122 37" fill="none" xmlns="http://www.w3.org/2000/svg">
<rect x="0.653125" y="1.25078" width="120.6" height="35.1" rx="5.85" fill="white"/>
<rect x="0.653125" y="1.25078" width="120.6" height="35.1" rx="5.85" stroke="black" stroke-width="0.9"/>
<path fill-rule="evenodd" clip-rule="evenodd" d="M9.34472 7.97151C9.23841 8.21226 9.17969 8.50725 9.17969 8.85038V28.7548C9.17969 29.0987 9.23848 29.3937 9.34491 29.6343L20.1754 18.8022L9.34472 7.97151ZM9.97041 30.2816C10.3719 30.4534 10.8955 30.3989 11.4666 30.0751L24.208 22.8348L20.8118 19.4386L9.97041 30.2816ZM25.0202 22.3742L29.0175 20.1031C30.2748 19.3876 30.2748 18.2185 29.0175 17.5039L25.0184 15.2315L21.4482 18.8022L25.0202 22.3742ZM24.2068 14.7703L11.4666 7.53098C10.8955 7.20646 10.3718 7.15232 9.97034 7.32434L20.8118 18.1658L24.2068 14.7703Z" fill="black"/>
<path d="M61.5252 20.3762C59.4084 20.3762 57.6831 21.9863 57.6831 24.2039C57.6831 26.408 59.4084 28.0316 61.5252 28.0316C63.6429 28.0316 65.3682 26.408 65.3682 24.2039C65.3673 21.9863 63.642 20.3762 61.5252 20.3762ZM61.5252 26.525C60.3651 26.525 59.3652 25.5683 59.3652 24.2048C59.3652 22.8269 60.366 21.8846 61.5252 21.8846C62.6853 21.8846 63.6852 22.8269 63.6852 24.2048C63.6852 25.5674 62.6853 26.525 61.5252 26.525ZM53.1426 20.3762C51.0258 20.3762 49.3005 21.9863 49.3005 24.2039C49.3005 26.408 51.0258 28.0316 53.1426 28.0316C55.2603 28.0316 56.9856 26.408 56.9856 24.2039C56.9856 21.9863 55.2603 20.3762 53.1426 20.3762ZM53.1426 26.525C51.9825 26.525 50.9826 25.5683 50.9826 24.2048C50.9826 22.8269 51.9834 21.8846 53.1426 21.8846C54.3027 21.8846 55.3026 22.8269 55.3026 24.2048C55.3035 25.5674 54.3027 26.525 53.1426 26.525ZM43.1724 21.5516V23.1752H47.0586C46.9425 24.0887 46.6383 24.7556 46.1739 25.2191C45.6087 25.7843 44.724 26.408 43.1724 26.408C40.7802 26.408 38.91 24.4793 38.91 22.0871C38.91 19.6949 40.7802 17.7662 43.1724 17.7662C44.463 17.7662 45.4053 18.2738 46.101 18.9263L47.2467 17.7806C46.2747 16.8527 44.985 16.1426 43.1724 16.1426C39.8955 16.1426 37.1406 18.8102 37.1406 22.0871C37.1406 25.364 39.8955 28.0316 43.1724 28.0316C44.9409 28.0316 46.2756 27.4511 47.3187 26.3639C48.3915 25.2911 48.7254 23.7827 48.7254 22.565C48.7254 22.1888 48.6966 21.8405 48.6381 21.5507H43.1724V21.5516ZM83.9496 22.8125C83.631 21.9575 82.659 20.3762 80.6727 20.3762C78.7008 20.3762 77.0619 21.9278 77.0619 24.2039C77.0619 26.3495 78.6864 28.0316 80.8608 28.0316C82.6149 28.0316 83.6301 26.9588 84.0513 26.3351L82.7463 25.4648C82.3116 26.1029 81.7167 26.5232 80.8608 26.5232C80.0058 26.5232 79.3965 26.1317 79.005 25.3631L84.1233 23.2463L83.9496 22.8125ZM78.7296 24.0887C78.6864 22.6091 79.8753 21.8558 80.7312 21.8558C81.3981 21.8558 81.9633 22.1897 82.1523 22.6676L78.7296 24.0887ZM74.5689 27.8003H76.2501V16.5494H74.5689V27.8003ZM71.8131 21.2321H71.7555C71.3784 20.7821 70.653 20.3762 69.7404 20.3762C67.8261 20.3762 66.072 22.0583 66.072 24.2192C66.072 26.3648 67.8261 28.0325 69.7404 28.0325C70.6539 28.0325 71.3784 27.6266 71.7555 27.1631H71.8131V27.7139C71.8131 29.1782 71.0301 29.9612 69.7692 29.9612C68.7396 29.9612 68.1015 29.2223 67.8405 28.5986L66.3762 29.2079C66.7965 30.2222 67.9125 31.4696 69.7692 31.4696C71.7411 31.4696 73.4088 30.3095 73.4088 27.4817V20.6093H71.814V21.2321H71.8131ZM69.8853 26.525C68.7252 26.525 67.7541 25.553 67.7541 24.2192C67.7541 22.8701 68.7252 21.8846 69.8853 21.8846C71.0301 21.8846 71.9292 22.8701 71.9292 24.2192C71.9292 25.553 71.0301 26.525 69.8853 26.525ZM91.8282 16.5494H87.8043V27.8003H89.4828V23.5379H91.8273C93.6885 23.5379 95.5191 22.1906 95.5191 20.0441C95.5191 17.8976 93.6894 16.5494 91.8282 16.5494ZM91.8714 21.9719H89.4828V18.1154H91.8714C93.1269 18.1154 93.8397 19.1549 93.8397 20.0441C93.8397 20.9153 93.1269 21.9719 91.8714 21.9719ZM102.25 20.3564C101.034 20.3564 99.7752 20.8919 99.2541 22.079L100.745 22.7009C101.063 22.079 101.657 21.8756 102.279 21.8756C103.148 21.8756 104.03 22.3967 104.045 23.3228V23.4389C103.741 23.2652 103.089 23.0051 102.293 23.0051C100.687 23.0051 99.0507 23.888 99.0507 25.5377C99.0507 27.0434 100.368 28.0127 101.844 28.0127C102.973 28.0127 103.596 27.506 103.986 26.912H104.044V27.7805H105.666V23.4668C105.667 21.4706 104.174 20.3564 102.25 20.3564ZM102.047 26.5223C101.498 26.5223 100.73 26.2469 100.73 25.5665C100.73 24.698 101.686 24.365 102.511 24.365C103.248 24.365 103.597 24.5243 104.045 24.7412C103.914 25.7843 103.017 26.5223 102.047 26.5223ZM111.572 20.6021L109.646 25.4801H109.589L107.591 20.6021H105.782L108.778 27.4196L107.07 31.2122H108.821L113.439 20.6021H111.572ZM96.4461 27.8003H98.1246V16.5494H96.4461V27.8003Z" fill="black"/>
<path d="M42.8813 10.0187C42.8813 10.7729 42.6581 11.3732 42.2108 11.8214C41.7032 12.3542 41.0408 12.6206 40.2272 12.6206C39.4478 12.6206 38.7845 12.3506 38.24 11.8106C37.6946 11.2697 37.4219 10.6001 37.4219 9.80087C37.4219 9.00077 37.6946 8.33117 38.24 7.79117C38.7845 7.25027 39.4478 6.98027 40.2272 6.98027C40.6142 6.98027 40.9841 7.05587 41.3351 7.20617C41.687 7.35737 41.9687 7.55807 42.1793 7.80917L41.705 8.28437C41.3477 7.85687 40.8554 7.64357 40.2263 7.64357C39.6575 7.64357 39.1661 7.84337 38.7512 8.24297C38.3363 8.64257 38.1293 9.16187 38.1293 9.79997C38.1293 10.4381 38.3363 10.9574 38.7512 11.357C39.1661 11.7566 39.6575 11.9564 40.2263 11.9564C40.8293 11.9564 41.3324 11.7557 41.7347 11.3534C41.9957 11.0915 42.1469 10.727 42.1874 10.2599H40.2263V9.61097H42.8426C42.8696 9.75227 42.8813 9.88817 42.8813 10.0187Z" fill="black"/>
<path d="M47.0304 7.76332H44.5716V9.47512H46.7892V10.124H44.5716V11.8358H47.0304V12.5H43.8777V7.10002H47.0304V7.76332Z" fill="black"/>
<path d="M49.9562 12.5H49.2623V7.76332H47.7539V7.10002H51.4646V7.76332H49.9562V12.5Z" fill="black"/>
<path d="M54.1492 12.5V7.10002H54.8431V12.5H54.1492Z" fill="black"/>
<path d="M57.9204 12.5H57.2265V7.76332H55.7181V7.10002H59.4288V7.76332H57.9204V12.5Z" fill="black"/>
<path d="M66.4531 11.8025C65.9221 12.3479 65.2624 12.6206 64.4731 12.6206C63.6838 12.6206 63.0241 12.3479 62.494 11.8025C61.963 11.2571 61.6984 10.5893 61.6984 9.80002C61.6984 9.01072 61.963 8.34292 62.494 7.79752C63.0241 7.25212 63.6838 6.97852 64.4731 6.97852C65.2579 6.97852 65.9167 7.25302 66.4495 7.80112C66.9823 8.34922 67.2487 9.01522 67.2487 9.80002C67.2487 10.5893 66.9832 11.2571 66.4531 11.8025ZM63.0061 11.3498C63.4057 11.7548 63.8944 11.9564 64.4731 11.9564C65.0518 11.9564 65.5414 11.7539 65.9401 11.3498C66.3397 10.9448 66.5404 10.4282 66.5404 9.80002C66.5404 9.17182 66.3397 8.65522 65.9401 8.25022C65.5414 7.84522 65.0518 7.64362 64.4731 7.64362C63.8944 7.64362 63.4057 7.84612 63.0061 8.25022C62.6074 8.65522 62.4067 9.17182 62.4067 9.80002C62.4067 10.4282 62.6074 10.9448 63.0061 11.3498Z" fill="black"/>
<path d="M68.2225 12.5V7.10002H69.0667L71.6911 11.3003H71.7208L71.6911 10.2599V7.10002H72.385V12.5H71.6605L68.9146 8.09543H68.8849L68.9146 9.13582V12.5H68.2225Z" fill="black"/>
<path d="M42.8813 10.0187C42.8813 10.7729 42.6581 11.3732 42.2108 11.8214C41.7032 12.3542 41.0408 12.6206 40.2272 12.6206C39.4478 12.6206 38.7845 12.3506 38.24 11.8106C37.6946 11.2697 37.4219 10.6001 37.4219 9.80087C37.4219 9.00077 37.6946 8.33117 38.24 7.79117C38.7845 7.25027 39.4478 6.98027 40.2272 6.98027C40.6142 6.98027 40.9841 7.05587 41.3351 7.20617C41.687 7.35737 41.9687 7.55807 42.1793 7.80917L41.705 8.28437C41.3477 7.85687 40.8554 7.64357 40.2263 7.64357C39.6575 7.64357 39.1661 7.84337 38.7512 8.24297C38.3363 8.64257 38.1293 9.16187 38.1293 9.79997C38.1293 10.4381 38.3363 10.9574 38.7512 11.357C39.1661 11.7566 39.6575 11.9564 40.2263 11.9564C40.8293 11.9564 41.3324 11.7557 41.7347 11.3534C41.9957 11.0915 42.1469 10.727 42.1874 10.2599H40.2263V9.61097H42.8426C42.8696 9.75227 42.8813 9.88817 42.8813 10.0187Z" stroke="black" stroke-width="0.18" stroke-miterlimit="10"/>
<path d="M47.0304 7.76332H44.5716V9.47512H46.7892V10.124H44.5716V11.8358H47.0304V12.5H43.8777V7.10002H47.0304V7.76332Z" stroke="black" stroke-width="0.18" stroke-miterlimit="10"/>
<path d="M49.9562 12.5H49.2623V7.76332H47.7539V7.10002H51.4646V7.76332H49.9562V12.5Z" stroke="black" stroke-width="0.18" stroke-miterlimit="10"/>
<path d="M54.1492 12.5V7.10002H54.8431V12.5H54.1492Z" stroke="black" stroke-width="0.18" stroke-miterlimit="10"/>
<path d="M57.9204 12.5H57.2265V7.76332H55.7181V7.10002H59.4288V7.76332H57.9204V12.5Z" stroke="black" stroke-width="0.18" stroke-miterlimit="10"/>
<path d="M66.4531 11.8025C65.9221 12.3479 65.2624 12.6206 64.4731 12.6206C63.6838 12.6206 63.0241 12.3479 62.494 11.8025C61.963 11.2571 61.6984 10.5893 61.6984 9.80002C61.6984 9.01072 61.963 8.34292 62.494 7.79752C63.0241 7.25212 63.6838 6.97852 64.4731 6.97852C65.2579 6.97852 65.9167 7.25302 66.4495 7.80112C66.9823 8.34922 67.2487 9.01522 67.2487 9.80002C67.2487 10.5893 66.9832 11.2571 66.4531 11.8025ZM63.0061 11.3498C63.4057 11.7548 63.8944 11.9564 64.4731 11.9564C65.0518 11.9564 65.5414 11.7539 65.9401 11.3498C66.3397 10.9448 66.5404 10.4282 66.5404 9.80002C66.5404 9.17182 66.3397 8.65522 65.9401 8.25022C65.5414 7.84522 65.0518 7.64362 64.4731 7.64362C63.8944 7.64362 63.4057 7.84612 63.0061 8.25022C62.6074 8.65522 62.4067 9.17182 62.4067 9.80002C62.4067 10.4282 62.6074 10.9448 63.0061 11.3498Z" stroke="black" stroke-width="0.18" stroke-miterlimit="10"/>
<path d="M68.2225 12.5V7.10002H69.0667L71.6911 11.3003H71.7208L71.6911 10.2599V7.10002H72.385V12.5H71.6605L68.9146 8.09543H68.8849L68.9146 9.13582V12.5H68.2225Z" stroke="black" stroke-width="0.18" stroke-miterlimit="10"/>
</svg>
