<svg width="26" height="21" viewBox="0 0 26 21" fill="none" xmlns="http://www.w3.org/2000/svg">
<path fill-rule="evenodd" clip-rule="evenodd" d="M5.49219 1.70508H23.4922C24.0445 1.70508 24.4922 2.15279 24.4922 2.70508V14.7051C24.4922 15.2574 24.0445 15.7051 23.4922 15.7051H12.4007C12.3432 16.0487 12.2599 16.3828 12.1531 16.7051H23.4922C24.5968 16.7051 25.4922 15.8096 25.4922 14.7051V2.70508C25.4922 1.60051 24.5968 0.705078 23.4922 0.705078H5.49219C4.38762 0.705078 3.49219 1.60051 3.49219 2.70508V9.02921C3.80839 8.83389 4.14286 8.66848 4.49219 8.5366V2.70508C4.49219 2.15279 4.9399 1.70508 5.49219 1.70508Z" fill="#223872"/>
<rect x="6.5" y="3.70508" width="12" height="1" rx="0.5" fill="#3FAFE9"/>
<rect x="6.5" y="5.70508" width="12" height="1" rx="0.5" fill="#3FAFE9"/>
<path d="M12 14.7031C12 17.7407 9.53757 20.2031 6.5 20.2031C3.46243 20.2031 1 17.7407 1 14.7031C1 11.6656 3.46243 9.20312 6.5 9.20312C9.53757 9.20312 12 11.6656 12 14.7031Z" stroke="#223872"/>
<mask id="path-5-inside-1_1001_53085" fill="white">
<path fill-rule="evenodd" clip-rule="evenodd" d="M5.61684 13.4508L6.15626 12.8419C6.69155 12.2378 7.61526 12.182 8.21942 12.7172C8.82359 13.2525 8.87942 14.1762 8.34413 14.7804L7.85106 15.3369L8.6154 15.9822L9.09262 15.4436C9.99415 14.426 9.90012 12.8703 8.88258 11.9688C7.86504 11.0672 6.30932 11.1613 5.40778 12.1788L4.8525 12.8055L5.61684 13.4508ZM4.91253 14.2457L4.14819 13.6005L3.7754 14.0212C2.87386 15.0388 2.9679 16.5945 3.98543 17.496C5.00297 18.3975 6.55869 18.3035 7.46023 17.286L7.91109 16.7771L7.14675 16.1319L6.71175 16.6228C6.17646 17.227 5.25275 17.2828 4.64859 16.7475C4.04443 16.2122 3.98859 15.2885 4.52388 14.6844L4.91253 14.2457Z"/>
</mask>
<path d="M6.15626 12.8419L5.40778 12.1788L5.40778 12.1788L6.15626 12.8419ZM5.61684 13.4508L4.97177 14.2149L5.71783 14.8447L6.36532 14.1139L5.61684 13.4508ZM8.21942 12.7172L8.88258 11.9688L8.88258 11.9688L8.21942 12.7172ZM8.34413 14.7804L7.59565 14.1172L8.34413 14.7804ZM7.85106 15.3369L7.10258 14.6738L6.42338 15.4404L7.20598 16.101L7.85106 15.3369ZM8.6154 15.9822L7.97032 16.7463L8.71639 17.3761L9.36388 16.6453L8.6154 15.9822ZM9.09262 15.4436L9.8411 16.1067V16.1067L9.09262 15.4436ZM8.88258 11.9688L9.54573 11.2203V11.2203L8.88258 11.9688ZM5.40778 12.1788L4.6593 11.5156V11.5156L5.40778 12.1788ZM4.8525 12.8055L4.10402 12.1424L3.42482 12.909L4.20743 13.5696L4.8525 12.8055ZM4.91253 14.2457L5.66101 14.9089L6.34021 14.1423L5.5576 13.4816L4.91253 14.2457ZM4.14819 13.6005L4.79327 12.8363L4.0472 12.2065L3.39971 12.9373L4.14819 13.6005ZM3.7754 14.0212L4.52388 14.6844L4.52388 14.6844L3.7754 14.0212ZM3.98543 17.496L4.64859 16.7475H4.64859L3.98543 17.496ZM7.46023 17.286L8.20872 17.9491V17.9491L7.46023 17.286ZM7.91109 16.7771L8.65957 17.4403L9.33877 16.6737L8.55616 16.013L7.91109 16.7771ZM7.14675 16.1319L7.79182 15.3677L7.04575 14.7379L6.39827 15.4687L7.14675 16.1319ZM6.71175 16.6228L5.96327 15.9597L5.96327 15.9597L6.71175 16.6228ZM4.64859 16.7475L3.98543 17.496H3.98543L4.64859 16.7475ZM4.52388 14.6844L5.27236 15.3475V15.3475L4.52388 14.6844ZM5.40778 12.1788L4.86836 12.7876L6.36532 14.1139L6.90474 13.5051L5.40778 12.1788ZM8.88258 11.9688C7.86504 11.0672 6.30932 11.1613 5.40778 12.1788L6.90474 13.5051C7.07378 13.3143 7.36548 13.2967 7.55627 13.4657L8.88258 11.9688ZM9.09262 15.4436C9.99415 14.426 9.90012 12.8703 8.88258 11.9688L7.55627 13.4657C7.74706 13.6348 7.76469 13.9265 7.59565 14.1172L9.09262 15.4436ZM8.59954 16.0001L9.09262 15.4436L7.59565 14.1172L7.10258 14.6738L8.59954 16.0001ZM7.20598 16.101L7.97032 16.7463L9.26047 15.2181L8.49613 14.5728L7.20598 16.101ZM9.36388 16.6453L9.8411 16.1067L8.34413 14.7804L7.86691 15.319L9.36388 16.6453ZM9.8411 16.1067C11.1089 14.6758 10.9766 12.4881 9.54573 11.2203L8.21942 12.7172C8.82359 13.2525 8.87942 14.1762 8.34413 14.7804L9.8411 16.1067ZM9.54573 11.2203C8.11482 9.95249 5.92709 10.0847 4.6593 11.5156L6.15626 12.8419C6.69155 12.2378 7.61526 12.182 8.21942 12.7172L9.54573 11.2203ZM4.6593 11.5156L4.10402 12.1424L5.60098 13.4687L6.15626 12.8419L4.6593 11.5156ZM4.20743 13.5696L4.97177 14.2149L6.26191 12.6867L5.49758 12.0414L4.20743 13.5696ZM5.5576 13.4816L4.79327 12.8363L3.50312 14.3646L4.26746 15.0098L5.5576 13.4816ZM3.39971 12.9373L3.02692 13.3581L4.52388 14.6844L4.89667 14.2636L3.39971 12.9373ZM3.02692 13.3581C1.75913 14.789 1.89137 16.9767 3.32228 18.2445L4.64859 16.7475C4.04443 16.2122 3.98859 15.2885 4.52388 14.6844L3.02692 13.3581ZM3.32228 18.2445C4.75319 19.5123 6.94093 19.38 8.20872 17.9491L6.71175 16.6228C6.17646 17.227 5.25275 17.2828 4.64859 16.7475L3.32228 18.2445ZM8.20872 17.9491L8.65957 17.4403L7.1626 16.114L6.71175 16.6228L8.20872 17.9491ZM8.55616 16.013L7.79182 15.3677L6.50167 16.896L7.26601 17.5412L8.55616 16.013ZM7.46023 17.286L7.89523 16.795L6.39827 15.4687L5.96327 15.9597L7.46023 17.286ZM3.98543 17.496C5.00297 18.3975 6.55869 18.3035 7.46023 17.286L5.96327 15.9597C5.79423 16.1505 5.50253 16.1681 5.31174 15.999L3.98543 17.496ZM3.7754 14.0212C2.87386 15.0388 2.9679 16.5945 3.98543 17.496L5.31174 15.999C5.12096 15.83 5.10332 15.5383 5.27236 15.3475L3.7754 14.0212ZM4.16405 13.5826L3.7754 14.0212L5.27236 15.3475L5.66101 14.9089L4.16405 13.5826Z" fill="#223872" mask="url(#path-5-inside-1_1001_53085)"/>
<rect x="7.47656" y="13.1055" width="0.923077" height="3.69231" rx="0.461538" transform="rotate(43.9974 7.47656 13.1055)" fill="#3FAFE9"/>
<circle cx="17.9922" cy="12.2031" r="2" stroke="#223872"/>
<circle cx="20" cy="12.2031" r="2" stroke="#223872"/>
</svg>
