<svg width="17" height="24" viewBox="0 0 17 24" fill="none" xmlns="http://www.w3.org/2000/svg">
<path fill-rule="evenodd" clip-rule="evenodd" d="M8.32031 19.8012H4.57812C3.80493 19.8012 3.17812 20.428 3.17812 21.2012V21.6827C3.17812 21.9036 3.35721 22.0827 3.57812 22.0827C3.79904 22.0827 3.97812 21.9036 3.97812 21.6827V21.2012C3.97812 20.8698 4.24675 20.6012 4.57812 20.6012H8.32031V19.8012Z" fill="white"/>
<rect x="2.55469" y="0.701172" width="11.0741" height="21.2223" rx="1.5" stroke="#20336B"/>
<path d="M4.04688 1.88086H12.2691" stroke="#20336B" stroke-width="0.6" stroke-linecap="round"/>
<rect x="4.17969" y="3.66406" width="7.64199" height="5.64769" rx="0.5" stroke="#20336B"/>
<rect x="3.63281" y="11.9336" width="2.46297" height="1.57408" rx="0.55" fill="white" stroke="#20336B" stroke-width="0.5"/>
<rect x="6.89062" y="11.9336" width="2.46297" height="1.57408" rx="0.55" fill="white" stroke="#20336B" stroke-width="0.5"/>
<rect x="10.2266" y="11.9336" width="2.46297" height="1.57408" rx="0.55" fill="white" stroke="#20336B" stroke-width="0.5"/>
<rect x="3.63281" y="14.5254" width="2.46297" height="1.57408" rx="0.55" fill="white" stroke="#20336B" stroke-width="0.5"/>
<rect x="6.89062" y="14.5254" width="2.46297" height="1.57408" rx="0.55" fill="white" stroke="#20336B" stroke-width="0.5"/>
<path d="M10.2344 16.1277V15.098C10.2344 14.7667 10.503 14.498 10.8344 14.498H12.0237C12.3551 14.498 12.6237 14.7667 12.6237 15.098V15.3869" stroke="#20336B" stroke-width="0.5" stroke-linecap="round"/>
<rect x="3.63281" y="17.1172" width="2.46297" height="1.57408" rx="0.55" fill="white" stroke="#20336B" stroke-width="0.5"/>
<path d="M9.31015 17.0898H7.45938C7.128 17.0898 6.85938 17.3585 6.85938 17.6898V18.1195C6.85938 18.4508 7.128 18.7195 7.45938 18.7195L7.97049 18.7195" stroke="#20336B" stroke-width="0.5" stroke-linecap="round"/>
<rect x="10.2266" y="17.1172" width="2.46297" height="1.57408" rx="0.75" fill="white" stroke="#20336B" stroke-width="0.5"/>
<path d="M2.42188 10.8683V11.2683H2.82187V10.8683H2.42188ZM2.42188 2.42383H2.82187V2.02383H2.42188V2.42383ZM1.41563 3.42383C1.41563 3.09246 1.68425 2.82383 2.01563 2.82383V2.02383C1.24243 2.02383 0.615625 2.65063 0.615625 3.42383H1.41563ZM1.41563 9.86829V3.42383H0.615625V9.86829H1.41563ZM2.01563 10.4683C1.68425 10.4683 1.41563 10.1997 1.41563 9.86829H0.615625C0.615625 10.6415 1.24243 11.2683 2.01563 11.2683V10.4683ZM2.42188 10.4683H2.01563V11.2683H2.42188V10.4683ZM2.82187 10.8683V2.42383H2.02188V10.8683H2.82187ZM2.01563 2.82383H2.42188V2.02383H2.01563V2.82383Z" fill="#20336B"/>
<path d="M13.7656 10.8683V11.2683H13.3656V10.8683H13.7656ZM13.7656 2.42383H13.3656V2.02383H13.7656V2.42383ZM14.6937 3.42383C14.6937 3.09246 14.4251 2.82383 14.0937 2.82383V2.02383C14.8669 2.02383 15.4938 2.65063 15.4938 3.42383H14.6937ZM14.6937 9.86829V3.42383H15.4938V9.86829H14.6937ZM14.0937 10.4683C14.4251 10.4683 14.6937 10.1997 14.6937 9.86829H15.4938C15.4938 10.6415 14.8669 11.2683 14.0937 11.2683V10.4683ZM13.7656 10.4683H14.0937V11.2683H13.7656V10.4683ZM13.3656 10.8683V2.42383H14.1656V10.8683H13.3656ZM14.0937 2.82383H13.7656V2.02383H14.0937V2.82383Z" fill="#20336B"/>
<circle cx="12.7928" cy="19.8299" r="3.62408" fill="white" stroke="#20336B" stroke-width="0.9"/>
<path d="M12.8089 21.8814C13.1434 21.8814 13.4146 21.6102 13.4146 21.2757C13.4146 20.9411 13.1434 20.6699 12.8089 20.6699C12.4743 20.6699 12.2031 20.9411 12.2031 21.2757C12.2031 21.6102 12.4743 21.8814 12.8089 21.8814Z" fill="#3FAFE9"/>
<path d="M14.2599 19.8145C14.2509 19.8053 14.2414 19.797 14.2322 19.7885L14.205 19.7628C14.2005 19.7581 14.1955 19.7546 14.1898 19.7501C13.8139 19.4075 13.3205 19.223 12.8121 19.2349C12.3037 19.2469 11.8194 19.4544 11.4601 19.8143L11.3725 19.9022L11.2511 20.0235C11.1802 20.0949 11.1404 20.1915 11.1406 20.2921C11.1408 20.3928 11.1809 20.4892 11.2521 20.5603C11.2873 20.5957 11.3291 20.6237 11.3751 20.6429C11.4211 20.662 11.4705 20.672 11.5203 20.6721C11.5702 20.6721 11.6196 20.6624 11.6657 20.6434C11.7118 20.6244 11.7537 20.5965 11.789 20.5613L11.9982 20.3521C12.227 20.124 12.537 19.9958 12.8601 19.9958C13.1832 19.9957 13.4932 20.1238 13.7221 20.3518L13.8732 20.4982C13.9439 20.5685 14.0397 20.6079 14.1395 20.6076C14.2392 20.6074 14.3348 20.5676 14.4052 20.4969C14.4404 20.4621 14.4682 20.4206 14.4872 20.3749C14.5062 20.3292 14.5159 20.2802 14.5159 20.2307C14.5162 20.1814 14.5067 20.1326 14.4878 20.087C14.469 20.0414 14.4413 20 14.4062 19.9653L14.2599 19.8145Z" fill="#3FAFE9"/>
<path d="M15.2877 19.0666L15.1618 18.9408C15.1613 18.9403 15.1611 18.9395 15.1601 18.9393L15.0607 18.8394C15.0435 18.8224 15.0246 18.8073 15.0043 18.7942C13.7276 17.6733 11.7857 17.7078 10.5498 18.8968C10.5438 18.9023 10.537 18.906 10.531 18.912L10.3038 19.1395C10.2718 19.1717 10.2464 19.2099 10.2291 19.2519C10.2118 19.2939 10.203 19.339 10.2031 19.3844C10.2033 19.4298 10.2124 19.4748 10.2299 19.5167C10.2474 19.5586 10.2731 19.5967 10.3053 19.6287C10.3373 19.6609 10.3754 19.6865 10.4173 19.704C10.4592 19.7215 10.5042 19.7306 10.5496 19.7307C10.5951 19.7308 10.6401 19.722 10.6821 19.7047C10.7241 19.6874 10.7623 19.662 10.7945 19.6299L11.0217 19.4029C11.0232 19.4009 11.0244 19.3992 11.0259 19.3979C12.0254 18.4324 13.611 18.4264 14.6185 19.3782L14.7973 19.5572C14.8624 19.6219 14.9505 19.6581 15.0422 19.6579C15.134 19.6576 15.2219 19.621 15.2867 19.556C15.3516 19.4912 15.3881 19.4032 15.3883 19.3115C15.3885 19.2198 15.3523 19.1317 15.2877 19.0666Z" fill="#3FAFE9"/>
<path d="M7.97859 20.2012H5.01562" stroke="#20336B" stroke-width="0.8" stroke-linecap="round"/>
</svg>
