<svg width="36" height="36" viewBox="0 0 36 36" fill="none" xmlns="http://www.w3.org/2000/svg">
<path fill-rule="evenodd" clip-rule="evenodd" d="M16.9273 29.8027H10.8375C10.0643 29.8027 9.4375 30.4295 9.4375 31.2027V32.4177C9.4375 32.6386 9.61659 32.8177 9.8375 32.8177C10.0584 32.8177 10.2375 32.6386 10.2375 32.4177V31.2027C10.2375 30.8714 10.5061 30.6027 10.8375 30.6027H16.9273V29.8027Z" fill="#C8D0DB"/>
<rect x="8.05469" y="0.800781" width="17.0519" height="32.2243" rx="1.5" stroke="#C8D0DB"/>
<path d="M10.5391 2.81055H22.8321" stroke="#C8D0DB" stroke-width="0.6" stroke-linecap="round"/>
<rect x="10.4844" y="5.23047" width="11.9206" height="8.9389" rx="0.5" stroke="#C8D0DB"/>
<rect x="9.79688" y="17.7168" width="3.92991" height="2.60094" rx="0.55" fill="#C8D0DB" stroke="#C8D0DB" stroke-width="0.5"/>
<rect x="14.6719" y="17.7168" width="3.92991" height="2.60094" rx="0.55" fill="#C8D0DB" stroke="#C8D0DB" stroke-width="0.5"/>
<rect x="19.6562" y="17.7168" width="3.92991" height="2.60094" rx="0.55" fill="#C8D0DB" stroke="#C8D0DB" stroke-width="0.5"/>
<rect x="9.79688" y="21.5938" width="3.92991" height="2.60094" rx="0.55" fill="#C8D0DB" stroke="#C8D0DB" stroke-width="0.5"/>
<rect x="14.6719" y="21.5938" width="3.92991" height="2.60094" rx="0.55" fill="#C8D0DB" stroke="#C8D0DB" stroke-width="0.5"/>
<path d="M19.7891 24.1122V22.2758C19.7891 21.9444 20.0577 21.6758 20.3891 21.6758H22.7614C23.0927 21.6758 23.3614 21.9444 23.3614 22.2758V23.0048" stroke="#C8D0DB" stroke-width="0.5" stroke-linecap="round"/>
<rect x="9.79688" y="25.4688" width="3.92991" height="2.60094" rx="0.55" fill="#C8D0DB" stroke="#C8D0DB" stroke-width="0.5"/>
<path d="M18.4141 25.5508H15.35C15.0186 25.5508 14.75 25.8194 14.75 26.1508V27.3872C14.75 27.7186 15.0186 27.9872 15.35 27.9872L16.4112 27.9872" stroke="#C8D0DB" stroke-width="0.5" stroke-linecap="round"/>
<rect x="19.6562" y="25.4688" width="3.92991" height="2.60094" rx="0.75" fill="#C8D0DB" stroke="#C8D0DB" stroke-width="0.5"/>
<path d="M8.10156 16.2483V16.6483H8.50156V16.2483H8.10156ZM8.10156 3.62305H8.50156V3.22305H8.10156V3.62305ZM6.4 4.62305C6.4 4.29168 6.66863 4.02305 7 4.02305V3.22305C6.2268 3.22305 5.6 3.84985 5.6 4.62305H6.4ZM6.4 15.2483V4.62305H5.6V15.2483H6.4ZM7 15.8483C6.66863 15.8483 6.4 15.5797 6.4 15.2483H5.6C5.6 16.0215 6.2268 16.6483 7 16.6483V15.8483ZM8.10156 15.8483H7V16.6483H8.10156V15.8483ZM8.50156 16.2483V3.62305H7.70156V16.2483H8.50156ZM7 4.02305H8.10156V3.22305H7V4.02305Z" fill="#C8D0DB"/>
<path d="M25.0547 16.2483V16.6483H24.6547V16.2483H25.0547ZM25.0547 3.62305H24.6547V3.22305H25.0547V3.62305ZM26.6469 4.62305C26.6469 4.29168 26.3782 4.02305 26.0469 4.02305V3.22305C26.8201 3.22305 27.4469 3.84985 27.4469 4.62305H26.6469ZM26.6469 15.2483V4.62305H27.4469V15.2483H26.6469ZM26.0469 15.8483C26.3782 15.8483 26.6469 15.5797 26.6469 15.2483H27.4469C27.4469 16.0215 26.8201 16.6483 26.0469 16.6483V15.8483ZM25.0547 15.8483H26.0469V16.6483H25.0547V15.8483ZM24.6547 16.2483V3.62305H25.4547V16.2483H24.6547ZM26.0469 4.02305H25.0547V3.22305H26.0469V4.02305Z" fill="#C8D0DB"/>
<circle cx="23.6067" cy="29.6497" r="5.64112" fill="#C8D0DB" stroke="#C8D0DB" stroke-width="0.9"/>
<path d="M23.6244 32.7156C24.1246 32.7156 24.5301 32.3101 24.5301 31.81C24.5301 31.3098 24.1246 30.9043 23.6244 30.9043C23.1242 30.9043 22.7188 31.3098 22.7188 31.81C22.7188 32.3101 23.1242 32.7156 23.6244 32.7156Z" fill="#C8D0DB"/>
<path d="M25.7886 29.6271C25.7752 29.6133 25.761 29.601 25.7472 29.5883L25.7065 29.5498C25.6998 29.5428 25.6923 29.5375 25.6837 29.5308C25.1218 29.0186 24.3841 28.7427 23.624 28.7606C22.8639 28.7785 22.1399 29.0887 21.6027 29.6267L21.4716 29.7582L21.2902 29.9396C21.1841 30.0463 21.1247 30.1907 21.125 30.3412C21.1253 30.4917 21.1852 30.6359 21.2917 30.7422C21.3443 30.795 21.4068 30.8369 21.4756 30.8656C21.5444 30.8943 21.6182 30.9091 21.6927 30.9092C21.7672 30.9094 21.8411 30.8948 21.91 30.8664C21.9789 30.838 22.0415 30.7963 22.0943 30.7437L22.4072 30.4309C22.7493 30.0898 23.2127 29.8982 23.6958 29.8981C24.1789 29.8981 24.6423 30.0895 24.9845 30.4305L25.2104 30.6492C25.3162 30.7544 25.4594 30.8132 25.6085 30.8129C25.7577 30.8125 25.9006 30.753 26.0059 30.6474C26.0584 30.5953 26.1 30.5333 26.1284 30.465C26.1568 30.3966 26.1714 30.3234 26.1713 30.2494C26.1718 30.1757 26.1575 30.1026 26.1294 30.0345C26.1012 29.9663 26.0598 29.9045 26.0074 29.8526L25.7886 29.6271Z" fill="#C8D0DB"/>
<path d="M27.3362 28.5076L27.1481 28.3195C27.1473 28.3187 27.147 28.3176 27.1455 28.3172L26.9969 28.1679C26.9711 28.1426 26.9429 28.12 26.9125 28.1004C25.0038 26.4246 22.1005 26.4761 20.2526 28.2538C20.2437 28.262 20.2336 28.2676 20.2246 28.2766L19.8849 28.6166C19.837 28.6648 19.799 28.7219 19.7732 28.7847C19.7474 28.8475 19.7342 28.9148 19.7344 28.9828C19.7346 29.0507 19.7482 29.1179 19.7744 29.1806C19.8006 29.2432 19.8389 29.3001 19.8871 29.348C19.935 29.3962 19.9919 29.4344 20.0546 29.4606C20.1173 29.4868 20.1845 29.5004 20.2524 29.5006C20.3203 29.5007 20.3876 29.4875 20.4505 29.4616C20.5133 29.4358 20.5704 29.3978 20.6185 29.3498L20.9582 29.0105C20.9604 29.0075 20.9623 29.0049 20.9645 29.003C22.4589 27.5594 24.8294 27.5505 26.3358 28.9735L26.6031 29.2412C26.7004 29.3379 26.8321 29.392 26.9693 29.3916C27.1065 29.3913 27.2379 29.3365 27.3347 29.2393C27.4318 29.1424 27.4864 29.011 27.4867 28.8738C27.487 28.7366 27.4329 28.605 27.3362 28.5076Z" fill="#C8D0DB"/>
<path d="M16.4143 30.2031H11.9844" stroke="#C8D0DB" stroke-width="0.8" stroke-linecap="round"/>
</svg>
