<svg width="48" height="48" viewBox="0 0 48 48" fill="none" xmlns="http://www.w3.org/2000/svg">
<circle cx="24" cy="24" r="24" fill="white"/>
<path fill-rule="evenodd" clip-rule="evenodd" d="M23.3203 31.8012H19.5781C18.8049 31.8012 18.1781 32.428 18.1781 33.2012V33.6827C18.1781 33.9036 18.3572 34.0827 18.5781 34.0827C18.799 34.0827 18.9781 33.9036 18.9781 33.6827V33.2012C18.9781 32.8698 19.2468 32.6012 19.5781 32.6012H23.3203V31.8012Z" fill="white"/>
<rect x="17.5547" y="12.7012" width="11.0741" height="21.2223" rx="1.5" stroke="#20336B"/>
<path d="M19.0469 13.8809H27.2691" stroke="#20336B" stroke-width="0.6" stroke-linecap="round"/>
<rect x="19.1797" y="15.6641" width="7.64199" height="5.64769" rx="0.5" stroke="#20336B"/>
<rect x="18.6328" y="23.9336" width="2.46297" height="1.57408" rx="0.55" fill="white" stroke="#20336B" stroke-width="0.5"/>
<rect x="21.8906" y="23.9336" width="2.46297" height="1.57408" rx="0.55" fill="white" stroke="#20336B" stroke-width="0.5"/>
<rect x="25.2266" y="23.9336" width="2.46297" height="1.57408" rx="0.55" fill="white" stroke="#20336B" stroke-width="0.5"/>
<rect x="18.6328" y="26.5254" width="2.46297" height="1.57408" rx="0.55" fill="white" stroke="#20336B" stroke-width="0.5"/>
<rect x="21.8906" y="26.5254" width="2.46297" height="1.57408" rx="0.55" fill="white" stroke="#20336B" stroke-width="0.5"/>
<path d="M25.2344 28.1277V27.098C25.2344 26.7667 25.503 26.498 25.8344 26.498H27.0237C27.3551 26.498 27.6237 26.7667 27.6237 27.098V27.3869" stroke="#20336B" stroke-width="0.5" stroke-linecap="round"/>
<rect x="18.6328" y="29.1172" width="2.46297" height="1.57408" rx="0.55" fill="white" stroke="#20336B" stroke-width="0.5"/>
<path d="M24.3102 29.0898H22.4594C22.128 29.0898 21.8594 29.3585 21.8594 29.6898V30.1195C21.8594 30.4508 22.128 30.7195 22.4594 30.7195L22.9705 30.7195" stroke="#20336B" stroke-width="0.5" stroke-linecap="round"/>
<rect x="25.2266" y="29.1172" width="2.46297" height="1.57408" rx="0.75" fill="white" stroke="#20336B" stroke-width="0.5"/>
<path d="M17.4219 22.8683V23.2683H17.8219V22.8683H17.4219ZM17.4219 14.4238H17.8219V14.0238H17.4219V14.4238ZM16.4156 15.4238C16.4156 15.0925 16.6843 14.8238 17.0156 14.8238V14.0238C16.2424 14.0238 15.6156 14.6506 15.6156 15.4238H16.4156ZM16.4156 21.8683V15.4238H15.6156V21.8683H16.4156ZM17.0156 22.4683C16.6843 22.4683 16.4156 22.1997 16.4156 21.8683H15.6156C15.6156 22.6415 16.2424 23.2683 17.0156 23.2683V22.4683ZM17.4219 22.4683H17.0156V23.2683H17.4219V22.4683ZM17.8219 22.8683V14.4238H17.0219V22.8683H17.8219ZM17.0156 14.8238H17.4219V14.0238H17.0156V14.8238Z" fill="#20336B"/>
<path d="M28.7656 22.8683V23.2683H28.3656V22.8683H28.7656ZM28.7656 14.4238H28.3656V14.0238H28.7656V14.4238ZM29.6937 15.4238C29.6937 15.0925 29.4251 14.8238 29.0937 14.8238V14.0238C29.8669 14.0238 30.4938 14.6506 30.4938 15.4238H29.6937ZM29.6937 21.8683V15.4238H30.4938V21.8683H29.6937ZM29.0937 22.4683C29.4251 22.4683 29.6937 22.1997 29.6937 21.8683H30.4938C30.4938 22.6415 29.8669 23.2683 29.0937 23.2683V22.4683ZM28.7656 22.4683H29.0937V23.2683H28.7656V22.4683ZM28.3656 22.8683V14.4238H29.1656V22.8683H28.3656ZM29.0937 14.8238H28.7656V14.0238H29.0937V14.8238Z" fill="#20336B"/>
<circle cx="27.7928" cy="31.8299" r="3.62408" fill="white" stroke="#20336B" stroke-width="0.9"/>
<path d="M27.8089 33.8814C28.1434 33.8814 28.4146 33.6102 28.4146 33.2757C28.4146 32.9411 28.1434 32.6699 27.8089 32.6699C27.4743 32.6699 27.2031 32.9411 27.2031 33.2757C27.2031 33.6102 27.4743 33.8814 27.8089 33.8814Z" fill="#3FAFE9"/>
<path d="M29.2599 31.8145C29.2509 31.8053 29.2414 31.797 29.2322 31.7885L29.205 31.7628C29.2005 31.7581 29.1955 31.7546 29.1898 31.7501C28.8139 31.4075 28.3205 31.223 27.8121 31.2349C27.3037 31.2469 26.8194 31.4544 26.4601 31.8143L26.3725 31.9022L26.2511 32.0235C26.1802 32.0949 26.1404 32.1915 26.1406 32.2921C26.1408 32.3928 26.1809 32.4892 26.2521 32.5603C26.2873 32.5957 26.3291 32.6237 26.3751 32.6429C26.4211 32.662 26.4705 32.672 26.5203 32.6721C26.5702 32.6721 26.6196 32.6624 26.6657 32.6434C26.7118 32.6244 26.7537 32.5965 26.789 32.5613L26.9982 32.3521C27.227 32.124 27.537 31.9958 27.8601 31.9958C28.1832 31.9957 28.4932 32.1238 28.7221 32.3518L28.8732 32.4982C28.9439 32.5685 29.0397 32.6079 29.1395 32.6076C29.2392 32.6074 29.3348 32.5676 29.4052 32.4969C29.4404 32.4621 29.4682 32.4206 29.4872 32.3749C29.5062 32.3292 29.5159 32.2802 29.5159 32.2307C29.5162 32.1814 29.5067 32.1326 29.4878 32.087C29.469 32.0414 29.4413 32 29.4062 31.9653L29.2599 31.8145Z" fill="#3FAFE9"/>
<path d="M30.2877 31.0666L30.1618 30.9408C30.1613 30.9403 30.1611 30.9395 30.1601 30.9393L30.0607 30.8394C30.0435 30.8224 30.0246 30.8073 30.0043 30.7942C28.7276 29.6733 26.7857 29.7078 25.5498 30.8968C25.5438 30.9023 25.537 30.906 25.531 30.912L25.3038 31.1395C25.2718 31.1717 25.2464 31.2099 25.2291 31.2519C25.2118 31.2939 25.203 31.339 25.2031 31.3844C25.2033 31.4298 25.2124 31.4748 25.2299 31.5167C25.2474 31.5586 25.2731 31.5967 25.3053 31.6287C25.3373 31.6609 25.3754 31.6865 25.4173 31.704C25.4592 31.7215 25.5042 31.7306 25.5496 31.7307C25.5951 31.7308 25.6401 31.722 25.6821 31.7047C25.7241 31.6874 25.7623 31.662 25.7945 31.6299L26.0217 31.4029C26.0232 31.4009 26.0244 31.3992 26.0259 31.3979C27.0254 30.4324 28.611 30.4264 29.6185 31.3782L29.7973 31.5572C29.8624 31.6219 29.9505 31.6581 30.0422 31.6579C30.134 31.6576 30.2219 31.621 30.2867 31.556C30.3516 31.4912 30.3881 31.4032 30.3883 31.3115C30.3885 31.2198 30.3523 31.1317 30.2877 31.0666Z" fill="#3FAFE9"/>
<path d="M22.9786 32.2012H20.0156" stroke="#20336B" stroke-width="0.8" stroke-linecap="round"/>
</svg>
