<svg width="37" height="34" viewBox="0 0 37 34" fill="none" xmlns="http://www.w3.org/2000/svg">
<path d="M24.3511 31.2123H24.1931C23.7106 31.2095 23.2435 31.0287 22.8757 30.7004C22.5077 30.3718 22.2631 29.9166 22.188 29.4157C22.188 29.4155 22.188 29.4152 22.188 29.415L21.8019 26.7378L21.771 26.5234H21.5545H15.4953H15.2787L15.2478 26.7378L14.8621 29.415C14.8621 29.4152 14.862 29.4154 14.862 29.4156C14.787 29.9166 14.5424 30.3718 14.1743 30.7004C13.8065 31.0287 13.3394 31.2095 12.8569 31.2123L12.6989 31.2123L12.6986 31.2123C12.3909 31.2127 12.0928 31.3174 11.8496 31.5087C11.6066 31.6999 11.432 31.9669 11.3505 32.2681L11.2651 32.5834H11.5918H25.4583H25.7849L25.6996 32.2681C25.6181 31.9669 25.4435 31.6999 25.2004 31.5087C24.9572 31.3174 24.6592 31.2127 24.3515 31.2123H24.3511Z" stroke="#C8D0DB" stroke-width="0.5"/>
<rect x="0.4" y="0.4" width="36.0915" height="26.4406" rx="1.6" stroke="#C8D0DB" stroke-width="0.8"/>
<path d="M18.5339 25.6909C19.0661 25.6909 19.4975 25.2595 19.4975 24.7273C19.4975 24.1951 19.0661 23.7637 18.5339 23.7637C18.0017 23.7637 17.5703 24.1951 17.5703 24.7273C17.5703 25.2595 18.0017 25.6909 18.5339 25.6909Z" fill="#C8D0DB"/>
<path d="M32.4927 2.46055H32.4925H19.3038C19.1954 2.46055 19.0914 2.50361 19.0147 2.58027C18.9381 2.65692 18.895 2.76089 18.895 2.86929C18.895 2.9777 18.9381 3.08167 19.0147 3.15832C19.0914 3.23498 19.1954 3.27804 19.3038 3.27804H32.4925C32.7936 3.27804 33.0823 3.39762 33.2951 3.61047C33.508 3.82333 33.6275 4.11202 33.6275 4.41303V21.3269C33.6275 21.6279 33.508 21.9166 33.2951 22.1294C33.0823 22.3423 32.7936 22.4618 32.4925 22.4618H4.57124C4.27022 22.4618 3.98153 22.3423 3.76868 22.1294C3.55582 21.9166 3.43625 21.6279 3.43625 21.3269V4.41303C3.43625 4.11202 3.55582 3.82333 3.76868 3.61047C3.98153 3.39762 4.27022 3.27804 4.57124 3.27804H13.8235C13.9319 3.27804 14.0359 3.23498 14.1125 3.15832C14.1892 3.08167 14.2322 2.9777 14.2322 2.86929C14.2322 2.76089 14.1892 2.65692 14.1125 2.58027C14.0359 2.50361 13.9319 2.46055 13.8235 2.46055L4.57124 2.46055L4.57112 2.46055C4.05351 2.46115 3.55726 2.66704 3.19125 3.03305C2.82524 3.39906 2.61935 3.8953 2.61875 4.41292V4.41303L2.61875 21.3269L2.61875 21.327C2.61935 21.8446 2.82524 22.3408 3.19125 22.7068C3.55726 23.0729 4.05351 23.2787 4.57112 23.2793H4.57124H32.4925H32.4927C33.0103 23.2787 33.5065 23.0729 33.8725 22.7068C34.2385 22.3408 34.4444 21.8446 34.445 21.327V21.3269V4.41303V4.41292C34.4444 3.8953 34.2385 3.39906 33.8725 3.03305C33.5065 2.66704 33.0103 2.46115 32.4927 2.46055Z" fill="#C8D0DB" stroke="#C8D0DB" stroke-width="0.2"/>
<path d="M15.215 3.27804H17.8394C17.9478 3.27804 18.0517 3.23498 18.1284 3.15832C18.205 3.08167 18.2481 2.9777 18.2481 2.86929C18.2481 2.76089 18.205 2.65692 18.1284 2.58027C18.0517 2.50361 17.9478 2.46055 17.8394 2.46055H15.215C15.1066 2.46055 15.0026 2.50361 14.926 2.58027C14.8493 2.65692 14.8062 2.76089 14.8062 2.86929C14.8062 2.9777 14.8493 3.08167 14.926 3.15832C15.0026 3.23498 15.1066 3.27804 15.215 3.27804Z" fill="#C8D0DB" stroke="#C8D0DB" stroke-width="0.2"/>
<path d="M11.5082 6.51055H11.5082C10.2482 6.51055 9.01648 6.88418 7.96882 7.5842C6.92117 8.28422 6.10462 9.27919 5.62244 10.4433C5.14026 11.6074 5.0141 12.8883 5.25991 14.1241C5.50573 15.3599 6.11248 16.495 7.00343 17.386C7.89439 18.2769 9.02954 18.8837 10.2653 19.1295C11.5011 19.3753 12.7821 19.2492 13.9461 18.767C15.1102 18.2848 16.1052 17.4683 16.8052 16.4206C17.5052 15.3729 17.8789 14.1412 17.8789 12.8812V12.8812C17.877 11.1922 17.2052 9.57287 16.0109 8.37855C14.8166 7.18424 13.1973 6.51244 11.5082 6.51055ZM5.85562 12.8813V12.8813C5.85699 11.4353 6.41171 10.0448 7.40593 8.99488C8.38803 7.9578 9.72542 7.33085 11.1494 7.23855V12.8235L9.39425 18.1239C8.35679 17.7072 7.46613 16.9914 6.83587 16.067C6.1957 15.1281 5.85403 14.0177 5.85562 12.8813ZM11.5081 18.5341C11.0247 18.5342 10.5433 18.4721 10.0758 18.3494L11.7663 13.24H17.1502C17.0576 14.6638 16.4306 16.0009 15.3938 16.983C14.3441 17.9772 12.9539 18.5321 11.5081 18.5341ZM11.8669 12.5225V7.23855C13.2384 7.32755 14.5314 7.91249 15.504 8.88521C16.4766 9.85793 17.0614 11.151 17.1503 12.5225H11.8669ZM19.2945 18.9469H31.49C31.5852 18.9469 31.6764 18.9091 31.7437 18.8418C31.811 18.7745 31.8488 18.6833 31.8488 18.5881C31.8488 18.493 31.811 18.4017 31.7437 18.3345C31.6764 18.2672 31.5852 18.2294 31.49 18.2294H30.1507V13.0535C30.1507 12.9584 30.1129 12.8671 30.0456 12.7998C29.9783 12.7326 29.8871 12.6948 29.7919 12.6948H27.7079C27.6127 12.6948 27.5215 12.7326 27.4542 12.7998C27.3869 12.8671 27.3491 12.9584 27.3491 13.0535V18.2294H26.7544V9.03979C26.7544 8.94465 26.7167 8.8534 26.6494 8.78612C26.5821 8.71884 26.4908 8.68104 26.3957 8.68104H24.3117C24.2165 8.68104 24.1253 8.71884 24.058 8.78612C23.9907 8.8534 23.9529 8.94465 23.9529 9.03979V18.2294H23.3582V11.5098C23.3582 11.4146 23.3204 11.3234 23.2531 11.2561C23.1859 11.1888 23.0946 11.151 22.9995 11.151H20.9154C20.8203 11.151 20.729 11.1888 20.6618 11.2561C20.5945 11.3234 20.5567 11.4146 20.5567 11.5098V18.2294H19.6532V7.15087C19.6532 7.05573 19.6155 6.96448 19.5482 6.8972C19.4809 6.82992 19.3896 6.79213 19.2945 6.79213C19.1994 6.79213 19.1081 6.82992 19.0408 6.8972C18.9735 6.96448 18.9358 7.05573 18.9358 7.15087V18.5881C18.9358 18.6833 18.9735 18.7745 19.0408 18.8418C19.1081 18.9091 19.1994 18.9469 19.2945 18.9469ZM28.0666 13.4123H29.4332V18.2294H28.0666V13.4123ZM24.6704 9.39854H26.037V18.2294H24.6704V9.39854ZM21.2742 11.8685H22.6407V18.2294H21.2742V11.8685Z" fill="#C8D0DB" stroke="#C8D0DB" stroke-width="0.1"/>
</svg>
