<svg width="24" height="22" viewBox="0 0 24 22" fill="none" xmlns="http://www.w3.org/2000/svg">
<rect x="1" y="5.37109" width="20.5625" height="14.8125" rx="1.5" stroke="#20336B"/>
<path d="M6.73438 5.31033L13.958 1.17178C14.2012 1.03247 14.5113 1.12018 14.6455 1.3662L15.3594 2.67491" stroke="#20336B"/>
<path d="M9.60938 5.31076L17.2873 1.99871C17.5443 1.88786 17.8422 2.00948 17.9481 2.2685L19.1927 5.31076" stroke="#20336B"/>
<mask id="path-4-inside-1_1004_53595" fill="white">
<path d="M13.9219 12.1426C13.9219 11.038 14.8173 10.1426 15.9219 10.1426H23.0052C23.2814 10.1426 23.5052 10.3664 23.5052 10.6426V14.9134C23.5052 15.1896 23.2814 15.4134 23.0052 15.4134H15.9219C14.8173 15.4134 13.9219 14.518 13.9219 13.4134V12.1426Z"/>
</mask>
<path d="M13.9219 12.1426C13.9219 11.038 14.8173 10.1426 15.9219 10.1426H23.0052C23.2814 10.1426 23.5052 10.3664 23.5052 10.6426V14.9134C23.5052 15.1896 23.2814 15.4134 23.0052 15.4134H15.9219C14.8173 15.4134 13.9219 14.518 13.9219 13.4134V12.1426Z" stroke="#20336B" stroke-width="2" mask="url(#path-4-inside-1_1004_53595)"/>
<path d="M17.874 12.7329C17.874 13.118 17.5236 13.4809 17.026 13.4809C16.5285 13.4809 16.1781 13.118 16.1781 12.7329C16.1781 12.3477 16.5285 11.9848 17.026 11.9848C17.5236 11.9848 17.874 12.3477 17.874 12.7329Z" stroke="#20336B" stroke-width="0.7"/>
<rect x="15.6406" y="3.46484" width="1.91667" height="0.878472" rx="0.3" fill="#20336B"/>
<path d="M21.5781 8.82422H22.7156C22.8813 8.82422 23.0156 8.95853 23.0156 9.12422V10.5812" stroke="#20336B"/>
<path d="M7.6582 14.3696L7.6753 14.2986L8.00782 14.2535L7.9803 14.3696H7.6582Z" fill="#4ABCEB" stroke="#4ABCEB"/>
<path d="M11.3427 14.3616L11.4642 13.8177L11.7763 13.7838L11.6297 14.3616H11.3427Z" fill="#4ABCEB" stroke="#4ABCEB"/>
<mask id="path-10-inside-2_1004_53595" fill="white">
<path d="M3.375 14.8238L4.83041 14.373L4.72412 14.8613H3.375V14.8238Z"/>
</mask>
<path d="M3.375 14.8238L4.83041 14.373L4.72412 14.8613H3.375V14.8238Z" fill="#4ABCEB"/>
<path d="M3.375 14.8238L3.07918 13.8685L2.375 14.0866V14.8238H3.375ZM4.83041 14.373L5.80753 14.5858L6.17218 12.9107L4.53459 13.4178L4.83041 14.373ZM4.72412 14.8613V15.8613H5.52984L5.70123 15.074L4.72412 14.8613ZM3.375 14.8613H2.375V15.8613H3.375V14.8613ZM3.67082 15.779L5.12623 15.3283L4.53459 13.4178L3.07918 13.8685L3.67082 15.779ZM3.85329 14.1603L3.747 14.6486L5.70123 15.074L5.80753 14.5858L3.85329 14.1603ZM4.72412 13.8613H3.375V15.8613H4.72412V13.8613ZM4.375 14.8613V14.8238H2.375V14.8613H4.375Z" fill="#4ABCEB" mask="url(#path-10-inside-2_1004_53595)"/>
<mask id="mask0_1004_53595" style="mask-type:luminance" maskUnits="userSpaceOnUse" x="3" y="9" width="10" height="6">
<path d="M12.4347 13.2217C11.9651 13.2673 11.5051 13.3151 11.0547 13.3652L11.4861 11.5058C11.5321 11.3224 11.5551 11.1567 11.5551 11.0087C11.5551 10.4802 11.2066 10.216 10.5096 10.216H9.46322L8.66193 13.6659C8.17738 13.7353 7.71212 13.8082 7.2661 13.8845L8.11775 10.216H6.14052C5.90322 10.216 5.76159 10.3217 5.71563 10.5329L4.82485 14.3944C4.27603 14.5362 3.78964 14.6882 3.375 14.8497L4.4512 10.216C4.52761 9.88463 4.65775 9.64291 4.84162 9.49087C5.02549 9.3394 5.31279 9.26367 5.70352 9.26367H10.8656C11.5017 9.26367 12.0095 9.38012 12.389 9.61301C12.7685 9.84533 12.9583 10.2049 12.9583 10.6918C12.9583 10.8962 12.9428 11.0582 12.9117 11.1778L12.4347 13.2217Z" fill="white"/>
<path d="M12.4347 13.2217C11.9651 13.2673 11.5051 13.3151 11.0547 13.3652L11.4861 11.5058C11.5321 11.3224 11.5551 11.1567 11.5551 11.0087C11.5551 10.4802 11.2066 10.216 10.5096 10.216H9.46322L8.66193 13.6659C8.17738 13.7353 7.71212 13.8082 7.2661 13.8845L8.11775 10.216H6.14052C5.90322 10.216 5.76159 10.3217 5.71563 10.5329L4.82485 14.3944C4.27603 14.5362 3.78964 14.6882 3.375 14.8497L4.4512 10.216C4.52761 9.88463 4.65775 9.64291 4.84162 9.49087C5.02549 9.3394 5.31279 9.26367 5.70352 9.26367H10.8656C11.5017 9.26367 12.0095 9.38012 12.389 9.61301C12.7685 9.84533 12.9583 10.2049 12.9583 10.6918C12.9583 10.8962 12.9428 11.0582 12.9117 11.1778L12.4347 13.2217Z" stroke="white"/>
</mask>
<g mask="url(#mask0_1004_53595)">
<path d="M43.933 18.6314H1.98438V7.91211H43.933V18.6314Z" fill="#20336B"/>
<path d="M43.933 18.6314H1.98438V7.91211H43.933V18.6314Z" stroke="#4ABCEB"/>
</g>
</svg>
