<svg width="24" height="20" viewBox="0 0 24 20" fill="none" xmlns="http://www.w3.org/2000/svg">
<path fill-rule="evenodd" clip-rule="evenodd" d="M4.89062 1H22.0055C22.5577 1 23.0055 1.44772 23.0055 2V13.3562C23.0055 13.9085 22.5577 14.3562 22.0055 14.3562H11.4416C11.3861 14.7002 11.3039 15.0344 11.1972 15.3562H22.0055C23.11 15.3562 24.0055 14.4608 24.0055 13.3562V2C24.0055 0.895431 23.11 0 22.0055 0H4.89062C3.78606 0 2.89062 0.895432 2.89062 2V7.9856C3.20627 7.79116 3.54082 7.62774 3.89062 7.49925V2C3.89062 1.44772 4.33834 1 4.89062 1Z" fill="#5E7CD0"/>
<rect x="5.75781" y="2.87891" width="11.5172" height="0.959765" rx="0.479883" fill="#5E7CD0"/>
<rect x="5.75781" y="4.79883" width="11.5172" height="0.959765" rx="0.479883" fill="#5E7CD0"/>
<path d="M11.0172 13.4363C11.0172 16.3406 8.66283 18.6949 5.75859 18.6949C2.85435 18.6949 0.5 16.3406 0.5 13.4363C0.5 10.5321 2.85435 8.17773 5.75859 8.17773C8.66283 8.17773 11.0172 10.5321 11.0172 13.4363Z" stroke="#5E7CD0"/>
<mask id="path-5-inside-1_1004_53672" fill="white">
<path fill-rule="evenodd" clip-rule="evenodd" d="M4.94982 12.2601L5.46783 11.6754C5.96684 11.1122 6.82796 11.0601 7.39118 11.5591C7.9544 12.0582 8.00645 12.9193 7.50744 13.4825L7.03264 14.0184L7.79698 14.6637L8.25592 14.1457C9.12119 13.1691 9.03093 11.6759 8.05433 10.8107C7.07774 9.9454 5.58461 10.0357 4.71934 11.0123L4.18548 11.6148L4.94982 12.2601ZM4.27385 13.023L3.50951 12.3778L3.15264 12.7805C2.28737 13.7571 2.37763 15.2503 3.35423 16.1155C4.33082 16.9808 5.82395 16.8905 6.68922 15.9139L7.12101 15.4266L6.35667 14.7813L5.94073 15.2508C5.44172 15.814 4.5806 15.8661 4.01738 15.367C3.45416 14.868 3.40211 14.0069 3.90112 13.4437L4.27385 13.023Z"/>
</mask>
<path d="M5.46783 11.6754L4.71934 11.0123L4.71934 11.0123L5.46783 11.6754ZM4.94982 12.2601L4.30475 13.0242L5.05081 13.654L5.6983 12.9232L4.94982 12.2601ZM7.39118 11.5591L6.72802 12.3076H6.72802L7.39118 11.5591ZM7.50744 13.4825L8.25592 14.1457V14.1457L7.50744 13.4825ZM7.03264 14.0184L6.28416 13.3552L5.60496 14.1218L6.38757 14.7825L7.03264 14.0184ZM7.79698 14.6637L7.1519 15.4278L7.89797 16.0576L8.54546 15.3268L7.79698 14.6637ZM8.25592 14.1457L9.0044 14.8088L8.25592 14.1457ZM8.05433 10.8107L7.39118 11.5591V11.5591L8.05433 10.8107ZM4.71934 11.0123L5.46783 11.6754L4.71934 11.0123ZM4.18548 11.6148L3.437 10.9516L2.7578 11.7182L3.54041 12.3789L4.18548 11.6148ZM4.27385 13.023L5.02233 13.6862L5.70153 12.9196L4.91892 12.2589L4.27385 13.023ZM3.50951 12.3778L4.15458 11.6136L3.40852 10.9838L2.76103 11.7146L3.50951 12.3778ZM3.15264 12.7805L2.40416 12.1174L2.40416 12.1174L3.15264 12.7805ZM3.35423 16.1155L2.69107 16.864L2.69107 16.864L3.35423 16.1155ZM6.68922 15.9139L5.94073 15.2508L6.68922 15.9139ZM7.12101 15.4266L7.86949 16.0898L8.54869 15.3232L7.76608 14.6625L7.12101 15.4266ZM6.35667 14.7813L7.00174 14.0172L6.25567 13.3874L5.60818 14.1182L6.35667 14.7813ZM5.94073 15.2508L6.68922 15.9139L6.68922 15.9139L5.94073 15.2508ZM4.01738 15.367L4.68054 14.6186L4.01738 15.367ZM3.90112 13.4437L4.6496 14.1069H4.6496L3.90112 13.4437ZM4.71934 11.0123L4.20134 11.5969L5.6983 12.9232L6.21631 12.3386L4.71934 11.0123ZM8.05433 10.8107C7.07774 9.9454 5.58461 10.0357 4.71934 11.0123L6.21631 12.3386C6.34907 12.1887 6.57818 12.1749 6.72802 12.3076L8.05433 10.8107ZM8.25592 14.1457C9.12119 13.1691 9.03093 11.6759 8.05433 10.8107L6.72802 12.3076C6.87787 12.4404 6.89172 12.6695 6.75896 12.8193L8.25592 14.1457ZM7.78112 14.6815L8.25592 14.1457L6.75896 12.8193L6.28416 13.3552L7.78112 14.6815ZM6.38757 14.7825L7.1519 15.4278L8.44205 13.8995L7.67771 13.2543L6.38757 14.7825ZM8.54546 15.3268L9.0044 14.8088L7.50744 13.4825L7.0485 14.0005L8.54546 15.3268ZM9.0044 14.8088C10.2359 13.4188 10.1075 11.2937 8.71749 10.0622L7.39118 11.5591C7.9544 12.0582 8.00645 12.9193 7.50744 13.4825L9.0044 14.8088ZM8.71749 10.0622C7.32752 8.83067 5.20238 8.95912 3.97086 10.3491L5.46783 11.6754C5.96684 11.1122 6.82796 11.0601 7.39118 11.5591L8.71749 10.0622ZM3.97086 10.3491L3.437 10.9516L4.93396 12.278L5.46783 11.6754L3.97086 10.3491ZM3.54041 12.3789L4.30475 13.0242L5.59489 11.4959L4.83056 10.8507L3.54041 12.3789ZM4.91892 12.2589L4.15458 11.6136L2.86443 13.1419L3.62877 13.7871L4.91892 12.2589ZM2.76103 11.7146L2.40416 12.1174L3.90112 13.4437L4.25799 13.0409L2.76103 11.7146ZM2.40416 12.1174C1.17264 13.5074 1.3011 15.6325 2.69107 16.864L4.01738 15.367C3.45416 14.868 3.40211 14.0069 3.90112 13.4437L2.40416 12.1174ZM2.69107 16.864C4.08104 18.0955 6.20618 17.9671 7.4377 16.5771L5.94073 15.2508C5.44172 15.814 4.5806 15.8661 4.01738 15.367L2.69107 16.864ZM7.4377 16.5771L7.86949 16.0898L6.37252 14.7634L5.94073 15.2508L7.4377 16.5771ZM7.76608 14.6625L7.00174 14.0172L5.71159 15.5455L6.47593 16.1907L7.76608 14.6625ZM6.68922 15.9139L7.10515 15.4445L5.60818 14.1182L5.19225 14.5876L6.68922 15.9139ZM3.35423 16.1155C4.33082 16.9808 5.82395 16.8905 6.68922 15.9139L5.19225 14.5876C5.05949 14.7375 4.83038 14.7513 4.68054 14.6186L3.35423 16.1155ZM3.15264 12.7805C2.28737 13.7571 2.37763 15.2503 3.35423 16.1155L4.68054 14.6186C4.53069 14.4858 4.51684 14.2567 4.6496 14.1069L3.15264 12.7805ZM3.52536 12.3599L3.15264 12.7805L4.6496 14.1069L5.02233 13.6862L3.52536 12.3599Z" fill="#5E7CD0" mask="url(#path-5-inside-1_1004_53672)"/>
<rect x="6.69531" y="11.9023" width="0.885937" height="3.54375" rx="0.442969" transform="rotate(43.9974 6.69531 11.9023)" fill="#5E7CD0"/>
<circle cx="16.7979" cy="11.0361" r="1.89941" stroke="#5E7CD0"/>
<circle cx="18.7197" cy="11.0361" r="1.89941" stroke="#5E7CD0"/>
</svg>
