<svg width="38" height="35" viewBox="0 0 38 35" fill="none" xmlns="http://www.w3.org/2000/svg">
<path d="M6.47826 20.0938C6.91054 20.0938 7.26087 20.444 7.26087 20.8764V31.8329C7.26087 32.265 6.91054 32.6155 6.47826 32.6155H1.78261C1.35033 32.6155 1 32.265 1 31.8329V20.8764C1 20.444 1.35033 20.0938 1.78261 20.0938H6.47826Z" stroke="#C8D0DB"/>
<path d="M7.26562 30.3663C23.7004 35.8445 18.2221 35.8445 37.0048 26.4532C35.9238 24.9968 34.0477 24.3715 32.3091 24.888L25.5536 27.0276" stroke="#C8D0DB"/>
<path d="M7.26562 21.6582H11.9613C15.6442 21.6582 18.2221 24.7886 19.0048 24.7886H24.483C26.0482 24.7886 26.0482 27.9191 24.483 27.9191H15.8743" stroke="#C8D0DB"/>
<path d="M28.1546 9.91645H26.612V8.43386H28.1546C28.3864 8.43386 28.5743 8.24615 28.5743 8.01431C28.5743 7.78244 28.3864 7.59462 28.1546 7.59462H26.612V5.53744C26.612 5.23715 26.5526 5.01674 26.4357 4.88248C26.3245 4.75475 26.1783 4.69531 25.9759 4.69531C25.7827 4.69531 25.6421 4.75434 25.533 4.88127C25.4174 5.01567 25.3587 5.23649 25.3587 5.53758V7.59487H22.457L21.2231 5.72784C21.1233 5.56999 21.0228 5.41248 20.9219 5.25532C20.835 5.1204 20.7504 5.01055 20.6704 4.92852C20.5996 4.8559 20.5189 4.7997 20.4246 4.7565C20.3355 4.71585 20.2223 4.69545 20.0884 4.69545C19.9176 4.69545 19.7625 4.74225 19.6141 4.83839C19.4671 4.93348 19.3656 5.05106 19.3035 5.19784C19.2491 5.33735 19.2203 5.55111 19.2203 5.82703V7.59473H17.693C17.4612 7.59476 17.2734 7.78258 17.2734 8.01442C17.2734 8.24626 17.4612 8.43397 17.693 8.43397H19.2203V9.91672H17.693C17.4612 9.91672 17.2734 10.1045 17.2734 10.3364C17.2734 10.5682 17.4612 10.7558 17.693 10.7558H19.2203V13.1046C19.2203 13.396 19.2815 13.6142 19.4028 13.7528C19.5182 13.885 19.6644 13.9464 19.863 13.9464C20.0546 13.9464 20.1997 13.8847 20.32 13.7523C20.4433 13.6166 20.5056 13.3986 20.5056 13.1046V10.7558H23.1314L24.5523 12.9347C24.6518 13.0796 24.7527 13.2236 24.8549 13.3667C24.9467 13.4947 25.0468 13.6075 25.1525 13.7017C25.2477 13.7869 25.3497 13.8493 25.4557 13.8874C25.5649 13.9267 25.6925 13.9467 25.8341 13.9467C26.2184 13.9467 26.6119 13.829 26.6119 12.9566V10.7558H28.1546C28.3864 10.7558 28.5743 10.5679 28.5743 10.3361C28.5743 10.1044 28.3864 9.91645 28.1546 9.91645ZM25.3587 8.43383V9.91643H23.9915L23.0118 8.43383H25.3587ZM20.5056 6.73029L21.0694 7.59462H20.5056V6.73029ZM20.5056 9.91645V8.43386H21.6169L22.584 9.91645H20.5056ZM25.3587 11.9858L24.5461 10.7558H25.3587V11.9858Z" fill="#C8D0DB"/>
<circle cx="22.9147" cy="9.3913" r="8.8913" stroke="#C8D0DB"/>
</svg>
