<svg width="25" height="23" viewBox="0 0 25 23" fill="none" xmlns="http://www.w3.org/2000/svg">
<path d="M4.5 12.8379C4.77618 12.8379 5 13.0617 5 13.3379V20.3379C5 20.614 4.77618 20.8379 4.5 20.8379H1.5C1.22382 20.8379 1 20.614 1 20.3379V13.3379C1 13.0617 1.22382 12.8379 1.5 12.8379H4.5Z" stroke="#20336B"/>
<path d="M5 19.4015C15.5 22.9015 12 22.9015 24 16.9015C23.3094 15.971 22.1108 15.5715 21 15.9015L16.684 17.2685" stroke="#20336B"/>
<path d="M5 13.8379H8C10.353 13.8379 12 15.8379 12.5 15.8379H16C17 15.8379 17 17.8379 16 17.8379H10.5" stroke="#20336B"/>
<path d="M18.3503 6.33573H17.3647V5.38851H18.3503C18.4984 5.38851 18.6184 5.26859 18.6184 5.12047C18.6184 4.97233 18.4984 4.85233 18.3503 4.85233H17.3647V3.53803C17.3647 3.34617 17.3268 3.20536 17.2521 3.11958C17.181 3.03797 17.0877 3 16.9583 3C16.8349 3 16.7451 3.03771 16.6754 3.11881C16.6015 3.20467 16.564 3.34575 16.564 3.53812V4.85249H14.7101L13.9219 3.65967C13.858 3.55882 13.7939 3.45819 13.7294 3.35778C13.6739 3.27158 13.6198 3.2014 13.5687 3.14899C13.5235 3.1026 13.4719 3.06669 13.4117 3.03909C13.3548 3.01312 13.2824 3.00009 13.1969 3.00009C13.0878 3.00009 12.9887 3.02999 12.8938 3.09141C12.8 3.15217 12.7351 3.22728 12.6954 3.32106C12.6607 3.41019 12.6423 3.54676 12.6423 3.72304V4.85241H11.6665C11.5184 4.85242 11.3984 4.97242 11.3984 5.12054C11.3984 5.26866 11.5184 5.38859 11.6665 5.38859H12.6423V6.3359H11.6665C11.5184 6.3359 11.3984 6.45587 11.3984 6.60403C11.3984 6.75211 11.5184 6.87199 11.6665 6.87199H12.6423V8.3726C12.6423 8.55878 12.6814 8.69817 12.7589 8.78674C12.8326 8.8712 12.926 8.91041 13.0529 8.91041C13.1753 8.91041 13.268 8.87102 13.3449 8.78641C13.4236 8.69973 13.4634 8.56042 13.4634 8.37261V6.87199H15.141L16.0488 8.26406C16.1124 8.35665 16.1769 8.44865 16.2421 8.54004C16.3008 8.62182 16.3648 8.69388 16.4323 8.75407C16.4931 8.80851 16.5583 8.8484 16.626 8.87274C16.6958 8.89785 16.7773 8.91058 16.8677 8.91058C17.1133 8.91058 17.3647 8.83542 17.3647 8.27802V6.87199H18.3503C18.4984 6.87199 18.6184 6.75194 18.6184 6.60386C18.6184 6.45578 18.4984 6.33573 18.3503 6.33573ZM16.564 5.3885V6.33571H15.6905L15.0646 5.3885H16.564ZM13.4634 4.30012L13.8237 4.85233H13.4634V4.30012ZM13.4634 6.33573V5.38851H14.1734L14.7913 6.33573H13.4634ZM16.564 7.65782L16.0449 6.87199H16.564V7.65782Z" fill="#24BAF2"/>
<circle cx="15" cy="6" r="5.5" stroke="#20336B"/>
</svg>
