<svg width="37" height="37" viewBox="0 0 37 37" fill="none" xmlns="http://www.w3.org/2000/svg">
<path d="M36.7609 26.5363L32.7363 16.0205C32.686 15.8893 32.5865 15.7829 32.459 15.724C32.3315 15.6651 32.186 15.6582 32.0535 15.705L27.8133 17.2178C27.7452 17.2423 27.6827 17.2801 27.6295 17.3291C27.5763 17.3782 27.5334 17.4374 27.5035 17.5033C27.4736 17.5692 27.4573 17.6404 27.4554 17.7127C27.4536 17.785 27.4663 17.857 27.4927 17.9243L27.8614 18.8586L24.968 20.2327L20.2189 19.3408C19.7564 19.2544 19.281 19.2643 18.8224 19.3699C18.3639 19.4755 17.9321 19.6745 17.554 19.9546L16.7052 20.5842L16.1432 20.1796C15.719 19.8758 15.2312 19.6726 14.7168 19.5855C14.2024 19.4983 13.6749 19.5294 13.1743 19.6765L11.3517 20.2191L8.96424 18.7918L9.30705 17.925C9.33352 17.8577 9.34621 17.7857 9.34435 17.7134C9.34249 17.6411 9.32613 17.5699 9.29624 17.504C9.26635 17.4381 9.22353 17.3789 9.17033 17.3299C9.11712 17.2808 9.05462 17.243 8.98652 17.2186L4.74339 15.705C4.61073 15.6578 4.46487 15.6644 4.33701 15.7234C4.20915 15.7823 4.10944 15.889 4.05919 16.0205L0.0359809 26.5363C-0.0139033 26.6658 -0.0118489 26.8096 0.0417154 26.9376C0.0952797 27.0656 0.196215 27.168 0.323456 27.2234L4.34811 28.9576C4.41441 28.9862 4.48578 29.0013 4.558 29.0018C4.63022 29.0023 4.70181 28.9883 4.76851 28.9606C4.83521 28.9329 4.89567 28.8921 4.94629 28.8406C4.99692 28.7891 5.03667 28.728 5.0632 28.6608L5.46854 27.6352L8.80469 29.5153C8.57988 29.8417 8.47635 30.2365 8.51205 30.6312C8.54776 31.0259 8.72044 31.3957 9.00017 31.6764C9.15752 31.8338 9.34443 31.9586 9.55015 32.0436C9.75587 32.1286 9.97636 32.1721 10.1989 32.1716H10.2413C10.2791 32.5933 10.4734 32.9855 10.786 33.271C11.0987 33.5565 11.5069 33.7145 11.9303 33.7139H11.9741C12.0082 34.1101 12.1813 34.4815 12.4628 34.7624C12.6202 34.9199 12.8071 35.0447 13.0128 35.1296C13.2185 35.2146 13.439 35.2581 13.6616 35.2576H13.704C13.7325 35.5788 13.8521 35.8853 14.0487 36.1409C14.2452 36.3965 14.5107 36.5907 14.8138 36.7008C15.117 36.8108 15.4452 36.832 15.76 36.762C16.0748 36.692 16.363 36.5336 16.591 36.3055L17.2313 35.6658L18.098 36.3127C18.4652 36.5863 18.9189 36.7181 19.3756 36.6838C19.8322 36.6495 20.2611 36.4513 20.5833 36.1258L20.6444 36.064C20.9165 35.7862 21.097 35.4319 21.1618 35.0485C21.4861 35.14 21.8289 35.1436 22.155 35.0589C22.4811 34.9741 22.7788 34.8041 23.0175 34.5662L23.062 34.5217C23.3644 34.2199 23.5555 33.8243 23.6039 33.3998C23.9307 33.4972 24.2777 33.5041 24.6081 33.42C24.9386 33.3358 25.24 33.1637 25.4804 32.9219L25.5106 32.8917C25.8054 32.5995 25.9946 32.2174 26.0482 31.8058C26.3391 31.8752 26.6423 31.8747 26.9331 31.8044C27.2238 31.7341 27.4937 31.5959 27.7208 31.4012C27.9479 31.2065 28.1256 30.9609 28.2395 30.6843C28.3534 30.4077 28.4002 30.1081 28.376 29.81C28.3666 29.6944 28.3466 29.5798 28.3163 29.4679L31.4491 27.9342L31.7366 28.6586C31.7629 28.7259 31.8026 28.7872 31.8532 28.8388C31.9038 28.8905 31.9643 28.9313 32.031 28.959C32.0978 28.9868 32.1694 29.0007 32.2417 29.0001C32.314 28.9995 32.3854 28.9843 32.4517 28.9554L36.4763 27.2213C36.6025 27.1654 36.7024 27.0631 36.7554 26.9356C36.8084 26.8082 36.8103 26.6652 36.7609 26.5363ZM4.26402 27.7481L1.22757 26.4386L4.87634 16.898L5.77111 17.2164L4.04626 22.1193C3.99861 22.2542 4.00652 22.4026 4.06824 22.5317C4.12997 22.6608 4.24047 22.7601 4.37542 22.8078C4.51037 22.8554 4.65872 22.8475 4.78784 22.7858C4.91696 22.7241 5.01627 22.6136 5.06392 22.4786L6.78446 17.5808L8.09606 18.0486L4.26402 27.7481ZM10.6366 30.9139C10.5202 31.0256 10.3647 31.0873 10.2034 31.0858C10.0421 31.0844 9.88777 31.0198 9.77346 30.9059C9.65915 30.7921 9.59394 30.638 9.59179 30.4767C9.58965 30.3154 9.65074 30.1597 9.76198 30.0428L10.9119 28.8929C10.9984 28.8068 11.1084 28.7481 11.2282 28.7244C11.3479 28.7008 11.472 28.713 11.5848 28.7598C11.6975 28.8065 11.7939 28.8856 11.8618 28.9871C11.9297 29.0885 11.966 29.2078 11.9662 29.3299C11.9665 29.411 11.9506 29.4913 11.9195 29.5662C11.8884 29.6411 11.8427 29.7091 11.7851 29.7661L10.6366 30.9139ZM12.4635 32.3627C12.4312 32.3944 12.4024 32.4281 12.3737 32.4619L12.3679 32.4555C12.3111 32.5149 12.243 32.5625 12.1676 32.5952C12.0922 32.628 12.011 32.6454 11.9287 32.6464C11.8465 32.6473 11.7649 32.6319 11.6887 32.6009C11.6125 32.5698 11.5433 32.5239 11.4851 32.4658C11.427 32.4077 11.381 32.3385 11.3499 32.2623C11.3188 32.1862 11.3033 32.1046 11.3042 32.0224C11.3051 31.9401 11.3224 31.8589 11.3551 31.7834C11.3878 31.708 11.4353 31.6398 11.4947 31.583L12.5498 30.5287C12.5814 30.497 12.6116 30.464 12.6403 30.4302L12.6454 30.4352C12.7619 30.3237 12.9175 30.2623 13.0788 30.264C13.2401 30.2658 13.3943 30.3306 13.5085 30.4446C13.6226 30.5586 13.6875 30.7128 13.6894 30.8741C13.6913 31.0354 13.63 31.1911 13.5186 31.3077L12.4635 32.3627ZM14.0964 33.9956C13.9789 34.1011 13.8254 34.1576 13.6676 34.1534C13.5098 34.1492 13.3595 34.0847 13.2478 33.9731C13.136 33.8616 13.0713 33.7114 13.0668 33.5536C13.0624 33.3958 13.1186 33.2422 13.2239 33.1246L14.3738 31.9747C14.4296 31.9115 14.4977 31.8604 14.574 31.8245C14.6503 31.7887 14.7331 31.7688 14.8173 31.7662C14.9015 31.7636 14.9854 31.7782 15.0638 31.8092C15.1421 31.8403 15.2133 31.887 15.2729 31.9466C15.3325 32.0061 15.3793 32.0773 15.4104 32.1556C15.4415 32.2339 15.4562 32.3178 15.4536 32.402C15.4511 32.4863 15.4313 32.5691 15.3955 32.6454C15.3597 32.7217 15.3087 32.7899 15.2456 32.8457L14.0964 33.9956ZM16.9769 34.388L15.827 35.5379C15.7104 35.6494 15.5548 35.7109 15.3935 35.7091C15.2322 35.7074 15.078 35.6426 14.9639 35.5285C14.8498 35.4145 14.7848 35.2603 14.7829 35.099C14.781 34.9377 14.8424 34.7821 14.9538 34.6654L16.0088 33.6111C16.0404 33.5795 16.0706 33.5464 16.0994 33.5126L16.1044 33.5177C16.221 33.4062 16.3766 33.3447 16.5379 33.3465C16.6992 33.3482 16.8534 33.413 16.9675 33.5271C17.0816 33.6411 17.1466 33.7952 17.1485 33.9566C17.1504 34.1179 17.089 34.2735 16.9776 34.3902L16.9769 34.388ZM27.0644 30.5358C26.9211 30.6807 26.7285 30.7663 26.525 30.7755C26.3215 30.7846 26.122 30.7168 25.9662 30.5854L25.5458 30.2354C25.5164 30.1927 25.4811 30.1545 25.4409 30.1219L24.4714 29.3428C24.3596 29.2589 24.2196 29.2216 24.081 29.2389C23.9423 29.2561 23.8157 29.3266 23.728 29.4354C23.6402 29.5442 23.5982 29.6828 23.6107 29.822C23.6232 29.9612 23.6893 30.0901 23.7951 30.1815L24.6316 30.8564C24.6549 30.8885 24.6814 30.9181 24.7107 30.9448C24.7938 31.0184 24.861 31.1082 24.9081 31.2087C24.9552 31.3092 24.9812 31.4183 24.9846 31.5292C24.9879 31.6402 24.9685 31.7506 24.9276 31.8538C24.8867 31.957 24.8251 32.0507 24.7466 32.1292L24.7164 32.1594C24.5801 32.2963 24.3995 32.3801 24.207 32.3959C24.0144 32.4117 23.8225 32.3584 23.6657 32.2456L22.8328 31.6491L22.8241 31.6426L22.5093 31.4177C22.3931 31.3345 22.2485 31.3009 22.1075 31.3243C21.9664 31.3476 21.8404 31.4261 21.7572 31.5424C21.674 31.6586 21.6404 31.8032 21.6638 31.9442C21.6872 32.0853 21.7657 32.2113 21.8819 32.2945L22.2025 32.5237C22.2976 32.593 22.3766 32.6821 22.434 32.7849C22.4914 32.8877 22.5258 33.0017 22.5349 33.1191C22.544 33.2364 22.5275 33.3543 22.4866 33.4647C22.4457 33.5751 22.3814 33.6753 22.2981 33.7584L22.2535 33.803C22.1068 33.9495 21.9099 34.0347 21.7028 34.0412C21.4956 34.0477 21.2937 33.9752 21.1381 33.8382L20.2397 33.0477C20.1881 32.9941 20.126 32.9519 20.0573 32.9235C19.9886 32.8952 19.9147 32.8813 19.8404 32.8829C19.7661 32.8844 19.6929 32.9014 19.6254 32.9326C19.558 32.9638 19.4977 33.0086 19.4484 33.0642C19.399 33.1198 19.3618 33.1851 19.3389 33.2558C19.316 33.3265 19.308 33.4012 19.3153 33.4752C19.3227 33.5492 19.3453 33.6208 19.3817 33.6856C19.4181 33.7505 19.4675 33.8071 19.5268 33.8519L19.8322 34.1221C19.9155 34.1953 19.9829 34.2847 20.0303 34.3848C20.0778 34.4849 20.1043 34.5937 20.1083 34.7044C20.1123 34.8152 20.0936 34.9256 20.0534 35.0289C20.0132 35.1321 19.9524 35.2261 19.8746 35.3051L19.8135 35.3669C19.6748 35.507 19.4902 35.5924 19.2935 35.6072C19.0969 35.622 18.9015 35.5652 18.7434 35.4474L17.9672 34.8681C18.1313 34.6119 18.2234 34.3163 18.2338 34.0122C18.2443 33.7082 18.1727 33.4069 18.0267 33.14C17.8807 32.8732 17.6655 32.6505 17.4038 32.4954C17.1421 32.3403 16.8434 32.2585 16.5392 32.2585H16.4968C16.4589 31.837 16.2647 31.4448 15.9523 31.1593C15.6398 30.8737 15.2319 30.7154 14.8086 30.7155H14.7648C14.7256 30.2878 14.5251 29.891 14.2039 29.6058C13.8827 29.3207 13.465 29.1686 13.0356 29.1804C13.0018 28.7842 12.8283 28.4128 12.5462 28.1326C12.228 27.815 11.7969 27.6366 11.3474 27.6366C10.8979 27.6366 10.4668 27.815 10.1486 28.1326L9.56865 28.7118L5.86741 26.6276L8.56105 19.8116L11.0003 21.2698C11.0645 21.3082 11.136 21.3329 11.2102 21.3421C11.2845 21.3514 11.3598 21.3451 11.4315 21.3237L13.4812 20.7135C13.8236 20.6127 14.1846 20.5911 14.5366 20.6505C14.8886 20.7099 15.2225 20.8487 15.5129 21.0564L15.7961 21.2605L12.9149 23.3986C12.7011 23.5573 12.5272 23.7636 12.407 24.0012C12.2868 24.2387 12.2235 24.501 12.2223 24.7673C12.221 25.0336 12.2818 25.2964 12.3998 25.5351C12.5177 25.7738 12.6897 25.9818 12.9019 26.1425C13.3023 26.4431 13.7842 26.6157 14.2844 26.6376C14.7845 26.6595 15.2797 26.5298 15.7048 26.2654L17.9672 24.8417C18.2303 25.3663 18.7219 26.0793 19.5757 26.5184C20.5653 27.0272 21.7684 27.0401 23.1554 26.5572L26.9645 29.3004C27.0602 29.3695 27.1398 29.4586 27.1977 29.5614C27.2557 29.6643 27.2906 29.7785 27.3001 29.8962C27.3096 30.0138 27.2934 30.1321 27.2527 30.243C27.212 30.3538 27.1478 30.4544 27.0644 30.538V30.5358ZM27.7572 28.5408L23.5536 25.5151C23.4806 25.4627 23.3958 25.4294 23.3067 25.4181C23.2176 25.4068 23.127 25.4179 23.0433 25.4504C21.8431 25.9161 20.8463 25.9535 20.0787 25.5647C19.0625 25.0479 18.7513 23.9182 18.7485 23.9117C18.7275 23.8295 18.6873 23.7534 18.6314 23.6896C18.5754 23.6258 18.5052 23.5761 18.4264 23.5445C18.3476 23.513 18.2624 23.5006 18.1779 23.5082C18.0934 23.5158 18.0118 23.5432 17.9399 23.5883L15.1313 25.3498C14.8913 25.4989 14.6118 25.5719 14.3296 25.559C14.0474 25.5462 13.7756 25.4482 13.5502 25.2779C13.4714 25.2184 13.4075 25.1413 13.3637 25.0527C13.3199 24.9642 13.2973 24.8666 13.2978 24.7678C13.2983 24.669 13.3218 24.5717 13.3665 24.4836C13.4112 24.3955 13.4758 24.319 13.5552 24.2603L18.1936 20.8177C18.4524 20.6262 18.7478 20.4901 19.0615 20.4179C19.3753 20.3456 19.7005 20.3389 20.0169 20.398L24.9385 21.3223C25.0504 21.3437 25.1662 21.3289 25.2691 21.2799L28.256 19.8612L31.0495 26.9302L27.7572 28.5408ZM32.5329 27.7459L28.6987 18.0436L30.011 17.5757L31.7308 22.4736C31.7785 22.6086 31.8778 22.719 32.0069 22.7808C32.136 22.8425 32.2844 22.8504 32.4193 22.8028C32.5543 22.7551 32.6648 22.6558 32.7265 22.5267C32.7882 22.3976 32.7961 22.2492 32.7485 22.1143L31.0236 17.2114L31.9184 16.893L35.5672 26.4336L32.5329 27.7459Z" fill="white"/>
<path d="M18.3977 16.8892C20.0679 16.8892 21.7006 16.3939 23.0893 15.466C24.478 14.5381 25.5603 13.2192 26.1995 11.6762C26.8386 10.1331 27.0059 8.43522 26.68 6.79713C26.3542 5.15904 25.5499 3.65436 24.3689 2.47336C23.1879 1.29237 21.6833 0.4881 20.0452 0.162264C18.4071 -0.163572 16.7091 0.00365891 15.1661 0.642809C13.6231 1.28196 12.3042 2.36432 11.3763 3.75303C10.4484 5.14173 9.95313 6.7744 9.95312 8.44458C9.9556 10.6835 10.8461 12.8299 12.4292 14.4131C14.0123 15.9962 16.1588 16.8867 18.3977 16.8892ZM18.3977 1.07804C19.8547 1.07804 21.2789 1.51008 22.4903 2.31952C23.7018 3.12897 24.646 4.27947 25.2035 5.62553C25.7611 6.97159 25.9069 8.45276 25.6227 9.88173C25.3385 11.3107 24.6369 12.6233 23.6066 13.6535C22.5764 14.6838 21.2638 15.3853 19.8348 15.6696C18.4059 15.9538 16.9247 15.8079 15.5786 15.2504C14.2326 14.6928 13.0821 13.7486 12.2726 12.5372C11.4632 11.3258 11.0312 9.90155 11.0312 8.44458C11.0332 6.4915 11.81 4.619 13.1911 3.23796C14.5721 1.85692 16.4446 1.08013 18.3977 1.07804Z" fill="white"/>
<path d="M18.3971 14.7333C19.6409 14.7333 20.8567 14.3645 21.8909 13.6735C22.925 12.9825 23.731 12.0004 24.207 10.8513C24.6829 9.70221 24.8075 8.43779 24.5648 7.21794C24.3222 5.99809 23.7233 4.87758 22.8438 3.99812C21.9643 3.11865 20.8438 2.51973 19.624 2.27708C18.4041 2.03444 17.1397 2.15897 15.9906 2.63494C14.8416 3.1109 13.8594 3.91692 13.1684 4.95106C12.4774 5.9852 12.1086 7.20102 12.1086 8.44477C12.1105 10.112 12.7737 11.7104 13.9526 12.8893C15.1315 14.0682 16.7299 14.7314 18.3971 14.7333ZM18.3971 3.23428C19.4277 3.23428 20.4351 3.53987 21.2919 4.11241C22.1488 4.68495 22.8166 5.49871 23.211 6.4508C23.6054 7.40289 23.7086 8.45055 23.5075 9.46129C23.3065 10.472 22.8102 11.4004 22.0815 12.1291C21.3528 12.8578 20.4244 13.3541 19.4137 13.5551C18.4029 13.7562 17.3553 13.653 16.4032 13.2586C15.4511 12.8643 14.6373 12.1964 14.0648 11.3396C13.4922 10.4827 13.1867 9.47531 13.1867 8.44477C13.1882 7.06333 13.7376 5.73891 14.7145 4.76208C15.6913 3.78526 17.0157 3.23581 18.3971 3.23428ZM29.245 8.44477C29.245 8.51555 29.259 8.58565 29.286 8.65104C29.3131 8.71644 29.3528 8.77586 29.4029 8.82591C29.4529 8.87596 29.5124 8.91567 29.5778 8.94276C29.6432 8.96984 29.7132 8.98379 29.784 8.98379H32.7709C32.9139 8.98379 33.051 8.927 33.152 8.82591C33.2531 8.72483 33.3099 8.58773 33.3099 8.44477C33.3099 8.30181 33.2531 8.16471 33.152 8.06363C33.051 7.96254 32.9139 7.90575 32.7709 7.90575H29.784C29.6411 7.90575 29.504 7.96254 29.4029 8.06363C29.3018 8.16471 29.245 8.30181 29.245 8.44477ZM28.6643 5.98758C28.7601 5.98832 28.8544 5.96351 28.9374 5.91571L31.1768 4.59979C31.3007 4.52746 31.3908 4.40887 31.4273 4.27011C31.4637 4.13135 31.4436 3.9838 31.3713 3.8599C31.2989 3.73601 31.1803 3.64592 31.0416 3.60946C30.9028 3.57301 30.7553 3.59316 30.6314 3.6655L28.3912 4.98357C28.288 5.04297 28.2074 5.13488 28.1619 5.24493C28.1164 5.35499 28.1087 5.47701 28.1399 5.59193C28.1711 5.70685 28.2395 5.80821 28.3343 5.88017C28.4292 5.95214 28.5452 5.99067 28.6643 5.98973V5.98758ZM28.3912 11.906L30.6314 13.224C30.6927 13.2599 30.7605 13.2832 30.8309 13.2929C30.9013 13.3025 30.9729 13.2981 31.0416 13.2801C31.1103 13.262 31.1748 13.2306 31.2313 13.1876C31.2879 13.1447 31.3354 13.091 31.3713 13.0296C31.4071 12.9683 31.4305 12.9005 31.4401 12.8301C31.4497 12.7597 31.4453 12.6881 31.4273 12.6194C31.4092 12.5507 31.3778 12.4862 31.3349 12.4297C31.2919 12.3731 31.2382 12.3256 31.1768 12.2898L28.9374 10.9746C28.8764 10.9374 28.8085 10.9127 28.7378 10.902C28.6671 10.8913 28.595 10.8947 28.5257 10.9121C28.4563 10.9296 28.3912 10.9606 28.3339 11.0035C28.2767 11.0463 28.2286 11.1001 28.1924 11.1618C28.1561 11.2234 28.1325 11.2916 28.1229 11.3625C28.1133 11.4333 28.1179 11.5054 28.1364 11.5744C28.1549 11.6435 28.187 11.7082 28.2307 11.7647C28.2745 11.8213 28.329 11.8686 28.3912 11.9038V11.906ZM4.02339 8.98379H7.01026C7.15321 8.98379 7.29031 8.927 7.3914 8.82591C7.49248 8.72483 7.54927 8.58773 7.54927 8.44477C7.54927 8.30181 7.49248 8.16471 7.3914 8.06363C7.29031 7.96254 7.15321 7.90575 7.01026 7.90575H4.02339C3.88043 7.90575 3.74333 7.96254 3.64225 8.06363C3.54116 8.16471 3.48438 8.30181 3.48438 8.44477C3.48438 8.58773 3.54116 8.72483 3.64225 8.82591C3.74333 8.927 3.88043 8.98379 4.02339 8.98379ZM5.61744 4.59979L7.85687 5.91499C7.91793 5.95218 7.98578 5.97685 8.05647 5.98756C8.12716 5.99828 8.19927 5.99482 8.26861 5.9774C8.33795 5.95997 8.40313 5.92893 8.46035 5.88607C8.51758 5.84321 8.5657 5.7894 8.60193 5.72777C8.63816 5.66613 8.66177 5.5979 8.67137 5.52706C8.68098 5.45621 8.67639 5.38416 8.65789 5.3151C8.63938 5.24605 8.60732 5.18136 8.56357 5.12481C8.51983 5.06827 8.46527 5.02099 8.40307 4.98573L6.16292 3.6655C6.10158 3.62968 6.03378 3.6063 5.96339 3.59668C5.89301 3.58707 5.82142 3.59141 5.75272 3.60946C5.61396 3.64592 5.49537 3.73601 5.42303 3.8599C5.3507 3.9838 5.33054 4.13135 5.367 4.27011C5.40346 4.40887 5.49355 4.52746 5.61744 4.59979ZM7.85687 10.9767L5.61744 12.2898C5.49355 12.3621 5.40346 12.4807 5.367 12.6194C5.33054 12.7582 5.3507 12.9057 5.42303 13.0296C5.49537 13.1535 5.61396 13.2436 5.75272 13.2801C5.89147 13.3165 6.03903 13.2964 6.16292 13.224L8.40307 11.9081C8.46527 11.8729 8.51983 11.8256 8.56357 11.769C8.60732 11.7125 8.63938 11.6478 8.65789 11.5787C8.67639 11.5097 8.68098 11.4376 8.67137 11.3668C8.66177 11.2959 8.63816 11.2277 8.60193 11.1661C8.5657 11.1045 8.51758 11.0506 8.46035 11.0078C8.40313 10.9649 8.33795 10.9339 8.26861 10.9165C8.19927 10.899 8.12716 10.8956 8.05647 10.9063C7.98578 10.917 7.91793 10.9417 7.85687 10.9789V10.9767Z" fill="#4ABCEB"/>
<path d="M17.1911 10.7905C17.2416 10.8448 17.3027 10.8881 17.3707 10.9178C17.4388 10.9474 17.5121 10.9627 17.5863 10.9627C17.6605 10.9627 17.7339 10.9474 17.8019 10.9178C17.8699 10.8881 17.9311 10.8448 17.9816 10.7905L21.6714 6.8377C21.7197 6.78579 21.7573 6.72487 21.7821 6.65842C21.8069 6.59197 21.8183 6.52129 21.8158 6.45042C21.8132 6.37954 21.7968 6.30986 21.7673 6.24536C21.7378 6.18085 21.696 6.12277 21.644 6.07445C21.5921 6.02613 21.5312 5.9885 21.4648 5.96372C21.3983 5.93895 21.3276 5.9275 21.2568 5.93003C21.1859 5.93257 21.1162 5.94904 21.0517 5.97851C20.9872 6.00797 20.9291 6.04985 20.8808 6.10176L17.5856 9.63196L15.9197 7.84745C15.8221 7.74262 15.6869 7.68085 15.5437 7.67573C15.4006 7.6706 15.2613 7.72255 15.1564 7.82014C15.0516 7.91774 14.9898 8.05297 14.9847 8.19611C14.9796 8.33925 15.0315 8.47856 15.1291 8.58339L17.1911 10.7905Z" fill="#4ABCEB"/>
</svg>
