<svg width="36" height="36" viewBox="0 0 36 36" fill="none" xmlns="http://www.w3.org/2000/svg">
<g clip-path="url(#clip0_662_19578)">
<path d="M30.0031 20.3992V17.9992C30.0031 17.3627 29.7503 16.7523 29.3002 16.3022C28.8501 15.8521 28.2396 15.5992 27.6031 15.5992H3.60313C2.96661 15.5992 2.35616 15.8521 1.90607 16.3022C1.45598 16.7523 1.20313 17.3627 1.20312 17.9992V32.3992C1.20313 33.0357 1.45598 33.6462 1.90607 34.0963C2.35616 34.5464 2.96661 34.7992 3.60313 34.7992H27.6031C28.2396 34.7992 28.8501 34.5464 29.3002 34.0963C29.7503 33.6462 30.0031 33.0357 30.0031 32.3992V29.9992M30.0031 20.3992H20.4031C19.1301 20.3992 17.9092 20.9049 17.009 21.8051C16.1088 22.7053 15.6031 23.9262 15.6031 25.1992C15.6031 26.4723 16.1088 27.6932 17.009 28.5933C17.9092 29.4935 19.1301 29.9992 20.4031 29.9992H30.0031M30.0031 20.3992C31.2762 20.3992 32.4971 20.9049 33.3972 21.8051C34.2974 22.7053 34.8031 23.9262 34.8031 25.1992C34.8031 26.4723 34.2974 27.6932 33.3972 28.5933C32.4971 29.4935 31.2762 29.9992 30.0031 29.9992M8.40313 15.5992V8.39922C8.40313 6.48966 9.16169 4.65831 10.512 3.30805C11.8622 1.95779 13.6936 1.19922 15.6031 1.19922C17.5127 1.19922 19.344 1.95779 20.6943 3.30805C22.0446 4.65831 22.8031 6.48966 22.8031 8.39922V15.5992M28.8031 25.1992H31.2031M24.0031 25.1992H26.4031M19.2031 25.1992H21.6031" stroke="white"/>
</g>
<defs>
<clipPath id="clip0_662_19578">
<rect width="36" height="36" fill="white"/>
</clipPath>
</defs>
</svg>
