<svg width="122" height="36" viewBox="0 0 122 36" fill="none" xmlns="http://www.w3.org/2000/svg">
<rect x="0.45" y="0.45" width="120.6" height="35.1" rx="4.05" fill="black"/>
<rect x="0.45" y="0.45" width="120.6" height="35.1" rx="4.05" stroke="#A6A6A6" stroke-width="0.9"/>
<g filter="url(#filter0_ii_3183_12445)">
<path d="M9.39326 6.78445C9.13136 7.06165 8.97656 7.49185 8.97656 8.04895V27.9533C8.97656 28.5113 9.13136 28.9407 9.39326 29.2179L9.45986 29.2826L20.61 18.1325V18.0012V17.8698L9.45986 6.71875L9.39326 6.78445Z" fill="url(#paint0_linear_3183_12445)"/>
<path d="M24.3255 21.852L20.6094 18.1341V18.0027V17.8713L24.3264 14.1543L24.4101 14.202L28.8138 16.704C30.0711 17.4186 30.0711 18.5877 28.8138 19.3032L24.4101 21.8052L24.3255 21.852Z" fill="url(#paint1_linear_3183_12445)"/>
<g filter="url(#filter1_i_3183_12445)">
<path d="M24.4119 21.8036L20.6103 18.002L9.39453 29.2187C9.80853 29.6579 10.4934 29.7119 11.2647 29.2745L24.4119 21.8036Z" fill="url(#paint2_linear_3183_12445)"/>
</g>
<path d="M24.4119 14.2002L11.2647 6.7302C10.4934 6.2919 9.80853 6.3468 9.39453 6.786L20.6112 18.0027L24.4119 14.2002Z" fill="url(#paint3_linear_3183_12445)"/>
</g>
<path d="M61.3221 19.5754C59.2053 19.5754 57.48 21.1855 57.48 23.4031C57.48 25.6072 59.2053 27.2308 61.3221 27.2308C63.4398 27.2308 65.1651 25.6072 65.1651 23.4031C65.1642 21.1855 63.4389 19.5754 61.3221 19.5754ZM61.3221 25.7242C60.162 25.7242 59.1621 24.7675 59.1621 23.404C59.1621 22.0261 60.1629 21.0838 61.3221 21.0838C62.4822 21.0838 63.4821 22.0261 63.4821 23.404C63.4821 24.7666 62.4822 25.7242 61.3221 25.7242ZM52.9395 19.5754C50.8227 19.5754 49.0974 21.1855 49.0974 23.4031C49.0974 25.6072 50.8227 27.2308 52.9395 27.2308C55.0572 27.2308 56.7825 25.6072 56.7825 23.4031C56.7825 21.1855 55.0572 19.5754 52.9395 19.5754ZM52.9395 25.7242C51.7794 25.7242 50.7795 24.7675 50.7795 23.404C50.7795 22.0261 51.7803 21.0838 52.9395 21.0838C54.0996 21.0838 55.0995 22.0261 55.0995 23.404C55.1004 24.7666 54.0996 25.7242 52.9395 25.7242ZM42.9693 20.7508V22.3744H46.8555C46.7394 23.2879 46.4352 23.9548 45.9708 24.4183C45.4056 24.9835 44.5209 25.6072 42.9693 25.6072C40.5771 25.6072 38.7069 23.6785 38.7069 21.2863C38.7069 18.8941 40.5771 16.9654 42.9693 16.9654C44.2599 16.9654 45.2022 17.473 45.8979 18.1255L47.0436 16.9798C46.0716 16.0519 44.7819 15.3418 42.9693 15.3418C39.6924 15.3418 36.9375 18.0094 36.9375 21.2863C36.9375 24.5632 39.6924 27.2308 42.9693 27.2308C44.7378 27.2308 46.0725 26.6503 47.1156 25.5631C48.1884 24.4903 48.5223 22.9819 48.5223 21.7642C48.5223 21.388 48.4935 21.0397 48.435 20.7499H42.9693V20.7508ZM83.7465 22.0117C83.4279 21.1567 82.4559 19.5754 80.4696 19.5754C78.4977 19.5754 76.8588 21.127 76.8588 23.4031C76.8588 25.5487 78.4833 27.2308 80.6577 27.2308C82.4118 27.2308 83.427 26.158 83.8482 25.5343L82.5432 24.664C82.1085 25.3021 81.5136 25.7224 80.6577 25.7224C79.8027 25.7224 79.1934 25.3309 78.8019 24.5623L83.9202 22.4455L83.7465 22.0117ZM78.5265 23.2879C78.4833 21.8083 79.6722 21.055 80.5281 21.055C81.195 21.055 81.7602 21.3889 81.9492 21.8668L78.5265 23.2879ZM74.3658 26.9995H76.047V15.7486H74.3658V26.9995ZM71.61 20.4313H71.5524C71.1753 19.9813 70.4499 19.5754 69.5373 19.5754C67.623 19.5754 65.8689 21.2575 65.8689 23.4184C65.8689 25.564 67.623 27.2317 69.5373 27.2317C70.4508 27.2317 71.1753 26.8258 71.5524 26.3623H71.61V26.9131C71.61 28.3774 70.827 29.1604 69.5661 29.1604C68.5365 29.1604 67.8984 28.4215 67.6374 27.7978L66.1731 28.4071C66.5934 29.4214 67.7094 30.6688 69.5661 30.6688C71.538 30.6688 73.2057 29.5087 73.2057 26.6809V19.8085H71.6109V20.4313H71.61ZM69.6822 25.7242C68.5221 25.7242 67.551 24.7522 67.551 23.4184C67.551 22.0693 68.5221 21.0838 69.6822 21.0838C70.827 21.0838 71.7261 22.0693 71.7261 23.4184C71.7261 24.7522 70.827 25.7242 69.6822 25.7242ZM91.6251 15.7486H87.6012V26.9995H89.2797V22.7371H91.6242C93.4854 22.7371 95.316 21.3898 95.316 19.2433C95.316 17.0968 93.4863 15.7486 91.6251 15.7486ZM91.6683 21.1711H89.2797V17.3146H91.6683C92.9238 17.3146 93.6366 18.3541 93.6366 19.2433C93.6366 20.1145 92.9238 21.1711 91.6683 21.1711ZM102.047 19.5556C100.831 19.5556 99.5721 20.0911 99.051 21.2782L100.541 21.9001C100.86 21.2782 101.454 21.0748 102.076 21.0748C102.944 21.0748 103.827 21.5959 103.842 22.522V22.6381C103.537 22.4644 102.886 22.2043 102.09 22.2043C100.484 22.2043 98.8476 23.0872 98.8476 24.7369C98.8476 26.2426 100.165 27.2119 101.641 27.2119C102.77 27.2119 103.393 26.7052 103.783 26.1112H103.841V26.9797H105.463V22.666C105.464 20.6698 103.971 19.5556 102.047 19.5556ZM101.844 25.7215C101.295 25.7215 100.527 25.4461 100.527 24.7657C100.527 23.8972 101.483 23.5642 102.308 23.5642C103.045 23.5642 103.393 23.7235 103.842 23.9404C103.711 24.9835 102.814 25.7215 101.844 25.7215ZM111.368 19.8013L109.443 24.6793H109.386L107.388 19.8013H105.579L108.575 26.6188L106.867 30.4114H108.618L113.236 19.8013H111.368ZM96.243 26.9995H97.9215V15.7486H96.243V26.9995Z" fill="white"/>
<path d="M42.6781 9.21789C42.6781 9.97209 42.4549 10.5724 42.0076 11.0206C41.5 11.5534 40.8377 11.8198 40.0241 11.8198C39.2447 11.8198 38.5814 11.5498 38.0369 11.0098C37.4915 10.4689 37.2188 9.79929 37.2188 9.00009C37.2188 8.19999 37.4915 7.53039 38.0369 6.99039C38.5814 6.44949 39.2447 6.17949 40.0241 6.17949C40.4111 6.17949 40.7809 6.25509 41.1319 6.40539C41.4839 6.55659 41.7655 6.75729 41.9761 7.00839L41.5018 7.48359C41.1445 7.05609 40.6522 6.84279 40.0231 6.84279C39.4543 6.84279 38.9629 7.04259 38.548 7.44219C38.1331 7.84179 37.9261 8.36109 37.9261 8.99919C37.9261 9.63729 38.1331 10.1566 38.548 10.5562C38.9629 10.9558 39.4543 11.1556 40.0231 11.1556C40.6261 11.1556 41.1293 10.9549 41.5315 10.5526C41.7926 10.2907 41.9437 9.92619 41.9842 9.45909H40.0231V8.81019H42.6394C42.6664 8.95149 42.6781 9.08739 42.6781 9.21789Z" fill="white"/>
<path d="M46.8272 6.96254H44.3684V8.67434H46.586V9.32324H44.3684V11.035H46.8272V11.6992H43.6745V6.29924H46.8272V6.96254Z" fill="white"/>
<path d="M49.753 11.6992H49.0591V6.96254H47.5507V6.29924H51.2614V6.96254H49.753V11.6992Z" fill="white"/>
<path d="M53.9461 11.6992V6.29924H54.64V11.6992H53.9461Z" fill="white"/>
<path d="M57.7172 11.6992H57.0233V6.96254H55.5149V6.29924H59.2256V6.96254H57.7172V11.6992Z" fill="white"/>
<path d="M66.2499 11.0017C65.7189 11.5471 65.0592 11.8198 64.2699 11.8198C63.4806 11.8198 62.8209 11.5471 62.2908 11.0017C61.7598 10.4563 61.4952 9.78853 61.4952 8.99923C61.4952 8.20993 61.7598 7.54213 62.2908 6.99673C62.8209 6.45133 63.4806 6.17773 64.2699 6.17773C65.0547 6.17773 65.7135 6.45223 66.2463 7.00033C66.7791 7.54843 67.0455 8.21443 67.0455 8.99923C67.0455 9.78853 66.78 10.4563 66.2499 11.0017ZM62.8029 10.549C63.2025 10.954 63.6912 11.1556 64.2699 11.1556C64.8486 11.1556 65.3382 10.9531 65.7369 10.549C66.1365 10.144 66.3372 9.62743 66.3372 8.99923C66.3372 8.37103 66.1365 7.85443 65.7369 7.44943C65.3382 7.04443 64.8486 6.84283 64.2699 6.84283C63.6912 6.84283 63.2025 7.04533 62.8029 7.44943C62.4042 7.85443 62.2035 8.37103 62.2035 8.99923C62.2035 9.62743 62.4042 10.144 62.8029 10.549Z" fill="white"/>
<path d="M68.0194 11.6992V6.29924H68.8636L71.488 10.4995H71.5177L71.488 9.45914V6.29924H72.1819V11.6992H71.4574L68.7115 7.29464H68.6818L68.7115 8.33504V11.6992H68.0194Z" fill="white"/>
<path d="M42.6781 9.21789C42.6781 9.97209 42.4549 10.5724 42.0076 11.0206C41.5 11.5534 40.8377 11.8198 40.0241 11.8198C39.2447 11.8198 38.5814 11.5498 38.0369 11.0098C37.4915 10.4689 37.2188 9.79929 37.2188 9.00009C37.2188 8.19999 37.4915 7.53039 38.0369 6.99039C38.5814 6.44949 39.2447 6.17949 40.0241 6.17949C40.4111 6.17949 40.7809 6.25509 41.1319 6.40539C41.4839 6.55659 41.7655 6.75729 41.9761 7.00839L41.5018 7.48359C41.1445 7.05609 40.6522 6.84279 40.0231 6.84279C39.4543 6.84279 38.9629 7.04259 38.548 7.44219C38.1331 7.84179 37.9261 8.36109 37.9261 8.99919C37.9261 9.63729 38.1331 10.1566 38.548 10.5562C38.9629 10.9558 39.4543 11.1556 40.0231 11.1556C40.6261 11.1556 41.1293 10.9549 41.5315 10.5526C41.7926 10.2907 41.9437 9.92619 41.9842 9.45909H40.0231V8.81019H42.6394C42.6664 8.95149 42.6781 9.08739 42.6781 9.21789Z" stroke="white" stroke-width="0.18" stroke-miterlimit="10"/>
<path d="M46.8272 6.96254H44.3684V8.67434H46.586V9.32324H44.3684V11.035H46.8272V11.6992H43.6745V6.29924H46.8272V6.96254Z" stroke="white" stroke-width="0.18" stroke-miterlimit="10"/>
<path d="M49.753 11.6992H49.0591V6.96254H47.5507V6.29924H51.2614V6.96254H49.753V11.6992Z" stroke="white" stroke-width="0.18" stroke-miterlimit="10"/>
<path d="M53.9461 11.6992V6.29924H54.64V11.6992H53.9461Z" stroke="white" stroke-width="0.18" stroke-miterlimit="10"/>
<path d="M57.7172 11.6992H57.0233V6.96254H55.5149V6.29924H59.2256V6.96254H57.7172V11.6992Z" stroke="white" stroke-width="0.18" stroke-miterlimit="10"/>
<path d="M66.2499 11.0017C65.7189 11.5471 65.0592 11.8198 64.2699 11.8198C63.4806 11.8198 62.8209 11.5471 62.2908 11.0017C61.7598 10.4563 61.4952 9.78853 61.4952 8.99923C61.4952 8.20993 61.7598 7.54213 62.2908 6.99673C62.8209 6.45133 63.4806 6.17773 64.2699 6.17773C65.0547 6.17773 65.7135 6.45223 66.2463 7.00033C66.7791 7.54843 67.0455 8.21443 67.0455 8.99923C67.0455 9.78853 66.78 10.4563 66.2499 11.0017ZM62.8029 10.549C63.2025 10.954 63.6912 11.1556 64.2699 11.1556C64.8486 11.1556 65.3382 10.9531 65.7369 10.549C66.1365 10.144 66.3372 9.62743 66.3372 8.99923C66.3372 8.37103 66.1365 7.85443 65.7369 7.44943C65.3382 7.04443 64.8486 6.84283 64.2699 6.84283C63.6912 6.84283 63.2025 7.04533 62.8029 7.44943C62.4042 7.85443 62.2035 8.37103 62.2035 8.99923C62.2035 9.62743 62.4042 10.144 62.8029 10.549Z" stroke="white" stroke-width="0.18" stroke-miterlimit="10"/>
<path d="M68.0194 11.6992V6.29924H68.8636L71.488 10.4995H71.5177L71.488 9.45914V6.29924H72.1819V11.6992H71.4574L68.7115 7.29464H68.6818L68.7115 8.33504V11.6992H68.0194Z" stroke="white" stroke-width="0.18" stroke-miterlimit="10"/>
<defs>
<filter id="filter0_ii_3183_12445" x="8.97656" y="6.42773" width="20.7812" height="23.1484" filterUnits="userSpaceOnUse" color-interpolation-filters="sRGB">
<feFlood flood-opacity="0" result="BackgroundImageFix"/>
<feBlend mode="normal" in="SourceGraphic" in2="BackgroundImageFix" result="shape"/>
<feColorMatrix in="SourceAlpha" type="matrix" values="0 0 0 0 0 0 0 0 0 0 0 0 0 0 0 0 0 0 127 0" result="hardAlpha"/>
<feOffset dy="-0.135"/>
<feComposite in2="hardAlpha" operator="arithmetic" k2="-1" k3="1"/>
<feColorMatrix type="matrix" values="0 0 0 0 0 0 0 0 0 0 0 0 0 0 0 0 0 0 0.12 0"/>
<feBlend mode="normal" in2="shape" result="effect1_innerShadow_3183_12445"/>
<feColorMatrix in="SourceAlpha" type="matrix" values="0 0 0 0 0 0 0 0 0 0 0 0 0 0 0 0 0 0 127 0" result="hardAlpha"/>
<feOffset dy="0.135"/>
<feComposite in2="hardAlpha" operator="arithmetic" k2="-1" k3="1"/>
<feColorMatrix type="matrix" values="0 0 0 0 1 0 0 0 0 1 0 0 0 0 1 0 0 0 0.25 0"/>
<feBlend mode="normal" in2="effect1_innerShadow_3183_12445" result="effect2_innerShadow_3183_12445"/>
</filter>
<filter id="filter1_i_3183_12445" x="9.39453" y="18.002" width="15.0156" height="11.5742" filterUnits="userSpaceOnUse" color-interpolation-filters="sRGB">
<feFlood flood-opacity="0" result="BackgroundImageFix"/>
<feBlend mode="normal" in="SourceGraphic" in2="BackgroundImageFix" result="shape"/>
<feColorMatrix in="SourceAlpha" type="matrix" values="0 0 0 0 0 0 0 0 0 0 0 0 0 0 0 0 0 0 127 0" result="hardAlpha"/>
<feOffset dy="-0.135"/>
<feComposite in2="hardAlpha" operator="arithmetic" k2="-1" k3="1"/>
<feColorMatrix type="matrix" values="0 0 0 0 0 0 0 0 0 0 0 0 0 0 0 0 0 0 0.08 0"/>
<feBlend mode="normal" in2="shape" result="effect1_innerShadow_3183_12445"/>
</filter>
<linearGradient id="paint0_linear_3183_12445" x1="19.6216" y1="7.83835" x2="4.51778" y2="22.9422" gradientUnits="userSpaceOnUse">
<stop stop-color="#00A0FF"/>
<stop offset="0.0066" stop-color="#00A1FF"/>
<stop offset="0.2601" stop-color="#00BEFF"/>
<stop offset="0.5122" stop-color="#00D2FF"/>
<stop offset="0.7604" stop-color="#00DFFF"/>
<stop offset="1" stop-color="#00E3FF"/>
</linearGradient>
<linearGradient id="paint1_linear_3183_12445" x1="30.4504" y1="18.0027" x2="8.67412" y2="18.0027" gradientUnits="userSpaceOnUse">
<stop stop-color="#FFE000"/>
<stop offset="0.4087" stop-color="#FFBD00"/>
<stop offset="0.7754" stop-color="#FFA500"/>
<stop offset="1" stop-color="#FF9C00"/>
</linearGradient>
<linearGradient id="paint2_linear_3183_12445" x1="22.3474" y1="20.0665" x2="1.86477" y2="40.5491" gradientUnits="userSpaceOnUse">
<stop stop-color="#FF3A44"/>
<stop offset="1" stop-color="#C31162"/>
</linearGradient>
<linearGradient id="paint3_linear_3183_12445" x1="6.56979" y1="0.160023" x2="15.7159" y2="9.30609" gradientUnits="userSpaceOnUse">
<stop stop-color="#32A071"/>
<stop offset="0.0685" stop-color="#2DA771"/>
<stop offset="0.4762" stop-color="#15CF74"/>
<stop offset="0.8009" stop-color="#06E775"/>
<stop offset="1" stop-color="#00F076"/>
</linearGradient>
</defs>
</svg>
