<svg width="49" height="36" viewBox="0 0 49 36" fill="none" xmlns="http://www.w3.org/2000/svg">
<mask id="mask0_875_200" style="mask-type:luminance" maskUnits="userSpaceOnUse" x="0" y="0" width="49" height="36">
<path d="M0.699951 0H48.7V35.4H0.699951V0Z" fill="white"/>
</mask>
<g mask="url(#mask0_875_200)">
<path d="M43.642 32.6111L43.642 32.611L43.6402 32.6165C43.2463 33.7987 42.1268 34.6517 40.8078 34.6517H4.19075C2.53932 34.6517 1.19995 33.3138 1.19995 31.6633V11.8908C1.19995 10.5744 2.05208 9.45434 3.23582 9.05824L3.23583 9.05826L3.23967 9.05694C3.53814 8.95436 3.85594 8.9 4.19075 8.9L40.8078 8.9L40.808 8.9C42.4595 8.89933 43.7986 10.2389 43.7986 11.89V31.6625C43.7986 31.9961 43.7442 32.3159 43.642 32.6111Z" fill="white" stroke="#BF9BFF"/>
<path d="M11.8402 22.1644H4.88946C4.54455 22.1644 4.26538 21.8852 4.26538 21.5403V15.4805C4.26538 15.1356 4.54455 14.8564 4.88946 14.8564H11.8402C12.185 14.8564 12.4642 15.1356 12.4642 15.4805V21.5403C12.4642 21.8852 12.185 22.1644 11.8402 22.1644Z" fill="#FF5900"/>
<path d="M7.9233 28.8H4.87665C4.5582 28.8 4.29996 28.397 4.29996 27.9C4.29996 27.403 4.5582 27 4.87665 27H7.9233C8.24172 27 8.49996 27.403 8.49996 27.9C8.49954 28.397 8.24172 28.8 7.9233 28.8Z" fill="#FF5900"/>
<path d="M13.3232 28.8H10.2766C9.95819 28.8 9.69995 28.397 9.69995 27.9C9.69995 27.403 9.95819 27 10.2766 27H13.3232C13.6417 27 13.9 27.403 13.9 27.9C13.9 28.397 13.6417 28.8 13.3232 28.8Z" fill="#FF5900"/>
<path d="M19.3232 28.8H16.2767C15.9582 28.8 15.7 28.397 15.7 27.9C15.7 27.403 15.9582 27 16.2767 27H19.3232C19.6417 27 19.9 27.403 19.9 27.9C19.9 28.397 19.6417 28.8 19.3232 28.8Z" fill="#FF5900"/>
<path d="M24.7232 28.8H21.6767C21.3582 28.8 21.0999 28.397 21.0999 27.9C21.0999 27.403 21.3582 27 21.6767 27H24.7232C25.0417 27 25.2999 27.403 25.2999 27.9C25.2995 28.397 25.0417 28.8 24.7232 28.8Z" fill="#FF5900"/>
<path fill-rule="evenodd" clip-rule="evenodd" d="M11.0521 16.899H12.465V16.6793H11.0521C10.8031 16.6793 10.5997 16.8827 10.5997 17.1333V18.4H9.72815V17.6074C9.72815 17.3545 9.52247 17.1496 9.27035 17.1496H8.47535V14.8559H8.25575V17.1496H7.48085C7.22879 17.1496 7.02305 17.3552 7.02305 17.6074V18.4H6.13065V17.1333C6.13065 16.8827 5.92804 16.6793 5.67825 16.6793H4.26538V16.899H5.67825C5.80662 16.899 5.91102 17.0042 5.91102 17.1341V19.8879C5.91102 20.0178 5.80662 20.123 5.67825 20.123H4.26538V20.3426H5.67825C5.92727 20.3426 6.13065 20.1392 6.13065 19.8887V18.6212H7.02305V19.4138C7.02305 19.6667 7.22879 19.8724 7.48085 19.8724H8.25575V22.1662H8.47535V19.8724H9.27035C9.52247 19.8724 9.72815 19.6667 9.72815 19.4138V18.6212H10.5997V19.8887C10.5997 20.1392 10.8023 20.3426 11.0521 20.3426H12.465V20.123H11.0521C10.9237 20.123 10.8193 20.0178 10.8193 19.8879V17.1341C10.8193 17.005 10.9237 16.899 11.0521 16.899ZM9.50855 19.4131C9.50855 19.5445 9.40181 19.652 9.26957 19.652H7.48013C7.34861 19.652 7.24115 19.5445 7.24115 19.4131V17.6089C7.24115 17.4775 7.34789 17.3699 7.48013 17.3699H9.26957C9.40103 17.3699 9.50855 17.4775 9.50855 17.6089V19.4131Z" fill="white" stroke="white" stroke-width="0.1"/>
<path d="M34.075 24.425C34.5007 24.425 34.9042 24.5173 35.2672 24.683C34.6359 25.3721 34.25 26.291 34.25 27.3C34.25 28.309 34.6359 29.228 35.2672 29.9171C34.9042 30.0827 34.5007 30.175 34.075 30.175C32.4871 30.175 31.2 28.8878 31.2 27.3C31.2 25.7122 32.4871 24.425 34.075 24.425Z" stroke="#BF9BFF"/>
<path d="M37.95 27.3C37.95 26.291 37.564 25.3721 36.9327 24.683C37.2957 24.5173 37.6992 24.425 38.125 24.425C39.7128 24.425 41 25.7122 41 27.3C41 28.8878 39.7128 30.175 38.125 30.175C37.6992 30.175 37.2957 30.0827 36.9327 29.9171C37.564 29.228 37.95 28.309 37.95 27.3Z" stroke="#BF9BFF"/>
<path fill-rule="evenodd" clip-rule="evenodd" d="M36.1 30.0002C36.9197 29.3845 37.45 28.4041 37.45 27.2999C37.45 26.1958 36.9197 25.2154 36.1 24.5997C35.2802 25.2154 34.75 26.1958 34.75 27.2999C34.75 28.4041 35.2802 29.3845 36.1 30.0002Z" fill="#FF5900"/>
<path fill-rule="evenodd" clip-rule="evenodd" d="M33.83 8.73042L33.8309 8.73168C37.2232 8.80866 39.9585 11.5454 40.0334 14.938C40.1871 14.463 40.2704 13.9568 40.2704 13.4305C40.2704 10.7043 38.0604 8.49438 35.3343 8.49438C34.8092 8.49438 34.304 8.57736 33.83 8.73042ZM35.2829 5.54795C39.6364 5.54795 43.1658 9.0771 43.1658 13.4308C43.1658 17.7842 39.6366 21.3136 35.2829 21.3136C30.9293 21.3136 27.4001 17.7844 27.4001 13.4308C27.4001 9.07734 30.9293 5.54795 35.2829 5.54795Z" fill="url(#paint0_linear_875_200)" stroke="#FF5900"/>
<path fill-rule="evenodd" clip-rule="evenodd" d="M33.8089 5.05416L33.2195 5.15614L33.4902 4.62276C34.7907 2.06095 37.4448 0.299999 40.5171 0.299999C44.8706 0.3 48.3999 3.82915 48.3999 8.1828C48.3999 11.255 46.6388 13.9089 44.0773 15.2096L43.5438 15.4805L43.6458 14.891C43.7286 14.4121 43.78 13.9267 43.78 13.4313C43.78 8.73084 39.9694 4.92041 35.2691 4.92041H35.1876C34.7202 4.92566 34.2617 4.97581 33.8089 5.05416ZM40.5685 3.2465C40.0421 3.2465 39.5357 3.3299 39.0607 3.48367C42.4551 3.55856 45.1926 6.29652 45.2673 9.69066C45.4197 9.22026 45.503 8.71908 45.5046 8.19816V8.18262C45.5046 5.45644 43.2945 3.2465 40.5685 3.2465Z" fill="url(#paint1_linear_875_200)" stroke="#FF5900"/>
</g>
<defs>
<linearGradient id="paint0_linear_875_200" x1="35.2829" y1="5.84795" x2="34.8022" y2="33.8416" gradientUnits="userSpaceOnUse">
<stop stop-color="#CDE1FF"/>
<stop offset="0.473958" stop-color="#BF9BFF"/>
<stop offset="1" stop-color="#6E1DFF"/>
</linearGradient>
<linearGradient id="paint1_linear_875_200" x1="40.9289" y1="0.599999" x2="40.4742" y2="27.0736" gradientUnits="userSpaceOnUse">
<stop stop-color="#CDE1FF"/>
<stop offset="0.473958" stop-color="#BF9BFF"/>
<stop offset="1" stop-color="#6E1DFF"/>
</linearGradient>
</defs>
</svg>
