<svg width="46" height="38" viewBox="0 0 46 38" fill="none" xmlns="http://www.w3.org/2000/svg">
<path fill-rule="evenodd" clip-rule="evenodd" d="M21.7269 25.9458H0H4.02352L4.14732 1H21.4794L21.7269 26.7505V25.9458Z" stroke="#C8D0DB" stroke-linecap="square"/>
<path fill-rule="evenodd" clip-rule="evenodd" d="M7.10938 7.60352H9.74012V10.2343H7.10938V7.60352Z" stroke="#C8D0DB" stroke-linecap="round" stroke-linejoin="round"/>
<path fill-rule="evenodd" clip-rule="evenodd" d="M15.875 7.60352H18.5058V10.2343H15.875V7.60352Z" stroke="#C8D0DB" stroke-linecap="round" stroke-linejoin="round"/>
<path fill-rule="evenodd" clip-rule="evenodd" d="M7.10938 16.373H9.74012V19.0038H7.10938V16.373Z" stroke="#C8D0DB" stroke-linecap="round" stroke-linejoin="round"/>
<path d="M15.875 16.373V19.0038H18.5058V16.373H17.6288" stroke="#C8D0DB" stroke-linecap="round" stroke-linejoin="round"/>
<path d="M11.4922 9.79581V7.60352H14.123" stroke="#C8D0DB" stroke-linecap="round" stroke-linejoin="round"/>
<path d="M14.125 9.35742V12.4266" stroke="#C8D0DB" stroke-linecap="round" stroke-linejoin="round"/>
<path d="M7.10938 14.6181H11.494V12.4258" stroke="#C8D0DB" stroke-linecap="round" stroke-linejoin="round"/>
<path d="M11.4922 16.373V19.0038H14.123" stroke="#C8D0DB" stroke-linecap="round" stroke-linejoin="round"/>
<path d="M13.25 16.373H14.1269" stroke="#C8D0DB" stroke-linecap="round" stroke-linejoin="round"/>
<path d="M7.10938 11.9883H9.74012" stroke="#C8D0DB" stroke-linecap="round" stroke-linejoin="round"/>
<path d="M18.5058 11.9883H15.875V12.8652" stroke="#C8D0DB" stroke-linecap="round" stroke-linejoin="round"/>
<path d="M13.25 14.6191H18.5115" stroke="#C8D0DB" stroke-linecap="round" stroke-linejoin="round"/>
<path d="M45.1374 36.9996L41.8213 32.357V26.3881C41.8771 24.0296 39.061 21.9272 36.5156 19.7559" stroke="#C8D0DB" stroke-linecap="round" stroke-linejoin="round"/>
<path d="M36.9156 29.0409L33.3475 25.3694C32.5392 24.8222 31.4791 24.8222 30.6708 25.3694C30.4064 25.6329 30.2578 25.9908 30.2578 26.3642C30.2578 26.7376 30.4064 27.0954 30.6708 27.3589L34.9008 31.6938V33.6835C34.9008 34.9582 36.9714 36.9996 36.9714 36.9996" stroke="#C8D0DB" stroke-linecap="round" stroke-linejoin="round"/>
<path d="M31.7721 30.368H22.357C21.9571 30.368 21.6328 30.0711 21.6328 29.7047V7.1554C21.6328 6.78912 21.9571 6.49219 22.357 6.49219H35.3932C35.7932 6.49219 36.1175 6.78912 36.1175 7.1554V23.7358" stroke="#C8D0DB" stroke-linecap="round" stroke-linejoin="round"/>
<path fill-rule="evenodd" clip-rule="evenodd" d="M24.8594 13.834H26.6476V15.6222H24.8594V13.834Z" stroke="#C8D0DB" stroke-linecap="round" stroke-linejoin="round"/>
<path fill-rule="evenodd" clip-rule="evenodd" d="M24.8594 20.0918H26.6476V21.88H24.8594V20.0918Z" stroke="#C8D0DB" stroke-linecap="round" stroke-linejoin="round"/>
<path fill-rule="evenodd" clip-rule="evenodd" d="M31.1172 13.834H32.9054V15.6222H31.1172V13.834Z" stroke="#C8D0DB" stroke-linecap="round" stroke-linejoin="round"/>
<path d="M24.8594 18.3047H28.4358V19.1988" stroke="#C8D0DB" stroke-linecap="round" stroke-linejoin="round"/>
<path d="M30.2188 19.1992V21.8816H32.9011V19.1992H32.007" stroke="#C8D0DB" stroke-linecap="round" stroke-linejoin="round"/>
<path d="M28.4375 20.9863V21.8804" stroke="#C8D0DB" stroke-linecap="round" stroke-linejoin="round"/>
<path d="M28.4375 13.834V16.5163H29.3316" stroke="#C8D0DB" stroke-linecap="round" stroke-linejoin="round"/>
<path d="M31.1172 17.4102H32.9054" stroke="#C8D0DB" stroke-linecap="round" stroke-linejoin="round"/>
</svg>
