<svg width="48" height="48" viewBox="0 0 48 48" fill="none" xmlns="http://www.w3.org/2000/svg">
<rect x="0.5" y="0.5" width="47" height="47" rx="23.5" stroke="#D3D3D3"/>
<path d="M22.9591 31C22.8657 31 22.6524 30.9867 22.3191 30.96C21.9857 30.92 21.5924 30.88 21.1391 30.84C20.6857 30.7867 20.2257 30.7333 19.7591 30.68C19.3057 30.6133 18.9057 30.5533 18.5591 30.5C18.2124 30.4467 17.9857 30.4 17.8791 30.36C17.8791 30.2133 17.8924 30.0667 17.9191 29.92C17.9591 29.7733 17.9991 29.6667 18.0391 29.6L18.6191 29.52C18.8191 29.4933 18.9791 29.4067 19.0991 29.26C19.2324 29.1 19.3324 28.88 19.3991 28.6C19.4657 28.32 19.4991 27.9867 19.4991 27.6V19.8C19.4991 19.36 19.5257 19.0333 19.5791 18.82C19.6324 18.6067 19.6857 18.4667 19.7391 18.4C19.8057 18.3333 19.8324 18.3 19.8191 18.3H18.0991C18.0591 18.2333 18.0124 18.12 17.9591 17.96C17.9057 17.8 17.8724 17.6533 17.8591 17.52C17.9391 17.4267 18.0591 17.34 18.2191 17.26C18.3924 17.1667 18.5591 17.0867 18.7191 17.02C18.8924 16.9533 19.0124 16.92 19.0791 16.92H26.8191C27.0591 16.96 27.3457 17.0533 27.6791 17.2C28.0257 17.3467 28.3524 17.5 28.6591 17.66C28.9791 17.82 29.2124 17.96 29.3591 18.08C29.5457 18.4 29.6791 18.78 29.7591 19.22C29.8391 19.66 29.8791 20.12 29.8791 20.6C29.8791 21.0933 29.8457 21.48 29.7791 21.76C29.7124 22.0267 29.6324 22.24 29.5391 22.4C29.4591 22.56 29.3724 22.72 29.2791 22.88C29.1324 23.0667 28.9324 23.26 28.6791 23.46C28.4391 23.6467 28.1857 23.8267 27.9191 24C27.6524 24.16 27.3991 24.2933 27.1591 24.4V24.5C27.4924 24.6467 27.7724 24.84 27.9991 25.08C28.2257 25.32 28.4391 25.7067 28.6391 26.24L29.2791 27.94C29.4657 28.4333 29.6457 28.7667 29.8191 28.94C29.9924 29.1 30.1524 29.1867 30.2991 29.2C30.4591 29.2 30.5991 29.2 30.7191 29.2H31.4391C31.5057 29.2533 31.5791 29.38 31.6591 29.58C31.7391 29.7667 31.7791 29.98 31.7791 30.22C31.4991 30.3667 31.1857 30.5 30.8391 30.62C30.5057 30.74 30.1791 30.8333 29.8591 30.9C29.5524 30.9667 29.2857 31 29.0591 31C28.2057 31 27.5391 30.8267 27.0591 30.48C26.5924 30.12 26.2457 29.58 26.0191 28.86L24.8991 25.46C24.8457 25.26 24.7457 25.1067 24.5991 25C24.4657 24.8933 24.2657 24.84 23.9991 24.84H22.9591V28.04C22.9591 28.3733 22.9191 28.6533 22.8391 28.88C22.7724 29.1067 22.6991 29.26 22.6191 29.34L24.6391 29.62C24.6657 29.6867 24.6991 29.78 24.7391 29.9C24.7791 30.02 24.8057 30.1733 24.8191 30.36C24.6057 30.5333 24.3057 30.6867 23.9191 30.82C23.5324 30.94 23.2124 31 22.9591 31ZM22.9591 23.38C23.3991 23.3667 23.8057 23.36 24.1791 23.36C24.5524 23.36 24.9057 23.3533 25.2391 23.34C25.5857 23.3133 25.9057 23.28 26.1991 23.24C26.3057 23.0667 26.4124 22.8 26.5191 22.44C26.6391 22.08 26.6991 21.5467 26.6991 20.84C26.6991 20.4133 26.6524 20.0067 26.5591 19.62C26.4791 19.22 26.3391 18.8933 26.1391 18.64C25.9257 18.5867 25.6457 18.5467 25.2991 18.52C24.9657 18.4933 24.6591 18.4733 24.3791 18.46C24.1124 18.4333 23.9657 18.42 23.9391 18.42C23.4724 18.42 23.1924 18.54 23.0991 18.78C23.0057 19.02 22.9591 19.34 22.9591 19.74V23.38Z" fill="#D3D3D3"/>
</svg>
