<svg width="30" height="29" viewBox="0 0 30 29" fill="none" xmlns="http://www.w3.org/2000/svg">
<path d="M9.30078 2.45215L10.9312 4.08258" stroke="#332977" stroke-width="2" stroke-linecap="round" stroke-linejoin="round"/>
<path d="M11.418 3.43066L22.0973 8.40349" stroke="#332977" stroke-width="2" stroke-linecap="round" stroke-linejoin="round" stroke-dasharray="1.92 1.92"/>
<path d="M22.832 8.72852L24.4624 10.359" stroke="#332977" stroke-width="2" stroke-linecap="round" stroke-linejoin="round"/>
<path d="M6.60938 9.21875L8.23981 10.8492" stroke="#332977" stroke-width="2" stroke-linecap="round" stroke-linejoin="round"/>
<path d="M8.80859 10.3594L19.4879 15.9029" stroke="#332977" stroke-width="2" stroke-linecap="round" stroke-linejoin="round" stroke-dasharray="1.98 1.98"/>
<path d="M20.2227 16.3105L21.8531 17.941" stroke="#332977" stroke-width="2" stroke-linecap="round" stroke-linejoin="round"/>
<path d="M8.89062 26.0963L10.5211 24.4658" stroke="#332977" stroke-width="2" stroke-linecap="round" stroke-linejoin="round"/>
<path d="M11.1719 23.8136L22.5034 18.8408" stroke="#332977" stroke-width="2" stroke-linecap="round" stroke-linejoin="round" stroke-dasharray="2.02 2.02"/>
<path d="M23.2383 19.8199L24.8687 18.1895" stroke="#332977" stroke-width="2" stroke-linecap="round" stroke-linejoin="round"/>
<path d="M6.19922 19.9009L7.82965 18.2705" stroke="#332977" stroke-width="2" stroke-linecap="round" stroke-linejoin="round"/>
<path d="M8.39844 17.6183L19.7299 12.6455" stroke="#332977" stroke-width="2" stroke-linecap="round" stroke-linejoin="round" stroke-dasharray="2.03 2.03"/>
<path d="M20.5469 13.5416L22.1773 11.9111" stroke="#332977" stroke-width="2" stroke-linecap="round" stroke-linejoin="round"/>
<path fill-rule="evenodd" clip-rule="evenodd" d="M26.6644 13.0526C26.5014 12.7265 26.1753 12.4004 25.8492 12.2373C25.6861 12.1558 25.4416 11.9928 25.2785 11.9928C24.8709 11.9113 24.5448 11.9113 24.1372 11.9928C23.8927 12.0743 23.6481 12.1558 23.4851 12.2373C23.159 12.4004 22.8329 12.7265 22.6698 13.0526C22.4253 13.4602 22.3438 13.8678 22.3438 14.2754C22.3438 14.683 22.4253 15.0906 22.6698 15.4167C22.9144 15.7428 23.159 16.0689 23.5666 16.3134C23.8111 16.395 23.9742 16.558 24.2188 16.558C24.6264 16.6395 24.9524 16.6395 25.3601 16.558C25.6046 16.4765 25.7677 16.395 26.0122 16.3134C26.5014 15.9874 26.909 15.4982 27.072 14.9276C27.072 14.1939 26.9905 13.5417 26.6644 13.0526ZM26.4198 14.683C26.3383 15.1721 26.0122 15.4982 25.6046 15.8243C25.4415 15.9058 25.2785 15.9874 25.1155 16.0689C24.7894 16.1504 24.5448 16.1504 24.2187 16.0689C24.0557 16.0689 23.8926 15.9874 23.7296 15.9058C23.322 15.6613 23.0774 15.3352 22.9144 14.9276C22.7513 14.52 22.7513 14.1124 22.9144 13.7047C23.0774 13.2971 23.322 12.971 23.7296 12.7265C23.8926 12.645 24.0557 12.5634 24.2187 12.5634C24.3818 12.5634 24.4633 12.4819 24.6263 12.4819C24.7894 12.4819 24.9524 12.4819 25.1155 12.5634C25.2785 12.645 25.4415 12.645 25.6046 12.808C26.1752 13.1341 26.5013 13.7047 26.5013 14.3569C26.4198 14.3569 26.4198 14.52 26.4198 14.683Z" fill="#FF5900"/>
<path fill-rule="evenodd" clip-rule="evenodd" d="M28.8623 17.2102L28.047 16.395C28.2916 15.9874 28.5362 15.4983 28.6177 15.0091H29.759C29.8405 15.0091 29.9221 15.0091 29.9221 14.9276C30.0036 14.8461 30.0036 14.8461 30.0036 14.7646V13.6233C30.0036 13.5417 30.0036 13.4602 29.9221 13.4602C29.922 13.3787 29.8405 13.3787 29.759 13.3787H28.6177C28.5362 12.8896 28.2916 12.4004 28.047 11.9928L28.8623 11.1776C28.9438 11.0961 28.9438 10.933 28.8623 10.77L28.047 9.95479C27.9655 9.87326 27.8025 9.87326 27.6394 9.95479L26.8242 10.77C26.4166 10.5254 25.9275 10.2809 25.4384 10.1993V9.05804C25.4384 8.97652 25.4384 8.895 25.3568 8.895C25.2753 8.895 25.2753 8.81348 25.1938 8.81348H24.0525C23.8894 8.81348 23.8079 8.895 23.8079 9.05804V10.1178C23.3188 10.1993 22.8297 10.4439 22.422 10.6885L21.6883 9.95479C21.6068 9.87326 21.4438 9.87326 21.2807 9.95479L20.4655 10.77C20.384 10.8515 20.384 11.0146 20.4655 11.1776L21.1992 11.9113C20.8731 12.3189 20.7101 12.808 20.6286 13.3787H19.5688C19.4057 13.3787 19.3242 13.4602 19.3242 13.6233V14.7646C19.3242 14.8461 19.3242 14.9276 19.4057 14.9276C19.4873 15.0091 19.4873 15.0091 19.5688 15.0091H20.6286C20.7101 15.4983 20.9547 15.9874 21.1992 16.4765L20.4655 17.2102C20.384 17.2917 20.384 17.4548 20.4655 17.6178L21.2807 18.433C21.3623 18.5146 21.5253 18.5146 21.6883 18.433L22.422 17.6994C22.8297 17.9439 23.3188 18.1885 23.8079 18.27V19.3298C23.8079 19.4113 23.8079 19.4928 23.8894 19.4928C23.971 19.5744 23.971 19.5744 24.0525 19.5744H25.1938C25.2753 19.5744 25.3568 19.5744 25.3568 19.4928C25.4384 19.4113 25.4384 19.4113 25.4384 19.3298V18.1885C25.9275 18.107 26.4166 17.8624 26.8242 17.6178L27.6394 18.433C27.721 18.5146 27.884 18.5146 28.047 18.433L28.8623 17.6178C28.9438 17.4548 28.9438 17.2917 28.8623 17.2102ZM27.884 17.8624L27.1503 17.1287C27.0688 17.0472 26.9057 17.0472 26.8242 17.1287C26.3351 17.4548 25.8459 17.6994 25.2753 17.7809C25.1122 17.7809 25.0307 17.9439 25.0307 18.0254V19.0852H24.3785V18.0254C24.3785 17.8624 24.297 17.7809 24.134 17.7809C23.5633 17.6994 22.9927 17.4548 22.5851 17.1287C22.5035 17.0472 22.3405 17.0472 22.259 17.1287L21.5253 17.7809L21.1177 17.3733L21.8514 16.6396C21.9329 16.558 21.9329 16.395 21.8514 16.3135C21.5253 15.8244 21.2807 15.2537 21.1992 14.683C21.1992 14.52 21.0362 14.4385 20.9546 14.4385H19.8949V13.7863H20.8731C21.0362 13.7863 21.1177 13.7048 21.1177 13.5417C21.1992 12.9711 21.4438 12.4004 21.7698 11.9113C21.8514 11.8298 21.8514 11.6667 21.7698 11.5852L21.0362 10.8515L21.4438 10.4439L22.1775 11.1776C22.259 11.2591 22.422 11.2591 22.5035 11.1776C22.9927 10.8515 23.4818 10.607 24.0525 10.5254C24.2155 10.5254 24.297 10.3624 24.297 10.2809V9.22109H24.9492V10.2809C24.9492 10.4439 25.0307 10.5254 25.1938 10.5254C25.7644 10.607 26.2535 10.8515 26.7427 11.1776C26.8242 11.2591 26.9872 11.2591 27.0688 11.1776L27.8025 10.4439L28.2101 10.8515L27.3949 11.6667C27.3133 11.7483 27.3133 11.9113 27.3949 11.9928C27.7209 12.482 27.9655 12.9711 28.047 13.5417C28.047 13.7048 28.2101 13.7863 28.2916 13.7863H29.4329V14.4385H28.2916C28.1285 14.4385 28.047 14.52 28.047 14.683C27.9655 15.2537 27.7209 15.7428 27.3949 16.232C27.3133 16.3135 27.3133 16.4765 27.3949 16.558L28.2101 17.3733L27.884 17.8624Z" fill="#FF5900"/>
<path fill-rule="evenodd" clip-rule="evenodd" d="M7.25816 4.32893C7.09511 4.00285 6.76903 3.67675 6.44295 3.51371C6.27989 3.4322 6.03533 3.26914 5.87229 3.26914C5.46468 3.18763 5.13859 3.18763 4.73099 3.26914C4.48642 3.35067 4.24185 3.4322 4.07881 3.51371C3.75272 3.67675 3.42663 4.00285 3.26359 4.32893C3.01903 4.73654 2.9375 5.14415 2.9375 5.55175C2.9375 5.95936 3.01903 6.36697 3.26359 6.69306C3.50816 7.01915 3.75272 7.34524 4.16034 7.58981C4.40489 7.67132 4.56794 7.83436 4.8125 7.83436C5.22011 7.91589 5.5462 7.91589 5.95381 7.83436C6.19838 7.75285 6.36142 7.67132 6.60599 7.58981C7.09511 7.26371 7.50273 6.77459 7.66577 6.20393C7.66577 5.47024 7.58425 4.89959 7.25816 4.32893ZM7.01356 5.95937C6.93204 6.44851 6.60595 6.77459 6.19834 7.10067C6.03529 7.1822 5.87225 7.26372 5.70921 7.34524C5.38313 7.42677 5.13856 7.42677 4.81247 7.34524C4.64943 7.34524 4.48639 7.26372 4.32334 7.1822C3.91574 6.93763 3.67117 6.61155 3.50813 6.20393C3.34507 5.79632 3.34507 5.38871 3.50813 4.9811C3.67117 4.5735 3.91574 4.24741 4.32334 4.00285C4.48639 3.92132 4.64943 3.8398 4.81247 3.8398C4.97552 3.8398 5.05703 3.75828 5.22008 3.75828C5.38313 3.75828 5.54617 3.75828 5.70921 3.8398C5.87225 3.92132 6.03529 3.92132 6.19834 4.08437C6.76899 4.41045 7.09508 4.9811 7.09508 5.63328C7.09508 5.63328 7.01356 5.79633 7.01356 5.95937Z" fill="#FF5900"/>
<path fill-rule="evenodd" clip-rule="evenodd" d="M9.45652 8.48659L8.64131 7.67137C8.88587 7.26376 9.13044 6.77463 9.21197 6.2855H10.3533C10.4348 6.2855 10.5163 6.2855 10.5163 6.20398C10.5978 6.12246 10.5978 6.12246 10.5978 6.04093V4.89963C10.5978 4.8181 10.5978 4.73659 10.5163 4.73659C10.4348 4.65506 10.4348 4.65506 10.3533 4.65506H9.21197C9.13044 4.16593 8.88587 3.67681 8.64131 3.2692L9.45652 2.45398C9.53805 2.37245 9.53805 2.20941 9.45652 2.04637L8.64131 1.23114C8.55979 1.14963 8.39675 1.14963 8.2337 1.23114L7.41848 2.04637C7.01087 1.8018 6.52174 1.55724 6.03261 1.47571V0.334409C6.03261 0.252887 6.03261 0.171366 5.95109 0.171366C5.86957 0.0898438 5.86957 0.0898438 5.78805 0.0898438H4.64675C4.48369 0.0898438 4.40218 0.171366 4.40218 0.334409V1.3942C3.91304 1.47571 3.42391 1.72028 3.0163 1.96484L2.28261 1.23115C2.20108 1.14963 2.03804 1.14963 1.875 1.23115L1.05978 2.04637C0.978262 2.12789 0.978262 2.29093 1.05978 2.45398L1.79348 3.18767C1.46739 3.59528 1.30435 4.08441 1.22283 4.65506H0.244565C0.081522 4.65506 0 4.73659 0 4.89963V6.04093C0 6.12246 0 6.20398 0.0815221 6.20398C0.163045 6.2855 0.163045 6.2855 0.244565 6.2855H1.30435C1.38587 6.77463 1.63043 7.26377 1.875 7.75289L1.14131 8.48659C1.05978 8.56811 1.05978 8.73115 1.14131 8.8942L1.95653 9.70942C2.03804 9.79093 2.20108 9.79093 2.36414 9.70942L3.09783 8.97571C3.50544 9.22028 3.99457 9.46485 4.48369 9.54638V10.6061C4.48369 10.6877 4.48369 10.7692 4.56522 10.7692C4.64675 10.8507 4.64675 10.8507 4.72826 10.8507H5.86957C5.95109 10.8507 6.03261 10.8507 6.03261 10.7692C6.11413 10.6877 6.11413 10.6877 6.11413 10.6061V9.46485C6.60326 9.38332 7.0924 9.13877 7.50001 8.8942L8.31522 9.70942C8.39674 9.79093 8.55978 9.79093 8.72283 9.70942L9.53805 8.8942C9.53805 8.73115 9.61956 8.64963 9.45652 8.48659ZM8.47825 9.13876L7.74456 8.40507C7.66304 8.32354 7.5 8.32354 7.41847 8.40507C6.92935 8.73115 6.44021 8.97572 5.86956 9.05724C5.70652 9.05724 5.62499 9.22028 5.62499 9.3018V10.3616H4.97282V9.30181C4.97282 9.13876 4.8913 9.05724 4.72826 9.05724C4.1576 8.97572 3.58695 8.73115 3.17934 8.40507C3.09782 8.32354 2.93477 8.32354 2.85326 8.40507L2.11956 9.13876L1.71195 8.73115L2.44565 7.99746C2.52717 7.91593 2.52717 7.75289 2.44565 7.67136C2.11956 7.18224 1.87499 6.61159 1.79348 6.04093C1.79348 5.87789 1.63043 5.79637 1.54891 5.79637H0.489125V5.22571H1.46738C1.63042 5.22571 1.71195 5.14419 1.71195 4.98115C1.79348 4.4105 2.03804 3.83985 2.36413 3.35071C2.44565 3.26919 2.44565 3.10614 2.36413 3.02463L1.63043 2.29093L2.03804 1.88332L2.77173 2.61702C2.85326 2.69854 3.0163 2.69854 3.09782 2.61702C3.58695 2.29093 4.07609 2.04636 4.64674 1.96484C4.80978 1.96484 4.8913 1.8018 4.8913 1.72028V0.660495H5.54347V1.72028C5.54347 1.88332 5.62499 1.96484 5.78803 1.96484C6.3587 2.04636 6.84782 2.29093 7.33695 2.61702C7.41847 2.69854 7.58152 2.69854 7.66304 2.61702L8.39674 1.88332L8.80435 2.29093L7.98913 3.10614C7.9076 3.18767 7.9076 3.35071 7.98913 3.43224C8.31521 3.92136 8.55978 4.4105 8.6413 4.98115C8.6413 5.14419 8.80435 5.22571 8.88586 5.22571H10.1087V5.87789H8.96739C8.80435 5.87789 8.72282 5.95941 8.72282 6.12246C8.64131 6.69311 8.39674 7.18224 8.07065 7.67136C7.98913 7.75289 7.98913 7.91593 8.07065 7.99746L8.88586 8.81267L8.47825 9.13876Z" fill="#FF5900"/>
<path fill-rule="evenodd" clip-rule="evenodd" d="M10.3533 22.1004H9.21196C9.13044 21.6113 8.88587 21.1221 8.6413 20.7145L9.45652 19.8993C9.53804 19.8178 9.53804 19.6547 9.45652 19.4917L8.6413 18.6765C8.55979 18.5949 8.39675 18.5949 8.23369 18.6765L7.41848 19.4917C7.01087 19.2471 6.52174 19.0025 6.03261 18.921V17.7797C6.03261 17.6982 6.03261 17.6167 5.95108 17.6167C5.86957 17.5352 5.86957 17.5352 5.78804 17.5352H4.64674C4.48369 17.5352 4.40218 17.6167 4.40218 17.7797V18.8395C3.91304 18.921 3.42392 19.1656 3.0163 19.4102L2.28261 18.6765C2.20108 18.5949 2.03804 18.5949 1.875 18.6765L1.05978 19.4917C0.978261 19.5732 0.978261 19.7362 1.05978 19.8993L1.79347 20.633C1.46739 21.0406 1.30435 21.5297 1.22282 22.1004H0.244565C0.0815221 22.1004 0 22.1819 0 22.3449V23.4862C0 23.5678 0 23.6493 0.0815221 23.6493C0.163044 23.7308 0.163044 23.7308 0.244565 23.7308H1.30435C1.38587 24.2199 1.63043 24.7091 1.875 25.1982L1.14131 25.8504C1.05978 25.9319 1.05978 26.0949 1.14131 26.258L1.95653 27.0732C2.03804 27.1547 2.20108 27.1547 2.36414 27.0732L3.09783 26.3395C3.50543 26.5841 3.99457 26.8286 4.48369 26.9102V27.9699C4.48369 28.0515 4.48369 28.133 4.56522 28.133C4.64674 28.2145 4.64674 28.2145 4.72826 28.2145H5.86957C5.95108 28.2145 6.03261 28.2145 6.03261 28.133C6.11414 28.0515 6.11414 28.0515 6.11414 27.9699V26.8286C6.60326 26.7471 7.09239 26.5025 7.5 26.258L8.31522 27.0732C8.39674 27.1547 8.55979 27.1547 8.72283 27.0732L9.53804 26.258C9.61957 26.1765 9.61957 26.0134 9.53804 25.8504L8.72283 25.0351C8.96739 24.6276 9.21196 24.1384 9.29348 23.6493H10.4348C10.5163 23.6493 10.5978 23.6493 10.5978 23.5678C10.6794 23.4862 10.6794 23.4862 10.6794 23.4047V22.3449C10.6794 22.1819 10.5163 22.1004 10.3533 22.1004ZM10.1087 23.2417H8.96738C8.80434 23.2417 8.72283 23.3232 8.72283 23.4863C8.6413 24.0569 8.39673 24.546 8.07065 25.0352C7.98913 25.1167 7.98913 25.2797 8.07065 25.3613L8.88587 26.1765L8.47826 26.5026L7.74456 25.7689C7.66304 25.6873 7.5 25.6873 7.41848 25.7689C6.92934 26.0949 6.44022 26.3395 5.86956 26.421C5.70652 26.421 5.62499 26.5841 5.62499 26.6656V27.7254H4.97283V26.6656C4.97283 26.5026 4.8913 26.421 4.72826 26.421C4.15761 26.3395 3.58695 26.0949 3.17934 25.7689C3.09783 25.6873 2.93477 25.6873 2.85326 25.7689L2.11956 26.5026L1.71195 26.0949L2.44565 25.3612C2.52716 25.2797 2.52716 25.1167 2.44565 25.0352C2.11956 24.546 1.875 23.9754 1.79347 23.4047C1.79347 23.2417 1.63043 23.1602 1.54891 23.1602H0.489124V22.508H1.46738C1.63043 22.508 1.71195 22.4265 1.71195 22.2634C1.79347 21.6928 2.03804 21.1221 2.36412 20.633C2.44565 20.5515 2.44565 20.3884 2.36412 20.3069L1.63043 19.5732L2.03804 19.1656L2.77173 19.8993C2.85326 19.9808 3.0163 19.9808 3.09783 19.8993C3.58695 19.5732 4.07608 19.3286 4.64673 19.2471C4.80977 19.2471 4.8913 19.0841 4.8913 19.0025V17.9428H5.54348V19.0025C5.54348 19.1656 5.62499 19.2471 5.78804 19.2471C6.35869 19.3286 6.84783 19.5732 7.33695 19.8993C7.41848 19.9808 7.58152 19.9808 7.66304 19.8993L8.39673 19.1656L8.80434 19.5732L7.98913 20.3884C7.9076 20.4699 7.9076 20.633 7.98913 20.7145C8.31521 21.2036 8.55978 21.6928 8.6413 22.2634C8.6413 22.4265 8.80434 22.508 8.88587 22.508H10.1087V23.2417Z" fill="#FF5900"/>
<path fill-rule="evenodd" clip-rule="evenodd" d="M7.25816 21.7742C7.09512 21.4481 6.76903 21.1221 6.44295 20.959C6.27989 20.8775 6.03534 20.7145 5.87229 20.7145C5.46468 20.6329 5.13859 20.6329 4.73099 20.7145C4.48642 20.796 4.24185 20.8775 4.07881 20.959C3.75273 21.1221 3.42663 21.4481 3.26359 21.7742C3.01903 22.1818 2.9375 22.5895 2.9375 22.9971C2.9375 23.4047 3.01903 23.8123 3.26359 24.1384C3.50816 24.4645 3.75273 24.7905 4.16034 25.0351C4.40489 25.1166 4.56794 25.2797 4.81251 25.2797C5.22012 25.3612 5.5462 25.3612 5.95381 25.2797C6.19838 25.1981 6.36142 25.1166 6.60599 25.0351C7.09512 24.709 7.50273 24.2199 7.66577 23.6492C7.66577 22.9155 7.58425 22.2634 7.25816 21.7742ZM7.01356 23.3232C6.93204 23.8123 6.60595 24.1384 6.19834 24.4645C6.0353 24.546 5.87225 24.6275 5.70921 24.709C5.38313 24.7906 5.13856 24.7906 4.81247 24.709C4.64943 24.709 4.48639 24.6275 4.32334 24.546C3.91574 24.3014 3.67117 23.9753 3.50813 23.5677C3.34507 23.1601 3.34507 22.7525 3.50813 22.3449C3.67117 21.9373 3.91574 21.6112 4.32334 21.3666C4.48639 21.2851 4.64943 21.2036 4.81247 21.2036C4.97552 21.2036 5.05703 21.1221 5.22008 21.1221C5.38313 21.1221 5.54617 21.1221 5.70921 21.2036C5.87225 21.2851 6.0353 21.2851 6.19834 21.4482C6.76899 21.7743 7.09509 22.3449 7.01356 22.9971C7.09509 23.0786 7.09509 23.1601 7.01356 23.3232Z" fill="#FF5900"/>
</svg>
