<svg width="36" height="36" viewBox="0 0 36 36" fill="none" xmlns="http://www.w3.org/2000/svg">
<path d="M6.13689 12.5547C8.70578 14.4133 10.3269 14.7861 13.5481 14.2168C13.9772 16.3893 14.3661 17.1621 15.195 18.1345C13.416 18.7006 12.4693 19.3381 10.8424 20.8651C9.43949 19.3288 8.61579 18.4239 6.96036 16.5912C5.07416 18.5163 3.88515 19.7693 1.54902 22.2897C1.25245 16.7755 2.24282 14.6321 6.13689 12.5547Z" stroke="#C8D0DB"/>
<circle cx="21.9094" cy="12.8664" r="6.925" stroke="#C8D0DB"/>
<mask id="path-3-inside-1_4047_4699" fill="white">
<path fill-rule="evenodd" clip-rule="evenodd" d="M16.3883 6.3079C14.6847 7.74243 13.5883 9.88285 13.5433 12.2821C12.6867 12.7706 11.693 13.05 10.6333 13.05C7.40994 13.05 4.79688 10.4644 4.79688 7.275C4.79688 4.08556 7.40994 1.5 10.6333 1.5C13.5237 1.5 15.9233 3.57886 16.3883 6.3079Z"/>
</mask>
<path d="M13.5433 12.2821L14.0387 13.1508L14.5325 12.8692L14.5431 12.3008L13.5433 12.2821ZM16.3883 6.3079L17.0324 7.07283L17.4702 6.70416L17.3741 6.13992L16.3883 6.3079ZM14.5431 12.3008C14.5825 10.2006 15.5412 8.32854 17.0324 7.07283L15.7442 5.54297C13.8282 7.15633 12.594 9.56509 12.5435 12.2634L14.5431 12.3008ZM13.048 11.4134C12.3387 11.8179 11.5152 12.05 10.6333 12.05V14.05C11.8708 14.05 13.0348 13.7233 14.0387 13.1508L13.048 11.4134ZM10.6333 12.05C7.95222 12.05 5.79688 9.90221 5.79688 7.275H3.79688C3.79688 11.0267 6.86767 14.05 10.6333 14.05V12.05ZM5.79688 7.275C5.79688 4.64779 7.95222 2.5 10.6333 2.5V0.5C6.86767 0.5 3.79688 3.52332 3.79688 7.275H5.79688ZM10.6333 2.5C13.0357 2.5 15.0193 4.22687 15.4025 6.47587L17.3741 6.13992C16.8273 2.93086 14.0116 0.5 10.6333 0.5V2.5Z" fill="#C8D0DB" mask="url(#path-3-inside-1_4047_4699)"/>
<path d="M28.4233 19.1543C22.968 22.9509 20.0136 22.8687 14.9135 19.1543C13.3316 20.0384 12.5618 20.5867 11.5953 21.7472C12.6918 23.0737 13.1883 23.6001 13.9654 24.34C12.3014 24.2694 11.4224 24.2718 9.93615 24.34C9.09971 29.2901 11.1387 30.5064 14.9135 32.59C22.1599 31.3719 25.9149 31.7046 32.097 34.0043C33.1759 33.7901 33.713 33.5201 34.4672 32.59C34.7399 25.3076 33.3634 22.407 28.4233 19.1543Z" stroke="#C8D0DB"/>
<path d="M2.15625 22.95L7.10625 18L11.2312 22.95H8.75625C8.19148 29.211 10.4779 30.9249 14.5312 33.675C8.58603 32.1214 5.51597 31.2231 4.63125 22.95H2.15625Z" fill="#C8D0DB" stroke="#C8D0DB" stroke-width="0.2"/>
</svg>
