<svg width="36" height="36" viewBox="0 0 36 36" fill="none" xmlns="http://www.w3.org/2000/svg">
<path d="M32.25 9H27.75C27.5511 9 27.3603 8.92098 27.2197 8.78033C27.079 8.63968 27 8.44891 27 8.25C27 8.05109 27.079 7.86032 27.2197 7.71967C27.3603 7.57902 27.5511 7.5 27.75 7.5H31.5V3.75C31.5 3.55109 31.579 3.36032 31.7197 3.21967C31.8603 3.07902 32.0511 3 32.25 3C32.4489 3 32.6397 3.07902 32.7803 3.21967C32.921 3.36032 33 3.55109 33 3.75V8.25C33 8.44891 32.921 8.63968 32.7803 8.78033C32.6397 8.92098 32.4489 9 32.25 9Z" fill="#C8D0DB"/>
<path d="M18 36C8.0745 36 0 27.9255 0 18C0 8.0745 8.0745 0 18 0C23.7 0 29.1135 2.745 32.4795 7.3425C32.5377 7.42198 32.5797 7.51215 32.6031 7.60786C32.6264 7.70357 32.6307 7.80294 32.6157 7.9003C32.6006 7.99766 32.5665 8.09111 32.5154 8.1753C32.4642 8.2595 32.397 8.33279 32.3175 8.391C32.238 8.44921 32.1478 8.49119 32.0521 8.51455C31.9564 8.53791 31.8571 8.54219 31.7597 8.52715C31.6623 8.51211 31.5689 8.47803 31.4847 8.42688C31.4005 8.37572 31.3272 8.30848 31.269 8.229C29.7387 6.14666 27.7407 4.45288 25.436 3.28409C23.1312 2.1153 20.5842 1.5042 18 1.5C8.9025 1.5 1.5 8.9025 1.5 18C1.5 27.0975 8.9025 34.5 18 34.5C27.0975 34.5 34.5 27.0975 34.5 18C34.5 17.226 34.4535 16.5255 34.3575 15.8565C34.3419 15.6658 34.3997 15.4763 34.5191 15.3267C34.6385 15.1771 34.8104 15.0787 34.9998 15.0515C35.1892 15.0243 35.3819 15.0705 35.5385 15.1805C35.6951 15.2905 35.8038 15.4561 35.8425 15.6435C35.949 16.383 36 17.154 36 18C36 27.9255 27.9255 36 18 36Z" fill="#C8D0DB"/>
<path d="M18 30.0004C17.8999 30.0007 17.8008 29.9802 17.709 29.9404C17.352 29.7919 9 26.1814 9 18.8044V12.5359C9 12.2149 9.2055 11.9284 9.51 11.8249L17.76 9.03944C17.9157 8.98685 18.0843 8.98685 18.24 9.03944L26.49 11.8249C26.7945 11.9284 27 12.2149 27 12.5359V18.8044C27 26.1814 18.648 29.7919 18.291 29.9419C18.1988 29.9806 18.0999 30.0004 18 30.0004ZM10.5 13.0744V18.8044C10.5 24.4819 16.5825 27.7414 18 28.4254C19.416 27.7399 25.5 24.4684 25.5 18.8044V13.0744L18 10.5424L10.5 13.0744Z" fill="#C8D0DB"/>
<path d="M17.2483 22.4993L17.2063 22.4978C17.1009 22.4919 16.998 22.4638 16.9042 22.4155C16.8104 22.3671 16.7278 22.2996 16.6618 22.2173L13.6618 18.4673C13.5509 18.3109 13.5041 18.118 13.5308 17.9282C13.5575 17.7383 13.6557 17.5659 13.8054 17.4461C13.9551 17.3263 14.1449 17.2682 14.336 17.2838C14.5271 17.2994 14.705 17.3874 14.8333 17.5298L17.3098 20.6258L21.9673 15.9683C22.1087 15.8317 22.2982 15.7561 22.4948 15.7578C22.6915 15.7595 22.8796 15.8384 23.0187 15.9775C23.1577 16.1165 23.2366 16.3046 23.2383 16.5013C23.24 16.6979 23.1644 16.8874 23.0278 17.0288L17.7778 22.2788C17.7086 22.3489 17.6262 22.4045 17.5352 22.4424C17.4443 22.4803 17.3468 22.4996 17.2483 22.4993Z" fill="#C8D0DB"/>
</svg>
