<svg width="50" height="48" viewBox="0 0 50 48" fill="none" xmlns="http://www.w3.org/2000/svg">
<rect width="50" height="47.3451" rx="9" fill="#F6F9FC"/>
<path d="M31.8969 13H12.165C12.0796 13 12.0103 13.0692 12.0103 13.1546V27.6907C12.0103 27.7761 11.941 27.8454 11.8557 27.8454H11.0516C10.9662 27.8454 10.8969 27.9147 10.8969 28V29.9175C10.8969 30.0029 10.9662 30.0722 11.0516 30.0722H41.8866H42.8454C42.9304 30.0722 43 30.0029 43 29.9175V28C43 27.9147 42.9304 27.8454 42.8454 27.8454H42.0413C41.9562 27.8454 41.8866 27.7761 41.8866 27.6907V21.2025C41.8866 21.1778 41.8804 21.1535 41.8696 21.1316L39.1464 15.8671C39.1201 15.8158 39.0675 15.7835 39.0088 15.7835H32.2062C32.1211 15.7835 32.0516 15.7143 32.0516 15.6289V13.1546C32.0516 13.0692 31.982 13 31.8969 13Z" fill="#4ABCEB" stroke="#4ABCEB"/>
<path d="M38.3299 17.4537H32.8402C32.8139 17.4537 32.7938 17.4744 32.7938 17.5001V21.4898C32.7938 21.5154 32.8139 21.5361 32.8402 21.5361H39.9613C39.9953 21.5361 40.017 21.5027 40.0046 21.4721L38.3732 17.4825C38.3654 17.4651 38.3484 17.4537 38.3299 17.4537Z" fill="white"/>
<path d="M14.6082 14.6701H8.29896C7.58156 14.6701 7 15.2516 7 15.969C7 16.6864 7.58156 17.268 8.29896 17.268H14.6082C15.3256 17.268 15.9072 16.6864 15.9072 15.969C15.9072 15.2516 15.3256 14.6701 14.6082 14.6701Z" fill="#223872"/>
<path d="M12.7526 18.7525H8.29896C7.58156 18.7525 7 19.3341 7 20.0515C7 20.7689 7.58156 21.3505 8.29896 21.3505H12.7526C13.47 21.3505 14.0515 20.7689 14.0515 20.0515C14.0515 19.3341 13.47 18.7525 12.7526 18.7525Z" fill="#223872"/>
<path d="M11.268 22.0928H8.29896C7.58156 22.0928 7 22.6744 7 23.3918C7 24.1092 7.58156 24.6907 8.29896 24.6907H11.268C11.9854 24.6907 12.567 24.1092 12.567 23.3918C12.567 22.6744 11.9854 22.0928 11.268 22.0928Z" fill="#223872"/>
<path d="M19.9587 31.1856C19.9587 33.1158 18.3938 34.6805 16.4639 34.6805C14.534 34.6805 12.969 33.1158 12.969 31.1856C12.969 29.2556 14.534 27.6908 16.4639 27.6908C18.3938 27.6908 19.9587 29.2556 19.9587 31.1856Z" fill="#223872" stroke="white"/>
<path d="M16.464 32.4846C17.1814 32.4846 17.7629 31.903 17.7629 31.1856C17.7629 30.4682 17.1814 29.8866 16.464 29.8866C15.7466 29.8866 15.165 30.4682 15.165 31.1856C15.165 31.903 15.7466 32.4846 16.464 32.4846Z" fill="white"/>
<path d="M40.3711 31.1856C40.3711 33.1158 38.8062 34.6805 36.8763 34.6805C34.9464 34.6805 33.3814 33.1158 33.3814 31.1856C33.3814 29.2556 34.9464 27.6908 36.8763 27.6908C38.8062 27.6908 40.3711 29.2556 40.3711 31.1856Z" fill="#223872" stroke="white"/>
<path d="M36.8764 32.4846C37.5938 32.4846 38.1753 31.903 38.1753 31.1856C38.1753 30.4682 37.5938 29.8866 36.8764 29.8866C36.159 29.8866 35.5774 30.4682 35.5774 31.1856C35.5774 31.903 36.159 32.4846 36.8764 32.4846Z" fill="white"/>
<path fill-rule="evenodd" clip-rule="evenodd" d="M24.7881 18.9972L24.6474 18.9895C24.6087 18.8429 24.5577 18.6999 24.4958 18.5618L24.6025 18.467C24.8577 18.2373 24.8731 17.8477 24.6489 17.5985L24.369 17.2865C24.1463 17.0371 23.7582 17.0089 23.5015 17.2389L23.3948 17.3338C23.2649 17.257 23.1288 17.1913 22.9865 17.1374L22.9943 16.9958C23.0128 16.6572 22.753 16.3667 22.4144 16.3482L21.9953 16.3253C21.6566 16.3069 21.3659 16.5673 21.3473 16.9059L21.3396 17.0475C21.1927 17.0857 21.0504 17.1361 20.9128 17.1983L20.8169 17.0925C20.5881 16.8365 20.1984 16.8209 19.9494 17.045L19.637 17.3247C19.3881 17.548 19.3587 17.937 19.5891 18.1933L19.685 18.299C19.6077 18.4296 19.5412 18.5663 19.4886 18.7078L19.3463 18.7C19.0077 18.6816 18.7169 18.942 18.6984 19.2805L18.6752 19.6992C18.6566 20.0378 18.918 20.3284 19.2566 20.3468L19.3973 20.3545C19.436 20.5011 19.487 20.6442 19.5489 20.7822L19.4422 20.877C19.187 21.1067 19.1716 21.4962 19.3958 21.7455L19.6757 22.0576C19.8984 22.307 20.2881 22.3351 20.5432 22.105L20.6499 22.0102C20.7798 22.0869 20.9175 22.1527 21.0582 22.2066L21.0504 22.3483C21.0319 22.6868 21.2917 22.9773 21.6303 22.9958L22.0494 23.0186C22.3881 23.0372 22.6788 22.7768 22.6973 22.4381L22.7051 22.2965C22.852 22.2584 22.9943 22.208 23.1319 22.1457L23.2278 22.2515C23.4566 22.5076 23.8463 22.5232 24.0953 22.2989L24.4077 22.0194C24.6566 21.7959 24.686 21.407 24.4556 21.1508L24.3613 21.045C24.437 20.9145 24.5035 20.7778 24.5576 20.6363L24.6984 20.644C25.037 20.6624 25.3278 20.402 25.3463 20.0635L25.3695 19.6447C25.3881 19.3062 25.1267 19.0156 24.7881 18.9972ZM21.9783 21.7599C20.8664 21.6991 20.0128 20.7459 20.0731 19.6347C20.1334 18.5236 21.0876 17.6691 22.1979 17.7297C23.3097 17.7904 24.1633 18.7436 24.103 19.8547C24.0427 20.966 23.0886 21.8205 21.9783 21.7599Z" fill="white" stroke="white"/>
<path d="M21.9955 21.4367C22.9165 21.4869 23.7039 20.7811 23.7542 19.8601C23.8045 18.9391 23.0987 18.1517 22.1777 18.1014C21.2567 18.0511 20.4693 18.757 20.419 19.678C20.3687 20.599 21.0745 21.3864 21.9955 21.4367Z" fill="#223872" stroke="#223872"/>
</svg>
