<svg width="50" height="48" viewBox="0 0 50 48" fill="none" xmlns="http://www.w3.org/2000/svg">
<rect width="50" height="47.3451" rx="9" fill="#F6F9FC"/>
<path d="M24.4966 32.1081C24.6523 31.9525 31.4271 28.1414 31.4271 28.1414L34.9547 30.2409L24.4966 35.8432V32.1081Z" fill="#FF6600"/>
<path d="M34.9272 33.8443L34.9359 30.2408L34.9547 22.4801L31.5015 24.2478L24.4966 27.8336V24.2439L37.9841 16.5457L38 32.108" fill="#441582"/>
<path d="M34.9359 30.241V33.8442L24.5055 39.7227L24.4501 35.8433L34.9359 30.241Z" fill="#E8640A"/>
<path d="M24.4966 20.4052L34.9547 14.6158L37.9841 16.5458L24.4966 24.3199V20.4052Z" fill="#4D148C"/>
<path d="M17.573 28.1415L17.4986 24.2478L14.0454 22.4801V30.2411L17.573 28.1415Z" fill="#4D148C"/>
<path d="M24.5035 32.1081C24.3479 31.9525 17.573 28.1414 17.573 28.1414L14.0454 30.2409L24.5035 35.8432V32.1081Z" fill="#FF6600"/>
<path d="M14.0727 33.8443L14.064 30.2408L14.0453 22.4801L17.4984 24.2478L24.5036 27.8336V24.327L11 16.5457V32.108" fill="#3C1777"/>
<path d="M14.064 30.241V33.8442L24.4943 39.7227L24.5497 35.8433L14.064 30.241Z" fill="#D8600E"/>
<path d="M24.5036 20.4052L14.0455 14.6158L11.0161 16.5458L24.5036 24.3199V20.4052Z" fill="#4D148C"/>
<path d="M24.5035 8.99998L34.9995 14.6442L31.2612 16.7158L24.5035 12.6903L17.8829 16.8071L14.0454 14.616L24.5035 8.99998Z" fill="#D3D1D2"/>
<path d="M24.5035 12.6902L17.876 16.8031L20.8506 18.3832L24.5035 16.4778V16.1945V12.6902Z" fill="#B3B3B2"/>
<path d="M24.5036 12.6903V16.2241V16.4779L28.1702 18.3976L31.2405 16.6979L24.5036 12.6903Z" fill="#B3B3B2"/>
</svg>
