<svg width="50" height="48" viewBox="0 0 50 48" fill="none" xmlns="http://www.w3.org/2000/svg">
<rect width="50" height="47.3451" rx="9" fill="#F6F9FC"/>
<path fill-rule="evenodd" clip-rule="evenodd" d="M17.3333 6H32.6666C33.7712 6 34.6666 6.89543 34.6666 8V9.75759H36.6666V8C36.6666 5.79086 34.8758 4 32.6666 4H17.3333C15.1242 4 13.3333 5.79086 13.3333 8V9.75759H15.3333V8C15.3333 6.89543 16.2287 6 17.3333 6ZM15.3333 19.7576H13.3333V39.0909C13.3333 41.3 15.1242 43.0909 17.3333 43.0909H32.6666C34.8758 43.0909 36.6666 41.3 36.6666 39.0909V19.7576H34.6666V39.0909C34.6666 40.1955 33.7712 41.0909 32.6666 41.0909H17.3333C16.2287 41.0909 15.3333 40.1955 15.3333 39.0909V19.7576Z" fill="#4ABCEB"/>
<path d="M37.1427 19.8575C36.3852 19.8568 35.659 19.6074 35.1235 19.1641C34.5879 18.7208 34.2867 18.1198 34.2859 17.4929V16.1497C34.2859 16.0557 34.331 15.9655 34.4114 15.8989C34.4918 15.8324 34.6008 15.7951 34.7144 15.7951H39.5714C39.6851 15.7951 39.7941 15.8324 39.8745 15.8989C39.9548 15.9655 40 16.0557 40 16.1497V17.4929C39.9991 18.1198 39.6978 18.7208 39.1621 19.1641C38.6265 19.6074 37.9002 19.8568 37.1427 19.8575ZM35.143 16.5044V17.4929C35.1391 17.7123 35.188 17.9301 35.2867 18.1338C35.3855 18.3374 35.5322 18.5227 35.7183 18.679C35.9044 18.8353 36.1262 18.9594 36.3708 19.0441C36.6153 19.1288 36.8778 19.1724 37.1429 19.1724C37.4081 19.1724 37.6705 19.1288 37.9151 19.0441C38.1597 18.9594 38.3815 18.8353 38.5676 18.679C38.7537 18.5227 38.9003 18.3374 38.9991 18.1338C39.0979 17.9301 39.1467 17.7123 39.1429 17.4929V16.5044H35.143Z" fill="#4ABCEB" stroke="#4ABCEB"/>
<path d="M32.2857 19.8575C31.5282 19.8568 30.802 19.6074 30.2663 19.1641C29.7307 18.7208 29.4293 18.1198 29.4284 17.4929V16.1497C29.4284 16.0557 29.4736 15.9655 29.554 15.8989C29.6343 15.8324 29.7433 15.7951 29.857 15.7951H34.7144C34.8281 15.7951 34.9371 15.8324 35.0175 15.8989C35.0979 15.9655 35.143 16.0557 35.143 16.1497V17.4929C35.1421 18.1198 34.8408 18.7208 34.3051 19.1641C33.7695 19.6074 33.0432 19.8568 32.2857 19.8575ZM30.2856 16.5044V17.4929C30.2856 17.9319 30.4963 18.3529 30.8714 18.6634C31.2465 18.9738 31.7553 19.1482 32.2857 19.1482C32.8162 19.1482 33.3249 18.9738 33.7 18.6634C34.0751 18.3529 34.2859 17.9319 34.2859 17.4929V16.5044H30.2856Z" fill="#4ABCEB" stroke="#4ABCEB"/>
<path d="M27.4287 19.8575C26.6711 19.8568 25.9449 19.6074 25.4093 19.1641C24.8736 18.7208 24.5723 18.1198 24.5714 17.4929V16.1497C24.5714 16.0557 24.6165 15.9655 24.6969 15.8989C24.7773 15.8324 24.8863 15.7951 25 15.7951H29.8569C29.9706 15.7951 30.0796 15.8324 30.16 15.8989C30.2404 15.9655 30.2855 16.0557 30.2855 16.1497V17.4929C30.2847 18.1198 29.9835 18.7208 29.4479 19.1641C28.9123 19.6074 28.1861 19.8568 27.4287 19.8575ZM25.4285 16.5044V17.4929C25.4246 17.7123 25.4735 17.9301 25.5723 18.1338C25.671 18.3374 25.8177 18.5227 26.0038 18.679C26.1899 18.8353 26.4117 18.9594 26.6563 19.0441C26.9008 19.1288 27.1633 19.1724 27.4285 19.1724C27.6936 19.1724 27.9561 19.1288 28.2006 19.0441C28.4452 18.9594 28.667 18.8353 28.8531 18.679C29.0392 18.5227 29.1859 18.3374 29.2846 18.1338C29.3834 17.9301 29.4323 17.7123 29.4284 17.4929V16.5044H25.4285Z" fill="#4ABCEB" stroke="#4ABCEB"/>
<path d="M22.5712 19.8575C21.8138 19.8568 21.0876 19.6074 20.552 19.1641C20.0164 18.7208 19.7152 18.1198 19.7144 17.4929V16.1497C19.7144 16.0557 19.7595 15.9655 19.8399 15.8989C19.9203 15.8324 20.0293 15.7951 20.143 15.7951H25C25.1136 15.7951 25.2226 15.8324 25.303 15.8989C25.3834 15.9655 25.4285 16.0557 25.4285 16.1497V17.4929C25.4276 18.1198 25.1263 18.7208 24.5906 19.1641C24.055 19.6074 23.3288 19.8568 22.5712 19.8575ZM20.5715 16.5044V17.4929C20.5676 17.7123 20.6165 17.9301 20.7153 18.1338C20.814 18.3374 20.9607 18.5227 21.1468 18.679C21.3329 18.8353 21.5547 18.9594 21.7993 19.0441C22.0438 19.1288 22.3063 19.1724 22.5715 19.1724C22.8366 19.1724 23.0991 19.1288 23.3436 19.0441C23.5882 18.9594 23.81 18.8353 23.9961 18.679C24.1822 18.5227 24.3289 18.3374 24.4276 18.1338C24.5264 17.9301 24.5753 17.7123 24.5714 17.4929V16.5044H20.5715Z" fill="#4ABCEB" stroke="#4ABCEB"/>
<path d="M17.7143 19.8575C16.9568 19.8568 16.2306 19.6074 15.6949 19.1641C15.1593 18.7208 14.858 18.1198 14.8571 17.4929V16.1497C14.8571 16.0557 14.9022 15.9655 14.9826 15.8989C15.063 15.8324 15.172 15.7951 15.2856 15.7951H20.1431C20.2567 15.7951 20.3657 15.8324 20.4461 15.8989C20.5265 15.9655 20.5716 16.0557 20.5716 16.1497V17.4929C20.5707 18.1198 20.2694 18.7208 19.7337 19.1641C19.1981 19.6074 18.4719 19.8568 17.7143 19.8575ZM15.7142 16.5044V17.4929C15.7142 17.9319 15.9249 18.3529 16.3 18.6634C16.6751 18.9738 17.1839 19.1482 17.7143 19.1482C18.2448 19.1482 18.7536 18.9738 19.1287 18.6634C19.5038 18.3529 19.7145 17.9319 19.7145 17.4929V16.5044H15.7142Z" fill="#4ABCEB" stroke="#4ABCEB"/>
<path d="M12.8573 19.8575C12.0998 19.8568 11.3735 19.6074 10.8379 19.1641C10.3022 18.7208 10.0009 18.1198 10 17.4929V16.1497C10 16.0557 10.0452 15.9655 10.1255 15.8989C10.2059 15.8324 10.3149 15.7951 10.4286 15.7951H15.2856C15.3992 15.7951 15.5082 15.8324 15.5886 15.8989C15.669 15.9655 15.7141 16.0557 15.7141 16.1497V17.4929C15.7133 18.1198 15.4121 18.7208 14.8765 19.1641C14.341 19.6074 13.6148 19.8568 12.8573 19.8575ZM10.8571 16.5044V17.4929C10.8533 17.7123 10.9021 17.9301 11.0009 18.1338C11.0997 18.3374 11.2463 18.5227 11.4324 18.679C11.6185 18.8353 11.8403 18.9594 12.0849 19.0441C12.3295 19.1288 12.5919 19.1724 12.8571 19.1724C13.1222 19.1724 13.3847 19.1288 13.6292 19.0441C13.8738 18.9594 14.0956 18.8353 14.2817 18.679C14.4678 18.5227 14.6145 18.3374 14.7133 18.1338C14.812 17.9301 14.8609 17.7123 14.857 17.4929V16.5044H10.8571Z" fill="#4ABCEB" stroke="#4ABCEB"/>
<path d="M34.7152 16.5045C34.6181 16.5044 34.5239 16.477 34.4481 16.4268C34.3723 16.3766 34.3193 16.3066 34.2978 16.2282L32.6435 10.1987C32.6213 10.1079 32.6429 10.0135 32.7037 9.93566C32.7645 9.85786 32.8596 9.80284 32.9688 9.78236C33.078 9.76188 33.1925 9.77757 33.2879 9.82607C33.3833 9.87457 33.452 9.95203 33.4792 10.0419L35.1335 16.0714C35.1477 16.1234 35.1476 16.1773 35.1332 16.2292C35.1188 16.2811 35.0905 16.3297 35.0503 16.3713C35.0101 16.4129 34.9591 16.4464 34.9011 16.4695C34.8431 16.4926 34.7796 16.5045 34.7152 16.5045ZM29.7652 16.5045C29.6647 16.5044 29.5674 16.475 29.4904 16.4215C29.4134 16.368 29.3615 16.2938 29.3439 16.2119L28.0449 10.1823C28.0265 10.0902 28.0527 9.99584 28.1178 9.91961C28.1829 9.84337 28.2817 9.79146 28.3927 9.77512C28.5038 9.75878 28.6182 9.77934 28.711 9.83233C28.8039 9.88533 28.8678 9.96648 28.8888 10.0582L30.1874 16.0877C30.2072 16.1803 30.1818 16.2756 30.1168 16.3526C30.0518 16.4297 29.9525 16.4823 29.8407 16.4988C29.8158 16.5026 29.7905 16.5045 29.7652 16.5045ZM15.2847 16.5045C15.2203 16.5045 15.1568 16.4926 15.0988 16.4695C15.0407 16.4464 14.9898 16.4129 14.9496 16.3713C14.9094 16.3297 14.8811 16.2811 14.8666 16.2292C14.8522 16.1773 14.8521 16.1234 14.8664 16.0714L16.5207 10.0419C16.532 9.99556 16.5544 9.95158 16.5866 9.91252C16.6187 9.87346 16.66 9.84012 16.708 9.81445C16.7559 9.78878 16.8096 9.77131 16.8658 9.76305C16.9221 9.7548 16.9797 9.75592 17.0354 9.76637C17.0911 9.77682 17.1438 9.79638 17.1902 9.8239C17.2366 9.85141 17.276 9.88633 17.3059 9.92661C17.3358 9.96688 17.3556 10.0117 17.3643 10.0584C17.373 10.1051 17.3703 10.1528 17.3564 10.1987L15.7021 16.2282C15.6806 16.3066 15.6276 16.3766 15.5518 16.4268C15.476 16.477 15.3818 16.5044 15.2847 16.5045ZM20.2347 16.5045C20.2094 16.5045 20.1841 16.5026 20.1592 16.4988C20.0474 16.4823 19.9481 16.4297 19.8831 16.3526C19.8181 16.2756 19.7927 16.1803 19.8125 16.0877L21.1111 10.0582C21.1321 9.96648 21.196 9.88533 21.2889 9.83233C21.3817 9.77934 21.4961 9.75878 21.6071 9.77512C21.7182 9.79146 21.817 9.84337 21.8821 9.91961C21.9472 9.99584 21.9734 10.0902 21.9549 10.1823L20.6559 16.2119C20.6383 16.2938 20.5865 16.368 20.5095 16.4215C20.4325 16.475 20.3352 16.5044 20.2347 16.5045ZM24.9999 16.5045C24.8863 16.5045 24.7773 16.4671 24.6969 16.4006C24.6165 16.3341 24.5714 16.2439 24.5714 16.1498V10.1203C24.5714 10.0262 24.6165 9.93599 24.6969 9.86948C24.7773 9.80296 24.8863 9.76559 24.9999 9.76559C25.1136 9.76559 25.2226 9.80296 25.303 9.86948C25.3834 9.93599 25.4285 10.0262 25.4285 10.1203V16.1498C25.4285 16.2439 25.3834 16.3341 25.303 16.4006C25.2226 16.4671 25.1136 16.5045 24.9999 16.5045Z" fill="#4ABCEB" stroke="#4ABCEB"/>
<path d="M39.5694 16.5381H10.4265C10.3545 16.5378 10.2837 16.5224 10.2208 16.4933C10.1578 16.4642 10.1046 16.4224 10.0661 16.3717C10.0277 16.321 10.0052 16.263 10.0008 16.2031C9.99639 16.1433 10.0102 16.0834 10.0408 16.0292L13.4694 9.96244C13.5039 9.90144 13.5584 9.84983 13.6267 9.81358C13.695 9.77733 13.7742 9.75792 13.8551 9.7576H36.1408C36.2221 9.75758 36.3018 9.77683 36.3705 9.8131C36.4392 9.84938 36.494 9.90117 36.5287 9.96244L39.9572 16.0292C39.988 16.0836 40.0018 16.1436 39.9972 16.2036C39.9927 16.2636 39.97 16.3217 39.9313 16.3724C39.8927 16.4232 39.8392 16.465 39.7759 16.4939C39.7126 16.5229 39.6416 16.5381 39.5694 16.5381ZM11.102 15.8243H38.894L35.8687 10.4713H14.1273L11.102 15.8243Z" fill="#4ABCEB" stroke="#4ABCEB"/>
<path d="M14.0909 37.3333H35.9091" stroke="#4ABCEB" stroke-width="2" stroke-linecap="round"/>
<path d="M27.4638 30.9898C28.2264 30.9898 28.9204 30.5103 29.1898 29.7965L30.4933 26.3472C30.6364 25.968 30.584 25.5426 30.3537 25.2093C30.2402 25.0451 30.0886 24.9109 29.9119 24.8182C29.7352 24.7255 29.5385 24.677 29.339 24.677H24.366C23.9078 24.677 23.5359 25.0489 23.5359 25.5072C23.5359 25.9654 23.9078 26.3373 24.366 26.3373H28.722L27.6368 29.2098C27.6235 29.245 27.5998 29.2752 27.5689 29.2966C27.538 29.318 27.5014 29.3295 27.4638 29.3296H23.5177C23.4752 29.3294 23.4341 29.3147 23.4011 29.2879C23.3681 29.261 23.3454 29.2237 23.3366 29.1821L22.4978 25.1729C22.3556 24.4933 21.7485 24 21.0542 24H20.2241C20.0039 24 19.7928 24.0875 19.6371 24.2431C19.4814 24.3988 19.394 24.61 19.394 24.8301C19.394 25.0503 19.4814 25.2614 19.6371 25.4171C19.7928 25.5728 20.0039 25.6602 20.2241 25.6602H20.9037L21.7119 29.5224C21.8895 30.3729 22.6491 30.9898 23.5182 30.9898H27.4638ZM23.6323 31.2159H23.4554C23.2353 31.2159 23.0241 31.3034 22.8685 31.4591C22.7128 31.6147 22.6253 31.8259 22.6253 32.046C22.6253 32.5048 22.9968 32.8762 23.4554 32.8762H23.6323C24.0911 32.8762 24.4624 32.5048 24.4624 32.046C24.4624 31.8259 24.375 31.6147 24.2193 31.4591C24.0636 31.3034 23.8525 31.2159 23.6323 31.2159ZM26.5118 31.2159H26.3345C26.1143 31.2159 25.9032 31.3034 25.7475 31.4591C25.5918 31.6147 25.5044 31.8259 25.5044 32.046C25.5044 32.2662 25.5918 32.4773 25.7475 32.633C25.9032 32.7887 26.1143 32.8762 26.3345 32.8762H26.5118C26.9705 32.8762 27.3419 32.5048 27.3419 32.046C27.3419 31.8259 27.2545 31.6147 27.0988 31.4591C26.9431 31.3034 26.732 31.2159 26.5118 31.2159Z" fill="#4ABCEB"/>
<mask id="path-13-inside-1_2756_504" fill="white">
<ellipse cx="24.8485" cy="39.909" rx="1.51515" ry="1.51515"/>
</mask>
<path d="M23.3636 39.909C23.3636 39.089 24.0284 38.4242 24.8485 38.4242V44.4242C27.3421 44.4242 29.3636 42.4027 29.3636 39.909H23.3636ZM24.8485 38.4242C25.6686 38.4242 26.3333 39.089 26.3333 39.909H20.3333C20.3333 42.4027 22.3548 44.4242 24.8485 44.4242V38.4242ZM26.3333 39.909C26.3333 40.7291 25.6686 41.3939 24.8485 41.3939V35.3939C22.3548 35.3939 20.3333 37.4154 20.3333 39.909H26.3333ZM24.8485 41.3939C24.0284 41.3939 23.3636 40.7291 23.3636 39.909H29.3636C29.3636 37.4154 27.3421 35.3939 24.8485 35.3939V41.3939Z" fill="#4ABCEB" mask="url(#path-13-inside-1_2756_504)"/>
</svg>
