<svg width="50" height="48" viewBox="0 0 50 48" fill="none" xmlns="http://www.w3.org/2000/svg">
<rect width="50" height="47.3451" rx="9" fill="#F6F9FC"/>
<path d="M45 36.2727C45 36.7549 44.8084 37.2174 44.4675 37.5584C44.1265 37.8993 43.664 38.0909 43.1818 38.0909H21.3636C20.8814 38.0909 20.419 37.8993 20.078 37.5584C19.737 37.2174 19.5455 36.7549 19.5455 36.2727C19.5455 33.3795 20.6948 30.6047 22.7407 28.5588C24.7865 26.513 27.5613 25.3636 30.4545 25.3636H34.0909C36.9842 25.3636 39.759 26.513 41.8048 28.5588C43.8507 30.6047 45 33.3795 45 36.2727ZM32.2727 9C30.8343 9 29.4282 9.42654 28.2322 10.2257C27.0362 11.0248 26.1041 12.1607 25.5536 13.4896C25.0031 14.8185 24.8591 16.2808 25.1397 17.6916C25.4204 19.1023 26.113 20.3982 27.1301 21.4153C28.1472 22.4324 29.4431 23.1251 30.8539 23.4057C32.2647 23.6863 33.727 23.5423 35.0559 22.9918C36.3848 22.4414 37.5206 21.5092 38.3198 20.3132C39.1189 19.1172 39.5455 17.7111 39.5455 16.2727C39.5455 14.3439 38.7792 12.494 37.4153 11.1301C36.0514 9.76623 34.2016 9 32.2727 9ZM15.9091 9C14.4707 9 13.0646 9.42654 11.8686 10.2257C10.6726 11.0248 9.74042 12.1607 9.18997 13.4896C8.63951 14.8185 8.49549 16.2808 8.77611 17.6916C9.05673 19.1023 9.74939 20.3982 10.7665 21.4153C11.7836 22.4324 13.0795 23.1251 14.4903 23.4057C15.901 23.6863 17.3633 23.5423 18.6922 22.9918C20.0212 22.4414 21.157 21.5092 21.9561 20.3132C22.7553 19.1172 23.1818 17.7111 23.1818 16.2727C23.1818 14.3439 22.4156 12.494 21.0517 11.1301C19.6878 9.76623 17.8379 9 15.9091 9ZM15.9091 36.2727C15.9064 34.3629 16.2826 32.4716 17.0161 30.7082C17.7495 28.9449 18.8255 27.3446 20.1818 26C19.0719 25.5809 17.8955 25.3654 16.7091 25.3636H15.1091C12.4295 25.3684 9.86097 26.435 7.96619 28.3298C6.07141 30.2246 5.00481 32.7931 5 35.4727V36.2727C5 36.7549 5.19156 37.2174 5.53253 37.5584C5.87351 37.8993 6.33597 38.0909 6.81818 38.0909H16.2364C16.0247 37.5079 15.914 36.893 15.9091 36.2727Z" fill="#4ABCEB"/>
</svg>
