<svg width="36" height="36" viewBox="0 0 36 36" fill="none" xmlns="http://www.w3.org/2000/svg">
<path fill-rule="evenodd" clip-rule="evenodd" d="M26.7583 9.34478C25.2939 7.88032 22.9195 7.88032 21.455 9.34478C19.9906 10.8093 19.9906 13.1836 21.455 14.6481C22.9195 16.1125 25.2939 16.1125 26.7583 14.6481C28.2228 13.1836 28.2228 10.8093 26.7583 9.34478ZM23.5763 11.4661C23.8692 11.1732 24.3441 11.1732 24.637 11.4661C24.9299 11.759 24.9299 12.2339 24.637 12.5268C24.3441 12.8197 23.8692 12.8197 23.5763 12.5268C23.2835 12.2339 23.2835 11.759 23.5763 11.4661Z" fill="white"/>
<path fill-rule="evenodd" clip-rule="evenodd" d="M32.0613 4.04137C31.8513 3.82321 31.5809 3.6755 31.2894 3.61382C29.8762 3.08331 27.4892 2.69473 23.8886 4.10288C21.3579 5.09264 18.2372 6.96506 14.4096 10.2789C13.9522 10.1422 13.4667 10.0869 12.9921 10.0879C12.1005 10.0897 11.1029 10.288 10.0609 10.6832C7.97062 11.476 5.59653 13.0995 3.3334 15.8075C2.83539 16.4035 2.87458 17.2809 3.42372 17.8301C4.6669 19.0733 6.08665 19.2601 7.22633 19.16C7.75075 19.1139 8.2386 19.0057 8.59239 18.9273L8.6184 18.9215C8.83351 18.8738 8.9794 18.8434 9.08109 18.8248C9.11737 18.8301 9.15402 18.8341 9.19097 18.8367C12.5492 19.0766 14.3128 19.7038 15.3558 20.7469C16.3988 21.7899 17.0261 23.5534 17.2659 26.9117C17.2686 26.9492 17.2727 26.9864 17.2781 27.0233C17.2595 27.1249 17.2291 27.2705 17.1816 27.4847L17.1759 27.5107C17.0974 27.8645 16.9893 28.3524 16.9432 28.8768C16.843 30.0165 17.0299 31.4362 18.273 32.6794C18.8222 33.2286 19.6997 33.2677 20.2956 32.7697C23.0036 30.5066 24.6271 28.1325 25.42 26.0422C25.8152 25.0003 26.0134 24.0027 26.0153 23.111C26.0163 22.6362 25.9609 22.1504 25.824 21.6928C29.1377 17.8653 31.01 14.7447 31.9998 12.214C33.4079 8.61348 33.0194 6.22643 32.4888 4.81324C32.4272 4.52172 32.2795 4.25135 32.0613 4.04137ZM10.6873 13.7485C10.5794 13.8558 10.4711 13.9641 10.3623 14.0735L8.56644 15.8693C8.3672 15.9038 8.18212 15.9451 8.03199 15.9786L7.96934 15.9925C7.64775 16.0638 7.37291 16.1232 7.10576 16.1564C8.44893 14.8775 9.73453 14.0703 10.8287 13.6071L10.6873 13.7485ZM12.4936 16.1848L12.452 16.2266C14.5171 16.6325 16.2028 17.3513 17.4771 18.6255C18.7514 19.8998 19.4701 21.5856 19.876 23.6506C25.498 18.0639 28.0892 13.9765 29.2059 11.1213C30.1535 8.69819 30.042 7.16085 29.8142 6.28846C28.9418 6.06067 27.4045 5.94913 24.9813 6.89681C22.1852 7.99035 18.2074 10.498 12.797 15.8815L12.4936 16.1848ZM22.4961 25.2744L20.2338 27.5367C20.1993 27.7359 20.158 27.921 20.1245 28.0711L20.1106 28.1338C20.0393 28.4554 19.9799 28.7302 19.9468 28.9974C21.2257 27.6542 22.0328 26.3686 22.4961 25.2744Z" fill="white"/>
<path fill-rule="evenodd" clip-rule="evenodd" d="M13.1999 20.7681C13.6132 20.8915 14.1322 21.1141 14.5606 21.5425C14.989 21.9709 15.2116 22.4899 15.335 22.9032C15.4621 23.3286 15.5174 23.755 15.5416 24.1059C15.5661 24.4628 15.5613 24.7837 15.5508 25.0134C15.5456 25.1297 15.5387 25.226 15.5329 25.296C15.53 25.3311 15.5273 25.3598 15.5252 25.3814L15.5224 25.4084L15.5214 25.4177L15.521 25.4213L15.5208 25.4228C15.5208 25.4231 15.5207 25.4242 14.0302 25.2548L15.5208 25.4228C15.4681 25.8867 15.2023 26.3009 14.802 26.5411C13.7357 27.1809 12.3795 27.6214 11.3755 27.8952C10.8571 28.0366 10.3986 28.1424 10.0687 28.2131C9.90341 28.2485 9.76931 28.2754 9.67489 28.2936C9.62765 28.3028 9.59026 28.3098 9.56377 28.3147L9.53232 28.3204L9.52295 28.3221L9.51833 28.3229C9.51813 28.323 9.51795 28.323 9.25727 26.8458C7.7864 26.5517 7.78643 26.5515 7.78646 26.5514L7.78732 26.5471L7.78928 26.5374L7.79626 26.5033C7.80225 26.4742 7.81093 26.4325 7.82215 26.3797C7.84459 26.2741 7.87729 26.1237 7.91921 25.9402C8.0028 25.5741 8.1243 25.0705 8.27559 24.5235C8.42602 23.9796 8.6109 23.3746 8.82323 22.8115C9.02657 22.2722 9.29114 21.6721 9.62766 21.201C9.87465 20.8552 10.2567 20.6304 10.6789 20.5825L10.8483 22.0729C10.6789 20.5825 10.6786 20.5825 10.6789 20.5825L10.6818 20.5821L10.6854 20.5817L10.6947 20.5807L10.7217 20.578C10.7433 20.5758 10.772 20.5731 10.8071 20.5702C10.8771 20.5644 10.9735 20.5575 11.0897 20.5523C11.3194 20.5419 11.6403 20.537 11.9972 20.5616C12.3481 20.5857 12.7745 20.641 13.1999 20.7681ZM11.7569 23.5522C11.7163 23.6482 11.674 23.754 11.6303 23.8699C11.5226 24.1557 11.4194 24.4672 11.3232 24.7838C11.7477 24.6488 12.1686 24.4962 12.5498 24.3287L12.5486 24.3121C12.5336 24.0935 12.5029 23.9037 12.4606 23.7619C12.449 23.723 12.4383 23.694 12.4298 23.6733C12.4091 23.6648 12.3801 23.6542 12.3412 23.6425C12.1994 23.6002 12.0096 23.5695 11.791 23.5545L11.7569 23.5522Z" fill="white"/>
<path d="M9.25727 26.8458L9.51833 28.3229C9.03037 28.4091 8.53099 28.2487 8.18463 27.8944C7.83826 27.5401 7.68928 27.0372 7.78646 26.5514L9.25727 26.8458Z" fill="white"/>
</svg>
