<svg width="38" height="31" viewBox="0 0 38 31" fill="none" xmlns="http://www.w3.org/2000/svg">
<path fill-rule="evenodd" clip-rule="evenodd" d="M18.3244 20.6333H0.789062H4.03637L4.13628 0.5H18.1246L18.3244 21.2827V20.6333Z" stroke="#20336B" stroke-linecap="square"/>
<path fill-rule="evenodd" clip-rule="evenodd" d="M6.52344 5.82812H8.64666V7.95136H6.52344V5.82812Z" stroke="#20336B" stroke-linecap="round" stroke-linejoin="round"/>
<path fill-rule="evenodd" clip-rule="evenodd" d="M13.6016 5.82812H15.7248V7.95136H13.6016V5.82812Z" stroke="#20336B" stroke-linecap="round" stroke-linejoin="round"/>
<path fill-rule="evenodd" clip-rule="evenodd" d="M6.52344 12.9062H8.64666V15.0295H6.52344V12.9062Z" stroke="#20336B" stroke-linecap="round" stroke-linejoin="round"/>
<path d="M13.6016 12.9062V15.0295H15.7248V12.9062H15.0171" stroke="#20336B" stroke-linecap="round" stroke-linejoin="round"/>
<path d="M10.0547 7.59748V5.82812H12.1779" stroke="#20336B" stroke-linecap="round" stroke-linejoin="round"/>
<path d="M12.1875 7.24414V9.72125" stroke="#20336B" stroke-linecap="round" stroke-linejoin="round"/>
<path d="M6.52344 11.4901H10.0622V9.7207" stroke="#20336B" stroke-linecap="round" stroke-linejoin="round"/>
<path d="M10.0547 12.9062V15.0295H12.1779" stroke="#20336B" stroke-linecap="round" stroke-linejoin="round"/>
<path d="M11.4766 12.9062H12.1843" stroke="#20336B" stroke-linecap="round" stroke-linejoin="round"/>
<path d="M6.52344 9.36719H8.64666" stroke="#20336B" stroke-linecap="round" stroke-linejoin="round"/>
<path d="M15.7248 9.36719H13.6016V10.0749" stroke="#20336B" stroke-linecap="round" stroke-linejoin="round"/>
<path d="M11.4766 11.4902H15.723" stroke="#20336B" stroke-linecap="round" stroke-linejoin="round"/>
<path d="M37.2163 29.5538L34.5399 25.8068V20.9895C34.585 19.086 32.3122 17.3892 30.2578 15.6367" stroke="#20336B" stroke-linecap="round" stroke-linejoin="round"/>
<path d="M30.5843 23.1304L27.7046 20.1671C27.0522 19.7255 26.1966 19.7255 25.5442 20.1671C25.3309 20.3799 25.2109 20.6687 25.2109 20.9701C25.2109 21.2714 25.3309 21.5602 25.5442 21.7729L28.9582 25.2715V26.8773C28.9582 27.9061 30.6293 29.5536 30.6293 29.5536" stroke="#20336B" stroke-linecap="round" stroke-linejoin="round"/>
<path d="M26.4332 24.2013H18.8345C18.5117 24.2013 18.25 23.9617 18.25 23.666V5.46691C18.25 5.17129 18.5117 4.93164 18.8345 4.93164H29.3558C29.6786 4.93164 29.9403 5.17129 29.9403 5.46691V18.8486" stroke="#20336B" stroke-linecap="round" stroke-linejoin="round"/>
<path fill-rule="evenodd" clip-rule="evenodd" d="M20.8516 10.8594H22.2948V12.3026H20.8516V10.8594Z" stroke="#00BAF2" stroke-linecap="round" stroke-linejoin="round"/>
<path fill-rule="evenodd" clip-rule="evenodd" d="M20.8516 15.9102H22.2948V17.3534H20.8516V15.9102Z" stroke="#00BAF2" stroke-linecap="round" stroke-linejoin="round"/>
<path fill-rule="evenodd" clip-rule="evenodd" d="M25.8984 10.8594H27.3417V12.3026H25.8984V10.8594Z" stroke="#00BAF2" stroke-linecap="round" stroke-linejoin="round"/>
<path d="M20.8516 14.4668H23.738V15.1884" stroke="#00BAF2" stroke-linecap="round" stroke-linejoin="round"/>
<path d="M25.1797 15.1895V17.3543H27.3446V15.1895H26.6229" stroke="#00BAF2" stroke-linecap="round" stroke-linejoin="round"/>
<path d="M23.7422 16.6328V17.3544" stroke="#00BAF2" stroke-linecap="round" stroke-linejoin="round"/>
<path d="M23.7422 10.8594V13.0242H24.4638" stroke="#00BAF2" stroke-linecap="round" stroke-linejoin="round"/>
<path d="M25.8984 13.7461H27.3417" stroke="#00BAF2" stroke-linecap="round" stroke-linejoin="round"/>
</svg>
