<svg width="63" height="36" viewBox="0 0 63 36" fill="none" xmlns="http://www.w3.org/2000/svg">
<path d="M21 25.5V23.625C21 21.135 15.99 19.875 13.5 19.875C11.01 19.875 6 21.135 6 23.625V25.5H21Z" fill="#20336B"/>
<path d="M13.5 10.5C12.5054 10.5 11.5516 10.8951 10.8483 11.5983C10.1451 12.3016 9.75 13.2554 9.75 14.25C9.75 14.7425 9.847 15.2301 10.0355 15.6851C10.2239 16.14 10.5001 16.5534 10.8483 16.9017C11.5516 17.6049 12.5054 18 13.5 18C13.9925 18 14.4801 17.903 14.9351 17.7145C15.39 17.5261 15.8034 17.2499 16.1516 16.9017C16.4999 16.5534 16.7761 16.14 16.9645 15.6851C17.153 15.2301 17.25 14.7425 17.25 14.25C17.25 13.7575 17.153 13.2699 16.9645 12.8149C16.7761 12.36 16.4999 11.9466 16.1516 11.5983C15.8034 11.2501 15.39 10.9739 14.9351 10.7855C14.4801 10.597 13.9925 10.5 13.5 10.5Z" fill="#20336B"/>
<path d="M21 13.5V15H30V13.5H21Z" fill="#00BAF2"/>
<path d="M21 16.5V18H27V16.5H21Z" fill="#00BAF2"/>
<path fill-rule="evenodd" clip-rule="evenodd" d="M3 4.5H33C33.7869 4.52761 34.534 4.85254 35.0907 5.40928C35.6475 5.96601 35.9724 6.71314 36 7.5V28.5C35.94 30.135 34.635 31.44 33 31.5H3C1.365 31.44 0.06 30.135 0 28.5V7.5C0.06 5.865 1.365 4.56 3 4.5ZM3 28.5H33V7.5H3V28.5Z" fill="#20336B"/>
<path d="M21 10.5V12H30V10.5H21Z" fill="#00BAF2"/>
<path d="M47.4597 27.6254C46.4764 26.5921 45.7224 25.5381 45.1977 24.4634C44.673 23.3887 44.4104 22.1177 44.4097 20.6504C44.4097 19.1337 44.9597 17.8544 46.0597 16.8124C47.1597 15.7704 48.4847 15.2497 50.0347 15.2504C51.5847 15.2504 52.918 15.7714 54.0347 16.8134C55.1514 17.8554 55.7097 19.1344 55.7097 20.6504C55.7097 20.8004 55.664 20.9214 55.5727 21.0134C55.4814 21.1054 55.3604 21.1511 55.2097 21.1504C55.0764 21.1504 54.9597 21.1047 54.8597 21.0134C54.7597 20.9221 54.7097 20.8011 54.7097 20.6504C54.7097 19.4004 54.247 18.3547 53.3217 17.5134C52.3964 16.6721 51.3007 16.2511 50.0347 16.2504C48.768 16.2504 47.6807 16.6714 46.7727 17.5134C45.8647 18.3554 45.4104 19.4011 45.4097 20.6504C45.4097 22.0004 45.643 23.1464 46.1097 24.0884C46.5764 25.0304 47.2597 25.9761 48.1597 26.9254C48.2597 27.0254 48.3097 27.1421 48.3097 27.2754C48.3097 27.4087 48.2597 27.5254 48.1597 27.6254C48.0597 27.7254 47.943 27.7754 47.8097 27.7754C47.6764 27.7754 47.5597 27.7254 47.4597 27.6254Z" fill="#00BAF2"/>
<path d="M52.8597 27.9754C51.1264 27.5421 49.7097 26.6794 48.6097 25.3874C47.5097 24.0954 46.9597 22.5164 46.9597 20.6504C46.9597 19.8171 47.2597 19.1171 47.8597 18.5504C48.4597 17.9837 49.1847 17.7004 50.0347 17.7004C50.8847 17.7004 51.6097 17.9837 52.2097 18.5504C52.8097 19.1171 53.1097 19.8171 53.1097 20.6504C53.1097 21.2004 53.318 21.6631 53.7347 22.0384C54.1514 22.4137 54.643 22.6011 55.2097 22.6004C55.7764 22.6004 56.2597 22.4131 56.6597 22.0384C57.0597 21.6637 57.2597 21.2011 57.2597 20.6504C57.2597 18.7171 56.5514 17.0921 55.1347 15.7754C53.718 14.4587 52.0264 13.8004 50.0597 13.8004C48.093 13.8004 46.4014 14.4587 44.9847 15.7754C43.568 17.0921 42.8597 18.7087 42.8597 20.6254C42.8597 21.0254 42.8974 21.5254 42.9727 22.1254C43.048 22.7254 43.227 23.4254 43.5097 24.2254C43.5597 24.3754 43.5557 24.5087 43.4977 24.6254C43.4397 24.7421 43.3437 24.8254 43.2097 24.8754C43.0764 24.9254 42.9474 24.9214 42.8227 24.8634C42.698 24.8054 42.6104 24.7094 42.5597 24.5754C42.3097 23.9254 42.1307 23.2797 42.0227 22.6384C41.9147 21.9971 41.8604 21.3344 41.8597 20.6504C41.8597 18.4337 42.664 16.5754 44.2727 15.0754C45.8814 13.5754 47.802 12.8254 50.0347 12.8254C52.2847 12.8254 54.218 13.5754 55.8347 15.0754C57.4514 16.5754 58.2597 18.4337 58.2597 20.6504C58.2597 21.4837 57.964 22.1794 57.3727 22.7374C56.7814 23.2954 56.0604 23.5747 55.2097 23.5754C54.3597 23.5754 53.6307 23.2964 53.0227 22.7384C52.4147 22.1804 52.1104 21.4844 52.1097 20.6504C52.1097 20.1004 51.9057 19.6377 51.4977 19.2624C51.0897 18.8871 50.602 18.6997 50.0347 18.7004C49.468 18.7004 48.9804 18.8881 48.5717 19.2634C48.163 19.6387 47.959 20.1011 47.9597 20.6504C47.9597 22.2671 48.439 23.6171 49.3977 24.7004C50.3564 25.7837 51.5937 26.5421 53.1097 26.9754C53.2597 27.0254 53.3597 27.1087 53.4097 27.2254C53.4597 27.3421 53.468 27.4671 53.4347 27.6004C53.4014 27.7171 53.3347 27.8171 53.2347 27.9004C53.1347 27.9837 53.0097 28.0087 52.8597 27.9754Z" fill="#20336B"/>
<path d="M41.2597 15.6504C41.143 15.5671 41.072 15.4631 41.0467 15.3384C41.0214 15.2137 41.059 15.0844 41.1597 14.9504C42.193 13.5337 43.489 12.4337 45.0477 11.6504C46.6064 10.8671 48.2687 10.4754 50.0347 10.4754C51.8014 10.4754 53.468 10.8547 55.0347 11.6134C56.6014 12.3721 57.9097 13.4677 58.9597 14.9004C59.0597 15.0504 59.093 15.1837 59.0597 15.3004C59.0264 15.4171 58.9597 15.5171 58.8597 15.6004C58.7597 15.6837 58.643 15.7214 58.5097 15.7134C58.3764 15.7054 58.2597 15.6344 58.1597 15.5004C57.243 14.2004 56.064 13.2047 54.6227 12.5134C53.1814 11.8221 51.652 11.4761 50.0347 11.4754C48.418 11.4754 46.9014 11.8214 45.4847 12.5134C44.068 13.2054 42.893 14.2011 41.9597 15.5004C41.8597 15.6504 41.743 15.7337 41.6097 15.7504C41.4764 15.7671 41.3597 15.7337 41.2597 15.6504Z" fill="#00BAF2"/>
<path fill-rule="evenodd" clip-rule="evenodd" d="M55.0097 25.9254C53.5264 25.9254 52.2387 25.4254 51.1467 24.4254C50.0547 23.4254 49.509 22.1671 49.5097 20.6504C49.5097 20.5171 49.5557 20.4004 49.6477 20.3004C49.7397 20.2004 49.8604 20.1504 50.0097 20.1504C50.1597 20.1504 50.2807 20.2004 50.3727 20.3004C50.4647 20.4004 50.5104 20.5171 50.5097 20.6504C50.5097 21.9004 50.9597 22.9254 51.8597 23.7254C52.7597 24.5254 53.8097 24.9254 55.0097 24.9254C55.1097 24.9254 55.2514 24.9171 55.4347 24.9004C55.618 24.8837 55.8097 24.8587 56.0097 24.8254C56.1597 24.7921 56.289 24.8131 56.3977 24.8884C56.5064 24.9637 56.577 25.0761 56.6097 25.2254C56.643 25.3587 56.618 25.4754 56.5347 25.5754C56.4514 25.6754 56.343 25.7421 56.2097 25.7754C55.9097 25.8587 55.6474 25.9047 55.4227 25.9134C55.198 25.9221 55.0604 25.9261 55.0097 25.9254Z" fill="#20336B"/>
<path d="M44.5097 10.4254C44.3764 10.5087 44.243 10.5297 44.1097 10.4884C43.9764 10.4471 43.8764 10.3594 43.8097 10.2254C43.743 10.0921 43.7264 9.97139 43.7597 9.86339C43.793 9.75539 43.8764 9.65939 44.0097 9.57539C44.943 9.07539 45.918 8.69206 46.9347 8.42539C47.9514 8.15872 48.9847 8.02539 50.0347 8.02539C51.1014 8.02539 52.143 8.15472 53.1597 8.41339C54.1764 8.67206 55.1597 9.04272 56.1097 9.52539C56.2597 9.60872 56.3474 9.70872 56.3727 9.82539C56.398 9.94206 56.3854 10.0587 56.3347 10.1754C56.2847 10.2921 56.2014 10.3837 56.0847 10.4504C55.968 10.5171 55.8264 10.5087 55.6597 10.4254C54.7764 9.97539 53.8637 9.62972 52.9217 9.38839C51.9797 9.14706 51.0174 9.02606 50.0347 9.02539C49.068 9.02539 48.118 9.13806 47.1847 9.36339C46.2514 9.58872 45.3597 9.94272 44.5097 10.4254Z" fill="#20336B"/>
</svg>
