<svg width="36" height="36" viewBox="0 0 36 36" fill="none" xmlns="http://www.w3.org/2000/svg">
<path d="M35.9651 25.9594L32.0276 15.6712C31.9784 15.5429 31.8811 15.4388 31.7563 15.3811C31.6315 15.3235 31.4892 15.3168 31.3596 15.3625L27.2111 16.8426C27.1445 16.8665 27.0834 16.9035 27.0313 16.9515C26.9793 16.9995 26.9374 17.0574 26.9081 17.1219C26.8789 17.1863 26.8629 17.256 26.861 17.3268C26.8592 17.3975 26.8716 17.4679 26.8975 17.5338L27.2582 18.4479L24.4274 19.7922L19.7812 18.9197C19.3287 18.8351 18.8636 18.8447 18.415 18.948C17.9664 19.0514 17.5439 19.2461 17.174 19.5201L16.3436 20.1361L15.7937 19.7402C15.3787 19.443 14.9015 19.2443 14.3982 19.159C13.8949 19.0737 13.3788 19.1042 12.8891 19.248L11.106 19.7789L8.77017 18.3825L9.10556 17.5345C9.13146 17.4686 9.14387 17.3982 9.14205 17.3275C9.14024 17.2567 9.12423 17.187 9.09498 17.1226C9.06574 17.0581 9.02385 17.0002 8.9718 16.9522C8.91975 16.9042 8.8586 16.8672 8.79197 16.8433L4.6407 15.3625C4.51091 15.3164 4.36821 15.3228 4.24312 15.3805C4.11803 15.4382 4.02047 15.5425 3.97132 15.6712L0.0352019 25.9594C-0.0136023 26.0861 -0.0115924 26.2267 0.0408123 26.352C0.0932169 26.4772 0.191967 26.5774 0.316453 26.6316L4.25398 28.3282C4.31884 28.3562 4.38867 28.3709 4.45933 28.3715C4.52998 28.372 4.60002 28.3583 4.66527 28.3312C4.73053 28.3041 4.78968 28.2642 4.83921 28.2138C4.88874 28.1634 4.92763 28.1036 4.95359 28.0378L5.35015 27.0345L8.61408 28.8739C8.39413 29.1932 8.29284 29.5794 8.32778 29.9656C8.36271 30.3517 8.53165 30.7135 8.80533 30.9882C8.95927 31.1422 9.14213 31.2643 9.3434 31.3474C9.54467 31.4305 9.76038 31.4731 9.97815 31.4726H10.0196C10.0566 31.8852 10.2467 32.2689 10.5525 32.5482C10.8584 32.8275 11.2578 32.9821 11.672 32.9815H11.7149C11.7483 33.3692 11.9176 33.7325 12.193 34.0074C12.3469 34.1614 12.5298 34.2835 12.7311 34.3666C12.9323 34.4498 13.1481 34.4923 13.3658 34.4919H13.4073C13.4352 34.8061 13.5522 35.1059 13.7445 35.356C13.9369 35.6061 14.1966 35.7961 14.4931 35.9038C14.7897 36.0114 15.1108 36.0322 15.4188 35.9637C15.7268 35.8952 16.0088 35.7402 16.2318 35.517L16.8583 34.8912L17.7062 35.524C18.0655 35.7918 18.5093 35.9207 18.9561 35.8871C19.4029 35.8536 19.8225 35.6597 20.1377 35.3412L20.1974 35.2808C20.4636 35.009 20.6403 34.6623 20.7037 34.2872C21.0209 34.3768 21.3563 34.3803 21.6754 34.2974C21.9944 34.2145 22.2857 34.0482 22.5192 33.8154L22.5627 33.7719C22.8586 33.4766 23.0455 33.0896 23.0929 32.6743C23.4126 32.7695 23.7521 32.7763 24.0754 32.694C24.3987 32.6117 24.6936 32.4433 24.9288 32.2067L24.9583 32.1772C25.2468 31.8913 25.4318 31.5175 25.4842 31.1147C25.7689 31.1826 26.0656 31.1822 26.35 31.1134C26.6344 31.0446 26.8985 30.9094 27.1207 30.7189C27.3428 30.5285 27.5167 30.2881 27.6281 30.0175C27.7396 29.7469 27.7853 29.4538 27.7617 29.1621C27.7525 29.049 27.7329 28.937 27.7033 28.8274L30.7683 27.327L31.0495 28.0357C31.0753 28.1016 31.1141 28.1615 31.1636 28.212C31.2131 28.2625 31.2723 28.3025 31.3376 28.3296C31.4029 28.3567 31.473 28.3704 31.5437 28.3698C31.6144 28.3692 31.6843 28.3543 31.7491 28.3261L35.6866 26.6295C35.8101 26.5748 35.9079 26.4747 35.9597 26.35C36.0115 26.2253 36.0134 26.0855 35.9651 25.9594ZM4.17171 27.1449L1.20099 25.8638L4.77077 16.5297L5.64617 16.8412L3.95866 21.638C3.91204 21.77 3.91978 21.9151 3.98017 22.0415C4.04056 22.1678 4.14867 22.2649 4.28069 22.3116C4.41272 22.3582 4.55786 22.3504 4.68419 22.29C4.81051 22.2297 4.90767 22.1216 4.95429 21.9895L6.63758 17.1977L7.92079 17.6554L4.17171 27.1449ZM10.4064 30.2421C10.2925 30.3514 10.1404 30.4118 9.98253 30.4104C9.8247 30.4089 9.67371 30.3458 9.56187 30.2344C9.45004 30.123 9.38624 29.9723 9.38414 29.8145C9.38204 29.6566 9.44181 29.5043 9.55064 29.39L10.6757 28.2649C10.7603 28.1807 10.8679 28.1233 10.9851 28.1001C11.1022 28.0769 11.2236 28.089 11.334 28.1347C11.4443 28.1804 11.5386 28.2578 11.605 28.3571C11.6714 28.4563 11.707 28.573 11.7071 28.6924C11.7074 28.7718 11.6919 28.8504 11.6615 28.9237C11.631 28.9969 11.5863 29.0634 11.53 29.1192L10.4064 30.2421ZM12.1937 31.6597C12.1621 31.6906 12.1339 31.7236 12.1058 31.7567L12.1002 31.7504C12.0446 31.8085 11.978 31.855 11.9042 31.8871C11.8304 31.9192 11.7509 31.9362 11.6705 31.9371C11.59 31.9381 11.5102 31.9229 11.4357 31.8926C11.3611 31.8623 11.2934 31.8173 11.2365 31.7605C11.1796 31.7036 11.1346 31.6359 11.1042 31.5614C11.0738 31.4869 11.0586 31.4071 11.0595 31.3266C11.0603 31.2462 11.0773 31.1667 11.1093 31.0929C11.1413 31.0191 11.1877 30.9524 11.2459 30.8968L12.2781 29.8653C12.309 29.8343 12.3386 29.802 12.3667 29.7689L12.3716 29.7739C12.4856 29.6648 12.6379 29.6046 12.7957 29.6063C12.9535 29.6081 13.1044 29.6715 13.216 29.783C13.3277 29.8946 13.3912 30.0454 13.3931 30.2032C13.3949 30.3611 13.3349 30.5133 13.2259 30.6275L12.1937 31.6597ZM13.7912 33.2572C13.6763 33.3604 13.5261 33.4156 13.3717 33.4115C13.2173 33.4074 13.0703 33.3443 12.961 33.2352C12.8516 33.126 12.7883 32.9791 12.7839 32.8247C12.7796 32.6703 12.8346 32.5201 12.9376 32.405L14.0626 31.28C14.1172 31.2182 14.1838 31.1682 14.2585 31.1331C14.3331 31.098 14.4141 31.0786 14.4965 31.076C14.5789 31.0735 14.661 31.0878 14.7377 31.1181C14.8143 31.1485 14.884 31.1942 14.9423 31.2525C15.0006 31.3107 15.0464 31.3803 15.0768 31.457C15.1072 31.5336 15.1216 31.6157 15.1191 31.6981C15.1166 31.7805 15.0972 31.8615 15.0622 31.9362C15.0272 32.0108 14.9773 32.0775 14.9155 32.1322L13.7912 33.2572ZM16.6094 33.6411L15.4843 34.7661C15.3703 34.8752 15.2181 34.9353 15.0603 34.9336C14.9024 34.9319 14.7516 34.8685 14.6399 34.7569C14.5283 34.6453 14.4647 34.4945 14.4629 34.3367C14.461 34.1789 14.521 34.0266 14.63 33.9125L15.6622 32.881C15.6932 32.85 15.7227 32.8177 15.7508 32.7847L15.7558 32.7896C15.8698 32.6805 16.022 32.6204 16.1798 32.6221C16.3377 32.6238 16.4885 32.6872 16.6002 32.7988C16.7118 32.9103 16.7754 33.0611 16.7772 33.219C16.7791 33.3768 16.7191 33.529 16.6101 33.6432L16.6094 33.6411ZM26.4785 29.8723C26.3383 30.014 26.1499 30.0977 25.9508 30.1067C25.7516 30.1157 25.5564 30.0493 25.4041 29.9208L24.9928 29.5784C24.964 29.5366 24.9295 29.4992 24.8901 29.4673L23.9416 28.7051C23.8323 28.623 23.6953 28.5865 23.5596 28.6034C23.4239 28.6203 23.3001 28.6892 23.2143 28.7957C23.1284 28.9021 23.0873 29.0377 23.0996 29.1739C23.1118 29.3101 23.1765 29.4362 23.2799 29.5257L24.0984 30.1859C24.1211 30.2173 24.147 30.2463 24.1757 30.2724C24.257 30.3444 24.3227 30.4322 24.3688 30.5306C24.4149 30.6289 24.4404 30.7356 24.4437 30.8442C24.447 30.9527 24.428 31.0608 24.388 31.1617C24.3479 31.2627 24.2877 31.3544 24.2109 31.4311L24.1814 31.4607C24.048 31.5946 23.8713 31.6766 23.6829 31.6921C23.4945 31.7076 23.3068 31.6554 23.1534 31.545L22.3384 30.9614L22.33 30.9551L22.022 30.735C21.9083 30.6536 21.7669 30.6208 21.6289 30.6436C21.4909 30.6665 21.3676 30.7433 21.2862 30.857C21.2048 30.9708 21.1719 31.1122 21.1948 31.2502C21.2177 31.3882 21.2945 31.5115 21.4082 31.5929L21.7218 31.8172C21.8149 31.885 21.8922 31.9721 21.9483 32.0727C22.0045 32.1732 22.0381 32.2848 22.047 32.3996C22.0559 32.5144 22.0398 32.6298 21.9998 32.7378C21.9598 32.8458 21.8969 32.9438 21.8153 33.0251L21.7717 33.0687C21.6283 33.212 21.4356 33.2954 21.2329 33.3018C21.0302 33.3082 20.8327 33.2372 20.6805 33.1032L19.8016 32.3297C19.7511 32.2774 19.6903 32.236 19.6231 32.2083C19.5559 32.1805 19.4836 32.167 19.4109 32.1685C19.3382 32.1701 19.2666 32.1866 19.2006 32.2171C19.1346 32.2477 19.0756 32.2915 19.0273 32.3459C18.9791 32.4004 18.9426 32.4642 18.9202 32.5334C18.8978 32.6026 18.89 32.6756 18.8972 32.748C18.9044 32.8204 18.9265 32.8905 18.9621 32.9539C18.9977 33.0173 19.046 33.0727 19.1041 33.1165L19.4029 33.3809C19.4843 33.4525 19.5503 33.54 19.5967 33.6379C19.6431 33.7359 19.6691 33.8423 19.673 33.9506C19.6769 34.059 19.6586 34.167 19.6193 34.268C19.58 34.3691 19.5205 34.461 19.4444 34.5383L19.3846 34.5987C19.2489 34.7359 19.0682 34.8194 18.8758 34.8338C18.6835 34.8483 18.4923 34.7928 18.3376 34.6775L17.5783 34.1108C17.7388 33.8601 17.8288 33.5709 17.8391 33.2734C17.8493 32.976 17.7793 32.6812 17.6364 32.4201C17.4936 32.159 17.2831 31.9412 17.027 31.7894C16.7709 31.6377 16.4788 31.5577 16.1812 31.5577H16.1397C16.1026 31.1453 15.9126 30.7616 15.6069 30.4823C15.3012 30.2029 14.9021 30.048 14.488 30.0481H14.4451C14.4069 29.6296 14.2107 29.2414 13.8964 28.9624C13.5822 28.6835 13.1735 28.5346 12.7534 28.5462C12.7203 28.1585 12.5506 27.7952 12.2746 27.521C11.9633 27.2103 11.5415 27.0358 11.1017 27.0358C10.662 27.0358 10.2402 27.2103 9.92893 27.521L9.3615 28.0878L5.74039 26.0487L8.37572 19.3802L10.7621 20.8069C10.8249 20.8444 10.8949 20.8685 10.9675 20.8776C11.0402 20.8867 11.1139 20.8806 11.184 20.8596L13.1893 20.2626C13.5244 20.1639 13.8775 20.1428 14.2219 20.201C14.5663 20.2591 14.893 20.3949 15.1771 20.598L15.4541 20.7977L12.6353 22.8895C12.4261 23.0448 12.256 23.2467 12.1384 23.4791C12.0208 23.7115 11.9589 23.9681 11.9577 24.2286C11.9564 24.4891 12.0159 24.7463 12.1313 24.9799C12.2467 25.2134 12.4149 25.4168 12.6226 25.5741C13.0143 25.8682 13.4858 26.037 13.9751 26.0584C14.4645 26.0799 14.9489 25.953 15.3648 25.6943L17.5783 24.3014C17.8356 24.8147 18.3166 25.5122 19.1519 25.9418C20.1201 26.4396 21.2971 26.4523 22.6542 25.9798L26.3807 28.6636C26.4744 28.7312 26.5522 28.8183 26.6089 28.919C26.6656 29.0196 26.6998 29.1313 26.7091 29.2465C26.7184 29.3616 26.7026 29.4773 26.6627 29.5858C26.6229 29.6942 26.5601 29.7927 26.4785 29.8744V29.8723ZM27.1563 27.9204L23.0437 24.9602C22.9723 24.909 22.8893 24.8764 22.8021 24.8653C22.7149 24.8543 22.6264 24.8651 22.5445 24.897C21.3702 25.3526 20.395 25.3891 19.6441 25.0088C18.6498 24.5032 18.3454 23.3979 18.3426 23.3916C18.322 23.3111 18.2828 23.2366 18.228 23.1742C18.1733 23.1118 18.1046 23.0632 18.0275 23.0324C17.9504 23.0015 17.8671 22.9893 17.7844 22.9968C17.7017 23.0042 17.6219 23.0311 17.5515 23.0752L14.8037 24.7985C14.569 24.9444 14.2955 25.0158 14.0194 25.0032C13.7433 24.9907 13.4774 24.8948 13.2568 24.7282C13.1797 24.67 13.1172 24.5945 13.0744 24.5079C13.0315 24.4212 13.0094 24.3258 13.0099 24.2292C13.0104 24.1325 13.0334 24.0373 13.0771 23.9511C13.1208 23.8649 13.1841 23.7901 13.2618 23.7326L17.7998 20.3646C18.0529 20.1772 18.3419 20.044 18.6489 19.9734C18.9558 19.9027 19.274 19.8961 19.5836 19.954L24.3986 20.8582C24.5081 20.8792 24.6214 20.8646 24.7221 20.8167L27.6443 19.4287L30.3773 26.3447L27.1563 27.9204ZM31.8286 27.1428L28.0774 17.6505L29.3613 17.1928L31.0439 21.9846C31.0905 22.1166 31.1877 22.2247 31.314 22.2851C31.4403 22.3455 31.5855 22.3533 31.7175 22.3066C31.8495 22.26 31.9576 22.1629 32.018 22.0365C32.0784 21.9102 32.0861 21.7651 32.0395 21.633L30.352 16.8363L31.2274 16.5248L34.7972 25.8588L31.8286 27.1428Z" fill="#C8D0DB"/>
<path d="M18.004 16.5235C19.638 16.5235 21.2353 16.039 22.5939 15.1312C23.9526 14.2234 25.0115 12.933 25.6368 11.4234C26.2621 9.91377 26.4258 8.2526 26.107 6.64998C25.7882 5.04735 25.0013 3.57525 23.8459 2.41982C22.6905 1.26439 21.2184 0.477533 19.6157 0.158751C18.0131 -0.160031 16.352 0.0035797 14.8423 0.628893C13.3327 1.25421 12.0424 2.31314 11.1345 3.67178C10.2267 5.03042 9.74219 6.62775 9.74219 8.26177C9.74461 10.4522 10.6158 12.5522 12.1647 14.101C13.7135 15.6499 15.8135 16.5211 18.004 16.5235ZM18.004 1.0547C19.4294 1.0547 20.8228 1.47738 22.008 2.26931C23.1932 3.06123 24.1169 4.18682 24.6624 5.50374C25.2079 6.82066 25.3506 8.26976 25.0725 9.6678C24.7945 11.0658 24.108 12.35 23.1001 13.3579C22.0922 14.3659 20.808 15.0523 19.41 15.3304C18.0119 15.6084 16.5628 15.4657 15.2459 14.9202C13.929 14.3747 12.8034 13.451 12.0115 12.2658C11.2196 11.0806 10.7969 9.68719 10.7969 8.26177C10.7989 6.35096 11.5589 4.519 12.91 3.16786C14.2612 1.81672 16.0931 1.05674 18.004 1.0547Z" fill="#C8D0DB"/>
<path d="M18.004 14.4141C19.2208 14.4141 20.4103 14.0533 21.4221 13.3773C22.4338 12.7012 23.2224 11.7404 23.688 10.6162C24.1537 9.49197 24.2755 8.25493 24.0381 7.06149C23.8008 5.86804 23.2148 4.77179 22.3544 3.91137C21.4939 3.05094 20.3977 2.46498 19.2043 2.22759C18.0108 1.9902 16.7738 2.11204 15.6496 2.5777C14.5254 3.04336 13.5645 3.83192 12.8885 4.84368C12.2124 5.85543 11.8516 7.04493 11.8516 8.26176C11.8535 9.8929 12.5023 11.4567 13.6557 12.6101C14.809 13.7635 16.3728 14.4123 18.004 14.4141ZM18.004 3.16407C19.0122 3.16407 19.9978 3.46305 20.8361 4.02319C21.6744 4.58333 22.3278 5.37948 22.7136 6.31096C23.0995 7.24244 23.2004 8.26741 23.0037 9.25626C22.807 10.2451 22.3215 11.1534 21.6086 11.8664C20.8957 12.5793 19.9873 13.0648 18.9985 13.2615C18.0096 13.4582 16.9847 13.3572 16.0532 12.9714C15.1217 12.5856 14.3256 11.9322 13.7654 11.0939C13.2053 10.2556 12.9063 9.26998 12.9063 8.26176C12.9078 6.91022 13.4453 5.61447 14.401 4.65879C15.3567 3.70311 16.6525 3.16556 18.004 3.16407ZM28.617 8.26176C28.617 8.33101 28.6307 8.39958 28.6572 8.46356C28.6837 8.52754 28.7225 8.58568 28.7715 8.63465C28.8204 8.68361 28.8786 8.72246 28.9426 8.74896C29.0065 8.77546 29.0751 8.7891 29.1444 8.7891H32.0666C32.2064 8.7891 32.3406 8.73354 32.4395 8.63465C32.5384 8.53575 32.5939 8.40162 32.5939 8.26176C32.5939 8.12189 32.5384 7.98776 32.4395 7.88886C32.3406 7.78997 32.2064 7.73441 32.0666 7.73441H29.1444C29.0045 7.73441 28.8704 7.78997 28.7715 7.88886C28.6726 7.98776 28.617 8.12189 28.617 8.26176ZM28.0489 5.85776C28.1426 5.85848 28.2348 5.83421 28.3161 5.78744L30.507 4.50002C30.6282 4.42925 30.7164 4.31322 30.752 4.17747C30.7877 4.04172 30.768 3.89736 30.6972 3.77614C30.6264 3.65493 30.5104 3.5668 30.3747 3.53113C30.2389 3.49546 30.0946 3.51518 29.9734 3.58595L27.7817 4.87549C27.6807 4.9336 27.6018 5.02352 27.5574 5.13119C27.5129 5.23887 27.5053 5.35824 27.5358 5.47068C27.5663 5.58311 27.6332 5.68227 27.726 5.75268C27.8189 5.82309 27.9324 5.86078 28.0489 5.85987V5.85776ZM27.7817 11.648L29.9734 12.9376C30.0334 12.9726 30.0997 12.9955 30.1686 13.0049C30.2374 13.0143 30.3075 13.01 30.3747 12.9924C30.4419 12.9747 30.505 12.944 30.5603 12.902C30.6157 12.8599 30.6622 12.8074 30.6972 12.7474C30.7323 12.6873 30.7551 12.621 30.7645 12.5522C30.774 12.4833 30.7697 12.4133 30.752 12.346C30.7344 12.2788 30.7037 12.2157 30.6616 12.1604C30.6196 12.1051 30.567 12.0585 30.507 12.0235L28.3161 10.7368C28.2563 10.7004 28.19 10.6763 28.1208 10.6658C28.0516 10.6553 27.9811 10.6587 27.9133 10.6757C27.8454 10.6928 27.7816 10.7231 27.7257 10.7651C27.6697 10.807 27.6226 10.8596 27.5871 10.9199C27.5517 10.9802 27.5286 11.047 27.5192 11.1163C27.5098 11.1856 27.5143 11.2561 27.5324 11.3237C27.5505 11.3912 27.5819 11.4545 27.6247 11.5098C27.6675 11.5652 27.7208 11.6114 27.7817 11.6459V11.648ZM3.94141 8.7891H6.86361C7.00347 8.7891 7.13761 8.73354 7.2365 8.63465C7.3354 8.53575 7.39096 8.40162 7.39096 8.26176C7.39096 8.12189 7.3354 7.98776 7.2365 7.88886C7.13761 7.78997 7.00347 7.73441 6.86361 7.73441H3.94141C3.80155 7.73441 3.66742 7.78997 3.56852 7.88886C3.46962 7.98776 3.41406 8.12189 3.41406 8.26176C3.41406 8.40162 3.46962 8.53575 3.56852 8.63465C3.66742 8.73354 3.80155 8.7891 3.94141 8.7891ZM5.50095 4.50002L7.6919 5.78674C7.75164 5.82313 7.81802 5.84726 7.88718 5.85774C7.95633 5.86822 8.02688 5.86484 8.09472 5.8478C8.16256 5.83075 8.22633 5.80038 8.28231 5.75845C8.3383 5.71652 8.38539 5.66387 8.42083 5.60357C8.45627 5.54327 8.47937 5.47652 8.48877 5.40721C8.49817 5.3379 8.49368 5.26741 8.47557 5.19984C8.45747 5.13228 8.4261 5.069 8.3833 5.01367C8.3405 4.95835 8.28713 4.91209 8.22628 4.8776L6.03462 3.58595C5.97461 3.55091 5.90827 3.52803 5.83941 3.51862C5.77055 3.50922 5.70052 3.51347 5.6333 3.53113C5.49755 3.5668 5.38152 3.65493 5.31075 3.77614C5.23998 3.89736 5.22026 4.04172 5.25593 4.17747C5.2916 4.31322 5.37974 4.42925 5.50095 4.50002ZM7.6919 10.7389L5.50095 12.0235C5.37974 12.0943 5.2916 12.2103 5.25593 12.346C5.22026 12.4818 5.23998 12.6262 5.31075 12.7474C5.38152 12.8686 5.49755 12.9567 5.6333 12.9924C5.76905 13.0281 5.91341 13.0083 6.03462 12.9376L8.22628 11.6501C8.28713 11.6156 8.3405 11.5694 8.3833 11.5141C8.4261 11.4587 8.45747 11.3954 8.47557 11.3279C8.49368 11.2603 8.49817 11.1898 8.48877 11.1205C8.47937 11.0512 8.45627 10.9845 8.42083 10.9242C8.38539 10.8639 8.3383 10.8112 8.28231 10.7693C8.22633 10.7274 8.16256 10.697 8.09472 10.6799C8.02688 10.6629 7.95633 10.6595 7.88718 10.67C7.81802 10.6805 7.75164 10.7046 7.6919 10.741V10.7389Z" fill="#C8D0DB"/>
<path d="M16.823 10.5563C16.8724 10.6095 16.9322 10.6519 16.9988 10.6809C17.0653 10.7099 17.1371 10.7248 17.2097 10.7248C17.2823 10.7248 17.3541 10.7099 17.4206 10.6809C17.4871 10.6519 17.547 10.6095 17.5964 10.5563L21.2063 6.68913C21.2536 6.63835 21.2904 6.57875 21.3146 6.51374C21.3388 6.44873 21.35 6.37958 21.3476 6.31024C21.3451 6.2409 21.329 6.17273 21.3001 6.10962C21.2713 6.0465 21.2303 5.98969 21.1796 5.94241C21.1288 5.89514 21.0692 5.85832 21.0042 5.83408C20.9391 5.80984 20.87 5.79864 20.8007 5.80112C20.7313 5.8036 20.6631 5.81971 20.6 5.84854C20.5369 5.87737 20.4801 5.91834 20.4328 5.96913L17.209 9.4229L15.5791 7.67703C15.4837 7.57447 15.3513 7.51403 15.2113 7.50902C15.0713 7.50401 14.935 7.55483 14.8324 7.65031C14.7298 7.74579 14.6694 7.8781 14.6644 8.01814C14.6594 8.15818 14.7102 8.29447 14.8057 8.39703L16.823 10.5563Z" fill="#C8D0DB"/>
</svg>
