<svg width="30" height="36" viewBox="0 0 30 36" fill="none" xmlns="http://www.w3.org/2000/svg">
<path d="M15 0.660156L30 5.91016V18.0002C30 24.1907 26.2005 28.5182 22.656 31.2047C20.5174 32.8112 18.1711 34.1206 15.681 35.0972C15.6376 35.1139 15.5941 35.1304 15.5505 35.1467L15.513 35.1602L15.5025 35.1632L15.498 35.1647C15.498 35.1647 15.495 35.1647 15 33.7502L14.5035 35.1662L14.4975 35.1632L14.487 35.1602L14.4495 35.1452C14.2492 35.0712 14.0501 34.9936 13.8525 34.9127C11.5342 33.9567 9.34675 32.7102 7.3425 31.2032C3.8025 28.5197 0 24.1922 0 18.0017V5.91016L15 0.660156ZM15 33.7502L14.5035 35.1662L15 35.3402L15.4965 35.1662L15 33.7502ZM15 32.1422L15.0135 32.1362C17.0893 31.2789 19.0484 30.1626 20.844 28.8137C24.051 26.3852 27 22.8347 27 18.0002V8.04016L15 3.84016L3 8.04016V18.0002C3 22.8347 5.949 26.3822 9.156 28.8152C10.9556 30.1667 12.9192 31.2846 15 32.1422Z" fill="#20336B"/>
<path d="M10 20.6675H6L9.47 15.8134C9.6831 15.5693 9.83752 15.2761 9.92057 14.9578C10.0036 14.6394 10.0129 14.3051 9.94766 13.9823C9.88242 13.6595 9.74453 13.3574 9.54532 13.101C9.34612 12.8446 9.09131 12.641 8.80185 12.5072C8.51239 12.3734 8.19657 12.3131 7.88036 12.3313C7.56416 12.3495 7.25662 12.4456 6.98306 12.6118C6.70949 12.7779 6.47771 13.0094 6.30681 13.2871C6.1359 13.5648 6.03075 13.8809 6 14.2092M13 20.6675V12.3342H17M13 16.5009H16M20 20.6675V14.4175C20 13.865 20.2107 13.3351 20.5858 12.9444C20.9609 12.5537 21.4696 12.3342 22 12.3342C22.5304 12.3342 23.0391 12.5537 23.4142 12.9444C23.7893 13.3351 24 13.865 24 14.4175V20.6675M20 17.5425H24" stroke="#00BAF2" stroke-width="2" stroke-linecap="round" stroke-linejoin="round"/>
</svg>
