<svg width="48" height="48" viewBox="0 0 48 48" fill="none" xmlns="http://www.w3.org/2000/svg">
<g clip-path="url(#clip0_2259_5107)">
<path d="M24 48C37.2548 48 48 37.2548 48 24C48 10.7452 37.2548 0 24 0C10.7452 0 0 10.7452 0 24C0 37.2548 10.7452 48 24 48Z" fill="#20336B"/>
<path d="M33.9881 31.801L32.8616 17.6067C32.7914 16.6922 32.018 15.9758 31.1009 15.9758H28.8759V15.8758C28.8759 13.1873 26.6886 11 24.0001 11C21.3115 11 19.1243 13.1873 19.1243 15.8758V15.9758H16.8993C15.9821 15.9758 15.2087 16.6921 15.1387 17.6048L14.0119 31.8029C13.9247 32.9397 14.3191 34.0715 15.0938 34.908C15.8686 35.7444 16.9669 36.2242 18.1071 36.2242H29.893C31.0331 36.2242 32.1315 35.7445 32.9063 34.908C33.681 34.0715 34.0754 32.9397 33.9881 31.801ZM20.6017 15.8758C20.6017 14.002 22.1263 12.4775 24.0001 12.4775C25.8738 12.4775 27.3984 14.002 27.3984 15.8758V15.9758H20.6017V15.8758ZM31.8223 33.904C31.3189 34.4474 30.6338 34.7467 29.893 34.7467H18.1071C17.3663 34.7467 16.6812 34.4474 16.1778 33.904C15.6745 33.3606 15.4285 32.6545 15.485 31.9179L16.6117 17.7196C16.6232 17.5703 16.7495 17.4533 16.8993 17.4533H19.1243V19.2729C19.1243 19.6809 19.455 20.0117 19.863 20.0117C20.271 20.0117 20.6017 19.6809 20.6017 19.2729V17.4533H27.3984V19.2729C27.3984 19.6809 27.7292 20.0117 28.1371 20.0117C28.5451 20.0117 28.8759 19.6809 28.8759 19.2729V17.4533H31.1009C31.2506 17.4533 31.377 17.5703 31.3886 17.7216L32.515 31.9159C32.5717 32.6545 32.3256 33.3605 31.8223 33.904Z" fill="white"/>
</g>
<defs>
<clipPath id="clip0_2259_5107">
<rect width="48" height="48" fill="white"/>
</clipPath>
</defs>
</svg>
