<svg width="26" height="26" viewBox="0 0 26 26" fill="none" xmlns="http://www.w3.org/2000/svg">
<path fill-rule="evenodd" clip-rule="evenodd" d="M16.9528 20.1868L18.5514 21.7852C18.6576 21.8912 18.801 21.9507 18.951 21.9507C19.1011 21.9507 19.2445 21.8912 19.3507 21.7852L22.5472 18.5884C22.6505 18.4818 22.7077 18.339 22.7062 18.1908C22.7047 18.0426 22.6453 17.9008 22.5405 17.7961C22.4358 17.6913 22.2939 17.6318 22.1461 17.6305C21.9975 17.6292 21.8549 17.6862 21.7486 17.7892L18.951 20.5864L17.7521 19.3876C17.6458 19.2846 17.5032 19.2276 17.3546 19.229C17.2068 19.2302 17.0649 19.2897 16.9602 19.3945C16.8554 19.4993 16.796 19.641 16.7945 19.7892C16.793 19.9374 16.8502 20.0802 16.9528 20.1868ZM6.76594 10.2853C6.76594 9.9558 6.6352 9.63927 6.40195 9.40587C6.16869 9.17291 5.85226 9.04202 5.52243 9.04187H4.61835C4.28852 9.04187 3.97209 9.17298 3.73883 9.40587C3.50558 9.63927 3.37484 9.95558 3.37484 10.2853V11.1897C3.37484 11.5192 3.50558 11.8358 3.73883 12.0692C3.97209 12.302 4.28852 12.4332 4.61835 12.4332H5.52243C5.85226 12.4332 6.16869 12.302 6.40195 12.0692C6.6352 11.8358 6.76594 11.5192 6.76594 11.1897V10.2853ZM5.63533 10.2853V11.1897C5.63533 11.2046 5.63311 11.2192 5.62717 11.2329C5.62123 11.2466 5.61304 11.259 5.60264 11.2694C5.59224 11.2799 5.57962 11.2883 5.56551 11.2941C5.55214 11.2998 5.53729 11.3028 5.52243 11.3028H4.61835C4.60349 11.3028 4.58864 11.2998 4.57527 11.2941C4.56116 11.2883 4.54926 11.2799 4.53886 11.2694C4.52772 11.259 4.51955 11.2466 4.51361 11.2329C4.50841 11.2192 4.50545 11.2046 4.50545 11.1897V10.2853C4.50545 10.2554 4.51732 10.2266 4.53886 10.2056C4.54926 10.1951 4.56116 10.1866 4.57527 10.1809C4.58864 10.1752 4.60349 10.1723 4.61835 10.1723H5.52243C5.55289 10.1723 5.5811 10.1842 5.60264 10.2056C5.61304 10.216 5.62123 10.2284 5.62717 10.2421C5.63311 10.2558 5.63533 10.2705 5.63533 10.2853ZM6.76594 14.807C6.76594 14.4776 6.6352 14.161 6.40195 13.9276C6.16869 13.6947 5.85226 13.5638 5.52243 13.5636H4.61835C4.28852 13.5636 3.97209 13.6948 3.73883 13.9276C3.50558 14.161 3.37484 14.4773 3.37484 14.807V15.7114C3.37484 16.0409 3.50558 16.3575 3.73883 16.5909C3.97209 16.8237 4.28852 16.9549 4.61835 16.9549H5.52243C5.85226 16.9549 6.16869 16.8237 6.40195 16.5909C6.6352 16.3575 6.76594 16.0409 6.76594 15.7114V14.807ZM5.63533 14.807V15.7114C5.63533 15.7262 5.63311 15.741 5.62717 15.7546C5.62123 15.7683 5.61304 15.7807 5.60264 15.7911C5.59224 15.8017 5.57962 15.8101 5.56551 15.8158C5.55214 15.8216 5.53729 15.8245 5.52243 15.8245H4.61835C4.60349 15.8245 4.58864 15.8216 4.57527 15.8158C4.56116 15.8101 4.54926 15.8017 4.53886 15.7911C4.52772 15.7807 4.51955 15.7683 4.51361 15.7546C4.50841 15.741 4.50545 15.7262 4.50545 15.7114V14.807C4.50545 14.7771 4.51732 14.7483 4.53886 14.7274C4.54926 14.7168 4.56116 14.7084 4.57527 14.7027C4.58864 14.6969 4.60349 14.694 4.61835 14.694H5.52243C5.55289 14.694 5.5811 14.7059 5.60264 14.7274C5.61304 14.7378 5.62123 14.7501 5.62717 14.7639C5.63311 14.7775 5.63533 14.7923 5.63533 14.807ZM6.76594 19.3288C6.76594 18.9993 6.6352 18.6827 6.40195 18.4493C6.16869 18.2165 5.85226 18.0856 5.52243 18.0853H4.61835C4.28852 18.0853 3.97209 18.2165 3.73883 18.4493C3.50558 18.6828 3.37484 18.9991 3.37484 19.3288V20.2332C3.37484 20.5627 3.50558 20.8792 3.73883 21.1126C3.97209 21.3455 4.28852 21.4766 4.61835 21.4766H5.52243C5.85226 21.4766 6.16869 21.3455 6.40195 21.1126C6.6352 20.8792 6.76594 20.5627 6.76594 20.2332V19.3288ZM5.63533 19.3288V20.2332C5.63533 20.248 5.63311 20.2627 5.62717 20.2764C5.62123 20.2901 5.61304 20.3025 5.60264 20.3129C5.59224 20.3234 5.57962 20.3318 5.56551 20.3376C5.55214 20.3433 5.53729 20.3462 5.52243 20.3462H4.61835C4.60349 20.3462 4.58864 20.3433 4.57527 20.3376C4.56116 20.3318 4.54926 20.3234 4.53886 20.3129C4.52772 20.3025 4.51955 20.2901 4.51361 20.2764C4.50841 20.2627 4.50545 20.248 4.50545 20.2332V19.3288C4.50545 19.2989 4.51732 19.27 4.53886 19.2491C4.54926 19.2385 4.56116 19.2302 4.57527 19.2244C4.58864 19.2186 4.60349 19.2157 4.61835 19.2157H5.52243C5.55289 19.2157 5.5811 19.2276 5.60264 19.2491C5.61304 19.2595 5.62123 19.2719 5.62717 19.2856C5.63311 19.2993 5.63533 19.3139 5.63533 19.3288ZM11.2877 10.2853C11.2877 9.9558 11.157 9.63927 10.9237 9.40587C10.6905 9.17291 10.374 9.04202 10.0442 9.04187H9.14014C8.81032 9.04187 8.49384 9.17298 8.26059 9.40587C8.02733 9.63927 7.89659 9.95558 7.89659 10.2853V11.1897C7.89659 11.5192 8.02733 11.8358 8.26059 12.0692C8.49384 12.302 8.81032 12.4332 9.14014 12.4332H10.0442C10.374 12.4332 10.6905 12.302 10.9237 12.0692C11.157 11.8358 11.2877 11.5192 11.2877 11.1897V10.2853ZM10.1571 10.2853V11.1897C10.1571 11.2046 10.1541 11.2192 10.1489 11.2329C10.143 11.2466 10.1348 11.259 10.1244 11.2694C10.114 11.2799 10.1014 11.2883 10.0873 11.2941C10.0739 11.2998 10.059 11.3028 10.0442 11.3028H9.14014C9.12529 11.3028 9.1104 11.2998 9.09703 11.2941C9.08291 11.2883 9.07106 11.2799 9.06066 11.2694C9.04952 11.259 9.04135 11.2466 9.03541 11.2329C9.03021 11.2192 9.0272 11.2046 9.0272 11.1897V10.2853C9.0272 10.2554 9.03912 10.2266 9.06066 10.2056C9.07106 10.1951 9.08291 10.1866 9.09703 10.1809C9.1104 10.1752 9.12529 10.1723 9.14014 10.1723H10.0442C10.0746 10.1723 10.1029 10.1842 10.1244 10.2056C10.1348 10.216 10.143 10.2284 10.1489 10.2421C10.1541 10.2558 10.1571 10.2705 10.1571 10.2853ZM11.2877 14.807C11.2877 14.4776 11.157 14.161 10.9237 13.9276C10.6905 13.6947 10.374 13.5638 10.0442 13.5636H9.14014C8.81032 13.5636 8.49384 13.6948 8.26059 13.9276C8.02733 14.161 7.89659 14.4773 7.89659 14.807V15.7114C7.89659 16.0409 8.02733 16.3575 8.26059 16.5909C8.49384 16.8237 8.81032 16.9549 9.14014 16.9549H10.0442C10.374 16.9549 10.6905 16.8237 10.9237 16.5909C11.157 16.3575 11.2877 16.0409 11.2877 15.7114V14.807ZM10.1571 14.807V15.7114C10.1571 15.7262 10.1541 15.741 10.1489 15.7546C10.143 15.7683 10.1348 15.7807 10.1244 15.7911C10.114 15.8017 10.1014 15.8101 10.0873 15.8158C10.0739 15.8216 10.059 15.8245 10.0442 15.8245H9.14014C9.12529 15.8245 9.1104 15.8216 9.09703 15.8158C9.08291 15.8101 9.07106 15.8017 9.06066 15.7911C9.04952 15.7807 9.04135 15.7683 9.03541 15.7546C9.03021 15.741 9.0272 15.7262 9.0272 15.7114V14.807C9.0272 14.7771 9.03912 14.7483 9.06066 14.7274C9.07106 14.7168 9.08291 14.7084 9.09703 14.7027C9.1104 14.6969 9.12529 14.694 9.14014 14.694H10.0442C10.0746 14.694 10.1029 14.7059 10.1244 14.7274C10.1348 14.7378 10.143 14.7501 10.1489 14.7639C10.1541 14.7775 10.1571 14.7923 10.1571 14.807ZM11.2877 19.3288C11.2877 18.9993 11.157 18.6827 10.9237 18.4493C10.6905 18.2165 10.374 18.0856 10.0442 18.0853H9.14014C8.81032 18.0853 8.49384 18.2165 8.26059 18.4493C8.02733 18.6828 7.89659 18.9991 7.89659 19.3288V20.2332C7.89659 20.5627 8.02733 20.8792 8.26059 21.1126C8.49384 21.3455 8.81032 21.4766 9.14014 21.4766H10.0442C10.374 21.4766 10.6905 21.3455 10.9237 21.1126C11.157 20.8792 11.2877 20.5627 11.2877 20.2332V19.3288ZM10.1571 19.3288V20.2332C10.1571 20.248 10.1541 20.2627 10.1489 20.2764C10.143 20.2901 10.1348 20.3025 10.1244 20.3129C10.114 20.3234 10.1014 20.3318 10.0873 20.3376C10.0739 20.3433 10.059 20.3462 10.0442 20.3462H9.14014C9.12529 20.3462 9.1104 20.3433 9.09703 20.3376C9.08291 20.3318 9.07106 20.3234 9.06066 20.3129C9.04952 20.3025 9.04135 20.2901 9.03541 20.2764C9.03021 20.2627 9.0272 20.248 9.0272 20.2332V19.3288C9.0272 19.2989 9.03912 19.27 9.06066 19.2491C9.07106 19.2385 9.08291 19.2302 9.09703 19.2244C9.1104 19.2186 9.12529 19.2157 9.14014 19.2157H10.0442C10.0746 19.2157 10.1029 19.2276 10.1244 19.2491C10.1348 19.2595 10.143 19.2719 10.1489 19.2856C10.1541 19.2993 10.1571 19.3139 10.1571 19.3288ZM15.8095 10.2853C15.8095 9.9558 15.6788 9.63927 15.4455 9.40587C15.2122 9.17291 14.8958 9.04202 14.5659 9.04187H13.6619C13.3321 9.04187 13.0156 9.17298 12.7823 9.40587C12.5491 9.63927 12.4183 9.95558 12.4183 10.2853V11.1897C12.4183 11.5192 12.5491 11.8358 12.7823 12.0692C13.0156 12.302 13.3321 12.4332 13.6619 12.4332H14.5659C14.8958 12.4332 15.2122 12.302 15.4455 12.0692C15.6788 11.8358 15.8095 11.5192 15.8095 11.1897V10.2853ZM14.6789 10.2853V11.1897C14.6789 11.2046 14.6759 11.2192 14.6707 11.2329C14.6648 11.2466 14.6566 11.259 14.6455 11.2694C14.6351 11.2799 14.6232 11.2883 14.6091 11.2941C14.5957 11.2998 14.5808 11.3028 14.5659 11.3028H13.6619C13.647 11.3028 13.6322 11.2998 13.6188 11.2941C13.6047 11.2883 13.5921 11.2799 13.5824 11.2694C13.5713 11.259 13.5631 11.2466 13.5572 11.2329C13.552 11.2192 13.549 11.2046 13.549 11.1897V10.2853C13.549 10.2554 13.5609 10.2266 13.5824 10.2056C13.5921 10.1951 13.6047 10.1866 13.6188 10.1809C13.6322 10.1752 13.647 10.1723 13.6619 10.1723H14.5659C14.5964 10.1723 14.6247 10.1842 14.6455 10.2056C14.6566 10.216 14.6648 10.2284 14.6707 10.2421C14.6759 10.2558 14.6789 10.2705 14.6789 10.2853ZM20.3313 10.2853C20.3313 9.9558 20.2006 9.63927 19.9673 9.40587C19.734 9.17291 19.4176 9.04202 19.0877 9.04187H18.1837C17.8539 9.04187 17.5374 9.17298 17.3041 9.40587C17.0709 9.63927 16.9401 9.95558 16.9401 10.2853V11.1897C16.9401 11.5192 17.0709 11.8358 17.3041 12.0692C17.5374 12.302 17.8539 12.4332 18.1837 12.4332H19.0877C19.4176 12.4332 19.734 12.302 19.9673 12.0692C20.2006 11.8358 20.3313 11.5192 20.3313 11.1897V10.2853ZM19.2006 10.2853V11.1897C19.2006 11.2046 19.1977 11.2192 19.1925 11.2329C19.1865 11.2466 19.1784 11.259 19.1672 11.2694C19.1568 11.2799 19.1449 11.2883 19.1308 11.2941C19.1174 11.2998 19.1026 11.3028 19.0877 11.3028H18.1837C18.1688 11.3028 18.154 11.2998 18.1406 11.2941C18.1265 11.2883 18.1138 11.2799 18.1034 11.2694C18.093 11.259 18.0849 11.2466 18.0789 11.2329C18.073 11.2192 18.0708 11.2046 18.0708 11.1897V10.2853C18.0708 10.2554 18.0826 10.2266 18.1034 10.2056C18.1138 10.1951 18.1265 10.1866 18.1406 10.1809C18.154 10.1752 18.1688 10.1723 18.1837 10.1723H19.0877C19.1175 10.1723 19.1464 10.1842 19.1672 10.2056C19.1784 10.216 19.1865 10.2284 19.1925 10.2421C19.1977 10.2558 19.2006 10.2705 19.2006 10.2853Z" fill="#24BAF2"/>
<path fill-rule="evenodd" clip-rule="evenodd" d="M14.9879 23.7391H2.82584C2.0763 23.739 1.35795 23.4414 0.827553 22.9116C0.297896 22.3814 0 21.6626 0 20.9131V5.08694C0 4.33747 0.297896 3.61861 0.827553 3.08858C1.35795 2.55862 2.0763 2.26089 2.82584 2.26089H4.52175V1.69565C4.52175 1.24592 4.70004 0.814617 5.01873 0.496674C5.33667 0.178657 5.76754 0 6.21771 0C6.66714 0 7.09875 0.178657 7.41669 0.496674C7.73464 0.814617 7.9129 1.24592 7.9129 1.69565V2.26089H15.8258V1.69565C15.8258 1.24592 16.0049 0.814617 16.3228 0.496674C16.6408 0.178657 17.0723 0 17.5218 0C17.9712 0 18.4028 0.178657 18.7207 0.496674C19.0387 0.814617 19.2177 1.24592 19.2177 1.69565V2.26089H20.9129C21.6624 2.26089 22.3815 2.55862 22.9112 3.08858C23.4416 3.61861 23.7395 4.33747 23.7395 5.08694V14.9879C25.1197 16.1291 26 17.8535 26 19.7826C26 23.2141 23.2143 26 19.7823 26C18.8663 26.0007 17.9608 25.7982 17.1318 25.4073C16.3028 25.0164 15.5703 24.4467 14.9879 23.7391ZM19.7823 14.6956C22.5903 14.6956 24.8694 16.9752 24.8694 19.7826C24.8694 22.5901 22.5903 24.8696 19.7823 24.8696C16.975 24.8696 14.696 22.5901 14.696 19.7826C14.696 16.9752 16.975 14.6956 19.7823 14.6956ZM22.6089 14.2441V7.91306H1.13061V20.9131C1.13061 21.3629 1.3089 21.7942 1.62758 22.1119C1.78433 22.2694 1.97157 22.3944 2.17734 22.4797C2.38311 22.565 2.60373 22.6088 2.82584 22.6087H14.2443C13.8097 21.7609 13.5653 20.8 13.5653 19.7826C13.5653 16.3512 16.351 13.5652 19.7823 13.5652C20.8 13.5652 21.7605 13.8099 22.6089 14.2441ZM19.2177 3.39129V3.95653C19.2177 4.40626 19.0387 4.83756 18.7207 5.1555C18.4028 5.47352 17.9712 5.65218 17.5218 5.65218C17.0723 5.65218 16.6408 5.47352 16.3228 5.1555C16.0049 4.83756 15.8258 4.40626 15.8258 3.95653V3.39129H7.9129V3.95653C7.9129 4.40626 7.73464 4.83756 7.41669 5.1555C7.09875 5.47352 6.66714 5.65218 6.21771 5.65218C5.76754 5.65218 5.33667 5.47352 5.01873 5.1555C4.70004 4.83756 4.52175 4.40626 4.52175 3.95653V3.39129H2.82584C2.37641 3.39129 1.9448 3.56995 1.62686 3.88797C1.30892 4.20598 1.13061 4.63721 1.13061 5.08694V6.78258H22.6089V5.08694C22.6089 4.63721 22.4298 4.20598 22.1119 3.88797C21.7939 3.56995 21.3631 3.39129 20.9129 3.39129H19.2177ZM18.0871 1.69565V3.95653C18.0871 4.10644 18.0277 4.25018 17.9214 4.35619C17.8152 4.46219 17.6718 4.52177 17.5218 4.52177C17.3717 4.52177 17.2284 4.46219 17.1221 4.35619C17.0159 4.25018 16.9564 4.10644 16.9564 3.95653V1.69565C16.9564 1.54574 17.0159 1.40199 17.1221 1.29599C17.2284 1.18998 17.3717 1.13041 17.5218 1.13041C17.6718 1.13041 17.8152 1.18998 17.9214 1.29599C18.0277 1.40199 18.0871 1.54574 18.0871 1.69565ZM6.78229 1.69565V3.95653C6.78229 4.10644 6.72287 4.25018 6.61739 4.35619C6.51116 4.46219 6.36702 4.52177 6.21771 4.52177C6.06765 4.52177 5.92352 4.46219 5.81804 4.35619C5.71181 4.25018 5.65241 4.10644 5.65241 3.95653V1.69565C5.65241 1.54574 5.71181 1.40199 5.81804 1.29599C5.92352 1.18998 6.06765 1.13041 6.21771 1.13041C6.36702 1.13041 6.51116 1.18998 6.61739 1.29599C6.72287 1.40199 6.78229 1.54574 6.78229 1.69565Z" fill="#20336B"/>
</svg>
