<svg width="35" height="37" viewBox="0 0 35 37" fill="none" xmlns="http://www.w3.org/2000/svg">
<rect x="0.5" y="0.5" width="34" height="12.3824" rx="1.5" fill="white" stroke="#00BAF2"/>
<path d="M7.20215 7.49707H6.0918V6.91406H7.20215C7.39551 6.91406 7.55176 6.88281 7.6709 6.82031C7.79004 6.75781 7.87695 6.67188 7.93164 6.5625C7.98828 6.45117 8.0166 6.32422 8.0166 6.18164C8.0166 6.04688 7.98828 5.9209 7.93164 5.80371C7.87695 5.68457 7.79004 5.58887 7.6709 5.5166C7.55176 5.44434 7.39551 5.4082 7.20215 5.4082H6.31738V9.08789H5.58203V4.82227H7.20215C7.53223 4.82227 7.8125 4.88086 8.04297 4.99805C8.27539 5.11328 8.45215 5.27344 8.57324 5.47852C8.69434 5.68164 8.75488 5.91406 8.75488 6.17578C8.75488 6.45117 8.69434 6.6875 8.57324 6.88477C8.45215 7.08203 8.27539 7.2334 8.04297 7.33887C7.8125 7.44434 7.53223 7.49707 7.20215 7.49707ZM10.6299 5.39062L9.35547 9.08789H8.58496L10.1904 4.82227H10.6826L10.6299 5.39062ZM11.6963 9.08789L10.4189 5.39062L10.3633 4.82227H10.8584L12.4697 9.08789H11.6963ZM11.6348 7.50586V8.08887H9.31445V7.50586H11.6348ZM13.0205 4.82227L14.0107 6.8584L15.001 4.82227H15.8154L14.3799 7.51758V9.08789H13.6387V7.51758L12.2031 4.82227H13.0205ZM21.1592 4.82227V9.08789H20.4238L18.5107 6.03223V9.08789H17.7754V4.82227H18.5107L20.4297 7.88379V4.82227H21.1592ZM25.4365 6.83789V7.07227C25.4365 7.39453 25.3945 7.68359 25.3105 7.93945C25.2266 8.19531 25.1064 8.41309 24.9502 8.59277C24.7959 8.77246 24.6104 8.91016 24.3936 9.00586C24.1768 9.09961 23.9365 9.14648 23.6729 9.14648C23.4111 9.14648 23.1719 9.09961 22.9551 9.00586C22.7402 8.91016 22.5537 8.77246 22.3955 8.59277C22.2373 8.41309 22.1143 8.19531 22.0264 7.93945C21.9404 7.68359 21.8975 7.39453 21.8975 7.07227V6.83789C21.8975 6.51562 21.9404 6.22754 22.0264 5.97363C22.1123 5.71777 22.2334 5.5 22.3896 5.32031C22.5479 5.13867 22.7344 5.00098 22.9492 4.90723C23.166 4.81152 23.4053 4.76367 23.667 4.76367C23.9307 4.76367 24.1709 4.81152 24.3877 4.90723C24.6045 5.00098 24.791 5.13867 24.9473 5.32031C25.1035 5.5 25.2236 5.71777 25.3076 5.97363C25.3936 6.22754 25.4365 6.51562 25.4365 6.83789ZM24.7012 7.07227V6.83203C24.7012 6.59375 24.6777 6.38379 24.6309 6.20215C24.5859 6.01855 24.5186 5.86523 24.4287 5.74219C24.3408 5.61719 24.2324 5.52344 24.1035 5.46094C23.9746 5.39648 23.8291 5.36426 23.667 5.36426C23.5049 5.36426 23.3604 5.39648 23.2334 5.46094C23.1064 5.52344 22.998 5.61719 22.9082 5.74219C22.8203 5.86523 22.7529 6.01855 22.7061 6.20215C22.6592 6.38379 22.6357 6.59375 22.6357 6.83203V7.07227C22.6357 7.31055 22.6592 7.52148 22.7061 7.70508C22.7529 7.88867 22.8213 8.04395 22.9111 8.1709C23.0029 8.2959 23.1123 8.39062 23.2393 8.45508C23.3662 8.51758 23.5107 8.54883 23.6729 8.54883C23.8369 8.54883 23.9824 8.51758 24.1094 8.45508C24.2363 8.39062 24.3438 8.2959 24.4316 8.1709C24.5195 8.04395 24.5859 7.88867 24.6309 7.70508C24.6777 7.52148 24.7012 7.31055 24.7012 7.07227ZM27.2412 8.12988L28.0908 4.82227H28.5361L28.4863 5.6748L27.5781 9.08789H27.1152L27.2412 8.12988ZM26.6055 4.82227L27.2939 8.10352L27.3555 9.08789H26.8633L25.876 4.82227H26.6055ZM29.5 8.09473L30.1797 4.82227H30.9121L29.9248 9.08789H29.4326L29.5 8.09473ZM28.709 4.82227L29.5498 8.13867L29.6729 9.08789H29.21L28.3164 5.6748L28.2695 4.82227H28.709Z" fill="#20336B"/>
<path d="M16.9329 33.2714L17.0199 30.8417L16.7575 30.6437C13.9348 28.5136 11.8798 25.5248 10.9016 22.1266C10.7996 21.7722 10.8117 21.3947 10.9363 21.0475C11.0608 20.7004 11.2915 20.4013 11.5956 20.1927C12.3585 19.669 13.3968 19.8273 13.9692 20.5544L15.6897 22.7397L16.0788 11.866C16.1108 10.9724 16.8611 10.2739 17.7547 10.3059C18.6483 10.3378 19.3468 11.0882 19.3148 11.9818L18.9772 21.4157L18.9205 23.0031L19.1187 17.461C19.1508 16.5674 19.9011 15.8689 20.7947 15.9009C21.6883 15.9329 22.3867 16.6832 22.3548 17.5767L22.1844 22.3401L22.1565 23.1189L22.317 18.6315C22.349 17.7378 23.0994 17.0393 23.993 17.0713C24.8866 17.1033 25.585 17.8536 25.553 18.7473L25.4204 22.4559L25.3925 23.2347L25.4867 20.6016C25.5187 19.708 26.269 19.0095 27.1626 19.0415C28.0563 19.0734 28.7547 19.8238 28.7227 20.7174L28.4995 26.9564C28.4454 28.4673 27.8144 29.9001 26.7361 30.9598L26.641 33.6188L16.9329 33.2714Z" fill="#20336B" stroke="white" stroke-width="0.5"/>
</svg>
