<svg width="396" height="204" viewBox="0 0 396 204" fill="none" xmlns="http://www.w3.org/2000/svg">
<path d="M2.74402 11.108V15H0.952021V4.948H4.97002C7.21002 4.948 8.61002 5.998 8.61002 8.028C8.61002 10.03 7.21002 11.108 4.97002 11.108H2.74402ZM2.74402 9.568H4.87202C6.16002 9.568 6.84602 9.008 6.84602 8.028C6.84602 7.034 6.16002 6.488 4.87202 6.488H2.74402V9.568ZM13.763 7.636V9.316C13.553 9.288 13.385 9.274 13.147 9.274C12.083 9.274 11.271 9.96 11.271 11.136V15H9.591V7.65H11.271V8.742C11.593 8.056 12.349 7.608 13.287 7.608C13.483 7.608 13.637 7.622 13.763 7.636ZM21.1895 11.332C21.1895 13.614 19.7195 15.154 17.6475 15.154C15.5755 15.154 14.1055 13.614 14.1055 11.332C14.1055 9.05 15.5755 7.51 17.6475 7.51C19.7195 7.51 21.1895 9.05 21.1895 11.332ZM15.7995 11.332C15.7995 12.83 16.5135 13.74 17.6475 13.74C18.7815 13.74 19.4955 12.83 19.4955 11.332C19.4955 9.834 18.7815 8.924 17.6475 8.924C16.5135 8.924 15.7995 9.834 15.7995 11.332ZM25.2692 15.154C23.2112 15.154 22.0352 13.418 22.0352 11.332C22.0352 9.246 23.2112 7.51 25.2692 7.51C26.2212 7.51 26.9212 7.888 27.3832 8.434V4.948H29.0632V15H27.3832V14.23C26.9212 14.776 26.2212 15.154 25.2692 15.154ZM27.4252 11.122C27.4252 9.736 26.6412 8.98 25.6052 8.98C24.3872 8.98 23.7292 9.932 23.7292 11.332C23.7292 12.732 24.3872 13.684 25.6052 13.684C26.6412 13.684 27.4252 12.914 27.4252 11.556V11.122ZM36.9414 7.65V15H35.2614V14.216C34.8414 14.706 34.2114 15.154 33.2594 15.154C31.7194 15.154 30.7674 14.104 30.7674 12.522V7.65H32.4474V12.158C32.4474 13.054 32.8394 13.628 33.7494 13.628C34.5054 13.628 35.2614 13.068 35.2614 12.018V7.65H36.9414ZM39.9301 11.332C39.9301 12.83 40.7141 13.698 41.8621 13.698C42.7581 13.698 43.3041 13.11 43.5141 12.298L44.9561 13.026C44.5781 14.216 43.4581 15.154 41.8621 15.154C39.7621 15.154 38.2501 13.6 38.2501 11.332C38.2501 9.064 39.7621 7.51 41.8621 7.51C43.4441 7.51 44.5361 8.406 44.9281 9.582L43.5141 10.352C43.3041 9.554 42.7581 8.952 41.8621 8.952C40.7141 8.952 39.9301 9.834 39.9301 11.332ZM46.1258 13.152V9.078H45.1038V7.65H46.1258V5.494H47.7778V7.65H49.3178V9.078H47.7778V12.886C47.7778 13.544 48.1558 13.614 48.7578 13.614C49.0378 13.614 49.1918 13.6 49.4438 13.572V14.986C49.1358 15.042 48.7158 15.084 48.2818 15.084C46.8818 15.084 46.1258 14.65 46.1258 13.152ZM56.9611 4.85C57.4651 4.85 57.8944 4.93867 58.2491 5.116C58.6131 5.284 58.8931 5.52667 59.0891 5.844C59.2851 6.16133 59.3831 6.54867 59.3831 7.006C59.3831 7.594 59.1917 8.09333 58.8091 8.504C58.4357 8.91467 57.9597 9.288 57.3811 9.624L60.0831 12.228C60.3257 11.9387 60.5217 11.6073 60.6711 11.234C60.8297 10.8513 60.9604 10.4407 61.0631 10.002H62.3091C62.1597 10.5993 61.9731 11.1547 61.7491 11.668C61.5251 12.1813 61.2357 12.6293 60.8811 13.012L62.9251 15H61.2591L60.0411 13.824C59.8171 14.02 59.5837 14.202 59.3411 14.37C59.1077 14.5287 58.8511 14.664 58.5711 14.776C58.2911 14.888 57.9877 14.9767 57.6611 15.042C57.3437 15.1073 56.9891 15.14 56.5971 15.14C55.9531 15.14 55.3931 15.0373 54.9171 14.832C54.4504 14.6173 54.0864 14.3047 53.8251 13.894C53.5731 13.4833 53.4471 12.984 53.4471 12.396C53.4471 11.92 53.5311 11.5093 53.6991 11.164C53.8764 10.8187 54.1284 10.5107 54.4551 10.24C54.7817 9.96933 55.1644 9.708 55.6031 9.456C55.4071 9.232 55.2157 8.99867 55.0291 8.756C54.8424 8.51333 54.6884 8.252 54.5671 7.972C54.4457 7.68267 54.3851 7.37 54.3851 7.034C54.3851 6.57667 54.4877 6.18467 54.6931 5.858C54.8984 5.53133 55.1924 5.284 55.5751 5.116C55.9671 4.93867 56.4291 4.85 56.9611 4.85ZM56.3451 10.226C56.0091 10.422 55.7197 10.6227 55.4771 10.828C55.2437 11.024 55.0617 11.2433 54.9311 11.486C54.8004 11.7287 54.7351 12.018 54.7351 12.354C54.7351 12.8673 54.9077 13.278 55.2531 13.586C55.5984 13.894 56.0604 14.048 56.6391 14.048C57.2364 14.048 57.7497 13.95 58.1791 13.754C58.6084 13.558 58.9677 13.3247 59.2571 13.054L56.3451 10.226ZM56.9191 5.858C56.5271 5.858 56.2051 5.96067 55.9531 6.166C55.7104 6.37133 55.5891 6.656 55.5891 7.02C55.5891 7.356 55.6777 7.66867 55.8551 7.958C56.0324 8.238 56.2891 8.55067 56.6251 8.896C57.1757 8.57867 57.5677 8.28 57.8011 8C58.0437 7.71067 58.1651 7.37933 58.1651 7.006C58.1651 6.67 58.0531 6.39467 57.8291 6.18C57.6051 5.96533 57.3017 5.858 56.9191 5.858ZM65.7737 13.04L67.1458 11.906C67.8458 12.998 68.8958 13.628 70.0438 13.628C71.1778 13.628 72.0318 13.11 72.0318 12.144C72.0318 11.122 70.9818 10.982 69.4838 10.618C67.9718 10.254 66.3478 9.806 66.3478 7.846C66.3478 5.984 67.9438 4.794 69.9738 4.794C71.6958 4.794 73.0397 5.606 73.7118 6.656L72.3958 7.79C71.8358 6.922 71.0938 6.32 69.9178 6.32C68.8398 6.32 68.0978 6.866 68.0978 7.664C68.0978 8.546 68.8678 8.728 70.2258 9.036C71.8498 9.4 73.7958 9.778 73.7958 11.962C73.7958 13.936 72.0598 15.154 69.9878 15.154C68.2658 15.154 66.5578 14.328 65.7737 13.04ZM78.2283 15.154C76.1283 15.154 74.6583 13.6 74.6583 11.332C74.6583 9.176 76.1143 7.51 78.1583 7.51C80.2863 7.51 81.4203 9.12 81.4203 11.136V11.696H76.2683C76.3943 12.956 77.1503 13.726 78.2283 13.726C79.0543 13.726 79.7123 13.306 79.9363 12.55L81.3783 13.096C80.8603 14.384 79.6983 15.154 78.2283 15.154ZM78.1443 8.924C77.2763 8.924 76.6043 9.442 76.3523 10.436H79.7263C79.7123 9.624 79.2083 8.924 78.1443 8.924ZM86.8528 7.636V9.316C86.6428 9.288 86.4748 9.274 86.2368 9.274C85.1728 9.274 84.3608 9.96 84.3608 11.136V15H82.6808V7.65H84.3608V8.742C84.6828 8.056 85.4388 7.608 86.3768 7.608C86.5728 7.608 86.7268 7.622 86.8528 7.636ZM91.6776 15H89.9836L87.2956 7.65H89.0596L90.8516 12.984L92.6296 7.65H94.3656L91.6776 15ZM95.2446 6.67V4.948H96.9806V6.67H95.2446ZM96.9526 7.65V15H95.2726V7.65H96.9526ZM99.9359 11.332C99.9359 12.83 100.72 13.698 101.868 13.698C102.764 13.698 103.31 13.11 103.52 12.298L104.962 13.026C104.584 14.216 103.464 15.154 101.868 15.154C99.7679 15.154 98.2559 13.6 98.2559 11.332C98.2559 9.064 99.7679 7.51 101.868 7.51C103.45 7.51 104.542 8.406 104.934 9.582L103.52 10.352C103.31 9.554 102.764 8.952 101.868 8.952C100.72 8.952 99.9359 9.834 99.9359 11.332ZM109.086 15.154C106.986 15.154 105.516 13.6 105.516 11.332C105.516 9.176 106.972 7.51 109.016 7.51C111.144 7.51 112.278 9.12 112.278 11.136V11.696H107.126C107.252 12.956 108.008 13.726 109.086 13.726C109.912 13.726 110.57 13.306 110.794 12.55L112.236 13.096C111.718 14.384 110.556 15.154 109.086 15.154ZM109.002 8.924C108.134 8.924 107.462 9.442 107.21 10.436H110.584C110.57 9.624 110.066 8.924 109.002 8.924ZM112.768 13.6L114.028 12.592C114.462 13.306 115.302 13.782 116.156 13.782C116.87 13.782 117.528 13.53 117.528 12.872C117.528 12.242 116.912 12.172 115.75 11.934C114.588 11.696 113.258 11.402 113.258 9.834C113.258 8.49 114.434 7.51 116.128 7.51C117.416 7.51 118.564 8.084 119.096 8.896L117.962 9.918C117.542 9.26 116.842 8.882 116.03 8.882C115.344 8.882 114.896 9.19 114.896 9.68C114.896 10.212 115.428 10.31 116.352 10.506C117.598 10.772 119.166 11.038 119.166 12.718C119.166 14.202 117.808 15.154 116.142 15.154C114.784 15.154 113.426 14.608 112.768 13.6ZM2.22602 27.974C2.22602 30.144 3.40202 31.572 5.05402 31.572C6.23002 31.572 7.08402 30.858 7.39202 29.682L9.07202 30.256C8.48402 32.034 7.08402 33.154 5.05402 33.154C2.38002 33.154 0.434021 31.026 0.434021 27.974C0.434021 24.922 2.38002 22.794 5.05402 22.794C7.08402 22.794 8.48402 23.914 9.07202 25.692L7.39202 26.266C7.08402 25.09 6.23002 24.376 5.05402 24.376C3.40202 24.376 2.22602 25.804 2.22602 27.974ZM12.1659 33.126C10.7659 33.126 9.68791 32.272 9.68791 30.956C9.68791 29.556 10.7379 28.94 12.1519 28.646L14.1819 28.226V28.1C14.1819 27.4 13.8179 26.966 12.9219 26.966C12.1239 26.966 11.7039 27.33 11.5079 28.044L9.92591 27.68C10.2899 26.462 11.3679 25.51 12.9919 25.51C14.7559 25.51 15.8199 26.35 15.8199 28.044V31.208C15.8199 31.628 16.0019 31.754 16.4639 31.698V33C15.2459 33.14 14.6019 32.902 14.3499 32.3C13.8879 32.818 13.1179 33.126 12.1659 33.126ZM14.1819 30.41V29.514L12.5999 29.85C11.8859 30.004 11.3539 30.228 11.3539 30.886C11.3539 31.46 11.7739 31.782 12.4179 31.782C13.3139 31.782 14.1819 31.306 14.1819 30.41ZM17.8114 31.152V27.078H16.7894V25.65H17.8114V23.494H19.4634V25.65H21.0034V27.078H19.4634V30.886C19.4634 31.544 19.8414 31.614 20.4434 31.614C20.7234 31.614 20.8774 31.6 21.1294 31.572V32.986C20.8214 33.042 20.4014 33.084 19.9674 33.084C18.5674 33.084 17.8114 32.65 17.8114 31.152ZM25.4275 33.154C23.3275 33.154 21.8575 31.6 21.8575 29.332C21.8575 27.176 23.3135 25.51 25.3575 25.51C27.4855 25.51 28.6195 27.12 28.6195 29.136V29.696H23.4675C23.5935 30.956 24.3495 31.726 25.4275 31.726C26.2535 31.726 26.9115 31.306 27.1355 30.55L28.5775 31.096C28.0595 32.384 26.8975 33.154 25.4275 33.154ZM25.3435 26.924C24.4755 26.924 23.8035 27.442 23.5515 28.436H26.9255C26.9115 27.624 26.4075 26.924 25.3435 26.924ZM36.418 32.258C36.418 34.428 34.934 35.674 32.834 35.674C31.14 35.674 29.95 34.96 29.488 33.532L31.056 32.972C31.28 33.798 31.91 34.316 32.834 34.316C33.968 34.316 34.738 33.756 34.738 32.412V31.894C34.346 32.412 33.604 32.818 32.666 32.818C30.65 32.818 29.446 31.18 29.446 29.164C29.446 27.148 30.65 25.51 32.666 25.51C33.59 25.51 34.346 25.916 34.738 26.434V25.65H36.418V32.258ZM34.766 29.094C34.766 27.75 34.038 26.98 32.988 26.98C31.826 26.98 31.14 27.792 31.14 29.164C31.14 30.522 31.826 31.348 32.988 31.348C34.038 31.348 34.766 30.578 34.766 29.262V29.094ZM44.8145 29.332C44.8145 31.614 43.3445 33.154 41.2725 33.154C39.2005 33.154 37.7305 31.614 37.7305 29.332C37.7305 27.05 39.2005 25.51 41.2725 25.51C43.3445 25.51 44.8145 27.05 44.8145 29.332ZM39.4245 29.332C39.4245 30.83 40.1385 31.74 41.2725 31.74C42.4065 31.74 43.1205 30.83 43.1205 29.332C43.1205 27.834 42.4065 26.924 41.2725 26.924C40.1385 26.924 39.4245 27.834 39.4245 29.332ZM50.2942 25.636V27.316C50.0842 27.288 49.9162 27.274 49.6782 27.274C48.6142 27.274 47.8022 27.96 47.8022 29.136V33H46.1222V25.65H47.8022V26.742C48.1242 26.056 48.8802 25.608 49.8182 25.608C50.0142 25.608 50.1682 25.622 50.2942 25.636ZM51.4263 24.67V22.948H53.1623V24.67H51.4263ZM53.1343 25.65V33H51.4543V25.65H53.1343ZM58.0076 33.154C55.9076 33.154 54.4376 31.6 54.4376 29.332C54.4376 27.176 55.8936 25.51 57.9376 25.51C60.0656 25.51 61.1996 27.12 61.1996 29.136V29.696H56.0476C56.1736 30.956 56.9296 31.726 58.0076 31.726C58.8336 31.726 59.4916 31.306 59.7156 30.55L61.1576 31.096C60.6396 32.384 59.4776 33.154 58.0076 33.154ZM57.9236 26.924C57.0556 26.924 56.3836 27.442 56.1316 28.436H59.5056C59.4916 27.624 58.9876 26.924 57.9236 26.924ZM61.6901 31.6L62.9501 30.592C63.3841 31.306 64.2241 31.782 65.0781 31.782C65.7921 31.782 66.4501 31.53 66.4501 30.872C66.4501 30.242 65.8341 30.172 64.6721 29.934C63.5101 29.696 62.1801 29.402 62.1801 27.834C62.1801 26.49 63.3561 25.51 65.0501 25.51C66.3381 25.51 67.4861 26.084 68.0181 26.896L66.8841 27.918C66.4641 27.26 65.7641 26.882 64.9521 26.882C64.2661 26.882 63.8181 27.19 63.8181 27.68C63.8181 28.212 64.3501 28.31 65.2741 28.506C66.5201 28.772 68.0881 29.038 68.0881 30.718C68.0881 32.202 66.7301 33.154 65.0641 33.154C63.7061 33.154 62.3481 32.608 61.6901 31.6Z" fill="#20336B"/>
<path d="M31 80L33.8868 75H28.1132L31 80ZM30.5 44V75.5H31.5V44H30.5Z" fill="#20336B"/>
<path d="M103 115L98 112.113V117.887L103 115ZM71 115.5H98.5V114.5H71V115.5Z" fill="#20336B"/>
<path d="M35 141.5C50.1878 141.5 62.5 129.188 62.5 114C62.5 98.8122 50.1878 86.5 35 86.5C19.8122 86.5 7.5 98.8122 7.5 114C7.5 129.188 19.8122 141.5 35 141.5Z" stroke="#20336B"/>
<path d="M35.0004 104.25C32.9409 104.25 31.2504 105.941 31.2504 108V108.75H27.5469L27.5004 109.453L26.7504 122.953L26.7031 123.75H43.2969L43.2504 122.953L42.5004 109.453L42.4531 108.75H38.7504V108C38.7504 105.941 37.0599 104.25 35.0004 104.25ZM35.0004 105.75C35.5971 105.75 36.1694 105.987 36.5914 106.409C37.0133 106.831 37.2504 107.403 37.2504 108V108.75H32.7504V108C32.7504 107.403 32.9874 106.831 33.4094 106.409C33.8313 105.987 34.4036 105.75 35.0004 105.75ZM28.9531 110.25H31.2504V112.5H32.7504V110.25H37.2504V112.5H38.7504V110.25H41.0476L41.7039 122.25H28.2976L28.9531 110.25Z" fill="#20336B"/>
<path d="M7.66491 165V154.948H11.0249C14.1469 154.948 16.0789 156.908 16.0789 159.974C16.0789 163.04 14.1469 165 11.0249 165H7.66491ZM9.41491 163.46H11.0249C13.0969 163.46 14.3149 162.088 14.3149 159.974C14.3149 157.846 13.0969 156.488 11.0109 156.488H9.41491V163.46ZM20.5193 165.154C18.4193 165.154 16.9493 163.6 16.9493 161.332C16.9493 159.176 18.4053 157.51 20.4493 157.51C22.5773 157.51 23.7113 159.12 23.7113 161.136V161.696H18.5593C18.6853 162.956 19.4413 163.726 20.5193 163.726C21.3453 163.726 22.0033 163.306 22.2273 162.55L23.6693 163.096C23.1513 164.384 21.9893 165.154 20.5193 165.154ZM20.4353 158.924C19.5673 158.924 18.8953 159.442 18.6433 160.436H22.0173C22.0033 159.624 21.4993 158.924 20.4353 158.924ZM26.6518 154.948V165H24.9718V154.948H26.6518ZM28.3892 156.67V154.948H30.1252V156.67H28.3892ZM30.0972 157.65V165H28.4172V157.65H30.0972ZM35.3905 165H33.6965L31.0085 157.65H32.7725L34.5645 162.984L36.3425 157.65H38.0785L35.3905 165ZM41.9158 165.154C39.8158 165.154 38.3458 163.6 38.3458 161.332C38.3458 159.176 39.8018 157.51 41.8458 157.51C43.9738 157.51 45.1078 159.12 45.1078 161.136V161.696H39.9558C40.0818 162.956 40.8378 163.726 41.9158 163.726C42.7418 163.726 43.3998 163.306 43.6238 162.55L45.0658 163.096C44.5478 164.384 43.3858 165.154 41.9158 165.154ZM41.8318 158.924C40.9638 158.924 40.2918 159.442 40.0398 160.436H43.4138C43.3998 159.624 42.8958 158.924 41.8318 158.924ZM50.5403 157.636V159.316C50.3303 159.288 50.1623 159.274 49.9243 159.274C48.8603 159.274 48.0483 159.96 48.0483 161.136V165H46.3683V157.65H48.0483V158.742C48.3703 158.056 49.1263 157.608 50.0643 157.608C50.2603 157.608 50.4143 157.622 50.5403 157.636ZM55.0291 165.686C54.6091 166.806 53.9651 167.576 52.4391 167.576C52.0891 167.576 51.9911 167.562 51.7531 167.534V166.12C51.9771 166.148 52.1031 166.162 52.3131 166.162C52.8731 166.162 53.1391 166.008 53.3771 165.42L53.6571 164.734L50.9831 157.65H52.7471L54.5531 162.802L56.3171 157.65H58.0531L55.0291 165.686ZM63.1461 155.004L59.4221 165H58.2181L61.9421 155.004H63.1461ZM15.846 174.516H12.612V183H10.82V174.516H7.586V172.948H15.846V174.516ZM17.4091 183.126C16.0091 183.126 14.9311 182.272 14.9311 180.956C14.9311 179.556 15.9811 178.94 17.3951 178.646L19.4251 178.226V178.1C19.4251 177.4 19.0611 176.966 18.1651 176.966C17.3671 176.966 16.9471 177.33 16.7511 178.044L15.1691 177.68C15.5331 176.462 16.6111 175.51 18.2351 175.51C19.9991 175.51 21.0631 176.35 21.0631 178.044V181.208C21.0631 181.628 21.2451 181.754 21.7071 181.698V183C20.4891 183.14 19.8451 182.902 19.5931 182.3C19.1311 182.818 18.3611 183.126 17.4091 183.126ZM19.4251 180.41V179.514L17.8431 179.85C17.1291 180.004 16.5971 180.228 16.5971 180.886C16.5971 181.46 17.0171 181.782 17.6611 181.782C18.5571 181.782 19.4251 181.306 19.4251 180.41ZM24.5806 172.948V178.744L27.4086 175.65H29.4666L26.6946 178.506L29.6906 183H27.7446L25.5466 179.682L24.5806 180.662V183H22.9006V172.948H24.5806ZM33.2957 183.154C31.1957 183.154 29.7257 181.6 29.7257 179.332C29.7257 177.176 31.1817 175.51 33.2257 175.51C35.3537 175.51 36.4877 177.12 36.4877 179.136V179.696H31.3357C31.4617 180.956 32.2177 181.726 33.2957 181.726C34.1217 181.726 34.7797 181.306 35.0037 180.55L36.4457 181.096C35.9277 182.384 34.7657 183.154 33.2957 183.154ZM33.2117 176.924C32.3437 176.924 31.6717 177.442 31.4197 178.436H34.7937C34.7797 177.624 34.2757 176.924 33.2117 176.924ZM44.3702 179.332C44.3702 181.614 42.9002 183.154 40.8282 183.154C38.7562 183.154 37.2862 181.614 37.2862 179.332C37.2862 177.05 38.7562 175.51 40.8282 175.51C42.9002 175.51 44.3702 177.05 44.3702 179.332ZM38.9802 179.332C38.9802 180.83 39.6942 181.74 40.8282 181.74C41.9622 181.74 42.6762 180.83 42.6762 179.332C42.6762 177.834 41.9622 176.924 40.8282 176.924C39.6942 176.924 38.9802 177.834 38.9802 179.332ZM51.7959 175.65V183H50.1159V182.216C49.6959 182.706 49.0659 183.154 48.1139 183.154C46.5739 183.154 45.6219 182.104 45.6219 180.522V175.65H47.3019V180.158C47.3019 181.054 47.6939 181.628 48.6039 181.628C49.3599 181.628 50.1159 181.068 50.1159 180.018V175.65H51.7959ZM53.7206 181.152V177.078H52.6986V175.65H53.7206V173.494H55.3726V175.65H56.9126V177.078H55.3726V180.886C55.3726 181.544 55.7506 181.614 56.3526 181.614C56.6326 181.614 56.7866 181.6 57.0386 181.572V182.986C56.7306 183.042 56.3106 183.084 55.8766 183.084C54.4766 183.084 53.7206 182.65 53.7206 181.152ZM62.483 173.004L58.759 183H57.555L61.279 173.004H62.483ZM12.4305 197.108V201H10.6385V190.948H14.6565C16.8965 190.948 18.2965 191.998 18.2965 194.028C18.2965 195.61 17.4285 196.618 15.9585 196.968L18.5485 201H16.5045L14.0545 197.108H12.4305ZM12.4305 195.568H14.5585C15.8465 195.568 16.5325 195.008 16.5325 194.028C16.5325 193.034 15.8465 192.488 14.5585 192.488H12.4305V195.568ZM22.6863 201.154C20.5863 201.154 19.1163 199.6 19.1163 197.332C19.1163 195.176 20.5723 193.51 22.6163 193.51C24.7443 193.51 25.8783 195.12 25.8783 197.136V197.696H20.7263C20.8523 198.956 21.6083 199.726 22.6863 199.726C23.5123 199.726 24.1703 199.306 24.3943 198.55L25.8363 199.096C25.3183 200.384 24.1563 201.154 22.6863 201.154ZM22.6023 194.924C21.7343 194.924 21.0623 195.442 20.8103 196.436H24.1843C24.1703 195.624 23.6663 194.924 22.6023 194.924ZM27.1388 201V193.65H28.8188V194.434C29.2388 193.944 29.8968 193.51 30.8488 193.51C32.3888 193.51 33.3128 194.574 33.3128 196.156V201H31.6328V196.646C31.6328 195.736 31.2688 195.078 30.3448 195.078C29.5888 195.078 28.8188 195.638 28.8188 196.688V201H27.1388ZM35.1815 199.152V195.078H34.1595V193.65H35.1815V191.494H36.8335V193.65H38.3735V195.078H36.8335V198.886C36.8335 199.544 37.2115 199.614 37.8135 199.614C38.0935 199.614 38.2475 199.6 38.4995 199.572V200.986C38.1915 201.042 37.7715 201.084 37.3375 201.084C35.9375 201.084 35.1815 200.65 35.1815 199.152ZM41.704 201.126C40.304 201.126 39.226 200.272 39.226 198.956C39.226 197.556 40.276 196.94 41.69 196.646L43.72 196.226V196.1C43.72 195.4 43.356 194.966 42.46 194.966C41.662 194.966 41.242 195.33 41.046 196.044L39.464 195.68C39.828 194.462 40.906 193.51 42.53 193.51C44.294 193.51 45.358 194.35 45.358 196.044V199.208C45.358 199.628 45.54 199.754 46.002 199.698V201C44.784 201.14 44.14 200.902 43.888 200.3C43.426 200.818 42.656 201.126 41.704 201.126ZM43.72 198.41V197.514L42.138 197.85C41.424 198.004 40.892 198.228 40.892 198.886C40.892 199.46 41.312 199.782 41.956 199.782C42.852 199.782 43.72 199.306 43.72 198.41ZM48.8755 190.948V201H47.1955V190.948H48.8755ZM49.8708 199.6L51.1308 198.592C51.5648 199.306 52.4048 199.782 53.2588 199.782C53.9728 199.782 54.6308 199.53 54.6308 198.872C54.6308 198.242 54.0148 198.172 52.8528 197.934C51.6908 197.696 50.3608 197.402 50.3608 195.834C50.3608 194.49 51.5368 193.51 53.2308 193.51C54.5188 193.51 55.6668 194.084 56.1988 194.896L55.0648 195.918C54.6448 195.26 53.9448 194.882 53.1328 194.882C52.4468 194.882 51.9988 195.19 51.9988 195.68C51.9988 196.212 52.5308 196.31 53.4548 196.506C54.7008 196.772 56.2688 197.038 56.2688 198.718C56.2688 200.202 54.9108 201.154 53.2448 201.154C51.8868 201.154 50.5288 200.608 49.8708 199.6Z" fill="#20336B"/>
<path d="M311 115L306 112.113V117.887L311 115ZM279 115.5H306.5V114.5H279V115.5Z" fill="#20336B"/>
<path d="M243 141.5C258.188 141.5 270.5 129.188 270.5 114C270.5 98.8122 258.188 86.5 243 86.5C227.812 86.5 215.5 98.8122 215.5 114C215.5 129.188 227.812 141.5 243 141.5Z" stroke="#20336B"/>
<path d="M252.834 109.874C252.768 109.796 252.685 109.733 252.593 109.69C252.5 109.647 252.399 109.625 252.297 109.625H234.679L233.288 104.518C233.247 104.37 233.159 104.238 233.036 104.144C232.914 104.051 232.764 104 232.609 104H229.703C229.314 104 229 104.314 229 104.703C229 105.092 229.314 105.406 229.703 105.406H232.072L235.966 119.669C235.228 120.001 234.719 120.724 234.719 121.578C234.719 122.55 235.383 123.363 236.28 123.606C236.182 123.849 236.125 124.113 236.125 124.391C236.125 125.554 237.071 126.5 238.234 126.5C239.398 126.5 240.344 125.554 240.344 124.391C240.344 124.143 240.293 123.908 240.214 123.687H246.098C246.019 123.908 245.969 124.143 245.969 124.391C245.969 125.554 246.915 126.5 248.078 126.5C249.241 126.5 250.187 125.554 250.187 124.391C250.187 123.227 249.241 122.281 248.078 122.281H236.828C236.441 122.281 236.125 121.966 236.125 121.578C236.125 120.923 236.969 120.785 236.828 120.861C236.969 120.861 237.444 120.802 250.959 119.465C251.113 119.45 251.258 119.385 251.371 119.279C251.484 119.174 251.559 119.034 251.584 118.881L252.99 110.443C253.007 110.343 253.002 110.24 252.975 110.141C252.948 110.043 252.9 109.951 252.834 109.874ZM238.937 124.391C238.937 124.779 238.622 125.094 238.234 125.094C237.847 125.094 237.531 124.779 237.531 124.391C237.531 124.003 237.847 123.687 238.234 123.687C238.622 123.687 238.937 124.003 238.937 124.391ZM248.078 125.094C247.691 125.094 247.375 124.779 247.375 124.391C247.375 124.003 247.691 123.687 248.078 123.687C248.465 123.687 248.781 124.003 248.781 124.391C248.781 124.779 248.465 125.094 248.078 125.094ZM240.344 115.953C240.344 116.342 240.029 116.656 239.641 116.656C239.252 116.656 238.937 116.342 238.937 115.953V113.141C238.937 112.752 239.252 112.437 239.641 112.437C240.029 112.437 240.344 112.752 240.344 113.141V115.953ZM244.562 115.953C244.562 116.342 244.248 116.656 243.859 116.656C243.471 116.656 243.156 116.342 243.156 115.953V113.141C243.156 112.752 243.471 112.437 243.859 112.437C244.248 112.437 244.562 112.752 244.562 113.141V115.953ZM248.781 115.953C248.781 116.342 248.467 116.656 248.078 116.656C247.689 116.656 247.375 116.342 247.375 115.953V113.141C247.375 112.752 247.689 112.437 248.078 112.437C248.467 112.437 248.781 112.752 248.781 113.141V115.953Z" fill="#20336B"/>
<path d="M250.187 106.109C250.187 105.721 249.873 105.406 249.484 105.406H248.369L248.575 105.2C248.85 104.926 248.85 104.481 248.575 104.206C248.301 103.931 247.856 103.931 247.581 104.206L246.672 105.115L245.763 104.206C245.488 103.931 245.043 103.931 244.768 104.206C244.494 104.481 244.494 104.926 244.768 105.2L244.974 105.406H243.859C243.471 105.406 243.156 105.721 243.156 106.109V108.219H250.187V106.109ZM241.75 106.813H236.828C236.439 106.813 236.125 107.127 236.125 107.516V108.219H241.75V106.813Z" fill="#24BAF2"/>
<path d="M231.597 154.948H233.389V165H231.597V160.604H226.781V165H224.989V154.948H226.781V159.036H231.597V154.948ZM241.85 161.332C241.85 163.614 240.38 165.154 238.308 165.154C236.236 165.154 234.766 163.614 234.766 161.332C234.766 159.05 236.236 157.51 238.308 157.51C240.38 157.51 241.85 159.05 241.85 161.332ZM236.46 161.332C236.46 162.83 237.174 163.74 238.308 163.74C239.442 163.74 240.156 162.83 240.156 161.332C240.156 159.834 239.442 158.924 238.308 158.924C237.174 158.924 236.46 159.834 236.46 161.332ZM244.837 160.688V165H243.157V157.65H244.837V158.434C245.243 157.944 245.873 157.51 246.853 157.51C247.735 157.51 248.393 157.902 248.799 158.532C249.247 158.056 249.947 157.51 251.081 157.51C252.593 157.51 253.573 158.574 253.573 160.156V165H251.893V160.646C251.893 159.736 251.557 159.078 250.661 159.078C249.947 159.078 249.205 159.638 249.205 160.688V165H247.525V160.646C247.525 159.736 247.189 159.078 246.293 159.078C245.579 159.078 244.837 159.638 244.837 160.688ZM258.392 165.154C256.292 165.154 254.822 163.6 254.822 161.332C254.822 159.176 256.278 157.51 258.322 157.51C260.45 157.51 261.584 159.12 261.584 161.136V161.696H256.432C256.558 162.956 257.314 163.726 258.392 163.726C259.218 163.726 259.876 163.306 260.1 162.55L261.542 163.096C261.024 164.384 259.862 165.154 258.392 165.154ZM258.308 158.924C257.44 158.924 256.768 159.442 256.516 160.436H259.89C259.876 159.624 259.372 158.924 258.308 158.924ZM216.065 181.04L217.437 179.906C218.137 180.998 219.187 181.628 220.335 181.628C221.469 181.628 222.323 181.11 222.323 180.144C222.323 179.122 221.273 178.982 219.775 178.618C218.263 178.254 216.639 177.806 216.639 175.846C216.639 173.984 218.235 172.794 220.265 172.794C221.987 172.794 223.331 173.606 224.003 174.656L222.687 175.79C222.127 174.922 221.385 174.32 220.209 174.32C219.131 174.32 218.389 174.866 218.389 175.664C218.389 176.546 219.159 176.728 220.517 177.036C222.141 177.4 224.087 177.778 224.087 179.962C224.087 181.936 222.351 183.154 220.279 183.154C218.557 183.154 216.849 182.328 216.065 181.04ZM228.519 183.154C226.419 183.154 224.949 181.6 224.949 179.332C224.949 177.176 226.405 175.51 228.449 175.51C230.577 175.51 231.711 177.12 231.711 179.136V179.696H226.559C226.685 180.956 227.441 181.726 228.519 181.726C229.345 181.726 230.003 181.306 230.227 180.55L231.669 181.096C231.151 182.384 229.989 183.154 228.519 183.154ZM228.435 176.924C227.567 176.924 226.895 177.442 226.643 178.436H230.017C230.003 177.624 229.499 176.924 228.435 176.924ZM237.144 175.636V177.316C236.934 177.288 236.766 177.274 236.528 177.274C235.464 177.274 234.652 177.96 234.652 179.136V183H232.972V175.65H234.652V176.742C234.974 176.056 235.73 175.608 236.668 175.608C236.864 175.608 237.018 175.622 237.144 175.636ZM241.969 183H240.275L237.587 175.65H239.351L241.143 180.984L242.921 175.65H244.657L241.969 183ZM245.536 174.67V172.948H247.272V174.67H245.536ZM247.244 175.65V183H245.564V175.65H247.244ZM250.227 179.332C250.227 180.83 251.011 181.698 252.159 181.698C253.055 181.698 253.601 181.11 253.811 180.298L255.253 181.026C254.875 182.216 253.755 183.154 252.159 183.154C250.059 183.154 248.547 181.6 248.547 179.332C248.547 177.064 250.059 175.51 252.159 175.51C253.741 175.51 254.833 176.406 255.225 177.582L253.811 178.352C253.601 177.554 253.055 176.952 252.159 176.952C251.011 176.952 250.227 177.834 250.227 179.332ZM259.377 183.154C257.277 183.154 255.807 181.6 255.807 179.332C255.807 177.176 257.263 175.51 259.307 175.51C261.435 175.51 262.569 177.12 262.569 179.136V179.696H257.417C257.543 180.956 258.299 181.726 259.377 181.726C260.203 181.726 260.861 181.306 261.085 180.55L262.527 181.096C262.009 182.384 260.847 183.154 259.377 183.154ZM259.293 176.924C258.425 176.924 257.753 177.442 257.501 178.436H260.875C260.861 177.624 260.357 176.924 259.293 176.924ZM263.059 181.6L264.319 180.592C264.753 181.306 265.593 181.782 266.447 181.782C267.161 181.782 267.819 181.53 267.819 180.872C267.819 180.242 267.203 180.172 266.041 179.934C264.879 179.696 263.549 179.402 263.549 177.834C263.549 176.49 264.725 175.51 266.419 175.51C267.707 175.51 268.855 176.084 269.387 176.896L268.253 177.918C267.833 177.26 267.133 176.882 266.321 176.882C265.635 176.882 265.187 177.19 265.187 177.68C265.187 178.212 265.719 178.31 266.643 178.506C267.889 178.772 269.457 179.038 269.457 180.718C269.457 182.202 268.099 183.154 266.433 183.154C265.075 183.154 263.717 182.608 263.059 181.6Z" fill="#20336B"/>
<path d="M349 141.5C364.188 141.5 376.5 129.188 376.5 114C376.5 98.8122 364.188 86.5 349 86.5C333.812 86.5 321.5 98.8122 321.5 114C321.5 129.188 333.812 141.5 349 141.5Z" stroke="#20336B"/>
<path fill-rule="evenodd" clip-rule="evenodd" d="M353.953 123.187L355.551 124.785C355.658 124.891 355.801 124.951 355.951 124.951C356.101 124.951 356.244 124.891 356.351 124.785L359.547 121.588C359.65 121.482 359.708 121.339 359.706 121.191C359.705 121.043 359.645 120.901 359.541 120.796C359.436 120.691 359.294 120.632 359.146 120.63C358.998 120.629 358.855 120.686 358.749 120.789L355.951 123.586L354.752 122.388C354.646 122.285 354.503 122.228 354.355 122.229C354.207 122.23 354.065 122.29 353.96 122.394C353.855 122.499 353.796 122.641 353.795 122.789C353.793 122.937 353.85 123.08 353.953 123.187ZM343.766 113.285C343.766 112.956 343.635 112.639 343.402 112.406C343.169 112.173 342.852 112.042 342.522 112.042H341.618C341.289 112.042 340.972 112.173 340.739 112.406C340.506 112.639 340.375 112.956 340.375 113.285V114.19C340.375 114.519 340.506 114.836 340.739 115.069C340.972 115.302 341.289 115.433 341.618 115.433H342.522C342.852 115.433 343.169 115.302 343.402 115.069C343.635 114.836 343.766 114.519 343.766 114.19V113.285ZM342.635 113.285V114.19C342.635 114.205 342.633 114.219 342.627 114.233C342.621 114.247 342.613 114.259 342.603 114.269C342.592 114.28 342.58 114.288 342.566 114.294C342.552 114.3 342.537 114.303 342.522 114.303H341.618C341.603 114.303 341.589 114.3 341.575 114.294C341.561 114.288 341.549 114.28 341.539 114.269C341.528 114.259 341.52 114.247 341.514 114.233C341.508 114.219 341.505 114.205 341.505 114.19V113.285C341.505 113.255 341.517 113.227 341.539 113.206C341.549 113.195 341.561 113.187 341.575 113.181C341.589 113.175 341.603 113.172 341.618 113.172H342.522C342.553 113.172 342.581 113.184 342.603 113.206C342.613 113.216 342.621 113.228 342.627 113.242C342.633 113.256 342.635 113.27 342.635 113.285ZM343.766 117.807C343.766 117.478 343.635 117.161 343.402 116.928C343.169 116.695 342.852 116.564 342.522 116.564H341.618C341.289 116.564 340.972 116.695 340.739 116.928C340.506 117.161 340.375 117.477 340.375 117.807V118.711C340.375 119.041 340.506 119.357 340.739 119.591C340.972 119.824 341.289 119.955 341.618 119.955H342.522C342.852 119.955 343.169 119.824 343.402 119.591C343.635 119.357 343.766 119.041 343.766 118.711V117.807ZM342.635 117.807V118.711C342.635 118.726 342.633 118.741 342.627 118.755C342.621 118.768 342.613 118.781 342.603 118.791C342.592 118.802 342.58 118.81 342.566 118.816C342.552 118.822 342.537 118.825 342.522 118.824H341.618C341.603 118.825 341.589 118.822 341.575 118.816C341.561 118.81 341.549 118.802 341.539 118.791C341.528 118.781 341.52 118.768 341.514 118.755C341.508 118.741 341.505 118.726 341.505 118.711V117.807C341.505 117.777 341.517 117.748 341.539 117.727C341.549 117.717 341.561 117.708 341.575 117.703C341.589 117.697 341.603 117.694 341.618 117.694H342.522C342.553 117.694 342.581 117.706 342.603 117.727C342.613 117.738 342.621 117.75 342.627 117.764C342.633 117.778 342.635 117.792 342.635 117.807ZM343.766 122.329C343.766 121.999 343.635 121.683 343.402 121.449C343.169 121.216 342.852 121.086 342.522 121.085H341.618C341.289 121.085 340.972 121.216 340.739 121.449C340.506 121.683 340.375 121.999 340.375 122.329V123.233C340.375 123.563 340.506 123.879 340.739 124.113C340.972 124.346 341.289 124.477 341.618 124.477H342.522C342.852 124.477 343.169 124.346 343.402 124.113C343.635 123.879 343.766 123.563 343.766 123.233V122.329ZM342.635 122.329V123.233C342.635 123.248 342.633 123.263 342.627 123.276C342.621 123.29 342.613 123.302 342.603 123.313C342.592 123.323 342.58 123.332 342.566 123.338C342.552 123.343 342.537 123.346 342.522 123.346H341.618C341.603 123.346 341.589 123.343 341.575 123.338C341.561 123.332 341.549 123.323 341.539 123.313C341.528 123.302 341.52 123.29 341.514 123.276C341.508 123.263 341.505 123.248 341.505 123.233V122.329C341.505 122.299 341.517 122.27 341.539 122.249C341.549 122.239 341.561 122.23 341.575 122.224C341.589 122.219 341.603 122.216 341.618 122.216H342.522C342.553 122.216 342.581 122.228 342.603 122.249C342.613 122.259 342.621 122.272 342.627 122.286C342.633 122.299 342.635 122.314 342.635 122.329ZM348.288 113.285C348.288 112.956 348.157 112.639 347.924 112.406C347.69 112.173 347.374 112.042 347.044 112.042H346.14C345.81 112.042 345.494 112.173 345.261 112.406C345.027 112.639 344.897 112.956 344.897 113.285V114.19C344.897 114.519 345.027 114.836 345.261 115.069C345.494 115.302 345.81 115.433 346.14 115.433H347.044C347.374 115.433 347.69 115.302 347.924 115.069C348.157 114.836 348.288 114.519 348.288 114.19V113.285ZM347.157 113.285V114.19C347.157 114.205 347.154 114.219 347.149 114.233C347.143 114.247 347.135 114.259 347.124 114.269C347.114 114.28 347.101 114.288 347.087 114.294C347.074 114.3 347.059 114.303 347.044 114.303H346.14C346.125 114.303 346.11 114.3 346.097 114.294C346.083 114.288 346.071 114.28 346.061 114.269C346.05 114.259 346.041 114.247 346.035 114.233C346.03 114.219 346.027 114.205 346.027 114.19V113.285C346.027 113.255 346.039 113.227 346.061 113.206C346.071 113.195 346.083 113.187 346.097 113.181C346.11 113.175 346.125 113.172 346.14 113.172H347.044C347.075 113.172 347.103 113.184 347.124 113.206C347.135 113.216 347.143 113.228 347.149 113.242C347.154 113.256 347.157 113.27 347.157 113.285ZM348.288 117.807C348.288 117.478 348.157 117.161 347.924 116.928C347.69 116.695 347.374 116.564 347.044 116.564H346.14C345.81 116.564 345.494 116.695 345.261 116.928C345.027 117.161 344.897 117.477 344.897 117.807V118.711C344.897 119.041 345.027 119.357 345.261 119.591C345.494 119.824 345.81 119.955 346.14 119.955H347.044C347.374 119.955 347.69 119.824 347.924 119.591C348.157 119.357 348.288 119.041 348.288 118.711V117.807ZM347.157 117.807V118.711C347.157 118.726 347.154 118.741 347.149 118.755C347.143 118.768 347.135 118.781 347.124 118.791C347.114 118.802 347.101 118.81 347.087 118.816C347.074 118.822 347.059 118.825 347.044 118.824H346.14C346.125 118.825 346.11 118.822 346.097 118.816C346.083 118.81 346.071 118.802 346.061 118.791C346.05 118.781 346.041 118.768 346.035 118.755C346.03 118.741 346.027 118.726 346.027 118.711V117.807C346.027 117.777 346.039 117.748 346.061 117.727C346.071 117.717 346.083 117.708 346.097 117.703C346.11 117.697 346.125 117.694 346.14 117.694H347.044C347.075 117.694 347.103 117.706 347.124 117.727C347.135 117.738 347.143 117.75 347.149 117.764C347.154 117.778 347.157 117.792 347.157 117.807ZM348.288 122.329C348.288 121.999 348.157 121.683 347.924 121.449C347.69 121.216 347.374 121.086 347.044 121.085H346.14C345.81 121.085 345.494 121.216 345.261 121.449C345.027 121.683 344.897 121.999 344.897 122.329V123.233C344.897 123.563 345.027 123.879 345.261 124.113C345.494 124.346 345.81 124.477 346.14 124.477H347.044C347.374 124.477 347.69 124.346 347.924 124.113C348.157 123.879 348.288 123.563 348.288 123.233V122.329ZM347.157 122.329V123.233C347.157 123.248 347.154 123.263 347.149 123.276C347.143 123.29 347.135 123.302 347.124 123.313C347.114 123.323 347.101 123.332 347.087 123.338C347.074 123.343 347.059 123.346 347.044 123.346H346.14C346.125 123.346 346.11 123.343 346.097 123.338C346.083 123.332 346.071 123.323 346.061 123.313C346.05 123.302 346.041 123.29 346.035 123.276C346.03 123.263 346.027 123.248 346.027 123.233V122.329C346.027 122.299 346.039 122.27 346.061 122.249C346.071 122.239 346.083 122.23 346.097 122.224C346.11 122.219 346.125 122.216 346.14 122.216H347.044C347.075 122.216 347.103 122.228 347.124 122.249C347.135 122.259 347.143 122.272 347.149 122.286C347.154 122.299 347.157 122.314 347.157 122.329ZM352.809 113.285C352.809 112.956 352.679 112.639 352.445 112.406C352.212 112.173 351.896 112.042 351.566 112.042H350.662C350.332 112.042 350.016 112.173 349.782 112.406C349.549 112.639 349.418 112.956 349.418 113.285V114.19C349.418 114.519 349.549 114.836 349.782 115.069C350.016 115.302 350.332 115.433 350.662 115.433H351.566C351.896 115.433 352.212 115.302 352.445 115.069C352.679 114.836 352.809 114.519 352.809 114.19V113.285ZM351.679 113.285V114.19C351.679 114.205 351.676 114.219 351.671 114.233C351.665 114.247 351.657 114.259 351.645 114.269C351.635 114.28 351.623 114.288 351.609 114.294C351.596 114.3 351.581 114.303 351.566 114.303H350.662C350.647 114.303 350.632 114.3 350.619 114.294C350.605 114.288 350.592 114.28 350.582 114.269C350.571 114.259 350.563 114.247 350.557 114.233C350.552 114.219 350.549 114.205 350.549 114.19V113.285C350.549 113.255 350.561 113.227 350.582 113.206C350.592 113.195 350.605 113.187 350.619 113.181C350.632 113.175 350.647 113.172 350.662 113.172H351.566C351.596 113.172 351.625 113.184 351.645 113.206C351.657 113.216 351.665 113.228 351.671 113.242C351.676 113.256 351.679 113.27 351.679 113.285ZM357.331 113.285C357.331 112.956 357.201 112.639 356.967 112.406C356.734 112.173 356.418 112.042 356.088 112.042H355.184C354.854 112.042 354.537 112.173 354.304 112.406C354.071 112.639 353.94 112.956 353.94 113.285V114.19C353.94 114.519 354.071 114.836 354.304 115.069C354.537 115.302 354.854 115.433 355.184 115.433H356.088C356.418 115.433 356.734 115.302 356.967 115.069C357.201 114.836 357.331 114.519 357.331 114.19V113.285ZM356.201 113.285V114.19C356.201 114.205 356.198 114.219 356.192 114.233C356.187 114.247 356.178 114.259 356.167 114.269C356.157 114.28 356.145 114.288 356.131 114.294C356.117 114.3 356.103 114.303 356.088 114.303H355.184C355.169 114.303 355.154 114.3 355.141 114.294C355.126 114.288 355.114 114.28 355.103 114.269C355.093 114.259 355.085 114.247 355.079 114.233C355.073 114.219 355.071 114.205 355.071 114.19V113.285C355.071 113.255 355.083 113.227 355.103 113.206C355.114 113.195 355.126 113.187 355.141 113.181C355.154 113.175 355.169 113.172 355.184 113.172H356.088C356.117 113.172 356.146 113.184 356.167 113.206C356.178 113.216 356.187 113.228 356.192 113.242C356.198 113.256 356.201 113.27 356.201 113.285Z" fill="#24BAF2"/>
<path fill-rule="evenodd" clip-rule="evenodd" d="M351.988 126.739H339.826C339.076 126.739 338.358 126.441 337.828 125.912C337.298 125.381 337 124.663 337 123.913V108.087C337 107.337 337.298 106.619 337.828 106.089C338.358 105.559 339.076 105.261 339.826 105.261H341.522V104.696C341.522 104.246 341.7 103.815 342.019 103.497C342.337 103.179 342.768 103 343.218 103C343.667 103 344.099 103.179 344.417 103.497C344.735 103.815 344.913 104.246 344.913 104.696V105.261H352.826V104.696C352.826 104.246 353.005 103.815 353.323 103.497C353.641 103.179 354.072 103 354.522 103C354.971 103 355.403 103.179 355.721 103.497C356.039 103.815 356.218 104.246 356.218 104.696V105.261H357.913C358.662 105.261 359.382 105.559 359.911 106.089C360.442 106.619 360.739 107.337 360.739 108.087V117.988C362.12 119.129 363 120.854 363 122.783C363 126.214 360.214 129 356.782 129C355.866 129.001 354.961 128.798 354.132 128.407C353.303 128.016 352.57 127.447 351.988 126.739ZM356.782 117.696C359.59 117.696 361.869 119.975 361.869 122.783C361.869 125.59 359.59 127.87 356.782 127.87C353.975 127.87 351.696 125.59 351.696 122.783C351.696 119.975 353.975 117.696 356.782 117.696ZM359.609 117.244V110.913H338.131V123.913C338.131 124.363 338.309 124.794 338.628 125.112C338.784 125.269 338.972 125.394 339.177 125.48C339.383 125.565 339.604 125.609 339.826 125.609H351.244C350.81 124.761 350.565 123.8 350.565 122.783C350.565 119.351 353.351 116.565 356.782 116.565C357.8 116.565 358.761 116.81 359.609 117.244ZM356.218 106.391V106.957C356.218 107.406 356.039 107.838 355.721 108.156C355.403 108.474 354.971 108.652 354.522 108.652C354.072 108.652 353.641 108.474 353.323 108.156C353.005 107.838 352.826 107.406 352.826 106.957V106.391H344.913V106.957C344.913 107.406 344.735 107.838 344.417 108.156C344.099 108.474 343.667 108.652 343.218 108.652C342.768 108.652 342.337 108.474 342.019 108.156C341.7 107.838 341.522 107.406 341.522 106.957V106.391H339.826C339.376 106.391 338.945 106.57 338.627 106.888C338.309 107.206 338.131 107.637 338.131 108.087V109.783H359.609V108.087C359.609 107.637 359.43 107.206 359.112 106.888C358.794 106.57 358.363 106.391 357.913 106.391H356.218ZM355.087 104.696V106.957C355.087 107.106 355.028 107.25 354.921 107.356C354.815 107.462 354.672 107.522 354.522 107.522C354.372 107.522 354.228 107.462 354.122 107.356C354.016 107.25 353.956 107.106 353.956 106.957V104.696C353.956 104.546 354.016 104.402 354.122 104.296C354.228 104.19 354.372 104.13 354.522 104.13C354.672 104.13 354.815 104.19 354.921 104.296C355.028 104.402 355.087 104.546 355.087 104.696ZM343.782 104.696V106.957C343.782 107.106 343.723 107.25 343.617 107.356C343.511 107.462 343.367 107.522 343.218 107.522C343.068 107.522 342.924 107.462 342.818 107.356C342.712 107.25 342.652 107.106 342.652 106.957V104.696C342.652 104.546 342.712 104.402 342.818 104.296C342.924 104.19 343.068 104.13 343.218 104.13C343.367 104.13 343.511 104.19 343.617 104.296C343.723 104.402 343.782 104.546 343.782 104.696Z" fill="#20336B"/>
<path d="M306.3 154.948H308.33L312.138 165H310.332L309.464 162.704H305.124L304.27 165H302.492L306.3 154.948ZM307.28 156.936L305.712 161.136H308.876L307.28 156.936ZM316.817 165.154C315.865 165.154 315.165 164.776 314.703 164.23V167.52H313.023V157.65H314.703V158.434C315.165 157.888 315.865 157.51 316.817 157.51C318.875 157.51 320.051 159.246 320.051 161.332C320.051 163.418 318.875 165.154 316.817 165.154ZM314.661 161.122V161.556C314.661 162.914 315.445 163.684 316.481 163.684C317.699 163.684 318.357 162.732 318.357 161.332C318.357 159.932 317.699 158.98 316.481 158.98C315.445 158.98 314.661 159.736 314.661 161.122ZM325.143 165.154C324.191 165.154 323.491 164.776 323.029 164.23V167.52H321.349V157.65H323.029V158.434C323.491 157.888 324.191 157.51 325.143 157.51C327.201 157.51 328.377 159.246 328.377 161.332C328.377 163.418 327.201 165.154 325.143 165.154ZM322.987 161.122V161.556C322.987 162.914 323.771 163.684 324.807 163.684C326.025 163.684 326.683 162.732 326.683 161.332C326.683 159.932 326.025 158.98 324.807 158.98C323.771 158.98 322.987 159.736 322.987 161.122ZM336.297 161.332C336.297 163.614 334.827 165.154 332.755 165.154C330.683 165.154 329.213 163.614 329.213 161.332C329.213 159.05 330.683 157.51 332.755 157.51C334.827 157.51 336.297 159.05 336.297 161.332ZM330.907 161.332C330.907 162.83 331.621 163.74 332.755 163.74C333.889 163.74 334.603 162.83 334.603 161.332C334.603 159.834 333.889 158.924 332.755 158.924C331.621 158.924 330.907 159.834 330.907 161.332ZM337.577 156.67V154.948H339.313V156.67H337.577ZM339.285 157.65V165H337.605V157.65H339.285ZM341.05 165V157.65H342.73V158.434C343.15 157.944 343.808 157.51 344.76 157.51C346.3 157.51 347.224 158.574 347.224 160.156V165H345.544V160.646C345.544 159.736 345.18 159.078 344.256 159.078C343.5 159.078 342.73 159.638 342.73 160.688V165H341.05ZM349.093 163.152V159.078H348.071V157.65H349.093V155.494H350.745V157.65H352.285V159.078H350.745V162.886C350.745 163.544 351.123 163.614 351.725 163.614C352.005 163.614 352.159 163.6 352.411 163.572V164.986C352.103 165.042 351.683 165.084 351.249 165.084C349.849 165.084 349.093 164.65 349.093 163.152ZM355.349 160.688V165H353.669V157.65H355.349V158.434C355.755 157.944 356.385 157.51 357.365 157.51C358.247 157.51 358.905 157.902 359.311 158.532C359.759 158.056 360.459 157.51 361.593 157.51C363.105 157.51 364.085 158.574 364.085 160.156V165H362.405V160.646C362.405 159.736 362.069 159.078 361.173 159.078C360.459 159.078 359.717 159.638 359.717 160.688V165H358.037V160.646C358.037 159.736 357.701 159.078 356.805 159.078C356.091 159.078 355.349 159.638 355.349 160.688ZM368.904 165.154C366.804 165.154 365.334 163.6 365.334 161.332C365.334 159.176 366.79 157.51 368.834 157.51C370.962 157.51 372.096 159.12 372.096 161.136V161.696H366.944C367.07 162.956 367.826 163.726 368.904 163.726C369.73 163.726 370.388 163.306 370.612 162.55L372.054 163.096C371.536 164.384 370.374 165.154 368.904 165.154ZM368.82 158.924C367.952 158.924 367.28 159.442 367.028 160.436H370.402C370.388 159.624 369.884 158.924 368.82 158.924ZM373.357 165V157.65H375.037V158.434C375.457 157.944 376.115 157.51 377.067 157.51C378.607 157.51 379.531 158.574 379.531 160.156V165H377.851V160.646C377.851 159.736 377.487 159.078 376.563 159.078C375.807 159.078 375.037 159.638 375.037 160.688V165H373.357ZM381.399 163.152V159.078H380.377V157.65H381.399V155.494H383.051V157.65H384.591V159.078H383.051V162.886C383.051 163.544 383.429 163.614 384.031 163.614C384.311 163.614 384.465 163.6 384.717 163.572V164.986C384.409 165.042 383.989 165.084 383.555 165.084C382.155 165.084 381.399 164.65 381.399 163.152ZM385.206 163.6L386.466 162.592C386.9 163.306 387.74 163.782 388.594 163.782C389.308 163.782 389.966 163.53 389.966 162.872C389.966 162.242 389.35 162.172 388.188 161.934C387.026 161.696 385.696 161.402 385.696 159.834C385.696 158.49 386.872 157.51 388.566 157.51C389.854 157.51 391.002 158.084 391.534 158.896L390.4 159.918C389.98 159.26 389.28 158.882 388.468 158.882C387.782 158.882 387.334 159.19 387.334 159.68C387.334 160.212 387.866 160.31 388.79 160.506C390.036 160.772 391.604 161.038 391.604 162.718C391.604 164.202 390.246 165.154 388.58 165.154C387.222 165.154 385.864 164.608 385.206 163.6Z" fill="#20336B"/>
<path d="M208 115L203 112.113V117.887L208 115ZM176 115.5H203.5V114.5H176V115.5Z" fill="#20336B"/>
<path d="M139.5 141.5C154.688 141.5 167 129.188 167 114C167 98.8122 154.688 86.5 139.5 86.5C124.312 86.5 112 98.8122 112 114C112 129.188 124.312 141.5 139.5 141.5Z" stroke="#20336B"/>
<path fill-rule="evenodd" clip-rule="evenodd" d="M143.842 113.631C144.243 113.636 144.64 113.561 145.011 113.409C145.382 113.258 145.719 113.034 146.002 112.751L148.832 109.921C149.019 109.734 149.123 109.48 149.123 109.216C149.123 108.952 149.019 108.698 148.832 108.511C148.739 108.417 148.629 108.343 148.507 108.292C148.385 108.241 148.254 108.215 148.122 108.215C147.99 108.215 147.86 108.241 147.738 108.292C147.616 108.343 147.505 108.417 147.412 108.511L144.552 111.331C144.459 111.425 144.349 111.499 144.227 111.55C144.105 111.601 143.974 111.627 143.842 111.627C143.71 111.627 143.58 111.601 143.458 111.55C143.336 111.499 143.225 111.425 143.132 111.331L146.672 107.801C146.766 107.708 146.84 107.597 146.89 107.475C146.941 107.353 146.967 107.223 146.967 107.091C146.967 106.959 146.941 106.828 146.89 106.707C146.84 106.585 146.766 106.474 146.672 106.381C146.579 106.288 146.469 106.214 146.347 106.163C146.225 106.113 146.094 106.087 145.962 106.087C145.831 106.087 145.7 106.113 145.578 106.163C145.456 106.214 145.346 106.288 145.252 106.381L141.722 109.921C141.536 109.734 141.432 109.48 141.432 109.216C141.432 108.952 141.536 108.698 141.722 108.511L144.552 105.681C144.646 105.588 144.72 105.477 144.77 105.355C144.821 105.233 144.847 105.103 144.847 104.971C144.847 104.839 144.821 104.708 144.77 104.587C144.72 104.465 144.646 104.354 144.552 104.261C144.459 104.168 144.349 104.094 144.227 104.043C144.105 103.993 143.974 103.967 143.842 103.967C143.711 103.967 143.58 103.993 143.458 104.043C143.336 104.094 143.226 104.168 143.132 104.261L140.302 107.091C139.741 107.653 139.425 108.416 139.425 109.211C139.425 110.006 139.741 110.768 140.302 111.331L139.002 112.621L130.732 104.321L130.632 104.261C130.581 104.216 130.524 104.179 130.462 104.151L130.282 104.081L130.162 104.001H129.892C129.833 103.991 129.772 103.991 129.712 104.001C129.652 104.023 129.595 104.053 129.542 104.091L129.382 104.191H129.312L129.252 104.291C129.21 104.344 129.173 104.401 129.142 104.461C129.113 104.522 129.09 104.585 129.072 104.651V104.761C128.83 106.452 128.984 108.177 129.524 109.798C130.064 111.419 130.974 112.893 132.182 114.101L134.822 116.731L129.412 122.131C129.319 122.224 129.244 122.334 129.194 122.456C129.143 122.578 129.117 122.709 129.117 122.841C129.117 122.973 129.143 123.104 129.194 123.225C129.244 123.347 129.319 123.458 129.412 123.551C129.506 123.644 129.617 123.717 129.739 123.767C129.86 123.816 129.991 123.842 130.122 123.841C130.254 123.842 130.384 123.816 130.506 123.767C130.628 123.717 130.739 123.644 130.832 123.551L136.902 117.571L139.732 114.741L141.732 112.741C142.29 113.305 143.049 113.625 143.842 113.631ZM133.562 112.811L136.192 115.451L137.612 114.001L131.002 107.401C131.218 109.442 132.121 111.35 133.562 112.811Z" fill="#20336B"/>
<path d="M142.432 116.021C142.244 115.831 141.988 115.724 141.721 115.723C141.454 115.722 141.197 115.828 141.007 116.016C140.818 116.204 140.711 116.46 140.71 116.727C140.709 116.995 140.814 117.251 141.002 117.441L147.302 123.741C147.493 123.915 147.744 124.008 148.002 124.001C148.134 124.002 148.264 123.976 148.386 123.927C148.508 123.877 148.619 123.804 148.712 123.711C148.806 123.618 148.881 123.507 148.931 123.385C148.982 123.264 149.008 123.133 149.008 123.001C149.008 122.869 148.982 122.738 148.931 122.616C148.881 122.494 148.806 122.384 148.712 122.291L142.432 116.021Z" fill="#20336B"/>
<path d="M117.805 165V154.948H121.165C124.287 154.948 126.219 156.908 126.219 159.974C126.219 163.04 124.287 165 121.165 165H117.805ZM119.555 163.46H121.165C123.237 163.46 124.455 162.088 124.455 159.974C124.455 157.846 123.237 156.488 121.151 156.488H119.555V163.46ZM127.523 156.67V154.948H129.259V156.67H127.523ZM129.231 157.65V165H127.551V157.65H129.231ZM130.996 165V157.65H132.676V158.434C133.096 157.944 133.754 157.51 134.706 157.51C136.246 157.51 137.17 158.574 137.17 160.156V165H135.49V160.646C135.49 159.736 135.126 159.078 134.202 159.078C133.446 159.078 132.676 159.638 132.676 160.688V165H130.996ZM141.993 165.154C139.893 165.154 138.423 163.6 138.423 161.332C138.423 159.176 139.879 157.51 141.923 157.51C144.051 157.51 145.185 159.12 145.185 161.136V161.696H140.033C140.159 162.956 140.915 163.726 141.993 163.726C142.819 163.726 143.477 163.306 143.701 162.55L145.143 163.096C144.625 164.384 143.463 165.154 141.993 165.154ZM141.909 158.924C141.041 158.924 140.369 159.442 140.117 160.436H143.491C143.477 159.624 142.973 158.924 141.909 158.924ZM146.329 161.668V160.17H150.249V161.668H146.329ZM151.667 156.67V154.948H153.403V156.67H151.667ZM153.375 157.65V165H151.695V157.65H153.375ZM155.141 165V157.65H156.821V158.434C157.241 157.944 157.899 157.51 158.851 157.51C160.391 157.51 161.315 158.574 161.315 160.156V165H159.635V160.646C159.635 159.736 159.271 159.078 158.347 159.078C157.591 159.078 156.821 159.638 156.821 160.688V165H155.141Z" fill="#20336B"/>
</svg>
