<svg width="36" height="36" viewBox="0 0 36 36" fill="none" xmlns="http://www.w3.org/2000/svg">
<g clip-path="url(#clip0_1972_5940)">
<path d="M6.99172 7.65021C6.93942 7.70245 6.89793 7.76449 6.86962 7.83278C6.84132 7.90106 6.82675 7.97426 6.82675 8.04818C6.82675 8.1221 6.84132 8.1953 6.86962 8.26359C6.89793 8.33187 6.93942 8.39391 6.99172 8.44615L11.9586 13.4158C12.0641 13.5214 12.2073 13.5807 12.3566 13.5807C12.5058 13.5807 12.649 13.5214 12.7545 13.4158C12.8601 13.3103 12.9194 13.1671 12.9194 13.0179C12.9194 12.8686 12.8601 12.7254 12.7545 12.6199L7.78485 7.65021C7.67945 7.54545 7.53689 7.48664 7.38828 7.48664C7.23968 7.48664 7.09711 7.54545 6.99172 7.65021ZM23.0455 10.3924V3.45396C23.0455 3.30478 22.9862 3.1617 22.8807 3.05622C22.7752 2.95073 22.6322 2.89146 22.483 2.89146C22.3338 2.89146 22.1907 2.95073 22.0852 3.05622C21.9797 3.1617 21.9205 3.30478 21.9205 3.45396V10.3924C21.9205 10.5416 21.9797 10.6847 22.0852 10.7901C22.1907 10.8956 22.3338 10.9549 22.483 10.9549C22.6322 10.9549 22.7752 10.8956 22.8807 10.7901C22.9862 10.6847 23.0455 10.5416 23.0455 10.3924ZM14.3239 0.427713C14.3054 0.356061 14.273 0.288747 14.2286 0.229616C14.1841 0.170485 14.1284 0.120694 14.0647 0.0830862C14.0009 0.0454785 13.9304 0.0207905 13.8572 0.0104316C13.7839 7.2829e-05 13.7093 0.00424613 13.6377 0.0227133C13.566 0.0411804 13.4987 0.0735797 13.4396 0.118061C13.3804 0.162543 13.3306 0.218236 13.293 0.28196C13.2554 0.345684 13.2307 0.416192 13.2204 0.489457C13.21 0.562723 13.2142 0.637311 13.2327 0.708963L14.9202 7.45896C14.9386 7.53061 14.971 7.59793 15.0155 7.65706C15.06 7.71619 15.1157 7.76598 15.1794 7.80359C15.2431 7.8412 15.3136 7.86588 15.3869 7.87624C15.4602 7.8866 15.5348 7.88243 15.6064 7.86396C15.6781 7.8455 15.7454 7.8131 15.8045 7.76861C15.8636 7.72413 15.9134 7.66844 15.951 7.60472C15.9886 7.54099 16.0133 7.47048 16.0237 7.39722C16.0341 7.32395 16.0299 7.24936 16.0114 7.17771L14.3239 0.427713ZM6.90735 20.4752C8.6736 23.0065 8.65953 24.1483 8.64828 25.2565C8.56391 33.3115 14.1467 35.8005 17.4627 36.0002C17.7158 36.0143 17.9605 36.0227 18.2052 36.0227C19.7385 36.0409 21.2583 35.7337 22.6643 35.1214C24.0702 34.5091 25.3303 33.6056 26.3614 32.4705L28.2036 30.4399L28.2345 30.4033L29.1486 29.3936C29.4722 29.0697 29.7026 28.6646 29.8155 28.2208C29.9283 27.7771 29.9196 27.3111 29.7901 26.8719C29.6606 26.4328 29.4151 26.0366 29.0795 25.7251C28.7439 25.4136 28.3306 25.1983 27.883 25.1018C27.9708 24.7825 27.9884 24.448 27.9344 24.1214C27.8805 23.7947 27.7563 23.4836 27.5705 23.2095C27.3847 22.9355 27.1417 22.705 26.8581 22.534C26.5746 22.363 26.2574 22.2555 25.9283 22.219C26.0197 21.9664 26.0673 21.7001 26.0689 21.4315C26.0705 20.8449 25.8683 20.276 25.4969 19.822C25.1255 19.368 24.6079 19.0571 24.0327 18.9424L27.0842 15.8796C27.3236 15.6409 27.5131 15.357 27.6416 15.0443C27.7701 14.7317 27.835 14.3966 27.8326 14.0585C27.8301 13.7205 27.7604 13.3864 27.6274 13.0756C27.4945 12.7648 27.3009 12.4836 27.0581 12.2485C26.8153 12.0133 26.528 11.8289 26.2131 11.7059C25.8983 11.5829 25.562 11.5239 25.2241 11.5323C24.8862 11.5407 24.5533 11.6164 24.2449 11.7548C23.9365 11.8932 23.6588 12.0917 23.428 12.3386C20.0839 15.9077 15.927 19.969 14.2873 20.6355C13.3311 21.0293 13.1005 20.7227 12.3608 19.5105C11.8471 18.5608 11.1647 17.7126 10.347 17.0074C9.37391 16.2171 8.22922 16.1946 7.28141 16.9455C6.20985 17.7921 6.05516 19.249 6.90735 20.4752ZM27.3402 26.1733C27.5268 26.1726 27.7117 26.2091 27.884 26.2805C28.0564 26.352 28.2129 26.4571 28.3442 26.5896C28.4768 26.7239 28.5815 26.8831 28.6523 27.0581C28.7231 27.233 28.7586 27.4203 28.7568 27.609C28.7549 27.7977 28.7158 27.9842 28.6416 28.1578C28.5674 28.3313 28.4597 28.4885 28.3245 28.6202L27.433 29.6018C27.1942 29.7146 26.9266 29.7516 26.6662 29.7078C26.4058 29.6641 26.1649 29.5417 25.9761 29.3571L25.9255 29.3036C25.6955 29.0781 25.5572 28.7753 25.5375 28.4537C25.5178 28.1322 25.6179 27.8147 25.8186 27.5627L27.2249 26.1565L27.3402 26.1733ZM26.4964 23.659C26.7047 23.8655 26.8273 24.143 26.8398 24.436C26.8524 24.7291 26.7538 25.0161 26.5639 25.2396C26.5404 25.2611 26.5188 25.2847 26.4992 25.3099L24.8849 26.9243C24.6569 27.0077 24.4101 27.0255 24.1725 26.9758C23.9349 26.9261 23.7159 26.8108 23.5405 26.643L23.473 26.5755C23.2516 26.3456 23.1215 26.043 23.107 25.7241C23.0925 25.4053 23.1946 25.0921 23.3942 24.843C23.6192 24.6686 24.5614 23.9233 25.062 23.493C25.2848 23.3581 25.5461 23.3012 25.8048 23.3313C26.0635 23.3613 26.3049 23.4766 26.4908 23.659H26.4964ZM24.5277 20.4218C24.6602 20.5531 24.7653 20.7096 24.8367 20.882C24.9082 21.0543 24.9446 21.2392 24.9439 21.4258C24.9072 21.8827 24.6956 22.3079 24.3533 22.6127C24.0102 22.9108 23.2705 23.5043 22.7249 23.9318C22.4922 23.9982 22.246 24.0008 22.012 23.9395C21.7779 23.8781 21.5647 23.755 21.3945 23.583L21.358 23.5465C21.1019 23.2902 20.9581 22.9427 20.9581 22.5804C20.9581 22.2181 21.1019 21.8706 21.358 21.6143L22.6799 20.2924C22.9507 20.0869 23.2869 19.9865 23.6261 20.0097C23.9653 20.033 24.2846 20.1784 24.5249 20.419L24.5277 20.4218ZM7.98172 17.8146C8.52172 17.3871 9.06453 17.404 9.63828 17.868C10.3542 18.4922 10.9507 19.2413 11.3989 20.0786C11.6598 20.5669 11.9874 21.0165 12.372 21.4146C12.3825 21.4301 12.3938 21.4452 12.4058 21.4596C12.4536 21.5102 13.5308 22.6887 12.4339 24.4015C12.36 24.527 12.3377 24.6763 12.3717 24.818C12.4057 24.9597 12.4933 25.0826 12.6161 25.161C12.739 25.2394 12.8874 25.267 13.0302 25.2381C13.173 25.2092 13.299 25.1261 13.3817 25.0061C13.6921 24.5612 13.8996 24.0527 13.9891 23.5176C14.0786 22.9825 14.0479 22.4342 13.8992 21.9124C14.1778 21.8743 14.4502 21.7996 14.7092 21.6902C16.9227 20.7818 22.1117 15.3958 24.2436 13.1205C24.3731 12.9809 24.5296 12.869 24.7037 12.7916C24.8777 12.7142 25.0657 12.6731 25.2561 12.6705C25.4468 12.6675 25.6362 12.7028 25.813 12.7743C25.9898 12.8458 26.1505 12.9521 26.2855 13.0868C26.4177 13.2187 26.5226 13.3754 26.5942 13.548C26.6658 13.7205 26.7026 13.9054 26.7026 14.0922C26.7026 14.279 26.6658 14.464 26.5942 14.6365C26.5226 14.8091 26.4177 14.9658 26.2855 15.0977L20.5592 20.8127C20.3266 21.0443 20.1419 21.3195 20.016 21.6226C19.89 21.9257 19.8251 22.2507 19.8251 22.579C19.8251 22.9072 19.89 23.2322 20.016 23.5353C20.1419 23.8384 20.3266 24.1137 20.5592 24.3452L20.5902 24.3761C20.9775 24.7646 21.4832 25.0129 22.0274 25.0821C21.9293 25.488 21.9367 25.9122 22.049 26.3144C22.1612 26.7166 22.3745 27.0834 22.6686 27.3799L22.6911 27.3996L22.7136 27.4221C23.1699 27.8743 23.7868 28.1271 24.4292 28.1252C24.3908 28.4846 24.4335 28.8481 24.5542 29.1889C24.6749 29.5296 24.8706 29.8389 25.1267 30.094L25.1689 30.1418C25.4943 30.4664 25.9047 30.6926 26.353 30.7943L25.5092 31.7252L25.4867 31.7505C24.4797 32.8347 23.2417 33.6784 21.8644 34.2193C20.4871 34.7602 19.0058 34.9844 17.5302 34.8752C16.0809 34.7495 14.6855 34.2664 13.4689 33.469C13.5561 33.469 13.6461 33.469 13.7361 33.469H13.9752C15.3814 33.379 16.6667 32.5268 17.8142 30.9377C17.897 30.8163 17.9291 30.6674 17.9035 30.5227C17.8779 30.378 17.7968 30.2491 17.6773 30.1635C17.5579 30.0779 17.4098 30.0424 17.2645 30.0646C17.1193 30.0868 16.9885 30.165 16.9002 30.2824C15.9636 31.5874 14.9595 32.2849 13.9133 32.3552C12.4536 32.4508 11.3314 31.2836 11.3145 31.2668C11.2897 31.2408 11.2623 31.2172 11.233 31.1965C10.3527 29.8071 9.74797 27.9002 9.7761 25.2649C9.79297 23.7771 9.65797 22.4327 7.83266 19.8227C7.40797 19.2265 7.29266 18.3658 7.98172 17.8146Z" fill="black"/>
<path d="M16.7431 11.4692L15.5 11.6492L16.4 12.5267L16.1862 13.7642L17.2972 13.1792L18.4081 13.7642L18.1944 12.5267L19.0944 11.6492L17.8512 11.4692L17.2972 10.3442L16.7431 11.4692Z" fill="black"/>
<path d="M18.5475 4.70527L18.9272 5.56027L19.3772 4.73621L20.3081 4.64059L19.6641 3.95996L19.8609 3.04309L19.0144 3.44527L18.2016 2.97559L18.3225 3.90652L17.625 4.53371L18.5475 4.70527Z" fill="black"/>
<path d="M11.0641 4.32863L10.3862 3.68457L10.285 4.61551L9.46094 5.06269L10.3159 5.44519L10.4875 6.36769L11.1147 5.67019L12.0456 5.79394L11.5759 4.98113L11.9809 4.13738L11.0641 4.32863Z" fill="black"/>
</g>
<defs>
<clipPath id="clip0_1972_5940">
<rect width="36" height="36" fill="white"/>
</clipPath>
</defs>
</svg>
