<svg width="457" height="188" viewBox="0 0 457 188" fill="none" xmlns="http://www.w3.org/2000/svg">
<path d="M32.9706 14.9999H31.5146L28.8826 7.22995V14.9999H27.2166V4.94795H29.6806L32.2706 12.6479L34.8606 4.94795H37.2686V14.9999H35.6026V7.22995L32.9706 14.9999ZM45.7179 11.3319C45.7179 13.6139 44.2479 15.1539 42.1759 15.1539C40.1039 15.1539 38.6339 13.6139 38.6339 11.3319C38.6339 9.04994 40.1039 7.50995 42.1759 7.50995C44.2479 7.50995 45.7179 9.04994 45.7179 11.3319ZM40.3279 11.3319C40.3279 12.8299 41.0419 13.7399 42.1759 13.7399C43.3099 13.7399 44.0239 12.8299 44.0239 11.3319C44.0239 9.83394 43.3099 8.92394 42.1759 8.92394C41.0419 8.92394 40.3279 9.83394 40.3279 11.3319ZM47.0256 14.9999V7.64995H48.7056V8.43395C49.1256 7.94395 49.7836 7.50995 50.7356 7.50995C52.2756 7.50995 53.1996 8.57395 53.1996 10.1559V14.9999H51.5196V10.6459C51.5196 9.73595 51.1556 9.07795 50.2316 9.07795C49.4756 9.07795 48.7056 9.63794 48.7056 10.6879V14.9999H47.0256ZM55.0682 13.1519V9.07795H54.0462V7.64995H55.0682V5.49395H56.7202V7.64995H58.2602V9.07795H56.7202V12.8859C56.7202 13.5439 57.0982 13.6139 57.7002 13.6139C57.9802 13.6139 58.1342 13.5999 58.3862 13.5719V14.9859C58.0782 15.0419 57.6582 15.0839 57.2242 15.0839C55.8242 15.0839 55.0682 14.6499 55.0682 13.1519ZM63.8167 7.63595V9.31595C63.6067 9.28795 63.4387 9.27395 63.2007 9.27395C62.1367 9.27395 61.3247 9.95994 61.3247 11.1359V14.9999H59.6447V7.64995H61.3247V8.74194C61.6467 8.05594 62.4027 7.60794 63.3407 7.60794C63.5367 7.60794 63.6907 7.62195 63.8167 7.63595ZM66.7176 15.1259C65.3176 15.1259 64.2396 14.2719 64.2396 12.9559C64.2396 11.5559 65.2896 10.9399 66.7036 10.6459L68.7336 10.2259V10.0999C68.7336 9.39995 68.3696 8.96594 67.4736 8.96594C66.6756 8.96594 66.2556 9.32994 66.0596 10.0439L64.4776 9.67995C64.8416 8.46195 65.9196 7.50995 67.5436 7.50995C69.3076 7.50995 70.3716 8.34994 70.3716 10.0439V13.2079C70.3716 13.6279 70.5536 13.7539 71.0156 13.6979V14.9999C69.7976 15.1399 69.1536 14.9019 68.9016 14.2999C68.4396 14.8179 67.6696 15.1259 66.7176 15.1259ZM68.7336 12.4099V11.5139L67.1516 11.8499C66.4376 12.0039 65.9056 12.2279 65.9056 12.8859C65.9056 13.4599 66.3256 13.7819 66.9696 13.7819C67.8656 13.7819 68.7336 13.3059 68.7336 12.4099ZM74.1419 13.0399L75.5139 11.9059C76.2139 12.9979 77.2639 13.6279 78.4119 13.6279C79.5459 13.6279 80.3999 13.1099 80.3999 12.1439C80.3999 11.1219 79.3499 10.9819 77.8519 10.6179C76.3399 10.2539 74.7159 9.80595 74.7159 7.84595C74.7159 5.98395 76.3119 4.79395 78.3419 4.79395C80.0639 4.79395 81.4079 5.60595 82.0799 6.65595L80.7639 7.78995C80.2039 6.92195 79.4619 6.31995 78.2859 6.31995C77.2079 6.31995 76.4659 6.86595 76.4659 7.66395C76.4659 8.54595 77.2359 8.72795 78.5939 9.03595C80.2179 9.39995 82.1639 9.77795 82.1639 11.9619C82.1639 13.9359 80.4279 15.1539 78.3559 15.1539C76.6339 15.1539 74.9259 14.3279 74.1419 13.0399ZM83.6424 13.1519V9.07795H82.6204V7.64995H83.6424V5.49395H85.2944V7.64995H86.8344V9.07795H85.2944V12.8859C85.2944 13.5439 85.6724 13.6139 86.2744 13.6139C86.5544 13.6139 86.7084 13.5999 86.9604 13.5719V14.9859C86.6524 15.0419 86.2324 15.0839 85.7984 15.0839C84.3984 15.0839 83.6424 14.6499 83.6424 13.1519ZM94.7726 11.3319C94.7726 13.6139 93.3026 15.1539 91.2306 15.1539C89.1586 15.1539 87.6886 13.6139 87.6886 11.3319C87.6886 9.04994 89.1586 7.50995 91.2306 7.50995C93.3026 7.50995 94.7726 9.04994 94.7726 11.3319ZM89.3826 11.3319C89.3826 12.8299 90.0966 13.7399 91.2306 13.7399C92.3646 13.7399 93.0786 12.8299 93.0786 11.3319C93.0786 9.83394 92.3646 8.92394 91.2306 8.92394C90.0966 8.92394 89.3826 9.83394 89.3826 11.3319ZM100.252 7.63595V9.31595C100.042 9.28795 99.8742 9.27395 99.6362 9.27395C98.5722 9.27395 97.7602 9.95994 97.7602 11.1359V14.9999H96.0802V7.64995H97.7602V8.74194C98.0822 8.05594 98.8382 7.60794 99.7762 7.60794C99.9722 7.60794 100.126 7.62195 100.252 7.63595ZM104.165 15.1539C102.065 15.1539 100.595 13.5999 100.595 11.3319C100.595 9.17595 102.051 7.50995 104.095 7.50995C106.223 7.50995 107.357 9.11994 107.357 11.1359V11.6959H102.205C102.331 12.9559 103.087 13.7259 104.165 13.7259C104.991 13.7259 105.649 13.3059 105.873 12.5499L107.315 13.0959C106.797 14.3839 105.635 15.1539 104.165 15.1539ZM104.081 8.92394C103.213 8.92394 102.541 9.44195 102.289 10.4359H105.663C105.649 9.62395 105.145 8.92394 104.081 8.92394ZM38.583 32.9999H37.127L34.495 25.2299V32.9999H32.829V22.9479H35.293L37.883 30.6479L40.473 22.9479H42.881V32.9999H41.215V25.2299L38.583 32.9999ZM47.8162 33.1539C45.7162 33.1539 44.2462 31.5999 44.2462 29.3319C44.2462 27.1759 45.7022 25.5099 47.7462 25.5099C49.8742 25.5099 51.0082 27.1199 51.0082 29.1359V29.6959H45.8562C45.9822 30.9559 46.7382 31.7259 47.8162 31.7259C48.6422 31.7259 49.3002 31.3059 49.5242 30.5499L50.9662 31.0959C50.4482 32.3839 49.2862 33.1539 47.8162 33.1539ZM47.7322 26.9239C46.8642 26.9239 46.1922 27.4419 45.9402 28.4359H49.3142C49.3002 27.6239 48.7962 26.9239 47.7322 26.9239ZM56.4407 25.6359V27.3159C56.2307 27.2879 56.0627 27.2739 55.8247 27.2739C54.7607 27.2739 53.9487 27.9599 53.9487 29.1359V32.9999H52.2687V25.6499H53.9487V26.7419C54.2707 26.0559 55.0267 25.6079 55.9647 25.6079C56.1607 25.6079 56.3147 25.6219 56.4407 25.6359ZM58.4633 29.3319C58.4633 30.8299 59.2473 31.6979 60.3953 31.6979C61.2913 31.6979 61.8373 31.1099 62.0473 30.2979L63.4893 31.0259C63.1113 32.2159 61.9913 33.1539 60.3953 33.1539C58.2953 33.1539 56.7833 31.5999 56.7833 29.3319C56.7833 27.0639 58.2953 25.5099 60.3953 25.5099C61.9773 25.5099 63.0693 26.4059 63.4613 27.5819L62.0473 28.3519C61.8373 27.5539 61.2913 26.9519 60.3953 26.9519C59.2473 26.9519 58.4633 27.8339 58.4633 29.3319ZM64.505 32.9999V22.9479H66.185V26.4339C66.605 25.9439 67.263 25.5099 68.215 25.5099C69.755 25.5099 70.679 26.5739 70.679 28.1559V32.9999H68.999V28.6459C68.999 27.7359 68.635 27.0779 67.711 27.0779C66.955 27.0779 66.185 27.6379 66.185 28.6879V32.9999H64.505ZM74.3397 33.1259C72.9397 33.1259 71.8617 32.2719 71.8617 30.9559C71.8617 29.5559 72.9117 28.9399 74.3257 28.6459L76.3557 28.2259V28.0999C76.3557 27.3999 75.9917 26.9659 75.0957 26.9659C74.2977 26.9659 73.8777 27.3299 73.6817 28.0439L72.0997 27.6799C72.4637 26.4619 73.5417 25.5099 75.1657 25.5099C76.9297 25.5099 77.9937 26.3499 77.9937 28.0439V31.2079C77.9937 31.6279 78.1757 31.7539 78.6377 31.6979V32.9999C77.4197 33.1399 76.7757 32.9019 76.5237 32.2999C76.0617 32.8179 75.2917 33.1259 74.3397 33.1259ZM76.3557 30.4099V29.5139L74.7737 29.8499C74.0597 30.0039 73.5277 30.2279 73.5277 30.8859C73.5277 31.4599 73.9477 31.7819 74.5917 31.7819C75.4877 31.7819 76.3557 31.3059 76.3557 30.4099ZM79.8312 32.9999V25.6499H81.5112V26.4339C81.9312 25.9439 82.5892 25.5099 83.5412 25.5099C85.0812 25.5099 86.0052 26.5739 86.0052 28.1559V32.9999H84.3252V28.6459C84.3252 27.7359 83.9612 27.0779 83.0372 27.0779C82.2812 27.0779 81.5112 27.6379 81.5112 28.6879V32.9999H79.8312ZM87.8739 31.1519V27.0779H86.8519V25.6499H87.8739V23.4939H89.5259V25.6499H91.0659V27.0779H89.5259V30.8859C89.5259 31.5439 89.9039 31.6139 90.5059 31.6139C90.7859 31.6139 90.9399 31.5999 91.1919 31.5719V32.9859C90.8839 33.0419 90.4639 33.0839 90.0299 33.0839C88.6299 33.0839 87.8739 32.6499 87.8739 31.1519ZM91.6804 31.5999L92.9404 30.5919C93.3744 31.3059 94.2144 31.7819 95.0684 31.7819C95.7824 31.7819 96.4404 31.5299 96.4404 30.8719C96.4404 30.2419 95.8244 30.1719 94.6624 29.9339C93.5004 29.6959 92.1704 29.4019 92.1704 27.8339C92.1704 26.4899 93.3464 25.5099 95.0404 25.5099C96.3284 25.5099 97.4764 26.0839 98.0084 26.8959L96.8744 27.9179C96.4544 27.2599 95.7544 26.8819 94.9424 26.8819C94.2564 26.8819 93.8084 27.1899 93.8084 27.6799C93.8084 28.2119 94.3404 28.3099 95.2644 28.5059C96.5104 28.7719 98.0784 29.0379 98.0784 30.7179C98.0784 32.2019 96.7204 33.1539 95.0544 33.1539C93.6964 33.1539 92.3384 32.6079 91.6804 31.5999Z" fill="#20336B"/>
<path d="M63 80L65.8868 75H60.1132L63 80ZM62.5 44V75.5H63.5V44H62.5Z" fill="#20336B"/>
<path d="M131 117L126 114.113V119.887L131 117ZM95 117.5H126.5V116.5H95V117.5Z" fill="#20336B"/>
<path d="M243 117L238 114.113V119.887L243 117ZM207 117.5H238.5V116.5H207V117.5Z" fill="#20336B"/>
<path d="M364 117L359 114.113V119.887L364 117ZM328 117.5H359.5V116.5H328V117.5Z" fill="#20336B"/>
<path d="M284 143.5C299.188 143.5 311.5 131.188 311.5 116C311.5 100.812 299.188 88.5 284 88.5C268.812 88.5 256.5 100.812 256.5 116C256.5 131.188 268.812 143.5 284 143.5Z" stroke="#20336B"/>
<path d="M272.597 156.948H274.389V167H272.597V162.604H267.781V167H265.989V156.948H267.781V161.036H272.597V156.948ZM282.85 163.332C282.85 165.614 281.38 167.154 279.308 167.154C277.236 167.154 275.766 165.614 275.766 163.332C275.766 161.05 277.236 159.51 279.308 159.51C281.38 159.51 282.85 161.05 282.85 163.332ZM277.46 163.332C277.46 164.83 278.174 165.74 279.308 165.74C280.442 165.74 281.156 164.83 281.156 163.332C281.156 161.834 280.442 160.924 279.308 160.924C278.174 160.924 277.46 161.834 277.46 163.332ZM285.837 162.688V167H284.157V159.65H285.837V160.434C286.243 159.944 286.873 159.51 287.853 159.51C288.735 159.51 289.393 159.902 289.799 160.532C290.247 160.056 290.947 159.51 292.081 159.51C293.593 159.51 294.573 160.574 294.573 162.156V167H292.893V162.646C292.893 161.736 292.557 161.078 291.661 161.078C290.947 161.078 290.205 161.638 290.205 162.688V167H288.525V162.646C288.525 161.736 288.189 161.078 287.293 161.078C286.579 161.078 285.837 161.638 285.837 162.688ZM299.392 167.154C297.292 167.154 295.822 165.6 295.822 163.332C295.822 161.176 297.278 159.51 299.322 159.51C301.45 159.51 302.584 161.12 302.584 163.136V163.696H297.432C297.558 164.956 298.314 165.726 299.392 165.726C300.218 165.726 300.876 165.306 301.1 164.55L302.542 165.096C302.024 166.384 300.862 167.154 299.392 167.154ZM299.308 160.924C298.44 160.924 297.768 161.442 297.516 162.436H300.89C300.876 161.624 300.372 160.924 299.308 160.924ZM257.065 183.04L258.437 181.906C259.137 182.998 260.187 183.628 261.335 183.628C262.469 183.628 263.323 183.11 263.323 182.144C263.323 181.122 262.273 180.982 260.775 180.618C259.263 180.254 257.639 179.806 257.639 177.846C257.639 175.984 259.235 174.794 261.265 174.794C262.987 174.794 264.331 175.606 265.003 176.656L263.687 177.79C263.127 176.922 262.385 176.32 261.209 176.32C260.131 176.32 259.389 176.866 259.389 177.664C259.389 178.546 260.159 178.728 261.517 179.036C263.141 179.4 265.087 179.778 265.087 181.962C265.087 183.936 263.351 185.154 261.279 185.154C259.557 185.154 257.849 184.328 257.065 183.04ZM269.519 185.154C267.419 185.154 265.949 183.6 265.949 181.332C265.949 179.176 267.405 177.51 269.449 177.51C271.577 177.51 272.711 179.12 272.711 181.136V181.696H267.559C267.685 182.956 268.441 183.726 269.519 183.726C270.345 183.726 271.003 183.306 271.227 182.55L272.669 183.096C272.151 184.384 270.989 185.154 269.519 185.154ZM269.435 178.924C268.567 178.924 267.895 179.442 267.643 180.436H271.017C271.003 179.624 270.499 178.924 269.435 178.924ZM278.144 177.636V179.316C277.934 179.288 277.766 179.274 277.528 179.274C276.464 179.274 275.652 179.96 275.652 181.136V185H273.972V177.65H275.652V178.742C275.974 178.056 276.73 177.608 277.668 177.608C277.864 177.608 278.018 177.622 278.144 177.636ZM282.969 185H281.275L278.587 177.65H280.351L282.143 182.984L283.921 177.65H285.657L282.969 185ZM286.536 176.67V174.948H288.272V176.67H286.536ZM288.244 177.65V185H286.564V177.65H288.244ZM291.227 181.332C291.227 182.83 292.011 183.698 293.159 183.698C294.055 183.698 294.601 183.11 294.811 182.298L296.253 183.026C295.875 184.216 294.755 185.154 293.159 185.154C291.059 185.154 289.547 183.6 289.547 181.332C289.547 179.064 291.059 177.51 293.159 177.51C294.741 177.51 295.833 178.406 296.225 179.582L294.811 180.352C294.601 179.554 294.055 178.952 293.159 178.952C292.011 178.952 291.227 179.834 291.227 181.332ZM300.377 185.154C298.277 185.154 296.807 183.6 296.807 181.332C296.807 179.176 298.263 177.51 300.307 177.51C302.435 177.51 303.569 179.12 303.569 181.136V181.696H298.417C298.543 182.956 299.299 183.726 300.377 183.726C301.203 183.726 301.861 183.306 302.085 182.55L303.527 183.096C303.009 184.384 301.847 185.154 300.377 185.154ZM300.293 178.924C299.425 178.924 298.753 179.442 298.501 180.436H301.875C301.861 179.624 301.357 178.924 300.293 178.924ZM304.059 183.6L305.319 182.592C305.753 183.306 306.593 183.782 307.447 183.782C308.161 183.782 308.819 183.53 308.819 182.872C308.819 182.242 308.203 182.172 307.041 181.934C305.879 181.696 304.549 181.402 304.549 179.834C304.549 178.49 305.725 177.51 307.419 177.51C308.707 177.51 309.855 178.084 310.387 178.896L309.253 179.918C308.833 179.26 308.133 178.882 307.321 178.882C306.635 178.882 306.187 179.19 306.187 179.68C306.187 180.212 306.719 180.31 307.643 180.506C308.889 180.772 310.457 181.038 310.457 182.718C310.457 184.202 309.099 185.154 307.433 185.154C306.075 185.154 304.717 184.608 304.059 183.6Z" fill="#20336B"/>
<path d="M29.6649 167V156.948H33.0249C36.1469 156.948 38.0789 158.908 38.0789 161.974C38.0789 165.04 36.1469 167 33.0249 167H29.6649ZM31.4149 165.46H33.0249C35.0969 165.46 36.3149 164.088 36.3149 161.974C36.3149 159.846 35.0969 158.488 33.0109 158.488H31.4149V165.46ZM42.5193 167.154C40.4193 167.154 38.9493 165.6 38.9493 163.332C38.9493 161.176 40.4053 159.51 42.4493 159.51C44.5773 159.51 45.7113 161.12 45.7113 163.136V163.696H40.5593C40.6853 164.956 41.4413 165.726 42.5193 165.726C43.3453 165.726 44.0033 165.306 44.2273 164.55L45.6693 165.096C45.1513 166.384 43.9893 167.154 42.5193 167.154ZM42.4353 160.924C41.5673 160.924 40.8953 161.442 40.6433 162.436H44.0173C44.0033 161.624 43.4993 160.924 42.4353 160.924ZM48.6518 156.948V167H46.9718V156.948H48.6518ZM50.3892 158.67V156.948H52.1252V158.67H50.3892ZM52.0972 159.65V167H50.4172V159.65H52.0972ZM57.3905 167H55.6965L53.0085 159.65H54.7725L56.5645 164.984L58.3425 159.65H60.0785L57.3905 167ZM63.9158 167.154C61.8158 167.154 60.3458 165.6 60.3458 163.332C60.3458 161.176 61.8018 159.51 63.8458 159.51C65.9738 159.51 67.1078 161.12 67.1078 163.136V163.696H61.9558C62.0818 164.956 62.8378 165.726 63.9158 165.726C64.7418 165.726 65.3998 165.306 65.6238 164.55L67.0658 165.096C66.5478 166.384 65.3858 167.154 63.9158 167.154ZM63.8318 160.924C62.9638 160.924 62.2918 161.442 62.0398 162.436H65.4138C65.3998 161.624 64.8958 160.924 63.8318 160.924ZM72.5403 159.636V161.316C72.3303 161.288 72.1623 161.274 71.9243 161.274C70.8603 161.274 70.0483 161.96 70.0483 163.136V167H68.3683V159.65H70.0483V160.742C70.3703 160.056 71.1263 159.608 72.0643 159.608C72.2603 159.608 72.4143 159.622 72.5403 159.636ZM77.0291 167.686C76.6091 168.806 75.9651 169.576 74.4391 169.576C74.0891 169.576 73.9911 169.562 73.7531 169.534V168.12C73.9771 168.148 74.1031 168.162 74.3131 168.162C74.8731 168.162 75.1391 168.008 75.3771 167.42L75.6571 166.734L72.9831 159.65H74.7471L76.5531 164.802L78.3171 159.65H80.0531L77.0291 167.686ZM85.1461 157.004L81.4221 167H80.2181L83.9421 157.004H85.1461ZM11.0901 176.516H7.85611V185H6.06411V176.516H2.83011V174.948H11.0901V176.516ZM12.6532 185.126C11.2532 185.126 10.1752 184.272 10.1752 182.956C10.1752 181.556 11.2252 180.94 12.6392 180.646L14.6692 180.226V180.1C14.6692 179.4 14.3052 178.966 13.4092 178.966C12.6112 178.966 12.1912 179.33 11.9952 180.044L10.4132 179.68C10.7772 178.462 11.8552 177.51 13.4792 177.51C15.2432 177.51 16.3072 178.35 16.3072 180.044V183.208C16.3072 183.628 16.4892 183.754 16.9512 183.698V185C15.7332 185.14 15.0892 184.902 14.8372 184.3C14.3752 184.818 13.6052 185.126 12.6532 185.126ZM14.6692 182.41V181.514L13.0872 181.85C12.3732 182.004 11.8412 182.228 11.8412 182.886C11.8412 183.46 12.2612 183.782 12.9052 183.782C13.8012 183.782 14.6692 183.306 14.6692 182.41ZM19.8247 174.948V180.744L22.6527 177.65H24.7107L21.9387 180.506L24.9347 185H22.9887L20.7907 181.682L19.8247 182.662V185H18.1447V174.948H19.8247ZM28.5398 185.154C26.4398 185.154 24.9698 183.6 24.9698 181.332C24.9698 179.176 26.4258 177.51 28.4698 177.51C30.5978 177.51 31.7318 179.12 31.7318 181.136V181.696H26.5798C26.7058 182.956 27.4618 183.726 28.5398 183.726C29.3658 183.726 30.0238 183.306 30.2478 182.55L31.6898 183.096C31.1718 184.384 30.0098 185.154 28.5398 185.154ZM28.4558 178.924C27.5878 178.924 26.9158 179.442 26.6638 180.436H30.0378C30.0238 179.624 29.5198 178.924 28.4558 178.924ZM39.6144 181.332C39.6144 183.614 38.1444 185.154 36.0724 185.154C34.0004 185.154 32.5304 183.614 32.5304 181.332C32.5304 179.05 34.0004 177.51 36.0724 177.51C38.1444 177.51 39.6144 179.05 39.6144 181.332ZM34.2244 181.332C34.2244 182.83 34.9384 183.74 36.0724 183.74C37.2064 183.74 37.9204 182.83 37.9204 181.332C37.9204 179.834 37.2064 178.924 36.0724 178.924C34.9384 178.924 34.2244 179.834 34.2244 181.332ZM47.04 177.65V185H45.36V184.216C44.94 184.706 44.31 185.154 43.358 185.154C41.818 185.154 40.866 184.104 40.866 182.522V177.65H42.546V182.158C42.546 183.054 42.938 183.628 43.848 183.628C44.604 183.628 45.36 183.068 45.36 182.018V177.65H47.04ZM48.9647 183.152V179.078H47.9427V177.65H48.9647V175.494H50.6167V177.65H52.1567V179.078H50.6167V182.886C50.6167 183.544 50.9947 183.614 51.5967 183.614C51.8767 183.614 52.0307 183.6 52.2827 183.572V184.986C51.9747 185.042 51.5547 185.084 51.1207 185.084C49.7207 185.084 48.9647 184.65 48.9647 183.152ZM57.7272 175.004L54.0032 185H52.7992L56.5232 175.004H57.7272ZM63.4969 181.108V185H61.7049V174.948H65.7229C67.9629 174.948 69.3629 175.998 69.3629 178.028C69.3629 179.61 68.4949 180.618 67.0249 180.968L69.6149 185H67.5709L65.1209 181.108H63.4969ZM63.4969 179.568H65.6249C66.9129 179.568 67.5989 179.008 67.5989 178.028C67.5989 177.034 66.9129 176.488 65.6249 176.488H63.4969V179.568ZM73.7527 185.154C71.6527 185.154 70.1827 183.6 70.1827 181.332C70.1827 179.176 71.6387 177.51 73.6827 177.51C75.8107 177.51 76.9447 179.12 76.9447 181.136V181.696H71.7927C71.9187 182.956 72.6747 183.726 73.7527 183.726C74.5787 183.726 75.2367 183.306 75.4607 182.55L76.9027 183.096C76.3847 184.384 75.2227 185.154 73.7527 185.154ZM73.6687 178.924C72.8007 178.924 72.1287 179.442 71.8767 180.436H75.2507C75.2367 179.624 74.7327 178.924 73.6687 178.924ZM78.2052 185V177.65H79.8852V178.434C80.3052 177.944 80.9632 177.51 81.9152 177.51C83.4552 177.51 84.3792 178.574 84.3792 180.156V185H82.6992V180.646C82.6992 179.736 82.3352 179.078 81.4112 179.078C80.6552 179.078 79.8852 179.638 79.8852 180.688V185H78.2052ZM86.2479 183.152V179.078H85.2259V177.65H86.2479V175.494H87.8999V177.65H89.4399V179.078H87.8999V182.886C87.8999 183.544 88.2779 183.614 88.8799 183.614C89.1599 183.614 89.3139 183.6 89.5659 183.572V184.986C89.2579 185.042 88.8379 185.084 88.4039 185.084C87.0039 185.084 86.2479 184.65 86.2479 183.152ZM92.7704 185.126C91.3704 185.126 90.2924 184.272 90.2924 182.956C90.2924 181.556 91.3424 180.94 92.7564 180.646L94.7864 180.226V180.1C94.7864 179.4 94.4224 178.966 93.5264 178.966C92.7284 178.966 92.3084 179.33 92.1124 180.044L90.5304 179.68C90.8944 178.462 91.9724 177.51 93.5964 177.51C95.3604 177.51 96.4244 178.35 96.4244 180.044V183.208C96.4244 183.628 96.6064 183.754 97.0684 183.698V185C95.8504 185.14 95.2064 184.902 94.9544 184.3C94.4924 184.818 93.7224 185.126 92.7704 185.126ZM94.7864 182.41V181.514L93.2044 181.85C92.4904 182.004 91.9584 182.228 91.9584 182.886C91.9584 183.46 92.3784 183.782 93.0224 183.782C93.9184 183.782 94.7864 183.306 94.7864 182.41ZM99.9419 174.948V185H98.2619V174.948H99.9419ZM100.937 183.6L102.197 182.592C102.631 183.306 103.471 183.782 104.325 183.782C105.039 183.782 105.697 183.53 105.697 182.872C105.697 182.242 105.081 182.172 103.919 181.934C102.757 181.696 101.427 181.402 101.427 179.834C101.427 178.49 102.603 177.51 104.297 177.51C105.585 177.51 106.733 178.084 107.265 178.896L106.131 179.918C105.711 179.26 105.011 178.882 104.199 178.882C103.513 178.882 103.065 179.19 103.065 179.68C103.065 180.212 103.597 180.31 104.521 180.506C105.767 180.772 107.335 181.038 107.335 182.718C107.335 184.202 105.977 185.154 104.311 185.154C102.953 185.154 101.595 184.608 100.937 183.6Z" fill="#20336B"/>
<path d="M165 143.5C180.188 143.5 192.5 131.188 192.5 116C192.5 100.812 180.188 88.5 165 88.5C149.812 88.5 137.5 100.812 137.5 116C137.5 131.188 149.812 143.5 165 143.5Z" stroke="#20336B"/>
<path d="M167.842 115.631C168.243 115.636 168.64 115.561 169.011 115.409C169.382 115.258 169.719 115.034 170.002 114.751L172.832 111.921C173.019 111.734 173.123 111.48 173.123 111.216C173.123 110.952 173.019 110.698 172.832 110.511C172.739 110.417 172.629 110.343 172.507 110.292C172.385 110.241 172.254 110.215 172.122 110.215C171.99 110.215 171.86 110.241 171.738 110.292C171.616 110.343 171.505 110.417 171.412 110.511L168.552 113.331C168.459 113.425 168.349 113.499 168.227 113.55C168.105 113.601 167.974 113.627 167.842 113.627C167.71 113.627 167.58 113.601 167.458 113.55C167.336 113.499 167.225 113.425 167.132 113.331L170.672 109.801C170.766 109.708 170.84 109.597 170.89 109.475C170.941 109.353 170.967 109.223 170.967 109.091C170.967 108.959 170.941 108.828 170.89 108.707C170.84 108.585 170.766 108.474 170.672 108.381C170.579 108.288 170.469 108.214 170.347 108.163C170.225 108.113 170.094 108.087 169.962 108.087C169.831 108.087 169.7 108.113 169.578 108.163C169.456 108.214 169.346 108.288 169.252 108.381L165.722 111.921C165.536 111.734 165.432 111.48 165.432 111.216C165.432 110.952 165.536 110.698 165.722 110.511L168.552 107.681C168.646 107.588 168.72 107.477 168.77 107.355C168.821 107.233 168.847 107.103 168.847 106.971C168.847 106.839 168.821 106.708 168.77 106.587C168.72 106.465 168.646 106.354 168.552 106.261C168.459 106.168 168.349 106.094 168.227 106.043C168.105 105.993 167.974 105.967 167.842 105.967C167.711 105.967 167.58 105.993 167.458 106.043C167.336 106.094 167.226 106.168 167.132 106.261L164.302 109.091C163.741 109.653 163.425 110.416 163.425 111.211C163.425 112.006 163.741 112.768 164.302 113.331L163.002 114.621L154.732 106.321L154.632 106.261C154.581 106.216 154.524 106.179 154.462 106.151L154.282 106.081L154.162 106.001H153.892C153.833 105.991 153.772 105.991 153.712 106.001C153.652 106.023 153.595 106.053 153.542 106.091L153.382 106.191H153.312L153.252 106.291C153.21 106.344 153.173 106.401 153.142 106.461C153.113 106.522 153.09 106.585 153.072 106.651C153.072 106.651 153.072 106.721 153.072 106.761C152.83 108.452 152.984 110.177 153.524 111.798C154.064 113.419 154.974 114.893 156.182 116.101L158.822 118.731L153.412 124.131C153.319 124.224 153.244 124.334 153.194 124.456C153.143 124.578 153.117 124.709 153.117 124.841C153.117 124.973 153.143 125.104 153.194 125.225C153.244 125.347 153.319 125.458 153.412 125.551C153.506 125.644 153.617 125.717 153.739 125.767C153.86 125.816 153.991 125.842 154.122 125.841C154.254 125.842 154.384 125.816 154.506 125.767C154.628 125.717 154.739 125.644 154.832 125.551L160.902 119.571L163.732 116.741L165.732 114.741C166.29 115.305 167.049 115.625 167.842 115.631ZM160.192 117.451L157.562 114.811C156.121 113.35 155.218 111.442 155.002 109.401L161.612 116.001L160.192 117.451ZM166.432 118.021C166.244 117.831 165.988 117.724 165.721 117.723C165.454 117.722 165.197 117.828 165.007 118.016C164.818 118.204 164.711 118.46 164.71 118.727C164.709 118.995 164.814 119.251 165.002 119.441L171.302 125.741C171.493 125.915 171.744 126.008 172.002 126.001C172.134 126.002 172.264 125.976 172.386 125.927C172.508 125.877 172.619 125.804 172.712 125.711C172.806 125.618 172.881 125.507 172.931 125.385C172.982 125.264 173.008 125.133 173.008 125.001C173.008 124.869 172.982 124.738 172.931 124.616C172.881 124.494 172.806 124.384 172.712 124.291L166.432 118.021Z" fill="#20336B"/>
<path d="M143.305 167V156.948H146.665C149.787 156.948 151.719 158.908 151.719 161.974C151.719 165.04 149.787 167 146.665 167H143.305ZM145.055 165.46H146.665C148.737 165.46 149.955 164.088 149.955 161.974C149.955 159.846 148.737 158.488 146.651 158.488H145.055V165.46ZM153.023 158.67V156.948H154.759V158.67H153.023ZM154.731 159.65V167H153.051V159.65H154.731ZM156.496 167V159.65H158.176V160.434C158.596 159.944 159.254 159.51 160.206 159.51C161.746 159.51 162.67 160.574 162.67 162.156V167H160.99V162.646C160.99 161.736 160.626 161.078 159.702 161.078C158.946 161.078 158.176 161.638 158.176 162.688V167H156.496ZM167.493 167.154C165.393 167.154 163.923 165.6 163.923 163.332C163.923 161.176 165.379 159.51 167.423 159.51C169.551 159.51 170.685 161.12 170.685 163.136V163.696H165.533C165.659 164.956 166.415 165.726 167.493 165.726C168.319 165.726 168.977 165.306 169.201 164.55L170.643 165.096C170.125 166.384 168.963 167.154 167.493 167.154ZM167.409 160.924C166.541 160.924 165.869 161.442 165.617 162.436H168.991C168.977 161.624 168.473 160.924 167.409 160.924ZM171.829 163.668V162.17H175.749V163.668H171.829ZM177.167 158.67V156.948H178.903V158.67H177.167ZM178.875 159.65V167H177.195V159.65H178.875ZM180.641 167V159.65H182.321V160.434C182.741 159.944 183.399 159.51 184.351 159.51C185.891 159.51 186.815 160.574 186.815 162.156V167H185.135V162.646C185.135 161.736 184.771 161.078 183.847 161.078C183.091 161.078 182.321 161.638 182.321 162.688V167H180.641Z" fill="#20336B"/>
<path d="M409 143.5C424.188 143.5 436.5 131.188 436.5 116C436.5 100.812 424.188 88.5 409 88.5C393.812 88.5 381.5 100.812 381.5 116C381.5 131.188 393.812 143.5 409 143.5Z" stroke="#20336B"/>
<path fill-rule="evenodd" clip-rule="evenodd" d="M414.953 124.187L416.551 125.785C416.658 125.891 416.801 125.951 416.951 125.951C417.101 125.951 417.244 125.891 417.351 125.785L420.547 122.588C420.65 122.482 420.708 122.339 420.706 122.191C420.705 122.043 420.645 121.901 420.541 121.796C420.436 121.691 420.294 121.632 420.146 121.63C419.998 121.629 419.855 121.686 419.749 121.789L416.951 124.586L415.752 123.388C415.646 123.285 415.503 123.228 415.355 123.229C415.207 123.23 415.065 123.29 414.96 123.394C414.855 123.499 414.796 123.641 414.795 123.789C414.793 123.937 414.85 124.08 414.953 124.187ZM404.766 114.285C404.766 113.956 404.635 113.639 404.402 113.406C404.169 113.173 403.852 113.042 403.522 113.042H402.618C402.289 113.042 401.972 113.173 401.739 113.406C401.506 113.639 401.375 113.956 401.375 114.285V115.19C401.375 115.519 401.506 115.836 401.739 116.069C401.972 116.302 402.289 116.433 402.618 116.433H403.522C403.852 116.433 404.169 116.302 404.402 116.069C404.635 115.836 404.766 115.519 404.766 115.19V114.285ZM403.635 114.285V115.19C403.635 115.205 403.633 115.219 403.627 115.233C403.621 115.247 403.613 115.259 403.603 115.269C403.592 115.28 403.58 115.288 403.566 115.294C403.552 115.3 403.537 115.303 403.522 115.303H402.618C402.603 115.303 402.589 115.3 402.575 115.294C402.561 115.288 402.549 115.28 402.539 115.269C402.528 115.259 402.52 115.247 402.514 115.233C402.508 115.219 402.505 115.205 402.505 115.19V114.285C402.505 114.255 402.517 114.227 402.539 114.206C402.549 114.195 402.561 114.187 402.575 114.181C402.589 114.175 402.603 114.172 402.618 114.172H403.522C403.553 114.172 403.581 114.184 403.603 114.206C403.613 114.216 403.621 114.228 403.627 114.242C403.633 114.256 403.635 114.27 403.635 114.285ZM404.766 118.807C404.766 118.478 404.635 118.161 404.402 117.928C404.169 117.695 403.852 117.564 403.522 117.564H402.618C402.289 117.564 401.972 117.695 401.739 117.928C401.506 118.161 401.375 118.477 401.375 118.807V119.711C401.375 120.041 401.506 120.357 401.739 120.591C401.972 120.824 402.289 120.955 402.618 120.955H403.522C403.852 120.955 404.169 120.824 404.402 120.591C404.635 120.357 404.766 120.041 404.766 119.711V118.807ZM403.635 118.807V119.711C403.635 119.726 403.633 119.741 403.627 119.755C403.621 119.768 403.613 119.781 403.603 119.791C403.592 119.802 403.58 119.81 403.566 119.816C403.552 119.822 403.537 119.825 403.522 119.824H402.618C402.603 119.825 402.589 119.822 402.575 119.816C402.561 119.81 402.549 119.802 402.539 119.791C402.528 119.781 402.52 119.768 402.514 119.755C402.508 119.741 402.505 119.726 402.505 119.711V118.807C402.505 118.777 402.517 118.748 402.539 118.727C402.549 118.717 402.561 118.708 402.575 118.703C402.589 118.697 402.603 118.694 402.618 118.694H403.522C403.553 118.694 403.581 118.706 403.603 118.727C403.613 118.738 403.621 118.75 403.627 118.764C403.633 118.778 403.635 118.792 403.635 118.807ZM404.766 123.329C404.766 122.999 404.635 122.683 404.402 122.449C404.169 122.216 403.852 122.086 403.522 122.085H402.618C402.289 122.085 401.972 122.216 401.739 122.449C401.506 122.683 401.375 122.999 401.375 123.329V124.233C401.375 124.563 401.506 124.879 401.739 125.113C401.972 125.346 402.289 125.477 402.618 125.477H403.522C403.852 125.477 404.169 125.346 404.402 125.113C404.635 124.879 404.766 124.563 404.766 124.233V123.329ZM403.635 123.329V124.233C403.635 124.248 403.633 124.263 403.627 124.276C403.621 124.29 403.613 124.302 403.603 124.313C403.592 124.323 403.58 124.332 403.566 124.338C403.552 124.343 403.537 124.346 403.522 124.346H402.618C402.603 124.346 402.589 124.343 402.575 124.338C402.561 124.332 402.549 124.323 402.539 124.313C402.528 124.302 402.52 124.29 402.514 124.276C402.508 124.263 402.505 124.248 402.505 124.233V123.329C402.505 123.299 402.517 123.27 402.539 123.249C402.549 123.239 402.561 123.23 402.575 123.224C402.589 123.219 402.603 123.216 402.618 123.216H403.522C403.553 123.216 403.581 123.228 403.603 123.249C403.613 123.259 403.621 123.272 403.627 123.286C403.633 123.299 403.635 123.314 403.635 123.329ZM409.288 114.285C409.288 113.956 409.157 113.639 408.924 113.406C408.69 113.173 408.374 113.042 408.044 113.042H407.14C406.81 113.042 406.494 113.173 406.261 113.406C406.027 113.639 405.897 113.956 405.897 114.285V115.19C405.897 115.519 406.027 115.836 406.261 116.069C406.494 116.302 406.81 116.433 407.14 116.433H408.044C408.374 116.433 408.69 116.302 408.924 116.069C409.157 115.836 409.288 115.519 409.288 115.19V114.285ZM408.157 114.285V115.19C408.157 115.205 408.154 115.219 408.149 115.233C408.143 115.247 408.135 115.259 408.124 115.269C408.114 115.28 408.101 115.288 408.087 115.294C408.074 115.3 408.059 115.303 408.044 115.303H407.14C407.125 115.303 407.11 115.3 407.097 115.294C407.083 115.288 407.071 115.28 407.061 115.269C407.05 115.259 407.041 115.247 407.035 115.233C407.03 115.219 407.027 115.205 407.027 115.19V114.285C407.027 114.255 407.039 114.227 407.061 114.206C407.071 114.195 407.083 114.187 407.097 114.181C407.11 114.175 407.125 114.172 407.14 114.172H408.044C408.075 114.172 408.103 114.184 408.124 114.206C408.135 114.216 408.143 114.228 408.149 114.242C408.154 114.256 408.157 114.27 408.157 114.285ZM409.288 118.807C409.288 118.478 409.157 118.161 408.924 117.928C408.69 117.695 408.374 117.564 408.044 117.564H407.14C406.81 117.564 406.494 117.695 406.261 117.928C406.027 118.161 405.897 118.477 405.897 118.807V119.711C405.897 120.041 406.027 120.357 406.261 120.591C406.494 120.824 406.81 120.955 407.14 120.955H408.044C408.374 120.955 408.69 120.824 408.924 120.591C409.157 120.357 409.288 120.041 409.288 119.711V118.807ZM408.157 118.807V119.711C408.157 119.726 408.154 119.741 408.149 119.755C408.143 119.768 408.135 119.781 408.124 119.791C408.114 119.802 408.101 119.81 408.087 119.816C408.074 119.822 408.059 119.825 408.044 119.824H407.14C407.125 119.825 407.11 119.822 407.097 119.816C407.083 119.81 407.071 119.802 407.061 119.791C407.05 119.781 407.041 119.768 407.035 119.755C407.03 119.741 407.027 119.726 407.027 119.711V118.807C407.027 118.777 407.039 118.748 407.061 118.727C407.071 118.717 407.083 118.708 407.097 118.703C407.11 118.697 407.125 118.694 407.14 118.694H408.044C408.075 118.694 408.103 118.706 408.124 118.727C408.135 118.738 408.143 118.75 408.149 118.764C408.154 118.778 408.157 118.792 408.157 118.807ZM409.288 123.329C409.288 122.999 409.157 122.683 408.924 122.449C408.69 122.216 408.374 122.086 408.044 122.085H407.14C406.81 122.085 406.494 122.216 406.261 122.449C406.027 122.683 405.897 122.999 405.897 123.329V124.233C405.897 124.563 406.027 124.879 406.261 125.113C406.494 125.346 406.81 125.477 407.14 125.477H408.044C408.374 125.477 408.69 125.346 408.924 125.113C409.157 124.879 409.288 124.563 409.288 124.233V123.329ZM408.157 123.329V124.233C408.157 124.248 408.154 124.263 408.149 124.276C408.143 124.29 408.135 124.302 408.124 124.313C408.114 124.323 408.101 124.332 408.087 124.338C408.074 124.343 408.059 124.346 408.044 124.346H407.14C407.125 124.346 407.11 124.343 407.097 124.338C407.083 124.332 407.071 124.323 407.061 124.313C407.05 124.302 407.041 124.29 407.035 124.276C407.03 124.263 407.027 124.248 407.027 124.233V123.329C407.027 123.299 407.039 123.27 407.061 123.249C407.071 123.239 407.083 123.23 407.097 123.224C407.11 123.219 407.125 123.216 407.14 123.216H408.044C408.075 123.216 408.103 123.228 408.124 123.249C408.135 123.259 408.143 123.272 408.149 123.286C408.154 123.299 408.157 123.314 408.157 123.329ZM413.809 114.285C413.809 113.956 413.679 113.639 413.445 113.406C413.212 113.173 412.896 113.042 412.566 113.042H411.662C411.332 113.042 411.016 113.173 410.782 113.406C410.549 113.639 410.418 113.956 410.418 114.285V115.19C410.418 115.519 410.549 115.836 410.782 116.069C411.016 116.302 411.332 116.433 411.662 116.433H412.566C412.896 116.433 413.212 116.302 413.445 116.069C413.679 115.836 413.809 115.519 413.809 115.19V114.285ZM412.679 114.285V115.19C412.679 115.205 412.676 115.219 412.671 115.233C412.665 115.247 412.657 115.259 412.645 115.269C412.635 115.28 412.623 115.288 412.609 115.294C412.596 115.3 412.581 115.303 412.566 115.303H411.662C411.647 115.303 411.632 115.3 411.619 115.294C411.605 115.288 411.592 115.28 411.582 115.269C411.571 115.259 411.563 115.247 411.557 115.233C411.552 115.219 411.549 115.205 411.549 115.19V114.285C411.549 114.255 411.561 114.227 411.582 114.206C411.592 114.195 411.605 114.187 411.619 114.181C411.632 114.175 411.647 114.172 411.662 114.172H412.566C412.596 114.172 412.625 114.184 412.645 114.206C412.657 114.216 412.665 114.228 412.671 114.242C412.676 114.256 412.679 114.27 412.679 114.285ZM418.331 114.285C418.331 113.956 418.201 113.639 417.967 113.406C417.734 113.173 417.418 113.042 417.088 113.042H416.184C415.854 113.042 415.537 113.173 415.304 113.406C415.071 113.639 414.94 113.956 414.94 114.285V115.19C414.94 115.519 415.071 115.836 415.304 116.069C415.537 116.302 415.854 116.433 416.184 116.433H417.088C417.418 116.433 417.734 116.302 417.967 116.069C418.201 115.836 418.331 115.519 418.331 115.19V114.285ZM417.201 114.285V115.19C417.201 115.205 417.198 115.219 417.192 115.233C417.187 115.247 417.178 115.259 417.167 115.269C417.157 115.28 417.145 115.288 417.131 115.294C417.117 115.3 417.103 115.303 417.088 115.303H416.184C416.169 115.303 416.154 115.3 416.141 115.294C416.126 115.288 416.114 115.28 416.103 115.269C416.093 115.259 416.085 115.247 416.079 115.233C416.073 115.219 416.071 115.205 416.071 115.19V114.285C416.071 114.255 416.083 114.227 416.103 114.206C416.114 114.195 416.126 114.187 416.141 114.181C416.154 114.175 416.169 114.172 416.184 114.172H417.088C417.117 114.172 417.146 114.184 417.167 114.206C417.178 114.216 417.187 114.228 417.192 114.242C417.198 114.256 417.201 114.27 417.201 114.285Z" fill="#24BAF2"/>
<path fill-rule="evenodd" clip-rule="evenodd" d="M412.988 127.739H400.826C400.076 127.739 399.358 127.441 398.828 126.912C398.298 126.381 398 125.663 398 124.913V109.087C398 108.337 398.298 107.619 398.828 107.089C399.358 106.559 400.076 106.261 400.826 106.261H402.522V105.696C402.522 105.246 402.7 104.815 403.019 104.497C403.337 104.179 403.768 104 404.218 104C404.667 104 405.099 104.179 405.417 104.497C405.735 104.815 405.913 105.246 405.913 105.696V106.261H413.826V105.696C413.826 105.246 414.005 104.815 414.323 104.497C414.641 104.179 415.072 104 415.522 104C415.971 104 416.403 104.179 416.721 104.497C417.039 104.815 417.218 105.246 417.218 105.696V106.261H418.913C419.662 106.261 420.382 106.559 420.911 107.089C421.442 107.619 421.739 108.337 421.739 109.087V118.988C423.12 120.129 424 121.854 424 123.783C424 127.214 421.214 130 417.782 130C416.866 130.001 415.961 129.798 415.132 129.407C414.303 129.016 413.57 128.447 412.988 127.739ZM417.782 118.696C420.59 118.696 422.869 120.975 422.869 123.783C422.869 126.59 420.59 128.87 417.782 128.87C414.975 128.87 412.696 126.59 412.696 123.783C412.696 120.975 414.975 118.696 417.782 118.696ZM420.609 118.244V111.913H399.131V124.913C399.131 125.363 399.309 125.794 399.628 126.112C399.784 126.269 399.972 126.394 400.177 126.48C400.383 126.565 400.604 126.609 400.826 126.609H412.244C411.81 125.761 411.565 124.8 411.565 123.783C411.565 120.351 414.351 117.565 417.782 117.565C418.8 117.565 419.761 117.81 420.609 118.244ZM417.218 107.391V107.957C417.218 108.406 417.039 108.838 416.721 109.156C416.403 109.474 415.971 109.652 415.522 109.652C415.072 109.652 414.641 109.474 414.323 109.156C414.005 108.838 413.826 108.406 413.826 107.957V107.391H405.913V107.957C405.913 108.406 405.735 108.838 405.417 109.156C405.099 109.474 404.667 109.652 404.218 109.652C403.768 109.652 403.337 109.474 403.019 109.156C402.7 108.838 402.522 108.406 402.522 107.957V107.391H400.826C400.376 107.391 399.945 107.57 399.627 107.888C399.309 108.206 399.131 108.637 399.131 109.087V110.783H420.609V109.087C420.609 108.637 420.43 108.206 420.112 107.888C419.794 107.57 419.363 107.391 418.913 107.391H417.218ZM416.087 105.696V107.957C416.087 108.106 416.028 108.25 415.921 108.356C415.815 108.462 415.672 108.522 415.522 108.522C415.372 108.522 415.228 108.462 415.122 108.356C415.016 108.25 414.956 108.106 414.956 107.957V105.696C414.956 105.546 415.016 105.402 415.122 105.296C415.228 105.19 415.372 105.13 415.522 105.13C415.672 105.13 415.815 105.19 415.921 105.296C416.028 105.402 416.087 105.546 416.087 105.696ZM404.782 105.696V107.957C404.782 108.106 404.723 108.25 404.617 108.356C404.511 108.462 404.367 108.522 404.218 108.522C404.068 108.522 403.924 108.462 403.818 108.356C403.712 108.25 403.652 108.106 403.652 107.957V105.696C403.652 105.546 403.712 105.402 403.818 105.296C403.924 105.19 404.068 105.13 404.218 105.13C404.367 105.13 404.511 105.19 404.617 105.296C404.723 105.402 404.782 105.546 404.782 105.696Z" fill="#20336B"/>
<path d="M366.3 155.948H368.33L372.138 166H370.332L369.464 163.704H365.124L364.27 166H362.492L366.3 155.948ZM367.28 157.936L365.712 162.136H368.876L367.28 157.936ZM376.817 166.154C375.865 166.154 375.165 165.776 374.703 165.23V168.52H373.023V158.65H374.703V159.434C375.165 158.888 375.865 158.51 376.817 158.51C378.875 158.51 380.051 160.246 380.051 162.332C380.051 164.418 378.875 166.154 376.817 166.154ZM374.661 162.122V162.556C374.661 163.914 375.445 164.684 376.481 164.684C377.699 164.684 378.357 163.732 378.357 162.332C378.357 160.932 377.699 159.98 376.481 159.98C375.445 159.98 374.661 160.736 374.661 162.122ZM385.143 166.154C384.191 166.154 383.491 165.776 383.029 165.23V168.52H381.349V158.65H383.029V159.434C383.491 158.888 384.191 158.51 385.143 158.51C387.201 158.51 388.377 160.246 388.377 162.332C388.377 164.418 387.201 166.154 385.143 166.154ZM382.987 162.122V162.556C382.987 163.914 383.771 164.684 384.807 164.684C386.025 164.684 386.683 163.732 386.683 162.332C386.683 160.932 386.025 159.98 384.807 159.98C383.771 159.98 382.987 160.736 382.987 162.122ZM396.297 162.332C396.297 164.614 394.827 166.154 392.755 166.154C390.683 166.154 389.213 164.614 389.213 162.332C389.213 160.05 390.683 158.51 392.755 158.51C394.827 158.51 396.297 160.05 396.297 162.332ZM390.907 162.332C390.907 163.83 391.621 164.74 392.755 164.74C393.889 164.74 394.603 163.83 394.603 162.332C394.603 160.834 393.889 159.924 392.755 159.924C391.621 159.924 390.907 160.834 390.907 162.332ZM397.577 157.67V155.948H399.313V157.67H397.577ZM399.285 158.65V166H397.605V158.65H399.285ZM401.05 166V158.65H402.73V159.434C403.15 158.944 403.808 158.51 404.76 158.51C406.3 158.51 407.224 159.574 407.224 161.156V166H405.544V161.646C405.544 160.736 405.18 160.078 404.256 160.078C403.5 160.078 402.73 160.638 402.73 161.688V166H401.05ZM409.093 164.152V160.078H408.071V158.65H409.093V156.494H410.745V158.65H412.285V160.078H410.745V163.886C410.745 164.544 411.123 164.614 411.725 164.614C412.005 164.614 412.159 164.6 412.411 164.572V165.986C412.103 166.042 411.683 166.084 411.249 166.084C409.849 166.084 409.093 165.65 409.093 164.152ZM415.349 161.688V166H413.669V158.65H415.349V159.434C415.755 158.944 416.385 158.51 417.365 158.51C418.247 158.51 418.905 158.902 419.311 159.532C419.759 159.056 420.459 158.51 421.593 158.51C423.105 158.51 424.085 159.574 424.085 161.156V166H422.405V161.646C422.405 160.736 422.069 160.078 421.173 160.078C420.459 160.078 419.717 160.638 419.717 161.688V166H418.037V161.646C418.037 160.736 417.701 160.078 416.805 160.078C416.091 160.078 415.349 160.638 415.349 161.688ZM428.904 166.154C426.804 166.154 425.334 164.6 425.334 162.332C425.334 160.176 426.79 158.51 428.834 158.51C430.962 158.51 432.096 160.12 432.096 162.136V162.696H426.944C427.07 163.956 427.826 164.726 428.904 164.726C429.73 164.726 430.388 164.306 430.612 163.55L432.054 164.096C431.536 165.384 430.374 166.154 428.904 166.154ZM428.82 159.924C427.952 159.924 427.28 160.442 427.028 161.436H430.402C430.388 160.624 429.884 159.924 428.82 159.924ZM433.357 166V158.65H435.037V159.434C435.457 158.944 436.115 158.51 437.067 158.51C438.607 158.51 439.531 159.574 439.531 161.156V166H437.851V161.646C437.851 160.736 437.487 160.078 436.563 160.078C435.807 160.078 435.037 160.638 435.037 161.688V166H433.357ZM441.399 164.152V160.078H440.377V158.65H441.399V156.494H443.051V158.65H444.591V160.078H443.051V163.886C443.051 164.544 443.429 164.614 444.031 164.614C444.311 164.614 444.465 164.6 444.717 164.572V165.986C444.409 166.042 443.989 166.084 443.555 166.084C442.155 166.084 441.399 165.65 441.399 164.152ZM445.206 164.6L446.466 163.592C446.9 164.306 447.74 164.782 448.594 164.782C449.308 164.782 449.966 164.53 449.966 163.872C449.966 163.242 449.35 163.172 448.188 162.934C447.026 162.696 445.696 162.402 445.696 160.834C445.696 159.49 446.872 158.51 448.566 158.51C449.854 158.51 451.002 159.084 451.534 159.896L450.4 160.918C449.98 160.26 449.28 159.882 448.468 159.882C447.782 159.882 447.334 160.19 447.334 160.68C447.334 161.212 447.866 161.31 448.79 161.506C450.036 161.772 451.604 162.038 451.604 163.718C451.604 165.202 450.246 166.154 448.58 166.154C447.222 166.154 445.864 165.608 445.206 164.6Z" fill="#20336B"/>
<path d="M60 143.5C75.1878 143.5 87.5 131.188 87.5 116C87.5 100.812 75.1878 88.5 60 88.5C44.8122 88.5 32.5 100.812 32.5 116C32.5 131.188 44.8122 143.5 60 143.5Z" stroke="#20336B"/>
<path d="M60.0004 106.25C57.9409 106.25 56.2504 107.941 56.2504 110V110.75H52.5469L52.5004 111.453L51.7504 124.953L51.7031 125.75H68.2969L68.2504 124.953L67.5004 111.453L67.4531 110.75H63.7504V110C63.7504 107.941 62.0599 106.25 60.0004 106.25ZM60.0004 107.75C60.5971 107.75 61.1694 107.987 61.5914 108.409C62.0133 108.831 62.2504 109.403 62.2504 110V110.75H57.7504V110C57.7504 109.403 57.9874 108.831 58.4094 108.409C58.8313 107.987 59.4036 107.75 60.0004 107.75ZM53.9531 112.25H56.2504V114.5H57.7504V112.25H62.2504V114.5H63.7504V112.25H66.0476L66.7039 124.25H53.2976L53.9531 112.25Z" fill="#20336B"/>
<path d="M294.834 110.874C294.768 110.796 294.685 110.733 294.593 110.69C294.5 110.647 294.399 110.625 294.297 110.625H276.679L275.288 105.518C275.247 105.37 275.159 105.238 275.036 105.144C274.914 105.051 274.764 105 274.609 105H271.703C271.314 105 271 105.314 271 105.703C271 106.092 271.314 106.406 271.703 106.406H274.072L277.966 120.669C277.228 121.001 276.719 121.724 276.719 122.578C276.719 123.55 277.383 124.363 278.28 124.606C278.182 124.849 278.125 125.113 278.125 125.391C278.125 126.554 279.071 127.5 280.234 127.5C281.398 127.5 282.344 126.554 282.344 125.391C282.344 125.143 282.293 124.908 282.214 124.687H288.098C288.019 124.908 287.969 125.143 287.969 125.391C287.969 126.554 288.915 127.5 290.078 127.5C291.241 127.5 292.187 126.554 292.187 125.391C292.187 124.227 291.241 123.281 290.078 123.281H278.828C278.441 123.281 278.125 122.966 278.125 122.578C278.125 121.923 278.969 121.785 278.828 121.861C278.969 121.861 279.444 121.802 292.959 120.465C293.113 120.45 293.258 120.385 293.371 120.279C293.484 120.174 293.559 120.034 293.584 119.881L294.99 111.443C295.007 111.343 295.002 111.24 294.975 111.141C294.948 111.043 294.9 110.951 294.834 110.874ZM280.937 125.391C280.937 125.779 280.622 126.094 280.234 126.094C279.847 126.094 279.531 125.779 279.531 125.391C279.531 125.003 279.847 124.687 280.234 124.687C280.622 124.687 280.937 125.003 280.937 125.391ZM290.078 126.094C289.691 126.094 289.375 125.779 289.375 125.391C289.375 125.003 289.691 124.687 290.078 124.687C290.465 124.687 290.781 125.003 290.781 125.391C290.781 125.779 290.465 126.094 290.078 126.094ZM282.344 116.953C282.344 117.342 282.029 117.656 281.641 117.656C281.252 117.656 280.937 117.342 280.937 116.953V114.141C280.937 113.752 281.252 113.437 281.641 113.437C282.029 113.437 282.344 113.752 282.344 114.141V116.953ZM286.562 116.953C286.562 117.342 286.248 117.656 285.859 117.656C285.471 117.656 285.156 117.342 285.156 116.953V114.141C285.156 113.752 285.471 113.437 285.859 113.437C286.248 113.437 286.562 113.752 286.562 114.141V116.953ZM290.781 116.953C290.781 117.342 290.467 117.656 290.078 117.656C289.689 117.656 289.375 117.342 289.375 116.953V114.141C289.375 113.752 289.689 113.437 290.078 113.437C290.467 113.437 290.781 113.752 290.781 114.141V116.953Z" fill="#20336B"/>
<path d="M292.187 107.109C292.187 106.721 291.873 106.406 291.484 106.406H290.369L290.575 106.2C290.85 105.926 290.85 105.481 290.575 105.206C290.301 104.931 289.856 104.931 289.581 105.206L288.672 106.115L287.763 105.206C287.488 104.931 287.043 104.931 286.768 105.206C286.494 105.481 286.494 105.926 286.768 106.2L286.974 106.406H285.859C285.471 106.406 285.156 106.721 285.156 107.109V109.219H292.187V107.109ZM283.75 107.813H278.828C278.439 107.813 278.125 108.127 278.125 108.516V109.219H283.75V107.813Z" fill="#24BAF2"/>
</svg>
