<svg width="423" height="443" viewBox="0 0 423 443" fill="none" xmlns="http://www.w3.org/2000/svg">
<path d="M115 421.542H47C42 421.698 32 419.028 32 407.106C32 395.184 32 308.068 32 266M115 421.542C110.978 420.613 103.134 417.543 103.938 412.7M115 421.542C111.145 422.165 103.435 424.529 103.435 429" stroke="#4ABCEB"/>
<path d="M142.5 84H36.5C33.5 84.3333 27.5 86.2 27.5 91C27.5 95.8 27.5 105 27.5 109M27.5 109C27.5 107.173 23.7 101 20.5 101M27.5 109C27.5 106.5 31.6 101 34 101" stroke="#4ABCEB"/>
<path d="M158 333V373" stroke="#20336B"/>
<path d="M286.5 301V373" stroke="#20336B"/>
<path d="M331 437.5H406.562C412 437.5 421.162 433.4 421.562 425C421.962 416.6 421.728 315.333 421.562 266" stroke="#20336B"/>
<path d="M8.45542 266L8.46897 423.793C8.46897 429.862 11.6416 442 26.3775 442C41.1134 442 91.4377 442 115 442M8.45542 266C8.45565 268.655 3.18615 272.536 0 272.536M8.45542 266C8.45563 268.334 12.8442 272.536 16.4286 272.536" stroke="#E2001A"/>
<line x1="223.5" y1="2.18561e-08" x2="223.5" y2="43" stroke="#B2B2B2" stroke-dasharray="2 2"/>
<line x1="165.5" y1="139" x2="165.5" y2="237" stroke="#B2B2B2" stroke-dasharray="2 2"/>
<line x1="223.5" y1="253" x2="223.5" y2="291" stroke="#B2B2B2" stroke-dasharray="2 2"/>
<line x1="207" y1="291.5" x2="224" y2="291.5" stroke="#B2B2B2" stroke-dasharray="2 2"/>
<line x1="226" y1="252.5" x2="243" y2="252.5" stroke="#B2B2B2" stroke-dasharray="2 2"/>
<line x1="281.5" y1="139" x2="281.5" y2="205" stroke="#B2B2B2" stroke-dasharray="2 2"/>
</svg>
