<svg width="437" height="186" viewBox="0 0 437 186" fill="none" xmlns="http://www.w3.org/2000/svg">
<path d="M6.70604 15H5.25004L2.61804 7.23V15H0.952044V4.948H3.41604L6.00604 12.648L8.59604 4.948H11.0041V15H9.33804V7.23L6.70604 15ZM19.4533 11.332C19.4533 13.614 17.9833 15.154 15.9113 15.154C13.8393 15.154 12.3693 13.614 12.3693 11.332C12.3693 9.05 13.8393 7.51 15.9113 7.51C17.9833 7.51 19.4533 9.05 19.4533 11.332ZM14.0633 11.332C14.0633 12.83 14.7773 13.74 15.9113 13.74C17.0453 13.74 17.7593 12.83 17.7593 11.332C17.7593 9.834 17.0453 8.924 15.9113 8.924C14.7773 8.924 14.0633 9.834 14.0633 11.332ZM20.761 15V7.65H22.441V8.434C22.861 7.944 23.519 7.51 24.471 7.51C26.011 7.51 26.935 8.574 26.935 10.156V15H25.255V10.646C25.255 9.736 24.891 9.078 23.967 9.078C23.211 9.078 22.441 9.638 22.441 10.688V15H20.761ZM28.8037 13.152V9.078H27.7817V7.65H28.8037V5.494H30.4557V7.65H31.9957V9.078H30.4557V12.886C30.4557 13.544 30.8337 13.614 31.4357 13.614C31.7157 13.614 31.8697 13.6 32.1217 13.572V14.986C31.8137 15.042 31.3937 15.084 30.9597 15.084C29.5597 15.084 28.8037 14.65 28.8037 13.152ZM37.5521 7.636V9.316C37.3421 9.288 37.1741 9.274 36.9361 9.274C35.8721 9.274 35.0601 9.96 35.0601 11.136V15H33.3801V7.65H35.0601V8.742C35.3821 8.056 36.1381 7.608 37.0761 7.608C37.2721 7.608 37.4261 7.622 37.5521 7.636ZM40.4531 15.126C39.0531 15.126 37.9751 14.272 37.9751 12.956C37.9751 11.556 39.0251 10.94 40.4391 10.646L42.4691 10.226V10.1C42.4691 9.4 42.1051 8.966 41.2091 8.966C40.4111 8.966 39.9911 9.33 39.7951 10.044L38.2131 9.68C38.5771 8.462 39.6551 7.51 41.2791 7.51C43.0431 7.51 44.1071 8.35 44.1071 10.044V13.208C44.1071 13.628 44.2891 13.754 44.7511 13.698V15C43.5331 15.14 42.8891 14.902 42.6371 14.3C42.1751 14.818 41.4051 15.126 40.4531 15.126ZM42.4691 12.41V11.514L40.8871 11.85C40.1731 12.004 39.6411 12.228 39.6411 12.886C39.6411 13.46 40.0611 13.782 40.7051 13.782C41.6011 13.782 42.4691 13.306 42.4691 12.41ZM48.0594 13.6L49.3194 12.592C49.7534 13.306 50.5934 13.782 51.4474 13.782C52.1614 13.782 52.8194 13.53 52.8194 12.872C52.8194 12.242 52.2034 12.172 51.0414 11.934C49.8794 11.696 48.5494 11.402 48.5494 9.834C48.5494 8.49 49.7254 7.51 51.4194 7.51C52.7074 7.51 53.8554 8.084 54.3874 8.896L53.2534 9.918C52.8334 9.26 52.1334 8.882 51.3214 8.882C50.6354 8.882 50.1874 9.19 50.1874 9.68C50.1874 10.212 50.7194 10.31 51.6434 10.506C52.8894 10.772 54.4574 11.038 54.4574 12.718C54.4574 14.202 53.0994 15.154 51.4334 15.154C50.0754 15.154 48.7174 14.608 48.0594 13.6ZM61.8653 7.65V15H60.1853V14.216C59.7653 14.706 59.1353 15.154 58.1833 15.154C56.6433 15.154 55.6913 14.104 55.6913 12.522V7.65H57.3713V12.158C57.3713 13.054 57.7633 13.628 58.6733 13.628C59.4293 13.628 60.1853 13.068 60.1853 12.018V7.65H61.8653ZM67.43 15.154C66.478 15.154 65.778 14.776 65.316 14.23V17.52H63.636V7.65H65.316V8.434C65.778 7.888 66.478 7.51 67.43 7.51C69.488 7.51 70.664 9.246 70.664 11.332C70.664 13.418 69.488 15.154 67.43 15.154ZM65.274 11.122V11.556C65.274 12.914 66.058 13.684 67.094 13.684C68.312 13.684 68.97 12.732 68.97 11.332C68.97 9.932 68.312 8.98 67.094 8.98C66.058 8.98 65.274 9.736 65.274 11.122ZM75.7562 15.154C74.8042 15.154 74.1042 14.776 73.6422 14.23V17.52H71.9622V7.65H73.6422V8.434C74.1042 7.888 74.8042 7.51 75.7562 7.51C77.8142 7.51 78.9902 9.246 78.9902 11.332C78.9902 13.418 77.8142 15.154 75.7562 15.154ZM73.6002 11.122V11.556C73.6002 12.914 74.3842 13.684 75.4202 13.684C76.6382 13.684 77.2962 12.732 77.2962 11.332C77.2962 9.932 76.6382 8.98 75.4202 8.98C74.3842 8.98 73.6002 9.736 73.6002 11.122ZM81.9684 4.948V15H80.2884V4.948H81.9684ZM86.9257 15.686C86.5057 16.806 85.8617 17.576 84.3357 17.576C83.9857 17.576 83.8877 17.562 83.6497 17.534V16.12C83.8737 16.148 83.9997 16.162 84.2097 16.162C84.7697 16.162 85.0357 16.008 85.2737 15.42L85.5537 14.734L82.8797 7.65H84.6437L86.4497 12.802L88.2137 7.65H89.9497L86.9257 15.686ZM2.10004 29.332C2.10004 30.83 2.88404 31.698 4.03204 31.698C4.92804 31.698 5.47404 31.11 5.68404 30.298L7.12604 31.026C6.74804 32.216 5.62804 33.154 4.03204 33.154C1.93204 33.154 0.420044 31.6 0.420044 29.332C0.420044 27.064 1.93204 25.51 4.03204 25.51C5.61404 25.51 6.70604 26.406 7.09804 27.582L5.68404 28.352C5.47404 27.554 4.92804 26.952 4.03204 26.952C2.88404 26.952 2.10004 27.834 2.10004 29.332ZM8.14181 33V22.948H9.82181V26.434C10.2419 25.944 10.8999 25.51 11.8519 25.51C13.3919 25.51 14.3159 26.574 14.3159 28.156V33H12.6359V28.646C12.6359 27.736 12.2719 27.078 11.3479 27.078C10.5919 27.078 9.82181 27.638 9.82181 28.688V33H8.14181ZM17.9765 33.126C16.5765 33.126 15.4985 32.272 15.4985 30.956C15.4985 29.556 16.5485 28.94 17.9625 28.646L19.9925 28.226V28.1C19.9925 27.4 19.6285 26.966 18.7325 26.966C17.9345 26.966 17.5145 27.33 17.3185 28.044L15.7365 27.68C16.1005 26.462 17.1785 25.51 18.8025 25.51C20.5665 25.51 21.6305 26.35 21.6305 28.044V31.208C21.6305 31.628 21.8125 31.754 22.2745 31.698V33C21.0565 33.14 20.4125 32.902 20.1605 32.3C19.6985 32.818 18.9285 33.126 17.9765 33.126ZM19.9925 30.41V29.514L18.4105 29.85C17.6965 30.004 17.1645 30.228 17.1645 30.886C17.1645 31.46 17.5845 31.782 18.2285 31.782C19.1245 31.782 19.9925 31.306 19.9925 30.41ZM23.44 24.67V22.948H25.176V24.67H23.44ZM25.148 25.65V33H23.468V25.65H25.148ZM26.9134 33V25.65H28.5934V26.434C29.0134 25.944 29.6714 25.51 30.6234 25.51C32.1634 25.51 33.0874 26.574 33.0874 28.156V33H31.4074V28.646C31.4074 27.736 31.0434 27.078 30.1194 27.078C29.3634 27.078 28.5934 27.638 28.5934 28.688V33H26.9134ZM36.9168 31.6L38.1768 30.592C38.6108 31.306 39.4508 31.782 40.3048 31.782C41.0188 31.782 41.6768 31.53 41.6768 30.872C41.6768 30.242 41.0608 30.172 39.8988 29.934C38.7368 29.696 37.4068 29.402 37.4068 27.834C37.4068 26.49 38.5828 25.51 40.2768 25.51C41.5648 25.51 42.7128 26.084 43.2448 26.896L42.1108 27.918C41.6908 27.26 40.9908 26.882 40.1788 26.882C39.4928 26.882 39.0448 27.19 39.0448 27.68C39.0448 28.212 39.5768 28.31 40.5008 28.506C41.7468 28.772 43.3148 29.038 43.3148 30.718C43.3148 32.202 41.9568 33.154 40.2908 33.154C38.9328 33.154 37.5748 32.608 36.9168 31.6ZM51.2268 29.332C51.2268 31.614 49.7568 33.154 47.6848 33.154C45.6128 33.154 44.1428 31.614 44.1428 29.332C44.1428 27.05 45.6128 25.51 47.6848 25.51C49.7568 25.51 51.2268 27.05 51.2268 29.332ZM45.8368 29.332C45.8368 30.83 46.5508 31.74 47.6848 31.74C48.8188 31.74 49.5328 30.83 49.5328 29.332C49.5328 27.834 48.8188 26.924 47.6848 26.924C46.5508 26.924 45.8368 27.834 45.8368 29.332ZM54.2144 22.948V33H52.5344V22.948H54.2144ZM62.0978 25.65V33H60.4178V32.216C59.9978 32.706 59.3678 33.154 58.4158 33.154C56.8758 33.154 55.9238 32.104 55.9238 30.522V25.65H57.6038V30.158C57.6038 31.054 57.9958 31.628 58.9058 31.628C59.6618 31.628 60.4178 31.068 60.4178 30.018V25.65H62.0978ZM64.0224 31.152V27.078H63.0004V25.65H64.0224V23.494H65.6744V25.65H67.2144V27.078H65.6744V30.886C65.6744 31.544 66.0524 31.614 66.6544 31.614C66.9344 31.614 67.0884 31.6 67.3404 31.572V32.986C67.0324 33.042 66.6124 33.084 66.1784 33.084C64.7784 33.084 64.0224 32.65 64.0224 31.152ZM68.5709 24.67V22.948H70.3069V24.67H68.5709ZM70.2789 25.65V33H68.5989V25.65H70.2789ZM78.6662 29.332C78.6662 31.614 77.1962 33.154 75.1242 33.154C73.0522 33.154 71.5822 31.614 71.5822 29.332C71.5822 27.05 73.0522 25.51 75.1242 25.51C77.1962 25.51 78.6662 27.05 78.6662 29.332ZM73.2762 29.332C73.2762 30.83 73.9902 31.74 75.1242 31.74C76.2582 31.74 76.9722 30.83 76.9722 29.332C76.9722 27.834 76.2582 26.924 75.1242 26.924C73.9902 26.924 73.2762 27.834 73.2762 29.332ZM79.9739 33V25.65H81.6539V26.434C82.0739 25.944 82.7319 25.51 83.6839 25.51C85.2239 25.51 86.1479 26.574 86.1479 28.156V33H84.4679V28.646C84.4679 27.736 84.1039 27.078 83.1799 27.078C82.4239 27.078 81.6539 27.638 81.6539 28.688V33H79.9739Z" fill="#002060"/>
<path d="M37 80L39.8868 75H34.1132L37 80ZM36.5 44V75.5H37.5V44H36.5Z" fill="#20336B"/>
<path d="M119 115L114 112.113V117.887L119 115ZM79 115.5H114.5V114.5H79V115.5Z" fill="#20336B"/>
<path d="M239 115L234 112.113V117.887L239 115ZM199 115.5H234.5V114.5H199V115.5Z" fill="#20336B"/>
<path d="M359 115L354 112.113V117.887L359 115ZM319 115.5H354.5V114.5H319V115.5Z" fill="#20336B"/>
<path d="M399.5 141.5C414.688 141.5 427 129.188 427 114C427 98.8122 414.688 86.5 399.5 86.5C384.312 86.5 372 98.8122 372 114C372 129.188 384.312 141.5 399.5 141.5Z" stroke="#20336B"/>
<path d="M363.504 164V153.948H366.864C369.986 153.948 371.918 155.908 371.918 158.974C371.918 162.04 369.986 164 366.864 164H363.504ZM365.254 162.46H366.864C368.936 162.46 370.154 161.088 370.154 158.974C370.154 156.846 368.936 155.488 366.85 155.488H365.254V162.46ZM373.222 155.67V153.948H374.958V155.67H373.222ZM374.93 156.65V164H373.25V156.65H374.93ZM375.925 162.6L377.185 161.592C377.619 162.306 378.459 162.782 379.313 162.782C380.027 162.782 380.685 162.53 380.685 161.872C380.685 161.242 380.069 161.172 378.907 160.934C377.745 160.696 376.415 160.402 376.415 158.834C376.415 157.49 377.591 156.51 379.285 156.51C380.573 156.51 381.721 157.084 382.253 157.896L381.119 158.918C380.699 158.26 379.999 157.882 379.187 157.882C378.501 157.882 378.053 158.19 378.053 158.68C378.053 159.212 378.585 159.31 379.509 159.506C380.755 159.772 382.323 160.038 382.323 161.718C382.323 163.202 380.965 164.154 379.299 164.154C377.941 164.154 376.583 163.608 375.925 162.6ZM383.767 162.152V158.078H382.745V156.65H383.767V154.494H385.419V156.65H386.959V158.078H385.419V161.886C385.419 162.544 385.797 162.614 386.399 162.614C386.679 162.614 386.833 162.6 387.085 162.572V163.986C386.777 164.042 386.357 164.084 385.923 164.084C384.523 164.084 383.767 163.65 383.767 162.152ZM392.516 156.636V158.316C392.306 158.288 392.138 158.274 391.9 158.274C390.836 158.274 390.024 158.96 390.024 160.136V164H388.344V156.65H390.024V157.742C390.346 157.056 391.102 156.608 392.04 156.608C392.236 156.608 392.39 156.622 392.516 156.636ZM393.648 155.67V153.948H395.384V155.67H393.648ZM395.356 156.65V164H393.676V156.65H395.356ZM400.915 164.154C399.963 164.154 399.263 163.776 398.801 163.23V164H397.121V153.948H398.801V157.434C399.263 156.888 399.963 156.51 400.915 156.51C402.973 156.51 404.149 158.246 404.149 160.332C404.149 162.418 402.973 164.154 400.915 164.154ZM398.759 160.122V160.556C398.759 161.914 399.543 162.684 400.579 162.684C401.797 162.684 402.455 161.732 402.455 160.332C402.455 158.932 401.797 157.98 400.579 157.98C399.543 157.98 398.759 158.736 398.759 160.122ZM411.565 156.65V164H409.885V163.216C409.465 163.706 408.835 164.154 407.883 164.154C406.343 164.154 405.391 163.104 405.391 161.522V156.65H407.071V161.158C407.071 162.054 407.463 162.628 408.373 162.628C409.129 162.628 409.885 162.068 409.885 161.018V156.65H411.565ZM413.49 162.152V158.078H412.468V156.65H413.49V154.494H415.142V156.65H416.682V158.078H415.142V161.886C415.142 162.544 415.52 162.614 416.122 162.614C416.402 162.614 416.556 162.6 416.808 162.572V163.986C416.5 164.042 416.08 164.084 415.646 164.084C414.246 164.084 413.49 163.65 413.49 162.152ZM418.039 155.67V153.948H419.775V155.67H418.039ZM419.747 156.65V164H418.067V156.65H419.747ZM428.134 160.332C428.134 162.614 426.664 164.154 424.592 164.154C422.52 164.154 421.05 162.614 421.05 160.332C421.05 158.05 422.52 156.51 424.592 156.51C426.664 156.51 428.134 158.05 428.134 160.332ZM422.744 160.332C422.744 161.83 423.458 162.74 424.592 162.74C425.726 162.74 426.44 161.83 426.44 160.332C426.44 158.834 425.726 157.924 424.592 157.924C423.458 157.924 422.744 158.834 422.744 160.332ZM429.442 164V156.65H431.122V157.434C431.542 156.944 432.2 156.51 433.152 156.51C434.692 156.51 435.616 157.574 435.616 159.156V164H433.936V159.646C433.936 158.736 433.572 158.078 432.648 158.078C431.892 158.078 431.122 158.638 431.122 159.688V164H429.442ZM374.314 180.126C372.914 180.126 371.836 179.272 371.836 177.956C371.836 176.556 372.886 175.94 374.3 175.646L376.33 175.226V175.1C376.33 174.4 375.966 173.966 375.07 173.966C374.272 173.966 373.852 174.33 373.656 175.044L372.074 174.68C372.438 173.462 373.516 172.51 375.14 172.51C376.904 172.51 377.968 173.35 377.968 175.044V178.208C377.968 178.628 378.15 178.754 378.612 178.698V180C377.394 180.14 376.75 179.902 376.498 179.3C376.036 179.818 375.266 180.126 374.314 180.126ZM376.33 177.41V176.514L374.748 176.85C374.034 177.004 373.502 177.228 373.502 177.886C373.502 178.46 373.922 178.782 374.566 178.782C375.462 178.782 376.33 178.306 376.33 177.41ZM379.806 180V172.65H381.486V173.434C381.906 172.944 382.564 172.51 383.516 172.51C385.056 172.51 385.98 173.574 385.98 175.156V180H384.3V175.646C384.3 174.736 383.936 174.078 383.012 174.078C382.256 174.078 381.486 174.638 381.486 175.688V180H379.806ZM389.641 180.126C388.241 180.126 387.163 179.272 387.163 177.956C387.163 176.556 388.213 175.94 389.627 175.646L391.657 175.226V175.1C391.657 174.4 391.293 173.966 390.397 173.966C389.599 173.966 389.179 174.33 388.983 175.044L387.401 174.68C387.765 173.462 388.843 172.51 390.467 172.51C392.231 172.51 393.295 173.35 393.295 175.044V178.208C393.295 178.628 393.477 178.754 393.939 178.698V180C392.721 180.14 392.077 179.902 391.825 179.3C391.363 179.818 390.593 180.126 389.641 180.126ZM391.657 177.41V176.514L390.075 176.85C389.361 177.004 388.829 177.228 388.829 177.886C388.829 178.46 389.249 178.782 389.893 178.782C390.789 178.782 391.657 178.306 391.657 177.41ZM396.812 169.948V180H395.132V169.948H396.812ZM401.769 180.686C401.349 181.806 400.705 182.576 399.179 182.576C398.829 182.576 398.731 182.562 398.493 182.534V181.12C398.717 181.148 398.843 181.162 399.053 181.162C399.613 181.162 399.879 181.008 400.117 180.42L400.397 179.734L397.723 172.65H399.487L401.293 177.802L403.057 172.65H404.793L401.769 180.686ZM406.059 178.152V174.078H405.037V172.65H406.059V170.494H407.711V172.65H409.251V174.078H407.711V177.886C407.711 178.544 408.089 178.614 408.691 178.614C408.971 178.614 409.125 178.6 409.377 178.572V179.986C409.069 180.042 408.649 180.084 408.215 180.084C406.815 180.084 406.059 179.65 406.059 178.152ZM410.608 171.67V169.948H412.344V171.67H410.608ZM412.316 172.65V180H410.636V172.65H412.316ZM415.299 176.332C415.299 177.83 416.083 178.698 417.231 178.698C418.127 178.698 418.673 178.11 418.883 177.298L420.325 178.026C419.947 179.216 418.827 180.154 417.231 180.154C415.131 180.154 413.619 178.6 413.619 176.332C413.619 174.064 415.131 172.51 417.231 172.51C418.813 172.51 419.905 173.406 420.297 174.582L418.883 175.352C418.673 174.554 418.127 173.952 417.231 173.952C416.083 173.952 415.299 174.834 415.299 176.332ZM420.708 178.6L421.968 177.592C422.402 178.306 423.242 178.782 424.096 178.782C424.81 178.782 425.468 178.53 425.468 177.872C425.468 177.242 424.852 177.172 423.69 176.934C422.528 176.696 421.198 176.402 421.198 174.834C421.198 173.49 422.374 172.51 424.068 172.51C425.356 172.51 426.504 173.084 427.036 173.896L425.902 174.918C425.482 174.26 424.782 173.882 423.97 173.882C423.284 173.882 422.836 174.19 422.836 174.68C422.836 175.212 423.368 175.31 424.292 175.506C425.538 175.772 427.106 176.038 427.106 177.718C427.106 179.202 425.748 180.154 424.082 180.154C422.724 180.154 421.366 179.608 420.708 178.6Z" fill="#002060"/>
<path d="M283 141.5C298.188 141.5 310.5 129.188 310.5 114C310.5 98.8122 298.188 86.5 283 86.5C267.812 86.5 255.5 98.8122 255.5 114C255.5 129.188 267.812 141.5 283 141.5Z" stroke="#20336B"/>
<path d="M266.086 163.04L267.458 161.906C268.158 162.998 269.208 163.628 270.356 163.628C271.49 163.628 272.344 163.11 272.344 162.144C272.344 161.122 271.294 160.982 269.796 160.618C268.284 160.254 266.66 159.806 266.66 157.846C266.66 155.984 268.256 154.794 270.286 154.794C272.008 154.794 273.352 155.606 274.024 156.656L272.708 157.79C272.148 156.922 271.406 156.32 270.23 156.32C269.152 156.32 268.41 156.866 268.41 157.664C268.41 158.546 269.18 158.728 270.538 159.036C272.162 159.4 274.108 159.778 274.108 161.962C274.108 163.936 272.372 165.154 270.3 165.154C268.578 165.154 266.87 164.328 266.086 163.04ZM277.31 165.126C275.91 165.126 274.832 164.272 274.832 162.956C274.832 161.556 275.882 160.94 277.296 160.646L279.326 160.226V160.1C279.326 159.4 278.962 158.966 278.066 158.966C277.268 158.966 276.848 159.33 276.652 160.044L275.07 159.68C275.434 158.462 276.512 157.51 278.136 157.51C279.9 157.51 280.964 158.35 280.964 160.044V163.208C280.964 163.628 281.146 163.754 281.608 163.698V165C280.39 165.14 279.746 164.902 279.494 164.3C279.032 164.818 278.262 165.126 277.31 165.126ZM279.326 162.41V161.514L277.744 161.85C277.03 162.004 276.498 162.228 276.498 162.886C276.498 163.46 276.918 163.782 277.562 163.782C278.458 163.782 279.326 163.306 279.326 162.41ZM284.482 154.948V165H282.802V154.948H284.482ZM289.355 165.154C287.255 165.154 285.785 163.6 285.785 161.332C285.785 159.176 287.241 157.51 289.285 157.51C291.413 157.51 292.547 159.12 292.547 161.136V161.696H287.395C287.521 162.956 288.277 163.726 289.355 163.726C290.181 163.726 290.839 163.306 291.063 162.55L292.505 163.096C291.987 164.384 290.825 165.154 289.355 165.154ZM289.271 158.924C288.403 158.924 287.731 159.442 287.479 160.436H290.853C290.839 159.624 290.335 158.924 289.271 158.924ZM293.038 163.6L294.298 162.592C294.732 163.306 295.572 163.782 296.426 163.782C297.14 163.782 297.798 163.53 297.798 162.872C297.798 162.242 297.182 162.172 296.02 161.934C294.858 161.696 293.528 161.402 293.528 159.834C293.528 158.49 294.704 157.51 296.398 157.51C297.686 157.51 298.834 158.084 299.366 158.896L298.232 159.918C297.812 159.26 297.112 158.882 296.3 158.882C295.614 158.882 295.166 159.19 295.166 159.68C295.166 160.212 295.698 160.31 296.622 160.506C297.868 160.772 299.436 161.038 299.436 162.718C299.436 164.202 298.078 165.154 296.412 165.154C295.054 165.154 293.696 164.608 293.038 163.6ZM247.634 179.108V183H245.842V172.948H249.86C252.1 172.948 253.5 173.998 253.5 176.028C253.5 178.03 252.1 179.108 249.86 179.108H247.634ZM247.634 177.568H249.762C251.05 177.568 251.736 177.008 251.736 176.028C251.736 175.034 251.05 174.488 249.762 174.488H247.634V177.568ZM258.653 175.636V177.316C258.443 177.288 258.275 177.274 258.037 177.274C256.973 177.274 256.161 177.96 256.161 179.136V183H254.481V175.65H256.161V176.742C256.483 176.056 257.239 175.608 258.177 175.608C258.373 175.608 258.527 175.622 258.653 175.636ZM266.079 179.332C266.079 181.614 264.609 183.154 262.537 183.154C260.465 183.154 258.995 181.614 258.995 179.332C258.995 177.05 260.465 175.51 262.537 175.51C264.609 175.51 266.079 177.05 266.079 179.332ZM260.689 179.332C260.689 180.83 261.403 181.74 262.537 181.74C263.671 181.74 264.385 180.83 264.385 179.332C264.385 177.834 263.671 176.924 262.537 176.924C261.403 176.924 260.689 177.834 260.689 179.332ZM269.067 178.688V183H267.387V175.65H269.067V176.434C269.473 175.944 270.103 175.51 271.083 175.51C271.965 175.51 272.623 175.902 273.029 176.532C273.477 176.056 274.177 175.51 275.311 175.51C276.823 175.51 277.803 176.574 277.803 178.156V183H276.123V178.646C276.123 177.736 275.787 177.078 274.891 177.078C274.177 177.078 273.435 177.638 273.435 178.688V183H271.755V178.646C271.755 177.736 271.419 177.078 270.523 177.078C269.809 177.078 269.067 177.638 269.067 178.688ZM286.136 179.332C286.136 181.614 284.666 183.154 282.594 183.154C280.522 183.154 279.052 181.614 279.052 179.332C279.052 177.05 280.522 175.51 282.594 175.51C284.666 175.51 286.136 177.05 286.136 179.332ZM280.746 179.332C280.746 180.83 281.46 181.74 282.594 181.74C283.728 181.74 284.442 180.83 284.442 179.332C284.442 177.834 283.728 176.924 282.594 176.924C281.46 176.924 280.746 177.834 280.746 179.332ZM287.598 181.152V177.078H286.576V175.65H287.598V173.494H289.25V175.65H290.79V177.078H289.25V180.886C289.25 181.544 289.628 181.614 290.23 181.614C290.51 181.614 290.664 181.6 290.916 181.572V182.986C290.608 183.042 290.188 183.084 289.754 183.084C288.354 183.084 287.598 182.65 287.598 181.152ZM292.146 174.67V172.948H293.882V174.67H292.146ZM293.854 175.65V183H292.174V175.65H293.854ZM302.241 179.332C302.241 181.614 300.771 183.154 298.699 183.154C296.627 183.154 295.157 181.614 295.157 179.332C295.157 177.05 296.627 175.51 298.699 175.51C300.771 175.51 302.241 177.05 302.241 179.332ZM296.851 179.332C296.851 180.83 297.565 181.74 298.699 181.74C299.833 181.74 300.547 180.83 300.547 179.332C300.547 177.834 299.833 176.924 298.699 176.924C297.565 176.924 296.851 177.834 296.851 179.332ZM303.549 183V175.65H305.229V176.434C305.649 175.944 306.307 175.51 307.259 175.51C308.799 175.51 309.723 176.574 309.723 178.156V183H308.043V178.646C308.043 177.736 307.679 177.078 306.755 177.078C305.999 177.078 305.229 177.638 305.229 178.688V183H303.549ZM310.668 181.6L311.928 180.592C312.362 181.306 313.202 181.782 314.056 181.782C314.77 181.782 315.428 181.53 315.428 180.872C315.428 180.242 314.812 180.172 313.65 179.934C312.488 179.696 311.158 179.402 311.158 177.834C311.158 176.49 312.334 175.51 314.028 175.51C315.316 175.51 316.464 176.084 316.996 176.896L315.862 177.918C315.442 177.26 314.742 176.882 313.93 176.882C313.244 176.882 312.796 177.19 312.796 177.68C312.796 178.212 313.328 178.31 314.252 178.506C315.498 178.772 317.066 179.038 317.066 180.718C317.066 182.202 315.708 183.154 314.042 183.154C312.684 183.154 311.326 182.608 310.668 181.6Z" fill="#002060"/>
<path d="M39 141.5C54.1878 141.5 66.5 129.188 66.5 114C66.5 98.8122 54.1878 86.5 39 86.5C23.8122 86.5 11.5 98.8122 11.5 114C11.5 129.188 23.8122 141.5 39 141.5Z" stroke="#20336B"/>
<path d="M10.6336 161.108V165H8.84167V154.948H12.8596C15.0996 154.948 16.4996 155.998 16.4996 158.028C16.4996 160.03 15.0996 161.108 12.8596 161.108H10.6336ZM10.6336 159.568H12.7616C14.0496 159.568 14.7356 159.008 14.7356 158.028C14.7356 157.034 14.0496 156.488 12.7616 156.488H10.6336V159.568ZM19.2899 165.126C17.8899 165.126 16.8119 164.272 16.8119 162.956C16.8119 161.556 17.8619 160.94 19.2759 160.646L21.3059 160.226V160.1C21.3059 159.4 20.9419 158.966 20.0459 158.966C19.2479 158.966 18.8279 159.33 18.6319 160.044L17.0499 159.68C17.4139 158.462 18.4919 157.51 20.1159 157.51C21.8799 157.51 22.9439 158.35 22.9439 160.044V163.208C22.9439 163.628 23.1259 163.754 23.5879 163.698V165C22.3699 165.14 21.7259 164.902 21.4739 164.3C21.0119 164.818 20.2419 165.126 19.2899 165.126ZM21.3059 162.41V161.514L19.7239 161.85C19.0099 162.004 18.4779 162.228 18.4779 162.886C18.4779 163.46 18.8979 163.782 19.5419 163.782C20.4379 163.782 21.3059 163.306 21.3059 162.41ZM27.8367 165.686C27.4167 166.806 26.7727 167.576 25.2467 167.576C24.8967 167.576 24.7987 167.562 24.5607 167.534V166.12C24.7847 166.148 24.9107 166.162 25.1207 166.162C25.6807 166.162 25.9467 166.008 26.1847 165.42L26.4647 164.734L23.7907 157.65H25.5547L27.3607 162.802L29.1247 157.65H30.8607L27.8367 165.686ZM33.4477 160.688V165H31.7677V157.65H33.4477V158.434C33.8537 157.944 34.4837 157.51 35.4637 157.51C36.3457 157.51 37.0037 157.902 37.4097 158.532C37.8577 158.056 38.5577 157.51 39.6917 157.51C41.2037 157.51 42.1837 158.574 42.1837 160.156V165H40.5037V160.646C40.5037 159.736 40.1677 159.078 39.2717 159.078C38.5577 159.078 37.8157 159.638 37.8157 160.688V165H36.1357V160.646C36.1357 159.736 35.7997 159.078 34.9037 159.078C34.1897 159.078 33.4477 159.638 33.4477 160.688ZM47.0027 165.154C44.9027 165.154 43.4327 163.6 43.4327 161.332C43.4327 159.176 44.8887 157.51 46.9327 157.51C49.0607 157.51 50.1947 159.12 50.1947 161.136V161.696H45.0427C45.1687 162.956 45.9247 163.726 47.0027 163.726C47.8287 163.726 48.4867 163.306 48.7107 162.55L50.1527 163.096C49.6347 164.384 48.4727 165.154 47.0027 165.154ZM46.9187 158.924C46.0507 158.924 45.3787 159.442 45.1267 160.436H48.5007C48.4867 159.624 47.9827 158.924 46.9187 158.924ZM51.4552 165V157.65H53.1352V158.434C53.5552 157.944 54.2132 157.51 55.1652 157.51C56.7052 157.51 57.6292 158.574 57.6292 160.156V165H55.9492V160.646C55.9492 159.736 55.5852 159.078 54.6612 159.078C53.9052 159.078 53.1352 159.638 53.1352 160.688V165H51.4552ZM59.4979 163.152V159.078H58.4759V157.65H59.4979V155.494H61.1499V157.65H62.6899V159.078H61.1499V162.886C61.1499 163.544 61.5279 163.614 62.1299 163.614C62.4099 163.614 62.5639 163.6 62.8159 163.572V164.986C62.5079 165.042 62.0879 165.084 61.6539 165.084C60.2539 165.084 59.4979 164.65 59.4979 163.152ZM63.3044 163.6L64.5644 162.592C64.9984 163.306 65.8384 163.782 66.6924 163.782C67.4064 163.782 68.0644 163.53 68.0644 162.872C68.0644 162.242 67.4484 162.172 66.2864 161.934C65.1244 161.696 63.7944 161.402 63.7944 159.834C63.7944 158.49 64.9704 157.51 66.6644 157.51C67.9524 157.51 69.1004 158.084 69.6324 158.896L68.4984 159.918C68.0784 159.26 67.3784 158.882 66.5664 158.882C65.8804 158.882 65.4324 159.19 65.4324 159.68C65.4324 160.212 65.9644 160.31 66.8884 160.506C68.1344 160.772 69.7024 161.038 69.7024 162.718C69.7024 164.202 68.3444 165.154 66.6784 165.154C65.3204 165.154 63.9624 164.608 63.3044 163.6Z" fill="#002060"/>
<path d="M159 141.5C174.188 141.5 186.5 129.188 186.5 114C186.5 98.8122 174.188 86.5 159 86.5C143.812 86.5 131.5 98.8122 131.5 114C131.5 129.188 143.812 141.5 159 141.5Z" stroke="#20336B"/>
<path d="M148.084 110.839C147.918 111.751 147.871 112.685 147.944 113.616L150.058 113.453C149.999 112.701 150.037 111.947 150.171 111.212L148.084 110.839ZM150.407 110.241C150.627 109.523 150.938 108.835 151.335 108.196L149.527 107.097C149.036 107.89 148.649 108.743 148.377 109.634L150.407 110.241ZM154.36 105.237C155.011 104.852 155.709 104.553 156.438 104.346L155.854 102.328C154.95 102.584 154.083 102.956 153.274 103.433L154.36 105.237ZM162.827 104.919L163.771 103.039C162.929 102.624 162.037 102.319 161.116 102.13L160.686 104.186C161.429 104.338 162.148 104.585 162.827 104.919ZM157.932 101.947C157.645 101.972 157.356 102.009 157.074 102.055L157.423 104.126C157.653 104.089 157.884 104.059 158.116 104.039C158.641 103.994 159.17 103.994 159.689 104.04L159.878 101.949C159.231 101.892 158.579 101.891 157.932 101.947ZM150.241 106.081L151.911 107.374C152.378 106.782 152.92 106.252 153.524 105.796L152.238 104.127C151.491 104.691 150.82 105.348 150.241 106.081ZM160.602 119.042L156.986 122.532C156.819 122.694 156.84 122.931 157.033 123.061L161.206 125.876C161.4 126.007 161.54 125.925 161.52 125.694L161.315 123.377C161.361 123.367 161.406 123.356 161.452 123.346C161.474 123.34 161.497 123.335 161.519 123.33C161.683 123.29 161.846 123.246 162.008 123.199C162.024 123.194 162.039 123.189 162.054 123.185C162.233 123.132 162.411 123.075 162.588 123.013L162.587 123.011C162.983 122.87 163.366 122.707 163.739 122.524L163.741 122.529C164.584 122.117 165.371 121.6 166.081 120.989L166.076 120.983C166.391 120.712 166.691 120.425 166.972 120.121L166.977 120.125C167.612 119.44 168.156 118.677 168.595 117.854L168.589 117.851C168.785 117.486 168.959 117.111 169.111 116.727L169.116 116.729C169.391 116.033 169.591 115.311 169.715 114.575L169.72 114.545C169.749 114.374 169.774 114.201 169.794 114.028C169.841 113.622 169.863 113.209 169.863 112.792H169.866C169.866 112.665 169.864 112.538 169.859 112.411C169.858 112.382 169.856 112.353 169.855 112.324C169.849 112.185 169.84 112.047 169.829 111.909C169.827 111.882 169.826 111.855 169.824 111.829C169.823 111.814 169.82 111.8 169.819 111.786C169.806 111.641 169.789 111.497 169.77 111.354C169.764 111.302 169.756 111.251 169.748 111.199C169.732 111.09 169.714 110.982 169.695 110.874C169.687 110.826 169.679 110.779 169.67 110.732C169.643 110.593 169.614 110.455 169.582 110.318C169.569 110.265 169.556 110.211 169.542 110.158C169.532 110.117 169.523 110.076 169.513 110.036L169.51 110.037C169.406 109.636 169.279 109.242 169.129 108.856H169.13C169.128 108.852 169.126 108.847 169.124 108.843C169.092 108.76 169.058 108.679 169.024 108.597C169.004 108.55 168.984 108.504 168.964 108.458C168.84 108.174 168.704 107.896 168.556 107.624C168.543 107.6 168.53 107.575 168.516 107.551C168.362 107.272 168.195 107 168.016 106.736C167.996 106.706 167.975 106.676 167.954 106.646C167.9 106.567 167.845 106.488 167.788 106.411L167.787 106.412C167.542 106.077 167.278 105.757 166.997 105.452L166.999 105.45C166.962 105.41 166.923 105.371 166.886 105.331C166.849 105.293 166.814 105.255 166.777 105.217C166.674 105.112 166.569 105.009 166.461 104.908C166.432 104.881 166.403 104.854 166.374 104.827C166.273 104.734 166.17 104.643 166.066 104.553C166.052 104.542 166.04 104.529 166.026 104.518C166.023 104.515 166.02 104.513 166.017 104.511C165.65 104.2 165.262 103.914 164.857 103.653L163.703 105.414C164.047 105.636 164.375 105.88 164.685 106.146C164.796 106.242 164.905 106.34 165.011 106.441C165.04 106.467 165.066 106.495 165.094 106.521C165.194 106.619 165.292 106.718 165.388 106.82C165.633 107.082 165.862 107.355 166.071 107.641C166.112 107.698 166.152 107.756 166.193 107.814C166.26 107.91 166.324 108.007 166.387 108.105C166.396 108.119 166.404 108.133 166.413 108.146C166.492 108.273 166.568 108.401 166.641 108.531C166.662 108.569 166.682 108.606 166.702 108.643C166.737 108.706 166.77 108.77 166.803 108.834C166.832 108.891 166.86 108.949 166.888 109.007C166.954 109.146 167.018 109.287 167.077 109.429C167.099 109.482 167.121 109.535 167.142 109.588C167.281 109.942 167.396 110.305 167.488 110.675C167.497 110.712 167.506 110.748 167.515 110.785C167.541 110.899 167.566 111.014 167.588 111.129C167.595 111.164 167.6 111.199 167.606 111.233C167.623 111.325 167.638 111.416 167.651 111.508C167.657 111.547 167.663 111.587 167.668 111.626C167.684 111.743 167.697 111.861 167.708 111.979C167.711 112.01 167.713 112.042 167.716 112.073C167.725 112.187 167.732 112.301 167.737 112.415C167.738 112.437 167.739 112.458 167.74 112.48C167.797 114.115 167.392 115.672 166.636 117.02C166.634 117.025 166.631 117.029 166.629 117.033C166.425 117.394 166.196 117.741 165.944 118.071C165.939 118.077 165.934 118.083 165.93 118.089C164.891 119.438 163.463 120.487 161.795 121.061C161.672 121.103 161.548 121.144 161.423 121.18L161.419 121.181C161.323 121.21 161.226 121.234 161.128 121.259L160.944 119.167C160.923 118.937 160.77 118.881 160.602 119.042Z" fill="#20336B"/>
<path d="M161.806 116.375C161.734 116.375 161.662 116.358 161.597 116.326C161.532 116.294 161.476 116.247 161.432 116.19L156.662 109.891V115.912C156.662 116.168 156.453 116.375 156.194 116.375C155.936 116.375 155.727 116.168 155.727 115.912V108.502C155.727 108.405 155.757 108.31 155.815 108.231C155.872 108.153 155.953 108.094 156.046 108.063C156.139 108.032 156.24 108.031 156.334 108.06C156.427 108.089 156.509 108.147 156.568 108.224L161.339 114.523V108.502C161.339 108.246 161.548 108.039 161.806 108.039C162.064 108.039 162.274 108.246 162.274 108.502V115.912C162.274 115.973 162.262 116.033 162.238 116.089C162.215 116.145 162.18 116.196 162.137 116.239C162.094 116.282 162.042 116.316 161.985 116.34C161.929 116.363 161.868 116.375 161.806 116.375Z" fill="#4ABCEB"/>
<path d="M162.973 111.747H155.022C154.764 111.747 154.555 111.539 154.555 111.283C154.555 111.028 154.764 110.82 155.022 110.82H162.973C163.231 110.82 163.44 111.028 163.44 111.283C163.44 111.539 163.231 111.747 162.973 111.747ZM162.973 113.599H155.022C154.764 113.599 154.555 113.392 154.555 113.136C154.555 112.88 154.764 112.673 155.022 112.673H162.973C163.231 112.673 163.44 112.88 163.44 113.136C163.44 113.392 163.231 113.599 162.973 113.599Z" fill="#4ABCEB"/>
<path d="M126.281 159.974C126.281 162.144 127.457 163.572 129.109 163.572C130.285 163.572 131.139 162.858 131.447 161.682L133.127 162.256C132.539 164.034 131.139 165.154 129.109 165.154C126.435 165.154 124.489 163.026 124.489 159.974C124.489 156.922 126.435 154.794 129.109 154.794C131.139 154.794 132.539 155.914 133.127 157.692L131.447 158.266C131.139 157.09 130.285 156.376 129.109 156.376C127.457 156.376 126.281 157.804 126.281 159.974ZM140.897 161.332C140.897 163.614 139.427 165.154 137.355 165.154C135.283 165.154 133.813 163.614 133.813 161.332C133.813 159.05 135.283 157.51 137.355 157.51C139.427 157.51 140.897 159.05 140.897 161.332ZM135.507 161.332C135.507 162.83 136.221 163.74 137.355 163.74C138.489 163.74 139.203 162.83 139.203 161.332C139.203 159.834 138.489 158.924 137.355 158.924C136.221 158.924 135.507 159.834 135.507 161.332ZM143.884 154.948V165H142.204V154.948H143.884ZM147.33 154.948V165H145.65V154.948H147.33ZM152.203 165.154C150.103 165.154 148.633 163.6 148.633 161.332C148.633 159.176 150.089 157.51 152.133 157.51C154.261 157.51 155.395 159.12 155.395 161.136V161.696H150.243C150.369 162.956 151.125 163.726 152.203 163.726C153.029 163.726 153.687 163.306 153.911 162.55L155.353 163.096C154.835 164.384 153.673 165.154 152.203 165.154ZM152.119 158.924C151.251 158.924 150.579 159.442 150.327 160.436H153.701C153.687 159.624 153.183 158.924 152.119 158.924ZM157.873 161.332C157.873 162.83 158.657 163.698 159.805 163.698C160.701 163.698 161.247 163.11 161.457 162.298L162.899 163.026C162.521 164.216 161.401 165.154 159.805 165.154C157.705 165.154 156.193 163.6 156.193 161.332C156.193 159.064 157.705 157.51 159.805 157.51C161.387 157.51 162.479 158.406 162.871 159.582L161.457 160.352C161.247 159.554 160.701 158.952 159.805 158.952C158.657 158.952 157.873 159.834 157.873 161.332ZM164.069 163.152V159.078H163.047V157.65H164.069V155.494H165.721V157.65H167.261V159.078H165.721V162.886C165.721 163.544 166.099 163.614 166.701 163.614C166.981 163.614 167.135 163.6 167.387 163.572V164.986C167.079 165.042 166.659 165.084 166.225 165.084C164.825 165.084 164.069 164.65 164.069 163.152ZM168.618 156.67V154.948H170.354V156.67H168.618ZM170.326 157.65V165H168.646V157.65H170.326ZM178.713 161.332C178.713 163.614 177.243 165.154 175.171 165.154C173.099 165.154 171.629 163.614 171.629 161.332C171.629 159.05 173.099 157.51 175.171 157.51C177.243 157.51 178.713 159.05 178.713 161.332ZM173.323 161.332C173.323 162.83 174.037 163.74 175.171 163.74C176.305 163.74 177.019 162.83 177.019 161.332C177.019 159.834 176.305 158.924 175.171 158.924C174.037 158.924 173.323 159.834 173.323 161.332ZM180.021 165V157.65H181.701V158.434C182.121 157.944 182.779 157.51 183.731 157.51C185.271 157.51 186.195 158.574 186.195 160.156V165H184.515V160.646C184.515 159.736 184.151 159.078 183.227 159.078C182.471 159.078 181.701 159.638 181.701 160.688V165H180.021ZM187.139 163.6L188.399 162.592C188.833 163.306 189.673 163.782 190.527 163.782C191.241 163.782 191.899 163.53 191.899 162.872C191.899 162.242 191.283 162.172 190.121 161.934C188.959 161.696 187.629 161.402 187.629 159.834C187.629 158.49 188.805 157.51 190.499 157.51C191.787 157.51 192.935 158.084 193.467 158.896L192.333 159.918C191.913 159.26 191.213 158.882 190.401 158.882C189.715 158.882 189.267 159.19 189.267 159.68C189.267 160.212 189.799 160.31 190.723 160.506C191.969 160.772 193.537 161.038 193.537 162.718C193.537 164.202 192.179 165.154 190.513 165.154C189.155 165.154 187.797 164.608 187.139 163.6Z" fill="#002060"/>
<path fill-rule="evenodd" clip-rule="evenodd" d="M35.5 102C33.8431 102 32.5 103.343 32.5 105V110H36V119H32.5V125C32.5 126.657 33.8431 128 35.5 128H46.5C48.1569 128 49.5 126.657 49.5 125V105C49.5 103.343 48.1569 102 46.5 102H35.5Z" fill="#20336B"/>
<path d="M48.3 105H34V124H48.3V105Z" fill="white"/>
<path d="M41.2 120.2C44.2375 120.2 46.7 117.738 46.7 114.7C46.7 111.662 44.2375 109.2 41.2 109.2C38.1624 109.2 35.7 111.662 35.7 114.7C35.7 117.738 38.1624 120.2 41.2 120.2Z" fill="#20336B"/>
<path d="M42.8068 117.526C42.7591 117.526 42.7114 117.515 42.6683 117.494C42.6252 117.472 42.5881 117.441 42.5589 117.403L39.3968 113.228V117.219C39.3968 117.389 39.2583 117.526 39.0866 117.526C38.9155 117.526 38.777 117.389 38.777 117.219V112.307C38.777 112.243 38.7969 112.18 38.8353 112.127C38.8731 112.076 38.9268 112.036 38.9884 112.016C39.0501 111.995 39.117 111.995 39.1794 112.014C39.241 112.033 39.2954 112.072 39.3345 112.123L42.4973 116.298V112.307C42.4973 112.137 42.6358 112 42.8068 112C42.9779 112 43.1171 112.137 43.1171 112.307V117.219C43.1171 117.26 43.1091 117.299 43.0932 117.336C43.078 117.374 43.0548 117.407 43.0262 117.436C42.9977 117.464 42.9633 117.487 42.9255 117.503C42.8884 117.518 42.8479 117.526 42.8068 117.526Z" fill="white"/>
<path d="M43.5804 114.458H38.3096C38.1386 114.458 38 114.32 38 114.15C38 113.981 38.1386 113.844 38.3096 113.844H43.5804C43.7515 113.844 43.89 113.981 43.89 114.15C43.89 114.32 43.7515 114.458 43.5804 114.458ZM43.5804 115.686H38.3096C38.1386 115.686 38 115.549 38 115.379C38 115.209 38.1386 115.072 38.3096 115.072H43.5804C43.7515 115.072 43.89 115.209 43.89 115.379C43.89 115.549 43.7515 115.686 43.5804 115.686Z" fill="white"/>
<path d="M30 112H35" stroke="#4ABCEB" stroke-linecap="round"/>
<path d="M28 114.8H34" stroke="#4ABCEB" stroke-linecap="round"/>
<path d="M30 117.5H35" stroke="#4ABCEB" stroke-linecap="round"/>
<path d="M28.25 112.7C28.6642 112.7 29 112.364 29 111.95C29 111.536 28.6642 111.2 28.25 111.2C27.8358 111.2 27.5 111.536 27.5 111.95C27.5 112.364 27.8358 112.7 28.25 112.7Z" fill="#4ABCEB"/>
<path d="M26.25 115.5C26.6642 115.5 27 115.164 27 114.75C27 114.336 26.6642 114 26.25 114C25.8358 114 25.5 114.336 25.5 114.75C25.5 115.164 25.8358 115.5 26.25 115.5Z" fill="#4ABCEB"/>
<path d="M28.25 118.3C28.6642 118.3 29 117.964 29 117.55C29 117.136 28.6642 116.8 28.25 116.8C27.8358 116.8 27.5 117.136 27.5 117.55C27.5 117.964 27.8358 118.3 28.25 118.3Z" fill="#4ABCEB"/>
<path d="M290.705 113.877L294.141 115.309" stroke="#00BAF2" stroke-linecap="round"/>
<path d="M292.136 105.859L289.846 108.723" stroke="#00BAF2" stroke-linecap="round"/>
<path d="M290.991 111.013L295 110.154" stroke="#00BAF2" stroke-linecap="round"/>
<path d="M273.212 118.418C271.394 117.434 270.228 115.234 272.091 113.149C272.144 113.089 272.242 113.116 272.259 113.194L273.352 118.312C273.369 118.393 273.286 118.458 273.212 118.418Z" fill="#20336B" stroke="#20336B" stroke-width="0.5"/>
<path d="M279.439 119.348L275.936 120.426C275.874 120.445 275.847 120.517 275.88 120.573C276.965 122.386 277.595 123.378 278.64 124.434C278.663 124.458 278.698 124.468 278.731 124.461C280.26 124.152 281.085 123.919 282.26 123.391C282.326 123.361 282.339 123.273 282.284 123.225L280.132 121.342C280.117 121.329 280.107 121.312 280.102 121.294L279.565 119.416C279.55 119.362 279.493 119.331 279.439 119.348Z" fill="#20336B" stroke="#20336B" stroke-width="0.5"/>
<path d="M279.617 110.983C282.059 110.052 283.741 108.229 285.989 105.183C286.04 105.113 286.151 105.136 286.168 105.221L288.943 118.819C288.96 118.902 288.87 118.967 288.795 118.926C285.623 117.18 284.029 116.565 280.77 116.736C280.72 116.738 280.675 116.704 280.665 116.655L279.554 111.097C279.544 111.049 279.571 111.001 279.617 110.983Z" stroke="#20336B" stroke-width="1.5"/>
<path d="M277.156 111.027L273.631 111.57C273.573 111.578 273.535 111.635 273.549 111.692L275.219 118.648C275.231 118.702 275.285 118.735 275.338 118.723L278.865 117.909C278.92 117.896 278.953 117.841 278.94 117.787L277.268 111.102C277.256 111.052 277.207 111.019 277.156 111.027Z" fill="#20336B" stroke="#20336B" stroke-width="0.5"/>
<path d="M288.535 114.935C290.118 113.707 290.336 109.977 287.415 109.325C287.346 109.309 287.284 109.37 287.297 109.44L288.385 114.876C288.399 114.946 288.479 114.979 288.535 114.935Z" fill="#20336B" stroke="#20336B" stroke-width="0.5"/>
<path d="M392.215 120.782H388.703C388.315 120.782 388 120.467 388 120.078V103.703C388 103.315 388.315 103 388.703 103H409.891C410.279 103 410.594 103.315 410.594 103.703V120.078C410.594 120.467 410.279 120.782 409.891 120.782H406.405M397.728 120.782H395.118M403.483 120.782H400.657" stroke="#20336B" stroke-miterlimit="10" stroke-linecap="round" stroke-linejoin="round"/>
<path d="M399.134 111.44C399.911 111.44 400.54 110.81 400.54 110.033C400.54 109.257 399.911 108.627 399.134 108.627C398.357 108.627 397.728 109.257 397.728 110.033C397.728 110.81 398.357 111.44 399.134 111.44Z" stroke="#00BAF2" stroke-miterlimit="10" stroke-linecap="round" stroke-linejoin="round"/>
<path d="M393.622 114.227C394.398 114.227 395.028 113.598 395.028 112.821C395.028 112.045 394.398 111.415 393.622 111.415C392.845 111.415 392.215 112.045 392.215 112.821C392.215 113.598 392.845 114.227 393.622 114.227Z" stroke="#00BAF2" stroke-miterlimit="10" stroke-linecap="round" stroke-linejoin="round"/>
<path d="M404.889 112.42C405.666 112.42 406.295 111.79 406.295 111.014C406.295 110.237 405.666 109.607 404.889 109.607C404.113 109.607 403.483 110.237 403.483 111.014C403.483 111.79 404.113 112.42 404.889 112.42Z" stroke="#00BAF2" stroke-miterlimit="10" stroke-linecap="round" stroke-linejoin="round"/>
<path d="M410.594 105.828H388M407.78 125.594H390.813" stroke="#20336B" stroke-miterlimit="10" stroke-linecap="round" stroke-linejoin="round"/>
<path d="M406.291 125.594H403.487V116.317H406.291V125.594Z" stroke="#20336B" stroke-miterlimit="10" stroke-linecap="round" stroke-linejoin="round"/>
<path d="M400.657 125.594H397.854V115.347H400.657V125.594Z" stroke="#20336B" stroke-miterlimit="10" stroke-linecap="round" stroke-linejoin="round"/>
<path d="M395.023 125.594H392.22V118.118H395.023V125.594Z" stroke="#20336B" stroke-miterlimit="10" stroke-linecap="round" stroke-linejoin="round"/>
<path d="M395.118 112.064L397.728 110.745M403.239 110.733L400.715 110.303" stroke="#00BAF2" stroke-miterlimit="10" stroke-linecap="round" stroke-linejoin="round"/>
</svg>
