<svg width="450" height="252" viewBox="0 0 450 252" fill="none" xmlns="http://www.w3.org/2000/svg">
<path d="M0.5 230.501V241.001C0.504742 245.001 4.5 251.001 22.5 251.001C40.5 251.001 108.664 251.001 140.495 251.001C145.162 251.168 154.495 249.401 154.495 241.001C154.495 232.601 154.495 202.834 154.495 189.001M104 1.00084C85.6 1.00084 78 5.50084 78 11.5008V160.001C78 179.001 77.5 184.001 59.5 184.001H52M169.5 189.001V196.501C169.5 201.001 174.1 203.501 184.5 203.501C194.9 203.501 233.833 203.501 252 203.501M200 1.00083C208.5 1.00085 225 0.300837 225 11.5008C225 22.7008 225 121.501 225 169.501C225 175.001 224.9 184.001 236.5 184.001C248.1 184.001 251.667 184.001 252 184.001M348 184.001H428C437 184.001 449.5 181.501 449.5 169.501C449.5 158.301 449.5 53.3342 449.5 2.00083" stroke="#ACDA27"/>
</svg>
