<svg width="48" height="48" viewBox="0 0 48 48" fill="none" xmlns="http://www.w3.org/2000/svg">
<rect x="0.5" y="0.5" width="47" height="47" rx="23.5" stroke="#D3D3D3"/>
<path d="M26.193 31C26.0996 31 25.8796 30.9867 25.533 30.96C25.1863 30.92 24.773 30.88 24.293 30.84C23.8263 30.7867 23.353 30.7333 22.873 30.68C22.4063 30.6133 21.993 30.5533 21.633 30.5C21.273 30.4467 21.033 30.4 20.913 30.36C20.913 30.2133 20.9263 30.0667 20.953 29.92C20.993 29.7733 21.033 29.6667 21.073 29.6L21.873 29.54C22.0596 29.5267 22.2196 29.4467 22.353 29.3C22.4863 29.1533 22.5863 28.94 22.653 28.66C22.7196 28.3667 22.753 28.0133 22.753 27.6V20.28C22.753 19.72 22.7863 19.3133 22.853 19.06C22.933 18.7933 22.9996 18.6133 23.053 18.52H20.433L19.913 21.6C19.6996 21.68 19.3996 21.7533 19.013 21.82C18.6396 21.8867 18.3063 21.92 18.013 21.92C17.9596 21.7067 17.8863 21.4067 17.793 21.02C17.713 20.6333 17.633 20.1867 17.553 19.68C17.473 19.16 17.413 18.62 17.373 18.06C17.5596 17.8867 17.793 17.68 18.073 17.44C18.3663 17.1867 18.593 17.0133 18.753 16.92H30.473C30.673 17.0667 30.8863 17.24 31.113 17.44C31.3396 17.6267 31.5196 17.8333 31.653 18.06C31.5996 18.94 31.5063 19.7 31.373 20.34C31.253 20.9667 31.133 21.4933 31.013 21.92C30.7063 21.92 30.3663 21.8867 29.993 21.82C29.6196 21.7533 29.3263 21.68 29.113 21.6L28.613 18.62C28.493 18.5533 28.3063 18.4867 28.053 18.42C27.7996 18.3533 27.473 18.32 27.073 18.32C26.8863 18.32 26.7263 18.3667 26.593 18.46C26.4596 18.54 26.3596 18.6667 26.293 18.84C26.2396 19 26.213 19.2 26.213 19.44V28.04C26.1996 28.36 26.153 28.64 26.073 28.88C26.0063 29.1067 25.9396 29.26 25.873 29.34L27.853 29.62C27.893 29.6733 27.9263 29.7667 27.953 29.9C27.993 30.02 28.0196 30.1733 28.033 30.36C27.8196 30.5333 27.5196 30.6867 27.133 30.82C26.7463 30.94 26.433 31 26.193 31Z" fill="#D3D3D3"/>
</svg>
