<svg width="48" height="48" viewBox="0 0 48 48" fill="none" xmlns="http://www.w3.org/2000/svg">
<circle cx="24" cy="24" r="24" fill="#20336B"/>
<path fill-rule="evenodd" clip-rule="evenodd" d="M24.0553 11.7613C22.3138 11.7613 20.902 13.1731 20.902 14.9147C20.902 16.6562 22.3138 18.068 24.0553 18.068C25.7969 18.068 27.2087 16.6562 27.2087 14.9147C27.2087 13.1731 25.7969 11.7613 24.0553 11.7613ZM19.6406 14.9147C19.6406 12.4765 21.6172 10.5 24.0553 10.5C26.4935 10.5 28.47 12.4765 28.47 14.9147C28.47 17.3529 26.4935 19.3294 24.0553 19.3294C21.6172 19.3294 19.6406 17.3529 19.6406 14.9147Z" fill="white"/>
<path fill-rule="evenodd" clip-rule="evenodd" d="M20.9178 19.9043C20.5695 19.9043 20.2871 20.1867 20.2871 20.535C20.2871 20.8833 20.5695 21.1656 20.9178 21.1656H25.5046C28.7904 21.1656 31.6256 23.4709 32.296 26.6877L32.581 28.0552C32.9891 30.0134 31.4943 31.852 29.494 31.852H20.6616V33.1133H29.494C32.2944 33.1133 34.3872 30.5394 33.8158 27.7979L33.5307 26.4303C32.7385 22.6287 29.3879 19.9043 25.5046 19.9043H20.9178Z" fill="white"/>
<path d="M16.4942 23.4062C12.747 30.4842 16.4942 32.566 19.571 32.4871" stroke="#3FAFE9" stroke-width="1.5"/>
<path d="M16.4922 23.4069L16.9085 22.5742" stroke="#3FAFE9" stroke-width="1.5"/>
<path d="M15.0477 20.9223L19.1547 20.8745L18.8144 24.5895L15.0477 20.9223Z" fill="#3FAFE9" stroke="#3FAFE9"/>
</svg>
