<svg width="48" height="48" viewBox="0 0 48 48" fill="none" xmlns="http://www.w3.org/2000/svg">
<circle cx="24" cy="24" r="24" fill="#20336B"/>
<path d="M13.5938 33.0164L14.1844 31.3127C14.2297 31.1821 14.357 31.0938 14.5004 31.0938H26.687C26.8304 31.0938 26.9577 31.1821 27.003 31.3127L27.5938 33.0138" stroke="white" stroke-linecap="round" stroke-linejoin="round"/>
<path fill-rule="evenodd" clip-rule="evenodd" d="M14.9297 24.0566H26.2631V31.0967H14.9297V24.0566Z" stroke="white" stroke-linecap="round" stroke-linejoin="round"/>
<path d="M28.2631 33.0156H12.9297" stroke="white" stroke-linecap="round" stroke-linejoin="round"/>
<path d="M16.9297 24.0566V31.0967" stroke="white" stroke-linecap="round" stroke-linejoin="round"/>
<path d="M18.9297 24.0566V31.0967" stroke="white" stroke-linecap="round" stroke-linejoin="round"/>
<path d="M22.2656 24.0566V31.0967" stroke="white" stroke-linecap="round" stroke-linejoin="round"/>
<path d="M24.2656 24.0566V31.0967" stroke="white" stroke-linecap="round" stroke-linejoin="round"/>
<path fill-rule="evenodd" clip-rule="evenodd" d="M27.5132 22.3853C27.5634 22.2407 27.5004 22.0821 27.3626 22.0064L20.7652 18.3847C20.6621 18.3275 20.535 18.3275 20.4319 18.3847L13.8319 22.0039C13.694 22.0796 13.631 22.2381 13.6812 22.3827L14.1905 23.8375C14.2359 23.9681 14.3631 24.0562 14.5065 24.0563H26.6932C26.8366 24.0562 26.9639 23.9681 27.0092 23.8375L27.5132 22.3853Z" stroke="white" stroke-linecap="round" stroke-linejoin="round"/>
<path d="M27.4838 22.1367H13.7031" stroke="white" stroke-linecap="round" stroke-linejoin="round"/>
<path fill-rule="evenodd" clip-rule="evenodd" d="M25.5625 15.9107C25.5625 13.1986 27.7611 11 30.4732 11C33.1852 11 35.3838 13.1986 35.3838 15.9107C35.3838 18.6227 33.1852 20.8213 30.4732 20.8213C27.7611 20.8213 25.5625 18.6227 25.5625 15.9107Z" stroke="white"/>
<path d="M27.5625 15.3555H33.6231" stroke="#00BAF2" stroke-linecap="square"/>
<path d="M27.5625 16.416H33.6231" stroke="#00BAF2" stroke-linecap="square"/>
<path d="M32.4086 18.0081H31.8026L29.3783 13.7656H28.7344V18.0081" stroke="#00BAF2" stroke-linecap="square"/>
<path d="M32.4453 18.0081V13.7656" stroke="#00BAF2" stroke-linecap="square"/>
<path d="M30.7188 21V26.8618C30.7188 27.4141 30.271 27.8618 29.7187 27.8618H26.6017" stroke="white"/>
<path d="M25.6555 27.8292L27.7599 26.3059L27.6664 29.4739L25.6555 27.8292Z" fill="white"/>
</svg>
