<svg width="24" height="28" viewBox="0 0 24 28" fill="none" xmlns="http://www.w3.org/2000/svg">
<g id="To-Mobile">
<path id="Shape" fill-rule="evenodd" clip-rule="evenodd" d="M11.74 11.7243C10.987 11.7245 10.3081 11.2708 10.0199 10.575C9.73166 9.87917 9.89087 9.07818 10.4233 8.54556C10.9557 8.01293 11.7564 7.85357 12.4521 8.14178C13.1478 8.42998 13.6014 9.109 13.6014 9.86219C13.6005 10.8901 12.7676 11.7232 11.74 11.7243ZM11.7401 8.53708C11.2041 8.53698 10.7208 8.85986 10.5157 9.35515C10.3105 9.85043 10.4239 10.4206 10.8029 10.7997C11.1819 11.1788 11.7518 11.2921 12.247 11.0869C12.7422 10.8817 13.065 10.3983 13.0649 9.86222C13.0641 9.13078 12.4714 8.53796 11.7401 8.53708ZM14.7117 15.7125H8.76831L8.5 15.4441C8.5 14.2863 9.11754 13.2164 10.12 12.6374C11.1225 12.0585 12.3575 12.0585 13.36 12.6374C14.3625 13.2164 14.98 14.2863 14.98 15.4441L14.7117 15.7125ZM9.04938 15.1757H14.4308C14.2948 13.7912 13.1309 12.7357 11.7401 12.7357C10.3492 12.7357 9.18532 13.7912 9.04938 15.1757Z" fill="#29BAEC"/>
<g id="Group">
<g id="buyairtime">
<g id="smart-house-phone-remote">
<path id="Rectangle-path" d="M16.3294 2C16.8818 2 17.3294 2.44764 17.3294 3V20.9412C17.3294 21.4935 16.8818 21.9412 16.3294 21.9412H7C6.44764 21.9412 6 21.4935 6 20.9412V3C6 2.44764 6.44764 2 7 2H16.3294Z" stroke="white" stroke-linecap="round" stroke-linejoin="round"/>
</g>
</g>
<path id="Line" d="M6.5 5.54102H16.5" stroke="white" stroke-linecap="square"/>
<path id="Line-Copy" d="M7 18.041H17" stroke="white" stroke-linecap="square"/>
<path id="Rectangle" d="M13.5 3.3418C13.7762 3.3418 14 3.56562 14 3.8418C14 4.11798 13.7762 4.3418 13.5 4.3418H9.5C9.22382 4.3418 9 4.11798 9 3.8418C9 3.56562 9.22382 3.3418 9.5 3.3418H13.5Z" fill="white"/>
<g id="Ellipse" filter="url(#filter0_d_523_30466)">
<path fill-rule="evenodd" clip-rule="evenodd" d="M11 20.041C11 19.4887 11.4477 19.041 12 19.041C12.5523 19.041 13 19.4887 13 20.041C13 20.5933 12.5523 21.041 12 21.041C11.4477 21.041 11 20.5933 11 20.041Z" stroke="white" stroke-width="0.6"/>
</g>
</g>
</g>
<defs>
<filter id="filter0_d_523_30466" x="6.70312" y="16.7402" width="10.5938" height="10.6016" filterUnits="userSpaceOnUse" color-interpolation-filters="sRGB">
<feFlood flood-opacity="0" result="BackgroundImageFix"/>
<feColorMatrix in="SourceAlpha" type="matrix" values="0 0 0 0 0 0 0 0 0 0 0 0 0 0 0 0 0 0 127 0" result="hardAlpha"/>
<feOffset dy="2"/>
<feGaussianBlur stdDeviation="2"/>
<feColorMatrix type="matrix" values="0 0 0 0 0.392157 0 0 0 0 0.392157 0 0 0 0 0.392157 0 0 0 0.498039 0"/>
<feBlend mode="normal" in2="BackgroundImageFix" result="effect1_dropShadow_523_30466"/>
<feBlend mode="normal" in="SourceGraphic" in2="effect1_dropShadow_523_30466" result="shape"/>
</filter>
</defs>
</svg>
