<svg width="47" height="36" viewBox="0 0 47 36" fill="none" xmlns="http://www.w3.org/2000/svg">
<path d="M33.1875 4.5C33.5742 4.5 33.9375 4.57031 34.2773 4.71094C34.6172 4.85156 34.916 5.05664 35.1738 5.32617C35.4316 5.5957 35.6309 5.89453 35.7715 6.22266C35.9121 6.55078 35.9883 6.91406 36 7.3125V26.4375C36 26.8242 35.9297 27.1875 35.7891 27.5273C35.6484 27.8672 35.4434 28.166 35.1738 28.4238C34.9043 28.6816 34.6055 28.8809 34.2773 29.0215C33.9492 29.1621 33.5859 29.2383 33.1875 29.25H2.8125C2.42578 29.25 2.0625 29.1797 1.72266 29.0391C1.38281 28.8984 1.08398 28.6934 0.826172 28.4238C0.568359 28.1543 0.369141 27.8555 0.228516 27.5273C0.0878906 27.1992 0.0117188 26.8359 0 26.4375V7.3125C0 6.92578 0.0703125 6.5625 0.210938 6.22266C0.351562 5.88281 0.556641 5.58398 0.826172 5.32617C1.0957 5.06836 1.39453 4.86914 1.72266 4.72852C2.05078 4.58789 2.41406 4.51172 2.8125 4.5H33.1875ZM2.8125 6.75C2.64844 6.75 2.51367 6.80273 2.4082 6.9082C2.30273 7.01367 2.25 7.14844 2.25 7.3125V11.25H33.75V7.3125C33.75 7.14844 33.6973 7.01367 33.5918 6.9082C33.4863 6.80273 33.3516 6.75 33.1875 6.75H2.8125ZM33.1875 27C33.3516 27 33.4863 26.9473 33.5918 26.8418C33.6973 26.7363 33.75 26.6016 33.75 26.4375V13.5H2.25V26.4375C2.25 26.6016 2.30273 26.7363 2.4082 26.8418C2.51367 26.9473 2.64844 27 2.8125 27H33.1875ZM24.75 20.25H29.25V22.5H24.75V20.25Z" fill="white"/>
<path fill-rule="evenodd" clip-rule="evenodd" d="M45 8.93945L35 5.43945L25 8.93945V17.0005C25 21.1275 27.535 24.0125 29.895 25.8015C31.2312 26.8062 32.6895 27.6371 34.235 28.2745C34.3667 28.3284 34.4994 28.3801 34.633 28.4295L34.658 28.4395L34.665 28.4415L34.669 28.4435L35 28.5595L35.331 28.4435L35.2157 28.1146C35.331 28.4425 35.332 28.4425 35.332 28.4425L35.335 28.4415L35.342 28.4395L35.367 28.4305C35.3961 28.4196 35.4251 28.4086 35.454 28.3975C37.1141 27.7464 38.6783 26.8735 40.104 25.8025C42.467 24.0115 45 21.1265 45 16.9995V8.93945ZM35.2157 28.1146C35.167 27.9762 35.0979 27.7794 35 27.4995L35.2157 28.1146ZM35.009 26.4235L35 26.4275C33.6128 25.8558 32.3037 25.1105 31.104 24.2095C28.966 22.5875 27 20.2225 27 16.9995V10.3595L35 7.55945L43 10.3595V16.9995C43 20.2225 41.034 22.5895 38.896 24.2085C37.6989 25.1077 36.3929 25.852 35.009 26.4235Z" fill="white"/>
<path d="M41.072 13.3425L34.001 20.4135L29.758 16.1715L31.173 14.7565L34 17.5855L39.657 11.9285L41.072 13.3425Z" fill="#00BAF2"/>
<path fill-rule="evenodd" clip-rule="evenodd" d="M35 26.4275L35.009 26.4235C36.3929 25.852 37.6989 25.1077 38.896 24.2085C41.034 22.5895 43 20.2225 43 16.9995V10.3595L35 7.55945L27 10.3595V16.9995C27 20.2225 28.966 22.5875 31.104 24.2095C32.3037 25.1105 33.6128 25.8558 35 26.4275ZM34.001 20.4135L41.072 13.3425L39.657 11.9285L34 17.5855L31.173 14.7565L29.758 16.1715L34.001 20.4135Z" fill="#20336B"/>
</svg>
