<svg width="31" height="31" viewBox="0 0 31 31" fill="none" xmlns="http://www.w3.org/2000/svg">
<path fill-rule="evenodd" clip-rule="evenodd" d="M24.7583 6.34478C23.2939 4.88032 20.9195 4.88032 19.455 6.34478C17.9906 7.80925 17.9906 10.1836 19.455 11.6481C20.9195 13.1126 23.2939 13.1126 24.7583 11.6481C26.2228 10.1836 26.2228 7.80925 24.7583 6.34478ZM21.5763 8.46611C21.8692 8.17321 22.3441 8.17321 22.637 8.46611C22.9299 8.759 22.9299 9.23387 22.637 9.52676C22.3441 9.81966 21.8692 9.81966 21.5763 9.52676C21.2835 9.23387 21.2835 8.759 21.5763 8.46611Z" fill="white"/>
<path fill-rule="evenodd" clip-rule="evenodd" d="M30.0613 1.04137C29.8513 0.823206 29.5809 0.675501 29.2894 0.613817C27.8762 0.0833052 25.4892 -0.305268 21.8886 1.10288C19.3579 2.09264 16.2372 3.96506 12.4096 7.27894C11.9522 7.14218 11.4667 7.08688 10.9921 7.08787C10.1005 7.08973 9.10287 7.28798 8.06091 7.68318C5.97062 8.476 3.59653 10.0995 1.3334 12.8075C0.835388 13.4035 0.874575 14.2809 1.42372 14.8301C2.6669 16.0733 4.08665 16.2601 5.22633 16.16C5.75075 16.1139 6.2386 16.0057 6.59239 15.9273L6.6184 15.9215C6.83351 15.8738 6.9794 15.8434 7.08109 15.8248C7.11737 15.8301 7.15402 15.8341 7.19097 15.8367C10.5492 16.0766 12.3128 16.7038 13.3558 17.7469C14.3988 18.7899 15.0261 20.5534 15.2659 23.9117C15.2686 23.9492 15.2727 23.9864 15.2781 24.0233C15.2595 24.1249 15.2291 24.2705 15.1816 24.4847L15.1759 24.5107C15.0974 24.8645 14.9893 25.3524 14.9432 25.8768C14.843 27.0165 15.0299 28.4362 16.273 29.6794C16.8222 30.2286 17.6997 30.2677 18.2956 29.7697C21.0036 27.5066 22.6271 25.1325 23.42 23.0422C23.8152 22.0003 24.0134 21.0027 24.0153 20.111C24.0163 19.6362 23.9609 19.1504 23.824 18.6928C27.1377 14.8653 29.01 11.7447 29.9998 9.21403C31.4079 5.61348 31.0194 3.22643 30.4888 1.81324C30.4272 1.52172 30.2795 1.25135 30.0613 1.04137ZM8.68731 10.7485C8.57944 10.8558 8.47109 10.9641 8.36227 11.0735L6.56644 12.8693C6.3672 12.9038 6.18212 12.9451 6.03199 12.9786L5.96934 12.9925C5.64775 13.0638 5.37291 13.1232 5.10576 13.1564C6.44893 11.8775 7.73453 11.0703 8.82873 10.6071L8.68731 10.7485ZM10.4936 13.1848L10.452 13.2266C12.5171 13.6325 14.2028 14.3513 15.4771 15.6255C16.7514 16.8998 17.4701 18.5856 17.876 20.6506C23.498 15.0639 26.0892 10.9765 27.2059 8.12135C28.1535 5.69819 28.042 4.16085 27.8142 3.28846C26.9418 3.06067 25.4045 2.94913 22.9813 3.89681C20.1852 4.99035 16.2074 7.498 10.797 12.8815L10.4936 13.1848ZM20.4961 22.2744L18.2338 24.5367C18.1993 24.7359 18.158 24.921 18.1245 25.0711L18.1106 25.1338C18.0393 25.4554 17.9799 25.7302 17.9468 25.9974C19.2257 24.6542 20.0328 23.3686 20.4961 22.2744Z" fill="white"/>
<path fill-rule="evenodd" clip-rule="evenodd" d="M11.1999 17.7681C11.6132 17.8915 12.1322 18.1141 12.5606 18.5425C12.989 18.9709 13.2116 19.4899 13.335 19.9032C13.4621 20.3286 13.5174 20.755 13.5416 21.1059C13.5661 21.4628 13.5613 21.7837 13.5508 22.0134C13.5456 22.1297 13.5387 22.226 13.5329 22.296C13.53 22.3311 13.5273 22.3598 13.5252 22.3814L13.5224 22.4084L13.5214 22.4177L13.521 22.4213L13.5208 22.4228C13.5208 22.4231 13.5207 22.4242 12.0302 22.2548L13.5208 22.4228C13.4681 22.8867 13.2023 23.3009 12.802 23.5411C11.7357 24.1809 10.3795 24.6214 9.37552 24.8952C8.85708 25.0366 8.39861 25.1424 8.06875 25.2131C7.90341 25.2485 7.76931 25.2754 7.67489 25.2936C7.62765 25.3028 7.59026 25.3098 7.56377 25.3147L7.53232 25.3204L7.52295 25.3221L7.51833 25.3229C7.51813 25.323 7.51795 25.323 7.25727 23.8458C5.7864 23.5517 5.78643 23.5515 5.78646 23.5514L5.78732 23.5471L5.78928 23.5374L5.79626 23.5033C5.80225 23.4742 5.81093 23.4325 5.82215 23.3797C5.84459 23.2741 5.87729 23.1237 5.91921 22.9402C6.0028 22.5741 6.1243 22.0705 6.27559 21.5235C6.42602 20.9796 6.6109 20.3746 6.82323 19.8115C7.02657 19.2722 7.29114 18.6721 7.62766 18.201C7.87465 17.8552 8.25672 17.6304 8.67895 17.5825L8.84826 19.0729C8.67895 17.5825 8.67862 17.5825 8.67895 17.5825L8.68182 17.5821L8.68541 17.5817L8.69474 17.5807L8.7217 17.578C8.74327 17.5758 8.772 17.5731 8.80709 17.5702C8.87713 17.5644 8.97346 17.5575 9.08968 17.5523C9.31939 17.5419 9.64029 17.537 9.99716 17.5616C10.3481 17.5857 10.7745 17.641 11.1999 17.7681ZM9.75687 20.5523C9.71632 20.6482 9.674 20.754 9.63033 20.8699C9.52256 21.1557 9.41936 21.4672 9.32322 21.7838C9.7477 21.6488 10.1686 21.4962 10.5498 21.3287L10.5486 21.3121C10.5336 21.0935 10.5029 20.9037 10.4606 20.7619C10.449 20.723 10.4383 20.694 10.4298 20.6733C10.4091 20.6648 10.3801 20.6542 10.3412 20.6425C10.1994 20.6002 10.0096 20.5695 9.79096 20.5545L9.75687 20.5523Z" fill="white"/>
<path d="M7.25727 23.8458L7.51833 25.3229C7.03037 25.4091 6.53099 25.2487 6.18463 24.8944C5.83826 24.5401 5.68928 24.0372 5.78646 23.5514L7.25727 23.8458Z" fill="white"/>
</svg>
