<svg width="48" height="30" viewBox="0 0 48 30" fill="none" xmlns="http://www.w3.org/2000/svg">
<path fill-rule="evenodd" clip-rule="evenodd" d="M20.4272 16.3844C20.1986 16.3844 19.9795 16.4753 19.8179 16.637C19.6563 16.7987 19.5655 17.018 19.5655 17.2467V28.4571C19.5655 28.6858 19.6563 28.9052 19.8179 29.0669C19.9795 29.2286 20.1986 29.3195 20.4272 29.3195H23.8738C24.1023 29.3195 24.3215 29.2286 24.483 29.0669C24.6446 28.9052 24.7354 28.6858 24.7354 28.4571V17.2467C24.7354 17.018 24.6446 16.7987 24.483 16.637C24.3215 16.4753 24.1023 16.3844 23.8738 16.3844H20.4272ZM21.2888 27.5948H23.0121V18.1091H21.2888V27.5948Z" fill="white"/>
<path fill-rule="evenodd" clip-rule="evenodd" d="M35.9369 14.6597C35.7084 14.6597 35.4892 14.7506 35.3276 14.9123C35.166 15.074 35.0752 15.2934 35.0752 15.5221V28.4571C35.0752 28.6858 35.166 28.9052 35.3276 29.0669C35.4892 29.2286 35.7084 29.3195 35.9369 29.3195H39.3835C39.612 29.3195 39.8312 29.2286 39.9928 29.0669C40.1544 28.9052 40.2451 28.6858 40.2451 28.4571V15.5221C40.2451 15.2934 40.1544 15.074 39.9928 14.9123C39.8312 14.7506 39.612 14.6597 39.3835 14.6597H35.9369ZM36.7985 27.5948H38.5218V16.3844H36.7985V27.5948Z" fill="white"/>
<path fill-rule="evenodd" clip-rule="evenodd" d="M12.063 22.6733C12.2246 22.5116 12.4438 22.4208 12.6723 22.4208H16.1189C16.3474 22.4208 16.5666 22.5116 16.7282 22.6733C16.8898 22.8351 16.9806 23.0544 16.9806 23.2831V28.4571C16.9806 28.6858 16.8898 28.9052 16.7282 29.0669C16.5666 29.2286 16.3474 29.3195 16.1189 29.3195H12.6723C12.4438 29.3195 12.2246 29.2286 12.063 29.0669C11.9014 28.9052 11.8107 28.6858 11.8107 28.4571V23.2831C11.8107 23.0544 11.9014 22.8351 12.063 22.6733ZM13.534 27.5948H15.2573V24.1454H13.534V27.5948ZM27.5727 19.224C27.7343 19.0623 27.9535 18.9714 28.182 18.9714H31.6286C31.8572 18.9714 32.0763 19.0623 32.2379 19.224C32.3995 19.3857 32.4903 19.6051 32.4903 19.8338V28.4571C32.4903 28.6858 32.3995 28.9052 32.2379 29.0669C32.0763 29.2286 31.8572 29.3195 31.6286 29.3195H28.182C27.9535 29.3195 27.7343 29.2286 27.5727 29.0669C27.4112 28.9052 27.3204 28.6858 27.3204 28.4571V19.8338C27.3204 19.6051 27.4112 19.3857 27.5727 19.224ZM29.0437 27.5948H30.767V20.6961H29.0437V27.5948Z" fill="#24BAF2"/>
<path d="M12.6723 8.98038L18.0947 14.4071C18.2563 14.5687 18.4754 14.6596 18.7039 14.6596C18.9323 14.6596 19.1515 14.5687 19.313 14.4071L29.0437 4.66869L36.1893 11.8201C36.3509 11.9817 36.5701 12.0725 36.7985 12.0725C37.027 12.0725 37.2461 11.9817 37.4077 11.8201L46.2767 2.94402V5.17402H48V0.862337C48 0.633631 47.9092 0.414292 47.7476 0.252573C47.586 0.0908531 47.3669 0 47.1383 0H42.8301V1.72467H45.0583L36.7985 9.99104L29.6529 2.83968C29.4913 2.67801 29.2722 2.5872 29.0437 2.5872C28.8152 2.5872 28.5961 2.67801 28.4345 2.83968L18.7039 12.5781L13.2815 7.15136C13.1199 6.9897 12.9008 6.89888 12.6723 6.89888C12.4438 6.89888 12.2247 6.9897 12.0631 7.15136L0 19.2241L1.21837 20.4434L12.6723 8.98038Z" fill="white"/>
</svg>
