<svg width="37" height="22" viewBox="0 0 37 22" fill="none" xmlns="http://www.w3.org/2000/svg">
<rect x="20.877" y="9.93173" width="4.71542" height="6.89966" rx="0.55" transform="rotate(-45.6192 20.877 9.93173)" stroke="#C8D0DB" stroke-width="0.5"/>
<path d="M30.0006 18C29.9648 19.009 31.6074 19.3955 33.8405 20.16" stroke="#C8D0DB" stroke-width="0.5" stroke-linecap="round"/>
<path d="M27.3725 16.7988C27.1325 18.2388 30.2525 18.9588 30.4925 17.0388" stroke="#C8D0DB" stroke-width="0.5" stroke-linecap="round"/>
<path d="M30.2476 16.5584C27.8476 17.5184 27.3676 16.5584 27.3676 16.5584C27.3676 16.5584 25.9276 15.1184 26.1676 14.3984" stroke="#C8D0DB" stroke-width="0.5" stroke-linecap="round"/>
<path d="M31.4456 13.6793C31.4456 13.6793 26.4057 11.0393 25.9257 10.7993C25.4457 10.5593 25.2057 11.5193 25.4457 12.2393C25.6857 12.9593 27.6057 14.2793 28.5657 14.2793C29.5257 14.2793 30.9656 17.7592 30.9656 17.7592" stroke="#C8D0DB" stroke-width="0.5" stroke-linecap="round"/>
<path d="M29.0469 10.7983C31.6868 10.5583 32.4068 11.5183 36.0068 17.7582" stroke="#C8D0DB" stroke-width="0.5" stroke-linecap="round"/>
<path d="M29.0503 10.7988H28.5703" stroke="#C8D0DB" stroke-width="0.5" stroke-linecap="round"/>
<path d="M26.6406 13.9199C27.6006 14.8799 27.3606 15.8399 29.7606 15.5999" stroke="#C8D0DB" stroke-width="0.5" stroke-linecap="round"/>
<path fill-rule="evenodd" clip-rule="evenodd" d="M25.9376 17.6148C26.4005 17.2965 26.831 16.9588 27.2265 16.604L27.5635 16.9731C24.7565 19.4939 20.3343 21.1197 15.3598 21.1197C6.87682 21.1197 0 16.3919 0 10.5599C0 4.72781 6.87682 0 15.3598 0C23.8428 0 30.7196 4.72781 30.7196 10.5599C30.7196 10.6033 30.7192 10.6466 30.7185 10.6899L30.2195 10.5969C30.2196 10.5846 30.2196 10.5722 30.2196 10.5599C30.2196 7.85589 28.6259 5.35314 25.9376 3.50493C23.2515 1.65825 19.5132 0.5 15.3598 0.5C11.2064 0.5 7.46813 1.65825 4.78205 3.50493C2.09374 5.35314 0.5 7.85589 0.5 10.5599C0.5 13.2638 2.09374 15.7666 4.78205 17.6148C7.46813 19.4615 11.2064 20.6197 15.3598 20.6197C19.5132 20.6197 23.2515 19.4615 25.9376 17.6148Z" fill="#C8D0DB"/>
<path d="M17.2509 18.6533C16.9984 18.5789 16.7395 18.2779 16.6845 17.9898C16.6489 17.8021 16.6909 17.6726 16.9596 17.1515C18.0472 15.0476 18.5197 13.112 18.5197 10.7653C18.5197 8.4963 18.1022 6.72901 17.0632 4.61215C16.8398 4.159 16.6586 3.73498 16.6586 3.67348C16.6586 3.44691 16.8463 3.11999 17.0502 2.99376C17.3286 2.81897 17.7979 2.85134 18.0245 3.06173C18.1119 3.14265 18.3352 3.51164 18.523 3.88064C19.2674 5.34043 19.7756 6.94264 20.0281 8.60959C20.1834 9.64212 20.2158 11.5971 20.0896 12.5423C19.8598 14.2837 19.4001 15.8406 18.6621 17.3619C18.2155 18.2811 17.9371 18.6598 17.7041 18.6598C17.6587 18.6598 17.5811 18.6728 17.5357 18.6857C17.4904 18.6987 17.361 18.6857 17.2509 18.6533ZM14.2245 17.0706C13.8361 16.9573 13.5545 16.4782 13.6678 16.1222C13.6937 16.0348 13.8782 15.6367 14.0756 15.2353C14.9075 13.536 15.2538 11.7169 15.0855 9.9302C14.9463 8.4607 14.6841 7.53497 14.0206 6.182C13.5771 5.27246 13.5545 5.13328 13.8134 4.76428C14.0594 4.41471 14.6744 4.35968 14.9949 4.65423C15.2182 4.85815 15.9141 6.31147 16.1828 7.13361C17.0696 9.85252 16.9337 12.7753 15.7976 15.4457C15.2117 16.8149 14.8007 17.2389 14.2245 17.0706ZM11.1042 15.4651C10.8647 15.3583 10.6576 15.1026 10.5993 14.8469C10.5637 14.6915 10.6252 14.5167 10.91 13.9406C11.9588 11.8172 11.9685 9.77483 10.9456 7.70005C10.4957 6.79051 10.486 6.60925 10.8647 6.24997C11.0525 6.07195 11.1334 6.04281 11.3956 6.04281C11.839 6.04281 12.0688 6.26615 12.4637 7.07859C13.0722 8.32799 13.3214 9.41231 13.3182 10.8009C13.315 12.2283 13.0819 13.2091 12.4346 14.5264C12.0623 15.2806 11.8778 15.4813 11.5056 15.5298C11.3923 15.5396 11.2111 15.5137 11.1042 15.4651ZM8.19113 13.9697C8.00016 13.892 7.7833 13.6331 7.71856 13.4065C7.64735 13.154 7.70561 12.9534 7.99045 12.484C8.35945 11.8787 8.4436 11.5551 8.4436 10.7653C8.4436 9.97551 8.35945 9.6486 7.99045 9.04656C7.86422 8.84264 7.74122 8.59664 7.71209 8.49954C7.59233 8.10141 7.92572 7.61266 8.37239 7.5285C8.7511 7.45729 9.01004 7.6256 9.35961 8.16938C10.3663 9.74246 10.3663 11.8399 9.35961 13.4C9.00357 13.9471 8.60868 14.1413 8.19113 13.9697Z" fill="#C8D0DB"/>
</svg>
