<svg width="554" height="578" viewBox="0 0 554 578" fill="none" xmlns="http://www.w3.org/2000/svg">
<rect x="315.5" y="60.5" width="289" height="169" rx="11.5" stroke="#A6AFCB"/>
<path d="M335.234 124.581H346.953M335.234 124.581V134.467M335.234 124.581C334.642 121.404 334.808 115.048 340.206 115.048C345.604 115.048 347.19 115.048 347.308 115.048M346.953 124.581C346.953 125.405 347.095 127.265 347.664 128.112C348.374 129.171 347.664 134.114 346.953 134.467M346.953 124.581C348.424 123.667 348.487 121.029 348.124 118.579M346.953 134.467C346.385 134.75 338.903 134.585 335.234 134.467M346.953 134.467C347.054 134.752 347.159 135.078 347.262 135.435M335.234 134.467C334.879 137.645 334.807 144 337.365 144C339.922 144 344.823 144 346.953 144M346.953 144H363.29M346.953 144C348.702 142.262 348.017 138.032 347.262 135.435M363.29 144C362.698 143.294 361.514 141.599 361.514 140.469C361.514 139.303 363.211 136.449 363.601 135.094M363.29 144H372.169C375.486 143.657 375.223 138.351 374.655 134.114M363.645 134.467L374.655 134.114M363.645 134.467C363.292 133.764 360.475 126.416 363.601 124.258M363.645 134.467C363.707 134.59 363.683 134.809 363.601 135.094M374.655 124.228H363.645C363.63 124.238 363.615 124.248 363.601 124.258M374.655 124.228V134.114M374.655 124.228L363.601 124.258M374.655 124.228C375.223 113.777 368.739 115.049 364.71 115.048M347.308 115.048C347.601 115.962 347.926 117.243 348.124 118.579M347.308 115.048H364.71M348.124 118.579C351.877 117.991 360.022 117.308 362.579 119.285M362.579 119.285C363.053 117.873 364.142 115.048 364.71 115.048M362.579 119.285C362.983 120.748 363.752 123.79 363.601 124.258M347.262 135.435C352.061 135.648 362.047 135.878 363.601 135.094" stroke="#A6AFCB"/>
<path d="M342.44 210H341.208L337.704 200.544V210H336.264V198.512H338.36L341.848 207.952L345.352 198.512H347.384V210H345.96V200.544L342.44 210ZM351.952 210.144C350.432 210.144 349.2 209.248 349.2 207.744C349.2 206.08 350.496 205.392 352.368 205.008L354.4 204.592V204.24C354.4 203.28 353.872 202.736 352.752 202.736C351.696 202.736 351.072 203.232 350.816 204.16L349.456 203.808C349.856 202.448 351.088 201.472 352.8 201.472C354.672 201.472 355.824 202.384 355.824 204.176V208.256C355.824 208.8 356.16 208.976 356.72 208.848V210C355.44 210.16 354.704 209.856 354.528 209.056C354.016 209.712 353.088 210.144 351.952 210.144ZM354.4 207.152V205.712L352.768 206.064C351.488 206.32 350.624 206.672 350.624 207.68C350.624 208.496 351.216 208.976 352.128 208.976C353.36 208.976 354.4 208.224 354.4 207.152ZM361.288 210.912C360.808 212.176 360.152 212.976 358.696 212.976C358.344 212.976 358.168 212.96 357.912 212.912V211.664C358.184 211.728 358.36 211.744 358.6 211.744C359.224 211.744 359.56 211.52 359.896 210.688L360.296 209.696L357.192 201.632H358.712L361.064 208.032L363.384 201.632H364.888L361.288 210.912ZM373.181 205.824C373.181 208.416 371.581 210.176 369.293 210.176C367.005 210.176 365.405 208.416 365.405 205.824C365.405 203.232 367.005 201.472 369.293 201.472C371.581 201.472 373.181 203.232 373.181 205.824ZM366.861 205.824C366.861 207.728 367.821 208.944 369.293 208.944C370.765 208.944 371.725 207.728 371.725 205.824C371.725 203.904 370.765 202.688 369.293 202.688C367.821 202.688 366.861 203.904 366.861 205.824ZM378.84 201.632H380.056L381.784 207.872L383.528 201.632H384.968L382.424 210H381.16L379.416 203.792L377.672 210H376.408L373.864 201.632H375.352L377.112 207.856L378.84 201.632ZM388.296 210.144C386.776 210.144 385.544 209.248 385.544 207.744C385.544 206.08 386.84 205.392 388.712 205.008L390.744 204.592V204.24C390.744 203.28 390.216 202.736 389.096 202.736C388.04 202.736 387.416 203.232 387.16 204.16L385.8 203.808C386.2 202.448 387.432 201.472 389.144 201.472C391.016 201.472 392.168 202.384 392.168 204.176V208.256C392.168 208.8 392.504 208.976 393.064 208.848V210C391.784 210.16 391.048 209.856 390.872 209.056C390.36 209.712 389.432 210.144 388.296 210.144ZM390.744 207.152V205.712L389.112 206.064C387.832 206.32 386.968 206.672 386.968 207.68C386.968 208.496 387.56 208.976 388.472 208.976C389.704 208.976 390.744 208.224 390.744 207.152ZM399.581 210H398.061V198.512H405.485V199.856H399.581V203.552H404.573V204.896H399.581V210ZM408.546 210.144C407.026 210.144 405.794 209.248 405.794 207.744C405.794 206.08 407.09 205.392 408.962 205.008L410.994 204.592V204.24C410.994 203.28 410.466 202.736 409.346 202.736C408.29 202.736 407.666 203.232 407.41 204.16L406.05 203.808C406.45 202.448 407.682 201.472 409.394 201.472C411.266 201.472 412.418 202.384 412.418 204.176V208.256C412.418 208.8 412.754 208.976 413.314 208.848V210C412.034 210.16 411.298 209.856 411.122 209.056C410.61 209.712 409.682 210.144 408.546 210.144ZM410.994 207.152V205.712L409.362 206.064C408.082 206.32 407.218 206.672 407.218 207.68C407.218 208.496 407.81 208.976 408.722 208.976C409.954 208.976 410.994 208.224 410.994 207.152ZM417.882 210.912C417.402 212.176 416.746 212.976 415.29 212.976C414.938 212.976 414.762 212.96 414.506 212.912V211.664C414.778 211.728 414.954 211.744 415.194 211.744C415.818 211.744 416.154 211.52 416.49 210.688L416.89 209.696L413.786 201.632H415.306L417.658 208.032L419.978 201.632H421.482L417.882 210.912ZM425.919 210.176C423.599 210.176 421.999 208.4 421.999 205.824C421.999 203.328 423.583 201.472 425.855 201.472C428.191 201.472 429.423 203.248 429.423 205.568V206.048H423.375C423.455 207.808 424.463 208.928 425.919 208.928C427.039 208.928 427.839 208.32 428.095 207.328L429.359 207.776C428.847 209.264 427.583 210.176 425.919 210.176ZM425.839 202.704C424.623 202.704 423.711 203.52 423.455 204.944H427.967C427.935 203.76 427.295 202.704 425.839 202.704ZM437.856 201.632V210H436.416V208.848C435.936 209.552 435.12 210.176 433.936 210.176C432.144 210.176 431.136 208.944 431.136 207.168V201.632H432.576V206.864C432.576 208.048 433.088 208.848 434.32 208.848C435.36 208.848 436.416 208.064 436.416 206.672V201.632H437.856ZM440.247 210V201.632H441.687V202.768C442.167 202.08 442.999 201.472 444.183 201.472C445.959 201.472 446.967 202.704 446.967 204.48V210H445.527V204.864C445.527 203.696 445.031 202.816 443.783 202.816C442.743 202.816 441.687 203.616 441.687 205.008V210H440.247Z" fill="#A6AFCB"/>
<rect x="0.5" y="0.5" width="282" height="577" rx="23.5" stroke="#A6AFCB"/>
<g clip-path="url(#clip0_1955_24917)">
<rect x="98.5" y="33.5" width="74" height="7" rx="3.5" stroke="#A6AFCB"/>
<rect x="177.5" y="33.5" width="7" height="7" rx="3.5" stroke="#A6AFCB"/>
<circle cx="141.5" cy="154.5" r="64" stroke="#A6AFCB"/>
<rect x="146.463" y="153.047" width="7.40226" height="10.7117" rx="0.55" transform="rotate(-45.6192 146.463 153.047)" stroke="#A6AFCB" stroke-width="0.5"/>
<path d="M160.462 165.271C160.408 166.8 162.896 167.386 166.28 168.544" stroke="#A6AFCB" stroke-width="0.5" stroke-linecap="round"/>
<path d="M156.457 163.457C156.094 165.639 160.821 166.73 161.185 163.821" stroke="#A6AFCB" stroke-width="0.5" stroke-linecap="round"/>
<path d="M160.816 163.095C157.18 164.55 156.453 163.095 156.453 163.095C156.453 163.095 154.271 160.913 154.635 159.822" stroke="#A6AFCB" stroke-width="0.5" stroke-linecap="round"/>
<path d="M162.64 158.729C162.64 158.729 155.003 154.729 154.276 154.366C153.549 154.002 153.185 155.456 153.549 156.547C153.913 157.638 156.822 159.638 158.276 159.638C159.731 159.638 161.913 164.911 161.913 164.911" stroke="#A6AFCB" stroke-width="0.5" stroke-linecap="round"/>
<path d="M159 154.366C163 154.002 164.091 155.457 169.545 164.911" stroke="#A6AFCB" stroke-width="0.5" stroke-linecap="round"/>
<path d="M158.993 154.367H158.266" stroke="#A6AFCB" stroke-width="0.5" stroke-linecap="round"/>
<path d="M155.359 159.094C156.814 160.548 156.45 162.003 160.087 161.639" stroke="#A6AFCB" stroke-width="0.5" stroke-linecap="round"/>
<path fill-rule="evenodd" clip-rule="evenodd" d="M154.446 164.902C155.157 164.413 155.819 163.894 156.428 163.347L156.765 163.716C152.511 167.536 145.811 170 138.273 170C125.42 170 115 162.837 115 154C115 145.163 125.42 138 138.273 138C151.126 138 161.545 145.163 161.545 154C161.545 154.065 161.545 154.13 161.544 154.196L161.045 154.103C161.045 154.068 161.045 154.034 161.045 154C161.045 149.794 158.566 145.931 154.446 143.098C150.328 140.267 144.611 138.5 138.273 138.5C131.934 138.5 126.218 140.267 122.1 143.098C117.979 145.931 115.5 149.794 115.5 154C115.5 158.206 117.979 162.069 122.1 164.902C126.218 167.733 131.934 169.5 138.273 169.5C144.611 169.5 150.328 167.733 154.446 164.902Z" fill="#A6AFCB"/>
<path d="M138.49 164.349C138.108 164.249 137.715 163.841 137.632 163.451C137.578 163.197 137.642 163.022 138.049 162.316C139.697 159.469 140.413 156.849 140.413 153.672C140.413 150.601 139.78 148.209 138.206 145.343C137.867 144.73 137.593 144.156 137.593 144.073C137.593 143.766 137.877 143.324 138.186 143.153C138.608 142.916 139.319 142.96 139.662 143.245C139.795 143.354 140.133 143.854 140.418 144.353C141.546 146.329 142.316 148.498 142.698 150.754C142.933 152.152 142.983 154.798 142.791 156.078C142.443 158.435 141.747 160.542 140.628 162.601C139.952 163.846 139.53 164.358 139.177 164.358C139.108 164.358 138.99 164.376 138.922 164.393C138.853 164.411 138.657 164.393 138.49 164.349ZM133.905 162.207C133.316 162.054 132.889 161.405 133.061 160.923C133.1 160.805 133.38 160.266 133.679 159.723C134.939 157.423 135.464 154.96 135.209 152.542C134.998 150.553 134.601 149.3 133.596 147.468C132.924 146.237 132.889 146.049 133.282 145.549C133.655 145.076 134.586 145.002 135.072 145.4C135.41 145.676 136.465 147.644 136.872 148.756C138.216 152.437 138.01 156.393 136.288 160.008C135.4 161.861 134.778 162.435 133.905 162.207ZM129.177 160.034C128.814 159.889 128.5 159.543 128.412 159.197C128.358 158.987 128.451 158.75 128.883 157.97C130.472 155.096 130.486 152.332 128.937 149.523C128.255 148.292 128.24 148.047 128.814 147.56C129.098 147.319 129.221 147.28 129.618 147.28C130.29 147.28 130.638 147.582 131.237 148.682C132.159 150.373 132.536 151.841 132.531 153.72C132.527 155.653 132.173 156.98 131.193 158.763C130.629 159.784 130.349 160.056 129.785 160.121C129.613 160.135 129.339 160.1 129.177 160.034ZM124.763 158.01C124.474 157.905 124.145 157.554 124.047 157.247C123.939 156.906 124.027 156.634 124.459 155.999C125.018 155.179 125.146 154.741 125.146 153.672C125.146 152.603 125.018 152.161 124.459 151.346C124.268 151.07 124.081 150.737 124.037 150.605C123.856 150.066 124.361 149.405 125.038 149.291C125.612 149.195 126.004 149.422 126.534 150.158C128.059 152.288 128.059 155.127 126.534 157.239C125.994 157.979 125.396 158.242 124.763 158.01Z" fill="#A6AFCB"/>
<path d="M85.152 251V239.576H86.24V244.536H93.024V239.576H94.112V251H93.024V245.464H86.24V251H85.152ZM99.7136 242.504C100.93 242.504 101.895 242.936 102.61 243.8C103.282 244.611 103.618 245.635 103.618 246.872C103.618 248.109 103.282 249.133 102.61 249.944C101.895 250.808 100.93 251.24 99.7136 251.24C98.4976 251.24 97.5323 250.808 96.8176 249.944C96.1456 249.133 95.8096 248.109 95.8096 246.872C95.8096 245.635 96.1456 244.611 96.8176 243.8C97.5323 242.936 98.4976 242.504 99.7136 242.504ZM99.7136 243.352C98.7963 243.352 98.071 243.72 97.5376 244.456C97.0576 245.117 96.8176 245.923 96.8176 246.872C96.8176 247.821 97.0576 248.627 97.5376 249.288C98.071 250.024 98.7963 250.392 99.7136 250.392C100.631 250.392 101.356 250.024 101.89 249.288C102.37 248.627 102.61 247.821 102.61 246.872C102.61 245.923 102.37 245.117 101.89 244.456C101.356 243.72 100.631 243.352 99.7136 243.352ZM105.132 251V239.576H106.14V251H105.132ZM108.725 246.872C108.725 247.832 108.939 248.632 109.365 249.272C109.845 250.019 110.533 250.392 111.429 250.392C112.421 250.392 113.173 250.019 113.685 249.272C114.112 248.643 114.325 247.843 114.325 246.872C114.325 245.901 114.112 245.101 113.685 244.472C113.173 243.725 112.421 243.352 111.429 243.352C110.533 243.352 109.845 243.725 109.365 244.472C108.939 245.112 108.725 245.912 108.725 246.872ZM115.333 239.576V251H114.405V249.432H114.373C114.16 249.955 113.771 250.387 113.205 250.728C112.64 251.069 112.048 251.24 111.429 251.24C110.235 251.24 109.301 250.803 108.629 249.928C108.021 249.139 107.717 248.12 107.717 246.872C107.717 245.624 108.021 244.605 108.629 243.816C109.301 242.941 110.235 242.504 111.429 242.504C112.069 242.504 112.651 242.664 113.173 242.984C113.707 243.293 114.08 243.736 114.293 244.312H114.325V239.576H115.333ZM121.694 251V239.576H122.702V244.168H122.734C122.915 243.677 123.251 243.277 123.742 242.968C124.243 242.659 124.787 242.504 125.374 242.504C126.483 242.504 127.278 242.787 127.758 243.352C128.185 243.864 128.398 244.643 128.398 245.688V251H127.39V245.848C127.39 244.184 126.691 243.352 125.294 243.352C124.505 243.352 123.875 243.619 123.406 244.152C122.937 244.685 122.702 245.363 122.702 246.184V251H121.694ZM137.248 247.144H130.896C130.906 247.997 131.12 248.723 131.536 249.32C132.037 250.035 132.73 250.392 133.616 250.392C134.981 250.392 135.845 249.688 136.208 248.28H137.216C136.757 250.253 135.557 251.24 133.616 251.24C132.378 251.24 131.429 250.808 130.768 249.944C130.181 249.165 129.888 248.141 129.888 246.872C129.888 245.667 130.181 244.664 130.768 243.864C131.44 242.957 132.389 242.504 133.616 242.504C134.864 242.504 135.813 242.989 136.464 243.96C137.029 244.803 137.29 245.864 137.248 247.144ZM130.896 246.296H136.24C136.218 245.485 135.978 244.803 135.52 244.248C135.029 243.651 134.394 243.352 133.616 243.352C132.837 243.352 132.197 243.656 131.696 244.264C131.248 244.797 130.981 245.475 130.896 246.296ZM138.601 251V242.744H139.529V244.68H139.561C139.817 244.008 140.217 243.491 140.761 243.128C141.305 242.765 141.945 242.6 142.681 242.632V243.64C141.785 243.597 141.049 243.864 140.473 244.44C139.897 245.005 139.609 245.725 139.609 246.6V251H138.601ZM150.592 247.144H144.24C144.25 247.997 144.464 248.723 144.88 249.32C145.381 250.035 146.074 250.392 146.96 250.392C148.325 250.392 149.189 249.688 149.552 248.28H150.56C150.101 250.253 148.901 251.24 146.96 251.24C145.722 251.24 144.773 250.808 144.112 249.944C143.525 249.165 143.232 248.141 143.232 246.872C143.232 245.667 143.525 244.664 144.112 243.864C144.784 242.957 145.733 242.504 146.96 242.504C148.208 242.504 149.157 242.989 149.808 243.96C150.373 244.803 150.634 245.864 150.592 247.144ZM144.24 246.296H149.584C149.562 245.485 149.322 244.803 148.864 244.248C148.373 243.651 147.738 243.352 146.96 243.352C146.181 243.352 145.541 243.656 145.039 244.264C144.592 244.797 144.325 245.475 144.24 246.296ZM157.998 240.264V242.744H159.678V243.592H157.998V249.16C157.998 249.523 158.04 249.773 158.126 249.912C158.243 250.115 158.472 250.227 158.814 250.248C159.016 250.259 159.304 250.243 159.678 250.2V251.064C159.582 251.064 159.432 251.069 159.23 251.08C159.038 251.091 158.888 251.096 158.782 251.096C158.11 251.096 157.64 250.963 157.374 250.696C157.118 250.429 156.99 249.944 156.99 249.24V243.592H155.55V242.744H156.99V240.264H157.998ZM164.62 242.504C165.836 242.504 166.801 242.936 167.516 243.8C168.188 244.611 168.524 245.635 168.524 246.872C168.524 248.109 168.188 249.133 167.516 249.944C166.801 250.808 165.836 251.24 164.62 251.24C163.404 251.24 162.439 250.808 161.724 249.944C161.052 249.133 160.716 248.109 160.716 246.872C160.716 245.635 161.052 244.611 161.724 243.8C162.439 242.936 163.404 242.504 164.62 242.504ZM164.62 243.352C163.703 243.352 162.977 243.72 162.444 244.456C161.964 245.117 161.724 245.923 161.724 246.872C161.724 247.821 161.964 248.627 162.444 249.288C162.977 250.024 163.703 250.392 164.62 250.392C165.537 250.392 166.263 250.024 166.796 249.288C167.276 248.627 167.516 247.821 167.516 246.872C167.516 245.923 167.276 245.117 166.796 244.456C166.263 243.72 165.537 243.352 164.62 243.352ZM181.084 246.872C181.084 245.912 180.876 245.112 180.46 244.472C179.969 243.725 179.276 243.352 178.38 243.352C176.449 243.352 175.484 244.525 175.484 246.872C175.484 247.843 175.697 248.643 176.124 249.272C176.636 250.019 177.388 250.392 178.38 250.392C179.276 250.392 179.969 250.019 180.46 249.272C180.876 248.632 181.084 247.832 181.084 246.872ZM174.476 254.056V242.744H175.404V244.312H175.436C175.67 243.757 176.049 243.32 176.572 243C177.105 242.669 177.708 242.504 178.38 242.504C179.574 242.504 180.508 242.941 181.18 243.816C181.788 244.605 182.092 245.624 182.092 246.872C182.092 248.12 181.788 249.139 181.18 249.928C180.508 250.803 179.574 251.24 178.38 251.24C177.74 251.24 177.164 251.085 176.652 250.776C176.108 250.456 175.729 250.008 175.516 249.432H175.484V254.056H174.476ZM188.943 247.8V246.488H188.911C188.826 246.648 188.543 246.771 188.063 246.856C187.476 246.941 186.89 247.032 186.303 247.128C185.642 247.245 185.151 247.405 184.831 247.608C184.426 247.885 184.223 248.269 184.223 248.76C184.223 249.24 184.404 249.635 184.767 249.944C185.14 250.243 185.572 250.392 186.063 250.392C186.863 250.392 187.54 250.157 188.095 249.688C188.66 249.208 188.943 248.579 188.943 247.8ZM184.575 245.272H183.567C183.61 244.344 183.946 243.64 184.575 243.16C185.14 242.723 185.919 242.504 186.911 242.504C188.938 242.504 189.951 243.389 189.951 245.16V249.544C189.951 249.949 190.148 250.152 190.543 250.152C190.65 250.152 190.756 250.131 190.863 250.088V250.936C190.66 250.979 190.442 251 190.207 251C189.727 251 189.402 250.867 189.231 250.6C189.092 250.387 189.023 250.04 189.023 249.56H188.991C188.607 250.147 188.218 250.563 187.823 250.808C187.343 251.096 186.73 251.24 185.983 251.24C185.172 251.24 184.522 251.043 184.031 250.648C183.487 250.221 183.215 249.613 183.215 248.824C183.215 247.8 183.679 247.101 184.607 246.728C185.066 246.536 186.079 246.349 187.647 246.168C188.127 246.115 188.447 246.029 188.607 245.912C188.831 245.752 188.943 245.464 188.943 245.048C188.943 243.917 188.223 243.352 186.783 243.352C185.343 243.352 184.607 243.992 184.575 245.272ZM194.328 250.968L191.032 242.744H192.104L194.824 249.784L197.368 242.744H198.376L194.792 252.264C194.525 252.989 194.253 253.464 193.976 253.688C193.688 253.944 193.235 254.067 192.616 254.056C192.232 254.056 191.976 254.029 191.848 253.976V253.128C192.115 253.181 192.344 253.208 192.536 253.208C192.941 253.208 193.256 253.091 193.48 252.856C193.64 252.685 193.805 252.371 193.976 251.912L194.328 250.968Z" fill="#A6AFCB"/>
<path d="M117.42 452.504V451.576H126.476V452.504H122.492V463H121.404V452.504H117.42ZM130.839 454.504C132.055 454.504 133.02 454.936 133.735 455.8C134.407 456.611 134.743 457.635 134.743 458.872C134.743 460.109 134.407 461.133 133.735 461.944C133.02 462.808 132.055 463.24 130.839 463.24C129.623 463.24 128.657 462.808 127.943 461.944C127.271 461.133 126.935 460.109 126.935 458.872C126.935 457.635 127.271 456.611 127.943 455.8C128.657 454.936 129.623 454.504 130.839 454.504ZM130.839 455.352C129.921 455.352 129.196 455.72 128.663 456.456C128.183 457.117 127.943 457.923 127.943 458.872C127.943 459.821 128.183 460.627 128.663 461.288C129.196 462.024 129.921 462.392 130.839 462.392C131.756 462.392 132.481 462.024 133.015 461.288C133.495 460.627 133.735 459.821 133.735 458.872C133.735 457.923 133.495 457.117 133.015 456.456C132.481 455.72 131.756 455.352 130.839 455.352ZM147.302 458.872C147.302 457.912 147.094 457.112 146.678 456.472C146.188 455.725 145.494 455.352 144.598 455.352C142.668 455.352 141.702 456.525 141.702 458.872C141.702 459.843 141.916 460.643 142.342 461.272C142.854 462.019 143.606 462.392 144.598 462.392C145.494 462.392 146.188 462.019 146.678 461.272C147.094 460.632 147.302 459.832 147.302 458.872ZM140.694 466.056V454.744H141.622V456.312H141.654C141.889 455.757 142.268 455.32 142.79 455C143.324 454.669 143.926 454.504 144.598 454.504C145.793 454.504 146.726 454.941 147.398 455.816C148.006 456.605 148.31 457.624 148.31 458.872C148.31 460.12 148.006 461.139 147.398 461.928C146.726 462.803 145.793 463.24 144.598 463.24C143.958 463.24 143.382 463.085 142.87 462.776C142.326 462.456 141.948 462.008 141.734 461.432H141.702V466.056H140.694ZM155.162 459.8V458.488H155.13C155.045 458.648 154.762 458.771 154.282 458.856C153.695 458.941 153.109 459.032 152.522 459.128C151.861 459.245 151.37 459.405 151.05 459.608C150.645 459.885 150.442 460.269 150.442 460.76C150.442 461.24 150.623 461.635 150.986 461.944C151.359 462.243 151.791 462.392 152.282 462.392C153.082 462.392 153.759 462.157 154.314 461.688C154.879 461.208 155.162 460.579 155.162 459.8ZM150.794 457.272H149.786C149.829 456.344 150.165 455.64 150.794 455.16C151.359 454.723 152.138 454.504 153.13 454.504C155.157 454.504 156.17 455.389 156.17 457.16V461.544C156.17 461.949 156.367 462.152 156.762 462.152C156.869 462.152 156.975 462.131 157.082 462.088V462.936C156.879 462.979 156.661 463 156.426 463C155.946 463 155.621 462.867 155.45 462.6C155.311 462.387 155.242 462.04 155.242 461.56H155.21C154.826 462.147 154.437 462.563 154.042 462.808C153.562 463.096 152.949 463.24 152.202 463.24C151.391 463.24 150.741 463.043 150.25 462.648C149.706 462.221 149.434 461.613 149.434 460.824C149.434 459.8 149.898 459.101 150.826 458.728C151.285 458.536 152.298 458.349 153.866 458.168C154.346 458.115 154.666 458.029 154.826 457.912C155.05 457.752 155.162 457.464 155.162 457.048C155.162 455.917 154.442 455.352 153.002 455.352C151.562 455.352 150.826 455.992 150.794 457.272ZM160.547 462.968L157.251 454.744H158.323L161.043 461.784L163.587 454.744H164.595L161.011 464.264C160.744 464.989 160.472 465.464 160.195 465.688C159.907 465.944 159.453 466.067 158.835 466.056C158.451 466.056 158.195 466.029 158.067 465.976V465.128C158.333 465.181 158.563 465.208 158.755 465.208C159.16 465.208 159.475 465.091 159.699 464.856C159.859 464.685 160.024 464.371 160.195 463.912L160.547 462.968Z" fill="#A6AFCB"/>
<path d="M90.704 505V487.864H93.872L101.696 500.488H101.744V487.864H104.6V505H101.432L93.632 492.4H93.56V505H90.704ZM107.592 493.144V490.984C108.84 491 109.896 490.792 110.76 490.36C111.72 489.864 112.296 489.144 112.488 488.2H114.72V505H111.72V493.144H107.592ZM120.808 497.392L122.608 488.2H131.296V490.648H124.648L123.784 494.92L123.832 494.968C124.6 494.12 125.632 493.696 126.928 493.696C128.56 493.696 129.856 494.232 130.816 495.304C131.728 496.328 132.184 497.664 132.184 499.312C132.184 500.864 131.736 502.2 130.84 503.32C129.768 504.664 128.28 505.336 126.376 505.336C124.696 505.336 123.328 504.904 122.272 504.04C121.152 503.128 120.56 501.856 120.496 500.224H123.232C123.312 501.12 123.624 501.816 124.168 502.312C124.712 502.808 125.432 503.056 126.328 503.056C128.408 503.056 129.448 501.824 129.448 499.36C129.448 498.368 129.192 497.552 128.68 496.912C128.104 496.208 127.296 495.856 126.256 495.856C124.832 495.856 123.928 496.368 123.544 497.392H120.808ZM139.664 503.056C141.712 503.056 142.736 500.904 142.736 496.6C142.736 492.296 141.712 490.144 139.664 490.144C137.616 490.144 136.592 492.296 136.592 496.6C136.592 500.904 137.616 503.056 139.664 503.056ZM139.664 487.864C141.84 487.864 143.408 488.84 144.368 490.792C145.104 492.264 145.472 494.2 145.472 496.6C145.472 499 145.104 500.936 144.368 502.408C143.408 504.36 141.84 505.336 139.664 505.336C137.488 505.336 135.92 504.36 134.96 502.408C134.224 500.936 133.856 499 133.856 496.6C133.856 494.2 134.224 492.264 134.96 490.792C135.92 488.84 137.488 487.864 139.664 487.864ZM147.984 505V501.76H151.32V505C151.32 505.976 151.016 506.8 150.408 507.472C149.816 508.16 149.04 508.6 148.08 508.792V507.328C148.592 507.2 148.984 506.912 149.256 506.464C149.528 506.032 149.656 505.544 149.64 505H147.984ZM159.68 503.056C161.728 503.056 162.752 500.904 162.752 496.6C162.752 492.296 161.728 490.144 159.68 490.144C157.632 490.144 156.608 492.296 156.608 496.6C156.608 500.904 157.632 503.056 159.68 503.056ZM159.68 487.864C161.856 487.864 163.424 488.84 164.384 490.792C165.12 492.264 165.488 494.2 165.488 496.6C165.488 499 165.12 500.936 164.384 502.408C163.424 504.36 161.856 505.336 159.68 505.336C157.504 505.336 155.936 504.36 154.976 502.408C154.24 500.936 153.872 499 153.872 496.6C153.872 494.2 154.24 492.264 154.976 490.792C155.936 488.84 157.504 487.864 159.68 487.864ZM173.016 503.056C175.064 503.056 176.088 500.904 176.088 496.6C176.088 492.296 175.064 490.144 173.016 490.144C170.968 490.144 169.944 492.296 169.944 496.6C169.944 500.904 170.968 503.056 173.016 503.056ZM173.016 487.864C175.192 487.864 176.76 488.84 177.72 490.792C178.456 492.264 178.824 494.2 178.824 496.6C178.824 499 178.456 500.936 177.72 502.408C176.76 504.36 175.192 505.336 173.016 505.336C170.84 505.336 169.272 504.36 168.312 502.408C167.576 500.936 167.208 499 167.208 496.6C167.208 494.2 167.576 492.264 168.312 490.792C169.272 488.84 170.84 487.864 173.016 487.864ZM186.352 503.056C188.4 503.056 189.424 500.904 189.424 496.6C189.424 492.296 188.4 490.144 186.352 490.144C184.304 490.144 183.28 492.296 183.28 496.6C183.28 500.904 184.304 503.056 186.352 503.056ZM186.352 487.864C188.528 487.864 190.096 488.84 191.056 490.792C191.792 492.264 192.16 494.2 192.16 496.6C192.16 499 191.792 500.936 191.056 502.408C190.096 504.36 188.528 505.336 186.352 505.336C184.176 505.336 182.608 504.36 181.648 502.408C180.912 500.936 180.544 499 180.544 496.6C180.544 494.2 180.912 492.264 181.648 490.792C182.608 488.84 184.176 487.864 186.352 487.864Z" fill="#343A4A"/>
</g>
<rect x="12.5" y="12.5" width="258" height="553" rx="23.5" stroke="#A6AFCB"/>
<defs>
<clipPath id="clip0_1955_24917">
<rect x="12" y="12" width="259" height="554" rx="24" fill="white"/>
</clipPath>
</defs>
</svg>
