<svg width="202" height="168" viewBox="0 0 202 168" fill="none" xmlns="http://www.w3.org/2000/svg">
<path d="M13.47 6.516H10.236V15H8.444V6.516H5.21V4.948H13.47V6.516ZM15.0331 15.126C13.6331 15.126 12.5551 14.272 12.5551 12.956C12.5551 11.556 13.6051 10.94 15.0191 10.646L17.0491 10.226V10.1C17.0491 9.4 16.6851 8.966 15.7891 8.966C14.9911 8.966 14.5711 9.33 14.3751 10.044L12.7931 9.68C13.1571 8.462 14.2351 7.51 15.8591 7.51C17.6231 7.51 18.6871 8.35 18.6871 10.044V13.208C18.6871 13.628 18.8691 13.754 19.3311 13.698V15C18.1131 15.14 17.4691 14.902 17.2171 14.3C16.7551 14.818 15.9851 15.126 15.0331 15.126ZM17.0491 12.41V11.514L15.4671 11.85C14.7531 12.004 14.2211 12.228 14.2211 12.886C14.2211 13.46 14.6411 13.782 15.2851 13.782C16.1811 13.782 17.0491 13.306 17.0491 12.41ZM24.3186 15.154C23.3666 15.154 22.6666 14.776 22.2046 14.23V17.52H20.5246V7.65H22.2046V8.434C22.6666 7.888 23.3666 7.51 24.3186 7.51C26.3766 7.51 27.5526 9.246 27.5526 11.332C27.5526 13.418 26.3766 15.154 24.3186 15.154ZM22.1626 11.122V11.556C22.1626 12.914 22.9466 13.684 23.9826 13.684C25.2006 13.684 25.8586 12.732 25.8586 11.332C25.8586 9.932 25.2006 8.98 23.9826 8.98C22.9466 8.98 22.1626 9.736 22.1626 11.122ZM35.1095 4.85C35.6135 4.85 36.0428 4.93867 36.3975 5.116C36.7615 5.284 37.0415 5.52667 37.2375 5.844C37.4335 6.16133 37.5315 6.54867 37.5315 7.006C37.5315 7.594 37.3402 8.09333 36.9575 8.504C36.5842 8.91467 36.1082 9.288 35.5295 9.624L38.2315 12.228C38.4742 11.9387 38.6702 11.6073 38.8195 11.234C38.9782 10.8513 39.1088 10.4407 39.2115 10.002H40.4575C40.3082 10.5993 40.1215 11.1547 39.8975 11.668C39.6735 12.1813 39.3842 12.6293 39.0295 13.012L41.0735 15H39.4075L38.1895 13.824C37.9655 14.02 37.7322 14.202 37.4895 14.37C37.2562 14.5287 36.9995 14.664 36.7195 14.776C36.4395 14.888 36.1362 14.9767 35.8095 15.042C35.4922 15.1073 35.1375 15.14 34.7455 15.14C34.1015 15.14 33.5415 15.0373 33.0655 14.832C32.5988 14.6173 32.2348 14.3047 31.9735 13.894C31.7215 13.4833 31.5955 12.984 31.5955 12.396C31.5955 11.92 31.6795 11.5093 31.8475 11.164C32.0248 10.8187 32.2768 10.5107 32.6035 10.24C32.9302 9.96933 33.3128 9.708 33.7515 9.456C33.5555 9.232 33.3642 8.99867 33.1775 8.756C32.9908 8.51333 32.8368 8.252 32.7155 7.972C32.5942 7.68267 32.5335 7.37 32.5335 7.034C32.5335 6.57667 32.6362 6.18467 32.8415 5.858C33.0468 5.53133 33.3408 5.284 33.7235 5.116C34.1155 4.93867 34.5775 4.85 35.1095 4.85ZM34.4935 10.226C34.1575 10.422 33.8682 10.6227 33.6255 10.828C33.3922 11.024 33.2102 11.2433 33.0795 11.486C32.9488 11.7287 32.8835 12.018 32.8835 12.354C32.8835 12.8673 33.0562 13.278 33.4015 13.586C33.7468 13.894 34.2088 14.048 34.7875 14.048C35.3848 14.048 35.8982 13.95 36.3275 13.754C36.7568 13.558 37.1162 13.3247 37.4055 13.054L34.4935 10.226ZM35.0675 5.858C34.6755 5.858 34.3535 5.96067 34.1015 6.166C33.8588 6.37133 33.7375 6.656 33.7375 7.02C33.7375 7.356 33.8262 7.66867 34.0035 7.958C34.1808 8.238 34.4375 8.55067 34.7735 8.896C35.3242 8.57867 35.7162 8.28 35.9495 8C36.1922 7.71067 36.3135 7.37933 36.3135 7.006C36.3135 6.67 36.2015 6.39467 35.9775 6.18C35.7535 5.96533 35.4502 5.858 35.0675 5.858ZM46.7362 11.108V15H44.9442V4.948H48.9622C51.2022 4.948 52.6022 5.998 52.6022 8.028C52.6022 10.03 51.2022 11.108 48.9622 11.108H46.7362ZM46.7362 9.568H48.8642C50.1522 9.568 50.8382 9.008 50.8382 8.028C50.8382 7.034 50.1522 6.488 48.8642 6.488H46.7362V9.568ZM55.3925 15.126C53.9925 15.126 52.9145 14.272 52.9145 12.956C52.9145 11.556 53.9645 10.94 55.3785 10.646L57.4085 10.226V10.1C57.4085 9.4 57.0445 8.966 56.1485 8.966C55.3505 8.966 54.9305 9.33 54.7345 10.044L53.1525 9.68C53.5165 8.462 54.5945 7.51 56.2185 7.51C57.9825 7.51 59.0465 8.35 59.0465 10.044V13.208C59.0465 13.628 59.2285 13.754 59.6905 13.698V15C58.4725 15.14 57.8285 14.902 57.5765 14.3C57.1145 14.818 56.3445 15.126 55.3925 15.126ZM57.4085 12.41V11.514L55.8265 11.85C55.1125 12.004 54.5805 12.228 54.5805 12.886C54.5805 13.46 55.0005 13.782 55.6445 13.782C56.5405 13.782 57.4085 13.306 57.4085 12.41ZM63.9392 15.686C63.5192 16.806 62.8752 17.576 61.3492 17.576C60.9992 17.576 60.9012 17.562 60.6632 17.534V16.12C60.8872 16.148 61.0132 16.162 61.2232 16.162C61.7832 16.162 62.0492 16.008 62.2872 15.42L62.5672 14.734L59.8932 7.65H61.6572L63.4632 12.802L65.2272 7.65H66.9632L63.9392 15.686Z" fill="#20336B"/>
<path d="M36 62L38.8868 57L33.1132 57L36 62ZM35.5 26L35.5 57.5L36.5 57.5L36.5 26L35.5 26Z" fill="#20336B"/>
<path d="M112 97L107 94.1133L107 99.8868L112 97ZM72 97.5L107.5 97.5L107.5 96.5L72 96.5L72 97.5Z" fill="#20336B"/>
<path d="M15.0945 136.948H17.1245L20.9325 147H19.1265L18.2585 144.704H13.9185L13.0645 147H11.2865L15.0945 136.948ZM16.0745 138.936L14.5065 143.136H17.6705L16.0745 138.936ZM22.8168 143.332C22.8168 144.83 23.6008 145.698 24.7488 145.698C25.6448 145.698 26.1908 145.11 26.4008 144.298L27.8428 145.026C27.4648 146.216 26.3448 147.154 24.7488 147.154C22.6488 147.154 21.1368 145.6 21.1368 143.332C21.1368 141.064 22.6488 139.51 24.7488 139.51C26.3308 139.51 27.4228 140.406 27.8148 141.582L26.4008 142.352C26.1908 141.554 25.6448 140.952 24.7488 140.952C23.6008 140.952 22.8168 141.834 22.8168 143.332ZM30.0766 143.332C30.0766 144.83 30.8606 145.698 32.0086 145.698C32.9046 145.698 33.4506 145.11 33.6606 144.298L35.1026 145.026C34.7246 146.216 33.6046 147.154 32.0086 147.154C29.9086 147.154 28.3966 145.6 28.3966 143.332C28.3966 141.064 29.9086 139.51 32.0086 139.51C33.5906 139.51 34.6826 140.406 35.0746 141.582L33.6606 142.352C33.4506 141.554 32.9046 140.952 32.0086 140.952C30.8606 140.952 30.0766 141.834 30.0766 143.332ZM39.2263 147.154C37.1263 147.154 35.6563 145.6 35.6563 143.332C35.6563 141.176 37.1123 139.51 39.1563 139.51C41.2843 139.51 42.4183 141.12 42.4183 143.136V143.696H37.2663C37.3923 144.956 38.1483 145.726 39.2263 145.726C40.0523 145.726 40.7103 145.306 40.9343 144.55L42.3763 145.096C41.8583 146.384 40.6963 147.154 39.2263 147.154ZM39.1423 140.924C38.2743 140.924 37.6023 141.442 37.3503 142.436H40.7243C40.7103 141.624 40.2063 140.924 39.1423 140.924ZM47.4729 147.154C46.5209 147.154 45.8209 146.776 45.3589 146.23V149.52H43.6789V139.65H45.3589V140.434C45.8209 139.888 46.5209 139.51 47.4729 139.51C49.5309 139.51 50.7069 141.246 50.7069 143.332C50.7069 145.418 49.5309 147.154 47.4729 147.154ZM45.3169 143.122V143.556C45.3169 144.914 46.1009 145.684 47.1369 145.684C48.3549 145.684 49.0129 144.732 49.0129 143.332C49.0129 141.932 48.3549 140.98 47.1369 140.98C46.1009 140.98 45.3169 141.736 45.3169 143.122ZM52.159 145.152V141.078H51.137V139.65H52.159V137.494H53.811V139.65H55.351V141.078H53.811V144.886C53.811 145.544 54.189 145.614 54.791 145.614C55.071 145.614 55.225 145.6 55.477 145.572V146.986C55.169 147.042 54.749 147.084 54.315 147.084C52.915 147.084 52.159 146.65 52.159 145.152ZM5.13365 161.108V165H3.34165V154.948H7.35965C9.59965 154.948 10.9996 155.998 10.9996 158.028C10.9996 160.03 9.59965 161.108 7.35965 161.108H5.13365ZM5.13365 159.568H7.26165C8.54965 159.568 9.23565 159.008 9.23565 158.028C9.23565 157.034 8.54965 156.488 7.26165 156.488H5.13365V159.568ZM13.7899 165.126C12.3899 165.126 11.3119 164.272 11.3119 162.956C11.3119 161.556 12.3619 160.94 13.7759 160.646L15.8059 160.226V160.1C15.8059 159.4 15.4419 158.966 14.5459 158.966C13.7479 158.966 13.3279 159.33 13.1319 160.044L11.5499 159.68C11.9139 158.462 12.9919 157.51 14.6159 157.51C16.3799 157.51 17.4439 158.35 17.4439 160.044V163.208C17.4439 163.628 17.6259 163.754 18.0879 163.698V165C16.8699 165.14 16.2259 164.902 15.9739 164.3C15.5119 164.818 14.7419 165.126 13.7899 165.126ZM15.8059 162.41V161.514L14.2239 161.85C13.5099 162.004 12.9779 162.228 12.9779 162.886C12.9779 163.46 13.3979 163.782 14.0419 163.782C14.9379 163.782 15.8059 163.306 15.8059 162.41ZM22.3367 165.686C21.9167 166.806 21.2727 167.576 19.7467 167.576C19.3967 167.576 19.2987 167.562 19.0607 167.534V166.12C19.2847 166.148 19.4107 166.162 19.6207 166.162C20.1807 166.162 20.4467 166.008 20.6847 165.42L20.9647 164.734L18.2907 157.65H20.0547L21.8607 162.802L23.6247 157.65H25.3607L22.3367 165.686ZM27.9477 160.688V165H26.2677V157.65H27.9477V158.434C28.3537 157.944 28.9837 157.51 29.9637 157.51C30.8457 157.51 31.5037 157.902 31.9097 158.532C32.3577 158.056 33.0577 157.51 34.1917 157.51C35.7037 157.51 36.6837 158.574 36.6837 160.156V165H35.0037V160.646C35.0037 159.736 34.6677 159.078 33.7717 159.078C33.0577 159.078 32.3157 159.638 32.3157 160.688V165H30.6357V160.646C30.6357 159.736 30.2997 159.078 29.4037 159.078C28.6897 159.078 27.9477 159.638 27.9477 160.688ZM41.5027 165.154C39.4027 165.154 37.9327 163.6 37.9327 161.332C37.9327 159.176 39.3887 157.51 41.4327 157.51C43.5607 157.51 44.6947 159.12 44.6947 161.136V161.696H39.5427C39.6687 162.956 40.4247 163.726 41.5027 163.726C42.3287 163.726 42.9867 163.306 43.2107 162.55L44.6527 163.096C44.1347 164.384 42.9727 165.154 41.5027 165.154ZM41.4187 158.924C40.5507 158.924 39.8787 159.442 39.6267 160.436H43.0007C42.9867 159.624 42.4827 158.924 41.4187 158.924ZM45.9552 165V157.65H47.6352V158.434C48.0552 157.944 48.7132 157.51 49.6652 157.51C51.2052 157.51 52.1292 158.574 52.1292 160.156V165H50.4492V160.646C50.4492 159.736 50.0852 159.078 49.1612 159.078C48.4052 159.078 47.6352 159.638 47.6352 160.688V165H45.9552ZM53.9979 163.152V159.078H52.9759V157.65H53.9979V155.494H55.6499V157.65H57.1899V159.078H55.6499V162.886C55.6499 163.544 56.0279 163.614 56.6299 163.614C56.9099 163.614 57.0639 163.6 57.3159 163.572V164.986C57.0079 165.042 56.5879 165.084 56.1539 165.084C54.7539 165.084 53.9979 164.65 53.9979 163.152ZM57.8044 163.6L59.0644 162.592C59.4984 163.306 60.3384 163.782 61.1924 163.782C61.9064 163.782 62.5644 163.53 62.5644 162.872C62.5644 162.242 61.9484 162.172 60.7864 161.934C59.6244 161.696 58.2944 161.402 58.2944 159.834C58.2944 158.49 59.4704 157.51 61.1644 157.51C62.4524 157.51 63.6004 158.084 64.1324 158.896L62.9984 159.918C62.5784 159.26 61.8784 158.882 61.0664 158.882C60.3804 158.882 59.9324 159.19 59.9324 159.68C59.9324 160.212 60.4644 160.31 61.3884 160.506C62.6344 160.772 64.2024 161.038 64.2024 162.718C64.2024 164.202 62.8444 165.154 61.1784 165.154C59.8204 165.154 58.4624 164.608 57.8044 163.6Z" fill="#20336B"/>
<circle cx="148.5" cy="96" r="27.5" stroke="#20336B"/>
<path d="M146.172 93.0918H151.828" stroke="#00BAF2" stroke-linecap="square"/>
<path d="M146.172 94.2227H151.828" stroke="#00BAF2" stroke-linecap="square"/>
<path d="M150.703 95.9198H150.137L147.874 91.3945H147.273V95.9198" stroke="#00BAF2" stroke-linecap="square"/>
<path d="M150.734 95.9198V91.3945" stroke="#00BAF2" stroke-linecap="square"/>
<path d="M159.635 89.7815C160.388 89.7815 161 89.2558 161 88.6096V85.1719C161 84.5258 160.388 84 159.635 84H157.054C156.828 84 156.645 84.1574 156.645 84.3516C156.645 84.5458 156.828 84.7031 157.054 84.7031H159.635C159.936 84.7031 160.181 84.9134 160.181 85.1719V88.6096C160.181 88.8681 159.936 89.0784 159.635 89.0784H155.782V87.6174H157.747C158.247 87.6174 158.654 87.2682 158.654 86.839V86.2706C158.654 85.8413 158.247 85.4922 157.747 85.4922H140.253C139.753 85.4922 139.346 85.8413 139.346 86.2706V86.8389C139.346 87.2682 139.753 87.6173 140.253 87.6173H142.57V89.0784H138.365C138.064 89.0784 137.819 88.8681 137.819 88.6096V85.1719C137.819 84.9134 138.064 84.7031 138.365 84.7031H155.418C155.644 84.7031 155.827 84.5458 155.827 84.3516C155.827 84.1574 155.644 84 155.418 84H138.365C137.612 84 137 84.5258 137 85.1719V88.6096C137 89.2558 137.612 89.7815 138.365 89.7815H142.57V95.2972C142.57 95.4914 142.753 95.6487 142.979 95.6487C143.205 95.6487 143.388 95.4914 143.388 95.2972V87.6174H144.107V98.9147C144.107 99.1089 144.29 99.2662 144.516 99.2662C145.544 99.2662 146.381 99.9846 146.381 100.868C146.381 101.062 146.564 101.219 146.79 101.219H151.561C151.787 101.219 151.971 101.062 151.971 100.868C151.971 100.204 152.453 99.6098 153.162 99.3739L153.308 99.6154C153.325 99.6451 153.331 99.6709 153.305 99.6975C152.732 100.295 152.494 101.083 152.637 101.836H143.502C143.44 101.836 143.388 101.792 143.388 101.738V96.7028C143.388 96.5087 143.205 96.3512 142.979 96.3512C142.753 96.3512 142.57 96.5087 142.57 96.7028V101.738C142.57 102.18 142.988 102.539 143.502 102.539H152.854C152.897 102.699 152.921 102.861 152.925 103.025L152.966 104.7H152.578C152.078 104.7 151.686 105.1 151.686 105.612V107.088C151.686 107.599 152.078 108 152.578 108H154.554C154.78 108 154.963 107.843 154.963 107.649C154.963 107.454 154.78 107.297 154.554 107.297H152.589C152.56 107.279 152.505 107.204 152.505 107.088V105.612C152.505 105.496 152.56 105.42 152.589 105.403H158.592C158.62 105.42 158.676 105.496 158.676 105.612V107.088C158.676 107.204 158.62 107.279 158.592 107.297H156.191C155.964 107.297 155.781 107.454 155.781 107.649C155.781 107.843 155.964 108 156.191 108H158.603C159.103 108 159.495 107.599 159.495 107.088V105.612C159.495 105.1 159.103 104.7 158.603 104.7H157.99V103.19C157.99 102.904 158.089 102.629 158.276 102.393L160.221 99.9489C161.182 98.7423 160.993 97.1274 159.772 96.1088L155.781 92.7781V89.7815H159.635ZM154.963 96.2616L154.245 95.6202V87.6174H154.963V96.2616ZM140.253 86.9143C140.205 86.9143 140.165 86.8805 140.165 86.839V86.2706C140.165 86.2291 140.205 86.1953 140.253 86.1953H157.747C157.796 86.1953 157.835 86.2291 157.835 86.2706V86.8389C157.835 86.8805 157.795 86.9142 157.747 86.9142C155.189 86.9143 140.815 86.9143 140.253 86.9143ZM151.183 100.516H147.168C146.991 99.5262 146.078 98.742 144.925 98.5899V87.6174H153.426V94.9176C152.892 94.5869 152.14 94.6223 151.651 95.0329C151.212 95.4009 151.107 95.962 151.389 96.4296L152.785 98.747C151.934 99.0586 151.325 99.7328 151.183 100.516ZM159.202 96.6131C160.136 97.3926 160.28 98.6288 159.545 99.5522L157.6 101.996C157.319 102.349 157.171 102.762 157.171 103.19V104.7H153.785L153.744 103.01C153.735 102.683 153.667 102.361 153.542 102.053C153.278 101.405 153.43 100.674 153.937 100.144C154.171 99.9007 154.208 99.5654 154.033 99.2885L152.116 96.1064C152.001 95.9155 152.044 95.6861 152.223 95.5358C152.452 95.344 152.811 95.3549 153.026 95.5465L156.605 98.7418C156.762 98.8817 157.021 98.8861 157.183 98.7515C157.346 98.6169 157.351 98.3943 157.195 98.2544L155.781 96.9925V93.7585L159.202 96.6131Z" fill="#20336B"/>
<path d="M145.494 100C145.712 100 145.889 99.8013 145.889 99.5558C145.889 99.3103 145.712 99.1113 145.494 99.1113H145.395C145.177 99.1113 145 99.3103 145 99.5558C145 99.8013 145.177 100 145.395 100H145.494Z" fill="#20336B"/>
<path d="M98.2192 141.974C98.2192 144.144 99.3952 145.572 101.047 145.572C102.223 145.572 103.077 144.858 103.385 143.682L105.065 144.256C104.477 146.034 103.077 147.154 101.047 147.154C98.3732 147.154 96.4272 145.026 96.4272 141.974C96.4272 138.922 98.3732 136.794 101.047 136.794C103.077 136.794 104.477 137.914 105.065 139.692L103.385 140.266C103.077 139.09 102.223 138.376 101.047 138.376C99.3952 138.376 98.2192 139.804 98.2192 141.974ZM108.159 147.126C106.759 147.126 105.681 146.272 105.681 144.956C105.681 143.556 106.731 142.94 108.145 142.646L110.175 142.226V142.1C110.175 141.4 109.811 140.966 108.915 140.966C108.117 140.966 107.697 141.33 107.501 142.044L105.919 141.68C106.283 140.462 107.361 139.51 108.985 139.51C110.749 139.51 111.813 140.35 111.813 142.044V145.208C111.813 145.628 111.995 145.754 112.457 145.698V147C111.239 147.14 110.595 146.902 110.343 146.3C109.881 146.818 109.111 147.126 108.159 147.126ZM110.175 144.41V143.514L108.593 143.85C107.879 144.004 107.347 144.228 107.347 144.886C107.347 145.46 107.767 145.782 108.411 145.782C109.307 145.782 110.175 145.306 110.175 144.41ZM112.881 145.6L114.141 144.592C114.575 145.306 115.415 145.782 116.269 145.782C116.983 145.782 117.641 145.53 117.641 144.872C117.641 144.242 117.025 144.172 115.863 143.934C114.701 143.696 113.371 143.402 113.371 141.834C113.371 140.49 114.547 139.51 116.241 139.51C117.529 139.51 118.677 140.084 119.209 140.896L118.075 141.918C117.655 141.26 116.955 140.882 116.143 140.882C115.457 140.882 115.009 141.19 115.009 141.68C115.009 142.212 115.541 142.31 116.465 142.506C117.711 142.772 119.279 143.038 119.279 144.718C119.279 146.202 117.921 147.154 116.255 147.154C114.897 147.154 113.539 146.608 112.881 145.6ZM120.569 147V136.948H122.249V140.434C122.669 139.944 123.327 139.51 124.279 139.51C125.819 139.51 126.743 140.574 126.743 142.156V147H125.063V142.646C125.063 141.736 124.699 141.078 123.775 141.078C123.019 141.078 122.249 141.638 122.249 142.688V147H120.569ZM136.214 136.948H137.796L139.672 144.326L141.576 136.948H143.368L140.652 147H138.888L136.984 139.916L135.094 147H133.33L130.6 136.948H132.448L134.352 144.326L136.214 136.948ZM144.289 138.67V136.948H146.025V138.67H144.289ZM145.997 139.65V147H144.317V139.65H145.997ZM147.916 145.152V141.078H146.894V139.65H147.916V137.494H149.568V139.65H151.108V141.078H149.568V144.886C149.568 145.544 149.946 145.614 150.548 145.614C150.828 145.614 150.982 145.6 151.234 145.572V146.986C150.926 147.042 150.506 147.084 150.072 147.084C148.672 147.084 147.916 146.65 147.916 145.152ZM152.492 147V136.948H154.172V140.434C154.592 139.944 155.25 139.51 156.202 139.51C157.742 139.51 158.666 140.574 158.666 142.156V147H156.986V142.646C156.986 141.736 156.622 141.078 155.698 141.078C154.942 141.078 154.172 141.638 154.172 142.688V147H152.492ZM163.153 147.154C161.095 147.154 159.919 145.418 159.919 143.332C159.919 141.246 161.095 139.51 163.153 139.51C164.105 139.51 164.805 139.888 165.267 140.434V136.948H166.947V147H165.267V146.23C164.805 146.776 164.105 147.154 163.153 147.154ZM165.309 143.122C165.309 141.736 164.525 140.98 163.489 140.98C162.271 140.98 161.613 141.932 161.613 143.332C161.613 144.732 162.271 145.684 163.489 145.684C164.525 145.684 165.309 144.914 165.309 143.556V143.122ZM172.879 139.636V141.316C172.669 141.288 172.501 141.274 172.263 141.274C171.199 141.274 170.387 141.96 170.387 143.136V147H168.707V139.65H170.387V140.742C170.709 140.056 171.465 139.608 172.403 139.608C172.599 139.608 172.753 139.622 172.879 139.636ZM175.78 147.126C174.38 147.126 173.302 146.272 173.302 144.956C173.302 143.556 174.352 142.94 175.766 142.646L177.796 142.226V142.1C177.796 141.4 177.432 140.966 176.536 140.966C175.738 140.966 175.318 141.33 175.122 142.044L173.54 141.68C173.904 140.462 174.982 139.51 176.606 139.51C178.37 139.51 179.434 140.35 179.434 142.044V145.208C179.434 145.628 179.616 145.754 180.078 145.698V147C178.86 147.14 178.216 146.902 177.964 146.3C177.502 146.818 176.732 147.126 175.78 147.126ZM177.796 144.41V143.514L176.214 143.85C175.5 144.004 174.968 144.228 174.968 144.886C174.968 145.46 175.388 145.782 176.032 145.782C176.928 145.782 177.796 145.306 177.796 144.41ZM184.635 139.65H186.021L187.337 144.522L188.639 139.65H190.305L188.093 147H186.637L185.293 142.184L183.949 147H182.493L180.281 139.65H182.003L183.333 144.522L184.635 139.65ZM192.952 147.126C191.552 147.126 190.474 146.272 190.474 144.956C190.474 143.556 191.524 142.94 192.938 142.646L194.968 142.226V142.1C194.968 141.4 194.604 140.966 193.708 140.966C192.91 140.966 192.49 141.33 192.294 142.044L190.712 141.68C191.076 140.462 192.154 139.51 193.778 139.51C195.542 139.51 196.606 140.35 196.606 142.044V145.208C196.606 145.628 196.788 145.754 197.25 145.698V147C196.032 147.14 195.388 146.902 195.136 146.3C194.674 146.818 193.904 147.126 192.952 147.126ZM194.968 144.41V143.514L193.386 143.85C192.672 144.004 192.14 144.228 192.14 144.886C192.14 145.46 192.56 145.782 193.204 145.782C194.1 145.782 194.968 145.306 194.968 144.41ZM200.124 136.948V147H198.444V136.948H200.124ZM123.205 163.04L124.577 161.906C125.277 162.998 126.327 163.628 127.475 163.628C128.609 163.628 129.463 163.11 129.463 162.144C129.463 161.122 128.413 160.982 126.915 160.618C125.403 160.254 123.779 159.806 123.779 157.846C123.779 155.984 125.375 154.794 127.405 154.794C129.127 154.794 130.471 155.606 131.143 156.656L129.827 157.79C129.267 156.922 128.525 156.32 127.349 156.32C126.271 156.32 125.529 156.866 125.529 157.664C125.529 158.546 126.299 158.728 127.657 159.036C129.281 159.4 131.227 159.778 131.227 161.962C131.227 163.936 129.491 165.154 127.419 165.154C125.697 165.154 123.989 164.328 123.205 163.04ZM135.66 165.154C133.56 165.154 132.09 163.6 132.09 161.332C132.09 159.176 133.546 157.51 135.59 157.51C137.718 157.51 138.852 159.12 138.852 161.136V161.696H133.7C133.826 162.956 134.582 163.726 135.66 163.726C136.486 163.726 137.144 163.306 137.368 162.55L138.81 163.096C138.292 164.384 137.13 165.154 135.66 165.154ZM135.576 158.924C134.708 158.924 134.036 159.442 133.784 160.436H137.158C137.144 159.624 136.64 158.924 135.576 158.924ZM144.284 157.636V159.316C144.074 159.288 143.906 159.274 143.668 159.274C142.604 159.274 141.792 159.96 141.792 161.136V165H140.112V157.65H141.792V158.742C142.114 158.056 142.87 157.608 143.808 157.608C144.004 157.608 144.158 157.622 144.284 157.636ZM149.109 165H147.415L144.727 157.65H146.491L148.283 162.984L150.061 157.65H151.797L149.109 165ZM152.676 156.67V154.948H154.412V156.67H152.676ZM154.384 157.65V165H152.704V157.65H154.384ZM157.368 161.332C157.368 162.83 158.152 163.698 159.3 163.698C160.196 163.698 160.742 163.11 160.952 162.298L162.394 163.026C162.016 164.216 160.896 165.154 159.3 165.154C157.2 165.154 155.688 163.6 155.688 161.332C155.688 159.064 157.2 157.51 159.3 157.51C160.882 157.51 161.974 158.406 162.366 159.582L160.952 160.352C160.742 159.554 160.196 158.952 159.3 158.952C158.152 158.952 157.368 159.834 157.368 161.332ZM166.517 165.154C164.417 165.154 162.947 163.6 162.947 161.332C162.947 159.176 164.403 157.51 166.447 157.51C168.575 157.51 169.709 159.12 169.709 161.136V161.696H164.557C164.683 162.956 165.439 163.726 166.517 163.726C167.343 163.726 168.001 163.306 168.225 162.55L169.667 163.096C169.149 164.384 167.987 165.154 166.517 165.154ZM166.433 158.924C165.565 158.924 164.893 159.442 164.641 160.436H168.015C168.001 159.624 167.497 158.924 166.433 158.924Z" fill="#20336B"/>
<circle cx="36" cy="96" r="27.5" stroke="#20336B"/>
<g clip-path="url(#clip0_662_20784)">
<mask id="mask0_662_20784" style="mask-type:luminance" maskUnits="userSpaceOnUse" x="24" y="83" width="24" height="25">
<path d="M48 83.998H24V107.998H48V83.998Z" fill="white"/>
</mask>
<g mask="url(#mask0_662_20784)">
<path d="M44.4222 103.79C44.4222 105.267 43.2929 106.464 41.8999 106.464H27.5224C26.1293 106.464 25 105.267 25 103.79V91.7594C25 90.2829 26.1293 89.0859 27.5224 89.0859" stroke="#20336B"/>
<path d="M44.3594 95.668L44.4233 103.399" stroke="#20336B" stroke-linecap="square" stroke-linejoin="round"/>
<path d="M27.5547 89.0859H37.7769" stroke="#20336B" stroke-linecap="square"/>
<path d="M44.4234 93.0002L44.1875 85.4805" stroke="#20336B" stroke-linecap="round" stroke-linejoin="round"/>
<path d="M41.6094 89.8711L44.2286 92.9154C44.2771 92.9717 44.3469 93.0039 44.4203 93.0039C44.4936 93.0039 44.5634 92.9717 44.6119 92.9154L47.2316 89.8711" stroke="#20336B" stroke-linecap="round" stroke-linejoin="round"/>
<path d="M29.5 96.498H39.5" stroke="#4ABCEB" stroke-linecap="square"/>
<path d="M29.5 98.498H39.5" stroke="#4ABCEB" stroke-linecap="square"/>
<path d="M37.5 101.498H36.5L32.5 93.498H31.4375V101.498" stroke="#4ABCEB" stroke-linecap="square"/>
<path d="M37.5625 101.498V93.498" stroke="#4ABCEB" stroke-linecap="square"/>
</g>
</g>
<defs>
<clipPath id="clip0_662_20784">
<rect width="24" height="24" fill="white" transform="translate(24 83.998)"/>
</clipPath>
</defs>
</svg>
