<svg width="48" height="48" viewBox="0 0 48 48" fill="none" xmlns="http://www.w3.org/2000/svg">
<circle cx="24" cy="24" r="24" fill="white"/>
<rect x="26.877" y="23.9942" width="3.69807" height="5.45624" rx="0.55" transform="rotate(-45.6192 26.877 23.9942)" stroke="#20336B" stroke-width="0.5"/>
<path d="M34.1567 30.4883C34.1279 31.3005 35.4501 31.6116 37.2476 32.2269" stroke="#20336B" stroke-width="0.5" stroke-linecap="round"/>
<path d="M32.034 29.5215C31.8408 30.6806 34.3522 31.2601 34.5454 29.7147" stroke="#20336B" stroke-width="0.5" stroke-linecap="round"/>
<path d="M34.3449 29.3285C32.4131 30.1012 32.0267 29.3285 32.0267 29.3285C32.0267 29.3285 30.8676 28.1694 31.0608 27.5898" stroke="#20336B" stroke-width="0.5" stroke-linecap="round"/>
<path d="M35.3116 27.0105C35.3116 27.0105 31.2548 24.8855 30.8684 24.6924C30.482 24.4992 30.2889 25.2719 30.482 25.8515C30.6752 26.431 32.2207 27.4935 32.9934 27.4935C33.7661 27.4935 34.9252 30.2946 34.9252 30.2946" stroke="#20336B" stroke-width="0.5" stroke-linecap="round"/>
<path d="M33.375 24.6923C35.5 24.4992 36.0795 25.2719 38.9773 30.2946" stroke="#20336B" stroke-width="0.5" stroke-linecap="round"/>
<path d="M33.3864 24.6914H33" stroke="#20336B" stroke-width="0.5" stroke-linecap="round"/>
<path d="M31.4531 27.2031C32.2259 27.9759 32.0327 28.7486 33.9645 28.5554" stroke="#20336B" stroke-width="0.5" stroke-linecap="round"/>
<path fill-rule="evenodd" clip-rule="evenodd" d="M30.8228 30.0984C31.1916 29.8449 31.5341 29.5762 31.8486 29.2943L32.1855 29.6634C29.926 31.6919 26.367 33 22.3636 33C15.5354 33 10 29.1944 10 24.5C10 19.8056 15.5354 16 22.3636 16C29.1919 16 34.7273 19.8056 34.7273 24.5C34.7273 24.5348 34.727 24.5696 34.7264 24.6043L34.2273 24.5113C34.2273 24.5075 34.2273 24.5038 34.2273 24.5C34.2273 22.3648 32.9689 20.3771 30.8228 18.9016C28.6789 17.4277 25.6897 16.5 22.3636 16.5C19.0376 16.5 16.0484 17.4277 13.9045 18.9016C11.7584 20.3771 10.5 22.3648 10.5 24.5C10.5 26.6352 11.7584 28.6229 13.9045 30.0984C16.0484 31.5723 19.0376 32.5 22.3636 32.5C25.6897 32.5 28.6789 31.5723 30.8228 30.0984Z" fill="#20336B"/>
<path d="M23.8854 31.0142C23.6822 30.9543 23.4738 30.712 23.4295 30.4801C23.4008 30.329 23.4347 30.2247 23.6509 29.8053C24.5263 28.1118 24.9067 26.5537 24.9067 24.6648C24.9067 22.8384 24.5706 21.4159 23.7343 19.7119C23.5545 19.3472 23.4086 19.0059 23.4086 18.9564C23.4086 18.774 23.5597 18.5108 23.7239 18.4092C23.9479 18.2685 24.3257 18.2946 24.5081 18.4639C24.5785 18.5291 24.7582 18.8261 24.9093 19.1231C25.5086 20.2982 25.9176 21.5878 26.1209 22.9296C26.2459 23.7607 26.272 25.3344 26.1704 26.0952C25.9854 27.4969 25.6154 28.7501 25.0214 29.9746C24.6618 30.7146 24.4378 31.0194 24.2502 31.0194C24.2137 31.0194 24.1512 31.0298 24.1147 31.0402C24.0782 31.0507 23.974 31.0402 23.8854 31.0142ZM21.4494 29.7401C21.1367 29.649 20.91 29.2634 21.0012 28.9768C21.0221 28.9064 21.1706 28.5859 21.3295 28.2629C21.9991 26.895 22.2779 25.4308 22.1424 23.9926C22.0304 22.8098 21.8193 22.0646 21.2852 20.9756C20.9283 20.2434 20.91 20.1314 21.1185 19.8344C21.3165 19.553 21.8115 19.5087 22.0695 19.7458C22.2492 19.9099 22.8094 21.0798 23.0256 21.7415C23.7395 23.9301 23.6301 26.2828 22.7156 28.4322C22.244 29.5343 21.9131 29.8756 21.4494 29.7401ZM18.9378 28.4479C18.745 28.3619 18.5782 28.1561 18.5313 27.9502C18.5027 27.8252 18.5522 27.6845 18.7814 27.2207C19.6256 25.5116 19.6334 23.8676 18.8101 22.1975C18.4479 21.4654 18.4401 21.3195 18.745 21.0303C18.8961 20.887 18.9612 20.8635 19.1722 20.8635C19.5292 20.8635 19.7142 21.0433 20.032 21.6973C20.5218 22.7029 20.7225 23.5758 20.7199 24.6935C20.7172 25.8425 20.5297 26.6319 20.0086 27.6923C19.709 28.2994 19.5604 28.4609 19.2608 28.5C19.1696 28.5078 19.0237 28.4869 18.9378 28.4479ZM16.5929 27.2442C16.4392 27.1816 16.2646 26.9732 16.2125 26.7908C16.1552 26.5876 16.2021 26.4261 16.4314 26.0483C16.7284 25.5611 16.7961 25.3005 16.7961 24.6648C16.7961 24.0291 16.7284 23.7659 16.4314 23.2813C16.3297 23.1172 16.2307 22.9192 16.2073 22.841C16.1109 22.5206 16.3792 22.1271 16.7388 22.0594C17.0436 22.0021 17.2521 22.1376 17.5334 22.5753C18.3437 23.8415 18.3437 25.5298 17.5334 26.7856C17.2468 27.2259 16.929 27.3822 16.5929 27.2442Z" fill="#3FAFE9"/>
</svg>
