<svg width="25" height="15" viewBox="0 0 25 15" fill="none" xmlns="http://www.w3.org/2000/svg">
<rect x="14.0374" y="6.62018" width="2.97699" height="4.43317" rx="0.55" transform="rotate(-45.6192 14.0374 6.62018)" stroke="#20336B" stroke-width="0.5"/>
<path d="M20 12C19.9761 12.6727 21.0712 12.9304 22.56 13.44" stroke="#20336B" stroke-width="0.5" stroke-linecap="round"/>
<path d="M18.24 11.2C18.08 12.16 20.16 12.64 20.32 11.36" stroke="#20336B" stroke-width="0.5" stroke-linecap="round"/>
<path d="M20.16 11.04C18.56 11.68 18.24 11.04 18.24 11.04C18.24 11.04 17.28 10.08 17.44 9.6" stroke="#20336B" stroke-width="0.5" stroke-linecap="round"/>
<path d="M20.96 9.12C20.96 9.12 17.6 7.36 17.28 7.2C16.96 7.04 16.8 7.68 16.96 8.16C17.12 8.64 18.4 9.52 19.04 9.52C19.68 9.52 20.64 11.84 20.64 11.84" stroke="#20336B" stroke-width="0.5" stroke-linecap="round"/>
<path d="M19.36 7.2C21.12 7.04 21.6 7.68 24 11.84" stroke="#20336B" stroke-width="0.5" stroke-linecap="round"/>
<path d="M19.36 7.2H19.04" stroke="#20336B" stroke-width="0.5" stroke-linecap="round"/>
<path d="M17.76 9.28C18.4 9.92 18.24 10.56 19.84 10.4" stroke="#20336B" stroke-width="0.5" stroke-linecap="round"/>
<path fill-rule="evenodd" clip-rule="evenodd" d="M17.1975 11.606C17.5007 11.3976 17.782 11.1769 18.0399 10.9456L18.3768 11.3147C16.5055 12.9958 13.5569 14.08 10.24 14.08C4.5846 14.08 0 10.9281 0 7.04C0 3.15192 4.5846 0 10.24 0C15.8954 0 20.48 3.15192 20.48 7.04C20.48 7.06887 20.4797 7.0977 20.4792 7.12648L19.98 7.03351C19.9774 5.30396 18.9571 3.68371 17.1975 2.47399C15.4379 1.26427 12.9796 0.5 10.24 0.5C7.5004 0.5 5.04208 1.26427 3.28249 2.47399C1.52069 3.68523 0.5 5.30801 0.5 7.04C0.5 8.77199 1.52069 10.3948 3.28249 11.606C5.04208 12.8157 7.5004 13.58 10.24 13.58C12.9796 13.58 15.4379 12.8157 17.1975 11.606Z" fill="#20336B"/>
<path d="M11.4957 12.4351C11.3274 12.3855 11.1547 12.1848 11.1181 11.9928C11.0943 11.8676 11.1224 11.7813 11.3015 11.4339C12.0265 10.0312 12.3416 8.74082 12.3416 7.17635C12.3416 5.66367 12.0632 4.48547 11.3705 3.07421C11.2216 2.7721 11.1008 2.48942 11.1008 2.44842C11.1008 2.29737 11.2259 2.07942 11.3619 1.99526C11.5475 1.87874 11.8604 1.90032 12.0114 2.04058C12.0697 2.09453 12.2186 2.34053 12.3437 2.58653C12.84 3.55973 13.1788 4.62789 13.3472 5.7392C13.4507 6.42757 13.4723 7.73093 13.3882 8.36103C13.2349 9.52198 12.9285 10.5599 12.4365 11.5741C12.1387 12.187 11.9532 12.4394 11.7978 12.4394C11.7676 12.4394 11.7158 12.4481 11.6856 12.4567C11.6554 12.4653 11.5691 12.4567 11.4957 12.4351ZM9.47806 11.3799C9.21911 11.3044 9.03137 10.985 9.1069 10.7477C9.12416 10.6894 9.24716 10.424 9.37879 10.1564C9.93337 9.02351 10.1643 7.81077 10.0521 6.61962C9.95927 5.63994 9.78448 5.02278 9.34211 4.12078C9.04648 3.51442 9.03137 3.42163 9.20401 3.17563C9.368 2.94258 9.778 2.90589 9.99163 3.10226C10.1405 3.23821 10.6045 4.2071 10.7836 4.7552C11.3748 6.56783 11.2842 8.5164 10.5268 10.2967C10.1362 11.2094 9.86216 11.4921 9.47806 11.3799ZM7.39785 10.3096C7.23817 10.2384 7.10006 10.0679 7.06122 9.89745C7.03749 9.79387 7.07849 9.67735 7.26838 9.29324C7.96754 7.87767 7.97401 6.51604 7.29212 5.13283C6.99217 4.52647 6.9857 4.40563 7.23817 4.1661C7.36333 4.04742 7.41727 4.028 7.59206 4.028C7.88769 4.028 8.0409 4.17689 8.30417 4.71852C8.70985 5.55146 8.87601 6.27436 8.87385 7.20009C8.87169 8.15172 8.71632 8.80556 8.28474 9.68382C8.03659 10.1866 7.91359 10.3204 7.66543 10.3528C7.5899 10.3592 7.46906 10.342 7.39785 10.3096ZM5.45575 9.31266C5.32844 9.26087 5.18386 9.08824 5.1407 8.93719C5.09323 8.76888 5.13207 8.63509 5.32197 8.32219C5.56796 7.91867 5.62407 7.70288 5.62407 7.17635C5.62407 6.64983 5.56796 6.43188 5.32197 6.03052C5.23781 5.89457 5.15581 5.73057 5.13639 5.66583C5.05655 5.40041 5.27881 5.07457 5.5766 5.01847C5.82907 4.97099 6.0017 5.0832 6.23475 5.44573C6.90585 6.49446 6.90585 7.89277 6.23475 8.93287C5.99738 9.29756 5.73412 9.42703 5.45575 9.31266Z" fill="#3FAFE9"/>
</svg>
