<svg width="35" height="35" viewBox="0 0 35 35" fill="none" xmlns="http://www.w3.org/2000/svg">
<path d="M27.1615 2.18798H9.15104C7.23819 2.18798 5.6875 3.67121 5.6875 5.50088V27.5463C5.68716 29.518 4.71664 31.3746 3.06768 32.558L2.91667 32.6667H20.9271L21.0782 32.558C22.727 31.3746 23.6976 29.518 23.6979 27.5463V5.69037C23.6596 3.94333 24.9945 2.44542 26.804 2.2052C27.7796 2.10839 28.7525 2.41178 29.4809 3.04009C30.2094 3.66838 30.625 4.56266 30.625 5.50088V10.1389C30.625 10.8708 30.0048 11.4641 29.2396 11.4641H23.6979" stroke="#223872" stroke-width="1.5"/>
<path d="M9.15104 7.48866H12.6146" stroke="#3FAFE9" stroke-width="1.5"/>
<path d="M11.9219 11.4641H19.5417" stroke="#3FAFE9" stroke-width="1.5"/>
<path d="M9.15104 15.4395H19.5417" stroke="#3FAFE9" stroke-width="1.5"/>
<path d="M9.15104 19.4151H19.5417" stroke="#3FAFE9" stroke-width="1.5"/>
<path d="M9.15104 23.3906H15.3854" stroke="#3FAFE9" stroke-width="1.5"/>
<path d="M9.15104 23.3906H19.5417" stroke="#3FAFE9" stroke-width="1.5"/>
<path d="M9.15104 27.3661H15.3854" stroke="#3FAFE9" stroke-width="1.5"/>
</svg>
