<svg width="33" height="33" viewBox="0 0 33 33" fill="none" xmlns="http://www.w3.org/2000/svg">
<g clip-path="url(#clip0_1144_7)">
<path d="M13.2497 12.207C13.3469 12.2983 13.4195 12.411 13.4615 12.5356C13.5034 12.6601 13.5133 12.7926 13.4903 12.9216L13.1883 14.6216C12.9123 16.1753 14.6025 17.3741 16.0601 16.6334L17.6364 15.831C17.7567 15.77 17.8905 15.7381 18.0264 15.7381C18.1622 15.7381 18.2961 15.77 18.4163 15.831L19.9871 16.6323C21.437 17.3727 23.1348 16.1833 22.8608 14.6249L22.5614 12.9205C22.5388 12.7918 22.5488 12.6596 22.5908 12.5354C22.6327 12.4112 22.7052 12.2988 22.802 12.2075L24.0737 11.0099C25.2464 9.90565 24.5989 7.9811 22.9782 7.75316L21.2148 7.50489C21.0808 7.48592 20.9535 7.43577 20.8439 7.35876C20.7344 7.28175 20.6459 7.18018 20.5861 7.06281L19.7981 5.52001C19.0727 4.09925 16.9771 4.10153 16.2517 5.51733L15.4585 7.06446C15.3985 7.1814 15.31 7.28253 15.2006 7.35916C15.0911 7.43578 14.9641 7.48563 14.8304 7.50441L13.0697 7.75268C11.4483 7.98069 10.8013 9.90786 11.9764 11.011L13.2497 12.207ZM13.2348 8.84368L14.9949 8.5954C15.3116 8.55108 15.6125 8.43307 15.8716 8.25156C16.1306 8.07005 16.34 7.83046 16.4819 7.55342L17.2749 6.00636C17.5819 5.40784 18.4665 5.40715 18.7734 6.00794L19.5614 7.55074C19.7031 7.82844 19.9127 8.0687 20.172 8.25078C20.4313 8.43287 20.7326 8.55133 21.0499 8.59596L22.8133 8.84423C23.4992 8.94186 23.7733 9.75266 23.2761 10.2206L22.0046 11.4182C21.7755 11.6338 21.6039 11.9 21.5048 12.1937C21.4056 12.4875 21.3817 12.8002 21.4353 13.1047L21.7347 14.809C21.8508 15.4704 21.1354 15.9689 20.5206 15.6578L18.9496 14.8564C18.6653 14.7111 18.3485 14.635 18.0268 14.6348C17.7051 14.6346 17.3882 14.7103 17.1037 14.8553L15.5274 15.6577C14.912 15.9709 14.1965 15.4678 14.3142 14.8079L14.6162 13.1079C14.6705 12.8025 14.6469 12.4888 14.5476 12.1941C14.4482 11.8994 14.2759 11.6325 14.0456 11.4165L12.7727 10.2205C12.2747 9.75224 12.5484 8.94124 13.2348 8.84368ZM18.024 2.89711C18.099 2.89712 18.1732 2.88287 18.2425 2.85518C18.3118 2.82747 18.3747 2.78685 18.4278 2.73564C18.4808 2.68444 18.5229 2.62364 18.5516 2.55673C18.5803 2.48982 18.595 2.4181 18.595 2.34568V1.55143C18.595 1.24662 18.3393 1 18.024 1C17.7086 1 17.4529 1.24662 17.4529 1.55143V2.34568C17.4528 2.4181 17.4676 2.48982 17.4963 2.55673C17.525 2.62364 17.5671 2.68444 17.6201 2.73564C17.6731 2.78685 17.7361 2.82747 17.8054 2.85518C17.8747 2.88287 17.9489 2.89712 18.024 2.89711ZM13.2265 3.73445C13.3854 4.00086 13.7365 4.0869 14.0064 3.9364C14.0714 3.90019 14.1283 3.85197 14.174 3.79452C14.2196 3.73705 14.2531 3.67146 14.2726 3.60149C14.2919 3.53154 14.2969 3.45857 14.287 3.38677C14.2772 3.31496 14.2528 3.24573 14.2153 3.18303L13.804 2.49537C13.6465 2.23096 13.2966 2.1405 13.024 2.29342C12.9591 2.32963 12.9022 2.37785 12.8565 2.43531C12.8108 2.49278 12.7773 2.55835 12.758 2.62832C12.7386 2.69828 12.7337 2.77125 12.7435 2.84305C12.7533 2.91485 12.7776 2.98409 12.8152 3.04679L13.2265 3.73445ZM9.57278 6.5815L10.285 6.97835C10.5587 7.13045 10.9077 7.03957 11.0652 6.77641C11.1408 6.64971 11.1613 6.4992 11.1221 6.35795C11.0828 6.21668 10.9871 6.09624 10.856 6.02304L10.1439 5.62619C10.0789 5.58992 10.0072 5.56637 9.93282 5.5569C9.85844 5.54742 9.78286 5.5522 9.71039 5.57095C9.63792 5.58971 9.57 5.62208 9.5105 5.66621C9.451 5.71034 9.4011 5.76536 9.36364 5.82813C9.28802 5.95484 9.26757 6.10535 9.30679 6.2466C9.346 6.38785 9.44167 6.5083 9.57278 6.5815ZM8.5952 11.2071H9.41748C9.73287 11.2071 9.98857 10.9604 9.98857 10.6556C9.98857 10.3508 9.73287 10.1042 9.41748 10.1042H8.5952C8.2798 10.1042 8.02411 10.3508 8.02411 10.6556C8.02411 10.9604 8.2798 11.2071 8.5952 11.2071ZM26.0596 10.6557C26.0596 10.7281 26.0743 10.7998 26.1031 10.8667C26.1317 10.9337 26.1738 10.9945 26.2268 11.0456C26.2799 11.0969 26.3428 11.1375 26.4121 11.1651C26.4814 11.1929 26.5557 11.2071 26.6308 11.2071H27.453C27.7683 11.2071 28.0241 10.9605 28.0241 10.6557C28.0241 10.3509 27.7683 10.1043 27.453 10.1043H26.6308C26.5557 10.1042 26.4814 10.1185 26.4121 10.1462C26.3428 10.1739 26.2799 10.2146 26.2268 10.2658C26.1738 10.3169 26.1317 10.3778 26.1031 10.4446C26.0743 10.5116 26.0596 10.5833 26.0596 10.6557ZM25.7632 6.97835L26.4754 6.5815C26.6066 6.5083 26.7022 6.38785 26.7414 6.2466C26.7806 6.10535 26.7602 5.95484 26.6845 5.82813C26.5265 5.56483 26.1776 5.47326 25.9043 5.62619L25.1921 6.02304C25.061 6.09624 24.9654 6.21668 24.9262 6.35795C24.8869 6.4992 24.9074 6.64971 24.983 6.77641C25.0588 6.90298 25.1836 6.99534 25.3299 7.0332C25.4761 7.07106 25.632 7.05133 25.7632 6.97835ZM22.0418 3.9364C22.3121 4.08718 22.663 4.00045 22.8218 3.73445L23.2331 3.04679C23.2706 2.98408 23.295 2.91485 23.3048 2.84305C23.3146 2.77125 23.3096 2.69829 23.2903 2.62833C23.2709 2.55836 23.2374 2.49279 23.1917 2.43532C23.1461 2.37786 23.0891 2.32964 23.0242 2.29342C22.9593 2.25705 22.8876 2.23342 22.8132 2.22389C22.7389 2.21436 22.6632 2.21912 22.5908 2.23788C22.5183 2.25665 22.4504 2.28905 22.3909 2.33324C22.3314 2.37742 22.2816 2.43252 22.2443 2.49537L21.833 3.18303C21.7954 3.24573 21.771 3.31496 21.7612 3.38677C21.7514 3.45857 21.7563 3.53154 21.7757 3.6015C21.7951 3.67147 21.8286 3.73706 21.8742 3.79453C21.9199 3.85198 21.9769 3.90019 22.0418 3.9364Z" stroke="white" stroke-width="1.2"/>
<path d="M5.56563 19.8571C5.92591 19.8571 6.21781 20.1492 6.21781 20.5094V29.6406C6.21781 30.0007 5.92591 30.2929 5.56563 30.2929H1.65218C1.29202 30.2929 1 30.0007 1 29.6406V20.5094C1 20.1492 1.29202 19.8571 1.65218 19.8571H5.56563Z" stroke="white" stroke-width="2"/>
<path d="M6.21532 28.42C19.9121 32.9855 15.3464 32.9855 31 25.1588C30.0991 23.945 28.5355 23.4239 27.0866 23.8543L21.4566 25.6375" stroke="white" stroke-width="2"/>
<path d="M6.21532 21.161H10.1286C13.198 21.161 15.3464 23.77 15.9987 23.77H20.5643C21.8687 23.77 21.8687 26.3788 20.5643 26.3788H13.3898" stroke="white" stroke-width="2"/>
</g>
<defs>
<clipPath id="clip0_1144_7">
<rect width="33" height="33" fill="white"/>
</clipPath>
</defs>
</svg>
