<svg width="69" height="36" viewBox="0 0 69 36" fill="none" xmlns="http://www.w3.org/2000/svg">
<path d="M26.6732 1.00047H9.08739C7.21963 1.00047 5.7055 2.44873 5.7055 4.23526V25.7609C5.70518 27.6861 4.75754 29.4989 3.14745 30.6545L3 30.7606H20.5858L20.7333 30.6545C22.3432 29.4989 23.291 27.6861 23.2913 25.7609V4.42028C23.2538 2.71443 24.5573 1.25184 26.3242 1.01728C27.2768 0.922749 28.2267 1.21899 28.938 1.83248C29.6492 2.44596 30.055 3.31916 30.055 4.23526V8.76396C30.055 9.47858 29.4494 10.0579 28.7023 10.0579H23.2913" stroke="#223872" stroke-width="1.5"/>
<path d="M9.08739 6.17617H12.4693" stroke="#3FAFE9" stroke-width="1.5"/>
<path d="M11.7929 10.0579H19.2331" stroke="#3FAFE9" stroke-width="1.5"/>
<path d="M9.08739 13.9396H19.233" stroke="#3FAFE9" stroke-width="1.5"/>
<path d="M9.08739 17.8214H19.233" stroke="#3FAFE9" stroke-width="1.5"/>
<path d="M9.08739 21.7032H15.1748" stroke="#3FAFE9" stroke-width="1.5"/>
<path d="M9.08739 21.7032H19.233" stroke="#3FAFE9" stroke-width="1.5"/>
<path d="M9.08739 25.5849H15.1748" stroke="#3FAFE9" stroke-width="1.5"/>
<path d="M29.7843 16.4978H16.9215C15.1455 16.4978 13.7058 17.9375 13.7058 19.7135V32.5763C13.7058 34.3523 15.1455 35.792 16.9215 35.792H29.7843C31.5603 35.792 33 34.3523 33 32.5763V19.7135C33 17.9375 31.5603 16.4978 29.7843 16.4978Z" fill="#223872"/>
<path d="M22.773 29.3438L22.9119 28.7151L23.7994 28.584L23.6342 29.3438H22.773Z" fill="#4ABCEB" stroke="#4ABCEB"/>
<path d="M27.3752 29.3341L27.6364 28.0583L28.5046 27.9554L28.1839 29.3341H27.3752Z" fill="#4ABCEB" stroke="#4ABCEB"/>
<path d="M17.7254 29.6846L19.5397 29.072L19.4072 29.7361H17.7254V29.6846Z" fill="#4ABCEB"/>
<mask id="mask0_757_70" style="mask-type:luminance" maskUnits="userSpaceOnUse" x="17" y="29" width="3" height="1">
<path d="M17.7254 29.6846L19.5397 29.072L19.4072 29.7361H17.7254V29.6846Z" fill="white"/>
</mask>
<g mask="url(#mask0_757_70)">
<path d="M17.7254 29.6846L17.4681 28.9233L16.9215 29.1074V29.6846H17.7254ZM19.5397 29.072L20.328 29.2288L20.6003 27.8645L19.2824 28.3099L19.5397 29.072ZM19.4072 29.7361V30.54H20.0665L20.1955 29.8928L19.4072 29.7361ZM17.7254 29.7361H16.9215V30.54H17.7254V29.7361ZM17.9827 30.4459L19.7969 29.8333L19.2824 28.3099L17.4681 28.9233L17.9827 30.4459ZM18.7513 28.9145L18.6188 29.5785L20.1955 29.8928L20.328 29.2288L18.7513 28.9145ZM19.4072 28.9321H17.7254V30.54H19.4072V28.9321ZM18.5293 29.7361V29.6846H16.9215V29.7361H18.5293Z" fill="#4ABCEB"/>
</g>
<mask id="mask1_757_70" style="mask-type:luminance" maskUnits="userSpaceOnUse" x="17" y="22" width="13" height="8">
<path d="M29.019 27.5076C28.4336 27.5695 27.8601 27.6346 27.2988 27.7029L27.8366 25.1746C27.8939 24.9254 27.9225 24.6995 27.9225 24.4985C27.9225 23.7798 27.4881 23.4204 26.6193 23.4204H25.3149L24.316 28.1121C23.7119 28.2062 23.132 28.3051 22.576 28.4088L23.6376 23.4204H21.1728C20.8771 23.4204 20.7005 23.5643 20.6432 23.8513L19.5327 29.1026C18.8486 29.2955 18.2423 29.5021 17.7254 29.7216L19.067 23.4204C19.1622 22.9694 19.3244 22.6414 19.5537 22.434C19.7829 22.2282 20.141 22.1253 20.6281 22.1253H27.063C27.8559 22.1253 28.489 22.2837 28.9621 22.6004C29.4352 22.9164 29.6718 23.4051 29.6718 24.0676C29.6718 24.3457 29.6524 24.566 29.6137 24.7284L29.019 27.5076Z" fill="white"/>
</mask>
<g mask="url(#mask1_757_70)">
<path d="M68.2843 34.8619H15.992V20.2851H68.2843V34.8619Z" fill="white"/>
</g>
</svg>
