<svg width="49" height="39" viewBox="0 0 49 39" fill="none" xmlns="http://www.w3.org/2000/svg">
<mask id="mask0_875_237" style="mask-type:luminance" maskUnits="userSpaceOnUse" x="0" y="0" width="49" height="39">
<path d="M0.400024 0.0999756H48.4V38.0259H0.400024V0.0999756Z" fill="white"/>
</mask>
<g mask="url(#mask0_875_237)">
<path d="M42.8061 35.2694L42.8061 35.2694L42.8043 35.2748C42.4161 36.44 41.3127 37.2807 40.0128 37.2807H3.84773C2.22009 37.2807 0.900024 35.9621 0.900024 34.3353V14.8069C0.900024 13.5095 1.73987 12.4056 2.90654 12.0152L2.90654 12.0153L2.91043 12.0139C3.20455 11.9128 3.51774 11.8592 3.84773 11.8592L40.0128 11.8592L40.013 11.8592C41.6406 11.8586 42.9605 13.1789 42.9605 14.8062V34.3346C42.9605 34.6634 42.9067 34.9786 42.8061 35.2694Z" fill="white" stroke="#BF9BFF"/>
<path d="M11.4027 24.9537H4.53781C4.19716 24.9537 3.92143 24.678 3.92143 24.3373V18.3523C3.92143 18.0117 4.19716 17.7359 4.53781 17.7359H11.4027C11.7433 17.7359 12.019 18.0117 12.019 18.3523V24.3373C12.019 24.678 11.7433 24.9537 11.4027 24.9537Z" fill="#FF5900"/>
<path d="M7.53411 31.5074H4.52511C4.21059 31.5074 3.95554 31.1093 3.95554 30.6185C3.95554 30.1277 4.21059 29.7296 4.52511 29.7296H7.53411C7.84864 29.7296 8.10365 30.1277 8.10365 30.6185C8.10328 31.1093 7.84864 31.5074 7.53411 31.5074Z" fill="#FF5900"/>
<path d="M12.8675 31.5074H9.85849C9.54397 31.5074 9.28896 31.1093 9.28896 30.6185C9.28896 30.1277 9.54397 29.7296 9.85849 29.7296H12.8675C13.182 29.7296 13.4371 30.1277 13.4371 30.6185C13.4371 31.1093 13.182 31.5074 12.8675 31.5074Z" fill="#FF5900"/>
<path d="M18.7934 31.5074H15.7844C15.4699 31.5074 15.2148 31.1093 15.2148 30.6185C15.2148 30.1277 15.4699 29.7296 15.7844 29.7296H18.7934C19.1079 29.7296 19.363 30.1277 19.363 30.6185C19.363 31.1093 19.1079 31.5074 18.7934 31.5074Z" fill="#FF5900"/>
<path d="M24.1267 31.5074H21.1178C20.8032 31.5074 20.5482 31.1093 20.5482 30.6185C20.5482 30.1277 20.8032 29.7296 21.1178 29.7296H24.1267C24.4413 29.7296 24.6963 30.1277 24.6963 30.6185C24.696 31.1093 24.4413 31.5074 24.1267 31.5074Z" fill="#FF5900"/>
<path fill-rule="evenodd" clip-rule="evenodd" d="M10.6244 19.7533H12.0198V19.5363H10.6244C10.3784 19.5363 10.1776 19.7373 10.1776 19.9847V21.2358H9.31676V20.4529C9.31676 20.2032 9.11362 20.0008 8.86464 20.0008H8.07941V17.7354H7.86255V20.0008H7.09719C6.84827 20.0008 6.64507 20.2039 6.64507 20.4529V21.2358H5.76367V19.9847C5.76367 19.7373 5.56357 19.5363 5.31687 19.5363H3.92143V19.7533H5.31687C5.44365 19.7533 5.54676 19.8572 5.54676 19.9855V22.7053C5.54676 22.8336 5.44365 22.9375 5.31687 22.9375H3.92143V23.1544H5.31687C5.5628 23.1544 5.76367 22.9536 5.76367 22.7061V21.4543H6.64507V22.2371C6.64507 22.4869 6.84827 22.69 7.09719 22.69H7.86255V24.9554H8.07941V22.69H8.86464C9.11362 22.69 9.31676 22.4869 9.31676 22.2371V21.4543H10.1776V22.7061C10.1776 22.9536 10.3777 23.1544 10.6244 23.1544H12.0198V22.9375H10.6244C10.4976 22.9375 10.3944 22.8336 10.3944 22.7053V19.9855C10.3944 19.8579 10.4976 19.7533 10.6244 19.7533ZM9.0999 22.2363C9.0999 22.3662 8.99448 22.4723 8.86384 22.4723H7.09652C6.96661 22.4723 6.86045 22.3662 6.86045 22.2363V20.4545C6.86045 20.3247 6.96587 20.2184 7.09652 20.2184H8.86384C8.99368 20.2184 9.0999 20.3247 9.0999 20.4545V22.2363Z" fill="white" stroke="white" stroke-width="0.1"/>
<path d="M33.363 27.1926C33.7795 27.1926 34.1745 27.2822 34.5302 27.4433C33.9091 28.1243 33.5297 29.0308 33.5297 30.0259C33.5297 31.021 33.9091 31.9275 34.5303 32.6085C34.1745 32.7696 33.7795 32.8592 33.363 32.8592C31.7982 32.8592 30.5297 31.5907 30.5297 30.0259C30.5297 28.4611 31.7982 27.1926 33.363 27.1926Z" stroke="#BF9BFF"/>
<path d="M37.1963 30.0259C37.1963 29.0308 36.8168 28.1243 36.1957 27.4433C36.5515 27.2822 36.9464 27.1926 37.363 27.1926C38.9278 27.1926 40.1963 28.4611 40.1963 30.0259C40.1963 31.5907 38.9278 32.8592 37.363 32.8592C36.9464 32.8592 36.5514 32.7696 36.1957 32.6085C36.8168 31.9276 37.1963 31.021 37.1963 30.0259Z" stroke="#BF9BFF"/>
<path fill-rule="evenodd" clip-rule="evenodd" d="M35.363 32.6927C36.1726 32.0846 36.6963 31.1163 36.6963 30.0258C36.6963 28.9353 36.1726 27.9671 35.363 27.3589C34.5533 27.9671 34.0296 28.9353 34.0296 30.0258C34.0296 31.1163 34.5533 32.0846 35.363 32.6927Z" fill="#FF5900"/>
<path d="M27.5646 4.79388L27.2813 4.58806L27.5312 4.34274L29.4117 2.49641L29.552 2.35861L29.7336 2.43444L39.1239 6.35844L39.5981 5.88421C39.598 5.88435 39.5982 5.88407 39.5981 5.88421C42.0134 3.45194 43.8023 1.95336 45.0882 1.15286C45.7295 0.753648 46.2656 0.515323 46.7052 0.431152C47.1493 0.346146 47.5399 0.412682 47.8136 0.686361L47.8184 0.691289C48.0858 0.971476 48.1539 1.36146 48.0693 1.8089C47.9858 2.25073 47.7486 2.78681 47.3517 3.42816C46.5557 4.714 45.0663 6.50262 42.6516 8.93468L42.6508 8.93542L42.1758 9.41044L46.0998 18.8008L46.1765 18.984L46.036 19.1245L44.1554 21.005L43.9089 21.2515L43.7054 20.9685L38.1187 13.2005C36.689 14.4681 35.2652 15.6715 34.0285 16.6032L35.1705 20.6818L35.2172 20.8487L35.0947 20.9712L33.8296 22.2363L33.5696 22.4963L33.3709 22.1871L31.053 18.5815C30.8485 18.6777 30.6611 18.7487 30.4978 18.7887C30.3851 18.8162 30.2698 18.8325 30.161 18.8247C30.0528 18.8169 29.9227 18.7826 29.8205 18.6804C29.7182 18.5782 29.684 18.448 29.6763 18.3399C29.6684 18.2311 29.6847 18.1158 29.7123 18.0031C29.752 17.8402 29.8229 17.6534 29.9187 17.4495L26.3154 15.1653L26.0029 14.9671L26.2646 14.7055L27.5296 13.4404L27.6522 13.3178L27.819 13.3645L31.9008 14.5074C32.8568 13.273 34.0332 11.849 35.3016 10.4153L27.5646 4.79388Z" fill="url(#paint0_linear_875_237)"/>
<path d="M39.5981 5.88421L39.1239 6.35844L29.7336 2.43444L29.552 2.35861L29.4117 2.49641L27.5312 4.34274L27.2813 4.58806L27.5646 4.79388L35.3016 10.4153C34.0332 11.849 32.8568 13.273 31.9008 14.5074L27.819 13.3645L27.6522 13.3178L27.5296 13.4404L26.2646 14.7055L26.0029 14.9671L26.3154 15.1653L29.9187 17.4495C29.8229 17.6534 29.752 17.8402 29.7123 18.0031C29.6847 18.1158 29.6684 18.2311 29.6763 18.3399C29.684 18.448 29.7182 18.5782 29.8205 18.6804C29.9227 18.7826 30.0528 18.8169 30.161 18.8247C30.2698 18.8325 30.3851 18.8162 30.4978 18.7887C30.6611 18.7487 30.8485 18.6777 31.053 18.5815L33.3709 22.1871L33.5696 22.4963L33.8296 22.2363L35.0947 20.9712L35.2172 20.8487L35.1705 20.6818L34.0285 16.6032C35.2652 15.6715 36.689 14.4681 38.1187 13.2005L43.7054 20.9685L43.9089 21.2515L44.1554 21.005L46.036 19.1245L46.1765 18.984L46.0998 18.8008L42.1758 9.41044L42.6508 8.93542L42.6516 8.93468C45.0663 6.50262 46.5557 4.714 47.3517 3.42816C47.7486 2.78681 47.9858 2.25073 48.0693 1.8089C48.1539 1.36146 48.0858 0.971476 47.8184 0.691289L47.8136 0.686361C47.5399 0.412682 47.1493 0.346146 46.7052 0.431152C46.2656 0.515323 45.7295 0.753648 45.0882 1.15286C43.8023 1.95336 42.0134 3.45194 39.5981 5.88421ZM39.5981 5.88421C39.5982 5.88407 39.598 5.88435 39.5981 5.88421Z" stroke="#FF5900"/>
</g>
<defs>
<linearGradient id="paint0_linear_875_237" x1="46.6223" y1="0.692598" x2="30.0304" y2="18.4711" gradientUnits="userSpaceOnUse">
<stop stop-color="#CCDFFF"/>
<stop offset="0.338542" stop-color="#C3B0FF"/>
<stop offset="1" stop-color="#B78EFF"/>
</linearGradient>
</defs>
</svg>
