<svg width="48" height="48" viewBox="0 0 48 48" fill="none" xmlns="http://www.w3.org/2000/svg">
<g clip-path="url(#clip0_2191_259)">
<path d="M24 48C37.2548 48 48 37.2548 48 24C48 10.7452 37.2548 0 24 0C10.7452 0 0 10.7452 0 24C0 37.2548 10.7452 48 24 48Z" fill="white"/>
<path d="M34.8338 18.8736C34.7676 18.7958 34.6853 18.7332 34.5926 18.6903C34.4999 18.6474 34.399 18.6251 34.2968 18.625H16.6791L15.2878 13.5184C15.2472 13.3696 15.1589 13.2382 15.0363 13.1445C14.9137 13.0508 14.7637 13 14.6094 13H11.7031C11.3145 13 11 13.3145 11 13.7031C11 14.0918 11.3145 14.4062 11.7031 14.4062H14.0724L17.9655 28.6695C17.2276 29.0009 16.7187 29.7244 16.7187 30.5781C16.7187 31.5505 17.3833 32.363 18.2798 32.6061C18.1819 32.8491 18.125 33.1129 18.125 33.3906C18.125 34.5537 19.0712 35.5 20.2344 35.5C21.3975 35.5 22.3437 34.5537 22.3437 33.3906C22.3437 33.1429 22.293 32.9085 22.2142 32.6875H28.0982C28.0194 32.9085 27.9687 33.1429 27.9687 33.3906C27.9687 34.5537 28.9149 35.5 30.0781 35.5C31.2412 35.5 32.1875 34.5537 32.1875 33.3906C32.1875 32.2274 31.2412 31.2812 30.0781 31.2812H18.8281C18.4408 31.2812 18.125 30.966 18.125 30.5781C18.125 29.9231 18.9691 29.7851 18.8281 29.8612C18.9687 29.8612 19.4441 29.8025 32.9593 28.4653C33.1132 28.4503 33.2579 28.3848 33.3709 28.2792C33.4838 28.1735 33.5588 28.0336 33.5841 27.881L34.9904 19.4435C35.0072 19.3428 35.0019 19.2397 34.9749 19.1413C34.9479 19.0428 34.8997 18.9515 34.8338 18.8736ZM20.9375 33.3906C20.9375 33.7785 20.6216 34.0937 20.2344 34.0937C19.8471 34.0937 19.5312 33.7785 19.5312 33.3906C19.5312 33.0027 19.8471 32.6875 20.2344 32.6875C20.6216 32.6875 20.9375 33.0027 20.9375 33.3906ZM30.0781 34.0937C29.6908 34.0937 29.375 33.7785 29.375 33.3906C29.375 33.0027 29.6908 32.6875 30.0781 32.6875C30.4654 32.6875 30.7812 33.0027 30.7812 33.3906C30.7812 33.7785 30.4654 34.0937 30.0781 34.0937ZM22.3437 24.9531C22.3437 25.3417 22.0292 25.6562 21.6406 25.6562C21.252 25.6562 20.9375 25.3417 20.9375 24.9531V22.1406C20.9375 21.752 21.252 21.4375 21.6406 21.4375C22.0292 21.4375 22.3437 21.752 22.3437 22.1406V24.9531ZM26.5625 24.9531C26.5625 25.3417 26.248 25.6562 25.8594 25.6562C25.4707 25.6562 25.1562 25.3417 25.1562 24.9531V22.1406C25.1562 21.752 25.4707 21.4375 25.8594 21.4375C26.248 21.4375 26.5625 21.752 26.5625 22.1406V24.9531ZM30.7812 24.9531C30.7812 25.3417 30.4667 25.6562 30.0781 25.6562C29.6895 25.6562 29.375 25.3417 29.375 24.9531V22.1406C29.375 21.752 29.6895 21.4375 30.0781 21.4375C30.4667 21.4375 30.7812 21.752 30.7812 22.1406V24.9531Z" fill="#20336B"/>
<path d="M32.1875 15.1094C32.1875 14.7207 31.873 14.4063 31.4844 14.4063H30.3692L30.5753 14.2002C30.8499 13.9256 30.8499 13.4806 30.5753 13.206C30.3006 12.9313 29.8556 12.9313 29.581 13.206L28.6719 14.1151L27.7627 13.206C27.4881 12.9313 27.0431 12.9313 26.7685 13.206C26.4938 13.4806 26.4938 13.9256 26.7685 14.2002L26.9745 14.4063H25.8594C25.4707 14.4063 25.1562 14.7207 25.1562 15.1094V17.2188H32.1875V15.1094ZM23.75 15.8125H18.8281C18.4395 15.8125 18.125 16.127 18.125 16.5156V17.2188H23.75V15.8125Z" fill="#24BAF2"/>
</g>
<defs>
<clipPath id="clip0_2191_259">
<rect width="48" height="48" fill="white"/>
</clipPath>
</defs>
</svg>
