<svg width="25" height="24" viewBox="0 0 25 24" fill="none" xmlns="http://www.w3.org/2000/svg">
<rect x="0.5" width="24" height="24" rx="4" fill="#20336B"/>
<rect x="4.5" y="2" width="16" height="10" rx="2" fill="white"/>
<path d="M10.516 4.44L10.396 5.52L11.488 5.214L11.584 5.952L10.588 6.024L11.242 6.894L10.576 7.248L10.12 6.33L9.718 7.242L9.028 6.894L9.676 6.024L8.686 5.946L8.8 5.214L9.868 5.52L9.748 4.44H10.516ZM15.0575 6.528L14.9195 7.206H15.6755V7.812H14.8055L14.5775 9H13.9355L14.1635 7.812H13.5935L13.3715 9H12.7415L12.9575 7.812H12.2615V7.206H13.0715L13.2095 6.528H12.4715V5.916H13.3175L13.5455 4.722H14.1875L13.9595 5.916H14.5415L14.7695 4.722H15.3995L15.1715 5.916H15.8735V6.528H15.0575ZM13.7075 7.206H14.2835L14.4215 6.528H13.8455L13.7075 7.206Z" fill="#4ABCEB"/>
<path d="M6.588 20.06C5.526 20.06 4.812 19.466 4.812 18.278V15.692H5.7V18.248C5.7 18.974 6.054 19.286 6.588 19.286C7.128 19.286 7.482 18.974 7.482 18.248V15.692H8.364V18.278C8.364 19.466 7.65 20.06 6.588 20.06ZM8.98373 19.214L9.58973 18.626C9.90773 19.076 10.3697 19.328 10.8437 19.328C11.2937 19.328 11.6237 19.13 11.6237 18.764C11.6237 18.368 11.2157 18.314 10.5677 18.17C9.92573 18.02 9.22973 17.816 9.22973 16.964C9.22973 16.142 9.93773 15.626 10.8317 15.626C11.5757 15.626 12.1577 15.956 12.4577 16.388L11.8757 16.958C11.6237 16.604 11.2877 16.364 10.8077 16.364C10.3877 16.364 10.0997 16.568 10.0997 16.88C10.0997 17.216 10.4117 17.282 10.9757 17.408C11.6597 17.558 12.4997 17.732 12.4997 18.674C12.4997 19.544 11.7317 20.066 10.8137 20.066C10.0877 20.066 9.33173 19.736 8.98373 19.214ZM12.9648 19.214L13.5708 18.626C13.8888 19.076 14.3508 19.328 14.8248 19.328C15.2748 19.328 15.6048 19.13 15.6048 18.764C15.6048 18.368 15.1968 18.314 14.5488 18.17C13.9068 18.02 13.2108 17.816 13.2108 16.964C13.2108 16.142 13.9188 15.626 14.8128 15.626C15.5568 15.626 16.1388 15.956 16.4388 16.388L15.8568 16.958C15.6048 16.604 15.2688 16.364 14.7888 16.364C14.3688 16.364 14.0808 16.568 14.0808 16.88C14.0808 17.216 14.3928 17.282 14.9568 17.408C15.6408 17.558 16.4808 17.732 16.4808 18.674C16.4808 19.544 15.7128 20.066 14.7948 20.066C14.0688 20.066 13.3128 19.736 12.9648 19.214ZM17.331 20V15.692H18.813C20.169 15.692 20.997 16.532 20.997 17.846C20.997 19.16 20.169 20 18.813 20H17.331ZM18.195 19.244H18.813C19.647 19.244 20.127 18.692 20.127 17.846C20.127 16.994 19.647 16.448 18.807 16.448H18.195V19.244Z" fill="white"/>
</svg>
