<svg width="96" height="24" viewBox="0 0 96 24" fill="none" xmlns="http://www.w3.org/2000/svg">
<mask id="mask0_962_19010" style="mask-type:luminance" maskUnits="userSpaceOnUse" x="0" y="0" width="23" height="24">
<path d="M0 0.923096H22.399V23.0762H0V0.923096Z" fill="white"/>
</mask>
<g mask="url(#mask0_962_19010)">
<path fill-rule="evenodd" clip-rule="evenodd" d="M3.40516 0.923096C1.50886 1.01527 0 2.56655 0 4.46672V19.5283C0 21.4877 1.60455 23.0762 3.58385 23.0762H18.7978C20.7771 23.0762 22.3816 21.4877 22.3816 19.5283V4.46672C22.3816 3.91121 22.2526 3.38553 22.0228 2.9174H22.0193L14.1774 18.0527H7.48452L3.27445 5.78406C3.27445 5.78406 7.05271 5.78406 8.09622 6.03665C9.13479 6.28804 9.53179 7.64746 10.9899 12.6406L11.0109 12.7123L17.5597 0.923096H3.40516Z" fill="#37CC00"/>
</g>
<path d="M34.4231 13.0824H26.6702C26.663 13.2031 26.6595 13.2955 26.6595 13.3594C26.6595 14.1128 26.8766 14.7204 27.3109 15.1823C27.7452 15.6443 28.2746 15.8752 28.8992 15.8752C29.9257 15.8752 30.7261 15.3493 31.3004 14.2975L34.0677 14.756C33.5294 15.8575 32.8097 16.6836 31.9088 17.2344C31.0079 17.7852 29.9975 18.0606 28.8776 18.0606C27.3414 18.0606 26.0923 17.5791 25.1304 16.6161C24.1685 15.6532 23.6875 14.3793 23.6875 12.7944C23.6875 11.2452 24.1218 9.86649 24.9904 8.65838C26.1749 7.02384 27.8655 6.20656 30.0621 6.20656C31.4619 6.20656 32.5746 6.63475 33.4002 7.49111C34.2257 8.34746 34.6384 9.54674 34.6384 11.0889C34.6384 11.828 34.5667 12.4925 34.4231 13.0824ZM31.8173 11.2168C31.8245 11.0818 31.828 10.9787 31.828 10.9076C31.828 10.069 31.6378 9.4401 31.2573 9.02082C30.8769 8.60153 30.3672 8.39188 29.7283 8.39188C29.0894 8.39188 28.5169 8.62996 28.0108 9.1061C27.5047 9.58222 27.162 10.2858 26.9825 11.2168H31.8173ZM37.7719 6.47307H40.6578L40.1947 8.66904C41.2715 7.02739 42.438 6.20656 43.6942 6.20656C44.1394 6.20656 44.6167 6.31672 45.1264 6.53704L43.9419 9.04215C43.6619 8.94265 43.3641 8.8929 43.0482 8.8929C42.517 8.8929 41.9768 9.09188 41.4277 9.48983C40.8785 9.88783 40.4495 10.4191 40.1409 11.0836C39.8322 11.748 39.5271 12.8016 39.2256 14.2442L38.4718 17.794H35.3814L37.7719 6.47307ZM47.4307 2.1664H50.5211L49.9396 4.93802H46.8493L47.4307 2.1664ZM46.5262 6.47307H49.6166L47.2261 17.794H44.1357L46.5262 6.47307ZM58.231 6.47307L57.7571 8.71168H55.5713L53.6546 17.794H50.5642L52.4809 8.71168H50.758L51.2319 6.47307H52.9546L53.2024 5.31113C53.4034 4.35883 53.5936 3.71567 53.773 3.38165C54.0171 2.92682 54.3814 2.56615 54.8659 2.29965C55.3505 2.03315 55.9841 1.8999 56.7665 1.8999C57.7141 1.8999 58.7119 2.07046 59.76 2.41159L59.157 4.5969C58.4176 4.34817 57.8182 4.2238 57.3588 4.2238C57.007 4.2238 56.745 4.33395 56.5726 4.55426C56.4578 4.69639 56.3394 5.0695 56.2174 5.67357L56.0451 6.47307H58.231ZM58.5648 6.47307H61.6444L62.4197 12.1123C62.6135 13.562 62.7212 14.5783 62.7427 15.1611C63.1447 14.0026 63.6975 12.7803 64.401 11.494L67.136 6.47307H70.4095L63.3457 18.9027C62.7642 19.9331 62.3066 20.6545 61.9728 21.0667C61.639 21.4789 61.237 21.8022 60.7668 22.0367C60.2966 22.2713 59.7313 22.3885 59.0708 22.3885C58.4176 22.3885 57.6818 22.2748 56.8635 22.0475L57.1326 19.7662C57.5059 19.8728 57.8684 19.9261 58.2201 19.9261C59.1677 19.9261 59.9466 19.2154 60.5568 17.794L58.5648 6.47307ZM81.005 13.0824H73.2522C73.245 13.2031 73.2415 13.2955 73.2415 13.3594C73.2415 14.1128 73.4586 14.7204 73.8929 15.1823C74.3272 15.6443 74.8566 15.8752 75.4811 15.8752C76.5076 15.8752 77.308 15.3493 77.8823 14.2975L80.6498 14.756C80.1113 15.8575 79.3917 16.6836 78.4908 17.2344C77.5898 17.7852 76.5794 18.0606 75.4595 18.0606C73.9233 18.0606 72.6742 17.5791 71.7123 16.6161C70.7504 15.6532 70.2694 14.3793 70.2694 12.7944C70.2694 11.2452 70.7037 9.86649 71.5724 8.65838C72.7568 7.02384 74.4474 6.20656 76.644 6.20656C78.0439 6.20656 79.1565 6.63475 79.9821 7.49111C80.8077 8.34746 81.2205 9.54674 81.2205 11.0889C81.2205 11.828 81.1487 12.4925 81.005 13.0824ZM78.3992 11.2168C78.4064 11.0818 78.41 10.9787 78.41 10.9076C78.41 10.069 78.2197 9.4401 77.8393 9.02082C77.4588 8.60153 76.9491 8.39188 76.3102 8.39188C75.6714 8.39188 75.0989 8.62996 74.5928 9.1061C74.0867 9.58222 73.7439 10.2858 73.5644 11.2168H78.3992ZM92.6991 17.794H89.7701L90.0286 16.5681C89.4687 17.1012 88.9177 17.4832 88.3757 17.7141C87.8337 17.9451 87.2218 18.0606 86.5398 18.0606C85.3553 18.0606 84.3952 17.6608 83.6593 16.8613C82.9235 16.0618 82.5557 14.8803 82.5557 13.3168C82.5557 11.5046 83.0725 9.86656 84.1063 8.40255C85.1399 6.93856 86.5074 6.20656 88.2088 6.20656C89.745 6.20656 90.8971 6.81063 91.6653 8.01878L92.9036 2.1664H95.994L92.6991 17.794ZM85.5599 13.1889C85.5599 13.9991 85.7663 14.6316 86.1791 15.0864C86.5918 15.5413 87.0997 15.7687 87.7027 15.7687C88.2626 15.7687 88.7849 15.5786 89.2695 15.1983C89.754 14.8181 90.1417 14.2371 90.4324 13.4554C90.7231 12.6737 90.8685 11.9239 90.8685 11.2061C90.8685 10.3888 90.646 9.72791 90.2009 9.22337C89.7558 8.71879 89.2425 8.4665 88.661 8.4665C87.7565 8.4665 87.0135 8.96397 86.4321 9.95893C85.8506 10.9539 85.5599 12.0305 85.5599 13.1889Z" fill="#0671E4"/>
</svg>
