<svg width="56" height="56" viewBox="0 0 56 56" fill="none" xmlns="http://www.w3.org/2000/svg">
<g clip-path="url(#clip0_2281_95)">
<path d="M28 55.5C43.1878 55.5 55.5 43.1878 55.5 28C55.5 12.8122 43.1878 0.5 28 0.5C12.8122 0.5 0.5 12.8122 0.5 28C0.5 43.1878 12.8122 55.5 28 55.5Z" stroke="#2988E2"/>
<path d="M15.3939 27.1384H18.5215V23.9328C18.5215 23.8022 18.5734 23.677 18.6657 23.5846C18.7581 23.4923 18.8833 23.4404 19.0139 23.4404H20.1256V17.6566C20.1256 17.2939 20.4196 17 20.7822 17H40.3434C40.7061 17 41 17.2939 41 17.6566V30.2089C41 30.5715 40.7061 30.8655 40.3434 30.8655H33.5501C33.6808 31.6162 33.9617 32.8566 34.5272 34.0878C34.5731 34.1879 34.5932 34.2979 34.5855 34.4077C34.5778 34.5175 34.5427 34.6236 34.4833 34.7163C34.4238 34.809 34.3421 34.8852 34.2455 34.938C34.1489 34.9908 34.0406 35.0185 33.9305 35.0185H29.2999V36.7434C29.2999 36.874 29.248 36.9992 29.1556 37.0916C29.0633 37.1839 28.938 37.2358 28.8074 37.2358H21.7182V37.8334C21.7182 37.9378 21.6767 38.038 21.6028 38.1119C21.5289 38.1858 21.4287 38.2273 21.3242 38.2273H15.3939C15.2895 38.2273 15.1893 38.1858 15.1154 38.1119C15.0415 38.038 15 37.9378 15 37.8334V27.5324C15 27.4279 15.0415 27.3277 15.1154 27.2538C15.1893 27.1799 15.2895 27.1384 15.3939 27.1384ZM29.2999 23.9328V29.5524H39.6869V18.3131H21.4387V23.4403H28.8074C28.9381 23.4403 29.0633 23.4922 29.1556 23.5846C29.248 23.6769 29.2999 23.8022 29.2999 23.9328ZM21.7182 36.251H28.315V35.6792H24.403V35.7254C24.403 35.9974 24.1826 36.2178 23.9106 36.2178C23.6386 36.2178 23.4182 35.9974 23.4182 35.7254V35.6792H21.7182V36.251ZM21.7182 27.5324V34.6943H28.315V24.4252H19.5063V27.1384H21.3242C21.4287 27.1384 21.5289 27.1799 21.6028 27.2538C21.6767 27.3277 21.7182 27.4279 21.7182 27.5324ZM15.7879 37.4394H20.9303V36.9756H18.753V37.0147C18.753 37.1192 18.7115 37.2194 18.6376 37.2933C18.5637 37.3672 18.4635 37.4087 18.3591 37.4087C18.2546 37.4087 18.1544 37.3672 18.0805 37.2933C18.0066 37.2194 17.9651 37.1192 17.9651 37.0147V36.9756H15.7879V37.4394ZM15.7879 36.1876H20.9303V29.178H15.7879V36.1876ZM15.7879 28.3902H20.9303V27.9263H15.7879V28.3902Z" fill="url(#paint0_linear_2281_95)"/>
</g>
<defs>
<linearGradient id="paint0_linear_2281_95" x1="28" y1="17" x2="28" y2="38.2273" gradientUnits="userSpaceOnUse">
<stop stop-color="#37CC00"/>
<stop offset="1" stop-color="#2988E2"/>
</linearGradient>
<clipPath id="clip0_2281_95">
<rect width="56" height="56" fill="white"/>
</clipPath>
</defs>
</svg>
