<svg width="425" height="186" viewBox="0 0 425 186" fill="none" xmlns="http://www.w3.org/2000/svg">
<path d="M13.93 13.04L15.302 11.906C16.002 12.998 17.052 13.628 18.2 13.628C19.334 13.628 20.188 13.11 20.188 12.144C20.188 11.122 19.138 10.982 17.64 10.618C16.128 10.254 14.504 9.80601 14.504 7.84601C14.504 5.98401 16.1 4.79401 18.13 4.79401C19.852 4.79401 21.196 5.60601 21.868 6.65601L20.552 7.79001C19.992 6.92201 19.25 6.32001 18.074 6.32001C16.996 6.32001 16.254 6.86601 16.254 7.66401C16.254 8.54601 17.024 8.72801 18.382 9.03601C20.006 9.40001 21.952 9.77801 21.952 11.962C21.952 13.936 20.216 15.154 18.144 15.154C16.422 15.154 14.714 14.328 13.93 13.04ZM29.8985 11.332C29.8985 13.614 28.4285 15.154 26.3565 15.154C24.2845 15.154 22.8145 13.614 22.8145 11.332C22.8145 9.05001 24.2845 7.51001 26.3565 7.51001C28.4285 7.51001 29.8985 9.05001 29.8985 11.332ZM24.5085 11.332C24.5085 12.83 25.2225 13.74 26.3565 13.74C27.4905 13.74 28.2045 12.83 28.2045 11.332C28.2045 9.83401 27.4905 8.92401 26.3565 8.92401C25.2225 8.92401 24.5085 9.83401 24.5085 11.332ZM34.6082 4.80801V6.27801C34.4122 6.26401 34.3142 6.26401 34.1042 6.26401C33.4462 6.26401 33.0822 6.46001 33.0822 7.30001V7.65001H34.5802V9.07801H33.0822V15H31.4022V9.07801H30.3802V7.65001H31.4022V7.17401C31.4022 5.64801 32.2562 4.79401 33.9082 4.79401C34.1742 4.79401 34.3002 4.79401 34.6082 4.80801ZM35.9676 13.152V9.07801H34.9456V7.65001H35.9676V5.49401H37.6196V7.65001H39.1596V9.07801H37.6196V12.886C37.6196 13.544 37.9976 13.614 38.5996 13.614C38.8796 13.614 39.0336 13.6 39.2856 13.572V14.986C38.9776 15.042 38.5576 15.084 38.1236 15.084C36.7236 15.084 35.9676 14.65 35.9676 13.152ZM51.0169 6.51601H47.7829V15H45.9909V6.51601H42.7569V4.94801H51.0169V6.51601ZM57.0509 11.332C57.0509 13.614 55.5809 15.154 53.5089 15.154C51.4369 15.154 49.9669 13.614 49.9669 11.332C49.9669 9.05001 51.4369 7.51001 53.5089 7.51001C55.5809 7.51001 57.0509 9.05001 57.0509 11.332ZM51.6609 11.332C51.6609 12.83 52.3749 13.74 53.5089 13.74C54.6429 13.74 55.3569 12.83 55.3569 11.332C55.3569 9.83401 54.6429 8.92401 53.5089 8.92401C52.3749 8.92401 51.6609 9.83401 51.6609 11.332ZM60.0386 4.94801V10.744L62.8666 7.65001H64.9246L62.1526 10.506L65.1486 15H63.2026L61.0046 11.682L60.0386 12.662V15H58.3586V4.94801H60.0386ZM68.7537 15.154C66.6537 15.154 65.1837 13.6 65.1837 11.332C65.1837 9.17601 66.6397 7.51001 68.6837 7.51001C70.8117 7.51001 71.9457 9.12001 71.9457 11.136V11.696H66.7937C66.9197 12.956 67.6757 13.726 68.7537 13.726C69.5797 13.726 70.2377 13.306 70.4617 12.55L71.9037 13.096C71.3857 14.384 70.2237 15.154 68.7537 15.154ZM68.6697 8.92401C67.8017 8.92401 67.1297 9.44201 66.8777 10.436H70.2517C70.2377 9.62401 69.7337 8.92401 68.6697 8.92401ZM73.2062 15V7.65001H74.8862V8.43401C75.3062 7.94401 75.9642 7.51001 76.9162 7.51001C78.4562 7.51001 79.3802 8.57401 79.3802 10.156V15H77.7002V10.646C77.7002 9.73601 77.3362 9.07801 76.4122 9.07801C75.6562 9.07801 74.8862 9.63801 74.8862 10.688V15H73.2062ZM13.93 31.04L15.302 29.906C16.002 30.998 17.052 31.628 18.2 31.628C19.334 31.628 20.188 31.11 20.188 30.144C20.188 29.122 19.138 28.982 17.64 28.618C16.128 28.254 14.504 27.806 14.504 25.846C14.504 23.984 16.1 22.794 18.13 22.794C19.852 22.794 21.196 23.606 21.868 24.656L20.552 25.79C19.992 24.922 19.25 24.32 18.074 24.32C16.996 24.32 16.254 24.866 16.254 25.664C16.254 26.546 17.024 26.728 18.382 27.036C20.006 27.4 21.952 27.778 21.952 29.962C21.952 31.936 20.216 33.154 18.144 33.154C16.422 33.154 14.714 32.328 13.93 31.04ZM29.8985 29.332C29.8985 31.614 28.4285 33.154 26.3565 33.154C24.2845 33.154 22.8145 31.614 22.8145 29.332C22.8145 27.05 24.2845 25.51 26.3565 25.51C28.4285 25.51 29.8985 27.05 29.8985 29.332ZM24.5085 29.332C24.5085 30.83 25.2225 31.74 26.3565 31.74C27.4905 31.74 28.2045 30.83 28.2045 29.332C28.2045 27.834 27.4905 26.924 26.3565 26.924C25.2225 26.924 24.5085 27.834 24.5085 29.332ZM32.8862 22.948V33H31.2062V22.948H32.8862ZM40.7695 25.65V33H39.0895V32.216C38.6695 32.706 38.0395 33.154 37.0875 33.154C35.5475 33.154 34.5955 32.104 34.5955 30.522V25.65H36.2755V30.158C36.2755 31.054 36.6675 31.628 37.5775 31.628C38.3335 31.628 39.0895 31.068 39.0895 30.018V25.65H40.7695ZM42.6942 31.152V27.078H41.6722V25.65H42.6942V23.494H44.3462V25.65H45.8862V27.078H44.3462V30.886C44.3462 31.544 44.7242 31.614 45.3262 31.614C45.6062 31.614 45.7602 31.6 46.0122 31.572V32.986C45.7042 33.042 45.2842 33.084 44.8502 33.084C43.4502 33.084 42.6942 32.65 42.6942 31.152ZM47.2427 24.67V22.948H48.9787V24.67H47.2427ZM48.9507 25.65V33H47.2707V25.65H48.9507ZM57.338 29.332C57.338 31.614 55.868 33.154 53.796 33.154C51.724 33.154 50.254 31.614 50.254 29.332C50.254 27.05 51.724 25.51 53.796 25.51C55.868 25.51 57.338 27.05 57.338 29.332ZM51.948 29.332C51.948 30.83 52.662 31.74 53.796 31.74C54.93 31.74 55.644 30.83 55.644 29.332C55.644 27.834 54.93 26.924 53.796 26.924C52.662 26.924 51.948 27.834 51.948 29.332ZM58.6457 33V25.65H60.3257V26.434C60.7457 25.944 61.4037 25.51 62.3557 25.51C63.8957 25.51 64.8197 26.574 64.8197 28.156V33H63.1397V28.646C63.1397 27.736 62.7757 27.078 61.8517 27.078C61.0957 27.078 60.3257 27.638 60.3257 28.688V33H58.6457Z" fill="#0A2540"/>
<path d="M37 80L39.8868 75H34.1132L37 80ZM36.5 44V75.5H37.5V44H36.5Z" fill="#2988E2"/>
<path d="M118 115L113 112.113V117.887L118 115ZM78 115.5H113.5V114.5H78V115.5Z" fill="#2988E2"/>
<path d="M236 115L231 112.113V117.887L236 115ZM196 115.5H231.5V114.5H196V115.5Z" fill="#2988E2"/>
<path d="M356 115L351 112.113V117.887L356 115ZM316 115.5H351.5V114.5H316V115.5Z" fill="#2988E2"/>
<path d="M396.5 141.5C411.688 141.5 424 129.188 424 114C424 98.8122 411.688 86.5 396.5 86.5C381.312 86.5 369 98.8122 369 114C369 129.188 381.312 141.5 396.5 141.5Z" stroke="#2988E2"/>
<path d="M377.81 164H376.354L373.722 156.23V164H372.056V153.948H374.52L377.11 161.648L379.7 153.948H382.108V164H380.442V156.23L377.81 164ZM390.054 156.65V164H388.374V163.216C387.954 163.706 387.324 164.154 386.372 164.154C384.832 164.154 383.88 163.104 383.88 161.522V156.65H385.56V161.158C385.56 162.054 385.952 162.628 386.862 162.628C387.618 162.628 388.374 162.068 388.374 161.018V156.65H390.054ZM393.504 153.948V164H391.824V153.948H393.504ZM395.424 162.152V158.078H394.402V156.65H395.424V154.494H397.076V156.65H398.616V158.078H397.076V161.886C397.076 162.544 397.454 162.614 398.056 162.614C398.336 162.614 398.49 162.6 398.742 162.572V163.986C398.434 164.042 398.014 164.084 397.58 164.084C396.18 164.084 395.424 163.65 395.424 162.152ZM399.972 155.67V153.948H401.708V155.67H399.972ZM401.68 156.65V164H400V156.65H401.68ZM407.239 164.154C406.287 164.154 405.587 163.776 405.125 163.23V166.52H403.445V156.65H405.125V157.434C405.587 156.888 406.287 156.51 407.239 156.51C409.297 156.51 410.473 158.246 410.473 160.332C410.473 162.418 409.297 164.154 407.239 164.154ZM405.083 160.122V160.556C405.083 161.914 405.867 162.684 406.903 162.684C408.121 162.684 408.779 161.732 408.779 160.332C408.779 158.932 408.121 157.98 406.903 157.98C405.867 157.98 405.083 158.736 405.083 160.122ZM413.452 153.948V164H411.772V153.948H413.452ZM418.325 164.154C416.225 164.154 414.755 162.6 414.755 160.332C414.755 158.176 416.211 156.51 418.255 156.51C420.383 156.51 421.517 158.12 421.517 160.136V160.696H416.365C416.491 161.956 417.247 162.726 418.325 162.726C419.151 162.726 419.809 162.306 420.033 161.55L421.475 162.096C420.957 163.384 419.795 164.154 418.325 164.154ZM418.241 157.924C417.373 157.924 416.701 158.442 416.449 159.436H419.823C419.809 158.624 419.305 157.924 418.241 157.924ZM372.679 180V169.948H376.039C379.161 169.948 381.093 171.908 381.093 174.974C381.093 178.04 379.161 180 376.039 180H372.679ZM374.429 178.46H376.039C378.111 178.46 379.329 177.088 379.329 174.974C379.329 172.846 378.111 171.488 376.025 171.488H374.429V178.46ZM385.533 180.154C383.433 180.154 381.963 178.6 381.963 176.332C381.963 174.176 383.419 172.51 385.463 172.51C387.591 172.51 388.725 174.12 388.725 176.136V176.696H383.573C383.699 177.956 384.455 178.726 385.533 178.726C386.359 178.726 387.017 178.306 387.241 177.55L388.683 178.096C388.165 179.384 387.003 180.154 385.533 180.154ZM385.449 173.924C384.581 173.924 383.909 174.442 383.657 175.436H387.031C387.017 174.624 386.513 173.924 385.449 173.924ZM393.377 180H391.683L388.995 172.65H390.759L392.551 177.984L394.329 172.65H396.065L393.377 180ZM396.944 171.67V169.948H398.68V171.67H396.944ZM398.652 172.65V180H396.972V172.65H398.652ZM401.635 176.332C401.635 177.83 402.419 178.698 403.567 178.698C404.463 178.698 405.009 178.11 405.219 177.298L406.661 178.026C406.283 179.216 405.163 180.154 403.567 180.154C401.467 180.154 399.955 178.6 399.955 176.332C399.955 174.064 401.467 172.51 403.567 172.51C405.149 172.51 406.241 173.406 406.633 174.582L405.219 175.352C405.009 174.554 404.463 173.952 403.567 173.952C402.419 173.952 401.635 174.834 401.635 176.332ZM410.785 180.154C408.685 180.154 407.215 178.6 407.215 176.332C407.215 174.176 408.671 172.51 410.715 172.51C412.843 172.51 413.977 174.12 413.977 176.136V176.696H408.825C408.951 177.956 409.707 178.726 410.785 178.726C411.611 178.726 412.269 178.306 412.493 177.55L413.935 178.096C413.417 179.384 412.255 180.154 410.785 180.154ZM410.701 173.924C409.833 173.924 409.161 174.442 408.909 175.436H412.283C412.269 174.624 411.765 173.924 410.701 173.924ZM414.467 178.6L415.727 177.592C416.161 178.306 417.001 178.782 417.855 178.782C418.569 178.782 419.227 178.53 419.227 177.872C419.227 177.242 418.611 177.172 417.449 176.934C416.287 176.696 414.957 176.402 414.957 174.834C414.957 173.49 416.133 172.51 417.827 172.51C419.115 172.51 420.263 173.084 420.795 173.896L419.661 174.918C419.241 174.26 418.541 173.882 417.729 173.882C417.043 173.882 416.595 174.19 416.595 174.68C416.595 175.212 417.127 175.31 418.051 175.506C419.297 175.772 420.865 176.038 420.865 177.718C420.865 179.202 419.507 180.154 417.841 180.154C416.483 180.154 415.125 179.608 414.467 178.6Z" fill="#0A2540"/>
<path d="M276 141.5C291.188 141.5 303.5 129.188 303.5 114C303.5 98.8122 291.188 86.5 276 86.5C260.812 86.5 248.5 98.8122 248.5 114C248.5 129.188 260.812 141.5 276 141.5Z" stroke="#2988E2"/>
<path d="M251.064 165V154.948H255.054C257.21 154.948 258.358 155.886 258.358 157.594C258.358 158.84 257.63 159.484 256.93 159.764C257.98 160.1 258.68 160.968 258.68 162.2C258.68 163.964 257.378 165 255.306 165H251.064ZM252.786 159.106H254.886C256.034 159.106 256.664 158.658 256.664 157.776C256.664 156.894 256.034 156.46 254.886 156.46H252.786V159.106ZM252.786 160.618V163.488H255.208C256.342 163.488 256.958 162.9 256.958 162.046C256.958 161.206 256.342 160.618 255.208 160.618H252.786ZM261.882 165.126C260.482 165.126 259.404 164.272 259.404 162.956C259.404 161.556 260.454 160.94 261.868 160.646L263.898 160.226V160.1C263.898 159.4 263.534 158.966 262.638 158.966C261.84 158.966 261.42 159.33 261.224 160.044L259.642 159.68C260.006 158.462 261.084 157.51 262.708 157.51C264.472 157.51 265.536 158.35 265.536 160.044V163.208C265.536 163.628 265.718 163.754 266.18 163.698V165C264.962 165.14 264.318 164.902 264.066 164.3C263.604 164.818 262.834 165.126 261.882 165.126ZM263.898 162.41V161.514L262.316 161.85C261.602 162.004 261.07 162.228 261.07 162.886C261.07 163.46 261.49 163.782 262.134 163.782C263.03 163.782 263.898 163.306 263.898 162.41ZM268.591 161.332C268.591 162.83 269.375 163.698 270.523 163.698C271.419 163.698 271.965 163.11 272.175 162.298L273.617 163.026C273.239 164.216 272.119 165.154 270.523 165.154C268.423 165.154 266.911 163.6 266.911 161.332C266.911 159.064 268.423 157.51 270.523 157.51C272.105 157.51 273.197 158.406 273.589 159.582L272.175 160.352C271.965 159.554 271.419 158.952 270.523 158.952C269.375 158.952 268.591 159.834 268.591 161.332ZM276.313 154.948V160.744L279.141 157.65H281.199L278.427 160.506L281.423 165H279.477L277.279 161.682L276.313 162.662V165H274.633V154.948H276.313ZM281.188 161.668V160.17H285.108V161.668H281.188ZM292.673 157.65V165H290.993V164.216C290.573 164.706 289.943 165.154 288.991 165.154C287.451 165.154 286.499 164.104 286.499 162.522V157.65H288.179V162.158C288.179 163.054 288.571 163.628 289.481 163.628C290.237 163.628 290.993 163.068 290.993 162.018V157.65H292.673ZM298.238 165.154C297.286 165.154 296.586 164.776 296.124 164.23V167.52H294.444V157.65H296.124V158.434C296.586 157.888 297.286 157.51 298.238 157.51C300.296 157.51 301.472 159.246 301.472 161.332C301.472 163.418 300.296 165.154 298.238 165.154ZM296.082 161.122V161.556C296.082 162.914 296.866 163.684 297.902 163.684C299.12 163.684 299.778 162.732 299.778 161.332C299.778 159.932 299.12 158.98 297.902 158.98C296.866 158.98 296.082 159.736 296.082 161.122ZM250.466 181.04L251.838 179.906C252.538 180.998 253.588 181.628 254.736 181.628C255.87 181.628 256.724 181.11 256.724 180.144C256.724 179.122 255.674 178.982 254.176 178.618C252.664 178.254 251.04 177.806 251.04 175.846C251.04 173.984 252.636 172.794 254.666 172.794C256.388 172.794 257.732 173.606 258.404 174.656L257.088 175.79C256.528 174.922 255.786 174.32 254.61 174.32C253.532 174.32 252.79 174.866 252.79 175.664C252.79 176.546 253.56 176.728 254.918 177.036C256.542 177.4 258.488 177.778 258.488 179.962C258.488 181.936 256.752 183.154 254.68 183.154C252.958 183.154 251.25 182.328 250.466 181.04ZM265.794 175.65V183H264.114V182.216C263.694 182.706 263.064 183.154 262.112 183.154C260.572 183.154 259.62 182.104 259.62 180.522V175.65H261.3V180.158C261.3 181.054 261.692 181.628 262.602 181.628C263.358 181.628 264.114 181.068 264.114 180.018V175.65H265.794ZM271.359 183.154C270.407 183.154 269.707 182.776 269.245 182.23V185.52H267.565V175.65H269.245V176.434C269.707 175.888 270.407 175.51 271.359 175.51C273.417 175.51 274.593 177.246 274.593 179.332C274.593 181.418 273.417 183.154 271.359 183.154ZM269.203 179.122V179.556C269.203 180.914 269.987 181.684 271.023 181.684C272.241 181.684 272.899 180.732 272.899 179.332C272.899 177.932 272.241 176.98 271.023 176.98C269.987 176.98 269.203 177.736 269.203 179.122ZM279.685 183.154C278.733 183.154 278.033 182.776 277.571 182.23V185.52H275.891V175.65H277.571V176.434C278.033 175.888 278.733 175.51 279.685 175.51C281.743 175.51 282.919 177.246 282.919 179.332C282.919 181.418 281.743 183.154 279.685 183.154ZM277.529 179.122V179.556C277.529 180.914 278.313 181.684 279.349 181.684C280.567 181.684 281.225 180.732 281.225 179.332C281.225 177.932 280.567 176.98 279.349 176.98C278.313 176.98 277.529 177.736 277.529 179.122ZM290.839 179.332C290.839 181.614 289.369 183.154 287.297 183.154C285.225 183.154 283.755 181.614 283.755 179.332C283.755 177.05 285.225 175.51 287.297 175.51C289.369 175.51 290.839 177.05 290.839 179.332ZM285.449 179.332C285.449 180.83 286.163 181.74 287.297 181.74C288.431 181.74 289.145 180.83 289.145 179.332C289.145 177.834 288.431 176.924 287.297 176.924C286.163 176.924 285.449 177.834 285.449 179.332ZM296.319 175.636V177.316C296.109 177.288 295.941 177.274 295.703 177.274C294.639 177.274 293.827 177.96 293.827 179.136V183H292.147V175.65H293.827V176.742C294.149 176.056 294.905 175.608 295.843 175.608C296.039 175.608 296.193 175.622 296.319 175.636ZM297.769 181.152V177.078H296.747V175.65H297.769V173.494H299.421V175.65H300.961V177.078H299.421V180.886C299.421 181.544 299.799 181.614 300.401 181.614C300.681 181.614 300.835 181.6 301.087 181.572V182.986C300.779 183.042 300.359 183.084 299.925 183.084C298.525 183.084 297.769 182.65 297.769 181.152Z" fill="#0A2540"/>
<path d="M37.5 141.5C52.6878 141.5 65 129.188 65 114C65 98.8122 52.6878 86.5 37.5 86.5C22.3122 86.5 10 98.8122 10 114C10 129.188 22.3122 141.5 37.5 141.5Z" stroke="#2988E2"/>
<path d="M2.39581 163.04L3.76781 161.906C4.46781 162.998 5.51781 163.628 6.66581 163.628C7.79981 163.628 8.65381 163.11 8.65381 162.144C8.65381 161.122 7.60381 160.982 6.10581 160.618C4.59381 160.254 2.96981 159.806 2.96981 157.846C2.96981 155.984 4.56581 154.794 6.59581 154.794C8.31781 154.794 9.66181 155.606 10.3338 156.656L9.01781 157.79C8.45781 156.922 7.71581 156.32 6.53981 156.32C5.46181 156.32 4.71981 156.866 4.71981 157.664C4.71981 158.546 5.48981 158.728 6.84781 159.036C8.47181 159.4 10.4178 159.778 10.4178 161.962C10.4178 163.936 8.68181 165.154 6.60981 165.154C4.88781 165.154 3.17981 164.328 2.39581 163.04ZM14.8504 165.154C12.7504 165.154 11.2804 163.6 11.2804 161.332C11.2804 159.176 12.7364 157.51 14.7804 157.51C16.9084 157.51 18.0424 159.12 18.0424 161.136V161.696H12.8904C13.0164 162.956 13.7724 163.726 14.8504 163.726C15.6764 163.726 16.3344 163.306 16.5584 162.55L18.0004 163.096C17.4824 164.384 16.3204 165.154 14.8504 165.154ZM14.7664 158.924C13.8984 158.924 13.2264 159.442 12.9744 160.436H16.3484C16.3344 159.624 15.8304 158.924 14.7664 158.924ZM19.4569 163.152V159.078H18.4349V157.65H19.4569V155.494H21.1089V157.65H22.6489V159.078H21.1089V162.886C21.1089 163.544 21.4869 163.614 22.0889 163.614C22.3689 163.614 22.5229 163.6 22.7749 163.572V164.986C22.4669 165.042 22.0469 165.084 21.6129 165.084C20.2129 165.084 19.4569 164.65 19.4569 163.152ZM23.2875 161.668V160.17H27.2075V161.668H23.2875ZM34.7725 157.65V165H33.0925V164.216C32.6725 164.706 32.0425 165.154 31.0905 165.154C29.5505 165.154 28.5985 164.104 28.5985 162.522V157.65H30.2785V162.158C30.2785 163.054 30.6705 163.628 31.5805 163.628C32.3365 163.628 33.0925 163.068 33.0925 162.018V157.65H34.7725ZM40.3371 165.154C39.3851 165.154 38.6851 164.776 38.2231 164.23V167.52H36.5431V157.65H38.2231V158.434C38.6851 157.888 39.3851 157.51 40.3371 157.51C42.3951 157.51 43.5711 159.246 43.5711 161.332C43.5711 163.418 42.3951 165.154 40.3371 165.154ZM38.1811 161.122V161.556C38.1811 162.914 38.9651 163.684 40.0011 163.684C41.2191 163.684 41.8771 162.732 41.8771 161.332C41.8771 159.932 41.2191 158.98 40.0011 158.98C38.9651 158.98 38.1811 159.736 38.1811 161.122ZM46.8021 163.04L48.1741 161.906C48.8741 162.998 49.9241 163.628 51.0721 163.628C52.2061 163.628 53.0601 163.11 53.0601 162.144C53.0601 161.122 52.0101 160.982 50.5121 160.618C49.0001 160.254 47.3761 159.806 47.3761 157.846C47.3761 155.984 48.9721 154.794 51.0021 154.794C52.7241 154.794 54.0681 155.606 54.7401 156.656L53.4241 157.79C52.8641 156.922 52.1221 156.32 50.9461 156.32C49.8681 156.32 49.1261 156.866 49.1261 157.664C49.1261 158.546 49.8961 158.728 51.2541 159.036C52.8781 159.4 54.8241 159.778 54.8241 161.962C54.8241 163.936 53.0881 165.154 51.0161 165.154C49.2941 165.154 47.5861 164.328 46.8021 163.04ZM62.7706 161.332C62.7706 163.614 61.3006 165.154 59.2286 165.154C57.1566 165.154 55.6866 163.614 55.6866 161.332C55.6866 159.05 57.1566 157.51 59.2286 157.51C61.3006 157.51 62.7706 159.05 62.7706 161.332ZM57.3806 161.332C57.3806 162.83 58.0946 163.74 59.2286 163.74C60.3626 163.74 61.0766 162.83 61.0766 161.332C61.0766 159.834 60.3626 158.924 59.2286 158.924C58.0946 158.924 57.3806 159.834 57.3806 161.332ZM67.4803 154.808V156.278C67.2843 156.264 67.1863 156.264 66.9763 156.264C66.3183 156.264 65.9543 156.46 65.9543 157.3V157.65H67.4523V159.078H65.9543V165H64.2743V159.078H63.2523V157.65H64.2743V157.174C64.2743 155.648 65.1283 154.794 66.7803 154.794C67.0463 154.794 67.1723 154.794 67.4803 154.808ZM68.8397 163.152V159.078H67.8177V157.65H68.8397V155.494H70.4917V157.65H72.0317V159.078H70.4917V162.886C70.4917 163.544 70.8697 163.614 71.4717 163.614C71.7517 163.614 71.9057 163.6 72.1577 163.572V164.986C71.8497 165.042 71.4297 165.084 70.9957 165.084C69.5957 165.084 68.8397 164.65 68.8397 163.152ZM25.3186 174.516H22.0846V183H20.2926V174.516H17.0586V172.948H25.3186V174.516ZM31.3526 179.332C31.3526 181.614 29.8826 183.154 27.8106 183.154C25.7386 183.154 24.2686 181.614 24.2686 179.332C24.2686 177.05 25.7386 175.51 27.8106 175.51C29.8826 175.51 31.3526 177.05 31.3526 179.332ZM25.9626 179.332C25.9626 180.83 26.6766 181.74 27.8106 181.74C28.9446 181.74 29.6586 180.83 29.6586 179.332C29.6586 177.834 28.9446 176.924 27.8106 176.924C26.6766 176.924 25.9626 177.834 25.9626 179.332ZM34.3403 172.948V178.744L37.1683 175.65H39.2263L36.4543 178.506L39.4503 183H37.5043L35.3063 179.682L34.3403 180.662V183H32.6603V172.948H34.3403ZM43.0554 183.154C40.9554 183.154 39.4854 181.6 39.4854 179.332C39.4854 177.176 40.9414 175.51 42.9854 175.51C45.1134 175.51 46.2474 177.12 46.2474 179.136V179.696H41.0954C41.2214 180.956 41.9774 181.726 43.0554 181.726C43.8814 181.726 44.5394 181.306 44.7634 180.55L46.2054 181.096C45.6874 182.384 44.5254 183.154 43.0554 183.154ZM42.9714 176.924C42.1034 176.924 41.4314 177.442 41.1794 178.436H44.5534C44.5394 177.624 44.0354 176.924 42.9714 176.924ZM47.508 183V175.65H49.188V176.434C49.608 175.944 50.266 175.51 51.218 175.51C52.758 175.51 53.682 176.574 53.682 178.156V183H52.002V178.646C52.002 177.736 51.638 177.078 50.714 177.078C49.958 177.078 49.188 177.638 49.188 178.688V183H47.508Z" fill="#0A2540"/>
<path d="M156 141.5C171.188 141.5 183.5 129.188 183.5 114C183.5 98.8122 171.188 86.5 156 86.5C140.812 86.5 128.5 98.8122 128.5 114C128.5 129.188 140.812 141.5 156 141.5Z" stroke="#2988E2"/>
<path d="M165.5 108H162.5C162.367 108 162.24 107.947 162.146 107.854C162.053 107.76 162 107.633 162 107.5C162 107.367 162.053 107.24 162.146 107.146C162.24 107.053 162.367 107 162.5 107H165V104.5C165 104.367 165.053 104.24 165.146 104.146C165.24 104.053 165.367 104 165.5 104C165.633 104 165.76 104.053 165.854 104.146C165.947 104.24 166 104.367 166 104.5V107.5C166 107.633 165.947 107.76 165.854 107.854C165.76 107.947 165.633 108 165.5 108Z" fill="#37CC00"/>
<path d="M156 126C149.383 126 144 120.617 144 114C144 107.383 149.383 102 156 102C159.8 102 163.409 103.83 165.653 106.895C165.692 106.948 165.72 107.008 165.735 107.072C165.751 107.136 165.754 107.202 165.744 107.267C165.734 107.332 165.711 107.394 165.677 107.45C165.643 107.506 165.598 107.555 165.545 107.594C165.492 107.633 165.432 107.661 165.368 107.676C165.304 107.692 165.238 107.695 165.173 107.685C165.108 107.675 165.046 107.652 164.99 107.618C164.934 107.584 164.885 107.539 164.846 107.486C163.826 106.098 162.494 104.969 160.957 104.189C159.421 103.41 157.723 103.003 156 103C149.935 103 145 107.935 145 114C145 120.065 149.935 125 156 125C162.065 125 167 120.065 167 114C167 113.484 166.969 113.017 166.905 112.571C166.895 112.444 166.933 112.318 167.013 112.218C167.092 112.118 167.207 112.052 167.333 112.034C167.459 112.016 167.588 112.047 167.692 112.12C167.797 112.194 167.869 112.304 167.895 112.429C167.966 112.922 168 113.436 168 114C168 120.617 162.617 126 156 126Z" fill="#37CC00"/>
<path d="M156 122C155.933 122 155.867 121.987 155.806 121.96C155.568 121.861 150 119.454 150 114.536V110.357C150 110.143 150.137 109.952 150.34 109.883L155.84 108.026C155.944 107.991 156.056 107.991 156.16 108.026L161.66 109.883C161.863 109.952 162 110.143 162 110.357V114.536C162 119.454 156.432 121.861 156.194 121.961C156.133 121.987 156.067 122 156 122ZM151 110.716V114.536C151 118.321 155.055 120.494 156 120.95C156.944 120.493 161 118.312 161 114.536V110.716L156 109.028L151 110.716Z" fill="#2988E2"/>
<path d="M155.499 117L155.471 116.999C155.401 116.995 155.332 116.977 155.269 116.944C155.207 116.912 155.152 116.867 155.108 116.812L153.108 114.312C153.034 114.208 153.003 114.079 153.021 113.953C153.038 113.826 153.104 113.711 153.204 113.631C153.303 113.552 153.43 113.513 153.557 113.523C153.685 113.534 153.803 113.592 153.889 113.687L155.54 115.751L158.645 112.646C158.739 112.555 158.865 112.505 158.997 112.506C159.128 112.507 159.253 112.56 159.346 112.652C159.438 112.745 159.491 112.87 159.492 113.002C159.493 113.133 159.443 113.259 159.352 113.353L155.852 116.853C155.806 116.9 155.751 116.937 155.69 116.962C155.63 116.987 155.565 117 155.499 117Z" fill="#37CC00"/>
<path d="M130.063 163.04L131.435 161.906C132.135 162.998 133.185 163.628 134.333 163.628C135.467 163.628 136.321 163.11 136.321 162.144C136.321 161.122 135.271 160.982 133.773 160.618C132.261 160.254 130.637 159.806 130.637 157.846C130.637 155.984 132.233 154.794 134.263 154.794C135.985 154.794 137.329 155.606 138.001 156.656L136.685 157.79C136.125 156.922 135.383 156.32 134.207 156.32C133.129 156.32 132.387 156.866 132.387 157.664C132.387 158.546 133.157 158.728 134.515 159.036C136.139 159.4 138.085 159.778 138.085 161.962C138.085 163.936 136.349 165.154 134.277 165.154C132.555 165.154 130.847 164.328 130.063 163.04ZM142.517 165.154C140.417 165.154 138.947 163.6 138.947 161.332C138.947 159.176 140.403 157.51 142.447 157.51C144.575 157.51 145.709 159.12 145.709 161.136V161.696H140.557C140.683 162.956 141.439 163.726 142.517 163.726C143.343 163.726 144.001 163.306 144.225 162.55L145.667 163.096C145.149 164.384 143.987 165.154 142.517 165.154ZM142.433 158.924C141.565 158.924 140.893 159.442 140.641 160.436H144.015C144.001 159.624 143.497 158.924 142.433 158.924ZM148.188 161.332C148.188 162.83 148.972 163.698 150.12 163.698C151.016 163.698 151.562 163.11 151.772 162.298L153.214 163.026C152.836 164.216 151.716 165.154 150.12 165.154C148.02 165.154 146.508 163.6 146.508 161.332C146.508 159.064 148.02 157.51 150.12 157.51C151.702 157.51 152.794 158.406 153.186 159.582L151.772 160.352C151.562 159.554 151.016 158.952 150.12 158.952C148.972 158.952 148.188 159.834 148.188 161.332ZM160.348 157.65V165H158.668V164.216C158.248 164.706 157.618 165.154 156.666 165.154C155.126 165.154 154.174 164.104 154.174 162.522V157.65H155.854V162.158C155.854 163.054 156.246 163.628 157.156 163.628C157.912 163.628 158.668 163.068 158.668 162.018V157.65H160.348ZM166.29 157.636V159.316C166.08 159.288 165.912 159.274 165.674 159.274C164.61 159.274 163.798 159.96 163.798 161.136V165H162.118V157.65H163.798V158.742C164.12 158.056 164.876 157.608 165.814 157.608C166.01 157.608 166.164 157.622 166.29 157.636ZM167.422 156.67V154.948H169.158V156.67H167.422ZM169.13 157.65V165H167.45V157.65H169.13ZM171.05 163.152V159.078H170.028V157.65H171.05V155.494H172.702V157.65H174.242V159.078H172.702V162.886C172.702 163.544 173.08 163.614 173.682 163.614C173.962 163.614 174.116 163.6 174.368 163.572V164.986C174.06 165.042 173.64 165.084 173.206 165.084C171.806 165.084 171.05 164.65 171.05 163.152ZM178.818 165.686C178.398 166.806 177.754 167.576 176.228 167.576C175.878 167.576 175.78 167.562 175.542 167.534V166.12C175.766 166.148 175.892 166.162 176.102 166.162C176.662 166.162 176.928 166.008 177.166 165.42L177.446 164.734L174.772 157.65H176.536L178.342 162.802L180.106 157.65H181.842L178.818 165.686Z" fill="#0A2540"/>
<rect x="27.5" y="103.5" width="2.5" height="21" rx="1.25" stroke="#37CC00"/>
<rect x="25.5" y="108.5" width="6.5" height="2" rx="1" fill="white" stroke="#37CC00"/>
<rect x="44.5" y="103.5" width="2.5" height="21" rx="1.25" stroke="#37CC00"/>
<rect x="42.5" y="111.5" width="6.5" height="2" rx="1" fill="white" stroke="#37CC00"/>
<rect x="0.5" y="-0.5" width="2.5" height="21" rx="1.25" transform="matrix(1 0 0 -1 36 124)" stroke="#37CC00"/>
<rect x="0.5" y="-0.5" width="6.5" height="2" rx="1" transform="matrix(1 0 0 -1 34 119)" fill="white" stroke="#37CC00"/>
<path d="M268.031 126.136L266.485 121.685L270.478 121.484" stroke="url(#paint0_linear_2281_24)" stroke-linecap="round" stroke-linejoin="round"/>
<path d="M283.692 100.756L285.518 105.817L281.528 105.952" stroke="url(#paint1_linear_2281_24)" stroke-linecap="round" stroke-linejoin="round"/>
<path d="M266.483 121.672C270.343 126.312 276.986 127.494 282.21 124.471C287.433 121.447 289.717 115.098 287.615 109.44" stroke="url(#paint2_linear_2281_24)" stroke-linecap="round" stroke-linejoin="round"/>
<path d="M285.518 105.817C281.661 101.18 275.024 99.9951 269.801 103.011C264.578 106.028 262.288 112.368 264.377 118.026" stroke="url(#paint3_linear_2281_24)" stroke-linecap="round" stroke-linejoin="round"/>
<path d="M276.261 106.968C273.323 106.968 270.349 107.645 270.349 108.938V108.968C271.244 109.855 273.288 110.346 276.261 110.346C279.233 110.346 281.277 109.855 282.173 108.968V108.938C282.173 107.645 279.199 106.968 276.261 106.968ZM270.349 116.482V119.073C270.349 120.367 273.323 121.044 276.261 121.044C279.199 121.044 282.173 120.367 282.173 119.073V116.482C281.199 117.144 279.432 117.666 276.261 117.666C273.09 117.666 271.322 117.144 270.349 116.482ZM270.349 109.725V112.346C271.244 113.233 273.288 113.724 276.261 113.724C279.233 113.724 281.277 113.233 282.173 112.346V109.725C281.199 110.388 279.432 110.909 276.261 110.909C273.09 110.909 271.322 110.388 270.349 109.725ZM276.261 114.287C279.432 114.287 281.199 113.766 282.173 113.103V115.724C281.277 116.611 279.233 117.103 276.261 117.103C273.288 117.103 271.244 116.611 270.349 115.724V113.103C271.322 113.766 273.09 114.287 276.261 114.287Z" fill="url(#paint4_linear_2281_24)"/>
<path d="M384.394 114.138H387.521V110.933C387.521 110.802 387.573 110.677 387.666 110.585C387.758 110.492 387.883 110.44 388.014 110.44H389.126V104.657C389.126 104.294 389.42 104 389.782 104H409.343C409.706 104 410 104.294 410 104.657V117.209C410 117.572 409.706 117.865 409.343 117.865H402.55C402.681 118.616 402.962 119.857 403.527 121.088C403.573 121.188 403.593 121.298 403.586 121.408C403.578 121.517 403.543 121.624 403.483 121.716C403.424 121.809 403.342 121.885 403.245 121.938C403.149 121.991 403.041 122.018 402.93 122.018H398.3V123.743C398.3 123.874 398.248 123.999 398.156 124.092C398.063 124.184 397.938 124.236 397.807 124.236H390.718V124.833C390.718 124.938 390.677 125.038 390.603 125.112C390.529 125.186 390.429 125.227 390.324 125.227H384.394C384.289 125.227 384.189 125.186 384.115 125.112C384.042 125.038 384 124.938 384 124.833V114.532C384 114.428 384.042 114.328 384.115 114.254C384.189 114.18 384.289 114.138 384.394 114.138ZM398.3 110.933V116.552H408.687V105.313H390.439V110.44H397.807C397.938 110.44 398.063 110.492 398.156 110.585C398.248 110.677 398.3 110.802 398.3 110.933ZM390.718 123.251H397.315V122.679H393.403V122.725C393.403 122.997 393.183 123.218 392.911 123.218C392.639 123.218 392.418 122.997 392.418 122.725V122.679H390.718V123.251ZM390.718 114.532V121.694H397.315V111.425H388.506V114.138H390.324C390.429 114.138 390.529 114.18 390.603 114.254C390.677 114.328 390.718 114.428 390.718 114.532ZM384.788 124.439H389.93V123.976H387.753V124.015C387.753 124.119 387.711 124.219 387.638 124.293C387.564 124.367 387.464 124.409 387.359 124.409C387.255 124.409 387.154 124.367 387.08 124.293C387.007 124.219 386.965 124.119 386.965 124.015V123.976H384.788V124.439ZM384.788 123.188H389.93V116.178H384.788V123.188ZM384.788 115.39H389.93V114.926H384.788V115.39Z" fill="url(#paint5_linear_2281_24)"/>
<defs>
<linearGradient id="paint0_linear_2281_24" x1="268.456" y1="121.407" x2="269.102" y2="125.984" gradientUnits="userSpaceOnUse">
<stop stop-color="#37CC00"/>
<stop offset="1" stop-color="#2988E2"/>
</linearGradient>
<linearGradient id="paint1_linear_2281_24" x1="282.817" y1="100.88" x2="283.552" y2="106.095" gradientUnits="userSpaceOnUse">
<stop stop-color="#37CC00"/>
<stop offset="1" stop-color="#2988E2"/>
</linearGradient>
<linearGradient id="paint2_linear_2281_24" x1="276.552" y1="111" x2="278.652" y2="125.888" gradientUnits="userSpaceOnUse">
<stop stop-color="#37CC00"/>
<stop offset="1" stop-color="#2988E2"/>
</linearGradient>
<linearGradient id="paint3_linear_2281_24" x1="273.349" y1="101.601" x2="275.445" y2="116.465" gradientUnits="userSpaceOnUse">
<stop stop-color="#37CC00"/>
<stop offset="1" stop-color="#2988E2"/>
</linearGradient>
<linearGradient id="paint4_linear_2281_24" x1="276.261" y1="106.968" x2="276.261" y2="121.044" gradientUnits="userSpaceOnUse">
<stop offset="0.606" stop-color="#37CC00"/>
<stop offset="1" stop-color="#2988E2"/>
</linearGradient>
<linearGradient id="paint5_linear_2281_24" x1="397" y1="104" x2="397" y2="125.227" gradientUnits="userSpaceOnUse">
<stop stop-color="#37CC00"/>
<stop offset="1" stop-color="#2988E2"/>
</linearGradient>
</defs>
</svg>
