<svg width="56" height="56" viewBox="0 0 56 56" fill="none" xmlns="http://www.w3.org/2000/svg">
<g clip-path="url(#clip0_2281_84)">
<path d="M28 55.5C43.1878 55.5 55.5 43.1878 55.5 28C55.5 12.8122 43.1878 0.5 28 0.5C12.8122 0.5 0.5 12.8122 0.5 28C0.5 43.1878 12.8122 55.5 28 55.5Z" stroke="#2988E2"/>
<path d="M20.031 40.1356L18.4849 35.6852L22.4781 35.4841" stroke="url(#paint0_linear_2281_84)" stroke-linecap="round" stroke-linejoin="round"/>
<path d="M35.6921 14.7561L37.5175 19.8174L33.5281 19.9524" stroke="url(#paint1_linear_2281_84)" stroke-linecap="round" stroke-linejoin="round"/>
<path d="M18.4833 35.6723C22.3433 40.3124 28.986 41.4944 34.2096 38.4705C39.4333 35.4466 41.7165 29.0977 39.615 23.4395" stroke="url(#paint2_linear_2281_84)" stroke-linecap="round" stroke-linejoin="round"/>
<path d="M37.5176 19.8172C33.6609 15.1799 27.0244 13.9951 21.8014 17.0114C16.5783 20.0277 14.2876 26.368 16.3766 32.0262" stroke="url(#paint3_linear_2281_84)" stroke-linecap="round" stroke-linejoin="round"/>
<path d="M28.2607 20.9678C25.3227 20.9678 22.3486 21.6446 22.3486 22.9385V22.9678C23.2445 23.8546 25.2883 24.3461 28.2607 24.3461C31.233 24.3461 33.2769 23.8546 34.1727 22.9678V22.9385C34.1727 21.6446 31.1987 20.9678 28.2607 20.9678ZM22.3486 30.4817V33.0734C22.3486 34.3673 25.3227 35.0441 28.2607 35.0441C31.1987 35.0441 34.1727 34.3673 34.1727 33.0734V30.4817C33.1992 31.1444 31.4317 31.6658 28.2607 31.6658C25.0896 31.6658 23.3221 31.1444 22.3486 30.4817ZM22.3486 23.7251V26.3461C23.2445 27.2329 25.2883 27.7244 28.2607 27.7244C31.233 27.7244 33.2769 27.2329 34.1727 26.3461V23.7251C33.1992 24.3878 31.4317 24.9092 28.2607 24.9092C25.0896 24.9092 23.3221 24.3878 22.3486 23.7251ZM28.2607 28.2875C31.4317 28.2875 33.1992 27.7661 34.1727 27.1034V29.7244C33.2769 30.6112 31.233 31.1027 28.2607 31.1027C25.2883 31.1027 23.2445 30.6112 22.3486 29.7244V27.1034C23.3221 27.7661 25.0896 28.2875 28.2607 28.2875Z" fill="url(#paint4_linear_2281_84)"/>
</g>
<defs>
<linearGradient id="paint0_linear_2281_84" x1="20.4565" y1="35.4072" x2="21.1021" y2="39.9845" gradientUnits="userSpaceOnUse">
<stop stop-color="#37CC00"/>
<stop offset="1" stop-color="#2988E2"/>
</linearGradient>
<linearGradient id="paint1_linear_2281_84" x1="34.8168" y1="14.8795" x2="35.5524" y2="20.0946" gradientUnits="userSpaceOnUse">
<stop stop-color="#37CC00"/>
<stop offset="1" stop-color="#2988E2"/>
</linearGradient>
<linearGradient id="paint2_linear_2281_84" x1="28.552" y1="24.9999" x2="30.6518" y2="39.8877" gradientUnits="userSpaceOnUse">
<stop stop-color="#37CC00"/>
<stop offset="1" stop-color="#2988E2"/>
</linearGradient>
<linearGradient id="paint3_linear_2281_84" x1="25.3485" y1="15.6006" x2="27.4451" y2="30.4651" gradientUnits="userSpaceOnUse">
<stop stop-color="#37CC00"/>
<stop offset="1" stop-color="#2988E2"/>
</linearGradient>
<linearGradient id="paint4_linear_2281_84" x1="28.2607" y1="20.9678" x2="28.2607" y2="35.0441" gradientUnits="userSpaceOnUse">
<stop offset="0.606" stop-color="#37CC00"/>
<stop offset="1" stop-color="#2988E2"/>
</linearGradient>
<clipPath id="clip0_2281_84">
<rect width="56" height="56" fill="white"/>
</clipPath>
</defs>
</svg>
