<svg width="56" height="56" viewBox="0 0 56 56" fill="none" xmlns="http://www.w3.org/2000/svg">
<circle cx="28" cy="28" r="27.5" stroke="#2988E2"/>
<path d="M37.5 22H34.5C34.3674 22 34.2402 21.9473 34.1464 21.8536C34.0527 21.7598 34 21.6326 34 21.5C34 21.3674 34.0527 21.2402 34.1464 21.1464C34.2402 21.0527 34.3674 21 34.5 21H37V18.5C37 18.3674 37.0527 18.2402 37.1464 18.1464C37.2402 18.0527 37.3674 18 37.5 18C37.6326 18 37.7598 18.0527 37.8536 18.1464C37.9473 18.2402 38 18.3674 38 18.5V21.5C38 21.6326 37.9473 21.7598 37.8536 21.8536C37.7598 21.9473 37.6326 22 37.5 22Z" fill="#37CC00"/>
<path d="M28 40C21.383 40 16 34.617 16 28C16 21.383 21.383 16 28 16C31.8 16 35.409 17.83 37.653 20.895C37.6918 20.948 37.7198 21.0081 37.7354 21.0719C37.7509 21.1357 37.7538 21.202 37.7438 21.2669C37.7337 21.3318 37.711 21.3941 37.6769 21.4502C37.6428 21.5063 37.598 21.5552 37.545 21.594C37.492 21.6328 37.4319 21.6608 37.3681 21.6764C37.3043 21.6919 37.238 21.6948 37.1731 21.6848C37.1082 21.6747 37.0459 21.652 36.9898 21.6179C36.9337 21.5838 36.8848 21.539 36.846 21.486C35.8258 20.0978 34.4938 18.9686 32.9573 18.1894C31.4208 17.4102 29.7228 17.0028 28 17C21.935 17 17 21.935 17 28C17 34.065 21.935 39 28 39C34.065 39 39 34.065 39 28C39 27.484 38.969 27.017 38.905 26.571C38.8946 26.4438 38.9332 26.3175 39.0127 26.2178C39.0923 26.1181 39.2069 26.0525 39.3332 26.0343C39.4595 26.0162 39.5879 26.047 39.6923 26.1203C39.7967 26.1937 39.8692 26.3041 39.895 26.429C39.966 26.922 40 27.436 40 28C40 34.617 34.617 40 28 40Z" fill="#37CC00"/>
<path d="M28 36.0003C27.9333 36.0004 27.8672 35.9868 27.806 35.9603C27.568 35.8613 22 33.4543 22 28.5363V24.3573C22 24.1433 22.137 23.9523 22.34 23.8833L27.84 22.0263C27.9438 21.9912 28.0562 21.9912 28.16 22.0263L33.66 23.8833C33.863 23.9523 34 24.1433 34 24.3573V28.5363C34 33.4543 28.432 35.8613 28.194 35.9613C28.1326 35.987 28.0666 36.0003 28 36.0003ZM23 24.7163V28.5363C23 32.3213 27.055 34.4943 28 34.9503C28.944 34.4933 33 32.3123 33 28.5363V24.7163L28 23.0283L23 24.7163Z" fill="#2988E2"/>
<path d="M27.4989 31.0002L27.4709 30.9992C27.4006 30.9952 27.332 30.9765 27.2695 30.9443C27.207 30.9121 27.1519 30.8671 27.1079 30.8122L25.1079 28.3122C25.034 28.2079 25.0027 28.0793 25.0205 27.9528C25.0383 27.8262 25.1038 27.7112 25.2036 27.6314C25.3034 27.5515 25.4299 27.5128 25.5573 27.5232C25.6847 27.5336 25.8033 27.5923 25.8889 27.6872L27.5399 29.7512L30.6449 26.6462C30.7392 26.5551 30.8655 26.5047 30.9966 26.5059C31.1277 26.507 31.2531 26.5596 31.3458 26.6523C31.4385 26.745 31.4911 26.8704 31.4922 27.0015C31.4933 27.1326 31.4429 27.2589 31.3519 27.3532L27.8519 30.8532C27.8057 30.8999 27.7508 30.937 27.6902 30.9623C27.6296 30.9875 27.5645 31.0004 27.4989 31.0002Z" fill="#37CC00"/>
</svg>
