<svg width="110" height="26" viewBox="0 0 110 26" fill="none" xmlns="http://www.w3.org/2000/svg">
<mask id="mask0_727_760" style="mask-type:luminance" maskUnits="userSpaceOnUse" x="0" y="0" width="26" height="26">
<path d="M0 0H25.6536V25.6286H0V0Z" fill="white"/>
</mask>
<g mask="url(#mask0_727_760)">
<path fill-rule="evenodd" clip-rule="evenodd" d="M3.89993 0C1.7281 0.10664 0 1.90129 0 4.09957V21.5241C0 23.791 1.83769 25.6286 4.10458 25.6286H21.5291C23.796 25.6286 25.6337 23.791 25.6337 21.5241V4.09957C25.6337 3.45691 25.486 2.84876 25.2227 2.30719H25.2187L16.2374 19.817H8.57201L3.75023 5.62358C3.75023 5.62358 8.07747 5.62358 9.2726 5.91581C10.4621 6.20663 10.9168 7.77933 12.5868 13.5558L12.6108 13.6387L20.1111 0H3.89993Z" fill="#37CC00"/>
</g>
<path d="M39.4828 14.0689H30.6034C30.5952 14.2087 30.5911 14.3155 30.5911 14.3895C30.5911 15.261 30.8398 15.964 31.3372 16.4984C31.8346 17.0328 32.4409 17.3 33.1562 17.3C34.3319 17.3 35.2486 16.6916 35.9064 15.4747L39.0757 16.0051C38.4592 17.2794 37.635 18.2352 36.6031 18.8724C35.5713 19.5096 34.4141 19.8282 33.1315 19.8282C31.3721 19.8282 29.9415 19.2712 28.8398 18.1571C27.7381 17.0431 27.1873 15.5693 27.1873 13.7358C27.1873 11.9435 27.6847 10.3486 28.6795 8.9509C30.0361 7.05992 31.9723 6.11443 34.4881 6.11443C36.0913 6.11443 37.3657 6.60979 38.3112 7.6005C39.2567 8.59121 39.7294 9.97863 39.7294 11.7628C39.7294 12.6178 39.6472 13.3865 39.4828 14.0689ZM36.4983 11.9107C36.5065 11.7545 36.5106 11.6353 36.5106 11.553C36.5106 10.5829 36.2928 9.85527 35.857 9.37021C35.4213 8.88513 34.8375 8.6426 34.1058 8.6426C33.3741 8.6426 32.7184 8.91802 32.1388 9.46887C31.5592 10.0197 31.1666 10.8336 30.961 11.9107H36.4983ZM43.3181 6.42275H46.6233L46.0929 8.96324C47.3263 7.06404 48.6623 6.11443 50.101 6.11443C50.6108 6.11443 51.1575 6.24187 51.7412 6.49675L50.3846 9.39488C50.064 9.27978 49.7228 9.22222 49.3611 9.22222C48.7527 9.22222 48.134 9.45241 47.5051 9.9128C46.8761 10.3732 46.3848 10.9878 46.0313 11.7566C45.6778 12.5253 45.3284 13.7441 44.9831 15.4131L44.1197 19.5198H40.5803L43.3181 6.42275ZM54.3804 1.44042H57.9198L57.2539 4.64687H53.7144L54.3804 1.44042ZM53.3445 6.42275H56.8839L54.1461 19.5198H50.6067L53.3445 6.42275ZM66.7499 6.42275L66.2072 9.01256H63.7038L61.5086 19.5198H57.9691L60.1643 9.01256H58.1911L58.7338 6.42275H60.7069L60.9907 5.07852C61.2209 3.97681 61.4387 3.23275 61.6442 2.84633C61.9237 2.32014 62.341 1.90289 62.8959 1.59458C63.451 1.28627 64.1765 1.13211 65.0727 1.13211C66.1579 1.13211 67.3008 1.32944 68.5011 1.72408L67.8104 4.25223C66.9636 3.96448 66.2771 3.8206 65.751 3.8206C65.3481 3.8206 65.048 3.94804 64.8506 4.20291C64.7191 4.36734 64.5835 4.79897 64.4437 5.49782L64.2464 6.42275H66.7499ZM67.1322 6.42275H70.6593L71.5473 12.9467C71.7693 14.6239 71.8925 15.7996 71.9171 16.4738C72.3776 15.1336 73.0107 13.7195 73.8164 12.2314L76.9488 6.42275H80.698L72.6078 20.8024C71.9419 21.9945 71.4177 22.829 71.0354 23.306C70.6532 23.7828 70.1928 24.1569 69.6542 24.4281C69.1157 24.6995 68.4682 24.8351 67.7118 24.8351C66.9636 24.8351 66.1209 24.7036 65.1837 24.4406L65.492 21.8014C65.9195 21.9247 66.3347 21.9864 66.7375 21.9864C67.8228 21.9864 68.7148 21.1642 69.4137 19.5198L67.1322 6.42275ZM92.833 14.0689H83.9537C83.9455 14.2087 83.9414 14.3155 83.9414 14.3895C83.9414 15.261 84.1901 15.964 84.6875 16.4984C85.1849 17.0328 85.7912 17.3 86.5065 17.3C87.6822 17.3 88.5989 16.6916 89.2566 15.4747L92.4262 16.0051C91.8095 17.2794 90.9853 18.2352 89.9535 18.8724C88.9216 19.5096 87.7644 19.8282 86.4818 19.8282C84.7224 19.8282 83.2918 19.2712 82.1901 18.1571C81.0884 17.0431 80.5376 15.5693 80.5376 13.7358C80.5376 11.9435 81.035 10.3486 82.0298 8.9509C83.3864 7.05992 85.3226 6.11443 87.8384 6.11443C89.4416 6.11443 90.716 6.60979 91.6614 7.6005C92.607 8.59121 93.0798 9.97863 93.0798 11.7628C93.0798 12.6178 92.9975 13.3865 92.833 14.0689ZM89.8486 11.9107C89.8568 11.7545 89.8609 11.6353 89.8609 11.553C89.8609 10.5829 89.643 9.85527 89.2073 9.37021C88.7715 8.88513 88.1878 8.6426 87.4561 8.6426C86.7244 8.6426 86.0687 8.91802 85.4891 9.46887C84.9095 10.0197 84.5169 10.8336 84.3113 11.9107H89.8486ZM106.226 19.5198H102.872L103.168 18.1016C102.526 18.7183 101.895 19.1602 101.275 19.4274C100.654 19.6946 99.9531 19.8282 99.172 19.8282C97.8155 19.8282 96.7158 19.3657 95.873 18.4408C95.0303 17.5158 94.609 16.149 94.609 14.3402C94.609 12.2437 95.2009 10.3486 96.3849 8.65493C97.5687 6.96127 99.1349 6.11443 101.083 6.11443C102.843 6.11443 104.162 6.81327 105.042 8.21096L106.46 1.44042H110L106.226 19.5198ZM98.0497 14.1922C98.0497 15.1295 98.2861 15.8612 98.7589 16.3874C99.2316 16.9136 99.8133 17.1767 100.504 17.1767C101.145 17.1767 101.743 16.9568 102.298 16.5169C102.853 16.077 103.297 15.4049 103.63 14.5006C103.963 13.5962 104.13 12.7287 104.13 11.8983C104.13 10.9528 103.875 10.1882 103.365 9.60453C102.855 9.02079 102.267 8.72892 101.601 8.72892C100.566 8.72892 99.7146 9.30444 99.0486 10.4555C98.3827 11.6066 98.0497 12.8521 98.0497 14.1922Z" fill="#0671E4"/>
</svg>
