<svg width="88" height="22" viewBox="0 0 88 22" fill="none" xmlns="http://www.w3.org/2000/svg">
<mask id="mask0_594_13110" style="mask-type:luminance" maskUnits="userSpaceOnUse" x="0" y="0" width="21" height="22">
<path d="M0 0.466797H20.534V21.78H0V0.466797Z" fill="white"/>
</mask>
<g mask="url(#mask0_594_13110)">
<path fill-rule="evenodd" clip-rule="evenodd" d="M3.12163 0.466797C1.38323 0.55548 0 2.04794 0 3.87607V18.3666C0 20.2517 1.47094 21.78 3.28543 21.78H17.2325C19.047 21.78 20.518 20.2517 20.518 18.3666V3.87607C20.518 3.34162 20.3997 2.83587 20.189 2.38549H20.1858L12.9969 16.947H6.8613L3.0018 5.14346C3.0018 5.14346 6.46545 5.14346 7.42207 5.38648C8.37417 5.62833 8.73811 6.93622 10.0748 11.74L10.094 11.809L16.0976 0.466797H3.12163Z" fill="#37CC00"/>
</g>
<path d="M31.5604 12.1628H24.4531C24.4465 12.279 24.4432 12.3678 24.4432 12.4293C24.4432 13.1541 24.6423 13.7387 25.0404 14.1831C25.4386 14.6276 25.9239 14.8498 26.4965 14.8498C27.4375 14.8498 28.1713 14.3438 28.6978 13.3319L31.2346 13.7729C30.7411 14.8327 30.0814 15.6275 29.2555 16.1574C28.4296 16.6873 27.5033 16.9523 26.4767 16.9523C25.0684 16.9523 23.9233 16.489 23.0415 15.5626C22.1597 14.6361 21.7188 13.4105 21.7188 11.8858C21.7188 10.3952 22.1169 9.06884 22.9132 7.90653C23.999 6.33396 25.5488 5.54767 27.5626 5.54767C28.8458 5.54767 29.8659 5.95962 30.6227 6.78352C31.3794 7.6074 31.7578 8.76121 31.7578 10.2449C31.7578 10.956 31.692 11.5953 31.5604 12.1628ZM29.1716 10.368C29.1782 10.2381 29.1815 10.1389 29.1815 10.0705C29.1815 9.2637 29.0071 8.65861 28.6583 8.25523C28.3095 7.85184 27.8423 7.65014 27.2566 7.65014C26.6709 7.65014 26.146 7.87918 25.6821 8.33728C25.2181 8.79534 24.9039 9.47224 24.7394 10.368H29.1716ZM34.6304 5.80408H37.276L36.8514 7.91679C37.8386 6.33738 38.908 5.54767 40.0596 5.54767C40.4676 5.54767 40.9053 5.65365 41.3725 5.86562L40.2866 8.27575C40.03 8.18003 39.7569 8.13216 39.4674 8.13216C38.9804 8.13216 38.4851 8.32359 37.9817 8.70645C37.4783 9.08937 37.0851 9.60047 36.8021 10.2398C36.5191 10.879 36.2395 11.8927 35.9631 13.2806L35.272 16.6958H32.4389L34.6304 5.80408ZM43.4849 1.66069H46.318L45.785 4.32723H42.9519L43.4849 1.66069ZM42.6558 5.80408H45.4888L43.2974 16.6958H40.4643L42.6558 5.80408ZM53.3859 5.80408L52.9515 7.95781H50.9477L49.1906 16.6958H46.3575L48.1146 7.95781H46.5352L46.9696 5.80408H48.5489L48.776 4.68619C48.9603 3.76999 49.1346 3.15122 49.2991 2.82987C49.5229 2.39228 49.8568 2.04529 50.301 1.78889C50.7453 1.53249 51.3261 1.4043 52.0434 1.4043C52.9121 1.4043 53.8268 1.56839 54.7876 1.89658L54.2348 3.99904C53.5569 3.75974 53.0075 3.64009 52.5863 3.64009C52.2639 3.64009 52.0236 3.74606 51.8657 3.95802C51.7604 4.09476 51.6518 4.45372 51.54 5.03489L51.382 5.80408H53.3859ZM53.6919 5.80408H56.5151L57.2259 11.2295C57.4035 12.6242 57.5022 13.602 57.5219 14.1627C57.8905 13.0482 58.3972 11.8722 59.0422 10.6347L61.5494 5.80408H64.5503L58.0747 17.7624C57.5417 18.7538 57.1222 19.4478 56.8161 19.8444C56.5102 20.241 56.1417 20.5521 55.7106 20.7776C55.2795 21.0033 54.7613 21.1161 54.1558 21.1161C53.5569 21.1161 52.8824 21.0067 52.1323 20.788L52.379 18.5932C52.7212 18.6958 53.0535 18.7471 53.376 18.7471C54.2447 18.7471 54.9587 18.0633 55.518 16.6958L53.6919 5.80408ZM74.2636 12.1628H67.1564C67.1498 12.279 67.1465 12.3678 67.1465 12.4293C67.1465 13.1541 67.3456 13.7387 67.7437 14.1831C68.1418 14.6276 68.6271 14.8498 69.1997 14.8498C70.1407 14.8498 70.8745 14.3438 71.401 13.3319L73.938 13.7729C73.4444 14.8327 72.7846 15.6275 71.9588 16.1574C71.1328 16.6873 70.2065 16.9523 69.1799 16.9523C67.7716 16.9523 66.6265 16.489 65.7447 15.5626C64.8629 14.6361 64.422 13.4105 64.422 11.8858C64.422 10.3952 64.8201 9.06884 65.6164 7.90653C66.7022 6.33396 68.252 5.54767 70.2658 5.54767C71.549 5.54767 72.5691 5.95962 73.3259 6.78352C74.0827 7.6074 74.4611 8.76121 74.4611 10.2449C74.4611 10.956 74.3953 11.5953 74.2636 12.1628ZM71.8748 10.368C71.8814 10.2381 71.8847 10.1389 71.8847 10.0705C71.8847 9.2637 71.7103 8.65861 71.3615 8.25523C71.0127 7.85184 70.5454 7.65014 69.9598 7.65014C69.3741 7.65014 68.8493 7.87918 68.3853 8.33728C67.9214 8.79534 67.6071 9.47224 67.4426 10.368H71.8748ZM84.984 16.6958H82.2989L82.5359 15.5164C82.0225 16.0292 81.5174 16.3967 81.0206 16.6189C80.5237 16.8412 79.9627 16.9523 79.3375 16.9523C78.2517 16.9523 77.3715 16.5677 76.6969 15.7985C76.0224 15.0293 75.6851 13.8926 75.6851 12.3883C75.6851 10.6449 76.159 9.0689 77.1066 7.6604C78.0542 6.25191 79.3079 5.54767 80.8675 5.54767C82.2758 5.54767 83.3321 6.12884 84.0362 7.29118L85.1714 1.66069H88.0046L84.984 16.6958ZM78.4392 12.2653C78.4392 13.0447 78.6285 13.6533 79.0069 14.0909C79.3852 14.5285 79.8508 14.7473 80.4036 14.7473C80.9169 14.7473 81.3957 14.5644 81.8399 14.1985C82.2841 13.8327 82.6395 13.2738 82.906 12.5217C83.1725 11.7696 83.3058 11.0482 83.3058 10.3576C83.3058 9.57136 83.1018 8.93551 82.6938 8.4501C82.2858 7.96465 81.8152 7.72193 81.2821 7.72193C80.4529 7.72193 79.7718 8.20054 79.2388 9.15777C78.7057 10.115 78.4392 11.1508 78.4392 12.2653Z" fill="#0671E4"/>
</svg>
