<svg width="36" height="36" viewBox="0 0 36 36" fill="none" xmlns="http://www.w3.org/2000/svg">
<path d="M24.8571 36H4.28571C3.14949 35.9986 2.06019 35.5467 1.25676 34.7432C0.453327 33.9398 0.00136102 32.8505 0 31.7143V4.28571C0.00136102 3.14949 0.453327 2.06019 1.25676 1.25676C2.06019 0.453327 3.14949 0.00136102 4.28571 0H17.5371C18.1079 0.000382276 18.6729 0.114248 19.1992 0.334973C19.7256 0.555698 20.2028 0.878877 20.6031 1.28571L27.9214 8.77628C28.7064 9.57765 29.1451 10.6554 29.1429 11.7771V18.1629C29.1429 18.3902 29.0525 18.6082 28.8918 18.7689C28.7311 18.9297 28.513 19.02 28.2857 19.02C28.0584 19.02 27.8404 18.9297 27.6796 18.7689C27.5189 18.6082 27.4286 18.3902 27.4286 18.1629V11.7771C27.4289 11.1043 27.1655 10.458 26.6949 9.97714L19.3757 2.48571C19.1359 2.24143 18.8498 2.0474 18.5341 1.91495C18.2184 1.7825 17.8795 1.71428 17.5371 1.71429H4.28571C3.60373 1.71429 2.94968 1.9852 2.46744 2.46744C1.9852 2.94968 1.71429 3.60373 1.71429 4.28571V31.7143C1.71429 32.3963 1.9852 33.0503 2.46744 33.5326C2.94968 34.0148 3.60373 34.2857 4.28571 34.2857H24.8571C25.1805 34.287 25.5009 34.2243 25.8 34.1014C26.0103 34.0149 26.2463 34.0155 26.4562 34.103C26.666 34.1906 26.8325 34.3579 26.919 34.5681C27.0055 34.7784 27.0049 35.0144 26.9174 35.2243C26.8299 35.4341 26.6626 35.6006 26.4523 35.6871C25.9462 35.895 25.4042 36.0013 24.8571 36Z" fill="#C8D0DB"/>
<path d="M27.9321 11.1428H22.2835C21.1473 11.1414 20.058 10.6894 19.2545 9.88601C18.4511 9.08257 17.9991 7.99328 17.9978 6.85705V1.12277C17.9978 0.895439 18.0881 0.677422 18.2488 0.516676C18.4096 0.355931 18.6276 0.265625 18.8549 0.265625C19.0822 0.265625 19.3003 0.355931 19.461 0.516676C19.6218 0.677422 19.7121 0.895439 19.7121 1.12277V6.85705C19.7121 7.53904 19.983 8.19309 20.4652 8.67533C20.9474 9.15756 21.6015 9.42848 22.2835 9.42848H27.9321C28.1594 9.42848 28.3774 9.51879 28.5381 9.67953C28.6989 9.84028 28.7892 10.0583 28.7892 10.2856C28.7892 10.513 28.6989 10.731 28.5381 10.8917C28.3774 11.0525 28.1594 11.1428 27.9321 11.1428ZM26.5692 35.8748C26.2312 35.8752 25.9007 35.7752 25.6195 35.5876L22.8663 33.7516C21.1038 32.5797 19.6586 30.9899 18.6596 29.1239C17.6605 27.2579 17.1387 25.1737 17.1406 23.057V21.5896C17.1423 21.204 17.2734 20.83 17.5129 20.5277C17.7524 20.2255 18.0864 20.0123 18.4615 19.9225C21.0071 19.2188 23.4288 18.1262 25.6409 16.6833C25.9177 16.5051 26.24 16.4102 26.5692 16.4102C26.8984 16.4102 27.2207 16.5051 27.4975 16.6833C29.7095 18.1264 32.1312 19.219 34.6769 19.9225C35.052 20.0123 35.386 20.2255 35.6255 20.5277C35.865 20.83 35.9961 21.204 35.9978 21.5896V23.057C36.0003 25.1742 35.4787 27.2591 34.4797 29.1258C33.4806 30.9924 32.0351 32.5828 30.2721 33.755L27.5198 35.5902C27.238 35.777 26.9072 35.876 26.5692 35.8748ZM26.5692 18.1233C24.1993 19.6693 21.6039 20.8381 18.8755 21.5879L18.8549 23.057C18.8528 24.8919 19.3048 26.6988 20.1706 28.3165C21.0364 29.9343 22.2891 31.3127 23.8169 32.3288L26.5692 34.1605L29.3215 32.3253C30.8488 31.3096 32.1012 29.9317 32.967 28.3146C33.8327 26.6975 34.285 24.8913 34.2835 23.057V21.5896C31.5484 20.8402 28.946 19.6712 26.5692 18.1242V18.1233Z" fill="#C8D0DB"/>
<path d="M25.712 28.286C25.4847 28.2859 25.2668 28.1956 25.106 28.0348L23.3918 26.3206C23.2356 26.1589 23.1492 25.9424 23.1512 25.7176C23.1531 25.4929 23.2433 25.2779 23.4022 25.119C23.5611 24.9601 23.7761 24.8699 24.0008 24.868C24.2256 24.866 24.4421 24.9524 24.6038 25.1086L25.712 26.2168L28.5346 23.3943C28.6963 23.2381 28.9128 23.1517 29.1375 23.1537C29.3623 23.1556 29.5773 23.2458 29.7362 23.4047C29.8951 23.5636 29.9852 23.7786 29.9872 24.0034C29.9891 24.2281 29.9028 24.4446 29.7466 24.6063L26.318 28.0348C26.1573 28.1956 25.9394 28.2859 25.712 28.286ZM12.8549 8.57171H5.99777C5.77044 8.57171 5.55242 8.4814 5.39168 8.32066C5.23093 8.15991 5.14062 7.94189 5.14062 7.71456C5.14062 7.48724 5.23093 7.26922 5.39168 7.10847C5.55242 6.94773 5.77044 6.85742 5.99777 6.85742H12.8549C13.0822 6.85742 13.3003 6.94773 13.461 7.10847C13.6217 7.26922 13.7121 7.48724 13.7121 7.71456C13.7121 7.94189 13.6217 8.15991 13.461 8.32066C13.3003 8.4814 13.0822 8.57171 12.8549 8.57171ZM17.9978 13.7146H5.99777C5.77044 13.7146 5.55242 13.6243 5.39168 13.4635C5.23093 13.3028 5.14062 13.0847 5.14062 12.8574C5.14062 12.6301 5.23093 12.4121 5.39168 12.2513C5.55242 12.0906 5.77044 12.0003 5.99777 12.0003H17.9978C18.2251 12.0003 18.4431 12.0906 18.6039 12.2513C18.7646 12.4121 18.8549 12.6301 18.8549 12.8574C18.8549 13.0847 18.7646 13.3028 18.6039 13.4635C18.4431 13.6243 18.2251 13.7146 17.9978 13.7146ZM19.712 18.8574H5.99777C5.77044 18.8574 5.55242 18.7671 5.39168 18.6064C5.23093 18.4456 5.14062 18.2276 5.14062 18.0003C5.14062 17.7729 5.23093 17.5549 5.39168 17.3942C5.55242 17.2334 5.77044 17.1431 5.99777 17.1431H19.712C19.9394 17.1431 20.1574 17.2334 20.3181 17.3942C20.4789 17.5549 20.5692 17.7729 20.5692 18.0003C20.5692 18.2276 20.4789 18.4456 20.3181 18.6064C20.1574 18.7671 19.9394 18.8574 19.712 18.8574ZM14.5692 24.0003H5.99777C5.77044 24.0003 5.55242 23.91 5.39168 23.7492C5.23093 23.5885 5.14062 23.3705 5.14062 23.1431C5.14062 22.9158 5.23093 22.6978 5.39168 22.537C5.55242 22.3763 5.77044 22.286 5.99777 22.286H14.5692C14.7965 22.286 15.0145 22.3763 15.1753 22.537C15.336 22.6978 15.4263 22.9158 15.4263 23.1431C15.4263 23.3705 15.336 23.5885 15.1753 23.7492C15.0145 23.91 14.7965 24.0003 14.5692 24.0003ZM14.5692 29.1431H5.99777C5.77044 29.1431 5.55242 29.0528 5.39168 28.8921C5.23093 28.7313 5.14062 28.5133 5.14062 28.286C5.14062 28.0587 5.23093 27.8406 5.39168 27.6799C5.55242 27.5191 5.77044 27.4288 5.99777 27.4288H14.5692C14.7965 27.4288 15.0145 27.5191 15.1753 27.6799C15.336 27.8406 15.4263 28.0587 15.4263 28.286C15.4263 28.5133 15.336 28.7313 15.1753 28.8921C15.0145 29.0528 14.7965 29.1431 14.5692 29.1431Z" fill="#C8D0DB"/>
</svg>
