<svg width="45" height="47" viewBox="0 0 45 47" fill="none" xmlns="http://www.w3.org/2000/svg">
<mask id="mask0_875_219" style="mask-type:luminance" maskUnits="userSpaceOnUse" x="0" y="0" width="45" height="47">
<path d="M0 0H45V46.3235H0V0Z" fill="white"/>
</mask>
<g mask="url(#mask0_875_219)">
<path fill-rule="evenodd" clip-rule="evenodd" d="M38.8843 40.3528L29.8257 3.29413C29.7743 3.13974 29.7226 2.93366 29.6199 2.77928C29.5169 2.62489 29.4142 2.47051 29.2594 2.36747C29.1051 2.21308 28.9507 2.1104 28.7446 2.0587C28.5902 1.95566 28.3841 1.90431 28.2298 1.90431L8.31067 0C8.10495 0 7.89885 -5.58794e-09 7.69312 0.0513409C7.48739 0.102682 7.33267 0.205725 7.22997 0.308767C7.12693 0.411808 7.02429 0.514492 6.97254 0.669235V0.617893V0.720576C8.41372 10.5514 13.0976 42.6175 13.2007 43.3896C13.3037 44.1102 13.8182 44.8821 14.7962 44.8821C15.5167 44.8821 28.9505 43.0291 38.7814 41.6393V41.588C38.8845 41.4336 38.9358 41.2276 38.9358 41.0218C38.9358 40.816 38.936 40.5589 38.8843 40.3528ZM28.6417 40.0441C28.5904 40.3528 28.4874 40.6616 28.333 40.9191C28.1786 41.1765 27.9725 41.4339 27.7154 41.5882C27.458 41.7427 27.1492 41.897 26.8405 41.897C26.5318 41.9484 26.1712 41.897 25.8625 41.794C25.5537 41.6909 25.2449 41.5366 24.9875 41.3308C24.73 41.1251 24.4726 40.8677 24.3183 40.5589C24.1126 40.2502 24.0095 39.8897 23.9578 39.5296C23.9066 39.1692 23.9066 38.809 23.9578 38.4486C24.0092 38.1398 24.1122 37.831 24.3183 37.5736C24.4726 37.3162 24.6787 37.1104 24.9358 36.9561C25.1932 36.8017 25.502 36.6987 25.8108 36.6473C26.1195 36.5959 26.4283 36.6473 26.7371 36.7504C27.0459 36.8534 27.3033 37.0078 27.5606 37.2135C27.8181 37.4192 28.0238 37.6766 28.2299 37.9854C28.3843 38.2942 28.5387 38.6029 28.5904 38.9634C28.693 39.3749 28.693 39.7352 28.6417 40.0441ZM14.1271 35.3602L9.03142 1.95585L28.3328 3.60273L35.4358 33.4555L14.1271 35.3602ZM14.7963 45.294C13.561 45.294 12.892 44.316 12.7889 43.441C12.6859 42.7204 8.20807 11.8897 6.6639 1.44115L5.99464 2.93361C5.99464 2.98495 5.94331 3.03665 5.94331 3.088C5.94331 3.13933 5.94331 3.19104 5.89197 3.24238V3.39676V3.55114L11.5539 44.6245C11.6052 44.882 11.6569 45.1394 11.8113 45.3451C11.9143 45.5509 12.1201 45.757 12.2745 45.9114C12.4802 46.0657 12.6863 46.1688 12.892 46.2202C13.1491 46.3235 13.3552 46.3235 13.6122 46.3235L35.5901 43.0294H35.6414H35.6928H35.7442H35.7956L38.1115 42.2575H38.0602C38.1632 42.2575 38.2146 42.2062 38.266 42.1544C30.2373 43.2868 15.5684 45.294 14.7963 45.294ZM38.5168 42.2573H38.0752H37.855H38.5168Z" fill="url(#paint0_linear_875_219)"/>
<path d="M44.3276 26.1102V6.45742C44.3276 4.35927 42.626 2.65678 40.527 2.65762H4.13144C3.70814 2.65762 3.30173 2.72649 2.91832 2.85809C1.41425 3.362 0.330872 4.78435 0.330872 6.45818V26.111C0.330872 28.2095 2.03351 29.9092 4.13144 29.9092H40.527C42.2028 29.9092 43.6254 28.8254 44.1271 27.3218C44.2589 26.9403 44.3276 26.5315 44.3276 26.1102Z" fill="white" stroke="#BF9BFF"/>
<path d="M11.7341 16.6696H4.82551C4.48268 16.6696 4.2052 16.3922 4.2052 16.0493V10.0262C4.2052 9.6834 4.48268 9.40598 4.82551 9.40598H11.7341C12.077 9.40598 12.3545 9.6834 12.3545 10.0262V16.0493C12.3545 16.3922 12.077 16.6696 11.7341 16.6696Z" fill="#FF5900"/>
<path d="M7.84147 23.2651H4.81333C4.4968 23.2651 4.24012 22.8644 4.24012 22.3705C4.24012 21.8765 4.4968 21.4759 4.81333 21.4759H7.84147C8.15805 21.4759 8.4147 21.8765 8.4147 22.3705C8.41432 22.8644 8.15805 23.2651 7.84147 23.2651Z" fill="#FF5900"/>
<path d="M13.2086 23.2651H10.1803C9.86392 23.2651 9.6072 22.8644 9.6072 22.3705C9.6072 21.8765 9.86392 21.4759 10.1803 21.4759H13.2086C13.5251 21.4759 13.7818 21.8765 13.7818 22.3705C13.7818 22.8644 13.5251 23.2651 13.2086 23.2651Z" fill="#FF5900"/>
<path d="M19.1729 23.2651H16.1446C15.8281 23.2651 15.5715 22.8644 15.5715 22.3705C15.5715 21.8765 15.8281 21.4759 16.1446 21.4759H19.1729C19.4894 21.4759 19.7461 21.8765 19.7461 22.3705C19.7461 22.8644 19.4894 23.2651 19.1729 23.2651Z" fill="#FF5900"/>
<path d="M24.54 23.2651H21.5119C21.1953 23.2651 20.9387 22.8644 20.9387 22.3705C20.9387 21.8765 21.1953 21.4759 21.5119 21.4759H24.54C24.8566 21.4759 25.1132 21.8765 25.1132 22.3705C25.1128 22.8644 24.8566 23.2651 24.54 23.2651Z" fill="#FF5900"/>
<path fill-rule="evenodd" clip-rule="evenodd" d="M10.9508 11.4357H12.3552V11.2174H10.9508C10.7033 11.2174 10.5012 11.4195 10.5012 11.6686V12.9276H9.63495V12.1398C9.63495 11.8885 9.4305 11.6848 9.17993 11.6848H8.38973V9.40492H8.1714V11.6848H7.40126C7.15066 11.6848 6.94624 11.8892 6.94624 12.1398V12.9276H6.05919V11.6686C6.05919 11.4195 5.8578 11.2174 5.60953 11.2174H4.2052V11.4357H5.60953C5.73712 11.4357 5.84089 11.5402 5.84089 11.6693V14.4065C5.84089 14.5357 5.73712 14.6402 5.60953 14.6402H4.2052V14.8585H5.60953C5.85703 14.8585 6.05919 14.6563 6.05919 14.4073V13.1475H6.94624V13.9354C6.94624 14.1867 7.15066 14.3911 7.40126 14.3911H8.1714V16.671H8.38973V14.3911H9.17993C9.4305 14.3911 9.63495 14.1867 9.63495 13.9354V13.1475H10.5012V14.4073C10.5012 14.6563 10.7026 14.8585 10.9508 14.8585H12.3552V14.6402H10.9508C10.8233 14.6402 10.7195 14.5357 10.7195 14.4065V11.6693C10.7195 11.541 10.8233 11.4357 10.9508 11.4357ZM9.4167 13.9345C9.4167 14.0653 9.31058 14.1721 9.17918 14.1721H7.40048C7.26985 14.1721 7.16297 14.0653 7.16297 13.9345V12.1413C7.16297 12.0106 7.26905 11.9038 7.40048 11.9038H9.17918C9.30983 11.9038 9.4167 12.0106 9.4167 12.1413V13.9345Z" fill="white" stroke="white" stroke-width="0.1"/>
<path d="M33.835 18.9195C34.2563 18.9195 34.6557 19.0106 35.0152 19.174C34.389 19.8591 34.0062 20.772 34.0062 21.7741C34.0062 22.7763 34.389 23.6891 35.0153 24.3742C34.6557 24.5377 34.2563 24.6287 33.835 24.6287C32.2585 24.6287 30.9804 23.3507 30.9804 21.7741C30.9804 20.1976 32.2585 18.9195 33.835 18.9195Z" stroke="#BF9BFF"/>
<path d="M37.6894 21.7741C37.6894 20.772 37.3066 19.8591 36.6802 19.174C37.0397 19.0105 37.439 18.9195 37.8602 18.9195C39.4367 18.9195 40.7147 20.1976 40.7147 21.7741C40.7147 23.3507 39.4367 24.6287 37.8602 24.6287C37.439 24.6287 37.0397 24.5378 36.6802 24.3743C37.3066 23.6892 37.6894 22.7763 37.6894 21.7741Z" stroke="#BF9BFF"/>
<path fill-rule="evenodd" clip-rule="evenodd" d="M35.8474 24.4582C36.6622 23.8462 37.1892 22.8718 37.1892 21.7743C37.1892 20.6768 36.6622 19.7024 35.8474 19.0904C35.0325 19.7024 34.5055 20.6768 34.5055 21.7743C34.5055 22.8718 35.0325 23.8462 35.8474 24.4582Z" fill="#FF5900"/>
</g>
<defs>
<linearGradient id="paint0_linear_875_219" x1="37.2694" y1="2.07793" x2="-23.371" y2="10.1029" gradientUnits="userSpaceOnUse">
<stop stop-color="#CDE1FF"/>
<stop offset="0.501376" stop-color="#BF9BFF"/>
<stop offset="1" stop-color="#6E1DFF"/>
</linearGradient>
</defs>
</svg>
