<svg width="501" height="500" viewBox="0 0 501 500" fill="none" xmlns="http://www.w3.org/2000/svg">
<path d="M489.112 205.943C495.103 305.481 449.686 400.772 370.967 449.33C357.008 457.941 341.559 465.383 324.497 471.08C198.497 513.146 151.497 477.722 118.497 433.442C85.4974 389.162 116.497 313.885 78.4974 282.888C40.4974 251.891 -5.50261 207.611 13.4974 142.297C32.4974 76.9829 79.4974 33.8089 123.497 38.2379C167.497 42.6659 213.497 100.231 244.497 62.5919C275.497 24.9529 374.497 -11.5781 439.497 51.5219C474.234 85.2429 485.837 151.529 489.112 205.943Z" fill="#4ABCEB"/>
<path opacity="0.7" d="M489.112 205.943C495.103 305.481 449.686 400.772 370.967 449.33C357.008 457.941 341.559 465.383 324.497 471.08C198.497 513.146 151.497 477.722 118.497 433.442C85.4974 389.162 116.497 313.885 78.4974 282.888C40.4974 251.891 -5.50261 207.611 13.4974 142.297C32.4974 76.9829 79.4974 33.8089 123.497 38.2379C167.497 42.6659 213.497 100.231 244.497 62.5919C275.497 24.9529 374.497 -11.5781 439.497 51.5219C474.234 85.2429 485.837 151.529 489.112 205.943Z" fill="white"/>
<path d="M225.619 59.1442L179.578 24.6602" stroke="#263238" stroke-miterlimit="10"/>
<path d="M350.33 152.545L230.148 62.5332" stroke="#263238" stroke-miterlimit="10"/>
<path d="M363.194 162.18L357.422 157.857" stroke="#263238" stroke-miterlimit="10"/>
<path d="M294.522 143.788L190.914 105.508" stroke="#263238" stroke-miterlimit="10"/>
<path d="M344.302 162.179L301.203 146.256" stroke="#263238" stroke-miterlimit="10"/>
<path d="M180.9 165.323L169 165.201" stroke="#263238" stroke-miterlimit="10"/>
<path d="M294.485 166.483L190.328 165.42" stroke="#263238" stroke-miterlimit="10"/>
<path d="M317.1 166.714L302.023 166.561" stroke="#263238" stroke-miterlimit="10"/>
<path d="M356.164 114.704L338.258 51.1055" stroke="#263238" stroke-miterlimit="10"/>
<path d="M360.171 128.933L357.867 120.75" stroke="#263238" stroke-miterlimit="10"/>
<path d="M389.812 154.429L411.55 134.979" stroke="#263238" stroke-miterlimit="10"/>
<path d="M382.836 160.668L387.097 156.855" stroke="#263238" stroke-miterlimit="10"/>
<path d="M445.094 100.825L487.11 59.418" stroke="#263238" stroke-miterlimit="10"/>
<path d="M434.977 110.799L442.007 103.871" stroke="#263238" stroke-miterlimit="10"/>
<path d="M401.359 22.7737L403.236 10.3027" stroke="#263238" stroke-miterlimit="10"/>
<path d="M391.781 86.4455L400.715 27.0605" stroke="#263238" stroke-miterlimit="10"/>
<path d="M390.391 95.6871L391.178 90.4551" stroke="#263238" stroke-miterlimit="10"/>
<path d="M462.68 140.993L473.512 137.244" stroke="#263238" stroke-miterlimit="10"/>
<path d="M415.93 157.176L455.782 143.381" stroke="#263238" stroke-miterlimit="10"/>
<path d="M394.93 164.448L411.709 158.639" stroke="#263238" stroke-miterlimit="10"/>
<path d="M298.344 70.3066L323.9 100.22" stroke="#263238" stroke-miterlimit="10"/>
<path d="M257.406 22.3926L295.321 66.7706" stroke="#263238" stroke-miterlimit="10"/>
<path d="M372.162 109.213C371.576 109.213 371.102 109.688 371.102 110.274V171.535H373.223V110.274C373.222 109.687 372.748 109.213 372.162 109.213Z" fill="#263238" stroke="#263238" stroke-miterlimit="10"/>
<path d="M373.219 110.273C373.219 110.273 375.495 114.157 382.803 113.314C390.111 112.471 394.327 108.536 402.479 111.627C410.63 114.719 409.787 118.092 414.565 119.216C419.343 120.34 422.716 120.621 422.716 120.621C422.716 120.621 415.97 123.151 411.192 125.961C406.414 128.772 399.668 124.556 396.014 126.242C392.36 127.929 388.706 132.426 383.646 133.55C378.587 134.674 373.317 131.863 373.317 131.863L373.219 110.273Z" fill="#4ABCEB" stroke="#263238" stroke-miterlimit="10"/>
<path d="M130.35 77.3464C130.35 77.3464 126.031 64.3904 109.99 62.5394C93.9495 60.6884 96.4175 69.9434 91.4815 73.0274C86.5455 76.1124 81.6095 71.1764 76.0575 72.4104C70.5045 73.6444 69.2705 78.5804 66.1855 80.4314C63.1005 82.2824 58.1645 78.5804 53.2295 79.1974C48.2935 79.8144 47.0595 83.5164 45.2085 84.7504C43.3575 85.9844 37.1875 86.6014 37.1875 86.6014H158.73C158.73 86.6014 155.646 76.1124 146.391 73.6454C137.138 71.1764 134.669 76.7294 130.35 77.3464Z" stroke="#263238" stroke-miterlimit="10"/>
<path d="M144.395 100.614C144.395 100.614 142.04 93.5494 133.293 92.5404C124.546 91.5314 125.892 96.5774 123.2 98.2594C120.508 99.9414 117.817 97.2504 114.789 97.9234C111.761 98.5964 111.088 101.287 109.406 102.297C107.724 103.306 105.032 101.288 102.341 101.624C99.6498 101.96 98.9768 103.979 97.9668 104.652C96.9578 105.325 93.5938 105.661 93.5938 105.661H159.87C159.87 105.661 158.188 99.9424 153.141 98.5964C148.096 97.2504 146.75 100.278 144.395 100.614Z" stroke="#263238" stroke-miterlimit="10"/>
<path d="M352.31 24.6456C352.31 24.6456 349.955 17.5806 341.208 16.5716C332.461 15.5626 333.807 20.6086 331.115 22.2906C328.424 23.9726 325.732 21.2816 322.704 21.9546C319.676 22.6276 319.003 25.3186 317.321 26.3286C315.639 27.3376 312.947 25.3196 310.256 25.6556C307.565 25.9916 306.892 28.0106 305.882 28.6836C304.873 29.3566 301.508 29.6926 301.508 29.6926H367.784C367.784 29.6926 366.102 23.9736 361.055 22.6276C356.011 21.2806 354.665 24.3086 352.31 24.6456Z" stroke="#263238" stroke-miterlimit="10"/>
<path d="M473.06 158.191C473.06 158.191 470.705 151.126 461.958 150.117C453.211 149.108 454.557 154.154 451.865 155.836C449.174 157.518 446.482 154.827 443.454 155.5C440.426 156.173 439.753 158.864 438.071 159.874C436.389 160.883 433.697 158.865 431.006 159.201C428.315 159.537 427.642 161.556 426.632 162.229C425.623 162.902 422.258 163.238 422.258 163.238H488.534C488.534 163.238 486.852 157.519 481.806 156.173C476.76 154.827 475.415 157.855 473.06 158.191Z" stroke="#263238" stroke-miterlimit="10"/>
<path d="M356.073 364.722L337.126 361.842L321.665 359.872L304.537 358.053L290.137 356.841L266.794 355.174L247.847 354.59C224.688 358.971 182.149 372.701 147.729 385.965C130.184 392.726 114.665 399.596 105.352 403.866C107.898 414.557 111.927 424.616 118.504 433.441C151.504 477.722 198.504 513.146 324.504 471.08C330.585 469.05 336.451 466.789 342.128 464.341L346.978 452.943L357.285 432.783L382.599 388.977L393.361 372L378.051 368.514L356.073 364.722Z" fill="#4ABCEB"/>
<path d="M455.04 309.025L439.709 299.201L423.782 290.568L408.004 283.275L389.994 275.981L371.686 269.878L351.294 264.52L336.707 261.543L321.376 261.096L293.691 261.84L256.258 264.153C256.258 264.153 272.383 271.963 290.523 283.049C308.663 294.135 322.52 313.282 331.086 325.376C339.652 337.469 349.226 363.168 349.226 363.168L360.523 365.14L382.701 369.308L399.074 373.178L418.722 377.643L440.039 383.804C453.276 365.032 464.091 344.301 472.204 322.249L455.04 309.025Z" fill="#4ABCEB"/>
<path d="M160.559 276.869L162.994 270.578L167.256 262.055L174.561 250.894L183.287 240.139L194.854 229.587L206.624 219.847L198.913 217.209L171.315 210.715L164.618 212.339L154.269 214.977L135.397 221.268L120.583 227.762L102.928 237.705L79.997 252.518C77.939 253.784 65.761 263.32 60.5 267.456C66.513 272.938 72.606 278.072 78.506 282.885C82.387 286.05 85.538 289.684 88.121 293.693L93.797 292.089L109.828 287.422L133.773 282.146L160.559 276.869Z" fill="#4ABCEB"/>
<path d="M366.765 171.82L350.784 184.551L337.241 197.282L323.427 212.721L311.78 226.264L304.738 236.828L298.508 246.037L296.07 250.1L318.552 260.663L321.374 261.096L328.032 260.663L339.137 232.223L348.075 214.888L359.452 195.656L370.015 180.488L377.058 171.82H366.765Z" fill="#4ABCEB"/>
<path d="M172.065 210.99C172.065 210.99 114.119 215.864 42.0938 283.557" stroke="#263238" stroke-miterlimit="10"/>
<path d="M206.726 219.654C206.726 219.654 170.442 244.565 160.695 276.516" stroke="#263238" stroke-miterlimit="10"/>
<path d="M335.789 478.96C348.349 443.31 381.049 391.06 393.539 371.73" stroke="#263238" stroke-miterlimit="10"/>
<path d="M51.9766 431.42C51.9766 431.42 145.047 377.39 247.847 354.59" stroke="#263238" stroke-miterlimit="10"/>
<path d="M254.57 264.311C254.57 264.311 325.328 286.729 349.147 363.792" stroke="#263238" stroke-miterlimit="10"/>
<path d="M336.539 261.508C336.539 261.508 438.122 277.621 491.365 342.074" stroke="#263238" stroke-miterlimit="10"/>
<path d="M295.703 250.386C295.703 250.386 318.987 207.634 367.2 171.943" stroke="#263238" stroke-miterlimit="10"/>
<path d="M377.155 171.449C377.155 171.449 339.537 218.454 328.266 261.032" stroke="#263238" stroke-miterlimit="10"/>
<path d="M454.253 344.391C453.328 343.897 452.128 344.053 450.965 344.817C448.982 346.036 446.366 349.426 445.741 350.557C444.917 351.241 444.125 351.958 443.369 352.707C444.032 351.366 445.809 347.711 444.313 345.461C442.227 342.617 439.601 346.712 440.758 349.296C441.628 351.454 442.048 353.175 442.012 354.127C441.04 355.197 440.133 356.319 439.296 357.489C439.709 356.098 440.865 352.164 438.987 350.183C436.453 347.732 434.585 352.177 436.16 354.527C437.391 356.516 438.097 358.146 438.216 359.085C437.437 360.302 436.731 361.563 436.098 362.86C436.269 361.45 436.772 357.337 434.568 355.69C431.661 353.697 430.57 358.379 432.513 360.434C434.063 362.193 435.032 363.686 435.303 364.593C434.737 365.92 434.248 367.28 433.838 368.665C433.772 367.226 433.579 363.095 431.138 361.847C427.939 360.366 427.641 365.176 429.899 366.885C431.716 368.36 432.919 369.673 433.34 370.528C433.002 371.931 432.742 373.356 432.57 374.796C432.254 373.33 431.364 369.329 428.777 368.521C425.374 367.595 425.881 372.43 428.397 373.748C430.419 374.896 431.819 375.99 432.389 376.772C432.278 378.462 432.28 380.166 432.407 381.875C432.418 382.03 432.548 382.147 432.7 382.147C432.707 382.147 432.715 382.147 432.722 382.146C432.884 382.134 433.005 381.993 432.993 381.831C432.868 380.146 432.866 378.466 432.975 376.8C433.643 376.111 435.215 375.314 437.437 374.933C440.066 374.383 442.125 372.037 438.818 371.141C436.121 370.303 433.932 373.32 433.172 374.7C433.343 373.323 433.596 371.961 433.921 370.618C434.703 370.07 436.376 369.574 438.608 369.583C441.289 369.499 443.704 367.557 440.595 366.117C438.101 364.855 435.472 367.367 434.473 368.594C434.867 367.294 435.33 366.017 435.864 364.77C436.726 364.368 438.454 364.168 440.646 364.553C443.3 364.926 446.002 363.421 443.178 361.48C440.931 359.824 437.928 361.845 436.739 362.881C437.339 361.673 438.004 360.498 438.733 359.362C439.648 359.109 441.386 359.2 443.488 359.948C446.041 360.761 448.961 359.722 446.504 357.334C444.551 355.313 441.217 356.843 439.889 357.663C440.683 356.565 441.543 355.513 442.458 354.506C443.401 354.401 445.111 354.776 447.073 355.87C449.456 357.096 452.53 356.548 450.514 353.779C448.918 351.443 445.319 352.435 443.881 353.026C444.644 352.277 445.44 351.558 446.272 350.875C447.375 350.468 450.667 349.39 452.007 349.046C452.805 348.772 455.405 347.748 455.362 346.07C455.354 345.407 454.92 344.746 454.253 344.391Z" fill="#263238"/>
<path d="M462.966 366.607C462.544 366.019 461.752 365.749 460.799 365.867C459.198 366.017 456.543 367.319 455.81 367.83C455.091 368.002 454.381 368.205 453.684 368.438C454.504 367.809 456.72 366.087 456.48 364.236C456.055 361.837 453.179 363.573 453.107 365.528C452.988 367.131 452.723 368.325 452.41 368.904C451.482 369.27 450.577 369.689 449.701 370.159C450.381 369.423 452.299 367.338 451.739 365.537C450.917 363.245 448.403 365.429 448.661 367.366C448.817 368.974 448.757 370.199 448.544 370.818C447.69 371.334 446.868 371.901 446.08 372.511C446.616 371.689 448.183 369.295 447.32 367.601C446.127 365.479 444.022 368.047 444.599 369.914C445.023 371.477 445.168 372.698 445.059 373.342C444.303 373.991 443.586 374.685 442.909 375.418C443.307 374.506 444.448 371.888 443.316 370.369C441.786 368.475 440.133 371.365 441.011 373.113C441.687 374.582 442.032 375.762 442.032 376.42C441.394 377.186 440.799 377.99 440.252 378.83C440.503 377.825 441.173 375.074 439.817 373.785C437.991 372.173 436.83 375.323 437.986 376.908C438.888 378.236 439.422 379.342 439.537 380C438.953 381.013 438.434 382.07 437.991 383.168C437.951 383.267 437.995 383.379 438.089 383.426C438.094 383.428 438.098 383.43 438.103 383.432C438.207 383.474 438.325 383.424 438.367 383.32C438.804 382.238 439.315 381.196 439.892 380.197C440.516 379.973 441.733 379.96 443.226 380.402C445.023 380.863 447.014 380.038 445.239 378.474C443.824 377.132 441.547 378.333 440.655 378.956C441.181 378.155 441.754 377.388 442.365 376.655C443.017 376.554 444.205 376.758 445.585 377.444C447.272 378.21 449.361 377.744 447.874 375.903C446.714 374.36 444.318 375.114 443.324 375.57C443.965 374.885 444.641 374.235 445.353 373.625C446.01 373.639 447.141 374.043 448.383 374.95C449.914 375.991 452.047 375.883 450.889 373.819C450.002 372.107 447.524 372.443 446.472 372.722C447.212 372.157 447.983 371.632 448.782 371.15C449.426 371.272 450.475 371.86 451.549 372.964C452.883 374.247 455.01 374.494 454.215 372.265C453.622 370.417 451.089 370.347 450.016 370.45C450.843 370.012 451.697 369.622 452.571 369.278C453.187 369.501 454.132 370.255 455.014 371.532C456.116 373.019 458.189 373.618 457.784 371.286C457.508 369.352 454.975 368.868 453.904 368.795C454.605 368.564 455.318 368.361 456.042 368.192C456.85 368.276 459.219 368.613 460.154 368.809C460.732 368.883 462.656 369.041 463.141 367.989C463.338 367.573 463.271 367.031 462.966 366.607Z" fill="#263238"/>
<path d="M185.374 326.528C184.673 326.279 183.846 326.516 183.11 327.175C181.847 328.24 180.368 330.898 180.049 331.758C179.543 332.326 179.063 332.913 178.611 333.518C178.934 332.506 179.795 329.752 178.507 328.331C176.741 326.555 175.331 329.708 176.417 331.4C177.256 332.823 177.733 333.987 177.809 334.659C177.24 335.513 176.722 336.397 176.258 337.307C176.401 336.287 176.796 333.402 175.268 332.21C173.23 330.757 172.388 334.076 173.742 335.559C174.817 336.825 175.485 337.895 175.668 338.542C175.25 339.479 174.888 340.439 174.581 341.417C174.552 340.409 174.47 337.468 172.749 336.544C170.497 335.452 170.226 338.855 171.808 340.092C173.082 341.163 173.921 342.109 174.207 342.717C173.95 343.708 173.751 344.715 173.609 345.731C173.41 344.728 172.838 341.848 170.992 341.23C168.589 340.528 168.889 343.937 170.655 344.898C172.087 345.742 173.071 346.536 173.456 347.092C173.367 348.113 173.336 349.141 173.367 350.17C172.99 349.174 171.941 346.459 170.04 346.166C167.553 345.876 168.42 349.217 170.326 349.876C171.867 350.468 172.966 351.088 173.449 351.577C173.55 352.775 173.732 353.972 174.002 355.158C174.026 355.265 174.129 355.334 174.236 355.318C174.241 355.317 174.246 355.316 174.251 355.315C174.363 355.289 174.434 355.178 174.408 355.065C174.142 353.895 173.963 352.716 173.864 351.535C174.26 350.98 175.28 350.255 176.799 349.752C178.586 349.088 179.784 347.223 177.367 346.944C175.385 346.641 174.167 348.991 173.78 350.04C173.755 349.055 173.788 348.072 173.874 347.095C174.365 346.627 175.487 346.102 177.055 345.872C178.929 345.529 180.419 343.91 178.083 343.228C176.199 342.606 174.618 344.648 174.047 345.615C174.186 344.661 174.376 343.715 174.619 342.783C175.182 342.41 176.374 342.087 177.954 342.125C179.857 342.106 181.595 340.764 179.406 339.7C177.653 338.775 175.759 340.512 175.034 341.365C175.327 340.454 175.67 339.558 176.062 338.683C176.678 338.409 177.908 338.289 179.462 338.591C181.341 338.891 183.281 337.853 181.303 336.437C179.718 335.225 177.539 336.652 176.693 337.368C177.134 336.513 177.627 335.683 178.163 334.88C178.814 334.707 180.054 334.789 181.547 335.349C183.35 335.958 185.45 335.247 183.741 333.517C182.373 332.046 179.951 333.123 179.004 333.69C179.46 333.083 179.943 332.494 180.455 331.927C181.187 331.524 183.383 330.419 184.288 330.036C184.819 329.759 186.536 328.765 186.328 327.592C186.254 327.124 185.88 326.707 185.374 326.528Z" fill="#263238"/>
<path d="M193.845 341.203C193.486 340.835 192.902 340.729 192.245 340.913C191.137 341.188 189.41 342.383 188.95 342.819C188.463 343.016 187.986 343.233 187.522 343.471C188.031 342.943 189.405 341.499 189.04 340.225C188.488 338.586 186.652 340.109 186.808 341.489C186.894 342.627 186.834 343.494 186.676 343.933C186.063 344.288 185.472 344.678 184.907 345.101C185.307 344.512 186.432 342.846 185.849 341.641C185.029 340.119 183.495 341.918 183.882 343.251C184.161 344.363 184.249 345.23 184.165 345.687C183.62 346.14 183.103 346.624 182.614 347.136C182.904 346.503 183.75 344.655 182.965 343.558C181.903 342.194 180.697 344.22 181.299 345.47C181.762 346.523 181.993 347.364 181.984 347.829C181.522 348.365 181.092 348.928 180.694 349.514C180.877 348.832 181.401 346.873 180.446 345.926C179.171 344.758 178.316 346.962 179.118 348.096C179.748 349.056 180.115 349.848 180.184 350.31C179.817 350.916 179.484 351.543 179.189 352.19C179.259 351.458 179.438 349.456 178.35 348.694C176.897 347.755 176.416 350.09 177.395 351.08C178.169 351.917 178.661 352.637 178.811 353.087C178.508 353.86 178.255 354.657 178.061 355.475C178.043 355.549 178.086 355.623 178.157 355.646C178.161 355.647 178.164 355.648 178.167 355.649C178.244 355.667 178.322 355.62 178.341 355.542C178.533 354.736 178.782 353.95 179.081 353.188C179.495 352.965 180.349 352.827 181.444 352.979C182.754 353.113 184.065 352.323 182.653 351.412C181.518 350.619 180.046 351.704 179.485 352.236C179.77 351.618 180.091 351.019 180.442 350.44C180.889 350.3 181.744 350.317 182.786 350.653C184.052 351.012 185.469 350.464 184.23 349.329C183.252 348.368 181.65 349.151 181.001 349.576C181.379 349.027 181.784 348.499 182.219 347.996C182.682 347.936 183.519 348.1 184.486 348.606C185.671 349.175 187.157 348.873 186.126 347.546C185.322 346.438 183.618 346.936 182.909 347.243C183.369 346.768 183.855 346.317 184.364 345.895C184.829 345.913 185.628 346.214 186.499 346.876C187.571 347.635 189.091 347.584 188.297 346.103C187.685 344.868 185.899 345.087 185.156 345.273C185.69 344.878 186.249 344.514 186.826 344.18C187.282 344.271 188.025 344.701 188.78 345.504C189.711 346.431 191.23 346.632 190.699 345.038C190.3 343.709 188.471 343.637 187.711 343.7C188.179 343.463 188.658 343.246 189.148 343.05C189.724 343.024 191.423 343.009 192.1 343.048C192.514 343.038 193.881 342.946 194.11 342.156C194.208 341.842 194.103 341.469 193.845 341.203Z" fill="#263238"/>
<path d="M57.3958 351.459C57.8498 351.298 58.3858 351.451 58.8618 351.878C59.6798 352.568 60.6378 354.289 60.8448 354.847C61.1728 355.215 61.4838 355.595 61.7768 355.987C61.5678 355.332 61.0098 353.548 61.8438 352.627C62.9878 351.477 63.9008 353.519 63.1978 354.615C62.6538 355.537 62.3448 356.291 62.2958 356.726C62.6648 357.279 62.9998 357.852 63.3008 358.441C63.2088 357.78 62.9518 355.912 63.9418 355.139C65.2618 354.198 65.8068 356.348 64.9298 357.308C64.2338 358.128 63.8008 358.821 63.6828 359.24C63.9538 359.847 64.1878 360.469 64.3868 361.102C64.4058 360.449 64.4588 358.544 65.5738 357.946C67.0328 357.239 67.2078 359.443 66.1838 360.245C65.3578 360.939 64.8148 361.551 64.6298 361.945C64.7958 362.587 64.9258 363.239 65.0168 363.897C65.1458 363.247 65.5168 361.382 66.7118 360.981C68.2678 360.527 68.0738 362.735 66.9298 363.357C66.0018 363.904 65.3648 364.418 65.1148 364.778C65.1718 365.439 65.1928 366.105 65.1728 366.772C65.4168 366.127 66.0958 364.368 67.3278 364.178C68.9388 363.99 68.3768 366.154 67.1428 366.581C66.1448 366.964 65.4328 367.366 65.1198 367.683C65.0548 368.459 64.9368 369.234 64.7618 370.003C64.7458 370.073 64.6798 370.117 64.6098 370.107C64.6068 370.107 64.6028 370.106 64.5998 370.105C64.5268 370.088 64.4818 370.016 64.4978 369.943C64.6708 369.185 64.7858 368.421 64.8508 367.656C64.5948 367.297 63.9338 366.827 62.9498 366.501C61.7918 366.071 61.0168 364.863 62.5818 364.682C63.8658 364.485 64.6548 366.008 64.9058 366.687C64.9218 366.049 64.9008 365.412 64.8448 364.779C64.5268 364.476 63.7998 364.136 62.7838 363.987C61.5698 363.765 60.6048 362.716 62.1178 362.274C63.3388 361.871 64.3618 363.194 64.7328 363.82C64.6428 363.202 64.5198 362.589 64.3628 361.986C63.9978 361.744 63.2258 361.535 62.2028 361.56C60.9698 361.548 59.8448 360.678 61.2618 359.989C62.3968 359.39 63.6248 360.515 64.0938 361.067C63.9038 360.477 63.6818 359.897 63.4278 359.33C63.0288 359.152 62.2318 359.075 61.2248 359.271C60.0078 359.465 58.7508 358.793 60.0328 357.875C61.0598 357.09 62.4708 358.014 63.0188 358.478C62.7328 357.924 62.4138 357.387 62.0668 356.866C61.6458 356.754 60.8418 356.807 59.8748 357.17C58.7068 357.564 57.3468 357.104 58.4538 355.983C59.3398 355.03 60.9088 355.728 61.5218 356.095C61.2258 355.702 60.9138 355.32 60.5818 354.953C60.1078 354.692 58.6848 353.976 58.0988 353.728C57.7548 353.549 56.6428 352.905 56.7768 352.145C56.8248 351.846 57.0678 351.575 57.3958 351.459Z" fill="#263238"/>
<path d="M51.9075 360.967C52.1395 360.729 52.5185 360.66 52.9435 360.779C53.6615 360.957 54.7795 361.731 55.0775 362.013C55.3925 362.141 55.7015 362.281 56.0025 362.435C55.6725 362.093 54.7825 361.158 55.0185 360.332C55.3765 359.27 56.5655 360.257 56.4645 361.151C56.4085 361.888 56.4475 362.45 56.5505 362.734C56.9475 362.964 57.3305 363.217 57.6965 363.49C57.4375 363.109 56.7085 362.029 57.0865 361.248C57.6175 360.262 58.6115 361.428 58.3605 362.291C58.1795 363.012 58.1225 363.573 58.1775 363.869C58.5305 364.162 58.8655 364.476 59.1825 364.808C58.9945 364.398 58.4465 363.201 58.9545 362.49C59.6425 361.606 60.4235 362.919 60.0335 363.728C59.7335 364.41 59.5845 364.955 59.5895 365.256C59.8885 365.603 60.1675 365.968 60.4255 366.348C60.3065 365.906 59.9675 364.637 60.5865 364.024C61.4125 363.267 61.9655 364.695 61.4465 365.43C61.0385 366.052 60.8005 366.565 60.7555 366.864C60.9925 367.256 61.2085 367.662 61.3995 368.082C61.3545 367.608 61.2385 366.311 61.9435 365.817C62.8845 365.209 63.1965 366.721 62.5625 367.363C62.0615 367.905 61.7425 368.371 61.6455 368.663C61.8415 369.164 62.0055 369.68 62.1315 370.21C62.1425 370.258 62.1155 370.306 62.0695 370.321C62.0675 370.322 62.0645 370.322 62.0625 370.323C62.0125 370.335 61.9625 370.304 61.9505 370.254C61.8265 369.732 61.6645 369.223 61.4715 368.729C61.2035 368.584 60.6505 368.495 59.9405 368.594C59.0915 368.681 58.2425 368.169 59.1575 367.579C59.8935 367.066 60.8465 367.768 61.2095 368.113C61.0245 367.713 60.8175 367.324 60.5895 366.949C60.3005 366.858 59.7455 366.87 59.0705 367.087C58.2505 367.32 57.3325 366.965 58.1355 366.229C58.7685 365.607 59.8065 366.114 60.2275 366.389C59.9825 366.034 59.7195 365.691 59.4385 365.365C59.1385 365.326 58.5965 365.432 57.9695 365.76C57.2015 366.129 56.2395 365.933 56.9075 365.074C57.4285 364.356 58.5315 364.679 58.9915 364.878C58.6935 364.57 58.3785 364.278 58.0485 364.005C57.7475 364.017 57.2295 364.212 56.6655 364.64C55.9705 365.132 54.9865 365.099 55.5005 364.139C55.8975 363.339 57.0535 363.481 57.5345 363.601C57.1885 363.345 56.8265 363.109 56.4525 362.893C56.1575 362.952 55.6755 363.23 55.1865 363.75C54.5835 364.351 53.5995 364.481 53.9435 363.448C54.2015 362.587 55.3865 362.541 55.8785 362.581C55.5755 362.428 55.2655 362.287 54.9475 362.16C54.5745 362.143 53.4735 362.134 53.0355 362.159C52.7675 362.153 51.8815 362.093 51.7335 361.581C51.6715 361.38 51.7395 361.138 51.9075 360.967Z" fill="#263238"/>
<path d="M482.604 399.01C456.314 388.15 426.324 378.92 393.534 371.73C349.334 362.02 300.044 356 247.844 354.59C239.994 354.38 232.094 354.27 224.124 354.27C145.284 354.27 72.1641 364.78 11.9141 382.73" stroke="#263238" stroke-miterlimit="10"/>
<path d="M474.219 272.115C482.667 273.39 491.199 274.79 499.81 276.323" stroke="#263238" stroke-miterlimit="10"/>
<path d="M37.875 310.711C37.875 310.711 215.169 234.273 469.63 271.434" stroke="#263238" stroke-miterlimit="10"/>
<path d="M40.9766 196.84C72.7306 196.042 186.335 198.291 320.209 261.347" stroke="#263238" stroke-miterlimit="10"/>
<path d="M32.1406 197.231C32.1406 197.231 33.8136 197.097 37.0106 196.969" stroke="#263238" stroke-miterlimit="10"/>
<path d="M192.43 215.21C192.43 215.21 325.579 147.942 491.785 178.891" stroke="#263238" stroke-miterlimit="10"/>
<path d="M89.9434 302.672L94.1954 305.743L94.4314 316.845C94.4314 316.845 89.7064 316.609 87.8174 314.955C85.9274 313.301 85.1484 310.37 85.1484 310.37L89.9434 302.672Z" fill="white" stroke="#263238" stroke-miterlimit="10"/>
<path d="M85.4297 231.008C85.4297 231.008 70.2357 274.048 71.1917 278.636C72.1477 283.224 78.6477 301.386 79.6037 303.298C80.5597 305.21 83.0447 305.592 83.0447 305.592C83.0447 305.592 84.7647 308.842 85.1477 310.371C85.5297 311.9 87.6327 311.327 88.7797 310.945C89.9267 310.563 90.6917 308.842 91.0737 308.268C91.4557 307.695 91.4557 308.459 91.4557 306.547C91.4557 304.635 89.9267 299.473 89.9267 299.473C89.9267 299.473 90.8827 296.797 90.8827 294.694C90.8827 292.591 88.5887 277.679 88.3977 276.724C88.2067 275.768 90.1187 269.459 90.1187 269.459L85.4297 231.008Z" fill="#4ABCEB" stroke="#263238" stroke-miterlimit="10"/>
<path d="M137.921 436.477C137.921 436.477 139.433 438.935 140 439.313C140.567 439.691 143.781 441.771 144.915 442.338C146.049 442.905 146.994 443.85 146.994 445.552C146.994 447.254 145.293 447.821 141.701 449.144C138.109 450.467 136.03 452.547 130.925 452.925C125.821 453.303 123.93 452.358 123.93 450.845C123.93 449.333 124.667 439.209 124.667 439.209C124.667 439.209 135.463 439.502 137.921 436.477Z" fill="#263238" stroke="#263238" stroke-miterlimit="10"/>
<path d="M94.5575 437.32C94.5575 437.32 94.2125 447.125 94.5645 447.909C94.9165 448.693 96.6745 449.947 100.192 450.104C103.709 450.261 106.347 449.163 107.05 448.536C107.753 447.909 107.753 446.341 107.753 446.341L108.84 437.711L94.5575 437.32Z" fill="#263238" stroke="#263238" stroke-miterlimit="10"/>
<path d="M93.9471 298.926C93.9471 298.926 91.6431 315.343 92.0261 320.122C92.4081 324.901 92.6001 331.784 92.6001 331.784L94.4271 429.053L91.8281 430.47L93.4821 437.321C93.4821 437.321 96.5531 438.502 99.6241 438.738C102.695 438.974 108.837 437.793 108.837 437.793L109.782 433.069L108.365 429.289C108.365 429.289 108.365 427.872 108.838 425.982C109.31 424.092 111.673 382.753 111.673 382.753L117.579 333.619L119.705 337.162L125.138 428.108C125.138 428.108 123.248 431.651 123.484 432.36C123.72 433.069 124.665 435.903 124.665 435.903V439.21C124.665 439.21 127.972 440.627 130.807 439.919C133.642 439.21 137.657 437.793 137.657 437.793C137.657 437.793 138.838 434.486 138.838 433.777C138.838 433.068 138.602 431.415 138.602 430.47C138.602 429.525 147.277 325.666 147.277 325.666L144.507 300.311L93.9471 298.926Z" fill="#263238" stroke="#263238" stroke-miterlimit="10"/>
<path d="M105.459 218.804C105.459 218.804 85.6772 226.998 85.4272 231.008C85.1762 235.018 93.9482 298.925 93.9482 298.925L141.314 300.178C141.314 300.178 147.078 229.504 146.076 228C145.074 226.496 125.441 219.008 125.441 219.008C125.441 219.008 108.7 217.878 105.459 218.804Z" fill="#4ABCEB" stroke="#263238" stroke-miterlimit="10"/>
<path d="M134.62 193.726C134.62 193.726 135.639 197.6 135.028 199.231C134.416 200.862 134.824 201.066 134.824 202.697C134.824 204.328 135.232 206.775 133.804 209.629C132.377 212.483 130.746 217.173 129.115 217.581C127.484 217.989 126.057 217.173 126.057 217.173L125.445 219.008L108.93 216.561L109.542 212.279C109.542 212.279 109.134 201.677 109.338 199.842C109.542 198.007 109.338 192.094 114.231 188.424C119.124 184.755 131.97 184.347 134.62 193.726Z" fill="white" stroke="#263238" stroke-miterlimit="10"/>
<path d="M111.986 180.066C111.986 180.066 106.889 181.697 105.054 189.037C103.219 196.377 105.258 203.105 106.481 204.533C107.704 205.961 109.335 208.611 109.335 208.611L109.539 212.281C109.539 212.281 118.918 213.504 120.957 213.097C122.996 212.689 123.811 212.281 124.627 211.67C125.443 211.059 126.258 208.815 126.87 205.961C127.482 203.107 130.132 200.048 130.132 201.679C130.132 203.31 130.132 204.941 130.132 204.941C130.132 204.941 132.375 204.533 132.375 202.902C132.375 201.271 131.967 199.844 132.375 199.028C132.783 198.212 134.21 197.397 135.026 195.766C135.841 194.135 135.841 189.038 135.841 189.038C135.841 189.038 138.288 192.3 138.492 189.446C138.696 186.592 137.269 182.31 132.987 180.271C128.705 178.232 125.647 178.64 125.647 178.64C125.647 178.64 118.103 173.745 111.986 180.066Z" fill="#263238" stroke="#263238" stroke-miterlimit="10"/>
<path d="M130.131 220.232C130.131 220.232 126.257 216.358 119.529 214.727C112.801 213.096 107.703 214.523 106.684 215.95C105.664 217.377 105.461 218.805 105.461 218.805C105.461 218.805 114.84 219.009 118.51 219.417C122.18 219.825 132.789 222.016 132.789 222.016L130.131 220.232Z" fill="#4ABCEB" stroke="#263238" stroke-miterlimit="10"/>
<path d="M137.562 248.551L140.068 295.166L148.089 323.486L154.604 322.985L156.108 316.72C156.108 316.72 156.86 311.206 156.86 310.204C156.86 309.202 155.107 251.81 152.35 242.538C149.593 233.265 146.334 227.25 143.327 227.25" fill="#4ABCEB"/>
<path d="M137.562 248.551L140.068 295.166L148.089 323.486L154.604 322.985L156.108 316.72C156.108 316.72 156.86 311.206 156.86 310.204C156.86 309.202 155.107 251.81 152.35 242.538C149.593 233.265 146.334 227.25 143.327 227.25" stroke="#263238" stroke-miterlimit="10"/>
<path d="M155.414 331.691H152.953V342.739H155.414V331.691Z" fill="#263238" stroke="#263238" stroke-miterlimit="10"/>
<path d="M154.6 322.984L157.603 331.209L153.971 337.135C153.971 337.135 150.147 336.944 149.574 336.37C149 335.796 146.515 333.311 147.471 332.546C148.427 331.781 148.427 331.781 148.427 331.781C148.427 331.781 146.898 327.002 147.28 325.663C147.662 324.325 148.085 323.483 148.085 323.483L154.6 322.984Z" fill="white" stroke="#263238" stroke-miterlimit="10"/>
<path d="M101.516 327.477L122.776 333.619" stroke="#7D7D7D" stroke-miterlimit="10"/>
<path d="M151.445 331.691H148.984V342.739H151.445V331.691Z" fill="#263238" stroke="#263238" stroke-miterlimit="10"/>
<path d="M152.484 393.27L164.998 388.647V343.148L152.484 342.715V393.27Z" fill="#808080" stroke="#263238" stroke-miterlimit="10"/>
<path d="M152.488 342.715H140.617V393.27H152.488V342.715Z" fill="#4C4C4C" stroke="#263238" stroke-miterlimit="10"/>
<path d="M106 240.281C106 240.281 116.361 260.341 122.092 264.97" stroke="#263238" stroke-miterlimit="10"/>
<path d="M111.734 258.576C111.734 258.576 119.449 268.716 123.638 270.479" stroke="#263238" stroke-miterlimit="10"/>
</svg>
