<svg width="43" height="35" viewBox="0 0 43 35" fill="none" xmlns="http://www.w3.org/2000/svg">
<rect x="6.30815" y="21.2028" width="16.9715" height="1.84357" rx="0.5" fill="white"/>
<path d="M4.38218 27.7965H5.38682V31.6787V33.1456L6.57595 32.2867L12.7927 27.7965H26.2762C28.0302 27.7965 29.4084 26.3247 29.4084 24.5738V10.6665C29.4084 8.91524 28.0301 7.44388 26.2762 7.44388H4.38218C2.62832 7.44388 1.25 8.91524 1.25 10.6665V24.5738C1.25 26.3247 2.62825 27.7965 4.38218 27.7965Z" stroke="white" stroke-width="1.5"/>
<rect x="6.30815" y="12.9664" width="16.9715" height="1.84357" rx="0.5" fill="white"/>
<rect x="6.30815" y="17.0846" width="16.9715" height="1.84357" rx="0.5" fill="white"/>
<path d="M30.1261 3.05162L26.9812 3.50088C25.742 3.67793 24.8214 4.73927 24.8214 5.99112V10.0128C24.8214 11.2646 25.742 12.3259 26.9812 12.503L30.1261 12.9523C30.4979 13.0054 30.8532 13.1412 31.1657 13.3495L34.4183 15.5179C34.9756 15.8894 35.7219 15.49 35.7219 14.8202V1.18367C35.7219 0.513955 34.9756 0.1145 34.4183 0.485985L31.1657 2.65442C30.8532 2.86277 30.4979 2.9985 30.1261 3.05162Z" fill="white"/>
<path d="M37.0294 10.1729C36.8725 9.73719 37.0983 9.25673 37.534 9.09975C37.9743 8.94103 38.2375 8.51603 38.2375 8.00195C38.2375 7.4879 37.9743 7.06283 37.534 6.90416C37.0983 6.74715 36.8725 6.26669 37.0294 5.83103C37.1864 5.39536 37.6669 5.16946 38.1025 5.32647C39.3393 5.77216 39.9145 6.93153 39.9145 8.00195C39.9145 9.07238 39.3393 10.2317 38.1025 10.6774C37.6669 10.8344 37.1864 10.6085 37.0294 10.1729Z" fill="white"/>
<path d="M37.9532 12.2441C37.5176 12.4011 37.2916 12.8815 37.4487 13.3172C37.6056 13.7529 38.0861 13.9788 38.5218 13.8218C41.156 12.8725 42.43 10.3928 42.43 8.00194C42.43 5.61115 41.156 3.13139 38.5218 2.18208C38.0861 2.02507 37.6056 2.25097 37.4487 2.68663C37.2916 3.1223 37.5176 3.60275 37.9532 3.75976C39.791 4.42206 40.753 6.16752 40.753 8.00194C40.753 9.83634 39.791 11.5818 37.9532 12.2441Z" fill="white"/>
</svg>
