<svg width="36" height="33" viewBox="0 0 36 33" fill="none" xmlns="http://www.w3.org/2000/svg">
<rect x="1.25" y="7.46875" width="31.3438" height="24.875" rx="1.5" stroke="#C8D0DB"/>
<path d="M10.0938 7.6875L21.1275 0.791437C21.3775 0.635156 21.7078 0.728089 21.8397 0.991829L23.0312 3.375" stroke="#C8D0DB"/>
<path d="M14.4062 7.6875L26.1343 2.1684C26.3986 2.04402 26.7128 2.17174 26.8154 2.44525L28.7812 7.6875" stroke="#C8D0DB"/>
<mask id="path-4-inside-1_331_4885" fill="white">
<path d="M20.875 17.5938C20.875 16.4892 21.7704 15.5938 22.875 15.5938H34.75C35.0261 15.5938 35.25 15.8176 35.25 16.0938V23.7188C35.25 23.9949 35.0261 24.2188 34.75 24.2188H22.875C21.7704 24.2188 20.875 23.3233 20.875 22.2188V17.5938Z"/>
</mask>
<path d="M20.875 17.5938C20.875 16.4892 21.7704 15.5938 22.875 15.5938H34.75C35.0261 15.5938 35.25 15.8176 35.25 16.0938V23.7188C35.25 23.9949 35.0261 24.2188 34.75 24.2188H22.875C21.7704 24.2188 20.875 23.3233 20.875 22.2188V17.5938Z" stroke="#C8D0DB" stroke-width="2" mask="url(#path-4-inside-1_331_4885)"/>
<circle cx="25.5469" cy="19.834" r="1.44687" stroke="#C8D0DB" stroke-width="0.7"/>
<rect x="23.4609" y="4.66797" width="2.875" height="1.4375" rx="0.3" fill="#C8D0DB"/>
<path d="M32.375 13.4375H34.2313C34.3969 13.4375 34.5312 13.5718 34.5312 13.7375V16.3125" stroke="#C8D0DB"/>
<path d="M11.1693 22.8267L11.3296 22.1011L12.3631 21.9481L12.1721 22.8267H11.1693Z" fill="#C8D0DB" stroke="#C8D0DB"/>
<path d="M16.7065 22.8137L17.0144 21.3093L18.0244 21.1897L17.6466 22.8137H16.7065Z" fill="#C8D0DB" stroke="#C8D0DB"/>
<mask id="path-10-inside-2_331_4885" fill="white">
<path d="M5.07812 23.2532L7.26124 22.5156L7.1018 23.3146H5.07812V23.2532Z"/>
</mask>
<path d="M5.07812 23.2532L7.26124 22.5156L7.1018 23.3146H5.07812V23.2532Z" fill="#C8D0DB"/>
<path d="M5.07812 23.2532L4.75806 22.3058L4.07812 22.5355V23.2532H5.07812ZM7.26124 22.5156L8.24191 22.7113L8.58053 21.0144L6.94117 21.5682L7.26124 22.5156ZM7.1018 23.3146V24.3146H7.92196L8.08246 23.5103L7.1018 23.3146ZM5.07812 23.3146H4.07812V24.3146H5.07812V23.3146ZM5.39819 24.2006L7.58131 23.463L6.94117 21.5682L4.75806 22.3058L5.39819 24.2006ZM6.28057 22.3199L6.12113 23.1189L8.08246 23.5103L8.24191 22.7113L6.28057 22.3199ZM7.1018 22.3146H5.07812V24.3146H7.1018V22.3146ZM6.07812 23.3146V23.2532H4.07812V23.3146H6.07812Z" fill="#C8D0DB" mask="url(#path-10-inside-2_331_4885)"/>
<mask id="mask0_331_4885" style="mask-type:luminance" maskUnits="userSpaceOnUse" x="5" y="14" width="15" height="10">
<path d="M18.6598 20.633C17.9554 20.7076 17.2654 20.7858 16.5899 20.8678L17.237 17.8251C17.306 17.5251 17.3404 17.2539 17.3404 17.0117C17.3404 16.147 16.8177 15.7147 15.7722 15.7147H14.2026L13.0007 21.3598C12.2739 21.4735 11.576 21.5928 10.907 21.7176L12.1844 15.7147H9.21859C8.86264 15.7147 8.6502 15.8875 8.58125 16.2332L7.24508 22.5521C6.42185 22.784 5.69227 23.0328 5.07031 23.297L6.68462 15.7147C6.79922 15.1724 6.99444 14.7768 7.27025 14.528C7.54605 14.2802 7.97699 14.1562 8.56309 14.1562H16.3062C17.2603 14.1562 18.022 14.3468 18.5913 14.7279C19.1606 15.1081 19.4453 15.6965 19.4453 16.4932C19.4453 16.8277 19.422 17.0927 19.3754 17.2884L18.6598 20.633Z" fill="white"/>
<path d="M18.6598 20.633C17.9554 20.7076 17.2654 20.7858 16.5899 20.8678L17.237 17.8251C17.306 17.5251 17.3404 17.2539 17.3404 17.0117C17.3404 16.147 16.8177 15.7147 15.7722 15.7147H14.2026L13.0007 21.3598C12.2739 21.4735 11.576 21.5928 10.907 21.7176L12.1844 15.7147H9.21859C8.86264 15.7147 8.6502 15.8875 8.58125 16.2332L7.24508 22.5521C6.42185 22.784 5.69227 23.0328 5.07031 23.297L6.68462 15.7147C6.79922 15.1724 6.99444 14.7768 7.27025 14.528C7.54605 14.2802 7.97699 14.1562 8.56309 14.1562H16.3062C17.2603 14.1562 18.022 14.3468 18.5913 14.7279C19.1606 15.1081 19.4453 15.6965 19.4453 16.4932C19.4453 16.8277 19.422 17.0927 19.3754 17.2884L18.6598 20.633Z" stroke="white"/>
</mask>
<g mask="url(#mask0_331_4885)">
<path d="M65.8996 29.4841H2.97656V11.9434H65.8996V29.4841Z" fill="#C8D0DB"/>
<path d="M65.8996 29.4841H2.97656V11.9434H65.8996V29.4841Z" stroke="#C8D0DB"/>
</g>
</svg>
