<svg width="48" height="48" viewBox="0 0 48 48" fill="none" xmlns="http://www.w3.org/2000/svg">
<g clip-path="url(#clip0_2369_1830)">
<path d="M24 47.5C36.9787 47.5 47.5 36.9787 47.5 24C47.5 11.0213 36.9787 0.5 24 0.5C11.0213 0.5 0.5 11.0213 0.5 24C0.5 36.9787 11.0213 47.5 24 47.5Z" stroke="#101010"/>
<path fill-rule="evenodd" clip-rule="evenodd" d="M19.6539 21.1731C19.6539 14.9289 24.9519 12 28.827 12C34.562 12 38.0001 16.6804 38.0001 21.1731C38.0001 24.0941 35.9954 29.8541 29.6546 30.3165V29.6023C30.9639 29.1249 32.0708 27.5327 32.7021 25.3551C31.6166 24.8053 30.4232 24.4889 29.1902 24.4368C29.0133 24.1036 28.7908 23.7983 28.5309 23.5294V21.4692H24.3922C24.3974 21.753 24.4097 22.0331 24.4289 22.3092H23.8389C23.8202 22.0329 23.8083 21.7527 23.8035 21.4692H20.2534C20.2631 21.7514 20.2864 22.0317 20.3232 22.3092H19.7154C19.675 21.9429 19.6539 21.5642 19.6539 21.1731ZM24.4355 16.7057C24.9483 15.03 25.7428 13.6793 26.6999 12.8631C25.1542 13.2604 23.7385 14.0838 22.6189 15.2575C23.1606 15.8245 23.771 16.3121 24.4355 16.7057ZM24.273 17.2944C23.5218 16.8682 22.832 16.3301 22.2253 15.6981C21.0118 17.1571 20.3184 18.9737 20.2534 20.8769H23.8035C23.8252 19.6021 23.9913 18.3887 24.273 17.2944ZM24.3922 20.8769H28.5309V18.5006C27.2271 18.4573 25.9559 18.1358 24.8002 17.5725C24.5583 18.5837 24.4138 19.6996 24.3922 20.8769ZM24.9519 16.991C26.057 17.5508 27.2741 17.8686 28.5309 17.9119V12.6139C26.9924 12.809 25.667 14.5244 24.9519 16.991ZM37.4006 20.8769C37.3356 18.9737 36.6422 17.1571 35.4287 15.6981C34.822 16.3301 34.1322 16.8646 33.3847 17.2944C33.6663 18.3887 33.8325 19.5985 33.8541 20.8769H37.4006ZM33.2185 16.7021C33.883 16.3085 34.4934 15.8209 35.0351 15.2539C33.9155 14.0838 32.4999 13.2604 30.9542 12.8595C31.9112 13.6793 32.7057 15.03 33.2185 16.7021ZM32.7021 16.991C31.987 14.528 30.6616 12.809 29.1231 12.6139V17.9119C30.3799 17.865 31.597 17.5508 32.7021 16.991ZM32.8538 17.5725C31.7017 18.1358 30.4305 18.4573 29.1231 18.5006V20.8769H33.2619C33.2402 19.6996 33.0957 18.5837 32.8538 17.5725ZM33.2619 21.4692H29.1231V23.8455C30.4187 23.8849 31.6908 24.2014 32.8538 24.7737C33.0957 23.7625 33.2402 22.6465 33.2619 21.4692ZM33.2185 25.6404C32.7057 27.3161 31.9112 28.6668 30.9542 29.483C32.4999 29.0858 33.9155 28.2623 35.0351 27.0886C34.4934 26.5216 33.883 26.0341 33.2185 25.6404ZM33.3847 25.0518C34.1322 25.4815 34.822 26.016 35.4287 26.648C36.6422 25.189 37.3356 23.3724 37.4006 21.4692H33.8541C33.8325 22.7441 33.6663 23.9575 33.3847 25.0518Z" fill="black"/>
<path d="M27.0187 22.2114H14.3656C12.9849 22.2114 11.8656 23.3307 11.8656 24.7114V32.9422H29.5187V24.7114C29.5187 23.3307 28.3994 22.2114 27.0187 22.2114Z" stroke="black" stroke-width="0.5" stroke-linecap="square"/>
<path d="M18.2692 32.9423H23.6346V32.9423C23.6346 33.8982 22.8597 34.6731 21.9038 34.6731H20C19.0441 34.6731 18.2692 33.8982 18.2692 32.9423V32.9423ZM30.5308 32.9423H11.2C11.0895 32.9423 11 33.0319 11 33.1423V34.0577C11 35.1623 11.8954 36.0577 13 36.0577H28.7308C29.8353 36.0577 30.7308 35.1623 30.7308 34.0577V33.1423C30.7308 33.0319 30.6412 32.9423 30.5308 32.9423Z" stroke="black" stroke-width="0.5" stroke-linecap="square"/>
<path d="M27.318 23.5962H14.0963C13.8202 23.5962 13.5963 23.82 13.5963 24.0962V31.2308C13.5963 31.5069 13.8202 31.7308 14.0963 31.7308H27.318C27.5941 31.7308 27.818 31.5069 27.818 31.2308V24.0962C27.818 23.82 27.5941 23.5962 27.318 23.5962Z" stroke="black" stroke-width="0.5" stroke-linecap="square"/>
</g>
<defs>
<clipPath id="clip0_2369_1830">
<rect width="48" height="48" fill="white"/>
</clipPath>
</defs>
</svg>
