<svg width="48" height="48" viewBox="0 0 48 48" fill="none" xmlns="http://www.w3.org/2000/svg">
<circle cx="24" cy="24" r="24" fill="#20336B"/>
<rect x="13" y="24.1152" width="22" height="7.75304" rx="3.5" stroke="white"/>
<path d="M20.5978 32.1023C20.5978 33.1502 19.7015 33.9996 18.5958 33.9996C17.4901 33.9996 16.5938 33.1502 16.5938 32.1023C16.5938 31.0545 17.3504 31.9699 18.4561 31.9699C19.5618 31.9699 20.5978 31.0545 20.5978 32.1023Z" fill="white"/>
<path d="M31.4962 32.1023C31.4962 33.1502 30.5999 33.9996 29.4942 33.9996C28.3885 33.9996 27.4922 33.1502 27.4922 32.1023C27.4922 31.0545 28.2488 31.9699 29.3545 31.9699C30.4602 31.9699 31.4962 31.0545 31.4962 32.1023Z" fill="white"/>
<circle cx="27.7271" cy="28.3169" r="1.07085" fill="white"/>
<circle cx="31.0787" cy="28.3169" r="1.07085" fill="white"/>
<path d="M24.0469 19.332V23.5223" stroke="white" stroke-linecap="round"/>
<path fill-rule="evenodd" clip-rule="evenodd" d="M24.0433 14.0082C22.4996 14.0057 21.0002 14.5004 19.7887 15.4121C19.7344 15.455 19.6716 15.4872 19.604 15.5066C19.5365 15.5261 19.4655 15.5325 19.3953 15.5254C19.3251 15.5184 19.2571 15.498 19.1953 15.4655C19.1335 15.433 19.0792 15.3891 19.0355 15.3363C18.9918 15.2834 18.9596 15.2228 18.9409 15.158C18.9221 15.0932 18.9172 15.0254 18.9263 14.9587C18.9355 14.8921 18.9586 14.8278 18.9942 14.7697C19.0298 14.7117 19.0772 14.661 19.1337 14.6207C20.5318 13.5687 22.2619 12.9976 24.0433 13C25.8248 12.9976 27.5548 13.5687 28.9529 14.6207C29.0094 14.661 29.0569 14.7117 29.0925 14.7697C29.1281 14.8278 29.1512 14.8921 29.1603 14.9587C29.1695 15.0254 29.1645 15.0932 29.1458 15.158C29.127 15.2228 29.0949 15.2834 29.0512 15.3363C29.0075 15.3891 28.9531 15.433 28.8913 15.4655C28.8295 15.498 28.7615 15.5184 28.6913 15.5254C28.6212 15.5325 28.5502 15.5261 28.4826 15.5066C28.4151 15.4872 28.3523 15.455 28.298 15.4121C27.0864 14.5004 25.5871 14.0057 24.0433 14.0082ZM24.0433 16.0246C23.4099 16.0237 22.7828 16.1437 22.1988 16.3775C21.6148 16.6113 21.0859 16.954 20.6431 17.3856C20.5449 17.4812 20.4109 17.5356 20.2705 17.537C20.1302 17.5383 19.995 17.4865 19.8948 17.3929C19.7945 17.2994 19.7374 17.1717 19.736 17.0379C19.7345 16.9042 19.7889 16.7754 19.8871 16.6799C20.4284 16.1525 21.075 15.7336 21.7888 15.4479C22.5026 15.1622 23.2691 15.0155 24.0433 15.0164C24.8175 15.0155 25.5841 15.1622 26.2979 15.4479C27.0117 15.7336 27.6583 16.1525 28.1996 16.6799C28.2482 16.7272 28.2866 16.7832 28.3125 16.8446C28.3384 16.906 28.3514 16.9717 28.3507 17.0379C28.35 17.1041 28.3356 17.1696 28.3084 17.2305C28.2811 17.2914 28.2415 17.3466 28.1919 17.3929C28.1422 17.4393 28.0835 17.4759 28.019 17.5006C27.9546 17.5253 27.8856 17.5376 27.8161 17.537C27.7466 17.5363 27.678 17.5226 27.614 17.4966C27.5501 17.4706 27.4922 17.4329 27.4435 17.3856C27.0008 16.954 26.4718 16.6113 25.8879 16.3775C25.3039 16.1437 24.6767 16.0237 24.0433 16.0246ZM24.0433 18.041C23.2603 18.041 22.5567 18.3646 22.0721 18.8808C21.9781 18.979 21.8472 19.0378 21.7079 19.0445C21.5687 19.0512 21.4322 19.0053 21.3283 18.9166C21.2244 18.828 21.1615 18.7039 21.1531 18.5712C21.1448 18.4386 21.1917 18.3081 21.2838 18.2083C21.6308 17.8381 22.0561 17.542 22.5317 17.3394C23.0072 17.1368 23.5224 17.0323 24.0433 17.0328C25.1401 17.0328 26.1262 17.488 26.8034 18.2088C26.8505 18.258 26.8869 18.3156 26.9105 18.3783C26.9341 18.441 26.9444 18.5075 26.9409 18.574C26.9374 18.6405 26.92 18.7057 26.8899 18.7658C26.8598 18.8259 26.8175 18.8797 26.7654 18.9241C26.7133 18.9685 26.6526 19.0027 26.5866 19.0246C26.5206 19.0465 26.4507 19.0557 26.3809 19.0517C26.3111 19.0477 26.2429 19.0306 26.1801 19.0014C26.1173 18.9721 26.0612 18.9313 26.0151 18.8813C25.7673 18.6165 25.4635 18.4048 25.1237 18.26C24.7838 18.1151 24.4156 18.0405 24.0433 18.041Z" fill="#00BAF2"/>
</svg>
