<svg width="36" height="37" viewBox="0 0 36 37" fill="none" xmlns="http://www.w3.org/2000/svg">
<path d="M13.3516 14.582H21.4932" stroke="#C8D0DB" stroke-linecap="square"/>
<path d="M13.3516 16.2207H21.4932" stroke="#C8D0DB" stroke-linecap="square"/>
<path d="M19.8656 18.6764H19.0514L15.7947 12.127H14.9297V18.6764" stroke="#C8D0DB" stroke-linecap="square"/>
<path d="M19.9141 18.6764V12.127" stroke="#C8D0DB" stroke-linecap="square"/>
<path d="M32.7283 9.79347C33.8112 9.79347 34.6923 9.03254 34.6923 8.09733V3.12193C34.6923 2.18671 33.8112 1.42578 32.7283 1.42578H29.0132C28.6877 1.42578 28.4239 1.65353 28.4239 1.9346C28.4239 2.21568 28.6877 2.44343 29.0132 2.44343H32.7283C33.1614 2.44343 33.5138 2.74778 33.5138 3.12193V8.09733C33.5138 8.47148 33.1614 8.77583 32.7283 8.77583H27.1812V6.6613H30.0105C30.7299 6.6613 31.315 6.15594 31.315 5.53469V4.71203C31.315 4.09079 30.7299 3.58543 30.0105 3.58543H4.83038C4.11099 3.58543 3.52578 4.09079 3.52578 4.71203V5.53463C3.52578 6.15586 4.11099 6.66122 4.83038 6.66122H8.16492V8.77577H2.11263C1.67936 8.77577 1.32686 8.47141 1.32686 8.09726V3.12193C1.32686 2.74778 1.67944 2.44343 2.11263 2.44343H26.6573C26.9828 2.44343 27.2465 2.21568 27.2465 1.9346C27.2465 1.65353 26.9828 1.42578 26.6573 1.42578H2.11263C1.02958 1.42578 0.148438 2.18671 0.148438 3.12193V8.09733C0.148438 9.03254 1.02958 9.79347 2.11263 9.79347H8.16492V17.7764C8.16492 18.0575 8.42865 18.2852 8.75412 18.2852C9.0796 18.2852 9.34334 18.0575 9.34334 17.7764V6.6613H10.3773V23.012C10.3773 23.2932 10.641 23.5209 10.9665 23.5209C12.4463 23.5209 13.6501 24.5605 13.6501 25.8384C13.6501 26.1196 13.9139 26.3472 14.2394 26.3472H21.1066C21.4321 26.3472 21.6959 26.1196 21.6959 25.8384C21.6959 24.8783 22.39 24.0181 23.4112 23.6766L23.6206 24.0262C23.6462 24.0691 23.6538 24.1065 23.6171 24.1451C22.7924 25.0104 22.4497 26.1497 22.6546 27.2401H9.50745C9.41703 27.2401 9.34334 27.1765 9.34334 27.0985V19.8107C9.34334 19.5298 9.0796 19.3019 8.75412 19.3019C8.42865 19.3019 8.16492 19.5298 8.16492 19.8107V27.0985C8.16492 27.7377 8.76716 28.2578 9.50745 28.2578H22.9673C23.029 28.4885 23.0637 28.7238 23.0701 28.9609L23.1284 31.3846H22.5698C21.8499 31.3846 21.2861 31.9646 21.2861 32.7048V34.8413C21.2861 35.5815 21.8499 36.1615 22.5698 36.1615H25.414C25.7394 36.1615 26.0032 35.9336 26.0032 35.6527C26.0032 35.3715 25.7394 35.1437 25.414 35.1437H22.5858C22.545 35.1182 22.4646 35.0095 22.4646 34.8413V32.7048C22.4646 32.5366 22.545 32.4278 22.5858 32.4023H31.2265C31.2673 32.4278 31.3477 32.5366 31.3477 32.7048V34.8413C31.3477 35.0094 31.2673 35.1182 31.2265 35.1437H27.7699C27.4443 35.1437 27.1806 35.3715 27.1806 35.6527C27.1806 35.9336 27.4443 36.1615 27.7699 36.1615H31.2425C31.9624 36.1615 32.5261 35.5815 32.5261 34.8413V32.7048C32.5261 31.9646 31.9624 31.3846 31.2425 31.3846H30.3593V29.1994C30.3593 28.7861 30.502 28.3873 30.7722 28.046L33.5716 24.5089C34.9536 22.7626 34.682 20.4252 32.9253 18.951L27.181 14.1304V9.79347H32.7283ZM26.0027 19.1722L24.9689 18.2439V6.6613H26.0027V19.1722ZM4.83038 5.64366C4.76078 5.64366 4.70421 5.59474 4.70421 5.53469V4.71203C4.70421 4.65192 4.76085 4.60307 4.83038 4.60307H30.0105C30.08 4.60307 30.1366 4.65198 30.1366 4.71203V5.53463C30.1366 5.59474 30.0799 5.64358 30.0105 5.64358C26.3278 5.64366 5.63902 5.64366 4.83038 5.64366ZM20.5631 25.3296H14.7838C14.5288 23.8971 13.2145 22.7621 11.5558 22.542V6.6613H23.7905V17.227C23.0224 16.7484 21.9402 16.7996 21.2357 17.3939C20.6048 17.9265 20.4531 18.7386 20.8585 19.4154L22.8676 22.7693C21.6432 23.2204 20.7673 24.1961 20.5631 25.3296ZM32.1042 19.6809C33.4486 20.8091 33.6565 22.5982 32.5987 23.9347L29.7993 27.4719C29.3947 27.9829 29.181 28.5803 29.181 29.1994V31.3846H24.3069L24.2483 28.9386C24.2354 28.4658 24.1375 27.9998 23.9571 27.5535C23.5781 26.6165 23.7965 25.5582 24.5268 24.7918C24.8631 24.4391 24.9165 23.9539 24.6641 23.5531L21.9051 18.9475C21.7396 18.6712 21.8016 18.3392 22.0593 18.1217C22.3883 17.8441 22.9061 17.86 23.2149 18.1372L28.366 22.7618C28.5917 22.9643 28.9647 22.9706 29.1991 22.7758C29.4336 22.581 29.4409 22.2589 29.2153 22.0564L27.181 20.2301V15.5494L32.1042 19.6809Z" fill="#C8D0DB"/>
<path d="M12.375 24.5835C12.689 24.5835 12.9435 24.2954 12.9435 23.9402C12.9435 23.5849 12.689 23.2969 12.375 23.2969H12.2326C11.9185 23.2969 11.6641 23.5849 11.6641 23.9402C11.6641 24.2954 11.9185 24.5835 12.2326 24.5835H12.375Z" fill="#C8D0DB"/>
</svg>
