<svg width="79" height="38" viewBox="0 0 79 38" fill="none" xmlns="http://www.w3.org/2000/svg">
<path fill-rule="evenodd" clip-rule="evenodd" d="M77.1164 26.0677C76.0246 23.89 73.9973 22.4381 71.8138 22.2566C71.346 22.2566 70.7221 22.2566 70.2543 22.4381C69.7864 19.7159 68.6947 17.1751 66.9792 15.3603C65.2637 13.5455 63.0803 12.4566 60.5851 12.2751C59.4933 10.0974 57.7778 8.28254 55.5944 7.55662C53.567 6.64921 51.2277 6.83069 49.2002 7.91958C47.6407 4.65292 44.9894 2.29366 41.8703 1.38625C38.7512 0.478843 35.4761 1.20477 32.6689 3.20106C30.0176 5.19736 28.1462 8.64551 27.6783 12.2751C27.3664 12.0937 27.0545 12.0937 26.7426 12.0937H25.8068C25.339 12.0937 25.183 12.0937 24.8711 12.2751C25.339 12.8196 28.77 15.5417 29.2379 16.0862C29.7057 16.0862 27.5223 14.09 27.9902 14.4529C27.9902 14.4529 27.9902 14.4529 28.1462 14.4529C28.3021 14.2714 29.0819 14.0899 29.2379 13.727C29.3938 10.2788 30.9534 7.19365 33.4487 5.19736C35.944 3.20106 38.9071 2.47514 41.8703 3.38254C44.6775 4.28995 47.1728 6.64921 48.4204 9.73439L48.8883 10.2788H49.5122C51.0717 9.37143 52.9432 9.00847 54.6587 9.37143C56.3742 9.73439 57.9338 11.0048 59.0254 12.6381C56.6861 13.0011 54.5027 14.0899 52.7872 16.0862C51.0717 18.0825 49.98 20.6233 49.668 23.3455C48.2645 22.4381 46.549 22.2566 44.9894 22.8011C43.4299 23.3455 42.1822 24.6159 41.4024 26.2492H35.4761C35.632 26.7936 35.632 27.3381 35.632 27.7011V28.064H40.7786C40.6226 28.6085 40.6226 29.1529 40.6226 29.6974C40.6226 31.6937 41.2464 33.5085 42.4941 34.9603C43.7418 36.4122 45.3013 37.1381 47.0169 37.1381H72.2817C74.4651 37.1381 76.4926 35.6863 77.5842 33.327C78.2081 31.1492 78.2081 28.2455 77.1164 26.0677ZM75.4008 33.1455C74.4651 34.4159 73.2174 35.1418 71.8138 35.1418H46.549C44.9894 35.1418 43.5858 34.2344 42.6501 32.7825C41.7143 31.3307 41.5584 29.5159 42.0262 27.701C42.4941 26.0677 43.7417 24.7973 45.3013 24.2529C46.8609 23.8899 48.4204 24.2529 49.5122 25.5233C49.824 25.7048 50.136 25.8862 50.4478 25.7048C50.7598 25.5233 50.9157 25.1603 50.9157 24.7973V24.6159C50.9157 20.9862 52.4753 17.5381 55.1266 15.5418C57.7778 13.5455 61.2089 13.5455 64.016 15.1788C66.8232 16.8122 68.6947 20.0788 68.8506 23.7085C68.8506 24.0714 69.0066 24.2529 69.1626 24.4344C69.3185 24.6159 69.6305 24.6159 69.9423 24.4344C71.19 23.7085 72.7496 23.8899 73.9972 24.6159C75.2449 25.3418 76.1806 26.7936 76.3366 28.427C76.6484 30.2418 76.3366 31.8751 75.4008 33.1455Z" fill="#2C007D" stroke="#2C007D"/>
<path fill-rule="evenodd" clip-rule="evenodd" d="M36.4098 26.2495V26.068C35.786 22.2569 33.1348 18.9903 29.7037 18.4458C29.3919 16.8125 28.768 15.7236 28.3002 14.4532C28.3002 14.4532 28.3002 14.2717 28.1442 14.2717C27.6764 13.3643 27.2084 12.8199 26.7406 12.094L26.5846 11.9125C24.4013 9.37177 21.4381 7.91992 18.163 7.91992H18.007C11.3009 7.91992 5.99845 14.2717 5.99845 21.894V22.0754C3.03528 22.6199 0.8519 25.7051 1.00786 29.1532V29.5162C1.00786 33.5088 3.81507 36.7754 7.2461 36.7754H28.924C33.1348 36.7754 36.5658 32.9643 36.7218 28.0643C36.7218 27.8828 36.7218 27.8828 36.7218 27.7014V27.3384C36.5658 27.1569 36.5658 26.794 36.4098 26.2495ZM35.4741 28.0644C35.1622 32.2384 32.355 35.5051 28.768 35.5051H7.09011C4.43886 35.5051 2.09952 32.9643 2.09952 29.6977V29.3347C2.09952 26.431 3.97099 23.8903 6.62224 23.5273C6.93416 23.5273 7.24607 23.1643 7.24607 22.8014V22.0755C7.24607 15.1792 12.0807 9.55328 18.007 9.55328H18.163C20.6583 9.55328 22.9976 10.4607 24.8691 12.2755C25.3369 12.8199 25.9607 13.3644 26.4287 13.9088C27.5204 15.5421 28.4561 17.3569 28.768 19.5347C28.768 19.8977 29.0799 20.0792 29.3918 20.0792C32.355 20.2606 34.8503 22.9829 35.3181 26.2495C35.4741 26.794 35.4741 27.3384 35.4741 27.7014V28.0644Z" fill="#FF5900" stroke="#FF5900"/>
</svg>
