<svg width="32" height="38" viewBox="0 0 32 38" fill="none" xmlns="http://www.w3.org/2000/svg">
<path d="M24.6628 8.75293C25.3294 9.46113 25.6628 10.4054 25.6628 11.4283C25.6628 13.7103 23.6628 15.5988 21.2461 15.5988C20.2461 15.5988 19.2461 15.2841 18.4961 14.7333" stroke="#FF5900" stroke-width="2"/>
<path fill-rule="evenodd" clip-rule="evenodd" d="M26.0807 29.9955C26.0807 29.6021 25.6641 29.2873 25.2474 29.4447C24.4974 29.6808 23.4974 29.9168 22.3307 29.9168C21.1641 29.9168 20.2474 29.6808 19.4974 29.4447C19.0807 29.2873 18.6641 29.6021 18.6641 29.9955V31.648H25.9974V29.9955H26.0807Z" stroke="#FF5900" stroke-width="2"/>
<path fill-rule="evenodd" clip-rule="evenodd" d="M25.1667 8.98591L30.6667 3.79247C30.75 3.71378 30.8333 3.5564 30.8333 3.39902C30.8333 3.32034 30.8333 3.32034 30.8333 3.24165C30.75 3.08427 30.6667 2.92689 30.4167 2.8482L23.3333 1.11706C22 0.802302 20.6667 1.11706 19.6667 2.06132L19.0833 2.61214C18.0833 1.66788 16.6667 1.11706 15.25 1.11706C15 1.11706 14.75 1.11706 14.5833 1.19574C12.9167 1.35312 11.4167 2.29738 10.5833 3.63509C9.75 4.97279 9.58333 6.70394 10.1667 8.19902C10.0833 8.19902 10 8.27771 9.91667 8.3564L2.41667 16.3039C1.58333 17.2482 1.08333 18.4285 1.08333 19.6089C1.08333 20.7892 1.5 22.0482 2.33333 22.9925L9.75 31.3335H5.5C2.91667 31.3334 1 33.1433 1 35.4253V36.4482C1 36.763 1.25 36.999 1.58333 36.999H17.6667H30.4167C30.75 36.999 31 36.763 31 36.4482V35.4253C31 33.1433 29 31.3334 26.6667 31.3334H22.4167H21.25H14.3333H10.8333C10.8333 31.1761 10.8333 31.0187 10.75 30.94L3.16667 22.2843C2.5 21.4974 2.16667 20.5531 2.16667 19.6089C2.16667 18.6646 2.58333 17.7203 3.25 16.9334L10.6667 9.0646C10.9167 9.37935 11.0833 9.69411 11.4167 9.93017C10.6667 10.6384 10.3333 11.5039 10.3333 12.4482C10.3333 12.8416 10.4167 13.2351 10.5 13.6285L12.6667 19.6875C12.75 19.8449 12.9167 20.0023 13.0833 20.0023C13.25 20.081 13.5 20.0023 13.5833 19.8449L18.9167 14.8089M20.2538 3.00418C21.0871 2.21729 22.2538 1.90254 23.3371 2.21729L29.1704 3.63369L13.3371 18.5845L11.5871 13.6271C11.1704 12.5255 11.5038 11.2665 12.3371 10.4796L20.2538 3.00418ZM12.0864 3.40005C12.9198 2.61317 14.0031 2.21973 15.1698 2.21973C16.3364 2.21973 17.4198 2.61317 18.2531 3.40005L12.0864 9.223C11.2531 8.43612 10.8364 7.41317 10.8364 6.31153C10.8364 5.20989 11.3364 4.18694 12.0864 3.40005ZM14.334 35.9775H2.08398C2.08398 34.9546 2.50065 34.089 3.16732 33.4595C3.83398 32.83 4.83398 32.4365 5.83398 32.4365H17.584H26.0007C27.084 32.4365 28.0007 32.83 28.6673 33.4595C29.334 34.089 29.7507 35.0332 29.7507 35.9775H14.334Z" fill="#2C007D"/>
<path d="M30.6667 3.79247L31.0099 4.15601L31.0099 4.156L30.6667 3.79247ZM30.8333 3.24165H31.3333V3.11744L31.2752 3.00767L30.8333 3.24165ZM30.4167 2.8482L30.5668 2.37127L30.5512 2.36637L30.5354 2.3625L30.4167 2.8482ZM23.3333 1.11706L23.452 0.631336L23.4482 0.630432L23.3333 1.11706ZM19.6667 2.06132L20.0099 2.42486V2.42486L19.6667 2.06132ZM19.0833 2.61214L18.7401 2.97568L19.0833 3.29982L19.4266 2.97568L19.0833 2.61214ZM14.5833 1.19574L14.6303 1.69353L14.7176 1.68529L14.7968 1.64788L14.5833 1.19574ZM10.5833 3.63509L10.1589 3.37071L10.5833 3.63509ZM10.1667 8.19902V8.69902H10.8985L10.6325 8.01728L10.1667 8.19902ZM9.91667 8.3564L9.57339 7.99287L9.56291 8.00276L9.55302 8.01323L9.91667 8.3564ZM2.41667 16.3039L2.05302 15.9608L2.0473 15.9668L2.04178 15.9731L2.41667 16.3039ZM2.33333 22.9925L1.95844 23.3233L1.95968 23.3247L2.33333 22.9925ZM9.75 31.3335V31.8335H10.8637L10.1237 31.0012L9.75 31.3335ZM5.5 31.3335L5.5 31.8335H5.5V31.3335ZM10.8333 31.3334H10.3333V31.8334H10.8333V31.3334ZM10.75 30.94L10.3739 31.2695L10.3895 31.2873L10.4067 31.3036L10.75 30.94ZM3.16667 22.2843L2.78512 22.6075L2.79058 22.6138L3.16667 22.2843ZM3.25 16.9334L2.88615 16.5905L2.87707 16.6001L2.86851 16.6102L3.25 16.9334ZM10.6667 9.0646L11.0582 8.75362L10.699 8.30135L10.3028 8.72165L10.6667 9.0646ZM11.4167 9.93017L11.7599 10.2937L12.2036 9.87479L11.7056 9.52213L11.4167 9.93017ZM10.5 13.6285L10.0109 13.7321L10.0178 13.7651L10.0292 13.7969L10.5 13.6285ZM12.6667 19.6875L12.1959 19.8559L12.208 19.8898L12.2248 19.9215L12.6667 19.6875ZM13.0833 20.0023L13.2968 19.5502L13.1954 19.5023H13.0833V20.0023ZM13.5833 19.8449L13.2401 19.4814L13.1801 19.538L13.1415 19.6109L13.5833 19.8449ZM23.3371 2.21729L23.1976 2.69744L23.2083 2.70055L23.2191 2.70318L23.3371 2.21729ZM29.1704 3.63369L29.5137 3.99723L30.1832 3.36507L29.2884 3.14781L29.1704 3.63369ZM13.3371 18.5845L12.8656 18.7509L13.1215 19.4758L13.6804 18.9481L13.3371 18.5845ZM11.5871 13.6271L12.0587 13.4607L12.0548 13.4502L11.5871 13.6271ZM12.3371 10.4796L12.6804 10.8431L12.3371 10.4796ZM18.2531 3.40005L18.5964 3.76359L18.9814 3.40005L18.5964 3.03651L18.2531 3.40005ZM12.0864 9.223L11.7431 9.58654L12.0864 9.91069L12.4297 9.58654L12.0864 9.223ZM10.8364 6.31153H11.3364V6.31153L10.8364 6.31153ZM2.08398 35.9775H1.58398V36.4775H2.08398V35.9775ZM3.16732 33.4595L2.82404 33.0959L3.16732 33.4595ZM28.6673 33.4595L29.0106 33.0959V33.0959L28.6673 33.4595ZM29.7507 35.9775V36.4775H30.2507V35.9775H29.7507ZM25.5099 9.34945L31.0099 4.15601L30.3234 3.42893L24.8234 8.62237L25.5099 9.34945ZM31.0099 4.156C31.183 3.99256 31.3333 3.7075 31.3333 3.39902H30.3333C30.3333 3.3946 30.3339 3.39476 30.3327 3.39954C30.3316 3.40427 30.3294 3.41096 30.326 3.4186C30.3225 3.4263 30.3189 3.4323 30.3165 3.43578C30.3153 3.43738 30.315 3.43769 30.3158 3.43681C30.3164 3.43601 30.3189 3.43321 30.3234 3.42893L31.0099 4.156ZM31.3333 3.39902C31.3333 3.39887 31.3333 3.39872 31.3333 3.39856C31.3333 3.39841 31.3333 3.39826 31.3333 3.39811C31.3333 3.39795 31.3333 3.3978 31.3333 3.39765C31.3333 3.3975 31.3333 3.39734 31.3333 3.39719C31.3333 3.39704 31.3333 3.39689 31.3333 3.39674C31.3333 3.39659 31.3333 3.39644 31.3333 3.39629C31.3333 3.39614 31.3333 3.39599 31.3333 3.39584C31.3333 3.39569 31.3333 3.39554 31.3333 3.39539C31.3333 3.39524 31.3333 3.39509 31.3333 3.39495C31.3333 3.3948 31.3333 3.39465 31.3333 3.3945C31.3333 3.39435 31.3333 3.39421 31.3333 3.39406C31.3333 3.39391 31.3333 3.39376 31.3333 3.39362C31.3333 3.39347 31.3333 3.39333 31.3333 3.39318C31.3333 3.39303 31.3333 3.39289 31.3333 3.39274C31.3333 3.3926 31.3333 3.39245 31.3333 3.39231C31.3333 3.39216 31.3333 3.39202 31.3333 3.39187C31.3333 3.39173 31.3333 3.39158 31.3333 3.39144C31.3333 3.3913 31.3333 3.39115 31.3333 3.39101C31.3333 3.39087 31.3333 3.39072 31.3333 3.39058C31.3333 3.39044 31.3333 3.3903 31.3333 3.39015C31.3333 3.39001 31.3333 3.38987 31.3333 3.38973C31.3333 3.38959 31.3333 3.38944 31.3333 3.3893C31.3333 3.38916 31.3333 3.38902 31.3333 3.38888C31.3333 3.38874 31.3333 3.3886 31.3333 3.38846C31.3333 3.38832 31.3333 3.38818 31.3333 3.38804C31.3333 3.3879 31.3333 3.38776 31.3333 3.38762C31.3333 3.38749 31.3333 3.38735 31.3333 3.38721C31.3333 3.38707 31.3333 3.38693 31.3333 3.38679C31.3333 3.38666 31.3333 3.38652 31.3333 3.38638C31.3333 3.38624 31.3333 3.38611 31.3333 3.38597C31.3333 3.38583 31.3333 3.3857 31.3333 3.38556C31.3333 3.38542 31.3333 3.38529 31.3333 3.38515C31.3333 3.38502 31.3333 3.38488 31.3333 3.38475C31.3333 3.38461 31.3333 3.38448 31.3333 3.38434C31.3333 3.38421 31.3333 3.38407 31.3333 3.38394C31.3333 3.38381 31.3333 3.38367 31.3333 3.38354C31.3333 3.3834 31.3333 3.38327 31.3333 3.38314C31.3333 3.383 31.3333 3.38287 31.3333 3.38274C31.3333 3.38261 31.3333 3.38247 31.3333 3.38234C31.3333 3.38221 31.3333 3.38208 31.3333 3.38195C31.3333 3.38182 31.3333 3.38168 31.3333 3.38155C31.3333 3.38142 31.3333 3.38129 31.3333 3.38116C31.3333 3.38103 31.3333 3.3809 31.3333 3.38077C31.3333 3.38064 31.3333 3.38051 31.3333 3.38038C31.3333 3.38025 31.3333 3.38012 31.3333 3.37999C31.3333 3.37986 31.3333 3.37973 31.3333 3.37961C31.3333 3.37948 31.3333 3.37935 31.3333 3.37922C31.3333 3.37909 31.3333 3.37897 31.3333 3.37884C31.3333 3.37871 31.3333 3.37858 31.3333 3.37846C31.3333 3.37833 31.3333 3.3782 31.3333 3.37808C31.3333 3.37795 31.3333 3.37782 31.3333 3.3777C31.3333 3.37757 31.3333 3.37744 31.3333 3.37732C31.3333 3.37719 31.3333 3.37707 31.3333 3.37694C31.3333 3.37682 31.3333 3.37669 31.3333 3.37657C31.3333 3.37644 31.3333 3.37632 31.3333 3.37619C31.3333 3.37607 31.3333 3.37595 31.3333 3.37582C31.3333 3.3757 31.3333 3.37557 31.3333 3.37545C31.3333 3.37533 31.3333 3.37521 31.3333 3.37508C31.3333 3.37496 31.3333 3.37484 31.3333 3.37471C31.3333 3.37459 31.3333 3.37447 31.3333 3.37435C31.3333 3.37423 31.3333 3.3741 31.3333 3.37398C31.3333 3.37386 31.3333 3.37374 31.3333 3.37362C31.3333 3.3735 31.3333 3.37338 31.3333 3.37326C31.3333 3.37314 31.3333 3.37302 31.3333 3.3729C31.3333 3.37278 31.3333 3.37266 31.3333 3.37254C31.3333 3.37242 31.3333 3.3723 31.3333 3.37218C31.3333 3.37206 31.3333 3.37194 31.3333 3.37182C31.3333 3.3717 31.3333 3.37158 31.3333 3.37147C31.3333 3.37135 31.3333 3.37123 31.3333 3.37111C31.3333 3.37099 31.3333 3.37088 31.3333 3.37076C31.3333 3.37064 31.3333 3.37052 31.3333 3.37041C31.3333 3.37029 31.3333 3.37017 31.3333 3.37006C31.3333 3.36994 31.3333 3.36982 31.3333 3.36971C31.3333 3.36959 31.3333 3.36948 31.3333 3.36936C31.3333 3.36925 31.3333 3.36913 31.3333 3.36901C31.3333 3.3689 31.3333 3.36878 31.3333 3.36867C31.3333 3.36855 31.3333 3.36844 31.3333 3.36833C31.3333 3.36821 31.3333 3.3681 31.3333 3.36798C31.3333 3.36787 31.3333 3.36775 31.3333 3.36764C31.3333 3.36753 31.3333 3.36741 31.3333 3.3673C31.3333 3.36719 31.3333 3.36708 31.3333 3.36696C31.3333 3.36685 31.3333 3.36674 31.3333 3.36662C31.3333 3.36651 31.3333 3.3664 31.3333 3.36629C31.3333 3.36618 31.3333 3.36606 31.3333 3.36595C31.3333 3.36584 31.3333 3.36573 31.3333 3.36562C31.3333 3.36551 31.3333 3.3654 31.3333 3.36529C31.3333 3.36518 31.3333 3.36507 31.3333 3.36495C31.3333 3.36484 31.3333 3.36473 31.3333 3.36462C31.3333 3.36451 31.3333 3.3644 31.3333 3.3643C31.3333 3.36419 31.3333 3.36408 31.3333 3.36397C31.3333 3.36386 31.3333 3.36375 31.3333 3.36364C31.3333 3.36353 31.3333 3.36342 31.3333 3.36331C31.3333 3.36321 31.3333 3.3631 31.3333 3.36299C31.3333 3.36288 31.3333 3.36277 31.3333 3.36267C31.3333 3.36256 31.3333 3.36245 31.3333 3.36234C31.3333 3.36224 31.3333 3.36213 31.3333 3.36202C31.3333 3.36192 31.3333 3.36181 31.3333 3.3617C31.3333 3.3616 31.3333 3.36149 31.3333 3.36138C31.3333 3.36128 31.3333 3.36117 31.3333 3.36107C31.3333 3.36096 31.3333 3.36086 31.3333 3.36075C31.3333 3.36064 31.3333 3.36054 31.3333 3.36043C31.3333 3.36033 31.3333 3.36022 31.3333 3.36012C31.3333 3.36001 31.3333 3.35991 31.3333 3.35981C31.3333 3.3597 31.3333 3.3596 31.3333 3.35949C31.3333 3.35939 31.3333 3.35929 31.3333 3.35918C31.3333 3.35908 31.3333 3.35898 31.3333 3.35887C31.3333 3.35877 31.3333 3.35867 31.3333 3.35856C31.3333 3.35846 31.3333 3.35836 31.3333 3.35826C31.3333 3.35815 31.3333 3.35805 31.3333 3.35795C31.3333 3.35785 31.3333 3.35774 31.3333 3.35764C31.3333 3.35754 31.3333 3.35744 31.3333 3.35734C31.3333 3.35724 31.3333 3.35713 31.3333 3.35703C31.3333 3.35693 31.3333 3.35683 31.3333 3.35673C31.3333 3.35663 31.3333 3.35653 31.3333 3.35643C31.3333 3.35633 31.3333 3.35623 31.3333 3.35613C31.3333 3.35603 31.3333 3.35593 31.3333 3.35583C31.3333 3.35573 31.3333 3.35563 31.3333 3.35553C31.3333 3.35543 31.3333 3.35533 31.3333 3.35523C31.3333 3.35513 31.3333 3.35503 31.3333 3.35493C31.3333 3.35483 31.3333 3.35474 31.3333 3.35464C31.3333 3.35454 31.3333 3.35444 31.3333 3.35434C31.3333 3.35424 31.3333 3.35415 31.3333 3.35405C31.3333 3.35395 31.3333 3.35385 31.3333 3.35375C31.3333 3.35366 31.3333 3.35356 31.3333 3.35346C31.3333 3.35336 31.3333 3.35327 31.3333 3.35317C31.3333 3.35307 31.3333 3.35298 31.3333 3.35288C31.3333 3.35278 31.3333 3.35269 31.3333 3.35259C31.3333 3.35249 31.3333 3.3524 31.3333 3.3523C31.3333 3.35221 31.3333 3.35211 31.3333 3.35201C31.3333 3.35192 31.3333 3.35182 31.3333 3.35173C31.3333 3.35163 31.3333 3.35154 31.3333 3.35144C31.3333 3.35135 31.3333 3.35125 31.3333 3.35116C31.3333 3.35106 31.3333 3.35097 31.3333 3.35087C31.3333 3.35078 31.3333 3.35068 31.3333 3.35059C31.3333 3.35049 31.3333 3.3504 31.3333 3.35031C31.3333 3.35021 31.3333 3.35012 31.3333 3.35003C31.3333 3.34993 31.3333 3.34984 31.3333 3.34974C31.3333 3.34965 31.3333 3.34956 31.3333 3.34946C31.3333 3.34937 31.3333 3.34928 31.3333 3.34919C31.3333 3.34909 31.3333 3.349 31.3333 3.34891C31.3333 3.34881 31.3333 3.34872 31.3333 3.34863C31.3333 3.34854 31.3333 3.34845 31.3333 3.34835C31.3333 3.34826 31.3333 3.34817 31.3333 3.34808C31.3333 3.34799 31.3333 3.34789 31.3333 3.3478C31.3333 3.34771 31.3333 3.34762 31.3333 3.34753C31.3333 3.34744 31.3333 3.34735 31.3333 3.34725C31.3333 3.34716 31.3333 3.34707 31.3333 3.34698C31.3333 3.34689 31.3333 3.3468 31.3333 3.34671C31.3333 3.34662 31.3333 3.34653 31.3333 3.34644C31.3333 3.34635 31.3333 3.34626 31.3333 3.34617C31.3333 3.34608 31.3333 3.34599 31.3333 3.3459C31.3333 3.34581 31.3333 3.34572 31.3333 3.34563C31.3333 3.34554 31.3333 3.34545 31.3333 3.34536C31.3333 3.34527 31.3333 3.34518 31.3333 3.34509C31.3333 3.345 31.3333 3.34492 31.3333 3.34483C31.3333 3.34474 31.3333 3.34465 31.3333 3.34456C31.3333 3.34447 31.3333 3.34438 31.3333 3.3443C31.3333 3.34421 31.3333 3.34412 31.3333 3.34403C31.3333 3.34394 31.3333 3.34385 31.3333 3.34377C31.3333 3.34368 31.3333 3.34359 31.3333 3.3435C31.3333 3.34342 31.3333 3.34333 31.3333 3.34324C31.3333 3.34315 31.3333 3.34307 31.3333 3.34298C31.3333 3.34289 31.3333 3.3428 31.3333 3.34272C31.3333 3.34263 31.3333 3.34254 31.3333 3.34246C31.3333 3.34237 31.3333 3.34228 31.3333 3.3422C31.3333 3.34211 31.3333 3.34202 31.3333 3.34194C31.3333 3.34185 31.3333 3.34177 31.3333 3.34168C31.3333 3.34159 31.3333 3.34151 31.3333 3.34142C31.3333 3.34134 31.3333 3.34125 31.3333 3.34116C31.3333 3.34108 31.3333 3.34099 31.3333 3.34091C31.3333 3.34082 31.3333 3.34074 31.3333 3.34065C31.3333 3.34057 31.3333 3.34048 31.3333 3.34039C31.3333 3.34031 31.3333 3.34022 31.3333 3.34014C31.3333 3.34005 31.3333 3.33997 31.3333 3.33989C31.3333 3.3398 31.3333 3.33972 31.3333 3.33963C31.3333 3.33955 31.3333 3.33946 31.3333 3.33938C31.3333 3.33929 31.3333 3.33921 31.3333 3.33913C31.3333 3.33904 31.3333 3.33896 31.3333 3.33887C31.3333 3.33879 31.3333 3.33871 31.3333 3.33862C31.3333 3.33854 31.3333 3.33845 31.3333 3.33837C31.3333 3.33829 31.3333 3.3382 31.3333 3.33812C31.3333 3.33804 31.3333 3.33795 31.3333 3.33787C31.3333 3.33779 31.3333 3.3377 31.3333 3.33762C31.3333 3.33754 31.3333 3.33745 31.3333 3.33737C31.3333 3.33729 31.3333 3.33721 31.3333 3.33712C31.3333 3.33704 31.3333 3.33696 31.3333 3.33687C31.3333 3.33679 31.3333 3.33671 31.3333 3.33663C31.3333 3.33654 31.3333 3.33646 31.3333 3.33638C31.3333 3.3363 31.3333 3.33622 31.3333 3.33613C31.3333 3.33605 31.3333 3.33597 31.3333 3.33589C31.3333 3.33581 31.3333 3.33572 31.3333 3.33564C31.3333 3.33556 31.3333 3.33548 31.3333 3.3354C31.3333 3.33531 31.3333 3.33523 31.3333 3.33515C31.3333 3.33507 31.3333 3.33499 31.3333 3.33491C31.3333 3.33483 31.3333 3.33474 31.3333 3.33466C31.3333 3.33458 31.3333 3.3345 31.3333 3.33442C31.3333 3.33434 31.3333 3.33426 31.3333 3.33418C31.3333 3.3341 31.3333 3.33402 31.3333 3.33393C31.3333 3.33385 31.3333 3.33377 31.3333 3.33369C31.3333 3.33361 31.3333 3.33353 31.3333 3.33345C31.3333 3.33337 31.3333 3.33329 31.3333 3.33321C31.3333 3.33313 31.3333 3.33305 31.3333 3.33297C31.3333 3.33289 31.3333 3.33281 31.3333 3.33273C31.3333 3.33265 31.3333 3.33257 31.3333 3.33249C31.3333 3.33241 31.3333 3.33233 31.3333 3.33225C31.3333 3.33217 31.3333 3.33209 31.3333 3.33201C31.3333 3.33193 31.3333 3.33185 31.3333 3.33177C31.3333 3.33169 31.3333 3.33161 31.3333 3.33153C31.3333 3.33145 31.3333 3.33137 31.3333 3.33129C31.3333 3.33121 31.3333 3.33113 31.3333 3.33105C31.3333 3.33097 31.3333 3.3309 31.3333 3.33082C31.3333 3.33074 31.3333 3.33066 31.3333 3.33058C31.3333 3.3305 31.3333 3.33042 31.3333 3.33034C31.3333 3.33026 31.3333 3.33018 31.3333 3.3301C31.3333 3.33003 31.3333 3.32995 31.3333 3.32987C31.3333 3.32979 31.3333 3.32971 31.3333 3.32963C31.3333 3.32955 31.3333 3.32947 31.3333 3.3294C31.3333 3.32932 31.3333 3.32924 31.3333 3.32916C31.3333 3.32908 31.3333 3.329 31.3333 3.32892C31.3333 3.32885 31.3333 3.32877 31.3333 3.32869C31.3333 3.32861 31.3333 3.32853 31.3333 3.32845C31.3333 3.32838 31.3333 3.3283 31.3333 3.32822C31.3333 3.32814 31.3333 3.32806 31.3333 3.32798C31.3333 3.32791 31.3333 3.32783 31.3333 3.32775C31.3333 3.32767 31.3333 3.32759 31.3333 3.32752C31.3333 3.32744 31.3333 3.32736 31.3333 3.32728C31.3333 3.3272 31.3333 3.32713 31.3333 3.32705C31.3333 3.32697 31.3333 3.32689 31.3333 3.32682C31.3333 3.32674 31.3333 3.32666 31.3333 3.32658C31.3333 3.3265 31.3333 3.32643 31.3333 3.32635C31.3333 3.32627 31.3333 3.32619 31.3333 3.32612C31.3333 3.32604 31.3333 3.32596 31.3333 3.32588C31.3333 3.32581 31.3333 3.32573 31.3333 3.32565C31.3333 3.32557 31.3333 3.3255 31.3333 3.32542C31.3333 3.32534 31.3333 3.32526 31.3333 3.32519C31.3333 3.32511 31.3333 3.32503 31.3333 3.32496C31.3333 3.32488 31.3333 3.3248 31.3333 3.32472C31.3333 3.32465 31.3333 3.32457 31.3333 3.32449C31.3333 3.32441 31.3333 3.32434 31.3333 3.32426C31.3333 3.32418 31.3333 3.32411 31.3333 3.32403C31.3333 3.32395 31.3333 3.32387 31.3333 3.3238C31.3333 3.32372 31.3333 3.32364 31.3333 3.32357C31.3333 3.32349 31.3333 3.32341 31.3333 3.32333C31.3333 3.32326 31.3333 3.32318 31.3333 3.3231C31.3333 3.32303 31.3333 3.32295 31.3333 3.32287C31.3333 3.3228 31.3333 3.32272 31.3333 3.32264C31.3333 3.32256 31.3333 3.32249 31.3333 3.32241C31.3333 3.32233 31.3333 3.32226 31.3333 3.32218C31.3333 3.3221 31.3333 3.32203 31.3333 3.32195C31.3333 3.32187 31.3333 3.3218 31.3333 3.32172C31.3333 3.32164 31.3333 3.32156 31.3333 3.32149C31.3333 3.32141 31.3333 3.32133 31.3333 3.32126C31.3333 3.32118 31.3333 3.3211 31.3333 3.32103C31.3333 3.32095 31.3333 3.32087 31.3333 3.3208C31.3333 3.32072 31.3333 3.32064 31.3333 3.32057C31.3333 3.32049 31.3333 3.32041 31.3333 3.32034C31.3333 3.32026 31.3333 3.32018 31.3333 3.3201C31.3333 3.32003 31.3333 3.31995 31.3333 3.31987C31.3333 3.3198 31.3333 3.31972 31.3333 3.31964C31.3333 3.31957 31.3333 3.31949 31.3333 3.31941C31.3333 3.31934 31.3333 3.31926 31.3333 3.31918C31.3333 3.31911 31.3333 3.31903 31.3333 3.31895C31.3333 3.31887 31.3333 3.3188 31.3333 3.31872C31.3333 3.31864 31.3333 3.31857 31.3333 3.31849C31.3333 3.31841 31.3333 3.31834 31.3333 3.31826C31.3333 3.31818 31.3333 3.31811 31.3333 3.31803C31.3333 3.31795 31.3333 3.31787 31.3333 3.3178C31.3333 3.31772 31.3333 3.31764 31.3333 3.31757C31.3333 3.31749 31.3333 3.31741 31.3333 3.31734C31.3333 3.31726 31.3333 3.31718 31.3333 3.3171C31.3333 3.31703 31.3333 3.31695 31.3333 3.31687C31.3333 3.3168 31.3333 3.31672 31.3333 3.31664C31.3333 3.31656 31.3333 3.31649 31.3333 3.31641C31.3333 3.31633 31.3333 3.31626 31.3333 3.31618C31.3333 3.3161 31.3333 3.31602 31.3333 3.31595C31.3333 3.31587 31.3333 3.31579 31.3333 3.31572C31.3333 3.31564 31.3333 3.31556 31.3333 3.31548C31.3333 3.31541 31.3333 3.31533 31.3333 3.31525C31.3333 3.31517 31.3333 3.3151 31.3333 3.31502C31.3333 3.31494 31.3333 3.31486 31.3333 3.31479C31.3333 3.31471 31.3333 3.31463 31.3333 3.31455C31.3333 3.31448 31.3333 3.3144 31.3333 3.31432C31.3333 3.31424 31.3333 3.31417 31.3333 3.31409C31.3333 3.31401 31.3333 3.31393 31.3333 3.31385C31.3333 3.31378 31.3333 3.3137 31.3333 3.31362C31.3333 3.31354 31.3333 3.31347 31.3333 3.31339C31.3333 3.31331 31.3333 3.31323 31.3333 3.31315C31.3333 3.31308 31.3333 3.313 31.3333 3.31292C31.3333 3.31284 31.3333 3.31276 31.3333 3.31269C31.3333 3.31261 31.3333 3.31253 31.3333 3.31245C31.3333 3.31237 31.3333 3.31229 31.3333 3.31222C31.3333 3.31214 31.3333 3.31206 31.3333 3.31198C31.3333 3.3119 31.3333 3.31182 31.3333 3.31175C31.3333 3.31167 31.3333 3.31159 31.3333 3.31151C31.3333 3.31143 31.3333 3.31135 31.3333 3.31127C31.3333 3.3112 31.3333 3.31112 31.3333 3.31104C31.3333 3.31096 31.3333 3.31088 31.3333 3.3108C31.3333 3.31072 31.3333 3.31064 31.3333 3.31057C31.3333 3.31049 31.3333 3.31041 31.3333 3.31033C31.3333 3.31025 31.3333 3.31017 31.3333 3.31009C31.3333 3.31001 31.3333 3.30993 31.3333 3.30985C31.3333 3.30978 31.3333 3.3097 31.3333 3.30962C31.3333 3.30954 31.3333 3.30946 31.3333 3.30938C31.3333 3.3093 31.3333 3.30922 31.3333 3.30914C31.3333 3.30906 31.3333 3.30898 31.3333 3.3089C31.3333 3.30882 31.3333 3.30874 31.3333 3.30866C31.3333 3.30858 31.3333 3.3085 31.3333 3.30842C31.3333 3.30834 31.3333 3.30826 31.3333 3.30818C31.3333 3.3081 31.3333 3.30802 31.3333 3.30794C31.3333 3.30786 31.3333 3.30778 31.3333 3.3077C31.3333 3.30762 31.3333 3.30754 31.3333 3.30746C31.3333 3.30738 31.3333 3.3073 31.3333 3.30722C31.3333 3.30714 31.3333 3.30706 31.3333 3.30698C31.3333 3.3069 31.3333 3.30682 31.3333 3.30674C31.3333 3.30665 31.3333 3.30657 31.3333 3.30649C31.3333 3.30641 31.3333 3.30633 31.3333 3.30625C31.3333 3.30617 31.3333 3.30609 31.3333 3.30601C31.3333 3.30593 31.3333 3.30584 31.3333 3.30576C31.3333 3.30568 31.3333 3.3056 31.3333 3.30552C31.3333 3.30544 31.3333 3.30536 31.3333 3.30527C31.3333 3.30519 31.3333 3.30511 31.3333 3.30503C31.3333 3.30495 31.3333 3.30486 31.3333 3.30478C31.3333 3.3047 31.3333 3.30462 31.3333 3.30454C31.3333 3.30445 31.3333 3.30437 31.3333 3.30429C31.3333 3.30421 31.3333 3.30413 31.3333 3.30404C31.3333 3.30396 31.3333 3.30388 31.3333 3.3038C31.3333 3.30371 31.3333 3.30363 31.3333 3.30355C31.3333 3.30346 31.3333 3.30338 31.3333 3.3033C31.3333 3.30322 31.3333 3.30313 31.3333 3.30305C31.3333 3.30297 31.3333 3.30288 31.3333 3.3028C31.3333 3.30272 31.3333 3.30263 31.3333 3.30255C31.3333 3.30247 31.3333 3.30238 31.3333 3.3023C31.3333 3.30222 31.3333 3.30213 31.3333 3.30205C31.3333 3.30196 31.3333 3.30188 31.3333 3.3018C31.3333 3.30171 31.3333 3.30163 31.3333 3.30154C31.3333 3.30146 31.3333 3.30138 31.3333 3.30129C31.3333 3.30121 31.3333 3.30112 31.3333 3.30104C31.3333 3.30095 31.3333 3.30087 31.3333 3.30078C31.3333 3.3007 31.3333 3.30062 31.3333 3.30053C31.3333 3.30045 31.3333 3.30036 31.3333 3.30028C31.3333 3.30019 31.3333 3.30011 31.3333 3.30002C31.3333 3.29993 31.3333 3.29985 31.3333 3.29976C31.3333 3.29968 31.3333 3.29959 31.3333 3.29951C31.3333 3.29942 31.3333 3.29934 31.3333 3.29925C31.3333 3.29916 31.3333 3.29908 31.3333 3.29899C31.3333 3.2989 31.3333 3.29882 31.3333 3.29873C31.3333 3.29865 31.3333 3.29856 31.3333 3.29847C31.3333 3.29839 31.3333 3.2983 31.3333 3.29821C31.3333 3.29813 31.3333 3.29804 31.3333 3.29795C31.3333 3.29787 31.3333 3.29778 31.3333 3.29769C31.3333 3.2976 31.3333 3.29752 31.3333 3.29743C31.3333 3.29734 31.3333 3.29725 31.3333 3.29717C31.3333 3.29708 31.3333 3.29699 31.3333 3.2969C31.3333 3.29682 31.3333 3.29673 31.3333 3.29664C31.3333 3.29655 31.3333 3.29646 31.3333 3.29637C31.3333 3.29629 31.3333 3.2962 31.3333 3.29611C31.3333 3.29602 31.3333 3.29593 31.3333 3.29584C31.3333 3.29575 31.3333 3.29567 31.3333 3.29558C31.3333 3.29549 31.3333 3.2954 31.3333 3.29531C31.3333 3.29522 31.3333 3.29513 31.3333 3.29504C31.3333 3.29495 31.3333 3.29486 31.3333 3.29477C31.3333 3.29468 31.3333 3.29459 31.3333 3.2945C31.3333 3.29441 31.3333 3.29432 31.3333 3.29423C31.3333 3.29414 31.3333 3.29405 31.3333 3.29396C31.3333 3.29387 31.3333 3.29378 31.3333 3.29369C31.3333 3.2936 31.3333 3.29351 31.3333 3.29342C31.3333 3.29332 31.3333 3.29323 31.3333 3.29314C31.3333 3.29305 31.3333 3.29296 31.3333 3.29287C31.3333 3.29278 31.3333 3.29268 31.3333 3.29259C31.3333 3.2925 31.3333 3.29241 31.3333 3.29232C31.3333 3.29223 31.3333 3.29213 31.3333 3.29204C31.3333 3.29195 31.3333 3.29186 31.3333 3.29176C31.3333 3.29167 31.3333 3.29158 31.3333 3.29148C31.3333 3.29139 31.3333 3.2913 31.3333 3.29121C31.3333 3.29111 31.3333 3.29102 31.3333 3.29093C31.3333 3.29083 31.3333 3.29074 31.3333 3.29065C31.3333 3.29055 31.3333 3.29046 31.3333 3.29036C31.3333 3.29027 31.3333 3.29018 31.3333 3.29008C31.3333 3.28999 31.3333 3.28989 31.3333 3.2898C31.3333 3.2897 31.3333 3.28961 31.3333 3.28951C31.3333 3.28942 31.3333 3.28932 31.3333 3.28923C31.3333 3.28913 31.3333 3.28904 31.3333 3.28894C31.3333 3.28885 31.3333 3.28875 31.3333 3.28866C31.3333 3.28856 31.3333 3.28846 31.3333 3.28837C31.3333 3.28827 31.3333 3.28818 31.3333 3.28808C31.3333 3.28798 31.3333 3.28789 31.3333 3.28779C31.3333 3.28769 31.3333 3.2876 31.3333 3.2875C31.3333 3.2874 31.3333 3.28731 31.3333 3.28721C31.3333 3.28711 31.3333 3.28701 31.3333 3.28692C31.3333 3.28682 31.3333 3.28672 31.3333 3.28662C31.3333 3.28652 31.3333 3.28643 31.3333 3.28633C31.3333 3.28623 31.3333 3.28613 31.3333 3.28603C31.3333 3.28593 31.3333 3.28584 31.3333 3.28574C31.3333 3.28564 31.3333 3.28554 31.3333 3.28544C31.3333 3.28534 31.3333 3.28524 31.3333 3.28514C31.3333 3.28504 31.3333 3.28494 31.3333 3.28484C31.3333 3.28474 31.3333 3.28464 31.3333 3.28454C31.3333 3.28444 31.3333 3.28434 31.3333 3.28424C31.3333 3.28414 31.3333 3.28404 31.3333 3.28394C31.3333 3.28384 31.3333 3.28374 31.3333 3.28364C31.3333 3.28354 31.3333 3.28343 31.3333 3.28333C31.3333 3.28323 31.3333 3.28313 31.3333 3.28303C31.3333 3.28293 31.3333 3.28282 31.3333 3.28272C31.3333 3.28262 31.3333 3.28252 31.3333 3.28242C31.3333 3.28231 31.3333 3.28221 31.3333 3.28211C31.3333 3.282 31.3333 3.2819 31.3333 3.2818C31.3333 3.28169 31.3333 3.28159 31.3333 3.28149C31.3333 3.28138 31.3333 3.28128 31.3333 3.28118C31.3333 3.28107 31.3333 3.28097 31.3333 3.28086C31.3333 3.28076 31.3333 3.28066 31.3333 3.28055C31.3333 3.28045 31.3333 3.28034 31.3333 3.28024C31.3333 3.28013 31.3333 3.28003 31.3333 3.27992C31.3333 3.27982 31.3333 3.27971 31.3333 3.2796C31.3333 3.2795 31.3333 3.27939 31.3333 3.27929C31.3333 3.27918 31.3333 3.27907 31.3333 3.27897C31.3333 3.27886 31.3333 3.27875 31.3333 3.27865C31.3333 3.27854 31.3333 3.27843 31.3333 3.27833C31.3333 3.27822 31.3333 3.27811 31.3333 3.278C31.3333 3.2779 31.3333 3.27779 31.3333 3.27768C31.3333 3.27757 31.3333 3.27746 31.3333 3.27736C31.3333 3.27725 31.3333 3.27714 31.3333 3.27703C31.3333 3.27692 31.3333 3.27681 31.3333 3.2767C31.3333 3.27659 31.3333 3.27648 31.3333 3.27638C31.3333 3.27627 31.3333 3.27616 31.3333 3.27605C31.3333 3.27594 31.3333 3.27583 31.3333 3.27572C31.3333 3.27561 31.3333 3.27549 31.3333 3.27538C31.3333 3.27527 31.3333 3.27516 31.3333 3.27505C31.3333 3.27494 31.3333 3.27483 31.3333 3.27472C31.3333 3.27461 31.3333 3.27449 31.3333 3.27438C31.3333 3.27427 31.3333 3.27416 31.3333 3.27405C31.3333 3.27393 31.3333 3.27382 31.3333 3.27371C31.3333 3.2736 31.3333 3.27348 31.3333 3.27337C31.3333 3.27326 31.3333 3.27314 31.3333 3.27303C31.3333 3.27292 31.3333 3.2728 31.3333 3.27269C31.3333 3.27257 31.3333 3.27246 31.3333 3.27234C31.3333 3.27223 31.3333 3.27212 31.3333 3.272C31.3333 3.27189 31.3333 3.27177 31.3333 3.27166C31.3333 3.27154 31.3333 3.27143 31.3333 3.27131C31.3333 3.27119 31.3333 3.27108 31.3333 3.27096C31.3333 3.27085 31.3333 3.27073 31.3333 3.27061C31.3333 3.2705 31.3333 3.27038 31.3333 3.27026C31.3333 3.27015 31.3333 3.27003 31.3333 3.26991C31.3333 3.26979 31.3333 3.26968 31.3333 3.26956C31.3333 3.26944 31.3333 3.26932 31.3333 3.2692C31.3333 3.26909 31.3333 3.26897 31.3333 3.26885C31.3333 3.26873 31.3333 3.26861 31.3333 3.26849C31.3333 3.26837 31.3333 3.26825 31.3333 3.26813C31.3333 3.26801 31.3333 3.26789 31.3333 3.26777C31.3333 3.26765 31.3333 3.26753 31.3333 3.26741C31.3333 3.26729 31.3333 3.26717 31.3333 3.26705C31.3333 3.26693 31.3333 3.26681 31.3333 3.26669C31.3333 3.26657 31.3333 3.26644 31.3333 3.26632C31.3333 3.2662 31.3333 3.26608 31.3333 3.26596C31.3333 3.26583 31.3333 3.26571 31.3333 3.26559C31.3333 3.26547 31.3333 3.26534 31.3333 3.26522C31.3333 3.2651 31.3333 3.26497 31.3333 3.26485C31.3333 3.26472 31.3333 3.2646 31.3333 3.26448C31.3333 3.26435 31.3333 3.26423 31.3333 3.2641C31.3333 3.26398 31.3333 3.26385 31.3333 3.26373C31.3333 3.2636 31.3333 3.26348 31.3333 3.26335C31.3333 3.26323 31.3333 3.2631 31.3333 3.26297C31.3333 3.26285 31.3333 3.26272 31.3333 3.2626C31.3333 3.26247 31.3333 3.26234 31.3333 3.26221C31.3333 3.26209 31.3333 3.26196 31.3333 3.26183C31.3333 3.26171 31.3333 3.26158 31.3333 3.26145C31.3333 3.26132 31.3333 3.26119 31.3333 3.26106C31.3333 3.26094 31.3333 3.26081 31.3333 3.26068C31.3333 3.26055 31.3333 3.26042 31.3333 3.26029C31.3333 3.26016 31.3333 3.26003 31.3333 3.2599C31.3333 3.25977 31.3333 3.25964 31.3333 3.25951C31.3333 3.25938 31.3333 3.25925 31.3333 3.25912C31.3333 3.25899 31.3333 3.25886 31.3333 3.25872C31.3333 3.25859 31.3333 3.25846 31.3333 3.25833C31.3333 3.2582 31.3333 3.25806 31.3333 3.25793C31.3333 3.2578 31.3333 3.25767 31.3333 3.25753C31.3333 3.2574 31.3333 3.25727 31.3333 3.25713C31.3333 3.257 31.3333 3.25687 31.3333 3.25673C31.3333 3.2566 31.3333 3.25646 31.3333 3.25633C31.3333 3.25619 31.3333 3.25606 31.3333 3.25592C31.3333 3.25579 31.3333 3.25565 31.3333 3.25552C31.3333 3.25538 31.3333 3.25525 31.3333 3.25511C31.3333 3.25497 31.3333 3.25484 31.3333 3.2547C31.3333 3.25456 31.3333 3.25443 31.3333 3.25429C31.3333 3.25415 31.3333 3.25401 31.3333 3.25388C31.3333 3.25374 31.3333 3.2536 31.3333 3.25346C31.3333 3.25332 31.3333 3.25319 31.3333 3.25305C31.3333 3.25291 31.3333 3.25277 31.3333 3.25263C31.3333 3.25249 31.3333 3.25235 31.3333 3.25221C31.3333 3.25207 31.3333 3.25193 31.3333 3.25179C31.3333 3.25165 31.3333 3.25151 31.3333 3.25137C31.3333 3.25123 31.3333 3.25108 31.3333 3.25094C31.3333 3.2508 31.3333 3.25066 31.3333 3.25052C31.3333 3.25038 31.3333 3.25023 31.3333 3.25009C31.3333 3.24995 31.3333 3.2498 31.3333 3.24966C31.3333 3.24952 31.3333 3.24937 31.3333 3.24923C31.3333 3.24909 31.3333 3.24894 31.3333 3.2488C31.3333 3.24865 31.3333 3.24851 31.3333 3.24836C31.3333 3.24822 31.3333 3.24807 31.3333 3.24793C31.3333 3.24778 31.3333 3.24764 31.3333 3.24749C31.3333 3.24734 31.3333 3.2472 31.3333 3.24705C31.3333 3.24691 31.3333 3.24676 31.3333 3.24661C31.3333 3.24646 31.3333 3.24632 31.3333 3.24617C31.3333 3.24602 31.3333 3.24587 31.3333 3.24572C31.3333 3.24558 31.3333 3.24543 31.3333 3.24528C31.3333 3.24513 31.3333 3.24498 31.3333 3.24483C31.3333 3.24468 31.3333 3.24453 31.3333 3.24438C31.3333 3.24423 31.3333 3.24408 31.3333 3.24393C31.3333 3.24378 31.3333 3.24363 31.3333 3.24348C31.3333 3.24333 31.3333 3.24317 31.3333 3.24302C31.3333 3.24287 31.3333 3.24272 31.3333 3.24257C31.3333 3.24241 31.3333 3.24226 31.3333 3.24211C31.3333 3.24195 31.3333 3.2418 31.3333 3.24165H30.3333C30.3333 3.2418 30.3333 3.24195 30.3333 3.24211C30.3333 3.24226 30.3333 3.24241 30.3333 3.24257C30.3333 3.24272 30.3333 3.24287 30.3333 3.24302C30.3333 3.24317 30.3333 3.24333 30.3333 3.24348C30.3333 3.24363 30.3333 3.24378 30.3333 3.24393C30.3333 3.24408 30.3333 3.24423 30.3333 3.24438C30.3333 3.24453 30.3333 3.24468 30.3333 3.24483C30.3333 3.24498 30.3333 3.24513 30.3333 3.24528C30.3333 3.24543 30.3333 3.24558 30.3333 3.24572C30.3333 3.24587 30.3333 3.24602 30.3333 3.24617C30.3333 3.24632 30.3333 3.24646 30.3333 3.24661C30.3333 3.24676 30.3333 3.24691 30.3333 3.24705C30.3333 3.2472 30.3333 3.24734 30.3333 3.24749C30.3333 3.24764 30.3333 3.24778 30.3333 3.24793C30.3333 3.24807 30.3333 3.24822 30.3333 3.24836C30.3333 3.24851 30.3333 3.24865 30.3333 3.2488C30.3333 3.24894 30.3333 3.24909 30.3333 3.24923C30.3333 3.24937 30.3333 3.24952 30.3333 3.24966C30.3333 3.2498 30.3333 3.24995 30.3333 3.25009C30.3333 3.25023 30.3333 3.25038 30.3333 3.25052C30.3333 3.25066 30.3333 3.2508 30.3333 3.25094C30.3333 3.25108 30.3333 3.25123 30.3333 3.25137C30.3333 3.25151 30.3333 3.25165 30.3333 3.25179C30.3333 3.25193 30.3333 3.25207 30.3333 3.25221C30.3333 3.25235 30.3333 3.25249 30.3333 3.25263C30.3333 3.25277 30.3333 3.25291 30.3333 3.25305C30.3333 3.25319 30.3333 3.25332 30.3333 3.25346C30.3333 3.2536 30.3333 3.25374 30.3333 3.25388C30.3333 3.25401 30.3333 3.25415 30.3333 3.25429C30.3333 3.25443 30.3333 3.25456 30.3333 3.2547C30.3333 3.25484 30.3333 3.25497 30.3333 3.25511C30.3333 3.25525 30.3333 3.25538 30.3333 3.25552C30.3333 3.25565 30.3333 3.25579 30.3333 3.25592C30.3333 3.25606 30.3333 3.25619 30.3333 3.25633C30.3333 3.25646 30.3333 3.2566 30.3333 3.25673C30.3333 3.25687 30.3333 3.257 30.3333 3.25713C30.3333 3.25727 30.3333 3.2574 30.3333 3.25753C30.3333 3.25767 30.3333 3.2578 30.3333 3.25793C30.3333 3.25806 30.3333 3.2582 30.3333 3.25833C30.3333 3.25846 30.3333 3.25859 30.3333 3.25872C30.3333 3.25886 30.3333 3.25899 30.3333 3.25912C30.3333 3.25925 30.3333 3.25938 30.3333 3.25951C30.3333 3.25964 30.3333 3.25977 30.3333 3.2599C30.3333 3.26003 30.3333 3.26016 30.3333 3.26029C30.3333 3.26042 30.3333 3.26055 30.3333 3.26068C30.3333 3.26081 30.3333 3.26094 30.3333 3.26106C30.3333 3.26119 30.3333 3.26132 30.3333 3.26145C30.3333 3.26158 30.3333 3.26171 30.3333 3.26183C30.3333 3.26196 30.3333 3.26209 30.3333 3.26221C30.3333 3.26234 30.3333 3.26247 30.3333 3.2626C30.3333 3.26272 30.3333 3.26285 30.3333 3.26297C30.3333 3.2631 30.3333 3.26323 30.3333 3.26335C30.3333 3.26348 30.3333 3.2636 30.3333 3.26373C30.3333 3.26385 30.3333 3.26398 30.3333 3.2641C30.3333 3.26423 30.3333 3.26435 30.3333 3.26448C30.3333 3.2646 30.3333 3.26472 30.3333 3.26485C30.3333 3.26497 30.3333 3.2651 30.3333 3.26522C30.3333 3.26534 30.3333 3.26547 30.3333 3.26559C30.3333 3.26571 30.3333 3.26583 30.3333 3.26596C30.3333 3.26608 30.3333 3.2662 30.3333 3.26632C30.3333 3.26644 30.3333 3.26657 30.3333 3.26669C30.3333 3.26681 30.3333 3.26693 30.3333 3.26705C30.3333 3.26717 30.3333 3.26729 30.3333 3.26741C30.3333 3.26753 30.3333 3.26765 30.3333 3.26777C30.3333 3.26789 30.3333 3.26801 30.3333 3.26813C30.3333 3.26825 30.3333 3.26837 30.3333 3.26849C30.3333 3.26861 30.3333 3.26873 30.3333 3.26885C30.3333 3.26897 30.3333 3.26909 30.3333 3.2692C30.3333 3.26932 30.3333 3.26944 30.3333 3.26956C30.3333 3.26968 30.3333 3.26979 30.3333 3.26991C30.3333 3.27003 30.3333 3.27015 30.3333 3.27026C30.3333 3.27038 30.3333 3.2705 30.3333 3.27061C30.3333 3.27073 30.3333 3.27085 30.3333 3.27096C30.3333 3.27108 30.3333 3.27119 30.3333 3.27131C30.3333 3.27143 30.3333 3.27154 30.3333 3.27166C30.3333 3.27177 30.3333 3.27189 30.3333 3.272C30.3333 3.27212 30.3333 3.27223 30.3333 3.27234C30.3333 3.27246 30.3333 3.27257 30.3333 3.27269C30.3333 3.2728 30.3333 3.27292 30.3333 3.27303C30.3333 3.27314 30.3333 3.27326 30.3333 3.27337C30.3333 3.27348 30.3333 3.2736 30.3333 3.27371C30.3333 3.27382 30.3333 3.27393 30.3333 3.27405C30.3333 3.27416 30.3333 3.27427 30.3333 3.27438C30.3333 3.27449 30.3333 3.27461 30.3333 3.27472C30.3333 3.27483 30.3333 3.27494 30.3333 3.27505C30.3333 3.27516 30.3333 3.27527 30.3333 3.27538C30.3333 3.27549 30.3333 3.27561 30.3333 3.27572C30.3333 3.27583 30.3333 3.27594 30.3333 3.27605C30.3333 3.27616 30.3333 3.27627 30.3333 3.27638C30.3333 3.27648 30.3333 3.27659 30.3333 3.2767C30.3333 3.27681 30.3333 3.27692 30.3333 3.27703C30.3333 3.27714 30.3333 3.27725 30.3333 3.27736C30.3333 3.27746 30.3333 3.27757 30.3333 3.27768C30.3333 3.27779 30.3333 3.2779 30.3333 3.278C30.3333 3.27811 30.3333 3.27822 30.3333 3.27833C30.3333 3.27843 30.3333 3.27854 30.3333 3.27865C30.3333 3.27875 30.3333 3.27886 30.3333 3.27897C30.3333 3.27907 30.3333 3.27918 30.3333 3.27929C30.3333 3.27939 30.3333 3.2795 30.3333 3.2796C30.3333 3.27971 30.3333 3.27982 30.3333 3.27992C30.3333 3.28003 30.3333 3.28013 30.3333 3.28024C30.3333 3.28034 30.3333 3.28045 30.3333 3.28055C30.3333 3.28066 30.3333 3.28076 30.3333 3.28086C30.3333 3.28097 30.3333 3.28107 30.3333 3.28118C30.3333 3.28128 30.3333 3.28138 30.3333 3.28149C30.3333 3.28159 30.3333 3.28169 30.3333 3.2818C30.3333 3.2819 30.3333 3.282 30.3333 3.28211C30.3333 3.28221 30.3333 3.28231 30.3333 3.28242C30.3333 3.28252 30.3333 3.28262 30.3333 3.28272C30.3333 3.28282 30.3333 3.28293 30.3333 3.28303C30.3333 3.28313 30.3333 3.28323 30.3333 3.28333C30.3333 3.28343 30.3333 3.28354 30.3333 3.28364C30.3333 3.28374 30.3333 3.28384 30.3333 3.28394C30.3333 3.28404 30.3333 3.28414 30.3333 3.28424C30.3333 3.28434 30.3333 3.28444 30.3333 3.28454C30.3333 3.28464 30.3333 3.28474 30.3333 3.28484C30.3333 3.28494 30.3333 3.28504 30.3333 3.28514C30.3333 3.28524 30.3333 3.28534 30.3333 3.28544C30.3333 3.28554 30.3333 3.28564 30.3333 3.28574C30.3333 3.28584 30.3333 3.28593 30.3333 3.28603C30.3333 3.28613 30.3333 3.28623 30.3333 3.28633C30.3333 3.28643 30.3333 3.28652 30.3333 3.28662C30.3333 3.28672 30.3333 3.28682 30.3333 3.28692C30.3333 3.28701 30.3333 3.28711 30.3333 3.28721C30.3333 3.28731 30.3333 3.2874 30.3333 3.2875C30.3333 3.2876 30.3333 3.28769 30.3333 3.28779C30.3333 3.28789 30.3333 3.28798 30.3333 3.28808C30.3333 3.28818 30.3333 3.28827 30.3333 3.28837C30.3333 3.28846 30.3333 3.28856 30.3333 3.28866C30.3333 3.28875 30.3333 3.28885 30.3333 3.28894C30.3333 3.28904 30.3333 3.28913 30.3333 3.28923C30.3333 3.28932 30.3333 3.28942 30.3333 3.28951C30.3333 3.28961 30.3333 3.2897 30.3333 3.2898C30.3333 3.28989 30.3333 3.28999 30.3333 3.29008C30.3333 3.29018 30.3333 3.29027 30.3333 3.29036C30.3333 3.29046 30.3333 3.29055 30.3333 3.29065C30.3333 3.29074 30.3333 3.29083 30.3333 3.29093C30.3333 3.29102 30.3333 3.29111 30.3333 3.29121C30.3333 3.2913 30.3333 3.29139 30.3333 3.29148C30.3333 3.29158 30.3333 3.29167 30.3333 3.29176C30.3333 3.29186 30.3333 3.29195 30.3333 3.29204C30.3333 3.29213 30.3333 3.29223 30.3333 3.29232C30.3333 3.29241 30.3333 3.2925 30.3333 3.29259C30.3333 3.29268 30.3333 3.29278 30.3333 3.29287C30.3333 3.29296 30.3333 3.29305 30.3333 3.29314C30.3333 3.29323 30.3333 3.29332 30.3333 3.29342C30.3333 3.29351 30.3333 3.2936 30.3333 3.29369C30.3333 3.29378 30.3333 3.29387 30.3333 3.29396C30.3333 3.29405 30.3333 3.29414 30.3333 3.29423C30.3333 3.29432 30.3333 3.29441 30.3333 3.2945C30.3333 3.29459 30.3333 3.29468 30.3333 3.29477C30.3333 3.29486 30.3333 3.29495 30.3333 3.29504C30.3333 3.29513 30.3333 3.29522 30.3333 3.29531C30.3333 3.2954 30.3333 3.29549 30.3333 3.29558C30.3333 3.29567 30.3333 3.29575 30.3333 3.29584C30.3333 3.29593 30.3333 3.29602 30.3333 3.29611C30.3333 3.2962 30.3333 3.29629 30.3333 3.29637C30.3333 3.29646 30.3333 3.29655 30.3333 3.29664C30.3333 3.29673 30.3333 3.29682 30.3333 3.2969C30.3333 3.29699 30.3333 3.29708 30.3333 3.29717C30.3333 3.29725 30.3333 3.29734 30.3333 3.29743C30.3333 3.29752 30.3333 3.2976 30.3333 3.29769C30.3333 3.29778 30.3333 3.29787 30.3333 3.29795C30.3333 3.29804 30.3333 3.29813 30.3333 3.29821C30.3333 3.2983 30.3333 3.29839 30.3333 3.29847C30.3333 3.29856 30.3333 3.29865 30.3333 3.29873C30.3333 3.29882 30.3333 3.2989 30.3333 3.29899C30.3333 3.29908 30.3333 3.29916 30.3333 3.29925C30.3333 3.29934 30.3333 3.29942 30.3333 3.29951C30.3333 3.29959 30.3333 3.29968 30.3333 3.29976C30.3333 3.29985 30.3333 3.29993 30.3333 3.30002C30.3333 3.30011 30.3333 3.30019 30.3333 3.30028C30.3333 3.30036 30.3333 3.30045 30.3333 3.30053C30.3333 3.30062 30.3333 3.3007 30.3333 3.30078C30.3333 3.30087 30.3333 3.30095 30.3333 3.30104C30.3333 3.30112 30.3333 3.30121 30.3333 3.30129C30.3333 3.30138 30.3333 3.30146 30.3333 3.30154C30.3333 3.30163 30.3333 3.30171 30.3333 3.3018C30.3333 3.30188 30.3333 3.30196 30.3333 3.30205C30.3333 3.30213 30.3333 3.30222 30.3333 3.3023C30.3333 3.30238 30.3333 3.30247 30.3333 3.30255C30.3333 3.30263 30.3333 3.30272 30.3333 3.3028C30.3333 3.30288 30.3333 3.30297 30.3333 3.30305C30.3333 3.30313 30.3333 3.30322 30.3333 3.3033C30.3333 3.30338 30.3333 3.30346 30.3333 3.30355C30.3333 3.30363 30.3333 3.30371 30.3333 3.3038C30.3333 3.30388 30.3333 3.30396 30.3333 3.30404C30.3333 3.30413 30.3333 3.30421 30.3333 3.30429C30.3333 3.30437 30.3333 3.30445 30.3333 3.30454C30.3333 3.30462 30.3333 3.3047 30.3333 3.30478C30.3333 3.30486 30.3333 3.30495 30.3333 3.30503C30.3333 3.30511 30.3333 3.30519 30.3333 3.30527C30.3333 3.30536 30.3333 3.30544 30.3333 3.30552C30.3333 3.3056 30.3333 3.30568 30.3333 3.30576C30.3333 3.30584 30.3333 3.30593 30.3333 3.30601C30.3333 3.30609 30.3333 3.30617 30.3333 3.30625C30.3333 3.30633 30.3333 3.30641 30.3333 3.30649C30.3333 3.30657 30.3333 3.30665 30.3333 3.30674C30.3333 3.30682 30.3333 3.3069 30.3333 3.30698C30.3333 3.30706 30.3333 3.30714 30.3333 3.30722C30.3333 3.3073 30.3333 3.30738 30.3333 3.30746C30.3333 3.30754 30.3333 3.30762 30.3333 3.3077C30.3333 3.30778 30.3333 3.30786 30.3333 3.30794C30.3333 3.30802 30.3333 3.3081 30.3333 3.30818C30.3333 3.30826 30.3333 3.30834 30.3333 3.30842C30.3333 3.3085 30.3333 3.30858 30.3333 3.30866C30.3333 3.30874 30.3333 3.30882 30.3333 3.3089C30.3333 3.30898 30.3333 3.30906 30.3333 3.30914C30.3333 3.30922 30.3333 3.3093 30.3333 3.30938C30.3333 3.30946 30.3333 3.30954 30.3333 3.30962C30.3333 3.3097 30.3333 3.30978 30.3333 3.30985C30.3333 3.30993 30.3333 3.31001 30.3333 3.31009C30.3333 3.31017 30.3333 3.31025 30.3333 3.31033C30.3333 3.31041 30.3333 3.31049 30.3333 3.31057C30.3333 3.31064 30.3333 3.31072 30.3333 3.3108C30.3333 3.31088 30.3333 3.31096 30.3333 3.31104C30.3333 3.31112 30.3333 3.3112 30.3333 3.31127C30.3333 3.31135 30.3333 3.31143 30.3333 3.31151C30.3333 3.31159 30.3333 3.31167 30.3333 3.31175C30.3333 3.31182 30.3333 3.3119 30.3333 3.31198C30.3333 3.31206 30.3333 3.31214 30.3333 3.31222C30.3333 3.31229 30.3333 3.31237 30.3333 3.31245C30.3333 3.31253 30.3333 3.31261 30.3333 3.31269C30.3333 3.31276 30.3333 3.31284 30.3333 3.31292C30.3333 3.313 30.3333 3.31308 30.3333 3.31315C30.3333 3.31323 30.3333 3.31331 30.3333 3.31339C30.3333 3.31347 30.3333 3.31354 30.3333 3.31362C30.3333 3.3137 30.3333 3.31378 30.3333 3.31385C30.3333 3.31393 30.3333 3.31401 30.3333 3.31409C30.3333 3.31417 30.3333 3.31424 30.3333 3.31432C30.3333 3.3144 30.3333 3.31448 30.3333 3.31455C30.3333 3.31463 30.3333 3.31471 30.3333 3.31479C30.3333 3.31486 30.3333 3.31494 30.3333 3.31502C30.3333 3.3151 30.3333 3.31517 30.3333 3.31525C30.3333 3.31533 30.3333 3.31541 30.3333 3.31548C30.3333 3.31556 30.3333 3.31564 30.3333 3.31572C30.3333 3.31579 30.3333 3.31587 30.3333 3.31595C30.3333 3.31602 30.3333 3.3161 30.3333 3.31618C30.3333 3.31626 30.3333 3.31633 30.3333 3.31641C30.3333 3.31649 30.3333 3.31656 30.3333 3.31664C30.3333 3.31672 30.3333 3.3168 30.3333 3.31687C30.3333 3.31695 30.3333 3.31703 30.3333 3.3171C30.3333 3.31718 30.3333 3.31726 30.3333 3.31734C30.3333 3.31741 30.3333 3.31749 30.3333 3.31757C30.3333 3.31764 30.3333 3.31772 30.3333 3.3178C30.3333 3.31787 30.3333 3.31795 30.3333 3.31803C30.3333 3.31811 30.3333 3.31818 30.3333 3.31826C30.3333 3.31834 30.3333 3.31841 30.3333 3.31849C30.3333 3.31857 30.3333 3.31864 30.3333 3.31872C30.3333 3.3188 30.3333 3.31887 30.3333 3.31895C30.3333 3.31903 30.3333 3.31911 30.3333 3.31918C30.3333 3.31926 30.3333 3.31934 30.3333 3.31941C30.3333 3.31949 30.3333 3.31957 30.3333 3.31964C30.3333 3.31972 30.3333 3.3198 30.3333 3.31987C30.3333 3.31995 30.3333 3.32003 30.3333 3.3201C30.3333 3.32018 30.3333 3.32026 30.3333 3.32034C30.3333 3.32041 30.3333 3.32049 30.3333 3.32057C30.3333 3.32064 30.3333 3.32072 30.3333 3.3208C30.3333 3.32087 30.3333 3.32095 30.3333 3.32103C30.3333 3.3211 30.3333 3.32118 30.3333 3.32126C30.3333 3.32133 30.3333 3.32141 30.3333 3.32149C30.3333 3.32156 30.3333 3.32164 30.3333 3.32172C30.3333 3.3218 30.3333 3.32187 30.3333 3.32195C30.3333 3.32203 30.3333 3.3221 30.3333 3.32218C30.3333 3.32226 30.3333 3.32233 30.3333 3.32241C30.3333 3.32249 30.3333 3.32256 30.3333 3.32264C30.3333 3.32272 30.3333 3.3228 30.3333 3.32287C30.3333 3.32295 30.3333 3.32303 30.3333 3.3231C30.3333 3.32318 30.3333 3.32326 30.3333 3.32333C30.3333 3.32341 30.3333 3.32349 30.3333 3.32357C30.3333 3.32364 30.3333 3.32372 30.3333 3.3238C30.3333 3.32387 30.3333 3.32395 30.3333 3.32403C30.3333 3.32411 30.3333 3.32418 30.3333 3.32426C30.3333 3.32434 30.3333 3.32441 30.3333 3.32449C30.3333 3.32457 30.3333 3.32465 30.3333 3.32472C30.3333 3.3248 30.3333 3.32488 30.3333 3.32496C30.3333 3.32503 30.3333 3.32511 30.3333 3.32519C30.3333 3.32526 30.3333 3.32534 30.3333 3.32542C30.3333 3.3255 30.3333 3.32557 30.3333 3.32565C30.3333 3.32573 30.3333 3.32581 30.3333 3.32588C30.3333 3.32596 30.3333 3.32604 30.3333 3.32612C30.3333 3.32619 30.3333 3.32627 30.3333 3.32635C30.3333 3.32643 30.3333 3.3265 30.3333 3.32658C30.3333 3.32666 30.3333 3.32674 30.3333 3.32682C30.3333 3.32689 30.3333 3.32697 30.3333 3.32705C30.3333 3.32713 30.3333 3.3272 30.3333 3.32728C30.3333 3.32736 30.3333 3.32744 30.3333 3.32752C30.3333 3.32759 30.3333 3.32767 30.3333 3.32775C30.3333 3.32783 30.3333 3.32791 30.3333 3.32798C30.3333 3.32806 30.3333 3.32814 30.3333 3.32822C30.3333 3.3283 30.3333 3.32838 30.3333 3.32845C30.3333 3.32853 30.3333 3.32861 30.3333 3.32869C30.3333 3.32877 30.3333 3.32885 30.3333 3.32892C30.3333 3.329 30.3333 3.32908 30.3333 3.32916C30.3333 3.32924 30.3333 3.32932 30.3333 3.3294C30.3333 3.32947 30.3333 3.32955 30.3333 3.32963C30.3333 3.32971 30.3333 3.32979 30.3333 3.32987C30.3333 3.32995 30.3333 3.33003 30.3333 3.3301C30.3333 3.33018 30.3333 3.33026 30.3333 3.33034C30.3333 3.33042 30.3333 3.3305 30.3333 3.33058C30.3333 3.33066 30.3333 3.33074 30.3333 3.33082C30.3333 3.3309 30.3333 3.33097 30.3333 3.33105C30.3333 3.33113 30.3333 3.33121 30.3333 3.33129C30.3333 3.33137 30.3333 3.33145 30.3333 3.33153C30.3333 3.33161 30.3333 3.33169 30.3333 3.33177C30.3333 3.33185 30.3333 3.33193 30.3333 3.33201C30.3333 3.33209 30.3333 3.33217 30.3333 3.33225C30.3333 3.33233 30.3333 3.33241 30.3333 3.33249C30.3333 3.33257 30.3333 3.33265 30.3333 3.33273C30.3333 3.33281 30.3333 3.33289 30.3333 3.33297C30.3333 3.33305 30.3333 3.33313 30.3333 3.33321C30.3333 3.33329 30.3333 3.33337 30.3333 3.33345C30.3333 3.33353 30.3333 3.33361 30.3333 3.33369C30.3333 3.33377 30.3333 3.33385 30.3333 3.33393C30.3333 3.33402 30.3333 3.3341 30.3333 3.33418C30.3333 3.33426 30.3333 3.33434 30.3333 3.33442C30.3333 3.3345 30.3333 3.33458 30.3333 3.33466C30.3333 3.33474 30.3333 3.33483 30.3333 3.33491C30.3333 3.33499 30.3333 3.33507 30.3333 3.33515C30.3333 3.33523 30.3333 3.33531 30.3333 3.3354C30.3333 3.33548 30.3333 3.33556 30.3333 3.33564C30.3333 3.33572 30.3333 3.33581 30.3333 3.33589C30.3333 3.33597 30.3333 3.33605 30.3333 3.33613C30.3333 3.33622 30.3333 3.3363 30.3333 3.33638C30.3333 3.33646 30.3333 3.33654 30.3333 3.33663C30.3333 3.33671 30.3333 3.33679 30.3333 3.33687C30.3333 3.33696 30.3333 3.33704 30.3333 3.33712C30.3333 3.33721 30.3333 3.33729 30.3333 3.33737C30.3333 3.33745 30.3333 3.33754 30.3333 3.33762C30.3333 3.3377 30.3333 3.33779 30.3333 3.33787C30.3333 3.33795 30.3333 3.33804 30.3333 3.33812C30.3333 3.3382 30.3333 3.33829 30.3333 3.33837C30.3333 3.33845 30.3333 3.33854 30.3333 3.33862C30.3333 3.33871 30.3333 3.33879 30.3333 3.33887C30.3333 3.33896 30.3333 3.33904 30.3333 3.33913C30.3333 3.33921 30.3333 3.33929 30.3333 3.33938C30.3333 3.33946 30.3333 3.33955 30.3333 3.33963C30.3333 3.33972 30.3333 3.3398 30.3333 3.33989C30.3333 3.33997 30.3333 3.34005 30.3333 3.34014C30.3333 3.34022 30.3333 3.34031 30.3333 3.34039C30.3333 3.34048 30.3333 3.34057 30.3333 3.34065C30.3333 3.34074 30.3333 3.34082 30.3333 3.34091C30.3333 3.34099 30.3333 3.34108 30.3333 3.34116C30.3333 3.34125 30.3333 3.34134 30.3333 3.34142C30.3333 3.34151 30.3333 3.34159 30.3333 3.34168C30.3333 3.34177 30.3333 3.34185 30.3333 3.34194C30.3333 3.34202 30.3333 3.34211 30.3333 3.3422C30.3333 3.34228 30.3333 3.34237 30.3333 3.34246C30.3333 3.34254 30.3333 3.34263 30.3333 3.34272C30.3333 3.3428 30.3333 3.34289 30.3333 3.34298C30.3333 3.34307 30.3333 3.34315 30.3333 3.34324C30.3333 3.34333 30.3333 3.34342 30.3333 3.3435C30.3333 3.34359 30.3333 3.34368 30.3333 3.34377C30.3333 3.34385 30.3333 3.34394 30.3333 3.34403C30.3333 3.34412 30.3333 3.34421 30.3333 3.3443C30.3333 3.34438 30.3333 3.34447 30.3333 3.34456C30.3333 3.34465 30.3333 3.34474 30.3333 3.34483C30.3333 3.34492 30.3333 3.345 30.3333 3.34509C30.3333 3.34518 30.3333 3.34527 30.3333 3.34536C30.3333 3.34545 30.3333 3.34554 30.3333 3.34563C30.3333 3.34572 30.3333 3.34581 30.3333 3.3459C30.3333 3.34599 30.3333 3.34608 30.3333 3.34617C30.3333 3.34626 30.3333 3.34635 30.3333 3.34644C30.3333 3.34653 30.3333 3.34662 30.3333 3.34671C30.3333 3.3468 30.3333 3.34689 30.3333 3.34698C30.3333 3.34707 30.3333 3.34716 30.3333 3.34725C30.3333 3.34735 30.3333 3.34744 30.3333 3.34753C30.3333 3.34762 30.3333 3.34771 30.3333 3.3478C30.3333 3.34789 30.3333 3.34799 30.3333 3.34808C30.3333 3.34817 30.3333 3.34826 30.3333 3.34835C30.3333 3.34845 30.3333 3.34854 30.3333 3.34863C30.3333 3.34872 30.3333 3.34881 30.3333 3.34891C30.3333 3.349 30.3333 3.34909 30.3333 3.34919C30.3333 3.34928 30.3333 3.34937 30.3333 3.34946C30.3333 3.34956 30.3333 3.34965 30.3333 3.34974C30.3333 3.34984 30.3333 3.34993 30.3333 3.35003C30.3333 3.35012 30.3333 3.35021 30.3333 3.35031C30.3333 3.3504 30.3333 3.35049 30.3333 3.35059C30.3333 3.35068 30.3333 3.35078 30.3333 3.35087C30.3333 3.35097 30.3333 3.35106 30.3333 3.35116C30.3333 3.35125 30.3333 3.35135 30.3333 3.35144C30.3333 3.35154 30.3333 3.35163 30.3333 3.35173C30.3333 3.35182 30.3333 3.35192 30.3333 3.35201C30.3333 3.35211 30.3333 3.35221 30.3333 3.3523C30.3333 3.3524 30.3333 3.35249 30.3333 3.35259C30.3333 3.35269 30.3333 3.35278 30.3333 3.35288C30.3333 3.35298 30.3333 3.35307 30.3333 3.35317C30.3333 3.35327 30.3333 3.35336 30.3333 3.35346C30.3333 3.35356 30.3333 3.35366 30.3333 3.35375C30.3333 3.35385 30.3333 3.35395 30.3333 3.35405C30.3333 3.35415 30.3333 3.35424 30.3333 3.35434C30.3333 3.35444 30.3333 3.35454 30.3333 3.35464C30.3333 3.35474 30.3333 3.35483 30.3333 3.35493C30.3333 3.35503 30.3333 3.35513 30.3333 3.35523C30.3333 3.35533 30.3333 3.35543 30.3333 3.35553C30.3333 3.35563 30.3333 3.35573 30.3333 3.35583C30.3333 3.35593 30.3333 3.35603 30.3333 3.35613C30.3333 3.35623 30.3333 3.35633 30.3333 3.35643C30.3333 3.35653 30.3333 3.35663 30.3333 3.35673C30.3333 3.35683 30.3333 3.35693 30.3333 3.35703C30.3333 3.35713 30.3333 3.35724 30.3333 3.35734C30.3333 3.35744 30.3333 3.35754 30.3333 3.35764C30.3333 3.35774 30.3333 3.35785 30.3333 3.35795C30.3333 3.35805 30.3333 3.35815 30.3333 3.35826C30.3333 3.35836 30.3333 3.35846 30.3333 3.35856C30.3333 3.35867 30.3333 3.35877 30.3333 3.35887C30.3333 3.35898 30.3333 3.35908 30.3333 3.35918C30.3333 3.35929 30.3333 3.35939 30.3333 3.35949C30.3333 3.3596 30.3333 3.3597 30.3333 3.35981C30.3333 3.35991 30.3333 3.36001 30.3333 3.36012C30.3333 3.36022 30.3333 3.36033 30.3333 3.36043C30.3333 3.36054 30.3333 3.36064 30.3333 3.36075C30.3333 3.36086 30.3333 3.36096 30.3333 3.36107C30.3333 3.36117 30.3333 3.36128 30.3333 3.36138C30.3333 3.36149 30.3333 3.3616 30.3333 3.3617C30.3333 3.36181 30.3333 3.36192 30.3333 3.36202C30.3333 3.36213 30.3333 3.36224 30.3333 3.36234C30.3333 3.36245 30.3333 3.36256 30.3333 3.36267C30.3333 3.36277 30.3333 3.36288 30.3333 3.36299C30.3333 3.3631 30.3333 3.36321 30.3333 3.36331C30.3333 3.36342 30.3333 3.36353 30.3333 3.36364C30.3333 3.36375 30.3333 3.36386 30.3333 3.36397C30.3333 3.36408 30.3333 3.36419 30.3333 3.3643C30.3333 3.3644 30.3333 3.36451 30.3333 3.36462C30.3333 3.36473 30.3333 3.36484 30.3333 3.36495C30.3333 3.36507 30.3333 3.36518 30.3333 3.36529C30.3333 3.3654 30.3333 3.36551 30.3333 3.36562C30.3333 3.36573 30.3333 3.36584 30.3333 3.36595C30.3333 3.36606 30.3333 3.36618 30.3333 3.36629C30.3333 3.3664 30.3333 3.36651 30.3333 3.36662C30.3333 3.36674 30.3333 3.36685 30.3333 3.36696C30.3333 3.36708 30.3333 3.36719 30.3333 3.3673C30.3333 3.36741 30.3333 3.36753 30.3333 3.36764C30.3333 3.36775 30.3333 3.36787 30.3333 3.36798C30.3333 3.3681 30.3333 3.36821 30.3333 3.36833C30.3333 3.36844 30.3333 3.36855 30.3333 3.36867C30.3333 3.36878 30.3333 3.3689 30.3333 3.36901C30.3333 3.36913 30.3333 3.36925 30.3333 3.36936C30.3333 3.36948 30.3333 3.36959 30.3333 3.36971C30.3333 3.36982 30.3333 3.36994 30.3333 3.37006C30.3333 3.37017 30.3333 3.37029 30.3333 3.37041C30.3333 3.37052 30.3333 3.37064 30.3333 3.37076C30.3333 3.37088 30.3333 3.37099 30.3333 3.37111C30.3333 3.37123 30.3333 3.37135 30.3333 3.37147C30.3333 3.37158 30.3333 3.3717 30.3333 3.37182C30.3333 3.37194 30.3333 3.37206 30.3333 3.37218C30.3333 3.3723 30.3333 3.37242 30.3333 3.37254C30.3333 3.37266 30.3333 3.37278 30.3333 3.3729C30.3333 3.37302 30.3333 3.37314 30.3333 3.37326C30.3333 3.37338 30.3333 3.3735 30.3333 3.37362C30.3333 3.37374 30.3333 3.37386 30.3333 3.37398C30.3333 3.3741 30.3333 3.37423 30.3333 3.37435C30.3333 3.37447 30.3333 3.37459 30.3333 3.37471C30.3333 3.37484 30.3333 3.37496 30.3333 3.37508C30.3333 3.37521 30.3333 3.37533 30.3333 3.37545C30.3333 3.37557 30.3333 3.3757 30.3333 3.37582C30.3333 3.37595 30.3333 3.37607 30.3333 3.37619C30.3333 3.37632 30.3333 3.37644 30.3333 3.37657C30.3333 3.37669 30.3333 3.37682 30.3333 3.37694C30.3333 3.37707 30.3333 3.37719 30.3333 3.37732C30.3333 3.37744 30.3333 3.37757 30.3333 3.3777C30.3333 3.37782 30.3333 3.37795 30.3333 3.37808C30.3333 3.3782 30.3333 3.37833 30.3333 3.37846C30.3333 3.37858 30.3333 3.37871 30.3333 3.37884C30.3333 3.37897 30.3333 3.37909 30.3333 3.37922C30.3333 3.37935 30.3333 3.37948 30.3333 3.37961C30.3333 3.37973 30.3333 3.37986 30.3333 3.37999C30.3333 3.38012 30.3333 3.38025 30.3333 3.38038C30.3333 3.38051 30.3333 3.38064 30.3333 3.38077C30.3333 3.3809 30.3333 3.38103 30.3333 3.38116C30.3333 3.38129 30.3333 3.38142 30.3333 3.38155C30.3333 3.38168 30.3333 3.38182 30.3333 3.38195C30.3333 3.38208 30.3333 3.38221 30.3333 3.38234C30.3333 3.38247 30.3333 3.38261 30.3333 3.38274C30.3333 3.38287 30.3333 3.383 30.3333 3.38314C30.3333 3.38327 30.3333 3.3834 30.3333 3.38354C30.3333 3.38367 30.3333 3.38381 30.3333 3.38394C30.3333 3.38407 30.3333 3.38421 30.3333 3.38434C30.3333 3.38448 30.3333 3.38461 30.3333 3.38475C30.3333 3.38488 30.3333 3.38502 30.3333 3.38515C30.3333 3.38529 30.3333 3.38542 30.3333 3.38556C30.3333 3.3857 30.3333 3.38583 30.3333 3.38597C30.3333 3.38611 30.3333 3.38624 30.3333 3.38638C30.3333 3.38652 30.3333 3.38666 30.3333 3.38679C30.3333 3.38693 30.3333 3.38707 30.3333 3.38721C30.3333 3.38735 30.3333 3.38749 30.3333 3.38762C30.3333 3.38776 30.3333 3.3879 30.3333 3.38804C30.3333 3.38818 30.3333 3.38832 30.3333 3.38846C30.3333 3.3886 30.3333 3.38874 30.3333 3.38888C30.3333 3.38902 30.3333 3.38916 30.3333 3.3893C30.3333 3.38944 30.3333 3.38959 30.3333 3.38973C30.3333 3.38987 30.3333 3.39001 30.3333 3.39015C30.3333 3.3903 30.3333 3.39044 30.3333 3.39058C30.3333 3.39072 30.3333 3.39087 30.3333 3.39101C30.3333 3.39115 30.3333 3.3913 30.3333 3.39144C30.3333 3.39158 30.3333 3.39173 30.3333 3.39187C30.3333 3.39202 30.3333 3.39216 30.3333 3.39231C30.3333 3.39245 30.3333 3.3926 30.3333 3.39274C30.3333 3.39289 30.3333 3.39303 30.3333 3.39318C30.3333 3.39333 30.3333 3.39347 30.3333 3.39362C30.3333 3.39376 30.3333 3.39391 30.3333 3.39406C30.3333 3.39421 30.3333 3.39435 30.3333 3.3945C30.3333 3.39465 30.3333 3.3948 30.3333 3.39495C30.3333 3.39509 30.3333 3.39524 30.3333 3.39539C30.3333 3.39554 30.3333 3.39569 30.3333 3.39584C30.3333 3.39599 30.3333 3.39614 30.3333 3.39629C30.3333 3.39644 30.3333 3.39659 30.3333 3.39674C30.3333 3.39689 30.3333 3.39704 30.3333 3.39719C30.3333 3.39734 30.3333 3.3975 30.3333 3.39765C30.3333 3.3978 30.3333 3.39795 30.3333 3.39811C30.3333 3.39826 30.3333 3.39841 30.3333 3.39856C30.3333 3.39872 30.3333 3.39887 30.3333 3.39902H31.3333ZM31.2752 3.00767C31.2377 2.93683 31.1691 2.80201 31.0577 2.67936C30.9352 2.54441 30.7758 2.43704 30.5668 2.37127L30.2666 3.32514C30.2905 3.33267 30.302 3.33934 30.3064 3.34212C30.3104 3.3447 30.3134 3.34718 30.3173 3.35148C30.322 3.35664 30.3299 3.36658 30.3423 3.38675C30.3559 3.40889 30.3694 3.43396 30.3915 3.47562L31.2752 3.00767ZM30.5354 2.3625L23.452 0.631351L23.2146 1.60276L30.298 3.33391L30.5354 2.3625ZM23.4482 0.630432C21.963 0.27982 20.4542 0.629954 19.3234 1.69778L20.0099 2.42486C20.8791 1.60416 22.037 1.32478 23.2185 1.60368L23.4482 0.630432ZM19.3234 1.69778L18.7401 2.2486L19.4266 2.97568L20.0099 2.42486L19.3234 1.69778ZM19.4266 2.2486C18.3303 1.21339 16.7894 0.617056 15.25 0.617056V1.61706C16.5439 1.61706 17.8364 2.12236 18.7401 2.97568L19.4266 2.2486ZM15.25 0.617056C15.1299 0.617056 14.9826 0.616714 14.8427 0.628724C14.7063 0.64043 14.5327 0.666706 14.3699 0.743605L14.7968 1.64788C14.7958 1.64834 14.8049 1.64407 14.8291 1.63879C14.8531 1.63357 14.8854 1.62873 14.9282 1.62506C15.0174 1.6174 15.1201 1.61706 15.25 1.61706V0.617056ZM14.5363 0.697959C12.7161 0.869835 11.0757 1.89909 10.1589 3.37071L11.0077 3.89946C11.7576 2.69568 13.1172 1.83641 14.6303 1.69353L14.5363 0.697959ZM10.1589 3.37071C9.24216 4.84237 9.06026 6.73888 9.70087 8.38076L10.6325 8.01728C10.1064 6.669 10.2578 5.10321 11.0077 3.89946L10.1589 3.37071ZM10.1667 7.69902C9.97071 7.69902 9.82486 7.78906 9.7527 7.84016C9.67675 7.89395 9.60855 7.95966 9.57339 7.99287L10.2599 8.71993C10.2819 8.69922 10.2968 8.68518 10.3106 8.67299C10.317 8.66733 10.3218 8.66322 10.3255 8.66028C10.3291 8.65731 10.3308 8.65615 10.3306 8.65624C10.3305 8.65631 10.3277 8.65834 10.3223 8.66145C10.3169 8.66455 10.3077 8.66943 10.2951 8.67467C10.2699 8.68507 10.2254 8.69902 10.1667 8.69902V7.69902ZM9.55302 8.01323L2.05302 15.9608L2.78031 16.6471L10.2803 8.69957L9.55302 8.01323ZM2.04178 15.9731C1.14075 16.9941 0.583334 18.2885 0.583334 19.6089H1.58333C1.58333 18.5686 2.02592 17.5023 2.79155 16.6348L2.04178 15.9731ZM0.583334 19.6089C0.583334 20.8987 1.03671 22.2789 1.95845 23.3233L2.70822 22.6616C1.96329 21.8175 1.58333 20.6796 1.58333 19.6089H0.583334ZM1.95968 23.3247L9.37635 31.6657L10.1237 31.0012L2.70698 22.6602L1.95968 23.3247ZM9.75 30.8335H5.5V31.8335H9.75V30.8335ZM5.5 30.8335C2.68073 30.8334 0.5 32.8286 0.5 35.4253H1.5C1.5 33.458 3.1526 31.8334 5.5 31.8335L5.5 30.8335ZM0.5 35.4253V36.4482H1.5V35.4253H0.5ZM0.5 36.4482C0.5 37.0657 1.00126 37.499 1.58333 37.499V36.499C1.53623 36.499 1.51558 36.4834 1.50994 36.4781C1.50654 36.4749 1.50464 36.4719 1.50336 36.469C1.50218 36.4662 1.5 36.46 1.5 36.4482H0.5ZM1.58333 37.499H17.6667V36.499H1.58333V37.499ZM17.6667 37.499H30.4167V36.499H17.6667V37.499ZM30.4167 37.499C30.9987 37.499 31.5 37.0657 31.5 36.4482H30.5C30.5 36.46 30.4978 36.4662 30.4966 36.469C30.4954 36.4719 30.4935 36.4749 30.4901 36.4781C30.4844 36.4834 30.4638 36.499 30.4167 36.499V37.499ZM31.5 36.4482V35.4253H30.5V36.4482H31.5ZM31.5 35.4253C31.5 32.8345 29.2423 30.8334 26.6667 30.8334V31.8334C28.7577 31.8334 30.5 33.4521 30.5 35.4253H31.5ZM26.6667 30.8334H22.4167V31.8334H26.6667V30.8334ZM22.4167 30.8334H21.25V31.8334H22.4167V30.8334ZM21.25 30.8334H14.3333V31.8334H21.25V30.8334ZM14.3333 30.8334H10.8333V31.8334H14.3333V30.8334ZM11.3333 31.3334C11.3333 31.2645 11.3344 31.1457 11.3173 31.0324C11.3008 30.9233 11.2559 30.73 11.0933 30.5765L10.4067 31.3036C10.3659 31.265 10.3454 31.226 10.3363 31.204C10.3278 31.1835 10.3272 31.1733 10.3285 31.182C10.3298 31.1901 10.3314 31.2059 10.3323 31.2337C10.3333 31.2618 10.3333 31.2925 10.3333 31.3334H11.3333ZM11.1261 30.6105L3.54275 21.9548L2.79058 22.6138L10.3739 31.2695L11.1261 30.6105ZM3.54816 21.9611C2.95732 21.2637 2.66667 20.4337 2.66667 19.6089H1.66667C1.66667 20.6725 2.04268 21.7311 2.78517 22.6075L3.54816 21.9611ZM2.66667 19.6089C2.66667 18.8107 3.02126 17.9769 3.63149 17.2567L2.86851 16.6102C2.14541 17.4637 1.66667 18.5185 1.66667 19.6089H2.66667ZM3.61385 17.2764L11.0305 9.40754L10.3028 8.72165L2.88615 16.5905L3.61385 17.2764ZM10.2751 9.37558C10.3299 9.44448 10.3813 9.51495 10.4372 9.59234C10.4913 9.66708 10.5517 9.75144 10.6155 9.83358C10.746 10.0016 10.9056 10.1809 11.1277 10.3382L11.7056 9.52213C11.5944 9.44335 11.504 9.34725 11.4053 9.22021C11.3545 9.1548 11.3056 9.0867 11.2477 9.00653C11.1916 8.929 11.1285 8.84209 11.0582 8.75362L10.2751 9.37558ZM11.0734 9.56663C10.2179 10.3745 9.83333 11.3741 9.83333 12.4482H10.8333C10.8333 11.6338 11.1155 10.9023 11.7599 10.2937L11.0734 9.56663ZM9.83333 12.4482C9.83333 12.903 9.92956 13.3483 10.0109 13.7321L10.9891 13.5249C10.9038 13.1218 10.8333 12.7802 10.8333 12.4482H9.83333ZM10.0292 13.7969L12.1959 19.8559L13.1375 19.5192L10.9708 13.4602L10.0292 13.7969ZM12.2248 19.9215C12.2959 20.0557 12.4003 20.1883 12.5292 20.2926C12.6535 20.3932 12.845 20.5023 13.0833 20.5023V19.5023C13.1207 19.5023 13.1458 19.5111 13.1558 19.5153C13.1654 19.5194 13.1656 19.5212 13.1583 19.5153C13.1514 19.5097 13.1418 19.5005 13.1317 19.488C13.1215 19.4754 13.1136 19.4632 13.1085 19.4536L12.2248 19.9215ZM12.8699 20.4544C13.093 20.5598 13.3316 20.5467 13.5147 20.4891C13.6962 20.4319 13.9057 20.3046 14.0252 20.0789L13.1415 19.6109C13.1608 19.5745 13.1829 19.5549 13.1938 19.5468C13.2049 19.5384 13.2121 19.536 13.2145 19.5352C13.217 19.5344 13.2225 19.5329 13.2328 19.5332C13.243 19.5335 13.2662 19.5357 13.2968 19.5502L12.8699 20.4544ZM13.9266 20.2085L19.2599 15.1724L18.5734 14.4453L13.2401 19.4814L13.9266 20.2085ZM20.597 3.36772C21.3109 2.69363 22.2966 2.43565 23.1976 2.69744L23.4766 1.73715C22.211 1.36943 20.8633 1.74096 19.9105 2.64064L20.597 3.36772ZM23.2191 2.70318L29.0525 4.11957L29.2884 3.14781L23.4551 1.73141L23.2191 2.70318ZM28.8272 3.27015L12.9938 18.221L13.6804 18.9481L29.5137 3.99723L28.8272 3.27015ZM13.8086 18.4181L12.0586 13.4607L11.1156 13.7936L12.8656 18.7509L13.8086 18.4181ZM12.0548 13.4502C11.7136 12.5483 11.985 11.4997 12.6804 10.8431L11.9938 10.1161C11.0225 11.0332 10.6272 12.5026 11.1194 13.804L12.0548 13.4502ZM12.6804 10.8431L20.597 3.36772L19.9105 2.64064L11.9938 10.1161L12.6804 10.8431ZM12.4297 3.76359C13.1614 3.07265 14.1181 2.71973 15.1698 2.71973V1.71973C13.8881 1.71973 12.6781 2.15369 11.7431 3.03651L12.4297 3.76359ZM15.1698 2.71973C16.2214 2.71973 17.1781 3.07265 17.9098 3.76359L18.5964 3.03651C17.6614 2.15369 16.4514 1.71973 15.1698 1.71973V2.71973ZM17.9098 3.03651L11.7431 8.85946L12.4297 9.58654L18.5964 3.76359L17.9098 3.03651ZM12.4297 8.85946C11.6997 8.17017 11.3364 7.28022 11.3364 6.31153H10.3364C10.3364 7.54612 10.8065 8.70207 11.7431 9.58654L12.4297 8.85946ZM11.3364 6.31153C11.3364 5.36421 11.7674 4.4595 12.4484 3.74502L11.7245 3.05509C10.9055 3.91438 10.3364 5.05557 10.3364 6.31153L11.3364 6.31153ZM14.334 35.4775H2.08398V36.4775H14.334V35.4775ZM2.58398 35.9775C2.58398 35.0995 2.93849 34.3632 3.51059 33.823L2.82404 33.0959C2.06282 33.8147 1.58398 34.8096 1.58398 35.9775H2.58398ZM3.51059 33.823C4.07943 33.2859 4.95456 32.9365 5.83398 32.9365V31.9365C4.71341 31.9365 3.58854 32.3741 2.82404 33.0959L3.51059 33.823ZM5.83398 32.9365H17.584V31.9365H5.83398V32.9365ZM17.584 32.9365H26.0007V31.9365H17.584V32.9365ZM26.0007 32.9365C26.9577 32.9365 27.7512 33.2821 28.324 33.823L29.0106 33.0959C28.2501 32.3778 27.2102 31.9365 26.0007 31.9365V32.9365ZM28.324 33.823C28.8916 34.359 29.2507 35.1721 29.2507 35.9775H30.2507C30.2507 34.8944 29.7763 33.819 29.0106 33.0959L28.324 33.823ZM29.7507 35.4775H14.334V36.4775H29.7507V35.4775Z" fill="#2C007D"/>
</svg>
