<svg width="33" height="37" viewBox="0 0 33 37" fill="none" xmlns="http://www.w3.org/2000/svg">
<path d="M16.8198 36.4622H2.73744C1.823 36.4622 1 35.6562 1 34.7607V2.70054C1 1.805 1.823 0.999023 2.73744 0.999023H25.1413C26.0557 0.999023 26.8787 1.805 26.8787 2.70054V13.2678" stroke="#2C007D"/>
<path d="M1 5.20901H26.8787" stroke="#2C007D"/>
<path d="M1 32.0742H16.8198" stroke="#2C007D"/>
<path d="M11.2422 34.4912H16.4545" stroke="#2C007D"/>
<path d="M11.2422 3.32717H16.4545" stroke="#2C007D"/>
<rect x="4.01562" y="8.70117" width="3.01766" height="2.95526" fill="#2C007D"/>
<rect x="9.5" y="8.70117" width="3.01766" height="2.95526" fill="#2C007D"/>
<rect x="14.9922" y="8.70117" width="3.01766" height="2.95526" fill="#2C007D"/>
<rect x="9.5" y="14.5225" width="3.01766" height="2.95526" fill="#2C007D"/>
<rect x="4.01562" y="14.6123" width="3.01766" height="2.95526" fill="#2C007D"/>
<rect x="9.5" y="20.3428" width="3.01766" height="2.95526" fill="#2C007D"/>
<rect x="4.01562" y="20.5225" width="3.01766" height="2.95526" fill="#2C007D"/>
<path fill-rule="evenodd" clip-rule="evenodd" d="M30.9016 36.9995H19.5625V31.7158H30.993V36.9995H30.9016ZM20.4766 36.1035H29.9868V32.6109H20.4766V36.1035Z" fill="#FF5900"/>
<path fill-rule="evenodd" clip-rule="evenodd" d="M31.9041 20.2498V19.8916C31.8127 18.9961 31.0811 18.3692 30.1667 18.3692C29.8009 18.3692 29.3437 18.4587 29.0693 18.7274C28.795 18.1901 28.4292 17.7423 27.8806 17.6528C27.2405 17.4736 26.7832 17.6528 26.326 18.1005C26.0517 17.6528 25.6859 17.2945 25.2287 17.205C24.68 17.1154 24.2228 17.205 23.7656 17.4736V13.5333C23.7656 13.3542 23.7656 13.2646 23.7656 13.0855C23.4913 11.8318 22.0281 11.2049 21.0223 12.0109C20.565 12.3691 20.2907 12.9064 20.2907 13.5333V21.5035C20.1078 21.2349 19.9249 21.0558 19.6506 20.8767C18.919 20.1602 18.096 19.9811 17.1816 20.2498C16.7244 20.3393 16.45 20.608 16.0843 20.9662C15.7185 21.2349 15.7185 21.3244 15.9014 21.6826C16.2672 22.3991 16.6329 23.1155 16.9987 23.7424C17.9132 25.5334 18.8276 27.3245 19.8335 29.026C20.1078 29.5633 20.565 30.0111 21.0223 30.3693V29.3842C20.8394 29.2051 20.6565 28.9365 20.4736 28.6678C19.5591 27.0559 18.7362 25.5334 17.9132 23.9215C17.5474 23.1155 17.0902 22.22 16.6329 21.414C17.4559 20.5185 18.5533 20.608 19.2848 21.5035C19.5591 21.8618 19.9249 22.3095 20.2907 22.6677C20.3821 22.8468 20.565 22.9364 20.7479 22.8468C20.9308 22.7573 21.0223 22.5782 21.0223 22.3991V13.6229C21.0223 13.4437 21.0223 13.2646 21.1137 13.0855C21.2051 12.6378 21.6624 12.3691 22.1196 12.3691C22.5768 12.3691 22.9426 12.7273 23.034 13.1751C23.034 13.2646 23.034 13.4437 23.034 13.5333V21.2349C23.034 21.5035 23.1255 21.6827 23.3998 21.6827C23.6741 21.6827 23.7656 21.5035 23.7656 21.2349V18.9065C23.7656 18.1901 24.4057 17.7423 25.0458 17.9214C25.503 18.011 25.7774 18.4587 25.7774 18.9065V20.8767C25.7774 20.9662 25.7774 21.0558 25.7774 21.1453C25.7774 21.3244 25.9602 21.414 26.1431 21.414C26.326 21.414 26.4175 21.3244 26.5089 21.1453C26.5089 21.0558 26.5089 20.9662 26.5089 20.8767V19.2647C26.5089 18.8169 26.7832 18.4587 27.2405 18.2796C27.8806 18.1005 28.5207 18.5483 28.5207 19.2647C28.5207 19.802 28.5207 20.2498 28.5207 20.7871V20.9662C28.5207 21.1453 28.7036 21.3244 28.8865 21.2349C29.0694 21.2349 29.1608 21.1453 29.1608 20.8767C29.1608 20.608 29.1608 20.2498 29.1608 19.9811C29.1608 19.2647 29.8009 18.8169 30.441 18.9961C30.8982 19.0856 31.1726 19.5334 31.1726 19.9811C31.1726 20.3394 31.1726 20.6976 31.1726 20.9662C31.1726 22.9364 31.1726 24.817 31.1726 26.7872C31.1726 27.9514 30.7153 28.8469 29.8009 29.5634C29.2522 30.0111 28.6121 30.1902 27.8806 30.2798C26.4175 30.2798 24.9544 30.2798 23.4913 30.2798V30.9962C24.9544 30.9962 26.4175 30.9962 27.972 30.9962C29.0694 30.9962 29.9838 30.638 30.7154 29.832C31.6298 28.9365 31.9956 27.8618 31.9956 26.6081C31.9041 24.5484 31.9041 22.3991 31.9041 20.2498Z" fill="#FF5900" stroke="#FF5900"/>
</svg>
