<svg width="33" height="38" viewBox="0 0 33 38" fill="none" xmlns="http://www.w3.org/2000/svg">
<ellipse cx="16.6211" cy="2.5232" rx="1.66015" ry="1.52222" stroke="#FF5900"/>
<path d="M12.6172 10.2238V5.65714C12.6172 5.11989 13.1055 4.76172 13.5937 4.76172H16.5234H19.4531C20.039 4.76172 20.4297 5.20943 20.4297 5.65714V10.4924" stroke="#FF5900"/>
<path d="M16.5156 8.88067V4.76172" stroke="#FF5900"/>
<path d="M14.3828 7.89551V17.4766" stroke="#FF5900"/>
<path d="M18.6641 7.89551V17.4766" stroke="#FF5900"/>
<path d="M14.3672 10.5819H18.3711" stroke="#FF5900"/>
<path d="M16.625 10.7627V17.4784" stroke="#FF5900"/>
<path fill-rule="evenodd" clip-rule="evenodd" d="M7.54687 22.6667C6.47265 22.6667 5.59375 21.8608 5.59375 20.8758C5.59375 19.8908 6.47265 19.085 7.54687 19.085C8.62109 19.085 9.49999 19.8908 9.49999 20.8758C9.40233 21.8608 8.62109 22.6667 7.54687 22.6667ZM7.55468 19.6222C6.77344 19.6222 6.1875 20.1595 6.1875 20.8758C6.1875 21.5922 6.77344 22.1294 7.55468 22.1294C8.33593 22.1294 8.92187 21.5922 8.92187 20.8758C8.92187 20.249 8.23828 19.6222 7.55468 19.6222Z" fill="#2C007D"/>
<path fill-rule="evenodd" clip-rule="evenodd" d="M5.39452 36.9991H4.80858V26.4331L1.68359 23.4782C0.609376 22.3141 1.09766 20.3442 1.19531 20.2546L2.75781 17.5684L3.34374 17.7474L1.78125 20.4337C1.78125 20.4337 1.29297 22.135 2.17187 23.12L5.49217 26.254V36.9991H5.39452Z" fill="#2C007D" stroke="#2C007D" stroke-width="0.5"/>
<path fill-rule="evenodd" clip-rule="evenodd" d="M8.71888 24.1935H5.69155C5.30092 24.1935 4.9103 24.1039 4.51968 23.8353L3.25015 22.9399C2.37125 22.3131 2.07828 21.149 2.66421 20.2536L4.0314 17.8359H4.71499L3.15249 20.5222C2.76187 21.2386 2.95718 22.134 3.54311 22.5817L4.61733 23.3876C4.9103 23.6562 5.30092 23.7457 5.7892 23.7457H8.42591C8.81654 23.7457 9.20716 23.6562 9.59778 23.3876L11.4532 22.0444C11.5509 21.7758 11.7462 21.0595 11.4532 20.6118L9.98841 17.9255L10.5743 17.8359L11.9415 20.3431C12.3322 21.149 11.9415 22.2235 11.9415 22.2235V22.3131L9.7931 23.9248C9.50013 24.1039 9.10951 24.1935 8.71888 24.1935Z" fill="#2C007D" stroke="#2C007D" stroke-width="0.5"/>
<rect x="7.05469" y="24.0137" width="0.585935" height="3.85033" fill="#2C007D" stroke="#2C007D" stroke-width="0.5"/>
<path fill-rule="evenodd" clip-rule="evenodd" d="M10.1797 36.9984H9.59375V25.8056L9.69141 25.7161C9.69141 25.7161 11.4492 24.1043 12.5234 22.9402C13.5 21.8657 13.1094 20.6121 13.0117 20.5226L11.6445 17.7468L12.3281 17.6572L13.5 20.254C13.5 20.3435 14.0859 21.8657 12.9141 23.2089C11.9375 24.1938 10.4727 25.6265 10.082 25.8951V36.9984H10.1797Z" fill="#2C007D" stroke="#2C007D" stroke-width="0.5"/>
<rect x="5.20312" y="29.6514" width="4.68749" height="0.537255" fill="#2C007D" stroke="#2C007D" stroke-width="0.5"/>
<rect x="7.14062" y="29.834" width="0.585936" height="6.98432" fill="#2C007D" stroke="#2C007D" stroke-width="0.5"/>
<path fill-rule="evenodd" clip-rule="evenodd" d="M25.7812 22.6696C24.707 22.6696 23.8281 21.8637 23.8281 20.8787C23.8281 19.8938 24.707 19.0879 25.7812 19.0879C26.8555 19.0879 27.7344 19.8938 27.7344 20.8787C27.7344 21.8637 26.8555 22.6696 25.7812 22.6696ZM25.7891 19.6251C25.0078 19.6251 24.4219 20.1623 24.4219 20.8787C24.4219 21.595 25.0078 22.1323 25.7891 22.1323C26.5703 22.1323 27.1562 21.595 27.1562 20.8787C27.1562 20.2519 26.5703 19.6251 25.7891 19.6251Z" fill="#2C007D"/>
<path fill-rule="evenodd" clip-rule="evenodd" d="M23.7578 36.9984H23.1719V26.4324L19.9492 23.4775C19.2656 22.7612 19.2656 21.7762 19.2656 21.1494C19.2656 20.7017 19.4609 20.254 19.7539 19.8062L21.0234 17.6572L21.6094 17.8363L20.0469 20.5226C20.0469 20.5226 19.5586 22.2239 20.4375 23.2089L23.7578 26.3429V36.9984H23.7578Z" fill="#2C007D" stroke="#2C007D" stroke-width="0.5"/>
<path fill-rule="evenodd" clip-rule="evenodd" d="M26.9572 24.1935H24.0275C23.5392 24.1935 23.1486 24.0144 22.758 23.8353L21.5861 22.9399C20.7072 22.3131 20.4142 21.149 21.0002 20.2536L22.3673 17.8359H23.0509L21.4884 20.4327C21.0978 21.149 21.2931 22.0444 21.8791 22.4921L22.9533 23.298C23.3439 23.5667 23.7345 23.6562 24.2228 23.6562H26.7619C27.2501 23.6562 27.6408 23.4771 28.0314 23.298L29.8868 21.9549C29.9845 21.6863 30.1798 20.9699 29.8868 20.5222L28.422 17.9255H29.1056L30.4728 20.3431C30.8634 21.149 30.4728 22.2235 30.4728 22.2235V22.3131L28.3243 23.8353C27.8361 24.1039 27.3478 24.1935 26.9572 24.1935Z" fill="#2C007D" stroke="#2C007D" stroke-width="0.5"/>
<rect x="25.3125" y="24.0146" width="0.585936" height="3.85033" fill="#2C007D" stroke="#2C007D" stroke-width="0.5"/>
<path fill-rule="evenodd" clip-rule="evenodd" d="M28.4375 37.0016H27.8516V25.8088L27.9492 25.7193C27.9492 25.7193 29.707 24.1075 30.7812 22.9435C31.7578 21.869 31.2695 20.5258 31.2695 20.5258L29.9023 17.75L30.5859 17.8395L31.8555 20.4363C31.8555 20.5258 32.4414 22.048 31.2695 23.3912C30.293 24.3761 28.8281 25.8088 28.4375 26.0775V37.0016Z" fill="#2C007D" stroke="#2C007D" stroke-width="0.5"/>
<rect x="23.4688" y="29.6562" width="4.68749" height="0.537255" fill="#2C007D" stroke="#2C007D" stroke-width="0.5"/>
<rect x="25.4062" y="29.834" width="0.585936" height="6.98432" fill="#2C007D" stroke="#2C007D" stroke-width="0.5"/>
<path d="M2.55469 17.7441H30.6796" stroke="#FF5900"/>
<rect x="3.74219" y="16.1328" width="3.71093" height="1.61177" stroke="#FF5900"/>
<rect x="7.45312" y="16.1328" width="3.71093" height="1.61177" stroke="#FF5900"/>
<rect x="5.39062" y="14.5215" width="3.71093" height="1.61177" stroke="#FF5900"/>
<rect x="22.1953" y="16.1328" width="3.71093" height="1.61177" stroke="#FF5900"/>
<rect x="25.8125" y="16.1328" width="3.71093" height="1.61177" stroke="#FF5900"/>
<rect x="23.8438" y="14.5215" width="3.71093" height="1.61177" stroke="#FF5900"/>
<rect x="12.7266" y="35.2949" width="3.71093" height="1.61177" stroke="#FF5900"/>
<rect x="16.4375" y="35.2949" width="3.71093" height="1.61177" stroke="#FF5900"/>
<rect x="14.375" y="33.6836" width="3.71093" height="1.61177" stroke="#FF5900"/>
</svg>
