<svg width="30" height="38" viewBox="0 0 30 38" fill="none" xmlns="http://www.w3.org/2000/svg">
<path fill-rule="evenodd" clip-rule="evenodd" d="M9.05 1H7.125C6.95 1 6.8625 1.07676 6.8625 1.23029L6.425 2.53526C6.1625 2.61202 5.8125 2.68879 5.55 2.84231L4.15 2.15145C4.0625 2.07468 3.8875 2.15145 3.8 2.22821L2.4875 3.37966C2.4 3.45642 2.4 3.60994 2.4 3.68671L3.1875 4.91492C3.0125 5.14521 2.925 5.45226 2.75 5.75931L1.2625 6.14313C1.175 6.14313 1 6.29665 1 6.37342V8.0622C1 8.21573 1.0875 8.29249 1.2625 8.29249L2.75 8.67631C2.8375 8.98336 3.0125 9.21365 3.1 9.5207L2.3125 10.7489C2.225 10.8257 2.225 10.9792 2.4 11.056L3.7125 12.2074C3.8 12.2842 3.975 12.2842 4.0625 12.2842L5.4625 11.5933C5.725 11.7468 6.075 11.8236 6.425 11.9004L6.8625 13.2053C6.8625 13.2821 7.0375 13.4356 7.125 13.4356H9.05C9.225 13.4356 9.3125 13.3589 9.3125 13.2053L9.75 11.9004C10.1 11.8236 10.3625 11.6701 10.7125 11.5933L12.1125 12.2842C12.2 12.3609 12.375 12.3609 12.4625 12.2074L13.775 11.056C13.8625 10.9792 13.8625 10.8257 13.8625 10.7489L13.075 9.5207C13.25 9.29041 13.3375 8.98336 13.425 8.67631L14.9125 8.29249C15 8.29249 15.175 8.13897 15.175 8.0622V6.37342C15.175 6.21989 15.0875 6.14313 14.9125 6.14313L13.425 5.75931C13.3375 5.45226 13.1625 5.22197 12.9875 4.91492L13.775 3.68671C13.8625 3.60994 13.8625 3.45642 13.6875 3.37966L12.375 2.22821C12.2875 2.15145 12.1125 2.15145 12.025 2.15145L10.7125 2.84231C10.45 2.68879 10.1 2.61202 9.75 2.4585L9.3125 1.15353C9.3125 1.15353 9.225 1 9.05 1ZM8.87363 1.53711L9.31113 2.76532C9.31113 2.84208 9.39863 2.91884 9.57363 2.91884C10.0111 2.99561 10.3611 3.14913 10.7111 3.30266C10.7986 3.37942 10.8861 3.37942 10.9736 3.30266L12.2861 2.68855L13.2486 3.60971L12.5486 4.76116C12.4611 4.83792 12.4611 4.91468 12.5486 5.06821C12.7236 5.37526 12.8986 5.68231 12.9861 6.06613C12.9861 6.14289 13.0736 6.21966 13.1611 6.21966L14.5611 6.60347V7.83168L13.1611 8.2155C13.0736 8.2155 12.9861 8.29226 12.9861 8.36902C12.8986 8.75284 12.7236 9.05989 12.5486 9.36694C12.4611 9.4437 12.4611 9.52047 12.5486 9.59723L13.2486 10.7487L12.2861 11.5931L10.9736 10.979C10.8861 10.9022 10.7986 10.9022 10.7111 10.979C10.3611 11.1325 10.0111 11.286 9.57363 11.3628C9.48613 11.3628 9.39863 11.4395 9.31113 11.5163L8.87363 12.7445H7.47363L7.03613 11.5931C7.03613 11.5163 6.94863 11.4395 6.77363 11.4395C6.33613 11.3628 5.98613 11.2093 5.63613 11.0557C5.54863 10.979 5.46113 10.979 5.37363 11.0557L4.06113 11.6698L3.09863 10.8254L3.79863 9.67399C3.88613 9.59723 3.88613 9.52047 3.79863 9.4437C3.62363 9.13665 3.44863 8.8296 3.36113 8.44578C3.36113 8.36902 3.27363 8.29226 3.18613 8.29226L1.78613 7.90844V6.68023L3.18613 6.29642C3.27363 6.29642 3.36113 6.21965 3.36113 6.14289C3.44863 5.75908 3.62363 5.45202 3.79863 5.14497C3.88613 5.06821 3.88613 4.99144 3.79863 4.83792L3.09863 3.60971L4.14863 2.68856L5.46113 3.30266C5.54863 3.37942 5.63613 3.37942 5.72363 3.30266C6.07363 3.14913 6.42363 2.99561 6.86113 2.91884C6.94863 2.91884 7.03613 2.84208 7.03613 2.76532L7.47363 1.53711H8.87363ZM5.72363 7.21773C5.72363 8.36917 6.86113 9.36709 8.17363 9.36709C9.48613 9.36709 10.6236 8.36917 10.6236 7.21773C10.6236 6.06628 9.48613 5.06836 8.17363 5.06836C6.86113 5.06836 5.72363 5.98952 5.72363 7.21773ZM10.0139 7.21749C10.0139 8.13865 9.22637 8.82952 8.17637 8.82952C7.12637 8.82952 6.33887 8.13865 6.33887 7.21749C6.33887 6.29634 7.12637 5.60547 8.17637 5.60547C9.22637 5.60547 10.0139 6.29634 10.0139 7.21749ZM21.5652 10.7494H19.3777C19.2027 10.7494 19.1152 10.8262 19.1152 10.9797L18.5902 12.5918C18.1527 12.6685 17.8027 12.822 17.4527 12.9756L15.7902 12.2079C15.7027 12.1312 15.5277 12.2079 15.4402 12.2847L13.8652 13.6664C13.7777 13.7432 13.7777 13.8967 13.7777 13.9735L14.6527 15.432C14.4777 15.739 14.3027 16.1229 14.2152 16.4299L12.3777 16.8905C12.2902 16.8905 12.1152 17.044 12.1152 17.1208V18.9631C12.1152 19.1166 12.2027 19.1934 12.3777 19.1934L14.2152 19.654C14.3027 20.0378 14.4777 20.3448 14.7402 20.6519L13.8652 22.1104C13.7777 22.1871 13.7777 22.3407 13.9527 22.4174L15.5277 23.7992C15.6152 23.8759 15.7902 23.8759 15.8777 23.8759L17.5402 23.1083C17.8902 23.2618 18.3277 23.4153 18.6777 23.4921L19.2027 25.1041C19.2027 25.1809 19.3777 25.3344 19.4652 25.3344H21.6527C21.8277 25.3344 21.9152 25.2577 21.9152 25.1041L22.4402 23.4921C22.8777 23.4153 23.2277 23.2618 23.5777 23.1083L25.2402 23.8759C25.3277 23.9527 25.5027 23.9527 25.5902 23.7992L27.1652 22.4174C27.2527 22.3407 27.2527 22.1871 27.2527 22.1104L26.3777 20.6519C26.5527 20.3448 26.7277 19.961 26.9027 19.654L28.7402 19.1934C28.8277 19.1934 29.0027 19.0399 29.0027 18.9631V16.9672C29.0027 16.8137 28.9152 16.737 28.7402 16.737L26.9027 16.2764C26.8152 15.8926 26.6402 15.5855 26.4652 15.2785L27.3402 13.82C27.4277 13.7432 27.4277 13.5897 27.2527 13.5129L25.6777 12.1312C25.4152 12.0544 25.3277 12.0544 25.1527 12.1312L23.4902 12.8988C23.1402 12.7453 22.7027 12.5918 22.3527 12.515L21.8277 10.903C21.8277 10.8262 21.7402 10.6727 21.5652 10.7494ZM21.3014 11.2871L21.7389 12.8224C21.7389 12.8991 21.8264 12.9759 21.9139 12.9759C22.3514 13.1294 22.8764 13.2829 23.3139 13.4365C23.4014 13.5132 23.4889 13.5132 23.5764 13.4365L25.1514 12.6688L26.3764 13.7435L25.5014 15.1253C25.4139 15.202 25.4139 15.2788 25.5014 15.3556C25.7639 15.7394 25.9389 16.1232 26.0264 16.507C26.0264 16.5838 26.1139 16.6605 26.2014 16.6605L27.9514 17.1211V18.6564L26.2014 19.1169C26.1139 19.1169 26.0264 19.1937 26.0264 19.2705C25.8514 19.6543 25.6764 20.1149 25.5014 20.4219C25.4139 20.4987 25.4139 20.5754 25.5014 20.729L26.3764 22.1107L25.1514 23.1854L23.5764 22.4178C23.4889 22.341 23.4014 22.341 23.3139 22.4178C22.8764 22.648 22.4389 22.8016 21.9139 22.8783C21.8264 22.8783 21.7389 22.9551 21.7389 23.0319L21.2139 24.5671H19.4639L18.9389 23.0319C18.9389 22.9551 18.8514 22.8783 18.7639 22.8783C18.4139 22.9551 17.8889 22.8016 17.5389 22.5713C17.4514 22.4945 17.3639 22.4945 17.2764 22.5713L15.7014 23.3389L14.4764 22.2642L15.3514 20.8825C15.4389 20.8057 15.4389 20.729 15.3514 20.5754C15.0889 20.1916 14.9139 19.8078 14.8264 19.424C14.8264 19.3472 14.7389 19.2705 14.6514 19.2705L12.9014 18.8099V17.2746L14.6514 16.8141C14.7389 16.8141 14.8264 16.7373 14.8264 16.6605C15.0014 16.2767 15.1764 15.8161 15.3514 15.5091C15.4389 15.4323 15.4389 15.3556 15.3514 15.2788L14.4764 13.8971L15.7014 12.8224L17.2764 13.59C17.3639 13.6668 17.4514 13.6668 17.5389 13.59C17.9764 13.3597 18.4139 13.2062 18.9389 13.1294C19.0264 13.1294 19.1139 13.0527 19.1139 12.9759L19.5514 11.4406L21.3014 11.2871ZM17.3652 17.9641C17.3652 19.4225 18.7652 20.6508 20.4277 20.6508C22.0902 20.6508 23.4902 19.4225 23.4902 17.9641C23.4902 16.5056 22.0902 15.2773 20.4277 15.2773C18.7652 15.2773 17.3652 16.5056 17.3652 17.9641ZM22.8736 17.9638C22.8736 19.192 21.7361 20.1132 20.4236 20.1132C19.0236 20.1132 17.9736 19.1153 17.9736 17.9638C17.9736 16.7356 19.1111 15.8145 20.4236 15.8145C21.8236 15.8145 22.8736 16.8124 22.8736 17.9638Z" fill="#FF5900"/>
<path d="M6.8625 1.23029L7.33657 1.38922L7.3625 1.31187V1.23029H6.8625ZM6.425 2.53526L6.56534 3.01516L6.81604 2.94185L6.89907 2.6942L6.425 2.53526ZM5.55 2.84231L5.32874 3.29069L5.5701 3.4098L5.80243 3.27392L5.55 2.84231ZM4.15 2.15145L3.82026 2.52731L3.86973 2.5707L3.92874 2.59982L4.15 2.15145ZM3.8 2.22821L4.12974 2.60407L4.12974 2.60407L3.8 2.22821ZM2.4875 3.37966L2.81724 3.75552L2.81724 3.75552L2.4875 3.37966ZM2.4 3.68671H1.9V3.83324L1.97909 3.95659L2.4 3.68671ZM3.1875 4.91492L3.5856 5.21744L3.79703 4.93921L3.60841 4.64504L3.1875 4.91492ZM2.75 5.75931L2.87492 6.24345L3.07969 6.19062L3.1844 6.00689L2.75 5.75931ZM1.2625 6.14313V6.64313H1.32597L1.38742 6.62727L1.2625 6.14313ZM1.2625 8.29249L1.38742 7.80835L1.32597 7.79249H1.2625V8.29249ZM2.75 8.67631L3.23086 8.53928L3.15234 8.26375L2.87492 8.19216L2.75 8.67631ZM3.1 9.5207L3.52091 9.79058L3.64269 9.60065L3.58086 9.38367L3.1 9.5207ZM2.3125 10.7489L2.64224 11.1248L2.69531 11.0782L2.73341 11.0188L2.3125 10.7489ZM2.4 11.056L2.72974 10.6801L2.67164 10.6291L2.60085 10.5981L2.4 11.056ZM3.7125 12.2074L3.38276 12.5833L3.38276 12.5833L3.7125 12.2074ZM4.0625 12.2842V12.7842H4.17915L4.28376 12.7325L4.0625 12.2842ZM5.4625 11.5933L5.71493 11.1617L5.4826 11.0258L5.24124 11.1449L5.4625 11.5933ZM6.425 11.9004L6.89907 11.7414L6.80897 11.4727L6.53212 11.412L6.425 11.9004ZM6.8625 13.2053H7.3625V13.1237L7.33657 13.0464L6.8625 13.2053ZM9.3125 13.2053L8.83843 13.0464L8.8125 13.1237V13.2053H9.3125ZM9.75 11.9004L9.64288 11.412L9.36603 11.4727L9.27593 11.7414L9.75 11.9004ZM10.7125 11.5933L10.9338 11.1449L10.7766 11.0674L10.6054 11.1049L10.7125 11.5933ZM12.1125 12.2842L12.4422 11.9083L12.3928 11.8649L12.3338 11.8358L12.1125 12.2842ZM12.4625 12.2074L12.1328 11.8315L12.0697 11.8869L12.0281 11.9598L12.4625 12.2074ZM13.775 11.056L14.1047 11.4318L14.1047 11.4318L13.775 11.056ZM13.8625 10.7489H14.3625V10.6024L14.2834 10.479L13.8625 10.7489ZM13.075 9.5207L12.6769 9.21818L12.4655 9.49641L12.6541 9.79058L13.075 9.5207ZM13.425 8.67631L13.3001 8.19216L13.0227 8.26374L12.9441 8.53928L13.425 8.67631ZM14.9125 8.29249V7.79249H14.849L14.7876 7.80835L14.9125 8.29249ZM14.9125 6.14313L14.7876 6.62727L14.849 6.64313H14.9125V6.14313ZM13.425 5.75931L12.9441 5.89634L13.0227 6.17187L13.3001 6.24345L13.425 5.75931ZM12.9875 4.91492L12.5666 4.64504L12.4033 4.89969L12.5531 5.1625L12.9875 4.91492ZM13.775 3.68671L13.4453 3.31085L13.3922 3.3574L13.3541 3.41683L13.775 3.68671ZM13.6875 3.37966L13.3578 3.75552L13.4159 3.80649L13.4867 3.83754L13.6875 3.37966ZM12.375 2.22821L12.7047 1.85235L12.7047 1.85235L12.375 2.22821ZM12.025 2.15145V1.65145H11.9014L11.7921 1.709L12.025 2.15145ZM10.7125 2.84231L10.4601 3.27392L10.6997 3.41408L10.9454 3.28476L10.7125 2.84231ZM9.75 2.4585L9.27594 2.61743L9.34633 2.82742L9.54915 2.91638L9.75 2.4585ZM9.3125 1.15353L9.78657 0.994592L9.77106 0.948334L9.7469 0.905947L9.3125 1.15353ZM9.31113 2.76532H9.81113V2.67892L9.78214 2.59754L9.31113 2.76532ZM9.57363 2.91884L9.66004 2.42637L9.61716 2.41884H9.57363V2.91884ZM10.7111 3.30266L11.0409 2.9268L10.9828 2.87582L10.912 2.84477L10.7111 3.30266ZM10.9736 3.30266L10.7617 2.84978L10.6973 2.87991L10.6439 2.9268L10.9736 3.30266ZM12.2861 2.68855L12.6318 2.32733L12.3844 2.09054L12.0742 2.23568L12.2861 2.68855ZM13.2486 3.60971L13.6759 3.86945L13.8845 3.52622L13.5943 3.24849L13.2486 3.60971ZM12.5486 4.76116L12.8784 5.13702L12.936 5.08643L12.9759 5.02089L12.5486 4.76116ZM12.5486 5.06821L12.983 4.82063V4.82063L12.5486 5.06821ZM12.9861 6.06613H13.4861V6.00986L13.4736 5.95499L12.9861 6.06613ZM13.1611 6.21966L13.2933 5.73745L13.2284 5.71966H13.1611V6.21966ZM14.5611 6.60347H15.0611V6.2221L14.6933 6.12126L14.5611 6.60347ZM14.5611 7.83168L14.6933 8.31389L15.0611 8.21305V7.83168H14.5611ZM13.1611 8.2155V8.7155H13.2284L13.2933 8.6977L13.1611 8.2155ZM12.9861 8.36902L13.4736 8.48016L13.4861 8.42529V8.36902H12.9861ZM12.5486 9.36694L12.8784 9.7428L12.9415 9.68745L12.983 9.61452L12.5486 9.36694ZM12.5486 9.59723L12.9759 9.33749L12.936 9.27195L12.8784 9.22137L12.5486 9.59723ZM13.2486 10.7487L13.5784 11.1245L13.894 10.8477L13.6759 10.4889L13.2486 10.7487ZM12.2861 11.5931L12.0742 12.0459L12.3702 12.1844L12.6159 11.9689L12.2861 11.5931ZM10.9736 10.979L10.6439 11.3548L10.6973 11.4017L10.7617 11.4318L10.9736 10.979ZM10.7111 10.979L10.912 11.4369L10.9828 11.4058L11.0409 11.3548L10.7111 10.979ZM9.57363 11.3628V11.8628H9.61716L9.66004 11.8553L9.57363 11.3628ZM9.31113 11.5163L8.98139 11.1405L8.88372 11.2261L8.84012 11.3485L9.31113 11.5163ZM8.87363 12.7445V13.2445H9.2263L9.34464 12.9123L8.87363 12.7445ZM7.47363 12.7445L7.00623 12.9221L7.12873 13.2445H7.47363V12.7445ZM7.03613 11.5931H6.53613V11.6849L6.56873 11.7707L7.03613 11.5931ZM6.77363 11.4395L6.68722 11.932L6.7301 11.9395H6.77363V11.4395ZM5.63613 11.0557L5.30639 11.4316L5.3645 11.4826L5.43528 11.5136L5.63613 11.0557ZM5.37363 11.0557L5.58553 11.5086L5.64993 11.4785L5.70338 11.4316L5.37363 11.0557ZM4.06113 11.6698L3.73139 12.0457L3.97704 12.2612L4.27303 12.1227L4.06113 11.6698ZM3.09863 10.8254L2.67139 10.5657L2.4533 10.9244L2.76889 11.2013L3.09863 10.8254ZM3.79863 9.67399L3.46889 9.29813L3.41123 9.34871L3.37139 9.41426L3.79863 9.67399ZM3.79863 9.4437L3.36423 9.69128L3.40579 9.76421L3.46889 9.81956L3.79863 9.4437ZM3.36113 8.44578H2.86113V8.50205L2.87364 8.55692L3.36113 8.44578ZM3.18613 8.29226L3.05393 8.77446L3.11884 8.79226H3.18613V8.29226ZM1.78613 7.90844H1.28613V8.28981L1.65393 8.39065L1.78613 7.90844ZM1.78613 6.68023L1.65393 6.19802L1.28613 6.29886V6.68023H1.78613ZM3.18613 6.29642V5.79642H3.11884L3.05393 5.81421L3.18613 6.29642ZM3.36113 6.14289L2.87364 6.03175L2.86113 6.08662V6.14289H3.36113ZM3.79863 5.14497L3.46889 4.76911L3.40579 4.82447L3.36423 4.89739L3.79863 5.14497ZM3.79863 4.83792L4.23303 4.59034L4.23303 4.59034L3.79863 4.83792ZM3.09863 3.60971L2.76889 3.23385L2.46224 3.50288L2.66423 3.85729L3.09863 3.60971ZM4.14863 2.68856L4.36053 2.23568L4.06454 2.09719L3.81889 2.31269L4.14863 2.68856ZM5.46113 3.30266L5.79087 2.9268L5.73742 2.87991L5.67303 2.84978L5.46113 3.30266ZM5.72363 3.30266L5.52278 2.84477L5.45199 2.87582L5.39389 2.9268L5.72363 3.30266ZM6.86113 2.91884L6.86113 2.41884L6.8176 2.41884L6.77472 2.42637L6.86113 2.91884ZM7.03613 2.76532L6.56512 2.59754L6.53613 2.67892V2.76532H7.03613ZM7.47363 1.53711V1.03711H7.12096L7.00262 1.36933L7.47363 1.53711ZM19.1152 10.9797L19.5907 11.1346L19.6152 11.0591V10.9797H19.1152ZM18.5902 12.5918L18.6766 13.0842L18.9726 13.0323L19.0657 12.7466L18.5902 12.5918ZM17.4527 12.9756L17.2431 13.4295L17.4475 13.5239L17.6536 13.4335L17.4527 12.9756ZM15.7902 12.2079L15.4605 12.5838L15.5149 12.6315L15.5806 12.6619L15.7902 12.2079ZM15.4402 12.2847L15.1105 11.9088L15.4402 12.2847ZM13.8652 13.6664L14.195 14.0423L13.8652 13.6664ZM13.7777 13.9735H13.2777V14.112L13.349 14.2307L13.7777 13.9735ZM14.6527 15.432L15.0871 15.6796L15.2319 15.4255L15.0815 15.1748L14.6527 15.432ZM14.2152 16.4299L14.3368 16.9149L14.6169 16.8447L14.6961 16.5669L14.2152 16.4299ZM12.3777 16.8905V17.3905H12.4394L12.4993 17.3755L12.3777 16.8905ZM12.3777 19.1934L12.4993 18.7084L12.4394 18.6934H12.3777V19.1934ZM14.2152 19.654L14.7027 19.5428L14.6345 19.2436L14.3368 19.169L14.2152 19.654ZM14.7402 20.6519L15.169 20.9091L15.3541 20.6005L15.1203 20.327L14.7402 20.6519ZM13.8652 22.1104L14.195 22.4862L14.2538 22.4347L14.294 22.3676L13.8652 22.1104ZM13.9527 22.4174L14.2825 22.0416L14.2244 21.9906L14.1536 21.9595L13.9527 22.4174ZM15.5277 23.7992L15.198 24.175L15.198 24.175L15.5277 23.7992ZM15.8777 23.8759V24.3759H15.9876L16.0873 24.3299L15.8777 23.8759ZM17.5402 23.1083L17.7411 22.6504L17.535 22.56L17.3306 22.6543L17.5402 23.1083ZM18.6777 23.4921L19.1532 23.3373L19.0645 23.065L18.7848 23.0037L18.6777 23.4921ZM19.2027 25.1041H19.7027V25.0248L19.6782 24.9493L19.2027 25.1041ZM21.9152 25.1041L21.4398 24.9493L21.4152 25.0248V25.1041H21.9152ZM22.4402 23.4921L22.3538 22.9996L22.0579 23.0516L21.9648 23.3373L22.4402 23.4921ZM23.5777 23.1083L23.7873 22.6543L23.583 22.56L23.3769 22.6504L23.5777 23.1083ZM25.2402 23.8759L25.57 23.5001L25.5156 23.4523L25.4498 23.422L25.2402 23.8759ZM25.5902 23.7992L25.2605 23.4233L25.1974 23.4787L25.1558 23.5516L25.5902 23.7992ZM27.1652 22.4174L27.495 22.7933L27.495 22.7933L27.1652 22.4174ZM27.2527 22.1104H27.7527V21.9719L27.6815 21.8531L27.2527 22.1104ZM26.3777 20.6519L25.9433 20.4043L25.7985 20.6583L25.949 20.9091L26.3777 20.6519ZM26.9027 19.654L26.7812 19.169L26.5741 19.2209L26.4683 19.4064L26.9027 19.654ZM28.7402 19.1934V18.6934H28.6785L28.6187 18.7084L28.7402 19.1934ZM28.7402 16.737L28.6187 17.222L28.6785 17.237H28.7402V16.737ZM26.9027 16.2764L26.4152 16.3875L26.4835 16.6868L26.7812 16.7614L26.9027 16.2764ZM26.4652 15.2785L26.0365 15.0212L25.886 15.272L26.0308 15.526L26.4652 15.2785ZM27.3402 13.82L27.0105 13.4441L26.9517 13.4957L26.9115 13.5627L27.3402 13.82ZM27.2527 13.5129L26.923 13.8888L26.9811 13.9397L27.0519 13.9708L27.2527 13.5129ZM25.6777 12.1312L26.0075 11.7553L25.9243 11.6823L25.8181 11.6513L25.6777 12.1312ZM25.1527 12.1312L24.9519 11.6732L24.9431 11.6772L25.1527 12.1312ZM23.4902 12.8988L23.2894 13.3567L23.4955 13.4471L23.6998 13.3527L23.4902 12.8988ZM22.3527 12.515L21.8773 12.6698L21.966 12.942L22.2456 13.0034L22.3527 12.515ZM21.8277 10.903H21.3277V10.9823L21.3523 11.0578L21.8277 10.903ZM21.7389 12.8224H22.2389V12.7525L22.2197 12.6853L21.7389 12.8224ZM21.9139 12.9759L22.0794 12.5041L21.999 12.4759H21.9139V12.9759ZM23.3139 13.4365L23.6436 13.0606L23.5708 12.9967L23.4794 12.9647L23.3139 13.4365ZM23.5764 13.4365L23.3573 12.987L23.297 13.0164L23.2466 13.0606L23.5764 13.4365ZM25.1514 12.6688L25.4811 12.293L25.2312 12.0737L24.9323 12.2194L25.1514 12.6688ZM26.3764 13.7435L26.7988 14.011L27.0276 13.6497L26.7061 13.3677L26.3764 13.7435ZM25.5014 15.1253L25.8311 15.5011L25.8852 15.4536L25.9238 15.3928L25.5014 15.1253ZM25.5014 15.3556L25.9141 15.0733L25.8785 15.0213L25.8311 14.9797L25.5014 15.3556ZM26.0264 16.507H26.5264V16.4507L26.5139 16.3959L26.0264 16.507ZM26.2014 16.6605L26.3286 16.177L26.2661 16.1605H26.2014V16.6605ZM27.9514 17.1211H28.4514V16.7357L28.0786 16.6376L27.9514 17.1211ZM27.9514 18.6564L28.0786 19.1399L28.4514 19.0418V18.6564H27.9514ZM26.2014 19.1169V19.6169H26.2661L26.3286 19.6005L26.2014 19.1169ZM26.0264 19.2705L26.4813 19.4779L26.5264 19.3791V19.2705H26.0264ZM25.5014 20.4219L25.8311 20.7978L25.8942 20.7424L25.9358 20.6695L25.5014 20.4219ZM25.5014 20.729L25.067 20.9765L25.0727 20.9867L25.0789 20.9965L25.5014 20.729ZM26.3764 22.1107L26.7061 22.4866L27.0276 22.2045L26.7988 21.8432L26.3764 22.1107ZM25.1514 23.1854L24.9323 23.6348L25.2312 23.7805L25.4811 23.5612L25.1514 23.1854ZM23.5764 22.4178L23.2466 22.7936L23.297 22.8378L23.3573 22.8672L23.5764 22.4178ZM23.3139 22.4178L23.5468 22.8602L23.5991 22.8326L23.6436 22.7936L23.3139 22.4178ZM21.9139 22.8783V23.3783H21.9502L21.9862 23.3731L21.9139 22.8783ZM21.7389 23.0319L22.212 23.1936L22.2389 23.115V23.0319H21.7389ZM21.2139 24.5671V25.0671H21.5713L21.687 24.7289L21.2139 24.5671ZM19.4639 24.5671L18.9908 24.7289L19.1064 25.0671H19.4639V24.5671ZM18.9389 23.0319H18.4389V23.115L18.4658 23.1936L18.9389 23.0319ZM18.7639 22.8783V22.3783H18.7097L18.6567 22.3899L18.7639 22.8783ZM17.5389 22.5713L17.2091 22.9471L17.2351 22.97L17.264 22.989L17.5389 22.5713ZM17.2764 22.5713L17.4954 23.0207L17.5557 22.9914L17.6061 22.9471L17.2764 22.5713ZM15.7014 23.3389L15.3716 23.7148L15.6216 23.934L15.9204 23.7884L15.7014 23.3389ZM14.4764 22.2642L14.0539 21.9967L13.8251 22.358L14.1466 22.6401L14.4764 22.2642ZM15.3514 20.8825L15.0216 20.5066L14.9675 20.5541L14.9289 20.615L15.3514 20.8825ZM15.3514 20.5754L15.7858 20.3279L15.7756 20.3101L15.7641 20.2932L15.3514 20.5754ZM14.8264 19.424H14.3264V19.4803L14.3389 19.5351L14.8264 19.424ZM14.6514 19.2705L14.5241 19.754L14.5867 19.7705H14.6514V19.2705ZM12.9014 18.8099H12.4014V19.1953L12.7741 19.2934L12.9014 18.8099ZM12.9014 17.2746L12.7741 16.7911L12.4014 16.8892V17.2746H12.9014ZM14.6514 16.8141V16.3141H14.5867L14.5241 16.3305L14.6514 16.8141ZM14.8264 16.6605L14.3714 16.4531L14.3264 16.5519V16.6605H14.8264ZM15.3514 15.5091L15.0216 15.1332L14.9585 15.1886L14.917 15.2615L15.3514 15.5091ZM15.3514 15.2788L14.9289 15.5463L14.9675 15.6072L15.0216 15.6547L15.3514 15.2788ZM14.4764 13.8971L14.1466 13.5212L13.8251 13.8032L14.0539 14.1646L14.4764 13.8971ZM15.7014 12.8224L15.9204 12.3729L15.6216 12.2273L15.3716 12.4465L15.7014 12.8224ZM17.2764 13.59L17.6061 13.2141L17.5557 13.1699L17.4954 13.1405L17.2764 13.59ZM17.5389 13.59L17.306 13.1476L17.2536 13.1751L17.2091 13.2141L17.5389 13.59ZM18.9389 13.1294V12.6294H18.9025L18.8665 12.6347L18.9389 13.1294ZM19.1139 12.9759L18.633 12.8389L18.6139 12.906V12.9759H19.1139ZM19.5514 11.4406L19.5077 10.9425L19.1648 10.9726L19.0705 11.3036L19.5514 11.4406ZM20.4236 15.8145V16.3145V15.8145ZM9.05 0.5H7.125V1.5H9.05V0.5ZM7.125 0.5C6.97534 0.5 6.76971 0.531407 6.59838 0.681712C6.41456 0.842981 6.3625 1.05821 6.3625 1.23029H7.3625C7.3625 1.24884 7.35419 1.34893 7.25787 1.43343C7.17404 1.50697 7.09966 1.5 7.125 1.5V0.5ZM6.38843 1.07136L5.95093 2.37633L6.89907 2.6942L7.33657 1.38922L6.38843 1.07136ZM6.28466 2.05536C6.0773 2.116 5.62997 2.21631 5.29757 2.41071L5.80243 3.27392C5.99503 3.16127 6.2477 3.10805 6.56534 3.01516L6.28466 2.05536ZM5.77126 2.39394L4.37126 1.70307L3.92874 2.59982L5.32874 3.29069L5.77126 2.39394ZM4.47974 1.77558C4.23855 1.56399 3.95119 1.61828 3.83466 1.65235C3.69465 1.6933 3.56523 1.76903 3.47026 1.85235L4.12974 2.60407C4.12236 2.61055 4.12024 2.61116 4.12303 2.60961C4.12566 2.60814 4.12388 2.60966 4.11534 2.61216C4.10895 2.61402 4.0787 2.62249 4.03095 2.61868C3.97918 2.61455 3.89665 2.59432 3.82026 2.52731L4.47974 1.77558ZM3.47026 1.85235L2.15776 3.00379L2.81724 3.75552L4.12974 2.60407L3.47026 1.85235ZM2.15776 3.00379C1.9916 3.14957 1.93927 3.33698 1.91972 3.43986C1.89886 3.54969 1.9 3.6515 1.9 3.68671H2.9C2.9 3.66699 2.90008 3.65491 2.9007 3.64301C2.9013 3.6313 2.90218 3.62635 2.90215 3.6265C2.90207 3.62692 2.90147 3.63005 2.89986 3.63536C2.89826 3.64064 2.89527 3.64937 2.89007 3.66053C2.87977 3.68262 2.85817 3.71961 2.81724 3.75552L2.15776 3.00379ZM1.97909 3.95659L2.76659 5.18479L3.60841 4.64504L2.82091 3.41683L1.97909 3.95659ZM2.7894 4.6124C2.66503 4.77607 2.57993 4.95589 2.51381 5.1009C2.44185 5.25871 2.38872 5.38344 2.3156 5.51173L3.1844 6.00689C3.28628 5.82813 3.3644 5.64581 3.42369 5.51576C3.48883 5.37291 3.53498 5.28405 3.5856 5.21744L2.7894 4.6124ZM2.62508 5.27517L1.13758 5.65898L1.38742 6.62727L2.87492 6.24345L2.62508 5.27517ZM1.2625 5.64313C1.11562 5.64313 0.999525 5.69983 0.945947 5.72893C0.87896 5.76531 0.818684 5.80977 0.768698 5.85362C0.719234 5.89702 0.665785 5.95214 0.620179 6.01677C0.588578 6.06156 0.5 6.19301 0.5 6.37342H1.5C1.5 6.45429 1.47826 6.51283 1.46714 6.53872C1.45475 6.56759 1.44242 6.58599 1.43724 6.59332C1.42718 6.60758 1.42295 6.60993 1.42818 6.60535C1.43288 6.60122 1.43276 6.6025 1.42319 6.6077C1.41807 6.61048 1.40445 6.61753 1.38296 6.62463C1.36357 6.63104 1.32103 6.64313 1.2625 6.64313V5.64313ZM0.5 6.37342V8.0622H1.5V6.37342H0.5ZM0.5 8.0622C0.5 8.23428 0.55206 8.44951 0.735886 8.61078C0.907213 8.76108 1.11284 8.79249 1.2625 8.79249V7.79249C1.23716 7.79249 1.31154 7.78552 1.39536 7.85906C1.49169 7.94356 1.5 8.04365 1.5 8.0622H0.5ZM1.13758 8.77663L2.62508 9.16045L2.87492 8.19216L1.38742 7.80835L1.13758 8.77663ZM2.26914 8.81334C2.32686 9.01587 2.41247 9.18845 2.47574 9.31797C2.54372 9.45712 2.58936 9.55321 2.61914 9.65773L3.58086 9.38367C3.52314 9.18114 3.43754 9.00856 3.37426 8.87903C3.30629 8.73989 3.26064 8.6438 3.23086 8.53928L2.26914 8.81334ZM2.67909 9.25082L1.89159 10.479L2.73341 11.0188L3.52091 9.79058L2.67909 9.25082ZM1.98276 10.373C1.81555 10.5197 1.72029 10.752 1.7666 10.9958C1.81494 11.2502 1.99645 11.4249 2.19915 11.5138L2.60085 10.5981C2.62855 10.6102 2.72256 10.6698 2.74903 10.8091C2.77346 10.9377 2.72195 11.0548 2.64224 11.1248L1.98276 10.373ZM2.07026 11.4318L3.38276 12.5833L4.04224 11.8315L2.72974 10.6801L2.07026 11.4318ZM3.38276 12.5833C3.53816 12.7196 3.7236 12.7559 3.81516 12.7693C3.92152 12.7849 4.02135 12.7842 4.0625 12.7842V11.7842C4.04022 11.7842 4.02204 11.7841 4.00313 11.7834C3.98429 11.7826 3.96999 11.7813 3.95984 11.7798C3.94874 11.7782 3.95037 11.7775 3.96069 11.7812C3.96646 11.7832 3.97692 11.7874 3.99041 11.7948C4.00395 11.8023 4.02224 11.814 4.04224 11.8315L3.38276 12.5833ZM4.28376 12.7325L5.68376 12.0417L5.24124 11.1449L3.84124 11.8358L4.28376 12.7325ZM5.21007 12.0249C5.55469 12.2265 5.99093 12.317 6.31788 12.3887L6.53212 11.412C6.15907 11.3301 5.89531 11.2672 5.71493 11.1617L5.21007 12.0249ZM5.95093 12.0593L6.38843 13.3643L7.33657 13.0464L6.89907 11.7414L5.95093 12.0593ZM6.3625 13.2053C6.3625 13.3857 6.45108 13.5172 6.48268 13.562C6.52829 13.6266 6.58174 13.6817 6.6312 13.7251C6.68119 13.769 6.74146 13.8134 6.80845 13.8498C6.86203 13.8789 6.97812 13.9356 7.125 13.9356V12.9356C7.18353 12.9356 7.22607 12.9477 7.24546 12.9541C7.26695 12.9612 7.28057 12.9683 7.28569 12.971C7.29526 12.9762 7.29538 12.9775 7.29068 12.9734C7.28545 12.9688 7.28968 12.9712 7.29974 12.9854C7.30492 12.9928 7.31725 13.0112 7.32964 13.04C7.34076 13.0659 7.3625 13.1245 7.3625 13.2053H6.3625ZM7.125 13.9356H9.05V12.9356H7.125V13.9356ZM9.05 13.9356C9.19966 13.9356 9.40529 13.9042 9.57662 13.7539C9.76044 13.5926 9.8125 13.3774 9.8125 13.2053H8.8125C8.8125 13.1868 8.82081 13.0867 8.91713 13.0022C9.00096 12.9286 9.07534 12.9356 9.05 12.9356V13.9356ZM9.78657 13.3643L10.2241 12.0593L9.27593 11.7414L8.83843 13.0464L9.78657 13.3643ZM9.85712 12.3887C10.0723 12.3416 10.2575 12.2711 10.4072 12.2148C10.5637 12.156 10.6848 12.1113 10.8196 12.0817L10.6054 11.1049C10.3902 11.1521 10.205 11.2225 10.0553 11.2788C9.89879 11.3377 9.77771 11.3824 9.64288 11.412L9.85712 12.3887ZM10.4912 12.0417L11.8912 12.7325L12.3338 11.8358L10.9338 11.1449L10.4912 12.0417ZM11.7828 12.66C12.0913 12.9307 12.6417 12.9027 12.8969 12.455L12.0281 11.9598C12.0617 11.9008 12.1309 11.8497 12.2152 11.8374C12.2832 11.8275 12.3676 11.8428 12.4422 11.9083L11.7828 12.66ZM12.7922 12.5833L14.1047 11.4318L13.4453 10.6801L12.1328 11.8315L12.7922 12.5833ZM14.1047 11.4318C14.2709 11.2861 14.3232 11.0986 14.3428 10.9958C14.3636 10.8859 14.3625 10.7841 14.3625 10.7489H13.3625C13.3625 10.7686 13.3624 10.7807 13.3618 10.7926C13.3612 10.8043 13.3603 10.8093 13.3603 10.8091C13.3604 10.8087 13.361 10.8056 13.3626 10.8003C13.3642 10.795 13.3672 10.7862 13.3724 10.7751C13.3827 10.753 13.4043 10.716 13.4453 10.6801L14.1047 11.4318ZM14.2834 10.479L13.4959 9.25082L12.6541 9.79058L13.4416 11.0188L14.2834 10.479ZM13.4731 9.82322C13.7159 9.50366 13.825 9.09717 13.9059 8.81334L12.9441 8.53928C12.85 8.86955 12.7841 9.07717 12.6769 9.21818L13.4731 9.82322ZM13.5499 9.16045L15.0374 8.77663L14.7876 7.80835L13.3001 8.19216L13.5499 9.16045ZM14.9125 8.79249C15.0594 8.79249 15.1755 8.73579 15.2291 8.70669C15.296 8.67031 15.3563 8.62585 15.4063 8.58199C15.4558 8.5386 15.5092 8.48348 15.5548 8.41884C15.5864 8.37406 15.675 8.2426 15.675 8.0622H14.675C14.675 7.98133 14.6967 7.92279 14.7079 7.8969C14.7203 7.86803 14.7326 7.84963 14.7378 7.8423C14.7478 7.82804 14.752 7.82569 14.7468 7.83027C14.7421 7.8344 14.7422 7.83311 14.7518 7.82792C14.7569 7.82514 14.7706 7.81809 14.792 7.81099C14.8114 7.80458 14.854 7.79249 14.9125 7.79249V8.79249ZM15.675 8.0622V6.37342H14.675V8.0622H15.675ZM15.675 6.37342C15.675 6.20133 15.6229 5.98611 15.4391 5.82484C15.2678 5.67453 15.0622 5.64313 14.9125 5.64313V6.64313C14.9378 6.64313 14.8635 6.6501 14.7796 6.57656C14.6833 6.49205 14.675 6.39197 14.675 6.37342H15.675ZM15.0374 5.65898L13.5499 5.27517L13.3001 6.24345L14.7876 6.62727L15.0374 5.65898ZM13.9059 5.62228C13.7963 5.23779 13.557 4.90443 13.4219 4.66734L12.5531 5.1625C12.768 5.53951 12.8787 5.66673 12.9441 5.89634L13.9059 5.62228ZM13.4084 5.18479L14.1959 3.95659L13.3541 3.41683L12.5666 4.64504L13.4084 5.18479ZM14.1047 4.06257C14.272 3.91588 14.3672 3.68363 14.3209 3.43986C14.2726 3.1854 14.0911 3.01068 13.8884 2.92177L13.4867 3.83754C13.459 3.82539 13.3649 3.76581 13.3385 3.6265C13.314 3.49788 13.3656 3.38078 13.4453 3.31085L14.1047 4.06257ZM14.0172 3.00379L12.7047 1.85235L12.0453 2.60407L13.3578 3.75552L14.0172 3.00379ZM12.7047 1.85235C12.5493 1.71602 12.3639 1.67969 12.2723 1.6663C12.166 1.65075 12.0662 1.65145 12.025 1.65145V2.65145C12.0473 2.65145 12.0655 2.65149 12.0844 2.65225C12.1032 2.653 12.1175 2.6543 12.1277 2.65578C12.1388 2.6574 12.1371 2.65815 12.1268 2.65444C12.121 2.65237 12.1106 2.64821 12.0971 2.64077C12.0836 2.63331 12.0653 2.62162 12.0453 2.60407L12.7047 1.85235ZM11.7921 1.709L10.4796 2.39987L10.9454 3.28476L12.2579 2.59389L11.7921 1.709ZM10.9649 2.41071C10.7877 2.30705 10.5931 2.23599 10.4296 2.17861C10.2533 2.11674 10.1035 2.06756 9.95085 2.00061L9.54915 2.91638C9.74654 3.00297 9.94669 3.06893 10.0985 3.1222C10.2631 3.17997 10.3748 3.22405 10.4601 3.27392L10.9649 2.41071ZM10.2241 2.29956L9.78657 0.994592L8.83843 1.31246L9.27594 2.61743L10.2241 2.29956ZM9.3125 1.15353C9.7469 0.905947 9.7468 0.905763 9.74669 0.905579C9.74666 0.905517 9.74655 0.905332 9.74648 0.905208C9.74634 0.904959 9.74619 0.904706 9.74605 0.904451C9.74575 0.903941 9.74545 0.903419 9.74514 0.902886C9.74453 0.90182 9.74388 0.900707 9.7432 0.899549C9.74183 0.897234 9.74034 0.894736 9.73872 0.892068C9.73548 0.886736 9.7317 0.880691 9.72736 0.874037C9.71873 0.860785 9.70771 0.844801 9.69419 0.827018C9.66764 0.792075 9.62887 0.746741 9.57662 0.700902C9.47221 0.609306 9.2941 0.5 9.05 0.5V1.5C8.9809 1.5 8.93404 1.46746 8.91714 1.45262C8.90864 1.44517 8.90268 1.43821 8.898 1.43206C8.89542 1.42867 8.8926 1.42468 8.88944 1.41982C8.88784 1.41737 8.88611 1.41462 8.88423 1.41154C8.88329 1.40999 8.88231 1.40836 8.88129 1.40662C8.88078 1.40576 8.88026 1.40486 8.87973 1.40394C8.87946 1.40348 8.8792 1.40302 8.87892 1.40255C8.87879 1.40231 8.87865 1.40207 8.87851 1.40183C8.87845 1.40171 8.87834 1.40153 8.87831 1.40147C8.8782 1.40129 8.8781 1.40111 9.3125 1.15353ZM8.40262 1.70489L8.84012 2.9331L9.78214 2.59754L9.34464 1.36933L8.40262 1.70489ZM8.81113 2.76532C8.81113 3.00929 8.95197 3.18989 9.10193 3.28856C9.24921 3.38547 9.41851 3.41884 9.57363 3.41884V2.41884C9.55375 2.41884 9.5918 2.41383 9.65159 2.45317C9.71405 2.49427 9.81113 2.59811 9.81113 2.76532H8.81113ZM9.48722 3.41132C9.85796 3.47637 10.1571 3.6056 10.5103 3.76055L10.912 2.84477C10.5652 2.69266 10.1643 2.51484 9.66004 2.42637L9.48722 3.41132ZM10.3814 3.67852C10.4858 3.77012 10.642 3.86023 10.8424 3.86023C11.0427 3.86023 11.199 3.77012 11.3034 3.67852L10.6439 2.9268C10.6608 2.91197 10.7295 2.86023 10.8424 2.86023C10.9552 2.86023 11.024 2.91197 11.0409 2.9268L10.3814 3.67852ZM11.1855 3.75554L12.498 3.14143L12.0742 2.23568L10.7617 2.84978L11.1855 3.75554ZM11.9404 3.04978L12.9029 3.97094L13.5943 3.24849L12.6318 2.32733L11.9404 3.04978ZM12.8214 3.34998L12.1214 4.50142L12.9759 5.02089L13.6759 3.86945L12.8214 3.34998ZM12.2189 4.3853C12.1065 4.4839 11.983 4.64858 11.983 4.8859C11.983 5.07249 12.0637 5.22721 12.1142 5.31579L12.983 4.82063C12.9688 4.79573 12.967 4.78892 12.9691 4.79492C12.9714 4.80118 12.983 4.83442 12.983 4.8859C12.983 4.94345 12.9685 5.00317 12.94 5.05628C12.9143 5.10417 12.886 5.13029 12.8784 5.13702L12.2189 4.3853ZM12.1142 5.31579C12.2927 5.62893 12.4299 5.87559 12.4986 6.17727L13.4736 5.95499C13.3674 5.48904 13.1546 5.1216 12.983 4.82063L12.1142 5.31579ZM12.4861 6.06613C12.4861 6.29168 12.6074 6.45661 12.7111 6.54754C12.8193 6.64244 12.9765 6.71966 13.1611 6.71966V5.71966C13.2583 5.71966 13.328 5.75849 13.3706 5.79582C13.4086 5.82917 13.4861 5.91735 13.4861 6.06613H12.4861ZM13.0289 6.70186L14.4289 7.08568L14.6933 6.12126L13.2933 5.73745L13.0289 6.70186ZM14.0611 6.60347V7.83168H15.0611V6.60347H14.0611ZM14.4289 7.34947L13.0289 7.73329L13.2933 8.6977L14.6933 8.31389L14.4289 7.34947ZM13.1611 7.7155C12.9765 7.7155 12.8193 7.79271 12.7111 7.88761C12.6074 7.97853 12.4861 8.14347 12.4861 8.36902H13.4861C13.4861 8.51781 13.4086 8.60598 13.3706 8.63933C13.328 8.67666 13.2583 8.7155 13.1611 8.7155V7.7155ZM12.4986 8.25788C12.4299 8.55956 12.2927 8.80622 12.1142 9.11936L12.983 9.61452C13.1546 9.31356 13.3674 8.94611 13.4736 8.48016L12.4986 8.25788ZM12.2189 8.99108C12.1231 9.07515 11.983 9.23895 11.983 9.48209C11.983 9.72523 12.1231 9.88902 12.2189 9.97309L12.8784 9.22137C12.8867 9.22868 12.983 9.31571 12.983 9.48209C12.983 9.64846 12.8867 9.73549 12.8784 9.7428L12.2189 8.99108ZM12.1214 9.85697L12.8214 11.0084L13.6759 10.4889L12.9759 9.33749L12.1214 9.85697ZM12.9189 10.3728L11.9564 11.2172L12.6159 11.9689L13.5784 11.1245L12.9189 10.3728ZM12.498 11.1402L11.1855 10.5261L10.7617 11.4318L12.0742 12.0459L12.498 11.1402ZM11.3034 10.6031C11.199 10.5115 11.0427 10.4214 10.8424 10.4214C10.642 10.4214 10.4858 10.5115 10.3814 10.6031L11.0409 11.3548C11.024 11.3697 10.9552 11.4214 10.8424 11.4214C10.7295 11.4214 10.6608 11.3697 10.6439 11.3548L11.3034 10.6031ZM10.5103 10.5211C10.1571 10.676 9.85796 10.8053 9.48722 10.8703L9.66004 11.8553C10.1643 11.7668 10.5652 11.589 10.912 11.4369L10.5103 10.5211ZM9.57363 10.8628C9.38633 10.8628 9.24352 10.9431 9.16755 10.9931C9.08936 11.0445 9.01871 11.1077 8.98139 11.1405L9.64087 11.8922C9.66387 11.872 9.6797 11.8582 9.69437 11.8461C9.70874 11.8343 9.71559 11.8295 9.71721 11.8285C9.71915 11.8272 9.70852 11.8346 9.68717 11.8428C9.66489 11.8513 9.62556 11.8628 9.57363 11.8628V10.8628ZM8.84012 11.3485L8.40262 12.5767L9.34464 12.9123L9.78214 11.6841L8.84012 11.3485ZM8.87363 12.2445H7.47363V13.2445H8.87363V12.2445ZM7.94103 12.5669L7.50353 11.4155L6.56873 11.7707L7.00623 12.9221L7.94103 12.5669ZM7.53613 11.5931C7.53613 11.3491 7.3953 11.1685 7.24534 11.0698C7.09805 10.9729 6.92875 10.9395 6.77363 10.9395V11.9395C6.79351 11.9395 6.75546 11.9446 6.69567 11.9052C6.63321 11.8641 6.53613 11.7603 6.53613 11.5931H7.53613ZM6.86004 10.9471C6.4893 10.882 6.19021 10.7528 5.83698 10.5978L5.43528 11.5136C5.78206 11.6657 6.18296 11.8435 6.68722 11.932L6.86004 10.9471ZM5.96587 10.6799C5.86147 10.5883 5.70524 10.4982 5.50488 10.4982C5.30453 10.4982 5.1483 10.5883 5.04389 10.6799L5.70338 11.4316C5.68647 11.4464 5.61774 11.4982 5.50488 11.4982C5.39203 11.4982 5.3233 11.4464 5.30639 11.4316L5.96587 10.6799ZM5.16174 10.6028L3.84924 11.217L4.27303 12.1227L5.58553 11.5086L5.16174 10.6028ZM4.39087 11.294L3.42837 10.4496L2.76889 11.2013L3.73139 12.0457L4.39087 11.294ZM3.52588 11.0852L4.22588 9.93373L3.37139 9.41426L2.67139 10.5657L3.52588 11.0852ZM4.12837 10.0499C4.2242 9.96578 4.36426 9.80199 4.36426 9.55885C4.36426 9.31571 4.2242 9.15191 4.12837 9.06784L3.46889 9.81956C3.46056 9.81225 3.36426 9.72522 3.36426 9.55885C3.36426 9.39247 3.46056 9.30544 3.46889 9.29813L4.12837 10.0499ZM4.23303 9.19612C4.05456 8.88298 3.9174 8.63632 3.84863 8.33465L2.87364 8.55692C2.97987 9.02287 3.1927 9.39032 3.36423 9.69128L4.23303 9.19612ZM3.86113 8.44578C3.86113 8.22024 3.73983 8.0553 3.63619 7.96437C3.52801 7.86947 3.37076 7.79226 3.18613 7.79226V8.79226C3.089 8.79226 3.01925 8.75342 2.97671 8.71609C2.93869 8.68274 2.86113 8.59457 2.86113 8.44578H3.86113ZM3.31833 7.81005L1.91833 7.42623L1.65393 8.39065L3.05393 8.77446L3.31833 7.81005ZM2.28613 7.90844V6.68023H1.28613V7.90844H2.28613ZM1.91833 7.16244L3.31833 6.77862L3.05393 5.81421L1.65393 6.19802L1.91833 7.16244ZM3.18613 6.79642C3.37076 6.79642 3.52801 6.7192 3.63619 6.6243C3.73983 6.53337 3.86113 6.36844 3.86113 6.14289H2.86113C2.86113 5.99411 2.93869 5.90593 2.9767 5.87258C3.01925 5.83525 3.089 5.79642 3.18613 5.79642V6.79642ZM3.84863 6.25403C3.9174 5.95235 4.05456 5.70569 4.23303 5.39255L3.36423 4.89739C3.1927 5.19836 2.97987 5.5658 2.87364 6.03175L3.84863 6.25403ZM4.12837 5.52083C4.24077 5.42223 4.36426 5.25755 4.36426 5.02023C4.36426 4.83364 4.28352 4.67892 4.23303 4.59034L3.36423 5.0855C3.37843 5.1104 3.38031 5.11721 3.37812 5.11121C3.37584 5.10495 3.36426 5.0717 3.36426 5.02023C3.36426 4.96267 3.37875 4.90295 3.40724 4.84985C3.43293 4.80196 3.46122 4.77584 3.46889 4.76911L4.12837 5.52083ZM4.23303 4.59034L3.53303 3.36213L2.66423 3.85729L3.36423 5.0855L4.23303 4.59034ZM3.42837 3.98557L4.47837 3.06442L3.81889 2.31269L2.76889 3.23385L3.42837 3.98557ZM3.93673 3.14143L5.24923 3.75554L5.67303 2.84978L4.36053 2.23568L3.93673 3.14143ZM5.13139 3.67852C5.2358 3.77012 5.39203 3.86023 5.59238 3.86023C5.79274 3.86023 5.94897 3.77012 6.05337 3.67852L5.39389 2.9268C5.4108 2.91197 5.47953 2.86023 5.59238 2.86023C5.70523 2.86023 5.77396 2.91197 5.79087 2.9268L5.13139 3.67852ZM5.92448 3.76055C6.27771 3.6056 6.5768 3.47637 6.94754 3.41132L6.77472 2.42637C6.27046 2.51484 5.86955 2.69266 5.52278 2.84477L5.92448 3.76055ZM6.86113 3.41884C7.04576 3.41884 7.20301 3.34163 7.31118 3.24673C7.41483 3.1558 7.53613 2.99087 7.53613 2.76532H6.53613C6.53613 2.61653 6.61369 2.52836 6.6517 2.49501C6.69425 2.45768 6.764 2.41884 6.86113 2.41884L6.86113 3.41884ZM7.50714 2.9331L7.94464 1.70489L7.00262 1.36933L6.56512 2.59754L7.50714 2.9331ZM7.47363 2.03711H8.87363V1.03711H7.47363V2.03711ZM5.22363 7.21773C5.22363 8.7048 6.64849 9.86709 8.17363 9.86709V8.86709C7.07377 8.86709 6.22363 8.03354 6.22363 7.21773H5.22363ZM8.17363 9.86709C9.69877 9.86709 11.1236 8.7048 11.1236 7.21773H10.1236C10.1236 8.03354 9.27349 8.86709 8.17363 8.86709V9.86709ZM11.1236 7.21773C11.1236 5.73065 9.69877 4.56836 8.17363 4.56836V5.56836C9.27349 5.56836 10.1236 6.40191 10.1236 7.21773H11.1236ZM8.17363 4.56836C6.66081 4.56836 5.22363 5.64322 5.22363 7.21773H6.22363C6.22363 6.33582 7.06146 5.56836 8.17363 5.56836V4.56836ZM9.51387 7.21749C9.51387 7.80302 9.01373 8.32952 8.17637 8.32952V9.32952C9.43901 9.32952 10.5139 8.47428 10.5139 7.21749H9.51387ZM8.17637 8.32952C7.33901 8.32952 6.83887 7.80302 6.83887 7.21749H5.83887C5.83887 8.47428 6.91373 9.32952 8.17637 9.32952V8.32952ZM6.83887 7.21749C6.83887 6.63197 7.33901 6.10547 8.17637 6.10547V5.10547C6.91373 5.10547 5.83887 5.96071 5.83887 7.21749H6.83887ZM8.17637 6.10547C9.01373 6.10547 9.51387 6.63197 9.51387 7.21749H10.5139C10.5139 5.96071 9.43901 5.10547 8.17637 5.10547V6.10547ZM21.5652 10.2494H19.3777V11.2494H21.5652V10.2494ZM19.3777 10.2494C19.2281 10.2494 19.0224 10.2808 18.8511 10.4311C18.6673 10.5924 18.6152 10.8076 18.6152 10.9797H19.6152C19.6152 10.9983 19.6069 11.0984 19.5106 11.1829C19.4268 11.2564 19.3524 11.2494 19.3777 11.2494V10.2494ZM18.6398 10.8249L18.1148 12.4369L19.0657 12.7466L19.5907 11.1346L18.6398 10.8249ZM18.5038 12.0993C17.9996 12.1878 17.5987 12.3656 17.2519 12.5177L17.6536 13.4335C18.0068 13.2785 18.3059 13.1493 18.6766 13.0842L18.5038 12.0993ZM17.6623 12.5216L15.9998 11.754L15.5806 12.6619L17.2431 13.4295L17.6623 12.5216ZM16.12 11.8321C15.8788 11.6205 15.5914 11.6748 15.4749 11.7088C15.3349 11.7498 15.2055 11.8255 15.1105 11.9088L15.77 12.6606C15.7626 12.667 15.7605 12.6677 15.7633 12.6661C15.7659 12.6646 15.7641 12.6661 15.7556 12.6686C15.7492 12.6705 15.7189 12.679 15.6712 12.6752C15.6194 12.671 15.5369 12.6508 15.4605 12.5838L16.12 11.8321ZM15.1105 11.9088L13.5355 13.2906L14.195 14.0423L15.77 12.6606L15.1105 11.9088ZM13.5355 13.2906C13.3693 13.4363 13.317 13.6238 13.2975 13.7266C13.2766 13.8365 13.2777 13.9383 13.2777 13.9735H14.2777C14.2777 13.9538 14.2778 13.9417 14.2784 13.9298C14.279 13.9181 14.2799 13.9131 14.2799 13.9133C14.2798 13.9137 14.2792 13.9168 14.2776 13.9221C14.276 13.9274 14.273 13.9362 14.2678 13.9473C14.2575 13.9694 14.2359 14.0064 14.195 14.0423L13.5355 13.2906ZM13.349 14.2307L14.224 15.6892L15.0815 15.1748L14.2065 13.7163L13.349 14.2307ZM14.2183 15.1844C14.0305 15.5141 13.8362 15.9357 13.7344 16.2929L14.6961 16.5669C14.7693 16.31 14.925 15.964 15.0871 15.6796L14.2183 15.1844ZM14.0937 15.9449L12.2562 16.4055L12.4993 17.3755L14.3368 16.9149L14.0937 15.9449ZM12.3777 16.3905C12.2309 16.3905 12.1148 16.4472 12.0612 16.4763C11.9942 16.5127 11.9339 16.5571 11.8839 16.601C11.8345 16.6444 11.781 16.6995 11.7354 16.7641C11.7038 16.8089 11.6152 16.9404 11.6152 17.1208H12.6152C12.6152 17.2016 12.5935 17.2602 12.5824 17.2861C12.57 17.3149 12.5577 17.3333 12.5525 17.3407C12.5424 17.3549 12.5382 17.3573 12.5434 17.3527C12.5481 17.3486 12.548 17.3499 12.5384 17.3551C12.5333 17.3578 12.5197 17.3649 12.4982 17.372C12.4788 17.3784 12.4363 17.3905 12.3777 17.3905V16.3905ZM11.6152 17.1208V18.9631H12.6152V17.1208H11.6152ZM11.6152 18.9631C11.6152 19.1352 11.6673 19.3504 11.8511 19.5117C12.0224 19.662 12.2281 19.6934 12.3777 19.6934V18.6934C12.3524 18.6934 12.4268 18.6864 12.5106 18.7599C12.6069 18.8444 12.6152 18.9445 12.6152 18.9631H11.6152ZM12.2562 19.6784L14.0937 20.139L14.3368 19.169L12.4993 18.7084L12.2562 19.6784ZM13.7277 19.7651C13.8371 20.2447 14.0576 20.6229 14.3602 20.9768L15.1203 20.327C14.8979 20.0668 14.7684 19.8309 14.7027 19.5428L13.7277 19.7651ZM14.3115 20.3946L13.4365 21.8531L14.294 22.3676L15.169 20.9091L14.3115 20.3946ZM13.5355 21.7345C13.3683 21.8812 13.273 22.1134 13.3193 22.3572C13.3677 22.6117 13.5492 22.7864 13.7519 22.8753L14.1536 21.9595C14.1813 21.9717 14.2753 22.0313 14.3018 22.1706C14.3262 22.2992 14.2747 22.4163 14.195 22.4862L13.5355 21.7345ZM13.623 22.7933L15.198 24.175L15.8575 23.4233L14.2825 22.0416L13.623 22.7933ZM15.198 24.175C15.3534 24.3114 15.5388 24.3477 15.6304 24.3611C15.7368 24.3766 15.8366 24.3759 15.8777 24.3759V23.3759C15.8555 23.3759 15.8373 23.3759 15.8184 23.3751C15.7995 23.3744 15.7852 23.3731 15.7751 23.3716C15.764 23.37 15.7656 23.3692 15.7759 23.3729C15.7817 23.375 15.7921 23.3792 15.8056 23.3866C15.8192 23.3941 15.8375 23.4057 15.8575 23.4233L15.198 24.175ZM16.0873 24.3299L17.7498 23.5622L17.3306 22.6543L15.6681 23.422L16.0873 24.3299ZM17.3394 23.5662C17.7102 23.7289 18.1798 23.8948 18.5706 23.9805L18.7848 23.0037C18.4756 22.9359 18.0702 22.7948 17.7411 22.6504L17.3394 23.5662ZM18.2023 23.6469L18.7273 25.259L19.6782 24.9493L19.1532 23.3373L18.2023 23.6469ZM18.7027 25.1041C18.7027 25.2845 18.7913 25.416 18.8229 25.4608C18.8685 25.5254 18.922 25.5805 18.9714 25.6239C19.0214 25.6678 19.0817 25.7122 19.1487 25.7486C19.2023 25.7777 19.3184 25.8344 19.4652 25.8344V24.8344C19.5238 24.8344 19.5663 24.8465 19.5857 24.8529C19.6072 24.86 19.6208 24.8671 19.6259 24.8698C19.6355 24.875 19.6356 24.8763 19.6309 24.8722C19.6257 24.8676 19.6299 24.87 19.64 24.8842C19.6452 24.8916 19.6575 24.91 19.6699 24.9388C19.681 24.9647 19.7027 25.0233 19.7027 25.1041H18.7027ZM19.4652 25.8344H21.6527V24.8344H19.4652V25.8344ZM21.6527 25.8344C21.8024 25.8344 22.008 25.803 22.1793 25.6527C22.3632 25.4914 22.4152 25.2762 22.4152 25.1041H21.4152C21.4152 25.0856 21.4235 24.9855 21.5199 24.901C21.6037 24.8274 21.6781 24.8344 21.6527 24.8344V25.8344ZM22.3907 25.259L22.9157 23.6469L21.9648 23.3373L21.4398 24.9493L22.3907 25.259ZM22.5266 23.9846C23.0309 23.8961 23.4318 23.7183 23.7786 23.5662L23.3769 22.6504C23.0237 22.8053 22.7246 22.9346 22.3538 22.9996L22.5266 23.9846ZM23.3681 23.5622L25.0306 24.3299L25.4498 23.422L23.7873 22.6543L23.3681 23.5622ZM24.9105 24.2518C25.219 24.5224 25.7695 24.4944 26.0246 24.0467L25.1558 23.5516C25.1895 23.4925 25.2586 23.4415 25.3429 23.4292C25.411 23.4192 25.4953 23.4346 25.57 23.5001L24.9105 24.2518ZM25.92 24.175L27.495 22.7933L26.8355 22.0416L25.2605 23.4233L25.92 24.175ZM27.495 22.7933C27.6611 22.6475 27.7135 22.4601 27.733 22.3572C27.7539 22.2474 27.7527 22.1456 27.7527 22.1104H26.7527C26.7527 22.1301 26.7527 22.1422 26.752 22.1541C26.7514 22.1658 26.7506 22.1707 26.7506 22.1706C26.7507 22.1702 26.7513 22.167 26.7529 22.1617C26.7545 22.1564 26.7575 22.1477 26.7627 22.1365C26.773 22.1145 26.7946 22.0775 26.8355 22.0416L27.495 22.7933ZM27.6815 21.8531L26.8065 20.3946L25.949 20.9091L26.824 22.3676L27.6815 21.8531ZM26.8121 20.8995C26.9069 20.7333 27.0001 20.549 27.0863 20.3789C27.1751 20.2036 27.2569 20.0424 27.3371 19.9015L26.4683 19.4064C26.3736 19.5726 26.2804 19.7568 26.1942 19.927C26.1054 20.1022 26.0236 20.2634 25.9433 20.4043L26.8121 20.8995ZM27.0243 20.139L28.8618 19.6784L28.6187 18.7084L26.7812 19.169L27.0243 20.139ZM28.7402 19.6934C28.8871 19.6934 29.0032 19.6367 29.0568 19.6076C29.1238 19.5712 29.184 19.5267 29.234 19.4829C29.2835 19.4395 29.3369 19.3844 29.3826 19.3197C29.4142 19.275 29.5027 19.1435 29.5027 18.9631H28.5027C28.5027 18.8822 28.5245 18.8237 28.5356 18.7978C28.548 18.7689 28.5603 18.7505 28.5655 18.7432C28.5756 18.7289 28.5798 18.7266 28.5746 18.7312C28.5699 18.7353 28.57 18.734 28.5795 18.7288C28.5847 18.726 28.5983 18.719 28.6198 18.7119C28.6392 18.7055 28.6817 18.6934 28.7402 18.6934V19.6934ZM29.5027 18.9631V16.9672H28.5027V18.9631H29.5027ZM29.5027 16.9672C29.5027 16.7952 29.4507 16.5799 29.2668 16.4187C29.0955 16.2684 28.8899 16.237 28.7402 16.237V17.237C28.7656 17.237 28.6912 17.2439 28.6074 17.1704C28.511 17.0859 28.5027 16.9858 28.5027 16.9672H29.5027ZM28.8618 16.252L27.0243 15.7914L26.7812 16.7614L28.6187 17.222L28.8618 16.252ZM27.3902 16.1652C27.284 15.6993 27.0712 15.3318 26.8996 15.0309L26.0308 15.526C26.2093 15.8392 26.3465 16.0858 26.4152 16.3875L27.3902 16.1652ZM26.894 15.5357L27.769 14.0772L26.9115 13.5627L26.0365 15.0212L26.894 15.5357ZM27.67 14.1958C27.8372 14.0491 27.9324 13.8169 27.8861 13.5731C27.8378 13.3187 27.6563 13.1439 27.4536 13.055L27.0519 13.9708C27.0242 13.9586 26.9302 13.8991 26.9037 13.7598C26.8793 13.6311 26.9308 13.514 27.0105 13.4441L27.67 14.1958ZM27.5825 13.137L26.0075 11.7553L25.348 12.507L26.923 13.8888L27.5825 13.137ZM25.8181 11.6513C25.6842 11.6121 25.5367 11.5736 25.3824 11.5736C25.208 11.5736 25.0696 11.6216 24.9519 11.6733L25.3536 12.5891C25.3847 12.5754 25.3961 12.5723 25.3975 12.5719C25.3975 12.5719 25.3953 12.5725 25.3916 12.573C25.3878 12.5734 25.3845 12.5736 25.3824 12.5736C25.3786 12.5736 25.3854 12.5731 25.4113 12.5782C25.4384 12.5837 25.4772 12.5935 25.5374 12.6111L25.8181 11.6513ZM24.9431 11.6772L23.2806 12.4449L23.6998 13.3527L25.3623 12.5851L24.9431 11.6772ZM23.6911 12.4409C23.3202 12.2782 22.8506 12.1123 22.4599 12.0266L22.2456 13.0034C22.5548 13.0712 22.9602 13.2123 23.2894 13.3567L23.6911 12.4409ZM22.8282 12.3602L22.3032 10.7481L21.3523 11.0578L21.8773 12.6698L22.8282 12.3602ZM22.3277 10.903C22.3277 10.7188 22.2425 10.5249 22.0919 10.3928C21.8973 10.2221 21.6237 10.1778 21.3644 10.2915L21.7661 11.2073C21.7381 11.2196 21.6817 11.2358 21.6077 11.225C21.5338 11.2142 21.4739 11.181 21.4324 11.1445C21.3935 11.1104 21.3703 11.0738 21.3564 11.0432C21.3441 11.0162 21.3277 10.9694 21.3277 10.903H22.3277ZM20.8205 11.4241L21.258 12.9594L22.2197 12.6853L21.7822 11.1501L20.8205 11.4241ZM21.2389 12.8224C21.2389 13.0479 21.3602 13.2129 21.4638 13.3038C21.572 13.3987 21.7292 13.4759 21.9139 13.4759V12.4759C22.011 12.4759 22.0807 12.5147 22.1233 12.5521C22.1613 12.5854 22.2389 12.6736 22.2389 12.8224H21.2389ZM21.7483 13.4477C21.9751 13.5273 22.2228 13.6063 22.4619 13.6825C22.7041 13.7598 22.9376 13.8343 23.1483 13.9083L23.4794 12.9647C23.2526 12.8851 23.0049 12.8061 22.7658 12.7298C22.5236 12.6526 22.2901 12.578 22.0794 12.5041L21.7483 13.4477ZM22.9841 13.8123C23.0885 13.9039 23.2448 13.994 23.4451 13.994C23.6455 13.994 23.8017 13.9039 23.9061 13.8123L23.2466 13.0606C23.2635 13.0458 23.3323 12.994 23.4451 12.994C23.558 12.994 23.6267 13.0458 23.6436 13.0606L22.9841 13.8123ZM23.7954 13.8859L25.3704 13.1183L24.9323 12.2194L23.3573 12.987L23.7954 13.8859ZM24.8216 13.0447L26.0466 14.1194L26.7061 13.3677L25.4811 12.293L24.8216 13.0447ZM25.9539 13.476L25.0789 14.8578L25.9238 15.3928L26.7988 14.011L25.9539 13.476ZM25.1716 14.7494C25.0758 14.8335 24.9357 14.9973 24.9357 15.2404C24.9357 15.4835 25.0758 15.6473 25.1716 15.7314L25.8311 14.9797C25.8394 14.987 25.9357 15.074 25.9357 15.2404C25.9357 15.4068 25.8394 15.4938 25.8311 15.5011L25.1716 14.7494ZM25.0887 15.6378C25.322 15.979 25.4676 16.3056 25.5389 16.6181L26.5139 16.3959C26.4101 15.9408 26.2057 15.4997 25.9141 15.0733L25.0887 15.6378ZM25.5264 16.507C25.5264 16.7325 25.6477 16.8975 25.7513 16.9884C25.8595 17.0833 26.0167 17.1605 26.2014 17.1605V16.1605C26.2985 16.1605 26.3682 16.1994 26.4108 16.2367C26.4488 16.27 26.5264 16.3582 26.5264 16.507H25.5264ZM26.0741 17.1441L27.8241 17.6046L28.0786 16.6376L26.3286 16.177L26.0741 17.1441ZM27.4514 17.1211V18.6564H28.4514V17.1211H27.4514ZM27.8241 18.1728L26.0741 18.6334L26.3286 19.6005L28.0786 19.1399L27.8241 18.1728ZM26.2014 18.6169C26.0167 18.6169 25.8595 18.6942 25.7513 18.7891C25.6477 18.88 25.5264 19.0449 25.5264 19.2705H26.5264C26.5264 19.4193 26.4488 19.5074 26.4108 19.5408C26.3682 19.5781 26.2985 19.6169 26.2014 19.6169V18.6169ZM25.5714 19.063C25.3729 19.4984 25.2283 19.8913 25.067 20.1743L25.9358 20.6695C26.1245 20.3384 26.3298 19.8101 26.4813 19.4779L25.5714 19.063ZM25.1716 20.0461C25.0592 20.1447 24.9357 20.3093 24.9357 20.5467C24.9357 20.7332 25.0165 20.888 25.067 20.9765L25.9358 20.4814C25.9216 20.4565 25.9197 20.4497 25.9219 20.4557C25.9242 20.4619 25.9357 20.4952 25.9357 20.5467C25.9357 20.6042 25.9212 20.6639 25.8928 20.717C25.8671 20.7649 25.8388 20.791 25.8311 20.7978L25.1716 20.0461ZM25.0789 20.9965L25.9539 22.3782L26.7988 21.8432L25.9238 20.4615L25.0789 20.9965ZM26.0466 21.7348L24.8216 22.8095L25.4811 23.5612L26.7061 22.4866L26.0466 21.7348ZM25.3704 22.7359L23.7954 21.9683L23.3573 22.8672L24.9323 23.6348L25.3704 22.7359ZM23.9061 22.0419C23.8017 21.9503 23.6455 21.8602 23.4451 21.8602C23.2448 21.8602 23.0885 21.9503 22.9841 22.0419L23.6436 22.7936C23.6267 22.8085 23.558 22.8602 23.4451 22.8602C23.3323 22.8602 23.2635 22.8085 23.2466 22.7936L23.9061 22.0419ZM23.081 21.9753C22.6889 22.1817 22.3054 22.3158 21.8415 22.3836L21.9862 23.3731C22.5723 23.2874 23.0638 23.1144 23.5468 22.8602L23.081 21.9753ZM21.9139 22.3783C21.7292 22.3783 21.572 22.4556 21.4638 22.5504C21.3602 22.6414 21.2389 22.8063 21.2389 23.0319H22.2389C22.2389 23.1806 22.1613 23.2688 22.1233 23.3022C22.0807 23.3395 22.011 23.3783 21.9139 23.3783V22.3783ZM21.2658 22.8701L20.7408 24.4053L21.687 24.7289L22.212 23.1936L21.2658 22.8701ZM21.2139 24.0671H19.4639V25.0671H21.2139V24.0671ZM19.937 24.4053L19.412 22.8701L18.4658 23.1936L18.9908 24.7289L19.937 24.4053ZM19.4389 23.0319C19.4389 22.8063 19.3176 22.6414 19.2139 22.5505C19.1057 22.4556 18.9485 22.3783 18.7639 22.3783V23.3783C18.6667 23.3783 18.597 23.3395 18.5544 23.3022C18.5164 23.2688 18.4389 23.1806 18.4389 23.0319H19.4389ZM18.6567 22.3899C18.5883 22.405 18.4561 22.4031 18.2786 22.3564C18.1081 22.3115 17.9399 22.2366 17.8137 22.1536L17.264 22.989C17.4878 23.1362 17.7571 23.2532 18.0241 23.3235C18.2842 23.3919 18.5894 23.4285 18.871 23.3667L18.6567 22.3899ZM17.8686 22.1954C17.7642 22.1038 17.608 22.0137 17.4076 22.0137C17.2073 22.0137 17.051 22.1038 16.9466 22.1954L17.6061 22.9471C17.5892 22.962 17.5205 23.0137 17.4076 23.0137C17.2948 23.0137 17.226 22.962 17.2091 22.9471L17.8686 22.1954ZM17.0573 22.1218L15.4823 22.8895L15.9204 23.7884L17.4954 23.0207L17.0573 22.1218ZM16.0311 22.9631L14.8061 21.8884L14.1466 22.6401L15.3716 23.7148L16.0311 22.9631ZM14.8988 22.5317L15.7738 21.15L14.9289 20.615L14.0539 21.9967L14.8988 22.5317ZM15.6811 21.2584C15.7935 21.1598 15.917 20.9951 15.917 20.7578C15.917 20.5712 15.8363 20.4164 15.7858 20.3279L14.917 20.823C14.9312 20.8479 14.933 20.8547 14.9309 20.8487C14.9286 20.8425 14.917 20.8092 14.917 20.7578C14.917 20.7002 14.9315 20.6405 14.96 20.5874C14.9857 20.5395 15.014 20.5134 15.0216 20.5066L15.6811 21.2584ZM15.7641 20.2932C15.5307 19.952 15.3851 19.6254 15.3139 19.3129L14.3389 19.5351C14.4426 19.9902 14.647 20.4313 14.9387 20.8577L15.7641 20.2932ZM15.3264 19.424C15.3264 19.1985 15.2051 19.0335 15.1014 18.9426C14.9932 18.8477 14.836 18.7705 14.6514 18.7705V19.7705C14.5542 19.7705 14.4845 19.7316 14.4419 19.6943C14.4039 19.661 14.3264 19.5728 14.3264 19.424H15.3264ZM14.7786 18.7869L13.0286 18.3264L12.7741 19.2934L14.5241 19.754L14.7786 18.7869ZM13.4014 18.8099V17.2746H12.4014V18.8099H13.4014ZM13.0286 17.7582L14.7786 17.2976L14.5241 16.3305L12.7741 16.7911L13.0286 17.7582ZM14.6514 17.3141C14.836 17.3141 14.9932 17.2368 15.1014 17.1419C15.2051 17.051 15.3264 16.8861 15.3264 16.6605H14.3264C14.3264 16.5117 14.4039 16.4236 14.4419 16.3902C14.4845 16.3529 14.5542 16.3141 14.6514 16.3141V17.3141ZM15.2813 16.868C15.4798 16.4326 15.6245 16.0397 15.7858 15.7567L14.917 15.2615C14.7283 15.5926 14.5229 16.1209 14.3714 16.4531L15.2813 16.868ZM15.6811 15.8849C15.7769 15.8009 15.917 15.6371 15.917 15.3939C15.917 15.1508 15.7769 14.987 15.6811 14.9029L15.0216 15.6547C15.0133 15.6473 14.917 15.5603 14.917 15.3939C14.917 15.2276 15.0133 15.1405 15.0216 15.1332L15.6811 15.8849ZM15.7738 15.0113L14.8988 13.6296L14.0539 14.1646L14.9289 15.5463L15.7738 15.0113ZM14.8061 14.2729L16.0311 13.1982L15.3716 12.4465L14.1466 13.5212L14.8061 14.2729ZM15.4823 13.2718L17.0573 14.0395L17.4954 13.1405L15.9204 12.3729L15.4823 13.2718ZM16.9466 13.9659C17.051 14.0575 17.2073 14.1476 17.4076 14.1476C17.608 14.1476 17.7642 14.0575 17.8686 13.9659L17.2091 13.2141C17.226 13.1993 17.2948 13.1476 17.4076 13.1476C17.5205 13.1476 17.5892 13.1993 17.6061 13.2141L16.9466 13.9659ZM17.7718 14.0325C18.1638 13.8261 18.5473 13.692 19.0112 13.6242L18.8665 12.6347C18.2804 12.7204 17.7889 12.8933 17.306 13.1476L17.7718 14.0325ZM18.9389 13.6294C19.1235 13.6294 19.2807 13.5522 19.3889 13.4573C19.4926 13.3664 19.6139 13.2014 19.6139 12.9759H18.6139C18.6139 12.8271 18.6914 12.7389 18.7294 12.7056C18.772 12.6683 18.8417 12.6294 18.9389 12.6294V13.6294ZM19.5947 13.1129L20.0322 11.5777L19.0705 11.3036L18.633 12.8389L19.5947 13.1129ZM19.5951 11.9387L21.3451 11.7852L21.2577 10.789L19.5077 10.9425L19.5951 11.9387ZM16.8652 17.9641C16.8652 19.7582 18.5526 21.1508 20.4277 21.1508V20.1508C18.9779 20.1508 17.8652 19.0869 17.8652 17.9641H16.8652ZM20.4277 21.1508C22.3029 21.1508 23.9902 19.7582 23.9902 17.9641H22.9902C22.9902 19.0869 21.8776 20.1508 20.4277 20.1508V21.1508ZM23.9902 17.9641C23.9902 16.1699 22.3029 14.7773 20.4277 14.7773V15.7773C21.8776 15.7773 22.9902 16.8412 22.9902 17.9641H23.9902ZM20.4277 14.7773C18.5526 14.7773 16.8652 16.1699 16.8652 17.9641H17.8652C17.8652 16.8412 18.9779 15.7773 20.4277 15.7773V14.7773ZM22.3736 17.9638C22.3736 18.8457 21.5358 19.6132 20.4236 19.6132V20.6132C21.9365 20.6132 23.3736 19.5383 23.3736 17.9638H22.3736ZM20.4236 19.6132C19.2485 19.6132 18.4736 18.7905 18.4736 17.9638H17.4736C17.4736 19.44 18.7988 20.6132 20.4236 20.6132V19.6132ZM18.4736 17.9638C18.4736 17.0819 19.3115 16.3145 20.4236 16.3145V15.3145C18.9108 15.3145 17.4736 16.3893 17.4736 17.9638H18.4736ZM20.4236 16.3145C21.5988 16.3145 22.3736 17.1371 22.3736 17.9638H23.3736C23.3736 16.4876 22.0485 15.3145 20.4236 15.3145V16.3145Z" fill="#FF5900"/>
<path fill-rule="evenodd" clip-rule="evenodd" d="M10.6187 24.4863C10.4437 24.4863 10.3562 24.6399 10.3562 24.7166L9.91875 26.0216C9.56875 26.0984 9.30625 26.2519 8.95625 26.4054L7.55625 25.7145C7.46875 25.6378 7.29375 25.7145 7.20625 25.7913L5.89375 26.9427C5.80625 27.0195 5.80625 27.173 5.80625 27.2498L6.59375 28.478C6.41875 28.7083 6.33125 29.0153 6.15625 29.3224L4.66875 29.7062C4.58125 29.7062 4.40625 29.8597 4.40625 29.9365V31.6253C4.40625 31.7788 4.49375 31.8556 4.66875 31.8556L6.15625 32.2394C6.24375 32.5464 6.41875 32.7767 6.50625 33.0838L5.71875 34.312C5.63125 34.3888 5.63125 34.5423 5.80625 34.619L7.11875 35.7705C7.20625 35.8473 7.38125 35.8473 7.46875 35.8473L8.86875 35.1564C9.13125 35.3099 9.48125 35.3867 9.83125 35.4634L10.2687 36.7684C10.2687 36.8452 10.4437 36.9987 10.5312 36.9987H12.4562C12.6312 36.9987 12.7187 36.9219 12.7187 36.7684L13.1562 35.4634C13.5062 35.3867 13.7687 35.2331 14.1187 35.1564L15.5187 35.8473C15.6062 35.924 15.7812 35.924 15.8687 35.7705L17.1812 34.619C17.2687 34.5423 17.2687 34.3888 17.2687 34.312L16.4812 33.0838C16.6562 32.8535 16.7437 32.5464 16.8312 32.2394L18.3187 31.8556C18.4062 31.8556 18.5812 31.7021 18.5812 31.6253V29.9365C18.5812 29.783 18.4937 29.7062 18.3187 29.7062L16.8312 29.3224C16.7437 29.0153 16.5687 28.7851 16.3937 28.478L17.1812 27.2498C17.2687 27.173 17.2687 27.0195 17.0937 26.9427L15.7812 25.7913C15.6937 25.7145 15.5187 25.7145 15.4312 25.7145L14.0312 26.4054C13.7687 26.2519 13.4187 26.1751 13.0687 26.0216L12.6312 24.7166C12.6312 24.6399 12.4562 24.4863 12.3687 24.4863H10.6187ZM10.7924 25.0234H12.2799L12.7174 26.2516C12.7174 26.3284 12.8049 26.4052 12.9799 26.4052C13.4174 26.4819 13.7674 26.6355 14.1174 26.789C14.2049 26.8657 14.2924 26.8657 14.3799 26.789L15.6924 26.1749L16.7424 27.096L16.0424 28.2475C15.9549 28.3242 15.9549 28.401 16.0424 28.5545C16.2174 28.8616 16.3924 29.1686 16.4799 29.5525C16.4799 29.6292 16.5674 29.706 16.6549 29.706L18.0549 30.0898V31.318L16.6549 31.7018C16.5674 31.7018 16.4799 31.7786 16.4799 31.8554C16.3924 32.2392 16.2174 32.5462 16.0424 32.8533C15.9549 32.93 15.9549 33.0068 16.0424 33.0836L16.7424 34.235L15.7799 35.0794L14.4674 34.4653C14.3799 34.3885 14.2924 34.4653 14.2049 34.4653C13.8549 34.6188 13.5049 34.7723 13.0674 34.8491C12.9799 34.8491 12.8924 34.9259 12.8049 35.0026L12.2799 36.3844H10.8799L10.4424 35.1562C10.4424 35.0794 10.3549 35.0026 10.1799 35.0026C9.74238 34.9259 9.39238 34.7723 9.04238 34.6188C8.95488 34.5421 8.86738 34.5421 8.77988 34.6188L7.46739 35.2329L6.50488 34.3118L7.20488 33.1603C7.29238 33.0836 7.29238 33.0068 7.20488 32.93C7.02988 32.623 6.85488 32.3159 6.76738 31.9321C6.76738 31.8554 6.67988 31.7786 6.59238 31.7786L5.19238 31.3948V30.1666L6.59238 29.7827C6.67988 29.7827 6.76738 29.706 6.76738 29.6292C6.85488 29.2454 7.02988 28.9384 7.20488 28.6313C7.29238 28.5545 7.29238 28.4778 7.20488 28.3242L6.50488 27.1728L7.55488 26.2516L8.86738 26.8657C8.95488 26.9425 9.04238 26.9425 9.12988 26.8657C9.47988 26.7122 9.82988 26.5587 10.2674 26.4819C10.3549 26.4819 10.4424 26.4052 10.5299 26.3284L10.7924 25.0234ZM11.5799 28.5547C10.2674 28.5547 9.12988 29.5526 9.12988 30.7041C9.12988 31.8555 10.2674 32.8534 11.5799 32.8534C12.8924 32.8534 14.0299 31.8555 14.0299 30.7041C14.0299 29.5526 12.8924 28.5547 11.5799 28.5547ZM11.5826 29.0918C12.6326 29.0918 13.4201 29.7827 13.4201 30.7038C13.4201 31.625 12.6326 32.3158 11.5826 32.3158C10.5326 32.3158 9.74512 31.625 9.74512 30.7038C9.74512 29.7827 10.5326 29.0918 11.5826 29.0918Z" fill="#FF5900"/>
<path d="M10.3562 24.7166L10.8303 24.8756L10.8562 24.7982V24.7166H10.3562ZM9.91875 26.0216L10.0259 26.51L10.3027 26.4493L10.3928 26.1805L9.91875 26.0216ZM8.95625 26.4054L8.73498 26.8538L8.94383 26.9568L9.1571 26.8633L8.95625 26.4054ZM7.55625 25.7145L7.22651 26.0904L7.27598 26.1338L7.33499 26.1629L7.55625 25.7145ZM7.20625 25.7913L6.87651 25.4154L6.87651 25.4154L7.20625 25.7913ZM5.89375 26.9427L6.22349 27.3186L6.22349 27.3186L5.89375 26.9427ZM5.80625 27.2498H5.30625V27.3963L5.38534 27.5197L5.80625 27.2498ZM6.59375 28.478L6.99185 28.7805L7.20328 28.5023L7.01466 28.2081L6.59375 28.478ZM6.15625 29.3224L6.28117 29.8065L6.48594 29.7537L6.59065 29.57L6.15625 29.3224ZM4.66875 29.7062V30.2062H4.73222L4.79367 30.1904L4.66875 29.7062ZM4.66875 31.8556L4.79367 31.3714L4.73222 31.3556H4.66875V31.8556ZM6.15625 32.2394L6.63711 32.1024L6.55859 31.8268L6.28117 31.7552L6.15625 32.2394ZM6.50625 33.0838L6.92716 33.3537L7.04894 33.1637L6.98711 32.9468L6.50625 33.0838ZM5.71875 34.312L6.04849 34.6879L6.10156 34.6413L6.13966 34.5819L5.71875 34.312ZM5.80625 34.619L6.13599 34.2432L6.07789 34.1922L6.0071 34.1612L5.80625 34.619ZM7.11875 35.7705L6.78901 36.1464L6.78901 36.1464L7.11875 35.7705ZM7.46875 35.8473V36.3473H7.5854L7.69001 36.2956L7.46875 35.8473ZM8.86875 35.1564L9.12118 34.7248L8.88885 34.5889L8.64749 34.708L8.86875 35.1564ZM9.83125 35.4634L10.3053 35.3045L10.2152 35.0358L9.93837 34.975L9.83125 35.4634ZM10.2687 36.7684H10.7687V36.6868L10.7428 36.6095L10.2687 36.7684ZM12.7187 36.7684L12.2447 36.6095L12.2187 36.6868V36.7684H12.7187ZM13.1562 35.4634L13.0491 34.975L12.7723 35.0358L12.6822 35.3045L13.1562 35.4634ZM14.1187 35.1564L14.34 34.708L14.1828 34.6304L14.0116 34.668L14.1187 35.1564ZM15.5187 35.8473L15.8485 35.4714L15.799 35.428L15.74 35.3989L15.5187 35.8473ZM15.8687 35.7705L15.539 35.3946L15.4759 35.45L15.4343 35.5229L15.8687 35.7705ZM17.1812 34.619L16.8515 34.2432L16.8515 34.2432L17.1812 34.619ZM17.2687 34.312H17.7687V34.1655L17.6897 34.0421L17.2687 34.312ZM16.4812 33.0838L16.0832 32.7813L15.8717 33.0595L16.0603 33.3537L16.4812 33.0838ZM16.8312 32.2394L16.7063 31.7552L16.4289 31.8268L16.3504 32.1024L16.8312 32.2394ZM18.3187 31.8556V31.3556H18.2553L18.1938 31.3714L18.3187 31.8556ZM18.3187 29.7062L18.1938 30.1904L18.2553 30.2062H18.3187V29.7062ZM16.8312 29.3224L16.3504 29.4594L16.4289 29.735L16.7063 29.8065L16.8312 29.3224ZM16.3937 28.478L15.9728 28.2081L15.8096 28.4628L15.9593 28.7256L16.3937 28.478ZM17.1812 27.2498L16.8515 26.8739L16.7984 26.9205L16.7603 26.9799L17.1812 27.2498ZM17.0937 26.9427L16.764 27.3186L16.8221 27.3696L16.8929 27.4006L17.0937 26.9427ZM15.7812 25.7913L16.111 25.4154L16.111 25.4154L15.7812 25.7913ZM15.4312 25.7145V25.2145H15.3146L15.21 25.2662L15.4312 25.7145ZM14.0312 26.4054L13.7788 26.837L14.0111 26.9729L14.2525 26.8538L14.0312 26.4054ZM13.0687 26.0216L12.5947 26.1805L12.6651 26.3905L12.8679 26.4795L13.0687 26.0216ZM12.6312 24.7166H12.1312V24.7982L12.1572 24.8756L12.6312 24.7166ZM12.2799 25.0234L12.7509 24.8557L12.6326 24.5234H12.2799V25.0234ZM12.7174 26.2516H13.2174V26.1653L13.1884 26.0839L12.7174 26.2516ZM12.9799 26.4052L13.0663 25.9127L13.0234 25.9052H12.9799V26.4052ZM14.1174 26.789L14.4471 26.4131L14.389 26.3622L14.3182 26.3311L14.1174 26.789ZM14.3799 26.789L14.168 26.3361L14.1036 26.3662L14.0501 26.4131L14.3799 26.789ZM15.6924 26.1749L16.0221 25.799L15.7765 25.5835L15.4805 25.722L15.6924 26.1749ZM16.7424 27.096L17.1696 27.3558L17.3877 26.997L17.0721 26.7202L16.7424 27.096ZM16.0424 28.2475L16.3721 28.6234L16.4298 28.5728L16.4696 28.5072L16.0424 28.2475ZM16.0424 28.5545L16.4768 28.307L16.4768 28.307L16.0424 28.5545ZM16.4799 29.5525H16.9799V29.4962L16.9674 29.4413L16.4799 29.5525ZM16.6549 29.706L16.7871 29.2238L16.7222 29.206H16.6549V29.706ZM18.0549 30.0898H18.5549V29.7084L18.1871 29.6076L18.0549 30.0898ZM18.0549 31.318L18.1871 31.8002L18.5549 31.6994V31.318H18.0549ZM16.6549 31.7018V32.2018H16.7222L16.7871 32.184L16.6549 31.7018ZM16.4799 31.8554L16.9674 31.9665L16.9799 31.9116V31.8554H16.4799ZM16.0424 32.8533L16.3721 33.2291L16.4352 33.1738L16.4768 33.1009L16.0424 32.8533ZM16.0424 33.0836L16.4696 32.8238L16.4298 32.7583L16.3721 32.7077L16.0424 33.0836ZM16.7424 34.235L17.0721 34.6109L17.3877 34.334L17.1696 33.9753L16.7424 34.235ZM15.7799 35.0794L15.568 35.5323L15.864 35.6708L16.1096 35.4553L15.7799 35.0794ZM14.4674 34.4653L14.1376 34.8412L14.1911 34.888L14.2555 34.9182L14.4674 34.4653ZM14.2049 34.4653V33.9653H14.1L14.004 34.0074L14.2049 34.4653ZM13.0674 34.8491V35.3491H13.1109L13.1538 35.3416L13.0674 34.8491ZM12.8049 35.0026L12.4751 34.6268L12.3817 34.7088L12.3375 34.825L12.8049 35.0026ZM12.2799 36.3844V36.8844H12.6248L12.7473 36.562L12.2799 36.3844ZM10.8799 36.3844L10.4089 36.5521L10.5272 36.8844H10.8799V36.3844ZM10.4424 35.1562H9.94238V35.2426L9.97137 35.3239L10.4424 35.1562ZM10.1799 35.0026L10.0935 35.4951L10.1364 35.5026H10.1799V35.0026ZM9.04238 34.6188L8.71265 34.9947L8.77075 35.0457L8.84153 35.0767L9.04238 34.6188ZM8.77988 34.6188L8.99178 35.0717L9.05618 35.0416L9.10962 34.9947L8.77988 34.6188ZM7.46739 35.2329L7.12168 35.5942L7.36909 35.8309L7.67928 35.6858L7.46739 35.2329ZM6.50488 34.3118L6.07764 34.052L5.86898 34.3953L6.15917 34.673L6.50488 34.3118ZM7.20488 33.1603L6.87515 32.7845L6.81748 32.835L6.77764 32.9006L7.20488 33.1603ZM7.20488 32.93L6.77048 33.1776L6.81205 33.2505L6.87514 33.3059L7.20488 32.93ZM6.76738 31.9321H6.26738V31.9884L6.27989 32.0433L6.76738 31.9321ZM6.59238 31.7786L6.46018 32.2608L6.52509 32.2786H6.59238V31.7786ZM5.19238 31.3948H4.69238V31.7761L5.06018 31.877L5.19238 31.3948ZM5.19238 30.1666L5.06018 29.6844L4.69238 29.7852V30.1666H5.19238ZM6.59238 29.7827V29.2827H6.52509L6.46018 29.3005L6.59238 29.7827ZM6.76738 29.6292L6.27989 29.5181L6.26738 29.5729V29.6292H6.76738ZM7.20488 28.6313L6.87515 28.2554L6.81205 28.3108L6.77048 28.3837L7.20488 28.6313ZM7.20488 28.3242L7.63946 28.0766L7.63213 28.0645L7.20488 28.3242ZM6.50488 27.1728L6.17514 26.7969L5.85956 27.0738L6.07764 27.4325L6.50488 27.1728ZM7.55488 26.2516L7.76678 25.7988L7.47079 25.6603L7.22514 25.8758L7.55488 26.2516ZM8.86738 26.8657L9.19712 26.4899L9.14368 26.443L9.07928 26.4129L8.86738 26.8657ZM9.12988 26.8657L8.92903 26.4079L8.85825 26.4389L8.80014 26.4899L9.12988 26.8657ZM10.2674 26.4819V25.9819H10.2238L10.181 25.9895L10.2674 26.4819ZM10.5299 26.3284L10.8596 26.7043L10.9867 26.5928L11.0201 26.427L10.5299 26.3284ZM10.6187 23.9863C10.371 23.9863 10.1768 24.0994 10.0524 24.2358C9.94494 24.3537 9.85625 24.5265 9.85625 24.7166H10.8562C10.8562 24.7836 10.8396 24.8282 10.8313 24.8474C10.821 24.8711 10.8077 24.8916 10.7913 24.9096C10.7545 24.95 10.6915 24.9863 10.6187 24.9863V23.9863ZM9.88218 24.5577L9.44468 25.8627L10.3928 26.1805L10.8303 24.8756L9.88218 24.5577ZM9.81164 25.5332C9.39713 25.6241 9.04492 25.8205 8.7554 25.9475L9.1571 26.8633C9.56757 26.6832 9.74037 26.5726 10.0259 26.51L9.81164 25.5332ZM9.17751 25.957L7.77751 25.2662L7.33499 26.1629L8.73498 26.8538L9.17751 25.957ZM7.88599 25.3387C7.6448 25.1271 7.35744 25.1814 7.24091 25.2154C7.1009 25.2564 6.97148 25.3321 6.87651 25.4154L7.53599 26.1672C7.52861 26.1736 7.52649 26.1743 7.52927 26.1727C7.5319 26.1712 7.53013 26.1727 7.52159 26.1752C7.5152 26.1771 7.48495 26.1856 7.4372 26.1818C7.38543 26.1776 7.3029 26.1574 7.22651 26.0904L7.88599 25.3387ZM6.87651 25.4154L5.56401 26.5669L6.22349 27.3186L7.53599 26.1672L6.87651 25.4154ZM5.56401 26.5669C5.39785 26.7127 5.34552 26.9001 5.32597 27.0029C5.30511 27.1128 5.30625 27.2146 5.30625 27.2498H6.30625C6.30625 27.2301 6.30633 27.218 6.30695 27.2061C6.30755 27.1944 6.30843 27.1894 6.3084 27.1896C6.30832 27.19 6.30772 27.1931 6.30611 27.1984C6.30451 27.2037 6.30152 27.2125 6.29632 27.2236C6.28602 27.2457 6.26442 27.2827 6.22349 27.3186L5.56401 26.5669ZM5.38534 27.5197L6.17284 28.7479L7.01466 28.2081L6.22716 26.9799L5.38534 27.5197ZM6.19565 28.1755C6.07127 28.3392 5.98617 28.519 5.92006 28.664C5.8481 28.8218 5.79497 28.9465 5.72185 29.0748L6.59065 29.57C6.69253 29.3912 6.77065 29.2089 6.82994 29.0788C6.89507 28.936 6.94122 28.8471 6.99185 28.7805L6.19565 28.1755ZM6.03133 28.8383L4.54383 29.2221L4.79367 30.1904L6.28117 29.8065L6.03133 28.8383ZM4.66875 29.2062C4.52187 29.2062 4.40577 29.2629 4.3522 29.292C4.28521 29.3284 4.22493 29.3729 4.17495 29.4167C4.12548 29.4601 4.07204 29.5152 4.02643 29.5799C3.99483 29.6246 3.90625 29.7561 3.90625 29.9365H4.90625C4.90625 30.0174 4.88451 30.0759 4.87339 30.1018C4.861 30.1307 4.84867 30.1491 4.84349 30.1564C4.83343 30.1707 4.8292 30.173 4.83443 30.1684C4.83913 30.1643 4.83901 30.1656 4.82944 30.1708C4.82432 30.1736 4.8107 30.1806 4.78921 30.1877C4.76982 30.1941 4.72728 30.2062 4.66875 30.2062V29.2062ZM3.90625 29.9365V31.6253H4.90625V29.9365H3.90625ZM3.90625 31.6253C3.90625 31.7974 3.95831 32.0126 4.14214 32.1739C4.31346 32.3242 4.51909 32.3556 4.66875 32.3556V31.3556C4.64341 31.3556 4.71779 31.3486 4.80161 31.4221C4.89794 31.5066 4.90625 31.6067 4.90625 31.6253H3.90625ZM4.54383 32.3397L6.03133 32.7235L6.28117 31.7552L4.79367 31.3714L4.54383 32.3397ZM5.67539 32.3764C5.73311 32.579 5.81871 32.7515 5.88199 32.8811C5.94996 33.0202 5.99561 33.1163 6.02539 33.2208L6.98711 32.9468C6.92939 32.7442 6.84378 32.5716 6.78051 32.4421C6.71253 32.303 6.66689 32.2069 6.63711 32.1024L5.67539 32.3764ZM6.08534 32.8139L5.29784 34.0421L6.13966 34.5819L6.92716 33.3537L6.08534 32.8139ZM5.38901 33.9361C5.2218 34.0828 5.12654 34.3151 5.17285 34.5588C5.22119 34.8133 5.4027 34.988 5.6054 35.0769L6.0071 34.1612C6.0348 34.1733 6.12881 34.2329 6.15528 34.3722C6.17971 34.5008 6.1282 34.6179 6.04849 34.6879L5.38901 33.9361ZM5.47651 34.9949L6.78901 36.1464L7.44849 35.3946L6.13599 34.2432L5.47651 34.9949ZM6.78901 36.1464C6.94441 36.2827 7.12984 36.319 7.22141 36.3324C7.32776 36.3479 7.42759 36.3473 7.46875 36.3473V35.3473C7.44647 35.3473 7.42829 35.3472 7.40938 35.3465C7.39054 35.3457 7.37624 35.3444 7.36609 35.3429C7.35499 35.3413 7.35662 35.3406 7.36694 35.3443C7.37271 35.3463 7.38316 35.3505 7.39666 35.3579C7.41019 35.3654 7.42849 35.3771 7.44849 35.3946L6.78901 36.1464ZM7.69001 36.2956L9.09001 35.6048L8.64749 34.708L7.24748 35.3989L7.69001 36.2956ZM8.61632 35.588C8.96093 35.7895 9.39718 35.8801 9.72413 35.9518L9.93837 34.975C9.56532 34.8932 9.30156 34.8303 9.12118 34.7248L8.61632 35.588ZM9.35718 35.6224L9.79468 36.9273L10.7428 36.6095L10.3053 35.3045L9.35718 35.6224ZM9.76875 36.7684C9.76875 36.9488 9.85733 37.0803 9.88893 37.1251C9.93454 37.1897 9.98798 37.2448 10.0374 37.2882C10.0874 37.3321 10.1477 37.3765 10.2147 37.4129C10.2683 37.442 10.3844 37.4987 10.5312 37.4987V36.4987C10.5898 36.4987 10.6323 36.5108 10.6517 36.5172C10.6732 36.5243 10.6868 36.5313 10.6919 36.5341C10.7015 36.5393 10.7016 36.5406 10.6969 36.5365C10.6917 36.5319 10.6959 36.5342 10.706 36.5485C10.7112 36.5558 10.7235 36.5742 10.7359 36.6031C10.747 36.629 10.7687 36.6875 10.7687 36.7684H9.76875ZM10.5312 37.4987H12.4562V36.4987H10.5312V37.4987ZM12.4562 37.4987C12.6059 37.4987 12.8115 37.4673 12.9829 37.317C13.1667 37.1557 13.2187 36.9405 13.2187 36.7684H12.2187C12.2187 36.7499 12.2271 36.6498 12.3234 36.5653C12.4072 36.4917 12.4816 36.4987 12.4562 36.4987V37.4987ZM13.1928 36.9273L13.6303 35.6224L12.6822 35.3045L12.2447 36.6095L13.1928 36.9273ZM13.2634 35.9518C13.4785 35.9046 13.6637 35.8342 13.8135 35.7779C13.97 35.7191 14.091 35.6743 14.2259 35.6448L14.0116 34.668C13.7965 34.7152 13.6113 34.7856 13.4615 34.8419C13.305 34.9007 13.184 34.9455 13.0491 34.975L13.2634 35.9518ZM13.8975 35.6048L15.2975 36.2956L15.74 35.3989L14.34 34.708L13.8975 35.6048ZM15.189 36.2231C15.4975 36.4938 16.048 36.4658 16.3031 36.0181L15.4343 35.5229C15.468 35.4639 15.5371 35.4128 15.6214 35.4005C15.6895 35.3905 15.7738 35.4059 15.8485 35.4714L15.189 36.2231ZM16.1985 36.1464L17.511 34.9949L16.8515 34.2432L15.539 35.3946L16.1985 36.1464ZM17.511 34.9949C17.6771 34.8491 17.7295 34.6617 17.749 34.5588C17.7699 34.449 17.7687 34.3472 17.7687 34.312H16.7687C16.7687 34.3317 16.7687 34.3438 16.768 34.3557C16.7674 34.3674 16.7666 34.3724 16.7666 34.3722C16.7667 34.3718 16.7673 34.3687 16.7689 34.3633C16.7705 34.3581 16.7735 34.3493 16.7787 34.3382C16.789 34.3161 16.8106 34.2791 16.8515 34.2432L17.511 34.9949ZM17.6897 34.0421L16.9022 32.8139L16.0603 33.3537L16.8478 34.5819L17.6897 34.0421ZM16.8793 33.3863C17.1222 33.0667 17.2312 32.6603 17.3121 32.3764L16.3504 32.1024C16.2563 32.4326 16.1903 32.6403 16.0832 32.7813L16.8793 33.3863ZM16.9562 32.7235L18.4437 32.3397L18.1938 31.3714L16.7063 31.7552L16.9562 32.7235ZM18.3187 32.3556C18.4656 32.3556 18.5817 32.2989 18.6353 32.2698C18.7023 32.2334 18.7626 32.1889 18.8126 32.1451C18.862 32.1017 18.9155 32.0466 18.9611 31.9819C18.9927 31.9371 19.0812 31.8057 19.0812 31.6253H18.0812C18.0812 31.5444 18.103 31.4859 18.1141 31.46C18.1265 31.4311 18.1388 31.4127 18.144 31.4054C18.1541 31.3911 18.1583 31.3888 18.1531 31.3934C18.1484 31.3975 18.1485 31.3962 18.1581 31.391C18.1632 31.3882 18.1768 31.3812 18.1983 31.3741C18.2177 31.3677 18.2602 31.3556 18.3187 31.3556V32.3556ZM19.0812 31.6253V29.9365H18.0812V31.6253H19.0812ZM19.0812 29.9365C19.0812 29.7644 19.0292 29.5492 18.8454 29.3879C18.674 29.2376 18.4684 29.2062 18.3187 29.2062V30.2062C18.3441 30.2062 18.2697 30.2132 18.1859 30.1396C18.0896 30.0551 18.0812 29.9551 18.0812 29.9365H19.0812ZM18.4437 29.2221L16.9562 28.8383L16.7063 29.8065L18.1938 30.1904L18.4437 29.2221ZM17.3121 29.1854C17.2025 28.8009 16.9633 28.4675 16.8281 28.2304L15.9593 28.7256C16.1742 29.1026 16.285 29.2298 16.3504 29.4594L17.3121 29.1854ZM16.8147 28.7479L17.6022 27.5197L16.7603 26.9799L15.9728 28.2081L16.8147 28.7479ZM17.511 27.6257C17.6782 27.479 17.7735 27.2467 17.7271 27.0029C17.6788 26.7485 17.4973 26.5738 17.2946 26.4849L16.8929 27.4006C16.8652 27.3885 16.7712 27.3289 16.7447 27.1896C16.7203 27.061 16.7718 26.9439 16.8515 26.8739L17.511 27.6257ZM17.4235 26.5669L16.111 25.4154L15.4515 26.1672L16.764 27.3186L17.4235 26.5669ZM16.111 25.4154C15.9556 25.2791 15.7702 25.2428 15.6786 25.2294C15.5722 25.2138 15.4724 25.2145 15.4312 25.2145V26.2145C15.4535 26.2145 15.4717 26.2146 15.4906 26.2153C15.5095 26.2161 15.5238 26.2174 15.5339 26.2189C15.545 26.2205 15.5434 26.2212 15.5331 26.2175C15.5273 26.2155 15.5168 26.2113 15.5033 26.2039C15.4898 26.1964 15.4715 26.1847 15.4515 26.1672L16.111 25.4154ZM15.21 25.2662L13.81 25.957L14.2525 26.8538L15.6525 26.1629L15.21 25.2662ZM14.2837 25.9738C14.1064 25.8701 13.9119 25.7991 13.7484 25.7417C13.5721 25.6798 13.4222 25.6306 13.2696 25.5637L12.8679 26.4795C13.0653 26.5661 13.2654 26.632 13.4173 26.6853C13.5819 26.7431 13.6936 26.7871 13.7788 26.837L14.2837 25.9738ZM13.5428 25.8627L13.1053 24.5577L12.1572 24.8756L12.5947 26.1805L13.5428 25.8627ZM13.1312 24.7166C13.1312 24.5362 13.0427 24.4048 13.0111 24.36C12.9655 24.2953 12.912 24.2402 12.8625 24.1968C12.8126 24.153 12.7523 24.1085 12.6853 24.0721C12.6317 24.043 12.5156 23.9863 12.3687 23.9863V24.9863C12.3102 24.9863 12.2677 24.9742 12.2483 24.9678C12.2268 24.9607 12.2132 24.9537 12.2081 24.9509C12.1985 24.9457 12.1984 24.9444 12.2031 24.9485C12.2083 24.9531 12.2041 24.9508 12.194 24.9365C12.1888 24.9292 12.1765 24.9108 12.1641 24.8819C12.153 24.856 12.1312 24.7975 12.1312 24.7166H13.1312ZM12.3687 23.9863H10.6187V24.9863H12.3687V23.9863ZM10.7924 25.5234H12.2799V24.5234H10.7924V25.5234ZM11.8089 25.1912L12.2464 26.4194L13.1884 26.0839L12.7509 24.8557L11.8089 25.1912ZM12.2174 26.2516C12.2174 26.4956 12.3582 26.6762 12.5082 26.7749C12.6555 26.8718 12.8248 26.9052 12.9799 26.9052V25.9052C12.96 25.9052 12.9981 25.9002 13.0578 25.9395C13.1203 25.9806 13.2174 26.0844 13.2174 26.2516H12.2174ZM12.8935 26.8976C13.2642 26.9627 13.5633 27.0919 13.9165 27.2469L14.3182 26.3311C13.9715 26.179 13.5706 26.0012 13.0663 25.9127L12.8935 26.8976ZM13.7876 27.1649C13.892 27.2564 14.0483 27.3466 14.2486 27.3466C14.449 27.3466 14.6052 27.2564 14.7096 27.1648L14.0501 26.4131C14.067 26.3983 14.1358 26.3466 14.2486 26.3466C14.3615 26.3466 14.4302 26.3983 14.4471 26.4131L13.7876 27.1649ZM14.5918 27.2419L15.9043 26.6278L15.4805 25.722L14.168 26.3361L14.5918 27.2419ZM15.3626 26.5507L16.4126 27.4719L17.0721 26.7202L16.0221 25.799L15.3626 26.5507ZM16.3151 26.8363L15.6151 27.9878L16.4696 28.5072L17.1696 27.3558L16.3151 26.8363ZM15.7126 27.8716C15.6002 27.9702 15.4768 28.1349 15.4768 28.3722C15.4768 28.5588 15.5575 28.7135 15.608 28.8021L16.4768 28.307C16.4626 28.2821 16.4607 28.2753 16.4629 28.2813C16.4652 28.2875 16.4768 28.3208 16.4768 28.3722C16.4768 28.4298 16.4623 28.4895 16.4338 28.5426C16.4081 28.5905 16.3798 28.6166 16.3721 28.6234L15.7126 27.8716ZM15.608 28.8021C15.7864 29.1153 15.9236 29.3619 15.9924 29.6636L16.9674 29.4413C16.8611 28.9754 16.6483 28.6079 16.4768 28.307L15.608 28.8021ZM15.9799 29.5525C15.9799 29.778 16.1012 29.9429 16.2048 30.0339C16.313 30.1288 16.4702 30.206 16.6549 30.206V29.206C16.752 29.206 16.8218 29.2448 16.8643 29.2821C16.9023 29.3155 16.9799 29.4037 16.9799 29.5525H15.9799ZM16.5227 30.1882L17.9227 30.572L18.1871 29.6076L16.7871 29.2238L16.5227 30.1882ZM17.5549 30.0898V31.318H18.5549V30.0898H17.5549ZM17.9227 30.8358L16.5227 31.2196L16.7871 32.184L18.1871 31.8002L17.9227 30.8358ZM16.6549 31.2018C16.4703 31.2018 16.313 31.279 16.2048 31.3739C16.1012 31.4649 15.9799 31.6298 15.9799 31.8554H16.9799C16.9799 32.0041 16.9023 32.0923 16.8643 32.1257C16.8218 32.163 16.752 32.2018 16.6549 32.2018V31.2018ZM15.9924 31.7442C15.9236 32.0459 15.7864 32.2926 15.608 32.6057L16.4768 33.1009C16.6483 32.7999 16.8611 32.4324 16.9674 31.9665L15.9924 31.7442ZM15.7126 32.4774C15.6168 32.5615 15.4768 32.7253 15.4768 32.9684C15.4768 33.2116 15.6168 33.3754 15.7126 33.4594L16.3721 32.7077C16.3804 32.715 16.4768 32.802 16.4768 32.9684C16.4768 33.1348 16.3804 33.2218 16.3721 33.2291L15.7126 32.4774ZM15.6151 33.3433L16.3151 34.4947L17.1696 33.9753L16.4696 32.8238L15.6151 33.3433ZM16.4126 33.8591L15.4501 34.7035L16.1096 35.4553L17.0721 34.6109L16.4126 33.8591ZM15.9918 34.6265L14.6793 34.0124L14.2555 34.9182L15.568 35.5323L15.9918 34.6265ZM14.7971 34.0894C14.708 34.0113 14.6009 33.9589 14.4829 33.9395C14.3735 33.9215 14.2819 33.9365 14.229 33.9481C14.2021 33.954 14.1789 33.9606 14.165 33.9646C14.1454 33.9702 14.1457 33.9703 14.1383 33.9723C14.1275 33.9752 14.158 33.9653 14.2049 33.9653V34.9653C14.2955 34.9653 14.3697 34.9457 14.4027 34.9367C14.4172 34.9327 14.4393 34.9262 14.4416 34.9255C14.4496 34.9233 14.4482 34.9238 14.4432 34.9249C14.4341 34.9269 14.3863 34.9371 14.3206 34.9263C14.2866 34.9207 14.2519 34.9102 14.2183 34.8941C14.185 34.8781 14.1582 34.8592 14.1376 34.8412L14.7971 34.0894ZM14.004 34.0074C13.6508 34.1624 13.3517 34.2916 12.981 34.3566L13.1538 35.3416C13.6581 35.2531 14.059 35.0753 14.4057 34.9232L14.004 34.0074ZM13.0674 34.3491C12.8801 34.3491 12.7373 34.4294 12.6613 34.4794C12.5831 34.5308 12.5125 34.594 12.4751 34.6268L13.1346 35.3785C13.1576 35.3583 13.1735 35.3445 13.1881 35.3324C13.2025 35.3206 13.2093 35.3158 13.211 35.3148C13.2129 35.3135 13.2023 35.3209 13.1809 35.3291C13.1586 35.3377 13.1193 35.3491 13.0674 35.3491V34.3491ZM12.3375 34.825L11.8125 36.2068L12.7473 36.562L13.2723 35.1802L12.3375 34.825ZM12.2799 35.8844H10.8799V36.8844H12.2799V35.8844ZM11.3509 36.2166L10.9134 34.9884L9.97137 35.3239L10.4089 36.5521L11.3509 36.2166ZM10.9424 35.1562C10.9424 34.9122 10.8015 34.7316 10.6516 34.6329C10.5043 34.536 10.335 34.5026 10.1799 34.5026V35.5026C10.1998 35.5026 10.1617 35.5076 10.1019 35.4683C10.0395 35.4272 9.94238 35.3234 9.94238 35.1562H10.9424ZM10.2663 34.5102C9.89555 34.4451 9.59646 34.3159 9.24323 34.1609L8.84153 35.0767C9.18831 35.2288 9.58921 35.4066 10.0935 35.4951L10.2663 34.5102ZM9.37212 34.243C9.26771 34.1514 9.11148 34.0612 8.91113 34.0612C8.71078 34.0612 8.55455 34.1514 8.45014 34.243L9.10962 34.9947C9.09272 35.0095 9.02399 35.0612 8.91113 35.0612C8.79828 35.0612 8.72955 35.0095 8.71265 34.9947L9.37212 34.243ZM8.56799 34.1659L7.25549 34.78L7.67928 35.6858L8.99178 35.0717L8.56799 34.1659ZM7.8131 34.8717L6.85059 33.9505L6.15917 34.673L7.12168 35.5942L7.8131 34.8717ZM6.93213 34.5715L7.63213 33.4201L6.77764 32.9006L6.07764 34.052L6.93213 34.5715ZM7.53462 33.5362C7.63046 33.4521 7.77051 33.2883 7.77051 33.0452C7.77051 32.802 7.63046 32.6382 7.53462 32.5542L6.87514 33.3059C6.86681 33.2986 6.77051 33.2116 6.77051 33.0452C6.77051 32.8788 6.86681 32.7918 6.87515 32.7845L7.53462 33.5362ZM7.63928 32.6825C7.46081 32.3693 7.32365 32.1227 7.25488 31.821L6.27989 32.0433C6.38612 32.5092 6.59895 32.8766 6.77048 33.1776L7.63928 32.6825ZM7.26738 31.9321C7.26738 31.7066 7.14608 31.5416 7.04244 31.4507C6.93427 31.3558 6.77702 31.2786 6.59238 31.2786V32.2786C6.49525 32.2786 6.4255 32.2397 6.38295 32.2024C6.34494 32.1691 6.26738 32.0809 6.26738 31.9321H7.26738ZM6.72458 31.2964L5.32458 30.9126L5.06018 31.877L6.46018 32.2608L6.72458 31.2964ZM5.69238 31.3948V30.1666H4.69238V31.3948H5.69238ZM5.32458 30.6488L6.72458 30.265L6.46018 29.3005L5.06018 29.6844L5.32458 30.6488ZM6.59238 30.2827C6.77701 30.2827 6.93426 30.2055 7.04243 30.1106C7.14608 30.0197 7.26738 29.8548 7.26738 29.6292H6.26738C6.26738 29.4804 6.34494 29.3923 6.38296 29.3589C6.4255 29.3216 6.49525 29.2827 6.59238 29.2827V30.2827ZM7.25488 29.7404C7.32365 29.4387 7.46081 29.192 7.63928 28.8789L6.77048 28.3837C6.59895 28.6847 6.38612 29.0521 6.27989 29.5181L7.25488 29.7404ZM7.53462 29.0072C7.64702 28.9086 7.77051 28.7439 7.77051 28.5066C7.77051 28.32 7.68977 28.1653 7.63928 28.0767L6.77048 28.5718C6.78467 28.5967 6.78656 28.6035 6.78437 28.5975C6.78209 28.5913 6.77051 28.558 6.77051 28.5066C6.77051 28.449 6.785 28.3893 6.81349 28.3362C6.83918 28.2883 6.86747 28.2622 6.87515 28.2554L7.53462 29.0072ZM7.63213 28.0645L6.93213 26.9131L6.07764 27.4325L6.77764 28.584L7.63213 28.0645ZM6.83462 27.5487L7.88462 26.6275L7.22514 25.8758L6.17514 26.7969L6.83462 27.5487ZM7.34299 26.7045L8.65549 27.3186L9.07928 26.4129L7.76678 25.7988L7.34299 26.7045ZM8.53765 27.2416C8.64205 27.3332 8.79828 27.4233 8.99863 27.4233C9.19898 27.4233 9.35521 27.3332 9.45962 27.2416L8.80014 26.4899C8.81705 26.4751 8.88578 26.4233 8.99863 26.4233C9.11148 26.4233 9.18021 26.4751 9.19712 26.4899L8.53765 27.2416ZM9.33073 27.3236C9.68396 27.1687 9.98305 27.0395 10.3538 26.9744L10.181 25.9895C9.67671 26.0779 9.2758 26.2558 8.92903 26.4079L9.33073 27.3236ZM10.2674 26.9819C10.4547 26.9819 10.5975 26.9016 10.6735 26.8517C10.7517 26.8002 10.8223 26.737 10.8596 26.7043L10.2001 25.9526C10.1771 25.9727 10.1613 25.9866 10.1466 25.9986C10.1323 26.0104 10.1254 26.0152 10.1238 26.0163C10.1219 26.0175 10.1325 26.0101 10.1538 26.0019C10.1761 25.9934 10.2155 25.9819 10.2674 25.9819V26.9819ZM11.0201 26.427L11.2826 25.122L10.3022 24.9248L10.0397 26.2298L11.0201 26.427ZM11.5799 28.0547C10.0547 28.0547 8.62988 29.217 8.62988 30.7041H9.62988C9.62988 29.8882 10.48 29.0547 11.5799 29.0547V28.0547ZM8.62988 30.7041C8.62988 32.1911 10.0547 33.3534 11.5799 33.3534V32.3534C10.48 32.3534 9.62988 31.5199 9.62988 30.7041H8.62988ZM11.5799 33.3534C13.105 33.3534 14.5299 32.1911 14.5299 30.7041H13.5299C13.5299 31.5199 12.6797 32.3534 11.5799 32.3534V33.3534ZM14.5299 30.7041C14.5299 29.217 13.105 28.0547 11.5799 28.0547V29.0547C12.6797 29.0547 13.5299 29.8882 13.5299 30.7041H14.5299ZM11.5826 29.5918C12.42 29.5918 12.9201 30.1183 12.9201 30.7038H13.9201C13.9201 29.447 12.8453 28.5918 11.5826 28.5918V29.5918ZM12.9201 30.7038C12.9201 31.2893 12.42 31.8158 11.5826 31.8158V32.8158C12.8453 32.8158 13.9201 31.9606 13.9201 30.7038H12.9201ZM11.5826 31.8158C10.7453 31.8158 10.2451 31.2893 10.2451 30.7038H9.24512C9.24512 31.9606 10.32 32.8158 11.5826 32.8158V31.8158ZM10.2451 30.7038C10.2451 30.1183 10.7453 29.5918 11.5826 29.5918V28.5918C10.32 28.5918 9.24512 29.447 9.24512 30.7038H10.2451Z" fill="#FF5900"/>
<ellipse cx="8.17969" cy="7.21791" rx="2.1875" ry="1.91908" stroke="#2C007D"/>
<ellipse cx="11.6836" cy="30.6808" rx="2.1875" ry="1.91908" stroke="#2C007D"/>
<ellipse cx="20.4273" cy="17.9656" rx="2.7125" ry="2.37966" stroke="#2C007D"/>
</svg>
