<svg width="36" height="36" viewBox="0 0 36 36" fill="none" xmlns="http://www.w3.org/2000/svg">
<mask id="mask0_3183_26878" style="mask-type:luminance" maskUnits="userSpaceOnUse" x="0" y="-1" width="36" height="37">
<rect y="-0.000976562" width="36" height="36" fill="white"/>
</mask>
<g mask="url(#mask0_3183_26878)">
<path fill-rule="evenodd" clip-rule="evenodd" d="M17.999 0.267578C8.19896 0.267578 0.265625 8.20091 0.265625 18.0009C0.265625 27.8009 8.19896 35.7342 17.999 35.7342C27.799 35.7342 35.7323 27.8009 35.7323 18.0009C35.7323 8.20091 27.799 0.267578 17.999 0.267578ZM17.9981 33.7334C9.33145 33.7334 2.26478 26.6667 2.26478 18.0001C2.26478 9.3334 9.33145 2.26673 17.9981 2.26673C26.6648 2.26673 33.7314 9.3334 33.7314 18.0001C33.7314 26.6667 26.6648 33.7334 17.9981 33.7334Z" fill="#2C007D"/>
<path d="M25.5294 23.8663L18.9961 17.4663V5.59961C18.9961 5.06628 18.5294 4.59961 17.9961 4.59961C17.4628 4.59961 16.9961 5.06628 16.9961 5.59961V17.9996V18.0663C16.9961 18.2663 17.0628 18.3996 17.1961 18.5329L24.1294 25.2663C24.5294 25.6663 25.1294 25.5996 25.5294 25.2663C25.9294 24.8663 25.9294 24.2663 25.5294 23.8663Z" fill="#FF5900"/>
</g>
</svg>
