<svg width="40" height="38" viewBox="0 0 40 38" fill="none" xmlns="http://www.w3.org/2000/svg">
<path fill-rule="evenodd" clip-rule="evenodd" d="M25.3417 3.69924C25.2514 3.60725 25.0706 3.69924 24.9802 3.79123C24.7995 4.0672 24.5284 4.89512 24.438 5.53906C24.438 5.72304 24.5284 5.81503 24.7091 5.81503C24.7995 5.81503 24.9802 5.72304 24.9802 5.53906C25.0706 4.98711 25.3417 4.15919 25.5225 3.97521C25.5225 3.97521 25.5225 3.79123 25.3417 3.69924ZM22.4521 4.07052C22.3617 3.97853 22.181 3.88654 22.0906 3.97853C22.0002 4.07052 21.9099 4.25451 22.0002 4.3465C22.0002 4.3465 22.3617 5.08242 22.5425 5.72636C22.5425 5.81835 22.7232 5.91034 22.8136 5.91034H22.904C23.0848 5.81835 23.1751 5.72636 23.0848 5.54238C22.8136 4.80645 22.4521 4.07052 22.4521 4.07052ZM25.3417 3.69924C25.2514 3.60725 25.0706 3.69924 24.9802 3.79123C24.7995 4.0672 24.5284 4.89512 24.438 5.53906C24.438 5.72304 24.5284 5.81503 24.7091 5.81503C24.7995 5.81503 24.9802 5.72304 24.9802 5.53906C25.0706 4.98711 25.3417 4.15919 25.5225 3.97521C25.5225 3.97521 25.5225 3.79123 25.3417 3.69924ZM22.0906 3.97853C22.0002 4.07053 21.9099 4.25451 22.0002 4.3465C22.0002 4.3465 22.3617 5.08243 22.5425 5.72636C22.5425 5.81835 22.7232 5.91034 22.8136 5.91034H22.904C23.0848 5.81835 23.1751 5.72636 23.0848 5.54238C22.904 4.80645 22.5425 4.16252 22.5425 4.07052C22.3617 3.97853 22.181 3.88654 22.0906 3.97853ZM28.9562 2.0441C28.7754 1.58415 28.0524 1.58415 27.5102 1.76813H27.4198C26.6064 2.13609 26.0641 2.22808 25.6123 1.76813C24.8892 1.0322 23.624 0.664239 22.4491 1.40017C21.6357 1.95211 20.8223 1.86012 20.1897 1.67614C19.3763 1.49216 18.7436 1.58415 18.5629 2.0441C18.4725 2.22808 18.3821 2.59605 19.0148 3.14799C19.8282 3.79193 21.0934 6.45967 21.0934 6.45967L21.1838 6.64365H26.1545L26.2449 6.45967C26.2449 6.45967 27.1487 4.0679 28.3235 3.14799C28.9562 2.78003 29.1369 2.32008 28.9562 2.0441ZM28.038 2.78142C26.9535 3.60934 26.0497 5.54115 25.869 6.18508H21.6213C21.3501 5.63314 20.2656 3.51735 19.4522 2.78142C19.0907 2.50545 19.0907 2.41345 19.0907 2.41345C19.0907 2.32146 19.4522 2.22947 20.0849 2.32146C20.5367 2.41345 21.6213 2.68943 22.7962 1.9535C23.7903 1.30956 24.6941 1.67753 25.2363 2.22947C25.9593 2.9654 26.8631 2.59744 27.6765 2.32146H27.7669C28.2187 2.13748 28.5803 2.22947 28.5803 2.22947C28.4899 2.22947 28.4899 2.41345 28.038 2.78142ZM24.9802 3.79238C24.7995 4.06835 24.5284 4.89627 24.438 5.54021C24.438 5.72419 24.5284 5.81618 24.7091 5.81618C24.7995 5.81618 24.9802 5.72419 24.9802 5.54021C25.0706 4.98826 25.3417 4.16034 25.5225 3.97636C25.6129 3.88437 25.5225 3.70039 25.4321 3.6084C25.2514 3.6084 25.0706 3.6084 24.9802 3.79238ZM22.0906 3.97853C22.0002 4.07053 21.9099 4.25451 22.0002 4.3465C22.0002 4.3465 22.3617 5.08243 22.5425 5.72636C22.5425 5.81835 22.7232 5.91034 22.8136 5.91034H22.904C23.0848 5.81835 23.1751 5.72636 23.0848 5.54238C22.904 4.80645 22.5425 4.16252 22.5425 4.07052C22.3617 3.97853 22.181 3.88654 22.0906 3.97853ZM33.7389 16.6799C32.5641 11.8044 29.5816 7.94081 26.1473 6.83691H21.3574H21.267C17.9231 7.75682 15.031 11.7124 13.9465 16.6799C13.4946 18.7037 13.585 20.3596 14.2176 21.7394C14.3984 21.6475 14.5791 21.6475 14.7599 21.6475C14.1272 20.3596 14.0369 18.7957 14.4887 16.8639C15.4829 12.1724 18.2846 8.30877 21.3574 7.48085H25.9666C29.1297 8.49275 32.0218 12.2644 33.1063 16.8639C33.6486 19.0717 33.2871 20.9115 32.2025 22.2914C30.9373 23.9472 28.4971 25.0511 25.3339 25.3271C25.3339 25.5111 25.3339 25.6951 25.3339 25.879C28.5875 25.6031 31.2084 24.4992 32.5641 22.6594C33.9197 21.0035 34.2812 19.0717 33.7389 16.6799Z" fill="#FF5900"/>
<path d="M24.9802 3.79123L24.6236 3.44082L24.589 3.47601L24.562 3.51728L24.9802 3.79123ZM24.438 5.53906L23.9428 5.46956L23.938 5.50414V5.53906H24.438ZM24.9802 5.53906L24.4868 5.45826L24.4802 5.49839V5.53906H24.9802ZM25.5225 3.97521L25.8792 4.32562L26.0225 4.17973V3.97521H25.5225ZM22.0906 3.97853L21.7339 3.62812L21.7339 3.62812L22.0906 3.97853ZM22.0002 4.3465L22.449 4.12605L22.4134 4.05363L22.3569 3.99609L22.0002 4.3465ZM22.5425 5.72636H23.0425V5.65752L23.0239 5.59123L22.5425 5.72636ZM22.904 5.91034V6.41034H23.0239L23.1308 6.35595L22.904 5.91034ZM23.0848 5.54238L22.6156 5.71523L22.6245 5.73956L22.636 5.76283L23.0848 5.54238ZM24.9802 3.79123L24.6236 3.44082L24.589 3.47601L24.562 3.51728L24.9802 3.79123ZM24.438 5.53906L23.9428 5.46956L23.938 5.50414V5.53906H24.438ZM24.9802 5.53906L24.4868 5.45826L24.4802 5.49839V5.53906H24.9802ZM25.5225 3.97521L25.8792 4.32562L26.0225 4.17973V3.97521H25.5225ZM22.0002 4.3465L22.449 4.12605L22.4134 4.05364L22.3569 3.99609L22.0002 4.3465ZM22.5425 5.72636H23.0425V5.65752L23.0239 5.59123L22.5425 5.72636ZM22.904 5.91034V6.41034H23.0239L23.1308 6.35595L22.904 5.91034ZM23.0848 5.54238L22.5992 5.66164L22.6121 5.71423L22.636 5.76283L23.0848 5.54238ZM22.5425 4.07052H23.0425V3.76396L22.7693 3.62491L22.5425 4.07052ZM27.5102 1.76813V2.26813H27.5927L27.6708 2.24162L27.5102 1.76813ZM27.4198 1.76813V1.26813H27.3119L27.2137 1.31258L27.4198 1.76813ZM25.6123 1.76813L25.9689 1.41772L25.9689 1.41772L25.6123 1.76813ZM22.4491 1.40017L22.1837 0.97643L22.1759 0.981289L22.1683 0.98643L22.4491 1.40017ZM20.1897 1.67614L20.3293 1.19603L20.3147 1.1918L20.3 1.18846L20.1897 1.67614ZM18.5629 2.0441L19.0117 2.26455L19.0207 2.24611L19.0282 2.22698L18.5629 2.0441ZM19.0148 3.14799L18.6861 3.52476L18.6951 3.53261L18.7044 3.54002L19.0148 3.14799ZM21.0934 6.45967L20.6416 6.67395L20.6446 6.68012L21.0934 6.45967ZM21.1838 6.64365L20.735 6.8641L20.8723 7.14365H21.1838V6.64365ZM26.1545 6.64365V7.14365H26.466L26.6033 6.8641L26.1545 6.64365ZM26.2449 6.45967L26.6937 6.68012L26.7042 6.65871L26.7126 6.6364L26.2449 6.45967ZM28.3235 3.14799L28.0722 2.71578L28.0424 2.73309L28.0153 2.75431L28.3235 3.14799ZM25.869 6.18508V6.68508H26.2479L26.3503 6.32021L25.869 6.18508ZM21.6213 6.18508L21.1725 6.40553L21.3098 6.68508H21.6213V6.18508ZM19.4522 2.78142L19.7877 2.41065L19.7722 2.39665L19.7556 2.38399L19.4522 2.78142ZM19.0907 2.41345H18.5907H19.0907ZM20.0849 2.32146L20.1846 1.83151L20.1708 1.8287L20.1568 1.82667L20.0849 2.32146ZM22.7962 1.9535L23.0616 2.37729L23.068 2.37316L22.7962 1.9535ZM25.2363 2.22947L24.8796 2.57988V2.57988L25.2363 2.22947ZM27.6765 2.32146V1.82146H27.594L27.5158 1.84798L27.6765 2.32146ZM27.7669 2.32146V2.82146H27.8647L27.9554 2.78455L27.7669 2.32146ZM28.5803 2.22947V2.72947L28.7036 1.74492L28.5803 2.22947ZM24.438 5.54021L23.9428 5.47071L23.938 5.50529V5.54021H24.438ZM24.9802 5.54021L24.4868 5.45941L24.4802 5.49954V5.54021H24.9802ZM25.5225 3.97636L25.8792 4.32677L25.8792 4.32677L25.5225 3.97636ZM25.4321 3.6084L25.7888 3.25799L25.6418 3.1084H25.4321V3.6084ZM22.0002 4.3465L22.449 4.12605L22.4134 4.05364L22.3569 3.99609L22.0002 4.3465ZM22.5425 5.72636H23.0425V5.65752L23.0239 5.59123L22.5425 5.72636ZM22.904 5.91034V6.41034H23.0239L23.1308 6.35595L22.904 5.91034ZM23.0848 5.54238L22.5992 5.66164L22.6121 5.71423L22.636 5.76283L23.0848 5.54238ZM22.5425 4.07052H23.0425V3.76396L22.7693 3.62491L22.5425 4.07052ZM26.1473 6.83691L26.3003 6.3609L26.2257 6.33691H26.1473V6.83691ZM21.267 6.83691V6.33691H21.1995L21.1344 6.35482L21.267 6.83691ZM13.9465 16.6799L14.4345 16.7889L14.435 16.7866L13.9465 16.6799ZM14.2176 21.7394L13.7631 21.9478L13.9802 22.4213L14.4444 22.1851L14.2176 21.7394ZM14.7599 21.6475V22.1475H15.5626L15.2087 21.427L14.7599 21.6475ZM14.4887 16.8639L14.9757 16.9778L14.9779 16.9676L14.4887 16.8639ZM21.3574 7.48085V6.98085H21.2912L21.2273 6.99807L21.3574 7.48085ZM25.9666 7.48085L26.1189 7.00462L26.0446 6.98085H25.9666V7.48085ZM33.1063 16.8639L32.6196 16.9787L32.6207 16.9832L33.1063 16.8639ZM32.2025 22.2914L31.8094 21.9824L31.8053 21.9878L32.2025 22.2914ZM25.3339 25.3271L25.2905 24.829L24.8339 24.8688V25.3271H25.3339ZM25.3339 25.879H24.8339V26.4232L25.3762 26.3772L25.3339 25.879ZM32.5641 22.6594L32.1772 22.3426L32.1691 22.3525L32.1615 22.3628L32.5641 22.6594ZM25.6984 3.34883C25.4498 3.09574 25.1331 3.15772 25.0003 3.20275C24.8496 3.25389 24.7166 3.34613 24.6236 3.44082L25.3369 4.14164C25.3343 4.14434 25.3368 4.14458 25.3216 4.14973C25.3121 4.15297 25.2732 4.16524 25.2138 4.15974C25.1459 4.15346 25.0577 4.12352 24.9851 4.04964L25.6984 3.34883ZM24.562 3.51728C24.4312 3.71696 24.3016 4.0499 24.1984 4.37659C24.0906 4.71794 23.9928 5.11362 23.9428 5.46956L24.9331 5.60855C24.9735 5.32056 25.0565 4.98031 25.152 4.67772C25.2522 4.36047 25.3485 4.14147 25.3985 4.06518L24.562 3.51728ZM23.938 5.53906C23.938 5.70592 23.979 5.92333 24.1491 6.09645C24.3208 6.2712 24.5394 6.31503 24.7091 6.31503V5.31503C24.6981 5.31503 24.7811 5.31286 24.8624 5.39563C24.9421 5.47675 24.938 5.55618 24.938 5.53906H23.938ZM24.7091 6.31503C24.8885 6.31503 25.0647 6.23927 25.1943 6.13375C25.3402 6.01494 25.4802 5.81328 25.4802 5.53906H24.4802C24.4802 5.44881 24.5299 5.38514 24.5629 5.35832C24.5778 5.34617 24.5929 5.3378 24.6088 5.3316C24.6211 5.32686 24.655 5.31503 24.7091 5.31503V6.31503ZM25.4737 5.61985C25.5135 5.37637 25.5962 5.05855 25.6909 4.78013C25.7379 4.64166 25.7851 4.52158 25.8274 4.43077C25.8774 4.3235 25.8986 4.30586 25.8792 4.32562L25.1658 3.6248C25.056 3.73655 24.9755 3.8914 24.921 4.00835C24.8588 4.14177 24.7987 4.29766 24.7441 4.45816C24.6354 4.77768 24.5373 5.1498 24.4868 5.45826L25.4737 5.61985ZM25.5225 3.97521C26.0225 3.97521 26.0225 3.97497 26.0225 3.97473C26.0225 3.97465 26.0225 3.9744 26.0225 3.97424C26.0225 3.97391 26.0225 3.97358 26.0225 3.97325C26.0225 3.97258 26.0225 3.97189 26.0225 3.97119C26.0225 3.9698 26.0225 3.96834 26.0224 3.96682C26.0224 3.96379 26.0223 3.96052 26.0222 3.95702C26.022 3.95004 26.0216 3.94211 26.021 3.93333C26.0198 3.91583 26.0177 3.89455 26.0141 3.8703C26.0068 3.82249 25.9929 3.75917 25.9653 3.68885C25.9082 3.54355 25.7904 3.36657 25.5685 3.25363L25.115 4.14485C25.0738 4.1239 25.0465 4.0849 25.0345 4.05459C25.0295 4.04177 25.0269 4.03019 25.0253 4.01975C25.0245 4.01419 25.0238 4.008 25.0233 4.00092C25.023 3.99735 25.0229 3.99346 25.0227 3.98922C25.0226 3.98709 25.0226 3.98487 25.0226 3.98254C25.0225 3.98137 25.0225 3.98018 25.0225 3.97896C25.0225 3.97835 25.0225 3.97773 25.0225 3.97711C25.0225 3.97679 25.0225 3.97648 25.0225 3.97616C25.0225 3.97601 25.0225 3.97577 25.0225 3.97569C25.0225 3.97545 25.0225 3.97521 25.5225 3.97521ZM22.8088 3.72011C22.7158 3.62542 22.5827 3.53319 22.432 3.48205C22.2993 3.43701 21.9826 3.37504 21.7339 3.62812L22.4473 4.32894C22.3747 4.40282 22.2864 4.43276 22.2186 4.43904C22.1591 4.44454 22.1203 4.43227 22.1107 4.42902C22.0955 4.42388 22.0981 4.42363 22.0954 4.42093L22.8088 3.72011ZM21.7339 3.62812C21.6408 3.72293 21.5516 3.85697 21.5025 4.0069C21.4598 4.13719 21.3995 4.4485 21.6436 4.69691L22.3569 3.99609C22.4288 4.06931 22.4559 4.15567 22.4615 4.21865C22.4665 4.27435 22.4554 4.31017 22.4528 4.31813C22.4489 4.33008 22.45 4.32613 22.4473 4.32894L21.7339 3.62812ZM22.0002 4.3465C21.5515 4.56695 21.5514 4.56692 21.5514 4.56689C21.5514 4.56689 21.5514 4.56686 21.5514 4.56685C21.5514 4.56683 21.5514 4.56682 21.5514 4.56682C21.5514 4.56682 21.5514 4.56687 21.5515 4.56696C21.5515 4.56714 21.5517 4.56749 21.552 4.56802C21.5525 4.56907 21.5533 4.57081 21.5545 4.5732C21.5568 4.578 21.5604 4.58544 21.5652 4.59532C21.5746 4.61508 21.5886 4.64456 21.6061 4.68216C21.641 4.75746 21.6897 4.86476 21.7438 4.99136C21.8533 5.24789 21.9793 5.57001 22.0611 5.86149L23.0239 5.59123C22.9249 5.23877 22.7798 4.87097 22.6634 4.59854C22.6045 4.46067 22.5515 4.34375 22.513 4.26094C22.4938 4.21948 22.4781 4.18644 22.4671 4.16344C22.4616 4.15193 22.4572 4.14293 22.4542 4.13663C22.4526 4.13348 22.4514 4.13101 22.4506 4.12924C22.4501 4.12835 22.4498 4.12764 22.4495 4.12711C22.4494 4.12684 22.4493 4.12662 22.4492 4.12644C22.4492 4.12635 22.4491 4.12628 22.4491 4.12621C22.4491 4.12618 22.4491 4.12614 22.449 4.12612C22.449 4.12608 22.449 4.12605 22.0002 4.3465ZM22.0425 5.72636C22.0425 5.91428 22.1325 6.0488 22.1915 6.11806C22.2543 6.19191 22.3258 6.24429 22.3836 6.27956C22.4843 6.34108 22.6433 6.41034 22.8136 6.41034V5.41034C22.8428 5.41034 22.8635 5.41382 22.8733 5.41576C22.8841 5.4179 22.8909 5.42006 22.8938 5.42104C22.8986 5.42267 22.9011 5.42388 22.9048 5.42613C22.906 5.42691 22.9267 5.43904 22.9528 5.46977C22.9751 5.49591 23.0425 5.58444 23.0425 5.72636H22.0425ZM22.8136 6.41034H22.904V5.41034H22.8136V6.41034ZM23.1308 6.35595C23.2257 6.30765 23.4133 6.20735 23.5268 6.01476C23.6737 5.76549 23.6253 5.50874 23.5335 5.32193L22.636 5.76283C22.6379 5.76684 22.6225 5.73784 22.6204 5.68419C22.618 5.62287 22.6342 5.55971 22.6653 5.50695C22.6923 5.46113 22.7202 5.44064 22.7206 5.44036C22.721 5.44009 22.7101 5.44801 22.6772 5.46473L23.1308 6.35595ZM23.5539 5.36953C23.4128 4.98641 23.2495 4.60677 23.1227 4.32519C23.059 4.18381 23.004 4.06587 22.9647 3.98297C22.9451 3.9415 22.9293 3.90873 22.9184 3.88611C22.9129 3.8748 22.9087 3.86602 22.9057 3.85995C22.9042 3.85692 22.9031 3.85457 22.9023 3.85291C22.9019 3.85209 22.9016 3.85143 22.9013 3.85096C22.9012 3.85072 22.9011 3.85053 22.901 3.85038C22.901 3.85031 22.901 3.85025 22.901 3.85019C22.9009 3.85017 22.9009 3.85014 22.9009 3.85013C22.9009 3.8501 22.9009 3.85007 22.4521 4.07052C22.0033 4.29098 22.0033 4.29096 22.0033 4.29094C22.0033 4.29094 22.0033 4.29093 22.0033 4.29092C22.0033 4.29092 22.0033 4.29092 22.0033 4.29094C22.0033 4.29097 22.0034 4.29104 22.0034 4.29116C22.0035 4.2914 22.0037 4.29182 22.004 4.2924C22.0046 4.29358 22.0055 4.29545 22.0068 4.29798C22.0092 4.30306 22.013 4.31081 22.018 4.32106C22.0279 4.34156 22.0425 4.37204 22.061 4.41105C22.098 4.48913 22.1502 4.60117 22.2108 4.73577C22.3326 5.00613 22.4856 5.36242 22.6156 5.71523L23.5539 5.36953ZM25.6984 3.34883C25.4498 3.09574 25.1331 3.15772 25.0003 3.20275C24.8496 3.25389 24.7166 3.34613 24.6236 3.44082L25.3369 4.14164C25.3343 4.14434 25.3368 4.14458 25.3216 4.14973C25.3121 4.15297 25.2732 4.16524 25.2138 4.15974C25.1459 4.15346 25.0577 4.12352 24.9851 4.04964L25.6984 3.34883ZM24.562 3.51728C24.4312 3.71696 24.3016 4.0499 24.1984 4.37659C24.0906 4.71794 23.9928 5.11362 23.9428 5.46956L24.9331 5.60855C24.9735 5.32056 25.0565 4.98031 25.152 4.67772C25.2522 4.36047 25.3485 4.14147 25.3985 4.06518L24.562 3.51728ZM23.938 5.53906C23.938 5.70592 23.979 5.92333 24.1491 6.09645C24.3208 6.2712 24.5394 6.31503 24.7091 6.31503V5.31503C24.6981 5.31503 24.7811 5.31286 24.8624 5.39563C24.9421 5.47675 24.938 5.55618 24.938 5.53906H23.938ZM24.7091 6.31503C24.8885 6.31503 25.0647 6.23927 25.1943 6.13375C25.3402 6.01494 25.4802 5.81328 25.4802 5.53906H24.4802C24.4802 5.44881 24.5299 5.38514 24.5629 5.35832C24.5778 5.34617 24.5929 5.3378 24.6088 5.3316C24.6211 5.32686 24.655 5.31503 24.7091 5.31503V6.31503ZM25.4737 5.61985C25.5135 5.37637 25.5962 5.05855 25.6909 4.78013C25.7379 4.64166 25.7851 4.52158 25.8274 4.43077C25.8774 4.3235 25.8986 4.30586 25.8792 4.32562L25.1658 3.6248C25.056 3.73655 24.9755 3.8914 24.921 4.00835C24.8588 4.14177 24.7987 4.29766 24.7441 4.45816C24.6354 4.77768 24.5373 5.1498 24.4868 5.45826L25.4737 5.61985ZM25.5225 3.97521C26.0225 3.97521 26.0225 3.97497 26.0225 3.97473C26.0225 3.97465 26.0225 3.9744 26.0225 3.97424C26.0225 3.97391 26.0225 3.97358 26.0225 3.97325C26.0225 3.97258 26.0225 3.97189 26.0225 3.97119C26.0225 3.9698 26.0225 3.96834 26.0224 3.96682C26.0224 3.96379 26.0223 3.96052 26.0222 3.95702C26.022 3.95004 26.0216 3.94211 26.021 3.93333C26.0198 3.91583 26.0177 3.89455 26.0141 3.8703C26.0068 3.82249 25.9929 3.75917 25.9653 3.68885C25.9082 3.54355 25.7904 3.36657 25.5685 3.25363L25.115 4.14485C25.0738 4.1239 25.0465 4.0849 25.0345 4.05459C25.0295 4.04177 25.0269 4.03019 25.0253 4.01975C25.0245 4.01419 25.0238 4.008 25.0233 4.00092C25.023 3.99735 25.0229 3.99346 25.0227 3.98922C25.0226 3.98709 25.0226 3.98487 25.0226 3.98254C25.0225 3.98137 25.0225 3.98018 25.0225 3.97896C25.0225 3.97835 25.0225 3.97773 25.0225 3.97711C25.0225 3.97679 25.0225 3.97648 25.0225 3.97616C25.0225 3.97601 25.0225 3.97577 25.0225 3.97569C25.0225 3.97545 25.0225 3.97521 25.5225 3.97521ZM21.7339 3.62812C21.6408 3.72293 21.5516 3.85697 21.5025 4.00691C21.4598 4.13719 21.3995 4.4485 21.6436 4.69691L22.3569 3.99609C22.4288 4.06931 22.4559 4.15568 22.4615 4.21865C22.4665 4.27435 22.4554 4.31017 22.4528 4.31813C22.4489 4.33008 22.45 4.32613 22.4473 4.32894L21.7339 3.62812ZM22.0002 4.3465C21.5515 4.56695 21.5514 4.56692 21.5514 4.56689C21.5514 4.56689 21.5514 4.56686 21.5514 4.56685C21.5514 4.56683 21.5514 4.56682 21.5514 4.56682C21.5514 4.56682 21.5514 4.56687 21.5515 4.56696C21.5515 4.56714 21.5517 4.56749 21.552 4.56802C21.5525 4.56907 21.5533 4.57081 21.5545 4.57321C21.5568 4.578 21.5604 4.58544 21.5652 4.59532C21.5746 4.61508 21.5886 4.64456 21.6061 4.68216C21.641 4.75746 21.6897 4.86476 21.7438 4.99136C21.8533 5.24789 21.9793 5.57001 22.0611 5.86149L23.0239 5.59123C22.9249 5.23878 22.7798 4.87097 22.6634 4.59855C22.6045 4.46067 22.5515 4.34375 22.513 4.26094C22.4938 4.21948 22.4781 4.18644 22.4671 4.16344C22.4616 4.15193 22.4572 4.14293 22.4542 4.13663C22.4526 4.13348 22.4514 4.13101 22.4506 4.12924C22.4501 4.12835 22.4498 4.12764 22.4495 4.12711C22.4494 4.12684 22.4493 4.12662 22.4492 4.12644C22.4492 4.12635 22.4491 4.12628 22.4491 4.12621C22.4491 4.12618 22.4491 4.12614 22.449 4.12612C22.449 4.12608 22.449 4.12605 22.0002 4.3465ZM22.0425 5.72636C22.0425 5.91428 22.1325 6.0488 22.1915 6.11806C22.2543 6.19191 22.3258 6.24429 22.3836 6.27957C22.4843 6.34108 22.6433 6.41034 22.8136 6.41034V5.41034C22.8428 5.41034 22.8635 5.41382 22.8733 5.41576C22.8841 5.4179 22.8909 5.42006 22.8938 5.42104C22.8986 5.42267 22.9011 5.42388 22.9048 5.42613C22.906 5.42691 22.9267 5.43904 22.9528 5.46977C22.9751 5.49591 23.0425 5.58444 23.0425 5.72636H22.0425ZM22.8136 6.41034H22.904V5.41034H22.8136V6.41034ZM23.1308 6.35595C23.2257 6.30765 23.4133 6.20735 23.5268 6.01476C23.6737 5.76549 23.6253 5.50874 23.5335 5.32193L22.636 5.76283C22.6379 5.76684 22.6225 5.73784 22.6204 5.68419C22.618 5.62287 22.6342 5.55971 22.6653 5.50695C22.6923 5.46113 22.7202 5.44064 22.7206 5.44036C22.721 5.44009 22.7101 5.44801 22.6772 5.46473L23.1308 6.35595ZM23.5703 5.42312C23.4704 5.01631 23.3226 4.64248 23.2056 4.36857C23.1514 4.24149 23.09 4.10492 23.0606 4.03717C23.0428 3.99589 23.0327 3.97123 23.0277 3.95747C23.0251 3.95055 23.0266 3.95374 23.0292 3.96354C23.0297 3.96529 23.0425 4.00877 23.0425 4.07052H22.0425C22.0425 4.14378 22.0581 4.20307 22.0639 4.22471C22.072 4.25441 22.0814 4.28159 22.0891 4.30252C22.1045 4.34446 22.1241 4.39095 22.143 4.43447C22.1871 4.53633 22.2273 4.62399 22.286 4.76138C22.395 5.01642 22.5183 5.33252 22.5992 5.66164L23.5703 5.42312ZM22.7693 3.62491C22.6924 3.5858 22.5562 3.51437 22.4223 3.47543C22.3082 3.44223 21.986 3.37154 21.7339 3.62812L22.4473 4.32894C22.4135 4.36337 22.3731 4.39106 22.3292 4.41029C22.2864 4.42904 22.2475 4.43661 22.218 4.43922C22.1645 4.44395 22.1342 4.43307 22.143 4.43565C22.1488 4.43732 22.1659 4.44328 22.1995 4.45871C22.2326 4.47392 22.2687 4.49221 22.3157 4.51613L22.7693 3.62491ZM29.4215 1.86123C29.2349 1.38637 28.7872 1.21385 28.4318 1.16864C28.0686 1.12242 27.6746 1.18436 27.3495 1.29464L27.6708 2.24162C27.888 2.16792 28.1266 2.13787 28.3056 2.16064C28.3931 2.17177 28.445 2.19278 28.4705 2.20832C28.4901 2.22022 28.4902 2.22542 28.4908 2.22698L29.4215 1.86123ZM27.5102 1.26813H27.4198V2.26813H27.5102V1.26813ZM27.2137 1.31258C26.8169 1.4921 26.5523 1.57149 26.3609 1.57898C26.2075 1.58499 26.0958 1.54682 25.9689 1.41772L25.2556 2.11854C25.5806 2.44939 25.9659 2.59521 26.4 2.57822C26.796 2.56271 27.2093 2.41212 27.6259 2.22368L27.2137 1.31258ZM25.9689 1.41772C25.1107 0.544119 23.5907 0.0950764 22.1837 0.97643L22.7145 1.8239C23.6572 1.2334 24.6678 1.52029 25.2556 2.11854L25.9689 1.41772ZM22.1683 0.98643C21.531 1.41888 20.8943 1.36035 20.3293 1.19603L20.05 2.15625C20.7503 2.35989 21.7403 2.48534 22.7298 1.8139L22.1683 0.98643ZM20.3 1.18846C19.8582 1.08853 19.4186 1.05148 19.0393 1.12869C18.6485 1.20826 18.2687 1.42569 18.0975 1.86123L19.0282 2.22698C19.0378 2.20256 19.0648 2.14402 19.2388 2.1086C19.4243 2.07083 19.7078 2.07977 20.0794 2.16382L20.3 1.18846ZM18.1141 1.82365C18.0354 1.98382 17.9504 2.24463 18.0321 2.57732C18.1103 2.89549 18.3239 3.20877 18.6861 3.52476L19.3435 2.77123C19.073 2.53527 19.0155 2.3886 19.0033 2.3388C18.9946 2.30353 19 2.28837 19.0117 2.26455L18.1141 1.82365ZM18.7044 3.54002C18.8447 3.65107 19.041 3.8845 19.27 4.21938C19.4913 4.54285 19.7175 4.92241 19.9227 5.28936C20.1273 5.65515 20.3075 6.00216 20.4367 6.25809C20.5012 6.38588 20.5527 6.49053 20.5881 6.56294C20.6057 6.59913 20.6193 6.62724 20.6284 6.64613C20.6329 6.65557 20.6363 6.6627 20.6385 6.66739C20.6397 6.66973 20.6405 6.67145 20.641 6.67255C20.6413 6.6731 20.6415 6.67349 20.6416 6.67372C20.6416 6.67384 20.6417 6.67391 20.6417 6.67395C20.6417 6.67397 20.6417 6.67396 20.6417 6.67397C20.6417 6.67396 20.6417 6.67393 21.0934 6.45967C21.5452 6.2454 21.5452 6.24536 21.5451 6.2453C21.5451 6.24527 21.5451 6.24521 21.5451 6.24514C21.545 6.24501 21.5449 6.24485 21.5448 6.24464C21.5446 6.24422 21.5444 6.24365 21.544 6.24291C21.5433 6.24144 21.5423 6.23933 21.541 6.2366C21.5384 6.23115 21.5346 6.22323 21.5297 6.21297C21.5198 6.19246 21.5054 6.16263 21.4869 6.12462C21.4498 6.04862 21.3962 5.93983 21.3294 5.80745C21.1959 5.54306 21.0089 5.18289 20.7955 4.80126C20.5827 4.42078 20.3402 4.01267 20.0954 3.65482C19.8585 3.3084 19.5915 2.96688 19.3251 2.75597L18.7044 3.54002ZM20.6446 6.68012L20.735 6.8641L21.6326 6.4232L21.5422 6.23921L20.6446 6.68012ZM21.1838 7.14365H26.1545V6.14365H21.1838V7.14365ZM26.6033 6.8641L26.6937 6.68012L25.7961 6.23922L25.7057 6.4232L26.6033 6.8641ZM26.2449 6.45967C26.7126 6.6364 26.7126 6.63646 26.7126 6.63651C26.7126 6.63652 26.7126 6.63656 26.7125 6.63657C26.7125 6.63659 26.7125 6.63657 26.7126 6.63652C26.7126 6.63642 26.7127 6.63617 26.7128 6.63578C26.7131 6.63501 26.7137 6.63367 26.7144 6.63178C26.7158 6.62799 26.7181 6.62201 26.7213 6.61395C26.7275 6.59782 26.7372 6.57338 26.7499 6.54156C26.7755 6.47789 26.8138 6.38484 26.8635 6.26988C26.963 6.03953 27.1074 5.72341 27.2867 5.38049C27.656 4.67422 28.1348 3.93077 28.6318 3.54168L28.0153 2.75431C27.3374 3.28512 26.7768 4.19751 26.4006 4.9171C26.2071 5.28711 26.0521 5.62643 25.9455 5.87328C25.892 5.99692 25.8505 6.09792 25.8221 6.16864C25.8079 6.20401 25.7969 6.23186 25.7894 6.25121C25.7856 6.26089 25.7827 6.26845 25.7807 6.27378C25.7796 6.27644 25.7788 6.27854 25.7782 6.28008C25.778 6.28084 25.7777 6.28146 25.7775 6.28194C25.7775 6.28218 25.7774 6.28238 25.7773 6.28254C25.7773 6.28263 25.7772 6.28272 25.7772 6.28276C25.7772 6.28285 25.7772 6.28293 26.2449 6.45967ZM28.5749 3.5802C28.9455 3.36469 29.2304 3.09622 29.3885 2.79227C29.5487 2.48429 29.5903 2.09976 29.3745 1.77015L28.5379 2.31805C28.5028 2.26442 28.5445 2.24785 28.5013 2.33083C28.456 2.41784 28.3343 2.56333 28.0722 2.71578L28.5749 3.5802ZM27.7346 2.38399C27.1129 2.8586 26.576 3.61741 26.1813 4.30271C25.7844 4.99176 25.4928 5.67507 25.3876 6.04996L26.3503 6.32021C26.4259 6.05116 26.6765 5.44659 27.0478 4.80178C27.4214 4.15321 27.8786 3.53216 28.3414 3.17885L27.7346 2.38399ZM25.869 5.68508H21.6213V6.68508H25.869V5.68508ZM22.07 5.96463C21.9311 5.68176 21.5861 5.00277 21.1708 4.29834C20.7664 3.61221 20.2579 2.83614 19.7877 2.41065L19.1168 3.15219C19.4599 3.46263 19.9004 4.11241 20.3093 4.80615C20.7075 5.48158 21.0403 6.13646 21.1725 6.40553L22.07 5.96463ZM19.7556 2.38399C19.5921 2.25912 19.5379 2.19633 19.529 2.18498C19.5254 2.18037 19.5391 2.1966 19.5546 2.23206C19.5626 2.25034 19.5715 2.27494 19.5786 2.30533C19.5821 2.32058 19.5851 2.33732 19.5873 2.35543C19.5884 2.36448 19.5892 2.37387 19.5898 2.38355C19.5901 2.3884 19.5903 2.39331 19.5905 2.3983C19.5906 2.40079 19.5906 2.4033 19.5907 2.40583C19.5907 2.40709 19.5907 2.40836 19.5907 2.40963C19.5907 2.41027 19.5907 2.41122 19.5907 2.41154C19.5907 2.4125 19.5907 2.41345 19.0907 2.41345C18.5907 2.41345 18.5907 2.41441 18.5907 2.41537C18.5907 2.41569 18.5907 2.41665 18.5907 2.41729C18.5907 2.41857 18.5908 2.41984 18.5908 2.42112C18.5908 2.42367 18.5909 2.42621 18.5909 2.42875C18.5911 2.43382 18.5913 2.43888 18.5916 2.4439C18.5922 2.45395 18.5931 2.46388 18.5943 2.47368C18.5966 2.49328 18.6 2.51226 18.6043 2.53056C18.6127 2.56706 18.6245 2.601 18.6381 2.63222C18.6649 2.69355 18.7012 2.75003 18.7428 2.80292C18.8242 2.90655 18.9509 3.02774 19.1488 3.17885L19.7556 2.38399ZM19.5907 2.41345C19.5907 2.57719 19.5085 2.68534 19.4613 2.73257C19.4154 2.7786 19.3743 2.79776 19.3659 2.80164C19.3471 2.81028 19.358 2.80203 19.4178 2.79392C19.5294 2.77877 19.7295 2.77505 20.0129 2.81626L20.1568 1.82667C19.8076 1.77589 19.5106 1.77216 19.2833 1.80301C19.1736 1.8179 19.0546 1.84414 18.9482 1.89304C18.896 1.91704 18.8218 1.95776 18.7536 2.02607C18.6842 2.09557 18.5907 2.22672 18.5907 2.41345H19.5907ZM19.9851 2.81141C20.4328 2.90256 21.7022 3.2287 23.0616 2.37724L22.5307 1.52976C21.5403 2.15015 20.6406 1.92435 20.1846 1.83151L19.9851 2.81141ZM23.068 2.37316C23.4619 2.11798 23.8059 2.07908 24.0911 2.13401C24.3887 2.19132 24.6632 2.35954 24.8796 2.57988L25.593 1.87906C25.2672 1.54746 24.8186 1.25573 24.2802 1.15205C23.7295 1.046 23.1245 1.14508 22.5243 1.53384L23.068 2.37316ZM24.8796 2.57988C25.3658 3.07476 25.9297 3.1973 26.4636 3.15324C26.9586 3.11238 27.4602 2.92285 27.8371 2.79495L27.5158 1.84798C27.0794 1.99605 26.7224 2.12849 26.3814 2.15663C26.0793 2.18156 25.8298 2.12011 25.593 1.87906L24.8796 2.57988ZM27.6765 2.82146H27.7669V1.82146H27.6765V2.82146ZM27.9554 2.78455C28.1106 2.72137 28.2479 2.70648 28.343 2.70648C28.3905 2.70648 28.4264 2.71021 28.4472 2.71312C28.4575 2.71457 28.4638 2.71578 28.4657 2.71615C28.4666 2.71633 28.4664 2.7163 28.4649 2.71597C28.4642 2.71581 28.4632 2.71558 28.4619 2.71525C28.4612 2.71509 28.4605 2.71491 28.4597 2.71471C28.4592 2.71461 28.4588 2.7145 28.4584 2.71439C28.4581 2.71433 28.4579 2.71427 28.4577 2.71421C28.4576 2.71418 28.4574 2.71414 28.4573 2.71412C28.4571 2.71408 28.4569 2.71403 28.5803 2.22947C28.7036 1.74492 28.7034 1.74487 28.7032 1.74482C28.7031 1.7448 28.7029 1.74476 28.7028 1.74472C28.7025 1.74466 28.7023 1.74459 28.702 1.74453C28.7015 1.74439 28.7009 1.74425 28.7003 1.7441C28.6992 1.74381 28.6979 1.7435 28.6965 1.74317C28.6938 1.74252 28.6907 1.74179 28.6872 1.741C28.6803 1.73941 28.6719 1.73758 28.662 1.73561C28.6423 1.73167 28.6169 1.72713 28.5862 1.72283C28.5251 1.71424 28.4424 1.70648 28.343 1.70648C28.1444 1.70648 27.875 1.73758 27.5783 1.85838L27.9554 2.78455ZM28.5803 1.72947C28.3398 1.72947 28.1963 1.87457 28.1418 1.93803C28.1067 1.97879 28.0497 2.06067 28.0422 2.07086C27.9969 2.13223 27.9125 2.23877 27.7223 2.3937L28.3537 3.16914C28.6153 2.9561 28.7569 2.78667 28.8472 2.66406C28.8668 2.6375 28.8856 2.6108 28.8946 2.59827C28.9073 2.58049 28.9063 2.58268 28.9001 2.58991C28.8943 2.59672 28.8632 2.63279 28.8078 2.66624C28.7421 2.70583 28.6631 2.72947 28.5803 2.72947V1.72947ZM24.562 3.51843C24.4312 3.71811 24.3016 4.05105 24.1984 4.37774C24.0906 4.71909 23.9928 5.11477 23.9428 5.47071L24.9331 5.6097C24.9735 5.32171 25.0565 4.98146 25.152 4.67887C25.2522 4.36163 25.3485 4.14262 25.3985 4.06633L24.562 3.51843ZM23.938 5.54021C23.938 5.70707 23.979 5.92448 24.1491 6.0976C24.3208 6.27235 24.5394 6.31618 24.7091 6.31618V5.31618C24.6981 5.31618 24.7811 5.31402 24.8624 5.39678C24.9421 5.4779 24.938 5.55733 24.938 5.54021H23.938ZM24.7091 6.31618C24.8885 6.31618 25.0647 6.24042 25.1943 6.1349C25.3402 6.01609 25.4802 5.81444 25.4802 5.54021H24.4802C24.4802 5.44996 24.5299 5.38629 24.5629 5.35947C24.5778 5.34732 24.5929 5.33895 24.6088 5.33275C24.6211 5.32802 24.655 5.31618 24.7091 5.31618V6.31618ZM25.4737 5.621C25.5135 5.37752 25.5962 5.0597 25.6909 4.78128C25.7379 4.64281 25.7851 4.52273 25.8274 4.43192C25.8774 4.32465 25.8986 4.30701 25.8792 4.32677L25.1658 3.62595C25.056 3.7377 24.9755 3.89255 24.921 4.00951C24.8589 4.14292 24.7987 4.29881 24.7441 4.45931C24.6354 4.77884 24.5373 5.15095 24.4868 5.45941L25.4737 5.621ZM25.8792 4.32677C26.1232 4.07836 26.0629 3.76705 26.0203 3.63677C25.9712 3.48684 25.8819 3.3528 25.7888 3.25799L25.0755 3.95881C25.0727 3.95599 25.0738 3.95994 25.0699 3.94799C25.0673 3.94003 25.0562 3.90422 25.0612 3.84852C25.0668 3.78554 25.0939 3.69918 25.1658 3.62596L25.8792 4.32677ZM25.4321 3.1084C25.3592 3.1084 25.1931 3.10463 25.0327 3.15129C24.8373 3.2081 24.6467 3.33731 24.5315 3.57193L25.429 4.01283C25.4213 4.02845 25.4044 4.05378 25.3751 4.0771C25.347 4.09944 25.322 4.10857 25.3119 4.11151C25.3041 4.11377 25.3073 4.11174 25.3307 4.1102C25.3553 4.10859 25.3838 4.1084 25.4321 4.1084V3.1084ZM21.7339 3.62812C21.6408 3.72293 21.5516 3.85697 21.5025 4.00691C21.4598 4.13719 21.3995 4.4485 21.6436 4.69691L22.3569 3.99609C22.4288 4.06931 22.4559 4.15568 22.4615 4.21865C22.4665 4.27435 22.4554 4.31017 22.4528 4.31813C22.4489 4.33008 22.45 4.32613 22.4473 4.32894L21.7339 3.62812ZM22.0002 4.3465C21.5515 4.56695 21.5514 4.56692 21.5514 4.56689C21.5514 4.56689 21.5514 4.56686 21.5514 4.56685C21.5514 4.56683 21.5514 4.56682 21.5514 4.56682C21.5514 4.56682 21.5514 4.56687 21.5515 4.56696C21.5515 4.56714 21.5517 4.56749 21.552 4.56802C21.5525 4.56907 21.5533 4.57081 21.5545 4.57321C21.5568 4.578 21.5604 4.58544 21.5652 4.59532C21.5746 4.61508 21.5886 4.64456 21.6061 4.68216C21.641 4.75746 21.6897 4.86476 21.7438 4.99136C21.8533 5.24789 21.9793 5.57001 22.0611 5.86149L23.0239 5.59123C22.9249 5.23878 22.7798 4.87097 22.6634 4.59855C22.6045 4.46067 22.5515 4.34375 22.513 4.26094C22.4938 4.21948 22.4781 4.18644 22.4671 4.16344C22.4616 4.15193 22.4572 4.14293 22.4542 4.13663C22.4526 4.13348 22.4514 4.13101 22.4506 4.12924C22.4501 4.12835 22.4498 4.12764 22.4495 4.12711C22.4494 4.12684 22.4493 4.12662 22.4492 4.12644C22.4492 4.12635 22.4491 4.12628 22.4491 4.12621C22.4491 4.12618 22.4491 4.12614 22.449 4.12612C22.449 4.12608 22.449 4.12605 22.0002 4.3465ZM22.0425 5.72636C22.0425 5.91428 22.1325 6.0488 22.1915 6.11806C22.2543 6.19191 22.3258 6.24429 22.3836 6.27957C22.4843 6.34108 22.6433 6.41034 22.8136 6.41034V5.41034C22.8428 5.41034 22.8635 5.41382 22.8733 5.41576C22.8841 5.4179 22.8909 5.42006 22.8938 5.42104C22.8986 5.42267 22.9011 5.42388 22.9048 5.42613C22.906 5.42691 22.9267 5.43904 22.9528 5.46977C22.9751 5.49591 23.0425 5.58444 23.0425 5.72636H22.0425ZM22.8136 6.41034H22.904V5.41034H22.8136V6.41034ZM23.1308 6.35595C23.2257 6.30765 23.4133 6.20735 23.5268 6.01476C23.6737 5.76549 23.6253 5.50874 23.5335 5.32193L22.636 5.76283C22.6379 5.76684 22.6225 5.73784 22.6204 5.68419C22.618 5.62287 22.6342 5.55971 22.6653 5.50695C22.6923 5.46113 22.7202 5.44064 22.7206 5.44036C22.721 5.44009 22.7101 5.44801 22.6772 5.46473L23.1308 6.35595ZM23.5703 5.42312C23.4704 5.01631 23.3226 4.64248 23.2056 4.36857C23.1514 4.24149 23.09 4.10492 23.0606 4.03717C23.0428 3.99589 23.0327 3.97123 23.0277 3.95747C23.0251 3.95055 23.0266 3.95374 23.0292 3.96354C23.0297 3.96529 23.0425 4.00877 23.0425 4.07052H22.0425C22.0425 4.14378 22.0581 4.20307 22.0639 4.22471C22.072 4.25441 22.0814 4.28159 22.0891 4.30252C22.1045 4.34446 22.1241 4.39095 22.143 4.43447C22.1871 4.53633 22.2273 4.62399 22.286 4.76138C22.395 5.01642 22.5183 5.33252 22.5992 5.66164L23.5703 5.42312ZM22.7693 3.62491C22.6924 3.5858 22.5562 3.51437 22.4223 3.47543C22.3082 3.44223 21.986 3.37154 21.7339 3.62812L22.4473 4.32894C22.4135 4.36337 22.3731 4.39106 22.3292 4.41029C22.2864 4.42904 22.2475 4.43661 22.218 4.43922C22.1645 4.44395 22.1342 4.43307 22.143 4.43565C22.1488 4.43732 22.1659 4.44328 22.1995 4.45871C22.2326 4.47392 22.2687 4.49221 22.3157 4.51613L22.7693 3.62491ZM34.225 16.5628C33.0269 11.5908 29.9615 7.5377 26.3003 6.3609L25.9943 7.31293C29.2018 8.34391 32.1012 12.018 33.2529 16.7971L34.225 16.5628ZM26.1473 6.33691H21.3574V7.33691H26.1473V6.33691ZM21.3574 6.33691H21.267V7.33691H21.3574V6.33691ZM21.1344 6.35482C19.3229 6.85314 17.6782 8.15878 16.3576 9.94313C15.0341 11.7313 14.0135 14.029 13.458 16.5733L14.435 16.7866C14.964 14.3634 15.9316 12.1995 17.1614 10.538C18.3939 8.87272 19.8671 7.74059 21.3996 7.319L21.1344 6.35482ZM13.4585 16.571C12.9913 18.6635 13.0711 20.4384 13.7631 21.9478L14.6721 21.5311C14.0989 20.2808 13.9979 18.744 14.4345 16.7889L13.4585 16.571ZM14.4444 22.1851C14.5036 22.1549 14.5666 22.1475 14.7599 22.1475V21.1475C14.5917 21.1475 14.2931 21.14 13.9908 21.2938L14.4444 22.1851ZM15.2087 21.427C14.6432 20.2759 14.5402 18.8391 14.9756 16.9778L14.0019 16.75C13.5335 18.7523 13.6113 20.4433 14.3111 21.8679L15.2087 21.427ZM14.9779 16.9676C15.4617 14.6846 16.3838 12.6123 17.5474 11.0183C18.7156 9.41811 20.0979 8.33804 21.4874 7.96363L21.2273 6.99807C19.5441 7.45158 17.9891 8.71728 16.7397 10.4287C15.4857 12.1465 14.51 14.3517 13.9996 16.7603L14.9779 16.9676ZM21.3574 7.98085H25.9666V6.98085H21.3574V7.98085ZM25.8142 7.95708C28.747 8.89526 31.5574 12.4734 32.6197 16.9787L33.593 16.7492C32.4862 12.0554 29.5125 8.09025 26.1189 7.00462L25.8142 7.95708ZM32.6207 16.9832C33.1337 19.0718 32.7812 20.746 31.8094 21.9824L32.5957 22.6004C33.7929 21.0771 34.1634 19.0716 33.5919 16.7447L32.6207 16.9832ZM31.8053 21.9878C30.659 23.4879 28.3805 24.5594 25.2905 24.829L25.3774 25.8252C28.6137 25.5428 31.2155 24.4066 32.5998 22.595L31.8053 21.9878ZM24.8339 25.3271C24.8339 25.3275 24.8339 25.3278 24.8339 25.3282C24.8339 25.3285 24.8339 25.3289 24.8339 25.3293C24.8339 25.3296 24.8339 25.33 24.8339 25.3303C24.8339 25.3307 24.8339 25.331 24.8339 25.3314C24.8339 25.3318 24.8339 25.3321 24.8339 25.3325C24.8339 25.3328 24.8339 25.3332 24.8339 25.3336C24.8339 25.3339 24.8339 25.3343 24.8339 25.3346C24.8339 25.335 24.8339 25.3354 24.8339 25.3357C24.8339 25.3361 24.8339 25.3364 24.8339 25.3368C24.8339 25.3372 24.8339 25.3375 24.8339 25.3379C24.8339 25.3382 24.8339 25.3386 24.8339 25.339C24.8339 25.3393 24.8339 25.3397 24.8339 25.34C24.8339 25.3404 24.8339 25.3407 24.8339 25.3411C24.8339 25.3415 24.8339 25.3418 24.8339 25.3422C24.8339 25.3425 24.8339 25.3429 24.8339 25.3433C24.8339 25.3436 24.8339 25.344 24.8339 25.3443C24.8339 25.3447 24.8339 25.3451 24.8339 25.3454C24.8339 25.3458 24.8339 25.3461 24.8339 25.3465C24.8339 25.3469 24.8339 25.3472 24.8339 25.3476C24.8339 25.3479 24.8339 25.3483 24.8339 25.3487C24.8339 25.349 24.8339 25.3494 24.8339 25.3497C24.8339 25.3501 24.8339 25.3505 24.8339 25.3508C24.8339 25.3512 24.8339 25.3515 24.8339 25.3519C24.8339 25.3522 24.8339 25.3526 24.8339 25.353C24.8339 25.3533 24.8339 25.3537 24.8339 25.354C24.8339 25.3544 24.8339 25.3548 24.8339 25.3551C24.8339 25.3555 24.8339 25.3558 24.8339 25.3562C24.8339 25.3566 24.8339 25.3569 24.8339 25.3573C24.8339 25.3576 24.8339 25.358 24.8339 25.3584C24.8339 25.3587 24.8339 25.3591 24.8339 25.3594C24.8339 25.3598 24.8339 25.3602 24.8339 25.3605C24.8339 25.3609 24.8339 25.3612 24.8339 25.3616C24.8339 25.3619 24.8339 25.3623 24.8339 25.3627C24.8339 25.363 24.8339 25.3634 24.8339 25.3637C24.8339 25.3641 24.8339 25.3645 24.8339 25.3648C24.8339 25.3652 24.8339 25.3655 24.8339 25.3659C24.8339 25.3663 24.8339 25.3666 24.8339 25.367C24.8339 25.3673 24.8339 25.3677 24.8339 25.3681C24.8339 25.3684 24.8339 25.3688 24.8339 25.3691C24.8339 25.3695 24.8339 25.3699 24.8339 25.3702C24.8339 25.3706 24.8339 25.3709 24.8339 25.3713C24.8339 25.3717 24.8339 25.372 24.8339 25.3724C24.8339 25.3727 24.8339 25.3731 24.8339 25.3734C24.8339 25.3738 24.8339 25.3742 24.8339 25.3745C24.8339 25.3749 24.8339 25.3752 24.8339 25.3756C24.8339 25.376 24.8339 25.3763 24.8339 25.3767C24.8339 25.377 24.8339 25.3774 24.8339 25.3778C24.8339 25.3781 24.8339 25.3785 24.8339 25.3788C24.8339 25.3792 24.8339 25.3796 24.8339 25.3799C24.8339 25.3803 24.8339 25.3806 24.8339 25.381C24.8339 25.3814 24.8339 25.3817 24.8339 25.3821C24.8339 25.3824 24.8339 25.3828 24.8339 25.3832C24.8339 25.3835 24.8339 25.3839 24.8339 25.3842C24.8339 25.3846 24.8339 25.3849 24.8339 25.3853C24.8339 25.3857 24.8339 25.386 24.8339 25.3864C24.8339 25.3867 24.8339 25.3871 24.8339 25.3875C24.8339 25.3878 24.8339 25.3882 24.8339 25.3885C24.8339 25.3889 24.8339 25.3893 24.8339 25.3896C24.8339 25.39 24.8339 25.3903 24.8339 25.3907C24.8339 25.3911 24.8339 25.3914 24.8339 25.3918C24.8339 25.3921 24.8339 25.3925 24.8339 25.3929C24.8339 25.3932 24.8339 25.3936 24.8339 25.3939C24.8339 25.3943 24.8339 25.3947 24.8339 25.395C24.8339 25.3954 24.8339 25.3957 24.8339 25.3961C24.8339 25.3964 24.8339 25.3968 24.8339 25.3972C24.8339 25.3975 24.8339 25.3979 24.8339 25.3982C24.8339 25.3986 24.8339 25.399 24.8339 25.3993C24.8339 25.3997 24.8339 25.4 24.8339 25.4004C24.8339 25.4008 24.8339 25.4011 24.8339 25.4015C24.8339 25.4018 24.8339 25.4022 24.8339 25.4026C24.8339 25.4029 24.8339 25.4033 24.8339 25.4036C24.8339 25.404 24.8339 25.4044 24.8339 25.4047C24.8339 25.4051 24.8339 25.4054 24.8339 25.4058C24.8339 25.4061 24.8339 25.4065 24.8339 25.4069C24.8339 25.4072 24.8339 25.4076 24.8339 25.4079C24.8339 25.4083 24.8339 25.4087 24.8339 25.409C24.8339 25.4094 24.8339 25.4097 24.8339 25.4101C24.8339 25.4105 24.8339 25.4108 24.8339 25.4112C24.8339 25.4115 24.8339 25.4119 24.8339 25.4123C24.8339 25.4126 24.8339 25.413 24.8339 25.4133C24.8339 25.4137 24.8339 25.4141 24.8339 25.4144C24.8339 25.4148 24.8339 25.4151 24.8339 25.4155C24.8339 25.4159 24.8339 25.4162 24.8339 25.4166C24.8339 25.4169 24.8339 25.4173 24.8339 25.4176C24.8339 25.418 24.8339 25.4184 24.8339 25.4187C24.8339 25.4191 24.8339 25.4194 24.8339 25.4198C24.8339 25.4202 24.8339 25.4205 24.8339 25.4209C24.8339 25.4212 24.8339 25.4216 24.8339 25.422C24.8339 25.4223 24.8339 25.4227 24.8339 25.423C24.8339 25.4234 24.8339 25.4238 24.8339 25.4241C24.8339 25.4245 24.8339 25.4248 24.8339 25.4252C24.8339 25.4256 24.8339 25.4259 24.8339 25.4263C24.8339 25.4266 24.8339 25.427 24.8339 25.4274C24.8339 25.4277 24.8339 25.4281 24.8339 25.4284C24.8339 25.4288 24.8339 25.4291 24.8339 25.4295C24.8339 25.4299 24.8339 25.4302 24.8339 25.4306C24.8339 25.4309 24.8339 25.4313 24.8339 25.4317C24.8339 25.432 24.8339 25.4324 24.8339 25.4327C24.8339 25.4331 24.8339 25.4335 24.8339 25.4338C24.8339 25.4342 24.8339 25.4345 24.8339 25.4349C24.8339 25.4353 24.8339 25.4356 24.8339 25.436C24.8339 25.4363 24.8339 25.4367 24.8339 25.4371C24.8339 25.4374 24.8339 25.4378 24.8339 25.4381C24.8339 25.4385 24.8339 25.4389 24.8339 25.4392C24.8339 25.4396 24.8339 25.4399 24.8339 25.4403C24.8339 25.4406 24.8339 25.441 24.8339 25.4414C24.8339 25.4417 24.8339 25.4421 24.8339 25.4424C24.8339 25.4428 24.8339 25.4432 24.8339 25.4435C24.8339 25.4439 24.8339 25.4442 24.8339 25.4446C24.8339 25.445 24.8339 25.4453 24.8339 25.4457C24.8339 25.446 24.8339 25.4464 24.8339 25.4468C24.8339 25.4471 24.8339 25.4475 24.8339 25.4478C24.8339 25.4482 24.8339 25.4486 24.8339 25.4489C24.8339 25.4493 24.8339 25.4496 24.8339 25.45C24.8339 25.4503 24.8339 25.4507 24.8339 25.4511C24.8339 25.4514 24.8339 25.4518 24.8339 25.4521C24.8339 25.4525 24.8339 25.4529 24.8339 25.4532C24.8339 25.4536 24.8339 25.4539 24.8339 25.4543C24.8339 25.4547 24.8339 25.455 24.8339 25.4554C24.8339 25.4557 24.8339 25.4561 24.8339 25.4565C24.8339 25.4568 24.8339 25.4572 24.8339 25.4575C24.8339 25.4579 24.8339 25.4583 24.8339 25.4586C24.8339 25.459 24.8339 25.4593 24.8339 25.4597C24.8339 25.4601 24.8339 25.4604 24.8339 25.4608C24.8339 25.4611 24.8339 25.4615 24.8339 25.4618C24.8339 25.4622 24.8339 25.4626 24.8339 25.4629C24.8339 25.4633 24.8339 25.4636 24.8339 25.464C24.8339 25.4644 24.8339 25.4647 24.8339 25.4651C24.8339 25.4654 24.8339 25.4658 24.8339 25.4662C24.8339 25.4665 24.8339 25.4669 24.8339 25.4672C24.8339 25.4676 24.8339 25.468 24.8339 25.4683C24.8339 25.4687 24.8339 25.469 24.8339 25.4694C24.8339 25.4698 24.8339 25.4701 24.8339 25.4705C24.8339 25.4708 24.8339 25.4712 24.8339 25.4715C24.8339 25.4719 24.8339 25.4723 24.8339 25.4726C24.8339 25.473 24.8339 25.4733 24.8339 25.4737C24.8339 25.4741 24.8339 25.4744 24.8339 25.4748C24.8339 25.4751 24.8339 25.4755 24.8339 25.4759C24.8339 25.4762 24.8339 25.4766 24.8339 25.4769C24.8339 25.4773 24.8339 25.4777 24.8339 25.478C24.8339 25.4784 24.8339 25.4787 24.8339 25.4791C24.8339 25.4795 24.8339 25.4798 24.8339 25.4802C24.8339 25.4805 24.8339 25.4809 24.8339 25.4813C24.8339 25.4816 24.8339 25.482 24.8339 25.4823C24.8339 25.4827 24.8339 25.483 24.8339 25.4834C24.8339 25.4838 24.8339 25.4841 24.8339 25.4845C24.8339 25.4848 24.8339 25.4852 24.8339 25.4856C24.8339 25.4859 24.8339 25.4863 24.8339 25.4866C24.8339 25.487 24.8339 25.4874 24.8339 25.4877C24.8339 25.4881 24.8339 25.4884 24.8339 25.4888C24.8339 25.4892 24.8339 25.4895 24.8339 25.4899C24.8339 25.4902 24.8339 25.4906 24.8339 25.491C24.8339 25.4913 24.8339 25.4917 24.8339 25.492C24.8339 25.4924 24.8339 25.4928 24.8339 25.4931C24.8339 25.4935 24.8339 25.4938 24.8339 25.4942C24.8339 25.4945 24.8339 25.4949 24.8339 25.4953C24.8339 25.4956 24.8339 25.496 24.8339 25.4963C24.8339 25.4967 24.8339 25.4971 24.8339 25.4974C24.8339 25.4978 24.8339 25.4981 24.8339 25.4985C24.8339 25.4989 24.8339 25.4992 24.8339 25.4996C24.8339 25.4999 24.8339 25.5003 24.8339 25.5007C24.8339 25.501 24.8339 25.5014 24.8339 25.5017C24.8339 25.5021 24.8339 25.5025 24.8339 25.5028C24.8339 25.5032 24.8339 25.5035 24.8339 25.5039C24.8339 25.5042 24.8339 25.5046 24.8339 25.505C24.8339 25.5053 24.8339 25.5057 24.8339 25.506C24.8339 25.5064 24.8339 25.5068 24.8339 25.5071C24.8339 25.5075 24.8339 25.5078 24.8339 25.5082C24.8339 25.5086 24.8339 25.5089 24.8339 25.5093C24.8339 25.5096 24.8339 25.51 24.8339 25.5104C24.8339 25.5107 24.8339 25.5111 24.8339 25.5114C24.8339 25.5118 24.8339 25.5122 24.8339 25.5125C24.8339 25.5129 24.8339 25.5132 24.8339 25.5136C24.8339 25.514 24.8339 25.5143 24.8339 25.5147C24.8339 25.515 24.8339 25.5154 24.8339 25.5157C24.8339 25.5161 24.8339 25.5165 24.8339 25.5168C24.8339 25.5172 24.8339 25.5175 24.8339 25.5179C24.8339 25.5183 24.8339 25.5186 24.8339 25.519C24.8339 25.5193 24.8339 25.5197 24.8339 25.5201C24.8339 25.5204 24.8339 25.5208 24.8339 25.5211C24.8339 25.5215 24.8339 25.5219 24.8339 25.5222C24.8339 25.5226 24.8339 25.5229 24.8339 25.5233C24.8339 25.5237 24.8339 25.524 24.8339 25.5244C24.8339 25.5247 24.8339 25.5251 24.8339 25.5254C24.8339 25.5258 24.8339 25.5262 24.8339 25.5265C24.8339 25.5269 24.8339 25.5272 24.8339 25.5276C24.8339 25.528 24.8339 25.5283 24.8339 25.5287C24.8339 25.529 24.8339 25.5294 24.8339 25.5298C24.8339 25.5301 24.8339 25.5305 24.8339 25.5308C24.8339 25.5312 24.8339 25.5316 24.8339 25.5319C24.8339 25.5323 24.8339 25.5326 24.8339 25.533C24.8339 25.5334 24.8339 25.5337 24.8339 25.5341C24.8339 25.5344 24.8339 25.5348 24.8339 25.5352C24.8339 25.5355 24.8339 25.5359 24.8339 25.5362C24.8339 25.5366 24.8339 25.5369 24.8339 25.5373C24.8339 25.5377 24.8339 25.538 24.8339 25.5384C24.8339 25.5387 24.8339 25.5391 24.8339 25.5395C24.8339 25.5398 24.8339 25.5402 24.8339 25.5405C24.8339 25.5409 24.8339 25.5413 24.8339 25.5416C24.8339 25.542 24.8339 25.5423 24.8339 25.5427C24.8339 25.5431 24.8339 25.5434 24.8339 25.5438C24.8339 25.5441 24.8339 25.5445 24.8339 25.5449C24.8339 25.5452 24.8339 25.5456 24.8339 25.5459C24.8339 25.5463 24.8339 25.5467 24.8339 25.547C24.8339 25.5474 24.8339 25.5477 24.8339 25.5481C24.8339 25.5484 24.8339 25.5488 24.8339 25.5492C24.8339 25.5495 24.8339 25.5499 24.8339 25.5502C24.8339 25.5506 24.8339 25.551 24.8339 25.5513C24.8339 25.5517 24.8339 25.552 24.8339 25.5524C24.8339 25.5528 24.8339 25.5531 24.8339 25.5535C24.8339 25.5538 24.8339 25.5542 24.8339 25.5546C24.8339 25.5549 24.8339 25.5553 24.8339 25.5556C24.8339 25.556 24.8339 25.5564 24.8339 25.5567C24.8339 25.5571 24.8339 25.5574 24.8339 25.5578C24.8339 25.5581 24.8339 25.5585 24.8339 25.5589C24.8339 25.5592 24.8339 25.5596 24.8339 25.5599C24.8339 25.5603 24.8339 25.5607 24.8339 25.561C24.8339 25.5614 24.8339 25.5617 24.8339 25.5621C24.8339 25.5625 24.8339 25.5628 24.8339 25.5632C24.8339 25.5635 24.8339 25.5639 24.8339 25.5643C24.8339 25.5646 24.8339 25.565 24.8339 25.5653C24.8339 25.5657 24.8339 25.5661 24.8339 25.5664C24.8339 25.5668 24.8339 25.5671 24.8339 25.5675C24.8339 25.5679 24.8339 25.5682 24.8339 25.5686C24.8339 25.5689 24.8339 25.5693 24.8339 25.5696C24.8339 25.57 24.8339 25.5704 24.8339 25.5707C24.8339 25.5711 24.8339 25.5714 24.8339 25.5718C24.8339 25.5722 24.8339 25.5725 24.8339 25.5729C24.8339 25.5732 24.8339 25.5736 24.8339 25.574C24.8339 25.5743 24.8339 25.5747 24.8339 25.575C24.8339 25.5754 24.8339 25.5758 24.8339 25.5761C24.8339 25.5765 24.8339 25.5768 24.8339 25.5772C24.8339 25.5776 24.8339 25.5779 24.8339 25.5783C24.8339 25.5786 24.8339 25.579 24.8339 25.5794C24.8339 25.5797 24.8339 25.5801 24.8339 25.5804C24.8339 25.5808 24.8339 25.5811 24.8339 25.5815C24.8339 25.5819 24.8339 25.5822 24.8339 25.5826C24.8339 25.5829 24.8339 25.5833 24.8339 25.5837C24.8339 25.584 24.8339 25.5844 24.8339 25.5847C24.8339 25.5851 24.8339 25.5855 24.8339 25.5858C24.8339 25.5862 24.8339 25.5865 24.8339 25.5869C24.8339 25.5873 24.8339 25.5876 24.8339 25.588C24.8339 25.5883 24.8339 25.5887 24.8339 25.5891C24.8339 25.5894 24.8339 25.5898 24.8339 25.5901C24.8339 25.5905 24.8339 25.5908 24.8339 25.5912C24.8339 25.5916 24.8339 25.5919 24.8339 25.5923C24.8339 25.5926 24.8339 25.593 24.8339 25.5934C24.8339 25.5937 24.8339 25.5941 24.8339 25.5944C24.8339 25.5948 24.8339 25.5952 24.8339 25.5955C24.8339 25.5959 24.8339 25.5962 24.8339 25.5966C24.8339 25.597 24.8339 25.5973 24.8339 25.5977C24.8339 25.598 24.8339 25.5984 24.8339 25.5988C24.8339 25.5991 24.8339 25.5995 24.8339 25.5998C24.8339 25.6002 24.8339 25.6006 24.8339 25.6009C24.8339 25.6013 24.8339 25.6016 24.8339 25.602C24.8339 25.6023 24.8339 25.6027 24.8339 25.6031C24.8339 25.6034 24.8339 25.6038 24.8339 25.6041C24.8339 25.6045 24.8339 25.6049 24.8339 25.6052C24.8339 25.6056 24.8339 25.6059 24.8339 25.6063C24.8339 25.6067 24.8339 25.607 24.8339 25.6074C24.8339 25.6077 24.8339 25.6081 24.8339 25.6085C24.8339 25.6088 24.8339 25.6092 24.8339 25.6095C24.8339 25.6099 24.8339 25.6103 24.8339 25.6106C24.8339 25.611 24.8339 25.6113 24.8339 25.6117C24.8339 25.6121 24.8339 25.6124 24.8339 25.6128C24.8339 25.6131 24.8339 25.6135 24.8339 25.6138C24.8339 25.6142 24.8339 25.6146 24.8339 25.6149C24.8339 25.6153 24.8339 25.6156 24.8339 25.616C24.8339 25.6164 24.8339 25.6167 24.8339 25.6171C24.8339 25.6174 24.8339 25.6178 24.8339 25.6182C24.8339 25.6185 24.8339 25.6189 24.8339 25.6192C24.8339 25.6196 24.8339 25.62 24.8339 25.6203C24.8339 25.6207 24.8339 25.621 24.8339 25.6214C24.8339 25.6218 24.8339 25.6221 24.8339 25.6225C24.8339 25.6228 24.8339 25.6232 24.8339 25.6236C24.8339 25.6239 24.8339 25.6243 24.8339 25.6246C24.8339 25.625 24.8339 25.6253 24.8339 25.6257C24.8339 25.6261 24.8339 25.6264 24.8339 25.6268C24.8339 25.6271 24.8339 25.6275 24.8339 25.6279C24.8339 25.6282 24.8339 25.6286 24.8339 25.6289C24.8339 25.6293 24.8339 25.6297 24.8339 25.63C24.8339 25.6304 24.8339 25.6307 24.8339 25.6311C24.8339 25.6315 24.8339 25.6318 24.8339 25.6322C24.8339 25.6325 24.8339 25.6329 24.8339 25.6333C24.8339 25.6336 24.8339 25.634 24.8339 25.6343C24.8339 25.6347 24.8339 25.635 24.8339 25.6354C24.8339 25.6358 24.8339 25.6361 24.8339 25.6365C24.8339 25.6368 24.8339 25.6372 24.8339 25.6376C24.8339 25.6379 24.8339 25.6383 24.8339 25.6386C24.8339 25.639 24.8339 25.6394 24.8339 25.6397C24.8339 25.6401 24.8339 25.6404 24.8339 25.6408C24.8339 25.6412 24.8339 25.6415 24.8339 25.6419C24.8339 25.6422 24.8339 25.6426 24.8339 25.643C24.8339 25.6433 24.8339 25.6437 24.8339 25.644C24.8339 25.6444 24.8339 25.6448 24.8339 25.6451C24.8339 25.6455 24.8339 25.6458 24.8339 25.6462C24.8339 25.6465 24.8339 25.6469 24.8339 25.6473C24.8339 25.6476 24.8339 25.648 24.8339 25.6483C24.8339 25.6487 24.8339 25.6491 24.8339 25.6494C24.8339 25.6498 24.8339 25.6501 24.8339 25.6505C24.8339 25.6509 24.8339 25.6512 24.8339 25.6516C24.8339 25.6519 24.8339 25.6523 24.8339 25.6527C24.8339 25.653 24.8339 25.6534 24.8339 25.6537C24.8339 25.6541 24.8339 25.6545 24.8339 25.6548C24.8339 25.6552 24.8339 25.6555 24.8339 25.6559C24.8339 25.6562 24.8339 25.6566 24.8339 25.657C24.8339 25.6573 24.8339 25.6577 24.8339 25.658C24.8339 25.6584 24.8339 25.6588 24.8339 25.6591C24.8339 25.6595 24.8339 25.6598 24.8339 25.6602C24.8339 25.6606 24.8339 25.6609 24.8339 25.6613C24.8339 25.6616 24.8339 25.662 24.8339 25.6624C24.8339 25.6627 24.8339 25.6631 24.8339 25.6634C24.8339 25.6638 24.8339 25.6642 24.8339 25.6645C24.8339 25.6649 24.8339 25.6652 24.8339 25.6656C24.8339 25.666 24.8339 25.6663 24.8339 25.6667C24.8339 25.667 24.8339 25.6674 24.8339 25.6677C24.8339 25.6681 24.8339 25.6685 24.8339 25.6688C24.8339 25.6692 24.8339 25.6695 24.8339 25.6699C24.8339 25.6703 24.8339 25.6706 24.8339 25.671C24.8339 25.6713 24.8339 25.6717 24.8339 25.6721C24.8339 25.6724 24.8339 25.6728 24.8339 25.6731C24.8339 25.6735 24.8339 25.6739 24.8339 25.6742C24.8339 25.6746 24.8339 25.6749 24.8339 25.6753C24.8339 25.6757 24.8339 25.676 24.8339 25.6764C24.8339 25.6767 24.8339 25.6771 24.8339 25.6775C24.8339 25.6778 24.8339 25.6782 24.8339 25.6785C24.8339 25.6789 24.8339 25.6792 24.8339 25.6796C24.8339 25.68 24.8339 25.6803 24.8339 25.6807C24.8339 25.681 24.8339 25.6814 24.8339 25.6818C24.8339 25.6821 24.8339 25.6825 24.8339 25.6828C24.8339 25.6832 24.8339 25.6836 24.8339 25.6839C24.8339 25.6843 24.8339 25.6846 24.8339 25.685C24.8339 25.6854 24.8339 25.6857 24.8339 25.6861C24.8339 25.6864 24.8339 25.6868 24.8339 25.6872C24.8339 25.6875 24.8339 25.6879 24.8339 25.6882C24.8339 25.6886 24.8339 25.6889 24.8339 25.6893C24.8339 25.6897 24.8339 25.69 24.8339 25.6904C24.8339 25.6907 24.8339 25.6911 24.8339 25.6915C24.8339 25.6918 24.8339 25.6922 24.8339 25.6925C24.8339 25.6929 24.8339 25.6933 24.8339 25.6936C24.8339 25.694 24.8339 25.6943 24.8339 25.6947C24.8339 25.6951 24.8339 25.6954 24.8339 25.6958C24.8339 25.6961 24.8339 25.6965 24.8339 25.6969C24.8339 25.6972 24.8339 25.6976 24.8339 25.6979C24.8339 25.6983 24.8339 25.6987 24.8339 25.699C24.8339 25.6994 24.8339 25.6997 24.8339 25.7001C24.8339 25.7004 24.8339 25.7008 24.8339 25.7012C24.8339 25.7015 24.8339 25.7019 24.8339 25.7022C24.8339 25.7026 24.8339 25.703 24.8339 25.7033C24.8339 25.7037 24.8339 25.704 24.8339 25.7044C24.8339 25.7048 24.8339 25.7051 24.8339 25.7055C24.8339 25.7058 24.8339 25.7062 24.8339 25.7066C24.8339 25.7069 24.8339 25.7073 24.8339 25.7076C24.8339 25.708 24.8339 25.7084 24.8339 25.7087C24.8339 25.7091 24.8339 25.7094 24.8339 25.7098C24.8339 25.7101 24.8339 25.7105 24.8339 25.7109C24.8339 25.7112 24.8339 25.7116 24.8339 25.7119C24.8339 25.7123 24.8339 25.7127 24.8339 25.713C24.8339 25.7134 24.8339 25.7137 24.8339 25.7141C24.8339 25.7145 24.8339 25.7148 24.8339 25.7152C24.8339 25.7155 24.8339 25.7159 24.8339 25.7163C24.8339 25.7166 24.8339 25.717 24.8339 25.7173C24.8339 25.7177 24.8339 25.7181 24.8339 25.7184C24.8339 25.7188 24.8339 25.7191 24.8339 25.7195C24.8339 25.7199 24.8339 25.7202 24.8339 25.7206C24.8339 25.7209 24.8339 25.7213 24.8339 25.7216C24.8339 25.722 24.8339 25.7224 24.8339 25.7227C24.8339 25.7231 24.8339 25.7234 24.8339 25.7238C24.8339 25.7242 24.8339 25.7245 24.8339 25.7249C24.8339 25.7252 24.8339 25.7256 24.8339 25.726C24.8339 25.7263 24.8339 25.7267 24.8339 25.727C24.8339 25.7274 24.8339 25.7278 24.8339 25.7281C24.8339 25.7285 24.8339 25.7288 24.8339 25.7292C24.8339 25.7296 24.8339 25.7299 24.8339 25.7303C24.8339 25.7306 24.8339 25.731 24.8339 25.7313C24.8339 25.7317 24.8339 25.7321 24.8339 25.7324C24.8339 25.7328 24.8339 25.7331 24.8339 25.7335C24.8339 25.7339 24.8339 25.7342 24.8339 25.7346C24.8339 25.7349 24.8339 25.7353 24.8339 25.7357C24.8339 25.736 24.8339 25.7364 24.8339 25.7367C24.8339 25.7371 24.8339 25.7375 24.8339 25.7378C24.8339 25.7382 24.8339 25.7385 24.8339 25.7389C24.8339 25.7393 24.8339 25.7396 24.8339 25.74C24.8339 25.7403 24.8339 25.7407 24.8339 25.7411C24.8339 25.7414 24.8339 25.7418 24.8339 25.7421C24.8339 25.7425 24.8339 25.7428 24.8339 25.7432C24.8339 25.7436 24.8339 25.7439 24.8339 25.7443C24.8339 25.7446 24.8339 25.745 24.8339 25.7454C24.8339 25.7457 24.8339 25.7461 24.8339 25.7464C24.8339 25.7468 24.8339 25.7472 24.8339 25.7475C24.8339 25.7479 24.8339 25.7482 24.8339 25.7486C24.8339 25.749 24.8339 25.7493 24.8339 25.7497C24.8339 25.75 24.8339 25.7504 24.8339 25.7508C24.8339 25.7511 24.8339 25.7515 24.8339 25.7518C24.8339 25.7522 24.8339 25.7526 24.8339 25.7529C24.8339 25.7533 24.8339 25.7536 24.8339 25.754C24.8339 25.7543 24.8339 25.7547 24.8339 25.7551C24.8339 25.7554 24.8339 25.7558 24.8339 25.7561C24.8339 25.7565 24.8339 25.7569 24.8339 25.7572C24.8339 25.7576 24.8339 25.7579 24.8339 25.7583C24.8339 25.7587 24.8339 25.759 24.8339 25.7594C24.8339 25.7597 24.8339 25.7601 24.8339 25.7605C24.8339 25.7608 24.8339 25.7612 24.8339 25.7615C24.8339 25.7619 24.8339 25.7623 24.8339 25.7626C24.8339 25.763 24.8339 25.7633 24.8339 25.7637C24.8339 25.764 24.8339 25.7644 24.8339 25.7648C24.8339 25.7651 24.8339 25.7655 24.8339 25.7658C24.8339 25.7662 24.8339 25.7666 24.8339 25.7669C24.8339 25.7673 24.8339 25.7676 24.8339 25.768C24.8339 25.7684 24.8339 25.7687 24.8339 25.7691C24.8339 25.7694 24.8339 25.7698 24.8339 25.7702C24.8339 25.7705 24.8339 25.7709 24.8339 25.7712C24.8339 25.7716 24.8339 25.772 24.8339 25.7723C24.8339 25.7727 24.8339 25.773 24.8339 25.7734C24.8339 25.7738 24.8339 25.7741 24.8339 25.7745C24.8339 25.7748 24.8339 25.7752 24.8339 25.7755C24.8339 25.7759 24.8339 25.7763 24.8339 25.7766C24.8339 25.777 24.8339 25.7773 24.8339 25.7777C24.8339 25.7781 24.8339 25.7784 24.8339 25.7788C24.8339 25.7791 24.8339 25.7795 24.8339 25.7799C24.8339 25.7802 24.8339 25.7806 24.8339 25.7809C24.8339 25.7813 24.8339 25.7817 24.8339 25.782C24.8339 25.7824 24.8339 25.7827 24.8339 25.7831C24.8339 25.7835 24.8339 25.7838 24.8339 25.7842C24.8339 25.7845 24.8339 25.7849 24.8339 25.7853C24.8339 25.7856 24.8339 25.786 24.8339 25.7863C24.8339 25.7867 24.8339 25.787 24.8339 25.7874C24.8339 25.7878 24.8339 25.7881 24.8339 25.7885C24.8339 25.7888 24.8339 25.7892 24.8339 25.7896C24.8339 25.7899 24.8339 25.7903 24.8339 25.7906C24.8339 25.791 24.8339 25.7914 24.8339 25.7917C24.8339 25.7921 24.8339 25.7924 24.8339 25.7928C24.8339 25.7932 24.8339 25.7935 24.8339 25.7939C24.8339 25.7942 24.8339 25.7946 24.8339 25.795C24.8339 25.7953 24.8339 25.7957 24.8339 25.796C24.8339 25.7964 24.8339 25.7967 24.8339 25.7971C24.8339 25.7975 24.8339 25.7978 24.8339 25.7982C24.8339 25.7985 24.8339 25.7989 24.8339 25.7993C24.8339 25.7996 24.8339 25.8 24.8339 25.8003C24.8339 25.8007 24.8339 25.8011 24.8339 25.8014C24.8339 25.8018 24.8339 25.8021 24.8339 25.8025C24.8339 25.8029 24.8339 25.8032 24.8339 25.8036C24.8339 25.8039 24.8339 25.8043 24.8339 25.8047C24.8339 25.805 24.8339 25.8054 24.8339 25.8057C24.8339 25.8061 24.8339 25.8065 24.8339 25.8068C24.8339 25.8072 24.8339 25.8075 24.8339 25.8079C24.8339 25.8082 24.8339 25.8086 24.8339 25.809C24.8339 25.8093 24.8339 25.8097 24.8339 25.81C24.8339 25.8104 24.8339 25.8108 24.8339 25.8111C24.8339 25.8115 24.8339 25.8118 24.8339 25.8122C24.8339 25.8126 24.8339 25.8129 24.8339 25.8133C24.8339 25.8136 24.8339 25.814 24.8339 25.8144C24.8339 25.8147 24.8339 25.8151 24.8339 25.8154C24.8339 25.8158 24.8339 25.8162 24.8339 25.8165C24.8339 25.8169 24.8339 25.8172 24.8339 25.8176C24.8339 25.818 24.8339 25.8183 24.8339 25.8187C24.8339 25.819 24.8339 25.8194 24.8339 25.8197C24.8339 25.8201 24.8339 25.8205 24.8339 25.8208C24.8339 25.8212 24.8339 25.8215 24.8339 25.8219C24.8339 25.8223 24.8339 25.8226 24.8339 25.823C24.8339 25.8233 24.8339 25.8237 24.8339 25.8241C24.8339 25.8244 24.8339 25.8248 24.8339 25.8251C24.8339 25.8255 24.8339 25.8259 24.8339 25.8262C24.8339 25.8266 24.8339 25.8269 24.8339 25.8273C24.8339 25.8277 24.8339 25.828 24.8339 25.8284C24.8339 25.8287 24.8339 25.8291 24.8339 25.8294C24.8339 25.8298 24.8339 25.8302 24.8339 25.8305C24.8339 25.8309 24.8339 25.8312 24.8339 25.8316C24.8339 25.832 24.8339 25.8323 24.8339 25.8327C24.8339 25.833 24.8339 25.8334 24.8339 25.8338C24.8339 25.8341 24.8339 25.8345 24.8339 25.8348C24.8339 25.8352 24.8339 25.8356 24.8339 25.8359C24.8339 25.8363 24.8339 25.8366 24.8339 25.837C24.8339 25.8374 24.8339 25.8377 24.8339 25.8381C24.8339 25.8384 24.8339 25.8388 24.8339 25.8392C24.8339 25.8395 24.8339 25.8399 24.8339 25.8402C24.8339 25.8406 24.8339 25.8409 24.8339 25.8413C24.8339 25.8417 24.8339 25.842 24.8339 25.8424C24.8339 25.8427 24.8339 25.8431 24.8339 25.8435C24.8339 25.8438 24.8339 25.8442 24.8339 25.8445C24.8339 25.8449 24.8339 25.8453 24.8339 25.8456C24.8339 25.846 24.8339 25.8463 24.8339 25.8467C24.8339 25.8471 24.8339 25.8474 24.8339 25.8478C24.8339 25.8481 24.8339 25.8485 24.8339 25.8489C24.8339 25.8492 24.8339 25.8496 24.8339 25.8499C24.8339 25.8503 24.8339 25.8507 24.8339 25.851C24.8339 25.8514 24.8339 25.8517 24.8339 25.8521C24.8339 25.8524 24.8339 25.8528 24.8339 25.8532C24.8339 25.8535 24.8339 25.8539 24.8339 25.8542C24.8339 25.8546 24.8339 25.855 24.8339 25.8553C24.8339 25.8557 24.8339 25.856 24.8339 25.8564C24.8339 25.8568 24.8339 25.8571 24.8339 25.8575C24.8339 25.8578 24.8339 25.8582 24.8339 25.8586C24.8339 25.8589 24.8339 25.8593 24.8339 25.8596C24.8339 25.86 24.8339 25.8604 24.8339 25.8607C24.8339 25.8611 24.8339 25.8614 24.8339 25.8618C24.8339 25.8621 24.8339 25.8625 24.8339 25.8629C24.8339 25.8632 24.8339 25.8636 24.8339 25.8639C24.8339 25.8643 24.8339 25.8647 24.8339 25.865C24.8339 25.8654 24.8339 25.8657 24.8339 25.8661C24.8339 25.8665 24.8339 25.8668 24.8339 25.8672C24.8339 25.8675 24.8339 25.8679 24.8339 25.8683C24.8339 25.8686 24.8339 25.869 24.8339 25.8693C24.8339 25.8697 24.8339 25.8701 24.8339 25.8704C24.8339 25.8708 24.8339 25.8711 24.8339 25.8715C24.8339 25.8719 24.8339 25.8722 24.8339 25.8726C24.8339 25.8729 24.8339 25.8733 24.8339 25.8736C24.8339 25.874 24.8339 25.8744 24.8339 25.8747C24.8339 25.8751 24.8339 25.8754 24.8339 25.8758C24.8339 25.8762 24.8339 25.8765 24.8339 25.8769C24.8339 25.8772 24.8339 25.8776 24.8339 25.878C24.8339 25.8783 24.8339 25.8787 24.8339 25.879H25.8339C25.8339 25.8787 25.8339 25.8783 25.8339 25.878C25.8339 25.8776 25.8339 25.8772 25.8339 25.8769C25.8339 25.8765 25.8339 25.8762 25.8339 25.8758C25.8339 25.8754 25.8339 25.8751 25.8339 25.8747C25.8339 25.8744 25.8339 25.874 25.8339 25.8736C25.8339 25.8733 25.8339 25.8729 25.8339 25.8726C25.8339 25.8722 25.8339 25.8719 25.8339 25.8715C25.8339 25.8711 25.8339 25.8708 25.8339 25.8704C25.8339 25.8701 25.8339 25.8697 25.8339 25.8693C25.8339 25.869 25.8339 25.8686 25.8339 25.8683C25.8339 25.8679 25.8339 25.8675 25.8339 25.8672C25.8339 25.8668 25.8339 25.8665 25.8339 25.8661C25.8339 25.8657 25.8339 25.8654 25.8339 25.865C25.8339 25.8647 25.8339 25.8643 25.8339 25.8639C25.8339 25.8636 25.8339 25.8632 25.8339 25.8629C25.8339 25.8625 25.8339 25.8621 25.8339 25.8618C25.8339 25.8614 25.8339 25.8611 25.8339 25.8607C25.8339 25.8604 25.8339 25.86 25.8339 25.8596C25.8339 25.8593 25.8339 25.8589 25.8339 25.8586C25.8339 25.8582 25.8339 25.8578 25.8339 25.8575C25.8339 25.8571 25.8339 25.8568 25.8339 25.8564C25.8339 25.856 25.8339 25.8557 25.8339 25.8553C25.8339 25.855 25.8339 25.8546 25.8339 25.8542C25.8339 25.8539 25.8339 25.8535 25.8339 25.8532C25.8339 25.8528 25.8339 25.8524 25.8339 25.8521C25.8339 25.8517 25.8339 25.8514 25.8339 25.851C25.8339 25.8507 25.8339 25.8503 25.8339 25.8499C25.8339 25.8496 25.8339 25.8492 25.8339 25.8489C25.8339 25.8485 25.8339 25.8481 25.8339 25.8478C25.8339 25.8474 25.8339 25.8471 25.8339 25.8467C25.8339 25.8463 25.8339 25.846 25.8339 25.8456C25.8339 25.8453 25.8339 25.8449 25.8339 25.8445C25.8339 25.8442 25.8339 25.8438 25.8339 25.8435C25.8339 25.8431 25.8339 25.8427 25.8339 25.8424C25.8339 25.842 25.8339 25.8417 25.8339 25.8413C25.8339 25.8409 25.8339 25.8406 25.8339 25.8402C25.8339 25.8399 25.8339 25.8395 25.8339 25.8392C25.8339 25.8388 25.8339 25.8384 25.8339 25.8381C25.8339 25.8377 25.8339 25.8374 25.8339 25.837C25.8339 25.8366 25.8339 25.8363 25.8339 25.8359C25.8339 25.8356 25.8339 25.8352 25.8339 25.8348C25.8339 25.8345 25.8339 25.8341 25.8339 25.8338C25.8339 25.8334 25.8339 25.833 25.8339 25.8327C25.8339 25.8323 25.8339 25.832 25.8339 25.8316C25.8339 25.8312 25.8339 25.8309 25.8339 25.8305C25.8339 25.8302 25.8339 25.8298 25.8339 25.8294C25.8339 25.8291 25.8339 25.8287 25.8339 25.8284C25.8339 25.828 25.8339 25.8277 25.8339 25.8273C25.8339 25.8269 25.8339 25.8266 25.8339 25.8262C25.8339 25.8259 25.8339 25.8255 25.8339 25.8251C25.8339 25.8248 25.8339 25.8244 25.8339 25.8241C25.8339 25.8237 25.8339 25.8233 25.8339 25.823C25.8339 25.8226 25.8339 25.8223 25.8339 25.8219C25.8339 25.8215 25.8339 25.8212 25.8339 25.8208C25.8339 25.8205 25.8339 25.8201 25.8339 25.8197C25.8339 25.8194 25.8339 25.819 25.8339 25.8187C25.8339 25.8183 25.8339 25.818 25.8339 25.8176C25.8339 25.8172 25.8339 25.8169 25.8339 25.8165C25.8339 25.8162 25.8339 25.8158 25.8339 25.8154C25.8339 25.8151 25.8339 25.8147 25.8339 25.8144C25.8339 25.814 25.8339 25.8136 25.8339 25.8133C25.8339 25.8129 25.8339 25.8126 25.8339 25.8122C25.8339 25.8118 25.8339 25.8115 25.8339 25.8111C25.8339 25.8108 25.8339 25.8104 25.8339 25.81C25.8339 25.8097 25.8339 25.8093 25.8339 25.809C25.8339 25.8086 25.8339 25.8082 25.8339 25.8079C25.8339 25.8075 25.8339 25.8072 25.8339 25.8068C25.8339 25.8065 25.8339 25.8061 25.8339 25.8057C25.8339 25.8054 25.8339 25.805 25.8339 25.8047C25.8339 25.8043 25.8339 25.8039 25.8339 25.8036C25.8339 25.8032 25.8339 25.8029 25.8339 25.8025C25.8339 25.8021 25.8339 25.8018 25.8339 25.8014C25.8339 25.8011 25.8339 25.8007 25.8339 25.8003C25.8339 25.8 25.8339 25.7996 25.8339 25.7993C25.8339 25.7989 25.8339 25.7985 25.8339 25.7982C25.8339 25.7978 25.8339 25.7975 25.8339 25.7971C25.8339 25.7967 25.8339 25.7964 25.8339 25.796C25.8339 25.7957 25.8339 25.7953 25.8339 25.795C25.8339 25.7946 25.8339 25.7942 25.8339 25.7939C25.8339 25.7935 25.8339 25.7932 25.8339 25.7928C25.8339 25.7924 25.8339 25.7921 25.8339 25.7917C25.8339 25.7914 25.8339 25.791 25.8339 25.7906C25.8339 25.7903 25.8339 25.7899 25.8339 25.7896C25.8339 25.7892 25.8339 25.7888 25.8339 25.7885C25.8339 25.7881 25.8339 25.7878 25.8339 25.7874C25.8339 25.787 25.8339 25.7867 25.8339 25.7863C25.8339 25.786 25.8339 25.7856 25.8339 25.7853C25.8339 25.7849 25.8339 25.7845 25.8339 25.7842C25.8339 25.7838 25.8339 25.7835 25.8339 25.7831C25.8339 25.7827 25.8339 25.7824 25.8339 25.782C25.8339 25.7817 25.8339 25.7813 25.8339 25.7809C25.8339 25.7806 25.8339 25.7802 25.8339 25.7799C25.8339 25.7795 25.8339 25.7791 25.8339 25.7788C25.8339 25.7784 25.8339 25.7781 25.8339 25.7777C25.8339 25.7773 25.8339 25.777 25.8339 25.7766C25.8339 25.7763 25.8339 25.7759 25.8339 25.7755C25.8339 25.7752 25.8339 25.7748 25.8339 25.7745C25.8339 25.7741 25.8339 25.7738 25.8339 25.7734C25.8339 25.773 25.8339 25.7727 25.8339 25.7723C25.8339 25.772 25.8339 25.7716 25.8339 25.7712C25.8339 25.7709 25.8339 25.7705 25.8339 25.7702C25.8339 25.7698 25.8339 25.7694 25.8339 25.7691C25.8339 25.7687 25.8339 25.7684 25.8339 25.768C25.8339 25.7676 25.8339 25.7673 25.8339 25.7669C25.8339 25.7666 25.8339 25.7662 25.8339 25.7658C25.8339 25.7655 25.8339 25.7651 25.8339 25.7648C25.8339 25.7644 25.8339 25.764 25.8339 25.7637C25.8339 25.7633 25.8339 25.763 25.8339 25.7626C25.8339 25.7623 25.8339 25.7619 25.8339 25.7615C25.8339 25.7612 25.8339 25.7608 25.8339 25.7605C25.8339 25.7601 25.8339 25.7597 25.8339 25.7594C25.8339 25.759 25.8339 25.7587 25.8339 25.7583C25.8339 25.7579 25.8339 25.7576 25.8339 25.7572C25.8339 25.7569 25.8339 25.7565 25.8339 25.7561C25.8339 25.7558 25.8339 25.7554 25.8339 25.7551C25.8339 25.7547 25.8339 25.7543 25.8339 25.754C25.8339 25.7536 25.8339 25.7533 25.8339 25.7529C25.8339 25.7526 25.8339 25.7522 25.8339 25.7518C25.8339 25.7515 25.8339 25.7511 25.8339 25.7508C25.8339 25.7504 25.8339 25.75 25.8339 25.7497C25.8339 25.7493 25.8339 25.749 25.8339 25.7486C25.8339 25.7482 25.8339 25.7479 25.8339 25.7475C25.8339 25.7472 25.8339 25.7468 25.8339 25.7464C25.8339 25.7461 25.8339 25.7457 25.8339 25.7454C25.8339 25.745 25.8339 25.7446 25.8339 25.7443C25.8339 25.7439 25.8339 25.7436 25.8339 25.7432C25.8339 25.7428 25.8339 25.7425 25.8339 25.7421C25.8339 25.7418 25.8339 25.7414 25.8339 25.7411C25.8339 25.7407 25.8339 25.7403 25.8339 25.74C25.8339 25.7396 25.8339 25.7393 25.8339 25.7389C25.8339 25.7385 25.8339 25.7382 25.8339 25.7378C25.8339 25.7375 25.8339 25.7371 25.8339 25.7367C25.8339 25.7364 25.8339 25.736 25.8339 25.7357C25.8339 25.7353 25.8339 25.7349 25.8339 25.7346C25.8339 25.7342 25.8339 25.7339 25.8339 25.7335C25.8339 25.7331 25.8339 25.7328 25.8339 25.7324C25.8339 25.7321 25.8339 25.7317 25.8339 25.7313C25.8339 25.731 25.8339 25.7306 25.8339 25.7303C25.8339 25.7299 25.8339 25.7296 25.8339 25.7292C25.8339 25.7288 25.8339 25.7285 25.8339 25.7281C25.8339 25.7278 25.8339 25.7274 25.8339 25.727C25.8339 25.7267 25.8339 25.7263 25.8339 25.726C25.8339 25.7256 25.8339 25.7252 25.8339 25.7249C25.8339 25.7245 25.8339 25.7242 25.8339 25.7238C25.8339 25.7234 25.8339 25.7231 25.8339 25.7227C25.8339 25.7224 25.8339 25.722 25.8339 25.7216C25.8339 25.7213 25.8339 25.7209 25.8339 25.7206C25.8339 25.7202 25.8339 25.7199 25.8339 25.7195C25.8339 25.7191 25.8339 25.7188 25.8339 25.7184C25.8339 25.7181 25.8339 25.7177 25.8339 25.7173C25.8339 25.717 25.8339 25.7166 25.8339 25.7163C25.8339 25.7159 25.8339 25.7155 25.8339 25.7152C25.8339 25.7148 25.8339 25.7145 25.8339 25.7141C25.8339 25.7137 25.8339 25.7134 25.8339 25.713C25.8339 25.7127 25.8339 25.7123 25.8339 25.7119C25.8339 25.7116 25.8339 25.7112 25.8339 25.7109C25.8339 25.7105 25.8339 25.7101 25.8339 25.7098C25.8339 25.7094 25.8339 25.7091 25.8339 25.7087C25.8339 25.7084 25.8339 25.708 25.8339 25.7076C25.8339 25.7073 25.8339 25.7069 25.8339 25.7066C25.8339 25.7062 25.8339 25.7058 25.8339 25.7055C25.8339 25.7051 25.8339 25.7048 25.8339 25.7044C25.8339 25.704 25.8339 25.7037 25.8339 25.7033C25.8339 25.703 25.8339 25.7026 25.8339 25.7022C25.8339 25.7019 25.8339 25.7015 25.8339 25.7012C25.8339 25.7008 25.8339 25.7004 25.8339 25.7001C25.8339 25.6997 25.8339 25.6994 25.8339 25.699C25.8339 25.6987 25.8339 25.6983 25.8339 25.6979C25.8339 25.6976 25.8339 25.6972 25.8339 25.6969C25.8339 25.6965 25.8339 25.6961 25.8339 25.6958C25.8339 25.6954 25.8339 25.6951 25.8339 25.6947C25.8339 25.6943 25.8339 25.694 25.8339 25.6936C25.8339 25.6933 25.8339 25.6929 25.8339 25.6925C25.8339 25.6922 25.8339 25.6918 25.8339 25.6915C25.8339 25.6911 25.8339 25.6907 25.8339 25.6904C25.8339 25.69 25.8339 25.6897 25.8339 25.6893C25.8339 25.6889 25.8339 25.6886 25.8339 25.6882C25.8339 25.6879 25.8339 25.6875 25.8339 25.6872C25.8339 25.6868 25.8339 25.6864 25.8339 25.6861C25.8339 25.6857 25.8339 25.6854 25.8339 25.685C25.8339 25.6846 25.8339 25.6843 25.8339 25.6839C25.8339 25.6836 25.8339 25.6832 25.8339 25.6828C25.8339 25.6825 25.8339 25.6821 25.8339 25.6818C25.8339 25.6814 25.8339 25.681 25.8339 25.6807C25.8339 25.6803 25.8339 25.68 25.8339 25.6796C25.8339 25.6792 25.8339 25.6789 25.8339 25.6785C25.8339 25.6782 25.8339 25.6778 25.8339 25.6775C25.8339 25.6771 25.8339 25.6767 25.8339 25.6764C25.8339 25.676 25.8339 25.6757 25.8339 25.6753C25.8339 25.6749 25.8339 25.6746 25.8339 25.6742C25.8339 25.6739 25.8339 25.6735 25.8339 25.6731C25.8339 25.6728 25.8339 25.6724 25.8339 25.6721C25.8339 25.6717 25.8339 25.6713 25.8339 25.671C25.8339 25.6706 25.8339 25.6703 25.8339 25.6699C25.8339 25.6695 25.8339 25.6692 25.8339 25.6688C25.8339 25.6685 25.8339 25.6681 25.8339 25.6677C25.8339 25.6674 25.8339 25.667 25.8339 25.6667C25.8339 25.6663 25.8339 25.666 25.8339 25.6656C25.8339 25.6652 25.8339 25.6649 25.8339 25.6645C25.8339 25.6642 25.8339 25.6638 25.8339 25.6634C25.8339 25.6631 25.8339 25.6627 25.8339 25.6624C25.8339 25.662 25.8339 25.6616 25.8339 25.6613C25.8339 25.6609 25.8339 25.6606 25.8339 25.6602C25.8339 25.6598 25.8339 25.6595 25.8339 25.6591C25.8339 25.6588 25.8339 25.6584 25.8339 25.658C25.8339 25.6577 25.8339 25.6573 25.8339 25.657C25.8339 25.6566 25.8339 25.6562 25.8339 25.6559C25.8339 25.6555 25.8339 25.6552 25.8339 25.6548C25.8339 25.6545 25.8339 25.6541 25.8339 25.6537C25.8339 25.6534 25.8339 25.653 25.8339 25.6527C25.8339 25.6523 25.8339 25.6519 25.8339 25.6516C25.8339 25.6512 25.8339 25.6509 25.8339 25.6505C25.8339 25.6501 25.8339 25.6498 25.8339 25.6494C25.8339 25.6491 25.8339 25.6487 25.8339 25.6483C25.8339 25.648 25.8339 25.6476 25.8339 25.6473C25.8339 25.6469 25.8339 25.6465 25.8339 25.6462C25.8339 25.6458 25.8339 25.6455 25.8339 25.6451C25.8339 25.6448 25.8339 25.6444 25.8339 25.644C25.8339 25.6437 25.8339 25.6433 25.8339 25.643C25.8339 25.6426 25.8339 25.6422 25.8339 25.6419C25.8339 25.6415 25.8339 25.6412 25.8339 25.6408C25.8339 25.6404 25.8339 25.6401 25.8339 25.6397C25.8339 25.6394 25.8339 25.639 25.8339 25.6386C25.8339 25.6383 25.8339 25.6379 25.8339 25.6376C25.8339 25.6372 25.8339 25.6368 25.8339 25.6365C25.8339 25.6361 25.8339 25.6358 25.8339 25.6354C25.8339 25.635 25.8339 25.6347 25.8339 25.6343C25.8339 25.634 25.8339 25.6336 25.8339 25.6333C25.8339 25.6329 25.8339 25.6325 25.8339 25.6322C25.8339 25.6318 25.8339 25.6315 25.8339 25.6311C25.8339 25.6307 25.8339 25.6304 25.8339 25.63C25.8339 25.6297 25.8339 25.6293 25.8339 25.6289C25.8339 25.6286 25.8339 25.6282 25.8339 25.6279C25.8339 25.6275 25.8339 25.6271 25.8339 25.6268C25.8339 25.6264 25.8339 25.6261 25.8339 25.6257C25.8339 25.6253 25.8339 25.625 25.8339 25.6246C25.8339 25.6243 25.8339 25.6239 25.8339 25.6236C25.8339 25.6232 25.8339 25.6228 25.8339 25.6225C25.8339 25.6221 25.8339 25.6218 25.8339 25.6214C25.8339 25.621 25.8339 25.6207 25.8339 25.6203C25.8339 25.62 25.8339 25.6196 25.8339 25.6192C25.8339 25.6189 25.8339 25.6185 25.8339 25.6182C25.8339 25.6178 25.8339 25.6174 25.8339 25.6171C25.8339 25.6167 25.8339 25.6164 25.8339 25.616C25.8339 25.6156 25.8339 25.6153 25.8339 25.6149C25.8339 25.6146 25.8339 25.6142 25.8339 25.6138C25.8339 25.6135 25.8339 25.6131 25.8339 25.6128C25.8339 25.6124 25.8339 25.6121 25.8339 25.6117C25.8339 25.6113 25.8339 25.611 25.8339 25.6106C25.8339 25.6103 25.8339 25.6099 25.8339 25.6095C25.8339 25.6092 25.8339 25.6088 25.8339 25.6085C25.8339 25.6081 25.8339 25.6077 25.8339 25.6074C25.8339 25.607 25.8339 25.6067 25.8339 25.6063C25.8339 25.6059 25.8339 25.6056 25.8339 25.6052C25.8339 25.6049 25.8339 25.6045 25.8339 25.6041C25.8339 25.6038 25.8339 25.6034 25.8339 25.6031C25.8339 25.6027 25.8339 25.6023 25.8339 25.602C25.8339 25.6016 25.8339 25.6013 25.8339 25.6009C25.8339 25.6006 25.8339 25.6002 25.8339 25.5998C25.8339 25.5995 25.8339 25.5991 25.8339 25.5988C25.8339 25.5984 25.8339 25.598 25.8339 25.5977C25.8339 25.5973 25.8339 25.597 25.8339 25.5966C25.8339 25.5962 25.8339 25.5959 25.8339 25.5955C25.8339 25.5952 25.8339 25.5948 25.8339 25.5944C25.8339 25.5941 25.8339 25.5937 25.8339 25.5934C25.8339 25.593 25.8339 25.5926 25.8339 25.5923C25.8339 25.5919 25.8339 25.5916 25.8339 25.5912C25.8339 25.5908 25.8339 25.5905 25.8339 25.5901C25.8339 25.5898 25.8339 25.5894 25.8339 25.5891C25.8339 25.5887 25.8339 25.5883 25.8339 25.588C25.8339 25.5876 25.8339 25.5873 25.8339 25.5869C25.8339 25.5865 25.8339 25.5862 25.8339 25.5858C25.8339 25.5855 25.8339 25.5851 25.8339 25.5847C25.8339 25.5844 25.8339 25.584 25.8339 25.5837C25.8339 25.5833 25.8339 25.5829 25.8339 25.5826C25.8339 25.5822 25.8339 25.5819 25.8339 25.5815C25.8339 25.5811 25.8339 25.5808 25.8339 25.5804C25.8339 25.5801 25.8339 25.5797 25.8339 25.5794C25.8339 25.579 25.8339 25.5786 25.8339 25.5783C25.8339 25.5779 25.8339 25.5776 25.8339 25.5772C25.8339 25.5768 25.8339 25.5765 25.8339 25.5761C25.8339 25.5758 25.8339 25.5754 25.8339 25.575C25.8339 25.5747 25.8339 25.5743 25.8339 25.574C25.8339 25.5736 25.8339 25.5732 25.8339 25.5729C25.8339 25.5725 25.8339 25.5722 25.8339 25.5718C25.8339 25.5714 25.8339 25.5711 25.8339 25.5707C25.8339 25.5704 25.8339 25.57 25.8339 25.5696C25.8339 25.5693 25.8339 25.5689 25.8339 25.5686C25.8339 25.5682 25.8339 25.5679 25.8339 25.5675C25.8339 25.5671 25.8339 25.5668 25.8339 25.5664C25.8339 25.5661 25.8339 25.5657 25.8339 25.5653C25.8339 25.565 25.8339 25.5646 25.8339 25.5643C25.8339 25.5639 25.8339 25.5635 25.8339 25.5632C25.8339 25.5628 25.8339 25.5625 25.8339 25.5621C25.8339 25.5617 25.8339 25.5614 25.8339 25.561C25.8339 25.5607 25.8339 25.5603 25.8339 25.5599C25.8339 25.5596 25.8339 25.5592 25.8339 25.5589C25.8339 25.5585 25.8339 25.5581 25.8339 25.5578C25.8339 25.5574 25.8339 25.5571 25.8339 25.5567C25.8339 25.5564 25.8339 25.556 25.8339 25.5556C25.8339 25.5553 25.8339 25.5549 25.8339 25.5546C25.8339 25.5542 25.8339 25.5538 25.8339 25.5535C25.8339 25.5531 25.8339 25.5528 25.8339 25.5524C25.8339 25.552 25.8339 25.5517 25.8339 25.5513C25.8339 25.551 25.8339 25.5506 25.8339 25.5502C25.8339 25.5499 25.8339 25.5495 25.8339 25.5492C25.8339 25.5488 25.8339 25.5484 25.8339 25.5481C25.8339 25.5477 25.8339 25.5474 25.8339 25.547C25.8339 25.5467 25.8339 25.5463 25.8339 25.5459C25.8339 25.5456 25.8339 25.5452 25.8339 25.5449C25.8339 25.5445 25.8339 25.5441 25.8339 25.5438C25.8339 25.5434 25.8339 25.5431 25.8339 25.5427C25.8339 25.5423 25.8339 25.542 25.8339 25.5416C25.8339 25.5413 25.8339 25.5409 25.8339 25.5405C25.8339 25.5402 25.8339 25.5398 25.8339 25.5395C25.8339 25.5391 25.8339 25.5387 25.8339 25.5384C25.8339 25.538 25.8339 25.5377 25.8339 25.5373C25.8339 25.5369 25.8339 25.5366 25.8339 25.5362C25.8339 25.5359 25.8339 25.5355 25.8339 25.5352C25.8339 25.5348 25.8339 25.5344 25.8339 25.5341C25.8339 25.5337 25.8339 25.5334 25.8339 25.533C25.8339 25.5326 25.8339 25.5323 25.8339 25.5319C25.8339 25.5316 25.8339 25.5312 25.8339 25.5308C25.8339 25.5305 25.8339 25.5301 25.8339 25.5298C25.8339 25.5294 25.8339 25.529 25.8339 25.5287C25.8339 25.5283 25.8339 25.528 25.8339 25.5276C25.8339 25.5272 25.8339 25.5269 25.8339 25.5265C25.8339 25.5262 25.8339 25.5258 25.8339 25.5254C25.8339 25.5251 25.8339 25.5247 25.8339 25.5244C25.8339 25.524 25.8339 25.5237 25.8339 25.5233C25.8339 25.5229 25.8339 25.5226 25.8339 25.5222C25.8339 25.5219 25.8339 25.5215 25.8339 25.5211C25.8339 25.5208 25.8339 25.5204 25.8339 25.5201C25.8339 25.5197 25.8339 25.5193 25.8339 25.519C25.8339 25.5186 25.8339 25.5183 25.8339 25.5179C25.8339 25.5175 25.8339 25.5172 25.8339 25.5168C25.8339 25.5165 25.8339 25.5161 25.8339 25.5157C25.8339 25.5154 25.8339 25.515 25.8339 25.5147C25.8339 25.5143 25.8339 25.514 25.8339 25.5136C25.8339 25.5132 25.8339 25.5129 25.8339 25.5125C25.8339 25.5122 25.8339 25.5118 25.8339 25.5114C25.8339 25.5111 25.8339 25.5107 25.8339 25.5104C25.8339 25.51 25.8339 25.5096 25.8339 25.5093C25.8339 25.5089 25.8339 25.5086 25.8339 25.5082C25.8339 25.5078 25.8339 25.5075 25.8339 25.5071C25.8339 25.5068 25.8339 25.5064 25.8339 25.506C25.8339 25.5057 25.8339 25.5053 25.8339 25.505C25.8339 25.5046 25.8339 25.5042 25.8339 25.5039C25.8339 25.5035 25.8339 25.5032 25.8339 25.5028C25.8339 25.5025 25.8339 25.5021 25.8339 25.5017C25.8339 25.5014 25.8339 25.501 25.8339 25.5007C25.8339 25.5003 25.8339 25.4999 25.8339 25.4996C25.8339 25.4992 25.8339 25.4989 25.8339 25.4985C25.8339 25.4981 25.8339 25.4978 25.8339 25.4974C25.8339 25.4971 25.8339 25.4967 25.8339 25.4963C25.8339 25.496 25.8339 25.4956 25.8339 25.4953C25.8339 25.4949 25.8339 25.4945 25.8339 25.4942C25.8339 25.4938 25.8339 25.4935 25.8339 25.4931C25.8339 25.4928 25.8339 25.4924 25.8339 25.492C25.8339 25.4917 25.8339 25.4913 25.8339 25.491C25.8339 25.4906 25.8339 25.4902 25.8339 25.4899C25.8339 25.4895 25.8339 25.4892 25.8339 25.4888C25.8339 25.4884 25.8339 25.4881 25.8339 25.4877C25.8339 25.4874 25.8339 25.487 25.8339 25.4866C25.8339 25.4863 25.8339 25.4859 25.8339 25.4856C25.8339 25.4852 25.8339 25.4848 25.8339 25.4845C25.8339 25.4841 25.8339 25.4838 25.8339 25.4834C25.8339 25.483 25.8339 25.4827 25.8339 25.4823C25.8339 25.482 25.8339 25.4816 25.8339 25.4813C25.8339 25.4809 25.8339 25.4805 25.8339 25.4802C25.8339 25.4798 25.8339 25.4795 25.8339 25.4791C25.8339 25.4787 25.8339 25.4784 25.8339 25.478C25.8339 25.4777 25.8339 25.4773 25.8339 25.4769C25.8339 25.4766 25.8339 25.4762 25.8339 25.4759C25.8339 25.4755 25.8339 25.4751 25.8339 25.4748C25.8339 25.4744 25.8339 25.4741 25.8339 25.4737C25.8339 25.4733 25.8339 25.473 25.8339 25.4726C25.8339 25.4723 25.8339 25.4719 25.8339 25.4715C25.8339 25.4712 25.8339 25.4708 25.8339 25.4705C25.8339 25.4701 25.8339 25.4698 25.8339 25.4694C25.8339 25.469 25.8339 25.4687 25.8339 25.4683C25.8339 25.468 25.8339 25.4676 25.8339 25.4672C25.8339 25.4669 25.8339 25.4665 25.8339 25.4662C25.8339 25.4658 25.8339 25.4654 25.8339 25.4651C25.8339 25.4647 25.8339 25.4644 25.8339 25.464C25.8339 25.4636 25.8339 25.4633 25.8339 25.4629C25.8339 25.4626 25.8339 25.4622 25.8339 25.4618C25.8339 25.4615 25.8339 25.4611 25.8339 25.4608C25.8339 25.4604 25.8339 25.4601 25.8339 25.4597C25.8339 25.4593 25.8339 25.459 25.8339 25.4586C25.8339 25.4583 25.8339 25.4579 25.8339 25.4575C25.8339 25.4572 25.8339 25.4568 25.8339 25.4565C25.8339 25.4561 25.8339 25.4557 25.8339 25.4554C25.8339 25.455 25.8339 25.4547 25.8339 25.4543C25.8339 25.4539 25.8339 25.4536 25.8339 25.4532C25.8339 25.4529 25.8339 25.4525 25.8339 25.4521C25.8339 25.4518 25.8339 25.4514 25.8339 25.4511C25.8339 25.4507 25.8339 25.4503 25.8339 25.45C25.8339 25.4496 25.8339 25.4493 25.8339 25.4489C25.8339 25.4486 25.8339 25.4482 25.8339 25.4478C25.8339 25.4475 25.8339 25.4471 25.8339 25.4468C25.8339 25.4464 25.8339 25.446 25.8339 25.4457C25.8339 25.4453 25.8339 25.445 25.8339 25.4446C25.8339 25.4442 25.8339 25.4439 25.8339 25.4435C25.8339 25.4432 25.8339 25.4428 25.8339 25.4424C25.8339 25.4421 25.8339 25.4417 25.8339 25.4414C25.8339 25.441 25.8339 25.4406 25.8339 25.4403C25.8339 25.4399 25.8339 25.4396 25.8339 25.4392C25.8339 25.4389 25.8339 25.4385 25.8339 25.4381C25.8339 25.4378 25.8339 25.4374 25.8339 25.4371C25.8339 25.4367 25.8339 25.4363 25.8339 25.436C25.8339 25.4356 25.8339 25.4353 25.8339 25.4349C25.8339 25.4345 25.8339 25.4342 25.8339 25.4338C25.8339 25.4335 25.8339 25.4331 25.8339 25.4327C25.8339 25.4324 25.8339 25.432 25.8339 25.4317C25.8339 25.4313 25.8339 25.4309 25.8339 25.4306C25.8339 25.4302 25.8339 25.4299 25.8339 25.4295C25.8339 25.4291 25.8339 25.4288 25.8339 25.4284C25.8339 25.4281 25.8339 25.4277 25.8339 25.4274C25.8339 25.427 25.8339 25.4266 25.8339 25.4263C25.8339 25.4259 25.8339 25.4256 25.8339 25.4252C25.8339 25.4248 25.8339 25.4245 25.8339 25.4241C25.8339 25.4238 25.8339 25.4234 25.8339 25.423C25.8339 25.4227 25.8339 25.4223 25.8339 25.422C25.8339 25.4216 25.8339 25.4212 25.8339 25.4209C25.8339 25.4205 25.8339 25.4202 25.8339 25.4198C25.8339 25.4194 25.8339 25.4191 25.8339 25.4187C25.8339 25.4184 25.8339 25.418 25.8339 25.4176C25.8339 25.4173 25.8339 25.4169 25.8339 25.4166C25.8339 25.4162 25.8339 25.4159 25.8339 25.4155C25.8339 25.4151 25.8339 25.4148 25.8339 25.4144C25.8339 25.4141 25.8339 25.4137 25.8339 25.4133C25.8339 25.413 25.8339 25.4126 25.8339 25.4123C25.8339 25.4119 25.8339 25.4115 25.8339 25.4112C25.8339 25.4108 25.8339 25.4105 25.8339 25.4101C25.8339 25.4097 25.8339 25.4094 25.8339 25.409C25.8339 25.4087 25.8339 25.4083 25.8339 25.4079C25.8339 25.4076 25.8339 25.4072 25.8339 25.4069C25.8339 25.4065 25.8339 25.4061 25.8339 25.4058C25.8339 25.4054 25.8339 25.4051 25.8339 25.4047C25.8339 25.4044 25.8339 25.404 25.8339 25.4036C25.8339 25.4033 25.8339 25.4029 25.8339 25.4026C25.8339 25.4022 25.8339 25.4018 25.8339 25.4015C25.8339 25.4011 25.8339 25.4008 25.8339 25.4004C25.8339 25.4 25.8339 25.3997 25.8339 25.3993C25.8339 25.399 25.8339 25.3986 25.8339 25.3982C25.8339 25.3979 25.8339 25.3975 25.8339 25.3972C25.8339 25.3968 25.8339 25.3964 25.8339 25.3961C25.8339 25.3957 25.8339 25.3954 25.8339 25.395C25.8339 25.3947 25.8339 25.3943 25.8339 25.3939C25.8339 25.3936 25.8339 25.3932 25.8339 25.3929C25.8339 25.3925 25.8339 25.3921 25.8339 25.3918C25.8339 25.3914 25.8339 25.3911 25.8339 25.3907C25.8339 25.3903 25.8339 25.39 25.8339 25.3896C25.8339 25.3893 25.8339 25.3889 25.8339 25.3885C25.8339 25.3882 25.8339 25.3878 25.8339 25.3875C25.8339 25.3871 25.8339 25.3867 25.8339 25.3864C25.8339 25.386 25.8339 25.3857 25.8339 25.3853C25.8339 25.3849 25.8339 25.3846 25.8339 25.3842C25.8339 25.3839 25.8339 25.3835 25.8339 25.3832C25.8339 25.3828 25.8339 25.3824 25.8339 25.3821C25.8339 25.3817 25.8339 25.3814 25.8339 25.381C25.8339 25.3806 25.8339 25.3803 25.8339 25.3799C25.8339 25.3796 25.8339 25.3792 25.8339 25.3788C25.8339 25.3785 25.8339 25.3781 25.8339 25.3778C25.8339 25.3774 25.8339 25.377 25.8339 25.3767C25.8339 25.3763 25.8339 25.376 25.8339 25.3756C25.8339 25.3752 25.8339 25.3749 25.8339 25.3745C25.8339 25.3742 25.8339 25.3738 25.8339 25.3734C25.8339 25.3731 25.8339 25.3727 25.8339 25.3724C25.8339 25.372 25.8339 25.3717 25.8339 25.3713C25.8339 25.3709 25.8339 25.3706 25.8339 25.3702C25.8339 25.3699 25.8339 25.3695 25.8339 25.3691C25.8339 25.3688 25.8339 25.3684 25.8339 25.3681C25.8339 25.3677 25.8339 25.3673 25.8339 25.367C25.8339 25.3666 25.8339 25.3663 25.8339 25.3659C25.8339 25.3655 25.8339 25.3652 25.8339 25.3648C25.8339 25.3645 25.8339 25.3641 25.8339 25.3637C25.8339 25.3634 25.8339 25.363 25.8339 25.3627C25.8339 25.3623 25.8339 25.3619 25.8339 25.3616C25.8339 25.3612 25.8339 25.3609 25.8339 25.3605C25.8339 25.3602 25.8339 25.3598 25.8339 25.3594C25.8339 25.3591 25.8339 25.3587 25.8339 25.3584C25.8339 25.358 25.8339 25.3576 25.8339 25.3573C25.8339 25.3569 25.8339 25.3566 25.8339 25.3562C25.8339 25.3558 25.8339 25.3555 25.8339 25.3551C25.8339 25.3548 25.8339 25.3544 25.8339 25.354C25.8339 25.3537 25.8339 25.3533 25.8339 25.353C25.8339 25.3526 25.8339 25.3522 25.8339 25.3519C25.8339 25.3515 25.8339 25.3512 25.8339 25.3508C25.8339 25.3505 25.8339 25.3501 25.8339 25.3497C25.8339 25.3494 25.8339 25.349 25.8339 25.3487C25.8339 25.3483 25.8339 25.3479 25.8339 25.3476C25.8339 25.3472 25.8339 25.3469 25.8339 25.3465C25.8339 25.3461 25.8339 25.3458 25.8339 25.3454C25.8339 25.3451 25.8339 25.3447 25.8339 25.3443C25.8339 25.344 25.8339 25.3436 25.8339 25.3433C25.8339 25.3429 25.8339 25.3425 25.8339 25.3422C25.8339 25.3418 25.8339 25.3415 25.8339 25.3411C25.8339 25.3407 25.8339 25.3404 25.8339 25.34C25.8339 25.3397 25.8339 25.3393 25.8339 25.339C25.8339 25.3386 25.8339 25.3382 25.8339 25.3379C25.8339 25.3375 25.8339 25.3372 25.8339 25.3368C25.8339 25.3364 25.8339 25.3361 25.8339 25.3357C25.8339 25.3354 25.8339 25.335 25.8339 25.3346C25.8339 25.3343 25.8339 25.3339 25.8339 25.3336C25.8339 25.3332 25.8339 25.3328 25.8339 25.3325C25.8339 25.3321 25.8339 25.3318 25.8339 25.3314C25.8339 25.331 25.8339 25.3307 25.8339 25.3303C25.8339 25.33 25.8339 25.3296 25.8339 25.3293C25.8339 25.3289 25.8339 25.3285 25.8339 25.3282C25.8339 25.3278 25.8339 25.3275 25.8339 25.3271H24.8339ZM25.3762 26.3772C28.6954 26.0957 31.4881 24.9625 32.9666 22.956L32.1615 22.3628C30.9287 24.0358 28.4796 25.1104 25.2917 25.3808L25.3762 26.3772ZM32.9509 22.9761C34.4221 21.1791 34.7961 19.0816 34.2266 16.5694L33.2513 16.7905C33.7663 19.0618 33.4173 20.8279 32.1772 22.3426L32.9509 22.9761Z" fill="#FF5900"/>
<path d="M19.9479 14.5123H27.5778" stroke="#2D017C" stroke-linecap="square"/>
<path d="M19.9479 16.0651H27.5778" stroke="#2D017C" stroke-linecap="square"/>
<path d="M26.0553 18.3995H25.2923L22.2404 12.1865H21.4297V18.3995" stroke="#2D017C" stroke-linecap="square"/>
<path d="M26.0916 18.3952V12.1823" stroke="#2D017C" stroke-linecap="square"/>
<path d="M16.4546 27.5263L23.2328 27.9862C24.1366 28.0782 25.1307 27.3423 25.4018 26.5144V26.5144C25.4018 26.4224 25.4018 26.3304 25.4922 26.2384C25.4922 26.0544 25.4922 25.8705 25.4922 25.6865C25.4018 25.1345 24.95 24.5826 24.3173 24.3986L16.0931 22.0988C15.7315 22.0068 15.2797 22.0068 14.9182 22.0068C14.7374 22.0068 14.5567 22.0988 14.3759 22.0988C14.1048 22.1908 13.8336 22.2828 13.6529 22.3748L5.60938 26.9743" stroke="#2C007D" stroke-linecap="round"/>
<path d="M25.5826 26.6054L37.1508 24.6736C37.9642 24.4896 38.6872 24.6736 38.9583 25.8695C39.1391 26.6974 38.6872 27.7093 37.8738 28.0772L22.1483 35.3445C21.4253 35.7125 20.2504 35.8965 19.5274 35.8965H5.60938" stroke="#2C007D" stroke-linecap="round"/>
<path d="M1 24.7666V37.0014H5.42845V24.7666H1V24.7666Z" stroke="#2C007D"/>
</svg>
