<svg width="29" height="37" viewBox="0 0 29 37" fill="none" xmlns="http://www.w3.org/2000/svg">
<path fill-rule="evenodd" clip-rule="evenodd" d="M14.7621 0.259828L27.4862 6.94807L27.6167 7.01664L27.7218 7.11991C27.726 7.12402 27.7318 7.12949 27.7391 7.13628C27.8479 7.23837 28.2773 7.64112 28.2773 8.27402V17.5934C28.2773 25.2456 23.6052 32.1567 16.441 35.0794C16.4403 35.0797 16.4397 35.08 16.439 35.0802L14.5648 35.8524C14.2656 36.0389 13.9739 36.0366 13.8929 36.0359C13.8888 36.0359 13.8853 36.0358 13.8823 36.0358C13.8793 36.0358 13.8758 36.0359 13.8717 36.0359C13.7912 36.0365 13.5029 36.0389 13.2059 35.8562L11.588 35.2086L11.9596 34.2803L11.5683 35.2005C4.53412 32.2101 0 25.2993 0 17.7823V8.27402C0 7.64112 0.429433 7.23837 0.538277 7.13628C0.545521 7.12949 0.551346 7.12403 0.555529 7.11992L0.656041 7.02116L0.779929 6.95403L13.187 0.230783C13.5919 -0.014419 14.2295 -0.142768 14.7621 0.259828ZM12.3411 33.3558L13.8796 33.9716L15.6804 33.2297L15.6838 33.2283C22.1057 30.6093 26.2773 24.4234 26.2773 17.5934V8.57209L13.9497 2.09225L2 8.56766V17.7823C2 24.4929 6.04991 30.6767 12.3411 33.3558ZM14.0076 1.47344L14.245 1.59978L26.5504 8.14855L26.8155 8.28963V8.58994V17.6575C26.8155 24.7296 22.5217 31.0172 15.8655 33.7366L15.8565 33.7403L15.8565 33.7402L14.0619 34.4329L13.867 34.5081L13.6766 34.4224L12.144 33.7322C5.68426 31.0096 1.46094 24.7239 1.46094 17.7834V8.58994H1.96094L1.72217 8.15063L13.7713 1.60186L14.0076 1.47344ZM2.46094 8.88726V17.7834C2.46094 24.3162 6.43879 30.2449 12.5377 32.813L12.549 32.8177L12.549 32.8179L13.8967 33.4248L15.4918 32.8091C21.7794 30.2382 25.8155 24.311 25.8155 17.6575V8.89024L14.0125 2.60889L2.46094 8.88726Z" fill="#FF5900"/>
<path fill-rule="evenodd" clip-rule="evenodd" d="M12.0908 22.316L12.4754 22.0012L20.679 15.5154L20.1022 14.7598L12.219 20.9937L8.82219 17.0896L8.11719 17.7193L11.7704 21.9382L12.0908 22.316Z" fill="#2C007D" stroke="#2C007D"/>
</svg>
