<svg width="546" height="694" viewBox="0 0 546 694" fill="none" xmlns="http://www.w3.org/2000/svg">
<path d="M373.234 112.154H384.953M373.234 112.154V122.88M373.234 112.154C372.642 108.706 372.808 101.811 378.206 101.811C383.604 101.811 385.19 101.811 385.308 101.811M384.953 112.154C384.953 113.048 385.095 115.065 385.664 115.984C386.374 117.134 385.664 122.497 384.953 122.88M384.953 112.154C386.424 111.162 386.487 108.3 386.124 105.642M384.953 122.88C384.385 123.186 376.903 123.007 373.234 122.88M384.953 122.88C385.054 123.188 385.159 123.542 385.262 123.93M373.234 122.88C372.879 126.327 372.807 133.223 375.365 133.223C377.922 133.223 382.823 133.223 384.953 133.223M384.953 133.223H401.29M384.953 133.223C386.702 131.337 386.017 126.747 385.262 123.93M401.29 133.223C400.698 132.456 399.514 130.618 399.514 129.392C399.514 128.126 401.211 125.03 401.601 123.56M401.29 133.223H410.169C413.486 132.85 413.223 127.093 412.655 122.497M401.645 122.88L412.655 122.497M401.645 122.88C401.292 122.117 398.475 114.144 401.601 111.803M401.645 122.88C401.707 123.013 401.683 123.25 401.601 123.56M412.655 111.771H401.645C401.63 111.781 401.615 111.792 401.601 111.803M412.655 111.771V122.497M412.655 111.771L401.601 111.803M412.655 111.771C413.223 100.432 406.739 101.811 402.71 101.811M385.308 101.811C385.601 102.802 385.926 104.192 386.124 105.642M385.308 101.811H402.71M386.124 105.642C389.877 105.003 398.022 104.263 400.579 106.408M400.579 106.408C401.053 104.875 402.142 101.811 402.71 101.811M400.579 106.408C400.983 107.995 401.752 111.296 401.601 111.803M385.262 123.93C390.061 124.161 400.047 124.41 401.601 123.56" stroke="#A6AFCB"/>
<path fill-rule="evenodd" clip-rule="evenodd" d="M282.7 244.53H420C428.837 244.53 436 237.367 436 228.53V75C436 66.1634 428.837 59 420 59H282.7V60H420C428.284 60 435 66.7157 435 75V228.53C435 236.814 428.284 243.53 420 243.53H282.7V244.53Z" fill="#A6AFCB"/>
<rect x="0.5" y="0.5" width="282" height="577" rx="47.5" stroke="#A6AFCB"/>
<g clip-path="url(#clip0_1998_5569)">
<rect x="98.5" y="33.5" width="74" height="7" rx="3.5" stroke="#A6AFCB"/>
<rect x="177.5" y="33.5" width="7" height="7" rx="3.5" stroke="#A6AFCB"/>
<circle cx="141.5" cy="154.5" r="64" stroke="#A6AFCB"/>
<rect x="146.466" y="153.048" width="7.40226" height="10.7117" rx="0.55" transform="rotate(-45.6192 146.466 153.048)" stroke="#A6AFCB" stroke-width="0.5"/>
<path d="M160.457 165.271C160.402 166.8 162.891 167.386 166.275 168.544" stroke="#A6AFCB" stroke-width="0.5" stroke-linecap="round"/>
<path d="M156.459 163.456C156.095 165.638 160.822 166.729 161.186 163.82" stroke="#A6AFCB" stroke-width="0.5" stroke-linecap="round"/>
<path d="M160.816 163.093C157.18 164.548 156.453 163.093 156.453 163.093C156.453 163.093 154.271 160.912 154.635 159.821" stroke="#A6AFCB" stroke-width="0.5" stroke-linecap="round"/>
<path d="M162.638 158.728C162.638 158.728 155.001 154.728 154.274 154.365C153.547 154.001 153.183 155.456 153.547 156.547C153.91 157.637 156.819 159.637 158.274 159.637C159.729 159.637 161.91 164.91 161.91 164.91" stroke="#A6AFCB" stroke-width="0.5" stroke-linecap="round"/>
<path d="M158.999 154.366C162.999 154.002 164.09 155.457 169.544 164.911" stroke="#A6AFCB" stroke-width="0.5" stroke-linecap="round"/>
<path d="M158.993 154.366H158.266" stroke="#A6AFCB" stroke-width="0.5" stroke-linecap="round"/>
<path d="M155.361 159.092C156.816 160.547 156.452 162.001 160.088 161.638" stroke="#A6AFCB" stroke-width="0.5" stroke-linecap="round"/>
<path fill-rule="evenodd" clip-rule="evenodd" d="M154.446 164.902C155.157 164.413 155.819 163.894 156.428 163.347L156.765 163.716C152.511 167.536 145.811 170 138.273 170C125.42 170 115 162.837 115 154C115 145.163 125.42 138 138.273 138C151.126 138 161.545 145.163 161.545 154C161.545 154.065 161.545 154.13 161.544 154.196L161.045 154.103C161.045 154.068 161.045 154.034 161.045 154C161.045 149.794 158.566 145.931 154.446 143.098C150.328 140.267 144.611 138.5 138.273 138.5C131.934 138.5 126.218 140.267 122.1 143.098C117.979 145.931 115.5 149.794 115.5 154C115.5 158.206 117.979 162.069 122.1 164.902C126.218 167.733 131.934 169.5 138.273 169.5C144.611 169.5 150.328 167.733 154.446 164.902Z" fill="#A6AFCB"/>
<path d="M138.49 164.349C138.108 164.249 137.715 163.841 137.632 163.451C137.578 163.197 137.642 163.022 138.049 162.316C139.697 159.469 140.413 156.849 140.413 153.672C140.413 150.601 139.78 148.209 138.206 145.343C137.867 144.73 137.593 144.156 137.593 144.073C137.593 143.766 137.877 143.324 138.186 143.153C138.608 142.916 139.319 142.96 139.662 143.245C139.795 143.354 140.133 143.854 140.418 144.353C141.546 146.329 142.316 148.498 142.698 150.754C142.933 152.152 142.983 154.798 142.791 156.078C142.443 158.435 141.747 160.542 140.628 162.601C139.952 163.846 139.53 164.358 139.177 164.358C139.108 164.358 138.99 164.376 138.922 164.393C138.853 164.411 138.657 164.393 138.49 164.349ZM133.905 162.207C133.316 162.054 132.889 161.405 133.061 160.923C133.1 160.805 133.38 160.266 133.679 159.723C134.939 157.423 135.464 154.96 135.209 152.542C134.998 150.553 134.601 149.3 133.596 147.468C132.924 146.237 132.889 146.049 133.282 145.549C133.655 145.076 134.586 145.002 135.072 145.4C135.41 145.676 136.465 147.644 136.872 148.756C138.216 152.437 138.01 156.393 136.288 160.008C135.4 161.861 134.778 162.435 133.905 162.207ZM129.177 160.034C128.814 159.889 128.5 159.543 128.412 159.197C128.358 158.987 128.451 158.75 128.883 157.97C130.472 155.096 130.486 152.332 128.937 149.523C128.255 148.292 128.24 148.047 128.814 147.56C129.098 147.319 129.221 147.28 129.618 147.28C130.29 147.28 130.638 147.582 131.237 148.682C132.159 150.373 132.536 151.841 132.531 153.72C132.527 155.653 132.173 156.98 131.193 158.763C130.629 159.784 130.349 160.056 129.785 160.121C129.613 160.135 129.339 160.1 129.177 160.034ZM124.763 158.01C124.474 157.905 124.145 157.554 124.047 157.247C123.939 156.906 124.027 156.634 124.459 155.999C125.018 155.179 125.146 154.741 125.146 153.672C125.146 152.603 125.018 152.161 124.459 151.346C124.268 151.07 124.081 150.737 124.037 150.605C123.856 150.066 124.361 149.405 125.038 149.291C125.612 149.195 126.004 149.422 126.534 150.158C128.059 152.288 128.059 155.127 126.534 157.239C125.994 157.979 125.396 158.242 124.763 158.01Z" fill="#A6AFCB"/>
<path d="M85.152 251V239.576H86.24V244.536H93.024V239.576H94.112V251H93.024V245.464H86.24V251H85.152ZM99.7136 242.504C100.93 242.504 101.895 242.936 102.61 243.8C103.282 244.611 103.618 245.635 103.618 246.872C103.618 248.109 103.282 249.133 102.61 249.944C101.895 250.808 100.93 251.24 99.7136 251.24C98.4976 251.24 97.5323 250.808 96.8176 249.944C96.1456 249.133 95.8096 248.109 95.8096 246.872C95.8096 245.635 96.1456 244.611 96.8176 243.8C97.5323 242.936 98.4976 242.504 99.7136 242.504ZM99.7136 243.352C98.7963 243.352 98.071 243.72 97.5376 244.456C97.0576 245.117 96.8176 245.923 96.8176 246.872C96.8176 247.821 97.0576 248.627 97.5376 249.288C98.071 250.024 98.7963 250.392 99.7136 250.392C100.631 250.392 101.356 250.024 101.89 249.288C102.37 248.627 102.61 247.821 102.61 246.872C102.61 245.923 102.37 245.117 101.89 244.456C101.356 243.72 100.631 243.352 99.7136 243.352ZM105.132 251V239.576H106.14V251H105.132ZM108.725 246.872C108.725 247.832 108.939 248.632 109.365 249.272C109.845 250.019 110.533 250.392 111.429 250.392C112.421 250.392 113.173 250.019 113.685 249.272C114.112 248.643 114.325 247.843 114.325 246.872C114.325 245.901 114.112 245.101 113.685 244.472C113.173 243.725 112.421 243.352 111.429 243.352C110.533 243.352 109.845 243.725 109.365 244.472C108.939 245.112 108.725 245.912 108.725 246.872ZM115.333 239.576V251H114.405V249.432H114.373C114.16 249.955 113.771 250.387 113.205 250.728C112.64 251.069 112.048 251.24 111.429 251.24C110.235 251.24 109.301 250.803 108.629 249.928C108.021 249.139 107.717 248.12 107.717 246.872C107.717 245.624 108.021 244.605 108.629 243.816C109.301 242.941 110.235 242.504 111.429 242.504C112.069 242.504 112.651 242.664 113.173 242.984C113.707 243.293 114.08 243.736 114.293 244.312H114.325V239.576H115.333ZM121.694 251V239.576H122.702V244.168H122.734C122.915 243.677 123.251 243.277 123.742 242.968C124.243 242.659 124.787 242.504 125.374 242.504C126.483 242.504 127.278 242.787 127.758 243.352C128.185 243.864 128.398 244.643 128.398 245.688V251H127.39V245.848C127.39 244.184 126.691 243.352 125.294 243.352C124.505 243.352 123.875 243.619 123.406 244.152C122.937 244.685 122.702 245.363 122.702 246.184V251H121.694ZM137.248 247.144H130.896C130.906 247.997 131.12 248.723 131.536 249.32C132.037 250.035 132.73 250.392 133.616 250.392C134.981 250.392 135.845 249.688 136.208 248.28H137.216C136.757 250.253 135.557 251.24 133.616 251.24C132.378 251.24 131.429 250.808 130.768 249.944C130.181 249.165 129.888 248.141 129.888 246.872C129.888 245.667 130.181 244.664 130.768 243.864C131.44 242.957 132.389 242.504 133.616 242.504C134.864 242.504 135.813 242.989 136.464 243.96C137.029 244.803 137.29 245.864 137.248 247.144ZM130.896 246.296H136.24C136.218 245.485 135.978 244.803 135.52 244.248C135.029 243.651 134.394 243.352 133.616 243.352C132.837 243.352 132.197 243.656 131.696 244.264C131.248 244.797 130.981 245.475 130.896 246.296ZM138.601 251V242.744H139.529V244.68H139.561C139.817 244.008 140.217 243.491 140.761 243.128C141.305 242.765 141.945 242.6 142.681 242.632V243.64C141.785 243.597 141.049 243.864 140.473 244.44C139.897 245.005 139.609 245.725 139.609 246.6V251H138.601ZM150.592 247.144H144.24C144.25 247.997 144.464 248.723 144.88 249.32C145.381 250.035 146.074 250.392 146.96 250.392C148.325 250.392 149.189 249.688 149.552 248.28H150.56C150.101 250.253 148.901 251.24 146.96 251.24C145.722 251.24 144.773 250.808 144.112 249.944C143.525 249.165 143.232 248.141 143.232 246.872C143.232 245.667 143.525 244.664 144.112 243.864C144.784 242.957 145.733 242.504 146.96 242.504C148.208 242.504 149.157 242.989 149.808 243.96C150.373 244.803 150.634 245.864 150.592 247.144ZM144.24 246.296H149.584C149.562 245.485 149.322 244.803 148.864 244.248C148.373 243.651 147.738 243.352 146.96 243.352C146.181 243.352 145.541 243.656 145.039 244.264C144.592 244.797 144.325 245.475 144.24 246.296ZM157.998 240.264V242.744H159.678V243.592H157.998V249.16C157.998 249.523 158.04 249.773 158.126 249.912C158.243 250.115 158.472 250.227 158.814 250.248C159.016 250.259 159.304 250.243 159.678 250.2V251.064C159.582 251.064 159.432 251.069 159.23 251.08C159.038 251.091 158.888 251.096 158.782 251.096C158.11 251.096 157.64 250.963 157.374 250.696C157.118 250.429 156.99 249.944 156.99 249.24V243.592H155.55V242.744H156.99V240.264H157.998ZM164.62 242.504C165.836 242.504 166.801 242.936 167.516 243.8C168.188 244.611 168.524 245.635 168.524 246.872C168.524 248.109 168.188 249.133 167.516 249.944C166.801 250.808 165.836 251.24 164.62 251.24C163.404 251.24 162.439 250.808 161.724 249.944C161.052 249.133 160.716 248.109 160.716 246.872C160.716 245.635 161.052 244.611 161.724 243.8C162.439 242.936 163.404 242.504 164.62 242.504ZM164.62 243.352C163.703 243.352 162.977 243.72 162.444 244.456C161.964 245.117 161.724 245.923 161.724 246.872C161.724 247.821 161.964 248.627 162.444 249.288C162.977 250.024 163.703 250.392 164.62 250.392C165.537 250.392 166.263 250.024 166.796 249.288C167.276 248.627 167.516 247.821 167.516 246.872C167.516 245.923 167.276 245.117 166.796 244.456C166.263 243.72 165.537 243.352 164.62 243.352ZM181.084 246.872C181.084 245.912 180.876 245.112 180.46 244.472C179.969 243.725 179.276 243.352 178.38 243.352C176.449 243.352 175.484 244.525 175.484 246.872C175.484 247.843 175.697 248.643 176.124 249.272C176.636 250.019 177.388 250.392 178.38 250.392C179.276 250.392 179.969 250.019 180.46 249.272C180.876 248.632 181.084 247.832 181.084 246.872ZM174.476 254.056V242.744H175.404V244.312H175.436C175.67 243.757 176.049 243.32 176.572 243C177.105 242.669 177.708 242.504 178.38 242.504C179.574 242.504 180.508 242.941 181.18 243.816C181.788 244.605 182.092 245.624 182.092 246.872C182.092 248.12 181.788 249.139 181.18 249.928C180.508 250.803 179.574 251.24 178.38 251.24C177.74 251.24 177.164 251.085 176.652 250.776C176.108 250.456 175.729 250.008 175.516 249.432H175.484V254.056H174.476ZM188.943 247.8V246.488H188.911C188.826 246.648 188.543 246.771 188.063 246.856C187.476 246.941 186.89 247.032 186.303 247.128C185.642 247.245 185.151 247.405 184.831 247.608C184.426 247.885 184.223 248.269 184.223 248.76C184.223 249.24 184.404 249.635 184.767 249.944C185.14 250.243 185.572 250.392 186.063 250.392C186.863 250.392 187.54 250.157 188.095 249.688C188.66 249.208 188.943 248.579 188.943 247.8ZM184.575 245.272H183.567C183.61 244.344 183.946 243.64 184.575 243.16C185.14 242.723 185.919 242.504 186.911 242.504C188.938 242.504 189.951 243.389 189.951 245.16V249.544C189.951 249.949 190.148 250.152 190.543 250.152C190.65 250.152 190.756 250.131 190.863 250.088V250.936C190.66 250.979 190.442 251 190.207 251C189.727 251 189.402 250.867 189.231 250.6C189.092 250.387 189.023 250.04 189.023 249.56H188.991C188.607 250.147 188.218 250.563 187.823 250.808C187.343 251.096 186.73 251.24 185.983 251.24C185.172 251.24 184.522 251.043 184.031 250.648C183.487 250.221 183.215 249.613 183.215 248.824C183.215 247.8 183.679 247.101 184.607 246.728C185.066 246.536 186.079 246.349 187.647 246.168C188.127 246.115 188.447 246.029 188.607 245.912C188.831 245.752 188.943 245.464 188.943 245.048C188.943 243.917 188.223 243.352 186.783 243.352C185.343 243.352 184.607 243.992 184.575 245.272ZM194.328 250.968L191.032 242.744H192.104L194.824 249.784L197.368 242.744H198.376L194.792 252.264C194.525 252.989 194.253 253.464 193.976 253.688C193.688 253.944 193.235 254.067 192.616 254.056C192.232 254.056 191.976 254.029 191.848 253.976V253.128C192.115 253.181 192.344 253.208 192.536 253.208C192.941 253.208 193.256 253.091 193.48 252.856C193.64 252.685 193.805 252.371 193.976 251.912L194.328 250.968Z" fill="#A6AFCB"/>
<path d="M117.42 452.504V451.576H126.476V452.504H122.492V463H121.404V452.504H117.42ZM130.839 454.504C132.055 454.504 133.02 454.936 133.735 455.8C134.407 456.611 134.743 457.635 134.743 458.872C134.743 460.109 134.407 461.133 133.735 461.944C133.02 462.808 132.055 463.24 130.839 463.24C129.623 463.24 128.657 462.808 127.943 461.944C127.271 461.133 126.935 460.109 126.935 458.872C126.935 457.635 127.271 456.611 127.943 455.8C128.657 454.936 129.623 454.504 130.839 454.504ZM130.839 455.352C129.921 455.352 129.196 455.72 128.663 456.456C128.183 457.117 127.943 457.923 127.943 458.872C127.943 459.821 128.183 460.627 128.663 461.288C129.196 462.024 129.921 462.392 130.839 462.392C131.756 462.392 132.481 462.024 133.015 461.288C133.495 460.627 133.735 459.821 133.735 458.872C133.735 457.923 133.495 457.117 133.015 456.456C132.481 455.72 131.756 455.352 130.839 455.352ZM147.302 458.872C147.302 457.912 147.094 457.112 146.678 456.472C146.188 455.725 145.494 455.352 144.598 455.352C142.668 455.352 141.702 456.525 141.702 458.872C141.702 459.843 141.916 460.643 142.342 461.272C142.854 462.019 143.606 462.392 144.598 462.392C145.494 462.392 146.188 462.019 146.678 461.272C147.094 460.632 147.302 459.832 147.302 458.872ZM140.694 466.056V454.744H141.622V456.312H141.654C141.889 455.757 142.268 455.32 142.79 455C143.324 454.669 143.926 454.504 144.598 454.504C145.793 454.504 146.726 454.941 147.398 455.816C148.006 456.605 148.31 457.624 148.31 458.872C148.31 460.12 148.006 461.139 147.398 461.928C146.726 462.803 145.793 463.24 144.598 463.24C143.958 463.24 143.382 463.085 142.87 462.776C142.326 462.456 141.948 462.008 141.734 461.432H141.702V466.056H140.694ZM155.162 459.8V458.488H155.13C155.045 458.648 154.762 458.771 154.282 458.856C153.695 458.941 153.109 459.032 152.522 459.128C151.861 459.245 151.37 459.405 151.05 459.608C150.645 459.885 150.442 460.269 150.442 460.76C150.442 461.24 150.623 461.635 150.986 461.944C151.359 462.243 151.791 462.392 152.282 462.392C153.082 462.392 153.759 462.157 154.314 461.688C154.879 461.208 155.162 460.579 155.162 459.8ZM150.794 457.272H149.786C149.829 456.344 150.165 455.64 150.794 455.16C151.359 454.723 152.138 454.504 153.13 454.504C155.157 454.504 156.17 455.389 156.17 457.16V461.544C156.17 461.949 156.367 462.152 156.762 462.152C156.869 462.152 156.975 462.131 157.082 462.088V462.936C156.879 462.979 156.661 463 156.426 463C155.946 463 155.621 462.867 155.45 462.6C155.311 462.387 155.242 462.04 155.242 461.56H155.21C154.826 462.147 154.437 462.563 154.042 462.808C153.562 463.096 152.949 463.24 152.202 463.24C151.391 463.24 150.741 463.043 150.25 462.648C149.706 462.221 149.434 461.613 149.434 460.824C149.434 459.8 149.898 459.101 150.826 458.728C151.285 458.536 152.298 458.349 153.866 458.168C154.346 458.115 154.666 458.029 154.826 457.912C155.05 457.752 155.162 457.464 155.162 457.048C155.162 455.917 154.442 455.352 153.002 455.352C151.562 455.352 150.826 455.992 150.794 457.272ZM160.547 462.968L157.251 454.744H158.323L161.043 461.784L163.587 454.744H164.595L161.011 464.264C160.744 464.989 160.472 465.464 160.195 465.688C159.907 465.944 159.453 466.067 158.835 466.056C158.451 466.056 158.195 466.029 158.067 465.976V465.128C158.333 465.181 158.563 465.208 158.755 465.208C159.16 465.208 159.475 465.091 159.699 464.856C159.859 464.685 160.024 464.371 160.195 463.912L160.547 462.968Z" fill="#A6AFCB"/>
<path d="M90.704 505V487.864H93.872L101.696 500.488H101.744V487.864H104.6V505H101.432L93.632 492.4H93.56V505H90.704ZM107.592 493.144V490.984C108.84 491 109.896 490.792 110.76 490.36C111.72 489.864 112.296 489.144 112.488 488.2H114.72V505H111.72V493.144H107.592ZM120.808 497.392L122.608 488.2H131.296V490.648H124.648L123.784 494.92L123.832 494.968C124.6 494.12 125.632 493.696 126.928 493.696C128.56 493.696 129.856 494.232 130.816 495.304C131.728 496.328 132.184 497.664 132.184 499.312C132.184 500.864 131.736 502.2 130.84 503.32C129.768 504.664 128.28 505.336 126.376 505.336C124.696 505.336 123.328 504.904 122.272 504.04C121.152 503.128 120.56 501.856 120.496 500.224H123.232C123.312 501.12 123.624 501.816 124.168 502.312C124.712 502.808 125.432 503.056 126.328 503.056C128.408 503.056 129.448 501.824 129.448 499.36C129.448 498.368 129.192 497.552 128.68 496.912C128.104 496.208 127.296 495.856 126.256 495.856C124.832 495.856 123.928 496.368 123.544 497.392H120.808ZM139.664 503.056C141.712 503.056 142.736 500.904 142.736 496.6C142.736 492.296 141.712 490.144 139.664 490.144C137.616 490.144 136.592 492.296 136.592 496.6C136.592 500.904 137.616 503.056 139.664 503.056ZM139.664 487.864C141.84 487.864 143.408 488.84 144.368 490.792C145.104 492.264 145.472 494.2 145.472 496.6C145.472 499 145.104 500.936 144.368 502.408C143.408 504.36 141.84 505.336 139.664 505.336C137.488 505.336 135.92 504.36 134.96 502.408C134.224 500.936 133.856 499 133.856 496.6C133.856 494.2 134.224 492.264 134.96 490.792C135.92 488.84 137.488 487.864 139.664 487.864ZM147.984 505V501.76H151.32V505C151.32 505.976 151.016 506.8 150.408 507.472C149.816 508.16 149.04 508.6 148.08 508.792V507.328C148.592 507.2 148.984 506.912 149.256 506.464C149.528 506.032 149.656 505.544 149.64 505H147.984ZM159.68 503.056C161.728 503.056 162.752 500.904 162.752 496.6C162.752 492.296 161.728 490.144 159.68 490.144C157.632 490.144 156.608 492.296 156.608 496.6C156.608 500.904 157.632 503.056 159.68 503.056ZM159.68 487.864C161.856 487.864 163.424 488.84 164.384 490.792C165.12 492.264 165.488 494.2 165.488 496.6C165.488 499 165.12 500.936 164.384 502.408C163.424 504.36 161.856 505.336 159.68 505.336C157.504 505.336 155.936 504.36 154.976 502.408C154.24 500.936 153.872 499 153.872 496.6C153.872 494.2 154.24 492.264 154.976 490.792C155.936 488.84 157.504 487.864 159.68 487.864ZM173.016 503.056C175.064 503.056 176.088 500.904 176.088 496.6C176.088 492.296 175.064 490.144 173.016 490.144C170.968 490.144 169.944 492.296 169.944 496.6C169.944 500.904 170.968 503.056 173.016 503.056ZM173.016 487.864C175.192 487.864 176.76 488.84 177.72 490.792C178.456 492.264 178.824 494.2 178.824 496.6C178.824 499 178.456 500.936 177.72 502.408C176.76 504.36 175.192 505.336 173.016 505.336C170.84 505.336 169.272 504.36 168.312 502.408C167.576 500.936 167.208 499 167.208 496.6C167.208 494.2 167.576 492.264 168.312 490.792C169.272 488.84 170.84 487.864 173.016 487.864ZM186.352 503.056C188.4 503.056 189.424 500.904 189.424 496.6C189.424 492.296 188.4 490.144 186.352 490.144C184.304 490.144 183.28 492.296 183.28 496.6C183.28 500.904 184.304 503.056 186.352 503.056ZM186.352 487.864C188.528 487.864 190.096 488.84 191.056 490.792C191.792 492.264 192.16 494.2 192.16 496.6C192.16 499 191.792 500.936 191.056 502.408C190.096 504.36 188.528 505.336 186.352 505.336C184.176 505.336 182.608 504.36 181.648 502.408C180.912 500.936 180.544 499 180.544 496.6C180.544 494.2 180.912 492.264 181.648 490.792C182.608 488.84 184.176 487.864 186.352 487.864Z" fill="#343A4A"/>
</g>
<rect x="12.5" y="12.5" width="258" height="553" rx="35.5" stroke="#A6AFCB"/>
<path d="M299.965 211.168V219H298.656V212.961L296.478 219H295.356L293.123 212.961V219H291.825V211.168H293.75L295.939 217.295L298.051 211.168H299.965ZM301.38 215.073C301.512 213.797 302.337 213.148 303.866 213.148C304.57 213.148 305.142 213.291 305.56 213.566C305.978 213.852 306.198 214.281 306.198 214.864V217.746C306.198 217.911 306.209 218.021 306.253 218.076C306.297 218.142 306.374 218.164 306.495 218.164C306.583 218.164 306.671 218.164 306.781 218.142V219.022C306.451 219.11 306.187 219.143 305.967 219.143C305.428 219.143 305.12 218.923 305.043 218.461C304.559 218.923 303.899 219.143 303.052 219.143C302.458 219.143 301.996 219 301.655 218.692C301.303 218.384 301.138 217.977 301.138 217.449C301.138 217.295 301.149 217.141 301.193 216.998C301.226 216.866 301.27 216.745 301.314 216.635C301.358 216.536 301.435 216.437 301.545 216.349C301.655 216.261 301.743 216.195 301.809 216.129C301.875 216.074 301.996 216.019 302.15 215.964C302.304 215.92 302.425 215.876 302.502 215.854C302.579 215.832 302.711 215.799 302.909 215.766C303.096 215.744 303.217 215.722 303.283 215.711C303.349 215.7 303.481 215.678 303.679 215.656C304.119 215.601 304.427 215.557 304.592 215.513C304.746 215.469 304.856 215.414 304.922 215.326C304.966 215.271 304.999 215.139 304.999 214.919C304.999 214.347 304.603 214.061 303.833 214.061C303.415 214.061 303.118 214.138 302.931 214.292C302.733 214.446 302.612 214.71 302.568 215.073H301.38ZM304.988 216.151C304.889 216.206 304.779 216.25 304.658 216.294C304.526 216.338 304.427 216.36 304.35 216.371C304.273 216.382 304.152 216.393 303.987 216.415C303.822 216.437 303.712 216.459 303.668 216.459C303.514 216.481 303.393 216.503 303.305 216.525C303.217 216.547 303.107 216.569 302.975 216.613C302.843 216.657 302.744 216.712 302.678 216.778C302.612 216.844 302.546 216.921 302.502 217.031C302.447 217.141 302.425 217.262 302.425 217.405C302.425 217.68 302.513 217.889 302.689 218.032C302.865 218.186 303.118 218.252 303.448 218.252C303.998 218.252 304.427 218.109 304.735 217.801C304.9 217.636 304.988 217.306 304.988 216.822V216.151ZM312.553 213.324L310.452 218.89C310.43 218.945 310.386 219.055 310.331 219.22C310.265 219.385 310.232 219.495 310.21 219.55C310.188 219.616 310.144 219.715 310.078 219.858C310.012 220.012 309.968 220.111 309.935 220.166L309.77 220.43C309.693 220.551 309.627 220.639 309.561 220.683C309.495 220.738 309.418 220.804 309.33 220.881C309.242 220.958 309.143 221.013 309.055 221.046C308.956 221.079 308.846 221.112 308.725 221.134C308.604 221.156 308.472 221.167 308.34 221.167C308.098 221.167 307.812 221.145 307.471 221.101V220.045C307.735 220.1 307.955 220.122 308.131 220.122C308.219 220.122 308.296 220.111 308.373 220.089C308.439 220.067 308.505 220.023 308.571 219.957C308.626 219.891 308.681 219.836 308.725 219.781C308.769 219.726 308.802 219.649 308.846 219.55C308.89 219.451 308.923 219.374 308.945 219.319C308.967 219.264 308.989 219.176 309.033 219.055C309.066 218.945 309.088 218.868 309.099 218.835L306.921 213.324H308.296L309.814 217.504L311.244 213.324H312.553ZM315.881 213.159C316.739 213.159 317.432 213.434 317.949 213.973C318.455 214.523 318.719 215.249 318.719 216.162C318.719 217.086 318.455 217.823 317.949 218.362C317.443 218.912 316.75 219.176 315.881 219.176C314.99 219.176 314.286 218.912 313.769 218.362C313.241 217.823 312.988 217.086 312.988 216.162C312.988 215.249 313.241 214.523 313.769 213.973C314.297 213.434 315.001 213.159 315.881 213.159ZM315.859 214.149C315.353 214.149 314.968 214.336 314.682 214.688C314.396 215.051 314.253 215.546 314.253 216.162C314.253 216.8 314.396 217.306 314.682 217.658C314.968 218.021 315.364 218.197 315.87 218.197C316.354 218.197 316.739 218.021 317.025 217.658C317.311 217.295 317.454 216.789 317.454 216.151C317.454 215.535 317.311 215.04 317.025 214.688C316.739 214.336 316.354 214.149 315.859 214.149ZM319.244 213.324H320.575L321.697 217.581L322.764 213.324H324.029L325.074 217.581L326.251 213.324H327.527L325.734 219H324.447L323.38 214.787L322.324 219H321.004L319.244 213.324ZM328.279 215.073C328.411 213.797 329.236 213.148 330.765 213.148C331.469 213.148 332.041 213.291 332.459 213.566C332.877 213.852 333.097 214.281 333.097 214.864V217.746C333.097 217.911 333.108 218.021 333.152 218.076C333.196 218.142 333.273 218.164 333.394 218.164C333.482 218.164 333.57 218.164 333.68 218.142V219.022C333.35 219.11 333.086 219.143 332.866 219.143C332.327 219.143 332.019 218.923 331.942 218.461C331.458 218.923 330.798 219.143 329.951 219.143C329.357 219.143 328.895 219 328.554 218.692C328.202 218.384 328.037 217.977 328.037 217.449C328.037 217.295 328.048 217.141 328.092 216.998C328.125 216.866 328.169 216.745 328.213 216.635C328.257 216.536 328.334 216.437 328.444 216.349C328.554 216.261 328.642 216.195 328.708 216.129C328.774 216.074 328.895 216.019 329.049 215.964C329.203 215.92 329.324 215.876 329.401 215.854C329.478 215.832 329.61 215.799 329.808 215.766C329.995 215.744 330.116 215.722 330.182 215.711C330.248 215.7 330.38 215.678 330.578 215.656C331.018 215.601 331.326 215.557 331.491 215.513C331.645 215.469 331.755 215.414 331.821 215.326C331.865 215.271 331.898 215.139 331.898 214.919C331.898 214.347 331.502 214.061 330.732 214.061C330.314 214.061 330.017 214.138 329.83 214.292C329.632 214.446 329.511 214.71 329.467 215.073H328.279ZM331.887 216.151C331.788 216.206 331.678 216.25 331.557 216.294C331.425 216.338 331.326 216.36 331.249 216.371C331.172 216.382 331.051 216.393 330.886 216.415C330.721 216.437 330.611 216.459 330.567 216.459C330.413 216.481 330.292 216.503 330.204 216.525C330.116 216.547 330.006 216.569 329.874 216.613C329.742 216.657 329.643 216.712 329.577 216.778C329.511 216.844 329.445 216.921 329.401 217.031C329.346 217.141 329.324 217.262 329.324 217.405C329.324 217.68 329.412 217.889 329.588 218.032C329.764 218.186 330.017 218.252 330.347 218.252C330.897 218.252 331.326 218.109 331.634 217.801C331.799 217.636 331.887 217.306 331.887 216.822V216.151ZM344.383 216.019C344.306 216.987 343.965 217.757 343.349 218.329C342.733 218.901 341.941 219.187 340.973 219.187C339.862 219.187 338.971 218.813 338.311 218.065C337.64 217.317 337.31 216.327 337.31 215.084C337.31 214.336 337.453 213.665 337.739 213.049C338.025 212.433 338.454 211.938 339.026 211.564C339.598 211.19 340.269 210.992 341.039 210.992C341.864 210.992 342.59 211.223 343.206 211.685C343.822 212.147 344.185 212.807 344.317 213.665H342.953C342.854 213.203 342.634 212.829 342.293 212.565C341.941 212.301 341.523 212.158 341.017 212.158C340.489 212.158 340.049 212.312 339.686 212.598C339.323 212.895 339.07 213.258 338.916 213.687C338.762 214.116 338.696 214.578 338.696 215.084C338.696 215.469 338.74 215.832 338.828 216.162C338.916 216.503 339.048 216.811 339.224 217.097C339.4 217.383 339.631 217.603 339.939 217.768C340.247 217.944 340.599 218.021 341.006 218.021C342.172 218.021 342.832 217.361 343.008 216.019H344.383ZM346.7 211.168V214.105C347.118 213.489 347.712 213.181 348.493 213.181C349.109 213.181 349.582 213.357 349.934 213.687C350.275 214.017 350.451 214.512 350.451 215.15V219H349.186V215.557C349.186 215.128 349.109 214.798 348.955 214.567C348.801 214.347 348.515 214.226 348.086 214.226C347.602 214.226 347.25 214.391 347.03 214.699C346.81 215.018 346.7 215.436 346.7 215.953V219H345.457V211.168H346.7ZM353.05 211.135V212.367H351.796V211.135H353.05ZM353.05 213.324V219H351.796V213.324H353.05ZM357.045 213.159C357.903 213.159 358.596 213.434 359.113 213.973C359.619 214.523 359.883 215.249 359.883 216.162C359.883 217.086 359.619 217.823 359.113 218.362C358.607 218.912 357.914 219.176 357.045 219.176C356.154 219.176 355.45 218.912 354.933 218.362C354.405 217.823 354.152 217.086 354.152 216.162C354.152 215.249 354.405 214.523 354.933 213.973C355.461 213.434 356.165 213.159 357.045 213.159ZM357.023 214.149C356.517 214.149 356.132 214.336 355.846 214.688C355.56 215.051 355.417 215.546 355.417 216.162C355.417 216.8 355.56 217.306 355.846 217.658C356.132 218.021 356.528 218.197 357.034 218.197C357.518 218.197 357.903 218.021 358.189 217.658C358.475 217.295 358.618 216.789 358.618 216.151C358.618 215.535 358.475 215.04 358.189 214.688C357.903 214.336 357.518 214.149 357.023 214.149ZM362.135 213.324V214.127C362.597 213.489 363.191 213.17 363.917 213.17C364.291 213.17 364.61 213.258 364.885 213.423C365.16 213.599 365.369 213.83 365.501 214.138C365.952 213.5 366.568 213.17 367.338 213.17C367.866 213.17 368.317 213.335 368.669 213.654C369.021 213.973 369.197 214.413 369.197 214.974V219H367.943V215.513C367.943 215.117 367.866 214.798 367.734 214.567C367.591 214.347 367.327 214.226 366.931 214.226C366.524 214.226 366.216 214.358 366.007 214.611C365.787 214.864 365.688 215.216 365.688 215.667V219H364.434V215.447C364.434 215.051 364.368 214.743 364.247 214.534C364.126 214.336 363.873 214.226 363.499 214.226C363.07 214.226 362.751 214.369 362.531 214.644C362.311 214.919 362.201 215.282 362.201 215.733V219H360.947V213.324H362.135ZM370.453 215.073C370.585 213.797 371.41 213.148 372.939 213.148C373.643 213.148 374.215 213.291 374.633 213.566C375.051 213.852 375.271 214.281 375.271 214.864V217.746C375.271 217.911 375.282 218.021 375.326 218.076C375.37 218.142 375.447 218.164 375.568 218.164C375.656 218.164 375.744 218.164 375.854 218.142V219.022C375.524 219.11 375.26 219.143 375.04 219.143C374.501 219.143 374.193 218.923 374.116 218.461C373.632 218.923 372.972 219.143 372.125 219.143C371.531 219.143 371.069 219 370.728 218.692C370.376 218.384 370.211 217.977 370.211 217.449C370.211 217.295 370.222 217.141 370.266 216.998C370.299 216.866 370.343 216.745 370.387 216.635C370.431 216.536 370.508 216.437 370.618 216.349C370.728 216.261 370.816 216.195 370.882 216.129C370.948 216.074 371.069 216.019 371.223 215.964C371.377 215.92 371.498 215.876 371.575 215.854C371.652 215.832 371.784 215.799 371.982 215.766C372.169 215.744 372.29 215.722 372.356 215.711C372.422 215.7 372.554 215.678 372.752 215.656C373.192 215.601 373.5 215.557 373.665 215.513C373.819 215.469 373.929 215.414 373.995 215.326C374.039 215.271 374.072 215.139 374.072 214.919C374.072 214.347 373.676 214.061 372.906 214.061C372.488 214.061 372.191 214.138 372.004 214.292C371.806 214.446 371.685 214.71 371.641 215.073H370.453ZM374.061 216.151C373.962 216.206 373.852 216.25 373.731 216.294C373.599 216.338 373.5 216.36 373.423 216.371C373.346 216.382 373.225 216.393 373.06 216.415C372.895 216.437 372.785 216.459 372.741 216.459C372.587 216.481 372.466 216.503 372.378 216.525C372.29 216.547 372.18 216.569 372.048 216.613C371.916 216.657 371.817 216.712 371.751 216.778C371.685 216.844 371.619 216.921 371.575 217.031C371.52 217.141 371.498 217.262 371.498 217.405C371.498 217.68 371.586 217.889 371.762 218.032C371.938 218.186 372.191 218.252 372.521 218.252C373.071 218.252 373.5 218.109 373.808 217.801C373.973 217.636 374.061 217.306 374.061 216.822V216.151ZM383.421 211.157L386.446 219H384.972L384.224 216.921H381.122L380.352 219H378.933L381.958 211.157H383.421ZM383.861 215.887L382.695 212.587L381.474 215.887H383.861ZM392.397 211.168V219H391.22V218.219C390.857 218.846 390.252 219.154 389.405 219.154C388.602 219.154 387.964 218.89 387.491 218.34C387.018 217.801 386.787 217.075 386.787 216.151C386.787 215.249 387.018 214.523 387.48 213.984C387.942 213.445 388.569 213.17 389.361 213.17C390.153 213.17 390.758 213.467 391.165 214.061V211.168H392.397ZM389.592 214.182C389.108 214.182 388.734 214.358 388.459 214.71C388.184 215.062 388.052 215.535 388.052 216.129C388.052 216.756 388.184 217.251 388.47 217.603C388.756 217.966 389.141 218.142 389.636 218.142C390.12 218.142 390.505 217.966 390.78 217.614C391.055 217.262 391.198 216.778 391.198 216.151C391.198 215.535 391.055 215.051 390.769 214.699C390.483 214.358 390.098 214.182 389.592 214.182ZM393.688 215.073C393.82 213.797 394.645 213.148 396.174 213.148C396.878 213.148 397.45 213.291 397.868 213.566C398.286 213.852 398.506 214.281 398.506 214.864V217.746C398.506 217.911 398.517 218.021 398.561 218.076C398.605 218.142 398.682 218.164 398.803 218.164C398.891 218.164 398.979 218.164 399.089 218.142V219.022C398.759 219.11 398.495 219.143 398.275 219.143C397.736 219.143 397.428 218.923 397.351 218.461C396.867 218.923 396.207 219.143 395.36 219.143C394.766 219.143 394.304 219 393.963 218.692C393.611 218.384 393.446 217.977 393.446 217.449C393.446 217.295 393.457 217.141 393.501 216.998C393.534 216.866 393.578 216.745 393.622 216.635C393.666 216.536 393.743 216.437 393.853 216.349C393.963 216.261 394.051 216.195 394.117 216.129C394.183 216.074 394.304 216.019 394.458 215.964C394.612 215.92 394.733 215.876 394.81 215.854C394.887 215.832 395.019 215.799 395.217 215.766C395.404 215.744 395.525 215.722 395.591 215.711C395.657 215.7 395.789 215.678 395.987 215.656C396.427 215.601 396.735 215.557 396.9 215.513C397.054 215.469 397.164 215.414 397.23 215.326C397.274 215.271 397.307 215.139 397.307 214.919C397.307 214.347 396.911 214.061 396.141 214.061C395.723 214.061 395.426 214.138 395.239 214.292C395.041 214.446 394.92 214.71 394.876 215.073H393.688ZM397.296 216.151C397.197 216.206 397.087 216.25 396.966 216.294C396.834 216.338 396.735 216.36 396.658 216.371C396.581 216.382 396.46 216.393 396.295 216.415C396.13 216.437 396.02 216.459 395.976 216.459C395.822 216.481 395.701 216.503 395.613 216.525C395.525 216.547 395.415 216.569 395.283 216.613C395.151 216.657 395.052 216.712 394.986 216.778C394.92 216.844 394.854 216.921 394.81 217.031C394.755 217.141 394.733 217.262 394.733 217.405C394.733 217.68 394.821 217.889 394.997 218.032C395.173 218.186 395.426 218.252 395.756 218.252C396.306 218.252 396.735 218.109 397.043 217.801C397.208 217.636 397.296 217.306 397.296 216.822V216.151ZM401.054 213.324V214.127C401.516 213.489 402.11 213.17 402.836 213.17C403.21 213.17 403.529 213.258 403.804 213.423C404.079 213.599 404.288 213.83 404.42 214.138C404.871 213.5 405.487 213.17 406.257 213.17C406.785 213.17 407.236 213.335 407.588 213.654C407.94 213.973 408.116 214.413 408.116 214.974V219H406.862V215.513C406.862 215.117 406.785 214.798 406.653 214.567C406.51 214.347 406.246 214.226 405.85 214.226C405.443 214.226 405.135 214.358 404.926 214.611C404.706 214.864 404.607 215.216 404.607 215.667V219H403.353V215.447C403.353 215.051 403.287 214.743 403.166 214.534C403.045 214.336 402.792 214.226 402.418 214.226C401.989 214.226 401.67 214.369 401.45 214.644C401.23 214.919 401.12 215.282 401.12 215.733V219H399.866V213.324H401.054ZM414.41 213.324V219H413.233V218.153C412.749 218.824 412.133 219.154 411.363 219.154C410.736 219.154 410.252 218.978 409.922 218.626C409.592 218.274 409.427 217.757 409.427 217.086V213.324H410.681V216.569C410.681 216.767 410.681 216.932 410.692 217.053C410.692 217.174 410.714 217.306 410.758 217.46C410.802 217.614 410.857 217.724 410.934 217.801C411.011 217.889 411.121 217.955 411.264 218.01C411.407 218.076 411.583 218.098 411.792 218.098C412.254 218.098 412.606 217.933 412.826 217.603C413.046 217.273 413.156 216.844 413.156 216.327V213.324H414.41Z" fill="#A6AFCB"/>
<defs>
<clipPath id="clip0_1998_5569">
<rect x="12" y="12" width="259" height="554" rx="36" fill="white"/>
</clipPath>
</defs>
</svg>
