<svg width="24" height="23" viewBox="0 0 24 23" fill="none" xmlns="http://www.w3.org/2000/svg">
<path d="M21.5947 3.60598C21.5617 3.57504 21.5225 3.5505 21.4794 3.53376C21.4363 3.51701 21.3901 3.50839 21.3434 3.50839C21.2967 3.50839 21.2505 3.51701 21.2074 3.53376C21.1642 3.5505 21.1251 3.57504 21.0921 3.60598L17.8471 6.64553L16.579 5.45766C16.2593 5.14821 15.7442 5.62403 16.0763 5.92848L17.5949 7.35093C17.6279 7.38186 17.6671 7.40641 17.7102 7.42315C17.7533 7.4399 17.7995 7.44851 17.8462 7.44851C17.8929 7.44851 17.9391 7.4399 17.9823 7.42315C18.0254 7.40641 18.0646 7.38186 18.0975 7.35093L21.5947 4.07514C21.6609 4.0128 21.698 3.92846 21.698 3.84056C21.698 3.75265 21.6609 3.66832 21.5947 3.60598Z" fill="#20336B" stroke="#00BAF2" stroke-width="0.3"/>
<path d="M20.1207 15.4797C19.2787 15.4781 18.4623 15.751 17.8118 16.2517L17.3429 15.8125C18.0883 15.2318 19.0201 14.902 19.9893 14.8758C20.1707 14.8717 20.3436 14.8026 20.4724 14.6828L22.371 12.906C23.0815 12.3038 21.6606 10.324 20.1385 9.53374C21.2063 8.71212 22.0791 7.69056 22.7009 6.53455C23.3228 5.37855 23.6798 4.11359 23.7493 2.82078C23.8878 1.6562 19.8792 0.929174 18.8384 1.0057C17.7887 0.92751 13.7853 1.65953 13.9221 2.82244C14.0479 5.05351 15.0234 7.1684 16.6715 8.78342C16.247 8.78342 15.668 8.74682 15.4744 9.201C14.8368 10.5586 14.7462 10.329 15.6946 11.5584C12.7747 10.344 10.7837 11.6416 10.274 11.986H7.15866L6.02906 10.9279C5.96303 10.8661 5.88466 10.8171 5.79841 10.7837C5.71217 10.7503 5.61974 10.7332 5.52642 10.7333H2.06834C1.87991 10.7333 1.69921 10.8034 1.56598 10.9282C1.43274 11.053 1.35789 11.2222 1.35789 11.3987C1.38631 11.7764 1.22824 12.4552 1.62786 12.708L4.35064 14.7244C4.47201 14.8135 4.621 14.8631 4.77513 14.8658C5.75058 14.8875 6.68953 15.2176 7.43929 15.8025L6.95264 16.2583C4.70053 14.42 0.933402 16.057 1.00089 18.8903C1.0023 19.7944 1.38636 20.6611 2.06888 21.3004C2.7514 21.9398 3.67669 22.2995 4.64192 22.3008C7.6613 22.3607 9.41077 18.8504 7.45883 16.7308L7.95436 16.2683C8.54713 16.8858 8.91963 17.661 9.02003 18.486C9.06443 19.0267 9.40189 19.2397 9.73047 19.243C10.4409 19.253 11.9133 19.243 15.0925 19.2629C15.2724 19.2634 15.4457 19.1999 15.5775 19.0854C15.7094 18.9708 15.7899 18.8137 15.803 18.6457C15.8651 17.7689 16.2304 16.9349 16.8438 16.27L17.3251 16.7192C16.7862 17.3269 16.491 18.0919 16.4903 18.882C16.6395 23.3856 23.6232 23.3889 23.7724 18.882C23.7686 17.9776 23.3821 17.1115 22.6975 16.4737C22.0129 15.8358 21.0862 15.4784 20.1207 15.4797ZM14.6308 2.78418C17.0036 1.29518 20.6695 1.28687 23.0389 2.78418C22.8612 5.57417 21.3071 8.1429 18.8366 9.57367C16.3571 8.1429 14.8066 5.57251 14.6308 2.78418ZM16.1937 12.55L12.9577 14.2137L10.9613 12.347C11.6487 11.9045 13.5313 11.0577 16.1937 12.55ZM7.57427 18.8903C7.57427 22.5504 1.71311 22.5504 1.71311 18.8903C1.71134 16.6443 4.6206 15.3134 6.45177 16.7342L4.4128 18.6407C4.37968 18.6721 4.35348 18.7092 4.33568 18.7501C4.31789 18.7909 4.30886 18.8346 4.30911 18.8787C4.30936 18.9228 4.31888 18.9665 4.33713 19.0071C4.35537 19.0478 4.38199 19.0847 4.41546 19.1157C4.44893 19.1467 4.4886 19.1713 4.5322 19.1879C4.57579 19.2046 4.62247 19.2131 4.66956 19.2128C4.71664 19.2126 4.76322 19.2037 4.80663 19.1866C4.85003 19.1695 4.88942 19.1446 4.92254 19.1132L6.95264 17.205C7.35501 17.6859 7.57386 18.2792 7.57427 18.8903ZM15.0854 18.5975H9.70205C9.62002 17.4221 9.07012 16.3183 8.16111 15.5044C7.25209 14.6905 6.05013 14.2258 4.79289 14.202L2.06834 12.1823V11.3954H5.52642L6.65602 12.4535C6.72176 12.5159 6.8 12.5655 6.88626 12.5995C6.97252 12.6334 7.06509 12.6511 7.15866 12.6515H10.274L12.455 14.6928C12.564 14.7947 12.7054 14.8607 12.8579 14.8808C13.0103 14.9009 13.1657 14.874 13.3004 14.8043L16.7124 13.0424C16.7997 12.9973 16.8758 12.9354 16.9359 12.8609C16.996 12.7863 17.0387 12.7007 17.0611 12.6097C17.0836 12.5187 17.0853 12.4242 17.0662 12.3326C17.0471 12.2409 17.0077 12.154 16.9504 12.0775L15.6911 10.3922L16.1227 9.46885C16.5708 9.43616 17.0209 9.43616 17.469 9.46885C18.064 9.89476 18.7797 10.6051 19.4991 9.96796C20.0481 10.2096 20.5404 10.5512 20.9471 10.9728C21.3539 11.3943 21.6671 11.8875 21.8684 12.4236L19.968 14.2004C18.7153 14.231 17.5202 14.699 16.6169 15.5125C15.7136 16.326 15.1674 17.4263 15.0854 18.5975ZM20.1207 21.6354C17.6217 21.6354 16.3003 18.9086 17.8206 17.1933L19.8703 19.1132C20.1917 19.4243 20.7033 18.9468 20.3729 18.6424L18.3251 16.7242C18.8376 16.3484 19.4698 16.1445 20.1207 16.1452C23.9962 16.26 23.998 21.6354 20.1207 21.6354Z" fill="#20336B" stroke="#20336B" stroke-width="0.3"/>
</svg>
