<svg width="23" height="22" viewBox="0 0 23 22" fill="none" xmlns="http://www.w3.org/2000/svg">
<path d="M18.6215 18.7759H3.25916C2.66021 18.7752 2.086 18.5521 1.66248 18.1553C1.23896 17.7586 1.00071 17.2208 0.999992 16.6597L0.999992 15.8133C0.999992 14.1796 2.41875 12.8506 4.16282 12.8506H13.5158C13.6356 12.8506 13.7505 12.8952 13.8353 12.9746C13.92 13.054 13.9676 13.1616 13.9676 13.2739C13.9676 13.3861 13.92 13.4938 13.8353 13.5731C13.7505 13.6525 13.6356 13.6971 13.5158 13.6971H4.16282C3.56388 13.6978 2.98966 13.921 2.56614 14.3177C2.14262 14.7144 1.90438 15.2522 1.90366 15.8133V16.6597C1.90366 17.3598 2.51183 17.9294 3.25916 17.9294H18.6215C19.3688 17.9294 19.977 17.3598 19.977 16.6597V15.8133C19.977 15.2834 19.7664 14.778 19.3833 14.3904C19.343 14.3495 19.3117 14.3016 19.2911 14.2494C19.2706 14.1973 19.2612 14.1418 19.2636 14.0862C19.2659 14.0307 19.28 13.9761 19.3048 13.9256C19.3297 13.8751 19.365 13.8297 19.4086 13.7919C19.4522 13.7542 19.5033 13.7249 19.559 13.7056C19.6147 13.6864 19.6739 13.6776 19.7333 13.6798C19.7926 13.682 19.8509 13.6951 19.9048 13.7184C19.9587 13.7417 20.0072 13.7748 20.0475 13.8156C20.5842 14.3607 20.8806 15.0701 20.8806 15.8133V16.6597C20.8806 17.8262 19.8667 18.7759 18.6215 18.7759Z" fill="#20336B" stroke="#20336B" stroke-width="0.5"/>
<path d="M2.80733 21.3154C1.81059 21.3154 1 20.5561 1 19.6225V16.6598C1 16.5476 1.0476 16.4399 1.13234 16.3606C1.21707 16.2812 1.332 16.2366 1.45183 16.2366C1.57167 16.2366 1.68659 16.2812 1.77133 16.3606C1.85606 16.4399 1.90367 16.5476 1.90367 16.6598V19.6225C1.90367 20.0889 2.30941 20.4689 2.80733 20.4689C3.30525 20.4689 3.711 20.0889 3.711 19.6225V18.3528C3.711 18.2405 3.7586 18.1329 3.84333 18.0535C3.92807 17.9741 4.043 17.9295 4.16283 17.9295C4.28266 17.9295 4.39759 17.9741 4.48232 18.0535C4.56706 18.1329 4.61466 18.2405 4.61466 18.3528V19.6225C4.61466 20.5561 3.80407 21.3154 2.80733 21.3154ZM19.0733 21.3154C18.0766 21.3154 17.266 20.5561 17.266 19.6225V18.3528C17.266 18.2405 17.3136 18.1329 17.3983 18.0535C17.4831 17.9741 17.598 17.9295 17.7178 17.9295C17.8376 17.9295 17.9526 17.9741 18.0373 18.0535C18.122 18.1329 18.1696 18.2405 18.1696 18.3528V19.6225C18.1696 20.0889 18.5754 20.4689 19.0733 20.4689C19.5712 20.4689 19.977 20.0889 19.977 19.6225V16.6598C19.977 16.5476 20.0246 16.4399 20.1093 16.3606C20.194 16.2812 20.309 16.2366 20.4288 16.2366C20.5486 16.2366 20.6636 16.2812 20.7483 16.3606C20.833 16.4399 20.8806 16.5476 20.8806 16.6598V19.6225C20.8806 20.5561 20.0701 21.3154 19.0733 21.3154ZM3.25916 13.6972C3.18474 13.6972 3.11148 13.6799 3.04589 13.647C2.9803 13.614 2.92441 13.5664 2.88319 13.5084C2.84197 13.4504 2.81669 13.3837 2.80961 13.3143C2.80252 13.2449 2.81385 13.1749 2.84257 13.1106L4.64087 9.07298C4.81152 8.68799 5.10008 8.35897 5.47014 8.12743C5.8402 7.89589 6.27518 7.7722 6.7202 7.77196H9.78363C9.90346 7.77196 10.0184 7.81655 10.1031 7.89592C10.1879 7.9753 10.2355 8.08295 10.2355 8.1952C10.2355 8.30744 10.1879 8.41509 10.1031 8.49447C10.0184 8.57384 9.90346 8.61843 9.78363 8.61843H6.7202C6.18342 8.61843 5.6837 8.93247 5.47495 9.39971L3.67666 13.4374C3.64193 13.5142 3.58384 13.5799 3.50961 13.6261C3.43538 13.6723 3.34829 13.697 3.25916 13.6972ZM6.87383 16.2366H4.16283C4.043 16.2366 3.92807 16.192 3.84333 16.1126C3.7586 16.0333 3.711 15.9256 3.711 15.8134C3.711 15.7011 3.7586 15.5935 3.84333 15.5141C3.92807 15.4347 4.043 15.3901 4.16283 15.3901H6.87383C6.99366 15.3901 7.10858 15.4347 7.19332 15.5141C7.27805 15.5935 7.32566 15.7011 7.32566 15.8134C7.32566 15.9256 7.27805 16.0333 7.19332 16.1126C7.10858 16.192 6.99366 16.2366 6.87383 16.2366ZM17.7178 16.2366H15.0068C14.887 16.2366 14.7721 16.192 14.6873 16.1126C14.6026 16.0333 14.555 15.9256 14.555 15.8134C14.555 15.7011 14.6026 15.5935 14.6873 15.5141C14.7721 15.4347 14.887 15.3901 15.0068 15.3901H17.7178C17.8376 15.3901 17.9526 15.4347 18.0373 15.5141C18.122 15.5935 18.1696 15.7011 18.1696 15.8134C18.1696 15.9256 18.122 16.0333 18.0373 16.1126C17.9526 16.192 17.8376 16.2366 17.7178 16.2366ZM17.266 12.8507C17.2057 12.8509 17.146 12.8394 17.0907 12.8169C16.8756 12.7331 11.844 10.6957 11.844 6.53274V2.99536C11.844 2.81422 11.9678 2.65255 12.1512 2.59414L17.1214 1.02225C17.2152 0.992582 17.3168 0.992582 17.4106 1.02225L22.3807 2.59414C22.5642 2.65255 22.688 2.81422 22.688 2.99536V6.53274C22.688 10.6957 17.6564 12.7331 17.4413 12.8177C17.3858 12.8395 17.3262 12.8507 17.266 12.8507ZM12.7477 3.29924V6.53274C12.7477 9.73661 16.412 11.576 17.266 11.962C18.119 11.5751 21.7843 9.72899 21.7843 6.53274V3.29924L17.266 1.87041L12.7477 3.29924Z" fill="#20336B" stroke="#20336B" stroke-width="0.5"/>
<path d="M16.814 8.61829L16.7887 8.61744C16.7252 8.61406 16.6632 8.59822 16.6067 8.57095C16.5502 8.54368 16.5004 8.50559 16.4606 8.45915L14.6533 6.34299C14.5865 6.25472 14.5583 6.14588 14.5744 6.03874C14.5904 5.93161 14.6496 5.83428 14.7398 5.76668C14.83 5.69908 14.9443 5.66632 15.0595 5.67511C15.1746 5.6839 15.2818 5.73357 15.3591 5.81395L16.851 7.56105L19.6569 4.93278C19.7421 4.85568 19.8563 4.81302 19.9747 4.81399C20.0932 4.81495 20.2065 4.85946 20.2903 4.93793C20.3741 5.01641 20.4216 5.12256 20.4226 5.23353C20.4236 5.3445 20.3781 5.45141 20.2958 5.53123L17.133 8.49386C17.0913 8.53341 17.0416 8.56479 16.9868 8.58615C16.9321 8.60752 16.8733 8.61844 16.814 8.61829Z" fill="#00BAF2" stroke="#00BAF2" stroke-width="0.5"/>
</svg>
