<svg width="24" height="25" viewBox="0 0 24 25" fill="none" xmlns="http://www.w3.org/2000/svg">
<path d="M22.8202 12.4545C22.5947 12.4545 22.4102 12.2816 22.4102 12.0704C22.4102 6.39035 17.7895 1.77411 12.1151 1.77411C6.4407 1.77411 1.82 6.39035 1.82 12.0704C1.82 12.2816 1.6355 12.4545 1.41 12.4545C1.1845 12.4545 1 12.2816 1 12.0704C1 5.9679 5.9856 1.00601 12.1151 1.00601C18.2446 1.00601 23.2302 5.97174 23.2302 12.0704C23.2302 12.2816 23.0457 12.4545 22.8202 12.4545Z" fill="#20336B" stroke="#20336B" stroke-width="0.3"/>
<path d="M8.54793 12.4542C8.32243 12.4542 8.13793 12.2814 8.13793 12.0702C8.13793 11.1984 6.69063 10.4649 4.98093 10.4649C3.27123 10.4649 1.82393 11.2022 1.82393 12.0702C1.82393 12.2814 1.63943 12.4542 1.41393 12.4542C1.18843 12.4542 1.00393 12.2814 1.00393 12.0702C1.00393 10.7375 2.75053 9.69677 4.98093 9.69677C7.21133 9.69677 8.95793 10.7414 8.95793 12.0702C8.95793 12.2814 8.77343 12.4542 8.54793 12.4542Z" fill="#20336B" stroke="#20336B" stroke-width="0.3"/>
<path d="M15.682 12.4542C15.4565 12.4542 15.272 12.2814 15.272 12.0702C15.272 11.1984 13.8247 10.4649 12.115 10.4649C10.4053 10.4649 8.958 11.2022 8.958 12.0702C8.958 12.2814 8.7735 12.4542 8.54801 12.4542C8.32251 12.4542 8.13801 12.2814 8.13801 12.0702C8.13801 10.7375 9.8846 9.69677 12.115 9.69677C14.3454 9.69677 16.092 10.7414 16.092 12.0702C16.092 12.2814 15.9075 12.4542 15.682 12.4542Z" fill="#20336B" stroke="#20336B" stroke-width="0.3"/>
<path d="M22.8203 12.454C22.5948 12.454 22.4103 12.2812 22.4103 12.07C22.4103 11.1982 20.963 10.4647 19.2533 10.4647C17.5436 10.4647 16.0963 11.2021 16.0963 12.07C16.0963 12.2812 15.9118 12.454 15.6863 12.454C15.4608 12.454 15.2763 12.2812 15.2763 12.07C15.2763 10.7374 17.0229 9.69659 19.2533 9.69659C21.4837 9.69659 23.2303 10.7412 23.2303 12.07C23.2303 12.2812 23.0458 12.454 22.8203 12.454ZM8.54817 12.454C8.34727 12.454 8.17507 12.3158 8.14227 12.1276C8.09307 11.8127 6.97787 4.3929 11.8774 1.07858C12.0619 0.955683 12.3161 0.994087 12.4514 1.16307C12.5826 1.33589 12.5416 1.574 12.3612 1.70073C7.87167 4.74238 8.94587 11.9433 8.95817 12.0162C8.99097 12.2275 8.83517 12.4195 8.61377 12.454H8.54817Z" fill="#20336B" stroke="#20336B" stroke-width="0.3"/>
<path d="M15.6822 12.4541C15.6617 12.4541 15.6412 12.4541 15.6207 12.4503C15.5673 12.4428 15.516 12.4256 15.4698 12.3996C15.4235 12.3735 15.3832 12.3392 15.3512 12.2985C15.3192 12.2578 15.2961 12.2116 15.2832 12.1625C15.2704 12.1134 15.268 12.0624 15.2763 12.0124C15.2886 11.9395 16.3628 4.73859 11.8733 1.69694C11.8293 1.66742 11.7921 1.63001 11.7638 1.58689C11.7354 1.54378 11.7165 1.49581 11.7081 1.44578C11.6997 1.39575 11.702 1.34466 11.7149 1.29548C11.7278 1.24629 11.7509 1.19999 11.7831 1.15927C11.9143 0.986452 12.1726 0.948047 12.3571 1.07478C17.2525 4.38911 16.1414 11.8089 16.0922 12.1238C16.0594 12.3158 15.8831 12.4541 15.6822 12.4541ZM12.1152 12.8113C11.8897 12.8113 11.7052 12.6384 11.7052 12.4272V10.0807C11.7052 9.86946 11.8897 9.69664 12.1152 9.69664C12.3407 9.69664 12.5252 9.86946 12.5252 10.0807V12.4272C12.5252 12.6423 12.3407 12.8113 12.1152 12.8113ZM5.48548 18.6833C3.96439 18.6833 2.72619 17.5235 2.72619 16.0987C2.72619 14.6739 3.96439 13.5141 5.48548 13.5141C7.00658 13.5141 8.24478 14.6739 8.24478 16.0987C8.24478 17.5235 7.01068 18.6833 5.48548 18.6833ZM5.48548 14.2783C4.41539 14.2783 3.54619 15.0925 3.54619 16.0949C3.54619 17.0972 4.41539 17.9114 5.48548 17.9114C6.55558 17.9114 7.42478 17.0972 7.42478 16.0949C7.42478 15.0925 6.55558 14.2783 5.48548 14.2783ZM9.21648 24.2943H1.75859C1.53309 24.2943 1.34859 24.1214 1.34859 23.9102V21.3832C1.34859 19.9737 2.57449 18.8254 4.07919 18.8254H6.89588C7.49448 18.8254 8.06028 19.0021 8.53178 19.3362C8.71218 19.4629 8.74908 19.7049 8.60968 19.8739C8.47438 20.0429 8.21608 20.0774 8.03568 19.9468C7.70836 19.713 7.30753 19.5874 6.89588 19.5897H4.07919C3.02549 19.5897 2.16859 20.3923 2.16859 21.3793V23.5223H9.21648C9.32576 23.5223 9.43057 23.563 9.50784 23.6354C9.58512 23.7078 9.62853 23.8059 9.62853 23.9083C9.62853 24.0107 9.58512 24.1088 9.50784 24.1812C9.43057 24.2536 9.32576 24.2943 9.21648 24.2943ZM18.7408 18.6833C17.2197 18.6833 15.9815 17.5235 15.9815 16.0987C15.9815 14.6739 17.2197 13.5141 18.7408 13.5141C20.2619 13.5141 21.5001 14.6739 21.5001 16.0987C21.5001 17.5235 20.2619 18.6833 18.7408 18.6833ZM18.7408 14.2783C17.6707 14.2783 16.8015 15.0925 16.8015 16.0949C16.8015 17.0972 17.6707 17.9114 18.7408 17.9114C19.8109 17.9114 20.6801 17.0972 20.6801 16.0949C20.6801 15.0925 19.8109 14.2783 18.7408 14.2783ZM22.4718 24.2943H15.0139C14.7884 24.2943 14.6039 24.1214 14.6039 23.9102C14.6039 23.699 14.7884 23.5262 15.0139 23.5262H22.0618V21.3832C22.0618 20.3962 21.2049 19.5935 20.1512 19.5935H17.3345C16.9204 19.5935 16.5268 19.7164 16.1988 19.9507C16.0184 20.0774 15.7601 20.0467 15.6248 19.8777C15.4895 19.7087 15.5223 19.4668 15.7027 19.3401C16.1721 19.0068 16.7455 18.8273 17.3345 18.8293H20.1512C21.6559 18.8293 22.8818 19.9776 22.8818 21.387V23.9141C22.8818 24.1253 22.6973 24.2943 22.4718 24.2943Z" fill="#20336B" stroke="#20336B" stroke-width="0.3"/>
<path d="M12.115 17.8615C10.4012 17.8615 9.0113 16.5557 9.0113 14.9542C9.0113 13.3527 10.4053 12.047 12.115 12.047C13.8247 12.047 15.2187 13.3527 15.2187 14.9542C15.2187 16.5557 13.8247 17.8615 12.115 17.8615ZM12.115 12.8112C10.8563 12.8112 9.8313 13.7714 9.8313 14.9504C9.8313 16.1294 10.8563 17.0895 12.115 17.0895C13.3737 17.0895 14.3987 16.1294 14.3987 14.9504C14.3987 13.7714 13.3737 12.8112 12.115 12.8112ZM16.3913 24.2942H7.8387C7.61321 24.2942 7.42871 24.1214 7.42871 23.9102V21.0106C7.42871 19.4245 8.8063 18.1341 10.4996 18.1341H13.7304C15.4237 18.1341 16.8013 19.4245 16.8013 21.0106V23.9102C16.8013 24.1253 16.6168 24.2942 16.3913 24.2942ZM8.2487 23.5261H15.9813V21.0106C15.9813 19.847 14.9727 18.9022 13.7304 18.9022H10.4996C9.2614 18.9022 8.2487 19.847 8.2487 21.0106V23.5261Z" fill="#20336B" stroke="#20336B" stroke-width="0.3"/>
</svg>
