<svg width="24" height="27" viewBox="0 0 24 27" fill="none" xmlns="http://www.w3.org/2000/svg">
<path d="M23.2016 7.38089C23.1881 6.71183 23.1751 6.07973 23.1751 5.46831C23.1751 4.98922 22.7606 4.60089 22.2491 4.60089C18.2888 4.60089 15.2735 3.5347 12.7601 1.24565C12.4006 0.91809 11.8285 0.918244 11.469 1.24565C8.95593 3.5347 5.94118 4.60089 1.98113 4.60089C1.46967 4.60089 1.05504 4.98922 1.05504 5.46831C1.05504 6.07989 1.04225 6.71219 1.02853 7.38141C0.901624 13.6079 0.727789 22.1355 11.8113 25.7341C12.0077 25.7979 12.2214 25.7979 12.4178 25.7341C23.5022 22.1353 23.3286 13.6075 23.2016 7.38089Z" stroke="#20336B" stroke-width="1.5" stroke-miterlimit="10"/>
<path d="M13.7571 11.5924V8.33936H10.4711V11.5924H6.99801V14.6704H10.4711V17.9235H13.7571V14.6704H17.2298V11.5924H13.7571Z" stroke="#00BAF2" stroke-width="2.5" stroke-miterlimit="10" stroke-linejoin="round"/>
</svg>
