<svg width="26" height="23" viewBox="0 0 26 23" fill="none" xmlns="http://www.w3.org/2000/svg">
<path d="M25.4175 8.1123C25.3448 7.13289 25.2132 6.15808 25.0234 5.19253C25.0008 5.07868 24.9502 4.97133 24.8756 4.87896C24.8011 4.78659 24.7046 4.71173 24.5938 4.66031C24.483 4.60889 24.361 4.58231 24.2374 4.58268C24.1137 4.58305 23.9919 4.61036 23.8815 4.66244C23.0809 5.03165 22.4531 5.66362 22.1176 6.43814C21.813 7.17593 21.7968 7.99083 22.0717 8.73877C22.1317 8.90052 22.1274 9.0771 22.0597 9.23616L21.6105 10.2516C21.2555 10.2918 20.9235 10.4374 20.6633 10.6672L18.826 12.2992C18.7604 12.3581 18.6742 12.3928 18.5835 12.3969C18.0049 12.4197 17.4378 12.5557 16.9188 12.7962C16.4606 13.0099 16.0494 13.3024 15.7066 13.6584C15.0135 14.3733 14.6298 15.3045 14.6304 16.2701V18.4688C14.4 18.4846 14.1844 18.5813 14.0269 18.7396C13.8693 18.8979 13.7814 19.106 13.7806 19.3224V21.1928C13.7808 21.4209 13.8777 21.6397 14.0499 21.801C14.2222 21.9623 14.4557 22.0531 14.6993 22.0533H20.7047C20.9483 22.0531 21.1818 21.9623 21.354 21.801C21.5263 21.6397 21.6231 21.4209 21.6234 21.1928V19.3224C21.6231 19.0943 21.5263 18.8755 21.354 18.7142C21.1818 18.5529 20.9483 18.4621 20.7047 18.4619H20.6174V18.4477C20.6229 18.2684 20.7025 18.0981 20.8393 17.9727L24.57 14.5435C24.9454 14.1968 25.1862 13.7424 25.254 13.2527C25.4886 11.5484 25.5434 9.82663 25.4175 8.1123ZM20.7047 21.1924H14.6993V19.3224H20.7047V21.1924ZM24.3427 13.143C24.3015 13.4413 24.155 13.7181 23.9265 13.9295L20.1957 17.3587C19.8893 17.6397 19.7115 18.0212 19.6996 18.4227L19.6983 18.4619H15.5486V16.2701C15.5482 15.5182 15.8471 14.7932 16.3869 14.2367C16.6526 13.9602 16.9714 13.733 17.3267 13.5668C17.7319 13.3798 18.1744 13.2742 18.6257 13.257C18.9366 13.2428 19.2316 13.1244 19.4571 12.9235L21.2945 11.2915C21.4039 11.1946 21.5415 11.1302 21.69 11.1065C21.8384 11.0828 21.9911 11.1007 22.1286 11.1581C22.1944 11.1857 22.2498 11.2313 22.2874 11.2889C22.325 11.3465 22.3432 11.4134 22.3395 11.4808C22.3393 11.6794 22.2615 11.871 22.1208 12.0195L19.8287 14.4436C19.7878 14.4858 19.7562 14.5351 19.7358 14.5888C19.7153 14.6425 19.7065 14.6995 19.7098 14.7564C19.7131 14.8133 19.7284 14.869 19.7548 14.9203C19.7813 14.9716 19.8184 15.0175 19.8639 15.0553C19.9094 15.0931 19.9625 15.122 20.0201 15.1404C20.0777 15.1588 20.1386 15.1663 20.1993 15.1625C20.26 15.1587 20.3193 15.1436 20.3737 15.1181C20.4281 15.0927 20.4766 15.0573 20.5164 15.0142L22.8089 12.5901C23.1026 12.2774 23.2626 11.8741 23.2582 11.4576C23.2574 11.235 23.1898 11.0171 23.0631 10.8288C22.9364 10.6405 22.7557 10.4894 22.5416 10.3927L22.9081 9.56488C23.0604 9.21456 23.0728 8.82459 22.9431 8.46641C22.7343 7.91887 22.7411 7.31951 22.9623 6.77626C23.1834 6.233 23.6044 5.78155 24.1493 5.50318C24.3169 6.38635 24.4342 7.27726 24.5007 8.17211C24.6223 9.82991 24.5697 11.4949 24.3427 13.143ZM10.8541 18.4683V16.4031C10.8681 15.3276 10.4291 14.2904 9.63228 13.516C9.32074 13.2233 8.96032 12.9802 8.56523 12.7962C8.04777 12.5567 7.48272 12.4209 6.9061 12.3973C6.818 12.3951 6.73363 12.3635 6.66816 12.3082L4.82069 10.6672C4.56086 10.4373 4.22892 10.2919 3.87399 10.2524L3.4243 9.23659C3.35634 9.07745 3.35193 8.9007 3.41189 8.73877C3.6871 7.99093 3.67116 7.17603 3.36688 6.43814C3.03103 5.66328 2.40276 5.03113 1.60163 4.66201C1.49122 4.6101 1.36943 4.58294 1.24589 4.58268C1.12235 4.58243 1.00044 4.60908 0.889779 4.66053C0.77912 4.71198 0.682746 4.78682 0.608268 4.87915C0.53379 4.97148 0.483247 5.07876 0.46063 5.19253C-0.0629548 7.85184 -0.140752 10.5713 0.230042 13.2531C0.29791 13.7429 0.538849 14.1973 0.914459 14.5439L4.6443 17.9731C4.78102 18.0983 4.86055 18.2683 4.86617 18.4473L4.86662 18.4619H4.77935C4.53577 18.4621 4.30225 18.5529 4.13001 18.7142C3.95778 18.8755 3.86091 19.0943 3.86067 19.3224V21.1928C3.86091 21.4209 3.95778 21.6397 4.13001 21.801C4.30225 21.9623 4.53577 22.0531 4.77935 22.0533H10.7848C11.0283 22.0531 11.2619 21.9623 11.4341 21.801C11.6063 21.6397 11.7032 21.4209 11.7034 21.1928V19.3224C11.7028 19.1059 11.6149 18.8977 11.4573 18.7393C11.2998 18.581 11.0846 18.4842 10.8541 18.4683ZM5.78485 18.4223C5.77271 18.0208 5.5945 17.6394 5.28784 17.3587L1.55799 13.9295C1.32922 13.7183 1.18255 13.4414 1.14137 13.143C0.789951 10.602 0.855009 8.02571 1.3343 5.50318C1.869 5.77961 2.28501 6.22098 2.51159 6.75224C2.73664 7.30257 2.74689 7.90969 2.54052 8.46641C2.41073 8.82473 2.42312 9.21486 2.57543 9.56531L2.94153 10.3923C2.72423 10.4914 2.54152 10.6464 2.41473 10.8392C2.28793 11.0319 2.22227 11.2545 2.22542 11.4808C2.22541 11.8895 2.38523 12.2839 2.67465 12.5896L4.96722 15.0142C5.00695 15.0573 5.05543 15.0927 5.10986 15.1181C5.16429 15.1436 5.22357 15.1587 5.28427 15.1625C5.34497 15.1663 5.40588 15.1588 5.46346 15.1404C5.52104 15.122 5.57414 15.0931 5.61968 15.0553C5.66522 15.0175 5.70229 14.9716 5.72875 14.9203C5.7552 14.869 5.77051 14.8133 5.77378 14.7564C5.77706 14.6995 5.76823 14.6425 5.74781 14.5888C5.7274 14.5351 5.6958 14.4858 5.65485 14.4436L3.36274 12.0191C3.21772 11.864 3.13974 11.6638 3.1441 11.4576C3.14461 11.3923 3.16584 11.3286 3.2051 11.2745C3.24436 11.2205 3.29987 11.1787 3.36458 11.1543C3.50123 11.0991 3.65219 11.0827 3.79869 11.1071C3.9452 11.1316 4.0808 11.1959 4.18864 11.292L6.03656 12.9334C6.26173 13.1303 6.55472 13.2451 6.86246 13.257C7.31222 13.2749 7.75305 13.3804 8.15688 13.5668C8.46263 13.7095 8.74157 13.8978 8.98278 14.1244C9.60754 14.7372 9.94961 15.5558 9.93499 16.4031V18.4619H5.78577L5.78485 18.4223ZM10.7848 21.1928H4.77935V19.3224H10.7848V21.1928Z" fill="#20336B"/>
<path d="M17.8784 4.11259C17.8718 3.78622 17.8655 3.47788 17.8655 3.17962C17.8655 2.94592 17.6633 2.75649 17.4138 2.75649C15.4819 2.75649 14.0111 2.23639 12.785 1.11979C12.6097 0.96 12.3306 0.960075 12.1552 1.11979C10.9293 2.23639 9.45872 2.75649 7.52699 2.75649C7.2775 2.75649 7.07524 2.94592 7.07524 3.17962C7.07524 3.47795 7.069 3.78639 7.06231 4.11284C7.0004 7.15016 6.9156 11.3099 12.3222 13.0654C12.418 13.0965 12.5222 13.0965 12.618 13.0654C18.025 11.3099 17.9404 7.14998 17.8784 4.11259Z" stroke="#00BAF2" stroke-width="1.5" stroke-miterlimit="10"/>
<path d="M13.2717 6.16774V4.58087H11.6688V6.16774H9.97459V7.6692H11.6688V9.25604H13.2717V7.6692H14.9657V6.16774H13.2717Z" stroke="#00BAF2" stroke-width="1.5" stroke-miterlimit="10" stroke-linejoin="round"/>
</svg>
