<svg width="17" height="26" viewBox="0 0 17 26" fill="none" xmlns="http://www.w3.org/2000/svg">
<path d="M0.288113 7.86302C0.367704 7.87264 0.448314 7.8548 0.51489 7.81283C0.581466 7.77086 0.629458 7.70762 0.649904 7.63493C0.699795 7.4578 0.892695 6.90376 1.12348 6.66736C1.43072 6.3908 1.84001 6.23589 2.26612 6.23491H2.27394C2.69625 6.23395 3.10203 6.38858 3.4037 6.6654C3.70038 6.95314 3.8668 7.33719 3.86813 7.73722C3.86813 7.8193 3.90295 7.89802 3.96491 7.95606C4.02687 8.0141 4.11091 8.0467 4.19854 8.0467C4.28617 8.0467 4.37021 8.0141 4.43217 7.95606C4.49413 7.89802 4.52894 7.8193 4.52894 7.73722C4.52553 7.53895 4.56472 7.34207 4.6442 7.15828C4.72368 6.97449 4.84181 6.80756 4.99157 6.66741C5.14133 6.52726 5.31965 6.41677 5.51593 6.34249C5.71221 6.26821 5.92243 6.23168 6.13409 6.23506H6.14191C6.56421 6.2341 6.96998 6.38871 7.27167 6.66551C7.56835 6.95321 7.73478 7.33722 7.73616 7.73722V11.2679C7.73616 11.3499 7.77097 11.4287 7.83293 11.4867C7.89489 11.5447 7.97893 11.5773 8.06656 11.5773C8.15419 11.5773 8.23823 11.5447 8.30019 11.4867C8.36215 11.4287 8.39696 11.3499 8.39696 11.2679V7.73722C8.39359 7.53897 8.43281 7.34211 8.51231 7.15835C8.5918 6.97459 8.70994 6.80769 8.85969 6.66756C9.00944 6.52744 9.18775 6.41696 9.38401 6.34269C9.58027 6.26843 9.79047 6.23189 10.0021 6.23527H10.01C10.4323 6.2343 10.8381 6.38893 11.1397 6.66577C11.4363 6.95341 11.6028 7.33731 11.6042 7.73722C11.6042 7.8193 11.639 7.89802 11.701 7.95606C11.7629 8.0141 11.847 8.0467 11.9346 8.0467C12.0222 8.0467 12.1063 8.0141 12.1682 7.95606C12.2302 7.89802 12.265 7.8193 12.265 7.73722C12.2616 7.53895 12.3008 7.34207 12.3803 7.15829C12.4598 6.97451 12.5779 6.80759 12.7277 6.66744C12.8774 6.5273 13.0558 6.41681 13.252 6.34254C13.4483 6.26826 13.6585 6.23173 13.8702 6.23511H13.8781C14.3002 6.23415 14.7059 6.38867 15.0075 6.66535C15.2393 6.9002 15.4293 7.44423 15.4832 7.63508C15.5037 7.70771 15.5517 7.77085 15.6183 7.81274C15.6849 7.85464 15.7654 7.87242 15.845 7.86277C15.9245 7.85312 15.9976 7.81671 16.0506 7.76031C16.1036 7.70392 16.1328 7.63139 16.133 7.55627V7.54636C16.1303 3.38421 12.5144 0 8.07157 0H8.05632C3.61119 0.00273382 -0.00286179 3.39251 1.70043e-06 7.55627C5.04657e-05 7.63146 0.0293185 7.70406 0.0823385 7.76051C0.135359 7.81696 0.208504 7.8534 0.288113 7.86302ZM8.05654 0.618977H8.06656C8.06822 0.619293 8.06992 0.619293 8.07157 0.618977C11.6155 0.618977 14.5865 2.96511 15.3061 6.08687C14.9025 5.78131 14.3989 5.61509 13.8799 5.61608H13.8689C13.2711 5.61634 12.6967 5.83416 12.2671 6.22356C12.2623 6.22785 12.2576 6.23229 12.253 6.23687C12.1326 6.35616 12.026 6.48703 11.9349 6.62729C11.8438 6.48702 11.7371 6.35614 11.6167 6.23681C11.6138 6.23389 11.6108 6.23102 11.6077 6.2282C11.1828 5.83497 10.6092 5.61494 10.0119 5.61603H10.0009C9.40309 5.6163 8.82878 5.83411 8.39917 6.22351C8.39433 6.22778 8.38963 6.23218 8.38507 6.23671C8.26453 6.35601 8.15776 6.48689 8.06656 6.62718C7.97546 6.48692 7.86883 6.35604 7.74844 6.23671C7.74547 6.23379 7.74246 6.2309 7.73941 6.22805C7.31444 5.83485 6.74084 5.61484 6.14351 5.61593C5.54196 5.61384 4.96332 5.83183 4.53081 6.22345C4.52596 6.22774 4.52124 6.23216 4.51666 6.23671C4.39627 6.35604 4.28963 6.48692 4.19854 6.62718C4.10744 6.4869 4.00079 6.35602 3.88036 6.23671C3.87742 6.23376 3.87441 6.23087 3.87133 6.22805C3.44638 5.83485 2.8728 5.61484 2.27548 5.61593C1.7485 5.61403 1.23682 5.78174 0.826063 6.09099C1.54337 2.96903 4.5122 0.621144 8.05654 0.618977Z" fill="#20336B"/>
<path d="M7.36351 9.81582C7.36345 9.44249 7.24522 9.07756 7.02375 8.76718C6.80229 8.45679 6.48753 8.21489 6.1193 8.07206C5.75107 7.92923 5.34589 7.89189 4.955 7.96476C4.56411 8.03763 4.20506 8.21743 3.92326 8.48143C3.64146 8.74544 3.44957 9.08179 3.37184 9.44794C3.29411 9.8141 3.33404 10.1936 3.48658 10.5385C3.63912 10.8834 3.89742 11.1782 4.22882 11.3856C4.56022 11.593 4.94983 11.7037 5.34838 11.7037C5.8827 11.7031 6.39495 11.504 6.77273 11.1501C7.15052 10.7962 7.36298 10.3163 7.36351 9.81582ZM3.99401 9.81582C3.99406 9.56492 4.07353 9.31968 4.22237 9.11109C4.37122 8.9025 4.58274 8.73994 4.83021 8.64395C5.07768 8.54796 5.34998 8.52286 5.61268 8.57182C5.87537 8.62078 6.11667 8.7416 6.30607 8.91901C6.49547 9.09642 6.62445 9.32244 6.67672 9.56851C6.72899 9.81458 6.70219 10.0696 6.59972 10.3014C6.49724 10.5332 6.32369 10.7314 6.10101 10.8708C5.87832 11.0102 5.6165 11.0847 5.34866 11.0847C4.98948 11.0844 4.64512 10.9506 4.39114 10.7127C4.13717 10.4748 3.99434 10.1523 3.99401 9.81582ZM6.84769 25.3779C7.12843 25.3777 7.3976 25.2731 7.59613 25.0872C7.79466 24.9013 7.90633 24.6492 7.90664 24.3862V14.1235H10.197C10.2296 14.1235 10.2621 14.1189 10.2934 14.11L12.6839 13.4277C12.9261 13.3647 13.1362 13.2225 13.276 13.0268C13.4159 12.8312 13.4761 12.595 13.4459 12.3613C13.4459 12.3592 13.4454 12.3572 13.4451 12.3552C13.4253 12.2084 13.3704 12.0676 13.2847 11.9433C13.199 11.819 13.0846 11.7143 12.9499 11.637C12.8184 11.5594 12.6701 11.5103 12.5157 11.4933C12.3614 11.4764 12.2049 11.492 12.0578 11.5389L10.1449 12.1191H4.15034C3.65526 12.1206 3.17513 12.2782 2.78734 12.5665C2.39956 12.8548 2.12672 13.257 2.0128 13.7083L1.05931 17.5263C1.02493 17.6526 1.02194 17.7846 1.05058 17.9121C1.07922 18.0397 1.13873 18.1593 1.22451 18.262C1.33163 18.3891 1.47435 18.4859 1.63674 18.5415C1.79914 18.5972 1.97484 18.6095 2.14426 18.577C2.31368 18.5446 2.47016 18.4688 2.59626 18.3579C2.72235 18.2471 2.81311 18.1056 2.85841 17.9493L2.86116 17.9398L3.14625 16.8767V24.3862C3.14657 24.6491 3.25818 24.9011 3.45661 25.087C3.65504 25.273 3.92409 25.3776 4.20475 25.3779H4.22347C4.50416 25.3776 4.77326 25.273 4.97173 25.0871C5.1702 24.9012 5.28183 24.6491 5.28214 24.3862V19.4385C5.28214 19.3756 5.30882 19.3153 5.35633 19.2708C5.40383 19.2263 5.46826 19.2013 5.53544 19.2013C5.60263 19.2013 5.66706 19.2263 5.71456 19.2708C5.76207 19.3153 5.78875 19.3756 5.78875 19.4385V24.3862C5.78906 24.6492 5.90073 24.9013 6.09926 25.0872C6.29779 25.2731 6.56696 25.3777 6.84769 25.3779ZM5.53556 18.5822C5.29321 18.5825 5.06088 18.6728 4.88952 18.8333C4.71815 18.9938 4.62175 19.2114 4.62144 19.4384V24.3861C4.62137 24.4849 4.57942 24.5797 4.5048 24.6496C4.43019 24.7195 4.32901 24.7589 4.22347 24.759H4.20475C4.09924 24.7588 3.99809 24.7195 3.92348 24.6496C3.84888 24.5798 3.80691 24.485 3.80678 24.3862V14.375C3.80676 14.2996 3.77728 14.2267 3.72389 14.1701C3.67051 14.1136 3.59689 14.0772 3.51691 14.068C3.43692 14.0587 3.35608 14.0772 3.2896 14.1198C3.22312 14.1625 3.17558 14.2265 3.15594 14.2997L2.22145 17.7834C2.20688 17.8381 2.17329 17.8868 2.12597 17.9216C2.07865 17.9564 2.02029 17.9755 1.9601 17.9758C1.91891 17.9768 1.87805 17.9687 1.84077 17.9523C1.80349 17.9358 1.77081 17.9115 1.74534 17.8811C1.72111 17.8519 1.70455 17.8177 1.69697 17.7814C1.6894 17.7451 1.69103 17.7076 1.70173 17.672L2.65565 13.8524C2.73513 13.5365 2.9258 13.2548 3.19697 13.0527C3.46814 12.8506 3.80403 12.7398 4.15056 12.7383H10.1969C10.2315 12.7383 10.2659 12.7332 10.2988 12.7232L12.2643 12.127L12.271 12.1249C12.3256 12.1076 12.3837 12.1021 12.4408 12.1086C12.498 12.1152 12.5529 12.1337 12.6014 12.1628C12.6519 12.1914 12.6949 12.2301 12.7274 12.2762C12.7598 12.3222 12.781 12.3745 12.7893 12.4291C12.8025 12.5165 12.7814 12.6054 12.7299 12.6793C12.6784 12.7532 12.6 12.8071 12.5093 12.8309C12.5052 12.8319 12.5011 12.833 12.497 12.8341L10.148 13.5047H7.57623C7.48861 13.5047 7.40457 13.5373 7.3426 13.5953C7.28064 13.6534 7.24583 13.7321 7.24583 13.8142V24.3862C7.24583 24.485 7.20391 24.5798 7.12928 24.6497C7.05466 24.7196 6.95345 24.7589 6.84792 24.7589C6.74238 24.7589 6.64117 24.7196 6.56655 24.6497C6.49192 24.5798 6.45 24.485 6.45 24.3862V19.4385C6.44972 19.2115 6.35328 18.9938 6.18185 18.8332C6.01041 18.6727 5.77798 18.5824 5.53556 18.5822Z" fill="#20336B"/>
<path d="M10.1881 17.8368C9.95447 17.8371 9.73052 17.9241 9.56535 18.0788C9.40018 18.2335 9.30726 18.4433 9.30698 18.6621V24.5527C9.30726 24.7715 9.40018 24.9813 9.56535 25.136C9.73052 25.2907 9.95447 25.3777 10.1881 25.378H14.2204C14.454 25.3777 14.6779 25.2907 14.8431 25.136C15.0083 24.9813 15.1012 24.7715 15.1015 24.5527V18.6621C15.1012 18.4433 15.0083 18.2335 14.8431 18.0788C14.6779 17.9241 14.454 17.8371 14.2204 17.8368H13.8575V15.8115C13.8573 15.6314 13.7808 15.4587 13.6449 15.3314C13.5089 15.204 13.3245 15.1324 13.1322 15.1322H11.2765C11.0842 15.1324 10.8998 15.204 10.7638 15.3314C10.6279 15.4587 10.5514 15.6314 10.5512 15.8115V17.8368H10.1881ZM9.96779 24.5527V23.9864H10.6892V24.759H10.1881C10.1296 24.759 10.0736 24.7373 10.0323 24.6986C9.991 24.6599 9.96779 24.6074 9.96779 24.5527ZM13.0585 24.759H11.3499V21.4223C11.3499 21.4063 11.3567 21.3909 11.3688 21.3796C11.3809 21.3683 11.3973 21.3619 11.4144 21.3619H12.994C13.0111 21.3619 13.0275 21.3683 13.0396 21.3796C13.0517 21.3909 13.0585 21.4063 13.0585 21.4223V24.759ZM14.2204 24.759H13.7193V23.9864H14.4407V24.5527C14.4407 24.6074 14.4175 24.6599 14.3762 24.6986C14.3349 24.7373 14.2788 24.759 14.2204 24.759ZM14.4407 18.6621V23.3676H13.7193V21.4223C13.7191 21.2422 13.6426 21.0695 13.5066 20.9422C13.3707 20.8148 13.1863 20.7431 12.994 20.7429H11.4145C11.2222 20.7431 11.0379 20.8148 10.9019 20.9422C10.7659 21.0695 10.6894 21.2422 10.6892 21.4223V23.3674H9.96784V18.6621C9.96784 18.6074 9.99105 18.5549 10.0324 18.5162C10.0737 18.4775 10.1297 18.4558 10.1881 18.4558H14.2205C14.2789 18.4558 14.3349 18.4775 14.3762 18.5162C14.4175 18.5549 14.4407 18.6074 14.4407 18.6621ZM11.2762 15.7514H13.1319C13.149 15.7514 13.1654 15.7578 13.1775 15.7691C13.1896 15.7804 13.1964 15.7957 13.1964 15.8118V16.0962H11.2117V15.8118C11.2117 15.8038 11.2133 15.7959 11.2166 15.7886C11.2198 15.7812 11.2246 15.7746 11.2305 15.7689C11.2365 15.7633 11.2436 15.7588 11.2515 15.7558C11.2593 15.7527 11.2677 15.7512 11.2762 15.7511V15.7514ZM11.2117 16.7152H13.1967V17.8368H11.2117V16.7152Z" fill="#00BAF2"/>
<path d="M10.4271 19.9351H13.9812C14.0689 19.9351 14.1529 19.9025 14.2149 19.8444C14.2768 19.7864 14.3116 19.7077 14.3116 19.6256C14.3116 19.5435 14.2768 19.4648 14.2149 19.4068C14.1529 19.3487 14.0689 19.3161 13.9812 19.3161H10.4271C10.3395 19.3161 10.2555 19.3487 10.1935 19.4068C10.1316 19.4648 10.0967 19.5435 10.0967 19.6256C10.0967 19.7077 10.1316 19.7864 10.1935 19.8444C10.2555 19.9025 10.3395 19.9351 10.4271 19.9351Z" fill="#00BAF2"/>
</svg>
