<svg width="206" height="212" viewBox="0 0 206 212" fill="none" xmlns="http://www.w3.org/2000/svg">
<line x1="102.5" y1="198" x2="102.5" y2="144" stroke="#E7E7E7" stroke-dasharray="4 4"/>
<rect y="24" width="206" height="120" rx="12" fill="#FF4C7B"/>
<path d="M27.036 52.102H28.884L31.843 60H30.204L29.577 58.306H26.321L25.694 60H24.088L27.036 52.102ZM27.938 53.895L26.827 56.931H29.06L27.938 53.895ZM33.4637 57.107C33.4637 58.196 34.0027 58.823 34.8167 58.823C35.4547 58.823 35.8397 58.383 35.9827 57.789L37.3137 58.383C37.0497 59.329 36.1477 60.121 34.8057 60.121C33.1227 60.121 31.9347 58.9 31.9347 57.107C31.9347 55.325 33.1227 54.104 34.8057 54.104C36.1367 54.104 37.0167 54.874 37.2917 55.809L35.9827 56.425C35.8397 55.831 35.4547 55.391 34.8167 55.391C34.0027 55.391 33.4637 56.029 33.4637 57.107ZM39.243 57.107C39.243 58.196 39.782 58.823 40.596 58.823C41.234 58.823 41.619 58.383 41.762 57.789L43.093 58.383C42.829 59.329 41.927 60.121 40.585 60.121C38.902 60.121 37.714 58.9 37.714 57.107C37.714 55.325 38.902 54.104 40.585 54.104C41.916 54.104 42.796 54.874 43.071 55.809L41.762 56.425C41.619 55.831 41.234 55.391 40.596 55.391C39.782 55.391 39.243 56.029 39.243 57.107ZM46.3643 60.121C44.6593 60.121 43.4933 58.9 43.4933 57.107C43.4933 55.402 44.6703 54.104 46.3093 54.104C48.0253 54.104 48.9493 55.38 48.9493 56.997V57.448H44.9673C45.0773 58.328 45.6163 58.856 46.3753 58.856C46.9693 58.856 47.4423 58.57 47.6183 58.009L48.9163 58.471C48.4983 59.527 47.5193 60.121 46.3643 60.121ZM46.2983 55.336C45.6823 55.336 45.2093 55.699 45.0223 56.403H47.4203C47.4093 55.831 47.0463 55.336 46.2983 55.336ZM49.2994 59.021L50.2564 58.042C50.6524 58.581 51.3564 58.922 52.0054 58.922C52.5224 58.922 52.9734 58.746 52.9734 58.328C52.9734 57.888 52.5444 57.833 51.6204 57.657C50.6854 57.47 49.6514 57.228 49.6514 55.985C49.6514 54.874 50.6304 54.104 52.0164 54.104C53.0394 54.104 53.9524 54.522 54.4034 55.105L53.5234 56.073C53.1384 55.578 52.5774 55.303 51.9724 55.303C51.4884 55.303 51.1694 55.512 51.1694 55.831C51.1694 56.205 51.5544 56.271 52.2694 56.414C53.2814 56.623 54.4804 56.854 54.4804 58.163C54.4804 59.373 53.3584 60.121 51.9724 60.121C50.9274 60.121 49.8274 59.736 49.2994 59.021ZM54.8101 59.021L55.7671 58.042C56.1631 58.581 56.8671 58.922 57.5161 58.922C58.0331 58.922 58.4841 58.746 58.4841 58.328C58.4841 57.888 58.0551 57.833 57.1311 57.657C56.1961 57.47 55.1621 57.228 55.1621 55.985C55.1621 54.874 56.1411 54.104 57.5271 54.104C58.5501 54.104 59.4631 54.522 59.9141 55.105L59.0341 56.073C58.6491 55.578 58.0881 55.303 57.4831 55.303C56.9991 55.303 56.6801 55.512 56.6801 55.831C56.6801 56.205 57.0651 56.271 57.7801 56.414C58.7921 56.623 59.9911 56.854 59.9911 58.163C59.9911 59.373 58.8691 60.121 57.4831 60.121C56.4381 60.121 55.3381 59.736 54.8101 59.021ZM63.1715 60V52.102H66.4275C68.1435 52.102 69.0565 52.85 69.0565 54.203C69.0565 55.149 68.4955 55.666 67.9565 55.897C68.7485 56.161 69.2985 56.832 69.2985 57.789C69.2985 59.175 68.2975 60 66.6255 60H63.1715ZM64.7225 55.314H66.2735C67.0765 55.314 67.5275 55.006 67.5275 54.379C67.5275 53.763 67.0765 53.444 66.2735 53.444H64.7225V55.314ZM64.7225 56.623V58.647H66.5155C67.3075 58.647 67.7365 58.24 67.7365 57.635C67.7365 57.041 67.3075 56.623 66.5155 56.623H64.7225ZM71.7686 60.099C70.6356 60.099 69.7996 59.417 69.7996 58.394C69.7996 57.239 70.7236 56.755 71.8896 56.546L73.3306 56.271V56.183C73.3306 55.688 73.0776 55.38 72.4396 55.38C71.8676 55.38 71.5706 55.633 71.4386 56.15L69.9756 55.875C70.2396 54.896 71.1196 54.104 72.4946 54.104C73.9576 54.104 74.8376 54.775 74.8376 56.117V58.482C74.8376 58.79 74.9696 58.889 75.3106 58.845V60C74.3316 60.143 73.7376 59.945 73.4846 59.461C73.1106 59.868 72.5276 60.099 71.7686 60.099ZM73.3306 57.943V57.349L72.1976 57.58C71.6916 57.679 71.3176 57.844 71.3176 58.306C71.3176 58.702 71.6146 58.933 72.0766 58.933C72.7256 58.933 73.3306 58.592 73.3306 57.943ZM76.179 60V54.214H77.719V54.808C78.038 54.434 78.566 54.104 79.303 54.104C80.513 54.104 81.25 54.929 81.25 56.183V60H79.71V56.623C79.71 55.974 79.446 55.512 78.786 55.512C78.247 55.512 77.719 55.897 77.719 56.656V60H76.179ZM84.0247 52.102V56.458L86.0487 54.214H87.8967L85.7737 56.414L88.0617 60H86.3017L84.7067 57.525L84.0247 58.229V60H82.4847V52.102H84.0247ZM88.4414 60V58.218H90.2454V59.967C90.2454 61.001 89.5304 61.617 88.4414 61.617V60.803C88.9474 60.77 89.2004 60.55 89.2004 60.077V60H88.4414ZM98.6646 57.129C98.6646 58.911 97.5646 60.121 95.9916 60.121C94.4186 60.121 93.3186 58.911 93.3186 57.129C93.3186 55.347 94.4186 54.137 95.9916 54.137C97.5646 54.137 98.6646 55.347 98.6646 57.129ZM94.3196 57.129C94.3196 58.438 94.9796 59.274 95.9916 59.274C97.0036 59.274 97.6636 58.438 97.6636 57.129C97.6636 55.809 97.0036 54.973 95.9916 54.973C94.9796 54.973 94.3196 55.809 94.3196 57.129ZM99.9236 60V54.247H100.914V55.028C101.244 54.555 101.816 54.137 102.63 54.137C103.851 54.137 104.544 54.984 104.544 56.205V60H103.554V56.469C103.554 55.666 103.213 55.061 102.355 55.061C101.64 55.061 100.914 55.611 100.914 56.568V60H99.9236ZM108.432 60.121C106.837 60.121 105.737 58.9 105.737 57.129C105.737 55.413 106.826 54.137 108.388 54.137C109.994 54.137 110.841 55.358 110.841 56.953V57.283H106.683C106.738 58.493 107.431 59.263 108.432 59.263C109.202 59.263 109.752 58.845 109.928 58.163L110.797 58.471C110.445 59.494 109.576 60.121 108.432 60.121ZM108.377 54.984C107.541 54.984 106.914 55.545 106.738 56.524H109.84C109.818 55.71 109.378 54.984 108.377 54.984ZM119.343 57.129C119.343 58.911 118.243 60.121 116.67 60.121C115.097 60.121 113.997 58.911 113.997 57.129C113.997 55.347 115.097 54.137 116.67 54.137C118.243 54.137 119.343 55.347 119.343 57.129ZM114.998 57.129C114.998 58.438 115.658 59.274 116.67 59.274C117.682 59.274 118.342 58.438 118.342 57.129C118.342 55.809 117.682 54.973 116.67 54.973C115.658 54.973 114.998 55.809 114.998 57.129ZM123.11 52.003V52.883C122.945 52.861 122.846 52.861 122.681 52.861C122.098 52.861 121.779 53.114 121.779 53.851V54.247H123.055V55.094H121.779V60H120.789V55.094H119.92V54.247H120.789V53.785C120.789 52.663 121.405 51.981 122.582 51.981C122.78 51.981 122.89 51.992 123.11 52.003ZM126.45 58.625V55.094H125.559V54.247H126.45V52.564H127.429V54.247H128.738V55.094H127.429V58.471C127.429 59.076 127.726 59.186 128.232 59.186C128.463 59.186 128.628 59.175 128.859 59.12V59.967C128.606 60.022 128.32 60.055 127.99 60.055C127.011 60.055 126.45 59.725 126.45 58.625ZM130.034 60V52.102H131.024V55.028C131.354 54.555 131.926 54.137 132.74 54.137C133.961 54.137 134.654 54.984 134.654 56.205V60H133.664V56.469C133.664 55.666 133.323 55.061 132.465 55.061C131.75 55.061 131.024 55.611 131.024 56.568V60H130.034ZM138.542 60.121C136.947 60.121 135.847 58.9 135.847 57.129C135.847 55.413 136.936 54.137 138.498 54.137C140.104 54.137 140.951 55.358 140.951 56.953V57.283H136.793C136.848 58.493 137.541 59.263 138.542 59.263C139.312 59.263 139.862 58.845 140.038 58.163L140.907 58.471C140.555 59.494 139.686 60.121 138.542 60.121ZM138.487 54.984C137.651 54.984 137.024 55.545 136.848 56.524H139.95C139.928 55.71 139.488 54.984 138.487 54.984ZM145.494 52.102V60H144.504V52.102H145.494ZM149.445 60.121C147.85 60.121 146.75 58.9 146.75 57.129C146.75 55.413 147.839 54.137 149.401 54.137C151.007 54.137 151.854 55.358 151.854 56.953V57.283H147.696C147.751 58.493 148.444 59.263 149.445 59.263C150.215 59.263 150.765 58.845 150.941 58.163L151.81 58.471C151.458 59.494 150.589 60.121 149.445 60.121ZM149.39 54.984C148.554 54.984 147.927 55.545 147.751 56.524H150.853C150.831 55.71 150.391 54.984 149.39 54.984ZM154.592 60.099C153.547 60.099 152.7 59.483 152.7 58.449C152.7 57.305 153.591 56.832 154.878 56.568L156.275 56.282V56.04C156.275 55.38 155.912 55.006 155.142 55.006C154.416 55.006 153.987 55.347 153.811 55.985L152.876 55.743C153.151 54.808 153.998 54.137 155.175 54.137C156.462 54.137 157.254 54.764 157.254 55.996V58.801C157.254 59.175 157.485 59.296 157.87 59.208V60C156.99 60.11 156.484 59.901 156.363 59.351C156.011 59.802 155.373 60.099 154.592 60.099ZM156.275 58.042V57.052L155.153 57.294C154.273 57.47 153.679 57.712 153.679 58.405C153.679 58.966 154.086 59.296 154.713 59.296C155.56 59.296 156.275 58.779 156.275 58.042ZM161.053 60.121C159.458 60.121 158.545 58.757 158.545 57.129C158.545 55.49 159.458 54.137 161.053 54.137C161.856 54.137 162.494 54.522 162.835 55.083V52.102H163.825V60H162.835V59.164C162.494 59.736 161.856 60.121 161.053 60.121ZM162.857 56.931C162.857 55.589 162.043 55.006 161.229 55.006C160.151 55.006 159.546 55.886 159.546 57.129C159.546 58.361 160.151 59.252 161.229 59.252C162.043 59.252 162.857 58.658 162.857 57.338V56.931ZM165.418 53.246V52.102H166.496V53.246H165.418ZM166.452 54.247V60H165.462V54.247H166.452ZM168.104 60V54.247H169.094V55.028C169.424 54.555 169.996 54.137 170.81 54.137C172.031 54.137 172.724 54.984 172.724 56.205V60H171.734V56.469C171.734 55.666 171.393 55.061 170.535 55.061C169.82 55.061 169.094 55.611 169.094 56.568V60H168.104ZM179.186 59.483C179.186 61.166 178.075 62.101 176.513 62.101C175.248 62.101 174.324 61.518 174.005 60.462L174.929 60.11C175.116 60.847 175.71 61.276 176.513 61.276C177.525 61.276 178.196 60.759 178.196 59.56V58.911C177.888 59.472 177.239 59.868 176.436 59.868C174.863 59.868 173.939 58.57 173.939 56.997C173.939 55.435 174.863 54.137 176.436 54.137C177.228 54.137 177.888 54.533 178.196 55.094V54.247H179.186V59.483ZM178.207 56.909C178.207 55.622 177.437 55.006 176.612 55.006C175.567 55.006 174.929 55.787 174.929 56.997C174.929 58.207 175.567 58.999 176.612 58.999C177.437 58.999 178.207 58.383 178.207 57.118V56.909ZM27.597 76.121C26.794 76.121 26.156 75.736 25.815 75.164V76H24.825V68.102H25.815V71.083C26.156 70.522 26.794 70.137 27.597 70.137C29.192 70.137 30.105 71.49 30.105 73.129C30.105 74.757 29.192 76.121 27.597 76.121ZM25.793 72.931V73.338C25.793 74.658 26.607 75.252 27.421 75.252C28.499 75.252 29.104 74.361 29.104 73.129C29.104 71.886 28.499 71.006 27.421 71.006C26.607 71.006 25.793 71.589 25.793 72.931ZM32.7973 76.099C31.7523 76.099 30.9053 75.483 30.9053 74.449C30.9053 73.305 31.7963 72.832 33.0833 72.568L34.4803 72.282V72.04C34.4803 71.38 34.1173 71.006 33.3473 71.006C32.6213 71.006 32.1923 71.347 32.0163 71.985L31.0813 71.743C31.3563 70.808 32.2033 70.137 33.3803 70.137C34.6673 70.137 35.4593 70.764 35.4593 71.996V74.801C35.4593 75.175 35.6903 75.296 36.0753 75.208V76C35.1953 76.11 34.6893 75.901 34.5683 75.351C34.2163 75.802 33.5783 76.099 32.7973 76.099ZM34.4803 74.042V73.052L33.3582 73.294C32.4783 73.47 31.8843 73.712 31.8843 74.405C31.8843 74.966 32.2913 75.296 32.9183 75.296C33.7652 75.296 34.4803 74.779 34.4803 74.042ZM37.1463 76V70.247H38.1363V71.028C38.4663 70.555 39.0383 70.137 39.8523 70.137C41.0733 70.137 41.7663 70.984 41.7663 72.205V76H40.7763V72.469C40.7763 71.666 40.4353 71.061 39.5773 71.061C38.8623 71.061 38.1363 71.611 38.1363 72.568V76H37.1463ZM44.3453 68.102V72.931L46.8973 70.247H48.1293L45.8853 72.513L48.3163 76H47.1613L45.1813 73.228L44.3453 74.075V76H43.3553V68.102H44.3453ZM48.5288 74.779L49.2988 74.218C49.6068 74.889 50.3108 75.296 51.0588 75.296C51.7298 75.296 52.3238 75.01 52.3238 74.383C52.3238 73.756 51.7738 73.668 50.8278 73.47C49.8818 73.261 48.8918 73.052 48.8918 71.875C48.8918 70.852 49.7828 70.137 51.0038 70.137C52.0378 70.137 52.8848 70.643 53.2258 71.325L52.5218 71.886C52.2248 71.314 51.6858 70.951 50.9598 70.951C50.2998 70.951 49.8598 71.281 49.8598 71.798C49.8598 72.337 50.3658 72.436 51.1688 72.612C52.1588 72.843 53.2918 73.041 53.2918 74.295C53.2918 75.395 52.2908 76.121 51.0588 76.121C50.0138 76.121 48.9688 75.67 48.5288 74.779ZM56.7927 69.246V68.102H57.8707V69.246H56.7927ZM57.8267 70.247V76H56.8367V70.247H57.8267ZM59.4793 76V70.247H60.4693V71.028C60.7993 70.555 61.3713 70.137 62.1853 70.137C63.4063 70.137 64.0993 70.984 64.0993 72.205V76H63.1093V72.469C63.1093 71.666 62.7683 71.061 61.9103 71.061C61.1953 71.061 60.4693 71.611 60.4693 72.568V76H59.4793ZM70.4066 68.102H71.5726L74.6196 76H73.5526L72.7496 73.921H69.2076L68.4156 76H67.3596L70.4066 68.102ZM70.9676 69.29L69.5596 72.997H72.3976L70.9676 69.29ZM78.0684 68.003V68.883C77.9034 68.861 77.8044 68.861 77.6394 68.861C77.0564 68.861 76.7374 69.114 76.7374 69.851V70.247H78.0134V71.094H76.7374V76H75.7474V71.094H74.8784V70.247H75.7474V69.785C75.7474 68.663 76.3634 67.981 77.5404 67.981C77.7384 67.981 77.8484 67.992 78.0684 68.003ZM81.9144 70.225V71.226C81.7494 71.193 81.6174 71.182 81.4304 71.182C80.5944 71.182 79.9234 71.842 79.9234 72.854V76H78.9334V70.247H79.9234V71.226C80.1764 70.643 80.7374 70.203 81.5184 70.203C81.6724 70.203 81.8154 70.214 81.9144 70.225ZM82.9607 69.246V68.102H84.0387V69.246H82.9607ZM83.9947 70.247V76H83.0047V70.247H83.9947ZM86.2413 73.129C86.2413 74.438 86.9453 75.252 87.9683 75.252C88.7603 75.252 89.2333 74.746 89.3983 74.031L90.2783 74.438C90.0033 75.395 89.1673 76.121 87.9683 76.121C86.3623 76.121 85.2513 74.9 85.2513 73.129C85.2513 71.347 86.3623 70.137 87.9683 70.137C89.1673 70.137 89.9813 70.83 90.2563 71.787L89.3983 72.216C89.2333 71.512 88.7603 70.995 87.9683 70.995C86.9453 70.995 86.2413 71.809 86.2413 73.129ZM92.8676 76.099C91.8226 76.099 90.9756 75.483 90.9756 74.449C90.9756 73.305 91.8666 72.832 93.1536 72.568L94.5506 72.282V72.04C94.5506 71.38 94.1876 71.006 93.4176 71.006C92.6916 71.006 92.2626 71.347 92.0866 71.985L91.1516 71.743C91.4266 70.808 92.2736 70.137 93.4506 70.137C94.7376 70.137 95.5296 70.764 95.5296 71.996V74.801C95.5296 75.175 95.7606 75.296 96.1456 75.208V76C95.2656 76.11 94.7596 75.901 94.6386 75.351C94.2866 75.802 93.6486 76.099 92.8676 76.099ZM94.5506 74.042V73.052L93.4286 73.294C92.5486 73.47 91.9546 73.712 91.9546 74.405C91.9546 74.966 92.3616 75.296 92.9886 75.296C93.8356 75.296 94.5506 74.779 94.5506 74.042ZM98.8989 74.779L99.6689 74.218C99.9769 74.889 100.681 75.296 101.429 75.296C102.1 75.296 102.694 75.01 102.694 74.383C102.694 73.756 102.144 73.668 101.198 73.47C100.252 73.261 99.2619 73.052 99.2619 71.875C99.2619 70.852 100.153 70.137 101.374 70.137C102.408 70.137 103.255 70.643 103.596 71.325L102.892 71.886C102.595 71.314 102.056 70.951 101.33 70.951C100.67 70.951 100.23 71.281 100.23 71.798C100.23 72.337 100.736 72.436 101.539 72.612C102.529 72.843 103.662 73.041 103.662 74.295C103.662 75.395 102.661 76.121 101.429 76.121C100.384 76.121 99.3389 75.67 98.8989 74.779ZM104.843 69.246V68.102H105.921V69.246H104.843ZM105.877 70.247V76H104.887V70.247H105.877ZM112.402 75.483C112.402 77.166 111.291 78.101 109.729 78.101C108.464 78.101 107.54 77.518 107.221 76.462L108.145 76.11C108.332 76.847 108.926 77.276 109.729 77.276C110.741 77.276 111.412 76.759 111.412 75.56V74.911C111.104 75.472 110.455 75.868 109.652 75.868C108.079 75.868 107.155 74.57 107.155 72.997C107.155 71.435 108.079 70.137 109.652 70.137C110.444 70.137 111.104 70.533 111.412 71.094V70.247H112.402V75.483ZM111.423 72.909C111.423 71.622 110.653 71.006 109.828 71.006C108.783 71.006 108.145 71.787 108.145 72.997C108.145 74.207 108.783 74.999 109.828 74.999C110.653 74.999 111.423 74.383 111.423 73.118V72.909ZM114.05 76V70.247H115.04V71.028C115.37 70.555 115.942 70.137 116.756 70.137C117.977 70.137 118.67 70.984 118.67 72.205V76H117.68V72.469C117.68 71.666 117.339 71.061 116.481 71.061C115.766 71.061 115.04 71.611 115.04 72.568V76H114.05ZM122.558 76.121C120.963 76.121 119.863 74.9 119.863 73.129C119.863 71.413 120.952 70.137 122.514 70.137C124.12 70.137 124.967 71.358 124.967 72.953V73.283H120.809C120.864 74.493 121.557 75.263 122.558 75.263C123.328 75.263 123.878 74.845 124.054 74.163L124.923 74.471C124.571 75.494 123.702 76.121 122.558 76.121ZM122.503 70.984C121.667 70.984 121.04 71.545 120.864 72.524H123.966C123.944 71.71 123.504 70.984 122.503 70.984ZM128.311 76.121C126.716 76.121 125.803 74.757 125.803 73.129C125.803 71.49 126.716 70.137 128.311 70.137C129.114 70.137 129.752 70.522 130.093 71.083V68.102H131.083V76H130.093V75.164C129.752 75.736 129.114 76.121 128.311 76.121ZM130.115 72.931C130.115 71.589 129.301 71.006 128.487 71.006C127.409 71.006 126.804 71.886 126.804 73.129C126.804 74.361 127.409 75.252 128.487 75.252C129.301 75.252 130.115 74.658 130.115 73.338V72.931ZM135.194 74.625V71.094H134.303V70.247H135.194V68.564H136.173V70.247H137.482V71.094H136.173V74.471C136.173 75.076 136.47 75.186 136.976 75.186C137.207 75.186 137.372 75.175 137.603 75.12V75.967C137.35 76.022 137.064 76.055 136.734 76.055C135.755 76.055 135.194 75.725 135.194 74.625ZM138.778 76V68.102H139.768V71.028C140.098 70.555 140.67 70.137 141.484 70.137C142.705 70.137 143.398 70.984 143.398 72.205V76H142.408V72.469C142.408 71.666 142.067 71.061 141.209 71.061C140.494 71.061 139.768 71.611 139.768 72.568V76H138.778ZM147.286 76.121C145.691 76.121 144.591 74.9 144.591 73.129C144.591 71.413 145.68 70.137 147.242 70.137C148.848 70.137 149.695 71.358 149.695 72.953V73.283H145.537C145.592 74.493 146.285 75.263 147.286 75.263C148.056 75.263 148.606 74.845 148.782 74.163L149.651 74.471C149.299 75.494 148.43 76.121 147.286 76.121ZM147.231 70.984C146.395 70.984 145.768 71.545 145.592 72.524H148.694C148.672 71.71 148.232 70.984 147.231 70.984ZM157.538 76H156.691L154.282 69.499V76H153.292V68.102H154.733L157.131 74.592L159.54 68.102H160.937V76H159.958V69.499L157.538 76ZM162.219 72.051C162.219 69.642 163.737 67.981 165.805 67.981C167.873 67.981 169.38 69.642 169.38 72.051C169.38 74.46 167.873 76.121 165.805 76.121C163.737 76.121 162.219 74.46 162.219 72.051ZM168.335 72.051C168.335 70.181 167.29 68.916 165.805 68.916C164.32 68.916 163.275 70.181 163.275 72.051C163.275 73.921 164.32 75.186 165.805 75.186C167.29 75.186 168.335 73.921 168.335 72.051ZM173.621 76.11C171.839 76.11 170.519 75.054 170.519 72.876V68.102H171.575V72.843C171.575 74.46 172.433 75.164 173.621 75.164C174.82 75.164 175.678 74.46 175.678 72.843V68.102H176.734V72.876C176.734 75.054 175.414 76.11 173.621 76.11ZM24.979 90.625V87.094H24.088V86.247H24.979V84.564H25.958V86.247H27.267V87.094H25.958V90.471C25.958 91.076 26.255 91.186 26.761 91.186C26.992 91.186 27.157 91.175 27.388 91.12V91.967C27.135 92.022 26.849 92.055 26.519 92.055C25.54 92.055 24.979 91.725 24.979 90.625ZM33.4811 89.129C33.4811 90.911 32.3811 92.121 30.8081 92.121C29.2351 92.121 28.1351 90.911 28.1351 89.129C28.1351 87.347 29.2351 86.137 30.8081 86.137C32.3811 86.137 33.4811 87.347 33.4811 89.129ZM29.1361 89.129C29.1361 90.438 29.7961 91.274 30.8081 91.274C31.8201 91.274 32.4801 90.438 32.4801 89.129C32.4801 87.809 31.8201 86.973 30.8081 86.973C29.7961 86.973 29.1361 87.809 29.1361 89.129ZM38.0504 84.102V92H37.0604V84.102H38.0504ZM41.1439 92.099C40.0989 92.099 39.2519 91.483 39.2519 90.449C39.2519 89.305 40.1429 88.832 41.4299 88.568L42.8269 88.282V88.04C42.8269 87.38 42.4639 87.006 41.6939 87.006C40.9679 87.006 40.5389 87.347 40.3629 87.985L39.4279 87.743C39.7029 86.808 40.5499 86.137 41.7269 86.137C43.0139 86.137 43.8059 86.764 43.8059 87.996V90.801C43.8059 91.175 44.0369 91.296 44.4219 91.208V92C43.5419 92.11 43.0359 91.901 42.9149 91.351C42.5629 91.802 41.9249 92.099 41.1439 92.099ZM42.8269 90.042V89.052L41.7049 89.294C40.8249 89.47 40.2309 89.712 40.2309 90.405C40.2309 90.966 40.6379 91.296 41.2649 91.296C42.1119 91.296 42.8269 90.779 42.8269 90.042ZM50.058 86.247V92H49.068V91.208C48.738 91.692 48.177 92.121 47.363 92.121C46.131 92.121 45.438 91.274 45.438 90.053V86.247H46.428V89.844C46.428 90.658 46.78 91.208 47.627 91.208C48.342 91.208 49.068 90.669 49.068 89.712V86.247H50.058ZM51.702 92V86.247H52.692V87.028C53.022 86.555 53.594 86.137 54.408 86.137C55.629 86.137 56.322 86.984 56.322 88.205V92H55.332V88.469C55.332 87.666 54.991 87.061 54.133 87.061C53.418 87.061 52.692 87.611 52.692 88.568V92H51.702ZM58.5049 89.129C58.5049 90.438 59.2089 91.252 60.2319 91.252C61.0239 91.252 61.4969 90.746 61.6619 90.031L62.5419 90.438C62.2669 91.395 61.4309 92.121 60.2319 92.121C58.6259 92.121 57.5149 90.9 57.5149 89.129C57.5149 87.347 58.6259 86.137 60.2319 86.137C61.4309 86.137 62.2449 86.83 62.5199 87.787L61.6619 88.216C61.4969 87.512 61.0239 86.995 60.2319 86.995C59.2089 86.995 58.5049 87.809 58.5049 89.129ZM63.6258 92V84.102H64.6158V87.028C64.9458 86.555 65.5178 86.137 66.3318 86.137C67.5528 86.137 68.2458 86.984 68.2458 88.205V92H67.2558V88.469C67.2558 87.666 66.9148 87.061 66.0568 87.061C65.3418 87.061 64.6158 87.611 64.6158 88.568V92H63.6258ZM72.1991 92V84.102H74.7071C77.1051 84.102 78.6231 85.642 78.6231 88.051C78.6231 90.46 77.1051 92 74.7071 92H72.1991ZM73.2331 91.087H74.7071C76.5001 91.087 77.5891 89.888 77.5891 88.051C77.5891 86.203 76.5001 85.015 74.6961 85.015H73.2331V91.087ZM85.0626 85.026H82.3896V92H81.3336V85.026H78.6606V84.102H85.0626V85.026ZM85.0167 90.372L85.8417 89.712C86.3367 90.658 87.2277 91.208 88.2507 91.208C89.2737 91.208 90.0657 90.702 90.0657 89.8C90.0657 88.843 89.1527 88.678 87.9537 88.392C86.7107 88.095 85.4787 87.754 85.4787 86.269C85.4787 84.883 86.6777 83.981 88.1737 83.981C89.5487 83.981 90.5387 84.641 91.0117 85.532L90.2087 86.17C89.8017 85.411 89.1747 84.894 88.1517 84.894C87.1947 84.894 86.5017 85.422 86.5017 86.181C86.5017 87.017 87.2387 87.193 88.3497 87.457C89.6587 87.765 91.0997 88.04 91.0997 89.712C91.0997 91.186 89.7907 92.121 88.2287 92.121C86.8647 92.121 85.5557 91.439 85.0167 90.372ZM91.9475 92V90.702H93.2015V92H91.9475Z" fill="white"/>
<rect x="12" y="55" width="4" height="4" fill="white"/>
<path d="M26.925 108.689V112H25.869V104.102H28.883C30.555 104.102 31.622 104.883 31.622 106.39C31.622 107.875 30.555 108.689 28.883 108.689H26.925ZM26.925 107.776H28.828C29.95 107.776 30.577 107.281 30.577 106.39C30.577 105.499 29.95 105.015 28.828 105.015H26.925V107.776ZM33.9369 112.099C32.8919 112.099 32.0449 111.483 32.0449 110.449C32.0449 109.305 32.9359 108.832 34.2229 108.568L35.6199 108.282V108.04C35.6199 107.38 35.2569 107.006 34.4869 107.006C33.7609 107.006 33.3319 107.347 33.1559 107.985L32.2209 107.743C32.4959 106.808 33.3429 106.137 34.5199 106.137C35.8069 106.137 36.5989 106.764 36.5989 107.996V110.801C36.5989 111.175 36.8299 111.296 37.2149 111.208V112C36.3349 112.11 35.8289 111.901 35.7079 111.351C35.3559 111.802 34.7179 112.099 33.9369 112.099ZM35.6199 110.042V109.052L34.4979 109.294C33.6179 109.47 33.0239 109.712 33.0239 110.405C33.0239 110.966 33.4309 111.296 34.0579 111.296C34.9049 111.296 35.6199 110.779 35.6199 110.042ZM41.2669 106.225V107.226C41.1019 107.193 40.9699 107.182 40.7829 107.182C39.9469 107.182 39.2759 107.842 39.2759 108.854V112H38.2859V106.247H39.2759V107.226C39.5289 106.643 40.0899 106.203 40.8709 106.203C41.0249 106.203 41.1679 106.214 41.2669 106.225ZM42.5757 110.625V107.094H41.6847V106.247H42.5757V104.564H43.5547V106.247H44.8637V107.094H43.5547V110.471C43.5547 111.076 43.8517 111.186 44.3577 111.186C44.5887 111.186 44.7537 111.175 44.9847 111.12V111.967C44.7317 112.022 44.4457 112.055 44.1157 112.055C43.1367 112.055 42.5757 111.725 42.5757 110.625ZM46.16 112V106.247H47.15V107.028C47.48 106.555 48.052 106.137 48.866 106.137C50.087 106.137 50.78 106.984 50.78 108.205V112H49.79V108.469C49.79 107.666 49.449 107.061 48.591 107.061C47.876 107.061 47.15 107.611 47.15 108.568V112H46.16ZM54.6679 112.121C53.0729 112.121 51.9729 110.9 51.9729 109.129C51.9729 107.413 53.0619 106.137 54.6239 106.137C56.2299 106.137 57.0769 107.358 57.0769 108.953V109.283H52.9189C52.9739 110.493 53.6669 111.263 54.6679 111.263C55.4379 111.263 55.9879 110.845 56.1639 110.163L57.0329 110.471C56.6809 111.494 55.8119 112.121 54.6679 112.121ZM54.6129 106.984C53.7769 106.984 53.1499 107.545 52.9739 108.524H56.0759C56.0539 107.71 55.6139 106.984 54.6129 106.984ZM61.2904 106.225V107.226C61.1254 107.193 60.9934 107.182 60.8064 107.182C59.9704 107.182 59.2994 107.842 59.2994 108.854V112H58.3094V106.247H59.2994V107.226C59.5524 106.643 60.1134 106.203 60.8944 106.203C61.0484 106.203 61.1914 106.214 61.2904 106.225ZM64.4433 112.121C62.8483 112.121 61.7483 110.9 61.7483 109.129C61.7483 107.413 62.8373 106.137 64.3993 106.137C66.0053 106.137 66.8523 107.358 66.8523 108.953V109.283H62.6943C62.7493 110.493 63.4423 111.263 64.4433 111.263C65.2133 111.263 65.7633 110.845 65.9393 110.163L66.8083 110.471C66.4563 111.494 65.5873 112.121 64.4433 112.121ZM64.3883 106.984C63.5523 106.984 62.9253 107.545 62.7493 108.524H65.8513C65.8293 107.71 65.3893 106.984 64.3883 106.984ZM70.1968 112.121C68.6018 112.121 67.6888 110.757 67.6888 109.129C67.6888 107.49 68.6018 106.137 70.1968 106.137C70.9998 106.137 71.6378 106.522 71.9788 107.083V104.102H72.9688V112H71.9788V111.164C71.6378 111.736 70.9998 112.121 70.1968 112.121ZM72.0008 108.931C72.0008 107.589 71.1868 107.006 70.3728 107.006C69.2948 107.006 68.6898 107.886 68.6898 109.129C68.6898 110.361 69.2948 111.252 70.3728 111.252C71.1868 111.252 72.0008 110.658 72.0008 109.338V108.931ZM79.6646 106.247H80.5006L81.6886 110.537L82.8876 106.247H83.8776L82.1286 112H81.2596L80.0606 107.732L78.8616 112H77.9926L76.2436 106.247H77.2666L78.4766 110.526L79.6646 106.247ZM84.7986 105.246V104.102H85.8766V105.246H84.7986ZM85.8326 106.247V112H84.8426V106.247H85.8326ZM87.6392 110.625V107.094H86.7482V106.247H87.6392V104.564H88.6182V106.247H89.9272V107.094H88.6182V110.471C88.6182 111.076 88.9152 111.186 89.4212 111.186C89.6522 111.186 89.8172 111.175 90.0482 111.12V111.967C89.7952 112.022 89.5092 112.055 89.1792 112.055C88.2002 112.055 87.6392 111.725 87.6392 110.625ZM91.2234 112V104.102H92.2134V107.028C92.5434 106.555 93.1154 106.137 93.9294 106.137C95.1504 106.137 95.8434 106.984 95.8434 108.205V112H94.8534V108.469C94.8534 107.666 94.5124 107.061 93.6544 107.061C92.9394 107.061 92.2134 107.611 92.2134 108.568V112H91.2234ZM102.756 112.11C100.809 112.11 99.4997 111.021 99.4997 108.843V104.102H101.128V108.788C101.128 110.119 101.777 110.691 102.756 110.691C103.746 110.691 104.395 110.119 104.395 108.788V104.102H106.012V108.843C106.012 111.021 104.703 112.11 102.756 112.11ZM107.225 112V106.214H108.765V106.808C109.084 106.434 109.612 106.104 110.349 106.104C111.559 106.104 112.296 106.929 112.296 108.183V112H110.756V108.623C110.756 107.974 110.492 107.512 109.832 107.512C109.293 107.512 108.765 107.897 108.765 108.656V112H107.225ZM113.509 105.532V104.102H115.082V105.532H113.509ZM115.071 106.214V112H113.531V106.214H115.071ZM119.194 104.014V105.279C119.051 105.268 118.963 105.268 118.798 105.268C118.314 105.268 118.061 105.411 118.061 105.983V106.214H119.183V107.501H118.061V112H116.521V107.501H115.74V106.214H116.521V105.895C116.521 104.674 117.181 103.992 118.6 103.992C118.82 103.992 118.952 103.992 119.194 104.014ZM119.868 105.532V104.102H121.441V105.532H119.868ZM121.43 106.214V112H119.89V106.214H121.43ZM125.224 112.121C123.519 112.121 122.353 110.9 122.353 109.107C122.353 107.402 123.53 106.104 125.169 106.104C126.885 106.104 127.809 107.38 127.809 108.997V109.448H123.827C123.937 110.328 124.476 110.856 125.235 110.856C125.829 110.856 126.302 110.57 126.478 110.009L127.776 110.471C127.358 111.527 126.379 112.121 125.224 112.121ZM125.158 107.336C124.542 107.336 124.069 107.699 123.882 108.403H126.28C126.269 107.831 125.906 107.336 125.158 107.336ZM130.898 112.121C129.303 112.121 128.379 110.757 128.379 109.107C128.379 107.468 129.303 106.104 130.898 106.104C131.624 106.104 132.174 106.39 132.515 106.808V104.102H134.055V112H132.515V111.406C132.174 111.835 131.624 112.121 130.898 112.121ZM132.548 108.953C132.548 107.963 131.998 107.424 131.261 107.424C130.392 107.424 129.93 108.117 129.93 109.107C129.93 110.108 130.392 110.801 131.261 110.801C131.998 110.801 132.548 110.251 132.548 109.272V108.953ZM139.222 109.096V112H137.605V104.102H140.839C142.654 104.102 143.787 104.96 143.787 106.599C143.787 108.227 142.654 109.096 140.839 109.096H139.222ZM139.222 107.721H140.751C141.697 107.721 142.181 107.303 142.181 106.599C142.181 105.884 141.697 105.477 140.751 105.477H139.222V107.721ZM145.955 112.099C144.822 112.099 143.986 111.417 143.986 110.394C143.986 109.239 144.91 108.755 146.076 108.546L147.517 108.271V108.183C147.517 107.688 147.264 107.38 146.626 107.38C146.054 107.38 145.757 107.633 145.625 108.15L144.162 107.875C144.426 106.896 145.306 106.104 146.681 106.104C148.144 106.104 149.024 106.775 149.024 108.117V110.482C149.024 110.79 149.156 110.889 149.497 110.845V112C148.518 112.143 147.924 111.945 147.671 111.461C147.297 111.868 146.714 112.099 145.955 112.099ZM147.517 109.943V109.349L146.384 109.58C145.878 109.679 145.504 109.844 145.504 110.306C145.504 110.702 145.801 110.933 146.263 110.933C146.912 110.933 147.517 110.592 147.517 109.943ZM153.02 112.33C152.646 113.353 152.118 114.013 150.842 114.013C150.545 114.013 150.435 114.002 150.237 113.98V112.737C150.402 112.748 150.501 112.759 150.677 112.759C151.084 112.759 151.304 112.649 151.469 112.231L151.656 111.769L149.577 106.214H151.172L152.481 110.02L153.757 106.214H155.308L153.02 112.33ZM157.502 108.656V112H155.962V106.214H157.502V106.808C157.81 106.434 158.327 106.104 159.075 106.104C159.779 106.104 160.318 106.401 160.637 106.896C160.989 106.533 161.539 106.104 162.43 106.104C163.618 106.104 164.388 106.929 164.388 108.183V112H162.848V108.623C162.848 107.974 162.606 107.512 161.968 107.512C161.462 107.512 160.945 107.897 160.945 108.656V112H159.405V108.623C159.405 107.974 159.163 107.512 158.525 107.512C158.019 107.512 157.502 107.897 157.502 108.656ZM168.16 112.121C166.455 112.121 165.289 110.9 165.289 109.107C165.289 107.402 166.466 106.104 168.105 106.104C169.821 106.104 170.745 107.38 170.745 108.997V109.448H166.763C166.873 110.328 167.412 110.856 168.171 110.856C168.765 110.856 169.238 110.57 169.414 110.009L170.712 110.471C170.294 111.527 169.315 112.121 168.16 112.121ZM168.094 107.336C167.478 107.336 167.005 107.699 166.818 108.403H169.216C169.205 107.831 168.842 107.336 168.094 107.336ZM171.657 112V106.214H173.197V106.808C173.516 106.434 174.044 106.104 174.781 106.104C175.991 106.104 176.728 106.929 176.728 108.183V112H175.188V108.623C175.188 107.974 174.924 107.512 174.264 107.512C173.725 107.512 173.197 107.897 173.197 108.656V112H171.657ZM178.116 110.493V107.501H177.346V106.214H178.116V104.564H179.634V106.214H180.811V107.501H179.634V110.174C179.634 110.669 179.909 110.735 180.36 110.735C180.58 110.735 180.69 110.724 180.888 110.702V111.978C180.613 112.033 180.283 112.066 179.898 112.066C178.732 112.066 178.116 111.681 178.116 110.493ZM181.236 111.021L182.193 110.042C182.589 110.581 183.293 110.922 183.942 110.922C184.459 110.922 184.91 110.746 184.91 110.328C184.91 109.888 184.481 109.833 183.557 109.657C182.622 109.47 181.588 109.228 181.588 107.985C181.588 106.874 182.567 106.104 183.953 106.104C184.976 106.104 185.889 106.522 186.34 107.105L185.46 108.073C185.075 107.578 184.514 107.303 183.909 107.303C183.425 107.303 183.106 107.512 183.106 107.831C183.106 108.205 183.491 108.271 184.206 108.414C185.218 108.623 186.417 108.854 186.417 110.163C186.417 111.373 185.295 112.121 183.909 112.121C182.864 112.121 181.764 111.736 181.236 111.021ZM28.333 120.003V120.883C28.168 120.861 28.069 120.861 27.904 120.861C27.321 120.861 27.002 121.114 27.002 121.851V122.247H28.278V123.094H27.002V128H26.012V123.094H25.143V122.247H26.012V121.785C26.012 120.663 26.628 119.981 27.805 119.981C28.003 119.981 28.113 119.992 28.333 120.003ZM34.1158 125.129C34.1158 126.911 33.0158 128.121 31.4428 128.121C29.8698 128.121 28.7698 126.911 28.7698 125.129C28.7698 123.347 29.8698 122.137 31.4428 122.137C33.0158 122.137 34.1158 123.347 34.1158 125.129ZM29.7708 125.129C29.7708 126.438 30.4308 127.274 31.4428 127.274C32.4548 127.274 33.1148 126.438 33.1148 125.129C33.1148 123.809 32.4548 122.973 31.4428 122.973C30.4308 122.973 29.7708 123.809 29.7708 125.129ZM38.3558 122.225V123.226C38.1908 123.193 38.0588 123.182 37.8718 123.182C37.0358 123.182 36.3648 123.842 36.3648 124.854V128H35.3748V122.247H36.3648V123.226C36.6178 122.643 37.1788 122.203 37.9598 122.203C38.1138 122.203 38.2568 122.214 38.3558 122.225ZM44.5384 128.121C43.7354 128.121 43.0974 127.736 42.7564 127.164V129.98H41.7664V122.247H42.7564V123.083C43.0974 122.522 43.7354 122.137 44.5384 122.137C46.1334 122.137 47.0464 123.49 47.0464 125.129C47.0464 126.757 46.1334 128.121 44.5384 128.121ZM42.7344 124.931V125.338C42.7344 126.658 43.5484 127.252 44.3624 127.252C45.4404 127.252 46.0454 126.361 46.0454 125.129C46.0454 123.886 45.4404 123.006 44.3624 123.006C43.5484 123.006 42.7344 123.589 42.7344 124.931ZM51.2787 122.225V123.226C51.1137 123.193 50.9817 123.182 50.7947 123.182C49.9587 123.182 49.2877 123.842 49.2877 124.854V128H48.2977V122.247H49.2877V123.226C49.5407 122.643 50.1017 122.203 50.8827 122.203C51.0367 122.203 51.1797 122.214 51.2787 122.225ZM57.0826 125.129C57.0826 126.911 55.9826 128.121 54.4096 128.121C52.8366 128.121 51.7366 126.911 51.7366 125.129C51.7366 123.347 52.8366 122.137 54.4096 122.137C55.9826 122.137 57.0826 123.347 57.0826 125.129ZM52.7376 125.129C52.7376 126.438 53.3976 127.274 54.4096 127.274C55.4216 127.274 56.0816 126.438 56.0816 125.129C56.0816 123.809 55.4216 122.973 54.4096 122.973C53.3976 122.973 52.7376 123.809 52.7376 125.129ZM58.9356 125.129C58.9356 126.438 59.6396 127.252 60.6626 127.252C61.4546 127.252 61.9276 126.746 62.0926 126.031L62.9726 126.438C62.6976 127.395 61.8616 128.121 60.6626 128.121C59.0566 128.121 57.9456 126.9 57.9456 125.129C57.9456 123.347 59.0566 122.137 60.6626 122.137C61.8616 122.137 62.6756 122.83 62.9506 123.787L62.0926 124.216C61.9276 123.512 61.4546 122.995 60.6626 122.995C59.6396 122.995 58.9356 123.809 58.9356 125.129ZM66.3554 128.121C64.7604 128.121 63.6604 126.9 63.6604 125.129C63.6604 123.413 64.7494 122.137 66.3114 122.137C67.9174 122.137 68.7644 123.358 68.7644 124.953V125.283H64.6064C64.6614 126.493 65.3544 127.263 66.3554 127.263C67.1254 127.263 67.6754 126.845 67.8514 126.163L68.7204 126.471C68.3684 127.494 67.4994 128.121 66.3554 128.121ZM66.3004 122.984C65.4644 122.984 64.8374 123.545 64.6614 124.524H67.7634C67.7414 123.71 67.3014 122.984 66.3004 122.984ZM69.3589 126.779L70.1289 126.218C70.4369 126.889 71.1409 127.296 71.8889 127.296C72.5599 127.296 73.1539 127.01 73.1539 126.383C73.1539 125.756 72.6039 125.668 71.6579 125.47C70.7119 125.261 69.7219 125.052 69.7219 123.875C69.7219 122.852 70.6129 122.137 71.8339 122.137C72.8679 122.137 73.7149 122.643 74.0559 123.325L73.3519 123.886C73.0549 123.314 72.5159 122.951 71.7899 122.951C71.1299 122.951 70.6899 123.281 70.6899 123.798C70.6899 124.337 71.1959 124.436 71.9989 124.612C72.9889 124.843 74.1219 125.041 74.1219 126.295C74.1219 127.395 73.1209 128.121 71.8889 128.121C70.8439 128.121 69.7989 127.67 69.3589 126.779ZM74.7085 126.779L75.4785 126.218C75.7865 126.889 76.4905 127.296 77.2385 127.296C77.9095 127.296 78.5035 127.01 78.5035 126.383C78.5035 125.756 77.9535 125.668 77.0075 125.47C76.0615 125.261 75.0715 125.052 75.0715 123.875C75.0715 122.852 75.9625 122.137 77.1835 122.137C78.2175 122.137 79.0645 122.643 79.4055 123.325L78.7015 123.886C78.4045 123.314 77.8655 122.951 77.1395 122.951C76.4795 122.951 76.0395 123.281 76.0395 123.798C76.0395 124.337 76.5455 124.436 77.3485 124.612C78.3385 124.843 79.4715 125.041 79.4715 126.295C79.4715 127.395 78.4705 128.121 77.2385 128.121C76.1935 128.121 75.1485 127.67 74.7085 126.779ZM80.6521 121.246V120.102H81.7301V121.246H80.6521ZM81.6861 122.247V128H80.6961V122.247H81.6861ZM83.3387 128V122.247H84.3287V123.028C84.6587 122.555 85.2307 122.137 86.0447 122.137C87.2657 122.137 87.9587 122.984 87.9587 124.205V128H86.9687V124.469C86.9687 123.666 86.6277 123.061 85.7697 123.061C85.0547 123.061 84.3287 123.611 84.3287 124.568V128H83.3387ZM94.4207 127.483C94.4207 129.166 93.3097 130.101 91.7477 130.101C90.4827 130.101 89.5587 129.518 89.2397 128.462L90.1637 128.11C90.3507 128.847 90.9447 129.276 91.7477 129.276C92.7597 129.276 93.4307 128.759 93.4307 127.56V126.911C93.1227 127.472 92.4737 127.868 91.6707 127.868C90.0977 127.868 89.1737 126.57 89.1737 124.997C89.1737 123.435 90.0977 122.137 91.6707 122.137C92.4627 122.137 93.1227 122.533 93.4307 123.094V122.247H94.4207V127.483ZM93.4417 124.909C93.4417 123.622 92.6717 123.006 91.8467 123.006C90.8017 123.006 90.1637 123.787 90.1637 124.997C90.1637 126.207 90.8017 126.999 91.8467 126.999C92.6717 126.999 93.4417 126.383 93.4417 125.118V124.909ZM98.4325 128V120.102H100.94C103.338 120.102 104.856 121.642 104.856 124.051C104.856 126.46 103.338 128 100.94 128H98.4325ZM99.4665 127.087H100.94C102.733 127.087 103.822 125.888 103.822 124.051C103.822 122.203 102.733 121.015 100.929 121.015H99.4665V127.087ZM111.296 121.026H108.623V128H107.567V121.026H104.894V120.102H111.296V121.026ZM111.25 126.372L112.075 125.712C112.57 126.658 113.461 127.208 114.484 127.208C115.507 127.208 116.299 126.702 116.299 125.8C116.299 124.843 115.386 124.678 114.187 124.392C112.944 124.095 111.712 123.754 111.712 122.269C111.712 120.883 112.911 119.981 114.407 119.981C115.782 119.981 116.772 120.641 117.245 121.532L116.442 122.17C116.035 121.411 115.408 120.894 114.385 120.894C113.428 120.894 112.735 121.422 112.735 122.181C112.735 123.017 113.472 123.193 114.583 123.457C115.892 123.765 117.333 124.04 117.333 125.712C117.333 127.186 116.024 128.121 114.462 128.121C113.098 128.121 111.789 127.439 111.25 126.372ZM121.401 125.129C121.401 126.438 122.105 127.252 123.128 127.252C123.92 127.252 124.393 126.746 124.558 126.031L125.438 126.438C125.163 127.395 124.327 128.121 123.128 128.121C121.522 128.121 120.411 126.9 120.411 125.129C120.411 123.347 121.522 122.137 123.128 122.137C124.327 122.137 125.141 122.83 125.416 123.787L124.558 124.216C124.393 123.512 123.92 122.995 123.128 122.995C122.105 122.995 121.401 123.809 121.401 125.129ZM128.028 128.099C126.983 128.099 126.136 127.483 126.136 126.449C126.136 125.305 127.027 124.832 128.314 124.568L129.711 124.282V124.04C129.711 123.38 129.348 123.006 128.578 123.006C127.852 123.006 127.423 123.347 127.247 123.985L126.312 123.743C126.587 122.808 127.434 122.137 128.611 122.137C129.898 122.137 130.69 122.764 130.69 123.996V126.801C130.69 127.175 130.921 127.296 131.306 127.208V128C130.426 128.11 129.92 127.901 129.799 127.351C129.447 127.802 128.809 128.099 128.028 128.099ZM129.711 126.042V125.052L128.589 125.294C127.709 125.47 127.115 125.712 127.115 126.405C127.115 126.966 127.522 127.296 128.149 127.296C128.996 127.296 129.711 126.779 129.711 126.042ZM135.358 122.225V123.226C135.193 123.193 135.061 123.182 134.874 123.182C134.038 123.182 133.367 123.842 133.367 124.854V128H132.377V122.247H133.367V123.226C133.62 122.643 134.181 122.203 134.962 122.203C135.116 122.203 135.259 122.214 135.358 122.225ZM138.367 128.121C136.772 128.121 135.859 126.757 135.859 125.129C135.859 123.49 136.772 122.137 138.367 122.137C139.17 122.137 139.808 122.522 140.149 123.083V120.102H141.139V128H140.149V127.164C139.808 127.736 139.17 128.121 138.367 128.121ZM140.171 124.931C140.171 123.589 139.357 123.006 138.543 123.006C137.465 123.006 136.86 123.886 136.86 125.129C136.86 126.361 137.465 127.252 138.543 127.252C139.357 127.252 140.171 126.658 140.171 125.338V124.931ZM142.137 126.779L142.907 126.218C143.215 126.889 143.919 127.296 144.667 127.296C145.338 127.296 145.932 127.01 145.932 126.383C145.932 125.756 145.382 125.668 144.436 125.47C143.49 125.261 142.5 125.052 142.5 123.875C142.5 122.852 143.391 122.137 144.612 122.137C145.646 122.137 146.493 122.643 146.834 123.325L146.13 123.886C145.833 123.314 145.294 122.951 144.568 122.951C143.908 122.951 143.468 123.281 143.468 123.798C143.468 124.337 143.974 124.436 144.777 124.612C145.767 124.843 146.9 125.041 146.9 126.295C146.9 127.395 145.899 128.121 144.667 128.121C143.622 128.121 142.577 127.67 142.137 126.779Z" fill="white"/>
<rect x="12" y="107" width="4" height="4" fill="white"/>
<rect x="83.5" y="4.5" width="39" height="39" rx="19.5" fill="white"/>
<rect x="83.5" y="4.5" width="39" height="39" rx="19.5" stroke="#FE638C"/>
<mask id="path-8-inside-1_3183_28848" fill="white">
<path d="M115.975 24.2258L113.131 16.2625C113.096 16.1632 113.025 16.0826 112.935 16.038C112.845 15.9934 112.742 15.9882 112.649 16.0236L109.652 17.1692C109.604 17.1877 109.56 17.2164 109.523 17.2535C109.485 17.2906 109.455 17.3355 109.434 17.3854C109.413 17.4353 109.401 17.4892 109.4 17.544C109.398 17.5987 109.407 17.6532 109.426 17.7042L109.687 18.4117L107.642 19.4523L104.286 18.7769C103.96 18.7114 103.624 18.7189 103.3 18.7989C102.976 18.8789 102.671 19.0296 102.403 19.2417L101.804 19.7184L101.407 19.412C101.107 19.182 100.762 19.0282 100.399 18.9622C100.035 18.8961 99.6625 18.9197 99.3088 19.0311L98.021 19.442L96.334 18.3611L96.5762 17.7048C96.5949 17.6538 96.6039 17.5993 96.6026 17.5445C96.6013 17.4897 96.5897 17.4358 96.5686 17.3859C96.5475 17.336 96.5172 17.2912 96.4796 17.2541C96.442 17.2169 96.3979 17.1883 96.3498 17.1698L93.3516 16.0236C93.2579 15.9879 93.1548 15.9929 93.0645 16.0375C92.9741 16.0822 92.9037 16.1629 92.8682 16.2625L90.0254 24.2258C89.9902 24.3239 89.9916 24.4327 90.0295 24.5297C90.0673 24.6266 90.1386 24.7042 90.2285 24.7461L93.0723 26.0594C93.1192 26.081 93.1696 26.0924 93.2206 26.0928C93.2717 26.0932 93.3222 26.0826 93.3694 26.0616C93.4165 26.0407 93.4592 26.0098 93.495 25.9708C93.5308 25.9318 93.5588 25.8855 93.5776 25.8346L93.864 25.058L96.2213 26.4817C96.0624 26.7289 95.9893 27.0278 96.0145 27.3267C96.0397 27.6256 96.1617 27.9056 96.3594 28.1182C96.4706 28.2374 96.6027 28.3319 96.748 28.3963C96.8934 28.4606 97.0492 28.4936 97.2064 28.4932H97.2364C97.2631 28.8125 97.4004 29.1095 97.6213 29.3257C97.8422 29.5419 98.1306 29.6616 98.4298 29.6611H98.4607C98.4849 29.9612 98.6072 30.2424 98.8061 30.4552C98.9172 30.5744 99.0493 30.6689 99.1947 30.7332C99.34 30.7976 99.4958 30.8305 99.6531 30.8302H99.6831C99.7032 31.0734 99.7877 31.3054 99.9266 31.499C100.066 31.6926 100.253 31.8397 100.467 31.923C100.681 32.0063 100.913 32.0224 101.136 31.9694C101.358 31.9164 101.562 31.7964 101.723 31.6237L102.175 31.1393L102.788 31.6291C103.047 31.8363 103.368 31.9361 103.691 31.9101C104.013 31.8841 104.316 31.7341 104.544 31.4876L104.587 31.4408C104.779 31.2305 104.907 30.9621 104.953 30.6718C105.182 30.7411 105.424 30.7438 105.654 30.6797C105.885 30.6155 106.095 30.4867 106.264 30.3066L106.295 30.2729C106.509 30.0443 106.644 29.7448 106.678 29.4233C106.909 29.497 107.154 29.5023 107.388 29.4386C107.621 29.3748 107.834 29.2445 108.004 29.0614L108.025 29.0385C108.234 28.8172 108.367 28.5279 108.405 28.2162C108.611 28.2687 108.825 28.2684 109.031 28.2151C109.236 28.1619 109.427 28.0573 109.587 27.9098C109.748 27.7624 109.873 27.5764 109.954 27.3669C110.034 27.1575 110.067 26.9306 110.05 26.7048C110.043 26.6173 110.029 26.5306 110.008 26.4458L112.222 25.2844L112.425 25.833C112.443 25.8839 112.471 25.9303 112.507 25.9694C112.543 26.0085 112.586 26.0395 112.633 26.0605C112.68 26.0814 112.731 26.092 112.782 26.0915C112.833 26.0911 112.883 26.0796 112.93 26.0577L115.774 24.7445C115.863 24.7021 115.933 24.6247 115.971 24.5282C116.008 24.4317 116.01 24.3234 115.975 24.2258ZM93.0129 25.1434L90.8674 24.1518L93.4456 16.927L94.0778 17.1681L92.859 20.8809C92.8254 20.9831 92.831 21.0955 92.8746 21.1932C92.9182 21.291 92.9963 21.3662 93.0916 21.4023C93.187 21.4384 93.2918 21.4324 93.383 21.3857C93.4743 21.3389 93.5444 21.2552 93.5781 21.1531L94.7938 17.4441L95.7206 17.7984L93.0129 25.1434ZM97.5157 27.5408C97.4335 27.6254 97.3236 27.6721 97.2096 27.671C97.0956 27.6699 96.9866 27.621 96.9058 27.5348C96.825 27.4486 96.779 27.3319 96.7774 27.2097C96.7759 27.0876 96.8191 26.9696 96.8977 26.8812L97.7102 26.0104C97.7713 25.9451 97.8491 25.9007 97.9337 25.8828C98.0183 25.8649 98.106 25.8742 98.1856 25.9096C98.2653 25.945 98.3334 26.0048 98.3814 26.0817C98.4294 26.1585 98.455 26.2488 98.4552 26.3413C98.4554 26.4027 98.4441 26.4635 98.4222 26.5202C98.4002 26.577 98.3679 26.6284 98.3272 26.6716L97.5157 27.5408ZM98.8066 28.638C98.7837 28.6619 98.7634 28.6875 98.7431 28.7131L98.739 28.7082C98.6989 28.7532 98.6508 28.7892 98.5975 28.814C98.5442 28.8389 98.4868 28.852 98.4287 28.8527C98.3706 28.8535 98.3129 28.8418 98.2591 28.8183C98.2053 28.7948 98.1564 28.76 98.1152 28.716C98.0741 28.672 98.0417 28.6196 98.0197 28.5619C97.9977 28.5043 97.9868 28.4425 97.9874 28.3802C97.988 28.3179 98.0003 28.2564 98.0234 28.1993C98.0465 28.1421 98.08 28.0905 98.122 28.0475L98.8675 27.2491C98.8898 27.2251 98.9112 27.2001 98.9315 27.1745L98.935 27.1783C99.0174 27.0939 99.1273 27.0473 99.2413 27.0487C99.3553 27.05 99.4643 27.0991 99.5449 27.1854C99.6255 27.2718 99.6714 27.3885 99.6728 27.5107C99.6741 27.6328 99.6308 27.7507 99.552 27.839L98.8066 28.638ZM99.9603 29.8745C99.8773 29.9544 99.7689 29.9971 99.6573 29.9939C99.5458 29.9908 99.4397 29.9419 99.3607 29.8575C99.2817 29.773 99.236 29.6593 99.2329 29.5398C99.2297 29.4202 99.2694 29.304 99.3438 29.2149L100.156 28.3441C100.196 28.2962 100.244 28.2575 100.298 28.2304C100.352 28.2033 100.41 28.1882 100.47 28.1862C100.529 28.1842 100.588 28.1953 100.644 28.2188C100.699 28.2423 100.75 28.2777 100.792 28.3228C100.834 28.3679 100.867 28.4218 100.889 28.4811C100.911 28.5404 100.921 28.6039 100.919 28.6677C100.918 28.7315 100.904 28.7942 100.878 28.852C100.853 28.9098 100.817 28.9614 100.772 29.0037L99.9603 29.8745ZM101.996 30.1716L101.183 31.0424C101.101 31.1269 100.991 31.1734 100.877 31.1721C100.763 31.1707 100.654 31.1216 100.573 31.0353C100.493 30.949 100.447 30.8322 100.445 30.7101C100.444 30.5879 100.487 30.47 100.566 30.3817L101.312 29.5833C101.334 29.5594 101.355 29.5343 101.376 29.5087L101.379 29.5126C101.462 29.4281 101.571 29.3816 101.685 29.3829C101.799 29.3842 101.908 29.4333 101.989 29.5197C102.07 29.606 102.116 29.7227 102.117 29.8449C102.118 29.9671 102.075 30.0849 101.996 30.1733L101.996 30.1716ZM109.123 27.2545C109.022 27.3642 108.886 27.429 108.742 27.436C108.598 27.4429 108.457 27.3915 108.347 27.2921L108.05 27.027C108.03 26.9947 108.005 26.9657 107.976 26.941L107.291 26.3511C107.212 26.2875 107.113 26.2593 107.015 26.2723C106.917 26.2854 106.828 26.3388 106.766 26.4212C106.704 26.5036 106.674 26.6085 106.683 26.714C106.692 26.8194 106.739 26.917 106.813 26.9862L107.404 27.4972C107.421 27.5216 107.44 27.544 107.46 27.5642C107.519 27.6199 107.566 27.6879 107.6 27.764C107.633 27.8401 107.651 27.9227 107.654 28.0068C107.656 28.0908 107.642 28.1744 107.614 28.2525C107.585 28.3307 107.541 28.4016 107.486 28.4611L107.464 28.4839C107.368 28.5876 107.24 28.6511 107.104 28.6631C106.968 28.6751 106.833 28.6347 106.722 28.5492L106.133 28.0975L106.127 28.0926L105.905 27.9223C105.823 27.8593 105.721 27.8338 105.621 27.8515C105.521 27.8693 105.432 27.9287 105.373 28.0167C105.315 28.1048 105.291 28.2142 105.307 28.321C105.324 28.4278 105.379 28.5233 105.461 28.5863L105.688 28.7599C105.755 28.8124 105.811 28.8798 105.852 28.9577C105.892 29.0355 105.916 29.1218 105.923 29.2107C105.929 29.2996 105.918 29.3889 105.889 29.4725C105.86 29.556 105.814 29.6319 105.756 29.6949L105.724 29.7286C105.62 29.8395 105.481 29.904 105.335 29.909C105.188 29.9139 105.046 29.859 104.936 29.7553L104.301 29.1566C104.265 29.1161 104.221 29.0841 104.172 29.0626C104.124 29.0411 104.071 29.0307 104.019 29.0318C103.966 29.033 103.915 29.0458 103.867 29.0695C103.819 29.0931 103.777 29.127 103.742 29.1692C103.707 29.2113 103.681 29.2607 103.665 29.3142C103.648 29.3678 103.643 29.4244 103.648 29.4804C103.653 29.5364 103.669 29.5907 103.695 29.6397C103.721 29.6888 103.755 29.7317 103.797 29.7656L104.013 29.9703C104.072 30.0257 104.12 30.0934 104.153 30.1692C104.187 30.245 104.205 30.3274 104.208 30.4112C104.211 30.4951 104.198 30.5787 104.169 30.6569C104.141 30.7351 104.098 30.8063 104.043 30.8661L104 30.9129C103.902 31.019 103.771 31.0836 103.633 31.0948C103.494 31.106 103.356 31.0631 103.244 30.9738L102.695 30.5352C102.811 30.3412 102.876 30.1173 102.884 29.887C102.891 29.6568 102.841 29.4287 102.737 29.2266C102.634 29.0245 102.482 28.8559 102.297 28.7384C102.112 28.621 101.901 28.559 101.686 28.559H101.656C101.63 28.2398 101.492 27.9429 101.272 27.7266C101.051 27.5104 100.763 27.3905 100.464 27.3906H100.433C100.405 27.0667 100.263 26.7662 100.036 26.5503C99.8093 26.3343 99.5142 26.2191 99.2108 26.2281C99.1869 25.928 99.0643 25.6468 98.865 25.4346C98.6402 25.1941 98.3355 25.059 98.0179 25.059C97.7003 25.059 97.3957 25.1941 97.1709 25.4346L96.7611 25.8732L94.1458 24.2949L96.0491 19.1334L97.7727 20.2376C97.818 20.2667 97.8685 20.2854 97.921 20.2924C97.9734 20.2994 98.0267 20.2947 98.0773 20.2785L99.5256 19.8164C99.7676 19.74 100.023 19.7237 100.271 19.7687C100.52 19.8136 100.756 19.9187 100.961 20.076L101.161 20.2306L99.1255 21.8497C98.9744 21.9699 98.8516 22.1261 98.7666 22.306C98.6817 22.4859 98.637 22.6846 98.6361 22.8862C98.6352 23.0878 98.6781 23.2869 98.7615 23.4676C98.8449 23.6484 98.9663 23.8059 99.1163 23.9276C99.3992 24.1552 99.7397 24.2859 100.093 24.3025C100.447 24.3191 100.796 24.2209 101.097 24.0206L102.695 22.9425C102.881 23.3398 103.229 23.8797 103.832 24.2122C104.531 24.5975 105.381 24.6073 106.361 24.2416L109.053 26.319C109.12 26.3713 109.177 26.4387 109.218 26.5166C109.258 26.5945 109.283 26.681 109.29 26.7701C109.297 26.8592 109.285 26.9488 109.256 27.0327C109.228 27.1166 109.182 27.1929 109.123 27.2561V27.2545ZM109.613 25.7437L106.643 23.4525C106.591 23.4128 106.531 23.3875 106.468 23.379C106.405 23.3704 106.341 23.3788 106.282 23.4035C105.434 23.7561 104.73 23.7844 104.187 23.49C103.469 23.0987 103.249 22.2432 103.247 22.2383C103.233 22.176 103.204 22.1184 103.165 22.07C103.125 22.0217 103.076 21.9841 103.02 21.9602C102.964 21.9364 102.904 21.9269 102.844 21.9327C102.785 21.9384 102.727 21.9592 102.676 21.9934L100.692 23.3273C100.522 23.4402 100.325 23.4955 100.125 23.4857C99.9257 23.476 99.7337 23.4018 99.5744 23.2729C99.5187 23.2278 99.4736 23.1694 99.4426 23.1023C99.4116 23.0353 99.3957 22.9614 99.396 22.8866C99.3964 22.8118 99.413 22.7381 99.4446 22.6714C99.4762 22.6046 99.5218 22.5467 99.5779 22.5022L102.855 19.8953C103.038 19.7503 103.247 19.6472 103.469 19.5925C103.69 19.5378 103.92 19.5327 104.144 19.5775L107.621 20.2774C107.7 20.2936 107.782 20.2824 107.855 20.2453L109.965 19.1709L111.939 24.5241L109.613 25.7437ZM112.987 25.1418L110.278 17.7946L111.205 17.4403L112.421 21.1492C112.454 21.2514 112.524 21.3351 112.616 21.3819C112.707 21.4286 112.812 21.4346 112.907 21.3985C113.002 21.3624 113.08 21.2872 113.124 21.1894C113.168 21.0917 113.173 20.9793 113.14 20.8771L111.921 17.1643L112.553 16.9232L115.131 24.148L112.987 25.1418Z"/>
</mask>
<path d="M115.975 24.2258L113.131 16.2625C113.096 16.1632 113.025 16.0826 112.935 16.038C112.845 15.9934 112.742 15.9882 112.649 16.0236L109.652 17.1692C109.604 17.1877 109.56 17.2164 109.523 17.2535C109.485 17.2906 109.455 17.3355 109.434 17.3854C109.413 17.4353 109.401 17.4892 109.4 17.544C109.398 17.5987 109.407 17.6532 109.426 17.7042L109.687 18.4117L107.642 19.4523L104.286 18.7769C103.96 18.7114 103.624 18.7189 103.3 18.7989C102.976 18.8789 102.671 19.0296 102.403 19.2417L101.804 19.7184L101.407 19.412C101.107 19.182 100.762 19.0282 100.399 18.9622C100.035 18.8961 99.6625 18.9197 99.3088 19.0311L98.021 19.442L96.334 18.3611L96.5762 17.7048C96.5949 17.6538 96.6039 17.5993 96.6026 17.5445C96.6013 17.4897 96.5897 17.4358 96.5686 17.3859C96.5475 17.336 96.5172 17.2912 96.4796 17.2541C96.442 17.2169 96.3979 17.1883 96.3498 17.1698L93.3516 16.0236C93.2579 15.9879 93.1548 15.9929 93.0645 16.0375C92.9741 16.0822 92.9037 16.1629 92.8682 16.2625L90.0254 24.2258C89.9902 24.3239 89.9916 24.4327 90.0295 24.5297C90.0673 24.6266 90.1386 24.7042 90.2285 24.7461L93.0723 26.0594C93.1192 26.081 93.1696 26.0924 93.2206 26.0928C93.2717 26.0932 93.3222 26.0826 93.3694 26.0616C93.4165 26.0407 93.4592 26.0098 93.495 25.9708C93.5308 25.9318 93.5588 25.8855 93.5776 25.8346L93.864 25.058L96.2213 26.4817C96.0624 26.7289 95.9893 27.0278 96.0145 27.3267C96.0397 27.6256 96.1617 27.9056 96.3594 28.1182C96.4706 28.2374 96.6027 28.3319 96.748 28.3963C96.8934 28.4606 97.0492 28.4936 97.2064 28.4932H97.2364C97.2631 28.8125 97.4004 29.1095 97.6213 29.3257C97.8422 29.5419 98.1306 29.6616 98.4298 29.6611H98.4607C98.4849 29.9612 98.6072 30.2424 98.8061 30.4552C98.9172 30.5744 99.0493 30.6689 99.1947 30.7332C99.34 30.7976 99.4958 30.8305 99.6531 30.8302H99.6831C99.7032 31.0734 99.7877 31.3054 99.9266 31.499C100.066 31.6926 100.253 31.8397 100.467 31.923C100.681 32.0063 100.913 32.0224 101.136 31.9694C101.358 31.9164 101.562 31.7964 101.723 31.6237L102.175 31.1393L102.788 31.6291C103.047 31.8363 103.368 31.9361 103.691 31.9101C104.013 31.8841 104.316 31.7341 104.544 31.4876L104.587 31.4408C104.779 31.2305 104.907 30.9621 104.953 30.6718C105.182 30.7411 105.424 30.7438 105.654 30.6797C105.885 30.6155 106.095 30.4867 106.264 30.3066L106.295 30.2729C106.509 30.0443 106.644 29.7448 106.678 29.4233C106.909 29.497 107.154 29.5023 107.388 29.4386C107.621 29.3748 107.834 29.2445 108.004 29.0614L108.025 29.0385C108.234 28.8172 108.367 28.5279 108.405 28.2162C108.611 28.2687 108.825 28.2684 109.031 28.2151C109.236 28.1619 109.427 28.0573 109.587 27.9098C109.748 27.7624 109.873 27.5764 109.954 27.3669C110.034 27.1575 110.067 26.9306 110.05 26.7048C110.043 26.6173 110.029 26.5306 110.008 26.4458L112.222 25.2844L112.425 25.833C112.443 25.8839 112.471 25.9303 112.507 25.9694C112.543 26.0085 112.586 26.0395 112.633 26.0605C112.68 26.0814 112.731 26.092 112.782 26.0915C112.833 26.0911 112.883 26.0796 112.93 26.0577L115.774 24.7445C115.863 24.7021 115.933 24.6247 115.971 24.5282C116.008 24.4317 116.01 24.3234 115.975 24.2258ZM93.0129 25.1434L90.8674 24.1518L93.4456 16.927L94.0778 17.1681L92.859 20.8809C92.8254 20.9831 92.831 21.0955 92.8746 21.1932C92.9182 21.291 92.9963 21.3662 93.0916 21.4023C93.187 21.4384 93.2918 21.4324 93.383 21.3857C93.4743 21.3389 93.5444 21.2552 93.5781 21.1531L94.7938 17.4441L95.7206 17.7984L93.0129 25.1434ZM97.5157 27.5408C97.4335 27.6254 97.3236 27.6721 97.2096 27.671C97.0956 27.6699 96.9866 27.621 96.9058 27.5348C96.825 27.4486 96.779 27.3319 96.7774 27.2097C96.7759 27.0876 96.8191 26.9696 96.8977 26.8812L97.7102 26.0104C97.7713 25.9451 97.8491 25.9007 97.9337 25.8828C98.0183 25.8649 98.106 25.8742 98.1856 25.9096C98.2653 25.945 98.3334 26.0048 98.3814 26.0817C98.4294 26.1585 98.455 26.2488 98.4552 26.3413C98.4554 26.4027 98.4441 26.4635 98.4222 26.5202C98.4002 26.577 98.3679 26.6284 98.3272 26.6716L97.5157 27.5408ZM98.8066 28.638C98.7837 28.6619 98.7634 28.6875 98.7431 28.7131L98.739 28.7082C98.6989 28.7532 98.6508 28.7892 98.5975 28.814C98.5442 28.8389 98.4868 28.852 98.4287 28.8527C98.3706 28.8535 98.3129 28.8418 98.2591 28.8183C98.2053 28.7948 98.1564 28.76 98.1152 28.716C98.0741 28.672 98.0417 28.6196 98.0197 28.5619C97.9977 28.5043 97.9868 28.4425 97.9874 28.3802C97.988 28.3179 98.0003 28.2564 98.0234 28.1993C98.0465 28.1421 98.08 28.0905 98.122 28.0475L98.8675 27.2491C98.8898 27.2251 98.9112 27.2001 98.9315 27.1745L98.935 27.1783C99.0174 27.0939 99.1273 27.0473 99.2413 27.0487C99.3553 27.05 99.4643 27.0991 99.5449 27.1854C99.6255 27.2718 99.6714 27.3885 99.6728 27.5107C99.6741 27.6328 99.6308 27.7507 99.552 27.839L98.8066 28.638ZM99.9603 29.8745C99.8773 29.9544 99.7689 29.9971 99.6573 29.9939C99.5458 29.9908 99.4397 29.9419 99.3607 29.8575C99.2817 29.773 99.236 29.6593 99.2329 29.5398C99.2297 29.4202 99.2694 29.304 99.3438 29.2149L100.156 28.3441C100.196 28.2962 100.244 28.2575 100.298 28.2304C100.352 28.2033 100.41 28.1882 100.47 28.1862C100.529 28.1842 100.588 28.1953 100.644 28.2188C100.699 28.2423 100.75 28.2777 100.792 28.3228C100.834 28.3679 100.867 28.4218 100.889 28.4811C100.911 28.5404 100.921 28.6039 100.919 28.6677C100.918 28.7315 100.904 28.7942 100.878 28.852C100.853 28.9098 100.817 28.9614 100.772 29.0037L99.9603 29.8745ZM101.996 30.1716L101.183 31.0424C101.101 31.1269 100.991 31.1734 100.877 31.1721C100.763 31.1707 100.654 31.1216 100.573 31.0353C100.493 30.949 100.447 30.8322 100.445 30.7101C100.444 30.5879 100.487 30.47 100.566 30.3817L101.312 29.5833C101.334 29.5594 101.355 29.5343 101.376 29.5087L101.379 29.5126C101.462 29.4281 101.571 29.3816 101.685 29.3829C101.799 29.3842 101.908 29.4333 101.989 29.5197C102.07 29.606 102.116 29.7227 102.117 29.8449C102.118 29.9671 102.075 30.0849 101.996 30.1733L101.996 30.1716ZM109.123 27.2545C109.022 27.3642 108.886 27.429 108.742 27.436C108.598 27.4429 108.457 27.3915 108.347 27.2921L108.05 27.027C108.03 26.9947 108.005 26.9657 107.976 26.941L107.291 26.3511C107.212 26.2875 107.113 26.2593 107.015 26.2723C106.917 26.2854 106.828 26.3388 106.766 26.4212C106.704 26.5036 106.674 26.6085 106.683 26.714C106.692 26.8194 106.739 26.917 106.813 26.9862L107.404 27.4972C107.421 27.5216 107.44 27.544 107.46 27.5642C107.519 27.6199 107.566 27.6879 107.6 27.764C107.633 27.8401 107.651 27.9227 107.654 28.0068C107.656 28.0908 107.642 28.1744 107.614 28.2525C107.585 28.3307 107.541 28.4016 107.486 28.4611L107.464 28.4839C107.368 28.5876 107.24 28.6511 107.104 28.6631C106.968 28.6751 106.833 28.6347 106.722 28.5492L106.133 28.0975L106.127 28.0926L105.905 27.9223C105.823 27.8593 105.721 27.8338 105.621 27.8515C105.521 27.8693 105.432 27.9287 105.373 28.0167C105.315 28.1048 105.291 28.2142 105.307 28.321C105.324 28.4278 105.379 28.5233 105.461 28.5863L105.688 28.7599C105.755 28.8124 105.811 28.8798 105.852 28.9577C105.892 29.0355 105.916 29.1218 105.923 29.2107C105.929 29.2996 105.918 29.3889 105.889 29.4725C105.86 29.556 105.814 29.6319 105.756 29.6949L105.724 29.7286C105.62 29.8395 105.481 29.904 105.335 29.909C105.188 29.9139 105.046 29.859 104.936 29.7553L104.301 29.1566C104.265 29.1161 104.221 29.0841 104.172 29.0626C104.124 29.0411 104.071 29.0307 104.019 29.0318C103.966 29.033 103.915 29.0458 103.867 29.0695C103.819 29.0931 103.777 29.127 103.742 29.1692C103.707 29.2113 103.681 29.2607 103.665 29.3142C103.648 29.3678 103.643 29.4244 103.648 29.4804C103.653 29.5364 103.669 29.5907 103.695 29.6397C103.721 29.6888 103.755 29.7317 103.797 29.7656L104.013 29.9703C104.072 30.0257 104.12 30.0934 104.153 30.1692C104.187 30.245 104.205 30.3274 104.208 30.4112C104.211 30.4951 104.198 30.5787 104.169 30.6569C104.141 30.7351 104.098 30.8063 104.043 30.8661L104 30.9129C103.902 31.019 103.771 31.0836 103.633 31.0948C103.494 31.106 103.356 31.0631 103.244 30.9738L102.695 30.5352C102.811 30.3412 102.876 30.1173 102.884 29.887C102.891 29.6568 102.841 29.4287 102.737 29.2266C102.634 29.0245 102.482 28.8559 102.297 28.7384C102.112 28.621 101.901 28.559 101.686 28.559H101.656C101.63 28.2398 101.492 27.9429 101.272 27.7266C101.051 27.5104 100.763 27.3905 100.464 27.3906H100.433C100.405 27.0667 100.263 26.7662 100.036 26.5503C99.8093 26.3343 99.5142 26.2191 99.2108 26.2281C99.1869 25.928 99.0643 25.6468 98.865 25.4346C98.6402 25.1941 98.3355 25.059 98.0179 25.059C97.7003 25.059 97.3957 25.1941 97.1709 25.4346L96.7611 25.8732L94.1458 24.2949L96.0491 19.1334L97.7727 20.2376C97.818 20.2667 97.8685 20.2854 97.921 20.2924C97.9734 20.2994 98.0267 20.2947 98.0773 20.2785L99.5256 19.8164C99.7676 19.74 100.023 19.7237 100.271 19.7687C100.52 19.8136 100.756 19.9187 100.961 20.076L101.161 20.2306L99.1255 21.8497C98.9744 21.9699 98.8516 22.1261 98.7666 22.306C98.6817 22.4859 98.637 22.6846 98.6361 22.8862C98.6352 23.0878 98.6781 23.2869 98.7615 23.4676C98.8449 23.6484 98.9663 23.8059 99.1163 23.9276C99.3992 24.1552 99.7397 24.2859 100.093 24.3025C100.447 24.3191 100.796 24.2209 101.097 24.0206L102.695 22.9425C102.881 23.3398 103.229 23.8797 103.832 24.2122C104.531 24.5975 105.381 24.6073 106.361 24.2416L109.053 26.319C109.12 26.3713 109.177 26.4387 109.218 26.5166C109.258 26.5945 109.283 26.681 109.29 26.7701C109.297 26.8592 109.285 26.9488 109.256 27.0327C109.228 27.1166 109.182 27.1929 109.123 27.2561V27.2545ZM109.613 25.7437L106.643 23.4525C106.591 23.4128 106.531 23.3875 106.468 23.379C106.405 23.3704 106.341 23.3788 106.282 23.4035C105.434 23.7561 104.73 23.7844 104.187 23.49C103.469 23.0987 103.249 22.2432 103.247 22.2383C103.233 22.176 103.204 22.1184 103.165 22.07C103.125 22.0217 103.076 21.9841 103.02 21.9602C102.964 21.9364 102.904 21.9269 102.844 21.9327C102.785 21.9384 102.727 21.9592 102.676 21.9934L100.692 23.3273C100.522 23.4402 100.325 23.4955 100.125 23.4857C99.9257 23.476 99.7337 23.4018 99.5744 23.2729C99.5187 23.2278 99.4736 23.1694 99.4426 23.1023C99.4116 23.0353 99.3957 22.9614 99.396 22.8866C99.3964 22.8118 99.413 22.7381 99.4446 22.6714C99.4762 22.6046 99.5218 22.5467 99.5779 22.5022L102.855 19.8953C103.038 19.7503 103.247 19.6472 103.469 19.5925C103.69 19.5378 103.92 19.5327 104.144 19.5775L107.621 20.2774C107.7 20.2936 107.782 20.2824 107.855 20.2453L109.965 19.1709L111.939 24.5241L109.613 25.7437ZM112.987 25.1418L110.278 17.7946L111.205 17.4403L112.421 21.1492C112.454 21.2514 112.524 21.3351 112.616 21.3819C112.707 21.4286 112.812 21.4346 112.907 21.3985C113.002 21.3624 113.08 21.2872 113.124 21.1894C113.168 21.0917 113.173 20.9793 113.14 20.8771L111.921 17.1643L112.553 16.9232L115.131 24.148L112.987 25.1418Z" fill="#FE638C" stroke="#FE638C" stroke-width="3" mask="url(#path-8-inside-1_3183_28848)"/>
</svg>
