<svg width="206" height="194" viewBox="0 0 206 194" fill="none" xmlns="http://www.w3.org/2000/svg">
<line x1="102.5" y1="182" x2="102.5" y2="128" stroke="#E7E7E7" stroke-dasharray="4 4"/>
<rect y="24" width="206" height="104" rx="12" fill="#49D7C6"/>
<path d="M29.346 60H28.114L26.211 54.214V60H24.693V52.102H26.937L28.763 57.723L30.578 52.102H32.789V60H31.249V54.214L29.346 60ZM39.4476 57.107C39.4476 58.911 38.2816 60.121 36.6096 60.121C34.9376 60.121 33.7716 58.911 33.7716 57.107C33.7716 55.314 34.9376 54.104 36.6096 54.104C38.2816 54.104 39.4476 55.314 39.4476 57.107ZM35.3006 57.107C35.3006 58.207 35.8066 58.845 36.6096 58.845C37.4126 58.845 37.9076 58.207 37.9076 57.107C37.9076 56.018 37.4126 55.38 36.6096 55.38C35.8066 55.38 35.3006 56.018 35.3006 57.107ZM40.386 60V54.214H41.926V54.808C42.245 54.434 42.773 54.104 43.51 54.104C44.72 54.104 45.457 54.929 45.457 56.183V60H43.917V56.623C43.917 55.974 43.653 55.512 42.993 55.512C42.454 55.512 41.926 55.897 41.926 56.656V60H40.386ZM46.8457 58.493V55.501H46.0757V54.214H46.8457V52.564H48.3637V54.214H49.5407V55.501H48.3637V58.174C48.3637 58.669 48.6387 58.735 49.0897 58.735C49.3097 58.735 49.4197 58.724 49.6177 58.702V59.978C49.3427 60.033 49.0127 60.066 48.6277 60.066C47.4617 60.066 46.8457 59.681 46.8457 58.493ZM53.9914 54.203V55.71C53.8154 55.688 53.6834 55.677 53.4964 55.677C52.6934 55.677 52.0774 56.172 52.0774 57.063V60H50.5374V54.214H52.0774V55.028C52.3304 54.522 52.9024 54.181 53.6174 54.181C53.7714 54.181 53.8814 54.192 53.9914 54.203ZM56.2569 60.099C55.1239 60.099 54.2879 59.417 54.2879 58.394C54.2879 57.239 55.2119 56.755 56.3779 56.546L57.8189 56.271V56.183C57.8189 55.688 57.5659 55.38 56.9279 55.38C56.3559 55.38 56.0589 55.633 55.9269 56.15L54.4639 55.875C54.7279 54.896 55.6079 54.104 56.9829 54.104C58.4459 54.104 59.3259 54.775 59.3259 56.117V58.482C59.3259 58.79 59.4579 58.889 59.7989 58.845V60C58.8199 60.143 58.2259 59.945 57.9729 59.461C57.5989 59.868 57.0159 60.099 56.2569 60.099ZM57.8189 57.943V57.349L56.6859 57.58C56.1799 57.679 55.8059 57.844 55.8059 58.306C55.8059 58.702 56.1029 58.933 56.5649 58.933C57.2139 58.933 57.8189 58.592 57.8189 57.943ZM68.9959 53.499H66.5209V60H64.9039V53.499H62.4179V52.102H68.9959V53.499ZM71.0284 60.121C69.3234 60.121 68.1574 58.9 68.1574 57.107C68.1574 55.402 69.3344 54.104 70.9734 54.104C72.6894 54.104 73.6134 55.38 73.6134 56.997V57.448H69.6314C69.7414 58.328 70.2804 58.856 71.0394 58.856C71.6334 58.856 72.1064 58.57 72.2824 58.009L73.5804 58.471C73.1624 59.527 72.1834 60.121 71.0284 60.121ZM70.9624 55.336C70.3464 55.336 69.8734 55.699 69.6864 56.403H72.0844C72.0734 55.831 71.7104 55.336 70.9624 55.336ZM75.7235 57.107C75.7235 58.196 76.2625 58.823 77.0765 58.823C77.7145 58.823 78.0995 58.383 78.2425 57.789L79.5735 58.383C79.3095 59.329 78.4075 60.121 77.0655 60.121C75.3825 60.121 74.1945 58.9 74.1945 57.107C74.1945 55.325 75.3825 54.104 77.0655 54.104C78.3965 54.104 79.2765 54.874 79.5515 55.809L78.2425 56.425C78.0995 55.831 77.7145 55.391 77.0765 55.391C76.2625 55.391 75.7235 56.029 75.7235 57.107ZM80.3148 60V52.102H81.8548V54.808C82.1738 54.434 82.7018 54.104 83.4388 54.104C84.6488 54.104 85.3858 54.929 85.3858 56.183V60H83.8458V56.623C83.8458 55.974 83.5818 55.512 82.9218 55.512C82.3828 55.512 81.8548 55.897 81.8548 56.656V60H80.3148ZM86.6204 60V54.214H88.1604V54.808C88.4794 54.434 89.0074 54.104 89.7444 54.104C90.9544 54.104 91.6914 54.929 91.6914 56.183V60H90.1514V56.623C90.1514 55.974 89.8874 55.512 89.2274 55.512C88.6884 55.512 88.1604 55.897 88.1604 56.656V60H86.6204ZM98.2611 57.107C98.2611 58.911 97.0951 60.121 95.4231 60.121C93.7511 60.121 92.5851 58.911 92.5851 57.107C92.5851 55.314 93.7511 54.104 95.4231 54.104C97.0951 54.104 98.2611 55.314 98.2611 57.107ZM94.1141 57.107C94.1141 58.207 94.6201 58.845 95.4231 58.845C96.2261 58.845 96.7211 58.207 96.7211 57.107C96.7211 56.018 96.2261 55.38 95.4231 55.38C94.6201 55.38 94.1141 56.018 94.1141 57.107ZM100.74 52.102V60H99.1995V52.102H100.74ZM107.338 57.107C107.338 58.911 106.172 60.121 104.5 60.121C102.828 60.121 101.662 58.911 101.662 57.107C101.662 55.314 102.828 54.104 104.5 54.104C106.172 54.104 107.338 55.314 107.338 57.107ZM103.191 57.107C103.191 58.207 103.697 58.845 104.5 58.845C105.303 58.845 105.798 58.207 105.798 57.107C105.798 56.018 105.303 55.38 104.5 55.38C103.697 55.38 103.191 56.018 103.191 57.107ZM113.622 59.362C113.622 61.111 112.412 62.079 110.696 62.079C109.299 62.079 108.331 61.507 108.001 60.374L109.442 59.956C109.607 60.528 110.058 60.88 110.718 60.88C111.521 60.88 112.082 60.484 112.082 59.527V59.131C111.785 59.527 111.202 59.835 110.476 59.835C108.892 59.835 107.968 58.548 107.968 56.964C107.968 55.391 108.892 54.104 110.476 54.104C111.191 54.104 111.785 54.412 112.082 54.808V54.214H113.622V59.362ZM112.093 56.898C112.093 55.941 111.576 55.402 110.839 55.402C110.003 55.402 109.53 55.996 109.53 56.964C109.53 57.932 110.003 58.537 110.839 58.537C111.576 58.537 112.093 57.998 112.093 57.052V56.898ZM117.667 60.33C117.293 61.353 116.765 62.013 115.489 62.013C115.192 62.013 115.082 62.002 114.884 61.98V60.737C115.049 60.748 115.148 60.759 115.324 60.759C115.731 60.759 115.951 60.649 116.116 60.231L116.303 59.769L114.224 54.214H115.819L117.128 58.02L118.404 54.214H119.955L117.667 60.33ZM122.095 58.559L123.206 57.481C123.789 58.306 124.636 58.768 125.505 58.768C126.33 58.768 126.935 58.405 126.935 57.734C126.935 57.008 126.187 56.909 124.999 56.645C123.822 56.37 122.546 55.996 122.546 54.434C122.546 52.927 123.844 51.981 125.483 51.981C126.847 51.981 127.914 52.586 128.464 53.378L127.397 54.423C126.935 53.774 126.319 53.334 125.439 53.334C124.669 53.334 124.141 53.708 124.141 54.28C124.141 54.896 124.713 55.017 125.747 55.248C127.001 55.523 128.541 55.842 128.541 57.569C128.541 59.164 127.133 60.121 125.45 60.121C124.119 60.121 122.733 59.516 122.095 58.559ZM134.827 57.107C134.827 58.911 133.661 60.121 131.989 60.121C130.317 60.121 129.151 58.911 129.151 57.107C129.151 55.314 130.317 54.104 131.989 54.104C133.661 54.104 134.827 55.314 134.827 57.107ZM130.68 57.107C130.68 58.207 131.186 58.845 131.989 58.845C132.792 58.845 133.287 58.207 133.287 57.107C133.287 56.018 132.792 55.38 131.989 55.38C131.186 55.38 130.68 56.018 130.68 57.107ZM137.306 52.102V60H135.766V52.102H137.306ZM143.597 54.214V60H142.057V59.406C141.738 59.78 141.232 60.121 140.495 60.121C139.296 60.121 138.526 59.296 138.526 58.042V54.214H140.066V57.701C140.066 58.339 140.352 58.757 140.99 58.757C141.529 58.757 142.057 58.361 142.057 57.613V54.214H143.597ZM145.029 58.493V55.501H144.259V54.214H145.029V52.564H146.547V54.214H147.724V55.501H146.547V58.174C146.547 58.669 146.822 58.735 147.273 58.735C147.493 58.735 147.603 58.724 147.801 58.702V59.978C147.526 60.033 147.196 60.066 146.811 60.066C145.645 60.066 145.029 59.681 145.029 58.493ZM148.699 53.532V52.102H150.272V53.532H148.699ZM150.261 54.214V60H148.721V54.214H150.261ZM156.86 57.107C156.86 58.911 155.694 60.121 154.022 60.121C152.35 60.121 151.184 58.911 151.184 57.107C151.184 55.314 152.35 54.104 154.022 54.104C155.694 54.104 156.86 55.314 156.86 57.107ZM152.713 57.107C152.713 58.207 153.219 58.845 154.022 58.845C154.825 58.845 155.32 58.207 155.32 57.107C155.32 56.018 154.825 55.38 154.022 55.38C153.219 55.38 152.713 56.018 152.713 57.107ZM157.798 60V54.214H159.338V54.808C159.657 54.434 160.185 54.104 160.922 54.104C162.132 54.104 162.869 54.929 162.869 56.183V60H161.329V56.623C161.329 55.974 161.065 55.512 160.405 55.512C159.866 55.512 159.338 55.897 159.338 56.656V60H157.798ZM163.532 59.021L164.489 58.042C164.885 58.581 165.589 58.922 166.238 58.922C166.755 58.922 167.206 58.746 167.206 58.328C167.206 57.888 166.777 57.833 165.853 57.657C164.918 57.47 163.884 57.228 163.884 55.985C163.884 54.874 164.863 54.104 166.249 54.104C167.272 54.104 168.185 54.522 168.636 55.105L167.756 56.073C167.371 55.578 166.81 55.303 166.205 55.303C165.721 55.303 165.402 55.512 165.402 55.831C165.402 56.205 165.787 56.271 166.502 56.414C167.514 56.623 168.713 56.854 168.713 58.163C168.713 59.373 167.591 60.121 166.205 60.121C165.16 60.121 164.06 59.736 163.532 59.021ZM24.693 76V68.102H26.31V74.603H29.94V76H24.693ZM30.7176 69.532V68.102H32.2906V69.532H30.7176ZM32.2796 70.214V76H30.7396V70.214H32.2796ZM35.0833 72.656V76H33.5433V70.214H35.0833V70.808C35.3913 70.434 35.9083 70.104 36.6563 70.104C37.3603 70.104 37.8993 70.401 38.2183 70.896C38.5703 70.533 39.1203 70.104 40.0113 70.104C41.1993 70.104 41.9693 70.929 41.9693 72.183V76H40.4293V72.623C40.4293 71.974 40.1873 71.512 39.5493 71.512C39.0433 71.512 38.5263 71.897 38.5263 72.656V76H36.9863V72.623C36.9863 71.974 36.7443 71.512 36.1063 71.512C35.6003 71.512 35.0833 71.897 35.0833 72.656ZM43.1892 69.532V68.102H44.7622V69.532H43.1892ZM44.7512 70.214V76H43.2112V70.214H44.7512ZM46.169 74.493V71.501H45.399V70.214H46.169V68.564H47.687V70.214H48.864V71.501H47.687V74.174C47.687 74.669 47.962 74.735 48.413 74.735C48.633 74.735 48.743 74.724 48.941 74.702V75.978C48.666 76.033 48.336 76.066 47.951 76.066C46.785 76.066 46.169 75.681 46.169 74.493ZM52.3477 76.121C50.6427 76.121 49.4767 74.9 49.4767 73.107C49.4767 71.402 50.6537 70.104 52.2927 70.104C54.0087 70.104 54.9327 71.38 54.9327 72.997V73.448H50.9507C51.0607 74.328 51.5997 74.856 52.3587 74.856C52.9527 74.856 53.4257 74.57 53.6017 74.009L54.8997 74.471C54.4817 75.527 53.5027 76.121 52.3477 76.121ZM52.2817 71.336C51.6657 71.336 51.1927 71.699 51.0057 72.403H53.4037C53.3927 71.831 53.0297 71.336 52.2817 71.336ZM58.0218 76.121C56.4268 76.121 55.5028 74.757 55.5028 73.107C55.5028 71.468 56.4268 70.104 58.0218 70.104C58.7478 70.104 59.2978 70.39 59.6388 70.808V68.102H61.1788V76H59.6388V75.406C59.2978 75.835 58.7478 76.121 58.0218 76.121ZM59.6718 72.953C59.6718 71.963 59.1218 71.424 58.3848 71.424C57.5158 71.424 57.0538 72.117 57.0538 73.107C57.0538 74.108 57.5158 74.801 58.3848 74.801C59.1218 74.801 59.6718 74.251 59.6718 73.272V72.953ZM67.6968 70.247H68.5328L69.7208 74.537L70.9198 70.247H71.9098L70.1608 76H69.2918L68.0928 71.732L66.8938 76H66.0248L64.2758 70.247H65.2988L66.5088 74.526L67.6968 70.247ZM74.1976 76.099C73.1526 76.099 72.3056 75.483 72.3056 74.449C72.3056 73.305 73.1966 72.832 74.4836 72.568L75.8806 72.282V72.04C75.8806 71.38 75.5176 71.006 74.7476 71.006C74.0216 71.006 73.5926 71.347 73.4166 71.985L72.4816 71.743C72.7566 70.808 73.6036 70.137 74.7806 70.137C76.0676 70.137 76.8596 70.764 76.8596 71.996V74.801C76.8596 75.175 77.0906 75.296 77.4756 75.208V76C76.5956 76.11 76.0896 75.901 75.9686 75.351C75.6166 75.802 74.9786 76.099 74.1976 76.099ZM75.8806 74.042V73.052L74.7586 73.294C73.8786 73.47 73.2846 73.712 73.2846 74.405C73.2846 74.966 73.6916 75.296 74.3186 75.296C75.1656 75.296 75.8806 74.779 75.8806 74.042ZM77.9087 74.779L78.6787 74.218C78.9867 74.889 79.6907 75.296 80.4387 75.296C81.1097 75.296 81.7037 75.01 81.7037 74.383C81.7037 73.756 81.1537 73.668 80.2077 73.47C79.2617 73.261 78.2717 73.052 78.2717 71.875C78.2717 70.852 79.1627 70.137 80.3837 70.137C81.4177 70.137 82.2647 70.643 82.6057 71.325L81.9017 71.886C81.6047 71.314 81.0657 70.951 80.3397 70.951C79.6797 70.951 79.2397 71.281 79.2397 71.798C79.2397 72.337 79.7457 72.436 80.5487 72.612C81.5387 72.843 82.6717 73.041 82.6717 74.295C82.6717 75.395 81.6707 76.121 80.4387 76.121C79.3937 76.121 78.3487 75.67 77.9087 74.779ZM88.7246 68.003V68.883C88.5596 68.861 88.4606 68.861 88.2956 68.861C87.7126 68.861 87.3936 69.114 87.3936 69.851V70.247H88.6696V71.094H87.3936V76H86.4036V71.094H85.5346V70.247H86.4036V69.785C86.4036 68.663 87.0196 67.981 88.1966 67.981C88.3946 67.981 88.5046 67.992 88.7246 68.003ZM94.5074 73.129C94.5074 74.911 93.4074 76.121 91.8344 76.121C90.2614 76.121 89.1614 74.911 89.1614 73.129C89.1614 71.347 90.2614 70.137 91.8344 70.137C93.4074 70.137 94.5074 71.347 94.5074 73.129ZM90.1624 73.129C90.1624 74.438 90.8224 75.274 91.8344 75.274C92.8464 75.274 93.5064 74.438 93.5064 73.129C93.5064 71.809 92.8464 70.973 91.8344 70.973C90.8224 70.973 90.1624 71.809 90.1624 73.129ZM100.331 70.247V76H99.3414V75.208C99.0114 75.692 98.4504 76.121 97.6364 76.121C96.4044 76.121 95.7114 75.274 95.7114 74.053V70.247H96.7014V73.844C96.7014 74.658 97.0534 75.208 97.9004 75.208C98.6154 75.208 99.3414 74.669 99.3414 73.712V70.247H100.331ZM101.975 76V70.247H102.965V71.028C103.295 70.555 103.867 70.137 104.681 70.137C105.902 70.137 106.595 70.984 106.595 72.205V76H105.605V72.469C105.605 71.666 105.264 71.061 104.406 71.061C103.691 71.061 102.965 71.611 102.965 72.568V76H101.975ZM110.296 76.121C108.701 76.121 107.788 74.757 107.788 73.129C107.788 71.49 108.701 70.137 110.296 70.137C111.099 70.137 111.737 70.522 112.078 71.083V68.102H113.068V76H112.078V75.164C111.737 75.736 111.099 76.121 110.296 76.121ZM112.1 72.931C112.1 71.589 111.286 71.006 110.472 71.006C109.394 71.006 108.789 71.886 108.789 73.129C108.789 74.361 109.394 75.252 110.472 75.252C111.286 75.252 112.1 74.658 112.1 73.338V72.931ZM117.004 76.121C115.409 76.121 114.309 74.9 114.309 73.129C114.309 71.413 115.398 70.137 116.96 70.137C118.566 70.137 119.413 71.358 119.413 72.953V73.283H115.255C115.31 74.493 116.003 75.263 117.004 75.263C117.774 75.263 118.324 74.845 118.5 74.163L119.369 74.471C119.017 75.494 118.148 76.121 117.004 76.121ZM116.949 70.984C116.113 70.984 115.486 71.545 115.31 72.524H118.412C118.39 71.71 117.95 70.984 116.949 70.984ZM122.757 76.121C121.162 76.121 120.249 74.757 120.249 73.129C120.249 71.49 121.162 70.137 122.757 70.137C123.56 70.137 124.198 70.522 124.539 71.083V68.102H125.529V76H124.539V75.164C124.198 75.736 123.56 76.121 122.757 76.121ZM124.561 72.931C124.561 71.589 123.747 71.006 122.933 71.006C121.855 71.006 121.25 71.886 121.25 73.129C121.25 74.361 121.855 75.252 122.933 75.252C123.747 75.252 124.561 74.658 124.561 73.338V72.931ZM129.442 69.246V68.102H130.52V69.246H129.442ZM130.476 70.247V76H129.486V70.247H130.476ZM132.129 76V70.247H133.119V71.028C133.449 70.555 134.021 70.137 134.835 70.137C136.056 70.137 136.749 70.984 136.749 72.205V76H135.759V72.469C135.759 71.666 135.418 71.061 134.56 71.061C133.845 71.061 133.119 71.611 133.119 72.568V76H132.129ZM146.939 68.102V76H146.026L141.714 69.642V76H140.702V68.102H141.813L145.916 74.207V68.102H146.939ZM148.585 69.246V68.102H149.663V69.246H148.585ZM149.619 70.247V76H148.629V70.247H149.619ZM156.144 75.483C156.144 77.166 155.033 78.101 153.471 78.101C152.206 78.101 151.282 77.518 150.963 76.462L151.887 76.11C152.074 76.847 152.668 77.276 153.471 77.276C154.483 77.276 155.154 76.759 155.154 75.56V74.911C154.846 75.472 154.197 75.868 153.394 75.868C151.821 75.868 150.897 74.57 150.897 72.997C150.897 71.435 151.821 70.137 153.394 70.137C154.186 70.137 154.846 70.533 155.154 71.094V70.247H156.144V75.483ZM155.165 72.909C155.165 71.622 154.395 71.006 153.57 71.006C152.525 71.006 151.887 71.787 151.887 72.997C151.887 74.207 152.525 74.999 153.57 74.999C154.395 74.999 155.165 74.383 155.165 73.118V72.909ZM160.091 76.121C158.496 76.121 157.396 74.9 157.396 73.129C157.396 71.413 158.485 70.137 160.047 70.137C161.653 70.137 162.5 71.358 162.5 72.953V73.283H158.342C158.397 74.493 159.09 75.263 160.091 75.263C160.861 75.263 161.411 74.845 161.587 74.163L162.456 74.471C162.104 75.494 161.235 76.121 160.091 76.121ZM160.036 70.984C159.2 70.984 158.573 71.545 158.397 72.524H161.499C161.477 71.71 161.037 70.984 160.036 70.984ZM166.713 70.225V71.226C166.548 71.193 166.416 71.182 166.229 71.182C165.393 71.182 164.722 71.842 164.722 72.854V76H163.732V70.247H164.722V71.226C164.975 70.643 165.536 70.203 166.317 70.203C166.471 70.203 166.614 70.214 166.713 70.225ZM167.76 69.246V68.102H168.838V69.246H167.76ZM168.794 70.247V76H167.804V70.247H168.794ZM171.887 76.099C170.842 76.099 169.995 75.483 169.995 74.449C169.995 73.305 170.886 72.832 172.173 72.568L173.57 72.282V72.04C173.57 71.38 173.207 71.006 172.437 71.006C171.711 71.006 171.282 71.347 171.106 71.985L170.171 71.743C170.446 70.808 171.293 70.137 172.47 70.137C173.757 70.137 174.549 70.764 174.549 71.996V74.801C174.549 75.175 174.78 75.296 175.165 75.208V76C174.285 76.11 173.779 75.901 173.658 75.351C173.306 75.802 172.668 76.099 171.887 76.099ZM173.57 74.042V73.052L172.448 73.294C171.568 73.47 170.974 73.712 170.974 74.405C170.974 74.966 171.381 75.296 172.008 75.296C172.855 75.296 173.57 74.779 173.57 74.042ZM176.156 76V74.702H177.41V76H176.156Z" fill="black"/>
<rect x="12" y="55" width="4" height="4" fill="black"/>
<path d="M25.869 96V88.102H28.377C30.775 88.102 32.293 89.642 32.293 92.051C32.293 94.46 30.775 96 28.377 96H25.869ZM26.903 95.087H28.377C30.17 95.087 31.259 93.888 31.259 92.051C31.259 90.203 30.17 89.015 28.366 89.015H26.903V95.087ZM38.1029 90.247V96H37.1129V95.208C36.7829 95.692 36.2219 96.121 35.4079 96.121C34.1759 96.121 33.4829 95.274 33.4829 94.053V90.247H34.4729V93.844C34.4729 94.658 34.8249 95.208 35.6719 95.208C36.3869 95.208 37.1129 94.669 37.1129 93.712V90.247H38.1029ZM41.1879 96.099C40.1429 96.099 39.2959 95.483 39.2959 94.449C39.2959 93.305 40.1869 92.832 41.4739 92.568L42.8709 92.282V92.04C42.8709 91.38 42.5079 91.006 41.7379 91.006C41.0119 91.006 40.5829 91.347 40.4069 91.985L39.4719 91.743C39.7469 90.808 40.5939 90.137 41.7709 90.137C43.0579 90.137 43.8499 90.764 43.8499 91.996V94.801C43.8499 95.175 44.0809 95.296 44.4659 95.208V96C43.5859 96.11 43.0799 95.901 42.9589 95.351C42.6069 95.802 41.9689 96.099 41.1879 96.099ZM42.8709 94.042V93.052L41.7489 93.294C40.8689 93.47 40.2749 93.712 40.2749 94.405C40.2749 94.966 40.6819 95.296 41.3089 95.296C42.1559 95.296 42.8709 94.779 42.8709 94.042ZM46.5269 88.102V96H45.5369V88.102H46.5269ZM56.2638 89.026H53.5908V96H52.5348V89.026H49.8618V88.102H56.2638V89.026ZM59.2386 90.225V91.226C59.0736 91.193 58.9416 91.182 58.7546 91.182C57.9186 91.182 57.2476 91.842 57.2476 92.854V96H56.2576V90.247H57.2476V91.226C57.5006 90.643 58.0616 90.203 58.8426 90.203C58.9966 90.203 59.1396 90.214 59.2386 90.225ZM61.6517 96.099C60.6067 96.099 59.7597 95.483 59.7597 94.449C59.7597 93.305 60.6507 92.832 61.9377 92.568L63.3347 92.282V92.04C63.3347 91.38 62.9717 91.006 62.2017 91.006C61.4757 91.006 61.0467 91.347 60.8707 91.985L59.9357 91.743C60.2107 90.808 61.0577 90.137 62.2347 90.137C63.5217 90.137 64.3137 90.764 64.3137 91.996V94.801C64.3137 95.175 64.5447 95.296 64.9297 95.208V96C64.0497 96.11 63.5437 95.901 63.4227 95.351C63.0707 95.802 62.4327 96.099 61.6517 96.099ZM63.3347 94.042V93.052L62.2127 93.294C61.3327 93.47 60.7387 93.712 60.7387 94.405C60.7387 94.966 61.1457 95.296 61.7727 95.296C62.6197 95.296 63.3347 94.779 63.3347 94.042ZM66.0008 96V90.247H66.9908V91.028C67.3208 90.555 67.8928 90.137 68.7068 90.137C69.9278 90.137 70.6208 90.984 70.6208 92.205V96H69.6308V92.469C69.6308 91.666 69.2898 91.061 68.4318 91.061C67.7168 91.061 66.9908 91.611 66.9908 92.568V96H66.0008ZM71.5718 94.779L72.3418 94.218C72.6498 94.889 73.3538 95.296 74.1018 95.296C74.7728 95.296 75.3668 95.01 75.3668 94.383C75.3668 93.756 74.8168 93.668 73.8708 93.47C72.9248 93.261 71.9348 93.052 71.9348 91.875C71.9348 90.852 72.8258 90.137 74.0468 90.137C75.0808 90.137 75.9278 90.643 76.2688 91.325L75.5648 91.886C75.2678 91.314 74.7288 90.951 74.0028 90.951C73.3428 90.951 72.9028 91.281 72.9028 91.798C72.9028 92.337 73.4088 92.436 74.2118 92.612C75.2018 92.843 76.3348 93.041 76.3348 94.295C76.3348 95.395 75.3338 96.121 74.1018 96.121C73.0568 96.121 72.0118 95.67 71.5718 94.779ZM79.0004 96.099C77.9554 96.099 77.1084 95.483 77.1084 94.449C77.1084 93.305 77.9994 92.832 79.2864 92.568L80.6834 92.282V92.04C80.6834 91.38 80.3204 91.006 79.5504 91.006C78.8244 91.006 78.3954 91.347 78.2194 91.985L77.2844 91.743C77.5594 90.808 78.4064 90.137 79.5834 90.137C80.8704 90.137 81.6624 90.764 81.6624 91.996V94.801C81.6624 95.175 81.8934 95.296 82.2784 95.208V96C81.3984 96.11 80.8924 95.901 80.7714 95.351C80.4194 95.802 79.7814 96.099 79.0004 96.099ZM80.6834 94.042V93.052L79.5614 93.294C78.6814 93.47 78.0874 93.712 78.0874 94.405C78.0874 94.966 78.4944 95.296 79.1214 95.296C79.9684 95.296 80.6834 94.779 80.6834 94.042ZM83.9434 93.129C83.9434 94.438 84.6474 95.252 85.6704 95.252C86.4624 95.252 86.9354 94.746 87.1004 94.031L87.9804 94.438C87.7054 95.395 86.8694 96.121 85.6704 96.121C84.0644 96.121 82.9534 94.9 82.9534 93.129C82.9534 91.347 84.0644 90.137 85.6704 90.137C86.8694 90.137 87.6834 90.83 87.9584 91.787L87.1004 92.216C86.9354 91.512 86.4624 90.995 85.6704 90.995C84.6474 90.995 83.9434 91.809 83.9434 93.129ZM89.2183 94.625V91.094H88.3273V90.247H89.2183V88.564H90.1973V90.247H91.5063V91.094H90.1973V94.471C90.1973 95.076 90.4943 95.186 91.0003 95.186C91.2313 95.186 91.3963 95.175 91.6273 95.12V95.967C91.3743 96.022 91.0883 96.055 90.7583 96.055C89.7793 96.055 89.2183 95.725 89.2183 94.625ZM92.7585 89.246V88.102H93.8365V89.246H92.7585ZM93.7925 90.247V96H92.8025V90.247H93.7925ZM100.395 93.129C100.395 94.911 99.2951 96.121 97.7221 96.121C96.1491 96.121 95.0491 94.911 95.0491 93.129C95.0491 91.347 96.1491 90.137 97.7221 90.137C99.2951 90.137 100.395 91.347 100.395 93.129ZM96.0501 93.129C96.0501 94.438 96.7101 95.274 97.7221 95.274C98.7341 95.274 99.3941 94.438 99.3941 93.129C99.3941 91.809 98.7341 90.973 97.7221 90.973C96.7101 90.973 96.0501 91.809 96.0501 93.129ZM101.654 96V90.247H102.644V91.028C102.974 90.555 103.546 90.137 104.36 90.137C105.581 90.137 106.274 90.984 106.274 92.205V96H105.284V92.469C105.284 91.666 104.943 91.061 104.085 91.061C103.37 91.061 102.644 91.611 102.644 92.568V96H101.654ZM109.402 94.372L110.227 93.712C110.722 94.658 111.613 95.208 112.636 95.208C113.659 95.208 114.451 94.702 114.451 93.8C114.451 92.843 113.538 92.678 112.339 92.392C111.096 92.095 109.864 91.754 109.864 90.269C109.864 88.883 111.063 87.981 112.559 87.981C113.934 87.981 114.924 88.641 115.397 89.532L114.594 90.17C114.187 89.411 113.56 88.894 112.537 88.894C111.58 88.894 110.887 89.422 110.887 90.181C110.887 91.017 111.624 91.193 112.735 91.457C114.044 91.765 115.485 92.04 115.485 93.712C115.485 95.186 114.176 96.121 112.614 96.121C111.25 96.121 109.941 95.439 109.402 94.372ZM119.024 96.121C117.429 96.121 116.329 94.9 116.329 93.129C116.329 91.413 117.418 90.137 118.98 90.137C120.586 90.137 121.433 91.358 121.433 92.953V93.283H117.275C117.33 94.493 118.023 95.263 119.024 95.263C119.794 95.263 120.344 94.845 120.52 94.163L121.389 94.471C121.037 95.494 120.168 96.121 119.024 96.121ZM118.969 90.984C118.133 90.984 117.506 91.545 117.33 92.524H120.432C120.41 91.71 119.97 90.984 118.969 90.984ZM125.647 90.225V91.226C125.482 91.193 125.35 91.182 125.163 91.182C124.327 91.182 123.656 91.842 123.656 92.854V96H122.666V90.247H123.656V91.226C123.909 90.643 124.47 90.203 125.251 90.203C125.405 90.203 125.548 90.214 125.647 90.225ZM129.255 96H128.276L126.12 90.247H127.165L128.782 94.79L130.377 90.247H131.411L129.255 96ZM132.333 89.246V88.102H133.411V89.246H132.333ZM133.367 90.247V96H132.377V90.247H133.367ZM135.613 93.129C135.613 94.438 136.317 95.252 137.34 95.252C138.132 95.252 138.605 94.746 138.77 94.031L139.65 94.438C139.375 95.395 138.539 96.121 137.34 96.121C135.734 96.121 134.623 94.9 134.623 93.129C134.623 91.347 135.734 90.137 137.34 90.137C138.539 90.137 139.353 90.83 139.628 91.787L138.77 92.216C138.605 91.512 138.132 90.995 137.34 90.995C136.317 90.995 135.613 91.809 135.613 93.129ZM143.033 96.121C141.438 96.121 140.338 94.9 140.338 93.129C140.338 91.413 141.427 90.137 142.989 90.137C144.595 90.137 145.442 91.358 145.442 92.953V93.283H141.284C141.339 94.493 142.032 95.263 143.033 95.263C143.803 95.263 144.353 94.845 144.529 94.163L145.398 94.471C145.046 95.494 144.177 96.121 143.033 96.121ZM142.978 90.984C142.142 90.984 141.515 91.545 141.339 92.524H144.441C144.419 91.71 143.979 90.984 142.978 90.984ZM148.61 92.986C148.61 92.3847 148.665 91.798 148.775 91.226C148.892 90.654 149.072 90.1077 149.314 89.587C149.556 89.0663 149.86 88.586 150.227 88.146H151.14C150.803 88.6007 150.517 89.092 150.282 89.62C150.055 90.148 149.882 90.6943 149.765 91.259C149.648 91.8237 149.589 92.3957 149.589 92.975C149.589 93.5397 149.648 94.1007 149.765 94.658C149.882 95.2153 150.055 95.7507 150.282 96.264C150.509 96.7847 150.792 97.276 151.129 97.738H150.227C149.86 97.3053 149.556 96.8323 149.314 96.319C149.072 95.813 148.892 95.2777 148.775 94.713C148.665 94.1483 148.61 93.5727 148.61 92.986ZM152.337 96V88.102H154.845C157.243 88.102 158.761 89.642 158.761 92.051C158.761 94.46 157.243 96 154.845 96H152.337ZM153.371 95.087H154.845C156.638 95.087 157.727 93.888 157.727 92.051C157.727 90.203 156.638 89.015 154.834 89.015H153.371V95.087ZM165.2 89.026H162.527V96H161.471V89.026H158.798V88.102H165.2V89.026ZM165.154 94.372L165.979 93.712C166.474 94.658 167.365 95.208 168.388 95.208C169.411 95.208 170.203 94.702 170.203 93.8C170.203 92.843 169.29 92.678 168.091 92.392C166.848 92.095 165.616 91.754 165.616 90.269C165.616 88.883 166.815 87.981 168.311 87.981C169.686 87.981 170.676 88.641 171.149 89.532L170.346 90.17C169.939 89.411 169.312 88.894 168.289 88.894C167.332 88.894 166.639 89.422 166.639 90.181C166.639 91.017 167.376 91.193 168.487 91.457C169.796 91.765 171.237 92.04 171.237 93.712C171.237 95.186 169.928 96.121 168.366 96.121C167.002 96.121 165.693 95.439 165.154 94.372ZM174.426 92.986C174.426 93.5727 174.368 94.1483 174.25 94.713C174.14 95.2777 173.964 95.813 173.722 96.319C173.488 96.8323 173.183 97.3053 172.809 97.738H171.907C172.245 97.276 172.527 96.7847 172.754 96.264C172.982 95.7507 173.154 95.2153 173.271 94.658C173.389 94.1007 173.447 93.5397 173.447 92.975C173.447 92.3957 173.389 91.8237 173.271 91.259C173.154 90.6943 172.982 90.148 172.754 89.62C172.527 89.092 172.241 88.6007 171.896 88.146H172.809C173.183 88.586 173.488 89.0663 173.722 89.587C173.964 90.1077 174.14 90.654 174.25 91.226C174.368 91.798 174.426 92.3847 174.426 92.986ZM28.564 106.247H29.4L30.588 110.537L31.787 106.247H32.777L31.028 112H30.159L28.96 107.732L27.761 112H26.892L25.143 106.247H26.166L27.376 110.526L28.564 106.247ZM35.0648 112.099C34.0198 112.099 33.1728 111.483 33.1728 110.449C33.1728 109.305 34.0638 108.832 35.3508 108.568L36.7478 108.282V108.04C36.7478 107.38 36.3848 107.006 35.6148 107.006C34.8888 107.006 34.4598 107.347 34.2838 107.985L33.3488 107.743C33.6238 106.808 34.4708 106.137 35.6478 106.137C36.9348 106.137 37.7268 106.764 37.7268 107.996V110.801C37.7268 111.175 37.9578 111.296 38.3428 111.208V112C37.4628 112.11 36.9568 111.901 36.8358 111.351C36.4838 111.802 35.8458 112.099 35.0648 112.099ZM36.7478 110.042V109.052L35.6258 109.294C34.7458 109.47 34.1518 109.712 34.1518 110.405C34.1518 110.966 34.5588 111.296 35.1858 111.296C36.0328 111.296 36.7478 110.779 36.7478 110.042ZM38.7759 110.779L39.5459 110.218C39.8539 110.889 40.5579 111.296 41.3059 111.296C41.9769 111.296 42.5709 111.01 42.5709 110.383C42.5709 109.756 42.0209 109.668 41.0749 109.47C40.1289 109.261 39.1389 109.052 39.1389 107.875C39.1389 106.852 40.0299 106.137 41.2509 106.137C42.2849 106.137 43.1319 106.643 43.4729 107.325L42.7689 107.886C42.4719 107.314 41.9329 106.951 41.2069 106.951C40.5469 106.951 40.1069 107.281 40.1069 107.798C40.1069 108.337 40.6129 108.436 41.4159 108.612C42.4059 108.843 43.5389 109.041 43.5389 110.295C43.5389 111.395 42.5379 112.121 41.3059 112.121C40.2609 112.121 39.2159 111.67 38.7759 110.779ZM48.4721 109.096V112H46.8551V104.102H50.0891C51.9041 104.102 53.0371 104.96 53.0371 106.599C53.0371 108.227 51.9041 109.096 50.0891 109.096H48.4721ZM48.4721 107.721H50.0011C50.9471 107.721 51.4311 107.303 51.4311 106.599C51.4311 105.884 50.9471 105.477 50.0011 105.477H48.4721V107.721ZM55.2051 112.099C54.0721 112.099 53.2361 111.417 53.2361 110.394C53.2361 109.239 54.1601 108.755 55.3261 108.546L56.7671 108.271V108.183C56.7671 107.688 56.5141 107.38 55.8761 107.38C55.3041 107.38 55.0071 107.633 54.8751 108.15L53.4121 107.875C53.6761 106.896 54.5561 106.104 55.9311 106.104C57.3941 106.104 58.2741 106.775 58.2741 108.117V110.482C58.2741 110.79 58.4061 110.889 58.7471 110.845V112C57.7681 112.143 57.1741 111.945 56.9211 111.461C56.5471 111.868 55.9641 112.099 55.2051 112.099ZM56.7671 109.943V109.349L55.6341 109.58C55.1281 109.679 54.7541 109.844 54.7541 110.306C54.7541 110.702 55.0511 110.933 55.5131 110.933C56.1621 110.933 56.7671 110.592 56.7671 109.943ZM59.7481 110.493V107.501H58.9781V106.214H59.7481V104.564H61.2661V106.214H62.4431V107.501H61.2661V110.174C61.2661 110.669 61.5411 110.735 61.9921 110.735C62.2121 110.735 62.3221 110.724 62.5201 110.702V111.978C62.2451 112.033 61.9151 112.066 61.5301 112.066C60.3641 112.066 59.7481 111.681 59.7481 110.493ZM65.9268 112.121C64.2218 112.121 63.0558 110.9 63.0558 109.107C63.0558 107.402 64.2328 106.104 65.8718 106.104C67.5878 106.104 68.5118 107.38 68.5118 108.997V109.448H64.5298C64.6398 110.328 65.1788 110.856 65.9378 110.856C66.5318 110.856 67.0048 110.57 67.1808 110.009L68.4788 110.471C68.0608 111.527 67.0818 112.121 65.9268 112.121ZM65.8608 107.336C65.2448 107.336 64.7718 107.699 64.5848 108.403H66.9828C66.9718 107.831 66.6088 107.336 65.8608 107.336ZM69.4232 112V106.214H70.9632V106.808C71.2822 106.434 71.8102 106.104 72.5472 106.104C73.7572 106.104 74.4942 106.929 74.4942 108.183V112H72.9542V108.623C72.9542 107.974 72.6902 107.512 72.0302 107.512C71.4912 107.512 70.9632 107.897 70.9632 108.656V112H69.4232ZM75.8828 110.493V107.501H75.1128V106.214H75.8828V104.564H77.4008V106.214H78.5778V107.501H77.4008V110.174C77.4008 110.669 77.6758 110.735 78.1268 110.735C78.3468 110.735 78.4568 110.724 78.6548 110.702V111.978C78.3798 112.033 78.0498 112.066 77.6648 112.066C76.4988 112.066 75.8828 111.681 75.8828 110.493ZM82.0616 112.121C80.3566 112.121 79.1906 110.9 79.1906 109.107C79.1906 107.402 80.3676 106.104 82.0066 106.104C83.7226 106.104 84.6466 107.38 84.6466 108.997V109.448H80.6646C80.7746 110.328 81.3136 110.856 82.0726 110.856C82.6666 110.856 83.1396 110.57 83.3156 110.009L84.6136 110.471C84.1956 111.527 83.2166 112.121 82.0616 112.121ZM81.9956 107.336C81.3796 107.336 80.9066 107.699 80.7196 108.403H83.1176C83.1066 107.831 82.7436 107.336 81.9956 107.336ZM87.7357 112.121C86.1407 112.121 85.2167 110.757 85.2167 109.107C85.2167 107.468 86.1407 106.104 87.7357 106.104C88.4617 106.104 89.0117 106.39 89.3527 106.808V104.102H90.8927V112H89.3527V111.406C89.0117 111.835 88.4617 112.121 87.7357 112.121ZM89.3857 108.953C89.3857 107.963 88.8357 107.424 88.0987 107.424C87.2297 107.424 86.7677 108.117 86.7677 109.107C86.7677 110.108 87.2297 110.801 88.0987 110.801C88.8357 110.801 89.3857 110.251 89.3857 109.272V108.953Z" fill="black"/>
<rect x="12" y="91" width="4" height="4" fill="black"/>
<rect x="83.5" y="4.5" width="39" height="39" rx="19.5" fill="white"/>
<rect x="83.5" y="4.5" width="39" height="39" rx="19.5" stroke="#49D7C6"/>
<path d="M100.5 23C100.257 23 100.027 23.058 99.824 23.16C100.622 23.3579 101.366 23.7328 102 24.257V24H105.5C105.633 24 105.76 24.0527 105.854 24.1464C105.947 24.2402 106 24.3674 106 24.5V26H103.4C103.562 26.317 103.694 26.651 103.793 27H106V28.5C106 28.6326 105.947 28.7598 105.854 28.8536C105.76 28.9473 105.633 29 105.5 29H103.978C103.947 29.3383 103.885 29.6731 103.793 30H105.5C105.898 30 106.279 29.842 106.561 29.5607C106.842 29.2794 107 28.8978 107 28.5V24.5C107 24.1022 106.842 23.7206 106.561 23.4393C106.279 23.158 105.898 23 105.5 23H100.5ZM97 23.207C97.3269 23.1145 97.6617 23.0525 98 23.022V18C98 17.7348 98.1054 17.4804 98.2929 17.2929C98.4804 17.1054 98.7348 17 99 17H103V20.5C103 20.8978 103.158 21.2794 103.439 21.5607C103.721 21.842 104.102 22 104.5 22H108V30C108 30.2652 107.895 30.5196 107.707 30.7071C107.52 30.8946 107.265 31 107 31H103.4C103.218 31.3562 102.998 31.6915 102.743 32H107C107.53 32 108.039 31.7893 108.414 31.4142C108.789 31.0391 109 30.5304 109 30V21.414C109 21.0163 108.841 20.635 108.56 20.354L104.646 16.439C104.365 16.158 103.984 16.0001 103.586 16H99C98.4696 16 97.9609 16.2107 97.5858 16.5858C97.2107 16.9609 97 17.4696 97 18V23.207ZM107.793 21H104.5C104.367 21 104.24 20.9473 104.146 20.8536C104.053 20.7598 104 20.6326 104 20.5V17.207L107.793 21ZM103 28.5C103 29.6935 102.526 30.8381 101.682 31.682C100.838 32.5259 99.6935 33 98.5 33C97.3065 33 96.1619 32.5259 95.318 31.682C94.4741 30.8381 94 29.6935 94 28.5C94 27.3065 94.4741 26.1619 95.318 25.318C96.1619 24.4741 97.3065 24 98.5 24C99.6935 24 100.838 24.4741 101.682 25.318C102.526 26.1619 103 27.3065 103 28.5ZM100.854 26.646C100.808 26.5994 100.752 26.5625 100.692 26.5373C100.631 26.5121 100.566 26.4991 100.5 26.4991C100.434 26.4991 100.369 26.5121 100.308 26.5373C100.248 26.5625 100.192 26.5994 100.146 26.646L97.5 29.293L96.854 28.646C96.7601 28.5521 96.6328 28.4994 96.5 28.4994C96.3672 28.4994 96.2399 28.5521 96.146 28.646C96.0521 28.7399 95.9994 28.8672 95.9994 29C95.9994 29.1328 96.0521 29.2601 96.146 29.354L97.146 30.354C97.1924 30.4006 97.2476 30.4375 97.3084 30.4627C97.3691 30.4879 97.4342 30.5009 97.5 30.5009C97.5658 30.5009 97.6309 30.4879 97.6916 30.4627C97.7524 30.4375 97.8076 30.4006 97.854 30.354L100.854 27.354C100.901 27.3076 100.938 27.2524 100.963 27.1916C100.988 27.1309 101.001 27.0658 101.001 27C101.001 26.9342 100.988 26.8691 100.963 26.8084C100.938 26.7476 100.901 26.6924 100.854 26.646Z" fill="#49D7C6"/>
</svg>
