<svg width="24" height="24" viewBox="0 0 24 24" fill="none" xmlns="http://www.w3.org/2000/svg">
<g clip-path="url(#clip0_3183_9015)">
<mask id="mask0_3183_9015" style="mask-type:luminance" maskUnits="userSpaceOnUse" x="0" y="0" width="24" height="24">
<path d="M24 0H0V24H24V0Z" fill="white"/>
</mask>
<g mask="url(#mask0_3183_9015)">
<path d="M7 9.98047V14.9062C7 15.1423 7.1265 15.3603 7.33157 15.4774L11.6496 17.9199V12.6123L7 9.98047Z" fill="#24BAF2"/>
<path d="M12.9648 12.6123V17.9199L17.5706 15.288V9.98047L12.9648 12.6123Z" fill="#24BAF2"/>
<path d="M12.3088 6.03125L7.1875 8.56992L12.3088 11.4715L17.3863 8.56992L12.3088 6.03125Z" fill="#24BAF2"/>
<path d="M19.4333 19.481C19.5672 19.3658 19.698 19.2474 19.8254 19.126C21.9075 17.1424 23.1163 14.3482 22.906 11.3409C22.5207 5.83141 17.5189 1.69309 11.734 2.09761C5.94918 2.50213 1.57193 7.2963 1.95719 12.8057C2.34244 18.3151 7.34432 22.4535 13.1291 22.0489C14.8001 21.9321 16.3536 21.449 17.7089 20.6882C17.7757 20.6507 17.842 20.6125 17.9078 20.5737" stroke="#20336B"/>
</g>
</g>
<defs>
<clipPath id="clip0_3183_9015">
<rect width="24" height="24" fill="white"/>
</clipPath>
</defs>
</svg>
