<svg width="24" height="20" viewBox="0 0 24 20" fill="none" xmlns="http://www.w3.org/2000/svg">
<g clip-path="url(#clip0_3183_9051)">
<mask id="mask0_3183_9051" style="mask-type:luminance" maskUnits="userSpaceOnUse" x="9" y="2" width="15" height="17">
<path d="M23.9996 2.92969H9.95312V18.1467H23.9996V2.92969Z" fill="white"/>
</mask>
<g mask="url(#mask0_3183_9051)">
<path d="M12.9297 10.0313H22.0199C22.1719 10.0312 22.3153 10.0902 22.4075 10.1907C22.4998 10.2912 22.5305 10.4217 22.4905 10.5438L21.4893 13.5977C21.3157 14.1273 20.7376 14.4948 20.0778 14.4949H14.0593" stroke="#20336B" stroke-linecap="round" stroke-linejoin="round"/>
<path d="M11.4414 8.00391H11.6258C12.087 8.00393 12.4852 8.27276 12.5802 8.6483L14.2049 15.0694C14.2999 15.445 14.6981 15.7139 15.1593 15.7139H20.7081" stroke="#20336B" stroke-linecap="round" stroke-linejoin="round"/>
<path fill-rule="evenodd" clip-rule="evenodd" d="M14.8566 17.3385C15.2606 17.3385 15.5882 17.0659 15.5882 16.7298C15.5882 16.3936 15.2606 16.1211 14.8566 16.1211C14.4525 16.1211 14.125 16.3936 14.125 16.7298C14.125 17.0659 14.4525 17.3385 14.8566 17.3385Z" stroke="#20336B" stroke-linecap="round" stroke-linejoin="round"/>
<path fill-rule="evenodd" clip-rule="evenodd" d="M19.7316 17.3385C20.1356 17.3385 20.4632 17.0659 20.4632 16.7298C20.4632 16.3936 20.1356 16.1211 19.7316 16.1211C19.3275 16.1211 19 16.3936 19 16.7298C19 17.0659 19.3275 17.3385 19.7316 17.3385Z" stroke="#20336B" stroke-linecap="round" stroke-linejoin="round"/>
</g>
</g>
<path d="M13.1299 19.0157H2.26378C1.66361 19.015 1.08822 18.7763 0.663839 18.3519C0.239454 17.9275 0.000718911 17.3521 0 16.7519V2.26378C0.000718911 1.66361 0.239454 1.08822 0.663839 0.663839C1.08822 0.239454 1.66361 0.000718911 2.26378 0H9.26337C9.56486 0.000201924 9.8633 0.0603472 10.1413 0.176938C10.4194 0.293528 10.6714 0.464236 10.8829 0.679133L14.7485 4.63576C15.1631 5.05905 15.3949 5.62832 15.3937 6.22086V9.59388C15.3937 9.71396 15.346 9.82912 15.2611 9.91403C15.1762 9.99894 15.061 10.0466 14.9409 10.0466C14.8208 10.0466 14.7057 9.99894 14.6208 9.91403C14.5359 9.82912 14.4882 9.71396 14.4882 9.59388V6.22086C14.4884 5.86543 14.3492 5.52409 14.1006 5.27007L10.2345 1.31299C10.1078 1.18396 9.95671 1.08147 9.78997 1.0115C9.62322 0.94154 9.4442 0.905507 9.26337 0.905511H2.26378C1.90354 0.905511 1.55806 1.04861 1.30334 1.30334C1.04861 1.55806 0.905511 1.90354 0.905511 2.26378V16.7519C0.905511 17.1122 1.04861 17.4577 1.30334 17.7124C1.55806 17.9671 1.90354 18.1102 2.26378 18.1102H13.1299C13.3007 18.1109 13.47 18.0778 13.6279 18.0129C13.739 17.9672 13.8637 17.9675 13.9745 18.0137C14.0854 18.0599 14.1733 18.1483 14.219 18.2594C14.2647 18.3705 14.2644 18.4951 14.2182 18.606C14.1719 18.7168 14.0836 18.8048 13.9725 18.8505C13.7052 18.9603 13.4189 19.0164 13.1299 19.0157Z" fill="#20336B"/>
<path d="M14.7552 5.88609H11.7716C11.1714 5.88537 10.596 5.64663 10.1717 5.22225C9.74727 4.79787 9.50853 4.22248 9.50781 3.62231V0.59338C9.50781 0.473302 9.55551 0.358142 9.64042 0.273234C9.72533 0.188326 9.84049 0.140625 9.96057 0.140625C10.0806 0.140625 10.1958 0.188326 10.2807 0.273234C10.3656 0.358142 10.4133 0.473302 10.4133 0.59338V3.62231C10.4133 3.98255 10.5564 4.32803 10.8111 4.58275C11.0659 4.83748 11.4114 4.98058 11.7716 4.98058H14.7552C14.8753 4.98058 14.9905 5.02828 15.0754 5.11319C15.1603 5.1981 15.208 5.31326 15.208 5.43333C15.208 5.55341 15.1603 5.66857 15.0754 5.75348C14.9905 5.83839 14.8753 5.88609 14.7552 5.88609Z" fill="#20336B"/>
<path d="M6.78573 4.53051H3.16369C3.04361 4.53051 2.92845 4.48281 2.84355 4.3979C2.75864 4.31299 2.71094 4.19783 2.71094 4.07776C2.71094 3.95768 2.75864 3.84252 2.84355 3.75761C2.92845 3.6727 3.04361 3.625 3.16369 3.625H6.78573C6.90581 3.625 7.02097 3.6727 7.10588 3.75761C7.19079 3.84252 7.23849 3.95768 7.23849 4.07776C7.23849 4.19783 7.19079 4.31299 7.10588 4.3979C7.02097 4.48281 6.90581 4.53051 6.78573 4.53051ZM9.50227 7.24704H3.16369C3.04361 7.24704 2.92845 7.19934 2.84355 7.11443C2.75864 7.02953 2.71094 6.91436 2.71094 6.79429C2.71094 6.67421 2.75864 6.55905 2.84355 6.47414C2.92845 6.38923 3.04361 6.34153 3.16369 6.34153H9.50227C9.62234 6.34153 9.7375 6.38923 9.82241 6.47414C9.90732 6.55905 9.95502 6.67421 9.95502 6.79429C9.95502 6.91436 9.90732 7.02953 9.82241 7.11443C9.7375 7.19934 9.62234 7.24704 9.50227 7.24704ZM10.4078 9.96357H3.16369C3.04361 9.96357 2.92845 9.91587 2.84355 9.83096C2.75864 9.74606 2.71094 9.6309 2.71094 9.51082C2.71094 9.39074 2.75864 9.27558 2.84355 9.19067C2.92845 9.10576 3.04361 9.05806 3.16369 9.05806H10.4078C10.5279 9.05806 10.643 9.10576 10.7279 9.19067C10.8128 9.27558 10.8605 9.39074 10.8605 9.51082C10.8605 9.6309 10.8128 9.74606 10.7279 9.83096C10.643 9.91587 10.5279 9.96357 10.4078 9.96357ZM7.69125 12.6801H3.16369C3.04361 12.6801 2.92845 12.6324 2.84355 12.5475C2.75864 12.4626 2.71094 12.3474 2.71094 12.2273C2.71094 12.1073 2.75864 11.9921 2.84355 11.9072C2.92845 11.8223 3.04361 11.7746 3.16369 11.7746H7.69125C7.81132 11.7746 7.92648 11.8223 8.01139 11.9072C8.0963 11.9921 8.144 12.1073 8.144 12.2273C8.144 12.3474 8.0963 12.4626 8.01139 12.5475C7.92648 12.6324 7.81132 12.6801 7.69125 12.6801ZM7.69125 15.3966H3.16369C3.04361 15.3966 2.92845 15.3489 2.84355 15.264C2.75864 15.1791 2.71094 15.064 2.71094 14.9439C2.71094 14.8238 2.75864 14.7086 2.84355 14.6237C2.92845 14.5388 3.04361 14.4911 3.16369 14.4911H7.69125C7.81132 14.4911 7.92648 14.5388 8.01139 14.6237C8.0963 14.7086 8.144 14.8238 8.144 14.9439C8.144 15.064 8.0963 15.1791 8.01139 15.264C7.92648 15.3489 7.81132 15.3966 7.69125 15.3966Z" fill="#24BAF2"/>
<defs>
<clipPath id="clip0_3183_9051">
<rect width="14.0465" height="15.217" fill="white" transform="translate(9.95312 2.92969)"/>
</clipPath>
</defs>
</svg>
