<svg width="24" height="24" viewBox="0 0 24 24" fill="none" xmlns="http://www.w3.org/2000/svg">
<path d="M9.17188 9.09375H14.8284" stroke="#00BAF2" stroke-linecap="square"/>
<path d="M9.17188 10.2227H14.8284" stroke="#00BAF2" stroke-linecap="square"/>
<path d="M13.7027 11.9198H13.1371L10.8744 7.39453H10.2734V11.9198" stroke="#00BAF2" stroke-linecap="square"/>
<path d="M13.7344 11.9198V7.39453" stroke="#00BAF2" stroke-linecap="square"/>
<path d="M22.6355 5.78152C23.3878 5.78152 24 5.25577 24 4.6096V1.17193C24 0.525751 23.3878 0 22.6355 0H20.0544C19.8282 0 19.645 0.15736 19.645 0.351563C19.645 0.545767 19.8282 0.703127 20.0544 0.703127H22.6355C22.9364 0.703127 23.1813 0.913412 23.1813 1.17193V4.6096C23.1813 4.86812 22.9364 5.0784 22.6355 5.0784H18.7815V3.6174H20.7472C21.2471 3.6174 21.6536 3.26823 21.6536 2.83899V2.27058C21.6536 1.84134 21.2471 1.49217 20.7472 1.49217H3.25287C2.75306 1.49217 2.34648 1.84134 2.34648 2.27058V2.83894C2.34648 3.26817 2.75306 3.61735 3.25287 3.61735H5.5696V5.07836H1.36466C1.06364 5.07836 0.81873 4.86807 0.81873 4.60955V1.17193C0.81873 0.913412 1.06369 0.703127 1.36466 0.703127H18.4175C18.6437 0.703127 18.8269 0.545767 18.8269 0.351563C18.8269 0.15736 18.6437 0 18.4175 0H1.36466C0.612192 0 0 0.525751 0 1.17193V4.6096C0 5.25577 0.612192 5.78152 1.36466 5.78152H5.5696V11.2972C5.5696 11.4914 5.75284 11.6487 5.97896 11.6487C6.2051 11.6487 6.38834 11.4914 6.38834 11.2972V3.6174H7.10668V14.9147C7.10668 15.1089 7.28992 15.2662 7.51605 15.2662C8.54416 15.2662 9.38058 15.9846 9.38058 16.8675C9.38058 17.0618 9.5638 17.2191 9.78994 17.2191H14.5611C14.7873 17.2191 14.9705 17.0618 14.9705 16.8675C14.9705 16.2041 15.4527 15.6098 16.1623 15.3739L16.3078 15.6154C16.3255 15.6451 16.3308 15.6709 16.3053 15.6975C15.7323 16.2954 15.4942 17.0826 15.6366 17.836H6.50236C6.43953 17.836 6.38834 17.7921 6.38834 17.7381V12.7028C6.38834 12.5087 6.2051 12.3512 5.97896 12.3512C5.75284 12.3512 5.5696 12.5087 5.5696 12.7028V17.7381C5.5696 18.1798 5.98803 18.5391 6.50236 18.5391H15.8539C15.8967 18.6985 15.9208 18.8611 15.9253 19.025L15.9657 20.6996H15.5777C15.0775 20.6996 14.6858 21.1003 14.6858 21.6118V23.0879C14.6858 23.5994 15.0775 24.0001 15.5777 24.0001H17.5538C17.7798 24.0001 17.9631 23.8427 17.9631 23.6485C17.9631 23.4543 17.7798 23.2969 17.5538 23.2969H15.5888C15.5605 23.2792 15.5046 23.2042 15.5046 23.0879V21.6118C15.5046 21.4955 15.5605 21.4203 15.5888 21.4027H21.5921C21.6204 21.4203 21.6763 21.4955 21.6763 21.6118V23.0879C21.6763 23.2041 21.6204 23.2792 21.5921 23.2969H19.1905C18.9643 23.2969 18.7811 23.4543 18.7811 23.6485C18.7811 23.8427 18.9643 24.0001 19.1905 24.0001H21.6032C22.1034 24.0001 22.495 23.5994 22.495 23.0879V21.6118C22.495 21.1003 22.1034 20.6996 21.6032 20.6996H20.9896V19.1898C20.9896 18.9042 21.0887 18.6286 21.2764 18.3928L23.2214 15.9489C24.1816 14.7423 23.9928 13.1274 22.7724 12.1088L18.7814 8.77806V5.78152H22.6355ZM17.9628 12.2616L17.2445 11.6202V3.6174H17.9628V12.2616ZM3.25287 2.91427C3.20451 2.91427 3.16521 2.88048 3.16521 2.83899V2.27058C3.16521 2.22905 3.20457 2.1953 3.25287 2.1953H20.7472C20.7955 2.1953 20.8349 2.22909 20.8349 2.27058V2.83894C20.8349 2.88048 20.7954 2.91422 20.7472 2.91422C18.1886 2.91427 3.81469 2.91427 3.25287 2.91427ZM14.1835 16.516H10.1682C9.99102 15.5262 9.07792 14.742 7.92547 14.5899V3.6174H16.4258V10.9176C15.8921 10.5869 15.1403 10.6223 14.6508 11.0329C14.2124 11.4009 14.1071 11.962 14.3887 12.4296L15.7846 14.747C14.9339 15.0586 14.3254 15.7328 14.1835 16.516ZM22.2019 12.6131C23.1359 13.3926 23.2804 14.6288 22.5454 15.5522L20.6005 17.9961C20.3194 18.3493 20.1709 18.762 20.1709 19.1898V20.6996H16.7846L16.7438 19.0095C16.7349 18.6829 16.6669 18.3609 16.5415 18.0526C16.2782 17.4051 16.4299 16.6739 16.9374 16.1444C17.171 15.9007 17.2081 15.5654 17.0328 15.2885L15.1159 12.1064C15.0009 11.9155 15.0439 11.6861 15.223 11.5358C15.4516 11.344 15.8113 11.3549 16.0259 11.5465L19.6047 14.7418C19.7615 14.8817 20.0207 14.8861 20.1835 14.7515C20.3464 14.6169 20.3515 14.3943 20.1948 14.2544L18.7814 12.9925V9.7585L22.2019 12.6131Z" fill="#20336B"/>
<path d="M8.49392 15.9983C8.7121 15.9983 8.8889 15.7993 8.8889 15.5539C8.8889 15.3084 8.7121 15.1094 8.49392 15.1094H8.39498C8.17679 15.1094 8 15.3084 8 15.5539C8 15.7993 8.17679 15.9983 8.39498 15.9983H8.49392Z" fill="#20336B"/>
</svg>
