<svg width="23" height="25" viewBox="0 0 23 25" fill="none" xmlns="http://www.w3.org/2000/svg">
<path d="M1.08399 9.83899C0.917994 10.751 0.870994 11.685 0.943994 12.616L3.05799 12.453C2.99899 11.701 3.037 10.947 3.171 10.212L1.08399 9.83899ZM3.40699 9.24099C3.62699 8.52299 3.938 7.83499 4.335 7.19599L2.52699 6.09699C2.03599 6.88999 1.64899 7.743 1.37699 8.634L3.40699 9.24099ZM7.35999 4.23699C8.01099 3.85199 8.709 3.55299 9.438 3.34599L8.854 1.328C7.95 1.584 7.083 1.95599 6.274 2.43299L7.35999 4.23699ZM15.827 3.91899L16.771 2.039C15.929 1.624 15.037 1.31899 14.116 1.12999L13.686 3.18599C14.429 3.33799 15.148 3.58499 15.827 3.91899ZM10.932 0.946992C10.645 0.971992 10.356 1.00899 10.074 1.05499L10.423 3.12599C10.653 3.08899 10.884 3.059 11.116 3.039C11.641 2.99399 12.17 2.99399 12.689 3.03999L12.878 0.948991C12.231 0.891991 11.579 0.890992 10.932 0.946992ZM3.24099 5.08099L4.91099 6.37399C5.37799 5.78199 5.92 5.25199 6.524 4.79599L5.238 3.12699C4.491 3.69099 3.81999 4.34799 3.24099 5.08099ZM13.602 18.042L9.98599 21.532C9.81899 21.694 9.84 21.931 10.033 22.061L14.206 24.876C14.4 25.007 14.54 24.925 14.52 24.694L14.315 22.377C14.361 22.367 14.406 22.356 14.452 22.346C14.474 22.34 14.497 22.335 14.519 22.33C14.683 22.29 14.846 22.246 15.008 22.199C15.024 22.194 15.039 22.189 15.054 22.185C15.233 22.132 15.411 22.075 15.588 22.013L15.587 22.011C15.983 21.87 16.366 21.707 16.739 21.524L16.741 21.529C17.584 21.117 18.371 20.6 19.081 19.989L19.076 19.983C19.391 19.712 19.691 19.425 19.972 19.121L19.977 19.125C20.612 18.44 21.156 17.677 21.595 16.854L21.589 16.851C21.785 16.486 21.959 16.111 22.111 15.727L22.116 15.729C22.391 15.033 22.591 14.311 22.715 13.575L22.72 13.545C22.749 13.374 22.774 13.201 22.794 13.028C22.841 12.622 22.863 12.209 22.863 11.792H22.866C22.866 11.665 22.864 11.538 22.859 11.411C22.858 11.382 22.856 11.353 22.855 11.324C22.849 11.185 22.84 11.047 22.829 10.909C22.827 10.882 22.826 10.855 22.824 10.829C22.823 10.814 22.82 10.8 22.819 10.786C22.806 10.641 22.789 10.497 22.77 10.354C22.764 10.302 22.756 10.251 22.748 10.199C22.732 10.09 22.714 9.98199 22.695 9.87399C22.687 9.82599 22.679 9.779 22.67 9.732C22.643 9.593 22.614 9.45499 22.582 9.31799C22.569 9.26499 22.556 9.21099 22.542 9.15799C22.532 9.11699 22.523 9.076 22.513 9.036L22.51 9.037C22.406 8.636 22.279 8.242 22.129 7.856H22.13C22.128 7.852 22.126 7.847 22.124 7.843C22.092 7.76 22.058 7.67899 22.024 7.59699C22.004 7.54999 21.984 7.50399 21.964 7.45799C21.84 7.17399 21.704 6.89599 21.556 6.62399C21.543 6.59999 21.53 6.575 21.516 6.551C21.362 6.272 21.195 5.99999 21.016 5.73599C20.996 5.70599 20.975 5.676 20.954 5.646C20.9 5.567 20.845 5.488 20.788 5.411L20.787 5.412C20.542 5.077 20.278 4.757 19.997 4.452L19.999 4.44999C19.962 4.40999 19.923 4.37099 19.886 4.33099C19.849 4.29299 19.814 4.255 19.777 4.217C19.674 4.112 19.569 4.00899 19.461 3.90799C19.432 3.88099 19.403 3.854 19.374 3.827C19.273 3.734 19.17 3.64299 19.066 3.55299C19.052 3.542 19.04 3.52899 19.026 3.51799C19.023 3.51499 19.02 3.513 19.017 3.511C18.65 3.2 18.262 2.91399 17.857 2.65299L16.703 4.414C17.047 4.63599 17.375 4.88 17.685 5.146C17.796 5.242 17.905 5.34 18.011 5.441C18.04 5.467 18.066 5.495 18.094 5.521C18.194 5.619 18.292 5.71799 18.388 5.81999C18.633 6.08199 18.862 6.35499 19.071 6.64099C19.112 6.69799 19.152 6.756 19.193 6.814C19.26 6.91 19.324 7.007 19.387 7.105C19.396 7.119 19.404 7.133 19.413 7.146C19.492 7.273 19.568 7.40099 19.641 7.53099C19.662 7.56899 19.682 7.60599 19.702 7.64299C19.737 7.70599 19.77 7.76999 19.803 7.83399C19.832 7.89099 19.86 7.949 19.888 8.007C19.954 8.146 20.018 8.28699 20.077 8.42899C20.099 8.48199 20.121 8.53499 20.142 8.58799C20.281 8.94199 20.396 9.305 20.488 9.675C20.497 9.712 20.506 9.748 20.515 9.785C20.541 9.899 20.566 10.014 20.588 10.129C20.595 10.164 20.6 10.199 20.606 10.233C20.623 10.325 20.638 10.416 20.651 10.508C20.657 10.547 20.663 10.587 20.668 10.626C20.684 10.743 20.697 10.861 20.708 10.979C20.711 11.01 20.713 11.042 20.716 11.073C20.725 11.187 20.732 11.301 20.737 11.415C20.738 11.437 20.739 11.458 20.74 11.48C20.797 13.115 20.392 14.672 19.636 16.02C19.634 16.025 19.631 16.029 19.629 16.033C19.425 16.394 19.196 16.741 18.944 17.071C18.939 17.077 18.934 17.083 18.93 17.089C17.891 18.438 16.463 19.487 14.795 20.061C14.672 20.103 14.548 20.144 14.423 20.18L14.419 20.181C14.323 20.21 14.226 20.234 14.128 20.259L13.944 18.167C13.923 17.937 13.77 17.881 13.602 18.042Z" fill="#20336B"/>
<path d="M14.806 15.375C14.734 15.375 14.662 15.358 14.597 15.326C14.532 15.294 14.476 15.247 14.432 15.19L9.662 8.89099V14.912C9.662 15.168 9.453 15.375 9.194 15.375C8.936 15.375 8.72701 15.168 8.72701 14.912V7.50199C8.72701 7.40499 8.757 7.31 8.815 7.231C8.872 7.153 8.95301 7.094 9.04601 7.063C9.13901 7.032 9.24 7.03099 9.334 7.05999C9.427 7.08899 9.50899 7.14699 9.56799 7.22399L14.339 13.523V7.50199C14.339 7.24599 14.548 7.039 14.806 7.039C15.064 7.039 15.274 7.24599 15.274 7.50199V14.912C15.274 14.973 15.262 15.033 15.238 15.089C15.215 15.145 15.18 15.196 15.137 15.239C15.094 15.282 15.042 15.316 14.985 15.34C14.929 15.363 14.868 15.375 14.806 15.375Z" fill="#4ABCEB"/>
<path d="M15.973 10.747H8.022C7.764 10.747 7.55499 10.539 7.55499 10.283C7.55499 10.028 7.764 9.82001 8.022 9.82001H15.973C16.231 9.82001 16.44 10.028 16.44 10.283C16.44 10.539 16.231 10.747 15.973 10.747ZM15.973 12.599H8.022C7.764 12.599 7.55499 12.392 7.55499 12.136C7.55499 11.88 7.764 11.673 8.022 11.673H15.973C16.231 11.673 16.44 11.88 16.44 12.136C16.44 12.392 16.231 12.599 15.973 12.599Z" fill="#4ABCEB"/>
</svg>
