<svg width="21" height="27" viewBox="0 0 21 27" fill="none" xmlns="http://www.w3.org/2000/svg">
<path fill-rule="evenodd" clip-rule="evenodd" d="M2.3019 26.7398C2.0365 26.6602 1.7646 26.6005 1.5125 26.4877C0.537399 26.0432 -0.00660069 25.3069 9.93098e-05 24.2058C9.93098e-05 18.2091 9.93098e-05 12.2124 9.93098e-05 6.2158C9.93098e-05 4.7166 1.1676 3.5292 2.6667 3.5027C3.4561 3.4894 4.2521 3.5027 5.0813 3.5027C5.0813 3.1976 5.0813 2.9057 5.0813 2.6138C5.0813 2.1229 5.2538 1.9306 5.7513 1.9173C6.3085 1.904 6.8657 1.9107 7.4229 1.9107C7.5556 1.9107 7.6352 1.8841 7.7015 1.7448C8.2521 0.583956 9.1742 -0.0130535 10.4544 0.000216468C11.728 0.0134765 12.6966 0.537526 13.2405 1.7448C13.2736 1.8244 13.3997 1.8974 13.486 1.904C14.0099 1.9173 14.5273 1.9107 15.0514 1.9107C15.1974 1.9107 15.3499 1.9173 15.4892 1.9571C15.7877 2.0367 15.9072 2.1959 15.9072 2.501C15.9138 2.8194 15.9072 3.1445 15.9072 3.4894C16.2123 3.4894 16.4975 3.4828 16.7828 3.4894C17.4329 3.5027 18.0896 3.4629 18.7397 3.5425C20.0133 3.7017 20.995 4.8427 20.995 6.1229C21.0017 12.1793 21.0017 18.2356 20.995 24.292C20.995 25.4662 20.1194 26.4346 18.8922 26.6668C18.8259 26.6801 18.7595 26.6999 18.6932 26.7199C13.2405 26.7398 7.7745 26.7398 2.3019 26.7398ZM5.0879 4.8028C5.0282 4.7829 5.0083 4.7763 4.9951 4.7763C4.2787 4.7763 3.5689 4.7697 2.8525 4.7697C1.8442 4.7697 1.2671 5.3468 1.2671 6.3551C1.2671 12.2655 1.2671 18.1759 1.2671 24.0798C1.2671 24.146 1.2671 24.219 1.2671 24.2854C1.2803 24.6701 1.4462 24.9686 1.7646 25.1809C2.0697 25.3866 2.4146 25.4528 2.7795 25.4528C7.9204 25.4528 13.068 25.4528 18.2089 25.4528C18.3549 25.4528 18.5074 25.4396 18.6534 25.4196C19.3499 25.3003 19.7413 24.8426 19.7413 24.1394C19.7413 18.1892 19.7413 12.2324 19.7413 6.2821C19.7413 5.3733 19.151 4.7763 18.2488 4.763C17.7181 4.7564 17.1874 4.763 16.6567 4.763C16.4246 4.763 16.1924 4.763 15.9734 4.763C15.9469 4.8028 15.9337 4.8227 15.9337 4.836C15.927 5.2738 15.927 5.705 15.927 6.1428C15.927 6.7398 15.6816 6.9919 15.0913 6.9919C12.0265 6.9919 8.9619 6.9919 5.9039 6.9919C5.34 6.9919 5.0946 6.7464 5.0946 6.1826C5.0879 5.7249 5.0879 5.2672 5.0879 4.8028ZM14.6269 3.1777C14.0829 3.1777 13.5655 3.1777 13.0415 3.1777C12.5042 3.1777 12.3118 3.0317 12.1658 2.5143C11.9337 1.6785 11.1642 1.1213 10.335 1.1876C9.5788 1.2407 8.9486 1.7913 8.7297 2.5806C8.6103 3.0185 8.3914 3.1777 7.9403 3.1843C7.7745 3.1843 7.6086 3.1843 7.4428 3.1843C7.0912 3.1843 6.733 3.1843 6.3881 3.1843C6.3881 4.0533 6.3881 4.8825 6.3881 5.7183C9.1476 5.7183 11.8806 5.7183 14.6269 5.7183C14.6269 4.8692 14.6269 4.04 14.6269 3.1777Z" fill="#20336B"/>
<path d="M13.5258 10.501C14.7198 10.501 15.9072 10.501 17.1012 10.501C17.4661 10.501 17.7182 10.6735 17.8043 10.9654C17.9039 11.3169 17.6783 11.6885 17.3135 11.7547C17.2008 11.7747 17.088 11.7747 16.9752 11.7747C14.68 11.7747 12.3848 11.7747 10.0897 11.7747C9.9967 11.7747 9.8973 11.7747 9.8044 11.7614C9.4595 11.715 9.2339 11.4629 9.2405 11.1246C9.2472 10.793 9.4793 10.5275 9.8243 10.501C10.0498 10.4811 10.2754 10.4944 10.5009 10.4944C11.5092 10.501 12.5175 10.501 13.5258 10.501Z" fill="#20336B"/>
<path d="M13.5522 20.6834C14.7064 20.6834 15.8673 20.6834 17.0215 20.6834C17.1476 20.6834 17.2869 20.69 17.4062 20.7298C17.6716 20.816 17.8374 21.0681 17.8242 21.3534C17.8109 21.632 17.6251 21.8708 17.3465 21.9305C17.2404 21.957 17.121 21.9637 17.0083 21.9637C14.6932 21.9637 12.3847 21.9637 10.0697 21.9637C9.9635 21.9637 9.8573 21.957 9.7578 21.9438C9.4527 21.8907 9.2471 21.6453 9.2404 21.3468C9.2338 21.0416 9.4129 20.7895 9.7181 20.7166C9.8242 20.69 9.9436 20.69 10.0563 20.69C11.2173 20.6834 12.3847 20.6834 13.5522 20.6834Z" fill="#20336B"/>
<path d="M13.539 15.5955C14.733 15.5955 15.9205 15.5955 17.1145 15.5955C17.5058 15.5955 17.7646 15.7945 17.8176 16.1196C17.8774 16.4977 17.612 16.8294 17.2273 16.8626C17.088 16.8758 16.9487 16.8691 16.8094 16.8691C14.534 16.8691 12.2521 16.8691 9.9769 16.8691C9.5324 16.8691 9.2604 16.637 9.2405 16.2656C9.2273 15.8741 9.486 15.6088 9.9105 15.6022C10.7596 15.5955 11.6154 15.6022 12.4644 15.6022C12.8226 15.5955 13.1808 15.5955 13.539 15.5955Z" fill="#20336B"/>
<path d="M5.1476 16.1129C5.7778 15.5093 6.408 14.899 7.0514 14.302C7.1708 14.1959 7.3168 14.0963 7.4627 14.0499C7.7413 13.9703 8.0266 14.1229 8.1659 14.375C8.3052 14.6337 8.272 14.899 8.0266 15.1312C7.3101 15.8144 6.5937 16.4977 5.8707 17.1809C5.7579 17.2871 5.6451 17.3998 5.5257 17.4993C5.2538 17.7249 4.9287 17.7182 4.6766 17.4728C4.2322 17.035 3.7944 16.5839 3.3632 16.1262C3.1045 15.8543 3.1178 15.443 3.3632 15.2108C3.6153 14.9653 3.9868 14.9853 4.272 15.2638C4.4179 15.4031 4.5506 15.5558 4.6899 15.6951C4.8425 15.8343 4.9884 15.9604 5.1476 16.1129Z" fill="#00BAF2"/>
<path d="M5.1476 11.0184C5.7977 10.4015 6.4477 9.778 7.0978 9.1677C7.3632 8.9156 7.6351 8.8692 7.9005 9.0217C8.2852 9.234 8.3781 9.705 8.0597 10.0101C7.2239 10.8195 6.3748 11.6221 5.5257 12.4114C5.267 12.6502 4.9353 12.6304 4.6832 12.3783C4.2521 11.9471 3.8275 11.5159 3.4096 11.0715C3.1244 10.773 3.1244 10.3683 3.3831 10.1162C3.6352 9.8774 4.0265 9.9106 4.3118 10.2025C4.5771 10.4678 4.8358 10.7332 5.0945 11.0052C5.1012 11.0052 5.1144 11.0052 5.1476 11.0184Z" fill="#00BAF2"/>
<path d="M5.1675 21.1876C5.7977 20.5906 6.4478 19.9604 7.1045 19.3435C7.3831 19.0781 7.7015 19.0516 7.9735 19.2639C8.2919 19.5094 8.345 19.914 8.0597 20.1926C7.2239 21.0019 6.3748 21.8045 5.5258 22.5938C5.2604 22.8459 4.9287 22.8194 4.6634 22.5541C4.2389 22.1295 3.821 21.705 3.403 21.2672C3.1178 20.9687 3.1112 20.564 3.3632 20.3119C3.6153 20.0665 4.0067 20.1064 4.3118 20.3982C4.5904 20.6569 4.869 20.909 5.1675 21.1876Z" fill="#00BAF2"/>
</svg>
