<svg width="25" height="26" viewBox="0 0 25 26" fill="none" xmlns="http://www.w3.org/2000/svg">
<path fill-rule="evenodd" clip-rule="evenodd" d="M10.5 0C8.8431 0 7.5 1.343 7.5 3V8H11V17H7.5V23C7.5 24.657 8.8431 26 10.5 26H21.5C23.1569 26 24.5 24.657 24.5 23V3C24.5 1.343 23.1569 0 21.5 0H10.5Z" fill="#20336B"/>
<path d="M23.3 3H9V22H23.3V3Z" fill="white"/>
<path d="M16.2 18.2C19.2375 18.2 21.7 15.7376 21.7 12.7C21.7 9.66245 19.2375 7.20001 16.2 7.20001C13.1624 7.20001 10.7 9.66245 10.7 12.7C10.7 15.7376 13.1624 18.2 16.2 18.2Z" fill="#20336B"/>
<path d="M17.8068 15.526C17.7591 15.526 17.7114 15.515 17.6683 15.494C17.6252 15.472 17.5881 15.441 17.5589 15.403L14.3968 11.228V15.219C14.3968 15.389 14.2583 15.526 14.0866 15.526C13.9155 15.526 13.777 15.389 13.777 15.219V10.307C13.777 10.243 13.7969 10.18 13.8353 10.127C13.8731 10.076 13.9268 10.036 13.9884 10.016C14.0501 9.99501 14.117 9.99501 14.1794 10.014C14.241 10.033 14.2954 10.072 14.3345 10.123L17.4973 14.298V10.307C17.4973 10.137 17.6358 10 17.8068 10C17.9779 10 18.1171 10.137 18.1171 10.307V15.219C18.1171 15.26 18.1091 15.299 18.0932 15.336C18.078 15.374 18.0548 15.407 18.0262 15.436C17.9977 15.464 17.9633 15.487 17.9255 15.503C17.8884 15.518 17.8479 15.526 17.8068 15.526Z" fill="white"/>
<path d="M18.5804 12.458H13.3096C13.1386 12.458 13 12.32 13 12.15C13 11.981 13.1386 11.844 13.3096 11.844H18.5804C18.7515 11.844 18.89 11.981 18.89 12.15C18.89 12.32 18.7515 12.458 18.5804 12.458ZM18.5804 13.686H13.3096C13.1386 13.686 13 13.549 13 13.379C13 13.209 13.1386 13.072 13.3096 13.072H18.5804C18.7515 13.072 18.89 13.209 18.89 13.379C18.89 13.549 18.7515 13.686 18.5804 13.686Z" fill="white"/>
<path d="M5 10H10" stroke="#4ABCEB" stroke-linecap="round"/>
<path d="M3 12.8H9" stroke="#4ABCEB" stroke-linecap="round"/>
<path d="M5 15.5H10" stroke="#4ABCEB" stroke-linecap="round"/>
<path d="M3.25 10.7C3.66421 10.7 4 10.3642 4 9.95001C4 9.5358 3.66421 9.20001 3.25 9.20001C2.83579 9.20001 2.5 9.5358 2.5 9.95001C2.5 10.3642 2.83579 10.7 3.25 10.7Z" fill="#4ABCEB"/>
<path d="M1.25 13.5C1.66421 13.5 2 13.1642 2 12.75C2 12.3358 1.66421 12 1.25 12C0.835786 12 0.5 12.3358 0.5 12.75C0.5 13.1642 0.835786 13.5 1.25 13.5Z" fill="#4ABCEB"/>
<path d="M3.25 16.3C3.66421 16.3 4 15.9642 4 15.55C4 15.1358 3.66421 14.8 3.25 14.8C2.83579 14.8 2.5 15.1358 2.5 15.55C2.5 15.9642 2.83579 16.3 3.25 16.3Z" fill="#4ABCEB"/>
</svg>
