<svg width="26" height="21" viewBox="0 0 26 21" fill="none" xmlns="http://www.w3.org/2000/svg">
<path d="M20.7047 9.87692L24.1409 11.3087" stroke="#00BAF2" stroke-linecap="round"/>
<path d="M22.1365 1.85907L19.8457 4.72259" stroke="#00BAF2" stroke-linecap="round"/>
<path d="M20.9911 7.01338L25 6.15433" stroke="#00BAF2" stroke-linecap="round"/>
<path d="M3.21235 14.4184C1.39372 13.4343 0.227642 11.234 2.09081 9.14904C2.14423 9.08926 2.24243 9.1157 2.25917 9.1941L3.35179 14.3116C3.36918 14.393 3.28558 14.458 3.21235 14.4184Z" fill="#20336B" stroke="#20336B" stroke-width="0.5"/>
<path d="M9.43946 15.3476L5.93623 16.4255C5.87424 16.4446 5.84688 16.5173 5.88019 16.573C6.96528 18.386 7.5947 19.3775 8.63992 20.4337C8.6635 20.4575 8.69819 20.4679 8.73105 20.4612C10.2597 20.152 11.0851 19.9194 12.2597 19.3906C12.3258 19.3608 12.3389 19.2726 12.2843 19.2248L10.1319 17.3415C10.1174 17.3288 10.1069 17.3122 10.1016 17.2937L9.56502 15.4157C9.54963 15.3618 9.493 15.3311 9.43946 15.3476Z" fill="#20336B" stroke="#20336B" stroke-width="0.5"/>
<path d="M9.61712 6.98325C12.0593 6.05166 13.7408 4.22854 15.9888 1.18251C16.0403 1.11271 16.1509 1.13607 16.1682 1.22107L18.9432 14.8187C18.9603 14.9024 18.8702 14.9669 18.7955 14.9258C15.6232 13.1798 14.0292 12.5652 10.7701 12.7357C10.7204 12.7383 10.6751 12.7042 10.6654 12.6553L9.55372 7.09708C9.54408 7.04887 9.57119 7.00077 9.61712 6.98325Z" stroke="#20336B" stroke-width="1.5"/>
<path d="M7.15606 7.02726L3.63098 7.56958C3.57317 7.57847 3.5353 7.63488 3.54895 7.69175L5.21857 14.6485C5.23138 14.7019 5.28481 14.735 5.33829 14.7226L8.86505 13.9087C8.91956 13.8962 8.95315 13.8413 8.93958 13.7871L7.26828 7.10184C7.25575 7.05173 7.20712 7.01941 7.15606 7.02726Z" fill="#20336B" stroke="#20336B" stroke-width="0.5"/>
<path d="M18.5349 10.9352C20.1178 9.70697 20.3361 5.97718 17.4147 5.32485C17.3457 5.30947 17.2835 5.37038 17.2974 5.43962L18.3846 10.8759C18.3986 10.9457 18.4786 10.9788 18.5349 10.9352Z" fill="#20336B" stroke="#20336B" stroke-width="0.5"/>
</svg>
