<svg width="23" height="22" viewBox="0 0 23 22" fill="none" xmlns="http://www.w3.org/2000/svg">
<path d="M0 20.6848V21.3649C0 21.6483 0 21.6579 0.991726 21.6579H8.5H15.5C16 21.6579 16.1511 21.6483 16.1794 21.3649V20.6848C16.1794 17.3412 13.9693 14.4227 10.7674 13.4876C11.7591 12.9492 12.5525 12.0992 13.0342 11.1074C13.4592 11.4475 13.9409 11.7025 14.4227 11.8725V12.4959C14.4227 13.2043 14.9894 13.7993 15.7261 13.7993H16.8595C17.5679 13.7993 18.1629 13.2326 18.1629 12.4959V11.8725C18.7297 11.6742 19.2397 11.3625 19.7214 10.9941L20.2598 11.3058C20.8832 11.6458 21.6766 11.4474 22.0165 10.8241L22.5833 9.8607C22.9516 9.2373 22.7249 8.4439 22.1016 8.07558L21.5632 7.76388C21.6199 7.48052 21.6482 7.16882 21.6482 6.88546C21.6482 6.6021 21.6199 6.2904 21.5632 6.00704L22.1016 5.69534C22.725 5.3553 22.9516 4.56191 22.5833 3.93856C22.5549 3.91022 22.4699 3.76857 22.0165 2.97518C21.6482 2.35178 20.8831 2.15344 20.2598 2.49349L19.7214 2.80519C19.268 2.4368 18.7297 2.12516 18.1629 1.92677V1.30343C18.1629 0.595059 17.5962 0 16.8595 0H15.7261C15.0177 0 14.4227 0.566717 14.4227 1.30343V1.92683C13.8559 2.12516 13.3459 2.43686 12.8642 2.80525L12.3258 2.49355C11.7024 2.1535 10.909 2.35189 10.5691 2.97524L10.1724 3.65526C9.52071 3.3719 8.81229 3.2586 8.10392 3.2586C5.1004 3.2586 2.6352 5.66712 2.6352 8.67064C2.6352 10.6541 3.71195 12.4959 5.44038 13.4593C2.21019 14.3943 0 17.3412 0 20.6848ZM11.3908 3.48527C11.4758 3.34362 11.6458 3.28694 11.8158 3.3719L12.6659 3.8536C12.8642 3.96696 13.0909 3.93862 13.2609 3.79691C13.771 3.31522 14.366 2.97518 15.0461 2.77685C15.2444 2.72016 15.4144 2.52183 15.4144 2.29515V1.33177C15.4144 1.16178 15.5561 1.02007 15.7261 1.02007H16.8596C17.0296 1.02007 17.1713 1.16172 17.1713 1.33177V2.29515C17.1713 2.52183 17.3129 2.72016 17.5397 2.77685C18.1913 2.97518 18.8147 3.31522 19.3248 3.79691C19.4948 3.93856 19.7215 3.96691 19.9198 3.8536L20.7699 3.3719C20.9116 3.28688 21.11 3.34356 21.1949 3.48527L21.7615 4.44866C21.8466 4.59031 21.7899 4.7887 21.6482 4.84532L20.7981 5.32702C20.5998 5.44038 20.5147 5.66706 20.5714 5.86539C20.7414 6.54542 20.7414 7.2255 20.5714 7.90553C20.5147 8.1322 20.6281 8.35888 20.7981 8.4439L21.6482 8.9256C21.7898 9.01062 21.8465 9.18061 21.7615 9.3506L21.1948 10.314C21.1098 10.4556 20.9398 10.5123 20.7981 10.4274L19.9481 9.94566C19.7497 9.8323 19.5231 9.86064 19.353 10.0023C18.843 10.484 18.2479 10.8241 17.5679 11.0224C17.3412 11.0791 17.1995 11.2774 17.1995 11.5041V12.4675C17.1995 12.6375 17.0579 12.7792 16.8878 12.7792H15.7544C15.5844 12.7792 15.4427 12.6375 15.4427 12.4675V11.5041C15.4427 11.2774 15.301 11.0791 15.0743 11.0224C14.4509 10.8524 13.8842 10.5407 13.4025 10.1157C13.5158 9.66236 13.5725 9.12399 13.5725 8.72726C13.5725 6.80043 12.5524 5.10034 11.0506 4.13696L11.3908 3.48527ZM3.59858 8.69892C3.59858 6.23377 5.61037 4.25026 8.07558 4.25026C10.5408 4.25026 12.5526 6.26206 12.5526 8.69892C12.5526 11.0224 10.7958 13.1759 8.04724 13.1759C5.61037 13.1759 3.59858 11.1641 3.59858 8.69892ZM7.50886 14.1676H8.64229C12.2409 14.1676 15.1594 17.0862 15.1594 20.6848H0.991726C0.991726 17.0862 3.91028 14.1676 7.50886 14.1676Z" fill="#4D148C"/>
<path d="M16.2612 9.68551C17.7913 9.68551 19.0097 8.43876 19.0097 6.90866C19.0097 5.37856 17.763 4.16016 16.2329 4.16016C14.7028 4.16016 13.4844 5.4069 13.4844 6.937C13.4844 8.4387 14.7311 9.68551 16.2612 9.68551ZM16.2612 5.15182C17.2529 5.15182 18.018 5.97356 18.018 6.93694C18.018 7.92867 17.1963 8.69372 16.2329 8.69372C15.2695 8.69372 14.4761 7.90033 14.4761 6.9086C14.4761 5.91688 15.2695 5.12348 16.2612 5.15182Z" fill="#FF5B02"/>
<circle cx="16.3" cy="6.76484" r="2.8" fill="#FF5B02"/>
</svg>
