<svg width="24" height="20" viewBox="0 0 24 20" fill="none" xmlns="http://www.w3.org/2000/svg">
<path d="M12.7902 13.5958H19.1882C19.4281 13.5958 19.5881 13.4358 19.5881 13.1959V9.59705C19.5881 9.35712 19.4281 9.19719 19.1882 9.19719H12.7902C12.5503 9.19719 12.3904 9.35712 12.3904 9.59705V13.1959C12.3903 13.4358 12.5503 13.5958 12.7902 13.5958ZM13.1901 9.99691H18.7884V12.796H13.1901V9.99691ZM1.99361 8.39737H5.19263C5.43255 8.39737 5.59249 8.23744 5.59249 7.99752C5.59249 7.75759 5.43255 7.59766 5.19263 7.59766H1.99361C1.75368 7.59766 1.59375 7.75759 1.59375 7.99752C1.59375 8.23744 1.75368 8.39737 1.99361 8.39737ZM6.79211 8.39737H9.99113C10.2311 8.39737 10.391 8.23744 10.391 7.99752C10.391 7.75759 10.2311 7.59766 9.99113 7.59766H6.79211C6.55218 7.59766 6.39225 7.75759 6.39225 7.99752C6.39225 8.23744 6.55218 8.39737 6.79211 8.39737ZM1.99361 9.99691H7.19197C7.43189 9.99691 7.59183 9.83697 7.59183 9.59705C7.59183 9.35712 7.43189 9.19719 7.19197 9.19719H1.99361C1.75368 9.19719 1.59375 9.35712 1.59375 9.59705C1.59375 9.83697 1.75368 9.99691 1.99361 9.99691ZM9.99108 9.19714H8.79145C8.55153 9.19714 8.39159 9.35708 8.39159 9.597C8.39159 9.83693 8.55153 9.99686 8.79145 9.99686H9.99108C10.231 9.99686 10.3909 9.83693 10.3909 9.597C10.3909 9.35708 10.231 9.19714 9.99108 9.19714Z" fill="#FF5B02"/>
<path d="M23.6326 4.23866C23.3527 3.87877 22.9928 3.67882 22.553 3.63885L21.5933 3.52254V1.59948C21.5933 0.719775 20.8735 2.28797e-09 19.9938 2.28797e-09H1.59948C0.719775 -4.68581e-05 0 0.719728 0 1.59948V14.3955C0 15.1178 0.485333 15.7319 1.14588 15.9287C1.12573 16.7376 1.73777 17.4398 2.55923 17.5145L21.0335 19.5939H21.1934C21.9932 19.5939 22.7129 18.994 22.7929 18.2343L23.9925 5.39831C24.0325 4.99841 23.9125 4.55853 23.6326 4.23866ZM0.799766 2.79911H20.7935V5.19836H0.799766V2.79911ZM1.59948 0.799719H19.9937C20.4336 0.799719 20.7935 1.15961 20.7935 1.59948V1.99934H0.799766V1.59948C0.799766 1.15961 1.15965 0.799719 1.59948 0.799719ZM0.799766 14.3955V5.99808H20.7935V14.3955C20.7935 14.8353 20.4336 15.1952 19.9938 15.1952H1.59953C1.15965 15.1952 0.799766 14.8353 0.799766 14.3955ZM23.1927 5.23833L21.9931 18.0743C21.9531 18.5142 21.5532 18.8341 21.1134 18.7941L2.67915 16.7148C2.27929 16.6748 1.99934 16.3549 1.95937 15.995H19.9937C20.8734 15.995 21.5932 15.2752 21.5932 14.3955V4.27863L22.5129 4.35862C22.7129 4.35862 22.9128 4.47858 23.0328 4.63852C23.1528 4.79845 23.2328 5.03838 23.1927 5.23833Z" fill="#4D148C"/>
</svg>
