<svg width="25" height="20" viewBox="0 0 25 20" fill="none" xmlns="http://www.w3.org/2000/svg">
<path d="M13.4397 9.6803C13.7425 9.80408 14.0558 9.88887 14.3727 9.93535L14.4736 10.7307C14.8375 10.7677 15.2045 10.7632 15.5674 10.7174C15.9302 10.6712 16.2866 10.5842 16.6299 10.4581L16.5294 9.66235C16.8276 9.53702 17.1096 9.37608 17.3692 9.18304L18.0027 9.67429C18.571 9.21001 19.0266 8.62291 19.3353 7.95714L18.7013 7.46545C18.8237 7.1659 18.9094 6.85259 18.9563 6.5324L19.7477 6.43234C19.8196 5.70192 19.7246 4.96471 19.4697 4.27643L18.6835 4.37582C18.5583 4.07739 18.3974 3.79522 18.2044 3.5355L18.6941 2.90361C18.4639 2.61907 18.2017 2.36203 17.9126 2.13759C17.6232 1.91431 17.3098 1.72411 16.9781 1.57054L16.4869 2.20399C16.1873 2.08154 15.874 1.9959 15.5538 1.94894L15.4532 1.15364C15.0893 1.11666 14.7223 1.12112 14.3594 1.16693C13.9965 1.21317 13.6401 1.30024 13.2968 1.42649L13.3975 2.22179C13.099 2.34701 12.8169 2.50801 12.5573 2.70125L11.9234 2.20986C11.3548 2.67384 10.8991 3.26102 10.5907 3.92701L11.2248 4.4187C11.1013 4.7216 11.0165 5.03494 10.97 5.35182L10.1789 5.45195C10.1068 6.18244 10.2019 6.91974 10.4568 7.60809L11.243 7.50848C11.3682 7.80691 11.5291 8.08907 11.7222 8.34879L11.2325 8.98022C11.4627 9.2647 11.7249 9.52171 12.0139 9.74617C12.3066 9.97326 12.6206 10.1621 12.9486 10.3141L13.4397 9.6803ZM13.6312 7.66011C13.185 7.30367 12.8969 6.78594 12.8293 6.21881C12.7616 5.65169 12.9199 5.08073 13.2698 4.62935C13.6198 4.17797 14.1333 3.88242 14.6994 3.80659C15.2655 3.73076 15.8387 3.88074 16.2951 4.22411C16.7507 4.57735 17.0474 5.09714 17.1198 5.66911C17.1922 6.24108 17.0344 6.81838 16.6812 7.27403C16.3279 7.72967 15.8081 8.02632 15.2362 8.09873C14.6642 8.17114 14.0869 8.01336 13.6312 7.66011ZM17.9813 15.2865C18.1201 15.3284 18.2603 15.3552 18.3997 15.3706L18.5479 16.0017C19.0743 16.0212 19.5964 15.8992 20.0597 15.6484L19.9112 15.0158C20.1515 14.8617 20.3613 14.6645 20.5298 14.4341L21.1513 14.6217C21.2916 14.4 21.4014 14.1604 21.4779 13.9094C21.5556 13.6521 21.5928 13.3924 21.5999 13.1354L20.9782 12.9478C20.9651 12.6626 20.8995 12.3823 20.7847 12.1209L21.2585 11.6759C21.0111 11.2108 20.6438 10.8204 20.1946 10.5452L19.722 10.989C19.5971 10.9248 19.4661 10.8694 19.327 10.8274C19.1878 10.7854 19.0478 10.759 18.9085 10.7435L18.7603 10.1122C18.2339 10.0929 17.7119 10.2149 17.2486 10.4655L17.397 11.0981C17.1567 11.2522 16.947 11.4494 16.7784 11.6798L16.1567 11.4921C16.0201 11.7101 15.9077 11.9471 15.83 12.2044C15.7524 12.4617 15.715 12.7218 15.7081 12.9784L16.3298 13.1661C16.3428 13.4512 16.4084 13.7316 16.5232 13.9929L16.0495 14.4377C16.2967 14.903 16.6641 15.2934 17.1134 15.5684L17.586 15.1248C17.7125 15.1907 17.8448 15.2448 17.9813 15.2865ZM17.6135 12.7432C17.6967 12.4672 17.8862 12.2355 18.1402 12.0992C18.3943 11.9629 18.6921 11.9331 18.9681 12.0164C19.2441 12.0996 19.4757 12.2891 19.612 12.5431C19.7483 12.7972 19.7782 13.095 19.6949 13.371C19.6537 13.5076 19.586 13.6349 19.4956 13.7454C19.4052 13.8558 19.2939 13.9475 19.1681 14.0149C19.0423 14.0824 18.9045 14.1245 18.7625 14.1387C18.6204 14.1529 18.477 14.139 18.3403 14.0978C18.2036 14.0566 18.0764 13.9889 17.9659 13.8985C17.8554 13.8081 17.7638 13.6968 17.6963 13.571C17.6288 13.4453 17.5868 13.3074 17.5726 13.1654C17.5583 13.0233 17.5722 12.8799 17.6135 12.7432Z" fill="#4D148C"/>
<path fill-rule="evenodd" clip-rule="evenodd" d="M7.57172 19.4548H7.56264C5.8535 19.4429 4.19394 19.415 3.72546 19.4066C1.45429 19.3675 0.57458 18.2043 0.235964 17.2353C-0.245081 15.8577 0.0146416 13.9112 0.966956 11.7553C1.8306 9.79756 3.14876 7.96834 4.49206 6.86103C4.56767 6.79896 4.6648 6.76941 4.76217 6.77883C4.85953 6.78825 4.94919 6.83589 5.0115 6.9113C5.11413 7.03627 8.67205 7.12843 10.0572 7.22687C10.0328 7.11935 10.0572 7.00276 10.1326 6.9113C10.1948 6.83588 10.2843 6.78823 10.3816 6.7788C10.4789 6.76938 10.5759 6.79895 10.6514 6.86103C11.9947 7.96834 13.3128 9.79756 14.1765 11.7553C15.1288 13.9119 15.3885 15.8577 14.9075 17.2353C14.5689 18.2043 13.6892 19.3675 11.418 19.4066C10.4524 19.4233 8.93596 19.445 7.57451 19.4548H7.57172ZM4.96403 5.08207C4.80135 5.08207 4.65264 4.97385 4.60865 4.80908L3.47481 0.579523C3.44549 0.468512 3.46923 0.35052 3.53835 0.259757C3.60816 0.168296 3.71638 0.115234 3.83088 0.115234C4.27073 0.115234 4.63867 0.404978 4.99474 0.684948C5.23981 0.878343 5.51768 1.09687 5.7013 1.09687C5.88562 1.09687 6.1635 0.878343 6.40856 0.684948C6.76463 0.404978 7.13257 0.115234 7.57172 0.115234C8.01157 0.115234 8.37951 0.404978 8.73489 0.684948C8.97995 0.878343 9.25782 1.09687 9.44214 1.09687C9.62646 1.09687 9.90433 0.878343 10.1494 0.684948C10.5055 0.404978 10.8727 0.115234 11.3126 0.115234C11.4271 0.115234 11.5353 0.168296 11.6051 0.259757C11.6749 0.35052 11.6987 0.468512 11.6686 0.579523L10.5355 4.80908C10.523 4.85587 10.5013 4.89972 10.4719 4.93814C10.4424 4.97656 10.4056 5.00878 10.3636 5.03297C10.3217 5.05716 10.2754 5.07284 10.2273 5.0791C10.1793 5.08537 10.1305 5.08211 10.0838 5.0695C9.88758 5.01714 9.77028 5.48073 9.82334 5.28384L9.89665 5.01016H5.24749L5.32079 5.28384C5.37316 5.48073 5.25656 5.01714 5.05968 5.0695C5.02826 5.07858 4.99544 5.08207 4.96403 5.08207Z" fill="#FF5B02"/>
<path fill-rule="evenodd" clip-rule="evenodd" d="M10.4855 7.51348H4.64736C3.77324 7.51348 3.0625 6.80203 3.0625 5.92861C3.0625 5.05449 3.77324 4.34375 4.64736 4.34375H10.4855C11.3596 4.34375 12.0704 5.05449 12.0704 5.92861C12.0704 6.80203 11.3589 7.51348 10.4855 7.51348Z" fill="#DC5206"/>
<path d="M11.0222 13.9251H10.0056V12.9481H11.0222C11.175 12.9481 11.2988 12.8244 11.2988 12.6716C11.2988 12.5188 11.175 12.395 11.0222 12.395H10.0056V11.0393C10.0056 10.8414 9.96652 10.6962 9.88943 10.6077C9.81617 10.5235 9.71984 10.4844 9.58645 10.4844C9.45916 10.4844 9.36646 10.5233 9.29461 10.6069C9.21842 10.6955 9.17975 10.841 9.17975 11.0394V12.3952H7.26748L6.45441 11.1648C6.38858 11.0608 6.3224 10.957 6.25585 10.8534C6.19865 10.7645 6.14285 10.6921 6.09015 10.6381C6.04349 10.5902 5.99033 10.5532 5.92814 10.5247C5.86946 10.4979 5.79486 10.4845 5.70661 10.4845C5.59405 10.4845 5.49187 10.5153 5.39402 10.5787C5.2972 10.6413 5.23027 10.7188 5.18939 10.8155C5.15351 10.9075 5.13453 11.0483 5.13453 11.2302V12.3951H4.12803C3.97531 12.3951 3.85156 12.5189 3.85156 12.6717C3.85156 12.8244 3.97531 12.9481 4.12805 12.9481H5.13454V13.9253H4.12805C3.97531 13.9253 3.85156 14.049 3.85156 14.2018C3.85156 14.3546 3.97531 14.4782 4.12805 14.4782H5.13454V16.0261C5.13454 16.2181 5.17489 16.3619 5.25482 16.4532C5.33083 16.5404 5.4272 16.5808 5.55807 16.5808C5.68434 16.5808 5.77996 16.5402 5.85926 16.4529C5.94046 16.3635 5.98153 16.2198 5.98153 16.0261V14.4782H7.71192L8.64832 15.9141C8.7139 16.0096 8.78037 16.1045 8.84771 16.1988C8.90821 16.2831 8.9742 16.3575 9.04384 16.4195C9.10655 16.4757 9.17378 16.5168 9.24366 16.5419C9.31561 16.5678 9.39969 16.581 9.493 16.581C9.74624 16.581 10.0056 16.5035 10.0056 15.9285V14.4782H11.0222C11.1749 14.4782 11.2988 14.3544 11.2988 14.2017C11.2988 14.0489 11.175 13.9251 11.0222 13.9251ZM9.17974 12.948V13.9251H8.27872L7.63312 12.948H9.17974ZM5.98155 11.8254L6.35311 12.395H5.98155V11.8254ZM5.98155 13.9251V12.9481H6.7139L7.35117 13.9251H5.98155ZM9.17974 15.2888L8.64425 14.4782H9.17974V15.2888Z" fill="#4D148C"/>
</svg>
