<svg width="24" height="35" viewBox="0 0 24 35" fill="none" xmlns="http://www.w3.org/2000/svg">
<path d="M15.591 31.2789L21.931 27.7136L23.1313 29.7244L16.5398 33.3875L15.591 31.2789Z" fill="#4D148C" stroke="#4D148C"/>
<mask id="path-2-inside-1_3183_3419" fill="white">
<path fill-rule="evenodd" clip-rule="evenodd" d="M3.10156 3.78906H1.5C0.671573 3.78906 0 4.46064 0 5.28906V14.0027C0 14.8311 0.671574 15.5027 1.5 15.5027H11.9362C12.7647 15.5027 13.4362 14.8311 13.4362 14.0027V5.28906C13.4362 4.46064 12.7647 3.78906 11.9362 3.78906H9.64742V5.51236H3.10156V3.78906Z"/>
</mask>
<path fill-rule="evenodd" clip-rule="evenodd" d="M3.10156 3.78906H1.5C0.671573 3.78906 0 4.46064 0 5.28906V14.0027C0 14.8311 0.671574 15.5027 1.5 15.5027H11.9362C12.7647 15.5027 13.4362 14.8311 13.4362 14.0027V5.28906C13.4362 4.46064 12.7647 3.78906 11.9362 3.78906H9.64742V5.51236H3.10156V3.78906Z" fill="#4D148C"/>
<path d="M3.10156 3.78906H4.10156V2.78906H3.10156V3.78906ZM9.64742 3.78906V2.78906H8.64742V3.78906H9.64742ZM9.64742 5.51236V6.51236H10.6474V5.51236H9.64742ZM3.10156 5.51236H2.10156V6.51236H3.10156V5.51236ZM1.5 4.78906H3.10156V2.78906H1.5V4.78906ZM1 5.28906C1 5.01292 1.22386 4.78906 1.5 4.78906V2.78906C0.119287 2.78906 -1 3.90835 -1 5.28906H1ZM1 14.0027V5.28906H-1V14.0027H1ZM1.5 14.5027C1.22386 14.5027 1 14.2788 1 14.0027H-1C-1 15.3834 0.11929 16.5027 1.5 16.5027V14.5027ZM11.9362 14.5027H1.5V16.5027H11.9362V14.5027ZM12.4362 14.0027C12.4362 14.2788 12.2124 14.5027 11.9362 14.5027V16.5027C13.3169 16.5027 14.4362 15.3834 14.4362 14.0027H12.4362ZM12.4362 5.28906V14.0027H14.4362V5.28906H12.4362ZM11.9362 4.78906C12.2124 4.78906 12.4362 5.01292 12.4362 5.28906H14.4362C14.4362 3.90835 13.3169 2.78906 11.9362 2.78906V4.78906ZM9.64742 4.78906H11.9362V2.78906H9.64742V4.78906ZM8.64742 3.78906V5.51236H10.6474V3.78906H8.64742ZM9.64742 4.51236H3.10156V6.51236H9.64742V4.51236ZM4.10156 5.51236V3.78906H2.10156V5.51236H4.10156Z" fill="#4D148C" mask="url(#path-2-inside-1_3183_3419)"/>
<rect x="1.71875" y="6.54492" width="9.99104" height="5.5123" rx="0.5" fill="#FFD5BE"/>
<rect x="3.10156" y="3.78906" width="1.37807" height="1.03356" fill="#FFD5BE"/>
<rect x="8.60938" y="3.78906" width="1.03356" height="1.03356" fill="#FFD5BE"/>
<path d="M0.34375 15.8477H13.0909V23.9942C13.0909 24.8226 12.4194 25.4942 11.5909 25.4942H1.84375C1.01532 25.4942 0.34375 24.8226 0.34375 23.9942V15.8477Z" fill="#4D148C"/>
<rect x="2.50625" y="25.5941" width="5.3123" height="1.17807" rx="0.4" fill="#4D148C" stroke="#FFD5BE" stroke-width="0.2"/>
<rect x="1.375" y="13.0918" width="2.41163" height="1.37807" fill="#FF5900"/>
<rect x="2.23438" y="13.4375" width="0.689037" height="0.689037" rx="0.1" fill="#4D148C"/>
<rect x="1.375" y="17.2266" width="2.41163" height="1.37807" fill="#FF5900"/>
<rect x="2.23438" y="17.5703" width="0.689037" height="0.689037" rx="0.1" fill="#4D148C"/>
<rect x="5.16406" y="17.2266" width="2.41163" height="1.37807" fill="#FF5900"/>
<rect x="6.02344" y="17.5703" width="0.689037" height="0.689037" rx="0.1" fill="#4D148C"/>
<rect x="5.16406" y="19.6367" width="2.41163" height="1.37807" fill="#FF5900"/>
<rect x="6.02344" y="19.9805" width="0.689037" height="0.689037" rx="0.1" fill="#4D148C"/>
<rect x="5.16406" y="22.0488" width="2.41163" height="1.37807" fill="#FF5900"/>
<rect x="6.02344" y="22.3945" width="0.689037" height="0.689037" rx="0.1" fill="#4D148C"/>
<rect x="1.375" y="19.6367" width="2.41163" height="1.37807" fill="#FF5900"/>
<rect x="2.23438" y="19.9805" width="0.689037" height="0.689037" rx="0.1" fill="#4D148C"/>
<rect x="1.375" y="22.0488" width="2.41163" height="1.37807" fill="#FF5900"/>
<rect x="2.23438" y="22.3945" width="0.689037" height="0.689037" rx="0.1" fill="#4D148C"/>
<rect x="5.16406" y="13.0918" width="2.41163" height="1.37807" fill="#FF5900"/>
<rect x="6.02344" y="13.4375" width="0.689037" height="0.689037" rx="0.1" fill="#4D148C"/>
<mask id="path-25-inside-2_3183_3419" fill="white">
<rect x="3.78906" y="0.34375" width="5.16778" height="4.47874" rx="0.5"/>
</mask>
<rect x="3.78906" y="0.34375" width="5.16778" height="4.47874" rx="0.5" fill="#4D148C" stroke="#4D148C" stroke-width="2" mask="url(#path-25-inside-2_3183_3419)"/>
<path d="M14.465 30.1455L9.125 26.5281C13.1799 26.7851 15.3263 26.5281 17.0489 25.6668C17.4035 21.3104 17.5657 17.9151 17.0489 15.848C16.9958 13.6464 18.5993 12.9196 18.7715 13.4364C18.9438 13.9532 19.4606 17.5706 20.4941 19.6377C21.5277 21.7048 21.0109 26.5281 21.0109 26.5281L14.465 30.1455Z" fill="#4D148C" stroke="#4D148C"/>
<rect x="7.39062" y="10.1465" width="8.99104" height="15.8814" rx="0.5" fill="#FF5900" stroke="#FF5900"/>
<rect x="8.26562" y="12.4023" width="7.23489" height="11.7136" fill="#FFD5BE"/>
<rect x="10.6797" y="10.6797" width="2.41163" height="0.689037" fill="#FFD5BE"/>
<rect x="11.0234" y="24.4609" width="1.37807" height="0.689037" fill="#FFD5BE"/>
<rect x="20.6719" y="29.4004" width="1.37807" height="1.03356" transform="rotate(-35.7336 20.6719 29.4004)" fill="#FFD5BE"/>
<path d="M11.8928 20.0805C12.2262 20.0805 12.4965 19.8102 12.4965 19.4768C12.4965 19.1433 12.2262 18.873 11.8928 18.873C11.5594 18.873 11.2891 19.1433 11.2891 19.4768C11.2891 19.8102 11.5594 20.0805 11.8928 20.0805Z" fill="#FF5900"/>
<path d="M13.3354 18.0215C13.3264 18.0123 13.317 18.0041 13.3078 17.9957L13.2806 17.97C13.2762 17.9653 13.2712 17.9618 13.2655 17.9573C12.8909 17.6159 12.3991 17.432 11.8924 17.4439C11.3857 17.4558 10.9031 17.6626 10.545 18.0213L10.4576 18.1089L10.3367 18.2298C10.266 18.301 10.2264 18.3973 10.2266 18.4976C10.2267 18.5979 10.2667 18.694 10.3377 18.7649C10.3728 18.8001 10.4144 18.828 10.4603 18.8471C10.5061 18.8662 10.5553 18.8761 10.605 18.8762C10.6547 18.8763 10.7039 18.8666 10.7498 18.8477C10.7958 18.8287 10.8375 18.8009 10.8727 18.7659L11.0813 18.5573C11.3093 18.33 11.6182 18.2023 11.9403 18.2022C12.2623 18.2022 12.5712 18.3298 12.7994 18.5571L12.9499 18.7029C13.0204 18.773 13.1159 18.8122 13.2153 18.812C13.3148 18.8118 13.41 18.7721 13.4802 18.7017C13.5152 18.6669 13.543 18.6256 13.5619 18.5801C13.5808 18.5345 13.5905 18.4857 13.5905 18.4364C13.5908 18.3872 13.5813 18.3385 13.5625 18.2931C13.5438 18.2477 13.5161 18.2065 13.4812 18.1719L13.3354 18.0215Z" fill="#FF5900"/>
<path d="M14.3643 17.2758L14.2389 17.1504C14.2384 17.1499 14.2382 17.1492 14.2372 17.1489L14.1381 17.0494C14.121 17.0325 14.1021 17.0174 14.0819 17.0043C12.8095 15.8872 10.8742 15.9216 9.64234 17.1066C9.63637 17.1121 9.62965 17.1158 9.62368 17.1218L9.39722 17.3485C9.36527 17.3806 9.33997 17.4187 9.32275 17.4605C9.30553 17.5024 9.29674 17.5473 9.29688 17.5926C9.29702 17.6378 9.30608 17.6826 9.32356 17.7244C9.34103 17.7662 9.36657 17.8041 9.39872 17.836C9.43062 17.8681 9.46855 17.8937 9.51033 17.9111C9.55212 17.9286 9.59693 17.9376 9.64221 17.9377C9.68749 17.9378 9.73235 17.929 9.77422 17.9118C9.81609 17.8945 9.85415 17.8692 9.88622 17.8372L10.1127 17.611C10.1142 17.609 10.1154 17.6073 10.1169 17.6061C11.1131 16.6437 12.6933 16.6378 13.6974 17.5864L13.8756 17.7648C13.9405 17.8293 14.0283 17.8653 14.1197 17.8651C14.2112 17.8649 14.2988 17.8284 14.3634 17.7636C14.428 17.699 14.4645 17.6113 14.4647 17.5199C14.4648 17.4285 14.4288 17.3407 14.3643 17.2758Z" fill="#FF5900"/>
<rect x="2.40625" y="4.82422" width="7.92393" height="0.689037" fill="#FFD5BE"/>
<rect x="3.78906" width="1.03356" height="1.03356" rx="0.2" fill="#4D148C"/>
<rect x="5.85938" width="1.03356" height="1.03356" rx="0.2" fill="#4D148C"/>
<rect x="7.92188" width="1.03356" height="1.03356" rx="0.2" fill="#4D148C"/>
<path d="M4.5 1.19922H8" stroke="#FFD5BE" stroke-width="0.4"/>
<path d="M4.5 2H8" stroke="#FFD5BE" stroke-width="0.4"/>
<path d="M4.5 2.79883H8" stroke="#FFD5BE" stroke-width="0.4"/>
<path d="M4.5 3.69922H6.3" stroke="#FFD5BE" stroke-width="0.4"/>
</svg>
