<svg width="23" height="19" viewBox="0 0 23 19" fill="none" xmlns="http://www.w3.org/2000/svg">
<path fill-rule="evenodd" clip-rule="evenodd" d="M4.76562 1H21.0056C21.5579 1 22.0056 1.44772 22.0056 2V12.72C22.0056 13.2723 21.5579 13.72 21.0056 13.72H10.9663C10.913 14.0643 10.8318 14.3986 10.7252 14.72H21.0056C22.1102 14.72 23.0056 13.8246 23.0056 12.72V2C23.0056 0.89543 22.1102 0 21.0056 0H4.76562C3.66106 0 2.76562 0.89543 2.76562 2V7.65143C3.08065 7.45758 3.4153 7.29596 3.76562 7.17079V2C3.76562 1.44772 4.21334 1 4.76562 1Z" fill="#223872"/>
<rect x="5.51562" y="2.75781" width="11.04" height="0.92" rx="0.46" fill="#3FAFE9"/>
<rect x="5.51562" y="4.60156" width="11.04" height="0.92" rx="0.46" fill="#3FAFE9"/>
<path d="M10.54 12.8794C10.54 15.6518 8.29247 17.8994 5.52 17.8994C2.74753 17.8994 0.5 15.6518 0.5 12.8794C0.5 10.1069 2.74753 7.85938 5.52 7.85938C8.29247 7.85938 10.54 10.1069 10.54 12.8794Z" stroke="#223872"/>
<mask id="path-5-inside-1_3183_13549" fill="white">
<path fill-rule="evenodd" clip-rule="evenodd" d="M4.76488 11.7771L5.25988 11.2184C5.72304 10.6957 6.52229 10.6473 7.04505 11.1105C7.56782 11.5737 7.61613 12.3729 7.15296 12.8957L6.69806 13.4091L7.4624 14.0544L7.90144 13.5588C8.73086 12.6227 8.64435 11.1914 7.70821 10.362C6.77207 9.53261 5.34081 9.61913 4.5114 10.5553L4.00054 11.1319L4.76488 11.7771ZM4.11691 12.5084L3.35257 11.8632L3.0096 12.2503C2.18019 13.1864 2.2667 14.6177 3.20284 15.4471C4.13897 16.2765 5.57023 16.19 6.39965 15.2539L6.81444 14.7857L6.0501 14.1405L5.65117 14.5907C5.188 15.1135 4.38875 15.1618 3.86599 14.6986C3.34323 14.2355 3.29492 13.4362 3.75809 12.9134L4.11691 12.5084Z"/>
</mask>
<path d="M5.25988 11.2184L4.5114 10.5553L5.25988 11.2184ZM4.76488 11.7771L4.1198 12.5412L4.86587 13.1711L5.51336 12.4403L4.76488 11.7771ZM7.04505 11.1105L7.70821 10.362V10.362L7.04505 11.1105ZM7.15296 12.8957L7.90144 13.5588V13.5588L7.15296 12.8957ZM6.69806 13.4091L5.94958 12.746L5.27038 13.5126L6.05299 14.1732L6.69806 13.4091ZM7.4624 14.0544L6.81733 14.8185L7.5634 15.4483L8.21088 14.7175L7.4624 14.0544ZM7.90144 13.5588L8.64992 14.222L7.90144 13.5588ZM7.70821 10.362L8.37137 9.61355V9.61355L7.70821 10.362ZM4.5114 10.5553L5.25988 11.2184L5.25988 11.2184L4.5114 10.5553ZM4.00054 11.1319L3.25206 10.4687L2.57286 11.2353L3.35546 11.896L4.00054 11.1319ZM4.11691 12.5084L4.86539 13.1716L5.54459 12.405L4.76198 11.7443L4.11691 12.5084ZM3.35257 11.8632L3.99765 11.0991L3.25158 10.4692L2.60409 11.2L3.35257 11.8632ZM3.0096 12.2503L2.26112 11.5871L2.26112 11.5871L3.0096 12.2503ZM3.20284 15.4471L2.53968 16.1956H2.53968L3.20284 15.4471ZM6.39965 15.2539L5.65117 14.5907H5.65117L6.39965 15.2539ZM6.81444 14.7857L7.56292 15.4489L8.24212 14.6823L7.45951 14.0216L6.81444 14.7857ZM6.0501 14.1405L6.69517 13.3763L5.9491 12.7465L5.30162 13.4773L6.0501 14.1405ZM5.65117 14.5907L4.90269 13.9276H4.90268L5.65117 14.5907ZM3.86599 14.6986L3.20284 15.4471H3.20284L3.86599 14.6986ZM3.75809 12.9134L3.0096 12.2503L3.0096 12.2503L3.75809 12.9134ZM4.5114 10.5553L4.01639 11.114L5.51336 12.4403L6.00836 11.8816L4.5114 10.5553ZM7.70821 10.362C6.77207 9.53261 5.34081 9.61913 4.5114 10.5553L6.00836 11.8816C6.10527 11.7722 6.27251 11.7621 6.3819 11.859L7.70821 10.362ZM7.90144 13.5588C8.73086 12.6227 8.64435 11.1914 7.70821 10.362L6.3819 11.859C6.49129 11.9559 6.50139 12.1232 6.40448 12.2325L7.90144 13.5588ZM7.44655 14.0723L7.90144 13.5588L6.40448 12.2325L5.94958 12.746L7.44655 14.0723ZM6.05299 14.1732L6.81733 14.8185L8.10748 13.2903L7.34314 12.645L6.05299 14.1732ZM8.21088 14.7175L8.64992 14.222L7.15296 12.8957L6.71392 13.3912L8.21088 14.7175ZM8.64992 14.222C9.84559 12.8725 9.72088 10.8092 8.37137 9.61355L7.04505 11.1105C7.56782 11.5737 7.61613 12.3729 7.15296 12.8957L8.64992 14.222ZM8.37137 9.61355C7.02186 8.41788 4.95858 8.54259 3.76292 9.89211L5.25988 11.2184C5.72304 10.6957 6.52229 10.6473 7.04505 11.1105L8.37137 9.61355ZM3.76292 9.89211L3.25206 10.4687L4.74902 11.795L5.25988 11.2184L3.76292 9.89211ZM3.35546 11.896L4.1198 12.5412L5.40995 11.013L4.64561 10.3677L3.35546 11.896ZM4.76198 11.7443L3.99765 11.0991L2.7075 12.6273L3.47184 13.2726L4.76198 11.7443ZM2.60409 11.2L2.26112 11.5871L3.75809 12.9134L4.10105 12.5263L2.60409 11.2ZM2.26112 11.5871C1.06545 12.9366 1.19017 14.9999 2.53968 16.1956L3.86599 14.6986C3.34323 14.2355 3.29492 13.4362 3.75809 12.9134L2.26112 11.5871ZM2.53968 16.1956C3.88919 17.3913 5.95246 17.2665 7.14813 15.917L5.65117 14.5907C5.188 15.1135 4.38875 15.1618 3.86599 14.6986L2.53968 16.1956ZM7.14813 15.917L7.56292 15.4489L6.06595 14.1226L5.65117 14.5907L7.14813 15.917ZM7.45951 14.0216L6.69517 13.3763L5.40502 14.9046L6.16936 15.5498L7.45951 14.0216ZM6.39965 15.2539L6.79858 14.8036L5.30162 13.4773L4.90269 13.9276L6.39965 15.2539ZM3.20284 15.4471C4.13897 16.2765 5.57023 16.19 6.39965 15.2539L4.90268 13.9276C4.80577 14.0369 4.63853 14.0471 4.52915 13.9501L3.20284 15.4471ZM3.0096 12.2503C2.18019 13.1864 2.2667 14.6177 3.20284 15.4471L4.52915 13.9501C4.41976 13.8532 4.40965 13.686 4.50657 13.5766L3.0096 12.2503ZM3.36843 11.8453L3.0096 12.2503L4.50657 13.5766L4.86539 13.1716L3.36843 11.8453Z" fill="#223872" mask="url(#path-5-inside-1_3183_13549)"/>
<rect x="6.41406" y="11.4102" width="0.849231" height="3.39692" rx="0.424615" transform="rotate(43.9974 6.41406 11.4102)" fill="#3FAFE9"/>
<circle cx="16.0969" cy="10.5813" r="1.8" stroke="#223872"/>
<circle cx="17.9406" cy="10.5813" r="1.8" stroke="#223872"/>
</svg>
