<svg width="24" height="23" viewBox="0 0 24 23" fill="none" xmlns="http://www.w3.org/2000/svg">
<g clip-path="url(#clip0_2629_290)">
<path d="M20.0625 5.8125H2.5C1.67157 5.8125 1 6.48407 1 7.3125V20.5625C1 21.3909 1.67157 22.0625 2.5 22.0625H20.0625C20.8909 22.0625 21.5625 21.3909 21.5625 20.5625V7.3125C21.5625 6.48407 20.8909 5.8125 20.0625 5.8125Z" stroke="#20336B"/>
<path d="M6.73438 5.79168L13.9347 1.29145C14.1848 1.13517 14.5151 1.2281 14.647 1.49184L15.3594 2.91668" stroke="#20336B"/>
<path d="M9.60938 5.79423L17.2645 2.1918C17.5289 2.06742 17.843 2.19513 17.9456 2.46864L19.1927 5.79423" stroke="#20336B"/>
<mask id="mask0_2629_290" style="mask-type:luminance" maskUnits="userSpaceOnUse" x="13" y="11" width="11" height="6">
<path d="M13.9219 13.0625C13.9219 11.9579 14.8173 11.0625 15.9219 11.0625H23.0052C23.2814 11.0625 23.5052 11.2864 23.5052 11.5625V16.3125C23.5052 16.5886 23.2814 16.8125 23.0052 16.8125H15.9219C14.8173 16.8125 13.9219 15.9171 13.9219 14.8125V13.0625Z" fill="white"/>
</mask>
<g mask="url(#mask0_2629_290)">
<path d="M13.9219 13.0625C13.9219 11.9579 14.8173 11.0625 15.9219 11.0625H23.0052C23.2814 11.0625 23.5052 11.2864 23.5052 11.5625V16.3125C23.5052 16.5886 23.2814 16.8125 23.0052 16.8125H15.9219C14.8173 16.8125 13.9219 15.9171 13.9219 14.8125V13.0625Z" stroke="#20336B" stroke-width="2"/>
</g>
<path d="M17.026 14.7372C17.4943 14.7372 17.8739 14.3576 17.8739 13.8893C17.8739 13.421 17.4943 13.0414 17.026 13.0414C16.5577 13.0414 16.1781 13.421 16.1781 13.8893C16.1781 14.3576 16.5577 14.7372 17.026 14.7372Z" stroke="#20336B" stroke-width="0.7"/>
<path d="M17.2573 3.77734H15.9406C15.7749 3.77734 15.6406 3.91166 15.6406 4.07734V4.43568C15.6406 4.60136 15.7749 4.73568 15.9406 4.73568H17.2573C17.423 4.73568 17.5573 4.60136 17.5573 4.43568V4.07734C17.5573 3.91166 17.423 3.77734 17.2573 3.77734Z" fill="#20336B"/>
<path d="M21.5781 9.625H22.7156C22.8813 9.625 23.0156 9.75931 23.0156 9.925V11.5417" stroke="#20336B"/>
<path d="M7.64594 15.7178L7.68327 15.5488L8.02022 15.4989L7.97264 15.7178H7.64594Z" fill="#4ABCEB" stroke="#4ABCEB"/>
<path d="M11.3315 15.7091L11.4716 15.0242L11.7897 14.9865L11.6216 15.7091H11.3315Z" fill="#4ABCEB" stroke="#4ABCEB"/>
<path d="M3.375 16.1675L4.83041 15.6758L4.72412 16.2084H3.375V16.1675Z" fill="#4ABCEB"/>
<mask id="mask1_2629_290" style="mask-type:luminance" maskUnits="userSpaceOnUse" x="3" y="15" width="2" height="2">
<path d="M3.375 16.1675L4.83041 15.6758L4.72412 16.2084H3.375V16.1675Z" fill="white"/>
</mask>
<g mask="url(#mask1_2629_290)">
<path d="M3.375 16.1675L3.05493 15.2201L2.375 15.4498V16.1675H3.375ZM4.83041 15.6758L5.81107 15.8715L6.1497 14.1746L4.51034 14.7284L4.83041 15.6758ZM4.72412 16.2084V17.2084H5.54428L5.70478 16.4041L4.72412 16.2084ZM3.375 16.2084H2.375V17.2084H3.375V16.2084ZM3.69507 17.1149L5.15048 16.6232L4.51034 14.7284L3.05493 15.2201L3.69507 17.1149ZM3.84974 15.4801L3.74345 16.0128L5.70478 16.4041L5.81107 15.8715L3.84974 15.4801ZM4.72412 15.2084H3.375V17.2084H4.72412V15.2084ZM4.375 16.2084V16.1675H2.375V16.2084H4.375Z" fill="#4ABCEB"/>
</g>
<mask id="mask2_2629_290" style="mask-type:luminance" maskUnits="userSpaceOnUse" x="3" y="10" width="10" height="7">
<path d="M12.4347 14.4194C11.9651 14.4691 11.5051 14.5213 11.0547 14.576L11.4861 12.5475C11.5321 12.3475 11.5551 12.1667 11.5551 12.0052C11.5551 11.4287 11.2066 11.1405 10.5096 11.1405H9.46322L8.66193 14.9039C8.17738 14.9797 7.71212 15.0592 7.2661 15.1425L8.11775 11.1405H6.14052C5.90322 11.1405 5.76159 11.2557 5.71563 11.4862L4.82485 15.6988C4.27603 15.8534 3.78964 16.0193 3.375 16.1954L4.4512 11.1405C4.52761 10.779 4.65775 10.5153 4.84162 10.3494C5.02549 10.1842 5.31279 10.1016 5.70352 10.1016H10.8656C11.5017 10.1016 12.0095 10.2286 12.389 10.4827C12.7685 10.7361 12.9583 11.1284 12.9583 11.6595C12.9583 11.8825 12.9428 12.0592 12.9117 12.1897L12.4347 14.4194Z" fill="white"/>
</mask>
<g mask="url(#mask2_2629_290)">
<path d="M43.933 20.3188H1.98438V8.625H43.933V20.3188Z" fill="#20336B"/>
</g>
</g>
<defs>
<clipPath id="clip0_2629_290">
<rect width="24" height="23" fill="white"/>
</clipPath>
</defs>
</svg>
