<svg width="620" height="324" viewBox="0 0 620 324" fill="none" xmlns="http://www.w3.org/2000/svg">
<path d="M463.5 0.5H0.5V323.5H463.5V0.5Z" stroke="#C8D0DB"/>
<mask id="mask0_2130_228" style="mask-type:luminance" maskUnits="userSpaceOnUse" x="0" y="36" width="464" height="48">
<path d="M0 36H464V84H0V36Z" fill="white"/>
</mask>
<g mask="url(#mask0_2130_228)">
<path d="M0 37H464V35H0V37Z" fill="#C8D0DB"/>
</g>
<mask id="mask1_2130_228" style="mask-type:luminance" maskUnits="userSpaceOnUse" x="0" y="276" width="464" height="48">
<path d="M0 276H464V324H0V276Z" fill="white"/>
</mask>
<g mask="url(#mask1_2130_228)">
<path d="M464 323H0V325H464V323Z" fill="#C8D0DB"/>
</g>
<path d="M564 101.5C585.815 101.5 603.5 83.8152 603.5 62C603.5 40.1848 585.815 22.5 564 22.5C542.185 22.5 524.5 40.1848 524.5 62C524.5 83.8152 542.185 101.5 564 101.5Z" stroke="#C8D0DB"/>
<path d="M548.398 51.5996H570.6V53.9998H548.398V51.5996Z" fill="#223872"/>
<path d="M575.999 72.6008C577.987 72.6008 579.599 70.989 579.599 69.0006C579.599 67.0123 577.987 65.4004 575.999 65.4004C574.01 65.4004 572.398 67.0123 572.398 69.0006C572.398 70.989 574.01 72.6008 575.999 72.6008Z" fill="#223872"/>
<path d="M554.999 72.6008C556.987 72.6008 558.599 70.989 558.599 69.0006C558.599 67.0123 556.987 65.4004 554.999 65.4004C553.01 65.4004 551.398 67.0123 551.398 69.0006C551.398 70.989 553.01 72.6008 554.999 72.6008Z" fill="#223872"/>
<path d="M555.001 70.2009C555.664 70.2009 556.201 69.6636 556.201 69.0009C556.201 68.3381 555.664 67.8008 555.001 67.8008C554.338 67.8008 553.801 68.3381 553.801 69.0009C553.801 69.6636 554.338 70.2009 555.001 70.2009Z" fill="#223872"/>
<path d="M578.057 56.2743C577.457 55.5903 576.587 55.2003 575.681 55.2003H571.198V51.6C571.198 51.27 570.928 51 570.598 51H548.397C548.067 51 547.797 51.27 547.797 51.6V55.2003H548.997V54.6002H569.998V67.801H559.024C558.508 66.0669 556.899 64.8008 554.997 64.8008C553.095 64.8008 551.493 66.0669 550.971 67.801H548.997V64.8008H547.797V68.4011C547.797 68.7311 548.067 69.0011 548.397 69.0011H550.797C550.797 71.3172 552.681 73.2013 554.997 73.2013C557.313 73.2013 559.198 71.3172 559.198 69.0011H571.798C571.798 71.3172 573.682 73.2013 575.999 73.2013C578.315 73.2013 580.199 71.3172 580.199 69.0011H581.399C581.729 69.0011 581.999 68.7311 581.999 68.4011V62.5807C581.999 61.3806 581.561 60.2286 580.769 59.3345L578.057 56.2683V56.2743ZM554.997 72.0013C553.341 72.0013 551.997 70.6572 551.997 69.0011C551.997 67.345 553.341 66.0009 554.997 66.0009C556.653 66.0009 557.997 67.345 557.997 69.0011C557.997 70.6572 556.653 72.0013 554.997 72.0013ZM569.998 53.4001H548.997V52.2001H554.997H569.998V53.4001ZM575.999 72.0013C574.342 72.0013 572.998 70.6572 572.998 69.0011C572.998 67.345 574.342 66.0009 575.999 66.0009C577.655 66.0009 578.999 67.345 578.999 69.0011C578.999 70.6572 577.655 72.0013 575.999 72.0013ZM580.799 67.801H580.025C579.509 66.0669 577.901 64.8008 575.999 64.8008C574.096 64.8008 572.494 66.0669 571.972 67.801H571.198V56.4003H575.681C576.245 56.4003 576.785 56.6463 577.157 57.0664L579.869 60.1326C580.469 60.8046 580.793 61.6746 580.793 62.5807V67.801H580.799Z" fill="#C8D0DB"/>
<path d="M577.071 57.95C576.567 57.35 575.829 57.002 575.043 57.002H572.396C572.066 57.002 571.796 57.272 571.796 57.602V61.2022C571.796 61.5322 572.066 61.8022 572.396 61.8022H578.997C579.111 61.8024 579.223 61.7701 579.319 61.709C579.416 61.6478 579.492 61.5605 579.541 61.4572C579.589 61.3539 579.608 61.2389 579.593 61.1257C579.578 61.0126 579.532 60.9059 579.459 60.8182L577.071 57.95ZM572.997 60.6022V58.202H575.043C575.469 58.202 575.877 58.388 576.147 58.7181L577.713 60.6022H572.991H572.997ZM554.995 67.2026C554.005 67.2026 553.195 68.0126 553.195 69.0027C553.195 69.9927 554.005 70.8028 554.995 70.8028C555.985 70.8028 556.796 69.9927 556.796 69.0027C556.796 68.0126 555.985 67.2026 554.995 67.2026ZM554.995 69.6027C554.665 69.6027 554.395 69.3327 554.395 69.0027C554.395 68.6727 554.665 68.4026 554.995 68.4026C555.325 68.4026 555.595 68.6727 555.595 69.0027C555.595 69.3327 555.325 69.6027 554.995 69.6027ZM575.997 67.2026C575.007 67.2026 574.197 68.0126 574.197 69.0027C574.197 69.9927 575.007 70.8028 575.997 70.8028C576.987 70.8028 577.797 69.9927 577.797 69.0027C577.797 68.0126 576.987 67.2026 575.997 67.2026ZM575.997 69.6027C575.667 69.6027 575.397 69.3327 575.397 69.0027C575.397 68.6727 575.667 68.4026 575.997 68.4026C576.327 68.4026 576.597 68.6727 576.597 69.0027C576.597 69.3327 576.327 69.6027 575.997 69.6027Z" fill="#C8D0DB"/>
<path d="M558.601 59.4004H549.6C549.269 59.4004 549 59.669 549 60.0004C549 60.3318 549.269 60.6005 549.6 60.6005H558.601C558.932 60.6005 559.201 60.3318 559.201 60.0004C559.201 59.669 558.932 59.4004 558.601 59.4004Z" fill="#C8D0DB"/>
<path d="M552.6 56.4004H546.6C546.269 56.4004 546 56.669 546 57.0004C546 57.3318 546.269 57.6005 546.6 57.6005H552.6C552.932 57.6005 553.2 57.3318 553.2 57.0004C553.2 56.669 552.932 56.4004 552.6 56.4004Z" fill="#C8D0DB"/>
<path d="M555.602 62.4004H547.202C546.87 62.4004 546.602 62.669 546.602 63.0004C546.602 63.3318 546.87 63.6005 547.202 63.6005H555.602C555.933 63.6005 556.202 63.3318 556.202 63.0004C556.202 62.669 555.933 62.4004 555.602 62.4004Z" fill="#C8D0DB"/>
<path d="M562.202 59.4004H561.002C560.671 59.4004 560.402 59.669 560.402 60.0004C560.402 60.3318 560.671 60.6005 561.002 60.6005H562.202C562.534 60.6005 562.802 60.3318 562.802 60.0004C562.802 59.669 562.534 59.4004 562.202 59.4004Z" fill="#C8D0DB"/>
<path d="M564 201.5C585.815 201.5 603.5 183.815 603.5 162C603.5 140.185 585.815 122.5 564 122.5C542.185 122.5 524.5 140.185 524.5 162C524.5 183.815 542.185 201.5 564 201.5Z" stroke="#C8D0DB"/>
<path d="M564 301.5C585.815 301.5 603.5 283.815 603.5 262C603.5 240.185 585.815 222.5 564 222.5C542.185 222.5 524.5 240.185 524.5 262C524.5 283.815 542.185 301.5 564 301.5Z" stroke="#C8D0DB"/>
<path d="M549.34 275.746H580.749C581.31 275.747 581.865 275.637 582.382 275.423C582.9 275.208 583.37 274.893 583.765 274.496C584.16 274.098 584.473 273.627 584.685 273.108C584.897 272.589 585.004 272.034 585 271.473V260.646C585 258.277 583.118 256.328 580.749 256.328H579.438L567.909 245.541C568.115 245.115 568.222 244.648 568.221 244.175C568.22 242.42 566.797 240.999 565.043 241C563.288 241.001 561.867 242.424 561.868 244.179C561.867 244.651 561.974 245.116 562.18 245.541L550.651 256.328H549.34C546.971 256.328 545 258.277 545 260.645V271.473C545 273.842 546.971 275.746 549.34 275.746ZM565.045 242.435C566.008 242.435 566.79 243.217 566.79 244.18C566.79 245.144 566.008 245.925 565.045 245.925C564.081 245.925 563.3 245.144 563.3 244.18C563.301 243.217 564.081 242.436 565.045 242.435ZM563.078 246.662C564.228 247.582 565.863 247.581 567.011 246.659L577.343 256.328H552.746L563.078 246.662ZM583.568 271.451C583.568 273.032 582.286 274.314 580.705 274.314H549.295C547.714 274.314 546.432 273.032 546.432 271.451V260.623C546.432 259.042 547.714 257.76 549.295 257.76H580.705C582.286 257.76 583.568 259.042 583.568 260.623V271.451Z" fill="#C8D0DB"/>
<path d="M554.438 269.261C554.786 269.261 555.109 269.118 555.109 268.832V266.718H555.744L556.97 269.077C557.012 269.157 557.077 269.224 557.157 269.268C557.236 269.312 557.327 269.332 557.417 269.326C557.829 269.326 558.294 268.945 558.294 268.595C558.295 268.538 558.28 268.481 558.25 268.432L557.158 266.453C557.784 266.211 558.241 265.623 558.241 264.621C558.241 263.162 557.265 262.691 556.039 262.691H554.187C554.13 262.692 554.073 262.705 554.021 262.729C553.969 262.752 553.922 262.786 553.883 262.828C553.844 262.869 553.813 262.919 553.793 262.972C553.773 263.026 553.764 263.083 553.766 263.14V268.831C553.766 269.118 554.089 269.261 554.438 269.261ZM555.109 263.943H556.039C556.54 263.943 556.844 264.167 556.844 264.794C556.844 265.42 556.54 265.644 556.039 265.644H555.109V263.943ZM560.487 269.223H563.672C563.968 269.223 564.093 268.937 564.093 268.651C564.093 268.32 563.941 268.06 563.672 268.06H561.283V266.539H562.616C562.912 266.539 563.037 266.252 563.037 266.011C563.037 265.724 562.885 265.465 562.616 265.465H561.283V263.944H563.672C563.941 263.944 564.093 263.639 564.093 263.308C564.093 263.022 563.968 262.691 563.672 262.691H560.487C560.182 262.691 559.851 262.863 559.851 263.149V268.831C559.851 269.118 560.182 269.223 560.487 269.223ZM566.294 269.261C566.643 269.261 567.01 269.118 567.01 268.832V265.789L568.701 268.885C568.872 269.199 569.14 269.261 569.462 269.261C569.811 269.261 570.142 269.118 570.142 268.832V263.141C570.142 262.845 569.82 262.72 569.471 262.72C569.122 262.72 568.8 262.845 568.8 263.141V266.183L567.337 263.418C566.997 262.765 566.793 262.72 566.292 262.72C565.943 262.72 565.578 262.854 565.578 263.149V268.832C565.578 269.118 565.945 269.261 566.294 269.261ZM572.039 263.944H573.274V268.832C573.274 269.118 573.641 269.261 573.99 269.261C574.339 269.261 574.706 269.118 574.706 268.832V263.944H575.905C576.173 263.944 576.326 263.648 576.326 263.308C576.326 263.013 576.2 262.691 575.905 262.691H572.039C571.744 262.691 571.619 263.013 571.619 263.308C571.619 263.648 571.771 263.944 572.039 263.944Z" fill="#C8D0DB"/>
<circle cx="561.048" cy="152.5" r="5" stroke="#C8D0DB"/>
<path d="M556.048 153C550.548 155.5 549.048 159.5 550.548 177" stroke="#C8D0DB" stroke-linecap="round"/>
<path d="M558.298 159.5L559.568 165.904C559.847 167.308 561.079 168.32 562.511 168.32H570.245C571.517 168.32 572.548 169.351 572.548 170.622V170.622C572.548 171.923 571.471 172.965 570.171 172.923L559.131 172.567C557.878 172.527 556.783 171.712 556.384 170.524L553.548 162.08" stroke="#C8D0DB" stroke-linecap="round"/>
<path d="M561.548 157.2C562.295 159.154 562.482 160.251 562.548 162.2" stroke="#C8D0DB"/>
<path d="M561.548 167.793V163.5C561.548 162.672 562.219 162 563.048 162H577.048C577.876 162 578.548 162.672 578.548 163.5V174.5C578.548 175.328 577.876 176 577.048 176H563.048C562.219 176 561.548 175.328 561.548 174.5V172.138" stroke="#C8D0DB"/>
<path d="M566.048 162L568.849 155.931C568.96 155.689 569.241 155.577 569.488 155.676L571.062 156.306C571.326 156.411 571.449 156.717 571.331 156.977L569.048 162" stroke="#C8D0DB"/>
<path d="M571.548 162V158.5C571.548 158.224 571.772 158 572.048 158H573.548C573.824 158 574.048 158.224 574.048 158.5V162" stroke="#C8D0DB"/>
<path d="M574.048 159V156.5C574.048 156.224 574.272 156 574.548 156H576.548C576.824 156 577.048 156.224 577.048 156.5V161.5" stroke="#C8D0DB"/>
</svg>
