<svg width="462" height="244" viewBox="0 0 462 244" fill="none" xmlns="http://www.w3.org/2000/svg">
<path d="M0.5 54.1627H119.5M119.5 54.1627L168.5 46.0622H195.5C198.5 45.8934 204.4 43.4295 204 34.9239C203.6 26.4184 203.833 15.5164 204 11.1286C204.667 7.92214 207.7 1.40796 214.5 1.00293C221.3 0.597906 369 0.834172 442 1.00293C448.5 1.00288 461.3 4.64802 460.5 19.229C459.7 33.81 460.167 90.7838 460.5 117.448M119.5 54.1627L168.5 69.3511H195.5C198.333 69.1823 204 71.1737 204 80.4893C204 89.8049 204 95.1715 204 96.6904C203.667 100.909 205.3 109.246 214.5 108.841C223.7 108.436 313.667 108.672 357.5 108.841C361.167 109.01 368.4 112.79 368 126.561C367.6 140.332 367.833 196.428 368 222.755C368 229.843 376.6 242.905 391 242.5C405.4 242.095 433 242.331 445 242.5C454.5 242.634 460.5 239.969 460.5 233.893C460.5 227.818 460.5 206.882 460.5 203" stroke="url(#paint0_linear_5164_4974)" stroke-width="1.5"/>
<defs>
<linearGradient id="paint0_linear_5164_4974" x1="230.518" y1="0.779297" x2="230.518" y2="83.0858" gradientUnits="userSpaceOnUse">
<stop stop-color="#9B66FF"/>
<stop offset="1" stop-color="#13ECE2"/>
</linearGradient>
</defs>
</svg>
