<svg width="26" height="26" viewBox="0 0 26 26" fill="none" xmlns="http://www.w3.org/2000/svg">
<path fill-rule="evenodd" clip-rule="evenodd" d="M16.953 20.187L18.551 21.785C18.658 21.891 18.801 21.951 18.951 21.951C19.101 21.951 19.244 21.891 19.351 21.785L22.547 18.588C22.65 18.482 22.708 18.339 22.706 18.191C22.705 18.043 22.645 17.901 22.541 17.796C22.436 17.691 22.294 17.632 22.146 17.63C21.998 17.629 21.855 17.686 21.749 17.789L18.951 20.586L17.752 19.388C17.646 19.285 17.503 19.228 17.355 19.229C17.207 19.23 17.065 19.29 16.96 19.394C16.855 19.499 16.796 19.641 16.795 19.789C16.793 19.937 16.85 20.08 16.953 20.187ZM6.76599 10.285C6.76599 9.956 6.63501 9.63899 6.40201 9.40599C6.16901 9.17299 5.852 9.04199 5.522 9.04199H4.61801C4.28901 9.04199 3.97201 9.17299 3.73901 9.40599C3.50601 9.63899 3.375 9.956 3.375 10.285V11.19C3.375 11.519 3.50601 11.836 3.73901 12.069C3.97201 12.302 4.28901 12.433 4.61801 12.433H5.522C5.852 12.433 6.16901 12.302 6.40201 12.069C6.63501 11.836 6.76599 11.519 6.76599 11.19V10.285ZM5.63501 10.285V11.19C5.63501 11.205 5.63301 11.219 5.62701 11.233C5.62101 11.247 5.613 11.259 5.603 11.269C5.592 11.28 5.58001 11.288 5.56601 11.294C5.55201 11.3 5.537 11.303 5.522 11.303H4.61801C4.60301 11.303 4.58901 11.3 4.57501 11.294C4.56101 11.288 4.549 11.28 4.539 11.269C4.528 11.259 4.52001 11.247 4.51401 11.233C4.50801 11.219 4.505 11.205 4.505 11.19V10.285C4.505 10.255 4.517 10.227 4.539 10.206C4.549 10.195 4.56101 10.187 4.57501 10.181C4.58901 10.175 4.60301 10.172 4.61801 10.172H5.522C5.553 10.172 5.581 10.184 5.603 10.206C5.613 10.216 5.62101 10.228 5.62701 10.242C5.63301 10.256 5.63501 10.27 5.63501 10.285ZM6.76599 14.807C6.76599 14.478 6.63501 14.161 6.40201 13.928C6.16901 13.695 5.852 13.564 5.522 13.564H4.61801C4.28901 13.564 3.97201 13.695 3.73901 13.928C3.50601 14.161 3.375 14.477 3.375 14.807V15.711C3.375 16.041 3.50601 16.357 3.73901 16.591C3.97201 16.824 4.28901 16.955 4.61801 16.955H5.522C5.852 16.955 6.16901 16.824 6.40201 16.591C6.63501 16.357 6.76599 16.041 6.76599 15.711V14.807ZM5.63501 14.807V15.711C5.63501 15.726 5.63301 15.741 5.62701 15.755C5.62101 15.768 5.613 15.781 5.603 15.791C5.592 15.802 5.58001 15.81 5.56601 15.816C5.55201 15.822 5.537 15.825 5.522 15.824H4.61801C4.60301 15.825 4.58901 15.822 4.57501 15.816C4.56101 15.81 4.549 15.802 4.539 15.791C4.528 15.781 4.52001 15.768 4.51401 15.755C4.50801 15.741 4.505 15.726 4.505 15.711V14.807C4.505 14.777 4.517 14.748 4.539 14.727C4.549 14.717 4.56101 14.708 4.57501 14.703C4.58901 14.697 4.60301 14.694 4.61801 14.694H5.522C5.553 14.694 5.581 14.706 5.603 14.727C5.613 14.738 5.62101 14.75 5.62701 14.764C5.63301 14.778 5.63501 14.792 5.63501 14.807ZM6.76599 19.329C6.76599 18.999 6.63501 18.683 6.40201 18.449C6.16901 18.216 5.852 18.086 5.522 18.085H4.61801C4.28901 18.085 3.97201 18.216 3.73901 18.449C3.50601 18.683 3.375 18.999 3.375 19.329V20.233C3.375 20.563 3.50601 20.879 3.73901 21.113C3.97201 21.346 4.28901 21.477 4.61801 21.477H5.522C5.852 21.477 6.16901 21.346 6.40201 21.113C6.63501 20.879 6.76599 20.563 6.76599 20.233V19.329ZM5.63501 19.329V20.233C5.63501 20.248 5.63301 20.263 5.62701 20.276C5.62101 20.29 5.613 20.302 5.603 20.313C5.592 20.323 5.58001 20.332 5.56601 20.338C5.55201 20.343 5.537 20.346 5.522 20.346H4.61801C4.60301 20.346 4.58901 20.343 4.57501 20.338C4.56101 20.332 4.549 20.323 4.539 20.313C4.528 20.302 4.52001 20.29 4.51401 20.276C4.50801 20.263 4.505 20.248 4.505 20.233V19.329C4.505 19.299 4.517 19.27 4.539 19.249C4.549 19.239 4.56101 19.23 4.57501 19.224C4.58901 19.219 4.60301 19.216 4.61801 19.216H5.522C5.553 19.216 5.581 19.228 5.603 19.249C5.613 19.259 5.62101 19.272 5.62701 19.286C5.63301 19.299 5.63501 19.314 5.63501 19.329ZM11.288 10.285C11.288 9.956 11.157 9.63899 10.924 9.40599C10.69 9.17299 10.374 9.04199 10.044 9.04199H9.14001C8.81001 9.04199 8.49399 9.17299 8.26099 9.40599C8.02699 9.63899 7.897 9.956 7.897 10.285V11.19C7.897 11.519 8.02699 11.836 8.26099 12.069C8.49399 12.302 8.81001 12.433 9.14001 12.433H10.044C10.374 12.433 10.69 12.302 10.924 12.069C11.157 11.836 11.288 11.519 11.288 11.19V10.285ZM10.157 10.285V11.19C10.157 11.205 10.154 11.219 10.149 11.233C10.143 11.247 10.135 11.259 10.124 11.269C10.114 11.28 10.101 11.288 10.087 11.294C10.074 11.3 10.059 11.303 10.044 11.303H9.14001C9.12501 11.303 9.10998 11.3 9.09698 11.294C9.08298 11.288 9.071 11.28 9.061 11.269C9.05 11.259 9.041 11.247 9.035 11.233C9.03 11.219 9.02701 11.205 9.02701 11.19V10.285C9.02701 10.255 9.039 10.227 9.061 10.206C9.071 10.195 9.08298 10.187 9.09698 10.181C9.10998 10.175 9.12501 10.172 9.14001 10.172H10.044C10.075 10.172 10.103 10.184 10.124 10.206C10.135 10.216 10.143 10.228 10.149 10.242C10.154 10.256 10.157 10.27 10.157 10.285ZM11.288 14.807C11.288 14.478 11.157 14.161 10.924 13.928C10.69 13.695 10.374 13.564 10.044 13.564H9.14001C8.81001 13.564 8.49399 13.695 8.26099 13.928C8.02699 14.161 7.897 14.477 7.897 14.807V15.711C7.897 16.041 8.02699 16.357 8.26099 16.591C8.49399 16.824 8.81001 16.955 9.14001 16.955H10.044C10.374 16.955 10.69 16.824 10.924 16.591C11.157 16.357 11.288 16.041 11.288 15.711V14.807ZM10.157 14.807V15.711C10.157 15.726 10.154 15.741 10.149 15.755C10.143 15.768 10.135 15.781 10.124 15.791C10.114 15.802 10.101 15.81 10.087 15.816C10.074 15.822 10.059 15.825 10.044 15.824H9.14001C9.12501 15.825 9.10998 15.822 9.09698 15.816C9.08298 15.81 9.071 15.802 9.061 15.791C9.05 15.781 9.041 15.768 9.035 15.755C9.03 15.741 9.02701 15.726 9.02701 15.711V14.807C9.02701 14.777 9.039 14.748 9.061 14.727C9.071 14.717 9.08298 14.708 9.09698 14.703C9.10998 14.697 9.12501 14.694 9.14001 14.694H10.044C10.075 14.694 10.103 14.706 10.124 14.727C10.135 14.738 10.143 14.75 10.149 14.764C10.154 14.778 10.157 14.792 10.157 14.807ZM11.288 19.329C11.288 18.999 11.157 18.683 10.924 18.449C10.69 18.216 10.374 18.086 10.044 18.085H9.14001C8.81001 18.085 8.49399 18.216 8.26099 18.449C8.02699 18.683 7.897 18.999 7.897 19.329V20.233C7.897 20.563 8.02699 20.879 8.26099 21.113C8.49399 21.346 8.81001 21.477 9.14001 21.477H10.044C10.374 21.477 10.69 21.346 10.924 21.113C11.157 20.879 11.288 20.563 11.288 20.233V19.329ZM10.157 19.329V20.233C10.157 20.248 10.154 20.263 10.149 20.276C10.143 20.29 10.135 20.302 10.124 20.313C10.114 20.323 10.101 20.332 10.087 20.338C10.074 20.343 10.059 20.346 10.044 20.346H9.14001C9.12501 20.346 9.10998 20.343 9.09698 20.338C9.08298 20.332 9.071 20.323 9.061 20.313C9.05 20.302 9.041 20.29 9.035 20.276C9.03 20.263 9.02701 20.248 9.02701 20.233V19.329C9.02701 19.299 9.039 19.27 9.061 19.249C9.071 19.239 9.08298 19.23 9.09698 19.224C9.10998 19.219 9.12501 19.216 9.14001 19.216H10.044C10.075 19.216 10.103 19.228 10.124 19.249C10.135 19.259 10.143 19.272 10.149 19.286C10.154 19.299 10.157 19.314 10.157 19.329ZM15.809 10.285C15.809 9.956 15.679 9.63899 15.445 9.40599C15.212 9.17299 14.896 9.04199 14.566 9.04199H13.662C13.332 9.04199 13.016 9.17299 12.782 9.40599C12.549 9.63899 12.418 9.956 12.418 10.285V11.19C12.418 11.519 12.549 11.836 12.782 12.069C13.016 12.302 13.332 12.433 13.662 12.433H14.566C14.896 12.433 15.212 12.302 15.445 12.069C15.679 11.836 15.809 11.519 15.809 11.19V10.285ZM14.679 10.285V11.19C14.679 11.205 14.676 11.219 14.671 11.233C14.665 11.247 14.657 11.259 14.645 11.269C14.635 11.28 14.623 11.288 14.609 11.294C14.596 11.3 14.581 11.303 14.566 11.303H13.662C13.647 11.303 13.632 11.3 13.619 11.294C13.605 11.288 13.592 11.28 13.582 11.269C13.571 11.259 13.563 11.247 13.557 11.233C13.552 11.219 13.549 11.205 13.549 11.19V10.285C13.549 10.255 13.561 10.227 13.582 10.206C13.592 10.195 13.605 10.187 13.619 10.181C13.632 10.175 13.647 10.172 13.662 10.172H14.566C14.596 10.172 14.625 10.184 14.645 10.206C14.657 10.216 14.665 10.228 14.671 10.242C14.676 10.256 14.679 10.27 14.679 10.285ZM20.331 10.285C20.331 9.956 20.201 9.63899 19.967 9.40599C19.734 9.17299 19.418 9.04199 19.088 9.04199H18.184C17.854 9.04199 17.537 9.17299 17.304 9.40599C17.071 9.63899 16.94 9.956 16.94 10.285V11.19C16.94 11.519 17.071 11.836 17.304 12.069C17.537 12.302 17.854 12.433 18.184 12.433H19.088C19.418 12.433 19.734 12.302 19.967 12.069C20.201 11.836 20.331 11.519 20.331 11.19V10.285ZM19.201 10.285V11.19C19.201 11.205 19.198 11.219 19.192 11.233C19.187 11.247 19.178 11.259 19.167 11.269C19.157 11.28 19.145 11.288 19.131 11.294C19.117 11.3 19.103 11.303 19.088 11.303H18.184C18.169 11.303 18.154 11.3 18.141 11.294C18.126 11.288 18.114 11.28 18.103 11.269C18.093 11.259 18.085 11.247 18.079 11.233C18.073 11.219 18.071 11.205 18.071 11.19V10.285C18.071 10.255 18.083 10.227 18.103 10.206C18.114 10.195 18.126 10.187 18.141 10.181C18.154 10.175 18.169 10.172 18.184 10.172H19.088C19.117 10.172 19.146 10.184 19.167 10.206C19.178 10.216 19.187 10.228 19.192 10.242C19.198 10.256 19.201 10.27 19.201 10.285Z" fill="#24BAF2"/>
<path fill-rule="evenodd" clip-rule="evenodd" d="M14.988 23.739H2.82599C2.07599 23.739 1.358 23.441 0.828003 22.912C0.298003 22.381 0 21.663 0 20.913V5.087C0 4.337 0.298003 3.619 0.828003 3.089C1.358 2.559 2.07599 2.261 2.82599 2.261H4.522V1.696C4.522 1.246 4.70001 0.815002 5.01901 0.497002C5.33701 0.179002 5.76799 0 6.21799 0C6.66699 0 7.09899 0.179002 7.41699 0.497002C7.73499 0.815002 7.91299 1.246 7.91299 1.696V2.261H15.826V1.696C15.826 1.246 16.005 0.815002 16.323 0.497002C16.641 0.179002 17.072 0 17.522 0C17.971 0 18.403 0.179002 18.721 0.497002C19.039 0.815002 19.218 1.246 19.218 1.696V2.261H20.913C21.662 2.261 22.382 2.559 22.911 3.089C23.442 3.619 23.739 4.337 23.739 5.087V14.988C25.12 16.129 26 17.854 26 19.783C26 23.214 23.214 26 19.782 26C18.866 26.001 17.961 25.798 17.132 25.407C16.303 25.016 15.57 24.447 14.988 23.739ZM19.782 14.696C22.59 14.696 24.869 16.975 24.869 19.783C24.869 22.59 22.59 24.87 19.782 24.87C16.975 24.87 14.696 22.59 14.696 19.783C14.696 16.975 16.975 14.696 19.782 14.696ZM22.609 14.244V7.913H1.13101V20.913C1.13101 21.363 1.30899 21.794 1.62799 22.112C1.78399 22.269 1.972 22.394 2.177 22.48C2.383 22.565 2.60399 22.609 2.82599 22.609H14.244C13.81 21.761 13.565 20.8 13.565 19.783C13.565 16.351 16.351 13.565 19.782 13.565C20.8 13.565 21.761 13.81 22.609 14.244ZM19.218 3.391V3.957C19.218 4.406 19.039 4.838 18.721 5.156C18.403 5.474 17.971 5.652 17.522 5.652C17.072 5.652 16.641 5.474 16.323 5.156C16.005 4.838 15.826 4.406 15.826 3.957V3.391H7.91299V3.957C7.91299 4.406 7.73499 4.838 7.41699 5.156C7.09899 5.474 6.66699 5.652 6.21799 5.652C5.76799 5.652 5.33701 5.474 5.01901 5.156C4.70001 4.838 4.522 4.406 4.522 3.957V3.391H2.82599C2.37599 3.391 1.94501 3.57 1.62701 3.888C1.30901 4.206 1.13101 4.637 1.13101 5.087V6.783H22.609V5.087C22.609 4.637 22.43 4.206 22.112 3.888C21.794 3.57 21.363 3.391 20.913 3.391H19.218ZM18.087 1.696V3.957C18.087 4.106 18.028 4.25 17.921 4.356C17.815 4.462 17.672 4.522 17.522 4.522C17.372 4.522 17.228 4.462 17.122 4.356C17.016 4.25 16.956 4.106 16.956 3.957V1.696C16.956 1.546 17.016 1.402 17.122 1.296C17.228 1.19 17.372 1.13 17.522 1.13C17.672 1.13 17.815 1.19 17.921 1.296C18.028 1.402 18.087 1.546 18.087 1.696ZM6.78201 1.696V3.957C6.78201 4.106 6.723 4.25 6.617 4.356C6.511 4.462 6.36699 4.522 6.21799 4.522C6.06799 4.522 5.92399 4.462 5.81799 4.356C5.71199 4.25 5.65201 4.106 5.65201 3.957V1.696C5.65201 1.546 5.71199 1.402 5.81799 1.296C5.92399 1.19 6.06799 1.13 6.21799 1.13C6.36699 1.13 6.511 1.19 6.617 1.296C6.723 1.402 6.78201 1.546 6.78201 1.696Z" fill="#20336B"/>
</svg>
