<svg width="24" height="24" viewBox="0 0 24 24" fill="none" xmlns="http://www.w3.org/2000/svg">
<path d="M12.0004 2.25C9.94087 2.25 8.25038 3.9405 8.25038 6V6.75H4.54688L4.50038 7.4535L3.75038 20.9535L3.70312 21.75H20.2969L20.2504 20.9528L19.5004 7.45275L19.4531 6.75H15.7504V6C15.7504 3.9405 14.0599 2.25 12.0004 2.25ZM12.0004 3.75C12.5971 3.75 13.1694 3.98705 13.5914 4.40901C14.0133 4.83097 14.2504 5.40326 14.2504 6V6.75H9.75037V6C9.75037 5.40326 9.98743 4.83097 10.4094 4.40901C10.8313 3.98705 11.4036 3.75 12.0004 3.75ZM5.95312 8.25H8.25038V10.5H9.75037V8.25H14.2504V10.5H15.7504V8.25H18.0476L18.7039 20.25H5.29763L5.95312 8.25Z" fill="#C8D0DB"/>
</svg>
