<svg width="17" height="20" viewBox="0 0 17 20" fill="none" xmlns="http://www.w3.org/2000/svg">
<path d="M8.2973 0C6.2378 0 4.5473 1.691 4.5473 3.75V4.5H0.843803L0.797302 5.203L0.0473022 18.703L0 19.5H16.5938L16.5473 18.703L15.7973 5.203L15.75 4.5H12.0473V3.75C12.0473 1.691 10.3568 0 8.2973 0ZM8.2973 1.5C8.894 1.5 9.4663 1.737 9.8883 2.159C10.3102 2.581 10.5473 3.153 10.5473 3.75V4.5H6.0473V3.75C6.0473 3.153 6.2843 2.581 6.7063 2.159C7.1282 1.737 7.7005 1.5 8.2973 1.5ZM2.25 6H4.5473V8.25H6.0473V6H10.5473V8.25H12.0473V6H14.3445L15.0008 18H1.5945L2.25 6Z" fill="#20336B"/>
</svg>
