<svg width="21" height="21" viewBox="0 0 21 21" fill="none" xmlns="http://www.w3.org/2000/svg">
<path d="M14.8812 9.66399C15.2822 9.66899 15.6792 9.59399 16.0502 9.44199C16.4212 9.29099 16.7582 9.067 17.0412 8.784L19.8712 5.95399C20.0582 5.76699 20.1622 5.513 20.1622 5.249C20.1622 4.985 20.0582 4.731 19.8712 4.544C19.7782 4.45 19.6682 4.376 19.5462 4.325C19.4242 4.274 19.2932 4.24799 19.1612 4.24799C19.0292 4.24799 18.8992 4.274 18.7772 4.325C18.6552 4.376 18.5442 4.45 18.4512 4.544L15.5912 7.364C15.4982 7.458 15.3882 7.532 15.2662 7.583C15.1442 7.634 15.0132 7.66 14.8812 7.66C14.7492 7.66 14.6192 7.634 14.4972 7.583C14.3752 7.532 14.2642 7.458 14.1712 7.364L17.7112 3.834C17.8052 3.741 17.8792 3.63 17.9292 3.508C17.9802 3.386 18.0062 3.256 18.0062 3.124C18.0062 2.992 17.9802 2.861 17.9292 2.74C17.8792 2.618 17.8052 2.50699 17.7112 2.41399C17.6182 2.32099 17.5082 2.247 17.3862 2.196C17.2642 2.146 17.1332 2.12 17.0012 2.12C16.8702 2.12 16.7392 2.146 16.6172 2.196C16.4952 2.247 16.3852 2.32099 16.2912 2.41399L12.7612 5.95399C12.5752 5.76699 12.4712 5.513 12.4712 5.249C12.4712 4.985 12.5752 4.731 12.7612 4.544L15.5912 1.714C15.6852 1.621 15.7592 1.51 15.8092 1.388C15.8602 1.266 15.8862 1.136 15.8862 1.004C15.8862 0.871998 15.8602 0.740995 15.8092 0.619995C15.7592 0.497995 15.6852 0.386999 15.5912 0.293999C15.4982 0.200999 15.3882 0.126996 15.2662 0.0759964C15.1442 0.0259964 15.0132 0 14.8812 0C14.7502 0 14.6192 0.0259964 14.4972 0.0759964C14.3752 0.126996 14.2652 0.200999 14.1712 0.293999L11.3412 3.124C10.7802 3.686 10.4642 4.449 10.4642 5.244C10.4642 6.039 10.7802 6.801 11.3412 7.364L10.0412 8.654L1.77119 0.353996L1.6712 0.293999C1.6202 0.248999 1.5632 0.211998 1.5012 0.183998L1.3212 0.113998L1.2012 0.0339966H0.931197C0.872197 0.0239966 0.811204 0.0239966 0.751204 0.0339966C0.691204 0.0559966 0.634206 0.0860005 0.581206 0.124001L0.421202 0.223999H0.351195L0.291197 0.323997C0.249197 0.376998 0.212197 0.433996 0.181197 0.493996C0.152197 0.554996 0.129205 0.617998 0.111205 0.683998C0.111205 0.683998 0.111205 0.753999 0.111205 0.793999C-0.130795 2.485 0.0232004 4.20999 0.5632 5.83099C1.1032 7.45199 2.01321 8.92599 3.22121 10.134L5.8612 12.764L0.451201 18.164C0.358201 18.257 0.283199 18.367 0.233199 18.489C0.182199 18.611 0.156203 18.742 0.156203 18.874C0.156203 19.006 0.182199 19.137 0.233199 19.258C0.283199 19.38 0.358201 19.491 0.451201 19.584C0.545201 19.677 0.656197 19.75 0.778197 19.8C0.899197 19.849 1.03019 19.875 1.16119 19.874C1.29319 19.875 1.4232 19.849 1.54519 19.8C1.66719 19.75 1.7782 19.677 1.8712 19.584L7.94119 13.604L10.7712 10.774L12.7712 8.77399C13.3292 9.33799 14.0882 9.65799 14.8812 9.66399ZM7.2312 11.484L4.60119 8.84399C3.16019 7.38299 2.2572 5.475 2.0412 3.434L8.6512 10.034L7.2312 11.484ZM13.4712 12.054C13.2832 11.864 13.0272 11.757 12.7602 11.756C12.4932 11.755 12.2362 11.861 12.0462 12.049C11.8572 12.237 11.7502 12.493 11.7492 12.76C11.7482 13.028 11.8532 13.284 12.0412 13.474L18.3412 19.774C18.5322 19.948 18.7832 20.041 19.0412 20.034C19.1732 20.035 19.3032 20.009 19.4252 19.96C19.5472 19.91 19.6582 19.837 19.7512 19.744C19.8452 19.651 19.9202 19.54 19.9702 19.418C20.0212 19.297 20.0472 19.166 20.0472 19.034C20.0472 18.902 20.0212 18.771 19.9702 18.649C19.9202 18.527 19.8452 18.417 19.7512 18.324L13.4712 12.054Z" fill="#20336B"/>
</svg>
