<svg width="22" height="21" viewBox="0 0 22 21" fill="none" xmlns="http://www.w3.org/2000/svg">
<path d="M15.8385 10.6309C16.2391 10.6358 16.6366 10.5605 17.0075 10.4094C17.3785 10.2583 17.7155 10.0344 17.9985 9.75089L20.8285 6.92089C21.0148 6.73353 21.1193 6.48007 21.1193 6.21589C21.1193 5.9517 21.0148 5.69825 20.8285 5.51089C20.7356 5.41716 20.625 5.34277 20.5031 5.292C20.3812 5.24123 20.2505 5.21509 20.1185 5.21509C19.9865 5.21509 19.8558 5.24123 19.7339 5.292C19.6121 5.34277 19.5015 5.41716 19.4085 5.51089L16.5485 8.33089C16.4556 8.42462 16.345 8.49901 16.2231 8.54978C16.1012 8.60055 15.9705 8.62669 15.8385 8.62669C15.7065 8.62669 15.5758 8.60055 15.4539 8.54978C15.3321 8.49901 15.2215 8.42462 15.1285 8.33089L18.6685 4.80089C18.7618 4.70765 18.8357 4.59696 18.8862 4.47514C18.9366 4.35332 18.9626 4.22275 18.9626 4.09089C18.9626 3.95903 18.9366 3.82846 18.8862 3.70664C18.8357 3.58482 18.7618 3.47413 18.6685 3.38089C18.5753 3.28765 18.4646 3.21369 18.3428 3.16323C18.2209 3.11277 18.0904 3.0868 17.9585 3.0868C17.8267 3.0868 17.6961 3.11277 17.5743 3.16323C17.4524 3.21369 17.3418 3.28765 17.2485 3.38089L13.7185 6.92089C13.5323 6.73353 13.4277 6.48007 13.4277 6.21589C13.4277 5.9517 13.5323 5.69825 13.7185 5.51089L16.5485 2.68089C16.6418 2.58765 16.7157 2.47696 16.7662 2.35514C16.8166 2.23332 16.8426 2.10275 16.8426 1.97089C16.8426 1.83903 16.8166 1.70846 16.7662 1.58664C16.7157 1.46482 16.6418 1.35413 16.5485 1.26089C16.4553 1.16765 16.3446 1.09369 16.2228 1.04323C16.1009 0.992769 15.9704 0.966797 15.8385 0.966797C15.7067 0.966797 15.5761 0.992769 15.4543 1.04323C15.3325 1.09369 15.2218 1.16765 15.1285 1.26089L12.2985 4.09089C11.7367 4.65339 11.4212 5.41589 11.4212 6.21089C11.4212 7.00589 11.7367 7.76839 12.2985 8.33089L10.9985 9.62089L2.72852 1.32089L2.62852 1.26089C2.5774 1.21629 2.52015 1.17925 2.45852 1.15089L2.27852 1.08089L2.15852 1.00089H1.88852C1.8289 0.991355 1.76814 0.991355 1.70852 1.00089C1.64798 1.02292 1.59078 1.05321 1.53852 1.09089L1.37852 1.19089H1.30852L1.24852 1.29089C1.2062 1.34369 1.16934 1.40065 1.13852 1.46089C1.10924 1.52187 1.0858 1.58548 1.06852 1.65089C1.06852 1.65089 1.06852 1.72089 1.06852 1.76089C0.825858 3.4523 0.980573 5.17699 1.5204 6.7982C2.06023 8.41942 2.97032 9.89258 4.17852 11.1009L6.81852 13.7309L1.40852 19.1309C1.31479 19.2239 1.2404 19.3345 1.18963 19.4563C1.13886 19.5782 1.11272 19.7089 1.11272 19.8409C1.11272 19.9729 1.13886 20.1036 1.18963 20.2255C1.2404 20.3473 1.31479 20.4579 1.40852 20.5509C1.50196 20.6436 1.61278 20.7169 1.73462 20.7667C1.85645 20.8164 1.98692 20.8417 2.11852 20.8409C2.25013 20.8417 2.38059 20.8164 2.50243 20.7667C2.62427 20.7169 2.73508 20.6436 2.82852 20.5509L8.89852 14.5709L11.7285 11.7409L13.7285 9.74089C14.2865 10.3049 15.0452 10.6249 15.8385 10.6309ZM8.18852 12.4509L5.55852 9.81089C4.11698 8.34962 3.21437 6.44215 2.99852 4.40089L9.60852 11.0009L8.18852 12.4509ZM14.4285 13.0209C14.2402 12.8313 13.9843 12.7242 13.7171 12.7233C13.4498 12.7223 13.1932 12.8276 13.0035 13.0159C12.8139 13.2042 12.7068 13.4601 12.7059 13.7274C12.705 13.9946 12.8102 14.2513 12.9985 14.4409L19.2985 20.7409C19.4895 20.9147 19.7404 21.0079 19.9985 21.0009C20.1301 21.0016 20.2606 20.9764 20.3824 20.9267C20.5043 20.8769 20.6151 20.8036 20.7085 20.7109C20.8022 20.6179 20.8766 20.5073 20.9274 20.3855C20.9782 20.2636 21.0043 20.1329 21.0043 20.0009C21.0043 19.8689 20.9782 19.7382 20.9274 19.6163C20.8766 19.4945 20.8022 19.3839 20.7085 19.2909L14.4285 13.0209Z" fill="#C8D0DB"/>
</svg>
