<svg width="24" height="23" viewBox="0 0 24 23" fill="none" xmlns="http://www.w3.org/2000/svg">
<path d="M23.834 5.87424C23.768 5.79624 23.685 5.73325 23.593 5.69025C23.5 5.64725 23.399 5.62524 23.297 5.62524H5.67899L4.28799 0.518242C4.24699 0.370242 4.15901 0.238241 4.03601 0.144241C3.91401 0.0512413 3.76401 0.000244141 3.60901 0.000244141H0.703003C0.314003 0.000244141 0 0.314247 0 0.703247C0 1.09225 0.314003 1.40624 0.703003 1.40624H3.07199L6.966 15.6692C6.228 16.0012 5.71899 16.7242 5.71899 17.5782C5.71899 18.5502 6.383 19.3632 7.28 19.6062C7.182 19.8492 7.125 20.1132 7.125 20.3912C7.125 21.5542 8.07101 22.5002 9.23401 22.5002C10.398 22.5002 11.344 21.5542 11.344 20.3912C11.344 20.1432 11.293 19.9082 11.214 19.6872H17.098C17.019 19.9082 16.969 20.1432 16.969 20.3912C16.969 21.5542 17.915 22.5002 19.078 22.5002C20.241 22.5002 21.187 21.5542 21.187 20.3912C21.187 19.2272 20.241 18.2812 19.078 18.2812H7.828C7.441 18.2812 7.125 17.9662 7.125 17.5782C7.125 16.9232 7.969 16.7852 7.828 16.8612C7.969 16.8612 8.44401 16.8022 21.959 15.4652C22.113 15.4502 22.258 15.3852 22.371 15.2792C22.484 15.1742 22.559 15.0342 22.584 14.8812L23.99 6.44324C24.007 6.34325 24.002 6.24024 23.975 6.14124C23.948 6.04324 23.9 5.95124 23.834 5.87424ZM9.93701 20.3912C9.93701 20.7792 9.62201 21.0942 9.23401 21.0942C8.84701 21.0942 8.53101 20.7792 8.53101 20.3912C8.53101 20.0032 8.84701 19.6872 9.23401 19.6872C9.62201 19.6872 9.93701 20.0032 9.93701 20.3912ZM19.078 21.0942C18.691 21.0942 18.375 20.7792 18.375 20.3912C18.375 20.0032 18.691 19.6872 19.078 19.6872C19.465 19.6872 19.781 20.0032 19.781 20.3912C19.781 20.7792 19.465 21.0942 19.078 21.0942ZM11.344 11.9532C11.344 12.3422 11.029 12.6562 10.641 12.6562C10.252 12.6562 9.93701 12.3422 9.93701 11.9532V9.14124C9.93701 8.75224 10.252 8.43724 10.641 8.43724C11.029 8.43724 11.344 8.75224 11.344 9.14124V11.9532ZM15.562 11.9532C15.562 12.3422 15.248 12.6562 14.859 12.6562C14.471 12.6562 14.156 12.3422 14.156 11.9532V9.14124C14.156 8.75224 14.471 8.43724 14.859 8.43724C15.248 8.43724 15.562 8.75224 15.562 9.14124V11.9532ZM19.781 11.9532C19.781 12.3422 19.467 12.6562 19.078 12.6562C18.689 12.6562 18.375 12.3422 18.375 11.9532V9.14124C18.375 8.75224 18.689 8.43724 19.078 8.43724C19.467 8.43724 19.781 8.75224 19.781 9.14124V11.9532Z" fill="#20336B"/>
<path d="M21.187 2.10925C21.187 1.72125 20.873 1.40625 20.484 1.40625H19.369L19.575 1.20025C19.85 0.926246 19.85 0.48125 19.575 0.20625C19.301 -0.06875 18.856 -0.06875 18.581 0.20625L17.672 1.11525L16.763 0.20625C16.488 -0.06875 16.043 -0.06875 15.768 0.20625C15.494 0.48125 15.494 0.926246 15.768 1.20025L15.974 1.40625H14.859C14.471 1.40625 14.156 1.72125 14.156 2.10925V4.21925H21.187V2.10925ZM12.75 2.81325H7.828C7.439 2.81325 7.125 3.12725 7.125 3.51625V4.21925H12.75V2.81325Z" fill="#24BAF2"/>
</svg>
