<svg width="24" height="24" viewBox="0 0 24 24" fill="none" xmlns="http://www.w3.org/2000/svg">
<path d="M20.9591 13.4746V22.457H2.99415V13.4746H0V14.9716H1.49707V23.9541H22.4561V14.9716H23.9532V13.4746H20.9591Z" fill="#C5CFD8"/>
<path d="M10 14.704C10.4033 14.8151 10.8151 14.8921 11.2312 14.9344V18.4053L9.88901 17.0632L8.83058 18.1216L11.9797 21.2707L15.1288 18.1216L14.0704 17.0632L12.7282 18.4053V14.9344C16.8445 14.5176 19.8436 10.8428 19.4269 6.7265C19.4046 6.50667 19.3727 6.28795 19.3311 6.07092L17.861 6.35312C18.4823 9.59729 16.3561 12.7309 13.112 13.3522C9.86782 13.9735 6.7342 11.8473 6.11287 8.60318C5.49154 5.35906 7.61776 2.22545 10.8619 1.60412C11.7628 1.43158 12.6913 1.46854 13.5756 1.71219L13.9746 0.270507C9.9888 -0.827037 5.86805 1.51429 4.77051 5.50002C3.67296 9.48575 6.0143 13.6065 10 14.704Z" fill="#C5CFD8"/>
<path d="M16.8781 1.83033C16.4593 1.46649 16.0011 1.15066 15.512 0.888672L14.8047 2.20684C15.1956 2.41709 15.5621 2.66991 15.8975 2.96062L16.8781 1.83033Z" fill="#C5CFD8"/>
<path d="M17.4616 5.08681L18.833 4.48798C18.6099 3.97967 18.3313 3.49771 18.0021 3.05078L16.7969 3.93855C17.0605 4.29542 17.2834 4.68054 17.4616 5.08681Z" fill="#C5CFD8"/>
<path d="M7.48634 19.4639H5.98926V17.9668H4.49219V20.9609H7.48634V19.4639Z" fill="#00BAF2"/>
<path d="M16.4688 19.4639V20.9609H19.4629V17.9668H17.9658V19.4639H16.4688Z" fill="#00BAF2"/>
<path d="M8.875 7.03516H15.2386" stroke="#00BAF2" stroke-linecap="square"/>
<path d="M8.875 8.30664H15.2386" stroke="#00BAF2" stroke-linecap="square"/>
<path d="M13.9673 10.2159H13.331L10.7855 5.125H10.1094V10.2159" stroke="#00BAF2" stroke-linecap="square"/>
<path d="M14 10.2159V5.125" stroke="#00BAF2" stroke-linecap="square"/>
</svg>
