<svg width="24" height="24" viewBox="0 0 24 24" fill="none" xmlns="http://www.w3.org/2000/svg">
<path d="M20.9591 13.4755V22.4579H2.99415V13.4755H0V14.9725H1.49707V23.955H22.4561V14.9725H23.9532V13.4755H20.9591Z" fill="#20336B"/>
<path d="M9.99696 14.704C10.4002 14.8151 10.812 14.8921 11.2281 14.9344V18.4053L9.88594 17.0632L8.82751 18.1216L11.9766 21.2707L15.1257 18.1216L14.0673 17.0632L12.7251 18.4053V14.9344C16.8414 14.5176 19.8405 10.8428 19.4238 6.7265C19.4015 6.50667 19.3696 6.28795 19.328 6.07092L17.8579 6.35312C18.4792 9.59729 16.353 12.7309 13.1089 13.3522C9.86475 13.9735 6.73113 11.8473 6.1098 8.60318C5.48847 5.35906 7.61469 2.22545 10.8588 1.60412C11.7597 1.43158 12.6882 1.46854 13.5725 1.71219L13.9715 0.270507C9.98573 -0.827037 5.86498 1.51429 4.76744 5.50002C3.66989 9.48575 6.01123 13.6065 9.99696 14.704Z" fill="#20336B"/>
<path d="M16.878 1.82971C16.4592 1.46587 16.001 1.15004 15.5119 0.888046L14.8046 2.20622C15.1955 2.41647 15.562 2.66929 15.8974 2.96L16.878 1.82971Z" fill="#20336B"/>
<path d="M17.4641 5.08585L18.8355 4.48702C18.6124 3.97871 18.3338 3.49675 18.0046 3.04982L16.7994 3.93759C17.063 4.29446 17.2859 4.67958 17.4641 5.08585Z" fill="#20336B"/>
<path d="M7.48538 19.4638H5.9883V17.9667H4.49123V20.9608H7.48538V19.4638Z" fill="#00BAF2"/>
<path d="M16.4678 19.4638V20.9608H19.462V17.9667H17.9649V19.4638H16.4678Z" fill="#00BAF2"/>
<path d="M15.2586 8.00308H14.3713V7.15033H15.2586C15.3919 7.15033 15.5 7.04236 15.5 6.90901C15.5 6.77565 15.3919 6.66761 15.2586 6.66761H14.3713V5.48437C14.3713 5.31165 14.3372 5.18488 14.2699 5.10765C14.206 5.03419 14.1219 5 14.0054 5C13.8944 5 13.8134 5.03395 13.7507 5.10696C13.6842 5.18426 13.6505 5.31127 13.6505 5.48445V6.66776H11.9814L11.2718 5.59389C11.2143 5.50309 11.1566 5.4125 11.0985 5.3221C11.0486 5.2445 10.9999 5.18131 10.9539 5.13414C10.9131 5.09237 10.8667 5.06004 10.8125 5.03519C10.7612 5.01181 10.6961 5.00008 10.6191 5.00008C10.5209 5.00008 10.4317 5.02699 10.3463 5.08229C10.2618 5.13699 10.2033 5.20462 10.1677 5.28904C10.1363 5.36928 10.1198 5.49223 10.1198 5.65094V6.66768H9.2413C9.10801 6.66769 9 6.77572 9 6.90907C9 7.04242 9.10801 7.15039 9.24132 7.15039H10.1198V8.00324H9.24132C9.10801 8.00324 9 8.11124 9 8.24463C9 8.37794 9.10801 8.48587 9.24132 8.48587H10.1198V9.83683C10.1198 10.0044 10.155 10.1299 10.2248 10.2097C10.2911 10.2857 10.3752 10.321 10.4895 10.321C10.5997 10.321 10.6831 10.2855 10.7523 10.2094C10.8232 10.1313 10.8591 10.0059 10.8591 9.83684V8.48587H12.3693L13.1866 9.73912C13.2439 9.82247 13.3019 9.90529 13.3607 9.98757C13.4135 10.0612 13.4711 10.1261 13.5319 10.1803C13.5866 10.2293 13.6453 10.2652 13.7063 10.2871C13.7691 10.3097 13.8424 10.3212 13.9239 10.3212C14.1449 10.3212 14.3713 10.2535 14.3713 9.75168V8.48587H15.2586C15.3919 8.48587 15.5 8.37778 15.5 8.24447C15.5 8.11116 15.3919 8.00308 15.2586 8.00308ZM13.6505 7.15031V8.00307H12.8641L12.3006 7.15031H13.6505ZM10.8591 6.17047L11.1834 6.66761H10.8591V6.17047ZM10.8591 8.00308V7.15033H11.4983L12.0545 8.00308H10.8591ZM13.6505 9.19333L13.1831 8.48587H13.6505V9.19333Z" fill="#24BAF2"/>
</svg>
