<svg width="23" height="24" viewBox="0 0 23 24" fill="none" xmlns="http://www.w3.org/2000/svg">
<path d="M7.70312 5.49219V11.2522" stroke="#C5CFD8"/>
<path d="M9.90625 5.49219V10.3802C9.90625 10.4906 9.99579 10.5802 10.1062 10.5802H12.0778" stroke="#C5CFD8"/>
<path d="M13.4609 5.49219V10.3802C13.4609 10.4906 13.5505 10.5802 13.6609 10.5802H15.6325" stroke="#C5CFD8"/>
<path d="M17.78 10.7938V1.48068C17.78 1.30011 17.5596 1.212 17.4351 1.34279L15.5897 3.2816C15.5109 3.36442 15.3788 3.36442 15.3 3.2816L13.2715 1.15047C13.1867 1.06129 13.0421 1.06924 12.9675 1.16719L11.3838 3.24708C11.3092 3.34503 11.1647 3.35298 11.0798 3.2638L9.06829 1.15047C8.98341 1.06129 8.83889 1.06924 8.7643 1.16719L7.1975 3.22483C7.11746 3.32995 6.9593 3.32995 6.87926 3.22483L5.31245 1.16719C5.23787 1.06924 5.09334 1.06129 5.00846 1.15047L2.98 3.2816C2.90118 3.36442 2.76909 3.36442 2.69027 3.2816L0.844868 1.34279C0.720375 1.212 0.5 1.30011 0.5 1.48068V22.4865C0.5 22.676 0.738948 22.7592 0.856693 22.6108L2.67844 20.314C2.75851 20.2131 2.91176 20.2131 2.99183 20.314L4.99544 22.8401C5.08096 22.9479 5.24727 22.9391 5.321 22.8229L6.86951 20.3826C6.94806 20.2588 7.1287 20.2588 7.20725 20.3826L8.76929 22.8443C8.83899 22.9541 8.99334 22.9692 9.08303 22.875L11.7086 20.1165" stroke="#C5CFD8" stroke-linecap="round"/>
<mask id="path-5-inside-1_3183_3804" fill="white">
<path fill-rule="evenodd" clip-rule="evenodd" d="M2.70312 6.29219C2.70312 5.85036 3.0613 5.49219 3.50313 5.49219H5.50312C5.94495 5.49219 6.30312 5.85036 6.30312 6.29219V10.5482C6.30312 10.99 5.94495 11.3482 5.50312 11.3482H3.50313C3.0613 11.3482 2.70312 10.99 2.70312 10.5482V6.29219ZM3.59375 6.30078H5.39375V8.10078H3.59375V6.30078ZM5.39375 8.80078H3.59375V10.6008H5.39375V8.80078Z"/>
</mask>
<path fill-rule="evenodd" clip-rule="evenodd" d="M2.70312 6.29219C2.70312 5.85036 3.0613 5.49219 3.50313 5.49219H5.50312C5.94495 5.49219 6.30312 5.85036 6.30312 6.29219V10.5482C6.30312 10.99 5.94495 11.3482 5.50312 11.3482H3.50313C3.0613 11.3482 2.70312 10.99 2.70312 10.5482V6.29219ZM3.59375 6.30078H5.39375V8.10078H3.59375V6.30078ZM5.39375 8.80078H3.59375V10.6008H5.39375V8.80078Z" fill="#C5CFD8"/>
<path d="M5.39375 6.30078H6.39375V5.30078H5.39375V6.30078ZM3.59375 6.30078V5.30078H2.59375V6.30078H3.59375ZM5.39375 8.10078V9.10078H6.39375V8.10078H5.39375ZM3.59375 8.10078H2.59375V9.10078H3.59375V8.10078ZM3.59375 8.80078V7.80078H2.59375V8.80078H3.59375ZM5.39375 8.80078H6.39375V7.80078H5.39375V8.80078ZM3.59375 10.6008H2.59375V11.6008H3.59375V10.6008ZM5.39375 10.6008V11.6008H6.39375V10.6008H5.39375ZM3.50313 4.49219C2.50901 4.49219 1.70312 5.29807 1.70312 6.29219H3.70312C3.70312 6.40264 3.61358 6.49219 3.50313 6.49219V4.49219ZM5.50312 4.49219H3.50313V6.49219H5.50312V4.49219ZM7.30312 6.29219C7.30312 5.29807 6.49724 4.49219 5.50312 4.49219V6.49219C5.39267 6.49219 5.30312 6.40265 5.30312 6.29219H7.30312ZM7.30312 10.5482V6.29219H5.30312V10.5482H7.30312ZM5.50312 12.3482C6.49724 12.3482 7.30312 11.5423 7.30312 10.5482H5.30312C5.30312 10.4377 5.39267 10.3482 5.50312 10.3482V12.3482ZM3.50313 12.3482H5.50312V10.3482H3.50313V12.3482ZM1.70312 10.5482C1.70312 11.5423 2.50901 12.3482 3.50313 12.3482V10.3482C3.61358 10.3482 3.70312 10.4377 3.70312 10.5482H1.70312ZM1.70312 6.29219V10.5482H3.70312V6.29219H1.70312ZM5.39375 5.30078H3.59375V7.30078H5.39375V5.30078ZM6.39375 8.10078V6.30078H4.39375V8.10078H6.39375ZM3.59375 9.10078H5.39375V7.10078H3.59375V9.10078ZM2.59375 6.30078V8.10078H4.59375V6.30078H2.59375ZM3.59375 9.80078H5.39375V7.80078H3.59375V9.80078ZM4.59375 10.6008V8.80078H2.59375V10.6008H4.59375ZM5.39375 9.60078H3.59375V11.6008H5.39375V9.60078ZM4.39375 8.80078V10.6008H6.39375V8.80078H4.39375Z" fill="#C5CFD8" mask="url(#path-5-inside-1_3183_3804)"/>
<path d="M3.47656 13.4609H9.23656" stroke="#C5CFD8" stroke-linecap="round"/>
<path d="M3.47656 16.3398H9.23656" stroke="#C5CFD8" stroke-linecap="round"/>
<circle cx="16.3381" cy="17.26" r="5.26" stroke="#C5CFD8"/>
<path d="M13.75 17.8775L15.5286 19.6561C15.6067 19.7342 15.7333 19.7342 15.8114 19.6561L19.03 16.4375" stroke="#00BAF2" stroke-linecap="round"/>
</svg>
