<svg width="24" height="24" viewBox="0 0 24 24" fill="none" xmlns="http://www.w3.org/2000/svg">
<path d="M8.7 5.49161V11.2516" stroke="#20336B"/>
<path d="M10.908 5.49161V10.3796C10.908 10.4901 10.9975 10.5796 11.108 10.5796H13.0796" stroke="#20336B"/>
<path d="M14.46 5.49161V10.3796C14.46 10.4901 14.5495 10.5796 14.66 10.5796H16.6316" stroke="#20336B"/>
<path d="M18.78 10.7929V1.47981C18.78 1.29924 18.5596 1.21113 18.4351 1.34192L16.5897 3.28073C16.5109 3.36355 16.3788 3.36355 16.3 3.28073L14.2715 1.1496C14.1867 1.06042 14.0421 1.06837 13.9675 1.16632L12.3838 3.24621C12.3092 3.34416 12.1647 3.35211 12.0798 3.26293L10.0683 1.1496C9.98341 1.06042 9.83889 1.06837 9.7643 1.16632L8.1975 3.22396C8.11746 3.32908 7.9593 3.32908 7.87926 3.22396L6.31245 1.16632C6.23787 1.06837 6.09334 1.06042 6.00846 1.1496L3.98 3.28073C3.90118 3.36355 3.76909 3.36355 3.69027 3.28073L1.84487 1.34192C1.72037 1.21113 1.5 1.29924 1.5 1.47981V22.4856C1.5 22.6751 1.73895 22.7583 1.85669 22.6099L3.67844 20.3131C3.75851 20.2122 3.91176 20.2122 3.99183 20.3131L5.99544 22.8392C6.08096 22.947 6.24727 22.9382 6.321 22.8221L7.86951 20.3817C7.94806 20.2579 8.1287 20.2579 8.20725 20.3817L9.76929 22.8434C9.83899 22.9532 9.99334 22.9683 10.083 22.8741L12.7086 20.1156" stroke="#20336B" stroke-linecap="round"/>
<mask id="path-5-inside-1_78_295" fill="white">
<path fill-rule="evenodd" clip-rule="evenodd" d="M3.70799 6.29161C3.70799 5.84978 4.06616 5.49161 4.50799 5.49161H6.50799C6.94982 5.49161 7.30799 5.84978 7.30799 6.29161V10.5476C7.30799 10.9894 6.94982 11.3476 6.50799 11.3476H4.50799C4.06617 11.3476 3.70799 10.9894 3.70799 10.5476V6.29161ZM4.59999 6.29961H6.39999V8.09961H4.59999V6.29961ZM6.39999 8.79961H4.59999V10.5996H6.39999V8.79961Z"/>
</mask>
<path fill-rule="evenodd" clip-rule="evenodd" d="M3.70799 6.29161C3.70799 5.84978 4.06616 5.49161 4.50799 5.49161H6.50799C6.94982 5.49161 7.30799 5.84978 7.30799 6.29161V10.5476C7.30799 10.9894 6.94982 11.3476 6.50799 11.3476H4.50799C4.06617 11.3476 3.70799 10.9894 3.70799 10.5476V6.29161ZM4.59999 6.29961H6.39999V8.09961H4.59999V6.29961ZM6.39999 8.79961H4.59999V10.5996H6.39999V8.79961Z" fill="#20336B"/>
<path d="M6.39999 6.29961H7.39999V5.29961H6.39999V6.29961ZM4.59999 6.29961V5.29961H3.59999V6.29961H4.59999ZM6.39999 8.09961V9.09961H7.39999V8.09961H6.39999ZM4.59999 8.09961H3.59999V9.09961H4.59999V8.09961ZM4.59999 8.79961V7.79961H3.59999V8.79961H4.59999ZM6.39999 8.79961H7.39999V7.79961H6.39999V8.79961ZM4.59999 10.5996H3.59999V11.5996H4.59999V10.5996ZM6.39999 10.5996V11.5996H7.39999V10.5996H6.39999ZM4.50799 4.49161C3.51388 4.49161 2.70799 5.29749 2.70799 6.29161H4.70799C4.70799 6.40206 4.61845 6.49161 4.50799 6.49161V4.49161ZM6.50799 4.49161H4.50799V6.49161H6.50799V4.49161ZM8.30799 6.29161C8.30799 5.29749 7.5021 4.49161 6.50799 4.49161V6.49161C6.39754 6.49161 6.30799 6.40207 6.30799 6.29161H8.30799ZM8.30799 10.5476V6.29161H6.30799V10.5476H8.30799ZM6.50799 12.3476C7.5021 12.3476 8.30799 11.5417 8.30799 10.5476H6.30799C6.30799 10.4372 6.39754 10.3476 6.50799 10.3476V12.3476ZM4.50799 12.3476H6.50799V10.3476H4.50799V12.3476ZM2.70799 10.5476C2.70799 11.5417 3.51388 12.3476 4.50799 12.3476V10.3476C4.61845 10.3476 4.70799 10.4371 4.70799 10.5476H2.70799ZM2.70799 6.29161V10.5476H4.70799V6.29161H2.70799ZM6.39999 5.29961H4.59999V7.29961H6.39999V5.29961ZM7.39999 8.09961V6.29961H5.39999V8.09961H7.39999ZM4.59999 9.09961H6.39999V7.09961H4.59999V9.09961ZM3.59999 6.29961V8.09961H5.59999V6.29961H3.59999ZM4.59999 9.79961H6.39999V7.79961H4.59999V9.79961ZM5.59999 10.5996V8.79961H3.59999V10.5996H5.59999ZM6.39999 9.59961H4.59999V11.5996H6.39999V9.59961ZM5.39999 8.79961V10.5996H7.39999V8.79961H5.39999Z" fill="#20336B" mask="url(#path-5-inside-1_78_295)"/>
<path d="M4.476 13.4596H10.236" stroke="#20336B" stroke-linecap="round"/>
<path d="M4.476 16.3396H10.236" stroke="#20336B" stroke-linecap="round"/>
<circle cx="17.34" cy="17.2596" r="5.26" stroke="#20336B"/>
<path d="M14.748 17.8756L16.5266 19.6542C16.6047 19.7323 16.7313 19.7323 16.8094 19.6542L20.028 16.4356" stroke="#00BAF2" stroke-linecap="round"/>
</svg>
