<svg width="206" height="226" viewBox="0 0 206 226" fill="none" xmlns="http://www.w3.org/2000/svg">
<line x1="102.5" y1="186" x2="102.5" y2="132" stroke="#425466" stroke-dasharray="4 4"/>
<rect y="24" width="206" height="148" rx="12" fill="#20336B"/>
<path d="M17.346 60H16.114L14.211 54.214V60H12.693V52.102H14.937L16.763 57.723L18.578 52.102H20.789V60H19.249V54.214L17.346 60ZM27.4476 57.107C27.4476 58.911 26.2816 60.121 24.6096 60.121C22.9376 60.121 21.7716 58.911 21.7716 57.107C21.7716 55.314 22.9376 54.104 24.6096 54.104C26.2816 54.104 27.4476 55.314 27.4476 57.107ZM23.3006 57.107C23.3006 58.207 23.8066 58.845 24.6096 58.845C25.4126 58.845 25.9076 58.207 25.9076 57.107C25.9076 56.018 25.4126 55.38 24.6096 55.38C23.8066 55.38 23.3006 56.018 23.3006 57.107ZM28.386 60V54.214H29.926V54.808C30.245 54.434 30.773 54.104 31.51 54.104C32.72 54.104 33.457 54.929 33.457 56.183V60H31.917V56.623C31.917 55.974 31.653 55.512 30.993 55.512C30.454 55.512 29.926 55.897 29.926 56.656V60H28.386ZM34.8457 58.493V55.501H34.0757V54.214H34.8457V52.564H36.3637V54.214H37.5407V55.501H36.3637V58.174C36.3637 58.669 36.6387 58.735 37.0897 58.735C37.3097 58.735 37.4197 58.724 37.6177 58.702V59.978C37.3427 60.033 37.0127 60.066 36.6277 60.066C35.4617 60.066 34.8457 59.681 34.8457 58.493ZM41.9914 54.203V55.71C41.8154 55.688 41.6834 55.677 41.4964 55.677C40.6934 55.677 40.0774 56.172 40.0774 57.063V60H38.5374V54.214H40.0774V55.028C40.3304 54.522 40.9024 54.181 41.6174 54.181C41.7714 54.181 41.8814 54.192 41.9914 54.203ZM44.2569 60.099C43.1239 60.099 42.2879 59.417 42.2879 58.394C42.2879 57.239 43.2119 56.755 44.3779 56.546L45.8189 56.271V56.183C45.8189 55.688 45.5659 55.38 44.9279 55.38C44.3559 55.38 44.0589 55.633 43.9269 56.15L42.4639 55.875C42.7279 54.896 43.6079 54.104 44.9829 54.104C46.4459 54.104 47.3259 54.775 47.3259 56.117V58.482C47.3259 58.79 47.4579 58.889 47.7989 58.845V60C46.8199 60.143 46.2259 59.945 45.9729 59.461C45.5989 59.868 45.0159 60.099 44.2569 60.099ZM45.8189 57.943V57.349L44.6859 57.58C44.1799 57.679 43.8059 57.844 43.8059 58.306C43.8059 58.702 44.1029 58.933 44.5649 58.933C45.2139 58.933 45.8189 58.592 45.8189 57.943ZM53.2889 52.102H55.1369L58.0959 60H56.4569L55.8299 58.306H52.5739L51.9469 60H50.3409L53.2889 52.102ZM54.1909 53.895L53.0799 56.931H55.3129L54.1909 53.895ZM61.8897 60.121C61.1637 60.121 60.6137 59.835 60.2727 59.406V61.958H58.7327V54.214H60.2727V54.808C60.6137 54.39 61.1637 54.104 61.8897 54.104C63.4847 54.104 64.4087 55.468 64.4087 57.107C64.4087 58.757 63.4847 60.121 61.8897 60.121ZM60.2397 56.953V57.272C60.2397 58.251 60.7897 58.801 61.5267 58.801C62.3957 58.801 62.8577 58.108 62.8577 57.107C62.8577 56.117 62.3957 55.424 61.5267 55.424C60.7897 55.424 60.2397 55.963 60.2397 56.953ZM68.4854 60.121C67.7594 60.121 67.2094 59.835 66.8684 59.406V61.958H65.3284V54.214H66.8684V54.808C67.2094 54.39 67.7594 54.104 68.4854 54.104C70.0804 54.104 71.0044 55.468 71.0044 57.107C71.0044 58.757 70.0804 60.121 68.4854 60.121ZM66.8354 56.953V57.272C66.8354 58.251 67.3854 58.801 68.1224 58.801C68.9914 58.801 69.4534 58.108 69.4534 57.107C69.4534 56.117 68.9914 55.424 68.1224 55.424C67.3854 55.424 66.8354 55.963 66.8354 56.953ZM76.9198 52.036C77.3451 52.036 77.7228 52.102 78.0528 52.234C78.3828 52.366 78.6431 52.5603 78.8338 52.817C79.0244 53.0663 79.1198 53.3743 79.1198 53.741C79.1198 54.247 78.9694 54.6723 78.6688 55.017C78.3681 55.3617 77.9941 55.6623 77.5468 55.919L79.0758 57.404C79.2224 57.1547 79.3508 56.8943 79.4608 56.623C79.5708 56.3443 79.6624 56.0657 79.7358 55.787H81.4408C81.3308 56.1977 81.1694 56.6377 80.9568 57.107C80.7441 57.5763 80.4728 58.0163 80.1428 58.427L81.7598 60H79.7358L79.1198 59.395C78.9584 59.505 78.7898 59.604 78.6138 59.692C78.4378 59.78 78.2544 59.857 78.0638 59.923C77.8731 59.9817 77.6714 60.0257 77.4588 60.055C77.2461 60.0917 77.0261 60.11 76.7988 60.11C76.2048 60.11 75.6951 60.0183 75.2698 59.835C74.8444 59.6443 74.5181 59.3803 74.2908 59.043C74.0634 58.7057 73.9498 58.317 73.9498 57.877C73.9498 57.503 74.0048 57.184 74.1148 56.92C74.2321 56.6487 74.3971 56.414 74.6098 56.216C74.8298 56.0107 75.0901 55.8237 75.3908 55.655C75.2001 55.435 75.0461 55.2297 74.9288 55.039C74.8188 54.841 74.7381 54.6467 74.6868 54.456C74.6428 54.2653 74.6208 54.0637 74.6208 53.851C74.6208 53.477 74.7161 53.1543 74.9068 52.883C75.1048 52.6117 75.3761 52.4027 75.7208 52.256C76.0728 52.1093 76.4724 52.036 76.9198 52.036ZM76.3478 56.634C76.2084 56.7367 76.0874 56.843 75.9848 56.953C75.8894 57.063 75.8124 57.1803 75.7538 57.305C75.7024 57.4297 75.6768 57.569 75.6768 57.723C75.6768 58.0383 75.7941 58.2877 76.0288 58.471C76.2634 58.647 76.5568 58.735 76.9088 58.735C77.1434 58.735 77.3634 58.7057 77.5688 58.647C77.7741 58.5883 77.9611 58.5077 78.1298 58.405L76.3478 56.634ZM76.9088 53.301C76.7254 53.301 76.5494 53.3487 76.3808 53.444C76.2194 53.532 76.1388 53.7043 76.1388 53.961C76.1388 54.1443 76.1828 54.3203 76.2708 54.489C76.3661 54.6577 76.4908 54.83 76.6448 55.006C76.9528 54.8373 77.1874 54.6687 77.3488 54.5C77.5174 54.3313 77.6018 54.137 77.6018 53.917C77.6018 53.697 77.5284 53.5393 77.3818 53.444C77.2351 53.3487 77.0774 53.301 76.9088 53.301ZM86.2934 57.096V60H84.6764V52.102H87.9104C89.7254 52.102 90.8584 52.96 90.8584 54.599C90.8584 56.227 89.7254 57.096 87.9104 57.096H86.2934ZM86.2934 55.721H87.8224C88.7684 55.721 89.2524 55.303 89.2524 54.599C89.2524 53.884 88.7684 53.477 87.8224 53.477H86.2934V55.721ZM93.1009 52.102V60H91.5609V52.102H93.1009ZM95.9376 60.099C94.8046 60.099 93.9686 59.417 93.9686 58.394C93.9686 57.239 94.8926 56.755 96.0586 56.546L97.4996 56.271V56.183C97.4996 55.688 97.2466 55.38 96.6086 55.38C96.0366 55.38 95.7396 55.633 95.6076 56.15L94.1446 55.875C94.4086 54.896 95.2886 54.104 96.6636 54.104C98.1266 54.104 99.0066 54.775 99.0066 56.117V58.482C99.0066 58.79 99.1386 58.889 99.4796 58.845V60C98.5006 60.143 97.9066 59.945 97.6536 59.461C97.2796 59.868 96.6966 60.099 95.9376 60.099ZM97.4996 57.943V57.349L96.3666 57.58C95.8606 57.679 95.4866 57.844 95.4866 58.306C95.4866 58.702 95.7836 58.933 96.2456 58.933C96.8946 58.933 97.4996 58.592 97.4996 57.943ZM100.48 58.493V55.501H99.7105V54.214H100.48V52.564H101.998V54.214H103.175V55.501H101.998V58.174C101.998 58.669 102.273 58.735 102.724 58.735C102.944 58.735 103.054 58.724 103.252 58.702V59.978C102.977 60.033 102.647 60.066 102.262 60.066C101.096 60.066 100.48 59.681 100.48 58.493ZM106.946 52.014V53.279C106.803 53.268 106.715 53.268 106.55 53.268C106.066 53.268 105.813 53.411 105.813 53.983V54.214H106.935V55.501H105.813V60H104.273V55.501H103.492V54.214H104.273V53.895C104.273 52.674 104.933 51.992 106.352 51.992C106.572 51.992 106.704 51.992 106.946 52.014ZM112.923 57.107C112.923 58.911 111.757 60.121 110.085 60.121C108.413 60.121 107.247 58.911 107.247 57.107C107.247 55.314 108.413 54.104 110.085 54.104C111.757 54.104 112.923 55.314 112.923 57.107ZM108.776 57.107C108.776 58.207 109.282 58.845 110.085 58.845C110.888 58.845 111.383 58.207 111.383 57.107C111.383 56.018 110.888 55.38 110.085 55.38C109.282 55.38 108.776 56.018 108.776 57.107ZM117.316 54.203V55.71C117.14 55.688 117.008 55.677 116.821 55.677C116.018 55.677 115.402 56.172 115.402 57.063V60H113.862V54.214H115.402V55.028C115.655 54.522 116.227 54.181 116.942 54.181C117.096 54.181 117.206 54.192 117.316 54.203ZM119.699 56.656V60H118.159V54.214H119.699V54.808C120.007 54.434 120.524 54.104 121.272 54.104C121.976 54.104 122.515 54.401 122.834 54.896C123.186 54.533 123.736 54.104 124.627 54.104C125.815 54.104 126.585 54.929 126.585 56.183V60H125.045V56.623C125.045 55.974 124.803 55.512 124.165 55.512C123.659 55.512 123.142 55.897 123.142 56.656V60H121.602V56.623C121.602 55.974 121.36 55.512 120.722 55.512C120.216 55.512 119.699 55.897 119.699 56.656ZM132.446 60.121C130.851 60.121 129.938 58.757 129.938 57.129C129.938 55.49 130.851 54.137 132.446 54.137C133.249 54.137 133.887 54.522 134.228 55.083V52.102H135.218V60H134.228V59.164C133.887 59.736 133.249 60.121 132.446 60.121ZM134.25 56.931C134.25 55.589 133.436 55.006 132.622 55.006C131.544 55.006 130.939 55.886 130.939 57.129C130.939 58.361 131.544 59.252 132.622 59.252C133.436 59.252 134.25 58.658 134.25 57.338V56.931ZM139.153 60.121C137.558 60.121 136.458 58.9 136.458 57.129C136.458 55.413 137.547 54.137 139.109 54.137C140.715 54.137 141.562 55.358 141.562 56.953V57.283H137.404C137.459 58.493 138.152 59.263 139.153 59.263C139.923 59.263 140.473 58.845 140.649 58.163L141.518 58.471C141.166 59.494 140.297 60.121 139.153 60.121ZM139.098 54.984C138.262 54.984 137.635 55.545 137.459 56.524H140.561C140.539 55.71 140.099 54.984 139.098 54.984ZM145.14 60H144.161L142.005 54.247H143.05L144.667 58.79L146.262 54.247H147.296L145.14 60ZM150.411 60.121C148.816 60.121 147.716 58.9 147.716 57.129C147.716 55.413 148.805 54.137 150.367 54.137C151.973 54.137 152.82 55.358 152.82 56.953V57.283H148.662C148.717 58.493 149.41 59.263 150.411 59.263C151.181 59.263 151.731 58.845 151.907 58.163L152.776 58.471C152.424 59.494 151.555 60.121 150.411 60.121ZM150.356 54.984C149.52 54.984 148.893 55.545 148.717 56.524H151.819C151.797 55.71 151.357 54.984 150.356 54.984ZM155.043 52.102V60H154.053V52.102H155.043ZM161.645 57.129C161.645 58.911 160.545 60.121 158.972 60.121C157.399 60.121 156.299 58.911 156.299 57.129C156.299 55.347 157.399 54.137 158.972 54.137C160.545 54.137 161.645 55.347 161.645 57.129ZM157.3 57.129C157.3 58.438 157.96 59.274 158.972 59.274C159.984 59.274 160.644 58.438 160.644 57.129C160.644 55.809 159.984 54.973 158.972 54.973C157.96 54.973 157.3 55.809 157.3 57.129ZM165.676 60.121C164.873 60.121 164.235 59.736 163.894 59.164V61.98H162.904V54.247H163.894V55.083C164.235 54.522 164.873 54.137 165.676 54.137C167.271 54.137 168.184 55.49 168.184 57.129C168.184 58.757 167.271 60.121 165.676 60.121ZM163.872 56.931V57.338C163.872 58.658 164.686 59.252 165.5 59.252C166.578 59.252 167.183 58.361 167.183 57.129C167.183 55.886 166.578 55.006 165.5 55.006C164.686 55.006 163.872 55.589 163.872 56.931ZM170.425 56.557V60H169.435V54.247H170.425V55.028C170.733 54.555 171.283 54.137 172.086 54.137C172.856 54.137 173.395 54.522 173.681 55.116C174 54.643 174.616 54.137 175.518 54.137C176.706 54.137 177.421 54.984 177.421 56.205V60H176.431V56.469C176.431 55.666 176.101 55.061 175.287 55.061C174.627 55.061 173.923 55.622 173.923 56.557V60H172.933V56.469C172.933 55.666 172.603 55.061 171.789 55.061C171.129 55.061 170.425 55.622 170.425 56.557ZM181.316 60.121C179.721 60.121 178.621 58.9 178.621 57.129C178.621 55.413 179.71 54.137 181.272 54.137C182.878 54.137 183.725 55.358 183.725 56.953V57.283H179.567C179.622 58.493 180.315 59.263 181.316 59.263C182.086 59.263 182.636 58.845 182.812 58.163L183.681 58.471C183.329 59.494 182.46 60.121 181.316 60.121ZM181.261 54.984C180.425 54.984 179.798 55.545 179.622 56.524H182.724C182.702 55.71 182.262 54.984 181.261 54.984ZM184.958 60V54.247H185.948V55.028C186.278 54.555 186.85 54.137 187.664 54.137C188.885 54.137 189.578 54.984 189.578 56.205V60H188.588V56.469C188.588 55.666 188.247 55.061 187.389 55.061C186.674 55.061 185.948 55.611 185.948 56.568V60H184.958ZM191.321 58.625V55.094H190.43V54.247H191.321V52.564H192.3V54.247H193.609V55.094H192.3V58.471C192.3 59.076 192.597 59.186 193.103 59.186C193.334 59.186 193.499 59.175 193.73 59.12V59.967C193.477 60.022 193.191 60.055 192.861 60.055C191.882 60.055 191.321 59.725 191.321 58.625ZM194.814 60V58.702H196.068V60.066C196.068 60.924 195.518 61.441 194.638 61.463V60.891C195.133 60.869 195.386 60.616 195.386 60.088V60H194.814ZM13.815 72.557V76H12.825V70.247H13.815V71.028C14.123 70.555 14.673 70.137 15.476 70.137C16.246 70.137 16.785 70.522 17.071 71.116C17.39 70.643 18.006 70.137 18.908 70.137C20.096 70.137 20.811 70.984 20.811 72.205V76H19.821V72.469C19.821 71.666 19.491 71.061 18.677 71.061C18.017 71.061 17.313 71.622 17.313 72.557V76H16.323V72.469C16.323 71.666 15.993 71.061 15.179 71.061C14.519 71.061 13.815 71.622 13.815 72.557ZM22.363 69.246V68.102H23.441V69.246H22.363ZM23.397 70.247V76H22.407V70.247H23.397ZM26.0396 68.102V76H25.0496V68.102H26.0396ZM29.9912 76.121C28.3962 76.121 27.2962 74.9 27.2962 73.129C27.2962 71.413 28.3852 70.137 29.9472 70.137C31.5532 70.137 32.4002 71.358 32.4002 72.953V73.283H28.2422C28.2972 74.493 28.9902 75.263 29.9912 75.263C30.7612 75.263 31.3112 74.845 31.4872 74.163L32.3562 74.471C32.0042 75.494 31.1352 76.121 29.9912 76.121ZM29.9362 70.984C29.1002 70.984 28.4732 71.545 28.2972 72.524H31.3992C31.3772 71.71 30.9372 70.984 29.9362 70.984ZM32.9946 74.779L33.7646 74.218C34.0726 74.889 34.7766 75.296 35.5246 75.296C36.1956 75.296 36.7896 75.01 36.7896 74.383C36.7896 73.756 36.2396 73.668 35.2936 73.47C34.3476 73.261 33.3576 73.052 33.3576 71.875C33.3576 70.852 34.2486 70.137 35.4696 70.137C36.5036 70.137 37.3506 70.643 37.6916 71.325L36.9876 71.886C36.6906 71.314 36.1516 70.951 35.4256 70.951C34.7656 70.951 34.3256 71.281 34.3256 71.798C34.3256 72.337 34.8316 72.436 35.6346 72.612C36.6246 72.843 37.7576 73.041 37.7576 74.295C37.7576 75.395 36.7566 76.121 35.5246 76.121C34.4796 76.121 33.4346 75.67 32.9946 74.779ZM39.1362 74.625V71.094H38.2452V70.247H39.1362V68.564H40.1152V70.247H41.4242V71.094H40.1152V74.471C40.1152 75.076 40.4122 75.186 40.9182 75.186C41.1492 75.186 41.3142 75.175 41.5452 75.12V75.967C41.2922 76.022 41.0062 76.055 40.6762 76.055C39.6972 76.055 39.1362 75.725 39.1362 74.625ZM47.6383 73.129C47.6383 74.911 46.5383 76.121 44.9653 76.121C43.3923 76.121 42.2923 74.911 42.2923 73.129C42.2923 71.347 43.3923 70.137 44.9653 70.137C46.5383 70.137 47.6383 71.347 47.6383 73.129ZM43.2933 73.129C43.2933 74.438 43.9533 75.274 44.9653 75.274C45.9773 75.274 46.6373 74.438 46.6373 73.129C46.6373 71.809 45.9773 70.973 44.9653 70.973C43.9533 70.973 43.2933 71.809 43.2933 73.129ZM48.8973 76V70.247H49.8873V71.028C50.2173 70.555 50.7893 70.137 51.6033 70.137C52.8243 70.137 53.5173 70.984 53.5173 72.205V76H52.5273V72.469C52.5273 71.666 52.1863 71.061 51.3283 71.061C50.6133 71.061 49.8873 71.611 49.8873 72.568V76H48.8973ZM57.4053 76.121C55.8103 76.121 54.7103 74.9 54.7103 73.129C54.7103 71.413 55.7993 70.137 57.3613 70.137C58.9673 70.137 59.8143 71.358 59.8143 72.953V73.283H55.6562C55.7113 74.493 56.4043 75.263 57.4053 75.263C58.1753 75.263 58.7253 74.845 58.9013 74.163L59.7703 74.471C59.4183 75.494 58.5493 76.121 57.4053 76.121ZM57.3503 70.984C56.5143 70.984 55.8873 71.545 55.7113 72.524H58.8133C58.7913 71.71 58.3513 70.984 57.3503 70.984ZM60.4087 74.779L61.1787 74.218C61.4867 74.889 62.1907 75.296 62.9387 75.296C63.6097 75.296 64.2037 75.01 64.2037 74.383C64.2037 73.756 63.6537 73.668 62.7077 73.47C61.7617 73.261 60.7717 73.052 60.7717 71.875C60.7717 70.852 61.6627 70.137 62.8837 70.137C63.9177 70.137 64.7647 70.643 65.1057 71.325L64.4017 71.886C64.1047 71.314 63.5657 70.951 62.8397 70.951C62.1797 70.951 61.7397 71.281 61.7397 71.798C61.7397 72.337 62.2457 72.436 63.0487 72.612C64.0387 72.843 65.1717 73.041 65.1717 74.295C65.1717 75.395 64.1707 76.121 62.9387 76.121C61.8937 76.121 60.8487 75.67 60.4087 74.779ZM70.1576 76.099C69.1126 76.099 68.2656 75.483 68.2656 74.449C68.2656 73.305 69.1566 72.832 70.4436 72.568L71.8406 72.282V72.04C71.8406 71.38 71.4776 71.006 70.7076 71.006C69.9816 71.006 69.5526 71.347 69.3766 71.985L68.4416 71.743C68.7166 70.808 69.5636 70.137 70.7406 70.137C72.0276 70.137 72.8196 70.764 72.8196 71.996V74.801C72.8196 75.175 73.0506 75.296 73.4356 75.208V76C72.5556 76.11 72.0496 75.901 71.9286 75.351C71.5766 75.802 70.9386 76.099 70.1576 76.099ZM71.8406 74.042V73.052L70.7186 73.294C69.8386 73.47 69.2446 73.712 69.2446 74.405C69.2446 74.966 69.6516 75.296 70.2786 75.296C71.1256 75.296 71.8406 74.779 71.8406 74.042ZM75.1006 73.129C75.1006 74.438 75.8046 75.252 76.8276 75.252C77.6196 75.252 78.0926 74.746 78.2576 74.031L79.1376 74.438C78.8626 75.395 78.0266 76.121 76.8276 76.121C75.2216 76.121 74.1106 74.9 74.1106 73.129C74.1106 71.347 75.2216 70.137 76.8276 70.137C78.0266 70.137 78.8406 70.83 79.1156 71.787L78.2576 72.216C78.0926 71.512 77.6196 70.995 76.8276 70.995C75.8046 70.995 75.1006 71.809 75.1006 73.129ZM80.2215 76V68.102H81.2115V71.028C81.5415 70.555 82.1135 70.137 82.9275 70.137C84.1485 70.137 84.8415 70.984 84.8415 72.205V76H83.8515V72.469C83.8515 71.666 83.5105 71.061 82.6525 71.061C81.9375 71.061 81.2115 71.611 81.2115 72.568V76H80.2215ZM86.3865 69.246V68.102H87.4645V69.246H86.3865ZM87.4205 70.247V76H86.4305V70.247H87.4205ZM91.372 76.121C89.777 76.121 88.677 74.9 88.677 73.129C88.677 71.413 89.766 70.137 91.328 70.137C92.934 70.137 93.781 71.358 93.781 72.953V73.283H89.623C89.678 74.493 90.371 75.263 91.372 75.263C92.142 75.263 92.692 74.845 92.868 74.163L93.737 74.471C93.385 75.494 92.516 76.121 91.372 76.121ZM91.317 70.984C90.481 70.984 89.854 71.545 89.678 72.524H92.78C92.758 71.71 92.318 70.984 91.317 70.984ZM97.3591 76H96.3801L94.2241 70.247H95.2691L96.8861 74.79L98.4811 70.247H99.5151L97.3591 76ZM102.63 76.121C101.035 76.121 99.9349 74.9 99.9349 73.129C99.9349 71.413 101.024 70.137 102.586 70.137C104.192 70.137 105.039 71.358 105.039 72.953V73.283H100.881C100.936 74.493 101.629 75.263 102.63 75.263C103.4 75.263 103.95 74.845 104.126 74.163L104.995 74.471C104.643 75.494 103.774 76.121 102.63 76.121ZM102.575 70.984C101.739 70.984 101.112 71.545 100.936 72.524H104.038C104.016 71.71 103.576 70.984 102.575 70.984ZM108.383 76.121C106.788 76.121 105.875 74.757 105.875 73.129C105.875 71.49 106.788 70.137 108.383 70.137C109.186 70.137 109.824 70.522 110.165 71.083V68.102H111.155V76H110.165V75.164C109.824 75.736 109.186 76.121 108.383 76.121ZM110.187 72.931C110.187 71.589 109.373 71.006 108.559 71.006C107.481 71.006 106.876 71.886 106.876 73.129C106.876 74.361 107.481 75.252 108.559 75.252C109.373 75.252 110.187 74.658 110.187 73.338V72.931ZM112.759 75.406C112.759 75.1347 112.825 74.944 112.957 74.834C113.089 74.724 113.246 74.669 113.43 74.669C113.62 74.669 113.782 74.724 113.914 74.834C114.053 74.944 114.123 75.1347 114.123 75.406C114.123 75.67 114.053 75.8607 113.914 75.978C113.782 76.0953 113.62 76.154 113.43 76.154C113.246 76.154 113.089 76.0953 112.957 75.978C112.825 75.8607 112.759 75.67 112.759 75.406ZM112.759 70.698C112.759 70.4193 112.825 70.225 112.957 70.115C113.089 70.005 113.246 69.95 113.43 69.95C113.62 69.95 113.782 70.005 113.914 70.115C114.053 70.225 114.123 70.4193 114.123 70.698C114.123 70.962 114.053 71.1527 113.914 71.27C113.782 71.3873 113.62 71.446 113.43 71.446C113.246 71.446 113.089 71.3873 112.957 71.27C112.825 71.1527 112.759 70.962 112.759 70.698Z" fill="white"/>
<path d="M24.407 92.051C24.407 89.642 25.925 87.981 27.993 87.981C30.061 87.981 31.568 89.642 31.568 92.051C31.568 93.591 30.952 94.834 29.962 95.516C30.281 95.978 30.886 96.341 31.502 96.495L30.886 97.254C30.182 97.056 29.445 96.517 29.126 95.945C28.774 96.055 28.389 96.121 27.993 96.121C25.925 96.121 24.407 94.46 24.407 92.051ZM30.523 92.051C30.523 90.181 29.478 88.916 27.993 88.916C26.508 88.916 25.463 90.181 25.463 92.051C25.463 93.921 26.508 95.186 27.993 95.186C29.478 95.186 30.523 93.921 30.523 92.051ZM33.9064 92.689V96H32.8504V88.102H35.8644C37.5364 88.102 38.6034 88.883 38.6034 90.39C38.6034 91.655 37.8334 92.425 36.5794 92.634L38.7684 96H37.5584L35.4354 92.689H33.9064ZM33.9064 91.776H35.8094C36.9314 91.776 37.5584 91.281 37.5584 90.39C37.5584 89.499 36.9314 89.015 35.8094 89.015H33.9064V91.776ZM42.8976 92.051C42.8976 93.921 43.9316 95.186 45.3946 95.186C46.4176 95.186 47.1546 94.592 47.4406 93.591L48.4416 93.921C47.9796 95.285 46.9016 96.121 45.3946 96.121C43.3486 96.121 41.8416 94.46 41.8416 92.051C41.8416 89.642 43.3486 87.981 45.3946 87.981C46.9016 87.981 47.9796 88.817 48.4416 90.181L47.4406 90.511C47.1546 89.51 46.4176 88.916 45.3946 88.916C43.9316 88.916 42.8976 90.181 42.8976 92.051ZM54.4605 93.129C54.4605 94.911 53.3605 96.121 51.7875 96.121C50.2145 96.121 49.1145 94.911 49.1145 93.129C49.1145 91.347 50.2145 90.137 51.7875 90.137C53.3605 90.137 54.4605 91.347 54.4605 93.129ZM50.1155 93.129C50.1155 94.438 50.7755 95.274 51.7875 95.274C52.7995 95.274 53.4595 94.438 53.4595 93.129C53.4595 91.809 52.7995 90.973 51.7875 90.973C50.7755 90.973 50.1155 91.809 50.1155 93.129ZM57.8315 96.121C56.2365 96.121 55.3235 94.757 55.3235 93.129C55.3235 91.49 56.2365 90.137 57.8315 90.137C58.6345 90.137 59.2725 90.522 59.6135 91.083V88.102H60.6035V96H59.6135V95.164C59.2725 95.736 58.6345 96.121 57.8315 96.121ZM59.6355 92.931C59.6355 91.589 58.8215 91.006 58.0075 91.006C56.9295 91.006 56.3245 91.886 56.3245 93.129C56.3245 94.361 56.9295 95.252 58.0075 95.252C58.8215 95.252 59.6355 94.658 59.6355 93.338V92.931ZM64.539 96.121C62.944 96.121 61.844 94.9 61.844 93.129C61.844 91.413 62.933 90.137 64.495 90.137C66.101 90.137 66.948 91.358 66.948 92.953V93.283H62.79C62.845 94.493 63.538 95.263 64.539 95.263C65.309 95.263 65.859 94.845 66.035 94.163L66.904 94.471C66.552 95.494 65.683 96.121 64.539 96.121ZM64.484 90.984C63.648 90.984 63.021 91.545 62.845 92.524H65.947C65.925 91.71 65.485 90.984 64.484 90.984Z" fill="white"/>
<rect x="12" y="90" width="4" height="4" fill="white"/>
<path d="M25.925 112.689V116H24.869V108.102H27.883C29.555 108.102 30.622 108.883 30.622 110.39C30.622 111.875 29.555 112.689 27.883 112.689H25.925ZM25.925 111.776H27.828C28.95 111.776 29.577 111.281 29.577 110.39C29.577 109.499 28.95 109.015 27.828 109.015H25.925V111.776ZM32.9369 116.099C31.8919 116.099 31.0449 115.483 31.0449 114.449C31.0449 113.305 31.9359 112.832 33.2229 112.568L34.6199 112.282V112.04C34.6199 111.38 34.2569 111.006 33.4869 111.006C32.7609 111.006 32.3319 111.347 32.1559 111.985L31.2209 111.743C31.4959 110.808 32.3429 110.137 33.5199 110.137C34.8069 110.137 35.5989 110.764 35.5989 111.996V114.801C35.5989 115.175 35.8299 115.296 36.2149 115.208V116C35.3349 116.11 34.8289 115.901 34.7079 115.351C34.3559 115.802 33.7179 116.099 32.9369 116.099ZM34.6199 114.042V113.052L33.4979 113.294C32.6179 113.47 32.0239 113.712 32.0239 114.405C32.0239 114.966 32.4309 115.296 33.0579 115.296C33.9049 115.296 34.6199 114.779 34.6199 114.042ZM39.3555 116.627C39.0255 117.496 38.5745 118.046 37.5735 118.046C37.3315 118.046 37.2105 118.035 37.0345 118.002V117.144C37.2215 117.188 37.3425 117.199 37.5075 117.199C37.9365 117.199 38.1675 117.045 38.3985 116.473L38.6735 115.791L36.5395 110.247H37.5845L39.2015 114.647L40.7965 110.247H41.8305L39.3555 116.627ZM43.7867 112.557V116H42.7967V110.247H43.7867V111.028C44.0947 110.555 44.6447 110.137 45.4477 110.137C46.2177 110.137 46.7567 110.522 47.0427 111.116C47.3617 110.643 47.9777 110.137 48.8797 110.137C50.0677 110.137 50.7827 110.984 50.7827 112.205V116H49.7927V112.469C49.7927 111.666 49.4627 111.061 48.6487 111.061C47.9887 111.061 47.2847 111.622 47.2847 112.557V116H46.2947V112.469C46.2947 111.666 45.9647 111.061 45.1507 111.061C44.4907 111.061 43.7867 111.622 43.7867 112.557ZM54.6777 116.121C53.0827 116.121 51.9827 114.9 51.9827 113.129C51.9827 111.413 53.0717 110.137 54.6337 110.137C56.2397 110.137 57.0867 111.358 57.0867 112.953V113.283H52.9287C52.9837 114.493 53.6767 115.263 54.6777 115.263C55.4477 115.263 55.9977 114.845 56.1737 114.163L57.0427 114.471C56.6907 115.494 55.8217 116.121 54.6777 116.121ZM54.6227 110.984C53.7867 110.984 53.1597 111.545 52.9837 112.524H56.0857C56.0637 111.71 55.6237 110.984 54.6227 110.984ZM58.3191 116V110.247H59.3091V111.028C59.6391 110.555 60.2111 110.137 61.0251 110.137C62.2461 110.137 62.9391 110.984 62.9391 112.205V116H61.9491V112.469C61.9491 111.666 61.6081 111.061 60.7501 111.061C60.0351 111.061 59.3091 111.611 59.3091 112.568V116H58.3191ZM64.6821 114.625V111.094H63.7911V110.247H64.6821V108.564H65.6611V110.247H66.9701V111.094H65.6611V114.471C65.6611 115.076 65.9581 115.186 66.4641 115.186C66.6951 115.186 66.8601 115.175 67.0911 115.12V115.967C66.8381 116.022 66.5521 116.055 66.2221 116.055C65.2431 116.055 64.6821 115.725 64.6821 114.625ZM72.9847 108.102H74.1507L77.1977 116H76.1307L75.3277 113.921H71.7857L70.9937 116H69.9377L72.9847 108.102ZM73.5457 109.29L72.1377 112.997H74.9757L73.5457 109.29ZM80.9105 116.121C80.1075 116.121 79.4695 115.736 79.1285 115.164V117.98H78.1385V110.247H79.1285V111.083C79.4695 110.522 80.1075 110.137 80.9105 110.137C82.5055 110.137 83.4185 111.49 83.4185 113.129C83.4185 114.757 82.5055 116.121 80.9105 116.121ZM79.1065 112.931V113.338C79.1065 114.658 79.9205 115.252 80.7345 115.252C81.8125 115.252 82.4175 114.361 82.4175 113.129C82.4175 111.886 81.8125 111.006 80.7345 111.006C79.9205 111.006 79.1065 111.589 79.1065 112.931ZM87.4417 116.121C86.6387 116.121 86.0007 115.736 85.6597 115.164V117.98H84.6697V110.247H85.6597V111.083C86.0007 110.522 86.6387 110.137 87.4417 110.137C89.0367 110.137 89.9497 111.49 89.9497 113.129C89.9497 114.757 89.0367 116.121 87.4417 116.121ZM85.6377 112.931V113.338C85.6377 114.658 86.4517 115.252 87.2657 115.252C88.3437 115.252 88.9487 114.361 88.9487 113.129C88.9487 111.886 88.3437 111.006 87.2657 111.006C86.4517 111.006 85.6377 111.589 85.6377 112.931Z" fill="white"/>
<rect x="12" y="110" width="4" height="4" fill="white"/>
<path d="M25.925 128.102V136H24.869V128.102H25.925ZM27.618 136V130.247H28.608V131.028C28.938 130.555 29.51 130.137 30.324 130.137C31.545 130.137 32.238 130.984 32.238 132.205V136H31.248V132.469C31.248 131.666 30.907 131.061 30.049 131.061C29.334 131.061 28.608 131.611 28.608 132.568V136H27.618ZM36.194 136H35.215L33.059 130.247H34.104L35.721 134.79L37.316 130.247H38.35L36.194 136ZM41.4648 136.121C39.8698 136.121 38.7698 134.9 38.7698 133.129C38.7698 131.413 39.8588 130.137 41.4208 130.137C43.0268 130.137 43.8738 131.358 43.8738 132.953V133.283H39.7158C39.7708 134.493 40.4638 135.263 41.4648 135.263C42.2348 135.263 42.7848 134.845 42.9608 134.163L43.8298 134.471C43.4778 135.494 42.6088 136.121 41.4648 136.121ZM41.4098 130.984C40.5738 130.984 39.9468 131.545 39.7708 132.524H42.8728C42.8508 131.71 42.4108 130.984 41.4098 130.984ZM45.1063 136V130.247H46.0963V131.028C46.4263 130.555 46.9983 130.137 47.8123 130.137C49.0333 130.137 49.7263 130.984 49.7263 132.205V136H48.7363V132.469C48.7363 131.666 48.3953 131.061 47.5373 131.061C46.8223 131.061 46.0963 131.611 46.0963 132.568V136H45.1063ZM51.4692 134.625V131.094H50.5782V130.247H51.4692V128.564H52.4482V130.247H53.7572V131.094H52.4482V134.471C52.4482 135.076 52.7452 135.186 53.2512 135.186C53.4822 135.186 53.6472 135.175 53.8782 135.12V135.967C53.6252 136.022 53.3392 136.055 53.0092 136.055C52.0302 136.055 51.4692 135.725 51.4692 134.625ZM59.9713 133.129C59.9713 134.911 58.8713 136.121 57.2983 136.121C55.7253 136.121 54.6253 134.911 54.6253 133.129C54.6253 131.347 55.7253 130.137 57.2983 130.137C58.8713 130.137 59.9713 131.347 59.9713 133.129ZM55.6263 133.129C55.6263 134.438 56.2863 135.274 57.2983 135.274C58.3103 135.274 58.9703 134.438 58.9703 133.129C58.9703 131.809 58.3103 130.973 57.2983 130.973C56.2863 130.973 55.6263 131.809 55.6263 133.129ZM64.2113 130.225V131.226C64.0463 131.193 63.9143 131.182 63.7273 131.182C62.8913 131.182 62.2203 131.842 62.2203 132.854V136H61.2303V130.247H62.2203V131.226C62.4733 130.643 63.0343 130.203 63.8153 130.203C63.9693 130.203 64.1123 130.214 64.2113 130.225ZM67.5 136.627C67.17 137.496 66.719 138.046 65.718 138.046C65.476 138.046 65.355 138.035 65.179 138.002V137.144C65.366 137.188 65.487 137.199 65.652 137.199C66.081 137.199 66.312 137.045 66.543 136.473L66.818 135.791L64.684 130.247H65.729L67.346 134.647L68.941 130.247H69.975L67.5 136.627ZM77.5515 136H76.7045L74.2955 129.499V136H73.3055V128.102H74.7465L77.1445 134.592L79.5535 128.102H80.9505V136H79.9715V129.499L77.5515 136ZM82.6502 136V130.247H83.6402V131.028C83.9702 130.555 84.5422 130.137 85.3562 130.137C86.5772 130.137 87.2702 130.984 87.2702 132.205V136H86.2802V132.469C86.2802 131.666 85.9392 131.061 85.0812 131.061C84.3662 131.061 83.6402 131.611 83.6402 132.568V136H82.6502ZM90.3002 136.099C89.2552 136.099 88.4082 135.483 88.4082 134.449C88.4082 133.305 89.2992 132.832 90.5862 132.568L91.9832 132.282V132.04C91.9832 131.38 91.6202 131.006 90.8502 131.006C90.1242 131.006 89.6952 131.347 89.5192 131.985L88.5842 131.743C88.8592 130.808 89.7062 130.137 90.8832 130.137C92.1702 130.137 92.9622 130.764 92.9622 131.996V134.801C92.9622 135.175 93.1932 135.296 93.5782 135.208V136C92.6982 136.11 92.1922 135.901 92.0712 135.351C91.7192 135.802 91.0812 136.099 90.3002 136.099ZM91.9832 134.042V133.052L90.8612 133.294C89.9812 133.47 89.3872 133.712 89.3872 134.405C89.3872 134.966 89.7942 135.296 90.4212 135.296C91.2682 135.296 91.9832 134.779 91.9832 134.042ZM99.5222 135.483C99.5222 137.166 98.4112 138.101 96.8492 138.101C95.5842 138.101 94.6602 137.518 94.3412 136.462L95.2652 136.11C95.4522 136.847 96.0462 137.276 96.8492 137.276C97.8612 137.276 98.5322 136.759 98.5322 135.56V134.911C98.2242 135.472 97.5752 135.868 96.7722 135.868C95.1992 135.868 94.2752 134.57 94.2752 132.997C94.2752 131.435 95.1992 130.137 96.7722 130.137C97.5642 130.137 98.2242 130.533 98.5322 131.094V130.247H99.5222V135.483ZM98.5432 132.909C98.5432 131.622 97.7732 131.006 96.9482 131.006C95.9032 131.006 95.2652 131.787 95.2652 132.997C95.2652 134.207 95.9032 134.999 96.9482 134.999C97.7732 134.999 98.5432 134.383 98.5432 133.118V132.909ZM103.469 136.121C101.874 136.121 100.774 134.9 100.774 133.129C100.774 131.413 101.863 130.137 103.425 130.137C105.031 130.137 105.878 131.358 105.878 132.953V133.283H101.72C101.775 134.493 102.468 135.263 103.469 135.263C104.239 135.263 104.789 134.845 104.965 134.163L105.834 134.471C105.482 135.494 104.613 136.121 103.469 136.121ZM103.414 130.984C102.578 130.984 101.951 131.545 101.775 132.524H104.877C104.855 131.71 104.415 130.984 103.414 130.984ZM108.1 132.557V136H107.11V130.247H108.1V131.028C108.408 130.555 108.958 130.137 109.761 130.137C110.531 130.137 111.07 130.522 111.356 131.116C111.675 130.643 112.291 130.137 113.193 130.137C114.381 130.137 115.096 130.984 115.096 132.205V136H114.106V132.469C114.106 131.666 113.776 131.061 112.962 131.061C112.302 131.061 111.598 131.622 111.598 132.557V136H110.608V132.469C110.608 131.666 110.278 131.061 109.464 131.061C108.804 131.061 108.1 131.622 108.1 132.557ZM118.991 136.121C117.396 136.121 116.296 134.9 116.296 133.129C116.296 131.413 117.385 130.137 118.947 130.137C120.553 130.137 121.4 131.358 121.4 132.953V133.283H117.242C117.297 134.493 117.99 135.263 118.991 135.263C119.761 135.263 120.311 134.845 120.487 134.163L121.356 134.471C121.004 135.494 120.135 136.121 118.991 136.121ZM118.936 130.984C118.1 130.984 117.473 131.545 117.297 132.524H120.399C120.377 131.71 119.937 130.984 118.936 130.984ZM122.633 136V130.247H123.623V131.028C123.953 130.555 124.525 130.137 125.339 130.137C126.56 130.137 127.253 130.984 127.253 132.205V136H126.263V132.469C126.263 131.666 125.922 131.061 125.064 131.061C124.349 131.061 123.623 131.611 123.623 132.568V136H122.633ZM128.996 134.625V131.094H128.105V130.247H128.996V128.564H129.975V130.247H131.284V131.094H129.975V134.471C129.975 135.076 130.272 135.186 130.778 135.186C131.009 135.186 131.174 135.175 131.405 135.12V135.967C131.152 136.022 130.866 136.055 130.536 136.055C129.557 136.055 128.996 135.725 128.996 134.625Z" fill="white"/>
<rect x="12" y="130" width="4" height="4" fill="white"/>
<path d="M25.925 148.102V156H24.869V148.102H25.925ZM27.618 156V150.247H28.608V151.028C28.938 150.555 29.51 150.137 30.324 150.137C31.545 150.137 32.238 150.984 32.238 152.205V156H31.248V152.469C31.248 151.666 30.907 151.061 30.049 151.061C29.334 151.061 28.608 151.611 28.608 152.568V156H27.618ZM36.194 156H35.215L33.059 150.247H34.104L35.721 154.79L37.316 150.247H38.35L36.194 156ZM44.1158 153.129C44.1158 154.911 43.0158 156.121 41.4428 156.121C39.8698 156.121 38.7698 154.911 38.7698 153.129C38.7698 151.347 39.8698 150.137 41.4428 150.137C43.0158 150.137 44.1158 151.347 44.1158 153.129ZM39.7708 153.129C39.7708 154.438 40.4308 155.274 41.4428 155.274C42.4548 155.274 43.1148 154.438 43.1148 153.129C43.1148 151.809 42.4548 150.973 41.4428 150.973C40.4308 150.973 39.7708 151.809 39.7708 153.129ZM45.3308 149.246V148.102H46.4088V149.246H45.3308ZM46.3648 150.247V156H45.3748V150.247H46.3648ZM48.6114 153.129C48.6114 154.438 49.3154 155.252 50.3384 155.252C51.1304 155.252 51.6034 154.746 51.7684 154.031L52.6484 154.438C52.3734 155.395 51.5374 156.121 50.3384 156.121C48.7324 156.121 47.6214 154.9 47.6214 153.129C47.6214 151.347 48.7324 150.137 50.3384 150.137C51.5374 150.137 52.3514 150.83 52.6264 151.787L51.7684 152.216C51.6034 151.512 51.1304 150.995 50.3384 150.995C49.3154 150.995 48.6114 151.809 48.6114 153.129ZM53.6882 149.246V148.102H54.7662V149.246H53.6882ZM54.7222 150.247V156H53.7322V150.247H54.7222ZM56.3748 156V150.247H57.3648V151.028C57.6948 150.555 58.2668 150.137 59.0808 150.137C60.3018 150.137 60.9948 150.984 60.9948 152.205V156H60.0048V152.469C60.0048 151.666 59.6638 151.061 58.8058 151.061C58.0908 151.061 57.3648 151.611 57.3648 152.568V156H56.3748ZM67.4568 155.483C67.4568 157.166 66.3458 158.101 64.7838 158.101C63.5188 158.101 62.5948 157.518 62.2758 156.462L63.1998 156.11C63.3868 156.847 63.9808 157.276 64.7838 157.276C65.7958 157.276 66.4668 156.759 66.4668 155.56V154.911C66.1588 155.472 65.5098 155.868 64.7068 155.868C63.1338 155.868 62.2098 154.57 62.2098 152.997C62.2098 151.435 63.1338 150.137 64.7068 150.137C65.4988 150.137 66.1588 150.533 66.4668 151.094V150.247H67.4568V155.483ZM66.4778 152.909C66.4778 151.622 65.7078 151.006 64.8828 151.006C63.8378 151.006 63.1998 151.787 63.1998 152.997C63.1998 154.207 63.8378 154.999 64.8828 154.999C65.7078 154.999 66.4778 154.383 66.4778 153.118V152.909Z" fill="white"/>
<rect x="12" y="150" width="4" height="4" fill="white"/>
<rect x="83.5" y="4.5" width="39" height="39" rx="19.5" fill="white"/>
<rect x="83.5" y="4.5" width="39" height="39" rx="19.5" stroke="#20336B"/>
<rect x="93" y="14" width="20" height="20" rx="4" fill="#20336B"/>
<path d="M102.505 27.2322L102.614 26.7379L103.358 26.6278L103.227 27.2322H102.505Z" fill="#4ABCEB" stroke="#4ABCEB"/>
<path d="M107.269 27.2222L107.507 26.0584L108.23 25.9729L107.939 27.2222H107.269Z" fill="#4ABCEB" stroke="#4ABCEB"/>
<mask id="path-16-inside-1_3183_29480" fill="white">
<path d="M97.1719 27.6686L99.0525 27.0332L98.9152 27.7215H97.1719V27.6686Z"/>
</mask>
<path d="M97.1719 27.6686L99.0525 27.0332L98.9152 27.7215H97.1719V27.6686Z" fill="#4ABCEB"/>
<path d="M97.1719 27.6686L96.8518 26.7212L96.1719 26.9509V27.6686H97.1719ZM99.0525 27.0332L100.033 27.2289L100.372 25.532L98.7325 26.0858L99.0525 27.0332ZM98.9152 27.7215V28.7215H99.7353L99.8958 27.9172L98.9152 27.7215ZM97.1719 27.7215H96.1719V28.7215H97.1719V27.7215ZM97.4919 28.6159L99.3726 27.9806L98.7325 26.0858L96.8518 26.7212L97.4919 28.6159ZM98.0719 26.8375L97.9345 27.5258L99.8958 27.9172L100.033 27.2289L98.0719 26.8375ZM98.9152 26.7215H97.1719V28.7215H98.9152V26.7215ZM98.1719 27.7215V27.6686H96.1719V27.7215H98.1719Z" fill="#4ABCEB" mask="url(#path-16-inside-1_3183_29480)"/>
<mask id="mask0_3183_29480" style="mask-type:luminance" maskUnits="userSpaceOnUse" x="97" y="19" width="13" height="9">
<path d="M108.886 25.4095C108.28 25.4737 107.685 25.5411 107.103 25.6118L107.661 22.9906C107.72 22.7322 107.75 22.4986 107.75 22.2899C107.75 21.545 107.299 21.1726 106.399 21.1726H105.047L104.011 26.0356C103.385 26.1335 102.784 26.2363 102.208 26.3438L103.308 21.1726H100.753C100.447 21.1726 100.264 21.3215 100.204 21.6192L99.0531 27.0626C98.344 27.2625 97.7155 27.4768 97.1797 27.7043L98.5703 21.1726C98.6691 20.7054 98.8372 20.3647 99.0748 20.1503C99.3124 19.9368 99.6836 19.8301 100.189 19.8301H106.859C107.681 19.8301 108.337 19.9942 108.827 20.3225C109.318 20.65 109.563 21.1569 109.563 21.8432C109.563 22.1314 109.543 22.3597 109.503 22.5283L108.886 25.4095Z" fill="white"/>
<path d="M108.886 25.4095C108.28 25.4737 107.685 25.5411 107.103 25.6118L107.661 22.9906C107.72 22.7322 107.75 22.4986 107.75 22.2899C107.75 21.545 107.299 21.1726 106.399 21.1726H105.047L104.011 26.0356C103.385 26.1335 102.784 26.2363 102.208 26.3438L103.308 21.1726H100.753C100.447 21.1726 100.264 21.3215 100.204 21.6192L99.0531 27.0626C98.344 27.2625 97.7155 27.4768 97.1797 27.7043L98.5703 21.1726C98.6691 20.7054 98.8372 20.3647 99.0748 20.1503C99.3124 19.9368 99.6836 19.8301 100.189 19.8301H106.859C107.681 19.8301 108.337 19.9942 108.827 20.3225C109.318 20.65 109.563 21.1569 109.563 21.8432C109.563 22.1314 109.543 22.3597 109.503 22.5283L108.886 25.4095Z" stroke="white"/>
</mask>
<g mask="url(#mask0_3183_29480)">
<path d="M149.588 33.0362H95.3828V17.9258H149.588V33.0362Z" fill="white"/>
<path d="M149.588 33.0362H95.3828V17.9258H149.588V33.0362Z" stroke="#4ABCEB"/>
</g>
<line x1="102.5" y1="226" x2="102.5" y2="172" stroke="#E7E7E7" stroke-dasharray="4 4"/>
</svg>
