<svg width="24" height="24" viewBox="0 0 24 24" fill="none" xmlns="http://www.w3.org/2000/svg">
<path d="M8.08438 18.3693C8.07828 18.3393 8.06937 18.3098 8.05766 18.2812C8.04594 18.253 8.03141 18.2259 8.01453 18.2005C7.99765 18.1749 7.97817 18.151 7.95641 18.1293C7.93471 18.1075 7.91083 18.0881 7.88516 18.0712C7.85962 18.0541 7.83246 18.0397 7.80406 18.028C7.77594 18.0163 7.74641 18.007 7.71641 18.0013C7.65608 17.9891 7.59392 17.9891 7.53359 18.0013C7.50359 18.007 7.47406 18.0163 7.44547 18.028C7.41734 18.0398 7.39016 18.0543 7.36484 18.0712C7.33906 18.088 7.31516 18.1077 7.29359 18.1293C7.27203 18.1509 7.25234 18.1748 7.23547 18.2005C7.21813 18.2259 7.20406 18.253 7.19234 18.2812C7.18048 18.3096 7.17152 18.3391 7.16562 18.3693C7.15953 18.3993 7.15625 18.4302 7.15625 18.4607C7.15625 18.4912 7.15953 18.5221 7.16562 18.5521C7.17125 18.5821 7.18063 18.6116 7.19234 18.6398C7.20406 18.6684 7.21813 18.6955 7.23547 18.7209C7.25234 18.7466 7.27203 18.7705 7.29359 18.7921C7.31516 18.8137 7.33906 18.8334 7.36484 18.8502C7.39016 18.8672 7.41734 18.8817 7.44547 18.8934C7.47406 18.9051 7.50359 18.9145 7.53359 18.9201C7.56359 18.9262 7.59453 18.9295 7.625 18.9295C7.65547 18.9295 7.68641 18.9262 7.71641 18.9201C7.74641 18.9145 7.77594 18.9051 7.80406 18.8934C7.83266 18.8817 7.85984 18.8671 7.88516 18.8502C7.91083 18.8334 7.93471 18.8139 7.95641 18.7921C7.97797 18.7705 7.99766 18.7466 8.01453 18.7209C8.03141 18.6955 8.04594 18.6684 8.05766 18.6398C8.0812 18.583 8.09346 18.5222 8.09375 18.4607C8.09375 18.4302 8.09047 18.3993 8.08438 18.3693Z" fill="#20336B"/>
<path d="M21.5622 18.5149C21.5604 18.5102 21.5585 18.5056 21.5565 18.501C21.1251 17.4914 20.1132 17.1183 18.9158 17.5273L15.6501 18.4304C15.4613 17.8586 14.9903 17.372 14.3244 17.1249C14.3203 17.1234 14.3161 17.1219 14.312 17.1205L10.7222 15.9021C10.4235 15.5159 9.48755 14.5277 7.73522 14.5277C6.51061 14.5277 5.42728 15.3678 4.8075 16.2835H0.46875C0.209859 16.2835 0 16.4933 0 16.7522V22.6621C0 22.921 0.209859 23.1308 0.46875 23.1308H3.2558C3.51469 23.1308 3.72455 22.921 3.72455 22.6621V22.2574H5.03156C5.29045 22.2574 5.50031 22.0475 5.50031 21.7886V21.6537C6.26222 21.7202 6.51281 21.8647 7.21256 22.2682C7.75069 22.5785 8.56402 23.0475 10.0287 23.706C10.0355 23.7091 10.0424 23.712 10.0492 23.7147C10.3304 23.8253 10.8799 23.999 11.5574 23.999C12.0289 23.999 12.5626 23.9148 13.1104 23.6665L20.3287 21.082C20.3415 21.0774 20.3542 21.0722 20.3666 21.0665C21.0564 20.7491 22.0845 19.8546 21.5622 18.5149ZM2.78705 22.1933H0.9375V17.2209H2.78705V22.1933ZM4.56281 21.3198H3.72455V17.2209H4.56281V21.3198ZM19.992 20.2067L12.7769 22.79C12.7634 22.795 12.75 22.8004 12.7369 22.8063C11.732 23.2681 10.7768 22.9917 10.4025 22.8461C8.98772 22.2095 8.23261 21.7741 7.68089 21.456C6.91383 21.0136 6.54422 20.8005 5.50031 20.7142V16.9388C5.94464 16.2106 6.8063 15.4651 7.73527 15.4651C9.32836 15.4651 10.0034 16.5013 10.0299 16.5431C10.0872 16.6362 10.1751 16.7064 10.2786 16.7415L14.004 18.0059C14.599 18.2292 14.9134 18.7387 14.7689 19.2469C14.7364 19.3624 14.6813 19.4703 14.6068 19.5644C14.5324 19.6584 14.44 19.7368 14.335 19.7949C14.1255 19.9123 13.878 19.9419 13.6467 19.8773L9.44705 18.5464C9.20011 18.4682 8.93677 18.6049 8.85858 18.8517C8.78034 19.0985 8.91703 19.3619 9.16383 19.4401L13.3708 20.7733C13.3753 20.7747 13.3797 20.7761 13.3842 20.7773C13.5497 20.8246 13.721 20.8486 13.8931 20.8487C14.2043 20.8487 14.512 20.7695 14.7913 20.6138C15.2232 20.3732 15.5355 19.9788 15.6706 19.5033C15.6814 19.4653 15.691 19.4273 15.6993 19.3894L19.2188 18.4144C19.7271 18.2407 20.3944 18.1782 20.6915 18.8624C20.999 19.6657 20.1998 20.1076 19.992 20.2067ZM16.8309 6.16617C16.8248 6.13617 16.8159 6.10664 16.8038 6.07805C16.792 6.04992 16.778 6.02273 16.7606 5.99742C16.7437 5.97174 16.7243 5.94787 16.7025 5.92617C16.6808 5.90441 16.6569 5.88493 16.6312 5.86805C16.6059 5.85117 16.5787 5.83664 16.5506 5.82492C16.5224 5.81312 16.493 5.80417 16.463 5.7982C16.4025 5.78602 16.3402 5.78602 16.2797 5.7982C16.2497 5.80383 16.2202 5.8132 16.192 5.82492C16.1634 5.83664 16.1363 5.85117 16.1109 5.86805C16.0852 5.88492 16.0612 5.90461 16.0397 5.92617C16.0181 5.94773 15.9984 5.97164 15.9816 5.99742C15.9647 6.02273 15.9502 6.04992 15.9384 6.07805C15.9266 6.10644 15.9176 6.13597 15.9117 6.16617C15.9056 6.19617 15.9023 6.22711 15.9023 6.25758C15.9023 6.28805 15.9056 6.31898 15.9117 6.34898C15.9173 6.37898 15.9267 6.40852 15.9384 6.43664C15.9502 6.46523 15.9647 6.49242 15.9816 6.51773C15.9984 6.54352 16.0181 6.56742 16.0397 6.58898C16.0612 6.61055 16.0852 6.63023 16.1109 6.64711C16.1363 6.66398 16.1634 6.67852 16.192 6.69023C16.2202 6.70195 16.2497 6.71086 16.2797 6.71695C16.3097 6.72305 16.3406 6.72633 16.3711 6.72633C16.4016 6.72633 16.4325 6.72305 16.463 6.71695C16.4925 6.71086 16.522 6.70195 16.5506 6.69023C16.5787 6.67852 16.6059 6.66398 16.6312 6.64711C16.6569 6.63023 16.6808 6.61075 16.7025 6.58898C16.7241 6.56742 16.7437 6.54352 16.7606 6.51773C16.778 6.49242 16.792 6.46523 16.8038 6.43664C16.8159 6.40852 16.8248 6.37898 16.8309 6.34898C16.837 6.31898 16.8398 6.28805 16.8398 6.25758C16.8398 6.22711 16.837 6.19617 16.8309 6.16617Z" fill="#20336B"/>
<path d="M23.5301 1.58755H20.7431C20.4842 1.58755 20.2743 1.79741 20.2743 2.0563V2.46102H18.9673C18.7084 2.46102 18.4986 2.67088 18.4986 2.92977V3.06468C17.7367 2.99816 17.4861 2.85369 16.7864 2.45019C16.2482 2.13988 15.4349 1.67089 13.9702 1.01235C13.9634 1.00926 13.9565 1.00637 13.9496 1.00368C13.4728 0.816082 12.2233 0.446988 10.8887 1.05182L9.00243 1.72719L7.41248 0.137285C7.22943 -0.0457617 6.93262 -0.0457617 6.74957 0.137285L1.52967 5.35714C1.36083 5.52604 1.32843 5.81886 1.52967 6.0201L10.4494 14.9398C10.5921 15.0826 10.9263 15.1258 11.1123 14.9398L15.8779 10.1743C16.0018 10.185 16.1303 10.1908 16.2636 10.1908C17.4883 10.1908 18.5715 9.35066 19.1913 8.435H23.5301C23.789 8.435 23.9989 8.22514 23.9989 7.96625V2.0563C23.9989 1.79741 23.789 1.58755 23.5301 1.58755ZM7.08098 1.13164L8.14936 2.20002C7.83178 2.39643 7.46461 2.50152 7.08098 2.50152C6.69731 2.50152 6.33018 2.39647 6.01261 2.20002L7.08098 1.13164ZM3.59245 6.75702L2.52408 5.6886L3.59245 4.62022C3.78886 4.9378 3.89395 5.30497 3.89395 5.6886C3.89395 6.07222 3.7889 6.43939 3.59245 6.75702ZM10.7809 13.9454L9.71268 12.8772C10.3649 12.4747 11.1968 12.4747 11.849 12.8772L10.7809 13.9454ZM12.5244 12.2019C11.4885 11.4505 10.0732 11.4505 9.03736 12.2019L4.26778 7.4323C4.63383 6.92886 4.83145 6.32413 4.83145 5.6886C4.83145 5.05302 4.63387 4.44833 4.26778 3.94489L5.33733 2.87539C5.84076 3.24144 6.44545 3.43907 7.08103 3.43907C7.71661 3.43907 8.32129 3.24144 8.82473 2.87539L9.83859 3.88925C9.61695 3.92219 9.40313 3.99513 9.20756 4.1045C8.87156 4.29172 8.60793 4.57208 8.44378 4.91127C7.91249 5.00973 7.42355 5.26701 7.04151 5.64913C5.99972 6.69097 5.99972 8.38611 7.04156 9.42796C7.56243 9.94883 8.24667 10.2093 8.93095 10.2093C9.61518 10.2093 10.2995 9.94888 10.8204 9.42796C11.1593 9.08905 11.3967 8.67252 11.5156 8.21858L13.0983 8.75572C12.9202 9.5811 13.1026 10.4494 13.5949 11.1314L12.5244 12.2019ZM9.67448 7.5935C9.67861 7.595 9.68273 7.5965 9.6869 7.59791L10.6242 7.91605C10.5534 8.2355 10.3933 8.52922 10.1575 8.76505C9.48117 9.44127 8.38073 9.44136 7.70451 8.76505C7.0282 8.08879 7.0282 6.98839 7.70451 6.31208C7.86624 6.15025 8.0584 6.02203 8.26992 5.93483C8.35645 6.65493 8.87493 7.29679 9.67448 7.5935ZM14.2703 10.456C14.09 10.1614 13.9869 9.82613 13.9708 9.48116C14.2259 9.66542 14.5038 9.81588 14.7975 9.92877L14.2703 10.456ZM18.4985 7.77936C18.0542 8.50771 17.1926 9.25316 16.2636 9.25316C16.0898 9.25316 15.9269 9.24078 15.7746 9.21875L15.7728 9.21847C14.7605 9.07143 14.2159 8.49608 14.0364 8.26827C14.0269 8.25421 13.9861 8.20091 13.9801 8.19205C13.9236 8.09088 13.8315 8.01431 13.7218 7.97722L9.99482 6.7123C9.40007 6.48908 9.08568 5.97978 9.22978 5.47185L9.23006 5.47086L9.23039 5.46969C9.26302 5.35453 9.31812 5.24696 9.39252 5.15319C9.46691 5.05942 9.55912 4.98129 9.66384 4.92332C9.87331 4.80583 10.1208 4.77621 10.3521 4.84096L14.5518 6.17179C14.7986 6.25011 15.0621 6.11333 15.1402 5.86654C15.2184 5.61974 15.0818 5.3563 14.835 5.27807L11.4949 4.21963L11.4658 4.19047L11.4649 4.18958L9.73565 2.46036L11.222 1.92814C11.227 1.92632 11.2332 1.92402 11.2381 1.922L11.2431 1.92004C11.2494 1.91746 11.2557 1.91474 11.2619 1.91188C12.2668 1.45007 13.2219 1.72649 13.5963 1.87208C15.0111 2.50869 15.7663 2.94411 16.318 3.26225C17.085 3.70461 17.4547 3.91775 18.4985 4.00396V7.77936ZM20.2743 7.49741H19.4361V3.39852H20.2743V7.49741ZM23.0614 7.49741H21.2118V2.52505H23.0614V7.49741Z" fill="#20336B"/>
</svg>
