<svg width="21" height="21" viewBox="0 0 21 21" fill="none" xmlns="http://www.w3.org/2000/svg">
<path fill-rule="evenodd" clip-rule="evenodd" d="M0.726726 5.38726C0.438665 4.18867 0.943691 3.08219 1.68206 2.34383L2.21759 1.80829C3.77969 0.246196 6.31235 0.246193 7.87445 1.80829L8.80332 2.73717C10.0766 4.01043 10.3421 5.97751 9.45206 7.54281L9.39717 7.63934C9.03243 8.28077 9.06224 9.01766 9.44004 9.53969C9.74489 9.96092 10.0657 10.3635 10.3493 10.6471C10.6329 10.9307 11.0355 11.2516 11.4568 11.5564C11.9788 11.9342 12.7157 11.964 13.3571 11.5993L13.4536 11.5444C15.0189 10.6543 16.986 10.9199 18.2593 12.1931L19.1882 13.122C20.7503 14.6841 20.7503 17.2168 19.1882 18.7789L18.6526 19.3144C17.9143 20.0528 16.8078 20.5578 15.6092 20.2697C13.7717 19.8281 10.4232 18.4992 6.46023 14.5362C2.49723 10.5732 1.16834 7.22478 0.726726 5.38726ZM3.09627 3.75804C2.70942 4.14489 2.58756 4.57127 2.67135 4.91991C3.02441 6.38895 4.16477 9.41233 7.87445 13.122C11.5841 16.8317 14.6075 17.972 16.0765 18.3251C16.4252 18.4089 16.8516 18.287 17.2384 17.9002L17.7739 17.3646C18.555 16.5836 18.555 15.3173 17.7739 14.5362L16.8451 13.6073C16.2084 12.9707 15.2249 12.8379 14.4422 13.283L14.3457 13.3379C13.1061 14.0428 11.5152 14.0675 10.2842 13.1766C9.83204 12.8494 9.3299 12.4561 8.93511 12.0613C8.54031 11.6665 8.14706 11.1644 7.81983 10.7123C6.92895 9.48127 6.95368 7.89039 7.65859 6.65073L7.71348 6.5542C8.15851 5.77155 8.02574 4.78801 7.38911 4.15138L6.46023 3.2225C5.67918 2.44146 4.41286 2.44146 3.63181 3.22251L3.09627 3.75804Z" fill="#20336B"/>
<path d="M16.0088 2.00697C16.6231 2.26961 17.1826 2.6486 17.656 3.12196C18.1294 3.59532 18.5083 4.15481 18.771 4.76918C19.0336 5.3836 19.1752 6.04188 19.1859 6.70695C19.1967 7.37212 19.0763 8.03117 18.8299 8.64592C18.7421 8.86495 18.639 9.07676 18.5214 9.27985C18.2447 9.75781 17.6329 9.92096 17.155 9.64424C16.677 9.36753 16.5139 8.75574 16.7906 8.27778C16.8601 8.15764 16.9213 8.03209 16.9734 7.90193C17.1198 7.53676 17.1927 7.14185 17.1862 6.73922C17.1797 6.33649 17.0939 5.93403 16.932 5.55534C16.7701 5.1766 16.5356 4.83004 16.2418 4.53617C15.9479 4.24231 15.6014 4.00789 15.2226 3.84598C14.8439 3.6841 14.4415 3.59827 14.0387 3.59177C13.6361 3.58528 13.2412 3.65817 12.876 3.80451C12.7459 3.85667 12.6203 3.91783 12.5002 3.98739C12.0222 4.2641 11.4104 4.10096 11.1337 3.623C10.857 3.14504 11.0201 2.53325 11.4981 2.25653C11.7012 2.13895 11.913 2.03582 12.132 1.94804C12.7468 1.70167 13.4058 1.5813 14.071 1.59203C14.7361 1.60276 15.3944 1.74432 16.0088 2.00697Z" fill="#20336B"/>
<path d="M15.6204 5.20775C15.321 4.90835 14.9584 4.68567 14.559 4.54902C14.1605 4.41266 13.738 4.36602 13.3185 4.40123C12.8993 4.4364 12.4884 4.55268 12.1069 4.73635C11.8877 4.84187 11.6793 4.96908 11.4849 5.11485C11.0431 5.44622 10.9535 6.07303 11.2849 6.51485C11.6163 6.95668 12.2431 7.04623 12.6849 6.71485C12.7773 6.64552 12.8746 6.58643 12.9744 6.53841C13.1488 6.45444 13.3233 6.40785 13.4857 6.39422C13.6477 6.38063 13.7914 6.4002 13.9115 6.4413C14.0308 6.48211 14.1289 6.54466 14.2062 6.62196C14.2835 6.69927 14.3461 6.79741 14.3869 6.91667C14.428 7.03678 14.4476 7.18045 14.434 7.34247C14.4203 7.50484 14.3737 7.67939 14.2898 7.85382C14.2418 7.95357 14.1827 8.05084 14.1133 8.14328C13.782 8.58511 13.8715 9.21191 14.3133 9.54328C14.7552 9.87465 15.382 9.78511 15.7133 9.34328C15.8591 9.14892 15.9863 8.94053 16.0918 8.72133C16.2755 8.33981 16.3918 7.92889 16.427 7.50972C16.4622 7.0902 16.4155 6.66764 16.2792 6.26915C16.1425 5.86981 15.9198 5.50715 15.6204 5.20775Z" fill="#20336B"/>
</svg>
