<svg width="24" height="20" viewBox="0 0 24 20" fill="none" xmlns="http://www.w3.org/2000/svg">
<path fill-rule="evenodd" clip-rule="evenodd" d="M4.87891 1H21.9989C22.5512 1 22.9989 1.44772 22.9989 2V14C22.9989 14.5523 22.5512 15 21.9989 15H11.4261C11.3708 15.3436 11.2909 15.6777 11.1883 16H21.9989C23.1035 16 23.9989 15.1046 23.9989 14V2C23.9989 0.895431 23.1035 0 21.9989 0H4.87891C3.77434 0 2.87891 0.895431 2.87891 2V8.32106C3.19455 8.11844 3.5291 7.94814 3.87891 7.81423V2C3.87891 1.44772 4.32662 1 4.87891 1Z" fill="#223872"/>
<rect x="5.75781" y="3" width="11.52" height="1" rx="0.5" fill="#3FAFE9"/>
<rect x="5.75781" y="5" width="11.52" height="1" rx="0.5" fill="#3FAFE9"/>
<path d="M11.02 14C11.02 17.057 8.64598 19.5 5.76 19.5C2.87402 19.5 0.5 17.057 0.5 14C0.5 10.943 2.87402 8.5 5.76 8.5C8.64598 8.5 11.02 10.943 11.02 14Z" stroke="#223872"/>
<mask id="path-5-inside-1_4800_7262" fill="white">
<path fill-rule="evenodd" clip-rule="evenodd" d="M4.92348 12.7611L5.44567 12.1471C5.94909 11.5553 6.82006 11.5027 7.39104 12.0296C7.96202 12.5566 8.0168 13.4636 7.51339 14.0555L7.035 14.6179L7.78543 15.2778L8.24825 14.7337C9.10949 13.7211 9.01577 12.1694 8.03894 11.2679C7.0621 10.3664 5.57205 10.4564 4.71081 11.4689L4.17305 12.1012L4.92348 12.7611ZM4.24734 13.556L3.49691 12.8961L3.12836 13.3294C2.26713 14.3419 2.36084 15.8936 3.33768 16.7952C4.31451 17.6967 5.80457 17.6067 6.6658 16.5942L7.10929 16.0728L6.35886 15.4128L5.93094 15.9159C5.42753 16.5078 4.55656 16.5604 3.98557 16.0334C3.41459 15.5065 3.35981 14.5995 3.86322 14.0076L4.24734 13.556Z"/>
</mask>
<path d="M5.44567 12.1471L6.2074 12.795L5.44567 12.1471ZM4.92348 12.7611L4.26311 13.512L5.02654 14.1834L5.68521 13.409L4.92348 12.7611ZM7.39104 12.0296L8.06926 11.2948V11.2948L7.39104 12.0296ZM7.51339 14.0555L6.75166 13.4076L6.75166 13.4076L7.51339 14.0555ZM7.035 14.6179L6.27327 13.97L5.63597 14.7193L6.37463 15.3688L7.035 14.6179ZM7.78543 15.2778L7.12506 16.0288L7.88849 16.7001L8.54716 15.9257L7.78543 15.2778ZM8.24825 14.7337L7.48652 14.0858L8.24825 14.7337ZM8.03894 11.2679L7.36072 12.0028V12.0028L8.03894 11.2679ZM4.71081 11.4689L3.94908 10.821V10.821L4.71081 11.4689ZM4.17305 12.1012L3.41132 11.4533L2.77402 12.2025L3.51268 12.8521L4.17305 12.1012ZM4.24734 13.556L5.00907 14.2039L5.64637 13.4546L4.90771 12.8051L4.24734 13.556ZM3.49691 12.8961L4.15728 12.1451L3.39385 11.4738L2.73518 12.2482L3.49691 12.8961ZM3.12836 13.3294L3.89009 13.9773L3.12836 13.3294ZM3.33768 16.7952L2.65946 17.53H2.65946L3.33768 16.7952ZM6.6658 16.5942L5.90407 15.9463L6.6658 16.5942ZM7.10929 16.0728L7.87102 16.7206L8.50832 15.9714L7.76966 15.3218L7.10929 16.0728ZM6.35886 15.4128L7.01923 14.6619L6.2558 13.9905L5.59713 14.7649L6.35886 15.4128ZM5.93094 15.9159L6.69267 16.5638L5.93094 15.9159ZM3.98557 16.0334L3.30736 16.7683L3.30736 16.7683L3.98557 16.0334ZM3.86322 14.0076L3.10149 13.3597L3.10149 13.3597L3.86322 14.0076ZM4.68394 11.4992L4.16175 12.1132L5.68521 13.409L6.2074 12.795L4.68394 11.4992ZM8.06926 11.2948C7.08074 10.3825 5.55547 10.4746 4.68394 11.4992L6.2074 12.795C6.3427 12.636 6.55937 12.6229 6.71282 12.7645L8.06926 11.2948ZM8.27512 14.7034C9.12615 13.7028 9.03451 12.1856 8.06926 11.2948L6.71282 12.7645C6.88953 12.9276 6.90746 13.2244 6.75166 13.4076L8.27512 14.7034ZM7.79673 15.2658L8.27512 14.7034L6.75166 13.4076L6.27327 13.97L7.79673 15.2658ZM6.37463 15.3688L7.12506 16.0288L8.44579 14.5269L7.69536 13.867L6.37463 15.3688ZM8.54716 15.9257L9.00998 15.3816L7.48652 14.0858L7.0237 14.6299L8.54716 15.9257ZM9.00998 15.3816C10.2188 13.9603 10.0883 11.7985 8.71715 10.533L7.36072 12.0028C7.94328 12.5404 8.00014 13.4819 7.48652 14.0858L9.00998 15.3816ZM8.71715 10.533C7.32278 9.24616 5.17843 9.37567 3.94908 10.821L5.47254 12.1168C5.96566 11.5371 6.80141 11.4866 7.36072 12.0028L8.71715 10.533ZM3.94908 10.821L3.41132 11.4533L4.93478 12.7491L5.47254 12.1168L3.94908 10.821ZM3.51268 12.8521L4.26311 13.512L5.58384 12.0101L4.83341 11.3502L3.51268 12.8521ZM4.90771 12.8051L4.15728 12.1451L2.83654 13.647L3.58697 14.307L4.90771 12.8051ZM2.73518 12.2482L2.36663 12.6815L3.89009 13.9773L4.25864 13.544L2.73518 12.2482ZM2.36663 12.6815C1.15778 14.1027 1.28835 16.2646 2.65946 17.53L4.01589 16.0603C3.43333 15.5226 3.37647 14.5812 3.89009 13.9773L2.36663 12.6815ZM2.65946 17.53C4.05383 18.8169 6.19818 18.6874 7.42753 17.2421L5.90407 15.9463C5.41095 16.526 4.5752 16.5765 4.01589 16.0603L2.65946 17.53ZM7.42753 17.2421L7.87102 16.7206L6.34756 15.4249L5.90407 15.9463L7.42753 17.2421ZM7.76966 15.3218L7.01923 14.6619L5.69849 16.1638L6.44892 16.8237L7.76966 15.3218ZM6.69267 16.5638L7.12059 16.0607L5.59713 14.7649L5.16921 15.268L6.69267 16.5638ZM3.30736 16.7683C4.29587 17.6806 5.82114 17.5885 6.69267 16.5638L5.16921 15.268C5.03392 15.4271 4.81724 15.4402 4.66379 15.2986L3.30736 16.7683ZM3.10149 13.3597C2.25047 14.3603 2.3421 15.8774 3.30736 16.7683L4.66379 15.2986C4.48708 15.1355 4.46915 14.8387 4.62495 14.6555L3.10149 13.3597ZM3.48561 12.9081L3.10149 13.3597L4.62495 14.6555L5.00907 14.2039L3.48561 12.9081Z" fill="#223872" mask="url(#path-5-inside-1_4800_7262)"/>
<rect width="0.904158" height="3.6218" rx="0.452079" transform="matrix(0.705047 0.709161 -0.679823 0.733376 6.69531 12.4043)" fill="#3FAFE9"/>
<path d="M18.6984 11.5C18.6984 12.624 17.8287 13.5 16.7984 13.5C15.7681 13.5 14.8984 12.624 14.8984 11.5C14.8984 10.376 15.7681 9.5 16.7984 9.5C17.8287 9.5 18.6984 10.376 18.6984 11.5Z" stroke="#223872"/>
<path d="M20.6164 11.5C20.6164 12.624 19.7467 13.5 18.7164 13.5C17.6861 13.5 16.8164 12.624 16.8164 11.5C16.8164 10.376 17.6861 9.5 18.7164 9.5C19.7467 9.5 20.6164 10.376 20.6164 11.5Z" stroke="#223872"/>
</svg>
