<svg width="48" height="48" viewBox="0 0 48 48" fill="none" xmlns="http://www.w3.org/2000/svg">
<g clip-path="url(#clip0_23_2)">
<path d="M24 47.5C36.9787 47.5 47.5 36.9787 47.5 24C47.5 11.0213 36.9787 0.5 24 0.5C11.0213 0.5 0.5 11.0213 0.5 24C0.5 36.9787 11.0213 47.5 24 47.5Z" stroke="#C8D0DB"/>
<path d="M32 12.5H16C14.067 12.5 12.5 14.067 12.5 16V32C12.5 33.933 14.067 35.5 16 35.5H32C33.933 35.5 35.5 33.933 35.5 32V16C35.5 14.067 33.933 12.5 32 12.5Z" stroke="#C8D0DB"/>
<path d="M23.2787 27.9794L23.4514 27.1974L24.5554 27.0341L24.3499 27.9794H23.2787Z" fill="#B8BCC3" stroke="#B8BCC3"/>
<path d="M29.0033 27.9674L29.3282 26.3801L30.4082 26.2522L30.0093 27.9674H29.0033Z" fill="#B8BCC3" stroke="#B8BCC3"/>
<path d="M17 28.403L19.2568 27.6406L19.092 28.4666H17V28.403Z" fill="#B8BCC3"/>
<mask id="mask0_23_2" style="mask-type:luminance" maskUnits="userSpaceOnUse" x="17" y="27" width="3" height="2">
<path d="M17 28.403L19.2568 27.6406L19.092 28.4666H17V28.403Z" fill="white"/>
</mask>
<g mask="url(#mask0_23_2)">
<path d="M17 28.403L16.6799 27.4557L16 27.6854V28.403H17ZM19.2568 27.6406L20.2374 27.8363L20.5761 26.1394L18.9367 26.6932L19.2568 27.6406ZM19.092 28.4666V29.4666H19.9121L20.0726 28.6623L19.092 28.4666ZM17 28.4666H16V29.4666H17V28.4666ZM17.3201 29.3504L19.5768 28.588L18.9367 26.6932L16.6799 27.4557L17.3201 29.3504ZM18.2761 27.4449L18.1113 28.2709L20.0726 28.6623L20.2374 27.8363L18.2761 27.4449ZM19.092 27.4666H17V29.4666H19.092V27.4666ZM18 28.4666V28.403H16V28.4666H18Z" fill="#B8BCC3"/>
</g>
<mask id="mask1_23_2" style="mask-type:luminance" maskUnits="userSpaceOnUse" x="17" y="19" width="15" height="10">
<path d="M31.048 25.6953C30.3198 25.7724 29.6065 25.8533 28.9083 25.938L29.5772 22.7927C29.6485 22.4825 29.6841 22.2022 29.6841 21.9518C29.6841 21.0579 29.1437 20.611 28.063 20.611H26.4405L25.198 26.4466C24.4466 26.5641 23.7252 26.6874 23.0336 26.8165L24.3541 20.611H21.2882C20.9203 20.611 20.7007 20.7897 20.6294 21.147L19.2481 27.6791C18.3971 27.9189 17.6429 28.176 17 28.4491L18.6688 20.611C18.7872 20.0504 18.989 19.6415 19.2742 19.3843C19.5593 19.1281 20.0047 19 20.6106 19H28.6149C29.6013 19 30.3887 19.197 30.9772 19.5909C31.5657 19.9839 31.86 20.5922 31.86 21.4157C31.86 21.7615 31.8359 22.0356 31.7878 22.2378L31.048 25.6953Z" fill="white"/>
</mask>
<g mask="url(#mask1_23_2)">
<path d="M79.8897 34.8454H14.8438V16.7129H79.8897V34.8454Z" fill="white"/>
</g>
</g>
<defs>
<clipPath id="clip0_23_2">
<rect width="48" height="48" fill="white"/>
</clipPath>
</defs>
</svg>
