<svg width="48" height="48" viewBox="0 0 48 48" fill="none" xmlns="http://www.w3.org/2000/svg">
<circle cx="24" cy="24" r="23.5" stroke="#C8D0DB"/>
<path fill-rule="evenodd" clip-rule="evenodd" d="M16.8789 17H33.9989C34.5512 17 34.9989 17.4477 34.9989 18V30C34.9989 30.5523 34.5512 31 33.9989 31H23.4261C23.3708 31.3436 23.2909 31.6777 23.1883 32H33.9989C35.1035 32 35.9989 31.1046 35.9989 30V18C35.9989 16.8954 35.1035 16 33.9989 16H16.8789C15.7743 16 14.8789 16.8954 14.8789 18V24.3211C15.1945 24.1184 15.5291 23.9481 15.8789 23.8142V18C15.8789 17.4477 16.3266 17 16.8789 17Z" fill="#C8D0DB"/>
<rect x="17.7578" y="19" width="11.52" height="1" rx="0.5" fill="#C8D0DB"/>
<rect x="17.7578" y="21" width="11.52" height="1" rx="0.5" fill="#C8D0DB"/>
<path d="M23.02 30C23.02 33.057 20.646 35.5 17.76 35.5C14.874 35.5 12.5 33.057 12.5 30C12.5 26.943 14.874 24.5 17.76 24.5C20.646 24.5 23.02 26.943 23.02 30Z" stroke="#C8D0DB"/>
<mask id="path-6-inside-1_4800_7366" fill="white">
<path fill-rule="evenodd" clip-rule="evenodd" d="M16.9249 28.7603L17.447 28.1465C17.9504 27.5546 18.8214 27.502 19.3924 28.029C19.9634 28.5559 20.0182 29.4629 19.5147 30.0548L19.0364 30.6172L19.7868 31.2771L20.2496 30.733C21.1108 29.7205 21.0171 28.1688 20.0403 27.2672C19.0635 26.3657 17.5734 26.4557 16.7122 27.4682L16.1745 28.1004L16.9249 28.7603ZM16.2488 29.5553L15.4983 28.8953L15.1297 29.3287C14.2685 30.3413 14.3622 31.893 15.339 32.7945C16.3159 33.696 17.8059 33.606 18.6672 32.5935L19.1107 32.072L18.3603 31.4121L17.9323 31.9153C17.4289 32.5071 16.5579 32.5597 15.9869 32.0328C15.4159 31.5058 15.3612 30.5988 15.8646 30.0069L16.2488 29.5553Z"/>
</mask>
<path d="M17.447 28.1465L16.6853 27.4986V27.4986L17.447 28.1465ZM16.9249 28.7603L16.2645 29.5113L17.028 30.1826L17.6866 29.4082L16.9249 28.7603ZM19.3924 28.029L20.0706 27.2941V27.2941L19.3924 28.029ZM19.5147 30.0548L20.2765 30.7027V30.7027L19.5147 30.0548ZM19.0364 30.6172L18.2747 29.9693L17.6374 30.7185L18.3761 31.3681L19.0364 30.6172ZM19.7868 31.2771L19.1265 32.028L19.8899 32.6994L20.5486 31.925L19.7868 31.2771ZM20.2496 30.733L19.4879 30.0851L20.2496 30.733ZM20.0403 27.2672L19.3621 28.0021V28.0021L20.0403 27.2672ZM16.7122 27.4682L15.9504 26.8203V26.8203L16.7122 27.4682ZM16.1745 28.1004L15.4127 27.4525L14.7754 28.2018L15.5141 28.8514L16.1745 28.1004ZM16.2488 29.5553L17.0105 30.2032L17.6478 29.4539L16.9091 28.8043L16.2488 29.5553ZM15.4983 28.8953L16.1587 28.1444L15.3953 27.4731L14.7366 28.2475L15.4983 28.8953ZM15.1297 29.3287L15.8914 29.9766H15.8914L15.1297 29.3287ZM15.339 32.7945L14.6608 33.5294L15.339 32.7945ZM18.6672 32.5935L17.9054 31.9456L17.9054 31.9456L18.6672 32.5935ZM19.1107 32.072L19.8724 32.7199L20.5097 31.9706L19.7711 31.3211L19.1107 32.072ZM18.3603 31.4121L19.0206 30.6611L18.2572 29.9898L17.5985 30.7642L18.3603 31.4121ZM17.9323 31.9153L18.694 32.5632L17.9323 31.9153ZM15.9869 32.0328L15.3087 32.7676H15.3087L15.9869 32.0328ZM15.8646 30.0069L16.6263 30.6548L15.8646 30.0069ZM16.6853 27.4986L16.1632 28.1124L17.6866 29.4082L18.2088 28.7944L16.6853 27.4986ZM20.0706 27.2941C19.0821 26.3818 17.5568 26.4739 16.6853 27.4986L18.2088 28.7944C18.3441 28.6353 18.5607 28.6222 18.7142 28.7638L20.0706 27.2941ZM20.2765 30.7027C21.1275 29.7021 21.0359 28.185 20.0706 27.2941L18.7142 28.7638C18.8909 28.9269 18.9088 29.2237 18.753 29.4069L20.2765 30.7027ZM19.7981 31.2651L20.2765 30.7027L18.753 29.4069L18.2747 29.9693L19.7981 31.2651ZM18.3761 31.3681L19.1265 32.028L20.4472 30.5261L19.6968 29.8662L18.3761 31.3681ZM20.5486 31.925L21.0113 31.3809L19.4879 30.0851L19.0251 30.6292L20.5486 31.925ZM21.0113 31.3809C22.2202 29.9597 22.0896 27.7978 20.7185 26.5324L19.3621 28.0021C19.9446 28.5398 20.0015 29.4812 19.4879 30.0851L21.0113 31.3809ZM20.7185 26.5324C19.3241 25.2455 17.1798 25.375 15.9504 26.8203L17.4739 28.1161C17.967 27.5364 18.8028 27.4859 19.3621 28.0021L20.7185 26.5324ZM15.9504 26.8203L15.4127 27.4525L16.9362 28.7483L17.4739 28.1161L15.9504 26.8203ZM15.5141 28.8514L16.2645 29.5113L17.5853 28.0094L16.8348 27.3495L15.5141 28.8514ZM16.9091 28.8043L16.1587 28.1444L14.838 29.6463L15.5884 30.3062L16.9091 28.8043ZM14.7366 28.2475L14.368 28.6808L15.8914 29.9766L16.2601 29.5432L14.7366 28.2475ZM14.368 28.6808C13.1591 30.1021 13.2897 32.2639 14.6608 33.5294L16.0172 32.0596C15.4347 31.522 15.3778 30.5805 15.8914 29.9766L14.368 28.6808ZM14.6608 33.5294C16.0552 34.8162 18.1995 34.6867 19.4289 33.2414L17.9054 31.9456C17.4123 32.5253 16.5766 32.5758 16.0172 32.0596L14.6608 33.5294ZM19.4289 33.2414L19.8724 32.7199L18.349 31.4241L17.9054 31.9456L19.4289 33.2414ZM19.7711 31.3211L19.0206 30.6611L17.6999 32.163L18.4503 32.8229L19.7711 31.3211ZM18.694 32.5632L19.122 32.06L17.5985 30.7642L17.1706 31.2674L18.694 32.5632ZM15.3087 32.7676C16.2972 33.6799 17.8225 33.5878 18.694 32.5632L17.1706 31.2674C17.0353 31.4264 16.8186 31.4395 16.6651 31.2979L15.3087 32.7676ZM15.1029 29.359C14.2518 30.3596 14.3435 31.8768 15.3087 32.7676L16.6651 31.2979C16.4884 31.1348 16.4705 30.838 16.6263 30.6548L15.1029 29.359ZM15.487 28.9074L15.1029 29.359L16.6263 30.6548L17.0105 30.2032L15.487 28.9074Z" fill="#C8D0DB" mask="url(#path-6-inside-1_4800_7366)"/>
<rect width="0.904158" height="3.6218" rx="0.452079" transform="matrix(0.705047 0.709161 -0.679823 0.733376 18.6953 28.4043)" fill="#C8D0DB"/>
<path d="M30.6984 27.5C30.6984 28.624 29.8287 29.5 28.7984 29.5C27.7681 29.5 26.8984 28.624 26.8984 27.5C26.8984 26.376 27.7681 25.5 28.7984 25.5C29.8287 25.5 30.6984 26.376 30.6984 27.5Z" stroke="#C8D0DB"/>
<path d="M32.6164 27.5C32.6164 28.624 31.7467 29.5 30.7164 29.5C29.6861 29.5 28.8164 28.624 28.8164 27.5C28.8164 26.376 29.6861 25.5 30.7164 25.5C31.7467 25.5 32.6164 26.376 32.6164 27.5Z" stroke="#C8D0DB"/>
</svg>
