<svg width="94" height="110" viewBox="0 0 94 110" fill="none" xmlns="http://www.w3.org/2000/svg">
<g filter="url(#filter0_d_4799_7087)">
<rect x="16" width="48" height="48" rx="24" fill="white"/>
<rect x="28" y="12" width="24" height="24" rx="4" fill="#223872"/>
<path d="M39.2787 27.9794L39.4514 27.1974L40.5554 27.0341L40.3499 27.9794H39.2787Z" fill="#4ABCEB" stroke="#4ABCEB"/>
<path d="M45.0033 27.9674L45.3282 26.3801L46.4082 26.2522L46.0093 27.9674H45.0033Z" fill="#4ABCEB" stroke="#4ABCEB"/>
<mask id="path-5-inside-1_4799_7087" fill="white">
<path d="M33 28.403L35.2568 27.6406L35.092 28.4666H33V28.403Z"/>
</mask>
<path d="M33 28.403L35.2568 27.6406L35.092 28.4666H33V28.403Z" fill="#4ABCEB"/>
<path d="M33 28.403L32.6799 27.4557L32 27.6854V28.403H33ZM35.2568 27.6406L36.2374 27.8363L36.5761 26.1394L34.9367 26.6932L35.2568 27.6406ZM35.092 28.4666V29.4666H35.9121L36.0726 28.6623L35.092 28.4666ZM33 28.4666H32V29.4666H33V28.4666ZM33.3201 29.3504L35.5768 28.588L34.9367 26.6932L32.6799 27.4557L33.3201 29.3504ZM34.2761 27.4449L34.1113 28.2709L36.0726 28.6623L36.2374 27.8363L34.2761 27.4449ZM35.092 27.4666H33V29.4666H35.092V27.4666ZM34 28.4666V28.403H32V28.4666H34Z" fill="#4ABCEB" mask="url(#path-5-inside-1_4799_7087)"/>
<mask id="mask0_4799_7087" style="mask-type:luminance" maskUnits="userSpaceOnUse" x="33" y="19" width="15" height="10">
<path d="M47.048 25.6953C46.3198 25.7724 45.6065 25.8533 44.9083 25.938L45.5772 22.7927C45.6485 22.4825 45.6841 22.2022 45.6841 21.9518C45.6841 21.0579 45.1437 20.611 44.063 20.611H42.4405L41.198 26.4466C40.4466 26.5641 39.7252 26.6874 39.0336 26.8165L40.3541 20.611H37.2882C36.9203 20.611 36.7007 20.7897 36.6294 21.147L35.2481 27.6791C34.3971 27.9189 33.6429 28.176 33 28.4491L34.6688 20.611C34.7872 20.0504 34.989 19.6415 35.2742 19.3843C35.5593 19.1281 36.0047 19 36.6106 19H44.6149C45.6013 19 46.3887 19.197 46.9772 19.5909C47.5657 19.9839 47.86 20.5922 47.86 21.4157C47.86 21.7615 47.8359 22.0356 47.7878 22.2378L47.048 25.6953Z" fill="white"/>
<path d="M47.048 25.6953C46.3198 25.7724 45.6065 25.8533 44.9083 25.938L45.5772 22.7927C45.6485 22.4825 45.6841 22.2022 45.6841 21.9518C45.6841 21.0579 45.1437 20.611 44.063 20.611H42.4405L41.198 26.4466C40.4466 26.5641 39.7252 26.6874 39.0336 26.8165L40.3541 20.611H37.2882C36.9203 20.611 36.7007 20.7897 36.6294 21.147L35.2481 27.6791C34.3971 27.9189 33.6429 28.176 33 28.4491L34.6688 20.611C34.7872 20.0504 34.989 19.6415 35.2742 19.3843C35.5593 19.1281 36.0047 19 36.6106 19H44.6149C45.6013 19 46.3887 19.197 46.9772 19.5909C47.5657 19.9839 47.86 20.5922 47.86 21.4157C47.86 21.7615 47.8359 22.0356 47.7878 22.2378L47.048 25.6953Z" stroke="white"/>
</mask>
<g mask="url(#mask0_4799_7087)">
<path d="M95.8897 34.8454H30.8438V16.7129H95.8897V34.8454Z" fill="white"/>
<path d="M95.8897 34.8454H30.8438V16.7129H95.8897V34.8454Z" stroke="#4ABCEB"/>
</g>
</g>
<defs>
<filter id="filter0_d_4799_7087" x="-14" y="0" width="108" height="110" filterUnits="userSpaceOnUse" color-interpolation-filters="sRGB">
<feFlood flood-opacity="0" result="BackgroundImageFix"/>
<feColorMatrix in="SourceAlpha" type="matrix" values="0 0 0 0 0 0 0 0 0 0 0 0 0 0 0 0 0 0 127 0" result="hardAlpha"/>
<feMorphology radius="12" operator="erode" in="SourceAlpha" result="effect1_dropShadow_4799_7087"/>
<feOffset dy="32"/>
<feGaussianBlur stdDeviation="21"/>
<feComposite in2="hardAlpha" operator="out"/>
<feColorMatrix type="matrix" values="0 0 0 0 0.0627451 0 0 0 0 0.0980392 0 0 0 0 0.156863 0 0 0 0.18 0"/>
<feBlend mode="normal" in2="BackgroundImageFix" result="effect1_dropShadow_4799_7087"/>
<feBlend mode="normal" in="SourceGraphic" in2="effect1_dropShadow_4799_7087" result="shape"/>
</filter>
</defs>
</svg>
