<svg width="95" height="110" viewBox="0 0 95 110" fill="none" xmlns="http://www.w3.org/2000/svg">
<g filter="url(#filter0_d_4800_7261)">
<rect x="17" width="48" height="48" rx="24" fill="white"/>
<path fill-rule="evenodd" clip-rule="evenodd" d="M33.8789 15H50.9989C51.5512 15 51.9989 15.4477 51.9989 16V28C51.9989 28.5523 51.5512 29 50.9989 29H40.4261C40.3708 29.3436 40.2909 29.6777 40.1883 30H50.9989C52.1035 30 52.9989 29.1046 52.9989 28V16C52.9989 14.8954 52.1035 14 50.9989 14H33.8789C32.7743 14 31.8789 14.8954 31.8789 16V22.3211C32.1945 22.1184 32.5291 21.9481 32.8789 21.8142V16C32.8789 15.4477 33.3266 15 33.8789 15Z" fill="#223872"/>
<rect x="34.7578" y="17" width="11.52" height="1" rx="0.5" fill="#3FAFE9"/>
<rect x="34.7578" y="19" width="11.52" height="1" rx="0.5" fill="#3FAFE9"/>
<path d="M40.02 28C40.02 31.057 37.646 33.5 34.76 33.5C31.874 33.5 29.5 31.057 29.5 28C29.5 24.943 31.874 22.5 34.76 22.5C37.646 22.5 40.02 24.943 40.02 28Z" stroke="#223872"/>
<mask id="path-6-inside-1_4800_7261" fill="white">
<path fill-rule="evenodd" clip-rule="evenodd" d="M33.9235 26.7611L34.4457 26.1471C34.9491 25.5553 35.8201 25.5027 36.391 26.0296C36.962 26.5566 37.0168 27.4636 36.5134 28.0555L36.035 28.6179L36.7854 29.2778L37.2483 28.7337C38.1095 27.7211 38.0158 26.1694 37.0389 25.2679C36.0621 24.3664 34.572 24.4564 33.7108 25.4689L33.173 26.1012L33.9235 26.7611ZM33.2473 27.556L32.4969 26.8961L32.1284 27.3294C31.2671 28.3419 31.3608 29.8936 32.3377 30.7952C33.3145 31.6967 34.8046 31.6067 35.6658 30.5942L36.1093 30.0728L35.3589 29.4128L34.9309 29.9159C34.4275 30.5078 33.5566 30.5604 32.9856 30.0334C32.4146 29.5065 32.3598 28.5995 32.8632 28.0076L33.2473 27.556Z"/>
</mask>
<path d="M34.4457 26.1471L35.2074 26.795L34.4457 26.1471ZM33.9235 26.7611L33.2631 27.512L34.0265 28.1834L34.6852 27.409L33.9235 26.7611ZM36.391 26.0296L37.0693 25.2948V25.2948L36.391 26.0296ZM36.5134 28.0555L35.7517 27.4076L35.7517 27.4076L36.5134 28.0555ZM36.035 28.6179L35.2733 27.97L34.636 28.7193L35.3746 29.3688L36.035 28.6179ZM36.7854 29.2778L36.1251 30.0288L36.8885 30.7001L37.5472 29.9257L36.7854 29.2778ZM37.2483 28.7337L36.4865 28.0858L37.2483 28.7337ZM37.0389 25.2679L36.3607 26.0028V26.0028L37.0389 25.2679ZM33.7108 25.4689L32.9491 24.821V24.821L33.7108 25.4689ZM33.173 26.1012L32.4113 25.4533L31.774 26.2025L32.5127 26.8521L33.173 26.1012ZM33.2473 27.556L34.0091 28.2039L34.6464 27.4546L33.9077 26.8051L33.2473 27.556ZM32.4969 26.8961L33.1573 26.1451L32.3938 25.4738L31.7352 26.2482L32.4969 26.8961ZM32.1284 27.3294L32.8901 27.9773L32.1284 27.3294ZM32.3377 30.7952L31.6595 31.53H31.6595L32.3377 30.7952ZM35.6658 30.5942L34.9041 29.9463L35.6658 30.5942ZM36.1093 30.0728L36.871 30.7206L37.5083 29.9714L36.7697 29.3218L36.1093 30.0728ZM35.3589 29.4128L36.0192 28.6619L35.2558 27.9905L34.5971 28.7649L35.3589 29.4128ZM34.9309 29.9159L35.6927 30.5638L34.9309 29.9159ZM32.9856 30.0334L32.3074 30.7683L32.3074 30.7683L32.9856 30.0334ZM32.8632 28.0076L32.1015 27.3597L32.1015 27.3597L32.8632 28.0076ZM33.6839 25.4992L33.1617 26.1132L34.6852 27.409L35.2074 26.795L33.6839 25.4992ZM37.0693 25.2948C36.0807 24.3825 34.5555 24.4746 33.6839 25.4992L35.2074 26.795C35.3427 26.636 35.5594 26.6229 35.7128 26.7645L37.0693 25.2948ZM37.2751 28.7034C38.1261 27.7028 38.0345 26.1856 37.0693 25.2948L35.7128 26.7645C35.8895 26.9276 35.9075 27.2244 35.7517 27.4076L37.2751 28.7034ZM36.7967 29.2658L37.2751 28.7034L35.7517 27.4076L35.2733 27.97L36.7967 29.2658ZM35.3746 29.3688L36.1251 30.0288L37.4458 28.5269L36.6954 27.867L35.3746 29.3688ZM37.5472 29.9257L38.01 29.3816L36.4865 28.0858L36.0237 28.6299L37.5472 29.9257ZM38.01 29.3816C39.2188 27.9603 39.0883 25.7985 37.7172 24.533L36.3607 26.0028C36.9433 26.5404 37.0001 27.4819 36.4865 28.0858L38.01 29.3816ZM37.7172 24.533C36.3228 23.2462 34.1784 23.3757 32.9491 24.821L34.4725 26.1168C34.9657 25.5371 35.8014 25.4866 36.3607 26.0028L37.7172 24.533ZM32.9491 24.821L32.4113 25.4533L33.9348 26.7491L34.4725 26.1168L32.9491 24.821ZM32.5127 26.8521L33.2631 27.512L34.5838 26.0101L33.8334 25.3502L32.5127 26.8521ZM33.9077 26.8051L33.1573 26.1451L31.8365 27.647L32.587 28.307L33.9077 26.8051ZM31.7352 26.2482L31.3666 26.6815L32.8901 27.9773L33.2586 27.544L31.7352 26.2482ZM31.3666 26.6815C30.1578 28.1027 30.2883 30.2646 31.6595 31.53L33.0159 30.0603C32.4333 29.5226 32.3765 28.5812 32.8901 27.9773L31.3666 26.6815ZM31.6595 31.53C33.0538 32.8169 35.1982 32.6874 36.4275 31.2421L34.9041 29.9463C34.411 30.526 33.5752 30.5765 33.0159 30.0603L31.6595 31.53ZM36.4275 31.2421L36.871 30.7206L35.3476 29.4249L34.9041 29.9463L36.4275 31.2421ZM36.7697 29.3218L36.0192 28.6619L34.6985 30.1638L35.4489 30.8237L36.7697 29.3218ZM35.6927 30.5638L36.1206 30.0607L34.5971 28.7649L34.1692 29.268L35.6927 30.5638ZM32.3074 30.7683C33.2959 31.6806 34.8211 31.5885 35.6927 30.5638L34.1692 29.268C34.0339 29.4271 33.8172 29.4402 33.6638 29.2986L32.3074 30.7683ZM32.1015 27.3597C31.2505 28.3603 31.3421 29.8774 32.3074 30.7683L33.6638 29.2986C33.4871 29.1355 33.4692 28.8387 33.625 28.6555L32.1015 27.3597ZM32.4856 26.9081L32.1015 27.3597L33.625 28.6555L34.0091 28.2039L32.4856 26.9081Z" fill="#223872" mask="url(#path-6-inside-1_4800_7261)"/>
<rect width="0.904158" height="3.6218" rx="0.452079" transform="matrix(0.705047 0.709161 -0.679823 0.733376 35.6953 26.4043)" fill="#3FAFE9"/>
<path d="M47.6984 25.5C47.6984 26.624 46.8287 27.5 45.7984 27.5C44.7681 27.5 43.8984 26.624 43.8984 25.5C43.8984 24.376 44.7681 23.5 45.7984 23.5C46.8287 23.5 47.6984 24.376 47.6984 25.5Z" stroke="#223872"/>
<path d="M49.6164 25.5C49.6164 26.624 48.7467 27.5 47.7164 27.5C46.6861 27.5 45.8164 26.624 45.8164 25.5C45.8164 24.376 46.6861 23.5 47.7164 23.5C48.7467 23.5 49.6164 24.376 49.6164 25.5Z" stroke="#223872"/>
</g>
<defs>
<filter id="filter0_d_4800_7261" x="-13" y="0" width="108" height="110" filterUnits="userSpaceOnUse" color-interpolation-filters="sRGB">
<feFlood flood-opacity="0" result="BackgroundImageFix"/>
<feColorMatrix in="SourceAlpha" type="matrix" values="0 0 0 0 0 0 0 0 0 0 0 0 0 0 0 0 0 0 127 0" result="hardAlpha"/>
<feMorphology radius="12" operator="erode" in="SourceAlpha" result="effect1_dropShadow_4800_7261"/>
<feOffset dy="32"/>
<feGaussianBlur stdDeviation="21"/>
<feComposite in2="hardAlpha" operator="out"/>
<feColorMatrix type="matrix" values="0 0 0 0 0.0627451 0 0 0 0 0.0980392 0 0 0 0 0.156863 0 0 0 0.18 0"/>
<feBlend mode="normal" in2="BackgroundImageFix" result="effect1_dropShadow_4800_7261"/>
<feBlend mode="normal" in="SourceGraphic" in2="effect1_dropShadow_4800_7261" result="shape"/>
</filter>
</defs>
</svg>
