<svg width="94" height="110" viewBox="0 0 94 110" fill="none" xmlns="http://www.w3.org/2000/svg">
<g filter="url(#filter0_d_4800_5286)">
<rect x="16" width="48" height="48" rx="24" fill="white"/>
<rect x="28" y="12" width="24" height="24" rx="4" fill="#20336B"/>
<rect x="32" y="14" width="16" height="10" rx="2" fill="white"/>
<path d="M38.016 16.44L37.896 17.52L38.988 17.214L39.084 17.952L38.088 18.024L38.742 18.894L38.076 19.248L37.62 18.33L37.218 19.242L36.528 18.894L37.176 18.024L36.186 17.946L36.3 17.214L37.368 17.52L37.248 16.44H38.016ZM42.5575 18.528L42.4195 19.206H43.1755V19.812H42.3055L42.0775 21H41.4355L41.6635 19.812H41.0935L40.8715 21H40.2415L40.4575 19.812H39.7615V19.206H40.5715L40.7095 18.528H39.9715V17.916H40.8175L41.0455 16.722H41.6875L41.4595 17.916H42.0415L42.2695 16.722H42.8995L42.6715 17.916H43.3735V18.528H42.5575ZM41.2075 19.206H41.7835L41.9215 18.528H41.3455L41.2075 19.206Z" fill="#4ABCEB"/>
<path d="M34.088 32.06C33.026 32.06 32.312 31.466 32.312 30.278V27.692H33.2V30.248C33.2 30.974 33.554 31.286 34.088 31.286C34.628 31.286 34.982 30.974 34.982 30.248V27.692H35.864V30.278C35.864 31.466 35.15 32.06 34.088 32.06ZM36.4837 31.214L37.0897 30.626C37.4077 31.076 37.8697 31.328 38.3437 31.328C38.7937 31.328 39.1237 31.13 39.1237 30.764C39.1237 30.368 38.7157 30.314 38.0677 30.17C37.4257 30.02 36.7297 29.816 36.7297 28.964C36.7297 28.142 37.4377 27.626 38.3317 27.626C39.0757 27.626 39.6577 27.956 39.9577 28.388L39.3757 28.958C39.1237 28.604 38.7877 28.364 38.3077 28.364C37.8877 28.364 37.5997 28.568 37.5997 28.88C37.5997 29.216 37.9117 29.282 38.4757 29.408C39.1597 29.558 39.9997 29.732 39.9997 30.674C39.9997 31.544 39.2317 32.066 38.3137 32.066C37.5877 32.066 36.8317 31.736 36.4837 31.214ZM40.4648 31.214L41.0708 30.626C41.3888 31.076 41.8508 31.328 42.3248 31.328C42.7748 31.328 43.1048 31.13 43.1048 30.764C43.1048 30.368 42.6968 30.314 42.0488 30.17C41.4068 30.02 40.7108 29.816 40.7108 28.964C40.7108 28.142 41.4188 27.626 42.3128 27.626C43.0568 27.626 43.6388 27.956 43.9388 28.388L43.3568 28.958C43.1048 28.604 42.7688 28.364 42.2888 28.364C41.8688 28.364 41.5808 28.568 41.5808 28.88C41.5808 29.216 41.8928 29.282 42.4568 29.408C43.1408 29.558 43.9808 29.732 43.9808 30.674C43.9808 31.544 43.2128 32.066 42.2948 32.066C41.5688 32.066 40.8128 31.736 40.4648 31.214ZM44.831 32V27.692H46.313C47.669 27.692 48.497 28.532 48.497 29.846C48.497 31.16 47.669 32 46.313 32H44.831ZM45.695 31.244H46.313C47.147 31.244 47.627 30.692 47.627 29.846C47.627 28.994 47.147 28.448 46.307 28.448H45.695V31.244Z" fill="white"/>
</g>
<defs>
<filter id="filter0_d_4800_5286" x="-14" y="0" width="108" height="110" filterUnits="userSpaceOnUse" color-interpolation-filters="sRGB">
<feFlood flood-opacity="0" result="BackgroundImageFix"/>
<feColorMatrix in="SourceAlpha" type="matrix" values="0 0 0 0 0 0 0 0 0 0 0 0 0 0 0 0 0 0 127 0" result="hardAlpha"/>
<feMorphology radius="12" operator="erode" in="SourceAlpha" result="effect1_dropShadow_4800_5286"/>
<feOffset dy="32"/>
<feGaussianBlur stdDeviation="21"/>
<feComposite in2="hardAlpha" operator="out"/>
<feColorMatrix type="matrix" values="0 0 0 0 0.0627451 0 0 0 0 0.0980392 0 0 0 0 0.156863 0 0 0 0.18 0"/>
<feBlend mode="normal" in2="BackgroundImageFix" result="effect1_dropShadow_4800_5286"/>
<feBlend mode="normal" in="SourceGraphic" in2="effect1_dropShadow_4800_5286" result="shape"/>
</filter>
</defs>
</svg>
