<svg width="48" height="48" viewBox="0 0 48 48" fill="none" xmlns="http://www.w3.org/2000/svg">
<circle cx="24" cy="24" r="23.5" stroke="#C8D0DB"/>
<rect x="12.5" y="12.5" width="23" height="23" rx="3.5" stroke="#C8D0DB"/>
<rect x="16.5" y="14.5" width="15" height="9" rx="1.5" stroke="#C8D0DB"/>
<path d="M22.016 16.44L21.896 17.52L22.988 17.214L23.084 17.952L22.088 18.024L22.742 18.894L22.076 19.248L21.62 18.33L21.218 19.242L20.528 18.894L21.176 18.024L20.186 17.946L20.3 17.214L21.368 17.52L21.248 16.44H22.016ZM26.5575 18.528L26.4195 19.206H27.1755V19.812H26.3055L26.0775 21H25.4355L25.6635 19.812H25.0935L24.8715 21H24.2415L24.4575 19.812H23.7615V19.206H24.5715L24.7095 18.528H23.9715V17.916H24.8175L25.0455 16.722H25.6875L25.4595 17.916H26.0415L26.2695 16.722H26.8995L26.6715 17.916H27.3735V18.528H26.5575ZM25.2075 19.206H25.7835L25.9215 18.528H25.3455L25.2075 19.206Z" fill="#C8D0DB"/>
<path d="M18.088 32.06C17.026 32.06 16.312 31.466 16.312 30.278V27.692H17.2V30.248C17.2 30.974 17.554 31.286 18.088 31.286C18.628 31.286 18.982 30.974 18.982 30.248V27.692H19.864V30.278C19.864 31.466 19.15 32.06 18.088 32.06ZM20.4837 31.214L21.0897 30.626C21.4077 31.076 21.8697 31.328 22.3437 31.328C22.7937 31.328 23.1237 31.13 23.1237 30.764C23.1237 30.368 22.7157 30.314 22.0677 30.17C21.4257 30.02 20.7297 29.816 20.7297 28.964C20.7297 28.142 21.4377 27.626 22.3317 27.626C23.0757 27.626 23.6577 27.956 23.9577 28.388L23.3757 28.958C23.1237 28.604 22.7877 28.364 22.3077 28.364C21.8877 28.364 21.5997 28.568 21.5997 28.88C21.5997 29.216 21.9117 29.282 22.4757 29.408C23.1597 29.558 23.9997 29.732 23.9997 30.674C23.9997 31.544 23.2317 32.066 22.3137 32.066C21.5877 32.066 20.8317 31.736 20.4837 31.214ZM24.4648 31.214L25.0708 30.626C25.3888 31.076 25.8508 31.328 26.3248 31.328C26.7748 31.328 27.1048 31.13 27.1048 30.764C27.1048 30.368 26.6968 30.314 26.0488 30.17C25.4068 30.02 24.7108 29.816 24.7108 28.964C24.7108 28.142 25.4188 27.626 26.3128 27.626C27.0568 27.626 27.6388 27.956 27.9388 28.388L27.3568 28.958C27.1048 28.604 26.7688 28.364 26.2888 28.364C25.8688 28.364 25.5808 28.568 25.5808 28.88C25.5808 29.216 25.8928 29.282 26.4568 29.408C27.1408 29.558 27.9808 29.732 27.9808 30.674C27.9808 31.544 27.2128 32.066 26.2948 32.066C25.5688 32.066 24.8128 31.736 24.4648 31.214ZM28.831 32V27.692H30.313C31.669 27.692 32.497 28.532 32.497 29.846C32.497 31.16 31.669 32 30.313 32H28.831ZM29.695 31.244H30.313C31.147 31.244 31.627 30.692 31.627 29.846C31.627 28.994 31.147 28.448 30.307 28.448H29.695V31.244Z" fill="white"/>
</svg>
