<svg width="24" height="24" viewBox="0 0 24 24" fill="none" xmlns="http://www.w3.org/2000/svg">
<path d="M23.9295 15.6589C23.8397 15.3466 23.6667 15.0646 23.4289 14.8432C23.1911 14.6217 22.8975 14.4692 22.5796 14.402C22.1642 14.3135 21.7321 14.3781 21.3631 14.5742C21.5767 13.2455 21.4645 11.871 21.0248 10.5898C20.9408 10.3449 20.6741 10.2148 20.4293 10.2986C20.1844 10.3826 20.054 10.6493 20.138 10.8941C20.6573 12.4072 20.6615 14.067 20.1528 15.5819L16.4172 18.8996C16.1885 19.1025 15.936 19.2769 15.6653 19.4187C15.7421 19.1086 15.735 18.7835 15.6448 18.477C15.5733 18.2353 15.4519 18.0112 15.2885 17.8193C15.125 17.6275 14.9231 17.472 14.6958 17.3629L11.3865 15.7779C9.93975 15.0849 8.24638 15.0048 6.74061 15.5576L6.40423 15.6811C5.47054 13.0435 6.12044 10.1183 8.11991 8.11891L11.4293 4.80957H15.093L17.897 7.61358C18.0801 7.79659 18.3769 7.79659 18.56 7.61358C18.7431 7.43053 18.7431 7.13371 18.56 6.95061L15.8808 4.27157L16.8494 1.48438C16.9792 1.11073 16.8358 0.70309 16.5006 0.492989C16.1656 0.282935 15.7361 0.33164 15.4564 0.611212L15.4506 0.616978C15.2569 0.810812 14.9415 0.810812 14.7477 0.616978C13.925 -0.205659 12.5865 -0.205659 11.7637 0.616978C11.6699 0.710871 11.545 0.762529 11.4123 0.762529C11.2795 0.762529 11.1547 0.710824 11.0609 0.616978C10.7809 0.336984 10.3511 0.288513 10.0158 0.499224C9.68048 0.709887 9.53764 1.11809 9.66848 1.49188L10.6412 4.27185L7.45698 7.45603C6.27855 8.63451 5.4952 10.1203 5.19172 11.7528C4.92551 13.1844 5.04082 14.6442 5.52342 16.0046L4.78441 16.2759C4.53849 15.9562 4.15247 15.7496 3.7189 15.7496H1.34381C0.602832 15.7496 0 16.3525 0 17.0934V22.656C0 23.397 0.602832 23.9998 1.34381 23.9998H13.6988C15.6394 23.9998 17.4745 23.255 18.8662 21.9025L23.4563 17.4414C23.6895 17.2153 23.8568 16.9298 23.9402 16.6158C24.0235 16.3018 24.0198 15.971 23.9295 15.6589ZM11.4122 1.70011C11.7954 1.70011 12.1557 1.5509 12.4266 1.27995C12.8838 0.822812 13.6276 0.822812 14.0848 1.27995C14.3557 1.5509 14.716 1.70011 15.0992 1.70011C15.3712 1.70011 15.6317 1.62492 15.8569 1.48429L15.0272 3.87209H11.4946L10.6603 1.48785C10.8842 1.62614 11.1425 1.70011 11.4122 1.70011ZM0.937531 22.6561V17.0934C0.937531 16.8694 1.11979 16.6871 1.34381 16.6871H3.71886C3.94288 16.6871 4.12514 16.8694 4.12514 17.0934V22.656C4.12514 22.8801 3.94288 23.0623 3.71886 23.0623H1.34381C1.11979 23.0624 0.937531 22.8801 0.937531 22.6561ZM22.8029 16.7692L18.2128 21.2302C16.9971 22.4117 15.394 23.0624 13.6988 23.0624H4.99971C5.0415 22.931 5.06273 22.7939 5.06267 22.6561V17.1725L7.06374 16.4378C8.33348 15.9716 9.76157 16.0392 10.9816 16.6235L14.2909 18.2086C14.5141 18.3155 14.6756 18.5051 14.7456 18.7425C14.8156 18.9798 14.7829 19.2268 14.6535 19.4378C14.5529 19.6023 14.4 19.7282 14.2192 19.7955C14.0385 19.8627 13.8405 19.8674 13.6568 19.8088L9.26042 18.4107C9.01375 18.3323 8.75012 18.4686 8.6716 18.7154C8.59318 18.9621 8.72954 19.2258 8.9763 19.3042L13.3727 20.7022C13.5497 20.7586 13.7343 20.7874 13.9201 20.7874C13.9421 20.7874 13.9639 20.7861 13.9858 20.7853C15.1132 20.7691 16.1953 20.3506 17.0396 19.6007L21.6385 15.5162C21.7389 15.4274 21.8586 15.3634 21.9881 15.3292C22.1177 15.2949 22.2534 15.2915 22.3845 15.3191C22.6987 15.3859 22.9395 15.6101 23.0285 15.9188C23.1176 16.2273 23.0333 16.5453 22.8029 16.7692Z" fill="#20336B"/>
<path d="M19.6328 9.32812C19.7561 9.32812 19.877 9.27844 19.9642 9.19078C20.0518 9.10273 20.1012 8.98363 20.1016 8.85938C20.1016 8.73609 20.0514 8.61562 19.9642 8.52797C19.8761 8.4404 19.757 8.39105 19.6328 8.39062C19.5095 8.39062 19.3891 8.44078 19.3014 8.52797C19.2139 8.61612 19.1646 8.73516 19.1641 8.85938C19.1641 8.98313 19.2142 9.10359 19.3014 9.19078C19.3894 9.27859 19.5085 9.32797 19.6328 9.32812Z" fill="#20336B"/>
<path d="M16.9519 11.3357H15.9663V10.3885H16.9519C17.1 10.3885 17.22 10.2686 17.22 10.1205C17.22 9.97233 17.1 9.85233 16.9519 9.85233H15.9663V8.53803C15.9663 8.34617 15.9284 8.20536 15.8536 8.11958C15.7826 8.03797 15.6892 8 15.5599 8C15.4365 8 15.3466 8.03771 15.277 8.11881C15.2031 8.20467 15.1656 8.34575 15.1656 8.53812V9.85249H13.3117L12.5234 8.65967C12.4596 8.55882 12.3954 8.45819 12.3309 8.35778C12.2755 8.27158 12.2214 8.2014 12.1703 8.14899C12.1251 8.1026 12.0735 8.06669 12.0132 8.03909C11.9563 8.01312 11.884 8.00009 11.7984 8.00009C11.6893 8.00009 11.5903 8.02999 11.4954 8.09141C11.4015 8.15217 11.3366 8.22728 11.297 8.32106C11.2622 8.41019 11.2438 8.54676 11.2438 8.72304V9.85241H10.268C10.12 9.85242 10 9.97242 10 10.1205C10 10.2687 10.12 10.3886 10.268 10.3886H11.2438V11.3359H10.268C10.12 11.3359 10 11.4559 10 11.604C10 11.7521 10.12 11.872 10.268 11.872H11.2438V13.3726C11.2438 13.5588 11.283 13.6982 11.3604 13.7867C11.4341 13.8712 11.5276 13.9104 11.6544 13.9104C11.7769 13.9104 11.8696 13.871 11.9464 13.7864C12.0252 13.6997 12.065 13.5604 12.065 13.3726V11.872H13.7426L14.6504 13.2641C14.714 13.3567 14.7784 13.4486 14.8437 13.54C14.9024 13.6218 14.9663 13.6939 15.0338 13.7541C15.0946 13.8085 15.1598 13.8484 15.2276 13.8727C15.2973 13.8979 15.3788 13.9106 15.4693 13.9106C15.7148 13.9106 15.9663 13.8354 15.9663 13.278V11.872H16.9518C17.0999 11.872 17.22 11.7519 17.22 11.6039C17.22 11.4558 17.1 11.3357 16.9519 11.3357ZM15.1656 10.3885V11.3357H14.2921L13.6662 10.3885H15.1656ZM12.065 9.30012L12.4252 9.85233H12.065V9.30012ZM12.065 11.3357V10.3885H12.775L13.3928 11.3357H12.065ZM15.1656 12.6578L14.6465 11.872H15.1656V12.6578Z" fill="#24BAF2"/>
</svg>
