<svg width="22" height="24" viewBox="0 0 22 24" fill="none" xmlns="http://www.w3.org/2000/svg">
<path d="M18.5 0.50036H5.5C4.11929 0.50036 3 1.61965 3 3.00036V19.6364C2.99976 21.1243 2.29923 22.5254 1.109 23.4184L1 23.5004H14L14.109 23.4184C15.2992 22.5254 15.9998 21.1243 16 19.6364V3.14336C15.9723 1.82499 16.9359 0.694637 18.242 0.51336C18.9462 0.440294 19.6484 0.66925 20.1742 1.14338C20.7 1.61752 21.0001 2.29236 21 3.00036V6.50036C21 7.05264 20.5523 7.50036 20 7.50036H16" stroke="#20336B" stroke-linecap="round" stroke-linejoin="round"/>
<path d="M5.5 4.5H8" stroke="#00BAF2" stroke-linecap="round" stroke-linejoin="round"/>
<path d="M7.5 7.5H13" stroke="#00BAF2" stroke-linecap="round" stroke-linejoin="round"/>
<path d="M5.5 10.5H13" stroke="#00BAF2" stroke-linecap="round" stroke-linejoin="round"/>
<path d="M5.5 13.5H13" stroke="#00BAF2" stroke-linecap="round" stroke-linejoin="round"/>
<path d="M5.5 16.5H10" stroke="#00BAF2" stroke-linecap="round" stroke-linejoin="round"/>
<path d="M5.5 16.5H13" stroke="#00BAF2" stroke-linecap="round" stroke-linejoin="round"/>
<path d="M5.5 19.5H10" stroke="#00BAF2" stroke-linecap="round" stroke-linejoin="round"/>
</svg>
