<svg width="30" height="31" viewBox="0 0 30 31" fill="none" xmlns="http://www.w3.org/2000/svg">
<path d="M18.1464 13.9263L17.5652 13.885C17.2266 13.8609 16.6998 13.8375 16.1498 13.8129C15.9233 13.8028 15.693 13.7926 15.4702 13.782C15.0929 13.7641 14.7378 13.7454 14.471 13.7254C14.3388 13.7155 14.2201 13.7046 14.1284 13.6924C14.0841 13.6865 14.0341 13.6787 13.9878 13.6677C13.9655 13.6625 13.9308 13.6534 13.8927 13.6385C13.8922 13.6383 13.8915 13.638 13.8908 13.6377C13.888 13.6367 13.8837 13.635 13.8782 13.6327C13.0537 14.3605 12.2332 15.5158 11.6825 16.7641L11.6824 16.7643C11.0358 18.2282 10.9081 19.4497 11.1844 20.2408L18.1464 13.9263ZM18.1464 13.9263C18.8628 14.652 19.5507 15.6725 20.0323 16.7641L20.0323 16.7643C20.679 18.2287 20.8066 19.4498 20.5304 20.2409C20.4354 20.5127 20.2707 20.7953 19.9836 21.0143C19.6994 21.2312 19.2553 21.4165 18.5464 21.4287L18.5463 21.4287C17.8707 21.4404 16.8098 21.4556 15.8576 21.4624L18.1464 13.9263ZM13.1684 21.4287L13.1687 21.4287C13.4964 21.4346 14.6573 21.4541 15.8527 21.4624H15.8574L13.1684 21.4287ZM13.1684 21.4287C12.4595 21.4165 12.0154 21.2312 11.7311 21.0143C11.4441 20.7953 11.2794 20.5127 11.1844 20.2409L10.7124 20.4058C10.9499 21.0854 11.5669 21.9012 13.1598 21.9286L13.1684 21.4287ZM14.2006 11.3315H14.2273H17.488H17.5146L18.1175 9.08126C18.075 9.11273 18.0278 9.14904 17.9747 9.19076C17.9746 9.19086 17.9744 9.19096 17.9743 9.19106L17.9688 9.19543C17.8879 9.25929 17.7791 9.34519 17.6708 9.41447C17.5836 9.47029 17.393 9.58692 17.1692 9.58692C16.9454 9.58692 16.7549 9.47029 16.6677 9.41447C16.5594 9.34519 16.4506 9.25929 16.3697 9.19543L16.3638 9.19077L14.2006 11.3315ZM14.2006 11.3315L13.5973 9.08092C13.64 9.11255 13.6875 9.14907 13.7409 9.19106L13.7465 9.19541C13.8274 9.25928 13.9361 9.34514 14.0443 9.41439C14.1311 9.46999 14.3217 9.58692 14.5455 9.58692C14.7694 9.58692 14.9599 9.47029 15.0471 9.41447C15.1554 9.34519 15.2642 9.25929 15.3451 9.19543L15.3506 9.19106C15.3508 9.19096 15.3509 9.19086 15.351 9.19075C15.6362 8.96659 15.7543 8.89844 15.8574 8.89844C15.9609 8.89844 16.0793 8.9667 16.3634 9.19051L14.2006 11.3315Z" stroke="#20336B"/>
<path fill-rule="evenodd" clip-rule="evenodd" d="M17.9093 13.5884H13.8147C13.2016 13.5884 12.7031 13.0894 12.7031 12.4768C12.7031 11.8637 13.2016 11.3652 13.8147 11.3652H17.9093C18.5224 11.3652 19.0209 11.8637 19.0209 12.4768C19.0209 13.0894 18.5219 13.5884 17.9093 13.5884Z" fill="#20336B"/>
<path d="M18.2792 18.0831H17.5662V17.3979H18.2792C18.3864 17.3979 18.4732 17.3111 18.4732 17.2039C18.4732 17.0968 18.3864 17.01 18.2792 17.01H17.5662V16.0592C17.5662 15.9204 17.5388 15.8185 17.4847 15.7564C17.4333 15.6974 17.3658 15.6699 17.2722 15.6699C17.183 15.6699 17.1179 15.6972 17.0675 15.7559C17.0141 15.818 16.987 15.9201 16.987 16.0592V17.0101H15.6458L15.0755 16.1472C15.0294 16.0742 14.9829 16.0014 14.9363 15.9288C14.8962 15.8664 14.857 15.8156 14.8201 15.7777C14.7873 15.7441 14.75 15.7182 14.7064 15.6982C14.6653 15.6794 14.613 15.67 14.5511 15.67C14.4721 15.67 14.4004 15.6916 14.3318 15.7361C14.2639 15.78 14.217 15.8343 14.1883 15.9022C14.1631 15.9667 14.1498 16.0655 14.1498 16.193V17.01H13.4439C13.3368 17.01 13.25 17.0968 13.25 17.204C13.25 17.3112 13.3368 17.3979 13.4439 17.3979H14.1498V18.0832H13.4439C13.3368 18.0832 13.25 18.17 13.25 18.2772C13.25 18.3843 13.3368 18.4711 13.4439 18.4711H14.1498V19.5566C14.1498 19.6913 14.1781 19.7922 14.2342 19.8563C14.2875 19.9174 14.3551 19.9457 14.4469 19.9457C14.5354 19.9457 14.6025 19.9172 14.6581 19.856C14.7151 19.7933 14.7439 19.6925 14.7439 19.5567V18.4711H15.9575L16.6143 19.4781C16.6603 19.5451 16.7069 19.6117 16.7541 19.6778C16.7965 19.7369 16.8428 19.7891 16.8917 19.8326C16.9356 19.872 16.9828 19.9009 17.0318 19.9185C17.0823 19.9366 17.1412 19.9458 17.2067 19.9458C17.3843 19.9458 17.5662 19.8915 17.5662 19.4882V18.4711H18.2792C18.3863 18.4711 18.4732 18.3842 18.4732 18.2771C18.4732 18.17 18.3864 18.0831 18.2792 18.0831ZM16.987 17.3978V18.0831H16.355L15.9022 17.3978H16.987ZM14.7439 16.6105L15.0045 17.01H14.7439V16.6105ZM14.7439 18.0831V17.3979H15.2575L15.7045 18.0831H14.7439ZM16.987 19.0395L16.6114 18.4711H16.987V19.0395Z" fill="#099ED6"/>
<path d="M2.4004 19.1113L4.06211 16.44L6.1307 18.6299" stroke="#20336B" stroke-linecap="round" stroke-linejoin="round"/>
<path d="M4.0483 17.3389C4.91059 22.8035 9.58644 26.8507 15.1182 26.9204C20.6498 26.9902 25.4263 23.0622 26.4262 17.6212" stroke="#20336B" stroke-linecap="round" stroke-linejoin="round"/>
<path d="M27.5918 11.3203L25.9301 13.9916L23.8615 11.8018" stroke="#20336B" stroke-linecap="round" stroke-linejoin="round"/>
<path d="M25.9439 13.0927C25.0816 7.62812 20.4057 3.58098 14.874 3.51124C9.34237 3.44145 4.56587 7.36941 3.56601 12.8104" stroke="#20336B" stroke-linecap="round" stroke-linejoin="round"/>
</svg>
