<svg width="24" height="24" viewBox="0 0 24 24" fill="none" xmlns="http://www.w3.org/2000/svg">
<g clip-path="url(#clip0_3183_2872)">
<mask id="mask0_3183_2872" style="mask-type:luminance" maskUnits="userSpaceOnUse" x="0" y="0" width="24" height="24">
<path d="M24 0H0V24H24V0Z" fill="white"/>
</mask>
<g mask="url(#mask0_3183_2872)">
<path d="M2.3125 9.0003L5.54327 5.76953" stroke="#20336B"/>
<path d="M2.3125 13.6152L5.54327 16.846" stroke="#20336B"/>
<path d="M10.6163 16.8465H2.77013C2.51523 16.8465 2.30859 16.6398 2.30859 16.3849V6.23107C2.30859 5.97617 2.51523 5.76953 2.77013 5.76953H21.2317C21.4865 5.76953 21.6932 5.97617 21.6932 6.23107V15.9234" stroke="#20336B"/>
<path d="M21.6956 9.0003L18.4648 5.76953" stroke="#20336B"/>
<path d="M7.05469 18.9629L7.85038 20.0761V22.3838" stroke="#20336B"/>
<path d="M8.76923 5.30836C8.76923 5.29636 8.76923 5.28529 8.76923 5.27329C8.76923 4.50858 8.14932 3.88867 7.38462 3.88867C6.61991 3.88867 6 4.50858 6 5.27329C6 5.28529 6 5.29636 6 5.30836V5.7699" stroke="#20336B"/>
<path d="M11.5388 5.76915V4.38454C11.5388 4.37254 11.5388 4.36146 11.5388 4.34946C11.5388 3.58475 10.9189 2.96484 10.1541 2.96484C9.38944 2.96484 8.76953 3.58475 8.76953 4.34946C8.76953 4.36146 8.76953 4.37254 8.76953 4.38454V5.76915" stroke="#20336B"/>
<path d="M14.3083 5.76908V3.03493C14.3083 3.02293 14.3083 3.01185 14.3083 2.99985C14.3083 2.23515 13.6884 1.61523 12.9237 1.61523C12.159 1.61523 11.5391 2.23515 11.5391 2.99985C11.5391 3.01185 11.5391 3.02293 11.5391 3.03493V5.76908" stroke="#20336B"/>
<path d="M17.0778 5.76915V4.38454C17.0778 4.37254 17.0778 4.36146 17.0778 4.34946C17.0778 3.58475 16.4579 2.96484 15.6932 2.96484C14.9285 2.96484 14.3086 3.58475 14.3086 4.34946C14.3086 4.36146 14.3086 4.37254 14.3086 4.38454V5.30761" stroke="#20336B"/>
<path d="M16.156 22.3835V21.4605C16.156 20.8794 16.4296 20.3322 16.8944 19.9835L19.1098 18.322C19.5747 17.9733 19.8483 17.4261 19.8483 16.8451V12.6626C19.8483 12.6561 19.8436 12.6506 19.8436 12.6441C19.8121 11.9488 19.2691 11.3849 18.5754 11.3271C17.8816 11.2693 17.2529 11.7356 17.1067 12.4161C17.0649 12.4924 17.0339 12.5741 17.0144 12.6589L16.7375 14.5669C16.6569 15.1305 16.3207 15.6255 15.8264 15.9081L14.3098 16.7749C13.7372 17.1055 13.3851 17.7171 13.3867 18.3783V19.6143" stroke="#20336B"/>
<path d="M8.64453 10.6562H15.3578" stroke="#00BAF2" stroke-linecap="square"/>
<path d="M8.64453 12H15.3578" stroke="#00BAF2" stroke-linecap="square"/>
<path d="M14.0152 14.0132H13.3439L10.6586 8.64258H9.94531V14.0132" stroke="#00BAF2" stroke-linecap="square"/>
<path d="M14.0586 14.0132V8.64258" stroke="#00BAF2" stroke-linecap="square"/>
</g>
</g>
<defs>
<clipPath id="clip0_3183_2872">
<rect width="24" height="24" fill="white"/>
</clipPath>
</defs>
</svg>
