<svg width="27" height="25" viewBox="0 0 27 25" fill="none" xmlns="http://www.w3.org/2000/svg">
<path d="M8.19531 9.74898V5.1935L12.3049 7.51969V12.2036L8.30766 9.94256C8.30744 9.94244 8.30722 9.94231 8.307 9.94219C8.23792 9.90242 8.19531 9.82878 8.19531 9.74898Z" stroke="#20336B"/>
<path d="M18.8192 5.19753V9.87843L14.7578 12.1992V7.51832L18.8192 5.19753Z" stroke="#20336B"/>
<path d="M18.0548 2.81926L13.5332 5.40323L8.97257 2.81931L13.5333 0.558535L18.0548 2.81926Z" stroke="#20336B"/>
<path d="M0.5 20.7099V16.1544L4.60959 18.4806V23.1645L0.612346 20.9035C0.612128 20.9034 0.61191 20.9032 0.611692 20.9031C0.542606 20.8634 0.5 20.7897 0.5 20.7099Z" stroke="#20336B"/>
<path d="M11.1239 16.1585V20.8394L7.0625 23.1602V18.4793L11.1239 16.1585Z" stroke="#20336B"/>
<path d="M10.3595 13.7763L5.83785 16.3603L1.27726 13.7763L5.83796 11.5156L10.3595 13.7763Z" stroke="#20336B"/>
<path d="M15.875 20.706V16.1505L19.9846 18.4767V23.1606L15.9873 20.8996C15.9871 20.8995 15.9869 20.8993 15.9867 20.8992C15.9176 20.8595 15.875 20.7858 15.875 20.706Z" stroke="#20336B"/>
<path d="M26.4989 16.1546V20.8355L22.4375 23.1563V18.4754L26.4989 16.1546Z" stroke="#20336B"/>
<path d="M25.7345 13.7763L21.2129 16.3603L16.6523 13.7763L21.213 11.5156L25.7345 13.7763Z" stroke="#20336B"/>
</svg>
