<svg width="29" height="26" viewBox="0 0 29 26" fill="none" xmlns="http://www.w3.org/2000/svg">
<path fill-rule="evenodd" clip-rule="evenodd" d="M4 22.4818C4.00004 22.6878 4.12425 22.8735 4.31467 22.9522C4.50508 23.031 4.72416 22.9871 4.86966 22.8412L6.03668 21.6742L7.71286 23.3504C7.80838 23.4461 7.93809 23.5 8.07336 23.5C8.20862 23.5 8.33833 23.4461 8.43385 23.3504L10.11 21.6742L11.7862 23.3504C11.8817 23.4461 12.0114 23.5 12.1467 23.5C12.282 23.5 12.4117 23.4461 12.5072 23.3504L14.1834 21.6742L15.8596 23.3504C15.9551 23.4461 16.0848 23.5 16.2201 23.5C16.3553 23.5 16.485 23.4461 16.5806 23.3504L18.2567 21.6742L19.4238 22.8412C19.5693 22.9871 19.7883 23.031 19.9788 22.9522C20.1692 22.8735 20.2934 22.6878 20.2934 22.4818V1.51823C20.2934 1.31219 20.1692 1.12649 19.9788 1.04779C19.7883 0.969082 19.5693 1.01288 19.4238 1.15876L18.2567 2.32577L16.5806 0.649588C16.485 0.553821 16.3553 0.5 16.2201 0.5C16.0848 0.5 15.9551 0.553821 15.8596 0.649588L14.1834 2.32577L12.5072 0.649588C12.4117 0.553821 12.282 0.5 12.1467 0.5C12.0114 0.5 11.8817 0.553821 11.7862 0.649588L10.11 2.32577L8.43385 0.649588C8.33833 0.553821 8.20862 0.5 8.07336 0.5C7.93809 0.5 7.80838 0.553821 7.71286 0.649588L6.03668 2.32577L4.86966 1.15876C4.72416 1.01288 4.50508 0.969082 4.31467 1.04779C4.12425 1.12649 4.00004 1.31219 4 1.51823L4 22.4818Z" stroke="#20336B" stroke-linecap="round" stroke-linejoin="round"/>
<path d="M7.05469 6.39844H13.1647" stroke="#00BAF2" stroke-linecap="round" stroke-linejoin="round"/>
<path d="M7.05469 9.45703H11.128" stroke="#00BAF2" stroke-linecap="round" stroke-linejoin="round"/>
<path d="M7.05469 12.5078H12.1464" stroke="#00BAF2" stroke-linecap="round" stroke-linejoin="round"/>
<path d="M7.05469 15.5625H10.1097" stroke="#00BAF2" stroke-linecap="round" stroke-linejoin="round"/>
<path d="M16.2188 6.39844H17.2371" stroke="#00BAF2" stroke-linecap="round" stroke-linejoin="round"/>
<path d="M16.2188 9.45703H17.2371" stroke="#00BAF2" stroke-linecap="round" stroke-linejoin="round"/>
<path d="M16.2188 12.5078H17.2371" stroke="#00BAF2" stroke-linecap="round" stroke-linejoin="round"/>
<path d="M16.2188 15.5625H17.2371" stroke="#00BAF2" stroke-linecap="round" stroke-linejoin="round"/>
<path fill-rule="evenodd" clip-rule="evenodd" d="M16.3086 12.125H26.6453C27.1975 12.125 27.6453 12.5727 27.6453 13.125V19.5517C27.6453 20.104 27.1975 20.5517 26.6453 20.5517H20.1567C20.1265 20.8991 20.0563 21.2342 19.9511 21.5517H26.6453C27.7498 21.5517 28.6453 20.6562 28.6453 19.5517V13.125C28.6453 12.0204 27.7498 11.125 26.6453 11.125H16.3086C15.204 11.125 14.3086 12.0204 14.3086 13.125V16.5487C14.6177 16.358 14.9535 16.2111 15.3086 16.1161V13.125C15.3086 12.5727 15.7563 12.125 16.3086 12.125Z" fill="#223872"/>
<rect x="16.2656" y="13.0781" width="7.82" height="0.651667" rx="0.325833" fill="#3FAFE9"/>
<rect x="16.2656" y="14.3828" width="7.82" height="0.651667" rx="0.325833" fill="#3FAFE9"/>
<path d="M19.6755 20.2498C19.6755 22.1331 18.1488 23.6598 16.2655 23.6598C14.3822 23.6598 12.8555 22.1331 12.8555 20.2498C12.8555 18.3666 14.3822 16.8398 16.2655 16.8398C18.1488 16.8398 19.6755 18.3666 19.6755 20.2498Z" stroke="#223872"/>
<mask id="path-14-inside-1_3183_6953" fill="white">
<path fill-rule="evenodd" clip-rule="evenodd" d="M15.9526 19.6595L16.2978 19.2699C16.519 19.0202 16.9008 18.9971 17.1505 19.2184C17.4003 19.4396 17.4233 19.8214 17.2021 20.0711L16.8761 20.4391L17.6404 21.0843L17.9506 20.7343C18.5381 20.0712 18.4768 19.0574 17.8137 18.4699C17.1506 17.8824 16.1368 17.9437 15.5493 18.6068L15.1883 19.0142L15.9526 19.6595ZM15.4936 20.1775L14.7293 19.5322L14.4855 19.8074C13.898 20.4705 13.9593 21.4843 14.6224 22.0718C15.2855 22.6593 16.2993 22.598 16.8868 21.9349L17.1815 21.6024L16.4171 20.9571L16.1383 21.2718C15.9171 21.5215 15.5353 21.5446 15.2855 21.3233C15.0358 21.1021 15.0127 20.7203 15.234 20.4706L15.4936 20.1775Z"/>
</mask>
<path d="M16.2978 19.2699L15.5493 18.6068L15.5493 18.6068L16.2978 19.2699ZM15.9526 19.6595L15.3075 20.4236L16.0536 21.0534L16.7011 20.3226L15.9526 19.6595ZM17.1505 19.2184L16.4874 19.9668L17.1505 19.2184ZM17.2021 20.0711L17.9506 20.7343V20.7343L17.2021 20.0711ZM16.8761 20.4391L16.1276 19.7759L15.4484 20.5425L16.231 21.2032L16.8761 20.4391ZM17.6404 21.0843L16.9954 21.8484L17.7414 22.4783L18.3889 21.7475L17.6404 21.0843ZM17.9506 20.7343L17.2021 20.0711H17.2021L17.9506 20.7343ZM17.8137 18.4699L18.4768 17.7214L17.8137 18.4699ZM15.5493 18.6068L16.2978 19.2699L15.5493 18.6068ZM15.1883 19.0142L14.4398 18.3511L13.7606 19.1176L14.5432 19.7783L15.1883 19.0142ZM15.4936 20.1775L16.2421 20.8407L16.9213 20.0741L16.1387 19.4134L15.4936 20.1775ZM14.7293 19.5322L15.3744 18.7681L14.6283 18.1383L13.9808 18.8691L14.7293 19.5322ZM14.4855 19.8074L15.234 20.4706L15.234 20.4706L14.4855 19.8074ZM14.6224 22.0718L13.9592 22.8203L13.9592 22.8203L14.6224 22.0718ZM16.8868 21.9349L16.1383 21.2718V21.2718L16.8868 21.9349ZM17.1815 21.6024L17.9299 22.2655L18.6091 21.4989L17.8265 20.8382L17.1815 21.6024ZM16.4171 20.9571L17.0622 20.193L16.3161 19.5631L15.6686 20.2939L16.4171 20.9571ZM16.1383 21.2718L16.8868 21.9349L16.8868 21.9349L16.1383 21.2718ZM15.2855 21.3233L14.6224 22.0718L14.6224 22.0718L15.2855 21.3233ZM15.234 20.4706L14.4855 19.8074H14.4855L15.234 20.4706ZM15.5493 18.6068L15.2041 18.9963L16.7011 20.3226L17.0462 19.9331L15.5493 18.6068ZM17.8137 18.4699C17.1506 17.8824 16.1368 17.9437 15.5493 18.6068L17.0462 19.9331C16.9012 20.0967 16.651 20.1118 16.4874 19.9668L17.8137 18.4699ZM17.9506 20.7343C18.5381 20.0712 18.4768 19.0574 17.8137 18.4699L16.4874 19.9668C16.3237 19.8219 16.3086 19.5716 16.4536 19.408L17.9506 20.7343ZM17.6246 21.1022L17.9506 20.7343L16.4536 19.408L16.1276 19.7759L17.6246 21.1022ZM16.231 21.2032L16.9954 21.8484L18.2855 20.3202L17.5212 19.6749L16.231 21.2032ZM18.3889 21.7475L18.699 21.3974L17.2021 20.0711L16.892 20.4212L18.3889 21.7475ZM18.699 21.3975C19.6528 20.321 19.5533 18.6752 18.4768 17.7214L17.1505 19.2184C17.4003 19.4396 17.4233 19.8214 17.2021 20.0711L18.699 21.3975ZM18.4768 17.7214C17.4004 16.7676 15.7545 16.8671 14.8008 17.9436L16.2978 19.2699C16.519 19.0202 16.9008 18.9971 17.1505 19.2184L18.4768 17.7214ZM14.8008 17.9436L14.4398 18.3511L15.9368 19.6774L16.2978 19.2699L14.8008 17.9436ZM14.5432 19.7783L15.3075 20.4236L16.5977 18.8953L15.8334 18.2501L14.5432 19.7783ZM16.1387 19.4134L15.3744 18.7681L14.0842 20.2964L14.8486 20.9416L16.1387 19.4134ZM13.9808 18.8691L13.737 19.1442L15.234 20.4706L15.4778 20.1954L13.9808 18.8691ZM13.737 19.1442C12.7833 20.2207 12.8828 21.8665 13.9592 22.8203L15.2855 21.3233C15.0358 21.1021 15.0127 20.7203 15.234 20.4706L13.737 19.1442ZM13.9592 22.8203C15.0357 23.774 16.6815 23.6746 17.6353 22.5981L16.1383 21.2718C15.9171 21.5215 15.5353 21.5446 15.2855 21.3233L13.9592 22.8203ZM17.6353 22.5981L17.9299 22.2655L16.433 20.9392L16.1383 21.2718L17.6353 22.5981ZM17.8265 20.8382L17.0622 20.193L15.772 21.7212L16.5364 22.3665L17.8265 20.8382ZM16.8868 21.9349L17.1656 21.6203L15.6686 20.2939L15.3898 20.6086L16.8868 21.9349ZM14.6224 22.0718C15.2855 22.6593 16.2993 22.598 16.8868 21.9349L15.3898 20.6086C15.5348 20.445 15.785 20.4298 15.9487 20.5748L14.6224 22.0718ZM14.4855 19.8074C13.898 20.4705 13.9593 21.4843 14.6224 22.0718L15.9487 20.5748C16.1123 20.7198 16.1275 20.9701 15.9825 21.1337L14.4855 19.8074ZM14.7452 19.5143L14.4855 19.8074L15.9825 21.1337L16.2421 20.8407L14.7452 19.5143Z" fill="#223872" mask="url(#path-14-inside-1_3183_6953)"/>
<rect x="16.8984" y="19.2109" width="0.601538" height="2.40615" rx="0.300769" transform="rotate(43.9974 16.8984 19.2109)" fill="#3FAFE9"/>
<circle cx="23.7581" cy="18.6174" r="1.12917" stroke="#223872"/>
<circle cx="25.0628" cy="18.6174" r="1.12917" stroke="#223872"/>
</svg>
