<svg width="21" height="20" viewBox="0 0 21 20" fill="none" xmlns="http://www.w3.org/2000/svg">
<path fill-rule="evenodd" clip-rule="evenodd" d="M14.36 8C14.44 8.66 14.5 9.32 14.5 10C14.5 10.54 14.46 11.07 14.4 11.6C13.3137 12.1195 12.4106 12.9564 11.81 14H8.09C8.5 15.43 9.17 16.76 10 17.96C10.4 17.39 10.75 16.78 11.07 16.15C11.03 16.43 11 16.71 11 17C10.9974 17.9921 11.245 18.9689 11.72 19.84C11.16 19.94 10.59 20 10 20C4.5 20 0 15.5 0 10C0 4.5 4.47 0 10 0C15.5 0 20 4.5 20 10C20 10.59 19.94 11.16 19.84 11.72C19.25 11.4 18.61 11.18 17.92 11.08C17.97 10.73 18 10.37 18 10C18 9.31 17.9 8.64 17.74 8H14.36ZM11.91 6C11.5 4.57 10.83 3.23 10 2.03C9.17 3.23 8.5 4.57 8.09 6H11.91ZM2 10C2 10.69 2.1 11.36 2.26 12H5.64C5.56 11.34 5.5 10.68 5.5 10C5.5 9.32 5.56 8.66 5.64 8H2.26C2.1 8.64 2 9.31 2 10ZM6 14H3.08C4.04485 15.6677 5.57862 16.9317 7.4 17.56C6.8 16.45 6.35 15.25 6 14ZM3.08 6H6C6.35 4.75 6.8 3.55 7.4 2.44C5.5748 3.06149 4.03886 4.32721 3.08 6ZM7.66 12H12.34C12.43 11.34 12.5 10.68 12.5 10C12.5 9.32 12.43 8.65 12.34 8H7.66C7.56 8.65 7.5 9.32 7.5 10C7.5 10.68 7.56 11.34 7.66 12ZM16.92 6C15.96 4.34 14.43 3.07 12.59 2.44C13.1936 3.5659 13.657 4.76146 13.97 6H16.92Z" fill="#20336B"/>
<path d="M20.5 15.25L15.75 20L13 17L14.16 15.84L15.75 17.43L19.34 13.84L20.5 15.25Z" fill="#00BAF2"/>
</svg>
