<svg width="25" height="25" viewBox="0 0 25 25" fill="none" xmlns="http://www.w3.org/2000/svg">
<path fill-rule="evenodd" clip-rule="evenodd" d="M11.3203 19.8031H7.57812C6.80493 19.8031 6.17812 20.4299 6.17812 21.2031V21.6846C6.17812 21.9055 6.35721 22.0846 6.57812 22.0846C6.79904 22.0846 6.97812 21.9055 6.97812 21.6846V21.2031C6.97812 20.8718 7.24675 20.6031 7.57812 20.6031H11.3203V19.8031Z" fill="white"/>
<rect x="5.55469" y="0.703125" width="11.0741" height="21.2223" rx="1.5" stroke="#20336B"/>
<path d="M7.04688 1.88281H15.2691" stroke="#20336B" stroke-width="0.6" stroke-linecap="round"/>
<rect x="7.17969" y="3.66797" width="7.64199" height="5.64769" rx="0.5" stroke="#20336B"/>
<rect x="6.63281" y="11.9375" width="2.46297" height="1.57408" rx="0.55" fill="white" stroke="#20336B" stroke-width="0.5"/>
<rect x="9.89062" y="11.9375" width="2.46297" height="1.57408" rx="0.55" fill="white" stroke="#20336B" stroke-width="0.5"/>
<rect x="13.2266" y="11.9375" width="2.46297" height="1.57408" rx="0.55" fill="white" stroke="#20336B" stroke-width="0.5"/>
<rect x="6.63281" y="14.5273" width="2.46297" height="1.57408" rx="0.55" fill="white" stroke="#20336B" stroke-width="0.5"/>
<rect x="9.89062" y="14.5273" width="2.46297" height="1.57408" rx="0.55" fill="white" stroke="#20336B" stroke-width="0.5"/>
<path d="M13.2344 16.1296V15.1C13.2344 14.7686 13.503 14.5 13.8344 14.5H15.0237C15.3551 14.5 15.6237 14.7686 15.6237 15.1V15.3889" stroke="#20336B" stroke-width="0.5" stroke-linecap="round"/>
<rect x="6.63281" y="17.1172" width="2.46297" height="1.57408" rx="0.55" fill="white" stroke="#20336B" stroke-width="0.5"/>
<path d="M12.3102 17.0898H10.4594C10.128 17.0898 9.85938 17.3585 9.85938 17.6898V18.1195C9.85938 18.4508 10.128 18.7195 10.4594 18.7195L10.9705 18.7195" stroke="#20336B" stroke-width="0.5" stroke-linecap="round"/>
<rect x="13.2266" y="17.1172" width="2.46297" height="1.57408" rx="0.75" fill="white" stroke="#20336B" stroke-width="0.5"/>
<path d="M5.42188 10.8702V11.2702H5.82187V10.8702H5.42188ZM5.42188 2.42578H5.82187V2.02578H5.42188V2.42578ZM4.41563 3.42578C4.41563 3.09441 4.68425 2.82578 5.01563 2.82578V2.02578C4.24243 2.02578 3.61562 2.65258 3.61562 3.42578H4.41563ZM4.41563 9.87024V3.42578H3.61562V9.87024H4.41563ZM5.01563 10.4702C4.68425 10.4702 4.41563 10.2016 4.41563 9.87024H3.61562C3.61562 10.6434 4.24243 11.2702 5.01563 11.2702V10.4702ZM5.42188 10.4702H5.01563V11.2702H5.42188V10.4702ZM5.82187 10.8702V2.42578H5.02188V10.8702H5.82187ZM5.01563 2.82578H5.42188V2.02578H5.01563V2.82578Z" fill="#20336B"/>
<path d="M16.7656 10.8702V11.2702H16.3656V10.8702H16.7656ZM16.7656 2.42578H16.3656V2.02578H16.7656V2.42578ZM17.6937 3.42578C17.6937 3.09441 17.4251 2.82578 17.0937 2.82578V2.02578C17.8669 2.02578 18.4938 2.65258 18.4938 3.42578H17.6937ZM17.6937 9.87024V3.42578H18.4938V9.87024H17.6937ZM17.0937 10.4702C17.4251 10.4702 17.6937 10.2016 17.6937 9.87024H18.4938C18.4938 10.6434 17.8669 11.2702 17.0937 11.2702V10.4702ZM16.7656 10.4702H17.0937V11.2702H16.7656V10.4702ZM16.3656 10.8702V2.42578H17.1656V10.8702H16.3656ZM17.0937 2.82578H16.7656V2.02578H17.0937V2.82578Z" fill="#20336B"/>
<circle cx="15.7928" cy="19.8319" r="3.62408" fill="white" stroke="#20336B" stroke-width="0.9"/>
<path d="M15.8089 21.8834C16.1434 21.8834 16.4146 21.6122 16.4146 21.2776C16.4146 20.9431 16.1434 20.6719 15.8089 20.6719C15.4743 20.6719 15.2031 20.9431 15.2031 21.2776C15.2031 21.6122 15.4743 21.8834 15.8089 21.8834Z" fill="#3FAFE9"/>
<path d="M17.2599 19.8145C17.2509 19.8053 17.2414 19.797 17.2322 19.7885L17.205 19.7628C17.2005 19.7581 17.1955 19.7546 17.1898 19.7501C16.8139 19.4075 16.3205 19.223 15.8121 19.2349C15.3037 19.2469 14.8194 19.4544 14.4601 19.8143L14.3725 19.9022L14.2511 20.0235C14.1802 20.0949 14.1404 20.1915 14.1406 20.2921C14.1408 20.3928 14.1809 20.4892 14.2521 20.5603C14.2873 20.5957 14.3291 20.6237 14.3751 20.6429C14.4211 20.662 14.4705 20.672 14.5203 20.6721C14.5702 20.6721 14.6196 20.6624 14.6657 20.6434C14.7118 20.6244 14.7537 20.5965 14.789 20.5613L14.9982 20.3521C15.227 20.124 15.537 19.9958 15.8601 19.9958C16.1832 19.9957 16.4932 20.1238 16.7221 20.3518L16.8732 20.4982C16.9439 20.5685 17.0397 20.6079 17.1395 20.6076C17.2392 20.6074 17.3348 20.5676 17.4052 20.4969C17.4404 20.4621 17.4682 20.4206 17.4872 20.3749C17.5062 20.3292 17.5159 20.2802 17.5159 20.2307C17.5162 20.1814 17.5067 20.1326 17.4878 20.087C17.469 20.0414 17.4413 20 17.4062 19.9653L17.2599 19.8145Z" fill="#3FAFE9"/>
<path d="M18.2877 19.0685L18.1618 18.9427C18.1613 18.9422 18.1611 18.9415 18.1601 18.9412L18.0607 18.8413C18.0435 18.8244 18.0246 18.8093 18.0043 18.7961C16.7276 17.6753 14.7857 17.7097 13.5498 18.8988C13.5438 18.9043 13.537 18.908 13.531 18.914L13.3038 19.1415C13.2718 19.1737 13.2464 19.2119 13.2291 19.2539C13.2118 19.2959 13.203 19.3409 13.2031 19.3863C13.2033 19.4318 13.2124 19.4767 13.2299 19.5186C13.2474 19.5606 13.2731 19.5986 13.3053 19.6306C13.3373 19.6628 13.3754 19.6884 13.4173 19.706C13.4592 19.7235 13.5042 19.7325 13.5496 19.7327C13.5951 19.7328 13.6401 19.7239 13.6821 19.7066C13.7241 19.6893 13.7623 19.6639 13.7945 19.6319L14.0217 19.4049C14.0232 19.4029 14.0244 19.4011 14.0259 19.3999C15.0254 18.4343 16.611 18.4283 17.6185 19.3802L17.7973 19.5592C17.8624 19.6239 17.9505 19.6601 18.0422 19.6598C18.134 19.6596 18.2219 19.6229 18.2867 19.5579C18.3516 19.4931 18.3881 19.4052 18.3883 19.3135C18.3885 19.2217 18.3523 19.1336 18.2877 19.0685Z" fill="#3FAFE9"/>
<path d="M10.9786 20.2031H8.01562" stroke="#20336B" stroke-width="0.8" stroke-linecap="round"/>
</svg>
