<svg width="30" height="17" viewBox="0 0 30 17" fill="none" xmlns="http://www.w3.org/2000/svg">
<rect x="16.877" y="7.99618" width="3.69807" height="5.45624" rx="0.55" transform="rotate(-45.6192 16.877 7.99618)" stroke="#20336B" stroke-width="0.5"/>
<path d="M24.1567 14.4922C24.1279 15.3044 25.4501 15.6155 27.2476 16.2308" stroke="#20336B" stroke-width="0.5" stroke-linecap="round"/>
<path d="M22.034 13.5234C21.8408 14.6825 24.3522 15.2621 24.5454 13.7166" stroke="#20336B" stroke-width="0.5" stroke-linecap="round"/>
<path d="M24.3449 13.3324C22.4131 14.1051 22.0267 13.3324 22.0267 13.3324C22.0267 13.3324 20.8676 12.1733 21.0608 11.5938" stroke="#20336B" stroke-width="0.5" stroke-linecap="round"/>
<path d="M25.3116 11.0125C25.3116 11.0125 21.2548 8.8875 20.8684 8.69432C20.482 8.50114 20.2889 9.27386 20.482 9.85341C20.6752 10.433 22.2207 11.4955 22.9934 11.4955C23.7661 11.4955 24.9252 14.2966 24.9252 14.2966" stroke="#20336B" stroke-width="0.5" stroke-linecap="round"/>
<path d="M23.375 8.69429C25.5 8.50111 26.0795 9.27384 28.9773 14.2966" stroke="#20336B" stroke-width="0.5" stroke-linecap="round"/>
<path d="M23.3864 8.69531H23" stroke="#20336B" stroke-width="0.5" stroke-linecap="round"/>
<path d="M21.4531 11.2031C22.2259 11.9759 22.0327 12.7486 23.9645 12.5554" stroke="#20336B" stroke-width="0.5" stroke-linecap="round"/>
<path fill-rule="evenodd" clip-rule="evenodd" d="M20.8228 14.0984C21.1916 13.8449 21.5341 13.5762 21.8486 13.2943L22.1855 13.6634C19.926 15.6919 16.367 17 12.3636 17C5.53539 17 0 13.1944 0 8.5C0 3.80558 5.53539 0 12.3636 0C19.1919 0 24.7273 3.80558 24.7273 8.5C24.7273 8.5348 24.727 8.56956 24.7264 8.60427L24.2273 8.51132C24.2273 8.50755 24.2273 8.50377 24.2273 8.5C24.2273 6.36484 22.9689 4.37706 20.8228 2.90161C18.6789 1.42769 15.6897 0.5 12.3636 0.5C9.03761 0.5 6.04838 1.42769 3.90449 2.90161C1.75839 4.37706 0.5 6.36484 0.5 8.5C0.5 10.6352 1.75839 12.6229 3.90449 14.0984C6.04838 15.5723 9.03761 16.5 12.3636 16.5C15.6897 16.5 18.6789 15.5723 20.8228 14.0984Z" fill="#20336B"/>
<path d="M13.8854 15.0161C13.6822 14.9562 13.4738 14.7139 13.4295 14.482C13.4008 14.3309 13.4347 14.2267 13.6509 13.8072C14.5263 12.1137 14.9067 10.5557 14.9067 8.66676C14.9067 6.84038 14.5706 5.41782 13.7343 3.71389C13.5545 3.34913 13.4086 3.00783 13.4086 2.95832C13.4086 2.77594 13.5597 2.5128 13.7239 2.41119C13.9479 2.2705 14.3257 2.29655 14.5081 2.4659C14.5785 2.53104 14.7582 2.82805 14.9093 3.12507C15.5086 4.30011 15.9176 5.58978 16.1209 6.93157C16.2459 7.76269 16.272 9.33635 16.1704 10.0971C15.9854 11.4988 15.6154 12.752 15.0214 13.9766C14.6618 14.7165 14.4378 15.0213 14.2502 15.0213C14.2137 15.0213 14.1512 15.0318 14.1147 15.0422C14.0782 15.0526 13.974 15.0422 13.8854 15.0161ZM11.4494 13.7421C11.1367 13.6509 10.91 13.2653 11.0012 12.9787C11.0221 12.9084 11.1706 12.5879 11.3295 12.2648C11.9991 10.897 12.2779 9.43275 12.1424 7.99457C12.0304 6.81172 11.8193 6.06657 11.2852 4.97751C10.9283 4.24539 10.91 4.13336 11.1185 3.83634C11.3165 3.55496 11.8115 3.51067 12.0695 3.74776C12.2492 3.9119 12.8094 5.08173 13.0256 5.7435C13.7395 7.93204 13.6301 10.2847 12.7156 12.4342C12.244 13.5363 11.9131 13.8776 11.4494 13.7421ZM8.93775 12.4498C8.74495 12.3638 8.57821 12.158 8.53131 11.9522C8.50265 11.8271 8.55215 11.6864 8.78143 11.2227C9.62558 9.51352 9.6334 7.86951 8.81009 6.19945C8.44794 5.46733 8.44012 5.32143 8.74495 5.03223C8.89607 4.88893 8.9612 4.86548 9.17224 4.86548C9.52918 4.86548 9.71416 5.04525 10.032 5.69921C10.5218 6.7049 10.7225 7.57771 10.7199 8.69542C10.7172 9.84441 10.5297 10.6338 10.0086 11.6942C9.70895 12.3013 9.56045 12.4628 9.26082 12.5019C9.16964 12.5097 9.02373 12.4889 8.93775 12.4498ZM6.59289 11.2461C6.43917 11.1836 6.26461 10.9752 6.2125 10.7928C6.15518 10.5896 6.20208 10.428 6.43136 10.0502C6.72837 9.56302 6.79611 9.30248 6.79611 8.66676C6.79611 8.03105 6.72837 7.7679 6.43136 7.2833C6.32974 7.11915 6.23074 6.92114 6.20729 6.84298C6.11089 6.52252 6.37925 6.1291 6.73879 6.06136C7.04363 6.00404 7.25206 6.13952 7.53344 6.57723C8.34372 7.84346 8.34372 9.53176 7.53344 10.7876C7.24685 11.2279 6.92899 11.3842 6.59289 11.2461Z" fill="#3FAFE9"/>
</svg>
