<svg width="23" height="26" viewBox="0 0 23 26" fill="none" xmlns="http://www.w3.org/2000/svg">
<path d="M15.5995 3.66406H1.5C1.22386 3.66406 1 3.88792 1 4.16406V24.4987C1 24.7749 1.22386 24.9987 1.5 24.9987H18.5241C18.8002 24.9987 19.0241 24.7749 19.0241 24.4987V16.2793" stroke="#FF5900" stroke-width="1.5"/>
<path d="M8.17969 7.6543C8.76823 7.6543 13.0842 7.6543 15.1686 7.6543" stroke="#FF5900" stroke-width="1.5"/>
<path d="M8.17969 11.9414C8.76823 11.9414 13.0842 11.9414 15.1686 11.9414" stroke="#FF5900" stroke-width="1.5"/>
<path d="M8.17969 16.3555C8.76823 16.3555 13.0842 16.3555 15.1686 16.3555" stroke="#FF5900" stroke-width="1.5"/>
<path d="M8.17969 20.7305C8.76823 20.7305 13.0842 20.7305 15.1686 20.7305" stroke="#FF5900" stroke-width="1.5"/>
<rect x="4.49219" y="6.95312" width="1.47135" height="1.47136" rx="0.735677" fill="#FF5900"/>
<rect x="4.49219" y="11.3887" width="1.47135" height="1.47136" rx="0.735677" fill="#FF5900"/>
<rect x="4.49219" y="15.5938" width="1.47135" height="1.47136" rx="0.735677" fill="#FF5900"/>
<rect x="4.49219" y="19.9492" width="1.47135" height="1.47136" rx="0.735677" fill="#FF5900"/>
<path d="M17.2656 11.0223V12.1316C17.2656 12.3656 17.3476 12.5921 17.4974 12.7718L18.4038 13.8595C18.7802 14.3112 19.4633 14.3422 19.8791 13.9264L21.019 12.7866C21.2065 12.599 21.3119 12.3447 21.3119 12.0795V11.0223M17.2656 11.0223H21.3119M17.2656 11.0223V4.40123M21.3119 11.0223V4.40123M17.2656 4.40123V2.61836C17.2656 2.34728 17.374 2.08526 17.5768 1.90535C19.0336 0.612899 19.858 0.78589 21.0254 1.90782C21.2125 2.08759 21.3119 2.33923 21.3119 2.59867V4.40123M17.2656 4.40123H21.3119" stroke="#FF5900" stroke-width="1.5"/>
</svg>
