<svg width="85" height="91" viewBox="0 0 85 91" fill="none" xmlns="http://www.w3.org/2000/svg">
<path fill-rule="evenodd" clip-rule="evenodd" d="M64.6617 15.4029H59.2093C58.7731 15.4029 58.555 15.621 58.555 16.0572L57.2464 20.6373C56.1559 20.8554 55.2835 21.2916 54.4111 21.7278L50.2673 19.5468C50.0492 19.3287 49.613 19.5468 49.3949 19.7649L45.4691 23.6907C45.251 23.9088 45.251 24.3449 45.251 24.563L47.432 28.7069C46.9958 29.5793 46.5596 30.6698 46.3415 31.5422L41.7615 32.8508C41.5434 32.8508 41.1072 33.287 41.1072 33.505V38.7394C41.1072 39.1756 41.3253 39.3937 41.7615 39.3937L46.3415 40.7023C46.5596 41.7928 46.9958 42.6652 47.6501 43.5375L45.4691 47.6814C45.251 47.8995 45.251 48.3357 45.6872 48.5538L49.613 52.4796C49.8311 52.6976 50.2673 52.6977 50.4854 52.6977L54.6292 50.5167C55.5016 50.9529 56.5921 51.3891 57.4645 51.6072L58.7731 56.1872C58.7731 56.4053 59.2093 56.8415 59.4274 56.8415H64.8798C65.316 56.8415 65.5341 56.6234 65.5341 56.1872L66.8427 51.6072C67.9332 51.3891 68.8056 50.9529 69.678 50.5167L73.8218 52.6977C74.0399 52.9157 74.4761 52.9157 74.6942 52.4796L78.62 48.5538C78.8381 48.3357 78.8381 47.8995 78.8381 47.6814L76.6571 43.5376C77.0933 42.6652 77.5295 41.5747 77.9657 40.7023L82.5457 39.3937C82.7638 39.3937 83.2 38.9575 83.2 38.7394V33.0689C83.2 32.6327 82.9819 32.4146 82.5457 32.4146L77.9657 31.106C77.7476 30.0155 77.3114 29.1431 76.8752 28.2707L79.0562 24.1269C79.2743 23.9088 79.2743 23.4726 78.8381 23.2545L74.9123 19.3287C74.258 19.1106 74.0399 19.1106 73.6037 19.3287L69.4599 21.5097C68.5875 21.0735 67.497 20.6373 66.6246 20.4192L65.316 15.8391C65.316 15.621 65.0979 15.1849 64.6617 15.4029ZM64.0074 16.9297L65.0979 21.2916C65.0979 21.5097 65.316 21.7278 65.5341 21.7278C66.6246 22.164 67.9332 22.6002 69.0237 23.0364C69.2417 23.2545 69.4599 23.2545 69.6779 23.0364L73.6037 20.8554L76.6571 23.9088L74.4761 27.8346C74.258 28.0527 74.258 28.2708 74.4761 28.4889C75.1304 29.5794 75.5666 30.6698 75.7847 31.7603C75.7847 31.9784 76.0028 32.1965 76.2209 32.1965L80.5828 33.5051V37.8671L76.2209 39.1757C76.0028 39.1757 75.7847 39.3938 75.7847 39.6119C75.3485 40.7023 74.9123 42.0109 74.4761 42.8833C74.258 43.1014 74.258 43.3195 74.4761 43.7557L76.6571 47.6815L73.6037 50.7348L69.6779 48.5539C69.4599 48.3358 69.2417 48.3358 69.0237 48.5539C67.9332 49.2081 66.8427 49.6443 65.5341 49.8624C65.316 49.8624 65.0979 50.0805 65.0979 50.2986L63.7893 54.6606H59.4274L58.1188 50.2986C58.1188 50.0805 57.9007 49.8624 57.6826 49.8624C56.8102 50.0805 55.5016 49.6443 54.6292 48.9901C54.4111 48.772 54.193 48.772 53.9749 48.9901L50.0492 51.171L46.9958 48.1177L49.1768 44.1919C49.3949 43.9738 49.3949 43.7557 49.1768 43.3195C48.5225 42.229 48.0863 41.1385 47.8682 40.048C47.8682 39.83 47.6501 39.6119 47.432 39.6119L43.07 38.3033V33.9413L47.432 32.6327C47.6501 32.6327 47.8682 32.4146 47.8682 32.1965C48.3044 31.106 48.7406 29.7975 49.1768 28.9251C49.3949 28.707 49.3949 28.4889 49.1768 28.2708L46.9958 24.345L50.0492 21.2916L53.9749 23.4726C54.193 23.6907 54.4111 23.6907 54.6292 23.4726C55.7197 22.8183 56.8102 22.3821 58.1188 22.164C58.3369 22.164 58.555 21.9459 58.555 21.7278L59.6455 17.3659L64.0074 16.9297ZM54.1931 35.904C54.1931 40.0479 57.6826 43.5375 61.8265 43.5375C65.9703 43.5375 69.4599 40.0479 69.4599 35.904C69.4599 31.7602 65.9703 28.2706 61.8265 28.2706C57.6826 28.2706 54.1931 31.7602 54.1931 35.904ZM67.9332 35.9041C67.9332 39.3937 65.0979 42.0108 61.8265 42.0108C58.3369 42.0108 55.7197 39.1756 55.7197 35.9041C55.7197 32.4145 58.555 29.7974 61.8265 29.7974C65.316 29.7974 67.9332 32.6326 67.9332 35.9041Z" fill="#FF5900"/>
<path d="M58.555 16.0572L59.5165 16.332L59.555 16.1973V16.0572H58.555ZM57.2464 20.6373L57.4425 21.6179L58.0404 21.4983L58.2079 20.912L57.2464 20.6373ZM54.4111 21.7278L53.9454 22.6127L54.3994 22.8517L54.8584 22.6222L54.4111 21.7278ZM50.2673 19.5468L49.5602 20.2539L49.6674 20.3611L49.8015 20.4317L50.2673 19.5468ZM49.3949 19.7649L48.6878 19.0578L49.3949 19.7649ZM45.4691 23.6907L46.1762 24.3978L45.4691 23.6907ZM45.251 24.563H44.251V24.8101L44.3661 25.0288L45.251 24.563ZM47.432 28.7069L48.3264 29.1541L48.5559 28.6952L48.3169 28.2412L47.432 28.7069ZM46.3415 31.5422L46.6162 32.5037L47.1716 32.345L47.3117 31.7847L46.3415 31.5422ZM41.7615 32.8508V33.8508H41.9015L42.0362 33.8123L41.7615 32.8508ZM41.7615 39.3937L42.0362 38.4322L41.9015 38.3937H41.7615V39.3937ZM46.3415 40.7023L47.3221 40.5062L47.2025 39.9083L46.6162 39.7408L46.3415 40.7023ZM47.6501 43.5375L48.535 44.0033L48.8296 43.4436L48.4501 42.9375L47.6501 43.5375ZM45.4691 47.6814L46.1762 48.3885L46.2834 48.2813L46.3541 48.1471L45.4691 47.6814ZM45.6872 48.5538L46.3943 47.8467L46.2796 47.7319L46.1344 47.6594L45.6872 48.5538ZM49.613 52.4796L48.9059 53.1867L48.9059 53.1867L49.613 52.4796ZM50.4854 52.6977V53.6977H50.7325L50.9511 53.5826L50.4854 52.6977ZM54.6292 50.5167L55.0765 49.6222L54.6175 49.3928L54.1635 49.6318L54.6292 50.5167ZM57.4645 51.6072L58.426 51.3324L58.2674 50.7771L57.707 50.637L57.4645 51.6072ZM58.7731 56.1872H59.7731V56.0472L59.7346 55.9125L58.7731 56.1872ZM65.5341 56.1872L64.5726 55.9125L64.5341 56.0472V56.1872H65.5341ZM66.8427 51.6072L66.6466 50.6266L66.0487 50.7462L65.8812 51.3324L66.8427 51.6072ZM69.678 50.5167L70.1437 49.6318L69.6897 49.3928L69.2308 49.6222L69.678 50.5167ZM73.8218 52.6977L74.5289 51.9905L74.4217 51.8833L74.2876 51.8127L73.8218 52.6977ZM74.6942 52.4796L73.9871 51.7724L73.8724 51.8872L73.7998 52.0323L74.6942 52.4796ZM78.62 48.5538L79.3271 49.2609V49.2609L78.62 48.5538ZM78.8381 47.6814H79.8381V47.4343L79.723 47.2157L78.8381 47.6814ZM76.6571 43.5376L75.7627 43.0903L75.5332 43.5493L75.7722 44.0033L76.6571 43.5376ZM77.9657 40.7023L77.691 39.7408L77.268 39.8616L77.0713 40.2551L77.9657 40.7023ZM82.5457 39.3937V38.3937H82.4057L82.271 38.4322L82.5457 39.3937ZM82.5457 32.4146L82.271 33.3761L82.4057 33.4146H82.5457V32.4146ZM77.9657 31.106L76.9851 31.3021L77.1047 31.9L77.691 32.0675L77.9657 31.106ZM76.8752 28.2707L75.9903 27.805L75.7513 28.259L75.9808 28.7179L76.8752 28.2707ZM79.0562 24.1269L78.3491 23.4198L78.2419 23.527L78.1713 23.6611L79.0562 24.1269ZM78.8381 23.2545L78.131 23.9616L78.2457 24.0763L78.3909 24.1489L78.8381 23.2545ZM74.9123 19.3287L75.6194 18.6216L75.4525 18.4547L75.2286 18.38L74.9123 19.3287ZM73.6037 19.3287L73.1565 18.4343L73.1472 18.4389L73.138 18.4438L73.6037 19.3287ZM69.4599 21.5097L69.0127 22.4041L69.4716 22.6336L69.9256 22.3946L69.4599 21.5097ZM66.6246 20.4192L65.6631 20.6939L65.8218 21.2493L66.3821 21.3893L66.6246 20.4192ZM65.316 15.8391H64.316V15.9792L64.3545 16.1139L65.316 15.8391ZM65.0979 21.2916H66.0979V21.1685L66.068 21.0491L65.0979 21.2916ZM65.5341 21.7278L65.9055 20.7994L65.7267 20.7278H65.5341V21.7278ZM69.0237 23.0364L69.7308 22.3293L69.5856 22.1842L69.395 22.1079L69.0237 23.0364ZM69.6779 23.0364L69.1923 22.1623L69.0699 22.2303L68.9708 22.3293L69.6779 23.0364ZM73.6037 20.8554L74.3108 20.1483L73.7774 19.615L73.1181 19.9813L73.6037 20.8554ZM76.6571 23.9088L77.5312 24.3945L77.8975 23.7351L77.3642 23.2017L76.6571 23.9088ZM74.4761 27.8346L75.1832 28.5417L75.2822 28.4426L75.3503 28.3202L74.4761 27.8346ZM74.4761 28.4889L75.3336 27.9744L75.2703 27.8688L75.1832 27.7818L74.4761 28.4889ZM75.7847 31.7603H76.7847V31.6613L76.7653 31.5642L75.7847 31.7603ZM76.2209 32.1965L76.5082 31.2387L76.3676 31.1965H76.2209V32.1965ZM80.5828 33.5051H81.5828V32.7611L80.8702 32.5473L80.5828 33.5051ZM80.5828 37.8671L80.8702 38.8249L81.5828 38.6111V37.8671H80.5828ZM76.2209 39.1757V40.1757H76.3676L76.5082 40.1335L76.2209 39.1757ZM75.7847 39.6119L76.7132 39.9832L76.7847 39.8044V39.6119H75.7847ZM74.4761 42.8833L75.1832 43.5904L75.298 43.4757L75.3705 43.3305L74.4761 42.8833ZM74.4761 43.7557L73.5817 44.2029L73.5914 44.2224L73.6019 44.2414L74.4761 43.7557ZM76.6571 47.6815L77.3642 48.3886L77.8975 47.8552L77.5312 47.1958L76.6571 47.6815ZM73.6037 50.7348L73.1181 51.609L73.7774 51.9753L74.3108 51.4419L73.6037 50.7348ZM69.6779 48.5539L68.9708 49.261L69.0699 49.36L69.1923 49.428L69.6779 48.5539ZM69.0237 48.5539L69.5381 49.4114L69.6437 49.348L69.7308 49.261L69.0237 48.5539ZM65.5341 49.8624V50.8624H65.6169L65.6985 50.8488L65.5341 49.8624ZM65.0979 50.2986L66.0557 50.586L66.0979 50.4454V50.2986H65.0979ZM63.7893 54.6606V55.6606H64.5333L64.7471 54.9479L63.7893 54.6606ZM59.4274 54.6606L58.4695 54.9479L58.6833 55.6606H59.4274V54.6606ZM58.1188 50.2986H57.1188V50.4454L57.1609 50.586L58.1188 50.2986ZM57.6826 49.8624V48.8624H57.5595L57.44 48.8923L57.6826 49.8624ZM54.6292 48.9901L53.9221 49.6972L53.9724 49.7474L54.0292 49.7901L54.6292 48.9901ZM53.9749 48.9901L54.4606 49.8642L54.583 49.7962L54.682 49.6972L53.9749 48.9901ZM50.0492 51.171L49.3421 51.8781L49.8754 52.4115L50.5348 52.0452L50.0492 51.171ZM46.9958 48.1177L46.1216 47.632L45.7553 48.2914L46.2887 48.8248L46.9958 48.1177ZM49.1768 44.1919L48.4697 43.4848L48.3706 43.5838L48.3026 43.7063L49.1768 44.1919ZM49.1768 43.3195L50.0712 42.8723L50.054 42.838L50.0343 42.805L49.1768 43.3195ZM47.8682 40.048H46.8682V40.1471L46.8876 40.2442L47.8682 40.048ZM47.432 39.6119L47.1446 40.5697L47.2852 40.6119H47.432V39.6119ZM43.07 38.3033H42.07V39.0473L42.7827 39.2611L43.07 38.3033ZM43.07 33.9413L42.7827 32.9835L42.07 33.1973V33.9413H43.07ZM47.432 32.6327V31.6327H47.2852L47.1446 31.6749L47.432 32.6327ZM47.8682 32.1965L46.9397 31.8251L46.8682 32.0039V32.1965H47.8682ZM49.1768 28.9251L48.4697 28.218L48.3549 28.3327L48.2823 28.4778L49.1768 28.9251ZM49.1768 28.2708L48.3026 28.7564L48.3706 28.8788L48.4697 28.9779L49.1768 28.2708ZM46.9958 24.345L46.2887 23.6379L45.7553 24.1713L46.1216 24.8307L46.9958 24.345ZM50.0492 21.2916L50.5348 20.4175L49.8754 20.0512L49.3421 20.5845L50.0492 21.2916ZM53.9749 23.4726L54.682 22.7655L54.583 22.6665L54.4606 22.5985L53.9749 23.4726ZM54.6292 23.4726L54.1147 22.6151L54.0091 22.6785L53.9221 22.7655L54.6292 23.4726ZM58.1188 22.164V21.164H58.036L57.9544 21.1776L58.1188 22.164ZM58.555 21.7278L57.5848 21.4853L57.555 21.6047V21.7278H58.555ZM59.6455 17.3659L59.546 16.3708L58.8459 16.4408L58.6753 17.1233L59.6455 17.3659ZM61.8265 29.7974V30.7974H61.8265L61.8265 29.7974ZM64.6617 14.4029H59.2093V16.4029H64.6617V14.4029ZM59.2093 14.4029C58.837 14.4029 58.3742 14.4967 58.0115 14.8594C57.6487 15.2221 57.555 15.685 57.555 16.0572H59.555C59.555 15.9933 59.5703 16.129 59.4257 16.2736C59.281 16.4183 59.1453 16.4029 59.2093 16.4029V14.4029ZM57.5935 15.7825L56.2849 20.3626L58.2079 20.912L59.5165 16.332L57.5935 15.7825ZM57.0503 19.6567C55.8112 19.9045 54.8273 20.4016 53.9639 20.8334L54.8584 22.6222C55.7397 22.1815 56.5006 21.8063 57.4425 21.6179L57.0503 19.6567ZM54.8769 20.8429L50.733 18.6619L49.8015 20.4317L53.9454 22.6127L54.8769 20.8429ZM50.9744 18.8397C50.4594 18.3247 49.8046 18.447 49.5149 18.5436C49.1874 18.6528 48.8935 18.8521 48.6878 19.0578L50.102 20.472C50.1008 20.4732 50.1109 20.4636 50.1294 20.4518C50.1483 20.4398 50.1563 20.438 50.1473 20.441C50.1432 20.4423 50.0819 20.4634 49.9791 20.4541C49.8606 20.4433 49.6971 20.3908 49.5602 20.2539L50.9744 18.8397ZM48.6878 19.0578L44.762 22.9835L46.1762 24.3978L50.102 20.472L48.6878 19.0578ZM44.762 22.9835C44.4313 23.3143 44.3307 23.7295 44.2919 23.9625C44.2492 24.2184 44.251 24.4598 44.251 24.563H46.251C46.251 24.5076 46.2512 24.4603 46.2534 24.4108C46.2557 24.3615 46.2596 24.3218 46.2647 24.2913C46.2701 24.259 46.274 24.2537 46.2686 24.2669C46.2632 24.2801 46.239 24.335 46.1762 24.3978L44.762 22.9835ZM44.3661 25.0288L46.5471 29.1726L48.3169 28.2412L46.136 24.0973L44.3661 25.0288ZM46.5376 28.2597C46.0795 29.176 45.6122 30.3365 45.3714 31.2996L47.3117 31.7847C47.5071 31.003 47.9122 29.9826 48.3264 29.1541L46.5376 28.2597ZM46.0668 30.5806L41.4867 31.8892L42.0362 33.8123L46.6162 32.5037L46.0668 30.5806ZM41.7615 31.8508C41.4228 31.8508 41.1585 31.9992 41.0409 32.0721C40.8907 32.165 40.7561 32.2783 40.6454 32.389C40.5347 32.4997 40.4214 32.6343 40.3285 32.7845C40.2557 32.9021 40.1072 33.1664 40.1072 33.505H42.1072C42.1072 33.6363 42.0763 33.7292 42.0622 33.7668C42.0462 33.8093 42.0315 33.8331 42.029 33.8372C42.0247 33.8442 42.034 33.8288 42.0596 33.8032C42.0853 33.7776 42.1006 33.7682 42.0936 33.7726C42.0895 33.7751 42.0657 33.7897 42.0232 33.8058C41.9856 33.8199 41.8928 33.8508 41.7615 33.8508V31.8508ZM40.1072 33.505V38.7394H42.1072V33.505H40.1072ZM40.1072 38.7394C40.1072 39.1116 40.2009 39.5745 40.5636 39.9372C40.9264 40.3 41.3892 40.3937 41.7615 40.3937V38.3937C41.6975 38.3937 41.8332 38.3784 41.9779 38.523C42.1225 38.6676 42.1072 38.8034 42.1072 38.7394H40.1072ZM41.4867 40.3552L46.0668 41.6638L46.6162 39.7408L42.0362 38.4322L41.4867 40.3552ZM45.3609 40.8984C45.6133 42.1602 46.1228 43.1678 46.8501 44.1376L48.4501 42.9375C47.8688 42.1625 47.5059 41.4253 47.3221 40.5062L45.3609 40.8984ZM46.7652 43.0718L44.5842 47.2157L46.3541 48.1471L48.535 44.0033L46.7652 43.0718ZM44.762 46.9743C44.4224 47.3139 44.2666 47.8029 44.3464 48.282C44.4315 48.7926 44.7655 49.211 45.24 49.4482L46.1344 47.6594C46.1728 47.6785 46.2886 47.7698 46.3192 47.9532C46.3445 48.1051 46.2977 48.267 46.1762 48.3885L44.762 46.9743ZM44.9801 49.2609L48.9059 53.1867L50.3201 51.7724L46.3943 47.8467L44.9801 49.2609ZM48.9059 53.1867C49.2366 53.5174 49.6519 53.618 49.8848 53.6568C50.1407 53.6994 50.3821 53.6977 50.4854 53.6977V51.6977C50.4299 51.6977 50.3827 51.6975 50.3331 51.6953C50.2838 51.693 50.2441 51.6891 50.2136 51.684C50.1814 51.6786 50.176 51.6747 50.1893 51.6801C50.2024 51.6855 50.2574 51.7097 50.3201 51.7724L48.9059 53.1867ZM50.9511 53.5826L55.095 51.4016L54.1635 49.6318L50.0196 51.8127L50.9511 53.5826ZM54.182 51.4111C55.0983 51.8692 56.2589 52.3365 57.222 52.5773L57.707 50.637C56.9254 50.4416 55.905 50.0365 55.0765 49.6222L54.182 51.4111ZM56.503 51.8819L57.8116 56.4619L59.7346 55.9125L58.426 51.3324L56.503 51.8819ZM57.7731 56.1872C57.7731 56.5259 57.9216 56.7902 57.9944 56.9078C58.0873 57.0579 58.2007 57.1926 58.3113 57.3032C58.422 57.4139 58.5567 57.5273 58.7068 57.6202C58.8244 57.693 59.0887 57.8415 59.4274 57.8415V55.8415C59.5587 55.8415 59.6515 55.8724 59.6891 55.8865C59.7316 55.9025 59.7554 55.9171 59.7595 55.9197C59.7665 55.924 59.7512 55.9147 59.7256 55.889C59.6999 55.8634 59.6906 55.8481 59.6949 55.8551C59.6975 55.8592 59.7121 55.883 59.7281 55.9255C59.7422 55.9631 59.7731 56.0559 59.7731 56.1872H57.7731ZM59.4274 57.8415H64.8798V55.8415H59.4274V57.8415ZM64.8798 57.8415C65.2521 57.8415 65.7149 57.7478 66.0777 57.385C66.4404 57.0223 66.5341 56.5595 66.5341 56.1872H64.5341C64.5341 56.2512 64.5188 56.1155 64.6635 55.9708C64.8081 55.8262 64.9438 55.8415 64.8798 55.8415V57.8415ZM66.4957 56.4619L67.8042 51.8819L65.8812 51.3324L64.5726 55.9125L66.4957 56.4619ZM67.0388 52.5877C68.2779 52.3399 69.2618 51.8428 70.1252 51.4111L69.2308 49.6222C68.3494 50.0629 67.5885 50.4382 66.6466 50.6266L67.0388 52.5877ZM69.2122 51.4016L73.3561 53.5826L74.2876 51.8127L70.1437 49.6318L69.2122 51.4016ZM73.1147 53.4048C73.4543 53.7444 73.9434 53.9002 74.4224 53.8204C74.933 53.7353 75.3514 53.4013 75.5887 52.9268L73.7998 52.0323C73.819 51.994 73.9102 51.8781 74.0936 51.8476C74.2455 51.8222 74.4074 51.869 74.5289 51.9905L73.1147 53.4048ZM75.4013 53.1867L79.3271 49.2609L77.9129 47.8467L73.9871 51.7724L75.4013 53.1867ZM79.3271 49.2609C79.6578 48.9302 79.7584 48.5149 79.7972 48.282C79.8399 48.0261 79.8381 47.7847 79.8381 47.6814H77.8381C77.8381 47.7369 77.838 47.7841 77.8357 47.8337C77.8335 47.8829 77.8295 47.9227 77.8244 47.9532C77.8191 47.9854 77.8151 47.9908 77.8205 47.9775C77.8259 47.9644 77.8502 47.9094 77.9129 47.8467L79.3271 49.2609ZM79.723 47.2157L77.542 43.0718L75.7722 44.0033L77.9532 48.1472L79.723 47.2157ZM77.5515 43.9848C77.7817 43.5244 78.0093 43.0118 78.2252 42.5261C78.4455 42.0304 78.6541 41.5615 78.8601 41.1495L77.0713 40.2551C76.8411 40.7154 76.6135 41.228 76.3976 41.7138C76.1773 42.2094 75.9687 42.6783 75.7627 43.0903L77.5515 43.9848ZM78.2404 41.6638L82.8205 40.3552L82.271 38.4322L77.691 39.7408L78.2404 41.6638ZM82.5457 40.3937C82.8844 40.3937 83.1487 40.2452 83.2663 40.1724C83.4165 40.0795 83.5511 39.9661 83.6618 39.8554C83.7725 39.7448 83.8858 39.6101 83.9787 39.46C84.0516 39.3424 84.2 39.0781 84.2 38.7394H82.2C82.2 38.6081 82.2309 38.5152 82.245 38.4777C82.261 38.4352 82.2757 38.4114 82.2782 38.4073C82.2826 38.4003 82.2732 38.4156 82.2476 38.4412C82.2219 38.4669 82.2066 38.4762 82.2136 38.4719C82.2177 38.4693 82.2415 38.4547 82.284 38.4387C82.3216 38.4246 82.4145 38.3937 82.5457 38.3937V40.3937ZM84.2 38.7394V33.0689H82.2V38.7394H84.2ZM84.2 33.0689C84.2 32.6966 84.1063 32.2338 83.7436 31.871C83.3808 31.5083 82.918 31.4146 82.5457 31.4146V33.4146C82.6097 33.4146 82.474 33.4299 82.3294 33.2853C82.1847 33.1406 82.2 33.0049 82.2 33.0689H84.2ZM82.8205 31.453L78.2404 30.1445L77.691 32.0675L82.271 33.3761L82.8205 31.453ZM78.9463 30.9099C78.6985 29.6708 78.2013 28.6869 77.7696 27.8235L75.9808 28.7179C76.4215 29.5993 76.7967 30.3602 76.9851 31.3021L78.9463 30.9099ZM77.7601 28.7365L79.9411 24.5926L78.1713 23.6611L75.9903 27.805L77.7601 28.7365ZM79.7633 24.834C80.1029 24.4944 80.2587 24.0053 80.1789 23.5263C80.0938 23.0157 79.7598 22.5973 79.2853 22.36L78.3909 24.1489C78.3525 24.1297 78.2367 24.0385 78.2061 23.8551C78.1808 23.7032 78.2276 23.5413 78.3491 23.4198L79.7633 24.834ZM79.5452 22.5474L75.6194 18.6216L74.2052 20.0358L78.131 23.9616L79.5452 22.5474ZM75.2286 18.38C74.8973 18.2696 74.5438 18.1651 74.1763 18.1651C73.7624 18.1651 73.4364 18.2943 73.1565 18.4343L74.051 20.2231C74.1336 20.1818 74.1708 20.1688 74.1843 20.1648C74.1895 20.1633 74.1891 20.1637 74.1848 20.1644C74.183 20.1646 74.181 20.1649 74.1792 20.165C74.1783 20.1651 74.1776 20.1651 74.177 20.1651C74.1765 20.1651 74.1762 20.1651 74.1762 20.1651C74.1763 20.1651 74.1766 20.1651 74.1774 20.1652C74.1781 20.1652 74.1793 20.1652 74.1809 20.1654C74.1841 20.1656 74.1893 20.166 74.1968 20.167C74.212 20.169 74.2356 20.1729 74.2703 20.1809C74.3433 20.1976 74.4443 20.2268 74.5961 20.2774L75.2286 18.38ZM73.138 18.4438L68.9941 20.6248L69.9256 22.3946L74.0695 20.2136L73.138 18.4438ZM69.9071 20.6153C68.9908 20.1571 67.8303 19.6898 66.8672 19.4491L66.3821 21.3893C67.1637 21.5848 68.1841 21.9898 69.0127 22.4041L69.9071 20.6153ZM67.5861 20.1445L66.2776 15.5644L64.3545 16.1139L65.6631 20.6939L67.5861 20.1445ZM66.316 15.8391C66.316 15.4827 66.1684 15.0592 65.8596 14.7504C65.6861 14.5769 65.4362 14.416 65.1124 14.362C64.7858 14.3076 64.4767 14.3774 64.2145 14.5085L65.1089 16.2974C65.0648 16.3194 64.9466 16.362 64.7836 16.3348C64.6234 16.3081 64.5097 16.229 64.4454 16.1646C64.3861 16.1054 64.3593 16.0513 64.3467 16.0197C64.3358 15.9924 64.316 15.9342 64.316 15.8391H66.316ZM63.0373 17.1722L64.1278 21.5342L66.068 21.0491L64.9776 16.6872L63.0373 17.1722ZM64.0979 21.2916C64.0979 21.7259 64.305 22.0765 64.5271 22.2986C64.7492 22.5208 65.0998 22.7278 65.5341 22.7278V20.7278C65.7503 20.7278 65.8828 20.8259 65.9413 20.8844C65.9999 20.943 66.0979 21.0755 66.0979 21.2916H64.0979ZM65.1627 22.6563C65.7254 22.8814 66.3408 23.1051 66.9371 23.3219C67.5403 23.5413 68.1245 23.7538 68.6523 23.9649L69.395 22.1079C68.8323 21.8829 68.217 21.6592 67.6206 21.4423C67.0174 21.223 66.4332 21.0105 65.9055 20.7994L65.1627 22.6563ZM68.3165 23.7435C68.5346 23.9616 68.883 24.2 69.3508 24.2C69.8186 24.2 70.167 23.9616 70.3851 23.7435L68.9708 22.3293C68.9731 22.327 69.004 22.2963 69.0672 22.2647C69.1349 22.2308 69.2326 22.2 69.3508 22.2C69.469 22.2 69.5667 22.2308 69.6344 22.2647C69.6976 22.2963 69.7285 22.327 69.7308 22.3293L68.3165 23.7435ZM70.1636 23.9106L74.0893 21.7296L73.1181 19.9813L69.1923 22.1623L70.1636 23.9106ZM72.8966 21.5626L75.95 24.6159L77.3642 23.2017L74.3108 20.1483L72.8966 21.5626ZM75.7829 23.4232L73.6019 27.3489L75.3503 28.3202L77.5312 24.3945L75.7829 23.4232ZM73.769 27.1275C73.5509 27.3455 73.3125 27.6939 73.3125 28.1617C73.3125 28.6295 73.5509 28.9779 73.769 29.196L75.1832 27.7818C75.1855 27.7841 75.2162 27.8149 75.2478 27.8781C75.2817 27.9458 75.3125 28.0435 75.3125 28.1617C75.3125 28.28 75.2817 28.3776 75.2478 28.4454C75.2163 28.5085 75.1855 28.5394 75.1832 28.5417L73.769 27.1275ZM73.6186 29.0034C74.2223 30.0095 74.6115 30.9932 74.8041 31.9564L76.7653 31.5642C76.5217 30.3465 76.0385 29.1492 75.3336 27.9744L73.6186 29.0034ZM74.7847 31.7603C74.7847 32.1946 74.9917 32.5452 75.2139 32.7673C75.436 32.9895 75.7866 33.1965 76.2209 33.1965V31.1965C76.4371 31.1965 76.5695 31.2945 76.6281 31.3531C76.6867 31.4117 76.7847 31.5442 76.7847 31.7603H74.7847ZM75.9335 33.1544L80.2955 34.4629L80.8702 32.5473L76.5082 31.2387L75.9335 33.1544ZM79.5828 33.5051V37.8671H81.5828V33.5051H79.5828ZM80.2955 36.9092L75.9335 38.2178L76.5082 40.1335L80.8702 38.8249L80.2955 36.9092ZM76.2209 38.1757C75.7866 38.1757 75.436 38.3827 75.2139 38.6049C74.9918 38.827 74.7847 39.1776 74.7847 39.6119H76.7847C76.7847 39.828 76.6867 39.9605 76.6281 40.0191C76.5695 40.0776 76.4371 40.1757 76.2209 40.1757V38.1757ZM74.8562 39.2405C74.3814 40.4274 73.995 41.6094 73.5817 42.4361L75.3705 43.3305C75.8296 42.4125 76.3155 40.9773 76.7132 39.9832L74.8562 39.2405ZM73.769 42.1762C73.5232 42.422 73.3125 42.7721 73.3125 43.2377C73.3125 43.6183 73.4587 43.957 73.5817 44.2029L75.3705 43.3085C75.3291 43.2257 75.3119 43.1803 75.3058 43.1613C75.2999 43.1428 75.3125 43.1737 75.3125 43.2377C75.3125 43.3111 75.2961 43.3957 75.2582 43.4761C75.2237 43.5494 75.1864 43.5872 75.1832 43.5904L73.769 42.1762ZM73.6019 44.2414L75.7829 48.1671L77.5312 47.1958L75.3503 43.2701L73.6019 44.2414ZM75.95 46.9744L72.8966 50.0277L74.3108 51.4419L77.3642 48.3886L75.95 46.9744ZM74.0893 49.8607L70.1636 47.6797L69.1923 49.428L73.1181 51.609L74.0893 49.8607ZM70.3851 47.8468C70.167 47.6287 69.8186 47.3903 69.3508 47.3903C68.883 47.3903 68.5346 47.6287 68.3165 47.8468L69.7308 49.261C69.7285 49.2633 69.6976 49.294 69.6344 49.3256C69.5667 49.3595 69.469 49.3903 69.3508 49.3903C69.2326 49.3903 69.1349 49.3595 69.0672 49.3256C69.004 49.294 68.9731 49.2633 68.9708 49.261L70.3851 47.8468ZM68.5092 47.6964C67.5128 48.2942 66.54 48.681 65.3697 48.876L65.6985 50.8488C67.1454 50.6077 68.3535 50.1221 69.5381 49.4114L68.5092 47.6964ZM65.5341 48.8624C65.0998 48.8624 64.7492 49.0695 64.5271 49.2916C64.305 49.5138 64.0979 49.8643 64.0979 50.2986H66.0979C66.0979 50.5148 65.9999 50.6473 65.9413 50.7059C65.8828 50.7644 65.7503 50.8624 65.5341 50.8624V48.8624ZM64.1401 50.0113L62.8315 54.3732L64.7471 54.9479L66.0557 50.586L64.1401 50.0113ZM63.7893 53.6606H59.4274V55.6606H63.7893V53.6606ZM60.3852 54.3732L59.0766 50.0113L57.1609 50.586L58.4695 54.9479L60.3852 54.3732ZM59.1188 50.2986C59.1188 49.8644 58.9117 49.5138 58.6896 49.2916C58.4674 49.0695 58.1169 48.8624 57.6826 48.8624V50.8624C57.4664 50.8624 57.3339 50.7644 57.2754 50.7059C57.2168 50.6473 57.1188 50.5148 57.1188 50.2986H59.1188ZM57.44 48.8923C57.2453 48.941 56.8971 48.9317 56.4432 48.7956C56.0057 48.6643 55.5672 48.4435 55.2292 48.1901L54.0292 49.7901C54.5636 50.1909 55.2156 50.5154 55.8685 50.7112C56.5051 50.9022 57.2475 51.002 57.9251 50.8326L57.44 48.8923ZM55.3363 48.2829C55.1183 48.0649 54.7699 47.8265 54.3021 47.8265C53.8343 47.8265 53.4859 48.0649 53.2678 48.283L54.682 49.6972C54.6797 49.6994 54.6489 49.7302 54.5857 49.7618C54.5179 49.7957 54.4203 49.8265 54.3021 49.8265C54.1838 49.8265 54.0862 49.7957 54.0184 49.7618C53.9552 49.7302 53.9244 49.6995 53.9221 49.6972L55.3363 48.2829ZM53.4893 48.1159L49.5635 50.2969L50.5348 52.0452L54.4606 49.8642L53.4893 48.1159ZM50.7563 50.4639L47.7029 47.4106L46.2887 48.8248L49.3421 51.8781L50.7563 50.4639ZM47.87 48.6033L50.0509 44.6776L48.3026 43.7063L46.1216 47.632L47.87 48.6033ZM49.8839 44.899C50.1296 44.6533 50.3403 44.3032 50.3403 43.8375C50.3403 43.4569 50.1941 43.1182 50.0712 42.8723L48.2823 43.7667C48.3238 43.8496 48.3409 43.8949 48.347 43.914C48.3529 43.9324 48.3403 43.9016 48.3403 43.8375C48.3403 43.7642 48.3568 43.6795 48.3946 43.5991C48.4291 43.5258 48.4665 43.488 48.4697 43.4848L49.8839 44.899ZM50.0343 42.805C49.4306 41.7989 49.0414 40.8152 48.8488 39.8519L46.8876 40.2442C47.1312 41.4619 47.6144 42.6591 48.3193 43.834L50.0343 42.805ZM48.8682 40.048C48.8682 39.6138 48.6611 39.2632 48.439 39.0411C48.2169 38.8189 47.8663 38.6119 47.432 38.6119V40.6119C47.2158 40.6119 47.0833 40.5138 47.0248 40.4553C46.9662 40.3967 46.8682 40.2642 46.8682 40.048H48.8682ZM47.7193 38.654L43.3574 37.3454L42.7827 39.2611L47.1446 40.5697L47.7193 38.654ZM44.07 38.3033V33.9413H42.07V38.3033H44.07ZM43.3574 34.8991L47.7193 33.5906L47.1446 31.6749L42.7827 32.9835L43.3574 34.8991ZM47.432 33.6327C47.8663 33.6327 48.2169 33.4257 48.439 33.2035C48.6611 32.9814 48.8682 32.6308 48.8682 32.1965H46.8682C46.8682 31.9803 46.9662 31.8479 47.0248 31.7893C47.0833 31.7307 47.2158 31.6327 47.432 31.6327V33.6327ZM48.7967 32.5679C49.2715 31.381 49.6578 30.199 50.0712 29.3723L48.2823 28.4778C47.8233 29.3959 47.3373 30.8311 46.9397 31.8251L48.7967 32.5679ZM49.8839 29.6322C50.1019 29.4141 50.3403 29.0657 50.3403 28.5979C50.3403 28.1301 50.1019 27.7817 49.8839 27.5637L48.4697 28.9779C48.4674 28.9756 48.4366 28.9448 48.405 28.8816C48.3711 28.8138 48.3403 28.7162 48.3403 28.5979C48.3403 28.4797 48.3711 28.382 48.405 28.3143C48.4366 28.2511 48.4674 28.2202 48.4697 28.218L49.8839 29.6322ZM50.0509 27.7851L47.87 23.8594L46.1216 24.8307L48.3026 28.7564L50.0509 27.7851ZM47.7029 25.0521L50.7563 21.9988L49.3421 20.5845L46.2887 23.6379L47.7029 25.0521ZM49.5635 22.1658L53.4893 24.3468L54.4606 22.5985L50.5348 20.4175L49.5635 22.1658ZM53.2678 24.1797C53.4859 24.3978 53.8343 24.6362 54.3021 24.6362C54.7699 24.6362 55.1183 24.3978 55.3363 24.1797L53.9221 22.7655C53.9244 22.7632 53.9552 22.7325 54.0184 22.7009C54.0862 22.667 54.1838 22.6362 54.3021 22.6362C54.4203 22.6362 54.5179 22.667 54.5857 22.7009C54.6489 22.7325 54.6797 22.7632 54.682 22.7655L53.2678 24.1797ZM55.1437 24.3301C56.14 23.7323 57.1129 23.3455 58.2832 23.1504L57.9544 21.1776C56.5075 21.4188 55.2994 21.9043 54.1147 22.6151L55.1437 24.3301ZM58.1188 23.164C58.5531 23.164 58.9036 22.957 59.1258 22.7348C59.3479 22.5127 59.555 22.1621 59.555 21.7278H57.555C57.555 21.5117 57.653 21.3792 57.7116 21.3206C57.7701 21.2621 57.9026 21.164 58.1188 21.164V23.164ZM59.5251 21.9704L60.6156 17.6084L58.6753 17.1233L57.5848 21.4853L59.5251 21.9704ZM59.745 18.3609L64.1069 17.9247L63.9079 15.9346L59.546 16.3708L59.745 18.3609ZM53.1931 35.904C53.1931 40.6002 57.1303 44.5375 61.8265 44.5375V42.5375C58.2349 42.5375 55.1931 39.4956 55.1931 35.904H53.1931ZM61.8265 44.5375C66.5226 44.5375 70.4599 40.6002 70.4599 35.904H68.4599C68.4599 39.4956 65.418 42.5375 61.8265 42.5375V44.5375ZM70.4599 35.904C70.4599 31.2079 66.5226 27.2706 61.8265 27.2706V29.2706C65.4181 29.2706 68.4599 32.3125 68.4599 35.904H70.4599ZM61.8265 27.2706C57.1303 27.2706 53.1931 31.2079 53.1931 35.904H55.1931C55.1931 32.3125 58.2349 29.2706 61.8265 29.2706V27.2706ZM66.9332 35.9041C66.9332 38.8182 64.5691 41.0108 61.8265 41.0108V43.0108C65.6268 43.0108 68.9332 39.9691 68.9332 35.9041H66.9332ZM61.8265 41.0108C58.9123 41.0108 56.7197 38.6467 56.7197 35.9041H54.7197C54.7197 39.7044 57.7615 43.0108 61.8265 43.0108V41.0108ZM56.7197 35.9041C56.7197 32.99 59.0839 30.7974 61.8265 30.7974V28.7974C58.0261 28.7974 54.7197 31.8391 54.7197 35.9041H56.7197ZM61.8265 30.7974C64.7406 30.7974 66.9332 33.1615 66.9332 35.9041H68.9332C68.9332 32.1038 65.8914 28.7974 61.8265 28.7974L61.8265 30.7974Z" fill="#FF5900"/>
<path fill-rule="evenodd" clip-rule="evenodd" d="M37.3719 54.45C36.9357 54.45 36.7176 54.8861 36.7176 55.1042L35.6271 58.8119C34.7547 59.03 34.1004 59.4662 33.228 59.9024L29.7385 57.9395C29.5204 57.7214 29.0842 57.9395 28.8661 58.1576L25.5946 61.4291C25.3765 61.6472 25.3765 62.0834 25.3765 62.3015L27.3394 65.791C26.9032 66.4453 26.6851 67.3177 26.2489 68.1901L22.5413 69.2806C22.3232 69.2806 21.887 69.7168 21.887 69.9349V74.733C21.887 75.1692 22.1051 75.3873 22.5413 75.3873L26.2489 76.4778C26.467 77.3502 26.9032 78.0045 27.1213 78.8769L25.1584 82.3664C24.9403 82.5845 24.9403 83.0207 25.3765 83.2388L28.648 86.5103C28.8661 86.7284 29.3023 86.7284 29.5204 86.7284L33.0099 84.7655C33.6642 85.2017 34.5366 85.4198 35.409 85.6379L36.4995 89.3456C36.4995 89.5636 36.9357 89.9998 37.1538 89.9998H41.9519C42.3881 89.9998 42.6062 89.7817 42.6062 89.3456L43.6967 85.6379C44.5691 85.4198 45.2234 84.9836 46.0958 84.7655L49.5854 86.7284C49.8035 86.9465 50.2397 86.9465 50.4578 86.5103L53.7292 83.2388C53.9473 83.0207 53.9473 82.5845 53.9473 82.3664L51.9844 78.8769C52.4206 78.2226 52.6387 77.3502 52.8568 76.4778L56.5645 75.3873C56.7826 75.3873 57.2188 74.9511 57.2188 74.733V69.9349C57.2188 69.4987 57.0007 69.2806 56.5645 69.2806L52.8568 68.1901C52.6387 67.3177 52.2025 66.6634 51.7663 65.791L53.7292 62.3015C53.9473 62.0834 53.9473 61.6472 53.5111 61.4291L50.2397 58.1576C50.0216 57.9395 49.5854 57.9395 49.3673 57.9395L45.8777 59.9024C45.2234 59.4662 44.351 59.2481 43.4786 58.8119L42.3881 55.1042C42.3881 54.8861 41.9519 54.45 41.7339 54.45H37.3719ZM37.8081 55.9767H41.5157L42.6062 59.4662C42.6062 59.6843 42.8243 59.9024 43.2605 59.9024C44.351 60.1205 45.2234 60.5567 46.0958 60.9929C46.3139 61.211 46.532 61.211 46.7501 60.9929L50.0215 59.2481L52.6387 61.8653L50.8939 65.1368C50.6758 65.3549 50.6758 65.573 50.8939 66.0092C51.3301 66.8816 51.7663 67.754 51.9844 68.8445C51.9844 69.0625 52.2025 69.2806 52.4206 69.2806L55.9102 70.3711V73.8607L52.4206 74.9512C52.2025 74.9512 51.9844 75.1693 51.9844 75.3874C51.7663 76.4779 51.3301 77.3503 50.8939 78.2227C50.6758 78.4407 50.6758 78.6588 50.8939 78.8769L52.6387 82.1484L50.2396 84.5475L46.9682 82.8027C46.7501 82.5846 46.532 82.8027 46.3139 82.8027C45.4415 83.2389 44.5691 83.6751 43.4786 83.8932C43.2605 83.8932 43.0424 84.1113 42.8243 84.3294L41.5157 88.2551H38.0262L36.9357 84.7656C36.9357 84.5475 36.7176 84.3294 36.2814 84.3294C35.1909 84.1113 34.3185 83.6751 33.4461 83.2389C33.228 83.0208 33.0099 83.0208 32.7918 83.2389L29.5204 84.9837L27.1213 82.3665L28.8661 79.095C29.0842 78.8769 29.0842 78.6588 28.8661 78.4407C28.4299 77.5683 27.9937 76.696 27.7756 75.6055C27.7756 75.3874 27.5575 75.1693 27.3394 75.1693L23.8498 74.0788V70.5892L27.3394 69.4987C27.5575 69.4987 27.7756 69.2806 27.7756 69.0625C27.9937 67.9721 28.4299 67.0997 28.8661 66.2273C29.0842 66.0092 29.0842 65.7911 28.8661 65.3549L27.1213 62.0834L29.7385 59.4662L33.0099 61.211C33.228 61.4291 33.4461 61.4291 33.6642 61.211C34.5366 60.7748 35.409 60.3386 36.4995 60.1205C36.7176 60.1205 36.9357 59.9024 37.1538 59.6843L37.8081 55.9767ZM39.7709 66.009C36.4995 66.009 33.6642 68.8443 33.6642 72.1158C33.6642 75.3872 36.4995 78.2225 39.7709 78.2225C43.0424 78.2225 45.8777 75.3872 45.8777 72.1158C45.8777 68.8443 43.0424 66.009 39.7709 66.009ZM39.771 67.5359C42.3882 67.5359 44.3511 69.4988 44.3511 72.1159C44.3511 74.7331 42.3882 76.696 39.771 76.696C37.1538 76.696 35.1909 74.7331 35.1909 72.1159C35.1909 69.4988 37.1538 67.5359 39.771 67.5359Z" fill="#FF5900"/>
<path d="M36.7176 55.1042L37.677 55.3864L37.7176 55.2483V55.1042H36.7176ZM35.6271 58.8119L35.8696 59.782L36.425 59.6432L36.5865 59.0941L35.6271 58.8119ZM33.228 59.9024L32.7378 60.774L33.2005 61.0342L33.6753 60.7968L33.228 59.9024ZM29.7385 57.9395L29.0314 58.6466L29.1285 58.7437L29.2482 58.8111L29.7385 57.9395ZM28.8661 58.1576L28.159 57.4505L28.159 57.4505L28.8661 58.1576ZM25.5946 61.4291L26.3017 62.1362L26.3017 62.1362L25.5946 61.4291ZM25.3765 62.3015H24.3765V62.5634L24.505 62.7917L25.3765 62.3015ZM27.3394 65.791L28.1715 66.3457L28.5117 65.8354L28.211 65.3008L27.3394 65.791ZM26.2489 68.1901L26.5311 69.1495L26.9487 69.0266L27.1433 68.6373L26.2489 68.1901ZM22.5413 69.2806V70.2806H22.6853L22.8234 70.2399L22.5413 69.2806ZM22.5413 75.3873L22.8234 74.4279L22.6853 74.3873H22.5413V75.3873ZM26.2489 76.4778L27.2191 76.2353L27.0802 75.6799L26.5311 75.5184L26.2489 76.4778ZM27.1213 78.8769L27.9929 79.3671L28.188 79.0203L28.0914 78.6343L27.1213 78.8769ZM25.1584 82.3664L25.8655 83.0735L25.9627 82.9764L26.03 82.8567L25.1584 82.3664ZM25.3765 83.2388L26.0836 82.5317L25.9689 82.417L25.8237 82.3444L25.3765 83.2388ZM28.648 86.5103L27.9409 87.2174L27.9409 87.2174L28.648 86.5103ZM29.5204 86.7284V87.7284H29.7823L30.0106 87.6L29.5204 86.7284ZM33.0099 84.7655L33.5646 83.9335L33.0543 83.5932L32.5197 83.8939L33.0099 84.7655ZM35.409 85.6379L36.3684 85.3557L36.2069 84.8066L35.6516 84.6678L35.409 85.6379ZM36.4995 89.3456H37.4995V89.2015L37.4589 89.0634L36.4995 89.3456ZM42.6062 89.3456L41.6469 89.0634L41.6062 89.2015V89.3456H42.6062ZM43.6967 85.6379L43.4542 84.6678L42.8989 84.8066L42.7374 85.3557L43.6967 85.6379ZM46.0958 84.7655L46.5861 83.8939L46.2393 83.6989L45.8533 83.7954L46.0958 84.7655ZM49.5854 86.7284L50.2925 86.0213L50.1953 85.9241L50.0756 85.8568L49.5854 86.7284ZM50.4578 86.5103L49.7506 85.8032L49.6359 85.9179L49.5633 86.0631L50.4578 86.5103ZM53.7292 83.2388L53.0221 82.5317L53.0221 82.5317L53.7292 83.2388ZM53.9473 82.3664H54.9473V82.1045L54.8189 81.8762L53.9473 82.3664ZM51.9844 78.8769L51.1524 78.3222L50.8122 78.8325L51.1129 79.3671L51.9844 78.8769ZM52.8568 76.4778L52.5747 75.5184L52.0255 75.6799L51.8867 76.2353L52.8568 76.4778ZM56.5645 75.3873V74.3873H56.4205L56.2823 74.4279L56.5645 75.3873ZM56.5645 69.2806L56.2823 70.2399L56.4205 70.2806H56.5645V69.2806ZM52.8568 68.1901L51.8867 68.4326L52.0255 68.9879L52.5747 69.1495L52.8568 68.1901ZM51.7663 65.791L50.8948 65.3008L50.6345 65.7634L50.8719 66.2382L51.7663 65.791ZM53.7292 62.3015L53.0221 61.5944L52.925 61.6915L52.8576 61.8112L53.7292 62.3015ZM53.5111 61.4291L52.804 62.1362L52.9188 62.2509L53.0639 62.3235L53.5111 61.4291ZM50.2397 58.1576L50.9468 57.4505L50.9468 57.4505L50.2397 58.1576ZM49.3673 57.9395V56.9395H49.1053L48.877 57.0679L49.3673 57.9395ZM45.8777 59.9024L45.323 60.7344L45.8334 61.0747L46.368 60.774L45.8777 59.9024ZM43.4786 58.8119L42.5193 59.0941L42.6421 59.5117L43.0314 59.7063L43.4786 58.8119ZM42.3881 55.1042H41.3881V55.2483L41.4288 55.3864L42.3881 55.1042ZM41.5157 55.9767L42.4702 55.6784L42.2509 54.9767H41.5157V55.9767ZM42.6062 59.4662H43.6062V59.3136L43.5607 59.168L42.6062 59.4662ZM43.2605 59.9024L43.4566 58.9219L43.3595 58.9024H43.2605V59.9024ZM46.0958 60.9929L46.8029 60.2858L46.6881 60.1711L46.543 60.0985L46.0958 60.9929ZM46.7501 60.9929L46.2795 60.1106L46.1482 60.1806L46.043 60.2858L46.7501 60.9929ZM50.0215 59.2481L50.7286 58.541L50.2047 58.0171L49.5509 58.3658L50.0215 59.2481ZM52.6387 61.8653L53.5211 62.3359L53.8697 61.6821L53.3458 61.1582L52.6387 61.8653ZM50.8939 65.1368L51.601 65.8439L51.7063 65.7387L51.7763 65.6074L50.8939 65.1368ZM50.8939 66.0092L51.7884 65.562L51.7884 65.562L50.8939 66.0092ZM51.9844 68.8445H52.9844V68.7454L52.965 68.6483L51.9844 68.8445ZM52.4206 69.2806L52.7189 68.3262L52.5732 68.2806H52.4206V69.2806ZM55.9102 70.3711H56.9102V69.6359L56.2085 69.4167L55.9102 70.3711ZM55.9102 73.8607L56.2085 74.8152L56.9102 74.5959V73.8607H55.9102ZM52.4206 74.9512V75.9512H52.5732L52.7189 75.9057L52.4206 74.9512ZM51.9844 75.3874L52.965 75.5835L52.9844 75.4864V75.3874H51.9844ZM50.8939 78.2227L51.601 78.9298L51.7158 78.815L51.7884 78.6699L50.8939 78.2227ZM50.8939 78.8769L51.7763 78.4064L51.7063 78.275L51.601 78.1698L50.8939 78.8769ZM52.6387 82.1484L53.3458 82.8555L53.8697 82.3316L53.5211 81.6778L52.6387 82.1484ZM50.2396 84.5475L49.769 85.4298L50.4228 85.7785L50.9467 85.2546L50.2396 84.5475ZM46.9682 82.8027L46.2611 83.5098L46.3663 83.615L46.4976 83.6851L46.9682 82.8027ZM46.3139 82.8027V81.8027H46.0778L45.8667 81.9083L46.3139 82.8027ZM43.4786 83.8932V84.8932H43.5776L43.6747 84.8738L43.4786 83.8932ZM42.8243 84.3294L42.1172 83.6223L41.9503 83.7892L41.8756 84.0132L42.8243 84.3294ZM41.5157 88.2551V89.2551H42.2365L42.4644 88.5714L41.5157 88.2551ZM38.0262 88.2551L37.0717 88.5534L37.291 89.2551H38.0262V88.2551ZM36.9357 84.7656H35.9357V84.9182L35.9812 85.0639L36.9357 84.7656ZM36.2814 84.3294L36.0853 85.31L36.1824 85.3294H36.2814V84.3294ZM33.4461 83.2389L32.739 83.946L32.8538 84.0607L32.9989 84.1333L33.4461 83.2389ZM32.7918 83.2389L33.2624 84.1212L33.3937 84.0512L33.4989 83.946L32.7918 83.2389ZM29.5204 84.9837L28.7832 85.6594L29.307 86.2308L29.991 85.866L29.5204 84.9837ZM27.1213 82.3665L26.2389 81.8959L25.9058 82.5205L26.3841 83.0422L27.1213 82.3665ZM28.8661 79.095L28.159 78.3879L28.0537 78.4931L27.9837 78.6244L28.8661 79.095ZM28.8661 78.4407L27.9716 78.888L28.0442 79.0331L28.159 79.1479L28.8661 78.4407ZM27.7756 75.6055H26.7756V75.7045L26.795 75.8016L27.7756 75.6055ZM27.3394 75.1693L27.0411 76.1238L27.1868 76.1693H27.3394V75.1693ZM23.8498 74.0788H22.8498V74.814L23.5515 75.0333L23.8498 74.0788ZM23.8498 70.5892L23.5515 69.6348L22.8498 69.854V70.5892H23.8498ZM27.3394 69.4987V68.4987H27.1868L27.0411 68.5443L27.3394 69.4987ZM27.7756 69.0625L26.795 68.8664L26.7756 68.9635V69.0625H27.7756ZM28.8661 66.2273L28.159 65.5202L28.0442 65.6349L27.9716 65.7801L28.8661 66.2273ZM28.8661 65.3549L29.7605 64.9077L29.7546 64.8959L29.7484 64.8843L28.8661 65.3549ZM27.1213 62.0834L26.4142 61.3763L25.8903 61.9002L26.2389 62.554L27.1213 62.0834ZM29.7385 59.4662L30.2091 58.5839L29.5553 58.2352L29.0314 58.7591L29.7385 59.4662ZM33.0099 61.211L33.717 60.5039L33.6118 60.3987L33.4805 60.3287L33.0099 61.211ZM33.6642 61.211L33.217 60.3166L33.0719 60.3892L32.9571 60.5039L33.6642 61.211ZM36.4995 60.1205V59.1205H36.4005L36.3034 59.14L36.4995 60.1205ZM37.1538 59.6843L37.8609 60.3914L38.0838 60.1685L38.1386 59.8581L37.1538 59.6843ZM37.3719 53.45C36.7821 53.45 36.3522 53.7558 36.1003 54.0706C35.8738 54.3538 35.7176 54.732 35.7176 55.1042H37.7176C37.7176 55.2005 37.6973 55.2547 37.693 55.266C37.6859 55.2846 37.6768 55.3016 37.662 55.32C37.6467 55.3392 37.6155 55.3718 37.5619 55.4008C37.5038 55.4323 37.4362 55.45 37.3719 55.45V53.45ZM35.7582 54.8221L34.6678 58.5297L36.5865 59.0941L37.677 55.3864L35.7582 54.8221ZM35.3846 57.8418C34.3702 58.0954 33.5223 58.6372 32.7808 59.008L33.6753 60.7968C34.6786 60.2952 35.1393 59.9646 35.8696 59.782L35.3846 57.8418ZM33.7183 59.0308L30.2287 57.0679L29.2482 58.8111L32.7378 60.774L33.7183 59.0308ZM30.4456 57.2324C29.9306 56.7174 29.2758 56.8397 28.9861 56.9363C28.6586 57.0455 28.3647 57.2448 28.159 57.4505L29.5732 58.8647C29.572 58.8659 29.582 58.8563 29.6006 58.8445C29.6195 58.8325 29.6275 58.8307 29.6185 58.8337C29.6144 58.835 29.5531 58.8562 29.4503 58.8468C29.3318 58.836 29.1683 58.7835 29.0314 58.6466L30.4456 57.2324ZM28.159 57.4505L24.8875 60.722L26.3017 62.1362L29.5732 58.8647L28.159 57.4505ZM24.8875 60.722C24.5568 61.0527 24.4562 61.4679 24.4174 61.7009C24.3747 61.9568 24.3765 62.1982 24.3765 62.3015H26.3765C26.3765 62.246 26.3767 62.1988 26.3789 62.1492C26.3811 62.0999 26.3851 62.0602 26.3902 62.0297C26.3956 61.9974 26.3995 61.9921 26.3941 62.0054C26.3887 62.0185 26.3645 62.0735 26.3017 62.1362L24.8875 60.722ZM24.505 62.7917L26.4678 66.2813L28.211 65.3008L26.2481 61.8112L24.505 62.7917ZM26.5074 65.2363C26.2256 65.6589 26.0294 66.1281 25.8657 66.5374C25.6916 66.9726 25.5486 67.3546 25.3545 67.7429L27.1433 68.6373C27.3854 68.1532 27.5696 67.6628 27.7226 67.2802C27.8861 66.8715 28.017 66.5774 28.1715 66.3457L26.5074 65.2363ZM25.9667 67.2307L22.2591 68.3212L22.8234 70.2399L26.5311 69.1495L25.9667 67.2307ZM22.5413 68.2806C22.2026 68.2806 21.9383 68.4291 21.8207 68.5019C21.6705 68.5948 21.5359 68.7081 21.4252 68.8188C21.3145 68.9295 21.2012 69.0641 21.1083 69.2143C21.0354 69.3319 20.887 69.5962 20.887 69.9349H22.887C22.887 70.0662 22.8561 70.159 22.842 70.1966C22.826 70.2391 22.8113 70.2629 22.8088 70.267C22.8044 70.274 22.8138 70.2587 22.8394 70.233C22.8651 70.2074 22.8804 70.1981 22.8734 70.2024C22.8693 70.2049 22.8455 70.2196 22.803 70.2356C22.7654 70.2497 22.6725 70.2806 22.5413 70.2806V68.2806ZM20.887 69.9349V74.733H22.887V69.9349H20.887ZM20.887 74.733C20.887 75.1053 20.9807 75.5681 21.3434 75.9309C21.7062 76.2936 22.169 76.3873 22.5413 76.3873V74.3873C22.4773 74.3873 22.613 74.372 22.7576 74.5166C22.9023 74.6613 22.887 74.797 22.887 74.733H20.887ZM22.2591 76.3467L25.9667 77.4372L26.5311 75.5184L22.8234 74.4279L22.2591 76.3467ZM25.2788 76.7203C25.4101 77.2456 25.6058 77.6976 25.766 78.0713C25.933 78.461 26.0644 78.7723 26.1512 79.1194L28.0914 78.6343C27.9601 78.1091 27.7644 77.657 27.6043 77.2834C27.4372 76.8937 27.3058 76.5824 27.2191 76.2353L25.2788 76.7203ZM26.2497 78.3866L24.2869 81.8762L26.03 82.8567L27.9929 79.3671L26.2497 78.3866ZM24.4513 81.6593C24.1117 81.9989 23.9559 82.488 24.0357 82.967C24.1208 83.4776 24.4548 83.896 24.9293 84.1332L25.8237 82.3444C25.8621 82.3636 25.9779 82.4548 26.0085 82.6382C26.0338 82.7901 25.987 82.952 25.8655 83.0735L24.4513 81.6593ZM24.6694 83.9459L27.9409 87.2174L29.3551 85.8032L26.0836 82.5317L24.6694 83.9459ZM27.9409 87.2174C28.2716 87.5481 28.6869 87.6487 28.9198 87.6875C29.1757 87.7302 29.4171 87.7284 29.5204 87.7284V85.7284C29.4649 85.7284 29.4177 85.7283 29.3681 85.726C29.3188 85.7238 29.2791 85.7198 29.2486 85.7147C29.2164 85.7094 29.211 85.7054 29.2243 85.7108C29.2374 85.7162 29.2924 85.7404 29.3551 85.8032L27.9409 87.2174ZM30.0106 87.6L33.5002 85.6371L32.5197 83.8939L29.0301 85.8568L30.0106 87.6ZM32.4552 85.5975C33.2823 86.1489 34.3411 86.4017 35.1665 86.608L35.6516 84.6678C34.7322 84.4379 34.0462 84.2545 33.5646 83.9335L32.4552 85.5975ZM34.4497 85.9201L35.5401 89.6277L37.4589 89.0634L36.3684 85.3557L34.4497 85.9201ZM35.4995 89.3456C35.4995 89.6842 35.648 89.9485 35.7208 90.0662C35.8138 90.2163 35.9271 90.3509 36.0378 90.4616C36.1484 90.5723 36.2831 90.6856 36.4332 90.7785C36.5508 90.8514 36.8151 90.9998 37.1538 90.9998V88.9998C37.2851 88.9998 37.378 89.0307 37.4155 89.0449C37.458 89.0609 37.4818 89.0755 37.4859 89.078C37.4929 89.0824 37.4776 89.073 37.452 89.0474C37.4263 89.0218 37.417 89.0064 37.4213 89.0134C37.4239 89.0175 37.4385 89.0413 37.4545 89.0838C37.4687 89.1214 37.4995 89.2143 37.4995 89.3456H35.4995ZM37.1538 90.9998H41.9519V88.9998H37.1538V90.9998ZM41.9519 90.9998C42.3242 90.9998 42.787 90.9061 43.1498 90.5434C43.5125 90.1806 43.6062 89.7178 43.6062 89.3456H41.6062C41.6062 89.4095 41.5909 89.2738 41.7356 89.1292C41.8802 88.9845 42.0159 88.9998 41.9519 88.9998V90.9998ZM43.5656 89.6277L44.6561 85.9201L42.7374 85.3557L41.6469 89.0634L43.5656 89.6277ZM43.9393 86.608C44.4645 86.4767 44.9166 86.281 45.2902 86.1208C45.6799 85.9538 45.9912 85.8224 46.3383 85.7356L45.8533 83.7954C45.328 83.9267 44.876 84.1224 44.5023 84.2826C44.1126 84.4496 43.8013 84.581 43.4542 84.6678L43.9393 86.608ZM45.6055 85.6371L49.0951 87.6L50.0756 85.8568L46.5861 83.8939L45.6055 85.6371ZM48.8783 87.4355C49.2179 87.7751 49.7069 87.9309 50.186 87.8511C50.6965 87.766 51.1149 87.4321 51.3522 86.9575L49.5633 86.0631C49.5825 86.0247 49.6738 85.9089 49.8572 85.8783C50.0091 85.853 50.171 85.8998 50.2925 86.0213L48.8783 87.4355ZM51.1649 87.2174L54.4363 83.9459L53.0221 82.5317L49.7506 85.8032L51.1649 87.2174ZM54.4363 83.9459C54.7671 83.6152 54.8676 83.2 54.9065 82.967C54.9491 82.7111 54.9473 82.4697 54.9473 82.3664H52.9473C52.9473 82.4219 52.9472 82.4691 52.9449 82.5187C52.9427 82.568 52.9387 82.6077 52.9337 82.6382C52.9283 82.6705 52.9243 82.6758 52.9298 82.6625C52.9351 82.6494 52.9594 82.5944 53.0221 82.5317L54.4363 83.9459ZM54.8189 81.8762L52.856 78.3866L51.1129 79.3671L53.0757 82.8567L54.8189 81.8762ZM52.8165 79.4316C53.3678 78.6045 53.6206 77.5457 53.827 76.7203L51.8867 76.2353C51.6568 77.1546 51.4734 77.8406 51.1524 78.3222L52.8165 79.4316ZM53.139 77.4372L56.8467 76.3467L56.2823 74.4279L52.5747 75.5184L53.139 77.4372ZM56.5645 76.3873C56.9032 76.3873 57.1674 76.2388 57.2851 76.166C57.4352 76.0731 57.5698 75.9597 57.6805 75.8491C57.7912 75.7384 57.9045 75.6038 57.9975 75.4536C58.0703 75.336 58.2188 75.0717 58.2188 74.733H56.2188C56.2188 74.6017 56.2496 74.5089 56.2638 74.4713C56.2798 74.4288 56.2944 74.405 56.297 74.4009C56.3013 74.3939 56.2919 74.4092 56.2663 74.4348C56.2407 74.4605 56.2254 74.4698 56.2324 74.4655C56.2365 74.463 56.2603 74.4483 56.3028 74.4323C56.3403 74.4182 56.4332 74.3873 56.5645 74.3873V76.3873ZM58.2188 74.733V69.9349H56.2188V74.733H58.2188ZM58.2188 69.9349C58.2188 69.5626 58.125 69.0998 57.7623 68.737C57.3996 68.3743 56.9367 68.2806 56.5645 68.2806V70.2806C56.6284 70.2806 56.4927 70.2959 56.3481 70.1513C56.2035 70.0066 56.2188 69.8709 56.2188 69.9349H58.2188ZM56.8467 68.3212L53.139 67.2307L52.5747 69.1495L56.2823 70.2399L56.8467 68.3212ZM53.827 67.9476C53.5734 66.9332 53.0315 66.0853 52.6608 65.3438L50.8719 66.2382C51.3736 67.2415 51.7041 67.7022 51.8867 68.4326L53.827 67.9476ZM52.6379 66.2813L54.6008 62.7917L52.8576 61.8112L50.8948 65.3008L52.6379 66.2813ZM54.4363 63.0086C54.7759 62.669 54.9318 62.1799 54.8519 61.7009C54.7668 61.1903 54.4329 60.7719 53.9583 60.5346L53.0639 62.3235C53.0256 62.3043 52.9097 62.2131 52.8791 62.0297C52.8538 61.8778 52.9006 61.7159 53.0221 61.5944L54.4363 63.0086ZM54.2182 60.722L50.9468 57.4505L49.5325 58.8647L52.804 62.1362L54.2182 60.722ZM50.9468 57.4505C50.616 57.1198 50.2008 57.0192 49.9679 56.9804C49.7119 56.9377 49.4705 56.9395 49.3673 56.9395V58.9395C49.4227 58.9395 49.47 58.9396 49.5195 58.9419C49.5688 58.9441 49.6085 58.9481 49.6391 58.9532C49.6713 58.9585 49.6766 58.9625 49.6634 58.9571C49.6502 58.9517 49.5953 58.9274 49.5326 58.8647L50.9468 57.4505ZM48.877 57.0679L45.3874 59.0308L46.368 60.774L49.8575 58.8111L48.877 57.0679ZM46.4324 59.0703C46.0098 58.7886 45.5406 58.5924 45.1313 58.4287C44.6961 58.2546 44.3141 58.1116 43.9258 57.9175L43.0314 59.7063C43.5155 59.9484 44.0059 60.1326 44.3886 60.2856C44.7972 60.4491 45.0913 60.58 45.323 60.7344L46.4324 59.0703ZM44.438 58.5297L43.3475 54.8221L41.4288 55.3864L42.5193 59.0941L44.438 58.5297ZM43.3881 55.1042C43.3881 54.7656 43.2397 54.5013 43.1668 54.3836C43.0739 54.2335 42.9606 54.0989 42.8499 53.9882C42.7392 53.8775 42.6046 53.7642 42.4544 53.6713C42.3368 53.5984 42.0725 53.45 41.7339 53.45V55.45C41.6026 55.45 41.5097 55.4191 41.4721 55.4049C41.4296 55.3889 41.4058 55.3743 41.4017 55.3718C41.3947 55.3674 41.41 55.3768 41.4357 55.4024C41.4613 55.428 41.4707 55.4434 41.4663 55.4364C41.4638 55.4323 41.4492 55.4085 41.4331 55.366C41.419 55.3284 41.3881 55.2355 41.3881 55.1042H43.3881ZM41.7339 53.45H37.3719V55.45H41.7339V53.45ZM37.8081 56.9767H41.5157V54.9767H37.8081V56.9767ZM40.5613 56.275L41.6517 59.7645L43.5607 59.168L42.4702 55.6784L40.5613 56.275ZM41.6062 59.4662C41.6062 60.4843 42.5576 60.9024 43.2605 60.9024V58.9024C43.2024 58.9024 43.2655 58.8879 43.3698 58.9661C43.4804 59.049 43.6062 59.2223 43.6062 59.4662H41.6062ZM43.0644 60.883C44.0063 61.0714 44.7672 61.4467 45.6486 61.8874L46.543 60.0985C45.6796 59.6668 44.6957 59.1697 43.4566 58.9219L43.0644 60.883ZM45.3887 61.7C45.6067 61.9181 45.9551 62.1565 46.4229 62.1565C46.8907 62.1565 47.2391 61.9181 47.4572 61.7L46.043 60.2858C46.0453 60.2835 46.0761 60.2528 46.1393 60.2212C46.2071 60.1873 46.3047 60.1565 46.4229 60.1565C46.5412 60.1565 46.6388 60.1873 46.7066 60.2212C46.7698 60.2528 46.8006 60.2835 46.8029 60.2858L45.3887 61.7ZM47.2207 61.8753L50.4921 60.1305L49.5509 58.3658L46.2795 60.1106L47.2207 61.8753ZM49.3144 59.9553L51.9316 62.5724L53.3458 61.1582L50.7286 58.541L49.3144 59.9553ZM51.7564 61.3947L50.0116 64.6662L51.7763 65.6074L53.5211 62.3359L51.7564 61.3947ZM50.1868 64.4297C49.9411 64.6754 49.7304 65.0255 49.7304 65.4912C49.7304 65.8718 49.8766 66.2105 49.9995 66.4564L51.7884 65.562C51.7469 65.4791 51.7298 65.4338 51.7237 65.4147C51.7178 65.3963 51.7304 65.4271 51.7304 65.4912C51.7304 65.5645 51.7139 65.6492 51.6761 65.7296C51.6416 65.8029 51.6042 65.8407 51.601 65.8439L50.1868 64.4297ZM49.9995 66.4564C50.4402 67.3378 50.8155 68.0987 51.0038 69.0406L52.965 68.6483C52.7172 67.4093 52.2201 66.4254 51.7884 65.562L49.9995 66.4564ZM50.9844 68.8445C50.9844 69.2787 51.1915 69.6293 51.4136 69.8514C51.6358 70.0736 51.9863 70.2806 52.4206 70.2806V68.2806C52.6368 68.2806 52.7693 68.3787 52.8278 68.4372C52.8864 68.4958 52.9844 68.6283 52.9844 68.8445H50.9844ZM52.1223 70.2351L55.6119 71.3256L56.2085 69.4167L52.7189 68.3262L52.1223 70.2351ZM54.9102 70.3711V73.8607H56.9102V70.3711H54.9102ZM55.6119 72.9062L52.1223 73.9967L52.7189 75.9057L56.2085 74.8152L55.6119 72.9062ZM52.4206 73.9512C51.9863 73.9512 51.6358 74.1583 51.4136 74.3804C51.1915 74.6025 50.9844 74.9531 50.9844 75.3874H52.9844C52.9844 75.6036 52.8864 75.736 52.8278 75.7946C52.7693 75.8532 52.6368 75.9512 52.4206 75.9512V73.9512ZM51.0038 75.1913C50.8155 76.1332 50.4402 76.8941 49.9995 77.7754L51.7884 78.6699C52.2201 77.8064 52.7172 76.8226 52.965 75.5835L51.0038 75.1913ZM50.1868 77.5155C49.9688 77.7336 49.7304 78.082 49.7304 78.5498C49.7304 79.0176 49.9688 79.366 50.1868 79.5841L51.601 78.1698C51.6033 78.1721 51.6341 78.2029 51.6657 78.2661C51.6996 78.3339 51.7304 78.4316 51.7304 78.5498C51.7304 78.668 51.6996 78.7657 51.6657 78.8334C51.6341 78.8966 51.6033 78.9275 51.601 78.9298L50.1868 77.5155ZM50.0116 79.3475L51.7564 82.619L53.5211 81.6778L51.7763 78.4064L50.0116 79.3475ZM51.9316 81.4413L49.5325 83.8404L50.9467 85.2546L53.3458 82.8555L51.9316 81.4413ZM50.7102 83.6651L47.4388 81.9203L46.4976 83.6851L49.769 85.4298L50.7102 83.6651ZM47.6753 82.0956C47.4935 81.9138 47.2617 81.779 46.9889 81.7278C46.7354 81.6803 46.522 81.7199 46.3985 81.7508C46.3357 81.7665 46.2812 81.784 46.2475 81.795C46.2012 81.8102 46.1985 81.8115 46.1792 81.8175C46.1481 81.8273 46.2118 81.8027 46.3139 81.8027V83.8027C46.4238 83.8027 46.5195 83.789 46.5947 83.7737C46.669 83.7587 46.7324 83.7401 46.7757 83.7265C46.8109 83.7155 46.8628 83.6981 46.871 83.6954C46.8918 83.6885 46.8918 83.689 46.8836 83.6911C46.8691 83.6947 46.7648 83.7206 46.6203 83.6936C46.5459 83.6796 46.4733 83.6539 46.4066 83.6175C46.3411 83.5817 46.2932 83.542 46.2611 83.5098L47.6753 82.0956ZM45.8667 81.9083C44.9853 82.349 44.2244 82.7242 43.2825 82.9126L43.6747 84.8738C44.9138 84.626 45.8977 84.1288 46.7611 83.6971L45.8667 81.9083ZM43.4786 82.8932C43.0433 82.8932 42.718 83.1046 42.5515 83.2295C42.3744 83.3623 42.2132 83.5263 42.1172 83.6223L43.5314 85.0365C43.5881 84.9798 43.6311 84.9369 43.6718 84.8987C43.7122 84.8609 43.7373 84.8402 43.7515 84.8295C43.7668 84.818 43.7538 84.8302 43.7159 84.8468C43.6757 84.8644 43.5929 84.8932 43.4786 84.8932V82.8932ZM41.8756 84.0132L40.5671 87.9389L42.4644 88.5714L43.773 84.6456L41.8756 84.0132ZM41.5157 87.2551H38.0262V89.2551H41.5157V87.2551ZM38.9807 87.9569L37.8902 84.4673L35.9812 85.0639L37.0717 88.5534L38.9807 87.9569ZM37.9357 84.7656C37.9357 83.7475 36.9843 83.3294 36.2814 83.3294V85.3294C36.3395 85.3294 36.2764 85.3439 36.1721 85.2657C36.0616 85.1828 35.9357 85.0095 35.9357 84.7656H37.9357ZM36.4775 83.3488C35.5356 83.1604 34.7747 82.7851 33.8933 82.3445L32.9989 84.1333C33.8623 84.565 34.8462 85.0622 36.0853 85.31L36.4775 83.3488ZM34.1532 82.5318C33.9352 82.3137 33.5868 82.0753 33.119 82.0753C32.6512 82.0753 32.3028 82.3137 32.0847 82.5318L33.4989 83.946C33.4966 83.9483 33.4658 83.979 33.4026 84.0106C33.3349 84.0445 33.2372 84.0753 33.119 84.0753C33.0007 84.0753 32.9031 84.0445 32.8353 84.0106C32.7721 83.979 32.7413 83.9483 32.739 83.946L34.1532 82.5318ZM32.3212 82.3565L29.0498 84.1013L29.991 85.866L33.2624 84.1212L32.3212 82.3565ZM30.2575 84.308L27.8584 81.6908L26.3841 83.0422L28.7832 85.6594L30.2575 84.308ZM28.0036 82.8371L29.7484 79.5656L27.9837 78.6244L26.2389 81.8959L28.0036 82.8371ZM29.5732 79.8021C29.7912 79.5841 30.0296 79.2357 30.0296 78.7679C30.0296 78.3001 29.7912 77.9517 29.5732 77.7336L28.159 79.1479C28.1567 79.1456 28.1259 79.1147 28.0943 79.0515C28.0604 78.9838 28.0296 78.8861 28.0296 78.7679C28.0296 78.6497 28.0604 78.552 28.0943 78.4842C28.1259 78.421 28.1567 78.3902 28.159 78.3879L29.5732 79.8021ZM29.7605 77.9935C29.3198 77.1122 28.9445 76.3513 28.7562 75.4094L26.795 75.8016C27.0428 77.0407 27.5399 78.0245 27.9716 78.888L29.7605 77.9935ZM28.7756 75.6055C28.7756 75.1712 28.5685 74.8206 28.3464 74.5985C28.1243 74.3764 27.7737 74.1693 27.3394 74.1693V76.1693C27.1232 76.1693 26.9907 76.0713 26.9322 76.0127C26.8736 75.9541 26.7756 75.8217 26.7756 75.6055H28.7756ZM27.6377 74.2148L24.1481 73.1243L23.5515 75.0333L27.0411 76.1238L27.6377 74.2148ZM24.8498 74.0788V70.5892H22.8498V74.0788H24.8498ZM24.1481 71.5437L27.6377 70.4532L27.0411 68.5443L23.5515 69.6348L24.1481 71.5437ZM27.3394 70.4987C27.7737 70.4987 28.1242 70.2917 28.3464 70.0695C28.5685 69.8474 28.7756 69.4968 28.7756 69.0625H26.7756C26.7756 68.8464 26.8736 68.7139 26.9322 68.6553C26.9907 68.5968 27.1232 68.4987 27.3394 68.4987V70.4987ZM28.7562 69.2587C28.9445 68.3168 29.3198 67.5558 29.7605 66.6745L27.9716 65.7801C27.5399 66.6435 27.0428 67.6273 26.795 68.8664L28.7562 69.2587ZM29.5732 66.9344C29.8189 66.6886 30.0296 66.3385 30.0296 65.8729C30.0296 65.4923 29.8834 65.1536 29.7605 64.9077L27.9716 65.8021C28.0131 65.8849 28.0302 65.9303 28.0363 65.9493C28.0422 65.9678 28.0296 65.9369 28.0296 65.8729C28.0296 65.7995 28.0461 65.7149 28.0839 65.6345C28.1184 65.5612 28.1558 65.5233 28.159 65.5202L29.5732 66.9344ZM29.7484 64.8843L28.0036 61.6128L26.2389 62.554L27.9837 65.8255L29.7484 64.8843ZM27.8284 62.7905L30.4456 60.1734L29.0314 58.7591L26.4142 61.3763L27.8284 62.7905ZM29.2679 60.3486L32.5393 62.0934L33.4805 60.3287L30.2091 58.5839L29.2679 60.3486ZM32.3028 61.9181C32.5209 62.1362 32.8693 62.3746 33.3371 62.3746C33.8049 62.3746 34.1533 62.1362 34.3713 61.9181L32.9571 60.5039C32.9594 60.5016 32.9902 60.4709 33.0534 60.4393C33.1212 60.4054 33.2188 60.3746 33.3371 60.3746C33.4553 60.3746 33.5529 60.4054 33.6207 60.4393C33.6839 60.4709 33.7147 60.5016 33.717 60.5039L32.3028 61.9181ZM34.1114 62.1055C34.9928 61.6648 35.7537 61.2895 36.6956 61.1011L36.3034 59.14C35.0643 59.3878 34.0804 59.8849 33.217 60.3166L34.1114 62.1055ZM36.4995 61.1205C36.9348 61.1205 37.2601 60.9091 37.4266 60.7842C37.6037 60.6515 37.7649 60.4874 37.8609 60.3914L36.4467 58.9772C36.39 59.0339 36.347 59.0768 36.3063 59.115C36.2659 59.1528 36.2408 59.1736 36.2266 59.1842C36.2113 59.1957 36.2243 59.1835 36.2622 59.1669C36.3024 59.1493 36.3852 59.1205 36.4995 59.1205V61.1205ZM38.1386 59.8581L38.7929 56.1505L36.8233 55.8029L36.169 59.5106L38.1386 59.8581ZM39.7709 65.009C35.9472 65.009 32.6642 68.292 32.6642 72.1158H34.6642C34.6642 69.3966 37.0518 67.009 39.7709 67.009V65.009ZM32.6642 72.1158C32.6642 75.9395 35.9472 79.2225 39.7709 79.2225V77.2225C37.0518 77.2225 34.6642 74.8349 34.6642 72.1158H32.6642ZM39.7709 79.2225C43.5947 79.2225 46.8777 75.9395 46.8777 72.1158H44.8777C44.8777 74.8349 42.4901 77.2225 39.7709 77.2225V79.2225ZM46.8777 72.1158C46.8777 68.292 43.5947 65.009 39.7709 65.009V67.009C42.4901 67.009 44.8777 69.3966 44.8777 72.1158H46.8777ZM39.771 68.5359C41.8359 68.5359 43.3511 70.0511 43.3511 72.1159H45.3511C45.3511 68.9465 42.9405 66.5359 39.771 66.5359V68.5359ZM43.3511 72.1159C43.3511 74.1808 41.8359 75.696 39.771 75.696V77.696C42.9405 77.696 45.3511 75.2854 45.3511 72.1159H43.3511ZM39.771 75.696C37.7061 75.696 36.1909 74.1808 36.1909 72.1159H34.1909C34.1909 75.2854 36.6015 77.696 39.771 77.696V75.696ZM36.1909 72.1159C36.1909 70.051 37.7061 68.5359 39.771 68.5359V66.5359C36.6015 66.5359 34.1909 68.9465 34.1909 72.1159H36.1909Z" fill="#FF5900"/>
<ellipse cx="40.0093" cy="72.0358" rx="5.45244" ry="5.45244" stroke="#2C007D" stroke-width="2"/>
<ellipse cx="61.7987" cy="35.9118" rx="6.76102" ry="6.76103" stroke="#2C007D" stroke-width="2"/>
<path d="M23.339 10.709L27.6523 3.39787C27.8577 3.04959 27.8606 2.61792 27.66 2.26689C27.4593 1.91585 27.0859 1.69933 26.6815 1.69959H12.6155C12.2108 1.69959 11.8373 1.91681 11.6371 2.26842C11.4368 2.62004 11.4406 3.05206 11.647 3.40012L15.9873 10.709" stroke="#20336B" stroke-width="3"/>
<path d="M24.1497 24.2233C26.0079 25.6625 33.1592 33.1854 33.1592 41.6543C33.1592 48.497 25.7692 51.2517 18.9265 51.2517C12.0838 51.2517 5.00464 48.497 5.00464 41.6543C5.00464 32.8476 12.3136 25.3359 14.0141 24.2233" stroke="#20336B" stroke-width="3"/>
<path d="M0.5 8.45683H5.00473C5.30875 8.43819 5.60615 8.55084 5.82153 8.76622C6.0369 8.98159 6.14955 9.279 6.13091 9.58301V23.0972C6.14955 23.4012 6.0369 23.6986 5.82153 23.914C5.60615 24.1294 5.30875 24.242 5.00473 24.2234H0.5" stroke="#20336B" stroke-width="3"/>
<path d="M13.192 6.00391L10.6356 9.58292C10.0842 10.2678 9.26201 10.6789 8.38323 10.7091H6.13086" stroke="#20336B" stroke-width="3"/>
<path d="M6.13086 20.8446C10.5568 23.0565 12.4803 24.2232 15.1403 24.2232H24.1498C26.4021 24.2232 26.8166 24.1083 27.5283 21.9708C28.6545 18.5923 29.7807 12.9614 29.7807 12.9614C29.7807 11.8352 28.6545 10.709 26.4021 10.709H15.9872" stroke="#20336B" stroke-width="3"/>
<path d="M12.9302 37.2776H25.2158" stroke="#00BAF2" stroke-width="2" stroke-linecap="square"/>
<path d="M12.9302 40.1442H25.2158" stroke="#00BAF2" stroke-width="2" stroke-linecap="square"/>
<path d="M22.7587 44.4445H21.5301L16.6159 32.9779H15.3105V44.4445" stroke="#00BAF2" stroke-width="2" stroke-linecap="square"/>
<path d="M22.8355 44.4444L22.9343 33.3873" stroke="#00BAF2" stroke-width="2" stroke-linecap="square"/>
</svg>
