<svg width="94" height="92" viewBox="0 0 94 92" fill="none" xmlns="http://www.w3.org/2000/svg">
<path fill-rule="evenodd" clip-rule="evenodd" d="M7.51867 15.9401V38.9748H2.81598V15.9401H7.51867ZM10.3347 13.1241H0V41.7908H10.3347V13.1241Z" fill="#2D017C"/>
<path d="M9.04004 17.9101H15.376C15.6858 17.9101 16.0237 17.7974 16.2771 17.6003L24.9504 10.6448C25.2883 10.3632 25.767 10.2506 26.1894 10.3914L35.2569 12.785C35.5948 12.8695 35.8764 13.0666 36.0735 13.3763L40.7762 20.36L36.0453 24.6403L31.399 20.9232C31.2018 20.7542 30.9202 20.7824 30.7231 20.9232L25.2319 25.6259C25.1193 25.7385 25.0348 25.8793 25.0348 26.0201C25.1193 27.4281 25.1193 34.637 18.4173 38.861C15.9392 37.4812 15.1507 37.1433 15.1507 37.1433H9.04004V17.9101V17.9101V17.9101Z" stroke="#FF5900" stroke-width="3"/>
<path d="M16.1917 38.9464C12.2493 47.873 13.7136 57.6163 19.5709 63.0512C24.4144 67.5568 30.8348 67.7539 32.7779 67.7257C34.1014 67.6976 41.5637 67.6131 46.4072 62.1782C52.5742 55.2791 50.3496 44.522 46.9986 38.6648C46.4354 37.651 45.8722 36.8907 45.4498 36.3557" stroke="#FF5900" stroke-width="3"/>
<path fill-rule="evenodd" clip-rule="evenodd" d="M43.2541 16.1364C44.2115 16.1364 44.9719 16.8967 44.9719 17.8541C44.9719 18.8116 44.2115 19.5719 43.2541 19.5719H37.1997C36.2423 19.5719 35.482 18.8116 35.482 17.8541C35.482 16.8967 36.2423 16.1364 37.1997 16.1364H43.2541ZM43.2541 13.3204H37.1997C34.6935 13.3204 32.666 15.3479 32.666 17.8541C32.666 20.3604 34.6935 22.3879 37.1997 22.3879H43.2541C45.7603 22.3879 47.7878 20.3604 47.7878 17.8541C47.7878 15.3761 45.7603 13.3204 43.2541 13.3204Z" fill="#FF5900"/>
<path fill-rule="evenodd" clip-rule="evenodd" d="M43.2541 21.7409C44.2115 21.7409 44.9719 22.5012 44.9719 23.4587C44.9719 24.4161 44.2115 25.1764 43.2541 25.1764H37.1997C36.2423 25.1764 35.482 24.4161 35.482 23.4587C35.482 22.5012 36.2423 21.7409 37.1997 21.7409H43.2541ZM43.2541 18.9249H37.1997C34.6935 18.9249 32.666 20.9524 32.666 23.4586C32.666 25.9649 34.6935 27.9924 37.1997 27.9924H43.2541C45.7603 27.9924 47.7878 25.9649 47.7878 23.4586C47.7878 20.9524 45.7603 18.9249 43.2541 18.9249Z" fill="#FF5900"/>
<path fill-rule="evenodd" clip-rule="evenodd" d="M43.2541 27.3436C44.2115 27.3436 44.9719 28.1039 44.9719 29.0613C44.9719 30.0188 44.2115 30.7791 43.2541 30.7791H37.1997C36.2423 30.7791 35.482 30.0188 35.482 29.0613C35.482 28.1039 36.2423 27.3436 37.1997 27.3436H43.2541ZM43.2541 24.5276H37.1997C34.6935 24.5276 32.666 26.5551 32.666 29.0613C32.666 31.5675 34.6935 33.5951 37.1997 33.5951H43.2541C45.7603 33.5951 47.7878 31.5675 47.7878 29.0613C47.7878 26.5551 45.7603 24.5276 43.2541 24.5276Z" fill="#FF5900"/>
<path fill-rule="evenodd" clip-rule="evenodd" d="M43.2541 32.9197C44.2115 32.9197 44.9719 33.6801 44.9719 34.6375C44.9719 35.5949 44.2115 36.3552 43.2541 36.3552H37.1997C36.2423 36.3552 35.482 35.5949 35.482 34.6375C35.482 33.6801 36.2423 32.9197 37.1997 32.9197H43.2541ZM43.2541 30.1038H37.1997C34.6935 30.1038 32.666 32.1313 32.666 34.6375C32.666 37.1437 34.6935 39.1712 37.1997 39.1712H43.2541C45.7603 39.1712 47.7878 37.1437 47.7878 34.6375C47.7878 32.1313 45.7603 30.1038 43.2541 30.1038Z" fill="#FF5900"/>
<path d="M22.134 11.687C21.9369 11.2364 21.7679 10.7577 21.6271 10.2508C21.0358 8.27964 20.9794 6.47742 21.0921 5.12574C20.9513 3.68959 22.1058 2.50688 23.4012 2.50688C24.6965 2.50688 25.7385 3.54879 25.7385 4.84415V4.90046C25.7385 5.9987 26.6396 6.92797 27.7378 6.95613C28.8924 6.98429 29.8216 6.05502 29.8216 4.90046V4.53438C29.8216 3.12639 30.948 2 32.356 2C33.764 2 34.8904 3.12639 34.8904 4.53438C34.8904 4.75966 34.8904 4.98494 34.8904 5.23838C34.8904 6.33662 35.7634 7.23773 36.7771 7.29405C37.9035 7.35037 38.9173 6.39294 38.8891 5.18206C38.8891 4.98494 38.8891 4.78782 38.8891 4.59071C38.8891 3.26719 39.9592 2.19712 41.2827 2.19712C42.6625 2.19712 43.4792 4.14015 43.6763 4.59071C45.2251 8.27964 41.6488 12.8134 41.0574 13.5455" stroke="#FF5900" stroke-width="3"/>
<path fill-rule="evenodd" clip-rule="evenodd" d="M90.224 72.9074V88.9303H85.5213V72.9074H90.224ZM93.0399 70.0914H82.7053V91.7463H93.0399V70.0914Z" fill="#FF5900"/>
<path d="M83.3808 76.0028L73.5248 75.5804C73.1869 75.5241 72.8208 75.4959 72.4829 75.4396C71.7789 75.3551 71.1031 75.2706 70.4273 75.1862C66.3722 73.2713 62.3172 71.3564 58.2622 69.4415C56.6852 68.7657 54.8267 69.4134 54.0101 70.9059C53.0245 72.7081 53.8693 74.9327 55.7841 75.6367L58.9662 76.7913L55.8686 79.0722H44.0696C42.8306 79.0722 41.6479 78.7061 40.606 78.0585L39.1417 77.1292C37.7055 76.1999 35.7906 76.735 35.0303 78.2837C34.3263 79.7199 34.9458 81.4658 36.4102 82.1416L43.4501 85.3237L54.9112 87.7455H77.7488C79.3821 87.3794 81.0154 87.0133 82.6486 86.6754" stroke="#2D017C" stroke-width="3"/>
<path d="M43.0849 78.1452C42.9159 77.5256 42.7751 76.878 42.6061 76.2584C42.2682 73.8085 43.817 72.0626 45.1124 72.0908C46.0698 72.0908 47.0836 73.0482 47.5341 74.3999C47.9284 75.5826 48.3507 76.7653 48.745 77.948" stroke="#2D017C" stroke-width="3"/>
<path d="M27.1657 49.091H41.7112" stroke="#2D017C" stroke-linecap="square"/>
<path d="M27.1657 52.0001H41.7112" stroke="#2D017C" stroke-linecap="square"/>
<path d="M38.8023 56.3635H37.3478L31.5296 44.7271H29.9841V56.3635" stroke="#2D017C" stroke-linecap="square"/>
<path d="M38.8932 56.3636V44.7273" stroke="#2D017C" stroke-linecap="square"/>
</svg>
