<svg width="34" height="24" viewBox="0 0 34 24" fill="none" xmlns="http://www.w3.org/2000/svg">
<path d="M0.0511838 9.9637C0.165132 10.4401 0.457734 10.8432 0.875164 11.0992L3.30187 12.588C3.58913 12.7646 3.91978 12.8579 4.25698 12.8577C4.67842 12.8577 5.08726 12.703 5.41765 12.4311L5.55737 12.5433C6.22445 13.0672 6.6688 13.8276 6.77702 14.6333C6.83542 15.0525 7.06447 15.443 7.42693 15.735L7.93311 16.1347L7.22594 17.0268C7.07725 17.2125 6.96705 17.426 6.90177 17.6548C6.83649 17.8835 6.81744 18.123 6.84573 18.3593C6.90242 18.838 7.14234 19.2645 7.51911 19.5589C7.80542 19.7868 8.14612 19.9139 8.50171 19.9402C8.46404 20.2447 8.50513 20.5537 8.62102 20.8377C8.73691 21.1217 8.92374 21.3712 9.16364 21.5624C9.34916 21.7113 9.56252 21.8216 9.79121 21.887C10.0199 21.9524 10.2594 21.9715 10.4955 21.9432C10.6312 21.9259 10.7646 21.8933 10.8929 21.8459C11.0034 22.1884 11.2133 22.4904 11.4959 22.7134C11.8263 22.9716 12.2202 23.097 12.6113 23.097C12.8421 23.0942 13.0702 23.0476 13.2835 22.9596C13.3883 23.2241 13.5555 23.4612 13.7874 23.6438C14.079 23.8734 14.439 23.9988 14.8101 24C15.2922 24 15.7687 23.7858 16.1002 23.3741L16.4781 22.892L16.6344 23.014C17.052 23.3541 17.5814 23.5265 18.1192 23.4973C18.3859 23.4814 18.6464 23.4099 18.8838 23.2875C19.1213 23.165 19.3305 22.9942 19.498 22.7861C19.7042 22.5238 19.829 22.2215 19.876 21.9066C20.2343 22.1002 20.6408 22.1865 21.0469 22.1551C21.5972 22.1115 22.0811 21.8585 22.4052 21.4467C22.6107 21.1914 22.7407 20.889 22.7888 20.5649C23.147 20.7565 23.5515 20.8447 23.9569 20.8197C24.5061 20.7762 24.9911 20.5254 25.3255 20.1091C25.5333 19.8446 25.6581 19.5394 25.7045 19.2233C26.063 19.4163 26.4655 19.5039 26.8652 19.4713C27.1323 19.4575 27.3934 19.387 27.631 19.2643C27.8687 19.1417 28.0775 18.9698 28.2435 18.7601C28.3975 18.5635 28.5107 18.3382 28.5765 18.0973C28.6423 17.8564 28.6593 17.6048 28.6265 17.3572C28.5518 16.7919 28.2559 16.2793 27.8037 15.932L25.7681 14.3201C26.2851 13.6771 26.9416 13.1601 27.688 12.8084L27.9892 12.6675C28.1788 12.8909 28.4147 13.073 28.6935 13.1863C28.9139 13.2761 29.1496 13.3224 29.3875 13.3226C29.6315 13.3226 29.8754 13.2739 30.1067 13.176L32.7075 12.0726C33.1569 11.8811 33.5121 11.5192 33.6951 11.0662C33.8781 10.6132 33.874 10.1062 33.6838 9.65621L30.1588 1.34597C29.9675 0.89663 29.6059 0.541442 29.1531 0.358231C28.7004 0.175021 28.1936 0.178726 27.7436 0.368535L25.1422 1.4708C24.2873 1.83326 23.855 2.76947 24.0886 3.64213C22.8801 4.12583 21.572 4.30801 20.2774 4.17293L16.8389 3.81792C16.2794 3.7609 15.7141 3.82196 15.1797 3.99714C14.6453 4.17231 14.1536 4.45771 13.7365 4.83486L13.4181 5.11945L13.244 5.13663C12.4091 5.20985 11.5712 5.03454 10.8357 4.63273L10.4566 4.42774L10.5482 4.27886C10.6748 4.07395 10.7594 3.84596 10.7973 3.6081C10.8351 3.37024 10.8254 3.12723 10.7687 2.89316C10.7132 2.65875 10.6118 2.43766 10.4704 2.24267C10.3289 2.04768 10.1503 1.88264 9.94468 1.7571L7.51969 0.269474C7.10528 0.0160986 6.60732 -0.0626542 6.13495 0.0504749C5.66258 0.163604 5.25432 0.459387 4.99965 0.873001L0.271065 8.57914C0.144748 8.78395 0.0602773 9.01176 0.0225363 9.24941C-0.0152048 9.48706 -0.005468 9.72984 0.0511838 9.9637ZM7.90792 18.2339C7.88501 18.0392 7.93998 17.8479 8.06481 17.6916L9.41673 15.9847C9.47399 15.9125 9.54385 15.8581 9.61886 15.814C9.63031 15.8077 9.64005 15.7997 9.6515 15.7934C9.73766 15.7495 9.83165 15.723 9.92807 15.7155C9.99163 15.7098 10.0558 15.7184 10.1187 15.7293C10.1462 15.7339 10.1737 15.735 10.2006 15.7424C10.2854 15.7676 10.3678 15.8054 10.4411 15.8627C10.6404 16.023 10.7435 16.2807 10.7103 16.5361C10.6965 16.6672 10.6454 16.7916 10.5631 16.8945L9.21002 18.6032C9.08978 18.7566 8.91799 18.8534 8.72502 18.8763C8.53034 18.8992 8.33909 18.8443 8.18105 18.7183C8.10557 18.6598 8.04254 18.5868 7.99564 18.5036C7.94874 18.4204 7.91891 18.3287 7.90792 18.2339ZM10.3696 20.8804C10.2257 20.8965 10.0804 20.8698 9.95168 20.8037C9.82298 20.7375 9.71667 20.6349 9.64605 20.5085C9.57544 20.3822 9.54367 20.2379 9.55472 20.0936C9.56578 19.9493 9.61916 19.8115 9.70819 19.6974L11.7467 17.1299C11.8669 16.9764 12.0387 16.8796 12.2317 16.8567C12.3061 16.8481 12.3783 16.8607 12.4504 16.8745C12.4779 16.8802 12.5065 16.8802 12.5334 16.8888C12.6193 16.9157 12.7012 16.9558 12.7751 17.0148C12.9709 17.1682 13.0723 17.4248 13.0385 17.683C13.0201 17.8222 12.9715 17.9413 12.8919 18.0415L10.8545 20.6067C10.7343 20.7608 10.5625 20.8575 10.3696 20.8804ZM12.1578 21.8728C12.0819 21.8131 12.0187 21.739 11.9716 21.6548C11.9245 21.5705 11.8946 21.4778 11.8835 21.3819C11.8724 21.2861 11.8804 21.189 11.9071 21.0962C11.9337 21.0035 11.9784 20.9169 12.0387 20.8415L13.3769 19.1449L13.378 19.1437L13.3792 19.142L13.3797 19.1414L13.3786 19.1432L13.378 19.1437C13.378 19.1426 13.3797 19.142 13.3803 19.1409L13.3832 19.138C13.3943 19.1274 13.405 19.1163 13.4152 19.1048C13.487 19.0228 13.5762 18.9579 13.6762 18.9148C13.7762 18.8716 13.8846 18.8513 13.9935 18.8553C14.1024 18.8593 14.209 18.8875 14.3056 18.9379C14.4022 18.9883 14.4863 19.0596 14.5519 19.1466C14.6672 19.2994 14.7172 19.4917 14.691 19.6814C14.6738 19.8097 14.6223 19.9322 14.5364 20.0393L14.2455 20.4098C14.2304 20.4253 14.2161 20.4415 14.2026 20.4584L13.1845 21.7525C13.0634 21.9033 12.8878 22.0003 12.6958 22.0228C12.5037 22.0453 12.3105 21.9914 12.1578 21.8728ZM14.4471 22.8015C14.3878 22.755 14.3384 22.6971 14.3018 22.6312C14.2652 22.5653 14.2422 22.4928 14.2341 22.4179C14.2255 22.3428 14.2321 22.2667 14.2535 22.1942C14.275 22.1217 14.3108 22.0542 14.3589 21.9959C14.3589 21.9959 15.0472 21.1198 15.0563 21.1101C15.1524 20.9942 15.2903 20.9209 15.4401 20.9061C15.5898 20.8913 15.7394 20.9362 15.8563 21.031C16.012 21.1541 16.0928 21.3551 16.0664 21.5555C16.0549 21.6496 16.0178 21.7387 15.9593 21.8132L15.2613 22.7082C15.0598 22.9601 14.7002 23.0002 14.4471 22.8015ZM25.5591 2.45569L28.1604 1.35342C28.2538 1.31365 28.3541 1.29271 28.4556 1.2918C28.5571 1.29089 28.6577 1.31003 28.7518 1.34813C28.8458 1.38622 28.9314 1.44251 29.0037 1.51378C29.0759 1.58504 29.1334 1.66987 29.1728 1.7634L32.6978 10.0748C32.7773 10.2632 32.779 10.4755 32.7024 10.6651C32.6257 10.8548 32.4771 11.0063 32.2889 11.0866L29.6887 12.1906C29.498 12.2713 29.2879 12.273 29.0961 12.1951C29.0015 12.1569 28.9155 12.1003 28.8431 12.0285C28.7706 11.9568 28.7132 11.8713 28.6741 11.7771L25.1491 3.46691C25.0698 3.27833 25.0685 3.06601 25.1454 2.87647C25.2224 2.68692 25.3708 2.53561 25.5591 2.45569ZM16.7295 4.88239L20.1668 5.23741C21.6325 5.38849 23.1129 5.183 24.482 4.63846L27.4876 11.7205L27.2317 11.8407C26.3362 12.2622 25.5486 12.8822 24.9286 13.6536L17.4762 7.75401C17.3844 7.68343 17.2876 7.6197 17.1864 7.56333C17.1504 7.54215 17.1131 7.5244 17.0759 7.5055C17.0105 7.47262 16.9437 7.44282 16.8755 7.41617C16.832 7.399 16.7896 7.38182 16.7461 7.3675C16.6475 7.33534 16.5469 7.3097 16.4449 7.29077C16.4025 7.28276 16.359 7.28047 16.3166 7.27474C16.2458 7.26555 16.1745 7.25962 16.1031 7.25699C16.079 7.25642 16.0555 7.25126 16.0315 7.25126C16.0057 7.25126 15.9799 7.25584 15.9542 7.25699C15.8969 7.25871 15.8397 7.26386 15.7824 7.27016C15.7343 7.27531 15.6868 7.27932 15.6387 7.28734C15.563 7.30112 15.4881 7.31871 15.4142 7.34002C15.3873 7.34746 15.3598 7.3509 15.3335 7.35891C14.9654 7.47288 14.6365 7.68766 14.3842 7.97892C14.132 8.27018 13.9663 8.62628 13.906 9.00688L13.7485 10.0003C13.6966 10.3377 13.5591 10.6561 13.3489 10.9251C13.1388 11.1941 12.8631 11.4047 12.5483 11.5366C12.4169 11.5931 12.2799 11.6353 12.1395 11.6626L12.1177 11.4994L11.8618 9.556C11.8038 9.12146 11.8521 8.67935 12.0025 8.26756C12.1528 7.85577 12.4009 7.4866 12.7253 7.19171L14.0033 6.0339L14.0262 6.01214L14.4545 5.6285C14.7605 5.35145 15.1213 5.14184 15.5135 5.0133C15.9057 4.88476 16.3206 4.84016 16.7312 4.88239H16.7295ZM10.3237 5.57181C10.9176 5.8977 11.569 6.10519 12.242 6.18278L12.0026 6.39865C11.3022 7.0353 10.8672 7.91229 10.7841 8.85513C10.7589 9.13342 10.7612 9.41629 10.7996 9.69858L11.0406 11.5195L11.0962 11.9421C11.1053 12.005 11.1208 12.0663 11.142 12.1253C11.1471 12.1407 11.1557 12.1539 11.1615 12.1682C11.1786 12.2089 11.1947 12.2495 11.217 12.2873C11.4037 12.6086 11.7667 12.8038 12.1475 12.7477C12.4311 12.7083 12.7077 12.6291 12.9692 12.5124C13.4429 12.3166 13.8593 12.0037 14.1791 11.6031C14.2553 11.5057 14.324 11.4027 14.3881 11.2973L14.3996 11.2801C14.604 10.9389 14.7431 10.5626 14.8072 10.1733L14.967 9.17236C14.9966 8.98965 15.0765 8.81882 15.1979 8.67911C15.3193 8.5394 15.4773 8.43636 15.6541 8.38159C15.8545 8.3186 16.0607 8.306 16.2588 8.34265C16.4575 8.3793 16.6476 8.46404 16.8119 8.59403L27.1452 16.7754C27.3782 16.9552 27.5311 17.2146 27.5643 17.4872C27.5796 17.5941 27.5733 17.703 27.546 17.8075C27.5187 17.912 27.4708 18.0101 27.4052 18.0959C27.254 18.2842 27.0513 18.3879 26.7919 18.4033C26.5196 18.4219 26.2504 18.3368 26.0383 18.1651L21.3968 14.4919C21.3417 14.4483 21.2785 14.4159 21.2109 14.3967C21.1433 14.3775 21.0726 14.3718 21.0027 14.38C20.9329 14.3881 20.8654 14.4099 20.804 14.4441C20.7426 14.4784 20.6886 14.5244 20.645 14.5795C20.6014 14.6346 20.569 14.6978 20.5498 14.7654C20.5306 14.833 20.5249 14.9037 20.5331 14.9735C20.5412 15.0434 20.563 15.1109 20.5972 15.1723C20.6315 15.2337 20.6775 15.2877 20.7326 15.3313L24.2341 18.1022H24.2352C24.6784 18.456 24.7912 19.0578 24.4883 19.4426C24.4139 19.5327 24.3217 19.6066 24.2177 19.6598C24.1136 19.713 23.9997 19.7443 23.8831 19.7518C23.6068 19.7657 23.3351 19.6779 23.1192 19.505L19.6194 16.7382C19.5643 16.6946 19.5011 16.6623 19.4335 16.6431C19.3659 16.6239 19.2952 16.6182 19.2254 16.6263C19.0844 16.6427 18.9557 16.7145 18.8676 16.8258C18.7795 16.9371 18.7393 17.0789 18.7557 17.2199C18.7721 17.3609 18.8439 17.4896 18.9552 17.5776L21.3006 19.4335C21.3058 19.438 21.308 19.4449 21.3132 19.4484C21.5491 19.635 21.7026 19.9007 21.7341 20.1784C21.7593 20.4029 21.7014 20.6148 21.568 20.7808C21.3882 21.0099 21.1397 21.0746 20.9633 21.0877C20.6911 21.1077 20.4216 21.0224 20.2104 20.8495L17.8466 18.9794C17.7915 18.9358 17.7284 18.9034 17.6607 18.8842C17.5931 18.865 17.5224 18.8593 17.4526 18.8675C17.3828 18.8756 17.3152 18.8974 17.2539 18.9317C17.1925 18.9659 17.1384 19.0119 17.0948 19.067C17.0512 19.1221 17.0189 19.1853 16.9997 19.2529C16.9805 19.3205 16.9748 19.3912 16.9829 19.4611C16.991 19.5309 17.0128 19.5984 17.0471 19.6598C17.0813 19.7212 17.1273 19.7752 17.1824 19.8188L18.4026 20.7842C18.4038 20.7848 18.4049 20.7848 18.4055 20.786C18.8487 21.1381 18.9621 21.7376 18.6609 22.1201C18.5143 22.3022 18.2944 22.415 18.0539 22.4293C17.7922 22.45 17.526 22.3578 17.2992 22.1757L17.0622 21.9902C17.1657 21.6707 17.1693 21.3273 17.0724 21.0058C16.9755 20.6843 16.7827 20.4 16.5199 20.191C16.4169 20.1113 16.3049 20.044 16.1861 19.9906C16.1517 19.9752 16.1174 19.9631 16.083 19.95C15.9957 19.9165 15.9056 19.8907 15.8139 19.8727C15.7921 19.8681 15.7709 19.8572 15.7486 19.8538L15.7532 19.8205C15.7926 19.5108 15.7515 19.1961 15.6338 18.9068C15.5162 18.6175 15.326 18.3635 15.0815 18.1691C14.9985 18.1049 14.91 18.0479 14.817 17.9991C14.7884 17.9842 14.7597 17.9722 14.7311 17.959C14.5684 17.8825 14.395 17.8309 14.2169 17.8061C14.19 17.8021 14.1631 17.7964 14.1362 17.7941C14.1258 17.7929 14.115 17.7901 14.1047 17.7895C14.1087 17.7552 14.1075 17.7208 14.1098 17.6859C14.1115 17.6475 14.1155 17.6091 14.1155 17.5714C14.115 17.5295 14.1098 17.4889 14.107 17.4477C14.1047 17.4116 14.1035 17.3755 14.0989 17.34C14.0932 17.2971 14.0829 17.2553 14.0737 17.2129C14.0669 17.1803 14.0623 17.147 14.0537 17.1156C14.0422 17.0709 14.0256 17.0285 14.0108 16.985C14.001 16.9564 13.993 16.9266 13.9816 16.8991C13.9632 16.8539 13.9409 16.8115 13.9191 16.7686C13.9065 16.7439 13.8962 16.7176 13.8825 16.6935C13.8579 16.6495 13.8287 16.6077 13.8 16.5664C13.7857 16.5452 13.7737 16.5229 13.7582 16.5023C13.725 16.4576 13.6878 16.4164 13.6506 16.3752C13.6368 16.3603 13.6248 16.3431 13.6105 16.3282C13.5567 16.2733 13.4994 16.222 13.4387 16.1748C13.2533 16.0259 13.0401 15.9155 12.8115 15.85C12.5829 15.7845 12.3435 15.7653 12.1074 15.7934C11.9782 15.8096 11.8511 15.8398 11.7283 15.8833C11.7198 15.8862 11.7094 15.8867 11.7003 15.8896C11.6946 15.8713 11.6854 15.8535 11.6785 15.8352C11.6335 15.7089 11.5747 15.5879 11.5033 15.4745C11.4861 15.4476 11.469 15.4195 11.4506 15.3932C11.4176 15.3473 11.3824 15.3029 11.3453 15.2603C11.3275 15.2397 11.3109 15.2179 11.2926 15.1973C11.2353 15.1361 11.1735 15.0771 11.1071 15.0238C11.0117 14.9492 10.9091 14.8844 10.8007 14.8303C10.7526 14.8062 10.7017 14.7931 10.6518 14.773C10.5923 14.7501 10.5333 14.7215 10.472 14.7043C10.4091 14.6871 10.3438 14.6814 10.2797 14.6711C10.2298 14.6631 10.1812 14.6493 10.1308 14.6459C10.0626 14.6402 9.99449 14.6459 9.92635 14.6488C9.88054 14.6505 9.83359 14.6465 9.78778 14.6516C9.7225 14.6591 9.65952 14.6768 9.59481 14.6917C9.54729 14.702 9.49862 14.7077 9.45166 14.7221C9.3944 14.7398 9.34 14.7679 9.28389 14.7913C9.2335 14.8125 9.18082 14.8297 9.13272 14.8555C9.08405 14.8818 9.0411 14.9167 8.99415 14.9471C8.94319 14.9815 8.88994 15.0118 8.84241 15.0513C8.80233 15.0845 8.76797 15.1257 8.73075 15.163C8.68609 15.2071 8.63856 15.2466 8.59848 15.2958L8.09459 14.8984C7.94972 14.7816 7.85867 14.635 7.83806 14.4884C7.69319 13.4119 7.1034 12.3956 6.22331 11.705L6.0687 11.5819L9.89658 5.34105L10.3237 5.57181ZM1.1838 9.13915L5.91181 1.43358C6.01757 1.26144 6.1873 1.1383 6.38375 1.09117C6.58021 1.04404 6.78734 1.07678 6.95968 1.18221L9.38524 2.66984C9.55874 2.77634 9.68071 2.94412 9.72766 3.14224C9.77518 3.34036 9.74255 3.54536 9.63604 3.71885L9.24896 4.34929L4.90746 11.4227C4.90574 11.4261 4.90574 11.4296 4.90345 11.433C4.79667 11.6023 4.62747 11.7228 4.4325 11.7682C4.23754 11.8137 4.03253 11.7805 3.86188 11.6758L1.4346 10.187C1.26256 10.0812 1.13953 9.91139 1.09251 9.71494C1.04549 9.5185 1.07832 9.31142 1.1838 9.13915Z" fill="#FF5900"/>
</svg>
