<svg width="19" height="28" viewBox="0 0 19 28" fill="none" xmlns="http://www.w3.org/2000/svg">
<path d="M18.5605 16.3478V25.0166C18.5595 25.2289 18.4915 25.4354 18.3664 25.6069L17.978 26.1118C17.8528 26.2833 17.7848 26.4899 17.7838 26.7022V27.0129C17.7838 27.1424 17.7583 27.2707 17.7087 27.3904C17.6591 27.5101 17.5864 27.6188 17.4948 27.7104C17.4032 27.802 17.2945 27.8747 17.1748 27.9243C17.0551 27.9739 16.9268 27.9994 16.7973 27.9994H9.16163C8.91049 27.9978 8.66942 27.9005 8.48755 27.7273C8.30569 27.5541 8.19674 27.318 8.1829 27.0673C8.12076 26.073 7.86442 24.8768 6.87792 24.4107C6.77796 24.3721 6.6736 24.346 6.56722 24.333C5.67393 24.1544 2.63676 22.5931 1.12983 22.2513C0.826756 22.2093 0.548276 22.0615 0.343596 21.8341C0.138916 21.6067 0.0212104 21.3143 0.0112789 21.0084C0.0112789 21.0084 -0.322732 19.183 2.64453 19.7423C3.02515 19.8122 4.70297 20.0686 4.70297 20.0686C6.13223 20.4647 6.13223 16.8372 6.13223 16.8372V11.6872C6.12996 11.3567 6.23641 11.0347 6.43517 10.7706C6.48276 10.7075 6.53467 10.6479 6.59052 10.592C6.74863 10.4371 6.93798 10.3179 7.14591 10.2422C7.35384 10.1665 7.57554 10.1361 7.79618 10.153C8.01681 10.1699 8.23129 10.2338 8.42525 10.3403C8.61921 10.4468 8.78817 10.5935 8.92083 10.7706C9.12514 11.0327 9.23711 11.3549 9.23931 11.6872V14.7943H17.007C17.419 14.7943 17.8142 14.958 18.1055 15.2493C18.3969 15.5407 18.5605 15.9358 18.5605 16.3478Z" fill="black"/>
<path d="M11.1103 1.96231C11.0583 2.05426 10.9881 2.13465 10.904 2.19856C10.8199 2.26247 10.7237 2.30856 10.6212 2.334C10.5187 2.35945 10.412 2.36372 10.3078 2.34656C10.2036 2.32939 10.104 2.29115 10.015 2.23418C9.03806 1.66495 7.88748 1.47031 6.77764 1.6865C5.6678 1.90269 4.6744 2.51498 3.98252 3.40929C3.29064 4.3036 2.94747 5.41894 3.01695 6.5475C3.08642 7.67607 3.5638 8.74089 4.36015 9.54358C4.55145 9.7405 4.76227 9.91747 4.98933 10.0718C4.70349 10.5399 4.55044 11.0769 4.54657 11.6253C4.0744 11.3559 3.64068 11.0241 3.25714 10.6388C2.17312 9.56985 1.51924 8.14011 1.41958 6.62093C1.31993 5.10176 1.78143 3.59886 2.71652 2.39743C3.65161 1.19599 4.9952 0.379635 6.49235 0.103263C7.98949 -0.173108 9.53601 0.109741 10.8384 0.898134C11.0156 1.00322 11.1437 1.17437 11.1947 1.37393C11.2457 1.57349 11.2153 1.78513 11.1103 1.96231Z" fill="#FFC000"/>
<path d="M12.0838 10.6478C11.7002 11.033 11.2665 11.3649 10.7943 11.6343C10.7905 11.0858 10.6374 10.5488 10.3516 10.0807C10.5786 9.92642 10.7894 9.74945 10.9807 9.55253C11.4556 9.08141 11.8235 8.51359 12.0594 7.88766C12.2953 7.26173 12.3936 6.59235 12.3479 5.92502C12.3351 5.72018 12.4039 5.5186 12.5392 5.36432C12.6746 5.21005 12.8655 5.11561 13.0703 5.10164C13.1723 5.09425 13.2748 5.10709 13.3719 5.13943C13.469 5.17177 13.5587 5.22298 13.636 5.29011C13.7132 5.35723 13.7764 5.43896 13.822 5.53059C13.8675 5.62222 13.8945 5.72194 13.9014 5.82404C13.9577 6.71098 13.8247 7.59975 13.5114 8.43139C13.198 9.26303 12.7114 10.0185 12.0838 10.6478Z" fill="#FFC000"/>
<path d="M7.79396 8.23052C7.69173 8.23111 7.59039 8.21152 7.49575 8.17286C7.40111 8.13421 7.31503 8.07725 7.24245 8.00526L4.91214 5.67495C4.83083 5.60531 4.76479 5.51962 4.71816 5.42325C4.67154 5.32688 4.64534 5.22191 4.6412 5.11494C4.63707 5.00796 4.6551 4.90129 4.69415 4.80161C4.7332 4.70193 4.79244 4.6114 4.86814 4.5357C4.94384 4.46 5.03437 4.40076 5.13405 4.36171C5.23372 4.32266 5.3404 4.30463 5.44738 4.30877C5.55435 4.3129 5.65932 4.3391 5.75569 4.38572C5.85206 4.43235 5.93775 4.49839 6.00739 4.5797L7.80173 6.37404L12.9362 1.35611C13.0865 1.23066 13.2787 1.16663 13.4743 1.17684C13.6698 1.18704 13.8543 1.27073 13.9908 1.41114C14.1273 1.55155 14.2057 1.73833 14.2103 1.93409C14.215 2.12985 14.1455 2.32015 14.0159 2.46689L8.3377 8.01303C8.19177 8.15369 7.99664 8.23174 7.79396 8.23052Z" fill="#FFC000"/>
</svg>
