<svg width="36" height="36" viewBox="0 0 36 36" fill="none" xmlns="http://www.w3.org/2000/svg">
<path d="M9.73828 15.1512C10.0838 15.1512 10.3142 14.9209 10.3142 14.5753V13.4235C10.3142 13.078 10.0838 12.8477 9.73828 12.8477H6.28292C5.93739 12.8477 5.70703 13.078 5.70703 13.4235V14.5753C5.70703 14.9209 5.93739 15.1512 6.28292 15.1512H6.85882V23.7896H6.28292C5.93739 23.7896 5.70703 24.02 5.70703 24.3655V25.5173C5.70703 25.8628 5.93739 26.0932 6.28292 26.0932H9.73828C10.0838 26.0932 10.3142 25.8628 10.3142 25.5173V24.3655C10.3142 24.02 10.0838 23.7896 9.73828 23.7896H9.16239V15.1512H9.73828Z" fill="#C8D0DB"/>
<path d="M30.4688 15.1512C30.8143 15.1512 31.0446 14.9209 31.0446 14.5753V13.4235C31.0446 13.078 30.8143 12.8477 30.4688 12.8477H27.0134C26.6679 12.8477 26.4375 13.078 26.4375 13.4235V14.5753C26.4375 14.9209 26.6679 15.1512 27.0134 15.1512H27.5893V23.7896H27.0134C26.6679 23.7896 26.4375 24.02 26.4375 24.3655V25.5173C26.4375 25.8628 26.6679 26.0932 27.0134 26.0932H30.4688C30.8143 26.0932 31.0446 25.8628 31.0446 25.5173V24.3655C31.0446 24.02 30.8143 23.7896 30.4688 23.7896H29.8929V15.1512H30.4688Z" fill="#C8D0DB"/>
<path d="M18.375 0.753906L2.25 9.3923V11.6959H34.5V9.3923L18.375 0.753906ZM18.375 8.24051C17.108 8.24051 16.0714 7.20391 16.0714 5.93694C16.0714 4.66998 17.108 3.63337 18.375 3.63337C19.642 3.63337 20.6786 4.66998 20.6786 5.93694C20.6786 7.20391 19.642 8.24051 18.375 8.24051Z" fill="#C8D0DB"/>
<path d="M18.3733 20.332C14.2269 20.332 10.8867 23.6722 10.8867 27.8186C10.8867 31.9651 14.2269 35.3052 18.3733 35.3052C22.5198 35.3052 25.8599 31.9651 25.8599 27.8186C25.8599 23.6722 22.5198 20.332 18.3733 20.332ZM18.3733 34.1535C14.8604 34.1535 12.0385 31.3316 12.0385 27.8186C12.0385 24.3057 14.8604 21.4838 18.3733 21.4838C21.8863 21.4838 24.7081 24.3057 24.7081 27.8186C24.7081 31.3316 21.8863 34.1535 18.3733 34.1535Z" fill="#C8D0DB"/>
<path d="M10.2549 30.7012H2.25V33.0047H11.4643C10.946 32.3137 10.5429 31.5074 10.2549 30.7012Z" fill="#C8D0DB"/>
<path d="M26.4945 30.7012C26.2066 31.5074 25.8035 32.3137 25.2852 33.0047H34.4994V30.7012H26.4945Z" fill="#C8D0DB"/>
<path d="M9.73549 27.82C9.73549 27.6473 9.73549 27.4169 9.79308 27.2441H3.97656V29.5477H9.90826C9.79308 28.9718 9.73549 28.3959 9.73549 27.82Z" fill="#C8D0DB"/>
<path d="M26.955 27.2441C26.955 27.4169 27.0126 27.6473 27.0126 27.82C27.0126 28.3959 26.955 28.9718 26.8398 29.5477H32.7715V27.2441H26.955Z" fill="#C8D0DB"/>
<path d="M23.5586 12.8477H20.1032C19.7577 12.8477 19.5273 13.078 19.5273 13.4235V14.5753C19.5273 14.9209 19.7577 15.1512 20.1032 15.1512H20.6791V19.528C21.4854 19.7584 22.2916 20.1039 22.9827 20.507V15.1512H23.5586C23.9041 15.1512 24.1345 14.9209 24.1345 14.5753V13.4235C24.1345 13.078 23.9041 12.8477 23.5586 12.8477Z" fill="#C8D0DB"/>
<path d="M16.6445 12.8477H13.1892C12.8436 12.8477 12.6133 13.078 12.6133 13.4235V14.5753C12.6133 14.9209 12.8436 15.1512 13.1892 15.1512H13.7651V20.507C14.4561 20.1039 15.2624 19.7584 16.0686 19.528V15.1512H16.6445C16.9901 15.1512 17.2204 14.9209 17.2204 14.5753V13.4235C17.2204 13.078 16.9901 12.8477 16.6445 12.8477Z" fill="#C8D0DB"/>
<path d="M18.2609 23.2119C17.3395 23.2695 16.6484 24.0757 16.6484 25.0547V25.573C16.6484 25.9186 16.706 26.3217 16.8212 26.6672L17.1092 27.5887C17.1667 27.7614 17.2819 27.9342 17.3971 28.0494L17.6275 28.2797C17.7426 28.3949 17.8578 28.4525 18.0306 28.4525H18.7217C18.8944 28.4525 19.0096 28.3949 19.1248 28.2797L19.3551 28.0494C19.4703 27.9342 19.5855 27.7614 19.6431 27.5887L19.931 26.6672C20.0462 26.3217 20.1038 25.9186 20.1038 25.573V24.9972C20.1038 23.9605 19.2975 23.1543 18.2609 23.2119Z" fill="#C8D0DB"/>
<path d="M19.4698 27.5914L21.255 27.2458C20.2184 24.4239 20.6791 22.6387 18.3756 22.6387C16.1296 22.6387 16.5327 24.4239 15.4961 27.2458L17.2814 27.5914C17.2814 27.9945 17.2238 28.34 17.1086 28.7431L18.3756 30.3556L19.6425 28.7431C19.4698 28.34 19.4122 27.9945 19.4698 27.5914Z" fill="#C8D0DB"/>
<path d="M22.6374 30.1246C22.4646 29.779 22.1767 29.4911 21.7736 29.4335L20.7369 29.2031L18.3758 32.1978L16.0146 29.2031L14.978 29.4335C14.5749 29.4911 14.2869 29.779 14.1142 30.1246L13.9414 30.5277C14.8628 32.025 16.4753 33.004 18.3758 33.004C20.2762 33.004 21.8887 32.025 22.8102 30.5277L22.6374 30.1246Z" fill="#C8D0DB"/>
</svg>
