<svg width="620" height="100" viewBox="0 0 620 100" fill="none" xmlns="http://www.w3.org/2000/svg">
<g clip-path="url(#clip0_3458_8711)">
<rect x="0.5" y="52.5" width="463" height="47" stroke="#C8D0DB"/>
</g>
<rect x="0.5" y="0.5" width="463" height="99" stroke="#C8D0DB"/>
<circle cx="564" cy="50" r="39.5" stroke="#C8D0DB"/>
<path fill-rule="evenodd" clip-rule="evenodd" d="M570.821 59.1747L572.973 61.3264C573.116 61.4691 573.309 61.5492 573.511 61.5492C573.713 61.5492 573.906 61.4691 574.049 61.3264L578.352 57.023C578.491 56.8795 578.568 56.6873 578.566 56.4878C578.564 56.2883 578.484 56.0974 578.343 55.9564C578.202 55.8153 578.011 55.7353 577.812 55.7335C577.612 55.7318 577.42 55.8085 577.277 55.9471L573.511 59.7126L571.897 58.0988C571.754 57.9602 571.562 57.8835 571.362 57.8853C571.163 57.887 570.972 57.967 570.831 58.1081C570.69 58.2492 570.61 58.44 570.608 58.6395C570.606 58.839 570.683 59.0312 570.821 59.1747ZM557.108 45.8458C557.108 45.4022 556.932 44.9761 556.618 44.6619C556.304 44.3483 555.878 44.1721 555.434 44.1719H554.217C553.773 44.1719 553.347 44.3484 553.033 44.6619C552.719 44.9761 552.543 45.4019 552.543 45.8458V47.0632C552.543 47.5068 552.719 47.9329 553.033 48.2471C553.347 48.5606 553.773 48.7371 554.217 48.7371H555.434C555.878 48.7371 556.304 48.5606 556.618 48.2471C556.932 47.9329 557.108 47.5068 557.108 47.0632V45.8458ZM555.586 45.8458V47.0632C555.586 47.0832 555.583 47.1029 555.575 47.1214C555.567 47.1398 555.556 47.1565 555.542 47.1705C555.528 47.1847 555.511 47.196 555.492 47.2037C555.474 47.2114 555.454 47.2154 555.434 47.2154H554.217C554.197 47.2154 554.177 47.2114 554.159 47.2037C554.14 47.196 554.124 47.1847 554.11 47.1705C554.095 47.1565 554.084 47.1398 554.076 47.1214C554.069 47.1029 554.065 47.0832 554.065 47.0632V45.8458C554.065 45.8055 554.081 45.7667 554.11 45.7385C554.124 45.7243 554.14 45.7129 554.159 45.7052C554.177 45.6975 554.197 45.6936 554.217 45.6936H555.434C555.475 45.6936 555.513 45.7096 555.542 45.7385C555.556 45.7525 555.567 45.7692 555.575 45.7876C555.583 45.806 555.586 45.8258 555.586 45.8458ZM557.108 51.9327C557.108 51.4892 556.932 51.0631 556.618 50.7488C556.304 50.4353 555.878 50.2591 555.434 50.2588H554.217C553.773 50.2588 553.347 50.4354 553.033 50.7488C552.719 51.0631 552.543 51.4888 552.543 51.9327V53.1501C552.543 53.5937 552.719 54.0198 553.033 54.3341C553.347 54.6475 553.773 54.8241 554.217 54.8241H555.434C555.878 54.8241 556.304 54.6475 556.618 54.3341C556.932 54.0198 557.108 53.5937 557.108 53.1501V51.9327ZM555.586 51.9327V53.1501C555.586 53.1701 555.583 53.1899 555.575 53.2083C555.567 53.2267 555.556 53.2434 555.542 53.2574C555.528 53.2717 555.511 53.283 555.492 53.2907C555.474 53.2984 555.454 53.3024 555.434 53.3023H554.217C554.197 53.3024 554.177 53.2984 554.159 53.2907C554.14 53.283 554.124 53.2717 554.11 53.2574C554.095 53.2434 554.084 53.2267 554.076 53.2083C554.069 53.1899 554.065 53.1701 554.065 53.1501V51.9327C554.065 51.8924 554.081 51.8536 554.11 51.8255C554.124 51.8112 554.14 51.7999 554.159 51.7922C554.177 51.7845 554.197 51.7805 554.217 51.7806H555.434C555.475 51.7806 555.513 51.7966 555.542 51.8255C555.556 51.8395 555.567 51.8561 555.575 51.8746C555.583 51.893 555.586 51.9128 555.586 51.9327ZM557.108 58.0197C557.108 57.5761 556.932 57.15 556.618 56.8358C556.304 56.5223 555.878 56.3461 555.434 56.3458H554.217C553.773 56.3458 553.347 56.5223 553.033 56.8358C552.719 57.1501 552.543 57.5758 552.543 58.0197V59.2371C552.543 59.6807 552.719 60.1068 553.033 60.421C553.347 60.7345 553.773 60.911 554.217 60.911H555.434C555.878 60.911 556.304 60.7345 556.618 60.421C556.932 60.1068 557.108 59.6807 557.108 59.2371V58.0197ZM555.586 58.0197V59.2371C555.586 59.2571 555.583 59.2768 555.575 59.2953C555.567 59.3137 555.556 59.3304 555.542 59.3444C555.528 59.3586 555.511 59.3699 555.492 59.3777C555.474 59.3854 555.454 59.3893 555.434 59.3893H554.217C554.197 59.3893 554.177 59.3854 554.159 59.3777C554.14 59.3699 554.124 59.3586 554.11 59.3444C554.095 59.3304 554.084 59.3137 554.076 59.2953C554.069 59.2768 554.065 59.2571 554.065 59.2371V58.0197C554.065 57.9794 554.081 57.9406 554.11 57.9124C554.124 57.8982 554.14 57.8869 554.159 57.8791C554.177 57.8714 554.197 57.8675 554.217 57.8675H555.434C555.475 57.8675 555.513 57.8835 555.542 57.9124C555.556 57.9264 555.567 57.9431 555.575 57.9615C555.583 57.98 555.586 57.9997 555.586 58.0197ZM563.195 45.8458C563.195 45.4022 563.019 44.9761 562.705 44.6619C562.391 44.3483 561.965 44.1721 561.521 44.1719H560.304C559.86 44.1719 559.434 44.3484 559.12 44.6619C558.806 44.9761 558.63 45.4019 558.63 45.8458V47.0632C558.63 47.5068 558.806 47.9329 559.12 48.2471C559.434 48.5606 559.86 48.7371 560.304 48.7371H561.521C561.965 48.7371 562.391 48.5606 562.705 48.2471C563.019 47.9329 563.195 47.5068 563.195 47.0632V45.8458ZM561.673 45.8458V47.0632C561.673 47.0832 561.669 47.1029 561.662 47.1214C561.654 47.1398 561.643 47.1565 561.629 47.1705C561.615 47.1847 561.598 47.196 561.579 47.2037C561.561 47.2114 561.541 47.2154 561.521 47.2154H560.304C560.284 47.2154 560.264 47.2114 560.246 47.2037C560.227 47.196 560.211 47.1847 560.197 47.1705C560.182 47.1565 560.171 47.1398 560.163 47.1214C560.156 47.1029 560.152 47.0832 560.152 47.0632V45.8458C560.152 45.8055 560.168 45.7667 560.197 45.7385C560.211 45.7243 560.227 45.7129 560.246 45.7052C560.264 45.6975 560.284 45.6936 560.304 45.6936H561.521C561.562 45.6936 561.6 45.7096 561.629 45.7385C561.643 45.7525 561.654 45.7692 561.662 45.7876C561.669 45.806 561.673 45.8258 561.673 45.8458ZM563.195 51.9327C563.195 51.4892 563.019 51.0631 562.705 50.7488C562.391 50.4353 561.965 50.2591 561.521 50.2588H560.304C559.86 50.2588 559.434 50.4354 559.12 50.7488C558.806 51.0631 558.63 51.4888 558.63 51.9327V53.1501C558.63 53.5937 558.806 54.0198 559.12 54.3341C559.434 54.6475 559.86 54.8241 560.304 54.8241H561.521C561.965 54.8241 562.391 54.6475 562.705 54.3341C563.019 54.0198 563.195 53.5937 563.195 53.1501V51.9327ZM561.673 51.9327V53.1501C561.673 53.1701 561.669 53.1899 561.662 53.2083C561.654 53.2267 561.643 53.2434 561.629 53.2574C561.615 53.2717 561.598 53.283 561.579 53.2907C561.561 53.2984 561.541 53.3024 561.521 53.3023H560.304C560.284 53.3024 560.264 53.2984 560.246 53.2907C560.227 53.283 560.211 53.2717 560.197 53.2574C560.182 53.2434 560.171 53.2267 560.163 53.2083C560.156 53.1899 560.152 53.1701 560.152 53.1501V51.9327C560.152 51.8924 560.168 51.8536 560.197 51.8255C560.211 51.8112 560.227 51.7999 560.246 51.7922C560.264 51.7845 560.284 51.7805 560.304 51.7806H561.521C561.562 51.7806 561.6 51.7966 561.629 51.8255C561.643 51.8395 561.654 51.8561 561.662 51.8746C561.669 51.893 561.673 51.9128 561.673 51.9327ZM563.195 58.0197C563.195 57.5761 563.019 57.15 562.705 56.8358C562.391 56.5223 561.965 56.3461 561.521 56.3458H560.304C559.86 56.3458 559.434 56.5223 559.12 56.8358C558.806 57.1501 558.63 57.5758 558.63 58.0197V59.2371C558.63 59.6807 558.806 60.1068 559.12 60.421C559.434 60.7345 559.86 60.911 560.304 60.911H561.521C561.965 60.911 562.391 60.7345 562.705 60.421C563.019 60.1068 563.195 59.6807 563.195 59.2371V58.0197ZM561.673 58.0197V59.2371C561.673 59.2571 561.669 59.2768 561.662 59.2953C561.654 59.3137 561.643 59.3304 561.629 59.3444C561.615 59.3586 561.598 59.3699 561.579 59.3777C561.561 59.3854 561.541 59.3893 561.521 59.3893H560.304C560.284 59.3893 560.264 59.3854 560.246 59.3777C560.227 59.3699 560.211 59.3586 560.197 59.3444C560.182 59.3304 560.171 59.3137 560.163 59.2953C560.156 59.2768 560.152 59.2571 560.152 59.2371V58.0197C560.152 57.9794 560.168 57.9406 560.197 57.9124C560.211 57.8982 560.227 57.8869 560.246 57.8791C560.264 57.8714 560.284 57.8675 560.304 57.8675H561.521C561.562 57.8675 561.6 57.8835 561.629 57.9124C561.643 57.9264 561.654 57.9431 561.662 57.9615C561.669 57.98 561.673 57.9997 561.673 58.0197ZM569.282 45.8458C569.282 45.4022 569.106 44.9761 568.792 44.6619C568.478 44.3483 568.052 44.1721 567.608 44.1719H566.391C565.947 44.1719 565.521 44.3484 565.207 44.6619C564.893 44.9761 564.717 45.4019 564.717 45.8458V47.0632C564.717 47.5068 564.893 47.9329 565.207 48.2471C565.521 48.5606 565.947 48.7371 566.391 48.7371H567.608C568.052 48.7371 568.478 48.5606 568.792 48.2471C569.106 47.9329 569.282 47.5068 569.282 47.0632V45.8458ZM567.76 45.8458V47.0632C567.76 47.0832 567.756 47.1029 567.749 47.1214C567.741 47.1398 567.73 47.1565 567.715 47.1705C567.701 47.1847 567.685 47.196 567.666 47.2037C567.648 47.2114 567.628 47.2154 567.608 47.2154H566.391C566.371 47.2154 566.351 47.2114 566.333 47.2037C566.314 47.196 566.297 47.1847 566.284 47.1705C566.269 47.1565 566.258 47.1398 566.25 47.1214C566.243 47.1029 566.239 47.0832 566.239 47.0632V45.8458C566.239 45.8055 566.255 45.7667 566.284 45.7385C566.297 45.7243 566.314 45.7129 566.333 45.7052C566.351 45.6975 566.371 45.6936 566.391 45.6936H567.608C567.649 45.6936 567.687 45.7096 567.715 45.7385C567.73 45.7525 567.741 45.7692 567.749 45.7876C567.756 45.806 567.76 45.8258 567.76 45.8458ZM575.369 45.8458C575.369 45.4022 575.193 44.9761 574.879 44.6619C574.565 44.3483 574.139 44.1721 573.695 44.1719H572.478C572.034 44.1719 571.608 44.3484 571.294 44.6619C570.98 44.9761 570.804 45.4019 570.804 45.8458V47.0632C570.804 47.5068 570.98 47.9329 571.294 48.2471C571.608 48.5606 572.034 48.7371 572.478 48.7371H573.695C574.139 48.7371 574.565 48.5606 574.879 48.2471C575.193 47.9329 575.369 47.5068 575.369 47.0632V45.8458ZM573.847 45.8458V47.0632C573.847 47.0832 573.843 47.1029 573.836 47.1214C573.828 47.1398 573.817 47.1565 573.802 47.1705C573.788 47.1847 573.772 47.196 573.753 47.2037C573.735 47.2114 573.715 47.2154 573.695 47.2154H572.478C572.458 47.2154 572.438 47.2114 572.42 47.2037C572.401 47.196 572.384 47.1847 572.37 47.1705C572.356 47.1565 572.345 47.1398 572.337 47.1214C572.329 47.1029 572.326 47.0832 572.326 47.0632V45.8458C572.326 45.8055 572.342 45.7667 572.37 45.7385C572.384 45.7243 572.401 45.7129 572.42 45.7052C572.438 45.6975 572.458 45.6936 572.478 45.6936H573.695C573.735 45.6936 573.774 45.7096 573.802 45.7385C573.817 45.7525 573.828 45.7692 573.836 45.7876C573.843 45.806 573.847 45.8258 573.847 45.8458Z" fill="#C8D0DB"/>
<path fill-rule="evenodd" clip-rule="evenodd" d="M568.176 63.9565H551.804C550.795 63.9564 549.828 63.5557 549.114 62.8426C548.401 62.1288 548 61.1612 548 60.1522V38.8478C548 37.8389 548.401 36.8712 549.114 36.1577C549.828 35.4443 550.795 35.0435 551.804 35.0435H554.087V34.2826C554.087 33.6772 554.327 33.0966 554.756 32.6686C555.184 32.2405 555.764 32 556.37 32C556.975 32 557.556 32.2405 557.984 32.6686C558.412 33.0966 558.652 33.6772 558.652 34.2826V35.0435H569.304V34.2826C569.304 33.6772 569.545 33.0966 569.973 32.6686C570.401 32.2405 570.982 32 571.587 32C572.192 32 572.773 32.2405 573.201 32.6686C573.629 33.0966 573.87 33.6772 573.87 34.2826V35.0435H576.152C577.161 35.0435 578.129 35.4443 578.842 36.1577C579.556 36.8712 579.957 37.8389 579.957 38.8478V52.176C581.815 53.7122 583 56.0336 583 58.6304C583 63.2497 579.25 67 574.63 67C573.397 67.0009 572.178 66.7284 571.062 66.2021C569.946 65.6759 568.96 64.909 568.176 63.9565ZM574.63 51.7826C578.41 51.7826 581.478 54.8512 581.478 58.6304C581.478 62.4097 578.41 65.4783 574.63 65.4783C570.851 65.4783 567.783 62.4097 567.783 58.6304C567.783 54.8512 570.851 51.7826 574.63 51.7826ZM578.435 51.1747V42.6522H549.522V60.1522C549.522 60.7578 549.762 61.3384 550.191 61.766C550.402 61.9781 550.654 62.1463 550.931 62.2611C551.208 62.3759 551.505 62.4349 551.804 62.4348H567.175C566.59 61.2935 566.261 60 566.261 58.6304C566.261 54.0112 570.011 50.2609 574.63 50.2609C576 50.2609 577.293 50.5903 578.435 51.1747ZM573.87 36.5652V37.3261C573.87 37.9315 573.629 38.5121 573.201 38.9401C572.773 39.3682 572.192 39.6087 571.587 39.6087C570.982 39.6087 570.401 39.3682 569.973 38.9401C569.545 38.5121 569.304 37.9315 569.304 37.3261V36.5652H558.652V37.3261C558.652 37.9315 558.412 38.5121 557.984 38.9401C557.556 39.3682 556.975 39.6087 556.37 39.6087C555.764 39.6087 555.184 39.3682 554.756 38.9401C554.327 38.5121 554.087 37.9315 554.087 37.3261V36.5652H551.804C551.199 36.5652 550.618 36.8057 550.19 37.2338C549.762 37.6619 549.522 38.2424 549.522 38.8478V41.1304H578.435V38.8478C578.435 38.2424 578.194 37.6619 577.766 37.2338C577.338 36.8057 576.758 36.5652 576.152 36.5652H573.87ZM572.348 34.2826V37.3261C572.348 37.5279 572.268 37.7214 572.125 37.8641C571.982 38.0068 571.789 38.087 571.587 38.087C571.385 38.087 571.192 38.0068 571.049 37.8641C570.906 37.7214 570.826 37.5279 570.826 37.3261V34.2826C570.826 34.0808 570.906 33.8873 571.049 33.7446C571.192 33.6019 571.385 33.5217 571.587 33.5217C571.789 33.5217 571.982 33.6019 572.125 33.7446C572.268 33.8873 572.348 34.0808 572.348 34.2826ZM557.13 34.2826V37.3261C557.13 37.5279 557.05 37.7214 556.908 37.8641C556.765 38.0068 556.571 38.087 556.37 38.087C556.168 38.087 555.974 38.0068 555.832 37.8641C555.689 37.7214 555.609 37.5279 555.609 37.3261V34.2826C555.609 34.0808 555.689 33.8873 555.832 33.7446C555.974 33.6019 556.168 33.5217 556.37 33.5217C556.571 33.5217 556.765 33.6019 556.908 33.7446C557.05 33.8873 557.13 34.0808 557.13 34.2826Z" fill="#C8D0DB"/>
<defs>
<clipPath id="clip0_3458_8711">
<rect width="464" height="100" fill="white"/>
</clipPath>
</defs>
</svg>
