<svg width="45" height="36" viewBox="0 0 45 36" fill="none" xmlns="http://www.w3.org/2000/svg">
<path d="M24.9949 20.4994C20.7377 19.482 18.9681 18.2168 18.9681 18.2168L18.8256 18.3162C17.5613 19.1868 16.1631 19.6986 14.8893 19.6986H14.7691C13.4954 19.6986 12.0971 19.1868 10.8329 18.3162L10.6903 18.2168C10.6903 18.2168 8.9208 19.4819 4.66355 20.4994C-1.62089 22.2171 0.266091 29.2075 0.264273 29.2616C0.462206 30.0401 0.577572 30.3077 0.678091 30.3378C6.98905 32.3935 22.6695 32.3935 28.9805 30.3378C29.081 30.3077 29.1964 30.0401 29.3943 29.2616C29.3925 29.2075 31.3047 22.2448 24.9949 20.4994Z" fill="#C8D0DB"/>
<path d="M21.7396 9.07273L21.6861 9.01632C21.3275 8.69701 21.3555 8.71532 21.3555 8.71532C21.3555 8.71532 21.9811 5.64604 21.4794 4.1946C20.6919 1.8766 15.9875 0.323022 15.0439 0.14245C15.0441 0.140732 14.47 0.0290419 14.4334 0.0288178C14.4334 0.0288178 13.6912 -0.117089 12.831 0.247715C12.2708 0.457274 9.34197 1.74862 8.51066 4.1946C8.00907 5.64604 8.63468 8.71532 8.63468 8.71532C8.63468 8.71532 8.66272 8.69701 8.30397 9.01632L8.25057 9.07273C8.00792 9.34063 8.06785 10.1789 8.33309 11.0509C8.57344 11.9247 8.88671 12.1595 8.96178 12.3641C9.7227 15.8379 12.3686 18.8038 15.0649 18.8038C17.7612 18.8038 20.2673 15.8379 21.0283 12.3641C21.1034 12.1596 21.4167 11.9247 21.657 11.0509C21.9223 10.1788 21.9892 9.28303 21.7396 9.07273Z" fill="#C8D0DB"/>
<path d="M34.6133 23.1543V27.2627" stroke="#C8D0DB" stroke-width="0.5"/>
<path d="M36.1602 23.1543V26.5834C36.1602 26.6939 36.2497 26.7834 36.3602 26.7834H37.6827" stroke="#C8D0DB" stroke-width="0.5"/>
<path d="M38.6562 23.1543V26.5834C38.6562 26.6939 38.7458 26.7834 38.8562 26.7834H40.1788" stroke="#C8D0DB" stroke-width="0.5"/>
<path d="M41.6819 26.937V20.444C41.6819 20.2626 41.4598 20.1749 41.3359 20.3074L40.1907 21.5313C40.1117 21.6158 39.9777 21.6158 39.8986 21.5313L38.5706 20.1118C38.4855 20.0209 38.339 20.029 38.2644 20.1286L37.2407 21.4963C37.1661 21.5959 37.0196 21.604 36.9346 21.5131L35.6235 20.1118C35.5385 20.0209 35.392 20.029 35.3174 20.1286L34.3108 21.4735C34.2308 21.5803 34.0705 21.5803 33.9905 21.4735L32.9839 20.1286C32.9093 20.029 32.7628 20.0209 32.6778 20.1118L31.3497 21.5313C31.2706 21.6158 31.1366 21.6158 31.0576 21.5313L29.9125 20.3074C29.7885 20.1749 29.5664 20.2626 29.5664 20.444V35.1047C29.5664 35.295 29.8071 35.3777 29.9241 35.2277L31.0459 33.7889C31.126 33.6862 31.2813 33.6862 31.3614 33.7889L32.6649 35.4608C32.7504 35.5704 32.9188 35.5616 32.9923 35.4436L33.981 33.8587C34.0593 33.7331 34.242 33.7331 34.3203 33.8587L35.3226 35.4655C35.3922 35.577 35.5486 35.5923 35.6384 35.4963L37.4251 33.5866" stroke="#C8D0DB" stroke-width="0.5" stroke-linecap="round"/>
<mask id="path-7-inside-1_4720_5101" fill="white">
<path fill-rule="evenodd" clip-rule="evenodd" d="M31.1133 23.9543C31.1133 23.5125 31.4715 23.1543 31.9133 23.1543H32.8373C33.2792 23.1543 33.6373 23.5125 33.6373 23.9543V26.5312C33.6373 26.973 33.2792 27.3312 32.8373 27.3312H31.9133C31.4715 27.3312 31.1133 26.973 31.1133 26.5312V23.9543ZM31.7344 23.7324H32.9964V25.0163H31.7344V23.7324ZM32.9964 25.5156H31.7344V26.7995H32.9964V25.5156Z"/>
</mask>
<path fill-rule="evenodd" clip-rule="evenodd" d="M31.1133 23.9543C31.1133 23.5125 31.4715 23.1543 31.9133 23.1543H32.8373C33.2792 23.1543 33.6373 23.5125 33.6373 23.9543V26.5312C33.6373 26.973 33.2792 27.3312 32.8373 27.3312H31.9133C31.4715 27.3312 31.1133 26.973 31.1133 26.5312V23.9543ZM31.7344 23.7324H32.9964V25.0163H31.7344V23.7324ZM32.9964 25.5156H31.7344V26.7995H32.9964V25.5156Z" fill="#C8D0DB"/>
<path d="M32.9964 23.7324H33.4964V23.2324H32.9964V23.7324ZM31.7344 23.7324V23.2324H31.2344V23.7324H31.7344ZM32.9964 25.0163V25.5163H33.4964V25.0163H32.9964ZM31.7344 25.0163H31.2344V25.5163H31.7344V25.0163ZM31.7344 25.5156V25.0156H31.2344V25.5156H31.7344ZM32.9964 25.5156H33.4964V25.0156H32.9964V25.5156ZM31.7344 26.7995H31.2344V27.2995H31.7344V26.7995ZM32.9964 26.7995V27.2995H33.4964V26.7995H32.9964ZM31.9133 22.6543C31.1953 22.6543 30.6133 23.2363 30.6133 23.9543H31.6133C31.6133 23.7886 31.7476 23.6543 31.9133 23.6543V22.6543ZM32.8373 22.6543H31.9133V23.6543H32.8373V22.6543ZM34.1373 23.9543C34.1373 23.2363 33.5553 22.6543 32.8373 22.6543V23.6543C33.003 23.6543 33.1373 23.7886 33.1373 23.9543H34.1373ZM34.1373 26.5312V23.9543H33.1373V26.5312H34.1373ZM32.8373 27.8312C33.5553 27.8312 34.1373 27.2492 34.1373 26.5312H33.1373C33.1373 26.6969 33.003 26.8312 32.8373 26.8312V27.8312ZM31.9133 27.8312H32.8373V26.8312H31.9133V27.8312ZM30.6133 26.5312C30.6133 27.2492 31.1953 27.8312 31.9133 27.8312V26.8312C31.7476 26.8312 31.6133 26.6969 31.6133 26.5312H30.6133ZM30.6133 23.9543V26.5312H31.6133V23.9543H30.6133ZM32.9964 23.2324H31.7344V24.2324H32.9964V23.2324ZM33.4964 25.0163V23.7324H32.4964V25.0163H33.4964ZM31.7344 25.5163H32.9964V24.5163H31.7344V25.5163ZM31.2344 23.7324V25.0163H32.2344V23.7324H31.2344ZM31.7344 26.0156H32.9964V25.0156H31.7344V26.0156ZM32.2344 26.7995V25.5156H31.2344V26.7995H32.2344ZM32.9964 26.2995H31.7344V27.2995H32.9964V26.2995ZM32.4964 25.5156V26.7995H33.4964V25.5156H32.4964Z" fill="#C8D0DB" mask="url(#path-7-inside-1_4720_5101)"/>
<path d="M31.6562 28.8359H35.6948" stroke="#C8D0DB" stroke-width="0.5" stroke-linecap="round"/>
<path d="M31.6562 30.8906H35.6948" stroke="#C8D0DB" stroke-width="0.5" stroke-linecap="round"/>
<path d="M44.4559 31.5498C44.4559 33.6848 42.7557 35.4083 40.6674 35.4083C38.5791 35.4083 36.8789 33.6848 36.8789 31.5498C36.8789 29.4148 38.5791 27.6914 40.6674 27.6914C42.7557 27.6914 44.4559 29.4148 44.4559 31.5498Z" stroke="#C8D0DB" stroke-width="0.5"/>
<path d="M38.8555 31.988L40.059 33.2124C40.1374 33.2921 40.2659 33.2921 40.3443 33.2124L42.5574 30.9609" stroke="#C8D0DB" stroke-width="0.5" stroke-linecap="round"/>
</svg>
