<svg width="331" height="151" viewBox="0 0 331 151" fill="none" xmlns="http://www.w3.org/2000/svg">
<path d="M0 64.9682H38C43.8333 65.3629 55.4 62.2446 55 46.6138C54.6 30.9831 54.8333 22.9307 55 17.602C55 12.8654 59.2913 1.02381 70.5 1.02406C82 1.02432 89.5 1.02498 92 1.02406H188H315C320 0.758445 330 2.58259 330 12.0041C330 21.4256 330 26.9928 330 28.5988" stroke="url(#paint0_radial_6002_4974)" stroke-width="1.5"/>
<path d="M0 78.0031H32C40 78.0031 55 77.0431 55 109.1C55 123.121 54.8333 130.336 55 135.114C55 139.361 59.2913 149.979 70.5 149.978C82 149.978 89.5 149.978 92 149.978H188H315C320 150.217 330 148.581 330 140.133C330 131.685 330 128.44 330 127" stroke="url(#paint1_radial_6002_4974)" stroke-width="1.5"/>
<defs>
<radialGradient id="paint0_radial_6002_4974" cx="0" cy="0" r="1" gradientUnits="userSpaceOnUse" gradientTransform="translate(46 32.8824) rotate(90) scale(32.1187 46)">
<stop stop-color="#9966FF"/>
<stop offset="1" stop-color="#13EAE2"/>
</radialGradient>
<radialGradient id="paint1_radial_6002_4974" cx="0" cy="0" r="1" gradientUnits="userSpaceOnUse" gradientTransform="translate(46 121.412) rotate(-90) scale(28.7995 46)">
<stop stop-color="#9966FF"/>
<stop offset="1" stop-color="#15E9E2"/>
</radialGradient>
</defs>
</svg>
