<svg width="24" height="24" viewBox="0 0 24 24" fill="none" xmlns="http://www.w3.org/2000/svg">
<path d="M7.3479 10.9901C7.53012 10.85 7.54802 10.6074 7.38789 10.4479L7.36369 10.4237C7.32564 10.3859 7.2794 10.355 7.22765 10.3329C7.1759 10.3109 7.11965 10.2979 7.06216 10.2949H7.03291C6.92629 10.2948 6.82329 10.3287 6.74335 10.3904L6.15415 10.8425L5.61757 11.2541C5.43587 11.3944 5.4181 11.6367 5.57778 11.7961L5.60239 11.8207C5.76285 11.9799 6.04046 11.9956 6.22294 11.8557L6.63539 11.5394L7.3479 10.9901Z" fill="black"/>
<path d="M5.95281 12.0417C5.9406 12.0417 5.92862 12.0417 5.9164 12.0408C5.84501 12.0369 5.7752 12.0207 5.71101 11.9931C5.64683 11.9655 5.58954 11.9271 5.54246 11.88L5.51762 11.8552C5.3201 11.6576 5.3422 11.3577 5.56707 11.1839L6.6933 10.3195C6.802 10.2363 6.94391 10.1942 7.08806 10.2021C7.15945 10.206 7.22926 10.2222 7.29345 10.2498C7.35764 10.2774 7.41493 10.3158 7.462 10.3629L7.49652 10.398C7.6848 10.5961 7.65851 10.8892 7.43719 11.0592L6.31137 11.9236C6.21241 12 6.08484 12.042 5.95281 12.0417ZM7.05209 10.3864C6.97094 10.3868 6.89271 10.4129 6.83198 10.46L5.70617 11.3244C5.56807 11.4312 5.55465 11.6155 5.67609 11.7368L5.70093 11.7616C5.82303 11.8825 6.03403 11.8942 6.17271 11.7879L7.29832 10.9234C7.4368 10.8169 7.45035 10.6324 7.32864 10.5113L7.30403 10.4865C7.27518 10.4576 7.24007 10.4341 7.20073 10.4172C7.1614 10.4003 7.11861 10.3904 7.07487 10.3881L7.05209 10.3864ZM8.94765 11.9516C8.84101 11.9515 8.73798 11.9853 8.65788 12.0468L8.07687 12.4927C7.8943 12.6327 7.87617 12.8756 8.03635 13.0352C8.19657 13.1947 8.47445 13.2106 8.65702 13.0706L9.23803 12.6247C9.42061 12.4849 9.43889 12.2421 9.27888 12.0826C9.23755 12.0414 9.18661 12.0083 9.12948 11.9857C9.07235 11.9632 9.01035 11.9515 8.94765 11.9516Z" fill="black"/>
<path d="M8.3557 13.256C8.05481 13.2565 7.81048 13.0437 7.80995 12.7807C7.80981 12.7127 7.82632 12.6456 7.85835 12.5837C7.89038 12.5217 7.9372 12.4665 7.99566 12.4218L8.57688 11.9759C8.80604 11.8101 9.14339 11.8293 9.34599 12.0197C9.54457 12.2175 9.52215 12.5185 9.29592 12.6921L8.71491 13.1379C8.61565 13.2143 8.4879 13.2563 8.3557 13.256ZM8.93606 12.0422C8.85485 12.0416 8.77621 12.067 8.71488 12.1135L8.13367 12.5593C7.99471 12.666 7.98102 12.8509 8.10305 12.9723C8.22509 13.0938 8.43665 13.1058 8.57557 12.9991L9.15679 12.5538C9.29568 12.4474 9.30958 12.2628 9.18787 12.1414C9.15643 12.1101 9.11767 12.0849 9.0742 12.0678C9.03073 12.0506 8.98356 12.0417 8.93585 12.0418L8.93606 12.0422ZM3.75167 4.90234L2.57031 9.40694L3.51473 9.87078L5.95867 6.39616L3.75167 4.90234Z" fill="black"/>
<path d="M3.5543 9.99496L2.45312 9.45423L3.68855 4.74219L6.10051 6.37449L3.5543 9.99496ZM2.69344 9.36117L3.48107 9.74741L5.82273 6.41844L3.82029 5.06403L2.69344 9.36117ZM5.99194 10.4667C6.17446 10.3266 6.19253 10.0838 6.03234 9.92418L6.02477 9.91663C5.9868 9.87862 5.94058 9.84757 5.88878 9.82528C5.83699 9.80299 5.78065 9.7899 5.72302 9.78678H5.69377C5.58715 9.78663 5.48416 9.82059 5.40422 9.88225L4.69863 10.4222C4.51611 10.5624 4.49804 10.8052 4.65823 10.9648C4.81525 11.1281 5.09401 11.1492 5.28085 11.0119L5.28659 11.0076L5.34003 10.9666L5.87706 10.5546L5.99194 10.4667Z" fill="black"/>
<path d="M5.00968 11.1971C4.99622 11.1971 4.98253 11.1971 4.96866 11.1958C4.82167 11.1859 4.68509 11.1257 4.58862 11.0283C4.39001 10.8306 4.41235 10.5297 4.63849 10.3561L5.34322 9.81552C5.56939 9.64217 5.91346 9.66168 6.11213 9.85911C6.16163 9.90662 6.1997 9.96235 6.22406 10.023C6.24843 10.0836 6.25859 10.1479 6.25395 10.212C6.24954 10.2745 6.23099 10.3356 6.19939 10.3917C6.16779 10.4478 6.12375 10.4979 6.06983 10.5391L5.36531 11.0796C5.26721 11.1555 5.14068 11.1973 5.00968 11.1971ZM5.70219 9.881C5.62102 9.88129 5.54276 9.90745 5.48208 9.95457L4.77735 10.4951C4.63846 10.6016 4.62471 10.7864 4.74659 10.9078L4.74662 10.9078C4.80672 10.969 4.89203 11.0069 4.98398 11.0134C5.02773 11.0164 5.07173 11.0116 5.11334 10.9994C5.15496 10.9873 5.19333 10.9679 5.22618 10.9424L5.9307 10.4019C6.06948 10.2953 6.08323 10.1106 5.96143 9.98916C5.93219 9.95832 5.8961 9.93299 5.85534 9.91469C5.81458 9.89638 5.77 9.8855 5.72429 9.88268L5.70219 9.881ZM8.45843 11.5453C8.46236 11.4949 8.45481 11.4443 8.43621 11.3965C8.4176 11.3487 8.38832 11.3045 8.35006 11.2667L8.34376 11.2604C8.30576 11.2227 8.25959 11.1918 8.20791 11.1697C8.15623 11.1477 8.10006 11.1347 8.04264 11.1317H8.01339C7.90676 11.1315 7.80376 11.1655 7.72383 11.2271L7.6548 11.2801L6.94185 11.8271L6.75247 11.9716C6.56959 12.1163 6.55551 12.3631 6.72097 12.5229C6.79817 12.5975 6.90535 12.6431 7.02014 12.6503C7.07781 12.6538 7.13571 12.6472 7.19044 12.631C7.24518 12.6147 7.29566 12.5891 7.33895 12.5556L8.30966 11.8109C8.35341 11.7775 8.3891 11.7368 8.41464 11.6912C8.44018 11.6456 8.45507 11.596 8.45843 11.5453Z" fill="black"/>
<path d="M7.03602 12.7376C7.02401 12.7376 7.01224 12.7376 7.00026 12.7367C6.69716 12.7203 6.46666 12.4922 6.48545 12.2273C6.49444 12.1002 6.56078 11.9814 6.66989 11.8971L7.63977 11.1514C7.74863 11.0685 7.89042 11.0264 8.03453 11.0341C8.10584 11.0379 8.17556 11.0541 8.23968 11.0816C8.3038 11.1091 8.36103 11.1475 8.40806 11.1945C8.45747 11.2419 8.49545 11.2976 8.51975 11.3581C8.54404 11.4187 8.55415 11.4829 8.54947 11.5469C8.54495 11.6092 8.5264 11.67 8.49487 11.726C8.46335 11.782 8.41947 11.832 8.36577 11.8731L7.39505 12.6178C7.29617 12.6948 7.16843 12.7374 7.03602 12.7376ZM7.7094 11.3433L6.80854 12.0345C6.66959 12.141 6.65548 12.3256 6.77698 12.4473C6.80625 12.4778 6.84221 12.5027 6.88274 12.5208C6.92326 12.5388 6.96752 12.5496 7.01289 12.5524C7.0569 12.5551 7.1011 12.5501 7.14287 12.5377C7.18465 12.5253 7.22316 12.5057 7.25616 12.4801L8.22687 11.7354C8.36574 11.629 8.37964 11.4444 8.2579 11.323L8.2576 11.3227C8.22844 11.2921 8.19247 11.267 8.15189 11.2489C8.1113 11.2308 8.06694 11.2201 8.02149 11.2175H7.99919C7.91796 11.2175 7.83958 11.2436 7.77908 11.291L7.7094 11.3433Z" fill="black"/>
<path d="M14.2581 10.3155L10.8336 7.87654C9.52217 8.48514 8.59354 8.17191 8.14953 7.92418C7.91809 7.79218 7.85291 7.52116 8.00393 7.31888C8.05085 7.25603 8.11548 7.2048 8.19162 7.17011L9.33299 6.64024C9.30503 6.63651 9.27696 6.63338 9.24882 6.63086C8.21881 6.77309 7.17857 6.85139 6.13591 6.86517L4.14062 9.70158L4.58546 9.99788L5.10838 9.59658C5.47144 9.31801 6.02414 9.34942 6.34286 9.66673L6.34298 9.66684L6.35055 9.67439C6.45519 9.77927 6.52479 9.90729 6.55173 10.0444C6.71031 9.94988 6.90059 9.90455 7.09213 9.91571C7.20683 9.92195 7.31897 9.94802 7.42205 9.99241C7.52514 10.0368 7.61713 10.0986 7.69269 10.1743L7.7173 10.1989C7.79325 10.2742 7.85139 10.3619 7.88834 10.4569C7.92528 10.5519 7.94031 10.6524 7.93256 10.7525V10.7536C7.97261 10.7501 8.0129 10.7489 8.05314 10.7501C8.16783 10.7564 8.27997 10.7825 8.38305 10.8269C8.48614 10.8713 8.57813 10.9331 8.6537 11.0087L8.4965 11.1404L8.66 11.015C8.73607 11.0903 8.7943 11.178 8.83133 11.2731C8.86835 11.3682 8.88343 11.4687 8.8757 11.5689C8.8757 11.5715 8.87443 11.5739 8.87423 11.5765C9.35334 11.5467 9.76937 11.862 9.80347 12.2808C9.80631 12.3157 9.8064 12.3508 9.80371 12.3858C9.79292 12.5173 9.74301 12.6441 9.65893 12.7536L10.5972 13.2268C10.8029 13.3288 11.0642 13.2683 11.1852 13.0907C11.2999 12.9212 11.244 12.7029 11.0574 12.5925L9.56337 11.6876C9.56209 11.6876 9.56147 11.6856 9.56041 11.6848L9.45982 11.6239C9.43661 11.6094 9.41691 11.5909 9.40185 11.5697C9.38679 11.5485 9.37666 11.5249 9.37204 11.5002C9.36742 11.4756 9.36841 11.4504 9.37493 11.4261C9.38145 11.4018 9.39339 11.3788 9.41007 11.3585C9.44297 11.3185 9.49237 11.2912 9.54786 11.2824C9.60334 11.2736 9.66058 11.2839 9.70749 11.3113L11.8148 12.5871C12.0091 12.7049 12.2759 12.6626 12.4106 12.4927L12.4109 12.4924C12.5431 12.3235 12.4964 12.0932 12.3057 11.9743L10.2088 10.6744C10.2075 10.6744 10.2071 10.6723 10.2058 10.6716C10.1598 10.642 10.1289 10.5977 10.1198 10.5484C10.1108 10.4991 10.1243 10.4486 10.1574 10.4079C10.1906 10.3672 10.2407 10.3395 10.297 10.3308C10.3533 10.3221 10.4112 10.3331 10.4583 10.3615L12.8093 11.8192C13.0149 11.9461 13.2993 11.9033 13.4445 11.7236C13.585 11.5496 13.5441 11.3098 13.3517 11.1792L10.8221 9.58608C10.7222 9.52779 10.6952 9.40973 10.7619 9.32235C10.7784 9.30075 10.7997 9.28232 10.8247 9.26822C10.8496 9.25411 10.8776 9.24462 10.9069 9.24033C10.9362 9.23604 10.9662 9.23704 10.9951 9.24327C11.0239 9.24951 11.051 9.26084 11.0747 9.27657L11.2476 9.38434H11.2499L13.5943 10.8607C13.5987 10.8635 13.6019 10.8669 13.6061 10.8697L13.6448 10.894C13.6522 10.8984 13.6592 10.9033 13.6659 10.9085L13.7079 10.9337C13.9039 11.0564 14.1755 11.0236 14.326 10.859C14.3703 10.81 14.4006 10.7525 14.4142 10.6911C14.4278 10.6298 14.4243 10.5665 14.4041 10.5066C14.3791 10.4313 14.3281 10.3646 14.2581 10.3155Z" fill="black"/>
<path d="M10.825 13.3672C10.732 13.3672 10.6406 13.3459 10.5601 13.3052L9.52414 12.7831L9.58726 12.7021C9.82112 12.3938 9.72467 11.9781 9.37188 11.7737C9.25998 11.7089 9.13056 11.6709 8.99658 11.6635C8.97046 11.6624 8.94429 11.663 8.91829 11.6654L8.77709 11.6731L8.78528 11.5684C8.79853 11.4198 8.75485 11.2716 8.66112 11.1471L8.5822 11.2078L8.43994 11.0724L8.51992 11.0055C8.39268 10.9074 8.23173 10.8492 8.06245 10.8399C8.03177 10.8391 8.00105 10.8399 7.9705 10.8425L7.85748 10.8499L7.84337 10.741V10.7371C7.8544 10.5618 7.78642 10.3897 7.65399 10.2577L7.62915 10.2328C7.37582 9.97867 6.94518 9.93005 6.62623 10.1195L6.49218 10.1982L6.464 10.0592C6.39251 9.69157 5.99358 9.44423 5.57297 9.50674C5.43229 9.52765 5.30099 9.58219 5.19361 9.66432L4.60589 10.1153L4.01562 9.72262L6.09068 6.77252L6.14729 6.77104C7.18429 6.7572 8.21888 6.67946 9.24337 6.53838L9.25809 6.5358L9.27303 6.53691C9.3008 6.53911 9.33153 6.5428 9.3633 6.54684L9.67894 6.58822L8.25559 7.24887C8.06168 7.33643 7.98573 7.54481 8.0859 7.71429C8.11731 7.76741 8.16396 7.8125 8.22128 7.84515C8.63899 8.07817 9.53038 8.38184 10.7988 7.79347L10.8605 7.76478L14.3389 10.242C14.4253 10.3033 14.4879 10.3863 14.5184 10.4798C14.5435 10.5537 14.5478 10.6318 14.5311 10.7074C14.5144 10.7831 14.4772 10.8542 14.4225 10.9146C14.2366 11.1176 13.9015 11.158 13.6597 11.0066L13.5416 10.9295L11.0282 9.34778C11.0041 9.33265 10.9741 9.32651 10.9448 9.33071C10.9155 9.33491 10.8893 9.34911 10.872 9.37019L10.8717 9.37061C10.8544 9.39173 10.8473 9.41801 10.8521 9.44367C10.857 9.46932 10.8733 9.49225 10.8974 9.50741L10.8978 9.50764L13.4278 11.102C13.6731 11.2675 13.7184 11.5754 13.5291 11.7898C13.3459 11.9973 13.0083 12.0421 12.7628 11.8916L10.4113 10.4346C10.3992 10.4271 10.3855 10.4218 10.3711 10.4189C10.3566 10.416 10.3417 10.4157 10.3271 10.4179C10.3052 10.4211 10.2848 10.43 10.2687 10.4433C10.2525 10.4567 10.2413 10.4739 10.2363 10.4928C10.2314 10.5118 10.2329 10.5316 10.2409 10.5497C10.2488 10.5679 10.2627 10.5836 10.2808 10.5948L12.3813 11.8979C12.6186 12.0461 12.6766 12.3331 12.5116 12.5433C12.3441 12.7551 12.0118 12.8081 11.7694 12.6617L11.7692 12.6616L9.66235 11.3855C9.65024 11.3777 9.63646 11.3721 9.62182 11.369C9.60718 11.3659 9.59198 11.3654 9.57712 11.3676C9.56227 11.3697 9.54806 11.3745 9.53534 11.3815C9.52262 11.3886 9.51166 11.3978 9.5031 11.4086C9.49453 11.4194 9.48855 11.4317 9.4855 11.4446C9.48245 11.4574 9.48239 11.4707 9.48533 11.4836C9.48827 11.4966 9.49415 11.5088 9.50262 11.5197C9.5111 11.5306 9.52198 11.5399 9.53464 11.547L11.1326 12.5155C11.3756 12.6609 11.4378 12.951 11.2714 13.1634C11.1997 13.2549 11.0931 13.321 10.9706 13.35C10.9232 13.3614 10.8742 13.3672 10.825 13.3672ZM9.81875 12.7189L10.6653 13.1459C10.8231 13.2206 11.0203 13.1693 11.1057 13.0313C11.143 12.9711 11.1541 12.9012 11.1371 12.8344C11.12 12.7676 11.0759 12.7084 11.0129 12.6677L9.81872 11.9434C9.89959 12.0811 9.93596 12.2354 9.92393 12.3898C9.91541 12.5047 9.87959 12.6168 9.81875 12.7189ZM9.5995 11.1844C9.66492 11.1843 9.7288 11.2017 9.78258 11.2343L11.8894 12.5101C12.0361 12.5988 12.2373 12.5668 12.3389 12.4386C12.4387 12.3112 12.4035 12.1375 12.2598 12.0477L10.1479 10.7371C10.0821 10.6916 10.0392 10.6254 10.0283 10.5527C10.0174 10.48 10.0393 10.4064 10.0894 10.3476C10.1395 10.2887 10.2139 10.2493 10.2967 10.2375C10.3795 10.2258 10.4643 10.2427 10.5332 10.2847L12.8847 11.7425C13.0435 11.8393 13.262 11.8053 13.3729 11.6666C13.4241 11.6024 13.4453 11.5235 13.4321 11.4461C13.419 11.3687 13.3724 11.2986 13.302 11.2503L10.7752 9.65882C10.6302 9.56821 10.5967 9.39204 10.7004 9.26532C10.804 9.1386 11.0056 9.10933 11.1506 9.19994L11.3261 9.30864L13.7208 10.8185C13.7316 10.8252 13.7418 10.8326 13.7515 10.8405L13.7812 10.8575C13.9311 10.9524 14.1398 10.9281 14.2561 10.8023C14.2902 10.7648 14.3134 10.7207 14.3239 10.6737C14.3344 10.6267 14.3318 10.5782 14.3163 10.5323C14.298 10.4746 14.2597 10.4232 14.2067 10.3852L10.8354 7.98428C9.50565 8.57833 8.55768 8.25134 8.10755 7.99992C7.82696 7.8408 7.74707 7.51301 7.92912 7.26777C7.98611 7.19097 8.06493 7.1284 8.15787 7.08619L8.80305 6.78676C8.14692 6.86457 7.25113 6.9225 6.21097 6.95228L4.29601 9.67609L4.59714 9.87638L5.05567 9.52473C5.46226 9.21268 6.08133 9.24782 6.43835 9.60319L6.43862 9.60345C6.52659 9.69041 6.59372 9.79191 6.63602 9.90195C6.78499 9.83866 6.95033 9.81057 7.11558 9.82046C7.24418 9.82743 7.36992 9.85665 7.48551 9.9064C7.6011 9.95616 7.70424 10.0255 7.78895 10.1103L7.8138 10.1351C7.95932 10.2793 8.04457 10.4624 8.05559 10.6544H8.07662C8.30323 10.6673 8.51753 10.7491 8.68244 10.8855L8.68581 10.883L8.74284 10.94L8.74893 10.9459L8.81521 11.0119L8.81225 11.0145C8.92518 11.1499 8.98969 11.3115 8.99764 11.4789H9.01048C9.10394 11.4842 9.19607 11.5012 9.28403 11.5293C9.24357 11.3778 9.35126 11.2264 9.52452 11.1911C9.54916 11.186 9.57439 11.1836 9.59968 11.1837L9.5995 11.1844ZM16.1287 4.83398L13.9221 6.3278L15.9633 9.22954C15.9767 9.23561 15.9894 9.24296 16.001 9.25143C16.036 9.28296 16.0571 9.32424 16.0608 9.36805L16.3665 9.80265L17.3101 9.33863L16.1287 4.83398Z" fill="black"/>
<path d="M16.325 9.92681L15.9536 9.3986L15.9513 9.37727C15.9499 9.35475 15.9395 9.33338 15.9218 9.31694L15.8814 9.29597L15.869 9.27759L13.7783 6.30631L16.1907 4.67383L17.4263 9.38588L16.325 9.92681ZM16.1566 9.33715L16.3978 9.6798L17.1854 9.29357L16.059 4.99552L14.0567 6.35065L16.0348 9.16263C16.0478 9.16946 16.0599 9.1776 16.0708 9.18691C16.1169 9.22783 16.1472 9.2804 16.1573 9.33718L16.1566 9.33715ZM13.3514 6.84373C12.9234 6.99775 12.4464 7.01289 12.0067 6.88641L10.8483 6.55774C10.7691 6.53577 10.6856 6.52772 10.6028 6.53403C10.5199 6.54034 10.4393 6.5609 10.3656 6.59452L9.97294 6.7768C9.96874 6.77863 9.96517 6.78086 9.96073 6.78251L8.40481 7.50497C8.39394 7.50952 8.3847 7.51659 8.3781 7.52541C8.3715 7.53423 8.36779 7.54446 8.36736 7.55499C8.36652 7.56452 8.36869 7.57406 8.37362 7.58259C8.37855 7.59112 8.38607 7.5983 8.39534 7.60336C8.85302 7.85863 9.63689 8.04476 10.7591 7.48196C10.7973 7.46285 10.8412 7.45429 10.8851 7.45741C10.929 7.46053 10.9707 7.47518 11.0049 7.49944L14.5418 10.0191C14.591 10.0545 14.6355 10.0947 14.6744 10.1389L15.5489 9.37396L13.6851 6.7244L13.3514 6.84373Z" fill="black"/>
<path d="M14.6525 10.277L14.5792 10.1959C14.5454 10.1572 14.5066 10.122 14.4635 10.0911L10.9258 7.57209C10.9081 7.55978 10.8867 7.55235 10.8642 7.55074C10.8417 7.54914 10.8192 7.55343 10.7995 7.56307C9.63139 8.14942 8.8101 7.95151 8.32672 7.68224C8.30175 7.66848 8.28147 7.64909 8.26803 7.62612C8.25458 7.60314 8.24847 7.57742 8.25033 7.55167C8.25157 7.52514 8.26091 7.49939 8.27737 7.47707C8.29384 7.45476 8.31683 7.4367 8.34397 7.42477L10.3041 6.51492C10.3903 6.47548 10.4845 6.45133 10.5813 6.44388C10.6782 6.43643 10.7758 6.44583 10.8685 6.47152L12.0265 6.79964C12.4424 6.91941 12.8936 6.90519 13.2985 6.75955L13.7158 6.61021L15.6699 9.38742L14.6525 10.277ZM10.854 7.3659C10.9283 7.36577 11.0005 7.38798 11.0583 7.4288L14.5954 9.94851C14.6203 9.96608 14.644 9.98493 14.6663 10.005L15.4028 9.36126L13.6295 6.8395L13.3787 6.92926C12.9274 7.09162 12.4246 7.10754 11.961 6.97413L10.8036 6.64565C10.7376 6.62753 10.6682 6.62097 10.5993 6.62634C10.5304 6.63171 10.4634 6.6489 10.4021 6.67693L8.50131 7.55976C8.94174 7.7834 9.66626 7.91968 10.6946 7.40344C10.7431 7.37905 10.798 7.36612 10.854 7.3659Z" fill="black"/>
<path fill-rule="evenodd" clip-rule="evenodd" d="M1.5 1.05664C0.671572 1.05664 0 1.72821 0 2.55664V22.1869C0 23.0153 0.671573 23.6869 1.5 23.6869H17.4193C16.776 23.4613 16.2014 23.1177 15.7305 22.6869H1.5C1.22386 22.6869 1 22.463 1 22.1869V2.55664C1 2.2805 1.22386 2.05664 1.5 2.05664H6.91612V1.05664H1.5ZM18.8919 15.5852C18.9972 15.5792 19.1035 15.5762 19.2105 15.5762C19.4418 15.5762 19.6693 15.5904 19.8919 15.618V2.55664C19.8919 1.72821 19.2203 1.05664 18.3919 1.05664H13.154V2.05664H18.3919C18.668 2.05664 18.8919 2.2805 18.8919 2.55664V15.5852Z" fill="black"/>
<rect x="7.27344" width="5.54119" height="2.80392" rx="0.5" fill="black"/>
<path d="M2.28906 15.5781H13.5173" stroke="black" stroke-linecap="round"/>
<path d="M2.28906 18.127H12.934" stroke="black" stroke-linecap="round"/>
<path d="M2.28906 20.6758H12.6423" stroke="black" stroke-linecap="round"/>
<path d="M23.507 19.7821C23.507 21.7676 21.6418 23.4879 19.1949 23.4879C16.748 23.4879 14.8828 21.7676 14.8828 19.7821C14.8828 17.7965 16.748 16.0762 19.1949 16.0762C21.6418 16.0762 23.507 17.7965 23.507 19.7821Z" fill="white" stroke="black"/>
<ellipse cx="19.2402" cy="18.436" rx="1.73235" ry="1.51412" fill="#FFC000"/>
<path d="M17.881 20.1395C18.8667 20.235 19.5021 20.2414 20.4255 20.1505C20.6301 20.1304 20.8376 20.1684 21.0149 20.2723C21.2011 20.3816 21.3547 20.4825 21.4863 20.5854C21.9012 20.9101 21.7489 21.5284 21.283 21.7743C19.741 22.5881 18.4952 22.5775 17.0178 21.7424C16.5969 21.5044 16.4194 20.9358 16.7687 20.6015C16.9422 20.4355 17.1563 20.3111 17.4514 20.1942C17.5874 20.1403 17.7353 20.1253 17.881 20.1395Z" fill="#FFC000" stroke="#FFC000"/>
</svg>
