<svg width="22" height="26" viewBox="0 0 22 26" fill="none" xmlns="http://www.w3.org/2000/svg">
<path d="M9.74155 10.0463C8.23378 8.96761 10.0858 4.24055 10.691 2.81241C10.7585 2.65307 10.9765 2.65526 11.0411 2.8158C11.618 4.24888 13.3713 8.97409 11.8726 10.0463C11.1158 10.5877 10.4983 10.5877 9.74155 10.0463Z" stroke="black" stroke-linecap="square"/>
<path d="M2.39062 23.0488H6.24063" stroke="black" stroke-linecap="square"/>
<path d="M8.79792 23.0505H12.4646M20.5313 10.4505C20.5313 -2.32457 1.28125 -1.97457 1.28125 10.4505H4.58125" stroke="black" stroke-linecap="square"/>
<path fill-rule="evenodd" clip-rule="evenodd" d="M11.845 5.00879C14.2117 5.42517 16.3752 7.24506 16.747 10.5101L16.7975 10.9535H17.2438H20.5438H21.0438V9.95355H20.5438H17.6791C17.0733 6.25481 14.3473 4.23937 11.4941 3.95187C11.6087 4.27509 11.7291 4.63279 11.845 5.00879ZM10.2665 3.93477C7.23411 4.1562 4.37382 6.33732 4.09491 10.4195L4.06083 10.9183L5.05851 10.9865L5.09259 10.4876C5.32037 7.15371 7.48619 5.33429 9.89773 4.98025C10.0201 4.60805 10.1465 4.2543 10.2665 3.93477Z" fill="black"/>
<rect x="0.5" y="12.3516" width="21" height="13" rx="2.5" stroke="black"/>
<rect x="2.70312" y="14.8008" width="3.76667" height="2.5" rx="1.25" stroke="black"/>
<rect x="2.20312" y="19.5508" width="0.733333" height="1.75" rx="0.366667" fill="black"/>
<rect x="4.03125" y="19.5508" width="0.733333" height="1.75" rx="0.366667" fill="black"/>
<rect x="5.67969" y="19.5508" width="0.733333" height="1.75" rx="0.366667" fill="black"/>
<rect x="8.0625" y="19.5508" width="0.733333" height="1.75" rx="0.366667" fill="black"/>
<rect x="10.0859" y="19.5508" width="0.733333" height="1.75" rx="0.366667" fill="black"/>
<rect x="11.7344" y="19.5508" width="0.733333" height="1.75" rx="0.366667" fill="black"/>
<rect x="14.3047" y="19.5508" width="0.733333" height="1.75" rx="0.366667" fill="black"/>
<rect x="16.1406" y="19.5508" width="0.733333" height="1.75" rx="0.366667" fill="black"/>
<rect x="17.9688" y="19.5508" width="0.733333" height="1.75" rx="0.366667" fill="black"/>
<path d="M5.14062 2.75L7.34063 5.375" stroke="black" stroke-linecap="square"/>
<path d="M16.3214 2.57422L14.3047 5.37422" stroke="black" stroke-linecap="square"/>
</svg>
