<svg width="26" height="32" viewBox="0 0 26 32" fill="none" xmlns="http://www.w3.org/2000/svg">
<path d="M20.1922 10.5117H6.14844C5.04387 10.5117 4.14844 11.4071 4.14844 12.5117V19.5482C4.14844 20.6528 5.04387 21.5482 6.14843 21.5482H20.1922C21.2968 21.5482 22.1922 20.6528 22.1922 19.5482V12.5117C22.1922 11.4071 21.2968 10.5117 20.1922 10.5117Z" stroke="#FFC000" stroke-linecap="square"/>
<path d="M15.5401 8.40876C14.2536 5.35332 13.185 4.37415 5.90721 0.972987C4.5907 0.357735 2.8837 0.30183 1.9752 1.43601C1.11898 2.50492 1.38993 4.02816 2.24927 5.09457C2.84933 5.83922 3.59603 6.62181 4.32847 7.0073C6.46959 8.13421 8.24826 9.76856 9.24479 10.7912C9.83709 11.399 10.7922 12.4387 11.2753 11.7409C11.4696 11.4602 11.4314 10.9623 11.1606 10.5109C10.8053 9.91888 9.56966 8.28629 8.8061 7.29036C8.55294 6.96016 8.79017 6.48523 9.20324 6.53516C10.5549 6.69853 11.186 7.25231 12.0365 8.40876H15.5401Z" fill="black" stroke="black" stroke-linecap="square"/>
<path d="M10.4599 23.353C11.7464 26.4084 12.815 27.3876 20.0928 30.7887C21.4093 31.404 23.1163 31.4599 24.0248 30.3257C24.881 29.2568 24.6101 27.7336 23.7507 26.6671C23.1507 25.9225 22.404 25.1399 21.6715 24.7544C19.5304 23.6275 17.7517 21.9932 16.7552 20.9705C16.1629 20.3627 15.2078 19.323 14.7247 20.0208C14.5304 20.3015 14.5686 20.7994 14.8394 21.2508C15.1947 21.8428 16.4303 23.4754 17.1939 24.4714C17.4471 24.8016 17.2098 25.2765 16.7968 25.2266C15.4451 25.0632 14.814 24.5094 13.9635 23.353H10.4599Z" fill="black" stroke="black" stroke-linecap="square"/>
<path d="M4.67969 13.6641H21.4972" stroke="#FFC000" stroke-linecap="square"/>
<path d="M6.42969 17.6934H12.0355" stroke="black" stroke-linecap="square"/>
<rect x="15.3594" y="15.9414" width="4.90511" height="3.15328" rx="1" fill="black"/>
</svg>
