<svg width="45" height="48" viewBox="0 0 45 48" fill="none" xmlns="http://www.w3.org/2000/svg">
<path d="M2.93831 29.6884L5.50422 25.5397L8.69841 28.9406" stroke="#C8D0DB" stroke-linecap="round" stroke-linejoin="round"/>
<path d="M5.49131 26.9378C6.82282 35.4245 14.043 41.7098 22.5848 41.8181C31.1264 41.9265 38.5019 35.8263 40.0459 27.3762" stroke="#C8D0DB" stroke-linecap="round" stroke-linejoin="round"/>
<path d="M41.8417 17.5817L39.2758 21.7303L36.0816 18.3294" stroke="#C8D0DB" stroke-linecap="round" stroke-linejoin="round"/>
<path d="M39.2887 20.3322C37.9572 11.8455 30.7371 5.56018 22.1952 5.45188C13.6537 5.3435 6.27809 11.4437 4.73417 19.8938" stroke="#C8D0DB" stroke-linecap="round" stroke-linejoin="round"/>
<path d="M27.3046 26.3316H26.1842V25.2493H27.3046C27.4728 25.2493 27.6091 25.1122 27.6091 24.9419C27.6091 24.7727 27.4728 24.6356 27.3046 24.6356H26.1842V23.1338C26.1842 22.9144 26.141 22.7532 26.0569 22.6561C25.9762 22.5624 25.8694 22.5189 25.7228 22.5189C25.5819 22.5189 25.4807 22.5624 25.4012 22.6549C25.3171 22.7532 25.2751 22.9144 25.2751 23.1338V24.6356H23.1683L22.2717 23.2732C22.2001 23.1578 22.1262 23.0424 22.0535 22.9281C21.9899 22.8298 21.9285 22.7486 21.8706 22.6892C21.8194 22.6366 21.7615 22.5955 21.6921 22.5635C21.6274 22.5338 21.5456 22.5189 21.4478 22.5189C21.324 22.5189 21.2115 22.5532 21.1035 22.6229C20.9978 22.6926 20.924 22.7784 20.8785 22.8858C20.8387 22.9875 20.8183 23.1441 20.8183 23.3452V24.6356H19.7092C19.541 24.6356 19.4047 24.7727 19.4047 24.943C19.4047 25.1122 19.541 25.2493 19.7092 25.2493H20.8183V26.3316H19.7092C19.541 26.3316 19.4047 26.4688 19.4047 26.6379C19.4047 26.8071 19.541 26.9442 19.7092 26.9442H20.8183V28.6597C20.8183 28.8723 20.8626 29.0312 20.9501 29.1329C21.0342 29.2289 21.141 29.2735 21.2842 29.2735C21.424 29.2735 21.5296 29.2289 21.616 29.1317C21.7058 29.0335 21.7512 28.8734 21.7512 28.6597V26.9442H23.658L24.6887 28.5351C24.7614 28.6414 24.8342 28.7466 24.9092 28.8506C24.9751 28.9443 25.0478 29.0266 25.1251 29.0952C25.1944 29.158 25.2683 29.2026 25.3455 29.2312C25.4239 29.2597 25.5171 29.2746 25.6194 29.2746C25.8989 29.2746 26.1842 29.1877 26.1842 28.5511V26.9442H27.3046C27.4728 26.9442 27.6091 26.8071 27.6091 26.6379C27.6091 26.4688 27.4728 26.3316 27.3046 26.3316ZM25.2751 25.2493V26.3316H24.2819L23.5705 25.2493H25.2751ZM21.7512 24.0047L22.1603 24.6356H21.7512V24.0047ZM21.7512 26.3316V25.2493H22.558L23.2603 26.3316H21.7512ZM25.2751 27.8425L24.6842 26.9442H25.2751V27.8425Z" fill="#C8D0DB"/>
<path d="M23.1373 34.4178C27.6637 34.4178 31.346 30.9039 31.346 26.5847C31.346 23.2689 29.1064 19.9322 25.6405 18.085C25.5498 18.0368 25.5129 17.9286 25.5537 17.8335L26.5177 15.5876C26.7775 14.9829 26.6265 14.2818 26.1426 13.8433C25.7131 13.4556 25.0996 13.4042 24.6143 13.7169L24.3435 13.8922C24.2619 13.9443 24.1758 13.945 24.0954 13.8928L23.8169 13.7137C23.3971 13.4439 22.8756 13.4439 22.457 13.7137L22.1772 13.8928C22.0969 13.9443 22.0113 13.9443 21.9323 13.8935L21.6576 13.7156C21.1737 13.4035 20.5595 13.4543 20.13 13.8427C19.6461 14.2812 19.4958 14.9823 19.7549 15.5869L20.7196 17.8342C20.7604 17.928 20.7228 18.0355 20.6321 18.0837C17.1662 19.9315 14.9266 23.2676 14.9266 26.5834C14.9266 30.9039 18.6102 34.4178 23.1373 34.4178ZM20.706 15.1745C20.6211 14.977 20.6671 14.7588 20.8226 14.6174C20.8686 14.5763 20.9223 14.5548 20.9761 14.5548C21.0176 14.5548 21.059 14.5672 21.0972 14.592L21.3739 14.7712C21.795 15.0402 22.3165 15.0396 22.7343 14.7705L23.0142 14.5913C23.0939 14.5398 23.1787 14.5398 23.2591 14.5913L23.5376 14.7705C23.9561 15.0396 24.4776 15.0402 24.9013 14.7692L25.1741 14.5926C25.2635 14.5346 25.3691 14.5444 25.4494 14.6167C25.6055 14.7581 25.6515 14.977 25.5667 15.1738L24.6027 17.4191C24.5398 17.5644 24.5074 17.7149 24.501 17.8635C24.1621 17.9365 23.789 17.9749 23.3996 17.9749C22.8535 17.9749 22.3165 17.8961 21.8876 17.754C21.8442 17.7397 21.8001 17.7319 21.7567 17.7293C21.7418 17.6244 21.7133 17.5208 21.6699 17.4198L20.706 15.1745ZM21.1173 19.005C21.2564 18.9307 21.3798 18.8301 21.4808 18.7086C21.5067 18.7222 21.5332 18.7346 21.5624 18.7444C22.1007 18.9236 22.7363 19.0181 23.3996 19.0181C23.9348 19.0181 24.4511 18.9555 24.9143 18.8369C24.9862 18.9008 25.0659 18.9581 25.1546 19.0057C28.2863 20.675 30.3094 23.65 30.3094 26.5853C30.3094 30.3299 27.0916 33.3766 23.1366 33.3766C19.1803 33.3766 15.9619 30.3299 15.9619 26.5853C15.9625 23.6494 17.9857 20.6743 21.1173 19.005Z" fill="#C8D0DB" stroke="#C8D0DB" stroke-width="0.3"/>
</svg>
