<svg width="24" height="24" viewBox="0 0 24 24" fill="none" xmlns="http://www.w3.org/2000/svg">
<path d="M23.9766 17.3075L21.3516 10.4488C21.3188 10.3632 21.2539 10.2938 21.1708 10.2554C21.0876 10.2169 20.9927 10.2125 20.9063 10.243L18.1407 11.2297C18.0962 11.2456 18.0555 11.2703 18.0208 11.3023C17.9861 11.3343 17.9581 11.3729 17.9386 11.4159C17.9191 11.4588 17.9085 11.5053 17.9073 11.5525C17.9061 11.5996 17.9143 11.6466 17.9316 11.6905L18.1721 12.2999L16.2849 13.1961L13.1874 12.6144C12.8857 12.558 12.5756 12.5644 12.2766 12.6333C11.9775 12.7022 11.6959 12.832 11.4492 13.0147L10.8957 13.4253L10.5291 13.1614C10.2524 12.9633 9.93426 12.8308 9.59875 12.7739C9.26324 12.7171 8.91918 12.7374 8.59269 12.8333L7.40394 13.1872L5.84675 12.2563L6.07034 11.691C6.08761 11.647 6.09588 11.6001 6.09467 11.5529C6.09346 11.5058 6.08279 11.4593 6.06329 11.4163C6.04379 11.3734 6.01587 11.3347 5.98117 11.3028C5.94647 11.2708 5.9057 11.2461 5.86128 11.2302L3.09378 10.243C3.00726 10.2122 2.91213 10.2165 2.82873 10.255C2.74534 10.2934 2.6803 10.363 2.64753 10.4488L0.0234678 17.3075C-0.00906815 17.392 -0.00772819 17.4857 0.027208 17.5692C0.0621443 17.6527 0.127977 17.7195 0.210968 17.7556L2.83597 18.8867C2.87921 18.9054 2.92576 18.9152 2.97287 18.9156C3.01997 18.9159 3.06666 18.9068 3.11017 18.8887C3.15367 18.8706 3.1931 18.844 3.22612 18.8104C3.25914 18.7768 3.28507 18.737 3.30237 18.6931L3.56675 18.0242L5.74269 19.2505C5.59606 19.4634 5.52853 19.7208 5.55182 19.9783C5.57511 20.2357 5.68774 20.4769 5.87019 20.66C5.97282 20.7627 6.09472 20.8441 6.2289 20.8995C6.36308 20.9549 6.50689 20.9833 6.65206 20.983H6.67972C6.70433 21.258 6.83108 21.5139 7.03499 21.7001C7.23889 21.8863 7.50515 21.9893 7.78128 21.9889H7.80987C7.83214 22.2474 7.94504 22.4896 8.12862 22.6728C8.23125 22.7755 8.35316 22.8569 8.48734 22.9123C8.62152 22.9678 8.76532 22.9961 8.9105 22.9958H8.93816C8.95675 23.2053 9.03474 23.4052 9.16296 23.5719C9.29118 23.7386 9.46432 23.8653 9.66203 23.9371C9.85974 24.0088 10.0738 24.0227 10.2791 23.977C10.4845 23.9313 10.6725 23.828 10.8211 23.6792L11.2388 23.2621L11.8041 23.6839C12.0436 23.8624 12.3395 23.9484 12.6373 23.926C12.9352 23.9036 13.2149 23.7744 13.425 23.5621L13.4649 23.5217C13.6423 23.3406 13.7601 23.1095 13.8024 22.8594C14.0139 22.9191 14.2375 22.9215 14.4502 22.8662C14.6629 22.8109 14.857 22.7 15.0127 22.5449L15.0417 22.5158C15.239 22.3189 15.3636 22.061 15.3952 21.7841C15.6083 21.8476 15.8347 21.8521 16.0502 21.7972C16.2657 21.7423 16.4623 21.6301 16.6191 21.4724L16.6388 21.4527C16.8311 21.2621 16.9544 21.0129 16.9894 20.7444C17.1792 20.7897 17.3769 20.7894 17.5666 20.7435C17.7562 20.6976 17.9322 20.6075 18.0804 20.4805C18.2285 20.3536 18.3444 20.1933 18.4187 20.0129C18.4929 19.8325 18.5234 19.6371 18.5077 19.4427C18.5015 19.3673 18.4885 19.2926 18.4688 19.2196L20.5121 18.2192L20.6996 18.6917C20.7168 18.7356 20.7426 18.7756 20.7756 18.8093C20.8086 18.8429 20.8481 18.8696 20.8916 18.8877C20.9352 18.9058 20.9819 18.9149 21.029 18.9145C21.0762 18.9141 21.1227 18.9041 21.166 18.8853L23.791 17.7542C23.8733 17.7178 23.9384 17.6511 23.973 17.568C24.0075 17.4848 24.0088 17.3916 23.9766 17.3075ZM2.78112 18.0978L0.800655 17.2438L3.1805 11.0211L3.76409 11.2288L2.63909 14.4266C2.60801 14.5146 2.61317 14.6114 2.65343 14.6956C2.69369 14.7798 2.76576 14.8446 2.85378 14.8756C2.9418 14.9067 3.03856 14.9016 3.12277 14.8613C3.20699 14.821 3.27176 14.749 3.30284 14.661L4.42503 11.4664L5.2805 11.7716L2.78112 18.0978ZM6.93753 20.1627C6.86162 20.2355 6.7602 20.2758 6.65499 20.2748C6.54977 20.2739 6.4491 20.2318 6.37455 20.1575C6.29999 20.0833 6.25746 19.9828 6.25606 19.8776C6.25466 19.7723 6.2945 19.6708 6.36706 19.5946L7.11706 18.8446C7.17346 18.7884 7.24524 18.7501 7.32335 18.7347C7.40145 18.7192 7.48239 18.7272 7.55594 18.7577C7.62949 18.7882 7.69237 18.8398 7.73664 18.906C7.78092 18.9721 7.8046 19.0499 7.80472 19.1296C7.8049 19.1824 7.79455 19.2348 7.77427 19.2837C7.75399 19.3325 7.72418 19.3769 7.68659 19.4141L6.93753 20.1627ZM8.12909 21.1077C8.108 21.1283 8.08925 21.1503 8.0705 21.1724L8.06675 21.1681C8.0297 21.2069 7.98527 21.2379 7.93608 21.2593C7.88688 21.2807 7.83391 21.292 7.78027 21.2927C7.72663 21.2933 7.67341 21.2832 7.62373 21.263C7.57404 21.2427 7.5289 21.2128 7.49096 21.1749C7.45301 21.137 7.42302 21.0918 7.40275 21.0422C7.38249 20.9925 7.37235 20.9393 7.37293 20.8857C7.37351 20.832 7.38481 20.779 7.40615 20.7298C7.42749 20.6806 7.45846 20.6362 7.49722 20.5991L8.18534 19.9114C8.20597 19.8908 8.22566 19.8692 8.24441 19.8472L8.24769 19.8505C8.32372 19.7778 8.4252 19.7377 8.53041 19.7388C8.63562 19.74 8.7362 19.7822 8.81063 19.8566C8.88506 19.931 8.92743 20.0315 8.92866 20.1367C8.92989 20.2419 8.88989 20.3435 8.81722 20.4196L8.12909 21.1077ZM9.19409 22.1727C9.11746 22.2415 9.01738 22.2783 8.91443 22.2756C8.81147 22.2729 8.71348 22.2308 8.64059 22.158C8.56771 22.0853 8.52548 21.9873 8.52258 21.8844C8.51969 21.7814 8.55635 21.6813 8.62503 21.6046L9.37503 20.8546C9.41141 20.8133 9.45585 20.78 9.50559 20.7566C9.55534 20.7333 9.60935 20.7203 9.66429 20.7186C9.71923 20.7169 9.77394 20.7264 9.82505 20.7467C9.87616 20.7669 9.92259 20.7974 9.96147 20.8362C10.0004 20.8751 10.0309 20.9215 10.0511 20.9726C10.0714 21.0237 10.081 21.0784 10.0793 21.1333C10.0777 21.1883 10.0648 21.2423 10.0414 21.292C10.0181 21.3418 9.9848 21.3863 9.94362 21.4227L9.19409 22.1727ZM11.0728 22.4286L10.3228 23.1786C10.2468 23.2513 10.1453 23.2914 10.0401 23.2903C9.93491 23.2891 9.83433 23.2469 9.7599 23.1725C9.68546 23.0981 9.6431 22.9976 9.64187 22.8924C9.64064 22.7872 9.68064 22.6856 9.75331 22.6096L10.4414 21.9219C10.4621 21.9013 10.4817 21.8797 10.5005 21.8577L10.5038 21.861C10.5798 21.7882 10.6813 21.7481 10.7865 21.7493C10.8917 21.7504 10.9923 21.7927 11.0667 21.8671C11.1412 21.9414 11.1835 22.042 11.1848 22.1472C11.186 22.2524 11.146 22.3539 11.0733 22.43L11.0728 22.4286ZM17.6522 19.9161C17.5588 20.0106 17.4332 20.0664 17.3004 20.0724C17.1677 20.0784 17.0375 20.0341 16.936 19.9485L16.6617 19.7202C16.6426 19.6923 16.6196 19.6674 16.5933 19.6461L15.961 19.138C15.8881 19.0832 15.7968 19.0589 15.7063 19.0702C15.6159 19.0814 15.5333 19.1274 15.4761 19.1984C15.4189 19.2693 15.3915 19.3598 15.3996 19.4505C15.4078 19.5413 15.4509 19.6254 15.5199 19.685L16.0655 20.1252C16.0807 20.1461 16.0979 20.1654 16.1171 20.1828C16.1713 20.2308 16.2151 20.2894 16.2458 20.355C16.2765 20.4205 16.2935 20.4917 16.2957 20.564C16.2979 20.6364 16.2852 20.7084 16.2586 20.7757C16.2319 20.843 16.1917 20.9041 16.1405 20.9553L16.1208 20.975C16.0319 21.0643 15.9141 21.119 15.7885 21.1293C15.6629 21.1396 15.5378 21.1049 15.4355 21.0313L14.8922 20.6422L14.8866 20.638L14.6813 20.4913C14.6054 20.437 14.5112 20.4151 14.4192 20.4303C14.3272 20.4456 14.245 20.4968 14.1907 20.5726C14.1365 20.6484 14.1145 20.7427 14.1298 20.8347C14.1451 20.9267 14.1962 21.0089 14.2721 21.0631L14.4811 21.2127C14.5432 21.2579 14.5947 21.316 14.6321 21.383C14.6696 21.4501 14.692 21.5244 14.6979 21.601C14.7039 21.6775 14.6931 21.7544 14.6665 21.8264C14.6398 21.8984 14.5978 21.9638 14.5435 22.018L14.5144 22.0471C14.4188 22.1426 14.2903 22.1981 14.1552 22.2024C14.0201 22.2067 13.8884 22.1593 13.7869 22.07L13.201 21.5544C13.1673 21.5195 13.1268 21.4919 13.082 21.4734C13.0372 21.4549 12.989 21.4459 12.9405 21.4469C12.8921 21.4479 12.8443 21.459 12.8003 21.4793C12.7563 21.4997 12.717 21.5289 12.6848 21.5652C12.6526 21.6015 12.6283 21.644 12.6134 21.6902C12.5985 21.7363 12.5932 21.785 12.5981 21.8332C12.6029 21.8815 12.6176 21.9282 12.6413 21.9705C12.6651 22.0128 12.6973 22.0497 12.736 22.0789L12.9352 22.2552C12.9895 22.3029 13.0334 22.3612 13.0644 22.4265C13.0954 22.4918 13.1127 22.5628 13.1153 22.635C13.1178 22.7072 13.1057 22.7792 13.0795 22.8466C13.0532 22.9139 13.0136 22.9753 12.9628 23.0267L12.923 23.0671C12.8325 23.1585 12.7121 23.2141 12.5838 23.2238C12.4556 23.2334 12.3282 23.1964 12.225 23.1196L11.7188 22.7417C11.8258 22.5746 11.8858 22.3818 11.8927 22.1835C11.8995 21.9852 11.8528 21.7887 11.7576 21.6147C11.6623 21.4406 11.522 21.2954 11.3513 21.1942C11.1806 21.093 10.9858 21.0397 10.7874 21.0397H10.7597C10.735 20.7648 10.6083 20.509 10.4045 20.3227C10.2008 20.1365 9.93469 20.0332 9.65862 20.0333H9.63003C9.60452 19.7543 9.47371 19.4955 9.26422 19.3095C9.05472 19.1236 8.78226 19.0243 8.50222 19.0321C8.48015 18.7736 8.36702 18.5314 8.183 18.3486C7.97551 18.1415 7.6943 18.0252 7.40112 18.0252C7.10794 18.0252 6.82674 18.1415 6.61925 18.3486L6.24097 18.7264L3.82691 17.3671L5.58378 12.9214L7.17472 13.8725C7.21659 13.8976 7.26322 13.9136 7.31164 13.9197C7.36006 13.9258 7.40921 13.9217 7.45597 13.9077L8.79284 13.5097C9.0162 13.4439 9.25162 13.4298 9.48122 13.4686C9.71083 13.5073 9.92859 13.5979 10.118 13.7333L10.3027 13.8664L8.42347 15.261C8.28403 15.3645 8.17062 15.499 8.09221 15.654C8.01381 15.809 7.97256 15.98 7.97174 16.1537C7.97092 16.3274 8.01055 16.4988 8.0875 16.6545C8.16444 16.8102 8.27658 16.9458 8.41503 17.0506C8.67617 17.2467 8.99046 17.3593 9.31669 17.3736C9.64292 17.3879 9.96586 17.3032 10.2432 17.1308L11.7188 16.2022C11.8903 16.5444 12.211 17.0094 12.7678 17.2958C13.4133 17.6277 14.198 17.6361 15.1027 17.3211L17.5871 19.1103C17.6495 19.1554 17.7014 19.2135 17.7392 19.2806C17.777 19.3477 17.7997 19.4221 17.8059 19.4989C17.8121 19.5756 17.8016 19.6528 17.7751 19.7251C17.7485 19.7974 17.7066 19.863 17.6522 19.9175V19.9161ZM18.1041 18.6149L15.3624 16.6414C15.3148 16.6073 15.2594 16.5855 15.2013 16.5781C15.1432 16.5708 15.0842 16.578 15.0296 16.5992C14.2467 16.903 13.5966 16.9274 13.096 16.6738C12.4332 16.3367 12.2302 15.5999 12.2283 15.5956C12.2146 15.542 12.1885 15.4924 12.152 15.4508C12.1154 15.4091 12.0696 15.3767 12.0182 15.3562C11.9668 15.3356 11.9113 15.3275 11.8562 15.3324C11.8011 15.3374 11.7479 15.3553 11.701 15.3847L9.86909 16.5336C9.71258 16.6309 9.53028 16.6785 9.3462 16.6701C9.16212 16.6617 8.98488 16.5978 8.83784 16.4867C8.78643 16.4479 8.74478 16.3976 8.7162 16.3399C8.68762 16.2821 8.67291 16.2185 8.67323 16.154C8.67355 16.0896 8.68889 16.0261 8.71803 15.9687C8.74718 15.9112 8.78933 15.8613 8.84112 15.823L11.8664 13.5777C12.0352 13.4527 12.2279 13.364 12.4325 13.3169C12.6371 13.2698 12.8493 13.2654 13.0557 13.3039L16.2657 13.9067C16.3386 13.9207 16.4142 13.911 16.4813 13.8791L18.4294 12.9538L20.2514 17.5644L18.1041 18.6149ZM21.2189 18.0964L18.7182 11.7683L19.5741 11.4631L20.6958 14.6577C20.7269 14.7457 20.7917 14.8178 20.8759 14.858C20.9601 14.8983 21.0569 14.9034 21.1449 14.8724C21.2329 14.8413 21.305 14.7765 21.3452 14.6923C21.3855 14.6081 21.3906 14.5113 21.3596 14.4233L20.2346 11.2255L20.8182 11.0178L23.198 17.2405L21.2189 18.0964Z" fill="#20336B"/>
<path d="M12 11.0156C13.0893 11.0156 14.1542 10.6926 15.06 10.0874C15.9657 9.48219 16.6717 8.62198 17.0886 7.61556C17.5054 6.60914 17.6145 5.50171 17.402 4.43329C17.1895 3.36488 16.6649 2.38348 15.8946 1.6132C15.1243 0.842922 14.1429 0.318354 13.0745 0.105834C12.0061 -0.106687 10.8987 0.00238645 9.89225 0.41926C8.88583 0.836133 8.02563 1.54208 7.42042 2.44784C6.81522 3.35359 6.49219 4.41847 6.49219 5.50781C6.4938 6.96808 7.0746 8.36808 8.10717 9.40064C9.13974 10.4332 10.5397 11.014 12 11.0156ZM12 0.703128C12.9503 0.703128 13.8792 0.984917 14.6693 1.51286C15.4595 2.04081 16.0753 2.7912 16.439 3.66914C16.8026 4.54708 16.8978 5.51314 16.7124 6.44516C16.527 7.37718 16.0694 8.23329 15.3974 8.90524C14.7255 9.57719 13.8694 10.0348 12.9373 10.2202C12.0053 10.4056 11.0393 10.3104 10.1613 9.94677C9.28338 9.58311 8.53299 8.96728 8.00505 8.17716C7.4771 7.38703 7.19531 6.45809 7.19531 5.50781C7.19668 4.23395 7.70332 3.01265 8.60408 2.1119C9.50484 1.21114 10.7261 0.704492 12 0.703128Z" fill="#2C007D"/>
<path d="M12 9.60938C12.8112 9.60938 13.6042 9.36882 14.2787 8.91814C14.9532 8.46745 15.4789 7.82688 15.7893 7.07741C16.0998 6.32795 16.181 5.50326 16.0228 4.70764C15.8645 3.91201 15.4739 3.18119 14.9002 2.60757C14.3266 2.03396 13.5958 1.64332 12.8002 1.48506C12.0045 1.3268 11.1799 1.40803 10.4304 1.71846C9.68094 2.0289 9.04036 2.55461 8.58968 3.22911C8.13899 3.90361 7.89844 4.6966 7.89844 5.50781C7.89968 6.59524 8.3322 7.63776 9.10113 8.40669C9.87005 9.17561 10.9126 9.60814 12 9.60938ZM12 2.10938C12.6721 2.10938 13.3292 2.30869 13.8881 2.68212C14.4469 3.05554 14.8825 3.5863 15.1397 4.20729C15.397 4.82827 15.4643 5.51158 15.3331 6.17082C15.202 6.83005 14.8783 7.43559 14.4031 7.91087C13.9278 8.38615 13.3222 8.70982 12.663 8.84095C12.0038 8.97208 11.3205 8.90478 10.6995 8.64756C10.0785 8.39034 9.54773 7.95476 9.1743 7.39588C8.80088 6.83701 8.60156 6.17996 8.60156 5.50781C8.60256 4.6068 8.96092 3.74297 9.59804 3.10585C10.2352 2.46874 11.099 2.11037 12 2.10938ZM19.0753 5.50781C19.0753 5.55398 19.0844 5.5997 19.1021 5.64235C19.1197 5.685 19.1456 5.72376 19.1783 5.75641C19.2109 5.78905 19.2497 5.81495 19.2923 5.83262C19.335 5.85028 19.3807 5.85938 19.4269 5.85938H21.375C21.4682 5.85938 21.5577 5.82234 21.6236 5.75641C21.6895 5.69048 21.7266 5.60105 21.7266 5.50781C21.7266 5.41457 21.6895 5.32515 21.6236 5.25922C21.5577 5.19329 21.4682 5.15625 21.375 5.15625H19.4269C19.3336 5.15625 19.2442 5.19329 19.1783 5.25922C19.1124 5.32515 19.0753 5.41457 19.0753 5.50781ZM18.6966 3.90516C18.759 3.90564 18.8205 3.88946 18.8747 3.85828L20.3353 3C20.4161 2.95282 20.4749 2.87547 20.4987 2.78497C20.5224 2.69447 20.5093 2.59823 20.4621 2.51742C20.4149 2.43662 20.3376 2.37786 20.2471 2.35408C20.1566 2.3303 20.0603 2.34345 19.9795 2.39063L18.5184 3.25031C18.4511 3.28906 18.3985 3.349 18.3689 3.42078C18.3392 3.49257 18.3342 3.57215 18.3545 3.6471C18.3749 3.72206 18.4195 3.78817 18.4813 3.83511C18.5432 3.88205 18.6189 3.90717 18.6966 3.90656V3.90516ZM18.5184 7.76531L19.9795 8.625C20.0195 8.64836 20.0638 8.66361 20.1097 8.66989C20.1556 8.67616 20.2023 8.67332 20.2471 8.66155C20.2919 8.64977 20.3339 8.62929 20.3708 8.60126C20.4077 8.57324 20.4387 8.53822 20.4621 8.49821C20.4855 8.45819 20.5007 8.41397 20.507 8.36806C20.5133 8.32216 20.5104 8.27547 20.4987 8.23066C20.4869 8.18584 20.4664 8.14379 20.4384 8.1069C20.4103 8.07 20.3753 8.03899 20.3353 8.01563L18.8747 7.15781C18.8349 7.13356 18.7906 7.11747 18.7445 7.11048C18.6984 7.10349 18.6514 7.10575 18.6061 7.11711C18.5609 7.12848 18.5184 7.14872 18.4811 7.17668C18.4438 7.20463 18.4124 7.23973 18.3887 7.27993C18.3651 7.32013 18.3497 7.36463 18.3434 7.41084C18.3372 7.45704 18.3402 7.50404 18.3522 7.54908C18.3643 7.59412 18.3852 7.63631 18.4138 7.67319C18.4423 7.71007 18.4779 7.74091 18.5184 7.76391V7.76531ZM2.625 5.85938H4.57312C4.66637 5.85938 4.75579 5.82234 4.82172 5.75641C4.88765 5.69048 4.92469 5.60105 4.92469 5.50781C4.92469 5.41457 4.88765 5.32515 4.82172 5.25922C4.75579 5.19329 4.66637 5.15625 4.57312 5.15625H2.625C2.53176 5.15625 2.44234 5.19329 2.37641 5.25922C2.31048 5.32515 2.27344 5.41457 2.27344 5.50781C2.27344 5.60105 2.31048 5.69048 2.37641 5.75641C2.44234 5.82234 2.53176 5.85938 2.625 5.85938ZM3.66469 3L5.12531 3.85781C5.16514 3.88207 5.20939 3.89816 5.2555 3.90515C5.3016 3.91214 5.34863 3.90988 5.39386 3.89852C5.43908 3.88715 5.4816 3.86691 5.51892 3.83895C5.55624 3.811 5.58764 3.7759 5.61126 3.7357C5.63489 3.6955 5.65029 3.651 5.65655 3.60479C5.66282 3.55859 5.65983 3.51159 5.64776 3.46655C5.63569 3.42151 5.61478 3.37932 5.58625 3.34244C5.55771 3.30556 5.52213 3.27472 5.48156 3.25172L4.02047 2.39063C3.98046 2.36727 3.93624 2.35201 3.89033 2.34574C3.84442 2.33947 3.79773 2.34231 3.75292 2.35408C3.66242 2.37786 3.58507 2.43662 3.53789 2.51742C3.49071 2.59823 3.47756 2.69447 3.50134 2.78497C3.52512 2.87547 3.58388 2.95282 3.66469 3ZM5.12531 7.15922L3.66469 8.01563C3.58388 8.06281 3.52512 8.14015 3.50134 8.23066C3.47756 8.32116 3.49071 8.4174 3.53789 8.49821C3.58507 8.57901 3.66242 8.63777 3.75292 8.66155C3.84342 8.68533 3.93966 8.67218 4.02047 8.625L5.48156 7.76672C5.52213 7.74372 5.55771 7.71289 5.58625 7.676C5.61478 7.63912 5.63569 7.59693 5.64776 7.55189C5.65983 7.50685 5.66282 7.45986 5.65655 7.41365C5.65029 7.36744 5.63489 7.32294 5.61126 7.28274C5.58764 7.24254 5.55624 7.20744 5.51892 7.17949C5.4816 7.15154 5.43908 7.13129 5.39386 7.11992C5.34863 7.10856 5.3016 7.10631 5.2555 7.11329C5.20939 7.12028 5.16514 7.13637 5.12531 7.16063V7.15922Z" fill="#00BAF2"/>
<path d="M11.2127 7.03754C11.2456 7.07298 11.2855 7.10124 11.3299 7.12057C11.3743 7.1399 11.4221 7.14987 11.4705 7.14987C11.5189 7.14987 11.5668 7.1399 11.6111 7.12057C11.6555 7.10124 11.6954 7.07298 11.7283 7.03754L14.1349 4.45942C14.1664 4.42556 14.1909 4.38583 14.2071 4.34249C14.2233 4.29915 14.2307 4.25305 14.2291 4.20682C14.2274 4.1606 14.2167 4.11515 14.1975 4.07308C14.1783 4.031 14.1509 3.99312 14.1171 3.96161C14.0832 3.93009 14.0435 3.90555 14.0001 3.88939C13.9568 3.87323 13.9107 3.86576 13.8645 3.86741C13.8183 3.86907 13.7728 3.87981 13.7307 3.89903C13.6887 3.91825 13.6508 3.94556 13.6193 3.97942L11.47 6.28192L10.3835 5.11801C10.3198 5.04964 10.2316 5.00935 10.1383 5.00601C10.0449 5.00267 9.95405 5.03655 9.88567 5.1002C9.81729 5.16385 9.777 5.25206 9.77366 5.34542C9.77032 5.43878 9.80421 5.52964 9.86786 5.59801L11.2127 7.03754Z" fill="#00BAF2"/>
</svg>
