<svg width="24" height="22" viewBox="0 0 24 22" fill="none" xmlns="http://www.w3.org/2000/svg">
<path d="M13.6824 10.1077C13.9645 10.223 14.2564 10.302 14.5516 10.3453L14.6456 11.0862C14.9846 11.1206 15.3264 11.1164 15.6645 11.0738C16.0024 11.0307 16.3344 10.9497 16.6542 10.8322L16.5606 10.091C16.8384 9.97422 17.1011 9.8243 17.3429 9.64448L17.933 10.1021C18.4624 9.6696 18.8869 9.1227 19.1744 8.50252L18.5838 8.0445C18.6978 7.76546 18.7776 7.47361 18.8213 7.17534L19.5585 7.08213C19.6255 6.40173 19.537 5.71499 19.2996 5.07384L18.5672 5.16642C18.4506 4.88843 18.3007 4.62558 18.1209 4.38365L18.5771 3.79502C18.3627 3.52996 18.1184 3.29052 17.8491 3.08146C17.5795 2.87346 17.2876 2.69628 16.9786 2.55323L16.521 3.14331C16.242 3.02924 15.9501 2.94946 15.6518 2.90572L15.5581 2.16488C15.2191 2.13043 14.8772 2.13458 14.5392 2.17726C14.2012 2.22033 13.8692 2.30144 13.5494 2.41904L13.6431 3.15988C13.3651 3.27654 13.1023 3.42651 12.8605 3.60652L12.27 3.14877C11.7403 3.58098 11.3158 4.12796 11.0286 4.74835L11.6192 5.20637C11.5042 5.48853 11.4252 5.78041 11.3819 6.07559L10.6449 6.16887C10.5778 6.84934 10.6664 7.53616 10.9038 8.17737L11.6362 8.08458C11.7528 8.36257 11.9027 8.62541 12.0825 8.86735L11.6264 9.45555C11.8408 9.72055 12.0851 9.95996 12.3543 10.169C12.6269 10.3806 12.9195 10.5565 13.225 10.698L13.6824 10.1077ZM13.8609 8.22583C13.4452 7.8938 13.1768 7.41151 13.1138 6.88322C13.0508 6.35493 13.1983 5.82307 13.5243 5.40259C13.8502 4.98212 14.3286 4.70681 14.8559 4.63618C15.3832 4.56554 15.9172 4.70525 16.3423 5.0251C16.7668 5.35416 17.0431 5.83835 17.1106 6.37116C17.178 6.90396 17.031 7.44174 16.702 7.86618C16.3729 8.29063 15.8887 8.56697 15.3559 8.63442C14.8231 8.70186 14.2853 8.55489 13.8609 8.22583ZM17.9131 15.33C18.0424 15.369 18.173 15.394 18.3028 15.4084L18.4409 15.9962C18.9313 16.0144 19.4176 15.9008 19.8491 15.6671L19.7108 15.0778C19.9347 14.9343 20.1301 14.7506 20.2871 14.536L20.866 14.7107C20.9967 14.5042 21.0991 14.281 21.1703 14.0472C21.2426 13.8076 21.2773 13.5656 21.2839 13.3262L20.7048 13.1514C20.6926 12.8858 20.6315 12.6247 20.5246 12.3812L20.9659 11.9666C20.7354 11.5334 20.3933 11.1697 19.9749 10.9133L19.5346 11.3268C19.4183 11.2669 19.2962 11.2154 19.1666 11.1763C19.037 11.1371 18.9066 11.1125 18.7768 11.0981L18.6388 10.51C18.1484 10.4921 17.6622 10.6057 17.2305 10.8391L17.3688 11.4284C17.145 11.572 16.9496 11.7557 16.7926 11.9703L16.2134 11.7955C16.0862 11.9985 15.9815 12.2193 15.9091 12.4589C15.8368 12.6986 15.802 12.941 15.7955 13.18L16.3747 13.3548C16.3868 13.6204 16.4479 13.8815 16.5549 14.125L16.1136 14.5394C16.3438 14.9727 16.6861 15.3365 17.1046 15.5926L17.5449 15.1794C17.6627 15.2408 17.786 15.2912 17.9131 15.33ZM17.5704 12.9609C17.648 12.7038 17.8245 12.488 18.0611 12.361C18.2978 12.234 18.5752 12.2063 18.8323 12.2838C19.0894 12.3613 19.3052 12.5379 19.4322 12.7745C19.5592 13.0111 19.5869 13.2885 19.5094 13.5457C19.471 13.673 19.4079 13.7915 19.3237 13.8944C19.2395 13.9973 19.1358 14.0827 19.0187 14.1455C18.9015 14.2084 18.7731 14.2476 18.6408 14.2608C18.5085 14.2741 18.3748 14.2611 18.2475 14.2227C18.1202 14.1843 18.0017 14.1212 17.8988 14.037C17.7958 13.9528 17.7105 13.8492 17.6476 13.732C17.5848 13.6148 17.5456 13.4864 17.5323 13.3541C17.5191 13.2218 17.532 13.0882 17.5704 12.9609Z" fill="#24BAF2"/>
<path d="M5.20661 7.40613L5.21106 7.39999L5.21532 7.39371C5.24697 7.34711 5.30982 7.30933 5.39709 7.30933H10.2519C10.3214 7.30933 10.3891 7.34043 10.4483 7.41418C10.5206 7.51388 10.607 7.63108 10.7051 7.76419C11.1813 8.40998 11.9337 9.4304 12.6913 10.6453C13.6117 12.1214 14.5134 13.8442 14.9224 15.4728C15.3326 17.106 15.2235 18.5322 14.293 19.5588C13.3436 20.6062 11.4153 21.3822 7.82451 21.3822C4.23369 21.3822 2.30543 20.6062 1.35605 19.5588C0.425571 18.5322 0.316457 17.106 0.726626 15.4728C1.13565 13.8442 2.03731 12.1214 2.95776 10.6453C3.71536 9.4304 4.46775 8.40998 4.94391 7.76419C5.04471 7.62748 5.13314 7.50755 5.20661 7.40613Z" stroke="#20336B"/>
<path d="M11.2805 14.8015H10.3868V13.9382H11.2805C11.4146 13.9382 11.5234 13.8288 11.5234 13.693C11.5234 13.5581 11.4146 13.4487 11.2805 13.4487H10.3868V12.2508C10.3868 12.0758 10.3523 11.9473 10.2853 11.8698C10.2209 11.795 10.1357 11.7604 10.0188 11.7604C9.90638 11.7604 9.82571 11.795 9.76226 11.8689C9.69519 11.9473 9.66166 12.0758 9.66166 12.2508V13.4487H7.98121L7.26607 12.362C7.20896 12.27 7.15005 12.1779 7.09204 12.0867C7.04128 12.0083 6.99234 11.9436 6.94611 11.8962C6.90533 11.8543 6.8591 11.8215 6.80381 11.7959C6.75215 11.7722 6.68689 11.7604 6.60894 11.7604C6.51014 11.7604 6.4204 11.7877 6.3343 11.8433C6.25 11.8989 6.19109 11.9673 6.15483 12.053C6.12311 12.1341 6.1068 12.259 6.1068 12.4195V13.4487H5.22217C5.08802 13.4487 4.97925 13.5581 4.97925 13.6939C4.97925 13.8288 5.08802 13.9382 5.22217 13.9382H6.1068V14.8015H5.22217C5.08802 14.8015 4.97925 14.9109 4.97925 15.0458C4.97925 15.1807 5.08802 15.2901 5.22217 15.2901H6.1068V16.6585C6.1068 16.828 6.14215 16.9547 6.21194 17.0359C6.27901 17.1124 6.36422 17.148 6.47842 17.148C6.58991 17.148 6.6742 17.1124 6.74308 17.035C6.81469 16.9566 6.85095 16.8289 6.85095 16.6585V15.2901H8.37186L9.19396 16.5591C9.25197 16.6439 9.30997 16.7277 9.3698 16.8107C9.42237 16.8855 9.48038 16.9511 9.54201 17.0058C9.5973 17.0559 9.65622 17.0915 9.71785 17.1143C9.78039 17.1371 9.85472 17.1489 9.93629 17.1489C10.1593 17.1489 10.3868 17.0796 10.3868 16.5719V15.2901H11.2805C11.4146 15.2901 11.5234 15.1807 11.5234 15.0458C11.5234 14.9109 11.4146 14.8015 11.2805 14.8015ZM9.66166 13.9382V14.8015H8.86948L8.30207 13.9382H9.66166ZM6.85095 12.9455L7.17725 13.4487H6.85095V12.9455ZM6.85095 14.8015V13.9382H7.49448L8.05463 14.8015H6.85095ZM9.66166 16.0067L9.19033 15.2901H9.66166V16.0067Z" fill="#24BAF2"/>
<path d="M5.08081 7.29321C6.99521 7.31874 8.8808 7.39394 10.7945 7.29321" stroke="#20336B" stroke-width="2" stroke-linecap="round"/>
<path d="M5.3006 7.29518C4.56085 6.4984 4.0203 5.04367 3.59136 3.94984C3.32823 3.27884 3.21289 2.71133 3.21289 1.97735C3.21289 1.1442 4.17612 1.78183 4.4704 2.04047C4.64357 2.19268 4.85138 2.55751 5.0198 2.30873C5.28944 1.91043 5.63406 1.34794 6.02702 1.14102C6.6125 0.83272 7.63047 1.03687 8.02317 1.68542C8.1986 1.97516 8.47438 2.80514 8.57279 3.10993C8.59197 3.16932 8.65996 3.19733 8.71408 3.16626C9.63938 2.63514 10.6305 1.50777 11.6614 1.68542C11.96 1.73689 10.9044 6.35869 10.9044 6.63333C10.9044 7.24507 11.1151 6.49807 10.9044 7.01114M10.9044 7.01114C10.7269 7.44364 10.9044 6.50423 10.9044 7.01114Z" stroke="#20336B" stroke-linecap="round"/>
</svg>
