<svg width="34" height="31" viewBox="0 0 34 31" fill="none" xmlns="http://www.w3.org/2000/svg">
<path d="M19.2353 13.6766C19.6319 13.8387 20.0422 13.9498 20.4572 14.0106L20.5893 15.0522C21.0659 15.1006 21.5464 15.0948 22.0217 15.0348C22.4968 14.9743 22.9635 14.8604 23.4131 14.6952L23.2815 13.6531C23.6721 13.489 24.0414 13.2782 24.3813 13.0254L25.2109 13.6688C25.9552 13.0607 26.5519 12.2919 26.9561 11.42L26.1258 10.7761C26.2861 10.3838 26.3983 9.97352 26.4598 9.55421L27.4961 9.42316C27.5903 8.46663 27.4658 7.50119 27.1321 6.59984L26.1025 6.72999C25.9386 6.33917 25.7279 5.96966 25.475 5.62953L26.1164 4.80203C25.815 4.42939 25.4715 4.09278 25.0929 3.79887C24.714 3.50646 24.3035 3.25737 23.8692 3.05626L23.2258 3.88582C22.8336 3.72546 22.4233 3.6133 22.0039 3.55182L21.8722 2.51031C21.3956 2.46188 20.915 2.46772 20.4397 2.52771C19.9646 2.58827 19.4978 2.70229 19.0482 2.86762L19.18 3.90912C18.7892 4.07312 18.4198 4.28396 18.0798 4.53702L17.2496 3.8935C16.505 4.50112 15.9082 5.27007 15.5044 6.14224L16.3348 6.78615C16.173 7.18282 16.0619 7.59316 16.0011 8.00814L14.965 8.13927C14.8707 9.0959 14.9952 10.0615 15.329 10.9629L16.3586 10.8324C16.5225 11.2233 16.7332 11.5928 16.9861 11.9329L16.3449 12.7598C16.6463 13.1324 16.9896 13.4689 17.3681 13.7629C17.7514 14.0603 18.1627 14.3076 18.5922 14.5066L19.2353 13.6766ZM19.4862 11.031C18.9018 10.5642 18.5245 9.88623 18.4359 9.14353C18.3474 8.40084 18.5546 7.65313 19.0129 7.06201C19.4712 6.47089 20.1437 6.08385 20.885 5.98455C21.6263 5.88524 22.377 6.08165 22.9747 6.53132C23.5714 6.99392 23.9599 7.67461 24.0547 8.42365C24.1495 9.17269 23.9429 9.92872 23.4803 10.5254C23.0177 11.1221 22.337 11.5106 21.5879 11.6054C20.8389 11.7003 20.0829 11.4936 19.4862 11.031ZM25.1829 21.0183C25.3647 21.0732 25.5483 21.1083 25.7308 21.1285L25.9249 21.9549C26.6143 21.9805 27.298 21.8208 27.9047 21.4923L27.7102 20.6638C28.025 20.4621 28.2997 20.2038 28.5204 19.902L29.3343 20.1477C29.518 19.8574 29.6619 19.5436 29.762 19.215C29.8637 18.878 29.9125 18.5379 29.9218 18.2014L29.1076 17.9556C29.0905 17.5821 29.0046 17.2151 28.8542 16.8728L29.4747 16.29C29.1507 15.6809 28.6696 15.1697 28.0814 14.8092L27.4625 15.3905C27.2989 15.3063 27.1273 15.2338 26.9451 15.1788C26.763 15.1239 26.5796 15.0892 26.3971 15.0689L26.2031 14.2423C25.5137 14.217 24.8301 14.3767 24.2233 14.7049L24.4178 15.5333C24.1031 15.7351 23.8284 15.9934 23.6076 16.2951L22.7934 16.0494C22.6146 16.3348 22.4674 16.6452 22.3657 16.9821C22.264 17.319 22.215 17.6597 22.2059 17.9957L23.0201 18.2415C23.0372 18.6149 23.1231 18.982 23.2735 19.3243L22.6531 19.9068C22.9768 20.5161 23.4579 21.0274 24.0463 21.3876L24.6653 20.8066C24.8309 20.8929 25.0042 20.9638 25.1829 21.0183ZM24.7012 17.6877C24.8102 17.3263 25.0584 17.0229 25.391 16.8444C25.7237 16.6659 26.1137 16.6269 26.4752 16.7359C26.8366 16.8449 27.14 17.093 27.3185 17.4257C27.497 17.7584 27.536 18.1484 27.427 18.5098C27.373 18.6888 27.2843 18.8554 27.166 19.0001C27.0476 19.1448 26.9019 19.2648 26.7372 19.3532C26.5724 19.4416 26.3919 19.4966 26.2059 19.5152C26.0199 19.5339 25.832 19.5157 25.653 19.4617C25.4741 19.4077 25.3075 19.319 25.1628 19.2006C25.0181 19.0823 24.8981 18.9366 24.8097 18.7718C24.7213 18.6071 24.6663 18.4266 24.6476 18.2406C24.629 18.0546 24.6472 17.8667 24.7012 17.6877Z" fill="#C8D0DB"/>
<path d="M7.15532 9.75964L7.15977 9.7535L7.16403 9.74722C7.25144 9.61851 7.40723 9.53967 7.58744 9.53967H14.4126C14.5836 9.53967 14.7348 9.62143 14.8502 9.7672C14.9515 9.90695 15.0732 10.072 15.2118 10.26C15.8808 11.1674 16.9443 12.6096 18.014 14.3251C19.3119 16.4064 20.5926 18.8496 21.1753 21.1697C21.7591 23.4944 21.6184 25.5832 20.244 27.0996C18.8507 28.6368 16.0662 29.7297 11 29.7297C5.93379 29.7297 3.14934 28.6368 1.75604 27.0996C0.381636 25.5832 0.240865 23.4944 0.824711 21.1697C1.40742 18.8496 2.68809 16.4064 3.98595 14.3251C5.05571 12.6096 6.11916 11.1674 6.78823 10.26C6.92935 10.0686 7.05293 9.90099 7.15532 9.75964Z" stroke="#C8D0DB"/>
<path d="M15.8585 20.2753H14.6021V19.0617H15.8585C16.0471 19.0617 16.2 18.9079 16.2 18.7169C16.2 18.5273 16.0471 18.3735 15.8585 18.3735H14.6021V16.6895C14.6021 16.4434 14.5537 16.2627 14.4594 16.1538C14.3689 16.0487 14.2491 16 14.0848 16C13.9268 16 13.8133 16.0487 13.7241 16.1525C13.6299 16.2627 13.5827 16.4434 13.5827 16.6895V18.3735H11.2203L10.2149 16.8458C10.1346 16.7164 10.0518 16.587 9.97024 16.4588C9.89888 16.3486 9.83008 16.2576 9.76509 16.191C9.70775 16.132 9.64277 16.0859 9.56504 16.05C9.49241 16.0167 9.40067 16 9.29109 16C9.15219 16 9.02603 16.0385 8.90498 16.1166C8.78648 16.1948 8.70365 16.2909 8.65268 16.4114C8.60808 16.5254 8.58516 16.701 8.58516 16.9266V18.3735H7.3415C7.15292 18.3735 7 18.5273 7 18.7182C7 18.9079 7.15292 19.0617 7.3415 19.0617H8.58516V20.2753H7.3415C7.15292 20.2753 7 20.4291 7 20.6188C7 20.8085 7.15292 20.9623 7.3415 20.9623H8.58516V22.8859C8.58516 23.1243 8.63485 23.3024 8.73296 23.4165C8.82726 23.5241 8.94704 23.5741 9.1076 23.5741C9.26433 23.5741 9.38282 23.5241 9.47967 23.4152C9.58033 23.305 9.6313 23.1256 9.6313 22.8859V20.9623H11.7695L12.9252 22.7462C13.0068 22.8654 13.0883 22.9833 13.1724 23.0999C13.2463 23.205 13.3279 23.2973 13.4145 23.3742C13.4922 23.4447 13.5751 23.4947 13.6617 23.5267C13.7496 23.5587 13.8541 23.5754 13.9688 23.5754C14.2823 23.5754 14.6021 23.478 14.6021 22.7642V20.9623H15.8585C16.0471 20.9623 16.2 20.8085 16.2 20.6188C16.2 20.4291 16.0471 20.2753 15.8585 20.2753ZM13.5827 19.0617V20.2753H12.469L11.6714 19.0617H13.5827ZM9.6313 17.6661L10.09 18.3735H9.6313V17.6661ZM9.6313 20.2753V19.0617H10.536L11.3235 20.2753H9.6313ZM13.5827 21.9696L12.9201 20.9623H13.5827V21.9696Z" fill="#C8D0DB"/>
<path d="M7.14282 9.71985C9.83415 9.75573 12.485 9.86145 15.1754 9.71985" stroke="#C8D0DB" stroke-width="2" stroke-linecap="round"/>
<path d="M7.45183 9.72268C6.41186 8.60255 5.65194 6.55742 5.04892 5.01968C4.679 4.07636 4.51685 3.27854 4.51685 2.24668C4.51685 1.0754 5.871 1.97181 6.2847 2.33542C6.52816 2.54939 6.82029 3.06229 7.05706 2.71254C7.43614 2.1526 7.92061 1.36183 8.47306 1.07093C9.29615 0.637513 10.7272 0.924513 11.2793 1.83628C11.5355 2.25936 11.9439 3.50182 12.0669 3.88522C12.086 3.94464 12.1539 3.97263 12.2083 3.94211C13.5212 3.20603 14.9291 1.58382 16.3941 1.83628C16.8139 1.90863 15.3299 8.40613 15.3299 8.79224C15.3299 9.65223 15.626 8.60208 15.3299 9.32337M15.3299 9.32337C15.0803 9.9314 15.3299 8.61073 15.3299 9.32337Z" stroke="#C8D0DB" stroke-linecap="round"/>
</svg>
