<svg width="24" height="24" viewBox="0 0 24 24" fill="none" xmlns="http://www.w3.org/2000/svg">
<path d="M11.399 13.6801C11.6641 13.6801 11.879 13.8949 11.879 14.1601V18.9601C11.879 19.2252 11.6641 19.4401 11.399 19.4401H5.63894C5.3738 19.4401 5.15894 19.2252 5.15894 18.9601V14.1601C5.15894 13.8949 5.3738 13.6801 5.63894 13.6801H11.399Z" stroke="#C8D0DB" stroke-linecap="round" stroke-linejoin="round"/>
<path d="M13.799 22.3201V14.1601C13.799 13.895 14.0139 13.6801 14.279 13.6801H18.119C18.384 13.6801 18.599 13.895 18.599 14.1601V22.3201" stroke="#C8D0DB" stroke-linecap="round" stroke-linejoin="round"/>
<path d="M20.519 10.7118V21.3601C20.519 21.8903 20.0892 22.3201 19.559 22.3201H4.1989C3.6687 22.3201 3.23889 21.8903 3.23889 21.3601V10.6887" stroke="#C8D0DB" stroke-linecap="round" stroke-linejoin="round"/>
<path d="M18.9316 8.49279L18.9316 8.493C18.9323 9.13596 19.1839 9.75303 19.6323 10.2087C20.0809 10.6644 20.6897 10.9214 21.3254 10.9221L21.3259 10.9221C21.9617 10.9214 22.5705 10.6644 23.0191 10.2087C23.4676 9.75308 23.7193 9.13602 23.7201 8.49302V8.49279V7.22647C23.7201 7.08576 23.6651 6.95018 23.5662 6.84973C23.4672 6.74917 23.3323 6.69209 23.1909 6.69209H19.4607C19.3194 6.69209 19.1844 6.74917 19.0855 6.84973C18.9866 6.95018 18.9316 7.08576 18.9316 7.22647L18.9316 8.49279ZM19.9899 8.49567L19.9899 8.49567V8.49279V7.76086H22.6618V8.49279H22.6617L22.6618 8.49567C22.6644 8.67644 22.6316 8.85586 22.5654 9.02348C22.4991 9.19109 22.4009 9.34344 22.2764 9.47176C22.1519 9.60008 22.0038 9.70179 21.8406 9.77116C21.6775 9.84053 21.5025 9.8762 21.3258 9.8762C21.1492 9.8762 20.9742 9.84053 20.811 9.77116C20.6479 9.70179 20.4997 9.60008 20.3753 9.47176C20.2508 9.34344 20.1525 9.19109 20.0863 9.02348C20.0201 8.85586 19.9873 8.67644 19.9899 8.49567Z" fill="#C8D0DB" stroke="#C8D0DB" stroke-width="0.4"/>
<path d="M15.201 8.49279L15.201 8.49302C15.2018 9.13602 15.4535 9.75308 15.902 10.2087C16.3505 10.6644 16.9594 10.9214 17.5952 10.9221L17.5956 10.9221C18.2314 10.9214 18.8403 10.6644 19.2888 10.2087C19.7373 9.75308 19.989 9.13602 19.9898 8.49302V8.49279V7.22647C19.9898 7.08576 19.9348 6.95018 19.8359 6.84973C19.7369 6.74917 19.602 6.69209 19.4606 6.69209H15.7301C15.5888 6.69209 15.4539 6.74917 15.3549 6.84973C15.256 6.95018 15.201 7.08576 15.201 7.22647L15.201 8.49279ZM16.2593 8.49279V7.76086H18.9315V8.49279C18.9315 8.85465 18.79 9.20106 18.5391 9.45598C18.2882 9.7108 17.9487 9.85336 17.5954 9.85336C17.2421 9.85336 16.9026 9.7108 16.6517 9.45598C16.4008 9.20106 16.2593 8.85465 16.2593 8.49279Z" fill="#C8D0DB" stroke="#C8D0DB" stroke-width="0.4"/>
<path d="M11.4709 8.49279L11.4709 8.49302C11.4717 9.13602 11.7234 9.75308 12.1719 10.2087C12.6204 10.6644 13.2293 10.9214 13.8651 10.9221L13.8655 10.9221C14.5013 10.9214 15.1101 10.6644 15.5586 10.2087C16.007 9.75303 16.2587 9.13596 16.2594 8.493V8.49279V7.22647C16.2594 7.08576 16.2044 6.95018 16.1055 6.84973C16.0065 6.74917 15.8716 6.69209 15.7302 6.69209H12C11.8587 6.69209 11.7237 6.74917 11.6248 6.84973C11.5259 6.95018 11.4709 7.08576 11.4709 7.22647L11.4709 8.49279ZM12.5292 8.49567L12.5292 8.49567V8.49279V7.76086H15.2011V8.49279H15.2011L15.2011 8.49567C15.2037 8.67644 15.1709 8.85586 15.1047 9.02348C15.0384 9.19109 14.9402 9.34344 14.8157 9.47176C14.6912 9.60008 14.5431 9.70179 14.3799 9.77116C14.2168 9.84053 14.0418 9.8762 13.8651 9.8762C13.6885 9.8762 13.5135 9.84053 13.3504 9.77116C13.1872 9.70179 13.039 9.60008 12.9146 9.47176C12.7901 9.34344 12.6918 9.19109 12.6256 9.02348C12.5594 8.85586 12.5266 8.67644 12.5292 8.49567Z" fill="#C8D0DB" stroke="#C8D0DB" stroke-width="0.4"/>
<path d="M7.74067 8.49279L7.74067 8.493C7.74134 9.13596 7.99299 9.75303 8.44141 10.2087C8.88993 10.6644 9.49876 10.9214 10.1345 10.9221L10.135 10.9221C10.7707 10.9214 11.3796 10.6644 11.8282 10.2087C12.2766 9.75308 12.5284 9.13602 12.5291 8.49302V8.49279V7.22647C12.5291 7.08576 12.4741 6.95018 12.3753 6.84973C12.2763 6.74917 12.1414 6.69209 12 6.69209H8.26982C8.12845 6.69209 7.99352 6.74917 7.89454 6.84973C7.79567 6.95018 7.74067 7.08576 7.74067 7.22647L7.74067 8.49279ZM8.79894 8.49567L8.79896 8.49567V8.49279V7.76086H11.4708V8.49279H11.4708L11.4709 8.49567C11.4735 8.67644 11.4407 8.85586 11.3744 9.02348C11.3082 9.19109 11.2099 9.34344 11.0855 9.47176C10.961 9.60008 10.8128 9.70179 10.6497 9.77116C10.4865 9.84053 10.3116 9.8762 10.1349 9.8762C9.95825 9.8762 9.78327 9.84053 9.62013 9.77116C9.45697 9.70179 9.30881 9.60008 9.18435 9.47176C9.05987 9.34344 8.96159 9.19109 8.89536 9.02348C8.82914 8.85586 8.79633 8.67644 8.79894 8.49567Z" fill="#C8D0DB" stroke="#C8D0DB" stroke-width="0.4"/>
<path d="M4.0102 8.49279L4.01021 8.49302C4.01096 9.13602 4.26269 9.75308 4.71116 10.2087C5.15974 10.6644 5.76859 10.9214 6.40436 10.9221L6.40484 10.9221C7.04061 10.9214 7.64946 10.6644 8.09804 10.2087C8.54651 9.75308 8.79824 9.13602 8.799 8.49302V8.49279V7.22647C8.799 7.08576 8.744 6.95018 8.64513 6.84973C8.54614 6.74917 8.41122 6.69209 8.26985 6.69209H4.53935C4.39798 6.69209 4.26306 6.74917 4.16407 6.84973C4.0652 6.95018 4.01021 7.08576 4.01021 7.22647L4.0102 8.49279ZM5.06849 8.49279V7.76086H7.74071V8.49279C7.74071 8.85465 7.59919 9.20106 7.34826 9.45598C7.09744 9.7108 6.75793 9.85336 6.4046 9.85336C6.05127 9.85336 5.71176 9.7108 5.46094 9.45598C5.21001 9.20106 5.06849 8.85465 5.06849 8.49279Z" fill="#C8D0DB" stroke="#C8D0DB" stroke-width="0.4"/>
<path d="M0.27998 8.49279L0.279981 8.49302C0.280739 9.13602 0.53247 9.75308 0.980939 10.2087C1.42951 10.6644 2.03837 10.9214 2.67413 10.9221L2.67462 10.9221C3.31036 10.9214 3.91918 10.6644 4.36771 10.2087C4.81612 9.75303 5.06778 9.13596 5.06844 8.49299V8.49279V7.22647C5.06844 7.08576 5.01345 6.95018 4.91457 6.84973C4.81559 6.74917 4.68066 6.69209 4.5393 6.69209H0.809123C0.667757 6.69209 0.532832 6.74917 0.43385 6.84973C0.334974 6.95018 0.27998 7.08576 0.27998 7.22647L0.27998 8.49279ZM1.33825 8.49567L1.33827 8.49567V8.49279V7.76086H4.01016V8.49279H4.01013L4.01018 8.49567C4.01278 8.67644 3.97998 8.85586 3.91375 9.02348C3.84753 9.19109 3.74924 9.34344 3.62477 9.47176C3.5003 9.60008 3.35214 9.70179 3.18899 9.77116C3.02584 9.84053 2.85087 9.8762 2.67421 9.8762C2.49755 9.8762 2.32258 9.84053 2.15943 9.77116C1.99628 9.70179 1.84812 9.60008 1.72365 9.47176C1.59918 9.34344 1.5009 9.19109 1.43467 9.02348C1.36844 8.85586 1.33564 8.67644 1.33825 8.49567Z" fill="#C8D0DB" stroke="#C8D0DB" stroke-width="0.4"/>
<path d="M8.24598 7.75212C8.27715 7.75794 8.3088 7.76084 8.34052 7.76079H8.34053C8.46554 7.76059 8.58606 7.71573 8.68105 7.63473C8.77595 7.55382 8.83927 7.44212 8.86075 7.3195C8.86075 7.31946 8.86076 7.31943 8.86076 7.31939L9.85838 1.63496L9.85839 1.63496L9.85878 1.6326C9.88127 1.49478 9.84947 1.35321 9.76963 1.23847C9.68973 1.12361 9.56783 1.04458 9.42983 1.01965C9.29176 0.99472 9.14986 1.0262 9.03508 1.1066C8.92042 1.18693 8.84236 1.30931 8.81671 1.44663L8.8167 1.44663L8.81632 1.44879L7.81901 7.13333L7.81898 7.13351C7.79481 7.27203 7.82565 7.41491 7.90536 7.53091C7.98502 7.64685 8.10729 7.72681 8.24598 7.75212ZM8.24598 7.75212C8.24619 7.75216 8.2464 7.7522 8.24661 7.75224L8.28228 7.55544L8.24536 7.75201C8.24557 7.75205 8.24577 7.75208 8.24598 7.75212ZM19.461 7.76079L19.4611 7.76079C19.5411 7.76085 19.62 7.74261 19.6918 7.70755C19.7636 7.6725 19.8264 7.6216 19.8758 7.55887C19.9252 7.49614 19.9598 7.42315 19.9774 7.34536C19.995 7.26757 19.9951 7.1868 19.9777 7.10897L19.9777 7.10889L18.7072 1.42435L18.7073 1.42434L18.7062 1.41998C18.6729 1.28537 18.5889 1.16843 18.471 1.09484C18.353 1.02118 18.2108 0.997153 18.0752 1.0284C17.9396 1.05962 17.8223 1.14331 17.7477 1.26042C17.6732 1.37744 17.647 1.51894 17.6741 1.65487L17.674 1.65488L17.675 1.65939L18.9455 7.34385C18.9717 7.46126 19.0365 7.56678 19.13 7.64277C19.2236 7.71881 19.3403 7.76064 19.461 7.76079ZM14.1411 1.6326L14.1411 1.63261L14.1415 1.63496L15.1391 7.31939C15.1391 7.31943 15.1391 7.31946 15.1392 7.3195C15.1606 7.44212 15.224 7.55382 15.3188 7.63473C15.4138 7.71573 15.5344 7.76059 15.6594 7.76079C15.6911 7.76084 15.7228 7.75793 15.754 7.75211C15.8926 7.72678 16.0149 7.64683 16.0945 7.53091C16.1742 7.41491 16.2051 7.27203 16.1809 7.13351L16.1809 7.13333L15.1836 1.44879L15.1836 1.44879L15.1832 1.44663C15.1575 1.30931 15.0795 1.18693 14.9648 1.1066C14.85 1.0262 14.7081 0.99472 14.5701 1.01965C14.4321 1.04458 14.3102 1.12361 14.2303 1.23847C14.1504 1.35321 14.1186 1.49478 14.1411 1.6326ZM4.53876 7.76079L4.53887 7.76079C4.65961 7.76064 4.77631 7.71881 4.86989 7.64277C4.96339 7.5668 5.02818 7.46131 5.05438 7.34393C5.05439 7.3439 5.05439 7.34388 5.0544 7.34385L6.32444 1.66133C6.3409 1.59336 6.34399 1.5228 6.33353 1.45364C6.32294 1.38366 6.29868 1.31639 6.26203 1.25579C6.22538 1.19519 6.17704 1.14242 6.11971 1.10072C6.06238 1.05901 5.99724 1.02925 5.92809 1.01332C5.85895 0.997401 5.78732 0.995677 5.71749 1.00826C5.64765 1.02085 5.58116 1.04746 5.5219 1.0864C5.46264 1.12533 5.41186 1.17576 5.3724 1.23458C5.33342 1.29268 5.30622 1.35785 5.29223 1.42635L4.02218 7.10889L4.02216 7.10897C4.0048 7.1868 4.00492 7.26758 4.0225 7.34536C4.04009 7.42315 4.07474 7.49614 4.12409 7.55887C4.17346 7.6216 4.2363 7.6725 4.30811 7.70755C4.37994 7.74261 4.45879 7.76085 4.53876 7.76079ZM11.6247 7.60316C11.7237 7.70371 11.8586 7.76079 11.9999 7.76079C12.1413 7.76079 12.2762 7.70371 12.3752 7.60316C12.4741 7.5027 12.5291 7.36713 12.5291 7.22641V1.54187C12.5291 1.40116 12.4741 1.26558 12.3752 1.16513C12.2762 1.06457 12.1413 1.00749 11.9999 1.00749C11.8586 1.00749 11.7237 1.06457 11.6247 1.16513C11.5258 1.26558 11.4708 1.40116 11.4708 1.54187V7.22641C11.4708 7.36713 11.5258 7.5027 11.6247 7.60316Z" fill="#C8D0DB" stroke="#C8D0DB" stroke-width="0.4"/>
<path d="M0.806606 7.79246H0.80757H23.1892C23.1892 7.79246 23.1893 7.79246 23.1893 7.79246C23.2792 7.79248 23.3675 7.76925 23.4458 7.72524C23.5242 7.68123 23.5899 7.61799 23.6372 7.54179C23.6845 7.46561 23.712 7.37878 23.7175 7.28936C23.723 7.19996 23.7063 7.11044 23.6688 7.02905C23.6688 7.02903 23.6688 7.02902 23.6688 7.02901L21.0357 1.30944L21.0357 1.3094C20.9934 1.21768 20.9262 1.1395 20.8413 1.08446C20.7564 1.0294 20.6575 0.999934 20.5561 0.999951C20.5561 0.999951 20.5561 0.999951 20.5561 0.999951L3.44071 0.999949L3.43975 0.999954C3.33885 1.00044 3.24048 1.03015 3.15606 1.08519C3.07168 1.14019 3.00489 1.2181 2.96283 1.3094L2.96281 1.30944L0.329689 7.02901C0.329682 7.02902 0.329676 7.02903 0.329669 7.02905C0.292275 7.11024 0.275594 7.19952 0.280963 7.2887C0.286334 7.3779 0.313616 7.46455 0.360605 7.54066C0.407609 7.61679 0.472932 7.68007 0.550905 7.72426C0.628906 7.76847 0.716863 7.79202 0.806606 7.79246ZM22.3583 6.71956H1.63855L3.77782 2.07285H20.219L22.3583 6.71956Z" fill="#C8D0DB" stroke="#C8D0DB" stroke-width="0.4"/>
</svg>
