<svg width="604" height="84" viewBox="0 0 604 84" fill="none" xmlns="http://www.w3.org/2000/svg">
<g clip-path="url(#clip0_2135_615)">
<rect x="0.5" y="36.5" width="463" height="47" stroke="#C8D0DB"/>
</g>
<rect x="0.5" y="0.5" width="463" height="83" stroke="#C8D0DB"/>
<circle cx="564" cy="42" r="39.5" stroke="#C8D0DB"/>
<path d="M578.792 35.342C578.71 35.2447 578.607 35.1665 578.491 35.1129C578.375 35.0592 578.249 35.0314 578.121 35.0312H556.099L554.36 28.648C554.309 28.462 554.199 28.2977 554.045 28.1806C553.892 28.0635 553.705 28 553.512 28H549.879C549.393 28 549 28.3931 549 28.8789C549 29.3647 549.393 29.7578 549.879 29.7578H552.841L557.707 47.5869C556.785 48.0012 556.148 48.9055 556.148 49.9726C556.148 51.1881 556.979 52.2037 558.1 52.5076C557.977 52.8114 557.906 53.1411 557.906 53.4882C557.906 54.9422 559.089 56.125 560.543 56.125C561.997 56.125 563.18 54.9422 563.18 53.4882C563.18 53.1786 563.116 52.8856 563.018 52.6093H570.373C570.274 52.8856 570.211 53.1786 570.211 53.4882C570.211 54.9422 571.394 56.125 572.848 56.125C574.302 56.125 575.484 54.9422 575.484 53.4882C575.484 52.0343 574.302 50.8515 572.848 50.8515H558.785C558.301 50.8515 557.906 50.4575 557.906 49.9726C557.906 49.1539 558.961 48.9813 558.785 49.0765C558.961 49.0765 559.555 49.0031 576.449 47.3316C576.642 47.3128 576.822 47.231 576.964 47.099C577.105 46.9669 577.198 46.7919 577.23 46.6012L578.988 36.0543C579.009 35.9285 579.002 35.7996 578.969 35.6766C578.935 35.5536 578.875 35.4394 578.792 35.342ZM561.422 53.4882C561.422 53.9732 561.027 54.3671 560.543 54.3671C560.059 54.3671 559.664 53.9732 559.664 53.4882C559.664 53.0033 560.059 52.6093 560.543 52.6093C561.027 52.6093 561.422 53.0033 561.422 53.4882ZM572.848 54.3671C572.364 54.3671 571.969 53.9732 571.969 53.4882C571.969 53.0033 572.364 52.6093 572.848 52.6093C573.332 52.6093 573.727 53.0033 573.727 53.4882C573.727 53.9732 573.332 54.3671 572.848 54.3671ZM563.18 42.9414C563.18 43.4272 562.787 43.8203 562.301 43.8203C561.815 43.8203 561.422 43.4272 561.422 42.9414V39.4258C561.422 38.94 561.815 38.5469 562.301 38.5469C562.787 38.5469 563.18 38.94 563.18 39.4258V42.9414ZM568.453 42.9414C568.453 43.4272 568.06 43.8203 567.574 43.8203C567.088 43.8203 566.695 43.4272 566.695 42.9414V39.4258C566.695 38.94 567.088 38.5469 567.574 38.5469C568.06 38.5469 568.453 38.94 568.453 39.4258V42.9414ZM573.727 42.9414C573.727 43.4272 573.333 43.8203 572.848 43.8203C572.362 43.8203 571.969 43.4272 571.969 42.9414V39.4258C571.969 38.94 572.362 38.5469 572.848 38.5469C573.333 38.5469 573.727 38.94 573.727 39.4258V42.9414Z" fill="#C8D0DB"/>
<path d="M575.484 30.6367C575.484 30.1509 575.091 29.7578 574.605 29.7578H573.212L573.469 29.5003C573.812 29.157 573.812 28.6008 573.469 28.2575C573.126 27.9142 572.57 27.9142 572.226 28.2575L571.09 29.3939L569.953 28.2575C569.61 27.9142 569.054 27.9142 568.711 28.2575C568.367 28.6008 568.367 29.157 568.711 29.5003L568.968 29.7578H567.574C567.088 29.7578 566.695 30.1509 566.695 30.6367V33.2734H575.484V30.6367ZM564.937 31.5156H558.785C558.299 31.5156 557.906 31.9087 557.906 32.3945V33.2734H564.937V31.5156Z" fill="#C8D0DB"/>
<defs>
<clipPath id="clip0_2135_615">
<rect width="464" height="84" fill="white"/>
</clipPath>
</defs>
</svg>
