<svg width="852" height="562" viewBox="0 0 852 562" fill="none" xmlns="http://www.w3.org/2000/svg">
<rect x="255.5" y="92.5" width="212" height="81" rx="5.5" stroke="#C8D0DB"/>
<rect x="255.5" y="326.5" width="578" height="154" rx="5.5" stroke="#C8D0DB"/>
<rect x="485.5" y="92.5" width="212" height="81" rx="5.5" stroke="#C8D0DB"/>
<path d="M715.5 98C715.5 94.9624 717.962 92.5 721 92.5H850.5V173.5H721C717.962 173.5 715.5 171.038 715.5 168V98Z" stroke="#C8D0DB"/>
<circle cx="279" cy="261" r="23.5" stroke="#C8D0DB"/>
<circle cx="362" cy="261" r="23.5" stroke="#C8D0DB"/>
<circle cx="445" cy="261" r="23.5" stroke="#C8D0DB"/>
<circle cx="528" cy="261" r="23.5" stroke="#C8D0DB"/>
<circle cx="611" cy="261" r="23.5" stroke="#C8D0DB"/>
<circle cx="694" cy="261" r="23.5" stroke="#C8D0DB"/>
<circle cx="777" cy="261" r="23.5" stroke="#C8D0DB"/>
<rect x="255.5" y="92.5" width="212" height="81" rx="5.5" stroke="#C8D0DB"/>
<path d="M120 56V41.5V13C120 6.37258 125.373 1 132 1H839C845.627 1 851 6.37258 851 13V508C851 514.627 845.627 520 839 520H229.5" stroke="#C8D0DB"/>
<rect x="0.5" y="66.5" width="229" height="495" rx="19.5" stroke="#C8D0DB"/>
<rect x="16.5" y="204.5" width="197" height="39" rx="5.5" stroke="#C8D0DB"/>
<rect x="16.5" y="256.5" width="197" height="39" rx="5.5" stroke="#C8D0DB"/>
<rect x="16.5" y="308.5" width="197" height="39" rx="5.5" stroke="#C8D0DB"/>
<rect x="16.5" y="360.5" width="197" height="39" rx="5.5" stroke="#C8D0DB"/>
<rect x="16.5" y="491.5" width="197" height="39" rx="5.5" stroke="#C8D0DB"/>
</svg>
