<svg width="36" height="36" viewBox="0 0 36 36" fill="none" xmlns="http://www.w3.org/2000/svg">
<path d="M31.0977 8.46887H2.75391C1.92548 8.46887 1.25391 9.14044 1.25391 9.96887V31.8439C1.25391 32.6723 1.92548 33.3439 2.75391 33.3439H31.0977C31.9261 33.3439 32.5977 32.6723 32.5977 31.8439V9.96887C32.5977 9.14044 31.9261 8.46887 31.0977 8.46887Z" stroke="#C8D0DB"/>
<path d="M10.1016 8.68763L21.1353 1.79157C21.3853 1.63529 21.7156 1.72822 21.8475 1.99196L23.0391 4.37513" stroke="#C8D0DB"/>
<path d="M14.4141 8.68771L26.1422 3.16861C26.4065 3.04423 26.7207 3.17195 26.8232 3.44546L28.7891 8.68771" stroke="#C8D0DB"/>
<mask id="mask0_2145_46" style="mask-type:luminance" maskUnits="userSpaceOnUse" x="20" y="16" width="16" height="10">
<path d="M20.8828 18.594C20.8828 17.4894 21.7782 16.594 22.8828 16.594H34.7578C35.034 16.594 35.2578 16.8179 35.2578 17.094V24.719C35.2578 24.9951 35.034 25.219 34.7578 25.219H22.8828C21.7782 25.219 20.8828 24.3236 20.8828 23.219V18.594Z" fill="white"/>
</mask>
<g mask="url(#mask0_2145_46)">
<path d="M20.8828 18.594C20.8828 17.4894 21.7782 16.594 22.8828 16.594H34.7578C35.034 16.594 35.2578 16.8179 35.2578 17.094V24.719C35.2578 24.9951 35.034 25.219 34.7578 25.219H22.8828C21.7782 25.219 20.8828 24.3236 20.8828 23.219V18.594Z" stroke="#C8D0DB" stroke-width="2"/>
</g>
<path d="M25.5468 22.283C26.3459 22.283 26.9937 21.6352 26.9937 20.8362C26.9937 20.0371 26.3459 19.3893 25.5468 19.3893C24.7478 19.3893 24.1 20.0371 24.1 20.8362C24.1 21.6352 24.7478 22.283 25.5468 22.283Z" stroke="#C8D0DB" stroke-width="0.7"/>
<path d="M26.0398 5.66809H23.7648C23.5992 5.66809 23.4648 5.80241 23.4648 5.96809V6.80559C23.4648 6.97128 23.5992 7.10559 23.7648 7.10559H26.0398C26.2055 7.10559 26.3398 6.97128 26.3398 6.80559V5.96809C26.3398 5.80241 26.2055 5.66809 26.0398 5.66809Z" fill="#C8D0DB"/>
<path d="M32.375 14.4376H34.2313C34.3969 14.4376 34.5312 14.5719 34.5312 14.7376V17.3126" stroke="#C8D0DB"/>
<path d="M11.1772 23.8267L11.3374 23.1011L12.3709 22.9482L12.1799 23.8267H11.1772Z" fill="#C8D0DB" stroke="#C8D0DB"/>
<path d="M16.7065 23.8138L17.0144 22.3094L18.0244 22.1898L17.6466 23.8138H16.7065Z" fill="#C8D0DB" stroke="#C8D0DB"/>
<path d="M5.08203 24.2533L7.26515 23.5157L7.10571 24.3147H5.08203V24.2533Z" fill="#C8D0DB"/>
<mask id="mask1_2145_46" style="mask-type:luminance" maskUnits="userSpaceOnUse" x="5" y="23" width="3" height="2">
<path d="M5.08203 24.2533L7.26515 23.5157L7.10571 24.3147H5.08203V24.2533Z" fill="white"/>
</mask>
<g mask="url(#mask1_2145_46)">
<path d="M5.08203 24.2533L4.76197 23.3059L4.08203 23.5356V24.2533H5.08203ZM7.26515 23.5157L8.24581 23.7114L8.58443 22.0145L6.94508 22.5684L7.26515 23.5157ZM7.10571 24.3147V25.3147H7.92587L8.08637 24.5104L7.10571 24.3147ZM5.08203 24.3147H4.08203V25.3147H5.08203V24.3147ZM5.4021 25.2007L7.58521 24.4631L6.94508 22.5684L4.76197 23.3059L5.4021 25.2007ZM6.28448 23.3201L6.12504 24.1191L8.08637 24.5104L8.24581 23.7114L6.28448 23.3201ZM7.10571 23.3147H5.08203V25.3147H7.10571V23.3147ZM6.08203 24.3147V24.2533H4.08203V24.3147H6.08203Z" fill="#C8D0DB"/>
</g>
<mask id="mask2_2145_46" style="mask-type:luminance" maskUnits="userSpaceOnUse" x="5" y="15" width="15" height="10">
<path d="M18.6637 21.6332C17.9593 21.7077 17.2693 21.786 16.5938 21.868L17.2409 18.8252C17.3099 18.5252 17.3443 18.2541 17.3443 18.0118C17.3443 17.1471 16.8216 16.7148 15.7761 16.7148H14.2066L13.0046 22.3599C12.2778 22.4736 11.5799 22.5929 10.9109 22.7177L12.1883 16.7148H9.22249C8.86655 16.7148 8.65411 16.8876 8.58516 17.2333L7.24899 23.5522C6.42576 23.7842 5.69618 24.0329 5.07422 24.2971L6.68852 16.7148C6.80313 16.1725 6.99834 15.7769 7.27415 15.5282C7.54995 15.2803 7.9809 15.1564 8.56699 15.1564H16.3101C17.2642 15.1564 18.0259 15.3469 18.5952 15.728C19.1645 16.1082 19.4492 16.6966 19.4492 17.4933C19.4492 17.8278 19.4259 18.0929 19.3793 18.2885L18.6637 21.6332Z" fill="white"/>
</mask>
<g mask="url(#mask2_2145_46)">
<path d="M65.9035 30.486H2.98047V12.9453H65.9035V30.486Z" fill="#C8D0DB"/>
</g>
</svg>
