<svg width="35" height="35" viewBox="0 0 35 35" fill="none" xmlns="http://www.w3.org/2000/svg">
<g clip-path="url(#clip0_1144_12)">
<mask id="mask0_1144_12" style="mask-type:luminance" maskUnits="userSpaceOnUse" x="0" y="0" width="35" height="35">
<path d="M35 0H0V35H35V0Z" fill="white"/>
</mask>
<g mask="url(#mask0_1144_12)">
<path d="M19.1406 5.46875C19.0107 5.46884 18.885 5.42267 18.786 5.3385C18.687 5.25433 18.6212 5.13766 18.6004 5.0094C18.5796 4.88114 18.6052 4.74966 18.6725 4.63852C18.7398 4.52739 18.8445 4.44386 18.9678 4.40289C19.9117 4.08844 20.1879 2.21539 20.2256 1.31961C20.1094 1.2019 19.9597 1.12301 19.7969 1.09375C19.7761 1.09703 19.7094 1.15555 19.6388 1.31523C19.5639 1.53282 19.4328 1.72678 19.2589 1.87752C19.085 2.02827 18.8745 2.13048 18.6484 2.17383C18.2348 2.21262 17.8224 2.08754 17.5 1.82547C17.178 2.08823 16.7653 2.2134 16.3516 2.17383C16.1257 2.13044 15.9153 2.02828 15.7415 1.87763C15.5677 1.72699 15.4367 1.53319 15.3617 1.31578C15.2906 1.15609 15.2245 1.09703 15.2031 1.0943C15.0423 1.1292 14.8939 1.20706 14.7738 1.31961C14.8159 2.21375 15.0943 4.08953 16.0316 4.40289C16.1694 4.44872 16.2834 4.54741 16.3484 4.67725C16.4134 4.80709 16.4242 4.95745 16.3784 5.09523C16.3325 5.23302 16.2338 5.34696 16.104 5.41198C15.9742 5.477 15.8238 5.48779 15.686 5.44195C13.7266 4.78789 13.6719 1.47 13.6719 1.09375C13.6719 0.959666 13.7211 0.830244 13.8102 0.730081C13.9986 0.500636 14.2366 0.316944 14.5063 0.192848C14.776 0.0687517 15.0704 0.00748832 15.3672 0.0136748C15.593 0.0570601 15.8035 0.159225 15.9773 0.309868C16.151 0.460511 16.282 0.654308 16.357 0.871722C16.4281 1.03141 16.4943 1.09047 16.5156 1.0932C16.7377 1.02974 16.9369 0.903687 17.0893 0.730081C17.142 0.674857 17.2054 0.630901 17.2757 0.600869C17.3459 0.570838 17.4214 0.555354 17.4978 0.555354C17.5742 0.555354 17.6498 0.570838 17.72 0.600869C17.7902 0.630901 17.8536 0.674857 17.9063 0.730081C18.0868 0.929691 18.3717 1.11289 18.4805 1.0932C18.5013 1.08992 18.568 1.03141 18.6386 0.874456C18.7136 0.655975 18.845 0.461239 19.0197 0.310048C19.1943 0.158856 19.4059 0.0565996 19.6328 0.0136748C19.93 0.00723563 20.2247 0.068374 20.4948 0.192477C20.7649 0.316579 21.0033 0.500404 21.192 0.730081C21.2803 0.830565 21.3288 0.959953 21.3281 1.09375C21.3281 1.47 21.2734 4.78789 19.3134 5.44086C19.2577 5.45937 19.1994 5.46879 19.1406 5.46875ZM17.5 35C11.6309 35 3.82812 33.8095 3.82812 23.5156C3.82812 14.5152 15.2578 6.96828 15.7429 6.65109C15.8031 6.61188 15.8704 6.58491 15.941 6.57171C16.0116 6.55851 16.0841 6.55935 16.1544 6.57418C16.2247 6.58901 16.2914 6.61754 16.3506 6.65813C16.4099 6.69873 16.4606 6.7506 16.4998 6.81078C16.539 6.87096 16.566 6.93828 16.5791 7.00889C16.5923 7.07949 16.5915 7.15201 16.5767 7.22229C16.5618 7.29257 16.5333 7.35925 16.4927 7.4185C16.4521 7.47776 16.4003 7.52844 16.3401 7.56766C16.2258 7.64203 4.92188 15.1091 4.92188 23.5156C4.92188 30.7016 8.80141 33.9062 17.5 33.9062C26.1986 33.9062 30.0781 30.7016 30.0781 23.5156C30.0781 15.1091 18.7742 7.64203 18.6599 7.56766C18.5384 7.48846 18.4533 7.36423 18.4233 7.22229C18.3934 7.08035 18.421 6.93232 18.5002 6.81078C18.5794 6.68924 18.7037 6.60413 18.8456 6.57418C18.9875 6.54424 19.1356 6.5719 19.2571 6.65109C19.7422 6.96828 31.1719 14.5152 31.1719 23.5156C31.1719 33.8095 23.3691 35 17.5 35Z" fill="white" stroke="white" stroke-width="0.5"/>
<path d="M19.1406 7.65625H15.8594C15.4243 7.65625 15.007 7.4834 14.6993 7.17572C14.3916 6.86805 14.2188 6.45075 14.2188 6.01562C14.2188 5.5805 14.3916 5.1632 14.6993 4.85553C15.007 4.54785 15.4243 4.375 15.8594 4.375H19.1406C19.5757 4.375 19.993 4.54785 20.3007 4.85553C20.6084 5.1632 20.7812 5.5805 20.7812 6.01562C20.7812 6.45075 20.6084 6.86805 20.3007 7.17572C19.993 7.4834 19.5757 7.65625 19.1406 7.65625ZM15.8594 5.46875C15.7143 5.46875 15.5752 5.52637 15.4727 5.62893C15.3701 5.73148 15.3125 5.87058 15.3125 6.01562C15.3125 6.16067 15.3701 6.29977 15.4727 6.40232C15.5752 6.50488 15.7143 6.5625 15.8594 6.5625H19.1406C19.2857 6.5625 19.4248 6.50488 19.5273 6.40232C19.6299 6.29977 19.6875 6.16067 19.6875 6.01562C19.6875 5.87058 19.6299 5.73148 19.5273 5.62893C19.4248 5.52637 19.2857 5.46875 19.1406 5.46875H15.8594ZM8.20312 8.20312C8.05808 8.20312 7.91899 8.14551 7.81643 8.04295C7.71387 7.94039 7.65625 7.80129 7.65625 7.65625V5.46875C7.65625 5.32371 7.71387 5.18461 7.81643 5.08205C7.91899 4.97949 8.05808 4.92188 8.20312 4.92188C8.34817 4.92188 8.48726 4.97949 8.58982 5.08205C8.69238 5.18461 8.75 5.32371 8.75 5.46875V7.65625C8.75 7.80129 8.69238 7.94039 8.58982 8.04295C8.48726 8.14551 8.34817 8.20312 8.20312 8.20312Z" fill="white" stroke="white" stroke-width="0.5"/>
<path d="M9.29688 7.10938H7.10938C6.96433 7.10938 6.82524 7.05176 6.72268 6.9492C6.62012 6.84664 6.5625 6.70754 6.5625 6.5625C6.5625 6.41746 6.62012 6.27836 6.72268 6.1758C6.82524 6.07324 6.96433 6.01562 7.10938 6.01562H9.29688C9.44192 6.01562 9.58102 6.07324 9.68357 6.1758C9.78613 6.27836 9.84375 6.41746 9.84375 6.5625C9.84375 6.70754 9.78613 6.84664 9.68357 6.9492C9.58102 7.05176 9.44192 7.10938 9.29688 7.10938ZM25.1562 3.82812C25.0112 3.82812 24.8721 3.77051 24.7696 3.66795C24.667 3.56539 24.6094 3.42629 24.6094 3.28125V1.09375C24.6094 0.94871 24.667 0.80961 24.7696 0.707051C24.8721 0.604492 25.0112 0.546875 25.1562 0.546875C25.3013 0.546875 25.4404 0.604492 25.5429 0.707051C25.6455 0.80961 25.7031 0.94871 25.7031 1.09375V3.28125C25.7031 3.42629 25.6455 3.56539 25.5429 3.66795C25.4404 3.77051 25.3013 3.82812 25.1562 3.82812Z" fill="white" stroke="white" stroke-width="0.5"/>
<path d="M26.25 2.73439H24.0625C23.9175 2.73439 23.7784 2.67676 23.6758 2.5742C23.5732 2.47164 23.5156 2.33255 23.5156 2.18751C23.5156 2.04247 23.5732 1.90336 23.6758 1.8008C23.7784 1.69824 23.9175 1.64063 24.0625 1.64062H26.25C26.395 1.64063 26.5341 1.69824 26.6367 1.8008C26.7393 1.90336 26.7969 2.04247 26.7969 2.18751C26.7969 2.33255 26.7393 2.47164 26.6367 2.5742C26.5341 2.67676 26.395 2.73439 26.25 2.73439ZM28.9844 13.125C28.8393 13.125 28.7002 13.0674 28.5977 12.9648C28.4951 12.8623 28.4375 12.7232 28.4375 12.5781V9.29688C28.4375 9.15183 28.4951 9.01273 28.5977 8.91018C28.7002 8.80762 28.8393 8.75 28.9844 8.75C29.1294 8.75 29.2685 8.80762 29.3711 8.91018C29.4736 9.01273 29.5312 9.15183 29.5312 9.29688V12.5781C29.5312 12.7232 29.4736 12.8623 29.3711 12.9648C29.2685 13.0674 29.1294 13.125 28.9844 13.125Z" fill="white" stroke="white" stroke-width="0.5"/>
<path d="M30.625 11.4844H27.3438C27.1987 11.4844 27.0596 11.4268 26.9571 11.3242C26.8545 11.2216 26.7969 11.0825 26.7969 10.9375C26.7969 10.7925 26.8545 10.6534 26.9571 10.5508C27.0596 10.4482 27.1987 10.3906 27.3438 10.3906H30.625C30.77 10.3906 30.9091 10.4482 31.0117 10.5508C31.1143 10.6534 31.1719 10.7925 31.1719 10.9375C31.1719 11.0825 31.1143 11.2216 31.0117 11.3242C30.9091 11.4268 30.77 11.4844 30.625 11.4844Z" fill="white" stroke="white" stroke-width="0.5"/>
<path d="M17.5253 25.1157C17.5181 25.1116 17.5099 25.1093 17.5017 25.1094H17.4983C17.4901 25.1093 17.482 25.1115 17.4749 25.1156L13.8053 27.215L13.7934 27.2218C13.6648 27.2908 13.5159 27.312 13.373 27.2821C13.2302 27.2522 13.1025 27.1729 13.0123 27.0581L13.0094 27.0544C12.9473 26.9737 12.9063 26.8787 12.8904 26.7781C12.8748 26.6798 12.8835 26.5792 12.9157 26.4851L14.265 22.4366C14.2684 22.4264 14.2682 22.4152 14.2643 22.4051C14.2605 22.3951 14.2533 22.3866 14.244 22.3813M17.5253 25.1157L10.4331 19.8516M17.5253 25.1157L21.2009 27.2162L21.2158 27.2248M17.5253 25.1157L21.2158 27.2248M14.244 22.3813C14.244 22.3812 14.2441 22.3814 14.244 22.3813ZM14.244 22.3813L10.7429 20.3855L10.7405 20.3841C10.647 20.3301 10.5694 20.2524 10.5154 20.1589C10.4615 20.0654 10.4331 19.9594 10.4331 19.8516M10.4331 19.8516V19.734C10.4331 19.5827 10.4889 19.4366 10.5898 19.3239C10.6908 19.2109 10.83 19.1393 10.9806 19.1227M10.4331 19.8516L10.9806 19.1227M21.2158 27.2248L21.2313 27.2322M21.2313 27.2322C21.3572 27.2931 21.4999 27.31 21.6365 27.28C21.7732 27.2501 21.8958 27.1752 21.9847 27.0673L21.9899 27.0609M21.2313 27.2322L21.9899 27.0609M21.9899 27.0609L21.995 27.0544M21.995 27.0544C22.0571 26.9737 22.098 26.8787 22.114 26.7781C22.1296 26.6798 22.1209 26.5792 22.0887 26.4851L20.7394 22.4366M21.995 27.0544L20.7394 22.4366M20.7394 22.4366C20.736 22.4263 20.7362 22.4152 20.74 22.4051C20.7439 22.3951 20.7513 22.3865 20.7606 22.3811L24.2559 20.3841L24.2629 20.3801M20.7394 22.4366L24.2629 20.3801M20.8223 25.8481L19.7907 22.7528C19.7143 22.5234 19.7195 22.2744 19.8058 22.0485C19.8921 21.8225 20.0539 21.6334 20.2638 21.5132L22.903 20.0053L19.5727 19.6354L20.8223 25.8481ZM20.8223 25.8481L18.0217 24.2476C17.8634 24.157 17.6841 24.1094 17.5017 24.1094L20.8223 25.8481ZM24.2629 20.3801L24.2697 20.3759M19.682 18.6414L24.015 19.1227M19.682 18.6414C19.6734 18.6405 19.6652 18.6372 19.6584 18.6318C19.6515 18.6265 19.6463 18.6194 19.6433 18.6113M19.682 18.6414L19.6433 18.6113M19.6433 18.6113L18.1634 14.6655M18.7069 18.9623L17.4978 15.7385L16.2887 18.9623M16.8322 14.6655C16.8769 14.5468 16.9573 14.4444 17.0621 14.3731C17.1654 14.3029 17.2875 14.2658 17.4123 14.2667M16.8322 14.6655L17.5834 14.2667H17.4123M16.8322 14.6655L15.3524 18.6112M17.4123 14.2667C17.4142 14.2667 17.4161 14.2668 17.418 14.2668L17.4098 14.7667V14.2667H17.4123ZM15.3524 18.6112C15.3493 18.6193 15.3441 18.6265 15.3372 18.6318C15.3304 18.6372 15.3222 18.6405 15.3136 18.6414M15.3524 18.6112L15.3136 18.6414M15.3136 18.6414L10.9806 19.1227M24.5625 19.8506V19.7346M16.748 14.6323L15.3863 18.2619L15.2785 18.5493L14.9734 18.5832L10.9734 19.0278C10.8 19.047 10.6398 19.1296 10.5236 19.2597C10.4074 19.3898 10.3433 19.5583 10.3437 19.7328L10.3438 19.734L10.3437 19.8507C10.3442 19.9755 10.3775 20.0979 10.4403 20.2057C10.5032 20.3137 10.5936 20.4032 10.7021 20.4652L13.8078 22.2399L14.1637 22.4432L14.0341 22.8321L12.8259 26.4577C12.7903 26.5644 12.7804 26.678 12.7972 26.7892C12.8136 26.8985 12.8554 27.0025 12.919 27.0928C13.025 27.2318 13.1771 27.3285 13.3479 27.3656C13.5193 27.4027 13.6982 27.3775 13.8525 27.2946L17.2519 25.3521L17.5 25.2104L17.7481 25.3521L21.1531 27.2979M16.748 14.6323C16.7481 14.6321 16.7479 14.6326 16.748 14.6323ZM16.748 14.6323C16.7993 14.4976 16.8905 14.3807 17.009 14.2987C17.1277 14.2166 17.2684 14.1724 17.4127 14.1719H17.5872C17.7315 14.1725 17.8723 14.2168 17.9909 14.2991C18.1096 14.3814 18.2005 14.4977 18.2516 14.6328M18.2516 14.6328C18.2517 14.633 18.2515 14.6326 18.2516 14.6328ZM18.2516 14.6328L19.6137 18.263L19.7215 18.5504L20.0266 18.5843L24.0258 19.0289C24.199 19.048 24.3596 19.1304 24.4759 19.2603C24.5921 19.3901 24.6564 19.5583 24.6562 19.7326V19.8509C24.6561 19.9759 24.623 20.0987 24.5602 20.2068C24.4976 20.3147 24.4076 20.4043 24.2993 20.4665M24.2993 20.4665C24.2992 20.4665 24.2995 20.4664 24.2993 20.4665ZM24.2993 20.4665L21.1938 22.241L20.838 22.4443L20.9675 22.8331L22.1755 26.4588C22.2109 26.5652 22.2206 26.6786 22.2037 26.7895C22.1868 26.9004 22.1437 27.0057 22.0781 27.0967C22.0125 27.1877 21.9262 27.2618 21.8263 27.3129C21.7266 27.3639 21.6163 27.3905 21.5043 27.3906C21.3812 27.3905 21.2602 27.3585 21.1531 27.2979M21.1531 27.2979C21.1529 27.2978 21.1533 27.298 21.1531 27.2979ZM23.905 20.1166C23.9049 20.1166 23.9051 20.1166 23.905 20.1166ZM18.5938 31.7656C18.5813 31.7656 18.5694 31.7607 18.5606 31.7519C18.5518 31.7431 18.5469 31.7312 18.5469 31.7188C18.5469 31.7063 18.5518 31.6944 18.5606 31.6856C18.5694 31.6768 18.5813 31.6719 18.5938 31.6719C21.6064 31.6719 23.8064 31.2308 25.2498 30.0786C26.7248 28.9011 27.2969 27.0786 27.2969 24.6236C27.2969 24.6112 27.3018 24.5992 27.3106 24.5904C27.3194 24.5817 27.3313 24.5767 27.3438 24.5767C27.3562 24.5767 27.3681 24.5817 27.3769 24.5904C27.3857 24.5992 27.3906 24.6112 27.3906 24.6236C27.3906 27.261 26.7378 28.9951 25.401 30.094C24.0392 31.2133 21.8615 31.7656 18.5938 31.7656Z" stroke="white"/>
</g>
</g>
<defs>
<clipPath id="clip0_1144_12">
<rect width="35" height="35" fill="white"/>
</clipPath>
</defs>
</svg>
