<svg width="24" height="24" viewBox="0 0 24 24" fill="none" xmlns="http://www.w3.org/2000/svg">
<path d="M9.50068 1.81939C10.2501 1.01948 11.4683 1.01911 12.2278 1.81858L18.9887 8.93576C19.8384 9.83034 19.7414 11.3184 18.7845 12.0667L14.4435 15.4611C13.7557 15.999 12.8154 15.9889 12.1314 15.4361L5.14913 9.79388C4.21057 9.03545 4.11121 7.57165 4.93838 6.68881L9.50068 1.81939Z" fill="black"/>
<path d="M18.0903 12.7949V19.8181C18.0903 20.6466 17.4188 21.3181 16.5903 21.3181H2C1.17157 21.3181 0.5 20.6466 0.5 19.8181V12.7949C0.5 11.9665 1.17157 11.2949 2 11.2949H13.2973H16.5903C17.4188 11.2949 18.0903 11.9665 18.0903 12.7949Z" fill="white" stroke="black"/>
<path d="M1.03125 13.8262H11.101" stroke="black" stroke-linecap="square"/>
<path d="M1.92969 17.4062H10.7085" stroke="black" stroke-linecap="square"/>
<rect width="3.88207" height="2.66844" rx="1" transform="matrix(0.675818 0.737069 -0.691552 0.722326 10.9141 3.50977)" fill="white"/>
<path d="M22.8328 15.9142L21.9254 15.7911C21.8514 15.5477 21.7595 15.3108 21.6505 15.0829L22.2108 14.3129C22.3202 14.1648 22.3747 13.979 22.3639 13.7909C22.3532 13.6027 22.2779 13.4254 22.1524 13.2927L21.3925 12.4816C21.2683 12.3467 21.1018 12.2654 20.9249 12.2533C20.7481 12.2413 20.5733 12.2994 20.434 12.4164L19.7131 13.0145C19.4995 12.8982 19.2777 12.8003 19.0496 12.7216L18.9342 11.7549C18.9131 11.5674 18.8285 11.3947 18.6962 11.2693C18.564 11.1439 18.3933 11.0745 18.2164 11.0742H17.1348C16.7693 11.0742 16.4607 11.3665 16.4175 11.7526L16.3022 12.7211C16.0742 12.8 15.8523 12.8979 15.6387 13.0139L14.9172 12.4159C14.7785 12.2992 14.6044 12.2412 14.4281 12.2527C14.2519 12.2642 14.0857 12.3445 13.9614 12.4783L13.2015 13.2905C13.075 13.423 12.9988 13.6007 12.9876 13.7895C12.9763 13.9782 13.0307 14.1648 13.1404 14.3134L13.7007 15.0835C13.5927 15.3088 13.5006 15.546 13.4258 15.7917L12.52 15.9142C12.1567 15.9608 11.8828 16.2896 11.8828 16.6797V17.8342C11.8828 18.2243 12.1567 18.5537 12.5184 18.5997L13.4258 18.7228C13.5006 18.9685 13.5927 19.2057 13.7007 19.431L13.1404 20.2011C13.031 20.3491 12.9765 20.5349 12.9873 20.7231C12.9981 20.9112 13.0734 21.0886 13.1988 21.2212L13.9593 22.0329C14.0834 22.1677 14.2498 22.2489 14.4265 22.2609C14.6033 22.2729 14.778 22.215 14.9172 22.0981L15.6387 21.5C15.8498 21.6152 16.0721 21.7136 16.3022 21.7934L16.4175 22.7602C16.4386 22.9474 16.5232 23.1199 16.6554 23.2451C16.7875 23.3703 16.9581 23.4396 17.1348 23.4397H18.2164C18.5819 23.4397 18.8905 23.1474 18.9337 22.7613L19.049 21.7929C19.2771 21.7139 19.499 21.6158 19.7126 21.4995L20.434 22.0975C20.7263 22.3397 21.1381 22.3111 21.3898 22.0351L22.1498 21.224C22.2762 21.0915 22.3524 20.9138 22.3637 20.725C22.3749 20.5363 22.3205 20.3497 22.2108 20.2011L21.6505 19.431C21.7585 19.2057 21.8506 18.9685 21.9254 18.7228L22.8312 18.5997C23.0067 18.5772 23.1684 18.4869 23.2858 18.3459C23.4032 18.2049 23.4681 18.0229 23.4684 17.8342V16.6797C23.4684 16.2896 23.1946 15.9608 22.8328 15.9142Z" fill="white"/>
<path d="M17.68 20.066C19.1342 20.066 20.3131 18.8078 20.3131 17.2557C20.3131 15.7035 19.1342 14.4453 17.68 14.4453C16.2257 14.4453 15.0469 15.7035 15.0469 17.2557C15.0469 18.8078 16.2257 20.066 17.68 20.066Z" fill="white"/>
<path d="M18.137 24.0014H17.2206C16.9967 24.0029 16.7799 23.9172 16.6109 23.7604C16.4419 23.6035 16.3324 23.3862 16.3027 23.1493L16.1674 22.0504C15.9622 21.9777 15.7622 21.8896 15.5686 21.7868L14.7492 22.4585C14.5713 22.6041 14.3498 22.6755 14.1261 22.6595C13.9024 22.6434 13.6919 22.541 13.5338 22.3714L12.8866 21.68C12.7277 21.5111 12.632 21.2862 12.6171 21.0473C12.6023 20.8085 12.6695 20.5721 12.806 20.3822L13.4348 19.5088C13.3383 19.3023 13.2558 19.0887 13.1878 18.8697L12.1614 18.7258C11.9388 18.6947 11.7345 18.578 11.5868 18.3975C11.4391 18.217 11.3583 17.9852 11.3594 17.7456V16.7676C11.3594 16.2696 11.6948 15.8576 12.1577 15.7879L13.1873 15.6434C13.2557 15.4231 13.3384 15.2101 13.4343 15.0043L12.805 14.1298C12.6688 13.9398 12.602 13.7034 12.617 13.4647C12.632 13.2261 12.7278 13.0014 12.8866 12.8325L13.5343 12.1417C13.6927 11.9721 13.9035 11.8697 14.1274 11.8539C14.3513 11.8381 14.5729 11.9098 14.7508 12.0557L15.5686 12.7263C15.7621 12.6234 15.9622 12.5353 16.1674 12.4627L16.3022 11.3672C16.3314 11.1297 16.4408 10.9116 16.6099 10.7541C16.779 10.5966 16.9962 10.5104 17.2206 10.5117H18.137C18.6035 10.5117 18.9896 10.8698 19.0549 11.3638L19.1902 12.4632C19.3966 12.5363 19.5962 12.6245 19.789 12.7268L20.6084 12.0552C20.7863 11.9097 21.0078 11.8384 21.2315 11.8544C21.4551 11.8704 21.6657 11.9728 21.8238 12.1423L22.471 12.8331C22.7996 13.1832 22.8344 13.7414 22.5516 14.1309L21.9233 15.0043C22.0197 15.2101 22.1019 15.4236 22.1703 15.6434L23.1967 15.7873C23.4193 15.8184 23.6235 15.9352 23.7711 16.1157C23.9187 16.2962 23.9995 16.528 23.9982 16.7676V17.7456C23.9982 18.2435 23.6628 18.6555 23.1999 18.7252L22.1698 18.8697C22.1013 19.09 22.0187 19.303 21.9228 19.5088L22.5521 20.3833C22.6883 20.5733 22.7551 20.8097 22.7401 21.0484C22.725 21.287 22.6292 21.5117 22.4705 21.6806L21.8233 22.3714C21.6648 22.5406 21.4541 22.6426 21.2305 22.6584C21.0068 22.6742 20.7853 22.6028 20.6073 22.4574L19.789 21.7863C19.5955 21.8892 19.3954 21.9773 19.1902 22.0499L19.0554 23.1453C19.0263 23.3829 18.9169 23.601 18.7478 23.7586C18.5787 23.9163 18.3615 24.0026 18.137 24.0014ZM15.5302 20.865C15.5981 20.865 15.6661 20.8836 15.7277 20.9212C16.0105 21.0945 16.3132 21.2279 16.6282 21.3181C16.7035 21.3398 16.7711 21.3848 16.8225 21.4474C16.874 21.51 16.9069 21.5874 16.9173 21.6699L17.0858 23.0357C17.0906 23.0701 17.1068 23.1015 17.1316 23.1241C17.1564 23.1466 17.1881 23.1588 17.2206 23.1583H18.137C18.1702 23.1589 18.2025 23.1463 18.2275 23.1229C18.2525 23.0996 18.2685 23.0671 18.2723 23.0318L18.4403 21.6699C18.4504 21.5873 18.4833 21.5097 18.5347 21.4471C18.5862 21.3844 18.654 21.3395 18.7294 21.3181C19.0475 21.2264 19.3508 21.0932 19.6299 20.9212C19.6977 20.8797 19.7754 20.8604 19.8534 20.8659C19.9313 20.8714 20.006 20.9014 20.0681 20.9521L21.0897 21.7896C21.1445 21.8346 21.215 21.8284 21.2645 21.7756L21.9123 21.0842C21.936 21.0607 21.9506 21.0286 21.9532 20.9942C21.9559 20.9597 21.9463 20.9255 21.9265 20.8982L21.1408 19.8067C21.0931 19.7405 21.065 19.6608 21.0598 19.5775C21.0547 19.4943 21.0728 19.4113 21.1118 19.339C21.2742 19.0371 21.3992 18.7141 21.4836 18.3779C21.504 18.2975 21.5461 18.2253 21.6048 18.1704C21.6634 18.1156 21.736 18.0804 21.8133 18.0693L23.093 17.8894C23.1252 17.8844 23.1546 17.867 23.1757 17.8406C23.1968 17.8141 23.2082 17.7803 23.2078 17.7456V16.7676C23.2084 16.7321 23.1966 16.6976 23.1747 16.6709C23.1528 16.6442 23.1223 16.6271 23.0893 16.6231L21.8133 16.4438C21.7359 16.433 21.6632 16.3979 21.6045 16.343C21.5458 16.2881 21.5037 16.2157 21.4836 16.1352C21.3993 15.799 21.2743 15.4759 21.1118 15.1741C21.073 15.1018 21.055 15.0188 21.0601 14.9356C21.0653 14.8524 21.0933 14.7727 21.1408 14.7064L21.9254 13.616C21.9456 13.5888 21.9554 13.5546 21.9529 13.52C21.9505 13.4854 21.936 13.4531 21.9123 13.4294L21.2645 12.7381C21.2145 12.6853 21.1434 12.6785 21.0908 12.7223L20.0681 13.561C20.006 13.6116 19.9313 13.6415 19.8534 13.647C19.7754 13.6525 19.6977 13.6334 19.6299 13.5919C19.3471 13.4186 19.0444 13.2852 18.7294 13.195C18.6541 13.1733 18.5865 13.1283 18.5351 13.0657C18.4836 13.0031 18.4507 12.9257 18.4403 12.8432L18.2718 11.4774C18.2674 11.4428 18.2512 11.4112 18.2263 11.3886C18.2014 11.366 18.1696 11.354 18.137 11.3548H17.2206C17.1874 11.3542 17.1551 11.3668 17.1301 11.3902C17.1051 11.4135 17.0891 11.446 17.0853 11.4813L16.9173 12.8432C16.9072 12.9258 16.8743 13.0034 16.8229 13.066C16.7714 13.1287 16.7036 13.1736 16.6282 13.195C16.3101 13.2867 16.0068 13.4199 15.7277 13.5919C15.6599 13.6332 15.5822 13.6523 15.5042 13.6468C15.4263 13.6413 15.3517 13.6115 15.2895 13.561L14.2679 12.7235C14.2425 12.7019 14.2103 12.6913 14.1779 12.6939C14.1455 12.6965 14.1152 12.7121 14.0931 12.7375L13.4448 13.4289C13.4211 13.4524 13.4065 13.4845 13.4038 13.5189C13.4012 13.5534 13.4107 13.5876 13.4306 13.6149L14.2163 14.7064C14.2637 14.7726 14.2917 14.8522 14.2969 14.9353C14.302 15.0184 14.2841 15.1013 14.2453 15.1735C14.0829 15.4754 13.9579 15.7985 13.8735 16.1347C13.8531 16.215 13.8109 16.2872 13.7523 16.3421C13.6936 16.397 13.6211 16.4322 13.5438 16.4432L12.2641 16.6231C12.2317 16.628 12.2022 16.6455 12.181 16.6721C12.1599 16.6987 12.1486 16.7327 12.1493 16.7676V17.7456C12.1493 17.8203 12.1978 17.8799 12.2678 17.89L13.5438 18.0693C13.7023 18.0918 13.8324 18.2132 13.8735 18.3779C13.9593 18.7174 14.0841 19.0411 14.2453 19.339C14.2841 19.4113 14.3021 19.4943 14.297 19.5775C14.2918 19.6607 14.2637 19.7404 14.2163 19.8067L13.4316 20.8971C13.4115 20.9243 13.4017 20.9585 13.4041 20.9931C13.4066 21.0277 13.4211 21.06 13.4448 21.0837L14.0925 21.775C14.1146 21.8003 14.1447 21.8159 14.1769 21.8187C14.2092 21.8215 14.2413 21.8114 14.2668 21.7902L15.2895 20.9516C15.3587 20.8954 15.4433 20.865 15.5302 20.865Z" fill="#FFC000"/>
<path d="M17.68 20.066C16.2281 20.066 15.0469 18.8053 15.0469 17.2557C15.0469 15.706 16.2281 14.4453 17.68 14.4453C19.1318 14.4453 20.3131 15.706 20.3131 17.2557C20.3131 18.8053 19.1318 20.066 17.68 20.066ZM17.68 15.2884C16.6636 15.2884 15.8368 16.1709 15.8368 17.2557C15.8368 18.3404 16.6636 19.2229 17.68 19.2229C18.6963 19.2229 19.5231 18.3404 19.5231 17.2557C19.5231 16.1709 18.6963 15.2884 17.68 15.2884Z" fill="#FFC000"/>
</svg>
