<svg width="27" height="33" viewBox="0 0 27 33" fill="none" xmlns="http://www.w3.org/2000/svg">
<path d="M6.21707 10.418C3.12766 10.418 0 11.2347 0 12.7949V24.2042C0 25.7644 3.12766 26.5812 6.21707 26.5812C9.30648 26.5812 12.4341 25.7644 12.4341 24.2042V12.7949C12.4341 11.2347 9.30648 10.418 6.21707 10.418ZM11.4777 24.2042C11.4777 24.6886 9.62068 25.6304 6.21707 25.6304C2.81346 25.6304 0.956472 24.6886 0.956472 24.2042V21.7322C0.980384 21.7465 1.01003 21.7579 1.03442 21.7721C1.13897 21.8309 1.24586 21.8855 1.35484 21.9357C1.39406 21.9542 1.43136 21.9732 1.47249 21.9908C1.83291 22.1435 2.20485 22.2678 2.58487 22.3626L2.59921 22.3664C3.78376 22.6498 4.99874 22.788 6.21707 22.7781C7.4355 22.7873 8.65048 22.6482 9.83493 22.364L9.84927 22.3602C10.2293 22.2654 10.6012 22.1411 10.9617 21.9884C11.0028 21.9708 11.0401 21.9518 11.0793 21.9333C11.1883 21.8831 11.2952 21.8285 11.3997 21.7698C11.4241 21.7555 11.4538 21.7441 11.4777 21.7298V24.2042ZM11.4777 20.4011C11.4777 20.8855 9.62068 21.8273 6.21707 21.8273C2.81346 21.8273 0.956472 20.8855 0.956472 20.4011V17.9291C0.980384 17.9434 1.01003 17.9548 1.03442 17.969C1.13897 18.0278 1.24586 18.0824 1.35484 18.1326C1.39406 18.1511 1.43136 18.1701 1.47249 18.1877C1.83291 18.3404 2.20485 18.4647 2.58487 18.5595L2.59921 18.5633C3.78376 18.8467 4.99874 18.9849 6.21707 18.975C7.4355 18.9842 8.65048 18.8451 9.83493 18.5609L9.84927 18.5571C10.2293 18.4623 10.6012 18.338 10.9617 18.1853C11.0028 18.1677 11.0401 18.1487 11.0793 18.1302C11.1883 18.08 11.2952 18.0254 11.3997 17.9667C11.4241 17.9524 11.4538 17.941 11.4777 17.9267V20.4011ZM11.4777 16.598C11.4777 17.0824 9.62068 18.0242 6.21707 18.0242C2.81346 18.0242 0.956472 17.0824 0.956472 16.598V14.126C0.980384 14.1403 1.01003 14.1517 1.03442 14.1659C1.13897 14.2247 1.24586 14.2793 1.35484 14.3295C1.39406 14.348 1.43136 14.367 1.47249 14.3846C1.83291 14.5373 2.20485 14.6616 2.58487 14.7564L2.59921 14.7602C3.78376 15.0436 4.99874 15.1818 6.21707 15.1718C7.4355 15.1811 8.65048 15.042 9.83493 14.7578L9.84927 14.754C10.2293 14.6592 10.6012 14.5349 10.9617 14.3822C11.0028 14.3646 11.0401 14.3456 11.0793 14.3271C11.1883 14.2769 11.2952 14.2223 11.3997 14.1636C11.4241 14.1493 11.4538 14.1379 11.4777 14.1236V16.598ZM6.21707 14.2211C2.81346 14.2211 0.956472 13.2793 0.956472 12.7949C0.956472 12.3105 2.81346 11.3687 6.21707 11.3687C9.62068 11.3687 11.4777 12.3105 11.4777 12.7949C11.4777 13.2793 9.62068 14.2211 6.21707 14.2211Z" fill="black"/>
<path fill-rule="evenodd" clip-rule="evenodd" d="M16.3037 10.6895C17.2322 10.5068 18.2776 10.4141 19.3186 10.4141C22.408 10.4141 25.5357 11.2308 25.5357 12.791V24.2003C25.5357 25.7605 22.408 26.5773 19.3186 26.5773C18.2776 26.5773 17.2322 26.4845 16.3037 26.3018V25.3355C17.1064 25.5089 18.116 25.6265 19.3186 25.6265C22.7222 25.6265 24.5792 24.6847 24.5792 24.2003V21.7259C24.567 21.7332 24.5533 21.7397 24.5396 21.7463C24.5264 21.7526 24.5132 21.7589 24.5013 21.7659C24.3967 21.8246 24.2898 21.8792 24.1809 21.9294C24.1691 21.9349 24.1575 21.9405 24.146 21.9461C24.1189 21.9592 24.092 21.9722 24.0632 21.9845C23.7028 22.1372 23.3309 22.2615 22.9508 22.3563L22.9365 22.3601C21.752 22.6443 20.5371 22.7834 19.3186 22.7741C18.3061 22.7824 17.296 22.6884 16.3037 22.4937V21.5324C17.1064 21.7058 18.116 21.8234 19.3186 21.8234C22.7222 21.8234 24.5792 20.8816 24.5792 20.3972V17.9228C24.567 17.9301 24.5533 17.9366 24.5396 17.9432C24.5264 17.9495 24.5132 17.9558 24.5013 17.9627C24.3967 18.0215 24.2898 18.0761 24.1809 18.1263C24.1691 18.1318 24.1575 18.1374 24.146 18.143C24.119 18.1561 24.092 18.1691 24.0632 18.1814C23.7028 18.3341 23.3309 18.4584 22.9508 18.5532L22.9365 18.557C21.752 18.8412 20.5371 18.9803 19.3186 18.971C18.3061 18.9793 17.296 18.8852 16.3037 18.6906V17.7292C17.1064 17.9027 18.116 18.0203 19.3186 18.0203C22.7222 18.0203 24.5792 17.0785 24.5792 16.5941V14.1197C24.567 14.127 24.5533 14.1335 24.5396 14.1401C24.5264 14.1464 24.5132 14.1527 24.5013 14.1596C24.3967 14.2184 24.2898 14.273 24.1809 14.3232C24.1691 14.3287 24.1575 14.3343 24.146 14.3399C24.119 14.353 24.092 14.366 24.0632 14.3783C23.7028 14.531 23.3309 14.6553 22.9508 14.7501L22.9365 14.7539C21.752 15.0381 20.5371 15.1772 19.3186 15.1679C18.3061 15.1762 17.296 15.0821 16.3037 14.8875V13.9261C17.1064 14.0996 18.116 14.2172 19.3186 14.2172C22.7222 14.2172 24.5792 13.2754 24.5792 12.791C24.5792 12.3066 22.7222 11.3648 19.3186 11.3648C18.116 11.3648 17.1064 11.4824 16.3037 11.6559V10.6895Z" fill="black"/>
<path d="M16.0078 8.53516V28.3568" stroke="black" stroke-linecap="round"/>
<path d="M11.7969 7.16871L6.96674 7.04688" stroke="#FFC000" stroke-linecap="round" stroke-linejoin="round"/>
<path d="M9.61486 4.92188L11.8047 7.16747L9.53708 9.34042" stroke="#FFC000" stroke-linecap="round" stroke-linejoin="round"/>
<path d="M11.7969 29.8269L6.96674 29.7051" stroke="#FFC000" stroke-linecap="round" stroke-linejoin="round"/>
<path d="M9.61486 27.5801L11.8047 29.8257L9.53708 31.9986" stroke="#FFC000" stroke-linecap="round" stroke-linejoin="round"/>
</svg>
