<svg width="457" height="462" viewBox="0 0 457 462" fill="none" xmlns="http://www.w3.org/2000/svg">
<path d="M1 237.937C2.20132 238.769 52.8903 238.284 78.0847 237.937H346.38C355.223 238.11 372.5 233.037 372.5 220.057C372.5 207.58 372.241 80.8451 372.408 17.6272C372.422 12.2075 375.5 1 386.924 1H409M456 51.8166V78.9399V382.057C456 392.533 454.3 405.185 429.5 406H342.5H291M241 396H215.5C209.5 396 199 396 199 383.5C199 371.9 199 365.667 199 364C199 359.5 194.6 351 185 351C175.4 351 58.3333 351 1 351M241 417H215.5C210 417 199.03 418.8 199.03 430C199.03 441.2 199.03 445.333 199.03 447.5C199.03 451.5 194.2 460.1 185 460.5C175.8 460.9 58.5 460.667 1 460.5" stroke="url(#paint0_radial_4720_5472)" stroke-width="1.5"/>
<defs>
<radialGradient id="paint0_radial_4720_5472" cx="0" cy="0" r="1" gradientUnits="userSpaceOnUse" gradientTransform="translate(231.593 255.056) rotate(90) scale(254.056 230.593)">
<stop stop-color="#0CC2FF"/>
<stop offset="1" stop-color="#8CF2B2"/>
</radialGradient>
</defs>
</svg>
