<svg width="24" height="24" viewBox="0 0 24 24" fill="none" xmlns="http://www.w3.org/2000/svg">
<g clip-path="url(#clip0_648_406)">
<mask id="mask0_648_406" style="mask-type:luminance" maskUnits="userSpaceOnUse" x="0" y="0" width="24" height="24">
<path d="M24 0H0V24H24V0Z" fill="white"/>
</mask>
<g mask="url(#mask0_648_406)">
<path d="M20.4222 19.7932C20.4222 21.2697 19.2929 22.4667 17.8999 22.4667H3.52237C2.1293 22.4667 1 21.2697 1 19.7932V7.7624C1 6.28587 2.1293 5.0889 3.52237 5.0889" stroke="#20336B"/>
<path d="M20.3583 11.6694L20.4222 19.4" stroke="#20336B" stroke-linecap="square" stroke-linejoin="round"/>
<path d="M3.55554 5.0889H13.7778" stroke="#20336B" stroke-linecap="square"/>
<path d="M20.4222 9.0025L20.1863 1.48273" stroke="#20336B" stroke-linecap="round" stroke-linejoin="round"/>
<path d="M17.6111 5.87427L20.2303 8.91857C20.2788 8.97486 20.3486 9.0071 20.422 9.0071C20.4953 9.0071 20.5651 8.97486 20.6136 8.91857L23.2333 5.87427" stroke="#20336B" stroke-linecap="round" stroke-linejoin="round"/>
<path d="M5.5 12.5H15.5" stroke="#00BAF2" stroke-linecap="square"/>
<path d="M5.5 14.5H15.5" stroke="#00BAF2" stroke-linecap="square"/>
<path d="M13.5 17.5H12.5L8.5 9.5H7.4375V17.5" stroke="#00BAF2" stroke-linecap="square"/>
<path d="M13.5625 17.5V9.5" stroke="#00BAF2" stroke-linecap="square"/>
</g>
</g>
<defs>
<clipPath id="clip0_648_406">
<rect width="24" height="24" fill="white"/>
</clipPath>
</defs>
</svg>
