<svg width="24" height="24" viewBox="0 0 24 24" fill="none" xmlns="http://www.w3.org/2000/svg">
<path d="M19.8 0H4.20001C1.88041 0 0 1.79086 0 4V20C0 22.2091 1.88041 24 4.20001 24H19.8C22.1196 24 24 22.2091 24 20V4C24 1.79086 22.1196 0 19.8 0Z" fill="white"/>
<path d="M10.7646 15.9794L10.9297 15.1943L11.933 15.0384L11.7382 15.9794H10.7646Z" fill="#4ABCEB" stroke="#4ABCEB"/>
<path d="M16.2085 15.9674L16.5184 14.3775L17.4992 14.2555L17.12 15.9674H16.2085Z" fill="#4ABCEB" stroke="#4ABCEB"/>
<path d="M4.7578 16.403L6.9072 15.6406L6.7502 16.4666H4.7578V16.403Z" fill="#4ABCEB"/>
<mask id="mask0_1084_3808" style="mask-type:luminance" maskUnits="userSpaceOnUse" x="4" y="15" width="3" height="2">
<path d="M4.7578 16.403L6.9072 15.6406L6.7502 16.4666H4.7578V16.403Z" fill="white"/>
</mask>
<g mask="url(#mask0_1084_3808)">
<path d="M4.7578 16.403L4.4235 15.4606L3.7578 15.6967V16.403H4.7578ZM6.9072 15.6406L7.8896 15.8273L8.2149 14.1157L6.5728 14.6982L6.9072 15.6406ZM6.7502 16.4666V17.4666H7.578L7.7326 16.6533L6.7502 16.4666ZM4.7578 16.4666H3.7578V17.4666H4.7578V16.4666ZM5.0922 17.3455L7.2415 16.5831L6.5728 14.6982L4.4235 15.4606L5.0922 17.3455ZM5.9247 15.4539L5.7678 16.2799L7.7326 16.6533L7.8896 15.8273L5.9247 15.4539ZM6.7502 15.4666H4.7578V17.4666H6.7502V15.4666ZM5.7578 16.4666V16.403H3.7578V16.4666H5.7578Z" fill="#4ABCEB"/>
</g>
<mask id="mask1_1084_3808" style="mask-type:luminance" maskUnits="userSpaceOnUse" x="4" y="7" width="15" height="10">
<path d="M18.1291 13.6953C17.4356 13.7724 16.7563 13.8533 16.0912 13.938L16.7283 10.7927C16.7962 10.4825 16.8301 10.2022 16.8301 9.9518C16.8301 9.0579 16.3155 8.611 15.2862 8.611H13.7409L12.5576 14.4466C11.8421 14.5641 11.155 14.6874 10.4963 14.8165L11.754 8.611H8.8341C8.4836 8.611 8.2745 8.7897 8.2066 9.147L6.8911 15.6791C6.0806 15.9189 5.3624 16.176 4.75 16.4491L6.3393 8.611C6.4522 8.0504 6.6444 7.6415 6.9159 7.3843C7.1874 7.1281 7.6117 7 8.1887 7H15.8119C16.7513 7 17.5012 7.197 18.0617 7.5909C18.6221 7.9839 18.9024 8.5922 18.9024 9.4157C18.9024 9.7615 18.8795 10.0356 18.8336 10.2378L18.1291 13.6953Z" fill="white"/>
</mask>
<g mask="url(#mask1_1084_3808)">
<path d="M64.6439 22.8454H2.6954V4.71291H64.6439V22.8454Z" fill="#20336B"/>
</g>
</svg>
