<svg width="24" height="25" viewBox="0 0 24 25" fill="none" xmlns="http://www.w3.org/2000/svg">
<path d="M21.8117 6.52066C22.5366 6.52066 23.1265 6.01404 23.1265 5.39139V2.07883C23.1265 1.45617 22.5366 0.949554 21.8117 0.949554H19.3245C19.1066 0.949554 18.93 1.10119 18.93 1.28832C18.93 1.47546 19.1066 1.62709 19.3245 1.62709H21.8117C22.1016 1.62709 22.3376 1.82972 22.3376 2.07883V5.39139C22.3376 5.6405 22.1016 5.84313 21.8117 5.84313H18.098V4.4353H19.9921C20.4738 4.4353 20.8655 4.09883 20.8655 3.68522V3.1375C20.8655 2.72388 20.4738 2.38742 19.9921 2.38742H3.13448C2.65286 2.38742 2.26108 2.72388 2.26108 3.1375V3.68518C2.26108 4.09878 2.65286 4.43525 3.13448 4.43525H5.3669V5.84309H1.315C1.02493 5.84309 0.788932 5.64045 0.788932 5.39134V2.07883C0.788932 1.82972 1.02498 1.62709 1.315 1.62709H17.7472C17.9652 1.62709 18.1417 1.47546 18.1417 1.28832C18.1417 1.10119 17.9652 0.949554 17.7472 0.949554H1.315C0.589911 0.949554 0 1.45617 0 2.07883V5.39139C0 6.01404 0.589911 6.52066 1.315 6.52066H5.3669V11.8356C5.3669 12.0227 5.54347 12.1743 5.76136 12.1743C5.97927 12.1743 6.15583 12.0227 6.15583 11.8356V4.4353H6.84804V15.3214C6.84804 15.5086 7.0246 15.6602 7.24251 15.6602C8.2332 15.6602 9.03917 16.3524 9.03917 17.2032C9.03917 17.3904 9.21573 17.542 9.43364 17.542H14.0311C14.2491 17.542 14.4257 17.3904 14.4257 17.2032C14.4257 16.564 14.8903 15.9913 15.574 15.7639L15.7142 15.9966C15.7313 16.0252 15.7364 16.0501 15.7119 16.0758C15.1597 16.6519 14.9303 17.4105 15.0675 18.1364H6.26571C6.20517 18.1364 6.15583 18.0941 6.15583 18.0421V13.19C6.15583 13.003 5.97927 12.8513 5.76136 12.8513C5.54347 12.8513 5.3669 13.003 5.3669 13.19V18.0421C5.3669 18.4677 5.7701 18.814 6.26571 18.814H15.2769C15.3181 18.9676 15.3414 19.1242 15.3457 19.2821L15.3847 20.8958H15.0107C14.5288 20.8958 14.1514 21.2819 14.1514 21.7748V23.1972C14.1514 23.69 14.5288 24.0762 15.0107 24.0762H16.9149C17.1327 24.0762 17.3093 23.9245 17.3093 23.7374C17.3093 23.5502 17.1327 23.3985 16.9149 23.3985H15.0214C14.9942 23.3815 14.9403 23.3092 14.9403 23.1972V21.7748C14.9403 21.6628 14.9942 21.5903 15.0214 21.5733H20.8063C20.8335 21.5903 20.8874 21.6628 20.8874 21.7748V23.1972C20.8874 23.3091 20.8335 23.3815 20.8063 23.3985H18.4921C18.2741 23.3985 18.0976 23.5502 18.0976 23.7374C18.0976 23.9245 18.2741 24.0762 18.4921 24.0762H20.817C21.2989 24.0762 21.6763 23.69 21.6763 23.1972V21.7748C21.6763 21.2819 21.2989 20.8958 20.817 20.8958H20.2257V19.4409C20.2257 19.1657 20.3212 18.9002 20.5021 18.673L22.3763 16.318C23.3015 15.1553 23.1196 13.5991 21.9436 12.6176L18.0979 9.40814V6.52066H21.8117ZM17.309 12.7649L16.6169 12.1469V4.4353H17.309V12.7649ZM3.13448 3.75776C3.08789 3.75776 3.05001 3.7252 3.05001 3.68522V3.1375C3.05001 3.09748 3.08794 3.06495 3.13448 3.06495H19.9921C20.0387 3.06495 20.0766 3.09752 20.0766 3.1375V3.68518C20.0766 3.7252 20.0386 3.75771 19.9921 3.75771C17.5267 3.75776 3.67585 3.75776 3.13448 3.75776ZM13.6673 16.8644H9.79812C9.6274 15.9107 8.74753 15.155 7.63702 15.0084V4.4353H15.828V11.4698C15.3137 11.1512 14.5892 11.1852 14.1176 11.581C13.6952 11.9355 13.5936 12.4762 13.8651 12.9268L15.2101 15.1598C14.3904 15.4601 13.804 16.1098 13.6673 16.8644ZM21.3938 13.1036C22.2939 13.8548 22.4331 15.0459 21.7249 15.9357L19.8507 18.2907C19.5799 18.631 19.4368 19.0287 19.4368 19.4409V20.8958H16.1737L16.1345 19.2672C16.1259 18.9525 16.0603 18.6422 15.9395 18.3451C15.6858 17.7212 15.832 17.0166 16.3209 16.5064C16.5461 16.2716 16.5818 15.9485 16.4129 15.6817L14.5658 12.6153C14.4549 12.4314 14.4964 12.2103 14.669 12.0655C14.8892 11.8806 15.2359 11.8912 15.4426 12.0758L18.8912 15.1548C19.0423 15.2896 19.292 15.2938 19.4489 15.1641C19.6059 15.0344 19.6108 14.82 19.4598 14.6852L18.0979 13.4692V10.3529L21.3938 13.1036Z" fill="#20336B"/>
<path d="M8.18513 16.3679C8.39552 16.3679 8.566 16.176 8.566 15.9393C8.566 15.7026 8.39552 15.5107 8.18513 15.5107H8.08972C7.87933 15.5107 7.70885 15.7026 7.70885 15.9393C7.70885 16.176 7.87933 16.3679 8.08972 16.3679H8.18513Z" fill="#20336B"/>
<path d="M14.2957 10.5411H13.545V9.81951H14.2957C14.4086 9.81951 14.5 9.72815 14.5 9.61532C14.5 9.50247 14.4086 9.41106 14.2957 9.41106H13.545V8.40986C13.545 8.26371 13.5161 8.15643 13.4591 8.09109C13.405 8.02893 13.3339 8 13.2354 8C13.1414 8 13.0729 8.02873 13.0199 8.0905C12.9636 8.15591 12.935 8.26338 12.935 8.40992V9.41118H11.5228L10.9223 8.50252C10.8737 8.42569 10.8248 8.34904 10.7756 8.27255C10.7334 8.20688 10.6922 8.15342 10.6533 8.1135C10.6188 8.07816 10.5795 8.0508 10.5336 8.02978C10.4903 8.01 10.4352 8.00007 10.37 8.00007C10.2869 8.00007 10.2114 8.02284 10.1392 8.06963C10.0676 8.11592 10.0182 8.17314 9.98803 8.24458C9.96153 8.31247 9.94751 8.4165 9.94751 8.5508V9.41111H9.20418C9.09139 9.41112 9 9.50254 9 9.61537C9 9.72821 9.09139 9.81956 9.20419 9.81956H9.94752V10.5412H9.20419C9.09139 10.5412 9 10.6326 9 10.7455C9 10.8583 9.09139 10.9496 9.20419 10.9496H9.94752V12.0927C9.94752 12.2345 9.97732 12.3407 10.0363 12.4082C10.0925 12.4725 10.1637 12.5024 10.2603 12.5024C10.3536 12.5024 10.4242 12.4724 10.4827 12.4079C10.5427 12.3419 10.573 12.2358 10.573 12.0927V10.9496H11.851L12.5425 12.01C12.591 12.0806 12.6401 12.1506 12.6898 12.2203C12.7345 12.2825 12.7832 12.3374 12.8346 12.3833C12.881 12.4248 12.9306 12.4552 12.9822 12.4737C13.0354 12.4928 13.0975 12.5025 13.1664 12.5025C13.3534 12.5025 13.5449 12.4453 13.5449 12.0207V10.9496H14.2957C14.4085 10.9496 14.5 10.8581 14.5 10.7453C14.5 10.6325 14.4086 10.5411 14.2957 10.5411ZM12.935 9.81949V10.5411H12.2696L11.7928 9.81949H12.935ZM10.5731 8.9904L10.8475 9.41106H10.5731V8.9904ZM10.5731 10.5411V9.81951H11.1139L11.5846 10.5411H10.5731ZM12.935 11.5482L12.5395 10.9496H12.935V11.5482Z" fill="#24BAF2"/>
</svg>
