<svg width="36" height="18" viewBox="0 0 36 18" fill="none" xmlns="http://www.w3.org/2000/svg">
<path d="M4.15918 1H1.4C1.17909 1 1 1.17909 1 1.4V4.15918" stroke="#2988E2" stroke-linecap="round"/>
<path d="M4.15918 16.7958H1.4C1.17909 16.7958 1 16.6168 1 16.3958V13.6367" stroke="#2988E2" stroke-linecap="round"/>
<path d="M13.5197 16.7958H16.2789C16.4998 16.7958 16.6789 16.6168 16.6789 16.3958V13.6367" stroke="#2988E2" stroke-linecap="round"/>
<path d="M13.5197 1H16.2789C16.4998 1 16.6789 1.17909 16.6789 1.4V4.15918" stroke="#2988E2" stroke-linecap="round"/>
<path d="M7.31841 11.3048L8.06583 12.0522C8.23215 12.2185 8.50538 12.2061 8.65596 12.0254L11.0184 9.19049" stroke="#37CC00" stroke-linecap="round"/>
<path d="M4.97821 9.19041H4.79317C4.57226 9.19041 4.39317 9.36949 4.39317 9.59041V11.1305C4.39317 11.3515 4.57226 11.5305 4.79317 11.5305H5.16492C5.38518 11.5305 5.5617 11.7091 5.57842 11.9287C5.64557 12.8108 5.94286 13.4583 6.63245 14.2845C7.05037 14.7851 7.68683 15.0407 8.33901 15.0407H9.7326C10.4287 15.0407 11.1106 14.7531 11.5118 14.1844C11.9729 13.5308 12.2633 12.8799 12.5119 11.8451C12.5559 11.6621 12.7179 11.5305 12.9061 11.5305H13.3537C13.5746 11.5305 13.7537 11.3515 13.7537 11.1305V9.59041C13.7537 9.36949 13.5746 9.19041 13.3537 9.19041H13.1687M4.97821 9.19041H5.14277C5.37152 9.19041 5.55312 8.9984 5.54602 8.76976C5.48669 6.85791 5.74489 6.05002 6.43544 5.36398C6.59247 5.20797 6.84667 5.23535 7.00088 5.39416C8.04948 6.47405 9.33505 6.77273 10.8957 6.83659C11.542 6.86304 12.1092 7.29247 12.2661 7.92006L12.5079 8.88742C12.5524 9.06548 12.7124 9.19041 12.896 9.19041H13.1687M4.97821 9.19041C3.43514 5.17354 4.68893 3.27259 6.58121 3.87206C6.67938 3.90316 6.79034 3.90089 6.88548 3.8615C13.5583 1.0986 13.7493 4.54522 13.1687 9.19041" stroke="#37CC00" stroke-linecap="round"/>
<path d="M22.8803 1H20.1211C19.9002 1 19.7211 1.17909 19.7211 1.4V4.15918" stroke="#2988E2" stroke-linecap="round"/>
<path d="M22.8803 16.7958H20.1211C19.9002 16.7958 19.7211 16.6168 19.7211 16.3958V13.6367" stroke="#2988E2" stroke-linecap="round"/>
<path d="M32.2408 16.7958H35C35.2209 16.7958 35.4 16.6168 35.4 16.3958V13.6367" stroke="#2988E2" stroke-linecap="round"/>
<path d="M32.2408 1H35C35.2209 1 35.4 1.17909 35.4 1.4V4.15918" stroke="#2988E2" stroke-linecap="round"/>
<path d="M32.4762 9.3831V11.1707C32.4762 11.3916 32.2971 11.5707 32.0762 11.5707H31.5049C31.3167 11.5707 31.1545 11.7024 31.1109 11.8855C30.8223 13.0991 30.4841 13.8373 29.9297 14.5995C29.5202 15.1623 28.8418 15.4522 28.1457 15.4522H26.3809C25.7287 15.4522 25.0943 15.1949 24.6714 14.6984C23.8479 13.7317 23.5032 12.9953 23.4333 11.9689C23.4183 11.7491 23.2415 11.5707 23.0212 11.5707H22.5257C22.3048 11.5707 22.1257 11.3916 22.1257 11.1707V9.3831C22.1257 9.16219 22.3048 8.9831 22.5257 8.9831H22.7726C21.062 4.53014 22.4598 2.42877 24.5611 3.10741C24.6591 3.13905 24.7705 3.13671 24.8656 3.09725C32.2598 0.0300303 32.4718 3.84295 31.8293 8.9831H32.0762C32.2971 8.9831 32.4762 9.16219 32.4762 9.3831Z" fill="#37CC00"/>
<path d="M22.7726 8.9831H22.5257C22.3048 8.9831 22.1257 9.16219 22.1257 9.3831V11.1707C22.1257 11.3916 22.3048 11.5707 22.5257 11.5707H23.0212C23.2415 11.5707 23.4183 11.7491 23.4333 11.9689C23.5032 12.9953 23.8479 13.7317 24.6714 14.6984C25.0943 15.1949 25.7287 15.4522 26.3809 15.4522H28.1457C28.8418 15.4522 29.5202 15.1623 29.9297 14.5995C30.4841 13.8373 30.8223 13.0991 31.1109 11.8855C31.1545 11.7024 31.3167 11.5707 31.5049 11.5707H32.0762C32.2971 11.5707 32.4762 11.3916 32.4762 11.1707V9.3831C32.4762 9.16219 32.2971 8.9831 32.0762 8.9831H31.8293M22.7726 8.9831H22.999C23.2278 8.9831 23.4094 8.79049 23.4019 8.56187C23.33 6.38827 23.6226 5.49255 24.4143 4.72219C24.5729 4.56782 24.8268 4.59476 24.9797 4.7548C26.1706 6.00104 27.6395 6.32365 29.4328 6.38473C30.0793 6.40675 30.646 6.83768 30.8029 7.46526L31.1066 8.68011C31.1512 8.85818 31.3111 8.9831 31.4947 8.9831H31.8293M22.7726 8.9831C21.062 4.53014 22.4598 2.42877 24.5611 3.10741C24.6591 3.13905 24.7705 3.13671 24.8656 3.09725C32.2598 0.0300302 32.4718 3.84295 31.8293 8.9831" stroke="white" stroke-width="0.5" stroke-linecap="round"/>
<path d="M25.3603 11.2689L26.1935 12.1021C26.3598 12.2684 26.633 12.256 26.7836 12.0753L29.3603 8.98322" stroke="white" stroke-linecap="round"/>
</svg>
