<svg width="36" height="19" viewBox="0 0 36 19" fill="none" xmlns="http://www.w3.org/2000/svg">
<rect x="8.30584" y="0.5" width="26.5242" height="17.3495" rx="1" fill="white" stroke="#2988E2"/>
<rect x="21.3058" y="5.37372" width="10.4854" height="1.31068" rx="0.655338" fill="#2988E2"/>
<rect x="21.3058" y="8.38831" width="10.4854" height="1.31068" rx="0.655338" fill="#2988E2"/>
<rect x="21.3058" y="11.534" width="6.16017" height="1.31068" rx="0.655338" fill="#2988E2"/>
<ellipse cx="15.3422" cy="6.59282" rx="2.29368" ry="2.29368" fill="#2988E2"/>
<path d="M11.2136 10.6729C11.2136 10.1206 11.6613 9.67285 12.2136 9.67285H18.4708C19.0231 9.67285 19.4708 10.1206 19.4708 10.6729V13.9981H11.2136V10.6729Z" fill="#2988E2"/>
<ellipse cx="5.53396" cy="13.1068" rx="5.53396" ry="5.53396" fill="#37CC00"/>
<path d="M2.56309 13.2323L3.88611 14.9964C4.02577 15.1826 4.29433 15.2107 4.46951 15.0574L8.36309 11.6505" stroke="white" stroke-linecap="round"/>
</svg>
