<svg width="29" height="29" viewBox="0 0 29 29" fill="none" xmlns="http://www.w3.org/2000/svg">
<path d="M7.08696 1H2.5C1.67157 1 1 1.67157 1 2.5V7.08696" stroke="#2988E2" stroke-linecap="round"/>
<path d="M23.1566 17.4349V19.261" stroke="#2988E2" stroke-linecap="round"/>
<path d="M16.826 23.5216H19.2608" stroke="#2988E2" stroke-linecap="round"/>
<path d="M7.08696 23.5216H2.5C1.67157 23.5216 1 22.85 1 22.0216V17.4346" stroke="#2988E2" stroke-linecap="round"/>
<path d="M16.826 1H21.413C22.2414 1 22.913 1.67157 22.913 2.5V7.08696" stroke="#2988E2" stroke-linecap="round"/>
<path d="M7.69568 17.4349C10.1305 19.261 12.5652 19.8697 16.2174 17.4349" stroke="#37CC00"/>
<path d="M7.55285 10.1844C7.55285 9.38104 7.64686 8.25026 7.80638 7.46149C7.89309 7.03277 7.97008 6.60192 8.16179 6.20336C8.49301 5.51477 8.91485 5.54387 9.61539 5.51743C10.2389 5.4939 10.6672 4.77634 11.1472 4.42634C11.6425 4.06515 12.7375 4.35256 13.2689 4.52585C14.2471 4.84482 15.0863 5.31409 15.7319 6.43437C16.3775 7.55466 16.0106 9.24178 16.2176 10.1303M15.7319 12.4229C15.7064 12.8632 15.5954 13.036 15.3125 13.3896C14.2426 14.727 13.1793 16.2381 11.2325 15.9947C10.3622 15.886 9.50738 15.0145 9.02898 14.3421C8.50319 13.6032 8.16612 12.6303 7.97698 11.7477C7.88503 11.3186 7.38536 11.1492 7.26972 10.7561C7.17881 10.447 7.23111 10.1839 7.57893 10.1839" stroke="#37CC00" stroke-linecap="round"/>
<path d="M7.76541 10.1861C7.82124 10.0521 8.02044 9.95581 8.11563 9.84527C8.30088 9.63015 8.42202 9.37952 8.57721 9.14484C8.68908 8.97568 8.76702 8.81343 8.79861 8.6108C8.83261 8.39276 8.82594 8.18427 8.9073 7.97477C9.06931 7.5576 9.35762 7.31971 9.7862 7.18578C10.0081 7.11645 10.2956 7.26012 10.5081 7.31191C10.844 7.39379 11.1254 7.62391 11.4554 7.70641C11.7131 7.77082 12.0479 7.57694 12.2793 7.48098C12.6142 7.34212 12.9758 7.36022 13.3313 7.36022C13.4475 7.36022 13.5811 7.34355 13.6936 7.38169C13.8673 7.44059 14.0181 7.58664 14.1565 7.70104C14.4691 7.95941 15.3816 9.17819 15.6088 9.52185" stroke="#37CC00" stroke-linecap="round"/>
<path d="M15.3438 9.18628C15.451 9.33043 15.5847 9.46296 15.7061 9.59554C15.9575 9.8701 16.3031 10.014 16.4844 10.3604C16.5997 10.5808 16.6063 10.8052 16.5072 11.0299C16.4271 11.2114 16.2985 11.2999 16.1757 11.4472C16.0693 11.575 15.9595 11.7066 15.8591 11.8391C15.7702 11.9562 15.7551 12.1489 15.7115 12.2872" stroke="#37CC00" stroke-linecap="round"/>
<path d="M9.98916 15.4745C9.94103 16.1423 9.50883 16.5841 8.96742 16.9524C8.5986 17.2033 8.20896 17.3401 7.77053 17.4085C7.28869 17.4838 6.79581 17.4422 6.31638 17.5271C4.82931 17.7907 4.63219 19.3275 4.57031 20.565" stroke="#37CC00" stroke-linecap="round"/>
<path d="M13.7827 15.2433C13.8308 15.9111 14.4587 16.4576 15.0001 16.826C15.3689 17.0769 16.0898 17.3399 16.5282 17.4083C17.01 17.4835 17.5029 17.4419 17.9823 17.5269C19.4694 17.7904 19.6665 19.3272 19.7284 20.5647" stroke="#37CC00" stroke-linecap="round"/>
<circle cx="24.7393" cy="24.7393" r="3.86087" stroke="#37CC00" stroke-width="0.8"/>
<path d="M22.913 24.739L24.3768 26.2028C24.5608 26.3868 24.8687 26.3489 25.0026 26.1258L26.5651 23.5216" stroke="#37CC00" stroke-width="0.8" stroke-linecap="round"/>
</svg>
