<svg width="26" height="22" viewBox="0 0 26 22" fill="none" xmlns="http://www.w3.org/2000/svg">
<path d="M0.39394 10.1384H3.52149V6.93281C3.52149 6.80221 3.57337 6.67696 3.66572 6.58461C3.75806 6.49227 3.88332 6.44038 4.01391 6.44038H5.12561V0.656566C5.12561 0.293944 5.41962 0 5.78218 0H25.3434C25.7061 0 26 0.293944 26 0.656566V13.2089C26 13.5715 25.7061 13.8655 25.3434 13.8655H18.5501C18.6808 14.6162 18.9617 15.8566 19.5272 17.0878C19.5731 17.1879 19.5932 17.2979 19.5855 17.4077C19.5778 17.5175 19.5427 17.6236 19.4833 17.7163C19.4238 17.809 19.3421 17.8852 19.2455 17.938C19.1489 17.9908 19.0406 18.0185 18.9305 18.0185H14.2999V19.7434C14.2999 19.874 14.248 19.9992 14.1556 20.0916C14.0633 20.1839 13.938 20.2358 13.8074 20.2358H6.71818V20.8334C6.71818 20.9378 6.67667 21.038 6.60279 21.1119C6.52892 21.1858 6.42872 21.2273 6.32424 21.2273H0.39394C0.289461 21.2273 0.18926 21.1858 0.115381 21.1119C0.0415039 21.038 0 20.9378 0 20.8334V10.5324C0 10.4279 0.0415039 10.3277 0.115381 10.2538C0.18926 10.1799 0.289461 10.1384 0.39394 10.1384ZM14.2999 6.93281V12.5524H24.6869V1.31313H6.43868V6.44032H13.8074C13.9381 6.44034 14.0633 6.49223 14.1556 6.58459C14.248 6.67695 14.2999 6.8022 14.2999 6.93281ZM6.71818 19.251H13.315V18.6792H9.40301V18.7254C9.40301 18.9974 9.1826 19.2178 8.91058 19.2178C8.63857 19.2178 8.41816 18.9974 8.41816 18.7254V18.6792H6.71818V19.251ZM6.71818 10.5324V17.6943H13.315V7.42523H4.50634V10.1384H6.32424C6.42872 10.1384 6.52892 10.1799 6.60279 10.2538C6.67667 10.3277 6.71818 10.4279 6.71818 10.5324ZM0.78788 20.4394H5.9303V19.9756H3.753V20.0147C3.753 20.1192 3.71149 20.2194 3.63761 20.2933C3.56373 20.3672 3.46354 20.4087 3.35906 20.4087C3.25458 20.4087 3.15438 20.3672 3.0805 20.2933C3.00662 20.2194 2.96512 20.1192 2.96512 20.0147V19.9756H0.78788V20.4394ZM0.78788 19.1876H5.9303V12.178H0.78788V19.1876ZM0.78788 11.3902H5.9303V10.9263H0.78788V11.3902Z" fill="url(#paint0_linear_645_215)"/>
<defs>
<linearGradient id="paint0_linear_645_215" x1="13" y1="0" x2="13" y2="21.2273" gradientUnits="userSpaceOnUse">
<stop stop-color="#37CC00"/>
<stop offset="1" stop-color="#2988E2"/>
</linearGradient>
</defs>
</svg>
