<svg width="25" height="25" viewBox="0 0 25 25" fill="none" xmlns="http://www.w3.org/2000/svg">
<path fill-rule="evenodd" clip-rule="evenodd" d="M2 1H9.94443V2H2V10.091L1 10.0861V2V1H2ZM1 15.1973V23V24H2H9.94443V23H2V15.2022L1 15.1973ZM23 15.306V23H15.0555V24H23H24V23V15.3109L23 15.306ZM24 10.1998V2V1H23H15.0555V2H23V10.1948L24 10.1998Z" fill="#2988E2"/>
<path d="M9.94443 1H10.2944V0.65H9.94443V1ZM9.94443 2V2.35H10.2944V2H9.94443ZM2 2V1.65H1.65V2H2ZM2 10.091L1.99827 10.441L2.35 10.4428V10.091H2ZM1 10.0861H0.65V10.4344L0.99827 10.4361L1 10.0861ZM1 1V0.65H0.65V1H1ZM1 15.1973L1.00173 14.8473L0.65 14.8455V15.1973H1ZM1 24H0.65V24.35H1V24ZM9.94443 24V24.35H10.2944V24H9.94443ZM9.94443 23H10.2944V22.65H9.94443V23ZM2 23H1.65V23.35H2V23ZM2 15.2022H2.35V14.8539L2.00173 14.8522L2 15.2022ZM23 23V23.35H23.35V23H23ZM23 15.306L23.0017 14.956L22.65 14.9543V15.306H23ZM15.0555 23V22.65H14.7055V23H15.0555ZM15.0555 24H14.7055V24.35H15.0555V24ZM24 24V24.35H24.35V24H24ZM24 15.3109H24.35V14.9627L24.0017 14.961L24 15.3109ZM24 10.1998L23.9983 10.5498L24.35 10.5515V10.1998H24ZM24 1H24.35V0.65H24V1ZM15.0555 1V0.65H14.7055V1H15.0555ZM15.0555 2H14.7055V2.35H15.0555V2ZM23 2H23.35V1.65H23V2ZM23 10.1948H22.65V10.5431L22.9983 10.5448L23 10.1948ZM9.94443 0.65H2V1.35H9.94443V0.65ZM10.2944 2V1H9.59443V2H10.2944ZM2 2.35H9.94443V1.65H2V2.35ZM2.35 10.091V2H1.65V10.091H2.35ZM0.99827 10.4361L1.99827 10.441L2.00173 9.74105L1.00173 9.7361L0.99827 10.4361ZM0.65 2V10.0861H1.35V2H0.65ZM0.65 1V2H1.35V1H0.65ZM2 0.65H1V1.35H2V0.65ZM0.65 15.1973V23H1.35V15.1973H0.65ZM0.65 23V24H1.35V23H0.65ZM1 24.35H2V23.65H1V24.35ZM2 24.35H9.94443V23.65H2V24.35ZM10.2944 24V23H9.59443V24H10.2944ZM9.94443 22.65H2V23.35H9.94443V22.65ZM2.35 23V15.2022H1.65V23H2.35ZM2.00173 14.8522L1.00173 14.8473L0.99827 15.5473L1.99827 15.5522L2.00173 14.8522ZM23.35 23V15.306H22.65V23H23.35ZM15.0555 23.35H23V22.65H15.0555V23.35ZM15.4055 24V23H14.7055V24H15.4055ZM23 23.65H15.0555V24.35H23V23.65ZM24 23.65H23V24.35H24V23.65ZM23.65 23V24H24.35V23H23.65ZM23.65 15.3109V23H24.35V15.3109H23.65ZM24.0017 14.961L23.0017 14.956L22.9983 15.656L23.9983 15.6609L24.0017 14.961ZM23.65 2V10.1998H24.35V2H23.65ZM23.65 1V2H24.35V1H23.65ZM23 1.35H24V0.65H23V1.35ZM15.0555 1.35H23V0.65H15.0555V1.35ZM15.4055 2V1H14.7055V2H15.4055ZM23 1.65H15.0555V2.35H23V1.65ZM23.35 10.1948V2H22.65V10.1948H23.35ZM22.9983 10.5448L23.9983 10.5498L24.0017 9.84978L23.0017 9.84484L22.9983 10.5448Z" fill="#2988E2"/>
<path d="M4.90058 13.3038C4.90058 11.8515 5.83319 10.839 7.12553 10.839C8.41787 10.839 9.35048 11.8515 9.35048 13.3038C9.35048 14.756 8.41787 15.7685 7.12553 15.7685C5.83319 15.7685 4.90058 14.756 4.90058 13.3038ZM8.49781 13.3038C8.49781 12.2646 7.93158 11.5917 7.12553 11.5917C6.31949 11.5917 5.75325 12.2646 5.75325 13.3038C5.75325 14.343 6.31949 15.0158 7.12553 15.0158C7.93158 15.0158 8.49781 14.343 8.49781 13.3038ZM10.6519 13.3038C10.6519 14.3363 11.2114 15.0158 11.9975 15.0158C12.5571 15.0158 12.9634 14.676 13.11 14.1165L13.9094 14.3896C13.6296 15.2356 12.9634 15.7685 11.9975 15.7685C10.7251 15.7685 9.79918 14.756 9.79918 13.3038C9.79918 11.8515 10.7251 10.839 11.9975 10.839C12.9634 10.839 13.6296 11.3719 13.9094 12.2179L13.11 12.4911C12.9634 11.9315 12.5571 11.5917 11.9975 11.5917C11.2114 11.5917 10.6519 12.2712 10.6519 13.3038ZM15.3416 13.8433V15.6952H14.4889V10.9123H16.4008C17.4666 10.9123 18.1328 11.4119 18.1328 12.3778C18.1328 13.1306 17.7198 13.6102 17.0203 13.7767L18.2527 15.6952H17.2801L16.1143 13.8433H15.3416ZM15.3416 13.1106H16.3541C16.967 13.1106 17.2934 12.8441 17.2934 12.3778C17.2934 11.9048 16.967 11.645 16.3541 11.645H15.3416V13.1106Z" fill="#37CC00" stroke="#37CC00" stroke-width="0.5"/>
</svg>
