<svg width="24" height="24" viewBox="0 0 24 24" fill="none" xmlns="http://www.w3.org/2000/svg">
<path d="M21.5 6H18.5C18.367 6 18.24 5.947 18.146 5.854C18.053 5.76 18 5.633 18 5.5C18 5.367 18.053 5.24 18.146 5.146C18.24 5.053 18.367 5 18.5 5H21V2.5C21 2.367 21.053 2.24 21.146 2.146C21.24 2.053 21.367 2 21.5 2C21.633 2 21.76 2.053 21.854 2.146C21.947 2.24 22 2.367 22 2.5V5.5C22 5.633 21.947 5.76 21.854 5.854C21.76 5.947 21.633 6 21.5 6Z" fill="#37CC00"/>
<path d="M12 24C5.383 24 0 18.617 0 12C0 5.383 5.383 0 12 0C15.8 0 19.409 1.83 21.653 4.895C21.692 4.948 21.72 5.008 21.735 5.072C21.751 5.136 21.754 5.202 21.744 5.267C21.734 5.332 21.711 5.394 21.677 5.45C21.643 5.506 21.598 5.555 21.545 5.594C21.492 5.633 21.432 5.661 21.368 5.676C21.304 5.692 21.238 5.695 21.173 5.685C21.108 5.675 21.046 5.652 20.99 5.618C20.934 5.584 20.885 5.539 20.846 5.486C19.826 4.098 18.494 2.969 16.957 2.189C15.421 1.41 13.723 1.003 12 1C5.935 1 1 5.935 1 12C1 18.065 5.935 23 12 23C18.065 23 23 18.065 23 12C23 11.484 22.969 11.017 22.905 10.571C22.895 10.444 22.933 10.318 23.013 10.218C23.092 10.118 23.207 10.052 23.333 10.034C23.459 10.016 23.588 10.047 23.692 10.12C23.797 10.194 23.869 10.304 23.895 10.429C23.966 10.922 24 11.436 24 12C24 18.617 18.617 24 12 24Z" fill="#37CC00"/>
<path d="M12 20C11.933 20 11.867 19.987 11.806 19.96C11.568 19.861 6 17.454 6 12.536V8.35701C6 8.14301 6.137 7.95201 6.34 7.88301L11.84 6.02601C11.944 5.99101 12.056 5.99101 12.16 6.02601L17.66 7.88301C17.863 7.95201 18 8.14301 18 8.35701V12.536C18 17.454 12.432 19.861 12.194 19.961C12.133 19.987 12.067 20 12 20ZM7 8.71601V12.536C7 16.321 11.055 18.494 12 18.95C12.944 18.493 17 16.312 17 12.536V8.71601L12 7.028L7 8.71601Z" fill="#2988E2"/>
<path d="M11.499 15L11.471 14.999C11.401 14.995 11.332 14.977 11.269 14.944C11.207 14.912 11.152 14.867 11.108 14.812L9.10799 12.312C9.03399 12.208 9.00299 12.079 9.02099 11.953C9.03799 11.826 9.10399 11.711 9.20399 11.631C9.30299 11.552 9.43 11.513 9.557 11.523C9.685 11.534 9.803 11.592 9.889 11.687L11.54 13.751L14.645 10.646C14.739 10.555 14.865 10.505 14.997 10.506C15.128 10.507 15.253 10.56 15.346 10.652C15.438 10.745 15.491 10.87 15.492 11.002C15.493 11.133 15.443 11.259 15.352 11.353L11.852 14.853C11.806 14.9 11.751 14.937 11.69 14.962C11.63 14.987 11.565 15 11.499 15Z" fill="#37CC00"/>
</svg>
