<svg width="206" height="230" viewBox="0 0 206 230" fill="none" xmlns="http://www.w3.org/2000/svg">
<line x1="102.5" y1="230" x2="102.5" y2="176" stroke="#E7E7E7" stroke-dasharray="4 4"/>
<rect y="24" width="206" height="152" rx="12" fill="#49D7C6"/>
<path d="M27.036 52.102H28.884L31.843 60H30.204L29.577 58.306H26.321L25.694 60H24.088L27.036 52.102ZM27.938 53.895L26.827 56.931H29.06L27.938 53.895ZM34.2377 52.102V60H32.6207V52.102H34.2377ZM37.2348 57.096V60H35.6178V52.102H38.8518C40.6668 52.102 41.7998 52.96 41.7998 54.599C41.7998 56.227 40.6668 57.096 38.8518 57.096H37.2348ZM37.2348 55.721H38.7638C39.7098 55.721 40.1938 55.303 40.1938 54.599C40.1938 53.884 39.7098 53.477 38.7638 53.477H37.2348V55.721ZM44.6138 56.986C44.6138 56.3847 44.6688 55.798 44.7788 55.226C44.8962 54.654 45.0758 54.1077 45.3178 53.587C45.5598 53.0663 45.8642 52.586 46.2308 52.146H47.5728C47.2428 52.6007 46.9642 53.092 46.7368 53.62C46.5095 54.148 46.3372 54.6943 46.2198 55.259C46.1025 55.8237 46.0438 56.3957 46.0438 56.975C46.0438 57.5397 46.1025 58.1043 46.2198 58.669C46.3372 59.2263 46.5058 59.7617 46.7258 60.275C46.9532 60.7957 47.2318 61.2833 47.5618 61.738H46.2308C45.8642 61.3053 45.5598 60.8323 45.3178 60.319C45.0758 59.813 44.8962 59.2777 44.7788 58.713C44.6688 58.1483 44.6138 57.5727 44.6138 56.986ZM50.9374 52.102H52.7854L55.7444 60H54.1054L53.4784 58.306H50.2224L49.5954 60H47.9894L50.9374 52.102ZM51.8394 53.895L50.7284 56.931H52.9614L51.8394 53.895ZM59.5382 60.121C58.8122 60.121 58.2622 59.835 57.9212 59.406V61.958H56.3812V54.214H57.9212V54.808C58.2622 54.39 58.8122 54.104 59.5382 54.104C61.1332 54.104 62.0572 55.468 62.0572 57.107C62.0572 58.757 61.1332 60.121 59.5382 60.121ZM57.8882 56.953V57.272C57.8882 58.251 58.4382 58.801 59.1752 58.801C60.0442 58.801 60.5062 58.108 60.5062 57.107C60.5062 56.117 60.0442 55.424 59.1752 55.424C58.4382 55.424 57.8882 55.963 57.8882 56.953ZM66.1339 60.121C65.4079 60.121 64.8579 59.835 64.5169 59.406V61.958H62.9769V54.214H64.5169V54.808C64.8579 54.39 65.4079 54.104 66.1339 54.104C67.7289 54.104 68.6529 55.468 68.6529 57.107C68.6529 58.757 67.7289 60.121 66.1339 60.121ZM64.4839 56.953V57.272C64.4839 58.251 65.0339 58.801 65.7709 58.801C66.6399 58.801 67.1019 58.108 67.1019 57.107C67.1019 56.117 66.6399 55.424 65.7709 55.424C65.0339 55.424 64.4839 55.963 64.4839 56.953ZM73.0266 54.203V55.71C72.8506 55.688 72.7186 55.677 72.5316 55.677C71.7286 55.677 71.1126 56.172 71.1126 57.063V60H69.5726V54.214H71.1126V55.028C71.3656 54.522 71.9376 54.181 72.6526 54.181C72.8066 54.181 72.9166 54.192 73.0266 54.203ZM78.9574 57.107C78.9574 58.911 77.7914 60.121 76.1194 60.121C74.4474 60.121 73.2814 58.911 73.2814 57.107C73.2814 55.314 74.4474 54.104 76.1194 54.104C77.7914 54.104 78.9574 55.314 78.9574 57.107ZM74.8104 57.107C74.8104 58.207 75.3164 58.845 76.1194 58.845C76.9224 58.845 77.4174 58.207 77.4174 57.107C77.4174 56.018 76.9224 55.38 76.1194 55.38C75.3164 55.38 74.8104 56.018 74.8104 57.107ZM82.7379 60H81.1979L79.0969 54.214H80.6919L81.9899 58.13L83.2769 54.214H84.8279L82.7379 60ZM86.7969 60.099C85.6639 60.099 84.8279 59.417 84.8279 58.394C84.8279 57.239 85.7519 56.755 86.9179 56.546L88.3589 56.271V56.183C88.3589 55.688 88.1059 55.38 87.4679 55.38C86.8959 55.38 86.5989 55.633 86.4669 56.15L85.0039 55.875C85.2679 54.896 86.1479 54.104 87.5229 54.104C88.9859 54.104 89.8659 54.775 89.8659 56.117V58.482C89.8659 58.79 89.9979 58.889 90.3389 58.845V60C89.3599 60.143 88.7659 59.945 88.5129 59.461C88.1389 59.868 87.5559 60.099 86.7969 60.099ZM88.3589 57.943V57.349L87.2259 57.58C86.7199 57.679 86.3459 57.844 86.3459 58.306C86.3459 58.702 86.6429 58.933 87.1049 58.933C87.7539 58.933 88.3589 58.592 88.3589 57.943ZM92.7473 52.102V60H91.2073V52.102H92.7473ZM96.2127 53.532V52.102H97.7857V53.532H96.2127ZM97.7747 54.214V60H96.2347V54.214H97.7747ZM99.0384 60V54.214H100.578V54.808C100.897 54.434 101.425 54.104 102.162 54.104C103.372 54.104 104.109 54.929 104.109 56.183V60H102.569V56.623C102.569 55.974 102.305 55.512 101.645 55.512C101.106 55.512 100.578 55.897 100.578 56.656V60H99.0384ZM109.24 57.096V60H107.623V52.102H110.857C112.672 52.102 113.805 52.96 113.805 54.599C113.805 56.227 112.672 57.096 110.857 57.096H109.24ZM109.24 55.721H110.769C111.715 55.721 112.199 55.303 112.199 54.599C112.199 53.884 111.715 53.477 110.769 53.477H109.24V55.721ZM117.961 54.203V55.71C117.785 55.688 117.653 55.677 117.466 55.677C116.663 55.677 116.047 56.172 116.047 57.063V60H114.507V54.214H116.047V55.028C116.3 54.522 116.872 54.181 117.587 54.181C117.741 54.181 117.851 54.192 117.961 54.203ZM118.782 53.532V52.102H120.355V53.532H118.782ZM120.344 54.214V60H118.804V54.214H120.344ZM121.608 60V54.214H123.148V54.808C123.467 54.434 123.995 54.104 124.732 54.104C125.942 54.104 126.679 54.929 126.679 56.183V60H125.139V56.623C125.139 55.974 124.875 55.512 124.215 55.512C123.676 55.512 123.148 55.897 123.148 56.656V60H121.608ZM129.101 57.107C129.101 58.196 129.64 58.823 130.454 58.823C131.092 58.823 131.477 58.383 131.62 57.789L132.951 58.383C132.687 59.329 131.785 60.121 130.443 60.121C128.76 60.121 127.572 58.9 127.572 57.107C127.572 55.325 128.76 54.104 130.443 54.104C131.774 54.104 132.654 54.874 132.929 55.809L131.62 56.425C131.477 55.831 131.092 55.391 130.454 55.391C129.64 55.391 129.101 56.029 129.101 57.107ZM133.671 53.532V52.102H135.244V53.532H133.671ZM135.233 54.214V60H133.693V54.214H135.233ZM139.653 60.121C138.927 60.121 138.377 59.835 138.036 59.406V61.958H136.496V54.214H138.036V54.808C138.377 54.39 138.927 54.104 139.653 54.104C141.248 54.104 142.172 55.468 142.172 57.107C142.172 58.757 141.248 60.121 139.653 60.121ZM138.003 56.953V57.272C138.003 58.251 138.553 58.801 139.29 58.801C140.159 58.801 140.621 58.108 140.621 57.107C140.621 56.117 140.159 55.424 139.29 55.424C138.553 55.424 138.003 55.963 138.003 56.953ZM144.632 52.102V60H143.092V52.102H144.632ZM148.426 60.121C146.721 60.121 145.555 58.9 145.555 57.107C145.555 55.402 146.732 54.104 148.371 54.104C150.087 54.104 151.011 55.38 151.011 56.997V57.448H147.029C147.139 58.328 147.678 58.856 148.437 58.856C149.031 58.856 149.504 58.57 149.68 58.009L150.978 58.471C150.56 59.527 149.581 60.121 148.426 60.121ZM148.36 55.336C147.744 55.336 147.271 55.699 147.084 56.403H149.482C149.471 55.831 149.108 55.336 148.36 55.336ZM154.573 56.986C154.573 57.5727 154.515 58.1483 154.397 58.713C154.287 59.2777 154.111 59.813 153.869 60.319C153.635 60.8323 153.33 61.3053 152.956 61.738H151.625C151.955 61.2833 152.23 60.7957 152.45 60.275C152.678 59.7617 152.85 59.2263 152.967 58.669C153.085 58.1043 153.143 57.5397 153.143 56.975C153.143 56.3957 153.085 55.8237 152.967 55.259C152.85 54.6943 152.678 54.148 152.45 53.62C152.23 53.092 151.952 52.6007 151.614 52.146H152.956C153.33 52.586 153.635 53.0663 153.869 53.587C154.111 54.1077 154.287 54.654 154.397 55.226C154.515 55.798 154.573 56.3847 154.573 56.986ZM159.446 60.099C158.313 60.099 157.477 59.417 157.477 58.394C157.477 57.239 158.401 56.755 159.567 56.546L161.008 56.271V56.183C161.008 55.688 160.755 55.38 160.117 55.38C159.545 55.38 159.248 55.633 159.116 56.15L157.653 55.875C157.917 54.896 158.797 54.104 160.172 54.104C161.635 54.104 162.515 54.775 162.515 56.117V58.482C162.515 58.79 162.647 58.889 162.988 58.845V60C162.009 60.143 161.415 59.945 161.162 59.461C160.788 59.868 160.205 60.099 159.446 60.099ZM161.008 57.943V57.349L159.875 57.58C159.369 57.679 158.995 57.844 158.995 58.306C158.995 58.702 159.292 58.933 159.754 58.933C160.403 58.933 161.008 58.592 161.008 57.943ZM163.295 59.021L164.252 58.042C164.648 58.581 165.352 58.922 166.001 58.922C166.518 58.922 166.969 58.746 166.969 58.328C166.969 57.888 166.54 57.833 165.616 57.657C164.681 57.47 163.647 57.228 163.647 55.985C163.647 54.874 164.626 54.104 166.012 54.104C167.035 54.104 167.948 54.522 168.399 55.105L167.519 56.073C167.134 55.578 166.573 55.303 165.968 55.303C165.484 55.303 165.165 55.512 165.165 55.831C165.165 56.205 165.55 56.271 166.265 56.414C167.277 56.623 168.476 56.854 168.476 58.163C168.476 59.373 167.354 60.121 165.968 60.121C164.923 60.121 163.823 59.736 163.295 59.021ZM26.31 73.096V76H24.693V68.102H27.927C29.742 68.102 30.875 68.96 30.875 70.599C30.875 72.227 29.742 73.096 27.927 73.096H26.31ZM26.31 71.721H27.839C28.785 71.721 29.269 71.303 29.269 70.599C29.269 69.884 28.785 69.477 27.839 69.477H26.31V71.721ZM31.0446 74.559L32.1556 73.481C32.7386 74.306 33.5856 74.768 34.4546 74.768C35.2796 74.768 35.8846 74.405 35.8846 73.734C35.8846 73.008 35.1366 72.909 33.9486 72.645C32.7716 72.37 31.4956 71.996 31.4956 70.434C31.4956 68.927 32.7936 67.981 34.4326 67.981C35.7966 67.981 36.8636 68.586 37.4136 69.378L36.3466 70.423C35.8846 69.774 35.2686 69.334 34.3886 69.334C33.6186 69.334 33.0906 69.708 33.0906 70.28C33.0906 70.896 33.6626 71.017 34.6966 71.248C35.9506 71.523 37.4906 71.842 37.4906 73.569C37.4906 75.164 36.0826 76.121 34.3996 76.121C33.0686 76.121 31.6826 75.516 31.0446 74.559ZM37.6832 74.559L38.7942 73.481C39.3772 74.306 40.2242 74.768 41.0932 74.768C41.9182 74.768 42.5232 74.405 42.5232 73.734C42.5232 73.008 41.7752 72.909 40.5872 72.645C39.4102 72.37 38.1342 71.996 38.1342 70.434C38.1342 68.927 39.4322 67.981 41.0712 67.981C42.4352 67.981 43.5022 68.586 44.0522 69.378L42.9852 70.423C42.5232 69.774 41.9072 69.334 41.0272 69.334C40.2572 69.334 39.7292 69.708 39.7292 70.28C39.7292 70.896 40.3012 71.017 41.3352 71.248C42.5892 71.523 44.1292 71.842 44.1292 73.569C44.1292 75.164 42.7212 76.121 41.0382 76.121C39.7072 76.121 38.3212 75.516 37.6832 74.559ZM46.645 73.096V76H45.028V68.102H48.262C50.077 68.102 51.21 68.96 51.21 70.599C51.21 72.227 50.077 73.096 48.262 73.096H46.645ZM46.645 71.721H48.174C49.12 71.721 49.604 71.303 49.604 70.599C49.604 69.884 49.12 69.477 48.174 69.477H46.645V71.721ZM56.994 68.036C57.4193 68.036 57.797 68.102 58.127 68.234C58.457 68.366 58.7173 68.5603 58.908 68.817C59.0987 69.0663 59.194 69.3743 59.194 69.741C59.194 70.247 59.0437 70.6723 58.743 71.017C58.4423 71.3617 58.0683 71.6623 57.621 71.919L59.15 73.404C59.2967 73.1547 59.425 72.8943 59.535 72.623C59.645 72.3443 59.7367 72.0657 59.81 71.787H61.515C61.405 72.1977 61.2437 72.6377 61.031 73.107C60.8183 73.5763 60.547 74.0163 60.217 74.427L61.834 76H59.81L59.194 75.395C59.0327 75.505 58.864 75.604 58.688 75.692C58.512 75.78 58.3287 75.857 58.138 75.923C57.9473 75.9817 57.7457 76.0257 57.533 76.055C57.3203 76.0917 57.1003 76.11 56.873 76.11C56.279 76.11 55.7693 76.0183 55.344 75.835C54.9187 75.6443 54.5923 75.3803 54.365 75.043C54.1377 74.7057 54.024 74.317 54.024 73.877C54.024 73.503 54.079 73.184 54.189 72.92C54.3063 72.6487 54.4713 72.414 54.684 72.216C54.904 72.0107 55.1643 71.8237 55.465 71.655C55.2743 71.435 55.1203 71.2297 55.003 71.039C54.893 70.841 54.8123 70.6467 54.761 70.456C54.717 70.2653 54.695 70.0637 54.695 69.851C54.695 69.477 54.7903 69.1543 54.981 68.883C55.179 68.6117 55.4503 68.4027 55.795 68.256C56.147 68.1093 56.5467 68.036 56.994 68.036ZM56.422 72.634C56.2827 72.7367 56.1617 72.843 56.059 72.953C55.9637 73.063 55.8867 73.1803 55.828 73.305C55.7767 73.4297 55.751 73.569 55.751 73.723C55.751 74.0383 55.8683 74.2877 56.103 74.471C56.3377 74.647 56.631 74.735 56.983 74.735C57.2177 74.735 57.4377 74.7057 57.643 74.647C57.8483 74.5883 58.0353 74.5077 58.204 74.405L56.422 72.634ZM56.983 69.301C56.7997 69.301 56.6237 69.3487 56.455 69.444C56.2937 69.532 56.213 69.7043 56.213 69.961C56.213 70.1443 56.257 70.3203 56.345 70.489C56.4403 70.6577 56.565 70.83 56.719 71.006C57.027 70.8373 57.2617 70.6687 57.423 70.5C57.5917 70.3313 57.676 70.137 57.676 69.917C57.676 69.697 57.6027 69.5393 57.456 69.444C57.3093 69.3487 57.1517 69.301 56.983 69.301ZM63.9586 74.559L65.0696 73.481C65.6526 74.306 66.4996 74.768 67.3686 74.768C68.1936 74.768 68.7986 74.405 68.7986 73.734C68.7986 73.008 68.0506 72.909 66.8626 72.645C65.6856 72.37 64.4096 71.996 64.4096 70.434C64.4096 68.927 65.7076 67.981 67.3466 67.981C68.7106 67.981 69.7776 68.586 70.3276 69.378L69.2606 70.423C68.7986 69.774 68.1826 69.334 67.3026 69.334C66.5326 69.334 66.0046 69.708 66.0046 70.28C66.0046 70.896 66.5766 71.017 67.6106 71.248C68.8646 71.523 70.4046 71.842 70.4046 73.569C70.4046 75.164 68.9966 76.121 67.3136 76.121C65.9826 76.121 64.5966 75.516 63.9586 74.559ZM76.2754 70.214V76H74.7354V75.406C74.4164 75.78 73.9104 76.121 73.1734 76.121C71.9744 76.121 71.2044 75.296 71.2044 74.042V70.214H72.7444V73.701C72.7444 74.339 73.0304 74.757 73.6684 74.757C74.2074 74.757 74.7354 74.361 74.7354 73.613V70.214H76.2754ZM80.711 76.121C79.985 76.121 79.435 75.835 79.094 75.406V77.958H77.554V70.214H79.094V70.808C79.435 70.39 79.985 70.104 80.711 70.104C82.306 70.104 83.23 71.468 83.23 73.107C83.23 74.757 82.306 76.121 80.711 76.121ZM79.061 72.953V73.272C79.061 74.251 79.611 74.801 80.348 74.801C81.217 74.801 81.679 74.108 81.679 73.107C81.679 72.117 81.217 71.424 80.348 71.424C79.611 71.424 79.061 71.963 79.061 72.953ZM86.6905 76.121C84.9855 76.121 83.8195 74.9 83.8195 73.107C83.8195 71.402 84.9965 70.104 86.6355 70.104C88.3515 70.104 89.2755 71.38 89.2755 72.997V73.448H85.2935C85.4035 74.328 85.9425 74.856 86.7015 74.856C87.2955 74.856 87.7685 74.57 87.9445 74.009L89.2425 74.471C88.8245 75.527 87.8455 76.121 86.6905 76.121ZM86.6245 71.336C86.0085 71.336 85.5355 71.699 85.3485 72.403H87.7465C87.7355 71.831 87.3725 71.336 86.6245 71.336ZM93.6408 70.203V71.71C93.4648 71.688 93.3328 71.677 93.1458 71.677C92.3428 71.677 91.7268 72.172 91.7268 73.063V76H90.1868V70.214H91.7268V71.028C91.9798 70.522 92.5518 70.181 93.2668 70.181C93.4208 70.181 93.5308 70.192 93.6408 70.203ZM94.1568 73.47V72.095H97.3248V73.47H94.1568ZM99.9454 76.099C98.8124 76.099 97.9764 75.417 97.9764 74.394C97.9764 73.239 98.9004 72.755 100.066 72.546L101.507 72.271V72.183C101.507 71.688 101.254 71.38 100.616 71.38C100.044 71.38 99.7474 71.633 99.6154 72.15L98.1524 71.875C98.4164 70.896 99.2964 70.104 100.671 70.104C102.134 70.104 103.014 70.775 103.014 72.117V74.482C103.014 74.79 103.146 74.889 103.487 74.845V76C102.508 76.143 101.914 75.945 101.661 75.461C101.287 75.868 100.704 76.099 99.9454 76.099ZM101.507 73.943V73.349L100.374 73.58C99.8684 73.679 99.4944 73.844 99.4944 74.306C99.4944 74.702 99.7914 74.933 100.253 74.933C100.902 74.933 101.507 74.592 101.507 73.943ZM109.68 75.362C109.68 77.111 108.47 78.079 106.754 78.079C105.357 78.079 104.389 77.507 104.059 76.374L105.5 75.956C105.665 76.528 106.116 76.88 106.776 76.88C107.579 76.88 108.14 76.484 108.14 75.527V75.131C107.843 75.527 107.26 75.835 106.534 75.835C104.95 75.835 104.026 74.548 104.026 72.964C104.026 71.391 104.95 70.104 106.534 70.104C107.249 70.104 107.843 70.412 108.14 70.808V70.214H109.68V75.362ZM108.151 72.898C108.151 71.941 107.634 71.402 106.897 71.402C106.061 71.402 105.588 71.996 105.588 72.964C105.588 73.932 106.061 74.537 106.897 74.537C107.634 74.537 108.151 73.998 108.151 73.052V72.898ZM113.481 76.121C111.776 76.121 110.61 74.9 110.61 73.107C110.61 71.402 111.787 70.104 113.426 70.104C115.142 70.104 116.066 71.38 116.066 72.997V73.448H112.084C112.194 74.328 112.733 74.856 113.492 74.856C114.086 74.856 114.559 74.57 114.735 74.009L116.033 74.471C115.615 75.527 114.636 76.121 113.481 76.121ZM113.415 71.336C112.799 71.336 112.326 71.699 112.139 72.403H114.537C114.526 71.831 114.163 71.336 113.415 71.336ZM116.978 76V70.214H118.518V70.808C118.837 70.434 119.365 70.104 120.102 70.104C121.312 70.104 122.049 70.929 122.049 72.183V76H120.509V72.623C120.509 71.974 120.245 71.512 119.585 71.512C119.046 71.512 118.518 71.897 118.518 72.656V76H116.978ZM123.438 74.493V71.501H122.668V70.214H123.438V68.564H124.956V70.214H126.133V71.501H124.956V74.174C124.956 74.669 125.231 74.735 125.682 74.735C125.902 74.735 126.012 74.724 126.21 74.702V75.978C125.935 76.033 125.605 76.066 125.22 76.066C124.054 76.066 123.438 75.681 123.438 74.493ZM134.841 70.225V71.226C134.676 71.193 134.544 71.182 134.357 71.182C133.521 71.182 132.85 71.842 132.85 72.854V76H131.86V70.247H132.85V71.226C133.103 70.643 133.664 70.203 134.445 70.203C134.599 70.203 134.742 70.214 134.841 70.225ZM137.994 76.121C136.399 76.121 135.299 74.9 135.299 73.129C135.299 71.413 136.388 70.137 137.95 70.137C139.556 70.137 140.403 71.358 140.403 72.953V73.283H136.245C136.3 74.493 136.993 75.263 137.994 75.263C138.764 75.263 139.314 74.845 139.49 74.163L140.359 74.471C140.007 75.494 139.138 76.121 137.994 76.121ZM137.939 70.984C137.103 70.984 136.476 71.545 136.3 72.524H139.402C139.38 71.71 138.94 70.984 137.939 70.984ZM142.23 73.129C142.23 74.438 142.934 75.252 143.957 75.252C144.749 75.252 145.222 74.746 145.387 74.031L146.267 74.438C145.992 75.395 145.156 76.121 143.957 76.121C142.351 76.121 141.24 74.9 141.24 73.129C141.24 71.347 142.351 70.137 143.957 70.137C145.156 70.137 145.97 70.83 146.245 71.787L145.387 72.216C145.222 71.512 144.749 70.995 143.957 70.995C142.934 70.995 142.23 71.809 142.23 73.129ZM149.649 76.121C148.054 76.121 146.954 74.9 146.954 73.129C146.954 71.413 148.043 70.137 149.605 70.137C151.211 70.137 152.058 71.358 152.058 72.953V73.283H147.9C147.955 74.493 148.648 75.263 149.649 75.263C150.419 75.263 150.969 74.845 151.145 74.163L152.014 74.471C151.662 75.494 150.793 76.121 149.649 76.121ZM149.594 70.984C148.758 70.984 148.131 71.545 147.955 72.524H151.057C151.035 71.71 150.595 70.984 149.594 70.984ZM153.247 69.246V68.102H154.325V69.246H153.247ZM154.281 70.247V76H153.291V70.247H154.281ZM158.386 76H157.407L155.251 70.247H156.296L157.913 74.79L159.508 70.247H160.542L158.386 76ZM163.657 76.121C162.062 76.121 160.962 74.9 160.962 73.129C160.962 71.413 162.051 70.137 163.613 70.137C165.219 70.137 166.066 71.358 166.066 72.953V73.283H161.908C161.963 74.493 162.656 75.263 163.657 75.263C164.427 75.263 164.977 74.845 165.153 74.163L166.022 74.471C165.67 75.494 164.801 76.121 163.657 76.121ZM163.602 70.984C162.766 70.984 162.139 71.545 161.963 72.524H165.065C165.043 71.71 164.603 70.984 163.602 70.984ZM169.411 76.121C167.816 76.121 166.903 74.757 166.903 73.129C166.903 71.49 167.816 70.137 169.411 70.137C170.214 70.137 170.852 70.522 171.193 71.083V68.102H172.183V76H171.193V75.164C170.852 75.736 170.214 76.121 169.411 76.121ZM171.215 72.931C171.215 71.589 170.401 71.006 169.587 71.006C168.509 71.006 167.904 71.886 167.904 73.129C167.904 74.361 168.509 75.252 169.587 75.252C170.401 75.252 171.215 74.658 171.215 73.338V72.931ZM27.333 84.003V84.883C27.168 84.861 27.069 84.861 26.904 84.861C26.321 84.861 26.002 85.114 26.002 85.851V86.247H27.278V87.094H26.002V92H25.012V87.094H24.143V86.247H25.012V85.785C25.012 84.663 25.628 83.981 26.805 83.981C27.003 83.981 27.113 83.992 27.333 84.003ZM31.179 86.225V87.226C31.014 87.193 30.882 87.182 30.695 87.182C29.859 87.182 29.188 87.842 29.188 88.854V92H28.198V86.247H29.188V87.226C29.441 86.643 30.002 86.203 30.783 86.203C30.937 86.203 31.08 86.214 31.179 86.225ZM36.983 89.129C36.983 90.911 35.883 92.121 34.31 92.121C32.737 92.121 31.637 90.911 31.637 89.129C31.637 87.347 32.737 86.137 34.31 86.137C35.883 86.137 36.983 87.347 36.983 89.129ZM32.638 89.129C32.638 90.438 33.298 91.274 34.31 91.274C35.322 91.274 35.982 90.438 35.982 89.129C35.982 87.809 35.322 86.973 34.31 86.973C33.298 86.973 32.638 87.809 32.638 89.129ZM39.232 88.557V92H38.242V86.247H39.232V87.028C39.54 86.555 40.09 86.137 40.893 86.137C41.663 86.137 42.202 86.522 42.488 87.116C42.807 86.643 43.423 86.137 44.325 86.137C45.513 86.137 46.228 86.984 46.228 88.205V92H45.238V88.469C45.238 87.666 44.908 87.061 44.094 87.061C43.434 87.061 42.73 87.622 42.73 88.557V92H41.74V88.469C41.74 87.666 41.41 87.061 40.596 87.061C39.936 87.061 39.232 87.622 39.232 88.557ZM50.7823 88.051C50.7823 89.921 51.8163 91.186 53.2793 91.186C54.3023 91.186 55.0393 90.592 55.3253 89.591L56.3263 89.921C55.8643 91.285 54.7863 92.121 53.2793 92.121C51.2333 92.121 49.7263 90.46 49.7263 88.051C49.7263 85.642 51.2333 83.981 53.2793 83.981C54.7863 83.981 55.8643 84.817 56.3263 86.181L55.3253 86.511C55.0393 85.51 54.3023 84.916 53.2793 84.916C51.8163 84.916 50.7823 86.181 50.7823 88.051ZM57.4393 92V84.102H60.3543C62.0263 84.102 62.9173 84.839 62.9173 86.159C62.9173 87.171 62.3013 87.677 61.6963 87.886C62.5873 88.128 63.1813 88.821 63.1813 89.822C63.1813 91.197 62.1803 92 60.5853 92H57.4393ZM58.4623 87.49H60.2663C61.3223 87.49 61.9053 87.083 61.9053 86.247C61.9053 85.4 61.3223 84.993 60.2663 84.993H58.4623V87.49ZM58.4623 88.392V91.109H60.5413C61.5973 91.109 62.1693 90.559 62.1693 89.745C62.1693 88.942 61.5973 88.392 60.5413 88.392H58.4623ZM70.7017 84.102V92H69.7887L65.4767 85.642V92H64.4647V84.102H65.5757L69.6787 90.207V84.102H70.7017ZM74.3267 88.986C74.3267 88.3847 74.3817 87.798 74.4917 87.226C74.6091 86.654 74.7887 86.1077 75.0307 85.587C75.2727 85.0663 75.5771 84.586 75.9437 84.146H76.8567C76.5194 84.6007 76.2334 85.092 75.9987 85.62C75.7714 86.148 75.5991 86.6943 75.4817 87.259C75.3644 87.8237 75.3057 88.3957 75.3057 88.975C75.3057 89.5397 75.3644 90.1007 75.4817 90.658C75.5991 91.2153 75.7714 91.7507 75.9987 92.264C76.2261 92.7847 76.5084 93.276 76.8457 93.738H75.9437C75.5771 93.3053 75.2727 92.8323 75.0307 92.319C74.7887 91.813 74.6091 91.2777 74.4917 90.713C74.3817 90.1483 74.3267 89.5727 74.3267 88.986ZM78.6476 88.051C78.6476 89.921 79.6816 91.186 81.1446 91.186C82.1676 91.186 82.9046 90.592 83.1906 89.591L84.1916 89.921C83.7296 91.285 82.6516 92.121 81.1446 92.121C79.0986 92.121 77.5916 90.46 77.5916 88.051C77.5916 85.642 79.0986 83.981 81.1446 83.981C82.6516 83.981 83.7296 84.817 84.1916 86.181L83.1906 86.511C82.9046 85.51 82.1676 84.916 81.1446 84.916C79.6816 84.916 78.6476 86.181 78.6476 88.051ZM87.5595 92.121C85.9645 92.121 84.8645 90.9 84.8645 89.129C84.8645 87.413 85.9535 86.137 87.5155 86.137C89.1215 86.137 89.9685 87.358 89.9685 88.953V89.283H85.8105C85.8655 90.493 86.5585 91.263 87.5595 91.263C88.3295 91.263 88.8795 90.845 89.0555 90.163L89.9245 90.471C89.5725 91.494 88.7035 92.121 87.5595 92.121ZM87.5045 86.984C86.6685 86.984 86.0415 87.545 85.8655 88.524H88.9675C88.9455 87.71 88.5055 86.984 87.5045 86.984ZM91.201 92V86.247H92.191V87.028C92.521 86.555 93.093 86.137 93.907 86.137C95.128 86.137 95.821 86.984 95.821 88.205V92H94.831V88.469C94.831 87.666 94.49 87.061 93.632 87.061C92.917 87.061 92.191 87.611 92.191 88.568V92H91.201ZM97.564 90.625V87.094H96.673V86.247H97.564V84.564H98.543V86.247H99.852V87.094H98.543V90.471C98.543 91.076 98.84 91.186 99.346 91.186C99.577 91.186 99.742 91.175 99.973 91.12V91.967C99.72 92.022 99.434 92.055 99.104 92.055C98.125 92.055 97.564 91.725 97.564 90.625ZM104.129 86.225V87.226C103.964 87.193 103.832 87.182 103.645 87.182C102.809 87.182 102.138 87.842 102.138 88.854V92H101.148V86.247H102.138V87.226C102.391 86.643 102.952 86.203 103.733 86.203C103.887 86.203 104.03 86.214 104.129 86.225ZM106.542 92.099C105.497 92.099 104.65 91.483 104.65 90.449C104.65 89.305 105.541 88.832 106.828 88.568L108.225 88.282V88.04C108.225 87.38 107.862 87.006 107.092 87.006C106.366 87.006 105.937 87.347 105.761 87.985L104.826 87.743C105.101 86.808 105.948 86.137 107.125 86.137C108.412 86.137 109.204 86.764 109.204 87.996V90.801C109.204 91.175 109.435 91.296 109.82 91.208V92C108.94 92.11 108.434 91.901 108.313 91.351C107.961 91.802 107.323 92.099 106.542 92.099ZM108.225 90.042V89.052L107.103 89.294C106.223 89.47 105.629 89.712 105.629 90.405C105.629 90.966 106.036 91.296 106.663 91.296C107.51 91.296 108.225 90.779 108.225 90.042ZM111.881 84.102V92H110.891V84.102H111.881ZM115.898 92V84.102H118.813C120.485 84.102 121.376 84.839 121.376 86.159C121.376 87.171 120.76 87.677 120.155 87.886C121.046 88.128 121.64 88.821 121.64 89.822C121.64 91.197 120.639 92 119.044 92H115.898ZM116.921 87.49H118.725C119.781 87.49 120.364 87.083 120.364 86.247C120.364 85.4 119.781 84.993 118.725 84.993H116.921V87.49ZM116.921 88.392V91.109H119C120.056 91.109 120.628 90.559 120.628 89.745C120.628 88.942 120.056 88.392 119 88.392H116.921ZM124.321 92.099C123.276 92.099 122.429 91.483 122.429 90.449C122.429 89.305 123.32 88.832 124.607 88.568L126.004 88.282V88.04C126.004 87.38 125.641 87.006 124.871 87.006C124.145 87.006 123.716 87.347 123.54 87.985L122.605 87.743C122.88 86.808 123.727 86.137 124.904 86.137C126.191 86.137 126.983 86.764 126.983 87.996V90.801C126.983 91.175 127.214 91.296 127.599 91.208V92C126.719 92.11 126.213 91.901 126.092 91.351C125.74 91.802 125.102 92.099 124.321 92.099ZM126.004 90.042V89.052L124.882 89.294C124.002 89.47 123.408 89.712 123.408 90.405C123.408 90.966 123.815 91.296 124.442 91.296C125.289 91.296 126.004 90.779 126.004 90.042ZM128.67 92V86.247H129.66V87.028C129.99 86.555 130.562 86.137 131.376 86.137C132.597 86.137 133.29 86.984 133.29 88.205V92H132.3V88.469C132.3 87.666 131.959 87.061 131.101 87.061C130.386 87.061 129.66 87.611 129.66 88.568V92H128.67ZM135.869 84.102V88.931L138.421 86.247H139.653L137.409 88.513L139.84 92H138.685L136.705 89.228L135.869 90.075V92H134.879V84.102H135.869ZM148.025 89.129C148.025 90.911 146.925 92.121 145.352 92.121C143.779 92.121 142.679 90.911 142.679 89.129C142.679 87.347 143.779 86.137 145.352 86.137C146.925 86.137 148.025 87.347 148.025 89.129ZM143.68 89.129C143.68 90.438 144.34 91.274 145.352 91.274C146.364 91.274 147.024 90.438 147.024 89.129C147.024 87.809 146.364 86.973 145.352 86.973C144.34 86.973 143.68 87.809 143.68 89.129ZM151.792 84.003V84.883C151.627 84.861 151.528 84.861 151.363 84.861C150.78 84.861 150.461 85.114 150.461 85.851V86.247H151.737V87.094H150.461V92H149.471V87.094H148.602V86.247H149.471V85.785C149.471 84.663 150.087 83.981 151.264 83.981C151.462 83.981 151.572 83.992 151.792 84.003ZM31.106 100.102V108H30.193L25.881 101.642V108H24.869V100.102H25.98L30.083 106.207V100.102H31.106ZM32.7517 101.246V100.102H33.8297V101.246H32.7517ZM33.7857 102.247V108H32.7957V102.247H33.7857ZM40.3113 107.483C40.3113 109.166 39.2003 110.101 37.6383 110.101C36.3733 110.101 35.4493 109.518 35.1303 108.462L36.0543 108.11C36.2413 108.847 36.8353 109.276 37.6383 109.276C38.6503 109.276 39.3213 108.759 39.3213 107.56V106.911C39.0133 107.472 38.3643 107.868 37.5613 107.868C35.9883 107.868 35.0643 106.57 35.0643 104.997C35.0643 103.435 35.9883 102.137 37.5613 102.137C38.3533 102.137 39.0133 102.533 39.3213 103.094V102.247H40.3113V107.483ZM39.3323 104.909C39.3323 103.622 38.5623 103.006 37.7373 103.006C36.6923 103.006 36.0543 103.787 36.0543 104.997C36.0543 106.207 36.6923 106.999 37.7373 106.999C38.5623 106.999 39.3323 106.383 39.3323 105.118V104.909ZM44.2578 108.121C42.6628 108.121 41.5628 106.9 41.5628 105.129C41.5628 103.413 42.6518 102.137 44.2138 102.137C45.8198 102.137 46.6668 103.358 46.6668 104.953V105.283H42.5088C42.5638 106.493 43.2568 107.263 44.2578 107.263C45.0278 107.263 45.5778 106.845 45.7538 106.163L46.6228 106.471C46.2708 107.494 45.4018 108.121 44.2578 108.121ZM44.2028 102.984C43.3668 102.984 42.7398 103.545 42.5638 104.524H45.6658C45.6438 103.71 45.2038 102.984 44.2028 102.984ZM50.8802 102.225V103.226C50.7152 103.193 50.5832 103.182 50.3962 103.182C49.5602 103.182 48.8892 103.842 48.8892 104.854V108H47.8992V102.247H48.8892V103.226C49.1422 102.643 49.7032 102.203 50.4842 102.203C50.6382 102.203 50.7812 102.214 50.8802 102.225ZM51.9265 101.246V100.102H53.0045V101.246H51.9265ZM52.9605 102.247V108H51.9705V102.247H52.9605ZM56.0541 108.099C55.0091 108.099 54.1621 107.483 54.1621 106.449C54.1621 105.305 55.0531 104.832 56.3401 104.568L57.7371 104.282V104.04C57.7371 103.38 57.3741 103.006 56.6041 103.006C55.8781 103.006 55.4491 103.347 55.2731 103.985L54.3381 103.743C54.6131 102.808 55.4601 102.137 56.6371 102.137C57.9241 102.137 58.7161 102.764 58.7161 103.996V106.801C58.7161 107.175 58.9471 107.296 59.3321 107.208V108C58.4521 108.11 57.9461 107.901 57.8251 107.351C57.4731 107.802 56.8351 108.099 56.0541 108.099ZM57.7371 106.042V105.052L56.6151 105.294C55.7351 105.47 55.1411 105.712 55.1411 106.405C55.1411 106.966 55.5481 107.296 56.1751 107.296C57.0221 107.296 57.7371 106.779 57.7371 106.042ZM62.4381 104.986C62.4381 105.573 62.3795 106.148 62.2621 106.713C62.1521 107.278 61.9761 107.813 61.7341 108.319C61.4995 108.832 61.1951 109.305 60.8211 109.738H59.9191C60.2565 109.276 60.5388 108.785 60.7661 108.264C60.9935 107.751 61.1658 107.215 61.2831 106.658C61.4005 106.101 61.4591 105.54 61.4591 104.975C61.4591 104.396 61.4005 103.824 61.2831 103.259C61.1658 102.694 60.9935 102.148 60.7661 101.62C60.5388 101.092 60.2528 100.601 59.9081 100.146H60.8211C61.1951 100.586 61.4995 101.066 61.7341 101.587C61.9761 102.108 62.1521 102.654 62.2621 103.226C62.3795 103.798 62.4381 104.385 62.4381 104.986Z" fill="black"/>
<rect x="12" y="55" width="4" height="4" fill="black"/>
<path d="M25.407 124.051C25.407 121.642 26.925 119.981 28.993 119.981C31.061 119.981 32.568 121.642 32.568 124.051C32.568 126.46 31.061 128.121 28.993 128.121C26.925 128.121 25.407 126.46 25.407 124.051ZM31.523 124.051C31.523 122.181 30.478 120.916 28.993 120.916C27.508 120.916 26.463 122.181 26.463 124.051C26.463 125.921 27.508 127.186 28.993 127.186C30.478 127.186 31.523 125.921 31.523 124.051ZM36.5784 128.121C35.7754 128.121 35.1374 127.736 34.7964 127.164V128H33.8064V120.102H34.7964V123.083C35.1374 122.522 35.7754 122.137 36.5784 122.137C38.1734 122.137 39.0864 123.49 39.0864 125.129C39.0864 126.757 38.1734 128.121 36.5784 128.121ZM34.7744 124.931V125.338C34.7744 126.658 35.5884 127.252 36.4024 127.252C37.4804 127.252 38.0854 126.361 38.0854 125.129C38.0854 123.886 37.4804 123.006 36.4024 123.006C35.5884 123.006 34.7744 123.589 34.7744 124.931ZM40.4917 126.625V123.094H39.6007V122.247H40.4917V120.564H41.4707V122.247H42.7797V123.094H41.4707V126.471C41.4707 127.076 41.7677 127.186 42.2737 127.186C42.5047 127.186 42.6697 127.175 42.9007 127.12V127.967C42.6477 128.022 42.3617 128.055 42.0317 128.055C41.0527 128.055 40.4917 127.725 40.4917 126.625ZM45.517 128.099C44.472 128.099 43.625 127.483 43.625 126.449C43.625 125.305 44.516 124.832 45.803 124.568L47.2 124.282V124.04C47.2 123.38 46.837 123.006 46.067 123.006C45.341 123.006 44.912 123.347 44.736 123.985L43.801 123.743C44.076 122.808 44.923 122.137 46.1 122.137C47.387 122.137 48.179 122.764 48.179 123.996V126.801C48.179 127.175 48.41 127.296 48.795 127.208V128C47.915 128.11 47.409 127.901 47.288 127.351C46.936 127.802 46.298 128.099 45.517 128.099ZM47.2 126.042V125.052L46.078 125.294C45.198 125.47 44.604 125.712 44.604 126.405C44.604 126.966 45.011 127.296 45.638 127.296C46.485 127.296 47.2 126.779 47.2 126.042ZM49.822 121.246V120.102H50.9V121.246H49.822ZM50.856 122.247V128H49.866V122.247H50.856ZM52.5086 128V122.247H53.4986V123.028C53.8286 122.555 54.4006 122.137 55.2146 122.137C56.4356 122.137 57.1286 122.984 57.1286 124.205V128H56.1386V124.469C56.1386 123.666 55.7976 123.061 54.9396 123.061C54.2246 123.061 53.4986 123.611 53.4986 124.568V128H52.5086ZM61.0166 128.121C59.4216 128.121 58.3216 126.9 58.3216 125.129C58.3216 123.413 59.4106 122.137 60.9726 122.137C62.5786 122.137 63.4256 123.358 63.4256 124.953V125.283H59.2676C59.3226 126.493 60.0156 127.263 61.0166 127.263C61.7866 127.263 62.3366 126.845 62.5126 126.163L63.3816 126.471C63.0296 127.494 62.1606 128.121 61.0166 128.121ZM60.9616 122.984C60.1256 122.984 59.4986 123.545 59.3226 124.524H62.4246C62.4026 123.71 61.9626 122.984 60.9616 122.984ZM66.77 128.121C65.175 128.121 64.262 126.757 64.262 125.129C64.262 123.49 65.175 122.137 66.77 122.137C67.573 122.137 68.211 122.522 68.552 123.083V120.102H69.542V128H68.552V127.164C68.211 127.736 67.573 128.121 66.77 128.121ZM68.574 124.931C68.574 123.589 67.76 123.006 66.946 123.006C65.868 123.006 65.263 123.886 65.263 125.129C65.263 126.361 65.868 127.252 66.946 127.252C67.76 127.252 68.574 126.658 68.574 125.338V124.931ZM74.9838 125.096V128H73.3668V120.102H76.6008C78.4158 120.102 79.5488 120.96 79.5488 122.599C79.5488 124.227 78.4158 125.096 76.6008 125.096H74.9838ZM74.9838 123.721H76.5128C77.4588 123.721 77.9428 123.303 77.9428 122.599C77.9428 121.884 77.4588 121.477 76.5128 121.477H74.9838V123.721ZM81.6887 124.051C81.6887 125.657 82.5357 126.702 83.7457 126.702C84.6037 126.702 85.2307 126.163 85.4507 125.283L86.9687 125.789C86.5067 127.219 85.3847 128.121 83.7457 128.121C81.6117 128.121 80.0607 126.438 80.0607 124.051C80.0607 121.664 81.6117 119.981 83.7457 119.981C85.3847 119.981 86.5067 120.883 86.9687 122.313L85.4507 122.819C85.2307 121.939 84.6037 121.4 83.7457 121.4C82.5357 121.4 81.6887 122.445 81.6887 124.051ZM89.4536 120.102V128H87.8366V120.102H89.4536ZM93.0573 128V120.102H95.7743C98.2603 120.102 99.7783 121.642 99.7783 124.051C99.7783 126.46 98.2603 128 95.7743 128H93.0573ZM94.6413 126.614H95.7743C97.3033 126.614 98.1833 125.602 98.1833 124.051C98.1833 122.489 97.3033 121.488 95.7633 121.488H94.6413V126.614ZM99.9889 126.559L101.1 125.481C101.683 126.306 102.53 126.768 103.399 126.768C104.224 126.768 104.829 126.405 104.829 125.734C104.829 125.008 104.081 124.909 102.893 124.645C101.716 124.37 100.44 123.996 100.44 122.434C100.44 120.927 101.738 119.981 103.377 119.981C104.741 119.981 105.808 120.586 106.358 121.378L105.291 122.423C104.829 121.774 104.213 121.334 103.333 121.334C102.563 121.334 102.035 121.708 102.035 122.28C102.035 122.896 102.607 123.017 103.641 123.248C104.895 123.523 106.435 123.842 106.435 125.569C106.435 127.164 105.027 128.121 103.344 128.121C102.013 128.121 100.627 127.516 99.9889 126.559ZM106.628 126.559L107.739 125.481C108.322 126.306 109.169 126.768 110.038 126.768C110.863 126.768 111.468 126.405 111.468 125.734C111.468 125.008 110.72 124.909 109.532 124.645C108.355 124.37 107.079 123.996 107.079 122.434C107.079 120.927 108.377 119.981 110.016 119.981C111.38 119.981 112.447 120.586 112.997 121.378L111.93 122.423C111.468 121.774 110.852 121.334 109.972 121.334C109.202 121.334 108.674 121.708 108.674 122.28C108.674 122.896 109.246 123.017 110.28 123.248C111.534 123.523 113.074 123.842 113.074 125.569C113.074 127.164 111.666 128.121 109.983 128.121C108.652 128.121 107.266 127.516 106.628 126.559ZM117.329 125.107C117.329 126.196 117.868 126.823 118.682 126.823C119.32 126.823 119.705 126.383 119.848 125.789L121.179 126.383C120.915 127.329 120.013 128.121 118.671 128.121C116.988 128.121 115.8 126.9 115.8 125.107C115.8 123.325 116.988 122.104 118.671 122.104C120.002 122.104 120.882 122.874 121.157 123.809L119.848 124.425C119.705 123.831 119.32 123.391 118.682 123.391C117.868 123.391 117.329 124.029 117.329 125.107ZM124.45 128.121C122.745 128.121 121.579 126.9 121.579 125.107C121.579 123.402 122.756 122.104 124.395 122.104C126.111 122.104 127.035 123.38 127.035 124.997V125.448H123.053C123.163 126.328 123.702 126.856 124.461 126.856C125.055 126.856 125.528 126.57 125.704 126.009L127.002 126.471C126.584 127.527 125.605 128.121 124.45 128.121ZM124.384 123.336C123.768 123.336 123.295 123.699 123.108 124.403H125.506C125.495 123.831 125.132 123.336 124.384 123.336ZM131.401 122.203V123.71C131.225 123.688 131.093 123.677 130.906 123.677C130.103 123.677 129.487 124.172 129.487 125.063V128H127.947V122.214H129.487V123.028C129.74 122.522 130.312 122.181 131.027 122.181C131.181 122.181 131.291 122.192 131.401 122.203ZM132.505 126.493V123.501H131.735V122.214H132.505V120.564H134.023V122.214H135.2V123.501H134.023V126.174C134.023 126.669 134.298 126.735 134.749 126.735C134.969 126.735 135.079 126.724 135.277 126.702V127.978C135.002 128.033 134.672 128.066 134.287 128.066C133.121 128.066 132.505 127.681 132.505 126.493ZM136.175 121.532V120.102H137.748V121.532H136.175ZM137.737 122.214V128H136.197V122.214H137.737ZM141.86 120.014V121.279C141.717 121.268 141.629 121.268 141.464 121.268C140.98 121.268 140.727 121.411 140.727 121.983V122.214H141.849V123.501H140.727V128H139.187V123.501H138.406V122.214H139.187V121.895C139.187 120.674 139.847 119.992 141.266 119.992C141.486 119.992 141.618 119.992 141.86 120.014ZM142.534 121.532V120.102H144.107V121.532H142.534ZM144.096 122.214V128H142.556V122.214H144.096ZM146.548 125.107C146.548 126.196 147.087 126.823 147.901 126.823C148.539 126.823 148.924 126.383 149.067 125.789L150.398 126.383C150.134 127.329 149.232 128.121 147.89 128.121C146.207 128.121 145.019 126.9 145.019 125.107C145.019 123.325 146.207 122.104 147.89 122.104C149.221 122.104 150.101 122.874 150.376 123.809L149.067 124.425C148.924 123.831 148.539 123.391 147.901 123.391C147.087 123.391 146.548 124.029 146.548 125.107ZM152.798 128.099C151.665 128.099 150.829 127.417 150.829 126.394C150.829 125.239 151.753 124.755 152.919 124.546L154.36 124.271V124.183C154.36 123.688 154.107 123.38 153.469 123.38C152.897 123.38 152.6 123.633 152.468 124.15L151.005 123.875C151.269 122.896 152.149 122.104 153.524 122.104C154.987 122.104 155.867 122.775 155.867 124.117V126.482C155.867 126.79 155.999 126.889 156.34 126.845V128C155.361 128.143 154.767 127.945 154.514 127.461C154.14 127.868 153.557 128.099 152.798 128.099ZM154.36 125.943V125.349L153.227 125.58C152.721 125.679 152.347 125.844 152.347 126.306C152.347 126.702 152.644 126.933 153.106 126.933C153.755 126.933 154.36 126.592 154.36 125.943ZM157.341 126.493V123.501H156.571V122.214H157.341V120.564H158.859V122.214H160.036V123.501H158.859V126.174C158.859 126.669 159.134 126.735 159.585 126.735C159.805 126.735 159.915 126.724 160.113 126.702V127.978C159.838 128.033 159.508 128.066 159.123 128.066C157.957 128.066 157.341 127.681 157.341 126.493ZM161.011 121.532V120.102H162.584V121.532H161.011ZM162.573 122.214V128H161.033V122.214H162.573ZM169.171 125.107C169.171 126.911 168.005 128.121 166.333 128.121C164.661 128.121 163.495 126.911 163.495 125.107C163.495 123.314 164.661 122.104 166.333 122.104C168.005 122.104 169.171 123.314 169.171 125.107ZM165.024 125.107C165.024 126.207 165.53 126.845 166.333 126.845C167.136 126.845 167.631 126.207 167.631 125.107C167.631 124.018 167.136 123.38 166.333 123.38C165.53 123.38 165.024 124.018 165.024 125.107ZM170.11 128V122.214H171.65V122.808C171.969 122.434 172.497 122.104 173.234 122.104C174.444 122.104 175.181 122.929 175.181 124.183V128H173.641V124.623C173.641 123.974 173.377 123.512 172.717 123.512C172.178 123.512 171.65 123.897 171.65 124.656V128H170.11ZM181.431 120.003V120.883C181.266 120.861 181.167 120.861 181.002 120.861C180.419 120.861 180.1 121.114 180.1 121.851V122.247H181.376V123.094H180.1V128H179.11V123.094H178.241V122.247H179.11V121.785C179.11 120.663 179.726 119.981 180.903 119.981C181.101 119.981 181.211 119.992 181.431 120.003ZM187.213 125.129C187.213 126.911 186.113 128.121 184.54 128.121C182.967 128.121 181.867 126.911 181.867 125.129C181.867 123.347 182.967 122.137 184.54 122.137C186.113 122.137 187.213 123.347 187.213 125.129ZM182.868 125.129C182.868 126.438 183.528 127.274 184.54 127.274C185.552 127.274 186.212 126.438 186.212 125.129C186.212 123.809 185.552 122.973 184.54 122.973C183.528 122.973 182.868 123.809 182.868 125.129ZM191.453 122.225V123.226C191.288 123.193 191.156 123.182 190.969 123.182C190.133 123.182 189.462 123.842 189.462 124.854V128H188.472V122.247H189.462V123.226C189.715 122.643 190.276 122.203 191.057 122.203C191.211 122.203 191.354 122.214 191.453 122.225ZM30.698 143.483C30.698 145.166 29.587 146.101 28.025 146.101C26.76 146.101 25.836 145.518 25.517 144.462L26.441 144.11C26.628 144.847 27.222 145.276 28.025 145.276C29.037 145.276 29.708 144.759 29.708 143.56V142.911C29.4 143.472 28.751 143.868 27.948 143.868C26.375 143.868 25.451 142.57 25.451 140.997C25.451 139.435 26.375 138.137 27.948 138.137C28.74 138.137 29.4 138.533 29.708 139.094V138.247H30.698V143.483ZM29.719 140.909C29.719 139.622 28.949 139.006 28.124 139.006C27.079 139.006 26.441 139.787 26.441 140.997C26.441 142.207 27.079 142.999 28.124 142.999C28.949 142.999 29.719 142.383 29.719 141.118V140.909ZM33.3355 136.102V144H32.3455V136.102H33.3355ZM39.9381 141.129C39.9381 142.911 38.8381 144.121 37.2651 144.121C35.6921 144.121 34.5921 142.911 34.5921 141.129C34.5921 139.347 35.6921 138.137 37.2651 138.137C38.8381 138.137 39.9381 139.347 39.9381 141.129ZM35.5931 141.129C35.5931 142.438 36.2531 143.274 37.2651 143.274C38.2771 143.274 38.9371 142.438 38.9371 141.129C38.9371 139.809 38.2771 138.973 37.2651 138.973C36.2531 138.973 35.5931 139.809 35.5931 141.129ZM43.9691 144.121C43.1661 144.121 42.5281 143.736 42.1871 143.164V144H41.1971V136.102H42.1871V139.083C42.5281 138.522 43.1661 138.137 43.9691 138.137C45.5641 138.137 46.4771 139.49 46.4771 141.129C46.4771 142.757 45.5641 144.121 43.9691 144.121ZM42.1651 140.931V141.338C42.1651 142.658 42.9791 143.252 43.7931 143.252C44.8711 143.252 45.4761 142.361 45.4761 141.129C45.4761 139.886 44.8711 139.006 43.7931 139.006C42.9791 139.006 42.1651 139.589 42.1651 140.931ZM49.1693 144.099C48.1243 144.099 47.2773 143.483 47.2773 142.449C47.2773 141.305 48.1683 140.832 49.4553 140.568L50.8523 140.282V140.04C50.8523 139.38 50.4893 139.006 49.7193 139.006C48.9933 139.006 48.5643 139.347 48.3883 139.985L47.4533 139.743C47.7283 138.808 48.5753 138.137 49.7523 138.137C51.0393 138.137 51.8313 138.764 51.8313 139.996V142.801C51.8313 143.175 52.0623 143.296 52.4473 143.208V144C51.5673 144.11 51.0613 143.901 50.9403 143.351C50.5883 143.802 49.9503 144.099 49.1693 144.099ZM50.8523 142.042V141.052L49.7303 141.294C48.8503 141.47 48.2563 141.712 48.2563 142.405C48.2563 142.966 48.6633 143.296 49.2903 143.296C50.1373 143.296 50.8523 142.779 50.8523 142.042ZM54.5084 136.102V144H53.5184V136.102H54.5084ZM60.5933 144.121C58.9983 144.121 58.0853 142.757 58.0853 141.129C58.0853 139.49 58.9983 138.137 60.5933 138.137C61.3963 138.137 62.0343 138.522 62.3753 139.083V136.102H63.3653V144H62.3753V143.164C62.0343 143.736 61.3963 144.121 60.5933 144.121ZM62.3973 140.931C62.3973 139.589 61.5833 139.006 60.7693 139.006C59.6913 139.006 59.0863 139.886 59.0863 141.129C59.0863 142.361 59.6913 143.252 60.7693 143.252C61.5833 143.252 62.3973 142.658 62.3973 141.338V140.931ZM66.4428 144.099C65.3978 144.099 64.5508 143.483 64.5508 142.449C64.5508 141.305 65.4418 140.832 66.7288 140.568L68.1258 140.282V140.04C68.1258 139.38 67.7628 139.006 66.9928 139.006C66.2668 139.006 65.8378 139.347 65.6618 139.985L64.7268 139.743C65.0018 138.808 65.8488 138.137 67.0258 138.137C68.3128 138.137 69.1048 138.764 69.1048 139.996V142.801C69.1048 143.175 69.3358 143.296 69.7208 143.208V144C68.8408 144.11 68.3348 143.901 68.2138 143.351C67.8618 143.802 67.2238 144.099 66.4428 144.099ZM68.1258 142.042V141.052L67.0038 141.294C66.1238 141.47 65.5298 141.712 65.5298 142.405C65.5298 142.966 65.9368 143.296 66.5638 143.296C67.4108 143.296 68.1258 142.779 68.1258 142.042ZM70.9458 142.625V139.094H70.0548V138.247H70.9458V136.564H71.9248V138.247H73.2338V139.094H71.9248V142.471C71.9248 143.076 72.2218 143.186 72.7278 143.186C72.9588 143.186 73.1238 143.175 73.3548 143.12V143.967C73.1018 144.022 72.8158 144.055 72.4858 144.055C71.5068 144.055 70.9458 143.725 70.9458 142.625ZM75.9711 144.099C74.9261 144.099 74.0791 143.483 74.0791 142.449C74.0791 141.305 74.9701 140.832 76.2571 140.568L77.6541 140.282V140.04C77.6541 139.38 77.2911 139.006 76.5211 139.006C75.7951 139.006 75.3661 139.347 75.1901 139.985L74.2551 139.743C74.5301 138.808 75.3771 138.137 76.5541 138.137C77.8411 138.137 78.6331 138.764 78.6331 139.996V142.801C78.6331 143.175 78.8641 143.296 79.2491 143.208V144C78.3691 144.11 77.8631 143.901 77.7421 143.351C77.3901 143.802 76.7521 144.099 75.9711 144.099ZM77.6541 142.042V141.052L76.5321 141.294C75.6521 141.47 75.0581 141.712 75.0581 142.405C75.0581 142.966 75.4651 143.296 76.0921 143.296C76.9391 143.296 77.6541 142.779 77.6541 142.042ZM82.0024 142.779L82.7724 142.218C83.0804 142.889 83.7844 143.296 84.5324 143.296C85.2034 143.296 85.7974 143.01 85.7974 142.383C85.7974 141.756 85.2474 141.668 84.3014 141.47C83.3554 141.261 82.3654 141.052 82.3654 139.875C82.3654 138.852 83.2564 138.137 84.4774 138.137C85.5114 138.137 86.3584 138.643 86.6994 139.325L85.9954 139.886C85.6984 139.314 85.1594 138.951 84.4334 138.951C83.7734 138.951 83.3334 139.281 83.3334 139.798C83.3334 140.337 83.8394 140.436 84.6424 140.612C85.6324 140.843 86.7654 141.041 86.7654 142.295C86.7654 143.395 85.7644 144.121 84.5324 144.121C83.4874 144.121 82.4424 143.67 82.0024 142.779ZM90.289 144.121C88.694 144.121 87.594 142.9 87.594 141.129C87.594 139.413 88.683 138.137 90.245 138.137C91.851 138.137 92.698 139.358 92.698 140.953V141.283H88.54C88.595 142.493 89.288 143.263 90.289 143.263C91.059 143.263 91.609 142.845 91.785 142.163L92.654 142.471C92.302 143.494 91.433 144.121 90.289 144.121ZM90.234 138.984C89.398 138.984 88.771 139.545 88.595 140.524H91.697C91.675 139.71 91.235 138.984 90.234 138.984ZM94.5245 141.129C94.5245 142.438 95.2285 143.252 96.2515 143.252C97.0435 143.252 97.5165 142.746 97.6815 142.031L98.5615 142.438C98.2865 143.395 97.4505 144.121 96.2515 144.121C94.6455 144.121 93.5345 142.9 93.5345 141.129C93.5345 139.347 94.6455 138.137 96.2515 138.137C97.4505 138.137 98.2645 138.83 98.5395 139.787L97.6815 140.216C97.5165 139.512 97.0435 138.995 96.2515 138.995C95.2285 138.995 94.5245 139.809 94.5245 141.129ZM104.21 138.247V144H103.22V143.208C102.89 143.692 102.329 144.121 101.515 144.121C100.283 144.121 99.5903 143.274 99.5903 142.053V138.247H100.58V141.844C100.58 142.658 100.932 143.208 101.779 143.208C102.494 143.208 103.22 142.669 103.22 141.712V138.247H104.21ZM108.835 138.225V139.226C108.67 139.193 108.538 139.182 108.351 139.182C107.515 139.182 106.844 139.842 106.844 140.854V144H105.854V138.247H106.844V139.226C107.097 138.643 107.658 138.203 108.439 138.203C108.593 138.203 108.736 138.214 108.835 138.225ZM109.882 137.246V136.102H110.96V137.246H109.882ZM110.916 138.247V144H109.926V138.247H110.916ZM112.722 142.625V139.094H111.831V138.247H112.722V136.564H113.701V138.247H115.01V139.094H113.701V142.471C113.701 143.076 113.998 143.186 114.504 143.186C114.735 143.186 114.9 143.175 115.131 143.12V143.967C114.878 144.022 114.592 144.055 114.262 144.055C113.283 144.055 112.722 143.725 112.722 142.625ZM118.419 144.627C118.089 145.496 117.638 146.046 116.637 146.046C116.395 146.046 116.274 146.035 116.098 146.002V145.144C116.285 145.188 116.406 145.199 116.571 145.199C117 145.199 117.231 145.045 117.462 144.473L117.737 143.791L115.603 138.247H116.648L118.265 142.647L119.86 138.247H120.894L118.419 144.627ZM123.542 142.779L124.312 142.218C124.62 142.889 125.324 143.296 126.072 143.296C126.743 143.296 127.337 143.01 127.337 142.383C127.337 141.756 126.787 141.668 125.841 141.47C124.895 141.261 123.905 141.052 123.905 139.875C123.905 138.852 124.796 138.137 126.017 138.137C127.051 138.137 127.898 138.643 128.239 139.325L127.535 139.886C127.238 139.314 126.699 138.951 125.973 138.951C125.313 138.951 124.873 139.281 124.873 139.798C124.873 140.337 125.379 140.436 126.182 140.612C127.172 140.843 128.305 141.041 128.305 142.295C128.305 143.395 127.304 144.121 126.072 144.121C125.027 144.121 123.982 143.67 123.542 142.779ZM129.684 142.625V139.094H128.793V138.247H129.684V136.564H130.663V138.247H131.972V139.094H130.663V142.471C130.663 143.076 130.96 143.186 131.466 143.186C131.697 143.186 131.862 143.175 132.093 143.12V143.967C131.84 144.022 131.554 144.055 131.224 144.055C130.245 144.055 129.684 143.725 129.684 142.625ZM134.709 144.099C133.664 144.099 132.817 143.483 132.817 142.449C132.817 141.305 133.708 140.832 134.995 140.568L136.392 140.282V140.04C136.392 139.38 136.029 139.006 135.259 139.006C134.533 139.006 134.104 139.347 133.928 139.985L132.993 139.743C133.268 138.808 134.115 138.137 135.292 138.137C136.579 138.137 137.371 138.764 137.371 139.996V142.801C137.371 143.175 137.602 143.296 137.987 143.208V144C137.107 144.11 136.601 143.901 136.48 143.351C136.128 143.802 135.49 144.099 134.709 144.099ZM136.392 142.042V141.052L135.27 141.294C134.39 141.47 133.796 141.712 133.796 142.405C133.796 142.966 134.203 143.296 134.83 143.296C135.677 143.296 136.392 142.779 136.392 142.042ZM139.058 144V138.247H140.048V139.028C140.378 138.555 140.95 138.137 141.764 138.137C142.985 138.137 143.678 138.984 143.678 140.205V144H142.688V140.469C142.688 139.666 142.347 139.061 141.489 139.061C140.774 139.061 140.048 139.611 140.048 140.568V144H139.058ZM147.379 144.121C145.784 144.121 144.871 142.757 144.871 141.129C144.871 139.49 145.784 138.137 147.379 138.137C148.182 138.137 148.82 138.522 149.161 139.083V136.102H150.151V144H149.161V143.164C148.82 143.736 148.182 144.121 147.379 144.121ZM149.183 140.931C149.183 139.589 148.369 139.006 147.555 139.006C146.477 139.006 145.872 139.886 145.872 141.129C145.872 142.361 146.477 143.252 147.555 143.252C148.369 143.252 149.183 142.658 149.183 141.338V140.931ZM153.229 144.099C152.184 144.099 151.337 143.483 151.337 142.449C151.337 141.305 152.228 140.832 153.515 140.568L154.912 140.282V140.04C154.912 139.38 154.549 139.006 153.779 139.006C153.053 139.006 152.624 139.347 152.448 139.985L151.513 139.743C151.788 138.808 152.635 138.137 153.812 138.137C155.099 138.137 155.891 138.764 155.891 139.996V142.801C155.891 143.175 156.122 143.296 156.507 143.208V144C155.627 144.11 155.121 143.901 155 143.351C154.648 143.802 154.01 144.099 153.229 144.099ZM154.912 142.042V141.052L153.79 141.294C152.91 141.47 152.316 141.712 152.316 142.405C152.316 142.966 152.723 143.296 153.35 143.296C154.197 143.296 154.912 142.779 154.912 142.042ZM160.559 138.225V139.226C160.394 139.193 160.262 139.182 160.075 139.182C159.239 139.182 158.568 139.842 158.568 140.854V144H157.578V138.247H158.568V139.226C158.821 138.643 159.382 138.203 160.163 138.203C160.317 138.203 160.46 138.214 160.559 138.225ZM163.568 144.121C161.973 144.121 161.06 142.757 161.06 141.129C161.06 139.49 161.973 138.137 163.568 138.137C164.371 138.137 165.009 138.522 165.35 139.083V136.102H166.34V144H165.35V143.164C165.009 143.736 164.371 144.121 163.568 144.121ZM165.372 140.931C165.372 139.589 164.558 139.006 163.744 139.006C162.666 139.006 162.061 139.886 162.061 141.129C162.061 142.361 162.666 143.252 163.744 143.252C164.558 143.252 165.372 142.658 165.372 141.338V140.931ZM172.805 136.003V136.883C172.64 136.861 172.541 136.861 172.376 136.861C171.793 136.861 171.474 137.114 171.474 137.851V138.247H172.75V139.094H171.474V144H170.484V139.094H169.615V138.247H170.484V137.785C170.484 136.663 171.1 135.981 172.277 135.981C172.475 135.981 172.585 135.992 172.805 136.003ZM178.588 141.129C178.588 142.911 177.488 144.121 175.915 144.121C174.342 144.121 173.242 142.911 173.242 141.129C173.242 139.347 174.342 138.137 175.915 138.137C177.488 138.137 178.588 139.347 178.588 141.129ZM174.243 141.129C174.243 142.438 174.903 143.274 175.915 143.274C176.927 143.274 177.587 142.438 177.587 141.129C177.587 139.809 176.927 138.973 175.915 138.973C174.903 138.973 174.243 139.809 174.243 141.129ZM182.827 138.225V139.226C182.662 139.193 182.53 139.182 182.343 139.182C181.507 139.182 180.836 139.842 180.836 140.854V144H179.846V138.247H180.836V139.226C181.089 138.643 181.65 138.203 182.431 138.203C182.585 138.203 182.728 138.214 182.827 138.225ZM27.266 160.099C26.221 160.099 25.374 159.483 25.374 158.449C25.374 157.305 26.265 156.832 27.552 156.568L28.949 156.282V156.04C28.949 155.38 28.586 155.006 27.816 155.006C27.09 155.006 26.661 155.347 26.485 155.985L25.55 155.743C25.825 154.808 26.672 154.137 27.849 154.137C29.136 154.137 29.928 154.764 29.928 155.996V158.801C29.928 159.175 30.159 159.296 30.544 159.208V160C29.664 160.11 29.158 159.901 29.037 159.351C28.685 159.802 28.047 160.099 27.266 160.099ZM28.949 158.042V157.052L27.827 157.294C26.947 157.47 26.353 157.712 26.353 158.405C26.353 158.966 26.76 159.296 27.387 159.296C28.234 159.296 28.949 158.779 28.949 158.042ZM32.209 157.129C32.209 158.438 32.913 159.252 33.936 159.252C34.728 159.252 35.201 158.746 35.366 158.031L36.246 158.438C35.971 159.395 35.135 160.121 33.936 160.121C32.33 160.121 31.219 158.9 31.219 157.129C31.219 155.347 32.33 154.137 33.936 154.137C35.135 154.137 35.949 154.83 36.224 155.787L35.366 156.216C35.201 155.512 34.728 154.995 33.936 154.995C32.913 154.995 32.209 155.809 32.209 157.129ZM37.9239 157.129C37.9239 158.438 38.6279 159.252 39.6509 159.252C40.4429 159.252 40.9159 158.746 41.0809 158.031L41.9609 158.438C41.6859 159.395 40.8499 160.121 39.6509 160.121C38.0449 160.121 36.9339 158.9 36.9339 157.129C36.9339 155.347 38.0449 154.137 39.6509 154.137C40.8499 154.137 41.6639 154.83 41.9389 155.787L41.0809 156.216C40.9159 155.512 40.4429 154.995 39.6509 154.995C38.6279 154.995 37.9239 155.809 37.9239 157.129ZM45.3437 160.121C43.7487 160.121 42.6487 158.9 42.6487 157.129C42.6487 155.413 43.7377 154.137 45.2997 154.137C46.9057 154.137 47.7527 155.358 47.7527 156.953V157.283H43.5947C43.6497 158.493 44.3427 159.263 45.3437 159.263C46.1137 159.263 46.6637 158.845 46.8397 158.163L47.7087 158.471C47.3567 159.494 46.4877 160.121 45.3437 160.121ZM45.2887 154.984C44.4527 154.984 43.8257 155.545 43.6497 156.524H46.7517C46.7297 155.71 46.2897 154.984 45.2887 154.984ZM51.7572 160.121C50.9542 160.121 50.3162 159.736 49.9752 159.164V161.98H48.9852V154.247H49.9752V155.083C50.3162 154.522 50.9542 154.137 51.7572 154.137C53.3522 154.137 54.2652 155.49 54.2652 157.129C54.2652 158.757 53.3522 160.121 51.7572 160.121ZM49.9532 156.931V157.338C49.9532 158.658 50.7672 159.252 51.5812 159.252C52.6592 159.252 53.2642 158.361 53.2642 157.129C53.2642 155.886 52.6592 155.006 51.5812 155.006C50.7672 155.006 49.9532 155.589 49.9532 156.931ZM55.6704 158.625V155.094H54.7794V154.247H55.6704V152.564H56.6494V154.247H57.9584V155.094H56.6494V158.471C56.6494 159.076 56.9464 159.186 57.4524 159.186C57.6834 159.186 57.8484 159.175 58.0794 159.12V159.967C57.8264 160.022 57.5404 160.055 57.2104 160.055C56.2314 160.055 55.6704 159.725 55.6704 158.625ZM59.2107 153.246V152.102H60.2887V153.246H59.2107ZM60.2447 154.247V160H59.2547V154.247H60.2447ZM61.8973 160V154.247H62.8873V155.028C63.2173 154.555 63.7893 154.137 64.6033 154.137C65.8243 154.137 66.5173 154.984 66.5173 156.205V160H65.5273V156.469C65.5273 155.666 65.1863 155.061 64.3283 155.061C63.6133 155.061 62.8873 155.611 62.8873 156.568V160H61.8973ZM72.9793 159.483C72.9793 161.166 71.8683 162.101 70.3063 162.101C69.0413 162.101 68.1173 161.518 67.7983 160.462L68.7223 160.11C68.9093 160.847 69.5033 161.276 70.3063 161.276C71.3183 161.276 71.9893 160.759 71.9893 159.56V158.911C71.6813 159.472 71.0323 159.868 70.2293 159.868C68.6562 159.868 67.7323 158.57 67.7323 156.997C67.7323 155.435 68.6562 154.137 70.2293 154.137C71.0213 154.137 71.6813 154.533 71.9893 155.094V154.247H72.9793V159.483ZM72.0003 156.909C72.0003 155.622 71.2303 155.006 70.4053 155.006C69.3603 155.006 68.7223 155.787 68.7223 156.997C68.7223 158.207 69.3603 158.999 70.4053 158.999C71.2303 158.999 72.0003 158.383 72.0003 157.118V156.909ZM79.8614 157.129C79.8614 158.438 80.5654 159.252 81.5884 159.252C82.3804 159.252 82.8534 158.746 83.0184 158.031L83.8984 158.438C83.6234 159.395 82.7874 160.121 81.5884 160.121C79.9824 160.121 78.8714 158.9 78.8714 157.129C78.8714 155.347 79.9824 154.137 81.5884 154.137C82.7874 154.137 83.6014 154.83 83.8764 155.787L83.0184 156.216C82.8534 155.512 82.3804 154.995 81.5884 154.995C80.5654 154.995 79.8614 155.809 79.8614 157.129ZM86.4877 160.099C85.4427 160.099 84.5957 159.483 84.5957 158.449C84.5957 157.305 85.4867 156.832 86.7737 156.568L88.1707 156.282V156.04C88.1707 155.38 87.8077 155.006 87.0377 155.006C86.3117 155.006 85.8827 155.347 85.7067 155.985L84.7717 155.743C85.0467 154.808 85.8937 154.137 87.0707 154.137C88.3577 154.137 89.1497 154.764 89.1497 155.996V158.801C89.1497 159.175 89.3807 159.296 89.7657 159.208V160C88.8857 160.11 88.3797 159.901 88.2587 159.351C87.9067 159.802 87.2687 160.099 86.4877 160.099ZM88.1707 158.042V157.052L87.0487 157.294C86.1687 157.47 85.5747 157.712 85.5747 158.405C85.5747 158.966 85.9817 159.296 86.6087 159.296C87.4557 159.296 88.1707 158.779 88.1707 158.042ZM93.8177 154.225V155.226C93.6527 155.193 93.5207 155.182 93.3337 155.182C92.4977 155.182 91.8267 155.842 91.8267 156.854V160H90.8367V154.247H91.8267V155.226C92.0797 154.643 92.6407 154.203 93.4217 154.203C93.5757 154.203 93.7187 154.214 93.8177 154.225ZM96.8266 160.121C95.2316 160.121 94.3186 158.757 94.3186 157.129C94.3186 155.49 95.2316 154.137 96.8266 154.137C97.6296 154.137 98.2676 154.522 98.6086 155.083V152.102H99.5986V160H98.6086V159.164C98.2676 159.736 97.6296 160.121 96.8266 160.121ZM98.6306 156.931C98.6306 155.589 97.8166 155.006 97.0026 155.006C95.9246 155.006 95.3196 155.886 95.3196 157.129C95.3196 158.361 95.9246 159.252 97.0026 159.252C97.8166 159.252 98.6306 158.658 98.6306 157.338V156.931ZM106.327 160.121C105.524 160.121 104.886 159.736 104.545 159.164V161.98H103.555V154.247H104.545V155.083C104.886 154.522 105.524 154.137 106.327 154.137C107.922 154.137 108.835 155.49 108.835 157.129C108.835 158.757 107.922 160.121 106.327 160.121ZM104.523 156.931V157.338C104.523 158.658 105.337 159.252 106.151 159.252C107.229 159.252 107.834 158.361 107.834 157.129C107.834 155.886 107.229 155.006 106.151 155.006C105.337 155.006 104.523 155.589 104.523 156.931ZM111.528 160.099C110.483 160.099 109.636 159.483 109.636 158.449C109.636 157.305 110.527 156.832 111.814 156.568L113.211 156.282V156.04C113.211 155.38 112.848 155.006 112.078 155.006C111.352 155.006 110.923 155.347 110.747 155.985L109.812 155.743C110.087 154.808 110.934 154.137 112.111 154.137C113.398 154.137 114.19 154.764 114.19 155.996V158.801C114.19 159.175 114.421 159.296 114.806 159.208V160C113.926 160.11 113.42 159.901 113.299 159.351C112.947 159.802 112.309 160.099 111.528 160.099ZM113.211 158.042V157.052L112.089 157.294C111.209 157.47 110.615 157.712 110.615 158.405C110.615 158.966 111.022 159.296 111.649 159.296C112.496 159.296 113.211 158.779 113.211 158.042ZM117.946 160.627C117.616 161.496 117.165 162.046 116.164 162.046C115.922 162.046 115.801 162.035 115.625 162.002V161.144C115.812 161.188 115.933 161.199 116.098 161.199C116.527 161.199 116.758 161.045 116.989 160.473L117.264 159.791L115.13 154.247H116.175L117.792 158.647L119.387 154.247H120.421L117.946 160.627ZM122.378 156.557V160H121.388V154.247H122.378V155.028C122.686 154.555 123.236 154.137 124.039 154.137C124.809 154.137 125.348 154.522 125.634 155.116C125.953 154.643 126.569 154.137 127.471 154.137C128.659 154.137 129.374 154.984 129.374 156.205V160H128.384V156.469C128.384 155.666 128.054 155.061 127.24 155.061C126.58 155.061 125.876 155.622 125.876 156.557V160H124.886V156.469C124.886 155.666 124.556 155.061 123.742 155.061C123.082 155.061 122.378 155.622 122.378 156.557ZM133.269 160.121C131.674 160.121 130.574 158.9 130.574 157.129C130.574 155.413 131.663 154.137 133.225 154.137C134.831 154.137 135.678 155.358 135.678 156.953V157.283H131.52C131.575 158.493 132.268 159.263 133.269 159.263C134.039 159.263 134.589 158.845 134.765 158.163L135.634 158.471C135.282 159.494 134.413 160.121 133.269 160.121ZM133.214 154.984C132.378 154.984 131.751 155.545 131.575 156.524H134.677C134.655 155.71 134.215 154.984 133.214 154.984ZM136.91 160V154.247H137.9V155.028C138.23 154.555 138.802 154.137 139.616 154.137C140.837 154.137 141.53 154.984 141.53 156.205V160H140.54V156.469C140.54 155.666 140.199 155.061 139.341 155.061C138.626 155.061 137.9 155.611 137.9 156.568V160H136.91ZM143.273 158.625V155.094H142.382V154.247H143.273V152.564H144.252V154.247H145.561V155.094H144.252V158.471C144.252 159.076 144.549 159.186 145.055 159.186C145.286 159.186 145.451 159.175 145.682 159.12V159.967C145.429 160.022 145.143 160.055 144.813 160.055C143.834 160.055 143.273 159.725 143.273 158.625ZM146.219 158.779L146.989 158.218C147.297 158.889 148.001 159.296 148.749 159.296C149.42 159.296 150.014 159.01 150.014 158.383C150.014 157.756 149.464 157.668 148.518 157.47C147.572 157.261 146.582 157.052 146.582 155.875C146.582 154.852 147.473 154.137 148.694 154.137C149.728 154.137 150.575 154.643 150.916 155.325L150.212 155.886C149.915 155.314 149.376 154.951 148.65 154.951C147.99 154.951 147.55 155.281 147.55 155.798C147.55 156.337 148.056 156.436 148.859 156.612C149.849 156.843 150.982 157.041 150.982 158.295C150.982 159.395 149.981 160.121 148.749 160.121C147.704 160.121 146.659 159.67 146.219 158.779Z" fill="black"/>
<rect x="12" y="123" width="4" height="4" fill="black"/>
<rect x="83.5" y="4.5" width="39" height="39" rx="19.5" fill="white"/>
<rect x="83.5" y="4.5" width="39" height="39" rx="19.5" stroke="#49D7C6"/>
<path d="M100.5 23C100.257 23 100.027 23.058 99.824 23.16C100.622 23.3579 101.366 23.7328 102 24.257V24H105.5C105.633 24 105.76 24.0527 105.854 24.1464C105.947 24.2402 106 24.3674 106 24.5V26H103.4C103.562 26.317 103.694 26.651 103.793 27H106V28.5C106 28.6326 105.947 28.7598 105.854 28.8536C105.76 28.9473 105.633 29 105.5 29H103.978C103.947 29.3383 103.885 29.6731 103.793 30H105.5C105.898 30 106.279 29.842 106.561 29.5607C106.842 29.2794 107 28.8978 107 28.5V24.5C107 24.1022 106.842 23.7206 106.561 23.4393C106.279 23.158 105.898 23 105.5 23H100.5ZM97 23.207C97.3269 23.1145 97.6617 23.0525 98 23.022V18C98 17.7348 98.1054 17.4804 98.2929 17.2929C98.4804 17.1054 98.7348 17 99 17H103V20.5C103 20.8978 103.158 21.2794 103.439 21.5607C103.721 21.842 104.102 22 104.5 22H108V30C108 30.2652 107.895 30.5196 107.707 30.7071C107.52 30.8946 107.265 31 107 31H103.4C103.218 31.3562 102.998 31.6915 102.743 32H107C107.53 32 108.039 31.7893 108.414 31.4142C108.789 31.0391 109 30.5304 109 30V21.414C109 21.0163 108.841 20.635 108.56 20.354L104.646 16.439C104.365 16.158 103.984 16.0001 103.586 16H99C98.4696 16 97.9609 16.2107 97.5858 16.5858C97.2107 16.9609 97 17.4696 97 18V23.207ZM107.793 21H104.5C104.367 21 104.24 20.9473 104.146 20.8536C104.053 20.7598 104 20.6326 104 20.5V17.207L107.793 21ZM103 28.5C103 29.6935 102.526 30.8381 101.682 31.682C100.838 32.5259 99.6935 33 98.5 33C97.3065 33 96.1619 32.5259 95.318 31.682C94.4741 30.8381 94 29.6935 94 28.5C94 27.3065 94.4741 26.1619 95.318 25.318C96.1619 24.4741 97.3065 24 98.5 24C99.6935 24 100.838 24.4741 101.682 25.318C102.526 26.1619 103 27.3065 103 28.5ZM100.854 26.646C100.808 26.5994 100.752 26.5625 100.692 26.5373C100.631 26.5121 100.566 26.4991 100.5 26.4991C100.434 26.4991 100.369 26.5121 100.308 26.5373C100.248 26.5625 100.192 26.5994 100.146 26.646L97.5 29.293L96.854 28.646C96.7601 28.5521 96.6328 28.4994 96.5 28.4994C96.3672 28.4994 96.2399 28.5521 96.146 28.646C96.0521 28.7399 95.9994 28.8672 95.9994 29C95.9994 29.1328 96.0521 29.2601 96.146 29.354L97.146 30.354C97.1924 30.4006 97.2476 30.4375 97.3084 30.4627C97.3691 30.4879 97.4342 30.5009 97.5 30.5009C97.5658 30.5009 97.6309 30.4879 97.6916 30.4627C97.7524 30.4375 97.8076 30.4006 97.854 30.354L100.854 27.354C100.901 27.3076 100.938 27.2524 100.963 27.1916C100.988 27.1309 101.001 27.0658 101.001 27C101.001 26.9342 100.988 26.8691 100.963 26.8084C100.938 26.7476 100.901 26.6924 100.854 26.646Z" fill="#49D7C6"/>
</svg>
