<svg width="206" height="220" viewBox="0 0 206 220" fill="none" xmlns="http://www.w3.org/2000/svg">
<rect y="24" width="206" height="124" rx="12" fill="#20336B"/>
<path d="M17.346 60H16.114L14.211 54.214V60H12.693V52.102H14.937L16.763 57.723L18.578 52.102H20.789V60H19.249V54.214L17.346 60ZM27.4476 57.107C27.4476 58.911 26.2816 60.121 24.6096 60.121C22.9376 60.121 21.7716 58.911 21.7716 57.107C21.7716 55.314 22.9376 54.104 24.6096 54.104C26.2816 54.104 27.4476 55.314 27.4476 57.107ZM23.3006 57.107C23.3006 58.207 23.8066 58.845 24.6096 58.845C25.4126 58.845 25.9076 58.207 25.9076 57.107C25.9076 56.018 25.4126 55.38 24.6096 55.38C23.8066 55.38 23.3006 56.018 23.3006 57.107ZM28.386 60V54.214H29.926V54.808C30.245 54.434 30.773 54.104 31.51 54.104C32.72 54.104 33.457 54.929 33.457 56.183V60H31.917V56.623C31.917 55.974 31.653 55.512 30.993 55.512C30.454 55.512 29.926 55.897 29.926 56.656V60H28.386ZM34.8457 58.493V55.501H34.0757V54.214H34.8457V52.564H36.3637V54.214H37.5407V55.501H36.3637V58.174C36.3637 58.669 36.6387 58.735 37.0897 58.735C37.3097 58.735 37.4197 58.724 37.6177 58.702V59.978C37.3427 60.033 37.0127 60.066 36.6277 60.066C35.4617 60.066 34.8457 59.681 34.8457 58.493ZM41.9914 54.203V55.71C41.8154 55.688 41.6834 55.677 41.4964 55.677C40.6934 55.677 40.0774 56.172 40.0774 57.063V60H38.5374V54.214H40.0774V55.028C40.3304 54.522 40.9024 54.181 41.6174 54.181C41.7714 54.181 41.8814 54.192 41.9914 54.203ZM44.2569 60.099C43.1239 60.099 42.2879 59.417 42.2879 58.394C42.2879 57.239 43.2119 56.755 44.3779 56.546L45.8189 56.271V56.183C45.8189 55.688 45.5659 55.38 44.9279 55.38C44.3559 55.38 44.0589 55.633 43.9269 56.15L42.4639 55.875C42.7279 54.896 43.6079 54.104 44.9829 54.104C46.4459 54.104 47.3259 54.775 47.3259 56.117V58.482C47.3259 58.79 47.4579 58.889 47.7989 58.845V60C46.8199 60.143 46.2259 59.945 45.9729 59.461C45.5989 59.868 45.0159 60.099 44.2569 60.099ZM45.8189 57.943V57.349L44.6859 57.58C44.1799 57.679 43.8059 57.844 43.8059 58.306C43.8059 58.702 44.1029 58.933 44.5649 58.933C45.2139 58.933 45.8189 58.592 45.8189 57.943ZM53.2889 52.102H55.1369L58.0959 60H56.4569L55.8299 58.306H52.5739L51.9469 60H50.3409L53.2889 52.102ZM54.1909 53.895L53.0799 56.931H55.3129L54.1909 53.895ZM61.8897 60.121C61.1637 60.121 60.6137 59.835 60.2727 59.406V61.958H58.7327V54.214H60.2727V54.808C60.6137 54.39 61.1637 54.104 61.8897 54.104C63.4847 54.104 64.4087 55.468 64.4087 57.107C64.4087 58.757 63.4847 60.121 61.8897 60.121ZM60.2397 56.953V57.272C60.2397 58.251 60.7897 58.801 61.5267 58.801C62.3957 58.801 62.8577 58.108 62.8577 57.107C62.8577 56.117 62.3957 55.424 61.5267 55.424C60.7897 55.424 60.2397 55.963 60.2397 56.953ZM68.4854 60.121C67.7594 60.121 67.2094 59.835 66.8684 59.406V61.958H65.3284V54.214H66.8684V54.808C67.2094 54.39 67.7594 54.104 68.4854 54.104C70.0804 54.104 71.0044 55.468 71.0044 57.107C71.0044 58.757 70.0804 60.121 68.4854 60.121ZM66.8354 56.953V57.272C66.8354 58.251 67.3854 58.801 68.1224 58.801C68.9914 58.801 69.4534 58.108 69.4534 57.107C69.4534 56.117 68.9914 55.424 68.1224 55.424C67.3854 55.424 66.8354 55.963 66.8354 56.953ZM76.9198 52.036C77.3451 52.036 77.7228 52.102 78.0528 52.234C78.3828 52.366 78.6431 52.5603 78.8338 52.817C79.0244 53.0663 79.1198 53.3743 79.1198 53.741C79.1198 54.247 78.9694 54.6723 78.6688 55.017C78.3681 55.3617 77.9941 55.6623 77.5468 55.919L79.0758 57.404C79.2224 57.1547 79.3508 56.8943 79.4608 56.623C79.5708 56.3443 79.6624 56.0657 79.7358 55.787H81.4408C81.3308 56.1977 81.1694 56.6377 80.9568 57.107C80.7441 57.5763 80.4728 58.0163 80.1428 58.427L81.7598 60H79.7358L79.1198 59.395C78.9584 59.505 78.7898 59.604 78.6138 59.692C78.4378 59.78 78.2544 59.857 78.0638 59.923C77.8731 59.9817 77.6714 60.0257 77.4588 60.055C77.2461 60.0917 77.0261 60.11 76.7988 60.11C76.2048 60.11 75.6951 60.0183 75.2698 59.835C74.8444 59.6443 74.5181 59.3803 74.2908 59.043C74.0634 58.7057 73.9498 58.317 73.9498 57.877C73.9498 57.503 74.0048 57.184 74.1148 56.92C74.2321 56.6487 74.3971 56.414 74.6098 56.216C74.8298 56.0107 75.0901 55.8237 75.3908 55.655C75.2001 55.435 75.0461 55.2297 74.9288 55.039C74.8188 54.841 74.7381 54.6467 74.6868 54.456C74.6428 54.2653 74.6208 54.0637 74.6208 53.851C74.6208 53.477 74.7161 53.1543 74.9068 52.883C75.1048 52.6117 75.3761 52.4027 75.7208 52.256C76.0728 52.1093 76.4724 52.036 76.9198 52.036ZM76.3478 56.634C76.2084 56.7367 76.0874 56.843 75.9848 56.953C75.8894 57.063 75.8124 57.1803 75.7538 57.305C75.7024 57.4297 75.6768 57.569 75.6768 57.723C75.6768 58.0383 75.7941 58.2877 76.0288 58.471C76.2634 58.647 76.5568 58.735 76.9088 58.735C77.1434 58.735 77.3634 58.7057 77.5688 58.647C77.7741 58.5883 77.9611 58.5077 78.1298 58.405L76.3478 56.634ZM76.9088 53.301C76.7254 53.301 76.5494 53.3487 76.3808 53.444C76.2194 53.532 76.1388 53.7043 76.1388 53.961C76.1388 54.1443 76.1828 54.3203 76.2708 54.489C76.3661 54.6577 76.4908 54.83 76.6448 55.006C76.9528 54.8373 77.1874 54.6687 77.3488 54.5C77.5174 54.3313 77.6018 54.137 77.6018 53.917C77.6018 53.697 77.5284 53.5393 77.3818 53.444C77.2351 53.3487 77.0774 53.301 76.9088 53.301ZM86.2934 57.096V60H84.6764V52.102H87.9104C89.7254 52.102 90.8584 52.96 90.8584 54.599C90.8584 56.227 89.7254 57.096 87.9104 57.096H86.2934ZM86.2934 55.721H87.8224C88.7684 55.721 89.2524 55.303 89.2524 54.599C89.2524 53.884 88.7684 53.477 87.8224 53.477H86.2934V55.721ZM93.1009 52.102V60H91.5609V52.102H93.1009ZM95.9376 60.099C94.8046 60.099 93.9686 59.417 93.9686 58.394C93.9686 57.239 94.8926 56.755 96.0586 56.546L97.4996 56.271V56.183C97.4996 55.688 97.2466 55.38 96.6086 55.38C96.0366 55.38 95.7396 55.633 95.6076 56.15L94.1446 55.875C94.4086 54.896 95.2886 54.104 96.6636 54.104C98.1266 54.104 99.0066 54.775 99.0066 56.117V58.482C99.0066 58.79 99.1386 58.889 99.4796 58.845V60C98.5006 60.143 97.9066 59.945 97.6536 59.461C97.2796 59.868 96.6966 60.099 95.9376 60.099ZM97.4996 57.943V57.349L96.3666 57.58C95.8606 57.679 95.4866 57.844 95.4866 58.306C95.4866 58.702 95.7836 58.933 96.2456 58.933C96.8946 58.933 97.4996 58.592 97.4996 57.943ZM100.48 58.493V55.501H99.7105V54.214H100.48V52.564H101.998V54.214H103.175V55.501H101.998V58.174C101.998 58.669 102.273 58.735 102.724 58.735C102.944 58.735 103.054 58.724 103.252 58.702V59.978C102.977 60.033 102.647 60.066 102.262 60.066C101.096 60.066 100.48 59.681 100.48 58.493ZM106.946 52.014V53.279C106.803 53.268 106.715 53.268 106.55 53.268C106.066 53.268 105.813 53.411 105.813 53.983V54.214H106.935V55.501H105.813V60H104.273V55.501H103.492V54.214H104.273V53.895C104.273 52.674 104.933 51.992 106.352 51.992C106.572 51.992 106.704 51.992 106.946 52.014ZM112.923 57.107C112.923 58.911 111.757 60.121 110.085 60.121C108.413 60.121 107.247 58.911 107.247 57.107C107.247 55.314 108.413 54.104 110.085 54.104C111.757 54.104 112.923 55.314 112.923 57.107ZM108.776 57.107C108.776 58.207 109.282 58.845 110.085 58.845C110.888 58.845 111.383 58.207 111.383 57.107C111.383 56.018 110.888 55.38 110.085 55.38C109.282 55.38 108.776 56.018 108.776 57.107ZM117.316 54.203V55.71C117.14 55.688 117.008 55.677 116.821 55.677C116.018 55.677 115.402 56.172 115.402 57.063V60H113.862V54.214H115.402V55.028C115.655 54.522 116.227 54.181 116.942 54.181C117.096 54.181 117.206 54.192 117.316 54.203ZM119.699 56.656V60H118.159V54.214H119.699V54.808C120.007 54.434 120.524 54.104 121.272 54.104C121.976 54.104 122.515 54.401 122.834 54.896C123.186 54.533 123.736 54.104 124.627 54.104C125.815 54.104 126.585 54.929 126.585 56.183V60H125.045V56.623C125.045 55.974 124.803 55.512 124.165 55.512C123.659 55.512 123.142 55.897 123.142 56.656V60H121.602V56.623C121.602 55.974 121.36 55.512 120.722 55.512C120.216 55.512 119.699 55.897 119.699 56.656ZM132.446 60.121C130.851 60.121 129.938 58.757 129.938 57.129C129.938 55.49 130.851 54.137 132.446 54.137C133.249 54.137 133.887 54.522 134.228 55.083V52.102H135.218V60H134.228V59.164C133.887 59.736 133.249 60.121 132.446 60.121ZM134.25 56.931C134.25 55.589 133.436 55.006 132.622 55.006C131.544 55.006 130.939 55.886 130.939 57.129C130.939 58.361 131.544 59.252 132.622 59.252C133.436 59.252 134.25 58.658 134.25 57.338V56.931ZM139.153 60.121C137.558 60.121 136.458 58.9 136.458 57.129C136.458 55.413 137.547 54.137 139.109 54.137C140.715 54.137 141.562 55.358 141.562 56.953V57.283H137.404C137.459 58.493 138.152 59.263 139.153 59.263C139.923 59.263 140.473 58.845 140.649 58.163L141.518 58.471C141.166 59.494 140.297 60.121 139.153 60.121ZM139.098 54.984C138.262 54.984 137.635 55.545 137.459 56.524H140.561C140.539 55.71 140.099 54.984 139.098 54.984ZM145.14 60H144.161L142.005 54.247H143.05L144.667 58.79L146.262 54.247H147.296L145.14 60ZM150.411 60.121C148.816 60.121 147.716 58.9 147.716 57.129C147.716 55.413 148.805 54.137 150.367 54.137C151.973 54.137 152.82 55.358 152.82 56.953V57.283H148.662C148.717 58.493 149.41 59.263 150.411 59.263C151.181 59.263 151.731 58.845 151.907 58.163L152.776 58.471C152.424 59.494 151.555 60.121 150.411 60.121ZM150.356 54.984C149.52 54.984 148.893 55.545 148.717 56.524H151.819C151.797 55.71 151.357 54.984 150.356 54.984ZM155.043 52.102V60H154.053V52.102H155.043ZM161.645 57.129C161.645 58.911 160.545 60.121 158.972 60.121C157.399 60.121 156.299 58.911 156.299 57.129C156.299 55.347 157.399 54.137 158.972 54.137C160.545 54.137 161.645 55.347 161.645 57.129ZM157.3 57.129C157.3 58.438 157.96 59.274 158.972 59.274C159.984 59.274 160.644 58.438 160.644 57.129C160.644 55.809 159.984 54.973 158.972 54.973C157.96 54.973 157.3 55.809 157.3 57.129ZM165.676 60.121C164.873 60.121 164.235 59.736 163.894 59.164V61.98H162.904V54.247H163.894V55.083C164.235 54.522 164.873 54.137 165.676 54.137C167.271 54.137 168.184 55.49 168.184 57.129C168.184 58.757 167.271 60.121 165.676 60.121ZM163.872 56.931V57.338C163.872 58.658 164.686 59.252 165.5 59.252C166.578 59.252 167.183 58.361 167.183 57.129C167.183 55.886 166.578 55.006 165.5 55.006C164.686 55.006 163.872 55.589 163.872 56.931ZM170.425 56.557V60H169.435V54.247H170.425V55.028C170.733 54.555 171.283 54.137 172.086 54.137C172.856 54.137 173.395 54.522 173.681 55.116C174 54.643 174.616 54.137 175.518 54.137C176.706 54.137 177.421 54.984 177.421 56.205V60H176.431V56.469C176.431 55.666 176.101 55.061 175.287 55.061C174.627 55.061 173.923 55.622 173.923 56.557V60H172.933V56.469C172.933 55.666 172.603 55.061 171.789 55.061C171.129 55.061 170.425 55.622 170.425 56.557ZM181.316 60.121C179.721 60.121 178.621 58.9 178.621 57.129C178.621 55.413 179.71 54.137 181.272 54.137C182.878 54.137 183.725 55.358 183.725 56.953V57.283H179.567C179.622 58.493 180.315 59.263 181.316 59.263C182.086 59.263 182.636 58.845 182.812 58.163L183.681 58.471C183.329 59.494 182.46 60.121 181.316 60.121ZM181.261 54.984C180.425 54.984 179.798 55.545 179.622 56.524H182.724C182.702 55.71 182.262 54.984 181.261 54.984ZM184.958 60V54.247H185.948V55.028C186.278 54.555 186.85 54.137 187.664 54.137C188.885 54.137 189.578 54.984 189.578 56.205V60H188.588V56.469C188.588 55.666 188.247 55.061 187.389 55.061C186.674 55.061 185.948 55.611 185.948 56.568V60H184.958ZM191.321 58.625V55.094H190.43V54.247H191.321V52.564H192.3V54.247H193.609V55.094H192.3V58.471C192.3 59.076 192.597 59.186 193.103 59.186C193.334 59.186 193.499 59.175 193.73 59.12V59.967C193.477 60.022 193.191 60.055 192.861 60.055C191.882 60.055 191.321 59.725 191.321 58.625ZM194.814 60V58.702H196.068V60.066C196.068 60.924 195.518 61.441 194.638 61.463V60.891C195.133 60.869 195.386 60.616 195.386 60.088V60H194.814ZM13.815 72.557V76H12.825V70.247H13.815V71.028C14.123 70.555 14.673 70.137 15.476 70.137C16.246 70.137 16.785 70.522 17.071 71.116C17.39 70.643 18.006 70.137 18.908 70.137C20.096 70.137 20.811 70.984 20.811 72.205V76H19.821V72.469C19.821 71.666 19.491 71.061 18.677 71.061C18.017 71.061 17.313 71.622 17.313 72.557V76H16.323V72.469C16.323 71.666 15.993 71.061 15.179 71.061C14.519 71.061 13.815 71.622 13.815 72.557ZM22.363 69.246V68.102H23.441V69.246H22.363ZM23.397 70.247V76H22.407V70.247H23.397ZM26.0396 68.102V76H25.0496V68.102H26.0396ZM29.9912 76.121C28.3962 76.121 27.2962 74.9 27.2962 73.129C27.2962 71.413 28.3852 70.137 29.9472 70.137C31.5532 70.137 32.4002 71.358 32.4002 72.953V73.283H28.2422C28.2972 74.493 28.9902 75.263 29.9912 75.263C30.7612 75.263 31.3112 74.845 31.4872 74.163L32.3562 74.471C32.0042 75.494 31.1352 76.121 29.9912 76.121ZM29.9362 70.984C29.1002 70.984 28.4732 71.545 28.2972 72.524H31.3992C31.3772 71.71 30.9372 70.984 29.9362 70.984ZM32.9946 74.779L33.7646 74.218C34.0726 74.889 34.7766 75.296 35.5246 75.296C36.1956 75.296 36.7896 75.01 36.7896 74.383C36.7896 73.756 36.2396 73.668 35.2936 73.47C34.3476 73.261 33.3576 73.052 33.3576 71.875C33.3576 70.852 34.2486 70.137 35.4696 70.137C36.5036 70.137 37.3506 70.643 37.6916 71.325L36.9876 71.886C36.6906 71.314 36.1516 70.951 35.4256 70.951C34.7656 70.951 34.3256 71.281 34.3256 71.798C34.3256 72.337 34.8316 72.436 35.6346 72.612C36.6246 72.843 37.7576 73.041 37.7576 74.295C37.7576 75.395 36.7566 76.121 35.5246 76.121C34.4796 76.121 33.4346 75.67 32.9946 74.779ZM39.1362 74.625V71.094H38.2452V70.247H39.1362V68.564H40.1152V70.247H41.4242V71.094H40.1152V74.471C40.1152 75.076 40.4122 75.186 40.9182 75.186C41.1492 75.186 41.3142 75.175 41.5452 75.12V75.967C41.2922 76.022 41.0062 76.055 40.6762 76.055C39.6972 76.055 39.1362 75.725 39.1362 74.625ZM47.6383 73.129C47.6383 74.911 46.5383 76.121 44.9653 76.121C43.3923 76.121 42.2923 74.911 42.2923 73.129C42.2923 71.347 43.3923 70.137 44.9653 70.137C46.5383 70.137 47.6383 71.347 47.6383 73.129ZM43.2933 73.129C43.2933 74.438 43.9533 75.274 44.9653 75.274C45.9773 75.274 46.6373 74.438 46.6373 73.129C46.6373 71.809 45.9773 70.973 44.9653 70.973C43.9533 70.973 43.2933 71.809 43.2933 73.129ZM48.8973 76V70.247H49.8873V71.028C50.2173 70.555 50.7893 70.137 51.6033 70.137C52.8243 70.137 53.5173 70.984 53.5173 72.205V76H52.5273V72.469C52.5273 71.666 52.1863 71.061 51.3283 71.061C50.6133 71.061 49.8873 71.611 49.8873 72.568V76H48.8973ZM57.4053 76.121C55.8103 76.121 54.7103 74.9 54.7103 73.129C54.7103 71.413 55.7993 70.137 57.3613 70.137C58.9673 70.137 59.8143 71.358 59.8143 72.953V73.283H55.6562C55.7113 74.493 56.4043 75.263 57.4053 75.263C58.1753 75.263 58.7253 74.845 58.9013 74.163L59.7703 74.471C59.4183 75.494 58.5493 76.121 57.4053 76.121ZM57.3503 70.984C56.5143 70.984 55.8873 71.545 55.7113 72.524H58.8133C58.7913 71.71 58.3513 70.984 57.3503 70.984ZM60.4087 74.779L61.1787 74.218C61.4867 74.889 62.1907 75.296 62.9387 75.296C63.6097 75.296 64.2037 75.01 64.2037 74.383C64.2037 73.756 63.6537 73.668 62.7077 73.47C61.7617 73.261 60.7717 73.052 60.7717 71.875C60.7717 70.852 61.6627 70.137 62.8837 70.137C63.9177 70.137 64.7647 70.643 65.1057 71.325L64.4017 71.886C64.1047 71.314 63.5657 70.951 62.8397 70.951C62.1797 70.951 61.7397 71.281 61.7397 71.798C61.7397 72.337 62.2457 72.436 63.0487 72.612C64.0387 72.843 65.1717 73.041 65.1717 74.295C65.1717 75.395 64.1707 76.121 62.9387 76.121C61.8937 76.121 60.8487 75.67 60.4087 74.779ZM70.1576 76.099C69.1126 76.099 68.2656 75.483 68.2656 74.449C68.2656 73.305 69.1566 72.832 70.4436 72.568L71.8406 72.282V72.04C71.8406 71.38 71.4776 71.006 70.7076 71.006C69.9816 71.006 69.5526 71.347 69.3766 71.985L68.4416 71.743C68.7166 70.808 69.5636 70.137 70.7406 70.137C72.0276 70.137 72.8196 70.764 72.8196 71.996V74.801C72.8196 75.175 73.0506 75.296 73.4356 75.208V76C72.5556 76.11 72.0496 75.901 71.9286 75.351C71.5766 75.802 70.9386 76.099 70.1576 76.099ZM71.8406 74.042V73.052L70.7186 73.294C69.8386 73.47 69.2446 73.712 69.2446 74.405C69.2446 74.966 69.6516 75.296 70.2786 75.296C71.1256 75.296 71.8406 74.779 71.8406 74.042ZM75.1006 73.129C75.1006 74.438 75.8046 75.252 76.8276 75.252C77.6196 75.252 78.0926 74.746 78.2576 74.031L79.1376 74.438C78.8626 75.395 78.0266 76.121 76.8276 76.121C75.2216 76.121 74.1106 74.9 74.1106 73.129C74.1106 71.347 75.2216 70.137 76.8276 70.137C78.0266 70.137 78.8406 70.83 79.1156 71.787L78.2576 72.216C78.0926 71.512 77.6196 70.995 76.8276 70.995C75.8046 70.995 75.1006 71.809 75.1006 73.129ZM80.2215 76V68.102H81.2115V71.028C81.5415 70.555 82.1135 70.137 82.9275 70.137C84.1485 70.137 84.8415 70.984 84.8415 72.205V76H83.8515V72.469C83.8515 71.666 83.5105 71.061 82.6525 71.061C81.9375 71.061 81.2115 71.611 81.2115 72.568V76H80.2215ZM86.3865 69.246V68.102H87.4645V69.246H86.3865ZM87.4205 70.247V76H86.4305V70.247H87.4205ZM91.372 76.121C89.777 76.121 88.677 74.9 88.677 73.129C88.677 71.413 89.766 70.137 91.328 70.137C92.934 70.137 93.781 71.358 93.781 72.953V73.283H89.623C89.678 74.493 90.371 75.263 91.372 75.263C92.142 75.263 92.692 74.845 92.868 74.163L93.737 74.471C93.385 75.494 92.516 76.121 91.372 76.121ZM91.317 70.984C90.481 70.984 89.854 71.545 89.678 72.524H92.78C92.758 71.71 92.318 70.984 91.317 70.984ZM97.3591 76H96.3801L94.2241 70.247H95.2691L96.8861 74.79L98.4811 70.247H99.5151L97.3591 76ZM102.63 76.121C101.035 76.121 99.9349 74.9 99.9349 73.129C99.9349 71.413 101.024 70.137 102.586 70.137C104.192 70.137 105.039 71.358 105.039 72.953V73.283H100.881C100.936 74.493 101.629 75.263 102.63 75.263C103.4 75.263 103.95 74.845 104.126 74.163L104.995 74.471C104.643 75.494 103.774 76.121 102.63 76.121ZM102.575 70.984C101.739 70.984 101.112 71.545 100.936 72.524H104.038C104.016 71.71 103.576 70.984 102.575 70.984ZM108.383 76.121C106.788 76.121 105.875 74.757 105.875 73.129C105.875 71.49 106.788 70.137 108.383 70.137C109.186 70.137 109.824 70.522 110.165 71.083V68.102H111.155V76H110.165V75.164C109.824 75.736 109.186 76.121 108.383 76.121ZM110.187 72.931C110.187 71.589 109.373 71.006 108.559 71.006C107.481 71.006 106.876 71.886 106.876 73.129C106.876 74.361 107.481 75.252 108.559 75.252C109.373 75.252 110.187 74.658 110.187 73.338V72.931ZM112.759 75.406C112.759 75.1347 112.825 74.944 112.957 74.834C113.089 74.724 113.246 74.669 113.43 74.669C113.62 74.669 113.782 74.724 113.914 74.834C114.053 74.944 114.123 75.1347 114.123 75.406C114.123 75.67 114.053 75.8607 113.914 75.978C113.782 76.0953 113.62 76.154 113.43 76.154C113.246 76.154 113.089 76.0953 112.957 75.978C112.825 75.8607 112.759 75.67 112.759 75.406ZM112.759 70.698C112.759 70.4193 112.825 70.225 112.957 70.115C113.089 70.005 113.246 69.95 113.43 69.95C113.62 69.95 113.782 70.005 113.914 70.115C114.053 70.225 114.123 70.4193 114.123 70.698C114.123 70.962 114.053 71.1527 113.914 71.27C113.782 71.3873 113.62 71.446 113.43 71.446C113.246 71.446 113.089 71.3873 112.957 71.27C112.825 71.1527 112.759 70.962 112.759 70.698Z" fill="white"/>
<path d="M26.31 93.096V96H24.693V88.102H27.927C29.742 88.102 30.875 88.96 30.875 90.599C30.875 92.227 29.742 93.096 27.927 93.096H26.31ZM26.31 91.721H27.839C28.785 91.721 29.269 91.303 29.269 90.599C29.269 89.884 28.785 89.477 27.839 89.477H26.31V91.721ZM33.043 96.099C31.91 96.099 31.074 95.417 31.074 94.394C31.074 93.239 31.998 92.755 33.164 92.546L34.605 92.271V92.183C34.605 91.688 34.352 91.38 33.714 91.38C33.142 91.38 32.845 91.633 32.713 92.15L31.25 91.875C31.514 90.896 32.394 90.104 33.769 90.104C35.232 90.104 36.112 90.775 36.112 92.117V94.482C36.112 94.79 36.244 94.889 36.585 94.845V96C35.606 96.143 35.012 95.945 34.759 95.461C34.385 95.868 33.802 96.099 33.043 96.099ZM34.605 93.943V93.349L33.472 93.58C32.966 93.679 32.592 93.844 32.592 94.306C32.592 94.702 32.889 94.933 33.351 94.933C34 94.933 34.605 94.592 34.605 93.943ZM40.1083 96.33C39.7343 97.353 39.2063 98.013 37.9303 98.013C37.6333 98.013 37.5233 98.002 37.3253 97.98V96.737C37.4903 96.748 37.5893 96.759 37.7653 96.759C38.1723 96.759 38.3923 96.649 38.5573 96.231L38.7443 95.769L36.6653 90.214H38.2603L39.5693 94.02L40.8453 90.214H42.3963L40.1083 96.33ZM44.5901 92.656V96H43.0501V90.214H44.5901V90.808C44.8981 90.434 45.4151 90.104 46.1631 90.104C46.8671 90.104 47.4061 90.401 47.7251 90.896C48.0771 90.533 48.6271 90.104 49.5181 90.104C50.7061 90.104 51.4761 90.929 51.4761 92.183V96H49.9361V92.623C49.9361 91.974 49.6941 91.512 49.0561 91.512C48.5501 91.512 48.0331 91.897 48.0331 92.656V96H46.4931V92.623C46.4931 91.974 46.2511 91.512 45.6131 91.512C45.1071 91.512 44.5901 91.897 44.5901 92.656ZM55.2481 96.121C53.5431 96.121 52.3771 94.9 52.3771 93.107C52.3771 91.402 53.5541 90.104 55.1931 90.104C56.9091 90.104 57.8331 91.38 57.8331 92.997V93.448H53.8511C53.9611 94.328 54.5001 94.856 55.2591 94.856C55.8531 94.856 56.3261 94.57 56.5021 94.009L57.8001 94.471C57.3821 95.527 56.4031 96.121 55.2481 96.121ZM55.1821 91.336C54.5661 91.336 54.0931 91.699 53.9061 92.403H56.3041C56.2931 91.831 55.9301 91.336 55.1821 91.336ZM58.7444 96V90.214H60.2844V90.808C60.6034 90.434 61.1314 90.104 61.8684 90.104C63.0784 90.104 63.8154 90.929 63.8154 92.183V96H62.2754V92.623C62.2754 91.974 62.0114 91.512 61.3514 91.512C60.8124 91.512 60.2844 91.897 60.2844 92.656V96H58.7444ZM65.2041 94.493V91.501H64.4341V90.214H65.2041V88.564H66.7221V90.214H67.8991V91.501H66.7221V94.174C66.7221 94.669 66.9971 94.735 67.4481 94.735C67.6681 94.735 67.7781 94.724 67.9761 94.702V95.978C67.7011 96.033 67.3711 96.066 66.9861 96.066C65.8201 96.066 65.2041 95.681 65.2041 94.493ZM76.4324 96V95.241C76.1134 95.736 75.3654 96.121 74.3754 96.121C72.3074 96.121 70.7784 94.471 70.7784 92.095C70.7784 89.697 72.3294 87.981 74.4854 87.981C76.1684 87.981 77.2684 88.872 77.7634 90.291L76.2124 90.808C76.0034 89.917 75.3984 89.4 74.5074 89.4C73.2644 89.4 72.4064 90.456 72.4064 92.062C72.4064 93.668 73.2644 94.746 74.5294 94.746C75.5524 94.746 76.2344 94.031 76.3004 93.063H74.3864V91.688H77.8844V96H76.4324ZM80.7276 96.099C79.5946 96.099 78.7586 95.417 78.7586 94.394C78.7586 93.239 79.6826 92.755 80.8486 92.546L82.2896 92.271V92.183C82.2896 91.688 82.0366 91.38 81.3986 91.38C80.8266 91.38 80.5296 91.633 80.3976 92.15L78.9346 91.875C79.1986 90.896 80.0786 90.104 81.4536 90.104C82.9166 90.104 83.7966 90.775 83.7966 92.117V94.482C83.7966 94.79 83.9286 94.889 84.2696 94.845V96C83.2906 96.143 82.6966 95.945 82.4436 95.461C82.0696 95.868 81.4866 96.099 80.7276 96.099ZM82.2896 93.943V93.349L81.1566 93.58C80.6506 93.679 80.2766 93.844 80.2766 94.306C80.2766 94.702 80.5736 94.933 81.0356 94.933C81.6846 94.933 82.2896 94.592 82.2896 93.943ZM85.2705 94.493V91.501H84.5005V90.214H85.2705V88.564H86.7885V90.214H87.9655V91.501H86.7885V94.174C86.7885 94.669 87.0635 94.735 87.5145 94.735C87.7345 94.735 87.8445 94.724 88.0425 94.702V95.978C87.7675 96.033 87.4375 96.066 87.0525 96.066C85.8865 96.066 85.2705 95.681 85.2705 94.493ZM91.4493 96.121C89.7443 96.121 88.5783 94.9 88.5783 93.107C88.5783 91.402 89.7553 90.104 91.3943 90.104C93.1103 90.104 94.0343 91.38 94.0343 92.997V93.448H90.0523C90.1623 94.328 90.7013 94.856 91.4603 94.856C92.0543 94.856 92.5273 94.57 92.7033 94.009L94.0013 94.471C93.5833 95.527 92.6043 96.121 91.4493 96.121ZM91.3833 91.336C90.7673 91.336 90.2943 91.699 90.1073 92.403H92.5053C92.4943 91.831 92.1313 91.336 91.3833 91.336ZM97.7089 90.214H98.9079L99.8649 93.833L100.833 90.214H102.34L100.591 96H99.2599L98.2809 92.502L97.3019 96H95.9709L94.2219 90.214H95.7839L96.7629 93.833L97.7089 90.214ZM104.36 96.099C103.227 96.099 102.391 95.417 102.391 94.394C102.391 93.239 103.315 92.755 104.481 92.546L105.922 92.271V92.183C105.922 91.688 105.669 91.38 105.031 91.38C104.459 91.38 104.162 91.633 104.03 92.15L102.567 91.875C102.831 90.896 103.711 90.104 105.086 90.104C106.549 90.104 107.429 90.775 107.429 92.117V94.482C107.429 94.79 107.561 94.889 107.902 94.845V96C106.923 96.143 106.329 95.945 106.076 95.461C105.702 95.868 105.119 96.099 104.36 96.099ZM105.922 93.943V93.349L104.789 93.58C104.283 93.679 103.909 93.844 103.909 94.306C103.909 94.702 104.206 94.933 104.668 94.933C105.317 94.933 105.922 94.592 105.922 93.943ZM111.426 96.33C111.052 97.353 110.524 98.013 109.248 98.013C108.951 98.013 108.841 98.002 108.643 97.98V96.737C108.808 96.748 108.907 96.759 109.083 96.759C109.49 96.759 109.71 96.649 109.875 96.231L110.062 95.769L107.983 90.214H109.578L110.887 94.02L112.163 90.214H113.714L111.426 96.33ZM118.989 88.102H120.837L123.796 96H122.157L121.53 94.306H118.274L117.647 96H116.041L118.989 88.102ZM119.891 89.895L118.78 92.931H121.013L119.891 89.895ZM127.59 96.121C126.864 96.121 126.314 95.835 125.973 95.406V97.958H124.433V90.214H125.973V90.808C126.314 90.39 126.864 90.104 127.59 90.104C129.185 90.104 130.109 91.468 130.109 93.107C130.109 94.757 129.185 96.121 127.59 96.121ZM125.94 92.953V93.272C125.94 94.251 126.49 94.801 127.227 94.801C128.096 94.801 128.558 94.108 128.558 93.107C128.558 92.117 128.096 91.424 127.227 91.424C126.49 91.424 125.94 91.963 125.94 92.953ZM134.186 96.121C133.46 96.121 132.91 95.835 132.569 95.406V97.958H131.029V90.214H132.569V90.808C132.91 90.39 133.46 90.104 134.186 90.104C135.781 90.104 136.705 91.468 136.705 93.107C136.705 94.757 135.781 96.121 134.186 96.121ZM132.536 92.953V93.272C132.536 94.251 133.086 94.801 133.823 94.801C134.692 94.801 135.154 94.108 135.154 93.107C135.154 92.117 134.692 91.424 133.823 91.424C133.086 91.424 132.536 91.963 132.536 92.953ZM139.164 88.102V96H137.624V88.102H139.164ZM140.406 89.532V88.102H141.979V89.532H140.406ZM141.968 90.214V96H140.428V90.214H141.968ZM144.42 93.107C144.42 94.196 144.959 94.823 145.773 94.823C146.411 94.823 146.796 94.383 146.939 93.789L148.27 94.383C148.006 95.329 147.104 96.121 145.762 96.121C144.079 96.121 142.891 94.9 142.891 93.107C142.891 91.325 144.079 90.104 145.762 90.104C147.093 90.104 147.973 90.874 148.248 91.809L146.939 92.425C146.796 91.831 146.411 91.391 145.773 91.391C144.959 91.391 144.42 92.029 144.42 93.107ZM150.67 96.099C149.537 96.099 148.701 95.417 148.701 94.394C148.701 93.239 149.625 92.755 150.791 92.546L152.232 92.271V92.183C152.232 91.688 151.979 91.38 151.341 91.38C150.769 91.38 150.472 91.633 150.34 92.15L148.877 91.875C149.141 90.896 150.021 90.104 151.396 90.104C152.859 90.104 153.739 90.775 153.739 92.117V94.482C153.739 94.79 153.871 94.889 154.212 94.845V96C153.233 96.143 152.639 95.945 152.386 95.461C152.012 95.868 151.429 96.099 150.67 96.099ZM152.232 93.943V93.349L151.099 93.58C150.593 93.679 150.219 93.844 150.219 94.306C150.219 94.702 150.516 94.933 150.978 94.933C151.627 94.933 152.232 94.592 152.232 93.943ZM155.213 94.493V91.501H154.443V90.214H155.213V88.564H156.731V90.214H157.908V91.501H156.731V94.174C156.731 94.669 157.006 94.735 157.457 94.735C157.677 94.735 157.787 94.724 157.985 94.702V95.978C157.71 96.033 157.38 96.066 156.995 96.066C155.829 96.066 155.213 95.681 155.213 94.493ZM158.883 89.532V88.102H160.456V89.532H158.883ZM160.445 90.214V96H158.905V90.214H160.445ZM167.043 93.107C167.043 94.911 165.877 96.121 164.205 96.121C162.533 96.121 161.367 94.911 161.367 93.107C161.367 91.314 162.533 90.104 164.205 90.104C165.877 90.104 167.043 91.314 167.043 93.107ZM162.896 93.107C162.896 94.207 163.402 94.845 164.205 94.845C165.008 94.845 165.503 94.207 165.503 93.107C165.503 92.018 165.008 91.38 164.205 91.38C163.402 91.38 162.896 92.018 162.896 93.107ZM167.982 96V90.214H169.522V90.808C169.841 90.434 170.369 90.104 171.106 90.104C172.316 90.104 173.053 90.929 173.053 92.183V96H171.513V92.623C171.513 91.974 171.249 91.512 170.589 91.512C170.05 91.512 169.522 91.897 169.522 92.656V96H167.982Z" fill="white"/>
<rect x="12" y="90" width="4" height="4" fill="white"/>
<path d="M25.925 108.102V116H24.869V108.102H25.925ZM27.618 116V110.247H28.608V111.028C28.938 110.555 29.51 110.137 30.324 110.137C31.545 110.137 32.238 110.984 32.238 112.205V116H31.248V112.469C31.248 111.666 30.907 111.061 30.049 111.061C29.334 111.061 28.608 111.611 28.608 112.568V116H27.618ZM33.981 114.625V111.094H33.09V110.247H33.981V108.564H34.96V110.247H36.269V111.094H34.96V114.471C34.96 115.076 35.257 115.186 35.763 115.186C35.994 115.186 36.159 115.175 36.39 115.12V115.967C36.137 116.022 35.851 116.055 35.521 116.055C34.542 116.055 33.981 115.725 33.981 114.625ZM39.832 116.121C38.237 116.121 37.137 114.9 37.137 113.129C37.137 111.413 38.226 110.137 39.788 110.137C41.394 110.137 42.241 111.358 42.241 112.953V113.283H38.083C38.138 114.493 38.831 115.263 39.832 115.263C40.602 115.263 41.152 114.845 41.328 114.163L42.197 114.471C41.845 115.494 40.976 116.121 39.832 116.121ZM39.777 110.984C38.941 110.984 38.314 111.545 38.138 112.524H41.24C41.218 111.71 40.778 110.984 39.777 110.984ZM48.3464 115.483C48.3464 117.166 47.2354 118.101 45.6734 118.101C44.4084 118.101 43.4844 117.518 43.1654 116.462L44.0894 116.11C44.2764 116.847 44.8704 117.276 45.6734 117.276C46.6854 117.276 47.3564 116.759 47.3564 115.56V114.911C47.0484 115.472 46.3994 115.868 45.5964 115.868C44.0234 115.868 43.0994 114.57 43.0994 112.997C43.0994 111.435 44.0234 110.137 45.5964 110.137C46.3884 110.137 47.0484 110.533 47.3564 111.094V110.247H48.3464V115.483ZM47.3674 112.909C47.3674 111.622 46.5974 111.006 45.7724 111.006C44.7274 111.006 44.0894 111.787 44.0894 112.997C44.0894 114.207 44.7274 114.999 45.7724 114.999C46.5974 114.999 47.3674 114.383 47.3674 113.118V112.909ZM52.9749 110.225V111.226C52.8099 111.193 52.6779 111.182 52.4909 111.182C51.6549 111.182 50.9839 111.842 50.9839 112.854V116H49.9939V110.247H50.9839V111.226C51.2369 110.643 51.7979 110.203 52.5789 110.203C52.7329 110.203 52.8759 110.214 52.9749 110.225ZM55.3881 116.099C54.3431 116.099 53.4961 115.483 53.4961 114.449C53.4961 113.305 54.3871 112.832 55.6741 112.568L57.0711 112.282V112.04C57.0711 111.38 56.7081 111.006 55.9381 111.006C55.2121 111.006 54.7831 111.347 54.6071 111.985L53.6721 111.743C53.9471 110.808 54.7941 110.137 55.9711 110.137C57.2581 110.137 58.0501 110.764 58.0501 111.996V114.801C58.0501 115.175 58.2811 115.296 58.6661 115.208V116C57.7861 116.11 57.2801 115.901 57.1591 115.351C56.8071 115.802 56.1691 116.099 55.3881 116.099ZM57.0711 114.042V113.052L55.9491 113.294C55.0691 113.47 54.4751 113.712 54.4751 114.405C54.4751 114.966 54.8821 115.296 55.5091 115.296C56.3561 115.296 57.0711 114.779 57.0711 114.042ZM59.8911 114.625V111.094H59.0001V110.247H59.8911V108.564H60.8701V110.247H62.1791V111.094H60.8701V114.471C60.8701 115.076 61.1671 115.186 61.6731 115.186C61.9041 115.186 62.0691 115.175 62.3001 115.12V115.967C62.0471 116.022 61.7611 116.055 61.4311 116.055C60.4521 116.055 59.8911 115.725 59.8911 114.625ZM63.4314 109.246V108.102H64.5094V109.246H63.4314ZM64.4654 110.247V116H63.4754V110.247H64.4654ZM71.068 113.129C71.068 114.911 69.968 116.121 68.395 116.121C66.822 116.121 65.722 114.911 65.722 113.129C65.722 111.347 66.822 110.137 68.395 110.137C69.968 110.137 71.068 111.347 71.068 113.129ZM66.723 113.129C66.723 114.438 67.383 115.274 68.395 115.274C69.407 115.274 70.067 114.438 70.067 113.129C70.067 111.809 69.407 110.973 68.395 110.973C67.383 110.973 66.723 111.809 66.723 113.129ZM72.327 116V110.247H73.317V111.028C73.647 110.555 74.219 110.137 75.033 110.137C76.254 110.137 76.947 110.984 76.947 112.205V116H75.957V112.469C75.957 111.666 75.616 111.061 74.758 111.061C74.043 111.061 73.317 111.611 73.317 112.568V116H72.327ZM77.8979 114.779L78.6679 114.218C78.9759 114.889 79.6799 115.296 80.4279 115.296C81.0989 115.296 81.6929 115.01 81.6929 114.383C81.6929 113.756 81.1429 113.668 80.1969 113.47C79.2509 113.261 78.2609 113.052 78.2609 111.875C78.2609 110.852 79.1519 110.137 80.3729 110.137C81.4069 110.137 82.2539 110.643 82.5949 111.325L81.8909 111.886C81.5939 111.314 81.0549 110.951 80.3289 110.951C79.6689 110.951 79.2289 111.281 79.2289 111.798C79.2289 112.337 79.7349 112.436 80.5379 112.612C81.5279 112.843 82.6609 113.041 82.6609 114.295C82.6609 115.395 81.6599 116.121 80.4279 116.121C79.3829 116.121 78.3379 115.67 77.8979 114.779ZM88.9449 110.247H89.7809L90.9689 114.537L92.1679 110.247H93.1579L91.4089 116H90.5399L89.3409 111.732L88.1419 116H87.2729L85.5239 110.247H86.5469L87.7569 114.526L88.9449 110.247ZM94.0789 109.246V108.102H95.1569V109.246H94.0789ZM95.1129 110.247V116H94.1229V110.247H95.1129ZM96.9194 114.625V111.094H96.0284V110.247H96.9194V108.564H97.8984V110.247H99.2074V111.094H97.8984V114.471C97.8984 115.076 98.1954 115.186 98.7014 115.186C98.9324 115.186 99.0974 115.175 99.3284 115.12V115.967C99.0754 116.022 98.7894 116.055 98.4594 116.055C97.4804 116.055 96.9194 115.725 96.9194 114.625ZM100.504 116V108.102H101.494V111.028C101.824 110.555 102.396 110.137 103.21 110.137C104.431 110.137 105.124 110.984 105.124 112.205V116H104.134V112.469C104.134 111.666 103.793 111.061 102.935 111.061C102.22 111.061 101.494 111.611 101.494 112.568V116H100.504ZM113.554 116H112.322L110.419 110.214V116H108.901V108.102H111.145L112.971 113.723L114.786 108.102H116.997V116H115.457V110.214L113.554 116ZM119.894 116.099C118.761 116.099 117.925 115.417 117.925 114.394C117.925 113.239 118.849 112.755 120.015 112.546L121.456 112.271V112.183C121.456 111.688 121.203 111.38 120.565 111.38C119.993 111.38 119.696 111.633 119.564 112.15L118.101 111.875C118.365 110.896 119.245 110.104 120.62 110.104C122.083 110.104 122.963 110.775 122.963 112.117V114.482C122.963 114.79 123.095 114.889 123.436 114.845V116C122.457 116.143 121.863 115.945 121.61 115.461C121.236 115.868 120.653 116.099 119.894 116.099ZM121.456 113.943V113.349L120.323 113.58C119.817 113.679 119.443 113.844 119.443 114.306C119.443 114.702 119.74 114.933 120.202 114.933C120.851 114.933 121.456 114.592 121.456 113.943ZM123.743 115.021L124.7 114.042C125.096 114.581 125.8 114.922 126.449 114.922C126.966 114.922 127.417 114.746 127.417 114.328C127.417 113.888 126.988 113.833 126.064 113.657C125.129 113.47 124.095 113.228 124.095 111.985C124.095 110.874 125.074 110.104 126.46 110.104C127.483 110.104 128.396 110.522 128.847 111.105L127.967 112.073C127.582 111.578 127.021 111.303 126.416 111.303C125.932 111.303 125.613 111.512 125.613 111.831C125.613 112.205 125.998 112.271 126.713 112.414C127.725 112.623 128.924 112.854 128.924 114.163C128.924 115.373 127.802 116.121 126.416 116.121C125.371 116.121 124.271 115.736 123.743 115.021ZM129.969 114.493V111.501H129.199V110.214H129.969V108.564H131.487V110.214H132.664V111.501H131.487V114.174C131.487 114.669 131.762 114.735 132.213 114.735C132.433 114.735 132.543 114.724 132.741 114.702V115.978C132.466 116.033 132.136 116.066 131.751 116.066C130.585 116.066 129.969 115.681 129.969 114.493ZM136.147 116.121C134.442 116.121 133.276 114.9 133.276 113.107C133.276 111.402 134.453 110.104 136.092 110.104C137.808 110.104 138.732 111.38 138.732 112.997V113.448H134.75C134.86 114.328 135.399 114.856 136.158 114.856C136.752 114.856 137.225 114.57 137.401 114.009L138.699 114.471C138.281 115.527 137.302 116.121 136.147 116.121ZM136.081 111.336C135.465 111.336 134.992 111.699 134.805 112.403H137.203C137.192 111.831 136.829 111.336 136.081 111.336ZM143.098 110.203V111.71C142.922 111.688 142.79 111.677 142.603 111.677C141.8 111.677 141.184 112.172 141.184 113.063V116H139.644V110.214H141.184V111.028C141.437 110.522 142.009 110.181 142.724 110.181C142.878 110.181 142.988 110.192 143.098 110.203ZM144.882 113.107C144.882 114.196 145.421 114.823 146.235 114.823C146.873 114.823 147.258 114.383 147.401 113.789L148.732 114.383C148.468 115.329 147.566 116.121 146.224 116.121C144.541 116.121 143.353 114.9 143.353 113.107C143.353 111.325 144.541 110.104 146.224 110.104C147.555 110.104 148.435 110.874 148.71 111.809L147.401 112.425C147.258 111.831 146.873 111.391 146.235 111.391C145.421 111.391 144.882 112.029 144.882 113.107ZM151.132 116.099C149.999 116.099 149.163 115.417 149.163 114.394C149.163 113.239 150.087 112.755 151.253 112.546L152.694 112.271V112.183C152.694 111.688 152.441 111.38 151.803 111.38C151.231 111.38 150.934 111.633 150.802 112.15L149.339 111.875C149.603 110.896 150.483 110.104 151.858 110.104C153.321 110.104 154.201 110.775 154.201 112.117V114.482C154.201 114.79 154.333 114.889 154.674 114.845V116C153.695 116.143 153.101 115.945 152.848 115.461C152.474 115.868 151.891 116.099 151.132 116.099ZM152.694 113.943V113.349L151.561 113.58C151.055 113.679 150.681 113.844 150.681 114.306C150.681 114.702 150.978 114.933 151.44 114.933C152.089 114.933 152.694 114.592 152.694 113.943ZM158.996 110.203V111.71C158.82 111.688 158.688 111.677 158.501 111.677C157.698 111.677 157.082 112.172 157.082 113.063V116H155.542V110.214H157.082V111.028C157.335 110.522 157.907 110.181 158.622 110.181C158.776 110.181 158.886 110.192 158.996 110.203ZM161.813 116.121C160.218 116.121 159.294 114.757 159.294 113.107C159.294 111.468 160.218 110.104 161.813 110.104C162.539 110.104 163.089 110.39 163.43 110.808V108.102H164.97V116H163.43V115.406C163.089 115.835 162.539 116.121 161.813 116.121ZM163.463 112.953C163.463 111.963 162.913 111.424 162.176 111.424C161.307 111.424 160.845 112.117 160.845 113.107C160.845 114.108 161.307 114.801 162.176 114.801C162.913 114.801 163.463 114.251 163.463 113.272V112.953ZM166.022 116V114.218H167.826V115.967C167.826 117.001 167.111 117.617 166.022 117.617V116.803C166.528 116.77 166.781 116.55 166.781 116.077V116H166.022ZM28.697 132H27.003L24.088 124.102H25.826L27.872 129.943L29.929 124.102H31.59L28.697 132ZM32.2107 125.532V124.102H33.7837V125.532H32.2107ZM33.7727 126.214V132H32.2327V126.214H33.7727ZM34.4644 131.021L35.4214 130.042C35.8174 130.581 36.5214 130.922 37.1704 130.922C37.6874 130.922 38.1384 130.746 38.1384 130.328C38.1384 129.888 37.7094 129.833 36.7854 129.657C35.8504 129.47 34.8164 129.228 34.8164 127.985C34.8164 126.874 35.7954 126.104 37.1814 126.104C38.2044 126.104 39.1174 126.522 39.5684 127.105L38.6884 128.073C38.3034 127.578 37.7424 127.303 37.1374 127.303C36.6534 127.303 36.3344 127.512 36.3344 127.831C36.3344 128.205 36.7194 128.271 37.4344 128.414C38.4464 128.623 39.6454 128.854 39.6454 130.163C39.6454 131.373 38.5234 132.121 37.1374 132.121C36.0924 132.121 34.9924 131.736 34.4644 131.021ZM42.1309 132.099C40.9979 132.099 40.1619 131.417 40.1619 130.394C40.1619 129.239 41.0859 128.755 42.2519 128.546L43.6929 128.271V128.183C43.6929 127.688 43.4399 127.38 42.8019 127.38C42.2299 127.38 41.9329 127.633 41.8009 128.15L40.3379 127.875C40.6019 126.896 41.4819 126.104 42.8569 126.104C44.3199 126.104 45.1999 126.775 45.1999 128.117V130.482C45.1999 130.79 45.3319 130.889 45.6729 130.845V132C44.6939 132.143 44.0999 131.945 43.8469 131.461C43.4729 131.868 42.8899 132.099 42.1309 132.099ZM43.6929 129.943V129.349L42.5599 129.58C42.0539 129.679 41.6799 129.844 41.6799 130.306C41.6799 130.702 41.9769 130.933 42.4389 130.933C43.0879 130.933 43.6929 130.592 43.6929 129.943ZM51.537 124.036C51.9623 124.036 52.34 124.102 52.67 124.234C53 124.366 53.2603 124.56 53.451 124.817C53.6416 125.066 53.737 125.374 53.737 125.741C53.737 126.247 53.5866 126.672 53.286 127.017C52.9853 127.362 52.6113 127.662 52.164 127.919L53.693 129.404C53.8396 129.155 53.968 128.894 54.078 128.623C54.188 128.344 54.2796 128.066 54.353 127.787H56.058C55.948 128.198 55.7866 128.638 55.574 129.107C55.3613 129.576 55.09 130.016 54.76 130.427L56.377 132H54.353L53.737 131.395C53.5756 131.505 53.407 131.604 53.231 131.692C53.055 131.78 52.8716 131.857 52.681 131.923C52.4903 131.982 52.2886 132.026 52.076 132.055C51.8633 132.092 51.6433 132.11 51.416 132.11C50.822 132.11 50.3123 132.018 49.887 131.835C49.4616 131.644 49.1353 131.38 48.908 131.043C48.6806 130.706 48.567 130.317 48.567 129.877C48.567 129.503 48.622 129.184 48.732 128.92C48.8493 128.649 49.0143 128.414 49.227 128.216C49.447 128.011 49.7073 127.824 50.008 127.655C49.8173 127.435 49.6633 127.23 49.546 127.039C49.436 126.841 49.3553 126.647 49.304 126.456C49.26 126.265 49.238 126.064 49.238 125.851C49.238 125.477 49.3333 125.154 49.524 124.883C49.722 124.612 49.9933 124.403 50.338 124.256C50.69 124.109 51.0896 124.036 51.537 124.036ZM50.965 128.634C50.8256 128.737 50.7046 128.843 50.602 128.953C50.5066 129.063 50.4296 129.18 50.371 129.305C50.3196 129.43 50.294 129.569 50.294 129.723C50.294 130.038 50.4113 130.288 50.646 130.471C50.8806 130.647 51.174 130.735 51.526 130.735C51.7606 130.735 51.9806 130.706 52.186 130.647C52.3913 130.588 52.5783 130.508 52.747 130.405L50.965 128.634ZM51.526 125.301C51.3426 125.301 51.1666 125.349 50.998 125.444C50.8366 125.532 50.756 125.704 50.756 125.961C50.756 126.144 50.8 126.32 50.888 126.489C50.9833 126.658 51.108 126.83 51.262 127.006C51.57 126.837 51.8046 126.669 51.966 126.5C52.1346 126.331 52.219 126.137 52.219 125.917C52.219 125.697 52.1456 125.539 51.999 125.444C51.8523 125.349 51.6946 125.301 51.526 125.301ZM65.9486 124.102V132H64.5406L60.8446 126.555V132H59.2936V124.102H60.9326L64.3976 129.283V124.102H65.9486ZM68.9565 124.102V132H67.3395V124.102H68.9565ZM70.3366 132V124.102H73.5926C75.3086 124.102 76.2216 124.85 76.2216 126.203C76.2216 127.149 75.6606 127.666 75.1216 127.897C75.9136 128.161 76.4636 128.832 76.4636 129.789C76.4636 131.175 75.4626 132 73.7906 132H70.3366ZM71.8876 127.314H73.4386C74.2416 127.314 74.6926 127.006 74.6926 126.379C74.6926 125.763 74.2416 125.444 73.4386 125.444H71.8876V127.314ZM71.8876 128.623V130.647H73.6806C74.4726 130.647 74.9016 130.24 74.9016 129.635C74.9016 129.041 74.4726 128.623 73.6806 128.623H71.8876ZM76.7311 130.559L77.8421 129.481C78.4251 130.306 79.2721 130.768 80.1411 130.768C80.9661 130.768 81.5711 130.405 81.5711 129.734C81.5711 129.008 80.8231 128.909 79.6351 128.645C78.4581 128.37 77.1821 127.996 77.1821 126.434C77.1821 124.927 78.4801 123.981 80.1191 123.981C81.4831 123.981 82.5501 124.586 83.1001 125.378L82.0331 126.423C81.5711 125.774 80.9551 125.334 80.0751 125.334C79.3051 125.334 78.7771 125.708 78.7771 126.28C78.7771 126.896 79.3491 127.017 80.3831 127.248C81.6371 127.523 83.1771 127.842 83.1771 129.569C83.1771 131.164 81.7691 132.121 80.0861 132.121C78.7551 132.121 77.3691 131.516 76.7311 130.559ZM83.3697 130.559L84.4808 129.481C85.0638 130.306 85.9108 130.768 86.7798 130.768C87.6048 130.768 88.2098 130.405 88.2098 129.734C88.2098 129.008 87.4618 128.909 86.2738 128.645C85.0968 128.37 83.8208 127.996 83.8208 126.434C83.8208 124.927 85.1188 123.981 86.7578 123.981C88.1218 123.981 89.1888 124.586 89.7388 125.378L88.6718 126.423C88.2098 125.774 87.5938 125.334 86.7138 125.334C85.9438 125.334 85.4158 125.708 85.4158 126.28C85.4158 126.896 85.9878 127.017 87.0218 127.248C88.2758 127.523 89.8158 127.842 89.8158 129.569C89.8158 131.164 88.4078 132.121 86.7248 132.121C85.3938 132.121 84.0078 131.516 83.3697 130.559Z" fill="white"/>
<rect x="12" y="111" width="4" height="4" fill="white"/>
<rect x="83.5" y="4.5" width="39" height="39" rx="19.5" fill="white"/>
<rect x="83.5" y="4.5" width="39" height="39" rx="19.5" stroke="#20336B"/>
<rect x="93" y="14" width="20" height="20" rx="4" fill="#20336B"/>
<path d="M102.505 27.2322L102.614 26.7379L103.358 26.6278L103.227 27.2322H102.505Z" fill="#00AFEF" stroke="#00AFEF"/>
<path d="M107.269 27.2222L107.507 26.0584L108.23 25.9729L107.939 27.2222H107.269Z" fill="#00AFEF" stroke="#00AFEF"/>
<mask id="path-11-inside-1_3183_29836" fill="white">
<path d="M97.1719 27.6686L99.0525 27.0332L98.9152 27.7215H97.1719V27.6686Z"/>
</mask>
<path d="M97.1719 27.6686L99.0525 27.0332L98.9152 27.7215H97.1719V27.6686Z" fill="#00AFEF"/>
<path d="M97.1719 27.6686L96.8518 26.7212L96.1719 26.9509V27.6686H97.1719ZM99.0525 27.0332L100.033 27.2289L100.372 25.532L98.7325 26.0858L99.0525 27.0332ZM98.9152 27.7215V28.7215H99.7353L99.8958 27.9172L98.9152 27.7215ZM97.1719 27.7215H96.1719V28.7215H97.1719V27.7215ZM97.4919 28.6159L99.3726 27.9806L98.7325 26.0858L96.8518 26.7212L97.4919 28.6159ZM98.0719 26.8375L97.9345 27.5258L99.8958 27.9172L100.033 27.2289L98.0719 26.8375ZM98.9152 26.7215H97.1719V28.7215H98.9152V26.7215ZM98.1719 27.7215V27.6686H96.1719V27.7215H98.1719Z" fill="#00AFEF" mask="url(#path-11-inside-1_3183_29836)"/>
<mask id="mask0_3183_29836" style="mask-type:luminance" maskUnits="userSpaceOnUse" x="97" y="19" width="13" height="9">
<path d="M108.886 25.4095C108.28 25.4737 107.685 25.5411 107.103 25.6118L107.661 22.9906C107.72 22.7322 107.75 22.4986 107.75 22.2899C107.75 21.545 107.299 21.1726 106.399 21.1726H105.047L104.011 26.0356C103.385 26.1335 102.784 26.2363 102.208 26.3438L103.308 21.1726H100.753C100.447 21.1726 100.264 21.3215 100.204 21.6192L99.0531 27.0626C98.344 27.2625 97.7155 27.4768 97.1797 27.7043L98.5703 21.1726C98.6691 20.7054 98.8372 20.3647 99.0748 20.1503C99.3124 19.9368 99.6836 19.8301 100.189 19.8301H106.859C107.681 19.8301 108.337 19.9942 108.827 20.3225C109.318 20.65 109.563 21.1569 109.563 21.8432C109.563 22.1314 109.543 22.3597 109.503 22.5283L108.886 25.4095Z" fill="white"/>
<path d="M108.886 25.4095C108.28 25.4737 107.685 25.5411 107.103 25.6118L107.661 22.9906C107.72 22.7322 107.75 22.4986 107.75 22.2899C107.75 21.545 107.299 21.1726 106.399 21.1726H105.047L104.011 26.0356C103.385 26.1335 102.784 26.2363 102.208 26.3438L103.308 21.1726H100.753C100.447 21.1726 100.264 21.3215 100.204 21.6192L99.0531 27.0626C98.344 27.2625 97.7155 27.4768 97.1797 27.7043L98.5703 21.1726C98.6691 20.7054 98.8372 20.3647 99.0748 20.1503C99.3124 19.9368 99.6836 19.8301 100.189 19.8301H106.859C107.681 19.8301 108.337 19.9942 108.827 20.3225C109.318 20.65 109.563 21.1569 109.563 21.8432C109.563 22.1314 109.543 22.3597 109.503 22.5283L108.886 25.4095Z" stroke="white"/>
</mask>
<g mask="url(#mask0_3183_29836)">
<path d="M149.588 33.0362H95.3828V17.9258H149.588V33.0362Z" fill="white"/>
<path d="M149.588 33.0362H95.3828V17.9258H149.588V33.0362Z" stroke="#00AFEF"/>
</g>
<line x1="102.5" y1="202" x2="102.5" y2="148" stroke="#E7E7E7" stroke-dasharray="4 4"/>
</svg>
