<svg width="206" height="168" viewBox="0 0 206 168" fill="none" xmlns="http://www.w3.org/2000/svg">
<line x1="102.5" y1="162" x2="102.5" y2="108" stroke="#E7E7E7" stroke-dasharray="4 4"/>
<rect y="24" width="206" height="84" rx="12" fill="#FF4C7B"/>
<path d="M25.925 56.689V60H24.869V52.102H27.883C29.555 52.102 30.622 52.883 30.622 54.39C30.622 55.875 29.555 56.689 27.883 56.689H25.925ZM25.925 55.776H27.828C28.95 55.776 29.577 55.281 29.577 54.39C29.577 53.499 28.95 53.015 27.828 53.015H25.925V55.776ZM32.9369 60.099C31.8919 60.099 31.0449 59.483 31.0449 58.449C31.0449 57.305 31.9359 56.832 33.2229 56.568L34.6199 56.282V56.04C34.6199 55.38 34.2569 55.006 33.4869 55.006C32.7609 55.006 32.3319 55.347 32.1559 55.985L31.2209 55.743C31.4959 54.808 32.3429 54.137 33.5199 54.137C34.8069 54.137 35.5989 54.764 35.5989 55.996V58.801C35.5989 59.175 35.8299 59.296 36.2149 59.208V60C35.3349 60.11 34.8289 59.901 34.7079 59.351C34.3559 59.802 33.7179 60.099 32.9369 60.099ZM34.6199 58.042V57.052L33.4979 57.294C32.6179 57.47 32.0239 57.712 32.0239 58.405C32.0239 58.966 32.4309 59.296 33.0579 59.296C33.9049 59.296 34.6199 58.779 34.6199 58.042ZM40.2669 54.225V55.226C40.1019 55.193 39.9699 55.182 39.7829 55.182C38.9469 55.182 38.2759 55.842 38.2759 56.854V60H37.2859V54.247H38.2759V55.226C38.5289 54.643 39.0899 54.203 39.8709 54.203C40.0249 54.203 40.1679 54.214 40.2669 54.225ZM41.5757 58.625V55.094H40.6847V54.247H41.5757V52.564H42.5547V54.247H43.8637V55.094H42.5547V58.471C42.5547 59.076 42.8517 59.186 43.3577 59.186C43.5887 59.186 43.7537 59.175 43.9847 59.12V59.967C43.7317 60.022 43.4457 60.055 43.1157 60.055C42.1367 60.055 41.5757 59.725 41.5757 58.625ZM45.16 60V54.247H46.15V55.028C46.48 54.555 47.052 54.137 47.866 54.137C49.087 54.137 49.78 54.984 49.78 56.205V60H48.79V56.469C48.79 55.666 48.449 55.061 47.591 55.061C46.876 55.061 46.15 55.611 46.15 56.568V60H45.16ZM53.6679 60.121C52.0729 60.121 50.9729 58.9 50.9729 57.129C50.9729 55.413 52.0619 54.137 53.6239 54.137C55.2299 54.137 56.0769 55.358 56.0769 56.953V57.283H51.9189C51.9739 58.493 52.6669 59.263 53.6679 59.263C54.4379 59.263 54.9879 58.845 55.1639 58.163L56.0329 58.471C55.6809 59.494 54.8119 60.121 53.6679 60.121ZM53.6129 54.984C52.7769 54.984 52.1499 55.545 51.9739 56.524H55.0759C55.0539 55.71 54.6139 54.984 53.6129 54.984ZM60.2904 54.225V55.226C60.1254 55.193 59.9934 55.182 59.8064 55.182C58.9704 55.182 58.2994 55.842 58.2994 56.854V60H57.3094V54.247H58.2994V55.226C58.5524 54.643 59.1134 54.203 59.8944 54.203C60.0484 54.203 60.1914 54.214 60.2904 54.225ZM60.6352 58.779L61.4052 58.218C61.7132 58.889 62.4172 59.296 63.1652 59.296C63.8362 59.296 64.4302 59.01 64.4302 58.383C64.4302 57.756 63.8802 57.668 62.9342 57.47C61.9882 57.261 60.9982 57.052 60.9982 55.875C60.9982 54.852 61.8892 54.137 63.1102 54.137C64.1442 54.137 64.9912 54.643 65.3322 55.325L64.6282 55.886C64.3312 55.314 63.7922 54.951 63.0662 54.951C62.4062 54.951 61.9662 55.281 61.9662 55.798C61.9662 56.337 62.4722 56.436 63.2752 56.612C64.2652 56.843 65.3982 57.041 65.3982 58.295C65.3982 59.395 64.3972 60.121 63.1652 60.121C62.1202 60.121 61.0752 59.67 60.6352 58.779ZM66.6229 60V52.102H67.6129V55.028C67.9429 54.555 68.5149 54.137 69.3289 54.137C70.5499 54.137 71.2429 54.984 71.2429 56.205V60H70.2529V56.469C70.2529 55.666 69.9119 55.061 69.0539 55.061C68.3389 55.061 67.6129 55.611 67.6129 56.568V60H66.6229ZM72.7878 53.246V52.102H73.8658V53.246H72.7878ZM73.8218 54.247V60H72.8318V54.247H73.8218ZM78.2464 60.121C77.4434 60.121 76.8054 59.736 76.4644 59.164V61.98H75.4744V54.247H76.4644V55.083C76.8054 54.522 77.4434 54.137 78.2464 54.137C79.8414 54.137 80.7544 55.49 80.7544 57.129C80.7544 58.757 79.8414 60.121 78.2464 60.121ZM76.4424 56.931V57.338C76.4424 58.658 77.2564 59.252 78.0704 59.252C79.1484 59.252 79.7534 58.361 79.7534 57.129C79.7534 55.886 79.1484 55.006 78.0704 55.006C77.2564 55.006 76.4424 55.589 76.4424 56.931ZM87.065 54.247H87.901L89.089 58.537L90.288 54.247H91.278L89.529 60H88.66L87.461 55.732L86.262 60H85.393L83.644 54.247H84.667L85.877 58.526L87.065 54.247ZM92.199 53.246V52.102H93.277V53.246H92.199ZM93.233 54.247V60H92.243V54.247H93.233ZM95.0395 58.625V55.094H94.1485V54.247H95.0395V52.564H96.0185V54.247H97.3275V55.094H96.0185V58.471C96.0185 59.076 96.3155 59.186 96.8215 59.186C97.0525 59.186 97.2175 59.175 97.4485 59.12V59.967C97.1955 60.022 96.9095 60.055 96.5795 60.055C95.6005 60.055 95.0395 59.725 95.0395 58.625ZM98.6238 60V52.102H99.6138V55.028C99.9438 54.555 100.516 54.137 101.33 54.137C102.551 54.137 103.244 54.984 103.244 56.205V60H102.254V56.469C102.254 55.666 101.913 55.061 101.055 55.061C100.34 55.061 99.6138 55.611 99.6138 56.568V60H98.6238ZM113.676 52.102V60H112.268L108.572 54.555V60H107.021V52.102H108.66L112.125 57.283V52.102H113.676ZM116.684 52.102V60H115.067V52.102H116.684ZM118.064 60V52.102H121.32C123.036 52.102 123.949 52.85 123.949 54.203C123.949 55.149 123.388 55.666 122.849 55.897C123.641 56.161 124.191 56.832 124.191 57.789C124.191 59.175 123.19 60 121.518 60H118.064ZM119.615 55.314H121.166C121.969 55.314 122.42 55.006 122.42 54.379C122.42 53.763 121.969 53.444 121.166 53.444H119.615V55.314ZM119.615 56.623V58.647H121.408C122.2 58.647 122.629 58.24 122.629 57.635C122.629 57.041 122.2 56.623 121.408 56.623H119.615ZM124.459 58.559L125.57 57.481C126.153 58.306 127 58.768 127.869 58.768C128.694 58.768 129.299 58.405 129.299 57.734C129.299 57.008 128.551 56.909 127.363 56.645C126.186 56.37 124.91 55.996 124.91 54.434C124.91 52.927 126.208 51.981 127.847 51.981C129.211 51.981 130.278 52.586 130.828 53.378L129.761 54.423C129.299 53.774 128.683 53.334 127.803 53.334C127.033 53.334 126.505 53.708 126.505 54.28C126.505 54.896 127.077 55.017 128.111 55.248C129.365 55.523 130.905 55.842 130.905 57.569C130.905 59.164 129.497 60.121 127.814 60.121C126.483 60.121 125.097 59.516 124.459 58.559ZM131.097 58.559L132.208 57.481C132.791 58.306 133.638 58.768 134.507 58.768C135.332 58.768 135.937 58.405 135.937 57.734C135.937 57.008 135.189 56.909 134.001 56.645C132.824 56.37 131.548 55.996 131.548 54.434C131.548 52.927 132.846 51.981 134.485 51.981C135.849 51.981 136.916 52.586 137.466 53.378L136.399 54.423C135.937 53.774 135.321 53.334 134.441 53.334C133.671 53.334 133.143 53.708 133.143 54.28C133.143 54.896 133.715 55.017 134.749 55.248C136.003 55.523 137.543 55.842 137.543 57.569C137.543 59.164 136.135 60.121 134.452 60.121C133.121 60.121 131.735 59.516 131.097 58.559ZM140.509 56.986C140.509 56.3847 140.564 55.798 140.674 55.226C140.792 54.654 140.971 54.1077 141.213 53.587C141.455 53.0663 141.76 52.586 142.126 52.146H143.039C142.702 52.6007 142.416 53.092 142.181 53.62C141.954 54.148 141.782 54.6943 141.664 55.259C141.547 55.8237 141.488 56.3957 141.488 56.975C141.488 57.5397 141.547 58.1007 141.664 58.658C141.782 59.2153 141.954 59.7507 142.181 60.264C142.409 60.7847 142.691 61.276 143.028 61.738H142.126C141.76 61.3053 141.455 60.8323 141.213 60.319C140.971 59.813 140.792 59.2777 140.674 58.713C140.564 58.1483 140.509 57.5727 140.509 56.986ZM150.473 52.102V60H149.56L145.248 53.642V60H144.236V52.102H145.347L149.45 58.207V52.102H150.473ZM152.119 53.246V52.102H153.197V53.246H152.119ZM153.153 54.247V60H152.163V54.247H153.153ZM159.678 59.483C159.678 61.166 158.567 62.101 157.005 62.101C155.74 62.101 154.816 61.518 154.497 60.462L155.421 60.11C155.608 60.847 156.202 61.276 157.005 61.276C158.017 61.276 158.688 60.759 158.688 59.56V58.911C158.38 59.472 157.731 59.868 156.928 59.868C155.355 59.868 154.431 58.57 154.431 56.997C154.431 55.435 155.355 54.137 156.928 54.137C157.72 54.137 158.38 54.533 158.688 55.094V54.247H159.678V59.483ZM158.699 56.909C158.699 55.622 157.929 55.006 157.104 55.006C156.059 55.006 155.421 55.787 155.421 56.997C155.421 58.207 156.059 58.999 157.104 58.999C157.929 58.999 158.699 58.383 158.699 57.118V56.909ZM163.625 60.121C162.03 60.121 160.93 58.9 160.93 57.129C160.93 55.413 162.019 54.137 163.581 54.137C165.187 54.137 166.034 55.358 166.034 56.953V57.283H161.876C161.931 58.493 162.624 59.263 163.625 59.263C164.395 59.263 164.945 58.845 165.121 58.163L165.99 58.471C165.638 59.494 164.769 60.121 163.625 60.121ZM163.57 54.984C162.734 54.984 162.107 55.545 161.931 56.524H165.033C165.011 55.71 164.571 54.984 163.57 54.984ZM170.247 54.225V55.226C170.082 55.193 169.95 55.182 169.763 55.182C168.927 55.182 168.256 55.842 168.256 56.854V60H167.266V54.247H168.256V55.226C168.509 54.643 169.07 54.203 169.851 54.203C170.005 54.203 170.148 54.214 170.247 54.225ZM171.294 53.246V52.102H172.372V53.246H171.294ZM172.328 54.247V60H171.338V54.247H172.328ZM175.421 60.099C174.376 60.099 173.529 59.483 173.529 58.449C173.529 57.305 174.42 56.832 175.707 56.568L177.104 56.282V56.04C177.104 55.38 176.741 55.006 175.971 55.006C175.245 55.006 174.816 55.347 174.64 55.985L173.705 55.743C173.98 54.808 174.827 54.137 176.004 54.137C177.291 54.137 178.083 54.764 178.083 55.996V58.801C178.083 59.175 178.314 59.296 178.699 59.208V60C177.819 60.11 177.313 59.901 177.192 59.351C176.84 59.802 176.202 60.099 175.421 60.099ZM177.104 58.042V57.052L175.982 57.294C175.102 57.47 174.508 57.712 174.508 58.405C174.508 58.966 174.915 59.296 175.542 59.296C176.389 59.296 177.104 58.779 177.104 58.042ZM25.925 68.102V76H24.869V68.102H25.925ZM27.618 76V70.247H28.608V71.028C28.938 70.555 29.51 70.137 30.324 70.137C31.545 70.137 32.238 70.984 32.238 72.205V76H31.248V72.469C31.248 71.666 30.907 71.061 30.049 71.061C29.334 71.061 28.608 71.611 28.608 72.568V76H27.618ZM33.981 74.625V71.094H33.09V70.247H33.981V68.564H34.96V70.247H36.269V71.094H34.96V74.471C34.96 75.076 35.257 75.186 35.763 75.186C35.994 75.186 36.159 75.175 36.39 75.12V75.967C36.137 76.022 35.851 76.055 35.521 76.055C34.542 76.055 33.981 75.725 33.981 74.625ZM39.832 76.121C38.237 76.121 37.137 74.9 37.137 73.129C37.137 71.413 38.226 70.137 39.788 70.137C41.394 70.137 42.241 71.358 42.241 72.953V73.283H38.083C38.138 74.493 38.831 75.263 39.832 75.263C40.602 75.263 41.152 74.845 41.328 74.163L42.197 74.471C41.845 75.494 40.976 76.121 39.832 76.121ZM39.777 70.984C38.941 70.984 38.314 71.545 38.138 72.524H41.24C41.218 71.71 40.778 70.984 39.777 70.984ZM46.4544 70.225V71.226C46.2894 71.193 46.1574 71.182 45.9704 71.182C45.1344 71.182 44.4634 71.842 44.4634 72.854V76H43.4734V70.247H44.4634V71.226C44.7164 70.643 45.2774 70.203 46.0584 70.203C46.2124 70.203 46.3554 70.214 46.4544 70.225ZM47.0337 73.239V72.348H50.0367V73.239H47.0337ZM51.4667 76V68.102H54.3817C56.0537 68.102 56.9447 68.839 56.9447 70.159C56.9447 71.171 56.3287 71.677 55.7237 71.886C56.6147 72.128 57.2087 72.821 57.2087 73.822C57.2087 75.197 56.2077 76 54.6127 76H51.4667ZM52.4897 71.49H54.2937C55.3497 71.49 55.9327 71.083 55.9327 70.247C55.9327 69.4 55.3497 68.993 54.2937 68.993H52.4897V71.49ZM52.4897 72.392V75.109H54.5687C55.6247 75.109 56.1967 74.559 56.1967 73.745C56.1967 72.942 55.6247 72.392 54.5687 72.392H52.4897ZM59.889 76.099C58.844 76.099 57.997 75.483 57.997 74.449C57.997 73.305 58.888 72.832 60.175 72.568L61.572 72.282V72.04C61.572 71.38 61.209 71.006 60.439 71.006C59.713 71.006 59.284 71.347 59.108 71.985L58.173 71.743C58.448 70.808 59.295 70.137 60.472 70.137C61.759 70.137 62.551 70.764 62.551 71.996V74.801C62.551 75.175 62.782 75.296 63.167 75.208V76C62.287 76.11 61.781 75.901 61.66 75.351C61.308 75.802 60.67 76.099 59.889 76.099ZM61.572 74.042V73.052L60.45 73.294C59.57 73.47 58.976 73.712 58.976 74.405C58.976 74.966 59.383 75.296 60.01 75.296C60.857 75.296 61.572 74.779 61.572 74.042ZM64.2381 76V70.247H65.2281V71.028C65.5581 70.555 66.1301 70.137 66.9441 70.137C68.1651 70.137 68.8581 70.984 68.8581 72.205V76H67.8681V72.469C67.8681 71.666 67.5271 71.061 66.6691 71.061C65.9541 71.061 65.2281 71.611 65.2281 72.568V76H64.2381ZM71.4371 68.102V72.931L73.9891 70.247H75.2211L72.9771 72.513L75.4081 76H74.2531L72.2731 73.228L71.4371 74.075V76H70.4471V68.102H71.4371ZM77.8624 74.372L78.6874 73.712C79.1824 74.658 80.0734 75.208 81.0964 75.208C82.1194 75.208 82.9114 74.702 82.9114 73.8C82.9114 72.843 81.9984 72.678 80.7994 72.392C79.5564 72.095 78.3244 71.754 78.3244 70.269C78.3244 68.883 79.5234 67.981 81.0194 67.981C82.3944 67.981 83.3844 68.641 83.8574 69.532L83.0544 70.17C82.6474 69.411 82.0204 68.894 80.9974 68.894C80.0404 68.894 79.3474 69.422 79.3474 70.181C79.3474 71.017 80.0844 71.193 81.1954 71.457C82.5044 71.765 83.9454 72.04 83.9454 73.712C83.9454 75.186 82.6364 76.121 81.0744 76.121C79.7104 76.121 78.4014 75.439 77.8624 74.372ZM87.4844 76.121C85.8894 76.121 84.7894 74.9 84.7894 73.129C84.7894 71.413 85.8784 70.137 87.4404 70.137C89.0464 70.137 89.8934 71.358 89.8934 72.953V73.283H85.7354C85.7904 74.493 86.4834 75.263 87.4844 75.263C88.2544 75.263 88.8044 74.845 88.9804 74.163L89.8494 74.471C89.4974 75.494 88.6284 76.121 87.4844 76.121ZM87.4294 70.984C86.5934 70.984 85.9664 71.545 85.7904 72.524H88.8924C88.8704 71.71 88.4304 70.984 87.4294 70.984ZM91.2798 74.625V71.094H90.3888V70.247H91.2798V68.564H92.2588V70.247H93.5678V71.094H92.2588V74.471C92.2588 75.076 92.5558 75.186 93.0618 75.186C93.2928 75.186 93.4578 75.175 93.6888 75.12V75.967C93.4358 76.022 93.1498 76.055 92.8198 76.055C91.8408 76.055 91.2798 75.725 91.2798 74.625ZM95.0181 74.625V71.094H94.1271V70.247H95.0181V68.564H95.9971V70.247H97.3061V71.094H95.9971V74.471C95.9971 75.076 96.2941 75.186 96.8001 75.186C97.0311 75.186 97.1961 75.175 97.4271 75.12V75.967C97.1741 76.022 96.8881 76.055 96.5581 76.055C95.5791 76.055 95.0181 75.725 95.0181 74.625ZM99.5923 68.102V76H98.6023V68.102H99.5923ZM103.544 76.121C101.949 76.121 100.849 74.9 100.849 73.129C100.849 71.413 101.938 70.137 103.5 70.137C105.106 70.137 105.953 71.358 105.953 72.953V73.283H101.795C101.85 74.493 102.543 75.263 103.544 75.263C104.314 75.263 104.864 74.845 105.04 74.163L105.909 74.471C105.557 75.494 104.688 76.121 103.544 76.121ZM103.489 70.984C102.653 70.984 102.026 71.545 101.85 72.524H104.952C104.93 71.71 104.49 70.984 103.489 70.984ZM108.175 72.557V76H107.185V70.247H108.175V71.028C108.483 70.555 109.033 70.137 109.836 70.137C110.606 70.137 111.145 70.522 111.431 71.116C111.75 70.643 112.366 70.137 113.268 70.137C114.456 70.137 115.171 70.984 115.171 72.205V76H114.181V72.469C114.181 71.666 113.851 71.061 113.037 71.061C112.377 71.061 111.673 71.622 111.673 72.557V76H110.683V72.469C110.683 71.666 110.353 71.061 109.539 71.061C108.879 71.061 108.175 71.622 108.175 72.557ZM119.066 76.121C117.471 76.121 116.371 74.9 116.371 73.129C116.371 71.413 117.46 70.137 119.022 70.137C120.628 70.137 121.475 71.358 121.475 72.953V73.283H117.317C117.372 74.493 118.065 75.263 119.066 75.263C119.836 75.263 120.386 74.845 120.562 74.163L121.431 74.471C121.079 75.494 120.21 76.121 119.066 76.121ZM119.011 70.984C118.175 70.984 117.548 71.545 117.372 72.524H120.474C120.452 71.71 120.012 70.984 119.011 70.984ZM122.708 76V70.247H123.698V71.028C124.028 70.555 124.6 70.137 125.414 70.137C126.635 70.137 127.328 70.984 127.328 72.205V76H126.338V72.469C126.338 71.666 125.997 71.061 125.139 71.061C124.424 71.061 123.698 71.611 123.698 72.568V76H122.708ZM129.071 74.625V71.094H128.18V70.247H129.071V68.564H130.05V70.247H131.359V71.094H130.05V74.471C130.05 75.076 130.347 75.186 130.853 75.186C131.084 75.186 131.249 75.175 131.48 75.12V75.967C131.227 76.022 130.941 76.055 130.611 76.055C129.632 76.055 129.071 75.725 129.071 74.625ZM134.194 74.372L135.019 73.712C135.514 74.658 136.405 75.208 137.428 75.208C138.451 75.208 139.243 74.702 139.243 73.8C139.243 72.843 138.33 72.678 137.131 72.392C135.888 72.095 134.656 71.754 134.656 70.269C134.656 68.883 135.855 67.981 137.351 67.981C138.726 67.981 139.716 68.641 140.189 69.532L139.386 70.17C138.979 69.411 138.352 68.894 137.329 68.894C136.372 68.894 135.679 69.422 135.679 70.181C135.679 71.017 136.416 71.193 137.527 71.457C138.836 71.765 140.277 72.04 140.277 73.712C140.277 75.186 138.968 76.121 137.406 76.121C136.042 76.121 134.733 75.439 134.194 74.372ZM143.501 76.627C143.171 77.496 142.72 78.046 141.719 78.046C141.477 78.046 141.356 78.035 141.18 78.002V77.144C141.367 77.188 141.488 77.199 141.653 77.199C142.082 77.199 142.313 77.045 142.544 76.473L142.819 75.791L140.685 70.247H141.73L143.347 74.647L144.942 70.247H145.976L143.501 76.627ZM146.165 74.779L146.935 74.218C147.243 74.889 147.947 75.296 148.695 75.296C149.366 75.296 149.96 75.01 149.96 74.383C149.96 73.756 149.41 73.668 148.464 73.47C147.518 73.261 146.528 73.052 146.528 71.875C146.528 70.852 147.419 70.137 148.64 70.137C149.674 70.137 150.521 70.643 150.862 71.325L150.158 71.886C149.861 71.314 149.322 70.951 148.596 70.951C147.936 70.951 147.496 71.281 147.496 71.798C147.496 72.337 148.002 72.436 148.805 72.612C149.795 72.843 150.928 73.041 150.928 74.295C150.928 75.395 149.927 76.121 148.695 76.121C147.65 76.121 146.605 75.67 146.165 74.779ZM152.306 74.625V71.094H151.415V70.247H152.306V68.564H153.285V70.247H154.594V71.094H153.285V74.471C153.285 75.076 153.582 75.186 154.088 75.186C154.319 75.186 154.484 75.175 154.715 75.12V75.967C154.462 76.022 154.176 76.055 153.846 76.055C152.867 76.055 152.306 75.725 152.306 74.625ZM158.157 76.121C156.562 76.121 155.462 74.9 155.462 73.129C155.462 71.413 156.551 70.137 158.113 70.137C159.719 70.137 160.566 71.358 160.566 72.953V73.283H156.408C156.463 74.493 157.156 75.263 158.157 75.263C158.927 75.263 159.477 74.845 159.653 74.163L160.522 74.471C160.17 75.494 159.301 76.121 158.157 76.121ZM158.102 70.984C157.266 70.984 156.639 71.545 156.463 72.524H159.565C159.543 71.71 159.103 70.984 158.102 70.984ZM162.789 72.557V76H161.799V70.247H162.789V71.028C163.097 70.555 163.647 70.137 164.45 70.137C165.22 70.137 165.759 70.522 166.045 71.116C166.364 70.643 166.98 70.137 167.882 70.137C169.07 70.137 169.785 70.984 169.785 72.205V76H168.795V72.469C168.795 71.666 168.465 71.061 167.651 71.061C166.991 71.061 166.287 71.622 166.287 72.557V76H165.297V72.469C165.297 71.666 164.967 71.061 164.153 71.061C163.493 71.061 162.789 71.622 162.789 72.557ZM173.416 72.986C173.416 73.5727 173.357 74.1483 173.24 74.713C173.13 75.2777 172.954 75.813 172.712 76.319C172.477 76.8323 172.173 77.3053 171.799 77.738H170.897C171.234 77.276 171.516 76.7847 171.744 76.264C171.971 75.7507 172.143 75.2153 172.261 74.658C172.378 74.1007 172.437 73.5397 172.437 72.975C172.437 72.3957 172.378 71.8237 172.261 71.259C172.143 70.6943 171.971 70.148 171.744 69.62C171.516 69.092 171.23 68.6007 170.886 68.146H171.799C172.173 68.586 172.477 69.0663 172.712 69.587C172.954 70.1077 173.13 70.654 173.24 71.226C173.357 71.798 173.416 72.3847 173.416 72.986ZM27.333 84.003V84.883C27.168 84.861 27.069 84.861 26.904 84.861C26.321 84.861 26.002 85.114 26.002 85.851V86.247H27.278V87.094H26.002V92H25.012V87.094H24.143V86.247H25.012V85.785C25.012 84.663 25.628 83.981 26.805 83.981C27.003 83.981 27.113 83.992 27.333 84.003ZM33.1158 89.129C33.1158 90.911 32.0158 92.121 30.4428 92.121C28.8698 92.121 27.7698 90.911 27.7698 89.129C27.7698 87.347 28.8698 86.137 30.4428 86.137C32.0158 86.137 33.1158 87.347 33.1158 89.129ZM28.7708 89.129C28.7708 90.438 29.4308 91.274 30.4428 91.274C31.4548 91.274 32.1148 90.438 32.1148 89.129C32.1148 87.809 31.4548 86.973 30.4428 86.973C29.4308 86.973 28.7708 87.809 28.7708 89.129ZM37.3558 86.225V87.226C37.1908 87.193 37.0588 87.182 36.8718 87.182C36.0358 87.182 35.3648 87.842 35.3648 88.854V92H34.3748V86.247H35.3648V87.226C35.6178 86.643 36.1788 86.203 36.9598 86.203C37.1138 86.203 37.2568 86.214 37.3558 86.225ZM41.8664 88.689V92H40.8104V84.102H43.8244C45.4964 84.102 46.5634 84.883 46.5634 86.39C46.5634 87.875 45.4964 88.689 43.8244 88.689H41.8664ZM41.8664 87.776H43.7694C44.8914 87.776 45.5184 87.281 45.5184 86.39C45.5184 85.499 44.8914 85.015 43.7694 85.015H41.8664V87.776ZM48.8783 92.099C47.8333 92.099 46.9863 91.483 46.9863 90.449C46.9863 89.305 47.8773 88.832 49.1643 88.568L50.5613 88.282V88.04C50.5613 87.38 50.1983 87.006 49.4283 87.006C48.7023 87.006 48.2733 87.347 48.0973 87.985L47.1623 87.743C47.4373 86.808 48.2843 86.137 49.4613 86.137C50.7483 86.137 51.5403 86.764 51.5403 87.996V90.801C51.5403 91.175 51.7713 91.296 52.1563 91.208V92C51.2763 92.11 50.7703 91.901 50.6493 91.351C50.2973 91.802 49.6593 92.099 48.8783 92.099ZM50.5613 90.042V89.052L49.4393 89.294C48.5593 89.47 47.9653 89.712 47.9653 90.405C47.9653 90.966 48.3723 91.296 48.9993 91.296C49.8463 91.296 50.5613 90.779 50.5613 90.042ZM55.2969 92.627C54.9669 93.496 54.5159 94.046 53.5149 94.046C53.2729 94.046 53.1519 94.035 52.9759 94.002V93.144C53.1629 93.188 53.2839 93.199 53.4489 93.199C53.8779 93.199 54.1089 93.045 54.3399 92.473L54.6149 91.791L52.4809 86.247H53.5259L55.1429 90.647L56.7379 86.247H57.7719L55.2969 92.627ZM59.7281 88.557V92H58.7381V86.247H59.7281V87.028C60.0361 86.555 60.5861 86.137 61.3891 86.137C62.1591 86.137 62.6981 86.522 62.9841 87.116C63.3031 86.643 63.9191 86.137 64.8211 86.137C66.0091 86.137 66.7241 86.984 66.7241 88.205V92H65.7341V88.469C65.7341 87.666 65.4041 87.061 64.5901 87.061C63.9301 87.061 63.2261 87.622 63.2261 88.557V92H62.2361V88.469C62.2361 87.666 61.9061 87.061 61.0921 87.061C60.4321 87.061 59.7281 87.622 59.7281 88.557ZM70.6191 92.121C69.0241 92.121 67.9241 90.9 67.9241 89.129C67.9241 87.413 69.0131 86.137 70.5751 86.137C72.1811 86.137 73.0281 87.358 73.0281 88.953V89.283H68.8701C68.9251 90.493 69.6181 91.263 70.6191 91.263C71.3891 91.263 71.9391 90.845 72.1151 90.163L72.9841 90.471C72.6321 91.494 71.7631 92.121 70.6191 92.121ZM70.5641 86.984C69.7281 86.984 69.1011 87.545 68.9251 88.524H72.0271C72.0051 87.71 71.5651 86.984 70.5641 86.984ZM74.2605 92V86.247H75.2505V87.028C75.5805 86.555 76.1525 86.137 76.9665 86.137C78.1875 86.137 78.8805 86.984 78.8805 88.205V92H77.8905V88.469C77.8905 87.666 77.5495 87.061 76.6915 87.061C75.9765 87.061 75.2505 87.611 75.2505 88.568V92H74.2605ZM80.6235 90.625V87.094H79.7325V86.247H80.6235V84.564H81.6025V86.247H82.9115V87.094H81.6025V90.471C81.6025 91.076 81.8995 91.186 82.4055 91.186C82.6365 91.186 82.8015 91.175 83.0325 91.12V91.967C82.7795 92.022 82.4935 92.055 82.1635 92.055C81.1845 92.055 80.6235 91.725 80.6235 90.625ZM89.3001 92.121C88.4971 92.121 87.8591 91.736 87.5181 91.164V93.98H86.5281V86.247H87.5181V87.083C87.8591 86.522 88.4971 86.137 89.3001 86.137C90.8951 86.137 91.8081 87.49 91.8081 89.129C91.8081 90.757 90.8951 92.121 89.3001 92.121ZM87.4961 88.931V89.338C87.4961 90.658 88.3101 91.252 89.1241 91.252C90.2021 91.252 90.8071 90.361 90.8071 89.129C90.8071 87.886 90.2021 87.006 89.1241 87.006C88.3101 87.006 87.4961 87.589 87.4961 88.931ZM96.0404 86.225V87.226C95.8754 87.193 95.7434 87.182 95.5564 87.182C94.7204 87.182 94.0494 87.842 94.0494 88.854V92H93.0594V86.247H94.0494V87.226C94.3024 86.643 94.8634 86.203 95.6444 86.203C95.7984 86.203 95.9414 86.214 96.0404 86.225ZM101.844 89.129C101.844 90.911 100.744 92.121 99.1713 92.121C97.5983 92.121 96.4983 90.911 96.4983 89.129C96.4983 87.347 97.5983 86.137 99.1713 86.137C100.744 86.137 101.844 87.347 101.844 89.129ZM97.4993 89.129C97.4993 90.438 98.1593 91.274 99.1713 91.274C100.183 91.274 100.843 90.438 100.843 89.129C100.843 87.809 100.183 86.973 99.1713 86.973C98.1593 86.973 97.4993 87.809 97.4993 89.129ZM103.697 89.129C103.697 90.438 104.401 91.252 105.424 91.252C106.216 91.252 106.689 90.746 106.854 90.031L107.734 90.438C107.459 91.395 106.623 92.121 105.424 92.121C103.818 92.121 102.707 90.9 102.707 89.129C102.707 87.347 103.818 86.137 105.424 86.137C106.623 86.137 107.437 86.83 107.712 87.787L106.854 88.216C106.689 87.512 106.216 86.995 105.424 86.995C104.401 86.995 103.697 87.809 103.697 89.129ZM111.117 92.121C109.522 92.121 108.422 90.9 108.422 89.129C108.422 87.413 109.511 86.137 111.073 86.137C112.679 86.137 113.526 87.358 113.526 88.953V89.283H109.368C109.423 90.493 110.116 91.263 111.117 91.263C111.887 91.263 112.437 90.845 112.613 90.163L113.482 90.471C113.13 91.494 112.261 92.121 111.117 92.121ZM111.062 86.984C110.226 86.984 109.599 87.545 109.423 88.524H112.525C112.503 87.71 112.063 86.984 111.062 86.984ZM114.121 90.779L114.891 90.218C115.199 90.889 115.903 91.296 116.651 91.296C117.322 91.296 117.916 91.01 117.916 90.383C117.916 89.756 117.366 89.668 116.42 89.47C115.474 89.261 114.484 89.052 114.484 87.875C114.484 86.852 115.375 86.137 116.596 86.137C117.63 86.137 118.477 86.643 118.818 87.325L118.114 87.886C117.817 87.314 117.278 86.951 116.552 86.951C115.892 86.951 115.452 87.281 115.452 87.798C115.452 88.337 115.958 88.436 116.761 88.612C117.751 88.843 118.884 89.041 118.884 90.295C118.884 91.395 117.883 92.121 116.651 92.121C115.606 92.121 114.561 91.67 114.121 90.779ZM119.47 90.779L120.24 90.218C120.548 90.889 121.252 91.296 122 91.296C122.671 91.296 123.265 91.01 123.265 90.383C123.265 89.756 122.715 89.668 121.769 89.47C120.823 89.261 119.833 89.052 119.833 87.875C119.833 86.852 120.724 86.137 121.945 86.137C122.979 86.137 123.826 86.643 124.167 87.325L123.463 87.886C123.166 87.314 122.627 86.951 121.901 86.951C121.241 86.951 120.801 87.281 120.801 87.798C120.801 88.337 121.307 88.436 122.11 88.612C123.1 88.843 124.233 89.041 124.233 90.295C124.233 91.395 123.232 92.121 122 92.121C120.955 92.121 119.91 91.67 119.47 90.779ZM125.414 85.246V84.102H126.492V85.246H125.414ZM126.448 86.247V92H125.458V86.247H126.448ZM128.1 92V86.247H129.09V87.028C129.42 86.555 129.992 86.137 130.806 86.137C132.027 86.137 132.72 86.984 132.72 88.205V92H131.73V88.469C131.73 87.666 131.389 87.061 130.531 87.061C129.816 87.061 129.09 87.611 129.09 88.568V92H128.1ZM139.182 91.483C139.182 93.166 138.071 94.101 136.509 94.101C135.244 94.101 134.32 93.518 134.001 92.462L134.925 92.11C135.112 92.847 135.706 93.276 136.509 93.276C137.521 93.276 138.192 92.759 138.192 91.56V90.911C137.884 91.472 137.235 91.868 136.432 91.868C134.859 91.868 133.935 90.57 133.935 88.997C133.935 87.435 134.859 86.137 136.432 86.137C137.224 86.137 137.884 86.533 138.192 87.094V86.247H139.182V91.483ZM138.203 88.909C138.203 87.622 137.433 87.006 136.608 87.006C135.563 87.006 134.925 87.787 134.925 88.997C134.925 90.207 135.563 90.999 136.608 90.999C137.433 90.999 138.203 90.383 138.203 89.118V88.909Z" fill="white"/>
<rect x="12" y="55" width="4" height="4" fill="white"/>
<rect x="83.5" y="4.5" width="39" height="39" rx="19.5" fill="white"/>
<rect x="83.5" y="4.5" width="39" height="39" rx="19.5" stroke="#FF4C7B"/>
<mask id="path-6-inside-1_3183_29865" fill="white">
<path d="M115.975 24.2258L113.131 16.2625C113.096 16.1632 113.025 16.0826 112.935 16.038C112.845 15.9934 112.742 15.9882 112.649 16.0236L109.652 17.1692C109.604 17.1877 109.56 17.2164 109.523 17.2535C109.485 17.2906 109.455 17.3355 109.434 17.3854C109.413 17.4353 109.401 17.4892 109.4 17.544C109.398 17.5987 109.407 17.6532 109.426 17.7042L109.687 18.4117L107.642 19.4523L104.286 18.7769C103.96 18.7114 103.624 18.7189 103.3 18.7989C102.976 18.8789 102.671 19.0296 102.403 19.2417L101.804 19.7184L101.407 19.412C101.107 19.182 100.762 19.0282 100.399 18.9622C100.035 18.8961 99.6625 18.9197 99.3088 19.0311L98.021 19.442L96.334 18.3611L96.5762 17.7048C96.5949 17.6538 96.6039 17.5993 96.6026 17.5445C96.6013 17.4897 96.5897 17.4358 96.5686 17.3859C96.5475 17.336 96.5172 17.2912 96.4796 17.2541C96.442 17.2169 96.3979 17.1883 96.3498 17.1698L93.3516 16.0236C93.2579 15.9879 93.1548 15.9929 93.0645 16.0375C92.9741 16.0822 92.9037 16.1629 92.8682 16.2625L90.0254 24.2258C89.9902 24.3239 89.9916 24.4327 90.0295 24.5297C90.0673 24.6266 90.1386 24.7042 90.2285 24.7461L93.0723 26.0594C93.1192 26.081 93.1696 26.0924 93.2206 26.0928C93.2717 26.0932 93.3222 26.0826 93.3694 26.0616C93.4165 26.0407 93.4592 26.0098 93.495 25.9708C93.5308 25.9318 93.5588 25.8855 93.5776 25.8346L93.864 25.058L96.2213 26.4817C96.0624 26.7289 95.9893 27.0278 96.0145 27.3267C96.0397 27.6256 96.1617 27.9056 96.3594 28.1182C96.4706 28.2374 96.6027 28.3319 96.748 28.3963C96.8934 28.4606 97.0492 28.4936 97.2064 28.4932H97.2364C97.2631 28.8125 97.4004 29.1095 97.6213 29.3257C97.8422 29.5419 98.1306 29.6616 98.4298 29.6611H98.4607C98.4849 29.9612 98.6072 30.2424 98.8061 30.4552C98.9172 30.5744 99.0493 30.6689 99.1947 30.7332C99.34 30.7976 99.4958 30.8305 99.6531 30.8302H99.6831C99.7032 31.0734 99.7877 31.3054 99.9266 31.499C100.066 31.6926 100.253 31.8397 100.467 31.923C100.681 32.0063 100.913 32.0224 101.136 31.9694C101.358 31.9164 101.562 31.7964 101.723 31.6237L102.175 31.1393L102.788 31.6291C103.047 31.8363 103.368 31.9361 103.691 31.9101C104.013 31.8841 104.316 31.7341 104.544 31.4876L104.587 31.4408C104.779 31.2305 104.907 30.9621 104.953 30.6718C105.182 30.7411 105.424 30.7438 105.654 30.6797C105.885 30.6155 106.095 30.4867 106.264 30.3066L106.295 30.2729C106.509 30.0443 106.644 29.7448 106.678 29.4233C106.909 29.497 107.154 29.5023 107.388 29.4386C107.621 29.3748 107.834 29.2445 108.004 29.0614L108.025 29.0385C108.234 28.8172 108.367 28.5279 108.405 28.2162C108.611 28.2687 108.825 28.2684 109.031 28.2151C109.236 28.1619 109.427 28.0573 109.587 27.9098C109.748 27.7624 109.873 27.5764 109.954 27.3669C110.034 27.1575 110.067 26.9306 110.05 26.7048C110.043 26.6173 110.029 26.5306 110.008 26.4458L112.222 25.2844L112.425 25.833C112.443 25.8839 112.471 25.9303 112.507 25.9694C112.543 26.0085 112.586 26.0395 112.633 26.0605C112.68 26.0814 112.731 26.092 112.782 26.0915C112.833 26.0911 112.883 26.0796 112.93 26.0577L115.774 24.7445C115.863 24.7021 115.933 24.6247 115.971 24.5282C116.008 24.4317 116.01 24.3234 115.975 24.2258ZM93.0129 25.1434L90.8674 24.1518L93.4456 16.927L94.0778 17.1681L92.859 20.8809C92.8254 20.9831 92.831 21.0955 92.8746 21.1932C92.9182 21.291 92.9963 21.3662 93.0916 21.4023C93.187 21.4384 93.2918 21.4324 93.383 21.3857C93.4743 21.3389 93.5444 21.2552 93.5781 21.1531L94.7938 17.4441L95.7206 17.7984L93.0129 25.1434ZM97.5157 27.5408C97.4335 27.6254 97.3236 27.6721 97.2096 27.671C97.0956 27.6699 96.9866 27.621 96.9058 27.5348C96.825 27.4486 96.779 27.3319 96.7774 27.2097C96.7759 27.0876 96.8191 26.9696 96.8977 26.8812L97.7102 26.0104C97.7713 25.9451 97.8491 25.9007 97.9337 25.8828C98.0183 25.8649 98.106 25.8742 98.1856 25.9096C98.2653 25.945 98.3334 26.0048 98.3814 26.0817C98.4294 26.1585 98.455 26.2488 98.4552 26.3413C98.4554 26.4027 98.4441 26.4635 98.4222 26.5202C98.4002 26.577 98.3679 26.6284 98.3272 26.6716L97.5157 27.5408ZM98.8066 28.638C98.7837 28.6619 98.7634 28.6875 98.7431 28.7131L98.739 28.7082C98.6989 28.7532 98.6508 28.7892 98.5975 28.814C98.5442 28.8389 98.4868 28.852 98.4287 28.8527C98.3706 28.8535 98.3129 28.8418 98.2591 28.8183C98.2053 28.7948 98.1564 28.76 98.1152 28.716C98.0741 28.672 98.0417 28.6196 98.0197 28.5619C97.9977 28.5043 97.9868 28.4425 97.9874 28.3802C97.988 28.3179 98.0003 28.2564 98.0234 28.1993C98.0465 28.1421 98.08 28.0905 98.122 28.0475L98.8675 27.2491C98.8898 27.2251 98.9112 27.2001 98.9315 27.1745L98.935 27.1783C99.0174 27.0939 99.1273 27.0473 99.2413 27.0487C99.3553 27.05 99.4643 27.0991 99.5449 27.1854C99.6255 27.2718 99.6714 27.3885 99.6728 27.5107C99.6741 27.6328 99.6308 27.7507 99.552 27.839L98.8066 28.638ZM99.9603 29.8745C99.8773 29.9544 99.7689 29.9971 99.6573 29.9939C99.5458 29.9908 99.4397 29.9419 99.3607 29.8575C99.2817 29.773 99.236 29.6593 99.2329 29.5398C99.2297 29.4202 99.2694 29.304 99.3438 29.2149L100.156 28.3441C100.196 28.2962 100.244 28.2575 100.298 28.2304C100.352 28.2033 100.41 28.1882 100.47 28.1862C100.529 28.1842 100.588 28.1953 100.644 28.2188C100.699 28.2423 100.75 28.2777 100.792 28.3228C100.834 28.3679 100.867 28.4218 100.889 28.4811C100.911 28.5404 100.921 28.6039 100.919 28.6677C100.918 28.7315 100.904 28.7942 100.878 28.852C100.853 28.9098 100.817 28.9614 100.772 29.0037L99.9603 29.8745ZM101.996 30.1716L101.183 31.0424C101.101 31.1269 100.991 31.1734 100.877 31.1721C100.763 31.1707 100.654 31.1216 100.573 31.0353C100.493 30.949 100.447 30.8322 100.445 30.7101C100.444 30.5879 100.487 30.47 100.566 30.3817L101.312 29.5833C101.334 29.5594 101.355 29.5343 101.376 29.5087L101.379 29.5126C101.462 29.4281 101.571 29.3816 101.685 29.3829C101.799 29.3842 101.908 29.4333 101.989 29.5197C102.07 29.606 102.116 29.7227 102.117 29.8449C102.118 29.9671 102.075 30.0849 101.996 30.1733L101.996 30.1716ZM109.123 27.2545C109.022 27.3642 108.886 27.429 108.742 27.436C108.598 27.4429 108.457 27.3915 108.347 27.2921L108.05 27.027C108.03 26.9947 108.005 26.9657 107.976 26.941L107.291 26.3511C107.212 26.2875 107.113 26.2593 107.015 26.2723C106.917 26.2854 106.828 26.3388 106.766 26.4212C106.704 26.5036 106.674 26.6085 106.683 26.714C106.692 26.8194 106.739 26.917 106.813 26.9862L107.404 27.4972C107.421 27.5216 107.44 27.544 107.46 27.5642C107.519 27.6199 107.566 27.6879 107.6 27.764C107.633 27.8401 107.651 27.9227 107.654 28.0068C107.656 28.0908 107.642 28.1744 107.614 28.2525C107.585 28.3307 107.541 28.4016 107.486 28.4611L107.464 28.4839C107.368 28.5876 107.24 28.6511 107.104 28.6631C106.968 28.6751 106.833 28.6347 106.722 28.5492L106.133 28.0975L106.127 28.0926L105.905 27.9223C105.823 27.8593 105.721 27.8338 105.621 27.8515C105.521 27.8693 105.432 27.9287 105.373 28.0167C105.315 28.1048 105.291 28.2142 105.307 28.321C105.324 28.4278 105.379 28.5233 105.461 28.5863L105.688 28.7599C105.755 28.8124 105.811 28.8798 105.852 28.9577C105.892 29.0355 105.916 29.1218 105.923 29.2107C105.929 29.2996 105.918 29.3889 105.889 29.4725C105.86 29.556 105.814 29.6319 105.756 29.6949L105.724 29.7286C105.62 29.8395 105.481 29.904 105.335 29.909C105.188 29.9139 105.046 29.859 104.936 29.7553L104.301 29.1566C104.265 29.1161 104.221 29.0841 104.172 29.0626C104.124 29.0411 104.071 29.0307 104.019 29.0318C103.966 29.033 103.915 29.0458 103.867 29.0695C103.819 29.0931 103.777 29.127 103.742 29.1692C103.707 29.2113 103.681 29.2607 103.665 29.3142C103.648 29.3678 103.643 29.4244 103.648 29.4804C103.653 29.5364 103.669 29.5907 103.695 29.6397C103.721 29.6888 103.755 29.7317 103.797 29.7656L104.013 29.9703C104.072 30.0257 104.12 30.0934 104.153 30.1692C104.187 30.245 104.205 30.3274 104.208 30.4112C104.211 30.4951 104.198 30.5787 104.169 30.6569C104.141 30.7351 104.098 30.8063 104.043 30.8661L104 30.9129C103.902 31.019 103.771 31.0836 103.633 31.0948C103.494 31.106 103.356 31.0631 103.244 30.9738L102.695 30.5352C102.811 30.3412 102.876 30.1173 102.884 29.887C102.891 29.6568 102.841 29.4287 102.737 29.2266C102.634 29.0245 102.482 28.8559 102.297 28.7384C102.112 28.621 101.901 28.559 101.686 28.559H101.656C101.63 28.2398 101.492 27.9429 101.272 27.7266C101.051 27.5104 100.763 27.3905 100.464 27.3906H100.433C100.405 27.0667 100.263 26.7662 100.036 26.5503C99.8093 26.3343 99.5142 26.2191 99.2108 26.2281C99.1869 25.928 99.0643 25.6468 98.865 25.4346C98.6402 25.1941 98.3355 25.059 98.0179 25.059C97.7003 25.059 97.3957 25.1941 97.1709 25.4346L96.7611 25.8732L94.1458 24.2949L96.0491 19.1334L97.7727 20.2376C97.818 20.2667 97.8685 20.2854 97.921 20.2924C97.9734 20.2994 98.0267 20.2947 98.0773 20.2785L99.5256 19.8164C99.7676 19.74 100.023 19.7237 100.271 19.7687C100.52 19.8136 100.756 19.9187 100.961 20.076L101.161 20.2306L99.1255 21.8497C98.9744 21.9699 98.8516 22.1261 98.7666 22.306C98.6817 22.4859 98.637 22.6846 98.6361 22.8862C98.6352 23.0878 98.6781 23.2869 98.7615 23.4676C98.8449 23.6484 98.9663 23.8059 99.1163 23.9276C99.3992 24.1552 99.7397 24.2859 100.093 24.3025C100.447 24.3191 100.796 24.2209 101.097 24.0206L102.695 22.9425C102.881 23.3398 103.229 23.8797 103.832 24.2122C104.531 24.5975 105.381 24.6073 106.361 24.2416L109.053 26.319C109.12 26.3713 109.177 26.4387 109.218 26.5166C109.258 26.5945 109.283 26.681 109.29 26.7701C109.297 26.8592 109.285 26.9488 109.256 27.0327C109.228 27.1166 109.182 27.1929 109.123 27.2561V27.2545ZM109.613 25.7437L106.643 23.4525C106.591 23.4128 106.531 23.3875 106.468 23.379C106.405 23.3704 106.341 23.3788 106.282 23.4035C105.434 23.7561 104.73 23.7844 104.187 23.49C103.469 23.0987 103.249 22.2432 103.247 22.2383C103.233 22.176 103.204 22.1184 103.165 22.07C103.125 22.0217 103.076 21.9841 103.02 21.9602C102.964 21.9364 102.904 21.9269 102.844 21.9327C102.785 21.9384 102.727 21.9592 102.676 21.9934L100.692 23.3273C100.522 23.4402 100.325 23.4955 100.125 23.4857C99.9257 23.476 99.7337 23.4018 99.5744 23.2729C99.5187 23.2278 99.4736 23.1694 99.4426 23.1023C99.4116 23.0353 99.3957 22.9614 99.396 22.8866C99.3964 22.8118 99.413 22.7381 99.4446 22.6714C99.4762 22.6046 99.5218 22.5467 99.5779 22.5022L102.855 19.8953C103.038 19.7503 103.247 19.6472 103.469 19.5925C103.69 19.5378 103.92 19.5327 104.144 19.5775L107.621 20.2774C107.7 20.2936 107.782 20.2824 107.855 20.2453L109.965 19.1709L111.939 24.5241L109.613 25.7437ZM112.987 25.1418L110.278 17.7946L111.205 17.4403L112.421 21.1492C112.454 21.2514 112.524 21.3351 112.616 21.3819C112.707 21.4286 112.812 21.4346 112.907 21.3985C113.002 21.3624 113.08 21.2872 113.124 21.1894C113.168 21.0917 113.173 20.9793 113.14 20.8771L111.921 17.1643L112.553 16.9232L115.131 24.148L112.987 25.1418Z"/>
</mask>
<path d="M115.975 24.2258L113.131 16.2625C113.096 16.1632 113.025 16.0826 112.935 16.038C112.845 15.9934 112.742 15.9882 112.649 16.0236L109.652 17.1692C109.604 17.1877 109.56 17.2164 109.523 17.2535C109.485 17.2906 109.455 17.3355 109.434 17.3854C109.413 17.4353 109.401 17.4892 109.4 17.544C109.398 17.5987 109.407 17.6532 109.426 17.7042L109.687 18.4117L107.642 19.4523L104.286 18.7769C103.96 18.7114 103.624 18.7189 103.3 18.7989C102.976 18.8789 102.671 19.0296 102.403 19.2417L101.804 19.7184L101.407 19.412C101.107 19.182 100.762 19.0282 100.399 18.9622C100.035 18.8961 99.6625 18.9197 99.3088 19.0311L98.021 19.442L96.334 18.3611L96.5762 17.7048C96.5949 17.6538 96.6039 17.5993 96.6026 17.5445C96.6013 17.4897 96.5897 17.4358 96.5686 17.3859C96.5475 17.336 96.5172 17.2912 96.4796 17.2541C96.442 17.2169 96.3979 17.1883 96.3498 17.1698L93.3516 16.0236C93.2579 15.9879 93.1548 15.9929 93.0645 16.0375C92.9741 16.0822 92.9037 16.1629 92.8682 16.2625L90.0254 24.2258C89.9902 24.3239 89.9916 24.4327 90.0295 24.5297C90.0673 24.6266 90.1386 24.7042 90.2285 24.7461L93.0723 26.0594C93.1192 26.081 93.1696 26.0924 93.2206 26.0928C93.2717 26.0932 93.3222 26.0826 93.3694 26.0616C93.4165 26.0407 93.4592 26.0098 93.495 25.9708C93.5308 25.9318 93.5588 25.8855 93.5776 25.8346L93.864 25.058L96.2213 26.4817C96.0624 26.7289 95.9893 27.0278 96.0145 27.3267C96.0397 27.6256 96.1617 27.9056 96.3594 28.1182C96.4706 28.2374 96.6027 28.3319 96.748 28.3963C96.8934 28.4606 97.0492 28.4936 97.2064 28.4932H97.2364C97.2631 28.8125 97.4004 29.1095 97.6213 29.3257C97.8422 29.5419 98.1306 29.6616 98.4298 29.6611H98.4607C98.4849 29.9612 98.6072 30.2424 98.8061 30.4552C98.9172 30.5744 99.0493 30.6689 99.1947 30.7332C99.34 30.7976 99.4958 30.8305 99.6531 30.8302H99.6831C99.7032 31.0734 99.7877 31.3054 99.9266 31.499C100.066 31.6926 100.253 31.8397 100.467 31.923C100.681 32.0063 100.913 32.0224 101.136 31.9694C101.358 31.9164 101.562 31.7964 101.723 31.6237L102.175 31.1393L102.788 31.6291C103.047 31.8363 103.368 31.9361 103.691 31.9101C104.013 31.8841 104.316 31.7341 104.544 31.4876L104.587 31.4408C104.779 31.2305 104.907 30.9621 104.953 30.6718C105.182 30.7411 105.424 30.7438 105.654 30.6797C105.885 30.6155 106.095 30.4867 106.264 30.3066L106.295 30.2729C106.509 30.0443 106.644 29.7448 106.678 29.4233C106.909 29.497 107.154 29.5023 107.388 29.4386C107.621 29.3748 107.834 29.2445 108.004 29.0614L108.025 29.0385C108.234 28.8172 108.367 28.5279 108.405 28.2162C108.611 28.2687 108.825 28.2684 109.031 28.2151C109.236 28.1619 109.427 28.0573 109.587 27.9098C109.748 27.7624 109.873 27.5764 109.954 27.3669C110.034 27.1575 110.067 26.9306 110.05 26.7048C110.043 26.6173 110.029 26.5306 110.008 26.4458L112.222 25.2844L112.425 25.833C112.443 25.8839 112.471 25.9303 112.507 25.9694C112.543 26.0085 112.586 26.0395 112.633 26.0605C112.68 26.0814 112.731 26.092 112.782 26.0915C112.833 26.0911 112.883 26.0796 112.93 26.0577L115.774 24.7445C115.863 24.7021 115.933 24.6247 115.971 24.5282C116.008 24.4317 116.01 24.3234 115.975 24.2258ZM93.0129 25.1434L90.8674 24.1518L93.4456 16.927L94.0778 17.1681L92.859 20.8809C92.8254 20.9831 92.831 21.0955 92.8746 21.1932C92.9182 21.291 92.9963 21.3662 93.0916 21.4023C93.187 21.4384 93.2918 21.4324 93.383 21.3857C93.4743 21.3389 93.5444 21.2552 93.5781 21.1531L94.7938 17.4441L95.7206 17.7984L93.0129 25.1434ZM97.5157 27.5408C97.4335 27.6254 97.3236 27.6721 97.2096 27.671C97.0956 27.6699 96.9866 27.621 96.9058 27.5348C96.825 27.4486 96.779 27.3319 96.7774 27.2097C96.7759 27.0876 96.8191 26.9696 96.8977 26.8812L97.7102 26.0104C97.7713 25.9451 97.8491 25.9007 97.9337 25.8828C98.0183 25.8649 98.106 25.8742 98.1856 25.9096C98.2653 25.945 98.3334 26.0048 98.3814 26.0817C98.4294 26.1585 98.455 26.2488 98.4552 26.3413C98.4554 26.4027 98.4441 26.4635 98.4222 26.5202C98.4002 26.577 98.3679 26.6284 98.3272 26.6716L97.5157 27.5408ZM98.8066 28.638C98.7837 28.6619 98.7634 28.6875 98.7431 28.7131L98.739 28.7082C98.6989 28.7532 98.6508 28.7892 98.5975 28.814C98.5442 28.8389 98.4868 28.852 98.4287 28.8527C98.3706 28.8535 98.3129 28.8418 98.2591 28.8183C98.2053 28.7948 98.1564 28.76 98.1152 28.716C98.0741 28.672 98.0417 28.6196 98.0197 28.5619C97.9977 28.5043 97.9868 28.4425 97.9874 28.3802C97.988 28.3179 98.0003 28.2564 98.0234 28.1993C98.0465 28.1421 98.08 28.0905 98.122 28.0475L98.8675 27.2491C98.8898 27.2251 98.9112 27.2001 98.9315 27.1745L98.935 27.1783C99.0174 27.0939 99.1273 27.0473 99.2413 27.0487C99.3553 27.05 99.4643 27.0991 99.5449 27.1854C99.6255 27.2718 99.6714 27.3885 99.6728 27.5107C99.6741 27.6328 99.6308 27.7507 99.552 27.839L98.8066 28.638ZM99.9603 29.8745C99.8773 29.9544 99.7689 29.9971 99.6573 29.9939C99.5458 29.9908 99.4397 29.9419 99.3607 29.8575C99.2817 29.773 99.236 29.6593 99.2329 29.5398C99.2297 29.4202 99.2694 29.304 99.3438 29.2149L100.156 28.3441C100.196 28.2962 100.244 28.2575 100.298 28.2304C100.352 28.2033 100.41 28.1882 100.47 28.1862C100.529 28.1842 100.588 28.1953 100.644 28.2188C100.699 28.2423 100.75 28.2777 100.792 28.3228C100.834 28.3679 100.867 28.4218 100.889 28.4811C100.911 28.5404 100.921 28.6039 100.919 28.6677C100.918 28.7315 100.904 28.7942 100.878 28.852C100.853 28.9098 100.817 28.9614 100.772 29.0037L99.9603 29.8745ZM101.996 30.1716L101.183 31.0424C101.101 31.1269 100.991 31.1734 100.877 31.1721C100.763 31.1707 100.654 31.1216 100.573 31.0353C100.493 30.949 100.447 30.8322 100.445 30.7101C100.444 30.5879 100.487 30.47 100.566 30.3817L101.312 29.5833C101.334 29.5594 101.355 29.5343 101.376 29.5087L101.379 29.5126C101.462 29.4281 101.571 29.3816 101.685 29.3829C101.799 29.3842 101.908 29.4333 101.989 29.5197C102.07 29.606 102.116 29.7227 102.117 29.8449C102.118 29.9671 102.075 30.0849 101.996 30.1733L101.996 30.1716ZM109.123 27.2545C109.022 27.3642 108.886 27.429 108.742 27.436C108.598 27.4429 108.457 27.3915 108.347 27.2921L108.05 27.027C108.03 26.9947 108.005 26.9657 107.976 26.941L107.291 26.3511C107.212 26.2875 107.113 26.2593 107.015 26.2723C106.917 26.2854 106.828 26.3388 106.766 26.4212C106.704 26.5036 106.674 26.6085 106.683 26.714C106.692 26.8194 106.739 26.917 106.813 26.9862L107.404 27.4972C107.421 27.5216 107.44 27.544 107.46 27.5642C107.519 27.6199 107.566 27.6879 107.6 27.764C107.633 27.8401 107.651 27.9227 107.654 28.0068C107.656 28.0908 107.642 28.1744 107.614 28.2525C107.585 28.3307 107.541 28.4016 107.486 28.4611L107.464 28.4839C107.368 28.5876 107.24 28.6511 107.104 28.6631C106.968 28.6751 106.833 28.6347 106.722 28.5492L106.133 28.0975L106.127 28.0926L105.905 27.9223C105.823 27.8593 105.721 27.8338 105.621 27.8515C105.521 27.8693 105.432 27.9287 105.373 28.0167C105.315 28.1048 105.291 28.2142 105.307 28.321C105.324 28.4278 105.379 28.5233 105.461 28.5863L105.688 28.7599C105.755 28.8124 105.811 28.8798 105.852 28.9577C105.892 29.0355 105.916 29.1218 105.923 29.2107C105.929 29.2996 105.918 29.3889 105.889 29.4725C105.86 29.556 105.814 29.6319 105.756 29.6949L105.724 29.7286C105.62 29.8395 105.481 29.904 105.335 29.909C105.188 29.9139 105.046 29.859 104.936 29.7553L104.301 29.1566C104.265 29.1161 104.221 29.0841 104.172 29.0626C104.124 29.0411 104.071 29.0307 104.019 29.0318C103.966 29.033 103.915 29.0458 103.867 29.0695C103.819 29.0931 103.777 29.127 103.742 29.1692C103.707 29.2113 103.681 29.2607 103.665 29.3142C103.648 29.3678 103.643 29.4244 103.648 29.4804C103.653 29.5364 103.669 29.5907 103.695 29.6397C103.721 29.6888 103.755 29.7317 103.797 29.7656L104.013 29.9703C104.072 30.0257 104.12 30.0934 104.153 30.1692C104.187 30.245 104.205 30.3274 104.208 30.4112C104.211 30.4951 104.198 30.5787 104.169 30.6569C104.141 30.7351 104.098 30.8063 104.043 30.8661L104 30.9129C103.902 31.019 103.771 31.0836 103.633 31.0948C103.494 31.106 103.356 31.0631 103.244 30.9738L102.695 30.5352C102.811 30.3412 102.876 30.1173 102.884 29.887C102.891 29.6568 102.841 29.4287 102.737 29.2266C102.634 29.0245 102.482 28.8559 102.297 28.7384C102.112 28.621 101.901 28.559 101.686 28.559H101.656C101.63 28.2398 101.492 27.9429 101.272 27.7266C101.051 27.5104 100.763 27.3905 100.464 27.3906H100.433C100.405 27.0667 100.263 26.7662 100.036 26.5503C99.8093 26.3343 99.5142 26.2191 99.2108 26.2281C99.1869 25.928 99.0643 25.6468 98.865 25.4346C98.6402 25.1941 98.3355 25.059 98.0179 25.059C97.7003 25.059 97.3957 25.1941 97.1709 25.4346L96.7611 25.8732L94.1458 24.2949L96.0491 19.1334L97.7727 20.2376C97.818 20.2667 97.8685 20.2854 97.921 20.2924C97.9734 20.2994 98.0267 20.2947 98.0773 20.2785L99.5256 19.8164C99.7676 19.74 100.023 19.7237 100.271 19.7687C100.52 19.8136 100.756 19.9187 100.961 20.076L101.161 20.2306L99.1255 21.8497C98.9744 21.9699 98.8516 22.1261 98.7666 22.306C98.6817 22.4859 98.637 22.6846 98.6361 22.8862C98.6352 23.0878 98.6781 23.2869 98.7615 23.4676C98.8449 23.6484 98.9663 23.8059 99.1163 23.9276C99.3992 24.1552 99.7397 24.2859 100.093 24.3025C100.447 24.3191 100.796 24.2209 101.097 24.0206L102.695 22.9425C102.881 23.3398 103.229 23.8797 103.832 24.2122C104.531 24.5975 105.381 24.6073 106.361 24.2416L109.053 26.319C109.12 26.3713 109.177 26.4387 109.218 26.5166C109.258 26.5945 109.283 26.681 109.29 26.7701C109.297 26.8592 109.285 26.9488 109.256 27.0327C109.228 27.1166 109.182 27.1929 109.123 27.2561V27.2545ZM109.613 25.7437L106.643 23.4525C106.591 23.4128 106.531 23.3875 106.468 23.379C106.405 23.3704 106.341 23.3788 106.282 23.4035C105.434 23.7561 104.73 23.7844 104.187 23.49C103.469 23.0987 103.249 22.2432 103.247 22.2383C103.233 22.176 103.204 22.1184 103.165 22.07C103.125 22.0217 103.076 21.9841 103.02 21.9602C102.964 21.9364 102.904 21.9269 102.844 21.9327C102.785 21.9384 102.727 21.9592 102.676 21.9934L100.692 23.3273C100.522 23.4402 100.325 23.4955 100.125 23.4857C99.9257 23.476 99.7337 23.4018 99.5744 23.2729C99.5187 23.2278 99.4736 23.1694 99.4426 23.1023C99.4116 23.0353 99.3957 22.9614 99.396 22.8866C99.3964 22.8118 99.413 22.7381 99.4446 22.6714C99.4762 22.6046 99.5218 22.5467 99.5779 22.5022L102.855 19.8953C103.038 19.7503 103.247 19.6472 103.469 19.5925C103.69 19.5378 103.92 19.5327 104.144 19.5775L107.621 20.2774C107.7 20.2936 107.782 20.2824 107.855 20.2453L109.965 19.1709L111.939 24.5241L109.613 25.7437ZM112.987 25.1418L110.278 17.7946L111.205 17.4403L112.421 21.1492C112.454 21.2514 112.524 21.3351 112.616 21.3819C112.707 21.4286 112.812 21.4346 112.907 21.3985C113.002 21.3624 113.08 21.2872 113.124 21.1894C113.168 21.0917 113.173 20.9793 113.14 20.8771L111.921 17.1643L112.553 16.9232L115.131 24.148L112.987 25.1418Z" fill="#FF4C7B" stroke="#FF4C7B" stroke-width="3" mask="url(#path-6-inside-1_3183_29865)"/>
</svg>
