<svg width="206" height="151" viewBox="0 0 206 151" fill="none" xmlns="http://www.w3.org/2000/svg">
<rect y="24" width="206" height="68" rx="12" fill="#37CC00"/>
<path d="M25.869 60V52.102H28.377C30.775 52.102 32.293 53.642 32.293 56.051C32.293 58.46 30.775 60 28.377 60H25.869ZM26.903 59.087H28.377C30.17 59.087 31.259 57.888 31.259 56.051C31.259 54.203 30.17 53.015 28.366 53.015H26.903V59.087ZM35.8369 60.121C34.2419 60.121 33.1419 58.9 33.1419 57.129C33.1419 55.413 34.2309 54.137 35.7929 54.137C37.3989 54.137 38.2459 55.358 38.2459 56.953V57.283H34.0879C34.1429 58.493 34.8359 59.263 35.8369 59.263C36.6069 59.263 37.1569 58.845 37.3329 58.163L38.2019 58.471C37.8499 59.494 36.9809 60.121 35.8369 60.121ZM35.7819 54.984C34.9459 54.984 34.3189 55.545 34.1429 56.524H37.2449C37.2229 55.71 36.7829 54.984 35.7819 54.984ZM41.8239 60H40.8449L38.6889 54.247H39.7339L41.3509 58.79L42.9459 54.247H43.9799L41.8239 60ZM47.0947 60.121C45.4997 60.121 44.3997 58.9 44.3997 57.129C44.3997 55.413 45.4887 54.137 47.0507 54.137C48.6567 54.137 49.5037 55.358 49.5037 56.953V57.283H45.3457C45.4007 58.493 46.0937 59.263 47.0947 59.263C47.8647 59.263 48.4147 58.845 48.5907 58.163L49.4597 58.471C49.1077 59.494 48.2387 60.121 47.0947 60.121ZM47.0397 54.984C46.2037 54.984 45.5767 55.545 45.4007 56.524H48.5027C48.4807 55.71 48.0407 54.984 47.0397 54.984ZM51.7261 52.102V60H50.7361V52.102H51.7261ZM58.3287 57.129C58.3287 58.911 57.2287 60.121 55.6557 60.121C54.0827 60.121 52.9827 58.911 52.9827 57.129C52.9827 55.347 54.0827 54.137 55.6557 54.137C57.2287 54.137 58.3287 55.347 58.3287 57.129ZM53.9837 57.129C53.9837 58.438 54.6437 59.274 55.6557 59.274C56.6677 59.274 57.3277 58.438 57.3277 57.129C57.3277 55.809 56.6677 54.973 55.6557 54.973C54.6437 54.973 53.9837 55.809 53.9837 57.129ZM62.3597 60.121C61.5567 60.121 60.9187 59.736 60.5777 59.164V61.98H59.5877V54.247H60.5777V55.083C60.9187 54.522 61.5567 54.137 62.3597 54.137C63.9547 54.137 64.8677 55.49 64.8677 57.129C64.8677 58.757 63.9547 60.121 62.3597 60.121ZM60.5557 56.931V57.338C60.5557 58.658 61.3697 59.252 62.1837 59.252C63.2617 59.252 63.8667 58.361 63.8667 57.129C63.8667 55.886 63.2617 55.006 62.1837 55.006C61.3697 55.006 60.5557 55.589 60.5557 56.931ZM68.4179 60.121C66.8229 60.121 65.7229 58.9 65.7229 57.129C65.7229 55.413 66.8119 54.137 68.3739 54.137C69.9799 54.137 70.8269 55.358 70.8269 56.953V57.283H66.6689C66.7239 58.493 67.4169 59.263 68.4179 59.263C69.1879 59.263 69.7379 58.845 69.9139 58.163L70.7829 58.471C70.4309 59.494 69.5619 60.121 68.4179 60.121ZM68.3629 54.984C67.5269 54.984 66.8999 55.545 66.7239 56.524H69.8259C69.8039 55.71 69.3639 54.984 68.3629 54.984ZM74.1714 60.121C72.5764 60.121 71.6634 58.757 71.6634 57.129C71.6634 55.49 72.5764 54.137 74.1714 54.137C74.9744 54.137 75.6124 54.522 75.9534 55.083V52.102H76.9434V60H75.9534V59.164C75.6124 59.736 74.9744 60.121 74.1714 60.121ZM75.9754 56.931C75.9754 55.589 75.1614 55.006 74.3474 55.006C73.2694 55.006 72.6644 55.886 72.6644 57.129C72.6644 58.361 73.2694 59.252 74.3474 59.252C75.1614 59.252 75.9754 58.658 75.9754 57.338V56.931ZM84.6755 60H82.9815L80.0665 52.102H81.8045L83.8505 57.943L85.9075 52.102H87.5685L84.6755 60ZM89.9678 60.121C88.2628 60.121 87.0968 58.9 87.0968 57.107C87.0968 55.402 88.2738 54.104 89.9128 54.104C91.6288 54.104 92.5528 55.38 92.5528 56.997V57.448H88.5708C88.6808 58.328 89.2198 58.856 89.9788 58.856C90.5728 58.856 91.0458 58.57 91.2218 58.009L92.5198 58.471C92.1018 59.527 91.1228 60.121 89.9678 60.121ZM89.9018 55.336C89.2858 55.336 88.8128 55.699 88.6258 56.403H91.0238C91.0128 55.831 90.6498 55.336 89.9018 55.336ZM96.9182 54.203V55.71C96.7422 55.688 96.6102 55.677 96.4232 55.677C95.6202 55.677 95.0042 56.172 95.0042 57.063V60H93.4642V54.214H95.0042V55.028C95.2572 54.522 95.8292 54.181 96.5442 54.181C96.6982 54.181 96.8082 54.192 96.9182 54.203ZM97.739 53.532V52.102H99.312V53.532H97.739ZM99.301 54.214V60H97.761V54.214H99.301ZM103.425 52.014V53.279C103.282 53.268 103.194 53.268 103.029 53.268C102.545 53.268 102.292 53.411 102.292 53.983V54.214H103.414V55.501H102.292V60H100.752V55.501H99.9708V54.214H100.752V53.895C100.752 52.674 101.412 51.992 102.831 51.992C103.051 51.992 103.183 51.992 103.425 52.014ZM107.13 60.33C106.756 61.353 106.228 62.013 104.952 62.013C104.655 62.013 104.545 62.002 104.347 61.98V60.737C104.512 60.748 104.611 60.759 104.787 60.759C105.194 60.759 105.414 60.649 105.579 60.231L105.766 59.769L103.687 54.214H105.282L106.591 58.02L107.867 54.214H109.418L107.13 60.33ZM112.344 60.121C110.639 60.121 109.473 58.9 109.473 57.107C109.473 55.402 110.65 54.104 112.289 54.104C114.005 54.104 114.929 55.38 114.929 56.997V57.448H110.947C111.057 58.328 111.596 58.856 112.355 58.856C112.949 58.856 113.422 58.57 113.598 58.009L114.896 58.471C114.478 59.527 113.499 60.121 112.344 60.121ZM112.278 55.336C111.662 55.336 111.189 55.699 111.002 56.403H113.4C113.389 55.831 113.026 55.336 112.278 55.336ZM118.018 60.121C116.423 60.121 115.499 58.757 115.499 57.107C115.499 55.468 116.423 54.104 118.018 54.104C118.744 54.104 119.294 54.39 119.635 54.808V52.102H121.175V60H119.635V59.406C119.294 59.835 118.744 60.121 118.018 60.121ZM119.668 56.953C119.668 55.963 119.118 55.424 118.381 55.424C117.512 55.424 117.05 56.117 117.05 57.107C117.05 58.108 117.512 58.801 118.381 58.801C119.118 58.801 119.668 58.251 119.668 57.272V56.953ZM127.068 52.102H128.916L131.875 60H130.236L129.609 58.306H126.353L125.726 60H124.12L127.068 52.102ZM127.97 53.895L126.859 56.931H129.092L127.97 53.895ZM137.389 54.214V60H135.849V59.406C135.53 59.78 135.024 60.121 134.287 60.121C133.088 60.121 132.318 59.296 132.318 58.042V54.214H133.858V57.701C133.858 58.339 134.144 58.757 134.782 58.757C135.321 58.757 135.849 58.361 135.849 57.613V54.214H137.389ZM138.821 58.493V55.501H138.051V54.214H138.821V52.564H140.339V54.214H141.516V55.501H140.339V58.174C140.339 58.669 140.614 58.735 141.065 58.735C141.285 58.735 141.395 58.724 141.593 58.702V59.978C141.318 60.033 140.988 60.066 140.603 60.066C139.437 60.066 138.821 59.681 138.821 58.493ZM142.513 60V52.102H144.053V54.808C144.372 54.434 144.9 54.104 145.637 54.104C146.847 54.104 147.584 54.929 147.584 56.183V60H146.044V56.623C146.044 55.974 145.78 55.512 145.12 55.512C144.581 55.512 144.053 55.897 144.053 56.656V60H142.513ZM151.349 60.121C149.644 60.121 148.478 58.9 148.478 57.107C148.478 55.402 149.655 54.104 151.294 54.104C153.01 54.104 153.934 55.38 153.934 56.997V57.448H149.952C150.062 58.328 150.601 58.856 151.36 58.856C151.954 58.856 152.427 58.57 152.603 58.009L153.901 58.471C153.483 59.527 152.504 60.121 151.349 60.121ZM151.283 55.336C150.667 55.336 150.194 55.699 150.007 56.403H152.405C152.394 55.831 152.031 55.336 151.283 55.336ZM154.845 60V54.214H156.385V54.808C156.704 54.434 157.232 54.104 157.969 54.104C159.179 54.104 159.916 54.929 159.916 56.183V60H158.376V56.623C158.376 55.974 158.112 55.512 157.452 55.512C156.913 55.512 156.385 55.897 156.385 56.656V60H154.845ZM161.305 58.493V55.501H160.535V54.214H161.305V52.564H162.823V54.214H164V55.501H162.823V58.174C162.823 58.669 163.098 58.735 163.549 58.735C163.769 58.735 163.879 58.724 164.077 58.702V59.978C163.802 60.033 163.472 60.066 163.087 60.066C161.921 60.066 161.305 59.681 161.305 58.493ZM164.974 53.532V52.102H166.547V53.532H164.974ZM166.536 54.214V60H164.996V54.214H166.536ZM168.988 57.107C168.988 58.196 169.527 58.823 170.341 58.823C170.979 58.823 171.364 58.383 171.507 57.789L172.838 58.383C172.574 59.329 171.672 60.121 170.33 60.121C168.647 60.121 167.459 58.9 167.459 57.107C167.459 55.325 168.647 54.104 170.33 54.104C171.661 54.104 172.541 54.874 172.816 55.809L171.507 56.425C171.364 55.831 170.979 55.391 170.341 55.391C169.527 55.391 168.988 56.029 168.988 57.107ZM175.238 60.099C174.105 60.099 173.269 59.417 173.269 58.394C173.269 57.239 174.193 56.755 175.359 56.546L176.8 56.271V56.183C176.8 55.688 176.547 55.38 175.909 55.38C175.337 55.38 175.04 55.633 174.908 56.15L173.445 55.875C173.709 54.896 174.589 54.104 175.964 54.104C177.427 54.104 178.307 54.775 178.307 56.117V58.482C178.307 58.79 178.439 58.889 178.78 58.845V60C177.801 60.143 177.207 59.945 176.954 59.461C176.58 59.868 175.997 60.099 175.238 60.099ZM176.8 57.943V57.349L175.667 57.58C175.161 57.679 174.787 57.844 174.787 58.306C174.787 58.702 175.084 58.933 175.546 58.933C176.195 58.933 176.8 58.592 176.8 57.943ZM179.781 58.493V55.501H179.011V54.214H179.781V52.564H181.299V54.214H182.476V55.501H181.299V58.174C181.299 58.669 181.574 58.735 182.025 58.735C182.245 58.735 182.355 58.724 182.553 58.702V59.978C182.278 60.033 181.948 60.066 181.563 60.066C180.397 60.066 179.781 59.681 179.781 58.493ZM183.451 53.532V52.102H185.024V53.532H183.451ZM185.013 54.214V60H183.473V54.214H185.013ZM191.612 57.107C191.612 58.911 190.446 60.121 188.774 60.121C187.102 60.121 185.936 58.911 185.936 57.107C185.936 55.314 187.102 54.104 188.774 54.104C190.446 54.104 191.612 55.314 191.612 57.107ZM187.465 57.107C187.465 58.207 187.971 58.845 188.774 58.845C189.577 58.845 190.072 58.207 190.072 57.107C190.072 56.018 189.577 55.38 188.774 55.38C187.971 55.38 187.465 56.018 187.465 57.107ZM192.55 60V54.214H194.09V54.808C194.409 54.434 194.937 54.104 195.674 54.104C196.884 54.104 197.621 54.929 197.621 56.183V60H196.081V56.623C196.081 55.974 195.817 55.512 195.157 55.512C194.618 55.512 194.09 55.897 194.09 56.656V60H192.55ZM28.036 68.102H29.884L32.843 76H31.204L30.577 74.306H27.321L26.694 76H25.088L28.036 68.102ZM28.938 69.895L27.827 72.931H30.06L28.938 69.895ZM36.6368 76.121C35.9108 76.121 35.3608 75.835 35.0198 75.406V77.958H33.4798V70.214H35.0198V70.808C35.3608 70.39 35.9108 70.104 36.6368 70.104C38.2318 70.104 39.1558 71.468 39.1558 73.107C39.1558 74.757 38.2318 76.121 36.6368 76.121ZM34.9868 72.953V73.272C34.9868 74.251 35.5368 74.801 36.2738 74.801C37.1428 74.801 37.6048 74.108 37.6048 73.107C37.6048 72.117 37.1428 71.424 36.2738 71.424C35.5368 71.424 34.9868 71.963 34.9868 72.953ZM43.2325 76.121C42.5065 76.121 41.9565 75.835 41.6155 75.406V77.958H40.0755V70.214H41.6155V70.808C41.9565 70.39 42.5065 70.104 43.2325 70.104C44.8275 70.104 45.7515 71.468 45.7515 73.107C45.7515 74.757 44.8275 76.121 43.2325 76.121ZM41.5825 72.953V73.272C41.5825 74.251 42.1325 74.801 42.8695 74.801C43.7385 74.801 44.2005 74.108 44.2005 73.107C44.2005 72.117 43.7385 71.424 42.8695 71.424C42.1325 71.424 41.5825 71.963 41.5825 72.953Z" fill="white"/>
<rect x="12" y="55" width="4" height="4" fill="white"/>
<rect x="83.5" y="4.5" width="39" height="39" rx="19.5" fill="white"/>
<rect x="83.5" y="4.5" width="39" height="39" rx="19.5" stroke="#37CC00"/>
<mask id="mask0_3183_29875" style="mask-type:luminance" maskUnits="userSpaceOnUse" x="95" y="16" width="17" height="16">
<path d="M95 16H111.178V32H95V16Z" fill="white"/>
</mask>
<g mask="url(#mask0_3183_29875)">
<path fill-rule="evenodd" clip-rule="evenodd" d="M97.4594 16C96.0898 16.0666 95 17.187 95 18.5594V29.4375C95 30.8527 96.1589 32 97.5884 32H108.577C110.006 32 111.165 30.8527 111.165 29.4375V18.5594C111.165 18.1582 111.072 17.7785 110.906 17.4404H110.903L105.24 28.3718H100.406L97.365 19.5108C97.365 19.5108 100.094 19.5108 100.847 19.6932C101.598 19.8748 101.884 20.8566 102.937 24.4629L102.953 24.5147L107.682 16H97.4594Z" fill="#37CC00"/>
</g>
<line x1="102.5" y1="146" x2="102.5" y2="92" stroke="#E7E7E7" stroke-dasharray="4 4"/>
</svg>
