<svg width="206" height="182" viewBox="0 0 206 182" fill="none" xmlns="http://www.w3.org/2000/svg">
<rect y="20" width="206" height="108" rx="12" fill="#20336B"/>
<path d="M17.346 56H16.114L14.211 50.214V56H12.693V48.102H14.937L16.763 53.723L18.578 48.102H20.789V56H19.249V50.214L17.346 56ZM27.4476 53.107C27.4476 54.911 26.2816 56.121 24.6096 56.121C22.9376 56.121 21.7716 54.911 21.7716 53.107C21.7716 51.314 22.9376 50.104 24.6096 50.104C26.2816 50.104 27.4476 51.314 27.4476 53.107ZM23.3006 53.107C23.3006 54.207 23.8066 54.845 24.6096 54.845C25.4126 54.845 25.9076 54.207 25.9076 53.107C25.9076 52.018 25.4126 51.38 24.6096 51.38C23.8066 51.38 23.3006 52.018 23.3006 53.107ZM28.386 56V50.214H29.926V50.808C30.245 50.434 30.773 50.104 31.51 50.104C32.72 50.104 33.457 50.929 33.457 52.183V56H31.917V52.623C31.917 51.974 31.653 51.512 30.993 51.512C30.454 51.512 29.926 51.897 29.926 52.656V56H28.386ZM34.8457 54.493V51.501H34.0757V50.214H34.8457V48.564H36.3637V50.214H37.5407V51.501H36.3637V54.174C36.3637 54.669 36.6387 54.735 37.0897 54.735C37.3097 54.735 37.4197 54.724 37.6177 54.702V55.978C37.3427 56.033 37.0127 56.066 36.6277 56.066C35.4617 56.066 34.8457 55.681 34.8457 54.493ZM41.9914 50.203V51.71C41.8154 51.688 41.6834 51.677 41.4964 51.677C40.6934 51.677 40.0774 52.172 40.0774 53.063V56H38.5374V50.214H40.0774V51.028C40.3304 50.522 40.9024 50.181 41.6174 50.181C41.7714 50.181 41.8814 50.192 41.9914 50.203ZM44.2569 56.099C43.1239 56.099 42.2879 55.417 42.2879 54.394C42.2879 53.239 43.2119 52.755 44.3779 52.546L45.8189 52.271V52.183C45.8189 51.688 45.5659 51.38 44.9279 51.38C44.3559 51.38 44.0589 51.633 43.9269 52.15L42.4639 51.875C42.7279 50.896 43.6079 50.104 44.9829 50.104C46.4459 50.104 47.3259 50.775 47.3259 52.117V54.482C47.3259 54.79 47.4579 54.889 47.7989 54.845V56C46.8199 56.143 46.2259 55.945 45.9729 55.461C45.5989 55.868 45.0159 56.099 44.2569 56.099ZM45.8189 53.943V53.349L44.6859 53.58C44.1799 53.679 43.8059 53.844 43.8059 54.306C43.8059 54.702 44.1029 54.933 44.5649 54.933C45.2139 54.933 45.8189 54.592 45.8189 53.943ZM53.2889 48.102H55.1369L58.0959 56H56.4569L55.8299 54.306H52.5739L51.9469 56H50.3409L53.2889 48.102ZM54.1909 49.895L53.0799 52.931H55.3129L54.1909 49.895ZM61.8897 56.121C61.1637 56.121 60.6137 55.835 60.2727 55.406V57.958H58.7327V50.214H60.2727V50.808C60.6137 50.39 61.1637 50.104 61.8897 50.104C63.4847 50.104 64.4087 51.468 64.4087 53.107C64.4087 54.757 63.4847 56.121 61.8897 56.121ZM60.2397 52.953V53.272C60.2397 54.251 60.7897 54.801 61.5267 54.801C62.3957 54.801 62.8577 54.108 62.8577 53.107C62.8577 52.117 62.3957 51.424 61.5267 51.424C60.7897 51.424 60.2397 51.963 60.2397 52.953ZM68.4854 56.121C67.7594 56.121 67.2094 55.835 66.8684 55.406V57.958H65.3284V50.214H66.8684V50.808C67.2094 50.39 67.7594 50.104 68.4854 50.104C70.0804 50.104 71.0044 51.468 71.0044 53.107C71.0044 54.757 70.0804 56.121 68.4854 56.121ZM66.8354 52.953V53.272C66.8354 54.251 67.3854 54.801 68.1224 54.801C68.9914 54.801 69.4534 54.108 69.4534 53.107C69.4534 52.117 68.9914 51.424 68.1224 51.424C67.3854 51.424 66.8354 51.963 66.8354 52.953ZM76.9198 48.036C77.3451 48.036 77.7228 48.102 78.0528 48.234C78.3828 48.366 78.6431 48.5603 78.8338 48.817C79.0244 49.0663 79.1198 49.3743 79.1198 49.741C79.1198 50.247 78.9694 50.6723 78.6688 51.017C78.3681 51.3617 77.9941 51.6623 77.5468 51.919L79.0758 53.404C79.2224 53.1547 79.3508 52.8943 79.4608 52.623C79.5708 52.3443 79.6624 52.0657 79.7358 51.787H81.4408C81.3308 52.1977 81.1694 52.6377 80.9568 53.107C80.7441 53.5763 80.4728 54.0163 80.1428 54.427L81.7598 56H79.7358L79.1198 55.395C78.9584 55.505 78.7898 55.604 78.6138 55.692C78.4378 55.78 78.2544 55.857 78.0638 55.923C77.8731 55.9817 77.6714 56.0257 77.4588 56.055C77.2461 56.0917 77.0261 56.11 76.7988 56.11C76.2048 56.11 75.6951 56.0183 75.2698 55.835C74.8444 55.6443 74.5181 55.3803 74.2908 55.043C74.0634 54.7057 73.9498 54.317 73.9498 53.877C73.9498 53.503 74.0048 53.184 74.1148 52.92C74.2321 52.6487 74.3971 52.414 74.6098 52.216C74.8298 52.0107 75.0901 51.8237 75.3908 51.655C75.2001 51.435 75.0461 51.2297 74.9288 51.039C74.8188 50.841 74.7381 50.6467 74.6868 50.456C74.6428 50.2653 74.6208 50.0637 74.6208 49.851C74.6208 49.477 74.7161 49.1543 74.9068 48.883C75.1048 48.6117 75.3761 48.4027 75.7208 48.256C76.0728 48.1093 76.4724 48.036 76.9198 48.036ZM76.3478 52.634C76.2084 52.7367 76.0874 52.843 75.9848 52.953C75.8894 53.063 75.8124 53.1803 75.7538 53.305C75.7024 53.4297 75.6768 53.569 75.6768 53.723C75.6768 54.0383 75.7941 54.2877 76.0288 54.471C76.2634 54.647 76.5568 54.735 76.9088 54.735C77.1434 54.735 77.3634 54.7057 77.5688 54.647C77.7741 54.5883 77.9611 54.5077 78.1298 54.405L76.3478 52.634ZM76.9088 49.301C76.7254 49.301 76.5494 49.3487 76.3808 49.444C76.2194 49.532 76.1388 49.7043 76.1388 49.961C76.1388 50.1443 76.1828 50.3203 76.2708 50.489C76.3661 50.6577 76.4908 50.83 76.6448 51.006C76.9528 50.8373 77.1874 50.6687 77.3488 50.5C77.5174 50.3313 77.6018 50.137 77.6018 49.917C77.6018 49.697 77.5284 49.5393 77.3818 49.444C77.2351 49.3487 77.0774 49.301 76.9088 49.301ZM86.2934 53.096V56H84.6764V48.102H87.9104C89.7254 48.102 90.8584 48.96 90.8584 50.599C90.8584 52.227 89.7254 53.096 87.9104 53.096H86.2934ZM86.2934 51.721H87.8224C88.7684 51.721 89.2524 51.303 89.2524 50.599C89.2524 49.884 88.7684 49.477 87.8224 49.477H86.2934V51.721ZM93.1009 48.102V56H91.5609V48.102H93.1009ZM95.9376 56.099C94.8046 56.099 93.9686 55.417 93.9686 54.394C93.9686 53.239 94.8926 52.755 96.0586 52.546L97.4996 52.271V52.183C97.4996 51.688 97.2466 51.38 96.6086 51.38C96.0366 51.38 95.7396 51.633 95.6076 52.15L94.1446 51.875C94.4086 50.896 95.2886 50.104 96.6636 50.104C98.1266 50.104 99.0066 50.775 99.0066 52.117V54.482C99.0066 54.79 99.1386 54.889 99.4796 54.845V56C98.5006 56.143 97.9066 55.945 97.6536 55.461C97.2796 55.868 96.6966 56.099 95.9376 56.099ZM97.4996 53.943V53.349L96.3666 53.58C95.8606 53.679 95.4866 53.844 95.4866 54.306C95.4866 54.702 95.7836 54.933 96.2456 54.933C96.8946 54.933 97.4996 54.592 97.4996 53.943ZM100.48 54.493V51.501H99.7105V50.214H100.48V48.564H101.998V50.214H103.175V51.501H101.998V54.174C101.998 54.669 102.273 54.735 102.724 54.735C102.944 54.735 103.054 54.724 103.252 54.702V55.978C102.977 56.033 102.647 56.066 102.262 56.066C101.096 56.066 100.48 55.681 100.48 54.493ZM106.946 48.014V49.279C106.803 49.268 106.715 49.268 106.55 49.268C106.066 49.268 105.813 49.411 105.813 49.983V50.214H106.935V51.501H105.813V56H104.273V51.501H103.492V50.214H104.273V49.895C104.273 48.674 104.933 47.992 106.352 47.992C106.572 47.992 106.704 47.992 106.946 48.014ZM112.923 53.107C112.923 54.911 111.757 56.121 110.085 56.121C108.413 56.121 107.247 54.911 107.247 53.107C107.247 51.314 108.413 50.104 110.085 50.104C111.757 50.104 112.923 51.314 112.923 53.107ZM108.776 53.107C108.776 54.207 109.282 54.845 110.085 54.845C110.888 54.845 111.383 54.207 111.383 53.107C111.383 52.018 110.888 51.38 110.085 51.38C109.282 51.38 108.776 52.018 108.776 53.107ZM117.316 50.203V51.71C117.14 51.688 117.008 51.677 116.821 51.677C116.018 51.677 115.402 52.172 115.402 53.063V56H113.862V50.214H115.402V51.028C115.655 50.522 116.227 50.181 116.942 50.181C117.096 50.181 117.206 50.192 117.316 50.203ZM119.699 52.656V56H118.159V50.214H119.699V50.808C120.007 50.434 120.524 50.104 121.272 50.104C121.976 50.104 122.515 50.401 122.834 50.896C123.186 50.533 123.736 50.104 124.627 50.104C125.815 50.104 126.585 50.929 126.585 52.183V56H125.045V52.623C125.045 51.974 124.803 51.512 124.165 51.512C123.659 51.512 123.142 51.897 123.142 52.656V56H121.602V52.623C121.602 51.974 121.36 51.512 120.722 51.512C120.216 51.512 119.699 51.897 119.699 52.656ZM132.446 56.121C130.851 56.121 129.938 54.757 129.938 53.129C129.938 51.49 130.851 50.137 132.446 50.137C133.249 50.137 133.887 50.522 134.228 51.083V48.102H135.218V56H134.228V55.164C133.887 55.736 133.249 56.121 132.446 56.121ZM134.25 52.931C134.25 51.589 133.436 51.006 132.622 51.006C131.544 51.006 130.939 51.886 130.939 53.129C130.939 54.361 131.544 55.252 132.622 55.252C133.436 55.252 134.25 54.658 134.25 53.338V52.931ZM139.153 56.121C137.558 56.121 136.458 54.9 136.458 53.129C136.458 51.413 137.547 50.137 139.109 50.137C140.715 50.137 141.562 51.358 141.562 52.953V53.283H137.404C137.459 54.493 138.152 55.263 139.153 55.263C139.923 55.263 140.473 54.845 140.649 54.163L141.518 54.471C141.166 55.494 140.297 56.121 139.153 56.121ZM139.098 50.984C138.262 50.984 137.635 51.545 137.459 52.524H140.561C140.539 51.71 140.099 50.984 139.098 50.984ZM145.14 56H144.161L142.005 50.247H143.05L144.667 54.79L146.262 50.247H147.296L145.14 56ZM150.411 56.121C148.816 56.121 147.716 54.9 147.716 53.129C147.716 51.413 148.805 50.137 150.367 50.137C151.973 50.137 152.82 51.358 152.82 52.953V53.283H148.662C148.717 54.493 149.41 55.263 150.411 55.263C151.181 55.263 151.731 54.845 151.907 54.163L152.776 54.471C152.424 55.494 151.555 56.121 150.411 56.121ZM150.356 50.984C149.52 50.984 148.893 51.545 148.717 52.524H151.819C151.797 51.71 151.357 50.984 150.356 50.984ZM155.043 48.102V56H154.053V48.102H155.043ZM161.645 53.129C161.645 54.911 160.545 56.121 158.972 56.121C157.399 56.121 156.299 54.911 156.299 53.129C156.299 51.347 157.399 50.137 158.972 50.137C160.545 50.137 161.645 51.347 161.645 53.129ZM157.3 53.129C157.3 54.438 157.96 55.274 158.972 55.274C159.984 55.274 160.644 54.438 160.644 53.129C160.644 51.809 159.984 50.973 158.972 50.973C157.96 50.973 157.3 51.809 157.3 53.129ZM165.676 56.121C164.873 56.121 164.235 55.736 163.894 55.164V57.98H162.904V50.247H163.894V51.083C164.235 50.522 164.873 50.137 165.676 50.137C167.271 50.137 168.184 51.49 168.184 53.129C168.184 54.757 167.271 56.121 165.676 56.121ZM163.872 52.931V53.338C163.872 54.658 164.686 55.252 165.5 55.252C166.578 55.252 167.183 54.361 167.183 53.129C167.183 51.886 166.578 51.006 165.5 51.006C164.686 51.006 163.872 51.589 163.872 52.931ZM170.425 52.557V56H169.435V50.247H170.425V51.028C170.733 50.555 171.283 50.137 172.086 50.137C172.856 50.137 173.395 50.522 173.681 51.116C174 50.643 174.616 50.137 175.518 50.137C176.706 50.137 177.421 50.984 177.421 52.205V56H176.431V52.469C176.431 51.666 176.101 51.061 175.287 51.061C174.627 51.061 173.923 51.622 173.923 52.557V56H172.933V52.469C172.933 51.666 172.603 51.061 171.789 51.061C171.129 51.061 170.425 51.622 170.425 52.557ZM181.316 56.121C179.721 56.121 178.621 54.9 178.621 53.129C178.621 51.413 179.71 50.137 181.272 50.137C182.878 50.137 183.725 51.358 183.725 52.953V53.283H179.567C179.622 54.493 180.315 55.263 181.316 55.263C182.086 55.263 182.636 54.845 182.812 54.163L183.681 54.471C183.329 55.494 182.46 56.121 181.316 56.121ZM181.261 50.984C180.425 50.984 179.798 51.545 179.622 52.524H182.724C182.702 51.71 182.262 50.984 181.261 50.984ZM184.958 56V50.247H185.948V51.028C186.278 50.555 186.85 50.137 187.664 50.137C188.885 50.137 189.578 50.984 189.578 52.205V56H188.588V52.469C188.588 51.666 188.247 51.061 187.389 51.061C186.674 51.061 185.948 51.611 185.948 52.568V56H184.958ZM191.321 54.625V51.094H190.43V50.247H191.321V48.564H192.3V50.247H193.609V51.094H192.3V54.471C192.3 55.076 192.597 55.186 193.103 55.186C193.334 55.186 193.499 55.175 193.73 55.12V55.967C193.477 56.022 193.191 56.055 192.861 56.055C191.882 56.055 191.321 55.725 191.321 54.625ZM194.814 56V54.702H196.068V56.066C196.068 56.924 195.518 57.441 194.638 57.463V56.891C195.133 56.869 195.386 56.616 195.386 56.088V56H194.814ZM13.815 68.557V72H12.825V66.247H13.815V67.028C14.123 66.555 14.673 66.137 15.476 66.137C16.246 66.137 16.785 66.522 17.071 67.116C17.39 66.643 18.006 66.137 18.908 66.137C20.096 66.137 20.811 66.984 20.811 68.205V72H19.821V68.469C19.821 67.666 19.491 67.061 18.677 67.061C18.017 67.061 17.313 67.622 17.313 68.557V72H16.323V68.469C16.323 67.666 15.993 67.061 15.179 67.061C14.519 67.061 13.815 67.622 13.815 68.557ZM22.363 65.246V64.102H23.441V65.246H22.363ZM23.397 66.247V72H22.407V66.247H23.397ZM26.0396 64.102V72H25.0496V64.102H26.0396ZM29.9912 72.121C28.3962 72.121 27.2962 70.9 27.2962 69.129C27.2962 67.413 28.3852 66.137 29.9472 66.137C31.5532 66.137 32.4002 67.358 32.4002 68.953V69.283H28.2422C28.2972 70.493 28.9902 71.263 29.9912 71.263C30.7612 71.263 31.3112 70.845 31.4872 70.163L32.3562 70.471C32.0042 71.494 31.1352 72.121 29.9912 72.121ZM29.9362 66.984C29.1002 66.984 28.4732 67.545 28.2972 68.524H31.3992C31.3772 67.71 30.9372 66.984 29.9362 66.984ZM32.9946 70.779L33.7646 70.218C34.0726 70.889 34.7766 71.296 35.5246 71.296C36.1956 71.296 36.7896 71.01 36.7896 70.383C36.7896 69.756 36.2396 69.668 35.2936 69.47C34.3476 69.261 33.3576 69.052 33.3576 67.875C33.3576 66.852 34.2486 66.137 35.4696 66.137C36.5036 66.137 37.3506 66.643 37.6916 67.325L36.9876 67.886C36.6906 67.314 36.1516 66.951 35.4256 66.951C34.7656 66.951 34.3256 67.281 34.3256 67.798C34.3256 68.337 34.8316 68.436 35.6346 68.612C36.6246 68.843 37.7576 69.041 37.7576 70.295C37.7576 71.395 36.7566 72.121 35.5246 72.121C34.4796 72.121 33.4346 71.67 32.9946 70.779ZM39.1362 70.625V67.094H38.2452V66.247H39.1362V64.564H40.1152V66.247H41.4242V67.094H40.1152V70.471C40.1152 71.076 40.4122 71.186 40.9182 71.186C41.1492 71.186 41.3142 71.175 41.5452 71.12V71.967C41.2922 72.022 41.0062 72.055 40.6762 72.055C39.6972 72.055 39.1362 71.725 39.1362 70.625ZM47.6383 69.129C47.6383 70.911 46.5383 72.121 44.9653 72.121C43.3923 72.121 42.2923 70.911 42.2923 69.129C42.2923 67.347 43.3923 66.137 44.9653 66.137C46.5383 66.137 47.6383 67.347 47.6383 69.129ZM43.2933 69.129C43.2933 70.438 43.9533 71.274 44.9653 71.274C45.9773 71.274 46.6373 70.438 46.6373 69.129C46.6373 67.809 45.9773 66.973 44.9653 66.973C43.9533 66.973 43.2933 67.809 43.2933 69.129ZM48.8973 72V66.247H49.8873V67.028C50.2173 66.555 50.7893 66.137 51.6033 66.137C52.8243 66.137 53.5173 66.984 53.5173 68.205V72H52.5273V68.469C52.5273 67.666 52.1863 67.061 51.3283 67.061C50.6133 67.061 49.8873 67.611 49.8873 68.568V72H48.8973ZM57.4053 72.121C55.8103 72.121 54.7103 70.9 54.7103 69.129C54.7103 67.413 55.7993 66.137 57.3613 66.137C58.9673 66.137 59.8143 67.358 59.8143 68.953V69.283H55.6562C55.7113 70.493 56.4043 71.263 57.4053 71.263C58.1753 71.263 58.7253 70.845 58.9013 70.163L59.7703 70.471C59.4183 71.494 58.5493 72.121 57.4053 72.121ZM57.3503 66.984C56.5143 66.984 55.8873 67.545 55.7113 68.524H58.8133C58.7913 67.71 58.3513 66.984 57.3503 66.984ZM60.4087 70.779L61.1787 70.218C61.4867 70.889 62.1907 71.296 62.9387 71.296C63.6097 71.296 64.2037 71.01 64.2037 70.383C64.2037 69.756 63.6537 69.668 62.7077 69.47C61.7617 69.261 60.7717 69.052 60.7717 67.875C60.7717 66.852 61.6627 66.137 62.8837 66.137C63.9177 66.137 64.7647 66.643 65.1057 67.325L64.4017 67.886C64.1047 67.314 63.5657 66.951 62.8397 66.951C62.1797 66.951 61.7397 67.281 61.7397 67.798C61.7397 68.337 62.2457 68.436 63.0487 68.612C64.0387 68.843 65.1717 69.041 65.1717 70.295C65.1717 71.395 64.1707 72.121 62.9387 72.121C61.8937 72.121 60.8487 71.67 60.4087 70.779ZM70.1576 72.099C69.1126 72.099 68.2656 71.483 68.2656 70.449C68.2656 69.305 69.1566 68.832 70.4436 68.568L71.8406 68.282V68.04C71.8406 67.38 71.4776 67.006 70.7076 67.006C69.9816 67.006 69.5526 67.347 69.3766 67.985L68.4416 67.743C68.7166 66.808 69.5636 66.137 70.7406 66.137C72.0276 66.137 72.8196 66.764 72.8196 67.996V70.801C72.8196 71.175 73.0506 71.296 73.4356 71.208V72C72.5556 72.11 72.0496 71.901 71.9286 71.351C71.5766 71.802 70.9386 72.099 70.1576 72.099ZM71.8406 70.042V69.052L70.7186 69.294C69.8386 69.47 69.2446 69.712 69.2446 70.405C69.2446 70.966 69.6516 71.296 70.2786 71.296C71.1256 71.296 71.8406 70.779 71.8406 70.042ZM75.1006 69.129C75.1006 70.438 75.8046 71.252 76.8276 71.252C77.6196 71.252 78.0926 70.746 78.2576 70.031L79.1376 70.438C78.8626 71.395 78.0266 72.121 76.8276 72.121C75.2216 72.121 74.1106 70.9 74.1106 69.129C74.1106 67.347 75.2216 66.137 76.8276 66.137C78.0266 66.137 78.8406 66.83 79.1156 67.787L78.2576 68.216C78.0926 67.512 77.6196 66.995 76.8276 66.995C75.8046 66.995 75.1006 67.809 75.1006 69.129ZM80.2215 72V64.102H81.2115V67.028C81.5415 66.555 82.1135 66.137 82.9275 66.137C84.1485 66.137 84.8415 66.984 84.8415 68.205V72H83.8515V68.469C83.8515 67.666 83.5105 67.061 82.6525 67.061C81.9375 67.061 81.2115 67.611 81.2115 68.568V72H80.2215ZM86.3865 65.246V64.102H87.4645V65.246H86.3865ZM87.4205 66.247V72H86.4305V66.247H87.4205ZM91.372 72.121C89.777 72.121 88.677 70.9 88.677 69.129C88.677 67.413 89.766 66.137 91.328 66.137C92.934 66.137 93.781 67.358 93.781 68.953V69.283H89.623C89.678 70.493 90.371 71.263 91.372 71.263C92.142 71.263 92.692 70.845 92.868 70.163L93.737 70.471C93.385 71.494 92.516 72.121 91.372 72.121ZM91.317 66.984C90.481 66.984 89.854 67.545 89.678 68.524H92.78C92.758 67.71 92.318 66.984 91.317 66.984ZM97.3591 72H96.3801L94.2241 66.247H95.2691L96.8861 70.79L98.4811 66.247H99.5151L97.3591 72ZM102.63 72.121C101.035 72.121 99.9349 70.9 99.9349 69.129C99.9349 67.413 101.024 66.137 102.586 66.137C104.192 66.137 105.039 67.358 105.039 68.953V69.283H100.881C100.936 70.493 101.629 71.263 102.63 71.263C103.4 71.263 103.95 70.845 104.126 70.163L104.995 70.471C104.643 71.494 103.774 72.121 102.63 72.121ZM102.575 66.984C101.739 66.984 101.112 67.545 100.936 68.524H104.038C104.016 67.71 103.576 66.984 102.575 66.984ZM108.383 72.121C106.788 72.121 105.875 70.757 105.875 69.129C105.875 67.49 106.788 66.137 108.383 66.137C109.186 66.137 109.824 66.522 110.165 67.083V64.102H111.155V72H110.165V71.164C109.824 71.736 109.186 72.121 108.383 72.121ZM110.187 68.931C110.187 67.589 109.373 67.006 108.559 67.006C107.481 67.006 106.876 67.886 106.876 69.129C106.876 70.361 107.481 71.252 108.559 71.252C109.373 71.252 110.187 70.658 110.187 69.338V68.931ZM112.759 71.406C112.759 71.1347 112.825 70.944 112.957 70.834C113.089 70.724 113.246 70.669 113.43 70.669C113.62 70.669 113.782 70.724 113.914 70.834C114.053 70.944 114.123 71.1347 114.123 71.406C114.123 71.67 114.053 71.8607 113.914 71.978C113.782 72.0953 113.62 72.154 113.43 72.154C113.246 72.154 113.089 72.0953 112.957 71.978C112.825 71.8607 112.759 71.67 112.759 71.406ZM112.759 66.698C112.759 66.4193 112.825 66.225 112.957 66.115C113.089 66.005 113.246 65.95 113.43 65.95C113.62 65.95 113.782 66.005 113.914 66.115C114.053 66.225 114.123 66.4193 114.123 66.698C114.123 66.962 114.053 67.1527 113.914 67.27C113.782 67.3873 113.62 67.446 113.43 67.446C113.246 67.446 113.089 67.3873 112.957 67.27C112.825 67.1527 112.759 66.962 112.759 66.698Z" fill="white"/>
<path d="M25.925 88.051C25.925 89.657 26.772 90.702 27.982 90.702C28.84 90.702 29.467 90.163 29.687 89.283L31.205 89.789C30.743 91.219 29.621 92.121 27.982 92.121C25.848 92.121 24.297 90.438 24.297 88.051C24.297 85.664 25.848 83.981 27.982 83.981C29.621 83.981 30.743 84.883 31.205 86.313L29.687 86.819C29.467 85.939 28.84 85.4 27.982 85.4C26.772 85.4 25.925 86.445 25.925 88.051ZM32.0179 92V84.102H33.5579V86.808C33.8769 86.434 34.4049 86.104 35.1419 86.104C36.3519 86.104 37.0889 86.929 37.0889 88.183V92H35.5489V88.623C35.5489 87.974 35.2849 87.512 34.6249 87.512C34.0859 87.512 33.5579 87.897 33.5579 88.656V92H32.0179ZM39.8965 92.099C38.7635 92.099 37.9275 91.417 37.9275 90.394C37.9275 89.239 38.8515 88.755 40.0175 88.546L41.4585 88.271V88.183C41.4585 87.688 41.2055 87.38 40.5675 87.38C39.9955 87.38 39.6985 87.633 39.5665 88.15L38.1035 87.875C38.3675 86.896 39.2475 86.104 40.6225 86.104C42.0855 86.104 42.9655 86.775 42.9655 88.117V90.482C42.9655 90.79 43.0975 90.889 43.4385 90.845V92C42.4595 92.143 41.8655 91.945 41.6125 91.461C41.2385 91.868 40.6555 92.099 39.8965 92.099ZM41.4585 89.943V89.349L40.3255 89.58C39.8195 89.679 39.4455 89.844 39.4455 90.306C39.4455 90.702 39.7425 90.933 40.2045 90.933C40.8535 90.933 41.4585 90.592 41.4585 89.943ZM44.4395 90.493V87.501H43.6695V86.214H44.4395V84.564H45.9575V86.214H47.1345V87.501H45.9575V90.174C45.9575 90.669 46.2325 90.735 46.6835 90.735C46.9035 90.735 47.0135 90.724 47.2115 90.702V91.978C46.9365 92.033 46.6065 92.066 46.2215 92.066C45.0555 92.066 44.4395 91.681 44.4395 90.493ZM53.1268 84.036C53.5521 84.036 53.9298 84.102 54.2598 84.234C54.5898 84.366 54.8501 84.5603 55.0408 84.817C55.2315 85.0663 55.3268 85.3743 55.3268 85.741C55.3268 86.247 55.1765 86.6723 54.8758 87.017C54.5751 87.3617 54.2011 87.6623 53.7538 87.919L55.2828 89.404C55.4295 89.1547 55.5578 88.8943 55.6678 88.623C55.7778 88.3443 55.8695 88.0657 55.9428 87.787H57.6478C57.5378 88.1977 57.3765 88.6377 57.1638 89.107C56.9511 89.5763 56.6798 90.0163 56.3498 90.427L57.9668 92H55.9428L55.3268 91.395C55.1655 91.505 54.9968 91.604 54.8208 91.692C54.6448 91.78 54.4615 91.857 54.2708 91.923C54.0801 91.9817 53.8785 92.0257 53.6658 92.055C53.4531 92.0917 53.2331 92.11 53.0058 92.11C52.4118 92.11 51.9021 92.0183 51.4768 91.835C51.0515 91.6443 50.7251 91.3803 50.4978 91.043C50.2705 90.7057 50.1568 90.317 50.1568 89.877C50.1568 89.503 50.2118 89.184 50.3218 88.92C50.4391 88.6487 50.6041 88.414 50.8168 88.216C51.0368 88.0107 51.2971 87.8237 51.5978 87.655C51.4071 87.435 51.2531 87.2297 51.1358 87.039C51.0258 86.841 50.9451 86.6467 50.8938 86.456C50.8498 86.2653 50.8278 86.0637 50.8278 85.851C50.8278 85.477 50.9231 85.1543 51.1138 84.883C51.3118 84.6117 51.5831 84.4027 51.9278 84.256C52.2798 84.1093 52.6795 84.036 53.1268 84.036ZM52.5548 88.634C52.4155 88.7367 52.2945 88.843 52.1918 88.953C52.0965 89.063 52.0195 89.1803 51.9608 89.305C51.9095 89.4297 51.8838 89.569 51.8838 89.723C51.8838 90.0383 52.0011 90.2877 52.2358 90.471C52.4705 90.647 52.7638 90.735 53.1158 90.735C53.3505 90.735 53.5705 90.7057 53.7758 90.647C53.9811 90.5883 54.1681 90.5077 54.3368 90.405L52.5548 88.634ZM53.1158 85.301C52.9325 85.301 52.7565 85.3487 52.5878 85.444C52.4265 85.532 52.3458 85.7043 52.3458 85.961C52.3458 86.1443 52.3898 86.3203 52.4778 86.489C52.5731 86.6577 52.6978 86.83 52.8518 87.006C53.1598 86.8373 53.3945 86.6687 53.5558 86.5C53.7245 86.3313 53.8088 86.137 53.8088 85.917C53.8088 85.697 53.7355 85.5393 53.5888 85.444C53.4421 85.3487 53.2845 85.301 53.1158 85.301ZM60.0914 90.559L61.2024 89.481C61.7854 90.306 62.6324 90.768 63.5014 90.768C64.3264 90.768 64.9314 90.405 64.9314 89.734C64.9314 89.008 64.1834 88.909 62.9954 88.645C61.8184 88.37 60.5424 87.996 60.5424 86.434C60.5424 84.927 61.8404 83.981 63.4794 83.981C64.8434 83.981 65.9104 84.586 66.4604 85.378L65.3934 86.423C64.9314 85.774 64.3154 85.334 63.4354 85.334C62.6654 85.334 62.1374 85.708 62.1374 86.28C62.1374 86.896 62.7094 87.017 63.7434 87.248C64.9974 87.523 66.5374 87.842 66.5374 89.569C66.5374 91.164 65.1294 92.121 63.4464 92.121C62.1154 92.121 60.7294 91.516 60.0914 90.559ZM72.8236 89.107C72.8236 90.911 71.6576 92.121 69.9856 92.121C68.3136 92.121 67.1476 90.911 67.1476 89.107C67.1476 87.314 68.3136 86.104 69.9856 86.104C71.6576 86.104 72.8236 87.314 72.8236 89.107ZM68.6766 89.107C68.6766 90.207 69.1826 90.845 69.9856 90.845C70.7886 90.845 71.2836 90.207 71.2836 89.107C71.2836 88.018 70.7886 87.38 69.9856 87.38C69.1826 87.38 68.6766 88.018 68.6766 89.107ZM74.9608 89.107C74.9608 90.196 75.4998 90.823 76.3138 90.823C76.9518 90.823 77.3368 90.383 77.4798 89.789L78.8108 90.383C78.5468 91.329 77.6448 92.121 76.3028 92.121C74.6198 92.121 73.4318 90.9 73.4318 89.107C73.4318 87.325 74.6198 86.104 76.3028 86.104C77.6338 86.104 78.5138 86.874 78.7888 87.809L77.4798 88.425C77.3368 87.831 76.9518 87.391 76.3138 87.391C75.4998 87.391 74.9608 88.029 74.9608 89.107ZM79.5301 85.532V84.102H81.1031V85.532H79.5301ZM81.0921 86.214V92H79.5521V86.214H81.0921ZM83.9288 92.099C82.7958 92.099 81.9598 91.417 81.9598 90.394C81.9598 89.239 82.8838 88.755 84.0498 88.546L85.4908 88.271V88.183C85.4908 87.688 85.2378 87.38 84.5998 87.38C84.0278 87.38 83.7308 87.633 83.5988 88.15L82.1358 87.875C82.3998 86.896 83.2798 86.104 84.6548 86.104C86.1178 86.104 86.9978 86.775 86.9978 88.117V90.482C86.9978 90.79 87.1298 90.889 87.4708 90.845V92C86.4918 92.143 85.8978 91.945 85.6448 91.461C85.2708 91.868 84.6878 92.099 83.9288 92.099ZM85.4908 89.943V89.349L84.3578 89.58C83.8518 89.679 83.4778 89.844 83.4778 90.306C83.4778 90.702 83.7748 90.933 84.2368 90.933C84.8858 90.933 85.4908 90.592 85.4908 89.943ZM89.8792 84.102V92H88.3392V84.102H89.8792ZM95.0165 92H93.4215V84.102H98.8115V85.499H95.0165V87.468H98.1845V88.865H95.0165V92ZM101.751 92.121C100.046 92.121 98.88 90.9 98.88 89.107C98.88 87.402 100.057 86.104 101.696 86.104C103.412 86.104 104.336 87.38 104.336 88.997V89.448H100.354C100.464 90.328 101.003 90.856 101.762 90.856C102.356 90.856 102.829 90.57 103.005 90.009L104.303 90.471C103.885 91.527 102.906 92.121 101.751 92.121ZM101.685 87.336C101.069 87.336 100.596 87.699 100.409 88.403H102.807C102.796 87.831 102.433 87.336 101.685 87.336ZM107.788 92.121C106.083 92.121 104.917 90.9 104.917 89.107C104.917 87.402 106.094 86.104 107.733 86.104C109.449 86.104 110.373 87.38 110.373 88.997V89.448H106.391C106.501 90.328 107.04 90.856 107.799 90.856C108.393 90.856 108.866 90.57 109.042 90.009L110.34 90.471C109.922 91.527 108.943 92.121 107.788 92.121ZM107.722 87.336C107.106 87.336 106.633 87.699 106.446 88.403H108.844C108.833 87.831 108.47 87.336 107.722 87.336ZM113.462 92.121C111.867 92.121 110.943 90.757 110.943 89.107C110.943 87.468 111.867 86.104 113.462 86.104C114.188 86.104 114.738 86.39 115.079 86.808V84.102H116.619V92H115.079V91.406C114.738 91.835 114.188 92.121 113.462 92.121ZM115.112 88.953C115.112 87.963 114.562 87.424 113.825 87.424C112.956 87.424 112.494 88.117 112.494 89.107C112.494 90.108 112.956 90.801 113.825 90.801C114.562 90.801 115.112 90.251 115.112 89.272V88.953ZM117.319 91.021L118.276 90.042C118.672 90.581 119.376 90.922 120.025 90.922C120.542 90.922 120.993 90.746 120.993 90.328C120.993 89.888 120.564 89.833 119.64 89.657C118.705 89.47 117.671 89.228 117.671 87.985C117.671 86.874 118.65 86.104 120.036 86.104C121.059 86.104 121.972 86.522 122.423 87.105L121.543 88.073C121.158 87.578 120.597 87.303 119.992 87.303C119.508 87.303 119.189 87.512 119.189 87.831C119.189 88.205 119.574 88.271 120.289 88.414C121.301 88.623 122.5 88.854 122.5 90.163C122.5 91.373 121.378 92.121 119.992 92.121C118.947 92.121 117.847 91.736 117.319 91.021Z" fill="white"/>
<rect x="12" y="86" width="4" height="4" fill="white"/>
<path d="M25.925 108.051C25.925 109.657 26.772 110.702 27.982 110.702C28.84 110.702 29.467 110.163 29.687 109.283L31.205 109.789C30.743 111.219 29.621 112.121 27.982 112.121C25.848 112.121 24.297 110.438 24.297 108.051C24.297 105.664 25.848 103.981 27.982 103.981C29.621 103.981 30.743 104.883 31.205 106.313L29.687 106.819C29.467 105.939 28.84 105.4 27.982 105.4C26.772 105.4 25.925 106.445 25.925 108.051ZM32.0179 112V104.102H33.5579V106.808C33.8769 106.434 34.4049 106.104 35.1419 106.104C36.3519 106.104 37.0889 106.929 37.0889 108.183V112H35.5489V108.623C35.5489 107.974 35.2849 107.512 34.6249 107.512C34.0859 107.512 33.5579 107.897 33.5579 108.656V112H32.0179ZM39.8965 112.099C38.7635 112.099 37.9275 111.417 37.9275 110.394C37.9275 109.239 38.8515 108.755 40.0175 108.546L41.4585 108.271V108.183C41.4585 107.688 41.2055 107.38 40.5675 107.38C39.9955 107.38 39.6985 107.633 39.5665 108.15L38.1035 107.875C38.3675 106.896 39.2475 106.104 40.6225 106.104C42.0855 106.104 42.9655 106.775 42.9655 108.117V110.482C42.9655 110.79 43.0975 110.889 43.4385 110.845V112C42.4595 112.143 41.8655 111.945 41.6125 111.461C41.2385 111.868 40.6555 112.099 39.8965 112.099ZM41.4585 109.943V109.349L40.3255 109.58C39.8195 109.679 39.4455 109.844 39.4455 110.306C39.4455 110.702 39.7425 110.933 40.2045 110.933C40.8535 110.933 41.4585 110.592 41.4585 109.943ZM44.4395 110.493V107.501H43.6695V106.214H44.4395V104.564H45.9575V106.214H47.1345V107.501H45.9575V110.174C45.9575 110.669 46.2325 110.735 46.6835 110.735C46.9035 110.735 47.0135 110.724 47.2115 110.702V111.978C46.9365 112.033 46.6065 112.066 46.2215 112.066C45.0555 112.066 44.4395 111.681 44.4395 110.493ZM52.0268 109.096V112H50.4098V104.102H53.6438C55.4588 104.102 56.5918 104.96 56.5918 106.599C56.5918 108.227 55.4588 109.096 53.6438 109.096H52.0268ZM52.0268 107.721H53.5558C54.5018 107.721 54.9858 107.303 54.9858 106.599C54.9858 105.884 54.5018 105.477 53.5558 105.477H52.0268V107.721ZM58.7598 112.099C57.6268 112.099 56.7908 111.417 56.7908 110.394C56.7908 109.239 57.7148 108.755 58.8808 108.546L60.3218 108.271V108.183C60.3218 107.688 60.0688 107.38 59.4308 107.38C58.8588 107.38 58.5618 107.633 58.4298 108.15L56.9668 107.875C57.2308 106.896 58.1108 106.104 59.4858 106.104C60.9488 106.104 61.8288 106.775 61.8288 108.117V110.482C61.8288 110.79 61.9608 110.889 62.3018 110.845V112C61.3228 112.143 60.7288 111.945 60.4758 111.461C60.1018 111.868 59.5188 112.099 58.7598 112.099ZM60.3218 109.943V109.349L59.1888 109.58C58.6828 109.679 58.3088 109.844 58.3088 110.306C58.3088 110.702 58.6058 110.933 59.0678 110.933C59.7168 110.933 60.3218 110.592 60.3218 109.943ZM65.8251 112.33C65.4511 113.353 64.9231 114.013 63.6471 114.013C63.3501 114.013 63.2401 114.002 63.0421 113.98V112.737C63.2071 112.748 63.3061 112.759 63.4821 112.759C63.8891 112.759 64.1091 112.649 64.2741 112.231L64.4611 111.769L62.3821 106.214H63.9771L65.2861 110.02L66.5621 106.214H68.1131L65.8251 112.33ZM72.1785 109.107C72.1785 110.196 72.7175 110.823 73.5315 110.823C74.1695 110.823 74.5545 110.383 74.6975 109.789L76.0285 110.383C75.7645 111.329 74.8625 112.121 73.5205 112.121C71.8375 112.121 70.6495 110.9 70.6495 109.107C70.6495 107.325 71.8375 106.104 73.5205 106.104C74.8515 106.104 75.7315 106.874 76.0065 107.809L74.6975 108.425C74.5545 107.831 74.1695 107.391 73.5315 107.391C72.7175 107.391 72.1785 108.029 72.1785 109.107ZM78.4288 112.099C77.2958 112.099 76.4598 111.417 76.4598 110.394C76.4598 109.239 77.3838 108.755 78.5498 108.546L79.9908 108.271V108.183C79.9908 107.688 79.7378 107.38 79.0998 107.38C78.5278 107.38 78.2308 107.633 78.0988 108.15L76.6358 107.875C76.8998 106.896 77.7798 106.104 79.1548 106.104C80.6178 106.104 81.4978 106.775 81.4978 108.117V110.482C81.4978 110.79 81.6298 110.889 81.9708 110.845V112C80.9918 112.143 80.3978 111.945 80.1448 111.461C79.7708 111.868 79.1878 112.099 78.4288 112.099ZM79.9908 109.943V109.349L78.8578 109.58C78.3518 109.679 77.9778 109.844 77.9778 110.306C77.9778 110.702 78.2748 110.933 78.7368 110.933C79.3858 110.933 79.9908 110.592 79.9908 109.943ZM85.9962 112.121C85.2702 112.121 84.7202 111.835 84.3792 111.406V113.958H82.8392V106.214H84.3792V106.808C84.7202 106.39 85.2702 106.104 85.9962 106.104C87.5912 106.104 88.5152 107.468 88.5152 109.107C88.5152 110.757 87.5912 112.121 85.9962 112.121ZM84.3462 108.953V109.272C84.3462 110.251 84.8962 110.801 85.6332 110.801C86.5022 110.801 86.9642 110.108 86.9642 109.107C86.9642 108.117 86.5022 107.424 85.6332 107.424C84.8962 107.424 84.3462 107.963 84.3462 108.953ZM91.0079 112.099C89.8749 112.099 89.0389 111.417 89.0389 110.394C89.0389 109.239 89.9629 108.755 91.1289 108.546L92.5699 108.271V108.183C92.5699 107.688 92.3169 107.38 91.6789 107.38C91.1069 107.38 90.8099 107.633 90.6779 108.15L89.2149 107.875C89.4789 106.896 90.3589 106.104 91.7339 106.104C93.1969 106.104 94.0769 106.775 94.0769 108.117V110.482C94.0769 110.79 94.2089 110.889 94.5499 110.845V112C93.5709 112.143 92.9769 111.945 92.7239 111.461C92.3499 111.868 91.7669 112.099 91.0079 112.099ZM92.5699 109.943V109.349L91.4369 109.58C90.9309 109.679 90.5569 109.844 90.5569 110.306C90.5569 110.702 90.8539 110.933 91.3159 110.933C91.9649 110.933 92.5699 110.592 92.5699 109.943ZM98.5753 112.121C97.8493 112.121 97.2993 111.835 96.9583 111.406V112H95.4183V104.102H96.9583V106.808C97.2993 106.39 97.8493 106.104 98.5753 106.104C100.17 106.104 101.094 107.468 101.094 109.107C101.094 110.757 100.17 112.121 98.5753 112.121ZM96.9253 108.953V109.272C96.9253 110.251 97.4753 110.801 98.2123 110.801C99.0813 110.801 99.5433 110.108 99.5433 109.107C99.5433 108.117 99.0813 107.424 98.2123 107.424C97.4753 107.424 96.9253 107.963 96.9253 108.953ZM101.992 105.532V104.102H103.565V105.532H101.992ZM103.554 106.214V112H102.014V106.214H103.554ZM106.358 104.102V112H104.818V104.102H106.358ZM107.599 105.532V104.102H109.172V105.532H107.599ZM109.161 106.214V112H107.621V106.214H109.161ZM110.579 110.493V107.501H109.809V106.214H110.579V104.564H112.097V106.214H113.274V107.501H112.097V110.174C112.097 110.669 112.372 110.735 112.823 110.735C113.043 110.735 113.153 110.724 113.351 110.702V111.978C113.076 112.033 112.746 112.066 112.361 112.066C111.195 112.066 110.579 111.681 110.579 110.493ZM117.087 112.33C116.713 113.353 116.185 114.013 114.909 114.013C114.612 114.013 114.502 114.002 114.304 113.98V112.737C114.469 112.748 114.568 112.759 114.744 112.759C115.151 112.759 115.371 112.649 115.536 112.231L115.723 111.769L113.644 106.214H115.239L116.548 110.02L117.824 106.214H119.375L117.087 112.33Z" fill="white"/>
<rect x="12" y="106" width="4" height="4" fill="white"/>
<rect x="83.5" y="0.5" width="39" height="39" rx="19.5" fill="white"/>
<rect x="83.5" y="0.5" width="39" height="39" rx="19.5" stroke="#20336B"/>
<rect x="93" y="10" width="20" height="20" rx="4" fill="#20336B"/>
<path d="M102.505 23.2322L102.614 22.7379L103.358 22.6278L103.227 23.2322H102.505Z" fill="#4ABCEB" stroke="#4ABCEB"/>
<path d="M107.269 23.2222L107.507 22.0584L108.23 21.9729L107.939 23.2222H107.269Z" fill="#4ABCEB" stroke="#4ABCEB"/>
<mask id="path-11-inside-1_3183_30626" fill="white">
<path d="M97.1719 23.6686L99.0525 23.0332L98.9152 23.7215H97.1719V23.6686Z"/>
</mask>
<path d="M97.1719 23.6686L99.0525 23.0332L98.9152 23.7215H97.1719V23.6686Z" fill="#4ABCEB"/>
<path d="M97.1719 23.6686L96.8518 22.7212L96.1719 22.9509V23.6686H97.1719ZM99.0525 23.0332L100.033 23.2289L100.372 21.532L98.7325 22.0858L99.0525 23.0332ZM98.9152 23.7215V24.7215H99.7353L99.8958 23.9172L98.9152 23.7215ZM97.1719 23.7215H96.1719V24.7215H97.1719V23.7215ZM97.4919 24.6159L99.3726 23.9806L98.7325 22.0858L96.8518 22.7212L97.4919 24.6159ZM98.0719 22.8375L97.9345 23.5258L99.8958 23.9172L100.033 23.2289L98.0719 22.8375ZM98.9152 22.7215H97.1719V24.7215H98.9152V22.7215ZM98.1719 23.7215V23.6686H96.1719V23.7215H98.1719Z" fill="#4ABCEB" mask="url(#path-11-inside-1_3183_30626)"/>
<mask id="mask0_3183_30626" style="mask-type:luminance" maskUnits="userSpaceOnUse" x="97" y="15" width="13" height="9">
<path d="M108.886 21.4095C108.28 21.4737 107.685 21.5411 107.103 21.6118L107.661 18.9906C107.72 18.7322 107.75 18.4986 107.75 18.2899C107.75 17.545 107.299 17.1726 106.399 17.1726H105.047L104.011 22.0356C103.385 22.1335 102.784 22.2363 102.208 22.3438L103.308 17.1726H100.753C100.447 17.1726 100.264 17.3215 100.204 17.6192L99.0531 23.0626C98.344 23.2625 97.7155 23.4768 97.1797 23.7043L98.5703 17.1726C98.6691 16.7054 98.8372 16.3647 99.0748 16.1503C99.3124 15.9368 99.6836 15.8301 100.189 15.8301H106.859C107.681 15.8301 108.337 15.9942 108.827 16.3225C109.318 16.65 109.563 17.1569 109.563 17.8432C109.563 18.1314 109.543 18.3597 109.503 18.5283L108.886 21.4095Z" fill="white"/>
<path d="M108.886 21.4095C108.28 21.4737 107.685 21.5411 107.103 21.6118L107.661 18.9906C107.72 18.7322 107.75 18.4986 107.75 18.2899C107.75 17.545 107.299 17.1726 106.399 17.1726H105.047L104.011 22.0356C103.385 22.1335 102.784 22.2363 102.208 22.3438L103.308 17.1726H100.753C100.447 17.1726 100.264 17.3215 100.204 17.6192L99.0531 23.0626C98.344 23.2625 97.7155 23.4768 97.1797 23.7043L98.5703 17.1726C98.6691 16.7054 98.8372 16.3647 99.0748 16.1503C99.3124 15.9368 99.6836 15.8301 100.189 15.8301H106.859C107.681 15.8301 108.337 15.9942 108.827 16.3225C109.318 16.65 109.563 17.1569 109.563 17.8432C109.563 18.1314 109.543 18.3597 109.503 18.5283L108.886 21.4095Z" stroke="white"/>
</mask>
<g mask="url(#mask0_3183_30626)">
<path d="M149.588 29.0362H95.3828V13.9258H149.588V29.0362Z" fill="white"/>
<path d="M149.588 29.0362H95.3828V13.9258H149.588V29.0362Z" stroke="#4ABCEB"/>
</g>
<line x1="102.5" y1="182" x2="102.5" y2="128" stroke="#E7E7E7" stroke-dasharray="4 4"/>
</svg>
