<svg width="206" height="146" viewBox="0 0 206 146" fill="none" xmlns="http://www.w3.org/2000/svg">
<line x1="102.5" y1="146" x2="102.5" y2="92" stroke="#E7E7E7" stroke-dasharray="4 4"/>
<rect y="24" width="206" height="68" rx="12" fill="#FF4C7B"/>
<path d="M24.847 51.168H28.246C29.082 51.168 29.753 51.377 30.237 51.773C30.721 52.169 30.974 52.763 30.974 53.555C30.974 54.303 30.743 54.897 30.292 55.337C29.83 55.777 29.214 55.986 28.433 55.986H26.222V59H24.847V51.168ZM26.222 52.312V54.875H28.136C29.126 54.875 29.632 54.446 29.632 53.588C29.632 52.741 29.093 52.312 28.015 52.312H26.222ZM31.9419 55.073C32.0739 53.797 32.8989 53.148 34.4279 53.148C35.1319 53.148 35.7039 53.291 36.1219 53.566C36.5399 53.852 36.7599 54.281 36.7599 54.864V57.746C36.7599 57.911 36.7709 58.021 36.8149 58.076C36.8589 58.142 36.9359 58.164 37.0569 58.164C37.1449 58.164 37.2329 58.164 37.3429 58.142V59.022C37.0129 59.11 36.7489 59.143 36.5289 59.143C35.9899 59.143 35.6819 58.923 35.6049 58.461C35.1209 58.923 34.4609 59.143 33.6139 59.143C33.0199 59.143 32.5579 59 32.2169 58.692C31.8649 58.384 31.6999 57.977 31.6999 57.449C31.6999 57.295 31.7109 57.141 31.7549 56.998C31.7879 56.866 31.8319 56.745 31.8759 56.635C31.9199 56.536 31.9969 56.437 32.1069 56.349C32.2169 56.261 32.3049 56.195 32.3709 56.129C32.4369 56.074 32.5579 56.019 32.7119 55.964C32.8659 55.92 32.9869 55.876 33.0639 55.854C33.1409 55.832 33.2729 55.799 33.4709 55.766C33.6579 55.744 33.7789 55.722 33.8449 55.711C33.9109 55.7 34.0429 55.678 34.2409 55.656C34.6809 55.601 34.9889 55.557 35.1539 55.513C35.3079 55.469 35.4179 55.414 35.4839 55.326C35.5279 55.271 35.5609 55.139 35.5609 54.919C35.5609 54.347 35.1649 54.061 34.3949 54.061C33.9769 54.061 33.6799 54.138 33.4929 54.292C33.2949 54.446 33.1739 54.71 33.1299 55.073H31.9419ZM35.5499 56.151C35.4509 56.206 35.3409 56.25 35.2199 56.294C35.0879 56.338 34.9889 56.36 34.9119 56.371C34.8349 56.382 34.7139 56.393 34.5489 56.415C34.3839 56.437 34.2739 56.459 34.2299 56.459C34.0759 56.481 33.9549 56.503 33.8669 56.525C33.7789 56.547 33.6689 56.569 33.5369 56.613C33.4049 56.657 33.3059 56.712 33.2399 56.778C33.1739 56.844 33.1079 56.921 33.0639 57.031C33.0089 57.141 32.9869 57.262 32.9869 57.405C32.9869 57.68 33.0749 57.889 33.2509 58.032C33.4269 58.186 33.6799 58.252 34.0099 58.252C34.5599 58.252 34.9889 58.109 35.2969 57.801C35.4619 57.636 35.5499 57.306 35.5499 56.822V56.151ZM41.3212 53.214V54.413C41.1012 54.391 40.9472 54.38 40.8812 54.38C39.7812 54.38 39.2422 55.095 39.2422 56.503V59H37.9992V53.324H39.1762V54.457C39.5722 53.621 40.2102 53.192 41.0792 53.192L41.3212 53.214ZM44.7484 53.324V54.237H43.6044V57.229C43.6044 57.405 43.6044 57.537 43.6154 57.603C43.6154 57.669 43.6374 57.746 43.6814 57.834C43.7144 57.922 43.7804 57.977 43.8684 57.999C43.9564 58.032 44.0884 58.043 44.2534 58.043C44.4514 58.043 44.6164 58.043 44.7484 58.021V59.011C44.4954 59.044 44.2094 59.055 43.9014 59.055C43.6814 59.055 43.4834 59.044 43.3184 59.011C43.1534 58.978 43.0214 58.934 42.9114 58.89C42.8014 58.846 42.7024 58.78 42.6364 58.67C42.5594 58.56 42.5044 58.472 42.4604 58.406C42.4164 58.34 42.3944 58.208 42.3724 58.032C42.3504 57.856 42.3504 57.724 42.3504 57.636V57.152V57.086V57.02V56.943V54.237H41.4044V53.324H42.3504V51.619H43.6044V53.324H44.7484ZM46.8385 53.324V54.16C47.2895 53.5 47.9165 53.17 48.7195 53.17C49.3575 53.17 49.8415 53.346 50.1605 53.698C50.4795 54.05 50.6445 54.556 50.6445 55.216V59H49.3905V55.7C49.3905 55.48 49.3795 55.293 49.3575 55.139C49.3355 54.985 49.2805 54.831 49.2145 54.677C49.1485 54.523 49.0385 54.413 48.8845 54.336C48.7305 54.259 48.5325 54.215 48.2905 54.215C47.3665 54.215 46.9045 54.798 46.9045 55.942V59H45.6505V53.324H46.8385ZM57.0379 57.229C56.8949 57.845 56.5869 58.329 56.1249 58.67C55.6629 59.022 55.1019 59.187 54.4639 59.187C53.6059 59.187 52.9239 58.912 52.4179 58.362C51.9119 57.812 51.6699 57.097 51.6699 56.228C51.6699 55.348 51.9229 54.611 52.4399 54.028C52.9569 53.456 53.6169 53.159 54.4199 53.159C55.2449 53.159 55.9049 53.445 56.3889 54.017C56.8729 54.589 57.1149 55.359 57.1149 56.338V56.47H52.9239C52.9349 57.042 53.0779 57.493 53.3529 57.801C53.6169 58.109 54.0019 58.263 54.4859 58.263C54.8269 58.263 55.1019 58.186 55.3219 58.021C55.5419 57.856 55.7069 57.592 55.8389 57.229H57.0379ZM55.8609 55.634C55.8169 55.161 55.6739 54.787 55.4099 54.512C55.1459 54.237 54.8159 54.094 54.4089 54.094C53.9909 54.094 53.6609 54.226 53.4079 54.49C53.1549 54.754 53.0009 55.139 52.9459 55.634H55.8609ZM61.2802 53.214V54.413C61.0602 54.391 60.9062 54.38 60.8402 54.38C59.7402 54.38 59.2012 55.095 59.2012 56.503V59H57.9582V53.324H59.1352V54.457C59.5312 53.621 60.1692 53.192 61.0382 53.192L61.2802 53.214ZM66.4344 54.974H65.2354C65.1584 54.38 64.7514 54.072 64.0034 54.072C63.6734 54.072 63.4314 54.138 63.2554 54.248C63.0794 54.369 62.9914 54.534 62.9914 54.732C62.9914 54.798 62.9914 54.864 63.0024 54.908C63.0134 54.963 63.0354 55.007 63.0684 55.051C63.1014 55.095 63.1344 55.128 63.1564 55.15C63.1784 55.183 63.2334 55.216 63.2994 55.238C63.3654 55.271 63.4094 55.293 63.4534 55.315C63.4974 55.337 63.5634 55.359 63.6624 55.381C63.7504 55.403 63.8274 55.425 63.8824 55.436C63.9374 55.458 64.0254 55.48 64.1574 55.502C64.2784 55.524 64.3774 55.546 64.4434 55.557C64.7294 55.623 64.9274 55.678 65.0594 55.711C65.1914 55.744 65.3784 55.81 65.6204 55.909C65.8624 56.008 66.0494 56.107 66.1704 56.217C66.2804 56.327 66.3904 56.47 66.4894 56.657C66.5884 56.844 66.6434 57.053 66.6434 57.295C66.6434 57.867 66.4124 58.329 65.9724 58.659C65.5214 59 64.9164 59.165 64.1684 59.165C63.3544 59.165 62.7384 59 62.3094 58.659C61.8694 58.329 61.6384 57.834 61.6164 57.185H62.8154C62.8814 57.9 63.3324 58.252 64.1904 58.252C64.5534 58.252 64.8504 58.186 65.0704 58.032C65.2904 57.878 65.4114 57.68 65.4114 57.427C65.4114 57.306 65.3784 57.196 65.3234 57.108C65.2684 57.02 65.1804 56.954 65.0594 56.888C64.9274 56.822 64.8064 56.778 64.6964 56.745C64.5864 56.712 64.4324 56.668 64.2454 56.624L64.1794 56.613C64.1574 56.613 64.1464 56.602 64.1244 56.602C64.1024 56.602 64.0804 56.591 64.0584 56.58C63.2444 56.382 62.7384 56.228 62.5184 56.118C61.9904 55.876 61.7374 55.458 61.7374 54.875C61.7374 54.347 61.9354 53.929 62.3534 53.621C62.7604 53.313 63.3324 53.159 64.0584 53.159C64.7514 53.159 65.3234 53.313 65.7634 53.61C66.2034 53.918 66.4344 54.369 66.4344 54.974ZM68.8935 51.168V54.105C69.3115 53.489 69.9055 53.181 70.6865 53.181C71.3025 53.181 71.7755 53.357 72.1275 53.687C72.4685 54.017 72.6445 54.512 72.6445 55.15V59H71.3795V55.557C71.3795 55.128 71.3025 54.798 71.1485 54.567C70.9945 54.347 70.7085 54.226 70.2795 54.226C69.7955 54.226 69.4435 54.391 69.2235 54.699C69.0035 55.018 68.8935 55.436 68.8935 55.953V59H67.6505V51.168H68.8935ZM75.2429 51.135V52.367H73.9889V51.135H75.2429ZM75.2429 53.324V59H73.9889V53.324H75.2429ZM77.8082 53.324V54.083C78.1822 53.467 78.7982 53.159 79.6562 53.159C80.4372 53.159 81.0642 53.434 81.5372 53.984C81.9992 54.534 82.2412 55.271 82.2412 56.184C82.2412 57.086 82.0102 57.801 81.5482 58.34C81.0862 58.879 80.4812 59.143 79.7222 59.143C78.9082 59.143 78.2922 58.846 77.8742 58.252V61.101H76.6312V53.324H77.8082ZM79.4032 54.171C78.9082 54.171 78.5232 54.347 78.2482 54.699C77.9622 55.051 77.8302 55.546 77.8302 56.162C77.8302 56.778 77.9622 57.262 78.2482 57.614C78.5342 57.966 78.9192 58.142 79.4252 58.142C79.8982 58.142 80.2722 57.966 80.5582 57.614C80.8332 57.262 80.9762 56.789 80.9762 56.184C80.9762 55.568 80.8332 55.084 80.5472 54.721C80.2612 54.358 79.8872 54.171 79.4032 54.171ZM85.8674 53.324H87.1984L88.3204 57.581L89.3874 53.324H90.6524L91.6974 57.581L92.8744 53.324H94.1504L92.3574 59H91.0704L90.0034 54.787L88.9474 59H87.6274L85.8674 53.324ZM96.2439 51.135V52.367H94.9899V51.135H96.2439ZM96.2439 53.324V59H94.9899V53.324H96.2439ZM100.382 53.324V54.237H99.2382V57.229C99.2382 57.405 99.2382 57.537 99.2492 57.603C99.2492 57.669 99.2712 57.746 99.3152 57.834C99.3482 57.922 99.4142 57.977 99.5022 57.999C99.5902 58.032 99.7222 58.043 99.8872 58.043C100.085 58.043 100.25 58.043 100.382 58.021V59.011C100.129 59.044 99.8432 59.055 99.5352 59.055C99.3152 59.055 99.1172 59.044 98.9522 59.011C98.7872 58.978 98.6552 58.934 98.5452 58.89C98.4352 58.846 98.3362 58.78 98.2702 58.67C98.1932 58.56 98.1382 58.472 98.0942 58.406C98.0502 58.34 98.0282 58.208 98.0062 58.032C97.9842 57.856 97.9842 57.724 97.9842 57.636V57.152V57.086V57.02V56.943V54.237H97.0382V53.324H97.9842V51.619H99.2382V53.324H100.382ZM102.527 51.168V54.105C102.945 53.489 103.539 53.181 104.32 53.181C104.936 53.181 105.409 53.357 105.761 53.687C106.102 54.017 106.278 54.512 106.278 55.15V59H105.013V55.557C105.013 55.128 104.936 54.798 104.782 54.567C104.628 54.347 104.342 54.226 103.913 54.226C103.429 54.226 103.077 54.391 102.857 54.699C102.637 55.018 102.527 55.436 102.527 55.953V59H101.284V51.168H102.527ZM110.838 51.168H114.237C115.073 51.168 115.744 51.377 116.228 51.773C116.712 52.169 116.965 52.763 116.965 53.555C116.965 54.303 116.734 54.897 116.283 55.337C115.821 55.777 115.205 55.986 114.424 55.986H112.213V59H110.838V51.168ZM112.213 52.312V54.875H114.127C115.117 54.875 115.623 54.446 115.623 53.588C115.623 52.741 115.084 52.312 114.006 52.312H112.213ZM121.2 53.214V54.413C120.98 54.391 120.826 54.38 120.76 54.38C119.66 54.38 119.121 55.095 119.121 56.503V59H117.878V53.324H119.055V54.457C119.451 53.621 120.089 53.192 120.958 53.192L121.2 53.214ZM124.291 53.159C125.149 53.159 125.842 53.434 126.359 53.973C126.865 54.523 127.129 55.249 127.129 56.162C127.129 57.086 126.865 57.823 126.359 58.362C125.853 58.912 125.16 59.176 124.291 59.176C123.4 59.176 122.696 58.912 122.179 58.362C121.651 57.823 121.398 57.086 121.398 56.162C121.398 55.249 121.651 54.523 122.179 53.973C122.707 53.434 123.411 53.159 124.291 53.159ZM124.269 54.149C123.763 54.149 123.378 54.336 123.092 54.688C122.806 55.051 122.663 55.546 122.663 56.162C122.663 56.8 122.806 57.306 123.092 57.658C123.378 58.021 123.774 58.197 124.28 58.197C124.764 58.197 125.149 58.021 125.435 57.658C125.721 57.295 125.864 56.789 125.864 56.151C125.864 55.535 125.721 55.04 125.435 54.688C125.149 54.336 124.764 54.149 124.269 54.149ZM129.381 53.324V54.083C129.755 53.467 130.371 53.159 131.229 53.159C132.01 53.159 132.637 53.434 133.11 53.984C133.572 54.534 133.814 55.271 133.814 56.184C133.814 57.086 133.583 57.801 133.121 58.34C132.659 58.879 132.054 59.143 131.295 59.143C130.481 59.143 129.865 58.846 129.447 58.252V61.101H128.204V53.324H129.381ZM130.976 54.171C130.481 54.171 130.096 54.347 129.821 54.699C129.535 55.051 129.403 55.546 129.403 56.162C129.403 56.778 129.535 57.262 129.821 57.614C130.107 57.966 130.492 58.142 130.998 58.142C131.471 58.142 131.845 57.966 132.131 57.614C132.406 57.262 132.549 56.789 132.549 56.184C132.549 55.568 132.406 55.084 132.12 54.721C131.834 54.358 131.46 54.171 130.976 54.171ZM136.161 51.168V54.105C136.579 53.489 137.173 53.181 137.954 53.181C138.57 53.181 139.043 53.357 139.395 53.687C139.736 54.017 139.912 54.512 139.912 55.15V59H138.647V55.557C138.647 55.128 138.57 54.798 138.416 54.567C138.262 54.347 137.976 54.226 137.547 54.226C137.063 54.226 136.711 54.391 136.491 54.699C136.271 55.018 136.161 55.436 136.161 55.953V59H134.918V51.168H136.161ZM142.51 51.135V52.367H141.256V51.135H142.51ZM142.51 53.324V59H141.256V53.324H142.51ZM148.86 53.324V59H147.683V58.153C147.199 58.824 146.583 59.154 145.813 59.154C145.186 59.154 144.702 58.978 144.372 58.626C144.042 58.274 143.877 57.757 143.877 57.086V53.324H145.131V56.569C145.131 56.767 145.131 56.932 145.142 57.053C145.142 57.174 145.164 57.306 145.208 57.46C145.252 57.614 145.307 57.724 145.384 57.801C145.461 57.889 145.571 57.955 145.714 58.01C145.857 58.076 146.033 58.098 146.242 58.098C146.704 58.098 147.056 57.933 147.276 57.603C147.496 57.273 147.606 56.844 147.606 56.327V53.324H148.86ZM154.692 54.974H153.493C153.416 54.38 153.009 54.072 152.261 54.072C151.931 54.072 151.689 54.138 151.513 54.248C151.337 54.369 151.249 54.534 151.249 54.732C151.249 54.798 151.249 54.864 151.26 54.908C151.271 54.963 151.293 55.007 151.326 55.051C151.359 55.095 151.392 55.128 151.414 55.15C151.436 55.183 151.491 55.216 151.557 55.238C151.623 55.271 151.667 55.293 151.711 55.315C151.755 55.337 151.821 55.359 151.92 55.381C152.008 55.403 152.085 55.425 152.14 55.436C152.195 55.458 152.283 55.48 152.415 55.502C152.536 55.524 152.635 55.546 152.701 55.557C152.987 55.623 153.185 55.678 153.317 55.711C153.449 55.744 153.636 55.81 153.878 55.909C154.12 56.008 154.307 56.107 154.428 56.217C154.538 56.327 154.648 56.47 154.747 56.657C154.846 56.844 154.901 57.053 154.901 57.295C154.901 57.867 154.67 58.329 154.23 58.659C153.779 59 153.174 59.165 152.426 59.165C151.612 59.165 150.996 59 150.567 58.659C150.127 58.329 149.896 57.834 149.874 57.185H151.073C151.139 57.9 151.59 58.252 152.448 58.252C152.811 58.252 153.108 58.186 153.328 58.032C153.548 57.878 153.669 57.68 153.669 57.427C153.669 57.306 153.636 57.196 153.581 57.108C153.526 57.02 153.438 56.954 153.317 56.888C153.185 56.822 153.064 56.778 152.954 56.745C152.844 56.712 152.69 56.668 152.503 56.624L152.437 56.613C152.415 56.613 152.404 56.602 152.382 56.602C152.36 56.602 152.338 56.591 152.316 56.58C151.502 56.382 150.996 56.228 150.776 56.118C150.248 55.876 149.995 55.458 149.995 54.875C149.995 54.347 150.193 53.929 150.611 53.621C151.018 53.313 151.59 53.159 152.316 53.159C153.009 53.159 153.581 53.313 154.021 53.61C154.461 53.918 154.692 54.369 154.692 54.974ZM157.514 57.515V58.637C157.514 59.209 157.404 59.671 157.184 60.023C156.964 60.375 156.568 60.606 156.018 60.727V60.067C156.469 59.935 156.711 59.572 156.733 59H156.018V57.515H157.514ZM30.457 67.168V68.323H26.178V70.402H30.149V71.513H26.178V73.823H30.523V75H24.814V67.168H30.457ZM37.3747 67.168V68.356H34.8777V75H33.5027V68.356H31.0057V67.168H37.3747ZM40.3115 69.214V70.413C40.0915 70.391 39.9375 70.38 39.8715 70.38C38.7715 70.38 38.2325 71.095 38.2325 72.503V75H36.9895V69.324H38.1665V70.457C38.5625 69.621 39.2005 69.192 40.0695 69.192L40.3115 69.214ZM40.9116 71.073C41.0436 69.797 41.8686 69.148 43.3976 69.148C44.1016 69.148 44.6736 69.291 45.0916 69.566C45.5096 69.852 45.7296 70.281 45.7296 70.864V73.746C45.7296 73.911 45.7406 74.021 45.7846 74.076C45.8286 74.142 45.9056 74.164 46.0266 74.164C46.1146 74.164 46.2026 74.164 46.3126 74.142V75.022C45.9826 75.11 45.7186 75.143 45.4986 75.143C44.9596 75.143 44.6516 74.923 44.5746 74.461C44.0906 74.923 43.4306 75.143 42.5836 75.143C41.9896 75.143 41.5276 75 41.1866 74.692C40.8346 74.384 40.6696 73.977 40.6696 73.449C40.6696 73.295 40.6806 73.141 40.7246 72.998C40.7576 72.866 40.8016 72.745 40.8456 72.635C40.8896 72.536 40.9666 72.437 41.0766 72.349C41.1866 72.261 41.2746 72.195 41.3406 72.129C41.4066 72.074 41.5276 72.019 41.6816 71.964C41.8356 71.92 41.9566 71.876 42.0336 71.854C42.1106 71.832 42.2426 71.799 42.4406 71.766C42.6276 71.744 42.7486 71.722 42.8146 71.711C42.8806 71.7 43.0126 71.678 43.2106 71.656C43.6506 71.601 43.9586 71.557 44.1236 71.513C44.2776 71.469 44.3876 71.414 44.4536 71.326C44.4976 71.271 44.5306 71.139 44.5306 70.919C44.5306 70.347 44.1346 70.061 43.3646 70.061C42.9466 70.061 42.6496 70.138 42.4626 70.292C42.2646 70.446 42.1436 70.71 42.0996 71.073H40.9116ZM44.5196 72.151C44.4206 72.206 44.3106 72.25 44.1896 72.294C44.0576 72.338 43.9586 72.36 43.8816 72.371C43.8046 72.382 43.6836 72.393 43.5186 72.415C43.3536 72.437 43.2436 72.459 43.1996 72.459C43.0456 72.481 42.9246 72.503 42.8366 72.525C42.7486 72.547 42.6386 72.569 42.5066 72.613C42.3746 72.657 42.2756 72.712 42.2096 72.778C42.1436 72.844 42.0776 72.921 42.0336 73.031C41.9786 73.141 41.9566 73.262 41.9566 73.405C41.9566 73.68 42.0446 73.889 42.2206 74.032C42.3966 74.186 42.6496 74.252 42.9796 74.252C43.5296 74.252 43.9586 74.109 44.2666 73.801C44.4316 73.636 44.5196 73.306 44.5196 72.822V72.151ZM48.2779 69.324V70.16C48.7289 69.5 49.3559 69.17 50.1589 69.17C50.7969 69.17 51.2809 69.346 51.5999 69.698C51.9189 70.05 52.0839 70.556 52.0839 71.216V75H50.8299V71.7C50.8299 71.48 50.8189 71.293 50.7969 71.139C50.7749 70.985 50.7199 70.831 50.6539 70.677C50.5879 70.523 50.4779 70.413 50.3239 70.336C50.1699 70.259 49.9719 70.215 49.7299 70.215C48.8059 70.215 48.3439 70.798 48.3439 71.942V75H47.0899V69.324H48.2779ZM57.8174 69.324V70.204L54.6054 73.988H57.9824V75H52.9774V74.043L56.1454 70.314H53.1974V69.324H57.8174ZM58.8404 71.073C58.9724 69.797 59.7974 69.148 61.3264 69.148C62.0304 69.148 62.6024 69.291 63.0204 69.566C63.4384 69.852 63.6584 70.281 63.6584 70.864V73.746C63.6584 73.911 63.6694 74.021 63.7134 74.076C63.7574 74.142 63.8344 74.164 63.9554 74.164C64.0434 74.164 64.1314 74.164 64.2414 74.142V75.022C63.9114 75.11 63.6474 75.143 63.4274 75.143C62.8884 75.143 62.5804 74.923 62.5034 74.461C62.0194 74.923 61.3594 75.143 60.5124 75.143C59.9184 75.143 59.4564 75 59.1154 74.692C58.7634 74.384 58.5984 73.977 58.5984 73.449C58.5984 73.295 58.6094 73.141 58.6534 72.998C58.6864 72.866 58.7304 72.745 58.7744 72.635C58.8184 72.536 58.8954 72.437 59.0054 72.349C59.1154 72.261 59.2034 72.195 59.2694 72.129C59.3354 72.074 59.4564 72.019 59.6104 71.964C59.7644 71.92 59.8854 71.876 59.9624 71.854C60.0394 71.832 60.1714 71.799 60.3694 71.766C60.5564 71.744 60.6774 71.722 60.7434 71.711C60.8094 71.7 60.9414 71.678 61.1394 71.656C61.5794 71.601 61.8874 71.557 62.0524 71.513C62.2064 71.469 62.3164 71.414 62.3824 71.326C62.4264 71.271 62.4594 71.139 62.4594 70.919C62.4594 70.347 62.0634 70.061 61.2934 70.061C60.8754 70.061 60.5784 70.138 60.3914 70.292C60.1934 70.446 60.0724 70.71 60.0284 71.073H58.8404ZM62.4484 72.151C62.3494 72.206 62.2394 72.25 62.1184 72.294C61.9864 72.338 61.8874 72.36 61.8104 72.371C61.7334 72.382 61.6124 72.393 61.4474 72.415C61.2824 72.437 61.1724 72.459 61.1284 72.459C60.9744 72.481 60.8534 72.503 60.7654 72.525C60.6774 72.547 60.5674 72.569 60.4354 72.613C60.3034 72.657 60.2044 72.712 60.1384 72.778C60.0724 72.844 60.0064 72.921 59.9624 73.031C59.9074 73.141 59.8854 73.262 59.8854 73.405C59.8854 73.68 59.9734 73.889 60.1494 74.032C60.3254 74.186 60.5784 74.252 60.9084 74.252C61.4584 74.252 61.8874 74.109 62.1954 73.801C62.3604 73.636 62.4484 73.306 62.4484 72.822V72.151ZM70.1557 72.855C70.0677 73.559 69.7817 74.109 69.3197 74.527C68.8467 74.945 68.2527 75.143 67.5487 75.143C66.6907 75.143 66.0197 74.879 65.5137 74.34C65.0077 73.801 64.7547 73.097 64.7547 72.217C64.7547 71.282 65.0077 70.534 65.5137 69.984C66.0197 69.434 66.7127 69.148 67.5817 69.148C68.3077 69.148 68.8907 69.335 69.3307 69.698C69.7707 70.072 70.0347 70.578 70.1117 71.227H68.8687C68.7917 70.875 68.6487 70.6 68.4287 70.402C68.2087 70.215 67.9227 70.116 67.5927 70.116C67.1087 70.116 66.7237 70.303 66.4487 70.666C66.1627 71.029 66.0307 71.524 66.0307 72.151C66.0307 72.789 66.1627 73.273 66.4267 73.625C66.6907 73.977 67.0647 74.153 67.5487 74.153C67.9227 74.153 68.2197 74.043 68.4617 73.823C68.7037 73.603 68.8577 73.273 68.9237 72.855H70.1557ZM73.892 69.324V70.237H72.748V73.229C72.748 73.405 72.748 73.537 72.759 73.603C72.759 73.669 72.781 73.746 72.825 73.834C72.858 73.922 72.924 73.977 73.012 73.999C73.1 74.032 73.232 74.043 73.397 74.043C73.595 74.043 73.76 74.043 73.892 74.021V75.011C73.639 75.044 73.353 75.055 73.045 75.055C72.825 75.055 72.627 75.044 72.462 75.011C72.297 74.978 72.165 74.934 72.055 74.89C71.945 74.846 71.846 74.78 71.78 74.67C71.703 74.56 71.648 74.472 71.604 74.406C71.56 74.34 71.538 74.208 71.516 74.032C71.494 73.856 71.494 73.724 71.494 73.636V73.152V73.086V73.02V72.943V70.237H70.548V69.324H71.494V67.619H72.748V69.324H73.892Z" fill="white"/>
<rect x="12" y="55" width="4" height="4" fill="white"/>
<rect x="83.5" y="4.5" width="39" height="39" rx="19.5" fill="white"/>
<rect x="83.5" y="4.5" width="39" height="39" rx="19.5" stroke="#FF4C7B"/>
<mask id="path-6-inside-1_3183_30616" fill="white">
<path d="M115.975 24.2258L113.131 16.2625C113.096 16.1632 113.025 16.0826 112.935 16.038C112.845 15.9934 112.742 15.9882 112.649 16.0236L109.652 17.1692C109.604 17.1877 109.56 17.2164 109.523 17.2535C109.485 17.2906 109.455 17.3355 109.434 17.3854C109.413 17.4353 109.401 17.4892 109.4 17.544C109.398 17.5987 109.407 17.6532 109.426 17.7042L109.687 18.4117L107.642 19.4523L104.286 18.7769C103.96 18.7114 103.624 18.7189 103.3 18.7989C102.976 18.8789 102.671 19.0296 102.403 19.2417L101.804 19.7184L101.407 19.412C101.107 19.182 100.762 19.0282 100.399 18.9622C100.035 18.8961 99.6625 18.9197 99.3088 19.0311L98.021 19.442L96.334 18.3611L96.5762 17.7048C96.5949 17.6538 96.6039 17.5993 96.6026 17.5445C96.6013 17.4897 96.5897 17.4358 96.5686 17.3859C96.5475 17.336 96.5172 17.2912 96.4796 17.2541C96.442 17.2169 96.3979 17.1883 96.3498 17.1698L93.3516 16.0236C93.2579 15.9879 93.1548 15.9929 93.0645 16.0375C92.9741 16.0822 92.9037 16.1629 92.8682 16.2625L90.0254 24.2258C89.9902 24.3239 89.9916 24.4327 90.0295 24.5297C90.0673 24.6266 90.1386 24.7042 90.2285 24.7461L93.0723 26.0594C93.1192 26.081 93.1696 26.0924 93.2206 26.0928C93.2717 26.0932 93.3222 26.0826 93.3694 26.0616C93.4165 26.0407 93.4592 26.0098 93.495 25.9708C93.5308 25.9318 93.5588 25.8855 93.5776 25.8346L93.864 25.058L96.2213 26.4817C96.0624 26.7289 95.9893 27.0278 96.0145 27.3267C96.0397 27.6256 96.1617 27.9056 96.3594 28.1182C96.4706 28.2374 96.6027 28.3319 96.748 28.3963C96.8934 28.4606 97.0492 28.4936 97.2064 28.4932H97.2364C97.2631 28.8125 97.4004 29.1095 97.6213 29.3257C97.8422 29.5419 98.1306 29.6616 98.4298 29.6611H98.4607C98.4849 29.9612 98.6072 30.2424 98.8061 30.4552C98.9172 30.5744 99.0493 30.6689 99.1947 30.7332C99.34 30.7976 99.4958 30.8305 99.6531 30.8302H99.6831C99.7032 31.0734 99.7877 31.3054 99.9266 31.499C100.066 31.6926 100.253 31.8397 100.467 31.923C100.681 32.0063 100.913 32.0224 101.136 31.9694C101.358 31.9164 101.562 31.7964 101.723 31.6237L102.175 31.1393L102.788 31.6291C103.047 31.8363 103.368 31.9361 103.691 31.9101C104.013 31.8841 104.316 31.7341 104.544 31.4876L104.587 31.4408C104.779 31.2305 104.907 30.9621 104.953 30.6718C105.182 30.7411 105.424 30.7438 105.654 30.6797C105.885 30.6155 106.095 30.4867 106.264 30.3066L106.295 30.2729C106.509 30.0443 106.644 29.7448 106.678 29.4233C106.909 29.497 107.154 29.5023 107.388 29.4386C107.621 29.3748 107.834 29.2445 108.004 29.0614L108.025 29.0385C108.234 28.8172 108.367 28.5279 108.405 28.2162C108.611 28.2687 108.825 28.2684 109.031 28.2151C109.236 28.1619 109.427 28.0573 109.587 27.9098C109.748 27.7624 109.873 27.5764 109.954 27.3669C110.034 27.1575 110.067 26.9306 110.05 26.7048C110.043 26.6173 110.029 26.5306 110.008 26.4458L112.222 25.2844L112.425 25.833C112.443 25.8839 112.471 25.9303 112.507 25.9694C112.543 26.0085 112.586 26.0395 112.633 26.0605C112.68 26.0814 112.731 26.092 112.782 26.0915C112.833 26.0911 112.883 26.0796 112.93 26.0577L115.774 24.7445C115.863 24.7021 115.933 24.6247 115.971 24.5282C116.008 24.4317 116.01 24.3234 115.975 24.2258ZM93.0129 25.1434L90.8674 24.1518L93.4456 16.927L94.0778 17.1681L92.859 20.8809C92.8254 20.9831 92.831 21.0955 92.8746 21.1932C92.9182 21.291 92.9963 21.3662 93.0916 21.4023C93.187 21.4384 93.2918 21.4324 93.383 21.3857C93.4743 21.3389 93.5444 21.2552 93.5781 21.1531L94.7938 17.4441L95.7206 17.7984L93.0129 25.1434ZM97.5157 27.5408C97.4335 27.6254 97.3236 27.6721 97.2096 27.671C97.0956 27.6699 96.9866 27.621 96.9058 27.5348C96.825 27.4486 96.779 27.3319 96.7774 27.2097C96.7759 27.0876 96.8191 26.9696 96.8977 26.8812L97.7102 26.0104C97.7713 25.9451 97.8491 25.9007 97.9337 25.8828C98.0183 25.8649 98.106 25.8742 98.1856 25.9096C98.2653 25.945 98.3334 26.0048 98.3814 26.0817C98.4294 26.1585 98.455 26.2488 98.4552 26.3413C98.4554 26.4027 98.4441 26.4635 98.4222 26.5202C98.4002 26.577 98.3679 26.6284 98.3272 26.6716L97.5157 27.5408ZM98.8066 28.638C98.7837 28.6619 98.7634 28.6875 98.7431 28.7131L98.739 28.7082C98.6989 28.7532 98.6508 28.7892 98.5975 28.814C98.5442 28.8389 98.4868 28.852 98.4287 28.8527C98.3706 28.8535 98.3129 28.8418 98.2591 28.8183C98.2053 28.7948 98.1564 28.76 98.1152 28.716C98.0741 28.672 98.0417 28.6196 98.0197 28.5619C97.9977 28.5043 97.9868 28.4425 97.9874 28.3802C97.988 28.3179 98.0003 28.2564 98.0234 28.1993C98.0465 28.1421 98.08 28.0905 98.122 28.0475L98.8675 27.2491C98.8898 27.2251 98.9112 27.2001 98.9315 27.1745L98.935 27.1783C99.0174 27.0939 99.1273 27.0473 99.2413 27.0487C99.3553 27.05 99.4643 27.0991 99.5449 27.1854C99.6255 27.2718 99.6714 27.3885 99.6728 27.5107C99.6741 27.6328 99.6308 27.7507 99.552 27.839L98.8066 28.638ZM99.9603 29.8745C99.8773 29.9544 99.7689 29.9971 99.6573 29.9939C99.5458 29.9908 99.4397 29.9419 99.3607 29.8575C99.2817 29.773 99.236 29.6593 99.2329 29.5398C99.2297 29.4202 99.2694 29.304 99.3438 29.2149L100.156 28.3441C100.196 28.2962 100.244 28.2575 100.298 28.2304C100.352 28.2033 100.41 28.1882 100.47 28.1862C100.529 28.1842 100.588 28.1953 100.644 28.2188C100.699 28.2423 100.75 28.2777 100.792 28.3228C100.834 28.3679 100.867 28.4218 100.889 28.4811C100.911 28.5404 100.921 28.6039 100.919 28.6677C100.918 28.7315 100.904 28.7942 100.878 28.852C100.853 28.9098 100.817 28.9614 100.772 29.0037L99.9603 29.8745ZM101.996 30.1716L101.183 31.0424C101.101 31.1269 100.991 31.1734 100.877 31.1721C100.763 31.1707 100.654 31.1216 100.573 31.0353C100.493 30.949 100.447 30.8322 100.445 30.7101C100.444 30.5879 100.487 30.47 100.566 30.3817L101.312 29.5833C101.334 29.5594 101.355 29.5343 101.376 29.5087L101.379 29.5126C101.462 29.4281 101.571 29.3816 101.685 29.3829C101.799 29.3842 101.908 29.4333 101.989 29.5197C102.07 29.606 102.116 29.7227 102.117 29.8449C102.118 29.9671 102.075 30.0849 101.996 30.1733L101.996 30.1716ZM109.123 27.2545C109.022 27.3642 108.886 27.429 108.742 27.436C108.598 27.4429 108.457 27.3915 108.347 27.2921L108.05 27.027C108.03 26.9947 108.005 26.9657 107.976 26.941L107.291 26.3511C107.212 26.2875 107.113 26.2593 107.015 26.2723C106.917 26.2854 106.828 26.3388 106.766 26.4212C106.704 26.5036 106.674 26.6085 106.683 26.714C106.692 26.8194 106.739 26.917 106.813 26.9862L107.404 27.4972C107.421 27.5216 107.44 27.544 107.46 27.5642C107.519 27.6199 107.566 27.6879 107.6 27.764C107.633 27.8401 107.651 27.9227 107.654 28.0068C107.656 28.0908 107.642 28.1744 107.614 28.2525C107.585 28.3307 107.541 28.4016 107.486 28.4611L107.464 28.4839C107.368 28.5876 107.24 28.6511 107.104 28.6631C106.968 28.6751 106.833 28.6347 106.722 28.5492L106.133 28.0975L106.127 28.0926L105.905 27.9223C105.823 27.8593 105.721 27.8338 105.621 27.8515C105.521 27.8693 105.432 27.9287 105.373 28.0167C105.315 28.1048 105.291 28.2142 105.307 28.321C105.324 28.4278 105.379 28.5233 105.461 28.5863L105.688 28.7599C105.755 28.8124 105.811 28.8798 105.852 28.9577C105.892 29.0355 105.916 29.1218 105.923 29.2107C105.929 29.2996 105.918 29.3889 105.889 29.4725C105.86 29.556 105.814 29.6319 105.756 29.6949L105.724 29.7286C105.62 29.8395 105.481 29.904 105.335 29.909C105.188 29.9139 105.046 29.859 104.936 29.7553L104.301 29.1566C104.265 29.1161 104.221 29.0841 104.172 29.0626C104.124 29.0411 104.071 29.0307 104.019 29.0318C103.966 29.033 103.915 29.0458 103.867 29.0695C103.819 29.0931 103.777 29.127 103.742 29.1692C103.707 29.2113 103.681 29.2607 103.665 29.3142C103.648 29.3678 103.643 29.4244 103.648 29.4804C103.653 29.5364 103.669 29.5907 103.695 29.6397C103.721 29.6888 103.755 29.7317 103.797 29.7656L104.013 29.9703C104.072 30.0257 104.12 30.0934 104.153 30.1692C104.187 30.245 104.205 30.3274 104.208 30.4112C104.211 30.4951 104.198 30.5787 104.169 30.6569C104.141 30.7351 104.098 30.8063 104.043 30.8661L104 30.9129C103.902 31.019 103.771 31.0836 103.633 31.0948C103.494 31.106 103.356 31.0631 103.244 30.9738L102.695 30.5352C102.811 30.3412 102.876 30.1173 102.884 29.887C102.891 29.6568 102.841 29.4287 102.737 29.2266C102.634 29.0245 102.482 28.8559 102.297 28.7384C102.112 28.621 101.901 28.559 101.686 28.559H101.656C101.63 28.2398 101.492 27.9429 101.272 27.7266C101.051 27.5104 100.763 27.3905 100.464 27.3906H100.433C100.405 27.0667 100.263 26.7662 100.036 26.5503C99.8093 26.3343 99.5142 26.2191 99.2108 26.2281C99.1869 25.928 99.0643 25.6468 98.865 25.4346C98.6402 25.1941 98.3355 25.059 98.0179 25.059C97.7003 25.059 97.3957 25.1941 97.1709 25.4346L96.7611 25.8732L94.1458 24.2949L96.0491 19.1334L97.7727 20.2376C97.818 20.2667 97.8685 20.2854 97.921 20.2924C97.9734 20.2994 98.0267 20.2947 98.0773 20.2785L99.5256 19.8164C99.7676 19.74 100.023 19.7237 100.271 19.7687C100.52 19.8136 100.756 19.9187 100.961 20.076L101.161 20.2306L99.1255 21.8497C98.9744 21.9699 98.8516 22.1261 98.7666 22.306C98.6817 22.4859 98.637 22.6846 98.6361 22.8862C98.6352 23.0878 98.6781 23.2869 98.7615 23.4676C98.8449 23.6484 98.9663 23.8059 99.1163 23.9276C99.3992 24.1552 99.7397 24.2859 100.093 24.3025C100.447 24.3191 100.796 24.2209 101.097 24.0206L102.695 22.9425C102.881 23.3398 103.229 23.8797 103.832 24.2122C104.531 24.5975 105.381 24.6073 106.361 24.2416L109.053 26.319C109.12 26.3713 109.177 26.4387 109.218 26.5166C109.258 26.5945 109.283 26.681 109.29 26.7701C109.297 26.8592 109.285 26.9488 109.256 27.0327C109.228 27.1166 109.182 27.1929 109.123 27.2561V27.2545ZM109.613 25.7437L106.643 23.4525C106.591 23.4128 106.531 23.3875 106.468 23.379C106.405 23.3704 106.341 23.3788 106.282 23.4035C105.434 23.7561 104.73 23.7844 104.187 23.49C103.469 23.0987 103.249 22.2432 103.247 22.2383C103.233 22.176 103.204 22.1184 103.165 22.07C103.125 22.0217 103.076 21.9841 103.02 21.9602C102.964 21.9364 102.904 21.9269 102.844 21.9327C102.785 21.9384 102.727 21.9592 102.676 21.9934L100.692 23.3273C100.522 23.4402 100.325 23.4955 100.125 23.4857C99.9257 23.476 99.7337 23.4018 99.5744 23.2729C99.5187 23.2278 99.4736 23.1694 99.4426 23.1023C99.4116 23.0353 99.3957 22.9614 99.396 22.8866C99.3964 22.8118 99.413 22.7381 99.4446 22.6714C99.4762 22.6046 99.5218 22.5467 99.5779 22.5022L102.855 19.8953C103.038 19.7503 103.247 19.6472 103.469 19.5925C103.69 19.5378 103.92 19.5327 104.144 19.5775L107.621 20.2774C107.7 20.2936 107.782 20.2824 107.855 20.2453L109.965 19.1709L111.939 24.5241L109.613 25.7437ZM112.987 25.1418L110.278 17.7946L111.205 17.4403L112.421 21.1492C112.454 21.2514 112.524 21.3351 112.616 21.3819C112.707 21.4286 112.812 21.4346 112.907 21.3985C113.002 21.3624 113.08 21.2872 113.124 21.1894C113.168 21.0917 113.173 20.9793 113.14 20.8771L111.921 17.1643L112.553 16.9232L115.131 24.148L112.987 25.1418Z"/>
</mask>
<path d="M115.975 24.2258L113.131 16.2625C113.096 16.1632 113.025 16.0826 112.935 16.038C112.845 15.9934 112.742 15.9882 112.649 16.0236L109.652 17.1692C109.604 17.1877 109.56 17.2164 109.523 17.2535C109.485 17.2906 109.455 17.3355 109.434 17.3854C109.413 17.4353 109.401 17.4892 109.4 17.544C109.398 17.5987 109.407 17.6532 109.426 17.7042L109.687 18.4117L107.642 19.4523L104.286 18.7769C103.96 18.7114 103.624 18.7189 103.3 18.7989C102.976 18.8789 102.671 19.0296 102.403 19.2417L101.804 19.7184L101.407 19.412C101.107 19.182 100.762 19.0282 100.399 18.9622C100.035 18.8961 99.6625 18.9197 99.3088 19.0311L98.021 19.442L96.334 18.3611L96.5762 17.7048C96.5949 17.6538 96.6039 17.5993 96.6026 17.5445C96.6013 17.4897 96.5897 17.4358 96.5686 17.3859C96.5475 17.336 96.5172 17.2912 96.4796 17.2541C96.442 17.2169 96.3979 17.1883 96.3498 17.1698L93.3516 16.0236C93.2579 15.9879 93.1548 15.9929 93.0645 16.0375C92.9741 16.0822 92.9037 16.1629 92.8682 16.2625L90.0254 24.2258C89.9902 24.3239 89.9916 24.4327 90.0295 24.5297C90.0673 24.6266 90.1386 24.7042 90.2285 24.7461L93.0723 26.0594C93.1192 26.081 93.1696 26.0924 93.2206 26.0928C93.2717 26.0932 93.3222 26.0826 93.3694 26.0616C93.4165 26.0407 93.4592 26.0098 93.495 25.9708C93.5308 25.9318 93.5588 25.8855 93.5776 25.8346L93.864 25.058L96.2213 26.4817C96.0624 26.7289 95.9893 27.0278 96.0145 27.3267C96.0397 27.6256 96.1617 27.9056 96.3594 28.1182C96.4706 28.2374 96.6027 28.3319 96.748 28.3963C96.8934 28.4606 97.0492 28.4936 97.2064 28.4932H97.2364C97.2631 28.8125 97.4004 29.1095 97.6213 29.3257C97.8422 29.5419 98.1306 29.6616 98.4298 29.6611H98.4607C98.4849 29.9612 98.6072 30.2424 98.8061 30.4552C98.9172 30.5744 99.0493 30.6689 99.1947 30.7332C99.34 30.7976 99.4958 30.8305 99.6531 30.8302H99.6831C99.7032 31.0734 99.7877 31.3054 99.9266 31.499C100.066 31.6926 100.253 31.8397 100.467 31.923C100.681 32.0063 100.913 32.0224 101.136 31.9694C101.358 31.9164 101.562 31.7964 101.723 31.6237L102.175 31.1393L102.788 31.6291C103.047 31.8363 103.368 31.9361 103.691 31.9101C104.013 31.8841 104.316 31.7341 104.544 31.4876L104.587 31.4408C104.779 31.2305 104.907 30.9621 104.953 30.6718C105.182 30.7411 105.424 30.7438 105.654 30.6797C105.885 30.6155 106.095 30.4867 106.264 30.3066L106.295 30.2729C106.509 30.0443 106.644 29.7448 106.678 29.4233C106.909 29.497 107.154 29.5023 107.388 29.4386C107.621 29.3748 107.834 29.2445 108.004 29.0614L108.025 29.0385C108.234 28.8172 108.367 28.5279 108.405 28.2162C108.611 28.2687 108.825 28.2684 109.031 28.2151C109.236 28.1619 109.427 28.0573 109.587 27.9098C109.748 27.7624 109.873 27.5764 109.954 27.3669C110.034 27.1575 110.067 26.9306 110.05 26.7048C110.043 26.6173 110.029 26.5306 110.008 26.4458L112.222 25.2844L112.425 25.833C112.443 25.8839 112.471 25.9303 112.507 25.9694C112.543 26.0085 112.586 26.0395 112.633 26.0605C112.68 26.0814 112.731 26.092 112.782 26.0915C112.833 26.0911 112.883 26.0796 112.93 26.0577L115.774 24.7445C115.863 24.7021 115.933 24.6247 115.971 24.5282C116.008 24.4317 116.01 24.3234 115.975 24.2258ZM93.0129 25.1434L90.8674 24.1518L93.4456 16.927L94.0778 17.1681L92.859 20.8809C92.8254 20.9831 92.831 21.0955 92.8746 21.1932C92.9182 21.291 92.9963 21.3662 93.0916 21.4023C93.187 21.4384 93.2918 21.4324 93.383 21.3857C93.4743 21.3389 93.5444 21.2552 93.5781 21.1531L94.7938 17.4441L95.7206 17.7984L93.0129 25.1434ZM97.5157 27.5408C97.4335 27.6254 97.3236 27.6721 97.2096 27.671C97.0956 27.6699 96.9866 27.621 96.9058 27.5348C96.825 27.4486 96.779 27.3319 96.7774 27.2097C96.7759 27.0876 96.8191 26.9696 96.8977 26.8812L97.7102 26.0104C97.7713 25.9451 97.8491 25.9007 97.9337 25.8828C98.0183 25.8649 98.106 25.8742 98.1856 25.9096C98.2653 25.945 98.3334 26.0048 98.3814 26.0817C98.4294 26.1585 98.455 26.2488 98.4552 26.3413C98.4554 26.4027 98.4441 26.4635 98.4222 26.5202C98.4002 26.577 98.3679 26.6284 98.3272 26.6716L97.5157 27.5408ZM98.8066 28.638C98.7837 28.6619 98.7634 28.6875 98.7431 28.7131L98.739 28.7082C98.6989 28.7532 98.6508 28.7892 98.5975 28.814C98.5442 28.8389 98.4868 28.852 98.4287 28.8527C98.3706 28.8535 98.3129 28.8418 98.2591 28.8183C98.2053 28.7948 98.1564 28.76 98.1152 28.716C98.0741 28.672 98.0417 28.6196 98.0197 28.5619C97.9977 28.5043 97.9868 28.4425 97.9874 28.3802C97.988 28.3179 98.0003 28.2564 98.0234 28.1993C98.0465 28.1421 98.08 28.0905 98.122 28.0475L98.8675 27.2491C98.8898 27.2251 98.9112 27.2001 98.9315 27.1745L98.935 27.1783C99.0174 27.0939 99.1273 27.0473 99.2413 27.0487C99.3553 27.05 99.4643 27.0991 99.5449 27.1854C99.6255 27.2718 99.6714 27.3885 99.6728 27.5107C99.6741 27.6328 99.6308 27.7507 99.552 27.839L98.8066 28.638ZM99.9603 29.8745C99.8773 29.9544 99.7689 29.9971 99.6573 29.9939C99.5458 29.9908 99.4397 29.9419 99.3607 29.8575C99.2817 29.773 99.236 29.6593 99.2329 29.5398C99.2297 29.4202 99.2694 29.304 99.3438 29.2149L100.156 28.3441C100.196 28.2962 100.244 28.2575 100.298 28.2304C100.352 28.2033 100.41 28.1882 100.47 28.1862C100.529 28.1842 100.588 28.1953 100.644 28.2188C100.699 28.2423 100.75 28.2777 100.792 28.3228C100.834 28.3679 100.867 28.4218 100.889 28.4811C100.911 28.5404 100.921 28.6039 100.919 28.6677C100.918 28.7315 100.904 28.7942 100.878 28.852C100.853 28.9098 100.817 28.9614 100.772 29.0037L99.9603 29.8745ZM101.996 30.1716L101.183 31.0424C101.101 31.1269 100.991 31.1734 100.877 31.1721C100.763 31.1707 100.654 31.1216 100.573 31.0353C100.493 30.949 100.447 30.8322 100.445 30.7101C100.444 30.5879 100.487 30.47 100.566 30.3817L101.312 29.5833C101.334 29.5594 101.355 29.5343 101.376 29.5087L101.379 29.5126C101.462 29.4281 101.571 29.3816 101.685 29.3829C101.799 29.3842 101.908 29.4333 101.989 29.5197C102.07 29.606 102.116 29.7227 102.117 29.8449C102.118 29.9671 102.075 30.0849 101.996 30.1733L101.996 30.1716ZM109.123 27.2545C109.022 27.3642 108.886 27.429 108.742 27.436C108.598 27.4429 108.457 27.3915 108.347 27.2921L108.05 27.027C108.03 26.9947 108.005 26.9657 107.976 26.941L107.291 26.3511C107.212 26.2875 107.113 26.2593 107.015 26.2723C106.917 26.2854 106.828 26.3388 106.766 26.4212C106.704 26.5036 106.674 26.6085 106.683 26.714C106.692 26.8194 106.739 26.917 106.813 26.9862L107.404 27.4972C107.421 27.5216 107.44 27.544 107.46 27.5642C107.519 27.6199 107.566 27.6879 107.6 27.764C107.633 27.8401 107.651 27.9227 107.654 28.0068C107.656 28.0908 107.642 28.1744 107.614 28.2525C107.585 28.3307 107.541 28.4016 107.486 28.4611L107.464 28.4839C107.368 28.5876 107.24 28.6511 107.104 28.6631C106.968 28.6751 106.833 28.6347 106.722 28.5492L106.133 28.0975L106.127 28.0926L105.905 27.9223C105.823 27.8593 105.721 27.8338 105.621 27.8515C105.521 27.8693 105.432 27.9287 105.373 28.0167C105.315 28.1048 105.291 28.2142 105.307 28.321C105.324 28.4278 105.379 28.5233 105.461 28.5863L105.688 28.7599C105.755 28.8124 105.811 28.8798 105.852 28.9577C105.892 29.0355 105.916 29.1218 105.923 29.2107C105.929 29.2996 105.918 29.3889 105.889 29.4725C105.86 29.556 105.814 29.6319 105.756 29.6949L105.724 29.7286C105.62 29.8395 105.481 29.904 105.335 29.909C105.188 29.9139 105.046 29.859 104.936 29.7553L104.301 29.1566C104.265 29.1161 104.221 29.0841 104.172 29.0626C104.124 29.0411 104.071 29.0307 104.019 29.0318C103.966 29.033 103.915 29.0458 103.867 29.0695C103.819 29.0931 103.777 29.127 103.742 29.1692C103.707 29.2113 103.681 29.2607 103.665 29.3142C103.648 29.3678 103.643 29.4244 103.648 29.4804C103.653 29.5364 103.669 29.5907 103.695 29.6397C103.721 29.6888 103.755 29.7317 103.797 29.7656L104.013 29.9703C104.072 30.0257 104.12 30.0934 104.153 30.1692C104.187 30.245 104.205 30.3274 104.208 30.4112C104.211 30.4951 104.198 30.5787 104.169 30.6569C104.141 30.7351 104.098 30.8063 104.043 30.8661L104 30.9129C103.902 31.019 103.771 31.0836 103.633 31.0948C103.494 31.106 103.356 31.0631 103.244 30.9738L102.695 30.5352C102.811 30.3412 102.876 30.1173 102.884 29.887C102.891 29.6568 102.841 29.4287 102.737 29.2266C102.634 29.0245 102.482 28.8559 102.297 28.7384C102.112 28.621 101.901 28.559 101.686 28.559H101.656C101.63 28.2398 101.492 27.9429 101.272 27.7266C101.051 27.5104 100.763 27.3905 100.464 27.3906H100.433C100.405 27.0667 100.263 26.7662 100.036 26.5503C99.8093 26.3343 99.5142 26.2191 99.2108 26.2281C99.1869 25.928 99.0643 25.6468 98.865 25.4346C98.6402 25.1941 98.3355 25.059 98.0179 25.059C97.7003 25.059 97.3957 25.1941 97.1709 25.4346L96.7611 25.8732L94.1458 24.2949L96.0491 19.1334L97.7727 20.2376C97.818 20.2667 97.8685 20.2854 97.921 20.2924C97.9734 20.2994 98.0267 20.2947 98.0773 20.2785L99.5256 19.8164C99.7676 19.74 100.023 19.7237 100.271 19.7687C100.52 19.8136 100.756 19.9187 100.961 20.076L101.161 20.2306L99.1255 21.8497C98.9744 21.9699 98.8516 22.1261 98.7666 22.306C98.6817 22.4859 98.637 22.6846 98.6361 22.8862C98.6352 23.0878 98.6781 23.2869 98.7615 23.4676C98.8449 23.6484 98.9663 23.8059 99.1163 23.9276C99.3992 24.1552 99.7397 24.2859 100.093 24.3025C100.447 24.3191 100.796 24.2209 101.097 24.0206L102.695 22.9425C102.881 23.3398 103.229 23.8797 103.832 24.2122C104.531 24.5975 105.381 24.6073 106.361 24.2416L109.053 26.319C109.12 26.3713 109.177 26.4387 109.218 26.5166C109.258 26.5945 109.283 26.681 109.29 26.7701C109.297 26.8592 109.285 26.9488 109.256 27.0327C109.228 27.1166 109.182 27.1929 109.123 27.2561V27.2545ZM109.613 25.7437L106.643 23.4525C106.591 23.4128 106.531 23.3875 106.468 23.379C106.405 23.3704 106.341 23.3788 106.282 23.4035C105.434 23.7561 104.73 23.7844 104.187 23.49C103.469 23.0987 103.249 22.2432 103.247 22.2383C103.233 22.176 103.204 22.1184 103.165 22.07C103.125 22.0217 103.076 21.9841 103.02 21.9602C102.964 21.9364 102.904 21.9269 102.844 21.9327C102.785 21.9384 102.727 21.9592 102.676 21.9934L100.692 23.3273C100.522 23.4402 100.325 23.4955 100.125 23.4857C99.9257 23.476 99.7337 23.4018 99.5744 23.2729C99.5187 23.2278 99.4736 23.1694 99.4426 23.1023C99.4116 23.0353 99.3957 22.9614 99.396 22.8866C99.3964 22.8118 99.413 22.7381 99.4446 22.6714C99.4762 22.6046 99.5218 22.5467 99.5779 22.5022L102.855 19.8953C103.038 19.7503 103.247 19.6472 103.469 19.5925C103.69 19.5378 103.92 19.5327 104.144 19.5775L107.621 20.2774C107.7 20.2936 107.782 20.2824 107.855 20.2453L109.965 19.1709L111.939 24.5241L109.613 25.7437ZM112.987 25.1418L110.278 17.7946L111.205 17.4403L112.421 21.1492C112.454 21.2514 112.524 21.3351 112.616 21.3819C112.707 21.4286 112.812 21.4346 112.907 21.3985C113.002 21.3624 113.08 21.2872 113.124 21.1894C113.168 21.0917 113.173 20.9793 113.14 20.8771L111.921 17.1643L112.553 16.9232L115.131 24.148L112.987 25.1418Z" fill="#FF4C7B" stroke="#FF4C7B" stroke-width="3" mask="url(#path-6-inside-1_3183_30616)"/>
</svg>
