<svg width="24" height="24" viewBox="0 0 24 24" fill="none" xmlns="http://www.w3.org/2000/svg">
<path fill-rule="evenodd" clip-rule="evenodd" d="M11.2848 19.7346H7.5595C6.7863 19.7346 6.1595 20.3614 6.1595 21.1346V21.6112C6.1595 21.8321 6.33859 22.0112 6.5595 22.0112C6.78041 22.0112 6.9595 21.8321 6.9595 21.6112V21.1346C6.9595 20.8032 7.22813 20.5346 7.5595 20.5346H11.2848V19.7346Z" fill="#20336B"/>
<rect x="5.53366" y="0.699997" width="11.0346" height="21.1495" rx="1.5" stroke="#20336B"/>
<path d="M7.0271 1.87352H15.2224" stroke="#20336B" stroke-width="0.6" stroke-linecap="round"/>
<rect x="7.15794" y="3.65326" width="7.61371" height="5.62593" rx="0.5" stroke="#20336B"/>
<rect x="6.61258" y="11.8939" width="2.45327" height="1.56729" rx="0.55" fill="white" stroke="#20336B" stroke-width="0.5"/>
<rect x="9.86122" y="11.8939" width="2.45327" height="1.56729" rx="0.55" fill="white" stroke="#20336B" stroke-width="0.5"/>
<rect x="13.1837" y="11.8939" width="2.45327" height="1.56729" rx="0.55" fill="white" stroke="#20336B" stroke-width="0.5"/>
<rect x="6.61258" y="14.478" width="2.45327" height="1.56729" rx="0.55" fill="white" stroke="#20336B" stroke-width="0.5"/>
<rect x="9.86122" y="14.478" width="2.45327" height="1.56729" rx="0.55" fill="white" stroke="#20336B" stroke-width="0.5"/>
<path d="M13.1921 16.0738V15.0495C13.1921 14.7182 13.4607 14.4495 13.7921 14.4495H14.9736C15.305 14.4495 15.5736 14.7182 15.5736 15.0495V15.3355" stroke="#20336B" stroke-width="0.5" stroke-linecap="round"/>
<rect x="6.61258" y="17.0622" width="2.45327" height="1.56729" rx="0.55" fill="white" stroke="#20336B" stroke-width="0.5"/>
<path d="M12.2755 17.0337H10.4327C10.1013 17.0337 9.83272 17.3023 9.83272 17.6337V18.058C9.83272 18.3893 10.1013 18.658 10.4327 18.658L10.9402 18.658" stroke="#20336B" stroke-width="0.5" stroke-linecap="round"/>
<rect x="13.1837" y="17.0622" width="2.45327" height="1.56729" rx="0.75" fill="white" stroke="#20336B" stroke-width="0.5"/>
<path d="M5.40278 10.8318V11.2318H5.80278V10.8318H5.40278ZM5.40278 2.41497V2.01497H5.00278V2.41497H5.40278ZM5.51255 2.41497V2.81497L5.51345 2.01497L5.51255 2.41497ZM4.4 3.41496C4.4 3.08359 4.66863 2.81496 5 2.81496V2.01496C4.2268 2.01496 3.6 2.64176 3.6 3.41496H4.4ZM4.4 9.83179V3.41496H3.6V9.83179H4.4ZM5 10.4318C4.66863 10.4318 4.4 10.1632 4.4 9.83179H3.6C3.6 10.605 4.2268 11.2318 5 11.2318V10.4318ZM5.40278 10.4318H5V11.2318H5.40278V10.4318ZM5.80278 10.8318V2.41497H5.00278V10.8318H5.80278ZM5.40278 2.81497H5.51255V2.01497H5.40278V2.81497ZM5.51028 2.81496C5.51074 2.81496 5.5112 2.81496 5.51166 2.81496L5.51345 2.01497C5.51239 2.01496 5.51133 2.01496 5.51028 2.01496V2.81496ZM5 2.81496H5.51028V2.01496H5V2.81496Z" fill="#20336B"/>
<path d="M16.699 10.8318V11.2318H16.299V10.8318H16.699ZM16.699 2.41497V2.01497H17.099V2.41497H16.699ZM16.5155 2.41497V2.81497L16.5146 2.01497L16.5155 2.41497ZM17.6281 3.41496C17.6281 3.08359 17.3594 2.81496 17.0281 2.81496V2.01496C17.8013 2.01496 18.4281 2.64176 18.4281 3.41496H17.6281ZM17.6281 9.83179V3.41496H18.4281V9.83179H17.6281ZM17.0281 10.4318C17.3594 10.4318 17.6281 10.1632 17.6281 9.83179H18.4281C18.4281 10.605 17.8013 11.2318 17.0281 11.2318V10.4318ZM16.699 10.4318H17.0281V11.2318H16.699V10.4318ZM16.299 10.8318V2.41497H17.099V10.8318H16.299ZM16.699 2.81497H16.5155V2.01497H16.699V2.81497ZM16.5178 2.81496C16.5173 2.81496 16.5169 2.81496 16.5164 2.81496L16.5146 2.01497C16.5157 2.01496 16.5167 2.01496 16.5178 2.01496V2.81496ZM17.0281 2.81496H16.5178V2.01496H17.0281V2.81496Z" fill="#20336B"/>
<circle cx="15.7393" cy="19.7654" r="3.61075" fill="white" stroke="#20336B" stroke-width="0.9"/>
<path d="M15.7515 21.809C16.0849 21.809 16.3552 21.5387 16.3552 21.2052C16.3552 20.8718 16.0849 20.6014 15.7515 20.6014C15.418 20.6014 15.1477 20.8718 15.1477 21.2052C15.1477 21.5387 15.418 21.809 15.7515 21.809Z" fill="#3FAFE9"/>
<path d="M17.1945 19.7505C17.1855 19.7413 17.176 19.7331 17.1668 19.7247L17.1397 19.699C17.1352 19.6943 17.1302 19.6908 17.1245 19.6863C16.7499 19.3448 16.2581 19.1609 15.7513 19.1728C15.2446 19.1848 14.762 19.3916 14.4038 19.7503L14.3165 19.8379L14.1955 19.9588C14.1248 20.03 14.0852 20.1263 14.0854 20.2266C14.0855 20.3269 14.1255 20.423 14.1965 20.4939C14.2316 20.5291 14.2732 20.5571 14.3191 20.5762C14.365 20.5953 14.4141 20.6052 14.4638 20.6053C14.5135 20.6054 14.5627 20.5957 14.6087 20.5767C14.6546 20.5578 14.6964 20.53 14.7316 20.4949L14.9401 20.2864C15.1682 20.059 15.4771 19.9313 15.7992 19.9312C16.1213 19.9312 16.4302 20.0588 16.6584 20.2861L16.8089 20.432C16.8795 20.5021 16.9749 20.5413 17.0744 20.5411C17.1738 20.5408 17.2691 20.5011 17.3393 20.4307C17.3743 20.396 17.402 20.3546 17.421 20.3091C17.4399 20.2636 17.4496 20.2147 17.4495 20.1654C17.4499 20.1163 17.4404 20.0675 17.4216 20.0221C17.4028 19.9767 17.3752 19.9355 17.3403 19.9009L17.1945 19.7505Z" fill="#3FAFE9"/>
<path d="M18.2231 19.0042L18.0976 18.8787C18.0971 18.8782 18.0969 18.8775 18.0959 18.8772L17.9968 18.7777C17.9797 18.7608 17.9608 18.7457 17.9406 18.7326C16.6681 17.6154 14.7326 17.6498 13.5007 18.8349C13.4947 18.8404 13.488 18.8441 13.482 18.8501L13.2555 19.0768C13.2236 19.1089 13.1983 19.147 13.181 19.1889C13.1638 19.2308 13.155 19.2756 13.1552 19.3209C13.1553 19.3662 13.1644 19.411 13.1819 19.4528C13.1993 19.4946 13.2249 19.5325 13.257 19.5644C13.2889 19.5965 13.3269 19.622 13.3686 19.6395C13.4104 19.6569 13.4552 19.666 13.5005 19.6661C13.5458 19.6662 13.5907 19.6574 13.6326 19.6402C13.6744 19.6229 13.7125 19.5976 13.7446 19.5656L13.971 19.3394C13.9725 19.3374 13.9738 19.3357 13.9753 19.3344C14.9715 18.372 16.5519 18.366 17.5561 19.3147L17.7343 19.4932C17.7992 19.5576 17.887 19.5937 17.9784 19.5935C18.0699 19.5933 18.1575 19.5567 18.2221 19.4919C18.2868 19.4273 18.3232 19.3397 18.3234 19.2483C18.3236 19.1568 18.2875 19.069 18.2231 19.0042Z" fill="#3FAFE9"/>
<path d="M10.9402 20.1346H7.98694" stroke="#20336B" stroke-width="0.8" stroke-linecap="round"/>
</svg>
