<svg width="25" height="25" viewBox="0 0 25 25" fill="none" xmlns="http://www.w3.org/2000/svg">
<path fill-rule="evenodd" clip-rule="evenodd" d="M11.3203 19.8012H7.57812C6.80493 19.8012 6.17812 20.428 6.17812 21.2012V21.6827C6.17812 21.9036 6.35721 22.0827 6.57812 22.0827C6.79904 22.0827 6.97812 21.9036 6.97812 21.6827V21.2012C6.97812 20.8698 7.24675 20.6012 7.57812 20.6012H11.3203V19.8012Z" fill="white"/>
<rect x="5.55469" y="0.701172" width="11.0741" height="21.2223" rx="1.5" stroke="#C5CFD8"/>
<path d="M7.04688 1.88086H15.2691" stroke="#C5CFD8" stroke-width="0.6" stroke-linecap="round"/>
<rect x="7.17969" y="3.66406" width="7.64199" height="5.64769" rx="0.5" stroke="#C5CFD8"/>
<rect x="6.63281" y="11.9336" width="2.46297" height="1.57408" rx="0.55" fill="white" stroke="#C5CFD8" stroke-width="0.5"/>
<rect x="9.89062" y="11.9336" width="2.46297" height="1.57408" rx="0.55" fill="white" stroke="#C5CFD8" stroke-width="0.5"/>
<rect x="13.2266" y="11.9336" width="2.46297" height="1.57408" rx="0.55" fill="white" stroke="#C5CFD8" stroke-width="0.5"/>
<rect x="6.63281" y="14.5254" width="2.46297" height="1.57408" rx="0.55" fill="white" stroke="#C5CFD8" stroke-width="0.5"/>
<rect x="9.89062" y="14.5254" width="2.46297" height="1.57408" rx="0.55" fill="white" stroke="#C5CFD8" stroke-width="0.5"/>
<path d="M13.2344 16.1277V15.098C13.2344 14.7667 13.503 14.498 13.8344 14.498H15.0237C15.3551 14.498 15.6237 14.7667 15.6237 15.098V15.3869" stroke="#C5CFD8" stroke-width="0.5" stroke-linecap="round"/>
<rect x="6.63281" y="17.1172" width="2.46297" height="1.57408" rx="0.55" fill="white" stroke="#C5CFD8" stroke-width="0.5"/>
<path d="M12.3102 17.0898H10.4594C10.128 17.0898 9.85938 17.3585 9.85938 17.6898V18.1195C9.85938 18.4508 10.128 18.7195 10.4594 18.7195L10.9705 18.7195" stroke="#C5CFD8" stroke-width="0.5" stroke-linecap="round"/>
<rect x="13.2266" y="17.1172" width="2.46297" height="1.57408" rx="0.75" fill="white" stroke="#C5CFD8" stroke-width="0.5"/>
<path d="M5.42188 10.8683V11.2683H5.82187V10.8683H5.42188ZM5.42188 2.42383H5.82187V2.02383H5.42188V2.42383ZM4.41563 3.42383C4.41563 3.09246 4.68425 2.82383 5.01563 2.82383V2.02383C4.24243 2.02383 3.61562 2.65063 3.61562 3.42383H4.41563ZM4.41563 9.86829V3.42383H3.61562V9.86829H4.41563ZM5.01563 10.4683C4.68425 10.4683 4.41563 10.1997 4.41563 9.86829H3.61562C3.61562 10.6415 4.24243 11.2683 5.01563 11.2683V10.4683ZM5.42188 10.4683H5.01563V11.2683H5.42188V10.4683ZM5.82187 10.8683V2.42383H5.02188V10.8683H5.82187ZM5.01563 2.82383H5.42188V2.02383H5.01563V2.82383Z" fill="#C5CFD8"/>
<path d="M16.7656 10.8683V11.2683H16.3656V10.8683H16.7656ZM16.7656 2.42383H16.3656V2.02383H16.7656V2.42383ZM17.6937 3.42383C17.6937 3.09246 17.4251 2.82383 17.0937 2.82383V2.02383C17.8669 2.02383 18.4938 2.65063 18.4938 3.42383H17.6937ZM17.6937 9.86829V3.42383H18.4938V9.86829H17.6937ZM17.0937 10.4683C17.4251 10.4683 17.6937 10.1997 17.6937 9.86829H18.4938C18.4938 10.6415 17.8669 11.2683 17.0937 11.2683V10.4683ZM16.7656 10.4683H17.0937V11.2683H16.7656V10.4683ZM16.3656 10.8683V2.42383H17.1656V10.8683H16.3656ZM17.0937 2.82383H16.7656V2.02383H17.0937V2.82383Z" fill="#C5CFD8"/>
<circle cx="15.7928" cy="19.8299" r="3.62408" fill="white" stroke="#C5CFD8" stroke-width="0.9"/>
<path d="M15.8089 21.8814C16.1434 21.8814 16.4146 21.6102 16.4146 21.2757C16.4146 20.9411 16.1434 20.6699 15.8089 20.6699C15.4743 20.6699 15.2031 20.9411 15.2031 21.2757C15.2031 21.6102 15.4743 21.8814 15.8089 21.8814Z" fill="#3FAFE9"/>
<path d="M17.2599 19.8145C17.2509 19.8053 17.2414 19.797 17.2322 19.7885L17.205 19.7628C17.2005 19.7581 17.1955 19.7546 17.1898 19.7501C16.8139 19.4075 16.3205 19.223 15.8121 19.2349C15.3037 19.2469 14.8194 19.4544 14.4601 19.8143L14.3725 19.9022L14.2511 20.0235C14.1802 20.0949 14.1404 20.1915 14.1406 20.2921C14.1408 20.3928 14.1809 20.4892 14.2521 20.5603C14.2873 20.5957 14.3291 20.6237 14.3751 20.6429C14.4211 20.662 14.4705 20.672 14.5203 20.6721C14.5702 20.6721 14.6196 20.6624 14.6657 20.6434C14.7118 20.6244 14.7537 20.5965 14.789 20.5613L14.9982 20.3521C15.227 20.124 15.537 19.9958 15.8601 19.9958C16.1832 19.9957 16.4932 20.1238 16.7221 20.3518L16.8732 20.4982C16.9439 20.5685 17.0397 20.6079 17.1395 20.6076C17.2392 20.6074 17.3348 20.5676 17.4052 20.4969C17.4404 20.4621 17.4682 20.4206 17.4872 20.3749C17.5062 20.3292 17.5159 20.2802 17.5159 20.2307C17.5162 20.1814 17.5067 20.1326 17.4878 20.087C17.469 20.0414 17.4413 20 17.4062 19.9653L17.2599 19.8145Z" fill="#3FAFE9"/>
<path d="M18.2877 19.0666L18.1618 18.9408C18.1613 18.9403 18.1611 18.9395 18.1601 18.9393L18.0607 18.8394C18.0435 18.8224 18.0246 18.8073 18.0043 18.7942C16.7276 17.6733 14.7857 17.7078 13.5498 18.8968C13.5438 18.9023 13.537 18.906 13.531 18.912L13.3038 19.1395C13.2718 19.1717 13.2464 19.2099 13.2291 19.2519C13.2118 19.2939 13.203 19.339 13.2031 19.3844C13.2033 19.4298 13.2124 19.4748 13.2299 19.5167C13.2474 19.5586 13.2731 19.5967 13.3053 19.6287C13.3373 19.6609 13.3754 19.6865 13.4173 19.704C13.4592 19.7215 13.5042 19.7306 13.5496 19.7307C13.5951 19.7308 13.6401 19.722 13.6821 19.7047C13.7241 19.6874 13.7623 19.662 13.7945 19.6299L14.0217 19.4029C14.0232 19.4009 14.0244 19.3992 14.0259 19.3979C15.0254 18.4324 16.611 18.4264 17.6185 19.3782L17.7973 19.5572C17.8624 19.6219 17.9505 19.6581 18.0422 19.6579C18.134 19.6576 18.2219 19.621 18.2867 19.556C18.3516 19.4912 18.3881 19.4032 18.3883 19.3115C18.3885 19.2198 18.3523 19.1317 18.2877 19.0666Z" fill="#3FAFE9"/>
<path d="M10.9786 20.2012H8.01562" stroke="#C5CFD8" stroke-width="0.8" stroke-linecap="round"/>
</svg>
