<svg width="30" height="17" viewBox="0 0 30 17" fill="none" xmlns="http://www.w3.org/2000/svg">
<rect x="16.877" y="7.99423" width="3.69807" height="5.45624" rx="0.55" transform="rotate(-45.6192 16.877 7.99423)" stroke="#C5CFD8" stroke-width="0.5"/>
<path d="M24.1567 14.4883C24.1279 15.3005 25.4501 15.6116 27.2476 16.2269" stroke="#C5CFD8" stroke-width="0.5" stroke-linecap="round"/>
<path d="M22.034 13.5215C21.8408 14.6806 24.3522 15.2601 24.5454 13.7147" stroke="#C5CFD8" stroke-width="0.5" stroke-linecap="round"/>
<path d="M24.3449 13.3285C22.4131 14.1012 22.0267 13.3285 22.0267 13.3285C22.0267 13.3285 20.8676 12.1694 21.0608 11.5898" stroke="#C5CFD8" stroke-width="0.5" stroke-linecap="round"/>
<path d="M25.3116 11.0105C25.3116 11.0105 21.2548 8.88555 20.8684 8.69236C20.482 8.49918 20.2889 9.27191 20.482 9.85146C20.6752 10.431 22.2207 11.4935 22.9934 11.4935C23.7661 11.4935 24.9252 14.2946 24.9252 14.2946" stroke="#C5CFD8" stroke-width="0.5" stroke-linecap="round"/>
<path d="M23.375 8.69234C25.5 8.49916 26.0795 9.27189 28.9773 14.2946" stroke="#C5CFD8" stroke-width="0.5" stroke-linecap="round"/>
<path d="M23.3864 8.69141H23" stroke="#C5CFD8" stroke-width="0.5" stroke-linecap="round"/>
<path d="M21.4531 11.2031C22.2259 11.9759 22.0327 12.7486 23.9645 12.5554" stroke="#C5CFD8" stroke-width="0.5" stroke-linecap="round"/>
<path fill-rule="evenodd" clip-rule="evenodd" d="M20.8228 14.0984C21.1916 13.8449 21.5341 13.5762 21.8486 13.2943L22.1855 13.6634C19.926 15.6919 16.367 17 12.3636 17C5.53539 17 0 13.1944 0 8.5C0 3.80558 5.53539 0 12.3636 0C19.1919 0 24.7273 3.80558 24.7273 8.5C24.7273 8.5348 24.727 8.56956 24.7264 8.60427L24.2273 8.51132C24.2273 8.50755 24.2273 8.50377 24.2273 8.5C24.2273 6.36484 22.9689 4.37706 20.8228 2.90161C18.6789 1.42769 15.6897 0.5 12.3636 0.5C9.03761 0.5 6.04838 1.42769 3.90449 2.90161C1.75839 4.37706 0.5 6.36484 0.5 8.5C0.5 10.6352 1.75839 12.6229 3.90449 14.0984C6.04838 15.5723 9.03761 16.5 12.3636 16.5C15.6897 16.5 18.6789 15.5723 20.8228 14.0984Z" fill="#C5CFD8"/>
<path d="M13.8854 15.0142C13.6822 14.9543 13.4738 14.712 13.4295 14.4801C13.4008 14.329 13.4347 14.2247 13.6509 13.8053C14.5263 12.1118 14.9067 10.5537 14.9067 8.66481C14.9067 6.83842 14.5706 5.41587 13.7343 3.71194C13.5545 3.34718 13.4086 3.00587 13.4086 2.95637C13.4086 2.77399 13.5597 2.51085 13.7239 2.40923C13.9479 2.26854 14.3257 2.2946 14.5081 2.46395C14.5785 2.52908 14.7582 2.8261 14.9093 3.12312C15.5086 4.29815 15.9176 5.58783 16.1209 6.92961C16.2459 7.76074 16.272 9.3344 16.1704 10.0952C15.9854 11.4969 15.6154 12.7501 15.0214 13.9746C14.6618 14.7146 14.4378 15.0194 14.2502 15.0194C14.2137 15.0194 14.1512 15.0298 14.1147 15.0402C14.0782 15.0507 13.974 15.0402 13.8854 15.0142ZM11.4494 13.7401C11.1367 13.649 10.91 13.2634 11.0012 12.9768C11.0221 12.9064 11.1706 12.5859 11.3295 12.2629C11.9991 10.895 12.2779 9.4308 12.1424 7.99262C12.0304 6.80976 11.8193 6.06462 11.2852 4.97556C10.9283 4.24344 10.91 4.13141 11.1185 3.83439C11.3165 3.55301 11.8115 3.50872 12.0695 3.74581C12.2492 3.90995 12.8094 5.07978 13.0256 5.74155C13.7395 7.93009 13.6301 10.2828 12.7156 12.4322C12.244 13.5343 11.9131 13.8756 11.4494 13.7401ZM8.93775 12.4479C8.74495 12.3619 8.57821 12.1561 8.53131 11.9502C8.50265 11.8252 8.55215 11.6845 8.78143 11.2207C9.62558 9.51157 9.6334 7.86756 8.81009 6.19749C8.44794 5.46538 8.44012 5.31947 8.74495 5.03027C8.89607 4.88698 8.9612 4.86353 9.17224 4.86353C9.52918 4.86353 9.71416 5.0433 10.032 5.69726C10.5218 6.70294 10.7225 7.57575 10.7199 8.69347C10.7172 9.84245 10.5297 10.6319 10.0086 11.6923C9.70895 12.2994 9.56045 12.4609 9.26082 12.5C9.16964 12.5078 9.02373 12.4869 8.93775 12.4479ZM6.59289 11.2442C6.43917 11.1816 6.26461 10.9732 6.2125 10.7908C6.15518 10.5876 6.20208 10.4261 6.43136 10.0483C6.72837 9.56107 6.79611 9.30053 6.79611 8.66481C6.79611 8.02909 6.72837 7.76595 6.43136 7.28134C6.32974 7.1172 6.23074 6.91919 6.20729 6.84103C6.11089 6.52056 6.37925 6.12715 6.73879 6.05941C7.04363 6.00209 7.25206 6.13757 7.53344 6.57528C8.34372 7.8415 8.34372 9.52981 7.53344 10.7856C7.24685 11.2259 6.92899 11.3822 6.59289 11.2442Z" fill="#3FAFE9"/>
</svg>
