<svg width="24" height="24" viewBox="0 0 24 24" fill="none" xmlns="http://www.w3.org/2000/svg">
<path d="M18.1538 2.65979L12.1538 0.0333939C12.1033 0.0113686 12.0488 0 11.9938 0C11.9387 0 11.8842 0.0113686 11.8338 0.0333939L5.83375 2.65979C5.76245 2.69091 5.70177 2.74215 5.65914 2.80722C5.61652 2.8723 5.59379 2.9484 5.59375 3.02619V9.30619C5.59575 10.7174 6.27375 12.0422 7.41775 12.8694L11.5646 15.8602C11.6894 15.9506 11.8396 15.9992 11.9938 15.9992C12.1479 15.9992 12.2981 15.9506 12.423 15.8602L16.5698 12.8698C17.1335 12.4621 17.5928 11.9266 17.9098 11.3073C18.2268 10.688 18.3927 10.0024 18.3938 9.30659V3.02619C18.3937 2.9484 18.371 2.8723 18.3284 2.80722C18.2857 2.74215 18.2251 2.69091 18.1538 2.65979ZM17.5938 9.30659C17.5928 9.87568 17.4572 10.4365 17.1978 10.943C16.9385 11.4496 16.5629 11.8875 16.1018 12.221L11.9938 15.1838L7.88575 12.221C7.4246 11.8875 7.04898 11.4496 6.78965 10.943C6.53032 10.4365 6.39465 9.87568 6.39375 9.30659V3.28779L11.9938 0.836594L17.5938 3.28779V9.30659Z" fill="#24BAF2"/>
<path d="M11.833 1.77949L7.43302 3.70589C7.36172 3.73701 7.30104 3.78824 7.25841 3.85332C7.21578 3.9184 7.19306 3.99449 7.19302 4.07229V9.30629C7.19363 9.74872 7.29907 10.1847 7.5007 10.5785C7.70234 10.9723 7.99442 11.3128 8.35302 11.5719L11.759 14.0287C11.8271 14.0778 11.909 14.1043 11.993 14.1043C12.077 14.1043 12.1589 14.0778 12.227 14.0287L15.633 11.5719C15.9916 11.3128 16.2837 10.9723 16.4853 10.5785C16.687 10.1847 16.7924 9.74872 16.793 9.30629V4.07229C16.793 3.99449 16.7703 3.9184 16.7276 3.85332C16.685 3.78824 16.6243 3.73701 16.553 3.70589L12.153 1.77949C12.1026 1.75746 12.0481 1.74609 11.993 1.74609C11.938 1.74609 11.8835 1.75746 11.833 1.77949ZM15.993 4.33349V9.30629C15.9924 9.62201 15.9171 9.9331 15.7732 10.2141C15.6292 10.4951 15.4208 10.7381 15.165 10.9231L11.993 13.2111L8.82102 10.9231C8.56519 10.7381 8.35679 10.4951 8.21287 10.2141C8.06896 9.9331 7.99362 9.62201 7.99302 9.30629V4.33349L11.993 2.58269L15.993 4.33349ZM3.30702 13.2795L2.44182 11.2579C2.37419 11.1047 2.27704 10.9663 2.15593 10.8507C2.03482 10.735 1.89212 10.6443 1.73597 10.5838C1.57982 10.5233 1.41328 10.4942 1.24586 10.498C1.07844 10.5019 0.913418 10.5387 0.760218 10.6063C0.607018 10.6739 0.468639 10.7711 0.352981 10.8922C0.237324 11.0133 0.146654 11.156 0.0861471 11.3121C0.0256404 11.4683 -0.0035175 11.6348 0.00033804 11.8022C0.00419358 11.9697 0.0409871 12.1347 0.108618 12.2879L1.67622 15.7363C1.8877 16.2031 2.18191 16.6278 2.54462 16.9899L5.00982 19.4555C4.87102 19.6027 4.79382 19.7971 4.79302 19.9995V23.1995C4.79302 23.4117 4.8773 23.6151 5.02733 23.7652C5.17736 23.9152 5.38085 23.9995 5.59302 23.9995H9.99302C10.2052 23.9995 10.4087 23.9152 10.5587 23.7652C10.7087 23.6151 10.793 23.4117 10.793 23.1995V19.9995C10.793 19.7873 10.7087 19.5838 10.5587 19.4338C10.4087 19.2838 10.2052 19.1995 9.99302 19.1995V18.4551C10.0053 17.5078 9.69621 16.5842 9.11622 15.8351C8.77618 15.3879 8.31275 15.0498 7.78302 14.8627C6.94055 14.5087 6.16577 14.0115 5.49302 13.3931C5.18884 13.1426 4.81228 12.9963 4.41875 12.9759C4.02522 12.9554 3.63552 13.0618 3.30702 13.2795ZM9.99302 23.1995H5.59302V19.9995H9.99302V23.1995ZM8.49182 16.3347C8.95806 16.9421 9.20518 17.6894 9.19302 18.4551V19.1995H5.88542L3.11022 16.4243C2.81547 16.13 2.5763 15.7848 2.40422 15.4055L0.836618 11.9571C0.808778 11.8996 0.792801 11.8371 0.789638 11.7733C0.786475 11.7095 0.796193 11.6458 0.81821 11.5858C0.840227 11.5259 0.874093 11.471 0.917788 11.4244C0.961483 11.3778 1.01411 11.3405 1.07254 11.3147C1.13096 11.2889 1.19398 11.2751 1.25784 11.2742C1.3217 11.2733 1.38509 11.2853 1.44423 11.3094C1.50337 11.3335 1.55704 11.3693 1.60205 11.4146C1.64707 11.4599 1.68249 11.5138 1.70622 11.5731L2.60102 13.6599C2.83863 14.2167 3.18112 14.7225 3.60982 15.1499L5.43702 16.9775C5.47392 17.0157 5.51805 17.0462 5.56686 17.0671C5.61566 17.0881 5.66815 17.0991 5.72126 17.0996C5.77437 17.1001 5.82704 17.0899 5.8762 17.0698C5.92536 17.0497 5.97002 17.02 6.00758 16.9824C6.04513 16.9449 6.07483 16.9002 6.09495 16.8511C6.11506 16.8019 6.12518 16.7492 6.12472 16.6961C6.12426 16.643 6.11322 16.5905 6.09226 16.5417C6.07129 16.4929 6.04082 16.4488 6.00262 16.4119L4.17542 14.5843C3.99168 14.401 3.82648 14.2 3.68222 13.9843C3.86875 13.8408 4.09846 13.7647 4.33379 13.7687C4.56913 13.7726 4.79617 13.8562 4.97782 14.0059C5.72555 14.6921 6.58977 15.2394 7.52982 15.6219C7.91283 15.7612 8.24706 16.0088 8.49182 16.3347Z" fill="#20336B"/>
<path d="M8.79219 21.1971H8.39219C8.2861 21.1971 8.18436 21.2393 8.10934 21.3143C8.03433 21.3893 7.99219 21.491 7.99219 21.5971C7.99219 21.7032 8.03433 21.805 8.10934 21.88C8.18436 21.955 8.2861 21.9971 8.39219 21.9971H8.79219C8.89827 21.9971 9.00002 21.955 9.07503 21.88C9.15005 21.805 9.19219 21.7032 9.19219 21.5971C9.19219 21.491 9.15005 21.3893 9.07503 21.3143C9.00002 21.2393 8.89827 21.1971 8.79219 21.1971ZM22.309 15.7339L23.8766 12.2855C23.9474 12.1319 23.9869 11.9657 23.9929 11.7966C23.9988 11.6275 23.9711 11.4589 23.9112 11.3007C23.8514 11.1424 23.7606 10.9977 23.6443 10.8748C23.5279 10.752 23.3883 10.6535 23.2335 10.5852C23.0788 10.5169 22.9119 10.48 22.7428 10.4768C22.5736 10.4736 22.4055 10.504 22.2483 10.5664C22.091 10.6288 21.9477 10.7219 21.8268 10.8402C21.7058 10.9585 21.6096 11.0997 21.5438 11.2555L20.6806 13.2695C20.3509 13.0529 19.9605 12.9477 19.5666 12.9693C19.1728 12.9909 18.7962 13.1382 18.4922 13.3895C17.8194 14.008 17.0447 14.5052 16.2022 14.8591C15.6725 15.0463 15.209 15.3843 14.869 15.8315C14.2887 16.581 13.9797 17.505 13.9922 18.4527V19.1971C13.78 19.1971 13.5765 19.2814 13.4265 19.4314C13.2765 19.5815 13.1922 19.785 13.1922 19.9971V23.1971C13.1922 23.4093 13.2765 23.6128 13.4265 23.7628C13.5765 23.9129 13.78 23.9971 13.9922 23.9971H18.3922C18.6044 23.9971 18.8078 23.9129 18.9579 23.7628C19.1079 23.6128 19.1922 23.4093 19.1922 23.1971V19.9971C19.1918 19.7948 19.1142 19.6003 18.9754 19.4531L21.4406 16.9875C21.8033 16.6255 22.0975 16.2008 22.309 15.7339ZM18.3922 23.1971H13.9922V19.9971H18.3922V23.1971ZM18.0998 19.1971H14.7922V18.4527C14.7801 17.6872 15.0272 16.9401 15.4934 16.3327C15.7376 16.0071 16.0711 15.7593 16.4534 15.6195C17.3936 15.2371 18.258 14.6899 19.0058 14.0035C19.1872 13.8527 19.4145 13.7681 19.6504 13.7635C19.8862 13.7589 20.1166 13.8347 20.3038 13.9783C20.1591 14.1957 19.9931 14.398 19.8082 14.5823L17.981 16.4099C17.9081 16.4854 17.8678 16.5864 17.8687 16.6913C17.8696 16.7962 17.9117 16.8965 17.9859 16.9707C18.06 17.0448 18.1603 17.0869 18.2652 17.0878C18.3701 17.0887 18.4711 17.0484 18.5466 16.9755L20.3738 15.1479C20.8025 14.7206 21.145 14.2147 21.3826 13.6579L22.2774 11.5707C22.3113 11.4913 22.3661 11.4227 22.4361 11.3721C22.5061 11.3216 22.5885 11.2911 22.6745 11.2839C22.7605 11.2767 22.8469 11.2931 22.9243 11.3313C23.0017 11.3695 23.0672 11.4281 23.1138 11.5007C23.2018 11.6367 23.2138 11.8079 23.147 11.9551L21.5794 15.4035C21.4073 15.7829 21.1681 16.128 20.8734 16.4223L18.0998 19.1971Z" fill="#20336B"/>
<path d="M15.5953 21.1969H15.1953C15.0892 21.1969 14.9875 21.2391 14.9125 21.3141C14.8375 21.3891 14.7953 21.4908 14.7953 21.5969C14.7953 21.703 14.8375 21.8048 14.9125 21.8798C14.9875 21.9548 15.0892 21.9969 15.1953 21.9969H15.5953C15.7014 21.9969 15.8031 21.9548 15.8782 21.8798C15.9532 21.8048 15.9953 21.703 15.9953 21.5969C15.9953 21.4908 15.9532 21.3891 15.8782 21.3141C15.8031 21.2391 15.7014 21.1969 15.5953 21.1969ZM9.83531 8.47693C9.75045 8.41327 9.64377 8.38594 9.53875 8.40095C9.43373 8.41595 9.33897 8.47206 9.27531 8.55693C9.21166 8.6418 9.18433 8.74847 9.19933 8.8535C9.21434 8.95852 9.27044 9.05327 9.35531 9.11693L10.9553 10.3169C10.9988 10.3496 11.0485 10.373 11.1014 10.3858C11.1543 10.3985 11.2092 10.4004 11.2628 10.3912C11.3164 10.3821 11.3676 10.362 11.4132 10.3324C11.4588 10.3028 11.4979 10.2642 11.5281 10.2189L14.7281 5.41893C14.787 5.33066 14.8084 5.22262 14.7876 5.11858C14.7668 5.01453 14.7056 4.923 14.6173 4.86413C14.5291 4.80525 14.421 4.78384 14.317 4.80462C14.2129 4.8254 14.1214 4.88666 14.0625 4.97493L11.0969 9.42333L9.83531 8.47693Z" fill="#24BAF2"/>
</svg>
