<svg width="23" height="23" viewBox="0 0 23 23" fill="none" xmlns="http://www.w3.org/2000/svg">
<path d="M22.3189 13.7396L22.3137 13.731C22.0735 13.3654 21.707 13.1013 21.2842 12.9891C20.8615 12.8769 20.4122 12.9247 20.0224 13.1231L17.6194 14.3524C17.3318 13.9481 16.9084 13.6608 16.4265 13.5428C15.9446 13.4248 15.4363 13.484 14.9944 13.7096L11.9686 15.2606C11.8106 15.3418 11.6354 15.3836 11.4578 15.3824C11.2802 15.3813 11.1055 15.3374 10.9486 15.2543L8.88605 14.1593C8.10551 13.7426 7.22479 13.5503 6.34161 13.6038C5.45844 13.6573 4.60735 13.9544 3.8828 14.4623L3.64955 13.3515C3.63939 13.3032 3.61978 13.2573 3.59185 13.2166C3.56392 13.1758 3.52821 13.141 3.48678 13.1141C3.44534 13.0872 3.39901 13.0687 3.35042 13.0598C3.30184 13.0509 3.25197 13.0516 3.20368 13.062L0.295925 13.6894C0.19912 13.7103 0.114505 13.7686 0.0605487 13.8516C0.00659207 13.9347 -0.0123254 14.0357 0.00792533 14.1326L1.70105 22.2C1.71831 22.2846 1.76423 22.3606 1.83104 22.4153C1.89786 22.4699 1.98148 22.4998 2.0678 22.5C2.09426 22.4999 2.12064 22.4971 2.14655 22.4918L5.0558 21.8655C5.15275 21.8447 5.23753 21.7864 5.29157 21.7032C5.34561 21.6201 5.36453 21.5189 5.34418 21.4219L5.19418 20.6996L6.1883 20.4859C6.47794 20.4241 6.77604 20.4127 7.06955 20.4521L11.7454 20.9648C12.7162 21.0934 13.7004 20.8623 14.5126 20.3153L22.0024 15.2903C22.2474 15.1244 22.4176 14.8693 22.4768 14.5795C22.5359 14.2896 22.4793 13.9882 22.3189 13.7396ZM2.35768 21.6773L0.8183 14.3441L2.9933 13.8754L4.5338 21.2089L2.35768 21.6773ZM21.5851 14.6685L14.0956 19.6935C13.4312 20.1387 12.6269 20.3254 11.8343 20.2185L7.1588 19.7059C6.78253 19.6555 6.40037 19.6707 6.0293 19.7509L5.03855 19.9639L4.05005 15.2606L4.30618 15.0821C4.91784 14.6519 5.63685 14.3998 6.38323 14.3539C7.12962 14.3079 7.87412 14.4699 8.53393 14.8219L10.5964 15.9169C10.8599 16.0571 11.1534 16.1313 11.4519 16.1334C11.7503 16.1354 12.0448 16.0651 12.3102 15.9285L15.3376 14.3756C15.6401 14.221 15.9904 14.1884 16.3163 14.2846C16.6422 14.3807 16.9187 14.5983 17.0888 14.8924C17.139 14.9784 17.1531 15.0808 17.1283 15.1773C17.1034 15.2737 17.0415 15.3565 16.9561 15.4076L12.7838 17.8826C12.0542 18.3182 11.1849 18.4558 10.3564 18.267L6.59293 17.367L6.41855 18.0968L10.1858 18.9968C11.2027 19.2297 12.2702 19.0617 13.1663 18.5276L17.3389 16.0526C17.5097 15.95 17.6502 15.8039 17.746 15.6291C17.8418 15.4544 17.8895 15.2573 17.8842 15.0581L20.3626 13.7899C20.587 13.6759 20.8455 13.6484 21.0889 13.7127C21.3323 13.7769 21.5436 13.9284 21.6826 14.1383L21.6867 14.145C21.7407 14.2285 21.7602 14.3296 21.7413 14.4272C21.7223 14.5248 21.6663 14.6113 21.5851 14.6685Z" fill="#20336B"/>
<path d="M1.693 14.922L2.42725 14.7682L2.581 15.5014L1.84675 15.6551L1.693 14.922ZM7.1245 9.75C7.02504 9.75 6.92966 9.78951 6.85933 9.85983C6.78901 9.93016 6.7495 10.0255 6.7495 10.125V12.375C6.7495 12.4745 6.78901 12.5698 6.85933 12.6402C6.92966 12.7105 7.02504 12.75 7.1245 12.75H8.6245C8.72396 12.75 8.81934 12.7105 8.88967 12.6402C8.95999 12.5698 8.9995 12.4745 8.9995 12.375V10.125C8.9995 10.0255 8.95999 9.93016 8.88967 9.85983C8.81934 9.78951 8.72396 9.75 8.6245 9.75H7.1245ZM8.2495 12H7.4995V10.5H8.2495V12ZM10.4995 7.125C10.4 7.125 10.3047 7.16451 10.2343 7.23483C10.164 7.30516 10.1245 7.40054 10.1245 7.5V12.375C10.1245 12.4745 10.164 12.5698 10.2343 12.6402C10.3047 12.7105 10.4 12.75 10.4995 12.75H11.9995C12.099 12.75 12.1943 12.7105 12.2647 12.6402C12.335 12.5698 12.3745 12.4745 12.3745 12.375V7.5C12.3745 7.40054 12.335 7.30516 12.2647 7.23483C12.1943 7.16451 12.099 7.125 11.9995 7.125H10.4995ZM11.6245 12H10.8745V7.875H11.6245V12ZM13.8745 8.25C13.775 8.25 13.6797 8.28951 13.6093 8.35983C13.539 8.43016 13.4995 8.52554 13.4995 8.625V12.375C13.4995 12.4745 13.539 12.5698 13.6093 12.6402C13.6797 12.7105 13.775 12.75 13.8745 12.75H15.3745C15.474 12.75 15.5693 12.7105 15.6397 12.6402C15.71 12.5698 15.7495 12.4745 15.7495 12.375V8.625C15.7495 8.52554 15.71 8.43016 15.6397 8.35983C15.5693 8.28951 15.474 8.25 15.3745 8.25H13.8745ZM14.9995 12H14.2495V9H14.9995V12ZM17.2495 6.375C17.15 6.375 17.0547 6.41451 16.9843 6.48483C16.914 6.55516 16.8745 6.65054 16.8745 6.75V12.375C16.8745 12.4745 16.914 12.5698 16.9843 12.6402C17.0547 12.7105 17.15 12.75 17.2495 12.75H18.7495C18.849 12.75 18.9443 12.7105 19.0147 12.6402C19.085 12.5698 19.1245 12.4745 19.1245 12.375V6.75C19.1245 6.65054 19.085 6.55516 19.0147 6.48483C18.9443 6.41451 18.849 6.375 18.7495 6.375H17.2495ZM18.3745 12H17.6245V7.125H18.3745V12ZM7.1245 3.90525L9.48438 6.26513C9.5547 6.33543 9.65006 6.37492 9.7495 6.37492C9.84894 6.37492 9.9443 6.33543 10.0146 6.26513L14.2495 2.03025L17.3594 5.14012C17.4297 5.21043 17.5251 5.24992 17.6245 5.24992C17.7239 5.24992 17.8193 5.21043 17.8896 5.14012L21.7495 1.28025V2.25H22.4995V0.375C22.4995 0.275544 22.46 0.180161 22.3897 0.109835C22.3193 0.0395088 22.224 0 22.1245 0H20.2495V0.75H21.2192L17.6245 4.34475L14.5146 1.23488C14.4443 1.16457 14.3489 1.12508 14.2495 1.12508C14.1501 1.12508 14.0547 1.16457 13.9844 1.23488L9.7495 5.46975L7.38963 3.10988C7.3193 3.03957 7.22394 3.00008 7.1245 3.00008C7.02506 3.00008 6.9297 3.03957 6.85937 3.10988L1.60938 8.35987L2.13962 8.89013L7.1245 3.90525Z" fill="#24BAF2"/>
</svg>
