<svg width="206" height="147" viewBox="0 0 206 147" fill="none" xmlns="http://www.w3.org/2000/svg">
<line x1="102.5" y1="147" x2="102.5" y2="93" stroke="#E7E7E7" stroke-dasharray="4 4"/>
<rect y="24" width="206" height="68" rx="12" fill="#FF4C7B"/>
<path d="M25.925 56.689V60H24.869V52.102H27.883C29.555 52.102 30.622 52.883 30.622 54.39C30.622 55.875 29.555 56.689 27.883 56.689H25.925ZM25.925 55.776H27.828C28.95 55.776 29.577 55.281 29.577 54.39C29.577 53.499 28.95 53.015 27.828 53.015H25.925V55.776ZM32.9369 60.099C31.8919 60.099 31.0449 59.483 31.0449 58.449C31.0449 57.305 31.9359 56.832 33.2229 56.568L34.6199 56.282V56.04C34.6199 55.38 34.2569 55.006 33.4869 55.006C32.7609 55.006 32.3319 55.347 32.1559 55.985L31.2209 55.743C31.4959 54.808 32.3429 54.137 33.5199 54.137C34.8069 54.137 35.5989 54.764 35.5989 55.996V58.801C35.5989 59.175 35.8299 59.296 36.2149 59.208V60C35.3349 60.11 34.8289 59.901 34.7079 59.351C34.3559 59.802 33.7179 60.099 32.9369 60.099ZM34.6199 58.042V57.052L33.4979 57.294C32.6179 57.47 32.0239 57.712 32.0239 58.405C32.0239 58.966 32.4309 59.296 33.0579 59.296C33.9049 59.296 34.6199 58.779 34.6199 58.042ZM40.2669 54.225V55.226C40.1019 55.193 39.9699 55.182 39.7829 55.182C38.9469 55.182 38.2759 55.842 38.2759 56.854V60H37.2859V54.247H38.2759V55.226C38.5289 54.643 39.0899 54.203 39.8709 54.203C40.0249 54.203 40.1679 54.214 40.2669 54.225ZM41.5757 58.625V55.094H40.6847V54.247H41.5757V52.564H42.5547V54.247H43.8637V55.094H42.5547V58.471C42.5547 59.076 42.8517 59.186 43.3577 59.186C43.5887 59.186 43.7537 59.175 43.9847 59.12V59.967C43.7317 60.022 43.4457 60.055 43.1157 60.055C42.1367 60.055 41.5757 59.725 41.5757 58.625ZM45.16 60V54.247H46.15V55.028C46.48 54.555 47.052 54.137 47.866 54.137C49.087 54.137 49.78 54.984 49.78 56.205V60H48.79V56.469C48.79 55.666 48.449 55.061 47.591 55.061C46.876 55.061 46.15 55.611 46.15 56.568V60H45.16ZM53.6679 60.121C52.0729 60.121 50.9729 58.9 50.9729 57.129C50.9729 55.413 52.0619 54.137 53.6239 54.137C55.2299 54.137 56.0769 55.358 56.0769 56.953V57.283H51.9189C51.9739 58.493 52.6669 59.263 53.6679 59.263C54.4379 59.263 54.9879 58.845 55.1639 58.163L56.0329 58.471C55.6809 59.494 54.8119 60.121 53.6679 60.121ZM53.6129 54.984C52.7769 54.984 52.1499 55.545 51.9739 56.524H55.0759C55.0539 55.71 54.6139 54.984 53.6129 54.984ZM60.2904 54.225V55.226C60.1254 55.193 59.9934 55.182 59.8064 55.182C58.9704 55.182 58.2994 55.842 58.2994 56.854V60H57.3094V54.247H58.2994V55.226C58.5524 54.643 59.1134 54.203 59.8944 54.203C60.0484 54.203 60.1914 54.214 60.2904 54.225ZM60.6352 58.779L61.4052 58.218C61.7132 58.889 62.4172 59.296 63.1652 59.296C63.8362 59.296 64.4302 59.01 64.4302 58.383C64.4302 57.756 63.8802 57.668 62.9342 57.47C61.9882 57.261 60.9982 57.052 60.9982 55.875C60.9982 54.852 61.8892 54.137 63.1102 54.137C64.1442 54.137 64.9912 54.643 65.3322 55.325L64.6282 55.886C64.3312 55.314 63.7922 54.951 63.0662 54.951C62.4062 54.951 61.9662 55.281 61.9662 55.798C61.9662 56.337 62.4722 56.436 63.2752 56.612C64.2652 56.843 65.3982 57.041 65.3982 58.295C65.3982 59.395 64.3972 60.121 63.1652 60.121C62.1202 60.121 61.0752 59.67 60.6352 58.779ZM66.6229 60V52.102H67.6129V55.028C67.9429 54.555 68.5149 54.137 69.3289 54.137C70.5499 54.137 71.2429 54.984 71.2429 56.205V60H70.2529V56.469C70.2529 55.666 69.9119 55.061 69.0539 55.061C68.3389 55.061 67.6129 55.611 67.6129 56.568V60H66.6229ZM72.7878 53.246V52.102H73.8658V53.246H72.7878ZM73.8218 54.247V60H72.8318V54.247H73.8218ZM78.2464 60.121C77.4434 60.121 76.8054 59.736 76.4644 59.164V61.98H75.4744V54.247H76.4644V55.083C76.8054 54.522 77.4434 54.137 78.2464 54.137C79.8414 54.137 80.7544 55.49 80.7544 57.129C80.7544 58.757 79.8414 60.121 78.2464 60.121ZM76.4424 56.931V57.338C76.4424 58.658 77.2564 59.252 78.0704 59.252C79.1484 59.252 79.7534 58.361 79.7534 57.129C79.7534 55.886 79.1484 55.006 78.0704 55.006C77.2564 55.006 76.4424 55.589 76.4424 56.931ZM87.065 54.247H87.901L89.089 58.537L90.288 54.247H91.278L89.529 60H88.66L87.461 55.732L86.262 60H85.393L83.644 54.247H84.667L85.877 58.526L87.065 54.247ZM92.199 53.246V52.102H93.277V53.246H92.199ZM93.233 54.247V60H92.243V54.247H93.233ZM95.0395 58.625V55.094H94.1485V54.247H95.0395V52.564H96.0185V54.247H97.3275V55.094H96.0185V58.471C96.0185 59.076 96.3155 59.186 96.8215 59.186C97.0525 59.186 97.2175 59.175 97.4485 59.12V59.967C97.1955 60.022 96.9095 60.055 96.5795 60.055C95.6005 60.055 95.0395 59.725 95.0395 58.625ZM98.6238 60V52.102H99.6138V55.028C99.9438 54.555 100.516 54.137 101.33 54.137C102.551 54.137 103.244 54.984 103.244 56.205V60H102.254V56.469C102.254 55.666 101.913 55.061 101.055 55.061C100.34 55.061 99.6138 55.611 99.6138 56.568V60H98.6238ZM111.674 60H110.442L108.539 54.214V60H107.021V52.102H109.265L111.091 57.723L112.906 52.102H115.117V60H113.577V54.214L111.674 60ZM118.014 60.099C116.881 60.099 116.045 59.417 116.045 58.394C116.045 57.239 116.969 56.755 118.135 56.546L119.576 56.271V56.183C119.576 55.688 119.323 55.38 118.685 55.38C118.113 55.38 117.816 55.633 117.684 56.15L116.221 55.875C116.485 54.896 117.365 54.104 118.74 54.104C120.203 54.104 121.083 54.775 121.083 56.117V58.482C121.083 58.79 121.215 58.889 121.556 58.845V60C120.577 60.143 119.983 59.945 119.73 59.461C119.356 59.868 118.773 60.099 118.014 60.099ZM119.576 57.943V57.349L118.443 57.58C117.937 57.679 117.563 57.844 117.563 58.306C117.563 58.702 117.86 58.933 118.322 58.933C118.971 58.933 119.576 58.592 119.576 57.943ZM121.863 59.021L122.82 58.042C123.216 58.581 123.92 58.922 124.569 58.922C125.086 58.922 125.537 58.746 125.537 58.328C125.537 57.888 125.108 57.833 124.184 57.657C123.249 57.47 122.215 57.228 122.215 55.985C122.215 54.874 123.194 54.104 124.58 54.104C125.603 54.104 126.516 54.522 126.967 55.105L126.087 56.073C125.702 55.578 125.141 55.303 124.536 55.303C124.052 55.303 123.733 55.512 123.733 55.831C123.733 56.205 124.118 56.271 124.833 56.414C125.845 56.623 127.044 56.854 127.044 58.163C127.044 59.373 125.922 60.121 124.536 60.121C123.491 60.121 122.391 59.736 121.863 59.021ZM128.089 58.493V55.501H127.319V54.214H128.089V52.564H129.607V54.214H130.784V55.501H129.607V58.174C129.607 58.669 129.882 58.735 130.333 58.735C130.553 58.735 130.663 58.724 130.861 58.702V59.978C130.586 60.033 130.256 60.066 129.871 60.066C128.705 60.066 128.089 59.681 128.089 58.493ZM134.268 60.121C132.563 60.121 131.397 58.9 131.397 57.107C131.397 55.402 132.574 54.104 134.213 54.104C135.929 54.104 136.853 55.38 136.853 56.997V57.448H132.871C132.981 58.328 133.52 58.856 134.279 58.856C134.873 58.856 135.346 58.57 135.522 58.009L136.82 58.471C136.402 59.527 135.423 60.121 134.268 60.121ZM134.202 55.336C133.586 55.336 133.113 55.699 132.926 56.403H135.324C135.313 55.831 134.95 55.336 134.202 55.336ZM141.218 54.203V55.71C141.042 55.688 140.91 55.677 140.723 55.677C139.92 55.677 139.304 56.172 139.304 57.063V60H137.764V54.214H139.304V55.028C139.557 54.522 140.129 54.181 140.844 54.181C140.998 54.181 141.108 54.192 141.218 54.203ZM143.002 57.107C143.002 58.196 143.541 58.823 144.355 58.823C144.993 58.823 145.378 58.383 145.521 57.789L146.852 58.383C146.588 59.329 145.686 60.121 144.344 60.121C142.661 60.121 141.473 58.9 141.473 57.107C141.473 55.325 142.661 54.104 144.344 54.104C145.675 54.104 146.555 54.874 146.83 55.809L145.521 56.425C145.378 55.831 144.993 55.391 144.355 55.391C143.541 55.391 143.002 56.029 143.002 57.107ZM149.252 60.099C148.119 60.099 147.283 59.417 147.283 58.394C147.283 57.239 148.207 56.755 149.373 56.546L150.814 56.271V56.183C150.814 55.688 150.561 55.38 149.923 55.38C149.351 55.38 149.054 55.633 148.922 56.15L147.459 55.875C147.723 54.896 148.603 54.104 149.978 54.104C151.441 54.104 152.321 54.775 152.321 56.117V58.482C152.321 58.79 152.453 58.889 152.794 58.845V60C151.815 60.143 151.221 59.945 150.968 59.461C150.594 59.868 150.011 60.099 149.252 60.099ZM150.814 57.943V57.349L149.681 57.58C149.175 57.679 148.801 57.844 148.801 58.306C148.801 58.702 149.098 58.933 149.56 58.933C150.209 58.933 150.814 58.592 150.814 57.943ZM157.116 54.203V55.71C156.94 55.688 156.808 55.677 156.621 55.677C155.818 55.677 155.202 56.172 155.202 57.063V60H153.662V54.214H155.202V55.028C155.455 54.522 156.027 54.181 156.742 54.181C156.896 54.181 157.006 54.192 157.116 54.203ZM159.933 60.121C158.338 60.121 157.414 58.757 157.414 57.107C157.414 55.468 158.338 54.104 159.933 54.104C160.659 54.104 161.209 54.39 161.55 54.808V52.102H163.09V60H161.55V59.406C161.209 59.835 160.659 60.121 159.933 60.121ZM161.583 56.953C161.583 55.963 161.033 55.424 160.296 55.424C159.427 55.424 158.965 56.117 158.965 57.107C158.965 58.108 159.427 58.801 160.296 58.801C161.033 58.801 161.583 58.251 161.583 57.272V56.953ZM164.142 60V58.218H165.946V59.967C165.946 61.001 165.231 61.617 164.142 61.617V60.803C164.648 60.77 164.901 60.55 164.901 60.077V60H164.142ZM28.697 76H27.003L24.088 68.102H25.826L27.872 73.943L29.929 68.102H31.59L28.697 76ZM32.2107 69.532V68.102H33.7837V69.532H32.2107ZM33.7727 70.214V76H32.2327V70.214H33.7727ZM34.4644 75.021L35.4214 74.042C35.8174 74.581 36.5214 74.922 37.1704 74.922C37.6874 74.922 38.1384 74.746 38.1384 74.328C38.1384 73.888 37.7094 73.833 36.7854 73.657C35.8504 73.47 34.8164 73.228 34.8164 71.985C34.8164 70.874 35.7954 70.104 37.1814 70.104C38.2044 70.104 39.1174 70.522 39.5684 71.105L38.6884 72.073C38.3034 71.578 37.7424 71.303 37.1374 71.303C36.6534 71.303 36.3344 71.512 36.3344 71.831C36.3344 72.205 36.7194 72.271 37.4344 72.414C38.4464 72.623 39.6454 72.854 39.6454 74.163C39.6454 75.373 38.5234 76.121 37.1374 76.121C36.0924 76.121 34.9924 75.736 34.4644 75.021ZM42.1309 76.099C40.9979 76.099 40.1619 75.417 40.1619 74.394C40.1619 73.239 41.0859 72.755 42.2519 72.546L43.6929 72.271V72.183C43.6929 71.688 43.4399 71.38 42.8019 71.38C42.2299 71.38 41.9329 71.633 41.8009 72.15L40.3379 71.875C40.6019 70.896 41.4819 70.104 42.8569 70.104C44.3199 70.104 45.1999 70.775 45.1999 72.117V74.482C45.1999 74.79 45.3319 74.889 45.6729 74.845V76C44.6939 76.143 44.0999 75.945 43.8469 75.461C43.4729 75.868 42.8899 76.099 42.1309 76.099ZM43.6929 73.943V73.349L42.5599 73.58C42.0539 73.679 41.6799 73.844 41.6799 74.306C41.6799 74.702 41.9769 74.933 42.4389 74.933C43.0879 74.933 43.6929 74.592 43.6929 73.943ZM51.537 68.036C51.9623 68.036 52.34 68.102 52.67 68.234C53 68.366 53.2603 68.5603 53.451 68.817C53.6416 69.0663 53.737 69.3743 53.737 69.741C53.737 70.247 53.5866 70.6723 53.286 71.017C52.9853 71.3617 52.6113 71.6623 52.164 71.919L53.693 73.404C53.8396 73.1547 53.968 72.8943 54.078 72.623C54.188 72.3443 54.2796 72.0657 54.353 71.787H56.058C55.948 72.1977 55.7866 72.6377 55.574 73.107C55.3613 73.5763 55.09 74.0163 54.76 74.427L56.377 76H54.353L53.737 75.395C53.5756 75.505 53.407 75.604 53.231 75.692C53.055 75.78 52.8716 75.857 52.681 75.923C52.4903 75.9817 52.2886 76.0257 52.076 76.055C51.8633 76.0917 51.6433 76.11 51.416 76.11C50.822 76.11 50.3123 76.0183 49.887 75.835C49.4616 75.6443 49.1353 75.3803 48.908 75.043C48.6806 74.7057 48.567 74.317 48.567 73.877C48.567 73.503 48.622 73.184 48.732 72.92C48.8493 72.6487 49.0143 72.414 49.227 72.216C49.447 72.0107 49.7073 71.8237 50.008 71.655C49.8173 71.435 49.6633 71.2297 49.546 71.039C49.436 70.841 49.3553 70.6467 49.304 70.456C49.26 70.2653 49.238 70.0637 49.238 69.851C49.238 69.477 49.3333 69.1543 49.524 68.883C49.722 68.6117 49.9933 68.4027 50.338 68.256C50.69 68.1093 51.0896 68.036 51.537 68.036ZM50.965 72.634C50.8256 72.7367 50.7046 72.843 50.602 72.953C50.5066 73.063 50.4296 73.1803 50.371 73.305C50.3196 73.4297 50.294 73.569 50.294 73.723C50.294 74.0383 50.4113 74.2877 50.646 74.471C50.8806 74.647 51.174 74.735 51.526 74.735C51.7606 74.735 51.9806 74.7057 52.186 74.647C52.3913 74.5883 52.5783 74.5077 52.747 74.405L50.965 72.634ZM51.526 69.301C51.3426 69.301 51.1666 69.3487 50.998 69.444C50.8366 69.532 50.756 69.7043 50.756 69.961C50.756 70.1443 50.8 70.3203 50.888 70.489C50.9833 70.6577 51.108 70.83 51.262 71.006C51.57 70.8373 51.8046 70.6687 51.966 70.5C52.1346 70.3313 52.219 70.137 52.219 69.917C52.219 69.697 52.1456 69.5393 51.999 69.444C51.8523 69.3487 51.6946 69.301 51.526 69.301ZM60.9106 68.102V76H59.2936V68.102H60.9106ZM62.2357 76V70.214H63.7757V70.808C64.0947 70.434 64.6227 70.104 65.3597 70.104C66.5697 70.104 67.3067 70.929 67.3067 72.183V76H65.7667V72.623C65.7667 71.974 65.5027 71.512 64.8427 71.512C64.3037 71.512 63.7757 71.897 63.7757 72.656V76H62.2357ZM68.6953 74.493V71.501H67.9253V70.214H68.6953V68.564H70.2133V70.214H71.3903V71.501H70.2133V74.174C70.2133 74.669 70.4883 74.735 70.9393 74.735C71.1593 74.735 71.2693 74.724 71.4673 74.702V75.978C71.1923 76.033 70.8623 76.066 70.4773 76.066C69.3113 76.066 68.6953 75.681 68.6953 74.493ZM74.8741 76.121C73.1691 76.121 72.0031 74.9 72.0031 73.107C72.0031 71.402 73.1801 70.104 74.8191 70.104C76.5351 70.104 77.4591 71.38 77.4591 72.997V73.448H73.4771C73.5871 74.328 74.1261 74.856 74.8851 74.856C75.4791 74.856 75.9521 74.57 76.1281 74.009L77.4261 74.471C77.0081 75.527 76.0291 76.121 74.8741 76.121ZM74.8081 71.336C74.1921 71.336 73.7191 71.699 73.5321 72.403H75.9301C75.9191 71.831 75.5561 71.336 74.8081 71.336ZM81.8244 70.203V71.71C81.6484 71.688 81.5164 71.677 81.3294 71.677C80.5264 71.677 79.9104 72.172 79.9104 73.063V76H78.3704V70.214H79.9104V71.028C80.1634 70.522 80.7354 70.181 81.4504 70.181C81.6044 70.181 81.7144 70.192 81.8244 70.203ZM82.0094 75.021L82.9664 74.042C83.3624 74.581 84.0664 74.922 84.7154 74.922C85.2324 74.922 85.6834 74.746 85.6834 74.328C85.6834 73.888 85.2544 73.833 84.3304 73.657C83.3954 73.47 82.3614 73.228 82.3614 71.985C82.3614 70.874 83.3404 70.104 84.7264 70.104C85.7494 70.104 86.6624 70.522 87.1134 71.105L86.2334 72.073C85.8484 71.578 85.2874 71.303 84.6824 71.303C84.1984 71.303 83.8794 71.512 83.8794 71.831C83.8794 72.205 84.2644 72.271 84.9794 72.414C85.9914 72.623 87.1904 72.854 87.1904 74.163C87.1904 75.373 86.0684 76.121 84.6824 76.121C83.6374 76.121 82.5374 75.736 82.0094 75.021ZM90.8232 70.214H92.0222L92.9792 73.833L93.9472 70.214H95.4542L93.7052 76H92.3742L91.3952 72.502L90.4162 76H89.0852L87.3362 70.214H88.8982L89.8772 73.833L90.8232 70.214ZM96.0838 69.532V68.102H97.6568V69.532H96.0838ZM97.6458 70.214V76H96.1058V70.214H97.6458ZM99.0635 74.493V71.501H98.2935V70.214H99.0635V68.564H100.581V70.214H101.758V71.501H100.581V74.174C100.581 74.669 100.856 74.735 101.307 74.735C101.527 74.735 101.637 74.724 101.835 74.702V75.978C101.56 76.033 101.23 76.066 100.845 76.066C99.6795 76.066 99.0635 75.681 99.0635 74.493ZM103.9 73.107C103.9 74.196 104.439 74.823 105.253 74.823C105.891 74.823 106.276 74.383 106.419 73.789L107.75 74.383C107.486 75.329 106.584 76.121 105.242 76.121C103.559 76.121 102.371 74.9 102.371 73.107C102.371 71.325 103.559 70.104 105.242 70.104C106.573 70.104 107.453 70.874 107.728 71.809L106.419 72.425C106.276 71.831 105.891 71.391 105.253 71.391C104.439 71.391 103.9 72.029 103.9 73.107ZM108.492 76V68.102H110.032V70.808C110.351 70.434 110.879 70.104 111.616 70.104C112.826 70.104 113.563 70.929 113.563 72.183V76H112.023V72.623C112.023 71.974 111.759 71.512 111.099 71.512C110.56 71.512 110.032 71.897 110.032 72.656V76H108.492Z" fill="white"/>
<rect x="12" y="55" width="4" height="4" fill="white"/>
<rect x="83.5" y="4.5" width="39" height="39" rx="19.5" fill="white"/>
<rect x="83.5" y="4.5" width="39" height="39" rx="19.5" stroke="#FF4C7B"/>
<mask id="path-6-inside-1_3183_30276" fill="white">
<path d="M115.975 24.2258L113.131 16.2625C113.096 16.1632 113.025 16.0826 112.935 16.038C112.845 15.9934 112.742 15.9882 112.649 16.0236L109.652 17.1692C109.604 17.1877 109.56 17.2164 109.523 17.2535C109.485 17.2906 109.455 17.3355 109.434 17.3854C109.413 17.4353 109.401 17.4892 109.4 17.544C109.398 17.5987 109.407 17.6532 109.426 17.7042L109.687 18.4117L107.642 19.4523L104.286 18.7769C103.96 18.7114 103.624 18.7189 103.3 18.7989C102.976 18.8789 102.671 19.0296 102.403 19.2417L101.804 19.7184L101.407 19.412C101.107 19.182 100.762 19.0282 100.399 18.9622C100.035 18.8961 99.6625 18.9197 99.3088 19.0311L98.021 19.442L96.334 18.3611L96.5762 17.7048C96.5949 17.6538 96.6039 17.5993 96.6026 17.5445C96.6013 17.4897 96.5897 17.4358 96.5686 17.3859C96.5475 17.336 96.5172 17.2912 96.4796 17.2541C96.442 17.2169 96.3979 17.1883 96.3498 17.1698L93.3516 16.0236C93.2579 15.9879 93.1548 15.9929 93.0645 16.0375C92.9741 16.0822 92.9037 16.1629 92.8682 16.2625L90.0254 24.2258C89.9902 24.3239 89.9916 24.4327 90.0295 24.5297C90.0673 24.6266 90.1386 24.7042 90.2285 24.7461L93.0723 26.0594C93.1192 26.081 93.1696 26.0924 93.2206 26.0928C93.2717 26.0932 93.3222 26.0826 93.3694 26.0616C93.4165 26.0407 93.4592 26.0098 93.495 25.9708C93.5308 25.9318 93.5588 25.8855 93.5776 25.8346L93.864 25.058L96.2213 26.4817C96.0624 26.7289 95.9893 27.0278 96.0145 27.3267C96.0397 27.6256 96.1617 27.9056 96.3594 28.1182C96.4706 28.2374 96.6027 28.3319 96.748 28.3963C96.8934 28.4606 97.0492 28.4936 97.2064 28.4932H97.2364C97.2631 28.8125 97.4004 29.1095 97.6213 29.3257C97.8422 29.5419 98.1306 29.6616 98.4298 29.6611H98.4607C98.4849 29.9612 98.6072 30.2424 98.8061 30.4552C98.9172 30.5744 99.0493 30.6689 99.1947 30.7332C99.34 30.7976 99.4958 30.8305 99.6531 30.8302H99.6831C99.7032 31.0734 99.7877 31.3054 99.9266 31.499C100.066 31.6926 100.253 31.8397 100.467 31.923C100.681 32.0063 100.913 32.0224 101.136 31.9694C101.358 31.9164 101.562 31.7964 101.723 31.6237L102.175 31.1393L102.788 31.6291C103.047 31.8363 103.368 31.9361 103.691 31.9101C104.013 31.8841 104.316 31.7341 104.544 31.4876L104.587 31.4408C104.779 31.2305 104.907 30.9621 104.953 30.6718C105.182 30.7411 105.424 30.7438 105.654 30.6797C105.885 30.6155 106.095 30.4867 106.264 30.3066L106.295 30.2729C106.509 30.0443 106.644 29.7448 106.678 29.4233C106.909 29.497 107.154 29.5023 107.388 29.4386C107.621 29.3748 107.834 29.2445 108.004 29.0614L108.025 29.0385C108.234 28.8172 108.367 28.5279 108.405 28.2162C108.611 28.2687 108.825 28.2684 109.031 28.2151C109.236 28.1619 109.427 28.0573 109.587 27.9098C109.748 27.7624 109.873 27.5764 109.954 27.3669C110.034 27.1575 110.067 26.9306 110.05 26.7048C110.043 26.6173 110.029 26.5306 110.008 26.4458L112.222 25.2844L112.425 25.833C112.443 25.8839 112.471 25.9303 112.507 25.9694C112.543 26.0085 112.586 26.0395 112.633 26.0605C112.68 26.0814 112.731 26.092 112.782 26.0915C112.833 26.0911 112.883 26.0796 112.93 26.0577L115.774 24.7445C115.863 24.7021 115.933 24.6247 115.971 24.5282C116.008 24.4317 116.01 24.3234 115.975 24.2258ZM93.0129 25.1434L90.8674 24.1518L93.4456 16.927L94.0778 17.1681L92.859 20.8809C92.8254 20.9831 92.831 21.0955 92.8746 21.1932C92.9182 21.291 92.9963 21.3662 93.0916 21.4023C93.187 21.4384 93.2918 21.4324 93.383 21.3857C93.4743 21.3389 93.5444 21.2552 93.5781 21.1531L94.7938 17.4441L95.7206 17.7984L93.0129 25.1434ZM97.5157 27.5408C97.4335 27.6254 97.3236 27.6721 97.2096 27.671C97.0956 27.6699 96.9866 27.621 96.9058 27.5348C96.825 27.4486 96.779 27.3319 96.7774 27.2097C96.7759 27.0876 96.8191 26.9696 96.8977 26.8812L97.7102 26.0104C97.7713 25.9451 97.8491 25.9007 97.9337 25.8828C98.0183 25.8649 98.106 25.8742 98.1856 25.9096C98.2653 25.945 98.3334 26.0048 98.3814 26.0817C98.4294 26.1585 98.455 26.2488 98.4552 26.3413C98.4554 26.4027 98.4441 26.4635 98.4222 26.5202C98.4002 26.577 98.3679 26.6284 98.3272 26.6716L97.5157 27.5408ZM98.8066 28.638C98.7837 28.6619 98.7634 28.6875 98.7431 28.7131L98.739 28.7082C98.6989 28.7532 98.6508 28.7892 98.5975 28.814C98.5442 28.8389 98.4868 28.852 98.4287 28.8527C98.3706 28.8535 98.3129 28.8418 98.2591 28.8183C98.2053 28.7948 98.1564 28.76 98.1152 28.716C98.0741 28.672 98.0417 28.6196 98.0197 28.5619C97.9977 28.5043 97.9868 28.4425 97.9874 28.3802C97.988 28.3179 98.0003 28.2564 98.0234 28.1993C98.0465 28.1421 98.08 28.0905 98.122 28.0475L98.8675 27.2491C98.8898 27.2251 98.9112 27.2001 98.9315 27.1745L98.935 27.1783C99.0174 27.0939 99.1273 27.0473 99.2413 27.0487C99.3553 27.05 99.4643 27.0991 99.5449 27.1854C99.6255 27.2718 99.6714 27.3885 99.6728 27.5107C99.6741 27.6328 99.6308 27.7507 99.552 27.839L98.8066 28.638ZM99.9603 29.8745C99.8773 29.9544 99.7689 29.9971 99.6573 29.9939C99.5458 29.9908 99.4397 29.9419 99.3607 29.8575C99.2817 29.773 99.236 29.6593 99.2329 29.5398C99.2297 29.4202 99.2694 29.304 99.3438 29.2149L100.156 28.3441C100.196 28.2962 100.244 28.2575 100.298 28.2304C100.352 28.2033 100.41 28.1882 100.47 28.1862C100.529 28.1842 100.588 28.1953 100.644 28.2188C100.699 28.2423 100.75 28.2777 100.792 28.3228C100.834 28.3679 100.867 28.4218 100.889 28.4811C100.911 28.5404 100.921 28.6039 100.919 28.6677C100.918 28.7315 100.904 28.7942 100.878 28.852C100.853 28.9098 100.817 28.9614 100.772 29.0037L99.9603 29.8745ZM101.996 30.1716L101.183 31.0424C101.101 31.1269 100.991 31.1734 100.877 31.1721C100.763 31.1707 100.654 31.1216 100.573 31.0353C100.493 30.949 100.447 30.8322 100.445 30.7101C100.444 30.5879 100.487 30.47 100.566 30.3817L101.312 29.5833C101.334 29.5594 101.355 29.5343 101.376 29.5087L101.379 29.5126C101.462 29.4281 101.571 29.3816 101.685 29.3829C101.799 29.3842 101.908 29.4333 101.989 29.5197C102.07 29.606 102.116 29.7227 102.117 29.8449C102.118 29.9671 102.075 30.0849 101.996 30.1733L101.996 30.1716ZM109.123 27.2545C109.022 27.3642 108.886 27.429 108.742 27.436C108.598 27.4429 108.457 27.3915 108.347 27.2921L108.05 27.027C108.03 26.9947 108.005 26.9657 107.976 26.941L107.291 26.3511C107.212 26.2875 107.113 26.2593 107.015 26.2723C106.917 26.2854 106.828 26.3388 106.766 26.4212C106.704 26.5036 106.674 26.6085 106.683 26.714C106.692 26.8194 106.739 26.917 106.813 26.9862L107.404 27.4972C107.421 27.5216 107.44 27.544 107.46 27.5642C107.519 27.6199 107.566 27.6879 107.6 27.764C107.633 27.8401 107.651 27.9227 107.654 28.0068C107.656 28.0908 107.642 28.1744 107.614 28.2525C107.585 28.3307 107.541 28.4016 107.486 28.4611L107.464 28.4839C107.368 28.5876 107.24 28.6511 107.104 28.6631C106.968 28.6751 106.833 28.6347 106.722 28.5492L106.133 28.0975L106.127 28.0926L105.905 27.9223C105.823 27.8593 105.721 27.8338 105.621 27.8515C105.521 27.8693 105.432 27.9287 105.373 28.0167C105.315 28.1048 105.291 28.2142 105.307 28.321C105.324 28.4278 105.379 28.5233 105.461 28.5863L105.688 28.7599C105.755 28.8124 105.811 28.8798 105.852 28.9577C105.892 29.0355 105.916 29.1218 105.923 29.2107C105.929 29.2996 105.918 29.3889 105.889 29.4725C105.86 29.556 105.814 29.6319 105.756 29.6949L105.724 29.7286C105.62 29.8395 105.481 29.904 105.335 29.909C105.188 29.9139 105.046 29.859 104.936 29.7553L104.301 29.1566C104.265 29.1161 104.221 29.0841 104.172 29.0626C104.124 29.0411 104.071 29.0307 104.019 29.0318C103.966 29.033 103.915 29.0458 103.867 29.0695C103.819 29.0931 103.777 29.127 103.742 29.1692C103.707 29.2113 103.681 29.2607 103.665 29.3142C103.648 29.3678 103.643 29.4244 103.648 29.4804C103.653 29.5364 103.669 29.5907 103.695 29.6397C103.721 29.6888 103.755 29.7317 103.797 29.7656L104.013 29.9703C104.072 30.0257 104.12 30.0934 104.153 30.1692C104.187 30.245 104.205 30.3274 104.208 30.4112C104.211 30.4951 104.198 30.5787 104.169 30.6569C104.141 30.7351 104.098 30.8063 104.043 30.8661L104 30.9129C103.902 31.019 103.771 31.0836 103.633 31.0948C103.494 31.106 103.356 31.0631 103.244 30.9738L102.695 30.5352C102.811 30.3412 102.876 30.1173 102.884 29.887C102.891 29.6568 102.841 29.4287 102.737 29.2266C102.634 29.0245 102.482 28.8559 102.297 28.7384C102.112 28.621 101.901 28.559 101.686 28.559H101.656C101.63 28.2398 101.492 27.9429 101.272 27.7266C101.051 27.5104 100.763 27.3905 100.464 27.3906H100.433C100.405 27.0667 100.263 26.7662 100.036 26.5503C99.8093 26.3343 99.5142 26.2191 99.2108 26.2281C99.1869 25.928 99.0643 25.6468 98.865 25.4346C98.6402 25.1941 98.3355 25.059 98.0179 25.059C97.7003 25.059 97.3957 25.1941 97.1709 25.4346L96.7611 25.8732L94.1458 24.2949L96.0491 19.1334L97.7727 20.2376C97.818 20.2667 97.8685 20.2854 97.921 20.2924C97.9734 20.2994 98.0267 20.2947 98.0773 20.2785L99.5256 19.8164C99.7676 19.74 100.023 19.7237 100.271 19.7687C100.52 19.8136 100.756 19.9187 100.961 20.076L101.161 20.2306L99.1255 21.8497C98.9744 21.9699 98.8516 22.1261 98.7666 22.306C98.6817 22.4859 98.637 22.6846 98.6361 22.8862C98.6352 23.0878 98.6781 23.2869 98.7615 23.4676C98.8449 23.6484 98.9663 23.8059 99.1163 23.9276C99.3992 24.1552 99.7397 24.2859 100.093 24.3025C100.447 24.3191 100.796 24.2209 101.097 24.0206L102.695 22.9425C102.881 23.3398 103.229 23.8797 103.832 24.2122C104.531 24.5975 105.381 24.6073 106.361 24.2416L109.053 26.319C109.12 26.3713 109.177 26.4387 109.218 26.5166C109.258 26.5945 109.283 26.681 109.29 26.7701C109.297 26.8592 109.285 26.9488 109.256 27.0327C109.228 27.1166 109.182 27.1929 109.123 27.2561V27.2545ZM109.613 25.7437L106.643 23.4525C106.591 23.4128 106.531 23.3875 106.468 23.379C106.405 23.3704 106.341 23.3788 106.282 23.4035C105.434 23.7561 104.73 23.7844 104.187 23.49C103.469 23.0987 103.249 22.2432 103.247 22.2383C103.233 22.176 103.204 22.1184 103.165 22.07C103.125 22.0217 103.076 21.9841 103.02 21.9602C102.964 21.9364 102.904 21.9269 102.844 21.9327C102.785 21.9384 102.727 21.9592 102.676 21.9934L100.692 23.3273C100.522 23.4402 100.325 23.4955 100.125 23.4857C99.9257 23.476 99.7337 23.4018 99.5744 23.2729C99.5187 23.2278 99.4736 23.1694 99.4426 23.1023C99.4116 23.0353 99.3957 22.9614 99.396 22.8866C99.3964 22.8118 99.413 22.7381 99.4446 22.6714C99.4762 22.6046 99.5218 22.5467 99.5779 22.5022L102.855 19.8953C103.038 19.7503 103.247 19.6472 103.469 19.5925C103.69 19.5378 103.92 19.5327 104.144 19.5775L107.621 20.2774C107.7 20.2936 107.782 20.2824 107.855 20.2453L109.965 19.1709L111.939 24.5241L109.613 25.7437ZM112.987 25.1418L110.278 17.7946L111.205 17.4403L112.421 21.1492C112.454 21.2514 112.524 21.3351 112.616 21.3819C112.707 21.4286 112.812 21.4346 112.907 21.3985C113.002 21.3624 113.08 21.2872 113.124 21.1894C113.168 21.0917 113.173 20.9793 113.14 20.8771L111.921 17.1643L112.553 16.9232L115.131 24.148L112.987 25.1418Z"/>
</mask>
<path d="M115.975 24.2258L113.131 16.2625C113.096 16.1632 113.025 16.0826 112.935 16.038C112.845 15.9934 112.742 15.9882 112.649 16.0236L109.652 17.1692C109.604 17.1877 109.56 17.2164 109.523 17.2535C109.485 17.2906 109.455 17.3355 109.434 17.3854C109.413 17.4353 109.401 17.4892 109.4 17.544C109.398 17.5987 109.407 17.6532 109.426 17.7042L109.687 18.4117L107.642 19.4523L104.286 18.7769C103.96 18.7114 103.624 18.7189 103.3 18.7989C102.976 18.8789 102.671 19.0296 102.403 19.2417L101.804 19.7184L101.407 19.412C101.107 19.182 100.762 19.0282 100.399 18.9622C100.035 18.8961 99.6625 18.9197 99.3088 19.0311L98.021 19.442L96.334 18.3611L96.5762 17.7048C96.5949 17.6538 96.6039 17.5993 96.6026 17.5445C96.6013 17.4897 96.5897 17.4358 96.5686 17.3859C96.5475 17.336 96.5172 17.2912 96.4796 17.2541C96.442 17.2169 96.3979 17.1883 96.3498 17.1698L93.3516 16.0236C93.2579 15.9879 93.1548 15.9929 93.0645 16.0375C92.9741 16.0822 92.9037 16.1629 92.8682 16.2625L90.0254 24.2258C89.9902 24.3239 89.9916 24.4327 90.0295 24.5297C90.0673 24.6266 90.1386 24.7042 90.2285 24.7461L93.0723 26.0594C93.1192 26.081 93.1696 26.0924 93.2206 26.0928C93.2717 26.0932 93.3222 26.0826 93.3694 26.0616C93.4165 26.0407 93.4592 26.0098 93.495 25.9708C93.5308 25.9318 93.5588 25.8855 93.5776 25.8346L93.864 25.058L96.2213 26.4817C96.0624 26.7289 95.9893 27.0278 96.0145 27.3267C96.0397 27.6256 96.1617 27.9056 96.3594 28.1182C96.4706 28.2374 96.6027 28.3319 96.748 28.3963C96.8934 28.4606 97.0492 28.4936 97.2064 28.4932H97.2364C97.2631 28.8125 97.4004 29.1095 97.6213 29.3257C97.8422 29.5419 98.1306 29.6616 98.4298 29.6611H98.4607C98.4849 29.9612 98.6072 30.2424 98.8061 30.4552C98.9172 30.5744 99.0493 30.6689 99.1947 30.7332C99.34 30.7976 99.4958 30.8305 99.6531 30.8302H99.6831C99.7032 31.0734 99.7877 31.3054 99.9266 31.499C100.066 31.6926 100.253 31.8397 100.467 31.923C100.681 32.0063 100.913 32.0224 101.136 31.9694C101.358 31.9164 101.562 31.7964 101.723 31.6237L102.175 31.1393L102.788 31.6291C103.047 31.8363 103.368 31.9361 103.691 31.9101C104.013 31.8841 104.316 31.7341 104.544 31.4876L104.587 31.4408C104.779 31.2305 104.907 30.9621 104.953 30.6718C105.182 30.7411 105.424 30.7438 105.654 30.6797C105.885 30.6155 106.095 30.4867 106.264 30.3066L106.295 30.2729C106.509 30.0443 106.644 29.7448 106.678 29.4233C106.909 29.497 107.154 29.5023 107.388 29.4386C107.621 29.3748 107.834 29.2445 108.004 29.0614L108.025 29.0385C108.234 28.8172 108.367 28.5279 108.405 28.2162C108.611 28.2687 108.825 28.2684 109.031 28.2151C109.236 28.1619 109.427 28.0573 109.587 27.9098C109.748 27.7624 109.873 27.5764 109.954 27.3669C110.034 27.1575 110.067 26.9306 110.05 26.7048C110.043 26.6173 110.029 26.5306 110.008 26.4458L112.222 25.2844L112.425 25.833C112.443 25.8839 112.471 25.9303 112.507 25.9694C112.543 26.0085 112.586 26.0395 112.633 26.0605C112.68 26.0814 112.731 26.092 112.782 26.0915C112.833 26.0911 112.883 26.0796 112.93 26.0577L115.774 24.7445C115.863 24.7021 115.933 24.6247 115.971 24.5282C116.008 24.4317 116.01 24.3234 115.975 24.2258ZM93.0129 25.1434L90.8674 24.1518L93.4456 16.927L94.0778 17.1681L92.859 20.8809C92.8254 20.9831 92.831 21.0955 92.8746 21.1932C92.9182 21.291 92.9963 21.3662 93.0916 21.4023C93.187 21.4384 93.2918 21.4324 93.383 21.3857C93.4743 21.3389 93.5444 21.2552 93.5781 21.1531L94.7938 17.4441L95.7206 17.7984L93.0129 25.1434ZM97.5157 27.5408C97.4335 27.6254 97.3236 27.6721 97.2096 27.671C97.0956 27.6699 96.9866 27.621 96.9058 27.5348C96.825 27.4486 96.779 27.3319 96.7774 27.2097C96.7759 27.0876 96.8191 26.9696 96.8977 26.8812L97.7102 26.0104C97.7713 25.9451 97.8491 25.9007 97.9337 25.8828C98.0183 25.8649 98.106 25.8742 98.1856 25.9096C98.2653 25.945 98.3334 26.0048 98.3814 26.0817C98.4294 26.1585 98.455 26.2488 98.4552 26.3413C98.4554 26.4027 98.4441 26.4635 98.4222 26.5202C98.4002 26.577 98.3679 26.6284 98.3272 26.6716L97.5157 27.5408ZM98.8066 28.638C98.7837 28.6619 98.7634 28.6875 98.7431 28.7131L98.739 28.7082C98.6989 28.7532 98.6508 28.7892 98.5975 28.814C98.5442 28.8389 98.4868 28.852 98.4287 28.8527C98.3706 28.8535 98.3129 28.8418 98.2591 28.8183C98.2053 28.7948 98.1564 28.76 98.1152 28.716C98.0741 28.672 98.0417 28.6196 98.0197 28.5619C97.9977 28.5043 97.9868 28.4425 97.9874 28.3802C97.988 28.3179 98.0003 28.2564 98.0234 28.1993C98.0465 28.1421 98.08 28.0905 98.122 28.0475L98.8675 27.2491C98.8898 27.2251 98.9112 27.2001 98.9315 27.1745L98.935 27.1783C99.0174 27.0939 99.1273 27.0473 99.2413 27.0487C99.3553 27.05 99.4643 27.0991 99.5449 27.1854C99.6255 27.2718 99.6714 27.3885 99.6728 27.5107C99.6741 27.6328 99.6308 27.7507 99.552 27.839L98.8066 28.638ZM99.9603 29.8745C99.8773 29.9544 99.7689 29.9971 99.6573 29.9939C99.5458 29.9908 99.4397 29.9419 99.3607 29.8575C99.2817 29.773 99.236 29.6593 99.2329 29.5398C99.2297 29.4202 99.2694 29.304 99.3438 29.2149L100.156 28.3441C100.196 28.2962 100.244 28.2575 100.298 28.2304C100.352 28.2033 100.41 28.1882 100.47 28.1862C100.529 28.1842 100.588 28.1953 100.644 28.2188C100.699 28.2423 100.75 28.2777 100.792 28.3228C100.834 28.3679 100.867 28.4218 100.889 28.4811C100.911 28.5404 100.921 28.6039 100.919 28.6677C100.918 28.7315 100.904 28.7942 100.878 28.852C100.853 28.9098 100.817 28.9614 100.772 29.0037L99.9603 29.8745ZM101.996 30.1716L101.183 31.0424C101.101 31.1269 100.991 31.1734 100.877 31.1721C100.763 31.1707 100.654 31.1216 100.573 31.0353C100.493 30.949 100.447 30.8322 100.445 30.7101C100.444 30.5879 100.487 30.47 100.566 30.3817L101.312 29.5833C101.334 29.5594 101.355 29.5343 101.376 29.5087L101.379 29.5126C101.462 29.4281 101.571 29.3816 101.685 29.3829C101.799 29.3842 101.908 29.4333 101.989 29.5197C102.07 29.606 102.116 29.7227 102.117 29.8449C102.118 29.9671 102.075 30.0849 101.996 30.1733L101.996 30.1716ZM109.123 27.2545C109.022 27.3642 108.886 27.429 108.742 27.436C108.598 27.4429 108.457 27.3915 108.347 27.2921L108.05 27.027C108.03 26.9947 108.005 26.9657 107.976 26.941L107.291 26.3511C107.212 26.2875 107.113 26.2593 107.015 26.2723C106.917 26.2854 106.828 26.3388 106.766 26.4212C106.704 26.5036 106.674 26.6085 106.683 26.714C106.692 26.8194 106.739 26.917 106.813 26.9862L107.404 27.4972C107.421 27.5216 107.44 27.544 107.46 27.5642C107.519 27.6199 107.566 27.6879 107.6 27.764C107.633 27.8401 107.651 27.9227 107.654 28.0068C107.656 28.0908 107.642 28.1744 107.614 28.2525C107.585 28.3307 107.541 28.4016 107.486 28.4611L107.464 28.4839C107.368 28.5876 107.24 28.6511 107.104 28.6631C106.968 28.6751 106.833 28.6347 106.722 28.5492L106.133 28.0975L106.127 28.0926L105.905 27.9223C105.823 27.8593 105.721 27.8338 105.621 27.8515C105.521 27.8693 105.432 27.9287 105.373 28.0167C105.315 28.1048 105.291 28.2142 105.307 28.321C105.324 28.4278 105.379 28.5233 105.461 28.5863L105.688 28.7599C105.755 28.8124 105.811 28.8798 105.852 28.9577C105.892 29.0355 105.916 29.1218 105.923 29.2107C105.929 29.2996 105.918 29.3889 105.889 29.4725C105.86 29.556 105.814 29.6319 105.756 29.6949L105.724 29.7286C105.62 29.8395 105.481 29.904 105.335 29.909C105.188 29.9139 105.046 29.859 104.936 29.7553L104.301 29.1566C104.265 29.1161 104.221 29.0841 104.172 29.0626C104.124 29.0411 104.071 29.0307 104.019 29.0318C103.966 29.033 103.915 29.0458 103.867 29.0695C103.819 29.0931 103.777 29.127 103.742 29.1692C103.707 29.2113 103.681 29.2607 103.665 29.3142C103.648 29.3678 103.643 29.4244 103.648 29.4804C103.653 29.5364 103.669 29.5907 103.695 29.6397C103.721 29.6888 103.755 29.7317 103.797 29.7656L104.013 29.9703C104.072 30.0257 104.12 30.0934 104.153 30.1692C104.187 30.245 104.205 30.3274 104.208 30.4112C104.211 30.4951 104.198 30.5787 104.169 30.6569C104.141 30.7351 104.098 30.8063 104.043 30.8661L104 30.9129C103.902 31.019 103.771 31.0836 103.633 31.0948C103.494 31.106 103.356 31.0631 103.244 30.9738L102.695 30.5352C102.811 30.3412 102.876 30.1173 102.884 29.887C102.891 29.6568 102.841 29.4287 102.737 29.2266C102.634 29.0245 102.482 28.8559 102.297 28.7384C102.112 28.621 101.901 28.559 101.686 28.559H101.656C101.63 28.2398 101.492 27.9429 101.272 27.7266C101.051 27.5104 100.763 27.3905 100.464 27.3906H100.433C100.405 27.0667 100.263 26.7662 100.036 26.5503C99.8093 26.3343 99.5142 26.2191 99.2108 26.2281C99.1869 25.928 99.0643 25.6468 98.865 25.4346C98.6402 25.1941 98.3355 25.059 98.0179 25.059C97.7003 25.059 97.3957 25.1941 97.1709 25.4346L96.7611 25.8732L94.1458 24.2949L96.0491 19.1334L97.7727 20.2376C97.818 20.2667 97.8685 20.2854 97.921 20.2924C97.9734 20.2994 98.0267 20.2947 98.0773 20.2785L99.5256 19.8164C99.7676 19.74 100.023 19.7237 100.271 19.7687C100.52 19.8136 100.756 19.9187 100.961 20.076L101.161 20.2306L99.1255 21.8497C98.9744 21.9699 98.8516 22.1261 98.7666 22.306C98.6817 22.4859 98.637 22.6846 98.6361 22.8862C98.6352 23.0878 98.6781 23.2869 98.7615 23.4676C98.8449 23.6484 98.9663 23.8059 99.1163 23.9276C99.3992 24.1552 99.7397 24.2859 100.093 24.3025C100.447 24.3191 100.796 24.2209 101.097 24.0206L102.695 22.9425C102.881 23.3398 103.229 23.8797 103.832 24.2122C104.531 24.5975 105.381 24.6073 106.361 24.2416L109.053 26.319C109.12 26.3713 109.177 26.4387 109.218 26.5166C109.258 26.5945 109.283 26.681 109.29 26.7701C109.297 26.8592 109.285 26.9488 109.256 27.0327C109.228 27.1166 109.182 27.1929 109.123 27.2561V27.2545ZM109.613 25.7437L106.643 23.4525C106.591 23.4128 106.531 23.3875 106.468 23.379C106.405 23.3704 106.341 23.3788 106.282 23.4035C105.434 23.7561 104.73 23.7844 104.187 23.49C103.469 23.0987 103.249 22.2432 103.247 22.2383C103.233 22.176 103.204 22.1184 103.165 22.07C103.125 22.0217 103.076 21.9841 103.02 21.9602C102.964 21.9364 102.904 21.9269 102.844 21.9327C102.785 21.9384 102.727 21.9592 102.676 21.9934L100.692 23.3273C100.522 23.4402 100.325 23.4955 100.125 23.4857C99.9257 23.476 99.7337 23.4018 99.5744 23.2729C99.5187 23.2278 99.4736 23.1694 99.4426 23.1023C99.4116 23.0353 99.3957 22.9614 99.396 22.8866C99.3964 22.8118 99.413 22.7381 99.4446 22.6714C99.4762 22.6046 99.5218 22.5467 99.5779 22.5022L102.855 19.8953C103.038 19.7503 103.247 19.6472 103.469 19.5925C103.69 19.5378 103.92 19.5327 104.144 19.5775L107.621 20.2774C107.7 20.2936 107.782 20.2824 107.855 20.2453L109.965 19.1709L111.939 24.5241L109.613 25.7437ZM112.987 25.1418L110.278 17.7946L111.205 17.4403L112.421 21.1492C112.454 21.2514 112.524 21.3351 112.616 21.3819C112.707 21.4286 112.812 21.4346 112.907 21.3985C113.002 21.3624 113.08 21.2872 113.124 21.1894C113.168 21.0917 113.173 20.9793 113.14 20.8771L111.921 17.1643L112.553 16.9232L115.131 24.148L112.987 25.1418Z" fill="#FF4C7B" stroke="#FF4C7B" stroke-width="3" mask="url(#path-6-inside-1_3183_30276)"/>
</svg>
