<svg width="206" height="399" viewBox="0 0 206 399" fill="none" xmlns="http://www.w3.org/2000/svg">
<rect y="20" width="206" height="280" rx="12" fill="#20336B"/>
<path d="M17.346 56H16.114L14.211 50.214V56H12.693V48.102H14.937L16.763 53.723L18.578 48.102H20.789V56H19.249V50.214L17.346 56ZM27.4476 53.107C27.4476 54.911 26.2816 56.121 24.6096 56.121C22.9376 56.121 21.7716 54.911 21.7716 53.107C21.7716 51.314 22.9376 50.104 24.6096 50.104C26.2816 50.104 27.4476 51.314 27.4476 53.107ZM23.3006 53.107C23.3006 54.207 23.8066 54.845 24.6096 54.845C25.4126 54.845 25.9076 54.207 25.9076 53.107C25.9076 52.018 25.4126 51.38 24.6096 51.38C23.8066 51.38 23.3006 52.018 23.3006 53.107ZM28.386 56V50.214H29.926V50.808C30.245 50.434 30.773 50.104 31.51 50.104C32.72 50.104 33.457 50.929 33.457 52.183V56H31.917V52.623C31.917 51.974 31.653 51.512 30.993 51.512C30.454 51.512 29.926 51.897 29.926 52.656V56H28.386ZM34.8457 54.493V51.501H34.0757V50.214H34.8457V48.564H36.3637V50.214H37.5407V51.501H36.3637V54.174C36.3637 54.669 36.6387 54.735 37.0897 54.735C37.3097 54.735 37.4197 54.724 37.6177 54.702V55.978C37.3427 56.033 37.0127 56.066 36.6277 56.066C35.4617 56.066 34.8457 55.681 34.8457 54.493ZM41.9914 50.203V51.71C41.8154 51.688 41.6834 51.677 41.4964 51.677C40.6934 51.677 40.0774 52.172 40.0774 53.063V56H38.5374V50.214H40.0774V51.028C40.3304 50.522 40.9024 50.181 41.6174 50.181C41.7714 50.181 41.8814 50.192 41.9914 50.203ZM44.2569 56.099C43.1239 56.099 42.2879 55.417 42.2879 54.394C42.2879 53.239 43.2119 52.755 44.3779 52.546L45.8189 52.271V52.183C45.8189 51.688 45.5659 51.38 44.9279 51.38C44.3559 51.38 44.0589 51.633 43.9269 52.15L42.4639 51.875C42.7279 50.896 43.6079 50.104 44.9829 50.104C46.4459 50.104 47.3259 50.775 47.3259 52.117V54.482C47.3259 54.79 47.4579 54.889 47.7989 54.845V56C46.8199 56.143 46.2259 55.945 45.9729 55.461C45.5989 55.868 45.0159 56.099 44.2569 56.099ZM45.8189 53.943V53.349L44.6859 53.58C44.1799 53.679 43.8059 53.844 43.8059 54.306C43.8059 54.702 44.1029 54.933 44.5649 54.933C45.2139 54.933 45.8189 54.592 45.8189 53.943ZM53.2889 48.102H55.1369L58.0959 56H56.4569L55.8299 54.306H52.5739L51.9469 56H50.3409L53.2889 48.102ZM54.1909 49.895L53.0799 52.931H55.3129L54.1909 49.895ZM61.8897 56.121C61.1637 56.121 60.6137 55.835 60.2727 55.406V57.958H58.7327V50.214H60.2727V50.808C60.6137 50.39 61.1637 50.104 61.8897 50.104C63.4847 50.104 64.4087 51.468 64.4087 53.107C64.4087 54.757 63.4847 56.121 61.8897 56.121ZM60.2397 52.953V53.272C60.2397 54.251 60.7897 54.801 61.5267 54.801C62.3957 54.801 62.8577 54.108 62.8577 53.107C62.8577 52.117 62.3957 51.424 61.5267 51.424C60.7897 51.424 60.2397 51.963 60.2397 52.953ZM68.4854 56.121C67.7594 56.121 67.2094 55.835 66.8684 55.406V57.958H65.3284V50.214H66.8684V50.808C67.2094 50.39 67.7594 50.104 68.4854 50.104C70.0804 50.104 71.0044 51.468 71.0044 53.107C71.0044 54.757 70.0804 56.121 68.4854 56.121ZM66.8354 52.953V53.272C66.8354 54.251 67.3854 54.801 68.1224 54.801C68.9914 54.801 69.4534 54.108 69.4534 53.107C69.4534 52.117 68.9914 51.424 68.1224 51.424C67.3854 51.424 66.8354 51.963 66.8354 52.953ZM76.9198 48.036C77.3451 48.036 77.7228 48.102 78.0528 48.234C78.3828 48.366 78.6431 48.5603 78.8338 48.817C79.0244 49.0663 79.1198 49.3743 79.1198 49.741C79.1198 50.247 78.9694 50.6723 78.6688 51.017C78.3681 51.3617 77.9941 51.6623 77.5468 51.919L79.0758 53.404C79.2224 53.1547 79.3508 52.8943 79.4608 52.623C79.5708 52.3443 79.6624 52.0657 79.7358 51.787H81.4408C81.3308 52.1977 81.1694 52.6377 80.9568 53.107C80.7441 53.5763 80.4728 54.0163 80.1428 54.427L81.7598 56H79.7358L79.1198 55.395C78.9584 55.505 78.7898 55.604 78.6138 55.692C78.4378 55.78 78.2544 55.857 78.0638 55.923C77.8731 55.9817 77.6714 56.0257 77.4588 56.055C77.2461 56.0917 77.0261 56.11 76.7988 56.11C76.2048 56.11 75.6951 56.0183 75.2698 55.835C74.8444 55.6443 74.5181 55.3803 74.2908 55.043C74.0634 54.7057 73.9498 54.317 73.9498 53.877C73.9498 53.503 74.0048 53.184 74.1148 52.92C74.2321 52.6487 74.3971 52.414 74.6098 52.216C74.8298 52.0107 75.0901 51.8237 75.3908 51.655C75.2001 51.435 75.0461 51.2297 74.9288 51.039C74.8188 50.841 74.7381 50.6467 74.6868 50.456C74.6428 50.2653 74.6208 50.0637 74.6208 49.851C74.6208 49.477 74.7161 49.1543 74.9068 48.883C75.1048 48.6117 75.3761 48.4027 75.7208 48.256C76.0728 48.1093 76.4724 48.036 76.9198 48.036ZM76.3478 52.634C76.2084 52.7367 76.0874 52.843 75.9848 52.953C75.8894 53.063 75.8124 53.1803 75.7538 53.305C75.7024 53.4297 75.6768 53.569 75.6768 53.723C75.6768 54.0383 75.7941 54.2877 76.0288 54.471C76.2634 54.647 76.5568 54.735 76.9088 54.735C77.1434 54.735 77.3634 54.7057 77.5688 54.647C77.7741 54.5883 77.9611 54.5077 78.1298 54.405L76.3478 52.634ZM76.9088 49.301C76.7254 49.301 76.5494 49.3487 76.3808 49.444C76.2194 49.532 76.1388 49.7043 76.1388 49.961C76.1388 50.1443 76.1828 50.3203 76.2708 50.489C76.3661 50.6577 76.4908 50.83 76.6448 51.006C76.9528 50.8373 77.1874 50.6687 77.3488 50.5C77.5174 50.3313 77.6018 50.137 77.6018 49.917C77.6018 49.697 77.5284 49.5393 77.3818 49.444C77.2351 49.3487 77.0774 49.301 76.9088 49.301ZM86.2934 53.096V56H84.6764V48.102H87.9104C89.7254 48.102 90.8584 48.96 90.8584 50.599C90.8584 52.227 89.7254 53.096 87.9104 53.096H86.2934ZM86.2934 51.721H87.8224C88.7684 51.721 89.2524 51.303 89.2524 50.599C89.2524 49.884 88.7684 49.477 87.8224 49.477H86.2934V51.721ZM93.1009 48.102V56H91.5609V48.102H93.1009ZM95.9376 56.099C94.8046 56.099 93.9686 55.417 93.9686 54.394C93.9686 53.239 94.8926 52.755 96.0586 52.546L97.4996 52.271V52.183C97.4996 51.688 97.2466 51.38 96.6086 51.38C96.0366 51.38 95.7396 51.633 95.6076 52.15L94.1446 51.875C94.4086 50.896 95.2886 50.104 96.6636 50.104C98.1266 50.104 99.0066 50.775 99.0066 52.117V54.482C99.0066 54.79 99.1386 54.889 99.4796 54.845V56C98.5006 56.143 97.9066 55.945 97.6536 55.461C97.2796 55.868 96.6966 56.099 95.9376 56.099ZM97.4996 53.943V53.349L96.3666 53.58C95.8606 53.679 95.4866 53.844 95.4866 54.306C95.4866 54.702 95.7836 54.933 96.2456 54.933C96.8946 54.933 97.4996 54.592 97.4996 53.943ZM100.48 54.493V51.501H99.7105V50.214H100.48V48.564H101.998V50.214H103.175V51.501H101.998V54.174C101.998 54.669 102.273 54.735 102.724 54.735C102.944 54.735 103.054 54.724 103.252 54.702V55.978C102.977 56.033 102.647 56.066 102.262 56.066C101.096 56.066 100.48 55.681 100.48 54.493ZM106.946 48.014V49.279C106.803 49.268 106.715 49.268 106.55 49.268C106.066 49.268 105.813 49.411 105.813 49.983V50.214H106.935V51.501H105.813V56H104.273V51.501H103.492V50.214H104.273V49.895C104.273 48.674 104.933 47.992 106.352 47.992C106.572 47.992 106.704 47.992 106.946 48.014ZM112.923 53.107C112.923 54.911 111.757 56.121 110.085 56.121C108.413 56.121 107.247 54.911 107.247 53.107C107.247 51.314 108.413 50.104 110.085 50.104C111.757 50.104 112.923 51.314 112.923 53.107ZM108.776 53.107C108.776 54.207 109.282 54.845 110.085 54.845C110.888 54.845 111.383 54.207 111.383 53.107C111.383 52.018 110.888 51.38 110.085 51.38C109.282 51.38 108.776 52.018 108.776 53.107ZM117.316 50.203V51.71C117.14 51.688 117.008 51.677 116.821 51.677C116.018 51.677 115.402 52.172 115.402 53.063V56H113.862V50.214H115.402V51.028C115.655 50.522 116.227 50.181 116.942 50.181C117.096 50.181 117.206 50.192 117.316 50.203ZM119.699 52.656V56H118.159V50.214H119.699V50.808C120.007 50.434 120.524 50.104 121.272 50.104C121.976 50.104 122.515 50.401 122.834 50.896C123.186 50.533 123.736 50.104 124.627 50.104C125.815 50.104 126.585 50.929 126.585 52.183V56H125.045V52.623C125.045 51.974 124.803 51.512 124.165 51.512C123.659 51.512 123.142 51.897 123.142 52.656V56H121.602V52.623C121.602 51.974 121.36 51.512 120.722 51.512C120.216 51.512 119.699 51.897 119.699 52.656ZM132.446 56.121C130.851 56.121 129.938 54.757 129.938 53.129C129.938 51.49 130.851 50.137 132.446 50.137C133.249 50.137 133.887 50.522 134.228 51.083V48.102H135.218V56H134.228V55.164C133.887 55.736 133.249 56.121 132.446 56.121ZM134.25 52.931C134.25 51.589 133.436 51.006 132.622 51.006C131.544 51.006 130.939 51.886 130.939 53.129C130.939 54.361 131.544 55.252 132.622 55.252C133.436 55.252 134.25 54.658 134.25 53.338V52.931ZM139.153 56.121C137.558 56.121 136.458 54.9 136.458 53.129C136.458 51.413 137.547 50.137 139.109 50.137C140.715 50.137 141.562 51.358 141.562 52.953V53.283H137.404C137.459 54.493 138.152 55.263 139.153 55.263C139.923 55.263 140.473 54.845 140.649 54.163L141.518 54.471C141.166 55.494 140.297 56.121 139.153 56.121ZM139.098 50.984C138.262 50.984 137.635 51.545 137.459 52.524H140.561C140.539 51.71 140.099 50.984 139.098 50.984ZM145.14 56H144.161L142.005 50.247H143.05L144.667 54.79L146.262 50.247H147.296L145.14 56ZM150.411 56.121C148.816 56.121 147.716 54.9 147.716 53.129C147.716 51.413 148.805 50.137 150.367 50.137C151.973 50.137 152.82 51.358 152.82 52.953V53.283H148.662C148.717 54.493 149.41 55.263 150.411 55.263C151.181 55.263 151.731 54.845 151.907 54.163L152.776 54.471C152.424 55.494 151.555 56.121 150.411 56.121ZM150.356 50.984C149.52 50.984 148.893 51.545 148.717 52.524H151.819C151.797 51.71 151.357 50.984 150.356 50.984ZM155.043 48.102V56H154.053V48.102H155.043ZM161.645 53.129C161.645 54.911 160.545 56.121 158.972 56.121C157.399 56.121 156.299 54.911 156.299 53.129C156.299 51.347 157.399 50.137 158.972 50.137C160.545 50.137 161.645 51.347 161.645 53.129ZM157.3 53.129C157.3 54.438 157.96 55.274 158.972 55.274C159.984 55.274 160.644 54.438 160.644 53.129C160.644 51.809 159.984 50.973 158.972 50.973C157.96 50.973 157.3 51.809 157.3 53.129ZM165.676 56.121C164.873 56.121 164.235 55.736 163.894 55.164V57.98H162.904V50.247H163.894V51.083C164.235 50.522 164.873 50.137 165.676 50.137C167.271 50.137 168.184 51.49 168.184 53.129C168.184 54.757 167.271 56.121 165.676 56.121ZM163.872 52.931V53.338C163.872 54.658 164.686 55.252 165.5 55.252C166.578 55.252 167.183 54.361 167.183 53.129C167.183 51.886 166.578 51.006 165.5 51.006C164.686 51.006 163.872 51.589 163.872 52.931ZM170.425 52.557V56H169.435V50.247H170.425V51.028C170.733 50.555 171.283 50.137 172.086 50.137C172.856 50.137 173.395 50.522 173.681 51.116C174 50.643 174.616 50.137 175.518 50.137C176.706 50.137 177.421 50.984 177.421 52.205V56H176.431V52.469C176.431 51.666 176.101 51.061 175.287 51.061C174.627 51.061 173.923 51.622 173.923 52.557V56H172.933V52.469C172.933 51.666 172.603 51.061 171.789 51.061C171.129 51.061 170.425 51.622 170.425 52.557ZM181.316 56.121C179.721 56.121 178.621 54.9 178.621 53.129C178.621 51.413 179.71 50.137 181.272 50.137C182.878 50.137 183.725 51.358 183.725 52.953V53.283H179.567C179.622 54.493 180.315 55.263 181.316 55.263C182.086 55.263 182.636 54.845 182.812 54.163L183.681 54.471C183.329 55.494 182.46 56.121 181.316 56.121ZM181.261 50.984C180.425 50.984 179.798 51.545 179.622 52.524H182.724C182.702 51.71 182.262 50.984 181.261 50.984ZM184.958 56V50.247H185.948V51.028C186.278 50.555 186.85 50.137 187.664 50.137C188.885 50.137 189.578 50.984 189.578 52.205V56H188.588V52.469C188.588 51.666 188.247 51.061 187.389 51.061C186.674 51.061 185.948 51.611 185.948 52.568V56H184.958ZM191.321 54.625V51.094H190.43V50.247H191.321V48.564H192.3V50.247H193.609V51.094H192.3V54.471C192.3 55.076 192.597 55.186 193.103 55.186C193.334 55.186 193.499 55.175 193.73 55.12V55.967C193.477 56.022 193.191 56.055 192.861 56.055C191.882 56.055 191.321 55.725 191.321 54.625ZM194.814 56V54.702H196.068V56.066C196.068 56.924 195.518 57.441 194.638 57.463V56.891C195.133 56.869 195.386 56.616 195.386 56.088V56H194.814ZM13.815 68.557V72H12.825V66.247H13.815V67.028C14.123 66.555 14.673 66.137 15.476 66.137C16.246 66.137 16.785 66.522 17.071 67.116C17.39 66.643 18.006 66.137 18.908 66.137C20.096 66.137 20.811 66.984 20.811 68.205V72H19.821V68.469C19.821 67.666 19.491 67.061 18.677 67.061C18.017 67.061 17.313 67.622 17.313 68.557V72H16.323V68.469C16.323 67.666 15.993 67.061 15.179 67.061C14.519 67.061 13.815 67.622 13.815 68.557ZM22.363 65.246V64.102H23.441V65.246H22.363ZM23.397 66.247V72H22.407V66.247H23.397ZM26.0396 64.102V72H25.0496V64.102H26.0396ZM29.9912 72.121C28.3962 72.121 27.2962 70.9 27.2962 69.129C27.2962 67.413 28.3852 66.137 29.9472 66.137C31.5532 66.137 32.4002 67.358 32.4002 68.953V69.283H28.2422C28.2972 70.493 28.9902 71.263 29.9912 71.263C30.7612 71.263 31.3112 70.845 31.4872 70.163L32.3562 70.471C32.0042 71.494 31.1352 72.121 29.9912 72.121ZM29.9362 66.984C29.1002 66.984 28.4732 67.545 28.2972 68.524H31.3992C31.3772 67.71 30.9372 66.984 29.9362 66.984ZM32.9946 70.779L33.7646 70.218C34.0726 70.889 34.7766 71.296 35.5246 71.296C36.1956 71.296 36.7896 71.01 36.7896 70.383C36.7896 69.756 36.2396 69.668 35.2936 69.47C34.3476 69.261 33.3576 69.052 33.3576 67.875C33.3576 66.852 34.2486 66.137 35.4696 66.137C36.5036 66.137 37.3506 66.643 37.6916 67.325L36.9876 67.886C36.6906 67.314 36.1516 66.951 35.4256 66.951C34.7656 66.951 34.3256 67.281 34.3256 67.798C34.3256 68.337 34.8316 68.436 35.6346 68.612C36.6246 68.843 37.7576 69.041 37.7576 70.295C37.7576 71.395 36.7566 72.121 35.5246 72.121C34.4796 72.121 33.4346 71.67 32.9946 70.779ZM39.1362 70.625V67.094H38.2452V66.247H39.1362V64.564H40.1152V66.247H41.4242V67.094H40.1152V70.471C40.1152 71.076 40.4122 71.186 40.9182 71.186C41.1492 71.186 41.3142 71.175 41.5452 71.12V71.967C41.2922 72.022 41.0062 72.055 40.6762 72.055C39.6972 72.055 39.1362 71.725 39.1362 70.625ZM47.6383 69.129C47.6383 70.911 46.5383 72.121 44.9653 72.121C43.3923 72.121 42.2923 70.911 42.2923 69.129C42.2923 67.347 43.3923 66.137 44.9653 66.137C46.5383 66.137 47.6383 67.347 47.6383 69.129ZM43.2933 69.129C43.2933 70.438 43.9533 71.274 44.9653 71.274C45.9773 71.274 46.6373 70.438 46.6373 69.129C46.6373 67.809 45.9773 66.973 44.9653 66.973C43.9533 66.973 43.2933 67.809 43.2933 69.129ZM48.8973 72V66.247H49.8873V67.028C50.2173 66.555 50.7893 66.137 51.6033 66.137C52.8243 66.137 53.5173 66.984 53.5173 68.205V72H52.5273V68.469C52.5273 67.666 52.1863 67.061 51.3283 67.061C50.6133 67.061 49.8873 67.611 49.8873 68.568V72H48.8973ZM57.4053 72.121C55.8103 72.121 54.7103 70.9 54.7103 69.129C54.7103 67.413 55.7993 66.137 57.3613 66.137C58.9673 66.137 59.8143 67.358 59.8143 68.953V69.283H55.6562C55.7113 70.493 56.4043 71.263 57.4053 71.263C58.1753 71.263 58.7253 70.845 58.9013 70.163L59.7703 70.471C59.4183 71.494 58.5493 72.121 57.4053 72.121ZM57.3503 66.984C56.5143 66.984 55.8873 67.545 55.7113 68.524H58.8133C58.7913 67.71 58.3513 66.984 57.3503 66.984ZM60.4087 70.779L61.1787 70.218C61.4867 70.889 62.1907 71.296 62.9387 71.296C63.6097 71.296 64.2037 71.01 64.2037 70.383C64.2037 69.756 63.6537 69.668 62.7077 69.47C61.7617 69.261 60.7717 69.052 60.7717 67.875C60.7717 66.852 61.6627 66.137 62.8837 66.137C63.9177 66.137 64.7647 66.643 65.1057 67.325L64.4017 67.886C64.1047 67.314 63.5657 66.951 62.8397 66.951C62.1797 66.951 61.7397 67.281 61.7397 67.798C61.7397 68.337 62.2457 68.436 63.0487 68.612C64.0387 68.843 65.1717 69.041 65.1717 70.295C65.1717 71.395 64.1707 72.121 62.9387 72.121C61.8937 72.121 60.8487 71.67 60.4087 70.779ZM70.1576 72.099C69.1126 72.099 68.2656 71.483 68.2656 70.449C68.2656 69.305 69.1566 68.832 70.4436 68.568L71.8406 68.282V68.04C71.8406 67.38 71.4776 67.006 70.7076 67.006C69.9816 67.006 69.5526 67.347 69.3766 67.985L68.4416 67.743C68.7166 66.808 69.5636 66.137 70.7406 66.137C72.0276 66.137 72.8196 66.764 72.8196 67.996V70.801C72.8196 71.175 73.0506 71.296 73.4356 71.208V72C72.5556 72.11 72.0496 71.901 71.9286 71.351C71.5766 71.802 70.9386 72.099 70.1576 72.099ZM71.8406 70.042V69.052L70.7186 69.294C69.8386 69.47 69.2446 69.712 69.2446 70.405C69.2446 70.966 69.6516 71.296 70.2786 71.296C71.1256 71.296 71.8406 70.779 71.8406 70.042ZM75.1006 69.129C75.1006 70.438 75.8046 71.252 76.8276 71.252C77.6196 71.252 78.0926 70.746 78.2576 70.031L79.1376 70.438C78.8626 71.395 78.0266 72.121 76.8276 72.121C75.2216 72.121 74.1106 70.9 74.1106 69.129C74.1106 67.347 75.2216 66.137 76.8276 66.137C78.0266 66.137 78.8406 66.83 79.1156 67.787L78.2576 68.216C78.0926 67.512 77.6196 66.995 76.8276 66.995C75.8046 66.995 75.1006 67.809 75.1006 69.129ZM80.2215 72V64.102H81.2115V67.028C81.5415 66.555 82.1135 66.137 82.9275 66.137C84.1485 66.137 84.8415 66.984 84.8415 68.205V72H83.8515V68.469C83.8515 67.666 83.5105 67.061 82.6525 67.061C81.9375 67.061 81.2115 67.611 81.2115 68.568V72H80.2215ZM86.3865 65.246V64.102H87.4645V65.246H86.3865ZM87.4205 66.247V72H86.4305V66.247H87.4205ZM91.372 72.121C89.777 72.121 88.677 70.9 88.677 69.129C88.677 67.413 89.766 66.137 91.328 66.137C92.934 66.137 93.781 67.358 93.781 68.953V69.283H89.623C89.678 70.493 90.371 71.263 91.372 71.263C92.142 71.263 92.692 70.845 92.868 70.163L93.737 70.471C93.385 71.494 92.516 72.121 91.372 72.121ZM91.317 66.984C90.481 66.984 89.854 67.545 89.678 68.524H92.78C92.758 67.71 92.318 66.984 91.317 66.984ZM97.3591 72H96.3801L94.2241 66.247H95.2691L96.8861 70.79L98.4811 66.247H99.5151L97.3591 72ZM102.63 72.121C101.035 72.121 99.9349 70.9 99.9349 69.129C99.9349 67.413 101.024 66.137 102.586 66.137C104.192 66.137 105.039 67.358 105.039 68.953V69.283H100.881C100.936 70.493 101.629 71.263 102.63 71.263C103.4 71.263 103.95 70.845 104.126 70.163L104.995 70.471C104.643 71.494 103.774 72.121 102.63 72.121ZM102.575 66.984C101.739 66.984 101.112 67.545 100.936 68.524H104.038C104.016 67.71 103.576 66.984 102.575 66.984ZM108.383 72.121C106.788 72.121 105.875 70.757 105.875 69.129C105.875 67.49 106.788 66.137 108.383 66.137C109.186 66.137 109.824 66.522 110.165 67.083V64.102H111.155V72H110.165V71.164C109.824 71.736 109.186 72.121 108.383 72.121ZM110.187 68.931C110.187 67.589 109.373 67.006 108.559 67.006C107.481 67.006 106.876 67.886 106.876 69.129C106.876 70.361 107.481 71.252 108.559 71.252C109.373 71.252 110.187 70.658 110.187 69.338V68.931ZM112.759 71.406C112.759 71.1347 112.825 70.944 112.957 70.834C113.089 70.724 113.246 70.669 113.43 70.669C113.62 70.669 113.782 70.724 113.914 70.834C114.053 70.944 114.123 71.1347 114.123 71.406C114.123 71.67 114.053 71.8607 113.914 71.978C113.782 72.0953 113.62 72.154 113.43 72.154C113.246 72.154 113.089 72.0953 112.957 71.978C112.825 71.8607 112.759 71.67 112.759 71.406ZM112.759 66.698C112.759 66.4193 112.825 66.225 112.957 66.115C113.089 66.005 113.246 65.95 113.43 65.95C113.62 65.95 113.782 66.005 113.914 66.115C114.053 66.225 114.123 66.4193 114.123 66.698C114.123 66.962 114.053 67.1527 113.914 67.27C113.782 67.3873 113.62 67.446 113.43 67.446C113.246 67.446 113.089 67.3873 112.957 67.27C112.825 67.1527 112.759 66.962 112.759 66.698Z" fill="white"/>
<path d="M25.925 84.102V92H24.869V84.102H25.925ZM27.618 92V86.247H28.608V87.028C28.938 86.555 29.51 86.137 30.324 86.137C31.545 86.137 32.238 86.984 32.238 88.205V92H31.248V88.469C31.248 87.666 30.907 87.061 30.049 87.061C29.334 87.061 28.608 87.611 28.608 88.568V92H27.618ZM33.981 90.625V87.094H33.09V86.247H33.981V84.564H34.96V86.247H36.269V87.094H34.96V90.471C34.96 91.076 35.257 91.186 35.763 91.186C35.994 91.186 36.159 91.175 36.39 91.12V91.967C36.137 92.022 35.851 92.055 35.521 92.055C34.542 92.055 33.981 91.725 33.981 90.625ZM39.832 92.121C38.237 92.121 37.137 90.9 37.137 89.129C37.137 87.413 38.226 86.137 39.788 86.137C41.394 86.137 42.241 87.358 42.241 88.953V89.283H38.083C38.138 90.493 38.831 91.263 39.832 91.263C40.602 91.263 41.152 90.845 41.328 90.163L42.197 90.471C41.845 91.494 40.976 92.121 39.832 92.121ZM39.777 86.984C38.941 86.984 38.314 87.545 38.138 88.524H41.24C41.218 87.71 40.778 86.984 39.777 86.984ZM48.3464 91.483C48.3464 93.166 47.2354 94.101 45.6734 94.101C44.4084 94.101 43.4844 93.518 43.1654 92.462L44.0894 92.11C44.2764 92.847 44.8704 93.276 45.6734 93.276C46.6854 93.276 47.3564 92.759 47.3564 91.56V90.911C47.0484 91.472 46.3994 91.868 45.5964 91.868C44.0234 91.868 43.0994 90.57 43.0994 88.997C43.0994 87.435 44.0234 86.137 45.5964 86.137C46.3884 86.137 47.0484 86.533 47.3564 87.094V86.247H48.3464V91.483ZM47.3674 88.909C47.3674 87.622 46.5974 87.006 45.7724 87.006C44.7274 87.006 44.0894 87.787 44.0894 88.997C44.0894 90.207 44.7274 90.999 45.7724 90.999C46.5974 90.999 47.3674 90.383 47.3674 89.118V88.909ZM52.9749 86.225V87.226C52.8099 87.193 52.6779 87.182 52.4909 87.182C51.6549 87.182 50.9839 87.842 50.9839 88.854V92H49.9939V86.247H50.9839V87.226C51.2369 86.643 51.7979 86.203 52.5789 86.203C52.7329 86.203 52.8759 86.214 52.9749 86.225ZM55.3881 92.099C54.3431 92.099 53.4961 91.483 53.4961 90.449C53.4961 89.305 54.3871 88.832 55.6741 88.568L57.0711 88.282V88.04C57.0711 87.38 56.7081 87.006 55.9381 87.006C55.2121 87.006 54.7831 87.347 54.6071 87.985L53.6721 87.743C53.9471 86.808 54.7941 86.137 55.9711 86.137C57.2581 86.137 58.0501 86.764 58.0501 87.996V90.801C58.0501 91.175 58.2811 91.296 58.6661 91.208V92C57.7861 92.11 57.2801 91.901 57.1591 91.351C56.8071 91.802 56.1691 92.099 55.3881 92.099ZM57.0711 90.042V89.052L55.9491 89.294C55.0691 89.47 54.4751 89.712 54.4751 90.405C54.4751 90.966 54.8821 91.296 55.5091 91.296C56.3561 91.296 57.0711 90.779 57.0711 90.042ZM59.8911 90.625V87.094H59.0001V86.247H59.8911V84.564H60.8701V86.247H62.1791V87.094H60.8701V90.471C60.8701 91.076 61.1671 91.186 61.6731 91.186C61.9041 91.186 62.0691 91.175 62.3001 91.12V91.967C62.0471 92.022 61.7611 92.055 61.4311 92.055C60.4521 92.055 59.8911 91.725 59.8911 90.625ZM63.4314 85.246V84.102H64.5094V85.246H63.4314ZM64.4654 86.247V92H63.4754V86.247H64.4654ZM71.068 89.129C71.068 90.911 69.968 92.121 68.395 92.121C66.822 92.121 65.722 90.911 65.722 89.129C65.722 87.347 66.822 86.137 68.395 86.137C69.968 86.137 71.068 87.347 71.068 89.129ZM66.723 89.129C66.723 90.438 67.383 91.274 68.395 91.274C69.407 91.274 70.067 90.438 70.067 89.129C70.067 87.809 69.407 86.973 68.395 86.973C67.383 86.973 66.723 87.809 66.723 89.129ZM72.327 92V86.247H73.317V87.028C73.647 86.555 74.219 86.137 75.033 86.137C76.254 86.137 76.947 86.984 76.947 88.205V92H75.957V88.469C75.957 87.666 75.616 87.061 74.758 87.061C74.043 87.061 73.317 87.611 73.317 88.568V92H72.327ZM83.5953 86.247H84.4313L85.6193 90.537L86.8183 86.247H87.8083L86.0593 92H85.1903L83.9913 87.732L82.7923 92H81.9233L80.1743 86.247H81.1973L82.4073 90.526L83.5953 86.247ZM88.7292 85.246V84.102H89.8072V85.246H88.7292ZM89.7632 86.247V92H88.7732V86.247H89.7632ZM91.5698 90.625V87.094H90.6788V86.247H91.5698V84.564H92.5488V86.247H93.8578V87.094H92.5488V90.471C92.5488 91.076 92.8458 91.186 93.3518 91.186C93.5828 91.186 93.7478 91.175 93.9788 91.12V91.967C93.7258 92.022 93.4398 92.055 93.1098 92.055C92.1308 92.055 91.5698 91.725 91.5698 90.625ZM95.1541 92V84.102H96.1441V87.028C96.4741 86.555 97.0461 86.137 97.8601 86.137C99.0811 86.137 99.7741 86.984 99.7741 88.205V92H98.7841V88.469C98.7841 87.666 98.4431 87.061 97.5851 87.061C96.8701 87.061 96.1441 87.611 96.1441 88.568V92H95.1541ZM105.072 84.102V92H103.455V84.102H105.072ZM106.397 92V86.214H107.937V86.808C108.256 86.434 108.784 86.104 109.521 86.104C110.731 86.104 111.468 86.929 111.468 88.183V92H109.928V88.623C109.928 87.974 109.664 87.512 109.004 87.512C108.465 87.512 107.937 87.897 107.937 88.656V92H106.397ZM112.856 90.493V87.501H112.086V86.214H112.856V84.564H114.374V86.214H115.551V87.501H114.374V90.174C114.374 90.669 114.649 90.735 115.1 90.735C115.32 90.735 115.43 90.724 115.628 90.702V91.978C115.353 92.033 115.023 92.066 114.638 92.066C113.472 92.066 112.856 91.681 112.856 90.493ZM119.035 92.121C117.33 92.121 116.164 90.9 116.164 89.107C116.164 87.402 117.341 86.104 118.98 86.104C120.696 86.104 121.62 87.38 121.62 88.997V89.448H117.638C117.748 90.328 118.287 90.856 119.046 90.856C119.64 90.856 120.113 90.57 120.289 90.009L121.587 90.471C121.169 91.527 120.19 92.121 119.035 92.121ZM118.969 87.336C118.353 87.336 117.88 87.699 117.693 88.403H120.091C120.08 87.831 119.717 87.336 118.969 87.336ZM125.986 86.203V87.71C125.81 87.688 125.678 87.677 125.491 87.677C124.688 87.677 124.072 88.172 124.072 89.063V92H122.532V86.214H124.072V87.028C124.325 86.522 124.897 86.181 125.612 86.181C125.766 86.181 125.876 86.192 125.986 86.203ZM126.17 91.021L127.127 90.042C127.523 90.581 128.227 90.922 128.876 90.922C129.393 90.922 129.844 90.746 129.844 90.328C129.844 89.888 129.415 89.833 128.491 89.657C127.556 89.47 126.522 89.228 126.522 87.985C126.522 86.874 127.501 86.104 128.887 86.104C129.91 86.104 130.823 86.522 131.274 87.105L130.394 88.073C130.009 87.578 129.448 87.303 128.843 87.303C128.359 87.303 128.04 87.512 128.04 87.831C128.04 88.205 128.425 88.271 129.14 88.414C130.152 88.623 131.351 88.854 131.351 90.163C131.351 91.373 130.229 92.121 128.843 92.121C127.798 92.121 126.698 91.736 126.17 91.021ZM134.984 86.214H136.183L137.14 89.833L138.108 86.214H139.615L137.866 92H136.535L135.556 88.502L134.577 92H133.246L131.497 86.214H133.059L134.038 89.833L134.984 86.214ZM140.245 85.532V84.102H141.818V85.532H140.245ZM141.807 86.214V92H140.267V86.214H141.807ZM143.225 90.493V87.501H142.455V86.214H143.225V84.564H144.743V86.214H145.92V87.501H144.743V90.174C144.743 90.669 145.018 90.735 145.469 90.735C145.689 90.735 145.799 90.724 145.997 90.702V91.978C145.722 92.033 145.392 92.066 145.007 92.066C143.841 92.066 143.225 91.681 143.225 90.493ZM148.061 89.107C148.061 90.196 148.6 90.823 149.414 90.823C150.052 90.823 150.437 90.383 150.58 89.789L151.911 90.383C151.647 91.329 150.745 92.121 149.403 92.121C147.72 92.121 146.532 90.9 146.532 89.107C146.532 87.325 147.72 86.104 149.403 86.104C150.734 86.104 151.614 86.874 151.889 87.809L150.58 88.425C150.437 87.831 150.052 87.391 149.414 87.391C148.6 87.391 148.061 88.029 148.061 89.107ZM152.653 92V84.102H154.193V86.808C154.512 86.434 155.04 86.104 155.777 86.104C156.987 86.104 157.724 86.929 157.724 88.183V92H156.184V88.623C156.184 87.974 155.92 87.512 155.26 87.512C154.721 87.512 154.193 87.897 154.193 88.656V92H152.653ZM158.738 92V90.218H160.542V92H158.738Z" fill="white"/>
<rect x="12" y="86" width="4" height="4" fill="white"/>
<path d="M27.036 104.102H28.884L31.843 112H30.204L29.577 110.306H26.321L25.694 112H24.088L27.036 104.102ZM27.938 105.895L26.827 108.931H29.06L27.938 105.895ZM37.3564 106.214V112H35.8164V111.406C35.4974 111.78 34.9914 112.121 34.2544 112.121C33.0554 112.121 32.2854 111.296 32.2854 110.042V106.214H33.8254V109.701C33.8254 110.339 34.1114 110.757 34.7494 110.757C35.2884 110.757 35.8164 110.361 35.8164 109.613V106.214H37.3564ZM40.8021 112.121C39.2071 112.121 38.2831 110.757 38.2831 109.107C38.2831 107.468 39.2071 106.104 40.8021 106.104C41.5281 106.104 42.0781 106.39 42.4191 106.808V104.102H43.9591V112H42.4191V111.406C42.0781 111.835 41.5281 112.121 40.8021 112.121ZM42.4521 108.953C42.4521 107.963 41.9021 107.424 41.1651 107.424C40.2961 107.424 39.8341 108.117 39.8341 109.107C39.8341 110.108 40.2961 110.801 41.1651 110.801C41.9021 110.801 42.4521 110.251 42.4521 109.272V108.953ZM45.2088 105.532V104.102H46.7818V105.532H45.2088ZM46.7708 106.214V112H45.2308V106.214H46.7708ZM53.3695 109.107C53.3695 110.911 52.2035 112.121 50.5315 112.121C48.8595 112.121 47.6935 110.911 47.6935 109.107C47.6935 107.314 48.8595 106.104 50.5315 106.104C52.2035 106.104 53.3695 107.314 53.3695 109.107ZM49.2225 109.107C49.2225 110.207 49.7285 110.845 50.5315 110.845C51.3345 110.845 51.8295 110.207 51.8295 109.107C51.8295 108.018 51.3345 107.38 50.5315 107.38C49.7285 107.38 49.2225 108.018 49.2225 109.107ZM63.2416 104.102V112H61.8336L58.1376 106.555V112H56.5866V104.102H58.2256L61.6906 109.283V104.102H63.2416ZM69.9125 109.107C69.9125 110.911 68.7465 112.121 67.0745 112.121C65.4025 112.121 64.2365 110.911 64.2365 109.107C64.2365 107.314 65.4025 106.104 67.0745 106.104C68.7465 106.104 69.9125 107.314 69.9125 109.107ZM65.7655 109.107C65.7655 110.207 66.2715 110.845 67.0745 110.845C67.8775 110.845 68.3725 110.207 68.3725 109.107C68.3725 108.018 67.8775 107.38 67.0745 107.38C66.2715 107.38 65.7655 108.018 65.7655 109.107ZM71.0049 110.493V107.501H70.2349V106.214H71.0049V104.564H72.5229V106.214H73.6999V107.501H72.5229V110.174C72.5229 110.669 72.7979 110.735 73.2489 110.735C73.4689 110.735 73.5789 110.724 73.7769 110.702V111.978C73.5019 112.033 73.1719 112.066 72.7869 112.066C71.6209 112.066 71.0049 111.681 71.0049 110.493ZM74.6746 105.532V104.102H76.2476V105.532H74.6746ZM76.2366 106.214V112H74.6966V106.214H76.2366ZM80.3603 104.014V105.279C80.2173 105.268 80.1293 105.268 79.9643 105.268C79.4803 105.268 79.2273 105.411 79.2273 105.983V106.214H80.3493V107.501H79.2273V112H77.6873V107.501H76.9063V106.214H77.6873V105.895C77.6873 104.674 78.3473 103.992 79.7663 103.992C79.9863 103.992 80.1183 103.992 80.3603 104.014ZM81.034 105.532V104.102H82.607V105.532H81.034ZM82.596 106.214V112H81.056V106.214H82.596ZM85.0477 109.107C85.0477 110.196 85.5867 110.823 86.4007 110.823C87.0387 110.823 87.4237 110.383 87.5667 109.789L88.8977 110.383C88.6337 111.329 87.7317 112.121 86.3897 112.121C84.7067 112.121 83.5187 110.9 83.5187 109.107C83.5187 107.325 84.7067 106.104 86.3897 106.104C87.7207 106.104 88.6007 106.874 88.8757 107.809L87.5667 108.425C87.4237 107.831 87.0387 107.391 86.4007 107.391C85.5867 107.391 85.0477 108.029 85.0477 109.107ZM91.2979 112.099C90.1649 112.099 89.3289 111.417 89.3289 110.394C89.3289 109.239 90.2529 108.755 91.4189 108.546L92.8599 108.271V108.183C92.8599 107.688 92.6069 107.38 91.9689 107.38C91.3969 107.38 91.0999 107.633 90.9679 108.15L89.5049 107.875C89.7689 106.896 90.6489 106.104 92.0239 106.104C93.4869 106.104 94.3669 106.775 94.3669 108.117V110.482C94.3669 110.79 94.4989 110.889 94.8399 110.845V112C93.8609 112.143 93.2669 111.945 93.0139 111.461C92.6399 111.868 92.0569 112.099 91.2979 112.099ZM92.8599 109.943V109.349L91.7269 109.58C91.2209 109.679 90.8469 109.844 90.8469 110.306C90.8469 110.702 91.1439 110.933 91.6059 110.933C92.2549 110.933 92.8599 110.592 92.8599 109.943ZM95.8408 110.493V107.501H95.0708V106.214H95.8408V104.564H97.3588V106.214H98.5358V107.501H97.3588V110.174C97.3588 110.669 97.6338 110.735 98.0848 110.735C98.3048 110.735 98.4148 110.724 98.6128 110.702V111.978C98.3378 112.033 98.0078 112.066 97.6228 112.066C96.4568 112.066 95.8408 111.681 95.8408 110.493ZM99.5105 105.532V104.102H101.084V105.532H99.5105ZM101.073 106.214V112H99.5325V106.214H101.073ZM107.671 109.107C107.671 110.911 106.505 112.121 104.833 112.121C103.161 112.121 101.995 110.911 101.995 109.107C101.995 107.314 103.161 106.104 104.833 106.104C106.505 106.104 107.671 107.314 107.671 109.107ZM103.524 109.107C103.524 110.207 104.03 110.845 104.833 110.845C105.636 110.845 106.131 110.207 106.131 109.107C106.131 108.018 105.636 107.38 104.833 107.38C104.03 107.38 103.524 108.018 103.524 109.107ZM108.61 112V106.214H110.15V106.808C110.469 106.434 110.997 106.104 111.734 106.104C112.944 106.104 113.681 106.929 113.681 108.183V112H112.141V108.623C112.141 107.974 111.877 107.512 111.217 107.512C110.678 107.512 110.15 107.897 110.15 108.656V112H108.61ZM117.467 112V104.102H119.975C122.373 104.102 123.891 105.642 123.891 108.051C123.891 110.46 122.373 112 119.975 112H117.467ZM118.501 111.087H119.975C121.768 111.087 122.857 109.888 122.857 108.051C122.857 106.203 121.768 105.015 119.964 105.015H118.501V111.087ZM127.435 112.121C125.84 112.121 124.74 110.9 124.74 109.129C124.74 107.413 125.829 106.137 127.391 106.137C128.997 106.137 129.844 107.358 129.844 108.953V109.283H125.686C125.741 110.493 126.434 111.263 127.435 111.263C128.205 111.263 128.755 110.845 128.931 110.163L129.8 110.471C129.448 111.494 128.579 112.121 127.435 112.121ZM127.38 106.984C126.544 106.984 125.917 107.545 125.741 108.524H128.843C128.821 107.71 128.381 106.984 127.38 106.984ZM132.066 104.102V112H131.076V104.102H132.066ZM133.675 105.246V104.102H134.753V105.246H133.675ZM134.709 106.247V112H133.719V106.247H134.709ZM138.814 112H137.835L135.679 106.247H136.724L138.341 110.79L139.936 106.247H140.97L138.814 112ZM144.085 112.121C142.49 112.121 141.39 110.9 141.39 109.129C141.39 107.413 142.479 106.137 144.041 106.137C145.647 106.137 146.494 107.358 146.494 108.953V109.283H142.336C142.391 110.493 143.084 111.263 144.085 111.263C144.855 111.263 145.405 110.845 145.581 110.163L146.45 110.471C146.098 111.494 145.229 112.121 144.085 112.121ZM144.03 106.984C143.194 106.984 142.567 107.545 142.391 108.524H145.493C145.471 107.71 145.031 106.984 144.03 106.984ZM150.707 106.225V107.226C150.542 107.193 150.41 107.182 150.223 107.182C149.387 107.182 148.716 107.842 148.716 108.854V112H147.726V106.247H148.716V107.226C148.969 106.643 149.53 106.203 150.311 106.203C150.465 106.203 150.608 106.214 150.707 106.225ZM153.996 112.627C153.666 113.496 153.215 114.046 152.214 114.046C151.972 114.046 151.851 114.035 151.675 114.002V113.144C151.862 113.188 151.983 113.199 152.148 113.199C152.577 113.199 152.808 113.045 153.039 112.473L153.314 111.791L151.18 106.247H152.225L153.842 110.647L155.437 106.247H156.471L153.996 112.627Z" fill="white"/>
<rect x="12" y="106" width="4" height="4" fill="white"/>
<path d="M26.31 129.096V132H24.693V124.102H27.927C29.742 124.102 30.875 124.96 30.875 126.599C30.875 128.227 29.742 129.096 27.927 129.096H26.31ZM26.31 127.721H27.839C28.785 127.721 29.269 127.303 29.269 126.599C29.269 125.884 28.785 125.477 27.839 125.477H26.31V127.721ZM33.043 132.099C31.91 132.099 31.074 131.417 31.074 130.394C31.074 129.239 31.998 128.755 33.164 128.546L34.605 128.271V128.183C34.605 127.688 34.352 127.38 33.714 127.38C33.142 127.38 32.845 127.633 32.713 128.15L31.25 127.875C31.514 126.896 32.394 126.104 33.769 126.104C35.232 126.104 36.112 126.775 36.112 128.117V130.482C36.112 130.79 36.244 130.889 36.585 130.845V132C35.606 132.143 35.012 131.945 34.759 131.461C34.385 131.868 33.802 132.099 33.043 132.099ZM34.605 129.943V129.349L33.472 129.58C32.966 129.679 32.592 129.844 32.592 130.306C32.592 130.702 32.889 130.933 33.351 130.933C34 130.933 34.605 130.592 34.605 129.943ZM40.1083 132.33C39.7343 133.353 39.2063 134.013 37.9303 134.013C37.6333 134.013 37.5233 134.002 37.3253 133.98V132.737C37.4903 132.748 37.5893 132.759 37.7653 132.759C38.1723 132.759 38.3923 132.649 38.5573 132.231L38.7443 131.769L36.6653 126.214H38.2603L39.5693 130.02L40.8453 126.214H42.3963L40.1083 132.33ZM44.5901 128.656V132H43.0501V126.214H44.5901V126.808C44.8981 126.434 45.4151 126.104 46.1631 126.104C46.8671 126.104 47.4061 126.401 47.7251 126.896C48.0771 126.533 48.6271 126.104 49.5181 126.104C50.7061 126.104 51.4761 126.929 51.4761 128.183V132H49.9361V128.623C49.9361 127.974 49.6941 127.512 49.0561 127.512C48.5501 127.512 48.0331 127.897 48.0331 128.656V132H46.4931V128.623C46.4931 127.974 46.2511 127.512 45.6131 127.512C45.1071 127.512 44.5901 127.897 44.5901 128.656ZM55.2481 132.121C53.5431 132.121 52.3771 130.9 52.3771 129.107C52.3771 127.402 53.5541 126.104 55.1931 126.104C56.9091 126.104 57.8331 127.38 57.8331 128.997V129.448H53.8511C53.9611 130.328 54.5001 130.856 55.2591 130.856C55.8531 130.856 56.3261 130.57 56.5021 130.009L57.8001 130.471C57.3821 131.527 56.4031 132.121 55.2481 132.121ZM55.1821 127.336C54.5661 127.336 54.0931 127.699 53.9061 128.403H56.3041C56.2931 127.831 55.9301 127.336 55.1821 127.336ZM58.7444 132V126.214H60.2844V126.808C60.6034 126.434 61.1314 126.104 61.8684 126.104C63.0784 126.104 63.8154 126.929 63.8154 128.183V132H62.2754V128.623C62.2754 127.974 62.0114 127.512 61.3514 127.512C60.8124 127.512 60.2844 127.897 60.2844 128.656V132H58.7444ZM65.2041 130.493V127.501H64.4341V126.214H65.2041V124.564H66.7221V126.214H67.8991V127.501H66.7221V130.174C66.7221 130.669 66.9971 130.735 67.4481 130.735C67.6681 130.735 67.7781 130.724 67.9761 130.702V131.978C67.7011 132.033 67.3711 132.066 66.9861 132.066C65.8201 132.066 65.2041 131.681 65.2041 130.493ZM71.1744 132V124.102H72.7914V130.603H76.4214V132H71.1744ZM77.199 125.532V124.102H78.772V125.532H77.199ZM78.761 126.214V132H77.221V126.214H78.761ZM80.0247 132V126.214H81.5647V126.808C81.8837 126.434 82.4117 126.104 83.1487 126.104C84.3587 126.104 85.0957 126.929 85.0957 128.183V132H83.5557V128.623C83.5557 127.974 83.2917 127.512 82.6317 127.512C82.0927 127.512 81.5647 127.897 81.5647 128.656V132H80.0247ZM87.8704 124.102V128.458L89.8944 126.214H91.7424L89.6194 128.414L91.9074 132H90.1474L88.5524 129.525L87.8704 130.229V132H86.3304V124.102H87.8704Z" fill="white"/>
<rect x="12" y="126" width="4" height="4" fill="white"/>
<path d="M24.693 152V144.102H27.949C29.665 144.102 30.578 144.85 30.578 146.203C30.578 147.149 30.017 147.666 29.478 147.897C30.27 148.161 30.82 148.832 30.82 149.789C30.82 151.175 29.819 152 28.147 152H24.693ZM26.244 147.314H27.795C28.598 147.314 29.049 147.006 29.049 146.379C29.049 145.763 28.598 145.444 27.795 145.444H26.244V147.314ZM26.244 148.623V150.647H28.037C28.829 150.647 29.258 150.24 29.258 149.635C29.258 149.041 28.829 148.623 28.037 148.623H26.244ZM31.6951 145.532V144.102H33.2681V145.532H31.6951ZM33.2571 146.214V152H31.7171V146.214H33.2571ZM36.0608 144.102V152H34.5208V144.102H36.0608ZM38.8645 144.102V152H37.3245V144.102H38.8645ZM44.0239 149.096V152H42.4069V144.102H45.6409C47.4559 144.102 48.5889 144.96 48.5889 146.599C48.5889 148.227 47.4559 149.096 45.6409 149.096H44.0239ZM44.0239 147.721H45.5529C46.4989 147.721 46.9829 147.303 46.9829 146.599C46.9829 145.884 46.4989 145.477 45.5529 145.477H44.0239V147.721ZM50.7569 152.099C49.6239 152.099 48.7879 151.417 48.7879 150.394C48.7879 149.239 49.7119 148.755 50.8779 148.546L52.3189 148.271V148.183C52.3189 147.688 52.0659 147.38 51.4279 147.38C50.8559 147.38 50.5589 147.633 50.4269 148.15L48.9639 147.875C49.2279 146.896 50.1079 146.104 51.4829 146.104C52.9459 146.104 53.8259 146.775 53.8259 148.117V150.482C53.8259 150.79 53.9579 150.889 54.2989 150.845V152C53.3199 152.143 52.7259 151.945 52.4729 151.461C52.0989 151.868 51.5159 152.099 50.7569 152.099ZM52.3189 149.943V149.349L51.1859 149.58C50.6799 149.679 50.3059 149.844 50.3059 150.306C50.3059 150.702 50.6029 150.933 51.0649 150.933C51.7139 150.933 52.3189 150.592 52.3189 149.943ZM57.8222 152.33C57.4482 153.353 56.9202 154.013 55.6442 154.013C55.3472 154.013 55.2372 154.002 55.0392 153.98V152.737C55.2042 152.748 55.3032 152.759 55.4792 152.759C55.8862 152.759 56.1062 152.649 56.2712 152.231L56.4582 151.769L54.3792 146.214H55.9742L57.2832 150.02L58.5592 146.214H60.1102L57.8222 152.33ZM62.304 148.656V152H60.764V146.214H62.304V146.808C62.612 146.434 63.129 146.104 63.877 146.104C64.581 146.104 65.12 146.401 65.439 146.896C65.791 146.533 66.341 146.104 67.232 146.104C68.42 146.104 69.19 146.929 69.19 148.183V152H67.65V148.623C67.65 147.974 67.408 147.512 66.77 147.512C66.264 147.512 65.747 147.897 65.747 148.656V152H64.207V148.623C64.207 147.974 63.965 147.512 63.327 147.512C62.821 147.512 62.304 147.897 62.304 148.656ZM72.9619 152.121C71.2569 152.121 70.0909 150.9 70.0909 149.107C70.0909 147.402 71.2679 146.104 72.9069 146.104C74.6229 146.104 75.5469 147.38 75.5469 148.997V149.448H71.5649C71.6749 150.328 72.2139 150.856 72.9729 150.856C73.5669 150.856 74.0399 150.57 74.2159 150.009L75.5139 150.471C75.0959 151.527 74.1169 152.121 72.9619 152.121ZM72.8959 147.336C72.2799 147.336 71.8069 147.699 71.6199 148.403H74.0179C74.0069 147.831 73.6439 147.336 72.8959 147.336ZM76.4583 152V146.214H77.9983V146.808C78.3173 146.434 78.8453 146.104 79.5823 146.104C80.7923 146.104 81.5293 146.929 81.5293 148.183V152H79.9893V148.623C79.9893 147.974 79.7253 147.512 79.0653 147.512C78.5263 147.512 77.9983 147.897 77.9983 148.656V152H76.4583ZM82.918 150.493V147.501H82.148V146.214H82.918V144.564H84.436V146.214H85.613V147.501H84.436V150.174C84.436 150.669 84.711 150.735 85.162 150.735C85.382 150.735 85.492 150.724 85.69 150.702V151.978C85.415 152.033 85.085 152.066 84.7 152.066C83.534 152.066 82.918 151.681 82.918 150.493ZM86.0377 151.021L86.9947 150.042C87.3907 150.581 88.0947 150.922 88.7437 150.922C89.2607 150.922 89.7117 150.746 89.7117 150.328C89.7117 149.888 89.2827 149.833 88.3587 149.657C87.4237 149.47 86.3897 149.228 86.3897 147.985C86.3897 146.874 87.3687 146.104 88.7547 146.104C89.7777 146.104 90.6907 146.522 91.1417 147.105L90.2617 148.073C89.8767 147.578 89.3157 147.303 88.7107 147.303C88.2267 147.303 87.9077 147.512 87.9077 147.831C87.9077 148.205 88.2927 148.271 89.0077 148.414C90.0197 148.623 91.2187 148.854 91.2187 150.163C91.2187 151.373 90.0967 152.121 88.7107 152.121C87.6657 152.121 86.5657 151.736 86.0377 151.021ZM91.836 152V150.218H93.64V151.967C93.64 153.001 92.925 153.617 91.836 153.617V152.803C92.342 152.77 92.595 152.55 92.595 152.077V152H91.836ZM99.3202 144.102H101.168L104.127 152H102.488L101.861 150.306H98.6052L97.9782 152H96.3722L99.3202 144.102ZM100.222 145.895L99.1112 148.931H101.344L100.222 145.895ZM104.742 145.532V144.102H106.315V145.532H104.742ZM106.304 146.214V152H104.764V146.214H106.304ZM111.022 146.203V147.71C110.846 147.688 110.714 147.677 110.527 147.677C109.724 147.677 109.108 148.172 109.108 149.063V152H107.568V146.214H109.108V147.028C109.361 146.522 109.933 146.181 110.648 146.181C110.802 146.181 110.912 146.192 111.022 146.203ZM112.126 150.493V147.501H111.356V146.214H112.126V144.564H113.644V146.214H114.821V147.501H113.644V150.174C113.644 150.669 113.919 150.735 114.37 150.735C114.59 150.735 114.7 150.724 114.898 150.702V151.978C114.623 152.033 114.293 152.066 113.908 152.066C112.742 152.066 112.126 151.681 112.126 150.493ZM115.796 145.532V144.102H117.369V145.532H115.796ZM117.358 146.214V152H115.818V146.214H117.358ZM120.161 148.656V152H118.621V146.214H120.161V146.808C120.469 146.434 120.986 146.104 121.734 146.104C122.438 146.104 122.977 146.401 123.296 146.896C123.648 146.533 124.198 146.104 125.089 146.104C126.277 146.104 127.047 146.929 127.047 148.183V152H125.507V148.623C125.507 147.974 125.265 147.512 124.627 147.512C124.121 147.512 123.604 147.897 123.604 148.656V152H122.064V148.623C122.064 147.974 121.822 147.512 121.184 147.512C120.678 147.512 120.161 147.897 120.161 148.656ZM130.819 152.121C129.114 152.121 127.948 150.9 127.948 149.107C127.948 147.402 129.125 146.104 130.764 146.104C132.48 146.104 133.404 147.38 133.404 148.997V149.448H129.422C129.532 150.328 130.071 150.856 130.83 150.856C131.424 150.856 131.897 150.57 132.073 150.009L133.371 150.471C132.953 151.527 131.974 152.121 130.819 152.121ZM130.753 147.336C130.137 147.336 129.664 147.699 129.477 148.403H131.875C131.864 147.831 131.501 147.336 130.753 147.336ZM134.096 152V150.218H135.9V151.967C135.9 153.001 135.185 153.617 134.096 153.617V152.803C134.602 152.77 134.855 152.55 134.855 152.077V152H134.096ZM139.237 152V144.102H141.954C144.44 144.102 145.958 145.642 145.958 148.051C145.958 150.46 144.44 152 141.954 152H139.237ZM140.821 150.614H141.954C143.483 150.614 144.363 149.602 144.363 148.051C144.363 146.489 143.483 145.488 141.943 145.488H140.821V150.614ZM148.479 152.099C147.346 152.099 146.51 151.417 146.51 150.394C146.51 149.239 147.434 148.755 148.6 148.546L150.041 148.271V148.183C150.041 147.688 149.788 147.38 149.15 147.38C148.578 147.38 148.281 147.633 148.149 148.15L146.686 147.875C146.95 146.896 147.83 146.104 149.205 146.104C150.668 146.104 151.548 146.775 151.548 148.117V150.482C151.548 150.79 151.68 150.889 152.021 150.845V152C151.042 152.143 150.448 151.945 150.195 151.461C149.821 151.868 149.238 152.099 148.479 152.099ZM150.041 149.943V149.349L148.908 149.58C148.402 149.679 148.028 149.844 148.028 150.306C148.028 150.702 148.325 150.933 148.787 150.933C149.436 150.933 150.041 150.592 150.041 149.943ZM153.021 150.493V147.501H152.251V146.214H153.021V144.564H154.539V146.214H155.716V147.501H154.539V150.174C154.539 150.669 154.814 150.735 155.265 150.735C155.485 150.735 155.595 150.724 155.793 150.702V151.978C155.518 152.033 155.188 152.066 154.803 152.066C153.637 152.066 153.021 151.681 153.021 150.493ZM158.286 152.099C157.153 152.099 156.317 151.417 156.317 150.394C156.317 149.239 157.241 148.755 158.407 148.546L159.848 148.271V148.183C159.848 147.688 159.595 147.38 158.957 147.38C158.385 147.38 158.088 147.633 157.956 148.15L156.493 147.875C156.757 146.896 157.637 146.104 159.012 146.104C160.475 146.104 161.355 146.775 161.355 148.117V150.482C161.355 150.79 161.487 150.889 161.828 150.845V152C160.849 152.143 160.255 151.945 160.002 151.461C159.628 151.868 159.045 152.099 158.286 152.099ZM159.848 149.943V149.349L158.715 149.58C158.209 149.679 157.835 149.844 157.835 150.306C157.835 150.702 158.132 150.933 158.594 150.933C159.243 150.933 159.848 150.592 159.848 149.943ZM162.584 152V150.218H164.388V151.967C164.388 153.001 163.673 153.617 162.584 153.617V152.803C163.09 152.77 163.343 152.55 163.343 152.077V152H162.584ZM25.925 164.051C25.925 165.657 26.772 166.702 27.982 166.702C28.84 166.702 29.467 166.163 29.687 165.283L31.205 165.789C30.743 167.219 29.621 168.121 27.982 168.121C25.848 168.121 24.297 166.438 24.297 164.051C24.297 161.664 25.848 159.981 27.982 159.981C29.621 159.981 30.743 160.883 31.205 162.313L29.687 162.819C29.467 161.939 28.84 161.4 27.982 161.4C26.772 161.4 25.925 162.445 25.925 164.051ZM33.5909 168.099C32.4579 168.099 31.6219 167.417 31.6219 166.394C31.6219 165.239 32.5459 164.755 33.7119 164.546L35.1529 164.271V164.183C35.1529 163.688 34.8999 163.38 34.2619 163.38C33.6899 163.38 33.3929 163.633 33.2609 164.15L31.7979 163.875C32.0619 162.896 32.9419 162.104 34.3169 162.104C35.7799 162.104 36.6599 162.775 36.6599 164.117V166.482C36.6599 166.79 36.7919 166.889 37.1329 166.845V168C36.1539 168.143 35.5599 167.945 35.3069 167.461C34.9329 167.868 34.3499 168.099 33.5909 168.099ZM35.1529 165.943V165.349L34.0199 165.58C33.5139 165.679 33.1399 165.844 33.1399 166.306C33.1399 166.702 33.4369 166.933 33.8989 166.933C34.5479 166.933 35.1529 166.592 35.1529 165.943ZM41.1583 168.121C40.4323 168.121 39.8823 167.835 39.5413 167.406V168H38.0013V160.102H39.5413V162.808C39.8823 162.39 40.4323 162.104 41.1583 162.104C42.7533 162.104 43.6773 163.468 43.6773 165.107C43.6773 166.757 42.7533 168.121 41.1583 168.121ZM39.5083 164.953V165.272C39.5083 166.251 40.0583 166.801 40.7953 166.801C41.6643 166.801 42.1263 166.108 42.1263 165.107C42.1263 164.117 41.6643 163.424 40.7953 163.424C40.0583 163.424 39.5083 163.963 39.5083 164.953ZM46.137 160.102V168H44.597V160.102H46.137ZM49.9307 168.121C48.2257 168.121 47.0597 166.9 47.0597 165.107C47.0597 163.402 48.2367 162.104 49.8757 162.104C51.5917 162.104 52.5157 163.38 52.5157 164.997V165.448H48.5337C48.6437 166.328 49.1827 166.856 49.9417 166.856C50.5357 166.856 51.0087 166.57 51.1847 166.009L52.4827 166.471C52.0647 167.527 51.0857 168.121 49.9307 168.121ZM49.8647 163.336C49.2487 163.336 48.7757 163.699 48.5887 164.403H50.9867C50.9757 163.831 50.6127 163.336 49.8647 163.336ZM61.7557 161.499H59.2807V168H57.6637V161.499H55.1777V160.102H61.7557V161.499ZM66.6169 168H64.9229L62.0079 160.102H63.7459L65.7919 165.943L67.8489 160.102H69.5099L66.6169 168ZM75.9162 162.203V163.71C75.7402 163.688 75.6082 163.677 75.4212 163.677C74.6182 163.677 74.0022 164.172 74.0022 165.063V168H72.4622V162.214H74.0022V163.028C74.2552 162.522 74.8272 162.181 75.5422 162.181C75.6962 162.181 75.8062 162.192 75.9162 162.203ZM79.042 168.121C77.337 168.121 76.171 166.9 76.171 165.107C76.171 163.402 77.348 162.104 78.987 162.104C80.703 162.104 81.627 163.38 81.627 164.997V165.448H77.645C77.755 166.328 78.294 166.856 79.053 166.856C79.647 166.856 80.12 166.57 80.296 166.009L81.594 166.471C81.176 167.527 80.197 168.121 79.042 168.121ZM78.976 163.336C78.36 163.336 77.887 163.699 77.7 164.403H80.098C80.087 163.831 79.724 163.336 78.976 163.336ZM83.7371 165.107C83.7371 166.196 84.2761 166.823 85.0901 166.823C85.7281 166.823 86.1131 166.383 86.2561 165.789L87.5871 166.383C87.3231 167.329 86.4211 168.121 85.0791 168.121C83.3961 168.121 82.2081 166.9 82.2081 165.107C82.2081 163.325 83.3961 162.104 85.0791 162.104C86.4101 162.104 87.2901 162.874 87.5651 163.809L86.2561 164.425C86.1131 163.831 85.7281 163.391 85.0901 163.391C84.2761 163.391 83.7371 164.029 83.7371 165.107ZM88.3284 168V160.102H89.8684V162.808C90.1874 162.434 90.7154 162.104 91.4524 162.104C92.6624 162.104 93.3994 162.929 93.3994 164.183V168H91.8594V164.623C91.8594 163.974 91.5954 163.512 90.9354 163.512C90.3964 163.512 89.8684 163.897 89.8684 164.656V168H88.3284ZM96.2071 168.099C95.0741 168.099 94.2381 167.417 94.2381 166.394C94.2381 165.239 95.1621 164.755 96.3281 164.546L97.7691 164.271V164.183C97.7691 163.688 97.5161 163.38 96.8781 163.38C96.3061 163.38 96.0091 163.633 95.8771 164.15L94.4141 163.875C94.6781 162.896 95.5581 162.104 96.9331 162.104C98.3961 162.104 99.2761 162.775 99.2761 164.117V166.482C99.2761 166.79 99.4081 166.889 99.7491 166.845V168C98.7701 168.143 98.1761 167.945 97.9231 167.461C97.5491 167.868 96.9661 168.099 96.2071 168.099ZM97.7691 165.943V165.349L96.6361 165.58C96.1301 165.679 95.7561 165.844 95.7561 166.306C95.7561 166.702 96.0531 166.933 96.5151 166.933C97.1641 166.933 97.7691 166.592 97.7691 165.943ZM104.071 162.203V163.71C103.895 163.688 103.763 163.677 103.576 163.677C102.773 163.677 102.157 164.172 102.157 165.063V168H100.617V162.214H102.157V163.028C102.41 162.522 102.982 162.181 103.697 162.181C103.851 162.181 103.961 162.192 104.071 162.203ZM110.056 167.362C110.056 169.111 108.846 170.079 107.13 170.079C105.733 170.079 104.765 169.507 104.435 168.374L105.876 167.956C106.041 168.528 106.492 168.88 107.152 168.88C107.955 168.88 108.516 168.484 108.516 167.527V167.131C108.219 167.527 107.636 167.835 106.91 167.835C105.326 167.835 104.402 166.548 104.402 164.964C104.402 163.391 105.326 162.104 106.91 162.104C107.625 162.104 108.219 162.412 108.516 162.808V162.214H110.056V167.362ZM108.527 164.898C108.527 163.941 108.01 163.402 107.273 163.402C106.437 163.402 105.964 163.996 105.964 164.964C105.964 165.932 106.437 166.537 107.273 166.537C108.01 166.537 108.527 165.998 108.527 165.052V164.898ZM113.857 168.121C112.152 168.121 110.986 166.9 110.986 165.107C110.986 163.402 112.163 162.104 113.802 162.104C115.518 162.104 116.442 163.38 116.442 164.997V165.448H112.46C112.57 166.328 113.109 166.856 113.868 166.856C114.462 166.856 114.935 166.57 115.111 166.009L116.409 166.471C115.991 167.527 115.012 168.121 113.857 168.121ZM113.791 163.336C113.175 163.336 112.702 163.699 112.515 164.403H114.913C114.902 163.831 114.539 163.336 113.791 163.336Z" fill="white"/>
<rect x="12" y="146" width="4" height="4" fill="white"/>
<path d="M25.925 184.689V188H24.869V180.102H27.883C29.555 180.102 30.622 180.883 30.622 182.39C30.622 183.875 29.555 184.689 27.883 184.689H25.925ZM25.925 183.776H27.828C28.95 183.776 29.577 183.281 29.577 182.39C29.577 181.499 28.95 181.015 27.828 181.015H25.925V183.776ZM31.2168 187.131L33.5488 185.195C34.6268 184.304 35.4628 183.545 35.4628 182.511C35.4628 181.543 34.8358 180.883 33.8678 180.883C32.9218 180.883 32.2728 181.609 32.2728 182.511C32.2728 182.797 32.3388 183.094 32.4488 183.369H31.4588C31.3378 183.028 31.2828 182.764 31.2828 182.456C31.2828 181.048 32.4378 179.981 33.8898 179.981C35.4848 179.981 36.4968 180.993 36.4968 182.445C36.4968 183.787 35.5728 184.711 34.4398 185.624L32.6578 187.076H36.6508V188H31.2168V187.131ZM38.9123 184.689V188H37.8563V180.102H40.8703C42.5423 180.102 43.6093 180.883 43.6093 182.39C43.6093 183.875 42.5423 184.689 40.8703 184.689H38.9123ZM38.9123 183.776H40.8153C41.9373 183.776 42.5643 183.281 42.5643 182.39C42.5643 181.499 41.9373 181.015 40.8153 181.015H38.9123V183.776ZM43.2854 188V186.702H44.5394V188.066C44.5394 188.924 43.9894 189.441 43.1094 189.463V188.891C43.6044 188.869 43.8574 188.616 43.8574 188.088V188H43.2854ZM47.0656 184.689V188H46.0096V180.102H49.0236C50.6956 180.102 51.7626 180.883 51.7626 182.39C51.7626 183.875 50.6956 184.689 49.0236 184.689H47.0656ZM47.0656 183.776H48.9686C50.0906 183.776 50.7176 183.281 50.7176 182.39C50.7176 181.499 50.0906 181.015 48.9686 181.015H47.0656V183.776ZM52.3574 187.131L54.6894 185.195C55.7674 184.304 56.6034 183.545 56.6034 182.511C56.6034 181.543 55.9764 180.883 55.0084 180.883C54.0624 180.883 53.4134 181.609 53.4134 182.511C53.4134 182.797 53.4794 183.094 53.5894 183.369H52.5994C52.4784 183.028 52.4234 182.764 52.4234 182.456C52.4234 181.048 53.5784 179.981 55.0304 179.981C56.6254 179.981 57.6374 180.993 57.6374 182.445C57.6374 183.787 56.7134 184.711 55.5804 185.624L53.7984 187.076H57.7914V188H52.3574V187.131ZM58.9969 188V180.102H61.9119C63.5839 180.102 64.4749 180.839 64.4749 182.159C64.4749 183.171 63.8589 183.677 63.2539 183.886C64.1449 184.128 64.7389 184.821 64.7389 185.822C64.7389 187.197 63.7379 188 62.1429 188H58.9969ZM60.0199 183.49H61.8239C62.8799 183.49 63.4629 183.083 63.4629 182.247C63.4629 181.4 62.8799 180.993 61.8239 180.993H60.0199V183.49ZM60.0199 184.392V187.109H62.0989C63.1549 187.109 63.7269 186.559 63.7269 185.745C63.7269 184.942 63.1549 184.392 62.0989 184.392H60.0199ZM70.8176 180.025C71.2136 180.025 71.551 180.095 71.8296 180.234C72.1156 180.366 72.3356 180.557 72.4896 180.806C72.6436 181.055 72.7206 181.36 72.7206 181.719C72.7206 182.181 72.5703 182.573 72.2696 182.896C71.9763 183.219 71.6023 183.512 71.1476 183.776L73.2706 185.822C73.4613 185.595 73.6153 185.334 73.7326 185.041C73.8573 184.74 73.96 184.418 74.0406 184.073H75.0196C74.9023 184.542 74.7556 184.979 74.5796 185.382C74.4036 185.785 74.1763 186.137 73.8976 186.438L75.5036 188H74.1946L73.2376 187.076C73.0616 187.23 72.8783 187.373 72.6876 187.505C72.5043 187.63 72.3026 187.736 72.0826 187.824C71.8626 187.912 71.6243 187.982 71.3676 188.033C71.1183 188.084 70.8396 188.11 70.5316 188.11C70.0256 188.11 69.5856 188.029 69.2116 187.868C68.845 187.699 68.559 187.454 68.3536 187.131C68.1556 186.808 68.0566 186.416 68.0566 185.954C68.0566 185.58 68.1226 185.257 68.2546 184.986C68.394 184.715 68.592 184.473 68.8486 184.26C69.1053 184.047 69.406 183.842 69.7506 183.644C69.5966 183.468 69.4463 183.285 69.2996 183.094C69.153 182.903 69.032 182.698 68.9366 182.478C68.8413 182.251 68.7936 182.005 68.7936 181.741C68.7936 181.382 68.8743 181.074 69.0356 180.817C69.197 180.56 69.428 180.366 69.7286 180.234C70.0366 180.095 70.3996 180.025 70.8176 180.025ZM70.3336 184.249C70.0696 184.403 69.8423 184.561 69.6516 184.722C69.4683 184.876 69.3253 185.048 69.2226 185.239C69.12 185.43 69.0686 185.657 69.0686 185.921C69.0686 186.324 69.2043 186.647 69.4756 186.889C69.747 187.131 70.11 187.252 70.5646 187.252C71.034 187.252 71.4373 187.175 71.7746 187.021C72.112 186.867 72.3943 186.684 72.6216 186.471L70.3336 184.249ZM70.7846 180.817C70.4766 180.817 70.2236 180.898 70.0256 181.059C69.835 181.22 69.7396 181.444 69.7396 181.73C69.7396 181.994 69.8093 182.24 69.9486 182.467C70.088 182.687 70.2896 182.933 70.5536 183.204C70.9863 182.955 71.2943 182.72 71.4776 182.5C71.6683 182.273 71.7636 182.012 71.7636 181.719C71.7636 181.455 71.6756 181.239 71.4996 181.07C71.3236 180.901 71.0853 180.817 70.7846 180.817ZM78.7196 188V180.102H81.6346C83.3066 180.102 84.1976 180.839 84.1976 182.159C84.1976 183.171 83.5816 183.677 82.9766 183.886C83.8676 184.128 84.4616 184.821 84.4616 185.822C84.4616 187.197 83.4606 188 81.8656 188H78.7196ZM79.7426 183.49H81.5466C82.6026 183.49 83.1856 183.083 83.1856 182.247C83.1856 181.4 82.6026 180.993 81.5466 180.993H79.7426V183.49ZM79.7426 184.392V187.109H81.8216C82.8776 187.109 83.4496 186.559 83.4496 185.745C83.4496 184.942 82.8776 184.392 81.8216 184.392H79.7426ZM85.25 187.131L87.582 185.195C88.66 184.304 89.496 183.545 89.496 182.511C89.496 181.543 88.869 180.883 87.901 180.883C86.955 180.883 86.306 181.609 86.306 182.511C86.306 182.797 86.372 183.094 86.482 183.369H85.492C85.371 183.028 85.316 182.764 85.316 182.456C85.316 181.048 86.471 179.981 87.923 179.981C89.518 179.981 90.53 180.993 90.53 182.445C90.53 183.787 89.606 184.711 88.473 185.624L86.691 187.076H90.684V188H85.25V187.131ZM91.8895 188V180.102H94.8045C96.4765 180.102 97.3675 180.839 97.3675 182.159C97.3675 183.171 96.7515 183.677 96.1465 183.886C97.0375 184.128 97.6315 184.821 97.6315 185.822C97.6315 187.197 96.6305 188 95.0355 188H91.8895ZM92.9125 183.49H94.7165C95.7725 183.49 96.3555 183.083 96.3555 182.247C96.3555 181.4 95.7725 180.993 94.7165 180.993H92.9125V183.49ZM92.9125 184.392V187.109H94.9915C96.0475 187.109 96.6195 186.559 96.6195 185.745C96.6195 184.942 96.0475 184.392 94.9915 184.392H92.9125ZM102.291 184.689V188H101.235V180.102H104.249C105.921 180.102 106.988 180.883 106.988 182.39C106.988 183.875 105.921 184.689 104.249 184.689H102.291ZM102.291 183.776H104.194C105.316 183.776 105.943 183.281 105.943 182.39C105.943 181.499 105.316 181.015 104.194 181.015H102.291V183.776ZM109.303 188.099C108.258 188.099 107.411 187.483 107.411 186.449C107.411 185.305 108.302 184.832 109.589 184.568L110.986 184.282V184.04C110.986 183.38 110.623 183.006 109.853 183.006C109.127 183.006 108.698 183.347 108.522 183.985L107.587 183.743C107.862 182.808 108.709 182.137 109.886 182.137C111.173 182.137 111.965 182.764 111.965 183.996V186.801C111.965 187.175 112.196 187.296 112.581 187.208V188C111.701 188.11 111.195 187.901 111.074 187.351C110.722 187.802 110.084 188.099 109.303 188.099ZM110.986 186.042V185.052L109.864 185.294C108.984 185.47 108.39 185.712 108.39 186.405C108.39 186.966 108.797 187.296 109.424 187.296C110.271 187.296 110.986 186.779 110.986 186.042ZM115.722 188.627C115.392 189.496 114.941 190.046 113.94 190.046C113.698 190.046 113.577 190.035 113.401 190.002V189.144C113.588 189.188 113.709 189.199 113.874 189.199C114.303 189.199 114.534 189.045 114.765 188.473L115.04 187.791L112.906 182.247H113.951L115.568 186.647L117.163 182.247H118.197L115.722 188.627ZM120.153 184.557V188H119.163V182.247H120.153V183.028C120.461 182.555 121.011 182.137 121.814 182.137C122.584 182.137 123.123 182.522 123.409 183.116C123.728 182.643 124.344 182.137 125.246 182.137C126.434 182.137 127.149 182.984 127.149 184.205V188H126.159V184.469C126.159 183.666 125.829 183.061 125.015 183.061C124.355 183.061 123.651 183.622 123.651 184.557V188H122.661V184.469C122.661 183.666 122.331 183.061 121.517 183.061C120.857 183.061 120.153 183.622 120.153 184.557ZM131.044 188.121C129.449 188.121 128.349 186.9 128.349 185.129C128.349 183.413 129.438 182.137 131 182.137C132.606 182.137 133.453 183.358 133.453 184.953V185.283H129.295C129.35 186.493 130.043 187.263 131.044 187.263C131.814 187.263 132.364 186.845 132.54 186.163L133.409 186.471C133.057 187.494 132.188 188.121 131.044 188.121ZM130.989 182.984C130.153 182.984 129.526 183.545 129.35 184.524H132.452C132.43 183.71 131.99 182.984 130.989 182.984ZM134.685 188V182.247H135.675V183.028C136.005 182.555 136.577 182.137 137.391 182.137C138.612 182.137 139.305 182.984 139.305 184.205V188H138.315V184.469C138.315 183.666 137.974 183.061 137.116 183.061C136.401 183.061 135.675 183.611 135.675 184.568V188H134.685ZM141.048 186.625V183.094H140.157V182.247H141.048V180.564H142.027V182.247H143.336V183.094H142.027V186.471C142.027 187.076 142.324 187.186 142.83 187.186C143.061 187.186 143.226 187.175 143.457 187.12V187.967C143.204 188.022 142.918 188.055 142.588 188.055C141.609 188.055 141.048 187.725 141.048 186.625ZM143.995 186.779L144.765 186.218C145.073 186.889 145.777 187.296 146.525 187.296C147.196 187.296 147.79 187.01 147.79 186.383C147.79 185.756 147.24 185.668 146.294 185.47C145.348 185.261 144.358 185.052 144.358 183.875C144.358 182.852 145.249 182.137 146.47 182.137C147.504 182.137 148.351 182.643 148.692 183.325L147.988 183.886C147.691 183.314 147.152 182.951 146.426 182.951C145.766 182.951 145.326 183.281 145.326 183.798C145.326 184.337 145.832 184.436 146.635 184.612C147.625 184.843 148.758 185.041 148.758 186.295C148.758 187.395 147.757 188.121 146.525 188.121C145.48 188.121 144.435 187.67 143.995 186.779Z" fill="white"/>
<rect x="12" y="182" width="4" height="4" fill="white"/>
<path d="M29.346 208H28.114L26.211 202.214V208H24.693V200.102H26.937L28.763 205.723L30.578 200.102H32.789V208H31.249V202.214L29.346 208ZM39.4476 205.107C39.4476 206.911 38.2816 208.121 36.6096 208.121C34.9376 208.121 33.7716 206.911 33.7716 205.107C33.7716 203.314 34.9376 202.104 36.6096 202.104C38.2816 202.104 39.4476 203.314 39.4476 205.107ZM35.3006 205.107C35.3006 206.207 35.8066 206.845 36.6096 206.845C37.4126 206.845 37.9076 206.207 37.9076 205.107C37.9076 204.018 37.4126 203.38 36.6096 203.38C35.8066 203.38 35.3006 204.018 35.3006 205.107ZM40.386 208V202.214H41.926V202.808C42.245 202.434 42.773 202.104 43.51 202.104C44.72 202.104 45.457 202.929 45.457 204.183V208H43.917V204.623C43.917 203.974 43.653 203.512 42.993 203.512C42.454 203.512 41.926 203.897 41.926 204.656V208H40.386ZM46.8457 206.493V203.501H46.0757V202.214H46.8457V200.564H48.3637V202.214H49.5407V203.501H48.3637V206.174C48.3637 206.669 48.6387 206.735 49.0897 206.735C49.3097 206.735 49.4197 206.724 49.6177 206.702V207.978C49.3427 208.033 49.0127 208.066 48.6277 208.066C47.4617 208.066 46.8457 207.681 46.8457 206.493ZM53.9914 202.203V203.71C53.8154 203.688 53.6834 203.677 53.4964 203.677C52.6934 203.677 52.0774 204.172 52.0774 205.063V208H50.5374V202.214H52.0774V203.028C52.3304 202.522 52.9024 202.181 53.6174 202.181C53.7714 202.181 53.8814 202.192 53.9914 202.203ZM56.2569 208.099C55.1239 208.099 54.2879 207.417 54.2879 206.394C54.2879 205.239 55.2119 204.755 56.3779 204.546L57.8189 204.271V204.183C57.8189 203.688 57.5659 203.38 56.9279 203.38C56.3559 203.38 56.0589 203.633 55.9269 204.15L54.4639 203.875C54.7279 202.896 55.6079 202.104 56.9829 202.104C58.4459 202.104 59.3259 202.775 59.3259 204.117V206.482C59.3259 206.79 59.4579 206.889 59.7989 206.845V208C58.8199 208.143 58.2259 207.945 57.9729 207.461C57.5989 207.868 57.0159 208.099 56.2569 208.099ZM57.8189 205.943V205.349L56.6859 205.58C56.1799 205.679 55.8059 205.844 55.8059 206.306C55.8059 206.702 56.1029 206.933 56.5649 206.933C57.2139 206.933 57.8189 206.592 57.8189 205.943ZM65.2889 200.102H67.1369L70.0959 208H68.4569L67.8299 206.306H64.5739L63.9469 208H62.3409L65.2889 200.102ZM66.1909 201.895L65.0799 204.931H67.3129L66.1909 201.895ZM71.7166 205.107C71.7166 206.196 72.2556 206.823 73.0696 206.823C73.7076 206.823 74.0926 206.383 74.2356 205.789L75.5666 206.383C75.3026 207.329 74.4006 208.121 73.0586 208.121C71.3756 208.121 70.1876 206.9 70.1876 205.107C70.1876 203.325 71.3756 202.104 73.0586 202.104C74.3896 202.104 75.2696 202.874 75.5446 203.809L74.2356 204.425C74.0926 203.831 73.7076 203.391 73.0696 203.391C72.2556 203.391 71.7166 204.029 71.7166 205.107ZM77.4959 205.107C77.4959 206.196 78.0349 206.823 78.8489 206.823C79.4869 206.823 79.8719 206.383 80.0149 205.789L81.3459 206.383C81.0819 207.329 80.1799 208.121 78.8379 208.121C77.1549 208.121 75.9669 206.9 75.9669 205.107C75.9669 203.325 77.1549 202.104 78.8379 202.104C80.1689 202.104 81.0489 202.874 81.3239 203.809L80.0149 204.425C79.8719 203.831 79.4869 203.391 78.8489 203.391C78.0349 203.391 77.4959 204.029 77.4959 205.107ZM87.4222 205.107C87.4222 206.911 86.2562 208.121 84.5842 208.121C82.9122 208.121 81.7462 206.911 81.7462 205.107C81.7462 203.314 82.9122 202.104 84.5842 202.104C86.2562 202.104 87.4222 203.314 87.4222 205.107ZM83.2752 205.107C83.2752 206.207 83.7812 206.845 84.5842 206.845C85.3872 206.845 85.8822 206.207 85.8822 205.107C85.8822 204.018 85.3872 203.38 84.5842 203.38C83.7812 203.38 83.2752 204.018 83.2752 205.107ZM93.3877 202.214V208H91.8477V207.406C91.5287 207.78 91.0227 208.121 90.2857 208.121C89.0867 208.121 88.3167 207.296 88.3167 206.042V202.214H89.8567V205.701C89.8567 206.339 90.1427 206.757 90.7807 206.757C91.3197 206.757 91.8477 206.361 91.8477 205.613V202.214H93.3877ZM94.6663 208V202.214H96.2063V202.808C96.5253 202.434 97.0533 202.104 97.7903 202.104C99.0003 202.104 99.7373 202.929 99.7373 204.183V208H98.1973V204.623C98.1973 203.974 97.9333 203.512 97.2733 203.512C96.7343 203.512 96.2063 203.897 96.2063 204.656V208H94.6663ZM101.126 206.493V203.501H100.356V202.214H101.126V200.564H102.644V202.214H103.821V203.501H102.644V206.174C102.644 206.669 102.919 206.735 103.37 206.735C103.59 206.735 103.7 206.724 103.898 206.702V207.978C103.623 208.033 103.293 208.066 102.908 208.066C101.742 208.066 101.126 207.681 101.126 206.493ZM104.246 207.021L105.203 206.042C105.599 206.581 106.303 206.922 106.952 206.922C107.469 206.922 107.92 206.746 107.92 206.328C107.92 205.888 107.491 205.833 106.567 205.657C105.632 205.47 104.598 205.228 104.598 203.985C104.598 202.874 105.577 202.104 106.963 202.104C107.986 202.104 108.899 202.522 109.35 203.105L108.47 204.073C108.085 203.578 107.524 203.303 106.919 203.303C106.435 203.303 106.116 203.512 106.116 203.831C106.116 204.205 106.501 204.271 107.216 204.414C108.228 204.623 109.427 204.854 109.427 206.163C109.427 207.373 108.305 208.121 106.919 208.121C105.874 208.121 104.774 207.736 104.246 207.021Z" fill="white"/>
<rect x="12" y="202" width="4" height="4" fill="white"/>
<path d="M29.346 228H28.114L26.211 222.214V228H24.693V220.102H26.937L28.763 225.723L30.578 220.102H32.789V228H31.249V222.214L29.346 228ZM39.4476 225.107C39.4476 226.911 38.2816 228.121 36.6096 228.121C34.9376 228.121 33.7716 226.911 33.7716 225.107C33.7716 223.314 34.9376 222.104 36.6096 222.104C38.2816 222.104 39.4476 223.314 39.4476 225.107ZM35.3006 225.107C35.3006 226.207 35.8066 226.845 36.6096 226.845C37.4126 226.845 37.9076 226.207 37.9076 225.107C37.9076 224.018 37.4126 223.38 36.6096 223.38C35.8066 223.38 35.3006 224.018 35.3006 225.107ZM40.386 228V222.214H41.926V222.808C42.245 222.434 42.773 222.104 43.51 222.104C44.72 222.104 45.457 222.929 45.457 224.183V228H43.917V224.623C43.917 223.974 43.653 223.512 42.993 223.512C42.454 223.512 41.926 223.897 41.926 224.656V228H40.386ZM46.8457 226.493V223.501H46.0757V222.214H46.8457V220.564H48.3637V222.214H49.5407V223.501H48.3637V226.174C48.3637 226.669 48.6387 226.735 49.0897 226.735C49.3097 226.735 49.4197 226.724 49.6177 226.702V227.978C49.3427 228.033 49.0127 228.066 48.6277 228.066C47.4617 228.066 46.8457 227.681 46.8457 226.493ZM53.9914 222.203V223.71C53.8154 223.688 53.6834 223.677 53.4964 223.677C52.6934 223.677 52.0774 224.172 52.0774 225.063V228H50.5374V222.214H52.0774V223.028C52.3304 222.522 52.9024 222.181 53.6174 222.181C53.7714 222.181 53.8814 222.192 53.9914 222.203ZM56.2569 228.099C55.1239 228.099 54.2879 227.417 54.2879 226.394C54.2879 225.239 55.2119 224.755 56.3779 224.546L57.8189 224.271V224.183C57.8189 223.688 57.5659 223.38 56.9279 223.38C56.3559 223.38 56.0589 223.633 55.9269 224.15L54.4639 223.875C54.7279 222.896 55.6079 222.104 56.9829 222.104C58.4459 222.104 59.3259 222.775 59.3259 224.117V226.482C59.3259 226.79 59.4579 226.889 59.7989 226.845V228C58.8199 228.143 58.2259 227.945 57.9729 227.461C57.5989 227.868 57.0159 228.099 56.2569 228.099ZM57.8189 225.943V225.349L56.6859 225.58C56.1799 225.679 55.8059 225.844 55.8059 226.306C55.8059 226.702 56.1029 226.933 56.5649 226.933C57.2139 226.933 57.8189 226.592 57.8189 225.943ZM62.1539 226.559L63.2649 225.481C63.8479 226.306 64.6949 226.768 65.5639 226.768C66.3889 226.768 66.9939 226.405 66.9939 225.734C66.9939 225.008 66.2459 224.909 65.0579 224.645C63.8809 224.37 62.6049 223.996 62.6049 222.434C62.6049 220.927 63.9029 219.981 65.5419 219.981C66.9059 219.981 67.9729 220.586 68.5229 221.378L67.4559 222.423C66.9939 221.774 66.3779 221.334 65.4979 221.334C64.7279 221.334 64.1999 221.708 64.1999 222.28C64.1999 222.896 64.7719 223.017 65.8059 223.248C67.0599 223.523 68.5999 223.842 68.5999 225.569C68.5999 227.164 67.1919 228.121 65.5089 228.121C64.1779 228.121 62.7919 227.516 62.1539 226.559ZM69.6836 226.493V223.501H68.9136V222.214H69.6836V220.564H71.2016V222.214H72.3786V223.501H71.2016V226.174C71.2016 226.669 71.4766 226.735 71.9276 226.735C72.1476 226.735 72.2576 226.724 72.4556 226.702V227.978C72.1806 228.033 71.8506 228.066 71.4656 228.066C70.2996 228.066 69.6836 227.681 69.6836 226.493ZM78.6673 225.107C78.6673 226.911 77.5013 228.121 75.8293 228.121C74.1573 228.121 72.9913 226.911 72.9913 225.107C72.9913 223.314 74.1573 222.104 75.8293 222.104C77.5013 222.104 78.6673 223.314 78.6673 225.107ZM74.5203 225.107C74.5203 226.207 75.0263 226.845 75.8293 226.845C76.6323 226.845 77.1273 226.207 77.1273 225.107C77.1273 224.018 76.6323 223.38 75.8293 223.38C75.0263 223.38 74.5203 224.018 74.5203 225.107ZM83.0598 222.203V223.71C82.8838 223.688 82.7518 223.677 82.5648 223.677C81.7618 223.677 81.1458 224.172 81.1458 225.063V228H79.6058V222.214H81.1458V223.028C81.3988 222.522 81.9708 222.181 82.6858 222.181C82.8398 222.181 82.9498 222.192 83.0598 222.203ZM86.1856 228.121C84.4806 228.121 83.3146 226.9 83.3146 225.107C83.3146 223.402 84.4916 222.104 86.1306 222.104C87.8466 222.104 88.7706 223.38 88.7706 224.997V225.448H84.7886C84.8986 226.328 85.4376 226.856 86.1966 226.856C86.7906 226.856 87.2636 226.57 87.4396 226.009L88.7376 226.471C88.3196 227.527 87.3406 228.121 86.1856 228.121ZM86.1196 223.336C85.5036 223.336 85.0306 223.699 84.8436 224.403H87.2416C87.2306 223.831 86.8676 223.336 86.1196 223.336ZM94.6776 220.036C95.1029 220.036 95.4806 220.102 95.8106 220.234C96.1406 220.366 96.4009 220.56 96.5916 220.817C96.7822 221.066 96.8776 221.374 96.8776 221.741C96.8776 222.247 96.7272 222.672 96.4266 223.017C96.1259 223.362 95.7519 223.662 95.3046 223.919L96.8336 225.404C96.9802 225.155 97.1086 224.894 97.2186 224.623C97.3286 224.344 97.4202 224.066 97.4936 223.787H99.1986C99.0886 224.198 98.9272 224.638 98.7146 225.107C98.5019 225.576 98.2306 226.016 97.9006 226.427L99.5176 228H97.4936L96.8776 227.395C96.7162 227.505 96.5476 227.604 96.3716 227.692C96.1956 227.78 96.0122 227.857 95.8216 227.923C95.6309 227.982 95.4292 228.026 95.2166 228.055C95.0039 228.092 94.7839 228.11 94.5566 228.11C93.9626 228.11 93.4529 228.018 93.0276 227.835C92.6022 227.644 92.2759 227.38 92.0486 227.043C91.8212 226.706 91.7076 226.317 91.7076 225.877C91.7076 225.503 91.7626 225.184 91.8726 224.92C91.9899 224.649 92.1549 224.414 92.3676 224.216C92.5876 224.011 92.8479 223.824 93.1486 223.655C92.9579 223.435 92.8039 223.23 92.6866 223.039C92.5766 222.841 92.4959 222.647 92.4446 222.456C92.4006 222.265 92.3786 222.064 92.3786 221.851C92.3786 221.477 92.4739 221.154 92.6646 220.883C92.8626 220.612 93.1339 220.403 93.4786 220.256C93.8306 220.109 94.2302 220.036 94.6776 220.036ZM94.1056 224.634C93.9662 224.737 93.8452 224.843 93.7426 224.953C93.6472 225.063 93.5702 225.18 93.5116 225.305C93.4602 225.43 93.4346 225.569 93.4346 225.723C93.4346 226.038 93.5519 226.288 93.7866 226.471C94.0212 226.647 94.3146 226.735 94.6666 226.735C94.9012 226.735 95.1212 226.706 95.3266 226.647C95.5319 226.588 95.7189 226.508 95.8876 226.405L94.1056 224.634ZM94.6666 221.301C94.4832 221.301 94.3072 221.349 94.1386 221.444C93.9772 221.532 93.8966 221.704 93.8966 221.961C93.8966 222.144 93.9406 222.32 94.0286 222.489C94.1239 222.658 94.2486 222.83 94.4026 223.006C94.7106 222.837 94.9452 222.669 95.1066 222.5C95.2752 222.331 95.3596 222.137 95.3596 221.917C95.3596 221.697 95.2862 221.539 95.1396 221.444C94.9929 221.349 94.8352 221.301 94.6666 221.301ZM101.642 226.559L102.753 225.481C103.336 226.306 104.183 226.768 105.052 226.768C105.877 226.768 106.482 226.405 106.482 225.734C106.482 225.008 105.734 224.909 104.546 224.645C103.369 224.37 102.093 223.996 102.093 222.434C102.093 220.927 103.391 219.981 105.03 219.981C106.394 219.981 107.461 220.586 108.011 221.378L106.944 222.423C106.482 221.774 105.866 221.334 104.986 221.334C104.216 221.334 103.688 221.708 103.688 222.28C103.688 222.896 104.26 223.017 105.294 223.248C106.548 223.523 108.088 223.842 108.088 225.569C108.088 227.164 106.68 228.121 104.997 228.121C103.666 228.121 102.28 227.516 101.642 226.559ZM108.932 228V220.102H110.472V222.808C110.791 222.434 111.319 222.104 112.056 222.104C113.266 222.104 114.003 222.929 114.003 224.183V228H112.463V224.623C112.463 223.974 112.199 223.512 111.539 223.512C111 223.512 110.472 223.897 110.472 224.656V228H108.932ZM120.573 225.107C120.573 226.911 119.407 228.121 117.735 228.121C116.063 228.121 114.897 226.911 114.897 225.107C114.897 223.314 116.063 222.104 117.735 222.104C119.407 222.104 120.573 223.314 120.573 225.107ZM116.426 225.107C116.426 226.207 116.932 226.845 117.735 226.845C118.538 226.845 119.033 226.207 119.033 225.107C119.033 224.018 118.538 223.38 117.735 223.38C116.932 223.38 116.426 224.018 116.426 225.107ZM124.668 228.121C123.942 228.121 123.392 227.835 123.051 227.406V229.958H121.511V222.214H123.051V222.808C123.392 222.39 123.942 222.104 124.668 222.104C126.263 222.104 127.187 223.468 127.187 225.107C127.187 226.757 126.263 228.121 124.668 228.121ZM123.018 224.953V225.272C123.018 226.251 123.568 226.801 124.305 226.801C125.174 226.801 125.636 226.108 125.636 225.107C125.636 224.117 125.174 223.424 124.305 223.424C123.568 223.424 123.018 223.963 123.018 224.953ZM131.264 228.121C130.538 228.121 129.988 227.835 129.647 227.406V229.958H128.107V222.214H129.647V222.808C129.988 222.39 130.538 222.104 131.264 222.104C132.859 222.104 133.783 223.468 133.783 225.107C133.783 226.757 132.859 228.121 131.264 228.121ZM129.614 224.953V225.272C129.614 226.251 130.164 226.801 130.901 226.801C131.77 226.801 132.232 226.108 132.232 225.107C132.232 224.117 131.77 223.424 130.901 223.424C130.164 223.424 129.614 223.963 129.614 224.953ZM134.68 221.532V220.102H136.253V221.532H134.68ZM136.242 222.214V228H134.702V222.214H136.242ZM137.506 228V222.214H139.046V222.808C139.365 222.434 139.893 222.104 140.63 222.104C141.84 222.104 142.577 222.929 142.577 224.183V228H141.037V224.623C141.037 223.974 140.773 223.512 140.113 223.512C139.574 223.512 139.046 223.897 139.046 224.656V228H137.506ZM149.147 227.362C149.147 229.111 147.937 230.079 146.221 230.079C144.824 230.079 143.856 229.507 143.526 228.374L144.967 227.956C145.132 228.528 145.583 228.88 146.243 228.88C147.046 228.88 147.607 228.484 147.607 227.527V227.131C147.31 227.527 146.727 227.835 146.001 227.835C144.417 227.835 143.493 226.548 143.493 224.964C143.493 223.391 144.417 222.104 146.001 222.104C146.716 222.104 147.31 222.412 147.607 222.808V222.214H149.147V227.362ZM147.618 224.898C147.618 223.941 147.101 223.402 146.364 223.402C145.528 223.402 145.055 223.996 145.055 224.964C145.055 225.932 145.528 226.537 146.364 226.537C147.101 226.537 147.618 225.998 147.618 225.052V224.898ZM27.333 236.003V236.883C27.168 236.861 27.069 236.861 26.904 236.861C26.321 236.861 26.002 237.114 26.002 237.851V238.247H27.278V239.094H26.002V244H25.012V239.094H24.143V238.247H25.012V237.785C25.012 236.663 25.628 235.981 26.805 235.981C27.003 235.981 27.113 235.992 27.333 236.003ZM30.4648 244.121C28.8698 244.121 27.7698 242.9 27.7698 241.129C27.7698 239.413 28.8588 238.137 30.4208 238.137C32.0268 238.137 32.8738 239.358 32.8738 240.953V241.283H28.7158C28.7708 242.493 29.4638 243.263 30.4648 243.263C31.2348 243.263 31.7848 242.845 31.9608 242.163L32.8298 242.471C32.4778 243.494 31.6088 244.121 30.4648 244.121ZM30.4098 238.984C29.5738 238.984 28.9468 239.545 28.7708 240.524H31.8728C31.8508 239.71 31.4108 238.984 30.4098 238.984ZM35.6117 244.099C34.5667 244.099 33.7197 243.483 33.7197 242.449C33.7197 241.305 34.6107 240.832 35.8977 240.568L37.2947 240.282V240.04C37.2947 239.38 36.9317 239.006 36.1617 239.006C35.4357 239.006 35.0067 239.347 34.8307 239.985L33.8957 239.743C34.1707 238.808 35.0177 238.137 36.1947 238.137C37.4817 238.137 38.2737 238.764 38.2737 239.996V242.801C38.2737 243.175 38.5047 243.296 38.8897 243.208V244C38.0097 244.11 37.5037 243.901 37.3827 243.351C37.0307 243.802 36.3927 244.099 35.6117 244.099ZM37.2947 242.042V241.052L36.1727 241.294C35.2927 241.47 34.6987 241.712 34.6987 242.405C34.6987 242.966 35.1057 243.296 35.7327 243.296C36.5797 243.296 37.2947 242.779 37.2947 242.042ZM40.1147 242.625V239.094H39.2237V238.247H40.1147V236.564H41.0937V238.247H42.4027V239.094H41.0937V242.471C41.0937 243.076 41.3907 243.186 41.8967 243.186C42.1277 243.186 42.2927 243.175 42.5237 243.12V243.967C42.2707 244.022 41.9847 244.055 41.6547 244.055C40.6757 244.055 40.1147 243.725 40.1147 242.625ZM48.2103 238.247V244H47.2203V243.208C46.8903 243.692 46.3293 244.121 45.5153 244.121C44.2833 244.121 43.5903 243.274 43.5903 242.053V238.247H44.5803V241.844C44.5803 242.658 44.9323 243.208 45.7793 243.208C46.4943 243.208 47.2203 242.669 47.2203 241.712V238.247H48.2103ZM52.8353 238.225V239.226C52.6703 239.193 52.5383 239.182 52.3513 239.182C51.5153 239.182 50.8443 239.842 50.8443 240.854V244H49.8543V238.247H50.8443V239.226C51.0973 238.643 51.6583 238.203 52.4393 238.203C52.5933 238.203 52.7363 238.214 52.8353 238.225ZM55.9883 244.121C54.3933 244.121 53.2933 242.9 53.2933 241.129C53.2933 239.413 54.3823 238.137 55.9443 238.137C57.5503 238.137 58.3973 239.358 58.3973 240.953V241.283H54.2393C54.2943 242.493 54.9873 243.263 55.9883 243.263C56.7583 243.263 57.3083 242.845 57.4843 242.163L58.3533 242.471C58.0013 243.494 57.1323 244.121 55.9883 244.121ZM55.9333 238.984C55.0973 238.984 54.4703 239.545 54.2943 240.524H57.3963C57.3743 239.71 56.9343 238.984 55.9333 238.984ZM58.9917 242.779L59.7617 242.218C60.0697 242.889 60.7737 243.296 61.5217 243.296C62.1927 243.296 62.7867 243.01 62.7867 242.383C62.7867 241.756 62.2367 241.668 61.2907 241.47C60.3447 241.261 59.3547 241.052 59.3547 239.875C59.3547 238.852 60.2457 238.137 61.4667 238.137C62.5007 238.137 63.3477 238.643 63.6887 239.325L62.9847 239.886C62.6877 239.314 62.1487 238.951 61.4227 238.951C60.7627 238.951 60.3227 239.281 60.3227 239.798C60.3227 240.337 60.8287 240.436 61.6317 240.612C62.6217 240.843 63.7547 241.041 63.7547 242.295C63.7547 243.395 62.7537 244.121 61.5217 244.121C60.4767 244.121 59.4317 243.67 58.9917 242.779Z" fill="white"/>
<rect x="12" y="222" width="4" height="4" fill="white"/>
<path d="M30.743 257.499H28.268V264H26.651V257.499H24.165V256.102H30.743V257.499ZM31.9581 264.099C30.8251 264.099 29.9891 263.417 29.9891 262.394C29.9891 261.239 30.9131 260.755 32.0791 260.546L33.5201 260.271V260.183C33.5201 259.688 33.2671 259.38 32.6291 259.38C32.0571 259.38 31.7601 259.633 31.6281 260.15L30.1651 259.875C30.4291 258.896 31.3091 258.104 32.6841 258.104C34.1471 258.104 35.0271 258.775 35.0271 260.117V262.482C35.0271 262.79 35.1591 262.889 35.5001 262.845V264C34.5211 264.143 33.9271 263.945 33.6741 263.461C33.3001 263.868 32.7171 264.099 31.9581 264.099ZM33.5201 261.943V261.349L32.3871 261.58C31.8811 261.679 31.5071 261.844 31.5071 262.306C31.5071 262.702 31.8041 262.933 32.2661 262.933C32.9151 262.933 33.5201 262.592 33.5201 261.943ZM39.5255 264.121C38.7995 264.121 38.2495 263.835 37.9085 263.406V265.958H36.3685V258.214H37.9085V258.808C38.2495 258.39 38.7995 258.104 39.5255 258.104C41.1205 258.104 42.0445 259.468 42.0445 261.107C42.0445 262.757 41.1205 264.121 39.5255 264.121ZM37.8755 260.953V261.272C37.8755 262.251 38.4255 262.801 39.1625 262.801C40.0315 262.801 40.4935 262.108 40.4935 261.107C40.4935 260.117 40.0315 259.424 39.1625 259.424C38.4255 259.424 37.8755 259.963 37.8755 260.953ZM47.9598 256.036C48.3851 256.036 48.7628 256.102 49.0928 256.234C49.4228 256.366 49.6831 256.56 49.8738 256.817C50.0645 257.066 50.1598 257.374 50.1598 257.741C50.1598 258.247 50.0095 258.672 49.7088 259.017C49.4081 259.362 49.0341 259.662 48.5868 259.919L50.1158 261.404C50.2625 261.155 50.3908 260.894 50.5008 260.623C50.6108 260.344 50.7025 260.066 50.7758 259.787H52.4808C52.3708 260.198 52.2095 260.638 51.9968 261.107C51.7841 261.576 51.5128 262.016 51.1828 262.427L52.7998 264H50.7758L50.1598 263.395C49.9985 263.505 49.8298 263.604 49.6538 263.692C49.4778 263.78 49.2945 263.857 49.1038 263.923C48.9131 263.982 48.7115 264.026 48.4988 264.055C48.2861 264.092 48.0661 264.11 47.8388 264.11C47.2448 264.11 46.7351 264.018 46.3098 263.835C45.8845 263.644 45.5581 263.38 45.3308 263.043C45.1035 262.706 44.9898 262.317 44.9898 261.877C44.9898 261.503 45.0448 261.184 45.1548 260.92C45.2721 260.649 45.4371 260.414 45.6498 260.216C45.8698 260.011 46.1301 259.824 46.4308 259.655C46.2401 259.435 46.0861 259.23 45.9688 259.039C45.8588 258.841 45.7781 258.647 45.7268 258.456C45.6828 258.265 45.6608 258.064 45.6608 257.851C45.6608 257.477 45.7561 257.154 45.9468 256.883C46.1448 256.612 46.4161 256.403 46.7608 256.256C47.1128 256.109 47.5125 256.036 47.9598 256.036ZM47.3878 260.634C47.2485 260.737 47.1275 260.843 47.0248 260.953C46.9295 261.063 46.8525 261.18 46.7938 261.305C46.7425 261.43 46.7168 261.569 46.7168 261.723C46.7168 262.038 46.8341 262.288 47.0688 262.471C47.3035 262.647 47.5968 262.735 47.9488 262.735C48.1835 262.735 48.4035 262.706 48.6088 262.647C48.8141 262.588 49.0011 262.508 49.1698 262.405L47.3878 260.634ZM47.9488 257.301C47.7655 257.301 47.5895 257.349 47.4208 257.444C47.2595 257.532 47.1788 257.704 47.1788 257.961C47.1788 258.144 47.2228 258.32 47.3108 258.489C47.4061 258.658 47.5308 258.83 47.6848 259.006C47.9928 258.837 48.2275 258.669 48.3888 258.5C48.5575 258.331 48.6418 258.137 48.6418 257.917C48.6418 257.697 48.5685 257.539 48.4218 257.444C48.2751 257.349 48.1175 257.301 47.9488 257.301ZM57.3334 261.096V264H55.7164V256.102H58.9504C60.7654 256.102 61.8984 256.96 61.8984 258.599C61.8984 260.227 60.7654 261.096 58.9504 261.096H57.3334ZM57.3334 259.721H58.8624C59.8084 259.721 60.2924 259.303 60.2924 258.599C60.2924 257.884 59.8084 257.477 58.8624 257.477H57.3334V259.721ZM64.0665 264.099C62.9335 264.099 62.0975 263.417 62.0975 262.394C62.0975 261.239 63.0215 260.755 64.1875 260.546L65.6285 260.271V260.183C65.6285 259.688 65.3755 259.38 64.7375 259.38C64.1655 259.38 63.8685 259.633 63.7365 260.15L62.2735 259.875C62.5375 258.896 63.4175 258.104 64.7925 258.104C66.2555 258.104 67.1355 258.775 67.1355 260.117V262.482C67.1355 262.79 67.2675 262.889 67.6085 262.845V264C66.6295 264.143 66.0355 263.945 65.7825 263.461C65.4085 263.868 64.8255 264.099 64.0665 264.099ZM65.6285 261.943V261.349L64.4955 261.58C63.9895 261.679 63.6155 261.844 63.6155 262.306C63.6155 262.702 63.9125 262.933 64.3745 262.933C65.0235 262.933 65.6285 262.592 65.6285 261.943ZM71.1317 264.33C70.7577 265.353 70.2297 266.013 68.9537 266.013C68.6567 266.013 68.5467 266.002 68.3487 265.98V264.737C68.5137 264.748 68.6127 264.759 68.7887 264.759C69.1957 264.759 69.4157 264.649 69.5807 264.231L69.7677 263.769L67.6887 258.214H69.2837L70.5927 262.02L71.8687 258.214H73.4197L71.1317 264.33ZM77.4852 261.107C77.4852 262.196 78.0242 262.823 78.8382 262.823C79.4762 262.823 79.8612 262.383 80.0042 261.789L81.3352 262.383C81.0712 263.329 80.1692 264.121 78.8272 264.121C77.1442 264.121 75.9562 262.9 75.9562 261.107C75.9562 259.325 77.1442 258.104 78.8272 258.104C80.1582 258.104 81.0382 258.874 81.3132 259.809L80.0042 260.425C79.8612 259.831 79.4762 259.391 78.8382 259.391C78.0242 259.391 77.4852 260.029 77.4852 261.107ZM83.7354 264.099C82.6024 264.099 81.7664 263.417 81.7664 262.394C81.7664 261.239 82.6904 260.755 83.8564 260.546L85.2974 260.271V260.183C85.2974 259.688 85.0444 259.38 84.4064 259.38C83.8344 259.38 83.5374 259.633 83.4054 260.15L81.9424 259.875C82.2064 258.896 83.0864 258.104 84.4614 258.104C85.9244 258.104 86.8044 258.775 86.8044 260.117V262.482C86.8044 262.79 86.9364 262.889 87.2774 262.845V264C86.2984 264.143 85.7044 263.945 85.4514 263.461C85.0774 263.868 84.4944 264.099 83.7354 264.099ZM85.2974 261.943V261.349L84.1644 261.58C83.6584 261.679 83.2844 261.844 83.2844 262.306C83.2844 262.702 83.5814 262.933 84.0434 262.933C84.6924 262.933 85.2974 262.592 85.2974 261.943ZM91.3028 264.121C90.5768 264.121 90.0268 263.835 89.6858 263.406V265.958H88.1458V258.214H89.6858V258.808C90.0268 258.39 90.5768 258.104 91.3028 258.104C92.8978 258.104 93.8218 259.468 93.8218 261.107C93.8218 262.757 92.8978 264.121 91.3028 264.121ZM89.6528 260.953V261.272C89.6528 262.251 90.2028 262.801 90.9398 262.801C91.8088 262.801 92.2708 262.108 92.2708 261.107C92.2708 260.117 91.8088 259.424 90.9398 259.424C90.2028 259.424 89.6528 259.963 89.6528 260.953ZM96.3145 264.099C95.1815 264.099 94.3455 263.417 94.3455 262.394C94.3455 261.239 95.2695 260.755 96.4355 260.546L97.8765 260.271V260.183C97.8765 259.688 97.6235 259.38 96.9855 259.38C96.4135 259.38 96.1165 259.633 95.9845 260.15L94.5215 259.875C94.7855 258.896 95.6655 258.104 97.0405 258.104C98.5035 258.104 99.3835 258.775 99.3835 260.117V262.482C99.3835 262.79 99.5155 262.889 99.8565 262.845V264C98.8775 264.143 98.2835 263.945 98.0305 263.461C97.6565 263.868 97.0735 264.099 96.3145 264.099ZM97.8765 261.943V261.349L96.7435 261.58C96.2375 261.679 95.8635 261.844 95.8635 262.306C95.8635 262.702 96.1605 262.933 96.6225 262.933C97.2715 262.933 97.8765 262.592 97.8765 261.943ZM103.882 264.121C103.156 264.121 102.606 263.835 102.265 263.406V264H100.725V256.102H102.265V258.808C102.606 258.39 103.156 258.104 103.882 258.104C105.477 258.104 106.401 259.468 106.401 261.107C106.401 262.757 105.477 264.121 103.882 264.121ZM102.232 260.953V261.272C102.232 262.251 102.782 262.801 103.519 262.801C104.388 262.801 104.85 262.108 104.85 261.107C104.85 260.117 104.388 259.424 103.519 259.424C102.782 259.424 102.232 259.963 102.232 260.953ZM107.299 257.532V256.102H108.872V257.532H107.299ZM108.861 258.214V264H107.321V258.214H108.861ZM111.664 256.102V264H110.124V256.102H111.664ZM112.906 257.532V256.102H114.479V257.532H112.906ZM114.468 258.214V264H112.928V258.214H114.468ZM115.886 262.493V259.501H115.116V258.214H115.886V256.564H117.404V258.214H118.581V259.501H117.404V262.174C117.404 262.669 117.679 262.735 118.13 262.735C118.35 262.735 118.46 262.724 118.658 262.702V263.978C118.383 264.033 118.053 264.066 117.668 264.066C116.502 264.066 115.886 263.681 115.886 262.493ZM122.393 264.33C122.019 265.353 121.491 266.013 120.215 266.013C119.918 266.013 119.808 266.002 119.61 265.98V264.737C119.775 264.748 119.874 264.759 120.05 264.759C120.457 264.759 120.677 264.649 120.842 264.231L121.029 263.769L118.95 258.214H120.545L121.854 262.02L123.13 258.214H124.681L122.393 264.33Z" fill="white"/>
<rect x="12" y="258" width="4" height="4" fill="white"/>
<path d="M26.31 276.102V279.688L29.357 276.102H31.249L28.29 279.479L31.436 284H29.544L27.223 280.7L26.31 281.734V284H24.693V276.102H26.31ZM34.7958 279.303L36.7208 276.102H38.4368L35.5878 280.788V284H33.9708V280.788L31.1108 276.102H32.8708L34.7958 279.303ZM39.6213 280.051C39.6213 281.657 40.4683 282.702 41.6783 282.702C42.5363 282.702 43.1633 282.163 43.3833 281.283L44.9013 281.789C44.4393 283.219 43.3173 284.121 41.6783 284.121C39.5443 284.121 37.9933 282.438 37.9933 280.051C37.9933 277.664 39.5443 275.981 41.6783 275.981C43.3173 275.981 44.4393 276.883 44.9013 278.313L43.3833 278.819C43.1633 277.939 42.5363 277.4 41.6783 277.4C40.4683 277.4 39.6213 278.445 39.6213 280.051ZM52.6458 284H51.4138L49.5108 278.214V284H47.9928V276.102H50.2368L52.0628 281.723L53.8778 276.102H56.0888V284H54.5488V278.214L52.6458 284ZM62.7474 281.107C62.7474 282.911 61.5814 284.121 59.9094 284.121C58.2374 284.121 57.0714 282.911 57.0714 281.107C57.0714 279.314 58.2374 278.104 59.9094 278.104C61.5814 278.104 62.7474 279.314 62.7474 281.107ZM58.6004 281.107C58.6004 282.207 59.1064 282.845 59.9094 282.845C60.7124 282.845 61.2074 282.207 61.2074 281.107C61.2074 280.018 60.7124 279.38 59.9094 279.38C59.1064 279.38 58.6004 280.018 58.6004 281.107ZM65.8636 284.121C64.2686 284.121 63.3446 282.757 63.3446 281.107C63.3446 279.468 64.2686 278.104 65.8636 278.104C66.5896 278.104 67.1396 278.39 67.4806 278.808V276.102H69.0206V284H67.4806V283.406C67.1396 283.835 66.5896 284.121 65.8636 284.121ZM67.5136 280.953C67.5136 279.963 66.9636 279.424 66.2266 279.424C65.3576 279.424 64.8956 280.117 64.8956 281.107C64.8956 282.108 65.3576 282.801 66.2266 282.801C66.9636 282.801 67.5136 282.251 67.5136 281.272V280.953ZM75.3193 278.214V284H73.7793V283.406C73.4603 283.78 72.9543 284.121 72.2173 284.121C71.0183 284.121 70.2483 283.296 70.2483 282.042V278.214H71.7883V281.701C71.7883 282.339 72.0743 282.757 72.7123 282.757C73.2513 282.757 73.7793 282.361 73.7793 281.613V278.214H75.3193ZM78.138 276.102V284H76.598V276.102H78.138ZM81.9317 284.121C80.2267 284.121 79.0607 282.9 79.0607 281.107C79.0607 279.402 80.2377 278.104 81.8767 278.104C83.5927 278.104 84.5167 279.38 84.5167 280.997V281.448H80.5347C80.6447 282.328 81.1837 282.856 81.9427 282.856C82.5367 282.856 83.0097 282.57 83.1857 282.009L84.4837 282.471C84.0657 283.527 83.0867 284.121 81.9317 284.121ZM81.8657 279.336C81.2497 279.336 80.7767 279.699 80.5897 280.403H82.9877C82.9767 279.831 82.6137 279.336 81.8657 279.336Z" fill="white"/>
<rect x="12" y="278" width="4" height="4" fill="white"/>
<rect x="83.5" y="0.5" width="39" height="39" rx="19.5" fill="white"/>
<rect x="83.5" y="0.5" width="39" height="39" rx="19.5" stroke="#20336B"/>
<rect x="93" y="10" width="20" height="20" rx="4" fill="#20336B"/>
<path d="M102.505 23.2322L102.614 22.7379L103.358 22.6278L103.227 23.2322H102.505Z" fill="#00AFEF" stroke="#00AFEF"/>
<path d="M107.269 23.2222L107.507 22.0584L108.23 21.9729L107.939 23.2222H107.269Z" fill="#00AFEF" stroke="#00AFEF"/>
<mask id="path-25-inside-1_3183_30166" fill="white">
<path d="M97.1719 23.6686L99.0525 23.0332L98.9152 23.7215H97.1719V23.6686Z"/>
</mask>
<path d="M97.1719 23.6686L99.0525 23.0332L98.9152 23.7215H97.1719V23.6686Z" fill="#00AFEF"/>
<path d="M97.1719 23.6686L96.8518 22.7212L96.1719 22.9509V23.6686H97.1719ZM99.0525 23.0332L100.033 23.2289L100.372 21.532L98.7325 22.0858L99.0525 23.0332ZM98.9152 23.7215V24.7215H99.7353L99.8958 23.9172L98.9152 23.7215ZM97.1719 23.7215H96.1719V24.7215H97.1719V23.7215ZM97.4919 24.6159L99.3726 23.9806L98.7325 22.0858L96.8518 22.7212L97.4919 24.6159ZM98.0719 22.8375L97.9345 23.5258L99.8958 23.9172L100.033 23.2289L98.0719 22.8375ZM98.9152 22.7215H97.1719V24.7215H98.9152V22.7215ZM98.1719 23.7215V23.6686H96.1719V23.7215H98.1719Z" fill="#00AFEF" mask="url(#path-25-inside-1_3183_30166)"/>
<mask id="mask0_3183_30166" style="mask-type:luminance" maskUnits="userSpaceOnUse" x="97" y="15" width="13" height="9">
<path d="M108.886 21.4095C108.28 21.4737 107.685 21.5411 107.103 21.6118L107.661 18.9906C107.72 18.7322 107.75 18.4986 107.75 18.2899C107.75 17.545 107.299 17.1726 106.399 17.1726H105.047L104.011 22.0356C103.385 22.1335 102.784 22.2363 102.208 22.3438L103.308 17.1726H100.753C100.447 17.1726 100.264 17.3215 100.204 17.6192L99.0531 23.0626C98.344 23.2625 97.7155 23.4768 97.1797 23.7043L98.5703 17.1726C98.6691 16.7054 98.8372 16.3647 99.0748 16.1503C99.3124 15.9368 99.6836 15.8301 100.189 15.8301H106.859C107.681 15.8301 108.337 15.9942 108.827 16.3225C109.318 16.65 109.563 17.1569 109.563 17.8432C109.563 18.1314 109.543 18.3597 109.503 18.5283L108.886 21.4095Z" fill="white"/>
<path d="M108.886 21.4095C108.28 21.4737 107.685 21.5411 107.103 21.6118L107.661 18.9906C107.72 18.7322 107.75 18.4986 107.75 18.2899C107.75 17.545 107.299 17.1726 106.399 17.1726H105.047L104.011 22.0356C103.385 22.1335 102.784 22.2363 102.208 22.3438L103.308 17.1726H100.753C100.447 17.1726 100.264 17.3215 100.204 17.6192L99.0531 23.0626C98.344 23.2625 97.7155 23.4768 97.1797 23.7043L98.5703 17.1726C98.6691 16.7054 98.8372 16.3647 99.0748 16.1503C99.3124 15.9368 99.6836 15.8301 100.189 15.8301H106.859C107.681 15.8301 108.337 15.9942 108.827 16.3225C109.318 16.65 109.563 17.1569 109.563 17.8432C109.563 18.1314 109.543 18.3597 109.503 18.5283L108.886 21.4095Z" stroke="white"/>
</mask>
<g mask="url(#mask0_3183_30166)">
<path d="M149.588 29.0362H95.3828V13.9258H149.588V29.0362Z" fill="white"/>
<path d="M149.588 29.0362H95.3828V13.9258H149.588V29.0362Z" stroke="#00AFEF"/>
</g>
<line x1="102.5" y1="399" x2="102.5" y2="300" stroke="#E7E7E7" stroke-dasharray="4 4"/>
</svg>
