<svg width="206" height="162" viewBox="0 0 206 162" fill="none" xmlns="http://www.w3.org/2000/svg">
<line x1="102.5" y1="162" x2="102.5" y2="108" stroke="#E7E7E7" stroke-dasharray="4 4"/>
<rect y="24" width="206" height="84" rx="12" fill="#49D7C6"/>
<path d="M24.407 56.051C24.407 53.642 25.925 51.981 27.993 51.981C30.061 51.981 31.568 53.642 31.568 56.051C31.568 58.46 30.061 60.121 27.993 60.121C25.925 60.121 24.407 58.46 24.407 56.051ZM30.523 56.051C30.523 54.181 29.478 52.916 27.993 52.916C26.508 52.916 25.463 54.181 25.463 56.051C25.463 57.921 26.508 59.186 27.993 59.186C29.478 59.186 30.523 57.921 30.523 56.051ZM35.5784 60.121C34.7754 60.121 34.1374 59.736 33.7964 59.164V60H32.8064V52.102H33.7964V55.083C34.1374 54.522 34.7754 54.137 35.5784 54.137C37.1734 54.137 38.0864 55.49 38.0864 57.129C38.0864 58.757 37.1734 60.121 35.5784 60.121ZM33.7744 56.931V57.338C33.7744 58.658 34.5884 59.252 35.4024 59.252C36.4804 59.252 37.0854 58.361 37.0854 57.129C37.0854 55.886 36.4804 55.006 35.4024 55.006C34.5884 55.006 33.7744 55.589 33.7744 56.931ZM39.4917 58.625V55.094H38.6007V54.247H39.4917V52.564H40.4707V54.247H41.7797V55.094H40.4707V58.471C40.4707 59.076 40.7677 59.186 41.2737 59.186C41.5047 59.186 41.6697 59.175 41.9007 59.12V59.967C41.6477 60.022 41.3617 60.055 41.0317 60.055C40.0527 60.055 39.4917 59.725 39.4917 58.625ZM44.517 60.099C43.472 60.099 42.625 59.483 42.625 58.449C42.625 57.305 43.516 56.832 44.803 56.568L46.2 56.282V56.04C46.2 55.38 45.837 55.006 45.067 55.006C44.341 55.006 43.912 55.347 43.736 55.985L42.801 55.743C43.076 54.808 43.923 54.137 45.1 54.137C46.387 54.137 47.179 54.764 47.179 55.996V58.801C47.179 59.175 47.41 59.296 47.795 59.208V60C46.915 60.11 46.409 59.901 46.288 59.351C45.936 59.802 45.298 60.099 44.517 60.099ZM46.2 58.042V57.052L45.078 57.294C44.198 57.47 43.604 57.712 43.604 58.405C43.604 58.966 44.011 59.296 44.638 59.296C45.485 59.296 46.2 58.779 46.2 58.042ZM48.822 53.246V52.102H49.9V53.246H48.822ZM49.856 54.247V60H48.866V54.247H49.856ZM51.5086 60V54.247H52.4986V55.028C52.8286 54.555 53.4006 54.137 54.2146 54.137C55.4356 54.137 56.1286 54.984 56.1286 56.205V60H55.1386V56.469C55.1386 55.666 54.7976 55.061 53.9396 55.061C53.2246 55.061 52.4986 55.611 52.4986 56.568V60H51.5086ZM60.0166 60.121C58.4216 60.121 57.3216 58.9 57.3216 57.129C57.3216 55.413 58.4106 54.137 59.9726 54.137C61.5786 54.137 62.4256 55.358 62.4256 56.953V57.283H58.2676C58.3226 58.493 59.0156 59.263 60.0166 59.263C60.7866 59.263 61.3366 58.845 61.5126 58.163L62.3816 58.471C62.0296 59.494 61.1606 60.121 60.0166 60.121ZM59.9616 54.984C59.1256 54.984 58.4986 55.545 58.3226 56.524H61.4246C61.4026 55.71 60.9626 54.984 59.9616 54.984ZM65.77 60.121C64.175 60.121 63.262 58.757 63.262 57.129C63.262 55.49 64.175 54.137 65.77 54.137C66.573 54.137 67.211 54.522 67.552 55.083V52.102H68.542V60H67.552V59.164C67.211 59.736 66.573 60.121 65.77 60.121ZM67.574 56.931C67.574 55.589 66.76 55.006 65.946 55.006C64.868 55.006 64.263 55.886 64.263 57.129C64.263 58.361 64.868 59.252 65.946 59.252C66.76 59.252 67.574 58.658 67.574 57.338V56.931ZM73.8871 57.096V60H72.2701V52.102H75.5041C77.3191 52.102 78.4521 52.96 78.4521 54.599C78.4521 56.227 77.3191 57.096 75.5041 57.096H73.8871ZM73.8871 55.721H75.4161C76.3621 55.721 76.8461 55.303 76.8461 54.599C76.8461 53.884 76.3621 53.477 75.4161 53.477H73.8871V55.721ZM78.6217 58.559L79.7327 57.481C80.3157 58.306 81.1627 58.768 82.0317 58.768C82.8567 58.768 83.4617 58.405 83.4617 57.734C83.4617 57.008 82.7137 56.909 81.5257 56.645C80.3487 56.37 79.0727 55.996 79.0727 54.434C79.0727 52.927 80.3707 51.981 82.0097 51.981C83.3737 51.981 84.4407 52.586 84.9907 53.378L83.9237 54.423C83.4617 53.774 82.8457 53.334 81.9657 53.334C81.1957 53.334 80.6677 53.708 80.6677 54.28C80.6677 54.896 81.2397 55.017 82.2737 55.248C83.5277 55.523 85.0677 55.842 85.0677 57.569C85.0677 59.164 83.6597 60.121 81.9767 60.121C80.6457 60.121 79.2597 59.516 78.6217 58.559ZM85.2604 58.559L86.3714 57.481C86.9544 58.306 87.8014 58.768 88.6704 58.768C89.4954 58.768 90.1004 58.405 90.1004 57.734C90.1004 57.008 89.3524 56.909 88.1644 56.645C86.9874 56.37 85.7114 55.996 85.7114 54.434C85.7114 52.927 87.0094 51.981 88.6484 51.981C90.0124 51.981 91.0794 52.586 91.6294 53.378L90.5624 54.423C90.1004 53.774 89.4844 53.334 88.6044 53.334C87.8344 53.334 87.3064 53.708 87.3064 54.28C87.3064 54.896 87.8784 55.017 88.9124 55.248C90.1664 55.523 91.7064 55.842 91.7064 57.569C91.7064 59.164 90.2984 60.121 88.6154 60.121C87.2844 60.121 85.8984 59.516 85.2604 58.559ZM94.2221 57.096V60H92.6051V52.102H95.8391C97.6541 52.102 98.7871 52.96 98.7871 54.599C98.7871 56.227 97.6541 57.096 95.8391 57.096H94.2221ZM94.2221 55.721H95.7511C96.6971 55.721 97.1811 55.303 97.1811 54.599C97.1811 53.884 96.6971 53.477 95.7511 53.477H94.2221V55.721ZM104.571 52.036C104.996 52.036 105.374 52.102 105.704 52.234C106.034 52.366 106.294 52.5603 106.485 52.817C106.676 53.0663 106.771 53.3743 106.771 53.741C106.771 54.247 106.621 54.6723 106.32 55.017C106.019 55.3617 105.645 55.6623 105.198 55.919L106.727 57.404C106.874 57.1547 107.002 56.8943 107.112 56.623C107.222 56.3443 107.314 56.0657 107.387 55.787H109.092C108.982 56.1977 108.821 56.6377 108.608 57.107C108.395 57.5763 108.124 58.0163 107.794 58.427L109.411 60H107.387L106.771 59.395C106.61 59.505 106.441 59.604 106.265 59.692C106.089 59.78 105.906 59.857 105.715 59.923C105.524 59.9817 105.323 60.0257 105.11 60.055C104.897 60.0917 104.677 60.11 104.45 60.11C103.856 60.11 103.346 60.0183 102.921 59.835C102.496 59.6443 102.169 59.3803 101.942 59.043C101.715 58.7057 101.601 58.317 101.601 57.877C101.601 57.503 101.656 57.184 101.766 56.92C101.883 56.6487 102.048 56.414 102.261 56.216C102.481 56.0107 102.741 55.8237 103.042 55.655C102.851 55.435 102.697 55.2297 102.58 55.039C102.47 54.841 102.389 54.6467 102.338 54.456C102.294 54.2653 102.272 54.0637 102.272 53.851C102.272 53.477 102.367 53.1543 102.558 52.883C102.756 52.6117 103.027 52.4027 103.372 52.256C103.724 52.1093 104.124 52.036 104.571 52.036ZM103.999 56.634C103.86 56.7367 103.739 56.843 103.636 56.953C103.541 57.063 103.464 57.1803 103.405 57.305C103.354 57.4297 103.328 57.569 103.328 57.723C103.328 58.0383 103.445 58.2877 103.68 58.471C103.915 58.647 104.208 58.735 104.56 58.735C104.795 58.735 105.015 58.7057 105.22 58.647C105.425 58.5883 105.612 58.5077 105.781 58.405L103.999 56.634ZM104.56 53.301C104.377 53.301 104.201 53.3487 104.032 53.444C103.871 53.532 103.79 53.7043 103.79 53.961C103.79 54.1443 103.834 54.3203 103.922 54.489C104.017 54.6577 104.142 54.83 104.296 55.006C104.604 54.8373 104.839 54.6687 105 54.5C105.169 54.3313 105.253 54.137 105.253 53.917C105.253 53.697 105.18 53.5393 105.033 53.444C104.886 53.3487 104.729 53.301 104.56 53.301ZM111.536 58.559L112.647 57.481C113.23 58.306 114.077 58.768 114.946 58.768C115.771 58.768 116.376 58.405 116.376 57.734C116.376 57.008 115.628 56.909 114.44 56.645C113.263 56.37 111.987 55.996 111.987 54.434C111.987 52.927 113.285 51.981 114.924 51.981C116.288 51.981 117.355 52.586 117.905 53.378L116.838 54.423C116.376 53.774 115.76 53.334 114.88 53.334C114.11 53.334 113.582 53.708 113.582 54.28C113.582 54.896 114.154 55.017 115.188 55.248C116.442 55.523 117.982 55.842 117.982 57.569C117.982 59.164 116.574 60.121 114.891 60.121C113.56 60.121 112.174 59.516 111.536 58.559ZM123.853 54.214V60H122.313V59.406C121.994 59.78 121.488 60.121 120.751 60.121C119.552 60.121 118.782 59.296 118.782 58.042V54.214H120.322V57.701C120.322 58.339 120.608 58.757 121.246 58.757C121.785 58.757 122.313 58.361 122.313 57.613V54.214H123.853ZM128.288 60.121C127.562 60.121 127.012 59.835 126.671 59.406V61.958H125.131V54.214H126.671V54.808C127.012 54.39 127.562 54.104 128.288 54.104C129.883 54.104 130.807 55.468 130.807 57.107C130.807 58.757 129.883 60.121 128.288 60.121ZM126.638 56.953V57.272C126.638 58.251 127.188 58.801 127.925 58.801C128.794 58.801 129.256 58.108 129.256 57.107C129.256 56.117 128.794 55.424 127.925 55.424C127.188 55.424 126.638 55.963 126.638 56.953ZM134.268 60.121C132.563 60.121 131.397 58.9 131.397 57.107C131.397 55.402 132.574 54.104 134.213 54.104C135.929 54.104 136.853 55.38 136.853 56.997V57.448H132.871C132.981 58.328 133.52 58.856 134.279 58.856C134.873 58.856 135.346 58.57 135.522 58.009L136.82 58.471C136.402 59.527 135.423 60.121 134.268 60.121ZM134.202 55.336C133.586 55.336 133.113 55.699 132.926 56.403H135.324C135.313 55.831 134.95 55.336 134.202 55.336ZM141.218 54.203V55.71C141.042 55.688 140.91 55.677 140.723 55.677C139.92 55.677 139.304 56.172 139.304 57.063V60H137.764V54.214H139.304V55.028C139.557 54.522 140.129 54.181 140.844 54.181C140.998 54.181 141.108 54.192 141.218 54.203ZM141.734 57.47V56.095H144.902V57.47H141.734ZM147.523 60.099C146.39 60.099 145.554 59.417 145.554 58.394C145.554 57.239 146.478 56.755 147.644 56.546L149.085 56.271V56.183C149.085 55.688 148.832 55.38 148.194 55.38C147.622 55.38 147.325 55.633 147.193 56.15L145.73 55.875C145.994 54.896 146.874 54.104 148.249 54.104C149.712 54.104 150.592 54.775 150.592 56.117V58.482C150.592 58.79 150.724 58.889 151.065 58.845V60C150.086 60.143 149.492 59.945 149.239 59.461C148.865 59.868 148.282 60.099 147.523 60.099ZM149.085 57.943V57.349L147.952 57.58C147.446 57.679 147.072 57.844 147.072 58.306C147.072 58.702 147.369 58.933 147.831 58.933C148.48 58.933 149.085 58.592 149.085 57.943ZM157.257 59.362C157.257 61.111 156.047 62.079 154.331 62.079C152.934 62.079 151.966 61.507 151.636 60.374L153.077 59.956C153.242 60.528 153.693 60.88 154.353 60.88C155.156 60.88 155.717 60.484 155.717 59.527V59.131C155.42 59.527 154.837 59.835 154.111 59.835C152.527 59.835 151.603 58.548 151.603 56.964C151.603 55.391 152.527 54.104 154.111 54.104C154.826 54.104 155.42 54.412 155.717 54.808V54.214H157.257V59.362ZM155.728 56.898C155.728 55.941 155.211 55.402 154.474 55.402C153.638 55.402 153.165 55.996 153.165 56.964C153.165 57.932 153.638 58.537 154.474 58.537C155.211 58.537 155.728 57.998 155.728 57.052V56.898ZM161.059 60.121C159.354 60.121 158.188 58.9 158.188 57.107C158.188 55.402 159.365 54.104 161.004 54.104C162.72 54.104 163.644 55.38 163.644 56.997V57.448H159.662C159.772 58.328 160.311 58.856 161.07 58.856C161.664 58.856 162.137 58.57 162.313 58.009L163.611 58.471C163.193 59.527 162.214 60.121 161.059 60.121ZM160.993 55.336C160.377 55.336 159.904 55.699 159.717 56.403H162.115C162.104 55.831 161.741 55.336 160.993 55.336ZM164.555 60V54.214H166.095V54.808C166.414 54.434 166.942 54.104 167.679 54.104C168.889 54.104 169.626 54.929 169.626 56.183V60H168.086V56.623C168.086 55.974 167.822 55.512 167.162 55.512C166.623 55.512 166.095 55.897 166.095 56.656V60H164.555ZM171.015 58.493V55.501H170.245V54.214H171.015V52.564H172.533V54.214H173.71V55.501H172.533V58.174C172.533 58.669 172.808 58.735 173.259 58.735C173.479 58.735 173.589 58.724 173.787 58.702V59.978C173.512 60.033 173.182 60.066 172.797 60.066C171.631 60.066 171.015 59.681 171.015 58.493ZM27.333 68.003V68.883C27.168 68.861 27.069 68.861 26.904 68.861C26.321 68.861 26.002 69.114 26.002 69.851V70.247H27.278V71.094H26.002V76H25.012V71.094H24.143V70.247H25.012V69.785C25.012 68.663 25.628 67.981 26.805 67.981C27.003 67.981 27.113 67.992 27.333 68.003ZM31.179 70.225V71.226C31.014 71.193 30.882 71.182 30.695 71.182C29.859 71.182 29.188 71.842 29.188 72.854V76H28.198V70.247H29.188V71.226C29.441 70.643 30.002 70.203 30.783 70.203C30.937 70.203 31.08 70.214 31.179 70.225ZM36.983 73.129C36.983 74.911 35.883 76.121 34.31 76.121C32.737 76.121 31.637 74.911 31.637 73.129C31.637 71.347 32.737 70.137 34.31 70.137C35.883 70.137 36.983 71.347 36.983 73.129ZM32.638 73.129C32.638 74.438 33.298 75.274 34.31 75.274C35.322 75.274 35.982 74.438 35.982 73.129C35.982 71.809 35.322 70.973 34.31 70.973C33.298 70.973 32.638 71.809 32.638 73.129ZM39.232 72.557V76H38.242V70.247H39.232V71.028C39.54 70.555 40.09 70.137 40.893 70.137C41.663 70.137 42.202 70.522 42.488 71.116C42.807 70.643 43.423 70.137 44.325 70.137C45.513 70.137 46.228 70.984 46.228 72.205V76H45.238V72.469C45.238 71.666 44.908 71.061 44.094 71.061C43.434 71.061 42.73 71.622 42.73 72.557V76H41.74V72.469C41.74 71.666 41.41 71.061 40.596 71.061C39.936 71.061 39.232 71.622 39.232 72.557ZM50.7823 72.051C50.7823 73.921 51.8163 75.186 53.2793 75.186C54.3023 75.186 55.0393 74.592 55.3253 73.591L56.3263 73.921C55.8643 75.285 54.7863 76.121 53.2793 76.121C51.2333 76.121 49.7263 74.46 49.7263 72.051C49.7263 69.642 51.2333 67.981 53.2793 67.981C54.7863 67.981 55.8643 68.817 56.3263 70.181L55.3253 70.511C55.0393 69.51 54.3023 68.916 53.2793 68.916C51.8163 68.916 50.7823 70.181 50.7823 72.051ZM57.4393 76V68.102H60.3543C62.0263 68.102 62.9173 68.839 62.9173 70.159C62.9173 71.171 62.3013 71.677 61.6963 71.886C62.5873 72.128 63.1813 72.821 63.1813 73.822C63.1813 75.197 62.1803 76 60.5853 76H57.4393ZM58.4623 71.49H60.2663C61.3223 71.49 61.9053 71.083 61.9053 70.247C61.9053 69.4 61.3223 68.993 60.2663 68.993H58.4623V71.49ZM58.4623 72.392V75.109H60.5413C61.5973 75.109 62.1693 74.559 62.1693 73.745C62.1693 72.942 61.5973 72.392 60.5413 72.392H58.4623ZM70.7017 68.102V76H69.7887L65.4767 69.642V76H64.4647V68.102H65.5757L69.6787 74.207V68.102H70.7017ZM74.3267 72.986C74.3267 72.3847 74.3817 71.798 74.4917 71.226C74.6091 70.654 74.7887 70.1077 75.0307 69.587C75.2727 69.0663 75.5771 68.586 75.9437 68.146H76.8567C76.5194 68.6007 76.2334 69.092 75.9987 69.62C75.7714 70.148 75.5991 70.6943 75.4817 71.259C75.3644 71.8237 75.3057 72.3957 75.3057 72.975C75.3057 73.5397 75.3644 74.1007 75.4817 74.658C75.5991 75.2153 75.7714 75.7507 75.9987 76.264C76.2261 76.7847 76.5084 77.276 76.8457 77.738H75.9437C75.5771 77.3053 75.2727 76.8323 75.0307 76.319C74.7887 75.813 74.6091 75.2777 74.4917 74.713C74.3817 74.1483 74.3267 73.5727 74.3267 72.986ZM78.6476 72.051C78.6476 73.921 79.6816 75.186 81.1446 75.186C82.1676 75.186 82.9046 74.592 83.1906 73.591L84.1916 73.921C83.7296 75.285 82.6516 76.121 81.1446 76.121C79.0986 76.121 77.5916 74.46 77.5916 72.051C77.5916 69.642 79.0986 67.981 81.1446 67.981C82.6516 67.981 83.7296 68.817 84.1916 70.181L83.1906 70.511C82.9046 69.51 82.1676 68.916 81.1446 68.916C79.6816 68.916 78.6476 70.181 78.6476 72.051ZM87.5595 76.121C85.9645 76.121 84.8645 74.9 84.8645 73.129C84.8645 71.413 85.9535 70.137 87.5155 70.137C89.1215 70.137 89.9685 71.358 89.9685 72.953V73.283H85.8105C85.8655 74.493 86.5585 75.263 87.5595 75.263C88.3295 75.263 88.8795 74.845 89.0555 74.163L89.9245 74.471C89.5725 75.494 88.7035 76.121 87.5595 76.121ZM87.5045 70.984C86.6685 70.984 86.0415 71.545 85.8655 72.524H88.9675C88.9455 71.71 88.5055 70.984 87.5045 70.984ZM91.201 76V70.247H92.191V71.028C92.521 70.555 93.093 70.137 93.907 70.137C95.128 70.137 95.821 70.984 95.821 72.205V76H94.831V72.469C94.831 71.666 94.49 71.061 93.632 71.061C92.917 71.061 92.191 71.611 92.191 72.568V76H91.201ZM97.564 74.625V71.094H96.673V70.247H97.564V68.564H98.543V70.247H99.852V71.094H98.543V74.471C98.543 75.076 98.84 75.186 99.346 75.186C99.577 75.186 99.742 75.175 99.973 75.12V75.967C99.72 76.022 99.434 76.055 99.104 76.055C98.125 76.055 97.564 75.725 97.564 74.625ZM104.129 70.225V71.226C103.964 71.193 103.832 71.182 103.645 71.182C102.809 71.182 102.138 71.842 102.138 72.854V76H101.148V70.247H102.138V71.226C102.391 70.643 102.952 70.203 103.733 70.203C103.887 70.203 104.03 70.214 104.129 70.225ZM106.542 76.099C105.497 76.099 104.65 75.483 104.65 74.449C104.65 73.305 105.541 72.832 106.828 72.568L108.225 72.282V72.04C108.225 71.38 107.862 71.006 107.092 71.006C106.366 71.006 105.937 71.347 105.761 71.985L104.826 71.743C105.101 70.808 105.948 70.137 107.125 70.137C108.412 70.137 109.204 70.764 109.204 71.996V74.801C109.204 75.175 109.435 75.296 109.82 75.208V76C108.94 76.11 108.434 75.901 108.313 75.351C107.961 75.802 107.323 76.099 106.542 76.099ZM108.225 74.042V73.052L107.103 73.294C106.223 73.47 105.629 73.712 105.629 74.405C105.629 74.966 106.036 75.296 106.663 75.296C107.51 75.296 108.225 74.779 108.225 74.042ZM111.881 68.102V76H110.891V68.102H111.881ZM115.898 76V68.102H118.813C120.485 68.102 121.376 68.839 121.376 70.159C121.376 71.171 120.76 71.677 120.155 71.886C121.046 72.128 121.64 72.821 121.64 73.822C121.64 75.197 120.639 76 119.044 76H115.898ZM116.921 71.49H118.725C119.781 71.49 120.364 71.083 120.364 70.247C120.364 69.4 119.781 68.993 118.725 68.993H116.921V71.49ZM116.921 72.392V75.109H119C120.056 75.109 120.628 74.559 120.628 73.745C120.628 72.942 120.056 72.392 119 72.392H116.921ZM124.321 76.099C123.276 76.099 122.429 75.483 122.429 74.449C122.429 73.305 123.32 72.832 124.607 72.568L126.004 72.282V72.04C126.004 71.38 125.641 71.006 124.871 71.006C124.145 71.006 123.716 71.347 123.54 71.985L122.605 71.743C122.88 70.808 123.727 70.137 124.904 70.137C126.191 70.137 126.983 70.764 126.983 71.996V74.801C126.983 75.175 127.214 75.296 127.599 75.208V76C126.719 76.11 126.213 75.901 126.092 75.351C125.74 75.802 125.102 76.099 124.321 76.099ZM126.004 74.042V73.052L124.882 73.294C124.002 73.47 123.408 73.712 123.408 74.405C123.408 74.966 123.815 75.296 124.442 75.296C125.289 75.296 126.004 74.779 126.004 74.042ZM128.67 76V70.247H129.66V71.028C129.99 70.555 130.562 70.137 131.376 70.137C132.597 70.137 133.29 70.984 133.29 72.205V76H132.3V72.469C132.3 71.666 131.959 71.061 131.101 71.061C130.386 71.061 129.66 71.611 129.66 72.568V76H128.67ZM135.869 68.102V72.931L138.421 70.247H139.653L137.409 72.513L139.84 76H138.685L136.705 73.228L135.869 74.075V76H134.879V68.102H135.869ZM148.025 73.129C148.025 74.911 146.925 76.121 145.352 76.121C143.779 76.121 142.679 74.911 142.679 73.129C142.679 71.347 143.779 70.137 145.352 70.137C146.925 70.137 148.025 71.347 148.025 73.129ZM143.68 73.129C143.68 74.438 144.34 75.274 145.352 75.274C146.364 75.274 147.024 74.438 147.024 73.129C147.024 71.809 146.364 70.973 145.352 70.973C144.34 70.973 143.68 71.809 143.68 73.129ZM151.792 68.003V68.883C151.627 68.861 151.528 68.861 151.363 68.861C150.78 68.861 150.461 69.114 150.461 69.851V70.247H151.737V71.094H150.461V76H149.471V71.094H148.602V70.247H149.471V69.785C149.471 68.663 150.087 67.981 151.264 67.981C151.462 67.981 151.572 67.992 151.792 68.003ZM31.106 84.102V92H30.193L25.881 85.642V92H24.869V84.102H25.98L30.083 90.207V84.102H31.106ZM32.7517 85.246V84.102H33.8297V85.246H32.7517ZM33.7857 86.247V92H32.7957V86.247H33.7857ZM40.3113 91.483C40.3113 93.166 39.2003 94.101 37.6383 94.101C36.3733 94.101 35.4493 93.518 35.1303 92.462L36.0543 92.11C36.2413 92.847 36.8353 93.276 37.6383 93.276C38.6503 93.276 39.3213 92.759 39.3213 91.56V90.911C39.0133 91.472 38.3643 91.868 37.5613 91.868C35.9883 91.868 35.0643 90.57 35.0643 88.997C35.0643 87.435 35.9883 86.137 37.5613 86.137C38.3533 86.137 39.0133 86.533 39.3213 87.094V86.247H40.3113V91.483ZM39.3323 88.909C39.3323 87.622 38.5623 87.006 37.7373 87.006C36.6923 87.006 36.0543 87.787 36.0543 88.997C36.0543 90.207 36.6923 90.999 37.7373 90.999C38.5623 90.999 39.3323 90.383 39.3323 89.118V88.909ZM44.2578 92.121C42.6628 92.121 41.5628 90.9 41.5628 89.129C41.5628 87.413 42.6518 86.137 44.2138 86.137C45.8198 86.137 46.6668 87.358 46.6668 88.953V89.283H42.5088C42.5638 90.493 43.2568 91.263 44.2578 91.263C45.0278 91.263 45.5778 90.845 45.7538 90.163L46.6228 90.471C46.2708 91.494 45.4018 92.121 44.2578 92.121ZM44.2028 86.984C43.3668 86.984 42.7398 87.545 42.5638 88.524H45.6658C45.6438 87.71 45.2038 86.984 44.2028 86.984ZM50.8802 86.225V87.226C50.7152 87.193 50.5832 87.182 50.3962 87.182C49.5602 87.182 48.8892 87.842 48.8892 88.854V92H47.8992V86.247H48.8892V87.226C49.1422 86.643 49.7032 86.203 50.4842 86.203C50.6382 86.203 50.7812 86.214 50.8802 86.225ZM51.9265 85.246V84.102H53.0045V85.246H51.9265ZM52.9605 86.247V92H51.9705V86.247H52.9605ZM56.0541 92.099C55.0091 92.099 54.1621 91.483 54.1621 90.449C54.1621 89.305 55.0531 88.832 56.3401 88.568L57.7371 88.282V88.04C57.7371 87.38 57.3741 87.006 56.6041 87.006C55.8781 87.006 55.4491 87.347 55.2731 87.985L54.3381 87.743C54.6131 86.808 55.4601 86.137 56.6371 86.137C57.9241 86.137 58.7161 86.764 58.7161 87.996V90.801C58.7161 91.175 58.9471 91.296 59.3321 91.208V92C58.4521 92.11 57.9461 91.901 57.8251 91.351C57.4731 91.802 56.8351 92.099 56.0541 92.099ZM57.7371 90.042V89.052L56.6151 89.294C55.7351 89.47 55.1411 89.712 55.1411 90.405C55.1411 90.966 55.5481 91.296 56.1751 91.296C57.0221 91.296 57.7371 90.779 57.7371 90.042ZM62.4381 88.986C62.4381 89.5727 62.3795 90.1483 62.2621 90.713C62.1521 91.2777 61.9761 91.813 61.7341 92.319C61.4995 92.8323 61.1951 93.3053 60.8211 93.738H59.9191C60.2565 93.276 60.5388 92.7847 60.7661 92.264C60.9935 91.7507 61.1658 91.2153 61.2831 90.658C61.4005 90.1007 61.4591 89.5397 61.4591 88.975C61.4591 88.3957 61.4005 87.8237 61.2831 87.259C61.1658 86.6943 60.9935 86.148 60.7661 85.62C60.5388 85.092 60.2528 84.6007 59.9081 84.146H60.8211C61.1951 84.586 61.4995 85.0663 61.7341 85.587C61.9761 86.1077 62.1521 86.654 62.2621 87.226C62.3795 87.798 62.4381 88.3847 62.4381 88.986Z" fill="black"/>
<rect x="12" y="55" width="4" height="4" fill="black"/>
<rect x="83.5" y="4.5" width="39" height="39" rx="19.5" fill="white"/>
<rect x="83.5" y="4.5" width="39" height="39" rx="19.5" stroke="#49D7C6"/>
<path d="M100.5 23C100.257 23 100.027 23.058 99.824 23.16C100.622 23.3579 101.366 23.7328 102 24.257V24H105.5C105.633 24 105.76 24.0527 105.854 24.1464C105.947 24.2402 106 24.3674 106 24.5V26H103.4C103.562 26.317 103.694 26.651 103.793 27H106V28.5C106 28.6326 105.947 28.7598 105.854 28.8536C105.76 28.9473 105.633 29 105.5 29H103.978C103.947 29.3383 103.885 29.6731 103.793 30H105.5C105.898 30 106.279 29.842 106.561 29.5607C106.842 29.2794 107 28.8978 107 28.5V24.5C107 24.1022 106.842 23.7206 106.561 23.4393C106.279 23.158 105.898 23 105.5 23H100.5ZM97 23.207C97.3269 23.1145 97.6617 23.0525 98 23.022V18C98 17.7348 98.1054 17.4804 98.2929 17.2929C98.4804 17.1054 98.7348 17 99 17H103V20.5C103 20.8978 103.158 21.2794 103.439 21.5607C103.721 21.842 104.102 22 104.5 22H108V30C108 30.2652 107.895 30.5196 107.707 30.7071C107.52 30.8946 107.265 31 107 31H103.4C103.218 31.3562 102.998 31.6915 102.743 32H107C107.53 32 108.039 31.7893 108.414 31.4142C108.789 31.0391 109 30.5304 109 30V21.414C109 21.0163 108.841 20.635 108.56 20.354L104.646 16.439C104.365 16.158 103.984 16.0001 103.586 16H99C98.4696 16 97.9609 16.2107 97.5858 16.5858C97.2107 16.9609 97 17.4696 97 18V23.207ZM107.793 21H104.5C104.367 21 104.24 20.9473 104.146 20.8536C104.053 20.7598 104 20.6326 104 20.5V17.207L107.793 21ZM103 28.5C103 29.6935 102.526 30.8381 101.682 31.682C100.838 32.5259 99.6935 33 98.5 33C97.3065 33 96.1619 32.5259 95.318 31.682C94.4741 30.8381 94 29.6935 94 28.5C94 27.3065 94.4741 26.1619 95.318 25.318C96.1619 24.4741 97.3065 24 98.5 24C99.6935 24 100.838 24.4741 101.682 25.318C102.526 26.1619 103 27.3065 103 28.5ZM100.854 26.646C100.808 26.5994 100.752 26.5625 100.692 26.5373C100.631 26.5121 100.566 26.4991 100.5 26.4991C100.434 26.4991 100.369 26.5121 100.308 26.5373C100.248 26.5625 100.192 26.5994 100.146 26.646L97.5 29.293L96.854 28.646C96.7601 28.5521 96.6328 28.4994 96.5 28.4994C96.3672 28.4994 96.2399 28.5521 96.146 28.646C96.0521 28.7399 95.9994 28.8672 95.9994 29C95.9994 29.1328 96.0521 29.2601 96.146 29.354L97.146 30.354C97.1924 30.4006 97.2476 30.4375 97.3084 30.4627C97.3691 30.4879 97.4342 30.5009 97.5 30.5009C97.5658 30.5009 97.6309 30.4879 97.6916 30.4627C97.7524 30.4375 97.8076 30.4006 97.854 30.354L100.854 27.354C100.901 27.3076 100.938 27.2524 100.963 27.1916C100.988 27.1309 101.001 27.0658 101.001 27C101.001 26.9342 100.988 26.8691 100.963 26.8084C100.938 26.7476 100.901 26.6924 100.854 26.646Z" fill="#49D7C6"/>
</svg>
