<svg width="206" height="170" viewBox="0 0 206 170" fill="none" xmlns="http://www.w3.org/2000/svg">
<rect y="24" width="206" height="92" rx="12" fill="#37CC00"/>
<path d="M25.693 60V52.102H27.31V58.603H30.94V60H25.693ZM31.7176 53.532V52.102H33.2906V53.532H31.7176ZM33.2796 54.214V60H31.7396V54.214H33.2796ZM37.5573 60H36.0173L33.9163 54.214H35.5113L36.8093 58.13L38.0963 54.214H39.6473L37.5573 60ZM42.6592 60.121C40.9542 60.121 39.7882 58.9 39.7882 57.107C39.7882 55.402 40.9652 54.104 42.6042 54.104C44.3202 54.104 45.2442 55.38 45.2442 56.997V57.448H41.2622C41.3722 58.328 41.9112 58.856 42.6702 58.856C43.2642 58.856 43.7372 58.57 43.9132 58.009L45.2112 58.471C44.7932 59.527 43.8142 60.121 42.6592 60.121ZM42.5932 55.336C41.9772 55.336 41.5042 55.699 41.3172 56.403H43.7152C43.7042 55.831 43.3412 55.336 42.5932 55.336ZM46.1556 60V54.214H47.6956V54.808C48.0146 54.434 48.5426 54.104 49.2796 54.104C50.4896 54.104 51.2266 54.929 51.2266 56.183V60H49.6866V56.623C49.6866 55.974 49.4226 55.512 48.7626 55.512C48.2236 55.512 47.6956 55.897 47.6956 56.656V60H46.1556ZM54.9912 60.121C53.2862 60.121 52.1202 58.9 52.1202 57.107C52.1202 55.402 53.2972 54.104 54.9362 54.104C56.6522 54.104 57.5762 55.38 57.5762 56.997V57.448H53.5942C53.7042 58.328 54.2432 58.856 55.0022 58.856C55.5962 58.856 56.0692 58.57 56.2452 58.009L57.5432 58.471C57.1252 59.527 56.1462 60.121 54.9912 60.121ZM54.9252 55.336C54.3092 55.336 53.8362 55.699 53.6492 56.403H56.0472C56.0362 55.831 55.6732 55.336 54.9252 55.336ZM57.9264 59.021L58.8834 58.042C59.2794 58.581 59.9834 58.922 60.6324 58.922C61.1494 58.922 61.6004 58.746 61.6004 58.328C61.6004 57.888 61.1714 57.833 60.2474 57.657C59.3124 57.47 58.2784 57.228 58.2784 55.985C58.2784 54.874 59.2574 54.104 60.6434 54.104C61.6664 54.104 62.5794 54.522 63.0304 55.105L62.1504 56.073C61.7654 55.578 61.2044 55.303 60.5994 55.303C60.1154 55.303 59.7964 55.512 59.7964 55.831C59.7964 56.205 60.1814 56.271 60.8964 56.414C61.9084 56.623 63.1074 56.854 63.1074 58.163C63.1074 59.373 61.9854 60.121 60.5994 60.121C59.5544 60.121 58.4544 59.736 57.9264 59.021ZM63.4371 59.021L64.3941 58.042C64.7901 58.581 65.4941 58.922 66.1431 58.922C66.6601 58.922 67.1111 58.746 67.1111 58.328C67.1111 57.888 66.6821 57.833 65.7581 57.657C64.8231 57.47 63.7891 57.228 63.7891 55.985C63.7891 54.874 64.7681 54.104 66.1541 54.104C67.1771 54.104 68.0901 54.522 68.5411 55.105L67.6611 56.073C67.2761 55.578 66.7151 55.303 66.1101 55.303C65.6261 55.303 65.3071 55.512 65.3071 55.831C65.3071 56.205 65.6921 56.271 66.4071 56.414C67.4191 56.623 68.6181 56.854 68.6181 58.163C68.6181 59.373 67.4961 60.121 66.1101 60.121C65.0651 60.121 63.9651 59.736 63.4371 59.021ZM75.8025 60H74.1085L71.1935 52.102H72.9315L74.9775 57.943L77.0345 52.102H78.6955L75.8025 60ZM81.0948 60.121C79.3898 60.121 78.2238 58.9 78.2238 57.107C78.2238 55.402 79.4008 54.104 81.0398 54.104C82.7558 54.104 83.6798 55.38 83.6798 56.997V57.448H79.6978C79.8078 58.328 80.3468 58.856 81.1058 58.856C81.6998 58.856 82.1728 58.57 82.3488 58.009L83.6468 58.471C83.2288 59.527 82.2498 60.121 81.0948 60.121ZM81.0288 55.336C80.4128 55.336 79.9398 55.699 79.7528 56.403H82.1508C82.1398 55.831 81.7768 55.336 81.0288 55.336ZM88.0451 54.203V55.71C87.8691 55.688 87.7371 55.677 87.5501 55.677C86.7471 55.677 86.1311 56.172 86.1311 57.063V60H84.5911V54.214H86.1311V55.028C86.3841 54.522 86.9561 54.181 87.6711 54.181C87.8251 54.181 87.9351 54.192 88.0451 54.203ZM88.866 53.532V52.102H90.439V53.532H88.866ZM90.428 54.214V60H88.888V54.214H90.428ZM94.5517 52.014V53.279C94.4087 53.268 94.3207 53.268 94.1557 53.268C93.6717 53.268 93.4187 53.411 93.4187 53.983V54.214H94.5407V55.501H93.4187V60H91.8787V55.501H91.0977V54.214H91.8787V53.895C91.8787 52.674 92.5387 51.992 93.9577 51.992C94.1777 51.992 94.3097 51.992 94.5517 52.014ZM95.2254 53.532V52.102H96.7984V53.532H95.2254ZM96.7874 54.214V60H95.2474V54.214H96.7874ZM99.2391 57.107C99.2391 58.196 99.7781 58.823 100.592 58.823C101.23 58.823 101.615 58.383 101.758 57.789L103.089 58.383C102.825 59.329 101.923 60.121 100.581 60.121C98.8981 60.121 97.7101 58.9 97.7101 57.107C97.7101 55.325 98.8981 54.104 100.581 54.104C101.912 54.104 102.792 54.874 103.067 55.809L101.758 56.425C101.615 55.831 101.23 55.391 100.592 55.391C99.7781 55.391 99.2391 56.029 99.2391 57.107ZM105.489 60.099C104.356 60.099 103.52 59.417 103.52 58.394C103.52 57.239 104.444 56.755 105.61 56.546L107.051 56.271V56.183C107.051 55.688 106.798 55.38 106.16 55.38C105.588 55.38 105.291 55.633 105.159 56.15L103.696 55.875C103.96 54.896 104.84 54.104 106.215 54.104C107.678 54.104 108.558 54.775 108.558 56.117V58.482C108.558 58.79 108.69 58.889 109.031 58.845V60C108.052 60.143 107.458 59.945 107.205 59.461C106.831 59.868 106.248 60.099 105.489 60.099ZM107.051 57.943V57.349L105.918 57.58C105.412 57.679 105.038 57.844 105.038 58.306C105.038 58.702 105.335 58.933 105.797 58.933C106.446 58.933 107.051 58.592 107.051 57.943ZM110.032 58.493V55.501H109.262V54.214H110.032V52.564H111.55V54.214H112.727V55.501H111.55V58.174C111.55 58.669 111.825 58.735 112.276 58.735C112.496 58.735 112.606 58.724 112.804 58.702V59.978C112.529 60.033 112.199 60.066 111.814 60.066C110.648 60.066 110.032 59.681 110.032 58.493ZM113.702 53.532V52.102H115.275V53.532H113.702ZM115.264 54.214V60H113.724V54.214H115.264ZM121.863 57.107C121.863 58.911 120.697 60.121 119.025 60.121C117.353 60.121 116.187 58.911 116.187 57.107C116.187 55.314 117.353 54.104 119.025 54.104C120.697 54.104 121.863 55.314 121.863 57.107ZM117.716 57.107C117.716 58.207 118.222 58.845 119.025 58.845C119.828 58.845 120.323 58.207 120.323 57.107C120.323 56.018 119.828 55.38 119.025 55.38C118.222 55.38 117.716 56.018 117.716 57.107ZM122.801 60V54.214H124.341V54.808C124.66 54.434 125.188 54.104 125.925 54.104C127.135 54.104 127.872 54.929 127.872 56.183V60H126.332V56.623C126.332 55.974 126.068 55.512 125.408 55.512C124.869 55.512 124.341 55.897 124.341 56.656V60H122.801ZM132.208 57.129C132.208 58.438 132.912 59.252 133.935 59.252C134.727 59.252 135.2 58.746 135.365 58.031L136.245 58.438C135.97 59.395 135.134 60.121 133.935 60.121C132.329 60.121 131.218 58.9 131.218 57.129C131.218 55.347 132.329 54.137 133.935 54.137C135.134 54.137 135.948 54.83 136.223 55.787L135.365 56.216C135.2 55.512 134.727 54.995 133.935 54.995C132.912 54.995 132.208 55.809 132.208 57.129ZM138.834 60.099C137.789 60.099 136.942 59.483 136.942 58.449C136.942 57.305 137.833 56.832 139.12 56.568L140.517 56.282V56.04C140.517 55.38 140.154 55.006 139.384 55.006C138.658 55.006 138.229 55.347 138.053 55.985L137.118 55.743C137.393 54.808 138.24 54.137 139.417 54.137C140.704 54.137 141.496 54.764 141.496 55.996V58.801C141.496 59.175 141.727 59.296 142.112 59.208V60C141.232 60.11 140.726 59.901 140.605 59.351C140.253 59.802 139.615 60.099 138.834 60.099ZM140.517 58.042V57.052L139.395 57.294C138.515 57.47 137.921 57.712 137.921 58.405C137.921 58.966 138.328 59.296 138.955 59.296C139.802 59.296 140.517 58.779 140.517 58.042ZM145.955 60.121C145.152 60.121 144.514 59.736 144.173 59.164V61.98H143.183V54.247H144.173V55.083C144.514 54.522 145.152 54.137 145.955 54.137C147.55 54.137 148.463 55.49 148.463 57.129C148.463 58.757 147.55 60.121 145.955 60.121ZM144.151 56.931V57.338C144.151 58.658 144.965 59.252 145.779 59.252C146.857 59.252 147.462 58.361 147.462 57.129C147.462 55.886 146.857 55.006 145.779 55.006C144.965 55.006 144.151 55.589 144.151 56.931ZM151.156 60.099C150.111 60.099 149.264 59.483 149.264 58.449C149.264 57.305 150.155 56.832 151.442 56.568L152.839 56.282V56.04C152.839 55.38 152.476 55.006 151.706 55.006C150.98 55.006 150.551 55.347 150.375 55.985L149.44 55.743C149.715 54.808 150.562 54.137 151.739 54.137C153.026 54.137 153.818 54.764 153.818 55.996V58.801C153.818 59.175 154.049 59.296 154.434 59.208V60C153.554 60.11 153.048 59.901 152.927 59.351C152.575 59.802 151.937 60.099 151.156 60.099ZM152.839 58.042V57.052L151.717 57.294C150.837 57.47 150.243 57.712 150.243 58.405C150.243 58.966 150.65 59.296 151.277 59.296C152.124 59.296 152.839 58.779 152.839 58.042ZM158.277 60.121C157.474 60.121 156.836 59.736 156.495 59.164V60H155.505V52.102H156.495V55.083C156.836 54.522 157.474 54.137 158.277 54.137C159.872 54.137 160.785 55.49 160.785 57.129C160.785 58.757 159.872 60.121 158.277 60.121ZM156.473 56.931V57.338C156.473 58.658 157.287 59.252 158.101 59.252C159.179 59.252 159.784 58.361 159.784 57.129C159.784 55.886 159.179 55.006 158.101 55.006C157.287 55.006 156.473 55.589 156.473 56.931ZM161.992 53.246V52.102H163.07V53.246H161.992ZM163.026 54.247V60H162.036V54.247H163.026ZM165.669 52.102V60H164.679V52.102H165.669ZM167.277 53.246V52.102H168.355V53.246H167.277ZM168.311 54.247V60H167.321V54.247H168.311ZM170.118 58.625V55.094H169.227V54.247H170.118V52.564H171.097V54.247H172.406V55.094H171.097V58.471C171.097 59.076 171.394 59.186 171.9 59.186C172.131 59.186 172.296 59.175 172.527 59.12V59.967C172.274 60.022 171.988 60.055 171.658 60.055C170.679 60.055 170.118 59.725 170.118 58.625ZM175.814 60.627C175.484 61.496 175.033 62.046 174.032 62.046C173.79 62.046 173.669 62.035 173.493 62.002V61.144C173.68 61.188 173.801 61.199 173.966 61.199C174.395 61.199 174.626 61.045 174.857 60.473L175.132 59.791L172.998 54.247H174.043L175.66 58.647L177.255 54.247H178.289L175.814 60.627Z" fill="white"/>
<rect x="12" y="54" width="4" height="4" fill="white"/>
<path d="M27.288 80H25.693V72.102H31.083V73.499H27.288V75.468H30.456V76.865H27.288V80ZM33.0225 80.099C31.8895 80.099 31.0535 79.417 31.0535 78.394C31.0535 77.239 31.9775 76.755 33.1435 76.546L34.5845 76.271V76.183C34.5845 75.688 34.3315 75.38 33.6935 75.38C33.1215 75.38 32.8245 75.633 32.6925 76.15L31.2295 75.875C31.4935 74.896 32.3735 74.104 33.7485 74.104C35.2115 74.104 36.0915 74.775 36.0915 76.117V78.482C36.0915 78.79 36.2235 78.889 36.5645 78.845V80C35.5855 80.143 34.9915 79.945 34.7385 79.461C34.3645 79.868 33.7815 80.099 33.0225 80.099ZM34.5845 77.943V77.349L33.4515 77.58C32.9455 77.679 32.5715 77.844 32.5715 78.306C32.5715 78.702 32.8685 78.933 33.3305 78.933C33.9795 78.933 34.5845 78.592 34.5845 77.943ZM38.6102 77.107C38.6102 78.196 39.1492 78.823 39.9632 78.823C40.6012 78.823 40.9862 78.383 41.1292 77.789L42.4602 78.383C42.1962 79.329 41.2942 80.121 39.9522 80.121C38.2692 80.121 37.0812 78.9 37.0812 77.107C37.0812 75.325 38.2692 74.104 39.9522 74.104C41.2832 74.104 42.1632 74.874 42.4382 75.809L41.1292 76.425C40.9862 75.831 40.6012 75.391 39.9632 75.391C39.1492 75.391 38.6102 76.029 38.6102 77.107ZM45.7315 80.121C44.0265 80.121 42.8605 78.9 42.8605 77.107C42.8605 75.402 44.0375 74.104 45.6765 74.104C47.3925 74.104 48.3165 75.38 48.3165 76.997V77.448H44.3345C44.4445 78.328 44.9835 78.856 45.7425 78.856C46.3365 78.856 46.8095 78.57 46.9855 78.009L48.2835 78.471C47.8655 79.527 46.8865 80.121 45.7315 80.121ZM45.6655 75.336C45.0495 75.336 44.5765 75.699 44.3895 76.403H46.7875C46.7765 75.831 46.4135 75.336 45.6655 75.336ZM50.7678 76.656V80H49.2278V74.214H50.7678V74.808C51.0758 74.434 51.5928 74.104 52.3408 74.104C53.0448 74.104 53.5838 74.401 53.9028 74.896C54.2548 74.533 54.8048 74.104 55.6958 74.104C56.8838 74.104 57.6538 74.929 57.6538 76.183V80H56.1138V76.623C56.1138 75.974 55.8718 75.512 55.2338 75.512C54.7278 75.512 54.2108 75.897 54.2108 76.656V80H52.6708V76.623C52.6708 75.974 52.4288 75.512 51.7908 75.512C51.2848 75.512 50.7678 75.897 50.7678 76.656ZM60.4688 80.099C59.3358 80.099 58.4998 79.417 58.4998 78.394C58.4998 77.239 59.4238 76.755 60.5898 76.546L62.0308 76.271V76.183C62.0308 75.688 61.7778 75.38 61.1398 75.38C60.5678 75.38 60.2708 75.633 60.1388 76.15L58.6758 75.875C58.9398 74.896 59.8198 74.104 61.1948 74.104C62.6578 74.104 63.5378 74.775 63.5378 76.117V78.482C63.5378 78.79 63.6698 78.889 64.0108 78.845V80C63.0318 80.143 62.4378 79.945 62.1848 79.461C61.8108 79.868 61.2278 80.099 60.4688 80.099ZM62.0308 77.943V77.349L60.8978 77.58C60.3918 77.679 60.0178 77.844 60.0178 78.306C60.0178 78.702 60.3148 78.933 60.7768 78.933C61.4258 78.933 62.0308 78.592 62.0308 77.943ZM65.0117 78.493V75.501H64.2417V74.214H65.0117V72.564H66.5297V74.214H67.7067V75.501H66.5297V78.174C66.5297 78.669 66.8047 78.735 67.2557 78.735C67.4757 78.735 67.5857 78.724 67.7837 78.702V79.978C67.5087 80.033 67.1787 80.066 66.7937 80.066C65.6277 80.066 65.0117 79.681 65.0117 78.493ZM69.8485 77.107C69.8485 78.196 70.3875 78.823 71.2015 78.823C71.8395 78.823 72.2245 78.383 72.3675 77.789L73.6985 78.383C73.4345 79.329 72.5325 80.121 71.1905 80.121C69.5075 80.121 68.3195 78.9 68.3195 77.107C68.3195 75.325 69.5075 74.104 71.1905 74.104C72.5215 74.104 73.4015 74.874 73.6765 75.809L72.3675 76.425C72.2245 75.831 71.8395 75.391 71.2015 75.391C70.3875 75.391 69.8485 76.029 69.8485 77.107ZM74.4398 80V72.102H75.9798V74.808C76.2988 74.434 76.8268 74.104 77.5638 74.104C78.7738 74.104 79.5108 74.929 79.5108 76.183V80H77.9708V76.623C77.9708 75.974 77.7068 75.512 77.0468 75.512C76.5078 75.512 75.9798 75.897 75.9798 76.656V80H74.4398ZM83.7501 77.129C83.7501 78.438 84.4541 79.252 85.4771 79.252C86.2691 79.252 86.7421 78.746 86.9071 78.031L87.7871 78.438C87.5121 79.395 86.6761 80.121 85.4771 80.121C83.8711 80.121 82.7601 78.9 82.7601 77.129C82.7601 75.347 83.8711 74.137 85.4771 74.137C86.6761 74.137 87.4901 74.83 87.7651 75.787L86.9071 76.216C86.7421 75.512 86.2691 74.995 85.4771 74.995C84.4541 74.995 83.7501 75.809 83.7501 77.129ZM90.3764 80.099C89.3314 80.099 88.4844 79.483 88.4844 78.449C88.4844 77.305 89.3754 76.832 90.6624 76.568L92.0594 76.282V76.04C92.0594 75.38 91.6964 75.006 90.9264 75.006C90.2004 75.006 89.7714 75.347 89.5954 75.985L88.6604 75.743C88.9354 74.808 89.7824 74.137 90.9594 74.137C92.2464 74.137 93.0384 74.764 93.0384 75.996V78.801C93.0384 79.175 93.2694 79.296 93.6544 79.208V80C92.7744 80.11 92.2684 79.901 92.1474 79.351C91.7954 79.802 91.1574 80.099 90.3764 80.099ZM92.0594 78.042V77.052L90.9374 77.294C90.0574 77.47 89.4634 77.712 89.4634 78.405C89.4634 78.966 89.8704 79.296 90.4974 79.296C91.3444 79.296 92.0594 78.779 92.0594 78.042ZM97.4974 80.121C96.6944 80.121 96.0564 79.736 95.7154 79.164V81.98H94.7254V74.247H95.7154V75.083C96.0564 74.522 96.6944 74.137 97.4974 74.137C99.0924 74.137 100.005 75.49 100.005 77.129C100.005 78.757 99.0924 80.121 97.4974 80.121ZM95.6934 76.931V77.338C95.6934 78.658 96.5074 79.252 97.3214 79.252C98.3994 79.252 99.0044 78.361 99.0044 77.129C99.0044 75.886 98.3994 75.006 97.3214 75.006C96.5074 75.006 95.6934 75.589 95.6934 76.931ZM102.698 80.099C101.653 80.099 100.806 79.483 100.806 78.449C100.806 77.305 101.697 76.832 102.984 76.568L104.381 76.282V76.04C104.381 75.38 104.018 75.006 103.248 75.006C102.522 75.006 102.093 75.347 101.917 75.985L100.982 75.743C101.257 74.808 102.104 74.137 103.281 74.137C104.568 74.137 105.36 74.764 105.36 75.996V78.801C105.36 79.175 105.591 79.296 105.976 79.208V80C105.096 80.11 104.59 79.901 104.469 79.351C104.117 79.802 103.479 80.099 102.698 80.099ZM104.381 78.042V77.052L103.259 77.294C102.379 77.47 101.785 77.712 101.785 78.405C101.785 78.966 102.192 79.296 102.819 79.296C103.666 79.296 104.381 78.779 104.381 78.042ZM109.819 80.121C109.016 80.121 108.378 79.736 108.037 79.164V80H107.047V72.102H108.037V75.083C108.378 74.522 109.016 74.137 109.819 74.137C111.414 74.137 112.327 75.49 112.327 77.129C112.327 78.757 111.414 80.121 109.819 80.121ZM108.015 76.931V77.338C108.015 78.658 108.829 79.252 109.643 79.252C110.721 79.252 111.326 78.361 111.326 77.129C111.326 75.886 110.721 75.006 109.643 75.006C108.829 75.006 108.015 75.589 108.015 76.931ZM113.534 73.246V72.102H114.612V73.246H113.534ZM114.568 74.247V80H113.578V74.247H114.568ZM117.211 72.102V80H116.221V72.102H117.211ZM118.819 73.246V72.102H119.897V73.246H118.819ZM119.853 74.247V80H118.863V74.247H119.853ZM121.66 78.625V75.094H120.769V74.247H121.66V72.564H122.639V74.247H123.948V75.094H122.639V78.471C122.639 79.076 122.936 79.186 123.442 79.186C123.673 79.186 123.838 79.175 124.069 79.12V79.967C123.816 80.022 123.53 80.055 123.2 80.055C122.221 80.055 121.66 79.725 121.66 78.625ZM127.356 80.627C127.026 81.496 126.575 82.046 125.574 82.046C125.332 82.046 125.211 82.035 125.035 82.002V81.144C125.222 81.188 125.343 81.199 125.508 81.199C125.937 81.199 126.168 81.045 126.399 80.473L126.674 79.791L124.54 74.247H125.585L127.202 78.647L128.797 74.247H129.831L127.356 80.627Z" fill="white"/>
<rect x="12" y="74" width="4" height="4" fill="white"/>
<path d="M27.31 92.102V95.688L30.357 92.102H32.249L29.29 95.479L32.436 100H30.544L28.223 96.7L27.31 97.734V100H25.693V92.102H27.31ZM35.7958 95.303L37.7208 92.102H39.4368L36.5878 96.788V100H34.9708V96.788L32.1108 92.102H33.8708L35.7958 95.303ZM40.6213 96.051C40.6213 97.657 41.4683 98.702 42.6783 98.702C43.5363 98.702 44.1633 98.163 44.3833 97.283L45.9013 97.789C45.4393 99.219 44.3173 100.121 42.6783 100.121C40.5443 100.121 38.9933 98.438 38.9933 96.051C38.9933 93.664 40.5443 91.981 42.6783 91.981C44.3173 91.981 45.4393 92.883 45.9013 94.313L44.3833 94.819C44.1633 93.939 43.5363 93.4 42.6783 93.4C41.4683 93.4 40.6213 94.445 40.6213 96.051ZM51.9518 100H50.4118L48.3108 94.214H49.9058L51.2038 98.13L52.4908 94.214H54.0418L51.9518 100ZM57.0537 100.121C55.3487 100.121 54.1827 98.9 54.1827 97.107C54.1827 95.402 55.3597 94.104 56.9987 94.104C58.7147 94.104 59.6387 95.38 59.6387 96.997V97.448H55.6567C55.7667 98.328 56.3057 98.856 57.0647 98.856C57.6587 98.856 58.1317 98.57 58.3077 98.009L59.6057 98.471C59.1877 99.527 58.2087 100.121 57.0537 100.121ZM56.9877 95.336C56.3717 95.336 55.8987 95.699 55.7117 96.403H58.1097C58.0987 95.831 57.7357 95.336 56.9877 95.336ZM64.0041 94.203V95.71C63.8281 95.688 63.6961 95.677 63.5091 95.677C62.7061 95.677 62.0901 96.172 62.0901 97.063V100H60.5501V94.214H62.0901V95.028C62.3431 94.522 62.9151 94.181 63.6301 94.181C63.7841 94.181 63.8941 94.192 64.0041 94.203ZM64.825 93.532V92.102H66.398V93.532H64.825ZM66.387 94.214V100H64.847V94.214H66.387ZM70.5107 92.014V93.279C70.3677 93.268 70.2797 93.268 70.1147 93.268C69.6307 93.268 69.3777 93.411 69.3777 93.983V94.214H70.4997V95.501H69.3777V100H67.8377V95.501H67.0567V94.214H67.8377V93.895C67.8377 92.674 68.4977 91.992 69.9167 91.992C70.1367 91.992 70.2687 91.992 70.5107 92.014ZM71.1844 93.532V92.102H72.7574V93.532H71.1844ZM72.7464 94.214V100H71.2064V94.214H72.7464ZM75.1981 97.107C75.1981 98.196 75.7371 98.823 76.5511 98.823C77.1891 98.823 77.5741 98.383 77.7171 97.789L79.0481 98.383C78.7841 99.329 77.8821 100.121 76.5401 100.121C74.8571 100.121 73.6691 98.9 73.6691 97.107C73.6691 95.325 74.8571 94.104 76.5401 94.104C77.8711 94.104 78.7511 94.874 79.0261 95.809L77.7171 96.425C77.5741 95.831 77.1891 95.391 76.5511 95.391C75.7371 95.391 75.1981 96.029 75.1981 97.107ZM81.4483 100.099C80.3153 100.099 79.4793 99.417 79.4793 98.394C79.4793 97.239 80.4033 96.755 81.5693 96.546L83.0103 96.271V96.183C83.0103 95.688 82.7573 95.38 82.1193 95.38C81.5473 95.38 81.2503 95.633 81.1183 96.15L79.6553 95.875C79.9193 94.896 80.7993 94.104 82.1743 94.104C83.6373 94.104 84.5173 94.775 84.5173 96.117V98.482C84.5173 98.79 84.6493 98.889 84.9903 98.845V100C84.0113 100.143 83.4173 99.945 83.1643 99.461C82.7903 99.868 82.2073 100.099 81.4483 100.099ZM83.0103 97.943V97.349L81.8773 97.58C81.3713 97.679 80.9973 97.844 80.9973 98.306C80.9973 98.702 81.2943 98.933 81.7563 98.933C82.4053 98.933 83.0103 98.592 83.0103 97.943ZM85.9912 98.493V95.501H85.2212V94.214H85.9912V92.564H87.5092V94.214H88.6862V95.501H87.5092V98.174C87.5092 98.669 87.7842 98.735 88.2352 98.735C88.4552 98.735 88.5652 98.724 88.7632 98.702V99.978C88.4882 100.033 88.1582 100.066 87.7732 100.066C86.6072 100.066 85.9912 99.681 85.9912 98.493ZM89.6609 93.532V92.102H91.2339V93.532H89.6609ZM91.2229 94.214V100H89.6829V94.214H91.2229ZM97.8216 97.107C97.8216 98.911 96.6556 100.121 94.9836 100.121C93.3116 100.121 92.1456 98.911 92.1456 97.107C92.1456 95.314 93.3116 94.104 94.9836 94.104C96.6556 94.104 97.8216 95.314 97.8216 97.107ZM93.6746 97.107C93.6746 98.207 94.1806 98.845 94.9836 98.845C95.7866 98.845 96.2816 98.207 96.2816 97.107C96.2816 96.018 95.7866 95.38 94.9836 95.38C94.1806 95.38 93.6746 96.018 93.6746 97.107ZM98.7601 100V94.214H100.3V94.808C100.619 94.434 101.147 94.104 101.884 94.104C103.094 94.104 103.831 94.929 103.831 96.183V100H102.291V96.623C102.291 95.974 102.027 95.512 101.367 95.512C100.828 95.512 100.3 95.897 100.3 96.656V100H98.7601ZM104.494 99.021L105.451 98.042C105.847 98.581 106.551 98.922 107.2 98.922C107.717 98.922 108.168 98.746 108.168 98.328C108.168 97.888 107.739 97.833 106.815 97.657C105.88 97.47 104.846 97.228 104.846 95.985C104.846 94.874 105.825 94.104 107.211 94.104C108.234 94.104 109.147 94.522 109.598 95.105L108.718 96.073C108.333 95.578 107.772 95.303 107.167 95.303C106.683 95.303 106.364 95.512 106.364 95.831C106.364 96.205 106.749 96.271 107.464 96.414C108.476 96.623 109.675 96.854 109.675 98.163C109.675 99.373 108.553 100.121 107.167 100.121C106.122 100.121 105.022 99.736 104.494 99.021Z" fill="white"/>
<rect x="12" y="94" width="4" height="4" fill="white"/>
<rect x="83.5" y="4.5" width="39" height="39" rx="19.5" fill="white"/>
<rect x="83.5" y="4.5" width="39" height="39" rx="19.5" stroke="#37CC00"/>
<mask id="mask0_3183_30241" style="mask-type:luminance" maskUnits="userSpaceOnUse" x="95" y="16" width="17" height="16">
<path d="M95 16H111.178V32H95V16Z" fill="white"/>
</mask>
<g mask="url(#mask0_3183_30241)">
<path fill-rule="evenodd" clip-rule="evenodd" d="M97.4594 16C96.0898 16.0666 95 17.187 95 18.5594V29.4375C95 30.8527 96.1589 32 97.5884 32H108.577C110.006 32 111.165 30.8527 111.165 29.4375V18.5594C111.165 18.1582 111.072 17.7785 110.906 17.4404H110.903L105.24 28.3718H100.406L97.365 19.5108C97.365 19.5108 100.094 19.5108 100.847 19.6932C101.598 19.8748 101.884 20.8566 102.937 24.4629L102.953 24.5147L107.682 16H97.4594Z" fill="#37CC00"/>
</g>
<line x1="102.5" y1="170" x2="102.5" y2="116" stroke="#E7E7E7" stroke-dasharray="4 4"/>
</svg>
