<svg width="18" height="20" viewBox="0 0 18 20" fill="none" xmlns="http://www.w3.org/2000/svg">
<path d="M9.0004 0.25C6.9409 0.25 5.2504 1.941 5.2504 4V4.75H1.5469L1.5004 5.453L0.750397 18.953L0.703094 19.75H17.2969L17.2504 18.953L16.5004 5.453L16.4531 4.75H12.7504V4C12.7504 1.941 11.0599 0.25 9.0004 0.25ZM9.0004 1.75C9.5971 1.75 10.1694 1.987 10.5914 2.409C11.0133 2.831 11.2504 3.403 11.2504 4V4.75H6.7504V4C6.7504 3.403 6.9874 2.831 7.4094 2.409C7.8313 1.987 8.4036 1.75 9.0004 1.75ZM2.95309 6.25H5.2504V8.5H6.7504V6.25H11.2504V8.5H12.7504V6.25H15.0476L15.7039 18.25H2.2976L2.95309 6.25Z" fill="#20336B"/>
</svg>
