<svg width="22" height="21" viewBox="0 0 22 21" fill="none" xmlns="http://www.w3.org/2000/svg">
<path d="M15.842 10.631C16.243 10.636 16.64 10.561 17.011 10.409C17.382 10.258 17.719 10.034 18.002 9.75104L20.832 6.92104C21.019 6.73404 21.123 6.48004 21.123 6.21604C21.123 5.95204 21.019 5.69804 20.832 5.51104C20.739 5.41704 20.629 5.34304 20.507 5.29204C20.385 5.24104 20.254 5.21503 20.122 5.21503C19.99 5.21503 19.86 5.24104 19.738 5.29204C19.616 5.34304 19.505 5.41704 19.412 5.51104L16.552 8.33104C16.459 8.42504 16.349 8.49904 16.227 8.55004C16.105 8.60104 15.974 8.62704 15.842 8.62704C15.71 8.62704 15.58 8.60104 15.458 8.55004C15.336 8.49904 15.225 8.42504 15.132 8.33104L18.672 4.80104C18.766 4.70804 18.84 4.59704 18.89 4.47504C18.941 4.35304 18.967 4.22304 18.967 4.09104C18.967 3.95904 18.941 3.82804 18.89 3.70704C18.84 3.58504 18.766 3.47403 18.672 3.38103C18.579 3.28803 18.469 3.21404 18.347 3.16304C18.225 3.11304 18.094 3.08704 17.962 3.08704C17.831 3.08704 17.7 3.11304 17.578 3.16304C17.456 3.21404 17.346 3.28803 17.252 3.38103L13.722 6.92104C13.536 6.73404 13.432 6.48004 13.432 6.21604C13.432 5.95204 13.536 5.69804 13.722 5.51104L16.552 2.68104C16.646 2.58804 16.72 2.47704 16.77 2.35504C16.821 2.23304 16.847 2.10304 16.847 1.97104C16.847 1.83904 16.821 1.70804 16.77 1.58704C16.72 1.46504 16.646 1.35404 16.552 1.26104C16.459 1.16804 16.349 1.09404 16.227 1.04304C16.105 0.993037 15.974 0.967041 15.842 0.967041C15.711 0.967041 15.58 0.993037 15.458 1.04304C15.336 1.09404 15.226 1.16804 15.132 1.26104L12.302 4.09104C11.741 4.65304 11.425 5.41604 11.425 6.21104C11.425 7.00604 11.741 7.76804 12.302 8.33104L11.002 9.62104L2.73199 1.32104L2.632 1.26104C2.581 1.21604 2.524 1.17904 2.462 1.15104L2.282 1.08104L2.162 1.00104H1.892C1.833 0.991038 1.772 0.991038 1.712 1.00104C1.652 1.02304 1.59501 1.05304 1.54201 1.09104L1.382 1.19104H1.31199L1.252 1.29104C1.21 1.34404 1.173 1.40104 1.142 1.46104C1.113 1.52204 1.09 1.58504 1.072 1.65104C1.072 1.65104 1.072 1.72104 1.072 1.76104C0.830005 3.45204 0.984001 5.17703 1.524 6.79803C2.064 8.41903 2.97401 9.89304 4.18201 11.101L6.822 13.731L1.412 19.131C1.319 19.224 1.244 19.334 1.194 19.456C1.143 19.578 1.117 19.709 1.117 19.841C1.117 19.973 1.143 20.104 1.194 20.225C1.244 20.347 1.319 20.458 1.412 20.551C1.506 20.644 1.617 20.717 1.739 20.767C1.86 20.816 1.99099 20.842 2.12199 20.841C2.25399 20.842 2.384 20.816 2.506 20.767C2.628 20.717 2.739 20.644 2.832 20.551L8.90199 14.571L11.732 11.741L13.732 9.74104C14.29 10.305 15.049 10.625 15.842 10.631ZM8.192 12.451L5.562 9.81104C4.121 8.35004 3.218 6.44204 3.002 4.40104L9.612 11.001L8.192 12.451ZM14.432 13.021C14.244 12.831 13.988 12.724 13.721 12.723C13.454 12.722 13.197 12.828 13.007 13.016C12.818 13.204 12.711 13.46 12.71 13.727C12.709 13.995 12.814 14.251 13.002 14.441L19.302 20.741C19.493 20.915 19.744 21.008 20.002 21.001C20.134 21.002 20.264 20.976 20.386 20.927C20.508 20.877 20.619 20.804 20.712 20.711C20.806 20.618 20.881 20.507 20.931 20.385C20.982 20.264 21.008 20.133 21.008 20.001C21.008 19.869 20.982 19.738 20.931 19.616C20.881 19.494 20.806 19.384 20.712 19.291L14.432 13.021Z" fill="#20336B"/>
</svg>
