<svg width="24" height="23" viewBox="0 0 24 23" fill="none" xmlns="http://www.w3.org/2000/svg">
<path d="M23.8338 5.87357C23.7676 5.79575 23.6853 5.73322 23.5926 5.69031C23.4999 5.64739 23.399 5.62511 23.2968 5.62499H5.67908L4.28779 0.518437C4.24724 0.369567 4.15886 0.238165 4.03626 0.14448C3.91367 0.0507945 3.76366 2.66559e-05 3.60937 0H0.703124C0.314484 0 0 0.314484 0 0.703124C0 1.09176 0.314484 1.40625 0.703124 1.40625H3.07242L6.96552 15.6695C6.22761 16.0009 5.71874 16.7244 5.71874 17.5781C5.71874 18.5505 6.38333 19.363 7.27982 19.6061C7.18189 19.8491 7.12499 20.1129 7.12499 20.3906C7.12499 21.5537 8.07121 22.5 9.23436 22.5C10.3975 22.5 11.3437 21.5537 11.3437 20.3906C11.3437 20.1429 11.293 19.9085 11.2142 19.6875H17.0982C17.0194 19.9085 16.9687 20.1429 16.9687 20.3906C16.9687 21.5537 17.9149 22.5 19.0781 22.5C20.2412 22.5 21.1875 21.5537 21.1875 20.3906C21.1875 19.2274 20.2412 18.2812 19.0781 18.2812H7.82811C7.44083 18.2812 7.12499 17.966 7.12499 17.5781C7.12499 16.9231 7.96906 16.7851 7.82811 16.8612C7.96874 16.8612 8.44414 16.8025 21.9593 15.4653C22.1132 15.4503 22.2579 15.3848 22.3709 15.2792C22.4838 15.1735 22.5588 15.0336 22.5841 14.881L23.9904 6.44347C24.0072 6.34281 24.0019 6.23968 23.9749 6.14126C23.9479 6.04284 23.8997 5.95149 23.8338 5.87357ZM9.93748 20.3906C9.93748 20.7785 9.62164 21.0937 9.23436 21.0937C8.84708 21.0937 8.53124 20.7785 8.53124 20.3906C8.53124 20.0027 8.84708 19.6875 9.23436 19.6875C9.62164 19.6875 9.93748 20.0027 9.93748 20.3906ZM19.0781 21.0937C18.6908 21.0937 18.375 20.7785 18.375 20.3906C18.375 20.0027 18.6908 19.6875 19.0781 19.6875C19.4654 19.6875 19.7812 20.0027 19.7812 20.3906C19.7812 20.7785 19.4654 21.0937 19.0781 21.0937ZM11.3437 11.9531C11.3437 12.3417 11.0292 12.6562 10.6406 12.6562C10.252 12.6562 9.93748 12.3417 9.93748 11.9531V9.14061C9.93748 8.75197 10.252 8.43749 10.6406 8.43749C11.0292 8.43749 11.3437 8.75197 11.3437 9.14061V11.9531ZM15.5625 11.9531C15.5625 12.3417 15.248 12.6562 14.8594 12.6562C14.4707 12.6562 14.1562 12.3417 14.1562 11.9531V9.14061C14.1562 8.75197 14.4707 8.43749 14.8594 8.43749C15.248 8.43749 15.5625 8.75197 15.5625 9.14061V11.9531ZM19.7812 11.9531C19.7812 12.3417 19.4667 12.6562 19.0781 12.6562C18.6895 12.6562 18.375 12.3417 18.375 11.9531V9.14061C18.375 8.75197 18.6895 8.43749 19.0781 8.43749C19.4667 8.43749 19.7812 8.75197 19.7812 9.14061V11.9531Z" fill="#20336B"/>
<path d="M21.1875 2.10938C21.1875 1.72074 20.873 1.40626 20.4844 1.40626H19.3692L19.5753 1.20024C19.8499 0.925604 19.8499 0.48062 19.5753 0.20598C19.3006 -0.0686601 18.8556 -0.0686601 18.581 0.20598L17.6719 1.11512L16.7627 0.20598C16.4881 -0.0686601 16.0431 -0.0686601 15.7685 0.20598C15.4938 0.48062 15.4938 0.925604 15.7685 1.20024L15.9745 1.40626H14.8594C14.4707 1.40626 14.1562 1.72074 14.1562 2.10938V4.21876H21.1875V2.10938ZM12.75 2.81251H7.82812C7.43948 2.81251 7.125 3.12699 7.125 3.51563V4.21876H12.75V2.81251Z" fill="#24BAF2"/>
</svg>
